<?xml version="1.0" encoding="utf-8"?>
<!-- Generator: Adobe Illustrator 24.0.0, SVG Export Plug-In . SVG Version: 6.00 Build 0)  -->
<svg version="1.1" xmlns="http://www.w3.org/2000/svg" xmlns:xlink="http://www.w3.org/1999/xlink" x="0px" y="0px"
	 viewBox="0 0 64 64" enable-background="new 0 0 64 64" xml:space="preserve">
<g id="Grids" display="none">
	<g id="Grid_7_" display="inline">
		<g>
			<path fill="#FF0000" d="M51.9,4.1v55.8H12.1V4.1H51.9 M52,4H12v56h40V4L52,4z"/>
		</g>
		<g>
			<path fill="#4600F0" d="M59.9,12.1v39.8H4.1V12.1H59.9 M60,12H4v40h56V12L60,12z"/>
		</g>
		<g>
			<path fill="#F0C800" d="M55.9,8.1v47.8H8.1V8.1H55.9 M56,8H8v48h48V8L56,8z"/>
		</g>
		<g>
			<path fill="#00F096" d="M32,6.1c14.281,0,25.9,11.619,25.9,25.9S46.281,57.9,32,57.9S6.1,46.281,6.1,32S17.719,6.1,32,6.1 M32,6
				C17.641,6,6,17.641,6,32s11.641,26,26,26s26-11.641,26-26S46.359,6,32,6L32,6z"/>
		</g>
	</g>
</g>
<g id="Captions">
	<g>
	</g>
</g>
<g id="Icons">
	<g>
		<path d="M41.5,7v2c0,0.827,0.673,1.5,1.5,1.5h0.5v1.77h1V10.5h5v7.77h1V10.5H51c0.827,0,1.5-0.673,1.5-1.5V7
			c0-0.827-0.673-1.5-1.5-1.5h-8C42.173,5.5,41.5,6.173,41.5,7z M51.5,7v2c0,0.276-0.225,0.5-0.5,0.5h-8c-0.275,0-0.5-0.224-0.5-0.5
			V7c0-0.276,0.225-0.5,0.5-0.5h8C51.275,6.5,51.5,6.724,51.5,7z"/>
		<path d="M52.5,31.31h-1V53c0,0.276-0.225,0.5-0.5,0.5H32v1h19c0.827,0,1.5-0.673,1.5-1.5V31.31z"/>
		<rect x="11.5" y="31.37" width="1" height="21.63"/>
		<path d="M42,33.5c-1.752,0-3.42,0.527-4.851,1.528l-1.746-1.745c-0.584-0.587-1.535-0.586-2.121-0.001
			c-0.585,0.585-0.587,1.534,0,2.122l1.746,1.746C34.026,38.581,33.5,40.249,33.5,42c0,4.687,3.813,8.5,8.5,8.5s8.5-3.813,8.5-8.5
			S46.687,33.5,42,33.5z M42,49.5c-4.136,0-7.5-3.364-7.5-7.5c0-1.675,0.547-3.263,1.58-4.593c0.155-0.199,0.138-0.482-0.041-0.66
			l-2.05-2.05c-0.197-0.197-0.194-0.514,0-0.707c0.195-0.194,0.51-0.197,0.707,0l2.05,2.049c0.177,0.177,0.46,0.196,0.66,0.042
			C38.736,35.046,40.325,34.5,42,34.5c4.136,0,7.5,3.364,7.5,7.5S46.136,49.5,42,49.5z"/>
		<path d="M33.837,4.231c-0.973-0.972-2.555-0.972-3.527,0L8.427,26.113c-0.587,0.588-0.586,1.537,0.002,2.123l1.414,1.409
			c0.585,0.583,1.535,0.582,2.119-0.002L32.073,9.542L52.18,29.639c0.581,0.581,1.532,0.588,2.127,0.01l1.41-1.41
			c0.587-0.586,0.587-1.54,0.002-2.125L33.837,4.231z M55.01,27.532l-1.405,1.405c-0.196,0.191-0.525,0.187-0.718-0.005
			l-20.46-20.45c-0.195-0.195-0.512-0.195-0.707,0L11.255,28.936c-0.195,0.194-0.512,0.194-0.707,0.001l-1.413-1.408
			c-0.196-0.196-0.196-0.513-0.001-0.708L31.017,4.938c0.583-0.582,1.53-0.582,2.113,0l21.882,21.882
			C55.207,27.016,55.206,27.335,55.01,27.532z"/>
		<path d="M30,19.5c-2.481,0-4.5,2.019-4.5,4.5c0,3.584,2.916,6.5,6.5,6.5c1.379,0,2.5-1.122,2.5-2.5v-4
			C34.5,21.519,32.481,19.5,30,19.5z M33.5,28c0,0.827-0.673,1.5-1.5,1.5c-3.033,0-5.5-2.467-5.5-5.5c0-1.93,1.57-3.5,3.5-3.5
			s3.5,1.57,3.5,3.5V28z"/>
		<path d="M18.111,28.583C12.534,36.526,13.5,42.282,13.5,59c0,0.827,0.673,1.5,1.5,1.5c11.766,0-1.566,0,10,0
			c0.827,0,1.5-0.673,1.5-1.5s-0.673-1.5-1.5-1.5h-0.5c0-21.593,0-12.109,0-15.5h-1v1.5c-10.558,0,3.146,0-9,0
			c0-5.44,1.529-10.21,4.43-14.343c1.692-2.416,5.162-2.612,7.061-0.402c1.453,1.7,1.584,3.754,0.351,5.498
			c-0.36,0.513-0.677,1.021-0.941,1.51l0.88,0.476c0.246-0.455,0.542-0.93,0.878-1.409c1.492-2.108,1.335-4.684-0.409-6.724
			C24.419,25.39,20.172,25.639,18.111,28.583z M15,59.5c-0.276,0-0.5-0.224-0.5-0.5v-0.5c2.482,0,4.011,0,6.5,0
			c0.276,0,0.5,0.224,0.5,0.5s-0.224,0.5-0.5,0.5C17.487,59.5,18.507,59.5,15,59.5z M25.5,59c0,0.276-0.224,0.5-0.5,0.5h-2.592
			c0.123-0.345,0.123-0.655,0-1c3.472,0,0.247,0,2.592,0C25.276,58.5,25.5,58.724,25.5,59z M23.5,44.5v13c-1.753,0-1.243,0-3,0v-13
			H23.5z M19.5,44.5v13h-5v-13H19.5z"/>
		<path d="M27,42.5h0.5L27.502,59c0,0.827,0.673,1.5,1.5,1.5s1.5-0.673,1.5-1.5L30.5,41c0-0.386-0.15-0.734-0.39-1
			c0.24-0.266,0.39-0.614,0.39-1c0-0.827-0.673-1.5-1.5-1.5h-6.5V34c0-0.276-0.224-0.5-0.5-0.5h-2c-0.276,0-0.5,0.224-0.5,0.5v5
			c0,0.827,0.673,1.5,1.5,1.5h4.592C25.536,40.657,25.5,40.824,25.5,41C25.5,41.827,26.173,42.5,27,42.5z M29.002,59.5
			c-0.276,0-0.5-0.224-0.5-0.5L28.5,42c0-0.276-0.224-0.5-0.5-0.5h-1c-0.276,0-0.5-0.224-0.5-0.5s0.224-0.5,0.5-0.5h2
			c0.276,0,0.5,0.224,0.5,0.5l0.002,18C29.502,59.276,29.278,59.5,29.002,59.5z M20.5,39v-4.5h1V38c0,0.276,0.224,0.5,0.5,0.5h7
			c0.276,0,0.5,0.224,0.5,0.5s-0.224,0.5-0.5,0.5c-2.922,0-5.164,0-8,0C20.724,39.5,20.5,39.276,20.5,39z"/>
		<circle cx="42" cy="37.5" r="0.5"/>
		<circle cx="42" cy="46.5" r="0.5"/>
		<circle cx="46.5" cy="42" r="0.5"/>
		<circle cx="37.5" cy="42" r="0.5"/>
		<path d="M42,41.293l-1.646-1.646l-0.707,0.707l2,2c0.195,0.195,0.512,0.195,0.707,0l3-3l-0.707-0.707L42,41.293z"/>
	</g>
</g>
</svg>
