<?xml version="1.0" encoding="utf-8"?>
<!-- Generator: Adobe Illustrator 24.0.0, SVG Export Plug-In . SVG Version: 6.00 Build 0)  -->
<svg version="1.1" xmlns="http://www.w3.org/2000/svg" xmlns:xlink="http://www.w3.org/1999/xlink" x="0px" y="0px"
	 viewBox="0 0 64 64" enable-background="new 0 0 64 64" xml:space="preserve">
<g id="Grids" display="none">
	<g id="Grid_6_" display="inline">
		<g>
			<path fill="#FF0000" d="M51.9,4.1v55.8H12.1V4.1H51.9 M52,4H12v56h40V4L52,4z"/>
		</g>
		<g>
			<path fill="#4600F0" d="M59.9,12.1v39.8H4.1V12.1H59.9 M60,12H4v40h56V12L60,12z"/>
		</g>
		<g>
			<path fill="#F0C800" d="M55.9,8.1v47.8H8.1V8.1H55.9 M56,8H8v48h48V8L56,8z"/>
		</g>
		<g>
			<path fill="#00F096" d="M32,6.1c14.281,0,25.9,11.619,25.9,25.9S46.281,57.9,32,57.9S6.1,46.281,6.1,32S17.719,6.1,32,6.1 M32,6
				C17.641,6,6,17.641,6,32s11.641,26,26,26s26-11.641,26-26S46.359,6,32,6L32,6z"/>
		</g>
	</g>
</g>
<g id="Captions">
	<g>
	</g>
</g>
<g id="Icons">
	<g>
		<path d="M7.5,18v40v1c0,0.827,0.673,1.5,1.5,1.5c11.766,0-1.566,0,10,0c0.827,0,1.5-0.673,1.5-1.5s-0.673-1.5-1.5-1.5h-0.5
			c0-10.218,0-17.948,0-29.5h-1v7.5H15c-0.827,0-1.5,0.673-1.5,1.5v20.5h-5V18c0-1.93,1.57-3.5,3.5-3.5c3.04,0,5.5,2.459,5.5,5.5v2
			h1v-2c0-2.34-1.21-4.362-3.092-5.53C15.603,14.488,15.8,14.5,16,14.5c1.379,0,2.5-1.122,2.5-2.5V8c0-2.481-2.019-4.5-4.5-4.5
			S9.5,5.519,9.5,8c0,2.337,1.244,4.383,3.1,5.529C12.402,13.511,12.202,13.5,12,13.5C9.519,13.5,7.5,15.519,7.5,18z M19.5,59
			c0,0.276-0.225,0.5-0.5,0.5h-2.592c0.123-0.345,0.123-0.655,0-1c3.472,0,0.247,0,2.592,0C19.275,58.5,19.5,58.724,19.5,59z
			 M14.5,37c0-0.276,0.225-0.5,0.5-0.5h2.5v21c-1.753,0-1.243,0-3,0V37z M15,58.5c0.275,0,0.5,0.224,0.5,0.5s-0.225,0.5-0.5,0.5
			c-3.513,0-2.493,0-6,0c-0.275,0-0.5-0.224-0.5-0.5v-0.5C10.982,58.5,12.511,58.5,15,58.5z M10.5,8c0-1.93,1.57-3.5,3.5-3.5
			s3.5,1.57,3.5,3.5v4c0,0.827-0.673,1.5-1.5,1.5C12.968,13.5,10.5,11.033,10.5,8z"/>
		<path d="M55,51.5h-1.54v1H55c0.275,0,0.5,0.224,0.5,0.5s-0.225,0.5-0.5,0.5h-0.35v1H55c0.275,0,0.5,0.224,0.5,0.5
			s-0.225,0.5-0.5,0.5v1c0.827,0,1.5-0.673,1.5-1.5c0-0.386-0.15-0.734-0.39-1c0.24-0.266,0.39-0.614,0.39-1
			C56.5,52.173,55.827,51.5,55,51.5z"/>
		<rect x="51.5" y="40" width="1" height="10"/>
		<rect x="49.5" y="40" width="1" height="10"/>
		<rect x="39.58" y="47.5" width="6.42" height="1"/>
		<rect x="47.5" y="40" width="1" height="10"/>
		<path d="M49,53.5c-1.379,0-2.5,1.122-2.5,2.5s1.121,2.5,2.5,2.5s2.5-1.122,2.5-2.5S50.379,53.5,49,53.5z M49,57.5
			c-0.827,0-1.5-0.673-1.5-1.5s0.673-1.5,1.5-1.5s1.5,0.673,1.5,1.5S49.827,57.5,49,57.5z"/>
		<path d="M49,51.5c-2.481,0-4.5,2.019-4.5,4.5s2.019,4.5,4.5,4.5s4.5-2.019,4.5-4.5S51.481,51.5,49,51.5z M49,59.5
			c-1.93,0-3.5-1.57-3.5-3.5s1.57-3.5,3.5-3.5s3.5,1.57,3.5,3.5S50.93,59.5,49,59.5z"/>
		<path d="M19.5,51c0,5.238,4.262,9.5,9.5,9.5s9.5-4.262,9.5-9.5s-4.262-9.5-9.5-9.5S19.5,45.762,19.5,51z M29,42.5
			c4.687,0,8.5,3.813,8.5,8.5s-3.813,8.5-8.5,8.5s-8.5-3.813-8.5-8.5S24.313,42.5,29,42.5z"/>
		<path d="M30.5,40V25c0-0.827-0.673-1.5-1.5-1.5h-4c-0.827,0-1.5,0.673-1.5,1.5s0.673,1.5,1.5,1.5h2.5V40h1V26
			c0-0.276-0.224-0.5-0.5-0.5h-3c-0.275,0-0.5-0.224-0.5-0.5s0.225-0.5,0.5-0.5h4c0.275,0,0.5,0.224,0.5,0.5v15H30.5z"/>
		<path d="M29,58.5c4.136,0,7.5-3.364,7.5-7.5s-3.364-7.5-7.5-7.5s-7.5,3.364-7.5,7.5S24.864,58.5,29,58.5z M29,44.5
			c3.584,0,6.5,2.916,6.5,6.5s-2.916,6.5-6.5,6.5s-6.5-2.916-6.5-6.5S25.416,44.5,29,44.5z"/>
		<path d="M30.249,49.703c0.854-0.492,1.512-0.875,2.024-1.173l0.717-0.417l-0.5-0.866l-0.721,0.419
			c-0.35,0.204-0.768,0.447-1.27,0.738V46.1h-1v3.17C29.5,49.658,29.919,49.893,30.249,49.703z"/>
		<path d="M30.5,53.598l1.989,1.154l0.502-0.865l-2.74-1.59c-0.33-0.19-0.751,0.045-0.751,0.433v3.17h1V53.598z"/>
		<path d="M26.003,51l-1.994,1.157l0.502,0.865l2.74-1.59c0.329-0.192,0.333-0.67,0.003-0.863c-0.341-0.201-1.634-0.942-2.756-1.583
			l-0.496,0.868C24.691,50.249,25.446,50.681,26.003,51z"/>
		<path d="M27.749,49.703c0.33,0.192,0.751-0.046,0.751-0.433V46.1h-1v2.303c-0.42-0.243-1.596-0.921-1.984-1.153l-0.512,0.859
			C25.426,48.361,27.324,49.457,27.749,49.703z"/>
		<path d="M27.749,52.297l-2.74,1.59l0.502,0.865l1.989-1.154V55.9h1v-3.17C28.5,52.34,28.076,52.107,27.749,52.297z"/>
		<path d="M30.749,51.433l2.74,1.59l0.502-0.865l-1.993-1.156c0.882-0.509,1.524-0.877,1.998-1.146l-0.492-0.87
			c-0.601,0.34-1.472,0.841-2.754,1.583C30.418,50.759,30.417,51.239,30.749,51.433z"/>
		<path d="M51,35.5h-4.592c0.056-0.157,0.092-0.324,0.092-0.5c0-0.827-0.673-1.5-1.5-1.5h-8.5V30c0-0.276-0.224-0.5-0.5-0.5h-2
			c-0.276,0-0.5,0.224-0.5,0.5v5c0,0.176,0.036,0.343,0.092,0.5H32v1c2.17,0,16.924,0,19,0c0.275,0,0.5,0.224,0.5,0.5
			s-0.225,0.5-0.5,0.5H32v1h19c0.827,0,1.5-0.673,1.5-1.5S51.827,35.5,51,35.5z M35,35.5c-0.275,0-0.5-0.224-0.5-0.5v-4.5h1V34
			c0,0.276,0.224,0.5,0.5,0.5h9c0.275,0,0.5,0.224,0.5,0.5s-0.225,0.5-0.5,0.5H35z"/>
		<path d="M42,13.5c-2.481,0-4.5,2.019-4.5,4.5c0,1.32,0.398,2.547,1.076,3.573c-0.532-0.125-1.246-0.061-1.787,0.012
			c-2.009,0.291-3.843,1.288-5.166,2.806l0.754,0.657c1.166-1.339,2.783-2.217,4.551-2.473c0.807-0.11,1.602-0.173,2.134,0.373
			C39.344,23.224,39.5,23.597,39.5,24v8h1v-8c0-0.198-0.029-0.389-0.073-0.576C41.453,24.102,42.681,24.5,44,24.5
			c1.379,0,2.5-1.122,2.5-2.5v-4C46.5,15.519,44.481,13.5,42,13.5z M45.5,22c0,0.827-0.673,1.5-1.5,1.5c-3.032,0-5.5-2.467-5.5-5.5
			c0-1.93,1.57-3.5,3.5-3.5s3.5,1.57,3.5,3.5V22z"/>
		<path d="M21,23.5h-8.5V20c0-0.276-0.224-0.5-0.5-0.5h-2c-0.276,0-0.5,0.224-0.5,0.5v5c0,0.827,0.673,1.5,1.5,1.5h10
			c0.827,0,1.5-0.673,1.5-1.5S21.827,23.5,21,23.5z M21,25.5H11c-0.275,0-0.5-0.224-0.5-0.5v-4.5h1V24c0,0.276,0.224,0.5,0.5,0.5h9
			c0.275,0,0.5,0.224,0.5,0.5S21.275,25.5,21,25.5z"/>
	</g>
</g>
</svg>
