<?xml version="1.0" encoding="utf-8"?>
<!-- Generator: Adobe Illustrator 24.0.0, SVG Export Plug-In . SVG Version: 6.00 Build 0)  -->
<svg version="1.1" xmlns="http://www.w3.org/2000/svg" xmlns:xlink="http://www.w3.org/1999/xlink" x="0px" y="0px"
	 viewBox="0 0 64 64" enable-background="new 0 0 64 64" xml:space="preserve">
<g id="Grids" display="none">
	<g id="Grid_30_" display="inline">
		<g>
			<path fill="#FF0000" d="M51.9,4.1v55.8H12.1V4.1H51.9 M52,4H12v56h40V4L52,4z"/>
		</g>
		<g>
			<path fill="#4600F0" d="M59.9,12.1v39.8H4.1V12.1H59.9 M60,12H4v40h56V12L60,12z"/>
		</g>
		<g>
			<path fill="#F0C800" d="M55.9,8.1v47.8H8.1V8.1H55.9 M56,8H8v48h48V8L56,8z"/>
		</g>
		<g>
			<path fill="#00F096" d="M32,6.1c14.281,0,25.9,11.619,25.9,25.9S46.281,57.9,32,57.9S6.1,46.281,6.1,32S17.719,6.1,32,6.1 M32,6
				C17.641,6,6,17.641,6,32s11.641,26,26,26s26-11.641,26-26S46.359,6,32,6L32,6z"/>
		</g>
	</g>
</g>
<g id="Captions">
	<g>
	</g>
</g>
<g id="Icons">
	<g>
		<rect x="43.5" y="43.24" width="1" height="2.76"/>
		<path d="M28.354,41.646l-0.707,0.707l2,2c0.195,0.195,0.512,0.195,0.707,0l4-4l-0.707-0.707L30,43.293L28.354,41.646z"/>
		<path d="M35.5,20v8.425c0,3.765,1.672,7.291,4.586,9.675l4.965,4.061c0.544,0.448,1.346,0.452,1.898,0l4.965-4.061
			c2.914-2.384,4.586-5.911,4.586-9.675V20c0-1.378-1.121-2.5-2.5-2.5H38C36.621,17.5,35.5,18.622,35.5,20z M55.5,20v8.425
			c0,3.463-1.538,6.708-4.219,8.901l-4.965,4.062c-0.184,0.149-0.449,0.15-0.633,0l-4.965-4.061
			c-2.681-2.193-4.219-5.438-4.219-8.901V20c0-0.827,0.673-1.5,1.5-1.5h16C54.827,18.5,55.5,19.173,55.5,20z"/>
		<path d="M41,30.5h2.5V33c0,0.827,0.673,1.5,1.5,1.5h2c0.827,0,1.5-0.673,1.5-1.5v-2.5H51c0.827,0,1.5-0.673,1.5-1.5v-2
			c0-0.827-0.673-1.5-1.5-1.5h-2.5V23c0-0.827-0.673-1.5-1.5-1.5h-2c-0.827,0-1.5,0.673-1.5,1.5v2.5H41c-0.827,0-1.5,0.673-1.5,1.5
			v2C39.5,29.827,40.173,30.5,41,30.5z M40.5,27c0-0.276,0.225-0.5,0.5-0.5h3c0.276,0,0.5-0.224,0.5-0.5v-3
			c0-0.276,0.225-0.5,0.5-0.5h2c0.275,0,0.5,0.224,0.5,0.5v3c0,0.276,0.224,0.5,0.5,0.5h3c0.275,0,0.5,0.224,0.5,0.5v2
			c0,0.276-0.225,0.5-0.5,0.5h-3c-0.276,0-0.5,0.224-0.5,0.5v3c0,0.276-0.225,0.5-0.5,0.5h-2c-0.275,0-0.5-0.224-0.5-0.5v-3
			c0-0.276-0.224-0.5-0.5-0.5h-3c-0.275,0-0.5-0.224-0.5-0.5V27z"/>
		<path d="M7.5,10v7c0,0.827,0.673,1.5,1.5,1.5h1v-1H9c-0.275,0-0.5-0.224-0.5-0.5v-7c0-0.827,0.673-1.5,1.5-1.5s1.5,0.673,1.5,1.5
			v44c0,1.378,1.121,2.5,2.5,2.5h32c1.379,0,2.5-1.122,2.5-2.5v-5c0-0.827-0.673-1.5-1.5-1.5H17c-0.827,0-1.5,0.673-1.5,1.5v5
			c0,0.827-0.673,1.5-1.5,1.5s-1.5-0.673-1.5-1.5V10c0-0.565-0.195-1.081-0.513-1.5H42c0.827,0,1.5,0.673,1.5,1.5v6h1v-6
			c0-1.378-1.121-2.5-2.5-2.5H10C8.621,7.5,7.5,8.622,7.5,10z M16.5,54v-5c0-0.276,0.225-0.5,0.5-0.5h30c0.275,0,0.5,0.224,0.5,0.5
			v5c0,0.827-0.673,1.5-1.5,1.5H15.999C16.313,55.082,16.5,54.563,16.5,54z"/>
		<path d="M33.646,15.646L30,19.293l-1.646-1.646l-0.707,0.707l2,2c0.195,0.195,0.512,0.195,0.707,0l4-4L33.646,15.646z"/>
		<path d="M33.646,27.646L30,31.293l-1.646-1.646l-0.707,0.707l2,2c0.195,0.195,0.512,0.195,0.707,0l4-4L33.646,27.646z"/>
		<rect x="16" y="15.5" width="10" height="1"/>
		<rect x="16" y="17.5" width="8" height="1"/>
		<rect x="16" y="27.5" width="10" height="1"/>
		<rect x="16" y="29.5" width="8" height="1"/>
		<rect x="16" y="39.5" width="10" height="1"/>
		<rect x="16" y="41.5" width="8" height="1"/>
	</g>
</g>
</svg>
