<?xml version="1.0" encoding="utf-8"?>
<!-- Generator: Adobe Illustrator 24.0.0, SVG Export Plug-In . SVG Version: 6.00 Build 0)  -->
<svg version="1.1" xmlns="http://www.w3.org/2000/svg" xmlns:xlink="http://www.w3.org/1999/xlink" x="0px" y="0px"
	 viewBox="0 0 64 64" enable-background="new 0 0 64 64" xml:space="preserve">
<g id="Grids" display="none">
	<g id="Grid_54_" display="inline">
		<g>
			<path fill="#FF0000" d="M51.9,4.1v55.8H12.1V4.1H51.9 M52,4H12v56h40V4L52,4z"/>
		</g>
		<g>
			<path fill="#4600F0" d="M59.9,12.1v39.8H4.1V12.1H59.9 M60,12H4v40h56V12L60,12z"/>
		</g>
		<g>
			<path fill="#F0C800" d="M55.9,8.1v47.8H8.1V8.1H55.9 M56,8H8v48h48V8L56,8z"/>
		</g>
		<g>
			<path fill="#00F096" d="M32,6.1c14.281,0,25.9,11.619,25.9,25.9S46.281,57.9,32,57.9S6.1,46.281,6.1,32S17.719,6.1,32,6.1 M32,6
				C17.641,6,6,17.641,6,32s11.641,26,26,26s26-11.641,26-26S46.359,6,32,6L32,6z"/>
		</g>
	</g>
</g>
<g id="Captions">
	<g>
	</g>
</g>
<g id="Icons">
	<g>
		<path d="M7.5,18v26h1V18c0-0.827,0.673-1.5,1.5-1.5h8.82v-1H10C8.622,15.5,7.5,16.621,7.5,18z"/>
		<path d="M56.5,44V18c0-1.379-1.122-2.5-2.5-2.5h-8.82v1H54c0.827,0,1.5,0.673,1.5,1.5v26H56.5z"/>
		<path d="M11,44.5h42c0.827,0,1.5-0.673,1.5-1.5V19c0-0.827-0.673-1.5-1.5-1.5h-7.65v1H53c0.276,0,0.5,0.225,0.5,0.5v24
			c0,0.275-0.224,0.5-0.5,0.5H11c-0.276,0-0.5-0.225-0.5-0.5V19c0-0.275,0.224-0.5,0.5-0.5h7.65v-1H11c-0.827,0-1.5,0.673-1.5,1.5
			v24C9.5,43.827,10.173,44.5,11,44.5z"/>
		<path d="M16.5,26.136c0-1.323-0.969-2.52-2.288-2.627C12.713,23.386,11.5,24.573,11.5,26v8c0,0.776,0.373,1.523,1,2l6.398,4.799
			C19.275,41.085,19.5,41.534,19.5,42h1c0-0.776-0.373-1.523-1-2l-6.398-4.799C12.725,34.915,12.5,34.466,12.5,34v-8
			c0-0.813,0.663-1.5,1.5-1.5c0.827,0,1.5,0.673,1.5,1.5v6.75c0,0.315,0.148,0.611,0.4,0.8l3.852,2.891
			c1.357,1.008,3.302,0.741,4.32-0.698c0.872-1.264,0.614-2.952-0.436-3.983l-0.692-0.703c-0.631-0.632-0.6-1.715,0.187-2.28
			c0.584-0.416,1.447-0.314,2.006,0.237l3.336,3.336C29.13,33.007,29.5,33.9,29.5,34.83V42h1v-7.175
			c0-1.192-0.474-2.335-1.316-3.178l-3.342-3.343c-0.904-0.89-2.319-1.035-3.293-0.34c-1.315,0.945-1.356,2.754-0.314,3.797
			l0.695,0.706c0.747,0.734,0.884,1.887,0.323,2.704c-0.681,0.964-1.989,1.146-2.902,0.47L16.5,32.75L16.5,26.136z"/>
		<path d="M50.9,35.199l-6.403,4.803C43.873,40.477,43.5,41.224,43.5,42h1c0-0.466,0.225-0.915,0.6-1.199l6.403-4.803
			C52.127,35.523,52.5,34.776,52.5,34v-8c0-1.448-1.249-2.652-2.788-2.484c-1.284,0.14-2.212,1.313-2.212,2.605l0,6.629
			l-3.848,2.889c-0.923,0.684-2.228,0.487-2.9-0.462c-0.578-0.844-0.417-1.986,0.325-2.716l0.688-0.697
			c1.051-1.056,0.993-2.862-0.313-3.8c-0.973-0.696-2.389-0.552-3.295,0.343l-3.34,3.34c-0.843,0.843-1.316,1.986-1.316,3.178V42h1
			v-7.176c0-0.927,0.368-1.815,1.023-2.471l3.337-3.337c0.562-0.556,1.425-0.657,2.008-0.24c0.784,0.563,0.818,1.646,0.186,2.283
			l-0.685,0.694c-1.068,1.05-1.308,2.731-0.438,3.995c0.999,1.409,2.936,1.718,4.319,0.69l3.85-2.889c0.252-0.189,0.4-0.485,0.4-0.8
			l0-6.632c0-0.818,0.664-1.609,1.482-1.618c0.824-0.009,1.518,0.661,1.518,1.5v8C51.5,34.466,51.275,34.915,50.9,35.199z"/>
		<path d="M59,45.5c-29.4,0-12.201,0-54,0c-0.827,0-1.5,0.673-1.5,1.5c0,3.032,2.467,5.5,5.5,5.5h46c3.033,0,5.5-2.468,5.5-5.5
			C60.5,46.173,59.827,45.5,59,45.5z M37.5,46.5V47c0,0.275-0.224,0.5-0.5,0.5H27c-0.276,0-0.5-0.225-0.5-0.5v-0.5H37.5z M55,51.5H9
			c-2.481,0-4.5-2.019-4.5-4.5c0-0.275,0.224-0.5,0.5-0.5h20.5V47c0,0.827,0.673,1.5,1.5,1.5h10c0.827,0,1.5-0.673,1.5-1.5v-0.5H59
			c0.276,0,0.5,0.225,0.5,0.5C59.5,49.481,57.481,51.5,55,51.5z"/>
		<path d="M33.367,13.304L32,14.67l-1.367-1.366c-2.406-2.407-6.3-2.407-8.707,0c-2.4,2.4-2.4,6.306,0,8.707l9.013,9.013
			c0.586,0.585,1.535,0.585,2.121,0l9.013-9.013c2.4-2.401,2.4-6.308,0-8.707C39.668,10.897,35.773,10.897,33.367,13.304z
			 M41.367,21.304l-9.013,9.013c-0.195,0.195-0.512,0.195-0.707,0l-9.013-9.013c-2.01-2.011-2.01-5.283,0-7.293
			c2.014-2.015,5.277-2.017,7.292,0L32,16.084l2.074-2.073c2.014-2.015,5.277-2.017,7.293,0
			C43.377,16.021,43.377,19.293,41.367,21.304z"/>
	</g>
</g>
</svg>
