<?xml version="1.0" encoding="utf-8"?>
<!-- Generator: Adobe Illustrator 24.0.0, SVG Export Plug-In . SVG Version: 6.00 Build 0)  -->
<svg version="1.1" xmlns="http://www.w3.org/2000/svg" xmlns:xlink="http://www.w3.org/1999/xlink" x="0px" y="0px"
	 viewBox="0 0 64 64" enable-background="new 0 0 64 64" xml:space="preserve">
<g id="Grids" display="none">
	<g id="Grid_34_" display="inline">
		<g>
			<path fill="#FF0000" d="M51.9,4.1v55.8H12.1V4.1H51.9 M52,4H12v56h40V4L52,4z"/>
		</g>
		<g>
			<path fill="#4600F0" d="M59.9,12.1v39.8H4.1V12.1H59.9 M60,12H4v40h56V12L60,12z"/>
		</g>
		<g>
			<path fill="#F0C800" d="M55.9,8.1v47.8H8.1V8.1H55.9 M56,8H8v48h48V8L56,8z"/>
		</g>
		<g>
			<path fill="#00F096" d="M32,6.1c14.281,0,25.9,11.619,25.9,25.9S46.281,57.9,32,57.9S6.1,46.281,6.1,32S17.719,6.1,32,6.1 M32,6
				C17.641,6,6,17.641,6,32s11.641,26,26,26s26-11.641,26-26S46.359,6,32,6L32,6z"/>
		</g>
	</g>
</g>
<g id="Captions">
	<g>
	</g>
</g>
<g id="Icons">
	<g>
		<path d="M41.5,11v2c0,0.827,0.673,1.5,1.5,1.5h0.5v1.78h1V14.5h5v7.78h1V14.5H51c0.827,0,1.5-0.673,1.5-1.5v-2
			c0-0.827-0.673-1.5-1.5-1.5h-8C42.173,9.5,41.5,10.173,41.5,11z M51.5,11v2c0,0.276-0.224,0.5-0.5,0.5h-8
			c-0.276,0-0.5-0.224-0.5-0.5v-2c0-0.276,0.224-0.5,0.5-0.5h8C51.276,10.5,51.5,10.724,51.5,11z"/>
		<path d="M11.5,35.37V55c0,0.827,0.673,1.5,1.5,1.5h4.08v-1H13c-0.276,0-0.5-0.224-0.5-0.5V35.37H11.5z"/>
		<path d="M52.5,55V35.31h-1V55c0,0.276-0.224,0.5-0.5,0.5h-4.08v1H51C51.827,56.5,52.5,55.827,52.5,55z"/>
		<path d="M28,60.5h8c0.827,0,1.5-0.673,1.5-1.5v-1.487c1.877-0.688,3.588-1.71,5.094-3.046l1.378,0.796
			c0.734,0.422,1.644,0.154,2.049-0.549l4-6.928c0.414-0.718,0.17-1.635-0.549-2.049l-1.652-0.954
			c0.279-1.9,0.232-3.618-0.152-5.478l1.805-1.042c0.716-0.414,0.962-1.333,0.548-2.049l-4-6.927
			c-0.41-0.712-1.326-0.968-2.049-0.55l-2.072,1.196c-1.316-1.037-2.793-1.858-4.401-2.446V25c0-0.827-0.673-1.5-1.5-1.5h-8
			c-0.827,0-1.5,0.673-1.5,1.5v2.487c-1.607,0.587-3.085,1.409-4.401,2.446l-2.071-1.196c-0.729-0.42-1.641-0.159-2.049,0.549
			l-4,6.928c-0.414,0.716-0.167,1.635,0.549,2.049l1.805,1.042c-0.384,1.86-0.432,3.578-0.152,5.479l-1.652,0.954
			c-0.718,0.415-0.963,1.331-0.549,2.049l4,6.927c0.415,0.721,1.335,0.963,2.049,0.55l1.379-0.796
			c1.505,1.334,3.216,2.357,5.094,3.045V59C26.5,59.827,27.173,60.5,28,60.5z M21.812,53.485c-0.16-0.149-0.399-0.176-0.59-0.066
			l-1.695,0.978c-0.233,0.136-0.541,0.062-0.682-0.183l-4-6.928c-0.14-0.242-0.055-0.547,0.183-0.683l1.949-1.125
			c0.18-0.104,0.277-0.309,0.243-0.515c-0.336-2.029-0.285-3.817,0.166-5.798c0.048-0.214-0.048-0.434-0.238-0.544l-2.12-1.224
			c-0.239-0.138-0.321-0.444-0.183-0.683l4-6.928c0.141-0.243,0.448-0.319,0.683-0.183l2.369,1.367
			c0.18,0.104,0.407,0.085,0.568-0.047c1.38-1.138,2.96-2.016,4.697-2.609c0.202-0.069,0.338-0.259,0.338-0.473V25
			c0-0.276,0.224-0.5,0.5-0.5h8c0.276,0,0.5,0.224,0.5,0.5v2.84c0,0.214,0.136,0.404,0.338,0.473
			c1.737,0.593,3.317,1.471,4.697,2.609c0.161,0.133,0.389,0.152,0.568,0.047l2.369-1.367c0.233-0.136,0.541-0.061,0.682,0.183
			l4,6.928c0.138,0.239,0.056,0.545-0.183,0.683l-2.121,1.224c-0.19,0.11-0.286,0.33-0.238,0.544
			c0.451,1.981,0.502,3.769,0.166,5.798c-0.034,0.206,0.063,0.41,0.243,0.515l1.949,1.125c0.238,0.136,0.322,0.442,0.183,0.683
			l-4,6.928c-0.14,0.241-0.445,0.321-0.683,0.183l-1.694-0.978c-0.19-0.109-0.428-0.083-0.59,0.066
			c-1.557,1.444-3.357,2.521-5.35,3.201c-0.202,0.069-0.338,0.259-0.338,0.473V59c0,0.276-0.224,0.5-0.5,0.5h-8
			c-0.276,0-0.5-0.224-0.5-0.5v-1.841c0-0.214-0.136-0.404-0.338-0.473C25.168,56.005,23.368,54.928,21.812,53.485z"/>
		<path d="M54.304,33.653l1.414-1.414c0.58-0.594,0.582-1.546,0.006-2.123c-1-1-12.155-12.138-15.369-15.369l-0.709,0.705
			c3.297,3.315,14.371,14.371,15.371,15.371c0.194,0.194,0.188,0.51-0.01,0.713l-1.405,1.405c-0.196,0.19-0.525,0.188-0.714-0.001
			c-0.52-0.532-8.56-8.561-15.124-15.124l-0.707,0.707c6.497,6.497,14.6,14.589,15.12,15.12
			C52.762,34.229,53.716,34.227,54.304,33.653z"/>
		<path d="M8.428,32.235l1.418,1.409c0.581,0.581,1.526,0.593,2.121-0.004l15.046-15.056l-0.707-0.707
			c-15.953,15.952-14.341,14.335-15.051,15.06c-0.188,0.189-0.512,0.189-0.704-0.001l-1.419-1.409c-0.194-0.194-0.194-0.509,0-0.703
			c12.54-12.544,13.672-13.679,15.269-15.269l-0.705-0.709c-1.519,1.512-2.366,2.362-15.271,15.271
			C7.843,30.7,7.843,31.65,8.428,32.235z"/>
		<path d="M44.5,42c0-6.893-5.607-12.5-12.5-12.5S19.5,35.107,19.5,42S25.107,54.5,32,54.5S44.5,48.893,44.5,42z M20.5,42
			c0-6.341,5.159-11.5,11.5-11.5S43.5,35.659,43.5,42S38.341,53.5,32,53.5S20.5,48.341,20.5,42z"/>
		<path d="M38.484,44.453C39.632,44.227,40.5,43.213,40.5,42c0-1.208-0.86-2.217-2-2.45c0-1.342,0-2.204,0-3.55
			c0-1.529-1.378-2.724-2.925-2.464c-0.633,0.107-1.183,0.475-1.558,0.99C33.562,33.904,32.828,33.5,32,33.5h-4
			c-1.378,0-2.5,1.122-2.5,2.5c0,1.347,0,2.208,0,3.55c-1.14,0.232-2,1.242-2,2.45c0,1.213,0.868,2.227,2.016,2.453
			C25.749,47.827,28.568,50.5,32,50.5S38.251,47.827,38.484,44.453z M39.5,42c0,0.651-0.419,1.201-1,1.408v-2.816
			C39.081,40.799,39.5,41.349,39.5,42z M35.741,34.522C36.71,34.364,37.5,35.114,37.5,36c0,2.986,0,0.158,0,7.415
			c-0.582-0.207-1-0.763-1-1.415v-2c0-0.827-0.673-1.5-1.5-1.5h-0.5v-2.378C34.5,35.329,35.034,34.641,35.741,34.522z M26.5,36
			c0-0.827,0.673-1.5,1.5-1.5h4c0.827,0,1.5,0.673,1.5,1.5c0,0.428,0-0.932,0,2.5H29c-0.827,0-1.5,0.673-1.5,1.5v2
			c0,0.652-0.418,1.208-1,1.415C26.5,36.73,26.5,38.717,26.5,36z M24.5,42c0-0.651,0.419-1.201,1-1.408v2.816
			C24.919,43.201,24.5,42.651,24.5,42z M26.522,44.443C27.651,44.202,28.5,43.199,28.5,42v-2c0-0.276,0.224-0.5,0.5-0.5h6
			c0.276,0,0.5,0.224,0.5,0.5v2c0,1.199,0.849,2.202,1.978,2.443C37.251,47.269,34.883,49.5,32,49.5S26.749,47.269,26.522,44.443z"
			/>
		<circle cx="29.5" cy="41.5" r="0.5"/>
		<circle cx="34.5" cy="41.5" r="0.5"/>
		<path d="M32,20.5c0.827,0,1.5-0.673,1.5-1.5v-0.659c3.45-0.703,6-3.785,6-7.341c0-4.136-3.364-7.5-7.5-7.5s-7.5,3.364-7.5,7.5
			c0,3.556,2.55,6.638,6,7.341V19C30.5,19.827,31.173,20.5,32,20.5z M25.5,11c0-3.584,2.916-6.5,6.5-6.5s6.5,2.916,6.5,6.5
			c0,3.208-2.395,5.97-5.571,6.425c-0.247,0.036-0.429,0.247-0.429,0.495V19c0,0.276-0.224,0.5-0.5,0.5s-0.5-0.224-0.5-0.5v-1.08
			c0-0.249-0.183-0.459-0.429-0.495C27.895,16.97,25.5,14.208,25.5,11z"/>
		<path d="M32.346,13.913c0.208-0.205,2.625-2.616,2.832-2.822c0.586-0.586,0.586-1.541,0-2.127c-0.578-0.578-1.504-0.582-2.118,0
			l-1.769,1.773l-0.354-0.354c-0.566-0.566-1.56-0.558-2.108-0.009c-0.567,0.538-0.622,1.514-0.009,2.126l1.405,1.406
			C30.821,14.515,31.774,14.499,32.346,13.913z M29.528,11.793c-0.204-0.204-0.182-0.53,0-0.703c0.191-0.191,0.505-0.198,0.703,0
			l0.708,0.708c0.195,0.195,0.512,0.196,0.708,0l2.112-2.119c0.241-0.229,0.547-0.174,0.712-0.009c0.196,0.197,0.196,0.516,0,0.712
			c-0.207,0.206-2.621,2.614-2.835,2.825c-0.188,0.192-0.502,0.197-0.699-0.004L29.528,11.793z"/>
		<rect x="31.5" y="42" width="1" height="2"/>
		<path d="M34.5,45h-1c0,0.827-0.673,1.5-1.5,1.5s-1.5-0.673-1.5-1.5h-1c0,1.378,1.122,2.5,2.5,2.5S34.5,46.378,34.5,45z"/>
	</g>
</g>
</svg>
