<?xml version="1.0" encoding="iso-8859-1"?>
<!-- Uploaded to: SVG Repo, www.svgrepo.com, Generator: SVG Repo Mixer Tools -->
<svg fill="#000000" height="800px" width="800px" version="1.1" id="Capa_1" xmlns="http://www.w3.org/2000/svg" xmlns:xlink="http://www.w3.org/1999/xlink" 
	 viewBox="0 0 489.223 489.223" xml:space="preserve">
<g>
	<path d="M235.1,348.193c0.3-1.8,0.8-3.5,1.2-5.1h-31.1h-17.5h-25c-2.3,0-4.1,1.8-4.1,4.1v13.1c0,2.3,1.8,4.1,4.1,4.1h25h17.5h29.2
		c-0.9-4.5-0.8-9.5,0.4-15.1L235.1,348.193z"/>
	<path d="M396.1,253.593c-4.9,6.2-9.9,12.5-15.1,18.9v119.5c0,1.1-0.9,2-2,2H33.2c-1.1,0-2-0.9-2-2v-188.4l280.8-0.1l13.3-18.9
		l15.7-21.8c1-1.4,1.8-2.5,2.5-3.4l11.4-15.7H33.2c-18.3,0-33.2,14.9-33.2,33.2v215.1c0,18.3,14.9,33.2,33.2,33.2H379
		c18.3,0,33.2-14.9,33.2-33.2v-130.5c-4.6-0.7-9-2.5-12.9-5.3C398.1,255.393,397.1,254.493,396.1,253.593z"/>
	<path d="M251,307.693h-88.2c-2.3,0-4.1,1.8-4.1,4.1v13.1c0,2.3,1.8,4.1,4.1,4.1h78.5C244.3,321.893,247.5,314.793,251,307.693z"/>
	<path d="M485.5,138.293l-20.1-14.7l5.5-8.9c2.5-4.6,4.7-9.3,6.6-14.2c0.5-1.6,1.2-3.1,1.6-4.7c3.2-11.1-0.1-19.1-10.9-26.8
		c-9.2-6.6-16.9-6.6-26.4-0.1c-6.4,4.4-11.7,10-16.8,15.9c-18.4,21.2-34.4,44.2-51.2,66.7l-20.1,28l0,0c-21.9,31-42.8,62.7-62,95.5
		c-12.7,21.6-24.8,43.4-34,66.9c-1,3.3-2.2,6.6-2.9,10c-0.7,3.9-2.6,8.7,1.4,11.5c3.9,2.7,7.8-0.3,11.3-2.4
		c9.4-5.7,17.5-13,25.4-20.6c38.1-37,71.4-78,103.6-120.1l0,0l0.2-0.2c2.9-3.8,5.8-7.6,8.7-11.4c0.5-0.7,0.9-1.4,1.2-2l13.7-18.6
		c0.6-0.5,1.1-1.1,1.7-2c11-15.6,22.3-31,33.2-46.7c0.2-0.3,0.4-0.6,0.6-0.8l12.2,8.9l-58.6,80.3c-2.9,4-2,9.5,1.9,12.4
		c2,1.5,4.4,2,6.6,1.6c2.3-0.4,4.4-1.6,5.8-3.5l63.9-87.5C490.4,146.693,489.5,141.193,485.5,138.293z"/>
	<path d="M270.1,272.393H162.8c-2.3,0-4.1,1.8-4.1,4.1v13.1c0,2.3,1.8,4.1,4.1,4.1h95.4C261.9,286.693,265.9,279.693,270.1,272.393z
		"/>
	<path d="M291.4,236.993H162.8c-2.3,0-4.1,1.8-4.1,4.1v13.1c0,2.3,1.8,4.1,4.1,4.1h115.6C282.6,251.293,286.9,244.093,291.4,236.993
		z"/>
	<path d="M51.8,301.093c-1.9,0-3.5,1.6-3.5,3.5v7.8c0,1.9,1.6,3.5,3.5,3.5h11.5c0.9,2.8,1.6,5.7,2.7,8.5c5.8,14.1,15.6,24.2,30.4,29
		c12.2,4,24.5,3.8,36.7,0.4c3.2-0.9,6.4-2,9.4-3.4c2.9-1.3,3.7-3.6,2.5-6.4c-1.3-3.1-2.6-6.3-4-9.4c-1.3-2.8-2.9-3.6-5.9-2.9
		c-3.8,0.9-7.5,2-11.4,2.8c-7.4,1.5-14.7,1.7-22-0.6c-9.1-2.9-14-9.5-16.9-18h24.8c1.9,0,3.5-1.6,3.5-3.5v-7.8
		c0-1.9-1.6-3.5-3.5-3.5h-27c0-2.2,0-4.3,0-6.4h27c1.9,0,3.5-1.6,3.5-3.5v-7.7c0-1.9-1.6-3.5-3.5-3.5H86c0-0.1,0-0.2,0-0.2
		c2.8-6.5,7-11.7,13.8-14.4c7.9-3.1,16-3.1,24.1-1.4c3.9,0.8,7.6,2,11.5,2.9c2.8,0.6,4.5-0.2,5.7-2.8c1.4-3,2.7-6.1,4-9.2
		c1.2-2.9,0.5-5-2.2-6.6c-0.7-0.4-1.4-0.7-2.1-1c-11.4-4.5-23.2-6.1-35.3-4.2c-8.5,1.4-16.5,4.3-23.4,9.7
		c-8.7,6.7-14.3,15.7-17.6,26.1l-0.4,1.2H51.8c-1.9,0-3.5,1.6-3.5,3.5v7.8c0,1.9,1.6,3.5,3.5,3.5h9.6c0,2.1,0,4.2,0,6.4h-9.6
		V301.093z"/>
</g>
</svg>