<?xml version="1.0" encoding="utf-8"?>
<!-- Generator: Adobe Illustrator 24.0.0, SVG Export Plug-In . SVG Version: 6.00 Build 0)  -->
<svg version="1.1" xmlns="http://www.w3.org/2000/svg" xmlns:xlink="http://www.w3.org/1999/xlink" x="0px" y="0px"
	 viewBox="0 0 64 64" enable-background="new 0 0 64 64" xml:space="preserve">
<g id="Grids" display="none">
	<g id="Grid_17_" display="inline">
		<g>
			<path fill="#FF0000" d="M51.9,4.1v55.8H12.1V4.1H51.9 M52,4H12v56h40V4L52,4z"/>
		</g>
		<g>
			<path fill="#4600F0" d="M59.9,12.1v39.8H4.1V12.1H59.9 M60,12H4v40h56V12L60,12z"/>
		</g>
		<g>
			<path fill="#F0C800" d="M55.9,8.1v47.8H8.1V8.1H55.9 M56,8H8v48h48V8L56,8z"/>
		</g>
		<g>
			<path fill="#00F096" d="M32,6.1c14.281,0,25.9,11.619,25.9,25.9S46.281,57.9,32,57.9S6.1,46.281,6.1,32S17.719,6.1,32,6.1 M32,6
				C17.641,6,6,17.641,6,32s11.641,26,26,26s26-11.641,26-26S46.359,6,32,6L32,6z"/>
		</g>
	</g>
</g>
<g id="Captions">
	<g>
	</g>
</g>
<g id="Icons">
	<g>
		<path d="M50.5,22.27V14.5H51c0.827,0,1.5-0.673,1.5-1.5v-2c0-0.827-0.673-1.5-1.5-1.5h-8c-0.827,0-1.5,0.673-1.5,1.5v2
			c0,0.827,0.673,1.5,1.5,1.5h0.5v1.77h1V14.5h5v7.77H50.5z M42.5,13v-2c0-0.276,0.225-0.5,0.5-0.5h8c0.275,0,0.5,0.224,0.5,0.5v2
			c0,0.276-0.225,0.5-0.5,0.5h-8C42.725,13.5,42.5,13.276,42.5,13z"/>
		<path d="M52.5,35.31h-1V55c0,0.276-0.225,0.5-0.5,0.5H13c-0.276,0-0.5-0.224-0.5-0.5V35.37h-1V55c0,0.827,0.673,1.5,1.5,1.5h38
			c0.827,0,1.5-0.673,1.5-1.5V35.31z"/>
		<path d="M25.5,50c0,0.827-0.673,1.5-1.5,1.5c-0.276,0-0.5,0.224-0.5,0.5s0.224,0.5,0.5,0.5h12c1.379,0,2.5-1.122,2.5-2.5v-4h-1v4
			c0,0.827-0.673,1.5-1.5,1.5h-1.013c0.317-0.419,0.513-0.935,0.513-1.5v-4h-1v4c0,0.827-0.673,1.5-1.5,1.5h-3.013
			c0.317-0.419,0.513-0.935,0.513-1.5v-4h-1v4c0,0.827-0.673,1.5-1.5,1.5h-2.001c0.314-0.418,0.501-0.938,0.501-1.5v-4h-1V50z"/>
		<path d="M8.43,32.236l1.414,1.409c0.585,0.583,1.535,0.582,2.119-0.002l20.111-20.101L52.18,33.639
			c0.581,0.581,1.532,0.588,2.127,0.01l1.41-1.41c0.587-0.586,0.587-1.54,0.002-2.125L33.837,8.231
			c-0.973-0.972-2.555-0.972-3.527,0L8.427,30.113C7.841,30.701,7.842,31.65,8.43,32.236z M9.135,30.82L31.017,8.938
			c0.583-0.582,1.53-0.582,2.113,0l21.882,21.882c0.195,0.195,0.194,0.514-0.002,0.711l-1.405,1.405
			c-0.196,0.191-0.525,0.188-0.718-0.005l-20.46-20.45c-0.195-0.195-0.512-0.195-0.707,0L11.255,32.936
			c-0.195,0.194-0.512,0.194-0.707,0.001l-1.413-1.408C8.939,31.332,8.94,31.015,9.135,30.82z"/>
		<path d="M33.5,38V27c0-0.827-0.673-1.5-1.5-1.5s-1.5,0.673-1.5,1.5v11h1V27c0-0.276,0.224-0.5,0.5-0.5s0.5,0.224,0.5,0.5v11H33.5z
			"/>
		<path d="M25.5,41v3c0,0.276,0.224,0.5,0.5,0.5h12c0.276,0,0.5-0.224,0.5-0.5v-3c0-0.827-0.673-1.5-1.5-1.5H27
			C26.173,39.5,25.5,40.173,25.5,41z M37.5,41v2.5h-11V41c0-0.276,0.224-0.5,0.5-0.5h10C37.275,40.5,37.5,40.724,37.5,41z"/>
		<path d="M21,37.5c-0.827,0-1.5,0.673-1.5,1.5v0.5H19c-0.827,0-1.5,0.673-1.5,1.5s0.673,1.5,1.5,1.5h0.5V43
			c0,0.827,0.673,1.5,1.5,1.5s1.5-0.673,1.5-1.5v-0.5H23c0.827,0,1.5-0.673,1.5-1.5s-0.673-1.5-1.5-1.5h-0.5V39
			C22.5,38.173,21.827,37.5,21,37.5z M23,40.5c0.276,0,0.5,0.224,0.5,0.5s-0.224,0.5-0.5,0.5h-1c-0.276,0-0.5,0.224-0.5,0.5v1
			c0,0.276-0.224,0.5-0.5,0.5s-0.5-0.224-0.5-0.5v-1c0-0.276-0.224-0.5-0.5-0.5h-1c-0.276,0-0.5-0.224-0.5-0.5s0.224-0.5,0.5-0.5h1
			c0.276,0,0.5-0.224,0.5-0.5v-1c0-0.276,0.224-0.5,0.5-0.5s0.5,0.224,0.5,0.5v1c0,0.276,0.224,0.5,0.5,0.5H23z"/>
		<path d="M43,37.5c-0.827,0-1.5,0.673-1.5,1.5v0.5H41c-0.827,0-1.5,0.673-1.5,1.5s0.673,1.5,1.5,1.5h0.5V43
			c0,0.827,0.673,1.5,1.5,1.5s1.5-0.673,1.5-1.5v-0.5H45c0.827,0,1.5-0.673,1.5-1.5s-0.673-1.5-1.5-1.5h-0.5V39
			C44.5,38.173,43.827,37.5,43,37.5z M45,40.5c0.275,0,0.5,0.224,0.5,0.5s-0.225,0.5-0.5,0.5h-1c-0.276,0-0.5,0.224-0.5,0.5v1
			c0,0.276-0.225,0.5-0.5,0.5s-0.5-0.224-0.5-0.5v-1c0-0.276-0.224-0.5-0.5-0.5h-1c-0.275,0-0.5-0.224-0.5-0.5s0.225-0.5,0.5-0.5h1
			c0.276,0,0.5-0.224,0.5-0.5v-1c0-0.276,0.225-0.5,0.5-0.5s0.5,0.224,0.5,0.5v1c0,0.276,0.224,0.5,0.5,0.5H45z"/>
	</g>
</g>
</svg>
