<?xml version="1.0" encoding="utf-8"?>
<!-- Generator: Adobe Illustrator 24.0.0, SVG Export Plug-In . SVG Version: 6.00 Build 0)  -->
<svg version="1.1" xmlns="http://www.w3.org/2000/svg" xmlns:xlink="http://www.w3.org/1999/xlink" x="0px" y="0px"
	 viewBox="0 0 64 64" enable-background="new 0 0 64 64" xml:space="preserve">
<g id="Grids" display="none">
	<g id="Grid_3_" display="inline">
		<g>
			<path fill="#FF0000" d="M51.9,4.1v55.8H12.1V4.1H51.9 M52,4H12v56h40V4L52,4z"/>
		</g>
		<g>
			<path fill="#4600F0" d="M59.9,12.1v39.8H4.1V12.1H59.9 M60,12H4v40h56V12L60,12z"/>
		</g>
		<g>
			<path fill="#F0C800" d="M55.9,8.1v47.8H8.1V8.1H55.9 M56,8H8v48h48V8L56,8z"/>
		</g>
		<g>
			<path fill="#00F096" d="M32,6.1c14.281,0,25.9,11.619,25.9,25.9S46.281,57.9,32,57.9S6.1,46.281,6.1,32S17.719,6.1,32,6.1 M32,6
				C17.641,6,6,17.641,6,32s11.641,26,26,26s26-11.641,26-26S46.359,6,32,6L32,6z"/>
		</g>
	</g>
</g>
<g id="Captions">
</g>
<g id="Icons">
	<path d="M40.5,34v-4c0-0.827-0.673-1.5-1.5-1.5h-3.5V25c0-0.827-0.673-1.5-1.5-1.5h-4c-0.827,0-1.5,0.673-1.5,1.5v3.5H25
		c-0.827,0-1.5,0.673-1.5,1.5v4c0,0.827,0.673,1.5,1.5,1.5h3.5V39c0,0.827,0.673,1.5,1.5,1.5h4c0.827,0,1.5-0.673,1.5-1.5v-3.5H39
		C39.827,35.5,40.5,34.827,40.5,34z M39.5,34c0,0.276-0.225,0.5-0.5,0.5h-4c-0.276,0-0.5,0.224-0.5,0.5v4c0,0.276-0.225,0.5-0.5,0.5
		h-4c-0.275,0-0.5-0.224-0.5-0.5v-4c0-0.276-0.224-0.5-0.5-0.5h-4c-0.275,0-0.5-0.224-0.5-0.5v-4c0-0.276,0.225-0.5,0.5-0.5h4
		c0.276,0,0.5-0.224,0.5-0.5v-4c0-0.276,0.225-0.5,0.5-0.5h4c0.275,0,0.5,0.224,0.5,0.5v4c0,0.276,0.224,0.5,0.5,0.5h4
		c0.275,0,0.5,0.224,0.5,0.5V34z"/>
	<path d="M11.5,31.37V47c0,0.827,0.673,1.5,1.5,1.5h0.39v-1H13c-0.275,0-0.5-0.224-0.5-0.5V31.37H11.5z"/>
	<rect x="24.83" y="47.5" width="14.34" height="1"/>
	<path d="M51.5,47c0,0.276-0.225,0.5-0.5,0.5h-0.39v1H51c0.827,0,1.5-0.673,1.5-1.5V31.31h-1V47z"/>
	<path d="M43,10.5h0.57v1.84h1V10.5h5v7.84h1V10.5H51c0.827,0,1.5-0.673,1.5-1.5V7c0-0.827-0.673-1.5-1.5-1.5h-8
		c-0.827,0-1.5,0.673-1.5,1.5v2C41.5,9.827,42.173,10.5,43,10.5z M42.5,7c0-0.276,0.225-0.5,0.5-0.5h8c0.275,0,0.5,0.224,0.5,0.5v2
		c0,0.276-0.225,0.5-0.5,0.5h-8c-0.275,0-0.5-0.224-0.5-0.5V7z"/>
	<path d="M9.844,29.645c0.586,0.584,1.536,0.581,2.119-0.002l20.11-20.101L52.18,29.639c0.581,0.581,1.532,0.588,2.127,0.01
		l1.41-1.41c0.587-0.586,0.587-1.54,0.002-2.125L33.837,4.231c-0.973-0.972-2.555-0.972-3.527,0L8.428,26.113
		c-0.583,0.584-0.59,1.533,0.002,2.124L9.844,29.645z M9.135,26.82L31.017,4.938c0.582-0.582,1.531-0.582,2.113,0l21.882,21.882
		c0.195,0.195,0.194,0.514-0.002,0.711l-1.405,1.405c-0.196,0.191-0.525,0.187-0.718-0.005l-20.46-20.45
		c-0.195-0.195-0.512-0.195-0.707,0L11.256,28.935c-0.195,0.195-0.512,0.195-0.707,0.001l-1.413-1.408
		C8.939,27.333,8.939,27.016,9.135,26.82z"/>
	<path d="M57.584,39.534c-1.188,0.194-2.084,1.3-2.084,2.573v5.271c0,0.176-0.095,0.342-0.246,0.431l-7.157,4.216
		c-0.553,0.327-1.253,0.174-1.628-0.351c-0.34-0.479-0.245-1.191,0.221-1.656l2.184-2.185c1.089-1.087,1.016-2.894-0.199-3.887
		c-1.023-0.84-2.603-0.724-3.593,0.266l-5.677,5.677c-1.228,1.227-1.904,2.859-1.904,4.596V60h1v-5.515
		c0-1.47,0.572-2.851,1.611-3.889l5.677-5.677c0.631-0.63,1.62-0.717,2.253-0.199c0.771,0.631,0.785,1.745,0.125,2.406l-2.184,2.185
		c-0.807,0.806-0.947,2.071-0.328,2.943c0.678,0.951,1.944,1.226,2.95,0.633l7.157-4.216c0.455-0.269,0.738-0.764,0.738-1.292
		v-5.271c0-0.789,0.535-1.471,1.244-1.586C58.706,40.364,59.5,41.105,59.5,42v6.939c0,0.503-0.25,0.97-0.669,1.249l-9.771,6.506
		c-0.977,0.651-1.56,1.74-1.56,2.913V60h1v-0.394c0-0.838,0.417-1.616,1.114-2.081l9.771-6.506c0.697-0.464,1.114-1.242,1.114-2.081
		V42C60.5,40.462,59.125,39.284,57.584,39.534z"/>
	<path d="M4.614,51.02l9.771,6.506c0.697,0.465,1.114,1.243,1.114,2.081V60h1v-0.394c0-1.173-0.583-2.262-1.56-2.913l-9.771-6.506
		C4.75,49.909,4.5,49.442,4.5,48.939V42c0-0.895,0.794-1.636,1.756-1.479C6.965,40.636,7.5,41.318,7.5,42.107v5.271
		c0,0.529,0.283,1.024,0.738,1.292l7.157,4.217c1.007,0.591,2.273,0.318,2.95-0.634c0.619-0.872,0.479-2.137-0.328-2.942
		l-2.184-2.185c-0.661-0.662-0.646-1.775,0.125-2.407c0.634-0.52,1.624-0.43,2.253,0.199l5.677,5.677
		c1.039,1.038,1.611,2.419,1.611,3.889V60h1v-5.515c0-1.737-0.677-3.369-1.904-4.596l-5.677-5.677
		c-0.99-0.991-2.569-1.105-3.593-0.266c-1.217,0.995-1.287,2.802-0.199,3.888l2.184,2.185c0.466,0.465,0.561,1.177,0.221,1.656
		c-0.375,0.526-1.074,0.677-1.628,0.352L8.746,47.81C8.595,47.72,8.5,47.555,8.5,47.378v-5.271c0-1.273-0.896-2.379-2.084-2.573
		C4.866,39.284,3.5,40.47,3.5,42v6.939C3.5,49.777,3.917,50.555,4.614,51.02z"/>
</g>
</svg>
