<?xml version="1.0" encoding="utf-8"?>
<!-- Generator: Adobe Illustrator 24.0.0, SVG Export Plug-In . SVG Version: 6.00 Build 0)  -->
<svg version="1.1" xmlns="http://www.w3.org/2000/svg" xmlns:xlink="http://www.w3.org/1999/xlink" x="0px" y="0px"
	 viewBox="0 0 64 64" enable-background="new 0 0 64 64" xml:space="preserve">
<g id="Grids" display="none">
	<g id="Grid_67_" display="inline">
		<g>
			<path fill="#FF0000" d="M51.9,4.1v55.8H12.1V4.1H51.9 M52,4H12v56h40V4L52,4z"/>
		</g>
		<g>
			<path fill="#4600F0" d="M59.9,12.1v39.8H4.1V12.1H59.9 M60,12H4v40h56V12L60,12z"/>
		</g>
		<g>
			<path fill="#F0C800" d="M55.9,8.1v47.8H8.1V8.1H55.9 M56,8H8v48h48V8L56,8z"/>
		</g>
		<g>
			<path fill="#00F096" d="M32,6.1c14.281,0,25.9,11.619,25.9,25.9S46.281,57.9,32,57.9S6.1,46.281,6.1,32S17.719,6.1,32,6.1 M32,6
				C17.641,6,6,17.641,6,32s11.641,26,26,26s26-11.641,26-26S46.359,6,32,6L32,6z"/>
		</g>
	</g>
</g>
<g id="Captions">
	<g>
	</g>
</g>
<g id="Icons">
	<g>
		<path d="M16.5,28.5H21c0.276,0,0.5,0.225,0.5,0.5v4c0,0.827,0.673,1.5,1.5,1.5h3v-1h-3c-0.276,0-0.5-0.225-0.5-0.5v-4
			c0-0.827-0.673-1.5-1.5-1.5h-5c-0.276,0-0.5,0.224-0.5,0.5v32h1V28.5z"/>
		<path d="M48.5,60V28c0-0.276-0.224-0.5-0.5-0.5h-5c-0.827,0-1.5,0.673-1.5,1.5v4c0,0.275-0.225,0.5-0.5,0.5h-3v1h3
			c0.827,0,1.5-0.673,1.5-1.5v-4c0-0.275,0.225-0.5,0.5-0.5h4.5V60H48.5z"/>
		<path d="M48.5,6c0-1.379-1.121-2.5-2.5-2.5S43.5,4.621,43.5,6v20h1V6c0-0.827,0.673-1.5,1.5-1.5s1.5,0.673,1.5,1.5v20h1V6z"/>
		<path d="M20.5,26V6c0-1.379-1.122-2.5-2.5-2.5S15.5,4.621,15.5,6v20h1V6c0-0.827,0.673-1.5,1.5-1.5s1.5,0.673,1.5,1.5v20H20.5z"/>
		<path d="M59,30.5h-2c-0.827,0-1.5,0.673-1.5,1.5s0.673,1.5,1.5,1.5h2c0.827,0,1.5-0.673,1.5-1.5S59.827,30.5,59,30.5z M59,32.5h-2
			c-0.275,0-0.5-0.225-0.5-0.5s0.225-0.5,0.5-0.5h2c0.275,0,0.5,0.225,0.5,0.5S59.275,32.5,59,32.5z"/>
		<path d="M56.061,19.939c-0.584-0.584-1.537-0.584-2.121,0l-1.414,1.414c-0.585,0.585-0.585,1.536,0,2.121
			c0.584,0.584,1.537,0.584,2.121,0l1.414-1.414C56.646,21.476,56.646,20.524,56.061,19.939z M55.354,21.354l-1.414,1.414
			c-0.189,0.189-0.518,0.189-0.707,0c-0.196-0.196-0.196-0.511,0-0.707l1.414-1.414c0.196-0.196,0.511-0.196,0.707,0
			S55.549,21.158,55.354,21.354z"/>
		<path d="M54.646,40.525c-0.584-0.584-1.537-0.584-2.121,0c-0.585,0.585-0.585,1.536,0,2.121l1.414,1.414
			c0.584,0.584,1.537,0.584,2.121,0c0.585-0.585,0.585-1.536,0-2.121L54.646,40.525z M55.354,43.354
			c-0.189,0.189-0.518,0.189-0.707,0l-1.414-1.414c-0.196-0.196-0.196-0.511,0-0.707s0.511-0.196,0.707,0l1.414,1.414
			C55.549,42.842,55.549,43.158,55.354,43.354z"/>
		<path d="M5,33.5h2c0.827,0,1.5-0.673,1.5-1.5S7.827,30.5,7,30.5H5c-0.827,0-1.5,0.673-1.5,1.5S4.173,33.5,5,33.5z M5,31.5h2
			c0.276,0,0.5,0.225,0.5,0.5S7.276,32.5,7,32.5H5c-0.276,0-0.5-0.225-0.5-0.5S4.724,31.5,5,31.5z"/>
		<path d="M9.354,40.525l-1.414,1.414c-0.585,0.585-0.585,1.536,0,2.121c0.586,0.585,1.535,0.585,2.121,0l1.414-1.414
			c0.585-0.585,0.585-1.536,0-2.121C10.89,39.941,9.938,39.941,9.354,40.525z M10.768,41.939l-1.414,1.414
			c-0.189,0.189-0.518,0.189-0.707,0c-0.195-0.196-0.195-0.511,0-0.707l1.414-1.414c0.196-0.196,0.511-0.196,0.707,0
			C10.963,41.429,10.963,41.743,10.768,41.939z"/>
		<path d="M11.475,21.354l-1.414-1.414c-0.585-0.584-1.536-0.584-2.121,0c-0.585,0.585-0.585,1.536,0,2.121l1.414,1.414
			c0.586,0.585,1.535,0.585,2.121,0C12.06,22.89,12.06,21.938,11.475,21.354z M10.768,22.768c-0.189,0.189-0.518,0.189-0.707,0
			l-1.414-1.414c-0.195-0.196-0.195-0.511,0-0.707c0.196-0.196,0.511-0.196,0.707,0l1.414,1.414
			C10.963,22.257,10.963,22.571,10.768,22.768z"/>
		<path d="M39.5,50.5c0-3.556-2.551-6.638-6-7.342V42.5c0-0.827-0.673-1.5-1.5-1.5s-1.5,0.673-1.5,1.5v0.658
			c-3.45,0.704-6,3.786-6,7.342c0,4.136,3.364,7.5,7.5,7.5S39.5,54.636,39.5,50.5z M25.5,50.5c0-3.208,2.395-5.971,5.571-6.426
			c0.247-0.035,0.429-0.246,0.429-0.495V42.5c0-0.275,0.224-0.5,0.5-0.5s0.5,0.225,0.5,0.5v1.079c0,0.249,0.183,0.46,0.429,0.495
			c3.176,0.455,5.571,3.218,5.571,6.426c0,3.584-2.916,6.5-6.5,6.5S25.5,54.084,25.5,50.5z"/>
		<path d="M35,51.5c0.446,0,0.666-0.541,0.354-0.854L33.707,49l1.646-1.646C35.666,47.041,35.446,46.5,35,46.5h-6
			c-0.276,0-0.5,0.224-0.5,0.5v4v4h1v-3.5H35z M32.646,48.646c-0.195,0.195-0.195,0.512,0,0.707l1.146,1.146H29.5v-3h4.293
			L32.646,48.646z"/>
		<path d="M32,40.5c2.481,0,4.5-2.019,4.5-4.5v-2.814c2.341-1.457,3.821-3.978,3.97-6.734c1.155-0.221,2.03-1.234,2.03-2.453
			c0-1.208-0.86-2.217-2-2.449V14c0-1.379-1.121-2.5-2.5-2.5h-2c-0.816,0-1.544,0.394-2,1.002c-0.456-0.608-1.183-1.002-2-1.002h-6
			c-1.378,0-2.5,1.121-2.5,2.5v7.551c-1.14,0.232-2,1.242-2,2.449c0,1.218,0.876,2.232,2.03,2.453
			c0.149,2.756,1.629,5.277,3.97,6.734V36C27.5,38.481,29.513,40.5,32,40.5z M35.5,36c0,1.93-1.57,3.5-3.5,3.5
			c-1.949,0-3.5-1.584-3.5-3.5v-2.256c2.173,0.993,4.829,0.993,7,0V36z M41.5,24c0,0.651-0.419,1.201-1,1.408v-2.816
			C41.081,22.799,41.5,23.349,41.5,24z M36,12.5h2c0.827,0,1.5,0.673,1.5,1.5v7.414c-0.582-0.206-1-0.762-1-1.414v-1
			c0-0.827-0.673-1.5-1.5-1.5h-2.5V14C34.5,13.173,35.173,12.5,36,12.5z M24.5,14c0-0.827,0.673-1.5,1.5-1.5h6
			c0.827,0,1.5,0.673,1.5,1.5v3.5H27c-0.827,0-1.5,0.673-1.5,1.5v1c0,0.652-0.418,1.208-1,1.414V14z M22.5,24
			c0-0.651,0.419-1.201,1-1.408v2.816C22.919,25.201,22.5,24.651,22.5,24z M24.5,26v-3.551c1.14-0.232,2-1.242,2-2.449v-1
			c0-0.275,0.224-0.5,0.5-0.5h10c0.275,0,0.5,0.225,0.5,0.5v1c0,1.208,0.86,2.217,2,2.449V26c0,2.675-1.437,5.16-3.749,6.486
			l0.001,0.001c-0.002,0.001-0.004,0.001-0.006,0.002c-2.24,1.322-5.251,1.322-7.492,0c-0.002-0.001-0.004-0.001-0.006-0.002
			l0.001-0.001C25.937,31.161,24.5,28.676,24.5,26z"/>
		<path d="M32,26.5c0.276,0,0.5-0.224,0.5-0.5v-2c0-0.276-0.224-0.5-0.5-0.5s-0.5,0.224-0.5,0.5v2C31.5,26.276,31.724,26.5,32,26.5z
			"/>
		<circle cx="28" cy="23" r="1"/>
		<circle cx="36" cy="23" r="1"/>
		<path d="M32,30.5c1.379,0,2.5-1.122,2.5-2.5c0-0.276-0.224-0.5-0.5-0.5s-0.5,0.224-0.5,0.5c0,0.827-0.673,1.5-1.5,1.5
			s-1.5-0.673-1.5-1.5c0-0.276-0.224-0.5-0.5-0.5s-0.5,0.224-0.5,0.5C29.5,29.378,30.622,30.5,32,30.5z"/>
	</g>
</g>
</svg>
