<?xml version="1.0" encoding="utf-8"?>
<!-- Generator: Adobe Illustrator 24.0.0, SVG Export Plug-In . SVG Version: 6.00 Build 0)  -->
<svg version="1.1" xmlns="http://www.w3.org/2000/svg" xmlns:xlink="http://www.w3.org/1999/xlink" x="0px" y="0px"
	 viewBox="0 0 64 64" enable-background="new 0 0 64 64" xml:space="preserve">
<g id="Grids" display="none">
	<g id="Grid_39_" display="inline">
		<g>
			<path fill="#FF0000" d="M51.9,4.1v55.8H12.1V4.1H51.9 M52,4H12v56h40V4L52,4z"/>
		</g>
		<g>
			<path fill="#4600F0" d="M59.9,12.1v39.8H4.1V12.1H59.9 M60,12H4v40h56V12L60,12z"/>
		</g>
		<g>
			<path fill="#F0C800" d="M55.9,8.1v47.8H8.1V8.1H55.9 M56,8H8v48h48V8L56,8z"/>
		</g>
		<g>
			<path fill="#00F096" d="M32,6.1c14.281,0,25.9,11.619,25.9,25.9S46.281,57.9,32,57.9S6.1,46.281,6.1,32S17.719,6.1,32,6.1 M32,6
				C17.641,6,6,17.641,6,32s11.641,26,26,26s26-11.641,26-26S46.359,6,32,6L32,6z"/>
		</g>
	</g>
</g>
<g id="Captions">
	<g>
	</g>
</g>
<g id="Icons">
	<g>
		<path d="M38.5,15c0-3.035-2.448-5.5-5.5-5.5c-3.033,0-5.5,2.467-5.5,5.5v3c0,0.407,0.17,0.802,0.466,1.083l0.688-0.726
			C28.556,18.265,28.5,18.134,28.5,18v-3c0-2.481,2.019-4.5,4.5-4.5c2.49,0,4.5,2.005,4.5,4.5v3c0,0.134-0.056,0.265-0.154,0.357
			l0.688,0.726C38.33,18.802,38.5,18.407,38.5,18V15z"/>
		<path d="M38.5,24v-2c0-1.378-1.122-2.5-2.5-2.5h-0.558c0.651-0.636,1.058-1.52,1.058-2.5v-1.153c0-0.737-0.527-1.359-1.253-1.479
			l-4-0.667c-0.915-0.154-1.747,0.556-1.747,1.48V17c0,0.98,0.407,1.864,1.058,2.5H30c-1.378,0-2.5,1.122-2.5,2.5v2h1v-2
			c0-0.827,0.673-1.5,1.5-1.5h6c0.827,0,1.5,0.673,1.5,1.5v2H38.5z M30.5,17v-1.819c0-0.315,0.283-0.544,0.583-0.494l4,0.667
			c0.242,0.04,0.417,0.248,0.417,0.493V17c0,1.378-1.122,2.5-2.5,2.5S30.5,18.378,30.5,17z"/>
		<path d="M42.282,21.717c0.566,0.566,1.555,0.567,2.122,0l0.466-0.466c2.937,1.942,6.92,1.566,9.434-0.948
			c2.931-2.931,2.931-7.675,0-10.606c-2.931-2.931-7.675-2.931-10.606,0c-2.515,2.514-2.89,6.497-0.948,9.434l-0.466,0.466
			C41.695,20.183,41.697,21.132,42.282,21.717z M44.404,10.404c2.541-2.54,6.652-2.541,9.192,0c2.541,2.541,2.54,6.651,0,9.192
			c-2.268,2.268-5.916,2.529-8.483,0.604c-0.199-0.149-0.478-0.129-0.653,0.047l-0.763,0.763c-0.189,0.189-0.519,0.19-0.707,0
			c-0.192-0.19-0.198-0.507,0-0.707l0.763-0.763c0.176-0.176,0.196-0.454,0.047-0.653C41.876,16.318,42.136,12.672,44.404,10.404z"
			/>
		<path d="M47.283,17.381c0.578,0.593,1.508,0.578,2.065,0.007c0.2-0.197,2.525-2.516,2.725-2.715c0.571-0.571,0.571-1.501,0-2.073
			c-0.565-0.564-1.468-0.568-2.064,0l-1.688,1.692l-0.327-0.328c-0.569-0.568-1.496-0.568-2.054-0.009
			c-0.558,0.53-0.602,1.48-0.009,2.073L47.283,17.381z M46.638,14.673c0.177-0.177,0.468-0.181,0.649,0l0.681,0.681
			c0.196,0.196,0.513,0.195,0.708,0l2.031-2.037c0.223-0.213,0.506-0.163,0.659-0.009c0.179,0.179,0.179,0.48,0,0.658
			c-0.199,0.198-2.521,2.514-2.727,2.717c-0.174,0.178-0.464,0.181-0.645-0.004l-1.356-1.356
			C46.45,15.136,46.469,14.833,46.638,14.673z"/>
		<path d="M22.906,23.076l1.57,3.93l0.929-0.371l-1.57-3.931c-0.826-2.05-3.324-2.813-5.084-1.685l0.54,0.842
			C20.503,21.081,22.308,21.591,22.906,23.076z"/>
		<path d="M22.354,18.354c1.43-1.43,0.432-4.519-0.879-5.828c-1.321-1.322-3.628-1.322-4.949,0c-1.368,1.367-1.368,3.582,0,4.949
			C17.833,18.783,20.922,19.785,22.354,18.354z M17.232,13.232c0.977-0.977,2.558-0.977,3.535,0
			c0.973,0.972,1.819,3.473,0.879,4.414c-0.939,0.937-3.44,0.096-4.414-0.879C16.255,15.79,16.255,14.21,17.232,13.232z"/>
		<path d="M7.5,40c0,1.378,1.122,2.5,2.5,2.5h1.691l1.582,3.174c0.111,0.222,0.263,0.398,0.451,0.523l0.553-0.834
			c-0.026-0.017-0.066-0.05-0.108-0.135L12.809,42.5H15.5v5H13c-0.827,0-1.5,0.673-1.5,1.5v2c0,0.307,0.104,0.623,0.292,0.889
			l0.816-0.577C12.539,51.212,12.5,51.102,12.5,51v-2c0-0.276,0.224-0.5,0.5-0.5c4.463,0,33.668,0,38,0c0.276,0,0.5,0.224,0.5,0.5v2
			c0,0.102-0.039,0.212-0.108,0.312l0.816,0.577C52.396,51.623,52.5,51.307,52.5,51v-2c0-0.827-0.673-1.5-1.5-1.5h-2.5v-5h2.691
			l-1.358,2.727c-0.043,0.086-0.083,0.119-0.109,0.136l0.553,0.834c0.188-0.125,0.339-0.301,0.451-0.524l1.582-3.173H54
			c1.378,0,2.5-1.122,2.5-2.5v-9c0-0.827-0.673-1.5-1.5-1.5h-2c-0.827,0-1.5,0.673-1.5,1.5v6c0,0.276-0.224,0.5-0.5,0.5h-0.592
			c0.056-0.157,0.092-0.324,0.092-0.5v-7c0-2.481-2.019-4.5-4.5-4.5H32c-1.332,0-2.5,1.07-2.5,2.29V37
			c0,0.176,0.036,0.343,0.092,0.5H20.78c-0.613,0-1.162-0.373-1.396-0.945l-4.74-11.85c-0.291-0.73-0.047-1.563,0.562-1.936
			c0.839-0.5,1.857-0.107,2.189,0.727l4.019,10.058c0.224,0.566,0.784,0.946,1.396,0.946c6.474,0,0.648,0,5.19,0v-1h-1.5V29
			c0-0.276,0.224-0.5,0.5-0.5h1v-1h-1c-0.827,0-1.5,0.673-1.5,1.5v4.5h-2.69c-0.204,0-0.391-0.126-0.466-0.315l-4.02-10.06
			c-0.568-1.429-2.287-2.014-3.635-1.212c-1.04,0.636-1.45,1.966-0.974,3.163l4.741,11.854c0.085,0.208,0.199,0.397,0.33,0.571H13
			c-0.276,0-0.5-0.224-0.5-0.5v-6c0-0.827-0.673-1.5-1.5-1.5H9c-0.827,0-1.5,0.673-1.5,1.5V40z M16.5,47.5v-5h1v5H16.5z M45.5,42.5
			v5h-7v-1H44v-1c-2.537,0-21.481,0-24,0v1h7.5v1h-9v-5H45.5z M33.5,46.5v1h-1v-1H33.5z M28.5,47.5v-1h3v1H28.5z M34.5,47.5v-1h3v1
			H34.5z M47.5,47.5h-1v-5h1V47.5z M30.5,37v-9.21c0-0.597,0.655-1.29,1.5-1.29h14c1.93,0,3.5,1.57,3.5,3.5v7
			c0,0.276-0.224,0.5-0.5,0.5H31C30.724,37.5,30.5,37.276,30.5,37z M8.5,31c0-0.276,0.224-0.5,0.5-0.5h2c0.276,0,0.5,0.224,0.5,0.5
			v6c0,0.827,0.673,1.5,1.5,1.5c17.797,0,20.528,0,38,0c0.827,0,1.5-0.673,1.5-1.5v-6c0-0.276,0.224-0.5,0.5-0.5h2
			c0.276,0,0.5,0.224,0.5,0.5v9c0,0.827-0.673,1.5-1.5,1.5c-14.733,0-29.373,0-44,0c-0.827,0-1.5-0.673-1.5-1.5V31z"/>
		<path d="M21.9,51.5v1h5.6v1H27c-0.827,0-1.5,0.673-1.5,1.5s0.673,1.5,1.5,1.5h4c0.827,0,1.5-0.673,1.5-1.5c0-0.868,0-1.632,0-2.5
			h1c0,0.868,0,1.632,0,2.5c0,0.827,0.673,1.5,1.5,1.5h4c0.827,0,1.5-0.673,1.5-1.5s-0.673-1.5-1.5-1.5h-0.5v-1h3.6v-1
			C31.653,51.5,32.22,51.5,21.9,51.5z M31.5,55c0,0.276-0.224,0.5-0.5,0.5h-4c-0.276,0-0.5-0.224-0.5-0.5s0.224-0.5,0.5-0.5
			c2.927,0,3.342,0,4.5,0V55z M31.5,53.5h-3v-1h3V53.5z M39.5,55c0,0.276-0.224,0.5-0.5,0.5h-4c-0.276,0-0.5-0.224-0.5-0.5v-0.5
			c1.158,0,1.573,0,4.5,0C39.276,54.5,39.5,54.724,39.5,55z M37.5,53.5h-3v-1h3V53.5z"/>
		<path d="M20.5,53c0-1.93-1.57-3.5-3.5-3.5s-3.5,1.57-3.5,3.5s1.57,3.5,3.5,3.5S20.5,54.93,20.5,53z M14.5,53
			c0-1.378,1.122-2.5,2.5-2.5s2.5,1.122,2.5,2.5s-1.122,2.5-2.5,2.5S14.5,54.378,14.5,53z"/>
		<path d="M50.5,53c0-1.93-1.57-3.5-3.5-3.5s-3.5,1.57-3.5,3.5s1.57,3.5,3.5,3.5S50.5,54.93,50.5,53z M44.5,53
			c0-1.378,1.122-2.5,2.5-2.5s2.5,1.122,2.5,2.5s-1.122,2.5-2.5,2.5S44.5,54.378,44.5,53z"/>
		<path d="M18.5,53c0-0.827-0.673-1.5-1.5-1.5s-1.5,0.673-1.5,1.5s0.673,1.5,1.5,1.5S18.5,53.827,18.5,53z M16.5,53
			c0-0.276,0.224-0.5,0.5-0.5s0.5,0.224,0.5,0.5s-0.224,0.5-0.5,0.5S16.5,53.276,16.5,53z"/>
		<path d="M48.5,53c0-0.827-0.673-1.5-1.5-1.5s-1.5,0.673-1.5,1.5s0.673,1.5,1.5,1.5S48.5,53.827,48.5,53z M46.5,53
			c0-0.276,0.224-0.5,0.5-0.5s0.5,0.224,0.5,0.5s-0.224,0.5-0.5,0.5S46.5,53.276,46.5,53z"/>
		<path d="M43,27.5H33c-0.827,0-1.5,0.673-1.5,1.5v6c0,0.838,0.693,1.5,1.5,1.5h12c0.814,0,1.5-0.654,1.5-1.5v-4
			C46.5,29.115,44.991,27.5,43,27.5z M45.5,35c0,0.272-0.222,0.5-0.5,0.5H33c-0.258,0-0.5-0.216-0.5-0.5v-6
			c0-0.276,0.224-0.5,0.5-0.5h10c1.423,0,2.5,1.159,2.5,2.5V35z"/>
	</g>
</g>
</svg>
