<?xml version="1.0" encoding="utf-8"?>
<!-- Generator: Adobe Illustrator 24.0.0, SVG Export Plug-In . SVG Version: 6.00 Build 0)  -->
<svg version="1.1" xmlns="http://www.w3.org/2000/svg" xmlns:xlink="http://www.w3.org/1999/xlink" x="0px" y="0px"
	 viewBox="0 0 64 64" enable-background="new 0 0 64 64" xml:space="preserve">
<g id="Grids" display="none">
	<g id="Grid_50_" display="inline">
		<g>
			<path fill="#FF0000" d="M51.9,4.1v55.8H12.1V4.1H51.9 M52,4H12v56h40V4L52,4z"/>
		</g>
		<g>
			<path fill="#4600F0" d="M59.9,12.1v39.8H4.1V12.1H59.9 M60,12H4v40h56V12L60,12z"/>
		</g>
		<g>
			<path fill="#F0C800" d="M55.9,8.1v47.8H8.1V8.1H55.9 M56,8H8v48h48V8L56,8z"/>
		</g>
		<g>
			<path fill="#00F096" d="M32,6.1c14.281,0,25.9,11.619,25.9,25.9S46.281,57.9,32,57.9S6.1,46.281,6.1,32S17.719,6.1,32,6.1 M32,6
				C17.641,6,6,17.641,6,32s11.641,26,26,26s26-11.641,26-26S46.359,6,32,6L32,6z"/>
		</g>
	</g>
</g>
<g id="Captions">
	<g>
	</g>
</g>
<g id="Icons">
	<g>
		<g>
			<path d="M42.5,50V34.41c0-0.393-0.159-0.776-0.437-1.054l-1.42-1.42c-0.089-0.089-0.144-0.222-0.144-0.347V30h-1v1.59
				c0,0.393,0.159,0.776,0.437,1.054l1.42,1.42c0.089,0.089,0.144,0.222,0.144,0.347v1.09h-7v-1.09c0-0.125,0.055-0.258,0.144-0.347
				l1.42-1.42c0.277-0.277,0.437-0.661,0.437-1.054V30h-1v1.59c0,0.125-0.055,0.258-0.144,0.347l-1.42,1.42
				c-0.277,0.277-0.437,0.661-0.437,1.054V46h1v-9.5h7V50H42.5z"/>
			<path d="M41,25.5h-6c-0.827,0-1.5,0.673-1.5,1.5s0.673,1.5,1.5,1.5h6c0.827,0,1.5-0.673,1.5-1.5S41.827,25.5,41,25.5z M41,27.5
				h-6c-0.275,0-0.5-0.225-0.5-0.5s0.225-0.5,0.5-0.5h6c0.275,0,0.5,0.225,0.5,0.5S41.275,27.5,41,27.5z"/>
			<path d="M8.5,54V20.83c0-0.401,0.157-0.78,0.443-1.066l3.41-3.41l-0.707-0.707l-3.41,3.41C7.762,19.531,7.5,20.161,7.5,20.83V54
				c0,1.379,1.121,2.5,2.5,2.5h8v-1h-8C9.173,55.5,8.5,54.827,8.5,54z"/>
			<path d="M26.354,15.646l-0.707,0.707l3.41,3.41c0.286,0.286,0.443,0.665,0.443,1.066V46h1V20.83c0-0.669-0.262-1.299-0.736-1.773
				L26.354,15.646z"/>
			<path d="M25,7.5H13c-0.827,0-1.5,0.673-1.5,1.5v4c0,0.827,0.673,1.5,1.5,1.5h12c0.827,0,1.5-0.673,1.5-1.5V9
				C26.5,8.173,25.827,7.5,25,7.5z M25.5,13c0,0.275-0.225,0.5-0.5,0.5H13c-0.275,0-0.5-0.225-0.5-0.5V9c0-0.275,0.225-0.5,0.5-0.5
				h12c0.275,0,0.5,0.225,0.5,0.5V13z"/>
			<path d="M28.5,45V25c0-0.827-0.673-1.5-1.5-1.5H11c-0.827,0-1.5,0.673-1.5,1.5v20c0,0.827,0.673,1.5,1.5,1.5h16
				C27.827,46.5,28.5,45.827,28.5,45z M10.5,45V25c0-0.275,0.225-0.5,0.5-0.5h16c0.275,0,0.5,0.225,0.5,0.5v20
				c0,0.275-0.225,0.5-0.5,0.5H11C10.725,45.5,10.5,45.275,10.5,45z"/>
			<path d="M24,29.5h-2.5V27c0-0.827-0.673-1.5-1.5-1.5h-2c-0.827,0-1.5,0.673-1.5,1.5v2.5H14c-0.827,0-1.5,0.673-1.5,1.5v2
				c0,0.827,0.673,1.5,1.5,1.5h2.5V37c0,0.827,0.673,1.5,1.5,1.5h2c0.827,0,1.5-0.673,1.5-1.5v-2.5H24c0.827,0,1.5-0.673,1.5-1.5v-2
				C25.5,30.173,24.827,29.5,24,29.5z M24.5,33c0,0.275-0.225,0.5-0.5,0.5h-3.5V37c0,0.275-0.225,0.5-0.5,0.5h-2
				c-0.275,0-0.5-0.225-0.5-0.5v-3.5H14c-0.275,0-0.5-0.225-0.5-0.5v-2c0-0.275,0.225-0.5,0.5-0.5h3.5V27c0-0.275,0.225-0.5,0.5-0.5
				h2c0.275,0,0.5,0.225,0.5,0.5v3.5H24c0.275,0,0.5,0.225,0.5,0.5V33z"/>
			<path d="M45.5,44h1v-3.5h7V44h1V23c0-0.827-0.673-1.5-1.5-1.5h-6c-0.827,0-1.5,0.673-1.5,1.5V44z M47,22.5h6
				c0.275,0,0.5,0.225,0.5,0.5v16.5h-7v-5H50v-1h-3.5v-3H50v-1h-3.5v-3H50v-1h-3.5V23C46.5,22.725,46.725,22.5,47,22.5z"/>
			<polygon points="52.5,44 52.5,41.5 47.5,41.5 47.5,44 48.5,44 48.5,42.5 51.5,42.5 51.5,44 			"/>
			<path d="M53,53.5h-0.5V50h-1v3.5h-3V50h-1v3.5H47c-0.827,0-1.5,0.673-1.5,1.5s0.673,1.5,1.5,1.5h6c0.827,0,1.5-0.673,1.5-1.5
				S53.827,53.5,53,53.5z M53,55.5h-6c-0.275,0-0.5-0.225-0.5-0.5s0.225-0.5,0.5-0.5c2.006,0,4.008,0,6,0c0.275,0,0.5,0.225,0.5,0.5
				S53.275,55.5,53,55.5z"/>
			<path d="M55,45.5H45c-0.827,0-1.5,0.673-1.5,1.5s0.673,1.5,1.5,1.5h10c0.827,0,1.5-0.673,1.5-1.5S55.827,45.5,55,45.5z M55,47.5
				H45c-0.275,0-0.5-0.225-0.5-0.5s0.225-0.5,0.5-0.5h10c0.275,0,0.5,0.225,0.5,0.5S55.275,47.5,55,47.5z"/>
			<path d="M42,51.5c-3.017,0-4.966,0-8,0c-0.821,0-1.544,0.403-2,1.015c-0.456-0.613-1.179-1.015-2-1.015h-3.5h-1H22
				c-1.379,0-2.5,1.121-2.5,2.5s1.121,2.5,2.5,2.5c3.017,0,4.966,0,8,0c0.821,0,1.544-0.403,2-1.015
				c0.456,0.613,1.179,1.015,2,1.015c2.989,0,5.018,0,8,0c1.379,0,2.5-1.121,2.5-2.5S43.379,51.5,42,51.5z M25.5,55.5H22
				c-0.827,0-1.5-0.673-1.5-1.5s0.673-1.5,1.5-1.5h3.5V55.5z M30,55.5h-3.5v-3H30c0.827,0,1.5,0.673,1.5,1.5S30.827,55.5,30,55.5z
				 M37.5,55.5H34c-0.827,0-1.5-0.673-1.5-1.5s0.673-1.5,1.5-1.5h3.5V55.5z M42,55.5h-3.5v-3H42c0.827,0,1.5,0.673,1.5,1.5
				S42.827,55.5,42,55.5z"/>
			<path d="M25.5,50h1c0-0.812,0.664-1.5,1.5-1.5h3.5V50h1v-1.5H36c0.827,0,1.5,0.673,1.5,1.5h1c0-1.379-1.121-2.5-2.5-2.5
				c-3.017,0-4.966,0-8,0C26.6,47.5,25.5,48.641,25.5,50z"/>
			<path d="M35.5,43c0,0.827,0.673,1.5,1.5,1.5s1.5-0.673,1.5-1.5s-0.673-1.5-1.5-1.5S35.5,42.173,35.5,43z M37.5,43
				c0,0.275-0.225,0.5-0.5,0.5s-0.5-0.225-0.5-0.5s0.225-0.5,0.5-0.5S37.5,42.725,37.5,43z"/>
			<path d="M40.5,39c0-0.827-0.673-1.5-1.5-1.5s-1.5,0.673-1.5,1.5s0.673,1.5,1.5,1.5S40.5,39.827,40.5,39z M38.5,39
				c0-0.275,0.225-0.5,0.5-0.5s0.5,0.225,0.5,0.5s-0.225,0.5-0.5,0.5S38.5,39.275,38.5,39z"/>
			<path d="M45.5,11c0,0.827,0.673,1.5,1.5,1.5s1.5-0.673,1.5-1.5V9.5H47C46.173,9.5,45.5,10.173,45.5,11z M47.5,11
				c0,0.275-0.225,0.5-0.5,0.5s-0.5-0.225-0.5-0.5s0.225-0.5,0.5-0.5h0.5V11z"/>
			<path d="M54.5,11c0-0.827-0.673-1.5-1.5-1.5h-1.5V11c0,0.827,0.673,1.5,1.5,1.5S54.5,11.827,54.5,11z M52.5,11v-0.5H53
				c0.275,0,0.5,0.225,0.5,0.5s-0.225,0.5-0.5,0.5S52.5,11.275,52.5,11z"/>
			<path d="M49.5,8v9.5H49c-0.827,0-1.5,0.673-1.5,1.5v1h1v-1c0-0.275,0.225-0.5,0.5-0.5h2c0.275,0,0.5,0.225,0.5,0.5v1h1v-1
				c0-0.827-0.673-1.5-1.5-1.5h-0.5V8H49.5z"/>
			<rect x="16" y="41.5" width="6" height="1"/>
		</g>
		<g>
			<path d="M38,24.5c-0.827,0-1.5-0.673-1.5-1.5v-0.659c-3.45-0.704-6-3.785-6-7.341c0-4.136,3.364-7.5,7.5-7.5s7.5,3.364,7.5,7.5
				c0,3.556-2.55,6.637-6,7.341V23C39.5,23.827,38.827,24.5,38,24.5z M38,8.5c-3.584,0-6.5,2.916-6.5,6.5
				c0,3.207,2.396,5.97,5.571,6.426c0.246,0.035,0.429,0.246,0.429,0.495V23c0,0.275,0.225,0.5,0.5,0.5s0.5-0.225,0.5-0.5v-1.079
				c0-0.249,0.183-0.46,0.429-0.495C42.104,20.97,44.5,18.207,44.5,15C44.5,11.416,41.584,8.5,38,8.5z"/>
		</g>
		<g>
			<path d="M36.227,17.906L34.82,16.5c-0.614-0.616-0.555-1.589,0.009-2.125c0.567-0.567,1.516-0.586,2.108,0.009l0.355,0.354
				l1.768-1.773c0.615-0.582,1.541-0.579,2.119,0c0.585,0.586,0.585,1.54-0.001,2.127c-0.142,0.141-2.704,2.695-2.833,2.822
				C37.774,18.5,36.818,18.512,36.227,17.906z M35.527,15.091c-0.18,0.173-0.204,0.498,0,0.702l1.41,1.41
				c0.203,0.207,0.504,0.203,0.698,0.005c0.25-0.247,2.584-2.574,2.836-2.825c0.191-0.192,0.192-0.519-0.001-0.712c0,0,0,0-0.001,0
				c-0.165-0.166-0.471-0.22-0.711,0.009l-2.112,2.119c-0.193,0.193-0.51,0.198-0.708,0l-0.708-0.708
				C36.033,14.894,35.721,14.897,35.527,15.091z"/>
		</g>
	</g>
</g>
</svg>
