<?xml version="1.0" encoding="utf-8"?>
<!-- Generator: Adobe Illustrator 24.0.0, SVG Export Plug-In . SVG Version: 6.00 Build 0)  -->
<svg version="1.1" xmlns="http://www.w3.org/2000/svg" xmlns:xlink="http://www.w3.org/1999/xlink" x="0px" y="0px"
	 viewBox="0 0 64 64" enable-background="new 0 0 64 64" xml:space="preserve">
<g id="Grids" display="none">
	<g id="Grid_19_" display="inline">
		<g>
			<path fill="#FF0000" d="M51.9,4.1v55.8H12.1V4.1H51.9 M52,4H12v56h40V4L52,4z"/>
		</g>
		<g>
			<path fill="#4600F0" d="M59.9,12.1v39.8H4.1V12.1H59.9 M60,12H4v40h56V12L60,12z"/>
		</g>
		<g>
			<path fill="#F0C800" d="M55.9,8.1v47.8H8.1V8.1H55.9 M56,8H8v48h48V8L56,8z"/>
		</g>
		<g>
			<path fill="#00F096" d="M32,6.1c14.281,0,25.9,11.619,25.9,25.9S46.281,57.9,32,57.9S6.1,46.281,6.1,32S17.719,6.1,32,6.1 M32,6
				C17.641,6,6,17.641,6,32s11.641,26,26,26s26-11.641,26-26S46.359,6,32,6L32,6z"/>
		</g>
	</g>
</g>
<g id="Captions">
	<g>
	</g>
</g>
<g id="Icons">
	<path d="M39,28.5h-3.5V25c0-0.827-0.673-1.5-1.5-1.5h-4c-0.827,0-1.5,0.673-1.5,1.5v3.5H25c-0.827,0-1.5,0.673-1.5,1.5v4
		c0,0.827,0.673,1.5,1.5,1.5h3.5V39c0,0.827,0.673,1.5,1.5,1.5h4c0.827,0,1.5-0.673,1.5-1.5v-3.5H39c0.827,0,1.5-0.673,1.5-1.5v-4
		C40.5,29.173,39.827,28.5,39,28.5z M39.5,34c0,0.276-0.224,0.5-0.5,0.5h-4c-0.276,0-0.5,0.224-0.5,0.5v4c0,0.276-0.224,0.5-0.5,0.5
		h-4c-0.276,0-0.5-0.224-0.5-0.5v-4c0-0.276-0.224-0.5-0.5-0.5h-4c-0.276,0-0.5-0.224-0.5-0.5v-4c0-0.276,0.224-0.5,0.5-0.5h4
		c0.276,0,0.5-0.224,0.5-0.5v-4c0-0.276,0.224-0.5,0.5-0.5h4c0.276,0,0.5,0.224,0.5,0.5v4c0,0.276,0.224,0.5,0.5,0.5h4
		c0.276,0,0.5,0.224,0.5,0.5V34z"/>
	<path d="M37,5.5H27c-0.827,0-1.5,0.673-1.5,1.5v3.46c-3.309,0.998-6.371,2.768-8.899,5.143L13.6,13.871
		c-0.716-0.413-1.636-0.166-2.049,0.549l-5,8.66c-0.414,0.714-0.174,1.631,0.549,2.049l2.993,1.729c-0.79,3.381-0.79,6.902,0,10.284
		L7.1,38.871c-0.723,0.419-0.963,1.335-0.549,2.049l5,8.66c0.413,0.715,1.333,0.962,2.049,0.549l3.001-1.733
		c2.528,2.375,5.591,4.145,8.899,5.143V57c0,0.827,0.673,1.5,1.5,1.5h10c0.827,0,1.5-0.673,1.5-1.5v-3.46
		c3.309-0.998,6.371-2.768,8.899-5.143l3.001,1.733c0.718,0.413,1.636,0.166,2.049-0.549l5-8.66
		c0.414-0.714,0.174-1.631-0.549-2.049l-2.993-1.729c0.79-3.381,0.79-6.902,0-10.284l2.993-1.729
		c0.723-0.419,0.963-1.335,0.549-2.049l-5-8.66c-0.413-0.715-1.331-0.962-2.049-0.549l-3.001,1.733
		c-2.528-2.375-5.591-4.145-8.899-5.143V7C38.5,6.173,37.827,5.5,37,5.5z M46.977,16.582c0.161,0.156,0.404,0.186,0.599,0.075
		l3.325-1.92c0.236-0.139,0.545-0.056,0.684,0.183l5,8.66c0.138,0.239,0.056,0.545-0.184,0.683l-3.317,1.916
		c-0.193,0.112-0.289,0.338-0.235,0.555c0.846,3.363,0.893,6.98,0,10.532c-0.054,0.217,0.042,0.443,0.235,0.555l3.317,1.916
		c0.239,0.138,0.321,0.444,0.184,0.683l-5,8.66c-0.139,0.239-0.447,0.32-0.684,0.183l-3.325-1.92
		c-0.194-0.111-0.438-0.082-0.599,0.075c-2.552,2.479-5.703,4.301-9.112,5.266c-0.216,0.061-0.364,0.257-0.364,0.481V57
		c0,0.276-0.225,0.5-0.5,0.5H27c-0.275,0-0.5-0.224-0.5-0.5v-3.835c0-0.224-0.148-0.42-0.364-0.481
		c-3.409-0.965-6.561-2.787-9.112-5.266c-0.158-0.154-0.402-0.188-0.599-0.075l-3.325,1.92c-0.238,0.137-0.546,0.056-0.684-0.183
		l-5-8.66C7.278,40.181,7.36,39.875,7.6,39.737l3.317-1.916c0.193-0.112,0.289-0.338,0.235-0.555c-0.846-3.363-0.893-6.98,0-10.532
		c0.054-0.217-0.042-0.443-0.235-0.555L7.6,24.263c-0.239-0.138-0.321-0.444-0.184-0.683l5-8.66
		c0.138-0.239,0.445-0.322,0.684-0.183l3.325,1.92c0.193,0.111,0.438,0.082,0.599-0.075c2.552-2.479,5.703-4.301,9.112-5.266
		c0.216-0.061,0.364-0.257,0.364-0.481V7c0-0.276,0.225-0.5,0.5-0.5h10c0.275,0,0.5,0.224,0.5,0.5v3.835
		c0,0.224,0.148,0.42,0.364,0.481C41.273,12.281,44.425,14.103,46.977,16.582z"/>
	<path d="M15.5,32c0,9.098,7.402,16.5,16.5,16.5S48.5,41.098,48.5,32S41.098,15.5,32,15.5S15.5,22.902,15.5,32z M47.5,32
		c0,8.547-6.953,15.5-15.5,15.5S16.5,40.547,16.5,32S23.453,16.5,32,16.5S47.5,23.453,47.5,32z"/>
</g>
</svg>
