<?xml version="1.0" encoding="utf-8"?>
<!-- Generator: Adobe Illustrator 24.0.0, SVG Export Plug-In . SVG Version: 6.00 Build 0)  -->
<svg version="1.1" xmlns="http://www.w3.org/2000/svg" xmlns:xlink="http://www.w3.org/1999/xlink" x="0px" y="0px"
	 viewBox="0 0 64 64" enable-background="new 0 0 64 64" xml:space="preserve">
<g id="Grids" display="none">
	<g id="Grid_38_" display="inline">
		<g>
			<path fill="#FF0000" d="M51.9,4.1v55.8H12.1V4.1H51.9 M52,4H12v56h40V4L52,4z"/>
		</g>
		<g>
			<path fill="#4600F0" d="M59.9,12.1v39.8H4.1V12.1H59.9 M60,12H4v40h56V12L60,12z"/>
		</g>
		<g>
			<path fill="#F0C800" d="M55.9,8.1v47.8H8.1V8.1H55.9 M56,8H8v48h48V8L56,8z"/>
		</g>
		<g>
			<path fill="#00F096" d="M32,6.1c14.281,0,25.9,11.619,25.9,25.9S46.281,57.9,32,57.9S6.1,46.281,6.1,32S17.719,6.1,32,6.1 M32,6
				C17.641,6,6,17.641,6,32s11.641,26,26,26s26-11.641,26-26S46.359,6,32,6L32,6z"/>
		</g>
	</g>
</g>
<g id="Captions">
	<g>
	</g>
</g>
<g id="Icons">
	<g>
		<path d="M7.5,60h1V50c0-5.64,4.03-10.408,9.583-11.337l-0.165-0.986C11.881,38.687,7.5,43.869,7.5,50V60z"/>
		<path d="M56.5,50c0-6.893-5.607-12.5-12.5-12.5v1c6.341,0,11.5,5.159,11.5,11.5v10h1V50z"/>
		<path d="M25.5,36.62V40c0,3.601,2.914,6.5,6.5,6.5c3.584,0,6.5-2.916,6.5-6.5v-3.38h-1V40c0,3.033-2.467,5.5-5.5,5.5
			c-3.034,0-5.5-2.454-5.5-5.5v-3.38H25.5z"/>
		<path d="M17.751,23.894l0.498-0.867C17.17,22.406,16.5,21.247,16.5,20c0-1.265,0.682-2.423,1.747-3.025l-0.493-0.87
			C16.397,16.873,15.5,18.354,15.5,20C15.5,21.604,16.362,23.095,17.751,23.894z"/>
		<path d="M45.753,23.025l0.493,0.87C47.603,23.127,48.5,21.646,48.5,20c0-1.604-0.862-3.095-2.251-3.894l-0.498,0.867
			C46.83,17.594,47.5,18.753,47.5,20C47.5,21.265,46.818,22.423,45.753,23.025z"/>
		<path d="M44.5,24V8c0-2.481-2.019-4.5-4.5-4.5c-1.752,0-3.257,1.016-4,2.482C35.257,4.516,33.752,3.5,32,3.5h-7
			c-3.033,0-5.5,2.467-5.5,5.5v15c0,0.355,0.01,0.701,0.042,1.041C20.073,31.467,25.546,36.5,32,36.5s11.927-5.033,12.458-11.454
			C44.49,24.701,44.5,24.355,44.5,24z M40,4.5c1.93,0,3.5,1.57,3.5,3.5v15.415c-0.582-0.207-1-0.763-1-1.415v-7
			c0-0.827-0.673-1.5-1.5-1.5h-3c-0.827,0-1.5-0.673-1.5-1.5V8C36.5,6.07,38.07,4.5,40,4.5z M20.5,9c0-2.481,2.019-4.5,4.5-4.5h7
			c1.93,0,3.5,1.57,3.5,3.5v4c0,0.827-0.673,1.5-1.5,1.5H23c-0.827,0-1.5,0.673-1.5,1.5v7c0,0.652-0.418,1.208-1,1.415V9z M32,35.5
			c-5.938,0-10.973-4.63-11.462-10.546c-0.015-0.168-0.015-0.34-0.02-0.51C21.648,24.205,22.5,23.201,22.5,22v-7
			c0-0.276,0.224-0.5,0.5-0.5h11c0.821,0,1.544-0.403,2-1.015c0.456,0.613,1.179,1.015,2,1.015h3c0.276,0,0.5,0.224,0.5,0.5v7
			c0,1.201,0.852,2.205,1.982,2.445c-0.006,0.171-0.005,0.343-0.021,0.514C42.973,30.87,37.938,35.5,32,35.5z"/>
		<circle cx="27" cy="19" r="1"/>
		<circle cx="37" cy="19" r="1"/>
		<path d="M22.5,48.1V37c0-0.827-0.673-1.5-1.5-1.5s-1.5,0.673-1.5,1.5v11.1h1V37c0-0.276,0.224-0.5,0.5-0.5s0.5,0.224,0.5,0.5v11.1
			H22.5z"/>
		<path d="M21,56.5c1.93,0,3.5-1.57,3.5-3.5s-1.57-3.5-3.5-3.5s-3.5,1.57-3.5,3.5S19.07,56.5,21,56.5z M21,50.5
			c1.378,0,2.5,1.122,2.5,2.5s-1.122,2.5-2.5,2.5s-2.5-1.122-2.5-2.5S19.622,50.5,21,50.5z"/>
		<path d="M21,54.5c0.827,0,1.5-0.673,1.5-1.5s-0.673-1.5-1.5-1.5s-1.5,0.673-1.5,1.5S20.173,54.5,21,54.5z M21,52.5
			c0.276,0,0.5,0.224,0.5,0.5s-0.224,0.5-0.5,0.5s-0.5-0.224-0.5-0.5S20.724,52.5,21,52.5z"/>
		<path d="M42.5,37c0-0.827-0.673-1.5-1.5-1.5s-1.5,0.673-1.5,1.5c0,0.905,0,7.599,0,8.528c-2.247,0.25-4,2.16-4,4.472
			c0,2.223,0,2.776,0,5c0,0.827,0.673,1.5,1.5,1.5s1.5-0.673,1.5-1.5c0-2.225,0-2.776,0-5c0-0.827,0.673-1.5,1.5-1.5h2
			c0.827,0,1.5,0.673,1.5,1.5c0,2.223,0,2.776,0,5c0,0.827,0.673,1.5,1.5,1.5s1.5-0.673,1.5-1.5c0-2.225,0-2.776,0-5
			c0-2.313-1.753-4.223-4-4.472C42.5,44.599,42.5,37.905,42.5,37z M41,36.5c0.276,0,0.5,0.224,0.5,0.5v2.5h-1V37
			C40.5,36.724,40.724,36.5,41,36.5z M37.5,55c0,0.276-0.224,0.5-0.5,0.5s-0.5-0.224-0.5-0.5v-0.5h1V55z M45.5,55
			c0,0.276-0.224,0.5-0.5,0.5s-0.5-0.224-0.5-0.5v-0.5h1V55z M45.5,50v3.5h-1V50c0-1.378-1.122-2.5-2.5-2.5h-2
			c-1.378,0-2.5,1.122-2.5,2.5v3.5h-1V50c0-1.93,1.57-3.5,3.5-3.5c0.276,0,0.5-0.224,0.5-0.5v-5.5h1V46c0,0.276,0.224,0.5,0.5,0.5
			C43.93,46.5,45.5,48.07,45.5,50z"/>
		<rect x="31.5" y="20" width="1" height="4"/>
		<path d="M32,29.5c-1.93,0-3.5-1.57-3.5-3.5h-1c0,2.481,2.019,4.5,4.5,4.5s4.5-2.019,4.5-4.5h-1C35.5,27.93,33.93,29.5,32,29.5z"/>
		<rect x="13.5" y="52" width="1" height="8"/>
		<rect x="49.5" y="52" width="1" height="8"/>
	</g>
</g>
</svg>
