<?xml version="1.0" encoding="utf-8"?>
<!-- Generator: Adobe Illustrator 24.0.0, SVG Export Plug-In . SVG Version: 6.00 Build 0)  -->
<svg version="1.1" xmlns="http://www.w3.org/2000/svg" xmlns:xlink="http://www.w3.org/1999/xlink" x="0px" y="0px"
	 viewBox="0 0 64 64" enable-background="new 0 0 64 64" xml:space="preserve">
<g id="Grids" display="none">
	<g id="Grid_8_" display="inline">
		<g>
			<path fill="#FF0000" d="M51.9,4.1v55.8H12.1V4.1H51.9 M52,4H12v56h40V4L52,4z"/>
		</g>
		<g>
			<path fill="#4600F0" d="M59.9,12.1v39.8H4.1V12.1H59.9 M60,12H4v40h56V12L60,12z"/>
		</g>
		<g>
			<path fill="#F0C800" d="M55.9,8.1v47.8H8.1V8.1H55.9 M56,8H8v48h48V8L56,8z"/>
		</g>
		<g>
			<path fill="#00F096" d="M32,6.1c14.281,0,25.9,11.619,25.9,25.9S46.281,57.9,32,57.9S6.1,46.281,6.1,32S17.719,6.1,32,6.1 M32,6
				C17.641,6,6,17.641,6,32s11.641,26,26,26s26-11.641,26-26S46.359,6,32,6L32,6z"/>
		</g>
	</g>
</g>
<g id="Captions">
	<g>
	</g>
</g>
<g id="Icons">
	<g>
		<path d="M45.5,36.41V10c0-1.378-1.122-2.5-2.5-2.5H21c-1.378,0-2.5,1.122-2.5,2.5v26.41h1V10c0-0.827,0.673-1.5,1.5-1.5h22
			c0.827,0,1.5,0.673,1.5,1.5v26.41H45.5z"/>
		<path d="M37.5,42.5h1.67v-1H37c-0.276,0-0.5,0.224-0.5,0.5v3c0,1.379-1.122,2.5-2.5,2.5h-4c-1.379,0-2.5-1.122-2.5-2.5v-3
			c0-0.276-0.224-0.5-0.5-0.5h-2.17v1h1.67V45c0,1.932,1.569,3.5,3.5,3.5h4c1.932,0,3.5-1.569,3.5-3.5V42.5z"/>
		<path d="M43.5,38.17V11c0-0.827-0.673-1.5-1.5-1.5H22c-0.827,0-1.5,0.673-1.5,1.5v4c0,0.827,0.673,1.5,1.5,1.5h1
			c0.276,0,0.5,0.224,0.5,0.5s-0.224,0.5-0.5,0.5h-1c-0.827,0-1.5,0.673-1.5,1.5v4c0,0.827,0.673,1.5,1.5,1.5h1
			c0.276,0,0.5,0.224,0.5,0.5s-0.224,0.5-0.5,0.5h-1c-0.827,0-1.5,0.673-1.5,1.5v4c0,0.827,0.673,1.5,1.5,1.5h1
			c0.276,0,0.5,0.224,0.5,0.5s-0.224,0.5-0.5,0.5h-1c-0.827,0-1.5,0.673-1.5,1.5v3.17h1V35c0-0.276,0.224-0.5,0.5-0.5h1
			c0.827,0,1.5-0.673,1.5-1.5s-0.673-1.5-1.5-1.5h-1c-0.276,0-0.5-0.224-0.5-0.5v-4c0-0.276,0.224-0.5,0.5-0.5h1
			c0.827,0,1.5-0.673,1.5-1.5s-0.673-1.5-1.5-1.5h-1c-0.276,0-0.5-0.224-0.5-0.5v-4c0-0.276,0.224-0.5,0.5-0.5h1
			c0.827,0,1.5-0.673,1.5-1.5s-0.673-1.5-1.5-1.5h-1c-0.276,0-0.5-0.224-0.5-0.5v-4c0-0.276,0.224-0.5,0.5-0.5h20
			c0.276,0,0.5,0.224,0.5,0.5v27.17H43.5z"/>
		<path d="M41.17,39.5H37c-1.378,0-2.5,1.122-2.5,2.5v3c0,0.276-0.224,0.5-0.5,0.5h-4c-0.276,0-0.5-0.224-0.5-0.5v-3
			c0-1.378-1.122-2.5-2.5-2.5h-4.17v1H27c0.827,0,1.5,0.673,1.5,1.5v3c0,0.827,0.673,1.5,1.5,1.5h4c0.827,0,1.5-0.673,1.5-1.5v-3
			c0-0.827,0.673-1.5,1.5-1.5h4.17V39.5z"/>
		<path d="M29.5,50v4c0,1.378,1.122,2.5,2.5,2.5s2.5-1.122,2.5-2.5v-4h-1v4c0,0.827-0.673,1.5-1.5,1.5s-1.5-0.673-1.5-1.5v-4H29.5z"
			/>
		<path d="M33.06,29.583l4.381-4.381c1.293-1.293,1.288-3.382,0-4.67c-1.284-1.286-3.378-1.288-4.667-0.004L31.999,21.3
			l-0.768-0.768c-1.285-1.287-3.38-1.288-4.669-0.001c-1.293,1.289-1.296,3.381-0.003,4.673l4.379,4.379
			C31.523,30.167,32.475,30.167,33.06,29.583z M27.27,21.237c0.893-0.891,2.355-0.897,3.254,0.002l1.121,1.121
			c0.195,0.195,0.511,0.195,0.707,0l1.128-1.125c0.897-0.895,2.357-0.894,3.254,0.003c0.897,0.897,0.897,2.358,0,3.256l-4.381,4.381
			c-0.195,0.196-0.512,0.195-0.708,0l-4.379-4.379C26.366,23.595,26.365,22.14,27.27,21.237z"/>
		<path d="M57.583,33.534c-1.188,0.194-2.083,1.3-2.083,2.573v5.271c0,0.176-0.094,0.342-0.246,0.431l-7.157,4.216
			c-0.555,0.326-1.253,0.174-1.628-0.352c-0.34-0.478-0.246-1.19,0.22-1.656l2.185-2.185c1.09-1.09,1.013-2.896-0.2-3.888
			c-1.026-0.838-2.604-0.723-3.593,0.266l-5.677,5.677c-1.228,1.228-1.904,2.86-1.904,4.596V56h1v-7.515
			c0-1.469,0.572-2.85,1.611-3.889l5.677-5.677c0.63-0.63,1.62-0.717,2.253-0.199c0.772,0.63,0.784,1.748,0.125,2.406l-2.185,2.185
			c-0.807,0.807-0.947,2.071-0.327,2.943c0.677,0.951,1.944,1.225,2.95,0.633l7.157-4.216c0.456-0.269,0.738-0.764,0.738-1.292
			v-5.271c0-0.789,0.535-1.471,1.244-1.586C58.699,34.362,59.5,35.1,59.5,36v6.939c0,0.503-0.25,0.97-0.669,1.249l-9.771,6.506
			c-0.977,0.651-1.56,1.74-1.56,2.913V56h1v-2.394c0-0.838,0.417-1.616,1.115-2.081l9.771-6.505
			c0.698-0.464,1.115-1.242,1.115-2.081V36C60.5,34.47,59.135,33.284,57.583,33.534z"/>
		<path d="M4.614,45.02l9.771,6.506c0.698,0.465,1.115,1.243,1.115,2.081V56h1v-2.394c0-1.173-0.583-2.262-1.56-2.913l-9.771-6.506
			C4.75,43.909,4.5,43.442,4.5,42.939V36c0-0.896,0.793-1.634,1.755-1.479C6.965,34.636,7.5,35.318,7.5,36.107v5.271
			c0,0.529,0.283,1.024,0.738,1.292l7.158,4.217c1.004,0.591,2.271,0.319,2.949-0.634c0.62-0.872,0.479-2.136-0.327-2.943
			l-2.185-2.185c-0.658-0.658-0.646-1.776,0.125-2.406c0.633-0.519,1.623-0.432,2.253,0.199l5.677,5.677
			c1.039,1.039,1.611,2.42,1.611,3.889V56h1v-7.515c0-1.736-0.676-3.369-1.904-4.596l-5.677-5.677
			c-0.989-0.989-2.567-1.105-3.593-0.266c-1.214,0.993-1.289,2.799-0.2,3.888l2.185,2.185c0.465,0.466,0.56,1.178,0.22,1.656
			c-0.375,0.526-1.074,0.677-1.627,0.352L8.746,41.81C8.594,41.72,8.5,41.555,8.5,41.378v-5.271c0-1.273-0.896-2.379-2.084-2.573
			C4.863,33.285,3.5,34.471,3.5,36v6.939C3.5,43.778,3.917,44.556,4.614,45.02z"/>
	</g>
</g>
</svg>
