<?xml version="1.0" encoding="utf-8"?>
<!-- Generator: Adobe Illustrator 24.0.0, SVG Export Plug-In . SVG Version: 6.00 Build 0)  -->
<svg version="1.1" xmlns="http://www.w3.org/2000/svg" xmlns:xlink="http://www.w3.org/1999/xlink" x="0px" y="0px"
	 viewBox="0 0 64 64" enable-background="new 0 0 64 64" xml:space="preserve">
<g id="Grids" display="none">
	<g id="Grid_26_" display="inline">
		<g>
			<path fill="#FF0000" d="M51.9,4.1v55.8H12.1V4.1H51.9 M52,4H12v56h40V4L52,4z"/>
		</g>
		<g>
			<path fill="#4600F0" d="M59.9,12.1v39.8H4.1V12.1H59.9 M60,12H4v40h56V12L60,12z"/>
		</g>
		<g>
			<path fill="#F0C800" d="M55.9,8.1v47.8H8.1V8.1H55.9 M56,8H8v48h48V8L56,8z"/>
		</g>
		<g>
			<path fill="#00F096" d="M32,6.1c14.281,0,25.9,11.619,25.9,25.9S46.281,57.9,32,57.9S6.1,46.281,6.1,32S17.719,6.1,32,6.1 M32,6
				C17.641,6,6,17.641,6,32s11.641,26,26,26s26-11.641,26-26S46.359,6,32,6L32,6z"/>
		</g>
	</g>
</g>
<g id="Captions">
	<g>
	</g>
</g>
<g id="Icons">
	<g>
		<path d="M43,25.5c-0.827,0-1.5,0.673-1.5,1.5v11.17h1V27c0-0.275,0.225-0.5,0.5-0.5h1c2.481,0,4.5-2.019,4.5-4.5v-4h-1v4
			c0,1.76-1.306,3.221-3,3.465c0-4.218,0-3.288,0-7.465h-1v3.5H42v1h1.5v3H43z"/>
		<path d="M30.001,12.501c-0.574-0.765-1.508-1.114-2.417-0.967c-0.405,0.066-0.771,0.244-1.084,0.492V10h-1c0,6.459,0,4.168,0,7.5
			c-1.086,0-1.914,0-3,0V10h-1c0,5.79,0,10.21,0,16h1v-7.5c1.359,0-1.301,0,1.589,0c-0.367,0.435-0.589,0.995-0.589,1.607
			c0,1.213,0.868,2.227,2.016,2.453c0.233,3.373,3.053,6.047,6.484,6.047s6.251-2.674,6.484-6.047
			c1.147-0.227,2.016-1.24,2.016-2.453c0-1.207-0.86-2.218-2-2.45v-1.55V13c0-0.827-0.673-1.5-1.5-1.5h-5
			C31.184,11.5,30.457,11.894,30.001,12.501z M26.5,16.607h1.092c-0.056,0.157-0.092,0.324-0.092,0.5v3c0,0.652-0.418,1.208-1,1.414
			C26.5,17.817,26.5,18.726,26.5,16.607z M24.5,20.107c0-0.651,0.419-1.201,1-1.408v2.816C24.919,21.308,24.5,20.758,24.5,20.107z
			 M32,27.607c-2.883,0-5.25-2.232-5.478-5.057c1.128-0.241,1.978-1.244,1.978-2.443v-3c0-0.275,0.225-0.5,0.5-0.5h6
			c0.275,0,0.5,0.225,0.5,0.5v3c0,1.2,0.849,2.202,1.978,2.443C37.25,25.376,34.883,27.607,32,27.607z M37.5,18.107v3.414
			c-0.582-0.206-1-0.762-1-1.414v-3c0-0.176-0.036-0.343-0.092-0.5H37.5V18.107z M39.5,20.107c0,0.651-0.419,1.201-1,1.408V18.7
			C39.081,18.907,39.5,19.456,39.5,20.107z M32,12.5h5c0.275,0,0.5,0.225,0.5,0.5v2.607c-4.574,0-5.685,0-11,0v-1.5
			c0-0.789,0.535-1.471,1.244-1.587C28.723,12.368,29.5,13.114,29.5,14c0,0.276,0.224,0.5,0.5,0.5s0.5-0.224,0.5-0.5
			C30.5,13.173,31.173,12.5,32,12.5z"/>
		<path d="M22.5,50c0-0.827,0.673-1.5,1.5-1.5h16c0.827,0,1.5,0.673,1.5,1.5v2c0,0.276,0.224,0.5,0.5,0.5h7
			c0.827,0,1.5-0.673,1.5-1.5v-1c0-5.79-4.71-10.5-10.5-10.5H24c-5.79,0-10.5,4.71-10.5,10.5v1c0,0.827,0.673,1.5,1.5,1.5h7
			c0.276,0,0.5-0.224,0.5-0.5V50z M21.5,50v1.5H15c-0.275,0-0.5-0.225-0.5-0.5v-1c0-5.238,4.262-9.5,9.5-9.5h16
			c5.238,0,9.5,4.262,9.5,9.5v1c0,0.275-0.225,0.5-0.5,0.5h-6.5V50c0-1.379-1.121-2.5-2.5-2.5H24C22.621,47.5,21.5,48.621,21.5,50z"
			/>
		<circle cx="29.5" cy="19.5" r="0.5"/>
		<circle cx="34.5" cy="19.5" r="0.5"/>
		<path d="M32,22.5c0.276,0,0.5-0.224,0.5-0.5v-2c0-0.276-0.224-0.5-0.5-0.5s-0.5,0.224-0.5,0.5v2C31.5,22.276,31.724,22.5,32,22.5z
			"/>
		<path d="M34,22c-0.276,0-0.5,0.224-0.5,0.5c0,0.827-0.673,1.5-1.5,1.5s-1.5-0.673-1.5-1.5c0-0.276-0.224-0.5-0.5-0.5
			s-0.5,0.224-0.5,0.5c0,1.379,1.122,2.5,2.5,2.5c1.379,0,2.5-1.121,2.5-2.5C34.5,22.224,34.276,22,34,22z"/>
		<path d="M30.74,31.371l-1.819,2.814c-0.643,0.992,0.067,2.314,1.26,2.314h3.639c1.192,0,1.903-1.323,1.26-2.314l-1.819-2.814
			C32.705,30.514,31.295,30.512,30.74,31.371z M33.819,35.5h-3.639c-0.396,0-0.636-0.436-0.42-0.771l1.819-2.814
			c0.197-0.306,0.643-0.306,0.84,0l1.819,2.814C34.456,35.064,34.215,35.5,33.819,35.5z"/>
		<path d="M15.5,54v1.54c-1.72,0.192-3.198,1.348-3.763,3.015c-0.328,0.967,0.436,1.945,1.436,1.945H21c0.827,0,1.5-0.673,1.5-1.5
			v-3v-2h-1v1.5h-5V54H15.5z M21.5,56.5V59c0,0.275-0.225,0.5-0.5,0.5h-7.827c-0.328,0-0.592-0.318-0.488-0.624
			C13.166,57.455,14.499,56.5,16,56.5H21.5z"/>
		<path d="M41.5,54v2v3c0,0.827,0.673,1.5,1.5,1.5h7.827c1.006,0,1.762-0.984,1.436-1.944c-0.565-1.668-2.043-2.824-3.763-3.016V54
			h-1v1.5h-5V54H41.5z M48,56.5c1.501,0,2.834,0.955,3.315,2.377c0.104,0.305-0.162,0.623-0.488,0.623H43
			c-0.275,0-0.5-0.225-0.5-0.5v-2.5H48z"/>
		<path d="M19,3.5c-0.827,0-1.5,0.673-1.5,1.5v4c0,0.827,0.673,1.5,1.5,1.5s1.5-0.673,1.5-1.5V8.5h7V9c0,0.827,0.673,1.5,1.5,1.5
			s1.5-0.673,1.5-1.5V5c0-0.827-0.673-1.5-1.5-1.5S27.5,4.173,27.5,5v0.5h-1.092C26.464,5.343,26.5,5.176,26.5,5
			c0-0.827-0.673-1.5-1.5-1.5h-2c-0.827,0-1.5,0.673-1.5,1.5c0,0.176,0.036,0.343,0.092,0.5H20.5V5C20.5,4.173,19.827,3.5,19,3.5z
			 M22.5,5c0-0.275,0.225-0.5,0.5-0.5h2c0.275,0,0.5,0.225,0.5,0.5S25.275,5.5,25,5.5h-2C22.725,5.5,22.5,5.275,22.5,5z M28,6.5
			c0.276,0,0.5-0.224,0.5-0.5V5c0-0.275,0.225-0.5,0.5-0.5s0.5,0.225,0.5,0.5v4c0,0.275-0.225,0.5-0.5,0.5S28.5,9.275,28.5,9V8
			c0-0.276-0.224-0.5-0.5-0.5h-8c-0.276,0-0.5,0.224-0.5,0.5v1c0,0.275-0.225,0.5-0.5,0.5S18.5,9.275,18.5,9V5
			c0-0.275,0.225-0.5,0.5-0.5s0.5,0.225,0.5,0.5v1c0,0.276,0.224,0.5,0.5,0.5C22.943,6.5,25.088,6.5,28,6.5z"/>
		<path d="M52.5,13c0-0.827-0.673-1.5-1.5-1.5s-1.5,0.673-1.5,1.5v0.5h-1.092c0.056-0.157,0.092-0.324,0.092-0.5
			c0-0.827-0.673-1.5-1.5-1.5h-2c-0.827,0-1.5,0.673-1.5,1.5c0,0.176,0.036,0.343,0.092,0.5H42.5V13c0-0.827-0.673-1.5-1.5-1.5
			s-1.5,0.673-1.5,1.5v4c0,0.827,0.673,1.5,1.5,1.5s1.5-0.673,1.5-1.5v-0.5h7V17c0,0.827,0.673,1.5,1.5,1.5s1.5-0.673,1.5-1.5V13z
			 M44.5,13c0-0.275,0.225-0.5,0.5-0.5h2c0.275,0,0.5,0.225,0.5,0.5s-0.225,0.5-0.5,0.5h-2C44.725,13.5,44.5,13.275,44.5,13z
			 M51.5,17c0,0.275-0.225,0.5-0.5,0.5s-0.5-0.225-0.5-0.5v-1c0-0.276-0.224-0.5-0.5-0.5h-8c-0.276,0-0.5,0.224-0.5,0.5v1
			c0,0.275-0.225,0.5-0.5,0.5s-0.5-0.225-0.5-0.5v-4c0-0.275,0.225-0.5,0.5-0.5s0.5,0.225,0.5,0.5v1c0,0.276,0.224,0.5,0.5,0.5
			c2.943,0,5.088,0,8,0c0.276,0,0.5-0.224,0.5-0.5v-1c0-0.275,0.225-0.5,0.5-0.5s0.5,0.225,0.5,0.5V17z"/>
		<path d="M36.354,8.354l0.707-0.707c0.585-0.585,0.585-1.536,0-2.121c-0.584-0.584-1.537-0.584-2.121,0
			c-0.585,0.585-0.585,1.536,0,2.121l0.707,0.707C35.842,8.549,36.158,8.549,36.354,8.354z M35.646,6.232
			c0.195-0.195,0.512-0.195,0.707,0c0.195,0.195,0.195,0.512,0,0.707L36,7.293l-0.354-0.354C35.451,6.744,35.451,6.428,35.646,6.232
			z"/>
		<path d="M39,10.5c0.827,0,1.5-0.673,1.5-1.5S39.827,7.5,39,7.5S37.5,8.173,37.5,9v1c0,0.276,0.224,0.5,0.5,0.5H39z M38.5,9
			c0-0.275,0.225-0.5,0.5-0.5s0.5,0.225,0.5,0.5S39.275,9.5,39,9.5h-0.5V9z"/>
		<path d="M34,10.5c0.276,0,0.5-0.224,0.5-0.5V9c0-0.827-0.673-1.5-1.5-1.5S31.5,8.173,31.5,9s0.673,1.5,1.5,1.5H34z M32.5,9
			c0-0.275,0.225-0.5,0.5-0.5s0.5,0.225,0.5,0.5v0.5H33C32.725,9.5,32.5,9.275,32.5,9z"/>
		<path d="M18.643,34.854l3-3l-0.707-0.707l-2.646,2.646l-1.225-1.225l-0.707,0.707l1.578,1.578
			C18.131,35.049,18.447,35.049,18.643,34.854z"/>
		<path d="M13.5,33c0,3.032,2.468,5.5,5.5,5.5s5.5-2.468,5.5-5.5c0-0.941-0.241-1.859-0.7-2.679l0.918-0.918
			c0.588-0.586,0.585-1.536,0-2.121c-0.559-0.559-1.356-0.439-1.062-0.439c-0.401,0-0.777,0.156-1.06,0.439L21.679,28.2
			c-0.819-0.459-1.737-0.7-2.679-0.7C15.968,27.5,13.5,29.968,13.5,33z M19,28.5c0.882,0,1.738,0.259,2.478,0.749
			c0.199,0.13,0.461,0.104,0.63-0.063l1.196-1.196c0.196-0.196,0.512-0.195,0.707,0c0.193,0.193,0.198,0.509,0,0.707l-1.196,1.196
			c-0.168,0.168-0.194,0.432-0.063,0.63C23.241,31.262,23.5,32.118,23.5,33c0,2.481-2.019,4.5-4.5,4.5s-4.5-2.019-4.5-4.5
			S16.519,28.5,19,28.5z"/>
	</g>
</g>
</svg>
