<?xml version="1.0" encoding="utf-8"?>
<!-- Generator: Adobe Illustrator 24.0.0, SVG Export Plug-In . SVG Version: 6.00 Build 0)  -->
<svg version="1.1" xmlns="http://www.w3.org/2000/svg" xmlns:xlink="http://www.w3.org/1999/xlink" x="0px" y="0px"
	 viewBox="0 0 64 64" enable-background="new 0 0 64 64" xml:space="preserve">
<g id="Grids" display="none">
	<g id="Grid_48_" display="inline">
		<g>
			<path fill="#FF0000" d="M51.9,4.1v55.8H12.1V4.1H51.9 M52,4H12v56h40V4L52,4z"/>
		</g>
		<g>
			<path fill="#4600F0" d="M59.9,12.1v39.8H4.1V12.1H59.9 M60,12H4v40h56V12L60,12z"/>
		</g>
		<g>
			<path fill="#F0C800" d="M55.9,8.1v47.8H8.1V8.1H55.9 M56,8H8v48h48V8L56,8z"/>
		</g>
		<g>
			<path fill="#00F096" d="M32,6.1c14.281,0,25.9,11.619,25.9,25.9S46.281,57.9,32,57.9S6.1,46.281,6.1,32S17.719,6.1,32,6.1 M32,6
				C17.641,6,6,17.641,6,32s11.641,26,26,26s26-11.641,26-26S46.359,6,32,6L32,6z"/>
		</g>
	</g>
</g>
<g id="Captions">
	<g>
	</g>
</g>
<g id="Icons">
	<g>
		<path d="M11.5,8v18.39c0,5.62,2.335,11.038,6.408,14.864l0.685-0.729C14.721,36.887,12.5,31.735,12.5,26.39V8
			c0-1.93,1.57-3.5,3.5-3.5h32c1.93,0,3.5,1.57,3.5,3.5v18.39c0,5.341-2.221,10.498-6.093,14.146l0.686,0.728
			c4.072-3.836,6.407-9.258,6.407-14.874V8c0-2.481-2.019-4.5-4.5-4.5H16C13.519,3.5,11.5,5.519,11.5,8z"/>
		<path d="M21.067,40.053l9.995,7.996c0.548,0.439,1.326,0.439,1.875,0l9.995-7.996c4.174-3.339,6.567-8.32,6.567-13.665V8
			c0-0.827-0.673-1.5-1.5-1.5H16c-0.827,0-1.5,0.673-1.5,1.5v18.388C14.5,31.733,16.894,36.714,21.067,40.053z M15.5,8
			c0-0.276,0.224-0.5,0.5-0.5h32c0.276,0,0.5,0.224,0.5,0.5v18.388c0,5.04-2.257,9.736-6.192,12.884l-9.995,7.997
			c-0.182,0.146-0.443,0.146-0.625,0l-9.995-7.996c-3.936-3.148-6.192-7.844-6.192-12.884V8z"/>
		<path d="M45.816,24.989c0.5-0.564,0.5-1.415,0-1.979C43.813,20.752,38.458,15.5,32,15.5s-11.813,5.252-13.816,7.511
			c-0.5,0.564-0.5,1.415,0,1.979C20.187,27.248,25.542,32.5,32,32.5S43.813,27.248,45.816,24.989z M24.5,24
			c0-4.161,3.392-7.5,7.5-7.5c4.115,0,7.5,3.347,7.5,7.5c0,4.161-3.392,7.5-7.5,7.5C27.885,31.5,24.5,28.153,24.5,24z
			 M45.068,23.674c0.165,0.186,0.165,0.466,0,0.652c-0.962,1.084-3.531,3.744-6.898,5.502c1.44-1.523,2.33-3.572,2.33-5.829
			s-0.89-4.305-2.33-5.829C41.537,19.93,44.107,22.59,45.068,23.674z M18.932,24.326c-0.165-0.186-0.165-0.466,0-0.652
			c0.962-1.084,3.531-3.744,6.898-5.502C24.39,19.695,23.5,21.743,23.5,24s0.89,4.305,2.33,5.829
			C22.463,28.07,19.893,25.41,18.932,24.326z"/>
		<path d="M36.5,24c0-1.769-1.042-3.377-2.656-4.097l-0.407,0.913C34.69,21.376,35.5,22.625,35.5,24c0,1.93-1.57,3.5-3.5,3.5
			c-1.375,0-2.624-0.81-3.184-2.063l-0.913,0.407C28.623,27.458,30.231,28.5,32,28.5C34.481,28.5,36.5,26.481,36.5,24z"/>
		<path d="M34,37.5h-0.5V37c0-0.827-0.673-1.5-1.5-1.5s-1.5,0.673-1.5,1.5v0.5H30c-0.827,0-1.5,0.673-1.5,1.5s0.673,1.5,1.5,1.5h0.5
			V41c0,0.827,0.673,1.5,1.5,1.5s1.5-0.673,1.5-1.5v-0.5H34c0.827,0,1.5-0.673,1.5-1.5S34.827,37.5,34,37.5z M34,39.5h-1
			c-0.276,0-0.5,0.224-0.5,0.5v1c0,0.276-0.224,0.5-0.5,0.5s-0.5-0.224-0.5-0.5v-1c0-0.276-0.224-0.5-0.5-0.5h-1
			c-0.276,0-0.5-0.224-0.5-0.5s0.224-0.5,0.5-0.5h1c0.276,0,0.5-0.224,0.5-0.5v-1c0-0.276,0.224-0.5,0.5-0.5s0.5,0.224,0.5,0.5v1
			c0,0.276,0.224,0.5,0.5,0.5h1c0.276,0,0.5,0.224,0.5,0.5S34.276,39.5,34,39.5z"/>
		<path d="M41,16.5h0.5V17c0,0.827,0.673,1.5,1.5,1.5s1.5-0.673,1.5-1.5v-0.5H45c0.827,0,1.5-0.673,1.5-1.5s-0.673-1.5-1.5-1.5h-0.5
			V13c0-0.827-0.673-1.5-1.5-1.5s-1.5,0.673-1.5,1.5v0.5H41c-0.827,0-1.5,0.673-1.5,1.5S40.173,16.5,41,16.5z M41,14.5h1
			c0.276,0,0.5-0.224,0.5-0.5v-1c0-0.276,0.224-0.5,0.5-0.5s0.5,0.224,0.5,0.5v1c0,0.276,0.224,0.5,0.5,0.5h1
			c0.276,0,0.5,0.224,0.5,0.5s-0.224,0.5-0.5,0.5h-1c-0.276,0-0.5,0.224-0.5,0.5v1c0,0.276-0.224,0.5-0.5,0.5s-0.5-0.224-0.5-0.5v-1
			c0-0.276-0.224-0.5-0.5-0.5h-1c-0.276,0-0.5-0.224-0.5-0.5S40.724,14.5,41,14.5z"/>
		<path d="M19,16.5h0.5V17c0,0.827,0.673,1.5,1.5,1.5s1.5-0.673,1.5-1.5v-0.5H23c0.827,0,1.5-0.673,1.5-1.5s-0.673-1.5-1.5-1.5h-0.5
			V13c0-0.827-0.673-1.5-1.5-1.5s-1.5,0.673-1.5,1.5v0.5H19c-0.827,0-1.5,0.673-1.5,1.5S18.173,16.5,19,16.5z M19,14.5h1
			c0.276,0,0.5-0.224,0.5-0.5v-1c0-0.276,0.224-0.5,0.5-0.5s0.5,0.224,0.5,0.5v1c0,0.276,0.224,0.5,0.5,0.5h1
			c0.276,0,0.5,0.224,0.5,0.5s-0.224,0.5-0.5,0.5h-1c-0.276,0-0.5,0.224-0.5,0.5v1c0,0.276-0.224,0.5-0.5,0.5s-0.5-0.224-0.5-0.5v-1
			c0-0.276-0.224-0.5-0.5-0.5h-1c-0.276,0-0.5-0.224-0.5-0.5S18.724,14.5,19,14.5z"/>
		<path d="M7.5,46.94c0,0.839,0.417,1.616,1.113,2.076l9.77,6.51c0.7,0.466,1.117,1.246,1.117,2.084V60h1v-2.39
			c0-1.173-0.584-2.264-1.563-2.916l-9.771-6.511C8.749,47.907,8.5,47.443,8.5,46.94V40c0-0.9,0.802-1.64,1.759-1.477
			c0.708,0.115,1.241,0.797,1.241,1.586v5.27c0,0.524,0.281,1.018,0.736,1.291l7.159,4.219c0.988,0.585,2.286,0.304,2.952-0.64
			c0.621-0.869,0.477-2.134-0.333-2.944l-2.18-2.18c-0.661-0.661-0.649-1.778,0.123-2.409c0.635-0.518,1.628-0.427,2.26,0.206
			l5.156,5.156c0.948,0.941,2.127,2.113,2.127,4.411V60h1v-7.51c0-2.714-1.4-4.105-2.423-5.121l-5.154-5.153
			c-0.991-0.991-2.572-1.11-3.6-0.273c-1.216,0.995-1.288,2.8-0.197,3.891l2.18,2.18c0.469,0.468,0.566,1.18,0.225,1.658
			c-0.37,0.522-1.083,0.68-1.628,0.358l-7.156-4.218c-0.15-0.09-0.248-0.26-0.248-0.432v-5.27c0-1.273-0.894-2.38-2.078-2.573
			C8.867,37.277,7.5,38.472,7.5,40V46.94z"/>
		<path d="M56.5,40c0-1.524-1.36-2.72-2.92-2.464c-1.186,0.194-2.08,1.3-2.08,2.574v5.27c0,0.172-0.097,0.341-0.244,0.43
			l-7.161,4.22c-0.542,0.32-1.257,0.164-1.628-0.36c-0.339-0.476-0.242-1.188,0.227-1.656l2.18-2.18
			c1.091-1.091,1.018-2.896-0.198-3.891c-1.028-0.837-2.608-0.717-3.599,0.274l-5.126,5.126c-1.034,1.029-2.45,2.439-2.45,5.147V60
			h1v-7.51c0-2.292,1.195-3.483,2.156-4.439l5.128-5.128c0.633-0.632,1.625-0.723,2.26-0.206c0.769,0.629,0.788,1.744,0.123,2.409
			l-2.18,2.18c-0.81,0.81-0.954,2.075-0.334,2.942c0.667,0.945,1.964,1.227,2.952,0.642l7.163-4.222
			c0.452-0.271,0.733-0.765,0.733-1.289v-5.27c0-0.789,0.533-1.471,1.242-1.587C54.718,38.364,55.5,39.112,55.5,40v6.94
			c0,0.503-0.249,0.967-0.667,1.244l-9.77,6.51c-0.979,0.652-1.562,1.743-1.562,2.916V60h1v-2.39c0-0.838,0.417-1.618,1.117-2.084
			l9.769-6.509c0.698-0.461,1.114-1.238,1.114-2.077V40z"/>
		<path d="M30,24.5c1.378,0,2.5-1.122,2.5-2.5s-1.122-2.5-2.5-2.5s-2.5,1.122-2.5,2.5S28.622,24.5,30,24.5z M30,20.5
			c0.827,0,1.5,0.673,1.5,1.5s-0.673,1.5-1.5,1.5s-1.5-0.673-1.5-1.5S29.173,20.5,30,20.5z"/>
	</g>
</g>
</svg>
