<?xml version="1.0" encoding="utf-8"?>
<!-- Generator: Adobe Illustrator 24.0.0, SVG Export Plug-In . SVG Version: 6.00 Build 0)  -->
<svg version="1.1" xmlns="http://www.w3.org/2000/svg" xmlns:xlink="http://www.w3.org/1999/xlink" x="0px" y="0px"
	 viewBox="0 0 64 64" enable-background="new 0 0 64 64" xml:space="preserve">
<g id="Grids" display="none">
	<g id="Grid_46_" display="inline">
		<g>
			<path fill="#FF0000" d="M51.9,4.1v55.8H12.1V4.1H51.9 M52,4H12v56h40V4L52,4z"/>
		</g>
		<g>
			<path fill="#4600F0" d="M59.9,12.1v39.8H4.1V12.1H59.9 M60,12H4v40h56V12L60,12z"/>
		</g>
		<g>
			<path fill="#F0C800" d="M55.9,8.1v47.8H8.1V8.1H55.9 M56,8H8v48h48V8L56,8z"/>
		</g>
		<g>
			<path fill="#00F096" d="M32,6.1c14.281,0,25.9,11.619,25.9,25.9S46.281,57.9,32,57.9S6.1,46.281,6.1,32S17.719,6.1,32,6.1 M32,6
				C17.641,6,6,17.641,6,32s11.641,26,26,26s26-11.641,26-26S46.359,6,32,6L32,6z"/>
		</g>
	</g>
</g>
<g id="Captions">
	<g>
	</g>
</g>
<g id="Icons">
	<g>
		<path d="M54.5,18.34V10.5h0.427c0.827,0,1.5-0.673,1.5-1.5V7c0-0.827-0.673-1.5-1.5-1.5h-8c-0.827,0-1.5,0.673-1.5,1.5v2
			c0,0.827,0.673,1.5,1.5,1.5H47.5v1.85h1V10.5h5v7.84H54.5z M46.427,9V7c0-0.276,0.225-0.5,0.5-0.5h8c0.275,0,0.5,0.224,0.5,0.5v2
			c0,0.276-0.225,0.5-0.5,0.5h-8C46.651,9.5,46.427,9.276,46.427,9z"/>
		<path d="M56.5,51V31.34h-1V51c0,0.276-0.225,0.5-0.5,0.5h-3.125v1H55C55.827,52.5,56.5,51.827,56.5,51z"/>
		<path d="M52.916,37v-6c0-0.827-0.673-1.5-1.5-1.5h-4c-0.827,0-1.5,0.673-1.5,1.5v6c0,0.827,0.673,1.5,1.5,1.5h4
			C52.243,38.5,52.916,37.827,52.916,37z M51.916,37c0,0.276-0.225,0.5-0.5,0.5h-4c-0.275,0-0.5-0.224-0.5-0.5v-6
			c0-0.276,0.225-0.5,0.5-0.5h4c0.275,0,0.5,0.224,0.5,0.5V37z"/>
		<path d="M29.92,31v2.99h1V31c0-0.28,0.22-0.5,0.5-0.5h10c0.275,0,0.5,0.224,0.5,0.5v3h1v-3c0-0.827-0.673-1.5-1.5-1.5h-10
			C30.593,29.5,29.92,30.173,29.92,31z"/>
		<path d="M26.92,33.99V31c0-0.827-0.673-1.5-1.5-1.5h-4c-0.827,0-1.5,0.673-1.5,1.5v2.99h1V31c0-0.28,0.22-0.5,0.5-0.5h4
			c0.275,0,0.5,0.224,0.5,0.5v2.99H26.92z"/>
		<path d="M58.233,29.648l1.41-1.41c0.587-0.586,0.587-1.54,0.002-2.125L37.764,4.231c-0.943-0.943-2.583-0.943-3.526,0
			L12.355,26.113c-0.587,0.588-0.587,1.538,0.002,2.124l1.413,1.408c0.585,0.584,1.535,0.583,2.119-0.002L36,9.542l20.106,20.097
			C56.689,30.22,57.641,30.226,58.233,29.648z M36.354,8.481c-0.195-0.195-0.512-0.195-0.707,0L15.183,28.936
			c-0.195,0.195-0.512,0.194-0.707,0.001l-1.412-1.408c-0.196-0.194-0.198-0.511-0.001-0.708L34.944,4.938
			c0.584-0.585,1.525-0.586,2.112,0l21.882,21.882c0.195,0.195,0.194,0.514-0.002,0.711l-1.405,1.405
			c-0.196,0.19-0.525,0.188-0.718-0.005L36.354,8.481z"/>
		<path d="M5.5,38v14h1v-1.5h43V52h1v-4c0-1.378-1.121-2.5-2.5-2.5h-1.59l-1.6-8c-0.237-1.159-1.268-2-2.45-2H8
			C6.621,35.5,5.5,36.622,5.5,38z M45.39,45.5H37c-0.275,0-0.5-0.224-0.5-0.5v-4c0-0.276,0.225-0.5,0.5-0.5h7.39L45.39,45.5z
			 M8,36.5h34.36c0.709,0,1.328,0.505,1.47,1.198l0.36,1.802H37c-0.827,0-1.5,0.673-1.5,1.5v4c0,0.827,0.673,1.5,1.5,1.5
			c12.582,0,9.474,0,11,0c0.827,0,1.5,0.673,1.5,1.5v1.5h-43V38C6.5,37.173,7.173,36.5,8,36.5z"/>
		<path d="M51,55.5h-5v1h5c0.827,0,1.5-0.673,1.5-1.5s-0.673-1.5-1.5-1.5h-5.35v1H51c0.275,0,0.5,0.224,0.5,0.5S51.275,55.5,51,55.5
			z"/>
		<rect x="22" y="55.5" width="12" height="1"/>
		<rect x="21.65" y="53.5" width="12.699" height="1"/>
		<path d="M5,56.5h5v-1H5c-0.275,0-0.5-0.224-0.5-0.5s0.225-0.5,0.5-0.5h5.35v-1H5c-0.827,0-1.5,0.673-1.5,1.5S4.173,56.5,5,56.5z"
			/>
		<path d="M11,46.5h20c0.827,0,1.5-0.673,1.5-1.5v-4c0-0.827-0.673-1.5-1.5-1.5H11c-0.827,0-1.5,0.673-1.5,1.5v4
			C9.5,45.827,10.173,46.5,11,46.5z M10.5,41c0-0.276,0.225-0.5,0.5-0.5h20c0.275,0,0.5,0.224,0.5,0.5v4c0,0.276-0.225,0.5-0.5,0.5
			H11c-0.275,0-0.5-0.224-0.5-0.5V41z"/>
		<path d="M16,60.5c2.481,0,4.5-2.019,4.5-4.5s-2.019-4.5-4.5-4.5s-4.5,2.019-4.5,4.5S13.519,60.5,16,60.5z M16,52.5
			c1.93,0,3.5,1.57,3.5,3.5s-1.57,3.5-3.5,3.5s-3.5-1.57-3.5-3.5S14.07,52.5,16,52.5z"/>
		<path d="M16,58.5c1.379,0,2.5-1.122,2.5-2.5s-1.121-2.5-2.5-2.5s-2.5,1.122-2.5,2.5S14.621,58.5,16,58.5z M16,54.5
			c0.827,0,1.5,0.673,1.5,1.5s-0.673,1.5-1.5,1.5s-1.5-0.673-1.5-1.5S15.173,54.5,16,54.5z"/>
		<path d="M35.5,56c0,2.481,2.019,4.5,4.5,4.5s4.5-2.019,4.5-4.5s-2.019-4.5-4.5-4.5S35.5,53.519,35.5,56z M43.5,56
			c0,1.93-1.57,3.5-3.5,3.5s-3.5-1.57-3.5-3.5s1.57-3.5,3.5-3.5S43.5,54.07,43.5,56z"/>
		<path d="M37.5,56c0,1.378,1.121,2.5,2.5,2.5s2.5-1.122,2.5-2.5s-1.121-2.5-2.5-2.5S37.5,54.622,37.5,56z M41.5,56
			c0,0.827-0.673,1.5-1.5,1.5s-1.5-0.673-1.5-1.5s0.673-1.5,1.5-1.5S41.5,55.173,41.5,56z"/>
		<path d="M36.345,21.391c0.151-0.148,2.567-2.557,2.726-2.715c0.571-0.572,0.571-1.501,0-2.073c-0.563-0.564-1.466-0.567-2.064,0
			l-1.687,1.692l-0.327-0.327c-0.553-0.552-1.522-0.542-2.054-0.009c-0.272,0.258-0.431,0.63-0.437,1.021
			c-0.005,0.398,0.146,0.771,0.427,1.051l1.352,1.352C34.862,21.98,35.793,21.958,36.345,21.391z M33.636,19.324
			c-0.188-0.188-0.169-0.488,0-0.648c0.182-0.183,0.472-0.177,0.649,0l1.034,1.035l2.386-2.392c0.221-0.211,0.505-0.163,0.658-0.009
			c0.179,0.178,0.179,0.48,0.001,0.657c-0.186,0.186-2.542,2.536-2.729,2.718c-0.172,0.178-0.462,0.182-0.644-0.004L33.636,19.324z"
			/>
		<rect x="15.5" y="32" width="1" height="2"/>
		<path d="M36,26.5c0.827,0,1.5-0.673,1.5-1.5v-0.708c2.341-0.663,4-2.826,4-5.292c0-3.033-2.468-5.5-5.5-5.5s-5.5,2.467-5.5,5.5
			c0,2.467,1.659,4.63,4,5.292V25C34.5,25.827,35.173,26.5,36,26.5z M31.5,19c0-2.481,2.019-4.5,4.5-4.5s4.5,2.019,4.5,4.5
			c0,2.131-1.514,3.986-3.6,4.409l-0.4,0.082V25c0,0.276-0.225,0.5-0.5,0.5s-0.5-0.224-0.5-0.5v-1.509l-0.4-0.082
			C33.014,22.986,31.5,21.131,31.5,19z"/>
	</g>
</g>
</svg>
