<?xml version="1.0" encoding="utf-8"?>
<!-- Generator: Adobe Illustrator 24.0.0, SVG Export Plug-In . SVG Version: 6.00 Build 0)  -->
<svg version="1.1" xmlns="http://www.w3.org/2000/svg" xmlns:xlink="http://www.w3.org/1999/xlink" x="0px" y="0px"
	 viewBox="0 0 64 64" enable-background="new 0 0 64 64" xml:space="preserve">
<g id="Grids" display="none">
	<g id="Grid_41_" display="inline">
		<g>
			<path fill="#FF0000" d="M51.9,4.1v55.8H12.1V4.1H51.9 M52,4H12v56h40V4L52,4z"/>
		</g>
		<g>
			<path fill="#4600F0" d="M59.9,12.1v39.8H4.1V12.1H59.9 M60,12H4v40h56V12L60,12z"/>
		</g>
		<g>
			<path fill="#F0C800" d="M55.9,8.1v47.8H8.1V8.1H55.9 M56,8H8v48h48V8L56,8z"/>
		</g>
		<g>
			<path fill="#00F096" d="M32,6.1c14.281,0,25.9,11.619,25.9,25.9S46.281,57.9,32,57.9S6.1,46.281,6.1,32S17.719,6.1,32,6.1 M32,6
				C17.641,6,6,17.641,6,32s11.641,26,26,26s26-11.641,26-26S46.359,6,32,6L32,6z"/>
		</g>
	</g>
</g>
<g id="Captions">
	<g>
	</g>
</g>
<g id="Icons">
	<g>
		<g>
			<path d="M32,34.5c1.379,0,2.5-1.122,2.5-2.5c0-0.276-0.224-0.5-0.5-0.5s-0.5,0.224-0.5,0.5c0,0.827-0.673,1.5-1.5,1.5
				s-1.5-0.673-1.5-1.5c0-0.276-0.224-0.5-0.5-0.5s-0.5,0.224-0.5,0.5C29.5,33.378,30.621,34.5,32,34.5z"/>
			<path d="M26.057,38.547l-0.113-0.994c-1.373,0.156-2.673,0.6-3.862,1.319l0.518,0.855C23.664,39.083,24.827,38.686,26.057,38.547
				z"/>
			<path d="M37.943,38.547c1.236,0.14,2.398,0.54,3.455,1.189l0.523-0.852c-1.183-0.727-2.483-1.175-3.865-1.332L37.943,38.547z"/>
			<path d="M28.819,41.186C29.679,42.033,30.809,42.5,32,42.5c2.481,0,4.5-2.019,4.5-4.5v-0.802c2.398-1.504,4-4.164,4-7.198v-4.234
				c0-1.258-0.941-2.325-2.189-2.48l-12-1.5c-0.71-0.091-1.428,0.132-1.965,0.606c-0.537,0.474-0.846,1.157-0.846,1.874V30
				c0,3.033,1.602,5.693,4,7.198V38C27.5,39.192,27.967,40.322,28.819,41.186z M35.5,37.744V38c0,1.93-1.57,3.5-3.5,3.5
				c-0.927,0-1.808-0.364-2.474-1.021C28.864,39.808,28.5,38.928,28.5,38v-0.256c0.023,0.011,0.048,0.018,0.072,0.028
				c0.201,0.089,0.407,0.167,0.616,0.24c0.062,0.021,0.121,0.047,0.183,0.067C30.199,38.349,31.082,38.5,32,38.5
				s1.801-0.151,2.629-0.421c0.062-0.02,0.122-0.046,0.183-0.067c0.209-0.073,0.415-0.151,0.616-0.24
				C35.452,37.761,35.477,37.754,35.5,37.744z M24.5,30v-5.734c0-0.43,0.185-0.84,0.508-1.125c0.275-0.243,0.629-0.375,0.992-0.375
				c0.062,0,0.124,0.004,0.186,0.012l12.001,1.5c0.749,0.094,1.313,0.733,1.313,1.488V30c0,2.776-1.52,5.2-3.768,6.496
				c-2.236,1.312-5.228,1.312-7.464,0C26.02,35.2,24.5,32.776,24.5,30z"/>
			<path d="M32,30.5c0.276,0,0.5-0.224,0.5-0.5v-2c0-0.276-0.224-0.5-0.5-0.5s-0.5,0.224-0.5,0.5v2C31.5,30.276,31.724,30.5,32,30.5
				z"/>
			<circle cx="28" cy="27" r="1"/>
			<circle cx="36" cy="27" r="1"/>
			<path d="M4.613,53.016l9.77,6.51c0.299,0.199,0.538,0.445,0.709,0.731l0.857-0.515c-0.248-0.414-0.588-0.767-1.011-1.049
				l-9.771-6.511C4.749,51.907,4.5,51.443,4.5,50.94V44c0-0.902,0.808-1.642,1.759-1.477C6.967,42.639,7.5,43.321,7.5,44.11v5.27
				c0,0.524,0.281,1.018,0.736,1.291l7.159,4.219c0.989,0.584,2.286,0.304,2.952-0.64c0.62-0.868,0.477-2.134-0.333-2.944
				l-2.18-2.18c-0.661-0.661-0.649-1.778,0.123-2.409c0.636-0.518,1.628-0.426,2.26,0.206l5.09,5.09l0.707-0.707l-5.09-5.09
				c-0.991-0.991-2.572-1.111-3.6-0.273c-1.216,0.995-1.288,2.8-0.197,3.891l2.18,2.18c0.468,0.469,0.566,1.18,0.225,1.658
				c-0.37,0.522-1.084,0.68-1.628,0.358l-7.156-4.218c-0.15-0.09-0.248-0.26-0.248-0.432v-5.27c0-1.273-0.894-2.38-2.078-2.573
				C4.895,41.277,3.5,42.449,3.5,44v6.94C3.5,51.779,3.917,52.556,4.613,53.016z"/>
			<path d="M54.671,34.737l-2.829-1.638c0.881-3.423,0.881-6.767-0.001-10.198l2.831-1.639c0.715-0.417,0.957-1.338,0.541-2.052
				l-3.997-6.916c-0.411-0.728-1.328-0.973-2.046-0.558l-2.827,1.629c-2.455-2.409-5.497-4.16-8.843-5.089V5
				c0-0.827-0.673-1.5-1.5-1.5h-8c-0.827,0-1.5,0.673-1.5,1.5v3.276c-3.346,0.929-6.388,2.681-8.842,5.089l-2.826-1.628
				c-0.737-0.43-1.651-0.149-2.045,0.552l-3.999,6.918c-0.415,0.71-0.188,1.63,0.541,2.055l2.829,1.638
				c-0.882,3.423-0.882,6.767,0,10.198l-2.831,1.64c-0.722,0.421-0.958,1.339-0.541,2.052l3.998,6.915
				c0.401,0.714,1.311,0.986,2.056,0.552c0.18-0.109,2.628-1.514,2.817-1.623c2.136,2.092,4.762,3.716,7.618,4.708l0.328-0.944
				c-2.835-0.985-5.431-2.624-7.507-4.738c-0.16-0.163-0.412-0.196-0.609-0.082c-0.178,0.102-2.996,1.72-3.16,1.82
				c-0.231,0.134-0.533,0.065-0.675-0.188l-4.001-6.922c-0.142-0.245-0.059-0.547,0.179-0.686l3.16-1.83
				c0.197-0.114,0.292-0.346,0.231-0.565c-0.966-3.508-0.966-6.915,0-10.414c0.061-0.219-0.035-0.452-0.231-0.565l-3.159-1.829
				c-0.237-0.139-0.324-0.439-0.179-0.688l4.002-6.925c0.135-0.239,0.436-0.322,0.675-0.182l3.16,1.82
				c0.199,0.114,0.448,0.08,0.606-0.083c2.462-2.512,5.584-4.309,9.028-5.196C27.346,9.087,27.5,8.888,27.5,8.66V5
				c0-0.276,0.224-0.5,0.5-0.5h8c0.275,0,0.5,0.224,0.5,0.5v3.66c0,0.228,0.154,0.427,0.375,0.484
				c3.443,0.887,6.565,2.684,9.027,5.196c0.16,0.164,0.41,0.197,0.607,0.083l3.162-1.821c0.234-0.136,0.534-0.062,0.676,0.188
				l4,6.921c0.143,0.244,0.063,0.545-0.179,0.686l-3.16,1.83c-0.196,0.114-0.291,0.346-0.231,0.565
				c0.966,3.508,0.966,6.915,0,10.414c-0.06,0.219,0.035,0.452,0.231,0.565l3.159,1.83c0.243,0.141,0.322,0.443,0.18,0.688
				l-4.003,6.924c-0.138,0.245-0.442,0.318-0.664,0.189c-0.193-0.118-2.966-1.709-3.169-1.826c-0.195-0.113-0.448-0.081-0.608,0.082
				c-2.057,2.096-4.553,3.699-7.559,4.749l0.449,0.904c2.817-0.978,5.42-2.591,7.549-4.678c0.209,0.12,2.626,1.507,2.825,1.628
				c0.73,0.425,1.646,0.156,2.045-0.552l4-6.918C55.629,36.076,55.387,35.155,54.671,34.737z"/>
			<path d="M57.579,41.536c-1.186,0.194-2.079,1.3-2.079,2.574v5.27c0,0.172-0.098,0.341-0.244,0.43l-7.161,4.22
				c-0.544,0.322-1.257,0.165-1.628-0.36c-0.34-0.476-0.242-1.187,0.227-1.656l2.18-2.18c1.091-1.089,1.02-2.895-0.197-3.891
				c-1.028-0.837-2.608-0.716-3.6,0.274l-5.09,5.09l0.707,0.707l5.09-5.09c0.634-0.634,1.628-0.721,2.261-0.207
				c0.771,0.632,0.784,1.748,0.122,2.41l-2.18,2.18c-0.811,0.81-0.954,2.075-0.335,2.942c0.668,0.945,1.964,1.229,2.952,0.642
				l7.164-4.222c0.452-0.272,0.732-0.766,0.732-1.289v-5.27c0-0.789,0.533-1.471,1.242-1.587C58.717,42.364,59.5,43.113,59.5,44
				v6.94c0,0.503-0.249,0.967-0.667,1.244l-9.771,6.51c-0.422,0.282-0.762,0.635-1.01,1.048l0.857,0.515
				c0.172-0.286,0.41-0.532,0.708-0.731l9.769-6.509c0.698-0.461,1.114-1.238,1.114-2.077V44
				C60.5,42.476,59.143,41.283,57.579,41.536z"/>
			<path d="M49,28.5c0-9.374-7.626-17-17-17s-17,7.626-17,17c0,8.032,5.703,15.035,13.56,16.65c0-0.001,0.201-0.979,0.201-0.979
				C21.367,42.65,16,36.06,16,28.5c0-8.822,7.178-16,16-16s16,7.178,16,16c0,7.559-5.363,14.153-12.752,15.68
				c0.005,0.022,0.199,0.958,0.203,0.979C43.302,43.537,49,36.531,49,28.5z"/>
			<path d="M33.5,45.659V45c0-0.827-0.673-1.5-1.5-1.5s-1.5,0.673-1.5,1.5v0.659c-3.45,0.703-6,3.785-6,7.341
				c0,4.136,3.364,7.5,7.5,7.5s7.5-3.364,7.5-7.5C39.5,49.444,36.949,46.362,33.5,45.659z M32,59.5c-3.584,0-6.5-2.916-6.5-6.5
				c0-3.208,2.395-5.97,5.571-6.425c0.247-0.036,0.429-0.247,0.429-0.495V45c0-0.276,0.224-0.5,0.5-0.5s0.5,0.224,0.5,0.5v1.08
				c0,0.249,0.183,0.459,0.429,0.495C36.105,47.03,38.5,49.792,38.5,53C38.5,56.584,35.584,59.5,32,59.5z"/>
			<path d="M32.548,50.313L32,50.865l-0.548-0.551c-1.077-1.083-2.827-1.086-3.908-0.005c-1.076,1.076-1.076,2.827,0,3.903
				l3.396,3.396c0.585,0.584,1.536,0.584,2.121,0l3.396-3.396c1.079-1.078,1.079-2.824,0-3.903
				C35.374,49.227,33.624,49.232,32.548,50.313z M35.749,53.504l-3.396,3.396c-0.194,0.195-0.513,0.195-0.707,0l-3.396-3.396
				c-0.686-0.686-0.686-1.802,0-2.489c0.683-0.682,1.799-0.693,2.492,0.003l0.903,0.908c0.188,0.188,0.521,0.188,0.709,0
				l0.902-0.908c0.692-0.694,1.808-0.688,2.492-0.003C36.439,51.706,36.437,52.817,35.749,53.504z"/>
		</g>
		<g>
			<path d="M39.884,36.717l-0.107-0.994l1.271-0.13c0.255-0.025,0.452-0.241,0.452-0.493V24c0-5.238-4.262-9.5-9.5-9.5
				s-9.5,4.262-9.5,9.5v11.1c0,0.251,0.197,0.468,0.449,0.492l1.274,0.131l-0.107,0.994l-1.268-0.13
				C22.081,36.512,21.5,35.873,21.5,35.1V24c0-5.79,4.71-10.5,10.5-10.5S42.5,18.21,42.5,24v11.1c0,0.773-0.581,1.412-1.352,1.487
				L39.884,36.717z"/>
		</g>
	</g>
</g>
</svg>
