<?xml version="1.0" encoding="iso-8859-1"?>
<!-- Uploaded to: SVG Repo, www.svgrepo.com, Generator: SVG Repo Mixer Tools -->
<!DOCTYPE svg PUBLIC "-//W3C//DTD SVG 1.1//EN" "http://www.w3.org/Graphics/SVG/1.1/DTD/svg11.dtd">
<svg fill="#000000" height="800px" width="800px" version="1.1" id="Capa_1" xmlns="http://www.w3.org/2000/svg" xmlns:xlink="http://www.w3.org/1999/xlink" 
	 viewBox="0 0 486.342 486.342" xml:space="preserve">
<g>
	<path d="M386.604,321.461c-7.22,0-13.094,5.875-13.094,13.096c0,7.22,5.874,13.094,13.094,13.094
		c7.222,0,13.097-5.875,13.097-13.095C399.7,327.336,393.825,321.461,386.604,321.461z"/>
	<path d="M95.864,321.461c-7.22,0-13.094,5.875-13.094,13.096c0,7.22,5.874,13.094,13.094,13.094
		c7.221,0,13.096-5.875,13.096-13.095C108.96,327.336,103.085,321.461,95.864,321.461z"/>
	<path d="M340.312,136.341c-1.239-2.208-3.573-3.576-6.105-3.576h-27.962c-3.866,0-7,3.134-7,7v88.997c0,3.866,3.134,7,7,7h77.878
		c2.485,0,4.784-1.318,6.04-3.462c1.256-2.145,1.281-4.794,0.065-6.962L340.312,136.341z M313.244,221.762v-41.594l43.229,14.238
		c0.135,0.045,0.273,0.064,0.409,0.1l15.288,27.257H313.244z"/>
	<path d="M327.902,248.329H307.32c-3.866,0-7,3.134-7,7c0,3.866,3.134,7,7,7h20.582c3.866,0,7-3.134,7-7
		C334.902,251.463,331.769,248.329,327.902,248.329z"/>
	<path d="M470.418,282.572v-38.234c0-2.867-1.748-5.444-4.411-6.504l-44.042-17.529l-61.581-113.272
		c-1.226-2.254-3.585-3.657-6.15-3.657h-77.406c-3.866,0-7,3.134-7,7v79.295H24.671c-3.866,0-7,3.134-7,7v25.091H7
		c-3.866,0-7,3.134-7,7v62.221c0,7.553,2.225,13.87,6.105,18.303C2.225,313.718,0,320.035,0,327.588v6.967c0,3.866,3.134,7,7,7
		h40.966c3.402,23.388,23.583,41.411,47.902,41.411c24.317,0,44.496-18.023,47.898-41.411h192.485c0.841,0,1.648-0.153,2.399-0.428
		c3.217,23.595,23.49,41.839,47.956,41.839c24.317,0,44.496-18.023,47.898-41.411h29.245c12.457,0,22.591-10.134,22.591-22.59
		v-14.808C486.342,294.021,479.631,285.422,470.418,282.572z M31.671,203.671h238.156v18.091H31.671V203.671z M95.868,368.966
		h-0.002c-18.975,0-34.412-15.436-34.412-34.409c0-18.976,15.437-34.413,34.412-34.413c18.976,0,34.413,15.438,34.413,34.413
		C130.279,353.53,114.842,368.966,95.868,368.966z M135.21,297.508c-9.809-10.998-24.15-17.306-39.345-17.306
		c-27.599,0-50.459,20.676-53.905,47.353H14c0.006-4.225,1.086-11.27,8.22-11.27c3.866,0,7-3.134,7-7c0-3.866-3.134-7-7-7
		c-7.152,0-8.22-7.082-8.22-11.303v-55.221h255.827v91.793H147.461C146.998,316.448,142.775,305.99,135.21,297.508z
		 M386.607,368.966h-0.002c-18.975,0-34.412-15.436-34.412-34.409c0-18.976,15.438-34.413,34.412-34.413
		c18.976,0,34.413,15.438,34.413,34.413C421.019,353.53,405.582,368.966,386.607,368.966z M472.342,318.965
		c0,4.736-3.854,8.59-8.591,8.59h-23.24c-3.444-26.677-26.306-47.353-53.905-47.353c-14.313,0-28.057,5.616-38.701,15.814
		c-8.843,8.472-14.956,19.5-17.578,31.538h-46.499V117.376h66.244l60.804,111.839c0.781,1.438,2.041,2.556,3.56,3.161l41.983,16.71
		v32.433h-14.616c-3.866,0-7,3.134-7,7c0,3.866,3.134,7,7,7l21.949,0.049c4.737,0,8.591,3.853,8.591,8.589V318.965z"/>
</g>
</svg>