<?xml version="1.0" encoding="iso-8859-1"?>
<!-- Uploaded to: SVG Repo, www.svgrepo.com, Generator: SVG Repo Mixer Tools -->
<svg fill="#000000" version="1.1" id="Layer_1" xmlns="http://www.w3.org/2000/svg" xmlns:xlink="http://www.w3.org/1999/xlink" 
	 viewBox="0 0 512.001 512.001" xml:space="preserve">
<g>
	<g>
		<g>
			<polygon points="366.934,180.636 435.201,194.289 435.201,144.966 366.934,144.966 			"/>
			<rect x="477.868" y="247.365" width="34.133" height="25.6"/>
			<path d="M460.8,281.498v-42.667c0-4.71,3.814-8.533,8.533-8.533H512v-34.133c0-0.623-0.068-1.237-0.196-1.843
				c-18.33-82.97-55.057-122.982-116.045-125.952l-72.09,0.401c-0.572-0.017-1.126-0.026-1.681-0.009h-40.482
				c-14.131-0.316-25.617,10.53-26.121,24.457l-7.228,195.038c-0.128,3.584,0.452,7.066,1.672,10.308H179.2v-25.6
				c0-4.71-3.814-8.533-8.533-8.533h-34.133H102.4c-4.719,0-8.533,3.823-8.533,8.533v25.6H63.471
				C28.476,298.565,0,327.032,0,362.027v21.871c0,4.71,3.814,8.533,8.533,8.533h9.216c4.164,28.902,29.022,51.2,59.051,51.2
				s54.886-22.298,59.051-51.2h9.216c4.719,0,8.533-3.823,8.533-8.533v-17.067h145.067v17.067c0,4.71,3.814,8.533,8.533,8.533
				h17.749c4.164,28.902,29.022,51.2,59.051,51.2s54.886-22.298,59.051-51.2H460.8c4.719,0,8.533-3.823,8.533-8.533v-17.067h25.6
				c4.173,0,7.731-3.021,8.414-7.125l5.325-31.949c1.101-6.613-0.606-13.269-4.48-18.662c4.77-4.429,7.808-10.709,7.808-17.715
				v-1.348h-42.667C464.614,290.031,460.8,286.208,460.8,281.498z M76.8,409.498c-14.114,0-25.6-11.486-25.6-25.6
				s11.486-25.6,25.6-25.6s25.6,11.486,25.6,25.6S90.914,409.498,76.8,409.498z M136.533,358.298v17.067h-0.606
				c-0.094-0.657-0.256-1.297-0.375-1.946c-0.145-0.811-0.282-1.613-0.452-2.406c-0.247-1.092-0.538-2.167-0.836-3.234
				c-0.213-0.742-0.401-1.493-0.64-2.227c-0.367-1.126-0.785-2.219-1.22-3.319c-0.247-0.631-0.469-1.28-0.734-1.911
				c-0.555-1.271-1.169-2.5-1.801-3.721c-0.222-0.418-0.401-0.862-0.631-1.271c-0.888-1.63-1.843-3.209-2.884-4.736
				c-0.179-0.282-0.393-0.529-0.589-0.802c-0.862-1.237-1.749-2.449-2.705-3.618c-0.393-0.486-0.836-0.939-1.246-1.417
				c-0.794-0.913-1.587-1.818-2.432-2.671c-0.503-0.512-1.033-0.99-1.553-1.485c-0.811-0.768-1.63-1.536-2.483-2.261
				c-0.572-0.486-1.169-0.947-1.766-1.408c-0.853-0.674-1.715-1.323-2.603-1.946c-0.64-0.452-1.289-0.879-1.946-1.297
				c-0.896-0.58-1.801-1.135-2.731-1.664c-0.691-0.393-1.382-0.768-2.082-1.135c-0.947-0.495-1.92-0.956-2.893-1.399
				c-0.717-0.324-1.442-0.649-2.176-0.947c-1.015-0.41-2.048-0.777-3.089-1.126c-0.734-0.256-1.459-0.521-2.21-0.742
				c-1.101-0.324-2.219-0.589-3.337-0.862c-0.725-0.171-1.442-0.358-2.176-0.503c-1.246-0.247-2.526-0.418-3.806-0.589
				c-0.631-0.077-1.246-0.196-1.886-0.256c-1.92-0.188-3.874-0.299-5.845-0.299s-3.925,0.111-5.845,0.299
				c-0.64,0.06-1.254,0.179-1.886,0.256c-1.28,0.171-2.551,0.341-3.806,0.589c-0.734,0.145-1.451,0.333-2.167,0.503
				c-1.126,0.265-2.244,0.538-3.345,0.862c-0.742,0.222-1.476,0.486-2.21,0.742c-1.041,0.35-2.074,0.717-3.089,1.126
				c-0.734,0.299-1.451,0.623-2.176,0.947c-0.973,0.444-1.937,0.905-2.893,1.399c-0.7,0.367-1.391,0.742-2.082,1.135
				c-0.93,0.529-1.835,1.084-2.739,1.664c-0.649,0.418-1.297,0.845-1.937,1.289c-0.888,0.623-1.749,1.28-2.603,1.954
				c-0.597,0.461-1.186,0.922-1.766,1.408c-0.853,0.725-1.673,1.493-2.483,2.261c-0.521,0.495-1.05,0.973-1.553,1.485
				c-0.845,0.853-1.638,1.758-2.432,2.671c-0.41,0.478-0.845,0.93-1.246,1.417c-0.964,1.178-1.869,2.406-2.739,3.652
				c-0.179,0.265-0.375,0.503-0.555,0.76c-1.033,1.536-1.997,3.115-2.884,4.745c-0.23,0.41-0.41,0.853-0.631,1.271
				c-0.631,1.22-1.246,2.449-1.792,3.721c-0.273,0.631-0.495,1.28-0.742,1.911c-0.435,1.101-0.853,2.193-1.22,3.319
				c-0.239,0.734-0.427,1.476-0.631,2.219c-0.307,1.075-0.597,2.15-0.836,3.251c-0.179,0.785-0.316,1.587-0.461,2.389
				c-0.119,0.648-0.273,1.289-0.375,1.954h-0.606v-13.338c0-25.583,20.821-46.396,46.404-46.396H102.4h34.133V358.298z
				 M298.283,87.621c-0.085,0.299-0.171,0.597-0.239,0.896c-0.35,1.527-0.614,3.081-0.666,4.702l-7.219,195.038
				c-0.068,1.801,0.043,3.576,0.324,5.316c0.068,0.384,0.222,0.742,0.299,1.118c0.273,1.314,0.563,2.628,1.032,3.874h-17.28
				c-2.56,0-4.941-1.016-6.716-2.85c-1.775-1.843-2.705-4.267-2.611-6.818l7.228-195.055c0.162-4.48,3.874-8.021,8.32-8.021
				c0.205-0.009,0.41,0.009,0.614,0.009h17.391C298.556,86.409,298.445,87.023,298.283,87.621z M384,409.498
				c-14.114,0-25.6-11.486-25.6-25.6s11.486-25.6,25.6-25.6c14.114,0,25.6,11.486,25.6,25.6S398.114,409.498,384,409.498z
				 M452.267,358.298v17.067h-9.139c-0.094-0.657-0.256-1.297-0.375-1.946c-0.145-0.811-0.282-1.613-0.452-2.406
				c-0.247-1.092-0.538-2.167-0.836-3.234c-0.213-0.742-0.401-1.493-0.64-2.227c-0.367-1.126-0.785-2.219-1.22-3.319
				c-0.247-0.631-0.469-1.28-0.734-1.911c-0.555-1.271-1.169-2.5-1.801-3.721c-0.222-0.418-0.401-0.862-0.631-1.271
				c-0.887-1.63-1.843-3.209-2.884-4.736c-0.179-0.282-0.393-0.529-0.589-0.802c-0.862-1.237-1.749-2.449-2.705-3.618
				c-0.393-0.486-0.836-0.939-1.246-1.417c-0.794-0.913-1.587-1.818-2.432-2.671c-0.503-0.512-1.033-0.99-1.553-1.485
				c-0.811-0.768-1.63-1.536-2.483-2.261c-0.572-0.486-1.169-0.947-1.766-1.408c-0.853-0.674-1.715-1.323-2.603-1.946
				c-0.64-0.452-1.289-0.879-1.946-1.297c-0.896-0.58-1.801-1.135-2.731-1.664c-0.691-0.393-1.382-0.768-2.082-1.135
				c-0.947-0.495-1.92-0.956-2.893-1.399c-0.717-0.324-1.442-0.649-2.176-0.947c-1.015-0.41-2.048-0.777-3.089-1.126
				c-0.734-0.256-1.459-0.521-2.21-0.742c-1.101-0.324-2.219-0.589-3.337-0.862c-0.725-0.171-1.442-0.358-2.176-0.503
				c-1.246-0.247-2.526-0.418-3.806-0.589c-0.631-0.077-1.246-0.196-1.886-0.256c-1.92-0.188-3.874-0.299-5.845-0.299
				s-3.925,0.111-5.845,0.299c-0.64,0.06-1.254,0.179-1.886,0.256c-1.28,0.171-2.551,0.341-3.806,0.589
				c-0.734,0.145-1.451,0.333-2.167,0.503c-1.126,0.265-2.244,0.538-3.345,0.862c-0.742,0.222-1.476,0.486-2.21,0.742
				c-1.041,0.35-2.074,0.717-3.089,1.126c-0.734,0.299-1.451,0.623-2.176,0.947c-0.973,0.444-1.937,0.905-2.893,1.399
				c-0.7,0.367-1.391,0.742-2.082,1.135c-0.93,0.529-1.835,1.084-2.739,1.664c-0.649,0.418-1.297,0.845-1.937,1.289
				c-0.888,0.623-1.749,1.28-2.603,1.954c-0.597,0.461-1.186,0.922-1.766,1.408c-0.853,0.725-1.673,1.493-2.483,2.261
				c-0.521,0.495-1.05,0.973-1.553,1.485c-0.845,0.853-1.638,1.758-2.432,2.671c-0.41,0.478-0.845,0.93-1.246,1.417
				c-0.964,1.178-1.869,2.406-2.739,3.652c-0.179,0.265-0.375,0.503-0.555,0.76c-1.033,1.536-1.997,3.115-2.884,4.745
				c-0.23,0.41-0.41,0.853-0.631,1.271c-0.631,1.22-1.246,2.449-1.792,3.721c-0.273,0.631-0.495,1.28-0.742,1.911
				c-0.435,1.101-0.853,2.193-1.22,3.319c-0.239,0.734-0.427,1.476-0.631,2.219c-0.307,1.075-0.597,2.15-0.836,3.251
				c-0.179,0.785-0.316,1.587-0.461,2.389c-0.119,0.648-0.273,1.289-0.375,1.954h-9.139v-17.067v-11.11
				c0-17.399,14.157-31.556,31.556-31.556h73.421c4.011,0,7.817,0.828,11.349,2.202c0.017,0,0.034,0.017,0.051,0.026
				c1.135,0.444,2.193,0.998,3.26,1.553c0.563,0.299,1.126,0.58,1.672,0.913c0.862,0.512,1.673,1.084,2.475,1.672
				c0.794,0.597,1.562,1.229,2.295,1.894c0.538,0.486,1.092,0.964,1.596,1.476c1.246,1.297,2.424,2.671,3.439,4.164
				c0.043,0.068,0.077,0.137,0.119,0.205c0.981,1.468,1.809,3.038,2.534,4.668c0.205,0.452,0.375,0.93,0.555,1.391
				c0.512,1.323,0.939,2.679,1.271,4.079c0.12,0.521,0.256,1.033,0.358,1.562c0.341,1.869,0.58,3.78,0.58,5.751V358.298z
				 M349.867,238.831c0-4.71,3.814-8.533,8.533-8.533h17.067c4.719,0,8.533,3.823,8.533,8.533s-3.814,8.533-8.533,8.533H358.4
				C353.681,247.365,349.867,243.542,349.867,238.831z M452.267,204.698c0,2.56-1.152,4.975-3.123,6.596
				c-1.536,1.263-3.447,1.937-5.41,1.937c-0.555,0-1.118-0.051-1.672-0.171l-85.333-17.067c-3.985-0.794-6.861-4.292-6.861-8.363
				v-51.2c0-4.71,3.814-8.533,8.533-8.533h85.333c4.719,0,8.533,3.823,8.533,8.533V204.698z M490.052,318.464
				c0.887,1.058,2.313,3.311,1.792,6.494l-4.139,24.806h-18.372v-2.577c0-2.714-0.282-5.367-0.708-7.97
				c-0.068-0.393-0.111-0.794-0.188-1.186c-0.452-2.381-1.109-4.693-1.903-6.938c-0.196-0.572-0.401-1.143-0.623-1.707
				c-0.836-2.116-1.801-4.156-2.918-6.11c-0.324-0.58-0.674-1.135-1.024-1.698c-1.22-1.946-2.534-3.823-3.994-5.572
				c-0.102-0.12-0.171-0.256-0.273-0.375h26.24C487.168,315.631,489.148,317.406,490.052,318.464z"/>
		</g>
	</g>
</g>
</svg>