<?xml version="1.0" encoding="iso-8859-1"?>
<!-- Uploaded to: SVG Repo, www.svgrepo.com, Generator: SVG Repo Mixer Tools -->
<!DOCTYPE svg PUBLIC "-//W3C//DTD SVG 1.1//EN" "http://www.w3.org/Graphics/SVG/1.1/DTD/svg11.dtd">
<svg fill="#000000" height="800px" width="800px" version="1.1" id="Capa_1" xmlns="http://www.w3.org/2000/svg" xmlns:xlink="http://www.w3.org/1999/xlink" 
	 viewBox="0 0 474.375 474.375" xml:space="preserve">
<path d="M472.376,169.414l-13.962-8.065c6.33-6.439,9.979-15.974,10.421-27.651c0.545-14.402-3.867-30.494-12.422-45.309
	c-8.55-14.818-20.279-26.685-33.027-33.415c-13.27-7.004-26.139-7.692-36.261-1.942c-0.063,0.032-46.849,27.057-46.849,27.057
	l-5.529-3.193c-1.23-0.711-2.746-0.714-3.98-0.011l-31.491,17.946c-1.245,0.709-2.016,2.031-2.02,3.464s0.759,2.759,2,3.476
	l1.739,1.004l-39.745,22.953l-4.947-2.856c-1.229-0.71-2.745-0.715-3.98-0.011l-31.492,17.946c-1.245,0.709-2.016,2.031-2.02,3.464
	s0.759,2.759,2,3.476l1.162,0.671l-39.54,22.839l-4.13-2.385c-1.229-0.71-2.745-0.715-3.98-0.011l-31.492,17.946
	c-1.245,0.709-2.016,2.031-2.02,3.464s0.759,2.759,2,3.476l0.337,0.194c0,0-35.597,20.544-35.784,20.652
	c-10.445,6.032-16.404,18.435-16.641,33.954l-22.427-12.95c-1.229-0.71-2.745-0.715-3.98-0.011l-52.923,30.159
	c-1.056,0.602-1.765,1.645-1.96,2.821l-9.235,55.619C0.073,324.572,0,324.978,0,325.397v46.946c0,1.429,0.763,2.75,2,3.464
	l84.642,48.863c0.619,0.357,1.31,0.536,2,0.536s1.381-0.179,2-0.536c0.01-0.006,37.066-21.057,37.066-21.057
	c0.695,5.266,3.153,9.338,7.062,11.594c2.05,1.184,4.334,1.774,6.75,1.774c2.811,0,5.802-0.798,8.813-2.388
	c4.999-2.639,9.576-7.25,12.886-12.983c3.311-5.733,5.016-12.002,4.802-17.651c-0.044-1.17-0.195-2.272-0.396-3.339l52.498-30.309
	c0.776,4.85,3.119,8.84,6.984,11.071c2.051,1.184,4.334,1.773,6.751,1.773c2.811,0,5.802-0.798,8.813-2.388
	c5-2.639,9.576-7.25,12.886-12.983c3.311-5.733,5.016-12.002,4.802-17.652c-0.017-0.44-0.071-0.855-0.11-1.281l4.615-2.664
	c1.238-0.714,2.001-2.035,2.001-3.464v-27.433l25.775,14.88c0.617,0.356,1.308,0.535,2,0.535c0.612,0,1.227-0.141,1.791-0.423
	c0.064-0.032,8.999-5.105,8.999-5.105c1.176,3.422,3.263,6.112,6.165,7.787c2.071,1.196,4.362,1.765,6.749,1.765
	c7.593,0,16.154-5.755,21.701-15.362c2.263-3.92,3.755-8.086,4.417-12.137c1.185,1.914,2.734,3.485,4.656,4.595
	c2.051,1.184,4.334,1.774,6.751,1.774c2.811,0,5.802-0.798,8.813-2.388c4.999-2.639,9.575-7.25,12.885-12.983
	c2.166-3.751,3.629-7.73,4.333-11.616c1.051,1.349,2.308,2.491,3.795,3.349c2.051,1.184,4.334,1.774,6.751,1.774
	c2.811,0,5.802-0.798,8.813-2.388c5-2.639,9.576-7.25,12.886-12.983c2.323-4.023,3.788-8.164,4.437-12.104
	c1.182,1.899,2.725,3.458,4.636,4.562c2.051,1.184,4.334,1.774,6.751,1.774c2.811,0,5.802-0.798,8.813-2.388
	c4.999-2.639,9.575-7.25,12.885-12.983c3.311-5.733,5.016-12.002,4.802-17.651c-0.043-1.123-0.184-2.184-0.372-3.212l4.379-2.528
	c1.237-0.715,2-2.035,2-3.464v-26.322l9.895-5.704c1.238-0.714,2.001-2.034,2.002-3.463
	C474.376,171.449,473.613,170.129,472.376,169.414z M154.951,350.096v-18.617c0.814,0.055,1.623,0.09,2.423,0.09
	c5.551,0,10.743-1.328,15.255-3.932c0.02-0.012,0.039-0.025,0.059-0.037l-0.008,0.04l278.819-161.05l10.874,6.282L154.951,350.096z
	 M332.734,84.972l42.339,24.447l-23.438,13.353l-42.34-24.443L332.734,84.972z M254.29,130.946l42.339,24.447l-23.438,13.353
	l-42.34-24.443L254.29,130.946z M176.29,176.946l42.339,24.447l-23.439,13.353l-42.34-24.443L176.29,176.946z M193.177,222.822
	c0.619,0.357,1.309,0.536,2,0.536c0.683,0,1.366-0.175,1.98-0.524l31.492-17.941c1.245-0.709,2.016-2.031,2.02-3.464
	c0.004-1.433-0.759-2.759-2-3.476l-38.237-22.079l39.541-22.84l41.205,23.788c0.619,0.357,1.31,0.536,2,0.536
	c0.683,0,1.366-0.175,1.98-0.524l31.492-17.941c1.245-0.709,2.016-2.031,2.02-3.464s-0.759-2.759-2-3.476l-37.421-21.607
	l39.746-22.953l40.627,23.455c0.619,0.357,1.31,0.536,2,0.536c0.683,0,1.366-0.175,1.98-0.524l31.492-17.941
	c1.245-0.709,2.016-2.031,2.02-3.464s-0.759-2.759-2-3.476l-36.839-21.271c0,0,42.617-24.613,42.674-24.646
	c7.682-4.435,17.874-3.728,28.703,1.987c11.432,6.034,22.026,16.809,29.833,30.339c15.79,27.344,15.218,57.34-1.277,66.866
	l-261.77,151.202c1.638-4.517,2.596-9.632,2.813-15.242c0.557-14.343-3.808-30.373-12.291-45.148
	c-0.039-0.074-0.08-0.147-0.123-0.22c-8.554-14.817-20.286-26.683-33.034-33.412c-4.961-2.619-9.865-4.351-14.591-5.197
	l21.936-12.678L193.177,222.822z M111.363,221.521c16.493-9.522,42.757,4.979,58.526,32.292l0.005,0.01
	c0.024,0.046,0.05,0.092,0.076,0.138c15.716,27.304,15.114,57.248-1.341,66.75c-3.968,2.29-8.562,3.21-13.678,2.753v-35.53h-0.017
	c0-1.429-0.761-2.75-1.999-3.464L98.832,253.23C97.881,238.412,102.482,226.65,111.363,221.521z M66.281,243.672l76.614,44.238
	l-44.87,25.563l-76.614-44.231L66.281,243.672z M63.415,402.025l-34.188-19.737v-14.952l34.188,19.737V402.025z M69.415,381.299
	l-42.188-24.355c-1.238-0.714-2.763-0.714-4,0c-1.238,0.714-2,2.035-2,3.464v0.165L8,352.618v-20.294l76.642,44.248l-0.001,21.128
	l-13.226-7.956v-4.982C71.415,383.335,70.653,382.014,69.415,381.299z M92.084,329.835l-77.311-44.632l1.598-9.632l77.256,44.601
	L92.084,329.835z M90.733,338.293l-4.761,29.81L8.444,323.344l4.93-29.711L90.733,338.293z M101.659,320.609l10.813-6.161v41.462
	l-18.123,10.463L101.659,320.609z M8,361.954l13.227,7.955v7.761L8,370.033V361.954z M71.415,406.644v-7.562l13.226,7.955l0,7.242
	L71.415,406.644z M132.321,383.769c-1.928,3.34-3.293,6.86-4.07,10.335L92.642,414.33v-37.733l25.83-14.913
	c1.238-0.714,2-2.035,2-3.464v-48.33l26.479-15.085v75.153c-0.58,0.248-1.161,0.519-1.744,0.826
	C140.208,373.424,135.631,378.036,132.321,383.769z M156.292,397.609c-2.53,4.381-6.063,7.992-9.692,9.909
	c-1.786,0.942-5.176,2.294-7.83,0.761c-2.655-1.532-3.18-5.144-3.256-7.161c-0.156-4.102,1.206-8.968,3.735-13.349h0
	c2.529-4.381,6.062-7.992,9.692-9.909c1.202-0.634,3.131-1.455,5.075-1.455c0.942,0,1.888,0.193,2.755,0.693
	c2.655,1.533,3.18,5.145,3.256,7.162C160.183,388.363,158.821,393.228,156.292,397.609z M160.771,370.172
	c-1.784-1.03-3.748-1.603-5.82-1.736v-9.106l42.512-24.507v19.333l-33.104,19.112C163.348,372.032,162.163,370.975,160.771,370.172z
	 M248.63,343.784c-2.529,4.381-6.062,7.993-9.692,9.909c-1.784,0.942-5.174,2.294-7.83,0.761c-4.03-2.327-4.825-11.323,0.479-20.51
	h0c2.529-4.381,6.062-7.992,9.691-9.909c1.202-0.634,3.132-1.455,5.075-1.455c0.942,0,1.888,0.193,2.755,0.694
	c2.654,1.532,3.18,5.144,3.256,7.161C252.521,334.538,251.159,339.403,248.63,343.784z M253.109,316.346
	c-4.435-2.561-9.963-2.343-15.564,0.614c-5,2.639-9.576,7.25-12.886,12.983h0c-2.096,3.63-3.477,7.352-4.209,10.94l-14.989,8.653
	v-19.326l53.403-30.786v20.988l-1.051,0.607C256.624,319.07,255.058,317.471,253.109,316.346z M274.458,290.436l16.184-9.33v18.674
	L274.458,290.436z M333.118,295.368c-5.305,9.187-13.49,12.996-17.522,10.67c-2.654-1.533-3.18-5.145-3.256-7.162
	c-0.155-4.102,1.206-8.967,3.735-13.348s6.062-7.993,9.692-9.909c1.201-0.634,3.131-1.455,5.074-1.455
	c0.942,0,1.888,0.193,2.755,0.694c2.655,1.533,3.18,5.145,3.256,7.161C337.009,286.122,335.647,290.987,333.118,295.368z
	 M370.641,274.228c-2.529,4.381-6.062,7.993-9.692,9.909c-1.783,0.942-5.174,2.295-7.829,0.761c-2.655-1.533-3.18-5.145-3.256-7.161
	c-0.156-4.102,1.205-8.967,3.734-13.348c5.305-9.187,13.491-12.996,17.522-10.67c2.654,1.533,3.18,5.145,3.256,7.162
	C374.531,264.982,373.17,269.847,370.641,274.228z M407.219,252.363c-2.529,4.381-6.063,7.992-9.692,9.909
	c-1.784,0.942-5.175,2.294-7.83,0.761c-2.654-1.532-3.18-5.144-3.256-7.161c-0.155-4.103,1.206-8.968,3.735-13.349
	c4.287-7.425,10.456-11.337,14.793-11.337c1.029,0,1.956,0.221,2.729,0.667C411.729,234.181,412.522,243.176,407.219,252.363z
	 M444.741,231.224c-2.529,4.381-6.062,7.993-9.692,9.909c-1.783,0.942-5.174,2.295-7.829,0.761c-2.655-1.533-3.18-5.145-3.256-7.161
	c-0.156-4.102,1.205-8.967,3.734-13.348c5.305-9.187,13.49-12.997,17.522-10.67c2.654,1.533,3.18,5.145,3.256,7.162
	C448.632,221.978,447.271,226.843,444.741,231.224z M454.479,206.059l-1.592,0.919c-1.026-1.278-2.238-2.367-3.666-3.192
	c-8.661-5.002-21.16,0.97-28.45,13.598c-2.264,3.922-3.756,8.091-4.418,12.144c-1.171-1.896-2.71-3.48-4.654-4.602
	c-8.666-5.001-21.161,0.971-28.45,13.598c-2.166,3.751-3.63,7.73-4.333,11.616c-1.051-1.349-2.308-2.491-3.795-3.349
	c-8.661-5.004-21.16,0.97-28.45,13.598c-2.263,3.92-3.755,8.086-4.417,12.137c-1.185-1.914-2.734-3.485-4.656-4.595
	c-4.435-2.56-9.962-2.343-15.564,0.614c-4.999,2.639-9.575,7.25-12.885,12.983c-2.808,4.863-4.446,10.109-4.753,15.037l-5.752,3.269
	v-23.339l155.836-89.836V206.059z"/>
</svg>