<?xml version="1.0" encoding="iso-8859-1"?>
<!-- Uploaded to: SVG Repo, www.svgrepo.com, Generator: SVG Repo Mixer Tools -->
<!DOCTYPE svg PUBLIC "-//W3C//DTD SVG 1.1//EN" "http://www.w3.org/Graphics/SVG/1.1/DTD/svg11.dtd">
<svg fill="#000000" version="1.1" id="Capa_1" xmlns="http://www.w3.org/2000/svg" xmlns:xlink="http://www.w3.org/1999/xlink" 
	 width="800px" height="800px" viewBox="0 0 525.672 525.673"
	 xml:space="preserve">
<g>
	<path d="M53.088,320.723c-18.015,0-32.68,14.665-32.68,32.679c0,18.024,14.665,32.689,32.68,32.689
		c18.035,0,32.688-14.665,32.688-32.689C85.776,335.388,71.118,320.723,53.088,320.723z M53.088,376.09
		c-12.506,0-22.688-10.164-22.688-22.688c0-12.504,10.175-22.691,22.688-22.691c12.516,0,22.697,10.176,22.697,22.691
		C75.78,365.915,65.604,376.09,53.088,376.09z M525.664,267.123v-20.489l-20.438-89.995c0-6.236-9.048-6.236-12.495-6.236H384.73
		c-3.446,0-6.248,0.654-6.248,6.236v163.897c0,16.328,2.802,19.13,6.248,19.13h22.038c6.911-15.212,22.249-25.812,40.01-25.812
		c17.762,0,33.086,10.604,40,25.812h32.657c3.446,0,6.237-2.802,6.237-6.243v-31.508h-5.864v-34.792H525.664z M426.608,246.511
		h-23.621v-4.797h23.621V246.511z M398.257,234.054v-66.997h90.189l10.317,66.997H398.257z M503.041,325.094h-16.738
		c-4.733-9.012-15.03-15.464-15.03-15.464h31.769V325.094z M21.858,295.884H357.7l0.355-156.302H3.647l0.175,156.302v15.286
		C1.458,314.303,0,318.15,0,322.386v1.663c0,8.548,5.722,15.743,13.538,17.992c6.347-16.466,22.323-28.187,41.004-28.187
		c18.957,0,35.138,12.065,41.28,28.936h4.041c6.14-16.87,22.323-28.936,41.279-28.936c18.957,0,35.148,12.065,41.292,28.936h181.059
		v-39.136H21.858V295.884z M307.121,150.403h25.781v133.915h-25.781V150.403z M267.531,150.403h25.778v133.915h-25.778V150.403z
		 M227.443,150.403h25.776v133.915h-25.776V150.403z M187.846,150.403h25.776v133.915h-25.776V150.403z M149.896,150.403h25.776
		v133.915h-25.776V150.403z M110.302,150.403h25.776v133.915h-25.776V150.403z M70.198,150.403h25.776v133.915H70.198V150.403z
		 M30.604,150.403H56.38v133.915H30.604V150.403z M445.322,320.723c-18.028,0-32.689,14.665-32.689,32.679
		c0,18.024,14.661,32.689,32.689,32.689c18.014,0,32.679-14.665,32.679-32.689C478,335.388,463.325,320.723,445.322,320.723z
		 M445.322,376.09c-12.518,0-22.692-10.164-22.692-22.688c0-12.504,10.169-22.691,22.692-22.691
		c12.504,0,22.688,10.176,22.688,22.691C468,365.915,457.826,376.09,445.322,376.09z M139.698,320.723
		c-18.027,0-32.69,14.665-32.69,32.679c0,18.024,14.663,32.689,32.69,32.689c18.025,0,32.678-14.665,32.678-32.689
		C172.376,335.388,157.717,320.723,139.698,320.723z M139.698,376.09c-12.506,0-22.701-10.164-22.701-22.688
		c0-12.504,10.188-22.691,22.701-22.691c12.511,0,22.686,10.176,22.686,22.691C162.379,365.915,152.205,376.09,139.698,376.09z"/>
</g>
</svg>