<?xml version="1.0" encoding="UTF-8"?>
<!DOCTYPE svg PUBLIC "-//W3C//DTD SVG 1.1//EN" "http://www.w3.org/Graphics/SVG/1.1/DTD/svg11.dtd">
<!-- Creator: CorelDRAW -->
<svg xmlns="http://www.w3.org/2000/svg" xml:space="preserve" width="6.82666in" height="6.82666in" style="shape-rendering:geometricPrecision; text-rendering:geometricPrecision; image-rendering:optimizeQuality; fill-rule:evenodd; clip-rule:evenodd"
viewBox="0 0 6.82666 6.82666"
 xmlns:xlink="http://www.w3.org/1999/xlink">
 <defs>
  <style type="text/css">
   <![CDATA[
    .fil2 {fill:none}
    .fil1 {fill:#212121}
    .fil0 {fill:#212121;fill-rule:nonzero}
   ]]>
  </style>
 </defs>
 <g id="Layer_x0020_1">
  <metadata id="CorelCorpID_0Corel-Layer"/>
  <g id="_291041016">
   <path id="_291042048" class="fil0" d="M1.73672 2.26224c-0.0193268,-0.0106142 -0.0436063,-0.00354724 -0.0542205,0.0157795 -0.0106142,0.0193268 -0.00354724,0.0436063 0.0157795,0.0542205 0.000629921,0.000346457 0.215114,0.124295 0.645461,-0.196791 0.131783,-0.098311 0.257543,-0.141539 0.386732,-0.140969 0.131004,0.00057874 0.267811,0.0458268 0.419406,0.124232 0.243799,0.126083 0.61511,0.0885591 0.96724,0.0529764 0.234886,-0.0237362 0.461004,-0.0465906 0.627122,-0.0181614 0.181488,0.0310591 0.369083,0.186193 0.518339,0.372764 0.178677,0.223346 0.300693,0.48837 0.291677,0.639441 -0.0105591,0.176929 0.0240984,0.59548 0.106091,0.936965 0.0540787,0.22522 0.130228,0.419374 0.230591,0.497417 -0.00886614,0.0595748 -0.0466929,0.220732 -0.197299,0.232496 -0.157862,0.0123346 -0.311795,0.00670472 -0.383866,0.00273622 0.010563,-0.0472244 0.040874,-0.12198 0.127358,-0.132476 0.0349685,-0.00424016 0.0601969,-0.0152047 0.0771142,-0.0310945 0.0226929,-0.0213228 0.0296457,-0.0483268 0.0241535,-0.0785787 -0.00419685,-0.0231102 -0.0162638,-0.0475748 -0.0340827,-0.0717992 -0.043626,-0.0593228 -0.126941,-0.124283 -0.209697,-0.162067 -0.0489843,-0.0223622 -0.128783,-0.0817402 -0.211728,-0.16278 -0.0685945,-0.0670236 -0.138496,-0.148409 -0.193819,-0.235402 -0.0118189,-0.0186378 -0.0365197,-0.0241654 -0.0551575,-0.0123465 -0.0186378,0.0118189 -0.0241654,0.0365197 -0.0123465,0.0551575 0.0586496,0.0922244 0.132846,0.178598 0.205701,0.24978 0.0892756,0.0872244 0.177835,0.15235 0.234224,0.178094 0.0712047,0.0325079 0.142087,0.087311 0.178445,0.136752 0.0110039,0.0149606 0.0181339,0.0282795 0.0200197,0.0386732 0.000590551,0.00325197 0.000519685,0.00552756 -0.000397638,0.00638976 -0.00465354,0.00437008 -0.0148622,0.0077874 -0.0318071,0.00984252 -0.181331,0.0220079 -0.201106,0.214882 -0.203055,0.243634 -0.000102362,0.000751969 -0.000181102,0.00151181 -0.000240157,0.00227953 -0.0016811,0.0220236 0.014811,0.041248 0.0368346,0.0429291l0.00304724 -0.0398819 -0.0029685 0.0398425c0.000622047,4.72441e-005 0.21563,0.0173898 0.438205,0 0.240193,-0.0187638 0.270661,-0.294476 0.273362,-0.325866 0.00220472,-0.0156102 -0.00499606,-0.0317244 -0.0194567,-0.0401575l-0.0201535 0.0345512 0.02 -0.0345315c-0.0897402,-0.0523504 -0.162016,-0.239386 -0.215476,-0.462035 -0.0801929,-0.33398 -0.114165,-0.741929 -0.103909,-0.913839 0.0100827,-0.168937 -0.11926,-0.456421 -0.309173,-0.693811 -0.160142,-0.200177 -0.364575,-0.367169 -0.567087,-0.401827 -0.176319,-0.0301732 -0.407858,-0.00677559 -0.648374,0.0175315 -0.340709,0.0344291 -0.699976,0.0707362 -0.92287,-0.0445354 -0.162232,-0.0839055 -0.310508,-0.132343 -0.45565,-0.13298 -0.146949,-0.000645669 -0.288449,0.0473701 -0.434858,0.156591 -0.388744,0.290047 -0.558709,0.191126 -0.559209,0.190854z"/>
   <path id="_291041712" class="fil0" d="M4.86298 4.02178c0.0216575,-0.00422835 0.0357913,-0.0252205 0.031563,-0.046878 -0.00422835,-0.0216575 -0.0252205,-0.0357913 -0.046878,-0.031563 -0.0114882,0.00227953 -0.00184252,0.000448819 -0.0155551,0.00326378 -0.139398,0.0286535 -0.839252,0.1725 -1.27068,-0.0350197 -0.0198465,-0.00949213 -0.0436339,-0.00109843 -0.053126,0.018748 -0.00949213,0.0198465 -0.00109843,0.0436339 0.018748,0.053126 0.455598,0.219146 1.17725,0.0708189 1.32099,0.0412717 0.00132677,-0.000271654 -0.00444488,0.000897638 0.0149331,-0.00294882z"/>
   <path id="_291042336" class="fil0" d="M3.58369 3.94117c-0.00483071,-0.0214843 -0.0261732,-0.0349843 -0.0476575,-0.0301535 -0.0214843,0.00483071 -0.0349843,0.0261732 -0.0301535,0.0476575 0.0145315,0.0642913 0.0266575,0.13578 0.0308307,0.206902 0.00407087,0.0693386 0.0005,0.13815 -0.0160236,0.198941 -0.0357874,0.131626 -0.0849528,0.213465 -0.124594,0.279453 -0.035315,0.0587835 -0.063878,0.106343 -0.0728504,0.165039l-0.41215 0.00482677c0.0213858,-0.0385984 0.0679646,-0.0934252 0.168291,-0.13324 0.0289764,-0.0115 0.0500236,-0.0310827 0.0642047,-0.0570827 0.0216417,-0.0396811 0.0255787,-0.0932795 0.0167283,-0.154091 -0.00811417,-0.0557638 -0.0270866,-0.119142 -0.0526811,-0.183646 -0.0752598,-0.189654 -0.211748,-0.392902 -0.297776,-0.439819 -0.0142165,-0.00775197 -0.0267913,-0.0143583 -0.0413071,-0.0219803 -0.114579,-0.0601811 -0.343799,-0.180575 -0.458591,-0.323461 -0.0138071,-0.0171693 -0.0389252,-0.0199016 -0.0560945,-0.00609449 -0.0171693,0.0138071 -0.0199016,0.0389252 -0.00609449,0.0560945 0.125205,0.155846 0.36415,0.28135 0.483591,0.344083 0.0174764,0.00917717 0.0325276,0.0170827 0.0403701,0.0213583 0.0721929,0.039374 0.19228,0.223913 0.261839,0.399197 0.0232677,0.0586339 0.0404488,0.115815 0.0476811,0.16552 0.0065,0.0446654 0.00499213,0.0815039 -0.00766535,0.104713 -0.0052874,0.00969291 -0.0130276,0.0169567 -0.0235827,0.0211457 -0.199827,0.0792992 -0.231799,0.220555 -0.235268,0.239693 -0.000570866,0.00277165 -0.000862205,0.00564961 -0.000826772,0.00859449 0.000255906,0.0220866 0.018378,0.0397835 0.0404646,0.0395276l0 -0.000153543 0.502843 -0.00588976c0.00101575,7.87402e-005 0.00203937,0.00011811 0.0030748,0.00011811 0.0220906,0 0.04,-0.0179094 0.04,-0.04 0,-0.0565866 0.0279094,-0.103039 0.0642402,-0.163516 0.0423386,-0.0704803 0.0948543,-0.157894 0.133343,-0.299453 0.0189134,-0.0695709 0.0230669,-0.147079 0.0185197,-0.224563 -0.00444488,-0.075689 -0.0172992,-0.151563 -0.0327047,-0.21972z"/>
   <path id="_291041880" class="fil0" d="M2.26309 3.56208c0.0201929,0.0087126 0.0436299,-0.000590551 0.0523425,-0.0207835 0.0087126,-0.0201929 -0.000590551,-0.0436299 -0.0207835,-0.0523425 -0.00188583,-0.000814961 -0.655539,-0.285673 -0.934035,-0.14572 -0.072563,0.0364685 -0.120528,0.0512205 -0.150811,0.053189 -0.00632677,0.000409449 -0.0110669,0.000314961 -0.0144646,-0.000173228 0.000409449,-0.00151181 0.000724409,-0.00302362 0.000952756,-0.00453937 0.00777953,-0.0329134 0.0363858,-0.0730157 0.0789567,-0.109213 0.0409528,-0.034815 0.0938701,-0.064748 0.153083,-0.0803701 0.021315,-0.0056063 0.0340433,-0.027437 0.028437,-0.048752 -0.0056063,-0.021315 -0.027437,-0.0340433 -0.048752,-0.028437 -0.0714764,0.0188622 -0.135169,0.0548307 -0.184327,0.096622 -0.0565236,0.0480591 -0.0950118,0.105268 -0.105811,0.155146 -0.00366929,0.0129094 -0.00460236,0.0264173 -0.00198031,0.0393937 0.00398031,0.0196811 0.0151417,0.0369409 0.0356457,0.0483819 0.0155866,0.00868898 0.0363937,0.013374 0.0632598,0.011626 0.0396024,-0.00257874 0.0980984,-0.0197402 0.181433,-0.061622 0.245142,-0.123193 0.865067,0.146823 0.866854,0.147594z"/>
   <path id="_291041592" class="fil0" d="M1.1879 3.41027c0.0138937,-0.0170827 0.0113031,-0.0422008 -0.00577953,-0.0560945 -0.0170827,-0.0138937 -0.0422008,-0.0113031 -0.0560945,0.00577953 -8.66142e-005,0.000106299 -0.0315315,0.0396772 -0.0764213,-0.0235827 -0.0259409,-0.0365551 -0.0538307,-0.0609764 -0.0775709,-0.0817598 -0.0324331,-0.0283976 -0.0522126,-0.0457205 -0.0117835,-0.101697 0.0242126,-0.0335315 0.0505787,-0.0615591 0.0763898,-0.0890079 0.0684252,-0.0727559 0.133394,-0.141835 0.170067,-0.308957 0.00908268,-0.0413976 0.0270827,-0.0752756 0.0496732,-0.102933 0.0287677,-0.0352244 0.0652402,-0.0609252 0.100642,-0.0794685 0.0195,-0.0101811 0.0270551,-0.034248 0.016874,-0.053748 -0.0101811,-0.0195 -0.034248,-0.0270551 -0.053748,-0.016874 -0.0437362,0.0229094 -0.0891181,0.0550591 -0.125642,0.0997756 -0.0300276,0.0367559 -0.0539173,0.0816575 -0.0659252,0.136374 -0.031937,0.145539 -0.0894724,0.206717 -0.150067,0.271146 -0.0272835,0.0290118 -0.0551535,0.0586378 -0.0829488,0.0971339 -0.0828543,0.11472 -0.0423976,0.150154 0.0239646,0.208256 0.0204094,0.0178701 0.0443976,0.0388701 0.0650748,0.0680118 0.106051,0.149449 0.20302,0.0279882 0.203295,0.0276457z"/>
   <path id="_291041904" class="fil0" d="M2.31684 3.51333c-0.00672835,-0.0209685 -0.029189,-0.0325079 -0.0501575,-0.0257795 -0.0209685,0.00672835 -0.0325079,0.029189 -0.0257795,0.0501575 0.000488189,0.00151575 0.172996,0.525807 -0.00129528,0.784047l-3.54331e-005 -2.3622e-005c-0.00620079,0.00918898 -0.00807087,0.0200276 -0.00608661,0.0301063 0.00291339,0.0199685 0.0261181,0.188969 -0.0212913,0.209583 -0.0431299,0.018752 -0.128307,0.0812323 -0.176559,0.143319 -0.0190315,0.0244921 -0.0332795,0.0499764 -0.0389803,0.0747087 -0.00740551,0.032122 -0.00148425,0.0617205 0.0235039,0.0859055 0.0178543,0.0172795 0.045437,0.0300079 0.0852205,0.0361772 0.203961,0.0316417 0.458382,0.00724409 0.459118,0.00717717l-0.00359449 -0.039689 0.0036811 0.0398307c0.0159724,-0.00147638 0.028878,-0.0121535 0.0339724,-0.026311 0.00931102,-0.0235079 0.159693,-0.399134 0.292984,-0.468811 0.181819,-0.0950394 0.0750197,-0.394244 0.0747205,-0.395106 -0.00716142,-0.0207953 -0.0298307,-0.0318504 -0.050626,-0.024689 -0.0207953,0.00716142 -0.0318504,0.0298307 -0.024689,0.050626 0.000232283,0.000673228 0.0837835,0.235791 -0.0362795,0.298547 -0.141614,0.0740236 -0.284343,0.398626 -0.321594,0.488224 -0.0665827,0.00498819 -0.25789,0.0159016 -0.415504,-0.00854724 -0.022189,-0.00344094 -0.0354646,-0.0085 -0.0417874,-0.0146181 -0.00220866,-0.0021378 -0.00244094,-0.00600787 -0.00131496,-0.0109055 0.00283071,-0.0122874 0.0118071,-0.0273858 0.0242953,-0.0434567 0.0406575,-0.052315 0.110484,-0.104118 0.145307,-0.119256 0.0916339,-0.0398425 0.0766693,-0.226476 0.0701929,-0.281122 0.182378,-0.294063 0.00309449,-0.838496 0.00257874,-0.840094z"/>
   <path id="_291041952" class="fil0" d="M5.09299 4.26656c0.0153583,-0.0157913 0.0150079,-0.0410472 -0.000783465,-0.0564055 -0.0157913,-0.0153583 -0.0410472,-0.0150079 -0.0564055,0.000783465 -0.0148661,0.0152008 -0.0314055,0.030752 -0.0497323,0.0463543 -0.0164921,0.0140394 -0.035878,0.0292598 -0.0585984,0.0457126 -0.139177,0.100764 -0.119169,0.250925 -0.102665,0.374776 0.00851969,0.0639567 0.0158504,0.118976 -0.00310236,0.137425 -0.0694528,0.0675984 -0.595311,-0.0104252 -0.598713,-0.0109291l7.87402e-006 -4.72441e-005c-0.0010748,-0.00015748 -0.00214567,-0.000271654 -0.00320866,-0.00034252 -0.00624016,-0.00157087 -0.0276181,-0.0137992 0.120803,-0.10513 0.138677,-0.0853465 0.118264,-0.171531 0.0555866,-0.273378 -0.0119331,-0.0193937 -0.0273189,-0.0416772 -0.0433976,-0.0649606 -0.0570669,-0.0826614 -0.124016,-0.179638 -0.116862,-0.295169 0.00129134,-0.0220039 -0.0154961,-0.0408937 -0.0375,-0.042185 -0.0220039,-0.00129134 -0.0408937,0.0154961 -0.042185,0.0375 -0.00883465,0.14272 0.0666102,0.252012 0.130925,0.345169 0.0142638,0.0206535 0.0279173,0.0404291 0.0408937,0.0615197 0.0380827,0.061878 0.0511339,0.113858 -0.0293346,0.163378 -0.344976,0.212291 -0.120705,0.248543 -0.0890472,0.252461 0.000547244,0.000106299 0.00109449,0.00019685 0.00164961,0.000279528l1.1811e-005 -8.26772e-005 5.11811e-005 3.93701e-006 -3.93701e-006 3.93701e-005c0.00162598,0.00023622 0.567787,0.0845984 0.665945,-0.010937 0.0476654,-0.0463898 0.0378976,-0.119705 0.0265433,-0.204929 -0.0136654,-0.102543 -0.0302283,-0.226862 0.0704764,-0.299776 0.022315,-0.0161575 0.0434213,-0.0328701 0.0632835,-0.0497756 0.0214134,-0.0182283 0.0397283,-0.0353701 0.0553622,-0.0513543z"/>
   <path id="_291042312" class="fil0" d="M1.71982 2.434c0.00155118,0.0220039 0.0206496,0.0385827 0.0426535,0.0370315 0.0220039,-0.00155118 0.0385827,-0.0206496 0.0370315,-0.0426535 -0.00188583,-0.0263504 -0.00677953,-0.0520039 -0.014248,-0.0764685 -0.00768898,-0.0252008 -0.0181063,-0.0488661 -0.0307835,-0.0705 -0.0255079,-0.0435276 -0.0602283,-0.079126 -0.100508,-0.10298 -0.0399449,-0.0236535 -0.085311,-0.0358858 -0.132728,-0.0331811l0.00218898 0.0398425 -0.00227953 -0.0399331c-0.000917323,5.11811e-005 -0.00182283,0.000141732 -0.00272441,0.000251969l-0.000212598 1.1811e-005 0 1.1811e-005 -4.33071e-005 3.93701e-006 -3.93701e-006 -9.05512e-005c-0.000937008,5.90551e-005 -0.00186614,0.000149606 -0.00278346,0.000275591 -0.0699252,0.00579134 -0.130417,0.0432559 -0.172165,0.0997677 -0.0408307,0.0552677 -0.0636339,0.128917 -0.0591063,0.208283l0.000291339 0.00517717c0.00112992,0.0157913 0.00335039,0.0314213 0.00656693,0.0467559 0.00319685,0.0152835 0.00751575,0.0303976 0.0128189,0.0451969 0.00409055,0.0114094 0.00829921,0.021626 0.0125866,0.0306339 0.00453937,0.00953543 0.00980315,0.0192126 0.0157244,0.0289488 0.0114724,0.018811 0.0360315,0.0247559 0.0548425,0.0132835 0.018811,-0.0114724 0.0247559,-0.0360315 0.0132835,-0.0548425 -0.00395669,-0.00650787 -0.00785827,-0.0137756 -0.0116614,-0.0217677 -0.00396457,-0.00833071 -0.00724803,-0.0160709 -0.00977559,-0.0231299 -0.00387795,-0.0108228 -0.00714173,-0.022374 -0.00969291,-0.0345748 -0.00241732,-0.0115354 -0.00411024,-0.0236063 -0.00500787,-0.036126l-0.000291339 -0.00393307c-0.00344488,-0.0603504 0.0133425,-0.115602 0.0434843,-0.156402 0.0283622,-0.0383976 0.0686417,-0.063811 0.114508,-0.0676496l0.00147244 -6.29921e-005 -3.93701e-006 -5.51181e-005 0.000267717 -1.9685e-005 0 -1.5748e-005c0.000724409,-3.93701e-006 0.00145276,-2.3622e-005 0.00218504,-6.69291e-005l-3.93701e-006 -7.48031e-005 0.000224409 -1.5748e-005 0 -1.5748e-005c0.0309055,-0.00169685 0.0607992,0.00650394 0.0874173,0.0222598 0.0287795,0.0170472 0.0537874,0.0428189 0.0723819,0.0745472 0.00958661,0.0163622 0.0174685,0.0342598 0.0232795,0.053311 0.00561417,0.0183858 0.00932677,0.0381457 0.010815,0.0589646z"/>
   <circle id="_291041064" class="fil1" cx="1.38741" cy="2.80678" r="0.04"/>
  </g>
 </g>
 <rect class="fil2" width="6.82666" height="6.82666"/>
</svg>
