<?xml version="1.0" encoding="UTF-8"?>
<!DOCTYPE svg PUBLIC "-//W3C//DTD SVG 1.1//EN" "http://www.w3.org/Graphics/SVG/1.1/DTD/svg11.dtd">
<!-- Creator: CorelDRAW -->
<svg xmlns="http://www.w3.org/2000/svg" xml:space="preserve" width="6.82666in" height="6.82666in" style="shape-rendering:geometricPrecision; text-rendering:geometricPrecision; image-rendering:optimizeQuality; fill-rule:evenodd; clip-rule:evenodd"
viewBox="0 0 6.82666 6.82666"
 xmlns:xlink="http://www.w3.org/1999/xlink">
 <defs>
  <style type="text/css">
   <![CDATA[
    .fil2 {fill:none}
    .fil1 {fill:#212121}
    .fil0 {fill:#212121;fill-rule:nonzero}
   ]]>
  </style>
 </defs>
 <g id="Layer_x0020_1">
  <metadata id="CorelCorpID_0Corel-Layer"/>
  <g id="_291043704">
   <path id="_291045408" class="fil0" d="M1.58286 2.44032c-0.00983465,-0.0196732 -0.0337638,-0.0276496 -0.053437,-0.017815 -0.0196732,0.00983465 -0.0276496,0.0337638 -0.017815,0.053437 0.0953071,0.190626 0.116063,0.362307 0.137031,0.535756 0.0263465,0.217949 0.0530276,0.438606 0.221083,0.707287 0.159823,0.255535 0.428488,0.511744 0.875055,0.652165 0.34313,0.107898 0.791657,0.147213 1.37704,0.0644016 0.219327,0.029252 0.413362,0.0663425 0.612807,0.113772 0.202087,0.0480551 0.407657,0.106193 0.649461,0.177244l0.011252 -0.0382795 -0.0112756 0.038378c0.0211929,0.00622441 0.0434291,-0.00590945 0.0496535,-0.0271024 0.00335433,-0.0114173 0.00137402,-0.0231339 -0.00447244,-0.0324882 -0.0242756,-0.0442087 -0.0445157,-0.08 -0.058689,-0.105075l-0.034689 0.0195315 0.0348189 -0.019685c-0.0005,-0.00088189 -0.00102756,-0.00174016 -0.00158268,-0.00257087 -0.012252,-0.0216732 -0.019126,-0.0338976 -0.0261654,-0.0479055 -0.00437402,-0.0087126 -0.00926378,-0.0189528 -0.0158858,-0.0331772 0.146909,0.122732 0.383744,0.30224 0.592689,0.377783l0.0135945 -0.0375 -0.0136024 0.0376181c0.0207756,0.00751181 0.0437087,-0.00324016 0.0512205,-0.0240157 0.00567323,-0.015685 0.000933071,-0.0325984 -0.0106732,-0.0431772 -0.698307,-0.772535 -1.33544,-1.34264 -1.9073,-1.76634 -0.573657,-0.425043 -1.08189,-0.703075 -1.5205,-0.890472 -0.0321496,-0.0137323 -0.0613307,-0.0305827 -0.086122,-0.0508583 -0.0223268,-0.0182598 -0.0409409,-0.0392205 -0.0547126,-0.0630709 -0.0110433,-0.0190709 -0.0354606,-0.0255748 -0.0545315,-0.0145315 -0.0190709,0.0110433 -0.0255748,0.0354606 -0.0145315,0.0545315 0.018878,0.0326929 0.0437362,0.0608858 0.0731535,0.0849449 0.0305984,0.0250276 0.0663228,0.0456929 0.105492,0.0624252 0.433661,0.185283 0.93639,0.460346 1.50425,0.881094 0.53126,0.39363 1.11935,0.914559 1.76096,1.60831 -0.25324,-0.145213 -0.49952,-0.374303 -0.524516,-0.397799 -0.0114291,-0.0124685 -0.0300236,-0.0167441 -0.0462126,-0.00929134 -0.0200669,0.00923622 -0.0288425,0.0329961 -0.0196063,0.053063l0.0363346 -0.0167283 -0.036252 0.0167205c0.0346378,0.0752362 0.0424488,0.0922835 0.0485315,0.105567 0.0250472,0.054689 0.0365315,0.0797559 0.0469606,0.100524 0.0089252,0.0177717 0.0158386,0.0300866 0.0279921,0.0515748 0.00042126,0.000893701 0.000877953,0.00177559 0.00137008,0.00264961l9.84252e-005 -5.51181e-005 3.14961e-005 5.90551e-005 6.69291e-005 -3.93701e-005c0.00340551,0.00602756 0.00729528,0.0129055 0.0121575,0.0215748 -0.205201,-0.0596929 -0.385134,-0.109583 -0.560335,-0.151244 -0.201177,-0.0478386 -0.398228,-0.0853976 -0.623039,-0.115307 -0.00454331,-0.000996063 -0.00933858,-0.0012126 -0.0142126,-0.000519685l7.87402e-006 6.69291e-005c-0.574976,0.0819409 -1.01343,0.044126 -1.3473,-0.0608543 -0.424815,-0.133583 -0.679736,-0.376268 -0.830992,-0.618102 -0.158634,-0.253622 -0.184236,-0.465346 -0.209516,-0.674476 -0.0217677,-0.180067 -0.0433189,-0.358307 -0.145157,-0.562z"/>
   <path id="_291044688" class="fil0" d="M1.52671 2.49243c0.0194134,0.0104409 0.043622,0.00316142 0.054063,-0.016252 0.0104409,-0.0194134 0.00316142,-0.043622 -0.016252,-0.054063 -0.0818701,-0.044126 -0.150398,-0.109803 -0.197953,-0.189406 -0.0458543,-0.0767559 -0.0722087,-0.166701 -0.0722087,-0.262976 0,-0.141795 0.0574724,-0.270169 0.150386,-0.363087 0.0929134,-0.0929134 0.221287,-0.150386 0.363083,-0.150386 0.141795,0 0.270169,0.0574724 0.363083,0.150386 0.0929134,0.0929173 0.150386,0.221291 0.150386,0.363087 0,0.011937 -0.000326772,0.0229724 -0.000968504,0.0330866 -0.000748031,0.0117953 -0.00177559,0.022752 -0.00306693,0.0328543 -0.00275984,0.0218307 0.0127008,0.0417717 0.0345315,0.0445315 0.0218307,0.00275984 0.0417717,-0.0127008 0.0445315,-0.0345315 0.00168898,-0.0132402 0.00292913,-0.0258819 0.00368898,-0.0378543 0.000850394,-0.0134094 0.00128346,-0.0261181 0.00128346,-0.0380866 0,-0.163878 -0.0664331,-0.312244 -0.173827,-0.419646 -0.107394,-0.107394 -0.255776,-0.173827 -0.419642,-0.173827 -0.163866,0 -0.312248,0.0664331 -0.419642,0.173827 -0.107394,0.107402 -0.173827,0.255768 -0.173827,0.419646 0,0.110902 0.0305709,0.214866 0.0837677,0.303913 0.0549528,0.0919921 0.134083,0.16785 0.228583,0.218783z"/>
   <path id="_291044496" class="fil0" d="M1.27405 2.00442c0.0191575,-0.0108701 0.0258701,-0.0352205 0.015,-0.054378 -0.0108701,-0.0191575 -0.0352205,-0.0258701 -0.054378,-0.015l-0.361031 0.205291 0.019689 0.034689 -0.0197717 -0.0347717c-0.0192008,0.0109173 -0.0259173,0.0353425 -0.015,0.0545433 0.00672835,0.0118307 0.0185787,0.0189213 0.0311811,0.0200669l0.435886 0.0780512c0.0216575,0.00388189 0.0423701,-0.0105315 0.046252,-0.032189 0.00388189,-0.0216575 -0.0105315,-0.0423701 -0.032189,-0.046252l-0.33085 -0.0592441 0.265213 -0.150807z"/>
   <circle id="_291044232" class="fil1" cx="1.6856" cy="1.7663" r="0.0514845"/>
   <path id="_291044016" class="fil0" d="M3.65444 4.44378c0,-0.0220906 -0.0179094,-0.04 -0.04,-0.04 -0.0220906,0 -0.04,0.0179094 -0.04,0.04l0 0.740402c0,0.0220906 0.0179094,0.04 0.04,0.04 0.0220906,0 0.04,-0.0179094 0.04,-0.04l0 -0.740402z"/>
   <path id="_291043896" class="fil0" d="M3.25446 5.05593c-0.0214016,-0.00517323 -0.0429528,0.00797638 -0.048126,0.029378 -0.00517323,0.0214016 0.00797638,0.0429528 0.029378,0.048126l0.279343 0.067689 -0.271087 0.175839c-0.0184646,0.0119921 -0.0237087,0.0366929 -0.0117165,0.0551575 0.0119921,0.0184646 0.0366929,0.0237087 0.0551575,0.0117165l0.346067 -0.224472c0.00961024,-0.00520472 0.017063,-0.0143031 0.0198386,-0.0257598 0.00520079,-0.0214685 -0.00798425,-0.0430945 -0.0294528,-0.0482953l-0.00942126 0.038874 0.00937402 -0.038752 -0.369354 -0.0895z"/>
   <path id="_291044112" class="fil0" d="M3.62287 5.22324c0.0215709,-0.00465748 0.0352835,-0.0259291 0.030626,-0.0475 -0.00465748,-0.0215709 -0.0259291,-0.0352835 -0.0475,-0.030626l-0.542996 0.117177c-0.0215709,0.00465748 -0.0352835,0.0259291 -0.030626,0.0475 0.00465748,0.0215709 0.0259291,0.0352835 0.0475,0.030626l0.542996 -0.117177z"/>
   <path id="_291043992" class="fil0" d="M3.13549 4.40438c0,-0.0220906 -0.0179094,-0.04 -0.04,-0.04 -0.0220906,0 -0.04,0.0179094 -0.04,0.04l0 0.548984c0,0.0220906 0.0179094,0.04 0.04,0.04 0.0220906,0 0.04,-0.0179094 0.04,-0.04l0 -0.548984z"/>
   <path id="_291044352" class="fil0" d="M2.78279 4.83418c-0.0214016,-0.00517323 -0.0429528,0.00797638 -0.048126,0.029378 -0.00517323,0.0214016 0.00797638,0.0429528 0.029378,0.048126l0.232063 0.0562283 -0.226445 0.146886c-0.0184646,0.0119921 -0.0237087,0.0366929 -0.0117165,0.0551575 0.0119921,0.0184646 0.0366929,0.0237087 0.0551575,0.0117165l0.301425 -0.19552c0.00961024,-0.00520472 0.017063,-0.0143031 0.0198386,-0.0257598 0.00520079,-0.0214685 -0.00798425,-0.0430945 -0.0294528,-0.0482953l-0.00942126 0.038874 0.00937402 -0.038752 -0.322075 -0.0780394z"/>
   <path id="_291044592" class="fil0" d="M3.10393 4.99004c0.0215709,-0.00465748 0.0352835,-0.0259291 0.030626,-0.0475 -0.00465748,-0.0215709 -0.0259291,-0.0352835 -0.0475,-0.030626l-0.473488 0.102181c-0.0215709,0.00465748 -0.0352835,0.0259291 -0.030626,0.0475 0.00465748,0.0215709 0.0259291,0.0352835 0.0475,0.030626l0.473488 -0.102181z"/>
   <path id="_291043920" class="fil0" d="M2.3954 2.05098c0.00569291,-0.021315 -0.0069685,-0.0432126 -0.0282835,-0.0489055 -0.021315,-0.00569291 -0.0432126,0.0069685 -0.0489055,0.0282835 -0.00148819,0.00556693 -0.53552,1.94266 1.05454,1.8513 0.381622,-0.0219252 0.695854,-0.0195591 0.944169,-0.00668504 0.462004,0.0239567 0.686476,0.0800236 0.694984,0.0859488 0.0181181,0.0125945 0.0430276,0.00811811 0.055622,-0.01 0.0125945,-0.0181181 0.00811811,-0.0430276 -0.01,-0.055622 -0.0105394,-0.00733858 -0.257272,-0.0751614 -0.736543,-0.100012 -0.250846,-0.0130039 -0.567992,-0.0154094 -0.95261,0.00668504 -1.47884,0.0849724 -0.974374,-1.74572 -0.972969,-1.75099z"/>
   <path id="_291044520" class="fil0" d="M2.31154 2.48212c-0.0116496,-0.0187244 -0.0362756,-0.0244606 -0.055,-0.012811 -0.0187244,0.0116496 -0.0244606,0.0362756 -0.012811,0.055 0.63326,1.01579 0.962303,0.972122 1.40469,0.913402 0.237035,-0.0314567 0.508386,-0.0674724 0.885035,0.0719528 0.0207087,0.00759449 0.0436575,-0.00303937 0.051252,-0.023748 0.00759449,-0.0207087 -0.00303937,-0.0436575 -0.023748,-0.051252 -0.394709,-0.14611 -0.67661,-0.108697 -0.922854,-0.0760157 -0.413185,0.0548425 -0.720512,0.0956299 -1.32657,-0.876528z"/>
  </g>
 </g>
 <rect class="fil2" width="6.82666" height="6.82666"/>
</svg>
