<?xml version="1.0" encoding="UTF-8"?>
<!DOCTYPE svg PUBLIC "-//W3C//DTD SVG 1.1//EN" "http://www.w3.org/Graphics/SVG/1.1/DTD/svg11.dtd">
<!-- Creator: CorelDRAW -->
<svg xmlns="http://www.w3.org/2000/svg" xml:space="preserve" width="6.82666in" height="6.82666in" style="shape-rendering:geometricPrecision; text-rendering:geometricPrecision; image-rendering:optimizeQuality; fill-rule:evenodd; clip-rule:evenodd"
viewBox="0 0 6.82666 6.82666"
 xmlns:xlink="http://www.w3.org/1999/xlink">
 <defs>
  <style type="text/css">
   <![CDATA[
    .fil1 {fill:none}
    .fil0 {fill:#212121;fill-rule:nonzero}
   ]]>
  </style>
 </defs>
 <g id="Layer_x0020_1">
  <metadata id="CorelCorpID_0Corel-Layer"/>
  <path class="fil0" d="M2.92503 2.45131c-0.00716142,-0.0207953 -0.0298307,-0.0318504 -0.050626,-0.024689 -0.0207953,0.00716142 -0.0318504,0.0298307 -0.024689,0.050626 0.139453,0.401787 0.461343,0.528957 0.80372,0.664209 0.312366,0.123394 0.642579,0.253894 0.851016,0.61552l0.00672047 0.0117559c0.1165,0.207437 0.171697,0.443606 0.183063,0.670898 0.0135669,0.271303 -0.0351417,0.529043 -0.116516,0.709949l0.072811 0.032811c0.0860315,-0.19126 0.137598,-0.462402 0.12339,-0.746508 -0.0116811,-0.233701 -0.0677638,-0.476819 -0.185583,-0.692484l3.93701e-006 -3.93701e-006 -0.00019685 -0.000350394c-0.0034252,-0.00627165 -0.00690551,-0.0125236 -0.010437,-0.0187441 -0.00065748,-0.00116142 -0.00137008,-0.00227559 -0.00212205,-0.00334252l0.00195276 0.00343701 0.000169291 -9.44882e-005c-0.00372441,-0.00655906 -0.00748425,-0.0130276 -0.0112756,-0.0194449l-0.000307087 -0.00053937 -1.9685e-005 0c-0.222563,-0.376205 -0.562012,-0.510319 -0.883291,-0.637236 -0.32498,-0.128382 -0.630516,-0.249087 -0.757783,-0.615768zm1.49109 3.03066c0.0159606,-0.015185 0.0165906,-0.0404449 0.00140551,-0.0564055 -0.015185,-0.0159606 -0.0404449,-0.0165906 -0.0564055,-0.00140551 -0.0448189,0.0425669 -0.0921378,0.0787283 -0.141276,0.10452 -0.0477677,0.0250748 -0.0974567,0.0405276 -0.148441,0.0426417 -0.383776,0.0159921 -1.26489,0.00261811 -1.40684,0.000322835 -0.0340984,-0.0537953 -0.109744,-0.26165 0.631772,-0.400362 0.0216575,-0.00405512 0.0359331,-0.0249055 0.031878,-0.046563 -0.00405512,-0.0216575 -0.0249055,-0.0359331 -0.046563,-0.031878 -0.943374,0.176472 -0.69911,0.506248 -0.669795,0.541583 0.00711417,0.00994094 0.0186772,0.0165039 0.0318386,0.0167323l0.000700787 -0.0399921 -0.000625984 0.0398425c0.00291339,5.11811e-005 1.01202,0.0174488 1.43076,0 0.0634921,-0.00263386 0.12439,-0.0213622 0.182189,-0.0517047 0.056437,-0.029622 0.109717,-0.0701417 0.159402,-0.117331z"/>
  <path class="fil0" d="M1.72039 2.73633c0.000255906,-0.0220039 -0.0173701,-0.0400551 -0.039374,-0.040311 -0.0220039,-0.000255906 -0.0400551,0.0173701 -0.040311,0.039374 -0.00191339,0.127831 -0.0185512,0.253638 -0.0352165,0.379689 -0.057185,0.432555 -0.114657,0.868039 0.388071,1.45536 -0.00811417,0.0971417 -0.0566969,0.602248 -0.19065,0.616224 -0.0805906,0.00840945 -0.160913,0.0588425 -0.210516,0.123413 -0.0243583,0.0317087 -0.0417756,0.0672835 -0.0488504,0.103634 -0.00751181,0.0385984 -0.00339764,0.0777913 0.0161142,0.114248 0.0250945,0.0469016 0.0752441,0.087378 0.158575,0.11263 0.305976,0.0927244 0.52124,-0.057 0.521866,-0.0574252l4.72441e-005 7.08661e-005c0.00875984,-0.00597638 0.0143937,-0.0148268 0.0165079,-0.0244291l0.296181 -0.930843c0.112591,-0.013626 0.597165,-0.0392795 0.696941,0.511118l0.0784409 -0.014063c-0.118161,-0.651811 -0.71524,-0.587063 -0.801988,-0.574122 -0.00629528,0.000940945 -0.0132126,0.00172441 -0.0190866,0.00416929 -0.00762598,0.00316535 -0.0142402,0.00866929 -0.0187047,0.0159173 -0.0016811,0.00272047 -0.00762598,0.0206142 -0.00895669,0.0247992l-0.295382 0.928335c-0.0434134,0.0255827 -0.211886,0.110177 -0.44274,0.0402205 -0.0609055,-0.0184567 -0.0957953,-0.0447402 -0.111386,-0.0738819 -0.0101772,-0.0190157 -0.0121654,-0.0402717 -0.00798819,-0.0617441 0.00461417,-0.0237205 0.0167047,-0.0478701 0.0338504,-0.0701929 0.0372992,-0.0485512 0.0965827,-0.0863622 0.155201,-0.0924764 0.208547,-0.0217598 0.260118,-0.661465 0.263315,-0.703854 0.00137402,-0.0108819 -0.00170079,-0.0222835 -0.00944882,-0.0312244l-9.05512e-005 7.87402e-005c-0.491169,-0.566768 -0.435528,-0.987618 -0.38026,-1.40565 0.016937,-0.128106 0.0338425,-0.255969 0.0358386,-0.389067z"/>
  <path class="fil0" d="M4.62285 5.12789c-0.0214843,-0.00509055 -0.0430354,0.00820079 -0.048126,0.029685 -0.00509055,0.0214843 0.00820079,0.0430354 0.029685,0.048126 0.0201811,0.00478346 0.0384094,0.0093622 0.0581339,0.014311 0.103953,0.0260827 0.245748,0.0616732 0.371622,0.0653858 0.161803,0.00477559 0.295035,-0.0415236 0.300209,-0.215354l0.000145669 3.93701e-006c6.29921e-005,-0.00208661 -3.93701e-005,-0.00414173 -0.000287402,-0.00614961 -0.00798031,-0.22528 -0.119394,-0.723213 -0.198425,-1.07639 -0.0384449,-0.171819 -0.0691535,-0.309024 -0.0759606,-0.360949 -0.0131142,-0.100047 -0.0175669,-0.197894 -0.00861417,-0.290988 0.00880709,-0.0915906 0.0306732,-0.178732 0.0701929,-0.258996 0.0144488,-0.0293465 0.0313701,-0.056185 0.0502795,-0.0805118 0.0195512,-0.0251535 0.0410433,-0.0473307 0.0639685,-0.0665591 0.0244843,-0.0205354 0.0504567,-0.0376969 0.0773465,-0.0515472 0.0276181,-0.0142244 0.0565315,-0.0250866 0.0861024,-0.0326496 0.047122,-0.0120394 0.0958622,-0.0157165 0.143535,-0.0109646 0.0470315,0.00468898 0.0932362,0.0175512 0.136043,0.038626 0.0246024,0.0121102 0.0479606,0.0268661 0.0695591,0.044185 0.0212874,0.0170709 0.0407638,0.0364016 0.0579331,0.0578819 0.0165079,0.0206457 0.0312047,0.0436614 0.0436969,0.0689764 0.0118465,0.024 0.0215669,0.0501654 0.0287953,0.0784331 0.017622,0.0689213 0.0183346,0.140169 0.00755118,0.210461 -0.0128701,0.0838858 -0.0419331,0.16622 -0.0782756,0.241787 -0.0103071,0.0214843 -0.028374,0.0367756 -0.0492402,0.0441063 -0.0209803,0.00737402 -0.0447323,0.00677559 -0.0662638,-0.00353937l7.08661e-005 -0.000149606c-0.000917323,-0.000440945 -0.00183858,-0.000838583 -0.00277165,-0.00120079 -0.0200906,-0.0104921 -0.0344252,-0.0279173 -0.0414488,-0.0479134 -0.00737402,-0.0209764 -0.00677165,-0.0447205 0.00354331,-0.066252l0.000145669 7.08661e-005c0.000535433,-0.00111811 0.00101181,-0.00224803 0.00143701,-0.00338976 0.0294882,-0.0620394 0.0608504,-0.148339 0.0662165,-0.231386 0.00425984,-0.0659173 -0.00763386,-0.130232 -0.0483937,-0.18128l9.84252e-005 -7.87402e-005 -6.69291e-005 -8.66142e-005 5.90551e-005 -4.72441e-005c-0.000551181,-0.000688976 -0.00111811,-0.00135039 -0.00170472,-0.00198819l-0.00136614 -0.00165748c-0.0400866,-0.0477953 -0.097126,-0.0715787 -0.155657,-0.074 -0.057,-0.00235433 -0.115839,0.0159606 -0.16139,0.0523701l-0.000133858 -0.000149606c-0.000783465,0.000625984 -0.00153543,0.00127559 -0.00225984,0.00194488l-0.00181102 0.00147638c-0.013878,0.0116378 -0.0269882,0.0253189 -0.0390354,0.0410866 -0.0112835,0.0147756 -0.0216142,0.0313976 -0.0307244,0.0499055 -0.0316417,0.0642598 -0.0486575,0.136185 -0.0548701,0.21324 -0.00603543,0.0749213 -0.00178346,0.15524 0.00911024,0.23835 0.0139921,0.106724 0.0518465,0.259917 0.0950906,0.434929 0.125189,0.506654 0.296799,1.20117 0.0512244,1.39083 -0.0501063,0.0387126 -0.10474,0.0675591 -0.162551,0.0860118 -0.0577913,0.0184449 -0.119071,0.0266535 -0.182492,0.024126 -0.0654724,-0.00261417 -0.182236,-0.0175315 -0.312587,-0.0430118 -0.104394,-0.0204016 -0.216657,-0.0474843 -0.316933,-0.0802795 -0.0209685,-0.00681496 -0.0434961,0.00465748 -0.050311,0.025626 -0.00681496,0.0209685 0.00465748,0.0434961 0.025626,0.050311 0.103953,0.0339961 0.219406,0.0618898 0.326303,0.0827835 0.133583,0.0261142 0.255185,0.0414803 0.324776,0.0442559 0.0725866,0.0028937 0.142996,-0.00659055 0.209681,-0.027874 0.0669528,-0.0213701 0.129886,-0.0545118 0.187236,-0.0988228 0.28678,-0.22148 0.107969,-0.945122 -0.0224685,-1.47302 -0.0427756,-0.173118 -0.0802205,-0.324646 -0.0935315,-0.426181 -0.0101417,-0.0773622 -0.0141024,-0.15211 -0.00848819,-0.221783 0.00544488,-0.0675472 0.0199606,-0.12978 0.0467441,-0.184177 0.00675984,-0.0137323 0.0143583,-0.0259803 0.0226063,-0.0367795 0.00830709,-0.010874 0.0173307,-0.0202913 0.0268465,-0.0282756l0.00111024 -0.000925197c0.000562992,-0.000405512 0.00111417,-0.000822835 0.00166142,-0.00125984l-6.29921e-005 -7.87402e-005 8.66142e-005 -7.08661e-005 -6.29921e-005 -7.48031e-005c0.0303543,-0.0242205 0.0699094,-0.0363937 0.108484,-0.0347992 0.0370866,0.00153543 0.0728898,0.016185 0.0975315,0.0455669l0.000665354 0.00080315c0.000377953,0.000519685 0.00076378,0.00103543 0.00116929,0.00154331l0.00015748 -0.000125984c0.0265394,0.0332126 0.0340512,0.0786339 0.0309488,0.126665 -0.00460236,0.071248 -0.0322795,0.146984 -0.0584055,0.202008 -0.00132677,0.00222835 -0.00244488,0.00459055 -0.00332677,0.00707087 -0.0181575,0.040374 -0.0188937,0.0842992 -0.00524016,0.12313 0.0136811,0.038937 0.0417835,0.072815 0.0812362,0.0929764l3.93701e-006 3.93701e-006 0.000141732 8.66142e-005c0.00234252,0.00143307 0.00483465,0.00262992 0.00746063,0.00356299 0.0403701,0.0181535 0.0843071,0.0188898 0.123138,0.00523622 0.0401772,-0.0141181 0.0749764,-0.0435906 0.0948622,-0.0850433 0.0396417,-0.0824252 0.0713622,-0.172386 0.0854646,-0.264291 0.0122992,-0.080185 0.0113425,-0.162024 -0.00911024,-0.24202 -0.00851969,-0.033315 -0.020252,-0.0647087 -0.0347402,-0.094063 -0.0148031,-0.03 -0.0326654,-0.0578268 -0.0530669,-0.0833465 -0.0212717,-0.0266142 -0.0448268,-0.0501024 -0.070122,-0.0703858 -0.026248,-0.0210472 -0.0545315,-0.0389291 -0.0842441,-0.0535551 -0.0514764,-0.0253465 -0.107024,-0.0408071 -0.163547,-0.0464449 -0.0572244,-0.00570472 -0.115299,-0.00140157 -0.171031,0.0128386 -0.0349409,0.00893701 -0.0695118,0.0219803 -0.102976,0.0392165 -0.0322126,0.0165906 -0.063126,0.0369843 -0.0920394,0.0612323 -0.0274213,0.023 -0.0529134,0.049248 -0.0758425,0.078748 -0.0218701,0.0281299 -0.0416142,0.0595394 -0.0587126,0.0942598 -0.0440118,0.0893819 -0.0683031,0.185831 -0.0780118,0.286807 -0.00956299,0.0994685 -0.00491339,0.203213 0.00892913,0.308807 0.0072126,0.0550157 0.0382953,0.193898 0.0772126,0.367823 0.0784409,0.350555 0.189075,0.844976 0.196587,1.06227l-3.14961e-005 0.000712598 5.51181e-005 0 4.33071e-005 0.00110236c-0.00386614,0.111098 -0.100661,0.140394 -0.218295,0.136925 -0.11624,-0.0034252 -0.253677,-0.0379213 -0.354433,-0.0632047 -0.0229055,-0.00574803 -0.0440984,-0.0110709 -0.0590709,-0.0146181z"/>
  <path class="fil0" d="M2.91479 1.82357c0.0221693,0.050126 0.0389882,0.0987992 0.0508937,0.145953 0.0547795,0.216996 0.00873228,0.406272 -0.0978189,0.562657 -0.104685,0.153646 -0.26798,0.274472 -0.45063,0.357626 -0.0822165,0.0374331 -0.168106,0.0672323 -0.254071,0.088937l1.1811e-005 5.51181e-005c-0.00759843,0.00191732 -0.0152362,0.00151969 -0.0221772,-0.000748031 -1.07117,-0.271886 -0.789331,-1.05526 -0.748988,-1.15422l-0.0745748 -0.623539 -3.54331e-005 3.93701e-006c-0.00262205,-0.0219331 0.0130315,-0.0418465 0.0349646,-0.0444685 0.0114252,-0.00136614 0.0223031,0.00223228 0.0304764,0.00909055l0.425276 0.296528c0.0908228,-0.0798701 0.218327,-0.119815 0.345268,-0.119815 0.126941,0 0.254449,0.0399409 0.345272,0.119811l0.428185 -0.298555 0.022811 0.0326575 -0.022878 -0.032811c0.0181181,-0.0126339 0.0430551,-0.00818504 0.055689,0.00993307 0.00617323,0.00885433 0.00826772,0.0193386 0.0066811,0.0292165l-0.0743543 0.621685zm-0.0266102 0.165331c-0.0114724,-0.0454488 -0.027752,-0.0920709 -0.0492795,-0.13978 -0.00398819,-0.00712598 -0.00584252,-0.0155315 -0.00479921,-0.0242598l3.54331e-005 3.93701e-006 0.0652677 -0.54572 -0.379028 0.264283c-0.0160197,0.0134882 -0.0399803,0.0123622 -0.0546496,-0.00298819l0.0289173 -0.0276339 -0.0289055 0.0275c-0.00318504,-0.00333071 -0.00645669,-0.00660236 -0.00979134,-0.0097874 -0.0759134,-0.0725866 -0.188933,-0.108886 -0.302563,-0.108886 -0.11363,0 -0.226646,0.0362992 -0.302559,0.108886 -0.00270866,0.00258661 -0.00537008,0.00522835 -0.00798425,0.00791339 -0.0131457,0.0157874 -0.0364291,0.0191535 -0.0535906,0.00718504l0.022878 -0.032811 -0.022811 0.0326575 -0.381953 -0.266319 0.0650748 0.544094c0.00119685,0.00736614 0.000350394,0.0151496 -0.00287795,0.0224843l-0.0366102 -0.0161102 0.036563 0.0160945c-0.000992126,0.00225984 -0.357287,0.784776 0.684043,1.05303 0.0786063,-0.0204331 0.156476,-0.0477087 0.230551,-0.0814331 0.170228,-0.0775 0.321764,-0.189138 0.417819,-0.330122 0.0941929,-0.138248 0.134835,-0.305827 0.086252,-0.49828z"/>
  <path class="fil0" d="M2.54569 2.58415c0.0207953,-0.00724803 0.0317795,-0.0299882 0.0245315,-0.0507835 -0.00724803,-0.0207953 -0.0299882,-0.0317795 -0.0507835,-0.0245315 -0.232713,0.081126 -0.332323,-0.0752874 -0.332614,-0.0757323l-0.033437 0.021874 0.0334724 -0.0218976c-0.0120906,-0.0184843 -0.0368858,-0.0236654 -0.0553701,-0.0115748 -0.00524016,0.00342913 -0.00940945,0.00787402 -0.0124213,0.0129094 -0.0101929,0.0148425 -0.111169,0.151311 -0.331728,0.0744213 -0.0207953,-0.00724803 -0.0435354,0.00373622 -0.0507835,0.0245315 -0.00724803,0.0207953 0.00373622,0.0435354 0.0245315,0.0507835 0.208811,0.0727953 0.336335,-0.0128701 0.392299,-0.0679606 0.0559646,0.0550906 0.183488,0.140756 0.392303,0.0679606z"/>
  <path class="fil0" d="M2.15338 2.19248c0.0172165,0 0.0252008,-0.00019685 0.0329094,-0.00038189 0.013374,-0.000322835 0.0264606,-0.000641732 0.0300079,-0.000641732 0.0778858,0 0.132209,0.0127835 0.132209,0.110555 0,0.109236 -0.104984,0.156272 -0.176642,0.188374l-0.00218504 0.000976378 5.51181e-005 0.000122047c-0.0101732,0.00455906 -0.0212441,0.00451181 -0.030874,0.00076378 -0.0458976,-0.013685 -0.0885551,-0.0330787 -0.120906,-0.0612717 -0.0366929,-0.0319803 -0.0596969,-0.073811 -0.0596969,-0.128965 0,-0.0977717 0.0543189,-0.110555 0.132205,-0.110555 0.00383858,0 0.0166299,0.000314961 0.0300039,0.000641732 0.0077126,0.000185039 0.0156929,0.00038189 0.0329134,0.00038189zm0.0347835 0.0793031c-0.0140709,0.000338583 -0.028752,0.00069685 -0.0347835,0.00069685 -0.00602362,0 -0.0207126,-0.000358268 -0.0347874,-0.00069685 -0.00680709,-0.000165354 -0.0134764,-0.000326772 -0.0281299,-0.000326772 -0.0307559,0 -0.0522047,0.00353543 -0.0522047,0.0305551 0,0.0293228 0.0124094,0.0517165 0.0322008,0.0689646 0.0204055,0.0177835 0.0486732,0.031185 0.0802638,0.0414882 0.0514291,-0.0233071 0.117783,-0.0567992 0.117783,-0.110453 0,-0.0270197 -0.0214528,-0.0305551 -0.0522087,-0.0305551 -0.0149528,0 -0.0213268,0.000165354 -0.0281339,0.000326772z"/>
  <path class="fil0" d="M1.86624 1.81869c0.032315,0.0195118 0.058937,0.0439646 0.0776024,0.0693937 0.0204567,0.0278661 0.0316969,0.057622 0.0311535,0.0846496l-0.026563 -0.000519685 0.0266614 0.00053937c-0.00019685,0.00976772 -0.00562992,0.0182008 -0.0135591,0.022685 -0.0225118,0.0137677 -0.0529291,0.0183386 -0.086311,0.0137362 -0.0306535,-0.00422835 -0.0643819,-0.0161535 -0.0967441,-0.0356969 -0.032315,-0.0195118 -0.058937,-0.0439606 -0.0776024,-0.0693898 -0.0204567,-0.0278661 -0.0316969,-0.057622 -0.0311535,-0.0846496l0.026563 0.000519685 -0.0266614 -0.00053937c0.00019685,-0.00976772 0.00562992,-0.0182008 0.0135591,-0.022685 0.0225118,-0.0137677 0.0529252,-0.0183386 0.0863071,-0.0137362 0.0306575,0.00422835 0.0643858,0.0161496 0.096748,0.0356929zm0.0346811 0.10085c-0.0146378,-0.0199409 -0.0359449,-0.039378 -0.062185,-0.0552205 -0.026189,-0.015815 -0.0527559,-0.0253661 -0.0763307,-0.0286142 -0.0141339,-0.00194882 -0.0268701,-0.00166929 -0.0373071,0.000846457 0.00316142,0.011315 0.00956299,0.0236339 0.0187008,0.0360787 0.0146339,0.0199409 0.0359449,0.039374 0.062185,0.0552165 0.0261929,0.015815 0.0527559,0.0253701 0.0763268,0.0286181 0.0141339,0.00194882 0.0268701,0.00167323 0.037311,-0.000846457 -0.00316142,-0.011311 -0.00956299,-0.0236339 -0.0187008,-0.0360787z"/>
  <path class="fil0" d="M2.46802 1.86432c-0.0262402,0.0158425 -0.0475472,0.0352795 -0.062185,0.0552205 -0.0091378,0.0124449 -0.0155394,0.0247677 -0.0187008,0.0360787 0.0104409,0.00251969 0.0231772,0.00279528 0.037311,0.000846457 0.0235709,-0.00324803 0.0501339,-0.0128031 0.0763268,-0.0286181 0.0262402,-0.0158425 0.0475512,-0.0352756 0.062185,-0.0552165 0.0091378,-0.0124449 0.0155394,-0.0247638 0.0187008,-0.0360787 -0.010437,-0.00251575 -0.0231732,-0.00279528 -0.0373071,-0.000846457 -0.0235748,0.00324803 -0.0501417,0.0127992 -0.0763307,0.0286142zm-0.105106 0.0237638c0.0186654,-0.0254291 0.0452874,-0.0498819 0.0776024,-0.0693937 0.0323622,-0.0195433 0.0660906,-0.0314646 0.096748,-0.0356929 0.033378,-0.00460236 0.0637953,-3.14961e-005 0.0863071,0.0137362 0.00792913,0.00448425 0.0133622,0.0129173 0.0135591,0.022685l-0.0266614 0.00053937 0.026563 -0.000519685c0.000543307,0.0270276 -0.0106969,0.0567835 -0.0311535,0.0846496 -0.0186654,0.0254291 -0.0452874,0.049878 -0.0776024,0.0693898 -0.0323622,0.0195433 -0.0660906,0.0314685 -0.0967441,0.0356969 -0.0333858,0.00460236 -0.0637992,3.14961e-005 -0.086311,-0.0137362 -0.00792913,-0.00448425 -0.0133622,-0.0129173 -0.0135591,-0.022685l0.0266614 -0.00053937 -0.026563 0.000519685c-0.000543307,-0.0270276 0.0106969,-0.0567835 0.0311535,-0.0846496z"/>
  <path class="fil0" d="M1.83857 2.38776c0.012815,0.0104173 0.0316535,0.00847638 0.0420709,-0.00433858 0.0104173,-0.012815 0.00847638,-0.0316535 -0.00433858,-0.0420709 -0.000992126,-0.00080315 -0.340209,-0.283472 -0.927055,-0.133917 -0.0160472,0.0040748 -0.0257559,0.0203976 -0.0216811,0.0364449 0.0040748,0.0160472 0.0203976,0.0257559 0.0364449,0.0216811 0.557539,-0.142087 0.873634,0.121453 0.874559,0.122201z"/>
  <path class="fil0" d="M1.84712 2.39268c0.0155315,0.00569291 0.0327441,-0.00228346 0.038437,-0.017815 0.00569291,-0.0155315 -0.00228346,-0.0327441 -0.017815,-0.038437 -0.00116929,-0.000429134 -0.402291,-0.153295 -0.985079,0.0687362 -0.0154646,0.00588976 -0.0232323,0.0232087 -0.0173425,0.0386732 0.00588976,0.0154646 0.0232087,0.0232323 0.0386732,0.0173425 0.561598,-0.213957 0.94202,-0.0689055 0.943126,-0.0685z"/>
  <path class="fil0" d="M1.85193 2.39397c0.0162441,0.00303937 0.0318819,-0.00766142 0.0349213,-0.0239055 0.00303937,-0.0162441 -0.00766142,-0.0318819 -0.0239055,-0.0349213 -0.000988189,-0.000185039 -0.339453,-0.0681811 -0.921433,0.273638 -0.0142362,0.00834646 -0.0190079,0.0266614 -0.0106614,0.0408976 0.00834646,0.0142362 0.0266614,0.0190079 0.0408976,0.0106614 0.562406,-0.330319 0.879256,-0.266543 0.880181,-0.26637z"/>
  <path class="fil0" d="M2.38394 2.34135c-0.012815,0.0104173 -0.0147559,0.0292559 -0.00433858,0.0420709 0.0104173,0.012815 0.0292559,0.0147559 0.0420709,0.00433858 0.000925197,-0.000748031 0.31702,-0.264287 0.874559,-0.122201 0.0160472,0.0040748 0.0323701,-0.00563386 0.0364449,-0.0216811 0.0040748,-0.0160472 -0.00563386,-0.0323701 -0.0216811,-0.0364449 -0.586846,-0.149555 -0.926063,0.133114 -0.927055,0.133917z"/>
  <path class="fil0" d="M2.3925 2.33643c-0.0155315,0.00569291 -0.0235079,0.0229055 -0.017815,0.038437 0.00569291,0.0155315 0.0229055,0.0235079 0.038437,0.017815 0.0011063,-0.000405512 0.381528,-0.145457 0.943126,0.0685 0.0154646,0.00588976 0.0327835,-0.00187795 0.0386732,-0.0173425 0.00588976,-0.0154646 -0.00187795,-0.0327835 -0.0173425,-0.0386732 -0.582787,-0.222031 -0.983909,-0.0691654 -0.985079,-0.0687362z"/>
  <path class="fil0" d="M2.3973 2.33515c-0.0162441,0.00303937 -0.0269449,0.0186772 -0.0239055,0.0349213 0.00303937,0.0162441 0.0186772,0.0269449 0.0349213,0.0239055 0.000925197,-0.000173228 0.317776,-0.0639488 0.880181,0.26637 0.0142362,0.00834646 0.0325512,0.0035748 0.0408976,-0.0106614 0.00834646,-0.0142362 0.0035748,-0.0325512 -0.0106614,-0.0408976 -0.58198,-0.341819 -0.920445,-0.273823 -0.921433,-0.273638z"/>
 </g>
 <rect class="fil1" width="6.82666" height="6.82666"/>
</svg>
