<?xml version="1.0" encoding="UTF-8"?>
<!DOCTYPE svg PUBLIC "-//W3C//DTD SVG 1.1//EN" "http://www.w3.org/Graphics/SVG/1.1/DTD/svg11.dtd">
<!-- Creator: CorelDRAW -->
<svg xmlns="http://www.w3.org/2000/svg" xml:space="preserve" width="6.82666in" height="6.82666in" style="shape-rendering:geometricPrecision; text-rendering:geometricPrecision; image-rendering:optimizeQuality; fill-rule:evenodd; clip-rule:evenodd"
viewBox="0 0 6.82666 6.82666"
 xmlns:xlink="http://www.w3.org/1999/xlink">
 <defs>
  <style type="text/css">
   <![CDATA[
    .fil2 {fill:none}
    .fil1 {fill:#212121}
    .fil0 {fill:#212121;fill-rule:nonzero}
   ]]>
  </style>
 </defs>
 <g id="Layer_x0020_1">
  <metadata id="CorelCorpID_0Corel-Layer"/>
  <path class="fil0" d="M4.68797 1.57901c-0.00222441,0.000232283 -0.00445276,0.000653543 -0.00667717,0.00127559 -0.139957,0.0392717 -0.209122,0.179878 -0.286283,0.33678 -0.060378,0.122768 -0.126106,0.256417 -0.23335,0.348571 -0.0839291,0.072126 -0.17626,0.133732 -0.276024,0.175496 -0.0871378,0.0364803 -0.180209,0.0578622 -0.278606,0.0578622 -0.0844764,0 -0.18661,-0.00612992 -0.300252,-0.0129449 -0.269787,-0.0161811 -0.603248,-0.036189 -0.906374,0.0101654 -0.288555,0.0441142 -0.523311,0.132508 -0.703602,0.284638 -0.180843,0.152598 -0.305346,0.367972 -0.372535,0.665421 -0.0356575,0.157858 -0.0695669,0.283094 -0.103114,0.381866 -0.0328543,0.0967244 -0.0648937,0.166831 -0.0975039,0.216398 -0.0245472,0.037311 -0.0490748,0.0606417 -0.0747047,0.0742992 -0.0246575,0.0131378 -0.0520354,0.0177677 -0.082622,0.0177677 -0.0310551,0 -0.0592835,0.0126811 -0.079815,0.0331811l-7.87402e-005 -7.87402e-005 -3.93701e-006 3.93701e-006 -3.93701e-006 -3.93701e-006 -0.000535433 0.000547244c-0.020126,0.0204016 -0.0325551,0.0484252 -0.0325551,0.0793465 0,0.0311969 0.0126535,0.0594488 0.0330984,0.0798937 0.0204449,0.0204449 0.0486969,0.0330984 0.0798937,0.0330984 0.0667756,0 0.127953,-0.0106102 0.185823,-0.0407126 0.0572087,-0.0297559 0.109799,-0.0781614 0.159531,-0.153752 0.0413071,-0.0627874 0.0804291,-0.146283 0.118854,-0.257228 0.0372008,-0.107402 0.0739055,-0.240752 0.111531,-0.406323l-0.000358268 0.00541732c-0.0556772,0.843425 -0.0647205,0.980366 -0.189957,1.23084l-0.000149606 -7.48031e-005c-0.00233071,0.00466535 -0.00366535,0.00956693 -0.00408661,0.0144646 -0.0074685,0.0423346 -0.0777953,0.449169 -0.0282992,0.48452 0.0431693,0.0308386 0.49111,0.00740551 0.492398,0.00734252l0.000137795 0.000106299c0.022063,-0.00111024 0.0390472,-0.0198976 0.037937,-0.0419606 -5.90551e-005,-0.00118898 -0.000177165,-0.00236614 -0.000334646,-0.00352362 -0.00184646,-0.0220236 -0.0174252,-0.152953 -0.129882,-0.219965 -0.00880315,-0.0359331 -0.0250276,-0.128752 0.0259724,-0.179752 0.065,-0.065 0.120319,-0.118142 0.17124,-0.167059 0.312866,-0.300547 0.47,-0.451594 0.466346,-0.933457 0.375366,-0.028874 0.612634,0.104248 0.838429,0.230937 0.255965,0.14361 0.497961,0.279327 0.900492,0.183984l0 1.05844c0,0.0220906 0.0179094,0.04 0.04,0.04l0.416185 0c0.0220906,0 0.04,-0.0179094 0.04,-0.04 0,-0.00980315 -0.00352756,-0.0187835 -0.00938583,-0.0257402 -0.0154409,-0.0209055 -0.141512,-0.188394 -0.235087,-0.213016 -0.000728346,-0.000188976 0.0149606,-0.0529173 0.0353976,-0.130567 0.0212559,-0.0807795 0.0542835,-0.18213 0.0875906,-0.284354 0.0484606,-0.14872 0.0975276,-0.299295 0.113965,-0.397953 0.016752,-0.100535 0.0675709,-0.192335 0.121047,-0.288933 0.072874,-0.131646 0.150413,-0.271701 0.163772,-0.460102 0.0124252,-0.175189 0.0653425,-0.385878 0.110457,-0.565543 0.0159016,-0.0633189 0.0308425,-0.122815 0.0429921,-0.176894 0.110516,0.00576378 0.455783,0.00995669 0.669406,-0.142772 0.0742992,-0.0531181 0.148728,-0.16198 0.19739,-0.27172 0.0491339,-0.110799 0.0727677,-0.226067 0.0457835,-0.292764l4.33071e-005 -1.5748e-005c-0.00640157,-0.0158189 -0.0217756,-0.025311 -0.0378819,-0.0249921 -0.0827598,3.93701e-005 -0.152575,0.00582677 -0.213189,0.0108504 -0.158874,0.0131693 -0.247701,0.0205354 -0.34176,-0.116244 -0.0552677,-0.0803583 -0.162567,-0.145531 -0.288909,-0.184394 -0.121736,-0.0374409 -0.262579,-0.0511142 -0.391791,-0.0306772zm0.0183661 0.0778504c-0.0284331,0.0507362 -0.0350827,0.0785 -0.0350827,0.156429 0,0.0478583 -0.018689,0.0988307 -0.0334134,0.139004 -0.0116654,0.0318228 -0.0212992,0.0580945 -0.0212992,0.0801102 0,0.0317126 0.0598346,0.108575 0.132783,0.167894 0.0541417,0.0440236 0.117035,0.0819882 0.169476,0.0894764 0.0215315,0.0030748 0.0423543,0.00916535 0.061437,0.0147598l-1.1811e-005 4.33071e-005 3.14961e-005 7.87402e-006 -2.75591e-005 9.84252e-005c0.000913386,0.000267717 0.00182677,0.000496063 0.00274016,0.00069685 0.0207559,0.0060748 0.0398504,0.0115079 0.0593898,0.013248 0.0630709,0.00562992 0.105193,-0.019937 0.116047,-0.141488 0.00766535,-0.0858504 0.00853543,-0.180949 -0.0125157,-0.278693 -0.0150551,-0.0698976 -0.0411457,-0.140933 -0.083622,-0.21065 0.107406,0.0339646 0.196717,0.0875354 0.24078,0.151598 0.120315,0.174961 0.225614,0.166228 0.413941,0.150614 0.0512441,-0.00424803 0.109268,-0.00905512 0.176236,-0.010252 0.00506693,0.0497402 -0.0159724,0.127039 -0.0506772,0.205299 -0.0435945,0.098315 -0.108126,0.194307 -0.170516,0.238909 -0.224102,0.16022 -0.620051,0.128728 -0.649429,0.126154 -0.0205945,-0.00282283 -0.0401535,0.010748 -0.0444488,0.0314055 -0.0123583,0.0587638 -0.0303504,0.130409 -0.0497717,0.207728 -0.0458898,0.18274 -0.0997126,0.397043 -0.112638,0.579299 -0.0121575,0.171476 -0.0851575,0.303343 -0.153772,0.427283 -0.0570315,0.103016 -0.111224,0.200917 -0.13011,0.314248 -0.015437,0.0926575 -0.0635945,0.240437 -0.111154,0.386394 -0.0335709,0.103039 -0.0668622,0.205201 -0.0888425,0.288724 -0.0324961,0.123465 -0.0366457,0.21278 0.0214764,0.228071 0.0420906,0.0110748 0.100776,0.0724646 0.14228,0.121567l-0.293677 0 0 -1.06911c6.29921e-005,-0.00374409 -0.000393701,-0.00756299 -0.00144094,-0.0113543 -0.00587402,-0.0212953 -0.0279016,-0.0337953 -0.0491969,-0.0279213l1.1811e-005 0.000122047c-0.401406,0.110744 -0.638933,-0.0225276 -0.890803,-0.163843 -0.243063,-0.136374 -0.49885,-0.279866 -0.918846,-0.237665 -0.0220827,0.000527559 -0.0395591,0.0188543 -0.0390354,0.040937l0.000145669 -3.93701e-006c0.0113071,0.476528 -0.137508,0.619492 -0.441417,0.911433 -0.0545669,0.0524213 -0.11385,0.10937 -0.172484,0.168004 -0.0897677,0.0897677 -0.0503504,0.244012 -0.0425433,0.271016 0.0023622,0.0116496 0.00986614,0.0221339 0.0213189,0.0278622l7.87402e-005 -0.000149606c0.0601654,0.0300827 0.0850118,0.0868622 0.0951969,0.125417 -0.109287,0.00511024 -0.381445,0.0166102 -0.397469,0.00516535 -0.0103268,-0.00737402 0.0515433,-0.355476 0.0601378,-0.403531 0.130122,-0.261866 0.139583,-0.404846 0.195787,-1.25622 0.00374409,-0.0567283 0.00774409,-0.117248 0.0136772,-0.206295 0.00148031,-0.0222717 0.00345669,-0.0430118 0.00589764,-0.0622559 0.0024685,-0.0194921 0.00566535,-0.0393189 0.0095315,-0.0594331 0.00414173,-0.0216575 -0.010063,-0.0425787 -0.0317205,-0.0467205 -0.00608661,-0.00116142 -0.0121063,-0.000874016 -0.0177205,0.000614173 -0.0113071,0.00260236 -0.0213819,0.0100866 -0.026874,0.0213189 -0.021811,0.0444724 -0.0423976,0.0937756 -0.0610236,0.148386 -0.0172126,0.0504685 -0.0330197,0.106165 -0.0468976,0.167598 -0.0377874,0.167303 -0.074315,0.300717 -0.111043,0.406756 -0.0361654,0.104421 -0.0723819,0.182087 -0.110098,0.239417 -0.0414764,0.0630433 -0.0841969,0.102819 -0.129846,0.126563 -0.0449882,0.0234016 -0.094252,0.0316496 -0.148949,0.0316496 -0.00911811,0 -0.0173701,-0.00369291 -0.0233346,-0.00965748 -0.00596457,-0.00596457 -0.00965748,-0.0142165 -0.00965748,-0.0233346 0,-0.00897244 0.0035748,-0.0171102 0.00937402,-0.0230512l0.000291339 -0.000283465 -0.0282874 -0.0282795 0.0282795 0.028126c0.00587008,-0.00587402 0.0141181,-0.00950787 0.0233346,-0.00950787 0.0425787,0 0.0820276,-0.00715354 0.120126,-0.0274528 0.0371181,-0.0197795 0.0713228,-0.0515591 0.10376,-0.100866 0.0365591,-0.0555709 0.0716142,-0.131626 0.106567,-0.234524 0.034252,-0.10085 0.0688858,-0.228748 0.105303,-0.389984 0.0631142,-0.279417 0.178819,-0.480681 0.346283,-0.621988 0.168016,-0.141772 0.389705,-0.224591 0.663917,-0.266512 0.295539,-0.0451929 0.624039,-0.0254843 0.889815,-0.00954331 0.116402,0.00698031 0.22102,0.0132598 0.304937,0.0132598 0.109394,0 0.212673,-0.0236929 0.309228,-0.0641142 0.108067,-0.0452402 0.207421,-0.111406 0.297276,-0.188622 0.119512,-0.102697 0.18911,-0.244205 0.253035,-0.374193 0.0684291,-0.139146 0.129811,-0.263902 0.234657,-0.294425l0.00511024 -0.000779528zm0.238669 0.00318898c0.0676969,0.0832992 0.104488,0.170134 0.12276,0.254957 0.0191654,0.0890039 0.0183189,0.176268 0.0112638,0.25526 -0.00511811,0.0573465 -0.0153858,0.0702677 -0.0297953,0.0689843 -0.0111772,-0.000996063 -0.0267126,-0.00543701 -0.0438268,-0.0104488 -0.000874016,-0.000326772 -0.00177165,-0.000622047 -0.0026811,-0.000889764l-0.000153543 0.000106299c-0.022122,-0.00648031 -0.0462638,-0.0135591 -0.0725197,-0.0173071 -0.036626,-0.00523228 -0.0859016,-0.0360945 -0.130413,-0.0722874 -0.0566417,-0.0460591 -0.103098,-0.0942795 -0.103098,-0.10602 0,-0.00814961 0.00737402,-0.0282559 0.0162992,-0.0526063 0.0169291,-0.046185 0.0384134,-0.104787 0.0384134,-0.166508 0,-0.0771693 0.0088189,-0.0917874 0.0520787,-0.163496l0.000299213 -0.000496063c0.0472402,-0.00053937 0.0949173,0.00322835 0.141374,0.010752z"/>
  <circle class="fil1" cx="5.16677" cy="1.92898" r="0.0728686"/>
 </g>
 <rect class="fil2" width="6.82666" height="6.82666"/>
</svg>
