<?xml version="1.0" encoding="UTF-8"?>
<!DOCTYPE svg PUBLIC "-//W3C//DTD SVG 1.1//EN" "http://www.w3.org/Graphics/SVG/1.1/DTD/svg11.dtd">
<!-- Creator: CorelDRAW -->
<svg xmlns="http://www.w3.org/2000/svg" xml:space="preserve" width="6.82666in" height="6.82666in" style="shape-rendering:geometricPrecision; text-rendering:geometricPrecision; image-rendering:optimizeQuality; fill-rule:evenodd; clip-rule:evenodd"
viewBox="0 0 6.82666 6.82666"
 xmlns:xlink="http://www.w3.org/1999/xlink">
 <defs>
  <style type="text/css">
   <![CDATA[
    .fil1 {fill:none}
    .fil0 {fill:#212121;fill-rule:nonzero}
   ]]>
  </style>
 </defs>
 <g id="Layer_x0020_1">
  <metadata id="CorelCorpID_0Corel-Layer"/>
  <path class="fil0" d="M2.07822 3.78435l0.000405512 -0.000208661 -3.14961e-005 -6.29921e-005 0.0012126 -0.000543307c0.0560591,-0.0288386 0.105988,-0.0488189 0.159457,-0.0612756 0.0532362,-0.0124055 0.109441,-0.0171693 0.178173,-0.0156102l0.0290945 -0.00316535 0.000952756 -0.000173228 0 -1.5748e-005 0.00019685 -1.9685e-005c0.0338583,-0.00617323 0.0473307,-0.0065 0.059622,-0.00679134 0.0134606,-0.000322835 0.0250039,-0.000598425 0.0938976,-0.0178819l0.00275984 -0.000692913c0.0400512,-0.0100354 0.0809252,-0.0202795 0.104815,-0.0399528 0.0380669,-0.0313386 0.0708031,-0.0640039 0.101559,-0.094685 0.101496,-0.101264 0.183264,-0.182835 0.384972,-0.173126 0.142406,0.00685039 0.279551,0.0670984 0.421539,0.129465 0.121776,0.0534882 0.247283,0.108614 0.377949,0.129618l0.00152756 0.000153543 7.87402e-006 -3.54331e-005 0.000547244 9.44882e-005c0.132063,0.0133976 0.20674,-0.0144724 0.270106,-0.0381299 0.0761575,-0.0284331 0.1385,-0.0517047 0.248224,-0.0119528 0.0472992,0.0171339 0.0610394,0.0367717 0.0746102,0.0561654 0.00547244,0.00782283 0.0109055,0.0155787 0.0272953,0.0224921 0.0877402,0.0259803 0.170224,0.0595827 0.250409,0.092252 0.0768346,0.0313031 0.151547,0.0617402 0.222819,0.0824016 0.0260748,0.00755906 0.0813819,0.0199764 0.139535,0.0330315 0.076311,0.0171299 0.157433,0.0353465 0.190264,0.0466299 0.0398425,0.0136969 0.0672362,0.0299882 0.0912756,0.0442795 0.0373504,0.0222126 0.0639213,0.0380118 0.13424,0.0146102l-5.51181e-005 -0.000165354c0.00279921,-0.000933071 0.00562992,-0.00153543 0.00844882,-0.00183465 0.0220079,-0.00390551 0.0504646,-0.00220079 0.0822047,-0.00030315 0.0468228,0.00279921 0.102362,0.00612598 0.129717,-0.00857874 0.00349606,-0.00187795 0.00662992,-0.00389764 0.0093189,-0.00600394 0.0081378,-0.00637008 0.0142677,-0.0143543 0.016874,-0.0228228 0.00205118,-0.00665748 0.00160236,-0.014122 -0.00242913,-0.021626 -0.00128346,-0.00238583 -0.00273622,-0.0046378 -0.00435039,-0.00670079 -0.0119921,-0.015315 -0.0471535,-0.014248 -0.0846732,-0.0131181 -0.0135827,0.000405512 -0.0274094,0.000826772 -0.0418386,0.000535433l0.000779528 -0.0398425 -0.000814961 0.0399921c-0.0121575,-0.000248031 -0.0229331,-0.0058937 -0.0300945,-0.0146063 -0.0289764,-0.0316811 -0.0580118,-0.0302677 -0.0896496,-0.0287283 -0.0426575,0.00208268 -0.0884331,0.00431496 -0.14576,-0.032811 -0.037626,-0.0243701 -0.103315,-0.0589567 -0.171154,-0.0887874 -0.0549409,-0.0241575 -0.110295,-0.0447598 -0.151339,-0.0533858 -0.0933583,-0.019622 -0.303449,-0.162425 -0.379941,-0.214417 -0.0105354,-0.00716535 0.0133504,0.0091063 -0.015622,-0.0104409l0.0223425 -0.033126 -0.022374 0.0331575c-0.012878,-0.00868898 -0.0190866,-0.0235669 -0.0173386,-0.038 0.0019252,-0.0474252 0.00411811,-0.0765748 0.00581102,-0.099248 0.00408661,-0.054563 0.00528346,-0.070563 -0.00987795,-0.163937l0.039374 -0.00640551 -0.0394843 0.00641339c-0.00353937,-0.0218031 0.0112677,-0.0423583 0.0330709,-0.0458976l0.00042126 -6.29921e-005 0.251161 -0.0532244 0.00827953 0.039063 -0.00829134 -0.0391299c0.00674409,-0.00142913 0.0134488,-0.00106693 0.019626,0.00076378 0.0260394,0.00682283 0.0604173,0.0206299 0.0960354,0.0349291 0.0414094,0.0166299 0.0847165,0.0340197 0.110567,0.0390276l0.020622 -0.0203228 -8.26772e-005 -8.26772e-005c0.00147638,-0.00145669 0.00303543,-0.00277559 0.00466535,-0.00395276 0.0250984,-0.0213504 0.0363543,-0.0234291 0.0443701,-0.0248228l-3.93701e-006 -2.3622e-005 1.5748e-005 -3.93701e-006 -3.93701e-006 -2.75591e-005 0.000917323 -0.000149606c0.00261417,-0.000665354 -0.00283071,-0.00225197 0.0212205,-0.0369685 -0.0413976,-0.0773976 -0.0571063,-0.107098 -0.0632638,-0.12835 -0.00530315,-0.0183386 -0.00429921,-0.027748 -0.00268504,-0.042685 0.0011811,-0.0109567 0.00289764,-0.0269134 -0.00046063,-0.0624331l-0.105264 -0.0559409 3.54331e-005 -6.29921e-005 -1.1811e-005 -7.87402e-006 -4.33071e-005 8.26772e-005c-0.000755906,-0.000401575 -0.00149213,-0.000830709 -0.0022126,-0.00127165l-0.0411024 -0.0216575 0.0185945 -0.035311 -0.0186457 0.0353858c-0.0072126,-0.00379921 -0.0127795,-0.00949213 -0.0164213,-0.0161496 -0.00106693,-0.00170866 -0.00222047,-0.00359449 -0.00319291,-0.00520866l-6.69291e-005 4.33071e-005 -5.11811e-005 -8.26772e-005 -8.66142e-005 5.11811e-005c-0.000299213,-0.000492126 -0.00057874,-0.000992126 -0.000854331,-0.00148819 -0.000771654,-0.00107087 -0.00219291,-0.00284646 -0.00581102,-0.0072874 -0.0022126,-0.00271654 -0.00416535,-0.00537402 -0.00588976,-0.00797244 -0.00733071,-0.00318898 -0.013689,-0.00855118 -0.0180472,-0.0155945 -0.00105906,-5.11811e-005 -0.0023937,-0.000200787 -0.00411024,-0.000496063l-0.00115354 -0.000200787c-0.0130315,-0.00224803 -0.0360551,-0.00572441 -0.054437,-0.0076811l-0.0174094 -0.00187008 1.9685e-005 9.05512e-005c-0.00892913,0.0018622 -0.0177835,0.000590551 -0.0254213,-0.00307087 -0.00699213,-0.00214567 -0.0186929,0.00570079 -0.0294567,0.0129252 -0.00577953,0.00387795 -0.0114252,0.00766929 -0.0190315,0.0118819l0.000102362 0.000181102c-0.00494488,0.00273622 -0.0102165,0.00431496 -0.0155039,0.00482677 -0.0103583,0.00129528 -0.0237638,0.000232283 -0.0407283,-0.00112205 -0.0296929,-0.00236614 -0.073878,-0.00588189 -0.105965,0.00127953l-0.000433071 0.000299213 4.72441e-005 7.08661e-005c-0.00124409,0.000846457 -0.00251575,0.00161417 -0.00381496,0.00230315 -0.00465354,0.00283858 -0.0092874,0.0050315 -0.0138937,0.00635827 -0.00641339,0.00274803 -0.0132559,0.00369685 -0.019878,0.003 -0.0320039,-0.000322835 -0.0759409,0.010689 -0.120614,0.0218898 -0.0392874,0.00985039 -0.079122,0.0198425 -0.117429,0.0237283 -0.0414134,0.00420472 -0.0765709,0.00165748 -0.111807,-0.000893701 -0.0443701,-0.00320866 -0.0889252,-0.00643701 -0.142461,0.00608661 -0.0779803,0.0182362 -0.103902,0.0453307 -0.133012,0.075752 -0.026622,0.0278307 -0.0553661,0.0578701 -0.113146,0.0877441 -0.113071,0.0584567 -0.21361,0.078815 -0.315354,0.0772992 -0.100016,-0.00148819 -0.198575,-0.024 -0.311173,-0.0519409 -0.204244,-0.050685 -0.337906,-0.0335591 -0.486437,-0.0145236 -0.0835984,0.0107087 -0.17174,0.0220079 -0.279756,0.0229685 -0.0499567,0.000440945 -0.091937,0.00046063 -0.127673,0.000472441 -0.104087,3.54331e-005 -0.153583,5.90551e-005 -0.197886,0.0106496 -0.0398268,0.00951575 -0.0812047,0.0291299 -0.160059,0.0665 -0.0443937,0.0210433 -0.100209,0.0474961 -0.172335,0.0800472 -0.119559,0.0539567 -0.208697,0.066374 -0.332866,0.0836614 -0.0240197,0.00334252 -0.0496181,0.00690945 -0.0855039,0.0123583 -0.0655276,0.00995276 -0.147772,0.0119016 -0.229508,0.0042126 -0.0739921,-0.00695669 -0.147724,-0.0218425 -0.208657,-0.0458583 -0.0125433,-0.00494094 -0.027126,-0.0126102 -0.0434685,-0.0212047 -0.0418701,-0.0220157 -0.0998071,-0.0524764 -0.114846,-0.0343504 -0.00366929,0.0044252 0.0026063,0.0121024 0.012563,0.0203622 0.0362992,0.0301063 0.105327,0.0550433 0.136173,0.0661811l-0.013437 0.0375 0.0135866 -0.037622c0.000976378,0.000350394 0.00192126,0.00073622 0.00285433,0.00115354l0.00373622 0.00135433c0.16511,0.0603071 0.322071,0.082378 0.477744,0.0695236 0.156228,-0.0129016 0.31172,-0.0609843 0.473311,-0.140886 0.0673819,-0.0333228 0.126299,-0.0600591 0.18987,-0.0752165 0.0649961,-0.0155 0.133524,-0.0187126 0.218177,-0.00425984l-0.00672047 0.039374 0.00673228 -0.0394291c0.0217756,0.00371654 0.0364134,0.0243858 0.0326969,0.0461614 -0.000251969,0.00148425 -0.000586614,0.00293701 -0.000992126,0.00435039l-0.0475157 0.186583c-0.0108386,0.0829685 -0.0701181,0.14828 -0.159323,0.198898 -0.0962126,0.0545945 -0.228783,0.0927165 -0.371004,0.117744 -0.0788189,0.0457323 -0.157882,0.132571 -0.22885,0.210531 -0.0529291,0.0581339 -0.101606,0.111602 -0.146264,0.144051 -0.0544291,0.0395512 -0.0956378,0.0407795 -0.133291,0.0418898 -0.0269173,0.000795276 -0.0509213,0.00151575 -0.0789134,0.0365197l-0.0310945 -0.0248425 0.0312402 0.0249803c-0.00764961,0.00956693 -0.0188031,0.014689 -0.0301614,0.015 -0.0237283,0.00203937 -0.0479409,0.00987795 -0.0694331,0.0212913 -0.0223307,0.0118583 -0.0408622,0.0269528 -0.0519134,0.0427402 -0.00163386,0.00233465 -0.00296457,0.00461024 -0.00399213,0.00680315 -0.0036063,0.00767717 -0.00362598,0.0152047 -0.00118504,0.0218465 0.00307874,0.00837008 0.0096063,0.0160197 0.0180197,0.0219055 0.00298031,0.00208661 0.00617323,0.00393701 0.00950394,0.00550394 0.0740709,0.0348346 0.245673,-0.0424921 0.355083,-0.0917953 0.0251063,-0.011311 0.0472126,-0.0212756 0.0644843,-0.0282677 0.0221575,-0.00897244 0.0731732,-0.0436417 0.126787,-0.0800669 0.0667835,-0.0453819 0.137346,-0.0933307 0.175331,-0.106587 0.0627717,-0.0219016 0.0915,-0.0354724 0.151244,-0.0636929l0.0173898 -0.00820866zm0.179169 0.0157205c-0.0466575,0.0108701 -0.0908661,0.0286142 -0.140949,0.0543622 -0.00118504,0.000716535 -0.00242126,0.00138583 -0.00370472,0.00199213l-0.0170709 -0.0361732 0.0170315 0.0360945 -0.0178031 0.00840157c-0.061937,0.0292559 -0.0917205,0.0433228 -0.159055,0.0668189 -0.0284606,0.00992913 -0.0944449,0.0547717 -0.156898,0.0972087 -0.0576811,0.039189 -0.112559,0.0764843 -0.141472,0.0881929 -0.0169488,0.0068622 -0.0378858,0.0162992 -0.0616732,0.0270157 -0.122382,0.0551457 -0.314331,0.141642 -0.421642,0.0911732 -0.00749213,-0.00352362 -0.0146693,-0.00768504 -0.021378,-0.012378 -0.0214843,-0.0150354 -0.0386063,-0.0357992 -0.0473976,-0.0597165 -0.00942126,-0.0256457 -0.00953937,-0.054311 0.00399606,-0.0830984 0.00295669,-0.00629134 0.00656693,-0.0125354 0.0108661,-0.0186772 0.0185039,-0.026437 0.0469173,-0.0503228 0.0797244,-0.0677402 0.0261811,-0.0138976 0.055752,-0.0240945 0.0858701,-0.0285748 0.0460984,-0.051 0.0847913,-0.0521654 0.127807,-0.053437 0.025685,-0.000759843 0.0537992,-0.00159843 0.0886063,-0.0268898 0.038063,-0.0276535 0.084063,-0.0781811 0.134075,-0.133114 0.0759449,-0.0834291 0.160677,-0.176496 0.251976,-0.228087 0.00457087,-0.0031063 0.0098622,-0.00531102 0.0156614,-0.00631102l0.00680709 0.0394173 -0.00672047 -0.039374c0.136657,-0.0236024 0.262988,-0.0591496 0.351815,-0.109551 0.0677598,-0.0384449 0.112358,-0.0847717 0.119512,-0.139815 0.000153543,-0.00246063 0.000535433,-0.00494488 0.00116535,-0.00742126l1.5748e-005 3.93701e-006 0.0372756 -0.146362c-0.0535748,-0.00512205 -0.0994764,-0.00132283 -0.143205,0.0091063 -0.0564409,0.0134567 -0.110626,0.0381181 -0.172996,0.0689646 -0.17072,0.0844173 -0.335618,0.135264 -0.502067,0.149012 -0.167008,0.0137874 -0.335059,-0.00976772 -0.511492,-0.0742087l-0.00374016 -0.00135433c-0.000948819,-0.00026378 -0.0018937,-0.000570866 -0.00283465,-0.000909449l3.93701e-005 -0.000106299 -4.72441e-005 -1.5748e-005 1.9685e-005 -5.11811e-005c-0.0352165,-0.0127205 -0.113717,-0.0411063 -0.160098,-0.0795709 -0.045122,-0.0374252 -0.0651772,-0.0822283 -0.023185,-0.132858 0.0564055,-0.0679882 0.147654,-0.0200079 0.213594,0.0146654 0.014122,0.0074252 0.0267205,0.0140551 0.0353425,0.0174488 0.0540945,0.0213189 0.120154,0.0345945 0.186783,0.0408583 0.0748543,0.00703937 0.150272,0.00524016 0.210445,-0.00389764 0.0256614,-0.0038937 0.0569449,-0.00825591 0.0864409,-0.0123583 0.117421,-0.0163465 0.201709,-0.0280906 0.310992,-0.0774094 0.0733858,-0.033122 0.127807,-0.0589134 0.171083,-0.0794252 0.0832717,-0.0394606 0.126961,-0.0601732 0.175681,-0.071815 0.0534094,-0.0127677 0.105913,-0.0127913 0.216327,-0.0128307 0.0354409,-7.87402e-006 0.0770709,-2.75591e-005 0.127051,-0.000472441 0.10315,-0.000917323 0.188976,-0.0119173 0.270378,-0.0223465 0.156433,-0.0200472 0.297213,-0.0380866 0.5155,0.0160827 0.108047,0.026811 0.202201,0.0484094 0.293047,0.0497598 0.0891181,0.00133071 0.177622,-0.0167283 0.277858,-0.0685512 0.0465039,-0.0240433 0.0702283,-0.0488386 0.0922008,-0.0718071 0.0379803,-0.039689 0.0717992,-0.0750394 0.17239,-0.098563 0.0652638,-0.0152677 0.115843,-0.0116063 0.166209,-0.00796063 0.0321929,0.00233071 0.064315,0.00466142 0.098374,0.00120079 0.0314291,-0.00318898 0.0689016,-0.0125866 0.105862,-0.0218543 0.0453268,-0.0113661 0.0899724,-0.0225512 0.130055,-0.0239724 0.00673622,-0.00419291 0.0133504,-0.00695669 0.0198228,-0.00775197 0.046063,-0.0131575 0.102921,-0.00863386 0.140303,-0.00565748 0.00853543,0.000681102 0.0146969,0.00147638 0.0182205,0.00187008 0.00198425,-0.00130709 0.0041378,-0.00274803 0.00631102,-0.00420472 0.0269528,-0.0180827 0.0561535,-0.0376654 0.0980984,-0.0229449 0.00788976,3.93701e-005 0.0172126,0.000700787 0.0269882,0.00174409 0.0208858,0.00222047 0.0457323,0.00594882 0.059437,0.00831102l0.00115354 0.000200787c0.0206142,0.00355118 0.0285984,0.00492913 0.0374134,0.0100787l0.00105118 0.000622047c0.00762205,-0.00116929 0.0144685,0.00108661 0.0242874,0.00954724 0.00144882,0.00105906 0.00284252,0.00222441 0.00417323,0.00350394l-0.00979134 0.0101811 3.93701e-006 7.87402e-006 0.00972047 -0.0101063c0.0145512,0.0139882 0.0164882,0.0231575 0.0135276,0.0334882 0.00421654,0.00525197 0.00585039,0.00748425 0.00738976,0.00988976l0.031626 0.0166654c0.000874016,0.000385827 0.00174016,0.000807087 0.00259843,0.00126378l-7.87402e-006 1.5748e-005 0.122776 0.065252c0.0116969,0.00574803 0.0203661,0.0170906 0.0220906,0.0309882l-0.0396969 0.00492913 0.039689 -0.00484252c0.00729134,0.0587441 0.00452756,0.0844016 0.00272835,0.101106 -0.000602362,0.00559449 -0.000980315,0.00911811 -0.000133858,0.0120551 0.00407087,0.0140551 0.0196102,0.0431024 0.0614764,0.121366l0.00553937 0.0103583c0.00900394,0.013689 0.00897244,0.0321102 -0.00142126,0.0459764l-0.0320079 -0.0239921 0.031874 0.0239055c-0.0616772,0.0822874 -0.0685669,0.0855079 -0.0856496,0.0885551l-0.00151969 0.000299213 -0.000208661 -0.00119685 -0.000102362 0.000177165 0.000169291 0.000988189c-0.000692913,0.000122047 0.00135039,-0.000228346 -0.00551575,0.00606299l-0.000952756 0.000972441 -5.51181e-005 -5.51181e-005 -0.000551181 0.000492126 -0.031 0.0305472c-0.00701575,0.00802756 -0.0172047,0.013252 -0.0286969,0.0136614l-0.0014252 -0.0399764 0.00140551 0.0398425c-0.0385157,0.00137008 -0.0991575,-0.0229803 -0.156626,-0.0460551 -0.0292008,-0.0117244 -0.0574961,-0.0230866 -0.0790551,-0.0295197l-0.206846 0.0438346c0.0104764,0.0712795 0.00893307,0.0919488 0.00495669,0.145047 -0.00151181,0.0202244 -0.0033937,0.045315 -0.0049685,0.0777205 0.075189,0.0510984 0.271492,0.184071 0.348657,0.200291 0.0473071,0.00994488 0.108134,0.032378 0.167276,0.0583858 0.0710197,0.0312283 0.14115,0.0683189 0.182406,0.0950394 0.035622,0.0230669 0.0682087,0.0214803 0.0985709,0.02 0.0478425,-0.00233465 0.092,-0.00448425 0.141429,0.0431969 0.00718898,-0.000106299 0.0145079,-0.000330709 0.021748,-0.000547244 0.0582126,-0.00175591 0.112756,-0.00340551 0.149673,0.0437402 0.00475984,0.00608268 0.00870079,0.0120827 0.0118543,0.0179528 0.0150394,0.0279921 0.016437,0.0566693 0.00836614,0.082878 -0.00750787,0.0244094 -0.0234685,0.0460669 -0.044063,0.0621929 -0.00662992,0.00518898 -0.0135354,0.00972441 -0.0205709,0.0135079 -0.0473031,0.0254252 -0.115067,0.0213661 -0.172213,0.0179488 -0.0271575,-0.00162598 -0.0514252,-0.00307874 -0.0632992,-0.000976378 -0.103173,0.0337874 -0.142457,0.0104567 -0.197476,-0.0222677 -0.0206339,-0.0122677 -0.0441535,-0.0262559 -0.0765906,-0.0374055 -0.0303583,-0.0104331 -0.108406,-0.0279606 -0.181831,-0.0444409 -0.0589882,-0.0132402 -0.115087,-0.0258386 -0.14422,-0.0342835 -0.0771102,-0.0223504 -0.152795,-0.053189 -0.23063,-0.0848976 -0.0788543,-0.032126 -0.159969,-0.0651732 -0.242815,-0.0897283 -0.00217717,-0.000480315 -0.00434646,-0.00114567 -0.00648425,-0.00201575l1.5748e-005 -3.93701e-005c-0.038815,-0.0157835 -0.0512165,-0.0335039 -0.0637362,-0.0514016 -0.0063189,-0.0090315 -0.0127205,-0.0181811 -0.0364843,-0.0267874 -0.0822402,-0.0297953 -0.132201,-0.0111457 -0.193224,0.0116378 -0.0714606,0.0266811 -0.155693,0.0581142 -0.30587,0.0428386 -0.00169685,-4.72441e-005 -0.00340945,-0.000208661 -0.00512992,-0.000480315l0.00626772 -0.0395039 -0.00625197 0.039374c-0.141496,-0.0224528 -0.272118,-0.0798268 -0.398839,-0.135488 -0.135217,-0.0593937 -0.265831,-0.116768 -0.393413,-0.122906 -0.166583,-0.00801969 -0.237248,0.0624764 -0.324972,0.15 -0.0317677,0.031689 -0.0655827,0.0654291 -0.107189,0.099685 -0.0380551,0.0313346 -0.0875551,0.043748 -0.136059,0.0558976l-0.00275984 0.000692913c-0.0766575,0.0192323 -0.0927047,0.0196181 -0.111402,0.020063 -0.00913386,0.000216535 -0.0191496,0.00046063 -0.0470157,0.0055315 -0.00194882,0.000519685 -0.00395669,0.000897638 -0.00602362,0.00112205l-0.00179134 -0.0164803 -5.11811e-005 8.66142e-005 0.00173622 0.0163189 -0.0294213 0.00320079c-0.00261024,0.000464567 -0.00530315,0.000677165 -0.00805512,0.000606299l3.93701e-006 -0.000145669c-0.0627756,-0.00158268 -0.113555,0.00256693 -0.161169,0.0136614zm2.88198 -1.15713l0.0127795 -0.0132835 -1.9685e-005 1.1811e-005 -0.0127598 0.0132717zm-0.379453 0.00544094l0 -1.1811e-005 -3.93701e-006 3.93701e-006 0 7.87402e-006 3.93701e-006 0zm3.93701e-006 -1.1811e-005l0 7.87402e-006 0.00955512 -0.00644488 -2.75591e-005 -3.93701e-006 -0.00952756 0.00644094z"/>
 </g>
 <rect class="fil1" width="6.82666" height="6.82666"/>
</svg>
