<?xml version="1.0" encoding="UTF-8"?>
<!DOCTYPE svg PUBLIC "-//W3C//DTD SVG 1.1//EN" "http://www.w3.org/Graphics/SVG/1.1/DTD/svg11.dtd">
<!-- Creator: CorelDRAW -->
<svg xmlns="http://www.w3.org/2000/svg" xml:space="preserve" width="6.82666in" height="6.82666in" style="shape-rendering:geometricPrecision; text-rendering:geometricPrecision; image-rendering:optimizeQuality; fill-rule:evenodd; clip-rule:evenodd"
viewBox="0 0 6.82666 6.82666"
 xmlns:xlink="http://www.w3.org/1999/xlink">
 <defs>
  <style type="text/css">
   <![CDATA[
    .fil2 {fill:none}
    .fil1 {fill:#212121}
    .fil0 {fill:#212121;fill-rule:nonzero}
   ]]>
  </style>
 </defs>
 <g id="Layer_x0020_1">
  <metadata id="CorelCorpID_0Corel-Layer"/>
  <path class="fil0" d="M1.45122 1.87134c0.0583071,-0.0562165 0.0996496,-0.12085 0.139693,-0.183461 0.0919646,-0.143791 0.177728,-0.277886 0.430327,-0.308287 0.0820236,-0.00988583 0.178236,-0.0040315 0.273843,0.0332598 0.0773307,0.0301654 0.153972,0.0808268 0.221929,0.160236 0.187433,0.218996 0.119717,0.379059 0.038815,0.570272 -0.00655512,0.0154882 -0.0132205,0.0312402 -0.020878,0.0498622l4.33071e-005 1.5748e-005 -0.000527559 0.00143307 2.75591e-005 1.1811e-005 -0.000240157 0.000562992c-0.034622,0.0937795 -0.0677402,0.200283 -0.0878307,0.306272 -0.0160197,0.0845354 -0.023815,0.168941 -0.0174685,0.24639l1.1811e-005 0 0 3.93701e-006 2.3622e-005 0 7.87402e-005 0.00116929 0.000173228 0.00202756 2.3622e-005 -3.93701e-006c9.05512e-005,0.00103937 0.000137795,0.0020748 0.000145669,0.00309843 0.00782677,0.0792598 0.0406772,0.164839 0.0936142,0.229024 0.0509252,0.0617441 0.120846,0.102843 0.204594,0.0960118l0 -1.1811e-005 0 -2.3622e-005 0.00119291 -7.87402e-005 0.000846457 -7.08661e-005 0 -2.3622e-005c0.00106693,-9.05512e-005 0.00212992,-0.000137795 0.00318504,-0.000145669 0.129252,-0.0119252 0.24585,-0.0365276 0.359098,-0.0604252 0.257807,-0.0544016 0.498819,-0.10526 0.848961,-0.00385433 0.157787,0.0457008 0.306736,0.123157 0.447516,0.230484 0.139614,0.106441 0.271386,0.242547 0.395945,0.406441l0.000149606 -0.000114173c0.00190551,0.00250394 0.0034685,0.00515748 0.00469685,0.00791339 0.013437,0.0228465 0.129539,0.196949 0.536157,0.170197 0.455724,-0.0299803 0.603898,-0.0423228 0.604677,-0.0423858l-3.93701e-006 -2.3622e-005c0.0220157,-0.00181496 0.0413425,0.0145591 0.0431575,0.0365748 0.0011063,0.0133976 -0.00452756,0.0257992 -0.0140669,0.0338622 -0.0234685,0.0229409 -0.222059,0.212709 -0.45424,0.296776l0.099937 0.021815 0.00150787 0.000330709 -0.00843701 0.039063 0.00857087 -0.0390709c0.00123622,0.000271654 0.00244094,0.000598425 0.00362205,0.000976378 0.0310354,0.00711811 0.0539882,0.0155945 0.0695354,0.0252402 0.028563,0.0177283 0.0391732,0.0401811 0.0336024,0.0667323l2.3622e-005 3.93701e-006 -1.1811e-005 5.90551e-005 -2.3622e-005 -3.93701e-006 -7.87402e-006 3.14961e-005 3.54331e-005 7.87402e-006 -0.000137795 0.000645669 -1.1811e-005 5.51181e-005c-0.00275591,0.0126181 -0.0112205,0.0225709 -0.022126,0.027685 -0.487339,0.253524 -1.3888,0.478524 -2.20159,0.46948 -0.406598,-0.00451969 -0.79187,-0.0674803 -1.0939,-0.214378 -0.30739,-0.149512 -0.528941,-0.385 -0.601138,-0.73265 -0.0504252,-0.242815 -0.0271063,-0.539701 0.0921181,-0.899382 0.00811811,-0.039622 0.13876,-0.68528 0.0438858,-0.770161 -0.0360394,-0.032248 -0.177114,0.00874803 -0.338016,0.0555039 -0.211906,0.0615787 -0.454921,0.132197 -0.603508,0.0597205 -0.169354,-0.0826063 -0.192079,-0.150472 -0.0702323,-0.225949 0.0819567,-0.0507717 0.259969,-0.101665 0.532634,-0.168744zm0.206882 -0.14065c-0.0441732,0.0690669 -0.0898307,0.140445 -0.157898,0.20422 -0.00512205,0.00548031 -0.0118425,0.00958661 -0.0196693,0.0115079l-2.3622e-005 -9.05512e-005c-0.270965,0.0664921 -0.446004,0.115693 -0.520051,0.161567 -0.035185,0.0217953 -0.0155236,0.0477874 0.0633583,0.0862638 0.121217,0.059126 0.348303,-0.0068622 0.546319,-0.0644055 0.183472,-0.053315 0.344335,-0.100059 0.413331,-0.0383228 0.127469,0.114043 -0.0080748,0.792449 -0.018626,0.844193 -0.000314961,0.00262992 -0.000897638,0.00526772 -0.00176772,0.00788189l-0.000165354 -5.51181e-005c-0.115213,0.346563 -0.138248,0.630457 -0.0904449,0.86065 0.0665394,0.320413 0.272142,0.538138 0.557697,0.677028 0.290929,0.1415 0.664445,0.202169 1.05983,0.206567 0.768567,0.00855118 1.61658,-0.195004 2.10611,-0.431693l-0.00350787 -0.000818898c-0.00108661,-0.000145669 -0.00217717,-0.000334646 -0.00326772,-0.000574803l7.87402e-006 -3.54331e-005 -0.00138189 -0.00030315 -0.278949 -0.0608976c-0.0182362,-0.00310236 -0.0324488,-0.0186102 -0.0332165,-0.0378307 -0.00088189,-0.0220709 0.0162992,-0.040685 0.0383701,-0.0415669l0.00159843 0.0399685 -0.00156299 -0.0398425c0.193165,-0.00772441 0.393575,-0.147472 0.504283,-0.238331 -0.0924331,0.00672835 -0.246614,0.0175512 -0.48811,0.0334409 -0.454913,0.0299291 -0.594866,-0.183854 -0.611177,-0.211831 -0.119425,-0.156795 -0.245638,-0.287012 -0.379213,-0.38885 -0.133079,-0.101461 -0.273307,-0.174512 -0.421264,-0.217366 -0.330807,-0.0958031 -0.562587,-0.0468976 -0.81052,0.00542126 -0.11502,0.0242717 -0.233429,0.0492638 -0.368063,0.0616693 -0.00120472,0.000212598 -0.00242126,0.000377953 -0.00366142,0.000484252l-3.93701e-006 -5.90551e-005 -0.000125984 1.9685e-005 3.93701e-006 2.75591e-005 -0.000759843 6.29921e-005 -0.00140551 0.000145669 -0.00327953 -0.0398661 0.00312598 0.0398425c-0.113075,0.00929921 -0.205957,-0.044315 -0.272559,-0.125063 -0.0630748,-0.0764724 -0.102154,-0.178146 -0.111394,-0.272071 -0.000228346,-0.00125197 -0.000405512,-0.00252756 -0.000515748,-0.00382283l0.000141732 -1.1811e-005 -2.75591e-005 -0.000141732 -0.000102362 7.87402e-006 -0.000165354 -0.0019252 -0.000145669 -0.00142126 0.0398661 -0.00327559 -0.0398425 0.00312598c-0.00696063,-0.0847047 0.00140551,-0.176236 0.0187008,-0.26748 0.0211299,-0.111465 0.0555039,-0.222224 0.091311,-0.319197 0.000350394,-0.00112205 0.000744094,-0.00224016 0.00120079,-0.00334646l0.037 0.0151969 -0.036874 -0.0151575c0.0064685,-0.0157559 0.0141772,-0.0339685 0.0217677,-0.0519055 0.0704449,-0.166504 0.129413,-0.305882 -0.0259961,-0.487461 -0.0585512,-0.0684213 -0.12426,-0.111945 -0.19037,-0.137732 -0.0817087,-0.0318701 -0.164528,-0.0368031 -0.235402,-0.0282598 -0.215303,0.0259094 -0.291165,0.144524 -0.372516,0.27172zm4.01978 2.53175l-0.000200787 -4.33071e-005 -0.000531496 -0.000106299 0.000149606 3.54331e-005 0.000582677 0.000114173z"/>
  <path class="fil0" d="M3.33735 4.73831c0,-0.0220906 -0.0179094,-0.04 -0.04,-0.04 -0.0220906,0 -0.04,0.0179094 -0.04,0.04l0 0.466087c0,0.0220906 0.0179094,0.04 0.04,0.04 0.0220906,0 0.04,-0.0179094 0.04,-0.04l0 -0.466087z"/>
  <path class="fil0" d="M3.07099 5.11079c-0.0214843,-0.00491732 -0.0428937,0.00851575 -0.047811,0.03 -0.00491732,0.0214843 0.00851575,0.0428937 0.03,0.047811l0.0928858 0.0215984 -0.173524 0.0547323c-0.0210551,0.00664173 -0.0327362,0.0291024 -0.0260945,0.0501575 0.00664173,0.0210551 0.0291024,0.0327362 0.0501575,0.0260945l0.311386 -0.0982165c0.0136693,-0.00377953 0.0248898,-0.0147244 0.0283268,-0.0295079 0.005,-0.0215157 -0.00838583,-0.0430197 -0.0299016,-0.0480197l-0.00905906 0.0389606 0.00890551 -0.0389055 -0.235272 -0.0547047z"/>
  <path class="fil0" d="M3.32907 5.22862c0.013374,-0.0175157 0.0100157,-0.0425669 -0.0075,-0.0559409 -0.0175157,-0.013374 -0.0425669,-0.0100157 -0.0559409,0.0075l-0.157748 0.206972c-0.013374,0.0175157 -0.0100157,0.0425669 0.0075,0.0559409 0.0175157,0.013374 0.0425669,0.0100157 0.0559409,-0.0075l0.157748 -0.206972z"/>
  <path class="fil0" d="M3.84415 4.73831c0,-0.0220906 -0.0179094,-0.04 -0.04,-0.04 -0.0220906,0 -0.04,0.0179094 -0.04,0.04l0 0.466087c0,0.0220906 0.0179094,0.04 0.04,0.04 0.0220906,0 0.04,-0.0179094 0.04,-0.04l0 -0.466087z"/>
  <path class="fil0" d="M3.57779 5.11079c-0.0214843,-0.00491732 -0.0428937,0.00851575 -0.047811,0.03 -0.00491732,0.0214843 0.00851575,0.0428937 0.03,0.047811l0.0928858 0.0215984 -0.173524 0.0547323c-0.0210551,0.00664173 -0.0327362,0.0291024 -0.0260945,0.0501575 0.00664173,0.0210551 0.0291024,0.0327362 0.0501575,0.0260945l0.311386 -0.0982165c0.0136693,-0.00377953 0.0248898,-0.0147244 0.0283268,-0.0295079 0.005,-0.0215157 -0.00838583,-0.0430197 -0.0299016,-0.0480197l-0.00905906 0.0389606 0.00890551 -0.0389055 -0.235272 -0.0547047z"/>
  <path class="fil0" d="M3.83587 5.22862c0.013374,-0.0175157 0.0100157,-0.0425669 -0.0075,-0.0559409 -0.0175157,-0.013374 -0.0425669,-0.0100157 -0.0559409,0.0075l-0.157748 0.206972c-0.013374,0.0175157 -0.0100157,0.0425669 0.0075,0.0559409 0.0175157,0.013374 0.0425669,0.0100157 0.0559409,-0.0075l0.157748 -0.206972z"/>
  <circle class="fil1" cx="2.009" cy="1.68391" r="0.0533327"/>
 </g>
 <rect class="fil2" width="6.82666" height="6.82666"/>
</svg>
