<?xml version="1.0" encoding="UTF-8"?>
<!DOCTYPE svg PUBLIC "-//W3C//DTD SVG 1.1//EN" "http://www.w3.org/Graphics/SVG/1.1/DTD/svg11.dtd">
<!-- Creator: CorelDRAW -->
<svg xmlns="http://www.w3.org/2000/svg" xml:space="preserve" width="6.82666in" height="6.82666in" style="shape-rendering:geometricPrecision; text-rendering:geometricPrecision; image-rendering:optimizeQuality; fill-rule:evenodd; clip-rule:evenodd"
viewBox="0 0 6.82666 6.82666"
 xmlns:xlink="http://www.w3.org/1999/xlink">
 <defs>
  <style type="text/css">
   <![CDATA[
    .fil1 {fill:none}
    .fil0 {fill:#212121;fill-rule:nonzero}
   ]]>
  </style>
 </defs>
 <g id="Layer_x0020_1">
  <metadata id="CorelCorpID_0Corel-Layer"/>
  <path class="fil0" d="M5.87137 4.09986l-0.17598 -0.747106 -5.11811e-005 1.1811e-005c-0.00164173,-0.00697638 -0.00135039,-0.0139567 0.000531496,-0.020378l0.171079 -0.726291c-0.0549173,0.0486299 -0.121311,0.11026 -0.193106,0.176894 -0.254894,0.236579 -0.576622,0.535193 -0.731709,0.56826 -0.111146,0.0236969 -0.247768,0.0208346 -0.415453,-0.0349016 -0.164051,-0.0545236 -0.358512,-0.160075 -0.588823,-0.341957 -0.20948,-0.165429 -0.408819,-0.289031 -0.603685,-0.369921 -0.193008,-0.0801181 -0.381488,-0.118142 -0.571031,-0.113205 -0.136571,0.00355512 -0.254937,0.0216024 -0.360768,0.0509606 -0.105575,0.0292953 -0.19865,0.0698268 -0.284858,0.118461 -0.152283,0.0859094 -0.285724,0.198764 -0.428906,0.319858 -0.0894646,0.0756693 -0.182677,0.154504 -0.286209,0.231882l-3.14961e-005 2.3622e-005 1.5748e-005 2.3622e-005 -0.000271654 0.00019685c-0.0494882,0.042374 -0.117657,0.0918228 -0.190224,0.144453 -0.0945276,0.068563 -0.196665,0.14265 -0.269185,0.209209 0.103543,0.186445 0.808142,1.30171 2.57608,0.719681l-7.87402e-006 -2.3622e-005c0.000728346,-0.000240157 0.00145669,-0.000452756 0.00218898,-0.000649606 0.119917,-0.0420709 0.25339,-0.0969803 0.39637,-0.172559 0.143886,-0.0760512 0.297366,-0.173087 0.456256,-0.299106 0.0776575,-0.0615906 0.169831,-0.122126 0.269433,-0.167441 0.0837953,-0.038126 0.173335,-0.0656772 0.264752,-0.0744449 0.227256,-0.0218031 0.564736,0.231047 0.817736,0.420602 0.0531969,0.0398583 0.102528,0.076815 0.145858,0.107469zm-0.0960591 -0.756264l0.196441 0.833965c0.00295276,0.0102323 0.00184252,0.0216142 -0.00401575,0.0314961 -0.0112638,0.019 -0.0358071,0.0252756 -0.0548071,0.0140118l3.93701e-005 -6.29921e-005c-0.060126,-0.0356457 -0.141906,-0.0969173 -0.235268,-0.166866 -0.242386,-0.181602 -0.565709,-0.423843 -0.762421,-0.404972 -0.0813031,0.00779528 -0.162358,0.0329488 -0.23913,0.067878 -0.0935197,0.0425472 -0.18002,0.0993543 -0.252874,0.157134 -0.163039,0.129311 -0.32076,0.229 -0.468752,0.307224 -0.146606,0.0774961 -0.28376,0.133902 -0.407138,0.177193 -0.00116535,0.000507874 -0.0023622,0.000972441 -0.00359449,0.00137795l-0.0125079 -0.0379921 0.0125 0.0379685c-1.93734,0.637799 -2.6471,-0.708752 -2.68441,-0.782591 -0.00971654,-0.0155591 -0.0077126,-0.036311 0.00591339,-0.0496969l7.87402e-005 8.26772e-005c0.0776339,-0.0762717 0.193362,-0.160217 0.299646,-0.237307 0.0717795,-0.0520591 0.139201,-0.100965 0.185091,-0.140236 0.00135039,-0.00135433 0.00281102,-0.00262992 0.00438976,-0.00380709l0.0239449 0.0320394 -0.0239055 -0.0320315c0.103106,-0.0770551 0.19465,-0.154484 0.282516,-0.228795 0.14574,-0.12326 0.281563,-0.23813 0.441402,-0.328299 0.0917992,-0.0517874 0.190717,-0.0948937 0.302669,-0.125957 0.111705,-0.0309882 0.236445,-0.0500315 0.380146,-0.0537717 0.201102,-0.00524016 0.400291,0.0347795 0.603528,0.119142 0.201378,0.0835906 0.40689,0.210945 0.622441,0.381165 0.222413,0.175642 0.408567,0.277031 0.564445,0.328839 0.152252,0.0506063 0.274933,0.0535 0.373894,0.0323976 0.133524,-0.0284724 0.446181,-0.318665 0.69389,-0.548575 0.117122,-0.108701 0.219988,-0.204185 0.286638,-0.255319 0.00943701,-0.00875197 0.0229252,-0.0127992 0.0363937,-0.00962598 0.0215,0.00506299 0.0348268,0.0266024 0.0297638,0.0481024l-5.11811e-005 -1.1811e-005 -0.196898 0.835902z"/>
  <path class="fil0" d="M1.88361 3.77705c0.000169291,-0.0220039 -0.0175276,-0.0399843 -0.0395315,-0.0401535 -0.0220039,-0.000169291 -0.0399843,0.0175276 -0.0401535,0.0395315 -0.000877953,0.0804213 -0.013689,0.167138 -0.0460827,0.255669 -0.0277047,0.0757165 -0.0698504,0.152799 -0.131256,0.228437 -0.0138937,0.0170827 -0.0113031,0.0422008 0.00577953,0.0560945 0.0170827,0.0138937 0.0422008,0.0113031 0.0560945,-0.00577953 0.0674173,-0.0830433 0.113787,-0.167953 0.144382,-0.251563 0.035685,-0.0975236 0.0497992,-0.193283 0.0507677,-0.282236z"/>
  <path class="fil0" d="M2.05292 3.16391c-0.00862992,-0.0202795 -0.0320669,-0.0297244 -0.0523465,-0.0210945 -0.0202795,0.00862992 -0.0297244,0.0320669 -0.0210945,0.0523465 0.000850394,0.00198819 0.30137,0.690213 -0.144339,1.15168 -0.0152717,0.015878 -0.0147835,0.0411378 0.00109449,0.0564094 0.015878,0.0152717 0.0411378,0.0147835 0.0564094,-0.00109449 0.482772,-0.499839 0.161185,-1.23611 0.160276,-1.23824z"/>
  <path class="fil0" d="M1.63773 3.28537c0.0350079,0 0.0667126,0.0142008 0.0896575,0.0371457l3.93701e-006 -3.93701e-006c0.000877953,0.000877953 0.00170866,0.0017874 0.00248425,0.00272441 0.0214843,0.0227835 0.0346575,0.0533819 0.0346575,0.086937 0,0.0348701 -0.0142283,0.0665472 -0.0372244,0.0895787l7.87402e-005 7.87402e-005 -3.93701e-006 3.93701e-006 3.93701e-006 3.93701e-006 -0.0005 0.000488189c-0.0229055,0.0226535 -0.0544055,0.0366496 -0.0891575,0.0366496 -0.0348307,0 -0.0664803,-0.0141929 -0.0895039,-0.0371457l-7.48031e-005 -7.87402e-005 -3.93701e-006 -3.93701e-006 -8.26772e-005 8.26772e-005c-0.000877953,-0.000877953 -0.00170472,-0.00179134 -0.00248425,-0.00272835 -0.0214803,-0.0227795 -0.0346535,-0.053378 -0.0346535,-0.0869291 0,-0.0348307 0.0141929,-0.0664803 0.0371457,-0.0895039l7.87402e-005 -7.48031e-005 3.93701e-006 -3.93701e-006 -8.26772e-005 -8.26772e-005c0.000877953,-0.000877953 0.00179134,-0.00170472 0.00272835,-0.00248425 0.0227795,-0.0214803 0.053378,-0.0346535 0.0869291,-0.0346535zm0.0330984 0.0937047c-0.00846457,-0.00846457 -0.0201693,-0.0137047 -0.0330984,-0.0137047 -0.012248,0 -0.0233189,0.0045748 -0.0315551,0.0120748 -0.000496063,0.000555118 -0.00100787,0.00110236 -0.00154331,0.0016378l-0.0282795 -0.0282874 0.028126 0.0282795c-0.00837008,0.00837008 -0.0135512,0.0200669 -0.0135512,0.0330984 0,0.012248 0.0045748,0.0233189 0.0120748,0.0315551 0.000555118,0.000496063 0.00110236,0.00100787 0.0016378,0.00154331l-0.0282874 0.0282795 0.0282795 -0.028126c0.00837008,0.00837008 0.0200669,0.0135512 0.0330984,0.0135512 0.0128228,0 0.0244409,-0.00515354 0.0328858,-0.0134961l0.000212598 -0.000216535 0.0282795 0.0282874 -0.028126 -0.0282795c0.00837008,-0.00837008 0.0135512,-0.0200669 0.0135512,-0.0330984 0,-0.012248 -0.0045748,-0.023315 -0.0120748,-0.0315512 -0.000555118,-0.0005 -0.00109843,-0.00100787 -0.00163386,-0.00154331l3.93701e-006 -3.93701e-006z"/>
  <path class="fil0" d="M2.66379 3.42711c-0.0147559,-0.0163071 -0.0399449,-0.0175669 -0.056252,-0.00281102 -0.0163071,0.0147559 -0.0175669,0.0399449 -0.00281102,0.056252 0.000586614,0.000653543 0.195886,0.221232 0.494937,0.139421 0.0219843,0.0519134 0.0559409,0.169154 -0.0154016,0.291126 -0.00652756,0.0111614 -0.0145551,0.0200906 -0.0237874,0.0270157 -0.036126,0.0270945 -0.0942008,0.0275472 -0.158445,0.0130512 -0.0706535,-0.0159449 -0.146882,-0.0498858 -0.212079,-0.0880197 -0.0667205,-0.0390236 -0.120551,-0.0812992 -0.14361,-0.112043 -0.0132008,-0.0176024 -0.0381772,-0.0211693 -0.0557795,-0.0079685 -0.0176024,0.0132008 -0.0211693,0.0381772 -0.0079685,0.0557795 0.0290079,0.0386732 0.0916654,0.0888937 0.167043,0.13298 0.0715512,0.0418504 0.155843,0.0792441 0.23489,0.0970827 0.0854567,0.0192795 0.166315,0.0159685 0.22376,-0.0271142 0.0175945,-0.0132008 0.0326929,-0.029878 0.0447244,-0.0504488 0.110504,-0.188933 0.0185945,-0.369421 0.00370079,-0.396248 -0.00845276,-0.018437 -0.0296772,-0.0278268 -0.0492835,-0.021126l2.3622e-005 7.08661e-005c-0.267937,0.0915591 -0.443154,-0.106437 -0.443661,-0.107z"/>
  <path class="fil0" d="M2.145 2.56495c-0.00992126,0.0196732 -0.00201575,0.0436732 0.0176575,0.0535945 0.0196732,0.00992126 0.0436732,0.00201575 0.0535945,-0.0176575l0.317606 -0.62537 0.594146 0.554189 -5.90551e-005 6.29921e-005c0.015437,0.0143976 0.0392323,0.0142283 0.0544646,9.05512e-005 0.0311929,-0.0239252 0.33622,-0.248917 0.69239,-0.18065 -0.0544134,0.106539 -0.171346,0.367417 -0.0911417,0.505394 0.0110433,0.0190709 0.0354606,0.0255748 0.0545315,0.0145315 0.0190709,-0.0110433 0.0255748,-0.0354606 0.0145315,-0.0545315 -0.0745827,-0.128299 0.0951457,-0.435244 0.114626,-0.469642 0.00264567,-0.00375197 0.00468504,-0.00802362 0.00594094,-0.0127165 0.00570472,-0.0213386 -0.00697244,-0.0432677 -0.028311,-0.0489724l-0.0103307 0.0386417 0.010311 -0.0385945c-0.366217,-0.0979055 -0.691843,0.099874 -0.786559,0.165571l-0.606811 -0.566c-0.00311417,-0.00334646 -0.0068622,-0.0062126 -0.0111732,-0.00840157 -0.0196969,-0.0100039 -0.0437756,-0.00214567 -0.0537795,0.0175512l0.0356654 0.0181142 -0.035626 -0.0179685 -0.341673 0.672764z"/>
  <path class="fil0" d="M2.26489 4.44323c-0.0134606,-0.0174291 -0.0385079,-0.0206496 -0.055937,-0.00718898 -0.0174291,0.0134606 -0.0206496,0.0385079 -0.00718898,0.055937l0.346272 0.448882 -9.84252e-005 7.48031e-005c0.0134921,0.0174921 0.0386142,0.0207323 0.0561063,0.00724016 0.00421654,-0.00325197 0.00760236,-0.00718504 0.0101299,-0.0115197l0.142866 -0.218264 0.181461 0.128331 -4.33071e-005 6.29921e-005c0.0151693,0.0107283 0.0352402,0.00940157 0.0488268,-0.00201969l0.831957 -0.595075c0.0179488,-0.0127717 0.0221457,-0.0376772 0.00937402,-0.055626 -0.0127717,-0.0179488 -0.0376772,-0.0221457 -0.055626,-0.00937402l-0.811531 0.580465 -0.19015 -0.134476c-0.000996063,-0.000799213 -0.00203543,-0.00155906 -0.00312598,-0.00227165 -0.0184803,-0.0120945 -0.0432795,-0.00691732 -0.055374,0.011563l0.0334685 0.0219055 -0.033437 -0.021874 -0.135945 0.207689 -0.312004 -0.404461z"/>
  <path class="fil0" d="M3.81409 4.18157c-0.0196732,-0.00992126 -0.0436732,-0.00201575 -0.0535945,0.0176575 -0.00992126,0.0196732 -0.00201575,0.0436732 0.0176575,0.0535945 0.154382,0.0778583 0.305768,0.125547 0.438697,0.154437 0.253846,0.0551654 0.445724,0.0414764 0.459752,0.038622 0.019315,-0.00393307 0.0349921,-0.012189 0.0467874,-0.0240039 0.0170827,-0.0171142 0.0246654,-0.0397165 0.0222953,-0.0659488 -0.00182677,-0.0202362 -0.0101417,-0.0427323 -0.0252008,-0.0660315 -0.0274803,-0.0425118 -0.0799409,-0.0910906 -0.159157,-0.135075l-0.019374 0.0348425 0.0194173 -0.0349685c-0.00164173,-0.000909449 -0.00331102,-0.00169291 -0.00501575,-0.00235039 -0.00340157,-0.00156299 -0.00648819,-0.00305512 -0.00923622,-0.0044685l-0.0010315 0.00199606 -4.72441e-005 -3.93701e-006 0.00108268 -0.00210236c-0.00101575,-0.000523622 -0.00204724,-0.000996063 -0.00308661,-0.0014252 -0.0486378,-0.0258622 -0.079252,-0.0646102 -0.090374,-0.112949 -0.0121024,-0.0526024 -0.00230315,-0.117657 0.0310315,-0.191476 0.00443307,-0.00982283 0.00865354,-0.0186339 0.012626,-0.0263701 0.0100079,-0.0195866 0.00224409,-0.0435866 -0.0173425,-0.0535945 -0.0195866,-0.0100079 -0.0435866,-0.00224409 -0.0535945,0.0173425 -0.00574409,0.011185 -0.0105787,0.021122 -0.0145,0.029811 -0.0407283,0.090185 -0.0520354,0.172547 -0.0360315,0.242098 0.0164764,0.0716339 0.0609449,0.128516 0.131268,0.165736 0.00110236,0.000708661 0.00224803,0.00137402 0.00343701,0.00198425l4.72441e-005 -9.05512e-005c0.00488583,0.00251181 0.00957087,0.0047874 0.0140394,0.00682677 0.0659449,0.0369173 0.108142,0.0751457 0.128969,0.107362 0.00781102,0.0120827 0.0119921,0.0222756 0.0126969,0.0300945 0.000161417,0.00182283 0.000700787,0.00233071 0.000523622,0.00250787 -0.000708661,0.000712598 -0.00275197,0.00143701 -0.00616535,0.00212992 -0.0123976,0.00251969 -0.185917,0.0137559 -0.426941,-0.038622 -0.12748,-0.0277047 -0.27239,-0.0733031 -0.419634,-0.147563z"/>
 </g>
 <rect class="fil1" width="6.82666" height="6.82666"/>
</svg>
