<?xml version="1.0" encoding="UTF-8"?>
<!DOCTYPE svg PUBLIC "-//W3C//DTD SVG 1.1//EN" "http://www.w3.org/Graphics/SVG/1.1/DTD/svg11.dtd">
<!-- Creator: CorelDRAW -->
<svg xmlns="http://www.w3.org/2000/svg" xml:space="preserve" width="6.82666in" height="6.82666in" style="shape-rendering:geometricPrecision; text-rendering:geometricPrecision; image-rendering:optimizeQuality; fill-rule:evenodd; clip-rule:evenodd"
viewBox="0 0 6.82666 6.82666"
 xmlns:xlink="http://www.w3.org/1999/xlink">
 <defs>
  <style type="text/css">
   <![CDATA[
    .fil2 {fill:none}
    .fil1 {fill:#212121}
    .fil0 {fill:#212121;fill-rule:nonzero}
   ]]>
  </style>
 </defs>
 <g id="Layer_x0020_1">
  <metadata id="CorelCorpID_0Corel-Layer"/>
  <path class="fil0" d="M1.71604 1.23c0.0116969,-0.0215748 0.447673,-0.814709 1.10688,-0.0475l8.26772e-005 -7.08661e-005c0.00154724,0.00179921 0.00290551,0.00369685 0.0040748,0.00566929 0.0285354,0.0419843 0.466094,0.708984 -0.339213,1.03745 -0.15839,0.0646063 -0.274835,0.136508 -0.354508,0.208315 -0.0862402,0.0777283 -0.127831,0.1535 -0.131768,0.217661 -0.000570866,0.00933858 -0.000397638,0.0181299 0.000452756,0.0263583 0.00442126,0.042748 0.028126,0.0745276 0.0611732,0.0963937 0.0363583,0.0240551 0.0837992,0.0368622 0.131031,0.0397559 0.0183898,0.00112205 0.0365866,0.000751969 0.0539449,-0.00104331 0.11637,-0.0120394 0.232146,-0.0845827 0.346717,-0.15637 0.0610827,-0.0382717 0.121858,-0.0763543 0.181795,-0.105535 0.427449,-0.208118 0.700827,-0.0414843 0.933594,0.100402 0.00520866,0.00317323 0.00827559,0.00505512 0.034,0.0205984l-0.020626 0.0342205 0.020685 -0.0342362c0.00128346,0.000775591 0.00250394,0.00161024 0.00366929,0.00250394 0.0908189,0.0604921 0.307701,0.233114 0.528835,0.409122 0.276362,0.219965 0.559453,0.445291 0.593531,0.453579l-0.00937402 0.038752 0.00945669 -0.0388661c0.00514173,0.00125197 0.00980709,0.00344488 0.0138543,0.00635039 0.22672,0.131311 0.365016,0.292358 0.446882,0.44887 0.134709,0.257531 0.115949,0.505382 0.0871929,0.589756 -0.00937795,0.0275433 -0.0272205,0.0361339 -0.053252,0.027189l1.5748e-005 -5.11811e-005 -1.9685e-005 -7.87402e-006 -2.75591e-005 7.87402e-005c-0.0122598,-0.0042126 -0.0211496,-0.0137913 -0.0249567,-0.0252126 -0.0126299,-0.0219646 -0.0240315,-0.0564606 -0.0381969,-0.0993583 -0.0198268,-0.0600433 -0.0462795,-0.140146 -0.0778819,-0.217114 0.0182126,0.206102 0.031563,0.467807 -0.0234409,0.492571 -0.0312126,0.0140551 -0.0532874,-0.000374016 -0.0696181,-0.0366417 -0.0123504,-0.0274331 -0.024752,-0.0771693 -0.0399409,-0.138106 -0.017374,-0.0697205 -0.0386339,-0.15498 -0.0661772,-0.232567 -0.0110394,0.14674 -0.0351614,0.344331 -0.0855551,0.362386l1.9685e-005 5.90551e-005 -3.54331e-005 1.1811e-005 2.3622e-005 6.69291e-005c-0.00196457,0.000688976 -0.00394488,0.00121654 -0.00592913,0.00159055l-0.00138976 0.000287402 3.93701e-006 2.75591e-005 -6.69291e-005 1.1811e-005 1.1811e-005 7.08661e-005c-0.00125591,0.00023622 -0.00251181,0.000409449 -0.00375984,0.000527559 -0.0201969,0.0025748 -0.0384567,-0.00611024 -0.0542087,-0.0281772 -0.00854331,-0.0119646 -0.0172008,-0.0298543 -0.0259055,-0.0546181 -0.014122,-0.0401496 -0.0297244,-0.101685 -0.0469173,-0.190138l-6.69291e-005 1.1811e-005c-0.000354331,-0.00183071 -0.00057874,-0.00366142 -0.000677165,-0.00547244 -0.0236654,-0.175138 -0.117524,-0.339535 -0.264992,-0.452413 -0.135008,-0.103339 -0.31524,-0.163528 -0.528169,-0.149492 -0.160772,0.0105984 -0.300917,0.0836575 -0.433894,0.152972 -0.147874,0.0770866 -0.287445,0.149839 -0.44622,0.13774l0.0029685 -0.0398425 -0.00303937 0.0398858c-0.00324803,-0.000248031 -0.00637402,-0.000877953 -0.00934252,-0.00184252 -0.104622,-0.0278819 -0.214177,-0.0531142 -0.325776,-0.078815 -0.642122,-0.14787 -1.35,-0.31089 -1.40089,-1.01052 -0.0471693,-0.648622 0.328661,-0.837421 0.657776,-1.00275 0.204118,-0.102539 0.388772,-0.195299 0.420709,-0.388803 0.029878,-0.181047 0.0281339,-0.241681 0.0102047,-0.244638 -0.0186929,-0.00308268 -0.0667953,0.0333583 -0.118878,0.0728268 -0.0491457,0.037248 -0.101307,0.0767756 -0.152063,0.0967717 -0.0177717,0.00700394 -0.033622,0.0137283 -0.0507402,0.0209921l2.3622e-005 5.51181e-005 -3.93701e-005 1.5748e-005 3.54331e-005 8.66142e-005c-0.000834646,0.000354331 -0.00167717,0.000673228 -0.00252362,0.000968504 -0.143031,0.060689 -0.357205,0.150429 -0.442764,-0.00355118 -0.055311,-0.0657244 -0.0681457,-0.135126 -0.059815,-0.19952 0.00797638,-0.061685 0.0356102,-0.117307 0.0630079,-0.159685zm1.04497 0.00290945c-0.572205,-0.664283 -0.950217,-0.00912992 -0.974063,0.033878 -0.000779528,0.00164961 -0.00167717,0.00326772 -0.00270079,0.00483858l-0.000110236 -7.08661e-005c-0.022752,0.034878 -0.0458425,0.0801732 -0.0520433,0.12813 -0.00574409,0.0444134 0.00329528,0.0924961 0.0419961,0.138425 0.00281102,0.00279528 0.00524803,0.00605906 0.00718898,0.00975197l-8.26772e-005 4.33071e-005c0.0499843,0.0950197 0.225862,0.021185 0.343248,-0.028626 0.000799213,-0.000401575 0.00161024,-0.000783465 0.00244488,-0.0011378l0.015622 0.0368228 -0.0154685 -0.0367205c0.0205709,-0.00872441 0.0396378,-0.0168189 0.052748,-0.0219843 0.0402677,-0.0158661 0.0880118,-0.0520472 0.133,-0.0861417 0.0662008,-0.0501654 0.127335,-0.0964843 0.179815,-0.0878268 0.0660945,0.0109055 0.0953976,0.0958425 0.0557323,0.336197 -0.0385551,0.233602 -0.240547,0.335079 -0.463835,0.447244 -0.306752,0.154094 -0.657043,0.330067 -0.613713,0.925878 0.0465945,0.640709 0.724283,0.796772 1.33901,0.938335 0.112724,0.0259606 0.223402,0.0514488 0.326874,0.0789803 0.134772,0.00893701 0.263516,-0.0581614 0.39985,-0.129232 0.140083,-0.0730236 0.28772,-0.149984 0.465768,-0.16172 0.233539,-0.0153937 0.432122,0.051315 0.58161,0.165736 0.164394,0.125835 0.269067,0.30935 0.295543,0.505043l0.000212598 0.00102362 -7.08661e-005 1.1811e-005 1.9685e-005 0.00011811 7.87402e-006 0c0.0164843,0.0848268 0.0310197,0.142626 0.043815,0.179004l0.000870079 0.00245276c0.019185,-0.093189 0.028374,-0.382469 0.0294055,-0.416736 -0.000775591,-0.0138228 0.00565748,-0.0276693 0.0180827,-0.0357756 0.0185,-0.0120709 0.0432874,-0.00685827 0.0553583,0.0116417l-0.0335 0.0218583 0.033437 -0.0217205c0.0693346,0.10626 0.111091,0.27376 0.141504,0.395791l0.00216142 0.00866929c-0.00767717,-0.136098 -0.0313937,-0.361012 -0.043315,-0.474055l-0.0028622 -0.0272402c-0.00263386,-0.0146339 0.00302756,-0.0301614 0.0158661,-0.0394843 0.017874,-0.0129803 0.0428898,-0.00901181 0.0558701,0.0088622l-0.0323661 0.0235039 0.0323425 -0.023437c0.069248,0.0953583 0.124953,0.247693 0.163665,0.362571 -0.00206299,-0.101528 -0.0260591,-0.236421 -0.0993622,-0.376555 -0.0758622,-0.145035 -0.204819,-0.294689 -0.417323,-0.417484 -0.0691654,-0.0302598 -0.345764,-0.250413 -0.616091,-0.465571 -0.219965,-0.175075 -0.435693,-0.346783 -0.523398,-0.405193l-0.000791339 -0.000464567 2.3622e-005 -3.93701e-005c-0.00320472,-0.00193701 -0.0165866,-0.0101181 -0.0342717,-0.0208898 -0.215559,-0.131398 -0.468728,-0.285713 -0.857035,-0.0966535 -0.0589724,0.0287126 -0.116642,0.0648465 -0.174606,0.101165 -0.122508,0.0767598 -0.246307,0.154335 -0.38078,0.168244 -0.0217205,0.00224803 -0.0442402,0.00272835 -0.0667559,0.00135039 -0.0602441,-0.00369291 -0.121776,-0.0207047 -0.170409,-0.0528819 -0.0519449,-0.0343701 -0.0892913,-0.0852756 -0.0964882,-0.154827 -0.00130315,-0.0125787 -0.00158661,-0.0256457 -0.000759843,-0.0391693 0.00516929,-0.0843031 0.0551024,-0.179602 0.158012,-0.272354 0.0860787,-0.0775827 0.210382,-0.154654 0.377949,-0.223 0.71474,-0.291531 0.328811,-0.880795 0.303146,-0.918579zm2.16508 3.4448l-0.00351181 -0.0100787 -0.00205118 -0.0109409 -3.93701e-005 2.75591e-005 0.00203937 0.0107677 -4.33071e-005 -0.000122047 3.93701e-005 0.00019685 3.93701e-005 0.00011811 1.1811e-005 6.29921e-005 5.11811e-005 0.000137795 -1.1811e-005 -6.29921e-005 0.00347638 0.0098937zm-0.00351181 -0.0100787l-5.11811e-005 -0.000145669 3.54331e-005 0.000192913 5.11811e-005 0.000137795 -3.54331e-005 -0.000185039zm-0.00205118 -0.0109409l-0.0027874 -0.0149055 -9.05512e-005 -3.93701e-005 0.00283858 0.0149724 3.93701e-005 -2.75591e-005z"/>
  <path class="fil0" d="M1.87827 1.65659c0.0128543,-0.0178622 0.00879921,-0.0427677 -0.00906299,-0.055622 -0.0178622,-0.0128543 -0.0427677,-0.00879921 -0.055622,0.00906299 -0.021378,0.0297638 -0.0533386,0.0858701 -0.0596417,0.161689 -0.00479921,0.0576496 0.00503543,0.126583 0.0454606,0.203484 -0.0154843,-0.00590157 -0.0309016,-0.0142717 -0.0446969,-0.0249213 -0.155291,-0.119913 -0.0891811,-0.332949 -0.0458898,-0.472453 0.00996457,-0.0321181 0.0188307,-0.0606732 0.024374,-0.0857795 0.00474409,-0.0214843 -0.00882677,-0.0427559 -0.030311,-0.0475 -0.0214843,-0.00474409 -0.0427559,0.00882677 -0.0475,0.030311 -0.00460236,0.0208386 -0.0131772,0.0484646 -0.022815,0.0795276 -0.0497638,0.160362 -0.125756,0.40524 0.0733937,0.55902 0.0268031,0.020689 0.0579764,0.0354961 0.0880984,0.0437795 0.0320197,0.00880315 0.0638189,0.0103386 0.0894252,0.00398031 0.00567717,-0.00108661 0.0112047,-0.0034252 0.0161693,-0.00708268 0.0177835,-0.0131024 0.0215748,-0.0381457 0.00847244,-0.0559291l-7.08661e-005 5.11811e-005c-0.0639646,-0.0868386 -0.0792913,-0.161457 -0.0744252,-0.219929 0.00477165,-0.0573898 0.0286654,-0.0994488 0.0446417,-0.121689z"/>
  <circle class="fil1" cx="2.03447" cy="1.24922" r="0.05986"/>
  <path class="fil0" d="M3.17015 4.08853c0,-0.0220906 -0.0179094,-0.04 -0.04,-0.04 -0.0220906,0 -0.04,0.0179094 -0.04,0.04l0 1.64972c0,0.0220906 0.0179094,0.04 0.04,0.04 0.0220906,0 0.04,-0.0179094 0.04,-0.04l0 -1.64972z"/>
  <path class="fil0" d="M3.16375 5.57387c0.0119921,-0.0184646 0.00674803,-0.0431654 -0.0117165,-0.0551575 -0.0184646,-0.0119921 -0.0431654,-0.00674803 -0.0551575,0.0117165 -0.000232283,0.000358268 -0.0810906,0.126228 -0.166835,0.12315 -0.103169,-0.00369685 -0.161224,-0.0179567 -0.162941,-0.0183819l3.93701e-005 -0.000161417c-0.0214843,-0.0051378 -0.0430669,0.00811417 -0.0482047,0.0295984 -0.00114961,0.00480709 -0.00137795,0.00961811 -0.000799213,0.014252 0.00255906,0.0547402 -0.015626,0.0666378 -0.0531929,0.0912047l-0.0105039 0.00694488 -4.72441e-005 -7.48031e-005c-0.0184331,0.0121693 -0.0235157,0.0369843 -0.0113465,0.0554173 0.00600394,0.00909449 0.0150866,0.014937 0.0249646,0.017063 0.0350039,0.0098622 0.0615748,0.0188937 0.0741614,0.030815 0.00755118,0.00714961 0.00905906,0.0196102 0.00251181,0.0417087l-9.44882e-005 -2.75591e-005c-0.0062874,0.0211732 0.00577953,0.0434449 0.0269528,0.0497323 0.0139055,0.00412992 0.0282795,0.00034252 0.0382953,-0.00874016 0.0209055,-0.015378 0.153602,-0.109484 0.267913,-0.106898l-3.93701e-006 0.000145669c0.00642126,0.000149606 0.0125236,-0.00122047 0.0179646,-0.0037874 0.0172165,-0.00691339 0.0850551,-0.0394488 0.0741339,-0.119457 -0.00293307,-0.0218307 -0.0230118,-0.0371535 -0.0448425,-0.0342205 -0.0218307,0.00293307 -0.0371535,0.0230118 -0.0342205,0.0448425 0.00253937,0.0186024 -0.0119803,0.0286535 -0.0200709,0.032748 -0.0912559,0.000838583 -0.18702,0.0471339 -0.247961,0.0832126 -0.00535827,-0.0139173 -0.0139921,-0.0260945 -0.0255787,-0.0370709 -0.00999606,-0.0094685 -0.021878,-0.0172717 -0.0355157,-0.0240748 0.0199213,-0.0187165 0.031874,-0.0404173 0.0355433,-0.0766811 0.0305236,0.00457874 0.074622,0.00958661 0.130031,0.0115748 0.131346,0.0047126 0.236217,-0.158925 0.23652,-0.159394z"/>
  <path class="fil0" d="M2.82797 4.02888c0.00785039,-0.020622 -0.0025,-0.0437126 -0.023122,-0.051563 -0.020622,-0.00785039 -0.0437126,0.0025 -0.051563,0.023122l-0.265 0.693378 -3.54331e-005 -1.5748e-005c-0.00788583,0.0206339 0.00244882,0.0437559 0.0230827,0.0516417 0.00224409,0.000858268 0.00451969,0.0015 0.00680315,0.00193701l1.04956 0.276465c0.021315,0.0056063 0.0431457,-0.00712205 0.048752,-0.028437 0.0056063,-0.021315 -0.00712205,-0.0431457 -0.028437,-0.048752l-1.0092 -0.265835 0.249161 -0.651941z"/>
  <path class="fil0" d="M3.42858 4.91143c-0.0147559,-0.0163071 -0.0399449,-0.0175669 -0.056252,-0.00281102 -0.0163071,0.0147559 -0.0175669,0.0399449 -0.00281102,0.056252 0.000283465,0.000314961 0.0998976,0.109783 0.0747126,0.191862 -0.0300709,0.0980197 -0.0586299,0.150291 -0.0598583,0.15252l-0.000125984 -7.08661e-005c-0.0106102,0.019374 -0.00350394,0.043685 0.0158701,0.0542953 0.00453543,0.00248425 0.00934646,0.00399606 0.014185,0.00461024 0.0531102,0.0116535 0.0598937,0.0322795 0.0738504,0.0747874l0.0275984 -0.00897244 3.93701e-005 2.3622e-005 -0.0276732 0.00908661 0.000484252 0.00137402 0.00344488 0.0104449 0.00183858 -0.000606299 1.5748e-005 2.3622e-005 -0.00187008 0.00061811c0.00692126,0.0209764 0.0295433,0.0323701 0.0505197,0.0254488 0.0103504,-0.00341339 0.0183622,-0.0106535 0.023,-0.0196299 0.0186142,-0.0313071 0.0342165,-0.0546732 0.0489921,-0.0637441 0.00887402,-0.00544882 0.021311,-0.00369291 0.0409567,0.00835039l-5.11811e-005 8.26772e-005c0.0188228,0.0115551 0.0434606,0.00566535 0.0550157,-0.0131575 0.00723622,-0.0117874 0.00762598,-0.0258543 0.00229134,-0.0375591 -0.00698031,-0.0175551 -0.0676575,-0.175689 -0.0347008,-0.288114l-0.0382795 -0.011252 0.0383858 0.011252c0.00177559,-0.00605512 0.00204724,-0.0121969 0.00104331,-0.0180197 -0.00227165,-0.0186693 -0.0162835,-0.0926496 -0.0963543,-0.102807 -0.0218307,-0.00275984 -0.0417717,0.0127008 -0.0445315,0.0345315 -0.00275984,0.0218307 0.0127008,0.0417717 0.0345315,0.0445315 0.0186929,0.00237008 0.0245354,0.0190512 0.0263228,0.027752 -0.0228504,0.0885433 -0.0029685,0.19302 0.0160748,0.261193 -0.0147717,0.00159055 -0.0287126,0.00676772 -0.0422638,0.0150906 -0.0117559,0.00721654 -0.0223937,0.0166929 -0.0325079,0.0281299 -0.0129252,-0.0240591 -0.0307913,-0.0412244 -0.0648386,-0.0541575 0.0123346,-0.0283189 0.0285906,-0.069626 0.0448465,-0.122614 0.0385354,-0.125591 -0.0915315,-0.268335 -0.0919016,-0.268744z"/>
  <path class="fil0" d="M2.34635 3.31903c-0.0176024,0.0132874 -0.0210984,0.0383346 -0.00781102,0.055937 0.0132874,0.0176024 0.0383346,0.0210984 0.055937,0.00781102 0.00293307,-0.00222047 1.01962,-0.780882 1.37746,-0.346854 0.0139764,0.0169961 0.0390945,0.0194449 0.0560906,0.0054685 0.0169961,-0.0139764 0.0194449,-0.0390945 0.0054685,-0.0560906 -0.407244,-0.493965 -1.48404,0.331374 -1.48714,0.333728z"/>
  <path class="fil0" d="M2.3551 3.31403c-0.0203622,0.00845276 -0.0300157,0.0318228 -0.021563,0.052185 0.00845276,0.0203622 0.0318228,0.0300157 0.052185,0.021563 0.00353543,-0.00147638 1.23273,-0.521268 1.34473,0.0244528 0.00439764,0.0215709 0.0254606,0.0354921 0.0470315,0.0310945 0.0215709,-0.00439764 0.0354921,-0.0254606 0.0310945,-0.0470315 -0.131736,-0.64187 -1.44969,-0.0838465 -1.45348,-0.0822638z"/>
  <path class="fil0" d="M2.36478 3.31137c-0.0218307,0.0031063 -0.0370118,0.0233268 -0.0339055,0.0451575 0.0031063,0.0218307 0.0233268,0.0370118 0.0451575,0.0339055 0.0037126,-0.000527559 1.29695,-0.19111 1.15746,0.40637 -0.00500394,0.0214843 0.00835827,0.0429646 0.0298425,0.0479685 0.0214843,0.00500394 0.0429646,-0.00835827 0.0479685,-0.0298425 0.166303,-0.712327 -1.24248,-0.504134 -1.24653,-0.503559z"/>
 </g>
 <rect class="fil2" width="6.82666" height="6.82666"/>
</svg>
