<?xml version="1.0" encoding="UTF-8"?>
<!DOCTYPE svg PUBLIC "-//W3C//DTD SVG 1.1//EN" "http://www.w3.org/Graphics/SVG/1.1/DTD/svg11.dtd">
<!-- Creator: CorelDRAW -->
<svg xmlns="http://www.w3.org/2000/svg" xml:space="preserve" width="6.82666in" height="6.82666in" style="shape-rendering:geometricPrecision; text-rendering:geometricPrecision; image-rendering:optimizeQuality; fill-rule:evenodd; clip-rule:evenodd"
viewBox="0 0 6.82666 6.82666"
 xmlns:xlink="http://www.w3.org/1999/xlink">
 <defs>
  <style type="text/css">
   <![CDATA[
    .fil2 {fill:none}
    .fil1 {fill:#212121}
    .fil0 {fill:#212121;fill-rule:nonzero}
   ]]>
  </style>
 </defs>
 <g id="Layer_x0020_1">
  <metadata id="CorelCorpID_0Corel-Layer"/>
  <path class="fil0" d="M3.57793 2.89131c-0.0197598,-0.00966142 -0.0436181,-0.00148031 -0.0532795,0.0182795 -0.00966142,0.0197598 -0.00148031,0.0436181 0.0182795,0.0532795 0.349862,0.171126 0.365634,0.302681 0.301453,0.433898 -0.0199724,0.0408307 -0.0478346,0.0835079 -0.0763543,0.127185 -0.113854,0.174374 -0.237339,0.363555 -0.0260827,0.61887 -0.0374567,0.331382 0.104697,0.505122 0.246701,0.678661 0.144823,0.17698 0.28948,0.353768 0.211984,0.717264l-7.08661e-005 -1.5748e-005c-0.00334646,0.0157047 0.00302362,0.0312205 0.0150472,0.0402953 0.197488,0.16424 0.0788386,0.233252 0.0469528,0.24765 -0.0448819,-0.00366142 -0.242012,-0.0161496 -0.690413,0.000771654 -0.424961,0.0160354 -0.0761457,-0.416437 -0.0729094,-0.420453l6.29921e-005 4.72441e-005c0.0116102,-0.0145354 0.0114449,-0.0346811 0.000799213,-0.0489134 -0.156697,-0.242472 -0.296413,-0.419185 -0.409646,-0.562394 -0.20787,-0.262906 -0.322874,-0.408362 -0.286201,-0.649677l2.3622e-005 3.93701e-006c0.0033189,-0.0218386 -0.011689,-0.0422402 -0.0335276,-0.0455591 -0.00888583,-0.00135039 -0.0175354,0.000338583 -0.0248898,0.00427953 -0.132736,0.0609803 -0.235567,0.0846535 -0.281591,-0.023815 -0.0570748,-0.134516 -0.0541811,-0.436228 0.0359094,-1.02544 0.00327559,-0.0218307 -0.0117638,-0.0421929 -0.0335945,-0.0454685 -0.0218307,-0.00327559 -0.0421929,0.0117638 -0.0454685,0.0335945 -0.0924882,0.604902 -0.0931102,0.920193 -0.0302874,1.06825 0.0646024,0.152252 0.180035,0.149874 0.327157,0.091748 -0.0123976,0.233693 0.107488,0.385382 0.309965,0.641461 0.108362,0.137051 0.241327,0.30522 0.391268,0.535047 -0.0789173,0.10639 -0.374756,0.546992 0.15574,0.526972 0.475902,-0.0179567 0.662953,-0.00266929 0.687024,-0.000425197 0.00657874,0.00114173 0.0135315,0.00065748 0.0202677,-0.00174803l-3.93701e-006 -1.5748e-005c0.00125197,-0.000440945 0.306697,-0.106622 0.00124016,-0.373031 0.0745669,-0.385146 -0.0790906,-0.573008 -0.232965,-0.761051 -0.13326,-0.162854 -0.266654,-0.325909 -0.227728,-0.632504 0.0023937,-0.011752 -0.000492126,-0.0244449 -0.00894882,-0.0342047l-9.05512e-005 7.87402e-005c-0.187803,-0.216807 -0.079,-0.383453 0.0211496,-0.536839 0.0296417,-0.0453937 0.0585984,-0.089748 0.0810394,-0.135626 0.0840512,-0.171839 0.0722441,-0.339791 -0.338012,-0.540457zm-1.04979 -0.72465c-0.0161378,0.0150157 -0.0170472,0.0402717 -0.0020315,0.0564094 0.0150157,0.0161378 0.0402717,0.0170472 0.0564094,0.0020315 0.238622,-0.222213 1.01778,-0.296732 1.02003,-0.296949l-0.00375197 -0.039689 0.00390551 0.0398071c0.0219843,-0.00215354 0.0380551,-0.0217283 0.0359016,-0.0437126 -0.000744094,-0.00758661 -0.00355906,-0.0144685 -0.00783465,-0.0201378 -0.0416181,-0.0643504 -0.0560709,-0.157102 -0.0448425,-0.258354 0.0101732,-0.0917244 0.0414331,-0.189488 0.0927244,-0.279319 0.0510748,-0.0894606 0.121984,-0.170835 0.211614,-0.230146 0.108858,-0.0720433 0.245972,-0.111583 0.409563,-0.0934488l-7.87402e-006 7.08661e-005 0.00151181 0.000133858c0.0389921,0.00551181 0.0764646,0.0131457 0.112047,0.0229528 0.136949,0.0377323 0.251071,0.108244 0.323917,0.21561 0.0731417,0.107799 0.105657,0.254299 0.0792992,0.444114 -0.00696063,0.0501142 -0.0179685,0.103063 -0.0333504,0.158886l0.038437 0.010626 -0.038563 -0.010626c-0.00309843,0.0112441 -0.00107087,0.0226929 0.00466535,0.0318583 0.0161024,0.0321732 0.151508,0.312858 0.13013,0.61565l-5.90551e-005 -3.93701e-006c-0.0010315,0.0146024 0.00591339,0.0279291 0.0171299,0.0357126 0.0334685,0.0282244 0.387402,0.33911 0.290654,0.792398 -0.152752,0.310508 0.0149843,0.664264 0.190598,1.03452 0.130429,0.274988 0.26535,0.559449 0.268685,0.832035l0.0398425 -0.000468504 -0.0399961 0.000488189c0.000133858,0.0110787 0.00476378,0.0210512 0.0121299,0.0282047 0.0306181,0.035248 0.385264,0.452157 0.0446181,0.474866 -0.400185,0.0266811 -0.678087,0.00433071 -0.71939,0.000645669 -0.0239685,-0.00929528 -0.135087,-0.0559921 -0.116319,-0.116205l6.29921e-005 1.9685e-005 0.000279528 -0.000937008c0.000574803,-0.00120079 -0.000311024,0.00363386 0.00175984,0.000527559 0.0233898,-0.0351299 0.0987047,-0.148264 0.125114,-0.202122l0.000153543 7.48031e-005c0.00364961,-0.00744488 0.00477165,-0.0154764 0.00370472,-0.0231142 -0.0347717,-0.456866 -0.269138,-0.731417 -0.450177,-0.943465 -0.14011,-0.16411 -0.245374,-0.287413 -0.18237,-0.420681 0.00940551,-0.0199331 0.000870079,-0.0437205 -0.019063,-0.053126 -0.0199331,-0.00940551 -0.0437205,-0.000870079 -0.053126,0.019063 -0.0850315,0.179858 0.0346457,0.320043 0.193937,0.506618 0.1725,0.202047 0.395469,0.463283 0.430461,0.889224 -0.0275315,0.0517913 -0.0937205,0.151209 -0.115193,0.183465 -0.00196063,0.00294094 -0.00367323,0.00554331 -0.00515748,0.00787795 -0.00289764,0.00369685 -0.00519291,0.00797638 -0.00667717,0.0127283l0.0381772 0.0119331 -0.038126 -0.011874c-0.0409291,0.130937 0.140043,0.205331 0.166618,0.215476 0.004,0.00185433 0.00837402,0.00308268 0.0130118,0.00352756l0.00383465 -0.039815 -0.00375197 0.039689c0.000862205,8.26772e-005 0.298016,0.0294567 0.737551,0.000153543 0.476209,-0.0317441 0.0850197,-0.518559 0.0174764,-0.598409 -0.00792913,-0.285528 -0.144138,-0.572701 -0.275882,-0.850465 -0.167654,-0.353484 -0.327791,-0.691154 -0.190008,-0.967654 0.00203543,-0.0035 0.00357087,-0.00737402 0.00448425,-0.0115433l-0.0390709 -0.00856693 0.039063 0.00843701c0.102071,-0.465508 -0.22726,-0.794283 -0.304118,-0.863571 0.0146378,-0.29361 -0.104362,-0.563134 -0.134693,-0.626598 0.0143504,-0.0541732 0.0247874,-0.105661 0.0315748,-0.154528 0.0292835,-0.210854 -0.00846457,-0.375992 -0.0924252,-0.499736 -0.0842598,-0.124181 -0.214114,-0.20515 -0.368917,-0.247799 -0.039437,-0.0108622 -0.0801732,-0.0192126 -0.121866,-0.0251142 -0.00124803,-0.000259843 -0.00251969,-0.000468504 -0.00381102,-0.000610236l-0.00440945 0.0397559 0.00437402 -0.039689c-0.183988,-0.0204055 -0.338894,0.0245276 -0.462402,0.106264 -0.100575,0.0665551 -0.179941,0.157512 -0.236929,0.257327 -0.0567717,0.0994331 -0.0914134,0.207933 -0.102724,0.309949 -0.0105118,0.0947992 -0.000885827,0.18474 0.0297362,0.257992 -0.190437,0.0229449 -0.791579,0.109681 -1.00814,0.31135z"/>
  <path class="fil0" d="M2.50962 4.18354c0.00327559,-0.0218307 -0.0117638,-0.0421929 -0.0335945,-0.0454685 -0.0218307,-0.00327559 -0.0421929,0.0117638 -0.0454685,0.0335945 -0.00222835,0.0146457 -0.0445984,0.102736 -0.0953031,0.203535 -0.0673819,0.133945 -0.148362,0.286669 -0.172728,0.325441 -0.0145276,0.0231181 -0.0303937,0.0448504 -0.0466772,0.0671614 -0.0776732,0.106409 -0.16426,0.225043 -0.143697,0.477319 0.00618504,0.0759252 0.00922047,0.158268 0.00265748,0.224925 -0.00562992,0.0572244 -0.0166535,0.100768 -0.0363701,0.111461l-3.93701e-006 -7.87402e-006c-0.0194213,0.0105276 -0.0266299,0.0348071 -0.0161024,0.0542283 0.00425591,0.00785039 0.0107559,0.0137008 0.0182717,0.0171969 0.0201102,0.0117126 0.151031,0.0927953 -0.0853661,0.0905079l-7.48031e-005 0 0 -0.00015748c-0.00115748,-1.1811e-005 -0.00230315,3.14961e-005 -0.00343307,0.000114173l-0.827642 -0.0102087c-0.0129685,-0.00174409 -0.168705,-0.0263307 -0.0171339,-0.187244 0.0520827,-0.0552953 0.0421142,-0.154874 0.0297598,-0.278197 -0.0174488,-0.174268 -0.0402992,-0.402398 0.11085,-0.569602l-0.0295315 -0.0267205 0.0296732 0.0268228c0.00893701,-0.00988583 0.0120118,-0.0230197 0.00945276,-0.0351339 -0.00652756,-0.0490551 -0.0903189,-0.705366 0.085311,-0.83287l-0.023437 -0.0323425 0.0235 0.0323701c0.016874,-0.012252 0.0213543,-0.0352362 0.0108858,-0.0528071 -0.036126,-0.0776535 -0.0634606,-0.285622 -0.0309055,-0.502776 0.0224567,-0.149795 0.0738189,-0.302122 0.171256,-0.415016 0.0432913,-0.0501614 0.0922283,-0.101472 0.15513,-0.142846 0.0623898,-0.0410433 0.139748,-0.0732362 0.241256,-0.0864331 0.616878,-0.0802441 0.793646,-0.408677 0.794169,-0.409622 0.0106969,-0.0192402 0.00377165,-0.0435197 -0.0154685,-0.0542165 -0.0192402,-0.0106969 -0.0435197,-0.00377165 -0.0542165,0.0154685 -0.000468504,0.00084252 -0.158157,0.294295 -0.734799,0.369307 -0.114839,0.0149331 -0.203059,0.051815 -0.274689,0.098937 -0.0711299,0.0467913 -0.12472,0.102787 -0.171697,0.157217 -0.108748,0.126 -0.165587,0.292772 -0.190004,0.455646 -0.0319134,0.21287 -0.00773228,0.422315 0.0280276,0.523661 -0.171409,0.177681 -0.10876,0.762331 -0.0952756,0.872043 -0.161429,0.191366 -0.137374,0.431913 -0.118866,0.616724 0.0103504,0.10335 0.0187087,0.186803 -0.00850787,0.215701 -0.257114,0.272969 0.0418307,0.318173 0.0649961,0.321232 0.00188976,0.000299213 0.00382677,0.000468504 0.00579921,0.000492126l0.000492126 -0.0399961 -0.000468504 0.0398425 0.831102 0.010252c0.00119291,0.00011811 0.00240157,0.000188976 0.00362598,0.000200787l0.000393701 -0.04 -0.000311024 0.0398425c0.456138,0.00448819 0.261598,-0.152185 0.164906,-0.215386 0.0189488,-0.0328898 0.0297362,-0.0782165 0.0348228,-0.129874 0.00717323,-0.0728386 0.0041063,-0.159768 -0.00235039,-0.238988 -0.0182047,-0.22335 0.0590709,-0.329224 0.12839,-0.424193 0.0176693,-0.0242087 0.0348819,-0.0477874 0.0498031,-0.0715315 0.0255669,-0.040685 0.108291,-0.196469 0.176476,-0.332008 0.0539764,-0.107299 0.0995354,-0.204071 0.103114,-0.227598z"/>
  <path class="fil0" d="M4.99712 2.48868c-0.00362205,-0.0217441 -0.0241929,-0.0364331 -0.045937,-0.032811 -0.0217441,0.00362205 -0.0364331,0.0241929 -0.032811,0.045937 7.87402e-006,6.29921e-005 0.00392913,0.0234724 0.00820472,0.0643858 0.00824016,0.0788346 0.0154331,0.217283 0.00104724,0.378236 -0.0186496,0.208657 -0.0735157,0.455213 -0.20937,0.657685 -0.134224,0.200039 -0.349063,0.357787 -0.689295,0.393366 -0.0936102,0.0097874 -0.196512,0.010437 -0.309575,0.000330709 -0.0219173,-0.00189764 -0.0412283,0.0143346 -0.043126,0.036252 -0.00189764,0.0219173 0.0143346,0.0412283 0.036252,0.043126 0.118598,0.0105984 0.22648,0.0099252 0.324575,-0.000330709 0.367945,-0.0384803 0.601114,-0.210319 0.747421,-0.428366 0.144673,-0.215614 0.202878,-0.475701 0.222496,-0.695189 0.0149724,-0.167512 0.00751181,-0.31137 -0.00104724,-0.393236 -0.00461811,-0.0442008 -0.00882677,-0.0693189 -0.00883465,-0.0693858z"/>
  <path class="fil0" d="M3.09511 4.94863c0.0129409,-0.0178622 0.00895669,-0.0428386 -0.00890551,-0.0557795 -0.0178622,-0.0129409 -0.0428386,-0.00895669 -0.0557795,0.00890551 -0.091937,0.126654 -0.0859331,0.278299 -0.0811299,0.399484 0.00314173,0.0792205 0.00564173,0.142339 -0.0185118,0.155433l-3.93701e-006 -7.87402e-006c-0.0194213,0.0105276 -0.026626,0.034811 -0.0160984,0.0542323 0.00405512,0.00747638 0.0101457,0.0131457 0.0172165,0.016685 0.0118504,0.00696457 0.0826417,0.0517047 -0.0592323,0.0503386l-7.48031e-005 0 0 -0.00015748c-0.00115748,-1.1811e-005 -0.00230315,3.14961e-005 -0.00343307,0.000114173l-0.62385 -0.00769291c-0.0101024,-0.0014252 -0.107579,-0.0182165 -0.0068622,-0.125142 0.0432402,-0.0459055 0.0570709,-0.114142 0.0554094,-0.184319 -0.00233858,-0.0986378 -0.0360079,-0.204512 -0.0581654,-0.247646l-0.0354685 0.018126 0.0355787 -0.0182795 -0.000283465 -0.000535433c-0.00105906,-0.00480315 0.00174016,-0.0307402 0.0012126,-0.0721811 -0.00112992,-0.0887874 -0.00154331,-0.209295 -0.00138583,-0.210028 0.00457087,-0.0215709 -0.0092126,-0.0427717 -0.0307835,-0.0473425 -0.0215709,-0.00457087 -0.0427717,0.0092126 -0.0473425,0.0307835 -0.000374016,0.00175197 -0.00135433,0.134543 -0.000173228,0.227524 0.000440945,0.0346024 0.00148425,0.0653346 0.00344094,0.0854921 -0.00088189,0.00759843 0.000397638,0.0155315 0.00415748,0.0228465l8.66142e-005 -4.72441e-005 2.3622e-005 4.72441e-005 6.29921e-005 -3.14961e-005c0.0187953,0.0366693 0.0473189,0.127331 0.0493543,0.213146 0.00121654,0.0513504 -0.00717323,0.099437 -0.0338504,0.12776 -0.20648,0.219209 0.0343976,0.256421 0.054748,0.259138 0.00187402,0.000291339 0.00379134,0.00046063 0.00574016,0.000484252l0.000492126 -0.0399961 -0.000468504 0.0398425 0.627346 0.00773622c0.00119291,0.00011811 0.00240157,0.000188976 0.00362598,0.000200787l0.000393701 -0.04 -0.000311024 0.0398425c0.365091,0.00359843 0.222075,-0.119287 0.139839,-0.174445 0.022815,-0.0444291 0.0202598,-0.109283 0.0172559,-0.185047 -0.00431102,-0.108831 -0.00970472,-0.245016 0.0661299,-0.349484z"/>
  <path class="fil0" d="M4.09636 1.46569c0.0340945,0 0.0654606,0.0114764 0.0885906,0.0300276 0.0255394,0.0204803 0.0413425,0.0494606 0.0413425,0.0820866 0,0.032622 -0.0158031,0.0616102 -0.0413386,0.0820827 -0.0231339,0.0185512 -0.0545,0.0300276 -0.0885945,0.0300276 -0.0340945,0 -0.0654567,-0.0114764 -0.0885906,-0.0300276 -0.0255354,-0.0204724 -0.0413386,-0.0494606 -0.0413386,-0.0820827 0,-0.032622 0.0158031,-0.0616063 0.0413386,-0.0820866 0.0231339,-0.0185512 0.0544961,-0.0300276 0.0885906,-0.0300276zm0.0385906 0.0922165c-0.00940945,-0.00754724 -0.0230236,-0.0122165 -0.0385906,-0.0122165 -0.0155709,0 -0.0291811,0.00467323 -0.0385906,0.0122165 -0.007,0.00561417 -0.0113386,0.0126969 -0.0113386,0.0198976 0,0.00720079 0.00433858,0.0142795 0.0113386,0.0198937 0.00940945,0.00754331 0.0230197,0.0122165 0.0385906,0.0122165 0.0155709,0 0.029185,-0.00467323 0.0385945,-0.0122165 0.007,-0.00561417 0.0113386,-0.0126929 0.0113386,-0.0198937 0,-0.00719685 -0.00433858,-0.0142835 -0.0113425,-0.0198976z"/>
  <path class="fil0" d="M4.42757 1.46569c0.0340945,0 0.0654606,0.0114764 0.0885906,0.0300276 0.0255394,0.0204803 0.0413425,0.0494606 0.0413425,0.0820866 0,0.032622 -0.0158031,0.0616102 -0.0413386,0.0820827 -0.0231339,0.0185512 -0.0545,0.0300276 -0.0885945,0.0300276 -0.0340945,0 -0.0654567,-0.0114764 -0.0885906,-0.0300276 -0.0255354,-0.0204724 -0.0413386,-0.0494606 -0.0413386,-0.0820827 0,-0.032622 0.0158031,-0.0616063 0.0413386,-0.0820866 0.0231339,-0.0185512 0.0544961,-0.0300276 0.0885906,-0.0300276zm0.0385906 0.0922165c-0.00940945,-0.00754724 -0.0230236,-0.0122165 -0.0385906,-0.0122165 -0.0155709,0 -0.0291811,0.00467323 -0.0385906,0.0122165 -0.007,0.00561417 -0.0113386,0.0126969 -0.0113386,0.0198976 0,0.00720079 0.00433858,0.0142795 0.0113386,0.0198937 0.00940945,0.00754331 0.0230197,0.0122165 0.0385906,0.0122165 0.0155709,0 0.029185,-0.00467323 0.0385945,-0.0122165 0.007,-0.00561417 0.0113386,-0.0126929 0.0113386,-0.0198937 0,-0.00719685 -0.00433858,-0.0142835 -0.0113425,-0.0198976z"/>
  <path class="fil0" d="M3.99937 2.08602c-0.0356339,0.0437047 -0.0509291,0.0859528 -0.0509291,0.124803 0,0.0271457 0.00737795,0.0530197 0.0203898,0.0768189 0.0137323,0.025122 0.033685,0.0482323 0.0579488,0.0684488 0.0616063,0.0513307 0.149531,0.0833189 0.23526,0.0833189 0.0865787,0 0.175287,-0.0322835 0.236831,-0.084122 0.0235472,-0.0198346 0.0429331,-0.0425354 0.0563386,-0.0672953 0.0127008,-0.0234528 0.0198898,-0.0488543 0.0198898,-0.0754331 0,-0.0400197 -0.0162992,-0.0837283 -0.0544528,-0.129031l-0.000145669 0.000122047c-0.0136654,-0.0162205 -0.0122126,-0.0401378 0.00288189,-0.0546142 0.100059,-0.114567 0.149421,-0.249854 0.14998,-0.375043 0.000259843,-0.0584094 -0.0101496,-0.114567 -0.0310315,-0.165205 -0.0205236,-0.0497795 -0.0513858,-0.0943307 -0.0923701,-0.130472l0.0264055 -0.03 -0.0264567 0.03c-0.000822835,-0.000728346 -0.00161024,-0.00148031 -0.0023622,-0.00225984 -0.0670394,-0.0580197 -0.161287,-0.0939291 -0.28215,-0.0944724 -0.125874,-0.000562992 -0.223921,0.036878 -0.293024,0.0978071l2.3622e-005 2.3622e-005c-0.000830709,0.000732283 -0.0016811,0.00142126 -0.00255118,0.00207087 -0.0392953,0.0353346 -0.0692244,0.0785197 -0.0895118,0.126709 -0.0209528,0.0497717 -0.0317047,0.10498 -0.0319606,0.162547 -0.000566929,0.126433 0.0492756,0.263795 0.152409,0.380736l-0.0298425 0.0264055 0.03 -0.0264567c0.0140079,0.0158819 0.013126,0.0397756 -0.00157087,0.0545945zm-0.130929 0.124803c0,-0.048874 0.0156535,-0.100169 0.0514528,-0.151661 -0.102307,-0.126736 -0.151815,-0.272866 -0.151205,-0.408736 0.000307087,-0.0680591 0.0131535,-0.133665 0.0382047,-0.193169 0.0248268,-0.0589724 0.0615787,-0.11189 0.109929,-0.155268 0.000838583,-0.000889764 0.00172441,-0.00174803 0.00266142,-0.0025748l0.0264567 0.03 -0.0264055 -0.03c0.0829882,-0.073189 0.198992,-0.118177 0.346177,-0.117516 0.141472,0.000633858 0.253291,0.0439961 0.334197,0.114079 0.000996063,0.000724409 0.0019685,0.00150787 0.00291339,0.00233858l-2.3622e-005 2.3622e-005c0.0502126,0.0442874 0.0880591,0.0989724 0.11328,0.160134 0.024874,0.0603189 0.0372795,0.126882 0.0369685,0.195835 -0.000606299,0.135189 -0.0502677,0.279953 -0.150803,0.404705 0.0367913,0.0522205 0.0528543,0.104154 0.0528543,0.153547 0,0.0402638 -0.0106929,0.0783701 -0.0295748,0.113244 -0.0181811,0.0335748 -0.0441102,0.0640669 -0.0754016,0.0904213 -0.0754882,0.0635866 -0.183413,0.103185 -0.288083,0.103185 -0.103748,0 -0.210724,-0.0391811 -0.286197,-0.102067 -0.0318543,-0.0265394 -0.0583465,-0.0574291 -0.0770118,-0.0915748 -0.0193937,-0.0354724 -0.0303898,-0.0741732 -0.0303898,-0.114945z"/>
  <path class="fil0" d="M3.96063 2.16115c-0.0215709,-0.00465748 -0.0428425,0.00905512 -0.0475,0.030626 -0.00465748,0.0215709 0.00905512,0.0428425 0.030626,0.0475 0.0975315,0.0211732 0.164059,0.00167323 0.226878,-0.0167323l-0.0110945 -0.0382795 0.011248 0.0383858c0.000909449,-0.000267717 0.00180709,-0.000562992 0.0026811,-0.000889764 0.0335157,-0.00981496 0.065878,-0.0190472 0.0994449,-0.0190945 0.037626,-5.51181e-005 0.073252,0.0096811 0.109264,0.0195236 0.0585906,0.0160079 0.118094,0.0322756 0.196917,0.0172441 0.0216575,-0.00405512 0.0359331,-0.0249055 0.031878,-0.046563 -0.00405512,-0.0216575 -0.0249055,-0.0359331 -0.046563,-0.031878 -0.0612165,0.0116732 -0.111646,-0.00211024 -0.161295,-0.0156772 -0.0412087,-0.0112638 -0.0819803,-0.0224016 -0.130201,-0.0223346 -0.0452913,6.69291e-005 -0.0829803,0.0107992 -0.121886,0.0222008 -0.000913386,0.000200787 -0.00182677,0.000429134 -0.00273622,0.00069685l2.75591e-005 9.84252e-005 -3.14961e-005 7.87402e-006 1.1811e-005 4.33071e-005c-0.0532087,0.0155945 -0.109575,0.0320748 -0.187669,0.015122z"/>
  <path class="fil0" d="M4.23609 1.82009c-0.0167402,0.0143228 -0.0186969,0.0395079 -0.00437402,0.056248 0.0143228,0.0167402 0.0395079,0.0186969 0.056248,0.00437402 0.0513819,-0.0442008 0.0844488,-0.0565787 0.104083,-0.0508189 0.00609843,0.0017874 0.0112008,0.00637402 0.0152953,0.0126811 0.00594882,0.00916535 0.00989764,0.0213898 0.0120276,0.0349331 0.00652362,0.0414606 -0.00208268,0.0888386 -0.0213189,0.103169 -0.017689,0.0131142 -0.0213937,0.0380945 -0.00827953,0.0557835 0.0131142,0.017689 0.0380945,0.0213937 0.0557835,0.00827953 0.0413937,-0.0308346 0.0630512,-0.112795 0.052563,-0.179421 -0.0038189,-0.024252 -0.0116181,-0.047252 -0.0239016,-0.066185 -0.0141457,-0.0217874 -0.0338031,-0.0382087 -0.0596654,-0.0457992 -0.044,-0.0129134 -0.103228,0.00203937 -0.178461,0.0667559z"/>
  <path class="fil0" d="M4.23609 1.88071c0.0167402,0.0143228 0.0419252,0.0123661 0.056248,-0.00437402 0.0143228,-0.0167402 0.0123661,-0.0419252 -0.00437402,-0.056248 -0.0745394,-0.0641181 -0.134063,-0.0779646 -0.178504,-0.0640079 -0.0298346,0.00936614 -0.0515315,0.030252 -0.0659449,0.0572008 -0.0125236,0.0234055 -0.0192717,0.0515039 -0.0207953,0.0797598 -0.00354331,0.0655118 0.0225551,0.136059 0.0707638,0.157626 0.0201024,0.00897244 0.043685,-5.11811e-005 0.0526575,-0.0201535 0.00897244,-0.0201024 -5.11811e-005,-0.043685 -0.0201535,-0.0526575 -0.0169921,-0.00760236 -0.0255551,-0.0442441 -0.0235827,-0.080752 0.000929134,-0.017248 0.00464567,-0.0336496 0.0114252,-0.0463189 0.00488189,-0.00913386 0.0113583,-0.015937 0.019378,-0.0184528 0.0199094,-0.00625197 0.0527913,0.00529134 0.102882,0.048378z"/>
  <path class="fil1" d="M4.316 1.98583c0,0 0.0474803,-0.0209606 0.0602598,-0.0471654 0.0127795,-0.0262047 -0.00525591,-0.0397717 -0.0335039,-0.0273228 -0.028252,0.0124488 -0.0353189,0.0370591 -0.0267559,0.0744882z"/>
  <path class="fil1" d="M4.2239 1.98583c0,0 -0.0474803,-0.0209606 -0.0602598,-0.0471654 -0.0127795,-0.0262047 0.00525591,-0.0397717 0.0335039,-0.0273228 0.028252,0.0124488 0.0353189,0.0370591 0.0267559,0.0744882z"/>
 </g>
 <rect class="fil2" width="6.82666" height="6.82666"/>
</svg>
