<?xml version="1.0" encoding="UTF-8"?>
<!DOCTYPE svg PUBLIC "-//W3C//DTD SVG 1.1//EN" "http://www.w3.org/Graphics/SVG/1.1/DTD/svg11.dtd">
<!-- Creator: CorelDRAW -->
<svg xmlns="http://www.w3.org/2000/svg" xml:space="preserve" width="6.82666in" height="6.82666in" style="shape-rendering:geometricPrecision; text-rendering:geometricPrecision; image-rendering:optimizeQuality; fill-rule:evenodd; clip-rule:evenodd"
viewBox="0 0 6.82666 6.82666"
 xmlns:xlink="http://www.w3.org/1999/xlink">
 <defs>
  <style type="text/css">
   <![CDATA[
    .fil2 {fill:none}
    .fil1 {fill:#212121}
    .fil0 {fill:#212121;fill-rule:nonzero}
   ]]>
  </style>
 </defs>
 <g id="Layer_x0020_1">
  <metadata id="CorelCorpID_0Corel-Layer"/>
  <path class="fil0" d="M4.88056 1.14719c0.0651142,0.0392441 0.133059,0.119949 0.188374,0.197362 0.055248,0.0773228 0.0981772,0.151201 0.111563,0.174787 0.16,0.183846 0.203126,0.315606 0.202587,0.404697 -0.000602362,0.099563 -0.0540945,0.150126 -0.0712087,0.164122l-1.1811e-005 -1.5748e-005 -7.87402e-006 7.87402e-006 3.14961e-005 3.54331e-005 -0.000818898 0.000649606 -0.000354331 0.000307087 5.51181e-005 6.69291e-005c-0.000866142,0.000732283 -0.00175197,0.0014252 -0.00265748,0.00207087l-0.00092126 0.000700787 -3.14961e-005 -4.33071e-005 -3.54331e-005 2.3622e-005 7.08661e-005 9.44882e-005c-0.00053937,0.000405512 -0.00108661,0.000799213 -0.00164173,0.00117323l3.93701e-006 3.93701e-006c-0.000551181,0.000385827 -0.0011063,0.000755906 -0.00166535,0.00111024l3.93701e-006 3.93701e-006c-0.00114961,0.000814961 -0.00233071,0.00156299 -0.0035315,0.00224016 -0.092378,0.0577008 -0.173941,0.0476732 -0.238539,0.0148858 -0.050689,-0.0257244 -0.0895236,-0.0655748 -0.114106,-0.0960472 -0.0335945,0.00105512 -0.0626929,-0.0015315 -0.089378,-0.00729921 -0.00206693,-0.000444882 -0.00411811,-0.000913386 -0.00614961,-0.00139764 0.0055,0.0197205 0.0102559,0.0392441 0.0143583,0.058748 0.00972835,0.0462126 0.0161181,0.0927047 0.0203346,0.141898 0.00402362,0.046874 0.00611024,0.0983465 0.00730709,0.155874l0.000181102 0.00174409 3.93701e-006 0 0 4.72441e-005c0.00437795,0.0410787 0.0161693,0.0693583 0.0300906,0.088811 0.0222087,0.0310394 0.0488858,0.0386417 0.0563583,0.0402205l0.000937008 0.000129921 7.87402e-006 -4.33071e-005 0.000929134 0.000188976c0.00533465,0.000854331 0.0106654,0.00225591 0.0158858,0.00421654l-0.000897638 0.00240945 8.66142e-005 5.90551e-005 0.000964567 -0.0025748c0.00122835,0.00046063 0.00241732,0.000980315 0.00357087,0.00154331 0.00509449,0.00218898 0.0100197,0.00490945 0.0146929,0.00817717l4.33071e-005 -5.90551e-005c0.00107874,0.000755906 0.0021063,0.00155512 0.00308661,0.0023937 0.119555,0.0851457 0.180311,0.20728 0.210201,0.32289 0.0241496,0.0934213 0.0280472,0.182331 0.0267244,0.243059 0.0411024,0.00362992 0.0887008,-0.000224409 0.137728,-0.00419291 0.188091,-0.0152362 0.394713,-0.0319291 0.481886,0.292307 0.0566378,0.165169 0.0522874,0.329913 0.0306535,0.460571 -0.0199961,0.12076 -0.0547126,0.212445 -0.0695906,0.248161 0.000354331,0.0397913 0.00417323,0.0729173 0.00716142,0.0988661 0.0076063,0.0659843 0.0115827,0.100535 -0.039752,0.120197 -0.0460236,0.0176181 -0.118949,0.00531496 -0.182898,-0.030626 -0.0363583,-0.020437 -0.0709016,-0.0488583 -0.0968504,-0.0840197l-0.000173228 0.000125984c-0.000574803,-0.000779528 -0.00111024,-0.00157087 -0.00162205,-0.00237402 -0.0259055,-0.0359134 -0.042563,-0.0785984 -0.0431063,-0.126866 -0.000688976,-0.0605276 0.0243661,-0.128161 0.0894291,-0.199217 0.000952756,-0.0209961 0.00588583,-0.0417047 0.0127165,-0.0608898 0.0097126,-0.0272835 0.0233976,-0.0517244 0.0341811,-0.068752 -0.00968504,-0.0653189 -0.0328858,-0.115016 -0.0648504,-0.156016 -0.0328425,-0.0421142 -0.0756417,-0.0763858 -0.122933,-0.109169 -0.0911457,0.00604331 -0.182665,0.0194488 -0.272642,0.0392677 -0.0927087,0.0204213 -0.182909,0.0474409 -0.268591,0.0800591 -0.206295,0.321323 -0.461913,0.337508 -0.706508,0.352941 -0.192929,0.0121772 -0.378378,0.0239094 -0.515575,0.205933 0.0416181,0.58352 -0.0714055,0.632799 -0.233693,0.703378 -0.0882559,0.0383858 -0.193638,0.0842362 -0.292189,0.267575 0.0381811,0.0973465 0.0923346,0.194673 0.148244,0.281917 0.117961,0.184079 0.24085,0.319827 0.241327,0.320252l-0.0263937 0.0296535 3.93701e-006 -3.93701e-006 0.0264291 -0.0296772c0.000909449,0.000811024 0.00177559,0.00165748 0.00259055,0.00252756l0.000507874 0.000519685 1.5748e-005 -1.5748e-005c0.00640945,0.00624409 0.0102756,0.0141181 0.0115827,0.0223268l0.0334291 0.130453 0.000165354 -4.33071e-005c0.00548031,0.0213976 -0.00742126,0.0431969 -0.0288189,0.0486772 -0.000590551,0.000149606 -0.0011811,0.000283465 -0.00177165,0.000409449l-0.259295 0.0615157 3.93701e-006 1.5748e-005c-0.00958268,0.00227165 -0.0191772,0.000885827 -0.0273228,-0.00324803l-0.00168898 -0.000692913c-0.0367362,-0.0155079 -0.0657441,-0.0412283 -0.0800827,-0.0788898 -0.0122756,-0.0322362 -0.0129843,-0.0719803 0.00283465,-0.119795 -0.00248031,-0.00184252 -0.00525984,-0.00384646 -0.00809843,-0.00585433 -0.0104646,-0.00740551 -0.0210748,-0.0136693 -0.0258386,-0.0164016l-5.51181e-005 0.000106299 -0.0015315 -0.000838583 -1.9685e-005 3.93701e-005c-0.000633858,-0.000358268 -0.00125591,-0.00073622 -0.0018622,-0.00112205l-0.000429134 -0.000248031 1.1811e-005 -1.9685e-005 -6.29921e-005 -4.33071e-005 -6.29921e-005 0.000106299c-0.00125197,-0.000728346 -0.00245276,-0.00151969 -0.00359449,-0.00235827l-6.69291e-005 0.000106299c-0.0011811,-0.000771654 -0.00230709,-0.00159055 -0.00337795,-0.00246063 -0.0753661,-0.0509016 -0.194461,-0.176425 -0.300213,-0.302618 -0.124618,-0.148709 -0.232504,-0.30387 -0.233547,-0.347177l-0.00015748 3.93701e-006c-0.000177165,-0.00926772 0.00280709,-0.0178622 0.00797244,-0.0247441 0.141984,-0.223579 0.239402,-0.302181 0.289193,-0.342343l0.00392913 -0.00317323c-0.0281496,-0.099685 -0.0853898,-0.1735 -0.147594,-0.25372 -0.108945,-0.140496 -0.232067,-0.299307 -0.260772,-0.641598 -0.169386,-0.0266969 -0.317504,0.0403504 -0.485685,0.116508 -0.144906,0.0656181 -0.303969,0.13765 -0.506272,0.166996 -0.0820354,0.0118976 -0.177709,0.0140394 -0.272917,0.00916929 -0.105248,-0.00538976 -0.209866,-0.0192795 -0.294776,-0.0379764l0.00859449 -0.039063 -0.00860236 0.039063c-0.0215709,-0.00474803 -0.0352087,-0.0260945 -0.0304606,-0.0476654 0.0032874,-0.0149291 0.0145197,-0.0260512 0.0282795,-0.0299173 0.172134,-0.064748 0.273783,-0.153358 0.368161,-0.235646 0.0873307,-0.0761378 0.168823,-0.147193 0.29313,-0.193551 0.274091,-0.10222 0.463244,-0.0720591 0.720031,-0.0311142 0.0568228,0.00905906 0.117146,0.0186772 0.185709,0.0277756 0.00770866,-0.0318858 0.018815,-0.0625512 0.0326929,-0.0919646 0.020878,-0.0442638 0.0480709,-0.0856378 0.0793228,-0.124024 0.0880984,-0.108224 0.208657,-0.192354 0.309327,-0.250248 0.0972835,-0.0559528 0.176264,-0.0875748 0.188559,-0.0923898l-1.9685e-005 -4.33071e-005 0.000866142 -0.000354331 -2.3622e-005 -6.29921e-005c0.000748031,-0.000291339 0.0015,-0.000551181 0.00225197,-0.000795276 0.00126378,-0.000468504 0.00254331,-0.000905512 0.00383465,-0.00131102 0.00155512,-0.000488189 0.00385039,-0.0010748 0.00688976,-0.00174409l0.0242047 -0.00535827c0.0369921,-0.00817717 0.0722953,-0.0159843 0.108906,-0.0250433 0.0330551,-0.0081811 0.064248,-0.0168504 0.0933661,-0.0268504 0.229598,-0.0787205 0.382642,-0.252724 0.517165,-0.405681l-2.75591e-005 -2.3622e-005c0.000393701,-0.000448819 0.000799213,-0.00088189 0.00120866,-0.00131102 0.00105512,-0.0011811 0.00465354,-0.00522441 0.028748,-0.0324528 0.013937,-0.015748 0.0246339,-0.0277992 0.0294764,-0.0331693 0.0556378,-0.0616614 0.0801535,-0.104122 0.087748,-0.141705 0.00727165,-0.0359921 -0.000661417,-0.0729921 -0.011122,-0.120378l-7.87402e-005 2.3622e-005c-0.000220472,-0.000775591 -0.000417323,-0.00155512 -0.000590551,-0.00233071l-3.14961e-005 -0.000145669c-0.000248031,-0.0011378 -0.000448819,-0.00227559 -0.000594488,-0.00341339 -0.0184055,-0.0834055 -0.0415787,-0.191547 -0.0289528,-0.366291 0.022626,-0.313028 0.125744,-0.488768 0.23915,-0.587197 0.0980512,-0.0850984 0.203717,-0.112213 0.273354,-0.120205l0.0207598 -0.164445c5.51181e-005,-0.000811024 0.000122047,-0.00161811 0.000200787,-0.0024252l-4.72441e-005 -7.87402e-006 0.000177165 -0.00124016c0.00151969,-0.0135 0.00638583,-0.0264646 0.0141063,-0.037622 0.00821654,-0.0118858 0.0196102,-0.0217362 0.0335906,-0.0280748 0.0205315,-0.00929921 0.0429685,-0.00937795 0.0626102,-0.00199213 0.0103268,0.00388583 0.019878,0.00985827 0.0279764,0.0176378 0.00304724,-0.0132992 0.00950787,-0.0257717 0.0187402,-0.0361693l0.00879134 0.00777953 5.51181e-005 -1.9685e-005 -0.00891339 -0.00791339c0.000606299,-0.000685039 0.00123622,-0.00133858 0.00187795,-0.00197244 0.0090748,-0.00956299 0.0206339,-0.0170866 0.0341024,-0.0214724 0.0215591,-0.00701181 0.0438976,-0.00464961 0.0625748,0.00485039 0.0186693,0.00950787 0.0337441,0.0261772 0.0407717,0.0477598l0.0769409 0.237142zm0.123374 0.243614c-0.0528661,-0.0739843 -0.11665,-0.150362 -0.171528,-0.179406 -0.0105827,-0.00427953 -0.0192717,-0.0130354 -0.0230669,-0.0247402l7.08661e-005 -2.3622e-005 -0.0817283 -0.251902c-0.000165354,-0.000507874 -0.000574803,-0.000933071 -0.00108661,-0.00119291 -0.000515748,-0.000259843 -0.0011063,-0.000334646 -0.0016378,-0.000165354 -0.000200787,6.29921e-005 -0.000393701,0.000169291 -0.000570866,0.000311024l-0.000275591 0.000314961 -3.54331e-005 -3.14961e-005 -3.14961e-005 3.54331e-005 -7.08661e-005 -6.29921e-005c-0.00015748,0.000224409 -0.000287402,0.000598425 -0.000385827,0.00108661l-7.48031e-005 -1.5748e-005 -0.0245315 0.150646c-0.00138976,0.016437 -0.012937,0.0309646 -0.029811,0.0353465 -0.0213819,0.00555512 -0.0432205,-0.00727559 -0.0487756,-0.0286575l0.0387165 -0.0100591 -0.0385945 0.01 -0.0306142 -0.117843c-0.000122047,-7.87402e-005 -0.000251969,-0.000141732 -0.000385827,-0.000192913 -0.000472441,-0.000177165 -0.00107874,-0.000149606 -0.00167323,0.00011811 -0.000370079,0.000165354 -0.000641732,0.000377953 -0.000779528,0.00057874 -0.000110236,0.000161417 -0.000200787,0.000334646 -0.00026378,0.000511811 -5.11811e-005,0.00101181 -0.000141732,0.00203543 -0.000271654,0.00305906l-0.039685 -0.00501181 0.0395315 0.005 -0.0246811 0.195508c-0.000748031,0.0206496 -0.0172717,0.0375827 -0.0382717,0.0384764l-0.00170472 -0.0399646 0.00156299 0.0398425c-0.0546575,0.00233071 -0.160685,0.0188858 -0.258201,0.103524 -0.0998307,0.0866496 -0.190866,0.244894 -0.211654,0.532504 -0.0118504,0.163984 0.00983465,0.265346 0.0270866,0.343524l4.72441e-005 0.000153543 0.000232283 0.000767717 3.93701e-005 0.000137795c0.000224409,0.000787402 0.000425197,0.00157874 0.000606299,0.00238583l-0.0390591 0.00862992 0.0389055 -0.00859449c0.0127598,0.0577559 0.0226535,0.102551 0.0119528,0.155531 -0.0105039,0.0519882 -0.0404016,0.106276 -0.106496,0.179524 -0.0145866,0.0161693 -0.0234331,0.0260591 -0.0291693,0.0325394 -0.0137323,0.0155197 -0.00723228,0.0083189 -0.0285236,0.0325433l-0.000177165 0.000216535 -0.000370079 0.000444882 -0.000338583 0.000393701 -0.000161417 0.000188976 -3.93701e-006 -3.93701e-006 -0.0010748 0.00117717c-0.140835,0.16013 -0.301157,0.341933 -0.550193,0.427319 -0.0305276,0.0104843 -0.0641496,0.0197992 -0.10024,0.0287323 -0.0325354,0.00805118 -0.070748,0.0165 -0.11078,0.0253504l-0.0236299 0.00523228c-0.000590551,0.000259843 -0.00119291,0.000511811 -0.00180315,0.000748031l-0.0144685 -0.0372913 0.014374 0.037189c-0.00805118,0.00312205 -0.0839646,0.0330394 -0.178539,0.0874331 -0.094063,0.0540945 -0.206331,0.132232 -0.287138,0.2315 -0.0272756,0.0335039 -0.0509449,0.0694724 -0.0690079,0.107772 -0.0158583,0.0336142 -0.0273583,0.0690945 -0.0330945,0.106323l-0.000102362 0.00092126c-0.00271654,0.0219213 -0.0227008,0.0374882 -0.044622,0.0347717l3.93701e-006 -1.9685e-005c-0.0790157,-0.00979921 -0.154701,-0.0218701 -0.22528,-0.033122 -0.244917,-0.0390512 -0.425331,-0.0678189 -0.679717,0.0270512 -0.110587,0.0412402 -0.186783,0.107677 -0.268437,0.178866 -0.0761575,0.0663976 -0.156799,0.136693 -0.273476,0.197319 0.0495354,0.00662598 0.101677,0.0115276 0.153839,0.0142008 0.0902047,0.00461417 0.180551,0.00262992 0.257602,-0.00854724 0.190894,-0.027689 0.344646,-0.097315 0.484713,-0.160744 0.189961,-0.0860197 0.356063,-0.161217 0.56239,-0.116799 0.0180197,0.0028937 0.032311,0.0179213 0.0335433,0.0369016l-0.0399173 0.00259449 0.0398425 -0.0025c0.0220709,0.339484 0.141358,0.493319 0.246535,0.628957 0.0718425,0.0926496 0.137579,0.177425 0.167343,0.304512 0.0045,0.0140945 0.000976378,0.0301496 -0.0104252,0.0410748l-7.08661e-005 -7.48031e-005c-0.00726772,0.00695669 -0.0157638,0.013815 -0.0263071,0.0223189 -0.0455591,0.036752 -0.133965,0.108087 -0.265094,0.312335 0.0153071,0.0395984 0.107539,0.162776 0.212886,0.288484 0.10202,0.121736 0.21502,0.241583 0.283201,0.287638 0.000956693,0.000519685 0.00190945,0.00107874 0.00283858,0.00168504l0 3.93701e-006 0.000188976 0.000106299 0 3.93701e-006c0.000515748,0.00026378 0.00102362,0.000531496 0.0015315,0.000818898l-9.44882e-005 0.000165354c0.00456693,0.00258268 0.0192402,0.0110512 0.034122,0.0215827 0.0161378,0.0114252 0.0327323,0.0257323 0.0415039,0.0408425 0.00691339,0.0107402 0.0085748,0.0245984 0.00322835,0.037248l-0.000141732 -5.90551e-005c-0.000854331,0.00202362 -0.0018622,0.00453543 -0.00298425,0.00743701 -0.0130748,0.0338583 -0.0143661,0.0589528 -0.00759449,0.0767402 0.00501575,0.0131811 0.0153425,0.0232047 0.0289016,0.030374l0.207953 -0.0493346 -0.0218071 -0.0851102c-0.0301142,-0.0339409 -0.1425,-0.164134 -0.247602,-0.328142 -0.0608701,-0.0949843 -0.120016,-0.202185 -0.160787,-0.310346 -0.00520079,-0.0108858 -0.00543701,-0.0239921 0.0005,-0.0355472l0.000149606 7.87402e-005c0.11402,-0.221906 0.236925,-0.275362 0.339398,-0.319929 0.132791,-0.057748 0.224992,-0.0978858 0.184961,-0.637201 -0.00115354,-0.00957087 0.00112598,-0.0195827 0.00717323,-0.0280394l9.05512e-005 6.69291e-005c0.160169,-0.223945 0.367768,-0.237055 0.583917,-0.250697 0.226988,-0.0143228 0.464303,-0.0293268 0.64989,-0.325181 0.00437008,-0.00785827 0.0114055,-0.0142953 0.0204409,-0.0178071l0.0144961 0.0372795 -0.014374 -0.037189c0.0940197,-0.036563 0.192323,-0.0664843 0.292457,-0.0885433 0.0966654,-0.0212953 0.195976,-0.0354843 0.295795,-0.0414803 0.00937008,-0.00121654 0.0192008,0.000854331 0.0276299,0.00657874l-9.84252e-005 0.000145669c0.0576929,0.0392047 0.110555,0.0802559 0.152248,0.13372 0.0425512,0.0545787 0.0726142,0.12061 0.0830039,0.20789 0.0016811,0.00992913 -0.000358268,0.0204961 -0.00654331,0.0294291l-0.000102362 -7.08661e-005c-0.00855118,0.0123583 -0.0235827,0.0361614 -0.033185,0.0631417 -0.00535433,0.0150394 -0.00892126,0.0308543 -0.00821654,0.0453543 0.00133858,0.0115512 -0.00234646,0.0235827 -0.0110945,0.0325551l-8.26772e-005 -7.87402e-005c-0.0571063,0.0585748 -0.0788858,0.110803 -0.0783819,0.155094 0.000338583,0.0298386 0.0111378,0.0570315 0.0279685,0.0805236 0.000496063,0.000594488 0.000976378,0.00120866 0.00144488,0.00184252l-7.08661e-005 5.11811e-005 7.48031e-005 0.000102362 -0.000102362 7.48031e-005c0.0185433,0.0251063 0.0442441,0.0459803 0.071815,0.0614764 0.0443504,0.0249252 0.090374,0.0352008 0.115394,0.025626 0.0066811,-0.00255906 -0.00823622,-0.0108504 -0.011185,-0.0364488 -0.00325984,-0.0282835 -0.00745669,-0.0647362 -0.00749606,-0.112689 -0.000586614,-0.00643307 0.00038189,-0.0131024 0.00312205,-0.0194528l3.14961e-005 1.1811e-005c0.0115591,-0.0267874 0.0474409,-0.116213 0.0674016,-0.236772 0.0198583,-0.119933 0.0240276,-0.270654 -0.0271575,-0.420724 -0.000484252,-0.00128346 -0.000913386,-0.00260236 -0.00127165,-0.00395669l0.0386614 -0.0102559 -0.0385945 0.0101575c-0.0695787,-0.262291 -0.242138,-0.248323 -0.399177,-0.235602 -0.0671693,0.00543701 -0.131882,0.0106811 -0.190807,-0.00187008 -0.0205472,-0.00281496 -0.035748,-0.021063 -0.0344449,-0.0420984l8.66142e-005 3.93701e-006c0.00325984,-0.0527087 0.00401575,-0.151126 -0.0227283,-0.254587 -0.0259449,-0.100358 -0.0779291,-0.205839 -0.179185,-0.277961 -0.000964567,-0.000562992 -0.00191732,-0.00117323 -0.00285039,-0.00182677l4.72441e-005 -6.69291e-005 -0.000535433 -0.000192913 2.3622e-005 -5.90551e-005c-0.00123228,-0.000114173 -0.00247638,-0.000287402 -0.00371654,-0.000523622l1.9685e-005 -9.84252e-005c-0.0119173,-0.00225591 -0.0666024,-0.0154331 -0.10748,-0.0725709 -0.0208622,-0.0291496 -0.0383583,-0.0699803 -0.0444016,-0.126929 -0.000397638,-0.00212598 -0.000625984,-0.00431102 -0.000673228,-0.00654331l0.0399921 -0.000818898 -0.0398425 0.000779528c-0.0011063,-0.0542047 -0.0031811,-0.104118 -0.00734252,-0.152657 -0.004,-0.0467087 -0.00991732,-0.0901102 -0.0187756,-0.132205 -0.00461811,-0.0219646 -0.00994882,-0.0433622 -0.0161102,-0.0644291 -0.00587795,-0.0200984 -0.012752,-0.0406378 -0.0207441,-0.0618661 -0.00509449,-0.0111181 -0.00504724,-0.0244252 0.00129528,-0.0359646 0.0106378,-0.0193543 0.0349646,-0.0264213 0.0543189,-0.0157835l-3.14961e-005 5.90551e-005c0.0217756,0.0119724 0.0435236,0.0209528 0.068063,0.0262559 0.0244961,0.00529921 0.0523189,0.00708268 0.0863583,0.00475197 0.0140157,-0.00176378 0.0285354,0.00395276 0.0374173,0.016185l-0.0323701 0.0235 0.0323425 -0.023437c0.0179213,0.024685 0.0525984,0.0657717 0.0987992,0.0892205 0.0425591,0.0216024 0.0968622,0.0279016 0.159654,-0.0109803l0.000212598 -0.000153543 1.1811e-005 1.5748e-005 6.69291e-005 -3.93701e-005c0.000590551,-0.000448819 0.00118504,-0.000885827 0.00180709,-0.00130709 0.000555118,-0.000511811 0.00113386,-0.00101181 0.00172835,-0.0015l1.9685e-005 2.3622e-005c0.010122,-0.00828346 0.041752,-0.0385472 0.0421378,-0.102559 0.000440945,-0.0735906 -0.0386772,-0.186417 -0.183752,-0.352858 -0.00268898,-0.00261024 -0.00505118,-0.00564567 -0.00698425,-0.0090748l0.0348504 -0.0196339 -0.0348425 0.0195315c-0.0104291,-0.0185157 -0.0534134,-0.0934606 -0.108736,-0.170882zm-1.8201 4.28547c0.000173228,9.84252e-005 0.000106299,5.51181e-005 3.93701e-006,-7.87402e-006l-3.93701e-006 7.87402e-006zm1.46603 -4.75468l3.93701e-006 3.93701e-006 0.0345039 0.00561417 -0.0345079 -0.00561811z"/>
  <ellipse class="fil1" transform="matrix(0.868629 -0.846241 0.658555 0.675977 4.80767 1.45422)" rx="0.0329843" ry="0.0720472"/>
  <path class="fil0" d="M5.52134 3.43822c-0.00526378,-0.0214016 -0.0268819,-0.0344843 -0.0482835,-0.0292205 -0.0214016,0.00526378 -0.0344843,0.0268819 -0.0292205,0.0482835 0.00280315,0.0113346 0.00506693,0.023315 0.00672047,0.0359606 0.00172835,0.0132126 0.00288583,0.0273228 0.00340551,0.042374l0.0398425 -0.00125197 -0.0399764 0.00138583c6.29921e-005,0.00181102 0.000244094,0.00358268 0.00053937,0.00532283 0.0119646,0.117594 -0.0161535,0.226531 -0.0505551,0.310567 -0.0347795,0.0849528 -0.076063,0.144504 -0.0889843,0.16215l0.032189 0.0235945 -0.0322717 -0.0236339c-0.00390157,0.00532677 -0.00628346,0.0112913 -0.00724409,0.0173937 -0.00810236,0.0356339 -0.0112323,0.0639921 -0.0136535,0.086 -0.00161024,0.0146417 0.022874,0.0187126 0.0102087,0.0205118 -0.0175394,0.00249213 -0.0468583,-0.0119528 -0.0735118,-0.0361181 -0.0167244,-0.0151654 -0.0313583,-0.0339252 -0.0404055,-0.054685 -0.00822047,-0.0188583 -0.0116024,-0.0394764 -0.00708268,-0.060374 0.00661811,-0.0305984 0.0302953,-0.0634488 0.0800394,-0.0955787l-0.021563 -0.0335945 0.0217008 0.0336024c0.0103346,-0.00667717 0.016563,-0.0173228 0.0179882,-0.0286457 0.0016378,-0.00940945 0.0064685,-0.0193898 0.0124055,-0.0287244 0.0113307,-0.0178189 0.0256929,-0.0321417 0.0336339,-0.0394055l0.000125984 0.000137795c0.00811024,-0.00742126 0.0124567,-0.0174134 0.0129488,-0.0275906 0.00710236,-0.0680197 -0.0043622,-0.123461 -0.0272874,-0.172429 -0.0225118,-0.0481024 -0.0552638,-0.0881654 -0.0918819,-0.127508l-0.0292205 0.027189 0.0292795 -0.027252c-0.00688189,-0.0073937 -0.0159094,-0.0115945 -0.0252283,-0.0125394 -0.0223583,-0.00370866 -0.0445236,-0.00684252 -0.0664331,-0.00940945 -0.0229961,-0.00269291 -0.0463622,-0.00485039 -0.0700197,-0.0064685 -0.0220039,-0.00146457 -0.0410354,0.0151811 -0.0425,0.037185 -0.00146457,0.0220039 0.0151811,0.0410354 0.037185,0.0425 0.0218543,0.00149606 0.0439685,0.00355118 0.0662717,0.00616142 0.0174055,0.00203937 0.034563,0.00437795 0.0514252,0.00701575 0.0281535,0.0310236 0.0527441,0.0622835 0.0689331,0.096874 0.0157244,0.0335945 0.0241417,0.071815 0.0210591,0.118559 -0.0109646,0.0111181 -0.024563,0.0265079 -0.0357953,0.0441693 -0.00816929,0.0128465 -0.0153071,0.0270866 -0.0199291,0.0422795 -0.0607244,0.0427913 -0.0911969,0.0900748 -0.101264,0.136598 -0.00834252,0.0385512 -0.00248425,0.0757087 0.0120827,0.109122 0.0137323,0.0315079 0.0354606,0.0595394 0.0600906,0.081874 0.0433622,0.0393228 0.0984567,0.0617638 0.138205,0.0561181 0.0486693,-0.00691732 0.0518543,-0.0357559 0.0579173,-0.0908268 0.00208661,-0.0189606 0.00474409,-0.0430669 0.0109606,-0.0718465 0.0180236,-0.0255157 0.0585591,-0.0873661 0.093374,-0.172406 0.0383976,-0.0937953 0.0697402,-0.215819 0.0562205,-0.34865l0 -1.1811e-005 -0.000216535 -0.00211417c-0.000653543,-0.0170197 -0.00199213,-0.0329882 -0.00394488,-0.047937 -0.00211417,-0.0161614 -0.00489764,-0.0310433 -0.00827953,-0.0447087z"/>
 </g>
 <rect class="fil2" width="6.82666" height="6.82666"/>
</svg>
