<?xml version="1.0" encoding="UTF-8"?>
<!DOCTYPE svg PUBLIC "-//W3C//DTD SVG 1.1//EN" "http://www.w3.org/Graphics/SVG/1.1/DTD/svg11.dtd">
<!-- Creator: CorelDRAW -->
<svg xmlns="http://www.w3.org/2000/svg" xml:space="preserve" width="6.82666in" height="6.82666in" style="shape-rendering:geometricPrecision; text-rendering:geometricPrecision; image-rendering:optimizeQuality; fill-rule:evenodd; clip-rule:evenodd"
viewBox="0 0 6.82666 6.82666"
 xmlns:xlink="http://www.w3.org/1999/xlink">
 <defs>
  <style type="text/css">
   <![CDATA[
    .fil1 {fill:none}
    .fil0 {fill:#212121;fill-rule:nonzero}
   ]]>
  </style>
 </defs>
 <g id="Layer_x0020_1">
  <metadata id="CorelCorpID_0Corel-Layer"/>
  <path class="fil0" d="M3.54239 2.72712c0.00755906,0.00980315 0.0135236,0.0202283 0.017685,0.0311299 0.00474016,0.0124213 0.00725984,0.0254134 0.00725984,0.0387795 0,0.0438189 -0.0260906,0.0820472 -0.0682638,0.108413 -0.0365157,0.0228307 -0.0861614,0.0369567 -0.14026,0.0369567 -0.0541024,0 -0.103744,-0.014126 -0.140264,-0.0369567 -0.0421732,-0.0263661 -0.0682638,-0.0645945 -0.0682638,-0.108413 0,-0.0133858 0.00252362,-0.0263819 0.00727165,-0.038811 0.00459843,-0.0120197 0.0113819,-0.0234488 0.0200551,-0.0340984l-7.87402e-005 -0.000102362c0.0139488,-0.017126 0.0391496,-0.0197047 0.0562756,-0.00575591 0.00140551,0.00114567 0.00271654,0.00237008 0.0039252,0.00365748 0.026185,0.0234685 0.0731339,0.0352323 0.121177,0.0352402 0.0490354,7.87402e-006 0.0969173,-0.0122283 0.122705,-0.0367362l-5.51181e-005 -9.05512e-005c0.0160118,-0.0152165 0.0413346,-0.0145709 0.0565512,0.00144094 0.00160236,0.00168504 0.00302756,0.00347638 0.00427953,0.00534646zm-0.0855079 0.110512c0.011874,-0.0074252 0.0208898,-0.0159291 0.0259252,-0.0248071 -0.0367165,0.0160236 -0.0805472,0.0240276 -0.123898,0.0240197 -0.0434449,-7.87402e-006 -0.087378,-0.00805906 -0.124169,-0.0241417 0.00502362,0.00892126 0.0140669,0.0174724 0.0259961,0.0249291 0.0244764,0.0152992 0.0591024,0.0247677 0.0980748,0.0247677 0.0389685,0 0.0735984,-0.0094685 0.0980709,-0.0247677z"/>
  <path class="fil0" d="M2.52417 3.75872c0.00483071,0.0214843 0.0261732,0.0349843 0.0476575,0.0301535 0.0214843,-0.00483071 0.0349843,-0.0261732 0.0301535,-0.0476575l-0.379165 -1.66893c-0.00483071,-0.0214843 -0.0261732,-0.0349843 -0.0476575,-0.0301535 -0.0214843,0.00483071 -0.0349843,0.0261732 -0.0301535,0.0476575l0.379165 1.66893zm-0.548638 -2.41488c0.00483071,0.0214843 0.0261732,0.0349843 0.0476575,0.0301535 0.0214843,-0.00483071 0.0349843,-0.0261732 0.0301535,-0.0476575l-0.0397402 -0.174913c-0.0218268,-0.0970669 -0.0809724,-0.176126 -0.158925,-0.225453 -0.0778622,-0.0492717 -0.174571,-0.0688386 -0.27165,-0.0470079 -0.0970669,0.0218268 -0.176126,0.0809724 -0.225453,0.158925 -0.0492717,0.0778661 -0.0688307,0.174575 -0.0470039,0.27165l0.51615 2.27187c0.00483071,0.0214843 0.0261732,0.0349843 0.0476575,0.0301535 0.0214843,-0.00483071 0.0349843,-0.0261732 0.0301535,-0.0476575l-0.51615 -2.27187c-0.0169921,-0.0755709 -0.00172441,-0.150921 0.0366969,-0.211642 0.0383583,-0.060622 0.0998858,-0.106626 0.175453,-0.123618 0.0755709,-0.0169921 0.150925,-0.00172047 0.211642,0.0367008 0.060622,0.0383583 0.106626,0.0998858 0.123618,0.175453l0.0397402 0.174913zm0.0101142 2.57709c-0.00483071,-0.0214843 -0.0261732,-0.0349843 -0.0476575,-0.0301535 -0.0214843,0.00483071 -0.0349843,0.0261732 -0.0301535,0.0476575l0.224374 0.987594c0.00483071,0.0214843 0.0261732,0.0349843 0.0476575,0.0301535 0.0214843,-0.00483071 0.0349843,-0.0261732 0.0301535,-0.0476575l-0.224374 -0.987594zm0.732264 0.690539c0.00483071,0.0214843 0.0261732,0.0349843 0.0476575,0.0301535 0.0214843,-0.00483071 0.0349843,-0.0261732 0.0301535,-0.0476575l-0.0919528 -0.40472c-0.00483071,-0.0214843 -0.0261732,-0.0349843 -0.0476575,-0.0301535 -0.0214843,0.00483071 -0.0349843,0.0261732 -0.0301535,0.0476575l0.0919528 0.40472zm-0.415224 0.704937c-0.00483071,-0.0214843 -0.0261732,-0.0349843 -0.0476575,-0.0301535 -0.0214843,0.00483071 -0.0349843,0.0261732 -0.0301535,0.0476575l0.0775433 0.341315c0.0218268,0.0970709 0.0809724,0.176126 0.158929,0.225453 0.0778622,0.0492717 0.174571,0.0688386 0.27165,0.0470079 0.0970709,-0.0218268 0.176122,-0.0809685 0.225453,-0.158929 0.0492677,-0.0778661 0.0688307,-0.174567 0.047,-0.271646l-0.0294724 -0.12972c-0.00483071,-0.0214843 -0.0261732,-0.0349843 -0.0476575,-0.0301535 -0.0214843,0.00483071 -0.0349843,0.0261732 -0.0301535,0.0476575l0.0294724 0.12972c0.0169921,0.0755709 0.00172441,0.150921 -0.0366929,0.211638 -0.0383622,0.060622 -0.0998819,0.10663 -0.175453,0.123622 -0.0755709,0.0169921 -0.150921,0.00172047 -0.211642,-0.0367008 -0.060626,-0.0383583 -0.10663,-0.0998819 -0.123622,-0.175453l-0.0775433 -0.341315z"/>
  <path class="fil0" d="M2.73251 2.94724c-0.00345276,-0.0217441 -0.0238819,-0.0365748 -0.045626,-0.033122 -0.0217441,0.00345276 -0.0365748,0.0238819 -0.033122,0.045626 0.0216614,0.135043 0.0813661,0.233051 0.131969,0.316118 0.0616614,0.101217 0.107224,0.176012 0.021374,0.265839 -0.0255276,0.0267126 -0.0814606,0.0701575 -0.138819,0.107571 -0.0471024,0.0307283 -0.0939055,0.0566811 -0.122992,0.0643583l1.1811e-005 3.93701e-005 -3.54331e-005 7.87402e-006 -3.14961e-005 -0.000125984c-0.000688976,0.000181102 -0.00137008,0.00038189 -0.00204331,0.000598425l-1.5748e-005 -6.69291e-005c-0.000610236,0.00015748 -0.0012126,0.000326772 -0.00180709,0.000511811l-1.5748e-005 -7.08661e-005c-0.00101969,0.000251969 -0.00201575,0.00053937 -0.003,0.000862205 -0.0816732,0.0182323 -0.222803,-0.00201969 -0.373071,-0.0514764 -0.141071,-0.046437 -0.288031,-0.118386 -0.399858,-0.208406l6.29921e-005 -7.87402e-005c-0.00873622,-0.0070315 -0.0195315,-0.00979134 -0.0298543,-0.00855118 -0.0248425,0.00165354 -0.038315,0.0180197 -0.0423622,0.046 -0.0021378,0.0147638 -0.000944882,0.0364252 0.00259055,0.0619724 0.00312205,0.0225512 0.00831496,0.0497756 0.0147087,0.078626 0.00694488,0.0313465 0.0120236,0.191835 0.0845157,0.236689 0.0898189,0.0742362 0.192902,0.134311 0.292909,0.181965 0.150547,0.0717362 0.295028,0.115634 0.375598,0.137094 0.0454724,0.0121181 0.209945,0.0519764 0.354504,0.0870039 0.121248,0.0293819 0.213228,0.0397087 0.22048,0.0474685l-3.93701e-006 0.000122047c0.000751969,0.00080315 0.0015315,0.00157087 0.00233071,0.00229921 0.0095315,0.0108976 0.042126,0.0501654 0.0673858,0.0894449 0.00632283,0.00983071 0.0120079,0.019315 0.0163701,0.027689 -0.000555118,-4.72441e-005 -0.00111024,-8.26772e-005 -0.00166535,-0.000106299 -0.00616142,-0.000669291 -0.0120591,-0.00123228 -0.0186969,-0.00123622 -0.465972,-0.000271654 -0.49974,0.337555 -0.51976,0.537906 -0.00342126,0.0342244 -0.0063937,0.0639094 -0.0111535,0.084689 -0.0026063,0.00843701 -0.00638583,0.0119646 -0.0110354,0.0137205 -0.00382283,0.00144094 -0.0125787,0.00285039 -0.0167874,0.00244488 -0.0234055,-0.00226378 -0.0735512,-0.0353189 -0.133866,-0.0750748 -0.0851772,-0.0561417 -0.187524,-0.123602 -0.297406,-0.146425 -0.0135236,-0.00283071 -0.0251575,0.000566929 -0.0351654,0.00952362 -0.0102953,0.00919291 -0.0156063,0.0289724 -0.0147047,0.0546614 0.000547244,0.0155787 0.00209449,0.0360472 0.00473622,0.0588583 0.0126063,0.108665 0.0514173,0.290484 0.131866,0.348051 0.0596102,0.0426535 0.132303,0.0886417 0.219016,0.126236 0.0871378,0.0377756 0.187732,0.0667087 0.302173,0.0746339l-3.93701e-006 7.08661e-005c0.00285827,0.00019685 0.00566929,8.66142e-005 0.00839764,-0.000299213 0.0607638,-0.00476378 0.133925,-0.0469528 0.213492,-0.0928346 0.0938268,-0.0541063 0.197559,-0.113917 0.280028,-0.110921 0.0613504,0.00222441 0.159594,0.102295 0.21587,0.159618 0.0192638,0.019622 0.0342283,0.0348622 0.0443898,0.042622 0.0533228,0.0407244 0.106854,0.0720551 0.163961,0.0962205 0.0569449,0.0240945 0.116728,0.0407717 0.182787,0.0522638 0.177953,0.0309724 0.389846,0.0204213 0.598772,-0.0263307 0.203323,-0.0455039 0.40428,-0.125354 0.568811,-0.234626 0.151807,-0.100823 0.26072,-0.214173 0.32561,-0.348039 0.0651378,-0.134382 0.085252,-0.287854 0.0591378,-0.468303 -0.0398031,-0.275039 -0.18374,-0.569929 -0.362618,-0.845201 -0.281933,-0.433862 -0.651213,-0.82 -0.83274,-0.999327 -0.00342913,-0.00338976 -0.00890157,-0.0086811 -0.0157598,-0.015252 -0.00814567,-0.00780709 -0.0179409,-0.0171417 -0.0285354,-0.0272165 -0.0159606,-0.015185 -0.0412205,-0.0145551 -0.0564055,0.00140551 -0.015185,0.0159606 -0.0145551,0.0412205 0.00140551,0.0564055 0.0109961,0.0104567 0.0207992,0.0197953 0.0282205,0.0269094 0.00717717,0.00687795 0.0125039,0.0120157 0.0151378,0.014622 0.179339,0.177165 0.544067,0.558488 0.821803,0.985894 0.173272,0.266642 0.312488,0.550839 0.350429,0.813012 0.0237717,0.16424 0.00608661,0.302638 -0.0519488,0.422366 -0.0582874,0.120252 -0.157953,0.223287 -0.297799,0.316165 -0.156504,0.103941 -0.34798,0.179969 -0.541937,0.223374 -0.198894,0.0445079 -0.399969,0.0546614 -0.568142,0.0253937 -0.0605394,-0.0105315 -0.11465,-0.0255276 -0.165291,-0.0469567 -0.0504764,-0.0213583 -0.0982874,-0.0494331 -0.146457,-0.0862205 -0.00590157,-0.00450787 -0.0190433,-0.0178898 -0.0359567,-0.0351181 -0.0643543,-0.0655512 -0.176697,-0.17998 -0.269933,-0.183366 -0.105118,-0.0038189 -0.219272,0.062 -0.322524,0.121543 -0.0710551,0.0409724 -0.136394,0.0786496 -0.179209,0.0822756 -0.103697,-0.00748425 -0.194756,-0.0337283 -0.273606,-0.0679094 -0.0799213,-0.0346496 -0.148059,-0.0778504 -0.204323,-0.11811 -0.0570236,-0.0408031 -0.0877362,-0.197252 -0.0987402,-0.292114 -0.000933071,-0.00805906 -0.00171654,-0.0155591 -0.00235827,-0.0224291 0.0788819,0.027248 0.155854,0.0779843 0.221772,0.121433 0.080622,0.0531378 0.147079,0.0969409 0.201197,0.0859843 0.0419016,0.00766142 0.0648031,-0.0161811 0.0784764,-0.0619213 0.00816929,-0.0273268 0.0118976,-0.0645945 0.0162953,-0.108591 0.0173465,-0.173579 0.0466024,-0.46626 0.440382,-0.466031 0.00153543,0 0.00544488,0.000401575 0.00998425,0.000897638 0.000858268,0.000153543 0.00172835,0.000275591 0.0026063,0.000374016l7.87402e-006 -8.66142e-005 0 1.5748e-005c0.0131535,0.00144882 0.0279449,0.00307087 0.0427126,0.000952756 0.0349409,-0.00500787 0.0594567,-0.0226102 0.0527205,-0.0696024 -0.00337795,-0.0235433 -0.0183937,-0.0530079 -0.0368504,-0.0817087 -0.0268268,-0.0417165 -0.0631457,-0.0854449 -0.0752047,-0.0992874 -0.000988189,-0.00137008 -0.00207087,-0.00268898 -0.00325197,-0.00395276l-6.69291e-005 6.29921e-005c-0.00956299,-0.00985433 -0.126681,-0.0382008 -0.26011,-0.0705354 -0.142571,-0.0345472 -0.30478,-0.0738583 -0.352937,-0.086689 -0.0772992,-0.0205906 -0.216083,-0.0627874 -0.361535,-0.132094 -0.0836614,-0.0398622 -0.16926,-0.0886181 -0.245913,-0.147161 -0.00984252,-0.00751969 -0.0195472,-0.0152047 -0.0290748,-0.0230512 -0.037378,-0.0337874 -0.032563,-0.0382047 -0.0406063,-0.0784213 -0.00417717,-0.0341142 -0.0098189,-0.0762992 -0.0183976,-0.11502 -0.00401575,-0.018126 -0.00753543,-0.0357953 -0.010311,-0.0521142 0.108945,0.0747441 0.238008,0.134791 0.362213,0.175677 0.163091,0.0536811 0.320343,0.0746614 0.415992,0.0531654 0.00137402,-0.000188976 0.00275591,-0.000448819 0.00413386,-0.000787402l-1.5748e-005 -7.08661e-005c0.000929134,-0.000169291 0.00185433,-0.000374016 0.00278346,-0.000614173l-1.5748e-005 -6.69291e-005c0.000834646,-0.000161417 0.00166535,-0.000354331 0.0025,-0.000574803l-2.3622e-005 -8.66142e-005c0.0378268,-0.00999606 0.0927835,-0.0398898 0.146087,-0.0746654 0.0621732,-0.0405551 0.123913,-0.088811 0.153189,-0.119445 0.128071,-0.134004 0.0689567,-0.231055 -0.0110591,-0.362398 -0.0468898,-0.0769724 -0.102217,-0.167791 -0.121346,-0.287063z"/>
  <path class="fil0" d="M5.36737 4.55371c0.155114,0.121547 0.184421,0.332587 0.136752,0.521106 -0.0175787,0.0695197 -0.0456575,0.136161 -0.0817008,0.194091 -0.036563,0.0587677 -0.0816693,0.108941 -0.132776,0.144614 -0.0985236,0.0687677 -0.216902,0.0838819 -0.338071,0.00598425l-6.69291e-005 5.11811e-005c-0.0185787,-0.0119449 -0.0239606,-0.0366969 -0.0120157,-0.0552756 0.00382677,-0.00595276 0.0089685,-0.0105512 0.0148031,-0.0136575 0.0903622,-0.0599685 0.168866,-0.129193 0.229028,-0.206705 0.0555472,-0.071563 0.0953898,-0.150098 0.114303,-0.234764 0.0111929,-0.0501063 0.0166417,-0.101894 0.0170039,-0.154941 0.000362205,-0.0534213 -0.00444094,-0.108433 -0.0137402,-0.164587l-0.000106299 1.5748e-005c-0.00361024,-0.0217913 0.0111299,-0.0423898 0.0329213,-0.046 0.0126575,-0.00209843 0.0249055,0.00199606 0.0336654,0.0100669zm0.059248 0.501728c0.030752,-0.121602 0.0255118,-0.253051 -0.0333858,-0.352961 0.000834646,0.017437 0.00120079,0.0347913 0.00108268,0.0520512 -0.000397638,0.0587598 -0.00644882,0.116181 -0.018878,0.171815 -0.0216496,0.0968976 -0.0665827,0.185929 -0.128988,0.266323 -0.0534331,0.0688386 -0.119756,0.131437 -0.195228,0.187272 0.0693465,0.0234567 0.135654,0.00815748 0.192803,-0.0317323 0.0417874,-0.0291693 0.0793976,-0.0713622 0.110587,-0.121488 0.0317047,-0.0509606 0.0564567,-0.109772 0.0720079,-0.17128z"/>
  <path class="fil0" d="M2.92689 1.36862c-0.00487795,-0.00915354 -0.0239882,-0.043378 -0.0579134,-0.0849134l-7.48031e-005 6.29921e-005 -1.5748e-005 -1.9685e-005 -2.3622e-005 1.9685e-005 -0.00084252 -0.00107087c-0.0515236,-0.062752 -0.135764,-0.140276 -0.25161,-0.16663 -0.117484,-0.0267283 -0.269705,-0.00135433 -0.458319,0.143622 -0.0396811,0.0305 -0.0958937,0.0770276 -0.143823,0.136476 -0.0177638,0.0220315 -0.0344173,0.045874 -0.0486496,0.0713543 0.0387402,-0.0209055 0.0750669,-0.026626 0.106772,-0.0229961l1.9685e-005 -5.11811e-005c0.0219449,0.00251181 0.0377008,0.0223465 0.035189,0.0442913 -0.00149213,0.0130236 -0.00908268,0.0238661 -0.0195945,0.0300079 -0.0630984,0.0430354 -0.108744,0.140138 -0.121449,0.252138 -0.00740551,0.0652717 -0.00337008,0.134984 0.0151181,0.20161 0.0178031,-0.0712087 0.0400748,-0.123555 0.0635906,-0.162933 0.0379882,-0.0636181 0.078685,-0.0938307 0.110346,-0.114543l-2.3622e-005 -3.93701e-005c0.0184843,-0.0120945 0.0432795,-0.00691339 0.055374,0.0115709 0.00738976,0.0112953 0.00833071,0.0249488 0.00372441,0.0366181 -0.00430709,0.0131417 -0.0108976,0.0266772 -0.018811,0.0429173 -0.0265157,0.0544134 -0.0704685,0.144642 -0.0488583,0.280016 0.00727165,-0.022378 0.0157638,-0.0397913 0.024752,-0.0531732 0.0146181,-0.0217638 0.0314173,-0.0348583 0.0478425,-0.0419724 0.019252,-0.00834252 0.0379291,-0.00844094 0.0531024,-0.00429528 0.0182559,0.00499213 0.0327835,0.016937 0.0398701,0.0299488 0.00783858,0.0144055 0.0102244,0.033185 0.0131811,0.0565118 0.00638583,0.0503976 0.0168622,0.133016 0.0994803,0.138453l0.000125984 -7.08661e-005c0.0210433,0.00138189 0.0372126,0.0188071 0.037374,0.039563 0.000724409,0.0124567 0.00162992,0.0425118 0.00259843,0.0748898 0.00128346,0.0428819 0.00270472,0.0901457 0.00418898,0.104421l1.5748e-005 0 0 1.5748e-005 9.05512e-005 -7.87402e-006c8.66142e-005,0.000822835 0.000145669,0.0016378 0.000181102,0.00245276 0.0278031,0.257394 0.124272,0.423122 0.267937,0.523953 0.145787,0.102315 0.342283,0.140126 0.566433,0.140126 0.0120157,0 0.016626,0 0.0278701,0 0.22415,0 0.420646,-0.0378071 0.566437,-0.140126 0.144126,-0.101154 0.240752,-0.26761 0.268209,-0.526406l-8.66142e-005 -7.87402e-006c8.26772e-005,-0.000795276 0.000192913,-0.00158268 0.000322835,-0.0023622 0.00140945,-0.0165787 0.00274409,-0.0612283 0.00396457,-0.101961 0.00103937,-0.0347992 0.00200787,-0.0669252 0.00275984,-0.0774488l-5.51181e-005 -5.11811e-005c0.00149606,-0.0208504 0.0187283,-0.0368189 0.039248,-0.0371299 0.0809094,-0.00654724 0.0912913,-0.0882874 0.0976299,-0.138303 0.00295669,-0.0233268 0.00534252,-0.0421063 0.0131811,-0.0565118 0.00708661,-0.0130118 0.0216142,-0.0249567 0.0398701,-0.0299488 0.0151811,-0.00415354 0.0338504,-0.00404724 0.0531063,0.00429528 0.0164173,0.00711417 0.0332244,0.0202087 0.0478386,0.0419685 0.00898819,0.0133858 0.0174803,0.0307992 0.024752,0.0531811 0.0216142,-0.135374 -0.0223425,-0.225606 -0.0488583,-0.280024 -0.00858661,-0.0176181 -0.0156142,-0.0320551 -0.0198543,-0.046252l-9.84252e-005 2.75591e-005c-0.00629528,-0.0211732 0.00575984,-0.0434488 0.0269331,-0.0497441 0.0123701,-0.00367717 0.0251142,-0.00109055 0.0348307,0.00591732 0.0314291,0.020685 0.0714213,0.0509409 0.108799,0.113531 0.0235197,0.039378 0.0457874,0.0917244 0.0635906,0.162929 0.0184882,-0.066626 0.0225236,-0.136335 0.0151181,-0.201606 -0.0128346,-0.113102 -0.059248,-0.211024 -0.123315,-0.253406l-5.11811e-005 7.48031e-005c-0.0184252,-0.012185 -0.0234882,-0.0370039 -0.0113031,-0.0554291 0.00726378,-0.0109843 0.0190157,-0.0172165 0.0312283,-0.0178819 0.0311339,-0.00307874 0.0666102,0.00287008 0.104378,0.023252 -0.0142323,-0.0254764 -0.0308898,-0.0493228 -0.0486496,-0.0713543 -0.0479291,-0.0594488 -0.104146,-0.105976 -0.143827,-0.136476 -0.188618,-0.14498 -0.340835,-0.17035 -0.458315,-0.143622 -0.116496,0.0265 -0.201039,0.104748 -0.25248,0.167685l2.3622e-005 1.9685e-005c-0.00065748,0.00080315 -0.00133858,0.0015748 -0.00204724,0.00231496 -0.0383937,0.0474803 -0.0571811,0.0848307 -0.0572362,0.0849409l7.48031e-005 6.69291e-005c-0.00792913,0.0153661 -0.0244331,0.0234173 -0.0406457,0.0213346 -0.0586929,-0.00387795 -0.11622,-0.00654331 -0.172744,-0.00814567 -0.115142,-0.00325984 -0.23811,-0.00325984 -0.353323,0 -0.0573071,0.00162598 -0.11565,0.00434252 -0.175189,0.00830709l0 7.08661e-005c-0.0173543,0.00115354 -0.0328583,-0.00894094 -0.0393858,-0.0240433zm0.00388583 -0.135319c0.0255394,0.031252 0.0439803,0.0593937 0.0552165,0.0780157 0.0500197,-0.00302756 0.101154,-0.00524016 0.153283,-0.00671654 0.116343,-0.00329134 0.241378,-0.00329134 0.357701,0 0.0521299,0.00147638 0.103264,0.00368898 0.153283,0.00671654 0.010937,-0.018126 0.0287047,-0.0452717 0.0531969,-0.0755315 0.00061811,-0.000897638 0.00127953,-0.00178346 0.00198425,-0.00264173l3.54331e-005 3.93701e-006c0.0594173,-0.0726969 0.158004,-0.163303 0.296862,-0.19489 0.137882,-0.0313701 0.313311,-0.0040748 0.524567,0.158307 0.0430354,0.0330787 0.104173,0.0837441 0.157268,0.149602 0.0540197,0.0670039 0.0994921,0.149449 0.10987,0.24511 0.00269685,0.0145236 -0.0027874,0.0299882 -0.0154291,0.0394094 -0.0177126,0.0131969 -0.0427756,0.00953543 -0.0559724,-0.00817717l4.33071e-005 -0.000145669c-0.00492913,-0.00661417 -0.00981496,-0.0128346 -0.0146496,-0.018689 0.0204213,0.0476969 0.0345984,0.101728 0.0410394,0.158488 0.0135315,0.119291 -0.00656693,0.25215 -0.0742953,0.364228 -0.00579921,0.0112992 -0.016874,0.0196575 -0.0304173,0.0214291 -0.0219016,0.0028622 -0.0419843,-0.0125748 -0.0448465,-0.0344764l0.000129921 -2.75591e-005c-0.00643307,-0.0492283 -0.0145827,-0.0913819 -0.0239252,-0.127602 0.00121654,0.0756102 -0.0150197,0.166622 -0.0653583,0.274795 -0.00547244,0.0154094 -0.0201299,0.0264882 -0.0374252,0.0266063 -0.0220906,0.000149606 -0.040126,-0.0176339 -0.0402756,-0.0397244l0.00015748 -0.00011811c-0.00073622,-0.106673 -0.0162402,-0.162622 -0.0345866,-0.189945 -0.00245276,-0.00365354 -0.00473622,-0.00646457 -0.00683465,-0.00857874 -0.000555118,0.0042126 -0.00117717,0.00912598 -0.00184646,0.0143976 -0.00869291,0.0686024 -0.0224882,0.177205 -0.137642,0.203075 -0.000433071,0.0124803 -0.000870079,0.0269921 -0.0013189,0.0420472 -0.00126378,0.042311 -0.00265748,0.0886654 -0.00420866,0.107197 -2.3622e-005,0.00111811 -9.05512e-005,0.00224409 -0.000212598,0.00337795l-8.66142e-005 0c-0.0301654,0.284362 -0.138921,0.469075 -0.30165,0.583287 -0.161071,0.113039 -0.372937,0.154811 -0.612374,0.154811 -0.00575197,0 -0.0217362,0 -0.0278701,0 -0.239437,0 -0.451307,-0.0417717 -0.61237,-0.154811 -0.162185,-0.113827 -0.270744,-0.297701 -0.301335,-0.580457 -0.000165354,-0.000933071 -0.00030315,-0.00188189 -0.000405512,-0.00283858l9.05512e-005 -0.000149606c-0.00166929,-0.0157874 -0.00316535,-0.0654646 -0.00451181,-0.110516 -0.000448819,-0.0150197 -0.000885827,-0.0294961 -0.00131496,-0.0419488 -0.115154,-0.0258701 -0.128953,-0.134472 -0.137642,-0.203075 -0.000669291,-0.00527165 -0.00129134,-0.010185 -0.00184646,-0.0143937 -0.00210236,0.00211417 -0.00438189,0.0049252 -0.00683465,0.00857874 -0.0181496,0.0270236 -0.0335118,0.0820709 -0.0345551,0.186516 0.0013189,0.0161496 -0.0073189,0.0321575 -0.0228425,0.0394606 -0.0199882,0.00940551 -0.0438189,0.000826772 -0.0532244,-0.0191614l9.84252e-005 -0.00015748c-0.051622,-0.109705 -0.0682008,-0.201858 -0.0669646,-0.278276 -0.00914173,0.0354449 -0.0171417,0.0765748 -0.0235079,0.124453 -0.000653543,0.0127323 -0.00736614,0.0249409 -0.0190551,0.0321024 -0.0188346,0.0115354 -0.0434685,0.00561811 -0.0550039,-0.0132165l4.72441e-005 -0.000114173c-0.0689685,-0.112606 -0.0894685,-0.246579 -0.0758346,-0.366776 0.00643701,-0.0567598 0.0206142,-0.110783 0.0410394,-0.158488 -0.00425197,0.00514567 -0.00854331,0.0105787 -0.0128661,0.016311 -0.00783465,0.012374 -0.0222047,0.0199764 -0.0377717,0.0184291 -0.0219803,-0.00218504 -0.0380315,-0.0217795 -0.0358465,-0.0437598l0.00011811 1.1811e-005c0.00966142,-0.0971063 0.0555709,-0.180705 0.110228,-0.2485 0.0530945,-0.0658583 0.114228,-0.116524 0.157264,-0.149602 0.21126,-0.162386 0.386685,-0.189677 0.524571,-0.158307 0.138071,0.0314055 0.236315,0.121161 0.295839,0.193646 0.000358268,0.000409449 0.000716535,0.000818898 0.00106299,0.00124409l-3.93701e-005 0.000153543z"/>
  <path class="fil0" d="M2.97146 1.73062c0.0446496,0 0.0856732,0.0136732 0.115886,0.0357717 0.033752,0.024685 0.0546339,0.059874 0.0546339,0.099689 0,0.039815 -0.0208819,0.0750039 -0.0546339,0.099685 -0.0302126,0.0220984 -0.0712362,0.0357717 -0.115886,0.0357717 -0.0446496,0 -0.0856693,-0.0136732 -0.11589,-0.0357677 -0.033752,-0.024685 -0.0546339,-0.059874 -0.0546339,-0.099689 0,-0.0398228 0.0208819,-0.0750039 0.0546339,-0.099689 0.0302165,-0.0220984 0.0712402,-0.0357717 0.11589,-0.0357717zm0.0686969 0.10015c-0.0170157,-0.0124488 -0.0412677,-0.0201496 -0.0686969,-0.0201496 -0.0274331,0 -0.0516811,0.00770472 -0.0687008,0.0201496 -0.0134764,0.00985827 -0.0218228,0.0224134 -0.0218228,0.035311 0,0.0128976 0.00834646,0.0254528 0.0218228,0.035311 0.0170197,0.0124449 0.0412677,0.0201457 0.0687008,0.0201457 0.0274291,0 0.0516811,-0.00770079 0.0686969,-0.0201496 0.0134803,-0.00985827 0.0218228,-0.0224094 0.0218228,-0.0353071 0,-0.0128976 -0.00834646,-0.0254528 -0.0218228,-0.035311z"/>
  <path class="fil0" d="M3.77018 1.73062c0.0446496,0 0.0856732,0.0136732 0.11589,0.0357717 0.033752,0.024685 0.0546339,0.0598661 0.0546339,0.099689 0,0.039815 -0.0208819,0.0750039 -0.0546339,0.099689 -0.0302205,0.0220945 -0.0712402,0.0357677 -0.11589,0.0357677 -0.0446496,0 -0.0856732,-0.0136732 -0.115886,-0.0357717 -0.033752,-0.0246811 -0.0546339,-0.0598701 -0.0546339,-0.099685 0,-0.039815 0.0208819,-0.0750039 0.0546339,-0.099689 0.0302126,-0.0220984 0.0712362,-0.0357717 0.115886,-0.0357717zm0.0687008 0.10015c-0.0170197,-0.0124449 -0.0412677,-0.0201496 -0.0687008,-0.0201496 -0.0274291,0 -0.0516811,0.00770079 -0.0686969,0.0201496 -0.0134764,0.00985827 -0.0218228,0.0224134 -0.0218228,0.035311 0,0.0128976 0.00834252,0.0254488 0.0218228,0.0353071 0.0170157,0.0124488 0.0412677,0.0201496 0.0686969,0.0201496 0.0274331,0 0.0516811,-0.00770079 0.0687008,-0.0201457 0.0134764,-0.00985827 0.0218228,-0.0224134 0.0218228,-0.035311 0,-0.0128976 -0.00834646,-0.0254528 -0.0218228,-0.035311z"/>
  <path class="fil0" d="M3.14042 2.69573c-0.00430709,-0.0526496 -0.00310236,-0.0919803 -0.0019685,-0.129169 0.00164173,-0.0536339 0.00313386,-0.102437 -0.0158858,-0.190394 -0.00583858,-0.0269921 -0.00783465,-0.0522559 -0.00649606,-0.0756929 0.00293307,-0.0514291 0.0218071,-0.093122 0.0515945,-0.12463 0.0293386,-0.0310433 0.0686299,-0.0515079 0.113091,-0.061122 0.0245394,-0.00530315 0.0508465,-0.00729921 0.0780354,-0.00592913 0.0275866,-0.00139764 0.0542795,0.000610236 0.0791378,0.00598031 0.0441535,0.00954331 0.0831339,0.0297008 0.112228,0.0603307 0.029689,0.0312638 0.0484843,0.0725984 0.0514055,0.123736 0.00133071,0.0233504 -0.000669291,0.0485591 -0.0065,0.0755315 -0.0190236,0.0879843 -0.0175276,0.137457 -0.0158819,0.19163 0.00113386,0.0375157 0.00233465,0.0771063 -0.0019685,0.129728 -0.00522441,0.0638819 -0.0541063,0.105693 -0.11828,0.126303 -0.0308031,0.0098937 -0.0654961,0.0148386 -0.100028,0.0148346 -0.0345315,-3.93701e-006 -0.0692244,-0.00496063 -0.100043,-0.0148543 -0.0642638,-0.0206299 -0.11322,-0.0624567 -0.118441,-0.126283zm0.0777165 -0.12698c-0.00104331,0.0342008 -0.00215354,0.0703701 0.0019685,0.120728 0.00214567,0.0262717 0.0283622,0.045437 0.0631339,0.0565984 0.0230394,0.0073937 0.0492913,0.0111063 0.0756654,0.0111063 0.026378,0 0.0526299,-0.00369291 0.0756496,-0.0110866 0.0346811,-0.0111378 0.0608228,-0.0302953 0.0629724,-0.0566181 0.00411811,-0.0503425 0.00301181,-0.0867717 0.0019685,-0.121287 -0.00180709,-0.0596102 -0.00345669,-0.114039 0.0174409,-0.210693 0.00433465,-0.0200591 0.00585827,-0.0381378 0.00494094,-0.0542795 -0.00175984,-0.0308661 -0.0125551,-0.0552362 -0.0295315,-0.0731142 -0.0175748,-0.0185039 -0.0423898,-0.0309567 -0.0712913,-0.0372047 -0.0179528,-0.00388189 -0.0372795,-0.00537008 -0.0573071,-0.00444488 -0.00235039,0.000291339 -0.00476378,0.000374016 -0.0072126,0.00023622l3.93701e-006 -9.84252e-005c-0.0205787,-0.00116535 -0.0404528,0.00026378 -0.0589094,0.00425591 -0.0291142,0.00629528 -0.054122,0.018937 -0.0718386,0.0376811 -0.0172717,0.0182717 -0.0282559,0.0430827 -0.0300354,0.0743228 -0.000925197,0.0162283 0.000598425,0.0343661 0.00493701,0.0544409 0.0208976,0.0966417 0.0192559,0.15039 0.0174449,0.209457z"/>
  <path class="fil0" d="M2.86523 3.38522c0.0219173,-0.00258661 0.0375866,-0.0224606 0.035,-0.044378 -0.00258661,-0.0219173 -0.0224606,-0.0375866 -0.044378,-0.035 -0.0679134,0.00822835 -0.11689,0.0430354 -0.165339,0.0774646 -0.0500591,0.0355709 -0.0994449,0.0706614 -0.165445,0.0594764 -0.0217441,-0.00362205 -0.042315,0.0110669 -0.045937,0.032811 -0.00362205,0.0217441 0.0110669,0.042315 0.032811,0.045937 0.0983228,0.0166614 0.161142,-0.0279764 0.224823,-0.0732244 0.0400866,-0.0284882 0.0806142,-0.0572874 0.128465,-0.0630866zm-0.142079 -0.324953c0.0205354,-0.00802362 0.0306811,-0.031185 0.0226575,-0.0517205 -0.00802362,-0.0205354 -0.031185,-0.0306811 -0.0517205,-0.0226575 -0.0577598,0.0225866 -0.0880866,0.0634803 -0.117508,0.10315 -0.0309803,0.0417717 -0.0605709,0.0816693 -0.133224,0.0724055 -0.0218307,-0.00275984 -0.0417717,0.0127008 -0.0445315,0.0345315 -0.00275984,0.0218307 0.0127008,0.0417717 0.0345315,0.0445315 0.118933,0.0151654 0.162098,-0.0430315 0.207287,-0.103965 0.0226339,-0.0305197 0.0459764,-0.0619921 0.0825079,-0.0762756z"/>
 </g>
 <rect class="fil1" width="6.82666" height="6.82666"/>
</svg>
