<?xml version="1.0" encoding="UTF-8"?>
<!DOCTYPE svg PUBLIC "-//W3C//DTD SVG 1.1//EN" "http://www.w3.org/Graphics/SVG/1.1/DTD/svg11.dtd">
<!-- Creator: CorelDRAW -->
<svg xmlns="http://www.w3.org/2000/svg" xml:space="preserve" width="6.82666in" height="6.82666in" style="shape-rendering:geometricPrecision; text-rendering:geometricPrecision; image-rendering:optimizeQuality; fill-rule:evenodd; clip-rule:evenodd"
viewBox="0 0 6.82666 6.82666"
 xmlns:xlink="http://www.w3.org/1999/xlink">
 <defs>
  <style type="text/css">
   <![CDATA[
    .fil2 {fill:none}
    .fil1 {fill:#212121}
    .fil0 {fill:#212121;fill-rule:nonzero}
   ]]>
  </style>
 </defs>
 <g id="Layer_x0020_1">
  <metadata id="CorelCorpID_0Corel-Layer"/>
  <path class="fil0" d="M1.42511 1.3355c0.117921,-0.00019685 0.380972,0.0931181 0.543654,0.867339 0.110768,0.527177 0.522197,1.16295 1.11946,1.61146 0.46765,0.351169 1.04894,0.58665 1.68836,0.563787 -0.197024,-0.221189 -0.851531,-0.997177 -1.13679,-1.84709 -0.0462638,-0.137839 -0.122571,-0.282941 -0.219811,-0.427146 -0.103689,-0.153772 -0.230744,-0.305862 -0.370291,-0.446634 -0.0718898,-0.0725118 -0.152909,-0.135256 -0.242819,-0.194445 -0.089685,-0.0590433 -0.190642,-0.115835 -0.301004,-0.175717 -0.0574213,-0.0311457 -0.108295,-0.0835866 -0.162031,-0.138976 -0.0730827,-0.0753307 -0.152004,-0.156677 -0.251445,-0.182571l0.01 -0.0385945 -0.0100787 0.0387087c-0.00131496,-0.00034252 -0.00259843,-0.000748031 -0.00384646,-0.00120866 -0.0761496,-0.0220827 -0.152402,-0.0334921 -0.22748,-0.0308189 -0.0750315,0.00266929 -0.149394,0.0195315 -0.221902,0.0540472 -0.0598307,0.0284803 -0.109969,0.0747244 -0.147528,0.141295 -0.0307874,0.0545748 -0.0534291,0.122972 -0.0664567,0.206567zm0.465528 0.883591c-0.185028,-0.880579 -0.466331,-0.810079 -0.494972,-0.800445 -0.00630709,0.00292126 -0.0134567,0.00424016 -0.0208701,0.00348031 -0.0219724,-0.00225591 -0.0379606,-0.0219055 -0.0357047,-0.043878l0.000102362 1.1811e-005c0.0121417,-0.11822 0.0407795,-0.213559 0.0829961,-0.28839 0.0462559,-0.0819921 0.108307,-0.139091 0.182528,-0.174421 0.0825236,-0.0392835 0.16748,-0.0584843 0.253469,-0.0615433 0.0841181,-0.003 0.168756,0.00956693 0.252677,0.0339134 0.00053937,0.00011811 0.00107874,0.000240157 0.00161811,0.00038189l-1.9685e-005 8.26772e-005 0.00119291 0.000346457 -3.93701e-006 1.9685e-005c0.120551,0.0318504 0.207165,0.121114 0.287386,0.203803 0.0491575,0.0506693 0.0956969,0.0986417 0.142969,0.124283 0.110094,0.0597362 0.211839,0.117071 0.306626,0.179472 0.0945709,0.0622559 0.179846,0.128311 0.25563,0.204752 0.14337,0.144626 0.273756,0.300665 0.379984,0.458201 0.100886,0.149614 0.180413,0.301217 0.229181,0.446516 0.323441,0.963681 1.13209,1.83322 1.17459,1.87852 0.00719291,0.00666535 0.0119724,0.0159685 0.0127165,0.0265197 0.00155512,0.0220354 -0.0150472,0.0411654 -0.0370827,0.0427205l-0.0028189 -0.0399016 0.00281102 0.0398425c-0.693362,0.0489843 -1.32326,-0.198398 -1.82522,-0.575335 -0.612823,-0.460185 -1.03546,-1.11486 -1.14978,-1.65895z"/>
  <path class="fil0" d="M1.39528 1.41874c0.0201024,-0.00905906 0.0290591,-0.0327087 0.02,-0.052811 -0.00905906,-0.0201024 -0.0327087,-0.0290591 -0.052811,-0.02 -0.00125984,0.000570866 -0.444264,0.193819 -0.0616535,0.72235l-4.72441e-005 3.54331e-005c0.0129528,0.0178937 0.0379646,0.0218976 0.0558583,0.00894488 0.00900394,-0.00651575 0.0144882,-0.0160866 0.0160669,-0.0262677 0.00497638,-0.0227165 0.0509488,-0.22126 0.139406,-0.228969 0.142421,-0.0124094 0.253185,-0.175327 0.253504,-0.175791 0.0124252,-0.0182047 0.00773622,-0.0430433 -0.0104685,-0.0554685 -0.0182047,-0.0124252 -0.0430433,-0.00773622 -0.0554685,0.0104685 -0.000259843,0.000377953 -0.0898031,0.131992 -0.194441,0.141106 -0.0977008,0.00851575 -0.15652,0.125248 -0.186398,0.209087 -0.240748,-0.394567 0.0755079,-0.532256 0.0764528,-0.532685z"/>
  <path class="fil0" d="M1.59032 1.51552c0.0207953,-0.00741732 0.0316378,-0.0302992 0.0242205,-0.0510945 -0.00741732,-0.0207953 -0.0302992,-0.0316378 -0.0510945,-0.0242205 -0.00108268,0.000385827 -0.380925,0.130685 -0.269181,0.613551 0.00491732,0.0214843 0.0263268,0.0349173 0.047811,0.03 0.0214843,-0.00491732 0.0349173,-0.0263268 0.03,-0.047811 -0.0955591,-0.412937 0.217354,-0.520106 0.218244,-0.520425z"/>
  <path class="fil0" d="M3.30231 3.97924c-0.00241339,-0.0219173 -0.0221457,-0.0377283 -0.044063,-0.035315 -0.0219173,0.00241339 -0.0377283,0.0221457 -0.035315,0.044063 0.0306693,0.277087 0.0985787,0.653488 0.248374,1.01926 0.150685,0.367937 0.384165,0.724787 0.74578,0.95952l0.0217205 -0.033437 -0.0217795 0.0335512c0.0185276,0.0120276 0.0433031,0.00675591 0.0553307,-0.0117717 0.00835039,-0.0128622 0.00835827,-0.0287402 0.00138583,-0.0412677 -0.017622,-0.0374331 -0.239213,-0.511945 -0.382866,-1.01045 -0.00603937,-0.0211378 -0.0280787,-0.0333819 -0.0492165,-0.0273425 -0.0211378,0.00603937 -0.0333819,0.0280787 -0.0273425,0.0492165 0.103539,0.359295 0.24639,0.705047 0.326846,0.888791 -0.279213,-0.221358 -0.46822,-0.524858 -0.59611,-0.837126 -0.146213,-0.357028 -0.212654,-0.725858 -0.242744,-0.997697z"/>
  <path class="fil0" d="M3.42789 4.04554c-0.00862992,-0.0202795 -0.0320669,-0.0297244 -0.0523465,-0.0210945 -0.0202795,0.00862992 -0.0297244,0.0320669 -0.0210945,0.0523465 0.127201,0.299413 0.32926,0.697421 0.618929,1.05551 0.29135,0.360177 0.671449,0.680299 1.15372,0.821146l-3.93701e-005 0.000141732c0.0212047,0.00618898 0.0434213,-0.00598031 0.0496102,-0.027185 0.00425984,-0.0145906 -0.000177165,-0.0296614 -0.0102638,-0.0396614 -0.0370906,-0.0412598 -0.789106,-0.882217 -1.07492,-1.56637 -0.00845276,-0.0203622 -0.0318228,-0.0300157 -0.052185,-0.021563 -0.0203622,0.00845276 -0.0300157,0.0318228 -0.021563,0.052185 0.234256,0.560748 0.772681,1.22119 0.993547,1.47946 -0.399339,-0.152283 -0.721768,-0.43452 -0.97572,-0.748465 -0.284311,-0.351469 -0.482732,-0.742346 -0.607677,-1.03645z"/>
  <path class="fil0" d="M4.41501 4.91337c-0.0178622,-0.0129409 -0.0428386,-0.00895669 -0.0557795,0.00890551 -0.0129409,0.0178622 -0.00895669,0.0428386 0.00890551,0.0557795 0.191657,0.138681 0.402902,0.260224 0.630984,0.346421 0.20063,0.0758228 0.414252,0.124205 0.639,0.132752l-3.93701e-006 0.000133858c0.0220748,0.000838583 0.0406535,-0.016378 0.0414921,-0.0384528 0.000590551,-0.0155472 -0.00777559,-0.0293622 -0.0204882,-0.0364646 -0.0478622,-0.0322559 -0.736024,-0.499299 -1.21065,-1.00559 -0.0150984,-0.0160472 -0.0403583,-0.0168189 -0.0564055,-0.00172047 -0.0160472,0.0150984 -0.0168189,0.0403583 -0.00172047,0.0564055 0.373594,0.39852 0.87737,0.772654 1.10566,0.934646 -0.16285,-0.019315 -0.319406,-0.0599488 -0.468752,-0.11639 -0.220701,-0.0834055 -0.425756,-0.201484 -0.612236,-0.336421z"/>
  <circle class="fil1" cx="1.79265" cy="1.1424" r="0.0533332"/>
  <path class="fil0" d="M2.72171 3.97391c-0.0208819,0.0070748 -0.0320748,0.0297402 -0.025,0.050622 0.0070748,0.0208819 0.0297402,0.0320748 0.050622,0.025 0.00038189,-0.000129921 0.134358,-0.0456693 0.143736,-0.0433268 0.00797638,0.00199213 0.0187087,0.00532283 0.0285079,0.00852756l0.0025315 0.136508c0.00034252,0.0220039 0.0184646,0.0395591 0.0404685,0.0392165 0.0220039,-0.00034252 0.0395591,-0.0184646 0.0392165,-0.0404685l-0.00298819 -0.161165c0.00125591,-0.0173031 -0.00893307,-0.0340669 -0.0260157,-0.0403937l-0.0138937 0.0375118 0.013752 -0.0375c-0.000110236,-3.93701e-005 -0.0396417,-0.0141024 -0.0622008,-0.0197402 -0.0322835,-0.00807087 -0.188291,0.0450591 -0.188736,0.0452087z"/>
  <path class="fil0" d="M2.76942 4.07785c-0.0171693,0.0138071 -0.0199016,0.0389252 -0.00609449,0.0560945 0.0138071,0.0171693 0.0389252,0.0199016 0.0560945,0.00609449l0.145079 -0.116949c0.0171693,-0.0138071 0.0199016,-0.0389252 0.00609449,-0.0560945 -0.0138071,-0.0171693 -0.0389252,-0.0199016 -0.0560945,-0.00609449l-0.145079 0.116949z"/>
  <path class="fil0" d="M2.9009 3.98153c-0.00577953,0.021315 0.00681102,0.0432835 0.028126,0.049063 0.021315,0.00577953 0.0432835,-0.00681102 0.049063,-0.028126l0.0476181 -0.175594c0.00577953,-0.021315 -0.00681102,-0.0432835 -0.028126,-0.049063 -0.021315,-0.00577953 -0.0432835,0.00681102 -0.049063,0.028126l-0.0476181 0.175594z"/>
  <path class="fil0" d="M2.54398 2.05834c-0.0207087,-0.00750787 -0.0435866,0.00319685 -0.0510945,0.0239055 -0.00750787,0.0207087 0.00319685,0.0435866 0.0239055,0.0510945 0.355799,0.130181 0.499138,0.487524 0.646909,0.855933 0.184303,0.459484 0.375236,0.935457 0.981382,1.05152 0.0216575,0.00414173 0.0425787,-0.010063 0.0467205,-0.0317205 0.00414173,-0.0216575 -0.010063,-0.0425787 -0.0317205,-0.0467205 -0.563358,-0.10787 -0.746008,-0.563205 -0.922319,-1.00276 -0.154496,-0.385169 -0.30435,-0.75876 -0.693783,-0.901248z"/>
 </g>
 <rect class="fil2" width="6.82666" height="6.82666"/>
</svg>
