<?xml version="1.0" encoding="UTF-8"?>
<!DOCTYPE svg PUBLIC "-//W3C//DTD SVG 1.1//EN" "http://www.w3.org/Graphics/SVG/1.1/DTD/svg11.dtd">
<!-- Creator: CorelDRAW -->
<svg xmlns="http://www.w3.org/2000/svg" xml:space="preserve" width="6.82666in" height="6.82666in" style="shape-rendering:geometricPrecision; text-rendering:geometricPrecision; image-rendering:optimizeQuality; fill-rule:evenodd; clip-rule:evenodd"
viewBox="0 0 6.82666 6.82666"
 xmlns:xlink="http://www.w3.org/1999/xlink">
 <defs>
  <style type="text/css">
   <![CDATA[
    .fil2 {fill:none}
    .fil1 {fill:#212121}
    .fil0 {fill:#212121;fill-rule:nonzero}
   ]]>
  </style>
 </defs>
 <g id="Layer_x0020_1">
  <metadata id="CorelCorpID_0Corel-Layer"/>
  <path class="fil0" d="M3.78497 4.08228c0.0220039,8.66142e-005 0.0399134,-0.0176811 0.04,-0.039685 8.66142e-005,-0.0220039 -0.0176811,-0.0399134 -0.039685,-0.04 -0.176386,-0.000704724 -0.354878,-0.00658268 -0.529618,-0.0158228 -0.172098,-0.00909843 -0.342173,-0.0217126 -0.50378,-0.0359764l0 -1.1811e-005c-0.0160079,-0.00141339 -0.0306535,0.00681102 -0.038189,0.019874 -0.0334803,0.0524724 -0.0826417,0.114409 -0.149673,0.163193 -0.0442598,0.0322087 -0.0966102,0.0589252 -0.157823,0.0736732 0.0150906,-0.0223307 0.028874,-0.0468622 0.0403346,-0.0724882 0.0255591,-0.0571457 0.0401929,-0.120697 0.0331614,-0.179244l2.75591e-005 -8.26772e-005c-0.00237795,-0.0197953 -0.0188386,-0.0344685 -0.0381496,-0.0352008 -0.0253386,-0.0027126 -0.0525,-0.00569291 -0.0811339,-0.00888976 -0.0258071,-0.00287795 -0.0535079,-0.00604724 -0.0828976,-0.00947244l7.87402e-006 -5.51181e-005c-0.0141063,-0.00164173 -0.0273504,0.00426772 -0.0356929,0.0145276 -0.0370039,0.0398898 -0.0827126,0.078248 -0.137921,0.106823 -0.0296575,0.0153504 -0.0621417,0.0279449 -0.0975906,0.0365197 0.00305906,-0.0045315 0.00605906,-0.00914173 0.00899213,-0.0138386 0.0232283,-0.0371693 0.042815,-0.0799882 0.0544764,-0.123827l8.66142e-005 2.3622e-005c0.00567323,-0.0213465 -0.00703543,-0.0432598 -0.0283819,-0.0489331 -0.00288976,-0.000767717 -0.0057874,-0.00119685 -0.00865748,-0.00131496 -0.0510669,-0.00664173 -0.103087,-0.0137047 -0.152055,-0.0204882 -0.0428701,-0.00593307 -0.0834055,-0.0117362 -0.117728,-0.0166929l1.1811e-005 -7.08661e-005c-0.0149213,-0.00215354 -0.0291024,0.00422835 -0.0376142,0.0154449 -0.0376496,0.0407087 -0.218622,0.207783 -0.400028,0.318563 -0.059626,0.0364173 -0.118551,0.0664252 -0.170756,0.0828898 0.390705,-0.446705 0.280547,-0.548571 0.0704882,-0.742516 -0.0783819,-0.0723661 -0.172378,-0.159161 -0.254071,-0.288598 0.114492,0.0267835 0.229776,0.0744882 0.33798,0.133098 0.162606,0.0880669 0.308516,0.200378 0.411866,0.303445l-7.87402e-005 7.87402e-005c0.0121969,0.0121614 0.0302756,0.014815 0.0450472,0.00798425 0.0829606,-0.0312835 0.163071,-0.0610827 0.240354,-0.089248 0.0812598,-0.0296102 0.158602,-0.0572047 0.231799,-0.0825197l0.000106299 0.000145669c0.0102087,-0.0035315 0.0180748,-0.0107835 0.0225984,-0.0197126 0.0400197,-0.0677126 0.039185,-0.151386 0.0164685,-0.230685 -0.0156024,-0.0544567 -0.0419803,-0.107555 -0.0724094,-0.151756 0.0700669,0.0158543 0.12985,0.046626 0.180217,0.0841811 0.0740512,0.0552165 0.128071,0.124965 0.164815,0.184217l-8.66142e-005 0.000145669c0.00997244,0.0160827 0.0295039,0.022626 0.0466969,0.0168504 0.218748,-0.0662362 0.428232,-0.119256 0.638165,-0.15772 0.21076,-0.0386181 0.422807,-0.0628819 0.646087,-0.0714921l0.000137795 0.000125984c0.0187441,-0.000720472 0.0339724,-0.0142402 0.037622,-0.0318189 0.0277244,-0.100669 0.0175118,-0.230244 -0.0225,-0.348496 -0.0248307,-0.073374 -0.0613543,-0.143008 -0.107661,-0.199453 0.225929,0.0264094 0.397862,0.125413 0.523705,0.236815 0.145925,0.129169 0.230319,0.27511 0.265319,0.344677l-8.66142e-005 4.33071e-005c0.00693701,0.0137913 0.0207756,0.0218228 0.0352165,0.0220236 0.0462283,0.00443307 0.0956693,0.00973622 0.148374,0.0159016 0.0532874,0.00623228 0.105571,0.012874 0.156886,0.0199252 0.109728,0.0150787 0.221039,0.0323268 0.328634,0.0514803 0.188228,0.0335039 0.359343,0.0721457 0.481307,0.114075 0.0989213,0.0340079 0.16163,0.0649646 0.165622,0.0891496l-0.00228346 0.0041378c-0.0961417,0.0877205 -0.366331,0.108508 -0.524949,0.120709l-0.029811 0.00230315 0.00312598 0.0398425 -0.00316535 -0.039874c-0.0220197,0.00174803 -0.0384567,0.0210197 -0.0367087,0.0430394 0.00088189,0.0111142 0.00622835,0.0208031 0.0141378,0.0274528 0.0172717,0.0168425 0.0340276,0.0335433 0.0502244,0.0506181 0.00620472,0.00653937 0.0122953,0.0131063 0.0182717,0.0197205 -0.127803,0.0791654 -0.29502,0.137618 -0.487661,0.179681 -0.214843,0.0469094 -0.46015,0.0732874 -0.717303,0.0851496 -0.0220039,0.000948819 -0.0390709,0.0195591 -0.038122,0.041563 0.000948819,0.0220039 0.0195591,0.0390709 0.041563,0.038122 0.262098,-0.0120866 0.512016,-0.0389528 0.730736,-0.0867087 0.220854,-0.0482244 0.411055,-0.117913 0.551819,-0.215354 0.00138976,-0.000866142 0.00274016,-0.00183071 0.00404331,-0.00288976 0.0171457,-0.0139252 0.0197598,-0.039122 0.00583465,-0.0562677l-0.0310512 0.0252165 0.030937 -0.0251575c-0.0144528,-0.0177992 -0.0293898,-0.0347244 -0.0447835,-0.0512008 0.172134,-0.0141969 0.41663,-0.0422835 0.520012,-0.14022 0.00391732,-0.00316142 0.00730709,-0.00711811 0.00988976,-0.0117992l-0.00462598 -0.00255512 7.87402e-005 -4.72441e-005 0.0045315 0.00248819 0.00834646 -0.0151181c0.00286614,-0.00449213 0.00487795,-0.00963386 0.00576772,-0.0152323l-4.33071e-005 -7.87402e-006c0.000169291,-0.000834646 0.000314961,-0.00167323 0.000433071,-0.00252756l-0.039626 -0.00544488 0.0395315 0.00531102c0.00973622,-0.0708898 -0.0757323,-0.13052 -0.218835,-0.17972 -0.126071,-0.0433425 -0.301374,-0.0830039 -0.493496,-0.117201 -0.105646,-0.0188031 -0.21826,-0.0362008 -0.33176,-0.0517953 -0.0556535,-0.00764567 -0.108441,-0.0143898 -0.158445,-0.0202402 -0.0425433,-0.00497638 -0.0863386,-0.0096811 -0.131429,-0.0141102 -0.0422756,-0.0797953 -0.130051,-0.221732 -0.273646,-0.348843 -0.156362,-0.138421 -0.378547,-0.259146 -0.679661,-0.263571 -0.0141024,-0.00151969 -0.0285787,0.00452362 -0.0372165,0.0170039 -0.0125709,0.0181614 -0.00803937,0.0430866 0.010122,0.0556575l0.000110236 -7.87402e-005c0.0725394,0.0502165 0.128728,0.14011 0.162169,0.238933 0.0317795,0.0939173 0.0425709,0.194594 0.0270472,0.276157 -0.216287,0.00974016 -0.42239,0.0339409 -0.62715,0.0714606 -0.2055,0.0376535 -0.408925,0.0884606 -0.619339,0.151311 -0.0402244,-0.0600354 -0.0955236,-0.126335 -0.168063,-0.180425 -0.0837441,-0.0624409 -0.190193,-0.108756 -0.322622,-0.111319 -0.013122,-0.0013937 -0.0266496,0.00372047 -0.0355,0.0147835 -0.0137992,0.017248 -0.0110039,0.0424213 0.00624409,0.0562205l0.000145669 -0.000137795c0.0463307,0.0370669 0.0960512,0.113035 0.11924,0.193965 0.0160354,0.0559764 0.0187362,0.11313 -0.0029252,0.158154 -0.0734724,0.0255079 -0.146012,0.0513819 -0.218362,0.0777441 -0.0725591,0.0264449 -0.145823,0.0536457 -0.22024,0.0816378 -0.10676,-0.102823 -0.251701,-0.212421 -0.411949,-0.299213 -0.141083,-0.0764173 -0.294555,-0.135417 -0.44524,-0.157118 -0.00881496,-0.00188189 -0.018315,-0.000814961 -0.0269173,0.00370079 -0.0195591,0.0102638 -0.0270945,0.0344449 -0.0168307,0.0540039l0.000145669 -7.48031e-005c0.0967559,0.184339 0.216268,0.294689 0.313059,0.384051 0.182528,0.16852 0.273516,0.252583 -0.14463,0.707055 -0.00631102,0.0060748 -0.0106732,0.014248 -0.0118976,0.0236024 -0.0028622,0.0219016 0.0125709,0.0419882 0.0344724,0.0448504l3.14961e-005 -0.000129921c0.0886063,0.0115866 0.204102,-0.0368701 0.317913,-0.106374 0.172709,-0.105472 0.346575,-0.261807 0.404835,-0.320118 0.026937,0.00386614 0.059252,0.00844094 0.0980276,0.013811 0.0305827,0.00423622 0.066248,0.0090748 0.107992,0.0145906 -0.00851575,0.0205157 -0.018874,0.0403583 -0.0303346,0.0586969 -0.019685,0.0314961 -0.0421339,0.0578858 -0.0635551,0.0750079 -0.0108976,0.00726772 -0.0180118,0.0197283 -0.0178346,0.0337992 0.000275591,0.0220866 0.0184094,0.0397717 0.0404961,0.0394961l0 -0.000153543c0.0905591,-0.0011378 0.168122,-0.0236772 0.233862,-0.0577047 0.0584409,-0.030248 0.107339,-0.0694134 0.147626,-0.110583 0.0194921,0.00224409 0.0406772,0.00464567 0.0635709,0.00720079 0.0154843,0.00172835 0.0320039,0.00355118 0.0496142,0.00546457 -0.0017126,0.0348228 -0.0121614,0.0715945 -0.0275827,0.106071 -0.0233937,0.0523189 -0.0574331,0.0981417 -0.0897283,0.123921 -0.0108819,0.00727165 -0.0179882,0.0197244 -0.017811,0.0337835 0.000275591,0.0220866 0.0184094,0.0397717 0.0404961,0.0394961l0 -0.000153543c0.125169,-0.0015748 0.225547,-0.0441024 0.304217,-0.10135 0.0689961,-0.0502126 0.120764,-0.111315 0.15774,-0.165681 0.152248,0.0132047 0.314583,0.0250118 0.482965,0.0339094 0.174551,0.00922835 0.35411,0.0151063 0.533366,0.0158228z"/>
  <path class="fil0" d="M4.4535 3.67124c0.00638583,-0.0211378 -0.00557874,-0.0434567 -0.0267165,-0.0498425 -0.0211378,-0.00638583 -0.0434567,0.00557874 -0.0498425,0.0267165 -0.033189,0.109783 -0.139685,0.307913 -0.345642,0.450406 -0.107063,0.0740709 -0.241031,0.132913 -0.405591,0.156224 0.0858583,-0.066937 0.17439,-0.152496 0.23989,-0.245709 0.0761378,-0.108339 0.12202,-0.227906 0.100209,-0.343693 -0.00405512,-0.0216575 -0.0249055,-0.0359331 -0.046563,-0.031878 -0.0216575,0.00405512 -0.0359331,0.0249055 -0.031878,0.046563 0.0172598,0.0916378 -0.0222756,0.19085 -0.0870827,0.283071 -0.090689,0.129055 -0.229398,0.24263 -0.336634,0.306693 -0.0130118,0.00672047 -0.0218386,0.0203661 -0.0216654,0.0360079 0.000244094,0.0220866 0.0183583,0.0397913 0.0404449,0.0395472l0 -0.00015748c0.25052,-0.00283071 0.445921,-0.0784724 0.594185,-0.181047 0.224043,-0.155004 0.340417,-0.372268 0.376886,-0.492902z"/>
  <circle class="fil1" cx="5.12694" cy="3.41429" r="0.0533327"/>
 </g>
 <rect class="fil2" width="6.82666" height="6.82666"/>
</svg>
