<?xml version="1.0" encoding="UTF-8"?>
<!DOCTYPE svg PUBLIC "-//W3C//DTD SVG 1.1//EN" "http://www.w3.org/Graphics/SVG/1.1/DTD/svg11.dtd">
<!-- Creator: CorelDRAW -->
<svg xmlns="http://www.w3.org/2000/svg" xml:space="preserve" width="6.82666in" height="6.82666in" style="shape-rendering:geometricPrecision; text-rendering:geometricPrecision; image-rendering:optimizeQuality; fill-rule:evenodd; clip-rule:evenodd"
viewBox="0 0 6.82666 6.82666"
 xmlns:xlink="http://www.w3.org/1999/xlink">
 <defs>
  <style type="text/css">
   <![CDATA[
    .fil2 {fill:none}
    .fil1 {fill:#212121}
    .fil0 {fill:#212121;fill-rule:nonzero}
   ]]>
  </style>
 </defs>
 <g id="Layer_x0020_1">
  <metadata id="CorelCorpID_0Corel-Layer"/>
  <path class="fil0" d="M5.4051 2.46862c0.0215709,0.00439764 0.0426339,-0.00952362 0.0470315,-0.0310945 0.00439764,-0.0215709 -0.00952362,-0.0426339 -0.0310945,-0.0470315 -0.231,-0.0478189 -0.350843,0.0175866 -0.411559,0.0507244 -0.00584252,0.00318898 -0.0109213,0.00596063 -0.0147126,0.00796457 -0.276354,-0.10987 -0.458201,-0.0522992 -0.618193,-0.0016378 -0.0861969,0.0272992 -0.165496,0.0524094 -0.246602,0.043563l7.87402e-006 -8.66142e-005c-0.0026378,-0.000287402 -0.00524016,-0.000314961 -0.00779134,-9.44882e-005 -0.0823543,-0.000374016 -0.180665,-0.00377953 -0.299335,-0.0120709 -0.11887,-0.00830315 -0.258047,-0.0216693 -0.421898,-0.0420472 -0.329012,-0.0409213 -0.564587,-0.0149291 -0.745646,0.0788701 -0.18222,0.0943976 -0.306287,0.255283 -0.411902,0.483846 -0.0141024,0.025685 -0.0274606,0.0508819 -0.0402913,0.0755551 -0.00482677,0.0092874 -0.022252,0.0434016 -0.039689,0.0775551 -0.0695,0.136055 -0.128642,0.244201 -0.215996,0.307839 -0.0859173,0.0625945 -0.204433,0.0854764 -0.396787,0.055126 -0.0743819,-0.0117362 -0.191106,-0.0528307 -0.300583,-0.104055 -0.0984606,-0.0460709 -0.189728,-0.0997598 -0.236531,-0.146559 -0.0183268,-0.0183268 -0.0423465,-0.0274921 -0.0663583,-0.0274921 -0.023878,0 -0.0478622,0.00919291 -0.0662756,0.0275709l-7.87402e-005 -7.87402e-005 -3.93701e-006 7.87402e-006 -7.87402e-006 -7.87402e-006 -0.000755906 0.000779528c-0.0178071,0.0182205 -0.0267165,0.0419094 -0.0267165,0.0655748 0,0.0240118 0.00916142,0.0480315 0.0274843,0.0663543l-3.93701e-006 3.93701e-006c0.00140945,0.00140945 0.00290157,0.00268898 0.00445276,0.00384252 0.0989646,0.0882677 0.194583,0.164232 0.296217,0.221965 0.104327,0.0592598 0.214587,0.0992638 0.340398,0.113626l-7.87402e-006 7.08661e-005c0.000692913,7.87402e-005 0.00138583,0.000137795 0.0020748,0.000181102 0.524945,0.0819213 0.625528,-0.0986929 0.766177,-0.351413 0.0249882,-0.0448976 0.0513465,-0.0922638 0.0820394,-0.140728 -0.0142598,0.0430236 -0.0220079,0.0822953 -0.0293465,0.119488 -0.0252087,0.127811 -0.044937,0.227795 -0.379425,0.371146l0.015626 0.0367205 -0.0157559 -0.0367638c-0.0118622,0.00508268 -0.02,0.0152205 -0.0229843,0.0268228 -0.00782283,0.0246693 -0.073063,0.240571 -0.073063,0.584354 0,0.00790945 0.00229528,0.0152835 0.00625984,0.0214921 0.0110984,0.0195236 0.104886,0.18011 0.202925,0.206988 0.0232638,0.00637402 0.0645079,0.00351969 0.119587,-0.000279528 0.0482992,-0.00333858 0.108035,-0.0074685 0.169157,-0.00716535l0 0.00015748c0.0220906,0.000110236 0.0400906,-0.0177087 0.0402008,-0.0397992 4.72441e-005,-0.00926772 -0.00306693,-0.017815 -0.00832283,-0.024622l-0.130697 -0.200646 -0.033437 0.0217205 0.0335157 -0.0218307c-0.006,-0.0092126 -0.0151535,-0.0151378 -0.025122,-0.0172756l-0.0470866 -0.0131772c-0.000641732,-0.0757087 0.0137047,-0.28837 0.187508,-0.373476 0.130591,-0.00451969 0.235984,-0.0487441 0.320315,-0.107339 0.0819567,-0.056937 0.143618,-0.127358 0.189051,-0.187551 0.0702441,-0.0429173 0.134717,-0.0697598 0.197453,-0.0838071 0.0644134,-0.0144213 0.127843,-0.0156575 0.194531,-0.00722835 0.149043,0.0188386 0.238705,0.0564724 0.317819,0.0896811 0.136177,0.0571575 0.243453,0.102146 0.541185,0.0349843 -0.00912205,0.0964331 -0.0264016,0.289941 -0.0389528,0.443669 -0.010878,0.133252 -0.015252,0.242437 -0.00298425,0.254705l-3.93701e-006 3.93701e-006c0.00735827,0.00735827 0.016874,0.011248 0.0265118,0.0116732 0.00309449,0.000952756 0.0170591,0.00993701 -0.00157087,0.094437l-0.00015748 -1.9685e-005c-0.00239764,0.010878 -0.000122047,0.0217008 0.00549606,0.0303661 0.00996063,0.0171339 0.0718819,0.115921 0.174736,0.113362 0.00042126,-7.87402e-006 0.00246457,2.75591e-005 0.00535039,7.48031e-005 0.0304291,0.000531496 0.137114,0.00240945 0.190839,-0.0272402 0.0409961,-0.022622 0.0594252,-0.0564409 0.0316181,-0.106831l1.9685e-005 -0.000106299c-0.000562992,-0.00101575 -0.00116535,-0.00199606 -0.00179921,-0.00294488l-0.0475748 -0.0837795 9.44882e-005 -6.29921e-005c-0.00625197,-0.0110118 -0.0169449,-0.0179173 -0.0285472,-0.0197559 -0.0150276,-0.00314173 -0.0370236,-0.0102717 -0.0590079,-0.0173937 -0.0143583,-0.00465748 -0.0287283,-0.00931102 -0.0418386,-0.0131457 -0.00820472,-0.0606299 -0.0222835,-0.22326 0.0320079,-0.38615 0.0142323,-0.0427008 0.0245984,-0.0761299 0.0339213,-0.106193 0.0308898,-0.0996142 0.0502441,-0.162028 0.102909,-0.23139 0.0132874,-0.0175157 0.00985827,-0.0424961 -0.00765748,-0.0557835 -0.0175157,-0.0132874 -0.0424961,-0.00985827 -0.0557835,0.00765748 -0.0613819,0.0808425 -0.082315,0.148343 -0.11572,0.256075 -0.0100197,0.0323071 -0.0211732,0.0682795 -0.0332913,0.104634 -0.0702047,0.210638 -0.0363189,0.420528 -0.0314724,0.447689 0.00185039,0.0169134 0.0144449,0.0314055 0.0320157,0.034878l9.84252e-005 -1.9685e-005c0.0150394,0.00297244 0.0377402,0.0103307 0.0604331,0.017685 0.0178031,0.00576772 0.0356181,0.0115394 0.0510276,0.0157402l0.0390157 0.0687047 0.000417323 0.000850394c-0.035937,0.0192047 -0.124965,0.0176417 -0.150472,0.0171969 -0.0039685,-6.69291e-005 -0.00670472,-0.00011811 -0.00847638,-7.48031e-005 -0.047748,0.00118898 -0.0827638,-0.041815 -0.0971181,-0.0630748 0.0211693,-0.115913 -0.0214016,-0.155193 -0.0507598,-0.168457 -0.000665354,-0.0190157 0.0192362,-0.0869764 0.0274094,-0.187059 0.0159173,-0.194992 0.0393031,-0.452795 0.0440039,-0.495118 0.000901575,-0.00531102 0.000744094,-0.0108898 -0.000653543,-0.0164488 -0.00538976,-0.0214213 -0.0271339,-0.0344173 -0.0485551,-0.0290276l1.1811e-005 5.51181e-005c-0.31422,0.0790787 -0.415319,0.0366457 -0.545787,-0.0181142 -0.083374,-0.0349961 -0.17787,-0.0746575 -0.338756,-0.0949961 -0.0755669,-0.00955118 -0.147811,-0.00806299 -0.22172,0.00848031 -0.0730984,0.0163661 -0.147031,0.047185 -0.226484,0.0962874 -0.00499606,0.00268504 -0.00950394,0.00647638 -0.0131181,0.0113268l4.33071e-005 0.000145669c-0.041748,0.0560276 -0.0990197,0.122736 -0.175378,0.175787 -0.0742677,0.0516063 -0.167043,0.0903819 -0.281803,0.0934449 -0.00638583,-0.000409449 -0.0129685,0.000712598 -0.0191929,0.00357087l5.90551e-005 0.000129921c-0.261724,0.120134 -0.241965,0.45548 -0.240028,0.481504 0.000681102,0.0168622 0.012063,0.0321102 0.029189,0.0369016l2.3622e-005 -7.87402e-005 0.0630709 0.0176575 0.0849291 0.130378c-0.0375866,0.00143307 -0.0719803,0.00381102 -0.101972,0.00588189 -0.0477756,0.00329528 -0.0835551,0.00576772 -0.0933346,0.00309055 -0.0607441,-0.0166535 -0.130744,-0.129248 -0.150091,-0.162126 0.0011378,-0.288906 0.0487362,-0.479094 0.0646299,-0.534638 0.357004,-0.156307 0.380055,-0.273122 0.409382,-0.421807 0.0110315,-0.0559134 0.0230748,-0.116953 0.0590945,-0.186425 0.0125433,-0.024189 0.0418031,-0.138406 0.0452323,-0.151886 0.0040315,-0.0139213 0.000330709,-0.0295591 -0.0109173,-0.0402087 -0.0160394,-0.015185 -0.0413622,-0.0144921 -0.0565472,0.00154724l7.48031e-005 7.08661e-005c-0.11226,0.118587 -0.178685,0.237937 -0.237756,0.344079 -0.124878,0.224378 -0.214185,0.38474 -0.6845,0.311386 -0.00162992,-0.000393701 -0.00329528,-0.000700787 -0.00500394,-0.000893701l-0.0045315 0.0397441 0.00437402 -0.039689c-0.114209,-0.0130197 -0.21463,-0.0495157 -0.309917,-0.103642 -0.0962047,-0.0546496 -0.187598,-0.127343 -0.282587,-0.212071l-0.000893701 -0.000925197 -3.93701e-006 3.93701e-006c-0.00269291,-0.00269291 -0.00404331,-0.00624409 -0.00404331,-0.00979528 0,-0.00345669 0.00127953,-0.00690945 0.00382677,-0.0095748l0.000228346 -0.000220472 -0.0282913 -0.0282795 0.0282795 0.028126c0.00259449,-0.00259449 0.00615354,-0.00389764 0.00979528,-0.00389764 0.00355118,0 0.00710236,0.00135433 0.00979921,0.00405118 0.0532717,0.0532638 0.153024,0.112441 0.259343,0.162189 0.115579,0.0540827 0.240587,0.097748 0.322142,0.110614 0.215921,0.0340709 0.35265,0.00569291 0.45585,-0.0694961 0.101772,-0.0741417 0.165665,-0.190331 0.240059,-0.335965 0.00854331,-0.0167323 0.0177126,-0.0346614 0.039689,-0.0769331 0.0133858,-0.0257323 0.0265039,-0.0505551 0.0387953,-0.0729685 0.000909449,-0.00144882 0.00173622,-0.00297244 0.00247244,-0.00456693l-7.08661e-005 -3.14961e-005c0.0984055,-0.213386 0.212059,-0.362524 0.376618,-0.447772 0.166087,-0.0860433 0.387,-0.109283 0.699402,-0.0704291 0.163878,0.0203819 0.304705,0.0338661 0.426268,0.0423543 0.118803,0.00830315 0.219402,0.0117047 0.30524,0.0120748 0.0974094,0.010315 0.18389,-0.0170591 0.277858,-0.0468189 0.149398,-0.047311 0.319492,-0.10115 0.575386,0.0038189 0.00728346,0.00367717 0.015752,0.00517717 0.0244213,0.00377165l-1.9685e-005 -0.000133858c0.0149685,-0.00245669 0.0286693,-0.00993307 0.0471811,-0.0200354 0.0520866,-0.0284291 0.154898,-0.0845394 0.357496,-0.0425984z"/>
  <path class="fil0" d="M3.38954 3.48404c0.000602362,-0.0220039 -0.0167441,-0.0403346 -0.038748,-0.040937 -0.0220039,-0.000602362 -0.0403346,0.0167441 -0.040937,0.038748 -0.00108661,0.0389961 -0.0075315,0.0778858 -0.0225433,0.117169 -0.0151102,0.0395354 -0.0389685,0.0795669 -0.0748465,0.120634 -0.23515,0.269154 0.0948228,0.619504 0.0965827,0.621382l-6.29921e-005 5.90551e-005c0.00744882,0.00801969 0.0174252,0.0122953 0.0275591,0.0127362l0.148583 0.0162126 0.0659961 0.103028c-0.018248,0.00277953 -0.0320748,0.00516142 -0.0446575,0.00732677 -0.0306142,0.00526772 -0.0538858,0.0092874 -0.107224,0.0135551 -0.0537087,-0.0458031 -0.269929,-0.233551 -0.385831,-0.384709 -0.00305118,-0.00397638 -0.0278346,-0.038252 -0.0465315,-0.0651457 -0.00844488,-0.0121496 -0.013063,-0.0143228 -0.0138583,-0.017378 -0.0011378,-0.00436614 -0.000409449,-0.0124213 0.00500787,-0.0270236 0.0058937,-0.0158898 0.0164094,-0.0357992 0.0337795,-0.060685l-0.0326575 -0.022811 0.0327992 0.0228976c0.00249606,-0.00357874 0.00433071,-0.00742126 0.00551969,-0.0113858 0.00954724,-0.0267087 0.0967047,-0.287992 -0.113772,-0.388433 -0.0199331,-0.00949213 -0.0437913,-0.00102756 -0.0532835,0.0189055 -0.00949213,0.0199331 -0.00102756,0.0437913 0.0189055,0.0532835 0.142335,0.0679213 0.0843622,0.256165 0.0738425,0.28674 -0.0201614,0.0294921 -0.032752,0.0537717 -0.0401339,0.0736772 -0.0120118,0.0323701 -0.0118661,0.0569252 -0.00719685,0.0748346 0.00200787,0.00770472 0.0125551,0.0244882 0.0254252,0.043 0.0185866,0.0267362 0.0451181,0.0632756 0.0487126,0.0679646 0.132012,0.172169 0.384724,0.38639 0.408535,0.406437 0.00787402,0.00741732 0.0187126,0.0116457 0.0303543,0.0107953l-3.93701e-006 -5.90551e-005c0.0691339,-0.00504724 0.0954094,-0.00957874 0.131051,-0.0157126 0.0244843,-0.00422047 0.0534252,-0.00920472 0.0999724,-0.0151535 0.00689764,-0.000255906 0.0138189,-0.00229921 0.0200512,-0.00629134 0.0185984,-0.0119134 0.0240197,-0.0366575 0.0121063,-0.0552559l-0.0336811 0.0215748 0.0335945 -0.021563 -0.10852 -0.169413c-0.00609055,-0.0109646 -0.0172283,-0.0189094 -0.0306457,-0.0203701l-0.00433858 0.0397638 0.00422047 -0.039689 -0.154819 -0.0168937c-0.0479961,-0.0554685 -0.252102,-0.312866 -0.0853819,-0.503697 0.0427323,-0.0489134 0.0712874,-0.0969606 0.0895315,-0.144697 0.0183346,-0.0479803 0.0262087,-0.0955945 0.0275433,-0.143421z"/>
  <path class="fil0" d="M4.53203 3.56816c8.66142e-005,-0.0220039 -0.0176811,-0.0399134 -0.039685,-0.04 -0.0220039,-8.66142e-005 -0.0399134,0.0176811 -0.04,0.039685l-0.000818898 0.132697 -0.00015748 0c-7.48031e-005,0.0121024 0.00523228,0.0229764 0.0136811,0.0303661 0.0385315,0.0391063 0.596815,0.603917 0.769205,0.67335 0.0165906,0.0224291 0.0535906,0.0572835 0.134657,0.0901181 0.0108386,0.00438976 0.0515827,0.00410236 0.097315,0.00166535 0.0535551,-0.00284646 0.118559,-0.00783071 0.142394,-0.0108543l3.93701e-005 0.000149606c0.0219134,-0.00277953 0.0374213,-0.0228071 0.0346417,-0.0447205 -0.000433071,-0.00342913 -0.00129528,-0.00670079 -0.00251575,-0.00977165l-0.0347323 -0.0972717 1.1811e-005 -1.5748e-005c-0.00201181,-0.00563386 -0.00515748,-0.0105394 -0.00909055,-0.0145472 -0.0216811,-0.0240039 -0.0538543,-0.046 -0.0936575,-0.0595197 -0.0286339,-0.00972441 -0.0614409,-0.0151496 -0.0973228,-0.0138031 -0.076811,-0.0754724 -0.477516,-0.476441 -0.530047,-0.678642 0.0314016,-0.018937 0.0760118,-0.0553898 0.076689,-0.109894 0.0031063,-0.0130945 0.00558661,-0.0266142 0.00723622,-0.0404724 0.00182677,-0.015315 0.00262992,-0.0315984 0.00214961,-0.0488346 -0.000940945,-0.033815 0.0149134,-0.0676417 0.0431181,-0.0948898 0.0290945,-0.0281142 0.0709882,-0.0490433 0.121488,-0.0564409 0.0218307,-0.00318898 0.0369409,-0.0234803 0.033752,-0.045311 -0.00318898,-0.0218307 -0.0234803,-0.0369409 -0.045311,-0.033752 -0.0676693,0.00991339 -0.12474,0.0388622 -0.165244,0.078 -0.044252,0.042752 -0.0690709,0.0977992 -0.0674882,0.154583 0.00034252,0.0122047 -0.00034252,0.0247008 -0.00184252,0.0372677l-0.00605906 0.0333425c-0.0013622,0.00440945 -0.00198031,0.00912992 -0.0017126,0.0140039l9.84252e-005 -3.93701e-006c0.0015,0.0273346 -0.0428189,0.0479055 -0.0535866,0.0524961 -0.0178425,0.00560236 -0.0298307,0.0231929 -0.0277283,0.0424921l9.05512e-005 -7.87402e-006c0.0254173,0.231791 0.533295,0.728579 0.569437,0.763673 0.00825591,0.00926772 0.0206929,0.0145787 0.0339803,0.0132126l-1.1811e-005 -0.000102362c0.0310433,-0.00318898 0.059,0.00065748 0.0826929,0.00870472 0.0235472,0.00799606 0.0425551,0.0200197 0.0558386,0.0331575l0.0151535 0.0424409c-0.0262756,0.0020315 -0.0578425,0.00412205 -0.0865236,0.00564567 -0.0358268,0.00190551 -0.0623268,0.00433071 -0.063252,0.00395669 -0.0842913,-0.0341417 -0.0977598,-0.0536969 -0.0997835,-0.0579409 -0.00319685,-0.0146654 -0.0145472,-0.0269173 -0.0301457,-0.0304961l-4.33071e-005 8.26772e-005c-0.120787,-0.0277165 -0.652598,-0.561524 -0.737626,-0.647476l0.000716535 -0.116323z"/>
  <path class="fil0" d="M5.13538 3.13979c-0.0205354,-0.00802362 -0.0436969,0.00212205 -0.0517205,0.0226575 -0.00802362,0.0205354 0.00212205,0.0436969 0.0226575,0.0517205 0.000212598,8.26772e-005 0.0752283,0.0300315 0.151469,0.00508661 0.0339488,-0.0111063 0.059185,-0.024315 0.0791142,-0.034748 0.0101929,-0.00533465 0.0186575,-0.00976378 0.0244921,-0.0117165l3.93701e-005 0.000122047 0.000137795 -4.72441e-005c0.00205906,0.00154724 0.00948819,0.0228425 0.0391811,0.11189 0.0241102,0.0722992 0.069063,0.109417 0.115996,0.121843 0.022189,0.00587402 0.0447087,0.00606299 0.0657087,0.00170079 0.0210433,-0.00437008 0.0406535,-0.0133661 0.0569724,-0.0258268 0.0329528,-0.0251614 0.0529646,-0.0641142 0.0467441,-0.108602l-0.0395315 0.0054685 0.0396142 -0.00554331c-0.00242913,-0.0173819 -0.0156929,-0.0305787 -0.0320157,-0.0337362 -0.00991339,-0.00254331 -0.0523425,-0.0138307 -0.0660512,-0.0241142 -0.00202362,-0.00151575 -0.00423228,-0.0250669 -0.00413386,-0.0530945l0 -3.93701e-006 0.00015748 0c3.93701e-006,-0.0010748 -3.54331e-005,-0.00214173 -0.000114173,-0.00319291 0.00026378,-0.0115591 0.00175197,-0.0228307 0.0049685,-0.0322992 0.00219291,-0.00646063 0.00491732,-0.0114134 0.00820866,-0.0135354 0.00311811,-0.00201181 0.00841339,-0.00251969 0.0165433,-0.000866142 0.00856299,0.00791339 0.0263937,0.0276535 0.0360118,0.0618504 0.00759449,0.027 0.0252362,0.049874 0.0472283,0.0658858 0.0175236,0.0127559 0.0380394,0.0213465 0.0585197,0.0242913 0.0226457,0.00326378 0.0456535,-3.93701e-005 0.0657677,-0.0115512 0.0173386,-0.0099252 0.031878,-0.0255276 0.0413898,-0.0477205 0.0161378,-0.0376614 0.0441417,-0.0355866 0.045126,-0.0355079l-1.1811e-005 0.000133858c0.0199606,0.00189764 0.0378976,-0.0112205 0.0425984,-0.0301063 0.00557087,-0.0167244 0.0146969,-0.0583819 -0.016878,-0.0925866 -0.00814567,-0.0088189 -0.0208937,-0.0474488 -0.0294213,-0.0900945 -0.00674409,-0.0337323 -0.00989764,-0.0672087 -0.00448819,-0.0858465 0.00273622,-0.00944488 0.00400394,-0.0195118 0.00400394,-0.0299606 0,-0.039374 -0.0177441,-0.0957756 -0.0387362,-0.14287 -0.0163819,-0.0367638 -0.0371181,-0.0697008 -0.0559173,-0.0882953 -0.0080748,-0.0254528 -0.0299213,-0.0773307 -0.0779528,-0.0969685l-0.0504173 -0.218472 -0.0389055 0.00890551 0.0389764 -0.00899606c-0.00223228,-0.00968504 -0.00781496,-0.0177283 -0.0152362,-0.0231969 -0.0176102,-0.015 -0.0570512,-0.0301102 -0.132949,0.0192283 -0.00805118,0.00523622 -0.0194134,0.0119882 -0.031311,0.019063 -0.0264016,0.0156929 -0.0555,0.0329961 -0.0805945,0.0537795 -0.0638268,0.0528583 -0.100209,0.120425 -0.0218701,0.215024 0.014063,0.0169961 0.039252,0.019374 0.056248,0.00531102 0.0169961,-0.014063 0.019374,-0.039252 0.00531102,-0.056248 -0.0370827,-0.0447795 -0.0194449,-0.0771102 0.011248,-0.102528 0.0205709,-0.0170354 0.0466339,-0.0325354 0.0702795,-0.0465906 0.0115197,-0.00685039 0.0224921,-0.0133701 0.0341299,-0.020937 0.0224488,-0.0145945 0.0287087,-0.0248504 0.030185,-0.0306102l0.0519016 0.224913c0.00276772,0.0176417 0.0171929,0.0318543 0.0357874,0.0335984l0.00373622 -0.0398268 -0.00359449 0.039689c0.0269173,0.00252362 0.0385354,0.0463504 0.0405354,0.0548228 0.00279921,0.0158031 0.014878,0.0284055 0.0304055,0.0319646 0.00215748,0.00352362 0.0134449,0.0280276 0.0271929,0.058874 0.0170984,0.0383543 0.0315472,0.0825157 0.0315472,0.110366 0,0.00376772 -0.000181102,0.00644488 -0.000562992,0.00777165 -0.00944094,0.0325197 -0.00622441,0.0794921 0.0026063,0.123657 0.0101811,0.0509094 0.0291496,0.101878 0.0451575,0.123681 -0.027315,0.00872441 -0.0609016,0.0293701 -0.0815709,0.0776063 -0.00206693,0.00482677 -0.00472047,0.00792913 -0.00763386,0.00959449 -0.00382677,0.00218898 -0.00908661,0.00269291 -0.0148307,0.00186614 -0.00789764,-0.00113386 -0.0159331,-0.00453543 -0.0228976,-0.0096063 -0.00822835,-0.00599213 -0.0146929,-0.0140472 -0.0172283,-0.0230669 -0.0174724,-0.0621457 -0.056311,-0.0973465 -0.0676614,-0.106579 -0.00425591,-0.00379921 -0.00939764,-0.00674409 -0.0152283,-0.00847638l-0.0113898 0.0383465 0.011252 -0.0382795c-0.0373425,-0.0110906 -0.0667205,-0.00633465 -0.0895276,0.00837402 -0.0200472,0.0129331 -0.0330197,0.0324764 -0.0407047,0.0551024 -0.0059685,0.0175748 -0.00864961,0.0373346 -0.00902756,0.0568937 -0.000129921,0.0012874 -0.000200787,0.00259449 -0.000204724,0.00391339l0.04 0.000153543 -0.0398425 0c-0.000188976,0.0504213 0.0189685,0.104217 0.0360079,0.117 0.015063,0.0112992 0.0403268,0.0211732 0.0612402,0.0280748 -0.00275591,0.0042126 -0.00638189,0.00801969 -0.0106299,0.0112638 -0.00698819,0.00533465 -0.0155236,0.00922047 -0.0247835,0.0111417 -0.00929921,0.00193307 -0.0192913,0.00184252 -0.0291417,-0.00076378 -0.0233268,-0.00617717 -0.0465118,-0.0271417 -0.060689,-0.0696535 -0.0513386,-0.153965 -0.0745787,-0.182929 -0.13613,-0.16387 -0.00138189,0.00030315 -0.00275984,0.000681102 -0.00413386,0.0011378l0.0126614 0.0379449 -0.0126575 -0.037811c-0.0113543,0.0037874 -0.0225748,0.00965748 -0.0360866,0.0167283 -0.0169449,0.00887008 -0.0384016,0.0201024 -0.0669252,0.0294331 -0.0488386,0.0159803 -0.0975827,-0.00347638 -0.0977205,-0.00352756z"/>
  <circle class="fil1" transform="matrix(-1.10056 -0.350835 -0.350835 1.10056 5.61033 2.76796)" r="0.0175787"/>
  <path class="fil0" d="M5.66544 2.81914c-0.0145827,0.00808661 -0.0317913,0.0114016 -0.0492441,0.00974409 -0.0169843,-0.00161024 -0.0342441,-0.00793307 -0.0494528,-0.019126 -0.0152874,-0.011252 -0.0264921,-0.025878 -0.0330748,-0.0416142 -0.00696063,-0.0166299 -0.00879134,-0.0346378 -0.00494094,-0.0514685l0.0194528 0.00445276 -0.0194961 -0.00446457c0.00141732,-0.00618504 0.00556299,-0.0110433 0.010878,-0.0135827 0.0145827,-0.00808661 0.0317913,-0.0114016 0.0492402,-0.00974409 0.0169882,0.00161024 0.034248,0.00793307 0.0494567,0.019126 0.0152874,0.011252 0.0264921,0.025878 0.0330748,0.0416142 0.00696063,0.0166299 0.00879134,0.0346378 0.00494094,0.0514685l-0.0194528 -0.00445276 0.0194961 0.00446457c-0.00141732,0.00618504 -0.00556299,0.0110433 -0.010878,0.0135827zm-0.0454961 -0.0299409c0.00640551,0.000606299 0.0126693,2.3622e-005 0.0183898,-0.00170472 -5.51181e-005,-0.00596457 -0.00137402,-0.0121299 -0.00387402,-0.0181024 -0.00387795,-0.00926772 -0.0105787,-0.0179606 -0.0197913,-0.0247402 -0.00929134,-0.00683858 -0.0196181,-0.010685 -0.0296142,-0.0116299 -0.00640551,-0.000606299 -0.0126693,-2.3622e-005 -0.0183858,0.00170472 5.51181e-005,0.00596457 0.00137402,0.0121299 0.00387402,0.0181024 0.00387795,0.00926772 0.0105787,0.0179606 0.0197913,0.0247402 0.00929134,0.00683858 0.0196181,0.010685 0.0296102,0.0116299z"/>
  <path class="fil1" d="M3.24339 2.49528c0.00115748,-0.000122047 0.00241339,-0.000377953 0.00388189,-0.000811024 -0.00129921,0.000244094 -0.00259055,0.000515748 -0.00388189,0.000811024zm-0.00182283 0.000448819c-0.0833465,0.0206732 -0.178323,0.16811 -0.199783,0.234531 -0.0117441,0.0363622 -0.070685,0.358961 -0.17576,0.321157 0.122524,-0.0684055 0.0834331,-0.314823 0.15598,-0.454311 0.0197953,-0.0380669 0.137382,-0.172913 0.208063,-0.16115 0.0209921,0.00701575 0.0592323,0.0114961 0.0522165,0.0324843 -0.00590551,0.0176772 -0.0229449,0.0285079 -0.0407165,0.0272874z"/>
  <path class="fil1" d="M3.69328 2.5489c-0.0131969,0.0608189 -0.0997953,0.524917 -0.181823,0.55935l-0.0175984 0.00398031 -3.14961e-005 -4.72441e-005 0.00951575 -0.0143504c0.0515512,-0.0714921 0.0993071,-0.483724 0.111091,-0.563307 0.0039685,-0.0217717 0.0248386,-0.0362047 0.0466102,-0.0322362 0.0217717,0.0039685 0.0362047,0.0248386 0.0322362,0.0466102z"/>
  <path class="fil1" d="M3.91133 2.86855c0.041689,0.229937 0.0431693,0.166976 0.0139094,0.403524 -0.0285827,-0.355409 -0.0571693,-0.0566575 -0.0139094,-0.403524z"/>
  <path class="fil1" d="M4.17387 2.9186c0.0452992,-0.00151181 0.0166142,-0.0571063 0.165386,0.056815l0.0242913 0.016622c-0.188835,-0.0900039 -0.0677598,-0.0159961 -0.215114,-0.0278701 -0.0423937,-0.00341339 -0.0762953,-0.0175354 -0.126209,-0.0478465 0.0959882,-0.0199843 0.103772,0.00387795 0.151646,0.00227953z"/>
  <path class="fil1" d="M4.75837 2.74332c-0.014185,0.102669 -0.182571,0.419244 -0.236547,0.507878 0.0355236,-0.0842283 0.0351929,-0.161193 0.0623937,-0.225217 0.0539449,-0.126957 0.133165,-0.142421 0.174154,-0.282661z"/>
  <path class="fil1" d="M4.87926 3.38607c-0.290921,-0.0266811 -0.152902,0.0226339 -0.336354,0.0209724 -0.0751339,-0.000677165 -0.0541339,0.00145276 -0.126303,-0.0158228 0.0555039,-0.0152598 0.173161,-0.0284016 0.212236,-0.0471417 0.113862,-0.0546102 0.102417,-0.039 0.250421,-0.0381535 0.0221339,0 0.0400748,0.0179409 0.0400748,0.0400748 0,0.0221299 -0.0179409,0.0400709 -0.0400748,0.0400709z"/>
  <path class="fil1" d="M5.06448 2.49643c0.00177953,-0.000444882 0.00102362,-0.000110236 0.00230709,-0.000838583 -0.0405315,-0.00879528 -0.151913,0.596457 -0.259724,0.529516 0.150555,-0.110012 0.067622,-0.555157 0.2435,-0.57578 0.0221339,0 0.0539921,-0.0151063 0.0539921,0.00702756 0,0.0221299 -0.0179449,0.0400748 -0.0400748,0.0400748z"/>
  <path class="fil1" d="M4.15831 3.57199c0.0153543,-0.092815 0.0806732,-0.149484 0.171098,-0.0827126 0.00968504,0.00714961 0.0360591,0.0183858 0.0497913,0.026315 -0.0835787,0.0450906 -0.115945,-0.0617953 -0.140831,0.0527835 0.00061811,0.0215157 -0.015937,0.0397913 -0.0375787,0.0411339 -0.0220906,0.00136614 -0.0411102,-0.0154291 -0.0424803,-0.0375197z"/>
  <path class="fil1" d="M3.91824 3.5996c0.00738583,-0.0914724 -0.0896575,-0.176098 -0.147382,-0.197701l-0.099563 -0.0445866c0.12013,0.0033622 0.32239,0.0667283 0.327059,0.244465 -0.000598425,0.022122 -0.0190197,0.0395709 -0.0411457,0.0389685 -0.022122,-0.000598425 -0.0395669,-0.0190236 -0.0389685,-0.0411457z"/>
  <path class="fil1" d="M3.17614 3.45113c0.0161535,-0.0723465 0.0711929,-0.217453 0.135465,-0.255 0.0706496,-0.0412756 0.111358,-0.0390433 0.201394,-0.0527874l2.3622e-005 7.08661e-005c0,0 -0.151063,0.0796378 -0.171311,0.0954606 -0.0445472,0.0348189 -0.0792559,0.171646 -0.0866772,0.226382 -0.00390157,0.0217835 -0.0247283,0.0362835 -0.0465118,0.0323819 -0.0217835,-0.00389764 -0.0362835,-0.0247244 -0.0323819,-0.0465079z"/>
  <path class="fil1" d="M3.3432 2.77696c-0.0205197,0.0512638 -0.0556299,0.121988 -0.153594,0.196157 -0.113016,0.0855669 -0.0775039,0.190862 -0.191161,0.277669l-1.5748e-005 -1.5748e-005c0.0634173,-0.127114 0.0584134,-0.23372 0.160878,-0.324827 0.0828425,-0.0736614 0.0849921,-0.157098 0.124524,-0.200043 0.211409,-0.229681 0.0915551,-0.0293701 0.0593701,0.0510591z"/>
  <path class="fil1" d="M2.44703 3.13246c0.0331457,-0.00757087 0.227161,-0.0135394 0.240732,0.0492992 0.0244173,0.113087 -0.0526693,0.300815 -0.10876,0.396445 0.0239331,-0.125724 0.049752,-0.237567 0.0474094,-0.36574 -0.0498543,-0.00365748 -0.0893976,-0.0233465 -0.158941,-0.00250787 -0.0214016,0.00564567 -0.0433228,-0.00712598 -0.0489685,-0.0285276 -0.00564567,-0.0214016 0.00712598,-0.0433268 0.0285276,-0.0489685z"/>
  <path class="fil1" d="M2.69659 3.76976c-0.412228,-0.162291 -0.231205,-0.0185512 -0.388028,-0.0300669l-0.0322008 -0.00843307c0.0249331,-0.0103307 0.0513031,-0.0183661 0.0728701,-0.0351693 0.135535,-0.10561 0.182984,-0.0577323 0.369594,-0.00333071 0.0212638,0.0061378 0.0335236,0.0283543 0.0273819,0.0496181 -0.00614173,0.0212638 -0.0283543,0.0335197 -0.0496181,0.0273819z"/>
  <path class="fil1" d="M2.5575 2.62019c0.135102,0.0114213 0.16828,0.0792874 0.133551,0.200531 -0.0592874,0.206976 0.106874,0.163531 0.0489213,0.274327l-1.5748e-005 0c-0.00474803,-0.0118228 -0.00993701,-0.0454055 -0.0145079,-0.0486575 -0.14848,-0.105547 -0.0941969,-0.174335 -0.0870276,-0.312972 -0.0303465,-0.0220945 -0.0414646,-0.0327047 -0.0847283,-0.0331654 -0.0221102,-0.00105512 -0.0391811,-0.0198307 -0.038126,-0.041937 0.00105118,-0.0221063 0.0198268,-0.0391772 0.0419331,-0.038126z"/>
  <path class="fil1" d="M4.44187 2.5132c0.000606299,0.0976654 0.0476181,0.0108858 -0.0013189,0.207697 -0.0116496,0.0468425 0.00227559,0.138331 -0.0248346,0.226122 -0.0209094,-0.0297953 -0.034252,-0.218004 -0.0305984,-0.245181 0.0222953,-0.165894 -0.00794882,-0.064248 -0.023374,-0.190657 0.000555118,-0.022126 0.0189449,-0.0396063 0.0410709,-0.0390512 0.0221299,0.000555118 0.0396102,0.0189449 0.0390551,0.0410709z"/>
  <path class="fil1" d="M4.39924 3.42371c-0.104047,-0.314661 -0.228862,0.0229213 -0.342374,-0.224177l-0.0322087 -0.0893937 -0.0168386 -0.0836063 0.0347638 0.076626c0.126539,0.21939 0.318047,-0.0399685 0.356657,0.320551z"/>
  <path class="fil1" d="M4.85057 3.69996c-0.0411693,0.131579 -0.0895276,0.0775039 -0.19011,0.17248 -0.0144409,0.0136339 -0.0329882,-0.0078622 -0.0268858,-0.0190079 0.122811,-0.224126 0.124362,-0.00273228 0.216996,-0.153472z"/>
  <path class="fil1" d="M5.05957 3.97322c0.00685433,0.0840079 -0.0885709,0.0992008 -0.154217,0.0652913l-0.0416457 -0.0175709c-0.0246457,-0.0160472 -0.0622953,-0.0404016 -0.11026,-0.0720709 0.088811,0.0327047 0.20337,0.00197638 0.211047,0.0637992 0.0758071,0.00993701 0.0860472,0.0231496 0.0950748,-0.0394488z"/>
  <path class="fil1" d="M5.0102 4.225c0.291965,-0.168094 0.189374,0.102941 0.366189,0.0779646 -0.0384291,0.0162913 -0.0875433,0.0086811 -0.0753937,0.00973228 -0.14224,-0.072374 -0.0336496,-0.0377756 -0.162972,-0.0964646 -0.0217677,-0.00988189 -0.0786575,0.00907874 -0.127823,0.00876772z"/>
  <path class="fil1" d="M2.19899 3.43602c-0.0967008,0.0234803 -0.10287,0.0306732 -0.130449,-0.0678346 0.0383465,0.0383031 0.0766142,0.0496772 0.130449,0.0678346z"/>
  <path class="fil1" d="M1.74677 3.70083c-0.0420866,0.00080315 -0.16363,-0.00283071 -0.190661,-0.0275827 -0.0332717,-0.0304606 -0.0549803,-0.0704134 -0.0789331,-0.108083 0.0235118,0.0210945 0.0666969,0.0646457 0.100122,0.0685551 0.0836693,0.00979134 0.0856378,0.0457717 0.169472,0.0671102z"/>
  <path class="fil1" d="M1.10844 3.38949c0.00358661,0.054311 0.00665748,0.136988 -0.0782717,0.0991417 0.0171378,-0.00240945 0.0591181,-0.070122 0.0782717,-0.0991417z"/>
  <path class="fil1" d="M1.9781 3.78952c0.132094,0.0881024 0.075374,0.133118 0.0876654,0.267165l0.00182283 0.0406772 -0.000783465 0.0400157c-0.0138504,-0.0667402 -0.0137362,-0.0535866 -0.0367165,-0.112063 -0.0622165,-0.158343 0.0663346,-0.110075 -0.0519882,-0.235795z"/>
  <path class="fil1" d="M2.43904 3.44861c0.0274606,0.0043622 0.0490512,-0.00614567 0.0771024,-0.0126339l0.0415866 0.035248 -0.062437 0.00338583c-0.0428622,-0.0320827 -0.0479606,-0.00502756 -0.056252,-0.026z"/>
  <path class="fil2" d="M2.45641 3.44861l0.00521654 0.00561811c0.00107087,0.000771654 0.0554291,0.0172677 0.0591378,0.0169961"/>
  <path class="fil1" d="M2.85819 3.31468c-0.059126,0.232354 -0.118587,0.131657 -0.149799,0.228087 -0.000102362,0.000318898 0.000161417,0.00122047 0.000224409,0.00150394 -0.0234055,-0.0430433 0.128394,-0.195228 0.149575,-0.229591z"/>
  <path class="fil1" d="M3.90875 2.96158c-0.024937,0.0650827 -0.0568228,0.0799173 -0.112693,0.122496 -0.0586693,-0.0101024 -0.0744134,0.0530039 -0.142988,0.0496929 0.0305787,-0.00640945 0.0413937,-0.0198701 0.0602638,-0.0452323 0.108173,-0.145374 0.108768,-0.00685827 0.195417,-0.126957z"/>
  <path class="fil1" d="M3.94702 2.812c-0.00475591,-0.0986102 0.0434528,-0.162409 0.139591,-0.121913 0.0479055,0.0201772 0.0973819,0.0132402 0.147402,0.0175551 -0.0499528,0.00668504 -0.0501457,0.0128937 -0.0949724,0.021122 -0.107366,0.0197087 -0.0714016,0.0177559 -0.134701,-0.0110276 -0.0302165,0.0321575 -0.0485945,0.0450669 -0.0573189,0.0942638z"/>
  <path class="fil1" d="M5.21673 2.74766c-0.00926378,-0.000322835 -0.0048622,-0.000173228 -0.0136811,-0.000456693 -0.0162008,0.00794882 -0.00665354,0.0332638 -0.0672756,0.0663976 -0.0206811,0.0113031 -0.0113071,0.0344134 -0.0308819,0.0752717 -0.163067,0.0498858 -0.0383583,0.0329646 -0.108539,0.0666693 -0.0174921,0.00840157 -0.0175551,0.00705118 -0.0544331,0.0112717 0.0194094,-0.00676772 0.0504685,-0.013315 0.0574921,-0.0371654 0.0325079,-0.110362 0.0240433,-0.011378 0.0573898,-0.0929567 0.0360787,-0.00857874 0.0212874,-0.0365197 0.0610827,-0.047374 0.0849331,-0.0231535 0.0612874,-0.0512165 0.0988465,-0.0416575z"/>
  <path class="fil1" d="M5.38544 2.74245c-0.00314961,0.126909 0.164083,0.130858 0.20735,0.157433l0.0512126 0.0368701c0.041315,0.0208937 0.0753661,0.0538622 0.110173,0.0839882l-0.132118 -0.0539528c-0.0876063,-0.0437638 -0.247843,-0.0953268 -0.236618,-0.224339z"/>
  <path class="fil1" d="M5.45328 2.62765c-0.00842913,0.0350512 -0.0192323,0.0406654 -0.0527598,0.0525866 -0.00680315,0.011622 -0.170598,0.227976 -0.0918701,0.0677913 0.0770118,-0.156681 0.12161,-0.0529134 0.14463,-0.120378zm-0.209228 0.230417l-0.00123228 0.000913386c0.0424843,-0.0414094 0.10911,-0.565362 0.00123228,-0.000913386z"/>
  <path class="fil1" d="M5.73505 2.90768c-0.0112323,0.14385 0.118024,0.0739331 0.0400079,0.255677 0.00351181,-0.0117008 0.0226772,-0.0857756 0.0116535,-0.0977992l9.84252e-005 0.000401575c-0.0402756,-0.0445945 -0.0632795,-0.0977598 -0.0517598,-0.15828z"/>
  <path class="fil1" d="M5.42719 2.95117c-0.00679528,0.0906811 0.0526417,0.0567756 0.00501575,0.145921 -0.00532283,0.00996457 0.0104921,0.0666181 0.012378,0.0854055 -0.0061378,-0.0259921 -0.0303465,-0.0728346 -0.0268386,-0.0897165 0.0237756,-0.114453 -0.00496457,-0.0723583 0.00944488,-0.14161z"/>
  <path class="fil1" d="M5.58025 2.98421c-0.076622,0.0785433 -0.0100394,0.0874409 -0.109575,0.191327 0.0680079,-0.0956102 0.00888976,-0.114205 0.109575,-0.191327z"/>
  <path class="fil1" d="M5.4011 2.89376c-0.0993937,0.118496 -0.110476,0.0627008 -0.126378,0.0869173 -0.0264961,0.0403661 -0.119236,0.041378 -0.170346,0.0411063l-0.0125236 -0.000535433 -0.0125236 -0.000511811c0.0135512,-0.000559055 0.167524,-0.0271102 0.169094,-0.0380433l-0.000724409 -0.00034252 -0.00140551 -0.000622047c0.110276,-0.0740354 0.0102402,0.0565669 0.154807,-0.0879685z"/>
  <path class="fil1" d="M5.69852 2.87116c7.87402e-006,-0.000228346 5.51181e-005,-0.0005 0.000114173,-0.000787402l-0.000114173 0.000787402zm0.000114173 -0.000787402c0.000307087,-0.00144882 0.00125984,-0.00363386 0.00276378,-0.00638976l-0.00217323 0.00235039 -0.000590551 0.00403937zm0.00276378 -0.00638976c0.0143819,-0.0263976 0.0787205,-0.105146 0.0988189,-0.091874 0.0676614,0.0446811 0.0337441,0.0324803 0.13311,0.0329567 -0.0760945,0.0080315 -0.0770079,0.0217402 -0.142827,-0.0115197 -0.0234331,0.000771654 -0.0742126,0.0543976 -0.0891024,0.070437zm-0.00217323 0.00235039l-1.1811e-005 1.1811e-005 1.9685e-005 -8.26772e-005 -7.87402e-006 7.08661e-005z"/>
  <path class="fil1" d="M5.65666 2.5825c0.123469,0.0933228 -0.0546732,0.0259882 0.167094,0.147776 -0.0843937,-0.0374567 -0.0999685,-0.0431969 -0.118134,-0.0597795 -0.0382756,-0.0349409 0.0369331,-0.0128583 -0.0489606,-0.0879961z"/>
  <path class="fil1" d="M2.09252 3.50911c-0.0517756,0.0849803 -0.0510512,0.0944291 -0.140205,0.0442756 0.0541969,-3.14961e-005 0.0892992,-0.0190472 0.140205,-0.0442756z"/>
  <path class="fil1" d="M4.37572 3.9042c-0.0153543,-0.092815 -0.0806732,-0.14948 -0.171098,-0.0827087 -0.00968504,0.00714567 -0.0360591,0.0183819 -0.0497874,0.026311 0.0835748,0.0450906 0.115941,-0.0617953 0.140827,0.0527874 -0.00061811,0.0215118 0.015937,0.0397874 0.0375787,0.0411299 0.0220906,0.00137008 0.0411102,-0.0154252 0.0424803,-0.0375197z"/>
  <path class="fil1" d="M3.30385 3.66931c-0.210354,-0.0192913 -0.110559,0.0163661 -0.243205,0.0151654 -0.0543268,-0.000492126 -0.0391457,0.00104724 -0.0913268,-0.0114449 0.0401339,-0.0110315 0.125209,-0.0205315 0.153461,-0.0340866 0.0823307,-0.0394843 0.0740551,-0.0281969 0.181071,-0.0275866 0.0160039,0 0.0289764,0.0129764 0.0289764,0.0289764 0,0.0160039 -0.0129724,0.0289764 -0.0289764,0.0289764z"/>
  <path class="fil1" d="M3.19698 3.87742c-0.178445,0.113043 -0.0776181,0.0804173 -0.183457,0.160386 -0.0433465,0.0327559 -0.030374,0.0247126 -0.0793425,0.0466496 0.0250669,-0.0332283 0.0866811,-0.0926535 0.100803,-0.12063 0.0411457,-0.0815118 0.0414764,-0.0675197 0.126642,-0.132323 0.0126811,-0.00976378 0.030874,-0.00739764 0.0406378,0.00528346 0.00976378,0.0126772 0.00739764,0.030874 -0.00528346,0.0406339z"/>
  <path class="fil1" d="M2.96994 4.14001c0.122012,-0.00185039 0.0629606,0.0142953 0.139417,0.0194449 0.031315,0.00211024 0.0225,0.00232677 0.0531063,-0.00257087 -0.0226299,-0.00812205 -0.0712126,-0.0173386 -0.0868898,-0.0263898 -0.0456811,-0.0263701 -0.0414134,-0.0195039 -0.103079,-0.0238622 -0.00922047,-0.000704724 -0.0172638,0.00619685 -0.0179685,0.0154134 -0.000704724,0.00921654 0.00619685,0.0172598 0.0154134,0.0179646z"/>
  <path class="fil1" d="M5.46504 2.37881c0.0521614,0.145717 -0.0599724,-0.0082126 0.0588228,0.215169 -0.0500748,-0.0775669 -0.0599646,-0.0909016 -0.0660748,-0.114728 -0.012874,-0.0502008 0.0379409,0.00947638 0.00725197,-0.100441z"/>
  <path class="fil1" d="M5.50148 2.32079c0.0521614,0.145717 -0.0599724,-0.0082126 0.0588268,0.215169 -0.0500787,-0.0775669 -0.0599685,-0.0909016 -0.0660787,-0.114728 -0.012874,-0.0502008 0.0379409,0.00947638 0.00725197,-0.100441z"/>
  <path class="fil1" d="M5.57001 2.28017c0.0167874,0.0459291 0.028,0.220378 0.0289173,0.27102 -0.006,-0.0439685 -0.0221496,-0.0755118 -0.0266457,-0.108988 -0.00891732,-0.0663858 0.013626,-0.0936024 -0.00227165,-0.162031z"/>
  <path class="fil0" d="M4.50672 3.53018c-0.0203622,-0.00845276 -0.0437323,0.00120079 -0.052185,0.021563 -0.00845276,0.0203622 0.00120079,0.0437323 0.021563,0.052185 0.000519685,0.000216535 0.17928,0.0775433 0.373236,-0.0230472 0.0195866,-0.0100945 0.0272835,-0.0341614 0.017189,-0.053748 -0.0100945,-0.0195866 -0.0341614,-0.0272835 -0.053748,-0.017189 -0.160496,0.0832362 -0.305634,0.0204094 -0.306055,0.0202362z"/>
 </g>
 <rect class="fil2" width="6.82666" height="6.82666"/>
</svg>
