<?xml version="1.0" encoding="UTF-8"?>
<!DOCTYPE svg PUBLIC "-//W3C//DTD SVG 1.1//EN" "http://www.w3.org/Graphics/SVG/1.1/DTD/svg11.dtd">
<!-- Creator: CorelDRAW -->
<svg xmlns="http://www.w3.org/2000/svg" xml:space="preserve" width="6.82666in" height="6.82666in" style="shape-rendering:geometricPrecision; text-rendering:geometricPrecision; image-rendering:optimizeQuality; fill-rule:evenodd; clip-rule:evenodd"
viewBox="0 0 6.82666 6.82666"
 xmlns:xlink="http://www.w3.org/1999/xlink">
 <defs>
  <style type="text/css">
   <![CDATA[
    .fil2 {fill:none}
    .fil1 {fill:#212121}
    .fil0 {fill:#212121;fill-rule:nonzero}
   ]]>
  </style>
 </defs>
 <g id="Layer_x0020_1">
  <metadata id="CorelCorpID_0Corel-Layer"/>
  <path class="fil0" d="M5.04841 2.51463c0.00208268,-0.000862205 0.00425197,-0.00155118 0.00649213,-0.00205512 0.00101575,-0.000350394 0.00244882,-0.000917323 0.00405512,-0.00155906 0.0405866,-0.0161969 0.131098,-0.052315 0.291681,0.148772 0.0765197,0.0958268 0.133421,0.133764 0.174299,0.161016 0.0618976,0.0412638 0.0945669,0.0630512 0.106492,0.170961 0.00281102,0.0254449 0.0217205,0.0399724 0.0469803,0.0447756 0.017378,0.00330315 0.037378,0.00273228 0.0580787,-0.00143307 0.0215748,-0.00433858 0.0437835,-0.0125866 0.0646299,-0.0244252 0.0576417,-0.0327402 0.103028,-0.0933937 0.0900079,-0.174839 -0.0149094,-0.093252 -0.0485315,-0.166571 -0.0786299,-0.23222 -0.0254291,-0.0554606 -0.0485512,-0.105882 -0.0585669,-0.161413 -0.00858661,-0.0475945 -0.00305906,-0.0855433 0.00222835,-0.121835 0.00677559,-0.0464764 0.0130433,-0.0895039 -0.0267717,-0.143421 -0.0204055,-0.0276339 -0.0491693,-0.0502283 -0.076622,-0.0717874 -0.0737047,-0.0578819 -0.139988,-0.109941 -0.100866,-0.240417 0.0296535,-0.0989016 0.0135787,-0.237512 -0.0250118,-0.327063 -0.0111772,-0.025937 -0.0237638,-0.0467008 -0.037,-0.0596496 -0.00833858,-0.00815354 -0.0160354,-0.0124882 -0.0223622,-0.0115827 -0.00940551,0.00134646 -0.0210945,0.0107992 -0.035189,0.0305669 -0.0336969,0.0472638 -0.0435984,0.0791535 -0.0507283,0.102142 -0.0159213,0.051311 -0.0230866,0.0743228 -0.110677,0.0963189 -0.00292913,0.000996063 -0.00601181,0.00165748 -0.00920079,0.00194882l-0.000492126 4.33071e-005 -0.000232283 1.5748e-005 -0.00076378 5.11811e-005 -0.000275591 1.1811e-005 -0.0013622 5.11811e-005c-0.0513425,0.00371654 -1.03413,0.0813268 -1.65443,0.641386 -0.270268,0.244051 -0.828146,0.145524 -1.29258,0.0635039 -0.239598,-0.042311 -0.453543,-0.0800984 -0.580008,-0.0627283 -0.0485709,0.00667323 -0.109795,0.0199055 -0.172933,0.0458976 -0.0624291,0.0257008 -0.126843,0.0639764 -0.182665,0.120894 -0.115102,0.117346 -0.155236,0.240366 -0.153232,0.366953 0.00206693,0.130366 0.0482913,0.267142 0.104268,0.406063 0.0206575,0.0512756 0.0413386,0.103913 0.059815,0.161831 0.0185157,0.0580551 0.034189,0.119638 0.0442165,0.187083 0.0122126,0.0821654 0.0225906,0.170949 0.0195906,0.26515 -0.0029685,0.0932008 -0.0190984,0.190374 -0.0595079,0.289248 -0.00337795,0.0789134 -0.0318661,0.797118 0.0437638,0.95278l0.098122 0.0705276 8.66142e-005 -0.000122047c0.0178543,0.0128346 0.0219843,0.0376614 0.00930709,0.0555787l-0.0561417 0.0973268 0.242925 0.00116142 -0.0846339 -0.186406 -6.29921e-005 2.75591e-005c-0.00270079,-0.00595276 -0.00382283,-0.0122205 -0.00354331,-0.0183346l-0.0332874 -0.860543 -0.000129921 3.93701e-006c-0.000133858,-0.0035 0.000188976,-0.00691339 0.000905512,-0.0101811 0.00564961,-0.030874 0.0960669,-0.47285 0.715539,-0.841717l-0.000106299 -0.000177165c0.0140787,-0.00838189 0.0312283,-0.00711811 0.0437559,0.00184252 0.0486575,0.0289764 0.733441,0.428043 1.20558,0.208717l-3.14961e-005 -6.69291e-005c0.0200315,-0.00930709 0.0438228,-0.00061811 0.0531299,0.0194134 0.00266535,0.00573228 0.00385433,0.0117795 0.00372441,0.0177008 0.003,0.0570118 0.0498425,0.951398 0.0451654,1.14317 -0.00220079,0.0903465 -0.0220236,0.139421 -0.038248,0.179587 -0.0167244,0.0414173 -0.0284213,0.0703819 0.00605118,0.148524 0.00524016,0.011878 0.0261457,0.0228583 0.044189,0.0323268 0.0233425,0.012252 0.0439961,0.0230984 0.0551142,0.0443189l0.000145669 -7.87402e-005c0.00794882,0.0151969 0.00516929,0.0331614 -0.00563386,0.0452323 -0.0121457,0.0161732 -0.0266693,0.0399094 -0.0394882,0.0621024l0.244988 -0.00309449 -0.137031 -0.262307 -0.000145669 7.48031e-005c-0.00427559,-0.00818898 -0.00543307,-0.0171772 -0.00390945,-0.0256142l0.0855827 -0.874866 0.039689 0.00375197 -0.039811 -0.0038937c0.000704724,-0.00722441 0.00329528,-0.013811 0.00722835,-0.0193228 0.027374,-0.0467717 0.369256,-0.633846 0.338453,-0.727799l-3.54331e-005 1.1811e-005 -1.5748e-005 -4.72441e-005 -0.000122047 3.93701e-005c-0.000444882,-0.00133465 -0.000814961,-0.00267717 -0.00111417,-0.00402362 -0.00196063,-0.00677559 -0.00324016,-0.0137835 -0.00387402,-0.0209921 -0.00648031,-0.0734803 0.0535866,-0.218244 0.136138,-0.349925 0.0825984,-0.131756 0.189756,-0.254024 0.277988,-0.283531l-1.5748e-005 -5.11811e-005 4.72441e-005 -1.5748e-005 -3.93701e-005 -0.00011811c0.0011378,-0.000377953 0.00228346,-0.000704724 0.00342913,-0.000976378 0.0103701,-0.00323228 0.0204055,-0.0053189 0.0300315,-0.00616929 0.074063,-0.00653543 0.131992,-0.063815 0.189591,-0.120768 0.0549488,-0.0543346 0.109654,-0.108425 0.184031,-0.131327zm0.0399252 0.0704488c-0.00402362,0.0016063 -0.00762992,0.00303937 -0.0110551,0.00414961 -0.000818898,0.000295276 -0.00165354,0.000570866 -0.00250394,0.000814961l-1.5748e-005 -5.51181e-005 -0.00138583 0.000370079 -2.3622e-005 -9.05512e-005c-0.0560669,0.0166811 -0.104445,0.0645157 -0.153035,0.112563 -0.0678307,0.0670748 -0.136051,0.134528 -0.238654,0.143579 -0.00416142,0.000366142 -0.00837795,0.00119685 -0.0126299,0.00246063 -0.000787402,0.000318898 -0.00159055,0.00061811 -0.00240551,0.000889764l-0.0126496 -0.0379449 0.0125 0.037811c-0.069315,0.0231063 -0.161327,0.131626 -0.235626,0.25015 -0.0743898,0.118665 -0.128992,0.243783 -0.123957,0.300862 0.000188976,0.00212992 0.000413386,0.00385827 0.000688976,0.00515748l0.000511811 0.00143307 -0.0379488 0.0126496 0.037811 -0.0125c0.0412323,0.123689 -0.299539,0.714736 -0.342626,0.788697l-0.0839134 0.857795 0.159839 0.305969c0.00395276,0.00611024 0.00628346,0.0133701 0.00638189,0.0211811 0.000275591,0.0220866 -0.0174055,0.0402244 -0.0394921,0.0405l-0.000503937 -0.0399961 0.000468504 0.0398425 -0.374626 0.00473228c-0.00752362,0.000767717 -0.0153543,-0.000586614 -0.0225591,-0.00435433 -0.0195748,-0.0102362 -0.0271417,-0.0344094 -0.0169055,-0.0539843l0.000145669 7.48031e-005c0.000484252,-0.000933071 0.0297795,-0.0571614 0.0583268,-0.102067l-0.00217717 -0.00112598c-0.0296732,-0.0155748 -0.064063,-0.0336299 -0.0804409,-0.0707598 -0.0480118,-0.108823 -0.0311299,-0.150622 -0.00698819,-0.210398 0.0138583,-0.0343031 0.0307835,-0.0762165 0.032626,-0.151776 0.00402756,-0.165236 -0.031748,-0.877189 -0.0423858,-1.08367 -0.47124,0.173579 -1.0885,-0.156098 -1.20849,-0.224524 -0.559827,0.341244 -0.649157,0.732346 -0.657106,0.77315l0.0329173 0.851031 0.106169 0.233835c0.00300394,0.00564567 0.00468898,0.0120984 0.00465748,0.0189409 -0.000106299,0.0220906 -0.0181024,0.0399134 -0.0401929,0.0398071l0 -0.00015748 -0.370224 -0.00177165c-0.0078622,0.000669291 -0.0159961,-0.000968504 -0.0233465,-0.00520866 -0.0191339,-0.0110354 -0.0256969,-0.0355039 -0.0146614,-0.0546378l0.000153543 8.66142e-005 0.0742441 -0.128709 -0.0735709 -0.052878c-0.00572835,-0.0033937 -0.010689,-0.00826378 -0.014248,-0.0144449l0.0346654 -0.0199567 -0.0345315 0.0198425c-0.0933071,-0.162067 -0.060374,-0.951622 -0.0579449,-1.00703 -0.000204724,-0.00561024 0.000779528,-0.0113583 0.00309055,-0.016878l7.08661e-005 2.75591e-005c0.0382717,-0.0913858 0.0534331,-0.181272 0.0561772,-0.267433 0.00277559,-0.0872244 -0.00722441,-0.172055 -0.0189685,-0.251087 -0.00946457,-0.063685 -0.0240039,-0.121012 -0.0410906,-0.174579 -0.0171339,-0.0537087 -0.0374843,-0.105437 -0.0579409,-0.156209 -0.0589331,-0.14626 -0.107622,-0.291311 -0.10989,-0.434496 -0.00233071,-0.146972 0.0437756,-0.289295 0.176043,-0.424142 0.0642283,-0.0654882 0.137941,-0.109358 0.209224,-0.138705 0.0705827,-0.0290591 0.138697,-0.0438031 0.192626,-0.0512126 0.139173,-0.0191142 0.358614,0.0196417 0.604378,0.0630433 0.447055,0.0789528 0.984059,0.173791 1.22539,-0.0441339 0.637012,-0.575138 1.63914,-0.657047 1.70141,-0.661634 0.0435276,-0.0111024 0.0465709,-0.0208504 0.0532126,-0.0422559 0.00874803,-0.0282008 0.0208937,-0.0673228 0.0619803,-0.124953 0.0279646,-0.0392165 0.0582087,-0.0589803 0.088937,-0.063378 0.0331142,-0.00473622 0.0631535,0.00795276 0.0892362,0.0334567 0.0211811,0.0207165 0.0397323,0.0502756 0.0548189,0.0852795 0.0446811,0.103685 0.0629803,0.265201 0.0281299,0.381433 -0.0235197,0.0784488 0.0225039,0.114602 0.073685,0.154795 0.0313858,0.0246496 0.0642717,0.0504764 0.0913071,0.0870945 0.0594961,0.0805669 0.0509764,0.139024 0.0417717,0.202177 -0.0044252,0.030378 -0.00905118,0.0621457 -0.00285039,0.0965197 0.00819685,0.0454488 0.0293583,0.0915906 0.0526299,0.14235 0.0322402,0.070315 0.0682441,0.148839 0.084874,0.252843 0.0192835,0.120626 -0.0460984,0.209417 -0.129378,0.25672 -0.0280945,0.0159567 -0.0584803,0.0271575 -0.0883858,0.0331732 -0.0307835,0.00619291 -0.0612008,0.00691732 -0.0883858,0.00174803 -0.0595157,-0.0113189 -0.104354,-0.0482756 -0.111673,-0.114469 -0.00781102,-0.0706929 -0.029811,-0.0853622 -0.0714921,-0.11315 -0.0450394,-0.0300276 -0.107728,-0.0718228 -0.192425,-0.17789 -0.123614,-0.154795 -0.176217,-0.133807 -0.199799,-0.124394zm-0.0246417 -0.0334409l0 -3.93701e-006 -7.87402e-006 -2.3622e-005 7.87402e-006 2.75591e-005z"/>
  <path class="fil1" d="M5.53244 2.1942c0.0188307,-0.0108701 0.0514055,0.0102992 0.0727559,0.0472874 0.0213543,0.0369803 0.0234016,0.0757795 0.00457087,0.0866535 -0.0188268,0.0108661 -0.0514055,-0.0103031 -0.0727559,-0.0472913 -0.0213543,-0.0369803 -0.0234016,-0.0757795 -0.00457087,-0.0866496z"/>
  <path class="fil0" d="M2.10962 2.33725c0.00862992,-0.0202795 -0.000814961,-0.0437165 -0.0210945,-0.0523465 -0.0202795,-0.00862992 -0.0437165,0.000814961 -0.0523465,0.0210945 -0.109016,0.255114 -0.0553268,0.513689 -0.00415748,0.760138 0.0432362,0.208244 0.0845866,0.407378 0.0172638,0.577154 -0.00811024,0.0204488 0.0018937,0.0436102 0.0223425,0.0517205 0.0204488,0.00811024 0.0436102,-0.0018937 0.0517205,-0.0223425 0.0762087,-0.192181 0.0325,-0.402669 -0.0132008,-0.622783 -0.0486772,-0.234445 -0.099752,-0.480429 -0.000527559,-0.712634z"/>
  <path class="fil0" d="M1.86165 3.83982c0.00189764,0.0219173 0.0212087,0.0381496 0.043126,0.036252 0.0219173,-0.00189764 0.0381496,-0.0212087 0.036252,-0.043126 -0.00671654,-0.0746535 -0.0247717,-0.152744 -0.0369291,-0.20537 -0.00282677,-0.0122283 -0.00531496,-0.0229843 -0.00747244,-0.033063 -0.0309685,-0.1445 -0.0754016,-0.451161 -0.0755827,-0.751315 -0.00011811,-0.197102 0.0187205,-0.390799 0.0729094,-0.531846 0.00785039,-0.0205354 -0.00243307,-0.0435591 -0.0229685,-0.0514094 -0.0205354,-0.00785039 -0.0435591,0.00243307 -0.0514094,0.0229685 -0.0581299,0.151307 -0.0783386,0.354756 -0.0782165,0.560287 0.000185039,0.30715 0.0455354,0.620398 0.0771417,0.767874 0.00183858,0.00859449 0.00462598,0.0206339 0.0077874,0.034315 0.0117756,0.0509646 0.0292559,0.126591 0.0353622,0.194433z"/>
  <path class="fil0" d="M2.30575 3.48749c0.00569291,0.021315 0.0275906,0.0339764 0.0489055,0.0282835 0.021315,-0.00569291 0.0339764,-0.0275906 0.0282835,-0.0489055 -0.0561417,-0.208713 -0.0812835,-0.384705 -0.0796732,-0.553299 0.00150787,-0.158043 0.0265709,-0.310807 0.0716614,-0.479008 0.0560709,0.0066378 0.149201,0.0153543 0.231165,0.0230276 0.0363031,0.00339764 0.0703031,0.00658268 0.0983071,0.00935827 -0.0698937,0.199717 -0.108882,0.389642 -0.14624,0.571654 -0.0351969,0.1715 -0.0689409,0.335874 -0.125732,0.492591 -0.00750787,0.0207087 0.00319685,0.0435866 0.0239055,0.0510945 0.0207087,0.00750787 0.0435866,-0.00319685 0.0510945,-0.0239055 0.0586772,-0.161913 0.0930276,-0.329252 0.128858,-0.503843 0.0395591,-0.192732 0.0809685,-0.394465 0.159,-0.604724 0.00182283,-0.00382283 0.00306299,-0.00800394 0.00359843,-0.0124409 0.0026378,-0.0219291 -0.0130039,-0.0418543 -0.0349331,-0.0444921l-0.00477953 0.0397126 0.00468898 -0.039689c-0.0222559,-0.00267717 -0.0827205,-0.00834252 -0.150579,-0.0146929 -0.0994528,-0.00930709 -0.215606,-0.020185 -0.258382,-0.0266575 -0.0207953,-0.0049685 -0.0419764,0.00734646 -0.0477913,0.0281142l7.48031e-005 1.9685e-005c-0.0525827,0.187728 -0.0819213,0.35665 -0.0836024,0.53326 -0.00168504,0.176437 0.0242441,0.359201 0.0821693,0.574543z"/>
  <path class="fil0" d="M2.65614 2.95359c-0.00224016,-0.0219173 -0.0218346,-0.0378661 -0.043752,-0.035626 -0.0219173,0.00224016 -0.0378661,0.0218346 -0.035626,0.043752 0.0121929,0.115217 0.0310039,0.249331 0.0579606,0.384882 0.0222362,0.111799 0.0501142,0.225283 0.0845276,0.331142 0.00681496,0.0209685 0.0293425,0.0324409 0.050311,0.025626 0.0209685,-0.00681496 0.0324409,-0.0293425 0.025626,-0.050311 -0.0332323,-0.102228 -0.060311,-0.212594 -0.0820236,-0.321772 -0.0266811,-0.134165 -0.0451575,-0.265531 -0.0570236,-0.377693zm0.186535 0.760579c0.00577953,0.0212244 0.0276811,0.033748 0.0489055,0.0279685 0.0212244,-0.00577953 0.033748,-0.0276811 0.0279685,-0.0489055 -0.0707402,-0.257469 -0.0315827,-0.458976 0.00484252,-0.646429 0.0394961,-0.203248 0.0759528,-0.390862 -0.0223937,-0.618787 -0.0087126,-0.0202795 -0.0322205,-0.0296535 -0.0525,-0.0209409 -0.0202795,0.0087126 -0.0296535,0.0322205 -0.0209409,0.0525 0.0886614,0.205476 0.0544528,0.381524 0.0173937,0.572228 -0.0380827,0.195988 -0.0790276,0.406669 -0.00327559,0.682366z"/>
  <path class="fil0" d="M3.16578 3.71496c0.000409449,-0.0878071 0.0122795,-0.208154 0.0286417,-0.332673 0.0332717,-0.253169 0.0853898,-0.525748 0.0965984,-0.571705 0.0041063,-0.0168425 0.0163898,-0.0533386 0.0330866,-0.102961 0.0230512,-0.0684961 0.0546929,-0.162528 0.0834764,-0.25948 -0.0141142,0.0045748 -0.0284843,0.00874803 -0.0430906,0.0125394 -0.0663937,0.145476 -0.173236,0.419157 -0.247098,0.70311 -0.0482835,0.18561 -0.0823228,0.375047 -0.0812717,0.534362 0.0235512,0.00417323 0.0478661,0.00785827 0.0729134,0.0109764 0.0191535,0.00238189 0.0380906,0.00434252 0.0567441,0.00583071zm0.107705 -0.322358c-0.0185551,0.141209 -0.0312047,0.276047 -0.0272126,0.359819 0.00026378,0.00214961 0.000362205,0.00435039 0.000271654,0.00658661 -0.000897638,0.0220709 -0.0195276,0.0392362 -0.0415984,0.0383386l3.93701e-006 -0.000129921c-0.036248,-0.00147638 -0.0714724,-0.0044685 -0.105598,-0.00870866 -0.0346417,-0.00431102 -0.0703346,-0.0102323 -0.106602,-0.0174331 -0.0194685,-0.00204331 -0.0349882,-0.0181339 -0.035748,-0.0382677l0.0399724 -0.00151181 -0.0398425 0.00140551c-0.00658268,-0.174083 0.0298465,-0.384287 0.0830748,-0.588909 0.0776575,-0.298547 0.191453,-0.586583 0.258571,-0.730906 0.00445276,-0.0122913 0.0148268,-0.0221575 0.0285,-0.0253583l0.00912205 0.0389449 -0.00906299 -0.0389055c0.0224646,-0.00525984 0.0440669,-0.0113661 0.0646654,-0.0183858 0.0198268,-0.00675197 0.0391496,-0.0145433 0.0578858,-0.023437 0.00856299,-0.00437795 0.0187244,-0.00570472 0.0287323,-0.00297244 0.0213071,0.00581496 0.0338661,0.027815 0.0280512,0.049122l-0.00015748 -4.33071e-005c-0.0344213,0.126067 -0.0775039,0.254091 -0.106783,0.341087 -0.0161102,0.047874 -0.0279606,0.0830906 -0.0312047,0.0963937 -0.0109724,0.0449882 -0.0621575,0.313047 -0.0950394,0.563272z"/>
  <path class="fil0" d="M1.89175 3.85281c0.0216575,0.0039685 0.0424409,-0.010374 0.0464094,-0.0320315 0.0039685,-0.0216575 -0.010374,-0.0424409 -0.0320315,-0.0464094 -0.243563,-0.0446181 -0.318425,-0.389484 -0.388161,-0.710764 -0.044752,-0.206201 -0.0875472,-0.40326 -0.174268,-0.520642 0.0161732,-0.0200866 0.0334016,-0.0382913 0.0513504,-0.0547677 0.0146378,-0.0134331 0.0297244,-0.0256929 0.0450906,-0.036874 0.0314055,0.0826575 0.0735984,0.178429 0.11702,0.271299 0.0871811,0.186445 0.179713,0.361791 0.199244,0.394508 0.0113031,0.0188976 0.0357913,0.0250551 0.054689,0.013752 0.0188976,-0.0113031 0.0250551,-0.0357913 0.013752,-0.054689 -0.0190236,-0.0318622 -0.109622,-0.203669 -0.195496,-0.387319 -0.0503937,-0.10778 -0.0990591,-0.219445 -0.130327,-0.308713 -0.000933071,-0.00356299 -0.00237402,-0.00705118 -0.00435433,-0.0103701 -0.0113189,-0.0189685 -0.035878,-0.0251732 -0.0548465,-0.0138543l0.0204961 0.0343504 -0.0204685 -0.0342205c-0.0340315,0.0203031 -0.0674252,0.0445276 -0.0988622,0.0733819 -0.0279055,0.0256102 -0.0543976,0.0549921 -0.0785787,0.0886535 -0.012563,0.0150039 -0.0125315,0.0373504 0.000909449,0.0523465l0.000122047 -0.000110236c0.0866654,0.0967244 0.130441,0.29839 0.176402,0.510142 0.0751732,0.346339 0.155874,0.718102 0.451909,0.772331z"/>
  <path class="fil0" d="M1.64583 4.47506c0.0216575,0.0039685 0.0424409,-0.010374 0.0464094,-0.0320315 0.0039685,-0.0216575 -0.010374,-0.0424409 -0.0320315,-0.0464094 -0.0736378,-0.0137283 -0.0956732,-0.0941693 -0.116248,-0.169287 -0.0261969,-0.0956575 -0.0506654,-0.184988 -0.157189,-0.190748 -0.0220039,-0.00111811 -0.0407559,0.0158071 -0.041874,0.037811 -0.00111811,0.0220039 0.0158071,0.0407559 0.037811,0.041874 0.0489488,0.00264567 0.0660591,0.0651142 0.084378,0.132 0.0269646,0.0984488 0.0558386,0.203878 0.178744,0.226791z"/>
  <path class="fil0" d="M1.40235 3.51614c-0.0156181,-0.0155315 -0.040874,-0.0154646 -0.0564055,0.000153543 -0.0155315,0.0156181 -0.0154646,0.040874 0.000153543,0.0564055 0.0454567,0.0454252 0.0831929,0.14289 0.122138,0.243508 0.0568622,0.146886 0.11611,0.299933 0.221343,0.347457 0.0201024,0.00905906 0.043752,0.000102362 0.052811,-0.02 0.00905906,-0.0201024 0.000102362,-0.043752 -0.02,-0.052811 -0.0755315,-0.0341102 -0.128724,-0.171516 -0.179776,-0.303394 -0.0420551,-0.10865 -0.0828031,-0.213898 -0.140264,-0.271319z"/>
  <path class="fil0" d="M1.62712 4.79777c-0.041189,0.0156378 -0.0806299,0.0300748 -0.116252,0.0427598 -0.0477559,0.0170039 -0.0887559,0.0309016 -0.11802,0.0403898 0.00120866,0.0179961 0.00251181,0.0350472 0.0039252,0.0509685 0.000917323,0.0103465 0.00190551,0.0205709 0.0029685,0.0306457 0.0384606,-0.00491732 0.0777756,-0.0106181 0.11724,-0.0171772 0.0382795,-0.00636614 0.0768189,-0.0135 0.11502,-0.0214685l-0.00488189 -0.126118zm-0.142811 -0.0325551c0.0490866,-0.0174803 0.105508,-0.0383189 0.163642,-0.0610354 0.00467323,-0.00217323 0.00983465,-0.00347244 0.0153031,-0.00368504 0.0220709,-0.000854331 0.0406614,0.0163504 0.0415157,0.0384213l-0.0399685 0.00154724 0.0398425 -0.00140551 0.00820079 0.211945c0.00245276,0.0201811 -0.0107638,0.0393189 -0.0310236,0.0438228l-0.00868898 -0.0390433 0.00859449 0.0389055c-0.0513543,0.0114252 -0.102335,0.0211732 -0.151933,0.0294173 -0.0550197,0.00914567 -0.108217,0.0165276 -0.158335,0.0223701l-0.00145276 0.000220472c-0.0219055,0.00285827 -0.0419843,-0.0125827 -0.0448425,-0.0344882l0.0396654 -0.00517717 -0.0395315 0.00515748c-0.00294882,-0.0226142 -0.00557874,-0.0472402 -0.00790157,-0.0734252 -0.00243307,-0.0274016 -0.00441339,-0.0546142 -0.00598819,-0.0814646 -0.00248425,-0.0191024 0.00916142,-0.0377441 0.0282126,-0.0434409l0.0114606 0.0383228 -0.0114055 -0.0382795c0.0254646,-0.00761417 0.0782717,-0.0250551 0.144634,-0.048685z"/>
  <path class="fil0" d="M4.24251 1.90226c-0.00940551,-0.0199331 -0.0331929,-0.0284685 -0.053126,-0.019063 -0.0199331,0.00940551 -0.0284685,0.0331929 -0.019063,0.053126 0.0403386,0.0856929 0.0841457,0.201024 0.123933,0.314937 0.0672598,0.192602 0.122705,0.379709 0.131315,0.415713 0.00269291,0.0112638 0.00768504,0.0457598 0.0144606,0.0926772 0.00690157,0.0477638 0.0156732,0.108441 0.0269134,0.176181 0.00353543,0.0217441 0.0240354,0.0365039 0.0457795,0.0329685 0.0217441,-0.00353543 0.0365039,-0.0240354 0.0329685,-0.0457795 -0.0105433,-0.0635512 -0.0195276,-0.125701 -0.0265984,-0.174622 -0.00691732,-0.0478937 -0.0120157,-0.083126 -0.0160197,-0.0998661 -0.00894488,-0.0374016 -0.0655669,-0.228984 -0.133504,-0.423524 -0.040689,-0.116492 -0.0855669,-0.234606 -0.127059,-0.322748zm0.343098 0.941276c0.0093189,0.0200197 0.0331063,0.0286969 0.053126,0.019378 0.0200197,-0.0093189 0.0286969,-0.0331063 0.019378,-0.053126 -0.197591,-0.423606 -0.0949134,-0.601055 -0.018252,-0.733528 0.0617283,-0.106673 0.109315,-0.188917 0.0200197,-0.324488 -0.0120787,-0.018378 -0.0367756,-0.0234843 -0.0551535,-0.0114055 -0.018378,0.0120787 -0.0234843,0.0367756 -0.0114055,0.0551535 0.0621654,0.094378 0.0252992,0.158098 -0.0225236,0.24074 -0.0856181,0.147953 -0.200291,0.346126 0.014811,0.807276z"/>
  <path class="fil0" d="M4.03293 2.04549c0.029,0.164004 0.0574331,0.372004 0.082248,0.575965 0.0440945,0.362433 0.077248,0.715433 0.081689,0.784724 0.00147638,0.0229882 0.00238976,0.0783465 0.00347244,0.154201 0.00372047,-0.00970472 0.00718898,-0.019122 0.0103701,-0.0282008 0.0172953,-0.0493465 0.0262795,-0.0858504 0.0216299,-0.0998031 -0.00695669,-0.0208701 -0.00706693,-0.0474764 -0.00151969,-0.0779646 0.00484252,-0.0265866 0.0138661,-0.0568346 0.0261929,-0.0891024 -0.00245276,-0.237768 -0.0107205,-0.497181 -0.0283819,-0.747866 -0.0133976,-0.190134 -0.0322165,-0.374374 -0.0580236,-0.538878 -0.0205787,0.00925984 -0.0408543,0.0186811 -0.0607598,0.0282598 -0.0250984,0.0120709 -0.0507441,0.0249488 -0.0769173,0.0386654zm0.00287008 0.585343c-0.0261496,-0.214913 -0.0560591,-0.432925 -0.0859213,-0.596626 -0.00470079,-0.0175197 0.00303543,-0.0366063 0.0197008,-0.0455669l0.0189449 0.0352283 -0.0189055 -0.0351575c0.0339724,-0.0182677 0.0693425,-0.0362008 0.10585,-0.0537598 0.0368071,-0.0177087 0.0727795,-0.0340748 0.107862,-0.0491772 0.0035748,-0.00184646 0.00748031,-0.0031811 0.0116575,-0.00388976 0.0217756,-0.00370472 0.0424409,0.0109449 0.0461457,0.0327205l-0.0394331 0.0067126 0.039374 -0.00656299c0.0305827,0.179685 0.0522795,0.385039 0.0672402,0.597374 0.0177283,0.251598 0.026,0.514602 0.0284252,0.756673 0.00061811,0.00612992 -0.000173228,0.0125 -0.00258268,0.0186299l-6.69291e-005 -2.75591e-005c-0.0121102,0.030811 -0.0207165,0.0584685 -0.0248307,0.0810709 -0.00323228,0.0177756 -0.00385827,0.0312244 -0.00129921,0.0389016 0.0108031,0.0324094 0.000834646,0.0860787 -0.021937,0.151055 -0.0203898,0.0581772 -0.0510669,0.127831 -0.0855827,0.199524 -0.00577165,0.0145709 -0.0198622,0.0249921 -0.0365118,0.0252756 -0.0220866,0.000377953 -0.0403031,-0.0172165 -0.0406811,-0.0393031l0.0399921 -0.000688976 -0.0398425 0.000625984c-0.000937008,-0.0547087 -0.00167323,-0.106559 -0.00231496,-0.152295 -0.00124409,-0.0883346 -0.00216142,-0.153303 -0.00390157,-0.18039 -0.00436614,-0.0681575 -0.0373228,-0.41822 -0.0813819,-0.780346z"/>
  <path class="fil0" d="M4.06285 2.32818c0.0139764,-0.0170827 0.0114567,-0.0422717 -0.00562598,-0.056248 -0.0170827,-0.0139764 -0.0422717,-0.0114567 -0.056248,0.00562598 -0.317571,0.387661 -0.305461,0.564087 -0.29202,0.759846 0.0105276,0.153402 0.0219449,0.319677 -0.153764,0.632634 -0.0107835,0.0192402 -0.00392913,0.0435906 0.015311,0.054374 0.0192402,0.0107835 0.0435906,0.00392913 0.054374,-0.015311 0.187335,-0.333661 0.175071,-0.512256 0.163764,-0.677012 -0.0123031,-0.179165 -0.0233858,-0.340634 0.274209,-0.703909zm-0.860736 1.41875c-0.0062126,0.0211378 0.00588976,0.0433189 0.0270276,0.0495315 0.0211378,0.0062126 0.0433189,-0.00588976 0.0495315,-0.0270276 0.0152205,-0.0511654 0.027311,-0.0962047 0.0370551,-0.132484 0.00522047,-0.0194449 0.00981496,-0.0365472 0.0128819,-0.0474409 0.046748,-0.165787 0.151035,-0.479402 0.290169,-0.814724 0.0970472,-0.233902 0.210909,-0.478016 0.333728,-0.689138 0.0110433,-0.0190709 0.00453937,-0.0434882 -0.0145315,-0.0545315 -0.0190709,-0.0110433 -0.0434882,-0.00453937 -0.0545315,0.0145315 -0.124858,0.21463 -0.240252,0.461933 -0.338413,0.698516 -0.140445,0.338484 -0.245929,0.655803 -0.293295,0.823787 -0.00440945,0.0156496 -0.00852362,0.0309646 -0.0131969,0.048378 -0.0100315,0.0373543 -0.0224921,0.0837638 -0.0364252,0.130602z"/>
  <path class="fil0" d="M4.14942 3.16778c0.00543307,-0.0214016 -0.00750787,-0.0431614 -0.0289094,-0.0485945 -0.0214016,-0.00543307 -0.0431614,0.00750787 -0.0485945,0.0289094 -0.0382126,0.150496 -0.107189,0.274406 -0.181713,0.371642 -0.128051,0.167083 -0.26711,0.253382 -0.296476,0.261067l0.01 0.0385945 -0.010126 -0.0386969c-0.000826772,0.000216535 -0.00164173,0.00046063 -0.00244094,0.000724409l-0.00216929 0.000464567c-0.0215709,0.00431102 -0.035563,0.0253031 -0.031252,0.046874 0.00431102,0.0215709 0.0253031,0.035563 0.046874,0.031252 0.00187795,-0.000377953 0.00343307,-0.000708661 0.00455512,-0.000956693l0.000389764 -8.66142e-005c0.00143307,-0.000212598 0.0028622,-0.000503937 0.00429528,-0.000877953l-2.3622e-005 -9.05512e-005 5.51181e-005 -1.1811e-005 -1.1811e-005 -4.33071e-005c0.0361811,-0.0096063 0.199772,-0.107098 0.339772,-0.289772 0.0802913,-0.104764 0.154606,-0.23826 0.195776,-0.400398zm-0.544929 0.691614c-0.0180591,0.000358268 -0.034689,-0.0116299 -0.0394606,-0.0298701 -0.0051811,-0.0198071 0.0054252,-0.0400315 0.0240197,-0.0473386l0.0154409 0.0772087z"/>
  <path class="fil0" d="M3.61511 4.2565c-0.0219173,0.00233071 -0.0377992,0.0219921 -0.0354685,0.0439094 0.00233071,0.0219173 0.0219921,0.0377992 0.0439094,0.0354685 0.0944528,-0.010252 0.18072,-0.114378 0.268362,-0.220161 0.0734252,-0.088626 0.147945,-0.178571 0.214673,-0.198752 0.0211378,-0.00638583 0.0331024,-0.0287047 0.0267165,-0.0498425 -0.00638583,-0.0211378 -0.0287047,-0.0331024 -0.0498425,-0.0267165 -0.089685,0.027122 -0.171996,0.126472 -0.253106,0.224374 -0.0772362,0.0932244 -0.153268,0.184992 -0.215244,0.19172z"/>
  <path class="fil0" d="M3.84632 4.59379c-0.0271102,0.0100276 -0.0532992,0.0194921 -0.0778071,0.028185 -0.0374409,0.0132795 -0.070063,0.0244449 -0.0956811,0.0329252 0.000602362,0.0210118 0.00112205,0.041189 0.00154724,0.0603307 0.000188976,0.00857874 0.000358268,0.0169173 0.000503937,0.0249882 0.0252165,-0.00328346 0.0502087,-0.00683071 0.0747087,-0.0106378 0.0269016,-0.0041811 0.0552008,-0.00899606 0.0848622,-0.0145197l0.0118661 -0.121272zm-0.104366 -0.0471299c0.0398583,-0.0141339 0.0855551,-0.0308661 0.134213,-0.0494724 0.0060748,-0.00267323 0.0128937,-0.00387402 0.0199685,-0.0031811 0.0219843,0.00214961 0.0380669,0.0217205 0.0359173,0.0437047l-0.000133858 -1.1811e-005 -0.0206969 0.211547c-0.000228346,0.0185433 -0.0133976,0.0350236 -0.032315,0.0387283l-0.00768898 -0.0392559 0.00765748 0.0392205c-0.0373268,0.00731102 -0.0766811,0.0141102 -0.117094,0.0203898 -0.0425669,0.00661024 -0.0824291,0.0120433 -0.119354,0.0164252 -0.00212205,0.000362205 -0.00430709,0.000562992 -0.0065315,0.00057874 -0.0220906,0.000149606 -0.040126,-0.0176339 -0.0402756,-0.0397244l0.04 -0.000275591 -0.0398425 0.00015748c-0.000129921,-0.0195236 -0.000503937,-0.0426417 -0.00108268,-0.0687008 -0.000566929,-0.0256299 -0.0013622,-0.0545591 -0.00233465,-0.0860669 -0.00219291,-0.0186732 0.00907087,-0.0368819 0.0276575,-0.0427638l0.0120748 0.0381339 -0.0120315 -0.038126c0.0282047,-0.00892913 0.0712677,-0.0233543 0.121894,-0.0413071z"/>
  <path class="fil0" d="M4.59394 2.14763c-0.00224016,-0.0219173 -0.0218346,-0.0378661 -0.043752,-0.035626 -0.0219173,0.00224016 -0.0378661,0.0218346 -0.035626,0.043752 0.0130984,0.12378 0.100118,0.181476 0.193634,0.243469 0.0772756,0.0512323 0.159776,0.105929 0.192472,0.206504 0.00681496,0.0209685 0.0293425,0.0324409 0.050311,0.025626 0.0209685,-0.00681496 0.0324409,-0.0293425 0.025626,-0.050311 -0.0412953,-0.12702 -0.135815,-0.189685 -0.224346,-0.248378 -0.0772874,-0.0512362 -0.149209,-0.0989173 -0.158319,-0.185035zm0.487382 0.414417c0.0131142,0.017689 0.0380945,0.0213937 0.0557835,0.00827953 0.017689,-0.0131142 0.0213937,-0.0380945 0.00827953,-0.0557835 -0.19174,-0.259839 -0.129287,-0.39111 -0.0643189,-0.527661 0.0437756,-0.0920118 0.0885551,-0.186142 0.0750039,-0.317807 -0.00224016,-0.0219173 -0.0218346,-0.0378661 -0.043752,-0.035626 -0.0219173,0.00224016 -0.0378661,0.0218346 -0.035626,0.043752 0.0112598,0.109406 -0.0287283,0.193457 -0.067815,0.275618 -0.075374,0.158425 -0.147831,0.31072 0.0724449,0.609228z"/>
  <path class="fil0" d="M1.22919 3.01044c0.00629528,-0.0211378 -0.00573622,-0.0433898 -0.026874,-0.049685 -0.0211378,-0.00629528 -0.0433898,0.00573622 -0.049685,0.026874 -0.0244213,0.0817598 -0.0435827,0.156114 -0.0567677,0.232823 -0.0131654,0.0765669 -0.0202835,0.15552 -0.0206024,0.246602l-0.00015748 0c-3.93701e-006,0.00170079 9.44882e-005,0.00337402 0.000295276,0.00501969 0.00158268,0.0381929 0.00312205,0.0715787 0.00455512,0.10289 0.0119094,0.259563 0.0170669,0.372437 -0.0625827,0.581937 -0.00320079,-0.11313 -0.0219646,-0.209047 -0.0411299,-0.306953 -0.0325945,-0.166547 -0.0663819,-0.33915 -0.0206299,-0.616941 0.0260079,-0.157906 0.0752244,-0.308031 0.152531,-0.439331 0.0698622,-0.118646 0.162874,-0.222146 0.282689,-0.302299 0.0182913,-0.012252 0.023189,-0.0370236 0.010937,-0.055315 -0.012252,-0.0182913 -0.0370236,-0.023189 -0.055315,-0.010937 -0.130228,0.087122 -0.231252,0.199492 -0.307059,0.328236 -0.0825827,0.14026 -0.135008,0.299713 -0.162531,0.466835 -0.048126,0.292217 -0.0129764,0.471791 0.020937,0.645067 0.0294646,0.150535 0.0579528,0.29613 0.0256142,0.509807 -0.00338189,0.0175079 0.00533465,0.0357559 0.0222008,0.0437244 0.0199724,0.00943701 0.0438189,0.000897638 0.0532559,-0.0190748l-0.0361654 -0.0170906 0.0360945 0.0170315c0.181236,-0.383512 0.176858,-0.47898 0.160839,-0.828138 -0.00149213,-0.0326181 -0.00310236,-0.0675276 -0.00456693,-0.102827l3.14961e-005 -0.00136614 -8.66142e-005 0 -6.29921e-005 -0.00153543c0.000362205,-0.0848189 0.00714567,-0.159154 0.0196575,-0.231902 0.0125591,-0.0730472 0.0310039,-0.14452 0.0545787,-0.223453z"/>
 </g>
 <rect class="fil2" width="6.82666" height="6.82666"/>
</svg>
