<?xml version="1.0" encoding="UTF-8"?>
<!DOCTYPE svg PUBLIC "-//W3C//DTD SVG 1.1//EN" "http://www.w3.org/Graphics/SVG/1.1/DTD/svg11.dtd">
<!-- Creator: CorelDRAW -->
<svg xmlns="http://www.w3.org/2000/svg" xml:space="preserve" width="6.82666in" height="6.82666in" style="shape-rendering:geometricPrecision; text-rendering:geometricPrecision; image-rendering:optimizeQuality; fill-rule:evenodd; clip-rule:evenodd"
viewBox="0 0 6.82666 6.82666"
 xmlns:xlink="http://www.w3.org/1999/xlink">
 <defs>
  <style type="text/css">
   <![CDATA[
    .fil1 {fill:none}
    .fil0 {fill:#212121;fill-rule:nonzero}
   ]]>
  </style>
 </defs>
 <g id="Layer_x0020_1">
  <metadata id="CorelCorpID_0Corel-Layer"/>
  <path class="fil0" d="M3.41333 2.7217c0.0833307,0 0.16839,-0.0362638 0.25026,-0.0711693 0.141783,-0.0604528 0.275228,-0.117339 0.405346,-0.0124134 0.190591,0.153689 0.349004,0.372559 0.458425,0.633736 0.105106,0.250878 0.165165,0.541028 0.165165,0.84998 0,0.474516 -0.141689,0.904681 -0.370764,1.21655 -0.231693,0.315441 -0.552815,0.510547 -0.908433,0.510547 -0.355618,0 -0.67674,-0.195106 -0.908433,-0.510547 -0.229075,-0.31187 -0.370764,-0.742035 -0.370764,-1.21655 0,-0.28561 0.0513031,-0.555126 0.142067,-0.792398 0.0945394,-0.247154 0.232094,-0.459571 0.399307,-0.619102 0.145705,-0.139004 0.303303,-0.0918858 0.473276,-0.041063 0.0859173,0.025685 0.17535,0.0524291 0.264547,0.0524291zm0.281512 0.00227165c-0.0894173,0.038122 -0.182315,0.0777283 -0.281512,0.0777283 -0.100504,0 -0.195803,-0.0284961 -0.287358,-0.0558701 -0.146996,-0.0439528 -0.283291,-0.0847008 -0.395465,0.022315 -0.15852,0.151232 -0.289287,0.353571 -0.379622,0.589732 -0.0873661,0.228394 -0.136752,0.488213 -0.136752,0.763957 0,0.457236 0.13572,0.870634 0.355142,1.16936 0.216803,0.295165 0.515291,0.477736 0.844055,0.477736 0.328764,0 0.627252,-0.182571 0.844055,-0.477736 0.219421,-0.298728 0.355142,-0.712126 0.355142,-1.16936 0,-0.298311 -0.0577835,-0.577976 -0.158913,-0.819358 -0.104276,-0.248894 -0.254488,-0.456866 -0.434677,-0.602169 -0.0928937,-0.0749055 -0.204992,-0.0271142 -0.324094,0.0236654z"/>
  <path class="fil0" d="M2.65768 2.74441c0,0.0220906 0.0179094,0.04 0.04,0.04 0.0220906,0 0.04,-0.0179094 0.04,-0.04l0 -0.178075c0,-0.148528 0.0607913,-0.283587 0.158724,-0.381524 0.097937,-0.097937 0.232992,-0.158724 0.381524,-0.158724l0.270799 0c0.148531,0 0.283587,0.0607874 0.381524,0.158724 0.097937,0.0979331 0.158728,0.232992 0.158728,0.381524l0 0.178047c0,0.0220906 0.0179094,0.04 0.04,0.04 0.0220906,0 0.04,-0.0179094 0.04,-0.04l0 -0.178047c0,-0.170606 -0.0697677,-0.325685 -0.182169,-0.438083 -0.112398,-0.112398 -0.267476,-0.182165 -0.438083,-0.182165l-0.270799 0c-0.170606,0 -0.325685,0.0697677 -0.438083,0.182165 -0.112398,0.112402 -0.182165,0.267472 -0.182165,0.438083l0 0.178075z"/>
  <path class="fil0" d="M3.06644 2.0056c0,0.0220906 0.0179094,0.04 0.04,0.04 0.0220906,0 0.04,-0.0179094 0.04,-0.04 0,-0.0630669 0.0291614,-0.120394 0.0762913,-0.162075 0.0484331,-0.0428386 0.115799,-0.0693386 0.190594,-0.0693386 0.0747953,0 0.142161,0.0265 0.190594,0.0693386 0.0471299,0.0416811 0.0762913,0.0990079 0.0762913,0.162075 0,0.0220906 0.0179094,0.04 0.04,0.04 0.0220906,0 0.04,-0.0179094 0.04,-0.04 0,-0.0868307 -0.0395512,-0.16522 -0.10348,-0.22176 -0.062622,-0.0553898 -0.148717,-0.0896535 -0.243406,-0.0896535 -0.094689,0 -0.180783,0.0342638 -0.243406,0.0896535 -0.0639291,0.0565394 -0.10348,0.134929 -0.10348,0.22176z"/>
  <path class="fil0" d="M3.98394 2.174c-0.018378,0.0120787 -0.0234843,0.0367756 -0.0114055,0.0551535 0.0120787,0.018378 0.0367756,0.0234843 0.0551535,0.0114055 0.0859173,-0.0564646 0.129472,-0.143709 0.151106,-0.230295 0.0152992,-0.0612362 0.0194724,-0.122016 0.0201063,-0.170303 0.150055,0.0114213 0.196622,-0.0553031 0.190193,-0.15565 -0.00456299,-0.0712638 -0.0428386,-0.16013 -0.086622,-0.245004 0.0574843,0.000181102 0.0967126,-0.00804331 0.122161,-0.0243268 0.0466378,-0.0298425 0.0515315,-0.0745748 0.0321457,-0.134358 -0.0368661,-0.113693 -0.104969,-0.207209 -0.179949,-0.277248 -0.0986772,-0.0921732 -0.211803,-0.144752 -0.282823,-0.149886l3.93701e-006 -5.90551e-005c-0.0220315,-0.00158661 -0.041185,0.0149921 -0.0427717,0.0370236 -0.00101575,0.014126 0.00543307,0.0270709 0.0160039,0.0349606 0.0908583,0.0804213 0.197776,0.223335 0.246976,0.308776l0.00229528 0.00401969c-0.0342953,-0.00526378 -0.0530354,-0.00912992 -0.0758465,-0.0138307 -0.0283858,-0.00585039 -0.0628346,-0.0129567 -0.136705,-0.0250512l1.5748e-005 -0.000106299c-0.0217992,-0.00356693 -0.0423701,0.0112087 -0.045937,0.0330079 -0.00191732,0.0117087 0.00146457,0.0230669 0.00837795,0.031622 0.0570039,0.0704528 0.0936929,0.129272 0.119067,0.185484 0.0127362,0.0282126 0.022752,0.0559764 0.0311457,0.0843898 -0.00556693,-0.00272441 -0.0112008,-0.00535039 -0.016937,-0.00788583 -0.0340315,-0.0150433 -0.0711142,-0.0265394 -0.120043,-0.0346299l1.5748e-005 -0.000106299c-0.0217953,-0.00359843 -0.0423858,0.0111496 -0.0459843,0.0329449 -0.000562992,0.00340551 -0.000677165,0.00678346 -0.000385827,0.0100669 1.1811e-005,0.0251063 0.00130315,0.052311 0.00269685,0.0816693 0.00699213,0.147398 0.0168071,0.354394 -0.130961,0.396323 -0.0212244,0.00595276 -0.0336102,0.0279921 -0.0276575,0.0492165 0.00595276,0.0212244 0.0279921,0.0336102 0.0492165,0.0276575 0.208894,-0.0592756 0.197327,-0.303224 0.189087,-0.476945 -0.000519685,-0.0109961 -0.0010315,-0.021685 -0.00146063,-0.0319173 0.0195827,0.00531496 0.0368701,0.0115866 0.0532874,0.0188465 0.0285472,0.0126181 0.0551654,0.0285079 0.0864843,0.0475433 0.00869685,0.00615354 0.019815,0.00883858 0.0310748,0.00654724 0.0216457,-0.00440157 0.035626,-0.0255236 0.0312244,-0.0471693l-0.0391969 0.00797244 0.039063 -0.0079685c-0.0136457,-0.0670984 -0.0296614,-0.126906 -0.0578583,-0.189366 -0.0175472,-0.0388819 -0.0396339,-0.0784764 -0.0685472,-0.121067 0.0137008,0.00266142 0.024752,0.00494094 0.0349803,0.00704724 0.0337598,0.00696063 0.0589803,0.0121614 0.133791,0.0222323 0.00799213,0.00206299 0.0155748,0.00224803 0.0227362,0.000681102 0.00249606,-0.000484252 0.00498425,-0.0012126 0.00742913,-0.00220472l-0.0150157 -0.0370748 0.015 0.0370315c0.0288031,-0.0116654 0.0349646,-0.037122 0.0222677,-0.0726299 -0.0050748,-0.014185 -0.0146378,-0.0334213 -0.0276575,-0.0560354 -0.0301378,-0.0523386 -0.0807598,-0.125051 -0.136835,-0.193732 0.025252,0.0172598 0.0509646,0.0376575 0.0760039,0.0610433 0.0662244,0.0618622 0.126228,0.143996 0.15839,0.243185 0.00739764,0.0228071 0.00892126,0.0377126 0.000980315,0.0427913 -0.0193701,0.0123898 -0.0633307,0.0155472 -0.140874,0.0087126 -0.00866535,-0.0015315 -0.0178858,-0.000232283 -0.0261969,0.00433071 -0.0193622,0.0106339 -0.026437,0.0349528 -0.0158031,0.054315l5.90551e-005 -3.14961e-005c0.0517795,0.0942638 0.105709,0.200921 0.110402,0.274193 0.00331496,0.0518071 -0.0308386,0.0835591 -0.141079,0.066937 -0.00337402,-0.000826772 -0.00690945,-0.00123228 -0.0105472,-0.00114567 -0.0220827,0.000531496 -0.0395551,0.0188701 -0.0390236,0.0409528l0.000145669 -3.93701e-006c0.00112205,0.0466693 0.000834646,0.12098 -0.0176142,0.194835 -0.0175039,0.070063 -0.0516024,0.139906 -0.11735,0.183114z"/>
  <path class="fil0" d="M2.79896 2.24056c0.018378,0.0120787 0.0430748,0.00697244 0.0551535,-0.0114055 0.0120787,-0.018378 0.00697244,-0.0430748 -0.0114055,-0.0551535 -0.065748,-0.0432087 -0.0998465,-0.113051 -0.11735,-0.183114 -0.0184488,-0.0738543 -0.0187362,-0.148165 -0.0176142,-0.194835l0.000145669 3.93701e-006c0.000531496,-0.0220827 -0.0169409,-0.0404213 -0.0390236,-0.0409528 -0.0036378,-8.66142e-005 -0.00717323,0.000318898 -0.0105472,0.00114567 -0.11024,0.016622 -0.144394,-0.0151299 -0.141079,-0.066937 0.00468898,-0.0732717 0.0586142,-0.179921 0.110398,-0.274193l6.29921e-005 3.54331e-005c0.0106339,-0.0193622 0.00356299,-0.043685 -0.0157992,-0.0543189 -0.0083189,-0.00456693 -0.0175512,-0.00587008 -0.0262205,-0.00433071 -0.0775315,0.00683071 -0.121488,0.00367717 -0.140854,-0.0087126 -0.00794094,-0.00507874 -0.00641732,-0.0199843 0.000980315,-0.0427913 0.0321614,-0.099189 0.0921654,-0.181323 0.15839,-0.243185 0.0250394,-0.0233858 0.050752,-0.0437835 0.0760039,-0.0610433 -0.0560748,0.0686811 -0.106697,0.141394 -0.136835,0.193732 -0.0130197,0.0226142 -0.0225827,0.0418504 -0.0276575,0.0560354 -0.0126969,0.0355079 -0.00653543,0.0609646 0.0222677,0.0726299l0.015 -0.0370315 -0.0150157 0.0370748c0.00244488,0.000992126 0.00493307,0.00172047 0.00742913,0.00220472 0.00716142,0.00156693 0.0147441,0.00138189 0.0227362,-0.000681102 0.074811,-0.0100709 0.100031,-0.0152717 0.133791,-0.0222323 0.0102283,-0.0021063 0.0212795,-0.00438583 0.0349803,-0.00704724 -0.0289134,0.0425906 -0.051,0.082185 -0.0685472,0.121067 -0.0281969,0.0624606 -0.0442126,0.122268 -0.0578583,0.189366l0.039063 0.0079685 -0.0391969 -0.00797244c-0.00440157,0.0216457 0.00957874,0.0427677 0.0312244,0.0471693 0.0112598,0.00229134 0.022378,-0.000393701 0.0310748,-0.00654724 0.0313189,-0.0190354 0.057937,-0.0349252 0.0864843,-0.0475433 0.0164173,-0.00725984 0.0337047,-0.0135315 0.0532874,-0.0188465 -0.000429134,0.0102323 -0.000940945,0.0209213 -0.00146063,0.0319173 -0.00824016,0.17372 -0.0198071,0.417669 0.189087,0.476945 0.0212244,0.00595276 0.0432638,-0.00643307 0.0492165,-0.0276575 0.00595276,-0.0212244 -0.00643307,-0.0432638 -0.0276575,-0.0492165 -0.147768,-0.0419291 -0.137953,-0.248925 -0.130961,-0.396323 0.0013937,-0.0293583 0.00268504,-0.056563 0.00269685,-0.0816693 0.000291339,-0.00328346 0.000177165,-0.00666142 -0.000385827,-0.0100669 -0.00359843,-0.0217953 -0.024189,-0.0365433 -0.0459843,-0.0329449l1.5748e-005 0.000106299c-0.0489291,0.00809055 -0.0860118,0.0195866 -0.120043,0.0346299 -0.00573622,0.00253543 -0.0113701,0.00516142 -0.016937,0.00788583 0.0083937,-0.0284134 0.0184094,-0.0561772 0.0311457,-0.0843898 0.025374,-0.0562126 0.062063,-0.115031 0.119067,-0.185484 0.00691339,-0.00855512 0.0102953,-0.0199134 0.00837795,-0.031622 -0.00356693,-0.0217992 -0.0241378,-0.0365748 -0.045937,-0.0330079l1.5748e-005 0.000106299c-0.0738701,0.0120945 -0.108319,0.0192008 -0.136705,0.0250512 -0.022811,0.00470079 -0.0415512,0.00856693 -0.0758465,0.0138307l0.00229528 -0.00401969c0.0492008,-0.0854409 0.156118,-0.228354 0.246976,-0.308776 0.0105709,-0.00788976 0.0170197,-0.0208346 0.0160039,-0.0349606 -0.00158661,-0.0220315 -0.0207402,-0.0386102 -0.0427717,-0.0370236l3.93701e-006 5.90551e-005c-0.0710197,0.00513386 -0.184146,0.0577126 -0.282823,0.149886 -0.0749803,0.0700394 -0.143083,0.163555 -0.179949,0.277248 -0.0193858,0.0597835 -0.0144921,0.104516 0.0321457,0.134358 0.0254488,0.0162835 0.0646693,0.0245079 0.122157,0.0243268 -0.0437874,0.084878 -0.0820591,0.17374 -0.0866181,0.245004 -0.00642913,0.100346 0.0401378,0.167071 0.190193,0.15565 0.000633858,0.0482874 0.00480709,0.109067 0.0201063,0.170303 0.0216339,0.0865866 0.065189,0.173831 0.151106,0.230295z"/>
  <path class="fil0" d="M2.2442 3.41969l-0.351768 -0.070252 0.00781102 -0.0392205 -0.00783465 0.0392244c-0.0139173,-0.00277953 -0.0246929,-0.0124764 -0.0294724,-0.0247913l-0.151764 -0.328815 -7.08661e-005 3.14961e-005c-0.000448819,-0.000976378 -0.000858268,-0.00196063 -0.00122441,-0.00294882 -0.00155512,-0.00279134 -0.00340945,-0.0053622 -0.00550787,-0.00768504 -0.00283858,-0.00314567 -0.00609843,-0.00579921 -0.00961811,-0.00788189l0.020311 -0.034374 -0.020374 0.0344213c-0.00176772,-0.00104724 -0.0034252,-0.00220866 -0.0049685,-0.0034685 -0.0264724,-0.0183661 -0.124193,-0.0875039 -0.217287,-0.170776 -0.10152,-0.0908071 -0.19728,-0.199543 -0.19728,-0.286583 0,-0.011626 -0.00461417,-0.022063 -0.0120709,-0.0295197l0.028126 -0.0282795 -0.0282795 0.0282874c-0.000515748,-0.000515748 -0.00100787,-0.00104331 -0.00149213,-0.00157874 -0.00732283,-0.00661811 -0.0171575,-0.0106535 -0.0280276,-0.0106535 -0.0115276,0 -0.0219685,0.00467323 -0.0295197,0.0122244 -0.00754724,0.00754724 -0.0122205,0.0179882 -0.0122205,0.0295197 0,0.0938937 0.0866378,0.206831 0.183626,0.303846 0.100953,0.100976 0.213028,0.183764 0.256327,0.214547l6.69291e-005 -9.05512e-005c0.00663386,0.00471654 0.0113937,0.0110866 0.014122,0.0181535l0.157803 0.34189 7.08661e-005 -3.14961e-005c0.000692913,0.00150394 0.00128346,0.0030315 0.00177953,0.00457087 0.00260236,0.00577559 0.00643701,0.0108858 0.0112047,0.0149016 0.00475197,0.00400394 0.0107047,0.00700787 0.0175709,0.00856693 0.000811024,0.000133858 0.00161417,0.000291339 0.00240945,0.000476378l0.382921 0.0764764c0.00425197,-0.014878 0.0086811,-0.0297441 0.0132756,-0.0445866 0.00373622,-0.0120709 0.00752362,-0.0239409 0.0113543,-0.0356024zm-0.316256 -0.14472l0.375634 0.0750197c0.0021811,0.00038189 0.00435827,0.000944882 0.00651181,0.00170866 0.0208189,0.00738189 0.0317165,0.030248 0.0243346,0.0510669l-6.69291e-005 -2.3622e-005c-0.00911024,0.0257047 -0.0175433,0.0510512 -0.0252598,0.0759921 -0.00759449,0.0245433 -0.0148425,0.0496811 -0.0217244,0.0753661l-1.9685e-005 9.84252e-005c-0.00432677,0.0216614 -0.0253976,0.0357165 -0.0470591,0.0313898l0 -7.87402e-006 -0.419087 -0.0837008 -0.00141339 -0.000251969 0 -7.87402e-006c-0.0205591,-0.00411024 -0.0390551,-0.0134094 -0.054378,-0.0263228 -0.014748,-0.0124213 -0.0263189,-0.0281063 -0.0337638,-0.0456339l-0.000606299 -0.00124803 7.08661e-005 -3.14961e-005 -1.9685e-005 -4.72441e-005 -0.154437 -0.334602c-0.049937,-0.0359409 -0.158768,-0.117886 -0.257925,-0.217063 -0.109374,-0.109402 -0.207067,-0.240579 -0.207067,-0.360098 0,-0.0336063 0.0136299,-0.0640472 0.0356614,-0.0860787 0.0220315,-0.0220315 0.0524685,-0.0356654 0.0860787,-0.0356654 0.0321378,0 0.0614567,0.0125945 0.0833268,0.0331535 0.000944882,0.000787402 0.00186614,0.00161811 0.00275197,0.00250394l-8.26772e-005 8.26772e-005 3.93701e-006 3.93701e-006 7.87402e-005 7.48031e-005c0.0220394,0.0221063 0.0356654,0.0524961 0.0356654,0.0859252 0,0.0591063 0.0827165,0.148768 0.170406,0.227205 0.0893346,0.0799094 0.184028,0.146886 0.20961,0.164626l0.000267717 0.000153543 -1.1811e-005 2.3622e-005 0.000559055 0.000385827c0.0102362,0.00614173 0.0196299,0.0138071 0.0277638,0.0228268 0.00735433,0.00815354 0.0137244,0.0174803 0.018815,0.0278661 0.0012126,0.00218898 0.00220472,0.00444882 0.0029685,0.00674803l0.142413 0.308563z"/>
  <path class="fil0" d="M2.13419 4.1342c-0.0703228,0.0311102 -0.164146,0.0746024 -0.25328,0.122189 -0.11302,0.0603386 -0.218598,0.126811 -0.25672,0.180815 -0.040626,0.0575551 -0.0855827,0.134146 -0.123319,0.20213 -0.0376929,0.0679016 -0.0687323,0.128303 -0.0807362,0.151937l-0.035626 -0.0179685 0.0356654 0.0181142c-0.00186614,0.00367323 -0.00422047,0.00693701 -0.00694882,0.00974803l-0.328709 0.373535 2.3622e-005 2.3622e-005 -0.00080315 0.000885827c-0.00709055,0.00851969 -0.0102362,0.019063 -0.00958268,0.0293425 0.000673228,0.0105945 0.00543307,0.0209764 0.0141024,0.0286063l-0.0264055 0.03 0.0264291 -0.0300236 0.00088189 0.000799213c0.00852362,0.00709449 0.0190709,0.0102402 0.0293504,0.00958661 0.0105984,-0.000673228 0.0209803,-0.00543307 0.0286142,-0.0141063l0.33363 -0.379122 -2.3622e-005 -2.3622e-005c0.000858268,-0.000976378 0.00175591,-0.00190157 0.00268898,-0.00277559 0.000897638,-0.00103543 0.00176772,-0.00214961 0.0026063,-0.00333858l0.000515748 0.000362205 2.75591e-005 -8.66142e-005 -0.000385827 -0.000275591 3.93701e-006 -3.93701e-006 -0.000165354 -0.00011811c0.000405512,-0.000574803 0.000822835,-0.00112992 0.00125197,-0.00167323 0.0005,-0.00134252 0.00107874,-0.00267717 0.00173228,-0.00398819 0.000574803,-0.00114961 0.00120079,-0.00225984 0.00186614,-0.00332677 0.00959055,-0.0190079 0.0549528,-0.108209 0.108094,-0.20072 0.0304921,-0.0530866 0.063374,-0.107079 0.093374,-0.149583 0.0308819,-0.043748 0.111657,-0.0959606 0.20424,-0.145587 0.0795354,-0.0426339 0.168197,-0.0839528 0.239882,-0.115795 -0.000511811,-0.0120866 -0.000944882,-0.0245039 -0.00129528,-0.0372598 -0.000531496,-0.0194646 -0.000862205,-0.0369252 -0.000980315,-0.0522992zm-0.290783 0.051874c0.118,-0.0629961 0.241906,-0.118161 0.312969,-0.148571 0.00572441,-0.00294882 0.0122402,-0.00455512 0.0191299,-0.00441339 0.0220866,0.00046063 0.0396181,0.0187402 0.0391575,0.0408268l-0.000149606 -3.93701e-006c-0.000173228,0.00842126 -0.000311024,0.0164016 -0.000393701,0.023811 -1.1811e-005,0.00115748 1.9685e-005,0.0066063 1.9685e-005,0.0241063 0,0.0244016 0.000244094,0.045189 0.000716535,0.0624803 0.000523622,0.0191142 0.00135039,0.0390354 0.00245276,0.0596732 0.00226378,0.0172047 -0.00692913,0.0345394 -0.023622,0.0418504l-0.0160472 -0.0366417 0.015937 0.036563c-0.0743031,0.0325394 -0.173173,0.0778504 -0.259488,0.124114 -0.0829055,0.044437 -0.153646,0.0889331 -0.176429,0.121209 -0.0293701,0.0416102 -0.0607953,0.0931339 -0.089626,0.143331 -0.0506024,0.0880906 -0.093815,0.172724 -0.10478,0.194409 -0.000625984,0.00198425 -0.00141732,0.00394882 -0.00237795,0.00587008l-2.75591e-005 -1.5748e-005c-0.00190551,0.0038189 -0.00427559,0.00784252 -0.00705906,0.0120276 -0.000732283,0.00133465 -0.00153937,0.00264173 -0.00244094,0.00391339l-5.90551e-005 -4.33071e-005c-0.00291339,0.00411811 -0.00609449,0.00805118 -0.00951181,0.0117795l-0.000988189 0.00116929 -5.51181e-005 -4.72441e-005 -3.93701e-006 0 3.14961e-005 2.75591e-005 -0.333634 0.379126c-0.0221654,0.0251811 -0.0525039,0.0390039 -0.0836142,0.0409803 -0.0304606,0.00194094 -0.0616535,-0.00750394 -0.0865906,-0.0287677l-0.000594488 -0.000484252 -0.000224409 -0.000185039 -0.000574803 -0.000496063 -0.000106299 -9.05512e-005c-0.000468504,-0.000413386 -0.000933071,-0.000838583 -0.00138583,-0.00128346 -0.0242795,-0.0220394 -0.0376181,-0.0518189 -0.0395669,-0.0823465 -0.00193307,-0.0304606 0.00749606,-0.0616457 0.0287638,-0.0865827l0.000452756 -0.000559055 0.00023622 -0.000279528 0.000452756 -0.000531496 0.000110236 -0.000125984c0.000350394,-0.000401575 0.000712598,-0.000791339 0.00107874,-0.00117717l0.325787 -0.370209c0.0134409,-0.0263543 0.0431181,-0.0837559 0.0798346,-0.149902 0.0391102,-0.0704567 0.0856772,-0.149795 0.127689,-0.209319 0.0464252,-0.0657677 0.162228,-0.139898 0.284531,-0.205193z"/>
  <path class="fil0" d="M2.33544 5.05265c-0.0352717,0.0175551 -0.0741772,0.038685 -0.110504,0.0621732 -0.0479567,0.0310118 -0.0920079,0.0662126 -0.117689,0.102594 -0.0335,0.0474567 -0.0702598,0.109921 -0.101173,0.165496 -0.0300512,0.0540315 -0.0561693,0.104791 -0.0668346,0.12576l2.3622e-005 1.1811e-005c-0.00185039,0.0036378 -0.0041811,0.00687008 -0.00687402,0.00966142l-0.269071 0.305756c-0.00763386,0.00867323 -0.0110315,0.0196024 -0.0103543,0.030248 0.000673228,0.0105945 0.00543307,0.0209803 0.0141063,0.0286142 0.00867323,0.00763386 0.0196063,0.0110315 0.030248,0.0103543 0.0105984,-0.000673228 0.0209803,-0.00543307 0.0286142,-0.0141063l0.274283 -0.311681 -2.3622e-005 -2.3622e-005c0.000877953,-0.000996063 0.00179134,-0.00193307 0.00274016,-0.00282283 0.000933071,-0.00106693 0.00180709,-0.00216929 0.00261811,-0.00331102l-9.05512e-005 -6.69291e-005c0.000484252,-0.000685039 0.000992126,-0.00135039 0.00151575,-0.00199606 0.000531496,-0.00136614 0.0011378,-0.00272047 0.00183465,-0.00405118 0.000488189,-0.000933071 0.00100787,-0.00183858 0.00155512,-0.00271654 0.00837795,-0.0166024 0.0461929,-0.0909606 0.0884252,-0.164567 0.0246969,-0.0430433 0.0515748,-0.0871535 0.0766102,-0.122622 0.0230748,-0.032689 0.064248,-0.0640472 0.109484,-0.0915315 0.0290472,-0.0176496 0.0595433,-0.0337008 0.087622,-0.0473858 -0.00606299,-0.0114882 -0.0122047,-0.0234055 -0.0184173,-0.0357559l-6.29921e-005 3.14961e-005 -2.3622e-005 -4.33071e-005 -8.66142e-005 4.33071e-005c-0.000429134,-0.000850394 -0.000822835,-0.00171654 -0.00118504,-0.00258268 -0.00582283,-0.011622 -0.0115906,-0.0234488 -0.0172913,-0.0354803zm-0.153945 -0.00470079c0.0538465,-0.0348189 0.110524,-0.0638307 0.155469,-0.0847953l0.00131496 -0.000622047c0.0201575,-0.00902756 0.0438268,-3.93701e-006 0.0528543,0.0201535l-0.0365039 0.0163504 0.0364055 -0.016252c0.0103819,0.023185 0.0214094,0.0463898 0.0330276,0.0695748 0.000464567,0.000787402 0.000909449,0.00159055 0.00132677,0.00241732l-0.0357362 0.0179685 0.035626 -0.017811c0.0109291,0.0217402 0.0230748,0.0445276 0.0363543,0.0682638 0.000988189,0.00156693 0.00188189,0.0032126 0.00266535,0.00494882 0.00908268,0.0201339 0.000122047,0.0438268 -0.0200118,0.0529094l-0.0164488 -0.0364606 0.0164055 0.0364055c-0.035437,0.0159882 -0.0793189,0.0373819 -0.118106,0.0609488 -0.0367677,0.0223386 -0.0693268,0.0465433 -0.0854213,0.0693425 -0.0231299,0.0327717 -0.0487205,0.0748465 -0.0725472,0.11637 -0.0419685,0.0731378 -0.0766339,0.140909 -0.0858622,0.159138 -0.000582677,0.00170866 -0.00129134,0.0033937 -0.00212598,0.00505118l-0.00255906 -0.00129134 -3.93701e-006 2.3622e-005 0.00246457 0.00124409c-0.00194488,0.0038622 -0.00424803,0.00779134 -0.0068622,0.011748 -0.000748031,0.00137795 -0.00158661,0.00272047 -0.00251575,0.0040315l-0.00232677 -0.00165354 -1.5748e-005 5.11811e-005 0.00222047 0.00157874c-0.00290551,0.00409449 -0.00601575,0.00794882 -0.00930315,0.0115512 -0.000334646,0.000413386 -0.000677165,0.000822835 -0.0010315,0.00122441l-5.51181e-005 -5.11811e-005 -3.93701e-006 3.93701e-006 3.14961e-005 2.75591e-005 -0.274287 0.311685c-0.0221654,0.0251811 -0.0525,0.0389961 -0.0836142,0.0409803 -0.031063,0.00198031 -0.0628858,-0.00788189 -0.0880591,-0.0300394 -0.0251811,-0.0221654 -0.0389961,-0.0525039 -0.0409803,-0.0836142 -0.00198031,-0.0310669 0.00787795,-0.0628819 0.0300394,-0.0880591l0.266949 -0.303343c0.0112638,-0.0220512 0.0352402,-0.0682598 0.066122,-0.123783 0.0323031,-0.0580748 0.0706811,-0.123295 0.105543,-0.172685 0.0322638,-0.0457087 0.0840866,-0.0876575 0.139563,-0.123531z"/>
  <path class="fil0" d="M4.52309 3.34998l0.375618 -0.0750197 0.142413 -0.308563m-0.114713 0.343811l0.00781102 0.0392205 -0.351744 0.070248c0.00384252,0.011689 0.0076378,0.0235906 0.0113858,0.0357008 0.00458661,0.014811 0.00900394,0.0296457 0.013248,0.0444882l0.382894 -0.0764724c0.000795276,-0.000185039 0.00159843,-0.00034252 0.00240945,-0.000476378 0.00686614,-0.00155906 0.0128189,-0.00456299 0.0175709,-0.00856693 0.00476772,-0.00401575 0.00860236,-0.00912598 0.0112047,-0.0149016 0.000496063,-0.00153937 0.00108661,-0.00306693 0.00177953,-0.00457087l7.08661e-005 3.14961e-005 0.157803 -0.34189c0.00272835,-0.00706693 0.00748819,-0.013437 0.014122,-0.0181535l6.69291e-005 9.05512e-005c0.0432992,-0.0307835 0.155374,-0.113571 0.256327,-0.214547 0.0969882,-0.0970157 0.183626,-0.209953 0.183626,-0.303846 0,-0.0115315 -0.00467323,-0.0219724 -0.0122205,-0.0295197 -0.00755118,-0.00755118 -0.0179921,-0.0122244 -0.0295197,-0.0122244 -0.0108701,0 -0.0207047,0.00403543 -0.0280276,0.0106535 -0.000484252,0.000535433 -0.000976378,0.00106299 -0.00149213,0.00157874l-0.0282795 -0.0282874 0.028126 0.0282795c-0.00745669,0.00745669 -0.0120709,0.0178937 -0.0120709,0.0295197 0,0.0870394 -0.0957598,0.195776 -0.19728,0.286583 -0.0930945,0.0832717 -0.190815,0.152409 -0.217287,0.170776 -0.00154331,0.00125984 -0.00320079,0.00242126 -0.0049685,0.0034685l-0.020374 -0.0344213 0.020311 0.034374c-0.00351969,0.00208268 -0.00677953,0.00473622 -0.00961811,0.00788189 -0.00209843,0.00232283 -0.00395276,0.0048937 -0.00550787,0.00768504 -0.000366142,0.000988189 -0.000775591,0.00197244 -0.00122441,0.00294882l-7.08661e-005 -3.14961e-005 -0.151764 0.328815c-0.00477953,0.012315 -0.0155551,0.0220118 -0.0294724,0.0247913l-0.00783465 -0.0392244zm0.117681 -0.350559c0.00509055,-0.0103858 0.0114606,-0.0197126 0.018815,-0.0278661 0.00813386,-0.00901969 0.0175276,-0.016685 0.0277638,-0.0228268l0.000559055 -0.000385827 -1.1811e-005 -2.3622e-005 0.000267717 -0.000153543c0.0255866,-0.0177402 0.120276,-0.0847165 0.20961,-0.164626 0.087689,-0.078437 0.170406,-0.168098 0.170406,-0.227205 0,-0.0334291 0.013626,-0.0638189 0.0356654,-0.0859252l7.87402e-005 -7.48031e-005 3.93701e-006 -3.93701e-006 -8.26772e-005 -8.26772e-005c0.000885827,-0.000885827 0.00180709,-0.00171654 0.00275197,-0.00250394 0.0218661,-0.020563 0.051189,-0.0331535 0.0833268,-0.0331535 0.0336102,0 0.0640472,0.0136339 0.0860787,0.0356654 0.0220315,0.0220315 0.0356614,0.0524724 0.0356614,0.0860787 0,0.11952 -0.0976929,0.250697 -0.207067,0.360098 -0.0991575,0.0991772 -0.207988,0.181122 -0.257925,0.217063l-0.154437 0.334602 -1.9685e-005 4.72441e-005 7.08661e-005 3.14961e-005 -0.000606299 0.00124803c-0.00744488,0.0175276 -0.0190157,0.0332165 -0.0337638,0.0456339 -0.0153228,0.0129134 -0.0338189,0.0222126 -0.054378,0.0263228l0 7.87402e-006 -0.00141339 0.000251969 -0.419059 0.0836969 0 7.87402e-006c-0.0216614,0.00432677 -0.0427323,-0.00972835 -0.0470591,-0.0313898l-2.75591e-005 -0.000141732c-0.00686614,-0.0256417 -0.0141063,-0.0507205 -0.021689,-0.0752244 -0.00773228,-0.0249685 -0.0161772,-0.0503465 -0.0252992,-0.0760866l-6.69291e-005 2.3622e-005c-0.00738189,-0.0208189 0.00351575,-0.043685 0.0243346,-0.0510669 0.00215354,-0.00076378 0.00433071,-0.00132677 0.00651181,-0.00170866"/>
  <path class="fil0" d="M4.67028 4.0375c0.0872441,0.0373268 0.253839,0.111839 0.391,0.192083 0.0911811,0.0533425 0.169957,0.109906 0.206512,0.161689 0.0420118,0.0595236 0.0885787,0.138862 0.127689,0.209319 0.0367165,0.0661457 0.0663937,0.123547 0.0798346,0.149902l0.325787 0.370209c0.000370079,0.000385827 0.000728346,0.000779528 0.00107874,0.00117717l0.000110236 0.000125984 0.000452756 0.000531496 0.00023622 0.000279528 0.000452756 0.000559055c0.0212677,0.024937 0.0306969,0.056122 0.0287638,0.0865827 -0.00194882,0.0305276 -0.0152874,0.0603071 -0.0395669,0.0823465 -0.000452756,0.000440945 -0.000917323,0.000870079 -0.00138583,0.00128346l-0.000106299 9.05512e-005 -0.000574803 0.000496063 -0.000224409 0.000185039 -0.000594488 0.000484252c-0.024937,0.0212638 -0.0561299,0.0307087 -0.0865906,0.0287677 -0.0311102,-0.00197638 -0.0614488,-0.0157992 -0.0836142,-0.0409803l-0.333634 -0.379126 3.14961e-005 -2.75591e-005 -3.93701e-006 0 -5.51181e-005 4.72441e-005 -0.000988189 -0.00116929c-0.00341339,-0.00372441 -0.00659843,-0.00766142 -0.00951181,-0.0117795l-5.90551e-005 4.33071e-005c-0.000897638,-0.00127165 -0.00170866,-0.00257874 -0.00244094,-0.00391339 -0.00278346,-0.00418504 -0.00515354,-0.00820866 -0.00705906,-0.0120276l-2.75591e-005 1.5748e-005c-0.00096063,-0.00192126 -0.00175197,-0.00388583 -0.00237795,-0.00587008 -0.0109646,-0.021685 -0.0541772,-0.106319 -0.10478,-0.194409 -0.0288307,-0.0501969 -0.0602559,-0.10172 -0.089626,-0.143331 -0.0227835,-0.0322756 -0.0935236,-0.0767677 -0.176425,-0.121205 -0.086315,-0.0462638 -0.185185,-0.0915748 -0.259488,-0.124114l0.015937 -0.036563 -0.0160472 0.0366417c-0.0166929,-0.00731102 -0.0258858,-0.0246457 -0.023622,-0.0418504 0.00110236,-0.0206339 0.00192913,-0.0405591 0.00245276,-0.0596772 0.000472441,-0.0172913 0.000716535,-0.0380787 0.000716535,-0.0624803l1.1811e-005 -0.0241102c-8.26772e-005,-0.0073622 -0.000228346,-0.0153701 -0.000401575,-0.023815l-0.000149606 3.93701e-006c-0.00046063,-0.0220866 0.0170709,-0.0403661 0.0391575,-0.0408268 0.00688976,-0.000141732 0.0134055,0.00146457 0.0191299,0.00441339zm0.350685 0.260831c-0.108685,-0.0635827 -0.238079,-0.124134 -0.328484,-0.16413 -0.00011811,0.015378 -0.000448819,0.0328386 -0.000980315,0.0523031 -0.000350394,0.0127559 -0.000783465,0.0251772 -0.00129528,0.0372638 0.071685,0.0318425 0.160346,0.0731614 0.239882,0.115795 0.0925787,0.049622 0.173354,0.101831 0.204236,0.145583 0.03,0.0425039 0.0628819,0.0964961 0.093374,0.149583 0.0531417,0.0925118 0.0985039,0.181713 0.108094,0.20072 0.000665354,0.00106693 0.00129134,0.00217717 0.00186614,0.00332677 0.000653543,0.00131102 0.00123228,0.00264173 0.00173228,0.00398819 0.000429134,0.000543307 0.000846457,0.00109843 0.00125197,0.00167323l-0.000165354 0.00011811 3.93701e-006 3.93701e-006 -0.000385827 0.000275591 2.75591e-005 8.66142e-005 0.000515748 -0.000362205c0.000838583,0.00118898 0.00170866,0.00230315 0.0026063,0.00333858 0.000933071,0.000874016 0.00182677,0.00179921 0.00268898,0.00277559l-2.3622e-005 2.3622e-005 0.33363 0.379122c0.00763386,0.00867323 0.0180157,0.0134331 0.0286142,0.0141063 0.0102795,0.000653543 0.0208268,-0.00249213 0.0293504,-0.00958661l0.00088189 -0.000799213 0.0264291 0.0300236 -0.0264055 -0.03c0.00866929,-0.00762992 0.0134291,-0.0180118 0.0141024,-0.0286063 0.000653543,-0.0102795 -0.00249213,-0.0208228 -0.00958268,-0.0293425l-0.00080315 -0.000885827 2.3622e-005 -2.3622e-005 -0.328709 -0.373535c-0.00272835,-0.00281102 -0.00508268,-0.0060748 -0.00694882,-0.00974803l0.0356654 -0.0181142 -0.035626 0.0179685c-0.0120039,-0.0236339 -0.0430433,-0.0840354 -0.0807362,-0.151937 -0.0377362,-0.0679843 -0.0826929,-0.144575 -0.123319,-0.20213 -0.0292362,-0.0414134 -0.0991142,-0.0906772 -0.181512,-0.138878z"/>
  <path class="fil0" d="M4.4897 4.96315c0.0449409,0.0209646 0.101622,0.0499764 0.155469,0.0847953 0.0554803,0.035874 0.107299,0.0778228 0.139563,0.123531 0.0348622,0.0493898 0.0732402,0.11461 0.105543,0.172685 0.0308819,0.0555236 0.0548583,0.101732 0.066122,0.123783l0.266949 0.303343c0.0221614,0.0251772 0.0320197,0.0569921 0.0300394,0.0880591 -0.00198425,0.0311102 -0.0157992,0.0614488 -0.0409803,0.0836142 -0.0251732,0.0221575 -0.0569961,0.0320197 -0.0880591,0.0300394 -0.0311142,-0.00198425 -0.0614488,-0.0157992 -0.0836142,-0.0409803l-0.274287 -0.311685 3.14961e-005 -2.75591e-005 -3.93701e-006 -3.93701e-006 -5.51181e-005 5.11811e-005c-0.000354331,-0.000401575 -0.000692913,-0.000807087 -0.00102756,-0.00122047 -0.00329134,-0.0036063 -0.00640945,-0.0074685 -0.00931102,-0.011563 -0.00354724,-0.005 -0.00673622,-0.0102677 -0.00949606,-0.015748l0.0105591 -0.00532677 0 -3.93701e-006 -0.0106496 0.00537008c-0.000838583,-0.00166535 -0.00155118,-0.00335827 -0.0021378,-0.0050748 -0.00923228,-0.0182402 -0.0438976,-0.0860039 -0.0858583,-0.15913 -0.0238268,-0.0415236 -0.0494173,-0.0835984 -0.0725472,-0.11637 -0.0160945,-0.0227992 -0.0486535,-0.0470039 -0.0854213,-0.0693425 -0.0387795,-0.0235591 -0.0826614,-0.0449567 -0.118102,-0.0609449l0.0164055 -0.0364055 -0.0164488 0.0364606c-0.0201339,-0.00908268 -0.0290945,-0.0327756 -0.0200118,-0.0529094 0.000779528,-0.00172835 0.00167323,-0.00337402 0.00265354,-0.00493307 0.0127913,-0.0228622 0.0249134,-0.0456693 0.0363346,-0.0683701l-9.05512e-005 -4.33071e-005c0.000547244,-0.00108661 0.00114173,-0.0021378 0.00177165,-0.00315354 0.011063,-0.0221299 0.0219409,-0.0450906 0.0325906,-0.0688661l0.0364055 0.016252 -0.0365039 -0.0163504c0.00902756,-0.0201575 0.0326969,-0.0291811 0.0528543,-0.0201535l0.00131496 0.000622047zm0.112028 0.151669c-0.0363346,-0.0234961 -0.075252,-0.0446299 -0.110531,-0.062189 -0.0055,0.0115669 -0.0111496,0.0231339 -0.016937,0.0347008 -0.000452756,0.00114567 -0.000952756,0.00229134 -0.00151969,0.00341339l-0.0357362 -0.0179724 0.035626 0.0179685c-0.00610236,0.0121378 -0.012248,0.0240433 -0.0184291,0.0357165 0.0280669,0.0136772 0.0585472,0.0297205 0.0875787,0.0473622 0.0452362,0.0274843 0.0864094,0.0588425 0.109484,0.0915315 0.0250354,0.0354685 0.0519134,0.0795787 0.0766102,0.122622 0.0422323,0.0736063 0.0800472,0.147965 0.0884252,0.164567 0.000547244,0.000877953 0.00106693,0.00178346 0.00155512,0.00271654 0.000653543,0.00125197 0.00123622,0.00252756 0.00174409,0.00381496 0.000480315,0.000787402 0.000972441,0.00153543 0.00148031,0.00224803 0.000822835,0.00116535 0.00172047,0.00229134 0.00266929,0.00337402 0.000944882,0.00088189 0.00185039,0.0018189 0.00272441,0.00281102l-2.3622e-005 2.3622e-005 0.274283 0.311681c0.00763386,0.00867323 0.0180157,0.0134331 0.0286142,0.0141063 0.0106417,0.000677165 0.0215748,-0.00272047 0.030248,-0.0103543 0.00867323,-0.00763386 0.0134331,-0.0180197 0.0141063,-0.0286142 0.000677165,-0.0106457 -0.00272047,-0.0215748 -0.0103543,-0.030248l-0.269071 -0.305756c-0.00269291,-0.00279134 -0.00502362,-0.00602362 -0.00687402,-0.00966142l2.3622e-005 -1.1811e-005c-0.0106654,-0.0209685 -0.0367835,-0.0717283 -0.0668346,-0.12576 -0.0309134,-0.0555748 -0.0676732,-0.118039 -0.101173,-0.165496 -0.0256811,-0.0363858 -0.0697244,-0.0715827 -0.117689,-0.102594z"/>
 </g>
 <rect class="fil1" width="6.82666" height="6.82666"/>
</svg>
