<?xml version="1.0" encoding="UTF-8"?>
<!DOCTYPE svg PUBLIC "-//W3C//DTD SVG 1.1//EN" "http://www.w3.org/Graphics/SVG/1.1/DTD/svg11.dtd">
<!-- Creator: CorelDRAW -->
<svg xmlns="http://www.w3.org/2000/svg" xml:space="preserve" width="6.82666in" height="6.82666in" style="shape-rendering:geometricPrecision; text-rendering:geometricPrecision; image-rendering:optimizeQuality; fill-rule:evenodd; clip-rule:evenodd"
viewBox="0 0 6.82666 6.82666"
 xmlns:xlink="http://www.w3.org/1999/xlink">
 <defs>
  <style type="text/css">
   <![CDATA[
    .fil1 {fill:none}
    .fil0 {fill:#212121;fill-rule:nonzero}
   ]]>
  </style>
 </defs>
 <g id="Layer_x0020_1">
  <metadata id="CorelCorpID_0Corel-Layer"/>
  <path class="fil0" d="M2.82373 5.1793c0.0102677,0.0195 0.0344055,0.0269843 0.0539055,0.0167165 0.0195,-0.0102677 0.0269843,-0.0344055 0.0167165,-0.0539055 -0.13635,-0.258161 -0.233004,-0.603799 -0.299858,-0.953598 -0.0995394,-0.520811 -0.132693,-1.04987 -0.132693,-1.31553 0,-0.105024 0.0117165,-0.206402 0.0336732,-0.302437 0.0227126,-0.099311 0.0563465,-0.193205 0.0992874,-0.279787 0.0427717,-0.086248 0.0948504,-0.165157 0.154567,-0.23476 0.0589252,-0.0686811 0.125244,-0.12826 0.197335,-0.176839l0.934252 0c0.000700787,0.000488189 0.00140945,0.000956693 0.00212992,0.00139764 0.0719291,0.0487362 0.137972,0.10826 0.19652,0.176713 0.059252,0.0692717 0.110965,0.147744 0.153488,0.233488 0.042937,0.0865827 0.0765748,0.180476 0.0992835,0.279787 0.0219606,0.0960394 0.0336732,0.197413 0.0336732,0.302437 0,0.224807 -0.0236535,0.640567 -0.0912205,1.0796 -0.0471378,0.306295 -0.115642,0.623661 -0.21235,0.894614 -0.0200079,0.056063 -0.0405906,0.108846 -0.0617165,0.157701 -0.020626,0.0477047 -0.0426575,0.0939134 -0.0661535,0.138283 -0.0102677,0.0195 -0.00278346,0.0436378 0.0167165,0.0539055 0.0195,0.0102677 0.0436378,0.00278346 0.0539055,-0.0167165 0.023752,-0.0448543 0.0466378,-0.0929882 0.0686575,-0.143913 0.0231378,-0.0535079 0.0444016,-0.107736 0.0639055,-0.162386 0.0985709,-0.276177 0.168252,-0.598717 0.216098,-0.909614 0.0682638,-0.443547 0.0921575,-0.864 0.0921575,-1.09148 0,-0.110598 -0.0124724,-0.217965 -0.0358622,-0.320248 -0.0241063,-0.105421 -0.0598622,-0.205193 -0.105535,-0.297291 -0.0454921,-0.0917283 -0.10089,-0.175768 -0.164425,-0.250047 -0.0637717,-0.0745591 -0.135654,-0.13926 -0.213866,-0.192043 -0.00550787,-0.00406693 -0.011437,-0.00734252 -0.0177165,-0.0097126 -0.00775591,-0.00292913 -0.0157717,-0.00448031 -0.0239016,-0.00448031l-0.941591 0c-0.00242913,0 -0.00480709,0.000220472 -0.00711417,0.000633858 -0.00455118,0.000472441 -0.00905512,0.00141732 -0.0134685,0.00284646 -0.00623622,0.00201181 -0.012311,0.00494488 -0.0181181,0.00883465 -0.0790354,0.052937 -0.151539,0.117858 -0.215705,0.19265 -0.0639803,0.0745709 -0.119748,0.159047 -0.165504,0.251319 -0.0456772,0.0920945 -0.0814291,0.191866 -0.105539,0.297291 -0.0233858,0.10228 -0.0358622,0.209654 -0.0358622,0.320248 0,0.268583 0.0335433,0.803598 0.134252,1.33053 0.0681339,0.356496 0.167177,0.709768 0.307677,0.975787zm1.06097 -3.30912l0 9.44882e-005 0.0191339 -0.0238937 -0.0191339 0.0237992zm-0.00217717 0.00270472l-7.48031e-005 0.000200787 0.00225197 -0.00281102 0 -9.44882e-005 -0.00217717 0.00270472zm0 0l-0.00366929 0.00456299 7.87402e-005 3.14961e-005 0.00351575 -0.0043937 7.48031e-005 -0.000200787z"/>
  <path class="fil0" d="M3.67037 1.8536c0.00491732,-0.0214843 -0.00851575,-0.0428937 -0.03,-0.047811 -0.0214843,-0.00491732 -0.0428937,0.00851575 -0.047811,0.03 -0.00142126,0.00623228 -0.505319,2.16037 0.343646,3.35133 0.0127717,0.0179488 0.0376772,0.0221457 0.055626,0.00937402 0.0179488,-0.0127717 0.0221457,-0.0376772 0.00937402,-0.055626 -0.827961,-1.1615 -0.332232,-3.28114 -0.330835,-3.28727z"/>
  <path class="fil0" d="M3.23488 1.83579c-0.00491732,-0.0214843 -0.0263268,-0.0349173 -0.047811,-0.03 -0.0214843,0.00491732 -0.0349173,0.0263268 -0.03,0.047811 0.00139764,0.00612992 0.49713,2.12577 -0.330831,3.28727 -0.0127717,0.0179488 -0.0085748,0.0428543 0.00937402,0.055626 0.0179488,0.0127717 0.0428543,0.0085748 0.055626,-0.00937402 0.848965,-1.19096 0.345063,-3.3451 0.343642,-3.35133z"/>
  <path class="fil0" d="M3.12894 1.3486l0.569921 0c0.0654646,0 0.124961,0.0267559 0.168063,0.0698583 0.0431024,0.0431024 0.0698583,0.102598 0.0698583,0.168063l0 0.252642c0,0.0220906 -0.0179094,0.04 -0.04,0.04l-0.965764 0c-0.0220906,0 -0.04,-0.0179094 -0.04,-0.04l0 -0.252642c0,-0.0654646 0.0267559,-0.124961 0.0698583,-0.168063 0.0431024,-0.0431024 0.102598,-0.0698583 0.168063,-0.0698583zm0.569921 0.08l-0.569921 0c-0.0433898,0 -0.0828661,0.0177795 -0.111504,0.0464173 -0.0286378,0.0286378 -0.0464173,0.0681142 -0.0464173,0.111504l0 0.212642 0.885764 0 0 -0.212642c0,-0.0433898 -0.0177795,-0.0828661 -0.0464173,-0.111504 -0.0286378,-0.0286378 -0.0681142,-0.0464173 -0.111504,-0.0464173z"/>
  <path class="fil0" d="M3.02111 1.4009c0,0.0220906 0.0179094,0.04 0.04,0.04 0.0220906,0 0.04,-0.0179094 0.04,-0.04 0,-0.0664567 0.0338189,-0.12713 0.0884882,-0.171492 0.056937,-0.0462008 0.136213,-0.0747835 0.224307,-0.0747835 0.0880945,0 0.167366,0.0285827 0.224307,0.0747874 0.0546693,0.0443583 0.0884882,0.105035 0.0884882,0.171488 0,0.0220906 0.0179094,0.04 0.04,0.04 0.0220906,0 0.04,-0.0179094 0.04,-0.04 0,-0.0916457 -0.0451654,-0.174122 -0.118173,-0.233362 -0.0707441,-0.0574016 -0.167878,-0.0929134 -0.274622,-0.0929134 -0.106744,0 -0.203882,0.0355079 -0.274622,0.0929094 -0.0730079,0.0592441 -0.118173,0.14172 -0.118173,0.233366z"/>
  <path class="fil0" d="M3.10543 1.29271c0.0217441,0.0033622 0.0421063,-0.0115354 0.0454685,-0.0332795 0.0033622,-0.0217441 -0.0115354,-0.0421063 -0.0332795,-0.0454685 -0.00100787,-0.00015748 -0.353551,-0.0524134 -0.32289,-0.316098 0.0025,-0.0219173 -0.0132402,-0.0417205 -0.0351575,-0.0442205 -0.0219173,-0.0025 -0.0417205,0.0132402 -0.0442205,0.0351575 -0.0395866,0.340472 0.38885,0.403717 0.390079,0.403909z"/>
  <path class="fil0" d="M3.70995 1.21396c-0.0217441,0.0033622 -0.0366417,0.0237244 -0.0332795,0.0454685 0.0033622,0.0217441 0.0237244,0.0366417 0.0454685,0.0332795 0.00122835,-0.000192913 0.429661,-0.063437 0.390075,-0.403909 -0.0025,-0.0219173 -0.0223031,-0.0376575 -0.0442205,-0.0351575 -0.0219173,0.0025 -0.0376575,0.0223031 -0.0351575,0.0442205 0.0306614,0.263685 -0.321878,0.315941 -0.322886,0.316098z"/>
  <path class="fil0" d="M4.38432 2.80328c-0.0177756,0.0130276 -0.021622,0.0380079 -0.00859449,0.0557835 0.0130276,0.0177756 0.0380079,0.021622 0.0557835,0.00859449l0.491039 -0.362165 -0.0235945 -0.032189 0.0237441 0.0321929c0.00525591,-0.00387402 0.0092874,-0.00879528 0.0120236,-0.0142598l0.285354 -0.460614 0.000129921 7.87402e-005c0.00502756,-0.00811811 0.00679921,-0.0173307 0.00567323,-0.0261181l-0.031752 -0.461272c-0.00146457,-0.0220039 -0.0204961,-0.0386496 -0.0425,-0.037185 -0.0220039,0.00146457 -0.0386496,0.0204961 -0.037185,0.0425l0.0310512 0.451055 -0.276283 0.445969 -0.48489 0.35763z"/>
  <path class="fil0" d="M4.2025 4.61164c-0.0177756,-0.0130276 -0.0427559,-0.0091811 -0.0557835,0.00859449 -0.0130276,0.0177756 -0.0091811,0.0427559 0.00859449,0.0557835l0.484886 0.35763 0.27887 0.450146 0.071 0.45563c0.0033622,0.0217441 0.0237244,0.0366417 0.0454685,0.0332795 0.0217441,-0.0033622 0.0366417,-0.0237244 0.0332795,-0.0454685l-0.0717008 -0.460142c-0.000401575,-0.00635433 -0.00233465,-0.0127047 -0.00592126,-0.0184961l-0.000129921 7.87402e-005 -0.285354 -0.460614c-0.00273622,-0.00546457 -0.00676772,-0.0103858 -0.0120236,-0.0142598l-0.0237441 0.0321929 0.0235945 -0.032189 -0.491035 -0.362165z"/>
  <path class="fil0" d="M4.38339 3.47012c-0.0208819,-0.0070748 -0.0435472,0.00411811 -0.050622,0.025 -0.0070748,0.0208819 0.00411811,0.0435472 0.025,0.050622l0.742354 0.253709 0.448661 0.464654 0.158614 0.98498c0.00345276,0.0217441 0.0238819,0.0365748 0.045626,0.033122 0.0217441,-0.00345276 0.0365748,-0.0238819 0.033122,-0.045626l-0.16013 -0.994378c-0.000704724,-0.0089252 -0.00438976,-0.0176772 -0.0110945,-0.024622l-7.48031e-005 7.08661e-005 -0.462012 -0.47848c-0.00454331,-0.00546457 -0.0105906,-0.0097874 -0.0178031,-0.012252l-0.012937 0.0378504 0.012811 -0.037811 -0.751516 -0.256839z"/>
  <path class="fil0" d="M3.90933 5.02993c0.00741732,-0.0207953 -0.0034252,-0.0436772 -0.0242205,-0.0510945 -0.0207953,-0.00741732 -0.0436772,0.0034252 -0.0510945,0.0242205 -0.0909685,0.254681 -0.182996,0.42826 -0.274685,0.521323 -0.0498937,0.0506378 -0.0984016,0.0758622 -0.145236,0.0757677 -0.0467559,-9.44882e-005 -0.0951693,-0.0255472 -0.144961,-0.076248 -0.0918701,-0.0935433 -0.183772,-0.26763 -0.274299,-0.52174 -0.00733071,-0.0207953 -0.0301417,-0.0317087 -0.050937,-0.024378 -0.0207953,0.00733071 -0.0317087,0.0301417 -0.024378,0.050937 0.0944843,0.26522 0.192583,0.449138 0.29274,0.551118 0.0652835,0.0664764 0.132693,0.0998583 0.201835,0.0999961 0.0690512,0.000137795 0.136563,-0.0329921 0.20211,-0.0995157 0.100043,-0.101539 0.198276,-0.284839 0.293126,-0.550386z"/>
  <path class="fil0" d="M2.39689 2.86766c0.0177756,0.0130276 0.0427559,0.0091811 0.0557835,-0.00859449 0.0130276,-0.0177756 0.0091811,-0.0427559 -0.00859449,-0.0557835l-0.48489 -0.35763 -0.276283 -0.445969 0.0310512 -0.451055c0.00146457,-0.0220039 -0.0151811,-0.0410354 -0.037185,-0.0425 -0.0220039,-0.00146457 -0.0410354,0.0151811 -0.0425,0.037185l-0.031752 0.461272c-0.00112598,0.0087874 0.000645669,0.018 0.00567323,0.0261181l0.000129921 -7.87402e-005 0.285354 0.460614c0.00273622,0.00546457 0.00676772,0.0103858 0.0120236,0.0142598l0.0237441 -0.0321929 -0.0235945 0.032189 0.491039 0.362165z"/>
  <path class="fil0" d="M2.67803 4.67602c0.0177756,-0.0130276 0.021622,-0.0380079 0.00859449,-0.0557835 -0.0130276,-0.0177756 -0.0380079,-0.021622 -0.0557835,-0.00859449l-0.491035 0.362165 0.0235945 0.032189 -0.0237441 -0.0321929c-0.00525591,0.00387402 -0.0092874,0.00879528 -0.0120236,0.0142598l-0.285354 0.460614 -0.000129921 -7.87402e-005c-0.00358661,0.00579134 -0.00551969,0.0121417 -0.00592126,0.0184961l-0.0717008 0.460142c-0.0033622,0.0217441 0.0115354,0.0421063 0.0332795,0.0454685 0.0217441,0.0033622 0.0421063,-0.0115354 0.0454685,-0.0332795l0.071 -0.45563 0.27887 -0.450146 0.484886 -0.35763z"/>
  <path class="fil0" d="M2.4689 3.54574c0.0208819,-0.0070748 0.0320748,-0.0297402 0.025,-0.050622 -0.0070748,-0.0208819 -0.0297402,-0.0320748 -0.050622,-0.025l-0.751516 0.256839 0.012811 0.037811 -0.012937 -0.0378504c-0.0072126,0.00246457 -0.0132598,0.0067874 -0.0178031,0.012252l-0.462012 0.47848 -7.48031e-005 -7.08661e-005c-0.00670472,0.00694488 -0.0103898,0.0156969 -0.0110945,0.024622l-0.16013 0.994378c-0.00345276,0.0217441 0.011378,0.0421732 0.033122,0.045626 0.0217441,0.00345276 0.0421732,-0.011378 0.045626,-0.033122l0.158614 -0.98498 0.448661 -0.464654 0.742354 -0.253709z"/>
 </g>
 <rect class="fil1" width="6.82666" height="6.82666"/>
</svg>
