<?xml version="1.0" encoding="UTF-8"?>
<!DOCTYPE svg PUBLIC "-//W3C//DTD SVG 1.1//EN" "http://www.w3.org/Graphics/SVG/1.1/DTD/svg11.dtd">
<!-- Creator: CorelDRAW -->
<svg xmlns="http://www.w3.org/2000/svg" xml:space="preserve" width="6.82666in" height="6.82666in" style="shape-rendering:geometricPrecision; text-rendering:geometricPrecision; image-rendering:optimizeQuality; fill-rule:evenodd; clip-rule:evenodd"
viewBox="0 0 6.82666 6.82666"
 xmlns:xlink="http://www.w3.org/1999/xlink">
 <defs>
  <style type="text/css">
   <![CDATA[
    .fil1 {fill:none}
    .fil0 {fill:#212121;fill-rule:nonzero}
   ]]>
  </style>
 </defs>
 <g id="Layer_x0020_1">
  <metadata id="CorelCorpID_0Corel-Layer"/>
  <path class="fil0" d="M3.19285 1.67332c0.015185,-0.0159606 0.0145551,-0.0412205 -0.00140551,-0.0564055 -0.0159606,-0.015185 -0.0412205,-0.0145551 -0.0564055,0.00140551 -0.00740945,0.00779921 -2.59924,2.71215 -1.16447,3.42204l-4.33071e-005 9.05512e-005c0.00151181,0.000748031 0.00304724,0.0013937 0.00460236,0.00193307 0.0311457,0.0122441 0.463535,0.167469 1.1428,-0.378579 0.0171693,-0.0138071 0.0199016,-0.0389252 0.00609449,-0.0560945 -0.0138071,-0.0171693 -0.0389252,-0.0199016 -0.0560945,-0.00609449 -0.645524,0.518921 -1.03733,0.376783 -1.06328,0.36652 -1.33374,-0.662398 1.181,-3.28725 1.18819,-3.29481z"/>
  <path class="fil0" d="M3.55582 1.92686c0.0811378,0.171335 0.151764,0.51226 0.203799,0.898461 0.0589646,0.437642 0.0944882,0.934394 0.0944882,1.3072 0,0.393169 -0.110591,0.647197 -0.25215,0.760358l5.11811e-005 6.29921e-005c-0.00112598,0.000901575 -0.00228346,0.00172441 -0.00347244,0.00248425 -0.0582677,0.0455236 -0.12174,0.0682953 -0.185575,0.0682953 -0.0650315,0 -0.129681,-0.0236339 -0.188843,-0.070878l-7.87402e-005 9.84252e-005 -7.87402e-005 -6.29921e-005 -4.72441e-005 5.90551e-005c-0.000775591,-0.000622047 -0.00151969,-0.00126378 -0.00224016,-0.00192913 -0.140457,-0.114067 -0.249862,-0.367441 -0.249862,-0.758488 0,-0.372807 0.0355236,-0.869559 0.0944882,-1.3072 0.0521811,-0.387283 0.123055,-0.729055 0.204476,-0.899921l0.0360945 0.017189 -0.0361102 -0.0172087c0.00950394,-0.0199409 0.033378,-0.0284055 0.0533189,-0.0189016 0.00092126,0.000440945 0.0018189,0.000909449 0.00268898,0.00140551 0.0128583,0.00579134 0.0263661,0.0103307 0.0403583,0.0134449 0.0142953,0.00317717 0.029622,0.00485827 0.0458307,0.00485827 0.0162087,0 0.0315394,-0.0016811 0.0458346,-0.00485827 0.015063,-0.00335039 0.0295709,-0.00835827 0.0433071,-0.0148031l-6.69291e-005 -0.000141732c0.0199921,-0.0093937 0.0438228,-0.000799213 0.0532165,0.0191929l0.000570866 0.00127953zm0.124736 0.909083c-0.0478583,-0.355193 -0.111024,-0.669783 -0.182709,-0.842571 -0.00716929,0.00219685 -0.0144606,0.00412598 -0.0218661,0.00577165 -0.0207362,0.00461024 -0.0418504,0.00704724 -0.0630236,0.00704724 -0.0211772,0 -0.0422835,-0.00243701 -0.0630197,-0.00704724 -0.00740551,-0.00164567 -0.0147008,-0.0035748 -0.0218701,-0.00577165 -0.071685,0.172787 -0.134846,0.487382 -0.182705,0.842575 -0.058378,0.433303 -0.0935512,0.926028 -0.0935512,1.29658 0,0.364827 0.0965512,0.596488 0.220406,0.696685 0.000551181,0.000393701 0.00109843,0.000807087 0.00163386,0.00123622l-0.000122047 0.000153543c0.0443189,0.0354134 0.0919724,0.053126 0.139232,0.053126 0.0462165,0 0.0928071,-0.0169409 0.136291,-0.0508071 0.000893701,-0.000862205 0.00183071,-0.00168898 0.0028189,-0.00247638l0.000125984 0.00015748 0.0248425 0.0310945 -0.0248425 -0.031252c0.124579,-0.0995354 0.221909,-0.33161 0.221909,-0.697917 0,-0.370555 -0.0351732,-0.86328 -0.0935512,-1.29658z"/>
  <path class="fil0" d="M3.66169 1.41815c0.0130472,0.0292756 0.023315,0.061 0.0302756,0.0944291 0.00702756,0.0337795 0.0108031,0.0691496 0.0108031,0.105346 0,0.104713 -0.0308268,0.200055 -0.0806693,0.269535 -0.0526102,0.0733504 -0.126488,0.118724 -0.209138,0.118724 -0.0826496,0 -0.156528,-0.045374 -0.209138,-0.118724 -0.0498346,-0.0694803 -0.0806654,-0.164823 -0.0806654,-0.269535 0,-0.0361969 0.00377559,-0.071563 0.0108071,-0.105343 0.00722047,-0.0346969 0.0180079,-0.0675512 0.0317717,-0.097748l-0.000133858 -5.90551e-005c0.00682283,-0.0149685 0.0217283,-0.0237047 0.0371969,-0.0234055l0.42113 0c0.0174567,0 0.0322992,0.011189 0.0377598,0.0267795zm-0.0478504 0.110681c-0.00419291,-0.0201378 -0.00974016,-0.0393622 -0.0164803,-0.0574606l-0.368787 0c-0.00674016,0.0180984 -0.0122874,0.0373228 -0.0164803,0.0574646 -0.00581496,0.0279213 -0.00893307,0.0578031 -0.00893307,0.0890906 0,0.0876181 0.0250984,0.166417 0.0656654,0.222976 0.0377913,0.052689 0.0888307,0.0852835 0.144138,0.0852835 0.0553071,0 0.106346,-0.0325945 0.144138,-0.0852835 0.0405709,-0.0565591 0.0656693,-0.135358 0.0656693,-0.222976 0,-0.0312874 -0.00312205,-0.0611732 -0.00892913,-0.0890945z"/>
  <path class="fil0" d="M3.30021 1.15796l0.225598 0c0.0392323,0 0.074874,0.0160276 0.100685,0.0418386 0.025815,0.025815 0.0418425,0.0614646 0.0418425,0.100689l0 0.130878c0,0.0220906 -0.0179094,0.04 -0.04,0.04l-0.430654 0c-0.0220906,0 -0.04,-0.0179094 -0.04,-0.04l0 -0.130878c0,-0.0392362 0.0160276,-0.074878 0.0418386,-0.100689 0.025811,-0.025811 0.0614528,-0.0418386 0.100689,-0.0418386zm0.225598 0.08l-0.225598 0c-0.0171535,0 -0.0327835,0.00705118 -0.0441299,0.0183976 -0.0113465,0.0113465 -0.0183976,0.0269764 -0.0183976,0.0441299l0 0.090878 0.350654 0 0 -0.090878c0,-0.0171496 -0.00705118,-0.0327795 -0.0184016,-0.0441299 -0.0113465,-0.0113465 -0.0269764,-0.0183976 -0.044126,-0.0183976z"/>
  <path class="fil0" d="M3.21569 1.20433c0,0.0220906 0.0179094,0.04 0.04,0.04 0.0220906,0 0.04,-0.0179094 0.04,-0.04 0,-0.0295315 0.0127756,-0.0563386 0.0334213,-0.0757992 0.0212953,-0.0200787 0.0509528,-0.0325 0.0838976,-0.0325 0.0329449,0 0.0625984,0.0124213 0.0839016,0.0325 0.0206457,0.0194606 0.0334213,0.0462677 0.0334213,0.0757992 0,0.0220906 0.0179094,0.04 0.04,0.04 0.0220906,0 0.04,-0.0179094 0.04,-0.04 0,-0.052374 -0.0224528,-0.0997244 -0.0587362,-0.133925 -0.0356378,-0.0335906 -0.0846535,-0.054374 -0.138587,-0.054374 -0.053937,0 -0.102953,0.0207835 -0.138583,0.054374 -0.0362835,0.0342008 -0.0587362,0.0815512 -0.0587362,0.133925z"/>
  <path class="fil0" d="M3.27114 1.16711c0.0216575,0.00388189 0.0423701,-0.0105315 0.046252,-0.032189 0.00388189,-0.0216575 -0.0105315,-0.0423701 -0.032189,-0.046252 -0.000393701,-7.08661e-005 -0.138272,-0.0237992 -0.126307,-0.143366 0.00215354,-0.0219173 -0.0138661,-0.0414409 -0.0357835,-0.0435945 -0.0219173,-0.00215354 -0.0414409,0.0138661 -0.0435945,0.0357835 -0.0193543,0.193413 0.191024,0.229512 0.191622,0.229618z"/>
  <path class="fil0" d="M3.54071 1.08867c-0.0216575,0.00388189 -0.0360709,0.0245945 -0.032189,0.046252 0.00388189,0.0216575 0.0245945,0.0360709 0.046252,0.032189 0.000598425,-0.000106299 0.210976,-0.0362047 0.191622,-0.229618 -0.00215354,-0.0219173 -0.0216772,-0.037937 -0.0435945,-0.0357835 -0.0219173,0.00215354 -0.037937,0.0216772 -0.0357835,0.0435945 0.0119646,0.119567 -0.125913,0.143295 -0.126307,0.143366z"/>
  <path class="fil0" d="M3.6906 1.61832c-0.015185,-0.0159606 -0.0404449,-0.0165906 -0.0564055,-0.00140551 -0.0159606,0.015185 -0.0165906,0.0404449 -0.00140551,0.0564055 0.00719291,0.00756693 2.52194,2.63242 1.1882,3.29481 -0.0259488,0.0102638 -0.417752,0.152402 -1.06328,-0.36652 -0.0171693,-0.0138071 -0.0422874,-0.0110748 -0.0560945,0.00609449 -0.0138071,0.0171693 -0.0110748,0.0422874 0.00609449,0.0560945 0.679268,0.546047 1.11166,0.390823 1.1428,0.378579 0.00155512,-0.00053937 0.00309055,-0.00118504 0.00460236,-0.00193307l-4.33071e-005 -9.05512e-005c1.43477,-0.709894 -1.15706,-3.41424 -1.16447,-3.42204z"/>
  <path class="fil0" d="M3.1534 1.58043c0.0203622,0.00853937 0.0438031,-0.00104331 0.0523425,-0.0214055 0.00853937,-0.0203622 -0.00104331,-0.0438031 -0.0214055,-0.0523425l-0.680205 -0.285429 -0.262929 -0.351827c-0.0132008,-0.017689 -0.038248,-0.0213268 -0.055937,-0.00812598 -0.017689,0.0132008 -0.0213268,0.038248 -0.00812598,0.055937l0.268512 0.359295c0.00419685,0.00614173 0.0101535,0.011185 0.0175236,0.0142795l0.0154764 -0.0368858 -0.0154685 0.036874 0.690217 0.28963z"/>
  <path class="fil0" d="M2.51898 2.44067c0.0219173,0.00207087 0.0413701,-0.0140197 0.0434409,-0.035937 0.00207087,-0.0219173 -0.0140197,-0.0413701 -0.035937,-0.0434409l-0.586756 -0.0574921 1.1811e-005 -0.000133858c-0.0114606,-0.00112205 -0.0222677,0.00270866 -0.0302913,0.00975197l-0.792476 0.607362c-0.0175157,0.013374 -0.020874,0.0384252 -0.0075,0.0559409 0.013374,0.0175157 0.0384252,0.020874 0.0559409,0.0075l0.782256 -0.599528 0.571311 0.0559764z"/>
  <path class="fil0" d="M2.58746 5.91411c-0.0106142,0.0193268 -0.00354724,0.0436063 0.0157795,0.0542205 0.0193268,0.0106142 0.0436063,0.00354724 0.0542205,-0.0157795l0.283362 -0.517165 -0.035 -0.0192205 0.0350787 0.0192205c0.00525197,-0.00958268 0.00616535,-0.020374 0.00340551,-0.0301181l-0.142634 -0.557819c-0.00543307,-0.0214016 -0.0271929,-0.0343425 -0.0485945,-0.0289094 -0.0214016,0.00543307 -0.0343425,0.0271929 -0.0289094,0.0485945l0.139028 0.543728 -0.275736 0.503248z"/>
  <path class="fil0" d="M3.64232 1.50668c-0.0203622,0.00853937 -0.0299449,0.0319803 -0.0214055,0.0523425 0.00853937,0.0203622 0.0319803,0.0299449 0.0523425,0.0214055l0.690217 -0.28963 -0.0154685 -0.036874 0.0154764 0.0368858c0.00737008,-0.00309449 0.0133268,-0.0081378 0.0175236,-0.0142795l0.268512 -0.359295c0.0132008,-0.017689 0.00956299,-0.0427362 -0.00812598,-0.055937 -0.017689,-0.0132008 -0.0427362,-0.00956299 -0.055937,0.00812598l-0.262929 0.351827 -0.680205 0.285429z"/>
  <path class="fil0" d="M4.30017 2.36129c-0.0219173,0.00207087 -0.0380079,0.0215236 -0.035937,0.0434409 0.00207087,0.0219173 0.0215236,0.0380079 0.0434409,0.035937l0.571311 -0.0559764 0.782256 0.599528c0.0175157,0.013374 0.0425669,0.0100157 0.0559409,-0.0075 0.013374,-0.0175157 0.0100157,-0.0425669 -0.0075,-0.0559409l-0.792476 -0.607362c-0.00802362,-0.00704331 -0.0188307,-0.010874 -0.0302913,-0.00975197l1.1811e-005 0.000133858 -0.586756 0.0574921z"/>
  <path class="fil0" d="M4.16919 5.95256c0.0106142,0.0193268 0.0348937,0.0263937 0.0542205,0.0157795 0.0193268,-0.0106142 0.0263937,-0.0348937 0.0157795,-0.0542205l-0.275736 -0.503248 0.139028 -0.543728c0.00543307,-0.0214016 -0.00750787,-0.0431614 -0.0289094,-0.0485945 -0.0214016,-0.00543307 -0.0431614,0.00750787 -0.0485945,0.0289094l-0.142634 0.557819c-0.00275984,0.00974409 -0.00184646,0.0205354 0.00340551,0.0301181l0.0350787 -0.0192205 -0.035 0.0192205 0.283362 0.517165z"/>
 </g>
 <rect class="fil1" width="6.82666" height="6.82666"/>
</svg>
