<?xml version="1.0" encoding="UTF-8"?>
<!DOCTYPE svg PUBLIC "-//W3C//DTD SVG 1.1//EN" "http://www.w3.org/Graphics/SVG/1.1/DTD/svg11.dtd">
<!-- Creator: CorelDRAW -->
<svg xmlns="http://www.w3.org/2000/svg" xml:space="preserve" width="6.82666in" height="6.82666in" style="shape-rendering:geometricPrecision; text-rendering:geometricPrecision; image-rendering:optimizeQuality; fill-rule:evenodd; clip-rule:evenodd"
viewBox="0 0 6.82666 6.82666"
 xmlns:xlink="http://www.w3.org/1999/xlink">
 <defs>
  <style type="text/css">
   <![CDATA[
    .fil1 {fill:none}
    .fil0 {fill:#212121;fill-rule:nonzero}
   ]]>
  </style>
 </defs>
 <g id="Layer_x0020_1">
  <metadata id="CorelCorpID_0Corel-Layer"/>
  <path class="fil0" d="M1.69842 2.74934c0.22128,0 0.421512,0.0961417 0.566343,0.251571 0.144122,0.154661 0.233264,0.368091 0.233264,0.603602 0,0.235516 -0.0891457,0.448937 -0.233264,0.603602 -0.144835,0.155429 -0.345063,0.251567 -0.566343,0.251567 -0.22128,0 -0.421508,-0.0961378 -0.566346,-0.251571 -0.144118,-0.154661 -0.233264,-0.368087 -0.233264,-0.603598 0,-0.235512 0.0891457,-0.448941 0.233264,-0.603602 0.144839,-0.155433 0.345067,-0.251571 0.566346,-0.251571zm0.507902 0.305949c-0.130083,-0.139598 -0.309665,-0.225949 -0.507902,-0.225949 -0.198236,0 -0.377819,0.0863465 -0.507906,0.225949 -0.130795,0.140366 -0.211705,0.334539 -0.211705,0.549224 0,0.214685 0.0809094,0.408854 0.211705,0.54922 0.130087,0.139602 0.309669,0.225949 0.507906,0.225949 0.198236,0 0.377819,-0.0863465 0.507902,-0.225945 0.130799,-0.14037 0.211705,-0.334535 0.211705,-0.549224 0,-0.214685 -0.0809016,-0.408858 -0.211705,-0.549224z"/>
  <path class="fil0" d="M1.57774 2.76926c-0.0138071,0.0171693 -0.0110748,0.0422874 0.00609449,0.0560945 0.0171693,0.0138071 0.0422874,0.0110748 0.0560945,-0.00609449 0.0655472,-0.0813976 0.148803,-0.147831 0.243854,-0.193366 0.0913425,-0.0437598 0.193925,-0.0682756 0.3025,-0.0682756 0.193598,0 0.36887,0.0784685 0.495732,0.205331 0.126862,0.126862 0.205331,0.302134 0.205331,0.495732 0,0.136142 -0.0387441,0.26315 -0.10578,0.370594 -0.0693976,0.111213 -0.168965,0.201543 -0.287173,0.259453 -0.00312205,0.00152756 -0.00645669,0.00320472 -0.0100551,0.00501181 -0.0247992,0.0124606 -0.0653465,0.0328307 -0.0997677,0.0364094 -0.0219173,0.00224016 -0.0378661,0.0218346 -0.035626,0.043752 0.00224016,0.0219173 0.0218346,0.0378661 0.043752,0.035626 0.0486969,-0.00506299 0.0974488,-0.0295551 0.127264,-0.0445354 0.0035,-0.00175984 0.00671654,-0.00337402 0.00943307,-0.00470472 0.131874,-0.0646063 0.242819,-0.165157 0.319984,-0.288823 0.0747598,-0.119823 0.117969,-0.261299 0.117969,-0.412783 0,-0.215673 -0.0874291,-0.410949 -0.228772,-0.552291 -0.141343,-0.141343 -0.336618,-0.228772 -0.552291,-0.228772 -0.120398,0 -0.234661,0.0274331 -0.336878,0.0764016 -0.106047,0.0508031 -0.198795,0.124752 -0.271665,0.21524z"/>
  <path class="fil0" d="M2.16833 2.48382c-0.018378,0.0120787 -0.0234843,0.0367756 -0.0114055,0.0551535 0.0120787,0.018378 0.0367756,0.0234843 0.0551535,0.0114055 0.0504213,-0.0331457 0.106138,-0.0593268 0.165736,-0.077122 0.0572677,-0.0170984 0.118098,-0.0262874 0.181217,-0.0262874 0.174646,0 0.33276,0.0707874 0.447201,0.185228 0.114441,0.114445 0.185228,0.272559 0.185228,0.447205 0,0.138559 -0.0444961,0.266646 -0.119957,0.370744 -0.0775315,0.106953 -0.187677,0.188685 -0.315783,0.230543 -0.0209685,0.00681496 -0.0324409,0.0293425 -0.025626,0.050311 0.00681496,0.0209685 0.0293425,0.0324409 0.050311,0.025626 0.144421,-0.047189 0.268516,-0.13922 0.355783,-0.259606 0.0850906,-0.11739 0.135272,-0.261681 0.135272,-0.417618 0,-0.196728 -0.079748,-0.374835 -0.208669,-0.503764 -0.128921,-0.128921 -0.307039,-0.208669 -0.50376,-0.208669 -0.0707638,0 -0.13926,0.0103898 -0.204028,0.0297283 -0.0666457,0.0199016 -0.129413,0.0494803 -0.186673,0.087122z"/>
  <path class="fil0" d="M2.77614 2.40978c-0.0207953,0.00724803 -0.0317795,0.0299882 -0.0245315,0.0507835 0.00724803,0.0207953 0.0299882,0.0317795 0.0507835,0.0245315 0.0301299,-0.0105236 0.0615118,-0.0186535 0.0939016,-0.024126 0.0312756,-0.0052874 0.0637244,-0.00804724 0.0971299,-0.00804724 0.159858,0 0.304579,0.0647913 0.409331,0.169543 0.104752,0.104748 0.169543,0.249472 0.169543,0.409331 0,0.159858 -0.0647913,0.304579 -0.169543,0.409331 -0.104752,0.104752 -0.249472,0.169543 -0.409331,0.169543 -0.0124291,0 -0.0237598,-0.000311024 -0.0340157,-0.000913386 -0.0110669,-0.000653543 -0.0225157,-0.00168504 -0.0342992,-0.00306299 -0.0219173,-0.0025 -0.0417205,0.0132402 -0.0442205,0.0351575 -0.0025,0.0219173 0.0132402,0.0417205 0.0351575,0.0442205 0.0123307,0.00144488 0.0252244,0.00257874 0.0386772,0.00337008 0.0137913,0.000811024 0.0267165,0.00122835 0.0387008,0.00122835 0.181937,0 0.346654,-0.073748 0.46589,-0.192984 0.119236,-0.119236 0.192984,-0.283953 0.192984,-0.46589 0,-0.181933 -0.073752,-0.346661 -0.192984,-0.46589 -0.119236,-0.119236 -0.283953,-0.192984 -0.46589,-0.192984 -0.0372638,0 -0.0741142,0.00318898 -0.110256,0.00929921 -0.036689,0.00620079 -0.0724646,0.0154882 -0.107028,0.0275591z"/>
  <path class="fil0" d="M3.37074 2.5081c-0.0210551,0.00647244 -0.032878,0.0287913 -0.0264055,0.0498465 0.00647244,0.0210551 0.0287913,0.032878 0.0498465,0.0264055 0.00928346,-0.00284646 0.033685,-0.00495276 0.0450866,-0.00593307l-0.00327953 -0.0398425 0.00343307 0.0398543 0.000937008 -9.44882e-005 0.00222047 -0.000192913 -7.87402e-006 -0.000110236 4.33071e-005 -7.87402e-006 1.1811e-005 0.000122047c0.00116535,-0.000102362 0.00231102,-0.000255906 0.00344094,-0.000452756 0.00593307,-0.000480315 0.0122992,-0.000870079 0.0190984,-0.00117323 0.00572441,-0.000255906 0.0132756,-0.000385827 0.0226299,-0.000385827 0.139031,0 0.264898,0.0563504 0.356,0.147453 0.0911024,0.0911024 0.147453,0.216969 0.147453,0.356 0,0.139031 -0.0563504,0.264898 -0.147453,0.356 -0.0911024,0.0911024 -0.216972,0.147457 -0.356,0.147457 -0.0339094,0 -0.0669488,-0.00332283 -0.0987953,-0.00965354 -0.0327559,-0.00651181 -0.0643189,-0.0161811 -0.0943346,-0.0286575 -0.0203622,-0.00845276 -0.0437323,0.00120079 -0.052185,0.021563 -0.00845276,0.0203622 0.00120079,0.0437323 0.021563,0.052185 0.0350157,0.0145551 0.0717047,0.025811 0.109642,0.0333504 0.0369921,0.00735039 0.0751575,0.0112126 0.11411,0.0112126 0.16111,0 0.306972,-0.065311 0.412559,-0.170898 0.105587,-0.105587 0.170894,-0.251449 0.170894,-0.412559 0,-0.16111 -0.0653071,-0.306972 -0.170894,-0.412559 -0.105587,-0.105587 -0.251449,-0.170894 -0.412559,-0.170894 -0.0069685,0 -0.0156654,0.00023622 -0.0260709,0.000700787 -0.0070748,0.000311024 -0.0145669,0.000807087 -0.0224528,0.0014685 -0.00119291,-3.93701e-006 -0.00240157,4.33071e-005 -0.00361417,0.000149606l0 7.87402e-006 -0.00233071 0.000204724 -0.000771654 5.51181e-005 0 1.1811e-005 -3.93701e-006 0 0 1.5748e-005c-0.0139882,0.00120472 -0.0436299,0.00377165 -0.061811,0.00935039z"/>
  <path class="fil0" d="M3.9492 2.77494c-0.0209685,0.00672835 -0.0325079,0.029189 -0.0257795,0.0501575 0.00672835,0.0209685 0.029189,0.0325079 0.0501575,0.0257795 0.0221417,-0.00715354 0.0448504,-0.0126339 0.0679409,-0.0162559 0.0221693,-0.00348031 0.0455433,-0.00529528 0.0700118,-0.00529528 0.123681,0 0.235654,0.0501299 0.316697,0.131177 0.0810472,0.0810433 0.131177,0.193016 0.131177,0.316701 0,0.123681 -0.0501299,0.235657 -0.131173,0.316701 -0.0810433,0.0810433 -0.193016,0.131173 -0.316701,0.131173 -0.0718583,0 -0.13972,-0.0168898 -0.199823,-0.0468976 -0.0626102,-0.0312598 -0.116787,-0.0765866 -0.158315,-0.131752 -0.0132008,-0.0176024 -0.0381772,-0.0211693 -0.0557795,-0.0079685 -0.0176024,0.0132008 -0.0211693,0.0381772 -0.0079685,0.0557795 0.0491772,0.0653228 0.112976,0.118819 0.186441,0.1555 0.0709213,0.0354094 0.15089,0.0553386 0.235445,0.0553386 0.145764,0 0.277736,-0.0590906 0.37326,-0.154614 0.0955236,-0.0955236 0.154614,-0.227504 0.154614,-0.37326 0,-0.145764 -0.0590906,-0.277736 -0.154618,-0.37326 -0.0955236,-0.0955276 -0.2275,-0.154618 -0.373256,-0.154618 -0.027311,0 -0.0547874,0.00224409 -0.0822008,0.00654724 -0.0276575,0.00434252 -0.0544291,0.0107638 -0.0801299,0.0190669z"/>
  <path class="fil0" d="M4.43498 2.87693c-0.0218307,0.00275984 -0.0372913,0.0227008 -0.0345315,0.0445315 0.00275984,0.0218307 0.0227008,0.0372913 0.0445315,0.0345315 0.00785827,-0.000992126 0.0165827,-0.00179528 0.0261693,-0.00239764 0.00787402,-0.000496063 0.0166614,-0.000748031 0.0263425,-0.000748031 0.114299,0 0.217783,0.0463307 0.292681,0.121228 0.0748976,0.0748976 0.121228,0.178382 0.121228,0.292681 0,0.114299 -0.0463307,0.217783 -0.121228,0.292681 -0.0748976,0.0748937 -0.178382,0.121224 -0.292681,0.121224 -0.0415079,0 -0.0814685,-0.00605906 -0.119051,-0.0173228 -0.0389921,-0.011689 -0.0755354,-0.0289488 -0.108677,-0.0508307 -0.018378,-0.0121654 -0.0431457,-0.00712992 -0.055311,0.011248 -0.0121654,0.018378 -0.00712992,0.0431457 0.011248,0.055311 0.0397323,0.0262323 0.0834213,0.0468898 0.129929,0.0608307 0.0450433,0.0135 0.0926772,0.0207638 0.141862,0.0207638 0.136382,0 0.259862,-0.0552913 0.34924,-0.144665 0.0893819,-0.0893819 0.144669,-0.212858 0.144669,-0.34924 0,-0.136382 -0.0552874,-0.259858 -0.144669,-0.34924 -0.0893819,-0.0893819 -0.212858,-0.144669 -0.34924,-0.144669 -0.00968898,0 -0.0201496,0.000358268 -0.0313425,0.00106299 -0.00969291,0.000606299 -0.0200984,0.00162205 -0.0311693,0.00301969z"/>
  <path class="fil0" d="M4.73911 2.97464c-0.015185,0.015878 -0.014626,0.0410669 0.00125197,0.056252 0.015878,0.015185 0.0410669,0.014626 0.056252,-0.00125197 0.0359921,-0.0376142 0.0796378,-0.0680748 0.128528,-0.0889606 0.0467835,-0.0199882 0.0984488,-0.0310591 0.152862,-0.0310591 0.10748,0 0.204787,0.043563 0.275217,0.113992 0.0704291,0.0704252 0.113992,0.167732 0.113992,0.275217 0,0.10748 -0.043563,0.204787 -0.113992,0.275217 -0.0704291,0.0704291 -0.167736,0.113992 -0.275217,0.113992 -0.0386063,0 -0.075689,-0.00552362 -0.110492,-0.0158031 -0.0362087,-0.0106929 -0.0702008,-0.0265 -0.101106,-0.0465591 -0.0184646,-0.0119921 -0.0431654,-0.00674803 -0.0551575,0.0117165 -0.0119921,0.0184646 -0.00674803,0.0431654 0.0117165,0.0551575 0.0373858,0.0242677 0.0784173,0.0433583 0.122043,0.0562441 0.0423819,0.0125197 0.0870315,0.0192441 0.132996,0.0192441 0.129563,0 0.246862,-0.0525197 0.331776,-0.137433 0.0849134,-0.0849134 0.137433,-0.202213 0.137433,-0.331776 0,-0.129559 -0.0525197,-0.24687 -0.137433,-0.331776 -0.0849134,-0.0849134 -0.202213,-0.137433 -0.331776,-0.137433 -0.0652047,0 -0.127445,0.0134055 -0.184114,0.0376181 -0.0585827,0.0250276 -0.111146,0.0618031 -0.15478,0.107402z"/>
  <path class="fil0" d="M5.20758 2.86744c-0.0170827,0.0138937 -0.0196732,0.0390118 -0.00577953,0.0560945 0.0138937,0.0170827 0.0390118,0.0196732 0.0560945,0.00577953 0.034126,-0.0278858 0.0730984,-0.0501024 0.115461,-0.0651969 0.0407638,-0.0145197 0.0847835,-0.0224331 0.130764,-0.0224331 0.107484,0 0.204791,0.043563 0.27522,0.113992 0.0704252,0.0704291 0.113992,0.167736 0.113992,0.275217 0,0.10748 -0.0435669,0.204787 -0.113992,0.275217 -0.0704291,0.0704291 -0.167736,0.113992 -0.27522,0.113992 -0.0249055,0 -0.0488504,-0.00222441 -0.0716457,-0.00645669 -0.0237008,-0.00440551 -0.046685,-0.0109803 -0.0687126,-0.0195 -0.0205354,-0.00793701 -0.043626,0.00227953 -0.051563,0.022815 -0.00793701,0.0205354 0.00227953,0.043626 0.022815,0.051563 0.0265827,0.0102795 0.054374,0.0182244 0.0830827,0.023563 0.0283031,0.00525591 0.0570748,0.00801575 0.0860236,0.00801575 0.129559,0 0.246866,-0.0525197 0.33178,-0.137433 0.0849055,-0.0849134 0.137433,-0.202217 0.137433,-0.331776 0,-0.129563 -0.0525276,-0.246862 -0.137433,-0.331776 -0.0849134,-0.0849134 -0.20222,-0.137433 -0.33178,-0.137433 -0.0550748,0 -0.108043,0.00956299 -0.157323,0.0271181 -0.0510394,0.018185 -0.0980315,0.0449843 -0.139217,0.0786378z"/>
  <path class="fil0" d="M1.43132 3.19245c0.0451457,0 0.0860276,0.0183031 0.115614,0.0478976 0.0295945,0.0295866 0.0478976,0.0704685 0.0478976,0.115614 0,0.0451417 -0.0183031,0.0860276 -0.0478976,0.115614 -0.0295866,0.0295945 -0.0704685,0.0478976 -0.115614,0.0478976 -0.0451496,0 -0.0860315,-0.0183071 -0.115618,-0.0478937 -0.0295866,-0.0295866 -0.0478937,-0.0704764 -0.0478937,-0.115618 0,-0.0451496 0.0183071,-0.0860315 0.0478937,-0.115618 0.0295866,-0.0295866 0.0704685,-0.0478937 0.115618,-0.0478937zm0.0590551 0.104457c-0.0151063,-0.0151063 -0.0359882,-0.0244567 -0.0590551,-0.0244567 -0.0230709,0 -0.0439528,0.00934646 -0.0590591,0.0244528 -0.0151063,0.0151063 -0.0244528,0.0359882 -0.0244528,0.0590591 0,0.0230669 0.00934646,0.0439528 0.0244528,0.0590591 0.0151063,0.0151063 0.0359882,0.0244528 0.0590591,0.0244528 0.0230669,0 0.0439488,-0.00935039 0.0590551,-0.0244567 0.0151063,-0.0151063 0.0244567,-0.0359882 0.0244567,-0.0590551 0,-0.0230669 -0.00935039,-0.0439488 -0.0244567,-0.0590551z"/>
  <path class="fil0" d="M1.96551 3.19245c0.0451417,0 0.0860236,0.0183031 0.115618,0.0478937 0.0295866,0.0295866 0.0478937,0.0704685 0.0478937,0.115618 0,0.0451417 -0.0183071,0.0860315 -0.0478937,0.115618 -0.0295945,0.0295906 -0.0704764,0.0478937 -0.115618,0.0478937 -0.0451496,0 -0.0860315,-0.0183071 -0.115618,-0.0478937 -0.0295866,-0.0295866 -0.0478937,-0.0704764 -0.0478937,-0.115618 0,-0.0451496 0.0183071,-0.0860315 0.0478937,-0.115618 0.0295866,-0.0295866 0.0704685,-0.0478937 0.115618,-0.0478937zm0.0590591 0.104453c-0.0151063,-0.0151063 -0.0359921,-0.0244528 -0.0590591,-0.0244528 -0.0230709,0 -0.0439528,0.00934646 -0.0590591,0.0244528 -0.0151063,0.0151063 -0.0244528,0.0359882 -0.0244528,0.0590591 0,0.0230669 0.00934646,0.0439528 0.0244528,0.0590591 0.0151063,0.0151063 0.0359882,0.0244528 0.0590591,0.0244528 0.0230669,0 0.0439528,-0.00934646 0.0590591,-0.0244528 0.0151063,-0.0151063 0.0244528,-0.0359921 0.0244528,-0.0590591 0,-0.0230709 -0.00934646,-0.0439528 -0.0244528,-0.0590591z"/>
  <path class="fil0" d="M1.36403 3.91622c-0.0205354,-0.00802362 -0.0436969,0.00212205 -0.0517205,0.0226575 -0.00802362,0.0205354 0.00212205,0.0436969 0.0226575,0.0517205 0.000850394,0.000334646 0.292945,0.119071 0.722839,0.00124803 0.0212244,-0.00577953 0.033748,-0.0276811 0.0279685,-0.0489055 -0.00577953,-0.0212244 -0.0276811,-0.033748 -0.0489055,-0.0279685 -0.403807,0.110673 -0.672055,0.00155512 -0.672839,0.00124803z"/>
  <path class="fil0" d="M1.32866 2.90846c0.0169961,0.014063 0.042185,0.011685 0.056248,-0.00531102 0.014063,-0.0169961 0.011685,-0.042185 -0.00531102,-0.056248 -0.00105512,-0.000870079 -0.366705,-0.309406 -0.523768,0.128071 -0.00741732,0.0207087 0.00335433,0.0435197 0.024063,0.050937 0.0207087,0.00741732 0.0435197,-0.00335433 0.050937,-0.024063 0.118209,-0.329252 0.397028,-0.0940512 0.397831,-0.0933858z"/>
  <path class="fil0" d="M2.01907 2.84691c-0.0169961,0.014063 -0.019374,0.039252 -0.00531102,0.056248 0.014063,0.0169961 0.039252,0.019374 0.056248,0.00531102 0.00080315,-0.000665354 0.279622,-0.235866 0.397827,0.0933858 0.00741732,0.0207087 0.0302283,0.0314803 0.050937,0.024063 0.0207087,-0.00741732 0.0314803,-0.0302283 0.024063,-0.050937 -0.157059,-0.437476 -0.522709,-0.128941 -0.523764,-0.128071z"/>
 </g>
 <rect class="fil1" width="6.82666" height="6.82666"/>
</svg>
