<?xml version="1.0" encoding="UTF-8"?>
<!DOCTYPE svg PUBLIC "-//W3C//DTD SVG 1.1//EN" "http://www.w3.org/Graphics/SVG/1.1/DTD/svg11.dtd">
<!-- Creator: CorelDRAW -->
<svg xmlns="http://www.w3.org/2000/svg" xml:space="preserve" width="6.82666in" height="6.82666in" style="shape-rendering:geometricPrecision; text-rendering:geometricPrecision; image-rendering:optimizeQuality; fill-rule:evenodd; clip-rule:evenodd"
viewBox="0 0 6.82666 6.82666"
 xmlns:xlink="http://www.w3.org/1999/xlink">
 <defs>
  <style type="text/css">
   <![CDATA[
    .fil1 {fill:none}
    .fil0 {fill:#212121;fill-rule:nonzero}
   ]]>
  </style>
 </defs>
 <g id="Layer_x0020_1">
  <metadata id="CorelCorpID_0Corel-Layer"/>
  <path class="fil0" d="M2.94981 5.14175c0.0102677,0.0195 0.0344055,0.0269843 0.0539055,0.0167165 0.0195,-0.0102677 0.0269843,-0.0344055 0.0167165,-0.0539055 -0.102638,-0.194331 -0.175457,-0.454846 -0.225874,-0.718634 -0.0751496,-0.393217 -0.100181,-0.792693 -0.100181,-0.993291 0,-0.0787598 0.00876772,-0.15472 0.0252047,-0.226602 0.0170079,-0.0743819 0.0421969,-0.144693 0.0743425,-0.209512 0.0319921,-0.0645118 0.0709409,-0.123524 0.115591,-0.175567 0.0433307,-0.0505039 0.0919921,-0.0944016 0.144819,-0.130339l0.700843 0c0.0533583,0.0362756 0.102358,0.0805 0.145811,0.131299 0.0442953,0.0517874 0.0829685,0.110472 0.114772,0.174606 0.0321457,0.0648189 0.0573346,0.13513 0.0743425,0.209512 0.016437,0.0718819 0.0252047,0.147843 0.0252047,0.226602 0,0.169724 -0.0178622,0.483654 -0.0688898,0.815213 -0.0355748,0.231134 -0.0872441,0.470567 -0.160173,0.67489 -0.0151969,0.0425748 -0.0306811,0.0823228 -0.0464094,0.118705 -0.0154331,0.0356969 -0.032,0.0704252 -0.0497441,0.103933 -0.0102677,0.0195 -0.00278346,0.0436378 0.0167165,0.0539055 0.0195,0.0102677 0.0436378,0.00278346 0.0539055,-0.0167165 0.018,-0.0339921 0.0354213,-0.0706457 0.052248,-0.109563 0.0177402,-0.0410354 0.0339094,-0.0822323 0.0485984,-0.12339 0.0747913,-0.209547 0.127642,-0.454161 0.163921,-0.68989 0.0517244,-0.336067 0.0698268,-0.654693 0.0698268,-0.827087 0,-0.0843346 -0.00952756,-0.166287 -0.0273937,-0.244413 -0.0184055,-0.0804921 -0.0457126,-0.156681 -0.0805945,-0.227016 -0.0347717,-0.0701181 -0.0771299,-0.13437 -0.125709,-0.191165 -0.0488661,-0.057126 -0.103925,-0.106681 -0.163827,-0.147087 -0.00474803,-0.00344882 -0.00987795,-0.00624803 -0.0153031,-0.00829921 -0.00697638,-0.00264173 -0.0141969,-0.00403937 -0.0215079,-0.00403937l-0.712256 0c-0.00249606,0 -0.00494094,0.000228346 -0.00730709,0.000669291 -0.00380709,0.000456693 -0.00756299,0.00126772 -0.0112362,0.00246063 -0.0055748,0.00179134 -0.0109803,0.00440551 -0.0161378,0.0078622 -0.0605354,0.0405433 -0.116039,0.0902362 -0.165142,0.147472 -0.0489173,0.0570157 -0.0915512,0.121598 -0.126528,0.192126 -0.0348819,0.0703346 -0.062189,0.146524 -0.0805945,0.227016 -0.0178661,0.078126 -0.0273937,0.160079 -0.0273937,0.244413 0,0.203524 0.0254213,0.608953 0.10174,1.00829 0.0516969,0.27048 0.126909,0.538638 0.233693,0.740823zm0.811161 -2.50767l0 3.93701e-005 0.0144685 -0.0180354 -0.0144685 0.0179961zm-0.0016378 0.00203543l-3.14961e-005 8.66142e-005 0.00166929 -0.00208268 0 -3.93701e-005 -0.0016378 0.00203543zm0 0l-0.00883071 0.0109843 4.33071e-005 1.9685e-005 0.00875591 -0.0109173 3.14961e-005 -8.66142e-005z"/>
  <path class="fil0" d="M2.95146 5.10393c-0.0119921,0.0184646 -0.00674803,0.0431654 0.0117165,0.0551575 0.0184646,0.0119921 0.0431654,0.00674803 0.0551575,-0.0117165 0.111575,-0.171689 0.200031,-0.321496 0.267969,-0.499394 0.0409803,-0.107315 0.0743819,-0.224602 0.100744,-0.362736 0.0249488,0.132634 0.0602008,0.245469 0.104925,0.350335 0.075,0.17585 0.175878,0.32739 0.299421,0.512264 0.012252,0.0182913 0.0370236,0.023189 0.055315,0.010937 0.0182913,-0.012252 0.023189,-0.0370236 0.010937,-0.055315 -0.121118,-0.18124 -0.219996,-0.329772 -0.292232,-0.499138 -0.0716693,-0.168043 -0.117894,-0.358531 -0.13502,-0.625642 7.87402e-006,-0.0202756 -0.0153465,-0.0376654 -0.0359528,-0.0397638 -0.0219764,-0.00223622 -0.0416102,0.0137677 -0.0438465,0.0357441l0.0397953 0.00405118 -0.039689 -0.00390551c-0.0279055,0.274071 -0.0734724,0.472909 -0.139083,0.644728 -0.0656102,0.171807 -0.151591,0.317335 -0.260157,0.484394z"/>
  <path class="fil0" d="M3.18928 2.2298l0.431114 0c0.0522126,0 0.0996535,0.0213346 0.134016,0.0556969 0.0343661,0.0343661 0.0557008,0.0818031 0.0557008,0.134016l0 0.19111c0,0.0220906 -0.0179094,0.04 -0.04,0.04l-0.730543 0c-0.0220906,0 -0.04,-0.0179094 -0.04,-0.04l0 -0.19111c0,-0.0522087 0.0213346,-0.0996535 0.0557008,-0.134012 0.0343583,-0.0343661 0.0818031,-0.0557008 0.134012,-0.0557008zm0.431114 0.08l-0.431114 0c-0.0301299,0 -0.0575551,0.0123583 -0.0774528,0.0322598 -0.0199016,0.0198976 -0.0322598,0.0473228 -0.0322598,0.0774528l0 0.15111 0.650543 0 0 -0.15111c0,-0.0301299 -0.0123583,-0.0575551 -0.0322598,-0.0774567 -0.0199016,-0.0199016 -0.0473228,-0.0322559 -0.0774567,-0.0322559z"/>
  <path class="fil0" d="M3.09797 2.27909c0,0.0220906 0.0179094,0.04 0.04,0.04 0.0220906,0 0.04,-0.0179094 0.04,-0.04 0,-0.0472008 0.0242008,-0.0904409 0.0633228,-0.122185 0.0413858,-0.0335866 0.099185,-0.0543622 0.163547,-0.0543622 0.0643622,0 0.122157,0.0207756 0.163543,0.0543622 0.039122,0.0317441 0.0633228,0.0749843 0.0633228,0.122185 0,0.0220906 0.0179094,0.04 0.04,0.04 0.0220906,0 0.04,-0.0179094 0.04,-0.04 0,-0.0723937 -0.0355433,-0.137433 -0.0930079,-0.184059 -0.055189,-0.0447874 -0.130843,-0.0724882 -0.213858,-0.0724882 -0.0830157,0 -0.158673,0.0277008 -0.213862,0.0724882 -0.0574646,0.046626 -0.0930079,0.111665 -0.0930079,0.184059z"/>
  <path class="fil0" d="M2.65645 3.19191c0.0177756,0.0130276 0.0427559,0.0091811 0.0557835,-0.00859449 0.0130276,-0.0177756 0.0091811,-0.0427559 -0.00859449,-0.0557835l-0.365287 -0.269421 -0.206323 -0.333039 0.0232795 -0.338122c0.00146457,-0.0220039 -0.0151811,-0.0410354 -0.037185,-0.0425 -0.0220039,-0.00146457 -0.0410354,0.0151811 -0.0425,0.037185l-0.0239803 0.348339c-0.00112598,0.0087874 0.000645669,0.018 0.00567323,0.0261181l0.000129921 -7.87402e-005 0.215394 0.347685c0.00273622,0.00546457 0.00676772,0.0103858 0.0120236,0.0142598l0.0237441 -0.0321929 -0.0235945 0.032189 0.371437 0.273957z"/>
  <path class="fil0" d="M2.77537 4.44003c0.0177756,-0.0130276 0.021622,-0.0380079 0.00859449,-0.0557835 -0.0130276,-0.0177756 -0.0380079,-0.021622 -0.0557835,-0.00859449l-0.211445 0.155953 0.0235945 0.032189 -0.0237441 -0.0321929c-0.0100394,0.00740157 -0.0156142,0.0186142 -0.0162047,0.0301693l-0.104913 0.943602 -0.352268 0.401705c-0.0144961,0.0165669 -0.0128189,0.0417559 0.00374803,0.056252 0.0165669,0.0144961 0.0417559,0.0128189 0.056252,-0.00374803l0.358386 -0.408681c0.0064685,-0.00624803 0.010878,-0.0146969 0.0119488,-0.0243307l-0.0397559 -0.00442126 0.039689 0.00437402 0.104622 -0.940984 0.19728 -0.145508z"/>
  <path class="fil0" d="M2.66321 3.79078c0.0220039,-0.0016378 0.0385118,-0.0208071 0.036874,-0.042811 -0.0016378,-0.0220039 -0.0208071,-0.0385118 -0.042811,-0.036874l-0.391071 0.0306024 0.0029685 0.0398425 -0.00312205 -0.039878c-0.0110591,0.000862205 -0.0207126,0.00614961 -0.0273661,0.0139843l-0.310831 0.314224 -0.54185 -0.0043937c-0.0220039,-0.000169291 -0.0399843,0.0175276 -0.0401535,0.0395315 -0.000169291,0.0220039 0.0175276,0.0399843 0.0395315,0.0401535l0.555201 0.00450394c0.0115433,0.0011063 0.0234724,-0.00279921 0.0322638,-0.011685l-8.26772e-005 -7.87402e-005 0.314252 -0.317685 0.376197 -0.029437z"/>
  <path class="fil0" d="M4.10498 3.12754c-0.0177756,0.0130276 -0.021622,0.0380079 -0.00859449,0.0557835 0.0130276,0.0177756 0.0380079,0.021622 0.0557835,0.00859449l0.371441 -0.273957 -0.0235945 -0.032189 0.0237441 0.0321929c0.00525591,-0.00387402 0.0092874,-0.00879528 0.0120236,-0.0142598l0.215394 -0.347685 0.000129921 7.87402e-005c0.00502756,-0.00811811 0.00679921,-0.0173307 0.00567323,-0.0261181l-0.0239803 -0.348339c-0.00146457,-0.0220039 -0.0204961,-0.0386496 -0.0425,-0.037185 -0.0220039,0.00146457 -0.0386496,0.0204961 -0.037185,0.0425l0.0232795 0.338122 -0.206323 0.333039 -0.365291 0.269421z"/>
  <path class="fil0" d="M3.78878 5.0275c0.00741732,-0.0207953 -0.0034252,-0.0436772 -0.0242205,-0.0510945 -0.0207953,-0.00741732 -0.0436772,0.0034252 -0.0510945,0.0242205 -0.0683386,0.191327 -0.137197,0.321449 -0.205539,0.390811 -0.0358346,0.0363701 -0.0702126,0.0544882 -0.102937,0.0544213 -0.0326339,-6.69291e-005 -0.0669488,-0.0183583 -0.102724,-0.0547874 -0.0684843,-0.0697283 -0.137248,-0.200217 -0.205244,-0.391083 -0.00733071,-0.0207953 -0.0301417,-0.0317087 -0.050937,-0.024378 -0.0207953,0.00733071 -0.0317087,0.0301417 -0.024378,0.050937 0.0719528,0.201976 0.146917,0.342299 0.223685,0.420461 0.0512677,0.0522047 0.104575,0.0784252 0.159598,0.0785354 0.0549409,0.000110236 0.108323,-0.0259094 0.159811,-0.0781693 0.0766969,-0.0778425 0.15176,-0.217681 0.22398,-0.419874z"/>
  <path class="fil0" d="M3.07035 2.58515c-0.014063,-0.0169961 -0.039252,-0.019374 -0.056248,-0.00531102 -0.0169961,0.014063 -0.019374,0.039252 -0.00531102,0.056248 0.0011378,0.00137402 0.397854,0.470772 0.341748,1.34012 -0.00137795,0.0220039 0.0153386,0.0409646 0.0373425,0.0423425 0.0220039,0.00137795 0.0409646,-0.0153386 0.0423425,-0.0373425 0.0581654,-0.90126 -0.358677,-1.39461 -0.359874,-1.39606z"/>
  <path class="fil0" d="M3.7371 2.30989c-0.0181181,0.0125118 -0.0226654,0.0373504 -0.0101535,0.0554685 0.0125118,0.0181181 0.0373504,0.0226654 0.0554685,0.0101535 0.0665709,-0.0459055 0.123457,-0.119949 0.157398,-0.229807 0.028248,-0.0914331 0.0406614,-0.208098 0.0292677,-0.354539 -0.0569961,-0.732209 0.374717,-0.859327 0.375953,-0.859709 0.0210551,-0.00655512 0.0328071,-0.0289449 0.026252,-0.05 -0.00655512,-0.0210551 -0.0289449,-0.0328071 -0.05,-0.026252 -0.00140945,0.000437008 -0.493858,0.145831 -0.43189,0.941898 0.0105945,0.136146 -0.000425197,0.242925 -0.0258346,0.325161 -0.0281024,0.0909724 -0.073689,0.151236 -0.126461,0.187626z"/>
  <path class="fil0" d="M3.04139 2.37551c0.0181181,0.0125118 0.0429567,0.00796457 0.0554685,-0.0101535 0.0125118,-0.0181181 0.00796457,-0.0429567 -0.0101535,-0.0554685 -0.0527756,-0.0363937 -0.0983583,-0.0966614 -0.126461,-0.18763 -0.0254055,-0.0822323 -0.0364291,-0.189012 -0.0258307,-0.325157 0.0619646,-0.796067 -0.430484,-0.941461 -0.431894,-0.941898 -0.0210551,-0.00655512 -0.0434449,0.00519685 -0.05,0.026252 -0.00655512,0.0210551 0.00519685,0.0434449 0.026252,0.05 0.00123622,0.00038189 0.432949,0.1275 0.375957,0.859709 -0.0113976,0.146437 0.00101969,0.263106 0.0292638,0.354535 0.033937,0.109854 0.0908228,0.183902 0.157398,0.229811z"/>
  <path class="fil0" d="M4.09848 4.37565c-0.0177756,-0.0130276 -0.0427559,-0.0091811 -0.0557835,0.00859449 -0.0130276,0.0177756 -0.0091811,0.0427559 0.00859449,0.0557835l0.19728 0.145508 0.104622 0.940984 0.039689 -0.00437402 -0.0397559 0.00442126c0.00107087,0.00963386 0.00548031,0.0180827 0.0119488,0.0243307l0.358386 0.408681c0.0144961,0.0165669 0.039685,0.0182441 0.056252,0.00374803 0.0165669,-0.0144961 0.0182441,-0.039685 0.00374803,-0.056252l-0.352268 -0.401705 -0.104913 -0.943602c-0.000590551,-0.0115551 -0.00616535,-0.0227677 -0.0162047,-0.0301693l-0.0237441 0.0321929 0.0235945 -0.032189 -0.211445 -0.155953z"/>
  <path class="fil0" d="M4.16939 3.71109c-0.0220039,-0.0016378 -0.0411732,0.0148701 -0.042811,0.036874 -0.0016378,0.0220039 0.0148701,0.0411732 0.036874,0.042811l0.376197 0.029437 0.314252 0.317685 -8.26772e-005 7.87402e-005c0.00879134,0.00888583 0.0207205,0.0127913 0.0322638,0.011685l0.555201 -0.00450394c0.0220039,-0.000169291 0.0397008,-0.0181496 0.0395315,-0.0401535 -0.000169291,-0.0220039 -0.0181496,-0.0397008 -0.0401535,-0.0395315l-0.54185 0.0043937 -0.310831 -0.314224c-0.00665354,-0.00783465 -0.0163071,-0.013122 -0.0273661,-0.0139843l-0.00312205 0.039878 0.0029685 -0.0398425 -0.391071 -0.0306024z"/>
 </g>
 <rect class="fil1" width="6.82666" height="6.82666"/>
</svg>
