<?xml version="1.0" encoding="iso-8859-1"?>
<!-- Uploaded to: SVG Repo, www.svgrepo.com, Generator: SVG Repo Mixer Tools -->
<!DOCTYPE svg PUBLIC "-//W3C//DTD SVG 1.1//EN" "http://www.w3.org/Graphics/SVG/1.1/DTD/svg11.dtd">
<svg fill="#000000" version="1.1" id="Capa_1" xmlns="http://www.w3.org/2000/svg" xmlns:xlink="http://www.w3.org/1999/xlink" 
	 width="800px" height="800px" viewBox="0 0 960.1 960.1" xml:space="preserve"
	>
<g>
	<path d="M881.551,549.4c-18.9,9-40,13.699-62,13.699c-18,0-35.5-3.199-52-9.5c-11.1-4.199-21.3-9.699-30.6-16.399
		c-24.101,19.6-55.601,30.6-88.7,30.6c-28.2,0-55.3-7.899-77.7-22.6c-24.3,20.5-56.4,32.1-90.5,32.1s-66.3-11.5-90.5-32.1
		c-22.4,14.6-49.5,22.6-77.7,22.6c-33.1,0-64.7-11-88.7-30.6c-9.3,6.7-19.5,12.1-30.6,16.399c-16.4,6.301-33.9,9.5-52,9.5
		c-21.9,0-43.1-4.8-62-13.699l-59.7,392.1c-1.5,9.7,6,18.5,15.9,18.5l322.2,0.1c12.5,0,23.699-7.8,28.1-19.5l80.9-230.3
		c4.699-13.399,23.6-13.399,28.3,0l80.8,230.3c4.4,11.7,15.6,19.5,28.1,19.5l322.2-0.1c9.8,0,17.4-8.8,15.9-18.5L881.551,549.4z"/>
	<path d="M83.351,518c16.3,9.5,36,15.1,57.2,15.1c29.4,0,55.8-10.699,74.3-27.8c2.5-2.3,5.7-3.5,8.9-3.5c3.5,0,7,1.4,9.6,4.101
		c18.6,19.5,46.8,31.899,78.5,31.899c27.5,0,52.5-9.399,70.7-24.6c2.5-2.101,5.4-3.101,8.4-3.101c3.5,0,7,1.4,9.6,4.2
		c18.5,20.101,47.3,33,79.5,33s61-12.899,79.5-33c2.6-2.8,6.1-4.2,9.6-4.2c3,0,6,1,8.4,3.101c18.2,15.2,43.2,24.6,70.7,24.6
		c31.7,0,59.899-12.399,78.5-31.899c2.6-2.7,6.1-4.101,9.6-4.101c3.2,0,6.3,1.101,8.9,3.5c18.5,17.101,44.899,27.8,74.3,27.8
		c21.2,0,40.9-5.6,57.2-15.1c26.6-15.6,44-41.8,44-71.4V356.7h-881.4V446.6C39.351,476.3,56.751,502.4,83.351,518z"/>
	<path d="M904.751,320.1l-394.7-212v-17v-17V30c0-16.6-13.4-30-30-30s-30,13.4-30,30v44.1v17v17l-394.7,212
		c-2.3,1.3-4.5,2.8-6.4,4.6h862.2C909.251,322.9,907.15,321.4,904.751,320.1z"/>
</g>
</svg>