<?xml version="1.0" encoding="utf-8"?>
<!-- Generator: Adobe Illustrator 22.0.0, SVG Export Plug-In . SVG Version: 6.00 Build 0)  -->
<svg version="1.1" xmlns="http://www.w3.org/2000/svg" xmlns:xlink="http://www.w3.org/1999/xlink" x="0px" y="0px"
	 viewBox="0 0 256 256" style="enable-background:new 0 0 256 256;" xml:space="preserve">
<style type="text/css">
	.st0{fill:#F9BD55;}
	.st1{fill:#F4DBCE;}
	.st2{fill:#52565B;}
	.st3{fill:#FD605B;}
	.st4{fill:#F98080;}
	.st5{fill:#F9E63A;}
	.st6{fill:#039BE6;}
	.st7{fill:none;stroke:#000000;stroke-width:5;stroke-linecap:round;stroke-linejoin:round;stroke-miterlimit:10;}
	.st8{fill:#7D3D1A;}
	.st9{fill:#EAA250;}
	.st10{fill:#DD7F57;}
	.st11{fill:#FFC097;}
	.st12{fill:#F49667;}
	.st13{fill:#F89422;}
	.st14{fill:#E3E4E5;}
	.st15{fill:#6E7175;}
	.st16{fill:#46BAF9;}
	.st17{fill:#D9F3FF;}
	.st18{fill:#828487;}
	.st19{fill:#A8AEB2;}
	.st20{fill:#C9CDD1;}
	.st21{fill:#8CD8F9;}
	.st22{fill:#1AA7E5;}
	.st23{fill:#ACE7FC;}
	.st24{fill:#FFFFFF;}
	.st25{fill:#9E512B;}
	.st26{fill:#7ED5FC;}
	.st27{fill:#7CCC4E;}
	.st28{fill:#3AA03A;}
	.st29{fill:#FCB1B1;}
	.st30{fill:#F76E23;}
	.st31{fill:#C16A44;}
	.st32{fill:#B796EA;}
</style>
<g id="Layer_1">
</g>
<g id="Layer_2">
</g>
<g id="Layer_3">
</g>
<g id="Layer_4">
</g>
<g id="Layer_5">
</g>
<g id="Layer_6">
</g>
<g id="Layer_7">
</g>
<g id="Layer_8">
</g>
<g id="Layer_9">
</g>
<g id="Layer_10">
</g>
<g id="Layer_11">
</g>
<g id="Layer_12">
</g>
<g id="Layer_13">
</g>
<g id="Layer_14">
</g>
<g id="Layer_15">
</g>
<g id="Layer_16">
</g>
<g id="Layer_17">
</g>
<g id="Layer_18">
</g>
<g id="Layer_19">
</g>
<g id="Layer_20">
</g>
<g id="Layer_21">
</g>
<g id="Layer_22">
</g>
<g id="Layer_23">
</g>
<g id="Layer_24">
</g>
<g id="Layer_25">
</g>
<g id="Layer_26">
</g>
<g id="Layer_27">
</g>
<g id="Layer_28">
</g>
<g id="Layer_29">
</g>
<g id="Layer_30">
</g>
<g id="Layer_31">
</g>
<g id="Layer_32">
</g>
<g id="Layer_33">
</g>
<g id="Layer_34">
</g>
<g id="Layer_35">
</g>
<g id="Layer_36">
</g>
<g id="Layer_37">
</g>
<g id="Layer_38">
</g>
<g id="Layer_39">
</g>
<g id="Layer_40">
</g>
<g id="Layer_41">
</g>
<g id="Layer_42">
</g>
<g id="Layer_43">
</g>
<g id="Layer_44">
</g>
<g id="Layer_45">
</g>
<g id="Layer_46">
</g>
<g id="Layer_47">
</g>
<g id="Layer_48">
</g>
<g id="Layer_49">
</g>
<g id="Layer_50">
</g>
<g id="Layer_51">
</g>
<g id="Layer_52">
</g>
<g id="Layer_53">
</g>
<g id="Layer_54">
</g>
<g id="Layer_55">
</g>
<g id="Layer_56">
</g>
<g id="Layer_57">
</g>
<g id="Layer_58">
</g>
<g id="Layer_59">
</g>
<g id="Layer_60">
</g>
<g id="Layer_61">
</g>
<g id="Layer_62">
</g>
<g id="Layer_63">
</g>
<g id="Layer_64">
</g>
<g id="Layer_65">
</g>
<g id="Layer_66">
</g>
<g id="Layer_67">
</g>
<g id="Layer_68">
</g>
<g id="Layer_69">
</g>
<g id="Layer_70">
</g>
<g id="Layer_71">
</g>
<g id="Layer_72">
</g>
<g id="Layer_73">
</g>
<g id="Layer_74">
</g>
<g id="Layer_75">
</g>
<g id="Layer_76">
</g>
<g id="Layer_77">
</g>
<g id="Layer_78">
</g>
<g id="Layer_79">
</g>
<g id="Layer_80">
</g>
<g id="Layer_81">
</g>
<g id="Layer_82">
</g>
<g id="Layer_83">
</g>
<g id="Layer_84">
</g>
<g id="Layer_85">
</g>
<g id="Layer_86">
</g>
<g id="Layer_87">
</g>
<g id="Layer_88">
</g>
<g id="Layer_89">
</g>
<g id="Layer_90">
</g>
<g id="Layer_91">
</g>
<g id="Layer_92">
</g>
<g id="Layer_93">
</g>
<g id="Layer_94">
</g>
<g id="Layer_95">
</g>
<g id="Layer_96">
</g>
<g id="Layer_97">
</g>
<g id="Layer_98">
	<g>
		<path class="st3" d="M157.822,135.145c-1.776,5.634-5.238,10.108-10.197,12.385c-3.631,1.667-7.632,1.96-11.646,1.086
			c-1.143,6.259-3.399,25.249,7.804,39.253c12.196,15.245,43.534,19.551,53.953,31.723c1.258,1.469,3.63,0.928,4.023-0.965
			C205.435,200.931,212.203,146.014,157.822,135.145z"/>
		<path class="st4" d="M91.208,94.992c-1.553-3.069-4.425-3.145-6.545-2.678c-1.522,0.335-2.603,1.664-2.736,3.217
			c-0.478,5.563-2.548,11.02-3.869,14.03c-0.422,0.962,0.54,1.933,1.522,1.558c8.911-3.402,11.3-11.034,11.896-13.909
			C91.63,96.462,91.553,95.673,91.208,94.992z"/>
		<path class="st3" d="M134.152,73.989c0,20.62-25.843,25.923-43.939,27.11c0.701-1.583,1.074-2.977,1.263-3.889
			c0.155-0.748,0.077-1.537-0.267-2.218c-1.553-3.069-4.425-3.145-6.545-2.678c-1.522,0.335-2.603,1.664-2.736,3.217
			c-0.173,2.01-0.557,4.001-1.034,5.873c-4.878-0.042-10.304-3.121-10.478-8.004C69.564,69.457,73.688,52.1,87.579,45.103
			c0.828-0.153,5.951-2.628,13.501-2.868c8.439-0.269,16.757,2.639,23.031,8.289C129.068,54.988,134.152,62.326,134.152,73.989z"/>
		<path class="st4" d="M99.496,42.322c0.516-0.039,1.042-0.07,1.584-0.087c1.112-0.035,2.222-0.012,3.326,0.062
			c-0.723-11.581-4.819-25.889-17.766-38.732c-1.357-1.346-3.582-1.315-5.295-0.466c-3.147,1.56-3.828,5.771-1.304,8.214
			C85.98,17.058,95.115,27.762,99.496,42.322z"/>
		<path class="st4" d="M87.579,45.103c0.301-0.056,1.178-0.42,2.528-0.871c-5.91-9.653-15.793-19.899-32.283-25.38
			c-1.814-0.603-3.793,0.413-4.951,1.935c-2.126,2.796-0.865,6.871,2.482,7.938c7.535,2.401,19.715,7.568,29.861,17.737
			C85.973,45.974,86.756,45.517,87.579,45.103z"/>
		<path class="st3" d="M155.262,108.49c-5.699-12.413-16.113-20.473-25.915-21.167c-4.092,4.815-10.393,8.02-17.337,10.131
			c-4.06,7.978-3.989,19.485,1.03,30.419c7.441,16.209,22.925,25.01,34.584,19.658C159.284,142.177,162.704,124.699,155.262,108.49z
			"/>
		<path class="st4" d="M139.379,180.826c31.112-2.384,41.669-23.701,44.955-33.955c-3.226-2.603-6.944-4.926-11.223-6.883
			c-4.638,10.198-15.037,24.261-37.57,27.778C136.142,172.021,137.309,176.51,139.379,180.826z"/>
		<path class="st4" d="M193.357,156.475c-1.439,6.579-9.354,33.49-42.837,37.639c5.599,4.051,12.597,7.235,19.593,10.211
			c20.438-6.456,28.308-22.484,31.132-31.122C199.568,167.372,197.04,161.668,193.357,156.475z"/>
		<path class="st4" d="M187.032,211.857c4.415,2.295,8.178,4.782,10.705,7.734c1.258,1.469,3.63,0.928,4.023-0.965
			c0.996-4.796,2.217-12.329,2.388-20.975C200.296,202.894,194.795,208.109,187.032,211.857z"/>
		<path class="st7" d="M157.822,135.145c-1.776,5.634-5.238,10.108-10.197,12.385c-3.631,1.667-7.632,1.96-11.646,1.086
			c-1.143,6.259-3.399,25.249,7.804,39.253c12.196,15.245,43.534,19.551,53.953,31.723c1.258,1.469,3.63,0.928,4.023-0.965
			C205.435,200.931,212.203,146.014,157.822,135.145z"/>
		<path class="st7" d="M93.163,69.248c-0.015-4.548,3.66-8.247,8.209-8.262s8.247,3.66,8.262,8.209"/>
		<polyline class="st7" points="125.653,114.215 112.622,143.11 78.062,143.676 65.598,130.079 		"/>
		<polyline class="st7" points="134.718,122.147 125.653,158.407 84.861,165.205 71.263,159.54 		"/>
		<polyline class="st7" points="166.223,181.158 139.817,206.564 160.952,253.5 145.483,253.5 		"/>
		<polyline class="st7" points="154.548,169.171 119.421,206.564 130.358,253.5 114.889,253.5 		"/>
		<path class="st7" d="M91.208,94.992c-1.553-3.069-4.425-3.145-6.545-2.678c-1.522,0.335-2.603,1.664-2.736,3.217
			c-0.478,5.563-2.548,11.02-3.869,14.03c-0.422,0.962,0.54,1.933,1.522,1.558c8.911-3.402,11.3-11.034,11.896-13.909
			C91.63,96.462,91.553,95.673,91.208,94.992z"/>
		<path class="st7" d="M134.152,73.989c0,20.62-25.843,25.923-43.939,27.11c0.701-1.583,1.074-2.977,1.263-3.889
			c0.155-0.748,0.077-1.537-0.267-2.218c-1.553-3.069-4.425-3.145-6.545-2.678c-1.522,0.335-2.603,1.664-2.736,3.217
			c-0.173,2.01-0.557,4.001-1.034,5.873c-4.878-0.042-10.304-3.121-10.478-8.004C69.564,69.457,73.688,52.1,87.579,45.103
			c0.828-0.153,5.951-2.628,13.501-2.868c8.439-0.269,16.757,2.639,23.031,8.289C129.068,54.988,134.152,62.326,134.152,73.989z"/>
		<path class="st7" d="M99.496,42.322c0.516-0.039,1.042-0.07,1.584-0.087c1.112-0.035,2.222-0.012,3.326,0.062
			c-0.723-11.581-4.819-25.889-17.766-38.732c-1.357-1.346-3.582-1.315-5.295-0.466c-3.147,1.56-3.828,5.771-1.304,8.214
			C85.98,17.058,95.115,27.762,99.496,42.322z"/>
		<path class="st7" d="M87.579,45.103c0.301-0.056,1.178-0.42,2.528-0.871c-5.91-9.653-15.793-19.899-32.283-25.38
			c-1.814-0.603-3.793,0.413-4.951,1.935c-2.126,2.796-0.865,6.871,2.482,7.938c7.535,2.401,19.715,7.568,29.861,17.737
			C85.973,45.974,86.756,45.517,87.579,45.103z"/>
		<path class="st7" d="M155.262,108.49c-5.699-12.413-16.113-20.473-25.915-21.167c-4.092,4.815-10.393,8.02-17.337,10.131
			c-4.06,7.978-3.989,19.485,1.03,30.419c7.441,16.209,22.925,25.01,34.584,19.658C159.284,142.177,162.704,124.699,155.262,108.49z
			"/>
		<path class="st7" d="M139.379,180.826c31.112-2.384,41.669-23.701,44.955-33.955c-3.226-2.603-6.944-4.926-11.223-6.883
			c-4.638,10.198-15.037,24.261-37.57,27.778C136.142,172.021,137.309,176.51,139.379,180.826z"/>
		<path class="st7" d="M193.357,156.475c-1.439,6.579-9.354,33.49-42.837,37.639c5.599,4.051,12.597,7.235,19.593,10.211
			c20.438-6.456,28.308-22.484,31.132-31.122C199.568,167.372,197.04,161.668,193.357,156.475z"/>
		<path class="st7" d="M187.032,211.857c4.415,2.295,8.178,4.782,10.705,7.734c1.258,1.469,3.63,0.928,4.023-0.965
			c0.996-4.796,2.217-12.329,2.388-20.975C200.296,202.894,194.795,208.109,187.032,211.857z"/>
	</g>
</g>
<g id="Layer_99">
</g>
<g id="Layer_100">
</g>
</svg>
