<?xml version="1.0" encoding="utf-8"?>
<!-- Generator: Adobe Illustrator 22.0.0, SVG Export Plug-In . SVG Version: 6.00 Build 0)  -->
<svg version="1.1" xmlns="http://www.w3.org/2000/svg" xmlns:xlink="http://www.w3.org/1999/xlink" x="0px" y="0px"
	 viewBox="0 0 256 256" style="enable-background:new 0 0 256 256;" xml:space="preserve">
<style type="text/css">
	.st0{fill:#F9BD55;}
	.st1{fill:#F4DBCE;}
	.st2{fill:#52565B;}
	.st3{fill:#FD605B;}
	.st4{fill:#F98080;}
	.st5{fill:#F9E63A;}
	.st6{fill:#039BE6;}
	.st7{fill:none;stroke:#000000;stroke-width:5;stroke-linecap:round;stroke-linejoin:round;stroke-miterlimit:10;}
	.st8{fill:#7D3D1A;}
	.st9{fill:#EAA250;}
	.st10{fill:#DD7F57;}
	.st11{fill:#FFC097;}
	.st12{fill:#F49667;}
	.st13{fill:#F89422;}
	.st14{fill:#E3E4E5;}
	.st15{fill:#6E7175;}
	.st16{fill:#46BAF9;}
	.st17{fill:#D9F3FF;}
	.st18{fill:#828487;}
	.st19{fill:#A8AEB2;}
	.st20{fill:#C9CDD1;}
	.st21{fill:#8CD8F9;}
	.st22{fill:#1AA7E5;}
	.st23{fill:#ACE7FC;}
	.st24{fill:#FFFFFF;}
	.st25{fill:#9E512B;}
	.st26{fill:#7ED5FC;}
	.st27{fill:#7CCC4E;}
	.st28{fill:#3AA03A;}
	.st29{fill:#FCB1B1;}
	.st30{fill:#F76E23;}
	.st31{fill:#C16A44;}
	.st32{fill:#B796EA;}
</style>
<g id="Layer_1">
</g>
<g id="Layer_2">
</g>
<g id="Layer_3">
	<g>
		<path class="st8" d="M86.035,242.019c-0.004-0.022-0.009-0.043-0.013-0.065c-0.049-0.248-0.089-0.501-0.12-0.757
			c-0.006-0.046-0.012-0.092-0.018-0.138c-0.025-0.236-0.041-0.476-0.051-0.719c-0.003-0.062-0.008-0.123-0.01-0.185
			c-0.007-0.297-0.004-0.598,0.013-0.906c0,0-14.944-47.135-13.938-82.3c-13.723,5.844-28.047,21.043-21.64,43.338
			c-2.32-0.401-4.596-0.274-6.717,0.467c-9.359,3.273-12.152,17.18-6.236,31.063s18.298,22.484,27.657,19.211
			c0.785-0.274,1.521-0.626,2.211-1.046c1.035-0.63,2.104-1.203,3.248-1.605l15.815-5.549l0,0
			C86.157,242.564,86.091,242.294,86.035,242.019z"/>
		<path class="st8" d="M212.46,200.753c-2.12-0.741-4.396-0.868-6.717-0.467c6.39-22.238-7.912-37.417-21.639-43.293
			c0.992,35.16-13.94,82.255-13.94,82.255c0.017,0.308,0.02,0.609,0.013,0.906c-0.002,0.063-0.007,0.124-0.01,0.186
			c-0.01,0.242-0.026,0.482-0.051,0.717c-0.005,0.047-0.012,0.094-0.018,0.141c-0.031,0.256-0.071,0.508-0.119,0.756
			c-0.004,0.022-0.009,0.043-0.013,0.065c-0.056,0.275-0.123,0.545-0.2,0.81l0,0l15.815,5.549c1.144,0.401,2.212,0.975,3.248,1.605
			c0.69,0.42,1.426,0.771,2.211,1.046c9.359,3.273,21.742-5.328,27.657-19.211S221.819,204.026,212.46,200.753z"/>
		<path class="st10" d="M216.114,208.331c-6.912-3.052-16.877,4.35-22.258,16.534c-0.961,2.176-1.711,4.358-2.254,6.49
			c0,0-3.53,12.086,1.783,20.233c8.991,1.267,19.877-7.02,25.31-19.771c2.243-5.264,3.231-10.53,3.087-15.221
			C220.973,212.64,219.065,209.634,216.114,208.331z"/>
		<path class="st10" d="M39.883,208.331c6.912-3.052,16.877,4.35,22.258,16.534c0.961,2.176,1.711,4.358,2.254,6.49
			c0,0,3.53,12.086-1.783,20.233c-8.991,1.267-19.877-7.02-25.31-19.771c-2.243-5.264-3.231-10.53-3.087-15.221
			C35.025,212.64,36.932,209.634,39.883,208.331z"/>
		<path class="st8" d="M176.216,39.99c5.134-1.971,10.198-5.594,12.756-8.913c4.841-6.281,2.213-13.402-4.068-18.243
			c-6.281-4.841-13.836-5.569-18.677,0.712c-1.999,2.594-3.781,6.719-4.755,11.006C167.916,28.909,172.706,34.361,176.216,39.99z"/>
		<path class="st8" d="M79.78,39.988c3.511-5.631,8.298-11.091,14.745-15.448c-0.974-4.283-2.755-8.402-4.752-10.993
			c-4.841-6.281-12.396-5.553-18.677-0.712c-6.281,4.841-8.909,11.962-4.068,18.243C69.586,34.395,74.648,38.017,79.78,39.988z"/>
		<path class="st8" d="M191.768,89.174c0,0-6.048-16.229-6.935-24.659c-1.246-11.834-9.044-36.752-35.181-45.873
			c-0.476-0.166-0.645-0.749-0.324-1.138c2.561-3.11,2.69-6.823,2.57-8.62c-0.03-0.446-0.55-0.665-0.891-0.376
			c-3.086,2.618-6.789,3.252-8.401,3.406c-0.381,0.036-0.677-0.327-0.565-0.693c1.364-4.489-0.719-7.343-1.949-8.561
			c-0.309-0.306-0.832-0.154-0.915,0.273c-0.467,2.377-2.798,8.337-14.443,7.782c-11.523-0.549-18.341,4.692-21.647,8.325
			c-0.792,0.87-1.718,1.608-2.772,2.13c-21.33,10.568-28,32.475-29.144,43.344c-0.887,8.43-6.935,24.659-6.935,24.659l5.394-2.312
			c-1.541,16.183,12.33,25.43,12.33,25.43l1.541-4.624l0,0C98.712,131.466,128.5,130.5,128.5,130.5s29.1,1.921,44.307-21.917
			l1.236,3.709c0,0,13.871-9.247,12.33-25.43L191.768,89.174z"/>
		<path class="st8" d="M182.639,142.945c-2.977-14.885-7.583-24.858-11.891-31.423C155.125,132.241,128.5,130.5,128.5,130.5
			s-27.069,0.861-42.777-19.682c-4.44,6.548-9.276,16.698-12.361,32.126c-6.986,34.929,12.475,96.304,12.475,96.304
			c-0.998,17.963,39.42,17.963,39.42,5.489c0-4.657-3.735-7.956-6.848-9.896c-2.638-1.645-4.268-4.505-4.469-7.607
			c-0.724-11.18-2.607-37.288-5.648-59.339c-2.19-15.876,4.027-23.043,10.087-26.278c5.98-3.193,13.266-3.193,19.245,0
			c6.06,3.235,12.277,10.402,10.087,26.278c-3.042,22.052-4.924,48.16-5.648,59.339c-0.201,3.103-1.83,5.963-4.469,7.607
			c-3.113,1.94-6.848,5.239-6.848,9.896c0,12.475,40.418,12.475,39.42-5.489C170.164,239.248,189.624,177.873,182.639,142.945z"/>
		<path class="st10" d="M137.593,234.841c2.638-1.645,4.268-4.505,4.469-7.607c0.724-11.18,2.607-37.288,5.649-59.339
			c2.19-15.876-4.027-23.043-10.087-26.278c-5.98-3.193-13.266-3.193-19.245,0c-6.06,3.235-12.277,10.402-10.087,26.278
			c3.042,22.052,4.924,48.16,5.649,59.339c0.201,3.103,1.83,5.963,4.469,7.607c1.562,0.974,3.281,2.291,4.606,3.949
			c1.634,0.291,3.296,0.459,4.987,0.459s3.352-0.167,4.987-0.459C134.312,237.131,136.03,235.815,137.593,234.841z"/>
		<path class="st10" d="M175.385,38.692c2.13-1.276,3.999-2.837,5.134-4.31c3.264-4.235,1.492-9.036-2.743-12.3
			c-4.235-3.264-9.329-3.755-12.593,0.48c-0.676,0.877-1.31,2.023-1.864,3.302C168.37,29.628,172.326,34.075,175.385,38.692z"/>
		<path class="st10" d="M80.616,38.692c3.06-4.619,7.008-9.071,12.061-12.837c-0.553-1.276-1.186-2.419-1.86-3.293
			c-3.264-4.235-8.358-3.744-12.593-0.48c-4.235,3.264-6.007,8.065-2.743,12.3C76.616,35.855,78.485,37.416,80.616,38.692z"/>
		<path class="st10" d="M128.203,65.557h-0.406c-10.459,0.596-22.329,24.001-22.329,38.486c0,13.881,20.338,13.809,22.532,13.76
			c2.194,0.048,22.532,0.121,22.532-13.76C150.532,89.558,138.662,66.153,128.203,65.557z"/>
		<path class="st2" d="M133.777,84.567c0,2.815-2.962,6.797-5.777,6.797s-5.777-3.981-5.777-6.797s2.962-3.032,5.777-3.032
			S133.777,81.752,133.777,84.567z"/>
		<path class="st7" d="M205.743,200.286c0,0-4.347,0.211-9.313,3.537"/>
		<path class="st7" d="M221.783,216.596c-0.81-3.956-2.718-6.962-5.669-8.265c-6.912-3.052-16.877,4.35-22.258,16.534
			c-0.961,2.176-1.711,4.358-2.254,6.49"/>
		<path class="st7" d="M50.257,200.286c0,0,4.347,0.211,9.313,3.537"/>
		<path class="st7" d="M34.217,216.596c0.81-3.956,2.718-6.962,5.669-8.265c6.912-3.052,16.877,4.35,22.258,16.534
			c0.961,2.177,1.711,4.358,2.254,6.491"/>
		<path class="st7" d="M212.46,200.753c-2.12-0.741-4.396-0.868-6.717-0.467c6.39-22.238-7.912-37.417-21.639-43.293
			c0.992,35.16-13.94,82.255-13.94,82.255c0.017,0.308,0.02,0.609,0.013,0.906c-0.002,0.063-0.007,0.124-0.01,0.186
			c-0.01,0.242-0.026,0.482-0.051,0.717c-0.005,0.047-0.012,0.094-0.018,0.141c-0.031,0.256-0.071,0.508-0.119,0.756
			c-0.004,0.022-0.009,0.043-0.013,0.065c-0.056,0.275-0.123,0.545-0.2,0.81l0,0l15.815,5.549c1.144,0.401,2.212,0.975,3.248,1.605
			c0.69,0.42,1.426,0.771,2.211,1.046c9.359,3.273,21.742-5.328,27.657-19.211S221.819,204.026,212.46,200.753z"/>
		<path class="st7" d="M86.035,242.019c-0.004-0.022-0.009-0.043-0.013-0.065c-0.049-0.248-0.089-0.501-0.12-0.757
			c-0.006-0.046-0.012-0.092-0.018-0.138c-0.025-0.236-0.041-0.476-0.051-0.719c-0.003-0.062-0.008-0.123-0.01-0.185
			c-0.007-0.297-0.004-0.598,0.013-0.906c0,0-14.944-47.135-13.938-82.3c-13.723,5.844-28.047,21.043-21.64,43.338
			c-2.32-0.401-4.596-0.274-6.717,0.467c-9.359,3.273-12.152,17.18-6.236,31.063s18.298,22.484,27.657,19.211
			c0.785-0.274,1.521-0.626,2.211-1.046c1.035-0.63,2.104-1.203,3.248-1.605l15.815-5.549l0,0
			C86.157,242.564,86.091,242.294,86.035,242.019z"/>
		<path class="st7" d="M191.768,89.174c0,0-6.048-16.229-6.935-24.659c-1.246-11.834-9.044-36.752-35.181-45.873
			c-0.476-0.166-0.645-0.749-0.324-1.138c2.561-3.11,2.69-6.823,2.57-8.62c-0.03-0.446-0.55-0.665-0.891-0.376
			c-3.086,2.618-6.789,3.252-8.401,3.406c-0.381,0.036-0.677-0.327-0.565-0.693c1.364-4.489-0.719-7.343-1.949-8.561
			c-0.309-0.306-0.832-0.154-0.915,0.273c-0.467,2.377-2.798,8.337-14.443,7.782c-11.523-0.549-18.341,4.692-21.647,8.325
			c-0.792,0.87-1.718,1.608-2.772,2.13c-21.33,10.568-28,32.475-29.144,43.344c-0.887,8.43-6.935,24.659-6.935,24.659l5.394-2.312
			c-1.541,16.183,12.33,25.43,12.33,25.43l1.541-4.624l0,0C98.712,131.466,128.5,130.5,128.5,130.5s29.1,1.921,44.307-21.917
			l1.236,3.709c0,0,13.871-9.247,12.33-25.43L191.768,89.174z"/>
		<path class="st7" d="M182.639,142.945c-2.977-14.885-7.583-24.858-11.891-31.423C155.125,132.241,128.5,130.5,128.5,130.5
			s-27.069,0.861-42.777-19.682c-4.44,6.548-9.276,16.698-12.361,32.126c-6.986,34.929,12.475,96.304,12.475,96.304
			c-0.998,17.963,39.42,17.963,39.42,5.489c0-4.657-3.735-7.956-6.848-9.896c-2.638-1.645-4.268-4.505-4.469-7.607
			c-0.724-11.18-2.607-37.288-5.648-59.339c-2.19-15.876,4.027-23.043,10.087-26.278c5.98-3.193,13.266-3.193,19.245,0
			c6.06,3.235,12.277,10.402,10.087,26.278c-3.042,22.052-4.924,48.16-5.648,59.339c-0.201,3.103-1.83,5.963-4.469,7.607
			c-3.113,1.94-6.848,5.239-6.848,9.896c0,12.475,40.418,12.475,39.42-5.489C170.164,239.248,189.624,177.873,182.639,142.945z"/>
		<path class="st7" d="M96.166,71.124c-0.01-2.979,2.398-5.402,5.377-5.411c2.979-0.01,5.402,2.398,5.411,5.377"/>
		<path class="st7" d="M149.046,71.124c-0.01-2.979,2.398-5.402,5.377-5.411c2.979-0.01,5.402,2.398,5.411,5.377"/>
		<path class="st7" d="M176.216,39.99c5.134-1.971,10.198-5.594,12.756-8.913c4.841-6.281,2.213-13.402-4.068-18.243
			c-6.281-4.841-13.836-5.569-18.677,0.712c-1.999,2.594-3.781,6.719-4.755,11.006C167.916,28.909,172.706,34.361,176.216,39.99z"/>
		<path class="st7" d="M79.78,39.988c3.511-5.631,8.298-11.091,14.745-15.448c-0.974-4.283-2.755-8.402-4.752-10.993
			c-4.841-6.281-12.396-5.553-18.677-0.712c-6.281,4.841-8.909,11.962-4.068,18.243C69.586,34.395,74.648,38.017,79.78,39.988z"/>
		<path class="st7" d="M115.59,104.312c5.006,3.981,12.41,0.324,12.41-6.073v-6.5"/>
		<path class="st7" d="M140.41,104.312c-5.006,3.981-12.41,0.324-12.41-6.073v-6.5"/>
		<path class="st7" d="M137.593,234.841c2.638-1.645,4.268-4.505,4.469-7.607c0.724-11.18,2.607-37.288,5.649-59.339
			c2.19-15.876-4.027-23.043-10.087-26.278c-5.98-3.193-13.266-3.193-19.245,0c-6.06,3.235-12.277,10.402-10.087,26.278
			c3.042,22.052,4.924,48.16,5.649,59.339c0.201,3.103,1.83,5.963,4.469,7.607c1.562,0.974,3.281,2.291,4.606,3.949
			c1.634,0.291,3.296,0.459,4.987,0.459s3.352-0.167,4.987-0.459C134.312,237.131,136.03,235.815,137.593,234.841z"/>
		<path class="st7" d="M175.385,38.692c2.13-1.276,3.999-2.837,5.134-4.31c3.264-4.235,1.492-9.036-2.743-12.3
			c-4.235-3.264-9.329-3.755-12.593,0.48c-0.676,0.877-1.31,2.023-1.864,3.302C168.37,29.628,172.326,34.075,175.385,38.692z"/>
		<path class="st7" d="M80.616,38.692c3.06-4.619,7.008-9.071,12.061-12.837c-0.553-1.276-1.186-2.419-1.86-3.293
			c-3.264-4.235-8.358-3.744-12.593-0.48c-4.235,3.264-6.007,8.065-2.743,12.3C76.616,35.855,78.485,37.416,80.616,38.692z"/>
		<path class="st7" d="M128.203,65.557h-0.406c-10.459,0.596-22.329,24.001-22.329,38.486c0,13.881,20.338,13.809,22.532,13.76
			c2.194,0.048,22.532,0.121,22.532-13.76C150.532,89.558,138.662,66.153,128.203,65.557z"/>
		<path class="st7" d="M133.777,84.567c0,2.815-2.962,6.797-5.777,6.797s-5.777-3.981-5.777-6.797s2.962-3.032,5.777-3.032
			S133.777,81.752,133.777,84.567z"/>
	</g>
</g>
<g id="Layer_4">
</g>
<g id="Layer_5">
</g>
<g id="Layer_6">
</g>
<g id="Layer_7">
</g>
<g id="Layer_8">
</g>
<g id="Layer_9">
</g>
<g id="Layer_10">
</g>
<g id="Layer_11">
</g>
<g id="Layer_12">
</g>
<g id="Layer_13">
</g>
<g id="Layer_14">
</g>
<g id="Layer_15">
</g>
<g id="Layer_16">
</g>
<g id="Layer_17">
</g>
<g id="Layer_18">
</g>
<g id="Layer_19">
</g>
<g id="Layer_20">
</g>
<g id="Layer_21">
</g>
<g id="Layer_22">
</g>
<g id="Layer_23">
</g>
<g id="Layer_24">
</g>
<g id="Layer_25">
</g>
<g id="Layer_26">
</g>
<g id="Layer_27">
</g>
<g id="Layer_28">
</g>
<g id="Layer_29">
</g>
<g id="Layer_30">
</g>
<g id="Layer_31">
</g>
<g id="Layer_32">
</g>
<g id="Layer_33">
</g>
<g id="Layer_34">
</g>
<g id="Layer_35">
</g>
<g id="Layer_36">
</g>
<g id="Layer_37">
</g>
<g id="Layer_38">
</g>
<g id="Layer_39">
</g>
<g id="Layer_40">
</g>
<g id="Layer_41">
</g>
<g id="Layer_42">
</g>
<g id="Layer_43">
</g>
<g id="Layer_44">
</g>
<g id="Layer_45">
</g>
<g id="Layer_46">
</g>
<g id="Layer_47">
</g>
<g id="Layer_48">
</g>
<g id="Layer_49">
</g>
<g id="Layer_50">
</g>
<g id="Layer_51">
</g>
<g id="Layer_52">
</g>
<g id="Layer_53">
</g>
<g id="Layer_54">
</g>
<g id="Layer_55">
</g>
<g id="Layer_56">
</g>
<g id="Layer_57">
</g>
<g id="Layer_58">
</g>
<g id="Layer_59">
</g>
<g id="Layer_60">
</g>
<g id="Layer_61">
</g>
<g id="Layer_62">
</g>
<g id="Layer_63">
</g>
<g id="Layer_64">
</g>
<g id="Layer_65">
</g>
<g id="Layer_66">
</g>
<g id="Layer_67">
</g>
<g id="Layer_68">
</g>
<g id="Layer_69">
</g>
<g id="Layer_70">
</g>
<g id="Layer_71">
</g>
<g id="Layer_72">
</g>
<g id="Layer_73">
</g>
<g id="Layer_74">
</g>
<g id="Layer_75">
</g>
<g id="Layer_76">
</g>
<g id="Layer_77">
</g>
<g id="Layer_78">
</g>
<g id="Layer_79">
</g>
<g id="Layer_80">
</g>
<g id="Layer_81">
</g>
<g id="Layer_82">
</g>
<g id="Layer_83">
</g>
<g id="Layer_84">
</g>
<g id="Layer_85">
</g>
<g id="Layer_86">
</g>
<g id="Layer_87">
</g>
<g id="Layer_88">
</g>
<g id="Layer_89">
</g>
<g id="Layer_90">
</g>
<g id="Layer_91">
</g>
<g id="Layer_92">
</g>
<g id="Layer_93">
</g>
<g id="Layer_94">
</g>
<g id="Layer_95">
</g>
<g id="Layer_96">
</g>
<g id="Layer_97">
</g>
<g id="Layer_98">
</g>
<g id="Layer_99">
</g>
<g id="Layer_100">
</g>
</svg>
