<?xml version="1.0" encoding="utf-8"?>
<!-- Generator: Adobe Illustrator 22.0.0, SVG Export Plug-In . SVG Version: 6.00 Build 0)  -->
<svg version="1.1" xmlns="http://www.w3.org/2000/svg" xmlns:xlink="http://www.w3.org/1999/xlink" x="0px" y="0px"
	 viewBox="0 0 256 256" style="enable-background:new 0 0 256 256;" xml:space="preserve">
<style type="text/css">
	.st0{fill:#F9BD55;}
	.st1{fill:#F4DBCE;}
	.st2{fill:#52565B;}
	.st3{fill:#FD605B;}
	.st4{fill:#F98080;}
	.st5{fill:#F9E63A;}
	.st6{fill:#039BE6;}
	.st7{fill:none;stroke:#000000;stroke-width:5;stroke-linecap:round;stroke-linejoin:round;stroke-miterlimit:10;}
	.st8{fill:#7D3D1A;}
	.st9{fill:#EAA250;}
	.st10{fill:#DD7F57;}
	.st11{fill:#FFC097;}
	.st12{fill:#F49667;}
	.st13{fill:#F89422;}
	.st14{fill:#E3E4E5;}
	.st15{fill:#6E7175;}
	.st16{fill:#46BAF9;}
	.st17{fill:#D9F3FF;}
	.st18{fill:#828487;}
	.st19{fill:#A8AEB2;}
	.st20{fill:#C9CDD1;}
	.st21{fill:#8CD8F9;}
	.st22{fill:#1AA7E5;}
	.st23{fill:#ACE7FC;}
	.st24{fill:#FFFFFF;}
	.st25{fill:#9E512B;}
	.st26{fill:#7ED5FC;}
	.st27{fill:#7CCC4E;}
	.st28{fill:#3AA03A;}
	.st29{fill:#FCB1B1;}
	.st30{fill:#F76E23;}
	.st31{fill:#C16A44;}
	.st32{fill:#B796EA;}
</style>
<g id="Layer_1">
</g>
<g id="Layer_2">
</g>
<g id="Layer_3">
</g>
<g id="Layer_4">
</g>
<g id="Layer_5">
</g>
<g id="Layer_6">
</g>
<g id="Layer_7">
</g>
<g id="Layer_8">
</g>
<g id="Layer_9">
</g>
<g id="Layer_10">
</g>
<g id="Layer_11">
</g>
<g id="Layer_12">
</g>
<g id="Layer_13">
</g>
<g id="Layer_14">
</g>
<g id="Layer_15">
</g>
<g id="Layer_16">
</g>
<g id="Layer_17">
</g>
<g id="Layer_18">
</g>
<g id="Layer_19">
</g>
<g id="Layer_20">
</g>
<g id="Layer_21">
</g>
<g id="Layer_22">
</g>
<g id="Layer_23">
</g>
<g id="Layer_24">
</g>
<g id="Layer_25">
</g>
<g id="Layer_26">
</g>
<g id="Layer_27">
</g>
<g id="Layer_28">
</g>
<g id="Layer_29">
</g>
<g id="Layer_30">
</g>
<g id="Layer_31">
</g>
<g id="Layer_32">
</g>
<g id="Layer_33">
</g>
<g id="Layer_34">
</g>
<g id="Layer_35">
</g>
<g id="Layer_36">
</g>
<g id="Layer_37">
</g>
<g id="Layer_38">
</g>
<g id="Layer_39">
</g>
<g id="Layer_40">
</g>
<g id="Layer_41">
</g>
<g id="Layer_42">
</g>
<g id="Layer_43">
</g>
<g id="Layer_44">
</g>
<g id="Layer_45">
</g>
<g id="Layer_46">
</g>
<g id="Layer_47">
</g>
<g id="Layer_48">
</g>
<g id="Layer_49">
</g>
<g id="Layer_50">
</g>
<g id="Layer_51">
</g>
<g id="Layer_52">
</g>
<g id="Layer_53">
</g>
<g id="Layer_54">
</g>
<g id="Layer_55">
</g>
<g id="Layer_56">
</g>
<g id="Layer_57">
</g>
<g id="Layer_58">
</g>
<g id="Layer_59">
</g>
<g id="Layer_60">
</g>
<g id="Layer_61">
</g>
<g id="Layer_62">
</g>
<g id="Layer_63">
</g>
<g id="Layer_64">
</g>
<g id="Layer_65">
</g>
<g id="Layer_66">
</g>
<g id="Layer_67">
</g>
<g id="Layer_68">
</g>
<g id="Layer_69">
</g>
<g id="Layer_70">
</g>
<g id="Layer_71">
</g>
<g id="Layer_72">
</g>
<g id="Layer_73">
</g>
<g id="Layer_74">
</g>
<g id="Layer_75">
</g>
<g id="Layer_76">
</g>
<g id="Layer_77">
</g>
<g id="Layer_78">
</g>
<g id="Layer_79">
</g>
<g id="Layer_80">
</g>
<g id="Layer_81">
</g>
<g id="Layer_82">
</g>
<g id="Layer_83">
</g>
<g id="Layer_84">
</g>
<g id="Layer_85">
</g>
<g id="Layer_86">
</g>
<g id="Layer_87">
</g>
<g id="Layer_88">
</g>
<g id="Layer_89">
</g>
<g id="Layer_90">
</g>
<g id="Layer_91">
</g>
<g id="Layer_92">
	<g>
		<path class="st26" d="M221.163,83.55c-4.772-3.561-11.506-2.774-15.364,1.76c-16.086,18.909-33.369,34.606-46.225,45.302
			c6.098,8.711,10.078,20.603,10.931,35.29c1.76,0.31,3.613,0.62,5.551,0.923c22.677-1.626,38.78-4.652,48.826-7.107
			c8.467-2.069,15.201-8.647,17.245-17.12C249.802,110.781,232.631,92.108,221.163,83.55z"/>
		<path class="st26" d="M221.195,177.534c-0.224-4.162-3.665-7.431-7.832-7.474c-16.289-0.166-31.529-2.161-42.859-4.157
			c0.113,1.947,0.191,3.926,0.191,5.971c0,10.698-1.585,20.351-4.394,28.688c6.398,5.963,11.682,10.214,15.598,13.108
			c4.908,3.626,11.463,4.299,16.936,1.602C219.386,205.14,221.733,187.537,221.195,177.534z"/>
		<path class="st26" d="M85.305,171.875c0-2.045,0.078-4.024,0.191-5.971c-11.33,1.996-26.57,3.991-42.859,4.157
			c-4.168,0.043-7.609,3.312-7.832,7.474c-0.538,10.003,1.809,27.606,22.36,37.738c5.473,2.698,12.028,2.025,16.936-1.602
			c3.917-2.894,9.2-7.145,15.598-13.108C86.89,192.226,85.305,182.572,85.305,171.875z"/>
		<path class="st26" d="M96.426,130.612c-12.856-10.696-30.138-26.392-46.224-45.301c-3.858-4.534-10.592-5.321-15.364-1.76
			c-11.468,8.557-28.64,27.231-20.964,59.048c2.044,8.473,8.778,15.051,17.245,17.12c10.046,2.455,26.15,5.481,48.826,7.107
			c1.938-0.303,3.791-0.613,5.551-0.923C86.348,151.215,90.328,139.323,96.426,130.612z"/>
		<path class="st2" d="M128,233.774c-3.025,0-5.974-0.412-8.821-1.198l7.002,19.641c0.61,1.71,3.028,1.71,3.637,0l7.002-19.641
			C133.974,233.362,131.025,233.774,128,233.774z"/>
		<path class="st0" d="M152.045,122.295c-6.849,3.39-15.055,5.403-24.034,5.403c-8.882,0-17.125-2.008-24.035-5.421
			c-11.27,9.497-18.671,26.434-18.671,49.598c0,37.231,19.115,61.9,42.695,61.9s42.695-24.669,42.695-61.9
			C170.695,148.726,163.302,131.795,152.045,122.295z"/>
		<path class="st2" d="M92.636,137.006c-2.028,4.029-3.682,8.548-4.904,13.531c12.07,3.968,25.749,6.123,40.265,6.123
			c14.511,0,28.2-2.138,40.27-6.101c-1.223-4.993-2.879-9.52-4.91-13.555c-10.826,2.12-22.779,3.261-35.36,3.261
			C115.416,140.265,103.46,139.128,92.636,137.006z"/>
		<path class="st2" d="M85.504,165.766c-0.118,1.991-0.199,4.015-0.199,6.109c0,4.008,0.234,7.86,0.659,11.561
			c12.82,3.735,27.046,5.741,42.036,5.741c14.99,0,29.215-2.006,42.036-5.74c0.425-3.701,0.659-7.554,0.659-11.562
			c0-2.09-0.081-4.111-0.199-6.098c-12.938,2.69-27.33,4.13-42.496,4.13C112.83,169.907,98.444,168.458,85.504,165.766z"/>
		<path class="st2" d="M88.392,196.24c1.77,6.51,4.248,12.315,7.295,17.303c9.687,4.036,20.663,6.232,32.314,6.232
			c11.641,0,22.617-2.178,32.298-6.205c3.054-4.992,5.537-10.804,7.31-17.324c-11.3,4.418-24.925,6.86-39.608,6.86
			C113.315,203.105,99.691,200.662,88.392,196.24z"/>
		<path class="st0" d="M169.88,83.578c-2.251-5.086-1.986-8.897-1.986-12.059c0-18.363-18.061-33.248-40.341-33.248
			S87.211,53.157,87.211,71.519c0,3.101,1.011,6.923-1.394,12.824c-8.996,22.082,13.24,43.354,42.194,43.354
			C158.018,127.698,179.511,105.337,169.88,83.578z"/>
		<circle class="st13" cx="168.586" cy="8.003" r="5.503"/>
		<circle class="st13" cx="87.414" cy="8.462" r="5.503"/>
		<path class="st13" d="M145.62,41.793c3.349-15.232,12.102-26.49,17.654-32.373c-0.121-0.453-0.191-0.926-0.191-1.417
			c0-0.415,0.05-0.818,0.137-1.206c-16.012,8.167-23.494,29.15-24.673,32.734C141.008,40.105,143.374,40.864,145.62,41.793z"/>
		<path class="st13" d="M110.208,41.495c2.239-0.88,4.592-1.594,7.036-2.125c-1.697-4.919-9.21-24.334-24.464-32.114
			c0.087,0.388,0.137,0.791,0.137,1.206c0,0.491-0.07,0.964-0.191,1.417C98.186,15.664,106.741,26.647,110.208,41.495z"/>
		<g>
			<path class="st2" d="M126.407,57.022c0.799,1.074,2.386,1.074,3.185,0c6.784-9.117,18.933-11.808,28.703-7.019
				c-16.598-16.093-46.849-15.542-62.583,1.112C105.919,44.794,119.242,47.391,126.407,57.022z"/>
		</g>
		<ellipse class="st13" cx="128" cy="97.889" rx="9.172" ry="6.42"/>
		<ellipse class="st7" cx="128" cy="97.889" rx="9.172" ry="6.42"/>
		<g>
			<path class="st7" d="M169.88,83.578c-2.251-5.086-1.986-8.897-1.986-12.059c0-18.363-18.061-33.248-40.341-33.248
				S87.211,53.157,87.211,71.519c0,3.101,1.011,6.923-1.394,12.824c-8.996,22.082,13.24,43.354,42.194,43.354
				C158.018,127.698,179.511,105.337,169.88,83.578z"/>
			<g>
				<path class="st7" d="M126.407,57.022c0.799,1.074,2.386,1.074,3.185,0c6.784-9.117,18.933-11.808,28.703-7.019
					c-16.598-16.093-46.849-15.542-62.583,1.112C105.919,44.794,119.242,47.391,126.407,57.022z"/>
			</g>
		</g>
		<path class="st7" d="M169.88,83.578c-2.251-5.086-1.986-8.897-1.986-12.059c0-18.363-18.061-33.248-40.341-33.248
			S87.211,53.157,87.211,71.519c0,3.101,1.011,6.923-1.394,12.824c-8.996,22.082,13.24,43.354,42.194,43.354
			C158.018,127.698,179.511,105.337,169.88,83.578z"/>
		<g>
			<path class="st7" d="M126.407,57.022c0.799,1.074,2.386,1.074,3.185,0c6.784-9.117,18.933-11.808,28.703-7.019
				c-16.598-16.093-46.849-15.542-62.583,1.112C105.919,44.794,119.242,47.391,126.407,57.022z"/>
		</g>
		<g>
			<path class="st7" d="M103.839,82.952c-0.013-4.072,3.278-7.384,7.35-7.397c4.072-0.013,7.384,3.278,7.397,7.35"/>
			<path class="st7" d="M137.414,82.952c-0.013-4.072,3.278-7.384,7.35-7.397c4.072-0.013,7.384,3.278,7.397,7.35"/>
		</g>
		<path class="st7" d="M113.02,107.301c3.687,4.099,9.03,6.677,14.98,6.677s11.293-2.578,14.98-6.677"/>
		<circle class="st7" cx="168.586" cy="8.003" r="5.503"/>
		<circle class="st7" cx="87.414" cy="8.462" r="5.503"/>
		<path class="st7" d="M145.62,41.793c3.349-15.232,12.102-26.49,17.654-32.373c-0.121-0.453-0.191-0.926-0.191-1.417
			c0-0.415,0.05-0.818,0.137-1.206c-16.012,8.167-23.494,29.15-24.673,32.734C141.008,40.105,143.374,40.864,145.62,41.793z"/>
		<path class="st7" d="M110.208,41.495c2.239-0.88,4.592-1.594,7.036-2.125c-1.697-4.919-9.21-24.334-24.464-32.114
			c0.087,0.388,0.137,0.791,0.137,1.206c0,0.491-0.07,0.964-0.191,1.417C98.186,15.664,106.741,26.647,110.208,41.495z"/>
		<path class="st7" d="M152.045,122.295c-6.849,3.39-15.055,5.403-24.034,5.403c-8.882,0-17.125-2.008-24.035-5.421
			c-11.27,9.497-18.671,26.434-18.671,49.598c0,37.231,19.115,61.9,42.695,61.9s42.695-24.669,42.695-61.9
			C170.695,148.726,163.302,131.795,152.045,122.295z"/>
		<path class="st7" d="M128,233.774c-3.025,0-5.974-0.412-8.821-1.198l7.002,19.641c0.61,1.71,3.028,1.71,3.637,0l7.002-19.641
			C133.974,233.362,131.025,233.774,128,233.774z"/>
		<path class="st7" d="M221.163,83.55c-4.772-3.561-11.506-2.774-15.364,1.76c-16.086,18.909-33.369,34.606-46.225,45.302
			c6.098,8.711,10.078,20.603,10.931,35.29c1.76,0.31,3.613,0.62,5.551,0.923c22.677-1.626,38.78-4.652,48.826-7.107
			c8.467-2.069,15.201-8.647,17.245-17.12C249.802,110.781,232.631,92.108,221.163,83.55z"/>
		<path class="st7" d="M221.195,177.534c-0.224-4.162-3.665-7.431-7.832-7.474c-16.289-0.166-31.529-2.161-42.859-4.157
			c0.113,1.947,0.191,3.926,0.191,5.971c0,10.698-1.585,20.351-4.394,28.688c6.398,5.963,11.682,10.214,15.598,13.108
			c4.908,3.626,11.463,4.299,16.936,1.602C219.386,205.14,221.733,187.537,221.195,177.534z"/>
		<path class="st7" d="M85.305,171.875c0-2.045,0.078-4.024,0.191-5.971c-11.33,1.996-26.57,3.991-42.859,4.157
			c-4.168,0.043-7.609,3.312-7.832,7.474c-0.538,10.003,1.809,27.606,22.36,37.738c5.473,2.698,12.028,2.025,16.936-1.602
			c3.917-2.894,9.2-7.145,15.598-13.108C86.89,192.226,85.305,182.572,85.305,171.875z"/>
		<path class="st7" d="M96.426,130.612c-12.856-10.696-30.138-26.392-46.224-45.301c-3.858-4.534-10.592-5.321-15.364-1.76
			c-11.468,8.557-28.64,27.231-20.964,59.048c2.044,8.473,8.778,15.051,17.245,17.12c10.046,2.455,26.15,5.481,48.826,7.107
			c1.938-0.303,3.791-0.613,5.551-0.923C86.348,151.215,90.328,139.323,96.426,130.612z"/>
		<path class="st7" d="M92.636,137.006c-2.028,4.029-3.682,8.548-4.904,13.531c12.07,3.968,25.749,6.123,40.265,6.123
			c14.511,0,28.2-2.138,40.27-6.101c-1.223-4.993-2.879-9.52-4.91-13.555c-10.826,2.12-22.779,3.261-35.36,3.261
			C115.416,140.265,103.46,139.128,92.636,137.006z"/>
		<path class="st7" d="M85.504,165.766c-0.118,1.991-0.199,4.015-0.199,6.109c0,4.008,0.234,7.86,0.659,11.561
			c12.82,3.735,27.046,5.741,42.036,5.741c14.99,0,29.215-2.006,42.036-5.74c0.425-3.701,0.659-7.554,0.659-11.562
			c0-2.09-0.081-4.111-0.199-6.098c-12.938,2.69-27.33,4.13-42.496,4.13C112.83,169.907,98.444,168.458,85.504,165.766z"/>
		<path class="st7" d="M88.392,196.24c1.77,6.51,4.248,12.315,7.295,17.303c9.687,4.036,20.663,6.232,32.314,6.232
			c11.641,0,22.617-2.178,32.298-6.205c3.054-4.992,5.537-10.804,7.31-17.324c-11.3,4.418-24.925,6.86-39.608,6.86
			C113.315,203.105,99.691,200.662,88.392,196.24z"/>
	</g>
</g>
<g id="Layer_93">
</g>
<g id="Layer_94">
</g>
<g id="Layer_95">
</g>
<g id="Layer_96">
</g>
<g id="Layer_97">
</g>
<g id="Layer_98">
</g>
<g id="Layer_99">
</g>
<g id="Layer_100">
</g>
</svg>
