<?xml version="1.0" encoding="utf-8"?>
<!-- Generator: Adobe Illustrator 22.0.0, SVG Export Plug-In . SVG Version: 6.00 Build 0)  -->
<svg version="1.1" xmlns="http://www.w3.org/2000/svg" xmlns:xlink="http://www.w3.org/1999/xlink" x="0px" y="0px"
	 viewBox="0 0 256 256" style="enable-background:new 0 0 256 256;" xml:space="preserve">
<style type="text/css">
	.st0{fill:#F9BD55;}
	.st1{fill:#F4DBCE;}
	.st2{fill:#52565B;}
	.st3{fill:#FD605B;}
	.st4{fill:#F98080;}
	.st5{fill:#F9E63A;}
	.st6{fill:#039BE6;}
	.st7{fill:none;stroke:#000000;stroke-width:5;stroke-linecap:round;stroke-linejoin:round;stroke-miterlimit:10;}
	.st8{fill:#7D3D1A;}
	.st9{fill:#EAA250;}
	.st10{fill:#DD7F57;}
	.st11{fill:#FFC097;}
	.st12{fill:#F49667;}
	.st13{fill:#F89422;}
	.st14{fill:#E3E4E5;}
	.st15{fill:#6E7175;}
	.st16{fill:#46BAF9;}
	.st17{fill:#D9F3FF;}
	.st18{fill:#828487;}
	.st19{fill:#A8AEB2;}
	.st20{fill:#C9CDD1;}
	.st21{fill:#8CD8F9;}
	.st22{fill:#1AA7E5;}
	.st23{fill:#ACE7FC;}
	.st24{fill:#FFFFFF;}
	.st25{fill:#9E512B;}
	.st26{fill:#7ED5FC;}
	.st27{fill:#7CCC4E;}
	.st28{fill:#3AA03A;}
	.st29{fill:#FCB1B1;}
	.st30{fill:#F76E23;}
	.st31{fill:#C16A44;}
	.st32{fill:#B796EA;}
</style>
<g id="Layer_1">
</g>
<g id="Layer_2">
</g>
<g id="Layer_3">
</g>
<g id="Layer_4">
</g>
<g id="Layer_5">
</g>
<g id="Layer_6">
</g>
<g id="Layer_7">
</g>
<g id="Layer_8">
</g>
<g id="Layer_9">
</g>
<g id="Layer_10">
</g>
<g id="Layer_11">
</g>
<g id="Layer_12">
</g>
<g id="Layer_13">
</g>
<g id="Layer_14">
</g>
<g id="Layer_15">
</g>
<g id="Layer_16">
</g>
<g id="Layer_17">
</g>
<g id="Layer_18">
</g>
<g id="Layer_19">
</g>
<g id="Layer_20">
</g>
<g id="Layer_21">
</g>
<g id="Layer_22">
</g>
<g id="Layer_23">
</g>
<g id="Layer_24">
</g>
<g id="Layer_25">
</g>
<g id="Layer_26">
</g>
<g id="Layer_27">
</g>
<g id="Layer_28">
</g>
<g id="Layer_29">
</g>
<g id="Layer_30">
</g>
<g id="Layer_31">
</g>
<g id="Layer_32">
</g>
<g id="Layer_33">
</g>
<g id="Layer_34">
</g>
<g id="Layer_35">
</g>
<g id="Layer_36">
</g>
<g id="Layer_37">
</g>
<g id="Layer_38">
</g>
<g id="Layer_39">
</g>
<g id="Layer_40">
</g>
<g id="Layer_41">
</g>
<g id="Layer_42">
</g>
<g id="Layer_43">
</g>
<g id="Layer_44">
</g>
<g id="Layer_45">
</g>
<g id="Layer_46">
</g>
<g id="Layer_47">
</g>
<g id="Layer_48">
</g>
<g id="Layer_49">
</g>
<g id="Layer_50">
</g>
<g id="Layer_51">
</g>
<g id="Layer_52">
</g>
<g id="Layer_53">
</g>
<g id="Layer_54">
</g>
<g id="Layer_55">
</g>
<g id="Layer_56">
</g>
<g id="Layer_57">
</g>
<g id="Layer_58">
</g>
<g id="Layer_59">
</g>
<g id="Layer_60">
</g>
<g id="Layer_61">
</g>
<g id="Layer_62">
</g>
<g id="Layer_63">
</g>
<g id="Layer_64">
</g>
<g id="Layer_65">
</g>
<g id="Layer_66">
</g>
<g id="Layer_67">
</g>
<g id="Layer_68">
</g>
<g id="Layer_69">
</g>
<g id="Layer_70">
</g>
<g id="Layer_71">
</g>
<g id="Layer_72">
</g>
<g id="Layer_73">
</g>
<g id="Layer_74">
</g>
<g id="Layer_75">
</g>
<g id="Layer_76">
</g>
<g id="Layer_77">
</g>
<g id="Layer_78">
	<g>
		<path class="st8" d="M128,128.841c-7.671,0-14.536-1.613-19.176-4.156c1.832,8.913,9.721,15.616,19.176,15.616
			s17.344-6.703,19.176-15.616C142.536,127.228,135.671,128.841,128,128.841z"/>
		<g>
			<path class="st31" d="M179.467,117.72c-1.131,0.652-2.444,1.035-3.875,1.035h-13.244c-4.689,0-9.163,1.686-12.915,4.499
				c-0.675,0.506-1.437,0.983-2.261,1.434c0.001-0.001,0.002-0.001,0.003-0.002c-1.832,8.913-9.721,15.616-19.176,15.616v93.932
				c0,7.771,7.854,12.996,14.965,9.991C169.59,232.972,218.848,199.981,179.467,117.72z"/>
		</g>
		<g>
			<path class="st31" d="M108.824,124.686c0.001,0,0.002,0.001,0.003,0.002c-0.824-0.451-1.586-0.928-2.261-1.434
				c-3.752-2.813-8.226-4.499-12.915-4.499H80.408c-1.431,0-2.744-0.383-3.875-1.035c-39.381,82.262,9.878,115.252,36.502,126.505
				c7.111,3.005,14.965-2.22,14.965-9.991v-93.932C118.545,140.302,110.656,133.599,108.824,124.686z"/>
		</g>
		<circle class="st0" cx="147.056" cy="44.915" r="11.701"/>
		<circle class="st0" cx="108.944" cy="44.915" r="11.701"/>
		<path class="st2" d="M182.963,107.674l-11.748-30.638c-3.025-7.889-10.454-13.077-18.726-13.078c-16.325,0-32.653,0-48.978,0
			c-8.272,0-15.702,5.189-18.726,13.078l-11.748,30.638c-2.041,5.323,1.789,11.081,7.371,11.081h13.244
			c4.689,0,9.163,1.686,12.915,4.499c4.479,3.357,12.403,5.588,21.434,5.588s16.955-2.231,21.434-5.588
			c3.752-2.813,8.226-4.499,12.915-4.499h13.244C181.174,118.755,185.004,112.997,182.963,107.674z"/>
		<path class="st2" d="M147.056,56.616c-6.34,0-11.49-5.046-11.683-11.339h-14.746c-0.193,6.294-5.342,11.339-11.683,11.339
			c-1.442,0-2.818-0.273-4.094-0.751c-0.003,0.105-0.016,0.207-0.016,0.312v7.78c15.443,0,30.888,0,46.331,0v-7.78
			c0-0.105-0.013-0.208-0.016-0.312C149.874,56.342,148.498,56.616,147.056,56.616z"/>
		<g>
			<path class="st2" d="M213.107,41.105L213.107,41.105c-1.945-1.945-5.109-1.835-6.947,0.212
				c-3.948,4.397-9.585,13.507-10.605,29.48c-0.091,1.433-0.252,2.804-0.466,4.123c1.125-1.086,2.727-1.625,4.361-1.298
				c1.953,0.391,3.398,1.884,3.832,3.686c0.509-2.792,0.822-5.518,1.003-8.052c0.7-9.8,6.304-17.808,9.338-22.019
				C214.984,45.35,214.752,42.751,213.107,41.105z"/>
		</g>
		<g>
			<path class="st2" d="M236.768,184.837L236.768,184.837c-1.148,2.5-4.152,3.496-6.587,2.216
				c-5.231-2.751-13.683-9.332-20.192-23.955c-0.584-1.312-1.212-2.542-1.871-3.704c1.433,0.627,3.122,0.575,4.54-0.299
				c1.695-1.045,2.532-2.947,2.311-4.788c1.448,2.441,2.689,4.888,3.739,7.201c4.063,8.946,12.102,14.506,16.411,17.4
				C237.052,180.205,237.738,182.722,236.768,184.837z"/>
		</g>
		<g>
			<path class="st2" d="M205.898,252.894L205.898,252.894c-2.401,1.342-5.415,0.375-6.626-2.095
				c-2.602-5.306-5.546-15.606-2.178-31.254c0.302-1.404,0.521-2.767,0.674-4.094c0.787,1.352,2.182,2.306,3.843,2.436
				c1.985,0.156,3.783-0.887,4.691-2.503c-0.27,2.825-0.712,5.534-1.227,8.021c-1.995,9.621,1.217,18.852,2.991,23.73
				C208.859,249.32,207.928,251.758,205.898,252.894z"/>
		</g>
		<g>
			<path class="st2" d="M42.893,41.105L42.893,41.105c1.945-1.945,5.109-1.835,6.947,0.212c3.948,4.397,9.585,13.507,10.605,29.48
				c0.091,1.433,0.252,2.804,0.466,4.123c-1.125-1.086-2.727-1.625-4.361-1.298c-1.953,0.391-3.398,1.884-3.832,3.686
				c-0.509-2.792-0.822-5.518-1.003-8.052c-0.7-9.8-6.304-17.808-9.338-22.019C41.016,45.35,41.248,42.751,42.893,41.105z"/>
		</g>
		<g>
			<path class="st2" d="M19.232,184.837L19.232,184.837c1.148,2.5,4.152,3.496,6.587,2.216c5.231-2.751,13.683-9.332,20.192-23.955
				c0.584-1.312,1.212-2.542,1.871-3.704c-1.433,0.627-3.122,0.575-4.541-0.299c-1.695-1.045-2.532-2.947-2.311-4.788
				c-1.448,2.441-2.689,4.888-3.739,7.201c-4.063,8.946-12.102,14.506-16.411,17.4C18.948,180.205,18.262,182.722,19.232,184.837z"
				/>
		</g>
		<g>
			<path class="st2" d="M50.102,252.894L50.102,252.894c2.401,1.342,5.415,0.375,6.626-2.095c2.602-5.306,5.546-15.606,2.178-31.254
				c-0.302-1.404-0.521-2.767-0.674-4.094c-0.787,1.352-2.182,2.306-3.843,2.436c-1.985,0.156-3.783-0.887-4.691-2.503
				c0.27,2.825,0.712,5.534,1.227,8.021c1.995,9.621-1.217,18.852-2.991,23.73C47.141,249.32,48.072,251.758,50.102,252.894z"/>
		</g>
		<path class="st2" d="M199.451,73.623c-2.506-0.501-4.958,1.008-5.687,3.457c-3.07,10.324-9.259,17.043-14.442,21.099l3.26,8.503
			c11.902-5.588,17.797-16.27,20.672-26.985C203.988,76.961,202.228,74.178,199.451,73.623z"/>
		<path class="st2" d="M76.677,98.179c-5.183-4.056-11.372-10.775-14.442-21.099c-0.728-2.449-3.181-3.959-5.687-3.457
			c-2.777,0.556-4.537,3.338-3.803,6.073c2.875,10.715,8.77,21.397,20.672,26.985L76.677,98.179z"/>
		<path class="st2" d="M214.114,152.078c-6.252-8.809-15.174-16.599-27.734-18.021c1.357,3.707,2.52,7.301,3.501,10.783
			c5.333,2.4,11.281,6.38,16.245,12.989c1.534,2.043,4.359,2.606,6.534,1.265C215.07,157.609,215.753,154.388,214.114,152.078z"/>
		<path class="st2" d="M193.832,181.013c-0.394,4.273-1.12,8.294-2.129,12.075c2.856,5.066,5.268,11.737,5.377,19.924
			c0.034,2.555,1.983,4.675,4.53,4.875c2.823,0.222,5.275-1.976,5.313-4.809C207.077,201.782,204.213,189.665,193.832,181.013z"/>
		<path class="st2" d="M69.62,134.058c-12.56,1.422-21.483,9.211-27.734,18.021c-1.639,2.31-0.956,5.53,1.455,7.017
			c2.175,1.341,4.999,0.778,6.534-1.265c4.964-6.609,10.912-10.59,16.245-12.989C67.1,141.359,68.263,137.765,69.62,134.058z"/>
		<path class="st2" d="M62.168,181.013c-10.381,8.652-13.245,20.77-13.091,32.065c0.039,2.832,2.49,5.03,5.313,4.809
			c2.547-0.2,4.496-2.32,4.53-4.875c0.109-8.188,2.521-14.858,5.377-19.924C63.288,189.307,62.561,185.285,62.168,181.013z"/>
		<path class="st7" d="M182.963,107.674l-11.748-30.638c-3.025-7.889-10.454-13.077-18.726-13.078c-16.325,0-32.653,0-48.978,0
			c-8.272,0-15.702,5.189-18.726,13.078l-11.748,30.638c-2.041,5.323,1.789,11.081,7.371,11.081h13.244
			c4.689,0,9.163,1.686,12.915,4.499c4.479,3.357,12.403,5.588,21.434,5.588s16.955-2.231,21.434-5.588
			c3.752-2.813,8.226-4.499,12.915-4.499h13.244C181.174,118.755,185.004,112.997,182.963,107.674z"/>
		<path class="st7" d="M128,128.841c-7.671,0-14.536-1.613-19.176-4.156c1.832,8.913,9.721,15.616,19.176,15.616
			s17.344-6.703,19.176-15.616C142.536,127.228,135.671,128.841,128,128.841z"/>
		<g>
			<path class="st7" d="M179.467,117.72c-1.131,0.652-2.444,1.035-3.875,1.035h-13.244c-4.689,0-9.163,1.686-12.915,4.499
				c-0.675,0.506-1.437,0.983-2.261,1.434c0.001-0.001,0.002-0.001,0.003-0.002c-1.832,8.913-9.721,15.616-19.176,15.616v93.932
				c0,7.771,7.854,12.996,14.965,9.991C169.59,232.972,218.848,199.981,179.467,117.72z"/>
		</g>
		<g>
			<path class="st7" d="M108.824,124.686c0.001,0,0.002,0.001,0.003,0.002c-0.824-0.451-1.586-0.928-2.261-1.434
				c-3.752-2.813-8.226-4.499-12.915-4.499H80.408c-1.431,0-2.744-0.383-3.875-1.035c-39.381,82.262,9.878,115.252,36.502,126.505
				c7.111,3.005,14.965-2.22,14.965-9.991v-93.932C118.545,140.302,110.656,133.599,108.824,124.686z"/>
		</g>
		<path class="st7" d="M142.775,46.255c-0.008-2.364,1.903-4.287,4.267-4.294c2.364-0.008,4.287,1.903,4.294,4.267"/>
		<circle class="st7" cx="147.056" cy="44.915" r="11.701"/>
		<path class="st7" d="M104.664,46.255c-0.008-2.364,1.903-4.287,4.267-4.294c2.364-0.008,4.287,1.903,4.294,4.267"/>
		<circle class="st7" cx="108.944" cy="44.915" r="11.701"/>
		<path class="st7" d="M147.056,56.616c-6.34,0-11.49-5.046-11.683-11.339h-14.746c-0.193,6.294-5.342,11.339-11.683,11.339
			c-1.442,0-2.818-0.273-4.094-0.751c-0.003,0.105-0.016,0.207-0.016,0.312v7.78c15.443,0,30.888,0,46.331,0v-7.78
			c0-0.105-0.013-0.208-0.016-0.312C149.874,56.342,148.498,56.616,147.056,56.616z"/>
		<path class="st7" d="M149.644,33.214l6.695-11.48c2.402-4.119,1.907-9.31-1.23-12.902c-2.812-3.219-6.813-6.332-11.772-6.332"/>
		<path class="st7" d="M106.506,33.472l-6.845-11.738c-2.402-4.119-1.907-9.31,1.23-12.902c2.812-3.219,6.813-6.332,11.772-6.332"/>
		<g>
			<path class="st7" d="M213.107,41.105L213.107,41.105c-1.945-1.945-5.109-1.835-6.947,0.212
				c-3.948,4.397-9.585,13.507-10.605,29.48c-0.091,1.433-0.252,2.804-0.466,4.123c1.125-1.086,2.727-1.625,4.361-1.298
				c1.953,0.391,3.398,1.884,3.832,3.686c0.509-2.792,0.822-5.518,1.003-8.052c0.7-9.8,6.304-17.808,9.338-22.019
				C214.984,45.35,214.752,42.751,213.107,41.105z"/>
		</g>
		<g>
			<path class="st7" d="M236.768,184.837L236.768,184.837c-1.148,2.5-4.152,3.496-6.587,2.216
				c-5.231-2.751-13.683-9.332-20.192-23.955c-0.584-1.312-1.212-2.542-1.871-3.704c1.433,0.627,3.122,0.575,4.54-0.299
				c1.695-1.045,2.532-2.947,2.311-4.788c1.448,2.441,2.689,4.888,3.739,7.201c4.063,8.946,12.102,14.506,16.411,17.4
				C237.052,180.205,237.738,182.722,236.768,184.837z"/>
		</g>
		<g>
			<path class="st7" d="M205.898,252.894L205.898,252.894c-2.401,1.342-5.415,0.375-6.626-2.095
				c-2.602-5.306-5.546-15.606-2.178-31.254c0.302-1.404,0.521-2.767,0.674-4.094c0.787,1.352,2.182,2.306,3.843,2.436
				c1.985,0.156,3.783-0.887,4.691-2.503c-0.27,2.825-0.712,5.534-1.227,8.021c-1.995,9.621,1.217,18.852,2.991,23.73
				C208.859,249.32,207.928,251.758,205.898,252.894z"/>
		</g>
		<g>
			<path class="st7" d="M42.893,41.105L42.893,41.105c1.945-1.945,5.109-1.835,6.947,0.212c3.948,4.397,9.585,13.507,10.605,29.48
				c0.091,1.433,0.252,2.804,0.466,4.123c-1.125-1.086-2.727-1.625-4.361-1.298c-1.953,0.391-3.398,1.884-3.832,3.686
				c-0.509-2.792-0.822-5.518-1.003-8.052c-0.7-9.8-6.304-17.808-9.338-22.019C41.016,45.35,41.248,42.751,42.893,41.105z"/>
		</g>
		<g>
			<path class="st7" d="M19.232,184.837L19.232,184.837c1.148,2.5,4.152,3.496,6.587,2.216c5.231-2.751,13.683-9.332,20.192-23.955
				c0.584-1.312,1.212-2.542,1.871-3.704c-1.433,0.627-3.122,0.575-4.541-0.299c-1.695-1.045-2.532-2.947-2.311-4.788
				c-1.448,2.441-2.689,4.888-3.739,7.201c-4.063,8.946-12.102,14.506-16.411,17.4C18.948,180.205,18.262,182.722,19.232,184.837z"
				/>
		</g>
		<g>
			<path class="st7" d="M50.102,252.894L50.102,252.894c2.401,1.342,5.415,0.375,6.626-2.095c2.602-5.306,5.546-15.606,2.178-31.254
				c-0.302-1.404-0.521-2.767-0.674-4.094c-0.787,1.352-2.182,2.306-3.843,2.436c-1.985,0.156-3.783-0.887-4.691-2.503
				c0.27,2.825,0.712,5.534,1.227,8.021c1.995,9.621-1.217,18.852-2.991,23.73C47.141,249.32,48.072,251.758,50.102,252.894z"/>
		</g>
		<path class="st7" d="M199.451,73.623c-2.506-0.501-4.958,1.008-5.687,3.457c-3.07,10.324-9.259,17.043-14.442,21.099l3.26,8.503
			c11.902-5.588,17.797-16.27,20.672-26.985C203.988,76.961,202.228,74.178,199.451,73.623z"/>
		<path class="st7" d="M76.677,98.179c-5.183-4.056-11.372-10.775-14.442-21.099c-0.728-2.449-3.181-3.959-5.687-3.457
			c-2.777,0.556-4.537,3.338-3.803,6.073c2.875,10.715,8.77,21.397,20.672,26.985L76.677,98.179z"/>
		<path class="st7" d="M214.114,152.078c-6.252-8.809-15.174-16.599-27.734-18.021c1.357,3.707,2.52,7.301,3.501,10.783
			c5.333,2.4,11.281,6.38,16.245,12.989c1.534,2.043,4.359,2.606,6.534,1.265C215.07,157.609,215.753,154.388,214.114,152.078z"/>
		<path class="st7" d="M193.832,181.013c-0.394,4.273-1.12,8.294-2.129,12.075c2.856,5.066,5.268,11.737,5.377,19.924
			c0.034,2.555,1.983,4.675,4.53,4.875c2.823,0.222,5.275-1.976,5.313-4.809C207.077,201.782,204.213,189.665,193.832,181.013z"/>
		<path class="st7" d="M69.62,134.058c-12.56,1.422-21.483,9.211-27.734,18.021c-1.639,2.31-0.956,5.53,1.455,7.017
			c2.175,1.341,4.999,0.778,6.534-1.265c4.964-6.609,10.912-10.59,16.245-12.989C67.1,141.359,68.263,137.765,69.62,134.058z"/>
		<path class="st7" d="M62.168,181.013c-10.381,8.652-13.245,20.77-13.091,32.065c0.039,2.832,2.49,5.03,5.313,4.809
			c2.547-0.2,4.496-2.32,4.53-4.875c0.109-8.188,2.521-14.858,5.377-19.924C63.288,189.307,62.561,185.285,62.168,181.013z"/>
	</g>
</g>
<g id="Layer_79">
</g>
<g id="Layer_80">
</g>
<g id="Layer_81">
</g>
<g id="Layer_82">
</g>
<g id="Layer_83">
</g>
<g id="Layer_84">
</g>
<g id="Layer_85">
</g>
<g id="Layer_86">
</g>
<g id="Layer_87">
</g>
<g id="Layer_88">
</g>
<g id="Layer_89">
</g>
<g id="Layer_90">
</g>
<g id="Layer_91">
</g>
<g id="Layer_92">
</g>
<g id="Layer_93">
</g>
<g id="Layer_94">
</g>
<g id="Layer_95">
</g>
<g id="Layer_96">
</g>
<g id="Layer_97">
</g>
<g id="Layer_98">
</g>
<g id="Layer_99">
</g>
<g id="Layer_100">
</g>
</svg>
