<?xml version="1.0" encoding="utf-8"?>
<!-- Generator: Adobe Illustrator 22.0.0, SVG Export Plug-In . SVG Version: 6.00 Build 0)  -->
<svg version="1.1" xmlns="http://www.w3.org/2000/svg" xmlns:xlink="http://www.w3.org/1999/xlink" x="0px" y="0px"
	 viewBox="0 0 256 256" style="enable-background:new 0 0 256 256;" xml:space="preserve">
<style type="text/css">
	.st0{fill:#F9BD55;}
	.st1{fill:#F4DBCE;}
	.st2{fill:#52565B;}
	.st3{fill:#FD605B;}
	.st4{fill:#F98080;}
	.st5{fill:#F9E63A;}
	.st6{fill:#039BE6;}
	.st7{fill:none;stroke:#000000;stroke-width:5;stroke-linecap:round;stroke-linejoin:round;stroke-miterlimit:10;}
	.st8{fill:#7D3D1A;}
	.st9{fill:#EAA250;}
	.st10{fill:#DD7F57;}
	.st11{fill:#FFC097;}
	.st12{fill:#F49667;}
	.st13{fill:#F89422;}
	.st14{fill:#E3E4E5;}
	.st15{fill:#6E7175;}
	.st16{fill:#46BAF9;}
	.st17{fill:#D9F3FF;}
	.st18{fill:#828487;}
	.st19{fill:#A8AEB2;}
	.st20{fill:#C9CDD1;}
	.st21{fill:#8CD8F9;}
	.st22{fill:#1AA7E5;}
	.st23{fill:#ACE7FC;}
	.st24{fill:#FFFFFF;}
	.st25{fill:#9E512B;}
	.st26{fill:#7ED5FC;}
	.st27{fill:#7CCC4E;}
	.st28{fill:#3AA03A;}
	.st29{fill:#FCB1B1;}
	.st30{fill:#F76E23;}
	.st31{fill:#C16A44;}
	.st32{fill:#B796EA;}
</style>
<g id="Layer_1">
</g>
<g id="Layer_2">
</g>
<g id="Layer_3">
</g>
<g id="Layer_4">
</g>
<g id="Layer_5">
</g>
<g id="Layer_6">
</g>
<g id="Layer_7">
</g>
<g id="Layer_8">
</g>
<g id="Layer_9">
</g>
<g id="Layer_10">
</g>
<g id="Layer_11">
</g>
<g id="Layer_12">
</g>
<g id="Layer_13">
</g>
<g id="Layer_14">
</g>
<g id="Layer_15">
</g>
<g id="Layer_16">
</g>
<g id="Layer_17">
</g>
<g id="Layer_18">
</g>
<g id="Layer_19">
</g>
<g id="Layer_20">
</g>
<g id="Layer_21">
</g>
<g id="Layer_22">
</g>
<g id="Layer_23">
</g>
<g id="Layer_24">
</g>
<g id="Layer_25">
</g>
<g id="Layer_26">
</g>
<g id="Layer_27">
</g>
<g id="Layer_28">
</g>
<g id="Layer_29">
</g>
<g id="Layer_30">
</g>
<g id="Layer_31">
</g>
<g id="Layer_32">
</g>
<g id="Layer_33">
</g>
<g id="Layer_34">
</g>
<g id="Layer_35">
</g>
<g id="Layer_36">
</g>
<g id="Layer_37">
</g>
<g id="Layer_38">
</g>
<g id="Layer_39">
</g>
<g id="Layer_40">
</g>
<g id="Layer_41">
</g>
<g id="Layer_42">
</g>
<g id="Layer_43">
</g>
<g id="Layer_44">
</g>
<g id="Layer_45">
</g>
<g id="Layer_46">
</g>
<g id="Layer_47">
</g>
<g id="Layer_48">
</g>
<g id="Layer_49">
</g>
<g id="Layer_50">
</g>
<g id="Layer_51">
</g>
<g id="Layer_52">
</g>
<g id="Layer_53">
</g>
<g id="Layer_54">
</g>
<g id="Layer_55">
</g>
<g id="Layer_56">
</g>
<g id="Layer_57">
</g>
<g id="Layer_58">
</g>
<g id="Layer_59">
</g>
<g id="Layer_60">
</g>
<g id="Layer_61">
</g>
<g id="Layer_62">
</g>
<g id="Layer_63">
</g>
<g id="Layer_64">
</g>
<g id="Layer_65">
</g>
<g id="Layer_66">
</g>
<g id="Layer_67">
</g>
<g id="Layer_68">
</g>
<g id="Layer_69">
</g>
<g id="Layer_70">
</g>
<g id="Layer_71">
</g>
<g id="Layer_72">
</g>
<g id="Layer_73">
</g>
<g id="Layer_74">
</g>
<g id="Layer_75">
</g>
<g id="Layer_76">
</g>
<g id="Layer_77">
</g>
<g id="Layer_78">
</g>
<g id="Layer_79">
</g>
<g id="Layer_80">
</g>
<g id="Layer_81">
</g>
<g id="Layer_82">
</g>
<g id="Layer_83">
</g>
<g id="Layer_84">
</g>
<g id="Layer_85">
</g>
<g id="Layer_86">
</g>
<g id="Layer_87">
</g>
<g id="Layer_88">
</g>
<g id="Layer_89">
</g>
<g id="Layer_90">
</g>
<g id="Layer_91">
</g>
<g id="Layer_92">
</g>
<g id="Layer_93">
</g>
<g id="Layer_94">
</g>
<g id="Layer_95">
</g>
<g id="Layer_96">
	<g>
		<path class="st16" d="M134.077,137.596c-20.787,0-29.661-5.451-34.389-12.559c0.953-6.427,0.628-12.916-1.3-15.447
			c-1.489-1.956-3.317-1.832-5.198-0.608c-1.604-4.451-3.653-8.557-7.728-11.545c-9.212-6.756-18.063-1.024-23.863,4.965
			c-5.78,5.968-15.665-1.61-11.279-8.551c2.161-3.42,4.895-7.039,8.259-10.286C9.539,99.017,2.5,140.238,2.5,140.238l11.097,5.813
			l-6.341,6.341c0,0,34.876,28.535,95.116,28.535c41.272,0,71.131-20.833,85.845-33.955
			C176.844,140.491,160.278,137.596,134.077,137.596z"/>
		<path class="st0" d="M98.388,109.59c-5.634-7.398-16.097,14.796-16.097,14.796v8.455
			C95.974,158.204,104.022,116.988,98.388,109.59z"/>
		<path class="st2" d="M222.933,130.649c-5.015-2.7-5.598-9.664-1.102-13.161l28.498-22.165
			c-17.966,11.625-53.899,20.08-53.899,20.08c-44.387-38.046-91.417-37.518-91.417-37.518C86.4,77.347,71.118,79.614,58.58,83.564
			c-3.365,3.247-6.098,6.866-8.26,10.286c-4.386,6.941,5.498,14.519,11.279,8.551c5.8-5.989,14.651-11.721,23.863-4.965
			c4.075,2.988,6.123,7.094,7.728,11.545c1.882-1.224,3.709-1.347,5.198,0.608c1.927,2.531,2.253,9.02,1.3,15.447
			c4.728,7.108,13.602,12.559,34.389,12.559c26.201,0,42.767,2.895,54.139,9.376c6.762-6.03,10.328-10.433,10.328-10.433
			c23.251,0,54.956,10.568,54.956,10.568L222.933,130.649z"/>
		<path class="st0" d="M221.831,117.488c-4.496,3.497-3.912,10.461,1.102,13.161l30.567,16.459
			c-9.512-25.364-3.171-51.785-3.171-51.785L221.831,117.488z"/>
		<path class="st16" d="M117.679,94.866c-7.534-0.72-12.75,7.534-8.742,13.953c4.113,6.588,12.027,12.925,27.253,12.925
			C165.107,121.743,159.738,98.887,117.679,94.866z"/>
		<path class="st0" d="M72.851,178.551c8.66,10.298,31.143,34.898,22.928,2.249C87.623,180.515,79.976,179.713,72.851,178.551z"/>
		<path class="st16" d="M188.216,146.972c-14.714,13.121-44.573,33.955-85.845,33.955c0,0,60.983,32.585,93.806-41.714
			C194.443,141.08,191.778,143.796,188.216,146.972z"/>
		<g>
			<path class="st16" d="M58.579,83.564L58.579,83.564c12.539-3.951,27.821-6.218,46.434-5.68c0,0,45.087-0.501,88.635,35.193
				C173.105,64.848,110.461,56.371,82.292,59.39c-19.275,2.065-27.336,16.681-30.616,26.625
				C53.88,85.142,56.177,84.321,58.579,83.564z"/>
		</g>
		<path class="st7" d="M32.853,123.97c-0.014-4.382,3.527-7.945,7.908-7.96c4.382-0.014,7.945,3.527,7.96,7.908"/>
		<path class="st7" d="M63.894,117.62c1.979,4.678,3.073,9.822,3.073,15.221c0,10.063-3.801,19.239-10.046,26.168"/>
		<path class="st7" d="M72.181,150.74c-1.045,3.849-2.669,7.493-4.79,10.813"/>
		<path class="st7" d="M98.388,109.59c-5.634-7.398-16.097,14.796-16.097,14.796v8.455
			C95.974,158.204,104.022,116.988,98.388,109.59z"/>
		<path class="st7" d="M222.933,130.649c-5.015-2.7-5.598-9.664-1.102-13.161l28.498-22.165
			c-17.966,11.625-53.899,20.08-53.899,20.08c-44.387-38.046-91.417-37.518-91.417-37.518C86.4,77.347,71.118,79.614,58.58,83.564
			c-3.365,3.247-6.098,6.866-8.26,10.286c-4.386,6.941,5.498,14.519,11.279,8.551c5.8-5.989,14.651-11.721,23.863-4.965
			c4.075,2.988,6.123,7.094,7.728,11.545c1.882-1.224,3.709-1.347,5.198,0.608c1.927,2.531,2.253,9.02,1.3,15.447
			c4.728,7.108,13.602,12.559,34.389,12.559c26.201,0,42.767,2.895,54.139,9.376c6.762-6.03,10.328-10.433,10.328-10.433
			c23.251,0,54.956,10.568,54.956,10.568L222.933,130.649z"/>
		<path class="st7" d="M221.831,117.488c-4.496,3.497-3.912,10.461,1.102,13.161l30.567,16.459
			c-9.512-25.364-3.171-51.785-3.171-51.785L221.831,117.488z"/>
		<path class="st7" d="M134.077,137.596c-20.787,0-29.661-5.451-34.389-12.559c0.953-6.427,0.628-12.916-1.3-15.447
			c-1.489-1.956-3.317-1.832-5.198-0.608c-1.604-4.451-3.653-8.557-7.728-11.545c-9.212-6.756-18.063-1.024-23.863,4.965
			c-5.78,5.968-15.665-1.61-11.279-8.551c2.161-3.42,4.895-7.039,8.259-10.286C9.539,99.017,2.5,140.238,2.5,140.238l11.097,5.813
			l-6.341,6.341c0,0,34.876,28.535,95.116,28.535c41.272,0,71.131-20.833,85.845-33.955
			C176.844,140.491,160.278,137.596,134.077,137.596z"/>
		<path class="st7" d="M117.679,94.866c-7.534-0.72-12.75,7.534-8.742,13.953c4.113,6.588,12.027,12.925,27.253,12.925
			C165.107,121.743,159.738,98.887,117.679,94.866z"/>
		<path class="st7" d="M72.851,178.551c8.66,10.298,31.143,34.898,22.928,2.249C87.623,180.515,79.976,179.713,72.851,178.551z"/>
		<path class="st7" d="M188.216,146.972c-14.714,13.121-44.573,33.955-85.845,33.955c0,0,60.983,32.585,93.806-41.714
			C194.443,141.08,191.778,143.796,188.216,146.972z"/>
		<g>
			<path class="st7" d="M58.579,83.564L58.579,83.564c12.539-3.951,27.821-6.218,46.434-5.68c0,0,45.087-0.501,88.635,35.193
				C173.105,64.848,110.461,56.371,82.292,59.39c-19.275,2.065-27.336,16.681-30.616,26.625
				C53.88,85.142,56.177,84.321,58.579,83.564z"/>
		</g>
	</g>
</g>
<g id="Layer_97">
</g>
<g id="Layer_98">
</g>
<g id="Layer_99">
</g>
<g id="Layer_100">
</g>
</svg>
