<?xml version="1.0" encoding="utf-8"?>
<!-- Generator: Adobe Illustrator 22.0.0, SVG Export Plug-In . SVG Version: 6.00 Build 0)  -->
<svg version="1.1" xmlns="http://www.w3.org/2000/svg" xmlns:xlink="http://www.w3.org/1999/xlink" x="0px" y="0px"
	 viewBox="0 0 256 256" style="enable-background:new 0 0 256 256;" xml:space="preserve">
<style type="text/css">
	.st0{fill:#F9BD55;}
	.st1{fill:#F4DBCE;}
	.st2{fill:#52565B;}
	.st3{fill:#FD605B;}
	.st4{fill:#F98080;}
	.st5{fill:#F9E63A;}
	.st6{fill:#039BE6;}
	.st7{fill:none;stroke:#000000;stroke-width:5;stroke-linecap:round;stroke-linejoin:round;stroke-miterlimit:10;}
	.st8{fill:#7D3D1A;}
	.st9{fill:#EAA250;}
	.st10{fill:#DD7F57;}
	.st11{fill:#FFC097;}
	.st12{fill:#F49667;}
	.st13{fill:#F89422;}
	.st14{fill:#E3E4E5;}
	.st15{fill:#6E7175;}
	.st16{fill:#46BAF9;}
	.st17{fill:#D9F3FF;}
	.st18{fill:#828487;}
	.st19{fill:#A8AEB2;}
	.st20{fill:#C9CDD1;}
	.st21{fill:#8CD8F9;}
	.st22{fill:#1AA7E5;}
	.st23{fill:#ACE7FC;}
	.st24{fill:#FFFFFF;}
	.st25{fill:#9E512B;}
	.st26{fill:#7ED5FC;}
	.st27{fill:#7CCC4E;}
	.st28{fill:#3AA03A;}
	.st29{fill:#FCB1B1;}
	.st30{fill:#F76E23;}
	.st31{fill:#C16A44;}
	.st32{fill:#B796EA;}
</style>
<g id="Layer_1">
</g>
<g id="Layer_2">
</g>
<g id="Layer_3">
</g>
<g id="Layer_4">
</g>
<g id="Layer_5">
</g>
<g id="Layer_6">
</g>
<g id="Layer_7">
</g>
<g id="Layer_8">
</g>
<g id="Layer_9">
</g>
<g id="Layer_10">
</g>
<g id="Layer_11">
</g>
<g id="Layer_12">
</g>
<g id="Layer_13">
</g>
<g id="Layer_14">
</g>
<g id="Layer_15">
</g>
<g id="Layer_16">
</g>
<g id="Layer_17">
</g>
<g id="Layer_18">
</g>
<g id="Layer_19">
</g>
<g id="Layer_20">
</g>
<g id="Layer_21">
</g>
<g id="Layer_22">
</g>
<g id="Layer_23">
</g>
<g id="Layer_24">
</g>
<g id="Layer_25">
</g>
<g id="Layer_26">
</g>
<g id="Layer_27">
</g>
<g id="Layer_28">
</g>
<g id="Layer_29">
</g>
<g id="Layer_30">
</g>
<g id="Layer_31">
</g>
<g id="Layer_32">
</g>
<g id="Layer_33">
</g>
<g id="Layer_34">
</g>
<g id="Layer_35">
</g>
<g id="Layer_36">
</g>
<g id="Layer_37">
</g>
<g id="Layer_38">
</g>
<g id="Layer_39">
</g>
<g id="Layer_40">
</g>
<g id="Layer_41">
</g>
<g id="Layer_42">
</g>
<g id="Layer_43">
</g>
<g id="Layer_44">
</g>
<g id="Layer_45">
</g>
<g id="Layer_46">
</g>
<g id="Layer_47">
</g>
<g id="Layer_48">
</g>
<g id="Layer_49">
</g>
<g id="Layer_50">
</g>
<g id="Layer_51">
</g>
<g id="Layer_52">
</g>
<g id="Layer_53">
	<g>
		<path class="st31" d="M30.418,31.877c2.382-1.787,4.494-3.875,6.363-6.178c0.071-0.087,0.162-0.162,0.235-0.248
			c-2.524-3.912-6.384-11.02-8.225-20.228c-2.267-11.333-35.003,15.436-2.019,30.11C28.016,33.862,29.293,32.721,30.418,31.877z"/>
		<path class="st31" d="M80.544,5.224c-1.842,9.208-5.701,16.316-8.225,20.228c0.074,0.086,0.164,0.16,0.235,0.248
			c1.869,2.303,3.981,4.391,6.363,6.178c1.125,0.844,2.401,1.984,3.646,3.457C115.547,20.659,82.811-6.109,80.544,5.224z"/>
		<path class="st4" d="M93.85,9.154c-6.273-0.651-7.407,9.046-7.407,9.046s-1.617,9.174-7.906,13.348l-0.005,0.019
			c0.131,0.101,0.254,0.211,0.386,0.31c1.125,0.844,2.401,1.984,3.646,3.457C100.152,27.509,99.052,16.246,93.85,9.154z"/>
		<path class="st4" d="M15.485,9.154c6.273-0.651,7.407,9.046,7.407,9.046s1.617,9.174,7.906,13.348l0.005,0.019
			c-0.131,0.101-0.254,0.211-0.386,0.31c-1.125,0.844-2.401,1.984-3.646,3.457C9.183,27.509,10.283,16.246,15.485,9.154z"/>
		<g>
			<path class="st31" d="M206.59,77.266c-40.387-28.148-33.044,31.82-66.088,4.895S102.563,94.4,89.101,101.743
				c-6.919,3.774-14.153,1.723-18.728-2.485c-0.716,0.497-1.429,0.885-2.136,1.192c0,0,0.001,0,0.002-0.001
				c-0.784,1.353-1.568,2.643-2.344,3.802c-5.478,8.189-16.966,8.189-22.444,0c-0.775-1.159-1.559-2.446-2.342-3.797
				c-1.539-0.667-3.112-1.741-4.663-3.387c-0.027-0.028-0.046-0.061-0.072-0.09c-1.781,4.303-3.378,9.122-4.181,13.945l6.119-3.672
				c0,0-3.672,15.91,6.119,25.701v-6.119l0.874,0.874c10.256,10.256,22.999,17.673,36.982,21.527
				c5.611,20.638,27.49,38.259,30.067,52.865c2.802,15.88,1.838,29.823,0.644,36.114c-0.327,1.726-1.769,3.017-3.52,3.163
				c-6.61,0.552-9.609,4.245-10.935,6.693c-1.328,2.452,0.525,5.431,3.314,5.431h20.401c2.454,0,4.276-2.272,3.744-4.667
				l-1.086-4.885c-0.216-0.972-0.325-1.965-0.325-2.96v-27.874c0-3.672,6.119-9.791,3.672-20.805
				c-2.448-11.015-1.224-29.372-1.224-29.372c24.477,8.567,46.057-3.055,46.057-3.055c2.655,4.728,6.345,8.79,10.24,11.622
				c10.19,7.411,14.686,23.253,17.134,34.268c1.966,8.848-0.927,25.594-5.511,31.839c-1.037,1.413-2.602,2.352-4.338,2.598
				c-7.36,1.046-9.776,6.684-10.569,10.274c-0.343,1.553,0.848,3.019,2.439,3.019h24.812c1.143,0,2.143-0.777,2.425-1.884
				c1.196-4.694-0.691-10.354-0.691-10.354c0-13.462,1.224-15.91,6.119-33.044c4.683-16.39-13.462-34.268,8.567-55.073
				S246.977,105.414,206.59,77.266z"/>
		</g>
		<path class="st31" d="M238.441,117.324c1.461,8.38-0.39,16.375-4.854,23.819c0.884,3.939,0.874,8.807-1.296,14.45
			c-4.728,12.294-2.149,22.761-0.733,26.884c0.386,1.124,1.437,1.877,2.625,1.877c1.744,0,3.035-1.583,2.721-3.298
			c-0.858-4.692-1.279-14.328,4.566-28.522C246.586,140.105,242.534,126.372,238.441,117.324z"/>
		<path class="st8" d="M236.677,179.557c0.069,0.54,0.144,1.048,0.226,1.498c0.314,1.715-0.978,3.298-2.721,3.298
			c-1.188,0-2.239-0.753-2.625-1.877c-0.223-0.648-0.473-1.469-0.72-2.412c-0.607,0.372-1.142,0.846-1.542,1.442
			c-0.736,1.097-1.099,2.6-0.374,4.606c1.933,5.347-4.832,8.02,0,12.476c3.623,3.341,6.703,4.678,6.795,7.016
			c0.027,0.699,1.06,0.948,1.491,0.373c1.034-1.381,1.911-3.288,1.502-5.549c-0.339-1.874,0.074-3.78,1.238-5.348
			c1.382-1.861,2.664-4.364,1.537-6.294C238.321,183.366,242.989,181.007,236.677,179.557z"/>
		<path class="st31" d="M78.918,31.877c-2.382-1.787-4.494-3.875-6.363-6.178c-3.36-4.14-9.552-6.45-17.887-6.45
			c-8.335,0-14.527,2.31-17.887,6.45c-1.869,2.303-3.981,4.391-6.363,6.178c-3.84,2.881-9.462,9.106-9.462,20.858
			c0,13.01,8.262,23.981,12.744,28.977c1.292-5.007,4.125-9.845,7.581-13.016c-0.025,0.186-0.055,0.374-0.055,0.554h0
			c0-2.249,2.01-4.989,4.893-7.064c0.185-8.615,2.674-14.058,4.922-17.228c1.77-2.496,5.482-2.496,7.252,0
			c2.209,3.115,4.647,8.426,4.908,16.779c3.228,2.115,5.538,5.098,5.538,7.513c0,0.034-0.01,0.063-0.01,0.096
			c3.15,3.164,5.689,7.698,6.895,12.378c4.479-4.99,12.756-15.968,12.756-28.989C88.38,40.984,82.758,34.759,78.918,31.877z"/>
		<path class="st31" d="M180.053,250.481c0.793-3.589,3.209-9.228,10.569-10.274c0.021-0.003,0.04-0.012,0.061-0.015
			c0.066-12.533,1.354-15.306,6.116-31.975c1.652-5.783,0.463-11.753-0.802-17.969c-2.789-7.358-6.77-14.461-12.661-18.746
			c-3.895-2.833-7.585-6.894-10.24-11.622c0,0-5.893,3.167-15.003,4.975c2.078,2.607,4.441,4.869,6.885,6.647
			c10.19,7.411,14.686,23.253,17.134,34.268c1.966,8.848-0.927,25.594-5.511,31.839c-1.037,1.413-2.602,2.352-4.338,2.598
			c-7.36,1.046-9.776,6.684-10.569,10.274c-0.343,1.553,0.848,3.019,2.439,3.019h18.358
			C180.901,253.5,179.71,252.034,180.053,250.481z"/>
		<path class="st31" d="M98.544,248.069c1.603-2.961,4.241-5.126,7.743-6.122h0.001c-0.023-0.32-0.053-0.639-0.053-0.96v-27.874
			c0-3.205,4.662-8.279,4.217-16.845c-0.001-0.002-0.002-0.005-0.004-0.007c-6.073-13.376-23.285-29.09-28.162-47.027
			c-3.944-1.087-7.785-2.467-11.504-4.105c0.812,28.193,20.689,42.663,23.214,56.971c2.802,15.88,1.838,29.823,0.644,36.114
			c-0.327,1.726-1.769,3.017-3.52,3.163c-6.61,0.552-9.609,4.245-10.935,6.693c-1.328,2.452,0.525,5.431,3.314,5.431h18.358
			C99.069,253.5,97.216,250.521,98.544,248.069z"/>
		<path class="st8" d="M126.003,248.832l-1.086-4.885c-0.216-0.972-0.325-1.965-0.325-2.96v-0.737
			c-5.092,0.985-9.261,0.177-12.054-0.809c-0.629,1.083-1.758,1.825-3.059,1.934c-6.61,0.552-9.609,4.245-10.935,6.693
			c-1.328,2.452,0.525,5.431,3.314,5.431h20.401C124.712,253.5,126.535,251.228,126.003,248.832z"/>
		<path class="st8" d="M209.728,251.615c1.196-4.694-0.691-10.354-0.691-10.354c0-0.555,0.003-1.086,0.007-1.605
			c-6.942,2.06-12.463,0.672-15.575-0.62c-0.842,0.6-1.805,1.023-2.848,1.171c-7.36,1.046-9.776,6.684-10.569,10.274
			c-0.343,1.553,0.848,3.019,2.439,3.019h24.812C208.447,253.5,209.446,252.723,209.728,251.615z"/>
		<path class="st11" d="M68.729,69.347c-0.112,4.127-7.097,4.452-13.746,4.452c-0.105,0-0.21-0.001-0.315-0.001v23.899
			c0,0,9.464,8.664,18.222-0.63C79.693,89.848,75.648,76.296,68.729,69.347z"/>
		<path class="st11" d="M41.226,69.25c0-0.18,0.03-0.368,0.055-0.554c-7.324,6.721-11.857,20.921-4.836,28.371
			c8.759,9.294,18.222,0.63,18.222,0.63V73.798C48.06,73.787,41.226,73.407,41.226,69.25z"/>
		<path class="st11" d="M68.739,69.25c0-4.223-7.053-10.196-13.757-10.196S41.226,65.027,41.226,69.25s7.053,4.549,13.757,4.549
			S68.739,73.473,68.739,69.25z"/>
		<path class="st11" d="M54.983,59.054c2.871,0,5.801,1.099,8.219,2.683c-0.261-8.354-2.699-13.665-4.908-16.779
			c-1.77-2.496-5.482-2.496-7.252,0c-2.248,3.17-4.737,8.613-4.922,17.228C48.65,60.366,51.85,59.054,54.983,59.054z"/>
		<path class="st11" d="M54.668,97.697c0,0-6.409,5.858-13.559,2.757c0.783,1.351,1.567,2.639,2.342,3.798
			c5.479,8.189,16.966,8.189,22.444,0c0.776-1.16,1.561-2.449,2.344-3.803C61.084,103.561,54.668,97.697,54.668,97.697z"/>
		<path class="st8" d="M98.544,248.069c1.09-2.013,3.316-4.863,7.744-6.122c-0.023-0.32-0.053-0.639-0.053-0.96v-0.737
			c-5.092,0.985-9.261,0.177-12.054-0.809c-0.629,1.083-1.758,1.825-3.059,1.934c-6.61,0.552-9.609,4.245-10.935,6.693
			c-1.328,2.452,0.525,5.431,3.314,5.431h18.358C99.069,253.5,97.216,250.521,98.544,248.069z"/>
		<path class="st8" d="M180.053,250.481c0.793-3.589,3.209-9.228,10.569-10.274c0.021-0.003,0.041-0.01,0.062-0.013
			c0.001-0.177,0.001-0.364,0.002-0.538c-6.942,2.06-12.463,0.672-15.575-0.62c-0.842,0.6-1.805,1.023-2.848,1.171
			c-7.36,1.046-9.776,6.684-10.569,10.274c-0.343,1.553,0.848,3.019,2.439,3.019h18.358
			C180.901,253.5,179.71,252.034,180.053,250.481z"/>
		<path class="st7" d="M173.097,159.88c-6.523-11.614-6.802-27.248,11.464-38.555"/>
		<path class="st7" d="M82.286,149.233c-2.382-8.76-1.833-18.062,4.367-27.909"/>
		<g>
			<path class="st7" d="M206.59,77.266c-40.387-28.148-33.044,31.82-66.088,4.895S102.563,94.4,89.101,101.743
				c-6.919,3.774-14.153,1.723-18.728-2.485c-0.716,0.497-1.429,0.885-2.136,1.192c0,0,0.001,0,0.002-0.001
				c-0.784,1.353-1.568,2.643-2.344,3.802c-5.478,8.189-16.966,8.189-22.444,0c-0.775-1.159-1.559-2.446-2.342-3.797
				c-1.539-0.667-3.112-1.741-4.663-3.387c-0.027-0.028-0.046-0.061-0.072-0.09c-1.781,4.303-3.378,9.122-4.181,13.945l6.119-3.672
				c0,0-3.672,15.91,6.119,25.701v-6.119l0.874,0.874c10.256,10.256,22.999,17.673,36.982,21.527
				c5.611,20.638,27.49,38.259,30.067,52.865c2.802,15.88,1.838,29.823,0.644,36.114c-0.327,1.726-1.769,3.017-3.52,3.163
				c-6.61,0.552-9.609,4.245-10.935,6.693c-1.328,2.452,0.525,5.431,3.314,5.431h20.401c2.454,0,4.276-2.272,3.744-4.667
				l-1.086-4.885c-0.216-0.972-0.325-1.965-0.325-2.96v-27.874c0-3.672,6.119-9.791,3.672-20.805
				c-2.448-11.015-1.224-29.372-1.224-29.372c24.477,8.567,46.057-3.055,46.057-3.055c2.655,4.728,6.345,8.79,10.24,11.622
				c10.19,7.411,14.686,23.253,17.134,34.268c1.966,8.848-0.927,25.594-5.511,31.839c-1.037,1.413-2.602,2.352-4.338,2.598
				c-7.36,1.046-9.776,6.684-10.569,10.274c-0.343,1.553,0.848,3.019,2.439,3.019h24.812c1.143,0,2.143-0.777,2.425-1.884
				c1.196-4.694-0.691-10.354-0.691-10.354c0-13.462,1.224-15.91,6.119-33.044c4.683-16.39-13.462-34.268,8.567-55.073
				S246.977,105.414,206.59,77.266z"/>
		</g>
		<path class="st7" d="M127.04,162.935c0,0,5.507-12.85,4.283-20.193"/>
		<path class="st7" d="M238.441,117.324c1.461,8.38-0.39,16.375-4.854,23.819c0.884,3.939,0.874,8.807-1.296,14.45
			c-4.728,12.294-2.149,22.761-0.733,26.884c0.386,1.124,1.437,1.877,2.625,1.877c1.744,0,3.035-1.583,2.721-3.298
			c-0.858-4.692-1.279-14.328,4.566-28.522C246.586,140.105,242.534,126.372,238.441,117.324z"/>
		<path class="st7" d="M236.677,179.557c0.069,0.54,0.144,1.048,0.226,1.498c0.314,1.715-0.978,3.298-2.721,3.298
			c-1.188,0-2.239-0.753-2.625-1.877c-0.223-0.648-0.473-1.469-0.72-2.412c-0.607,0.372-1.142,0.846-1.542,1.442
			c-0.736,1.097-1.099,2.6-0.374,4.606c1.933,5.347-4.832,8.02,0,12.476c3.623,3.341,6.703,4.678,6.795,7.016
			c0.027,0.699,1.06,0.948,1.491,0.373c1.034-1.381,1.911-3.288,1.502-5.549c-0.339-1.874,0.074-3.78,1.238-5.348
			c1.382-1.861,2.664-4.364,1.537-6.294C238.321,183.366,242.989,181.007,236.677,179.557z"/>
		<path class="st7" d="M78.918,31.877c-2.382-1.787-4.494-3.875-6.363-6.178c-3.36-4.14-9.552-6.45-17.887-6.45
			c-8.335,0-14.527,2.31-17.887,6.45c-1.869,2.303-3.981,4.391-6.363,6.178c-3.84,2.881-9.462,9.106-9.462,20.858
			c0,13.01,8.262,23.981,12.744,28.977c1.292-5.007,4.125-9.845,7.581-13.016c-0.025,0.186-0.055,0.374-0.055,0.554h0
			c0-2.249,2.01-4.989,4.893-7.064c0.185-8.615,2.674-14.058,4.922-17.228c1.77-2.496,5.482-2.496,7.252,0
			c2.209,3.115,4.647,8.426,4.908,16.779c3.228,2.115,5.538,5.098,5.538,7.513c0,0.034-0.01,0.063-0.01,0.096
			c3.15,3.164,5.689,7.698,6.895,12.378c4.479-4.99,12.756-15.968,12.756-28.989C88.38,40.984,82.758,34.759,78.918,31.877z"/>
		<path class="st7" d="M80.544,5.224c-1.842,9.208-5.701,16.316-8.225,20.228c0.074,0.086,0.164,0.16,0.235,0.248
			c1.869,2.303,3.981,4.391,6.363,6.178c1.125,0.844,2.401,1.984,3.646,3.457C115.547,20.659,82.811-6.109,80.544,5.224z"/>
		<path class="st7" d="M30.418,31.877c2.382-1.787,4.494-3.875,6.363-6.178c0.071-0.087,0.162-0.162,0.235-0.248
			c-2.524-3.912-6.384-11.02-8.225-20.228c-2.267-11.333-35.003,15.436-2.019,30.11C28.016,33.862,29.293,32.721,30.418,31.877z"/>
		<path class="st7" d="M78.536,31.548c6.289-4.174,7.906-13.348,7.906-13.348"/>
		<path class="st7" d="M22.892,18.2c0,0,1.618,9.174,7.906,13.348"/>
		<path class="st7" d="M29.716,53.315c-0.009-2.813,2.264-5.1,5.077-5.109s5.1,2.264,5.109,5.077"/>
		<path class="st7" d="M69.417,53.315c-0.009-2.813,2.264-5.1,5.077-5.109s5.1,2.264,5.109,5.077"/>
		<path class="st7" d="M180.053,250.481c0.793-3.589,3.209-9.228,10.569-10.274c0.021-0.003,0.04-0.012,0.061-0.015
			c0.066-12.533,1.354-15.306,6.116-31.975c1.652-5.783,0.463-11.753-0.802-17.969c-2.789-7.358-6.77-14.461-12.661-18.746
			c-3.895-2.833-7.585-6.894-10.24-11.622c0,0-5.893,3.167-15.003,4.975c2.078,2.607,4.441,4.869,6.885,6.647
			c10.19,7.411,14.686,23.253,17.134,34.268c1.966,8.848-0.927,25.594-5.511,31.839c-1.037,1.413-2.602,2.352-4.338,2.598
			c-7.36,1.046-9.776,6.684-10.569,10.274c-0.343,1.553,0.848,3.019,2.439,3.019h18.358
			C180.901,253.5,179.71,252.034,180.053,250.481z"/>
		<path class="st7" d="M98.544,248.069c1.603-2.961,4.241-5.126,7.743-6.122h0.001c-0.023-0.32-0.053-0.639-0.053-0.96v-27.874
			c0-3.205,4.662-8.279,4.217-16.845c-0.001-0.002-0.002-0.005-0.004-0.007c-6.073-13.376-23.285-29.09-28.162-47.027
			c-3.944-1.087-7.785-2.467-11.504-4.105c0.812,28.193,20.689,42.663,23.214,56.971c2.802,15.88,1.838,29.823,0.644,36.114
			c-0.327,1.726-1.769,3.017-3.52,3.163c-6.61,0.552-9.609,4.245-10.935,6.693c-1.328,2.452,0.525,5.431,3.314,5.431h18.358
			C99.069,253.5,97.216,250.521,98.544,248.069z"/>
		<path class="st7" d="M126.003,248.832l-1.086-4.885c-0.216-0.972-0.325-1.965-0.325-2.96v-0.737
			c-5.092,0.985-9.261,0.177-12.054-0.809c-0.629,1.083-1.758,1.825-3.059,1.934c-6.61,0.552-9.609,4.245-10.935,6.693
			c-1.328,2.452,0.525,5.431,3.314,5.431h20.401C124.712,253.5,126.535,251.228,126.003,248.832z"/>
		<path class="st7" d="M209.728,251.615c1.196-4.694-0.691-10.354-0.691-10.354c0-0.555,0.003-1.086,0.007-1.605
			c-6.942,2.06-12.463,0.672-15.575-0.62c-0.842,0.6-1.805,1.023-2.848,1.171c-7.36,1.046-9.776,6.684-10.569,10.274
			c-0.343,1.553,0.848,3.019,2.439,3.019h24.812C208.447,253.5,209.446,252.723,209.728,251.615z"/>
		<path class="st7" d="M68.729,69.347c-0.112,4.127-7.097,4.452-13.746,4.452c-0.105,0-0.21-0.001-0.315-0.001v23.899
			c0,0,9.464,8.664,18.222-0.63C79.693,89.848,75.648,76.296,68.729,69.347z"/>
		<path class="st7" d="M41.226,69.25c0-0.18,0.03-0.368,0.055-0.554c-7.324,6.721-11.857,20.921-4.836,28.371
			c8.759,9.294,18.222,0.63,18.222,0.63V73.798C48.06,73.787,41.226,73.407,41.226,69.25z"/>
		<path class="st7" d="M68.739,69.25c0-4.223-7.053-10.196-13.757-10.196S41.226,65.027,41.226,69.25s7.053,4.549,13.757,4.549
			S68.739,73.473,68.739,69.25z"/>
		<path class="st7" d="M54.983,59.054c2.871,0,5.801,1.099,8.219,2.683c-0.261-8.354-2.699-13.665-4.908-16.779
			c-1.77-2.496-5.482-2.496-7.252,0c-2.248,3.17-4.737,8.613-4.922,17.228C48.65,60.366,51.85,59.054,54.983,59.054z"/>
		<path class="st7" d="M54.668,97.697c0,0-6.409,5.858-13.559,2.757c0.783,1.351,1.567,2.639,2.342,3.798
			c5.479,8.189,16.966,8.189,22.444,0c0.776-1.16,1.561-2.449,2.344-3.803C61.084,103.561,54.668,97.697,54.668,97.697z"/>
		<path class="st7" d="M98.544,248.069c1.09-2.013,3.316-4.863,7.744-6.122c-0.023-0.32-0.053-0.639-0.053-0.96v-0.737
			c-5.092,0.985-9.261,0.177-12.054-0.809c-0.629,1.083-1.758,1.825-3.059,1.934c-6.61,0.552-9.609,4.245-10.935,6.693
			c-1.328,2.452,0.525,5.431,3.314,5.431h18.358C99.069,253.5,97.216,250.521,98.544,248.069z"/>
		<path class="st7" d="M180.053,250.481c0.793-3.589,3.209-9.228,10.569-10.274c0.021-0.003,0.041-0.01,0.062-0.013
			c0.001-0.177,0.001-0.364,0.002-0.538c-6.942,2.06-12.463,0.672-15.575-0.62c-0.842,0.6-1.805,1.023-2.848,1.171
			c-7.36,1.046-9.776,6.684-10.569,10.274c-0.343,1.553,0.848,3.019,2.439,3.019h18.358
			C180.901,253.5,179.71,252.034,180.053,250.481z"/>
	</g>
</g>
<g id="Layer_54">
</g>
<g id="Layer_55">
</g>
<g id="Layer_56">
</g>
<g id="Layer_57">
</g>
<g id="Layer_58">
</g>
<g id="Layer_59">
</g>
<g id="Layer_60">
</g>
<g id="Layer_61">
</g>
<g id="Layer_62">
</g>
<g id="Layer_63">
</g>
<g id="Layer_64">
</g>
<g id="Layer_65">
</g>
<g id="Layer_66">
</g>
<g id="Layer_67">
</g>
<g id="Layer_68">
</g>
<g id="Layer_69">
</g>
<g id="Layer_70">
</g>
<g id="Layer_71">
</g>
<g id="Layer_72">
</g>
<g id="Layer_73">
</g>
<g id="Layer_74">
</g>
<g id="Layer_75">
</g>
<g id="Layer_76">
</g>
<g id="Layer_77">
</g>
<g id="Layer_78">
</g>
<g id="Layer_79">
</g>
<g id="Layer_80">
</g>
<g id="Layer_81">
</g>
<g id="Layer_82">
</g>
<g id="Layer_83">
</g>
<g id="Layer_84">
</g>
<g id="Layer_85">
</g>
<g id="Layer_86">
</g>
<g id="Layer_87">
</g>
<g id="Layer_88">
</g>
<g id="Layer_89">
</g>
<g id="Layer_90">
</g>
<g id="Layer_91">
</g>
<g id="Layer_92">
</g>
<g id="Layer_93">
</g>
<g id="Layer_94">
</g>
<g id="Layer_95">
</g>
<g id="Layer_96">
</g>
<g id="Layer_97">
</g>
<g id="Layer_98">
</g>
<g id="Layer_99">
</g>
<g id="Layer_100">
</g>
</svg>
