<?xml version="1.0" encoding="utf-8"?>
<!-- Generator: Adobe Illustrator 22.0.0, SVG Export Plug-In . SVG Version: 6.00 Build 0)  -->
<svg version="1.1" xmlns="http://www.w3.org/2000/svg" xmlns:xlink="http://www.w3.org/1999/xlink" x="0px" y="0px"
	 viewBox="0 0 256 256" style="enable-background:new 0 0 256 256;" xml:space="preserve">
<style type="text/css">
	.st0{fill:#F9BD55;}
	.st1{fill:#F4DBCE;}
	.st2{fill:#52565B;}
	.st3{fill:#FD605B;}
	.st4{fill:#F98080;}
	.st5{fill:#F9E63A;}
	.st6{fill:#039BE6;}
	.st7{fill:none;stroke:#000000;stroke-width:5;stroke-linecap:round;stroke-linejoin:round;stroke-miterlimit:10;}
	.st8{fill:#7D3D1A;}
	.st9{fill:#EAA250;}
	.st10{fill:#DD7F57;}
	.st11{fill:#FFC097;}
	.st12{fill:#F49667;}
	.st13{fill:#F89422;}
	.st14{fill:#E3E4E5;}
	.st15{fill:#6E7175;}
	.st16{fill:#46BAF9;}
	.st17{fill:#D9F3FF;}
	.st18{fill:#828487;}
	.st19{fill:#A8AEB2;}
	.st20{fill:#C9CDD1;}
	.st21{fill:#8CD8F9;}
	.st22{fill:#1AA7E5;}
	.st23{fill:#ACE7FC;}
	.st24{fill:#FFFFFF;}
	.st25{fill:#9E512B;}
	.st26{fill:#7ED5FC;}
	.st27{fill:#7CCC4E;}
	.st28{fill:#3AA03A;}
	.st29{fill:#FCB1B1;}
	.st30{fill:#F76E23;}
	.st31{fill:#C16A44;}
	.st32{fill:#B796EA;}
</style>
<g id="Layer_1">
	<g>
		<path class="st0" d="M164.216,139.486c-10.518,3.328-24.077,5.793-41.235,5.793c-17.111,0-30.642-2.451-41.149-5.765
			c-38.399,42.885,0.824,85.034,13.139,96.461c1.413,1.311,0.985,3.529-0.81,4.323c-4.477,1.981-6.036,5.131-6.453,7.858
			c-0.432,2.832,1.979,5.344,5.02,5.344h18.056c7.606,0,11.035-4.702,11.955-11.653h0.397c0.92,6.951,4.349,11.653,11.955,11.653
			h18.252c3.041,0,5.452-2.513,5.02-5.344c-0.416-2.727-1.975-5.877-6.452-7.858c-1.796-0.794-2.223-3.012-0.81-4.323
			C163.419,224.545,202.657,182.381,164.216,139.486z"/>
		<g>
			<path class="st1" d="M123.968,169.5h-2.059c-7.9,0-14.304,6.404-14.304,14.304v0.226c0,0,14.243,30.517,15.333,51.098
				c1.09-20.582,15.333-51.098,15.333-51.098C138.397,176.043,131.957,169.5,123.968,169.5z"/>
			<path class="st1" d="M122.938,235.128c-0.086,1.621-0.091,3.181,0,4.659C123.029,238.31,123.024,236.75,122.938,235.128z"/>
		</g>
		<path class="st0" d="M192.285,93.744c6.845,0,14.545-6.329,14.545-6.329c-10.227-1.706-12.33-11.645-17.807-24.41
			c22.519-11.25,16.81-45.832,13.712-58.937c-0.401-1.698-2.59-2.13-3.637-0.735c-2.699,3.594-8.444,8.53-20.429,11.296
			c-11.576,2.671-18.086,8.631-21.552,13.279c-16.285-6.556-34.135-5.59-34.135-5.59s-17.851-0.966-34.135,5.59
			C85.379,23.26,78.869,17.3,67.293,14.629c-11.985-2.766-17.73-7.702-20.429-11.296c-1.048-1.395-3.236-0.962-3.637,0.735
			c-3.098,13.104-8.807,47.687,13.712,58.937c-5.477,12.764-7.58,22.703-17.807,24.41c0,0,7.7,6.329,14.545,6.329
			c0,0-3.422,8.137-12.834,9.945c0,0,5.134,9.041,21.39,9.041c0,0-5.134,7.233-11.123,9.041c0,0,18.823,23.507,71.871,23.507
			s71.871-23.507,71.871-23.507c-5.989-1.808-11.123-9.041-11.123-9.041c16.256,0,21.39-9.041,21.39-9.041
			C195.707,101.881,192.285,93.744,192.285,93.744z"/>
		<g>
			<path class="st2" d="M123.497,101.516c0,0-0.031,10.225-11.853,11.085c1.051,10.022,5.954,17.609,11.853,17.609
				s10.802-7.587,11.853-17.609C123.528,111.741,123.497,101.516,123.497,101.516z"/>
		</g>
		<path class="st3" d="M115.603,124.919c2.115,3.291,4.872,5.292,7.894,5.292c3.023,0,5.779-2.001,7.894-5.292
			c-2.114-3.296-4.87-5.299-7.894-5.299C120.473,119.619,117.717,121.623,115.603,124.919z"/>
		<path class="st0" d="M174.507,239.049c9.435-4.956,40.084-24.333,5.543-52.136c-3.582,23.335-21.365,42.024-28.949,49.061
			c-1.413,1.311-0.986,3.529,0.81,4.323c4.477,1.981,6.036,5.131,6.452,7.858c0.432,2.832-1.979,5.344-5.02,5.344h20.047
			c3.081,0,5.469-2.573,5.005-5.439c-0.35-2.161-1.425-4.575-4.1-6.456C173.358,240.946,173.485,239.586,174.507,239.049z"/>
		<path class="st0" d="M213.196,142.873c-7.008-0.997-13.409,4.229-13.735,11.3c-0.826,17.904-6.032,30.472-12.354,39.225
			c4.205,4.499,6.724,8.74,7.975,12.693c16.366-14.382,24.355-34.792,28.035-48.067
			C225.061,151.014,220.398,143.898,213.196,142.873z"/>
		<path class="st4" d="M202.735,4.069c-0.026-0.11-0.078-0.199-0.118-0.297c-2.177,4.411-10.31,19.205-23.363,23.556
			c-15.401,5.134-6.845,16.256-6.845,16.256l-4.278,2.567c0,0,2.567,11.978,12.834,11.978l8.729,4.505
			C211.407,51.028,205.801,17.038,202.735,4.069z"/>
		<path class="st4" d="M66.708,27.327C53.655,22.976,45.522,8.182,43.345,3.771c-0.04,0.099-0.092,0.188-0.118,0.297
			c-3.066,12.969-8.672,46.959,13.041,58.566l8.729-4.505c10.267,0,12.834-11.978,12.834-11.978l-4.278-2.567
			C73.553,43.584,82.109,32.461,66.708,27.327z"/>
		<path class="st2" d="M132.046,90.987c0,4.166-4.383,10.057-8.549,10.057c-4.166,0-8.549-5.891-8.549-10.057
			s4.383-1.006,8.549-1.006C127.663,89.981,132.046,86.821,132.046,90.987z"/>
		<circle class="st5" cx="122.994" cy="164.405" r="11.063"/>
		<path class="st6" d="M122.981,145.279c-14.952,0-27.171-1.872-37.026-4.555c2.792,7.71,14.701,13.798,29.849,15.284
			c1.934-1.658,4.443-2.666,7.19-2.666s5.256,1.008,7.19,2.666c15.154-1.487,27.066-7.579,29.852-15.293
			C150.176,143.403,137.949,145.279,122.981,145.279z"/>
		<path class="st0" d="M71.565,239.049c-9.435-4.956-40.084-24.333-5.543-52.136c3.582,23.335,21.365,42.024,28.949,49.061
			c1.413,1.311,0.986,3.529-0.81,4.323c-4.477,1.981-6.036,5.131-6.452,7.858c-0.432,2.832,1.979,5.344,5.02,5.344H72.682
			c-3.081,0-5.469-2.573-5.005-5.439c0.35-2.161,1.425-4.575,4.1-6.456C72.714,240.946,72.587,239.586,71.565,239.049z"/>
		<path class="st7" d="M174.507,239.049c9.435-4.956,40.084-24.333,5.543-52.136c-3.582,23.335-21.365,42.024-28.949,49.061
			c-1.413,1.311-0.986,3.529,0.81,4.323c4.477,1.981,6.036,5.131,6.452,7.858c0.432,2.832-1.979,5.344-5.02,5.344h20.047
			c3.081,0,5.469-2.573,5.005-5.439c-0.35-2.161-1.425-4.575-4.1-6.456C173.358,240.946,173.485,239.586,174.507,239.049z"/>
		<path class="st7" d="M71.565,239.049c-9.435-4.956-40.084-24.333-5.543-52.136c3.582,23.335,21.365,42.024,28.949,49.061
			c1.413,1.311,0.986,3.529-0.81,4.323c-4.477,1.981-6.036,5.131-6.452,7.858c-0.432,2.832,1.979,5.344,5.02,5.344H72.682
			c-3.081,0-5.469-2.573-5.005-5.439c0.35-2.161,1.425-4.575,4.1-6.456C72.714,240.946,72.587,239.586,71.565,239.049z"/>
		<path class="st7" d="M138.271,184.03c0,0-32.431,69.47-3.179,69.47"/>
		<path class="st7" d="M107.605,184.03c0,0,32.431,69.47,3.179,69.47"/>
		<path class="st7" d="M213.196,142.873c-7.008-0.997-13.409,4.229-13.735,11.3c-0.826,17.904-6.032,30.472-12.354,39.225
			c4.205,4.499,6.724,8.74,7.975,12.693c16.366-14.382,24.355-34.792,28.035-48.067
			C225.061,151.014,220.398,143.898,213.196,142.873z"/>
		<path class="st7" d="M192.285,93.744c6.845,0,14.545-6.329,14.545-6.329c-10.227-1.706-12.33-11.645-17.807-24.41
			c22.519-11.25,16.81-45.832,13.712-58.937c-0.401-1.698-2.59-2.13-3.637-0.735c-2.699,3.594-8.444,8.53-20.429,11.296
			c-11.576,2.671-18.086,8.631-21.552,13.279c-16.285-6.556-34.135-5.59-34.135-5.59s-17.851-0.966-34.135,5.59
			C85.379,23.26,78.869,17.3,67.293,14.629c-11.985-2.766-17.73-7.702-20.429-11.296c-1.048-1.395-3.236-0.962-3.637,0.735
			c-3.098,13.104-8.807,47.687,13.712,58.937c-5.477,12.764-7.58,22.703-17.807,24.41c0,0,7.7,6.329,14.545,6.329
			c0,0-3.422,8.137-12.834,9.945c0,0,5.134,9.041,21.39,9.041c0,0-5.134,7.233-11.123,9.041c0,0,18.823,23.507,71.871,23.507
			s71.871-23.507,71.871-23.507c-5.989-1.808-11.123-9.041-11.123-9.041c16.256,0,21.39-9.041,21.39-9.041
			C195.707,101.881,192.285,93.744,192.285,93.744z"/>
		<path class="st7" d="M189.694,62.634c21.713-11.606,16.107-45.597,13.041-58.566c-0.026-0.11-0.078-0.199-0.118-0.297
			c-2.177,4.411-10.31,19.205-23.363,23.556c-15.401,5.134-6.845,16.256-6.845,16.256l-4.278,2.567c0,0,2.567,11.978,12.834,11.978"
			/>
		<path class="st7" d="M164.216,139.486c-10.518,3.328-24.077,5.793-41.235,5.793c-17.111,0-30.642-2.451-41.149-5.765
			c-38.399,42.885,0.824,85.034,13.139,96.461c1.413,1.311,0.985,3.529-0.81,4.323c-4.477,1.981-6.036,5.131-6.453,7.858
			c-0.432,2.832,1.979,5.344,5.02,5.344h18.056c7.606,0,11.035-4.702,11.955-11.653h0.397c0.92,6.951,4.349,11.653,11.955,11.653
			h18.252c3.041,0,5.452-2.513,5.02-5.344c-0.416-2.727-1.975-5.877-6.452-7.858c-1.796-0.794-2.223-3.012-0.81-4.323
			C163.419,224.545,202.657,182.381,164.216,139.486z"/>
		<circle class="st7" cx="122.994" cy="164.405" r="11.063"/>
		<path class="st7" d="M122.981,145.279c-14.952,0-27.171-1.872-37.026-4.555c2.792,7.71,14.701,13.798,29.849,15.284
			c1.934-1.658,4.443-2.666,7.19-2.666s5.256,1.008,7.19,2.666c15.154-1.487,27.066-7.579,29.852-15.293
			C150.176,143.403,137.949,145.279,122.981,145.279z"/>
		<path class="st7" d="M122.994,175.468c6.11,0,11.063-4.953,11.063-11.063h-22.126
			C111.931,170.515,116.884,175.468,122.994,175.468z"/>
		<line class="st7" x1="122.867" y1="164.405" x2="122.867" y2="167.423"/>
		<path class="st7" d="M132.046,90.987c0,4.166-4.383,10.057-8.549,10.057c-4.166,0-8.549-5.891-8.549-10.057
			s4.383-1.006,8.549-1.006C127.663,89.981,132.046,86.821,132.046,90.987z"/>
		<path class="st7" d="M123.497,101.516c0,0,0.03,10.242,11.88,11.088c11.088,0.792,11.088-11.088,11.088-11.088"/>
		<path class="st7" d="M123.497,101.516c0,0-0.03,10.242-11.88,11.088c-11.088,0.792-11.088-11.088-11.088-11.088"/>
		<g>
			<path class="st7" d="M123.497,101.516c0,0-0.031,10.225-11.853,11.085c1.051,10.022,5.954,17.609,11.853,17.609
				s10.802-7.587,11.853-17.609C123.528,111.741,123.497,101.516,123.497,101.516z"/>
		</g>
		<path class="st7" d="M163.726,94.004c0,0,29.166-2.011,62.355,6.034"/>
		<path class="st7" d="M164.324,103.718c0,0,28.799,5.034,59.094,20.796"/>
		<path class="st7" d="M84.274,94.004c0,0-29.166-2.011-62.355,6.034"/>
		<path class="st7" d="M83.676,103.718c0,0-28.799,5.034-59.094,20.796"/>
		<path class="st7" d="M138.143,80.857c-0.013-3.918,3.153-7.104,7.071-7.116c3.918-0.013,7.104,3.153,7.116,7.071"/>
		<path class="st7" d="M94.152,80.834c0-3.918,3.176-7.093,7.093-7.093s7.093,3.176,7.093,7.093"/>
		<path class="st7" d="M64.997,58.129c10.267,0,12.834-11.978,12.834-11.978l-4.278-2.567c0,0,8.556-11.123-6.845-16.256
			C53.655,22.976,45.522,8.182,43.345,3.771c-0.04,0.099-0.092,0.188-0.118,0.297c-3.066,12.969-8.672,46.959,13.041,58.566"/>
		<path class="st7" d="M115.603,124.919c2.115,3.291,4.872,5.292,7.894,5.292c3.023,0,5.779-2.001,7.894-5.292
			c-2.114-3.296-4.87-5.299-7.894-5.299C120.473,119.619,117.717,121.623,115.603,124.919z"/>
	</g>
</g>
<g id="Layer_2">
</g>
<g id="Layer_3">
</g>
<g id="Layer_4">
</g>
<g id="Layer_5">
</g>
<g id="Layer_6">
</g>
<g id="Layer_7">
</g>
<g id="Layer_8">
</g>
<g id="Layer_9">
</g>
<g id="Layer_10">
</g>
<g id="Layer_11">
</g>
<g id="Layer_12">
</g>
<g id="Layer_13">
</g>
<g id="Layer_14">
</g>
<g id="Layer_15">
</g>
<g id="Layer_16">
</g>
<g id="Layer_17">
</g>
<g id="Layer_18">
</g>
<g id="Layer_19">
</g>
<g id="Layer_20">
</g>
<g id="Layer_21">
</g>
<g id="Layer_22">
</g>
<g id="Layer_23">
</g>
<g id="Layer_24">
</g>
<g id="Layer_25">
</g>
<g id="Layer_26">
</g>
<g id="Layer_27">
</g>
<g id="Layer_28">
</g>
<g id="Layer_29">
</g>
<g id="Layer_30">
</g>
<g id="Layer_31">
</g>
<g id="Layer_32">
</g>
<g id="Layer_33">
</g>
<g id="Layer_34">
</g>
<g id="Layer_35">
</g>
<g id="Layer_36">
</g>
<g id="Layer_37">
</g>
<g id="Layer_38">
</g>
<g id="Layer_39">
</g>
<g id="Layer_40">
</g>
<g id="Layer_41">
</g>
<g id="Layer_42">
</g>
<g id="Layer_43">
</g>
<g id="Layer_44">
</g>
<g id="Layer_45">
</g>
<g id="Layer_46">
</g>
<g id="Layer_47">
</g>
<g id="Layer_48">
</g>
<g id="Layer_49">
</g>
<g id="Layer_50">
</g>
<g id="Layer_51">
</g>
<g id="Layer_52">
</g>
<g id="Layer_53">
</g>
<g id="Layer_54">
</g>
<g id="Layer_55">
</g>
<g id="Layer_56">
</g>
<g id="Layer_57">
</g>
<g id="Layer_58">
</g>
<g id="Layer_59">
</g>
<g id="Layer_60">
</g>
<g id="Layer_61">
</g>
<g id="Layer_62">
</g>
<g id="Layer_63">
</g>
<g id="Layer_64">
</g>
<g id="Layer_65">
</g>
<g id="Layer_66">
</g>
<g id="Layer_67">
</g>
<g id="Layer_68">
</g>
<g id="Layer_69">
</g>
<g id="Layer_70">
</g>
<g id="Layer_71">
</g>
<g id="Layer_72">
</g>
<g id="Layer_73">
</g>
<g id="Layer_74">
</g>
<g id="Layer_75">
</g>
<g id="Layer_76">
</g>
<g id="Layer_77">
</g>
<g id="Layer_78">
</g>
<g id="Layer_79">
</g>
<g id="Layer_80">
</g>
<g id="Layer_81">
</g>
<g id="Layer_82">
</g>
<g id="Layer_83">
</g>
<g id="Layer_84">
</g>
<g id="Layer_85">
</g>
<g id="Layer_86">
</g>
<g id="Layer_87">
</g>
<g id="Layer_88">
</g>
<g id="Layer_89">
</g>
<g id="Layer_90">
</g>
<g id="Layer_91">
</g>
<g id="Layer_92">
</g>
<g id="Layer_93">
</g>
<g id="Layer_94">
</g>
<g id="Layer_95">
</g>
<g id="Layer_96">
</g>
<g id="Layer_97">
</g>
<g id="Layer_98">
</g>
<g id="Layer_99">
</g>
<g id="Layer_100">
</g>
</svg>
