<?xml version="1.0" encoding="utf-8"?>
<!-- Generator: Adobe Illustrator 22.0.0, SVG Export Plug-In . SVG Version: 6.00 Build 0)  -->
<svg version="1.1" xmlns="http://www.w3.org/2000/svg" xmlns:xlink="http://www.w3.org/1999/xlink" x="0px" y="0px"
	 viewBox="0 0 256 256" style="enable-background:new 0 0 256 256;" xml:space="preserve">
<style type="text/css">
	.st0{fill:#F9BD55;}
	.st1{fill:#F4DBCE;}
	.st2{fill:#52565B;}
	.st3{fill:#FD605B;}
	.st4{fill:#F98080;}
	.st5{fill:#F9E63A;}
	.st6{fill:#039BE6;}
	.st7{fill:none;stroke:#000000;stroke-width:5;stroke-linecap:round;stroke-linejoin:round;stroke-miterlimit:10;}
	.st8{fill:#7D3D1A;}
	.st9{fill:#EAA250;}
	.st10{fill:#DD7F57;}
	.st11{fill:#FFC097;}
	.st12{fill:#F49667;}
	.st13{fill:#F89422;}
	.st14{fill:#E3E4E5;}
	.st15{fill:#6E7175;}
	.st16{fill:#46BAF9;}
	.st17{fill:#D9F3FF;}
	.st18{fill:#828487;}
	.st19{fill:#A8AEB2;}
	.st20{fill:#C9CDD1;}
	.st21{fill:#8CD8F9;}
	.st22{fill:#1AA7E5;}
	.st23{fill:#ACE7FC;}
	.st24{fill:#FFFFFF;}
	.st25{fill:#9E512B;}
	.st26{fill:#7ED5FC;}
	.st27{fill:#7CCC4E;}
	.st28{fill:#3AA03A;}
	.st29{fill:#FCB1B1;}
	.st30{fill:#F76E23;}
	.st31{fill:#C16A44;}
	.st32{fill:#B796EA;}
</style>
<g id="Layer_1">
</g>
<g id="Layer_2">
</g>
<g id="Layer_3">
</g>
<g id="Layer_4">
</g>
<g id="Layer_5">
</g>
<g id="Layer_6">
</g>
<g id="Layer_7">
</g>
<g id="Layer_8">
</g>
<g id="Layer_9">
</g>
<g id="Layer_10">
</g>
<g id="Layer_11">
</g>
<g id="Layer_12">
</g>
<g id="Layer_13">
</g>
<g id="Layer_14">
</g>
<g id="Layer_15">
</g>
<g id="Layer_16">
</g>
<g id="Layer_17">
</g>
<g id="Layer_18">
</g>
<g id="Layer_19">
</g>
<g id="Layer_20">
</g>
<g id="Layer_21">
</g>
<g id="Layer_22">
</g>
<g id="Layer_23">
</g>
<g id="Layer_24">
</g>
<g id="Layer_25">
</g>
<g id="Layer_26">
</g>
<g id="Layer_27">
</g>
<g id="Layer_28">
</g>
<g id="Layer_29">
</g>
<g id="Layer_30">
</g>
<g id="Layer_31">
</g>
<g id="Layer_32">
</g>
<g id="Layer_33">
</g>
<g id="Layer_34">
</g>
<g id="Layer_35">
</g>
<g id="Layer_36">
</g>
<g id="Layer_37">
</g>
<g id="Layer_38">
</g>
<g id="Layer_39">
</g>
<g id="Layer_40">
</g>
<g id="Layer_41">
</g>
<g id="Layer_42">
</g>
<g id="Layer_43">
</g>
<g id="Layer_44">
</g>
<g id="Layer_45">
</g>
<g id="Layer_46">
</g>
<g id="Layer_47">
</g>
<g id="Layer_48">
</g>
<g id="Layer_49">
</g>
<g id="Layer_50">
</g>
<g id="Layer_51">
</g>
<g id="Layer_52">
</g>
<g id="Layer_53">
</g>
<g id="Layer_54">
</g>
<g id="Layer_55">
</g>
<g id="Layer_56">
</g>
<g id="Layer_57">
</g>
<g id="Layer_58">
</g>
<g id="Layer_59">
</g>
<g id="Layer_60">
</g>
<g id="Layer_61">
</g>
<g id="Layer_62">
</g>
<g id="Layer_63">
</g>
<g id="Layer_64">
</g>
<g id="Layer_65">
</g>
<g id="Layer_66">
</g>
<g id="Layer_67">
</g>
<g id="Layer_68">
</g>
<g id="Layer_69">
</g>
<g id="Layer_70">
</g>
<g id="Layer_71">
</g>
<g id="Layer_72">
</g>
<g id="Layer_73">
</g>
<g id="Layer_74">
</g>
<g id="Layer_75">
</g>
<g id="Layer_76">
</g>
<g id="Layer_77">
</g>
<g id="Layer_78">
</g>
<g id="Layer_79">
</g>
<g id="Layer_80">
</g>
<g id="Layer_81">
</g>
<g id="Layer_82">
</g>
<g id="Layer_83">
</g>
<g id="Layer_84">
</g>
<g id="Layer_85">
</g>
<g id="Layer_86">
</g>
<g id="Layer_87">
</g>
<g id="Layer_88">
</g>
<g id="Layer_89">
</g>
<g id="Layer_90">
</g>
<g id="Layer_91">
</g>
<g id="Layer_92">
</g>
<g id="Layer_93">
</g>
<g id="Layer_94">
</g>
<g id="Layer_95">
</g>
<g id="Layer_96">
</g>
<g id="Layer_97">
</g>
<g id="Layer_98">
</g>
<g id="Layer_99">
	<g>
		<path class="st27" d="M43.49,53.906c-17.538,17.538-27.505,6.057-32.263,29.274c-0.647,3.155-1.985,6.148-4.025,8.641
			c-3.25,3.971-7.268,10.829-2.531,16.591l-0.129,0.309c-5.476,10.951,8.171,18.96,15.061,20.804
			c2.356,0.63,4.695,1.342,6.909,2.365c16.012,7.398,30.814,5.765,42.326,5.036c13.338-0.845,23.696-11.956,23.696-25.321V55.983
			c0-9.919-8.77-17.574-18.59-16.172C64.233,41.196,52.523,44.874,43.49,53.906z"/>
		<path class="st27" d="M173.704,39.556c-47.091-1.811-71.618,16.174-81.17,25.611v46.437c0,4.993-1.448,9.67-3.954,13.616
			c1.371,4.353,4.718,9.092,12.809,9.092h25.022c0.372-0.421,0.753-0.839,1.161-1.247c0,0-17.455-6.234-21.196-14.962
			s8.728-17.455,16.208-9.974c7.481,7.481,23.689,12.468,19.949,23.689c0,0-0.756,0.946-1.849,2.494h43.355
			c-4.887-12.112-7.733-27.405,5.872-32.417c23.689-8.728,39.898,22.443,39.898,22.443s3.74,7.481-3.063,13.176
			c-3.056,2.558-7.462,2.747-11.168,1.278c-4.865-1.929-11.643-5.643-14.733-12.028c0.91,2.385,2.32,6.298,3.571,10.696
			c12.467,5.497,21.386,17.653,22.007,32.078c0.512,11.891-2.109,25.952-11.576,40.829c-21.158,33.248-55.368,30.924-67.349,26.132
			c-10-4-17.434-10.939-17.434-21.651c0-13.715,12.468-22.443,22.443-22.443c7.481,0,14.26,4.909,19.286,11.046
			c1.328,1.621,3.945,0.287,3.457-1.751c-2.07-8.661-8.589-20.9-28.978-19.269c-38.528,3.082-46.132,71.068,14.962,71.068
			S253.5,192.913,253.5,149.275S238.538,42.049,173.704,39.556z"/>
		<path class="st28" d="M42.446,54.911c11.048-1.806,36.218-3.055,50.089,19.092v-18.02c0-9.919-8.77-17.574-18.59-16.172
			c-9.713,1.385-21.423,5.064-30.455,14.096C43.137,54.259,42.793,54.581,42.446,54.911z"/>
		<circle class="st28" cx="53.707" cy="85.74" r="19.334"/>
		<g>
			<path class="st28" d="M173.704,56.847c62.554,2.189,78.679,56.137,79.736,95.599c0.036-1.066,0.059-2.126,0.059-3.171
				c0-43.638-14.962-107.225-79.796-109.719c-47.091-1.811-71.618,16.174-81.17,25.611v14.988
				C102.087,71.566,126.614,55.198,173.704,56.847z"/>
		</g>
		<path class="st28" d="M229.811,124.338c0,0,3.74,7.481-3.063,13.176c-3.056,2.559-7.462,2.747-11.168,1.278
			c-5.453-2.162-13.324-6.557-15.693-14.454c0,0,7.204,17.178,7.204,28.63c0,5.944-6.088,10.05-11.637,7.92
			c-4.524-1.736-11.8-3.416-18.415-0.022c-2.621,1.345-5.83,0.038-6.864-2.72l0,0c-0.919-2.449,0.199-5.201,2.58-6.282
			c3.951-1.794,10.681-3.586,19.652-1.343c0,0-26.183-39.898-2.494-48.625S229.811,124.338,229.811,124.338z"/>
		<path class="st28" d="M122.585,108.13c-7.481-7.481-19.949,1.247-16.208,9.974s21.196,14.962,21.196,14.962
			c-7.481,7.481-8.728,17.455-8.728,17.455c-8.773-2.193-15.402-0.528-19.386,1.224c-2.226,0.98-3.591,3.376-3.044,5.746
			c0.738,3.199,4.241,4.823,7.062,3.376c8.049-4.131,16.011-0.609,19.199,0.281c4.944,1.376,9.79-2.611,9.878-7.742l0.007-0.391
			c0-8.728,9.974-21.196,9.974-21.196C146.275,120.598,130.066,115.611,122.585,108.13z"/>
		<path class="st7" d="M4.671,108.413c1.425,1.734,3.644,3.369,6.915,4.796c4.325,1.887,9.035,2.725,13.753,2.725h13.824"/>
		<path class="st7" d="M43.49,53.906c-17.538,17.538-27.505,6.057-32.263,29.274c-0.647,3.155-1.985,6.148-4.025,8.641
			c-3.25,3.971-7.268,10.829-2.531,16.591l-0.129,0.309c-5.476,10.951,8.171,18.96,15.061,20.804
			c2.356,0.63,4.695,1.342,6.909,2.365c16.012,7.398,30.814,5.765,42.326,5.036c13.338-0.845,23.696-11.956,23.696-25.321V55.983
			c0-9.919-8.77-17.574-18.59-16.172C64.233,41.196,52.523,44.874,43.49,53.906z"/>
		<line class="st7" x1="16.804" y1="102.23" x2="18.247" y2="102.23"/>
		<path class="st7" d="M42.446,54.911c11.048-1.806,36.218-3.055,50.089,19.092v-18.02c0-9.919-8.77-17.574-18.59-16.172
			c-9.713,1.385-21.423,5.064-30.455,14.096C43.137,54.259,42.793,54.581,42.446,54.911z"/>
		<path class="st7" d="M46.634,85.985c-0.013-3.906,3.144-7.083,7.05-7.096s7.083,3.144,7.096,7.05"/>
		<circle class="st7" cx="53.707" cy="85.74" r="19.334"/>
		<g>
			<path class="st7" d="M173.704,56.847c62.554,2.189,78.679,56.137,79.736,95.599c0.036-1.066,0.059-2.126,0.059-3.171
				c0-43.638-14.962-107.225-79.796-109.719c-47.091-1.811-71.618,16.174-81.17,25.611v14.988
				C102.087,71.566,126.614,55.198,173.704,56.847z"/>
		</g>
		<path class="st7" d="M229.811,124.338c0,0,3.74,7.481-3.063,13.176c-3.056,2.559-7.462,2.747-11.168,1.278
			c-5.453-2.162-13.324-6.557-15.693-14.454c0,0,7.204,17.178,7.204,28.63c0,5.944-6.088,10.05-11.637,7.92
			c-4.524-1.736-11.8-3.416-18.415-0.022c-2.621,1.345-5.83,0.038-6.864-2.72l0,0c-0.919-2.449,0.199-5.201,2.58-6.282
			c3.951-1.794,10.681-3.586,19.652-1.343c0,0-26.183-39.898-2.494-48.625S229.811,124.338,229.811,124.338z"/>
		<path class="st7" d="M122.585,108.13c-7.481-7.481-19.949,1.247-16.208,9.974s21.196,14.962,21.196,14.962
			c-7.481,7.481-8.728,17.455-8.728,17.455c-8.773-2.193-15.402-0.528-19.386,1.224c-2.226,0.98-3.591,3.376-3.044,5.746
			c0.738,3.199,4.241,4.823,7.062,3.376c8.049-4.131,16.011-0.609,19.199,0.281c4.944,1.376,9.79-2.611,9.878-7.742l0.007-0.391
			c0-8.728,9.974-21.196,9.974-21.196C146.275,120.598,130.066,115.611,122.585,108.13z"/>
		<path class="st7" d="M173.704,39.556c-47.091-1.811-71.618,16.174-81.17,25.611v46.437c0,4.993-1.448,9.67-3.954,13.616
			c1.371,4.353,4.718,9.092,12.809,9.092h25.022c0.372-0.421,0.753-0.839,1.161-1.247c0,0-17.455-6.234-21.196-14.962
			s8.728-17.455,16.208-9.974c7.481,7.481,23.689,12.468,19.949,23.689c0,0-0.756,0.946-1.849,2.494h43.355
			c-4.887-12.112-7.733-27.405,5.872-32.417c23.689-8.728,39.898,22.443,39.898,22.443s3.74,7.481-3.063,13.176
			c-3.056,2.558-7.462,2.747-11.168,1.278c-4.865-1.929-11.643-5.643-14.733-12.028c0.91,2.385,2.32,6.298,3.571,10.696
			c12.467,5.497,21.386,17.653,22.007,32.078c0.512,11.891-2.109,25.952-11.576,40.829c-21.158,33.248-55.368,30.924-67.349,26.132
			c-10-4-17.434-10.939-17.434-21.651c0-13.715,12.468-22.443,22.443-22.443c7.481,0,14.26,4.909,19.286,11.046
			c1.328,1.621,3.945,0.287,3.457-1.751c-2.07-8.661-8.589-20.9-28.978-19.269c-38.528,3.082-46.132,71.068,14.962,71.068
			S253.5,192.913,253.5,149.275S238.538,42.049,173.704,39.556z"/>
		<path class="st7" d="M126.326,76.96c0,0,12.468-7.481,39.898-7.481s41.145,9.974,41.145,9.974"/>
	</g>
</g>
<g id="Layer_100">
</g>
</svg>
