<?xml version="1.0" encoding="utf-8"?>
<!-- Generator: Adobe Illustrator 22.0.0, SVG Export Plug-In . SVG Version: 6.00 Build 0)  -->
<svg version="1.1" xmlns="http://www.w3.org/2000/svg" xmlns:xlink="http://www.w3.org/1999/xlink" x="0px" y="0px"
	 viewBox="0 0 256 256" style="enable-background:new 0 0 256 256;" xml:space="preserve">
<style type="text/css">
	.st0{fill:#F9BD55;}
	.st1{fill:#F4DBCE;}
	.st2{fill:#52565B;}
	.st3{fill:#FD605B;}
	.st4{fill:#F98080;}
	.st5{fill:#F9E63A;}
	.st6{fill:#039BE6;}
	.st7{fill:none;stroke:#000000;stroke-width:5;stroke-linecap:round;stroke-linejoin:round;stroke-miterlimit:10;}
	.st8{fill:#7D3D1A;}
	.st9{fill:#EAA250;}
	.st10{fill:#DD7F57;}
	.st11{fill:#FFC097;}
	.st12{fill:#F49667;}
	.st13{fill:#F89422;}
	.st14{fill:#E3E4E5;}
	.st15{fill:#6E7175;}
	.st16{fill:#46BAF9;}
	.st17{fill:#D9F3FF;}
	.st18{fill:#828487;}
	.st19{fill:#A8AEB2;}
	.st20{fill:#C9CDD1;}
	.st21{fill:#8CD8F9;}
	.st22{fill:#1AA7E5;}
	.st23{fill:#ACE7FC;}
	.st24{fill:#FFFFFF;}
	.st25{fill:#9E512B;}
	.st26{fill:#7ED5FC;}
	.st27{fill:#7CCC4E;}
	.st28{fill:#3AA03A;}
	.st29{fill:#FCB1B1;}
	.st30{fill:#F76E23;}
	.st31{fill:#C16A44;}
	.st32{fill:#B796EA;}
</style>
<g id="Layer_1">
</g>
<g id="Layer_2">
</g>
<g id="Layer_3">
</g>
<g id="Layer_4">
</g>
<g id="Layer_5">
</g>
<g id="Layer_6">
</g>
<g id="Layer_7">
</g>
<g id="Layer_8">
</g>
<g id="Layer_9">
</g>
<g id="Layer_10">
</g>
<g id="Layer_11">
</g>
<g id="Layer_12">
</g>
<g id="Layer_13">
</g>
<g id="Layer_14">
</g>
<g id="Layer_15">
</g>
<g id="Layer_16">
</g>
<g id="Layer_17">
</g>
<g id="Layer_18">
</g>
<g id="Layer_19">
</g>
<g id="Layer_20">
</g>
<g id="Layer_21">
</g>
<g id="Layer_22">
</g>
<g id="Layer_23">
</g>
<g id="Layer_24">
</g>
<g id="Layer_25">
</g>
<g id="Layer_26">
</g>
<g id="Layer_27">
</g>
<g id="Layer_28">
</g>
<g id="Layer_29">
</g>
<g id="Layer_30">
</g>
<g id="Layer_31">
</g>
<g id="Layer_32">
</g>
<g id="Layer_33">
</g>
<g id="Layer_34">
</g>
<g id="Layer_35">
</g>
<g id="Layer_36">
</g>
<g id="Layer_37">
</g>
<g id="Layer_38">
</g>
<g id="Layer_39">
</g>
<g id="Layer_40">
</g>
<g id="Layer_41">
</g>
<g id="Layer_42">
</g>
<g id="Layer_43">
</g>
<g id="Layer_44">
</g>
<g id="Layer_45">
</g>
<g id="Layer_46">
</g>
<g id="Layer_47">
</g>
<g id="Layer_48">
</g>
<g id="Layer_49">
</g>
<g id="Layer_50">
</g>
<g id="Layer_51">
</g>
<g id="Layer_52">
</g>
<g id="Layer_53">
</g>
<g id="Layer_54">
</g>
<g id="Layer_55">
</g>
<g id="Layer_56">
</g>
<g id="Layer_57">
</g>
<g id="Layer_58">
</g>
<g id="Layer_59">
</g>
<g id="Layer_60">
</g>
<g id="Layer_61">
</g>
<g id="Layer_62">
</g>
<g id="Layer_63">
</g>
<g id="Layer_64">
</g>
<g id="Layer_65">
</g>
<g id="Layer_66">
</g>
<g id="Layer_67">
</g>
<g id="Layer_68">
</g>
<g id="Layer_69">
</g>
<g id="Layer_70">
</g>
<g id="Layer_71">
</g>
<g id="Layer_72">
</g>
<g id="Layer_73">
</g>
<g id="Layer_74">
</g>
<g id="Layer_75">
</g>
<g id="Layer_76">
</g>
<g id="Layer_77">
</g>
<g id="Layer_78">
</g>
<g id="Layer_79">
</g>
<g id="Layer_80">
</g>
<g id="Layer_81">
</g>
<g id="Layer_82">
</g>
<g id="Layer_83">
	<g>
		<path class="st14" d="M91.184,126.785c0.246,4.356,1.207,9.059,3.174,14.06c7.622,19.381,27.806,31.746,49.034,28.59
			c9.208-1.369,19.22-5.678,28.733-15.403c0,0-5.805,1.388-13.003,0.688c0,0,14.432-7.562,21.738-18.277
			c0,0-7.884,3.726-20.96,1.935c0,0,15.487-2.835,21.517-19.823c0,0-9.607,6.574-22.855,0.634
			c-6.867-3.079-16.681-9.921-26.841-15.762C113.384,92.884,90.02,106.215,91.184,126.785z"/>
		<path class="st14" d="M152.481,191.862c55.044-9.583,61.955-62.918,61.955-62.918c-6.628,2.741-11.95-0.237-11.95-0.237
			c11.353-11.827,10.056-28.095,10.056-28.095c-5.681,9.139-15.918,10.73-15.918,10.73c1.204-6.653,0.767-12.558,0.767-12.558
			s-7.539,17.768-39.916,19.896c0.368,0.177,0.733,0.352,1.085,0.51c13.248,5.94,22.855-0.634,22.855-0.634
			c-6.03,16.988-21.517,19.822-21.517,19.822c13.075,1.792,20.96-1.935,20.96-1.935c-7.306,10.716-21.738,18.277-21.738,18.277
			c7.198,0.699,13.003-0.688,13.003-0.688c-9.513,9.726-19.526,14.034-28.733,15.403c-21.228,3.156-41.411-9.208-49.034-28.59
			c-1.967-5.001-2.927-9.704-3.174-14.06c-0.806-14.24,10.145-25.004,23.044-26.786c-3.469-6.501-4.439-14.078-2.719-21.323
			c6.452-27.185,5.787-56.172-18.274-60.319c-22.567-3.889-29.111,13.626-30.471,18.443c0.274,0.037,0.535,0.151,0.73,0.353
			c1.156,1.196,3.701,4.551,3.701,10.908l-1.52,5.867c-0.032,0.123-0.087,0.231-0.152,0.333c13.354,5.039,9.254,25.85,1.198,60.061
			c-8.014,34.036,11.28,70.433,52.844,77.704c1.034,2.866,2.345,5.638,3.945,8.25c2.242,3.659,5.058,7.129,6.038,11.274
			c0.558-1.067,1.919-1.818,2.477-2.885c1.47,1.778,2.138,3.239,3.609,5.017c1.985-1.736,3.162-3.707,4.587-5.896
			c1.65,1.355,3.86,2.681,5.509,4.036c0.197-2.656,0.866-4.036,1.777-6.673c1.258,1.092,3.767,1.559,5.025,2.651
			c-1.881-2.549-1.538-6.031-0.694-9.052C151.838,198.747,152.378,195.929,152.481,191.862z"/>
		<path class="st14" d="M125.514,203.385c-0.678-1.035-1.364-2.065-2.004-3.11c-1.601-2.613-2.911-5.385-3.945-8.25
			c-10.974-1.92-20.379-5.885-28.155-11.286c0.621,6.866,2.814,13.602,6.45,19.536c2.242,3.659,5.058,7.129,6.038,11.274
			c0.558-1.067,1.919-1.818,2.477-2.885c1.47,1.778,2.138,3.239,3.609,5.017c1.985-1.736,3.162-3.707,4.587-5.896
			c1.65,1.355,3.86,2.681,5.509,4.036c0.197-2.656,0.866-4.036,1.777-6.673c1.258,1.092,3.767,1.559,5.025,2.651
			C125.928,206.507,125.549,204.975,125.514,203.385z"/>
		<path class="st3" d="M71.124,78.391c0.888-0.265,1.814-0.65,2.775-1.171c1.112-12.339-0.884-20.133-8.377-22.96l0,0
			c-0.32,0.501-0.993,0.72-1.575,0.442c-0.087-0.042-0.191-0.09-0.286-0.135c0.548,2.621,0.788,7.124-2.024,12.136
			C58.12,72.971,64.066,80.494,71.124,78.391z"/>
		<path class="st3" d="M93.234,18.357c10.071,1.736,16.032,7.833,19.099,16.318c6.801-13.782-1.841-18.337-5.394-19.574
			c-0.796-0.278-1.346-0.976-1.384-1.792c-0.132-2.826-1.258-9.085-8.533-10.489c-7.739-1.494-11.58,2.615-13.204,5.265
			c-0.588,0.959-1.882,1.267-2.857,0.67c-2.761-1.69-8.268-3.747-14.239,1.377c-7.505,6.439-2.507,16.1-0.629,19.146
			C70.051,22.878,77.978,15.727,93.234,18.357z"/>
		<path class="st0" d="M63.493,37.152c-0.316-0.327-0.8-0.454-1.245-0.328c-11.722,3.302-17.908,9.191-20.511,12.329
			c-0.488,0.589,0.136,1.407,0.868,1.143c11.738-4.236,24.59-2.236,24.59-2.236C67.194,41.703,64.649,38.348,63.493,37.152z"/>
		<path class="st0" d="M46.576,49.098c6.795,0.808,14.352,4.157,17.371,5.603c0.699,0.335,1.538-0.043,1.727-0.774l1.52-5.867
			C67.194,48.06,57.063,46.487,46.576,49.098z"/>
		<path class="st0" d="M150.49,216.379c-1.081-2.702-1.266-6.469-1.6-10.397c-0.525-0.245-1.011-0.511-1.382-0.833
			c-0.911,2.637-1.58,4.017-1.777,6.673c-1.65-1.355-3.86-2.681-5.509-4.036c-1.36,2.088-2.501,3.975-4.326,5.651
			c2.914,5.265,4.965,8.696,4.965,8.696c-2.365,5.083-1.842,4.507-2.84,10.494c-0.703,4.219-2.95,6.017-3.963,9.03
			c-0.275,0.817-1.152,1.257-1.977,1.009c-8.384-2.521-10.808-0.627-14.676,3.214c-1.142,1.135-2.129,3.374-1.566,5.24
			c0.525,1.74,1.999,2.706,4.131,2.032c2.675-0.846,6.479-1.743,9.116-1.084c3.211,0.803,6.422,0.452,7.974,0.19
			c0.599-0.1,1.21-0.018,1.759,0.24c1.249,0.586,3.855,1.477,7.021,0.686c2.216-0.554,3.883-0.284,5,0.13
			c0.808,0.299,1.661-0.423,1.488-1.267c-1.145-5.565-6.487-5.565-6.487-5.565c-4.468-4.468,5.857-20.053,5.857-20.053
			C153.943,220.665,150.49,216.379,150.49,216.379z"/>
		<path class="st0" d="M119.057,253.338c-1.637,0.169-2.772-0.739-3.218-2.217c-0.564-1.866,0.424-4.106,1.566-5.24
			c0.607-0.603,1.177-1.15,1.741-1.647c-0.909-6.01,6.901-17.802,6.901-17.802c2.245-5.766-1.208-10.052-1.208-10.052
			c-1.081-2.702-1.266-6.469-1.6-10.397c-0.525-0.245-1.011-0.511-1.382-0.833c-0.911,2.637-1.58,4.017-1.777,6.673
			c-1.65-1.355-3.86-2.681-5.509-4.036c-1.36,2.088-2.501,3.975-4.326,5.651c2.914,5.265,4.965,8.696,4.965,8.696
			c-2.365,5.083-1.842,4.507-2.84,10.494c-0.703,4.219-2.95,6.017-3.963,9.03c-0.275,0.817-1.152,1.257-1.977,1.009
			c-8.384-2.521-10.808-0.627-14.676,3.214c-1.142,1.135-2.129,3.374-1.566,5.24c0.525,1.74,1.999,2.706,4.131,2.032
			c2.675-0.846,6.479-1.743,9.116-1.084c3.211,0.803,6.422,0.452,7.974,0.19c0.599-0.1,1.21-0.018,1.759,0.24
			c1.097,0.515,3.239,1.263,5.889,0.903V253.338z"/>
		<path class="st7" d="M63.493,37.152c-0.316-0.327-0.8-0.454-1.245-0.328c-11.722,3.302-17.908,9.191-20.511,12.329
			c-0.488,0.589,0.136,1.407,0.868,1.143c11.738-4.236,24.59-2.236,24.59-2.236C67.194,41.703,64.649,38.348,63.493,37.152z"/>
		<path class="st7" d="M46.576,49.098c6.795,0.808,14.352,4.157,17.371,5.603c0.699,0.335,1.538-0.043,1.727-0.774l1.52-5.867
			C67.194,48.06,57.063,46.487,46.576,49.098z"/>
		<path class="st7" d="M196.625,111.341c-0.226,1.25-0.51,2.525-0.866,3.794"/>
		<path class="st7" d="M202.487,128.707c-0.97,1.011-2.033,1.989-3.197,2.923"/>
		<path class="st7" d="M71.124,78.391c0.888-0.265,1.814-0.65,2.775-1.171c1.112-12.339-0.884-20.133-8.377-22.96l0,0
			c-0.32,0.501-0.993,0.72-1.575,0.442c-0.087-0.042-0.191-0.09-0.286-0.135c0.548,2.621,0.788,7.124-2.024,12.136
			C58.12,72.971,64.066,80.494,71.124,78.391z"/>
		<path class="st7" d="M93.234,18.357c10.071,1.736,16.032,7.833,19.099,16.318c6.801-13.782-1.841-18.337-5.394-19.574
			c-0.796-0.278-1.346-0.976-1.384-1.792c-0.132-2.826-1.258-9.085-8.533-10.489c-7.739-1.494-11.58,2.615-13.204,5.265
			c-0.588,0.959-1.882,1.267-2.857,0.67c-2.761-1.69-8.268-3.747-14.239,1.377c-7.505,6.439-2.507,16.1-0.629,19.146
			C70.051,22.878,77.978,15.727,93.234,18.357z"/>
		<path class="st7" d="M80.272,41.176c-0.011-3.214,2.68-5.828,6.01-5.839c3.33-0.01,6.038,2.587,6.049,5.801"/>
		<path class="st7" d="M159.121,154.72c-3.338-0.324-6.976-1.097-10.474-2.666"/>
		<path class="st7" d="M159.899,138.378c-2.931-0.402-6.122-1.08-9.544-2.14"/>
		<path class="st7" d="M91.184,126.785c0.246,4.356,1.207,9.059,3.174,14.06c7.622,19.381,27.806,31.746,49.034,28.59
			c9.208-1.369,19.22-5.678,28.733-15.403c0,0-5.805,1.388-13.003,0.688c0,0,14.432-7.562,21.738-18.277
			c0,0-7.884,3.726-20.96,1.935c0,0,15.487-2.835,21.517-19.823c0,0-9.607,6.574-22.855,0.634
			c-6.867-3.079-16.681-9.921-26.841-15.762C113.384,92.884,90.02,106.215,91.184,126.785z"/>
		<path class="st7" d="M116.906,178.728c0.339,7.557,2.614,15.034,6.604,21.546c2.242,3.66,5.058,7.13,6.038,11.275
			c0.558-1.067,1.919-1.818,2.477-2.885c1.47,1.778,2.139,3.239,3.609,5.017c1.985-1.736,3.162-3.707,4.587-5.896
			c1.65,1.355,3.86,2.681,5.509,4.036c0.197-2.656,0.866-4.036,1.777-6.673c1.258,1.092,3.767,1.559,5.025,2.651
			c-1.881-2.549-1.538-6.031-0.694-9.052c0,0,1.584-8.183-0.142-16.839"/>
		<path class="st7" d="M152.481,191.862c55.044-9.583,61.955-62.918,61.955-62.918c-6.628,2.741-11.95-0.237-11.95-0.237
			c11.353-11.827,10.056-28.095,10.056-28.095c-5.681,9.139-15.918,10.73-15.918,10.73c1.204-6.653,0.767-12.558,0.767-12.558
			s-7.539,17.768-39.916,19.896c0.368,0.177,0.733,0.352,1.085,0.51c13.248,5.94,22.855-0.634,22.855-0.634
			c-6.03,16.988-21.517,19.822-21.517,19.822c13.075,1.792,20.96-1.935,20.96-1.935c-7.306,10.716-21.738,18.277-21.738,18.277
			c7.198,0.699,13.003-0.688,13.003-0.688c-9.513,9.726-19.526,14.034-28.733,15.403c-21.228,3.156-41.411-9.208-49.034-28.59
			c-1.967-5.001-2.927-9.704-3.174-14.06c-0.806-14.24,10.145-25.004,23.044-26.786c-3.469-6.501-4.439-14.078-2.719-21.323
			c6.452-27.185,5.787-56.172-18.274-60.319c-22.567-3.889-29.111,13.626-30.471,18.443c0.274,0.037,0.535,0.151,0.73,0.353
			c1.156,1.196,3.701,4.551,3.701,10.908l-1.52,5.867c-0.032,0.123-0.087,0.231-0.152,0.333c13.354,5.039,9.254,25.85,1.198,60.061
			c-8.014,34.036,11.28,70.433,52.844,77.704c1.034,2.866,2.345,5.638,3.945,8.25c2.242,3.659,5.058,7.129,6.038,11.274
			c0.558-1.067,1.919-1.818,2.477-2.885c1.47,1.778,2.138,3.239,3.609,5.017c1.985-1.736,3.162-3.707,4.587-5.896
			c1.65,1.355,3.86,2.681,5.509,4.036c0.197-2.656,0.866-4.036,1.777-6.673c1.258,1.092,3.767,1.559,5.025,2.651
			c-1.881-2.549-1.538-6.031-0.694-9.052C151.838,198.747,152.378,195.929,152.481,191.862z"/>
		<path class="st7" d="M150.49,216.379c-1.081-2.702-1.266-6.469-1.6-10.397c-0.525-0.245-1.011-0.511-1.382-0.833
			c-0.911,2.637-1.58,4.017-1.777,6.673c-1.65-1.355-3.86-2.681-5.509-4.036c-1.36,2.088-2.501,3.975-4.326,5.651
			c2.914,5.265,4.965,8.696,4.965,8.696c-2.365,5.083-1.842,4.507-2.84,10.494c-0.703,4.219-2.95,6.017-3.963,9.03
			c-0.275,0.817-1.152,1.257-1.977,1.009c-8.384-2.521-10.808-0.627-14.676,3.214c-1.142,1.135-2.129,3.374-1.566,5.24
			c0.525,1.74,1.999,2.706,4.131,2.032c2.675-0.846,6.479-1.743,9.116-1.084c3.211,0.803,6.422,0.452,7.974,0.19
			c0.599-0.1,1.21-0.018,1.759,0.24c1.249,0.586,3.855,1.477,7.021,0.686c2.216-0.554,3.883-0.284,5,0.13
			c0.808,0.299,1.661-0.423,1.488-1.267c-1.145-5.565-6.487-5.565-6.487-5.565c-4.468-4.468,5.857-20.053,5.857-20.053
			C153.943,220.665,150.49,216.379,150.49,216.379z"/>
		<path class="st7" d="M125.514,203.385c-0.678-1.035-1.364-2.065-2.004-3.11c-1.601-2.613-2.911-5.385-3.945-8.25
			c-10.974-1.92-20.379-5.885-28.155-11.286c0.621,6.866,2.814,13.602,6.45,19.536c2.242,3.659,5.058,7.129,6.038,11.274
			c0.558-1.067,1.919-1.818,2.477-2.885c1.47,1.778,2.138,3.239,3.609,5.017c1.985-1.736,3.162-3.707,4.587-5.896
			c1.65,1.355,3.86,2.681,5.509,4.036c0.197-2.656,0.866-4.036,1.777-6.673c1.258,1.092,3.767,1.559,5.025,2.651
			C125.928,206.507,125.549,204.975,125.514,203.385z"/>
		<path class="st7" d="M119.057,253.338c-1.637,0.169-2.772-0.739-3.218-2.217c-0.564-1.866,0.424-4.106,1.566-5.24
			c0.607-0.603,1.177-1.15,1.741-1.647c-0.909-6.01,6.901-17.802,6.901-17.802c2.245-5.766-1.208-10.052-1.208-10.052
			c-1.081-2.702-1.266-6.469-1.6-10.397c-0.525-0.245-1.011-0.511-1.382-0.833c-0.911,2.637-1.58,4.017-1.777,6.673
			c-1.65-1.355-3.86-2.681-5.509-4.036c-1.36,2.088-2.501,3.975-4.326,5.651c2.914,5.265,4.965,8.696,4.965,8.696
			c-2.365,5.083-1.842,4.507-2.84,10.494c-0.703,4.219-2.95,6.017-3.963,9.03c-0.275,0.817-1.152,1.257-1.977,1.009
			c-8.384-2.521-10.808-0.627-14.676,3.214c-1.142,1.135-2.129,3.374-1.566,5.24c0.525,1.74,1.999,2.706,4.131,2.032
			c2.675-0.846,6.479-1.743,9.116-1.084c3.211,0.803,6.422,0.452,7.974,0.19c0.599-0.1,1.21-0.018,1.759,0.24
			c1.097,0.515,3.239,1.263,5.889,0.903V253.338z"/>
	</g>
</g>
<g id="Layer_84">
</g>
<g id="Layer_85">
</g>
<g id="Layer_86">
</g>
<g id="Layer_87">
</g>
<g id="Layer_88">
</g>
<g id="Layer_89">
</g>
<g id="Layer_90">
</g>
<g id="Layer_91">
</g>
<g id="Layer_92">
</g>
<g id="Layer_93">
</g>
<g id="Layer_94">
</g>
<g id="Layer_95">
</g>
<g id="Layer_96">
</g>
<g id="Layer_97">
</g>
<g id="Layer_98">
</g>
<g id="Layer_99">
</g>
<g id="Layer_100">
</g>
</svg>
