<?xml version="1.0" encoding="utf-8"?>
<!-- Generator: Adobe Illustrator 22.0.0, SVG Export Plug-In . SVG Version: 6.00 Build 0)  -->
<svg version="1.1" xmlns="http://www.w3.org/2000/svg" xmlns:xlink="http://www.w3.org/1999/xlink" x="0px" y="0px"
	 viewBox="0 0 256 256" style="enable-background:new 0 0 256 256;" xml:space="preserve">
<style type="text/css">
	.st0{fill:#F9BD55;}
	.st1{fill:#F4DBCE;}
	.st2{fill:#52565B;}
	.st3{fill:#FD605B;}
	.st4{fill:#F98080;}
	.st5{fill:#F9E63A;}
	.st6{fill:#039BE6;}
	.st7{fill:none;stroke:#000000;stroke-width:5;stroke-linecap:round;stroke-linejoin:round;stroke-miterlimit:10;}
	.st8{fill:#7D3D1A;}
	.st9{fill:#EAA250;}
	.st10{fill:#DD7F57;}
	.st11{fill:#FFC097;}
	.st12{fill:#F49667;}
	.st13{fill:#F89422;}
	.st14{fill:#E3E4E5;}
	.st15{fill:#6E7175;}
	.st16{fill:#46BAF9;}
	.st17{fill:#D9F3FF;}
	.st18{fill:#828487;}
	.st19{fill:#A8AEB2;}
	.st20{fill:#C9CDD1;}
	.st21{fill:#8CD8F9;}
	.st22{fill:#1AA7E5;}
	.st23{fill:#ACE7FC;}
	.st24{fill:#FFFFFF;}
	.st25{fill:#9E512B;}
	.st26{fill:#7ED5FC;}
	.st27{fill:#7CCC4E;}
	.st28{fill:#3AA03A;}
	.st29{fill:#FCB1B1;}
	.st30{fill:#F76E23;}
	.st31{fill:#C16A44;}
	.st32{fill:#B796EA;}
</style>
<g id="Layer_1">
</g>
<g id="Layer_2">
</g>
<g id="Layer_3">
</g>
<g id="Layer_4">
</g>
<g id="Layer_5">
</g>
<g id="Layer_6">
</g>
<g id="Layer_7">
</g>
<g id="Layer_8">
</g>
<g id="Layer_9">
</g>
<g id="Layer_10">
</g>
<g id="Layer_11">
</g>
<g id="Layer_12">
</g>
<g id="Layer_13">
</g>
<g id="Layer_14">
</g>
<g id="Layer_15">
</g>
<g id="Layer_16">
</g>
<g id="Layer_17">
</g>
<g id="Layer_18">
</g>
<g id="Layer_19">
</g>
<g id="Layer_20">
</g>
<g id="Layer_21">
</g>
<g id="Layer_22">
</g>
<g id="Layer_23">
</g>
<g id="Layer_24">
</g>
<g id="Layer_25">
</g>
<g id="Layer_26">
</g>
<g id="Layer_27">
</g>
<g id="Layer_28">
</g>
<g id="Layer_29">
</g>
<g id="Layer_30">
</g>
<g id="Layer_31">
</g>
<g id="Layer_32">
</g>
<g id="Layer_33">
</g>
<g id="Layer_34">
</g>
<g id="Layer_35">
</g>
<g id="Layer_36">
</g>
<g id="Layer_37">
</g>
<g id="Layer_38">
</g>
<g id="Layer_39">
</g>
<g id="Layer_40">
</g>
<g id="Layer_41">
</g>
<g id="Layer_42">
</g>
<g id="Layer_43">
</g>
<g id="Layer_44">
</g>
<g id="Layer_45">
</g>
<g id="Layer_46">
</g>
<g id="Layer_47">
</g>
<g id="Layer_48">
</g>
<g id="Layer_49">
</g>
<g id="Layer_50">
</g>
<g id="Layer_51">
</g>
<g id="Layer_52">
</g>
<g id="Layer_53">
</g>
<g id="Layer_54">
</g>
<g id="Layer_55">
</g>
<g id="Layer_56">
</g>
<g id="Layer_57">
</g>
<g id="Layer_58">
</g>
<g id="Layer_59">
</g>
<g id="Layer_60">
</g>
<g id="Layer_61">
</g>
<g id="Layer_62">
</g>
<g id="Layer_63">
</g>
<g id="Layer_64">
</g>
<g id="Layer_65">
</g>
<g id="Layer_66">
</g>
<g id="Layer_67">
</g>
<g id="Layer_68">
</g>
<g id="Layer_69">
</g>
<g id="Layer_70">
</g>
<g id="Layer_71">
</g>
<g id="Layer_72">
</g>
<g id="Layer_73">
</g>
<g id="Layer_74">
</g>
<g id="Layer_75">
</g>
<g id="Layer_76">
</g>
<g id="Layer_77">
</g>
<g id="Layer_78">
</g>
<g id="Layer_79">
</g>
<g id="Layer_80">
</g>
<g id="Layer_81">
</g>
<g id="Layer_82">
</g>
<g id="Layer_83">
</g>
<g id="Layer_84">
</g>
<g id="Layer_85">
</g>
<g id="Layer_86">
</g>
<g id="Layer_87">
</g>
<g id="Layer_88">
</g>
<g id="Layer_89">
</g>
<g id="Layer_90">
</g>
<g id="Layer_91">
</g>
<g id="Layer_92">
</g>
<g id="Layer_93">
</g>
<g id="Layer_94">
</g>
<g id="Layer_95">
</g>
<g id="Layer_96">
</g>
<g id="Layer_97">
	<g>
		<path class="st30" d="M97.141,186.039C2.992,183.899,7.84,146.205,7.84,146.205c-1.187-0.668-2.285-1.468-3.243-2.426
			c-7.489-7.489,7.489-16.048,7.489-16.048s8.29-20.45,38.378-31.953c25.552-9.769,54.067-7.803,78.514,4.473
			c5.337,2.68,11.172,5.92,17.377,9.827c19.34,12.177,34.363,16.201,42.181,17.531c3.423,0.582,6.939-0.203,9.748-2.243
			c9.022-6.551,32.112-21.164,46.498-11.009c17.876,12.619,10.948,93.452-46.184,53.549c-2.21-1.543-4.822-2.397-7.517-2.385
			c-6.957,0.032-21.331,1.33-38.308,9.818C131.377,186.039,97.141,186.039,97.141,186.039z"/>
		<path class="st30" d="M244.783,114.358c-14.387-10.155-37.476,4.458-46.498,11.009c-2.775,2.015-6.239,2.8-9.621,2.258l0,0
			c0.027,0.543,23.721,15.179,1.751,37.908c2.86-0.047,5.48,0.486,8.184,2.374C255.73,207.811,262.659,126.976,244.783,114.358z"/>
		<path class="st30" d="M169.821,168.715c-5.201,1.468-10.952,3.577-17.047,6.625c-4.127,2.063-8.733,3.726-13.478,5.07
			c23.088,23.652,43.906,7.615,34.028-7.452C172.316,171.42,171.102,170.039,169.821,168.715z"/>
		<path class="st30" d="M146.355,110.078c15.212,9.578,27.735,14.101,36.2,16.247c8.454-9.216,6.443-20.704-0.532-25.195
			c-9.064-5.837-27.008,0.493-37.812,7.617C144.921,109.183,145.635,109.625,146.355,110.078z"/>
		<path class="st30" d="M128.978,100.251c1.755,0.881,3.568,1.829,5.426,2.836c2.428-2.441,4.591-5.11,6.26-8.128
			c10.116-18.293-3.557-38.903-33.1-28.651c-13.37,4.64-25.404,13.033-34.438,23.921C92.114,88.004,111.576,91.513,128.978,100.251z
			"/>
		<path class="st2" d="M244.783,114.358c-3.954-2.791-8.566-3.703-13.361-3.434c0.65,0.448,1.277,0.93,1.865,1.463
			c2.508,2.272,4.304,5.603,3.879,8.961c-0.445,3.513-3.187,6.481-3.335,10.019c-0.158,3.784,2.633,6.951,5.041,9.874
			c2.408,2.923,4.711,6.717,3.433,10.282c-1.595,4.449-7.682,5.601-10.071,9.679c-1.594,2.721-1.195,6.127-1.905,9.199
			c-0.791,3.423-3.064,6.476-6.117,8.215c-0.087,0.05-0.178,0.092-0.267,0.14C257.385,181.791,259.555,124.785,244.783,114.358z"/>
		<path class="st2" d="M106.39,134.824c4.133,7.285-2.924,8.702-2.954,12.798c-0.017,2.287,3.237,6.542,1.003,10.942
			c-2.989,5.886-11.007,3.881-13.922,5.641c3.114,4.762,5.288,7.263,8.519,8.489c4.734,1.796,10.273-0.409,13.681-4.154
			c3.408-3.745,5.078-8.733,6.302-13.646C123.688,136.158,118.468,133.693,106.39,134.824z"/>
		<path class="st2" d="M182.555,126.325c8.454-9.216,6.443-20.704-0.532-25.195c-3.721-2.396-8.939-2.739-14.544-1.822
			c2.655,1.411,7.394,5.363,7.272,8.391c-0.085,2.116-2.134,3.931-1.747,6.013c0.511,2.751,5.337,3.962,3.124,10.732
			C178.468,125.214,180.622,125.835,182.555,126.325z"/>
		<path class="st2" d="M169.821,168.715c-1.049,0.296-2.126,0.626-3.219,0.977c4.035,10.937-3.558,6.157-3.748,10.932
			c-0.105,2.658,2.419,6.751-2.391,11.687C173.356,193.573,182.3,181.603,169.821,168.715z"/>
		<path class="st2" d="M109.802,65.591c8.288,2.612,7.606,8.578,8.95,10.693c2.136,3.36,7.38,2.088,10.973,3.801
			c3.788,1.806,5.054,6.858,3.914,10.896c-0.955,3.382-3.165,6.209-5.523,8.857c1.622,0.794,3.203,1.578,6.287,3.248
			C154.491,82.892,141.331,56.053,109.802,65.591z"/>
		<path class="st14" d="M47.255,179.973c8.366,2.215,18.501,3.985,30.776,5.049c-7.409-22.37,6.255-49.176-7.152-69.244
			c-5.097-7.629-13.752-13.062-17.907-20.915c-3.639,1.273-7.238,2.777-10.879,4.606c3.012,7.576,10.146,13.498,14.392,20.764
			c4.226,7.233,5.518,16.125,3.524,24.262C57.071,156.48,48.69,163.912,47.255,179.973z"/>
		<path class="st14" d="M175.659,167.266c3.271-15.005-6.72-20.727,3.834-41.772c-6.352-1.848-14.503-4.944-24.009-10.085
			c-0.511,2.733-1.343,5.406-2.524,7.923c-5.552,11.828-15.75,17.775-3.18,40.359c1.905,3.423,3.985,6.821,5.765,10.324
			C162.955,170.585,169.803,168.504,175.659,167.266z"/>
		<path class="st14" d="M126.231,139.513c3.698-11.687,11.58-20.077,13.997-33.148c-10.678-6.237-19.714-10.605-30.976-13.554
			c-13.992,34.361-15.801,37.79-16.332,43.749c0.347-0.032,0.691-0.07,1.024-0.115c20.578-2.792,31.126-5.834,25.075,18.451
			c-1.224,4.913-2.894,9.902-6.302,13.646c-2.115,2.324-5.051,4.053-8.105,4.603c1.126,3.821,1.87,7.941,1.9,12.517
			c7.958-0.525,19.851-1.786,31.184-4.81C128.9,176.954,120.36,158.067,126.231,139.513z"/>
		<path class="st7" d="M31.586,131.372c-0.011-3.518,2.832-6.379,6.35-6.391s6.379,2.832,6.391,6.35"/>
		<path class="st7" d="M97.141,186.039C2.992,183.899,7.84,146.205,7.84,146.205c-1.187-0.668-2.285-1.468-3.243-2.426
			c-7.489-7.489,7.489-16.048,7.489-16.048s8.29-20.45,38.378-31.953c25.552-9.769,54.067-7.803,78.514,4.473
			c5.337,2.68,11.172,5.92,17.377,9.827c19.34,12.177,34.363,16.201,42.181,17.531c3.423,0.582,6.939-0.203,9.748-2.243
			c9.022-6.551,32.112-21.164,46.498-11.009c17.876,12.619,10.948,93.452-46.184,53.549c-2.21-1.543-4.822-2.397-7.517-2.385
			c-6.957,0.032-21.331,1.33-38.308,9.818C131.377,186.039,97.141,186.039,97.141,186.039z"/>
		<path class="st7" d="M28.134,149.129c0,0-12.205,1.627-20.294-2.923"/>
		<path class="st7" d="M244.783,114.358c-14.387-10.155-37.476,4.458-46.498,11.009c-2.775,2.015-6.239,2.8-9.621,2.258l0,0
			c0.027,0.543,23.721,15.179,1.751,37.908c2.86-0.047,5.48,0.486,8.184,2.374C255.73,207.811,262.659,126.976,244.783,114.358z"/>
		<path class="st7" d="M244.783,114.358c-3.954-2.791-8.566-3.703-13.361-3.434c0.65,0.448,1.277,0.93,1.865,1.463
			c2.508,2.272,4.304,5.603,3.879,8.961c-0.445,3.513-3.187,6.481-3.335,10.019c-0.158,3.784,2.633,6.951,5.041,9.874
			c2.408,2.923,4.711,6.717,3.433,10.282c-1.595,4.449-7.682,5.601-10.071,9.679c-1.594,2.721-1.195,6.127-1.905,9.199
			c-0.791,3.423-3.064,6.476-6.117,8.215c-0.087,0.05-0.178,0.092-0.267,0.14C257.385,181.791,259.555,124.785,244.783,114.358z"/>
		<path class="st7" d="M47.255,179.973c8.366,2.215,18.501,3.985,30.776,5.049c-7.409-22.37,6.255-49.176-7.152-69.244
			c-5.097-7.629-13.752-13.062-17.907-20.915c-3.639,1.273-7.238,2.777-10.879,4.606c3.012,7.576,10.146,13.498,14.392,20.764
			c4.226,7.233,5.518,16.125,3.524,24.262C57.071,156.48,48.69,163.912,47.255,179.973z"/>
		<path class="st7" d="M175.659,167.266c3.271-15.005-6.72-20.727,3.834-41.772c-6.352-1.848-14.503-4.944-24.009-10.085
			c-0.511,2.733-1.343,5.406-2.524,7.923c-5.552,11.828-15.75,17.775-3.18,40.359c1.905,3.423,3.985,6.821,5.765,10.324
			C162.955,170.585,169.803,168.504,175.659,167.266z"/>
		<path class="st7" d="M126.231,139.513c3.698-11.687,11.58-20.077,13.997-33.148c-10.678-6.237-19.714-10.605-30.976-13.554
			c-13.992,34.361-15.801,37.79-16.332,43.749c0.347-0.032,0.691-0.07,1.024-0.115c20.578-2.792,31.126-5.834,25.075,18.451
			c-1.224,4.913-2.894,9.902-6.302,13.646c-2.115,2.324-5.051,4.053-8.105,4.603c1.126,3.821,1.87,7.941,1.9,12.517
			c7.958-0.525,19.851-1.786,31.184-4.81C128.9,176.954,120.36,158.067,126.231,139.513z"/>
		<path class="st7" d="M87.46,135.031c1.402,1.856,4.179,1.726,6.484,1.413c20.578-2.792,31.126-5.834,25.075,18.451
			c-1.224,4.913-2.894,9.901-6.302,13.646c-3.408,3.745-8.947,5.95-13.681,4.154c-5.072-1.924-7.529-6.969-15.135-19.027"/>
		<path class="st7" d="M169.821,168.715c-5.201,1.468-10.952,3.577-17.047,6.625c-4.127,2.063-8.733,3.726-13.478,5.07
			c23.088,23.652,43.906,7.615,34.028-7.452C172.316,171.42,171.102,170.039,169.821,168.715z"/>
		<path class="st7" d="M146.355,110.078c15.212,9.578,27.735,14.101,36.2,16.247c8.454-9.216,6.443-20.704-0.532-25.195
			c-9.064-5.837-27.008,0.493-37.812,7.617C144.921,109.183,145.635,109.625,146.355,110.078z"/>
		<path class="st7" d="M128.978,100.251c1.755,0.881,3.568,1.829,5.426,2.836c2.428-2.441,4.591-5.11,6.26-8.128
			c10.116-18.293-3.557-38.903-33.1-28.651c-13.37,4.64-25.404,13.033-34.438,23.921C92.114,88.004,111.576,91.513,128.978,100.251z
			"/>
		<path class="st7" d="M106.39,134.824c4.133,7.285-2.924,8.702-2.954,12.798c-0.017,2.287,3.237,6.542,1.003,10.942
			c-2.989,5.886-11.007,3.881-13.922,5.641c3.114,4.762,5.288,7.263,8.519,8.489c4.734,1.796,10.273-0.409,13.681-4.154
			c3.408-3.745,5.078-8.733,6.302-13.646C123.688,136.158,118.468,133.693,106.39,134.824z"/>
		<path class="st7" d="M182.555,126.325c8.454-9.216,6.443-20.704-0.532-25.195c-3.721-2.396-8.939-2.739-14.544-1.822
			c2.655,1.411,7.394,5.363,7.272,8.391c-0.085,2.116-2.134,3.931-1.747,6.013c0.511,2.751,5.337,3.962,3.124,10.732
			C178.468,125.214,180.622,125.835,182.555,126.325z"/>
		<path class="st7" d="M169.821,168.715c-1.049,0.296-2.126,0.626-3.219,0.977c4.035,10.937-3.558,6.157-3.748,10.932
			c-0.105,2.658,2.419,6.751-2.391,11.687C173.356,193.573,182.3,181.603,169.821,168.715z"/>
		<path class="st7" d="M109.802,65.591c8.288,2.612,7.606,8.578,8.95,10.693c2.136,3.36,7.38,2.088,10.973,3.801
			c3.788,1.806,5.054,6.858,3.914,10.896c-0.955,3.382-3.165,6.209-5.523,8.857c1.622,0.794,3.203,1.578,6.287,3.248
			C154.491,82.892,141.331,56.053,109.802,65.591z"/>
	</g>
</g>
<g id="Layer_98">
</g>
<g id="Layer_99">
</g>
<g id="Layer_100">
</g>
</svg>
