<?xml version="1.0" encoding="utf-8"?>
<!-- Generator: Adobe Illustrator 22.0.0, SVG Export Plug-In . SVG Version: 6.00 Build 0)  -->
<svg version="1.1" xmlns="http://www.w3.org/2000/svg" xmlns:xlink="http://www.w3.org/1999/xlink" x="0px" y="0px"
	 viewBox="0 0 256 256" style="enable-background:new 0 0 256 256;" xml:space="preserve">
<style type="text/css">
	.st0{fill:#F9BD55;}
	.st1{fill:#F4DBCE;}
	.st2{fill:#52565B;}
	.st3{fill:#FD605B;}
	.st4{fill:#F98080;}
	.st5{fill:#F9E63A;}
	.st6{fill:#039BE6;}
	.st7{fill:none;stroke:#000000;stroke-width:5;stroke-linecap:round;stroke-linejoin:round;stroke-miterlimit:10;}
	.st8{fill:#7D3D1A;}
	.st9{fill:#EAA250;}
	.st10{fill:#DD7F57;}
	.st11{fill:#FFC097;}
	.st12{fill:#F49667;}
	.st13{fill:#F89422;}
	.st14{fill:#E3E4E5;}
	.st15{fill:#6E7175;}
	.st16{fill:#46BAF9;}
	.st17{fill:#D9F3FF;}
	.st18{fill:#828487;}
	.st19{fill:#A8AEB2;}
	.st20{fill:#C9CDD1;}
	.st21{fill:#8CD8F9;}
	.st22{fill:#1AA7E5;}
	.st23{fill:#ACE7FC;}
	.st24{fill:#FFFFFF;}
	.st25{fill:#9E512B;}
	.st26{fill:#7ED5FC;}
	.st27{fill:#7CCC4E;}
	.st28{fill:#3AA03A;}
	.st29{fill:#FCB1B1;}
	.st30{fill:#F76E23;}
	.st31{fill:#C16A44;}
	.st32{fill:#B796EA;}
</style>
<g id="Layer_1">
</g>
<g id="Layer_2">
</g>
<g id="Layer_3">
</g>
<g id="Layer_4">
</g>
<g id="Layer_5">
</g>
<g id="Layer_6">
</g>
<g id="Layer_7">
</g>
<g id="Layer_8">
</g>
<g id="Layer_9">
</g>
<g id="Layer_10">
</g>
<g id="Layer_11">
</g>
<g id="Layer_12">
</g>
<g id="Layer_13">
</g>
<g id="Layer_14">
</g>
<g id="Layer_15">
</g>
<g id="Layer_16">
	<g>
		<path class="st2" d="M243.78,179.141c0.145,0.6,0.292,1.167,0.437,1.679c0.657,2.323-0.647,4.746-2.964,5.428l-0.014,0.004
			c-2.305,0.678-4.761-0.619-5.425-2.927c-0.293-1.02-0.539-2.053-0.75-3.094c-2.836,1.944-5.719,5.752-4.126,13.011
			c0,0,0.709,3.768,0.222,6.292c-0.1,0.521,0.456,0.918,0.924,0.667l1.918-1.03c0.435-0.233,0.964,0.095,0.936,0.587
			c-0.123,2.139,0.033,6.823,3.207,10.271c2.121,2.304,2.565,4.131,2.48,5.382c-0.038,0.56,0.646,0.866,1.07,0.498
			c3.012-2.61,8.759-8.467,8.228-14.767c-0.035-0.413,0.306-0.756,0.714-0.687l1.517,0.256c0.335,0.056,0.655-0.157,0.726-0.489
			C253.538,197.144,255.873,182.897,243.78,179.141z"/>
		<path class="st14" d="M77.193,35.018c-2.149,0.076-4.286-0.44-6.164-1.487C52.707,23.308,14.426,47.81,21.918,76.548
			c1.266,4.855,3.474,8.682,6.191,11.715c0.01-0.028,0.015-0.056,0.025-0.084c2.825-7.821,10.942-12.69,19.176-11.524
			c5.12,0.725,9.327,3.494,12.037,7.303c1.201,1.688,3.406,2.22,5.245,1.266c4.148-2.154,9.155-2.699,14.042-1.01
			c7.859,2.717,12.862,10.753,11.81,19.001c-0.004,0.029-0.012,0.057-0.016,0.086c3.801-1.461,7.511-3.859,10.852-7.603
			C121.054,73.54,98.16,34.276,77.193,35.018z"/>
		<g>
			<path class="st14" d="M219.971,178.883c-0.337-2.134-0.061-4.325,0.799-6.307c14.643-33.757,10.426-56.812,7.232-66.538
				c-1.366-4.159-3.7-7.977-7.031-10.817c-12.582-10.729-33.688-5.642-75.25-1.312c-16.843,1.754-29.7-1.47-39.286-6.361
				c-1.211,2.882-2.904,5.628-5.155,8.151c-3.341,3.744-7.051,6.142-10.852,7.603c-1.413,10.673-11.66,17.504-21.844,15.047
				c-0.738-0.178-1.445-0.415-2.137-0.677c-3.584,5.223-8.98,8.1-14.128,6.858c-0.09-0.022-0.176-0.054-0.266-0.078
				c0.689,9.228,0.968,19.115,3.122,30.316c4.078,21.206,22.946,27.623,29.453,29.224c1.41,0.347,2.497,1.454,2.82,2.87
				c3.468,15.167,2.038,36.355,1.526,42.421c-0.085,1.004-0.699,1.879-1.597,2.335c-5.589,2.839-7.482,7.695-8.123,10.66
				c-0.283,1.31,0.741,2.541,2.082,2.541l24.747,0c0.939,0,1.785-0.615,2.038-1.519c1.53-5.459-0.216-9.284-1.071-10.719
				c-0.281-0.472-0.48-0.99-0.556-1.534c-0.512-3.638-2.007-17.423,3.108-26.8c4.124-7.56,4.906-14.166,4.999-17.496
				c0.033-1.186,1.128-2.031,2.291-1.799c30.314,6.032,56.777-3.844,66.708-8.343c2.121-0.961,4.609,0.029,5.486,2.186
				c3.229,7.94,9.848,13.022,13.304,15.247c1.373,0.884,2.075,2.512,1.823,4.125c-1.838,11.768-6.249,22.627-8.353,27.348
				c-0.638,1.431-1.756,2.613-3.197,3.227c-7.062,3.011-9.516,8.94-10.368,12.695c-0.393,1.732,0.901,3.383,2.676,3.383h25.663
				c1.23,0,2.347-0.751,2.79-1.898c1.518-3.924,0.699-7.351-0.073-9.288c-0.502-1.26-0.58-2.642-0.235-3.954l8.687-33.009
				c0.403-1.53,0.483-3.126,0.236-4.689L219.971,178.883z"/>
		</g>
		<path class="st14" d="M79.31,243.33c-0.05-0.159-0.083-0.323-0.093-0.493c-0.002-0.025-0.01-0.049-0.01-0.074
			c-0.004-0.159,0.011-0.322,0.047-0.485c0.641-2.965,2.535-7.821,8.123-10.66c0.899-0.456,1.513-1.331,1.597-2.335
			c0.512-6.066,1.942-27.255-1.526-42.421c-0.324-1.415-1.411-2.523-2.82-2.87c-2.898-0.713-8.249-2.386-13.652-5.892
			c0.483,5.94,5.883,18.877,3.155,51.183c-0.085,1.004-0.699,1.879-1.597,2.335c-5.589,2.839-7.482,7.695-8.123,10.66
			c-0.283,1.31,0.741,2.541,2.082,2.541l14.843,0C80.37,244.818,79.577,244.176,79.31,243.33z"/>
		<g>
			<path class="st14" d="M202.39,194.041c-0.723-0.465-1.589-1.063-2.529-1.779c0,0,0.001,0.001,0.001,0.001
				c-2.364,4.822-6.425,8.652-11.399,10.74c-2.117,9.828-5.635,18.446-7.447,22.511c-0.638,1.431-1.756,2.613-3.197,3.227
				c-7.062,3.011-9.516,8.94-10.368,12.695c-0.393,1.732,0.901,3.383,2.676,3.383h14.844c-1.776,0-3.069-1.651-2.676-3.383
				c0.852-3.756,3.306-9.684,10.368-12.695c1.441-0.614,2.56-1.796,3.197-3.227c2.104-4.721,6.515-15.58,8.353-27.348
				C204.465,196.553,203.763,194.924,202.39,194.041z"/>
		</g>
		<path class="st2" d="M213.424,242.921c1.518-3.924,0.699-7.351-0.073-9.288c-0.178-0.447-0.283-0.911-0.355-1.379
			c-8.261,0.542-16.035-3.393-18.484-4.777c-0.53,0.53-1.15,0.966-1.85,1.265c-7.062,3.011-9.516,8.94-10.368,12.695
			c-0.393,1.732,0.901,3.383,2.676,3.383h25.663C211.863,244.818,212.981,244.067,213.424,242.921z"/>
		<path class="st2" d="M108.121,243.299c1.53-5.459-0.216-9.284-1.071-10.719c-0.09-0.151-0.155-0.313-0.226-0.472
			c-7.452,1.449-14.963-0.845-18.064-1.996c-0.264,0.641-0.746,1.181-1.383,1.504c-5.589,2.839-7.482,7.695-8.123,10.66
			c-0.283,1.31,0.741,2.541,2.082,2.541l24.747,0C107.022,244.818,107.867,244.203,108.121,243.299z"/>
		<path class="st2" d="M182.295,241.436c0.662-2.916,2.3-7.136,6.3-10.29c-4.166-1.149-7.478-2.853-8.925-3.67
			c-0.53,0.53-1.15,0.966-1.85,1.265c-7.062,3.011-9.516,8.94-10.368,12.695c-0.393,1.732,0.901,3.383,2.676,3.383h14.844
			C183.195,244.818,181.902,243.167,182.295,241.436z"/>
		<path class="st2" d="M79.254,242.277c0.576-2.663,2.172-6.849,6.541-9.732c-5.132-0.192-9.648-1.604-11.878-2.433
			c-0.264,0.641-0.746,1.181-1.383,1.504c-5.589,2.839-7.482,7.695-8.123,10.66c-0.283,1.31,0.741,2.541,2.082,2.541l14.843,0
			C79.995,244.818,78.97,243.587,79.254,242.277z"/>
		<path class="st2" d="M89.079,108.124c-3.38,7.797-11.951,12.285-20.495,10.224c-0.738-0.178-1.445-0.415-2.137-0.677
			c-3.584,5.223-8.98,8.1-14.128,6.858c-0.091-0.022-0.178-0.054-0.268-0.078c0.69,9.229,0.97,19.115,3.124,30.317
			c0.178,0.924,0.393,1.81,0.624,2.678c1.072,0.186,2.169,0.288,3.285,0.29c11.311,0.026,19.878-8.998,20.326-19.398
			c0.193-4.487,2.67-8.539,6.512-10.865c6.26-3.791,9.897-10.831,6.913-16C91.938,109.918,90.625,108.832,89.079,108.124z"/>
		<path class="st2" d="M145.658,121.075c1.825,4.385,6.15,7.468,11.196,7.468c7.009,0,12.132-5.759,12.132-12.134
			c0-2.584,1.682-4.805,4.118-5.665c6.82-2.409,11.621-9.082,11.183-16.824c-0.083-1.464-0.367-2.882-0.812-4.231
			c-10.271,0.978-22.657,2.647-37.754,4.22c-7.54,0.785-14.279,0.571-20.286-0.342c-0.229,1.016-0.398,2.054-0.46,3.121
			c-0.595,10.214,6.596,18.964,16.301,20.668C143.288,117.708,144.872,119.188,145.658,121.075z"/>
		<path class="st2" d="M230.028,114.256c-5.222-0.484-9.846,2.276-12.095,6.501c-0.756,1.42-2.236,2.299-3.837,2.459
			c-9.318,0.931-16.422,8.805-16.422,18.193c0,8.157,5.339,15.056,12.712,17.419c1.708,0.547,2.961,2.056,3.234,3.828
			c0.625,4.064,3.892,7.293,8.022,7.851C232.208,145.13,232.082,125.989,230.028,114.256z"/>
		<path class="st2" d="M147.021,146.023c-3.529-0.536-6.487-2.837-8.36-5.876c-1.924-3.12-5.378-5.171-9.267-5.171
			c-7.625,0-12.582,7.498-10.356,14.244c0.48,1.455,0.519,3.047-0.178,4.411c-0.856,1.678-1.341,3.576-1.341,5.59
			c0,7.187,6.085,12.776,13.074,12.345c1.551-0.096,3.077,0.356,4.264,1.359c2.985,2.521,6.942,3.925,11.234,3.555
			c7.554-0.652,13.598-6.935,13.961-14.508C160.448,153.711,154.44,147.149,147.021,146.023z"/>
		<path class="st2" d="M60.026,73.019c3.141-13.016-3.647-25.821-15.162-28.599c-5.122-1.236-10.315-0.275-14.781,2.313
			c-7.067,8.102-11.079,18.637-8.165,29.815c1.266,4.855,3.474,8.682,6.191,11.715c0.01-0.028,0.015-0.056,0.025-0.084
			c2.825-7.821,10.942-12.69,19.176-11.524c3.669,0.52,6.858,2.101,9.374,4.351C58.17,78.628,59.32,75.944,60.026,73.019z"/>
		<path class="st4" d="M140.478,56.553c-7.831-6.392-16.931-6.419-23.544-2.377c-3.763,2.3-8.53,2.952-12.211,3.054
			c2.362,5.161,3.85,10.788,4.083,16.391c17.454,7.086,28.723-7.446,32.34-13.162C141.956,59.178,141.652,57.511,140.478,56.553z"/>
		<path class="st4" d="M25.342,53.376c0.043-0.075,0.085-0.151,0.128-0.226c0.306-0.529,0.624-1.051,0.956-1.566
			c0.032-0.05,0.066-0.1,0.099-0.15c0.321-0.494,0.654-0.982,0.998-1.463c0.031-0.044,0.061-0.088,0.093-0.132
			c0.364-0.504,0.74-1,1.126-1.489c0.047-0.059,0.095-0.118,0.142-0.177c2.198-2.749,4.747-5.247,7.515-7.432
			c-3.229-1.769-7.175-4.524-9.475-8.287c-4.042-6.613-12.153-10.739-22.037-8.622c-1.482,0.317-2.512,1.662-2.375,3.171
			c0.612,6.736,4.014,24.808,22.778,26.462C25.307,53.437,25.324,53.406,25.342,53.376z"/>
		<path class="st1" d="M104.723,57.229c3.681-0.102,8.448-0.754,12.211-3.054c1.24-0.758,2.567-1.373,3.957-1.829
			c0.149-0.049,0.302-0.084,0.452-0.129c3.712-4.137,4.613-9.948,4.358-15.415c-0.161-3.437-4.527-4.66-6.482-1.828
			c-5.167,7.487-15.202,10.157-21.56,11.11C100.434,49.34,102.85,53.138,104.723,57.229z"/>
		<path class="st1" d="M26.924,32.456c2.3,3.763,6.245,6.517,9.475,8.287c3.528-2.784,7.406-5.061,11.356-6.693
			c-5.224-3.745-12.95-10.703-14.136-19.731c-0.448-3.412-4.892-4.315-6.602-1.329c-2.716,4.742-4.563,10.315-3.158,15.681
			C25.042,29.802,26.077,31.07,26.924,32.456z"/>
		<path class="st14" d="M243.195,155.757c2.341-14.044,17.333-53.899-19.478-57.691c1.901,2.351,3.334,5.074,4.285,7.972
			c0.29,0.884,0.589,1.882,0.881,2.984c5.11,1.758,9.858,5.968,9.858,15.563c0,19.295-8.105,40.723-2.927,58.739
			c0.664,2.309,3.12,3.605,5.425,2.927l0.014-0.004c2.317-0.681,3.621-3.104,2.964-5.428
			C242.854,176,241.286,167.207,243.195,155.757z"/>
		<path class="st14" d="M140.478,56.553c-7.831-6.392-16.931-6.419-23.544-2.377c-3.763,2.3-8.53,2.952-12.211,3.054
			c1.183,2.585,2.151,5.286,2.848,8.044c3.418,0.041,7.339-0.839,11.586-3.436c9.228-5.64,17.612-4.305,22.415-2.64
			C141.674,58.219,141.291,57.216,140.478,56.553z"/>
		<path class="st14" d="M36.399,40.742c-3.229-1.769-7.175-4.524-9.475-8.287c-4.042-6.613-12.153-10.739-22.037-8.622
			c-1.026,0.22-1.825,0.937-2.18,1.855c5.034,0.709,13.104,3.344,18.745,12.572c2.596,4.248,5.684,6.819,8.744,8.342
			C32.074,44.466,34.167,42.503,36.399,40.742z"/>
		<path class="st14" d="M58.497,111.413c-1.19-1.677-3.388-2.207-5.212-1.258c-3.121,1.626-6.73,2.328-10.408,1.864
			c0.817,6.266,4.304,11.27,9.442,12.51c5.157,1.244,10.564-1.645,14.148-6.885C63.182,116.35,60.446,114.159,58.497,111.413z"/>
		<path class="st3" d="M58.45,111.401c-1.19-1.677-3.388-2.207-5.212-1.258c-1.65,0.859-3.439,1.452-5.3,1.759
			c1.404,3.051,3.434,5.11,5.995,5.728c2.613,0.631,5.416-0.329,8.106-2.493C60.658,114.068,59.449,112.809,58.45,111.401z"/>
		<path class="st3" d="M199.862,192.263c-3.553-2.705-8.223-7.189-10.777-13.469c-0.877-2.157-3.365-3.147-5.486-2.186
			c-4.99,2.261-14.157,5.878-25.887,8.154c1.145,11.223,10.624,19.979,22.149,19.979C188.646,204.74,196.24,199.652,199.862,192.263
			z"/>
		<path class="st4" d="M90.444,103.215c1.052-8.249-3.951-16.284-11.81-19.001c-4.887-1.69-9.894-1.144-14.042,1.01
			c-1.839,0.955-4.044,0.423-5.245-1.266c-2.709-3.809-6.916-6.578-12.037-7.303c-8.234-1.166-16.351,3.703-19.176,11.524
			c-3.673,10.167,2.341,20.973,12.553,23.437c4.345,1.048,8.695,0.397,12.369-1.516c1.824-0.95,4.022-0.419,5.212,1.258
			c2.397,3.379,5.972,5.942,10.316,6.99C78.796,120.812,89.076,113.938,90.444,103.215z"/>
		<g>
			<path class="st7" d="M219.971,178.883c-0.337-2.134-0.061-4.325,0.799-6.307c14.643-33.757,10.426-56.812,7.232-66.538
				c-1.366-4.159-3.7-7.977-7.031-10.817c-12.582-10.729-33.688-5.642-75.25-1.312c-16.843,1.754-29.7-1.47-39.286-6.361
				c-1.211,2.882-2.904,5.628-5.155,8.151c-3.341,3.744-7.051,6.142-10.852,7.603c-1.413,10.673-11.66,17.504-21.844,15.047
				c-0.738-0.178-1.445-0.415-2.137-0.677c-3.584,5.223-8.98,8.1-14.128,6.858c-0.09-0.022-0.176-0.054-0.266-0.078
				c0.689,9.228,0.968,19.115,3.122,30.316c4.078,21.206,22.946,27.623,29.453,29.224c1.41,0.347,2.497,1.454,2.82,2.87
				c3.468,15.167,2.038,36.355,1.526,42.421c-0.085,1.004-0.699,1.879-1.597,2.335c-5.589,2.839-7.482,7.695-8.123,10.66
				c-0.283,1.31,0.741,2.541,2.082,2.541l24.747,0c0.939,0,1.785-0.615,2.038-1.519c1.53-5.459-0.216-9.284-1.071-10.719
				c-0.281-0.472-0.48-0.99-0.556-1.534c-0.512-3.638-2.007-17.423,3.108-26.8c4.124-7.56,4.906-14.166,4.999-17.496
				c0.033-1.186,1.128-2.031,2.291-1.799c30.314,6.032,56.777-3.844,66.708-8.343c2.121-0.961,4.609,0.029,5.486,2.186
				c3.229,7.94,9.848,13.022,13.304,15.247c1.373,0.884,2.075,2.512,1.823,4.125c-1.838,11.768-6.249,22.627-8.353,27.348
				c-0.638,1.431-1.756,2.613-3.197,3.227c-7.062,3.011-9.516,8.94-10.368,12.695c-0.393,1.732,0.901,3.383,2.676,3.383h25.663
				c1.23,0,2.347-0.751,2.79-1.898c1.518-3.924,0.699-7.351-0.073-9.288c-0.502-1.26-0.58-2.642-0.235-3.954l8.687-33.009
				c0.403-1.53,0.483-3.126,0.236-4.689L219.971,178.883z"/>
		</g>
		<path class="st7" d="M199.862,192.263c-3.553-2.705-8.223-7.189-10.777-13.469c-0.877-2.157-3.365-3.147-5.486-2.186
			c-4.99,2.261-14.157,5.878-25.887,8.154c1.145,11.223,10.624,19.979,22.149,19.979C188.646,204.74,196.24,199.652,199.862,192.263
			z"/>
		<line class="st7" x1="191.737" y1="201.772" x2="193.221" y2="204.74"/>
		<line class="st7" x1="179.862" y1="204.74" x2="179.931" y2="208.059"/>
		<line class="st7" x1="168.178" y1="201.432" x2="166.361" y2="204.666"/>
		<line class="st7" x1="160.147" y1="192.829" x2="157.079" y2="194.304"/>
		<path class="st7" d="M213.424,242.921c1.518-3.924,0.699-7.351-0.073-9.288c-0.178-0.447-0.283-0.911-0.355-1.379
			c-8.261,0.542-16.035-3.393-18.484-4.777c-0.53,0.53-1.15,0.966-1.85,1.265c-7.062,3.011-9.516,8.94-10.368,12.695
			c-0.393,1.732,0.901,3.383,2.676,3.383h25.663C211.863,244.818,212.981,244.067,213.424,242.921z"/>
		<path class="st7" d="M108.121,243.299c1.53-5.459-0.216-9.284-1.071-10.719c-0.09-0.151-0.155-0.313-0.226-0.472
			c-7.452,1.449-14.963-0.845-18.064-1.996c-0.264,0.641-0.746,1.181-1.383,1.504c-5.589,2.839-7.482,7.695-8.123,10.66
			c-0.283,1.31,0.741,2.541,2.082,2.541l24.747,0C107.022,244.818,107.867,244.203,108.121,243.299z"/>
		<path class="st7" d="M79.31,243.33c-0.05-0.159-0.083-0.323-0.093-0.493c-0.002-0.025-0.01-0.049-0.01-0.074
			c-0.004-0.159,0.011-0.322,0.047-0.485c0.641-2.965,2.535-7.821,8.123-10.66c0.899-0.456,1.513-1.331,1.597-2.335
			c0.512-6.066,1.942-27.255-1.526-42.421c-0.324-1.415-1.411-2.523-2.82-2.87c-2.898-0.713-8.249-2.386-13.652-5.892
			c0.483,5.94,5.883,18.877,3.155,51.183c-0.085,1.004-0.699,1.879-1.597,2.335c-5.589,2.839-7.482,7.695-8.123,10.66
			c-0.283,1.31,0.741,2.541,2.082,2.541l14.843,0C80.37,244.818,79.577,244.176,79.31,243.33z"/>
		<path class="st7" d="M182.295,241.436c0.662-2.916,2.3-7.136,6.3-10.29c-4.166-1.149-7.478-2.853-8.925-3.67
			c-0.53,0.53-1.15,0.966-1.85,1.265c-7.062,3.011-9.516,8.94-10.368,12.695c-0.393,1.732,0.901,3.383,2.676,3.383h14.844
			C183.195,244.818,181.902,243.167,182.295,241.436z"/>
		<path class="st7" d="M79.254,242.277c0.576-2.663,2.172-6.849,6.541-9.732c-5.132-0.192-9.648-1.604-11.878-2.433
			c-0.264,0.641-0.746,1.181-1.383,1.504c-5.589,2.839-7.482,7.695-8.123,10.66c-0.283,1.31,0.741,2.541,2.082,2.541l14.843,0
			C79.995,244.818,78.97,243.587,79.254,242.277z"/>
		<g>
			<path class="st7" d="M202.39,194.041c-0.723-0.465-1.589-1.063-2.529-1.779c0,0,0.001,0.001,0.001,0.001
				c-2.364,4.822-6.425,8.652-11.399,10.74c-2.117,9.828-5.635,18.446-7.447,22.511c-0.638,1.431-1.756,2.613-3.197,3.227
				c-7.062,3.011-9.516,8.94-10.368,12.695c-0.393,1.732,0.901,3.383,2.676,3.383h14.844c-1.776,0-3.069-1.651-2.676-3.383
				c0.852-3.756,3.306-9.684,10.368-12.695c1.441-0.614,2.56-1.796,3.197-3.227c2.104-4.721,6.515-15.58,8.353-27.348
				C204.465,196.553,203.763,194.924,202.39,194.041z"/>
		</g>
		<path class="st7" d="M89.079,108.124c-3.38,7.797-11.951,12.285-20.495,10.224c-0.738-0.178-1.445-0.415-2.137-0.677
			c-3.584,5.223-8.98,8.1-14.128,6.858c-0.091-0.022-0.178-0.054-0.268-0.078c0.69,9.229,0.97,19.115,3.124,30.317
			c0.178,0.924,0.393,1.81,0.624,2.678c1.072,0.186,2.169,0.288,3.285,0.29c11.311,0.026,19.878-8.998,20.326-19.398
			c0.193-4.487,2.67-8.539,6.512-10.865c6.26-3.791,9.897-10.831,6.913-16C91.938,109.918,90.625,108.832,89.079,108.124z"/>
		<path class="st7" d="M145.658,121.075c1.825,4.385,6.15,7.468,11.196,7.468c7.009,0,12.132-5.759,12.132-12.134
			c0-2.584,1.682-4.805,4.118-5.665c6.82-2.409,11.621-9.082,11.183-16.824c-0.083-1.464-0.367-2.882-0.812-4.231
			c-10.271,0.978-22.657,2.647-37.754,4.22c-7.54,0.785-14.279,0.571-20.286-0.342c-0.229,1.016-0.398,2.054-0.46,3.121
			c-0.595,10.214,6.596,18.964,16.301,20.668C143.288,117.708,144.872,119.188,145.658,121.075z"/>
		<path class="st7" d="M230.028,114.256c-5.222-0.484-9.846,2.276-12.095,6.501c-0.756,1.42-2.236,2.299-3.837,2.459
			c-9.318,0.931-16.422,8.805-16.422,18.193c0,8.157,5.339,15.056,12.712,17.419c1.708,0.547,2.961,2.056,3.234,3.828
			c0.625,4.064,3.892,7.293,8.022,7.851C232.208,145.13,232.082,125.989,230.028,114.256z"/>
		<path class="st7" d="M147.021,146.023c-3.529-0.536-6.487-2.837-8.36-5.876c-1.924-3.12-5.378-5.171-9.267-5.171
			c-7.625,0-12.582,7.498-10.356,14.244c0.48,1.455,0.519,3.047-0.178,4.411c-0.856,1.678-1.341,3.576-1.341,5.59
			c0,7.187,6.085,12.776,13.074,12.345c1.551-0.096,3.077,0.356,4.264,1.359c2.985,2.521,6.942,3.925,11.234,3.555
			c7.554-0.652,13.598-6.935,13.961-14.508C160.448,153.711,154.44,147.149,147.021,146.023z"/>
		<path class="st7" d="M243.78,179.141c0.145,0.6,0.292,1.167,0.437,1.679c0.657,2.323-0.647,4.746-2.964,5.428l-0.014,0.004
			c-2.305,0.678-4.761-0.619-5.425-2.927c-0.293-1.02-0.539-2.053-0.75-3.094c-2.836,1.944-5.719,5.752-4.126,13.011
			c0,0,0.709,3.768,0.222,6.292c-0.1,0.521,0.456,0.918,0.924,0.667l1.918-1.03c0.435-0.233,0.964,0.095,0.936,0.587
			c-0.123,2.139,0.033,6.823,3.207,10.271c2.121,2.304,2.565,4.131,2.48,5.382c-0.038,0.56,0.646,0.866,1.07,0.498
			c3.012-2.61,8.759-8.467,8.228-14.767c-0.035-0.413,0.306-0.756,0.714-0.687l1.517,0.256c0.335,0.056,0.655-0.157,0.726-0.489
			C253.538,197.144,255.873,182.897,243.78,179.141z"/>
		<path class="st7" d="M243.195,155.757c2.341-14.044,17.333-53.899-19.478-57.691c1.901,2.351,3.334,5.074,4.285,7.972
			c0.29,0.884,0.589,1.882,0.881,2.984c5.11,1.758,9.858,5.968,9.858,15.563c0,19.295-8.105,40.723-2.927,58.739
			c0.664,2.309,3.12,3.605,5.425,2.927l0.014-0.004c2.317-0.681,3.621-3.104,2.964-5.428
			C242.854,176,241.286,167.207,243.195,155.757z"/>
		<path class="st7" d="M90.444,103.215c1.052-8.249-3.951-16.284-11.81-19.001c-4.887-1.69-9.894-1.144-14.042,1.01
			c-1.839,0.955-4.044,0.423-5.245-1.266c-2.709-3.809-6.916-6.578-12.037-7.303c-8.234-1.166-16.351,3.703-19.176,11.524
			c-3.673,10.167,2.341,20.973,12.553,23.437c4.345,1.048,8.695,0.397,12.369-1.516c1.824-0.95,4.022-0.419,5.212,1.258
			c2.397,3.379,5.972,5.942,10.316,6.99C78.796,120.812,89.076,113.938,90.444,103.215z"/>
		<path class="st7" d="M58.497,111.413c-1.19-1.677-3.388-2.207-5.212-1.258c-3.121,1.626-6.73,2.328-10.408,1.864
			c0.817,6.266,4.304,11.27,9.442,12.51c5.157,1.244,10.564-1.645,14.148-6.885C63.182,116.35,60.446,114.159,58.497,111.413z"/>
		<path class="st7" d="M58.497,111.413c-1.19-1.677-3.388-2.207-5.212-1.258c-3.121,1.626-6.73,2.328-10.408,1.864
			c0.817,6.266,4.304,11.27,9.442,12.51c5.157,1.244,10.564-1.645,14.148-6.885C63.182,116.35,60.446,114.159,58.497,111.413z"/>
		<path class="st7" d="M41.999,94.628c-0.709-0.965-1.003-2.224-0.7-3.478c0.545-2.258,2.817-3.647,5.075-3.102
			c2.258,0.545,3.647,2.817,3.102,5.075"/>
		<path class="st7" d="M75.163,102.631c1.071-0.535,1.907-1.522,2.209-2.776c0.545-2.258-0.844-4.53-3.102-5.075
			c-2.258-0.545-4.53,0.844-5.075,3.102"/>
		<path class="st7" d="M77.193,35.018c-2.149,0.076-4.286-0.44-6.164-1.487C52.707,23.308,14.426,47.81,21.918,76.548
			c1.266,4.855,3.474,8.682,6.191,11.715c0.01-0.028,0.015-0.056,0.025-0.084c2.825-7.821,10.942-12.69,19.176-11.524
			c5.12,0.725,9.327,3.494,12.037,7.303c1.201,1.688,3.406,2.22,5.245,1.266c4.148-2.154,9.155-2.699,14.042-1.01
			c7.859,2.717,12.862,10.753,11.81,19.001c-0.004,0.029-0.012,0.057-0.016,0.086c3.801-1.461,7.511-3.859,10.852-7.603
			C121.054,73.54,98.16,34.276,77.193,35.018z"/>
		<path class="st7" d="M60.026,73.019c3.141-13.016-3.647-25.821-15.162-28.599c-5.122-1.236-10.315-0.275-14.781,2.313
			c-7.067,8.102-11.079,18.637-8.165,29.815c1.266,4.855,3.474,8.682,6.191,11.715c0.01-0.028,0.015-0.056,0.025-0.084
			c2.825-7.821,10.942-12.69,19.176-11.524c3.669,0.52,6.858,2.101,9.374,4.351C58.17,78.628,59.32,75.944,60.026,73.019z"/>
		<path class="st7" d="M140.478,56.553c-7.831-6.392-16.931-6.419-23.544-2.377c-3.763,2.3-8.53,2.952-12.211,3.054
			c2.362,5.161,3.85,10.788,4.083,16.391c17.454,7.086,28.723-7.446,32.34-13.162C141.956,59.178,141.652,57.511,140.478,56.553z"/>
		<path class="st7" d="M140.478,56.553c-7.831-6.392-16.931-6.419-23.544-2.377c-3.763,2.3-8.53,2.952-12.211,3.054
			c1.183,2.585,2.151,5.286,2.848,8.044c3.418,0.041,7.339-0.839,11.586-3.436c9.228-5.64,17.612-4.305,22.415-2.64
			C141.674,58.219,141.291,57.216,140.478,56.553z"/>
		<path class="st7" d="M25.342,53.376c0.043-0.075,0.085-0.151,0.128-0.226c0.306-0.529,0.624-1.051,0.956-1.566
			c0.032-0.05,0.066-0.1,0.099-0.15c0.321-0.494,0.654-0.982,0.998-1.463c0.031-0.044,0.061-0.088,0.093-0.132
			c0.364-0.504,0.74-1,1.126-1.489c0.047-0.059,0.095-0.118,0.142-0.177c2.198-2.749,4.747-5.247,7.515-7.432
			c-3.229-1.769-7.175-4.524-9.475-8.287c-4.042-6.613-12.153-10.739-22.037-8.622c-1.482,0.317-2.512,1.662-2.375,3.171
			c0.612,6.736,4.014,24.808,22.778,26.462C25.307,53.437,25.324,53.406,25.342,53.376z"/>
		<path class="st7" d="M36.399,40.742c-3.229-1.769-7.175-4.524-9.475-8.287c-4.042-6.613-12.153-10.739-22.037-8.622
			c-1.026,0.22-1.825,0.937-2.18,1.855c5.034,0.709,13.104,3.344,18.745,12.572c2.596,4.248,5.684,6.819,8.744,8.342
			C32.074,44.466,34.167,42.503,36.399,40.742z"/>
		<path class="st7" d="M104.723,57.229c3.681-0.102,8.448-0.754,12.211-3.054c1.24-0.758,2.567-1.373,3.957-1.829
			c0.149-0.049,0.302-0.084,0.452-0.129c3.712-4.137,4.613-9.948,4.358-15.415c-0.161-3.437-4.527-4.66-6.482-1.828
			c-5.167,7.487-15.202,10.157-21.56,11.11C100.434,49.34,102.85,53.138,104.723,57.229z"/>
		<path class="st7" d="M26.924,32.456c2.3,3.763,6.245,6.517,9.475,8.287c3.528-2.784,7.406-5.061,11.356-6.693
			c-5.224-3.745-12.95-10.703-14.136-19.731c-0.448-3.412-4.892-4.315-6.602-1.329c-2.716,4.742-4.563,10.315-3.158,15.681
			C25.042,29.802,26.077,31.07,26.924,32.456z"/>
		<path class="st7" d="M81.851,74.325c0.681-2.863,3.554-4.631,6.417-3.95c2.863,0.681,4.631,3.554,3.95,6.417"/>
		<path class="st7" d="M38.856,63.932c0.69-2.861,3.569-4.62,6.429-3.93c2.861,0.69,4.62,3.569,3.93,6.429"/>
		<path class="st7" d="M58.45,111.401c-1.19-1.677-3.388-2.207-5.212-1.258c-1.65,0.859-3.439,1.452-5.3,1.759
			c1.404,3.051,3.434,5.11,5.995,5.728c2.613,0.631,5.416-0.329,8.106-2.493C60.658,114.068,59.449,112.809,58.45,111.401z"/>
	</g>
</g>
<g id="Layer_17">
</g>
<g id="Layer_18">
</g>
<g id="Layer_19">
</g>
<g id="Layer_20">
</g>
<g id="Layer_21">
</g>
<g id="Layer_22">
</g>
<g id="Layer_23">
</g>
<g id="Layer_24">
</g>
<g id="Layer_25">
</g>
<g id="Layer_26">
</g>
<g id="Layer_27">
</g>
<g id="Layer_28">
</g>
<g id="Layer_29">
</g>
<g id="Layer_30">
</g>
<g id="Layer_31">
</g>
<g id="Layer_32">
</g>
<g id="Layer_33">
</g>
<g id="Layer_34">
</g>
<g id="Layer_35">
</g>
<g id="Layer_36">
</g>
<g id="Layer_37">
</g>
<g id="Layer_38">
</g>
<g id="Layer_39">
</g>
<g id="Layer_40">
</g>
<g id="Layer_41">
</g>
<g id="Layer_42">
</g>
<g id="Layer_43">
</g>
<g id="Layer_44">
</g>
<g id="Layer_45">
</g>
<g id="Layer_46">
</g>
<g id="Layer_47">
</g>
<g id="Layer_48">
</g>
<g id="Layer_49">
</g>
<g id="Layer_50">
</g>
<g id="Layer_51">
</g>
<g id="Layer_52">
</g>
<g id="Layer_53">
</g>
<g id="Layer_54">
</g>
<g id="Layer_55">
</g>
<g id="Layer_56">
</g>
<g id="Layer_57">
</g>
<g id="Layer_58">
</g>
<g id="Layer_59">
</g>
<g id="Layer_60">
</g>
<g id="Layer_61">
</g>
<g id="Layer_62">
</g>
<g id="Layer_63">
</g>
<g id="Layer_64">
</g>
<g id="Layer_65">
</g>
<g id="Layer_66">
</g>
<g id="Layer_67">
</g>
<g id="Layer_68">
</g>
<g id="Layer_69">
</g>
<g id="Layer_70">
</g>
<g id="Layer_71">
</g>
<g id="Layer_72">
</g>
<g id="Layer_73">
</g>
<g id="Layer_74">
</g>
<g id="Layer_75">
</g>
<g id="Layer_76">
</g>
<g id="Layer_77">
</g>
<g id="Layer_78">
</g>
<g id="Layer_79">
</g>
<g id="Layer_80">
</g>
<g id="Layer_81">
</g>
<g id="Layer_82">
</g>
<g id="Layer_83">
</g>
<g id="Layer_84">
</g>
<g id="Layer_85">
</g>
<g id="Layer_86">
</g>
<g id="Layer_87">
</g>
<g id="Layer_88">
</g>
<g id="Layer_89">
</g>
<g id="Layer_90">
</g>
<g id="Layer_91">
</g>
<g id="Layer_92">
</g>
<g id="Layer_93">
</g>
<g id="Layer_94">
</g>
<g id="Layer_95">
</g>
<g id="Layer_96">
</g>
<g id="Layer_97">
</g>
<g id="Layer_98">
</g>
<g id="Layer_99">
</g>
<g id="Layer_100">
</g>
</svg>
