<?xml version="1.0" encoding="utf-8"?>
<!-- Generator: Adobe Illustrator 22.0.0, SVG Export Plug-In . SVG Version: 6.00 Build 0)  -->
<svg version="1.1" xmlns="http://www.w3.org/2000/svg" xmlns:xlink="http://www.w3.org/1999/xlink" x="0px" y="0px"
	 viewBox="0 0 256 256" style="enable-background:new 0 0 256 256;" xml:space="preserve">
<style type="text/css">
	.st0{fill:#F9BD55;}
	.st1{fill:#F4DBCE;}
	.st2{fill:#52565B;}
	.st3{fill:#FD605B;}
	.st4{fill:#F98080;}
	.st5{fill:#F9E63A;}
	.st6{fill:#039BE6;}
	.st7{fill:none;stroke:#000000;stroke-width:5;stroke-linecap:round;stroke-linejoin:round;stroke-miterlimit:10;}
	.st8{fill:#7D3D1A;}
	.st9{fill:#EAA250;}
	.st10{fill:#DD7F57;}
	.st11{fill:#FFC097;}
	.st12{fill:#F49667;}
	.st13{fill:#F89422;}
	.st14{fill:#E3E4E5;}
	.st15{fill:#6E7175;}
	.st16{fill:#46BAF9;}
	.st17{fill:#D9F3FF;}
	.st18{fill:#828487;}
	.st19{fill:#A8AEB2;}
	.st20{fill:#C9CDD1;}
	.st21{fill:#8CD8F9;}
	.st22{fill:#1AA7E5;}
	.st23{fill:#ACE7FC;}
	.st24{fill:#FFFFFF;}
	.st25{fill:#9E512B;}
	.st26{fill:#7ED5FC;}
	.st27{fill:#7CCC4E;}
	.st28{fill:#3AA03A;}
	.st29{fill:#FCB1B1;}
	.st30{fill:#F76E23;}
	.st31{fill:#C16A44;}
	.st32{fill:#B796EA;}
</style>
<g id="Layer_1">
</g>
<g id="Layer_2">
</g>
<g id="Layer_3">
</g>
<g id="Layer_4">
</g>
<g id="Layer_5">
</g>
<g id="Layer_6">
</g>
<g id="Layer_7">
</g>
<g id="Layer_8">
</g>
<g id="Layer_9">
</g>
<g id="Layer_10">
</g>
<g id="Layer_11">
</g>
<g id="Layer_12">
</g>
<g id="Layer_13">
</g>
<g id="Layer_14">
</g>
<g id="Layer_15">
</g>
<g id="Layer_16">
</g>
<g id="Layer_17">
</g>
<g id="Layer_18">
</g>
<g id="Layer_19">
</g>
<g id="Layer_20">
</g>
<g id="Layer_21">
</g>
<g id="Layer_22">
</g>
<g id="Layer_23">
</g>
<g id="Layer_24">
</g>
<g id="Layer_25">
</g>
<g id="Layer_26">
</g>
<g id="Layer_27">
</g>
<g id="Layer_28">
</g>
<g id="Layer_29">
</g>
<g id="Layer_30">
</g>
<g id="Layer_31">
</g>
<g id="Layer_32">
</g>
<g id="Layer_33">
</g>
<g id="Layer_34">
</g>
<g id="Layer_35">
</g>
<g id="Layer_36">
</g>
<g id="Layer_37">
</g>
<g id="Layer_38">
</g>
<g id="Layer_39">
</g>
<g id="Layer_40">
</g>
<g id="Layer_41">
</g>
<g id="Layer_42">
</g>
<g id="Layer_43">
</g>
<g id="Layer_44">
</g>
<g id="Layer_45">
</g>
<g id="Layer_46">
</g>
<g id="Layer_47">
</g>
<g id="Layer_48">
</g>
<g id="Layer_49">
</g>
<g id="Layer_50">
</g>
<g id="Layer_51">
</g>
<g id="Layer_52">
</g>
<g id="Layer_53">
</g>
<g id="Layer_54">
</g>
<g id="Layer_55">
</g>
<g id="Layer_56">
</g>
<g id="Layer_57">
</g>
<g id="Layer_58">
</g>
<g id="Layer_59">
</g>
<g id="Layer_60">
</g>
<g id="Layer_61">
</g>
<g id="Layer_62">
</g>
<g id="Layer_63">
</g>
<g id="Layer_64">
</g>
<g id="Layer_65">
</g>
<g id="Layer_66">
</g>
<g id="Layer_67">
</g>
<g id="Layer_68">
</g>
<g id="Layer_69">
</g>
<g id="Layer_70">
</g>
<g id="Layer_71">
</g>
<g id="Layer_72">
</g>
<g id="Layer_73">
	<g>
		<g>
			<path class="st4" d="M29.039,177.799c-6.441,8.428-10.891,16.425-7.471,19.326c3.675,3.118,12.476-4.731,21.173-14.487
				C36.03,181.646,30.632,180.125,29.039,177.799z"/>
		</g>
		<g>
			<path class="st4" d="M21.608,197.15c1.977,15.518,6.489,42.027,14.124,40.628c7.317-1.34,2.159-28.677-1.892-46.037
				C28.567,196.492,24.013,199.122,21.608,197.15z"/>
		</g>
		<g>
			<path class="st4" d="M47.194,193.769c-3.39,8.924-5.173,16.966-1.478,18.589c3.971,1.745,9.545-7.286,14.54-17.936
				C54.214,195.291,49.166,195.366,47.194,193.769z"/>
		</g>
		<g>
			<path class="st4" d="M45.758,212.369c5.693,12.877,16.397,34.582,22.623,31.413c5.967-3.036-5.507-25.289-13.462-39.222
				C51.591,210.013,48.339,213.452,45.758,212.369z"/>
		</g>
		<g>
			<path class="st4" d="M226.961,177.799c6.441,8.428,10.891,16.425,7.471,19.326c-3.675,3.118-12.476-4.731-21.173-14.487
				C219.969,181.646,225.368,180.125,226.961,177.799z"/>
		</g>
		<g>
			<path class="st4" d="M234.392,197.15c-1.977,15.518-6.489,42.027-14.124,40.628c-7.317-1.34-2.159-28.677,1.892-46.037
				C227.433,196.492,231.987,199.122,234.392,197.15z"/>
		</g>
		<g>
			<path class="st4" d="M208.806,193.769c3.39,8.924,5.173,16.966,1.478,18.589c-3.971,1.745-9.545-7.286-14.54-17.936
				C201.786,195.291,206.834,195.366,208.806,193.769z"/>
		</g>
		<g>
			<path class="st4" d="M210.242,212.369c-5.693,12.877-16.397,34.582-22.623,31.413c-5.967-3.036,5.507-25.289,13.462-39.222
				C204.409,210.013,207.661,213.452,210.242,212.369z"/>
		</g>
		<path class="st4" d="M70.465,184.429c-3.138-0.038-6.845-0.125-10.738-0.303c-7.78,2.178-14.111,5.004-13.364,8.347
			c1.155,5.173,19.108,1.471,32.278-1.991C75.787,188.71,73.038,186.699,70.465,184.429z"/>
		<path class="st4" d="M60.462,172.524c-13.362-1.422-31.486-2.254-31.897,3.631c-0.478,6.836,27.082,8.092,41.901,8.274
			C66.657,181.07,63.239,177.138,60.462,172.524z"/>
		<path class="st4" d="M196.273,184.126c-3.893,0.178-7.6,0.265-10.738,0.303c-2.573,2.27-5.321,4.281-8.176,6.053
			c13.17,3.461,31.123,7.163,32.278,1.991C210.384,189.13,204.053,186.304,196.273,184.126z"/>
		<path class="st4" d="M195.538,172.524c-2.777,4.614-6.195,8.546-10.004,11.905c14.819-0.182,42.379-1.437,41.901-8.274
			C227.024,170.27,208.9,171.102,195.538,172.524z"/>
		<g>
			<path class="st3" d="M202.748,59.758c-3.209,8.915-2.712,16.005,0.016,21.345c-10.344-6.597-18.03-16.497-22.334-29.151
				c-0.813-2.388,1.725-4.522,3.952-3.338c4.691,2.494,11.861,4.873,20.553,3.244C204.455,54.361,203.744,56.991,202.748,59.758z"/>
		</g>
		<path class="st3" d="M199.013,140.485c-8.677-6.542-31.836-20.558-71.013-20.558s-62.336,14.016-71.013,20.558
			c-2.59,1.953-3.997,5.084-3.76,8.32C57.282,203.967,128,203.967,128,203.967s70.718,0,74.772-55.161
			C203.01,145.57,201.603,142.438,199.013,140.485z"/>
		<path class="st4" d="M53.252,59.758c-7.49-20.805,0.766-34.061,7.325-40.716c1.987-2.016,0.506-5.431-2.324-5.322
			c-19.516,0.747-35.865,9.123-47.191,23.875c-10.864,14.15-12.698,41.011,2.19,51.382C29.208,100.09,64.664,91.459,53.252,59.758z"
			/>
		<g>
			<path class="st3" d="M53.252,59.758c3.209,8.915,2.712,16.005-0.016,21.345c10.344-6.597,18.03-16.497,22.334-29.151
				c0.813-2.388-1.725-4.522-3.952-3.338c-4.691,2.494-11.861,4.873-20.553,3.244C51.545,54.361,52.256,56.991,53.252,59.758z"/>
		</g>
		<path class="st3" d="M13.252,88.977c-1.844-1.285-3.431-2.825-4.777-4.56C5.001,88.69,5.274,94.985,9.274,98.935
			c4.253,4.2,11.106,4.157,15.306-0.096c1.498-1.517,2.446-3.366,2.866-5.306C22.197,93.22,17.144,91.688,13.252,88.977z"/>
		<path class="st4" d="M20.595,101.389c-3.809,1.39-8.244,0.584-11.32-2.454c-0.523-0.516-0.978-1.074-1.374-1.661
			c-5.23,15.566-2.657,26.665,1.003,33.688c2.92,5.605,10.248,7.098,15.072,3.015c3.726-3.152,4.533-8.549,1.966-12.7
			C21.219,113.641,20.499,105.954,20.595,101.389z"/>
		<path class="st4" d="M202.748,59.758c7.49-20.805-0.766-34.061-7.325-40.716c-1.987-2.016-0.506-5.431,2.324-5.322
			c19.516,0.747,35.865,9.123,47.191,23.875c10.864,14.15,12.698,41.011-2.19,51.382C226.792,100.09,191.336,91.459,202.748,59.758z
			"/>
		<path class="st3" d="M242.748,88.977c1.844-1.285,3.431-2.825,4.777-4.56c3.475,4.273,3.201,10.568-0.799,14.519
			c-4.253,4.2-11.106,4.157-15.306-0.096c-1.498-1.517-2.446-3.366-2.866-5.306C233.803,93.22,238.856,91.688,242.748,88.977z"/>
		<path class="st4" d="M235.405,101.389c3.809,1.39,8.244,0.584,11.32-2.454c0.523-0.516,0.978-1.074,1.374-1.661
			c5.23,15.566,2.657,26.665-1.003,33.688c-2.92,5.605-10.248,7.098-15.072,3.015c-3.726-3.152-4.533-8.549-1.966-12.7
			C234.781,113.641,235.501,105.954,235.405,101.389z"/>
		<path class="st4" d="M196.725,138.837c0.846,0.586,1.616,1.142,2.288,1.649c2.59,1.953,3.997,5.084,3.76,8.32
			c-0.033,0.452-0.083,0.891-0.125,1.336c13.068-1.837,28.044-5.73,36.875-13.93c-2.584,0.317-5.299-0.374-7.497-2.234
			c-2.818-2.384-3.963-6.052-3.245-9.495C224.556,128.719,215.06,135.752,196.725,138.837z"/>
		<path class="st4" d="M53.228,148.805c-0.238-3.236,1.169-6.367,3.76-8.32c0.672-0.507,1.441-1.062,2.288-1.649
			c-18.335-3.085-27.831-10.118-32.055-14.354c0.719,3.442-0.426,7.11-3.245,9.495c-2.198,1.86-4.914,2.551-7.497,2.234
			c8.83,8.199,23.807,12.093,36.875,13.93C53.31,149.697,53.261,149.258,53.228,148.805z"/>
		<path class="st3" d="M153.021,108.511c-2.899,0-5.6-0.818-7.914-2.213l-2.24,14.338c3.952,0.381,7.706,0.901,11.255,1.536
			l2.191-14.024C155.252,108.38,154.153,108.511,153.021,108.511z"/>
		<path class="st3" d="M102.979,108.511c-1.131,0-2.231-0.131-3.292-0.363l2.191,14.024c3.548-0.635,7.303-1.155,11.254-1.536
			l-2.24-14.338C108.578,107.694,105.877,108.511,102.979,108.511z"/>
		<circle class="st0" cx="153.021" cy="93.147" r="15.364"/>
		<circle class="st0" cx="102.979" cy="93.147" r="15.364"/>
		<path class="st7" d="M199.013,140.485c-8.677-6.542-31.836-20.558-71.013-20.558s-62.336,14.016-71.013,20.558
			c-2.59,1.953-3.997,5.084-3.76,8.32C57.282,203.967,128,203.967,128,203.967s70.718,0,74.772-55.161
			C203.01,145.57,201.603,142.438,199.013,140.485z"/>
		<g>
			<path class="st7" d="M29.039,177.799c-6.441,8.428-10.891,16.425-7.471,19.326c3.675,3.118,12.476-4.731,21.173-14.487
				C36.03,181.646,30.632,180.125,29.039,177.799z"/>
		</g>
		<g>
			<path class="st7" d="M21.608,197.15c1.977,15.518,6.489,42.027,14.124,40.628c7.317-1.34,2.159-28.677-1.892-46.037
				C28.567,196.492,24.013,199.122,21.608,197.15z"/>
		</g>
		<g>
			<path class="st7" d="M47.194,193.769c-3.39,8.924-5.173,16.966-1.478,18.589c3.971,1.745,9.545-7.286,14.54-17.936
				C54.214,195.291,49.166,195.366,47.194,193.769z"/>
		</g>
		<g>
			<path class="st7" d="M45.758,212.369c5.693,12.877,16.397,34.582,22.623,31.413c5.967-3.036-5.507-25.289-13.462-39.222
				C51.591,210.013,48.339,213.452,45.758,212.369z"/>
		</g>
		<g>
			<path class="st7" d="M226.961,177.799c6.441,8.428,10.891,16.425,7.471,19.326c-3.675,3.118-12.476-4.731-21.173-14.487
				C219.969,181.646,225.368,180.125,226.961,177.799z"/>
		</g>
		<g>
			<path class="st7" d="M234.392,197.15c-1.977,15.518-6.489,42.027-14.124,40.628c-7.317-1.34-2.159-28.677,1.892-46.037
				C227.433,196.492,231.987,199.122,234.392,197.15z"/>
		</g>
		<g>
			<path class="st7" d="M208.806,193.769c3.39,8.924,5.173,16.966,1.478,18.589c-3.971,1.745-9.545-7.286-14.54-17.936
				C201.786,195.291,206.834,195.366,208.806,193.769z"/>
		</g>
		<g>
			<path class="st7" d="M210.242,212.369c-5.693,12.877-16.397,34.582-22.623,31.413c-5.967-3.036,5.507-25.289,13.462-39.222
				C204.409,210.013,207.661,213.452,210.242,212.369z"/>
		</g>
		<path class="st7" d="M70.465,184.429c-3.138-0.038-6.845-0.125-10.738-0.303c-7.78,2.178-14.111,5.004-13.364,8.347
			c1.155,5.173,19.108,1.471,32.278-1.991C75.787,188.71,73.038,186.699,70.465,184.429z"/>
		<path class="st7" d="M60.462,172.524c-13.362-1.422-31.486-2.254-31.897,3.631c-0.478,6.836,27.082,8.092,41.901,8.274
			C66.657,181.07,63.239,177.138,60.462,172.524z"/>
		<path class="st7" d="M196.273,184.126c-3.893,0.178-7.6,0.265-10.738,0.303c-2.573,2.27-5.321,4.281-8.176,6.053
			c13.17,3.461,31.123,7.163,32.278,1.991C210.384,189.13,204.053,186.304,196.273,184.126z"/>
		<path class="st7" d="M195.538,172.524c-2.777,4.614-6.195,8.546-10.004,11.905c14.819-0.182,42.379-1.437,41.901-8.274
			C227.024,170.27,208.9,171.102,195.538,172.524z"/>
		<path class="st7" d="M53.252,59.758c-7.49-20.805,0.766-34.061,7.325-40.716c1.987-2.016,0.506-5.431-2.324-5.322
			c-19.516,0.747-35.865,9.123-47.191,23.875c-10.864,14.15-12.698,41.011,2.19,51.382C29.208,100.09,64.664,91.459,53.252,59.758z"
			/>
		<g>
			<path class="st7" d="M53.252,59.758c3.209,8.915,2.712,16.005-0.016,21.345c10.344-6.597,18.03-16.497,22.334-29.151
				c0.813-2.388-1.725-4.522-3.952-3.338c-4.691,2.494-11.861,4.873-20.553,3.244C51.545,54.361,52.256,56.991,53.252,59.758z"/>
		</g>
		<path class="st7" d="M13.252,88.977c-1.844-1.285-3.431-2.825-4.777-4.56C5.001,88.69,5.274,94.985,9.274,98.935
			c4.253,4.2,11.106,4.157,15.306-0.096c1.498-1.517,2.446-3.366,2.866-5.306C22.197,93.22,17.144,91.688,13.252,88.977z"/>
		<path class="st7" d="M20.595,101.389c-3.809,1.39-8.244,0.584-11.32-2.454c-0.523-0.516-0.978-1.074-1.374-1.661
			c-5.23,15.566-2.657,26.665,1.003,33.688c2.92,5.605,10.248,7.098,15.072,3.015c3.726-3.152,4.533-8.549,1.966-12.7
			C21.219,113.641,20.499,105.954,20.595,101.389z"/>
		<path class="st7" d="M202.748,59.758c7.49-20.805-0.766-34.061-7.325-40.716c-1.987-2.016-0.506-5.431,2.324-5.322
			c19.516,0.747,35.865,9.123,47.191,23.875c10.864,14.15,12.698,41.011-2.19,51.382C226.792,100.09,191.336,91.459,202.748,59.758z
			"/>
		<g>
			<path class="st7" d="M202.748,59.758c-3.209,8.915-2.712,16.005,0.016,21.345c-10.344-6.597-18.03-16.497-22.334-29.151
				c-0.813-2.388,1.725-4.522,3.952-3.338c4.691,2.494,11.861,4.873,20.553,3.244C204.455,54.361,203.744,56.991,202.748,59.758z"/>
		</g>
		<path class="st7" d="M242.748,88.977c1.844-1.285,3.431-2.825,4.777-4.56c3.475,4.273,3.201,10.568-0.799,14.519
			c-4.253,4.2-11.106,4.157-15.306-0.096c-1.498-1.517-2.446-3.366-2.866-5.306C233.803,93.22,238.856,91.688,242.748,88.977z"/>
		<path class="st7" d="M235.405,101.389c3.809,1.39,8.244,0.584,11.32-2.454c0.523-0.516,0.978-1.074,1.374-1.661
			c5.23,15.566,2.657,26.665-1.003,33.688c-2.92,5.605-10.248,7.098-15.072,3.015c-3.726-3.152-4.533-8.549-1.966-12.7
			C234.781,113.641,235.501,105.954,235.405,101.389z"/>
		<path class="st7" d="M147.401,93.342c-0.01-3.104,2.498-5.629,5.602-5.639s5.629,2.498,5.639,5.602"/>
		<circle class="st7" cx="153.021" cy="93.147" r="15.364"/>
		<path class="st7" d="M97.358,93.342c-0.01-3.104,2.498-5.629,5.602-5.639c3.104-0.01,5.629,2.498,5.639,5.602"/>
		<circle class="st7" cx="102.979" cy="93.147" r="15.364"/>
		<path class="st7" d="M196.725,138.837c0.846,0.586,1.616,1.142,2.288,1.649c2.59,1.953,3.997,5.084,3.76,8.32
			c-0.033,0.452-0.083,0.891-0.125,1.336c13.068-1.837,28.044-5.73,36.875-13.93c-2.584,0.317-5.299-0.374-7.497-2.234
			c-2.818-2.384-3.963-6.052-3.245-9.495C224.556,128.719,215.06,135.752,196.725,138.837z"/>
		<path class="st7" d="M53.228,148.805c-0.238-3.236,1.169-6.367,3.76-8.32c0.672-0.507,1.441-1.062,2.288-1.649
			c-18.335-3.085-27.831-10.118-32.055-14.354c0.719,3.442-0.426,7.11-3.245,9.495c-2.198,1.86-4.914,2.551-7.497,2.234
			c8.83,8.199,23.807,12.093,36.875,13.93C53.31,149.697,53.261,149.258,53.228,148.805z"/>
		<path class="st7" d="M153.021,108.511c-2.899,0-5.6-0.818-7.914-2.213l-2.24,14.338c3.952,0.381,7.706,0.901,11.255,1.536
			l2.191-14.024C155.252,108.38,154.153,108.511,153.021,108.511z"/>
		<path class="st7" d="M102.979,108.511c-1.131,0-2.231-0.131-3.292-0.363l2.191,14.024c3.548-0.635,7.303-1.155,11.254-1.536
			l-2.24-14.338C108.578,107.694,105.877,108.511,102.979,108.511z"/>
		<path class="st7" d="M105.157,139.559c5.622,6.251,13.77,10.182,22.843,10.182s17.221-3.931,22.843-10.182"/>
	</g>
</g>
<g id="Layer_74">
</g>
<g id="Layer_75">
</g>
<g id="Layer_76">
</g>
<g id="Layer_77">
</g>
<g id="Layer_78">
</g>
<g id="Layer_79">
</g>
<g id="Layer_80">
</g>
<g id="Layer_81">
</g>
<g id="Layer_82">
</g>
<g id="Layer_83">
</g>
<g id="Layer_84">
</g>
<g id="Layer_85">
</g>
<g id="Layer_86">
</g>
<g id="Layer_87">
</g>
<g id="Layer_88">
</g>
<g id="Layer_89">
</g>
<g id="Layer_90">
</g>
<g id="Layer_91">
</g>
<g id="Layer_92">
</g>
<g id="Layer_93">
</g>
<g id="Layer_94">
</g>
<g id="Layer_95">
</g>
<g id="Layer_96">
</g>
<g id="Layer_97">
</g>
<g id="Layer_98">
</g>
<g id="Layer_99">
</g>
<g id="Layer_100">
</g>
</svg>
