<?xml version="1.0" encoding="utf-8"?>
<!-- Generator: Adobe Illustrator 22.0.0, SVG Export Plug-In . SVG Version: 6.00 Build 0)  -->
<svg version="1.1" xmlns="http://www.w3.org/2000/svg" xmlns:xlink="http://www.w3.org/1999/xlink" x="0px" y="0px"
	 viewBox="0 0 256 256" style="enable-background:new 0 0 256 256;" xml:space="preserve">
<style type="text/css">
	.st0{fill:#F9BD55;}
	.st1{fill:#F4DBCE;}
	.st2{fill:#52565B;}
	.st3{fill:#FD605B;}
	.st4{fill:#F98080;}
	.st5{fill:#F9E63A;}
	.st6{fill:#039BE6;}
	.st7{fill:none;stroke:#000000;stroke-width:5;stroke-linecap:round;stroke-linejoin:round;stroke-miterlimit:10;}
	.st8{fill:#7D3D1A;}
	.st9{fill:#EAA250;}
	.st10{fill:#DD7F57;}
	.st11{fill:#FFC097;}
	.st12{fill:#F49667;}
	.st13{fill:#F89422;}
	.st14{fill:#E3E4E5;}
	.st15{fill:#6E7175;}
	.st16{fill:#46BAF9;}
	.st17{fill:#D9F3FF;}
	.st18{fill:#828487;}
	.st19{fill:#A8AEB2;}
	.st20{fill:#C9CDD1;}
	.st21{fill:#8CD8F9;}
	.st22{fill:#1AA7E5;}
	.st23{fill:#ACE7FC;}
	.st24{fill:#FFFFFF;}
	.st25{fill:#9E512B;}
	.st26{fill:#7ED5FC;}
	.st27{fill:#7CCC4E;}
	.st28{fill:#3AA03A;}
	.st29{fill:#FCB1B1;}
	.st30{fill:#F76E23;}
	.st31{fill:#C16A44;}
	.st32{fill:#B796EA;}
</style>
<g id="Layer_1">
</g>
<g id="Layer_2">
	<g>
		<path class="st1" d="M153.458,76.874c-13.445-6.722-17.811-20.619-19.223-28.424c-0.589-3.253-3.391-5.634-6.697-5.634
			c-3.306,0-6.108,2.381-6.697,5.634c-1.412,7.804-5.778,21.702-19.223,28.424c-19.289,9.645-19.289,32.551-2.411,39.785
			c16.473,7.06,28.331-11.755,28.331-11.755s11.858,18.814,28.331,11.755C172.748,109.425,172.748,86.519,153.458,76.874z"/>
		<path class="st8" d="M138.724,80.677c0,5.451-5.735,11.139-11.186,11.139c-5.451,0-11.186-5.688-11.186-11.139
			s5.735-3.254,11.186-3.254C132.989,77.422,138.724,75.226,138.724,80.677z"/>
		<path class="st7" d="M153.458,76.874c-13.445-6.722-17.811-20.619-19.223-28.424c-0.589-3.253-3.391-5.634-6.697-5.634
			c-3.306,0-6.108,2.381-6.697,5.634c-1.412,7.804-5.778,21.702-19.223,28.424c-19.289,9.645-19.289,32.551-2.411,39.785
			c16.473,7.06,28.331-11.755,28.331-11.755s11.858,18.814,28.331,11.755C172.748,109.425,172.748,86.519,153.458,76.874z"/>
		<path class="st7" d="M138.724,80.677c0,5.451-5.735,11.139-11.186,11.139c-5.451,0-11.186-5.688-11.186-11.139
			s5.735-3.254,11.186-3.254C132.989,77.422,138.724,75.226,138.724,80.677z"/>
		<line class="st7" x1="127.321" y1="105.556" x2="127.321" y2="93.779"/>
		<path class="st9" d="M168.864,5.156c-1.603-0.041-3.026-0.022-4.287,0.046c-4.717,0.256-6.491,6.395-2.601,9.075
			c3.856,2.657,7.99,7.638,8.165,16.814c0.33,17.347,8.67,65.604,21.018,61.688c9.544-3.027-8.743-18.396,11.92-38.846
			C223.741,33.483,186.298,5.606,168.864,5.156z"/>
		<path class="st9" d="M86.273,5.156c1.603-0.041,3.026-0.022,4.287,0.046c4.717,0.256,6.491,6.395,2.601,9.075
			c-3.856,2.657-7.99,7.638-8.165,16.814c-0.33,17.347-8.67,65.604-21.018,61.688c-9.544-3.027,8.743-18.396-11.92-38.846
			C31.397,33.483,68.84,5.606,86.273,5.156z"/>
		<path class="st9" d="M170.141,31.091c-0.175-9.176-4.309-14.157-8.165-16.814c-2.165-1.491-2.571-4.052-1.696-6.076
			c-8.222-4.914-15.993-5.939-21.9-5.655c-7.227,0.347-14.456,0.347-21.683,0c-5.894-0.283-13.646,0.738-21.849,5.626
			c0.891,2.028,0.489,4.607-1.686,6.106c-3.856,2.657-7.99,7.638-8.165,16.814c-0.303,15.931-7.363,57.926-18.077,61.644
			c2.053,10.782,14.074,17.62,28.052,21.544c-12.477-8.967-10.864-28.649,6.646-37.404c13.445-6.722,17.811-20.619,19.223-28.424
			c0.589-3.253,3.391-5.634,6.697-5.634c3.306,0,6.108,2.381,6.697,5.634c1.412,7.804,5.778,21.702,19.223,28.424
			c17.51,8.755,19.123,28.437,6.646,37.404c13.988-3.927,26.015-10.772,28.056-21.566C177.478,88.863,170.444,46.993,170.141,31.091
			z"/>
		<path class="st7" d="M168.864,5.156c-1.603-0.041-3.026-0.022-4.287,0.046c-4.717,0.256-6.491,6.395-2.601,9.075
			c3.856,2.657,7.99,7.638,8.165,16.814c0.33,17.347,8.67,65.604,21.018,61.688c9.544-3.027-8.743-18.396,11.92-38.846
			C223.741,33.483,186.298,5.606,168.864,5.156z"/>
		<path class="st7" d="M86.273,5.156c1.603-0.041,3.026-0.022,4.287,0.046c4.717,0.256,6.491,6.395,2.601,9.075
			c-3.856,2.657-7.99,7.638-8.165,16.814c-0.33,17.347-8.67,65.604-21.018,61.688c-9.544-3.027,8.743-18.396-11.92-38.846
			C31.397,33.483,68.84,5.606,86.273,5.156z"/>
		<path class="st7" d="M170.141,31.091c-0.175-9.176-4.309-14.157-8.165-16.814c-2.165-1.491-2.571-4.052-1.696-6.076
			c-8.222-4.914-15.993-5.939-21.9-5.655c-7.227,0.347-14.456,0.347-21.683,0c-5.894-0.283-13.646,0.738-21.849,5.626
			c0.891,2.028,0.489,4.607-1.686,6.106c-3.856,2.657-7.99,7.638-8.165,16.814c-0.303,15.931-7.363,57.926-18.077,61.644
			c2.053,10.782,14.074,17.62,28.052,21.544c-12.477-8.967-10.864-28.649,6.646-37.404c13.445-6.722,17.811-20.619,19.223-28.424
			c0.589-3.253,3.391-5.634,6.697-5.634c3.306,0,6.108,2.381,6.697,5.634c1.412,7.804,5.778,21.702,19.223,28.424
			c17.51,8.755,19.123,28.437,6.646,37.404c13.988-3.927,26.015-10.772,28.056-21.566C177.478,88.863,170.444,46.993,170.141,31.091
			z"/>
		<path class="st3" d="M139.631,116.024c-7.475-3.794-12.093-11.119-12.093-11.119s-4.814,7.624-12.562,11.342l-1.669,10.643
			c-1.35,8.606,5.303,16.384,14.015,16.384s15.365-7.778,14.015-16.384L139.631,116.024z"/>
		<path class="st2" d="M138.932,115.64c0.233,0.128,0.46,0.262,0.699,0.383l1.704,10.866c0.384,2.448,0.102,4.821-0.672,6.975
			c5.785-3.538,10.474-9.348,13.247-16.492C148.188,119.17,143.088,117.921,138.932,115.64z"/>
		<path class="st2" d="M113.306,126.89l1.669-10.643c0.092-0.044,0.178-0.095,0.27-0.141c-3.896,1.929-8.551,2.89-13.726,1.371
			c2.624,6.703,6.93,12.24,12.252,15.8C113.152,131.283,112.957,129.116,113.306,126.89z"/>
		<path class="st6" d="M113.771,133.278c-5.322-3.56-9.628-9.097-12.252-15.8c-0.761-0.223-1.53-0.483-2.313-0.819
			c-1.557-0.667-2.967-1.469-4.235-2.38c-6.204-1.742-12.016-4.061-16.748-7.04c3.671,14.793,18.485,26.567,37.531,30.049
			C114.892,136.072,114.219,134.722,113.771,133.278z"/>
		<path class="st6" d="M160.104,114.278c-1.268,0.911-2.678,1.713-4.235,2.38c-0.662,0.284-1.313,0.511-1.959,0.714
			c-2.773,7.143-7.461,12.954-13.246,16.492c-0.448,1.246-1.058,2.418-1.822,3.481c19.16-3.395,34.103-15.169,37.842-29.996
			C171.983,110.277,166.232,112.558,160.104,114.278z"/>
		<path class="st7" d="M139.631,116.024c-7.475-3.794-12.093-11.119-12.093-11.119s-4.814,7.624-12.562,11.342l-1.669,10.643
			c-1.35,8.606,5.303,16.384,14.015,16.384s15.365-7.778,14.015-16.384L139.631,116.024z"/>
		<path class="st7" d="M138.932,115.64c0.233,0.128,0.46,0.262,0.699,0.383l1.704,10.866c0.384,2.448,0.102,4.821-0.672,6.975
			c5.785-3.538,10.474-9.348,13.247-16.492C148.188,119.17,143.088,117.921,138.932,115.64z"/>
		<path class="st7" d="M113.306,126.89l1.669-10.643c0.092-0.044,0.178-0.095,0.27-0.141c-3.896,1.929-8.551,2.89-13.726,1.371
			c2.624,6.703,6.93,12.24,12.252,15.8C113.152,131.283,112.957,129.116,113.306,126.89z"/>
		<path class="st7" d="M148.36,55.928c-0.012-3.751,3.019-6.801,6.769-6.813c3.751-0.012,6.801,3.019,6.813,6.769"/>
		<path class="st7" d="M93.306,55.906c0-3.751,3.041-6.791,6.791-6.791c3.751,0,6.791,3.041,6.791,6.791"/>
		<path class="st7" d="M113.771,133.278c-5.322-3.56-9.628-9.097-12.252-15.8c-0.761-0.223-1.53-0.483-2.313-0.819
			c-1.557-0.667-2.967-1.469-4.235-2.38c-6.204-1.742-12.016-4.061-16.748-7.04c3.671,14.793,18.485,26.567,37.531,30.049
			C114.892,136.072,114.219,134.722,113.771,133.278z"/>
		<path class="st7" d="M160.104,114.278c-1.268,0.911-2.678,1.713-4.235,2.38c-0.662,0.284-1.313,0.511-1.959,0.714
			c-2.773,7.143-7.461,12.954-13.246,16.492c-0.448,1.246-1.058,2.418-1.822,3.481c19.16-3.395,34.103-15.169,37.842-29.996
			C171.983,110.277,166.232,112.558,160.104,114.278z"/>
		<path class="st9" d="M233.019,150.657l-3.171-2.035c-0.323-0.207-0.383-0.649-0.137-0.943
			c15.061-18.009,8.359-38.412,6.992-42.028c-0.121-0.32-0.469-0.481-0.794-0.374l-2.806,0.924c-0.363,0.12-0.743-0.113-0.818-0.488
			c-3.18-15.854-15.307-20.393-19.083-21.436c-0.492-0.136-0.922,0.332-0.764,0.817c10.528,32.294-11.219,56.389-24.338,67.421
			c0.145,1.31,0.274,2.636,0.385,3.978c8.776-0.085,17.431,1.993,22.347,8.954c14.25-4.857,20.714-11.848,22.344-13.856
			C233.414,151.294,233.339,150.862,233.019,150.657z"/>
		<path class="st7" d="M233.019,150.657l-3.171-2.035c-0.323-0.207-0.383-0.649-0.137-0.943
			c15.061-18.009,8.359-38.412,6.992-42.028c-0.121-0.32-0.469-0.481-0.794-0.374l-2.806,0.924c-0.363,0.12-0.743-0.113-0.818-0.488
			c-3.18-15.854-15.307-20.393-19.083-21.436c-0.492-0.136-0.922,0.332-0.764,0.817c10.528,32.294-11.219,56.389-24.338,67.421
			c0.145,1.31,0.274,2.636,0.385,3.978c8.776-0.085,17.431,1.993,22.347,8.954c14.25-4.857,20.714-11.848,22.344-13.856
			C233.414,151.294,233.339,150.862,233.019,150.657z"/>
		<path class="st1" d="M143.377,247.3c0.321-1.873,0.822-3.889,1.607-5.613c1.25-2.747,1.971-5.682,1.971-8.674v-57.121
			c0-6.868-3.924-12.85-9.755-16.088c-2.918-1.343-6.181-2.119-9.631-2.17c-3.45,0.051-6.713,0.827-9.631,2.17
			c-5.83,3.237-9.755,9.22-9.755,16.088v57.121c0,2.992,0.721,5.927,1.971,8.674c0.784,1.724,1.286,3.74,1.607,5.613
			c0.068,0.395,0.086,0.784,0.064,1.165c4.898,1.758,10.196,2.743,15.744,2.743c5.548,0,10.847-0.984,15.744-2.743
			C143.291,248.084,143.309,247.694,143.377,247.3z"/>
		<path class="st9" d="M196.712,237.78l12.439-29.471c15.293-42.919-2.454-51.994-20.671-51.817
			c1.828,22.015-1.075,48.161-15.846,74.176c-1.763,3.105-0.917,6.942,1.954,9.185c1.8,1.407,3.755,3.182,5.349,5.237
			c2.397,3.088,0.526,7.303-3.108,8.22l0.187,0.188h37.318C218.481,235.816,196.712,237.78,196.712,237.78z"/>
		<path class="st9" d="M75.2,245.09c1.595-2.055,3.549-3.83,5.349-5.237c2.871-2.243,3.717-6.08,1.954-9.185
			c-14.772-26.014-17.674-52.161-15.846-74.176c-18.216-0.177-35.963,8.898-20.671,51.817l12.439,29.471
			c0,0-21.769-1.965-17.622,15.718h37.318l0.187-0.188C74.674,252.393,72.803,248.178,75.2,245.09z"/>
		<g>
			<path class="st9" d="M176.426,108.282c-4.12,14.386-18.828,25.74-37.584,29.064l0-0.001c-2.556,3.56-6.721,5.928-11.521,5.928
				c-4.827,0-9.015-2.394-11.567-5.987l0,0c-18.471-3.376-32.96-14.552-37.167-28.716c-8.561,20.061-24.907,71.338,3.916,122.097
				c1.763,3.105,0.917,6.942-1.954,9.185c-1.8,1.407-3.755,3.182-5.349,5.237c-2.703,3.483,0.016,8.408,4.579,8.408h26.44
				c3.472,0,6.098-2.951,5.542-6.198c-0.321-1.873-0.822-3.889-1.607-5.613c-1.25-2.747-1.971-5.682-1.971-8.674v-57.121
				c0-10.209,8.653-18.492,19.386-18.65c10.733,0.159,19.386,8.441,19.386,18.65v57.121c0,2.992-0.721,5.927-1.971,8.674
				c-0.784,1.724-1.286,3.74-1.607,5.613c-0.556,3.248,2.07,6.198,5.542,6.198h26.44c4.562,0,7.282-4.925,4.579-8.408
				c-1.595-2.055-3.549-3.83-5.349-5.237c-2.871-2.243-3.717-6.08-1.954-9.185C201.599,179.658,184.951,128.131,176.426,108.282z"/>
		</g>
		<path class="st7" d="M196.712,237.78l12.439-29.471c15.293-42.919-2.454-51.994-20.671-51.817
			c1.828,22.015-1.075,48.161-15.846,74.176c-1.763,3.105-0.917,6.942,1.954,9.185c1.8,1.407,3.755,3.182,5.349,5.237
			c2.397,3.088,0.526,7.303-3.108,8.22l0.187,0.188h37.318C218.481,235.816,196.712,237.78,196.712,237.78z"/>
		<path class="st7" d="M75.2,245.09c1.595-2.055,3.549-3.83,5.349-5.237c2.871-2.243,3.717-6.08,1.954-9.185
			c-14.772-26.014-17.674-52.161-15.846-74.176c-18.216-0.177-35.963,8.898-20.671,51.817l12.439,29.471
			c0,0-21.769-1.965-17.622,15.718h37.318l0.187-0.188C74.674,252.393,72.803,248.178,75.2,245.09z"/>
		<path class="st7" d="M143.377,247.3c0.321-1.873,0.822-3.889,1.607-5.613c1.25-2.747,1.971-5.682,1.971-8.674v-57.121
			c0-6.868-3.924-12.85-9.755-16.088c-2.918-1.343-6.181-2.119-9.631-2.17c-3.45,0.051-6.713,0.827-9.631,2.17
			c-5.83,3.237-9.755,9.22-9.755,16.088v57.121c0,2.992,0.721,5.927,1.971,8.674c0.784,1.724,1.286,3.74,1.607,5.613
			c0.068,0.395,0.086,0.784,0.064,1.165c4.898,1.758,10.196,2.743,15.744,2.743c5.548,0,10.847-0.984,15.744-2.743
			C143.291,248.084,143.309,247.694,143.377,247.3z"/>
		<g>
			<path class="st7" d="M176.426,108.282c-4.12,14.386-18.828,25.74-37.584,29.064l0-0.001c-2.556,3.56-6.721,5.928-11.521,5.928
				c-4.827,0-9.015-2.394-11.567-5.987l0,0c-18.471-3.376-32.96-14.552-37.167-28.716c-8.561,20.061-24.907,71.338,3.916,122.097
				c1.763,3.105,0.917,6.942-1.954,9.185c-1.8,1.407-3.755,3.182-5.349,5.237c-2.703,3.483,0.016,8.408,4.579,8.408h26.44
				c3.472,0,6.098-2.951,5.542-6.198c-0.321-1.873-0.822-3.889-1.607-5.613c-1.25-2.747-1.971-5.682-1.971-8.674v-57.121
				c0-10.209,8.653-18.492,19.386-18.65c10.733,0.159,19.386,8.441,19.386,18.65v57.121c0,2.992-0.721,5.927-1.971,8.674
				c-0.784,1.724-1.286,3.74-1.607,5.613c-0.556,3.248,2.07,6.198,5.542,6.198h26.44c4.562,0,7.282-4.925,4.579-8.408
				c-1.595-2.055-3.549-3.83-5.349-5.237c-2.871-2.243-3.717-6.08-1.954-9.185C201.599,179.658,184.951,128.131,176.426,108.282z"/>
		</g>
	</g>
</g>
<g id="Layer_3">
</g>
<g id="Layer_4">
</g>
<g id="Layer_5">
</g>
<g id="Layer_6">
</g>
<g id="Layer_7">
</g>
<g id="Layer_8">
</g>
<g id="Layer_9">
</g>
<g id="Layer_10">
</g>
<g id="Layer_11">
</g>
<g id="Layer_12">
</g>
<g id="Layer_13">
</g>
<g id="Layer_14">
</g>
<g id="Layer_15">
</g>
<g id="Layer_16">
</g>
<g id="Layer_17">
</g>
<g id="Layer_18">
</g>
<g id="Layer_19">
</g>
<g id="Layer_20">
</g>
<g id="Layer_21">
</g>
<g id="Layer_22">
</g>
<g id="Layer_23">
</g>
<g id="Layer_24">
</g>
<g id="Layer_25">
</g>
<g id="Layer_26">
</g>
<g id="Layer_27">
</g>
<g id="Layer_28">
</g>
<g id="Layer_29">
</g>
<g id="Layer_30">
</g>
<g id="Layer_31">
</g>
<g id="Layer_32">
</g>
<g id="Layer_33">
</g>
<g id="Layer_34">
</g>
<g id="Layer_35">
</g>
<g id="Layer_36">
</g>
<g id="Layer_37">
</g>
<g id="Layer_38">
</g>
<g id="Layer_39">
</g>
<g id="Layer_40">
</g>
<g id="Layer_41">
</g>
<g id="Layer_42">
</g>
<g id="Layer_43">
</g>
<g id="Layer_44">
</g>
<g id="Layer_45">
</g>
<g id="Layer_46">
</g>
<g id="Layer_47">
</g>
<g id="Layer_48">
</g>
<g id="Layer_49">
</g>
<g id="Layer_50">
</g>
<g id="Layer_51">
</g>
<g id="Layer_52">
</g>
<g id="Layer_53">
</g>
<g id="Layer_54">
</g>
<g id="Layer_55">
</g>
<g id="Layer_56">
</g>
<g id="Layer_57">
</g>
<g id="Layer_58">
</g>
<g id="Layer_59">
</g>
<g id="Layer_60">
</g>
<g id="Layer_61">
</g>
<g id="Layer_62">
</g>
<g id="Layer_63">
</g>
<g id="Layer_64">
</g>
<g id="Layer_65">
</g>
<g id="Layer_66">
</g>
<g id="Layer_67">
</g>
<g id="Layer_68">
</g>
<g id="Layer_69">
</g>
<g id="Layer_70">
</g>
<g id="Layer_71">
</g>
<g id="Layer_72">
</g>
<g id="Layer_73">
</g>
<g id="Layer_74">
</g>
<g id="Layer_75">
</g>
<g id="Layer_76">
</g>
<g id="Layer_77">
</g>
<g id="Layer_78">
</g>
<g id="Layer_79">
</g>
<g id="Layer_80">
</g>
<g id="Layer_81">
</g>
<g id="Layer_82">
</g>
<g id="Layer_83">
</g>
<g id="Layer_84">
</g>
<g id="Layer_85">
</g>
<g id="Layer_86">
</g>
<g id="Layer_87">
</g>
<g id="Layer_88">
</g>
<g id="Layer_89">
</g>
<g id="Layer_90">
</g>
<g id="Layer_91">
</g>
<g id="Layer_92">
</g>
<g id="Layer_93">
</g>
<g id="Layer_94">
</g>
<g id="Layer_95">
</g>
<g id="Layer_96">
</g>
<g id="Layer_97">
</g>
<g id="Layer_98">
</g>
<g id="Layer_99">
</g>
<g id="Layer_100">
</g>
</svg>
