<?xml version="1.0" encoding="utf-8"?>
<!-- Generator: Adobe Illustrator 22.0.0, SVG Export Plug-In . SVG Version: 6.00 Build 0)  -->
<svg version="1.1" xmlns="http://www.w3.org/2000/svg" xmlns:xlink="http://www.w3.org/1999/xlink" x="0px" y="0px"
	 viewBox="0 0 256 256" style="enable-background:new 0 0 256 256;" xml:space="preserve">
<style type="text/css">
	.st0{fill:#F9BD55;}
	.st1{fill:#F4DBCE;}
	.st2{fill:#52565B;}
	.st3{fill:#FD605B;}
	.st4{fill:#F98080;}
	.st5{fill:#F9E63A;}
	.st6{fill:#039BE6;}
	.st7{fill:none;stroke:#000000;stroke-width:5;stroke-linecap:round;stroke-linejoin:round;stroke-miterlimit:10;}
	.st8{fill:#7D3D1A;}
	.st9{fill:#EAA250;}
	.st10{fill:#DD7F57;}
	.st11{fill:#FFC097;}
	.st12{fill:#F49667;}
	.st13{fill:#F89422;}
	.st14{fill:#E3E4E5;}
	.st15{fill:#6E7175;}
	.st16{fill:#46BAF9;}
	.st17{fill:#D9F3FF;}
	.st18{fill:#828487;}
	.st19{fill:#A8AEB2;}
	.st20{fill:#C9CDD1;}
	.st21{fill:#8CD8F9;}
	.st22{fill:#1AA7E5;}
	.st23{fill:#ACE7FC;}
	.st24{fill:#FFFFFF;}
	.st25{fill:#9E512B;}
	.st26{fill:#7ED5FC;}
	.st27{fill:#7CCC4E;}
	.st28{fill:#3AA03A;}
	.st29{fill:#FCB1B1;}
	.st30{fill:#F76E23;}
	.st31{fill:#C16A44;}
	.st32{fill:#B796EA;}
</style>
<g id="Layer_1">
</g>
<g id="Layer_2">
</g>
<g id="Layer_3">
</g>
<g id="Layer_4">
</g>
<g id="Layer_5">
</g>
<g id="Layer_6">
</g>
<g id="Layer_7">
</g>
<g id="Layer_8">
</g>
<g id="Layer_9">
</g>
<g id="Layer_10">
</g>
<g id="Layer_11">
</g>
<g id="Layer_12">
</g>
<g id="Layer_13">
</g>
<g id="Layer_14">
</g>
<g id="Layer_15">
</g>
<g id="Layer_16">
</g>
<g id="Layer_17">
</g>
<g id="Layer_18">
</g>
<g id="Layer_19">
</g>
<g id="Layer_20">
</g>
<g id="Layer_21">
</g>
<g id="Layer_22">
</g>
<g id="Layer_23">
</g>
<g id="Layer_24">
</g>
<g id="Layer_25">
</g>
<g id="Layer_26">
</g>
<g id="Layer_27">
</g>
<g id="Layer_28">
</g>
<g id="Layer_29">
</g>
<g id="Layer_30">
</g>
<g id="Layer_31">
</g>
<g id="Layer_32">
</g>
<g id="Layer_33">
</g>
<g id="Layer_34">
</g>
<g id="Layer_35">
</g>
<g id="Layer_36">
</g>
<g id="Layer_37">
</g>
<g id="Layer_38">
</g>
<g id="Layer_39">
</g>
<g id="Layer_40">
</g>
<g id="Layer_41">
</g>
<g id="Layer_42">
</g>
<g id="Layer_43">
</g>
<g id="Layer_44">
</g>
<g id="Layer_45">
</g>
<g id="Layer_46">
</g>
<g id="Layer_47">
</g>
<g id="Layer_48">
</g>
<g id="Layer_49">
</g>
<g id="Layer_50">
</g>
<g id="Layer_51">
</g>
<g id="Layer_52">
</g>
<g id="Layer_53">
</g>
<g id="Layer_54">
</g>
<g id="Layer_55">
</g>
<g id="Layer_56">
</g>
<g id="Layer_57">
</g>
<g id="Layer_58">
</g>
<g id="Layer_59">
</g>
<g id="Layer_60">
</g>
<g id="Layer_61">
</g>
<g id="Layer_62">
</g>
<g id="Layer_63">
</g>
<g id="Layer_64">
</g>
<g id="Layer_65">
</g>
<g id="Layer_66">
</g>
<g id="Layer_67">
</g>
<g id="Layer_68">
</g>
<g id="Layer_69">
</g>
<g id="Layer_70">
	<path class="st14" d="M192.007,178.044c12.552-4.032,16.736-21.169,16.736-21.169c-7.322,2.016-14.644,1.008-14.644,1.008
		l5.753-5.544c-34.518,5.04-26.15-14.113-57.529-31.249c-15.595-8.517-21.37-22.255-23.236-33.925
		c-1.117-6.987,0.94-14.096,5.622-19.539c3.394-3.944,7.049-8.453,9.928-14.819c8.414-18.598-3.633-30.621-3.633-30.621
		c3.009-0.549,4.811-6.565,4.811-6.565c-3.009,0.549-6.622-1.637-6.622-1.637C134.003,7.42,129.786,2.5,129.786,2.5
		c-1.801,6.016-11.433,4.928-38.516,9.866c-22.155,4.039-21.741,24.898-20.857,32.355c0.156,1.317,1.282,2.386,2.728,2.553
		c2.869,0.332,4.144,2.457,4.64,3.655c0.2,0.483,0.674,0.801,1.241,0.831c8.615,0.461,16.242,7.075,7.232,17.534
		c-0.511,0.593-0.356,1.401,0.289,1.875c8.578,6.301,6.544,17.898,4.396,24.612c-2.573,5.527-6.887,12.121-8.761,15.733
		c-9.414,18.145-13.598,60.482,28.242,84.675c3.023,1.748,6.078,3.149,9.146,4.263c1.576,2.737,3.094,5.514,4.531,8.34
		c0.529,1.041,1.068,2.114,1.909,2.876c0.841,0.762,2.07,1.149,3.055,0.626c0.398-0.212,0.737-0.558,1.165-0.685
		c1.89-0.559,3.208,3.342,5.022,2.541c0.403-0.178,0.695-0.569,1.079-0.794c1.062-0.621,2.32,0.197,3.335,0.905
		c1.015,0.707,2.474,1.283,3.316,0.346c0.305-0.339,0.445-0.809,0.571-1.263c0.882-3.168,1.541-6.408,1.977-9.682
		c29.725-2.553,54.85-23.602,54.85-23.602L192.007,178.044z"/>
	<path class="st0" d="M88.291,55.568c-3.127-3.122-7.385-3.707-9.269-3.808c-0.567-0.03-1.04-0.348-1.241-0.831
		c-0.496-1.197-1.771-3.323-4.64-3.655c-0.715-0.083-1.348-0.388-1.828-0.832c-2.265,2.145-9.872,8.659-20.879,10.909
		c-3.508,0.717-4.365,5.035-1.279,6.713c7.634,4.149,21.208,6.78,40.022-7.425C88.924,56.275,88.64,55.916,88.291,55.568z"/>
	<g>
		<path class="st0" d="M86.254,69.294c1.994-2.314,6.123-8.042,2.923-12.656c-4.125,3.114-7.981,5.379-11.595,7.037
			c-3.694,3.699-5.833,7.405-6.093,9.825c-0.238,2.219,2.718,3.542,4.574,2.084c3.34-2.624,7.048-4.1,10.043-4.948
			C85.886,70.204,85.903,69.701,86.254,69.294z"/>
	</g>
	<path class="st0" d="M142.289,233.537c-0.972-1.305-1.306-2.939-1.615-4.518c-0.376-1.921,0.333-8.314,0.859-13.954
		c-0.643-0.086-1.323-0.421-1.874-0.805c-1.015-0.707-2.273-1.526-3.335-0.905c-0.384,0.224-0.675,0.615-1.079,0.794
		c-1.814,0.802-3.132-3.1-5.022-2.541c-0.427,0.126-0.767,0.473-1.165,0.685c-0.326,0.173-0.679,0.239-1.036,0.232
		c0.969,4.455,2.188,9.61,2.203,10.899c0.025,2.184-0.353,4.486-1.771,6.189c-1.368,1.643-3.499,2.495-5.581,3.137
		c-5.936,1.831-12.262,2.479-18.465,1.893c-0.658-0.063-1.341-0.136-1.967,0.069c-0.627,0.205-1.178,0.782-1.099,1.415
		c0.127,1.021,1.583,1.304,2.162,2.169c0.593,0.886,0.051,2.125-0.818,2.766c-0.869,0.641-1.975,0.88-2.991,1.273
		c-1.016,0.393-2.044,1.056-2.306,2.08c-0.101,0.392-0.072,0.827,0.147,1.172c0.378,0.596,1.181,0.769,1.9,0.856
		c2.649,0.321,5.438,0.238,7.835,1.37c0.258,0.122,0.524,0.273,0.646,0.523c0.358,0.739-0.726,1.299-1.525,1.568
		c-0.77,0.259-1.494,0.642-2.134,1.129c-0.39,0.297-0.775,0.684-0.796,1.163c-0.025,0.545,0.454,1.016,0.991,1.189
		c0.537,0.172,1.121,0.114,1.684,0.052c11.873-1.294,24.045-3.138,34.301-9.045c1.418-0.817,2.832-1.747,3.71-3.095
		c1.074-1.649,1.168-3.898,0.069-5.531C143.671,234.955,142.876,234.324,142.289,233.537z"/>
	<path class="st0" d="M104.259,251.035c0.64-0.487,1.364-0.87,2.134-1.129c0.799-0.268,1.883-0.828,1.525-1.568
		c-0.121-0.251-0.388-0.401-0.646-0.523c-2.397-1.132-5.186-1.049-7.835-1.37c-0.719-0.087-1.523-0.261-1.9-0.856
		c-0.219-0.345-0.248-0.78-0.147-1.172c0.262-1.024,1.291-1.687,2.306-2.08c1.015-0.393,2.122-0.632,2.991-1.273
		c0.869-0.641,1.412-1.88,0.818-2.766c-0.579-0.865-2.035-1.148-2.162-2.169c-0.079-0.633,0.472-1.21,1.099-1.415
		c0.626-0.205,1.309-0.132,1.967-0.069c6.203,0.586,12.529-0.063,18.465-1.893c0.327-0.101,0.654-0.21,0.981-0.323
		c-0.495-1.065-0.737-2.252-0.964-3.409c-0.455-2.324,0.678-11.192,1.154-17.353c-0.853,0.796-2.237,0.251-3.214-0.43
		c-1.015-0.707-2.273-1.526-3.335-0.905c-0.384,0.224-0.675,0.616-1.079,0.794c-1.814,0.802-3.132-3.1-5.022-2.541
		c-0.427,0.126-0.767,0.473-1.165,0.685c-0.201,0.107-0.414,0.167-0.63,0.203c0.948,4.78,2.825,12.351,2.844,13.953
		c0.025,2.184-0.353,4.486-1.771,6.189c-1.368,1.643-3.499,2.495-5.581,3.137c-5.936,1.831-12.262,2.479-18.465,1.893
		c-0.658-0.063-1.341-0.136-1.967,0.069c-0.627,0.205-1.178,0.782-1.099,1.415c0.127,1.021,1.583,1.304,2.162,2.169
		c0.593,0.886,0.051,2.125-0.818,2.766c-0.869,0.641-1.975,0.88-2.991,1.273c-1.016,0.393-2.044,1.056-2.306,2.08
		c-0.101,0.392-0.072,0.827,0.147,1.172c0.378,0.596,1.181,0.769,1.9,0.856c2.649,0.321,5.438,0.238,7.835,1.37
		c0.258,0.122,0.524,0.273,0.646,0.523c0.358,0.739-0.726,1.299-1.525,1.568c-0.77,0.259-1.494,0.642-2.134,1.129
		c-0.39,0.297-0.775,0.684-0.796,1.163c-0.025,0.545,0.454,1.016,0.991,1.189c0.537,0.172,1.121,0.114,1.684,0.052
		c5.296-0.577,10.65-1.266,15.868-2.374C104.236,251.055,104.247,251.044,104.259,251.035z"/>
	<path class="st7" d="M88.291,55.568c-3.127-3.122-7.385-3.707-9.269-3.808c-0.567-0.03-1.04-0.348-1.241-0.831
		c-0.496-1.197-1.771-3.323-4.64-3.655c-0.715-0.083-1.348-0.388-1.828-0.832c-2.265,2.145-9.872,8.659-20.879,10.909
		c-3.508,0.717-4.365,5.035-1.279,6.713c7.634,4.149,21.208,6.78,40.022-7.425C88.924,56.275,88.64,55.916,88.291,55.568z"/>
	<g>
		<path class="st7" d="M86.254,69.294c1.994-2.314,6.123-8.042,2.923-12.656c-4.125,3.114-7.981,5.379-11.595,7.037
			c-3.694,3.699-5.833,7.405-6.093,9.825c-0.238,2.219,2.718,3.542,4.574,2.084c3.34-2.624,7.048-4.1,10.043-4.948
			C85.886,70.204,85.903,69.701,86.254,69.294z"/>
	</g>
	<path class="st7" d="M142.289,233.537c-0.972-1.305-1.306-2.939-1.615-4.518c-0.376-1.921,0.333-8.314,0.859-13.954
		c-0.643-0.086-1.323-0.421-1.874-0.805c-1.015-0.707-2.273-1.526-3.335-0.905c-0.384,0.224-0.675,0.615-1.079,0.794
		c-1.814,0.802-3.132-3.1-5.022-2.541c-0.427,0.126-0.767,0.473-1.165,0.685c-0.326,0.173-0.679,0.239-1.036,0.232
		c0.969,4.455,2.188,9.61,2.203,10.899c0.025,2.184-0.353,4.486-1.771,6.189c-1.368,1.643-3.499,2.495-5.581,3.137
		c-5.936,1.831-12.262,2.479-18.465,1.893c-0.658-0.063-1.341-0.136-1.967,0.069c-0.627,0.205-1.178,0.782-1.099,1.415
		c0.127,1.021,1.583,1.304,2.162,2.169c0.593,0.886,0.051,2.125-0.818,2.766c-0.869,0.641-1.975,0.88-2.991,1.273
		c-1.016,0.393-2.044,1.056-2.306,2.08c-0.101,0.392-0.072,0.827,0.147,1.172c0.378,0.596,1.181,0.769,1.9,0.856
		c2.649,0.321,5.438,0.238,7.835,1.37c0.258,0.122,0.524,0.273,0.646,0.523c0.358,0.739-0.726,1.299-1.525,1.568
		c-0.77,0.259-1.494,0.642-2.134,1.129c-0.39,0.297-0.775,0.684-0.796,1.163c-0.025,0.545,0.454,1.016,0.991,1.189
		c0.537,0.172,1.121,0.114,1.684,0.052c11.873-1.294,24.045-3.138,34.301-9.045c1.418-0.817,2.832-1.747,3.71-3.095
		c1.074-1.649,1.168-3.898,0.069-5.531C143.671,234.955,142.876,234.324,142.289,233.537z"/>
	<path class="st7" d="M104.259,251.035c0.64-0.487,1.364-0.87,2.134-1.129c0.799-0.268,1.883-0.828,1.525-1.568
		c-0.121-0.251-0.388-0.401-0.646-0.523c-2.397-1.132-5.186-1.049-7.835-1.37c-0.719-0.087-1.523-0.261-1.9-0.856
		c-0.219-0.345-0.248-0.78-0.147-1.172c0.262-1.024,1.291-1.687,2.306-2.08c1.015-0.393,2.122-0.632,2.991-1.273
		c0.869-0.641,1.412-1.88,0.818-2.766c-0.579-0.865-2.035-1.148-2.162-2.169c-0.079-0.633,0.472-1.21,1.099-1.415
		c0.626-0.205,1.309-0.132,1.967-0.069c6.203,0.586,12.529-0.063,18.465-1.893c0.327-0.101,0.654-0.21,0.981-0.323
		c-0.495-1.065-0.737-2.252-0.964-3.409c-0.455-2.324,0.678-11.192,1.154-17.353c-0.853,0.796-2.237,0.251-3.214-0.43
		c-1.015-0.707-2.273-1.526-3.335-0.905c-0.384,0.224-0.675,0.616-1.079,0.794c-1.814,0.802-3.132-3.1-5.022-2.541
		c-0.427,0.126-0.767,0.473-1.165,0.685c-0.201,0.107-0.414,0.167-0.63,0.203c0.948,4.78,2.825,12.351,2.844,13.953
		c0.025,2.184-0.353,4.486-1.771,6.189c-1.368,1.643-3.499,2.495-5.581,3.137c-5.936,1.831-12.262,2.479-18.465,1.893
		c-0.658-0.063-1.341-0.136-1.967,0.069c-0.627,0.205-1.178,0.782-1.099,1.415c0.127,1.021,1.583,1.304,2.162,2.169
		c0.593,0.886,0.051,2.125-0.818,2.766c-0.869,0.641-1.975,0.88-2.991,1.273c-1.016,0.393-2.044,1.056-2.306,2.08
		c-0.101,0.392-0.072,0.827,0.147,1.172c0.378,0.596,1.181,0.769,1.9,0.856c2.649,0.321,5.438,0.238,7.835,1.37
		c0.258,0.122,0.524,0.273,0.646,0.523c0.358,0.739-0.726,1.299-1.525,1.568c-0.77,0.259-1.494,0.642-2.134,1.129
		c-0.39,0.297-0.775,0.684-0.796,1.163c-0.025,0.545,0.454,1.016,0.991,1.189c0.537,0.172,1.121,0.114,1.684,0.052
		c5.296-0.577,10.65-1.266,15.868-2.374C104.236,251.055,104.247,251.044,104.259,251.035z"/>
	<path class="st14" d="M124.096,208.792c-1.436-2.826-2.955-5.603-4.531-8.34c-3.068-1.114-6.123-2.515-9.146-4.263
		c-3.399-1.966-6.49-4.053-9.304-6.235c1.571,5.142,1.739,11.066,4.152,15.814c0.529,1.041,1.068,2.114,1.909,2.876
		c0.841,0.762,2.07,1.149,3.055,0.626c0.398-0.212,0.737-0.558,1.165-0.685c1.89-0.559,3.208,3.342,5.022,2.541
		c0.403-0.178,0.695-0.569,1.079-0.794c1.062-0.621,2.32,0.197,3.335,0.905c1.015,0.707,2.474,1.283,3.316,0.346
		c0.305-0.339,0.445-0.809,0.571-1.263c0.023-0.082,0.042-0.166,0.064-0.248C124.541,209.654,124.315,209.222,124.096,208.792z"/>
	<line class="st7" x1="71.702" y1="57.765" x2="74.184" y2="56.124"/>
	<path class="st7" d="M113.372,190.439c3.916,5.873,7.499,12.006,10.724,18.352c0.529,1.041,1.068,2.114,1.909,2.876
		c0.841,0.762,2.07,1.149,3.055,0.626c0.398-0.212,0.737-0.558,1.165-0.685c1.89-0.559,3.208,3.342,5.022,2.541
		c0.404-0.178,0.695-0.569,1.079-0.794c1.062-0.621,2.32,0.197,3.335,0.905c1.015,0.707,2.474,1.283,3.316,0.346
		c0.305-0.339,0.445-0.809,0.571-1.263c1.742-6.26,2.625-12.8,2.61-19.338"/>
	<path class="st7" d="M192.007,178.044c12.552-4.032,16.736-21.169,16.736-21.169c-7.322,2.016-14.644,1.008-14.644,1.008
		l5.753-5.544c-34.518,5.04-26.15-14.113-57.529-31.249c-15.595-8.517-21.37-22.255-23.236-33.925
		c-1.117-6.987,0.94-14.096,5.622-19.539c3.394-3.944,7.049-8.453,9.928-14.819c8.414-18.598-3.633-30.621-3.633-30.621
		c3.009-0.549,4.811-6.565,4.811-6.565c-3.009,0.549-6.622-1.637-6.622-1.637C134.003,7.42,129.786,2.5,129.786,2.5
		c-1.801,6.016-11.433,4.928-38.516,9.866c-22.155,4.039-21.741,24.898-20.857,32.355c0.156,1.317,1.282,2.386,2.728,2.553
		c2.869,0.332,4.144,2.457,4.64,3.655c0.2,0.483,0.674,0.801,1.241,0.831c8.615,0.461,16.242,7.075,7.232,17.534
		c-0.511,0.593-0.356,1.401,0.289,1.875c8.578,6.301,6.544,17.898,4.396,24.612c-2.573,5.527-6.887,12.121-8.761,15.733
		c-9.414,18.145-13.598,60.482,28.242,84.675c3.023,1.748,6.078,3.149,9.146,4.263c1.576,2.737,3.094,5.514,4.531,8.34
		c0.529,1.041,1.068,2.114,1.909,2.876c0.841,0.762,2.07,1.149,3.055,0.626c0.398-0.212,0.737-0.558,1.165-0.685
		c1.89-0.559,3.208,3.342,5.022,2.541c0.403-0.178,0.695-0.569,1.079-0.794c1.062-0.621,2.32,0.197,3.335,0.905
		c1.015,0.707,2.474,1.283,3.316,0.346c0.305-0.339,0.445-0.809,0.571-1.263c0.882-3.168,1.541-6.408,1.977-9.682
		c29.725-2.553,54.85-23.602,54.85-23.602L192.007,178.044z"/>
	<path class="st7" d="M124.096,208.792c-1.436-2.826-2.955-5.603-4.531-8.34c-3.068-1.114-6.123-2.515-9.146-4.263
		c-3.399-1.966-6.49-4.053-9.304-6.235c1.571,5.142,1.739,11.066,4.152,15.814c0.529,1.041,1.068,2.114,1.909,2.876
		c0.841,0.762,2.07,1.149,3.055,0.626c0.398-0.212,0.737-0.558,1.165-0.685c1.89-0.559,3.208,3.342,5.022,2.541
		c0.403-0.178,0.695-0.569,1.079-0.794c1.062-0.621,2.32,0.197,3.335,0.905c1.015,0.707,2.474,1.283,3.316,0.346
		c0.305-0.339,0.445-0.809,0.571-1.263c0.023-0.082,0.042-0.166,0.064-0.248C124.541,209.654,124.315,209.222,124.096,208.792z"/>
	<path class="st7" d="M86.498,38.475c-0.01-3.071,2.471-5.568,5.542-5.578c3.071-0.01,5.568,2.471,5.578,5.542"/>
	<path class="st14" d="M127.779,109.532c-10.83-5.796-24.654-3.347-32.566,5.838c-4.045,4.696-7.281,11.642-7.281,21.848
		c0,26.014,37.267,52.949,84.401,47.358c2.948-0.35,4.096-3.894,1.87-5.789c-2.872-2.445-7.017-5.316-12.344-7.319
		c0,0,0.642-12.391-11.99-15.768c0,0,3.437-13.945-11.206-15.961C138.662,139.738,143.996,118.211,127.779,109.532z"/>
	<path class="st14" d="M127.779,109.532c-10.83-5.796-24.654-3.347-32.566,5.838c-4.045,4.696-7.281,11.642-7.281,21.848
		c0,26.014,37.267,52.949,84.401,47.358c2.948-0.35,4.096-3.894,1.87-5.789c-2.872-2.445-7.017-5.316-12.344-7.319
		c0,0,0.642-12.391-11.99-15.768c0,0,3.437-13.945-11.206-15.961C138.662,139.738,143.996,118.211,127.779,109.532z"/>
	<path class="st7" d="M127.779,109.532c-10.83-5.796-24.654-3.347-32.566,5.838c-4.045,4.696-7.281,11.642-7.281,21.848
		c0,26.014,37.267,52.949,84.401,47.358c2.948-0.35,4.096-3.894,1.87-5.789c-2.872-2.445-7.017-5.316-12.344-7.319
		c0,0,0.642-12.391-11.99-15.768c0,0,3.437-13.945-11.206-15.961C138.662,139.738,143.996,118.211,127.779,109.532z"/>
	<path class="st7" d="M161.858,171.467c-3.956-1.487-8.562-2.496-13.783-2.496"/>
	<path class="st7" d="M149.868,155.7c-1.992-0.532-4.315-0.841-7.022-0.841"/>
</g>
<g id="Layer_71">
</g>
<g id="Layer_72">
</g>
<g id="Layer_73">
</g>
<g id="Layer_74">
</g>
<g id="Layer_75">
</g>
<g id="Layer_76">
</g>
<g id="Layer_77">
</g>
<g id="Layer_78">
</g>
<g id="Layer_79">
</g>
<g id="Layer_80">
</g>
<g id="Layer_81">
</g>
<g id="Layer_82">
</g>
<g id="Layer_83">
</g>
<g id="Layer_84">
</g>
<g id="Layer_85">
</g>
<g id="Layer_86">
</g>
<g id="Layer_87">
</g>
<g id="Layer_88">
</g>
<g id="Layer_89">
</g>
<g id="Layer_90">
</g>
<g id="Layer_91">
</g>
<g id="Layer_92">
</g>
<g id="Layer_93">
</g>
<g id="Layer_94">
</g>
<g id="Layer_95">
</g>
<g id="Layer_96">
</g>
<g id="Layer_97">
</g>
<g id="Layer_98">
</g>
<g id="Layer_99">
</g>
<g id="Layer_100">
</g>
</svg>
