<?xml version="1.0" encoding="utf-8"?>
<!-- Generator: Adobe Illustrator 22.0.0, SVG Export Plug-In . SVG Version: 6.00 Build 0)  -->
<svg version="1.1" xmlns="http://www.w3.org/2000/svg" xmlns:xlink="http://www.w3.org/1999/xlink" x="0px" y="0px"
	 viewBox="0 0 256 256" style="enable-background:new 0 0 256 256;" xml:space="preserve">
<style type="text/css">
	.st0{fill:#F9BD55;}
	.st1{fill:#F4DBCE;}
	.st2{fill:#52565B;}
	.st3{fill:#FD605B;}
	.st4{fill:#F98080;}
	.st5{fill:#F9E63A;}
	.st6{fill:#039BE6;}
	.st7{fill:none;stroke:#000000;stroke-width:5;stroke-linecap:round;stroke-linejoin:round;stroke-miterlimit:10;}
	.st8{fill:#7D3D1A;}
	.st9{fill:#EAA250;}
	.st10{fill:#DD7F57;}
	.st11{fill:#FFC097;}
	.st12{fill:#F49667;}
	.st13{fill:#F89422;}
	.st14{fill:#E3E4E5;}
	.st15{fill:#6E7175;}
	.st16{fill:#46BAF9;}
	.st17{fill:#D9F3FF;}
	.st18{fill:#828487;}
	.st19{fill:#A8AEB2;}
	.st20{fill:#C9CDD1;}
	.st21{fill:#8CD8F9;}
	.st22{fill:#1AA7E5;}
	.st23{fill:#ACE7FC;}
	.st24{fill:#FFFFFF;}
	.st25{fill:#9E512B;}
	.st26{fill:#7ED5FC;}
	.st27{fill:#7CCC4E;}
	.st28{fill:#3AA03A;}
	.st29{fill:#FCB1B1;}
	.st30{fill:#F76E23;}
	.st31{fill:#C16A44;}
	.st32{fill:#B796EA;}
</style>
<g id="Layer_1">
</g>
<g id="Layer_2">
</g>
<g id="Layer_3">
</g>
<g id="Layer_4">
</g>
<g id="Layer_5">
</g>
<g id="Layer_6">
</g>
<g id="Layer_7">
</g>
<g id="Layer_8">
</g>
<g id="Layer_9">
</g>
<g id="Layer_10">
</g>
<g id="Layer_11">
</g>
<g id="Layer_12">
</g>
<g id="Layer_13">
</g>
<g id="Layer_14">
</g>
<g id="Layer_15">
</g>
<g id="Layer_16">
</g>
<g id="Layer_17">
</g>
<g id="Layer_18">
</g>
<g id="Layer_19">
</g>
<g id="Layer_20">
</g>
<g id="Layer_21">
</g>
<g id="Layer_22">
</g>
<g id="Layer_23">
</g>
<g id="Layer_24">
</g>
<g id="Layer_25">
</g>
<g id="Layer_26">
</g>
<g id="Layer_27">
</g>
<g id="Layer_28">
</g>
<g id="Layer_29">
</g>
<g id="Layer_30">
</g>
<g id="Layer_31">
</g>
<g id="Layer_32">
</g>
<g id="Layer_33">
</g>
<g id="Layer_34">
</g>
<g id="Layer_35">
</g>
<g id="Layer_36">
</g>
<g id="Layer_37">
</g>
<g id="Layer_38">
</g>
<g id="Layer_39">
</g>
<g id="Layer_40">
</g>
<g id="Layer_41">
</g>
<g id="Layer_42">
</g>
<g id="Layer_43">
</g>
<g id="Layer_44">
</g>
<g id="Layer_45">
</g>
<g id="Layer_46">
</g>
<g id="Layer_47">
</g>
<g id="Layer_48">
</g>
<g id="Layer_49">
</g>
<g id="Layer_50">
</g>
<g id="Layer_51">
</g>
<g id="Layer_52">
</g>
<g id="Layer_53">
</g>
<g id="Layer_54">
</g>
<g id="Layer_55">
</g>
<g id="Layer_56">
</g>
<g id="Layer_57">
</g>
<g id="Layer_58">
</g>
<g id="Layer_59">
</g>
<g id="Layer_60">
</g>
<g id="Layer_61">
</g>
<g id="Layer_62">
</g>
<g id="Layer_63">
</g>
<g id="Layer_64">
</g>
<g id="Layer_65">
</g>
<g id="Layer_66">
</g>
<g id="Layer_67">
</g>
<g id="Layer_68">
</g>
<g id="Layer_69">
</g>
<g id="Layer_70">
</g>
<g id="Layer_71">
	<g>
		<path class="st31" d="M137.72,86.977C123.8,69.926,108.273,63.726,96.406,61.742c-11.687-1.954-23.283,4.113-28.228,14.881
			c-5.91,12.871-10.632,32.234,1.357,50.291c19.769,29.772,69.397,58.262,122.416,64.765c3.09,0.379,5.644-2.402,4.988-5.477
			C188.93,148.672,164.838,120.195,137.72,86.977z"/>
		<path class="st8" d="M160.516,185.22c-40.377-11.598-75.197-34.537-90.98-58.306c-11.99-18.057-7.268-37.42-1.357-50.291
			c0.413-0.899,0.888-1.752,1.389-2.583c-3.552-0.802-5.126-1.906-5.126-1.906l0.142,5.168c-7.235,0.199-13.635-6.864-13.635-6.864
			l-3.935,7.348c-5.31-5.025-6.514-11.198-6.514-11.198l-7.064,6.4c-0.022-0.811,0.014-1.609,0.085-2.39
			c-6.825,11.922-11.215,36.32,10.035,69.339c13.45,20.9,35.666,35.612,57.263,45.567c1.85,4.324,3.522,8.871,4.333,12.723
			c2.38,11.312,7.633,14.27,7.633,14.27l1.896-6.258c0,0,3.214,4.049,8.439,5.973l0.92-4.163l4.191,1.953
			c0,0,0.153-7.881,1.218-13.603c7.325,2.253,13.924,3.903,19.239,5.015c6.846,1.432,13.181-4.134,12.577-11.102
			C161.129,188.755,160.888,187.054,160.516,185.22z"/>
		<path class="st31" d="M239.61,206.869c-6.437-3.036-12.653-6.539-18.583-10.475c-10.111-6.709-18.005-15.284-27.058-21.474
			c1.147,3.677,2.148,7.43,2.97,11.282c0.656,3.076-1.898,5.856-4.988,5.477c-10.691-1.311-21.237-3.53-31.435-6.459
			c0.372,1.834,0.612,3.535,0.748,5.095c0.604,6.968-5.73,12.534-12.577,11.102c-5.315-1.112-11.914-2.762-19.239-5.015
			c-0.157,0.842-0.292,1.732-0.411,2.635c7.488,11.87,16.879,21.806,16.879,21.806l4.132-7.302
			c5.395,8.126,10.677,12.117,15.226,15.471c0.485-3.785,0.349-8.712,0.367-11.681c6.843,7.649,18.51,9.933,28.773,10.064
			c-2.507-2.711-4.464-7.653-5.387-11.228c11.109,4.168,23.014,6.798,31.321,3.637c-3.512-3.382-8.261-6.939-10.442-11.016
			C220.673,209.716,229.03,209.07,239.61,206.869z"/>
		<path class="st8" d="M100.819,185.507c-8.884-4.095-17.863-9.011-26.304-14.816c0.304,2.545,0.953,5.051,1.99,7.432
			c1.985,4.559,3.815,9.436,4.676,13.527c2.38,11.312,7.633,14.27,7.633,14.27l1.896-6.258c0,0,3.214,4.049,8.439,5.973l0.92-4.163
			l4.191,1.953c0,0,0.065-3.322,0.4-7.215C103.761,192.837,102.355,189.098,100.819,185.507z"/>
		<path class="st14" d="M64.441,72.135c0,0,1.574,1.104,5.126,1.906c3.717-6.16,9.757-10.414,16.592-11.981
			c-0.485-0.866-0.954-1.825-1.39-2.896l10.307-1.318c0,0-8.382-3.906-11.682-11.055c0,0,5.168-0.142,9.245-2.323
			c0,0-7.32-2.901-11.625-8.988c0,0,6.201-0.171,9.245-2.323c0,0-9.415-3.878-11.653-10.022c4.134-0.114,7.121-4.333,7.121-4.333
			s-3.101,0.085-8.496-8.04c-5.395-8.126-19.362-8.258-19.362-8.258c-15.095,0.416-20.2,8.503-21.753,12.221
			c-0.405,0.968-0.04,2.08,0.868,2.606c1.859,1.078,4.986,3.309,6.483,6.773c1.385,3.203,5.149,4.309,7.767,4.688
			c1.447,0.21,2.248,1.762,1.614,3.079c-1.491,3.099-4.727,7.711-11.026,8.699c-1.089,0.171-1.806,1.217-1.677,2.311
			c0.385,3.272,0.539,9.866-2.943,16.561c0,0-3.963,6.315-3.764,13.549l7.064-6.4c0,0,1.204,6.173,6.514,11.198l3.935-7.348
			c0,0,6.4,7.064,13.635,6.864L64.441,72.135z"/>
		<path class="st1" d="M97.047,241.894c0,0-6.29,3.006-7.73,9.296c-0.391,1.71,1.566,2.977,2.971,1.928
			c3.204-2.393,8.242-5.881,12.108-7.29C102.186,240.718,97.047,241.894,97.047,241.894z"/>
		<path class="st1" d="M97.047,241.894c-2.209-5.111-7.32-2.901-7.32-2.901s-5.597,2.583-7.464,8.21
			c-0.343,1.034,0.639,2.029,1.688,1.736l7.322-2.047C93.646,243.527,97.047,241.894,97.047,241.894z"/>
		<path class="st1" d="M89.727,238.993c-1.147-4.106-5.253-2.958-5.253-2.958s-4.128,1.504-6.661,5.492
			c-0.776,1.222,0.209,2.8,1.645,2.617l4.769-0.61C86.588,240.442,89.727,238.993,89.727,238.993z"/>
		<path class="st1" d="M80.177,238.757c-2.32-4.521-7.101-3.442-7.101-3.442s-6.29,3.006-7.73,9.296
			c-0.391,1.71,1.566,2.977,2.971,1.928c2.866-2.141,7.193-5.146,10.843-6.767C79.494,239.403,79.835,239.065,80.177,238.757z"/>
		<path class="st1" d="M73.077,235.314c-2.209-5.111-7.32-2.901-7.32-2.901s-5.597,2.583-7.464,8.21
			c-0.343,1.034,0.639,2.029,1.688,1.736l7.322-2.047C69.676,236.948,73.077,235.314,73.077,235.314z"/>
		<path class="st1" d="M65.757,232.413c-1.147-4.106-5.253-2.958-5.253-2.958s-4.128,1.504-6.661,5.492
			c-0.776,1.222,0.209,2.8,1.645,2.617l4.769-0.61C62.618,233.863,65.757,232.413,65.757,232.413z"/>
		<path class="st0" d="M51.232,28.79c-2.617-0.379-6.382-1.485-7.767-4.688c-1.498-3.464-4.624-5.694-6.483-6.773
			c-0.659-0.382-1.026-1.073-1.027-1.792c-4.791,0.355-18.893,2.715-19.564,18.217c-0.035,0.801,0.82,1.345,1.523,0.959
			c2.208-1.213,6.807-3.043,13.88-2.532c7.098,0.513,15.138,0.027,21.115-2.034C52.645,29.458,52.048,28.908,51.232,28.79z"/>
		<g>
			<path class="st0" d="M52.846,31.869c0.277-0.575,0.267-1.19,0.063-1.723c-5.977,2.062-14.017,2.547-21.115,2.035
				c-4.415-0.319-7.858,0.276-10.365,1.062c0.081,0.02,11.237,2.873,18.789,8.78c0.214-0.737,0.807-1.331,1.602-1.455
				C48.119,39.58,51.355,34.967,52.846,31.869z"/>
		</g>
		<path class="st0" d="M129.016,231.591c-2.109-1.556-5.312-2.876-9.545-1.692c0,0,8.301-7.986,6.881-20.769l-2.312-1.077
			l-0.92,4.163c-5.224-1.925-8.439-5.973-8.439-5.973l-1.501,4.954c0.531,5.406-0.046,12.441-5.11,17.382
			c-1.123,1.097-2.717,1.574-4.264,1.309l-2.967-0.509c0,0-11.397-0.72-16.365,6.657c0,0,4.106-1.147,5.253,2.958
			c0,0,5.111-2.209,7.32,2.901c0,0,5.139-1.176,7.348,3.935c0,0,3.021,2.337,8.369-6.213c0.557-0.89,1.431-1.556,2.449-1.813
			c2.175-0.55,6.051-1.108,9.469,0.611c1.519,0.764,3.345,0.524,4.513-0.71l0.315-0.333
			C131.107,235.682,130.885,232.97,129.016,231.591z"/>
		<path class="st0" d="M80.177,238.757c2.148-1.933,4.296-2.722,4.296-2.722c4.968-7.377,16.365-6.657,16.365-6.657l2.967,0.509
			c0.83,0.142,1.671,0.064,2.448-0.202c0.711-1.605,0.293-3.565-1.208-4.673c-2.109-1.556-5.312-2.876-9.545-1.692
			c0,0,8.301-7.986,6.881-20.769l-2.312-1.077l-0.92,4.163c-5.224-1.925-8.439-5.973-8.439-5.973l-1.501,4.954
			c0.531,5.406-0.046,12.44-5.11,17.382c-1.123,1.097-2.717,1.574-4.264,1.309l-2.967-0.509c0,0-11.397-0.72-16.365,6.657
			c0,0,4.106-1.147,5.253,2.958c0,0,5.111-2.209,7.32,2.901C73.077,235.314,77.858,234.236,80.177,238.757z"/>
		<path class="st7" d="M53.047,19.159c-0.008-2.526,2.033-4.579,4.558-4.588c2.526-0.008,4.579,2.033,4.588,4.558"/>
		<path class="st7" d="M51.232,28.79c-2.617-0.379-6.382-1.485-7.767-4.688c-1.498-3.464-4.624-5.694-6.483-6.773
			c-0.659-0.382-1.026-1.073-1.027-1.792c-4.791,0.355-18.893,2.715-19.564,18.217c-0.035,0.801,0.82,1.345,1.523,0.959
			c2.208-1.213,6.807-3.043,13.88-2.532c7.098,0.513,15.138,0.027,21.115-2.034C52.645,29.458,52.048,28.908,51.232,28.79z"/>
		<g>
			<path class="st7" d="M52.846,31.869c0.277-0.575,0.267-1.19,0.063-1.723c-5.977,2.062-14.017,2.547-21.115,2.035
				c-4.415-0.319-7.858,0.276-10.365,1.062c0.081,0.02,11.237,2.873,18.789,8.78c0.214-0.737,0.807-1.331,1.602-1.455
				C48.119,39.58,51.355,34.967,52.846,31.869z"/>
		</g>
		<path class="st7" d="M137.72,86.977C123.8,69.926,108.273,63.726,96.406,61.742c-11.687-1.954-23.283,4.113-28.228,14.881
			c-5.91,12.871-10.632,32.234,1.357,50.291c19.769,29.772,69.397,58.262,122.416,64.765c3.09,0.379,5.644-2.402,4.988-5.477
			C188.93,148.672,164.838,120.195,137.72,86.977z"/>
		<path class="st7" d="M64.441,72.135c0,0,1.574,1.104,5.126,1.906c3.717-6.16,9.757-10.414,16.592-11.981
			c-0.485-0.866-0.954-1.825-1.39-2.896l10.307-1.318c0,0-8.382-3.906-11.682-11.055c0,0,5.168-0.142,9.245-2.323
			c0,0-7.32-2.901-11.625-8.988c0,0,6.201-0.171,9.245-2.323c0,0-9.415-3.878-11.653-10.022c4.134-0.114,7.121-4.333,7.121-4.333
			s-3.101,0.085-8.496-8.04c-5.395-8.126-19.362-8.258-19.362-8.258c-15.095,0.416-20.2,8.503-21.753,12.221
			c-0.405,0.968-0.04,2.08,0.868,2.606c1.859,1.078,4.986,3.309,6.483,6.773c1.385,3.203,5.149,4.309,7.767,4.688
			c1.447,0.21,2.248,1.762,1.614,3.079c-1.491,3.099-4.727,7.711-11.026,8.699c-1.089,0.171-1.806,1.217-1.677,2.311
			c0.385,3.272,0.539,9.866-2.943,16.561c0,0-3.963,6.315-3.764,13.549l7.064-6.4c0,0,1.204,6.173,6.514,11.198l3.935-7.348
			c0,0,6.4,7.064,13.635,6.864L64.441,72.135z"/>
		<path class="st7" d="M160.516,185.22c-40.377-11.598-75.197-34.537-90.98-58.306c-11.99-18.057-7.268-37.42-1.357-50.291
			c0.413-0.899,0.888-1.752,1.389-2.583c-3.552-0.802-5.126-1.906-5.126-1.906l0.142,5.168c-7.235,0.199-13.635-6.864-13.635-6.864
			l-3.935,7.348c-5.31-5.025-6.514-11.198-6.514-11.198l-7.064,6.4c-0.022-0.811,0.014-1.609,0.085-2.39
			c-6.825,11.922-11.215,36.32,10.035,69.339c13.45,20.9,35.666,35.612,57.263,45.567c1.85,4.324,3.522,8.871,4.333,12.723
			c2.38,11.312,7.633,14.27,7.633,14.27l1.896-6.258c0,0,3.214,4.049,8.439,5.973l0.92-4.163l4.191,1.953
			c0,0,0.153-7.881,1.218-13.603c7.325,2.253,13.924,3.903,19.239,5.015c6.846,1.432,13.181-4.134,12.577-11.102
			C161.129,188.755,160.888,187.054,160.516,185.22z"/>
		<path class="st7" d="M129.016,231.591c-2.109-1.556-5.312-2.876-9.545-1.692c0,0,8.301-7.986,6.881-20.769l-2.312-1.077
			l-0.92,4.163c-5.224-1.925-8.439-5.973-8.439-5.973l-1.501,4.954c0.531,5.406-0.046,12.441-5.11,17.382
			c-1.123,1.097-2.717,1.574-4.264,1.309l-2.967-0.509c0,0-11.397-0.72-16.365,6.657c0,0,4.106-1.147,5.253,2.958
			c0,0,5.111-2.209,7.32,2.901c0,0,5.139-1.176,7.348,3.935c0,0,3.021,2.337,8.369-6.213c0.557-0.89,1.431-1.556,2.449-1.813
			c2.175-0.55,6.051-1.108,9.469,0.611c1.519,0.764,3.345,0.524,4.513-0.71l0.315-0.333
			C131.107,235.682,130.885,232.97,129.016,231.591z"/>
		<path class="st7" d="M130.118,185.23c0.404,2.879,0.522,6.211-0.248,9.216c-1.451,5.666-1.64,15.56-1.64,15.56l-4.191-1.953
			l-0.92,4.163c-5.224-1.925-8.439-5.973-8.439-5.973l-1.896,6.258c0,0-5.253-2.958-7.633-14.27
			c-0.861-4.092-2.691-8.969-4.676-13.528c-2.378-5.461-2.834-11.567-1.346-17.335l0,0"/>
		<path class="st7" d="M173.648,206.685c0,0,6.997,5.576,15.379,9.482"/>
		<path class="st7" d="M194.175,200.948c0,0,6.343,4.997,15.73,7.841"/>
		<path class="st7" d="M239.61,206.869c-6.437-3.036-12.653-6.539-18.583-10.475c-10.111-6.709-18.005-15.284-27.058-21.474
			c1.147,3.677,2.148,7.43,2.97,11.282c0.656,3.076-1.898,5.856-4.988,5.477c-10.691-1.311-21.237-3.53-31.435-6.459
			c0.372,1.834,0.612,3.535,0.748,5.095c0.604,6.968-5.73,12.534-12.577,11.102c-5.315-1.112-11.914-2.762-19.239-5.015
			c-0.157,0.842-0.292,1.732-0.411,2.635c7.488,11.87,16.879,21.806,16.879,21.806l4.132-7.302
			c5.395,8.126,10.677,12.117,15.226,15.471c0.485-3.785,0.349-8.712,0.367-11.681c6.843,7.649,18.51,9.933,28.773,10.064
			c-2.507-2.711-4.464-7.653-5.387-11.228c11.109,4.168,23.014,6.798,31.321,3.637c-3.512-3.382-8.261-6.939-10.442-11.016
			C220.673,209.716,229.03,209.07,239.61,206.869z"/>
		<path class="st7" d="M97.047,241.894c0,0-6.29,3.006-7.73,9.296c-0.391,1.71,1.566,2.977,2.971,1.928
			c3.204-2.393,8.242-5.881,12.108-7.29C102.186,240.718,97.047,241.894,97.047,241.894z"/>
		<path class="st7" d="M97.047,241.894c-2.209-5.111-7.32-2.901-7.32-2.901s-5.597,2.583-7.464,8.21
			c-0.343,1.034,0.639,2.029,1.688,1.736l7.322-2.047C93.646,243.527,97.047,241.894,97.047,241.894z"/>
		<path class="st7" d="M89.727,238.993c-1.147-4.106-5.253-2.958-5.253-2.958s-4.128,1.504-6.661,5.492
			c-0.776,1.222,0.209,2.8,1.645,2.617l4.769-0.61C86.588,240.442,89.727,238.993,89.727,238.993z"/>
		<path class="st7" d="M80.177,238.757c2.148-1.933,4.296-2.722,4.296-2.722c4.968-7.377,16.365-6.657,16.365-6.657l2.967,0.509
			c0.83,0.142,1.671,0.064,2.448-0.202c0.711-1.605,0.293-3.565-1.208-4.673c-2.109-1.556-5.312-2.876-9.545-1.692
			c0,0,8.301-7.986,6.881-20.769l-2.312-1.077l-0.92,4.163c-5.224-1.925-8.439-5.973-8.439-5.973l-1.501,4.954
			c0.531,5.406-0.046,12.44-5.11,17.382c-1.123,1.097-2.717,1.574-4.264,1.309l-2.967-0.509c0,0-11.397-0.72-16.365,6.657
			c0,0,4.106-1.147,5.253,2.958c0,0,5.111-2.209,7.32,2.901C73.077,235.314,77.858,234.236,80.177,238.757z"/>
		<path class="st7" d="M80.177,238.757c-2.32-4.521-7.101-3.442-7.101-3.442s-6.29,3.006-7.73,9.296
			c-0.391,1.71,1.566,2.977,2.971,1.928c2.866-2.141,7.193-5.146,10.843-6.767C79.494,239.403,79.835,239.065,80.177,238.757z"/>
		<path class="st7" d="M73.077,235.314c-2.209-5.111-7.32-2.901-7.32-2.901s-5.597,2.583-7.464,8.21
			c-0.343,1.034,0.639,2.029,1.688,1.736l7.322-2.047C69.676,236.948,73.077,235.314,73.077,235.314z"/>
		<path class="st7" d="M65.757,232.413c-1.147-4.106-5.253-2.958-5.253-2.958s-4.128,1.504-6.661,5.492
			c-0.776,1.222,0.209,2.8,1.645,2.617l4.769-0.61C62.618,233.863,65.757,232.413,65.757,232.413z"/>
		<path class="st7" d="M100.819,185.507c-8.884-4.095-17.863-9.011-26.304-14.816c0.304,2.545,0.953,5.051,1.99,7.432
			c1.985,4.559,3.815,9.436,4.676,13.527c2.38,11.312,7.633,14.27,7.633,14.27l1.896-6.258c0,0,3.214,4.049,8.439,5.973l0.92-4.163
			l4.191,1.953c0,0,0.065-3.322,0.4-7.215C103.761,192.837,102.355,189.098,100.819,185.507z"/>
		<path class="st7" d="M32,23L32,23L32,23z"/>
		<path class="st7" d="M105.777,135.146c0,0,40.794,39.896,89.593,44.582"/>
		<path class="st7" d="M126.777,128.146c0,0,27.61,27.002,64.573,39.187"/>
		<path class="st7" d="M145.777,122.146c0,0,14.776,14.451,37.181,26.98"/>
	</g>
</g>
<g id="Layer_72">
</g>
<g id="Layer_73">
</g>
<g id="Layer_74">
</g>
<g id="Layer_75">
</g>
<g id="Layer_76">
</g>
<g id="Layer_77">
</g>
<g id="Layer_78">
</g>
<g id="Layer_79">
</g>
<g id="Layer_80">
</g>
<g id="Layer_81">
</g>
<g id="Layer_82">
</g>
<g id="Layer_83">
</g>
<g id="Layer_84">
</g>
<g id="Layer_85">
</g>
<g id="Layer_86">
</g>
<g id="Layer_87">
</g>
<g id="Layer_88">
</g>
<g id="Layer_89">
</g>
<g id="Layer_90">
</g>
<g id="Layer_91">
</g>
<g id="Layer_92">
</g>
<g id="Layer_93">
</g>
<g id="Layer_94">
</g>
<g id="Layer_95">
</g>
<g id="Layer_96">
</g>
<g id="Layer_97">
</g>
<g id="Layer_98">
</g>
<g id="Layer_99">
</g>
<g id="Layer_100">
</g>
</svg>
