<?xml version="1.0" encoding="utf-8"?>
<!-- Generator: Adobe Illustrator 22.0.0, SVG Export Plug-In . SVG Version: 6.00 Build 0)  -->
<svg version="1.1" xmlns="http://www.w3.org/2000/svg" xmlns:xlink="http://www.w3.org/1999/xlink" x="0px" y="0px"
	 viewBox="0 0 256 256" style="enable-background:new 0 0 256 256;" xml:space="preserve">
<style type="text/css">
	.st0{fill:#F9BD55;}
	.st1{fill:#F4DBCE;}
	.st2{fill:#52565B;}
	.st3{fill:#FD605B;}
	.st4{fill:#F98080;}
	.st5{fill:#F9E63A;}
	.st6{fill:#039BE6;}
	.st7{fill:none;stroke:#000000;stroke-width:5;stroke-linecap:round;stroke-linejoin:round;stroke-miterlimit:10;}
	.st8{fill:#7D3D1A;}
	.st9{fill:#EAA250;}
	.st10{fill:#DD7F57;}
	.st11{fill:#FFC097;}
	.st12{fill:#F49667;}
	.st13{fill:#F89422;}
	.st14{fill:#E3E4E5;}
	.st15{fill:#6E7175;}
	.st16{fill:#46BAF9;}
	.st17{fill:#D9F3FF;}
	.st18{fill:#828487;}
	.st19{fill:#A8AEB2;}
	.st20{fill:#C9CDD1;}
	.st21{fill:#8CD8F9;}
	.st22{fill:#1AA7E5;}
	.st23{fill:#ACE7FC;}
	.st24{fill:#FFFFFF;}
	.st25{fill:#9E512B;}
	.st26{fill:#7ED5FC;}
	.st27{fill:#7CCC4E;}
	.st28{fill:#3AA03A;}
	.st29{fill:#FCB1B1;}
	.st30{fill:#F76E23;}
	.st31{fill:#C16A44;}
	.st32{fill:#B796EA;}
</style>
<g id="Layer_1">
</g>
<g id="Layer_2">
</g>
<g id="Layer_3">
</g>
<g id="Layer_4">
</g>
<g id="Layer_5">
</g>
<g id="Layer_6">
</g>
<g id="Layer_7">
</g>
<g id="Layer_8">
</g>
<g id="Layer_9">
</g>
<g id="Layer_10">
</g>
<g id="Layer_11">
</g>
<g id="Layer_12">
</g>
<g id="Layer_13">
</g>
<g id="Layer_14">
</g>
<g id="Layer_15">
</g>
<g id="Layer_16">
</g>
<g id="Layer_17">
</g>
<g id="Layer_18">
</g>
<g id="Layer_19">
</g>
<g id="Layer_20">
</g>
<g id="Layer_21">
</g>
<g id="Layer_22">
</g>
<g id="Layer_23">
</g>
<g id="Layer_24">
</g>
<g id="Layer_25">
</g>
<g id="Layer_26">
</g>
<g id="Layer_27">
</g>
<g id="Layer_28">
</g>
<g id="Layer_29">
</g>
<g id="Layer_30">
</g>
<g id="Layer_31">
</g>
<g id="Layer_32">
</g>
<g id="Layer_33">
</g>
<g id="Layer_34">
</g>
<g id="Layer_35">
</g>
<g id="Layer_36">
</g>
<g id="Layer_37">
</g>
<g id="Layer_38">
</g>
<g id="Layer_39">
</g>
<g id="Layer_40">
</g>
<g id="Layer_41">
</g>
<g id="Layer_42">
</g>
<g id="Layer_43">
</g>
<g id="Layer_44">
</g>
<g id="Layer_45">
</g>
<g id="Layer_46">
</g>
<g id="Layer_47">
</g>
<g id="Layer_48">
</g>
<g id="Layer_49">
</g>
<g id="Layer_50">
</g>
<g id="Layer_51">
</g>
<g id="Layer_52">
</g>
<g id="Layer_53">
</g>
<g id="Layer_54">
</g>
<g id="Layer_55">
</g>
<g id="Layer_56">
</g>
<g id="Layer_57">
</g>
<g id="Layer_58">
</g>
<g id="Layer_59">
</g>
<g id="Layer_60">
</g>
<g id="Layer_61">
</g>
<g id="Layer_62">
</g>
<g id="Layer_63">
</g>
<g id="Layer_64">
</g>
<g id="Layer_65">
</g>
<g id="Layer_66">
</g>
<g id="Layer_67">
</g>
<g id="Layer_68">
</g>
<g id="Layer_69">
</g>
<g id="Layer_70">
</g>
<g id="Layer_71">
</g>
<g id="Layer_72">
</g>
<g id="Layer_73">
</g>
<g id="Layer_74">
</g>
<g id="Layer_75">
</g>
<g id="Layer_76">
</g>
<g id="Layer_77">
</g>
<g id="Layer_78">
</g>
<g id="Layer_79">
</g>
<g id="Layer_80">
</g>
<g id="Layer_81">
</g>
<g id="Layer_82">
</g>
<g id="Layer_83">
</g>
<g id="Layer_84">
</g>
<g id="Layer_85">
</g>
<g id="Layer_86">
</g>
<g id="Layer_87">
	<g>
		<path class="st26" d="M15.601,34.798c0,0-3.277-7.021,7.021-8.894s10.298-7.489,13.106-7.489c2.809,0,3.745,7.489,14.043,8.426
			c0,0-5.149,7.021-16.851,5.617C21.613,31.1,15.601,34.798,15.601,34.798z"/>
		<path class="st26" d="M32.921,32.457c-5.059-0.607-9.049-0.201-11.923,0.432c0.086,0.026,9.784,2.937,14.732,5.186
			c0.051,0.023,0.103,0.047,0.155,0.069c5.989,2.623,12.797-1.489,13.519-7.988l0.368-3.315
			C49.772,26.84,44.623,33.862,32.921,32.457z"/>
		<path class="st18" d="M192.115,189.308c-1.459-3.646-3.833-8.323-6.405-13.023c-1.405-0.189-2.797-0.471-4.16-0.859
			c-0.651-0.185-1.329,0.252-1.368,0.928c-0.035,0.607-0.002,1.219,0.097,1.819c0.121,0.728-0.461,1.392-1.189,1.269
			c-3.765-0.632-7.441-1.792-10.888-3.436c-0.564-0.269-1.222-0.002-1.451,0.579c-0.228,0.576-0.4,1.17-0.547,1.771
			c7.486,10.06,16.966,16.934,16.966,16.934c-2.458,5.285-5.115,24.953-6.152,31.177c-0.731,4.387-3.067,11.589-4.12,14.722
			c-0.286,0.849-1.198,1.307-2.056,1.049c-8.716-2.621-11.237-0.652-15.258,3.342c-1.188,1.18-2.214,3.508-1.628,5.448
			c0.546,1.809,2.078,2.814,4.295,2.113c2.781-0.879,6.736-1.812,9.477-1.127c3.338,0.835,6.676,0.47,8.29,0.198
			c0.622-0.104,1.258-0.018,1.829,0.25c1.299,0.609,4.007,1.536,7.299,0.714c2.304-0.576,4.037-0.295,5.198,0.135
			c0.84,0.31,1.727-0.44,1.547-1.317c-1.19-5.786-6.744-5.786-6.744-5.786c-4.645-4.645,9.29-46.449,9.29-46.449
			C197.921,191.631,192.115,189.308,192.115,189.308z"/>
		<path class="st18" d="M153.979,248.481c0.003-0.012,0.007-0.023,0.01-0.035c0.057-0.213,0.121-0.422,0.199-0.627
			c0.012-0.033,0.027-0.064,0.039-0.097c0.073-0.183,0.148-0.363,0.234-0.536c0.031-0.062,0.065-0.119,0.097-0.179
			c0.076-0.142,0.151-0.283,0.234-0.415c0.061-0.097,0.126-0.185,0.191-0.276c0.063-0.089,0.122-0.183,0.188-0.266
			c0.134-0.171,0.273-0.329,0.415-0.47c0.325-0.323,0.638-0.627,0.948-0.922c0.075-0.071,0.151-0.143,0.225-0.212
			c0.643-0.603,1.269-1.14,1.908-1.6c0.053-0.038,0.108-0.076,0.161-0.113c0.322-0.224,0.648-0.433,0.984-0.615
			c0.001,0,0.001-0.001,0.002-0.001c-1.564-9.524,10.09-44.491,10.09-44.491c3.484-8.128-2.322-10.451-2.322-10.451
			c-0.868-2.169-2.064-4.707-3.429-7.394c-1.835-1.839-3.601-3.871-5.284-6.037c-0.622-0.133-1.241-0.279-1.852-0.453
			c-0.651-0.185-1.329,0.252-1.368,0.928c-0.035,0.607-0.002,1.219,0.097,1.819c0.121,0.728-0.461,1.392-1.189,1.269
			c-3.765-0.632-7.442-1.792-10.888-3.436c-0.564-0.269-1.222-0.002-1.451,0.579c-0.227,0.576-0.4,1.17-0.547,1.771
			c7.486,10.06,16.966,16.934,16.966,16.934c-2.458,5.285-5.115,24.953-6.152,31.177c-0.731,4.387-3.067,11.589-4.12,14.722
			c-0.286,0.849-1.198,1.307-2.056,1.049c-8.716-2.622-11.237-0.652-15.258,3.342c-1.188,1.18-2.214,3.508-1.628,5.448
			c0.546,1.809,2.078,2.814,4.295,2.113c2.781-0.879,6.736-1.812,9.477-1.126c3.338,0.834,6.676,0.47,8.29,0.198
			c0.622-0.104,1.258-0.018,1.829,0.25c0.162,0.077,0.347,0.157,0.552,0.24l0,0C153.748,249.881,153.801,249.169,153.979,248.481z"
			/>
		<path class="st31" d="M240.379,168.816c-18.313-15.336-21.082-40.807-28.141-61.987c-7.467-22.401-21.334-27.734-21.334-27.734
			l6.4-1.067c-21.334-21.334-51.201-17.067-51.201-17.067l3.2-3.2c-33.068,2.133-44.801,25.601-59.735,29.868
			c-8.437,2.41-13.467-2.668-16.249-7.544c-0.252,0.458-0.883,0.671-1.367,0.267l-2.14-1.783c-0.446-0.371-1.118-0.241-1.383,0.276
			c-1.214,2.362-3.978,8.583-2.753,14.23c0.153,0.706-0.578,1.285-1.242,1c-1.745-0.751-4.402-2.196-5.952-4.503
			c-0.388-0.577-1.266-0.492-1.555,0.141c-1.061,2.32-2.677,6.988-1.624,12.27c0.156,0.783-0.742,1.357-1.4,0.904
			c-1.46-1.005-3.42-2.615-4.727-4.717c-0.393-0.632-1.344-0.517-1.604,0.18c-0.642,1.721-1.411,4.635-1.242,8.437
			c0.025,0.565-0.425,0.958-0.906,0.96c2.09,7.388,7.332,16.447,20.145,22.018L64.5,124.43c0,0,8.534,7.467,32.001,12.8l-2.133-6.4
			c0,0,19.201,7.467,34.134,17.067s40.535,7.467,40.535,7.467l-5.333-4.267c0,0,14.934,0,25.601,6.4v-5.333
			c0,0,8.534,11.734,22.401,18.134v-5.333c0,0,13.867,7.467,27.734,6.4C240.785,171.364,241.412,169.68,240.379,168.816z"/>
		<path class="st31" d="M186.396,168.21c-0.242-3.112,0.198-6.236,0.199-9.357c0-0.959-0.056-1.917-0.14-2.872
			c-10.288-4.88-22.752-4.883-22.752-4.883l5.333,4.267c0,0-9.821,0.816-20.844-0.842c3.596,9.837,9.42,18.725,16.015,25.318
			c0.598,0.597,1.645,0.296,1.786-0.537c0.157-0.929,0.412-1.842,0.758-2.718c0.23-0.581,0.888-0.847,1.451-0.579
			c3.446,1.643,7.123,2.803,10.888,3.436c0.728,0.122,1.31-0.541,1.189-1.269c-0.1-0.6-0.133-1.212-0.097-1.819
			c0.039-0.676,0.717-1.113,1.368-0.928c1.961,0.558,3.98,0.913,6.014,1.056c0.866,0.061,1.454-0.927,0.96-1.641
			C187.209,172.943,186.578,170.545,186.396,168.21z"/>
		<g>
			<path class="st31" d="M148.193,154.522c-6.775-1.018-14.004-2.969-19.691-6.625c-2.115-1.359-4.316-2.675-6.536-3.933
				c3.248,11.978,9.947,25.986,17.707,33.743c0.598,0.597,1.645,0.296,1.786-0.537c0.157-0.929,0.412-1.842,0.758-2.718
				c0.23-0.581,0.888-0.847,1.451-0.579c3.446,1.643,7.123,2.803,10.888,3.436c0.728,0.122,1.31-0.541,1.189-1.269
				c-0.1-0.6-0.133-1.212-0.097-1.819c0.039-0.676,0.717-1.113,1.368-0.928c0.613,0.174,1.232,0.321,1.855,0.456
				C154.525,168.158,150.778,161.594,148.193,154.522z"/>
		</g>
		<path class="st18" d="M79.729,22.16C77.857,9.989,68.495,6.245,68.495,6.245l1.872-1.872C57.261-0.309,49.772,5.309,49.772,5.309
			V2.5C39.62,6.404,36.635,15.515,35.924,18.431c2.662,0.338,3.793,7.495,13.848,8.409l-0.368,3.315
			c-0.22,1.979-1.009,3.732-2.163,5.145c25.109,8.204-4.569,36.44-8.235,56.603c-1.491,8.201,3.212,13.424,5.841,15.635
			c0.609,0.513,1.516,0.04,1.481-0.755c-0.169-3.802,0.601-6.715,1.242-8.437c0.26-0.697,1.211-0.813,1.604-0.18
			c1.307,2.102,3.267,3.713,4.727,4.717c0.658,0.453,1.556-0.12,1.4-0.904c-1.053-5.281,0.563-9.95,1.624-12.27
			c0.289-0.632,1.167-0.717,1.555-0.141c1.55,2.307,4.207,3.752,5.952,4.503c0.664,0.285,1.396-0.294,1.242-1
			c-1.225-5.648,1.539-11.868,2.753-14.23c0.265-0.516,0.938-0.647,1.383-0.276l2.14,1.783c0.689,0.574,1.691-0.087,1.446-0.95
			c-1.805-6.356-1.969-16.723,1.183-27.753c3.745-13.107,2.34-29.489,2.34-29.489H79.729z"/>
		<path class="st7" d="M52.154,18.389c-0.009-2.806,2.259-5.089,5.065-5.098s5.089,2.259,5.098,5.065"/>
		<path class="st7" d="M15.601,34.798c0,0-3.277-7.021,7.021-8.894s10.298-7.489,13.106-7.489c2.809,0,3.745,7.489,14.043,8.426
			c0,0-5.149,7.021-16.851,5.617C21.613,31.1,15.601,34.798,15.601,34.798z"/>
		<path class="st7" d="M32.921,32.457c-5.059-0.607-9.049-0.201-11.923,0.432c0.086,0.026,9.784,2.937,14.732,5.186
			c0.051,0.023,0.103,0.047,0.155,0.069c5.989,2.623,12.797-1.489,13.519-7.988l0.368-3.315
			C49.772,26.84,44.623,33.862,32.921,32.457z"/>
		<path class="st7" d="M79.729,22.16C77.857,9.989,68.495,6.245,68.495,6.245l1.872-1.872C57.261-0.309,49.772,5.309,49.772,5.309
			V2.5C39.62,6.404,36.635,15.515,35.924,18.431c2.662,0.338,3.793,7.495,13.848,8.409l-0.368,3.315
			c-0.22,1.979-1.009,3.732-2.163,5.145c25.109,8.204-4.569,36.44-8.235,56.603c-1.491,8.201,3.212,13.424,5.841,15.635
			c0.609,0.513,1.516,0.04,1.481-0.755c-0.169-3.802,0.601-6.715,1.242-8.437c0.26-0.697,1.211-0.813,1.604-0.18
			c1.307,2.102,3.267,3.713,4.727,4.717c0.658,0.453,1.556-0.12,1.4-0.904c-1.053-5.281,0.563-9.95,1.624-12.27
			c0.289-0.632,1.167-0.717,1.555-0.141c1.55,2.307,4.207,3.752,5.952,4.503c0.664,0.285,1.396-0.294,1.242-1
			c-1.225-5.648,1.539-11.868,2.753-14.23c0.265-0.516,0.938-0.647,1.383-0.276l2.14,1.783c0.689,0.574,1.691-0.087,1.446-0.95
			c-1.805-6.356-1.969-16.723,1.183-27.753c3.745-13.107,2.34-29.489,2.34-29.489H79.729z"/>
		<path class="st7" d="M240.379,168.816c-18.313-15.336-21.082-40.807-28.141-61.987c-7.467-22.401-21.334-27.734-21.334-27.734
			l6.4-1.067c-21.334-21.334-51.201-17.067-51.201-17.067l3.2-3.2c-33.068,2.133-44.801,25.601-59.735,29.868
			c-8.437,2.41-13.467-2.668-16.249-7.544c-0.252,0.458-0.883,0.671-1.367,0.267l-2.14-1.783c-0.446-0.371-1.118-0.241-1.383,0.276
			c-1.214,2.362-3.978,8.583-2.753,14.23c0.153,0.706-0.578,1.285-1.242,1c-1.745-0.751-4.402-2.196-5.952-4.503
			c-0.388-0.577-1.266-0.492-1.555,0.141c-1.061,2.32-2.677,6.988-1.624,12.27c0.156,0.783-0.742,1.357-1.4,0.904
			c-1.46-1.005-3.42-2.615-4.727-4.717c-0.393-0.632-1.344-0.517-1.604,0.18c-0.642,1.721-1.411,4.635-1.242,8.437
			c0.025,0.565-0.425,0.958-0.906,0.96c2.09,7.388,7.332,16.447,20.145,22.018L64.5,124.43c0,0,8.534,7.467,32.001,12.8l-2.133-6.4
			c0,0,19.201,7.467,34.134,17.067s40.535,7.467,40.535,7.467l-5.333-4.267c0,0,14.934,0,25.601,6.4v-5.333
			c0,0,8.534,11.734,22.401,18.134v-5.333c0,0,13.867,7.467,27.734,6.4C240.785,171.364,241.412,169.68,240.379,168.816z"/>
		<path class="st7" d="M186.396,168.21c-0.242-3.112,0.198-6.236,0.199-9.357c0-0.959-0.056-1.917-0.14-2.872
			c-10.288-4.88-22.752-4.883-22.752-4.883l5.333,4.267c0,0-9.821,0.816-20.844-0.842c3.596,9.837,9.42,18.725,16.015,25.318
			c0.598,0.597,1.645,0.296,1.786-0.537c0.157-0.929,0.412-1.842,0.758-2.718c0.23-0.581,0.888-0.847,1.451-0.579
			c3.446,1.643,7.123,2.803,10.888,3.436c0.728,0.122,1.31-0.541,1.189-1.269c-0.1-0.6-0.133-1.212-0.097-1.819
			c0.039-0.676,0.717-1.113,1.368-0.928c1.961,0.558,3.98,0.913,6.014,1.056c0.866,0.061,1.454-0.927,0.96-1.641
			C187.209,172.943,186.578,170.545,186.396,168.21z"/>
		<path class="st7" d="M192.115,189.308c-1.459-3.646-3.833-8.323-6.405-13.023c-1.405-0.189-2.797-0.471-4.16-0.859
			c-0.651-0.185-1.329,0.252-1.368,0.928c-0.035,0.607-0.002,1.219,0.097,1.819c0.121,0.728-0.461,1.392-1.189,1.269
			c-3.765-0.632-7.441-1.792-10.888-3.436c-0.564-0.269-1.222-0.002-1.451,0.579c-0.228,0.576-0.4,1.17-0.547,1.771
			c7.486,10.06,16.966,16.934,16.966,16.934c-2.458,5.285-5.115,24.953-6.152,31.177c-0.731,4.387-3.067,11.589-4.12,14.722
			c-0.286,0.849-1.198,1.307-2.056,1.049c-8.716-2.621-11.237-0.652-15.258,3.342c-1.188,1.18-2.214,3.508-1.628,5.448
			c0.546,1.809,2.078,2.814,4.295,2.113c2.781-0.879,6.736-1.812,9.477-1.127c3.338,0.835,6.676,0.47,8.29,0.198
			c0.622-0.104,1.258-0.018,1.829,0.25c1.299,0.609,4.007,1.536,7.299,0.714c2.304-0.576,4.037-0.295,5.198,0.135
			c0.84,0.31,1.727-0.44,1.547-1.317c-1.19-5.786-6.744-5.786-6.744-5.786c-4.645-4.645,9.29-46.449,9.29-46.449
			C197.921,191.631,192.115,189.308,192.115,189.308z"/>
		<g>
			<path class="st7" d="M148.193,154.522c-6.775-1.018-14.004-2.969-19.691-6.625c-2.115-1.359-4.316-2.675-6.536-3.933
				c3.248,11.978,9.947,25.986,17.707,33.743c0.598,0.597,1.645,0.296,1.786-0.537c0.157-0.929,0.412-1.842,0.758-2.718
				c0.23-0.581,0.888-0.847,1.451-0.579c3.446,1.643,7.123,2.803,10.888,3.436c0.728,0.122,1.31-0.541,1.189-1.269
				c-0.1-0.6-0.133-1.212-0.097-1.819c0.039-0.676,0.717-1.113,1.368-0.928c0.613,0.174,1.232,0.321,1.855,0.456
				C154.525,168.158,150.778,161.594,148.193,154.522z"/>
		</g>
		<path class="st7" d="M153.979,248.481c0.003-0.012,0.007-0.023,0.01-0.035c0.057-0.213,0.121-0.422,0.199-0.627
			c0.012-0.033,0.027-0.064,0.039-0.097c0.073-0.183,0.148-0.363,0.234-0.536c0.031-0.062,0.065-0.119,0.097-0.179
			c0.076-0.142,0.151-0.283,0.234-0.415c0.061-0.097,0.126-0.185,0.191-0.276c0.063-0.089,0.122-0.183,0.188-0.266
			c0.134-0.171,0.273-0.329,0.415-0.47c0.325-0.323,0.638-0.627,0.948-0.922c0.075-0.071,0.151-0.143,0.225-0.212
			c0.643-0.603,1.269-1.14,1.908-1.6c0.053-0.038,0.108-0.076,0.161-0.113c0.322-0.224,0.648-0.433,0.984-0.615
			c0.001,0,0.001-0.001,0.002-0.001c-1.564-9.524,10.09-44.491,10.09-44.491c3.484-8.128-2.322-10.451-2.322-10.451
			c-0.868-2.169-2.064-4.707-3.429-7.394c-1.835-1.839-3.601-3.871-5.284-6.037c-0.622-0.133-1.241-0.279-1.852-0.453
			c-0.651-0.185-1.329,0.252-1.368,0.928c-0.035,0.607-0.002,1.219,0.097,1.819c0.121,0.728-0.461,1.392-1.189,1.269
			c-3.765-0.632-7.442-1.792-10.888-3.436c-0.564-0.269-1.222-0.002-1.451,0.579c-0.227,0.576-0.4,1.17-0.547,1.771
			c7.486,10.06,16.966,16.934,16.966,16.934c-2.458,5.285-5.115,24.953-6.152,31.177c-0.731,4.387-3.067,11.589-4.12,14.722
			c-0.286,0.849-1.198,1.307-2.056,1.049c-8.716-2.622-11.237-0.652-15.258,3.342c-1.188,1.18-2.214,3.508-1.628,5.448
			c0.546,1.809,2.078,2.814,4.295,2.113c2.781-0.879,6.736-1.812,9.477-1.126c3.338,0.834,6.676,0.47,8.29,0.198
			c0.622-0.104,1.258-0.018,1.829,0.25c0.162,0.077,0.347,0.157,0.552,0.24l0,0C153.748,249.881,153.801,249.169,153.979,248.481z"
			/>
	</g>
</g>
<g id="Layer_88">
</g>
<g id="Layer_89">
</g>
<g id="Layer_90">
</g>
<g id="Layer_91">
</g>
<g id="Layer_92">
</g>
<g id="Layer_93">
</g>
<g id="Layer_94">
</g>
<g id="Layer_95">
</g>
<g id="Layer_96">
</g>
<g id="Layer_97">
</g>
<g id="Layer_98">
</g>
<g id="Layer_99">
</g>
<g id="Layer_100">
</g>
</svg>
