<?xml version="1.0" encoding="utf-8"?>
<!-- Generator: Adobe Illustrator 22.0.0, SVG Export Plug-In . SVG Version: 6.00 Build 0)  -->
<svg version="1.1" xmlns="http://www.w3.org/2000/svg" xmlns:xlink="http://www.w3.org/1999/xlink" x="0px" y="0px"
	 viewBox="0 0 256 256" style="enable-background:new 0 0 256 256;" xml:space="preserve">
<style type="text/css">
	.st0{fill:#F9BD55;}
	.st1{fill:#F4DBCE;}
	.st2{fill:#52565B;}
	.st3{fill:#FD605B;}
	.st4{fill:#F98080;}
	.st5{fill:#F9E63A;}
	.st6{fill:#039BE6;}
	.st7{fill:none;stroke:#000000;stroke-width:5;stroke-linecap:round;stroke-linejoin:round;stroke-miterlimit:10;}
	.st8{fill:#7D3D1A;}
	.st9{fill:#EAA250;}
	.st10{fill:#DD7F57;}
	.st11{fill:#FFC097;}
	.st12{fill:#F49667;}
	.st13{fill:#F89422;}
	.st14{fill:#E3E4E5;}
	.st15{fill:#6E7175;}
	.st16{fill:#46BAF9;}
	.st17{fill:#D9F3FF;}
	.st18{fill:#828487;}
	.st19{fill:#A8AEB2;}
	.st20{fill:#C9CDD1;}
	.st21{fill:#8CD8F9;}
	.st22{fill:#1AA7E5;}
	.st23{fill:#ACE7FC;}
	.st24{fill:#FFFFFF;}
	.st25{fill:#9E512B;}
	.st26{fill:#7ED5FC;}
	.st27{fill:#7CCC4E;}
	.st28{fill:#3AA03A;}
	.st29{fill:#FCB1B1;}
	.st30{fill:#F76E23;}
	.st31{fill:#C16A44;}
	.st32{fill:#B796EA;}
</style>
<g id="Layer_1">
</g>
<g id="Layer_2">
</g>
<g id="Layer_3">
</g>
<g id="Layer_4">
</g>
<g id="Layer_5">
</g>
<g id="Layer_6">
</g>
<g id="Layer_7">
</g>
<g id="Layer_8">
</g>
<g id="Layer_9">
</g>
<g id="Layer_10">
</g>
<g id="Layer_11">
</g>
<g id="Layer_12">
</g>
<g id="Layer_13">
</g>
<g id="Layer_14">
</g>
<g id="Layer_15">
</g>
<g id="Layer_16">
</g>
<g id="Layer_17">
</g>
<g id="Layer_18">
</g>
<g id="Layer_19">
</g>
<g id="Layer_20">
</g>
<g id="Layer_21">
</g>
<g id="Layer_22">
</g>
<g id="Layer_23">
</g>
<g id="Layer_24">
</g>
<g id="Layer_25">
</g>
<g id="Layer_26">
</g>
<g id="Layer_27">
</g>
<g id="Layer_28">
</g>
<g id="Layer_29">
</g>
<g id="Layer_30">
</g>
<g id="Layer_31">
</g>
<g id="Layer_32">
</g>
<g id="Layer_33">
</g>
<g id="Layer_34">
</g>
<g id="Layer_35">
</g>
<g id="Layer_36">
</g>
<g id="Layer_37">
</g>
<g id="Layer_38">
	<g>
		<path class="st13" d="M186.217,101.834c0,0-4.457-4.457-11.142-16.713c-2.197-4.028-3.465-11.941-7.183-20
			c1.37-3.677,3.476-7.77,6.563-12.311c14.472-21.283,10.081-39.964,7.204-47.594c-0.798-2.117-3.139-3.228-5.277-2.486
			c-27.965,9.699-36.339,29.476-38.803,39.058c-11.947-2.59-21.329-0.893-23.227-0.677c-1.898-0.216-11.28-1.914-23.227,0.677
			C88.662,32.206,80.287,12.429,52.323,2.73c-2.137-0.741-4.478,0.37-5.277,2.486c-2.878,7.63-7.269,26.311,7.204,47.594
			c3.088,4.541,5.193,8.635,6.563,12.311c-3.718,8.058-4.986,15.972-7.183,20c-6.685,12.256-11.142,16.713-11.142,16.713h10.028
			c-4.457,4.457-5.571,15.598-5.571,15.598c6.685-3.343,15.598-3.343,15.598-3.343v6.685c0,0,23.398,2.228,28.968,18.941
			c3.679,11.037,12.458,14.055,17.998,14.832c1.523,0.98,3.196,1.593,4.843,1.593c1.646,0,3.319-0.614,4.843-1.593
			c5.54-0.778,14.319-3.795,17.998-14.832c5.571-16.713,28.968-18.941,28.968-18.941v-6.685c0,0,8.913,0,15.598,3.343
			c0,0-1.114-11.142-5.571-15.598H186.217z"/>
		<path class="st1" d="M182.856,8.894c-3.367-0.926-8.984,1.109-18.366,10.49l-7.799,8.913h5.571l-8.913,7.799l10.028,2.228
			c0,0-7.492,2.247-12.646,9.814l17.32,16.579c1.372-3.573,3.429-7.531,6.405-11.909C186.975,34.399,185.377,17.942,182.856,8.894z"
			/>
		<path class="st1" d="M65.329,38.326l10.028-2.228l-8.913-7.799h5.571l-7.799-8.913c-9.381-9.381-14.999-11.416-18.365-10.49
			c-2.522,9.047-4.119,25.505,8.4,43.916c2.977,4.378,5.033,8.335,6.405,11.909l17.321-16.577
			C72.822,40.574,65.329,38.326,65.329,38.326z"/>
		<path class="st13" d="M166.927,238.338c-1.778-0.496-3.663-0.654-5.44-0.629c-0.254,0.004-0.506,0.011-0.754,0.022
			c-1.244,0.053-2.419,0.188-3.445,0.349c-0.2,0.031-0.395,0.034-0.581,0.01c-1.304-0.161-2.196-1.559-1.647-2.866
			c0.013-0.031,0.026-0.063,0.039-0.094l0,0.001c9.201-21.939,16.378-45.566,9.611-52.333c-1.611-1.611-3.286-2.407-4.949-2.64
			c-0.306-12.542-2.783-24.23-6.87-34.219c-1.413-0.314-3.538-0.511-6.116,0.116c-0.287,0.07-0.456,0.41-0.362,0.724
			c0.523,1.744,1.93,7.218,1.26,13.747c-0.051,0.499-0.612,0.69-0.888,0.296c-0.732-1.043-2.004-2.577-3.7-3.548
			c-0.312-0.179-0.686,0.044-0.728,0.435c-0.269,2.513-1.483,10.699-6.322,17.745c-0.237,0.346-0.721,0.26-0.859-0.149
			c-0.286-0.845-0.81-2.121-1.664-3.31c-0.244-0.339-0.725-0.242-0.854,0.169c-1.071,3.411-5.594,15.513-17.19,20.761
			c-0.792,0.359-1.681,0.359-2.473,0c-11.596-5.249-16.12-17.351-17.19-20.761c-0.129-0.412-0.61-0.509-0.854-0.169
			c-0.854,1.189-1.378,2.465-1.664,3.31c-0.138,0.409-0.622,0.495-0.859,0.149c-4.839-7.045-6.053-15.232-6.322-17.745
			c-0.042-0.392-0.416-0.614-0.728-0.435c-1.696,0.971-2.968,2.505-3.7,3.548c-0.276,0.394-0.837,0.203-0.888-0.296
			c-0.67-6.529,0.737-12.004,1.26-13.747c0.094-0.314-0.074-0.654-0.362-0.724c-2.421-0.589-4.436-0.448-5.845-0.169
			c-4.161,10.15-6.661,22.056-6.906,34.835c-1.66,0.235-3.331,1.031-4.94,2.639c-6.767,6.767,0.411,30.394,9.611,52.333l0-0.001
			c0.013,0.031,0.026,0.063,0.039,0.094c0.549,1.307-0.344,2.705-1.647,2.867c-0.186,0.023-0.381,0.021-0.581-0.01
			c-1.026-0.161-2.201-0.296-3.445-0.349c-0.249-0.011-0.501-0.018-0.754-0.022c-1.777-0.025-3.661,0.133-5.44,0.629
			c-4.827,1.345-8.874,5.18-7.883,14.601h25.272h22.211c0.358,0,0.708-0.037,1.046-0.107c0.675-0.14,1.301-0.412,1.849-0.789
			c0.274-0.188,0.529-0.403,0.762-0.639c0.255-0.26,0.475-0.552,0.671-0.861c2.8,0.826,5.689,1.273,8.646,1.273
			c3.028,0,5.986-0.464,8.848-1.329c0.932,1.427,2.428,2.451,4.125,2.451h0h22.211h0h25.272
			C175.802,244.079,171.754,239.683,166.927,238.338z"/>
		<path class="st8" d="M157.288,238.079c-1.601,0.25-2.856-1.362-2.229-2.856c0.013-0.031,0.026-0.062,0.039-0.094
			c-0.449,0.889-3.162,5.673-9.893,6.954c2.564,0.894,4.254,2.127,5.336,3.45c0.682,0.834,1.129,1.7,1.415,2.535
			c0.143,0.417,0.245,0.826,0.317,1.219c0.036,0.196,0.064,0.389,0.085,0.576c0.188,1.65-1.16,3.638-2.821,3.638h25.272
			C176.48,237.632,163.857,237.051,157.288,238.079z"/>
		<path class="st8" d="M123.05,227.127c-0.388,6.079-0.704,12.995-0.846,20.593c-0.053,2.867,2.255,5.781,5.123,5.781h22.211
			c1.661,0,3.009-1.987,2.821-3.638c-0.341-2.995-2.373-7.295-10.846-8.707c-5.906-0.984-5.383-6.067-2.812-14.028H123.05z"/>
		<path class="st8" d="M71.417,238.641c1.601,0.25,2.856-1.362,2.229-2.856c-0.013-0.031-0.026-0.062-0.039-0.094
			c0.449,0.889,3.162,5.673,9.893,6.954c-2.564,0.894-4.254,2.127-5.336,3.45c-0.682,0.834-1.129,1.7-1.415,2.535
			c-0.143,0.417-0.245,0.826-0.317,1.219c-0.036,0.196-0.064,0.389-0.085,0.576c-0.188,1.65,1.16,3.076,2.821,3.076H53.895
			C52.225,237.632,64.848,237.612,71.417,238.641z"/>
		<path class="st8" d="M105.656,227.688c0.388,6.079,0.704,12.995,0.846,20.593c0.053,2.867-2.255,5.219-5.123,5.219H79.168
			c-1.661,0-3.009-1.426-2.821-3.076c0.341-2.995,2.373-7.295,10.846-8.707c5.906-0.984,5.383-6.067,2.812-14.028H105.656z"/>
		<g>
			<path class="st1" d="M146.413,146.778c-0.094-0.315,0.074-0.654,0.362-0.724c3.38-0.822,5.99-0.227,7.225,0.189
				c0.357,0.12,0.698-0.233,0.63-0.646c-1.751-10.56-4.798-16.184-6.609-18.744c-4.625,2.83-8.85,6.931-10.827,12.862
				c-1.051,3.154-2.739,6.182-5.106,8.611c0.006-0.011,0.01-0.023,0.016-0.034c-1.296,1.332-2.712,2.342-2.272,2.011
				c-0.918,8.154-7.492,14.481-15.478,14.481s-14.561-6.327-15.478-14.481c0.446,0.334-0.966-0.669-2.272-2.011
				c0.006,0.011,0.01,0.023,0.016,0.034c-2.363-2.424-4.053-5.451-5.106-8.611c-2.002-6.005-6.307-10.132-10.999-12.966
				c-1.802,2.511-4.908,8.149-6.681,18.847c-0.069,0.413,0.273,0.766,0.629,0.646c1.234-0.417,3.844-1.011,7.225-0.189
				c0.287,0.07,0.456,0.41,0.362,0.724c-0.523,1.744-1.93,7.218-1.26,13.747c0.051,0.499,0.612,0.69,0.888,0.296
				c0.732-1.043,2.004-2.577,3.7-3.548c0.312-0.179,0.686,0.044,0.728,0.435c0.269,2.513,1.483,10.699,6.322,17.745
				c0.237,0.346,0.721,0.26,0.859-0.149c0.286-0.845,0.81-2.121,1.664-3.31c0.244-0.339,0.725-0.242,0.854,0.169
				c1.071,3.411,5.594,15.513,17.19,20.761c0.792,0.359,1.681,0.359,2.473,0c11.596-5.249,16.12-17.351,17.19-20.761
				c0.129-0.412,0.61-0.509,0.854-0.169c0.854,1.189,1.378,2.465,1.664,3.31c0.138,0.409,0.622,0.495,0.859,0.149
				c4.839-7.045,6.053-15.232,6.322-17.745c0.042-0.392,0.416-0.614,0.728-0.435c1.696,0.971,2.968,2.505,3.7,3.548
				c0.276,0.394,0.837,0.203,0.888-0.296C148.343,153.996,146.936,148.522,146.413,146.778z"/>
		</g>
		<path class="st13" d="M119.211,154.538c-1.528,0.985-3.207,1.603-4.859,1.603c-1.652,0-3.331-0.617-4.859-1.603
			c-3.03-0.429-7.018-1.524-10.62-4.236c0.918,8.154,7.492,14.482,15.478,14.482s14.561-6.327,15.478-14.482
			C126.23,153.014,122.241,154.109,119.211,154.538z"/>
		<path class="st13" d="M250.761,81.851c-8.777-40.381-5.796-63.041-2.871-73.602c0.939-3.39-2.172-6.559-5.546-5.563
			c-31.249,9.226-58.844,41.294-68.025,80.799c0.045,0.108,0.088,0.222,0.134,0.327c0.046,0.106,0.091,0.214,0.138,0.316
			c0.158,0.35,0.318,0.685,0.485,0.992c6.685,12.256,11.142,16.713,11.142,16.713h-10.028c4.457,4.457,5.571,15.599,5.571,15.599
			c-3.464-1.732-7.518-2.563-10.629-2.965c0.106,4.342,0.417,8.718,1.007,13.119c2.988,22.299-3.811,37.463-12.627,47.534
			c0.119,1.663,0.208,3.34,0.249,5.037c1.663,0.233,3.338,1.029,4.949,2.64c4.259,4.259,2.992,15.2-0.825,28.193
			C235.113,213.412,262.848,137.462,250.761,81.851z"/>
		<path class="st8" d="M125.199,145.354c0,4.468-5.561,10.787-10.846,10.787c-5.285,0-10.846-6.319-10.846-10.787
			s5.561-4.813,10.846-4.813C119.638,140.541,125.199,140.885,125.199,145.354z"/>
		<path class="st1" d="M175.075,85.121c-1.477-2.708-2.536-7.178-4.198-12.263c-29.267-10.106-39.574,2.749-43.122,14.786
			c-2.128,7.219-1.992,14.917,0.031,22.166l6.079,21.781c1.639,5.874,0.821,11.796-1.777,16.734
			c2.065-2.115,3.873-4.911,5.106-8.611c5.571-16.713,28.968-18.941,28.968-18.941v-6.685c0,0,8.913,0,15.598,3.343
			c0,0-1.114-11.142-5.571-15.598h10.028C186.217,101.834,181.76,97.377,175.075,85.121z"/>
		<path class="st1" d="M53.63,85.121c1.477-2.708,2.536-7.178,4.198-12.263c29.267-10.106,39.574,2.749,43.122,14.786
			c2.128,7.219,1.992,14.917-0.031,22.166l-6.079,21.781c-1.639,5.874-0.821,11.796,1.777,16.734
			c-2.065-2.115-3.873-4.911-5.106-8.611c-5.571-16.713-28.968-18.941-28.968-18.941v-6.685c0,0-8.913,0-15.598,3.343
			c0,0,1.114-11.142,5.571-15.598H42.489C42.489,101.834,46.945,97.377,53.63,85.121z"/>
		<path class="st1" d="M247.89,8.249c0.939-3.39-2.172-6.559-5.546-5.563c-27.337,8.071-51.878,33.625-63.741,66.345
			c5.386-3.393,9.911-7.233,14.708-11.472c0.646-0.57,1.669-0.143,1.696,0.718c0.196,6.243,1.718,12.486,2.862,18.623
			c2.92-4.846,7.712-9.691,11.047-14.537c0.492-0.714,1.584-0.531,1.824,0.302c1.593,5.53,2.374,10.916,4.795,16.098
			c0.355,0.76,1.42,0.786,1.83,0.054c3.343-5.966,7.363-11.255,10.74-17.186c0.502-0.883,1.797-0.809,2.216,0.116
			c2.974,6.565,5.38,11.122,8.744,16.814c0.511,0.864,1.824,0.562,1.895-0.439c0.423-6.009,2.484-12.975,5.73-19.353
			C243.236,32.519,245.578,16.599,247.89,8.249z"/>
		<g>
			<path class="st7" d="M157.288,238.079c-1.601,0.25-2.856-1.362-2.229-2.856c9.219-21.965,16.426-45.65,9.65-52.426
				c-5.262-5.262-11.201-1.903-15.218,1.778c-1.346,30.605-21.498,54.327-7.979,56.58c8.473,1.412,10.505,5.712,10.846,8.707
				c0.188,1.65-1.16,3.638-2.821,3.638h25.272C176.48,237.632,163.857,237.051,157.288,238.079z"/>
		</g>
		<path class="st7" d="M125.801,199.631c0,0-3.057,19.152-3.597,48.088c-0.054,2.867,2.255,5.78,5.123,5.78h22.211
			c1.661,0,3.009-1.987,2.821-3.638c-0.341-2.995-2.373-7.295-10.846-8.707c-15.242-2.54,12.324-32.369,7.473-68.588"/>
		<g>
			<path class="st7" d="M71.417,238.641c1.601,0.25,2.856-1.362,2.228-2.856c-9.219-21.965-16.426-45.65-9.65-52.426
				c5.262-5.262,11.201-1.903,15.218,1.778c1.346,30.605,21.498,54.327,7.979,56.58c-8.473,1.412-10.505,5.712-10.846,8.707
				c-0.188,1.65,1.16,3.076,2.821,3.076H53.895C52.225,237.632,64.848,237.612,71.417,238.641z"/>
		</g>
		<path class="st7" d="M102.904,200.192c0,0,3.057,19.152,3.597,48.088c0.054,2.867-2.255,5.219-5.123,5.219H79.168
			c-1.661,0-3.009-1.426-2.821-3.077c0.341-2.995,2.373-7.295,10.846-8.707c15.321-2.553-12.61-32.678-7.395-69.149"/>
		<path class="st7" d="M168.05,64.719c1.372-3.573,3.429-7.531,6.405-11.909c12.519-18.411,10.922-34.868,8.4-43.916
			c-3.367-0.926-8.984,1.109-18.366,10.49l-7.799,8.913h5.571l-8.913,7.799l10.028,2.228c0,0-7.492,2.247-12.646,9.814"/>
		<path class="st7" d="M77.976,48.142c-5.154-7.568-12.647-9.816-12.647-9.816l10.028-2.228l-8.913-7.799h5.571l-7.799-8.913
			c-9.381-9.381-14.999-11.416-18.365-10.49c-2.522,9.047-4.119,25.505,8.4,43.916c2.977,4.378,5.033,8.335,6.405,11.909"/>
		<line class="st7" x1="132.896" y1="137.772" x2="179.06" y2="140.544"/>
		<line class="st7" x1="132.094" y1="145.39" x2="170.462" y2="155.314"/>
		<line class="st7" x1="95.81" y1="137.772" x2="49.645" y2="140.544"/>
		<line class="st7" x1="96.611" y1="145.39" x2="58.243" y2="155.314"/>
		<path class="st7" d="M166.927,238.338c-1.778-0.496-3.663-0.654-5.44-0.629c-0.254,0.004-0.506,0.011-0.754,0.022
			c-1.244,0.053-2.419,0.188-3.445,0.349c-0.2,0.031-0.395,0.034-0.581,0.01c-1.304-0.161-2.196-1.559-1.647-2.866
			c0.013-0.031,0.026-0.063,0.039-0.094l0,0.001c9.201-21.939,16.378-45.566,9.611-52.333c-1.611-1.611-3.286-2.407-4.949-2.64
			c-0.306-12.542-2.783-24.23-6.87-34.219c-1.413-0.314-3.538-0.511-6.116,0.116c-0.287,0.07-0.456,0.41-0.362,0.724
			c0.523,1.744,1.93,7.218,1.26,13.747c-0.051,0.499-0.612,0.69-0.888,0.296c-0.732-1.043-2.004-2.577-3.7-3.548
			c-0.312-0.179-0.686,0.044-0.728,0.435c-0.269,2.513-1.483,10.699-6.322,17.745c-0.237,0.346-0.721,0.26-0.859-0.149
			c-0.286-0.845-0.81-2.121-1.664-3.31c-0.244-0.339-0.725-0.242-0.854,0.169c-1.071,3.411-5.594,15.513-17.19,20.761
			c-0.792,0.359-1.681,0.359-2.473,0c-11.596-5.249-16.12-17.351-17.19-20.761c-0.129-0.412-0.61-0.509-0.854-0.169
			c-0.854,1.189-1.378,2.465-1.664,3.31c-0.138,0.409-0.622,0.495-0.859,0.149c-4.839-7.045-6.053-15.232-6.322-17.745
			c-0.042-0.392-0.416-0.614-0.728-0.435c-1.696,0.971-2.968,2.505-3.7,3.548c-0.276,0.394-0.837,0.203-0.888-0.296
			c-0.67-6.529,0.737-12.004,1.26-13.747c0.094-0.314-0.074-0.654-0.362-0.724c-2.421-0.589-4.436-0.448-5.845-0.169
			c-4.161,10.15-6.661,22.056-6.906,34.835c-1.66,0.235-3.331,1.031-4.94,2.639c-6.767,6.767,0.411,30.394,9.611,52.333l0-0.001
			c0.013,0.031,0.026,0.063,0.039,0.094c0.549,1.307-0.344,2.705-1.647,2.867c-0.186,0.023-0.381,0.021-0.581-0.01
			c-1.026-0.161-2.201-0.296-3.445-0.349c-0.249-0.011-0.501-0.018-0.754-0.022c-1.777-0.025-3.661,0.133-5.44,0.629
			c-4.827,1.345-8.874,5.18-7.883,14.601h25.272h22.211c0.358,0,0.708-0.037,1.046-0.107c0.675-0.14,1.301-0.412,1.849-0.789
			c0.274-0.188,0.529-0.403,0.762-0.639c0.255-0.26,0.475-0.552,0.671-0.861c2.8,0.826,5.689,1.273,8.646,1.273
			c3.028,0,5.986-0.464,8.848-1.329c0.932,1.427,2.428,2.451,4.125,2.451h0h22.211h0h25.272
			C175.802,244.079,171.754,239.683,166.927,238.338z"/>
		<path class="st7" d="M136.252,105.116c-0.013-4.043,3.254-7.332,7.298-7.345c4.043-0.013,7.332,3.254,7.345,7.298"/>
		<path class="st7" d="M77.097,105.092c0-4.044,3.278-7.321,7.321-7.321s7.321,3.278,7.321,7.321"/>
		<path class="st7" d="M157.288,238.079c-1.601,0.25-2.856-1.362-2.229-2.856c0.013-0.031,0.026-0.062,0.039-0.094
			c-0.449,0.889-3.162,5.673-9.893,6.954c2.564,0.894,4.254,2.127,5.336,3.45c0.682,0.834,1.129,1.7,1.415,2.535
			c0.143,0.417,0.245,0.826,0.317,1.219c0.036,0.196,0.064,0.389,0.085,0.576c0.188,1.65-1.16,3.638-2.821,3.638h25.272
			C176.48,237.632,163.857,237.051,157.288,238.079z"/>
		<path class="st7" d="M123.05,227.127c-0.388,6.079-0.704,12.995-0.846,20.593c-0.053,2.867,2.255,5.781,5.123,5.781h22.211
			c1.661,0,3.009-1.987,2.821-3.638c-0.341-2.995-2.373-7.295-10.846-8.707c-5.906-0.984-5.383-6.067-2.812-14.028H123.05z"/>
		<path class="st7" d="M71.417,238.641c1.601,0.25,2.856-1.362,2.229-2.856c-0.013-0.031-0.026-0.062-0.039-0.094
			c0.449,0.889,3.162,5.673,9.893,6.954c-2.564,0.894-4.254,2.127-5.336,3.45c-0.682,0.834-1.129,1.7-1.415,2.535
			c-0.143,0.417-0.245,0.826-0.317,1.219c-0.036,0.196-0.064,0.389-0.085,0.576c-0.188,1.65,1.16,3.076,2.821,3.076H53.895
			C52.225,237.632,64.848,237.612,71.417,238.641z"/>
		<path class="st7" d="M105.656,227.688c0.388,6.079,0.704,12.995,0.846,20.593c0.053,2.867-2.255,5.219-5.123,5.219H79.168
			c-1.661,0-3.009-1.426-2.821-3.076c0.341-2.995,2.373-7.295,10.846-8.707c5.906-0.984,5.383-6.067,2.812-14.028H105.656z"/>
		<g>
			<path class="st7" d="M146.413,146.778c-0.094-0.315,0.074-0.654,0.362-0.724c3.38-0.822,5.99-0.227,7.225,0.189
				c0.357,0.12,0.698-0.233,0.63-0.646c-1.751-10.56-4.798-16.184-6.609-18.744c-4.625,2.83-8.85,6.931-10.827,12.862
				c-1.051,3.154-2.739,6.182-5.106,8.611c0.006-0.011,0.01-0.023,0.016-0.034c-1.296,1.332-2.712,2.342-2.272,2.011
				c-0.918,8.154-7.492,14.481-15.478,14.481s-14.561-6.327-15.478-14.481c0.446,0.334-0.966-0.669-2.272-2.011
				c0.006,0.011,0.01,0.023,0.016,0.034c-2.363-2.424-4.053-5.451-5.106-8.611c-2.002-6.005-6.307-10.132-10.999-12.966
				c-1.802,2.511-4.908,8.149-6.681,18.847c-0.069,0.413,0.273,0.766,0.629,0.646c1.234-0.417,3.844-1.011,7.225-0.189
				c0.287,0.07,0.456,0.41,0.362,0.724c-0.523,1.744-1.93,7.218-1.26,13.747c0.051,0.499,0.612,0.69,0.888,0.296
				c0.732-1.043,2.004-2.577,3.7-3.548c0.312-0.179,0.686,0.044,0.728,0.435c0.269,2.513,1.483,10.699,6.322,17.745
				c0.237,0.346,0.721,0.26,0.859-0.149c0.286-0.845,0.81-2.121,1.664-3.31c0.244-0.339,0.725-0.242,0.854,0.169
				c1.071,3.411,5.594,15.513,17.19,20.761c0.792,0.359,1.681,0.359,2.473,0c11.596-5.249,16.12-17.351,17.19-20.761
				c0.129-0.412,0.61-0.509,0.854-0.169c0.854,1.189,1.378,2.465,1.664,3.31c0.138,0.409,0.622,0.495,0.859,0.149
				c4.839-7.045,6.053-15.232,6.322-17.745c0.042-0.392,0.416-0.614,0.728-0.435c1.696,0.971,2.968,2.505,3.7,3.548
				c0.276,0.394,0.837,0.203,0.888-0.296C148.343,153.996,146.936,148.522,146.413,146.778z"/>
		</g>
		<path class="st7" d="M119.211,154.538c-1.528,0.985-3.207,1.603-4.859,1.603c-1.652,0-3.331-0.617-4.859-1.603
			c-3.03-0.429-7.018-1.524-10.62-4.236c0.918,8.154,7.492,14.482,15.478,14.482s14.561-6.327,15.478-14.482
			C126.23,153.014,122.241,154.109,119.211,154.538z"/>
		<path class="st7" d="M186.217,101.834c0,0-4.457-4.457-11.142-16.713c-2.197-4.028-3.465-11.941-7.183-20
			c1.37-3.677,3.476-7.77,6.563-12.311c14.472-21.283,10.081-39.964,7.204-47.594c-0.798-2.117-3.139-3.228-5.277-2.486
			c-27.965,9.699-36.339,29.476-38.803,39.058c-11.947-2.59-21.329-0.893-23.227-0.677c-1.898-0.216-11.28-1.914-23.227,0.677
			C88.662,32.206,80.287,12.429,52.323,2.73c-2.137-0.741-4.478,0.37-5.277,2.486c-2.878,7.63-7.269,26.311,7.204,47.594
			c3.088,4.541,5.193,8.635,6.563,12.311c-3.718,8.058-4.986,15.972-7.183,20c-6.685,12.256-11.142,16.713-11.142,16.713h10.028
			c-4.457,4.457-5.571,15.598-5.571,15.598c6.685-3.343,15.598-3.343,15.598-3.343v6.685c0,0,23.398,2.228,28.968,18.941
			c3.679,11.037,12.458,14.055,17.998,14.832c1.523,0.98,3.196,1.593,4.843,1.593c1.646,0,3.319-0.614,4.843-1.593
			c5.54-0.778,14.319-3.795,17.998-14.832c5.571-16.713,28.968-18.941,28.968-18.941v-6.685c0,0,8.913,0,15.598,3.343
			c0,0-1.114-11.142-5.571-15.598H186.217z"/>
		<path class="st7" d="M250.761,81.851c-8.777-40.381-5.796-63.041-2.871-73.602c0.939-3.39-2.172-6.559-5.546-5.563
			c-31.249,9.226-58.844,41.294-68.025,80.799c0.045,0.108,0.088,0.222,0.134,0.327c0.046,0.106,0.091,0.214,0.138,0.316
			c0.158,0.35,0.318,0.685,0.485,0.992c6.685,12.256,11.142,16.713,11.142,16.713h-10.028c4.457,4.457,5.571,15.599,5.571,15.599
			c-3.464-1.732-7.518-2.563-10.629-2.965c0.106,4.342,0.417,8.718,1.007,13.119c2.988,22.299-3.811,37.463-12.627,47.534
			c0.119,1.663,0.208,3.34,0.249,5.037c1.663,0.233,3.338,1.029,4.949,2.64c4.259,4.259,2.992,15.2-0.825,28.193
			C235.113,213.412,262.848,137.462,250.761,81.851z"/>
		<path class="st7" d="M125.199,145.354c0,4.468-5.561,10.787-10.846,10.787c-5.285,0-10.846-6.319-10.846-10.787
			s5.561-4.813,10.846-4.813C119.638,140.541,125.199,140.885,125.199,145.354z"/>
		<path class="st7" d="M175.075,85.121c-1.477-2.708-2.536-7.178-4.198-12.263c-29.267-10.106-39.574,2.749-43.122,14.786
			c-2.128,7.219-1.992,14.917,0.031,22.166l6.079,21.781c1.639,5.874,0.821,11.796-1.777,16.734
			c2.065-2.115,3.873-4.911,5.106-8.611c5.571-16.713,28.968-18.941,28.968-18.941v-6.685c0,0,8.913,0,15.598,3.343
			c0,0-1.114-11.142-5.571-15.598h10.028C186.217,101.834,181.76,97.377,175.075,85.121z"/>
		<path class="st7" d="M53.63,85.121c1.477-2.708,2.536-7.178,4.198-12.263c29.267-10.106,39.574,2.749,43.122,14.786
			c2.128,7.219,1.992,14.917-0.031,22.166l-6.079,21.781c-1.639,5.874-0.821,11.796,1.777,16.734
			c-2.065-2.115-3.873-4.911-5.106-8.611c-5.571-16.713-28.968-18.941-28.968-18.941v-6.685c0,0-8.913,0-15.598,3.343
			c0,0,1.114-11.142,5.571-15.598H42.489C42.489,101.834,46.945,97.377,53.63,85.121z"/>
		<path class="st7" d="M247.89,8.249c0.939-3.39-2.172-6.559-5.546-5.563c-27.337,8.071-51.878,33.625-63.741,66.345
			c5.386-3.393,9.911-7.233,14.708-11.472c0.646-0.57,1.669-0.143,1.696,0.718c0.196,6.243,1.718,12.486,2.862,18.623
			c2.92-4.846,7.712-9.691,11.047-14.537c0.492-0.714,1.584-0.531,1.824,0.302c1.593,5.53,2.374,10.916,4.795,16.098
			c0.355,0.76,1.42,0.786,1.83,0.054c3.343-5.966,7.363-11.255,10.74-17.186c0.502-0.883,1.797-0.809,2.216,0.116
			c2.974,6.565,5.38,11.122,8.744,16.814c0.511,0.864,1.824,0.562,1.895-0.439c0.423-6.009,2.484-12.975,5.73-19.353
			C243.236,32.519,245.578,16.599,247.89,8.249z"/>
	</g>
</g>
<g id="Layer_39">
</g>
<g id="Layer_40">
</g>
<g id="Layer_41">
</g>
<g id="Layer_42">
</g>
<g id="Layer_43">
</g>
<g id="Layer_44">
</g>
<g id="Layer_45">
</g>
<g id="Layer_46">
</g>
<g id="Layer_47">
</g>
<g id="Layer_48">
</g>
<g id="Layer_49">
</g>
<g id="Layer_50">
</g>
<g id="Layer_51">
</g>
<g id="Layer_52">
</g>
<g id="Layer_53">
</g>
<g id="Layer_54">
</g>
<g id="Layer_55">
</g>
<g id="Layer_56">
</g>
<g id="Layer_57">
</g>
<g id="Layer_58">
</g>
<g id="Layer_59">
</g>
<g id="Layer_60">
</g>
<g id="Layer_61">
</g>
<g id="Layer_62">
</g>
<g id="Layer_63">
</g>
<g id="Layer_64">
</g>
<g id="Layer_65">
</g>
<g id="Layer_66">
</g>
<g id="Layer_67">
</g>
<g id="Layer_68">
</g>
<g id="Layer_69">
</g>
<g id="Layer_70">
</g>
<g id="Layer_71">
</g>
<g id="Layer_72">
</g>
<g id="Layer_73">
</g>
<g id="Layer_74">
</g>
<g id="Layer_75">
</g>
<g id="Layer_76">
</g>
<g id="Layer_77">
</g>
<g id="Layer_78">
</g>
<g id="Layer_79">
</g>
<g id="Layer_80">
</g>
<g id="Layer_81">
</g>
<g id="Layer_82">
</g>
<g id="Layer_83">
</g>
<g id="Layer_84">
</g>
<g id="Layer_85">
</g>
<g id="Layer_86">
</g>
<g id="Layer_87">
</g>
<g id="Layer_88">
</g>
<g id="Layer_89">
</g>
<g id="Layer_90">
</g>
<g id="Layer_91">
</g>
<g id="Layer_92">
</g>
<g id="Layer_93">
</g>
<g id="Layer_94">
</g>
<g id="Layer_95">
</g>
<g id="Layer_96">
</g>
<g id="Layer_97">
</g>
<g id="Layer_98">
</g>
<g id="Layer_99">
</g>
<g id="Layer_100">
</g>
</svg>
