<?xml version="1.0" encoding="utf-8"?>
<!-- Generator: Adobe Illustrator 22.0.0, SVG Export Plug-In . SVG Version: 6.00 Build 0)  -->
<svg version="1.1" xmlns="http://www.w3.org/2000/svg" xmlns:xlink="http://www.w3.org/1999/xlink" x="0px" y="0px"
	 viewBox="0 0 256 256" style="enable-background:new 0 0 256 256;" xml:space="preserve">
<style type="text/css">
	.st0{fill:#F9BD55;}
	.st1{fill:#F4DBCE;}
	.st2{fill:#52565B;}
	.st3{fill:#FD605B;}
	.st4{fill:#F98080;}
	.st5{fill:#F9E63A;}
	.st6{fill:#039BE6;}
	.st7{fill:none;stroke:#000000;stroke-width:5;stroke-linecap:round;stroke-linejoin:round;stroke-miterlimit:10;}
	.st8{fill:#7D3D1A;}
	.st9{fill:#EAA250;}
	.st10{fill:#DD7F57;}
	.st11{fill:#FFC097;}
	.st12{fill:#F49667;}
	.st13{fill:#F89422;}
	.st14{fill:#E3E4E5;}
	.st15{fill:#6E7175;}
	.st16{fill:#46BAF9;}
	.st17{fill:#D9F3FF;}
	.st18{fill:#828487;}
	.st19{fill:#A8AEB2;}
	.st20{fill:#C9CDD1;}
	.st21{fill:#8CD8F9;}
	.st22{fill:#1AA7E5;}
	.st23{fill:#ACE7FC;}
	.st24{fill:#FFFFFF;}
	.st25{fill:#9E512B;}
	.st26{fill:#7ED5FC;}
	.st27{fill:#7CCC4E;}
	.st28{fill:#3AA03A;}
	.st29{fill:#FCB1B1;}
	.st30{fill:#F76E23;}
	.st31{fill:#C16A44;}
	.st32{fill:#B796EA;}
</style>
<g id="Layer_1">
</g>
<g id="Layer_2">
</g>
<g id="Layer_3">
</g>
<g id="Layer_4">
</g>
<g id="Layer_5">
</g>
<g id="Layer_6">
</g>
<g id="Layer_7">
</g>
<g id="Layer_8">
</g>
<g id="Layer_9">
</g>
<g id="Layer_10">
</g>
<g id="Layer_11">
</g>
<g id="Layer_12">
</g>
<g id="Layer_13">
</g>
<g id="Layer_14">
</g>
<g id="Layer_15">
</g>
<g id="Layer_16">
</g>
<g id="Layer_17">
</g>
<g id="Layer_18">
</g>
<g id="Layer_19">
</g>
<g id="Layer_20">
	<g>
		<path class="st9" d="M247.001,131.921c6.477-3.441,6.661-8.437,6.442-10.426c-0.055-0.496-0.481-0.864-0.976-0.864h-1.071
			c-0.637,0-1.096-0.6-0.948-1.224c1.493-6.276-3.268-12.336-5.598-14.847c-0.515-0.555-1.427-0.343-1.654,0.382
			c-3.775,12.075-14.044,14.422-21.423,14.436c3.395,4.498,5.833,9.64,7.281,15.094c7.634,2.537,14.307,1.433,17.261,0.684
			c0.74-0.188,0.986-1.117,0.446-1.661C246.292,133.024,246.416,132.232,247.001,131.921z"/>
		<path class="st9" d="M169.515,251.411c0.037-3.478,1.26-10.405,9.869-13.757c0.645-0.251,1.202-0.682,1.571-1.272
			c2.513-4.015,12.285-20.475,12.285-33.653c0-8.23-6.351-12.621-11.623-18.222c0,0-4.048,2.625-10.88,5.232
			c3.511,3.616,6.418,7.425,6.418,12.99c0,13.156-9.738,29.581-12.272,33.632c-0.378,0.604-0.948,1.044-1.609,1.302
			c-8.587,3.355-9.808,10.273-9.845,13.748c-0.012,1.151,0.902,2.089,2.044,2.089h16.085
			C170.417,253.5,169.503,252.561,169.515,251.411z"/>
		<path class="st9" d="M80.324,253.5c-0.134,0-0.265-0.014-0.391-0.04c-0.027-0.005-0.05-0.017-0.076-0.024
			c-0.845-0.21-1.475-0.97-1.476-1.887c0,0,0-0.002,0-0.003l0,0c0-0.111,0.005-0.237,0.007-0.355
			c0.002-0.132,0.002-0.258,0.008-0.398c0.005-0.129,0.017-0.27,0.025-0.405c0.009-0.144,0.014-0.282,0.027-0.432
			c0.01-0.117,0.028-0.243,0.041-0.363c0.019-0.18,0.035-0.356,0.061-0.542c0.012-0.088,0.032-0.181,0.046-0.271
			c0.035-0.226,0.069-0.452,0.116-0.686c0.04-0.198,0.093-0.402,0.141-0.603c0.031-0.13,0.055-0.257,0.09-0.387
			c0.064-0.236,0.143-0.475,0.221-0.714c0.032-0.099,0.057-0.198,0.092-0.298c0.239-0.677,0.539-1.355,0.916-2.014
			c0.037-0.066,0.085-0.128,0.124-0.193c0.157-0.262,0.317-0.524,0.5-0.778c0.092-0.128,0.203-0.249,0.303-0.374
			c0.146-0.185,0.284-0.373,0.446-0.552c0.107-0.118,0.235-0.226,0.349-0.341c0.176-0.176,0.343-0.356,0.536-0.523
			c0.131-0.114,0.285-0.215,0.424-0.324c0.2-0.156,0.39-0.317,0.608-0.463c0.149-0.1,0.321-0.184,0.478-0.279
			c0.234-0.14,0.458-0.287,0.712-0.414c0.158-0.08,0.34-0.143,0.506-0.217c0.279-0.125,0.55-0.256,0.852-0.365
			c0.203-0.073,0.433-0.127,0.647-0.192c0.294-0.09,0.576-0.189,0.891-0.264c0.241-0.058,0.513-0.092,0.767-0.14
			c0.317-0.06,0.619-0.13,0.956-0.174c0.277-0.036,0.53-0.144,0.759-0.287c0.049-0.031,0.103-0.051,0.149-0.086
			c0.032-0.024,0.056-0.057,0.086-0.083c0.219-0.188,0.406-0.416,0.531-0.687c2.415-5.192,12.451-29.084,4.861-52.976
			c0,0-7.744-1.745-15.666-7.601l-0.064,1.158c-0.205,3.711,0.076,7.44,0.901,11.063c5.07,22.277-3.858,43.498-6.117,48.355
			c-0.285,0.613-0.849,1.054-1.516,1.141c-9.752,1.269-10.905,9.298-10.899,13.068c0.002,1.08,0.872,1.95,1.944,1.95l22.839,0
			c0,0,0,0,0.001,0H80.324z"/>
		<path class="st9" d="M133.089,38.642c-2.715-5.081-13.42,1.561-28.4-1.159c-4.246-0.771-7.822-0.424-10.789,0.45
			c-7.553-2.758-15.713-1.828-15.713-1.828S51.054,22.341,38.899,55.191c0,0-18.2,20.402-23.442,19.809S3.805,74.752,2.746,84.258
			s1.144,18.312,9.768,17.148c0,0,2.204,8.806,14.326,4.829c12.122-3.977,12.336,13.16,12.336,13.16l3.852-5.982
			c0,0,3.488,6.812,2.428,16.318c0,0,12.829-10.314,10.047-23.463c0,0,5.243,0.593,6.869,5.055c0,0,1.99-8.331-2.664-14.205
			c0,0,32.964,9.076,44.541-28.118c0.396-1.274,0.73-2.494,1.015-3.672C122.191,63.493,136.099,44.277,133.089,38.642z"/>
		<path class="st4" d="M92.437,63.075c17.866,8.744,36.138-8.373,40.219-18.785l-0.338-0.245c-3.542-1.156-9.404-1.571-17.465,2.799
			c-8.674,4.703-18.656,5.566-25.053,5.535L92.437,63.075z"/>
		<path class="st8" d="M78.187,36.105c0,0,4.677-0.53,10.226,0.407c12.642-20.635,28.38-26.115,41.837-25.92
			c1.531,0.022,2.808-1.161,2.88-2.702v0c0.062-1.324-0.799-2.502-2.063-2.872C93.498-5.985,72.339,21.966,65.533,33.246
			C72.688,33.317,78.187,36.105,78.187,36.105z"/>
		<path class="st9" d="M230.593,144.557c-0.482-10.724-4.497-21.087-11.897-28.811c-21.521-22.462-56.554-9.698-86.044-9.698
			c-18.301,0-28.365-12.905-33.775-24.949c-11.866,19.3-31.519,17.456-37.432,16.391c0.18,1.251,0.327,2.497,0.446,3.743
			c1.678,5.019,0.48,10.09,0.48,10.09c-0.001-0.002-0.002-0.004-0.003-0.007c0.113,10.123-0.486,21.255,1.117,36.321
			c3.217,30.247,32.171,36.728,32.171,36.728c7.589,23.892-2.446,47.783-4.861,52.976c-0.285,0.613-0.849,1.054-1.516,1.141
			c-9.752,1.269-10.905,9.298-10.899,13.068c0.002,1.08,0.871,1.95,1.944,1.95h22.839c6.434,0,4.289-12.963,4.289-12.963
			s-1.072-3.241,4.289-12.963c5.362-9.722,8.579-36.728,8.579-36.728c33.243,11.883,61.297-6.339,61.297-6.339
			c5.272,5.601,11.623,9.992,11.623,18.222c0,13.178-9.771,29.638-12.285,33.653c-0.369,0.59-0.926,1.02-1.571,1.272
			c-8.609,3.352-9.833,10.279-9.869,13.757c-0.012,1.151,0.902,2.089,2.044,2.089h25.97c3.405,0,2.755-7.49,2.343-10.577
			c-0.118-0.879,0.028-1.762,0.424-2.555c2.066-4.139,8.823-17.606,13.318-25.757c3.85-6.981,2.724-18.419,1.783-24.313
			c-0.372-2.332,0.286-4.731,1.835-6.504C228.98,170.356,231.077,155.335,230.593,144.557z"/>
		<path class="st2" d="M199.874,242.94c-0.085-0.642-0.028-1.285,0.158-1.895c-9.132,1.151-16.069-2.605-19.082-4.66
			c-0.38,0.592-0.943,1.026-1.596,1.281c-8.584,3.357-9.803,10.274-9.839,13.748c-0.012,1.15,0.903,2.087,2.044,2.087h25.97
			C200.929,253.5,200.287,246.037,199.874,242.94z"/>
		<path class="st2" d="M107.529,241.076c-7.413,0.857-13.352-1.503-16.88-3.501c-0.309,0.484-0.795,0.831-1.37,0.906
			c-9.752,1.269-10.905,9.298-10.899,13.068c0.002,1.08,0.872,1.95,1.944,1.95h22.839
			C108.807,253.5,107.849,243.524,107.529,241.076z"/>
		<path class="st2" d="M80.324,253.5c-1.072,0-1.942-0.87-1.944-1.95c-0.005-2.76,0.628-7.793,4.785-10.795
			c-3.579-0.694-6.514-1.997-8.6-3.179c-0.076,0.12-0.162,0.23-0.26,0.33c-0.004,0.005-0.009,0.009-0.014,0.013
			c-0.091,0.091-0.186,0.175-0.293,0.247c-0.039,0.027-0.083,0.047-0.124,0.071c-0.08,0.046-0.158,0.094-0.245,0.128
			c-0.138,0.056-0.283,0.097-0.436,0.117c-0.995,0.13-1.879,0.345-2.703,0.604c-0.185,0.058-0.388,0.104-0.566,0.168
			c-2.838,1.025-4.632,2.779-5.767,4.711c-0.023,0.038-0.051,0.075-0.073,0.114c-0.343,0.601-0.617,1.219-0.844,1.836
			c-0.022,0.06-0.051,0.119-0.072,0.179c-0.334,0.946-0.542,1.885-0.674,2.764c-0.151,1.008-0.202,1.938-0.201,2.693
			c0.002,1.08,0.872,1.95,1.944,1.95h22.839c0,0,0,0,0.001,0H80.324z"/>
		<path class="st2" d="M169.515,251.411c0.028-2.653,0.758-7.308,4.917-10.857c-4.395-1.016-7.72-2.91-9.566-4.169
			c-0.378,0.591-0.939,1.024-1.591,1.279c-0.312,0.122-0.595,0.258-0.888,0.39c-0.211,0.094-0.438,0.182-0.639,0.281
			c-0.302,0.148-0.575,0.309-0.856,0.467c-0.166,0.093-0.347,0.18-0.505,0.276c-0.278,0.168-0.528,0.347-0.785,0.523
			c-0.138,0.095-0.29,0.185-0.423,0.282c-0.24,0.177-0.454,0.362-0.675,0.546c-0.126,0.105-0.266,0.206-0.387,0.313
			c-0.179,0.159-0.335,0.325-0.501,0.488c-0.141,0.138-0.293,0.273-0.424,0.413c-0.128,0.137-0.236,0.278-0.356,0.416
			c-0.149,0.172-0.306,0.342-0.442,0.517c-0.106,0.136-0.194,0.274-0.293,0.411c-0.13,0.181-0.268,0.361-0.386,0.543
			c-0.102,0.158-0.187,0.318-0.281,0.476c-0.096,0.163-0.201,0.326-0.289,0.489c-0.079,0.148-0.143,0.296-0.215,0.444
			c-0.086,0.175-0.178,0.35-0.255,0.525c-0.05,0.114-0.088,0.227-0.135,0.34c-0.084,0.207-0.172,0.414-0.244,0.618
			c-0.044,0.123-0.076,0.243-0.116,0.366c-0.062,0.192-0.128,0.385-0.181,0.573c-0.055,0.198-0.098,0.391-0.144,0.585
			c-0.026,0.108-0.057,0.219-0.08,0.325c-0.045,0.211-0.079,0.414-0.113,0.618c-0.014,0.083-0.034,0.171-0.046,0.253
			c-0.027,0.172-0.044,0.335-0.064,0.5c-0.013,0.106-0.031,0.217-0.041,0.321c-0.015,0.149-0.023,0.286-0.033,0.428
			c-0.008,0.11-0.02,0.226-0.026,0.332c-0.006,0.11-0.007,0.209-0.01,0.314c-0.004,0.126-0.011,0.257-0.012,0.375
			c-0.012,1.15,0.902,2.088,2.044,2.088h16.085C170.417,253.5,169.503,252.561,169.515,251.411z"/>
		<path class="st7" d="M53.836,63.235c-0.01-3.154,2.52-5.72,5.651-5.73c3.131-0.01,5.678,2.539,5.688,5.693"/>
		<path class="st7" d="M181.617,184.507c-4.415-4.691-8.073-10.231-6.607-19.586"/>
		<line class="st7" x1="95.656" y1="184.365" x2="92.975" y2="171.942"/>
		<path class="st7" d="M247.001,131.921c6.477-3.441,6.661-8.437,6.442-10.426c-0.055-0.496-0.481-0.864-0.976-0.864h-1.071
			c-0.637,0-1.096-0.6-0.948-1.224c1.493-6.276-3.268-12.336-5.598-14.847c-0.515-0.555-1.427-0.343-1.654,0.382
			c-3.775,12.075-14.044,14.422-21.423,14.436c3.395,4.498,5.833,9.64,7.281,15.094c7.634,2.537,14.307,1.433,17.261,0.684
			c0.74-0.188,0.986-1.117,0.446-1.661C246.292,133.024,246.416,132.232,247.001,131.921z"/>
		<path class="st7" d="M169.515,251.411c0.037-3.478,1.26-10.405,9.869-13.757c0.645-0.251,1.202-0.682,1.571-1.272
			c2.513-4.015,12.285-20.475,12.285-33.653c0-8.23-6.351-12.621-11.623-18.222c0,0-4.048,2.625-10.88,5.232
			c3.511,3.616,6.418,7.425,6.418,12.99c0,13.156-9.738,29.581-12.272,33.632c-0.378,0.604-0.948,1.044-1.609,1.302
			c-8.587,3.355-9.808,10.273-9.845,13.748c-0.012,1.151,0.902,2.089,2.044,2.089h16.085
			C170.417,253.5,169.503,252.561,169.515,251.411z"/>
		<path class="st7" d="M80.324,253.5c-0.134,0-0.265-0.014-0.391-0.04c-0.027-0.005-0.05-0.017-0.076-0.024
			c-0.845-0.21-1.475-0.97-1.476-1.887c0,0,0-0.002,0-0.003l0,0c0-0.111,0.005-0.237,0.007-0.355
			c0.002-0.132,0.002-0.258,0.008-0.398c0.005-0.129,0.017-0.27,0.025-0.405c0.009-0.144,0.014-0.282,0.027-0.432
			c0.01-0.117,0.028-0.243,0.041-0.363c0.019-0.18,0.035-0.356,0.061-0.542c0.012-0.088,0.032-0.181,0.046-0.271
			c0.035-0.226,0.069-0.452,0.116-0.686c0.04-0.198,0.093-0.402,0.141-0.603c0.031-0.13,0.055-0.257,0.09-0.387
			c0.064-0.236,0.143-0.475,0.221-0.714c0.032-0.099,0.057-0.198,0.092-0.298c0.239-0.677,0.539-1.355,0.916-2.014
			c0.037-0.066,0.085-0.128,0.124-0.193c0.157-0.262,0.317-0.524,0.5-0.778c0.092-0.128,0.203-0.249,0.303-0.374
			c0.146-0.185,0.284-0.373,0.446-0.552c0.107-0.118,0.235-0.226,0.349-0.341c0.176-0.176,0.343-0.356,0.536-0.523
			c0.131-0.114,0.285-0.215,0.424-0.324c0.2-0.156,0.39-0.317,0.608-0.463c0.149-0.1,0.321-0.184,0.478-0.279
			c0.234-0.14,0.458-0.287,0.712-0.414c0.158-0.08,0.34-0.143,0.506-0.217c0.279-0.125,0.55-0.256,0.852-0.365
			c0.203-0.073,0.433-0.127,0.647-0.192c0.294-0.09,0.576-0.189,0.891-0.264c0.241-0.058,0.513-0.092,0.767-0.14
			c0.317-0.06,0.619-0.13,0.956-0.174c0.277-0.036,0.53-0.144,0.759-0.287c0.049-0.031,0.103-0.051,0.149-0.086
			c0.032-0.024,0.056-0.057,0.086-0.083c0.219-0.188,0.406-0.416,0.531-0.687c2.415-5.192,12.451-29.084,4.861-52.976
			c0,0-7.744-1.745-15.666-7.601l-0.064,1.158c-0.205,3.711,0.076,7.44,0.901,11.063c5.07,22.277-3.858,43.498-6.117,48.355
			c-0.285,0.613-0.849,1.054-1.516,1.141c-9.752,1.269-10.905,9.298-10.899,13.068c0.002,1.08,0.872,1.95,1.944,1.95l22.839,0
			c0,0,0,0,0.001,0H80.324z"/>
		<path class="st7" d="M12.514,101.406c0,0,10.373-2.57,19.703-10.071"/>
		<path class="st7" d="M84.657,45.064c1.218-2.404,3.148-4.426,5.624-5.701c3.493-1.8,8.266-2.995,14.407-1.88
			c14.98,2.721,25.686-3.922,28.4,1.159c3.794,7.101-19.273,35.797-41.4,24.057"/>
		<path class="st7" d="M133.089,38.642c-2.715-5.081-13.42,1.561-28.4-1.159c-4.246-0.771-7.822-0.424-10.789,0.45
			c-7.553-2.758-15.713-1.828-15.713-1.828S51.054,22.341,38.899,55.191c0,0-18.2,20.402-23.442,19.809S3.805,74.752,2.746,84.258
			s1.144,18.312,9.768,17.148c0,0,2.204,8.806,14.326,4.829c12.122-3.977,12.336,13.16,12.336,13.16l3.852-5.982
			c0,0,3.488,6.812,2.428,16.318c0,0,12.829-10.314,10.047-23.463c0,0,5.243,0.593,6.869,5.055c0,0,1.99-8.331-2.664-14.205
			c0,0,32.964,9.076,44.541-28.118c0.396-1.274,0.73-2.494,1.015-3.672C122.191,63.493,136.099,44.277,133.089,38.642z"/>
		<path class="st7" d="M132.318,44.045c-3.542-1.156-9.404-1.571-17.465,2.799c-8.674,4.703-18.656,5.566-25.053,5.535"/>
		<path class="st7" d="M78.187,36.105c0,0,4.677-0.53,10.226,0.407c12.642-20.635,28.38-26.115,41.837-25.92
			c1.531,0.022,2.808-1.161,2.88-2.702v0c0.062-1.324-0.799-2.502-2.063-2.872C93.498-5.985,72.339,21.966,65.533,33.246
			C72.688,33.317,78.187,36.105,78.187,36.105z"/>
		<path class="st7" d="M230.593,144.557c-0.482-10.724-4.497-21.087-11.897-28.811c-21.521-22.462-56.554-9.698-86.044-9.698
			c-18.301,0-28.365-12.905-33.775-24.949c-11.866,19.3-31.519,17.456-37.432,16.391c0.18,1.251,0.327,2.497,0.446,3.743
			c1.678,5.019,0.48,10.09,0.48,10.09c-0.001-0.002-0.002-0.004-0.003-0.007c0.113,10.123-0.486,21.255,1.117,36.321
			c3.217,30.247,32.171,36.728,32.171,36.728c7.589,23.892-2.446,47.783-4.861,52.976c-0.285,0.613-0.849,1.054-1.516,1.141
			c-9.752,1.269-10.905,9.298-10.899,13.068c0.002,1.08,0.871,1.95,1.944,1.95h22.839c6.434,0,4.289-12.963,4.289-12.963
			s-1.072-3.241,4.289-12.963c5.362-9.722,8.579-36.728,8.579-36.728c33.243,11.883,61.297-6.339,61.297-6.339
			c5.272,5.601,11.623,9.992,11.623,18.222c0,13.178-9.771,29.638-12.285,33.653c-0.369,0.59-0.926,1.02-1.571,1.272
			c-8.609,3.352-9.833,10.279-9.869,13.757c-0.012,1.151,0.902,2.089,2.044,2.089h25.97c3.405,0,2.755-7.49,2.343-10.577
			c-0.118-0.879,0.028-1.762,0.424-2.555c2.066-4.139,8.823-17.606,13.318-25.757c3.85-6.981,2.724-18.419,1.783-24.313
			c-0.372-2.332,0.286-4.731,1.835-6.504C228.98,170.356,231.077,155.335,230.593,144.557z"/>
		<path class="st7" d="M11.134,83.486c0,0,2.11-2.126,5.276,1.063"/>
		<path class="st7" d="M199.874,242.94c-0.085-0.642-0.028-1.285,0.158-1.895c-9.132,1.151-16.069-2.605-19.082-4.66
			c-0.38,0.592-0.943,1.026-1.596,1.281c-8.584,3.357-9.803,10.274-9.839,13.748c-0.012,1.15,0.903,2.087,2.044,2.087h25.97
			C200.929,253.5,200.287,246.037,199.874,242.94z"/>
		<path class="st7" d="M107.529,241.076c-7.413,0.857-13.352-1.503-16.88-3.501c-0.309,0.484-0.795,0.831-1.37,0.906
			c-9.752,1.269-10.905,9.298-10.899,13.068c0.002,1.08,0.872,1.95,1.944,1.95h22.839
			C108.807,253.5,107.849,243.524,107.529,241.076z"/>
		<path class="st7" d="M80.324,253.5c-1.072,0-1.942-0.87-1.944-1.95c-0.005-2.76,0.628-7.793,4.785-10.795
			c-3.579-0.694-6.514-1.997-8.6-3.179c-0.076,0.12-0.162,0.23-0.26,0.33c-0.004,0.005-0.009,0.009-0.014,0.013
			c-0.091,0.091-0.186,0.175-0.293,0.247c-0.039,0.027-0.083,0.047-0.124,0.071c-0.08,0.046-0.158,0.094-0.245,0.128
			c-0.138,0.056-0.283,0.097-0.436,0.117c-0.995,0.13-1.879,0.345-2.703,0.604c-0.185,0.058-0.388,0.104-0.566,0.168
			c-2.838,1.025-4.632,2.779-5.767,4.711c-0.023,0.038-0.051,0.075-0.073,0.114c-0.343,0.601-0.617,1.219-0.844,1.836
			c-0.022,0.06-0.051,0.119-0.072,0.179c-0.334,0.946-0.542,1.885-0.674,2.764c-0.151,1.008-0.202,1.938-0.201,2.693
			c0.002,1.08,0.872,1.95,1.944,1.95h22.839c0,0,0,0,0.001,0H80.324z"/>
		<path class="st7" d="M169.515,251.411c0.028-2.653,0.758-7.308,4.917-10.857c-4.395-1.016-7.72-2.91-9.566-4.169
			c-0.378,0.591-0.939,1.024-1.591,1.279c-0.312,0.122-0.595,0.258-0.888,0.39c-0.211,0.094-0.438,0.182-0.639,0.281
			c-0.302,0.148-0.575,0.309-0.856,0.467c-0.166,0.093-0.347,0.18-0.505,0.276c-0.278,0.168-0.528,0.347-0.785,0.523
			c-0.138,0.095-0.29,0.185-0.423,0.282c-0.24,0.177-0.454,0.362-0.675,0.546c-0.126,0.105-0.266,0.206-0.387,0.313
			c-0.179,0.159-0.335,0.325-0.501,0.488c-0.141,0.138-0.293,0.273-0.424,0.413c-0.128,0.137-0.236,0.278-0.356,0.416
			c-0.149,0.172-0.306,0.342-0.442,0.517c-0.106,0.136-0.194,0.274-0.293,0.411c-0.13,0.181-0.268,0.361-0.386,0.543
			c-0.102,0.158-0.187,0.318-0.281,0.476c-0.096,0.163-0.201,0.326-0.289,0.489c-0.079,0.148-0.143,0.296-0.215,0.444
			c-0.086,0.175-0.178,0.35-0.255,0.525c-0.05,0.114-0.088,0.227-0.135,0.34c-0.084,0.207-0.172,0.414-0.244,0.618
			c-0.044,0.123-0.076,0.243-0.116,0.366c-0.062,0.192-0.128,0.385-0.181,0.573c-0.055,0.198-0.098,0.391-0.144,0.585
			c-0.026,0.108-0.057,0.219-0.08,0.325c-0.045,0.211-0.079,0.414-0.113,0.618c-0.014,0.083-0.034,0.171-0.046,0.253
			c-0.027,0.172-0.044,0.335-0.064,0.5c-0.013,0.106-0.031,0.217-0.041,0.321c-0.015,0.149-0.023,0.286-0.033,0.428
			c-0.008,0.11-0.02,0.226-0.026,0.332c-0.006,0.11-0.007,0.209-0.01,0.314c-0.004,0.126-0.011,0.257-0.012,0.375
			c-0.012,1.15,0.902,2.088,2.044,2.088h16.085C170.417,253.5,169.503,252.561,169.515,251.411z"/>
	</g>
</g>
<g id="Layer_21">
</g>
<g id="Layer_22">
</g>
<g id="Layer_23">
</g>
<g id="Layer_24">
</g>
<g id="Layer_25">
</g>
<g id="Layer_26">
</g>
<g id="Layer_27">
</g>
<g id="Layer_28">
</g>
<g id="Layer_29">
</g>
<g id="Layer_30">
</g>
<g id="Layer_31">
</g>
<g id="Layer_32">
</g>
<g id="Layer_33">
</g>
<g id="Layer_34">
</g>
<g id="Layer_35">
</g>
<g id="Layer_36">
</g>
<g id="Layer_37">
</g>
<g id="Layer_38">
</g>
<g id="Layer_39">
</g>
<g id="Layer_40">
</g>
<g id="Layer_41">
</g>
<g id="Layer_42">
</g>
<g id="Layer_43">
</g>
<g id="Layer_44">
</g>
<g id="Layer_45">
</g>
<g id="Layer_46">
</g>
<g id="Layer_47">
</g>
<g id="Layer_48">
</g>
<g id="Layer_49">
</g>
<g id="Layer_50">
</g>
<g id="Layer_51">
</g>
<g id="Layer_52">
</g>
<g id="Layer_53">
</g>
<g id="Layer_54">
</g>
<g id="Layer_55">
</g>
<g id="Layer_56">
</g>
<g id="Layer_57">
</g>
<g id="Layer_58">
</g>
<g id="Layer_59">
</g>
<g id="Layer_60">
</g>
<g id="Layer_61">
</g>
<g id="Layer_62">
</g>
<g id="Layer_63">
</g>
<g id="Layer_64">
</g>
<g id="Layer_65">
</g>
<g id="Layer_66">
</g>
<g id="Layer_67">
</g>
<g id="Layer_68">
</g>
<g id="Layer_69">
</g>
<g id="Layer_70">
</g>
<g id="Layer_71">
</g>
<g id="Layer_72">
</g>
<g id="Layer_73">
</g>
<g id="Layer_74">
</g>
<g id="Layer_75">
</g>
<g id="Layer_76">
</g>
<g id="Layer_77">
</g>
<g id="Layer_78">
</g>
<g id="Layer_79">
</g>
<g id="Layer_80">
</g>
<g id="Layer_81">
</g>
<g id="Layer_82">
</g>
<g id="Layer_83">
</g>
<g id="Layer_84">
</g>
<g id="Layer_85">
</g>
<g id="Layer_86">
</g>
<g id="Layer_87">
</g>
<g id="Layer_88">
</g>
<g id="Layer_89">
</g>
<g id="Layer_90">
</g>
<g id="Layer_91">
</g>
<g id="Layer_92">
</g>
<g id="Layer_93">
</g>
<g id="Layer_94">
</g>
<g id="Layer_95">
</g>
<g id="Layer_96">
</g>
<g id="Layer_97">
</g>
<g id="Layer_98">
</g>
<g id="Layer_99">
</g>
<g id="Layer_100">
</g>
</svg>
