<?xml version="1.0" encoding="utf-8"?>
<!-- Generator: Adobe Illustrator 22.0.0, SVG Export Plug-In . SVG Version: 6.00 Build 0)  -->
<svg version="1.1" xmlns="http://www.w3.org/2000/svg" xmlns:xlink="http://www.w3.org/1999/xlink" x="0px" y="0px"
	 viewBox="0 0 256 256" style="enable-background:new 0 0 256 256;" xml:space="preserve">
<style type="text/css">
	.st0{fill:#F9BD55;}
	.st1{fill:#F4DBCE;}
	.st2{fill:#52565B;}
	.st3{fill:#FD605B;}
	.st4{fill:#F98080;}
	.st5{fill:#F9E63A;}
	.st6{fill:#039BE6;}
	.st7{fill:none;stroke:#000000;stroke-width:5;stroke-linecap:round;stroke-linejoin:round;stroke-miterlimit:10;}
	.st8{fill:#7D3D1A;}
	.st9{fill:#EAA250;}
	.st10{fill:#DD7F57;}
	.st11{fill:#FFC097;}
	.st12{fill:#F49667;}
	.st13{fill:#F89422;}
	.st14{fill:#E3E4E5;}
	.st15{fill:#6E7175;}
	.st16{fill:#46BAF9;}
	.st17{fill:#D9F3FF;}
	.st18{fill:#828487;}
	.st19{fill:#A8AEB2;}
	.st20{fill:#C9CDD1;}
	.st21{fill:#8CD8F9;}
	.st22{fill:#1AA7E5;}
	.st23{fill:#ACE7FC;}
	.st24{fill:#FFFFFF;}
	.st25{fill:#9E512B;}
	.st26{fill:#7ED5FC;}
	.st27{fill:#7CCC4E;}
	.st28{fill:#3AA03A;}
	.st29{fill:#FCB1B1;}
	.st30{fill:#F76E23;}
	.st31{fill:#C16A44;}
	.st32{fill:#B796EA;}
</style>
<g id="Layer_1">
</g>
<g id="Layer_2">
</g>
<g id="Layer_3">
</g>
<g id="Layer_4">
</g>
<g id="Layer_5">
</g>
<g id="Layer_6">
</g>
<g id="Layer_7">
</g>
<g id="Layer_8">
</g>
<g id="Layer_9">
</g>
<g id="Layer_10">
</g>
<g id="Layer_11">
</g>
<g id="Layer_12">
</g>
<g id="Layer_13">
</g>
<g id="Layer_14">
</g>
<g id="Layer_15">
</g>
<g id="Layer_16">
</g>
<g id="Layer_17">
</g>
<g id="Layer_18">
</g>
<g id="Layer_19">
</g>
<g id="Layer_20">
</g>
<g id="Layer_21">
</g>
<g id="Layer_22">
</g>
<g id="Layer_23">
</g>
<g id="Layer_24">
</g>
<g id="Layer_25">
</g>
<g id="Layer_26">
</g>
<g id="Layer_27">
</g>
<g id="Layer_28">
	<g>
		<path class="st11" d="M190.282,56.09c5.718-8.324,20.233-32.177,10.595-47.506c-11.082-17.627-39.521,12.282-43.084,16.147
			C174.165,31.038,184.511,45.306,190.282,56.09z"/>
		<path class="st11" d="M98.213,24.737C94.677,20.901,66.211-9.054,55.122,8.584c-9.637,15.329,4.877,39.182,10.595,47.506
			C71.49,45.307,81.841,31.044,98.213,24.737z"/>
		<path class="st2" d="M174.591,35.343c0.583-3.086,1.851-6.784,4.147-11.226c6.857-13.272,15.999-15.782,21.983-15.767
			c-11.19-17.11-39.381,12.535-42.926,16.38C164.319,27.244,169.888,31.021,174.591,35.343z"/>
		<path class="st2" d="M77.263,24.117c2.296,4.443,3.564,8.142,4.147,11.228c4.704-4.322,10.277-8.093,16.804-10.607
			C94.695,20.921,66.477-8.77,55.28,8.35C61.264,8.335,70.405,10.845,77.263,24.117z"/>
		<path class="st13" d="M157.109,24.017c-1.521-2.418-5.243-6.963-11.862-7.242c-0.385-0.016-0.6-0.443-0.366-0.75
			c0.878-1.154,2.772-3.348,5.095-4.279c0.377-0.151,0.416-0.662,0.055-0.846c-2.662-1.36-10.535-4.551-19.187-0.161
			c-1.712,0.869-3.806,0.541-5.2-0.779c-3.081-2.917-9.682-7.281-21.715-7.458c-0.475-0.007-0.667,0.606-0.268,0.863l9.976,6.424
			c0,0-4.153-2.674-13.604,2.496c-0.404,0.221-0.291,0.834,0.167,0.884l2.716,0.296c0.453,0.049,0.582,0.654,0.181,0.871
			c-2.181,1.18-5.884,4.277-6.978,11.949c-0.055,0.386,0.37,0.665,0.706,0.466l3.329-1.973c0.357-0.212,0.791,0.104,0.694,0.507
			c-0.781,3.261-1.852,13.083,10.426,21.382c0.304,0.205,0.722-0.004,0.738-0.37c0.107-2.44,0.79-9.784,5.06-16.949
			c0.212-0.356,0.753-0.275,0.856,0.126c0.48,1.873,1.587,5.668,3.027,7.292c0.238,0.269,0.683,0.157,0.787-0.187
			c0.599-1.984,2.517-7.516,5.492-8.312c0.092-0.025,0.186-0.02,0.276,0.008c1.053,0.325,7.713,2.722,10.224,12.003
			c0.114,0.422,0.708,0.462,0.877,0.059c0.726-1.725,1.77-5.292,0.843-10.206c-0.058-0.308,0.183-0.591,0.496-0.561
			c2.06,0.198,8.807,1.526,12.926,10.407c0.216,0.465,0.91,0.322,0.896-0.191c-0.095-3.604-1.094-10.779-7.123-15.117
			c-0.304-0.219-0.267-0.681,0.082-0.818c1.522-0.597,5.184-1.525,9.761,0.824C156.918,24.893,157.365,24.425,157.109,24.017z"/>
		<path class="st13" d="M209.359,91.696c-0.288-0.557,0.215-1.189,0.823-1.037l1.467,0.367c0.503,0.126,0.979-0.294,0.903-0.807
			c-0.412-2.796-2.521-10.705-13.3-18.496c-1.958-1.415-3.462-3.368-4.339-5.619c-3.551-9.119-14.856-33.192-37.78-41.635
			c-0.109,0.213-0.38,0.34-0.645,0.204c-4.578-2.348-8.239-1.421-9.761-0.824c-0.349,0.137-0.386,0.599-0.082,0.818
			c6.028,4.339,7.027,11.513,7.123,15.117c0.014,0.513-0.681,0.656-0.896,0.191c-4.119-8.881-10.866-10.209-12.926-10.407
			c-0.313-0.03-0.554,0.252-0.496,0.56c0.927,4.914-0.117,8.481-0.843,10.206c-0.17,0.403-0.763,0.363-0.877-0.059
			c-2.51-9.282-9.171-11.678-10.224-12.003c-0.091-0.028-0.184-0.033-0.276-0.008c-2.975,0.796-4.893,6.328-5.492,8.312
			c-0.104,0.344-0.549,0.455-0.787,0.187c-1.44-1.624-2.547-5.419-3.027-7.292c-0.103-0.401-0.644-0.481-0.856-0.126
			c-4.271,7.165-4.953,14.509-5.06,16.949c-0.016,0.366-0.434,0.576-0.738,0.37c-12.278-8.299-11.207-18.121-10.426-21.382
			c0.097-0.404-0.338-0.719-0.694-0.508l-3.329,1.973c-0.336,0.199-0.761-0.08-0.706-0.466c0.036-0.255,0.083-0.491,0.125-0.736
			c-21.161,9.242-31.743,31.797-35.155,40.559c-0.879,2.256-2.39,4.21-4.351,5.628C45.967,79.521,43.86,87.424,43.448,90.219
			c-0.076,0.513,0.4,0.932,0.903,0.807l1.467-0.367c0.608-0.152,1.111,0.48,0.823,1.037c-3.208,6.217-3.439,14.074-3.368,17.459
			c0.014,0.646,0.793,0.958,1.249,0.501l2.795-2.795c0.44-0.44,1.19-0.163,1.239,0.457c2.434,31.174,74.636,34.51,79.443,34.389
			c4.808,0.12,77.009-3.216,79.443-34.389c0.048-0.62,0.799-0.897,1.239-0.457l2.795,2.795c0.457,0.457,1.236,0.144,1.249-0.501
			C212.798,105.771,212.567,97.913,209.359,91.696z"/>
		<path class="st1" d="M164.405,96.373c-2.342-0.852-4.414-1.732-6.277-2.632c0.551,1.579,0.854,3.287,0.854,5.088
			c0,8.506-6.896,15.402-15.402,15.402h-1.628c-3.849,5.521-8.962,9.626-13.952,9.626c-4.79,0-9.695-3.781-13.484-8.967h-2.097
			c-8.506,0-15.402-6.896-15.402-15.402c0-2.251,0.483-4.353,1.323-6.243c-2.108,1.074-4.503,2.12-7.273,3.128
			c-17.453,6.347-19.993,24.023-12.557,37.34c21.343,6.976,46.707,8.064,49.49,7.995c2.755,0.069,27.634-1,48.839-7.787
			C184.419,120.581,181.95,102.753,164.405,96.373z"/>
		<path class="st1" d="M141.151,83.641c0.222,0.424,0.345,0.904,0.345,1.452c0,4.168-6.874,10.03-13.497,10.173v6.449
			c0,6.913,5.604,12.517,12.517,12.517h3.064c8.506,0,15.402-6.896,15.402-15.402v0C158.983,89.168,150.287,82.153,141.151,83.641z"
			/>
		<path class="st1" d="M127.753,95.279c-6.698,0-13.744-5.967-13.744-10.187c0-0.323,0.054-0.616,0.134-0.895
			c-8.872-1.024-17.125,5.878-17.125,15.291v0c0,8.506,6.896,15.402,15.402,15.402h3.064c6.913,0,12.517-5.604,12.517-12.517v-7.108
			C127.918,95.268,127.835,95.279,127.753,95.279z"/>
		<path class="st4" d="M141.497,85.093c0,4.219-7.046,10.187-13.744,10.187s-13.744-5.967-13.744-10.187s7.046-4.545,13.744-4.545
			S141.497,80.874,141.497,85.093z"/>
		<g>
			<path class="st3" d="M140.517,114.232c-6.913,0-12.517-5.604-12.517-12.517v0.659c0,6.913-5.604,12.517-12.517,12.517h-0.967
				c3.789,5.186,8.693,8.967,13.484,8.967c4.99,0,10.103-4.106,13.952-9.626H140.517z"/>
		</g>
		<path class="st1" d="M178.864,216.871c0.949-7.96,11.26-11.158,18.386-7.485c3.947,2.035,6.385,5.746,7.061,9.363
			c9.056-23.989-10.221-65.56-21.672-86.871c-22.185,8.625-51.628,9.906-54.639,9.831c-3.011,0.075-32.454-1.206-54.639-9.831
			c-11.452,21.311-30.728,62.882-21.672,86.871c0.677-3.617,3.114-7.328,7.061-9.362c7.126-3.673,17.436-0.476,18.386,7.485
			c1.482,12.43,8.216,21.981,9.267,28.809c20.26,7.977,38.322,7.82,41.597,7.82s21.338,0.157,41.597-7.82
			C170.648,238.852,177.382,229.301,178.864,216.871z"/>
		<path class="st2" d="M182.639,131.878c-5.739,2.231-11.962,3.967-18.088,5.319c3.239,3.964,6.201,8.456,8.857,13.372
			c-4.729,2.991-14.225,10.241-19.562,22.866c0,0,5.845,1.725,7.928,9.081c0,0,10.532,0.525,21.103-7.791
			c2.792,10.356,4.457,21.648,4.706,33.514c3.171-0.707,6.694-0.386,9.667,1.147c3.947,2.034,6.385,5.745,7.061,9.363
			C213.367,194.759,194.09,153.189,182.639,131.878z"/>
		<path class="st2" d="M82.592,150.568c2.656-4.915,5.619-9.407,8.857-13.372c-6.127-1.352-12.35-3.088-18.088-5.319
			c-11.452,21.311-30.728,62.882-21.672,86.871c0.677-3.617,3.114-7.328,7.061-9.362c2.973-1.533,6.496-1.854,9.667-1.147
			c0.249-11.866,1.914-23.158,4.706-33.514c10.571,8.317,21.103,7.791,21.103,7.791c2.083-7.357,7.928-9.081,7.928-9.081
			C96.817,160.81,87.321,153.56,82.592,150.568z"/>
		<path class="st11" d="M197.25,209.386c-7.126-3.673-17.436-0.476-18.386,7.485c-2.121,17.788-15.014,29.689-6.584,36.135
			c5.816,4.447,32.231-22.314,32.231-32.231C204.511,216.593,201.942,211.805,197.25,209.386z"/>
		<path class="st11" d="M58.75,209.386c7.126-3.673,17.436-0.476,18.386,7.485c2.121,17.788,15.014,29.689,6.584,36.135
			c-5.816,4.447-32.231-22.314-32.231-32.231C51.489,216.593,54.058,211.805,58.75,209.386z"/>
		<path class="st11" d="M153.846,173.435c0,0-11.958-1.939-15.974,7.097c-3.129,7.039,3.492,7.985,6.571,8.06
			c0.735,0.018,1.275,0.68,1.174,1.408c-0.287,2.056-0.262,5.592,3.299,5.592c5.02,0,10.85-2.031,12.858-13.075
			C159.691,175.159,153.846,173.435,153.846,173.435z"/>
		<path class="st11" d="M102.154,173.435c0,0,11.958-1.939,15.974,7.097c3.129,7.039-3.492,7.985-6.571,8.06
			c-0.735,0.018-1.275,0.68-1.174,1.408c0.287,2.056,0.262,5.592-3.299,5.592c-5.02,0-10.85-2.031-12.858-13.075
			C96.309,175.159,102.154,173.435,102.154,173.435z"/>
		<path class="st1" d="M114.143,84.198C114.142,84.198,114.142,84.198,114.143,84.198c0.956-3.365,7.425-3.65,13.61-3.65
			c5.828,0,11.915,0.249,13.399,3.093l0,0c1.388-0.226,2.762-0.234,4.101-0.088c-4.738-6.832-4.241-13.739-9.338-18.837
			c-3.89-3.89-5.159-9.789-6.12-14.668c-0.194-0.984-1.055-1.688-2.058-1.688c-1.003,0-1.864,0.704-2.058,1.688
			c-0.961,4.879-2.23,10.778-6.12,14.668c-5.299,5.299-4.546,12.554-9.921,19.648C111.095,84.095,112.608,84.021,114.143,84.198z"/>
		<path class="st7" d="M141.151,83.641c0.222,0.424,0.345,0.904,0.345,1.452c0,4.168-6.874,10.03-13.497,10.173v6.449
			c0,6.913,5.604,12.517,12.517,12.517h3.064c8.506,0,15.402-6.896,15.402-15.402v0C158.983,89.168,150.287,82.153,141.151,83.641z"
			/>
		<path class="st7" d="M127.753,95.279c-6.698,0-13.744-5.967-13.744-10.187c0-0.323,0.054-0.616,0.134-0.895
			c-8.872-1.024-17.125,5.878-17.125,15.291v0c0,8.506,6.896,15.402,15.402,15.402h3.064c6.913,0,12.517-5.604,12.517-12.517v-7.108
			C127.918,95.268,127.835,95.279,127.753,95.279z"/>
		<path class="st7" d="M141.497,85.093c0,4.219-7.046,10.187-13.744,10.187s-13.744-5.967-13.744-10.187s7.046-4.545,13.744-4.545
			S141.497,80.874,141.497,85.093z"/>
		<path class="st7" d="M149.537,72.331c-0.015-4.61,3.711-8.36,8.321-8.375c4.61-0.015,8.36,3.711,8.375,8.321"/>
		<path class="st7" d="M89.767,72.304c0-4.61,3.737-8.348,8.348-8.348s8.348,3.737,8.348,8.348"/>
		<path class="st7" d="M197.25,209.386c-7.126-3.673-17.436-0.476-18.386,7.485c-2.121,17.788-15.014,29.689-6.584,36.135
			c5.816,4.447,32.231-22.314,32.231-32.231C204.511,216.593,201.942,211.805,197.25,209.386z"/>
		<path class="st7" d="M58.75,209.386c7.126-3.673,17.436-0.476,18.386,7.485c2.121,17.788,15.014,29.689,6.584,36.135
			c-5.816,4.447-32.231-22.314-32.231-32.231C51.489,216.593,54.058,211.805,58.75,209.386z"/>
		<path class="st7" d="M178.864,216.871c0.949-7.96,11.26-11.158,18.386-7.485c3.947,2.035,6.385,5.746,7.061,9.363
			c9.056-23.989-10.221-65.56-21.672-86.871c-22.185,8.625-51.628,9.906-54.639,9.831c-3.011,0.075-32.454-1.206-54.639-9.831
			c-11.452,21.311-30.728,62.882-21.672,86.871c0.677-3.617,3.114-7.328,7.061-9.362c7.126-3.673,17.436-0.476,18.386,7.485
			c1.482,12.43,8.216,21.981,9.267,28.809c20.26,7.977,38.322,7.82,41.597,7.82s21.338,0.157,41.597-7.82
			C170.648,238.852,177.382,229.301,178.864,216.871z"/>
		<g>
			<path class="st7" d="M140.517,114.232c-6.913,0-12.517-5.604-12.517-12.517v0.659c0,6.913-5.604,12.517-12.517,12.517h-0.967
				c3.789,5.186,8.693,8.967,13.484,8.967c4.99,0,10.103-4.106,13.952-9.626H140.517z"/>
		</g>
		<path class="st7" d="M114.143,84.198C114.142,84.198,114.142,84.198,114.143,84.198c0.956-3.365,7.425-3.65,13.61-3.65
			c5.828,0,11.915,0.249,13.399,3.093l0,0c1.388-0.226,2.762-0.234,4.101-0.088c-4.738-6.832-4.241-13.739-9.338-18.837
			c-3.89-3.89-5.159-9.789-6.12-14.668c-0.194-0.984-1.055-1.688-2.058-1.688c-1.003,0-1.864,0.704-2.058,1.688
			c-0.961,4.879-2.23,10.778-6.12,14.668c-5.299,5.299-4.546,12.554-9.921,19.648C111.095,84.095,112.608,84.021,114.143,84.198z"/>
		<path class="st7" d="M164.405,96.373c-2.342-0.852-4.414-1.732-6.277-2.632c0.551,1.579,0.854,3.287,0.854,5.088
			c0,8.506-6.896,15.402-15.402,15.402h-1.628c-3.849,5.521-8.962,9.626-13.952,9.626c-4.79,0-9.695-3.781-13.484-8.967h-2.097
			c-8.506,0-15.402-6.896-15.402-15.402c0-2.251,0.483-4.353,1.323-6.243c-2.108,1.074-4.503,2.12-7.273,3.128
			c-17.453,6.347-19.993,24.023-12.557,37.34c21.343,6.976,46.707,8.064,49.49,7.995c2.755,0.069,27.634-1,48.839-7.787
			C184.419,120.581,181.95,102.753,164.405,96.373z"/>
		<path class="st7" d="M190.282,56.09c5.718-8.324,20.233-32.177,10.595-47.506c-11.082-17.627-39.521,12.282-43.084,16.147
			C174.165,31.038,184.511,45.306,190.282,56.09z"/>
		<path class="st7" d="M98.213,24.737C94.677,20.901,66.211-9.054,55.122,8.584c-9.637,15.329,4.877,39.182,10.595,47.506
			C71.49,45.307,81.841,31.044,98.213,24.737z"/>
		<path class="st7" d="M182.639,131.878c-5.739,2.231-11.962,3.967-18.088,5.319c3.239,3.964,6.201,8.456,8.857,13.372
			c-4.729,2.991-14.225,10.241-19.562,22.866c0,0,5.845,1.725,7.928,9.081c0,0,10.532,0.525,21.103-7.791
			c2.792,10.356,4.457,21.648,4.706,33.514c3.171-0.707,6.694-0.386,9.667,1.147c3.947,2.034,6.385,5.745,7.061,9.363
			C213.367,194.759,194.09,153.189,182.639,131.878z"/>
		<path class="st7" d="M82.592,150.568c2.656-4.915,5.619-9.407,8.857-13.372c-6.127-1.352-12.35-3.088-18.088-5.319
			c-11.452,21.311-30.728,62.882-21.672,86.871c0.677-3.617,3.114-7.328,7.061-9.362c2.973-1.533,6.496-1.854,9.667-1.147
			c0.249-11.866,1.914-23.158,4.706-33.514c10.571,8.317,21.103,7.791,21.103,7.791c2.083-7.357,7.928-9.081,7.928-9.081
			C96.817,160.81,87.321,153.56,82.592,150.568z"/>
		<path class="st7" d="M153.846,173.435c0,0-11.958-1.939-15.974,7.097c-3.129,7.039,3.492,7.985,6.571,8.06
			c0.735,0.018,1.275,0.68,1.174,1.408c-0.287,2.056-0.262,5.592,3.299,5.592c5.02,0,10.85-2.031,12.858-13.075
			C159.691,175.159,153.846,173.435,153.846,173.435z"/>
		<path class="st7" d="M176.25,148.938c0,0-15.101,7.221-22.404,24.497c0,0,5.845,1.725,7.928,9.082c0,0,13.072,0.66,24.707-10.992"
			/>
		<path class="st7" d="M102.154,173.435c0,0,11.958-1.939,15.974,7.097c3.129,7.039-3.492,7.985-6.571,8.06
			c-0.735,0.018-1.275,0.68-1.174,1.408c0.287,2.056,0.262,5.592-3.299,5.592c-5.02,0-10.85-2.031-12.858-13.075
			C96.309,175.159,102.154,173.435,102.154,173.435z"/>
		<path class="st7" d="M79.75,148.938c0,0,15.101,7.221,22.404,24.497c0,0-5.845,1.725-7.928,9.082c0,0-13.072,0.66-24.707-10.992"
			/>
		<line class="st7" x1="201.203" y1="212.63" x2="196.062" y2="219.57"/>
		<line class="st7" x1="189.904" y1="207.891" x2="187.62" y2="216.669"/>
		<line class="st7" x1="54.662" y1="212.63" x2="59.803" y2="219.57"/>
		<line class="st7" x1="65.961" y1="207.891" x2="68.245" y2="216.669"/>
		<path class="st7" d="M157.109,24.017c-1.521-2.418-5.243-6.963-11.862-7.242c-0.385-0.016-0.6-0.443-0.366-0.75
			c0.878-1.154,2.772-3.348,5.095-4.279c0.377-0.151,0.416-0.662,0.055-0.846c-2.662-1.36-10.535-4.551-19.187-0.161
			c-1.712,0.869-3.806,0.541-5.2-0.779c-3.081-2.917-9.682-7.281-21.715-7.458c-0.475-0.007-0.667,0.606-0.268,0.863l9.976,6.424
			c0,0-4.153-2.674-13.604,2.496c-0.404,0.221-0.291,0.834,0.167,0.884l2.716,0.296c0.453,0.049,0.582,0.654,0.181,0.871
			c-2.181,1.18-5.884,4.277-6.978,11.949c-0.055,0.386,0.37,0.665,0.706,0.466l3.329-1.973c0.357-0.212,0.791,0.104,0.694,0.507
			c-0.781,3.261-1.852,13.083,10.426,21.382c0.304,0.205,0.722-0.004,0.738-0.37c0.107-2.44,0.79-9.784,5.06-16.949
			c0.212-0.356,0.753-0.275,0.856,0.126c0.48,1.873,1.587,5.668,3.027,7.292c0.238,0.269,0.683,0.157,0.787-0.187
			c0.599-1.984,2.517-7.516,5.492-8.312c0.092-0.025,0.186-0.02,0.276,0.008c1.053,0.325,7.713,2.722,10.224,12.003
			c0.114,0.422,0.708,0.462,0.877,0.059c0.726-1.725,1.77-5.292,0.843-10.206c-0.058-0.308,0.183-0.591,0.496-0.561
			c2.06,0.198,8.807,1.526,12.926,10.407c0.216,0.465,0.91,0.322,0.896-0.191c-0.095-3.604-1.094-10.779-7.123-15.117
			c-0.304-0.219-0.267-0.681,0.082-0.818c1.522-0.597,5.184-1.525,9.761,0.824C156.918,24.893,157.365,24.425,157.109,24.017z"/>
		<path class="st7" d="M209.359,91.696c-0.288-0.557,0.215-1.189,0.823-1.037l1.467,0.367c0.503,0.126,0.979-0.294,0.903-0.807
			c-0.412-2.796-2.521-10.705-13.3-18.496c-1.958-1.415-3.462-3.368-4.339-5.619c-3.551-9.119-14.856-33.192-37.78-41.635
			c-0.109,0.213-0.38,0.34-0.645,0.204c-4.578-2.348-8.239-1.421-9.761-0.824c-0.349,0.137-0.386,0.599-0.082,0.818
			c6.028,4.339,7.027,11.513,7.123,15.117c0.014,0.513-0.681,0.656-0.896,0.191c-4.119-8.881-10.866-10.209-12.926-10.407
			c-0.313-0.03-0.554,0.252-0.496,0.56c0.927,4.914-0.117,8.481-0.843,10.206c-0.17,0.403-0.763,0.363-0.877-0.059
			c-2.51-9.282-9.171-11.678-10.224-12.003c-0.091-0.028-0.184-0.033-0.276-0.008c-2.975,0.796-4.893,6.328-5.492,8.312
			c-0.104,0.344-0.549,0.455-0.787,0.187c-1.44-1.624-2.547-5.419-3.027-7.292c-0.103-0.401-0.644-0.481-0.856-0.126
			c-4.271,7.165-4.953,14.509-5.06,16.949c-0.016,0.366-0.434,0.576-0.738,0.37c-12.278-8.299-11.207-18.121-10.426-21.382
			c0.097-0.404-0.338-0.719-0.694-0.508l-3.329,1.973c-0.336,0.199-0.761-0.08-0.706-0.466c0.036-0.255,0.083-0.491,0.125-0.736
			c-21.161,9.242-31.743,31.797-35.155,40.559c-0.879,2.256-2.39,4.21-4.351,5.628C45.967,79.521,43.86,87.424,43.448,90.219
			c-0.076,0.513,0.4,0.932,0.903,0.807l1.467-0.367c0.608-0.152,1.111,0.48,0.823,1.037c-3.208,6.217-3.439,14.074-3.368,17.459
			c0.014,0.646,0.793,0.958,1.249,0.501l2.795-2.795c0.44-0.44,1.19-0.163,1.239,0.457c2.434,31.174,74.636,34.51,79.443,34.389
			c4.808,0.12,77.009-3.216,79.443-34.389c0.048-0.62,0.799-0.897,1.239-0.457l2.795,2.795c0.457,0.457,1.236,0.144,1.249-0.501
			C212.798,105.771,212.567,97.913,209.359,91.696z"/>
		<path class="st7" d="M174.591,35.343c0.583-3.086,1.851-6.784,4.147-11.226c6.857-13.272,15.999-15.782,21.983-15.767
			c-11.19-17.11-39.381,12.535-42.926,16.38C164.319,27.244,169.888,31.021,174.591,35.343z"/>
		<path class="st7" d="M77.263,24.117c2.296,4.443,3.564,8.142,4.147,11.228c4.704-4.322,10.277-8.093,16.804-10.607
			C94.695,20.921,66.477-8.77,55.28,8.35C61.264,8.335,70.405,10.845,77.263,24.117z"/>
	</g>
</g>
<g id="Layer_29">
</g>
<g id="Layer_30">
</g>
<g id="Layer_31">
</g>
<g id="Layer_32">
</g>
<g id="Layer_33">
</g>
<g id="Layer_34">
</g>
<g id="Layer_35">
</g>
<g id="Layer_36">
</g>
<g id="Layer_37">
</g>
<g id="Layer_38">
</g>
<g id="Layer_39">
</g>
<g id="Layer_40">
</g>
<g id="Layer_41">
</g>
<g id="Layer_42">
</g>
<g id="Layer_43">
</g>
<g id="Layer_44">
</g>
<g id="Layer_45">
</g>
<g id="Layer_46">
</g>
<g id="Layer_47">
</g>
<g id="Layer_48">
</g>
<g id="Layer_49">
</g>
<g id="Layer_50">
</g>
<g id="Layer_51">
</g>
<g id="Layer_52">
</g>
<g id="Layer_53">
</g>
<g id="Layer_54">
</g>
<g id="Layer_55">
</g>
<g id="Layer_56">
</g>
<g id="Layer_57">
</g>
<g id="Layer_58">
</g>
<g id="Layer_59">
</g>
<g id="Layer_60">
</g>
<g id="Layer_61">
</g>
<g id="Layer_62">
</g>
<g id="Layer_63">
</g>
<g id="Layer_64">
</g>
<g id="Layer_65">
</g>
<g id="Layer_66">
</g>
<g id="Layer_67">
</g>
<g id="Layer_68">
</g>
<g id="Layer_69">
</g>
<g id="Layer_70">
</g>
<g id="Layer_71">
</g>
<g id="Layer_72">
</g>
<g id="Layer_73">
</g>
<g id="Layer_74">
</g>
<g id="Layer_75">
</g>
<g id="Layer_76">
</g>
<g id="Layer_77">
</g>
<g id="Layer_78">
</g>
<g id="Layer_79">
</g>
<g id="Layer_80">
</g>
<g id="Layer_81">
</g>
<g id="Layer_82">
</g>
<g id="Layer_83">
</g>
<g id="Layer_84">
</g>
<g id="Layer_85">
</g>
<g id="Layer_86">
</g>
<g id="Layer_87">
</g>
<g id="Layer_88">
</g>
<g id="Layer_89">
</g>
<g id="Layer_90">
</g>
<g id="Layer_91">
</g>
<g id="Layer_92">
</g>
<g id="Layer_93">
</g>
<g id="Layer_94">
</g>
<g id="Layer_95">
</g>
<g id="Layer_96">
</g>
<g id="Layer_97">
</g>
<g id="Layer_98">
</g>
<g id="Layer_99">
</g>
<g id="Layer_100">
</g>
</svg>
