<?xml version="1.0" encoding="utf-8"?>
<!-- Generator: Adobe Illustrator 22.0.0, SVG Export Plug-In . SVG Version: 6.00 Build 0)  -->
<svg version="1.1" xmlns="http://www.w3.org/2000/svg" xmlns:xlink="http://www.w3.org/1999/xlink" x="0px" y="0px"
	 viewBox="0 0 256 256" style="enable-background:new 0 0 256 256;" xml:space="preserve">
<style type="text/css">
	.st0{fill:#F9BD55;}
	.st1{fill:#F4DBCE;}
	.st2{fill:#52565B;}
	.st3{fill:#FD605B;}
	.st4{fill:#F98080;}
	.st5{fill:#F9E63A;}
	.st6{fill:#039BE6;}
	.st7{fill:none;stroke:#000000;stroke-width:5;stroke-linecap:round;stroke-linejoin:round;stroke-miterlimit:10;}
	.st8{fill:#7D3D1A;}
	.st9{fill:#EAA250;}
	.st10{fill:#DD7F57;}
	.st11{fill:#FFC097;}
	.st12{fill:#F49667;}
	.st13{fill:#F89422;}
	.st14{fill:#E3E4E5;}
	.st15{fill:#6E7175;}
	.st16{fill:#46BAF9;}
	.st17{fill:#D9F3FF;}
	.st18{fill:#828487;}
	.st19{fill:#A8AEB2;}
	.st20{fill:#C9CDD1;}
	.st21{fill:#8CD8F9;}
	.st22{fill:#1AA7E5;}
	.st23{fill:#ACE7FC;}
	.st24{fill:#FFFFFF;}
	.st25{fill:#9E512B;}
	.st26{fill:#7ED5FC;}
	.st27{fill:#7CCC4E;}
	.st28{fill:#3AA03A;}
	.st29{fill:#FCB1B1;}
	.st30{fill:#F76E23;}
	.st31{fill:#C16A44;}
	.st32{fill:#B796EA;}
</style>
<g id="Layer_1">
</g>
<g id="Layer_2">
</g>
<g id="Layer_3">
</g>
<g id="Layer_4">
</g>
<g id="Layer_5">
</g>
<g id="Layer_6">
</g>
<g id="Layer_7">
</g>
<g id="Layer_8">
</g>
<g id="Layer_9">
</g>
<g id="Layer_10">
</g>
<g id="Layer_11">
</g>
<g id="Layer_12">
</g>
<g id="Layer_13">
</g>
<g id="Layer_14">
</g>
<g id="Layer_15">
</g>
<g id="Layer_16">
</g>
<g id="Layer_17">
</g>
<g id="Layer_18">
</g>
<g id="Layer_19">
</g>
<g id="Layer_20">
</g>
<g id="Layer_21">
</g>
<g id="Layer_22">
</g>
<g id="Layer_23">
</g>
<g id="Layer_24">
</g>
<g id="Layer_25">
	<g>
		<path class="st8" d="M247.676,116.95c-0.255-0.565,0.154-1.203,0.774-1.203h3.816c0.597,0,1.017-0.604,0.797-1.159
			c-3.219-8.123-8.371-14.046-10.891-16.629c-0.525-0.538-0.137-1.438,0.614-1.438h3.788c0.679,0,1.095-0.766,0.709-1.324
			c-5.716-8.271-13.405-13.105-16.718-14.927c-0.628-0.346-0.565-1.264,0.101-1.531l1.94-0.776c0.667-0.267,0.724-1.197,0.092-1.539
			c-12.988-7.02-23.269-9.082-26.907-9.63c-0.636-0.096-0.931-0.835-0.545-1.349l1.521-2.029c0.374-0.5,0.099-1.226-0.513-1.348
			c-11.42-2.279-21.384-2.113-25.002-1.949c-0.648,0.029-1.081-0.65-0.791-1.23l0.961-1.922c0.257-0.513-0.055-1.139-0.622-1.225
			c-9.712-1.467-21.16,0.421-24.562,1.06c-0.523,0.098-1.001-0.304-1.001-0.837v-2.235c0-0.525-0.474-0.93-0.992-0.845
			c-11.035,1.823-21.212,5.557-24.558,6.859c-0.558,0.217-1.153-0.196-1.153-0.795V56.94c0-0.526-0.482-0.931-1.001-0.843
			c-15.808,2.668-26.25,8.526-29.746,10.727c-0.565,0.356-1.296-0.056-1.296-0.724v-1.55c0-0.569-0.552-0.989-1.095-0.821
			c-8.6,2.659-15.899,8.561-18.858,11.19c-0.548,0.487-1.409,0.093-1.409-0.64V72.17c0-0.623-0.646-1.036-1.212-0.776
			c-6.71,3.085-13.762,10.766-16.123,13.479c-0.397,0.457-1.127,0.359-1.398-0.183l-1.071-2.142
			c-0.248-0.497-0.909-0.631-1.326-0.264c-12.399,10.915-12.958,25-12.063,32.848c0.57-1.134,1.184-2.248,1.892-3.309
			c0-1.454,2.037-1.784,2.497-0.405l3.678,11.033c0.359,1.077,1.668,1.486,2.577,0.805l5.791-4.343
			c1.097-0.823,2.663-0.04,2.663,1.331v10.459c0,0.919,0.745,1.664,1.664,1.664h4.031c1.05,0,1.838,0.961,1.632,1.99l-1.779,8.895
			c-0.206,1.03,0.582,1.99,1.632,1.99h0.345c7.639-6.628,20.878-4.727,23.66,3.617c2.712,8.136,10.779,13.211,13.194,14.579
			c0.387,0.219,0.875,0.098,1.121-0.271l3.28-4.919c0.293-0.44,0.904-0.501,1.289-0.138c7.071,6.653,17.224,10.566,20.579,11.737
			c0.553,0.193,1.123-0.22,1.123-0.806v-5.505c0-0.701,0.801-1.107,1.356-0.679c6.591,5.079,21.542,9.28,25.46,10.322
			c0.503,0.134,1.006-0.211,1.063-0.728l0.774-6.969c0.075-0.675,0.872-0.997,1.387-0.553c7.688,6.638,21.038,9.728,24.604,10.46
			c0.486,0.1,0.948-0.236,1.01-0.729l0.752-6.011c0.084-0.67,0.872-0.978,1.386-0.54c3.39,2.889,7.987,5.002,12.768,6.547
			c2.505-0.154,5.079,0.185,6.594,1.785c6.757,1.521,12.929,2.073,15.533,2.252c0.618,0.042,1.065-0.568,0.847-1.148l-1.677-4.472
			c-0.291-0.775,0.57-1.444,1.271-1.003c7.219,4.537,19.349,3.843,22.518,3.57c0.443-0.038,0.777-0.405,0.773-0.849
			c-0.075-9.831-1.55-21.585-2.002-24.973c-0.068-0.51,0.329-0.956,0.844-0.956h4.575c0.473,0,0.859-0.393,0.855-0.865
			C253.362,131.1,249.229,120.387,247.676,116.95z"/>
		<path class="st25" d="M97.668,103.407c-4.819-5.17-14.443-4.032-21.494,2.541c-2.866,2.672-4.859,5.829-5.897,8.984
			c-0.434,1.32,0.135,2.744,1.335,3.445c3.98,2.325,7.207,5.798,9.223,9.967c0.607,1.254,1.988,1.933,3.34,1.597
			c3.244-0.805,6.563-2.578,9.452-5.271C100.678,118.097,102.487,108.577,97.668,103.407z"/>
		<path class="st4" d="M96.825,109.817c-3.27-3.508-10.821-1.785-16.865,3.85c-2.314,2.157-4.071,4.575-5.176,6.935
			c2.524,2.106,4.594,4.737,6.043,7.726c0.619,1.277,2.024,1.946,3.399,1.598c2.919-0.738,5.897-2.264,8.567-4.533
			C98.081,119.905,99.909,113.126,96.825,109.817z"/>
		<ellipse class="st2" cx="12.647" cy="170.22" rx="10.147" ry="8.545"/>
		<path class="st1" d="M72.998,147.523c0.437-1.093-0.368-2.282-1.545-2.282h-3.238c-1.05,0-1.838-0.961-1.632-1.99l1.779-8.895
			c0.206-1.03-0.582-1.99-1.632-1.99H62.7c-0.919,0-1.664-0.745-1.664-1.664v-10.459c0-1.371-1.566-2.154-2.663-1.331l-5.791,4.343
			c-0.909,0.681-2.218,0.272-2.577-0.805l-3.42-10.259c-0.407-1.221-2.041-1.44-2.755-0.369v0c-2.096,3.144-3.593,6.633-4.47,10.308
			c-2.288,9.589-8.663,29.964-23.126,40.105c3.83,1.222,6.559,4.331,6.559,7.985c0,3.064-1.922,5.744-4.799,7.252
			c8.669,1.977,32.823,5.968,53.199-4.939c1.174-0.629,1.115-2.342-0.077-2.938l-0.868-0.434c-0.822-0.411-1.155-1.41-0.744-2.232
			l3.202-6.404c0.553-1.106-0.252-2.408-1.488-2.408c-1.177,0-1.982-1.189-1.545-2.282L72.998,147.523z"/>
		<path class="st1" d="M154.853,188.675c-0.268-0.535,0.205-1.139,0.788-1.005c4.488,1.033,18.905,3.882,38.492,3.114
			c1.16-3.004,1.724-6.877,1.988-9.9c0.274-3.144,2.679-5.688,5.808-6.095c0.471-0.061,0.954-0.107,1.439-0.137
			c-4.783-1.545-9.382-3.659-12.772-6.55c-0.512-0.436-1.298-0.123-1.382,0.544l-0.752,6.011c-0.062,0.492-0.524,0.829-1.01,0.729
			c-3.566-0.732-16.916-3.822-24.604-10.46c-0.514-0.444-1.312-0.122-1.387,0.553l-0.774,6.969c-0.057,0.517-0.56,0.862-1.063,0.728
			c-3.918-1.042-18.869-5.243-25.46-10.322c-0.555-0.428-1.356-0.022-1.356,0.679v5.505c0,0.586-0.57,0.999-1.123,0.806
			c-3.355-1.171-13.508-5.083-20.579-11.737c-0.385-0.362-0.996-0.302-1.289,0.138l-3.28,4.919c-0.246,0.37-0.735,0.49-1.121,0.271
			c-2.415-1.368-10.483-6.443-13.194-14.579c-2.781-8.344-16.021-10.244-23.66-3.617h2.892c1.177,0,1.982,1.189,1.545,2.282
			l-3.325,8.311c-0.437,1.093,0.368,2.282,1.545,2.282c1.237,0,2.042,1.302,1.488,2.408l-3.202,6.404
			c-0.411,0.822-0.078,1.822,0.744,2.233l0.867,0.434c1.202,0.601,1.24,2.32,0.053,2.951c-0.241,0.128-0.486,0.246-0.728,0.371
			c7.955,5.613,18.957,11.828,31.693,14.832c0.555-2.321,0.88-4.793,1.061-6.865c0.274-3.144,2.679-5.688,5.808-6.095
			c4.252-0.553,9.385-0.054,9.385,5.579c0,2.286-0.551,4.692-1.379,7.033c7.988,2.061,20.334,4.095,38.14,4.179
			c0.527,0.002,0.879-0.554,0.643-1.026L154.853,188.675z"/>
		<path class="st11" d="M109.004,174.788c-3.129,0.407-5.534,2.951-5.808,6.095c-0.325,3.73-1.091,8.776-2.894,11.855
			c-0.542,0.926-1.563,1.456-2.636,1.448c-2.94-0.022-9.183,0.507-9.183,5.407c0,5.302,13.889,3.293,18.687,2.441
			c1.055-0.187,1.99-0.772,2.628-1.632c2.475-3.338,8.592-12.366,8.592-20.035C118.389,174.735,113.255,174.236,109.004,174.788z"/>
		<path class="st11" d="M201.928,174.788c-3.129,0.407-5.534,2.951-5.808,6.095c-0.325,3.73-1.091,8.776-2.894,11.855
			c-0.542,0.926-1.563,1.456-2.636,1.448c-2.94-0.022-9.183,0.507-9.183,5.407c0,5.302,13.889,3.293,18.687,2.441
			c1.055-0.187,1.99-0.772,2.628-1.632c2.475-3.338,8.592-12.366,8.592-20.035C211.313,174.735,206.18,174.236,201.928,174.788z"/>
		<ellipse class="st7" cx="12.647" cy="170.22" rx="10.147" ry="8.545"/>
		<path class="st7" d="M72.998,147.523c0.437-1.093-0.368-2.282-1.545-2.282h-3.238c-1.05,0-1.838-0.961-1.632-1.99l1.779-8.895
			c0.206-1.03-0.582-1.99-1.632-1.99H62.7c-0.919,0-1.664-0.745-1.664-1.664v-10.459c0-1.371-1.566-2.154-2.663-1.331l-5.791,4.343
			c-0.909,0.681-2.218,0.272-2.577-0.805l-3.42-10.259c-0.407-1.221-2.041-1.44-2.755-0.369v0c-2.096,3.144-3.593,6.633-4.47,10.308
			c-2.288,9.589-8.663,29.964-23.126,40.105c3.83,1.222,6.559,4.331,6.559,7.985c0,3.064-1.922,5.744-4.799,7.252
			c8.669,1.977,32.823,5.968,53.199-4.939c1.174-0.629,1.115-2.342-0.077-2.938l-0.868-0.434c-0.822-0.411-1.155-1.41-0.744-2.232
			l3.202-6.404c0.553-1.106-0.252-2.408-1.488-2.408c-1.177,0-1.982-1.189-1.545-2.282L72.998,147.523z"/>
		<path class="st7" d="M45.665,149.356c-0.011-3.267,2.63-5.925,5.897-5.935c3.267-0.011,5.925,2.63,5.935,5.897"/>
		<path class="st7" d="M247.676,116.95c-0.255-0.565,0.154-1.203,0.774-1.203h3.816c0.597,0,1.017-0.604,0.797-1.159
			c-3.219-8.123-8.371-14.046-10.891-16.629c-0.525-0.538-0.137-1.438,0.614-1.438h3.788c0.679,0,1.095-0.766,0.709-1.324
			c-5.716-8.271-13.405-13.105-16.718-14.927c-0.628-0.346-0.565-1.264,0.101-1.531l1.94-0.776c0.667-0.267,0.724-1.197,0.092-1.539
			c-12.988-7.02-23.269-9.082-26.907-9.63c-0.636-0.096-0.931-0.835-0.545-1.349l1.521-2.029c0.374-0.5,0.099-1.226-0.513-1.348
			c-11.42-2.279-21.384-2.113-25.002-1.949c-0.648,0.029-1.081-0.65-0.791-1.23l0.961-1.922c0.257-0.513-0.055-1.139-0.622-1.225
			c-9.712-1.467-21.16,0.421-24.562,1.06c-0.523,0.098-1.001-0.304-1.001-0.837v-2.235c0-0.525-0.474-0.93-0.992-0.845
			c-11.035,1.823-21.212,5.557-24.558,6.859c-0.558,0.217-1.153-0.196-1.153-0.795V56.94c0-0.526-0.482-0.931-1.001-0.843
			c-15.808,2.668-26.25,8.526-29.746,10.727c-0.565,0.356-1.296-0.056-1.296-0.724v-1.55c0-0.569-0.552-0.989-1.095-0.821
			c-8.6,2.659-15.899,8.561-18.858,11.19c-0.548,0.487-1.409,0.093-1.409-0.64V72.17c0-0.623-0.646-1.036-1.212-0.776
			c-6.71,3.085-13.762,10.766-16.123,13.479c-0.397,0.457-1.127,0.359-1.398-0.183l-1.071-2.142
			c-0.248-0.497-0.909-0.631-1.326-0.264c-12.399,10.915-12.958,25-12.063,32.848c0.57-1.134,1.184-2.248,1.892-3.309
			c0-1.454,2.037-1.784,2.497-0.405l3.678,11.033c0.359,1.077,1.668,1.486,2.577,0.805l5.791-4.343
			c1.097-0.823,2.663-0.04,2.663,1.331v10.459c0,0.919,0.745,1.664,1.664,1.664h4.031c1.05,0,1.838,0.961,1.632,1.99l-1.779,8.895
			c-0.206,1.03,0.582,1.99,1.632,1.99h0.345c7.639-6.628,20.878-4.727,23.66,3.617c2.712,8.136,10.779,13.211,13.194,14.579
			c0.387,0.219,0.875,0.098,1.121-0.271l3.28-4.919c0.293-0.44,0.904-0.501,1.289-0.138c7.071,6.653,17.224,10.566,20.579,11.737
			c0.553,0.193,1.123-0.22,1.123-0.806v-5.505c0-0.701,0.801-1.107,1.356-0.679c6.591,5.079,21.542,9.28,25.46,10.322
			c0.503,0.134,1.006-0.211,1.063-0.728l0.774-6.969c0.075-0.675,0.872-0.997,1.387-0.553c7.688,6.638,21.038,9.728,24.604,10.46
			c0.486,0.1,0.948-0.236,1.01-0.729l0.752-6.011c0.084-0.67,0.872-0.978,1.386-0.54c3.39,2.889,7.987,5.002,12.768,6.547
			c2.505-0.154,5.079,0.185,6.594,1.785c6.757,1.521,12.929,2.073,15.533,2.252c0.618,0.042,1.065-0.568,0.847-1.148l-1.677-4.472
			c-0.291-0.775,0.57-1.444,1.271-1.003c7.219,4.537,19.349,3.843,22.518,3.57c0.443-0.038,0.777-0.405,0.773-0.849
			c-0.075-9.831-1.55-21.585-2.002-24.973c-0.068-0.51,0.329-0.956,0.844-0.956h4.575c0.473,0,0.859-0.393,0.855-0.865
			C253.362,131.1,249.229,120.387,247.676,116.95z"/>
		<path class="st7" d="M154.853,188.675c-0.268-0.535,0.205-1.139,0.788-1.005c4.488,1.033,18.905,3.882,38.492,3.114
			c1.16-3.004,1.724-6.877,1.988-9.9c0.274-3.144,2.679-5.688,5.808-6.095c0.471-0.061,0.954-0.107,1.439-0.137
			c-4.783-1.545-9.382-3.659-12.772-6.55c-0.512-0.436-1.298-0.123-1.382,0.544l-0.752,6.011c-0.062,0.492-0.524,0.829-1.01,0.729
			c-3.566-0.732-16.916-3.822-24.604-10.46c-0.514-0.444-1.312-0.122-1.387,0.553l-0.774,6.969c-0.057,0.517-0.56,0.862-1.063,0.728
			c-3.918-1.042-18.869-5.243-25.46-10.322c-0.555-0.428-1.356-0.022-1.356,0.679v5.505c0,0.586-0.57,0.999-1.123,0.806
			c-3.355-1.171-13.508-5.083-20.579-11.737c-0.385-0.362-0.996-0.302-1.289,0.138l-3.28,4.919c-0.246,0.37-0.735,0.49-1.121,0.271
			c-2.415-1.368-10.483-6.443-13.194-14.579c-2.781-8.344-16.021-10.244-23.66-3.617h2.892c1.177,0,1.982,1.189,1.545,2.282
			l-3.325,8.311c-0.437,1.093,0.368,2.282,1.545,2.282c1.237,0,2.042,1.302,1.488,2.408l-3.202,6.404
			c-0.411,0.822-0.078,1.822,0.744,2.233l0.867,0.434c1.202,0.601,1.24,2.32,0.053,2.951c-0.241,0.128-0.486,0.246-0.728,0.371
			c7.955,5.613,18.957,11.828,31.693,14.832c0.555-2.321,0.88-4.793,1.061-6.865c0.274-3.144,2.679-5.688,5.808-6.095
			c4.252-0.553,9.385-0.054,9.385,5.579c0,2.286-0.551,4.692-1.379,7.033c7.988,2.061,20.334,4.095,38.14,4.179
			c0.527,0.002,0.879-0.554,0.643-1.026L154.853,188.675z"/>
		<path class="st7" d="M226.342,177.541c0.217,0.58-0.23,1.19-0.847,1.148c-2.604-0.178-8.776-0.731-15.533-2.252
			c0.836,0.883,1.352,2.149,1.352,3.93c0,1.639-0.291,3.34-0.755,5.034c5.425-1.298,15.373-4.294,24.04-10.284
			c-3.11-0.555-6.205-1.496-8.705-3.079c-0.678-0.429-1.511,0.279-1.229,1.03L226.342,177.541z"/>
		<path class="st7" d="M97.668,103.407c-4.819-5.17-14.443-4.032-21.494,2.541c-2.866,2.672-4.859,5.829-5.897,8.984
			c-0.434,1.32,0.135,2.744,1.335,3.445c3.98,2.325,7.207,5.798,9.223,9.967c0.607,1.254,1.988,1.933,3.34,1.597
			c3.244-0.805,6.563-2.578,9.452-5.271C100.678,118.097,102.487,108.577,97.668,103.407z"/>
		<path class="st7" d="M109.004,174.788c-3.129,0.407-5.534,2.951-5.808,6.095c-0.325,3.73-1.091,8.776-2.894,11.855
			c-0.542,0.926-1.563,1.456-2.636,1.448c-2.94-0.022-9.183,0.507-9.183,5.407c0,5.302,13.889,3.293,18.687,2.441
			c1.055-0.187,1.99-0.772,2.628-1.632c2.475-3.338,8.592-12.366,8.592-20.035C118.389,174.735,113.255,174.236,109.004,174.788z"/>
		<path class="st7" d="M201.928,174.788c-3.129,0.407-5.534,2.951-5.808,6.095c-0.325,3.73-1.091,8.776-2.894,11.855
			c-0.542,0.926-1.563,1.456-2.636,1.448c-2.94-0.022-9.183,0.507-9.183,5.407c0,5.302,13.889,3.293,18.687,2.441
			c1.055-0.187,1.99-0.772,2.628-1.632c2.475-3.338,8.592-12.366,8.592-20.035C211.313,174.735,206.18,174.236,201.928,174.788z"/>
		<path class="st7" d="M228.565,112.053c2.958,4.215,5.6,8.942,7.858,14.233"/>
		<path class="st7" d="M203.369,90.088c5.182,2.699,10.113,6.02,14.651,10.077"/>
		<path class="st7" d="M171.389,80.583c6.021,0.758,12.072,1.978,17.977,3.801"/>
		<path class="st7" d="M135.965,80.588c5.589-0.609,11.643-1.012,17.938-1.031"/>
		<path class="st7" d="M103.969,86.908c0,0,5.537-1.772,14.418-3.576"/>
		<path class="st7" d="M212.159,130.021c4.444,3.898,8.453,8.394,11.852,13.576"/>
		<path class="st7" d="M178.471,112.053c6.1,1.884,12.145,4.266,17.893,7.266"/>
		<path class="st7" d="M141.823,105.659c6.097,0.39,12.792,1.106,19.713,2.336"/>
		<path class="st7" d="M112.852,105.983c0,0,5.186-0.591,13.427-0.708"/>
		<path class="st7" d="M188.649,147.256c4.531,2.181,9.004,4.596,13.317,7.267"/>
		<path class="st7" d="M151.644,133.967c5.958,1.552,12.394,3.467,18.991,5.817"/>
		<path class="st7" d="M119.459,127.844c0,0,5.746,0.557,14.75,2.235"/>
		<path class="st7" d="M96.825,109.817c-3.27-3.508-10.821-1.785-16.865,3.85c-2.314,2.157-4.071,4.575-5.176,6.935
			c2.524,2.106,4.594,4.737,6.043,7.726c0.619,1.277,2.024,1.946,3.399,1.598c2.919-0.738,5.897-2.264,8.567-4.533
			C98.081,119.905,99.909,113.126,96.825,109.817z"/>
	</g>
</g>
<g id="Layer_26">
</g>
<g id="Layer_27">
</g>
<g id="Layer_28">
</g>
<g id="Layer_29">
</g>
<g id="Layer_30">
</g>
<g id="Layer_31">
</g>
<g id="Layer_32">
</g>
<g id="Layer_33">
</g>
<g id="Layer_34">
</g>
<g id="Layer_35">
</g>
<g id="Layer_36">
</g>
<g id="Layer_37">
</g>
<g id="Layer_38">
</g>
<g id="Layer_39">
</g>
<g id="Layer_40">
</g>
<g id="Layer_41">
</g>
<g id="Layer_42">
</g>
<g id="Layer_43">
</g>
<g id="Layer_44">
</g>
<g id="Layer_45">
</g>
<g id="Layer_46">
</g>
<g id="Layer_47">
</g>
<g id="Layer_48">
</g>
<g id="Layer_49">
</g>
<g id="Layer_50">
</g>
<g id="Layer_51">
</g>
<g id="Layer_52">
</g>
<g id="Layer_53">
</g>
<g id="Layer_54">
</g>
<g id="Layer_55">
</g>
<g id="Layer_56">
</g>
<g id="Layer_57">
</g>
<g id="Layer_58">
</g>
<g id="Layer_59">
</g>
<g id="Layer_60">
</g>
<g id="Layer_61">
</g>
<g id="Layer_62">
</g>
<g id="Layer_63">
</g>
<g id="Layer_64">
</g>
<g id="Layer_65">
</g>
<g id="Layer_66">
</g>
<g id="Layer_67">
</g>
<g id="Layer_68">
</g>
<g id="Layer_69">
</g>
<g id="Layer_70">
</g>
<g id="Layer_71">
</g>
<g id="Layer_72">
</g>
<g id="Layer_73">
</g>
<g id="Layer_74">
</g>
<g id="Layer_75">
</g>
<g id="Layer_76">
</g>
<g id="Layer_77">
</g>
<g id="Layer_78">
</g>
<g id="Layer_79">
</g>
<g id="Layer_80">
</g>
<g id="Layer_81">
</g>
<g id="Layer_82">
</g>
<g id="Layer_83">
</g>
<g id="Layer_84">
</g>
<g id="Layer_85">
</g>
<g id="Layer_86">
</g>
<g id="Layer_87">
</g>
<g id="Layer_88">
</g>
<g id="Layer_89">
</g>
<g id="Layer_90">
</g>
<g id="Layer_91">
</g>
<g id="Layer_92">
</g>
<g id="Layer_93">
</g>
<g id="Layer_94">
</g>
<g id="Layer_95">
</g>
<g id="Layer_96">
</g>
<g id="Layer_97">
</g>
<g id="Layer_98">
</g>
<g id="Layer_99">
</g>
<g id="Layer_100">
</g>
</svg>
