<?xml version="1.0" encoding="utf-8"?>
<!-- Generator: Adobe Illustrator 22.0.0, SVG Export Plug-In . SVG Version: 6.00 Build 0)  -->
<svg version="1.1" xmlns="http://www.w3.org/2000/svg" xmlns:xlink="http://www.w3.org/1999/xlink" x="0px" y="0px"
	 viewBox="0 0 256 256" style="enable-background:new 0 0 256 256;" xml:space="preserve">
<style type="text/css">
	.st0{fill:#F9BD55;}
	.st1{fill:#F4DBCE;}
	.st2{fill:#52565B;}
	.st3{fill:#FD605B;}
	.st4{fill:#F98080;}
	.st5{fill:#F9E63A;}
	.st6{fill:#039BE6;}
	.st7{fill:none;stroke:#000000;stroke-width:5;stroke-linecap:round;stroke-linejoin:round;stroke-miterlimit:10;}
	.st8{fill:#7D3D1A;}
	.st9{fill:#EAA250;}
	.st10{fill:#DD7F57;}
	.st11{fill:#FFC097;}
	.st12{fill:#F49667;}
	.st13{fill:#F89422;}
	.st14{fill:#E3E4E5;}
	.st15{fill:#6E7175;}
	.st16{fill:#46BAF9;}
	.st17{fill:#D9F3FF;}
	.st18{fill:#828487;}
	.st19{fill:#A8AEB2;}
	.st20{fill:#C9CDD1;}
	.st21{fill:#8CD8F9;}
	.st22{fill:#1AA7E5;}
	.st23{fill:#ACE7FC;}
	.st24{fill:#FFFFFF;}
	.st25{fill:#9E512B;}
	.st26{fill:#7ED5FC;}
	.st27{fill:#7CCC4E;}
	.st28{fill:#3AA03A;}
	.st29{fill:#FCB1B1;}
	.st30{fill:#F76E23;}
	.st31{fill:#C16A44;}
	.st32{fill:#B796EA;}
</style>
<g id="Layer_1">
</g>
<g id="Layer_2">
</g>
<g id="Layer_3">
</g>
<g id="Layer_4">
</g>
<g id="Layer_5">
</g>
<g id="Layer_6">
</g>
<g id="Layer_7">
</g>
<g id="Layer_8">
</g>
<g id="Layer_9">
</g>
<g id="Layer_10">
</g>
<g id="Layer_11">
	<g>
		<path class="st9" d="M59.868,131.434c-10.343,29.812,3.144,49.742,20.318,57.314c-0.159,9.326-1.38,24.972-4.528,39.256
			c-0.428,1.94-1.747,3.584-3.577,4.358c-3.491,1.475-9.169,5.125-10.451,13.509c-0.288,1.882,1.147,3.591,3.051,3.591h28.206
			c1.666,0,3.032-1.322,3.085-2.987l0.362-11.215c0.027-0.838,0.223-1.655,0.576-2.415c1.782-3.831,7.572-21.221,10.451-39.178
			c19.828,0.944,44.306-1.656,58.569-9.872c3.257,6.365,8.254,12.726,15.686,18.659c0.76,0.606,1.075,1.615,0.767,2.537
			l-3.602,24.291c-0.226,1.27-1.078,2.35-2.274,2.833c-3.706,1.495-11.569,5.781-11.465,15.208c0.013,1.178,0.948,2.141,2.126,2.141
			h28.694c1.125,0,2.036-0.912,2.036-2.036v-6.984c0-4.538,0.701-9.048,2.109-13.362c1.877-5.751,5.036-17.837,9.594-24.408
			c2.108-3.039,2.276-7.064,0.286-10.181c-2.66-4.164-5.272-10.615-2.986-18.045c3.279-10.655,14.617-44.818-11.116-60.11
			c-9.887-5.875-21.966-6.672-32.808-2.832c-13.578,4.81-34.911,12.119-50.965,0.578c-10.293-7.399-12.326-18.963-12.284-18.863
			c-0.566-2.307-0.872-4.675-0.933-7.049C97.952,53.12,81.985,40.814,77.746,38.121c-0.605-0.384-0.861-1.118-0.676-1.81
			c5.607-21.03-14.458-37.905-18.581-25.615c-2.889,8.613,0.06,16.222,2.183,20.135c0.61,1.125-0.244,2.461-1.522,2.395
			C45.24,32.507,31.7,43.927,25.659,62.643C19.143,82.829,12.942,78.448,4.91,89.816c-4.862,6.882-1.423,13.667,2.048,17.951
			c2.321,2.863,6.198,3.943,9.679,2.73c8.694,3.044,14.991-2.578,20.102-9.812c5.111-7.234,22.321-7.47,22.321-7.47
			S68.37,106.929,59.868,131.434z"/>
		<path class="st3" d="M68.542,34.842c2.528-22.179-10.504-22.409-10.558-22.41C56,20.322,58.692,27.183,60.672,30.831
			c0.222,0.41,0.246,0.846,0.13,1.234L68.542,34.842z"/>
		<path class="st8" d="M77.07,36.311c-0.185,0.692,0.071,1.426,0.676,1.81c4.239,2.692,20.206,14.998,21.052,48.047
			c0.061,2.374,0.367,4.743,0.933,7.049c-0.042-0.1,1.991,11.464,12.284,18.863c0.777,0.558,1.57,1.06,2.37,1.532
			c-3.103-9.349-5.782-22.412-6.682-27.01c-0.156-0.795,0.556-1.485,1.348-1.309l4.634,1.03c0.944,0.21,1.699-0.785,1.231-1.631
			c-1.933-3.494-4.932-11.192-3.534-23.776c1.477-13.292-3.242-18.108-5.813-19.719c-0.473-0.297-0.357-0.993,0.175-1.165
			c2.902-0.937,4.926-2.741,5.957-3.844c0.351-0.376,0.142-0.989-0.365-1.081c-7.251-1.313-14.872-9.695-21.392-16.578
			c-4.522-4.774-10.787-3.154-14.538-1.491C77.879,22.282,79.006,29.048,77.07,36.311z"/>
		<path class="st8" d="M14.874,44.086c13.92,6.566,24.503-3.749,24.503-3.749l0.228,0.182c5.845-5.02,12.649-7.65,19.545-7.293
			c1.278,0.066,2.132-1.271,1.522-2.395c-1.976-3.64-4.659-10.48-2.699-18.351c-11.841-1.142-20.79,4.95-24.453,10.135
			c-3.467,4.907-9.093,6.878-11.524,7.53c-0.454,0.122-0.555,0.716-0.171,0.987l3.814,2.694c0.27,0.191,0.322,0.583,0.1,0.829
			c-3.036,3.37-7.331,5.118-10.58,6.009C13.518,41.115,13.335,43.361,14.874,44.086z"/>
		<path class="st8" d="M252.955,162.046c-20.761-12.587-3.969-56.602-34.589-60.914c-9.553-1.345-19.453,5.452-23.86,12.491
			c0.429,0.232,0.86,0.461,1.282,0.711c3.161,1.879,5.757,4.044,7.883,6.414c15.467-11.035,16.535,22.835,23.759,35.017
			c6.022,10.155,19.178,9.306,25.162,8.309C253.605,163.906,253.833,162.579,252.955,162.046z"/>
		<g>
			<path class="st9" d="M165.044,247.306c-0.096-9.425,7.776-13.706,11.476-15.197c1.189-0.479,2.037-1.553,2.261-2.815
				l3.604-24.304c0.307-0.922-0.008-1.93-0.767-2.537c-7.432-5.933-12.43-12.295-15.686-18.659
				c-4.433,2.554-9.863,4.556-15.824,6.087c3.021,4.3,6.948,8.535,12.005,12.572c0.76,0.606,1.075,1.615,0.767,2.537l-3.604,24.304
				c-0.224,1.263-1.071,2.336-2.261,2.815c-3.7,1.491-11.572,5.772-11.476,15.197c0.012,1.186,0.942,2.156,2.128,2.156
				c3.797,0,12.374,0,19.505,0C165.986,249.462,165.056,248.491,165.044,247.306z"/>
			<path class="st9" d="M165.044,247.306c-0.084-8.21,5.878-12.515,9.862-14.474c-7.789-2.522-15.096-1.453-17.32-1.022
				c-0.181,0.114-0.369,0.218-0.571,0.299c-3.7,1.491-11.572,5.772-11.476,15.197c0.012,1.186,0.942,2.156,2.128,2.156
				c3.797,0,12.374,0,19.505,0C165.986,249.462,165.056,248.491,165.044,247.306z"/>
		</g>
		<path class="st2" d="M197.901,247.419v-6.978c0-2.024,0.15-4.04,0.43-6.037c-9.129-4.486-18.645-3.098-21.241-2.595
			c-0.181,0.114-0.369,0.218-0.571,0.299c-3.7,1.491-11.572,5.772-11.476,15.197c0.012,1.186,0.942,2.156,2.128,2.156
			c5.809,0,22.804,0,28.693,0C196.993,249.462,197.901,248.547,197.901,247.419z"/>
		<path class="st2" d="M165.044,247.306c-0.084-8.21,5.878-12.515,9.862-14.474c-7.789-2.522-15.096-1.453-17.32-1.022
			c-0.181,0.114-0.369,0.218-0.571,0.299c-3.7,1.491-11.572,5.772-11.476,15.197c0.012,1.186,0.942,2.156,2.128,2.156
			c3.797,0,12.374,0,19.505,0C165.986,249.462,165.056,248.491,165.044,247.306z"/>
		<path class="st2" d="M74.017,231.033c-0.547,0.558-1.197,1.017-1.936,1.329c-3.492,1.475-9.172,5.126-10.452,13.515
			c-0.287,1.88,1.15,3.585,3.052,3.585h28.206c1.666,0,3.032-1.322,3.085-2.987l0.362-11.215c0.005-0.157,0.022-0.312,0.039-0.467
			C87.709,229.661,78.179,230.372,74.017,231.033z"/>
		<path class="st9" d="M72.082,232.362c1.83-0.773,3.149-2.417,3.577-4.358c3.148-14.283,4.369-29.93,4.528-39.256
			c-5.275-2.326-10.169-5.725-14.098-10.288l-7.773,18.18c-2.272,5.313-1.889,11.388,1.032,16.374l9.877,20.859
			C70.244,233.216,71.229,232.723,72.082,232.362z"/>
		<path class="st7" d="M197.901,247.419v-6.978c0-2.024,0.15-4.04,0.43-6.037c-9.129-4.486-18.645-3.098-21.241-2.595
			c-0.181,0.114-0.369,0.218-0.571,0.299c-3.7,1.491-11.572,5.772-11.476,15.197c0.012,1.186,0.942,2.156,2.128,2.156
			c5.809,0,22.804,0,28.693,0C196.993,249.462,197.901,248.547,197.901,247.419z"/>
		<path class="st7" d="M165.044,247.306c-0.096-9.425,7.776-13.706,11.476-15.197c1.189-0.479,2.037-1.553,2.261-2.815l3.604-24.304
			c0.307-0.922-0.008-1.93-0.767-2.537c-7.432-5.933-12.43-12.295-15.686-18.659c-4.433,2.554-9.863,4.556-15.824,6.087
			c3.021,4.3,6.948,8.535,12.005,12.572c0.76,0.606,1.075,1.615,0.767,2.537l-3.604,24.304c-0.224,1.263-1.071,2.336-2.261,2.815
			c-3.7,1.491-11.572,5.772-11.476,15.197c0.012,1.186,0.942,2.156,2.128,2.156c3.797,0,12.374,0,19.505,0
			C165.986,249.462,165.056,248.491,165.044,247.306z"/>
		<path class="st7" d="M165.044,247.306c-0.084-8.21,5.878-12.515,9.862-14.474c-7.789-2.522-15.096-1.453-17.32-1.022
			c-0.181,0.114-0.369,0.218-0.571,0.299c-3.7,1.491-11.572,5.772-11.476,15.197c0.012,1.186,0.942,2.156,2.128,2.156
			c3.797,0,12.374,0,19.505,0C165.986,249.462,165.056,248.491,165.044,247.306z"/>
		<path class="st7" d="M164.393,157.941c0,0-5.464,13.85,1.538,25.853"/>
		<path class="st7" d="M74.017,231.033c-0.547,0.558-1.197,1.017-1.936,1.329c-3.492,1.475-9.172,5.126-10.452,13.515
			c-0.287,1.88,1.15,3.585,3.052,3.585h28.206c1.666,0,3.032-1.322,3.085-2.987l0.362-11.215c0.005-0.157,0.022-0.312,0.039-0.467
			C87.709,229.661,78.179,230.372,74.017,231.033z"/>
		<path class="st7" d="M72.082,232.362c1.83-0.773,3.149-2.417,3.577-4.358c3.148-14.283,4.369-29.93,4.528-39.256
			c-5.275-2.326-10.169-5.725-14.098-10.288l-7.773,18.18c-2.272,5.313-1.889,11.388,1.032,16.374l9.877,20.859
			C70.244,233.216,71.229,232.723,72.082,232.362z"/>
		<line class="st7" x1="80.187" y1="188.749" x2="80.373" y2="167.943"/>
		<line class="st7" x1="107.362" y1="193.666" x2="108.38" y2="185.948"/>
		<path class="st7" d="M59.868,131.434c-10.343,29.812,3.144,49.742,20.318,57.314c-0.159,9.326-1.38,24.972-4.528,39.256
			c-0.428,1.94-1.747,3.584-3.577,4.358c-3.491,1.475-9.169,5.125-10.451,13.509c-0.288,1.882,1.147,3.591,3.051,3.591h28.206
			c1.666,0,3.032-1.322,3.085-2.987l0.362-11.215c0.027-0.838,0.223-1.655,0.576-2.415c1.782-3.831,7.572-21.221,10.451-39.178
			c19.828,0.944,44.306-1.656,58.569-9.872c3.257,6.365,8.254,12.726,15.686,18.659c0.76,0.606,1.075,1.615,0.767,2.537
			l-3.602,24.291c-0.226,1.27-1.078,2.35-2.274,2.833c-3.706,1.495-11.569,5.781-11.465,15.208c0.013,1.178,0.948,2.141,2.126,2.141
			h28.694c1.125,0,2.036-0.912,2.036-2.036v-6.984c0-4.538,0.701-9.048,2.109-13.362c1.877-5.751,5.036-17.837,9.594-24.408
			c2.108-3.039,2.276-7.064,0.286-10.181c-2.66-4.164-5.272-10.615-2.986-18.045c3.279-10.655,14.617-44.818-11.116-60.11
			c-9.887-5.875-21.966-6.672-32.808-2.832c-13.578,4.81-34.911,12.119-50.965,0.578c-10.293-7.399-12.326-18.963-12.284-18.863
			c-0.566-2.307-0.872-4.675-0.933-7.049C97.952,53.12,81.985,40.814,77.746,38.121c-0.605-0.384-0.861-1.118-0.676-1.81
			c5.607-21.03-14.458-37.905-18.581-25.615c-2.889,8.613,0.06,16.222,2.183,20.135c0.61,1.125-0.244,2.461-1.522,2.395
			C45.24,32.507,31.7,43.927,25.659,62.643C19.143,82.829,12.942,78.448,4.91,89.816c-4.862,6.882-1.423,13.667,2.048,17.951
			c2.321,2.863,6.198,3.943,9.679,2.73c8.694,3.044,14.991-2.578,20.102-9.812c5.111-7.234,22.321-7.47,22.321-7.47
			S68.37,106.929,59.868,131.434z"/>
		<path class="st7" d="M16.638,110.496c0,0,4.471-3.039,8.852-9.239"/>
		<path class="st7" d="M57.982,12.432c0,0,13.094,0.185,10.56,22.41"/>
		<path class="st7" d="M80.263,68.688C85.514,88.666,59.06,93.215,59.06,93.215"/>
		<path class="st7" d="M10.257,99.791L10.257,99.791c-0.015-2.858,2.527-5.052,5.352-4.621l0.214,0.033"/>
		<path class="st7" d="M77.07,36.311c-0.185,0.692,0.071,1.426,0.676,1.81c4.239,2.692,20.206,14.998,21.052,48.047
			c0.061,2.374,0.367,4.743,0.933,7.049c-0.042-0.1,1.991,11.464,12.284,18.863c0.777,0.558,1.57,1.06,2.37,1.532
			c-3.103-9.349-5.782-22.412-6.682-27.01c-0.156-0.795,0.556-1.485,1.348-1.309l4.634,1.03c0.944,0.21,1.699-0.785,1.231-1.631
			c-1.933-3.494-4.932-11.192-3.534-23.776c1.477-13.292-3.242-18.108-5.813-19.719c-0.473-0.297-0.357-0.993,0.175-1.165
			c2.902-0.937,4.926-2.741,5.957-3.844c0.351-0.376,0.142-0.989-0.365-1.081c-7.251-1.313-14.872-9.695-21.392-16.578
			c-4.522-4.774-10.787-3.154-14.538-1.491C77.879,22.282,79.006,29.048,77.07,36.311z"/>
		<path class="st7" d="M14.874,44.086c13.92,6.566,24.503-3.749,24.503-3.749l0.228,0.182c5.845-5.02,12.649-7.65,19.545-7.293
			c1.278,0.066,2.132-1.271,1.522-2.395c-1.976-3.64-4.659-10.48-2.699-18.351c-11.841-1.142-20.79,4.95-24.453,10.135
			c-3.467,4.907-9.093,6.878-11.524,7.53c-0.454,0.122-0.555,0.716-0.171,0.987l3.814,2.694c0.27,0.191,0.322,0.583,0.1,0.829
			c-3.036,3.37-7.331,5.118-10.58,6.009C13.518,41.115,13.335,43.361,14.874,44.086z"/>
		<path class="st7" d="M252.955,162.046c-20.761-12.587-3.969-56.602-34.589-60.914c-9.553-1.345-19.453,5.452-23.86,12.491
			c0.429,0.232,0.86,0.461,1.282,0.711c3.161,1.879,5.757,4.044,7.883,6.414c15.467-11.035,16.535,22.835,23.759,35.017
			c6.022,10.155,19.178,9.306,25.162,8.309C253.605,163.906,253.833,162.579,252.955,162.046z"/>
		<path class="st7" d="M42.578,67.443c-0.01-3.232,2.601-5.861,5.833-5.871c3.232-0.01,5.861,2.601,5.871,5.833"/>
	</g>
</g>
<g id="Layer_12">
</g>
<g id="Layer_13">
</g>
<g id="Layer_14">
</g>
<g id="Layer_15">
</g>
<g id="Layer_16">
</g>
<g id="Layer_17">
</g>
<g id="Layer_18">
</g>
<g id="Layer_19">
</g>
<g id="Layer_20">
</g>
<g id="Layer_21">
</g>
<g id="Layer_22">
</g>
<g id="Layer_23">
</g>
<g id="Layer_24">
</g>
<g id="Layer_25">
</g>
<g id="Layer_26">
</g>
<g id="Layer_27">
</g>
<g id="Layer_28">
</g>
<g id="Layer_29">
</g>
<g id="Layer_30">
</g>
<g id="Layer_31">
</g>
<g id="Layer_32">
</g>
<g id="Layer_33">
</g>
<g id="Layer_34">
</g>
<g id="Layer_35">
</g>
<g id="Layer_36">
</g>
<g id="Layer_37">
</g>
<g id="Layer_38">
</g>
<g id="Layer_39">
</g>
<g id="Layer_40">
</g>
<g id="Layer_41">
</g>
<g id="Layer_42">
</g>
<g id="Layer_43">
</g>
<g id="Layer_44">
</g>
<g id="Layer_45">
</g>
<g id="Layer_46">
</g>
<g id="Layer_47">
</g>
<g id="Layer_48">
</g>
<g id="Layer_49">
</g>
<g id="Layer_50">
</g>
<g id="Layer_51">
</g>
<g id="Layer_52">
</g>
<g id="Layer_53">
</g>
<g id="Layer_54">
</g>
<g id="Layer_55">
</g>
<g id="Layer_56">
</g>
<g id="Layer_57">
</g>
<g id="Layer_58">
</g>
<g id="Layer_59">
</g>
<g id="Layer_60">
</g>
<g id="Layer_61">
</g>
<g id="Layer_62">
</g>
<g id="Layer_63">
</g>
<g id="Layer_64">
</g>
<g id="Layer_65">
</g>
<g id="Layer_66">
</g>
<g id="Layer_67">
</g>
<g id="Layer_68">
</g>
<g id="Layer_69">
</g>
<g id="Layer_70">
</g>
<g id="Layer_71">
</g>
<g id="Layer_72">
</g>
<g id="Layer_73">
</g>
<g id="Layer_74">
</g>
<g id="Layer_75">
</g>
<g id="Layer_76">
</g>
<g id="Layer_77">
</g>
<g id="Layer_78">
</g>
<g id="Layer_79">
</g>
<g id="Layer_80">
</g>
<g id="Layer_81">
</g>
<g id="Layer_82">
</g>
<g id="Layer_83">
</g>
<g id="Layer_84">
</g>
<g id="Layer_85">
</g>
<g id="Layer_86">
</g>
<g id="Layer_87">
</g>
<g id="Layer_88">
</g>
<g id="Layer_89">
</g>
<g id="Layer_90">
</g>
<g id="Layer_91">
</g>
<g id="Layer_92">
</g>
<g id="Layer_93">
</g>
<g id="Layer_94">
</g>
<g id="Layer_95">
</g>
<g id="Layer_96">
</g>
<g id="Layer_97">
</g>
<g id="Layer_98">
</g>
<g id="Layer_99">
</g>
<g id="Layer_100">
</g>
</svg>
