<?xml version="1.0" encoding="utf-8"?>
<!-- Generator: Adobe Illustrator 22.0.0, SVG Export Plug-In . SVG Version: 6.00 Build 0)  -->
<svg version="1.1" xmlns="http://www.w3.org/2000/svg" xmlns:xlink="http://www.w3.org/1999/xlink" x="0px" y="0px"
	 viewBox="0 0 256 256" style="enable-background:new 0 0 256 256;" xml:space="preserve">
<style type="text/css">
	.st0{fill:#F9BD55;}
	.st1{fill:#F4DBCE;}
	.st2{fill:#52565B;}
	.st3{fill:#FD605B;}
	.st4{fill:#F98080;}
	.st5{fill:#F9E63A;}
	.st6{fill:#039BE6;}
	.st7{fill:none;stroke:#000000;stroke-width:5;stroke-linecap:round;stroke-linejoin:round;stroke-miterlimit:10;}
	.st8{fill:#7D3D1A;}
	.st9{fill:#EAA250;}
	.st10{fill:#DD7F57;}
	.st11{fill:#FFC097;}
	.st12{fill:#F49667;}
	.st13{fill:#F89422;}
	.st14{fill:#E3E4E5;}
	.st15{fill:#6E7175;}
	.st16{fill:#46BAF9;}
	.st17{fill:#D9F3FF;}
	.st18{fill:#828487;}
	.st19{fill:#A8AEB2;}
	.st20{fill:#C9CDD1;}
	.st21{fill:#8CD8F9;}
	.st22{fill:#1AA7E5;}
	.st23{fill:#ACE7FC;}
	.st24{fill:#FFFFFF;}
	.st25{fill:#9E512B;}
	.st26{fill:#7ED5FC;}
	.st27{fill:#7CCC4E;}
	.st28{fill:#3AA03A;}
	.st29{fill:#FCB1B1;}
	.st30{fill:#F76E23;}
	.st31{fill:#C16A44;}
	.st32{fill:#B796EA;}
</style>
<g id="Layer_1">
</g>
<g id="Layer_2">
</g>
<g id="Layer_3">
</g>
<g id="Layer_4">
</g>
<g id="Layer_5">
</g>
<g id="Layer_6">
</g>
<g id="Layer_7">
</g>
<g id="Layer_8">
</g>
<g id="Layer_9">
</g>
<g id="Layer_10">
</g>
<g id="Layer_11">
</g>
<g id="Layer_12">
</g>
<g id="Layer_13">
</g>
<g id="Layer_14">
</g>
<g id="Layer_15">
</g>
<g id="Layer_16">
</g>
<g id="Layer_17">
</g>
<g id="Layer_18">
</g>
<g id="Layer_19">
</g>
<g id="Layer_20">
</g>
<g id="Layer_21">
</g>
<g id="Layer_22">
</g>
<g id="Layer_23">
</g>
<g id="Layer_24">
</g>
<g id="Layer_25">
</g>
<g id="Layer_26">
</g>
<g id="Layer_27">
</g>
<g id="Layer_28">
</g>
<g id="Layer_29">
</g>
<g id="Layer_30">
</g>
<g id="Layer_31">
</g>
<g id="Layer_32">
</g>
<g id="Layer_33">
</g>
<g id="Layer_34">
</g>
<g id="Layer_35">
</g>
<g id="Layer_36">
</g>
<g id="Layer_37">
</g>
<g id="Layer_38">
</g>
<g id="Layer_39">
</g>
<g id="Layer_40">
</g>
<g id="Layer_41">
</g>
<g id="Layer_42">
</g>
<g id="Layer_43">
</g>
<g id="Layer_44">
</g>
<g id="Layer_45">
</g>
<g id="Layer_46">
</g>
<g id="Layer_47">
</g>
<g id="Layer_48">
</g>
<g id="Layer_49">
</g>
<g id="Layer_50">
</g>
<g id="Layer_51">
</g>
<g id="Layer_52">
</g>
<g id="Layer_53">
</g>
<g id="Layer_54">
</g>
<g id="Layer_55">
</g>
<g id="Layer_56">
</g>
<g id="Layer_57">
</g>
<g id="Layer_58">
</g>
<g id="Layer_59">
</g>
<g id="Layer_60">
</g>
<g id="Layer_61">
</g>
<g id="Layer_62">
</g>
<g id="Layer_63">
</g>
<g id="Layer_64">
</g>
<g id="Layer_65">
</g>
<g id="Layer_66">
</g>
<g id="Layer_67">
</g>
<g id="Layer_68">
</g>
<g id="Layer_69">
</g>
<g id="Layer_70">
</g>
<g id="Layer_71">
</g>
<g id="Layer_72">
</g>
<g id="Layer_73">
</g>
<g id="Layer_74">
</g>
<g id="Layer_75">
</g>
<g id="Layer_76">
</g>
<g id="Layer_77">
</g>
<g id="Layer_78">
</g>
<g id="Layer_79">
</g>
<g id="Layer_80">
</g>
<g id="Layer_81">
</g>
<g id="Layer_82">
</g>
<g id="Layer_83">
</g>
<g id="Layer_84">
</g>
<g id="Layer_85">
</g>
<g id="Layer_86">
</g>
<g id="Layer_87">
</g>
<g id="Layer_88">
</g>
<g id="Layer_89">
</g>
<g id="Layer_90">
</g>
<g id="Layer_91">
</g>
<g id="Layer_92">
</g>
<g id="Layer_93">
	<g>
		<path class="st16" d="M249.45,35.441c-46.269-1.855-63.636,27.156-93.911,37.051c-4.203,1.374-7.794,2.853-10.861,4.38
			c-6.63,3.302-11.333,8.885-13.654,15.331c-25.5-12.128-27.915-42.263-49.264-42.263c-24.052,0-26.238,25.145-26.238,25.145
			l7.653,3.28l-1.093,6.56c25.145,6.56,30.064,27.878,30.064,27.878c8.057,25.179,30.058,37.167,46.311,47.632
			c3.751,2.416,6.466,6.171,7.47,10.517c5.255,22.752-13.33,56.643-13.33,56.643s15.698-14.622,22.958-26.238
			c0,0-3.28,10.933-6.56,20.772c-3.187,9.562-7.653,18.585-7.653,18.585c18.027-12.725,26.797-27.506,31.049-39.357l-0.13,5.853
			c-0.204,9.165-1.781,18.247-4.68,26.944c12.026-10.933,21.865-29.409,21.865-51.383c0-25.145-17.622-36.079-17.622-36.079
			c-0.852-8.3-2.705-15.37-5.091-21.361c13.037-0.493,9.389-13.901,9.389-13.901c22.786,6.329,26.365-13.503,26.365-13.503
			c15.014-3.27,16.367-17.529,16.367-17.529c25.627-5.679,16.834-25.489,16.834-25.489c7.816-4.219,13.158-8.717,16.604-12.261
			C254.84,40.028,253.1,35.588,249.45,35.441z"/>
		<path class="st26" d="M140.325,161.844c4.286-27.245-17.245-48.759-32.326-51.775c-7.266-1.453-12.807-0.973-16.734,0.011
			c0.642,1.685,0.882,2.722,0.882,2.722c8.057,25.179,30.058,37.167,46.311,47.632C139.118,160.859,139.733,161.34,140.325,161.844z
			"/>
		<path class="st16" d="M131.025,92.203c2.321-6.446,7.024-12.028,13.654-15.331c3.067-1.527,6.658-3.006,10.861-4.38
			c5.609-1.833,10.774-4.324,15.763-7.152c19.553-14.57,4.56-28.016,4.56-28.016c5.021-6.553,7.839-12.402,9.412-16.719
			c1.162-3.19-2.004-6.293-5.155-5.027c-38.923,15.634-43.419,45.671-63.896,65.625C120.23,85.457,124.985,89.33,131.025,92.203z"/>
		<path class="st0" d="M62.082,84.924l1.093-6.56l-7.653-3.28c0,0-18.039,6.013-53.023,31.158
			C2.5,106.242,46.23,86.564,62.082,84.924z"/>
		<path class="st32" d="M249.45,35.441c-12.367-0.496-22.657,1.227-31.693,4.187c2.448,4.856,5.164,14.297-3.65,23.666
			c0,0,3.61,13.676-11.618,19.019c0,0,1.17,10.809-13.042,16.275c0,0-0.204,7.374-13.323,12.84
			c22.786,6.329,26.365-13.503,26.365-13.503c15.014-3.27,16.367-17.529,16.367-17.529c25.627-5.679,16.834-25.489,16.834-25.489
			c7.816-4.219,13.158-8.717,16.604-12.261C254.84,40.028,253.1,35.588,249.45,35.441z"/>
		<path class="st32" d="M160.753,52.653c0,0,6.961,8.621-0.325,18.029c3.772-1.543,7.368-3.355,10.873-5.341
			c19.554-14.57,4.561-28.016,4.561-28.016c5.021-6.554,7.839-12.402,9.412-16.72c1.162-3.19-2.004-6.293-5.155-5.027
			c-10.676,4.289-18.746,9.667-25.281,15.617C158.763,34.38,164.66,41.352,160.753,52.653z"/>
		<path class="st7" d="M123.851,144.506l-15.852,18.039c0,0-4.92-6.013-11.479-2.733"/>
		<path class="st7" d="M101.986,151.066c0,0,5.466,1.093,6.013,11.479c0,0,2.733,2.733,1.64,6.013"/>
		<path class="st7" d="M88.197,132.891c0,0,5.055,2.349,3.143,12.572c0,0,2.013,3.3,0.179,6.23"/>
		<path class="st7" d="M62.082,84.924l1.093-6.56l-7.653-3.28c0,0-18.039,6.013-53.023,31.158
			C2.5,106.242,46.23,86.564,62.082,84.924z"/>
		<path class="st7" d="M155.556,201.355c5.464-8.742,6.285-16.391,5.74-21.857"/>
		<path class="st7" d="M176.058,185.658c-0.417,3.896-1.399,9.38-3.666,15.698"/>
		<path class="st7" d="M105.47,135.539l-14.13,9.924c0,0-3.367-7.002-10.514-5.358"/>
		<g>
			<path class="st7" d="M73.362,70.199c0-2.783,2.256-5.039,5.039-5.039c2.783,0,5.039,2.256,5.039,5.039"/>
		</g>
		<path class="st7" d="M140.325,161.844c4.286-27.245-17.245-48.759-32.326-51.775c-7.266-1.453-12.807-0.973-16.734,0.011
			c0.642,1.685,0.882,2.722,0.882,2.722c8.057,25.179,30.058,37.167,46.311,47.632C139.118,160.859,139.733,161.34,140.325,161.844z
			"/>
		<path class="st7" d="M235.69,54.908c-7.468,4.031-17.194,7.808-29.682,10.253"/>
		<path class="st7" d="M218.855,80.397c-5.466,1.2-12.414,1.916-21.211,1.916"/>
		<path class="st7" d="M202.488,97.927c-4.234,0.922-9.555,0.97-16.238-0.422"/>
		<path class="st7" d="M129.671,97.578c1.269-8.647,6.589-16.514,15.007-20.706c3.067-1.528,6.658-3.006,10.861-4.38
			c30.275-9.895,47.643-38.906,93.911-37.051c3.65,0.146,5.39,4.587,2.844,7.205c-3.446,3.544-8.788,8.042-16.604,12.261
			c0,0,8.793,19.81-16.834,25.49c0,0-1.352,14.26-16.367,17.529c0,0-3.579,19.832-26.365,13.503c0,0,3.798,13.925-10.127,13.925
			c0,0-1.483,4.45-6.305,6.243"/>
		<path class="st7" d="M249.45,35.441c-46.269-1.855-63.636,27.156-93.911,37.051c-4.203,1.374-7.794,2.853-10.861,4.38
			c-6.63,3.302-11.333,8.885-13.654,15.331c-25.5-12.128-27.915-42.263-49.264-42.263c-24.052,0-26.238,25.145-26.238,25.145
			l7.653,3.28l-1.093,6.56c25.145,6.56,30.064,27.878,30.064,27.878c8.057,25.179,30.058,37.167,46.311,47.632
			c3.751,2.416,6.466,6.171,7.47,10.517c5.255,22.752-13.33,56.643-13.33,56.643s15.698-14.622,22.958-26.238
			c0,0-3.28,10.933-6.56,20.772c-3.187,9.562-7.653,18.585-7.653,18.585c18.027-12.725,26.797-27.506,31.049-39.357l-0.13,5.853
			c-0.204,9.165-1.781,18.247-4.68,26.944c12.026-10.933,21.865-29.409,21.865-51.383c0-25.145-17.622-36.079-17.622-36.079
			c-0.852-8.3-2.705-15.37-5.091-21.361c13.037-0.493,9.389-13.901,9.389-13.901c22.786,6.329,26.365-13.503,26.365-13.503
			c15.014-3.27,16.367-17.529,16.367-17.529c25.627-5.679,16.834-25.489,16.834-25.489c7.816-4.219,13.158-8.717,16.604-12.261
			C254.84,40.028,253.1,35.588,249.45,35.441z"/>
		<path class="st7" d="M249.45,35.441c-12.367-0.496-22.657,1.227-31.693,4.187c2.448,4.856,5.164,14.297-3.65,23.666
			c0,0,3.61,13.676-11.618,19.019c0,0,1.17,10.809-13.042,16.275c0,0-0.204,7.374-13.323,12.84
			c22.786,6.329,26.365-13.503,26.365-13.503c15.014-3.27,16.367-17.529,16.367-17.529c25.627-5.679,16.834-25.489,16.834-25.489
			c7.816-4.219,13.158-8.717,16.604-12.261C254.84,40.028,253.1,35.588,249.45,35.441z"/>
		<path class="st7" d="M175.862,37.324c-4.798,6.262-11.608,13.167-21.266,19.996"/>
		<path class="st7" d="M131.025,92.203c2.321-6.446,7.024-12.028,13.654-15.331c3.067-1.527,6.658-3.006,10.861-4.38
			c5.609-1.833,10.774-4.324,15.763-7.152c19.553-14.57,4.56-28.016,4.56-28.016c5.021-6.553,7.839-12.402,9.412-16.719
			c1.162-3.19-2.004-6.293-5.155-5.027c-38.923,15.634-43.419,45.671-63.896,65.625C120.23,85.457,124.985,89.33,131.025,92.203z"/>
		<path class="st7" d="M160.753,52.653c0,0,6.961,8.621-0.325,18.029c3.772-1.543,7.368-3.355,10.873-5.341
			c19.554-14.57,4.561-28.016,4.561-28.016c5.021-6.554,7.839-12.402,9.412-16.72c1.162-3.19-2.004-6.293-5.155-5.027
			c-10.676,4.289-18.746,9.667-25.281,15.617C158.763,34.38,164.66,41.352,160.753,52.653z"/>
	</g>
</g>
<g id="Layer_94">
</g>
<g id="Layer_95">
</g>
<g id="Layer_96">
</g>
<g id="Layer_97">
</g>
<g id="Layer_98">
</g>
<g id="Layer_99">
</g>
<g id="Layer_100">
</g>
</svg>
