<?xml version="1.0" encoding="utf-8"?>
<!-- Generator: Adobe Illustrator 22.0.0, SVG Export Plug-In . SVG Version: 6.00 Build 0)  -->
<svg version="1.1" xmlns="http://www.w3.org/2000/svg" xmlns:xlink="http://www.w3.org/1999/xlink" x="0px" y="0px"
	 viewBox="0 0 256 256" style="enable-background:new 0 0 256 256;" xml:space="preserve">
<style type="text/css">
	.st0{fill:#F9BD55;}
	.st1{fill:#F4DBCE;}
	.st2{fill:#52565B;}
	.st3{fill:#FD605B;}
	.st4{fill:#F98080;}
	.st5{fill:#F9E63A;}
	.st6{fill:#039BE6;}
	.st7{fill:none;stroke:#000000;stroke-width:5;stroke-linecap:round;stroke-linejoin:round;stroke-miterlimit:10;}
	.st8{fill:#7D3D1A;}
	.st9{fill:#EAA250;}
	.st10{fill:#DD7F57;}
	.st11{fill:#FFC097;}
	.st12{fill:#F49667;}
	.st13{fill:#F89422;}
	.st14{fill:#E3E4E5;}
	.st15{fill:#6E7175;}
	.st16{fill:#46BAF9;}
	.st17{fill:#D9F3FF;}
	.st18{fill:#828487;}
	.st19{fill:#A8AEB2;}
	.st20{fill:#C9CDD1;}
	.st21{fill:#8CD8F9;}
	.st22{fill:#1AA7E5;}
	.st23{fill:#ACE7FC;}
	.st24{fill:#FFFFFF;}
	.st25{fill:#9E512B;}
	.st26{fill:#7ED5FC;}
	.st27{fill:#7CCC4E;}
	.st28{fill:#3AA03A;}
	.st29{fill:#FCB1B1;}
	.st30{fill:#F76E23;}
	.st31{fill:#C16A44;}
	.st32{fill:#B796EA;}
</style>
<g id="Layer_1">
</g>
<g id="Layer_2">
</g>
<g id="Layer_3">
</g>
<g id="Layer_4">
</g>
<g id="Layer_5">
</g>
<g id="Layer_6">
</g>
<g id="Layer_7">
</g>
<g id="Layer_8">
</g>
<g id="Layer_9">
</g>
<g id="Layer_10">
</g>
<g id="Layer_11">
</g>
<g id="Layer_12">
</g>
<g id="Layer_13">
</g>
<g id="Layer_14">
</g>
<g id="Layer_15">
</g>
<g id="Layer_16">
</g>
<g id="Layer_17">
</g>
<g id="Layer_18">
</g>
<g id="Layer_19">
</g>
<g id="Layer_20">
</g>
<g id="Layer_21">
</g>
<g id="Layer_22">
</g>
<g id="Layer_23">
</g>
<g id="Layer_24">
</g>
<g id="Layer_25">
</g>
<g id="Layer_26">
</g>
<g id="Layer_27">
</g>
<g id="Layer_28">
</g>
<g id="Layer_29">
</g>
<g id="Layer_30">
</g>
<g id="Layer_31">
</g>
<g id="Layer_32">
	<g>
		<path class="st2" d="M252.326,73.755c-1.862,0.631-4.721,1.072-8.224-0.095c-6.043-2.014-5.384-8.817-14.408-8.572
			c-0.517,0.014-0.854-0.537-0.582-0.978c0.954-1.543,1.961-4.852-0.903-10.58c-3.443-6.886-4.089-19.367,0.903-27.215
			c0.512-0.804-0.496-1.712-1.267-1.151c-8.398,6.107-22.711,21.09-18.238,50.399c0.366,2.401,0.028,4.853-1.025,7.042
			c-4.655,9.679-19.695,35.784-49.341,43.176c-1.615,0.403-3.321,0.192-4.793-0.586c-14.854-7.85-10.031-20.798-6.071-27.542
			c1.039-1.769-0.56-3.918-2.546-3.401c-13.537,3.52-22.907,14.315-28.364,22.699c-1.966,3.02-5.791,4.212-9.136,2.872
			c-16.111-6.455-34.653-15.07-51.759-16.495c-8.181-0.682-16.056,0.262-21.634,1.295c-4.483,0.83-9.107,0.796-13.545-0.249
			c-6.364-1.499-11.435,0.644-14.51,2.639c-1.913,1.241-2.293,3.885-0.849,5.65l7.099,8.677l-6.509-1.183
			c-2.423-0.441-4.567,1.71-4.047,4.117c1.137,5.268,3.281,10.258,6.32,14.707c9.339,13.673,32.423,42.352,69.461,56.385
			c5.549,10.62,7.469,24.321,27.013,35.047c2.915,1.6,6.542-0.149,7.152-3.417c1.046-5.609,2.118-14.404,1.117-23.873
			c2.989,0.212,6.037,0.327,9.15,0.327c77.584,0,100.627-67.671,97.728-112.287c-0.109-1.672,1.221-3.073,2.896-3.061
			c6.737,0.047,22.53-1.183,29.946-13.046C253.803,74.345,253.116,73.488,252.326,73.755z"/>
		<path class="st2" d="M47.708,178.814c0.168,11.062-1.652,23.48,10.687,39.397c2.037,2.628,6.061,2.468,7.921-0.288
			c3.369-4.991,8.179-13.225,10.987-22.977C66.162,190.608,56.293,184.962,47.708,178.814z"/>
		<path class="st14" d="M154.123,199.172c22.487-6.641,38.339-20.417,48.919-36.986c-10.069,7.501-18.145,0.994-14.835-8.051
			c1.123-3.068,3.19-5.682,4.821-8.513c4.362-7.57,2.358-12.994-1.024-15.098c-2.922-1.817-6.724-1.079-9.968,0.068
			c-16.686,5.9-23.412,19.062-20.981,29.901C162.565,167.222,173.591,181.397,154.123,199.172z"/>
		<path class="st14" d="M73.909,188.822c-8.07-8.815-4.617-17.017-2.39-20.563c-1.875-8.09-4.468-15.783-9.813-21.99
			c-1.661-1.929-3.579-3.676-5.831-4.864c-2.268-1.196-4.798-1.79-7.311-2.3c-6.359-1.291-12.858-2.133-18.937-4.405
			c-6.078-2.271-11.195-7.006-16.492-13.363l-6.509-1.183c-2.423-0.441-4.567,1.71-4.047,4.117
			c1.137,5.268,3.281,10.258,6.32,14.707c9.3,13.615,32.224,42.11,68.986,56.207c-0.214-0.586-0.416-1.178-0.612-1.774
			C76.304,191.787,75.214,190.247,73.909,188.822z"/>
		<path class="st14" d="M82.988,129.776c-6.686-3.4-13.864-5.828-21.241-7.188c-1.701-0.314-3.052,1.521-2.162,3.059
			c3.094,5.346,0.849,8.13,7.656,9.225C81.33,137.14,87.259,131.948,82.988,129.776z"/>
		<path class="st7" d="M154.123,199.172c22.487-6.641,38.339-20.417,48.919-36.986c-10.069,7.501-18.145,0.994-14.835-8.051
			c1.123-3.068,3.19-5.682,4.821-8.513c4.362-7.57,2.358-12.994-1.024-15.098c-2.922-1.817-6.724-1.079-9.968,0.068
			c-16.686,5.9-23.412,19.062-20.981,29.901C162.565,167.222,173.591,181.397,154.123,199.172z"/>
		<path class="st7" d="M39.035,127.08c0.643-3.03,3.621-4.965,6.651-4.322s4.965,3.621,4.322,6.651"/>
		<path class="st7" d="M72.865,166.414c0,0-9.711,10.66,1.044,22.408c10.017,10.942,7.59,28.486,31.464,41.588
			c2.915,1.6,6.542-0.149,7.152-3.417c2.074-11.119,4.259-34.756-9.832-51.352"/>
		<path class="st7" d="M252.326,73.755c-1.862,0.631-4.721,1.072-8.224-0.095c-6.043-2.014-5.384-8.817-14.408-8.572
			c-0.517,0.014-0.854-0.537-0.582-0.978c0.954-1.543,1.961-4.852-0.903-10.58c-3.443-6.886-4.089-19.367,0.903-27.215
			c0.512-0.804-0.496-1.712-1.267-1.151c-8.398,6.107-22.711,21.09-18.238,50.399c0.366,2.401,0.028,4.853-1.025,7.042
			c-4.655,9.679-19.695,35.784-49.341,43.176c-1.615,0.403-3.321,0.192-4.793-0.586c-14.854-7.85-10.031-20.798-6.071-27.542
			c1.039-1.769-0.56-3.918-2.546-3.401c-13.537,3.52-22.907,14.315-28.364,22.699c-1.966,3.02-5.791,4.212-9.136,2.872
			c-16.111-6.455-34.653-15.07-51.759-16.495c-8.181-0.682-16.056,0.262-21.634,1.295c-4.483,0.83-9.107,0.796-13.545-0.249
			c-6.364-1.499-11.435,0.644-14.51,2.639c-1.913,1.241-2.293,3.885-0.849,5.65l7.099,8.677l-6.509-1.183
			c-2.423-0.441-4.567,1.71-4.047,4.117c1.137,5.268,3.281,10.258,6.32,14.707c9.339,13.673,32.423,42.352,69.461,56.385
			c5.549,10.62,7.469,24.321,27.013,35.047c2.915,1.6,6.542-0.149,7.152-3.417c1.046-5.609,2.118-14.404,1.117-23.873
			c2.989,0.212,6.037,0.327,9.15,0.327c77.584,0,100.627-67.671,97.728-112.287c-0.109-1.672,1.221-3.073,2.896-3.061
			c6.737,0.047,22.53-1.183,29.946-13.046C253.803,74.345,253.116,73.488,252.326,73.755z"/>
		<path class="st7" d="M73.909,188.822c-8.07-8.815-4.617-17.017-2.39-20.563c-1.875-8.09-4.468-15.783-9.813-21.99
			c-1.661-1.929-3.579-3.676-5.831-4.864c-2.268-1.196-4.798-1.79-7.311-2.3c-6.359-1.291-12.858-2.133-18.937-4.405
			c-6.078-2.271-11.195-7.006-16.492-13.363l-6.509-1.183c-2.423-0.441-4.567,1.71-4.047,4.117
			c1.137,5.268,3.281,10.258,6.32,14.707c9.3,13.615,32.224,42.11,68.986,56.207c-0.214-0.586-0.416-1.178-0.612-1.774
			C76.304,191.787,75.214,190.247,73.909,188.822z"/>
		<path class="st7" d="M47.708,178.814c0.168,11.062-1.652,23.48,10.687,39.397c2.037,2.628,6.061,2.468,7.921-0.288
			c3.369-4.991,8.179-13.225,10.987-22.977C66.162,190.608,56.293,184.962,47.708,178.814z"/>
		<path class="st7" d="M82.988,129.776c-6.686-3.4-13.864-5.828-21.241-7.188c-1.701-0.314-3.052,1.521-2.162,3.059
			c3.094,5.346,0.849,8.13,7.656,9.225C81.33,137.14,87.259,131.948,82.988,129.776z"/>
	</g>
</g>
<g id="Layer_33">
</g>
<g id="Layer_34">
</g>
<g id="Layer_35">
</g>
<g id="Layer_36">
</g>
<g id="Layer_37">
</g>
<g id="Layer_38">
</g>
<g id="Layer_39">
</g>
<g id="Layer_40">
</g>
<g id="Layer_41">
</g>
<g id="Layer_42">
</g>
<g id="Layer_43">
</g>
<g id="Layer_44">
</g>
<g id="Layer_45">
</g>
<g id="Layer_46">
</g>
<g id="Layer_47">
</g>
<g id="Layer_48">
</g>
<g id="Layer_49">
</g>
<g id="Layer_50">
</g>
<g id="Layer_51">
</g>
<g id="Layer_52">
</g>
<g id="Layer_53">
</g>
<g id="Layer_54">
</g>
<g id="Layer_55">
</g>
<g id="Layer_56">
</g>
<g id="Layer_57">
</g>
<g id="Layer_58">
</g>
<g id="Layer_59">
</g>
<g id="Layer_60">
</g>
<g id="Layer_61">
</g>
<g id="Layer_62">
</g>
<g id="Layer_63">
</g>
<g id="Layer_64">
</g>
<g id="Layer_65">
</g>
<g id="Layer_66">
</g>
<g id="Layer_67">
</g>
<g id="Layer_68">
</g>
<g id="Layer_69">
</g>
<g id="Layer_70">
</g>
<g id="Layer_71">
</g>
<g id="Layer_72">
</g>
<g id="Layer_73">
</g>
<g id="Layer_74">
</g>
<g id="Layer_75">
</g>
<g id="Layer_76">
</g>
<g id="Layer_77">
</g>
<g id="Layer_78">
</g>
<g id="Layer_79">
</g>
<g id="Layer_80">
</g>
<g id="Layer_81">
</g>
<g id="Layer_82">
</g>
<g id="Layer_83">
</g>
<g id="Layer_84">
</g>
<g id="Layer_85">
</g>
<g id="Layer_86">
</g>
<g id="Layer_87">
</g>
<g id="Layer_88">
</g>
<g id="Layer_89">
</g>
<g id="Layer_90">
</g>
<g id="Layer_91">
</g>
<g id="Layer_92">
</g>
<g id="Layer_93">
</g>
<g id="Layer_94">
</g>
<g id="Layer_95">
</g>
<g id="Layer_96">
</g>
<g id="Layer_97">
</g>
<g id="Layer_98">
</g>
<g id="Layer_99">
</g>
<g id="Layer_100">
</g>
</svg>
