<?xml version="1.0" encoding="utf-8"?>
<!-- Generator: Adobe Illustrator 22.0.0, SVG Export Plug-In . SVG Version: 6.00 Build 0)  -->
<svg version="1.1" xmlns="http://www.w3.org/2000/svg" xmlns:xlink="http://www.w3.org/1999/xlink" x="0px" y="0px"
	 viewBox="0 0 256 256" style="enable-background:new 0 0 256 256;" xml:space="preserve">
<style type="text/css">
	.st0{fill:#F9BD55;}
	.st1{fill:#F4DBCE;}
	.st2{fill:#52565B;}
	.st3{fill:#FD605B;}
	.st4{fill:#F98080;}
	.st5{fill:#F9E63A;}
	.st6{fill:#039BE6;}
	.st7{fill:none;stroke:#000000;stroke-width:5;stroke-linecap:round;stroke-linejoin:round;stroke-miterlimit:10;}
	.st8{fill:#7D3D1A;}
	.st9{fill:#EAA250;}
	.st10{fill:#DD7F57;}
	.st11{fill:#FFC097;}
	.st12{fill:#F49667;}
	.st13{fill:#F89422;}
	.st14{fill:#E3E4E5;}
	.st15{fill:#6E7175;}
	.st16{fill:#46BAF9;}
	.st17{fill:#D9F3FF;}
	.st18{fill:#828487;}
	.st19{fill:#A8AEB2;}
	.st20{fill:#C9CDD1;}
	.st21{fill:#8CD8F9;}
	.st22{fill:#1AA7E5;}
	.st23{fill:#ACE7FC;}
	.st24{fill:#FFFFFF;}
	.st25{fill:#9E512B;}
	.st26{fill:#7ED5FC;}
	.st27{fill:#7CCC4E;}
	.st28{fill:#3AA03A;}
	.st29{fill:#FCB1B1;}
	.st30{fill:#F76E23;}
	.st31{fill:#C16A44;}
	.st32{fill:#B796EA;}
</style>
<g id="Layer_1">
</g>
<g id="Layer_2">
</g>
<g id="Layer_3">
</g>
<g id="Layer_4">
</g>
<g id="Layer_5">
</g>
<g id="Layer_6">
</g>
<g id="Layer_7">
</g>
<g id="Layer_8">
</g>
<g id="Layer_9">
</g>
<g id="Layer_10">
</g>
<g id="Layer_11">
</g>
<g id="Layer_12">
</g>
<g id="Layer_13">
</g>
<g id="Layer_14">
</g>
<g id="Layer_15">
</g>
<g id="Layer_16">
</g>
<g id="Layer_17">
</g>
<g id="Layer_18">
</g>
<g id="Layer_19">
</g>
<g id="Layer_20">
</g>
<g id="Layer_21">
</g>
<g id="Layer_22">
</g>
<g id="Layer_23">
</g>
<g id="Layer_24">
</g>
<g id="Layer_25">
</g>
<g id="Layer_26">
</g>
<g id="Layer_27">
</g>
<g id="Layer_28">
</g>
<g id="Layer_29">
</g>
<g id="Layer_30">
</g>
<g id="Layer_31">
</g>
<g id="Layer_32">
</g>
<g id="Layer_33">
</g>
<g id="Layer_34">
</g>
<g id="Layer_35">
</g>
<g id="Layer_36">
</g>
<g id="Layer_37">
</g>
<g id="Layer_38">
</g>
<g id="Layer_39">
</g>
<g id="Layer_40">
</g>
<g id="Layer_41">
</g>
<g id="Layer_42">
</g>
<g id="Layer_43">
</g>
<g id="Layer_44">
</g>
<g id="Layer_45">
</g>
<g id="Layer_46">
</g>
<g id="Layer_47">
</g>
<g id="Layer_48">
</g>
<g id="Layer_49">
</g>
<g id="Layer_50">
</g>
<g id="Layer_51">
</g>
<g id="Layer_52">
</g>
<g id="Layer_53">
</g>
<g id="Layer_54">
</g>
<g id="Layer_55">
</g>
<g id="Layer_56">
</g>
<g id="Layer_57">
</g>
<g id="Layer_58">
</g>
<g id="Layer_59">
</g>
<g id="Layer_60">
</g>
<g id="Layer_61">
</g>
<g id="Layer_62">
</g>
<g id="Layer_63">
</g>
<g id="Layer_64">
</g>
<g id="Layer_65">
</g>
<g id="Layer_66">
</g>
<g id="Layer_67">
</g>
<g id="Layer_68">
</g>
<g id="Layer_69">
</g>
<g id="Layer_70">
</g>
<g id="Layer_71">
</g>
<g id="Layer_72">
</g>
<g id="Layer_73">
</g>
<g id="Layer_74">
</g>
<g id="Layer_75">
</g>
<g id="Layer_76">
</g>
<g id="Layer_77">
</g>
<g id="Layer_78">
</g>
<g id="Layer_79">
</g>
<g id="Layer_80">
</g>
<g id="Layer_81">
</g>
<g id="Layer_82">
</g>
<g id="Layer_83">
</g>
<g id="Layer_84">
</g>
<g id="Layer_85">
</g>
<g id="Layer_86">
</g>
<g id="Layer_87">
</g>
<g id="Layer_88">
</g>
<g id="Layer_89">
</g>
<g id="Layer_90">
</g>
<g id="Layer_91">
</g>
<g id="Layer_92">
</g>
<g id="Layer_93">
</g>
<g id="Layer_94">
</g>
<g id="Layer_95">
	<g>
		<path class="st0" d="M83.485,80.008c4.372-0.297,7.468-3.824,9.03-6.108c0.459-0.671-0.032-1.565-0.845-1.565
			c-1.553,0-3.732-0.638-5.503-3.59c-3.218-5.363-5.363-4.291-5.363-4.291S19.662,82.69,2.5,120.233
			C2.5,120.233,28.244,83.763,83.485,80.008z"/>
		<path class="st31" d="M253.5,105.216c0,0-3.218-24.671-19.308-40.761l6.436-2.145c0,0-17.162-18.235-42.906-18.235l4.291-4.291
			c0,0-24.747,2.956-39.688,9.654c-12.634,5.663-25.267-3.179-37.11-10.65c-7.102-4.48-15.843-5.515-23.789-2.802
			c-7.977,2.724-14.335,8.905-17.14,16.854c-1.199,3.398-2.36,7.253-3.482,11.614c0,0,2.145-1.073,5.363,4.291
			c1.771,2.952,3.949,3.59,5.503,3.59c0.813,0,1.304,0.894,0.845,1.565c-1.207,1.765-3.333,4.265-6.252,5.451
			c1.654,2.458,5.225,6.542,11.703,8.702c9.654,3.218,13.944,10.726,13.944,10.726l2.145-3.218c0,0,9.654,15.017,12.872,24.671
			l3.218-3.218c0,0,11.799,27.889,37.543,32.179c25.744,4.291,31.107,18.235,31.107,18.235s4.291-1.073,6.436-3.218l4.291,3.218
			c0,0,4.291-1.073,7.509-5.363l5.363,3.218c0,0,0-5.363-3.218-17.162c-3.218-11.799,13.944-9.654,21.453-20.38
			c0,0,4.291,1.073,7.509,4.291c0,0,5.363-15.017,0-28.962L253.5,105.216z"/>
		<g>
			<path class="st31" d="M163.024,148.126c1.501,0.44,3.055,0.8,4.664,1.068c14.989,2.498,23.061,8.266,27.196,12.652
				c-3.107,3.579-6.816,4.51-6.816,4.51l-4.291-3.218c-2.145,2.145-6.436,3.218-6.436,3.218S175.522,159.929,163.024,148.126z"/>
		</g>
		<path class="st0" d="M222.603,178.853c-1.8-4.5-2.262-10.863-4.959-16.418l-0.615-0.369c-3.218,4.291-7.509,5.363-7.509,5.363
			l-4.291-3.218c-0.873,0.873-2.1,1.565-3.25,2.083c5.783,10.242,13.106,17.586,13.106,17.586c-2.066,4.441-3.755,9.67-4.626,14.901
			c-0.614,3.687-2.577,9.74-3.463,12.373c-0.24,0.714-1.007,1.098-1.728,0.881c-7.326-2.203-9.444-0.548-12.824,2.809
			c-0.998,0.992-1.861,2.949-1.368,4.579c0.459,1.52,1.747,2.365,3.61,1.776c2.338-0.739,5.661-1.523,7.965-0.947
			c2.806,0.702,5.612,0.395,6.968,0.167c0.523-0.087,1.057-0.015,1.537,0.21c1.092,0.512,3.368,1.291,6.135,0.6
			c1.936-0.484,3.393-0.248,4.368,0.113c0.706,0.261,1.452-0.369,1.3-1.106c-1-4.863-5.668-4.863-5.668-4.863
			c-3.904-3.904,7.263-27.736,7.263-27.736C227.483,180.805,222.603,178.853,222.603,178.853z"/>
		<g>
			<path class="st0" d="M191.077,219.424c-0.492-1.63,0.37-3.587,1.368-4.579c0.932-0.926,1.77-1.716,2.647-2.338
				c-0.975-6.76,8.01-25.943,8.01-25.943c2.928-6.832-1.952-8.784-1.952-8.784c-1.348-3.37-1.946-7.785-3.294-12.123
				c-0.61-0.988-1.567-2.32-2.972-3.81c-3.107,3.579-6.816,4.51-6.816,4.51l-4.291-3.218c-0.873,0.873-2.1,1.566-3.25,2.083
				c5.783,10.242,13.106,17.586,13.106,17.586c-2.066,4.441-3.755,9.67-4.626,14.901c-0.614,3.687-2.577,9.74-3.463,12.373
				c-0.24,0.714-1.007,1.098-1.728,0.881c-7.326-2.203-9.444-0.548-12.824,2.809c-0.998,0.992-1.861,2.949-1.368,4.579
				c0.459,1.52,1.747,2.365,3.61,1.776c2.338-0.739,5.661-1.523,7.965-0.947c2.806,0.702,5.611,0.395,6.968,0.167
				c0.523-0.087,1.057-0.015,1.537,0.21c0.412,0.193,0.992,0.424,1.703,0.6C191.275,219.933,191.159,219.694,191.077,219.424z"/>
		</g>
		<path class="st7" d="M101.42,57.731c-0.01-3.232,2.601-5.861,5.833-5.871c3.232-0.01,5.861,2.601,5.871,5.833"/>
		<path class="st7" d="M222.603,178.853c-1.8-4.5-2.262-10.863-4.959-16.418l-0.615-0.369c-3.218,4.291-7.509,5.363-7.509,5.363
			l-4.291-3.218c-0.873,0.873-2.1,1.565-3.25,2.083c5.783,10.242,13.106,17.586,13.106,17.586c-2.066,4.441-3.755,9.67-4.626,14.901
			c-0.614,3.687-2.577,9.74-3.463,12.373c-0.24,0.714-1.007,1.098-1.728,0.881c-7.326-2.203-9.444-0.548-12.824,2.809
			c-0.998,0.992-1.861,2.949-1.368,4.579c0.459,1.52,1.747,2.365,3.61,1.776c2.338-0.739,5.661-1.523,7.965-0.947
			c2.806,0.702,5.612,0.395,6.968,0.167c0.523-0.087,1.057-0.015,1.537,0.21c1.092,0.512,3.368,1.291,6.135,0.6
			c1.936-0.484,3.393-0.248,4.368,0.113c0.706,0.261,1.452-0.369,1.3-1.106c-1-4.863-5.668-4.863-5.668-4.863
			c-3.904-3.904,7.263-27.736,7.263-27.736C227.483,180.805,222.603,178.853,222.603,178.853z"/>
		<path class="st7" d="M253.5,105.216c0,0-3.218-24.671-19.308-40.761l6.436-2.145c0,0-17.162-18.235-42.906-18.235l4.291-4.291
			c0,0-24.747,2.956-39.688,9.654c-12.634,5.663-25.267-3.179-37.11-10.65c-7.102-4.48-15.843-5.515-23.789-2.802
			c-7.977,2.724-14.335,8.905-17.14,16.854c-1.199,3.398-2.36,7.253-3.482,11.614c0,0,2.145-1.073,5.363,4.291
			c1.771,2.952,3.949,3.59,5.503,3.59c0.813,0,1.304,0.894,0.845,1.565c-1.207,1.765-3.333,4.265-6.252,5.451
			c1.654,2.458,5.225,6.542,11.703,8.702c9.654,3.218,13.944,10.726,13.944,10.726l2.145-3.218c0,0,9.654,15.017,12.872,24.671
			l3.218-3.218c0,0,11.799,27.889,37.543,32.179c25.744,4.291,31.107,18.235,31.107,18.235s4.291-1.073,6.436-3.218l4.291,3.218
			c0,0,4.291-1.073,7.509-5.363l5.363,3.218c0,0,0-5.363-3.218-17.162c-3.218-11.799,13.944-9.654,21.453-20.38
			c0,0,4.291,1.073,7.509,4.291c0,0,5.363-15.017,0-28.962L253.5,105.216z"/>
		<g>
			<path class="st7" d="M163.024,148.126c1.501,0.44,3.055,0.8,4.664,1.068c14.989,2.498,23.061,8.266,27.196,12.652
				c-3.107,3.579-6.816,4.51-6.816,4.51l-4.291-3.218c-2.145,2.145-6.436,3.218-6.436,3.218S175.522,159.929,163.024,148.126z"/>
		</g>
		<g>
			<path class="st7" d="M191.077,219.424c-0.492-1.63,0.37-3.587,1.368-4.579c0.932-0.926,1.77-1.716,2.647-2.338
				c-0.975-6.76,8.01-25.943,8.01-25.943c2.928-6.832-1.952-8.784-1.952-8.784c-1.348-3.37-1.946-7.785-3.294-12.123
				c-0.61-0.988-1.567-2.32-2.972-3.81c-3.107,3.579-6.816,4.51-6.816,4.51l-4.291-3.218c-0.873,0.873-2.1,1.566-3.25,2.083
				c5.783,10.242,13.106,17.586,13.106,17.586c-2.066,4.441-3.755,9.67-4.626,14.901c-0.614,3.687-2.577,9.74-3.463,12.373
				c-0.24,0.714-1.007,1.098-1.728,0.881c-7.326-2.203-9.444-0.548-12.824,2.809c-0.998,0.992-1.861,2.949-1.368,4.579
				c0.459,1.52,1.747,2.365,3.61,1.776c2.338-0.739,5.661-1.523,7.965-0.947c2.806,0.702,5.611,0.395,6.968,0.167
				c0.523-0.087,1.057-0.015,1.537,0.21c0.412,0.193,0.992,0.424,1.703,0.6C191.275,219.933,191.159,219.694,191.077,219.424z"/>
		</g>
		<path class="st7" d="M144.09,81.617c0,0,6.047,20.154,22.331,30.457c0.276-2.617,0.551-5.235,0.827-7.852
			c11.301,7.932,23.736,14.246,36.808,18.69c-0.536-1.831-0.768-3.75-0.684-5.656c10.522,2.283,21.51,2.389,32.074,0.311"/>
		<path class="st7" d="M83.485,80.008c4.372-0.297,7.468-3.824,9.03-6.108c0.459-0.671-0.032-1.565-0.845-1.565
			c-1.553,0-3.732-0.638-5.503-3.59c-3.218-5.363-5.363-4.291-5.363-4.291S19.662,82.69,2.5,120.233
			C2.5,120.233,28.244,83.763,83.485,80.008z"/>
	</g>
</g>
<g id="Layer_96">
</g>
<g id="Layer_97">
</g>
<g id="Layer_98">
</g>
<g id="Layer_99">
</g>
<g id="Layer_100">
</g>
</svg>
