<?xml version="1.0" encoding="utf-8"?>
<!-- Generator: Adobe Illustrator 22.0.0, SVG Export Plug-In . SVG Version: 6.00 Build 0)  -->
<svg version="1.1" xmlns="http://www.w3.org/2000/svg" xmlns:xlink="http://www.w3.org/1999/xlink" x="0px" y="0px"
	 viewBox="0 0 256 256" style="enable-background:new 0 0 256 256;" xml:space="preserve">
<style type="text/css">
	.st0{fill:#F9BD55;}
	.st1{fill:#F4DBCE;}
	.st2{fill:#52565B;}
	.st3{fill:#FD605B;}
	.st4{fill:#F98080;}
	.st5{fill:#F9E63A;}
	.st6{fill:#039BE6;}
	.st7{fill:none;stroke:#000000;stroke-width:5;stroke-linecap:round;stroke-linejoin:round;stroke-miterlimit:10;}
	.st8{fill:#7D3D1A;}
	.st9{fill:#EAA250;}
	.st10{fill:#DD7F57;}
	.st11{fill:#FFC097;}
	.st12{fill:#F49667;}
	.st13{fill:#F89422;}
	.st14{fill:#E3E4E5;}
	.st15{fill:#6E7175;}
	.st16{fill:#46BAF9;}
	.st17{fill:#D9F3FF;}
	.st18{fill:#828487;}
	.st19{fill:#A8AEB2;}
	.st20{fill:#C9CDD1;}
	.st21{fill:#8CD8F9;}
	.st22{fill:#1AA7E5;}
	.st23{fill:#ACE7FC;}
	.st24{fill:#FFFFFF;}
	.st25{fill:#9E512B;}
	.st26{fill:#7ED5FC;}
	.st27{fill:#7CCC4E;}
	.st28{fill:#3AA03A;}
	.st29{fill:#FCB1B1;}
	.st30{fill:#F76E23;}
	.st31{fill:#C16A44;}
	.st32{fill:#B796EA;}
</style>
<g id="Layer_1">
</g>
<g id="Layer_2">
</g>
<g id="Layer_3">
</g>
<g id="Layer_4">
</g>
<g id="Layer_5">
</g>
<g id="Layer_6">
</g>
<g id="Layer_7">
</g>
<g id="Layer_8">
</g>
<g id="Layer_9">
</g>
<g id="Layer_10">
</g>
<g id="Layer_11">
</g>
<g id="Layer_12">
</g>
<g id="Layer_13">
</g>
<g id="Layer_14">
</g>
<g id="Layer_15">
</g>
<g id="Layer_16">
</g>
<g id="Layer_17">
</g>
<g id="Layer_18">
</g>
<g id="Layer_19">
</g>
<g id="Layer_20">
</g>
<g id="Layer_21">
</g>
<g id="Layer_22">
</g>
<g id="Layer_23">
</g>
<g id="Layer_24">
</g>
<g id="Layer_25">
</g>
<g id="Layer_26">
</g>
<g id="Layer_27">
</g>
<g id="Layer_28">
</g>
<g id="Layer_29">
	<g>
		<ellipse class="st19" cx="181.587" cy="213.432" rx="31.334" ry="40.067"/>
		<ellipse class="st19" cx="74.742" cy="213.432" rx="31.334" ry="40.067"/>
		<path class="st19" d="M179.29,121.348c-4.489,5.516-8.418,11.45-12.198,17.474c-8.236,13.126-22.83,21.855-39.47,21.855
			c-17.559,0-32.847-9.717-40.785-24.066c-3.403-6.151-7.441-11.916-11.603-17.581c-6.934-9.441-10.987-20.834-10.987-33.102
			c0-32.607,28.616-59.041,63.916-59.041c35.3,0,63.916,26.433,63.916,59.041C192.08,99.221,187.319,111.482,179.29,121.348z"/>
		<path class="st19" d="M167.093,138.822c-8.236,13.126-22.83,21.855-39.47,21.855c-17.559,0-32.847-9.717-40.785-24.066
			c-0.222-0.401-0.453-0.796-0.68-1.193c-8.44,10.95-14.657,24.616-17.601,38.732c2-0.512,4.068-0.784,6.185-0.784
			c17.305,0,31.334,17.938,31.334,40.067c0,12.58-4.537,23.8-11.63,31.146c9.685,5.813,21.265,8.921,33.718,8.921
			s24.033-3.108,33.718-8.921c-7.092-7.346-11.63-18.566-11.63-31.146c0-22.128,14.029-40.067,31.334-40.067
			c2.118,0,4.185,0.272,6.185,0.784c-3.001-14.392-9.407-28.315-18.1-39.369C168.803,136.121,167.942,137.468,167.093,138.822z"/>
		<path class="st19" d="M224.784,26.431l-2.59-1.67l1.508-2.06c4.036-5.515,1.872-13.387-4.439-16.009
			c-19.127-7.946-36.583-3.608-47.957,4.822c-7.336,5.437-13.321,12.37-17.761,20.222c17.85,7.143,31.478,21.582,36.467,39.251
			c8.887-0.115,19.899-4.181,28.399-8.054c6.747-3.075,8.317-11.954,3.038-17.16l1.599-0.653
			C230.973,41.886,231.978,31.07,224.784,26.431z"/>
		<path class="st19" d="M66.319,70.986c4.964-17.58,18.483-31.959,36.2-39.139c-4.446-7.898-10.453-14.871-17.824-20.333
			C73.321,3.084,55.865-1.255,36.738,6.692c-6.311,2.622-8.475,10.494-4.439,16.009l1.508,2.06l-2.59,1.67
			c-7.194,4.638-6.189,15.455,1.737,18.688l1.599,0.653c-5.279,5.207-3.709,14.086,3.038,17.16
			C46.196,66.854,57.375,70.971,66.319,70.986z"/>
		<g>
			<path class="st19" d="M43.408,213.432c0-19.425,10.811-35.617,25.159-39.285c-0.003,0.001-0.007,0.002-0.01,0.002
				c2.944-14.116,9.161-27.783,17.601-38.732c-1.51-2.645-3.127-5.226-4.821-7.756c-10.229,5.519-39.04,25.193-50.77,76.304
				c0,0-5.734,22.962,16.467,28.174C44.722,226.554,43.408,220.191,43.408,213.432z"/>
		</g>
		<g>
			<path class="st19" d="M224.978,203.965c-11.645-50.739-40.124-70.497-50.545-76.182c-1.837,2.576-3.604,5.202-5.316,7.866
				c0.186-0.289,0.368-0.581,0.555-0.87c8.693,11.054,15.099,24.977,18.1,39.369c-0.002-0.001-0.005-0.001-0.007-0.002
				c14.346,3.669,25.156,19.861,25.156,39.284c0,6.672-1.283,12.958-3.539,18.492C230.563,226.324,224.978,203.965,224.978,203.965z
				"/>
		</g>
		<path class="st14" d="M227.644,221.045c-0.795-1.376-1.834-2.492-2.986-3.309c-1.041,3.656-3.087,7.375-6.89,10.252
			c0.529,1.114,0.855,2.262,0.969,3.38c2.32,1.594,5.081,1.969,7.268,0.706C229.322,230.16,230.056,225.222,227.644,221.045z"/>
		<g>
			<path class="st14" d="M209.382,231.924c0.017-0.042,0.032-0.086,0.049-0.129c-0.661,1.636-1.406,3.207-2.23,4.702
				c2.517,2.432,5.93,3.243,8.531,1.741c3.114-1.798,3.951-6.262,2.045-10.257C215.6,229.63,212.857,231.005,209.382,231.924z"/>
		</g>
		<g>
			<path class="st14" d="M47.033,232.139c-3.89-0.913-6.907-2.379-9.263-4.163c-1.909,3.997-1.074,8.464,2.042,10.263
				c2.778,1.604,6.481,0.571,9.029-2.257c-0.702-1.315-1.336-2.692-1.913-4.114C46.965,231.957,46.996,232.05,47.033,232.139z"/>
		</g>
		<path class="st14" d="M30.887,217.735c-1.152,0.817-2.192,1.933-2.987,3.31c-2.411,4.177-1.677,9.115,1.639,11.03
			c2.187,1.262,4.947,0.887,7.268-0.706c0.115-1.121,0.441-2.27,0.972-3.386C33.977,225.106,31.928,221.39,30.887,217.735z"/>
		<path class="st14" d="M181.846,18.197c-6.993,3.346-13.98,8.927-19.033,18.129c10.227,6.109,18.44,14.837,23.531,25.163
			c7.751-0.096,19.127-1.446,24.473-7.989c3.571-4.371,4.777-9.726,4.716-15.081C215.342,21.52,197.193,10.853,181.846,18.197z"/>
		<path class="st14" d="M93.266,36.474c-5.059-9.289-12.081-14.913-19.111-18.278C58.807,10.853,40.658,21.52,40.466,38.42
			c-0.061,5.355,1.145,10.711,4.716,15.081c5.423,6.637,17.047,7.929,24.802,7.99C75.034,51.248,83.154,42.576,93.266,36.474z"/>
		<path class="st2" d="M121.364,80.936L121.364,80.936c-5.132,5.132-8.015,12.093-8.015,19.351v7.184
			c0,8.182,6.633,14.816,14.816,14.816h0h0c8.182,0,14.816-6.633,14.816-14.816v-7.184c0-7.258-2.883-14.219-8.015-19.351l0,0
			C131.209,77.18,125.12,77.18,121.364,80.936z"/>
		<path class="st14" d="M127.623,160.676c-10.955,0-21.024-3.783-28.978-10.113c-4.704,7.763-8.312,17.034-10.392,26.71
			c10.542,6.452,17.824,20.217,17.824,36.158c0,8.075-1.875,15.587-5.089,21.878c7.32,7.027,16.805,10.836,27.177,10.836
			s19.857-3.809,27.177-10.836c-3.214-6.291-5.089-13.803-5.089-21.878c0-15.942,7.282-29.707,17.824-36.158
			c-2.134-9.927-5.877-19.426-10.761-27.309C149.255,156.649,138.914,160.676,127.623,160.676z"/>
		<ellipse class="st14" cx="181.587" cy="222.568" rx="24.19" ry="30.931"/>
		<ellipse class="st14" cx="74.742" cy="222.568" rx="24.19" ry="30.931"/>
		<ellipse class="st7" cx="181.587" cy="213.432" rx="31.334" ry="40.067"/>
		<ellipse class="st7" cx="74.742" cy="213.432" rx="31.334" ry="40.067"/>
		<path class="st7" d="M179.29,121.348c-4.489,5.516-8.418,11.45-12.198,17.474c-8.236,13.126-22.83,21.855-39.47,21.855
			c-17.559,0-32.847-9.717-40.785-24.066c-3.403-6.151-7.441-11.916-11.603-17.581c-6.934-9.441-10.987-20.834-10.987-33.102
			c0-32.607,28.616-59.041,63.916-59.041c35.3,0,63.916,26.433,63.916,59.041C192.08,99.221,187.319,111.482,179.29,121.348z"/>
		<path class="st7" d="M167.093,138.822c-8.236,13.126-22.83,21.855-39.47,21.855c-17.559,0-32.847-9.717-40.785-24.066
			c-0.222-0.401-0.453-0.796-0.68-1.193c-8.44,10.95-14.657,24.616-17.601,38.732c2-0.512,4.068-0.784,6.185-0.784
			c17.305,0,31.334,17.938,31.334,40.067c0,12.58-4.537,23.8-11.63,31.146c9.685,5.813,21.265,8.921,33.718,8.921
			s24.033-3.108,33.718-8.921c-7.092-7.346-11.63-18.566-11.63-31.146c0-22.128,14.029-40.067,31.334-40.067
			c2.118,0,4.185,0.272,6.185,0.784c-3.001-14.392-9.407-28.315-18.1-39.369C168.803,136.121,167.942,137.468,167.093,138.822z"/>
		<path class="st7" d="M224.784,26.431l-2.59-1.67l1.508-2.06c4.036-5.515,1.872-13.387-4.439-16.009
			c-19.127-7.946-36.583-3.608-47.957,4.822c-7.336,5.437-13.321,12.37-17.761,20.222c17.85,7.143,31.478,21.582,36.467,39.251
			c8.887-0.115,19.899-4.181,28.399-8.054c6.747-3.075,8.317-11.954,3.038-17.16l1.599-0.653
			C230.973,41.886,231.978,31.07,224.784,26.431z"/>
		<path class="st7" d="M66.319,70.986c4.964-17.58,18.483-31.959,36.2-39.139c-4.446-7.898-10.453-14.871-17.824-20.333
			C73.321,3.084,55.865-1.255,36.738,6.692c-6.311,2.622-8.475,10.494-4.439,16.009l1.508,2.06l-2.59,1.67
			c-7.194,4.638-6.189,15.455,1.737,18.688l1.599,0.653c-5.279,5.207-3.709,14.086,3.038,17.16
			C46.196,66.854,57.375,70.971,66.319,70.986z"/>
		<g>
			<path class="st7" d="M43.408,213.432c0-19.425,10.811-35.617,25.159-39.285c-0.003,0.001-0.007,0.002-0.01,0.002
				c2.944-14.116,9.161-27.783,17.601-38.732c-1.51-2.645-3.127-5.226-4.821-7.756c-10.229,5.519-39.04,25.193-50.77,76.304
				c0,0-5.734,22.962,16.467,28.174C44.722,226.554,43.408,220.191,43.408,213.432z"/>
		</g>
		<g>
			<path class="st7" d="M224.978,203.965c-11.645-50.739-40.124-70.497-50.545-76.182c-1.837,2.576-3.604,5.202-5.316,7.866
				c0.186-0.289,0.368-0.581,0.555-0.87c8.693,11.054,15.099,24.977,18.1,39.369c-0.002-0.001-0.005-0.001-0.007-0.002
				c14.346,3.669,25.156,19.861,25.156,39.284c0,6.672-1.283,12.958-3.539,18.492C230.563,226.324,224.978,203.965,224.978,203.965z
				"/>
		</g>
		<path class="st7" d="M227.644,221.045c-0.795-1.376-1.834-2.492-2.986-3.309c-1.041,3.656-3.087,7.375-6.89,10.252
			c0.529,1.114,0.855,2.262,0.969,3.38c2.32,1.594,5.081,1.969,7.268,0.706C229.322,230.16,230.056,225.222,227.644,221.045z"/>
		<g>
			<path class="st7" d="M209.382,231.924c0.017-0.042,0.032-0.086,0.049-0.129c-0.661,1.636-1.406,3.207-2.23,4.702
				c2.517,2.432,5.93,3.243,8.531,1.741c3.114-1.798,3.951-6.262,2.045-10.257C215.6,229.63,212.857,231.005,209.382,231.924z"/>
		</g>
		<g>
			<path class="st7" d="M47.033,232.139c-3.89-0.913-6.907-2.379-9.263-4.163c-1.909,3.997-1.074,8.464,2.042,10.263
				c2.778,1.604,6.481,0.571,9.029-2.257c-0.702-1.315-1.336-2.692-1.913-4.114C46.965,231.957,46.996,232.05,47.033,232.139z"/>
		</g>
		<path class="st7" d="M30.887,217.735c-1.152,0.817-2.192,1.933-2.987,3.31c-2.411,4.177-1.677,9.115,1.639,11.03
			c2.187,1.262,4.947,0.887,7.268-0.706c0.115-1.121,0.441-2.27,0.972-3.386C33.977,225.106,31.928,221.39,30.887,217.735z"/>
		<path class="st7" d="M115.13,134.045c5.394,4.289,13.37,0.349,13.37-6.543V122.5"/>
		<path class="st7" d="M141.87,134.045c-5.394,4.289-13.37,0.349-13.37-6.543V122.5"/>
		<path class="st7" d="M150.608,85.814c-0.013-4.103,3.302-7.44,7.406-7.454s7.44,3.302,7.454,7.406"/>
		<path class="st7" d="M90.532,85.79c0-4.103,3.326-7.43,7.43-7.43c4.103,0,7.43,3.326,7.43,7.43"/>
		<path class="st7" d="M181.846,18.197c-6.993,3.346-13.98,8.927-19.033,18.129c10.227,6.109,18.44,14.837,23.531,25.163
			c7.751-0.096,19.127-1.446,24.473-7.989c3.571-4.371,4.777-9.726,4.716-15.081C215.342,21.52,197.193,10.853,181.846,18.197z"/>
		<path class="st7" d="M93.266,36.474c-5.059-9.289-12.081-14.913-19.111-18.278C58.807,10.853,40.658,21.52,40.466,38.42
			c-0.061,5.355,1.145,10.711,4.716,15.081c5.423,6.637,17.047,7.929,24.802,7.99C75.034,51.248,83.154,42.576,93.266,36.474z"/>
		<path class="st7" d="M121.364,80.936L121.364,80.936c-5.132,5.132-8.015,12.093-8.015,19.351v7.184
			c0,8.182,6.633,14.816,14.816,14.816h0h0c8.182,0,14.816-6.633,14.816-14.816v-7.184c0-7.258-2.883-14.219-8.015-19.351l0,0
			C131.209,77.18,125.12,77.18,121.364,80.936z"/>
		<path class="st7" d="M127.623,160.676c-10.955,0-21.024-3.783-28.978-10.113c-4.704,7.763-8.312,17.034-10.392,26.71
			c10.542,6.452,17.824,20.217,17.824,36.158c0,8.075-1.875,15.587-5.089,21.878c7.32,7.027,16.805,10.836,27.177,10.836
			s19.857-3.809,27.177-10.836c-3.214-6.291-5.089-13.803-5.089-21.878c0-15.942,7.282-29.707,17.824-36.158
			c-2.134-9.927-5.877-19.426-10.761-27.309C149.255,156.649,138.914,160.676,127.623,160.676z"/>
		<ellipse class="st7" cx="181.587" cy="222.568" rx="24.19" ry="30.931"/>
		<ellipse class="st7" cx="74.742" cy="222.568" rx="24.19" ry="30.931"/>
	</g>
</g>
<g id="Layer_30">
</g>
<g id="Layer_31">
</g>
<g id="Layer_32">
</g>
<g id="Layer_33">
</g>
<g id="Layer_34">
</g>
<g id="Layer_35">
</g>
<g id="Layer_36">
</g>
<g id="Layer_37">
</g>
<g id="Layer_38">
</g>
<g id="Layer_39">
</g>
<g id="Layer_40">
</g>
<g id="Layer_41">
</g>
<g id="Layer_42">
</g>
<g id="Layer_43">
</g>
<g id="Layer_44">
</g>
<g id="Layer_45">
</g>
<g id="Layer_46">
</g>
<g id="Layer_47">
</g>
<g id="Layer_48">
</g>
<g id="Layer_49">
</g>
<g id="Layer_50">
</g>
<g id="Layer_51">
</g>
<g id="Layer_52">
</g>
<g id="Layer_53">
</g>
<g id="Layer_54">
</g>
<g id="Layer_55">
</g>
<g id="Layer_56">
</g>
<g id="Layer_57">
</g>
<g id="Layer_58">
</g>
<g id="Layer_59">
</g>
<g id="Layer_60">
</g>
<g id="Layer_61">
</g>
<g id="Layer_62">
</g>
<g id="Layer_63">
</g>
<g id="Layer_64">
</g>
<g id="Layer_65">
</g>
<g id="Layer_66">
</g>
<g id="Layer_67">
</g>
<g id="Layer_68">
</g>
<g id="Layer_69">
</g>
<g id="Layer_70">
</g>
<g id="Layer_71">
</g>
<g id="Layer_72">
</g>
<g id="Layer_73">
</g>
<g id="Layer_74">
</g>
<g id="Layer_75">
</g>
<g id="Layer_76">
</g>
<g id="Layer_77">
</g>
<g id="Layer_78">
</g>
<g id="Layer_79">
</g>
<g id="Layer_80">
</g>
<g id="Layer_81">
</g>
<g id="Layer_82">
</g>
<g id="Layer_83">
</g>
<g id="Layer_84">
</g>
<g id="Layer_85">
</g>
<g id="Layer_86">
</g>
<g id="Layer_87">
</g>
<g id="Layer_88">
</g>
<g id="Layer_89">
</g>
<g id="Layer_90">
</g>
<g id="Layer_91">
</g>
<g id="Layer_92">
</g>
<g id="Layer_93">
</g>
<g id="Layer_94">
</g>
<g id="Layer_95">
</g>
<g id="Layer_96">
</g>
<g id="Layer_97">
</g>
<g id="Layer_98">
</g>
<g id="Layer_99">
</g>
<g id="Layer_100">
</g>
</svg>
