<?xml version="1.0" encoding="utf-8"?>
<!-- Generator: Adobe Illustrator 22.0.0, SVG Export Plug-In . SVG Version: 6.00 Build 0)  -->
<svg version="1.1" xmlns="http://www.w3.org/2000/svg" xmlns:xlink="http://www.w3.org/1999/xlink" x="0px" y="0px"
	 viewBox="0 0 256 256" style="enable-background:new 0 0 256 256;" xml:space="preserve">
<style type="text/css">
	.st0{fill:#F9BD55;}
	.st1{fill:#F4DBCE;}
	.st2{fill:#52565B;}
	.st3{fill:#FD605B;}
	.st4{fill:#F98080;}
	.st5{fill:#F9E63A;}
	.st6{fill:#039BE6;}
	.st7{fill:none;stroke:#000000;stroke-width:5;stroke-linecap:round;stroke-linejoin:round;stroke-miterlimit:10;}
	.st8{fill:#7D3D1A;}
	.st9{fill:#EAA250;}
	.st10{fill:#DD7F57;}
	.st11{fill:#FFC097;}
	.st12{fill:#F49667;}
	.st13{fill:#F89422;}
	.st14{fill:#E3E4E5;}
	.st15{fill:#6E7175;}
	.st16{fill:#46BAF9;}
	.st17{fill:#D9F3FF;}
	.st18{fill:#828487;}
	.st19{fill:#A8AEB2;}
	.st20{fill:#C9CDD1;}
	.st21{fill:#8CD8F9;}
	.st22{fill:#1AA7E5;}
	.st23{fill:#ACE7FC;}
	.st24{fill:#FFFFFF;}
	.st25{fill:#9E512B;}
	.st26{fill:#7ED5FC;}
	.st27{fill:#7CCC4E;}
	.st28{fill:#3AA03A;}
	.st29{fill:#FCB1B1;}
	.st30{fill:#F76E23;}
	.st31{fill:#C16A44;}
	.st32{fill:#B796EA;}
</style>
<g id="Layer_1">
</g>
<g id="Layer_2">
</g>
<g id="Layer_3">
</g>
<g id="Layer_4">
</g>
<g id="Layer_5">
</g>
<g id="Layer_6">
</g>
<g id="Layer_7">
</g>
<g id="Layer_8">
</g>
<g id="Layer_9">
</g>
<g id="Layer_10">
</g>
<g id="Layer_11">
</g>
<g id="Layer_12">
</g>
<g id="Layer_13">
</g>
<g id="Layer_14">
</g>
<g id="Layer_15">
</g>
<g id="Layer_16">
</g>
<g id="Layer_17">
</g>
<g id="Layer_18">
</g>
<g id="Layer_19">
</g>
<g id="Layer_20">
</g>
<g id="Layer_21">
</g>
<g id="Layer_22">
</g>
<g id="Layer_23">
</g>
<g id="Layer_24">
</g>
<g id="Layer_25">
</g>
<g id="Layer_26">
</g>
<g id="Layer_27">
</g>
<g id="Layer_28">
</g>
<g id="Layer_29">
</g>
<g id="Layer_30">
</g>
<g id="Layer_31">
</g>
<g id="Layer_32">
</g>
<g id="Layer_33">
</g>
<g id="Layer_34">
</g>
<g id="Layer_35">
</g>
<g id="Layer_36">
</g>
<g id="Layer_37">
</g>
<g id="Layer_38">
</g>
<g id="Layer_39">
</g>
<g id="Layer_40">
</g>
<g id="Layer_41">
</g>
<g id="Layer_42">
</g>
<g id="Layer_43">
</g>
<g id="Layer_44">
</g>
<g id="Layer_45">
</g>
<g id="Layer_46">
	<g>
		<path class="st19" d="M206.469,249.75c-1.834-10.498-17.098-14.399-29.122-12.655c-1.834,0.267-3.278-1.447-2.558-3.039
			c0.015-0.033,0.03-0.066,0.045-0.099l0,0c10.56-23.34,18.798-48.475,11.031-55.674c-1.849-1.714-3.771-2.561-5.68-2.809
			c-0.203-7.711-2.926-18.136-5.994-27.435c-2.577-7.809-7.203-14.737-13.348-20.088c-5.545,2.532-12.8,4.683-22.229,5.622h0
			c-3.306,1.125-6.881,1.77-10.614,1.77c-3.733,0-7.308-0.645-10.614-1.77h0c-10.194-1.015-17.847-3.447-23.542-6.246
			c-8.121,6.831-13.66,16.35-15.536,26.954c-1.361,7.69-2.239,15.587-2.367,21.791c-1.906,0.25-3.824,1.097-5.669,2.807
			c-7.767,7.199,0.471,32.334,11.032,55.674l0-0.001c0.015,0.033,0.03,0.066,0.045,0.099c0.63,1.391-0.394,2.878-1.891,3.05
			c-1.351,0.154-28.767-4.094-29.964,12.526c-0.127,1.769,1.3,3.271,3.073,3.271h35.119h25.493c0.411,0,0.813-0.039,1.2-0.114
			c0.775-0.149,1.493-0.439,2.123-0.839c0.315-0.2,0.608-0.428,0.874-0.68c0.293-0.277,0.546-0.587,0.77-0.916
			c3.214,0.879,6.529,1.354,9.924,1.354c3.476,0,6.87-0.494,10.156-1.414c1.07,1.518,2.787,2.608,4.735,2.608h0h25.493h34.803
			C205.248,253.5,206.813,251.714,206.469,249.75z"/>
		<path class="st14" d="M160.843,127.952c-5.545,2.532-12.8,4.683-22.229,5.622h0c-3.306,1.125-6.881,1.77-10.614,1.77
			c-3.733,0-7.308-0.645-10.614-1.77h0c-10.194-1.015-17.847-3.447-23.542-6.246c-1.058,0.89-2.071,1.829-3.039,2.807l4.244,23.314
			c0.314,2.722,1.734,11.593,7.391,19.227c0.278,0.375,0.843,0.281,1.004-0.161c0.334-0.915,0.946-2.298,1.945-3.586
			c0.285-0.367,0.847-0.263,0.999,0.184c1.252,3.696,6.539,16.809,20.096,22.496c0.926,0.388,1.965,0.388,2.891,0
			c13.556-5.687,18.844-18.8,20.096-22.496c0.151-0.446,0.713-0.551,0.998-0.184c0.999,1.288,1.611,2.671,1.945,3.586
			c0.162,0.443,0.727,0.536,1.005,0.161c5.657-7.634,7.076-16.504,7.39-19.227l3.984-21.59
			C163.555,130.483,162.244,129.172,160.843,127.952z"/>
		<path class="st2" d="M142.958,253.5h25.493c1.906,0,3.454-2.114,3.238-3.87c-0.392-3.186-2.723-7.761-12.449-9.263
			c-3.703-0.572-5.199-2.449-5.318-5.412c-3.011,1.882-6.882,4.893-6.882,4.893l-2.731-5.461l-6.953,3.793
			c-0.118,2.942-0.214,5.998-0.278,9.172C137.017,250.4,139.667,253.5,142.958,253.5z"/>
		<path class="st2" d="M87.684,253.5h25.493c3.291,0,5.941-2.503,5.88-5.553c-0.068-3.367-0.172-6.601-0.3-9.707l-7.067-3.854
			l-2.731,5.461c0,0-3.748-2.914-6.738-4.8c0.035,3.256-1.417,5.313-5.327,5.917c-9.726,1.502-12.057,6.077-12.449,9.263
			C84.23,251.983,85.777,253.5,87.684,253.5z"/>
		<g>
			<path class="st14" d="M83.151,53.312c4.392-10.492,12.398-19.132,22.463-24.304l0,0c-0.233-1.337-0.133-2.707,0.28-3.989
				c-3.804-6.846-11.049-11.822-19.758-14.31C74.529,7.392,69.635,4.38,67.5,2.788c-0.835-0.623-2.033-0.185-2.297,0.823
				c-1.116,4.274-2.787,13.466,0.722,21.363l-5.944-1.189c0,0,2.378,9.511,9.511,13.077l-4.755,1.189
				C64.737,38.052,70.508,49.545,83.151,53.312z"/>
		</g>
		<g>
			<path class="st14" d="M196.018,23.786l-5.944,1.189c3.51-7.897,1.839-17.09,0.722-21.363c-0.263-1.008-1.461-1.446-2.297-0.823
				c-2.135,1.591-7.029,4.604-18.636,7.92c-9.193,2.627-16.775,8.016-20.377,15.462c3.353,2.743,6.253,4.275,8.233,5.096
				c0.918,0.38,0.825,1.715-0.132,1.983c-0.404,0.113-0.822,0.216-1.245,0.313c6.767,5.167,12.117,12.094,15.387,20.072
				c0.17-0.042,0.342-0.081,0.511-0.127c13.077-3.567,19.022-15.455,19.022-15.455l-4.755-1.189
				C193.64,33.297,196.018,23.786,196.018,23.786z"/>
		</g>
		<path class="st18" d="M167.287,45.241c0.303-4.14,1.512-8.124,4.519-10.607c8.648-7.141,7.8-16.801,7.8-16.801
			c-3.569,3.422-2.062,3.65-15.14,11.177c-2.67,1.537-4.995,3.42-6.773,5.643C161.386,37.689,164.631,41.252,167.287,45.241z"/>
		<path class="st18" d="M84.194,34.634c2.62,2.164,3.877,5.467,4.357,9.021c2.625-3.619,5.749-6.851,9.258-9.616
			c-1.706-1.958-3.852-3.634-6.275-5.029c-13.078-7.527-11.571-7.755-15.14-11.177C76.394,17.833,75.546,27.493,84.194,34.634z"/>
		<path class="st14" d="M187.723,96.003c-1.529-5.154-4.305-9.186-7.352-12.279c-3.187-3.236-5.079-7.524-5.079-12.066
			c0-15.491-7.455-29.32-18.948-38.095c-4.531,1.047-9.982,1.248-12.767,1.275c-0.81,0.008-1.298,0.89-0.883,1.586l1.039,1.742
			c0.416,0.697-0.083,1.576-0.894,1.591c-7.418,0.143-15.283-2.038-18.48-3.039c-0.709-0.222-1.418,0.337-1.363,1.078l0.15,2.019
			c0.053,0.713-0.612,1.282-1.303,1.098c-6.138-1.641-10.547-4.435-13.637-7.221c-1.448-1.305-2.29-2.963-2.59-4.684
			c-15.496,7.962-26.167,24.115-26.167,42.65v1.212c0,4.214-1.477,8.349-4.362,11.421c-2.83,3.014-5.37,6.866-6.808,11.712h2.342
			c0,0-2.342,11.844,4.684,19.739l3.513-1.316c0,0,7.665,16.07,38.569,19.148h0c3.306,1.125,6.881,1.77,10.614,1.77
			c3.733,0,7.308-0.645,10.614-1.77h0c30.904-3.079,38.569-19.148,38.569-19.148l3.513,1.316c7.026-7.896,4.684-19.739,4.684-19.739
			H187.723z"/>
		<g>
			<path class="st18" d="M165.369,72.289c0,8.706-5.322,15.764-11.886,15.764s-13.147-7.058-13.147-15.764
				s6.583-15.764,13.147-15.764S165.369,63.582,165.369,72.289z"/>
			<path class="st18" d="M115.664,72.919c0,8.706-6.583,15.764-13.147,15.764s-11.886-7.058-11.886-15.764
				s5.322-15.764,11.886-15.764S115.664,64.213,115.664,72.919z"/>
		</g>
		<path class="st2" d="M114.799,95.051c1.176-3.051,7.318-3.318,13.201-3.318c5.914,0,12.088,0.27,13.218,3.367l0.229,0.001
			c1.883,0.426,3.655,0.952,5.295,1.579c-0.075-0.72-0.415-1.419-1.065-1.912l-2.934-2.226c-5.015-3.804-9.233-8.488-12.236-13.852
			c-1.099-1.963-3.918-1.958-5.015,0c-3.003,5.363-7.221,10.048-12.236,13.852l-2.934,2.226c-0.652,0.494-0.992,1.197-1.065,1.92
			C110.969,96.033,112.824,95.487,114.799,95.051z"/>
		<path class="st18" d="M141.447,95.101l-0.229-0.001c0.119,0.327,0.2,0.676,0.2,1.07c0,4.12-6.88,9.945-13.419,9.945
			c-6.539,0-13.419-5.826-13.419-9.945c0-0.413,0.087-0.778,0.218-1.119c-10.242,2.259-17.318,7.435-17.318,15.701
			c0,11.492,13.664,24.592,30.519,24.592s30.519-13.099,30.519-24.592C158.519,102.552,151.558,97.388,141.447,95.101z"/>
		<path class="st2" d="M141.419,96.17c0,4.12-6.88,9.945-13.419,9.945c-6.539,0-13.419-5.826-13.419-9.945
			c0-4.12,6.88-4.437,13.419-4.437C134.539,91.733,141.419,92.051,141.419,96.17z"/>
		<path class="st18" d="M157.72,31.267c-2.147-0.889-5.369-2.598-9.084-5.799c-5.806-5.004-21.178-13.034-38.305-5.401
			c-5.425,2.417-6.537,9.649-2.125,13.626c3.09,2.785,7.499,5.58,13.637,7.221c0.69,0.184,1.356-0.385,1.303-1.098l-0.15-2.019
			c-0.055-0.74,0.655-1.3,1.363-1.078c3.197,1.001,11.062,3.182,18.48,3.039c0.811-0.015,1.31-0.894,0.894-1.591l-1.039-1.742
			c-0.415-0.696,0.074-1.578,0.883-1.586c3.045-0.029,9.28-0.264,14.012-1.588C158.545,32.982,158.638,31.647,157.72,31.267z"/>
		<path class="st14" d="M241.383,91.753c6.36-5.473,8.01-14.644,3.767-21.883h0c-4.567-7.791-14.409-10.788-22.48-6.738
			c-58.278,29.246-8.294,89.469-8.294,120.667c0,21.169-16.33,22.665-28.376,20.89c-1.103,3.849-2.469,7.912-4.024,12.076
			c72.954,17.071,67.156-35.457,50.1-76.751C221.828,115.202,231.878,99.932,241.383,91.753z"/>
		<path class="st2" d="M200.46,219.804c6.773,0.547,12.582,0.268,17.536-0.709c1.551-5.239,1.655-13.329-7.579-20.979
			c-2.663,3.554-6.43,5.494-10.553,6.417C201.288,208.48,202.504,214.264,200.46,219.804z"/>
		<path class="st2" d="M213.021,173.59c0.846,3.654,1.356,7.08,1.356,10.21c0,0.432-0.011,0.85-0.024,1.266
			c5.614-0.099,20.039,1.063,26.578,14.757c2.677-8.195,2.538-18.204,0.64-28.755C234.943,169.149,224.934,168.256,213.021,173.59z"
			/>
		<path class="st2" d="M232.077,140.015c-1.334-3.23-2.317-6.294-3.009-9.206c-14.526-2.83-24.226,6.16-27.214,9.444
			c1.771,5.142,3.655,10.191,5.412,15.058c9.84-10.231,22.084-9.693,27.339-8.856C233.797,144.287,232.952,142.136,232.077,140.015z
			"/>
		<path class="st2" d="M227.974,116.411c0.542-5.295,2.156-9.854,4.334-13.736c-4.449-6.192-16.089-18.222-35.99-11.243
			c-2.16,7.205-2.3,14.871-1.243,22.685C201.197,111.508,216.908,106.378,227.974,116.411z"/>
		<path class="st2" d="M245.15,69.87L245.15,69.87c-4.567-7.791-14.409-10.788-22.48-6.738c-1.989,0.998-3.841,2.036-5.585,3.104
			c6.906,1.815,21.484,7.692,24.307,25.336c0.008,0.051,0.019,0.096,0.028,0.146C247.748,86.242,249.385,77.094,245.15,69.87z"/>
		<path class="st7" d="M141.208,196.192c0,0-3.508,20.375-4.129,51.158c-0.061,3.05,2.589,6.149,5.88,6.149h25.493
			c1.906,0,3.454-2.114,3.238-3.87c-0.392-3.186-2.723-7.761-12.449-9.263c-17.495-2.703,14.145-34.436,8.577-72.967"/>
		<path class="st7" d="M114.928,196.789c0,0,3.509,20.375,4.129,51.158c0.061,3.05-2.589,5.553-5.88,5.553H87.684
			c-1.906,0-3.454-1.517-3.238-3.273c0.392-3.186,2.723-7.761,12.449-9.263c17.585-2.717-14.473-34.764-8.488-73.563"/>
		<path class="st7" d="M95.048,153.448c0.315,2.723,1.734,11.593,7.391,19.227c0.278,0.375,0.843,0.281,1.004-0.161
			c0.334-0.915,0.946-2.298,1.945-3.586c0.285-0.367,0.847-0.263,0.999,0.184c1.252,3.696,6.54,16.809,20.096,22.496
			c0.926,0.389,1.965,0.389,2.891,0c13.556-5.687,18.844-18.8,20.096-22.496c0.151-0.446,0.713-0.551,0.998-0.184
			c0.999,1.288,1.611,2.671,1.945,3.586c0.162,0.443,0.727,0.536,1.005,0.161c5.657-7.634,7.076-16.504,7.39-19.227"/>
		<path class="st7" d="M206.469,249.75c-1.834-10.498-17.098-14.399-29.122-12.655c-1.834,0.267-3.278-1.447-2.558-3.039
			c0.015-0.033,0.03-0.066,0.045-0.099l0,0c10.56-23.34,18.798-48.475,11.031-55.674c-1.849-1.714-3.771-2.561-5.68-2.809
			c-0.203-7.711-2.926-18.136-5.994-27.435c-2.577-7.809-7.203-14.737-13.348-20.088c-5.545,2.532-12.8,4.683-22.229,5.622h0
			c-3.306,1.125-6.881,1.77-10.614,1.77c-3.733,0-7.308-0.645-10.614-1.77h0c-10.194-1.015-17.847-3.447-23.542-6.246
			c-8.121,6.831-13.66,16.35-15.536,26.954c-1.361,7.69-2.239,15.587-2.367,21.791c-1.906,0.25-3.824,1.097-5.669,2.807
			c-7.767,7.199,0.471,32.334,11.032,55.674l0-0.001c0.015,0.033,0.03,0.066,0.045,0.099c0.63,1.391-0.394,2.878-1.891,3.05
			c-1.351,0.154-28.767-4.094-29.964,12.526c-0.127,1.769,1.3,3.271,3.073,3.271h35.119h25.493c0.411,0,0.813-0.039,1.2-0.114
			c0.775-0.149,1.493-0.439,2.123-0.839c0.315-0.2,0.608-0.428,0.874-0.68c0.293-0.277,0.546-0.587,0.77-0.916
			c3.214,0.879,6.529,1.354,9.924,1.354c3.476,0,6.87-0.494,10.156-1.414c1.07,1.518,2.787,2.608,4.735,2.608h0h25.493h34.803
			C205.248,253.5,206.813,251.714,206.469,249.75z"/>
		<g>
			<path class="st7" d="M185.866,178.284c-6.04-5.598-12.856-2.025-17.466,1.891"/>
		</g>
		<g>
			<path class="st7" d="M70.27,178.881c6.04-5.598,12.856-2.025,17.466,1.891"/>
		</g>
		<path class="st7" d="M142.958,253.5h25.493c1.906,0,3.454-2.114,3.238-3.87c-0.392-3.186-2.723-7.761-12.449-9.263
			c-3.703-0.572-5.199-2.449-5.318-5.412c-3.011,1.882-6.882,4.893-6.882,4.893l-2.731-5.461l-6.953,3.793
			c-0.118,2.942-0.214,5.998-0.278,9.172C137.017,250.4,139.667,253.5,142.958,253.5z"/>
		<path class="st7" d="M87.684,253.5h25.493c3.291,0,5.941-2.503,5.88-5.553c-0.068-3.367-0.172-6.601-0.3-9.707l-7.067-3.854
			l-2.731,5.461c0,0-3.748-2.914-6.738-4.8c0.035,3.256-1.417,5.313-5.327,5.917c-9.726,1.502-12.057,6.077-12.449,9.263
			C84.23,251.983,85.777,253.5,87.684,253.5z"/>
		<path class="st7" d="M241.383,91.753c6.36-5.473,8.01-14.644,3.767-21.883h0c-4.567-7.791-14.409-10.788-22.48-6.738
			c-58.278,29.246-8.294,89.469-8.294,120.667c0,21.169-16.33,22.665-28.376,20.89c-1.103,3.849-2.469,7.912-4.024,12.076
			c72.954,17.071,67.156-35.457,50.1-76.751C221.828,115.202,231.878,99.932,241.383,91.753z"/>
		<path class="st7" d="M167.287,45.241c0.303-4.14,1.512-8.124,4.519-10.607c8.648-7.141,7.8-16.801,7.8-16.801
			c-3.569,3.422-2.062,3.65-15.14,11.177c-2.67,1.537-4.995,3.42-6.773,5.643C161.386,37.689,164.631,41.252,167.287,45.241z"/>
		<g>
			<path class="st7" d="M83.151,53.312c4.392-10.492,12.398-19.132,22.463-24.304l0,0c-0.233-1.337-0.133-2.707,0.28-3.989
				c-3.804-6.846-11.049-11.822-19.758-14.31C74.529,7.392,69.635,4.38,67.5,2.788c-0.835-0.623-2.033-0.185-2.297,0.823
				c-1.116,4.274-2.787,13.466,0.722,21.363l-5.944-1.189c0,0,2.378,9.511,9.511,13.077l-4.755,1.189
				C64.737,38.052,70.508,49.545,83.151,53.312z"/>
		</g>
		<path class="st7" d="M84.194,34.634c2.62,2.164,3.877,5.467,4.357,9.021c2.625-3.619,5.749-6.851,9.258-9.616
			c-1.706-1.958-3.852-3.634-6.275-5.029c-13.078-7.527-11.571-7.755-15.14-11.177C76.394,17.833,75.546,27.493,84.194,34.634z"/>
		<g>
			<path class="st7" d="M165.369,72.289c0,8.706-5.322,15.764-11.886,15.764s-13.147-7.058-13.147-15.764
				s6.583-15.764,13.147-15.764S165.369,63.582,165.369,72.289z"/>
			<path class="st7" d="M115.664,72.919c0,8.706-6.583,15.764-13.147,15.764s-11.886-7.058-11.886-15.764
				s5.322-15.764,11.886-15.764S115.664,64.213,115.664,72.919z"/>
		</g>
		<path class="st7" d="M116.867,112.371c2.74,3.046,6.711,4.962,11.133,4.962c4.422,0,8.393-1.916,11.133-4.962"/>
		<g>
			<path class="st7" d="M148.362,72.837c-0.009-2.684,2.16-4.867,4.845-4.876c2.684-0.009,4.867,2.16,4.876,4.845"/>
			<path class="st7" d="M97.917,72.837c-0.009-2.684,2.16-4.867,4.845-4.876c2.684-0.009,4.867,2.16,4.876,4.845"/>
		</g>
		<path class="st7" d="M114.799,95.051c1.176-3.051,7.318-3.318,13.201-3.318c5.914,0,12.088,0.27,13.218,3.367l0.229,0.001
			c1.883,0.426,3.655,0.952,5.295,1.579c-0.075-0.72-0.415-1.419-1.065-1.912l-2.934-2.226c-5.015-3.804-9.233-8.488-12.236-13.852
			c-1.099-1.963-3.918-1.958-5.015,0c-3.003,5.363-7.221,10.048-12.236,13.852l-2.934,2.226c-0.652,0.494-0.992,1.197-1.065,1.92
			C110.969,96.033,112.824,95.487,114.799,95.051z"/>
		<path class="st7" d="M141.447,95.101l-0.229-0.001c0.119,0.327,0.2,0.676,0.2,1.07c0,4.12-6.88,9.945-13.419,9.945
			c-6.539,0-13.419-5.826-13.419-9.945c0-0.413,0.087-0.778,0.218-1.119c-10.242,2.259-17.318,7.435-17.318,15.701
			c0,11.492,13.664,24.592,30.519,24.592s30.519-13.099,30.519-24.592C158.519,102.552,151.558,97.388,141.447,95.101z"/>
		<path class="st7" d="M141.419,96.17c0,4.12-6.88,9.945-13.419,9.945c-6.539,0-13.419-5.826-13.419-9.945
			c0-4.12,6.88-4.437,13.419-4.437C134.539,91.733,141.419,92.051,141.419,96.17z"/>
		<path class="st7" d="M157.72,31.267c-2.147-0.889-5.369-2.598-9.084-5.799c-5.806-5.004-21.178-13.034-38.305-5.401
			c-5.425,2.417-6.537,9.649-2.125,13.626c3.09,2.785,7.499,5.58,13.637,7.221c0.69,0.184,1.356-0.385,1.303-1.098l-0.15-2.019
			c-0.055-0.74,0.655-1.3,1.363-1.078c3.197,1.001,11.062,3.182,18.48,3.039c0.811-0.015,1.31-0.894,0.894-1.591l-1.039-1.742
			c-0.415-0.696,0.074-1.578,0.883-1.586c3.045-0.029,9.28-0.264,14.012-1.588C158.545,32.982,158.638,31.647,157.72,31.267z"/>
		<path class="st7" d="M187.723,96.003c-1.529-5.154-4.305-9.186-7.352-12.279c-3.187-3.236-5.079-7.524-5.079-12.066
			c0-15.491-7.455-29.32-18.948-38.095c-4.531,1.047-9.982,1.248-12.767,1.275c-0.81,0.008-1.298,0.89-0.883,1.586l1.039,1.742
			c0.416,0.697-0.083,1.576-0.894,1.591c-7.418,0.143-15.283-2.038-18.48-3.039c-0.709-0.222-1.418,0.337-1.363,1.078l0.15,2.019
			c0.053,0.713-0.612,1.282-1.303,1.098c-6.138-1.641-10.547-4.435-13.637-7.221c-1.448-1.305-2.29-2.963-2.59-4.684
			c-15.496,7.962-26.167,24.115-26.167,42.65v1.212c0,4.214-1.477,8.349-4.362,11.421c-2.83,3.014-5.37,6.866-6.808,11.712h2.342
			c0,0-2.342,11.844,4.684,19.739l3.513-1.316c0,0,7.665,16.07,38.569,19.148h0c3.306,1.125,6.881,1.77,10.614,1.77
			c3.733,0,7.308-0.645,10.614-1.77h0c30.904-3.079,38.569-19.148,38.569-19.148l3.513,1.316c7.026-7.896,4.684-19.739,4.684-19.739
			H187.723z"/>
		<g>
			<path class="st7" d="M196.018,23.786l-5.944,1.189c3.51-7.897,1.839-17.09,0.722-21.363c-0.263-1.008-1.461-1.446-2.297-0.823
				c-2.135,1.591-7.029,4.604-18.636,7.92c-9.193,2.627-16.775,8.016-20.377,15.462c3.353,2.743,6.253,4.275,8.233,5.096
				c0.918,0.38,0.825,1.715-0.132,1.983c-0.404,0.113-0.822,0.216-1.245,0.313c6.767,5.167,12.117,12.094,15.387,20.072
				c0.17-0.042,0.342-0.081,0.511-0.127c13.077-3.567,19.022-15.455,19.022-15.455l-4.755-1.189
				C193.64,33.297,196.018,23.786,196.018,23.786z"/>
		</g>
		<path class="st7" d="M200.46,219.804c6.773,0.547,12.582,0.268,17.536-0.709c1.551-5.239,1.655-13.329-7.579-20.979
			c-2.663,3.554-6.43,5.494-10.553,6.417C201.288,208.48,202.504,214.264,200.46,219.804z"/>
		<path class="st7" d="M213.021,173.59c0.846,3.654,1.356,7.08,1.356,10.21c0,0.432-0.011,0.85-0.024,1.266
			c5.614-0.099,20.039,1.063,26.578,14.757c2.677-8.195,2.538-18.204,0.64-28.755C234.943,169.149,224.934,168.256,213.021,173.59z"
			/>
		<path class="st7" d="M232.077,140.015c-1.334-3.23-2.317-6.294-3.009-9.206c-14.526-2.83-24.226,6.16-27.214,9.444
			c1.771,5.142,3.655,10.191,5.412,15.058c9.84-10.231,22.084-9.693,27.339-8.856C233.797,144.287,232.952,142.136,232.077,140.015z
			"/>
		<path class="st7" d="M227.974,116.411c0.542-5.295,2.156-9.854,4.334-13.736c-4.449-6.192-16.089-18.222-35.99-11.243
			c-2.16,7.205-2.3,14.871-1.243,22.685C201.197,111.508,216.908,106.378,227.974,116.411z"/>
		<path class="st7" d="M245.15,69.87L245.15,69.87c-4.567-7.791-14.409-10.788-22.48-6.738c-1.989,0.998-3.841,2.036-5.585,3.104
			c6.906,1.815,21.484,7.692,24.307,25.336c0.008,0.051,0.019,0.096,0.028,0.146C247.748,86.242,249.385,77.094,245.15,69.87z"/>
	</g>
</g>
<g id="Layer_47">
</g>
<g id="Layer_48">
</g>
<g id="Layer_49">
</g>
<g id="Layer_50">
</g>
<g id="Layer_51">
</g>
<g id="Layer_52">
</g>
<g id="Layer_53">
</g>
<g id="Layer_54">
</g>
<g id="Layer_55">
</g>
<g id="Layer_56">
</g>
<g id="Layer_57">
</g>
<g id="Layer_58">
</g>
<g id="Layer_59">
</g>
<g id="Layer_60">
</g>
<g id="Layer_61">
</g>
<g id="Layer_62">
</g>
<g id="Layer_63">
</g>
<g id="Layer_64">
</g>
<g id="Layer_65">
</g>
<g id="Layer_66">
</g>
<g id="Layer_67">
</g>
<g id="Layer_68">
</g>
<g id="Layer_69">
</g>
<g id="Layer_70">
</g>
<g id="Layer_71">
</g>
<g id="Layer_72">
</g>
<g id="Layer_73">
</g>
<g id="Layer_74">
</g>
<g id="Layer_75">
</g>
<g id="Layer_76">
</g>
<g id="Layer_77">
</g>
<g id="Layer_78">
</g>
<g id="Layer_79">
</g>
<g id="Layer_80">
</g>
<g id="Layer_81">
</g>
<g id="Layer_82">
</g>
<g id="Layer_83">
</g>
<g id="Layer_84">
</g>
<g id="Layer_85">
</g>
<g id="Layer_86">
</g>
<g id="Layer_87">
</g>
<g id="Layer_88">
</g>
<g id="Layer_89">
</g>
<g id="Layer_90">
</g>
<g id="Layer_91">
</g>
<g id="Layer_92">
</g>
<g id="Layer_93">
</g>
<g id="Layer_94">
</g>
<g id="Layer_95">
</g>
<g id="Layer_96">
</g>
<g id="Layer_97">
</g>
<g id="Layer_98">
</g>
<g id="Layer_99">
</g>
<g id="Layer_100">
</g>
</svg>
