<?xml version="1.0" encoding="utf-8"?>
<!-- Generator: Adobe Illustrator 22.0.0, SVG Export Plug-In . SVG Version: 6.00 Build 0)  -->
<svg version="1.1" xmlns="http://www.w3.org/2000/svg" xmlns:xlink="http://www.w3.org/1999/xlink" x="0px" y="0px"
	 viewBox="0 0 256 256" style="enable-background:new 0 0 256 256;" xml:space="preserve">
<style type="text/css">
	.st0{fill:#F9BD55;}
	.st1{fill:#F4DBCE;}
	.st2{fill:#52565B;}
	.st3{fill:#FD605B;}
	.st4{fill:#F98080;}
	.st5{fill:#F9E63A;}
	.st6{fill:#039BE6;}
	.st7{fill:none;stroke:#000000;stroke-width:5;stroke-linecap:round;stroke-linejoin:round;stroke-miterlimit:10;}
	.st8{fill:#7D3D1A;}
	.st9{fill:#EAA250;}
	.st10{fill:#DD7F57;}
	.st11{fill:#FFC097;}
	.st12{fill:#F49667;}
	.st13{fill:#F89422;}
	.st14{fill:#E3E4E5;}
	.st15{fill:#6E7175;}
	.st16{fill:#46BAF9;}
	.st17{fill:#D9F3FF;}
	.st18{fill:#828487;}
	.st19{fill:#A8AEB2;}
	.st20{fill:#C9CDD1;}
	.st21{fill:#8CD8F9;}
	.st22{fill:#1AA7E5;}
	.st23{fill:#ACE7FC;}
	.st24{fill:#FFFFFF;}
	.st25{fill:#9E512B;}
	.st26{fill:#7ED5FC;}
	.st27{fill:#7CCC4E;}
	.st28{fill:#3AA03A;}
	.st29{fill:#FCB1B1;}
	.st30{fill:#F76E23;}
	.st31{fill:#C16A44;}
	.st32{fill:#B796EA;}
</style>
<g id="Layer_1">
</g>
<g id="Layer_2">
</g>
<g id="Layer_3">
</g>
<g id="Layer_4">
</g>
<g id="Layer_5">
</g>
<g id="Layer_6">
</g>
<g id="Layer_7">
</g>
<g id="Layer_8">
</g>
<g id="Layer_9">
</g>
<g id="Layer_10">
	<g>
		<path class="st0" d="M34.463,141.269c-3.786,10.379-0.53,22.061,5.862,30.72c1.446-6.2,4.692-10.27,8.906-12.849
			c-0.091-0.18-0.184-0.357-0.266-0.543c-5.671-13.018,3.064-18.661,8.829-24.345c15.375-15.16,12.799-32.184-2.002-43.107
			c-1.994-1.472-3.929-3.028-5.624-4.836c-1.455-1.552-3.313-2.929-5.495-3.972c-6.976-3.333-12.697-1.395-15.078,3.589
			c-2.381,4.983-0.52,11.124,6.457,14.457c2.268,1.084,4.599,1.671,6.796,1.801c4.017,0.238,7.76,2.385,9.798,5.854
			c1.635,2.783,2.019,6.029,0.193,9.719C49.29,124.933,38.892,129.126,34.463,141.269z"/>
		<path class="st0" d="M200.342,237.518c-1.088-0.014-1.809-1.135-1.386-2.138l11.67-27.648
			c15.488-43.468-2.486-52.659-20.935-52.48c1.851,22.297-1.088,48.777-16.049,75.125c-1.786,3.145-0.929,7.031,1.979,9.303
			c1.823,1.425,3.803,3.223,5.418,5.304c2.428,3.128,0.533,7.397-3.148,8.326l0.189,0.19h37.796
			C219.224,239.22,205.886,237.591,200.342,237.518z"/>
		<path class="st0" d="M66.309,155.253c-18.45-0.179-36.423,9.011-20.935,52.48l11.67,27.648c0.423,1.003-0.297,2.123-1.386,2.138
			c-5.544,0.074-18.882,1.702-15.533,15.982H77.92l0.189-0.19c-3.681-0.929-5.576-5.198-3.148-8.326
			c1.615-2.081,3.595-3.879,5.418-5.304c2.907-2.272,3.764-6.158,1.979-9.303C67.397,204.03,64.458,177.549,66.309,155.253z"/>
		<g>
			<path class="st0" d="M189.085,149.354c-1.634-13.227-7.477-25.551-16.469-35.335c-3.274,2.834-6.994,5.356-11.082,7.492v0
				c-0.297,0.568-0.621,1.127-0.998,1.662c-2.74,3.892-6.957,6.163-11.393,6.514c0.683-0.049,1.362-0.14,2.032-0.278
				c-4.02,8.62-12.758,14.596-22.897,14.596c-10.149,0-18.893-5.99-22.907-14.623c-3.675-0.789-7.058-2.912-9.378-6.209
				c-0.377-0.536-0.702-1.094-0.999-1.663c0,0,0,0.001,0.001,0.002c-4.209-2.2-8.028-4.808-11.372-7.746
				c-9.127,9.825-15.06,22.248-16.707,35.592c-2.894,23.437-0.862,52.307,15.442,81.021c1.785,3.145,0.928,7.031-1.979,9.303
				c-1.823,1.425-3.803,3.223-5.418,5.304c-2.738,3.527,0.017,8.516,4.637,8.516h26.778c3.089,0,5.515-2.307,5.678-5.097
				c4.96,1.781,10.326,2.778,15.945,2.778s10.985-0.997,15.946-2.778c0-0.004,0-0.008,0-0.011c0.157,2.796,2.584,5.109,5.678,5.109
				h26.778c4.621,0,7.375-4.988,4.637-8.516c-1.615-2.081-3.595-3.879-5.418-5.304c-2.907-2.272-3.764-6.158-1.979-9.303
				C189.949,201.66,191.98,172.789,189.085,149.354z"/>
		</g>
		<g>
			<path class="st0" d="M185.492,71.366c-1.354-3.771-2.352-7.675-2.558-11.676c-1.489-28.969-25.399-52.023-54.669-52.023
				c-29.274,0-53.18,23.058-54.669,52.023c-0.206,4.001-1.204,7.905-2.558,11.676c-1.398,3.893-2.145,7.994-2.145,12.23
				c0,15.775,10.352,29.684,26.102,37.915c-2.741-5.248-2.115-11.752,1.47-16.617c4.356-5.911,12.078-8.132,18.846-5.585
				c-1.011,0.69-1.62,1.614-1.62,2.874c0,4.474,7.472,10.801,14.574,10.801c7.102,0,14.573-6.327,14.573-10.801
				c0-1.261-0.609-2.185-1.62-2.874c6.768-2.547,14.49-0.326,18.846,5.585l0,0c3.585,4.865,4.211,11.368,1.47,16.617
				c15.751-8.231,26.103-22.14,26.103-37.915C187.637,79.36,186.889,75.259,185.492,71.366z"/>
		</g>
		<path class="st9" d="M44.673,82.338c2.182,1.042,4.04,2.42,5.495,3.972c1.695,1.808,3.63,3.364,5.624,4.836
			c1.494,1.103,2.857,2.271,4.097,3.49c-3.807-0.533-8.415-0.603-6.816,2.595c1.968,3.935,3.436,7.375-1.929,8.828
			c-2.127-2.288-5.118-3.686-8.296-3.874c-2.196-0.13-4.528-0.718-6.796-1.801c-6.976-3.333-8.837-9.474-6.457-14.457
			C31.976,80.943,37.697,79.005,44.673,82.338z"/>
		<path class="st9" d="M39.63,132.312c-2.022,2.483-3.858,5.367-5.167,8.956c-0.436,1.196-0.764,2.411-1.02,3.634
			c1.138,0.779,2.514,1.236,3.997,1.236c3.914,0,7.088-3.173,7.088-7.088C44.528,135.902,42.472,133.236,39.63,132.312z"/>
		<path class="st9" d="M175.264,85.882c0,4.475,3.628,8.102,8.102,8.102c1.019,0,1.99-0.196,2.889-0.54
			c0.903-3.173,1.382-6.468,1.382-9.849c0-1.616-0.11-3.213-0.323-4.785c-1.169-0.654-2.513-1.03-3.948-1.03
			C178.891,77.78,175.264,81.408,175.264,85.882z"/>
		<circle class="st9" cx="148.931" cy="38.787" r="5.064"/>
		<path class="st9" d="M140.322,13.974c0,3.636,2.947,6.583,6.583,6.583c3.636,0,6.583-2.947,6.583-6.583
			c0-0.048-0.006-0.095-0.007-0.142c-3.571-1.863-7.376-3.335-11.354-4.377C141.011,10.634,140.322,12.222,140.322,13.974z"/>
		<path class="st9" d="M164.645,21.563c-2.72,1.447-4.574,4.307-4.574,7.603c0,4.754,3.854,8.609,8.609,8.609
			c2.7,0,5.106-1.245,6.685-3.189C172.476,29.705,168.849,25.317,164.645,21.563z"/>
		<circle class="st9" cx="168.174" cy="167.412" r="5.064"/>
		<circle class="st9" cx="164.123" cy="216.026" r="5.064"/>
		<circle class="st9" cx="92.215" cy="216.026" r="5.064"/>
		<circle class="st9" cx="179.821" cy="189.187" r="6.583"/>
		<circle class="st9" cx="174.757" cy="133.484" r="6.583"/>
		<path class="st9" d="M178.302,153.739c0,5.314,4.308,9.622,9.622,9.622c0.761,0,1.499-0.098,2.209-0.265
			c-0.134-4.748-0.504-9.341-1.048-13.742c-0.217-1.758-0.514-3.499-0.878-5.222c-0.095-0.003-0.188-0.014-0.284-0.014
			C182.61,144.118,178.302,148.426,178.302,153.739z"/>
		<circle class="st9" cx="88.164" cy="167.412" r="5.064"/>
		<circle class="st9" cx="76.516" cy="189.187" r="6.583"/>
		<path class="st9" d="M66.899,120.405c-1.191-1.692-3.156-2.801-5.383-2.801c-3.636,0-6.583,2.947-6.583,6.583
			c0,3.46,2.671,6.291,6.063,6.557C63.804,127.33,65.751,123.856,66.899,120.405z"/>
		<path class="st9" d="M213.068,165.446c-0.275-0.035-0.553-0.059-0.838-0.059c-3.636,0-6.583,2.947-6.583,6.583
			c0,3.636,2.947,6.583,6.583,6.583c1.581,0,3.031-0.558,4.166-1.487C216.069,172.272,214.887,168.453,213.068,165.446z"/>
		<circle class="st9" cx="201.09" cy="187.668" r="5.064"/>
		<path class="st9" d="M211.218,198.809c-4.754,0-8.609,3.854-8.609,8.609c0,3.416,1.995,6.359,4.879,7.75l3.138-7.435
			c1.087-3.051,1.992-5.915,2.761-8.637C212.693,198.915,211.969,198.809,211.218,198.809z"/>
		<path class="st9" d="M43.601,178.553c3.636,0,6.583-2.947,6.583-6.583c0-3.636-2.947-6.583-6.583-6.583
			c-0.221,0-0.439,0.012-0.654,0.033c-1.842,3.036-3.033,6.904-3.35,11.767C40.707,178.04,42.092,178.553,43.601,178.553z"/>
		<circle class="st9" cx="54.741" cy="187.668" r="5.064"/>
		<path class="st9" d="M42.602,199.055c0.771,2.734,1.68,5.611,2.772,8.678l3.11,7.367c2.808-1.418,4.739-4.321,4.739-7.682
			c0-4.754-3.854-8.609-8.609-8.609C43.919,198.809,43.248,198.9,42.602,199.055z"/>
		<circle class="st9" cx="81.58" cy="133.484" r="6.583"/>
		<path class="st9" d="M68.414,163.361c5.314,0,9.622-4.308,9.622-9.622c0-5.314-4.308-9.622-9.622-9.622
			c-0.211,0-0.418,0.018-0.625,0.032c-0.362,1.717-0.657,3.453-0.873,5.207c-0.54,4.374-0.908,8.938-1.044,13.654
			C66.682,163.232,67.532,163.361,68.414,163.361z"/>
		<circle class="st9" cx="172.225" cy="58.031" r="4.051"/>
		<path class="st9" d="M81.265,85.882c0,4.475-3.628,8.102-8.102,8.102c-1.019,0-1.99-0.196-2.889-0.54
			c-0.903-3.173-1.382-6.468-1.382-9.849c0-1.616,0.11-3.213,0.323-4.785c1.169-0.654,2.513-1.03,3.948-1.03
			C77.638,77.78,81.265,81.408,81.265,85.882z"/>
		<circle class="st9" cx="107.598" cy="38.787" r="5.064"/>
		<path class="st9" d="M116.207,13.974c0,3.636-2.947,6.583-6.583,6.583s-6.583-2.947-6.583-6.583c0-0.048,0.006-0.095,0.007-0.142
			c3.571-1.863,7.376-3.335,11.354-4.377C115.518,10.634,116.207,12.222,116.207,13.974z"/>
		<path class="st9" d="M91.884,21.563c2.72,1.447,4.574,4.307,4.574,7.603c0,4.754-3.854,8.609-8.609,8.609
			c-2.7,0-5.106-1.245-6.685-3.189C84.054,29.705,87.68,25.317,91.884,21.563z"/>
		<circle class="st9" cx="84.304" cy="58.031" r="4.051"/>
		<path class="st1" d="M128.278,144.004c-7.73,0-14.639-3.48-19.271-8.952c-7.793,15.2-9.025,36.764-5.044,53.656
			c3.105,13.176,4.402,26.714,4.402,40.252c0.188,2.527-0.734,6.578,1.996,12.577c0.79,1.736,1.629,4.525,1.653,7.112
			c0.009-0.083,0.035-0.162,0.04-0.246c10.311,3.702,21.563,3.708,31.891,0c0.02,0.102,0.032,0.167,0.04,0.239
			c0.022-2.456,0.812-5.255,1.653-7.104c2.734-6.009,1.809-10.072,1.996-12.577c0-13.537,1.297-27.075,4.402-40.252
			c3.958-16.791,2.737-38.106-4.843-53.239C142.566,140.701,135.811,144.004,128.278,144.004z"/>
		<g>
			<path class="st1" d="M181.039,244.984c-1.615-2.081-3.595-3.879-5.418-5.304c-1.868-1.46-2.884-3.587-2.902-5.755
				c-1.335,0.014-2.988,0.353-4.97,1.344c-5.396,2.698-9.999-4.976-20.181-1.057c-0.156,2.026-0.622,4.45-1.93,7.324
				c-0.841,1.849-1.631,4.647-1.653,7.104c0.285,2.68,2.639,4.859,5.638,4.859h26.778
				C181.022,253.499,183.777,248.511,181.039,244.984z"/>
		</g>
		<g>
			<path class="st1" d="M110.362,241.537c-1.301-2.858-1.768-5.269-1.926-7.289c-10.246-4.001-14.861,3.727-20.273,1.021
				c-1.937-0.969-3.563-1.316-4.882-1.345c-0.017,2.168-1.033,4.296-2.902,5.756c-1.823,1.425-3.803,3.223-5.418,5.304
				c-2.738,3.527,0.017,8.516,4.637,8.516h26.778c2.996,0,5.35-2.174,5.638-4.851C111.992,246.062,111.152,243.273,110.362,241.537z
				"/>
		</g>
		<path class="st1" d="M200.342,237.518c-0.484-0.006-0.888-0.238-1.158-0.575c-6.811,3.22-13.69,2.481-17.844-1.673
			c-3.311-3.311-6.612-3.156-8.508-2.653c-0.472,2.594,0.543,5.31,2.788,7.064c1.823,1.425,3.803,3.223,5.418,5.304
			c2.428,3.128,0.533,7.397-3.148,8.326l0.189,0.19h37.796C219.224,239.22,205.886,237.591,200.342,237.518z"/>
		<path class="st1" d="M80.379,239.68c2.181-1.704,3.208-4.316,2.832-6.842c-1.676-0.615-5.45-1.345-9.227,2.432
			c-4.058,4.058-10.718,4.854-17.374,1.887c-0.255,0.215-0.58,0.357-0.953,0.362c-5.544,0.074-18.882,1.702-15.533,15.982H77.92
			l0.189-0.19c-3.681-0.929-5.576-5.198-3.148-8.326C76.577,242.903,78.556,241.104,80.379,239.68z"/>
		<path class="st0" d="M176.751,2.501c-8.885,0-16.407,5.787-19.035,13.792c9.642,6.186,17.217,15.319,21.474,26.129
			c9.916-1.205,17.604-9.638,17.604-19.879C196.794,11.474,187.821,2.501,176.751,2.501z"/>
		<path class="st0" d="M98.384,16.566C95.841,8.416,88.236,2.501,79.249,2.501c-11.069,0-20.042,8.973-20.042,20.042
			c0,10.416,7.947,18.971,18.108,19.945C81.504,31.81,88.925,22.759,98.384,16.566z"/>
		<path class="st1" d="M160.064,104.894L160.064,104.894c-4.356-5.911-12.078-8.132-18.846-5.585c1.011,0.69,1.62,1.614,1.62,2.874
			c0,4.474-7.472,10.801-14.573,10.801s-14.573-6.327-14.573-10.801c0-1.261,0.609-2.185,1.62-2.874
			c-6.768-2.547-14.49-0.326-18.846,5.585c-3.973,5.391-4.326,12.802-0.472,18.279c3.987,5.665,11.103,7.894,17.467,5.773
			l14.804-4.935l14.804,4.935c6.364,2.121,13.48-0.108,17.467-5.772C164.391,117.696,164.037,110.285,160.064,104.894z"/>
		<g>
			<path class="st1" d="M143.221,128.945l-14.804-4.935l-14.804,4.935c-2.717,0.906-5.569,1.012-8.258,0.403
				c4.007,8.652,12.762,14.657,22.924,14.657c10.138,0,18.877-5.977,22.897-14.596C148.575,129.942,145.836,129.816,143.221,128.945
				z"/>
		</g>
		<path class="st8" d="M142.838,102.183c0,4.474-7.472,10.801-14.573,10.801s-14.573-6.327-14.573-10.801
			c0-4.474,7.472-4.819,14.573-4.819S142.838,97.709,142.838,102.183z"/>
		<path class="st4" d="M176.751,16.584c-4.637,0-8.739,2.251-11.305,5.71c5.971,5.547,10.704,12.409,13.744,20.13
			c3.227-0.393,6.221-1.539,8.787-3.277c1.786-2.36,2.857-5.291,2.857-8.479C190.835,22.89,184.53,16.584,176.751,16.584z"/>
		<path class="st4" d="M90.768,22.581c-2.548-3.623-6.753-5.997-11.519-5.997c-7.778,0-14.084,6.305-14.084,14.084
			c0,3.188,1.072,6.118,2.857,8.479c2.7,1.829,5.873,3.007,9.295,3.335C80.303,34.873,84.928,28.091,90.768,22.581z"/>
		<path class="st7" d="M34.463,141.269c-3.786,10.379-0.53,22.061,5.862,30.72c1.446-6.2,4.692-10.27,8.906-12.849
			c-0.091-0.18-0.184-0.357-0.266-0.543c-5.671-13.018,3.064-18.661,8.829-24.345c15.375-15.16,12.799-32.184-2.002-43.107
			c-1.994-1.472-3.929-3.028-5.624-4.836c-1.455-1.552-3.313-2.929-5.495-3.972c-6.976-3.333-12.697-1.395-15.078,3.589
			c-2.381,4.983-0.52,11.124,6.457,14.457c2.268,1.084,4.599,1.671,6.796,1.801c4.017,0.238,7.76,2.385,9.798,5.854
			c1.635,2.783,2.019,6.029,0.193,9.719C49.29,124.933,38.892,129.126,34.463,141.269z"/>
		<path class="st7" d="M44.673,82.338c2.182,1.042,4.04,2.42,5.495,3.972c1.695,1.808,3.63,3.364,5.624,4.836
			c1.494,1.103,2.857,2.271,4.097,3.49c-3.807-0.533-8.415-0.603-6.816,2.595c1.968,3.935,3.436,7.375-1.929,8.828
			c-2.127-2.288-5.118-3.686-8.296-3.874c-2.196-0.13-4.528-0.718-6.796-1.801c-6.976-3.333-8.837-9.474-6.457-14.457
			C31.976,80.943,37.697,79.005,44.673,82.338z"/>
		<path class="st7" d="M39.63,132.312c-2.022,2.483-3.858,5.367-5.167,8.956c-0.436,1.196-0.764,2.411-1.02,3.634
			c1.138,0.779,2.514,1.236,3.997,1.236c3.914,0,7.088-3.173,7.088-7.088C44.528,135.902,42.472,133.236,39.63,132.312z"/>
		<path class="st7" d="M200.342,237.518c-1.088-0.014-1.809-1.135-1.386-2.138l11.67-27.648
			c15.488-43.468-2.486-52.659-20.935-52.48c1.851,22.297-1.088,48.777-16.049,75.125c-1.786,3.145-0.929,7.031,1.979,9.303
			c1.823,1.425,3.803,3.223,5.418,5.304c2.428,3.128,0.533,7.397-3.148,8.326l0.189,0.19h37.796
			C219.224,239.22,205.886,237.591,200.342,237.518z"/>
		<path class="st7" d="M66.309,155.253c-18.45-0.179-36.423,9.011-20.935,52.48l11.67,27.648c0.423,1.003-0.297,2.123-1.386,2.138
			c-5.544,0.074-18.882,1.702-15.533,15.982H77.92l0.189-0.19c-3.681-0.929-5.576-5.198-3.148-8.326
			c1.615-2.081,3.595-3.879,5.418-5.304c2.907-2.272,3.764-6.158,1.979-9.303C67.397,204.03,64.458,177.549,66.309,155.253z"/>
		<path class="st7" d="M142.838,102.183c0,4.474-7.472,10.801-14.573,10.801s-14.573-6.327-14.573-10.801
			c0-4.474,7.472-4.819,14.573-4.819S142.838,97.709,142.838,102.183z"/>
		<path class="st7" d="M160.064,104.894L160.064,104.894c-4.356-5.911-12.078-8.132-18.846-5.585c1.011,0.69,1.62,1.614,1.62,2.874
			c0,4.474-7.472,10.801-14.573,10.801s-14.573-6.327-14.573-10.801c0-1.261,0.609-2.185,1.62-2.874
			c-6.768-2.547-14.49-0.326-18.846,5.585c-3.973,5.391-4.326,12.802-0.472,18.279c3.987,5.665,11.103,7.894,17.467,5.773
			l14.804-4.935l14.804,4.935c6.364,2.121,13.48-0.108,17.467-5.772C164.391,117.696,164.037,110.285,160.064,104.894z"/>
		<line class="st7" x1="128.265" y1="123.914" x2="128.265" y2="114.73"/>
		<g>
			<path class="st7" d="M143.221,128.945l-14.804-4.935l-14.804,4.935c-2.717,0.906-5.569,1.012-8.258,0.403
				c4.007,8.652,12.762,14.657,22.924,14.657c10.138,0,18.877-5.977,22.897-14.596C148.575,129.942,145.836,129.816,143.221,128.945
				z"/>
		</g>
		<path class="st7" d="M120.882,76.35c1.005,5.662,1.005,13.211-3.014,20.76"/>
		<path class="st7" d="M135.647,76.35c-1.005,5.662-1.005,13.211,3.014,20.76"/>
		<path class="st7" d="M95.163,70.1c-0.011-3.42,2.753-6.201,6.173-6.212c3.42-0.011,6.201,2.753,6.212,6.173"/>
		<path class="st7" d="M148.982,70.1c-0.011-3.42,2.753-6.201,6.173-6.212s6.201,2.753,6.212,6.173"/>
		<line class="st7" x1="149.872" y1="108.99" x2="160.204" y2="105.546"/>
		<line class="st7" x1="151.02" y1="118.174" x2="161.352" y2="119.322"/>
		<line class="st7" x1="107.395" y1="108.99" x2="97.063" y2="105.546"/>
		<line class="st7" x1="106.247" y1="118.174" x2="95.915" y2="119.322"/>
		<g>
			<path class="st7" d="M185.492,71.366c-1.354-3.771-2.352-7.675-2.558-11.676c-1.489-28.969-25.399-52.023-54.669-52.023
				c-29.274,0-53.18,23.058-54.669,52.023c-0.206,4.001-1.204,7.905-2.558,11.676c-1.398,3.893-2.145,7.994-2.145,12.23
				c0,15.775,10.352,29.684,26.102,37.915c-2.741-5.248-2.115-11.752,1.47-16.617c4.356-5.911,12.078-8.132,18.846-5.585
				c-1.011,0.69-1.62,1.614-1.62,2.874c0,4.474,7.472,10.801,14.574,10.801c7.102,0,14.573-6.327,14.573-10.801
				c0-1.261-0.609-2.185-1.62-2.874c6.768-2.547,14.49-0.326,18.846,5.585l0,0c3.585,4.865,4.211,11.368,1.47,16.617
				c15.751-8.231,26.103-22.14,26.103-37.915C187.637,79.36,186.889,75.259,185.492,71.366z"/>
		</g>
		<path class="st7" d="M176.751,2.501c-8.885,0-16.407,5.787-19.035,13.792c9.642,6.186,17.217,15.319,21.474,26.129
			c9.916-1.205,17.604-9.638,17.604-19.879C196.794,11.474,187.821,2.501,176.751,2.501z"/>
		<path class="st7" d="M98.384,16.566C95.841,8.416,88.236,2.501,79.249,2.501c-11.069,0-20.042,8.973-20.042,20.042
			c0,10.416,7.947,18.971,18.108,19.945C81.504,31.81,88.925,22.759,98.384,16.566z"/>
		<g>
			<path class="st7" d="M189.085,149.354c-1.634-13.227-7.477-25.551-16.469-35.335c-3.274,2.834-6.994,5.356-11.082,7.492v0
				c-0.297,0.568-0.621,1.127-0.998,1.662c-2.74,3.892-6.957,6.163-11.393,6.514c0.683-0.049,1.362-0.14,2.032-0.278
				c-4.02,8.62-12.758,14.596-22.897,14.596c-10.149,0-18.893-5.99-22.907-14.623c-3.675-0.789-7.058-2.912-9.378-6.209
				c-0.377-0.536-0.702-1.094-0.999-1.663c0,0,0,0.001,0.001,0.002c-4.209-2.2-8.028-4.808-11.372-7.746
				c-9.127,9.825-15.06,22.248-16.707,35.592c-2.894,23.437-0.862,52.307,15.442,81.021c1.785,3.145,0.928,7.031-1.979,9.303
				c-1.823,1.425-3.803,3.223-5.418,5.304c-2.738,3.527,0.017,8.516,4.637,8.516h26.778c3.089,0,5.515-2.307,5.678-5.097
				c4.96,1.781,10.326,2.778,15.945,2.778s10.985-0.997,15.946-2.778c0-0.004,0-0.008,0-0.011c0.157,2.796,2.584,5.109,5.678,5.109
				h26.778c4.621,0,7.375-4.988,4.637-8.516c-1.615-2.081-3.595-3.879-5.418-5.304c-2.907-2.272-3.764-6.158-1.979-9.303
				C189.949,201.66,191.98,172.789,189.085,149.354z"/>
		</g>
		<g>
			<path class="st7" d="M189.085,149.354c-1.634-13.227-7.477-25.551-16.469-35.335c-3.274,2.834-6.994,5.356-11.082,7.492v0
				c-0.297,0.568-0.621,1.127-0.998,1.662c-2.74,3.892-6.957,6.163-11.393,6.514c0.683-0.049,1.362-0.14,2.032-0.278
				c-4.02,8.62-12.758,14.596-22.897,14.596c-10.149,0-18.893-5.99-22.907-14.623c-3.675-0.789-7.058-2.912-9.378-6.209
				c-0.377-0.536-0.702-1.094-0.999-1.663c0,0,0,0.001,0.001,0.002c-4.209-2.2-8.028-4.808-11.372-7.746
				c-9.127,9.825-15.06,22.248-16.707,35.592c-2.894,23.437-0.862,52.307,15.442,81.021c1.785,3.145,0.928,7.031-1.979,9.303
				c-1.823,1.425-3.803,3.223-5.418,5.304c-2.738,3.527,0.017,8.516,4.637,8.516h26.778c3.089,0,5.515-2.307,5.678-5.097
				c4.96,1.781,10.326,2.778,15.945,2.778s10.985-0.997,15.946-2.778c0-0.004,0-0.008,0-0.011c0.157,2.796,2.584,5.109,5.678,5.109
				h26.778c4.621,0,7.375-4.988,4.637-8.516c-1.615-2.081-3.595-3.879-5.418-5.304c-2.907-2.272-3.764-6.158-1.979-9.303
				C189.949,201.66,191.98,172.789,189.085,149.354z"/>
		</g>
		<path class="st7" d="M128.278,144.004c-7.73,0-14.639-3.48-19.271-8.952c-7.793,15.2-9.025,36.764-5.044,53.656
			c3.105,13.176,4.402,26.714,4.402,40.252c0.188,2.527-0.734,6.578,1.996,12.577c0.79,1.736,1.629,4.525,1.653,7.112
			c0.009-0.083,0.035-0.162,0.04-0.246c10.311,3.702,21.563,3.708,31.891,0c0.02,0.102,0.032,0.167,0.04,0.239
			c0.022-2.456,0.812-5.255,1.653-7.104c2.734-6.009,1.809-10.072,1.996-12.577c0-13.537,1.297-27.075,4.402-40.252
			c3.958-16.791,2.737-38.106-4.843-53.239C142.566,140.701,135.811,144.004,128.278,144.004z"/>
		<path class="st7" d="M175.264,85.882c0,4.475,3.628,8.102,8.102,8.102c1.019,0,1.99-0.196,2.889-0.54
			c0.903-3.173,1.382-6.468,1.382-9.849c0-1.616-0.11-3.213-0.323-4.785c-1.169-0.654-2.513-1.03-3.948-1.03
			C178.891,77.78,175.264,81.408,175.264,85.882z"/>
		<circle class="st7" cx="148.931" cy="38.787" r="5.064"/>
		<path class="st7" d="M140.322,13.974c0,3.636,2.947,6.583,6.583,6.583c3.636,0,6.583-2.947,6.583-6.583
			c0-0.048-0.006-0.095-0.007-0.142c-3.571-1.863-7.376-3.335-11.354-4.377C141.011,10.634,140.322,12.222,140.322,13.974z"/>
		<path class="st7" d="M164.645,21.563c-2.72,1.447-4.574,4.307-4.574,7.603c0,4.754,3.854,8.609,8.609,8.609
			c2.7,0,5.106-1.245,6.685-3.189C172.476,29.705,168.849,25.317,164.645,21.563z"/>
		<line class="st7" x1="161.085" y1="47.903" x2="161.085" y2="47.903"/>
		<circle class="st7" cx="168.174" cy="167.412" r="5.064"/>
		<circle class="st7" cx="164.123" cy="216.026" r="5.064"/>
		<circle class="st7" cx="92.215" cy="216.026" r="5.064"/>
		<circle class="st7" cx="179.821" cy="189.187" r="6.583"/>
		<circle class="st7" cx="174.757" cy="133.484" r="6.583"/>
		<path class="st7" d="M178.302,153.739c0,5.314,4.308,9.622,9.622,9.622c0.761,0,1.499-0.098,2.209-0.265
			c-0.134-4.748-0.504-9.341-1.048-13.742c-0.217-1.758-0.514-3.499-0.878-5.222c-0.095-0.003-0.188-0.014-0.284-0.014
			C182.61,144.118,178.302,148.426,178.302,153.739z"/>
		<line class="st7" x1="180.328" y1="174.502" x2="180.328" y2="174.502"/>
		<circle class="st7" cx="88.164" cy="167.412" r="5.064"/>
		<circle class="st7" cx="76.516" cy="189.187" r="6.583"/>
		<path class="st7" d="M66.899,120.405c-1.191-1.692-3.156-2.801-5.383-2.801c-3.636,0-6.583,2.947-6.583,6.583
			c0,3.46,2.671,6.291,6.063,6.557C63.804,127.33,65.751,123.856,66.899,120.405z"/>
		<path class="st7" d="M213.068,165.446c-0.275-0.035-0.553-0.059-0.838-0.059c-3.636,0-6.583,2.947-6.583,6.583
			c0,3.636,2.947,6.583,6.583,6.583c1.581,0,3.031-0.558,4.166-1.487C216.069,172.272,214.887,168.453,213.068,165.446z"/>
		<circle class="st7" cx="201.09" cy="187.668" r="5.064"/>
		<path class="st7" d="M211.218,198.809c-4.754,0-8.609,3.854-8.609,8.609c0,3.416,1.995,6.359,4.879,7.75l3.138-7.435
			c1.087-3.051,1.992-5.915,2.761-8.637C212.693,198.915,211.969,198.809,211.218,198.809z"/>
		<path class="st7" d="M43.601,178.553c3.636,0,6.583-2.947,6.583-6.583c0-3.636-2.947-6.583-6.583-6.583
			c-0.221,0-0.439,0.012-0.654,0.033c-1.842,3.036-3.033,6.904-3.35,11.767C40.707,178.04,42.092,178.553,43.601,178.553z"/>
		<circle class="st7" cx="54.741" cy="187.668" r="5.064"/>
		<path class="st7" d="M42.602,199.055c0.771,2.734,1.68,5.611,2.772,8.678l3.11,7.367c2.808-1.418,4.739-4.321,4.739-7.682
			c0-4.754-3.854-8.609-8.609-8.609C43.919,198.809,43.248,198.9,42.602,199.055z"/>
		<circle class="st7" cx="81.58" cy="133.484" r="6.583"/>
		<path class="st7" d="M68.414,163.361c5.314,0,9.622-4.308,9.622-9.622c0-5.314-4.308-9.622-9.622-9.622
			c-0.211,0-0.418,0.018-0.625,0.032c-0.362,1.717-0.657,3.453-0.873,5.207c-0.54,4.374-0.908,8.938-1.044,13.654
			C66.682,163.232,67.532,163.361,68.414,163.361z"/>
		<line class="st7" x1="76.01" y1="174.502" x2="76.01" y2="174.502"/>
		<circle class="st7" cx="172.225" cy="58.031" r="4.051"/>
		<path class="st7" d="M81.265,85.882c0,4.475-3.628,8.102-8.102,8.102c-1.019,0-1.99-0.196-2.889-0.54
			c-0.903-3.173-1.382-6.468-1.382-9.849c0-1.616,0.11-3.213,0.323-4.785c1.169-0.654,2.513-1.03,3.948-1.03
			C77.638,77.78,81.265,81.408,81.265,85.882z"/>
		<circle class="st7" cx="107.598" cy="38.787" r="5.064"/>
		<path class="st7" d="M116.207,13.974c0,3.636-2.947,6.583-6.583,6.583s-6.583-2.947-6.583-6.583c0-0.048,0.006-0.095,0.007-0.142
			c3.571-1.863,7.376-3.335,11.354-4.377C115.518,10.634,116.207,12.222,116.207,13.974z"/>
		<path class="st7" d="M91.884,21.563c2.72,1.447,4.574,4.307,4.574,7.603c0,4.754-3.854,8.609-8.609,8.609
			c-2.7,0-5.106-1.245-6.685-3.189C84.054,29.705,87.68,25.317,91.884,21.563z"/>
		<line class="st7" x1="95.444" y1="47.903" x2="95.444" y2="47.903"/>
		<circle class="st7" cx="84.304" cy="58.031" r="4.051"/>
		<path class="st7" d="M176.751,16.584c-4.637,0-8.739,2.251-11.305,5.71c5.971,5.547,10.704,12.409,13.744,20.13
			c3.227-0.393,6.221-1.539,8.787-3.277c1.786-2.36,2.857-5.291,2.857-8.479C190.835,22.89,184.53,16.584,176.751,16.584z"/>
		<path class="st7" d="M90.768,22.581c-2.548-3.623-6.753-5.997-11.519-5.997c-7.778,0-14.084,6.305-14.084,14.084
			c0,3.188,1.072,6.118,2.857,8.479c2.7,1.829,5.873,3.007,9.295,3.335C80.303,34.873,84.928,28.091,90.768,22.581z"/>
		<g>
			<path class="st7" d="M181.039,244.984c-1.615-2.081-3.595-3.879-5.418-5.304c-1.868-1.46-2.884-3.587-2.902-5.755
				c-1.335,0.014-2.988,0.353-4.97,1.344c-5.396,2.698-9.999-4.976-20.181-1.057c-0.156,2.026-0.622,4.45-1.93,7.324
				c-0.841,1.849-1.631,4.647-1.653,7.104c0.285,2.68,2.639,4.859,5.638,4.859h26.778
				C181.022,253.499,183.777,248.511,181.039,244.984z"/>
		</g>
		<g>
			<path class="st7" d="M110.362,241.537c-1.301-2.858-1.768-5.269-1.926-7.289c-10.246-4.001-14.861,3.727-20.273,1.021
				c-1.937-0.969-3.563-1.316-4.882-1.345c-0.017,2.168-1.033,4.296-2.902,5.756c-1.823,1.425-3.803,3.223-5.418,5.304
				c-2.738,3.527,0.017,8.516,4.637,8.516h26.778c2.996,0,5.35-2.174,5.638-4.851C111.992,246.062,111.152,243.273,110.362,241.537z
				"/>
		</g>
		<path class="st7" d="M200.342,237.518c-0.484-0.006-0.888-0.238-1.158-0.575c-6.811,3.22-13.69,2.481-17.844-1.673
			c-3.311-3.311-6.612-3.156-8.508-2.653c-0.472,2.594,0.543,5.31,2.788,7.064c1.823,1.425,3.803,3.223,5.418,5.304
			c2.428,3.128,0.533,7.397-3.148,8.326l0.189,0.19h37.796C219.224,239.22,205.886,237.591,200.342,237.518z"/>
		<path class="st7" d="M80.379,239.68c2.181-1.704,3.208-4.316,2.832-6.842c-1.676-0.615-5.45-1.345-9.227,2.432
			c-4.058,4.058-10.718,4.854-17.374,1.887c-0.255,0.215-0.58,0.357-0.953,0.362c-5.544,0.074-18.882,1.702-15.533,15.982H77.92
			l0.189-0.19c-3.681-0.929-5.576-5.198-3.148-8.326C76.577,242.903,78.556,241.104,80.379,239.68z"/>
	</g>
</g>
<g id="Layer_11">
</g>
<g id="Layer_12">
</g>
<g id="Layer_13">
</g>
<g id="Layer_14">
</g>
<g id="Layer_15">
</g>
<g id="Layer_16">
</g>
<g id="Layer_17">
</g>
<g id="Layer_18">
</g>
<g id="Layer_19">
</g>
<g id="Layer_20">
</g>
<g id="Layer_21">
</g>
<g id="Layer_22">
</g>
<g id="Layer_23">
</g>
<g id="Layer_24">
</g>
<g id="Layer_25">
</g>
<g id="Layer_26">
</g>
<g id="Layer_27">
</g>
<g id="Layer_28">
</g>
<g id="Layer_29">
</g>
<g id="Layer_30">
</g>
<g id="Layer_31">
</g>
<g id="Layer_32">
</g>
<g id="Layer_33">
</g>
<g id="Layer_34">
</g>
<g id="Layer_35">
</g>
<g id="Layer_36">
</g>
<g id="Layer_37">
</g>
<g id="Layer_38">
</g>
<g id="Layer_39">
</g>
<g id="Layer_40">
</g>
<g id="Layer_41">
</g>
<g id="Layer_42">
</g>
<g id="Layer_43">
</g>
<g id="Layer_44">
</g>
<g id="Layer_45">
</g>
<g id="Layer_46">
</g>
<g id="Layer_47">
</g>
<g id="Layer_48">
</g>
<g id="Layer_49">
</g>
<g id="Layer_50">
</g>
<g id="Layer_51">
</g>
<g id="Layer_52">
</g>
<g id="Layer_53">
</g>
<g id="Layer_54">
</g>
<g id="Layer_55">
</g>
<g id="Layer_56">
</g>
<g id="Layer_57">
</g>
<g id="Layer_58">
</g>
<g id="Layer_59">
</g>
<g id="Layer_60">
</g>
<g id="Layer_61">
</g>
<g id="Layer_62">
</g>
<g id="Layer_63">
</g>
<g id="Layer_64">
</g>
<g id="Layer_65">
</g>
<g id="Layer_66">
</g>
<g id="Layer_67">
</g>
<g id="Layer_68">
</g>
<g id="Layer_69">
</g>
<g id="Layer_70">
</g>
<g id="Layer_71">
</g>
<g id="Layer_72">
</g>
<g id="Layer_73">
</g>
<g id="Layer_74">
</g>
<g id="Layer_75">
</g>
<g id="Layer_76">
</g>
<g id="Layer_77">
</g>
<g id="Layer_78">
</g>
<g id="Layer_79">
</g>
<g id="Layer_80">
</g>
<g id="Layer_81">
</g>
<g id="Layer_82">
</g>
<g id="Layer_83">
</g>
<g id="Layer_84">
</g>
<g id="Layer_85">
</g>
<g id="Layer_86">
</g>
<g id="Layer_87">
</g>
<g id="Layer_88">
</g>
<g id="Layer_89">
</g>
<g id="Layer_90">
</g>
<g id="Layer_91">
</g>
<g id="Layer_92">
</g>
<g id="Layer_93">
</g>
<g id="Layer_94">
</g>
<g id="Layer_95">
</g>
<g id="Layer_96">
</g>
<g id="Layer_97">
</g>
<g id="Layer_98">
</g>
<g id="Layer_99">
</g>
<g id="Layer_100">
</g>
</svg>
