<?xml version="1.0" encoding="utf-8"?>
<!-- Generator: Adobe Illustrator 22.0.0, SVG Export Plug-In . SVG Version: 6.00 Build 0)  -->
<svg version="1.1" xmlns="http://www.w3.org/2000/svg" xmlns:xlink="http://www.w3.org/1999/xlink" x="0px" y="0px"
	 viewBox="0 0 256 256" style="enable-background:new 0 0 256 256;" xml:space="preserve">
<style type="text/css">
	.st0{fill:#F9BD55;}
	.st1{fill:#F4DBCE;}
	.st2{fill:#52565B;}
	.st3{fill:#FD605B;}
	.st4{fill:#F98080;}
	.st5{fill:#F9E63A;}
	.st6{fill:#039BE6;}
	.st7{fill:none;stroke:#000000;stroke-width:5;stroke-linecap:round;stroke-linejoin:round;stroke-miterlimit:10;}
	.st8{fill:#7D3D1A;}
	.st9{fill:#EAA250;}
	.st10{fill:#DD7F57;}
	.st11{fill:#FFC097;}
	.st12{fill:#F49667;}
	.st13{fill:#F89422;}
	.st14{fill:#E3E4E5;}
	.st15{fill:#6E7175;}
	.st16{fill:#46BAF9;}
	.st17{fill:#D9F3FF;}
	.st18{fill:#828487;}
	.st19{fill:#A8AEB2;}
	.st20{fill:#C9CDD1;}
	.st21{fill:#8CD8F9;}
	.st22{fill:#1AA7E5;}
	.st23{fill:#ACE7FC;}
	.st24{fill:#FFFFFF;}
	.st25{fill:#9E512B;}
	.st26{fill:#7ED5FC;}
	.st27{fill:#7CCC4E;}
	.st28{fill:#3AA03A;}
	.st29{fill:#FCB1B1;}
	.st30{fill:#F76E23;}
	.st31{fill:#C16A44;}
	.st32{fill:#B796EA;}
</style>
<g id="Layer_1">
</g>
<g id="Layer_2">
</g>
<g id="Layer_3">
</g>
<g id="Layer_4">
	<g>
		<path class="st9" d="M197.143,237.782l12.439-29.471c15.293-42.919-2.454-51.994-20.671-51.817
			c1.828,22.015-1.075,48.161-15.846,74.176c-1.763,3.105-0.917,6.942,1.954,9.185c1.8,1.407,3.755,3.182,5.349,5.237
			c2.397,3.088,0.526,7.303-3.108,8.22l0.187,0.188h37.318C218.912,235.817,197.143,237.782,197.143,237.782z"/>
		<path class="st9" d="M75.631,245.092c1.595-2.055,3.549-3.83,5.349-5.237c2.871-2.243,3.717-6.08,1.954-9.185
			c-14.772-26.014-17.674-52.161-15.846-74.176c-18.216-0.177-35.963,8.898-20.671,51.817l12.439,29.471
			c0,0-21.769-1.965-17.622,15.718h37.318l0.187-0.188C75.105,252.395,73.234,248.18,75.631,245.092z"/>
		<path class="st9" d="M183.528,127.154c-2.171,5.029-4.807,10.003-8.028,14.655c-14.767,21.33-37.583,25.848-45.31,37.823
			c-0.478,0.741-1.308,1.177-2.19,1.177s-1.712-0.436-2.19-1.177c-7.727-11.974-30.543-16.493-45.31-37.823
			c-3.221-4.652-5.856-9.626-8.028-14.654c-7.164,25.218-11.681,64.518,10.462,103.515c1.763,3.105,0.917,6.942-1.954,9.185
			c-1.8,1.407-3.755,3.182-5.349,5.237c-2.703,3.483,0.016,8.408,4.579,8.408h26.44c3.054,0,5.451-2.284,5.606-5.044
			c0,0.004,0,0.008,0,0.011c4.898,1.758,10.196,2.743,15.744,2.743c5.548,0,10.846-0.984,15.744-2.743c0-0.004,0-0.007,0-0.011
			c0.155,2.76,2.552,5.044,5.606,5.044h26.44c4.562,0,7.282-4.925,4.579-8.408c-1.595-2.055-3.55-3.83-5.35-5.237
			c-2.871-2.243-3.717-6.08-1.954-9.185C195.21,191.67,190.693,152.37,183.528,127.154z"/>
		<path class="st7" d="M197.143,237.782l12.439-29.471c15.293-42.919-2.454-51.994-20.671-51.817
			c1.828,22.015-1.075,48.161-15.846,74.176c-1.763,3.105-0.917,6.942,1.954,9.185c1.8,1.407,3.755,3.182,5.349,5.237
			c2.397,3.088,0.526,7.303-3.108,8.22l0.187,0.188h37.318C218.912,235.817,197.143,237.782,197.143,237.782z"/>
		<path class="st7" d="M75.631,245.092c1.595-2.055,3.549-3.83,5.349-5.237c2.871-2.243,3.717-6.08,1.954-9.185
			c-14.772-26.014-17.674-52.161-15.846-74.176c-18.216-0.177-35.963,8.898-20.671,51.817l12.439,29.471
			c0,0-21.769-1.965-17.622,15.718h37.318l0.187-0.188C75.105,252.395,73.234,248.18,75.631,245.092z"/>
		<g>
			<path class="st7" d="M112.192,247.302c-0.321-1.873-0.822-3.889-1.607-5.613c-1.25-2.747-1.971-5.682-1.971-8.674v-39.121"/>
			<path class="st7" d="M147.386,193.893v39.121c0,2.992-0.721,5.927-1.971,8.674c-0.784,1.724-1.286,3.74-1.607,5.613"/>
		</g>
		<path class="st7" d="M183.528,127.154c-2.171,5.029-4.807,10.003-8.028,14.655c-14.767,21.33-37.583,25.848-45.31,37.823
			c-0.478,0.741-1.308,1.177-2.19,1.177s-1.712-0.436-2.19-1.177c-7.727-11.974-30.543-16.493-45.31-37.823
			c-3.221-4.652-5.856-9.626-8.028-14.654c-7.164,25.218-11.681,64.518,10.462,103.515c1.763,3.105,0.917,6.942-1.954,9.185
			c-1.8,1.407-3.755,3.182-5.349,5.237c-2.703,3.483,0.016,8.408,4.579,8.408h26.44c3.054,0,5.451-2.284,5.606-5.044
			c0,0.004,0,0.008,0,0.011c4.898,1.758,10.196,2.743,15.744,2.743c5.548,0,10.846-0.984,15.744-2.743c0-0.004,0-0.007,0-0.011
			c0.155,2.76,2.552,5.044,5.606,5.044h26.44c4.562,0,7.282-4.925,4.579-8.408c-1.595-2.055-3.55-3.83-5.35-5.237
			c-2.871-2.243-3.717-6.08-1.954-9.185C195.21,191.67,190.693,152.37,183.528,127.154z"/>
		<path class="st8" d="M215.811,62.647c1.795,12.487-2.493,16.644-8.181,28.048c-4.413,8.846,2.49,15.96,10.593,16.141
			c0.021-0.003,0.057-0.002,0.083-0.003c0.198-1.744,0.302-3.272,0.339-4.515c0.063-2.101,1.771-3.777,3.873-3.777
			c2.09,0,3.817,1.66,3.875,3.749c0.029,1.048,0.04,2.077,0.042,3.096c0.981-0.504,1.979-1.168,2.954-2.06
			C252.008,82.647,214.729,55.122,215.811,62.647z"/>
		<g>
			<path class="st9" d="M188.922,156.629c-0.004-0.045-0.006-0.09-0.01-0.134c6.029-0.059,11.999,0.909,16.745,3.769
				c11.182-10.492,21.556-28.267,20.736-57.973c-0.058-2.089-1.785-3.749-3.875-3.749c-2.102,0-3.811,1.675-3.873,3.777
				c-0.303,10.14-4.979,39.078-29.892,52.345C188.814,155.313,188.868,155.971,188.922,156.629z"/>
		</g>
		<g>
			<path class="st7" d="M188.922,156.629c-0.004-0.045-0.006-0.09-0.01-0.134c6.029-0.059,11.999,0.909,16.745,3.769
				c11.182-10.492,21.556-28.267,20.736-57.973c-0.058-2.089-1.785-3.749-3.875-3.749c-2.102,0-3.811,1.675-3.873,3.777
				c-0.303,10.14-4.979,39.078-29.892,52.345C188.814,155.313,188.868,155.971,188.922,156.629z"/>
		</g>
		<path class="st7" d="M215.811,62.647c1.795,12.487-2.493,16.644-8.181,28.048c-4.413,8.846,2.49,15.96,10.593,16.141
			c0.021-0.003,0.057-0.002,0.083-0.003c0.198-1.744,0.302-3.272,0.339-4.515c0.063-2.101,1.771-3.777,3.873-3.777
			c2.09,0,3.817,1.66,3.875,3.749c0.029,1.048,0.04,2.077,0.042,3.096c0.981-0.504,1.979-1.168,2.954-2.06
			C252.008,82.647,214.729,55.122,215.811,62.647z"/>
		<path class="st9" d="M176.71,47.233c6.583-1.347,11.536-7.172,11.536-14.153c0-7.978-6.468-14.446-14.446-14.446
			c-7.919,0-14.342,6.373-14.437,14.269C165.937,36.667,171.801,41.524,176.71,47.233z"/>
		<path class="st9" d="M79.29,47.233c-6.583-1.347-11.536-7.172-11.536-14.153c0-7.978,6.468-14.446,14.446-14.446
			c7.919,0,14.341,6.373,14.437,14.269C90.063,36.667,84.199,41.524,79.29,47.233z"/>
		<path class="st4" d="M175.259,45.584c2.48-1.82,4.097-4.747,4.097-8.059c0-5.524-4.478-10.001-10.001-10.001
			c-4.055,0-7.539,2.418-9.109,5.887C165.832,36.724,170.889,40.831,175.259,45.584z"/>
		<path class="st4" d="M80.741,45.584c-2.48-1.82-4.097-4.747-4.097-8.059c0-5.524,4.478-10.001,10.001-10.001
			c4.055,0,7.539,2.418,9.109,5.887C90.168,36.724,85.11,40.831,80.741,45.584z"/>
		<path class="st8" d="M186.093,40.648c-2.056,3.333-5.419,5.774-9.383,6.584c-1.223-1.422-2.505-2.79-3.842-4.102
			c-0.012-0.012-0.024-0.023-0.036-0.035c-0.649-0.636-1.312-1.258-1.986-1.867c-0.029-0.026-0.057-0.052-0.086-0.078
			c-2.765-2.487-5.741-4.743-8.899-6.741c-0.079-0.05-0.159-0.097-0.238-0.147c-0.745-0.467-1.497-0.922-2.261-1.36
			c0.096-7.896,6.519-14.269,14.437-14.269c0.216,0,0.426,0.023,0.64,0.032L175,18.309c-12.08-5.798-23.45-5.988-31.986-4.641
			c2.066-3.123,4.417-6.097,6.856-8.051c0,0-10.858-1.85-20.492,3.935c-12.486-9.362-28.072-6.703-28.072-6.703
			c3.141,2.518,6.166,6.401,8.796,10.439c-8.135-0.858-18.338-0.145-29.102,5.022l0.561,0.357c0.214-0.009,0.424-0.032,0.64-0.032
			c7.919,0,14.341,6.373,14.437,14.269c-0.764,0.438-1.517,0.893-2.261,1.36c-0.079,0.049-0.159,0.097-0.238,0.147
			c-3.158,1.998-6.135,4.254-8.9,6.742c-0.028,0.025-0.055,0.05-0.083,0.075c-0.676,0.61-1.339,1.233-1.99,1.87
			c-0.011,0.011-0.022,0.022-0.033,0.032c-1.338,1.313-2.62,2.682-3.843,4.104c-3.964-0.811-7.326-3.252-9.383-6.584
			C64.768,49.591,59.84,62.257,57.5,79.809h5c0,0,0,36,18,62c14.767,21.33,37.583,25.848,45.31,37.823
			c0.478,0.741,1.308,1.177,2.19,1.177s1.712-0.436,2.19-1.177c7.727-11.974,30.543-16.493,45.31-37.823c18-26,18-62,18-62h5
			C196.16,62.257,191.232,49.591,186.093,40.648z"/>
		<path class="st9" d="M175.448,74.083c-0.854-14.22-12.6-25.7-26.836-26.252c-8.022-0.311-15.325,2.76-20.612,7.894
			c-5.287-5.135-12.59-8.205-20.612-7.894c-14.235,0.552-25.982,12.031-26.836,26.252c-0.615,10.247,4.287,19.388,12.013,24.744
			c3.866,2.68,6.417,6.875,7.311,11.494l0.004,0.019c-3.693,5.307-3.081,12.519,1.516,17.115c3.588,3.588,8.895,4.841,13.709,3.236
			L128,126.393l12.896,4.299c4.814,1.605,10.121,0.352,13.709-3.236c4.597-4.597,5.208-11.808,1.516-17.115l0.004-0.019
			c0.894-4.619,3.445-8.814,7.311-11.494C171.161,93.471,176.063,84.33,175.448,74.083z"/>
		<path class="st8" d="M140.694,107.38c0,3.897-6.508,9.409-12.694,9.409s-12.694-5.512-12.694-9.409s6.508-4.198,12.694-4.198
			S140.694,103.483,140.694,107.38z"/>
		<path class="st9" d="M155.7,109.741L155.7,109.741c-3.794-5.149-10.521-7.084-16.416-4.865c0.881,0.601,1.411,1.406,1.411,2.504
			c0,3.897-6.508,9.409-12.694,9.409c-6.186,0-12.695-5.511-12.695-9.409c0-1.098,0.53-1.903,1.411-2.504
			c-5.895-2.219-12.622-0.284-16.416,4.865c-3.46,4.696-3.769,11.151-0.411,15.922c3.473,4.934,9.671,6.876,15.215,5.028
			L128,126.393l12.896,4.299c5.544,1.848,11.742-0.094,15.215-5.028C159.468,120.893,159.16,114.438,155.7,109.741z"/>
		<g>
			<path class="st9" d="M141.028,130.691l-12.896-4.299l-12.895,4.299c-2.367,0.789-4.851,0.881-7.194,0.351
				c3.491,7.537,11.117,12.767,19.969,12.767c8.831,0,16.443-5.206,19.945-12.714C145.692,131.56,143.306,131.45,141.028,130.691z"
				/>
		</g>
		<path class="st7" d="M140.694,107.38c0,3.897-6.508,9.409-12.694,9.409s-12.694-5.512-12.694-9.409s6.508-4.198,12.694-4.198
			S140.694,103.483,140.694,107.38z"/>
		<path class="st7" d="M175.448,74.083c-0.854-14.22-12.6-25.7-26.836-26.252c-8.022-0.311-15.325,2.76-20.612,7.894
			c-5.287-5.135-12.59-8.205-20.612-7.894c-14.235,0.552-25.982,12.031-26.836,26.252c-0.615,10.247,4.287,19.388,12.013,24.744
			c3.866,2.68,6.417,6.875,7.311,11.494l0.004,0.019c-3.693,5.307-3.081,12.519,1.516,17.115c3.588,3.588,8.895,4.841,13.709,3.236
			L128,126.393l12.896,4.299c4.814,1.605,10.121,0.352,13.709-3.236c4.597-4.597,5.208-11.808,1.516-17.115l0.004-0.019
			c0.894-4.619,3.445-8.814,7.311-11.494C171.161,93.471,176.063,84.33,175.448,74.083z"/>
		<path class="st7" d="M155.7,109.741L155.7,109.741c-3.794-5.149-10.521-7.084-16.416-4.865c0.881,0.601,1.411,1.406,1.411,2.504
			c0,3.897-6.508,9.409-12.694,9.409c-6.186,0-12.695-5.511-12.695-9.409c0-1.098,0.53-1.903,1.411-2.504
			c-5.895-2.219-12.622-0.284-16.416,4.865c-3.46,4.696-3.769,11.151-0.411,15.922c3.473,4.934,9.671,6.876,15.215,5.028
			L128,126.393l12.896,4.299c5.544,1.848,11.742-0.094,15.215-5.028C159.468,120.893,159.16,114.438,155.7,109.741z"/>
		<line class="st7" x1="128" y1="126.309" x2="128" y2="118.309"/>
		<g>
			<path class="st7" d="M141.028,130.691l-12.896-4.299l-12.895,4.299c-2.367,0.789-4.851,0.881-7.194,0.351
				c3.491,7.537,11.117,12.767,19.969,12.767c8.831,0,16.443-5.206,19.945-12.714C145.692,131.56,143.306,131.45,141.028,130.691z"
				/>
		</g>
		<path class="st7" d="M118.944,76.658c0,0,7,13.152,0,26.303"/>
		<path class="st7" d="M137.056,76.658c0,0-7,13.152,0,26.303"/>
		<path class="st7" d="M99.166,79.433c-0.01-2.979,2.398-5.402,5.377-5.411c2.979-0.01,5.402,2.398,5.411,5.377"/>
		<path class="st7" d="M146.046,79.433c-0.01-2.979,2.398-5.402,5.377-5.411c2.979-0.01,5.402,2.398,5.411,5.377"/>
		<path class="st7" d="M186.093,40.648c-2.056,3.333-5.419,5.774-9.383,6.584c-1.223-1.422-2.505-2.79-3.842-4.102
			c-0.012-0.012-0.024-0.023-0.036-0.035c-0.649-0.636-1.312-1.258-1.986-1.867c-0.029-0.026-0.057-0.052-0.086-0.078
			c-2.765-2.487-5.741-4.743-8.899-6.741c-0.079-0.05-0.159-0.097-0.238-0.147c-0.745-0.467-1.497-0.922-2.261-1.36
			c0.096-7.896,6.519-14.269,14.437-14.269c0.216,0,0.426,0.023,0.64,0.032L175,18.309c-12.08-5.798-23.45-5.988-31.986-4.641
			c2.066-3.123,4.417-6.097,6.856-8.051c0,0-10.858-1.85-20.492,3.935c-12.486-9.362-28.072-6.703-28.072-6.703
			c3.141,2.518,6.166,6.401,8.796,10.439c-8.135-0.858-18.338-0.145-29.102,5.022l0.561,0.357c0.214-0.009,0.424-0.032,0.64-0.032
			c7.919,0,14.341,6.373,14.437,14.269c-0.764,0.438-1.517,0.893-2.261,1.36c-0.079,0.049-0.159,0.097-0.238,0.147
			c-3.158,1.998-6.135,4.254-8.9,6.742c-0.028,0.025-0.055,0.05-0.083,0.075c-0.676,0.61-1.339,1.233-1.99,1.87
			c-0.011,0.011-0.022,0.022-0.033,0.032c-1.338,1.313-2.62,2.682-3.843,4.104c-3.964-0.811-7.326-3.252-9.383-6.584
			C64.768,49.591,59.84,62.257,57.5,79.809h5c0,0,0,36,18,62c14.767,21.33,37.583,25.848,45.31,37.823
			c0.478,0.741,1.308,1.177,2.19,1.177s1.712-0.436,2.19-1.177c7.727-11.974,30.543-16.493,45.31-37.823c18-26,18-62,18-62h5
			C196.16,62.257,191.232,49.591,186.093,40.648z"/>
		<path class="st7" d="M176.71,47.233c6.583-1.347,11.536-7.172,11.536-14.153c0-7.978-6.468-14.446-14.446-14.446
			c-7.919,0-14.342,6.373-14.437,14.269C165.937,36.667,171.801,41.524,176.71,47.233z"/>
		<path class="st7" d="M79.29,47.233c-6.583-1.347-11.536-7.172-11.536-14.153c0-7.978,6.468-14.446,14.446-14.446
			c7.919,0,14.341,6.373,14.437,14.269C90.063,36.667,84.199,41.524,79.29,47.233z"/>
		<path class="st7" d="M175.259,45.584c2.48-1.82,4.097-4.747,4.097-8.059c0-5.524-4.478-10.001-10.001-10.001
			c-4.055,0-7.539,2.418-9.109,5.887C165.832,36.724,170.889,40.831,175.259,45.584z"/>
		<path class="st7" d="M80.741,45.584c-2.48-1.82-4.097-4.747-4.097-8.059c0-5.524,4.478-10.001,10.001-10.001
			c4.055,0,7.539,2.418,9.109,5.887C90.168,36.724,85.11,40.831,80.741,45.584z"/>
	</g>
</g>
<g id="Layer_5">
</g>
<g id="Layer_6">
</g>
<g id="Layer_7">
</g>
<g id="Layer_8">
</g>
<g id="Layer_9">
</g>
<g id="Layer_10">
</g>
<g id="Layer_11">
</g>
<g id="Layer_12">
</g>
<g id="Layer_13">
</g>
<g id="Layer_14">
</g>
<g id="Layer_15">
</g>
<g id="Layer_16">
</g>
<g id="Layer_17">
</g>
<g id="Layer_18">
</g>
<g id="Layer_19">
</g>
<g id="Layer_20">
</g>
<g id="Layer_21">
</g>
<g id="Layer_22">
</g>
<g id="Layer_23">
</g>
<g id="Layer_24">
</g>
<g id="Layer_25">
</g>
<g id="Layer_26">
</g>
<g id="Layer_27">
</g>
<g id="Layer_28">
</g>
<g id="Layer_29">
</g>
<g id="Layer_30">
</g>
<g id="Layer_31">
</g>
<g id="Layer_32">
</g>
<g id="Layer_33">
</g>
<g id="Layer_34">
</g>
<g id="Layer_35">
</g>
<g id="Layer_36">
</g>
<g id="Layer_37">
</g>
<g id="Layer_38">
</g>
<g id="Layer_39">
</g>
<g id="Layer_40">
</g>
<g id="Layer_41">
</g>
<g id="Layer_42">
</g>
<g id="Layer_43">
</g>
<g id="Layer_44">
</g>
<g id="Layer_45">
</g>
<g id="Layer_46">
</g>
<g id="Layer_47">
</g>
<g id="Layer_48">
</g>
<g id="Layer_49">
</g>
<g id="Layer_50">
</g>
<g id="Layer_51">
</g>
<g id="Layer_52">
</g>
<g id="Layer_53">
</g>
<g id="Layer_54">
</g>
<g id="Layer_55">
</g>
<g id="Layer_56">
</g>
<g id="Layer_57">
</g>
<g id="Layer_58">
</g>
<g id="Layer_59">
</g>
<g id="Layer_60">
</g>
<g id="Layer_61">
</g>
<g id="Layer_62">
</g>
<g id="Layer_63">
</g>
<g id="Layer_64">
</g>
<g id="Layer_65">
</g>
<g id="Layer_66">
</g>
<g id="Layer_67">
</g>
<g id="Layer_68">
</g>
<g id="Layer_69">
</g>
<g id="Layer_70">
</g>
<g id="Layer_71">
</g>
<g id="Layer_72">
</g>
<g id="Layer_73">
</g>
<g id="Layer_74">
</g>
<g id="Layer_75">
</g>
<g id="Layer_76">
</g>
<g id="Layer_77">
</g>
<g id="Layer_78">
</g>
<g id="Layer_79">
</g>
<g id="Layer_80">
</g>
<g id="Layer_81">
</g>
<g id="Layer_82">
</g>
<g id="Layer_83">
</g>
<g id="Layer_84">
</g>
<g id="Layer_85">
</g>
<g id="Layer_86">
</g>
<g id="Layer_87">
</g>
<g id="Layer_88">
</g>
<g id="Layer_89">
</g>
<g id="Layer_90">
</g>
<g id="Layer_91">
</g>
<g id="Layer_92">
</g>
<g id="Layer_93">
</g>
<g id="Layer_94">
</g>
<g id="Layer_95">
</g>
<g id="Layer_96">
</g>
<g id="Layer_97">
</g>
<g id="Layer_98">
</g>
<g id="Layer_99">
</g>
<g id="Layer_100">
</g>
</svg>
