<?xml version="1.0" encoding="utf-8"?>
<!-- Generator: Adobe Illustrator 22.0.0, SVG Export Plug-In . SVG Version: 6.00 Build 0)  -->
<svg version="1.1" xmlns="http://www.w3.org/2000/svg" xmlns:xlink="http://www.w3.org/1999/xlink" x="0px" y="0px"
	 viewBox="0 0 256 256" style="enable-background:new 0 0 256 256;" xml:space="preserve">
<style type="text/css">
	.st0{fill:#F9BD55;}
	.st1{fill:#F4DBCE;}
	.st2{fill:#52565B;}
	.st3{fill:#FD605B;}
	.st4{fill:#F98080;}
	.st5{fill:#F9E63A;}
	.st6{fill:#039BE6;}
	.st7{fill:none;stroke:#000000;stroke-width:5;stroke-linecap:round;stroke-linejoin:round;stroke-miterlimit:10;}
	.st8{fill:#7D3D1A;}
	.st9{fill:#EAA250;}
	.st10{fill:#DD7F57;}
	.st11{fill:#FFC097;}
	.st12{fill:#F49667;}
	.st13{fill:#F89422;}
	.st14{fill:#E3E4E5;}
	.st15{fill:#6E7175;}
	.st16{fill:#46BAF9;}
	.st17{fill:#D9F3FF;}
	.st18{fill:#828487;}
	.st19{fill:#A8AEB2;}
	.st20{fill:#C9CDD1;}
	.st21{fill:#8CD8F9;}
	.st22{fill:#1AA7E5;}
	.st23{fill:#ACE7FC;}
	.st24{fill:#FFFFFF;}
	.st25{fill:#9E512B;}
	.st26{fill:#7ED5FC;}
	.st27{fill:#7CCC4E;}
	.st28{fill:#3AA03A;}
	.st29{fill:#FCB1B1;}
	.st30{fill:#F76E23;}
	.st31{fill:#C16A44;}
	.st32{fill:#B796EA;}
</style>
<g id="Layer_1">
</g>
<g id="Layer_2">
</g>
<g id="Layer_3">
</g>
<g id="Layer_4">
</g>
<g id="Layer_5">
</g>
<g id="Layer_6">
</g>
<g id="Layer_7">
</g>
<g id="Layer_8">
</g>
<g id="Layer_9">
</g>
<g id="Layer_10">
</g>
<g id="Layer_11">
</g>
<g id="Layer_12">
</g>
<g id="Layer_13">
</g>
<g id="Layer_14">
</g>
<g id="Layer_15">
</g>
<g id="Layer_16">
</g>
<g id="Layer_17">
</g>
<g id="Layer_18">
</g>
<g id="Layer_19">
</g>
<g id="Layer_20">
</g>
<g id="Layer_21">
</g>
<g id="Layer_22">
</g>
<g id="Layer_23">
</g>
<g id="Layer_24">
</g>
<g id="Layer_25">
</g>
<g id="Layer_26">
</g>
<g id="Layer_27">
</g>
<g id="Layer_28">
</g>
<g id="Layer_29">
</g>
<g id="Layer_30">
</g>
<g id="Layer_31">
</g>
<g id="Layer_32">
</g>
<g id="Layer_33">
</g>
<g id="Layer_34">
</g>
<g id="Layer_35">
</g>
<g id="Layer_36">
</g>
<g id="Layer_37">
</g>
<g id="Layer_38">
</g>
<g id="Layer_39">
</g>
<g id="Layer_40">
</g>
<g id="Layer_41">
</g>
<g id="Layer_42">
</g>
<g id="Layer_43">
</g>
<g id="Layer_44">
</g>
<g id="Layer_45">
</g>
<g id="Layer_46">
</g>
<g id="Layer_47">
</g>
<g id="Layer_48">
</g>
<g id="Layer_49">
</g>
<g id="Layer_50">
</g>
<g id="Layer_51">
</g>
<g id="Layer_52">
</g>
<g id="Layer_53">
</g>
<g id="Layer_54">
</g>
<g id="Layer_55">
</g>
<g id="Layer_56">
</g>
<g id="Layer_57">
</g>
<g id="Layer_58">
</g>
<g id="Layer_59">
</g>
<g id="Layer_60">
</g>
<g id="Layer_61">
</g>
<g id="Layer_62">
</g>
<g id="Layer_63">
</g>
<g id="Layer_64">
</g>
<g id="Layer_65">
</g>
<g id="Layer_66">
</g>
<g id="Layer_67">
</g>
<g id="Layer_68">
</g>
<g id="Layer_69">
</g>
<g id="Layer_70">
</g>
<g id="Layer_71">
</g>
<g id="Layer_72">
	<g>
		<g>
			<path class="st3" d="M117.925,219.796c1.453,5.228,3.55,10.111,6.566,13.908c2.056,2.589,4.963,2.589,7.019,0
				c3.015-3.797,5.113-8.68,6.566-13.908C131.442,222.198,124.558,222.198,117.925,219.796z"/>
		</g>
		<path class="st3" d="M114.842,207.607c-0.018,2.72,0.047,5.102,0.129,6.959c0.111,2.508,1.234,4.6,2.765,5.165h0
			c6.754,2.493,13.775,2.493,20.529,0h0c1.531-0.565,2.654-2.657,2.765-5.165c0.082-1.857,0.146-4.239,0.129-6.959
			C132.489,210.661,123.511,210.661,114.842,207.607z"/>
		<path class="st3" d="M145.475,195.154L145.475,195.154c-11.499,4.245-23.451,4.245-34.95,0h0
			c-0.049-0.018-0.095-0.043-0.143-0.063c0.03,2.024,0.088,3.843,0.156,5.387c0.148,3.361,1.654,6.165,3.706,6.922h0
			c9.052,3.342,18.461,3.342,27.514,0h0c2.052-0.757,3.557-3.562,3.706-6.922c0.068-1.543,0.126-3.363,0.156-5.387
			C145.57,195.111,145.524,195.136,145.475,195.154z"/>
		<path class="st3" d="M149.188,182.973c-13.942,5.147-28.434,5.147-42.376,0c-0.392-0.145-0.77-0.338-1.133-0.575
			c0.038,1.432,0.086,2.767,0.138,3.962c0.189,4.269,2.101,7.831,4.707,8.793h0c11.499,4.245,23.451,4.245,34.95,0h0
			c2.607-0.962,4.519-4.524,4.707-8.793c0.053-1.195,0.1-2.53,0.138-3.962C149.958,182.635,149.579,182.828,149.188,182.973z"/>
		<g>
			<path class="st3" d="M153.763,171.747L153.763,171.747c-16.952,3.912-34.573,3.912-51.526,0h0
				c-0.403-0.093-0.791-0.218-1.17-0.361c0.013,0.308,0.024,0.63,0.037,0.926c0.229,5.177,2.547,9.495,5.708,10.662
				c13.942,5.147,28.434,5.147,42.376,0c3.161-1.167,5.479-5.485,5.708-10.662c0.013-0.295,0.025-0.618,0.037-0.926
				C154.554,171.529,154.166,171.654,153.763,171.747z"/>
		</g>
		<path class="st4" d="M149.494,235.427c-6.917-2.882-11.621-6.125-14.133-8.105c-1.079,2.335-2.352,4.493-3.852,6.382
			c-2.056,2.589-4.963,2.589-7.019,0c-1.5-1.889-2.772-4.047-3.852-6.382c-2.511,1.979-7.216,5.223-14.133,8.105
			c-10.164,4.235,1.075,11.641,7.009,10.347c0.526-0.114,1.01,0.299,0.995,0.837c-0.036,1.296,0.229,3.383,1.952,5.107
			c2.197,2.196,8.541,2.616,10.883-0.18c0.352-0.42,0.961-0.42,1.312,0c2.342,2.796,8.686,2.376,10.883,0.18
			c1.723-1.724,1.988-3.811,1.952-5.107c-0.015-0.538,0.469-0.951,0.995-0.837C148.419,247.067,159.657,239.661,149.494,235.427z"/>
		<circle class="st0" cx="147.061" cy="97.633" r="11.704"/>
		<circle class="st0" cx="108.939" cy="97.633" r="11.704"/>
		<path class="st3" d="M151.267,108.532c-1.317,0.513-2.744,0.805-4.242,0.805c-6.464,0-11.704-5.24-11.704-11.704
			c0-2.361,0.705-4.555,1.908-6.394c-0.143-0.115-0.276-0.238-0.421-0.351c-5.16-4.061-12.457-4.061-17.616,0
			c-0.161,0.127-0.309,0.263-0.468,0.391c1.187,1.831,1.884,4.01,1.884,6.354c0,6.464-5.24,11.704-11.704,11.704
			c-1.475,0-2.881-0.285-4.181-0.783c-10.362,19.589-10.233,43.646-9.425,55.089c0.278,3.934,3.097,7.217,6.94,8.103h0
			c16.952,3.912,34.573,3.912,51.526,0h0c3.843-0.887,6.662-4.169,6.94-8.103C161.511,152.196,161.64,128.125,151.267,108.532z"/>
		<path class="st4" d="M75.356,37.288c-16.739-9.945-18.552-23.576-17.82-31.771c0.222-2.483-2.697-3.974-4.559-2.316
			C40.132,14.636,33.712,29.482,34.274,45.849c0.54,15.7,14.335,34.98,30.259,33.692C81.599,78.16,100.861,52.441,75.356,37.288z"/>
		<g>
			<path class="st3" d="M75.356,37.288c7.173,4.261,10.805,9.358,11.941,14.515c3.336-10.275,3.016-21.306-1.145-32.316
				c-0.785-2.078-3.704-2.107-4.555-0.056c-1.792,4.321-5.332,9.953-12.151,13.713C71.173,34.576,73.129,35.965,75.356,37.288z"/>
		</g>
		<path class="st3" d="M64.533,79.541c-1.973,0.159-3.913,0.002-5.8-0.424c0.031,4.85,3.742,8.975,8.672,9.419
			c5.242,0.473,9.875-3.393,10.348-8.635c0.169-1.869-0.223-3.657-1.023-5.211C72.988,77.417,68.696,79.204,64.533,79.541z"/>
		<path class="st4" d="M180.644,37.288c16.739-9.945,18.552-23.576,17.82-31.771c-0.222-2.483,2.697-3.974,4.559-2.316
			c12.844,11.435,19.265,26.282,18.702,42.649c-0.54,15.7-14.335,34.98-30.259,33.692C174.401,78.16,155.139,52.441,180.644,37.288z
			"/>
		<g>
			<path class="st3" d="M180.644,37.288c-7.173,4.261-10.805,9.358-11.941,14.515c-3.336-10.275-3.016-21.306,1.145-32.316
				c0.785-2.078,3.704-2.107,4.555-0.056c1.792,4.321,5.332,9.953,12.151,13.713C184.827,34.576,182.871,35.965,180.644,37.288z"/>
		</g>
		<path class="st3" d="M191.467,79.541c1.973,0.159,3.913,0.002,5.8-0.424c-0.031,4.85-3.742,8.975-8.672,9.419
			c-5.242,0.473-9.875-3.393-10.348-8.635c-0.169-1.869,0.223-3.657,1.023-5.211C183.012,77.417,187.304,79.204,191.467,79.541z"/>
		<path class="st4" d="M188.594,88.536c-3.809,0.344-7.287-1.609-9.091-4.71c-4.293,9.456-12.23,20.931-26.628,27.971
			c1.711,3.705,3.081,7.529,4.172,11.368c18.591-8.649,28.509-23.278,33.721-35.093C190.077,88.303,189.353,88.468,188.594,88.536z"
			/>
		<path class="st4" d="M103.125,111.798c-14.398-7.04-22.335-18.516-26.629-27.971c-1.804,3.101-5.282,5.054-9.091,4.71
			c-0.758-0.068-1.483-0.233-2.174-0.464c5.211,11.815,15.129,26.445,33.721,35.094
			C100.044,119.327,101.414,115.502,103.125,111.798z"/>
		<g>
			<path class="st7" d="M117.925,219.796c1.453,5.228,3.55,10.111,6.566,13.908c2.056,2.589,4.963,2.589,7.019,0
				c3.015-3.797,5.113-8.68,6.566-13.908C131.442,222.198,124.558,222.198,117.925,219.796z"/>
		</g>
		<path class="st7" d="M114.842,207.607c-0.018,2.72,0.047,5.102,0.129,6.959c0.111,2.508,1.234,4.6,2.765,5.165h0
			c6.754,2.493,13.775,2.493,20.529,0h0c1.531-0.565,2.654-2.657,2.765-5.165c0.082-1.857,0.146-4.239,0.129-6.959
			C132.489,210.661,123.511,210.661,114.842,207.607z"/>
		<path class="st7" d="M145.475,195.154L145.475,195.154c-11.499,4.245-23.451,4.245-34.95,0h0
			c-0.049-0.018-0.095-0.043-0.143-0.063c0.03,2.024,0.088,3.843,0.156,5.387c0.148,3.361,1.654,6.165,3.706,6.922h0
			c9.052,3.342,18.461,3.342,27.514,0h0c2.052-0.757,3.557-3.562,3.706-6.922c0.068-1.543,0.126-3.363,0.156-5.387
			C145.57,195.111,145.524,195.136,145.475,195.154z"/>
		<path class="st7" d="M149.188,182.973c-13.942,5.147-28.434,5.147-42.376,0c-0.392-0.145-0.77-0.338-1.133-0.575
			c0.038,1.432,0.086,2.767,0.138,3.962c0.189,4.269,2.101,7.831,4.707,8.793h0c11.499,4.245,23.451,4.245,34.95,0h0
			c2.607-0.962,4.519-4.524,4.707-8.793c0.053-1.195,0.1-2.53,0.138-3.962C149.958,182.635,149.579,182.828,149.188,182.973z"/>
		<g>
			<path class="st7" d="M153.763,171.747L153.763,171.747c-16.952,3.912-34.573,3.912-51.526,0h0
				c-0.403-0.093-0.791-0.218-1.17-0.361c0.013,0.308,0.024,0.63,0.037,0.926c0.229,5.177,2.547,9.495,5.708,10.662
				c13.942,5.147,28.434,5.147,42.376,0c3.161-1.167,5.479-5.485,5.708-10.662c0.013-0.295,0.025-0.618,0.037-0.926
				C154.554,171.529,154.166,171.654,153.763,171.747z"/>
		</g>
		<path class="st7" d="M149.494,235.427c-6.917-2.882-11.621-6.125-14.133-8.105c-1.079,2.335-2.352,4.493-3.852,6.382
			c-2.056,2.589-4.963,2.589-7.019,0c-1.5-1.889-2.772-4.047-3.852-6.382c-2.511,1.979-7.216,5.223-14.133,8.105
			c-10.164,4.235,1.075,11.641,7.009,10.347c0.526-0.114,1.01,0.299,0.995,0.837c-0.036,1.296,0.229,3.383,1.952,5.107
			c2.197,2.196,8.541,2.616,10.883-0.18c0.352-0.42,0.961-0.42,1.312,0c2.342,2.796,8.686,2.376,10.883,0.18
			c1.723-1.724,1.988-3.811,1.952-5.107c-0.015-0.538,0.469-0.951,0.995-0.837C148.419,247.067,159.657,239.661,149.494,235.427z"/>
		<g>
			<line class="st7" x1="128" y1="236.074" x2="128" y2="242.093"/>
			<line class="st7" x1="132.974" y1="232.99" x2="136.067" y2="238.154"/>
			<line class="st7" x1="123.026" y1="232.99" x2="119.933" y2="238.154"/>
		</g>
		<path class="st7" d="M142.779,97.781c-0.008-2.365,1.903-4.288,4.268-4.295s4.288,1.903,4.295,4.268"/>
		<circle class="st7" cx="147.061" cy="97.633" r="11.704"/>
		<path class="st7" d="M104.658,97.781c-0.008-2.365,1.903-4.288,4.268-4.295c2.365-0.008,4.288,1.903,4.295,4.268"/>
		<circle class="st7" cx="108.939" cy="97.633" r="11.704"/>
		<path class="st7" d="M151.267,108.532c-1.317,0.513-2.744,0.805-4.242,0.805c-6.464,0-11.704-5.24-11.704-11.704
			c0-2.361,0.705-4.555,1.908-6.394c-0.143-0.115-0.276-0.238-0.421-0.351c-5.16-4.061-12.457-4.061-17.616,0
			c-0.161,0.127-0.309,0.263-0.468,0.391c1.187,1.831,1.884,4.01,1.884,6.354c0,6.464-5.24,11.704-11.704,11.704
			c-1.475,0-2.881-0.285-4.181-0.783c-10.362,19.589-10.233,43.646-9.425,55.089c0.278,3.934,3.097,7.217,6.94,8.103h0
			c16.952,3.912,34.573,3.912,51.526,0h0c3.843-0.887,6.662-4.169,6.94-8.103C161.511,152.196,161.64,128.125,151.267,108.532z"/>
		<path class="st7" d="M75.356,37.288c-16.739-9.945-18.552-23.576-17.82-31.771c0.222-2.483-2.697-3.974-4.559-2.316
			C40.132,14.636,33.712,29.482,34.274,45.849c0.54,15.7,14.335,34.98,30.259,33.692C81.599,78.16,100.861,52.441,75.356,37.288z"/>
		<g>
			<path class="st7" d="M75.356,37.288c7.173,4.261,10.805,9.358,11.941,14.515c3.336-10.275,3.016-21.306-1.145-32.316
				c-0.785-2.078-3.704-2.107-4.555-0.056c-1.792,4.321-5.332,9.953-12.151,13.713C71.173,34.576,73.129,35.965,75.356,37.288z"/>
		</g>
		<path class="st7" d="M64.533,79.541c-1.973,0.159-3.913,0.002-5.8-0.424c0.031,4.85,3.742,8.975,8.672,9.419
			c5.242,0.473,9.875-3.393,10.348-8.635c0.169-1.869-0.223-3.657-1.023-5.211C72.988,77.417,68.696,79.204,64.533,79.541z"/>
		<path class="st7" d="M180.644,37.288c16.739-9.945,18.552-23.576,17.82-31.771c-0.222-2.483,2.697-3.974,4.559-2.316
			c12.844,11.435,19.265,26.282,18.702,42.649c-0.54,15.7-14.335,34.98-30.259,33.692C174.401,78.16,155.139,52.441,180.644,37.288z
			"/>
		<g>
			<path class="st7" d="M180.644,37.288c-7.173,4.261-10.805,9.358-11.941,14.515c-3.336-10.275-3.016-21.306,1.145-32.316
				c0.785-2.078,3.704-2.107,4.555-0.056c1.792,4.321,5.332,9.953,12.151,13.713C184.827,34.576,182.871,35.965,180.644,37.288z"/>
		</g>
		<path class="st7" d="M191.467,79.541c1.973,0.159,3.913,0.002,5.8-0.424c-0.031,4.85-3.742,8.975-8.672,9.419
			c-5.242,0.473-9.875-3.393-10.348-8.635c-0.169-1.869,0.223-3.657,1.023-5.211C183.012,77.417,187.304,79.204,191.467,79.541z"/>
		<path class="st7" d="M188.594,88.536c-3.809,0.344-7.287-1.609-9.091-4.71c-4.293,9.456-12.23,20.931-26.628,27.971
			c1.711,3.705,3.081,7.529,4.172,11.368c18.591-8.649,28.509-23.278,33.721-35.093C190.077,88.303,189.353,88.468,188.594,88.536z"
			/>
		<path class="st7" d="M103.125,111.798c-14.398-7.04-22.335-18.516-26.629-27.971c-1.804,3.101-5.282,5.054-9.091,4.71
			c-0.758-0.068-1.483-0.233-2.174-0.464c5.211,11.815,15.129,26.445,33.721,35.094
			C100.044,119.327,101.414,115.502,103.125,111.798z"/>
		<g>
			<path class="st7" d="M133.572,88.976l4.057-28.891c0.832-5.926,6.443-9.957,12.325-8.854l0,0
				c4.963,0.931,8.559,5.264,8.559,10.313"/>
			<path class="st7" d="M123.305,88.639l-4.01-28.554c-0.832-5.926-6.443-9.957-12.325-8.854l0,0
				c-4.963,0.931-8.559,5.264-8.559,10.313"/>
		</g>
		<polyline class="st7" points="159.478,134.165 174.895,127.227 189.943,127.227 200.978,120.205 		"/>
		<polyline class="st7" points="160.799,146.45 175.661,147.055 189.121,153.783 202.131,152.435 		"/>
		<polyline class="st7" points="160.912,160.36 170.251,164.521 179.26,174.614 190.578,177.811 		"/>
		<polyline class="st7" points="96.522,134.165 81.105,127.227 66.057,127.227 55.022,120.205 		"/>
		<polyline class="st7" points="95.216,146.449 80.339,147.055 66.879,153.783 53.869,152.435 		"/>
		<polyline class="st7" points="94.967,160.414 85.749,164.521 76.74,174.614 65.422,177.811 		"/>
	</g>
</g>
<g id="Layer_73">
</g>
<g id="Layer_74">
</g>
<g id="Layer_75">
</g>
<g id="Layer_76">
</g>
<g id="Layer_77">
</g>
<g id="Layer_78">
</g>
<g id="Layer_79">
</g>
<g id="Layer_80">
</g>
<g id="Layer_81">
</g>
<g id="Layer_82">
</g>
<g id="Layer_83">
</g>
<g id="Layer_84">
</g>
<g id="Layer_85">
</g>
<g id="Layer_86">
</g>
<g id="Layer_87">
</g>
<g id="Layer_88">
</g>
<g id="Layer_89">
</g>
<g id="Layer_90">
</g>
<g id="Layer_91">
</g>
<g id="Layer_92">
</g>
<g id="Layer_93">
</g>
<g id="Layer_94">
</g>
<g id="Layer_95">
</g>
<g id="Layer_96">
</g>
<g id="Layer_97">
</g>
<g id="Layer_98">
</g>
<g id="Layer_99">
</g>
<g id="Layer_100">
</g>
</svg>
