<?xml version="1.0" encoding="utf-8"?>
<!-- Generator: Adobe Illustrator 22.0.0, SVG Export Plug-In . SVG Version: 6.00 Build 0)  -->
<svg version="1.1" xmlns="http://www.w3.org/2000/svg" xmlns:xlink="http://www.w3.org/1999/xlink" x="0px" y="0px"
	 viewBox="0 0 256 256" style="enable-background:new 0 0 256 256;" xml:space="preserve">
<style type="text/css">
	.st0{fill:#F9BD55;}
	.st1{fill:#F4DBCE;}
	.st2{fill:#52565B;}
	.st3{fill:#FD605B;}
	.st4{fill:#F98080;}
	.st5{fill:#F9E63A;}
	.st6{fill:#039BE6;}
	.st7{fill:none;stroke:#000000;stroke-width:5;stroke-linecap:round;stroke-linejoin:round;stroke-miterlimit:10;}
	.st8{fill:#7D3D1A;}
	.st9{fill:#EAA250;}
	.st10{fill:#DD7F57;}
	.st11{fill:#FFC097;}
	.st12{fill:#F49667;}
	.st13{fill:#F89422;}
	.st14{fill:#E3E4E5;}
	.st15{fill:#6E7175;}
	.st16{fill:#46BAF9;}
	.st17{fill:#D9F3FF;}
	.st18{fill:#828487;}
	.st19{fill:#A8AEB2;}
	.st20{fill:#C9CDD1;}
	.st21{fill:#8CD8F9;}
	.st22{fill:#1AA7E5;}
	.st23{fill:#ACE7FC;}
	.st24{fill:#FFFFFF;}
	.st25{fill:#9E512B;}
	.st26{fill:#7ED5FC;}
	.st27{fill:#7CCC4E;}
	.st28{fill:#3AA03A;}
	.st29{fill:#FCB1B1;}
	.st30{fill:#F76E23;}
	.st31{fill:#C16A44;}
	.st32{fill:#B796EA;}
</style>
<g id="Layer_1">
</g>
<g id="Layer_2">
</g>
<g id="Layer_3">
</g>
<g id="Layer_4">
</g>
<g id="Layer_5">
	<g>
		<path class="st8" d="M172.418,231.049c0,0,19.344-24.388,7.988-77.042c-2.019-9.36-5.532-18.314-10.307-26.581
			c-7.517,9.455-23.542,15.986-42.099,15.986s-34.582-6.53-42.099-15.986c-4.775,8.267-8.288,17.221-10.307,26.581
			c-11.357,52.654,7.987,77.042,7.987,77.042s-22.064,10.98-17.419,18.666c4.645,7.686,28.451,1.647,35.418-0.549
			c6.968-2.196,12.193,8.235,19.161,1.647v0c4.612-2.093,9.904-2.093,14.516,0v0c6.968,6.588,12.193-3.843,19.161-1.647
			c6.968,2.196,30.773,8.235,35.418,0.549C194.482,242.029,172.418,231.049,172.418,231.049z"/>
		<path class="st11" d="M66.163,249.715c-3.399-5.624,7.495-13.006,13.589-16.565c-2.214-2.67-4.829-4.202-4.829-4.202
			c-19.765-8.784-23.059-21.961-23.059-21.961s0.828-10.49-7.686-14.274c-9.882-4.392-17.568,5.49-23.058,18.666
			c-3.333,8,0.619,12.762,4.239,15.268c3.151,2.182,6.016,4.754,8.361,7.786c12.048,15.573,27.646,20.836,37.93,18.55
			C69.146,252.436,67.188,251.41,66.163,249.715z"/>
		<path class="st8" d="M79.752,233.15c2.235-1.305,3.83-2.101,3.83-2.101s-15.251-19.271-10.693-60.492
			c-11.876-2.721-24.746,0.054-28.303,22.372c8.056,3.94,7.278,14.059,7.278,14.059s3.294,13.176,23.059,21.961
			C74.922,228.948,77.538,230.48,79.752,233.15z"/>
		<path class="st11" d="M209.317,25.651c-9.174-7.581-23.83-4.99-32.734,5.787c-0.769,0.93-1.444,1.9-2.077,2.884
			c9.047,9.323,14.598,21.425,14.839,34.689c7.25,0.067,14.955-3.457,20.462-10.122C218.71,48.113,218.491,33.231,209.317,25.651z"
			/>
		<path class="st11" d="M81.998,35.122c-0.757-1.265-1.604-2.503-2.581-3.685c-8.904-10.776-23.56-13.367-32.734-5.787
			c-9.174,7.581-9.394,22.462-0.489,33.238c5.833,7.06,14.13,10.579,21.742,10.054C68.188,56.085,73.42,44.316,81.998,35.122z"/>
		<path class="st8" d="M211.414,192.928c-3.557-22.318-16.427-25.093-28.303-22.372c4.558,41.221-10.693,60.492-10.693,60.492
			s1.595,0.796,3.83,2.101c2.214-2.67,4.829-4.202,4.829-4.202c19.764-8.784,23.058-21.961,23.058-21.961
			S203.358,196.868,211.414,192.928z"/>
		<path class="st11" d="M234.881,211.38c-5.49-13.176-13.176-23.059-23.058-18.666c-8.514,3.784-7.686,14.274-7.686,14.274
			s-3.294,13.176-23.058,21.961c0,0-2.616,1.532-4.829,4.202c6.094,3.56,16.987,10.942,13.589,16.565
			c-1.025,1.695-2.983,2.721-5.486,3.27c10.283,2.286,25.882-2.977,37.93-18.55c2.346-3.032,5.21-5.604,8.361-7.786
			C234.262,224.142,238.214,219.38,234.881,211.38z"/>
		<path class="st11" d="M174.659,81.414c0-18.709-11.16-33.875-24.927-33.875c-9.331,0-17.459,6.971-21.731,17.286
			c-4.273-10.315-12.401-17.286-21.731-17.286c-13.767,0-24.927,15.167-24.927,33.875c0,7.873,1.982,15.112,5.297,20.864
			c-3.377,3.892-5.297,8.315-5.297,13.011c0,15.532,20.89,28.123,46.659,28.123s46.659-12.591,46.659-28.123
			c0-4.696-1.92-9.12-5.297-13.011C172.677,96.526,174.659,89.287,174.659,81.414z"/>
		<path class="st8" d="M189.37,69.909c0-25.448-19.564-46.794-45.967-52.695c-0.392-0.088-0.617-0.495-0.477-0.871l2.653-7.089
			c0.18-0.482-0.243-0.985-0.749-0.892c-5.631,1.029-10.28,2.726-14.062,4.604c-0.497,0.247-1.06-0.175-0.951-0.72l1.789-8.947
			c0.101-0.504-0.394-0.932-0.878-0.76c-10.522,3.736-17.024,9.38-20.654,13.507c-1.587,1.804-3.565,3.209-5.801,4.086
			C82.864,28.53,67.909,47.657,67.909,69.909c0,7.38,1.645,14.416,4.626,20.831c1.559,3.355,2.041,7.081,1.824,10.774
			c-0.032,0.541-0.048,1.085-0.048,1.632c0,9.035,4.244,17.345,11.347,23.957c-2.764-3.592-4.316-7.592-4.316-11.813
			c0-4.696,1.92-9.12,5.297-13.011c-3.315-5.752-5.297-12.991-5.297-20.864c0-18.709,11.16-33.875,24.927-33.875
			c9.331,0,17.459,6.971,21.731,17.286c4.273-10.315,12.401-17.286,21.731-17.286c13.767,0,24.927,15.167,24.927,33.875
			c0,7.873-1.982,15.112-5.297,20.864c3.377,3.892,5.297,8.315,5.297,13.011c0,4.22-1.553,8.22-4.316,11.813
			c7.103-6.611,11.347-14.922,11.347-23.957c0-0.316-0.005-0.631-0.016-0.945c-0.123-3.498,0.805-6.928,2.378-10.055
			C187.464,85.358,189.37,77.834,189.37,69.909z"/>
		<path class="st11" d="M172.671,230.708c-3.702,1.399-9.8,2.97-13.129-0.178c-4.997-4.725-8.744-2.362-8.744-2.362l-0.351,0.199
			c-13.908,7.674-14.875,18.909-14.753,22.83l0,0c6.751,5.761,11.903-4.18,18.724-2.03c6.968,2.196,30.773,8.235,35.418,0.549
			c4.645-7.686-17.419-18.666-17.419-18.666S172.511,230.929,172.671,230.708L172.671,230.708z"/>
		<path class="st11" d="M83.329,230.708c3.702,1.399,9.8,2.97,13.129-0.178c4.997-4.725,8.744-2.362,8.744-2.362l0.351,0.199
			c13.908,7.674,14.875,18.909,14.753,22.83l0,0c-6.751,5.761-11.903-4.18-18.724-2.03c-6.968,2.196-30.773,8.235-35.418,0.549
			c-4.645-7.686,17.419-18.666,17.419-18.666S83.489,230.929,83.329,230.708L83.329,230.708z"/>
		<path class="st11" d="M131.304,165.542h-6.608c-13.688,0-24.328,12.427-22.087,26.157c0.043,0.262,0.087,0.514,0.134,0.756
			c3.972,20.62,3.596,31.302,2.963,35.999c13.759,7.672,14.722,18.836,14.6,22.742l0.023-0.01c0.137-0.118,0.275-0.242,0.413-0.373
			v0c4.612-2.093,9.904-2.093,14.516,0v0c0.147,0.139,0.291,0.252,0.436,0.376c-0.121-3.912,0.849-15.068,14.6-22.736
			c-0.634-4.698-1.009-15.379,2.963-35.999c0.047-0.242,0.091-0.495,0.134-0.756C155.632,177.969,144.992,165.542,131.304,165.542z"
			/>
		<path class="st8" d="M217.91,155.28c-3.402,7.809-10.44,12.938-17.986,16.814c3.768,2.143,7.011,5.895,9.241,11.928
			c6.152-3.378,11.848-7.479,16.386-12.973c7.568-9.162,11.698-22.288,7.484-33.842c-4.619-12.665-15.464-17.038-19.166-24.52
			c-5.834-11.793,9.956-19.237,18.672-21.79c9.244-2.709,5.31-17.188-3.988-14.464c-29.776,8.725-40.84,32.762-19.852,53.457
			C214.715,135.818,223.825,141.703,217.91,155.28z"/>
		<path class="st12" d="M201.255,35.407c-6.307-5.211-16.328-3.505-22.545,3.765c5.841,7.601,9.566,16.597,10.442,26.316
			c4.493-0.477,9.064-2.858,12.444-6.948C207.793,51.039,207.64,40.683,201.255,35.407z"/>
		<path class="st12" d="M77.95,39.995c-0.143-0.186-0.273-0.378-0.424-0.561c-6.197-7.5-16.396-9.303-22.781-4.027
			c-6.385,5.276-6.537,15.632-0.341,23.132c3.7,4.478,8.825,6.906,13.715,7.028C68.951,56.166,72.449,47.439,77.95,39.995z"/>
		<path class="st7" d="M172.418,231.049c0,0,19.344-24.388,7.988-77.042c-2.019-9.36-5.532-18.314-10.307-26.581
			c-7.517,9.455-23.542,15.986-42.099,15.986s-34.582-6.53-42.099-15.986c-4.775,8.267-8.288,17.221-10.307,26.581
			c-11.357,52.654,7.987,77.042,7.987,77.042s-22.064,10.98-17.419,18.666c4.645,7.686,28.451,1.647,35.418-0.549
			c6.968-2.196,12.193,8.235,19.161,1.647v0c4.612-2.093,9.904-2.093,14.516,0v0c6.968,6.588,12.193-3.843,19.161-1.647
			c6.968,2.196,30.773,8.235,35.418,0.549C194.482,242.029,172.418,231.049,172.418,231.049z"/>
		<path class="st7" d="M172.418,231.049c0,0,19.344-24.388,7.988-77.042c-2.019-9.36-5.532-18.314-10.307-26.581
			c-7.517,9.455-23.542,15.986-42.099,15.986s-34.582-6.53-42.099-15.986c-4.775,8.267-8.288,17.221-10.307,26.581
			c-11.357,52.654,7.987,77.042,7.987,77.042s-22.064,10.98-17.419,18.666c4.645,7.686,28.451,1.647,35.418-0.549
			c6.968-2.196,12.193,8.235,19.161,1.647v0c4.612-2.093,9.904-2.093,14.516,0v0c6.968,6.588,12.193-3.843,19.161-1.647
			c6.968,2.196,30.773,8.235,35.418,0.549C194.482,242.029,172.418,231.049,172.418,231.049z"/>
		<path class="st7" d="M66.163,249.715c-3.399-5.624,7.495-13.006,13.589-16.565c-2.214-2.67-4.829-4.202-4.829-4.202
			c-19.765-8.784-23.059-21.961-23.059-21.961s0.828-10.49-7.686-14.274c-9.882-4.392-17.568,5.49-23.058,18.666
			c-3.333,8,0.619,12.762,4.239,15.268c3.151,2.182,6.016,4.754,8.361,7.786c12.048,15.573,27.646,20.836,37.93,18.55
			C69.146,252.436,67.188,251.41,66.163,249.715z"/>
		<path class="st7" d="M79.752,233.15c2.235-1.305,3.83-2.101,3.83-2.101s-15.251-19.271-10.693-60.492
			c-11.876-2.721-24.746,0.054-28.303,22.372c8.056,3.94,7.278,14.059,7.278,14.059s3.294,13.176,23.059,21.961
			C74.922,228.948,77.538,230.48,79.752,233.15z"/>
		<path class="st7" d="M209.317,25.651c-9.174-7.581-23.83-4.99-32.734,5.787c-0.769,0.93-1.444,1.9-2.077,2.884
			c9.047,9.323,14.598,21.425,14.839,34.689c7.25,0.067,14.955-3.457,20.462-10.122C218.71,48.113,218.491,33.231,209.317,25.651z"
			/>
		<path class="st7" d="M81.998,35.122c-0.757-1.265-1.604-2.503-2.581-3.685c-8.904-10.776-23.56-13.367-32.734-5.787
			c-9.174,7.581-9.394,22.462-0.489,33.238c5.833,7.06,14.13,10.579,21.742,10.054C68.188,56.085,73.42,44.316,81.998,35.122z"/>
		<path class="st7" d="M101.148,117.143c6.064,4.26,15.831,7.026,26.852,7.026s20.788-2.766,26.852-7.026"/>
		<line class="st7" x1="133.735" y1="99.03" x2="133.735" y2="99.03"/>
		<line class="st7" x1="122.265" y1="99.03" x2="122.265" y2="99.03"/>
		<path class="st7" d="M99.166,88.433c-0.01-2.979,2.398-5.402,5.377-5.411c2.979-0.01,5.402,2.398,5.411,5.377"/>
		<path class="st7" d="M146.046,88.433c-0.01-2.979,2.398-5.402,5.377-5.411c2.979-0.01,5.402,2.398,5.411,5.377"/>
		<line class="st7" x1="128" y1="123.5" x2="128" y2="111.5"/>
		<line class="st7" x1="222.554" y1="193.551" x2="217.5" y2="200.5"/>
		<line class="st7" x1="223.381" y1="207.477" x2="229.985" y2="201.701"/>
		<line class="st7" x1="234.999" y1="211.699" x2="228.677" y2="215.514"/>
		<line class="st7" x1="38.323" y1="200.5" x2="33.324" y2="193.627"/>
		<line class="st7" x1="25.952" y1="201.801" x2="32.442" y2="207.477"/>
		<line class="st7" x1="27.146" y1="215.514" x2="20.969" y2="211.786"/>
		<path class="st7" d="M211.414,192.928c-3.557-22.318-16.427-25.093-28.303-22.372c4.558,41.221-10.693,60.492-10.693,60.492
			s1.595,0.796,3.83,2.101c2.214-2.67,4.829-4.202,4.829-4.202c19.764-8.784,23.058-21.961,23.058-21.961
			S203.358,196.868,211.414,192.928z"/>
		<path class="st7" d="M234.881,211.38c-5.49-13.176-13.176-23.059-23.058-18.666c-8.514,3.784-7.686,14.274-7.686,14.274
			s-3.294,13.176-23.058,21.961c0,0-2.616,1.532-4.829,4.202c6.094,3.56,16.987,10.942,13.589,16.565
			c-1.025,1.695-2.983,2.721-5.486,3.27c10.283,2.286,25.882-2.977,37.93-18.55c2.346-3.032,5.21-5.604,8.361-7.786
			C234.262,224.142,238.214,219.38,234.881,211.38z"/>
		<path class="st7" d="M174.659,81.414c0-18.709-11.16-33.875-24.927-33.875c-9.331,0-17.459,6.971-21.731,17.286
			c-4.273-10.315-12.401-17.286-21.731-17.286c-13.767,0-24.927,15.167-24.927,33.875c0,7.873,1.982,15.112,5.297,20.864
			c-3.377,3.892-5.297,8.315-5.297,13.011c0,15.532,20.89,28.123,46.659,28.123s46.659-12.591,46.659-28.123
			c0-4.696-1.92-9.12-5.297-13.011C172.677,96.526,174.659,89.287,174.659,81.414z"/>
		<path class="st7" d="M189.37,69.909c0-25.448-19.564-46.794-45.967-52.695c-0.392-0.088-0.617-0.495-0.477-0.871l2.653-7.089
			c0.18-0.482-0.243-0.985-0.749-0.892c-5.631,1.029-10.28,2.726-14.062,4.604c-0.497,0.247-1.06-0.175-0.951-0.72l1.789-8.947
			c0.101-0.504-0.394-0.932-0.878-0.76c-10.522,3.736-17.024,9.38-20.654,13.507c-1.587,1.804-3.565,3.209-5.801,4.086
			C82.864,28.53,67.909,47.657,67.909,69.909c0,7.38,1.645,14.416,4.626,20.831c1.559,3.355,2.041,7.081,1.824,10.774
			c-0.032,0.541-0.048,1.085-0.048,1.632c0,9.035,4.244,17.345,11.347,23.957c-2.764-3.592-4.316-7.592-4.316-11.813
			c0-4.696,1.92-9.12,5.297-13.011c-3.315-5.752-5.297-12.991-5.297-20.864c0-18.709,11.16-33.875,24.927-33.875
			c9.331,0,17.459,6.971,21.731,17.286c4.273-10.315,12.401-17.286,21.731-17.286c13.767,0,24.927,15.167,24.927,33.875
			c0,7.873-1.982,15.112-5.297,20.864c3.377,3.892,5.297,8.315,5.297,13.011c0,4.22-1.553,8.22-4.316,11.813
			c7.103-6.611,11.347-14.922,11.347-23.957c0-0.316-0.005-0.631-0.016-0.945c-0.123-3.498,0.805-6.928,2.378-10.055
			C187.464,85.358,189.37,77.834,189.37,69.909z"/>
		<path class="st7" d="M172.671,230.708c-3.702,1.399-9.8,2.97-13.129-0.178c-4.997-4.725-8.744-2.362-8.744-2.362l-0.351,0.199
			c-13.908,7.674-14.875,18.909-14.753,22.83l0,0c6.751,5.761,11.903-4.18,18.724-2.03c6.968,2.196,30.773,8.235,35.418,0.549
			c4.645-7.686-17.419-18.666-17.419-18.666S172.511,230.929,172.671,230.708L172.671,230.708z"/>
		<path class="st7" d="M83.329,230.708c3.702,1.399,9.8,2.97,13.129-0.178c4.997-4.725,8.744-2.362,8.744-2.362l0.351,0.199
			c13.908,7.674,14.875,18.909,14.753,22.83l0,0c-6.751,5.761-11.903-4.18-18.724-2.03c-6.968,2.196-30.773,8.235-35.418,0.549
			c-4.645-7.686,17.419-18.666,17.419-18.666S83.489,230.929,83.329,230.708L83.329,230.708z"/>
		<path class="st7" d="M131.304,165.542h-6.608c-13.688,0-24.328,12.427-22.087,26.157c0.043,0.262,0.087,0.514,0.134,0.756
			c3.972,20.62,3.596,31.302,2.963,35.999c13.759,7.672,14.722,18.836,14.6,22.742l0.023-0.01c0.137-0.118,0.275-0.242,0.413-0.373
			v0c4.612-2.093,9.904-2.093,14.516,0v0c0.147,0.139,0.291,0.252,0.436,0.376c-0.121-3.912,0.849-15.068,14.6-22.736
			c-0.634-4.698-1.009-15.379,2.963-35.999c0.047-0.242,0.091-0.495,0.134-0.756C155.632,177.969,144.992,165.542,131.304,165.542z"
			/>
		<path class="st7" d="M217.91,155.28c-3.402,7.809-10.44,12.938-17.986,16.814c3.768,2.143,7.011,5.895,9.241,11.928
			c6.152-3.378,11.848-7.479,16.386-12.973c7.568-9.162,11.698-22.288,7.484-33.842c-4.619-12.665-15.464-17.038-19.166-24.52
			c-5.834-11.793,9.956-19.237,18.672-21.79c9.244-2.709,5.31-17.188-3.988-14.464c-29.776,8.725-40.84,32.762-19.852,53.457
			C214.715,135.818,223.825,141.703,217.91,155.28z"/>
		<path class="st7" d="M201.255,35.407c-6.307-5.211-16.328-3.505-22.545,3.765c5.841,7.601,9.566,16.597,10.442,26.316
			c4.493-0.477,9.064-2.858,12.444-6.948C207.793,51.039,207.64,40.683,201.255,35.407z"/>
		<path class="st7" d="M77.95,39.995c-0.143-0.186-0.273-0.378-0.424-0.561c-6.197-7.5-16.396-9.303-22.781-4.027
			c-6.385,5.276-6.537,15.632-0.341,23.132c3.7,4.478,8.825,6.906,13.715,7.028C68.951,56.166,72.449,47.439,77.95,39.995z"/>
	</g>
</g>
<g id="Layer_6">
</g>
<g id="Layer_7">
</g>
<g id="Layer_8">
</g>
<g id="Layer_9">
</g>
<g id="Layer_10">
</g>
<g id="Layer_11">
</g>
<g id="Layer_12">
</g>
<g id="Layer_13">
</g>
<g id="Layer_14">
</g>
<g id="Layer_15">
</g>
<g id="Layer_16">
</g>
<g id="Layer_17">
</g>
<g id="Layer_18">
</g>
<g id="Layer_19">
</g>
<g id="Layer_20">
</g>
<g id="Layer_21">
</g>
<g id="Layer_22">
</g>
<g id="Layer_23">
</g>
<g id="Layer_24">
</g>
<g id="Layer_25">
</g>
<g id="Layer_26">
</g>
<g id="Layer_27">
</g>
<g id="Layer_28">
</g>
<g id="Layer_29">
</g>
<g id="Layer_30">
</g>
<g id="Layer_31">
</g>
<g id="Layer_32">
</g>
<g id="Layer_33">
</g>
<g id="Layer_34">
</g>
<g id="Layer_35">
</g>
<g id="Layer_36">
</g>
<g id="Layer_37">
</g>
<g id="Layer_38">
</g>
<g id="Layer_39">
</g>
<g id="Layer_40">
</g>
<g id="Layer_41">
</g>
<g id="Layer_42">
</g>
<g id="Layer_43">
</g>
<g id="Layer_44">
</g>
<g id="Layer_45">
</g>
<g id="Layer_46">
</g>
<g id="Layer_47">
</g>
<g id="Layer_48">
</g>
<g id="Layer_49">
</g>
<g id="Layer_50">
</g>
<g id="Layer_51">
</g>
<g id="Layer_52">
</g>
<g id="Layer_53">
</g>
<g id="Layer_54">
</g>
<g id="Layer_55">
</g>
<g id="Layer_56">
</g>
<g id="Layer_57">
</g>
<g id="Layer_58">
</g>
<g id="Layer_59">
</g>
<g id="Layer_60">
</g>
<g id="Layer_61">
</g>
<g id="Layer_62">
</g>
<g id="Layer_63">
</g>
<g id="Layer_64">
</g>
<g id="Layer_65">
</g>
<g id="Layer_66">
</g>
<g id="Layer_67">
</g>
<g id="Layer_68">
</g>
<g id="Layer_69">
</g>
<g id="Layer_70">
</g>
<g id="Layer_71">
</g>
<g id="Layer_72">
</g>
<g id="Layer_73">
</g>
<g id="Layer_74">
</g>
<g id="Layer_75">
</g>
<g id="Layer_76">
</g>
<g id="Layer_77">
</g>
<g id="Layer_78">
</g>
<g id="Layer_79">
</g>
<g id="Layer_80">
</g>
<g id="Layer_81">
</g>
<g id="Layer_82">
</g>
<g id="Layer_83">
</g>
<g id="Layer_84">
</g>
<g id="Layer_85">
</g>
<g id="Layer_86">
</g>
<g id="Layer_87">
</g>
<g id="Layer_88">
</g>
<g id="Layer_89">
</g>
<g id="Layer_90">
</g>
<g id="Layer_91">
</g>
<g id="Layer_92">
</g>
<g id="Layer_93">
</g>
<g id="Layer_94">
</g>
<g id="Layer_95">
</g>
<g id="Layer_96">
</g>
<g id="Layer_97">
</g>
<g id="Layer_98">
</g>
<g id="Layer_99">
</g>
<g id="Layer_100">
</g>
</svg>
