<?xml version="1.0" encoding="utf-8"?>
<!-- Generator: Adobe Illustrator 22.0.0, SVG Export Plug-In . SVG Version: 6.00 Build 0)  -->
<svg version="1.1" xmlns="http://www.w3.org/2000/svg" xmlns:xlink="http://www.w3.org/1999/xlink" x="0px" y="0px"
	 viewBox="0 0 256 256" style="enable-background:new 0 0 256 256;" xml:space="preserve">
<style type="text/css">
	.st0{fill:#F9BD55;}
	.st1{fill:#F4DBCE;}
	.st2{fill:#52565B;}
	.st3{fill:#FD605B;}
	.st4{fill:#F98080;}
	.st5{fill:#F9E63A;}
	.st6{fill:#039BE6;}
	.st7{fill:none;stroke:#000000;stroke-width:5;stroke-linecap:round;stroke-linejoin:round;stroke-miterlimit:10;}
	.st8{fill:#7D3D1A;}
	.st9{fill:#EAA250;}
	.st10{fill:#DD7F57;}
	.st11{fill:#FFC097;}
	.st12{fill:#F49667;}
	.st13{fill:#F89422;}
	.st14{fill:#E3E4E5;}
	.st15{fill:#6E7175;}
	.st16{fill:#46BAF9;}
	.st17{fill:#D9F3FF;}
	.st18{fill:#828487;}
	.st19{fill:#A8AEB2;}
	.st20{fill:#C9CDD1;}
	.st21{fill:#8CD8F9;}
	.st22{fill:#1AA7E5;}
	.st23{fill:#ACE7FC;}
	.st24{fill:#FFFFFF;}
	.st25{fill:#9E512B;}
	.st26{fill:#7ED5FC;}
	.st27{fill:#7CCC4E;}
	.st28{fill:#3AA03A;}
	.st29{fill:#FCB1B1;}
	.st30{fill:#F76E23;}
	.st31{fill:#C16A44;}
	.st32{fill:#B796EA;}
</style>
<g id="Layer_1">
</g>
<g id="Layer_2">
</g>
<g id="Layer_3">
</g>
<g id="Layer_4">
</g>
<g id="Layer_5">
</g>
<g id="Layer_6">
</g>
<g id="Layer_7">
</g>
<g id="Layer_8">
</g>
<g id="Layer_9">
</g>
<g id="Layer_10">
</g>
<g id="Layer_11">
</g>
<g id="Layer_12">
</g>
<g id="Layer_13">
</g>
<g id="Layer_14">
</g>
<g id="Layer_15">
</g>
<g id="Layer_16">
</g>
<g id="Layer_17">
</g>
<g id="Layer_18">
</g>
<g id="Layer_19">
</g>
<g id="Layer_20">
</g>
<g id="Layer_21">
</g>
<g id="Layer_22">
</g>
<g id="Layer_23">
</g>
<g id="Layer_24">
</g>
<g id="Layer_25">
</g>
<g id="Layer_26">
</g>
<g id="Layer_27">
</g>
<g id="Layer_28">
</g>
<g id="Layer_29">
</g>
<g id="Layer_30">
</g>
<g id="Layer_31">
</g>
<g id="Layer_32">
</g>
<g id="Layer_33">
</g>
<g id="Layer_34">
</g>
<g id="Layer_35">
</g>
<g id="Layer_36">
</g>
<g id="Layer_37">
</g>
<g id="Layer_38">
</g>
<g id="Layer_39">
</g>
<g id="Layer_40">
</g>
<g id="Layer_41">
</g>
<g id="Layer_42">
</g>
<g id="Layer_43">
</g>
<g id="Layer_44">
</g>
<g id="Layer_45">
</g>
<g id="Layer_46">
</g>
<g id="Layer_47">
</g>
<g id="Layer_48">
</g>
<g id="Layer_49">
</g>
<g id="Layer_50">
</g>
<g id="Layer_51">
</g>
<g id="Layer_52">
</g>
<g id="Layer_53">
</g>
<g id="Layer_54">
</g>
<g id="Layer_55">
</g>
<g id="Layer_56">
</g>
<g id="Layer_57">
</g>
<g id="Layer_58">
</g>
<g id="Layer_59">
</g>
<g id="Layer_60">
</g>
<g id="Layer_61">
</g>
<g id="Layer_62">
</g>
<g id="Layer_63">
</g>
<g id="Layer_64">
</g>
<g id="Layer_65">
</g>
<g id="Layer_66">
</g>
<g id="Layer_67">
</g>
<g id="Layer_68">
</g>
<g id="Layer_69">
</g>
<g id="Layer_70">
</g>
<g id="Layer_71">
</g>
<g id="Layer_72">
</g>
<g id="Layer_73">
</g>
<g id="Layer_74">
</g>
<g id="Layer_75">
</g>
<g id="Layer_76">
</g>
<g id="Layer_77">
</g>
<g id="Layer_78">
</g>
<g id="Layer_79">
</g>
<g id="Layer_80">
</g>
<g id="Layer_81">
</g>
<g id="Layer_82">
</g>
<g id="Layer_83">
</g>
<g id="Layer_84">
</g>
<g id="Layer_85">
</g>
<g id="Layer_86">
</g>
<g id="Layer_87">
</g>
<g id="Layer_88">
</g>
<g id="Layer_89">
</g>
<g id="Layer_90">
</g>
<g id="Layer_91">
</g>
<g id="Layer_92">
</g>
<g id="Layer_93">
</g>
<g id="Layer_94">
	<g>
		<path class="st31" d="M88.861,244.574c0-3.788,1.316-7.263,3.503-10.01l0,0c-11.228-0.843-25.107,0.841-24.214,14.573
			c0.16,2.454,1.957,4.362,4.129,4.362h26.024v-0.181C92.74,252.845,88.861,251.092,88.861,244.574z"/>
		<path class="st31" d="M160.76,234.565c2.188,2.747,3.503,6.222,3.503,10.01c0,6.518-3.878,8.271-9.442,8.745v0.181h26.024
			c2.171,0,3.969-1.909,4.128-4.362C185.867,235.406,171.988,233.722,160.76,234.565z"/>
		<path class="st31" d="M126.562,155.405c-19.68,0-37.121-6.679-47.956-16.967c-16.896,40.207,7.458,77.173,19.233,91.723
			c10.654-5.247,23.077,2.553,23.077,14.413c0,0.976-0.101,1.828-0.267,2.602c3.756,0.556,7.838,0.59,11.825,0
			c-0.166-0.774-0.267-1.626-0.267-2.602c0-8.873,7.176-16.067,16.028-16.067c2.533,0,4.92,0.605,7.049,1.654
			c11.775-14.55,36.134-51.517,19.235-91.725C163.685,148.726,146.243,155.405,126.562,155.405z"/>
		<path class="st11" d="M126.562,166.069c-7.308,0-13.855,6.049-18.269,15.598c-3.086,6.676-1.304,11.898,1.075,17.921
			c2.122,5.372,7.59,20.381,9.232,36.157v0.497c1.455,2.391,2.316,5.219,2.316,8.331c0,0.976-0.101,1.828-0.267,2.602
			c3.756,0.556,7.838,0.59,11.825,0c-0.166-0.774-0.267-1.626-0.267-2.602c0-3.037,0.856-5.866,2.317-8.289v-0.54
			c1.614-15.503,6.923-30.264,9.119-35.869c2.621-6.688,4.207-11.728,1.13-18.334C140.36,172.065,133.838,166.069,126.562,166.069z"
			/>
		<path class="st31" d="M180.223,95.828c-1.162-1.688-1.761-3.685-1.696-5.733c0.017-0.54,0.026-1.083,0.026-1.627
			c0-30.15-23.277-54.591-51.991-54.591S74.571,58.317,74.571,88.467c0,0.545,0.009,1.087,0.026,1.627
			c0.064,2.048-0.534,4.045-1.696,5.733c-3.746,5.443-5.854,11.541-5.854,17.985c0,22.971,26.646,41.593,59.515,41.593
			s59.515-18.622,59.515-41.593C186.077,107.368,183.97,101.271,180.223,95.828z"/>
		<g>
			<path class="st4" d="M126.681,114.985c-0.005,0-0.011,0-0.016,0c-0.137,4.545-3.711,7.712-7.656,8.056
				c1.665,2.71,4.656,5.101,7.553,5.101c2.809,0,5.706-2.249,7.397-4.856C130.069,122.763,126.662,119.494,126.681,114.985z"/>
		</g>
		<path class="st2" d="M135.441,104.307c0,3.768-4.552,9.098-8.879,9.098c-4.327,0-8.879-5.329-8.879-9.098
			c0-3.768,4.552-4.059,8.879-4.059C130.889,100.248,135.441,100.539,135.441,104.307z"/>
		<path class="st8" d="M212.043,143.677c-6.883-9.522-0.869-16.047,5.009-19.606c-29.368,14.098,1.917,30.363,5.161,54.168
			c2.607,19.136-15.681,24.332-27.623,25.7c0.226,3.356-0.166,6.501-0.991,9.419C258.202,204.267,223.043,158.895,212.043,143.677z"
			/>
		<path class="st4" d="M75.4,78.802c2.86-16.796,13.025-30.925,26.931-38.633C97.457,28.904,83.928,2.502,64.183,2.502
			c-25.098,0-15.059,40.157-15.059,40.157s-4.412,50.735,26.057,36.397L75.4,78.802z"/>
		<path class="st4" d="M189.465,2.502c-19.879,0-33.458,26.764-38.247,37.895c13.655,7.739,23.624,21.707,26.485,38.276l0.019,0.022
			c31.285,15.521,26.802-36.037,26.802-36.037S214.563,2.502,189.465,2.502z"/>
		<path class="st31" d="M164.263,244.574c0,8.873-7.176,8.926-16.028,8.926s-16.028-0.053-16.028-8.926
			c0-8.873,7.176-16.067,16.028-16.067S164.263,235.701,164.263,244.574z"/>
		<path class="st31" d="M120.917,244.574c0,8.873-7.176,8.926-16.028,8.926s-16.028-0.053-16.028-8.926
			c0-8.873,7.176-16.067,16.028-16.067S120.917,235.701,120.917,244.574z"/>
		<path class="st31" d="M179.722,176.431c-2.086,16.875-9.339,31.646-16.215,42.343c-0.006,0.009-0.012,0.018-0.017,0.027
			c-2.533,3.937-5.316,7.79-8.205,11.361c2.136,1.052,4.006,2.557,5.476,4.404c5.056-0.379,10.645-0.249,15.186,1.267
			C185.953,228.862,210.38,207.067,179.722,176.431z"/>
		<path class="st31" d="M97.84,230.162L97.84,230.162L97.84,230.162c-3.166-3.913-6.316-8.298-9.236-12.991
			c-0.005-0.008-0.01-0.016-0.015-0.024c-6.557-10.545-13.204-24.681-15.186-40.715c-30.658,30.636-6.231,52.432,3.774,59.402
			c4.541-1.515,10.131-1.646,15.186-1.267C93.834,232.719,95.704,231.214,97.84,230.162z"/>
		<path class="st31" d="M189.465,2.502c-19.879,0-33.458,26.764-38.247,37.895c2.469,1.399,4.812,3.009,7.021,4.794
			c5.39-11.762,17.662-34.113,32.018-31.176c4.745,0.971,8.21,5.006,8.781,9.815c0.481,4.053,0.468,10.166-1.483,18.461
			c0,0,6.359,27.452-8.031,39.252c18.233-1.653,15-38.885,15-38.885S214.563,2.502,189.465,2.502z"/>
		<path class="st31" d="M63.392,14.016c14.228-2.911,26.411,19.02,31.874,30.862c2.222-1.762,4.586-3.335,7.066-4.709
			C97.457,28.904,83.928,2.502,64.184,2.502c-25.098,0-15.059,40.157-15.059,40.157s-3.233,37.232,15,38.885
			c-14.39-11.8-8.031-39.252-8.031-39.252c-1.952-8.294-1.965-14.408-1.483-18.461C55.182,19.022,58.647,14.987,63.392,14.016z"/>
		<g>
			<path class="st7" d="M137.201,90.973c-0.011-3.312,2.665-6.005,5.977-6.016c3.312-0.011,6.005,2.665,6.016,5.977"/>
			<path class="st7" d="M103.93,90.953c0-3.312,2.685-5.996,5.996-5.996c3.312,0,5.996,2.685,5.996,5.996"/>
		</g>
		<g>
			<path class="st7" d="M157.363,111.944c0,0,22.893-4.06,50.204,6.645"/>
			<path class="st7" d="M155.582,101.17c0,0,21.154-8.57,50.613-3.679"/>
			<path class="st7" d="M156.981,123.744c0,0,24.008,0.594,40.56,19.149"/>
			<path class="st7" d="M95.762,111.944c0,0-22.893-4.06-50.204,6.645"/>
			<path class="st7" d="M97.542,101.17c0,0-21.154-8.57-50.613-3.679"/>
			<path class="st7" d="M96.143,123.744c0,0-24.008,0.594-40.56,19.149"/>
		</g>
		<path class="st7" d="M164.263,244.574c0,8.873-7.176,8.926-16.028,8.926s-16.028-0.053-16.028-8.926
			c0-8.873,7.176-16.067,16.028-16.067S164.263,235.701,164.263,244.574z"/>
		<path class="st7" d="M120.917,244.574c0,8.873-7.176,8.926-16.028,8.926s-16.028-0.053-16.028-8.926
			c0-8.873,7.176-16.067,16.028-16.067S120.917,235.701,120.917,244.574z"/>
		<path class="st7" d="M179.722,176.431c-2.086,16.875-9.339,31.646-16.215,42.343c-0.006,0.009-0.012,0.018-0.017,0.027
			c-2.533,3.937-5.316,7.79-8.205,11.361c2.136,1.052,4.006,2.557,5.476,4.404c5.056-0.379,10.645-0.249,15.186,1.267
			C185.953,228.862,210.38,207.067,179.722,176.431z"/>
		<path class="st7" d="M97.84,230.162L97.84,230.162L97.84,230.162c-3.166-3.913-6.316-8.298-9.236-12.991
			c-0.005-0.008-0.01-0.016-0.015-0.024c-6.557-10.545-13.204-24.681-15.186-40.715c-30.658,30.636-6.231,52.432,3.774,59.402
			c4.541-1.515,10.131-1.646,15.186-1.267C93.834,232.719,95.704,231.214,97.84,230.162z"/>
		<g>
			<path class="st7" d="M134.524,235.745c1.614-15.503,6.923-30.264,9.119-35.869c2.621-6.687,4.207-11.728,1.13-18.334
				c-4.413-9.477-10.935-15.473-18.211-15.473c-7.308,0-13.855,6.049-18.269,15.598c-3.086,6.676-1.304,11.898,1.075,17.921
				c2.122,5.372,7.59,20.381,9.232,36.156"/>
		</g>
		<path class="st7" d="M180.223,95.828c-1.162-1.688-1.761-3.685-1.696-5.733c0.017-0.54,0.026-1.083,0.026-1.627
			c0-30.15-23.277-54.591-51.991-54.591S74.571,58.317,74.571,88.467c0,0.545,0.009,1.087,0.026,1.627
			c0.064,2.048-0.534,4.045-1.696,5.733c-3.746,5.443-5.854,11.541-5.854,17.985c0,22.971,26.646,41.593,59.515,41.593
			s59.515-18.622,59.515-41.593C186.077,107.368,183.97,101.271,180.223,95.828z"/>
		<path class="st7" d="M126.562,155.405c-19.68,0-37.121-6.679-47.956-16.967c-16.896,40.207,7.458,77.173,19.233,91.723
			c10.654-5.247,23.077,2.553,23.077,14.413c0,0.976-0.101,1.828-0.267,2.602c3.756,0.556,7.838,0.59,11.825,0
			c-0.166-0.774-0.267-1.626-0.267-2.602c0-8.873,7.176-16.067,16.028-16.067c2.533,0,4.92,0.605,7.049,1.654
			c11.775-14.55,36.134-51.517,19.235-91.725C163.685,148.726,146.243,155.405,126.562,155.405z"/>
		<g>
			<path class="st7" d="M113.141,121.209c5.34,4.399,13.415,0.581,13.534-6.337l0.065-0.867"/>
			<path class="st7" d="M139.983,121.67c-5.488,4.213-13.427,0.12-13.308-6.798"/>
		</g>
		<path class="st7" d="M135.441,104.307c0,3.768-4.552,9.098-8.879,9.098c-4.327,0-8.879-5.329-8.879-9.098
			c0-3.768,4.552-4.059,8.879-4.059C130.889,100.248,135.441,100.539,135.441,104.307z"/>
		<path class="st7" d="M135.441,104.307c0,3.768-4.552,9.098-8.879,9.098c-4.327,0-8.879-5.329-8.879-9.098
			c0-3.768,4.552-4.059,8.879-4.059C130.889,100.248,135.441,100.539,135.441,104.307z"/>
		<path class="st7" d="M135.441,104.307c0,3.768-4.552,9.098-8.879,9.098c-4.327,0-8.879-5.329-8.879-9.098
			c0-3.768,4.552-4.059,8.879-4.059C130.889,100.248,135.441,100.539,135.441,104.307z"/>
		<g>
			<path class="st7" d="M126.681,114.985c-0.005,0-0.011,0-0.016,0c-0.137,4.545-3.711,7.712-7.656,8.056
				c1.665,2.71,4.656,5.101,7.553,5.101c2.809,0,5.706-2.249,7.397-4.856C130.069,122.763,126.662,119.494,126.681,114.985z"/>
		</g>
		<path class="st7" d="M189.465,2.502c-19.879,0-33.458,26.764-38.247,37.895c2.469,1.399,4.812,3.009,7.021,4.794
			c5.39-11.762,17.662-34.113,32.018-31.176c4.745,0.971,8.21,5.006,8.781,9.815c0.481,4.053,0.468,10.166-1.483,18.461
			c0,0,6.359,27.452-8.031,39.252c18.233-1.653,15-38.885,15-38.885S214.563,2.502,189.465,2.502z"/>
		<path class="st7" d="M75.4,78.802c2.86-16.796,13.025-30.925,26.931-38.633C97.457,28.904,83.928,2.502,64.183,2.502
			c-25.098,0-15.059,40.157-15.059,40.157s-4.412,50.735,26.057,36.397L75.4,78.802z"/>
		<path class="st7" d="M63.392,14.016c14.228-2.911,26.411,19.02,31.874,30.862c2.222-1.762,4.586-3.335,7.066-4.709
			C97.457,28.904,83.928,2.502,64.184,2.502c-25.098,0-15.059,40.157-15.059,40.157s-3.233,37.232,15,38.885
			c-14.39-11.8-8.031-39.252-8.031-39.252c-1.952-8.294-1.965-14.408-1.483-18.461C55.182,19.022,58.647,14.987,63.392,14.016z"/>
		<path class="st7" d="M189.465,2.502c-19.879,0-33.458,26.764-38.247,37.895c13.655,7.739,23.624,21.707,26.485,38.276l0.019,0.022
			c31.285,15.521,26.802-36.037,26.802-36.037S214.563,2.502,189.465,2.502z"/>
		<path class="st7" d="M212.043,143.677c-6.883-9.522-0.869-16.047,5.009-19.606c-29.368,14.098,1.917,30.363,5.161,54.168
			c2.607,19.136-15.681,24.332-27.623,25.7c0.226,3.356-0.166,6.501-0.991,9.419C258.202,204.267,223.043,158.895,212.043,143.677z"
			/>
		<path class="st7" d="M160.76,234.565c2.188,2.747,3.503,6.222,3.503,10.01c0,6.518-3.878,8.271-9.442,8.745v0.181h26.024
			c2.171,0,3.969-1.909,4.128-4.362C185.867,235.406,171.988,233.722,160.76,234.565z"/>
		<path class="st7" d="M88.861,244.574c0-3.788,1.316-7.263,3.503-10.01l0,0c-11.228-0.843-25.107,0.841-24.214,14.573
			c0.16,2.454,1.957,4.362,4.129,4.362h26.024v-0.181C92.74,252.845,88.861,251.092,88.861,244.574z"/>
	</g>
</g>
<g id="Layer_95">
</g>
<g id="Layer_96">
</g>
<g id="Layer_97">
</g>
<g id="Layer_98">
</g>
<g id="Layer_99">
</g>
<g id="Layer_100">
</g>
</svg>
