<?xml version="1.0" encoding="utf-8"?>
<!-- Generator: Adobe Illustrator 22.0.0, SVG Export Plug-In . SVG Version: 6.00 Build 0)  -->
<svg version="1.1" xmlns="http://www.w3.org/2000/svg" xmlns:xlink="http://www.w3.org/1999/xlink" x="0px" y="0px"
	 viewBox="0 0 256 256" style="enable-background:new 0 0 256 256;" xml:space="preserve">
<style type="text/css">
	.st0{fill:#F9BD55;}
	.st1{fill:#F4DBCE;}
	.st2{fill:#52565B;}
	.st3{fill:#FD605B;}
	.st4{fill:#F98080;}
	.st5{fill:#F9E63A;}
	.st6{fill:#039BE6;}
	.st7{fill:none;stroke:#000000;stroke-width:5;stroke-linecap:round;stroke-linejoin:round;stroke-miterlimit:10;}
	.st8{fill:#7D3D1A;}
	.st9{fill:#EAA250;}
	.st10{fill:#DD7F57;}
	.st11{fill:#FFC097;}
	.st12{fill:#F49667;}
	.st13{fill:#F89422;}
	.st14{fill:#E3E4E5;}
	.st15{fill:#6E7175;}
	.st16{fill:#46BAF9;}
	.st17{fill:#D9F3FF;}
	.st18{fill:#828487;}
	.st19{fill:#A8AEB2;}
	.st20{fill:#C9CDD1;}
	.st21{fill:#8CD8F9;}
	.st22{fill:#1AA7E5;}
	.st23{fill:#ACE7FC;}
	.st24{fill:#FFFFFF;}
	.st25{fill:#9E512B;}
	.st26{fill:#7ED5FC;}
	.st27{fill:#7CCC4E;}
	.st28{fill:#3AA03A;}
	.st29{fill:#FCB1B1;}
	.st30{fill:#F76E23;}
	.st31{fill:#C16A44;}
	.st32{fill:#B796EA;}
</style>
<g id="Layer_1">
</g>
<g id="Layer_2">
</g>
<g id="Layer_3">
</g>
<g id="Layer_4">
</g>
<g id="Layer_5">
</g>
<g id="Layer_6">
</g>
<g id="Layer_7">
</g>
<g id="Layer_8">
</g>
<g id="Layer_9">
</g>
<g id="Layer_10">
</g>
<g id="Layer_11">
</g>
<g id="Layer_12">
</g>
<g id="Layer_13">
</g>
<g id="Layer_14">
</g>
<g id="Layer_15">
</g>
<g id="Layer_16">
</g>
<g id="Layer_17">
</g>
<g id="Layer_18">
</g>
<g id="Layer_19">
</g>
<g id="Layer_20">
</g>
<g id="Layer_21">
</g>
<g id="Layer_22">
</g>
<g id="Layer_23">
</g>
<g id="Layer_24">
</g>
<g id="Layer_25">
</g>
<g id="Layer_26">
</g>
<g id="Layer_27">
</g>
<g id="Layer_28">
</g>
<g id="Layer_29">
</g>
<g id="Layer_30">
</g>
<g id="Layer_31">
</g>
<g id="Layer_32">
</g>
<g id="Layer_33">
</g>
<g id="Layer_34">
</g>
<g id="Layer_35">
</g>
<g id="Layer_36">
</g>
<g id="Layer_37">
</g>
<g id="Layer_38">
</g>
<g id="Layer_39">
</g>
<g id="Layer_40">
</g>
<g id="Layer_41">
</g>
<g id="Layer_42">
</g>
<g id="Layer_43">
</g>
<g id="Layer_44">
	<g>
		<path class="st25" d="M236.609,206.235h7.417c-8.477-8.477-12.161-30.09-24.371-40.265c-6.358-5.298-6.358-11.656-6.358-11.656
			l5.298-1.06c-5.298-16.954-19.073-26.49-19.073-26.49h7.417c-3.528-5.488-9.085-10.395-14.689-14.401
			c-6.443-4.606-13.714-7.821-21.357-9.548c-1.7,2.526-3.82,5.086-6.487,7.63c0,0,0,15.533-18.745,24.404
			c-5.008,2.37-11.072,5.702-14.982,9.697c-0.684,0.698-1.642,1.087-2.644,1.087H128h-0.037c-1.002,0-1.96-0.388-2.644-1.087
			c-3.91-3.995-9.974-7.327-14.982-9.697c-18.745-8.872-18.745-24.404-18.745-24.404c-2.667-2.544-4.787-5.104-6.487-7.63
			c-7.643,1.727-14.914,4.942-21.357,9.548c-5.603,4.006-11.161,8.913-14.688,14.401h7.417c0,0-13.775,9.537-19.073,26.49
			l5.298,1.06c0,0,0,6.358-6.358,11.656c-12.21,10.175-15.894,31.788-24.371,40.265h7.417c0,0,3.179,4.239,0,11.656
			c-3.179,7.417,9.536-2.119,9.536-2.119l2.119,9.536l2.345-0.902c0.31-2.038,1.749-3.444,3.054-4.315
			c1.037-0.692,1.309-2.072,0.699-3.16c-2.092-3.731-0.578-7.517-0.578-7.517c0.384-1.153,1.273-1.739,2.521-1.913
			c9.064-1.267,37.488,19.705,35.625,10.39c-1.191-5.956-2.127-10.634,3.312-12.075c2.046-0.542,4.173,0.572,5.032,2.506
			l5.654,12.723c0.804,1.81,2.422,4.598,3.507,6.255c2.484,3.792,2.769,8.433,1.526,12.75c3.846,0.005,7.756-0.286,11.5-1.039
			c2.999-0.603,6.087-0.544,9.031,0.287c4.411,1.245,9.004,1.905,13.724,1.905c4.719,0,9.313-0.659,13.724-1.905
			c2.943-0.831,6.032-0.89,9.03-0.287c3.744,0.753,7.655,1.044,11.5,1.039c-1.243-4.316-0.958-8.957,1.526-12.75
			c1.085-1.657,2.703-4.446,3.507-6.255l5.654-12.723c0.859-1.934,2.987-3.048,5.032-2.506c5.439,1.441,4.503,6.119,3.312,12.075
			c-1.863,9.314,26.561-11.657,35.625-10.39c1.247,0.174,2.136,0.76,2.521,1.913c0,0,1.514,3.785-0.577,7.517
			c-0.609,1.087-0.338,2.469,0.699,3.161c1.305,0.871,2.744,2.277,3.054,4.315l2.345,0.902l2.119-9.536
			c0,0,12.715,9.536,9.536,2.119S236.609,206.235,236.609,206.235z"/>
		<path class="st25" d="M179.942,76.184c0-17.594-11.651-33.336-11.651-33.336l4.854,0.926c-4.499-8.582-12.334-12.398-19.64-23.967
			l7.921,1.743C153.66,8.587,144.922,6.735,144.922,6.735l5.825-1.852c-20.388-6.482-31.23,2.315-31.23,2.315l1.133-4.167
			c-9.281,3.098-14.346,8.521-17.105,13.339c-3.754,6.555-8.209,12.719-13.543,18.187c-2.78,2.85-5.258,5.613-7.147,9.217
			l4.854-0.926c0,0-11.651,15.742-11.651,33.336l4.854-3.704c0,0-8.738,19.446,10.68,37.966c0,0,0,15.533,18.745,24.404
			c5.008,2.37,11.072,5.702,14.982,9.696c0.684,0.699,1.642,1.087,2.644,1.087H128h0.037c1.002,0,1.96-0.388,2.644-1.087
			c3.91-3.995,9.974-7.327,14.982-9.696c18.745-8.871,18.745-24.404,18.745-24.404c19.418-18.52,10.68-37.966,10.68-37.966
			L179.942,76.184z"/>
		<path class="st18" d="M221.295,229.431c3.032-4.934,0.446-7.88-1.739-9.339c-1.029-0.687-1.343-2.034-0.73-3.108
			c2.136-3.748,0.607-7.57,0.607-7.57c-3.179-9.536-40.265,19.073-38.146,8.477c1.186-5.932,2.119-10.596-3.247-12.058
			c-2.217-0.604-4.459,1.051-5.392,3.15l-5.36,12.061c-0.738,1.66-2.111,4.292-3.172,5.767
			c-8.858,12.305,6.659,34.467,22.469,23.927c16.209-10.806,25.43-8.477,31.788-11.656c4.54-2.27,3.677-5.621,2.812-7.352
			C220.817,230.996,220.865,230.132,221.295,229.431z"/>
		<path class="st18" d="M34.705,229.431c-3.032-4.934-0.446-7.88,1.739-9.339c1.029-0.687,1.343-2.034,0.73-3.108
			c-2.136-3.748-0.607-7.57-0.607-7.57c3.179-9.536,40.265,19.073,38.146,8.477c-1.186-5.932-2.119-10.596,3.247-12.058
			c2.217-0.604,4.459,1.051,5.392,3.15l5.36,12.061c0.738,1.66,2.111,4.292,3.172,5.767c8.858,12.305-6.659,34.467-22.469,23.927
			c-16.209-10.806-25.43-8.477-31.788-11.656c-4.54-2.27-3.677-5.621-2.812-7.352C35.183,230.996,35.135,230.132,34.705,229.431z"/>
		<g>
			<path class="st18" d="M236.609,206.235c0,0-3.179,4.238,0,11.656c3.179,7.417-9.536-2.119-9.536-2.119l-2.119,9.536l-2.345-0.902
				c0.209,1.375-0.091,3.036-1.313,5.025c-0.431,0.701-0.478,1.565-0.11,2.3c0.865,1.73,1.729,5.081-2.812,7.352
				c-1.252,0.626-2.617,1.037-4.123,1.379c2.74-0.05,6.011-1.223,8.567-2.373c1.19-0.535,2.393,0.724,1.799,1.885
				c-1.882,3.682-3.559,8.816,0.338,10.765c4.238,2.119,19.073,0,22.252-15.894C250.384,218.95,236.609,206.235,236.609,206.235z"/>
		</g>
		<g>
			<path class="st18" d="M33.183,238.088c2.556,1.15,5.827,2.323,8.567,2.373c-1.506-0.341-2.871-0.753-4.123-1.379
				c-4.54-2.27-3.677-5.621-2.812-7.352c0.368-0.736,0.32-1.599-0.11-2.3c-1.222-1.989-1.522-3.65-1.313-5.025l-2.345,0.902
				l-2.119-9.536c0,0-12.715,9.536-9.536,2.119s0-11.656,0-11.656S5.616,218.95,8.795,234.844s18.013,18.013,22.252,15.894
				c3.897-1.949,2.22-7.083,0.338-10.765C30.791,238.812,31.994,237.553,33.183,238.088z"/>
		</g>
		<g>
			<path class="st18" d="M140.463,72.187c3.196,0.569,6.316,1.351,9.345,2.332c1.361,0.441,2.881-0.139,3.502-1.376
				c1.858-3.699,2.902-7.865,2.902-12.27c0-10.018-5.4-18.791-13.491-23.668c-2.167-1.306-4.005-3.038-5.357-5.115
				c-0.986-1.514-1.886-2.715-2.425-3.406c-0.253-0.324-0.763-0.308-0.998,0.028l-1.156,1.653c-0.148,0.212-0.474,0.212-0.622,0
				l-2.908-4.161c-0.27-0.387-0.869-0.328-1.068,0.096c-0.582,1.245-1.514,2.476-2.629,3.648c-2.117,2.225-4.785,3.922-7.713,5.033
				c-10.563,4.01-18.058,14.088-18.058,25.892c0,4.362,1.024,8.488,2.847,12.16c0.636,1.281,2.152,1.94,3.559,1.484
				c3.028-0.981,6.147-1.763,9.343-2.331c-9.329,4.678-15.749,14.438-15.749,25.726c0,15.836,12.631,28.674,28.212,28.674
				s28.212-12.838,28.212-28.674C156.212,86.625,149.791,76.865,140.463,72.187z"/>
		</g>
		<path class="st18" d="M143.864,135.724c-4.601,2.288-9.731,5.295-13.184,8.823c-0.684,0.698-1.642,1.087-2.644,1.087H128h-0.037
			c-1.002,0-1.96-0.388-2.644-1.087c-3.452-3.527-8.582-6.535-13.183-8.823c-12.125,7.643-20.484,23.77-20.484,42.432
			c0,26.042,16.273,47.152,36.347,47.152c20.074,0,36.347-21.111,36.347-47.152C164.347,159.493,155.989,143.366,143.864,135.724z"
			/>
		<g>
			<path class="st7" d="M221.295,229.431c3.032-4.934,0.446-7.88-1.739-9.339c-1.029-0.687-1.343-2.034-0.73-3.108
				c2.136-3.748,0.607-7.57,0.607-7.57c-3.179-9.536-40.265,19.073-38.146,8.477c1.186-5.932,2.119-10.596-3.247-12.058
				c-2.217-0.604-4.459,1.051-5.392,3.15l-5.36,12.061c-0.738,1.66-2.111,4.292-3.172,5.767
				c-8.858,12.305,6.659,34.467,22.469,23.927c16.209-10.806,25.43-8.477,31.788-11.656c4.54-2.27,3.677-5.621,2.812-7.352
				C220.817,230.996,220.865,230.132,221.295,229.431z"/>
			<path class="st7" d="M34.705,229.431c-3.032-4.934-0.446-7.88,1.739-9.339c1.029-0.687,1.343-2.034,0.73-3.108
				c-2.136-3.748-0.607-7.57-0.607-7.57c3.179-9.536,40.265,19.073,38.146,8.477c-1.186-5.932-2.119-10.596,3.247-12.058
				c2.217-0.604,4.459,1.051,5.392,3.15l5.36,12.061c0.738,1.66,2.111,4.292,3.172,5.767c8.858,12.305-6.659,34.467-22.469,23.927
				c-16.209-10.806-25.43-8.477-31.788-11.656c-4.54-2.27-3.677-5.621-2.812-7.352C35.183,230.996,35.135,230.132,34.705,229.431z"
				/>
		</g>
		<path class="st7" d="M67.073,166.5c0,6.048,0.601,11.92,1.708,17.552c-10.922-6.514-25.618-11.35-29.794,6.129
			c-1.551,6.489-1.283,12.255,0.101,17.319c9.064-1.267,37.488,19.705,35.625,10.39c-1.186-5.932-2.119-10.596,3.247-12.058
			c2.217-0.604,4.459,1.051,5.392,3.15l5.36,12.061c0.738,1.66,2.111,4.292,3.172,5.767c2.792,3.878,3.158,8.734,1.862,13.238
			c3.846,0.005,7.756-0.286,11.5-1.039c3.009-0.605,6.108-0.536,9.062,0.296c4.401,1.24,8.984,1.895,13.692,1.895
			c4.708,0,9.291-0.656,13.692-1.895c2.954-0.832,6.053-0.902,9.062-0.296c3.744,0.753,7.654,1.044,11.5,1.039
			c-1.297-4.504-0.93-9.36,1.862-13.238c1.061-1.474,2.434-4.107,3.172-5.767l5.36-12.061c0.933-2.1,3.175-3.754,5.392-3.15
			c5.366,1.462,4.433,6.125,3.247,12.058c-1.863,9.314,26.561-11.657,35.625-10.39c1.384-5.065,1.652-10.83,0.101-17.319
			c-4.176-17.48-18.872-12.644-29.794-6.129c1.106-5.631,1.708-11.504,1.708-17.552"/>
		<g>
			<path class="st7" d="M236.609,206.235c0,0-3.179,4.238,0,11.656c3.179,7.417-9.536-2.119-9.536-2.119l-2.119,9.536l-2.345-0.902
				c0.209,1.375-0.091,3.036-1.313,5.025c-0.431,0.701-0.478,1.565-0.11,2.3c0.865,1.73,1.729,5.081-2.812,7.352
				c-1.252,0.626-2.617,1.037-4.123,1.379c2.74-0.05,6.011-1.223,8.567-2.373c1.19-0.535,2.393,0.724,1.799,1.885
				c-1.882,3.682-3.559,8.816,0.338,10.765c4.238,2.119,19.073,0,22.252-15.894C250.384,218.95,236.609,206.235,236.609,206.235z"/>
		</g>
		<path class="st7" d="M236.609,206.235h7.417c-8.477-8.477-12.161-30.09-24.371-40.265c-6.358-5.298-6.358-11.656-6.358-11.656
			l5.298-1.06c-5.298-16.954-19.073-26.49-19.073-26.49h7.417c-3.528-5.488-9.085-10.395-14.689-14.401
			c-6.443-4.606-13.714-7.821-21.357-9.548c-1.7,2.526-3.82,5.086-6.487,7.63c0,0,0,15.533-18.745,24.404
			c-5.008,2.37-11.072,5.702-14.982,9.697c-0.684,0.698-1.642,1.087-2.644,1.087H128h-0.037c-1.002,0-1.96-0.388-2.644-1.087
			c-3.91-3.995-9.974-7.327-14.982-9.697c-18.745-8.872-18.745-24.404-18.745-24.404c-2.667-2.544-4.787-5.104-6.487-7.63
			c-7.643,1.727-14.914,4.942-21.357,9.548c-5.603,4.006-11.161,8.913-14.688,14.401h7.417c0,0-13.775,9.537-19.073,26.49
			l5.298,1.06c0,0,0,6.358-6.358,11.656c-12.21,10.175-15.894,31.788-24.371,40.265h7.417c0,0,3.179,4.239,0,11.656
			c-3.179,7.417,9.536-2.119,9.536-2.119l2.119,9.536l2.345-0.902c0.31-2.038,1.749-3.444,3.054-4.315
			c1.037-0.692,1.309-2.072,0.699-3.16c-2.092-3.731-0.578-7.517-0.578-7.517c0.384-1.153,1.273-1.739,2.521-1.913
			c9.064-1.267,37.488,19.705,35.625,10.39c-1.191-5.956-2.127-10.634,3.312-12.075c2.046-0.542,4.173,0.572,5.032,2.506
			l5.654,12.723c0.804,1.81,2.422,4.598,3.507,6.255c2.484,3.792,2.769,8.433,1.526,12.75c3.846,0.005,7.756-0.286,11.5-1.039
			c2.999-0.603,6.087-0.544,9.031,0.287c4.411,1.245,9.004,1.905,13.724,1.905c4.719,0,9.313-0.659,13.724-1.905
			c2.943-0.831,6.032-0.89,9.03-0.287c3.744,0.753,7.655,1.044,11.5,1.039c-1.243-4.316-0.958-8.957,1.526-12.75
			c1.085-1.657,2.703-4.446,3.507-6.255l5.654-12.723c0.859-1.934,2.987-3.048,5.032-2.506c5.439,1.441,4.503,6.119,3.312,12.075
			c-1.863,9.314,26.561-11.657,35.625-10.39c1.247,0.174,2.136,0.76,2.521,1.913c0,0,1.514,3.785-0.577,7.517
			c-0.609,1.087-0.338,2.469,0.699,3.161c1.305,0.871,2.744,2.277,3.054,4.315l2.345,0.902l2.119-9.536
			c0,0,12.715,9.536,9.536,2.119S236.609,206.235,236.609,206.235z"/>
		<g>
			<path class="st7" d="M33.183,238.088c2.556,1.15,5.827,2.323,8.567,2.373c-1.506-0.341-2.871-0.753-4.123-1.379
				c-4.54-2.27-3.677-5.621-2.812-7.352c0.368-0.736,0.32-1.599-0.11-2.3c-1.222-1.989-1.522-3.65-1.313-5.025l-2.345,0.902
				l-2.119-9.536c0,0-12.715,9.536-9.536,2.119s0-11.656,0-11.656S5.616,218.95,8.795,234.844s18.013,18.013,22.252,15.894
				c3.897-1.949,2.22-7.083,0.338-10.765C30.791,238.812,31.994,237.553,33.183,238.088z"/>
		</g>
		<line class="st7" x1="68.771" y1="183.984" x2="77.248" y2="191.401"/>
		<line class="st7" x1="187.447" y1="183.984" x2="178.97" y2="191.401"/>
		<path class="st7" d="M172.347,123.17l12.187,17.076l-5.749,2.262c0,0,2.173,3.652,4.588,8.546"/>
		<path class="st7" d="M81.753,123.17l-12.187,17.076l5.749,2.262c0,0-2.173,3.652-4.588,8.546"/>
		<path class="st7" d="M179.942,76.184c0-17.594-11.651-33.336-11.651-33.336l4.854,0.926c-4.499-8.582-12.334-12.398-19.64-23.967
			l7.921,1.743C153.66,8.587,144.922,6.735,144.922,6.735l5.825-1.852c-20.388-6.482-31.23,2.315-31.23,2.315l1.133-4.167
			c-9.281,3.098-14.346,8.521-17.105,13.339c-3.754,6.555-8.209,12.719-13.543,18.187c-2.78,2.85-5.258,5.613-7.147,9.217
			l4.854-0.926c0,0-11.651,15.742-11.651,33.336l4.854-3.704c0,0-8.738,19.446,10.68,37.966c0,0,0,15.533,18.745,24.404
			c5.008,2.37,11.072,5.702,14.982,9.696c0.684,0.699,1.642,1.087,2.644,1.087H128h0.037c1.002,0,1.96-0.388,2.644-1.087
			c3.91-3.995,9.974-7.327,14.982-9.696c18.745-8.871,18.745-24.404,18.745-24.404c19.418-18.52,10.68-37.966,10.68-37.966
			L179.942,76.184z"/>
		<path class="st7" d="M134.848,60.307c-0.009-2.693,2.167-4.883,4.86-4.892s4.883,2.167,4.892,4.86"/>
		<path class="st7" d="M111.372,60.291c0-2.693,2.183-4.876,4.876-4.876c2.693,0,4.876,2.183,4.876,4.876"/>
		<g>
			<path class="st7" d="M140.463,72.187c3.196,0.569,6.316,1.351,9.345,2.332c1.361,0.441,2.881-0.139,3.502-1.376
				c1.858-3.699,2.902-7.865,2.902-12.27c0-10.018-5.4-18.791-13.491-23.668c-2.167-1.306-4.005-3.038-5.357-5.115
				c-0.986-1.514-1.886-2.715-2.425-3.406c-0.253-0.324-0.763-0.308-0.998,0.028l-1.156,1.653c-0.148,0.212-0.474,0.212-0.622,0
				l-2.908-4.161c-0.27-0.387-0.869-0.328-1.068,0.096c-0.582,1.245-1.514,2.476-2.629,3.648c-2.117,2.225-4.785,3.922-7.713,5.033
				c-10.563,4.01-18.058,14.088-18.058,25.892c0,4.362,1.024,8.488,2.847,12.16c0.636,1.281,2.152,1.94,3.559,1.484
				c3.028-0.981,6.147-1.763,9.343-2.331c-9.329,4.678-15.749,14.438-15.749,25.726c0,15.836,12.631,28.674,28.212,28.674
				s28.212-12.838,28.212-28.674C156.212,86.625,149.791,76.865,140.463,72.187z"/>
			<path class="st7" d="M105.586,99.797c5.156,3.129,13.275,5.149,22.414,5.149s17.258-2.02,22.414-5.149"/>
			<line class="st7" x1="133.446" y1="79.888" x2="132.475" y2="76.184"/>
			<line class="st7" x1="122.281" y1="79.888" x2="123.251" y2="76.184"/>
		</g>
		<path class="st7" d="M143.864,135.724c-4.601,2.288-9.731,5.295-13.184,8.823c-0.684,0.698-1.642,1.087-2.644,1.087H128h-0.037
			c-1.002,0-1.96-0.388-2.644-1.087c-3.452-3.527-8.582-6.535-13.183-8.823c-12.125,7.643-20.484,23.77-20.484,42.432
			c0,26.042,16.273,47.152,36.347,47.152c20.074,0,36.347-21.111,36.347-47.152C164.347,159.493,155.989,143.366,143.864,135.724z"
			/>
	</g>
</g>
<g id="Layer_45">
</g>
<g id="Layer_46">
</g>
<g id="Layer_47">
</g>
<g id="Layer_48">
</g>
<g id="Layer_49">
</g>
<g id="Layer_50">
</g>
<g id="Layer_51">
</g>
<g id="Layer_52">
</g>
<g id="Layer_53">
</g>
<g id="Layer_54">
</g>
<g id="Layer_55">
</g>
<g id="Layer_56">
</g>
<g id="Layer_57">
</g>
<g id="Layer_58">
</g>
<g id="Layer_59">
</g>
<g id="Layer_60">
</g>
<g id="Layer_61">
</g>
<g id="Layer_62">
</g>
<g id="Layer_63">
</g>
<g id="Layer_64">
</g>
<g id="Layer_65">
</g>
<g id="Layer_66">
</g>
<g id="Layer_67">
</g>
<g id="Layer_68">
</g>
<g id="Layer_69">
</g>
<g id="Layer_70">
</g>
<g id="Layer_71">
</g>
<g id="Layer_72">
</g>
<g id="Layer_73">
</g>
<g id="Layer_74">
</g>
<g id="Layer_75">
</g>
<g id="Layer_76">
</g>
<g id="Layer_77">
</g>
<g id="Layer_78">
</g>
<g id="Layer_79">
</g>
<g id="Layer_80">
</g>
<g id="Layer_81">
</g>
<g id="Layer_82">
</g>
<g id="Layer_83">
</g>
<g id="Layer_84">
</g>
<g id="Layer_85">
</g>
<g id="Layer_86">
</g>
<g id="Layer_87">
</g>
<g id="Layer_88">
</g>
<g id="Layer_89">
</g>
<g id="Layer_90">
</g>
<g id="Layer_91">
</g>
<g id="Layer_92">
</g>
<g id="Layer_93">
</g>
<g id="Layer_94">
</g>
<g id="Layer_95">
</g>
<g id="Layer_96">
</g>
<g id="Layer_97">
</g>
<g id="Layer_98">
</g>
<g id="Layer_99">
</g>
<g id="Layer_100">
</g>
</svg>
