<?xml version="1.0" encoding="utf-8"?>
<!-- Generator: Adobe Illustrator 22.0.0, SVG Export Plug-In . SVG Version: 6.00 Build 0)  -->
<svg version="1.1" xmlns="http://www.w3.org/2000/svg" xmlns:xlink="http://www.w3.org/1999/xlink" x="0px" y="0px"
	 viewBox="0 0 256 256" style="enable-background:new 0 0 256 256;" xml:space="preserve">
<style type="text/css">
	.st0{fill:#F9BD55;}
	.st1{fill:#F4DBCE;}
	.st2{fill:#52565B;}
	.st3{fill:#FD605B;}
	.st4{fill:#F98080;}
	.st5{fill:#F9E63A;}
	.st6{fill:#039BE6;}
	.st7{fill:none;stroke:#000000;stroke-width:5;stroke-linecap:round;stroke-linejoin:round;stroke-miterlimit:10;}
	.st8{fill:#7D3D1A;}
	.st9{fill:#EAA250;}
	.st10{fill:#DD7F57;}
	.st11{fill:#FFC097;}
	.st12{fill:#F49667;}
	.st13{fill:#F89422;}
	.st14{fill:#E3E4E5;}
	.st15{fill:#6E7175;}
	.st16{fill:#46BAF9;}
	.st17{fill:#D9F3FF;}
	.st18{fill:#828487;}
	.st19{fill:#A8AEB2;}
	.st20{fill:#C9CDD1;}
	.st21{fill:#8CD8F9;}
	.st22{fill:#1AA7E5;}
	.st23{fill:#ACE7FC;}
	.st24{fill:#FFFFFF;}
	.st25{fill:#9E512B;}
	.st26{fill:#7ED5FC;}
	.st27{fill:#7CCC4E;}
	.st28{fill:#3AA03A;}
	.st29{fill:#FCB1B1;}
	.st30{fill:#F76E23;}
	.st31{fill:#C16A44;}
	.st32{fill:#B796EA;}
</style>
<g id="Layer_1">
</g>
<g id="Layer_2">
</g>
<g id="Layer_3">
</g>
<g id="Layer_4">
</g>
<g id="Layer_5">
</g>
<g id="Layer_6">
</g>
<g id="Layer_7">
</g>
<g id="Layer_8">
</g>
<g id="Layer_9">
</g>
<g id="Layer_10">
</g>
<g id="Layer_11">
</g>
<g id="Layer_12">
</g>
<g id="Layer_13">
</g>
<g id="Layer_14">
</g>
<g id="Layer_15">
</g>
<g id="Layer_16">
</g>
<g id="Layer_17">
</g>
<g id="Layer_18">
</g>
<g id="Layer_19">
</g>
<g id="Layer_20">
</g>
<g id="Layer_21">
</g>
<g id="Layer_22">
</g>
<g id="Layer_23">
</g>
<g id="Layer_24">
</g>
<g id="Layer_25">
</g>
<g id="Layer_26">
</g>
<g id="Layer_27">
</g>
<g id="Layer_28">
</g>
<g id="Layer_29">
</g>
<g id="Layer_30">
</g>
<g id="Layer_31">
</g>
<g id="Layer_32">
</g>
<g id="Layer_33">
</g>
<g id="Layer_34">
</g>
<g id="Layer_35">
</g>
<g id="Layer_36">
</g>
<g id="Layer_37">
</g>
<g id="Layer_38">
</g>
<g id="Layer_39">
</g>
<g id="Layer_40">
</g>
<g id="Layer_41">
</g>
<g id="Layer_42">
</g>
<g id="Layer_43">
</g>
<g id="Layer_44">
</g>
<g id="Layer_45">
</g>
<g id="Layer_46">
</g>
<g id="Layer_47">
</g>
<g id="Layer_48">
</g>
<g id="Layer_49">
</g>
<g id="Layer_50">
</g>
<g id="Layer_51">
</g>
<g id="Layer_52">
</g>
<g id="Layer_53">
</g>
<g id="Layer_54">
</g>
<g id="Layer_55">
</g>
<g id="Layer_56">
</g>
<g id="Layer_57">
</g>
<g id="Layer_58">
</g>
<g id="Layer_59">
</g>
<g id="Layer_60">
</g>
<g id="Layer_61">
</g>
<g id="Layer_62">
</g>
<g id="Layer_63">
</g>
<g id="Layer_64">
</g>
<g id="Layer_65">
</g>
<g id="Layer_66">
</g>
<g id="Layer_67">
</g>
<g id="Layer_68">
</g>
<g id="Layer_69">
</g>
<g id="Layer_70">
</g>
<g id="Layer_71">
</g>
<g id="Layer_72">
</g>
<g id="Layer_73">
</g>
<g id="Layer_74">
</g>
<g id="Layer_75">
</g>
<g id="Layer_76">
</g>
<g id="Layer_77">
</g>
<g id="Layer_78">
</g>
<g id="Layer_79">
</g>
<g id="Layer_80">
</g>
<g id="Layer_81">
</g>
<g id="Layer_82">
</g>
<g id="Layer_83">
</g>
<g id="Layer_84">
</g>
<g id="Layer_85">
	<g>
		<path class="st4" d="M144.135,193.322c-2.193-5.483-6.596-13.451-10.426-20.011c-2.102-0.085-4.155-0.209-6.121-0.401
			c-1.342,0.305-2.711,0.586-4.136,0.817c-3.049,0.494-5.96,0.777-8.766,0.907c6.592,13.804,21.065,24.296,21.065,24.296
			c-2.305,4.954-4.795,23.392-5.768,29.228c-0.685,4.112-2.875,10.864-3.863,13.801c-0.268,0.796-1.123,1.225-1.927,0.983
			c-8.171-2.457-10.534-0.611-14.304,3.133c-1.113,1.106-2.075,3.289-1.526,5.108c0.512,1.696,1.948,2.638,4.026,1.981
			c2.607-0.824,6.315-1.699,8.885-1.056c3.129,0.782,6.259,0.44,7.772,0.186c0.583-0.098,1.179-0.017,1.714,0.234
			c1.218,0.571,3.757,1.44,6.843,0.669c2.16-0.54,3.784-0.276,4.873,0.127c0.787,0.291,1.619-0.412,1.45-1.234
			c-1.116-5.424-6.323-5.424-6.323-5.424c-4.354-4.354,8.709-43.544,8.709-43.544C149.578,195.499,144.135,193.322,144.135,193.322z
			"/>
		<path class="st4" d="M125.629,193.322c-0.838-2.096-2.001-4.556-3.329-7.16c-2.85-3.394-5.581-7.31-7.594-11.528
			c-7.251,0.339-13.711-0.452-19.428-2.019c6.057,14.788,21.967,26.316,21.967,26.316c-2.305,4.954-4.795,23.392-5.768,29.228
			c-0.685,4.112-2.875,10.864-3.863,13.801c-0.268,0.796-1.123,1.225-1.927,0.983c-8.171-2.457-10.534-0.611-14.304,3.133
			c-1.113,1.106-2.075,3.289-1.526,5.108c0.512,1.696,1.948,2.638,4.026,1.981c2.607-0.824,6.315-1.699,8.885-1.056
			c2.33,0.583,4.657,0.541,6.32,0.377c-0.318-0.352-0.569-0.787-0.724-1.302c-0.549-1.819,0.413-4.001,1.526-5.108
			c2.644-2.626,4.603-4.311,8.352-4.24c0.54-11.634,9.564-38.716,9.564-38.716C131.072,195.499,125.629,193.322,125.629,193.322z"/>
		<path class="st4" d="M55.219,111.992c0.526,0.216,1.086-0.224,1.002-0.787c-0.599-3.988-0.849-7.136,2.02-10.069
			c0.706-0.722,1.538-1.336,2.431-1.83C56.458,86.24,65.899,66.9,71.815,54.62c4.572-8.986,5.627-16.211,5.07-21.81
			c-0.137-1.38,0.073-2.768,0.536-4.076c0.671-1.893,1.112-4.631,1.193-7.408c0.252-1.105,0.397-2.249,0.397-3.431
			C79.01,9.393,72.118,2.5,63.615,2.5c-6.451,0-11.967,3.972-14.257,9.6c-0.26,0.606-0.378,0.987-0.378,0.987l0.003,0.037
			c-0.004,0.012-0.006,0.023-0.01,0.035c-0.038,0.44-0.125,3.052,2.983,4.606c3.401,1.701,1.701,4.252,1.701,4.252
			c0,4.252-3.512,6.463-3.512,6.463c7.34,2.55,11.687,11.329,8.172,18.259c-5.618,11.074-11.7,22.791-14.414,34.999
			c-2.632,11.841-1.441,21.907,3.495,30.067C49.53,110.733,52.27,110.778,55.219,111.992z"/>
		<path class="st0" d="M51.957,17.765c-3.401-1.701-2.976-4.677-2.976-4.677s-12.345,0.374-16.683,10.246
			c-0.347,0.79,0.442,1.608,1.243,1.288l2.259-0.904c7.653-3.401,17.858-1.701,17.858-1.701S55.358,19.466,51.957,17.765z"/>
		<path class="st0" d="M35.8,23.717l-0.843,0.337c0,0,10.936,0.173,15.188,4.425c0,0,3.512-2.211,3.512-6.463
			C53.657,22.017,43.453,20.316,35.8,23.717z"/>
		<path class="st0" d="M51.957,17.765c-3.401-1.701-2.976-4.677-2.976-4.677s-12.345,0.374-16.683,10.246
			c-0.347,0.79,0.442,1.608,1.243,1.288l2.259-0.904c7.653-3.401,17.858-1.701,17.858-1.701S55.358,19.466,51.957,17.765z"/>
		<path class="st0" d="M35.8,23.717l-0.843,0.337c0,0,10.936,0.173,15.188,4.425c0,0,3.512-2.211,3.512-6.463
			C53.657,22.017,43.453,20.316,35.8,23.717z"/>
		<path class="st2" d="M173.527,117.12c0-13.063-8.709-5.443-8.709-5.443c-2.462-7.387-6.162-1.779-7.834,1.428
			c-0.464,0.889-1.639,1.074-2.367,0.384c-27.659-26.263-58.107-17.159-67.734-13.266c-1.68,0.679-3.555,0.864-5.277,0.298
			c-3.48-1.143-7.367,0.112-9.528,3.056c-0.38,0.518-1.182,0.361-1.306-0.269c-0.427-2.18-1.691-4.245-3.879-4.894
			c-3.047-0.904-6.431,0.451-8.654,2.723c-2.87,2.933-2.62,6.081-2.02,10.069c0.084,0.562-0.476,1.003-1.002,0.787
			c-4.289-1.765-8.169-1.117-10.315,1.955c-2.712,3.883-0.738,8.163,2.291,9.543c0.566,0.258,0.561,1.044,0.005,1.324
			c-5.699,2.865-3.919,7.732,0.237,8.735c0.971,0.234,1.966,0.251,2.96,0.152c0.706-0.07,1.048,0.822,0.515,1.29
			c-0.496,0.434-0.871,0.947-0.953,1.667c-0.125,1.1,0.59,2.117,1.592,2.589c1.083,0.51,2.202,0.477,3.305,0.237
			c1.203-0.262,2.429,0.3,2.972,1.405c4.128,8.403,22.618,39.813,65.623,32.839c1.425-0.231,2.794-0.512,4.136-0.817
			c4.947,0.482,10.315,0.64,16.14,0.407l0,0c0.001,0,0.003-0.001,0.004-0.001c1.206-0.048,2.436-0.117,3.681-0.2
			c0.237-0.015,0.476-0.032,0.715-0.049c1.24-0.088,2.492-0.187,3.771-0.309c0.001-0.001,0.002-0.001,0.002-0.001
			c1.267-0.121,2.559-0.265,3.865-0.42c0.3-0.036,0.601-0.073,0.904-0.111c1.309-0.163,2.63-0.338,3.979-0.537
			c0,0-0.452-3.056-3.224-6.528c-1.21-1.515-2.883-3.104-5.132-4.557c13.371-11.709,17.219-26.913,17.865-29.899
			c0.074-0.341,0.27-0.647,0.544-0.863C184.185,119.251,173.527,117.12,173.527,117.12z"/>
		<path class="st14" d="M149.522,159.033c0,0-0.736-9.175-8.809-14.018c0,0-1.652-15.931-16.93-16.27
			c0.122,0.082,6.657,4.506,6.465,13.133c0,0,8.059,4.932,6.638,13.661c0,0,9.307,4.271,6.842,17.778
			c5.262-0.211,10.893-0.737,16.919-1.628C160.648,171.69,159.491,163.867,149.522,159.033z"/>
		<path class="st14" d="M223.341,113.433c-1.499-3.78-5.323-5.189-5.5-7.803c-0.071-1.053,0.481-2.05,0.57-3.101
			c0.335-3.951-4.724-5.608-6.809-6.607c-0.667-0.319-1.357-0.707-1.702-1.361c-0.753-1.426-0.004-3.17,0.466-4.712
			c0.922-3.027-2.418-5.253-6.697-5.684c-1.724-0.174-3.447,0.022-5.142,0.382c-1.758,0.374-1.923-0.158-3.367-1.106
			c-5.024-3.298-9.477-2.184-14.386,0.493c-7.932,4.327-14.589,14.361-18.858,24.106c1.025,0.061,2.039,1.051,2.901,3.637
			c0,0,8.709-7.62,8.709,5.443c0,0,6.385,1.282,3.004,6.778c1.45-0.525,2.907-1.029,4.361-1.53
			c10.136-3.495,21.165-7.011,31.354-3.674c2.247,0.736,7.698,3.387,10.527,0.041C223.979,117.31,224.029,115.169,223.341,113.433z"
			/>
		<path class="st7" d="M60.909,17.919c-0.008-2.382,1.917-4.319,4.299-4.327c2.382-0.008,4.319,1.917,4.327,4.299"/>
		<path class="st7" d="M74.97,122.969c-0.619,2.837-0.799,5.985-0.29,9.429c2.611,17.668,22.362,48.691,85.968,39.291
			c0,0-1.156-7.823-11.126-12.656c0,0-0.736-9.175-8.809-14.019c0,0-1.905-18.483-20.686-16.068"/>
		<path class="st7" d="M149.522,159.033c0,0-0.736-9.175-8.809-14.018c0,0-1.652-15.931-16.93-16.27
			c0.122,0.082,6.657,4.506,6.465,13.133c0,0,8.059,4.932,6.638,13.661c0,0,9.307,4.271,6.842,17.778
			c5.262-0.211,10.893-0.737,16.919-1.628C160.648,171.69,159.491,163.867,149.522,159.033z"/>
		<path class="st7" d="M149.522,159.033c-5.013-2.43-12.255-4.105-22.698-3.649"/>
		<path class="st7" d="M140.713,145.015c-3.669-2.202-8.855-3.509-16.175-2.652"/>
		<path class="st7" d="M173.527,117.12c0-13.063-8.709-5.443-8.709-5.443c-2.462-7.387-6.162-1.779-7.834,1.428
			c-0.464,0.889-1.639,1.074-2.367,0.384c-27.659-26.263-58.107-17.159-67.734-13.266c-1.68,0.679-3.555,0.864-5.277,0.298
			c-3.48-1.143-7.367,0.112-9.528,3.056c-0.38,0.518-1.182,0.361-1.306-0.269c-0.427-2.18-1.691-4.245-3.879-4.894
			c-3.047-0.904-6.431,0.451-8.654,2.723c-2.87,2.933-2.62,6.081-2.02,10.069c0.084,0.562-0.476,1.003-1.002,0.787
			c-4.289-1.765-8.169-1.117-10.315,1.955c-2.712,3.883-0.738,8.163,2.291,9.543c0.566,0.258,0.561,1.044,0.005,1.324
			c-5.699,2.865-3.919,7.732,0.237,8.735c0.971,0.234,1.966,0.251,2.96,0.152c0.706-0.07,1.048,0.822,0.515,1.29
			c-0.496,0.434-0.871,0.947-0.953,1.667c-0.125,1.1,0.59,2.117,1.592,2.589c1.083,0.51,2.202,0.477,3.305,0.237
			c1.203-0.262,2.429,0.3,2.972,1.405c4.128,8.403,22.618,39.813,65.623,32.839c1.425-0.231,2.794-0.512,4.136-0.817
			c4.947,0.482,10.315,0.64,16.14,0.407l0,0c0.001,0,0.003-0.001,0.004-0.001c1.206-0.048,2.436-0.117,3.681-0.2
			c0.237-0.015,0.476-0.032,0.715-0.049c1.24-0.088,2.492-0.187,3.771-0.309c0.001-0.001,0.002-0.001,0.002-0.001
			c1.267-0.121,2.559-0.265,3.865-0.42c0.3-0.036,0.601-0.073,0.904-0.111c1.309-0.163,2.63-0.338,3.979-0.537
			c0,0-0.452-3.056-3.224-6.528c-1.21-1.515-2.883-3.104-5.132-4.557c13.371-11.709,17.219-26.913,17.865-29.899
			c0.074-0.341,0.27-0.647,0.544-0.863C184.185,119.251,173.527,117.12,173.527,117.12z"/>
		<path class="st7" d="M223.341,113.433c-1.499-3.78-5.323-5.189-5.5-7.803c-0.071-1.053,0.481-2.05,0.57-3.101
			c0.335-3.951-4.724-5.608-6.809-6.607c-0.667-0.319-1.357-0.707-1.702-1.361c-0.753-1.426-0.004-3.17,0.466-4.712
			c0.922-3.027-2.418-5.253-6.697-5.684c-1.724-0.174-3.447,0.022-5.142,0.382c-1.758,0.374-1.923-0.158-3.367-1.106
			c-5.024-3.298-9.477-2.184-14.386,0.493c-7.932,4.327-14.589,14.361-18.858,24.106c1.025,0.061,2.039,1.051,2.901,3.637
			c0,0,8.709-7.62,8.709,5.443c0,0,6.385,1.282,3.004,6.778c1.45-0.525,2.907-1.029,4.361-1.53
			c10.136-3.495,21.165-7.011,31.354-3.674c2.247,0.736,7.698,3.387,10.527,0.041C223.979,117.31,224.029,115.169,223.341,113.433z"
			/>
		<path class="st7" d="M198.565,84.462c0,0-15.24,4.354-23.949,19.595"/>
		<path class="st7" d="M213.53,96.791c0,0-17.686-1.988-31.838,12.164"/>
		<path class="st7" d="M144.135,193.322c-2.193-5.483-6.596-13.451-10.426-20.011c-2.102-0.085-4.155-0.209-6.121-0.401
			c-1.342,0.305-2.711,0.586-4.136,0.817c-3.049,0.494-5.96,0.777-8.766,0.907c6.592,13.804,21.065,24.296,21.065,24.296
			c-2.305,4.954-4.795,23.392-5.768,29.228c-0.685,4.112-2.875,10.864-3.863,13.801c-0.268,0.796-1.123,1.225-1.927,0.983
			c-8.171-2.457-10.534-0.611-14.304,3.133c-1.113,1.106-2.075,3.289-1.526,5.108c0.512,1.696,1.948,2.638,4.026,1.981
			c2.607-0.824,6.315-1.699,8.885-1.056c3.129,0.782,6.259,0.44,7.772,0.186c0.583-0.098,1.179-0.017,1.714,0.234
			c1.218,0.571,3.757,1.44,6.843,0.669c2.16-0.54,3.784-0.276,4.873,0.127c0.787,0.291,1.619-0.412,1.45-1.234
			c-1.116-5.424-6.323-5.424-6.323-5.424c-4.354-4.354,8.709-43.544,8.709-43.544C149.578,195.499,144.135,193.322,144.135,193.322z
			"/>
		<path class="st7" d="M125.629,193.322c-0.838-2.096-2.001-4.556-3.329-7.16c-2.85-3.394-5.581-7.31-7.594-11.528
			c-7.251,0.339-13.711-0.452-19.428-2.019c6.057,14.788,21.967,26.316,21.967,26.316c-2.305,4.954-4.795,23.392-5.768,29.228
			c-0.685,4.112-2.875,10.864-3.863,13.801c-0.268,0.796-1.123,1.225-1.927,0.983c-8.171-2.457-10.534-0.611-14.304,3.133
			c-1.113,1.106-2.075,3.289-1.526,5.108c0.512,1.696,1.948,2.638,4.026,1.981c2.607-0.824,6.315-1.699,8.885-1.056
			c2.33,0.583,4.657,0.541,6.32,0.377c-0.318-0.352-0.569-0.787-0.724-1.302c-0.549-1.819,0.413-4.001,1.526-5.108
			c2.644-2.626,4.603-4.311,8.352-4.24c0.54-11.634,9.564-38.716,9.564-38.716C131.072,195.499,125.629,193.322,125.629,193.322z"/>
		<path class="st7" d="M51.957,17.765c-3.401-1.701-2.976-4.677-2.976-4.677s-12.345,0.374-16.683,10.246
			c-0.347,0.79,0.442,1.608,1.243,1.288l2.259-0.904c7.653-3.401,17.858-1.701,17.858-1.701S55.358,19.466,51.957,17.765z"/>
		<path class="st7" d="M35.8,23.717l-0.843,0.337c0,0,10.936,0.173,15.188,4.425c0,0,3.512-2.211,3.512-6.463
			C53.657,22.017,43.453,20.316,35.8,23.717z"/>
		<path class="st7" d="M51.957,17.765c-3.401-1.701-2.976-4.677-2.976-4.677s-12.345,0.374-16.683,10.246
			c-0.347,0.79,0.442,1.608,1.243,1.288l2.259-0.904c7.653-3.401,17.858-1.701,17.858-1.701S55.358,19.466,51.957,17.765z"/>
		<path class="st7" d="M35.8,23.717l-0.843,0.337c0,0,10.936,0.173,15.188,4.425c0,0,3.512-2.211,3.512-6.463
			C53.657,22.017,43.453,20.316,35.8,23.717z"/>
		<path class="st7" d="M55.219,111.992c0.526,0.216,1.086-0.224,1.002-0.787c-0.599-3.988-0.849-7.136,2.02-10.069
			c0.706-0.722,1.538-1.336,2.431-1.83C56.458,86.24,65.899,66.9,71.815,54.62c4.572-8.986,5.627-16.211,5.07-21.81
			c-0.137-1.38,0.073-2.768,0.536-4.076c0.671-1.893,1.112-4.631,1.193-7.408c0.252-1.105,0.397-2.249,0.397-3.431
			C79.01,9.393,72.118,2.5,63.615,2.5c-6.451,0-11.967,3.972-14.257,9.6c-0.26,0.606-0.378,0.987-0.378,0.987l0.003,0.037
			c-0.004,0.012-0.006,0.023-0.01,0.035c-0.038,0.44-0.125,3.052,2.983,4.606c3.401,1.701,1.701,4.252,1.701,4.252
			c0,4.252-3.512,6.463-3.512,6.463c7.34,2.55,11.687,11.329,8.172,18.259c-5.618,11.074-11.7,22.791-14.414,34.999
			c-2.632,11.841-1.441,21.907,3.495,30.067C49.53,110.733,52.27,110.778,55.219,111.992z"/>
	</g>
</g>
<g id="Layer_86">
</g>
<g id="Layer_87">
</g>
<g id="Layer_88">
</g>
<g id="Layer_89">
</g>
<g id="Layer_90">
</g>
<g id="Layer_91">
</g>
<g id="Layer_92">
</g>
<g id="Layer_93">
</g>
<g id="Layer_94">
</g>
<g id="Layer_95">
</g>
<g id="Layer_96">
</g>
<g id="Layer_97">
</g>
<g id="Layer_98">
</g>
<g id="Layer_99">
</g>
<g id="Layer_100">
</g>
</svg>
