<?xml version="1.0" encoding="utf-8"?>
<!-- Generator: Adobe Illustrator 22.0.0, SVG Export Plug-In . SVG Version: 6.00 Build 0)  -->
<svg version="1.1" xmlns="http://www.w3.org/2000/svg" xmlns:xlink="http://www.w3.org/1999/xlink" x="0px" y="0px"
	 viewBox="0 0 256 256" style="enable-background:new 0 0 256 256;" xml:space="preserve">
<style type="text/css">
	.st0{fill:#F9BD55;}
	.st1{fill:#F4DBCE;}
	.st2{fill:#52565B;}
	.st3{fill:#FD605B;}
	.st4{fill:#F98080;}
	.st5{fill:#F9E63A;}
	.st6{fill:#039BE6;}
	.st7{fill:none;stroke:#000000;stroke-width:5;stroke-linecap:round;stroke-linejoin:round;stroke-miterlimit:10;}
	.st8{fill:#7D3D1A;}
	.st9{fill:#EAA250;}
	.st10{fill:#DD7F57;}
	.st11{fill:#FFC097;}
	.st12{fill:#F49667;}
	.st13{fill:#F89422;}
	.st14{fill:#E3E4E5;}
	.st15{fill:#6E7175;}
	.st16{fill:#46BAF9;}
	.st17{fill:#D9F3FF;}
	.st18{fill:#828487;}
	.st19{fill:#A8AEB2;}
	.st20{fill:#C9CDD1;}
	.st21{fill:#8CD8F9;}
	.st22{fill:#1AA7E5;}
	.st23{fill:#ACE7FC;}
	.st24{fill:#FFFFFF;}
	.st25{fill:#9E512B;}
	.st26{fill:#7ED5FC;}
	.st27{fill:#7CCC4E;}
	.st28{fill:#3AA03A;}
	.st29{fill:#FCB1B1;}
	.st30{fill:#F76E23;}
	.st31{fill:#C16A44;}
	.st32{fill:#B796EA;}
</style>
<g id="Layer_1">
</g>
<g id="Layer_2">
</g>
<g id="Layer_3">
</g>
<g id="Layer_4">
</g>
<g id="Layer_5">
</g>
<g id="Layer_6">
</g>
<g id="Layer_7">
</g>
<g id="Layer_8">
</g>
<g id="Layer_9">
</g>
<g id="Layer_10">
</g>
<g id="Layer_11">
</g>
<g id="Layer_12">
</g>
<g id="Layer_13">
</g>
<g id="Layer_14">
</g>
<g id="Layer_15">
</g>
<g id="Layer_16">
</g>
<g id="Layer_17">
</g>
<g id="Layer_18">
</g>
<g id="Layer_19">
</g>
<g id="Layer_20">
</g>
<g id="Layer_21">
</g>
<g id="Layer_22">
	<g>
		<path class="st8" d="M104.442,75.696c-1.777-3.538-2.787-7.411-3.464-11.325c-3.606-20.845-22.876-36.76-46.114-36.76
			S12.355,43.526,8.75,64.371c-0.677,3.914-1.687,7.786-3.464,11.325c-1.558,3.103-2.4,6.405-2.4,9.832
			c0,13.988,13.991,25.921,33.657,30.578c2.833,0.671,5.593,1.716,8.009,3.342c3.026,2.036,6.636,3.223,10.52,3.223
			c3.733,0,7.215-1.095,10.167-2.987c2.559-1.64,5.318-2.947,8.272-3.661c19.494-4.71,33.333-16.584,33.333-30.494
			C106.843,82.101,106.001,78.798,104.442,75.696z"/>
		<path class="st11" d="M66.103,78.762c0.186,0.356,0.29,0.758,0.29,1.218c0,3.496-5.766,8.413-11.322,8.534v5.41
			c0,5.799,4.701,10.499,10.499,10.499h2.57c7.135,0,12.92-5.784,12.92-12.92v0C81.061,83.398,73.766,77.514,66.103,78.762z"/>
		<path class="st11" d="M54.864,88.525c-5.618,0-11.529-5.005-11.529-8.545c0-0.271,0.046-0.517,0.112-0.751
			c-7.442-0.859-14.365,4.931-14.365,12.826v0c0,7.135,5.784,12.92,12.92,12.92h2.57c5.799,0,10.499-4.701,10.499-10.499v-5.963
			C55.002,88.515,54.933,88.525,54.864,88.525z"/>
		<g>
			<path class="st11" d="M91.014,86.174c-3.756,0-7.246,1.112-10.177,3.014c0.134,0.749,0.224,1.517,0.224,2.314v0
				c0,7.135-5.784,12.92-12.92,12.92h-2.57c-0.346,0-0.687-0.019-1.024-0.052c-2.184,3.401-5.991,6.361-9.683,6.361
				c-3.49,0-7.09-2.643-9.319-5.806c-0.321,0.03-0.644,0.049-0.973,0.049h-2.57c-7.135,0-12.92-5.784-12.92-12.92v0
				c0-0.973,0.107-1.914,0.306-2.815c-2.948-1.934-6.468-3.066-10.259-3.066c-5.983,0-11.302,2.804-14.745,7.159
				c4.098,10.503,16.275,19.011,32.158,22.772c2.833,0.671,5.593,1.716,8.009,3.342c3.026,2.036,6.636,3.223,10.52,3.223
				c3.733,0,7.215-1.095,10.167-2.987c2.559-1.64,5.318-2.947,8.272-3.661c15.904-3.843,28.04-12.454,31.972-23.049
				C102.034,88.82,96.834,86.174,91.014,86.174z"/>
		</g>
		<path class="st3" d="M55.071,93.923v0.553c0,5.47-4.185,9.959-9.526,10.45c2.229,3.162,5.829,5.806,9.319,5.806
			c3.692,0,7.499-2.96,9.683-6.361C59.229,103.856,55.071,99.376,55.071,93.923z"/>
		<g>
			<path class="st24" d="M43.447,79.229L43.447,79.229c0.802-2.823,6.229-3.062,11.417-3.062c4.888,0,9.994,0.209,11.239,2.594v0
				c1.627-0.265,3.232-0.191,4.759,0.14c-3.695-6.202-9.944-11.507-15.999-11.507c-6.301,0-12.817,5.747-16.446,12.271
				C40.014,79.203,41.714,79.029,43.447,79.229z"/>
		</g>
		<path class="st2" d="M66.393,79.98c0,3.539-5.911,8.545-11.529,8.545s-11.529-5.005-11.529-8.545s5.911-3.812,11.529-3.812
			S66.393,76.44,66.393,79.98z"/>
		<path class="st25" d="M94.74,48.609c3.04-0.113,6.27-1.486,8.841-4.058c4.751-4.751,5.451-11.753,1.564-15.64
			c-3.887-3.887-10.889-3.187-15.64,1.564c-2.307,2.307-3.65,5.144-3.985,7.899C89.122,41.316,92.236,44.768,94.74,48.609z"/>
		<path class="st25" d="M15.017,48.588c2.588-3.965,5.824-7.515,9.577-10.516c-0.394-2.659-1.718-5.374-3.941-7.597
			c-4.751-4.751-11.753-5.451-15.64-1.564c-3.887,3.887-3.187,10.889,1.564,15.64C9.036,47.01,12.096,48.374,15.017,48.588z"/>
		<g>
			<path class="st25" d="M43.447,79.229L43.447,79.229c0.802-2.823,6.229-3.062,11.417-3.062c4.888,0,9.994,0.209,11.239,2.594v0
				c1.627-0.265,3.232-0.191,4.759,0.14c-3.695-6.202-9.944-11.507-15.999-11.507c-6.301,0-12.817,5.747-16.446,12.271
				C40.014,79.203,41.714,79.029,43.447,79.229z"/>
		</g>
		<path class="st8" d="M107.63,34.731c-0.121-2.208-0.93-4.265-2.485-5.82c-6.2-6.199-18.446-0.231-19.625,9.463
			c2.168,1.77,4.133,3.745,5.921,5.859C93.491,37.076,101.435,32.45,107.63,34.731z"/>
		<path class="st8" d="M24.55,38.11c-0.932-6.441-6.966-11.672-13.12-11.71c-4.925-0.01-8.623,3.355-8.901,8.319
			c6.002-2.174,13.804,2.096,16.035,9.208C20.373,41.825,22.361,39.865,24.55,38.11z"/>
		<path class="st11" d="M151.656,185.494c-1.028-2.922-1.542-5.399-1.789-7.12c-0.209-1.455-1.489-2.503-2.956-2.424
			c-19.299,1.041-43.56-4.683-52.439-6.998c-1.774-0.463-3.51,0.846-3.564,2.678l-0.492,16.74c13.98,2.25,31.538,2.689,53.509,0.558
			C146.366,187.568,148.945,186.391,151.656,185.494z"/>
		<path class="st11" d="M41.94,117.992c-0.291-0.139-0.58-0.28-0.877-0.406c-2.842,8.807-11.428,43.177,20.423,61.342
			c-3.46-9.775-6.968-16.443-6.968-16.443C40.243,148.209,41.082,126.035,41.94,117.992z"/>
		<g>
			<path class="st8" d="M60.844,177.147c0.211,0.573,0.423,1.177,0.634,1.775c0.003,0.002,0.005,0.003,0.008,0.005
				C61.272,178.322,61.058,177.728,60.844,177.147z"/>
			<path class="st8" d="M67.35,201.996c-1.194-8.391-3.522-16.439-5.872-23.073c-1.68-0.959-3.224-1.971-4.685-3.013l-6.699,24.177
				c0,0-1.791,6.665-3.778,7.196c-6.176,1.651-8.294,5.626-9.249,11.714c-0.266,1.694,1.097,3.209,2.812,3.209h21.013
				c-1.715,0-3.077-1.514-2.812-3.209c0.955-6.088,4.506-9.792,7.037-11.714C66.755,206.038,67.639,204.032,67.35,201.996z"/>
		</g>
		<path class="st25" d="M250.268,161.378c-11.059-27.648-39.814-36.496-39.814-36.496l2.212-2.212
			c-10.326-6.074-19.644-5.473-25.953-3.7c5.044,2.424,9.547,5.999,13.077,10.578v0c5.494,7.127,8.121,15.923,7.567,24.624
			c14.388,18.123-5.089,37.797-35.61,30.43c-23.317-5.628-41.373,13.295-49.494,24.045c-1.548,2.049,0.495,4.838,2.92,3.994
			c32.883-11.453,46.051,0.277,59.52,9.942c23.659,16.976,57.109,1.466,58.957-27.595l5.743,5.684
			C254.247,187.973,255.121,173.51,250.268,161.378z"/>
		<path class="st8" d="M146.916,175.95c1.464-0.079,2.741,0.966,2.949,2.417c0.247,1.72,0.764,4.203,1.792,7.126
			c6.094-2.015,12.837-2.642,20.09-0.891c8.032,1.939,15.288,1.991,21.374,0.705c0.759-1.761,1.731-3.442,2.92-4.993
			c2.721-3.55,5.811-8.373,8.297-13.902c1.767-3.929,2.753-8.074,3.018-12.24l0,0c0.542-8.502-1.99-17.388-7.567-24.624v0
			c-3.351-4.348-7.866-8.074-13.077-10.578h0c-6.033-2.9-12.843-4.149-19.722-3.426c-5.685,0.598-12.464,1.528-20.681,2.702
			c-38.708,5.53-45.927-16.945-45.927-16.945c-5.885,6.689-15.392,11.944-26.862,14.718c-2.958,0.715-5.721,2.022-8.284,3.664
			c-2.952,1.892-6.434,2.987-10.167,2.987c-3.884,0-7.494-1.188-10.52-3.223c-0.83-0.558-1.711-1.026-2.611-1.456
			c-0.857,8.053-1.691,30.223,12.578,44.492c0,0,9.882,18.775,12.832,39.512c0.29,2.036-0.594,4.042-2.232,5.286
			c-2.531,1.922-6.082,5.626-7.037,11.714c-0.266,1.694,1.097,3.209,2.812,3.209c5.744,0,17.997,0,22.7,0
			c1.303,0,2.545-0.563,3.37-1.572c1.996-2.442,5.095-7.575,3.163-14.318c-0.133-0.463-0.209-0.937-0.195-1.418
			c0.121-4.119,0.73-24.811,0.978-33.27c0.054-1.831,1.79-3.136,3.563-2.673C103.35,171.268,127.616,176.993,146.916,175.95z"/>
		<path class="st8" d="M159.331,208.955c-5.007,1.156-10.666,3.497-13.015,8.265c-1.13,2.294,0.489,4.984,3.046,4.984l34.614,0
			c0.06,0,0.117-0.009,0.177-0.01C176.911,216.968,169.67,211.251,159.331,208.955z"/>
		<g>
			<path class="st8" d="M146.316,217.22c2.349-4.768,8.008-7.11,13.015-8.265c-3.6-0.8-7.58-1.18-12.065-0.982
				c-0.123,0.047-0.252,0.088-0.394,0.103c-5.426,0.587-15.004,2.553-18.251,9.144c-1.13,2.294,0.489,4.984,3.046,4.984h17.695
				C146.806,222.204,145.187,219.514,146.316,217.22z"/>
		</g>
		<path class="st7" d="M66.103,78.762c0.186,0.356,0.29,0.758,0.29,1.218c0,3.496-5.766,8.413-11.322,8.534v5.41
			c0,5.799,4.701,10.499,10.499,10.499h2.57c7.135,0,12.92-5.784,12.92-12.92v0C81.061,83.398,73.766,77.514,66.103,78.762z"/>
		<path class="st7" d="M54.864,88.525c-5.618,0-11.529-5.005-11.529-8.545c0-0.271,0.046-0.517,0.112-0.751
			c-7.442-0.859-14.365,4.931-14.365,12.826v0c0,7.135,5.784,12.92,12.92,12.92h2.57c5.799,0,10.499-4.701,10.499-10.499v-5.963
			C55.002,88.515,54.933,88.525,54.864,88.525z"/>
		<path class="st7" d="M55.071,93.923v0.553c0,5.47-4.185,9.959-9.526,10.45c2.229,3.162,5.829,5.806,9.319,5.806
			c3.692,0,7.499-2.96,9.683-6.361C59.229,103.856,55.071,99.376,55.071,93.923z"/>
		<path class="st7" d="M104.442,75.696c-1.777-3.538-2.787-7.411-3.464-11.325c-3.606-20.845-22.876-36.76-46.114-36.76
			S12.355,43.526,8.75,64.371c-0.677,3.914-1.687,7.786-3.464,11.325c-1.558,3.103-2.4,6.405-2.4,9.832
			c0,13.988,13.991,25.921,33.657,30.578c2.833,0.671,5.593,1.716,8.009,3.342c3.026,2.036,6.636,3.223,10.52,3.223
			c3.733,0,7.215-1.095,10.167-2.987c2.559-1.64,5.318-2.947,8.272-3.661c19.494-4.71,33.333-16.584,33.333-30.494
			C106.843,82.101,106.001,78.798,104.442,75.696z"/>
		<g>
			<path class="st7" d="M91.014,86.174c-3.756,0-7.246,1.112-10.177,3.014c0.134,0.749,0.224,1.517,0.224,2.314v0
				c0,7.135-5.784,12.92-12.92,12.92h-2.57c-0.346,0-0.687-0.019-1.024-0.052c-2.184,3.401-5.991,6.361-9.683,6.361
				c-3.49,0-7.09-2.643-9.319-5.806c-0.321,0.03-0.644,0.049-0.973,0.049h-2.57c-7.135,0-12.92-5.784-12.92-12.92v0
				c0-0.973,0.107-1.914,0.306-2.815c-2.948-1.934-6.468-3.066-10.259-3.066c-5.983,0-11.302,2.804-14.745,7.159
				c4.098,10.503,16.275,19.011,32.158,22.772c2.833,0.671,5.593,1.716,8.009,3.342c3.026,2.036,6.636,3.223,10.52,3.223
				c3.733,0,7.215-1.095,10.167-2.987c2.559-1.64,5.318-2.947,8.272-3.661c15.904-3.843,28.04-12.454,31.972-23.049
				C102.034,88.82,96.834,86.174,91.014,86.174z"/>
		</g>
		<path class="st7" d="M94.74,48.609c3.04-0.113,6.27-1.486,8.841-4.058c4.751-4.751,5.451-11.753,1.564-15.64
			c-3.887-3.887-10.889-3.187-15.64,1.564c-2.307,2.307-3.65,5.144-3.985,7.899C89.122,41.316,92.236,44.768,94.74,48.609z"/>
		<path class="st7" d="M15.017,48.588c2.588-3.965,5.824-7.515,9.577-10.516c-0.394-2.659-1.718-5.374-3.941-7.597
			c-4.751-4.751-11.753-5.451-15.64-1.564c-3.887,3.887-3.187,10.889,1.564,15.64C9.036,47.01,12.096,48.374,15.017,48.588z"/>
		<line class="st7" x1="72.766" y1="87.833" x2="79.916" y2="86.174"/>
		<line class="st7" x1="72.213" y1="96.128" x2="78.849" y2="98.34"/>
		<line class="st7" x1="37.338" y1="87.833" x2="30.456" y2="86.237"/>
		<line class="st7" x1="37.891" y1="96.128" x2="30.975" y2="98.732"/>
		<path class="st7" d="M71.754,68.511c-0.012-3.658,2.944-6.634,6.603-6.645c3.658-0.012,6.634,2.944,6.645,6.603"/>
		<path class="st7" d="M24.391,68.49c0-3.658,2.966-6.624,6.624-6.624s6.624,2.966,6.624,6.624"/>
		<g>
			<path class="st7" d="M43.447,79.229L43.447,79.229c0.802-2.823,6.229-3.062,11.417-3.062c4.888,0,9.994,0.209,11.239,2.594v0
				c1.627-0.265,3.232-0.191,4.759,0.14c-3.695-6.202-9.944-11.507-15.999-11.507c-6.301,0-12.817,5.747-16.446,12.271
				C40.014,79.203,41.714,79.029,43.447,79.229z"/>
		</g>
		<path class="st7" d="M151.656,185.494c-1.028-2.922-1.542-5.399-1.789-7.12c-0.209-1.455-1.489-2.503-2.956-2.424
			c-19.299,1.041-43.56-4.683-52.439-6.998c-1.774-0.463-3.51,0.846-3.564,2.678l-0.492,16.74c13.98,2.25,31.538,2.689,53.509,0.558
			C146.366,187.568,148.945,186.391,151.656,185.494z"/>
		<path class="st7" d="M41.94,117.992c-0.291-0.139-0.58-0.28-0.877-0.406c-2.842,8.807-11.428,43.177,20.423,61.342
			c-3.46-9.775-6.968-16.443-6.968-16.443C40.243,148.209,41.082,126.035,41.94,117.992z"/>
		<g>
			<path class="st7" d="M60.844,177.147c0.211,0.573,0.423,1.177,0.634,1.775c0.003,0.002,0.005,0.003,0.008,0.005
				C61.272,178.322,61.058,177.728,60.844,177.147z"/>
			<path class="st7" d="M67.35,201.996c-1.194-8.391-3.522-16.439-5.872-23.073c-1.68-0.959-3.224-1.971-4.685-3.013l-6.699,24.177
				c0,0-1.791,6.665-3.778,7.196c-6.176,1.651-8.294,5.626-9.249,11.714c-0.266,1.694,1.097,3.209,2.812,3.209h21.013
				c-1.715,0-3.077-1.514-2.812-3.209c0.955-6.088,4.506-9.792,7.037-11.714C66.755,206.038,67.639,204.032,67.35,201.996z"/>
		</g>
		<path class="st7" d="M250.268,161.378c-11.059-27.648-39.814-36.496-39.814-36.496l2.212-2.212
			c-10.326-6.074-19.644-5.473-25.953-3.7c5.044,2.424,9.547,5.999,13.077,10.578v0c5.494,7.127,8.121,15.923,7.567,24.624
			c14.388,18.123-5.089,37.797-35.61,30.43c-23.317-5.628-41.373,13.295-49.494,24.045c-1.548,2.049,0.495,4.838,2.92,3.994
			c32.883-11.453,46.051,0.277,59.52,9.942c23.659,16.976,57.109,1.466,58.957-27.595l5.743,5.684
			C254.247,187.973,255.121,173.51,250.268,161.378z"/>
		<path class="st7" d="M146.916,175.95c1.464-0.079,2.741,0.966,2.949,2.417c0.247,1.72,0.764,4.203,1.792,7.126
			c6.094-2.015,12.837-2.642,20.09-0.891c8.032,1.939,15.288,1.991,21.374,0.705c0.759-1.761,1.731-3.442,2.92-4.993
			c2.721-3.55,5.811-8.373,8.297-13.902c1.767-3.929,2.753-8.074,3.018-12.24l0,0c0.542-8.502-1.99-17.388-7.567-24.624v0
			c-3.351-4.348-7.866-8.074-13.077-10.578h0c-6.033-2.9-12.843-4.149-19.722-3.426c-5.685,0.598-12.464,1.528-20.681,2.702
			c-38.708,5.53-45.927-16.945-45.927-16.945c-5.885,6.689-15.392,11.944-26.862,14.718c-2.958,0.715-5.721,2.022-8.284,3.664
			c-2.952,1.892-6.434,2.987-10.167,2.987c-3.884,0-7.494-1.188-10.52-3.223c-0.83-0.558-1.711-1.026-2.611-1.456
			c-0.857,8.053-1.691,30.223,12.578,44.492c0,0,9.882,18.775,12.832,39.512c0.29,2.036-0.594,4.042-2.232,5.286
			c-2.531,1.922-6.082,5.626-7.037,11.714c-0.266,1.694,1.097,3.209,2.812,3.209c5.744,0,17.997,0,22.7,0
			c1.303,0,2.545-0.563,3.37-1.572c1.996-2.442,5.095-7.575,3.163-14.318c-0.133-0.463-0.209-0.937-0.195-1.418
			c0.121-4.119,0.73-24.811,0.978-33.27c0.054-1.831,1.79-3.136,3.563-2.673C103.35,171.268,127.616,176.993,146.916,175.95z"/>
		<path class="st7" d="M159.331,208.955c-5.007,1.156-10.666,3.497-13.015,8.265c-1.13,2.294,0.489,4.984,3.046,4.984l34.614,0
			c0.06,0,0.117-0.009,0.177-0.01C176.911,216.968,169.67,211.251,159.331,208.955z"/>
		<g>
			<path class="st7" d="M146.316,217.22c2.349-4.768,8.008-7.11,13.015-8.265c-3.6-0.8-7.58-1.18-12.065-0.982
				c-0.123,0.047-0.252,0.088-0.394,0.103c-5.426,0.587-15.004,2.553-18.251,9.144c-1.13,2.294,0.489,4.984,3.046,4.984h17.695
				C146.806,222.204,145.187,219.514,146.316,217.22z"/>
		</g>
		<path class="st7" d="M228.15,152.53c0,0,12.165,8.847,8.847,28.754l-4.424-2.212c0,0-5.53,23.225-25.436,26.542"/>
		<path class="st7" d="M66.393,79.98c0,3.539-5.911,8.545-11.529,8.545s-11.529-5.005-11.529-8.545s5.911-3.812,11.529-3.812
			S66.393,76.44,66.393,79.98z"/>
		<path class="st7" d="M107.63,34.731c-0.121-2.208-0.93-4.265-2.485-5.82c-6.2-6.199-18.446-0.231-19.625,9.463
			c2.168,1.77,4.133,3.745,5.921,5.859C93.491,37.076,101.435,32.45,107.63,34.731z"/>
		<path class="st7" d="M24.55,38.11c-0.932-6.441-6.966-11.672-13.12-11.71c-4.925-0.01-8.623,3.355-8.901,8.319
			c6.002-2.174,13.804,2.096,16.035,9.208C20.373,41.825,22.361,39.865,24.55,38.11z"/>
	</g>
</g>
<g id="Layer_23">
</g>
<g id="Layer_24">
</g>
<g id="Layer_25">
</g>
<g id="Layer_26">
</g>
<g id="Layer_27">
</g>
<g id="Layer_28">
</g>
<g id="Layer_29">
</g>
<g id="Layer_30">
</g>
<g id="Layer_31">
</g>
<g id="Layer_32">
</g>
<g id="Layer_33">
</g>
<g id="Layer_34">
</g>
<g id="Layer_35">
</g>
<g id="Layer_36">
</g>
<g id="Layer_37">
</g>
<g id="Layer_38">
</g>
<g id="Layer_39">
</g>
<g id="Layer_40">
</g>
<g id="Layer_41">
</g>
<g id="Layer_42">
</g>
<g id="Layer_43">
</g>
<g id="Layer_44">
</g>
<g id="Layer_45">
</g>
<g id="Layer_46">
</g>
<g id="Layer_47">
</g>
<g id="Layer_48">
</g>
<g id="Layer_49">
</g>
<g id="Layer_50">
</g>
<g id="Layer_51">
</g>
<g id="Layer_52">
</g>
<g id="Layer_53">
</g>
<g id="Layer_54">
</g>
<g id="Layer_55">
</g>
<g id="Layer_56">
</g>
<g id="Layer_57">
</g>
<g id="Layer_58">
</g>
<g id="Layer_59">
</g>
<g id="Layer_60">
</g>
<g id="Layer_61">
</g>
<g id="Layer_62">
</g>
<g id="Layer_63">
</g>
<g id="Layer_64">
</g>
<g id="Layer_65">
</g>
<g id="Layer_66">
</g>
<g id="Layer_67">
</g>
<g id="Layer_68">
</g>
<g id="Layer_69">
</g>
<g id="Layer_70">
</g>
<g id="Layer_71">
</g>
<g id="Layer_72">
</g>
<g id="Layer_73">
</g>
<g id="Layer_74">
</g>
<g id="Layer_75">
</g>
<g id="Layer_76">
</g>
<g id="Layer_77">
</g>
<g id="Layer_78">
</g>
<g id="Layer_79">
</g>
<g id="Layer_80">
</g>
<g id="Layer_81">
</g>
<g id="Layer_82">
</g>
<g id="Layer_83">
</g>
<g id="Layer_84">
</g>
<g id="Layer_85">
</g>
<g id="Layer_86">
</g>
<g id="Layer_87">
</g>
<g id="Layer_88">
</g>
<g id="Layer_89">
</g>
<g id="Layer_90">
</g>
<g id="Layer_91">
</g>
<g id="Layer_92">
</g>
<g id="Layer_93">
</g>
<g id="Layer_94">
</g>
<g id="Layer_95">
</g>
<g id="Layer_96">
</g>
<g id="Layer_97">
</g>
<g id="Layer_98">
</g>
<g id="Layer_99">
</g>
<g id="Layer_100">
</g>
</svg>
