<?xml version="1.0" encoding="utf-8"?>
<!-- Generator: Adobe Illustrator 22.0.0, SVG Export Plug-In . SVG Version: 6.00 Build 0)  -->
<svg version="1.1" xmlns="http://www.w3.org/2000/svg" xmlns:xlink="http://www.w3.org/1999/xlink" x="0px" y="0px"
	 viewBox="0 0 256 256" style="enable-background:new 0 0 256 256;" xml:space="preserve">
<style type="text/css">
	.st0{fill:#F9BD55;}
	.st1{fill:#F4DBCE;}
	.st2{fill:#52565B;}
	.st3{fill:#FD605B;}
	.st4{fill:#F98080;}
	.st5{fill:#F9E63A;}
	.st6{fill:#039BE6;}
	.st7{fill:none;stroke:#000000;stroke-width:5;stroke-linecap:round;stroke-linejoin:round;stroke-miterlimit:10;}
	.st8{fill:#7D3D1A;}
	.st9{fill:#EAA250;}
	.st10{fill:#DD7F57;}
	.st11{fill:#FFC097;}
	.st12{fill:#F49667;}
	.st13{fill:#F89422;}
	.st14{fill:#E3E4E5;}
	.st15{fill:#6E7175;}
	.st16{fill:#46BAF9;}
	.st17{fill:#D9F3FF;}
	.st18{fill:#828487;}
	.st19{fill:#A8AEB2;}
	.st20{fill:#C9CDD1;}
	.st21{fill:#8CD8F9;}
	.st22{fill:#1AA7E5;}
	.st23{fill:#ACE7FC;}
	.st24{fill:#FFFFFF;}
	.st25{fill:#9E512B;}
	.st26{fill:#7ED5FC;}
	.st27{fill:#7CCC4E;}
	.st28{fill:#3AA03A;}
	.st29{fill:#FCB1B1;}
	.st30{fill:#F76E23;}
	.st31{fill:#C16A44;}
	.st32{fill:#B796EA;}
</style>
<g id="Layer_1">
</g>
<g id="Layer_2">
</g>
<g id="Layer_3">
</g>
<g id="Layer_4">
</g>
<g id="Layer_5">
</g>
<g id="Layer_6">
</g>
<g id="Layer_7">
</g>
<g id="Layer_8">
</g>
<g id="Layer_9">
</g>
<g id="Layer_10">
</g>
<g id="Layer_11">
</g>
<g id="Layer_12">
</g>
<g id="Layer_13">
</g>
<g id="Layer_14">
</g>
<g id="Layer_15">
</g>
<g id="Layer_16">
</g>
<g id="Layer_17">
</g>
<g id="Layer_18">
</g>
<g id="Layer_19">
</g>
<g id="Layer_20">
</g>
<g id="Layer_21">
</g>
<g id="Layer_22">
</g>
<g id="Layer_23">
</g>
<g id="Layer_24">
</g>
<g id="Layer_25">
</g>
<g id="Layer_26">
</g>
<g id="Layer_27">
</g>
<g id="Layer_28">
</g>
<g id="Layer_29">
</g>
<g id="Layer_30">
</g>
<g id="Layer_31">
</g>
<g id="Layer_32">
</g>
<g id="Layer_33">
</g>
<g id="Layer_34">
</g>
<g id="Layer_35">
</g>
<g id="Layer_36">
</g>
<g id="Layer_37">
</g>
<g id="Layer_38">
</g>
<g id="Layer_39">
</g>
<g id="Layer_40">
</g>
<g id="Layer_41">
</g>
<g id="Layer_42">
</g>
<g id="Layer_43">
	<g>
		<path class="st27" d="M26.792,194.557c2.64-1.416,5.984-1.167,8.404,0.89c2.108,1.793,2.971,4.5,2.516,7.041
			c-2.64,1.416-5.984,1.167-8.404-0.89C27.2,199.805,26.337,197.098,26.792,194.557z"/>
		<path class="st27" d="M61.485,208.155c2.113,2.123,2.835,5.398,1.557,8.306c-1.113,2.534-3.459,4.137-6.024,4.43
			c-2.113-2.123-2.835-5.398-1.557-8.306C56.574,210.051,58.92,208.448,61.485,208.155z"/>
		<path class="st27" d="M174.111,241.55c2.994-0.101,5.883,1.602,7.142,4.518c1.097,2.541,0.672,5.351-0.86,7.428
			c-2.994,0.101-5.883-1.602-7.142-4.518C172.154,246.437,172.578,243.627,174.111,241.55z"/>
		<path class="st25" d="M116.822,230.228c0.1-2.318,0.015-4.948-0.276-7.736c0.538-0.018,1.056-0.032,1.6-0.052
			c5.042-0.183,10.251-0.272,15.556-0.284c-0.331,3.07-0.412,5.954-0.273,8.448C127.953,230.387,122.408,230.256,116.822,230.228z"
			/>
		<path class="st25" d="M159.735,222.64c47.377,1.743,93.763,7.579,93.763,7.579v17.632c0,0-40.936-10.871-93.672-15.541
			C160.11,229.592,160.096,226.251,159.735,222.64z"/>
		<path class="st25" d="M40.238,217.776c0,0,13.968,4.504,50.252,5.012c-0.225,2.259-0.312,4.406-0.276,6.367
			C69.55,227.282,53.099,223.08,40.238,217.776z"/>
		<path class="st25" d="M58.606,140.18c2.782-18.993,11.944-34.869,23.873-44.078c4.739,2.799,10.023,4.372,15.6,4.372
			c0.007,0,0.014-0.001,0.021-0.001c7.712,12.123,11.275,28.933,8.665,46.761c-3.068,20.95-13.888,38.136-27.636,46.732
			c-2.48,1.551-5.517,1.106-7.448-1.091C60.975,180.697,55.538,161.13,58.606,140.18z"/>
		<path class="st25" d="M151.67,100.473c5.577,0,10.861-1.572,15.601-4.372c11.929,9.21,21.091,25.086,23.873,44.078
			c3.068,20.95-2.37,40.517-13.075,52.694c-1.931,2.197-4.968,2.642-7.448,1.091c-13.747-8.596-24.567-25.782-27.636-46.732
			c-2.611-17.828,0.952-34.638,8.665-46.76C151.656,100.472,151.663,100.473,151.67,100.473z"/>
		<g>
			<path class="st25" d="M106.764,147.233c2.611-17.828-0.953-34.638-8.665-46.761c5.206-0.004,10.148-1.395,14.636-3.86l5.65,6.703
				c3.391,4.023,9.588,4.023,12.979,0l6.035-7.159l-0.391,0.464c4.489,2.465,9.435,3.849,14.642,3.853
				c-7.712,12.123-11.275,28.933-8.665,46.76c2.868,19.585,12.513,35.877,24.989,44.94c-10.47,14.048-25.89,22.941-43.099,22.941
				c-17.21,0-32.629-8.893-43.099-22.941C94.251,183.11,103.896,166.818,106.764,147.233z"/>
		</g>
		<path class="st25" d="M94.105,24.131c-7.27,0-12.772-1.924-16.937-4.729c0.007-0.005,0.014-0.011,0.021-0.016
			c9.701-8.509,27.423-14.208,47.686-14.208c20.263,0,37.986,5.699,47.687,14.209c0.007,0.005,0.013,0.01,0.02,0.015
			c-4.166,2.806-9.667,4.729-16.937,4.729c-25.989,0-30.476,23.026-30.77,24.711C124.581,47.157,120.094,24.131,94.105,24.131z"/>
		<path class="st25" d="M137.398,96.156c2.712-3.217,3.195-7.743,1.111-11.38c-1.416-2.471-3.712-5.185-7.423-7.502
			c-2.637-15.417,0.317-33.712,28.335-39.655c10.102-2.143,16.545-6.286,20.608-11.119c5.315,6.821,8.523,16.066,8.523,27.384
			c0,25.73-16.513,46.589-36.883,46.589c-5.215,0-10.168-1.385-14.663-3.853L137.398,96.156z"/>
		<path class="st25" d="M69.72,26.5c4.063,4.832,10.507,8.976,20.609,11.119c28.016,5.943,30.972,24.238,28.336,39.654
			c-3.712,2.317-6.008,5.032-7.424,7.503c-2.084,3.636-1.601,8.162,1.111,11.38l0.385,0.457c-4.494,2.468-9.443,3.861-14.657,3.861
			c-20.37,0-36.882-20.858-36.882-46.589C61.196,42.566,64.405,33.321,69.72,26.5z"/>
		<path class="st18" d="M63.399,3.569c0.122-1.293,1.929-1.465,2.324-0.227c2.474,7.765,9.447,20.79,28.382,20.79
			c25.989,0,30.476,23.026,30.77,24.711c0.294-1.684,4.781-24.711,30.77-24.711c18.935,0,25.908-13.025,28.382-20.79
			c0.395-1.238,2.201-1.066,2.324,0.227c0.917,9.693-0.864,28.521-26.929,34.05c-28.017,5.943-30.973,24.238-28.336,39.654
			c-0.017-0.011-0.035-0.022-0.052-0.033c-3.753-2.33-8.563-2.33-12.316,0l-0.052,0.033c2.637-15.417-0.32-33.712-28.336-39.654
			C64.263,32.09,62.482,13.262,63.399,3.569z"/>
		<g>
			<path class="st11" d="M98.1,100.472c5.206-0.004,10.148-1.395,14.636-3.86l5.65,6.703c3.391,4.023,9.588,4.023,12.979,0
				l6.035-7.159l-0.391,0.464c4.489,2.465,9.435,3.849,14.642,3.853c-7.712,12.123-11.275,28.933-8.665,46.76
				c1.688,11.524,5.734,21.892,11.311,30.334c-7.79,10.268-17.997,16.507-29.182,16.507c-11.307,0-21.617-6.371-29.438-16.839
				c5.463-8.381,9.424-18.629,11.089-30.001C109.375,129.405,105.812,112.595,98.1,100.472z"/>
		</g>
		<path class="st11" d="M159.421,37.619c0.864-0.183,1.696-0.383,2.508-0.595c6.692,3.665,11.231,10.77,11.231,18.938
			c0,11.918-9.662,21.58-21.58,21.58c-9.772,0-18.016-6.499-20.673-15.407C132.893,51.442,140.344,41.665,159.421,37.619z"/>
		<path class="st11" d="M87.214,36.853c1.002,0.274,2.03,0.535,3.114,0.766c18.89,4.007,26.382,13.631,28.456,24.201
			c-2.726,8.794-10.924,15.182-20.615,15.182c-11.918,0-21.58-9.662-21.58-21.58C76.589,47.508,80.862,40.609,87.214,36.853z"/>
		<path class="st0" d="M95.764,205.795c5.841,4.052,12.353,6.921,19.297,8.327c0.582,2.227,1.064,4.739,1.386,7.427
			c1.135,9.467-0.104,17.4-2.767,17.719c-1.636,0.196-3.427-2.528-4.829-6.853c-0.235-0.725-1.278-0.687-1.435,0.059
			c-0.885,4.197-2.293,6.917-3.882,6.917c-1.589,0-2.998-2.719-3.882-6.917c-0.157-0.746-1.2-0.784-1.435-0.059
			c-1.402,4.324-3.194,7.049-4.829,6.853c-2.662-0.319-3.901-8.252-2.767-17.719C91.513,214.095,93.612,207.932,95.764,205.795z"/>
		<path class="st0" d="M135.162,214.014c6.907-1.469,13.383-4.373,19.183-8.463c2.193,2.023,4.352,8.285,5.262,15.875
			c1.135,9.467-0.104,17.4-2.767,17.719c-1.636,0.196-3.427-2.528-4.829-6.853c-0.235-0.725-1.278-0.687-1.435,0.059
			c-0.885,4.197-2.293,6.917-3.882,6.917c-1.589,0-2.998-2.719-3.882-6.917c-0.157-0.746-1.2-0.784-1.435-0.059
			c-1.402,4.324-3.194,7.049-4.829,6.853c-2.662-0.319-3.901-8.252-2.767-17.719C134.101,218.744,134.583,216.238,135.162,214.014z"
			/>
		<path class="st0" d="M111.24,84.776c1.411-2.461,3.69-5.164,7.375-7.475c3.812-2.39,8.707-2.39,12.519,0
			c3.685,2.311,5.965,5.014,7.375,7.475c2.084,3.636,1.601,8.162-1.111,11.38l-6.035,7.159c-3.391,4.023-9.588,4.023-12.979,0
			l-6.035-7.159C109.639,92.938,109.156,88.412,111.24,84.776z"/>
		<path class="st7" d="M40.238,217.776c-21.624-8.918-33.156-20.921-37.736-30.081"/>
		<path class="st7" d="M116.822,230.228c0.1-2.318,0.015-4.948-0.276-7.736c0.538-0.018,1.056-0.032,1.6-0.052
			c5.042-0.183,10.251-0.272,15.556-0.284c-0.331,3.07-0.412,5.954-0.273,8.448C127.953,230.387,122.408,230.256,116.822,230.228z"
			/>
		<path class="st7" d="M159.735,222.64c47.377,1.743,93.763,7.579,93.763,7.579v17.632c0,0-40.936-10.871-93.672-15.541
			C160.11,229.592,160.096,226.251,159.735,222.64z"/>
		<path class="st7" d="M40.238,217.776c0,0,13.968,4.504,50.252,5.012c-0.225,2.259-0.312,4.406-0.276,6.367
			C69.55,227.282,53.099,223.08,40.238,217.776z"/>
		<path class="st7" d="M192.574,236.105c0,0-17.573,0.668-28.573,11.668"/>
		<path class="st7" d="M40.002,195.773c0,0-3,18,8,24"/>
		<path class="st7" d="M26.792,194.557c2.64-1.416,5.984-1.167,8.404,0.89c2.108,1.793,2.971,4.5,2.516,7.041
			c-2.64,1.416-5.984,1.167-8.404-0.89C27.2,199.805,26.337,197.098,26.792,194.557z"/>
		<path class="st7" d="M61.485,208.155c2.113,2.123,2.835,5.398,1.557,8.306c-1.113,2.534-3.459,4.137-6.024,4.43
			c-2.113-2.123-2.835-5.398-1.557-8.306C56.574,210.051,58.92,208.448,61.485,208.155z"/>
		<path class="st7" d="M174.111,241.55c2.994-0.101,5.883,1.602,7.142,4.518c1.097,2.541,0.672,5.351-0.86,7.428
			c-2.994,0.101-5.883-1.602-7.142-4.518C172.154,246.437,172.578,243.627,174.111,241.55z"/>
		<path class="st7" d="M58.606,140.18c2.782-18.993,11.944-34.869,23.873-44.078c4.739,2.799,10.023,4.372,15.6,4.372
			c0.007,0,0.014-0.001,0.021-0.001c7.712,12.123,11.275,28.933,8.665,46.761c-3.068,20.95-13.888,38.136-27.636,46.732
			c-2.48,1.551-5.517,1.106-7.448-1.091C60.975,180.697,55.538,161.13,58.606,140.18z"/>
		<path class="st7" d="M89.303,144.518c-2.876,19.638-9.958,36.35-18.483,45.984"/>
		<path class="st7" d="M72.969,152.251c-1.637,11.181-4.934,20.803-8.66,26.453"/>
		<path class="st7" d="M161.419,144.518c2.876,19.638,9.958,36.35,18.483,45.984"/>
		<path class="st7" d="M177.753,152.251c1.637,11.181,4.934,20.803,8.66,26.453"/>
		<path class="st7" d="M151.67,100.473c5.577,0,10.861-1.572,15.601-4.372c11.929,9.21,21.091,25.086,23.873,44.078
			c3.068,20.95-2.37,40.517-13.075,52.694c-1.931,2.197-4.968,2.642-7.448,1.091c-13.747-8.596-24.567-25.782-27.636-46.732
			c-2.611-17.828,0.952-34.638,8.665-46.76C151.656,100.472,151.663,100.473,151.67,100.473z"/>
		<g>
			<path class="st7" d="M106.764,147.233c2.611-17.828-0.953-34.638-8.665-46.761c5.206-0.004,10.148-1.395,14.636-3.86l5.65,6.703
				c3.391,4.023,9.588,4.023,12.979,0l6.035-7.159l-0.391,0.464c4.489,2.465,9.435,3.849,14.642,3.853
				c-7.712,12.123-11.275,28.933-8.665,46.76c2.868,19.585,12.513,35.877,24.989,44.94c-10.47,14.048-25.89,22.941-43.099,22.941
				c-17.21,0-32.629-8.893-43.099-22.941C94.251,183.11,103.896,166.818,106.764,147.233z"/>
		</g>
		<path class="st7" d="M95.764,205.795c5.841,4.052,12.353,6.921,19.297,8.327c0.582,2.227,1.064,4.739,1.386,7.427
			c1.135,9.467-0.104,17.4-2.767,17.719c-1.636,0.196-3.427-2.528-4.829-6.853c-0.235-0.725-1.278-0.687-1.435,0.059
			c-0.885,4.197-2.293,6.917-3.882,6.917c-1.589,0-2.998-2.719-3.882-6.917c-0.157-0.746-1.2-0.784-1.435-0.059
			c-1.402,4.324-3.194,7.049-4.829,6.853c-2.662-0.319-3.901-8.252-2.767-17.719C91.513,214.095,93.612,207.932,95.764,205.795z"/>
		<path class="st7" d="M135.162,214.014c6.907-1.469,13.383-4.373,19.183-8.463c2.193,2.023,4.352,8.285,5.262,15.875
			c1.135,9.467-0.104,17.4-2.767,17.719c-1.636,0.196-3.427-2.528-4.829-6.853c-0.235-0.725-1.278-0.687-1.435,0.059
			c-0.885,4.197-2.293,6.917-3.882,6.917c-1.589,0-2.998-2.719-3.882-6.917c-0.157-0.746-1.2-0.784-1.435-0.059
			c-1.402,4.324-3.194,7.049-4.829,6.853c-2.662-0.319-3.901-8.252-2.767-17.719C134.101,218.744,134.583,216.238,135.162,214.014z"
			/>
		<path class="st7" d="M94.105,24.131c-7.27,0-12.772-1.924-16.937-4.729c0.007-0.005,0.014-0.011,0.021-0.016
			c9.701-8.509,27.423-14.208,47.686-14.208c20.263,0,37.986,5.699,47.687,14.209c0.007,0.005,0.013,0.01,0.02,0.015
			c-4.166,2.806-9.667,4.729-16.937,4.729c-25.989,0-30.476,23.026-30.77,24.711C124.581,47.157,120.094,24.131,94.105,24.131z"/>
		<path class="st7" d="M137.398,96.156c2.712-3.217,3.195-7.743,1.111-11.38c-1.416-2.471-3.712-5.185-7.423-7.502
			c-2.637-15.417,0.317-33.712,28.335-39.655c10.102-2.143,16.545-6.286,20.608-11.119c5.315,6.821,8.523,16.066,8.523,27.384
			c0,25.73-16.513,46.589-36.883,46.589c-5.215,0-10.168-1.385-14.663-3.853L137.398,96.156z"/>
		<path class="st7" d="M69.72,26.5c4.063,4.832,10.507,8.976,20.609,11.119c28.016,5.943,30.972,24.238,28.336,39.654
			c-3.712,2.317-6.008,5.032-7.424,7.503c-2.084,3.636-1.601,8.162,1.111,11.38l0.385,0.457c-4.494,2.468-9.443,3.861-14.657,3.861
			c-20.37,0-36.882-20.858-36.882-46.589C61.196,42.566,64.405,33.321,69.72,26.5z"/>
		<path class="st7" d="M111.24,84.776c1.411-2.461,3.69-5.164,7.375-7.475c3.812-2.39,8.707-2.39,12.519,0
			c3.685,2.311,5.965,5.014,7.375,7.475c2.084,3.636,1.601,8.162-1.111,11.38l-6.035,7.159c-3.391,4.023-9.588,4.023-12.979,0
			l-6.035-7.159C109.639,92.938,109.156,88.412,111.24,84.776z"/>
		<path class="st7" d="M159.421,37.619c0.864-0.183,1.696-0.383,2.508-0.595c6.692,3.665,11.231,10.77,11.231,18.938
			c0,11.918-9.662,21.58-21.58,21.58c-9.772,0-18.016-6.499-20.673-15.407C132.893,51.442,140.344,41.665,159.421,37.619z"/>
		<path class="st7" d="M87.214,36.853c1.002,0.274,2.03,0.535,3.114,0.766c18.89,4.007,26.382,13.631,28.456,24.201
			c-2.726,8.794-10.924,15.182-20.615,15.182c-11.918,0-21.58-9.662-21.58-21.58C76.589,47.508,80.862,40.609,87.214,36.853z"/>
		<path class="st7" d="M105.496,60.505c0.011-3.468-2.791-6.288-6.259-6.299c-3.468-0.011-6.288,2.791-6.299,6.259"/>
		<path class="st7" d="M156.228,60.484c0-3.468-2.811-6.279-6.279-6.279c-3.468,0-6.279,2.811-6.279,6.279"/>
		<path class="st7" d="M63.399,3.569c0.122-1.293,1.929-1.465,2.324-0.227c2.474,7.765,9.447,20.79,28.382,20.79
			c25.989,0,30.476,23.026,30.77,24.711c0.294-1.684,4.781-24.711,30.77-24.711c18.935,0,25.908-13.025,28.382-20.79
			c0.395-1.238,2.201-1.066,2.324,0.227c0.917,9.693-0.864,28.521-26.929,34.05c-28.017,5.943-30.973,24.238-28.336,39.654
			c-0.017-0.011-0.035-0.022-0.052-0.033c-3.753-2.33-8.563-2.33-12.316,0l-0.052,0.033c2.637-15.417-0.32-33.712-28.336-39.654
			C64.263,32.09,62.482,13.262,63.399,3.569z"/>
		<g>
			<path class="st7" d="M98.1,100.472c5.206-0.004,10.148-1.395,14.636-3.86l5.65,6.703c3.391,4.023,9.588,4.023,12.979,0
				l6.035-7.159l-0.391,0.464c4.489,2.465,9.435,3.849,14.642,3.853c-7.712,12.123-11.275,28.933-8.665,46.76
				c1.688,11.524,5.734,21.892,11.311,30.334c-7.79,10.268-17.997,16.507-29.182,16.507c-11.307,0-21.617-6.371-29.438-16.839
				c5.463-8.381,9.424-18.629,11.089-30.001C109.375,129.405,105.812,112.595,98.1,100.472z"/>
		</g>
	</g>
</g>
<g id="Layer_44">
</g>
<g id="Layer_45">
</g>
<g id="Layer_46">
</g>
<g id="Layer_47">
</g>
<g id="Layer_48">
</g>
<g id="Layer_49">
</g>
<g id="Layer_50">
</g>
<g id="Layer_51">
</g>
<g id="Layer_52">
</g>
<g id="Layer_53">
</g>
<g id="Layer_54">
</g>
<g id="Layer_55">
</g>
<g id="Layer_56">
</g>
<g id="Layer_57">
</g>
<g id="Layer_58">
</g>
<g id="Layer_59">
</g>
<g id="Layer_60">
</g>
<g id="Layer_61">
</g>
<g id="Layer_62">
</g>
<g id="Layer_63">
</g>
<g id="Layer_64">
</g>
<g id="Layer_65">
</g>
<g id="Layer_66">
</g>
<g id="Layer_67">
</g>
<g id="Layer_68">
</g>
<g id="Layer_69">
</g>
<g id="Layer_70">
</g>
<g id="Layer_71">
</g>
<g id="Layer_72">
</g>
<g id="Layer_73">
</g>
<g id="Layer_74">
</g>
<g id="Layer_75">
</g>
<g id="Layer_76">
</g>
<g id="Layer_77">
</g>
<g id="Layer_78">
</g>
<g id="Layer_79">
</g>
<g id="Layer_80">
</g>
<g id="Layer_81">
</g>
<g id="Layer_82">
</g>
<g id="Layer_83">
</g>
<g id="Layer_84">
</g>
<g id="Layer_85">
</g>
<g id="Layer_86">
</g>
<g id="Layer_87">
</g>
<g id="Layer_88">
</g>
<g id="Layer_89">
</g>
<g id="Layer_90">
</g>
<g id="Layer_91">
</g>
<g id="Layer_92">
</g>
<g id="Layer_93">
</g>
<g id="Layer_94">
</g>
<g id="Layer_95">
</g>
<g id="Layer_96">
</g>
<g id="Layer_97">
</g>
<g id="Layer_98">
</g>
<g id="Layer_99">
</g>
<g id="Layer_100">
</g>
</svg>
