<?xml version="1.0" encoding="utf-8"?>
<!-- Generator: Adobe Illustrator 22.0.0, SVG Export Plug-In . SVG Version: 6.00 Build 0)  -->
<svg version="1.1" xmlns="http://www.w3.org/2000/svg" xmlns:xlink="http://www.w3.org/1999/xlink" x="0px" y="0px"
	 viewBox="0 0 256 256" style="enable-background:new 0 0 256 256;" xml:space="preserve">
<style type="text/css">
	.st0{fill:#F9BD55;}
	.st1{fill:#F4DBCE;}
	.st2{fill:#52565B;}
	.st3{fill:#FD605B;}
	.st4{fill:#F98080;}
	.st5{fill:#F9E63A;}
	.st6{fill:#039BE6;}
	.st7{fill:none;stroke:#000000;stroke-width:5;stroke-linecap:round;stroke-linejoin:round;stroke-miterlimit:10;}
	.st8{fill:#7D3D1A;}
	.st9{fill:#EAA250;}
	.st10{fill:#DD7F57;}
	.st11{fill:#FFC097;}
	.st12{fill:#F49667;}
	.st13{fill:#F89422;}
	.st14{fill:#E3E4E5;}
	.st15{fill:#6E7175;}
	.st16{fill:#46BAF9;}
	.st17{fill:#D9F3FF;}
	.st18{fill:#828487;}
	.st19{fill:#A8AEB2;}
	.st20{fill:#C9CDD1;}
	.st21{fill:#8CD8F9;}
	.st22{fill:#1AA7E5;}
	.st23{fill:#ACE7FC;}
	.st24{fill:#FFFFFF;}
	.st25{fill:#9E512B;}
	.st26{fill:#7ED5FC;}
	.st27{fill:#7CCC4E;}
	.st28{fill:#3AA03A;}
	.st29{fill:#FCB1B1;}
	.st30{fill:#F76E23;}
	.st31{fill:#C16A44;}
	.st32{fill:#B796EA;}
</style>
<g id="Layer_1">
</g>
<g id="Layer_2">
</g>
<g id="Layer_3">
</g>
<g id="Layer_4">
</g>
<g id="Layer_5">
</g>
<g id="Layer_6">
</g>
<g id="Layer_7">
</g>
<g id="Layer_8">
</g>
<g id="Layer_9">
</g>
<g id="Layer_10">
</g>
<g id="Layer_11">
</g>
<g id="Layer_12">
</g>
<g id="Layer_13">
</g>
<g id="Layer_14">
</g>
<g id="Layer_15">
</g>
<g id="Layer_16">
</g>
<g id="Layer_17">
</g>
<g id="Layer_18">
</g>
<g id="Layer_19">
</g>
<g id="Layer_20">
</g>
<g id="Layer_21">
</g>
<g id="Layer_22">
</g>
<g id="Layer_23">
</g>
<g id="Layer_24">
</g>
<g id="Layer_25">
</g>
<g id="Layer_26">
</g>
<g id="Layer_27">
</g>
<g id="Layer_28">
</g>
<g id="Layer_29">
</g>
<g id="Layer_30">
</g>
<g id="Layer_31">
</g>
<g id="Layer_32">
</g>
<g id="Layer_33">
</g>
<g id="Layer_34">
</g>
<g id="Layer_35">
</g>
<g id="Layer_36">
</g>
<g id="Layer_37">
</g>
<g id="Layer_38">
</g>
<g id="Layer_39">
</g>
<g id="Layer_40">
</g>
<g id="Layer_41">
</g>
<g id="Layer_42">
</g>
<g id="Layer_43">
</g>
<g id="Layer_44">
</g>
<g id="Layer_45">
</g>
<g id="Layer_46">
</g>
<g id="Layer_47">
</g>
<g id="Layer_48">
</g>
<g id="Layer_49">
</g>
<g id="Layer_50">
</g>
<g id="Layer_51">
</g>
<g id="Layer_52">
</g>
<g id="Layer_53">
</g>
<g id="Layer_54">
</g>
<g id="Layer_55">
</g>
<g id="Layer_56">
</g>
<g id="Layer_57">
</g>
<g id="Layer_58">
</g>
<g id="Layer_59">
</g>
<g id="Layer_60">
</g>
<g id="Layer_61">
</g>
<g id="Layer_62">
</g>
<g id="Layer_63">
</g>
<g id="Layer_64">
</g>
<g id="Layer_65">
</g>
<g id="Layer_66">
</g>
<g id="Layer_67">
</g>
<g id="Layer_68">
</g>
<g id="Layer_69">
</g>
<g id="Layer_70">
</g>
<g id="Layer_71">
</g>
<g id="Layer_72">
</g>
<g id="Layer_73">
</g>
<g id="Layer_74">
</g>
<g id="Layer_75">
</g>
<g id="Layer_76">
</g>
<g id="Layer_77">
</g>
<g id="Layer_78">
</g>
<g id="Layer_79">
</g>
<g id="Layer_80">
</g>
<g id="Layer_81">
</g>
<g id="Layer_82">
</g>
<g id="Layer_83">
</g>
<g id="Layer_84">
</g>
<g id="Layer_85">
</g>
<g id="Layer_86">
</g>
<g id="Layer_87">
</g>
<g id="Layer_88">
	<g>
		<path class="st2" d="M194.683,237.518c-1.088-0.014-1.809-1.135-1.386-2.138l11.67-27.648
			c15.488-43.468-2.486-52.659-20.935-52.48c1.851,22.297-1.088,48.777-16.049,75.125c-1.786,3.145-0.929,7.031,1.979,9.303
			c1.823,1.425,3.803,3.223,5.418,5.304c2.428,3.128,0.533,7.397-3.148,8.326l0.189,0.19h37.796
			C213.564,239.221,200.226,237.592,194.683,237.518z"/>
		<path class="st2" d="M60.65,155.253c-18.45-0.179-36.423,9.011-20.935,52.48l11.67,27.648c0.423,1.003-0.297,2.123-1.386,2.138
			c-5.544,0.074-18.882,1.702-15.533,15.982H72.26l0.189-0.19c-3.681-0.929-5.576-5.198-3.148-8.326
			c1.615-2.081,3.595-3.879,5.418-5.304c2.907-2.272,3.764-6.158,1.979-9.303C61.738,204.031,58.798,177.55,60.65,155.253z"/>
		<path class="st2" d="M169.961,239.68c-2.907-2.272-3.764-6.158-1.979-9.303c16.306-28.717,18.338-57.588,15.443-81.023
			c-1.634-13.227-7.477-25.551-16.469-35.335c-3.274,2.834-6.994,5.356-11.082,7.492v0c-0.297,0.568-0.621,1.127-0.998,1.662
			c-2.459,3.494-6.111,5.667-10.04,6.333l-0.023,0.023c0.235-0.037,0.469-0.072,0.702-0.12
			c-4.103,8.799-13.011,14.596-22.897,14.596c-9.836,0-18.788-5.763-22.907-14.623c-3.675-0.789-7.058-2.912-9.378-6.209
			c-0.377-0.536-0.702-1.094-0.999-1.663l0.001,0.002c-4.209-2.2-8.028-4.808-11.372-7.746c-9.127,9.825-15.06,22.249-16.708,35.592
			c-2.894,23.437-0.862,52.307,15.443,81.021c1.786,3.145,0.928,7.031-1.979,9.303c-1.823,1.425-3.803,3.223-5.418,5.304
			c-2.738,3.527,0.017,8.516,4.637,8.516h26.778c2.996,0,5.349-2.175,5.638-4.851v0c0.009-0.083,0.035-0.162,0.04-0.246
			c10.23,3.673,21.576,3.702,31.891,0c0.02,0.101,0.032,0.167,0.04,0.239v0c0.285,2.68,2.639,4.859,5.638,4.859h26.778
			c4.621,0,7.375-4.989,4.637-8.516C173.764,242.903,171.784,241.105,169.961,239.68z"/>
		<path class="st18" d="M139.053,167.024c5.976,4.985,8.928,12.778,7.574,20.442c-0.081,0.46-0.165,0.878-0.251,1.243
			c-3.105,13.176-4.402,26.714-4.402,40.252c-0.187,2.504,0.738,6.568-1.996,12.577c-0.841,1.849-1.631,4.648-1.653,7.104
			c-0.008-0.072-0.019-0.137-0.04-0.239c-10.328,3.708-21.579,3.702-31.891,0c-0.005,0.084-0.031,0.163-0.04,0.246
			c-0.023-2.587-0.863-5.375-1.653-7.112c-2.73-5.999-1.808-10.049-1.996-12.577c0-13.537-1.297-27.075-4.402-40.252
			c-0.043-0.181-0.085-0.375-0.126-0.58c-1.604-7.944,1.512-16.107,7.841-21.17l0.336-0.269
			C115.948,159.016,129.619,159.155,139.053,167.024L139.053,167.024z"/>
		<path class="st14" d="M100.34,243.501c-3.157,0-5.787,2.252-6.375,5.236c0,0.001,0,0.001,0,0.001
			c-0.587-2.985-3.217-5.238-6.375-5.238c-3.086,0-5.665,2.153-6.329,5.038c-0.466-3.132-3.159-5.538-6.421-5.538
			c-3.504,0-6.353,2.775-6.487,6.246c0.552,2.314,2.706,4.252,5.586,4.252h26.778c2.996,0,5.35-2.175,5.638-4.851l0,0
			c0.009-0.083,0.035-0.162,0.04-0.246c0.087,0.031,0.175,0.057,0.261,0.087C105.974,245.63,103.409,243.501,100.34,243.501z"/>
		<path class="st14" d="M176.435,248.6c-0.641-2.916-3.236-5.099-6.344-5.099c-3.157,0-5.787,2.252-6.375,5.236
			c0,0.001,0,0.001,0,0.001c-0.587-2.985-3.217-5.238-6.375-5.238c-3.086,0-5.665,2.153-6.329,5.038
			c-0.466-3.132-3.159-5.538-6.421-5.538c-3.226,0-5.896,2.353-6.405,5.435c0.033-0.012,0.067-0.022,0.101-0.034
			c0.02,0.102,0.032,0.167,0.04,0.238l0,0c0.285,2.68,2.639,4.859,5.638,4.859h26.778C173.887,253.5,176.162,251.188,176.435,248.6z
			"/>
		<path class="st14" d="M210.244,245.742c-1.191-1.371-2.944-2.24-4.903-2.24c-3.086,0-5.665,2.153-6.329,5.038
			c-0.466-3.132-3.159-5.538-6.421-5.538c-3.59,0-6.5,2.91-6.5,6.5c0,1.51,0.519,2.896,1.383,3.999h22.743
			C210.959,250.33,210.877,247.786,210.244,245.742z"/>
		<path class="st14" d="M58.59,250.001c0-3.59-2.91-6.5-6.5-6.5c-3.157,0-5.787,2.252-6.375,5.236c0,0.001,0,0.001,0,0.001
			c-0.587-2.985-3.217-5.238-6.375-5.238c-1.965,0-3.719,0.878-4.909,2.257c-0.629,2.042-0.708,4.581,0.033,7.742h23.098
			C58.21,252.49,58.59,251.291,58.59,250.001z"/>
		<path class="st2" d="M179.832,71.366c-1.398-3.895-2.338-7.938-2.579-12.069c-0.347-5.929-1.634-11.605-3.713-16.882
			c-0.186-0.472-0.126-1.005,0.156-1.427c12.871-19.238,6.989-32.053,3.85-36.684c-0.883-1.304-2.424-1.97-3.986-1.767
			c-8.709,1.135-15.84,8.012-19.889,12.887c-0.594,0.715-1.609,0.863-2.4,0.374c-8.339-5.154-18.155-8.132-28.667-8.132
			c-10.655,0-20.592,3.064-29.002,8.347c-0.795,0.499-1.822,0.35-2.418-0.374C87.17,10.754,79.96,3.689,71.12,2.537
			c-1.562-0.204-3.103,0.463-3.986,1.767c-3.165,4.67-9.112,17.665,4.188,37.174c0.285,0.418,0.35,0.948,0.169,1.42
			c-1.96,5.116-3.185,10.597-3.529,16.316c-0.25,4.158-1.176,8.229-2.583,12.149c-1.398,3.894-2.146,7.996-2.146,12.233
			c0,15.775,10.352,29.684,26.102,37.915c-2.741-5.249-2.115-11.752,1.47-16.617c4.356-5.911,12.078-8.132,18.846-5.585
			c-1.011,0.69-1.62,1.614-1.62,2.874c0,4.474,7.472,10.801,14.574,10.801c7.102,0,14.573-6.327,14.573-10.801
			c0-1.261-0.609-2.185-1.62-2.874c6.768-2.547,14.49-0.326,18.846,5.585l0,0c3.585,4.865,4.211,11.369,1.47,16.617
			c15.751-8.231,26.103-22.14,26.103-37.915C181.977,79.36,181.23,75.259,179.832,71.366z"/>
		<g>
			<path class="st2" d="M237.926,126.863c-10.337-33.292-43.196-29.18-54.503-1.041c-1.352,3.363-2.309,6.841-3.114,10.362
				c0.128,0.362,0.263,0.72,0.384,1.084c0.26,0.781,0.505,1.569,0.734,2.361c0.918,3.168,1.59,6.419,1.998,9.725
				c0.24,1.94,0.442,3.92,0.609,5.932c-0.001-0.011-0.002-0.022-0.003-0.033c2.527-0.025,5.042,0.135,7.466,0.527
				c0.197-0.784,0.39-1.572,0.568-2.377c2.609-11.822,4.145-31.602,17.784-34.886c7.002-1.686,11.524,5.293,13.331,11.113
				c1.21,3.896,4.444,6.75,8.756,5.989C235.57,134.977,239.125,130.724,237.926,126.863z"/>
		</g>
		<path class="st3" d="M137.178,102.184c0,4.474-7.472,10.801-14.573,10.801c-7.102,0-14.573-6.327-14.573-10.801
			c0-4.474,7.472-4.819,14.573-4.819C129.707,97.365,137.178,97.709,137.178,102.184z"/>
		<path class="st18" d="M154.405,104.894L154.405,104.894c-4.356-5.911-12.078-8.132-18.846-5.585c1.011,0.69,1.62,1.614,1.62,2.874
			c0,4.474-7.472,10.801-14.573,10.801c-7.102,0-14.573-6.327-14.573-10.801c0-1.261,0.609-2.185,1.62-2.874
			c-6.768-2.547-14.49-0.326-18.846,5.585c-3.973,5.391-4.326,12.802-0.472,18.279c3.987,5.665,11.103,7.894,17.467,5.773
			l14.804-4.935l14.804,4.935c6.364,2.121,13.48-0.108,17.467-5.772C158.731,117.696,158.377,110.286,154.405,104.894z"/>
		<g>
			<path class="st18" d="M137.561,128.945l-14.804-4.935l-14.804,4.935c-2.717,0.906-5.569,1.012-8.258,0.403
				c4.007,8.652,12.762,14.657,22.924,14.657c10.138,0,18.877-5.977,22.897-14.596C142.916,129.943,140.176,129.817,137.561,128.945
				z"/>
		</g>
		<path class="st4" d="M179.06,6.916l-0.19-0.018c0,0-12.53,6.263-17.803,21.37c-0.199,0.571,0.279,1.157,0.881,1.09l6.667-0.741
			c0.532-0.059,0.98,0.395,0.914,0.927l-0.712,5.696c-0.074,0.594,0.487,1.069,1.06,0.896l7.961-2.388
			C183.824,21.138,181.564,11.976,179.06,6.916z"/>
		<path class="st4" d="M75.864,35.239l-0.712-5.696c-0.066-0.532,0.381-0.986,0.914-0.927l6.667,0.741
			c0.601,0.067,1.08-0.519,0.881-1.09c-5.273-15.107-17.803-21.37-17.803-21.37l-0.189,0.018c-2.502,5.06-4.754,14.224,1.232,26.835
			l7.949,2.385C75.377,36.308,75.938,35.834,75.864,35.239z"/>
		<path class="st7" d="M194.683,237.518c-1.088-0.014-1.809-1.135-1.386-2.138l11.67-27.648
			c15.488-43.468-2.486-52.659-20.935-52.48c1.851,22.297-1.088,48.777-16.049,75.125c-1.786,3.145-0.929,7.031,1.979,9.303
			c1.823,1.425,3.803,3.223,5.418,5.304c2.428,3.128,0.533,7.397-3.148,8.326l0.189,0.19h37.796
			C213.564,239.221,200.226,237.592,194.683,237.518z"/>
		<path class="st7" d="M60.65,155.253c-18.45-0.179-36.423,9.011-20.935,52.48l11.67,27.648c0.423,1.003-0.297,2.123-1.386,2.138
			c-5.544,0.074-18.882,1.702-15.533,15.982H72.26l0.189-0.19c-3.681-0.929-5.576-5.198-3.148-8.326
			c1.615-2.081,3.595-3.879,5.418-5.304c2.907-2.272,3.764-6.158,1.979-9.303C61.738,204.031,58.798,177.55,60.65,155.253z"/>
		<line class="st7" x1="122.605" y1="123.915" x2="122.605" y2="114.731"/>
		<path class="st7" d="M115.223,76.351c1.005,5.662,1.005,13.211-3.014,20.76"/>
		<path class="st7" d="M129.987,76.351c-1.005,5.662-1.005,13.211,3.014,20.76"/>
		<path class="st7" d="M89.503,70.101c-0.011-3.42,2.753-6.201,6.173-6.212c3.42-0.011,6.201,2.753,6.212,6.173"/>
		<path class="st7" d="M143.322,70.101c-0.011-3.42,2.753-6.201,6.173-6.212c3.42-0.011,6.201,2.753,6.212,6.173"/>
		<line class="st7" x1="144.212" y1="108.991" x2="154.545" y2="105.547"/>
		<line class="st7" x1="145.36" y1="118.175" x2="155.693" y2="119.323"/>
		<line class="st7" x1="101.736" y1="108.991" x2="91.404" y2="105.547"/>
		<line class="st7" x1="100.588" y1="118.175" x2="90.256" y2="119.323"/>
		<g>
			<path class="st7" d="M183.425,149.354c-1.634-13.227-7.477-25.551-16.469-35.335c-3.274,2.834-6.994,5.356-11.082,7.492v0
				c-0.297,0.568-0.621,1.127-0.998,1.662c-2.74,3.892-6.957,6.163-11.393,6.514c0.683-0.049,1.362-0.14,2.032-0.278
				c-4.02,8.62-12.758,14.596-22.897,14.596c-10.149,0-18.893-5.99-22.907-14.623c-3.675-0.789-7.058-2.912-9.378-6.209
				c-0.377-0.536-0.702-1.094-0.999-1.663l0.001,0.002c-4.209-2.2-8.028-4.808-11.372-7.746
				c-9.127,9.825-15.06,22.248-16.707,35.592c-2.894,23.437-0.862,52.307,15.442,81.021c1.785,3.145,0.928,7.031-1.979,9.303
				c-1.823,1.425-3.803,3.223-5.418,5.304c-2.738,3.527,0.017,8.516,4.637,8.516h26.778c3.089,0,5.515-2.307,5.678-5.097
				c4.96,1.781,10.326,2.778,15.945,2.778s10.985-0.997,15.946-2.778v-0.011c0.157,2.796,2.584,5.109,5.678,5.109h26.778
				c4.621,0,7.375-4.988,4.637-8.516c-1.615-2.081-3.595-3.879-5.418-5.304c-2.907-2.272-3.764-6.158-1.979-9.303
				C184.289,201.66,186.32,172.79,183.425,149.354z"/>
		</g>
		<path class="st7" d="M169.961,239.68c-2.907-2.272-3.764-6.158-1.979-9.303c16.306-28.717,18.338-57.588,15.443-81.023
			c-1.634-13.227-7.477-25.551-16.469-35.335c-3.274,2.834-6.994,5.356-11.082,7.492v0c-0.297,0.568-0.621,1.127-0.998,1.662
			c-2.459,3.494-6.111,5.667-10.04,6.333l-0.023,0.023c0.235-0.037,0.469-0.072,0.702-0.12
			c-4.103,8.799-13.011,14.596-22.897,14.596c-9.836,0-18.788-5.763-22.907-14.623c-3.675-0.789-7.058-2.912-9.378-6.209
			c-0.377-0.536-0.702-1.094-0.999-1.663l0.001,0.002c-4.209-2.2-8.028-4.808-11.372-7.746c-9.127,9.825-15.06,22.249-16.708,35.592
			c-2.894,23.437-0.862,52.307,15.443,81.021c1.786,3.145,0.928,7.031-1.979,9.303c-1.823,1.425-3.803,3.223-5.418,5.304
			c-2.738,3.527,0.017,8.516,4.637,8.516h26.778c2.996,0,5.349-2.175,5.638-4.851v0c0.009-0.083,0.035-0.162,0.04-0.246
			c10.59,3.802,21.937,3.573,31.891,0c0.02,0.101,0.032,0.167,0.04,0.239v0c0.285,2.68,2.639,4.859,5.638,4.859h26.778
			c4.621,0,7.375-4.989,4.637-8.516C173.764,242.903,171.784,241.105,169.961,239.68z"/>
		<path class="st7" d="M179.832,71.366c-1.398-3.895-2.338-7.938-2.579-12.069c-0.347-5.929-1.634-11.605-3.713-16.882
			c-0.186-0.472-0.126-1.005,0.156-1.427c12.871-19.238,6.989-32.053,3.85-36.684c-0.883-1.304-2.424-1.97-3.986-1.767
			c-8.709,1.135-15.84,8.012-19.889,12.887c-0.594,0.715-1.609,0.863-2.4,0.374c-8.339-5.154-18.155-8.132-28.667-8.132
			c-10.655,0-20.592,3.064-29.002,8.347c-0.795,0.499-1.822,0.35-2.418-0.374C87.17,10.754,79.96,3.689,71.12,2.537
			c-1.562-0.204-3.103,0.463-3.986,1.767c-3.165,4.67-9.112,17.665,4.188,37.174c0.285,0.418,0.35,0.948,0.169,1.42
			c-1.96,5.116-3.185,10.597-3.529,16.316c-0.25,4.158-1.176,8.229-2.583,12.149c-1.398,3.894-2.146,7.996-2.146,12.233
			c0,15.775,10.352,29.684,26.102,37.915c-2.741-5.249-2.115-11.752,1.47-16.617c4.356-5.911,12.078-8.132,18.846-5.585
			c-1.011,0.69-1.62,1.614-1.62,2.874c0,4.474,7.472,10.801,14.574,10.801c7.102,0,14.573-6.327,14.573-10.801
			c0-1.261-0.609-2.185-1.62-2.874c6.768-2.547,14.49-0.326,18.846,5.585l0,0c3.585,4.865,4.211,11.369,1.47,16.617
			c15.751-8.231,26.103-22.14,26.103-37.915C181.977,79.36,181.23,75.259,179.832,71.366z"/>
		<g>
			<path class="st7" d="M237.926,126.863c-10.337-33.292-43.196-29.18-54.503-1.041c-1.352,3.363-2.309,6.841-3.114,10.362
				c0.128,0.362,0.263,0.72,0.384,1.084c0.26,0.781,0.505,1.569,0.734,2.361c0.918,3.168,1.59,6.419,1.998,9.725
				c0.24,1.94,0.442,3.92,0.609,5.932c-0.001-0.011-0.002-0.022-0.003-0.033c2.527-0.025,5.042,0.135,7.466,0.527
				c0.197-0.784,0.39-1.572,0.568-2.377c2.609-11.822,4.145-31.602,17.784-34.886c7.002-1.686,11.524,5.293,13.331,11.113
				c1.21,3.896,4.444,6.75,8.756,5.989C235.57,134.977,239.125,130.724,237.926,126.863z"/>
		</g>
		<path class="st7" d="M139.053,167.024c5.976,4.985,8.928,12.778,7.574,20.442c-0.081,0.46-0.165,0.878-0.251,1.243
			c-3.105,13.176-4.402,26.714-4.402,40.252c-0.187,2.504,0.738,6.568-1.996,12.577c-0.841,1.849-1.631,4.648-1.653,7.104
			c-0.008-0.072-0.019-0.137-0.04-0.239c-10.328,3.708-21.579,3.702-31.891,0c-0.005,0.084-0.031,0.163-0.04,0.246
			c-0.023-2.587-0.863-5.375-1.653-7.112c-2.73-5.999-1.808-10.049-1.996-12.577c0-13.537-1.297-27.075-4.402-40.252
			c-0.043-0.181-0.085-0.375-0.126-0.58c-1.604-7.944,1.512-16.107,7.841-21.17l0.336-0.269
			C115.948,159.016,129.619,159.155,139.053,167.024L139.053,167.024z"/>
		<path class="st7" d="M137.178,102.184c0,4.474-7.472,10.801-14.573,10.801c-7.102,0-14.573-6.327-14.573-10.801
			c0-4.474,7.472-4.819,14.573-4.819C129.707,97.365,137.178,97.709,137.178,102.184z"/>
		<path class="st7" d="M154.405,104.894L154.405,104.894c-4.356-5.911-12.078-8.132-18.846-5.585c1.011,0.69,1.62,1.614,1.62,2.874
			c0,4.474-7.472,10.801-14.573,10.801c-7.102,0-14.573-6.327-14.573-10.801c0-1.261,0.609-2.185,1.62-2.874
			c-6.768-2.547-14.49-0.326-18.846,5.585c-3.973,5.391-4.326,12.802-0.472,18.279c3.987,5.665,11.103,7.894,17.467,5.773
			l14.804-4.935l14.804,4.935c6.364,2.121,13.48-0.108,17.467-5.772C158.731,117.696,158.377,110.286,154.405,104.894z"/>
		<g>
			<path class="st7" d="M137.561,128.945l-14.804-4.935l-14.804,4.935c-2.717,0.906-5.569,1.012-8.258,0.403
				c4.007,8.652,12.762,14.657,22.924,14.657c10.138,0,18.877-5.977,22.897-14.596C142.916,129.943,140.176,129.817,137.561,128.945
				z"/>
		</g>
		<path class="st7" d="M179.06,6.916l-0.19-0.018c0,0-12.53,6.263-17.803,21.37c-0.199,0.571,0.279,1.157,0.881,1.09l6.667-0.741
			c0.532-0.059,0.98,0.395,0.914,0.927l-0.712,5.696c-0.074,0.594,0.487,1.069,1.06,0.896l7.961-2.388
			C183.824,21.138,181.564,11.976,179.06,6.916z"/>
		<path class="st7" d="M75.864,35.239l-0.712-5.696c-0.066-0.532,0.381-0.986,0.914-0.927l6.667,0.741
			c0.601,0.067,1.08-0.519,0.881-1.09c-5.273-15.107-17.803-21.37-17.803-21.37l-0.189,0.018c-2.502,5.06-4.754,14.224,1.232,26.835
			l7.949,2.385C75.377,36.308,75.938,35.834,75.864,35.239z"/>
		<path class="st7" d="M100.34,243.501c-3.157,0-5.787,2.252-6.375,5.236c0,0.001,0,0.001,0,0.001
			c-0.587-2.985-3.217-5.238-6.375-5.238c-3.086,0-5.665,2.153-6.329,5.038c-0.466-3.132-3.159-5.538-6.421-5.538
			c-3.504,0-6.353,2.775-6.487,6.246c0.552,2.314,2.706,4.252,5.586,4.252h26.778c2.996,0,5.35-2.175,5.638-4.851l0,0
			c0.009-0.083,0.035-0.162,0.04-0.246c0.087,0.031,0.175,0.057,0.261,0.087C105.974,245.63,103.409,243.501,100.34,243.501z"/>
		<path class="st7" d="M176.435,248.6c-0.641-2.916-3.236-5.099-6.344-5.099c-3.157,0-5.787,2.252-6.375,5.236
			c0,0.001,0,0.001,0,0.001c-0.587-2.985-3.217-5.238-6.375-5.238c-3.086,0-5.665,2.153-6.329,5.038
			c-0.466-3.132-3.159-5.538-6.421-5.538c-3.226,0-5.896,2.353-6.405,5.435c0.033-0.012,0.067-0.022,0.101-0.034
			c0.02,0.102,0.032,0.167,0.04,0.238l0,0c0.285,2.68,2.639,4.859,5.638,4.859h26.778C173.887,253.5,176.162,251.188,176.435,248.6z
			"/>
		<path class="st7" d="M210.244,245.742c-1.191-1.371-2.944-2.24-4.903-2.24c-3.086,0-5.665,2.153-6.329,5.038
			c-0.466-3.132-3.159-5.538-6.421-5.538c-3.59,0-6.5,2.91-6.5,6.5c0,1.51,0.519,2.896,1.383,3.999h22.743
			C210.959,250.33,210.877,247.786,210.244,245.742z"/>
		<path class="st7" d="M58.59,250.001c0-3.59-2.91-6.5-6.5-6.5c-3.157,0-5.787,2.252-6.375,5.236c0,0.001,0,0.001,0,0.001
			c-0.587-2.985-3.217-5.238-6.375-5.238c-1.965,0-3.719,0.878-4.909,2.257c-0.629,2.042-0.708,4.581,0.033,7.742h23.098
			C58.21,252.49,58.59,251.291,58.59,250.001z"/>
	</g>
</g>
<g id="Layer_89">
</g>
<g id="Layer_90">
</g>
<g id="Layer_91">
</g>
<g id="Layer_92">
</g>
<g id="Layer_93">
</g>
<g id="Layer_94">
</g>
<g id="Layer_95">
</g>
<g id="Layer_96">
</g>
<g id="Layer_97">
</g>
<g id="Layer_98">
</g>
<g id="Layer_99">
</g>
<g id="Layer_100">
</g>
</svg>
