<?xml version="1.0" encoding="utf-8"?>
<!-- Generator: Adobe Illustrator 22.0.0, SVG Export Plug-In . SVG Version: 6.00 Build 0)  -->
<svg version="1.1" xmlns="http://www.w3.org/2000/svg" xmlns:xlink="http://www.w3.org/1999/xlink" x="0px" y="0px"
	 viewBox="0 0 256 256" style="enable-background:new 0 0 256 256;" xml:space="preserve">
<style type="text/css">
	.st0{fill:#F9BD55;}
	.st1{fill:#F4DBCE;}
	.st2{fill:#52565B;}
	.st3{fill:#FD605B;}
	.st4{fill:#F98080;}
	.st5{fill:#F9E63A;}
	.st6{fill:#039BE6;}
	.st7{fill:none;stroke:#000000;stroke-width:5;stroke-linecap:round;stroke-linejoin:round;stroke-miterlimit:10;}
	.st8{fill:#7D3D1A;}
	.st9{fill:#EAA250;}
	.st10{fill:#DD7F57;}
	.st11{fill:#FFC097;}
	.st12{fill:#F49667;}
	.st13{fill:#F89422;}
	.st14{fill:#E3E4E5;}
	.st15{fill:#6E7175;}
	.st16{fill:#46BAF9;}
	.st17{fill:#D9F3FF;}
	.st18{fill:#828487;}
	.st19{fill:#A8AEB2;}
	.st20{fill:#C9CDD1;}
	.st21{fill:#8CD8F9;}
	.st22{fill:#1AA7E5;}
	.st23{fill:#ACE7FC;}
	.st24{fill:#FFFFFF;}
	.st25{fill:#9E512B;}
	.st26{fill:#7ED5FC;}
	.st27{fill:#7CCC4E;}
	.st28{fill:#3AA03A;}
	.st29{fill:#FCB1B1;}
	.st30{fill:#F76E23;}
	.st31{fill:#C16A44;}
	.st32{fill:#B796EA;}
</style>
<g id="Layer_1">
</g>
<g id="Layer_2">
</g>
<g id="Layer_3">
</g>
<g id="Layer_4">
</g>
<g id="Layer_5">
</g>
<g id="Layer_6">
</g>
<g id="Layer_7">
</g>
<g id="Layer_8">
</g>
<g id="Layer_9">
</g>
<g id="Layer_10">
</g>
<g id="Layer_11">
</g>
<g id="Layer_12">
</g>
<g id="Layer_13">
</g>
<g id="Layer_14">
</g>
<g id="Layer_15">
</g>
<g id="Layer_16">
</g>
<g id="Layer_17">
</g>
<g id="Layer_18">
</g>
<g id="Layer_19">
</g>
<g id="Layer_20">
</g>
<g id="Layer_21">
</g>
<g id="Layer_22">
</g>
<g id="Layer_23">
</g>
<g id="Layer_24">
</g>
<g id="Layer_25">
</g>
<g id="Layer_26">
</g>
<g id="Layer_27">
</g>
<g id="Layer_28">
</g>
<g id="Layer_29">
</g>
<g id="Layer_30">
</g>
<g id="Layer_31">
</g>
<g id="Layer_32">
</g>
<g id="Layer_33">
</g>
<g id="Layer_34">
</g>
<g id="Layer_35">
</g>
<g id="Layer_36">
</g>
<g id="Layer_37">
</g>
<g id="Layer_38">
</g>
<g id="Layer_39">
</g>
<g id="Layer_40">
</g>
<g id="Layer_41">
</g>
<g id="Layer_42">
</g>
<g id="Layer_43">
</g>
<g id="Layer_44">
</g>
<g id="Layer_45">
</g>
<g id="Layer_46">
</g>
<g id="Layer_47">
</g>
<g id="Layer_48">
</g>
<g id="Layer_49">
</g>
<g id="Layer_50">
</g>
<g id="Layer_51">
</g>
<g id="Layer_52">
</g>
<g id="Layer_53">
</g>
<g id="Layer_54">
</g>
<g id="Layer_55">
</g>
<g id="Layer_56">
</g>
<g id="Layer_57">
</g>
<g id="Layer_58">
</g>
<g id="Layer_59">
</g>
<g id="Layer_60">
</g>
<g id="Layer_61">
</g>
<g id="Layer_62">
</g>
<g id="Layer_63">
</g>
<g id="Layer_64">
</g>
<g id="Layer_65">
</g>
<g id="Layer_66">
</g>
<g id="Layer_67">
</g>
<g id="Layer_68">
</g>
<g id="Layer_69">
</g>
<g id="Layer_70">
</g>
<g id="Layer_71">
</g>
<g id="Layer_72">
</g>
<g id="Layer_73">
</g>
<g id="Layer_74">
</g>
<g id="Layer_75">
</g>
<g id="Layer_76">
</g>
<g id="Layer_77">
</g>
<g id="Layer_78">
</g>
<g id="Layer_79">
</g>
<g id="Layer_80">
</g>
<g id="Layer_81">
</g>
<g id="Layer_82">
</g>
<g id="Layer_83">
</g>
<g id="Layer_84">
</g>
<g id="Layer_85">
</g>
<g id="Layer_86">
	<g>
		<path class="st27" d="M194.36,92.148c-3.373-3.756-9.409-4.836-13.826-2.39c-9.516,5.271-16.318,28.4-28.909,40.803
			c2.765-1.51,9.071-4.053,13.157,1.312c28.771-22.898,28.896-22.742,30.724-25.657C198.188,101.939,197.734,95.905,194.36,92.148z"
			/>
		<path class="st27" d="M211.235,113.761c-1.819-4.71-7.078-7.863-12.075-7.145c-1.778,0.256-3.661,0.996-5.637,2.081
			c-2.459,2.387-8.536,7.098-28.74,23.177c0.169,0.222,0.334,0.456,0.495,0.705c2.264,3.509,1.587,6.673,0.121,9.115
			c39.122-12.511,39.063-12.22,41.911-14.374C211.335,124.273,213.054,118.47,211.235,113.761z"/>
		<path class="st27" d="M171.566,76.143c-4.374-2.24-10.236-1.121-13.399,2.641c-5.638,6.704-5.334,23.872-9.096,38.469
			c3.981,2.253,4.824,10.685,1.173,14.149c0,0,0.574-0.408,1.513-0.912l0.576-0.649c3.428-3.546,6.428-7.865,9.173-12.367
			c0.79-1.338,1.528-2.588,2.239-3.791c3.569-6.203,6.768-12.406,10.049-17.087c3.141-5.466,3.356-6.256,3.712-8.064
			C178.454,83.71,175.94,78.383,171.566,76.143z"/>
		<path class="st27" d="M149.062,117.248c2.89-11.209,3.394-23.926,6.019-32.266c0.03-1.091-0.074-1.724-0.233-2.583
			c-0.895-4.832-5.195-8.858-10.087-9.328c-4.892-0.471-9.929,2.731-11.483,7.393c-2.905,8.714,4.508,25.719,5.964,41.29
			C143.393,116.739,146.754,115.948,149.062,117.248z"/>
		<g>
			<path class="st27" d="M132.209,126.156c0.568,0.421,1.121,0.844,1.666,1.27c1.703-1.497,3.409-3.25,5.07-5.32
				c0.1-0.124,0.196-0.227,0.294-0.347c-1.053-11.279-5.227-23.308-6.348-32.398c-0.512-1.771-0.88-2.413-1.467-3.379
				c-2.555-4.198-8.006-6.432-12.745-5.132c-4.739,1.3-8.309,6.083-8.104,10.993c0.339,8.107,10.5,19.395,17.622,31.592
				C129.548,124.285,130.889,125.179,132.209,126.156z"/>
		</g>
		<path class="st27" d="M211.406,129.006c-2.23-0.475-4.89-0.274-7.857,0.342c-2.886,1.114-8.52,2.902-21.553,7.051
			c-1.888,0.642-3.794,1.256-5.706,1.817c-3.246,1.034-6.861,2.187-10.892,3.476c-1.227,2.045-3.004,3.583-4.074,4.394l0.15,0.354
			c2.218-0.513,7.371-1.169,10.015,2.929c0.237,0.367,0.437,0.73,0.618,1.091c36.528,1.591,36.511,1.788,39.797,0.789
			c4.831-1.468,8.447-6.32,8.366-11.368C220.19,134.833,216.344,130.058,211.406,129.006z"/>
		<g>
			<path class="st27" d="M218.952,63.997c-4.498-5.008-12.545-6.448-18.434-3.186c-7.524,4.167-13.776,16.71-21.119,29.678
				c0.375-0.268,0.752-0.518,1.134-0.73c4.417-2.446,10.452-1.366,13.826,2.39c2.641,2.941,3.484,7.277,2.442,11.074
				c21.22-16.857,21.68-17.282,23.678-20.469C224.056,77.051,223.45,69.005,218.952,63.997z"/>
		</g>
		<g>
			<path class="st27" d="M241.451,92.812c-2.426-6.279-9.436-10.483-16.1-9.526c-2.371,0.34-4.881,1.327-7.516,2.774
				c-2.435,2.363-7.541,6.444-21.032,17.161c-0.289,1.053-0.714,2.066-1.296,2.995c-0.546,0.871-0.941,1.468-1.991,2.486
				c0.002-0.002,0.005-0.005,0.007-0.007c1.976-1.085,3.859-1.825,5.637-2.081c4.998-0.718,10.256,2.435,12.075,7.145
				c0.771,1.997,0.901,4.19,0.494,6.286c20.995-6.695,21.693-7.043,24.488-9.158C241.585,106.828,243.876,99.091,241.451,92.812z"/>
		</g>
		<g>
			<path class="st27" d="M171.566,76.143c4.374,2.24,6.888,7.567,5.94,12.389c-0.356,1.808-0.571,2.598-3.712,8.064
				c1.815-2.589,3.656-4.71,5.6-6.103c4.257-7.516,8.154-14.883,12.137-20.567c4.188-7.287,4.475-8.341,4.949-10.751
				c1.265-6.429-2.087-13.531-7.919-16.518c-5.832-2.987-13.648-1.494-17.865,3.522c-4.788,5.693-6.36,17.05-8.166,29.572
				C165.43,74.657,168.795,74.724,171.566,76.143z"/>
		</g>
		<g>
			<path class="st27" d="M144.761,73.071c4.892,0.471,9.192,4.496,10.087,9.328c0.159,0.859,0.263,1.491,0.233,2.583
				c0.793-2.519,1.777-4.644,3.085-6.199c1.161-1.38,2.686-2.401,4.367-3.035c1.149-7.958,2.203-15.445,4.049-21.306
				c0.04-1.455-0.099-2.298-0.311-3.443c-1.193-6.443-6.927-11.81-13.449-12.438c-6.522-0.627-13.238,3.641-15.31,9.858
				c-2.027,6.079-0.284,15.188,2.114,25.461C141.247,73.211,143.012,72.903,144.761,73.071z"/>
		</g>
		<g>
			<path class="st27" d="M118.679,80.851c4.739-1.3,10.19,0.933,12.745,5.132c0.587,0.965,0.954,1.608,1.467,3.378
				c-0.427-3.458-0.413-6.494,0.388-8.896c0.999-2.996,3.438-5.382,6.35-6.584c-1.134-4.859-2.122-9.459-2.632-13.599
				c-0.683-2.361-1.173-3.218-1.956-4.505c-3.406-5.598-10.674-8.575-16.993-6.842c-6.319,1.732-11.078,8.11-10.804,14.657
				c0.223,5.346,3.657,11.733,8.214,18.788C116.436,81.696,117.522,81.168,118.679,80.851z"/>
		</g>
		<g>
			<path class="st27" d="M241.679,113.139c-2.974-0.634-6.52-0.365-10.476,0.457c-3.08,1.188-8.522,2.958-19.475,6.451
				c-0.553,2.848-2.1,5.518-4.42,7.272c-1.004,0.76-1.648,1.215-3.774,2.035c0.004-0.002,0.009-0.004,0.013-0.005
				c2.967-0.616,5.627-0.818,7.857-0.342c4.938,1.052,8.784,5.827,8.865,10.875c0.017,1.09-0.147,2.169-0.449,3.209
				c18.495,0.797,19.363,0.665,22.522-0.295c6.441-1.957,11.263-8.426,11.155-15.157
				C253.39,120.908,248.263,114.541,241.679,113.139z"/>
		</g>
		<circle class="st0" cx="143.794" cy="86.135" r="4.213"/>
		<circle class="st0" cx="122.42" cy="93.405" r="4.213"/>
		<circle class="st0" cx="165.852" cy="87.931" r="4.213"/>
		<circle class="st0" cx="184.547" cy="101.358" r="4.328"/>
		<circle class="st0" cx="198.79" cy="118.884" r="4.328"/>
		<circle class="st0" cx="206.822" cy="140.392" r="4.328"/>
		<circle class="st0" cx="151.533" cy="55.98" r="5.617"/>
		<circle class="st0" cx="123.035" cy="65.672" r="5.617"/>
		<circle class="st0" cx="180.943" cy="58.374" r="5.617"/>
		<circle class="st0" cx="205.869" cy="76.276" r="5.77"/>
		<circle class="st0" cx="224.858" cy="99.644" r="5.77"/>
		<circle class="st0" cx="235.568" cy="128.32" r="5.77"/>
		<path class="st16" d="M171.489,149.369c-3.426-5.31-11.082-2.638-11.082-2.638s10.009-6.189,4.87-14.154
			c-5.264-8.159-15.033-1.176-15.033-1.176c5.818-5.521,0.229-23.667-11.299-9.296c-1.661,2.07-3.367,3.822-5.07,5.32
			c16.413,12.802,22.762,27.637,25.218,37.203C169.047,163.284,176.413,157.002,171.489,149.369z"/>
		<path class="st14" d="M86.65,239.966c0,0-5.92,2.829-7.275,8.749c-0.368,1.609,1.473,2.802,2.796,1.815
			c3.015-2.252,7.756-5.535,11.395-6.861C91.486,238.86,86.65,239.966,86.65,239.966z"/>
		<path class="st14" d="M86.65,239.966c-2.079-4.809-6.889-2.73-6.889-2.73s-5.267,2.431-7.025,7.727
			c-0.323,0.973,0.601,1.909,1.589,1.633l6.891-1.926C83.449,241.504,86.65,239.966,86.65,239.966z"/>
		<path class="st14" d="M79.761,237.236c-1.08-3.864-4.944-2.784-4.944-2.784s-3.885,1.415-6.269,5.169
			c-0.731,1.15,0.196,2.635,1.548,2.462l4.488-0.574C76.807,238.6,79.761,237.236,79.761,237.236z"/>
		<path class="st0" d="M116.736,230.27c-1.985-1.465-4.999-2.706-8.983-1.593c0,0,7.266-10.961,6.581-22.533
			c-0.659,1.903-1.134,3.164-1.288,5.318c-1.491-1.269-3.489-2.511-4.981-3.781c-1.289,2.05-2.353,3.897-4.148,5.523
			c-0.803-1.006-1.342-1.905-1.936-2.825c-0.024,5.546-1.123,13.315-4.956,17.056c-1.057,1.032-2.557,1.482-4.013,1.232
			l-2.792-0.479c0,0-10.726-0.678-15.401,6.265c0,0,3.864-1.08,4.943,2.784c0,0,4.81-2.08,6.889,2.73c0,0,4.836-1.107,6.916,3.703
			c0,0,2.843,2.199,7.877-5.848c0.524-0.837,1.347-1.464,2.305-1.706c2.046-0.518,5.695-1.043,8.911,0.575
			c1.429,0.719,3.148,0.494,4.247-0.668l0.297-0.314C118.704,234.12,118.495,231.569,116.736,230.27z"/>
		<path class="st14" d="M68.549,239.621c0.631-0.993,1.367-1.819,2.108-2.502c-2.295-2.099-5.324-1.416-5.324-1.416
			s-5.92,2.829-7.275,8.749c-0.368,1.609,1.473,2.802,2.796,1.815c2.043-1.526,4.877-3.514,7.625-5.057
			C68.239,240.734,68.215,240.146,68.549,239.621z"/>
		<path class="st14" d="M65.333,235.703c-2.079-4.809-6.889-2.73-6.889-2.73s-5.267,2.431-7.025,7.727
			c-0.323,0.973,0.601,1.909,1.589,1.633l6.891-1.926C62.132,237.24,65.333,235.703,65.333,235.703z"/>
		<path class="st14" d="M58.444,232.973c-1.08-3.864-4.944-2.784-4.944-2.784s-3.885,1.415-6.269,5.169
			c-0.731,1.15,0.196,2.635,1.548,2.462l4.488-0.574C55.49,234.337,58.444,232.973,58.444,232.973z"/>
		<g>
			<path class="st0" d="M74.817,234.452c0,0,0.054-0.014,0.141-0.033C74.871,234.438,74.817,234.452,74.817,234.452
				c4.675-6.943,15.401-6.265,15.401-6.265l2.792,0.479c1.304,0.223,2.64-0.118,3.665-0.931c-0.229-0.665-0.642-1.275-1.257-1.729
				c-1.985-1.465-4.999-2.706-8.983-1.593c0,0,7.266-10.961,6.581-22.533c-0.659,1.903-1.134,3.164-1.288,5.318
				c-1.491-1.269-3.489-2.511-4.981-3.781c-1.289,2.05-2.353,3.897-4.148,5.523c-0.803-1.006-1.343-1.905-1.936-2.825
				c-0.024,5.546-1.123,13.315-4.956,17.056c-1.057,1.032-2.557,1.482-4.013,1.232l-2.792-0.479c0,0-10.726-0.678-15.401,6.265
				c0,0,3.864-1.08,4.943,2.784c0,0,4.81-2.08,6.889,2.73c0,0,3.029-0.682,5.324,1.416
				C72.717,235.222,74.817,234.452,74.817,234.452z"/>
		</g>
		<path class="st16" d="M90.105,194.827c-7.042-0.231-14.095-1.393-20.983-3.434c0.729,1.716,1.567,3.384,2.516,4.99
			c2.027,3.428,4.573,6.678,5.459,10.561c0.505-1,1.735-1.702,2.24-2.702c1.329,1.665,1.934,3.034,3.263,4.699
			c1.795-1.626,2.859-3.472,4.148-5.523c1.491,1.27,3.489,2.512,4.981,3.781c0.173-2.415,0.75-3.713,1.536-6.046
			C92.042,199.133,91.01,197.082,90.105,194.827z"/>
		<path class="st16" d="M159.897,168.225c-1.767-9.348-7.708-27.268-27.688-42.068c-26.517-19.642-59.977-12.51-72.167-8.924
			c-2.896,0.852-6.014-0.665-7.028-3.508c-4.918-13.789-0.42-29.24-0.42-29.24c6.902-18.735,5.916-47.329-15.776-49.3
			c-14.759-1.342-19.603,10.473-20.528,13.23c0.989-0.056,2.903,0.255,4.319,3.086c1.989,3.978,3.978,4.972,3.978,4.972
			l-4.342,8.684c-0.153,0.305-0.428,0.502-0.73,0.567c0.209,0.229,0.445,0.436,0.725,0.587c3.021,1.631,10.526,6.99,5.732,18.175
			c0,0-31.509,80.734,39.015,105.582c8.185,2.883,16.664,4.484,25.125,4.761c0.806,2.005,1.744,3.958,2.844,5.818
			c2.027,3.428,4.573,6.678,5.459,10.561c0.505-1,1.735-1.703,2.24-2.702c1.329,1.666,1.933,3.034,3.263,4.699
			c1.795-1.626,2.859-3.472,4.148-5.523c1.491,1.269,3.489,2.512,4.981,3.781c0.178-2.488,0.783-3.781,1.606-6.251
			c1.137,1.023,3.406,1.46,4.543,2.483c-1.7-2.388-1.39-5.649-0.628-8.479c0,0,0.71-3.828,0.58-8.929
			c4.494-1.628,8.868-3.689,13.062-6.205c11.375-6.825,18.757-9.043,23.142-9.639C158.366,174.031,160.462,171.215,159.897,168.225z
			"/>
		<path class="st27" d="M114.238,164.526c0,0,2.173-13.093-11.519-13.093c0,0,2.106-13.691-9.479-13.691
			c-2.137,0-4.02-0.073-5.675-0.189l-0.031,0.116c0,0,6.36,4.072,4.821,12.315c-0.136,0.731,0.257,1.453,0.942,1.741
			c2.706,1.139,8.893,4.684,8.811,13.286c-0.007,0.689,0.438,1.302,1.095,1.506c2.408,0.745,7.856,3.475,8.994,13.043
			c0.014,0.01,0.02,0.014,0.033,0.024c5.741-1.466,11.466-3.821,16.948-7.268C129.179,172.314,123.435,164.39,114.238,164.526z"/>
		<path class="st26" d="M55.83,55.743c-1.692-10.762-7.364-19.5-19.012-20.559c-14.759-1.342-19.603,10.473-20.528,13.23
			c0.989-0.056,2.903,0.255,4.319,3.086c1.989,3.978,3.978,4.972,3.978,4.972l-4.342,8.684c-0.153,0.305-0.428,0.502-0.73,0.567
			c0.209,0.229,0.445,0.436,0.725,0.587c2.254,1.217,7,4.509,7.277,10.746c1.741,0.423,3.559,0.653,5.43,0.653
			C45.282,77.71,55.336,67.958,55.83,55.743z"/>
		<path class="st0" d="M15.637,48.518c0,0,2.983-0.994,4.972,2.983s3.978,4.972,3.978,4.972S12.53,56.027,3.652,61.904
			c-0.567,0.375-1.292-0.134-1.128-0.793C3.314,57.936,6.076,51.459,15.637,48.518z"/>
		<path class="st0" d="M6.348,60.35c0.009,0.001,7.26,0.961,12.265,5.153c0.526,0.441,1.325,0.269,1.632-0.345l4.342-8.684
			C24.587,56.473,14.785,56.112,6.348,60.35z"/>
		<path class="st7" d="M15.637,48.518c0,0,2.983-0.994,4.972,2.983s3.978,4.972,3.978,4.972S12.53,56.027,3.652,61.904
			c-0.567,0.375-1.292-0.134-1.128-0.793C3.314,57.936,6.076,51.459,15.637,48.518z"/>
		<path class="st7" d="M6.348,60.35c0.009,0.001,7.26,0.961,12.265,5.153c0.526,0.441,1.325,0.269,1.632-0.345l4.342-8.684
			C24.587,56.473,14.785,56.112,6.348,60.35z"/>
		<path class="st7" d="M31.404,51.178c-0.008-2.612,2.102-4.736,4.714-4.744c2.612-0.008,4.736,2.102,4.744,4.714"/>
		<path class="st7" d="M18.084,20.394c0,0,7.168,4.837,9.254,15.976"/>
		<path class="st7" d="M24.986,11.52c0,0,8.381,9.649,7.642,23.558"/>
		<path class="st7" d="M36.325,5.111c0,0,6.212,12.249,2.12,30.282"/>
		<path class="st7" d="M49.143,11.027c0,0,2.727,16.286-5.539,25.891"/>
		<path class="st7" d="M171.489,149.369c-3.426-5.31-11.082-2.638-11.082-2.638s10.009-6.189,4.87-14.154
			c-5.264-8.159-15.033-1.176-15.033-1.176c5.818-5.521,0.229-23.667-11.299-9.296c-1.661,2.07-3.367,3.822-5.07,5.32
			c16.413,12.802,22.762,27.637,25.218,37.203C169.047,163.284,176.413,157.002,171.489,149.369z"/>
		<path class="st7" d="M53.57,127.905c0,0-9.63,18.19,3.21,36.38c10.868,15.397,44.735,25.427,72.399,8.029
			c0,0-5.744-7.924-14.941-7.788c0,0,2.173-13.093-11.519-13.093c0,0,2.106-13.691-9.479-13.691s-15.798-2.106-15.798-2.106"/>
		<path class="st7" d="M114.238,164.526c0,0,2.173-13.093-11.519-13.093c0,0,2.106-13.691-9.479-13.691
			c-2.137,0-4.02-0.073-5.675-0.189l-0.031,0.116c0,0,6.36,4.072,4.821,12.315c-0.136,0.731,0.257,1.453,0.942,1.741
			c2.706,1.139,8.893,4.684,8.811,13.286c-0.007,0.689,0.438,1.302,1.095,1.506c2.408,0.745,7.856,3.475,8.994,13.043
			c0.014,0.01,0.02,0.014,0.033,0.024c5.741-1.466,11.466-3.821,16.948-7.268C129.179,172.314,123.435,164.39,114.238,164.526z"/>
		<path class="st7" d="M114.238,164.526c-1.314,0.019-2.698,0.203-4.146,0.598c-11.585,3.16-22.117,0-22.117,0"/>
		<path class="st7" d="M102.72,151.432c-13.691,0-18.957-1.053-18.957-1.053"/>
		<path class="st7" d="M194.36,92.148c-3.373-3.756-9.409-4.836-13.826-2.39c-9.516,5.271-16.318,28.4-28.909,40.803
			c2.765-1.51,9.071-4.053,13.157,1.312c28.771-22.898,28.896-22.742,30.724-25.657C198.188,101.939,197.734,95.905,194.36,92.148z"
			/>
		<path class="st7" d="M211.235,113.761c-1.819-4.71-7.078-7.863-12.075-7.145c-1.778,0.256-3.661,0.996-5.637,2.081
			c-2.459,2.387-8.536,7.098-28.74,23.177c0.169,0.222,0.334,0.456,0.495,0.705c2.264,3.509,1.587,6.673,0.121,9.115
			c39.122-12.511,39.063-12.22,41.911-14.374C211.335,124.273,213.054,118.47,211.235,113.761z"/>
		<path class="st7" d="M171.566,76.143c-4.374-2.24-10.236-1.121-13.399,2.641c-5.638,6.704-5.334,23.872-9.096,38.469
			c3.981,2.253,4.824,10.685,1.173,14.149c0,0,0.574-0.408,1.513-0.912l0.576-0.649c3.428-3.546,6.428-7.865,9.173-12.367
			c0.79-1.338,1.528-2.588,2.239-3.791c3.569-6.203,6.768-12.406,10.049-17.087c3.141-5.466,3.356-6.256,3.712-8.064
			C178.454,83.71,175.94,78.383,171.566,76.143z"/>
		<path class="st7" d="M149.062,117.248c2.89-11.209,3.394-23.926,6.019-32.266c0.03-1.091-0.074-1.724-0.233-2.583
			c-0.895-4.832-5.195-8.858-10.087-9.328c-4.892-0.471-9.929,2.731-11.483,7.393c-2.905,8.714,4.508,25.719,5.964,41.29
			C143.393,116.739,146.754,115.948,149.062,117.248z"/>
		<g>
			<path class="st7" d="M132.209,126.156c0.568,0.421,1.121,0.844,1.666,1.27c1.703-1.497,3.409-3.25,5.07-5.32
				c0.1-0.124,0.196-0.227,0.294-0.347c-1.053-11.279-5.227-23.308-6.348-32.398c-0.512-1.771-0.88-2.413-1.467-3.379
				c-2.555-4.198-8.006-6.432-12.745-5.132c-4.739,1.3-8.309,6.083-8.104,10.993c0.339,8.107,10.5,19.395,17.622,31.592
				C129.548,124.285,130.889,125.179,132.209,126.156z"/>
		</g>
		<path class="st7" d="M211.406,129.006c-2.23-0.475-4.89-0.274-7.857,0.342c-2.886,1.114-8.52,2.902-21.553,7.051
			c-1.888,0.642-3.794,1.256-5.706,1.817c-3.246,1.034-6.861,2.187-10.892,3.476c-1.227,2.045-3.004,3.583-4.074,4.394l0.15,0.354
			c2.218-0.513,7.371-1.169,10.015,2.929c0.237,0.367,0.437,0.73,0.618,1.091c36.528,1.591,36.511,1.788,39.797,0.789
			c4.831-1.468,8.447-6.32,8.366-11.368C220.19,134.833,216.344,130.058,211.406,129.006z"/>
		<g>
			<path class="st7" d="M218.952,63.997c-4.498-5.008-12.545-6.448-18.434-3.186c-7.524,4.167-13.776,16.71-21.119,29.678
				c0.375-0.268,0.752-0.518,1.134-0.73c4.417-2.446,10.452-1.366,13.826,2.39c2.641,2.941,3.484,7.277,2.442,11.074
				c21.22-16.857,21.68-17.282,23.678-20.469C224.056,77.051,223.45,69.005,218.952,63.997z"/>
		</g>
		<g>
			<path class="st7" d="M241.451,92.812c-2.426-6.279-9.436-10.483-16.1-9.526c-2.371,0.34-4.881,1.327-7.516,2.774
				c-2.435,2.363-7.541,6.444-21.032,17.161c-0.289,1.053-0.714,2.066-1.296,2.995c-0.546,0.871-0.941,1.468-1.991,2.486
				c0.002-0.002,0.005-0.005,0.007-0.007c1.976-1.085,3.859-1.825,5.637-2.081c4.998-0.718,10.256,2.435,12.075,7.145
				c0.771,1.997,0.901,4.19,0.494,6.286c20.995-6.695,21.693-7.043,24.488-9.158C241.585,106.828,243.876,99.091,241.451,92.812z"/>
		</g>
		<g>
			<path class="st7" d="M171.566,76.143c4.374,2.24,6.888,7.567,5.94,12.389c-0.356,1.808-0.571,2.598-3.712,8.064
				c1.815-2.589,3.656-4.71,5.6-6.103c4.257-7.516,8.154-14.883,12.137-20.567c4.188-7.287,4.475-8.341,4.949-10.751
				c1.265-6.429-2.087-13.531-7.919-16.518c-5.832-2.987-13.648-1.494-17.865,3.522c-4.788,5.693-6.36,17.05-8.166,29.572
				C165.43,74.657,168.795,74.724,171.566,76.143z"/>
		</g>
		<g>
			<path class="st7" d="M144.761,73.071c4.892,0.471,9.192,4.496,10.087,9.328c0.159,0.859,0.263,1.491,0.233,2.583
				c0.793-2.519,1.777-4.644,3.085-6.199c1.161-1.38,2.686-2.401,4.367-3.035c1.149-7.958,2.203-15.445,4.049-21.306
				c0.04-1.455-0.099-2.298-0.311-3.443c-1.193-6.443-6.927-11.81-13.449-12.438c-6.522-0.627-13.238,3.641-15.31,9.858
				c-2.027,6.079-0.284,15.188,2.114,25.461C141.247,73.211,143.012,72.903,144.761,73.071z"/>
		</g>
		<g>
			<path class="st7" d="M118.679,80.851c4.739-1.3,10.19,0.933,12.745,5.132c0.587,0.965,0.954,1.608,1.467,3.378
				c-0.427-3.458-0.413-6.494,0.388-8.896c0.999-2.996,3.438-5.382,6.35-6.584c-1.134-4.859-2.122-9.459-2.632-13.599
				c-0.683-2.361-1.173-3.218-1.956-4.505c-3.406-5.598-10.674-8.575-16.993-6.842c-6.319,1.732-11.078,8.11-10.804,14.657
				c0.223,5.346,3.657,11.733,8.214,18.788C116.436,81.696,117.522,81.168,118.679,80.851z"/>
		</g>
		<g>
			<path class="st7" d="M241.679,113.139c-2.974-0.634-6.52-0.365-10.476,0.457c-3.08,1.188-8.522,2.958-19.475,6.451
				c-0.553,2.848-2.1,5.518-4.42,7.272c-1.004,0.76-1.648,1.215-3.774,2.035c0.004-0.002,0.009-0.004,0.013-0.005
				c2.967-0.616,5.627-0.818,7.857-0.342c4.938,1.052,8.784,5.827,8.865,10.875c0.017,1.09-0.147,2.169-0.449,3.209
				c18.495,0.797,19.363,0.665,22.522-0.295c6.441-1.957,11.263-8.426,11.155-15.157
				C253.39,120.908,248.263,114.541,241.679,113.139z"/>
		</g>
		<path class="st7" d="M86.65,239.966c0,0-5.92,2.829-7.275,8.749c-0.368,1.609,1.473,2.802,2.796,1.815
			c3.015-2.252,7.756-5.535,11.395-6.861C91.486,238.86,86.65,239.966,86.65,239.966z"/>
		<path class="st7" d="M86.65,239.966c-2.079-4.809-6.889-2.73-6.889-2.73s-5.267,2.431-7.025,7.727
			c-0.323,0.973,0.601,1.909,1.589,1.633l6.891-1.926C83.449,241.504,86.65,239.966,86.65,239.966z"/>
		<path class="st7" d="M79.761,237.236c-1.08-3.864-4.944-2.784-4.944-2.784s-3.885,1.415-6.269,5.169
			c-0.731,1.15,0.196,2.635,1.548,2.462l4.488-0.574C76.807,238.6,79.761,237.236,79.761,237.236z"/>
		<path class="st7" d="M159.897,168.225c-1.767-9.348-7.708-27.268-27.688-42.068c-26.517-19.642-59.977-12.51-72.167-8.924
			c-2.896,0.852-6.014-0.665-7.028-3.508c-4.918-13.789-0.42-29.24-0.42-29.24c6.902-18.735,5.916-47.329-15.776-49.3
			c-14.759-1.342-19.603,10.473-20.528,13.23c0.989-0.056,2.903,0.255,4.319,3.086c1.989,3.978,3.978,4.972,3.978,4.972
			l-4.342,8.684c-0.153,0.305-0.428,0.502-0.73,0.567c0.209,0.229,0.445,0.436,0.725,0.587c3.021,1.631,10.526,6.99,5.732,18.175
			c0,0-31.509,80.734,39.015,105.582c8.185,2.883,16.664,4.484,25.125,4.761c0.806,2.005,1.744,3.958,2.844,5.818
			c2.027,3.428,4.573,6.678,5.459,10.561c0.505-1,1.735-1.703,2.24-2.702c1.329,1.666,1.933,3.034,3.263,4.699
			c1.795-1.626,2.859-3.472,4.148-5.523c1.491,1.269,3.489,2.512,4.981,3.781c0.178-2.488,0.783-3.781,1.606-6.251
			c1.137,1.023,3.406,1.46,4.543,2.483c-1.7-2.388-1.39-5.649-0.628-8.479c0,0,0.71-3.828,0.58-8.929
			c4.494-1.628,8.868-3.689,13.062-6.205c11.375-6.825,18.757-9.043,23.142-9.639C158.366,174.031,160.462,171.215,159.897,168.225z
			"/>
		<path class="st7" d="M116.736,230.27c-1.985-1.465-4.999-2.706-8.983-1.593c0,0,7.266-10.961,6.581-22.533
			c-0.659,1.903-1.134,3.164-1.288,5.318c-1.491-1.269-3.489-2.511-4.981-3.781c-1.289,2.05-2.353,3.897-4.148,5.523
			c-0.803-1.006-1.342-1.905-1.936-2.825c-0.024,5.546-1.123,13.315-4.956,17.056c-1.057,1.032-2.557,1.482-4.013,1.232
			l-2.792-0.479c0,0-10.726-0.678-15.401,6.265c0,0,3.864-1.08,4.943,2.784c0,0,4.81-2.08,6.889,2.73c0,0,4.836-1.107,6.916,3.703
			c0,0,2.843,2.199,7.877-5.848c0.524-0.837,1.347-1.464,2.305-1.706c2.046-0.518,5.695-1.043,8.911,0.575
			c1.429,0.719,3.148,0.494,4.247-0.668l0.297-0.314C118.704,234.12,118.495,231.569,116.736,230.27z"/>
		<path class="st7" d="M68.549,239.621c0.631-0.993,1.367-1.819,2.108-2.502c-2.295-2.099-5.324-1.416-5.324-1.416
			s-5.92,2.829-7.275,8.749c-0.368,1.609,1.473,2.802,2.796,1.815c2.043-1.526,4.877-3.514,7.625-5.057
			C68.239,240.734,68.215,240.146,68.549,239.621z"/>
		<path class="st7" d="M65.333,235.703c-2.079-4.809-6.889-2.73-6.889-2.73s-5.267,2.431-7.025,7.727
			c-0.323,0.973,0.601,1.909,1.589,1.633l6.891-1.926C62.132,237.24,65.333,235.703,65.333,235.703z"/>
		<path class="st7" d="M58.444,232.973c-1.08-3.864-4.944-2.784-4.944-2.784s-3.885,1.415-6.269,5.169
			c-0.731,1.15,0.196,2.635,1.548,2.462l4.488-0.574C55.49,234.337,58.444,232.973,58.444,232.973z"/>
		<g>
			<path class="st7" d="M74.817,234.452c0,0,0.054-0.014,0.141-0.033C74.871,234.438,74.817,234.452,74.817,234.452
				c4.675-6.943,15.401-6.265,15.401-6.265l2.792,0.479c1.304,0.223,2.64-0.118,3.665-0.931c-0.229-0.665-0.642-1.275-1.257-1.729
				c-1.985-1.465-4.999-2.706-8.983-1.593c0,0,7.266-10.961,6.581-22.533c-0.659,1.903-1.134,3.164-1.288,5.318
				c-1.491-1.269-3.489-2.511-4.981-3.781c-1.289,2.05-2.353,3.897-4.148,5.523c-0.803-1.006-1.343-1.905-1.936-2.825
				c-0.024,5.546-1.123,13.315-4.956,17.056c-1.057,1.032-2.557,1.482-4.013,1.232l-2.792-0.479c0,0-10.726-0.678-15.401,6.265
				c0,0,3.864-1.08,4.943,2.784c0,0,4.81-2.08,6.889,2.73c0,0,3.029-0.682,5.324,1.416
				C72.717,235.222,74.817,234.452,74.817,234.452z"/>
		</g>
		<path class="st7" d="M90.105,194.827c-7.042-0.231-14.095-1.393-20.983-3.434c0.729,1.716,1.567,3.384,2.516,4.99
			c2.027,3.428,4.573,6.678,5.459,10.561c0.505-1,1.735-1.702,2.24-2.702c1.329,1.665,1.934,3.034,3.263,4.699
			c1.795-1.626,2.859-3.472,4.148-5.523c1.491,1.27,3.489,2.512,4.981,3.781c0.173-2.415,0.75-3.713,1.536-6.046
			C92.042,199.133,91.01,197.082,90.105,194.827z"/>
		<path class="st7" d="M55.83,55.743c-1.692-10.762-7.364-19.5-19.012-20.559c-14.759-1.342-19.603,10.473-20.528,13.23
			c0.989-0.056,2.903,0.255,4.319,3.086c1.989,3.978,3.978,4.972,3.978,4.972l-4.342,8.684c-0.153,0.305-0.428,0.502-0.73,0.567
			c0.209,0.229,0.445,0.436,0.725,0.587c2.254,1.217,7,4.509,7.277,10.746c1.741,0.423,3.559,0.653,5.43,0.653
			C45.282,77.71,55.336,67.958,55.83,55.743z"/>
		<circle class="st7" cx="143.794" cy="86.135" r="4.213"/>
		<circle class="st7" cx="122.42" cy="93.405" r="4.213"/>
		<circle class="st7" cx="165.852" cy="87.931" r="4.213"/>
		<circle class="st7" cx="184.547" cy="101.358" r="4.328"/>
		<circle class="st7" cx="198.79" cy="118.884" r="4.328"/>
		<circle class="st7" cx="206.822" cy="140.392" r="4.328"/>
		<circle class="st7" cx="151.533" cy="55.98" r="5.617"/>
		<circle class="st7" cx="123.035" cy="65.672" r="5.617"/>
		<circle class="st7" cx="180.943" cy="58.374" r="5.617"/>
		<circle class="st7" cx="205.869" cy="76.276" r="5.77"/>
		<circle class="st7" cx="224.858" cy="99.644" r="5.77"/>
		<circle class="st7" cx="235.568" cy="128.32" r="5.77"/>
	</g>
</g>
<g id="Layer_87">
</g>
<g id="Layer_88">
</g>
<g id="Layer_89">
</g>
<g id="Layer_90">
</g>
<g id="Layer_91">
</g>
<g id="Layer_92">
</g>
<g id="Layer_93">
</g>
<g id="Layer_94">
</g>
<g id="Layer_95">
</g>
<g id="Layer_96">
</g>
<g id="Layer_97">
</g>
<g id="Layer_98">
</g>
<g id="Layer_99">
</g>
<g id="Layer_100">
</g>
</svg>
