<?xml version="1.0" encoding="utf-8"?>
<!-- Generator: Adobe Illustrator 22.0.0, SVG Export Plug-In . SVG Version: 6.00 Build 0)  -->
<svg version="1.1" xmlns="http://www.w3.org/2000/svg" xmlns:xlink="http://www.w3.org/1999/xlink" x="0px" y="0px"
	 viewBox="0 0 256 256" style="enable-background:new 0 0 256 256;" xml:space="preserve">
<style type="text/css">
	.st0{fill:#F9BD55;}
	.st1{fill:#F4DBCE;}
	.st2{fill:#52565B;}
	.st3{fill:#FD605B;}
	.st4{fill:#F98080;}
	.st5{fill:#F9E63A;}
	.st6{fill:#039BE6;}
	.st7{fill:none;stroke:#000000;stroke-width:5;stroke-linecap:round;stroke-linejoin:round;stroke-miterlimit:10;}
	.st8{fill:#7D3D1A;}
	.st9{fill:#EAA250;}
	.st10{fill:#DD7F57;}
	.st11{fill:#FFC097;}
	.st12{fill:#F49667;}
	.st13{fill:#F89422;}
	.st14{fill:#E3E4E5;}
	.st15{fill:#6E7175;}
	.st16{fill:#46BAF9;}
	.st17{fill:#D9F3FF;}
	.st18{fill:#828487;}
	.st19{fill:#A8AEB2;}
	.st20{fill:#C9CDD1;}
	.st21{fill:#8CD8F9;}
	.st22{fill:#1AA7E5;}
	.st23{fill:#ACE7FC;}
	.st24{fill:#FFFFFF;}
	.st25{fill:#9E512B;}
	.st26{fill:#7ED5FC;}
	.st27{fill:#7CCC4E;}
	.st28{fill:#3AA03A;}
	.st29{fill:#FCB1B1;}
	.st30{fill:#F76E23;}
	.st31{fill:#C16A44;}
	.st32{fill:#B796EA;}
</style>
<g id="Layer_1">
</g>
<g id="Layer_2">
</g>
<g id="Layer_3">
</g>
<g id="Layer_4">
</g>
<g id="Layer_5">
</g>
<g id="Layer_6">
</g>
<g id="Layer_7">
</g>
<g id="Layer_8">
</g>
<g id="Layer_9">
</g>
<g id="Layer_10">
</g>
<g id="Layer_11">
</g>
<g id="Layer_12">
</g>
<g id="Layer_13">
</g>
<g id="Layer_14">
</g>
<g id="Layer_15">
</g>
<g id="Layer_16">
</g>
<g id="Layer_17">
</g>
<g id="Layer_18">
</g>
<g id="Layer_19">
</g>
<g id="Layer_20">
</g>
<g id="Layer_21">
</g>
<g id="Layer_22">
</g>
<g id="Layer_23">
</g>
<g id="Layer_24">
</g>
<g id="Layer_25">
</g>
<g id="Layer_26">
	<g>
		<path class="st16" d="M129.868,185.956c-39.373-6.084-74.775-23.821-76.758-54.134c-2.346-35.865,22.887-45.772,36.999-48.444
			c3.728-0.706,7.557,0.445,10.323,3.116c-1.924-6.1-3.291-12.792-3.866-20.119C92.377,12.972,80.859,2.5,62.01,2.5
			c-13.434,0-19.418,6.913-21.749,10.886c2.123,1.158,3.328,4.1,3.939,6.197c0.141,0.483,0.066,0.986-0.146,1.407l0.586,0.367
			c0.901,0.563,1.141,1.77,0.523,2.635l-3.672,5.141c-0.132,0.184-0.296,0.34-0.482,0.463c4.088,1.281,14.567,6.192,6.865,21.597
			c0,0-22.718,52.163-14.136,82.201c10.141,35.495,31.808,47.939,44.201,52.237c7.094,2.461,12.723,7.995,15.065,15.129
			c3.255,9.918,4.942,20.661,5.47,24.429c0.105,0.752,0.838,1.237,1.574,1.053l1.927-0.482c0.524-0.131,1.074,0.081,1.373,0.531
			l2.74,4.109c0.474,0.711,1.498,0.766,2.045,0.109l3.044-3.653c0.547-0.656,1.571-0.602,2.045,0.109l2.358,3.536
			c0.502,0.753,1.595,0.757,2.116,0.017c1.451-2.059,4.181-7.322,8.19-20.685c3.119-10.398,9.335-15.114,14.805-17.23
			C136.72,190.367,133.122,188.13,129.868,185.956z"/>
		<path class="st19" d="M186.765,186.669c-17.644,2.453-37.733,2.254-56.888-0.706c13.079,8.733,31.881,18.535,56.743,24.919
			C255.82,228.649,233.99,216.351,186.765,186.669z"/>
		<g>
			<path class="st2" d="M207.251,182.241c-6.249,1.931-13.163,3.41-20.503,4.43c0.006-0.001,0.012-0.002,0.018-0.002
				c8.338,5.24,15.878,9.936,22.271,14.023C248.93,209.854,238.168,201.741,207.251,182.241z"/>
		</g>
		<g>
			<path class="st16" d="M80.536,86.495c-0.043-0.135-0.081-0.275-0.124-0.412c-0.083,0.031-0.165,0.061-0.248,0.093
				C80.286,86.285,80.417,86.38,80.536,86.495z"/>
			<path class="st16" d="M100.048,226.242c-0.736,0.184-1.469-0.301-1.574-1.053c-0.529-3.768-2.215-14.511-5.47-24.429
				c-2.342-7.134-7.971-12.669-15.065-15.129c-3.302-1.145-7.262-2.871-11.487-5.457l0,0c3.215,2.774,6.766,18.192,8.124,22.331
				c3.255,9.918,3.474,18.917,4.002,22.685c0.105,0.752,0.838,1.237,1.574,1.053l1.927-0.482c0.524-0.131,1.074,0.081,1.373,0.531
				l2.74,4.109c0.474,0.711,1.498,0.766,2.045,0.109l3.044-3.653c0.547-0.656,1.571-0.602,2.045,0.109l2.358,3.536
				c0.502,0.753,1.595,0.757,2.116,0.017c0.577-0.819,1.36-2.159,2.343-4.301L100.048,226.242z"/>
		</g>
		<path class="st26" d="M212.03,172.643c-23.592-11.856-88.816-47.05-109.421-83.343c-2.627-4.627-7.652-6.839-12.501-5.921
			c-14.112,2.672-39.345,12.578-36.999,48.444c3.444,52.648,107.692,67.379,158.477,48.973
			C215.245,179.47,215.507,174.39,212.03,172.643z"/>
		<g>
			<path class="st2" d="M212.03,172.643c-6.468-3.25-16.069-8.258-27.019-14.559c-0.422,0.911-1.161,1.697-2.233,2.162
				c-27.823,12.055-73.097,14.715-108.641,5.474c33.813,24.222,100.093,28.615,137.449,15.076
				C215.245,179.47,215.507,174.39,212.03,172.643z"/>
		</g>
		<path class="st0" d="M44.64,21.357l-0.587-0.367c-0.318,0.631-0.953,1.073-1.697,0.947c-3.128-0.529-5.08-1.491-6.289-2.549
			c-0.338-0.296-0.598-0.63-0.791-0.986c-3.471,1.853-9.633,5.956-14.03,13.444c-0.472,0.804,0.237,1.796,1.152,1.613l17.954-3.591
			c0.459-0.092,0.866-0.355,1.139-0.736l3.672-5.141C45.781,23.127,45.542,21.92,44.64,21.357z"/>
		<path class="st14" d="M38.808,12.913c-3.46-0.402-5.36,4.181-2.739,6.476c1.209,1.058,3.16,2.019,6.289,2.549
			c1.241,0.21,2.195-1.146,1.843-2.354C43.462,17.047,41.859,13.268,38.808,12.913z"/>
		<path class="st4" d="M111.358,242.67c-1.614-0.188-2.528-1.932-1.74-3.352c1.6-2.881,3.705-7.067,4.701-10.707l-1.097-1.645
			c-0.474-0.711-1.498-0.766-2.045-0.109l-3.044,3.653c-0.547,0.656-1.571,0.602-2.045-0.109l-2.74-4.109
			c-0.3-0.449-0.849-0.662-1.373-0.531l-0.692,0.173c-0.047,2.92-0.695,12.167-6.811,17.41c-4.889,4.19-14.666,0.235-22.812,0.24
			c-2.162,0.001-3.89,1.812-3.89,3.974v0c0,2.215,1.811,3.974,4.027,3.97c1.526-0.003,3.036,0.191,4.351,0.717
			c4.799,1.92,20.597,1.64,25.617-0.84c1.37-0.677,2.873-1.023,4.394-1.168c3.003-0.287,7.532-0.442,11.347,0.58
			c1.819,0.487,3.213-1.664,2.067-3.158C117.776,245.32,115.119,243.108,111.358,242.67z"/>
		<path class="st4" d="M94.353,243.427c-0.884-0.363-1.84-0.635-2.89-0.757c-1.614-0.188-2.528-1.932-1.74-3.352
			c1.6-2.881,3.705-7.067,4.701-10.707l-1.097-1.645c-0.474-0.711-1.498-0.766-2.045-0.109l-3.044,3.653
			c-0.547,0.656-1.571,0.602-2.045-0.109l-2.74-4.109c-0.3-0.449-0.849-0.662-1.373-0.531l-0.692,0.173
			c-0.047,2.92-0.695,12.167-6.811,17.41c-0.153,0.132-0.325,0.232-0.488,0.348C81.606,244.275,89.912,247.066,94.353,243.427z"/>
		<path class="st4" d="M76.147,252.244c-1.315-0.526-2.825-0.72-4.351-0.717c-2.215,0.004-4.027-1.755-4.027-3.97v0
			c0-0.854,0.277-1.647,0.736-2.301c-4.984,0.125-11.234-1.676-16.742-1.673c-2.162,0.001-3.89,1.812-3.89,3.974v0
			c0,2.215,1.811,3.974,4.027,3.97c1.526-0.003,3.036,0.191,4.351,0.717c3.8,1.52,14.492,1.659,21.273,0.421
			C77.002,252.538,76.535,252.399,76.147,252.244z"/>
		<path class="st7" d="M38.808,12.913c-3.46-0.402-5.36,4.181-2.739,6.476c1.209,1.058,3.16,2.019,6.289,2.549
			c1.241,0.21,2.195-1.146,1.843-2.354C43.462,17.047,41.859,13.268,38.808,12.913z"/>
		<path class="st7" d="M44.64,21.357l-0.587-0.367c-0.318,0.631-0.953,1.073-1.697,0.947c-3.128-0.529-5.08-1.491-6.289-2.549
			c-0.338-0.296-0.598-0.63-0.791-0.986c-3.471,1.853-9.633,5.956-14.03,13.444c-0.472,0.804,0.237,1.796,1.152,1.613l17.954-3.591
			c0.459-0.092,0.866-0.355,1.139-0.736l3.672-5.141C45.781,23.127,45.542,21.92,44.64,21.357z"/>
		<path class="st7" d="M57.618,20.143c-0.009-2.929,2.357-5.311,5.287-5.321c2.929-0.009,5.311,2.357,5.321,5.287"/>
		<path class="st7" d="M111.358,242.67c-1.614-0.188-2.528-1.932-1.74-3.352c1.6-2.881,3.705-7.067,4.701-10.707l-1.097-1.645
			c-0.474-0.711-1.498-0.766-2.045-0.109l-3.044,3.653c-0.547,0.656-1.571,0.602-2.045-0.109l-2.74-4.109
			c-0.3-0.449-0.849-0.662-1.373-0.531l-0.692,0.173c-0.047,2.92-0.695,12.167-6.811,17.41c-4.889,4.19-14.666,0.235-22.812,0.24
			c-2.162,0.001-3.89,1.812-3.89,3.974v0c0,2.215,1.811,3.974,4.027,3.97c1.526-0.003,3.036,0.191,4.351,0.717
			c4.799,1.92,20.597,1.64,25.617-0.84c1.37-0.677,2.873-1.023,4.394-1.168c3.003-0.287,7.532-0.442,11.347,0.58
			c1.819,0.487,3.213-1.664,2.067-3.158C117.776,245.32,115.119,243.108,111.358,242.67z"/>
		<path class="st7" d="M129.868,185.956c-39.373-6.084-74.775-23.821-76.758-54.134c-2.346-35.865,22.887-45.772,36.999-48.444
			c3.728-0.706,7.557,0.445,10.323,3.116c-1.924-6.1-3.291-12.792-3.866-20.119C92.377,12.972,80.859,2.5,62.01,2.5
			c-13.434,0-19.418,6.913-21.749,10.886c2.123,1.158,3.328,4.1,3.939,6.197c0.141,0.483,0.066,0.986-0.146,1.407l0.586,0.367
			c0.901,0.563,1.141,1.77,0.523,2.635l-3.672,5.141c-0.132,0.184-0.296,0.34-0.482,0.463c4.088,1.281,14.567,6.192,6.865,21.597
			c0,0-22.718,52.163-14.136,82.201c10.141,35.495,31.808,47.939,44.201,52.237c7.094,2.461,12.723,7.995,15.065,15.129
			c3.255,9.918,4.942,20.661,5.47,24.429c0.105,0.752,0.838,1.237,1.574,1.053l1.927-0.482c0.524-0.131,1.074,0.081,1.373,0.531
			l2.74,4.109c0.474,0.711,1.498,0.766,2.045,0.109l3.044-3.653c0.547-0.656,1.571-0.602,2.045,0.109l2.358,3.536
			c0.502,0.753,1.595,0.757,2.116,0.017c1.451-2.059,4.181-7.322,8.19-20.685c3.119-10.398,9.335-15.114,14.805-17.23
			C136.72,190.367,133.122,188.13,129.868,185.956z"/>
		<path class="st7" d="M186.765,186.669c-17.644,2.453-37.733,2.254-56.888-0.706c13.079,8.733,31.881,18.535,56.743,24.919
			C255.82,228.649,233.99,216.351,186.765,186.669z"/>
		<g>
			<path class="st7" d="M207.251,182.241c-6.249,1.931-13.163,3.41-20.503,4.43c0.006-0.001,0.012-0.002,0.018-0.002
				c8.338,5.24,15.878,9.936,22.271,14.023C248.93,209.854,238.168,201.741,207.251,182.241z"/>
		</g>
		<g>
			<path class="st7" d="M80.536,86.495c-0.043-0.135-0.081-0.275-0.124-0.412c-0.083,0.031-0.165,0.061-0.248,0.093
				C80.286,86.285,80.417,86.38,80.536,86.495z"/>
			<path class="st7" d="M100.048,226.242c-0.736,0.184-1.469-0.301-1.574-1.053c-0.529-3.768-2.215-14.511-5.47-24.429
				c-2.342-7.134-7.971-12.669-15.065-15.129c-3.302-1.145-7.262-2.871-11.487-5.457l0,0c3.215,2.774,6.766,18.192,8.124,22.331
				c3.255,9.918,3.474,18.917,4.002,22.685c0.105,0.752,0.838,1.237,1.574,1.053l1.927-0.482c0.524-0.131,1.074,0.081,1.373,0.531
				l2.74,4.109c0.474,0.711,1.498,0.766,2.045,0.109l3.044-3.653c0.547-0.656,1.571-0.602,2.045,0.109l2.358,3.536
				c0.502,0.753,1.595,0.757,2.116,0.017c0.577-0.819,1.36-2.159,2.343-4.301L100.048,226.242z"/>
		</g>
		<path class="st7" d="M94.353,243.427c-0.884-0.363-1.84-0.635-2.89-0.757c-1.614-0.188-2.528-1.932-1.74-3.352
			c1.6-2.881,3.705-7.067,4.701-10.707l-1.097-1.645c-0.474-0.711-1.498-0.766-2.045-0.109l-3.044,3.653
			c-0.547,0.656-1.571,0.602-2.045-0.109l-2.74-4.109c-0.3-0.449-0.849-0.662-1.373-0.531l-0.692,0.173
			c-0.047,2.92-0.695,12.167-6.811,17.41c-0.153,0.132-0.325,0.232-0.488,0.348C81.606,244.275,89.912,247.066,94.353,243.427z"/>
		<path class="st7" d="M76.147,252.244c-1.315-0.526-2.825-0.72-4.351-0.717c-2.215,0.004-4.027-1.755-4.027-3.97v0
			c0-0.854,0.277-1.647,0.736-2.301c-4.984,0.125-11.234-1.676-16.742-1.673c-2.162,0.001-3.89,1.812-3.89,3.974v0
			c0,2.215,1.811,3.974,4.027,3.97c1.526-0.003,3.036,0.191,4.351,0.717c3.8,1.52,14.492,1.659,21.273,0.421
			C77.002,252.538,76.535,252.399,76.147,252.244z"/>
		<path class="st7" d="M212.03,172.643c-23.592-11.856-88.816-47.05-109.421-83.343c-2.627-4.627-7.652-6.839-12.501-5.921
			c-14.112,2.672-39.345,12.578-36.999,48.444c3.444,52.648,107.692,67.379,158.477,48.973
			C215.245,179.47,215.507,174.39,212.03,172.643z"/>
		<g>
			<path class="st7" d="M212.03,172.643c-6.468-3.25-16.069-8.258-27.019-14.559c-0.422,0.911-1.161,1.697-2.233,2.162
				c-27.823,12.055-73.097,14.715-108.641,5.474c33.813,24.222,100.093,28.615,137.449,15.076
				C215.245,179.47,215.507,174.39,212.03,172.643z"/>
		</g>
	</g>
</g>
<g id="Layer_27">
</g>
<g id="Layer_28">
</g>
<g id="Layer_29">
</g>
<g id="Layer_30">
</g>
<g id="Layer_31">
</g>
<g id="Layer_32">
</g>
<g id="Layer_33">
</g>
<g id="Layer_34">
</g>
<g id="Layer_35">
</g>
<g id="Layer_36">
</g>
<g id="Layer_37">
</g>
<g id="Layer_38">
</g>
<g id="Layer_39">
</g>
<g id="Layer_40">
</g>
<g id="Layer_41">
</g>
<g id="Layer_42">
</g>
<g id="Layer_43">
</g>
<g id="Layer_44">
</g>
<g id="Layer_45">
</g>
<g id="Layer_46">
</g>
<g id="Layer_47">
</g>
<g id="Layer_48">
</g>
<g id="Layer_49">
</g>
<g id="Layer_50">
</g>
<g id="Layer_51">
</g>
<g id="Layer_52">
</g>
<g id="Layer_53">
</g>
<g id="Layer_54">
</g>
<g id="Layer_55">
</g>
<g id="Layer_56">
</g>
<g id="Layer_57">
</g>
<g id="Layer_58">
</g>
<g id="Layer_59">
</g>
<g id="Layer_60">
</g>
<g id="Layer_61">
</g>
<g id="Layer_62">
</g>
<g id="Layer_63">
</g>
<g id="Layer_64">
</g>
<g id="Layer_65">
</g>
<g id="Layer_66">
</g>
<g id="Layer_67">
</g>
<g id="Layer_68">
</g>
<g id="Layer_69">
</g>
<g id="Layer_70">
</g>
<g id="Layer_71">
</g>
<g id="Layer_72">
</g>
<g id="Layer_73">
</g>
<g id="Layer_74">
</g>
<g id="Layer_75">
</g>
<g id="Layer_76">
</g>
<g id="Layer_77">
</g>
<g id="Layer_78">
</g>
<g id="Layer_79">
</g>
<g id="Layer_80">
</g>
<g id="Layer_81">
</g>
<g id="Layer_82">
</g>
<g id="Layer_83">
</g>
<g id="Layer_84">
</g>
<g id="Layer_85">
</g>
<g id="Layer_86">
</g>
<g id="Layer_87">
</g>
<g id="Layer_88">
</g>
<g id="Layer_89">
</g>
<g id="Layer_90">
</g>
<g id="Layer_91">
</g>
<g id="Layer_92">
</g>
<g id="Layer_93">
</g>
<g id="Layer_94">
</g>
<g id="Layer_95">
</g>
<g id="Layer_96">
</g>
<g id="Layer_97">
</g>
<g id="Layer_98">
</g>
<g id="Layer_99">
</g>
<g id="Layer_100">
</g>
</svg>
