<?xml version="1.0" encoding="utf-8"?>
<!-- Generator: Adobe Illustrator 22.0.0, SVG Export Plug-In . SVG Version: 6.00 Build 0)  -->
<svg version="1.1" xmlns="http://www.w3.org/2000/svg" xmlns:xlink="http://www.w3.org/1999/xlink" x="0px" y="0px"
	 viewBox="0 0 256 256" style="enable-background:new 0 0 256 256;" xml:space="preserve">
<style type="text/css">
	.st0{fill:#F9BD55;}
	.st1{fill:#F4DBCE;}
	.st2{fill:#52565B;}
	.st3{fill:#FD605B;}
	.st4{fill:#F98080;}
	.st5{fill:#F9E63A;}
	.st6{fill:#039BE6;}
	.st7{fill:none;stroke:#000000;stroke-width:5;stroke-linecap:round;stroke-linejoin:round;stroke-miterlimit:10;}
	.st8{fill:#7D3D1A;}
	.st9{fill:#EAA250;}
	.st10{fill:#DD7F57;}
	.st11{fill:#FFC097;}
	.st12{fill:#F49667;}
	.st13{fill:#F89422;}
	.st14{fill:#E3E4E5;}
	.st15{fill:#6E7175;}
	.st16{fill:#46BAF9;}
	.st17{fill:#D9F3FF;}
	.st18{fill:#828487;}
	.st19{fill:#A8AEB2;}
	.st20{fill:#C9CDD1;}
	.st21{fill:#8CD8F9;}
	.st22{fill:#1AA7E5;}
	.st23{fill:#ACE7FC;}
	.st24{fill:#FFFFFF;}
	.st25{fill:#9E512B;}
	.st26{fill:#7ED5FC;}
	.st27{fill:#7CCC4E;}
	.st28{fill:#3AA03A;}
	.st29{fill:#FCB1B1;}
	.st30{fill:#F76E23;}
	.st31{fill:#C16A44;}
	.st32{fill:#B796EA;}
</style>
<g id="Layer_1">
</g>
<g id="Layer_2">
</g>
<g id="Layer_3">
</g>
<g id="Layer_4">
</g>
<g id="Layer_5">
</g>
<g id="Layer_6">
</g>
<g id="Layer_7">
</g>
<g id="Layer_8">
</g>
<g id="Layer_9">
</g>
<g id="Layer_10">
</g>
<g id="Layer_11">
</g>
<g id="Layer_12">
</g>
<g id="Layer_13">
</g>
<g id="Layer_14">
</g>
<g id="Layer_15">
</g>
<g id="Layer_16">
</g>
<g id="Layer_17">
</g>
<g id="Layer_18">
</g>
<g id="Layer_19">
</g>
<g id="Layer_20">
</g>
<g id="Layer_21">
</g>
<g id="Layer_22">
</g>
<g id="Layer_23">
</g>
<g id="Layer_24">
</g>
<g id="Layer_25">
</g>
<g id="Layer_26">
</g>
<g id="Layer_27">
</g>
<g id="Layer_28">
</g>
<g id="Layer_29">
</g>
<g id="Layer_30">
</g>
<g id="Layer_31">
</g>
<g id="Layer_32">
</g>
<g id="Layer_33">
</g>
<g id="Layer_34">
</g>
<g id="Layer_35">
</g>
<g id="Layer_36">
</g>
<g id="Layer_37">
</g>
<g id="Layer_38">
</g>
<g id="Layer_39">
</g>
<g id="Layer_40">
	<g>
		<path class="st25" d="M229.103,77.534c-17.611,5.786-12.782,38.775-28.942,72.397c-2.695,5.606-6.093,10.282-10.068,14.088
			c-0.027,0.064-0.049,0.129-0.077,0.192c-1.233,2.807-2.724,4.93-4.363,6.455c2.938,2.798,14.554,14.23,10.606,16.477
			c-4.506,2.564-9.012-3.419-9.012,5.984c0,5.839-2.184,0.95-6.709-1.334c-0.132,0.327-0.275,0.646-0.412,0.97
			c-0.059,0.139-0.117,0.278-0.177,0.416c-0.266,0.619-0.541,1.231-0.824,1.837c-0.054,0.115-0.108,0.23-0.162,0.345
			c-0.296,0.623-0.601,1.239-0.914,1.847c-0.047,0.091-0.094,0.182-0.142,0.273c-0.326,0.626-0.662,1.243-1.007,1.853
			c-0.04,0.071-0.081,0.142-0.121,0.213c-0.355,0.622-0.719,1.236-1.093,1.842c-0.036,0.058-0.071,0.115-0.107,0.173
			c-0.383,0.615-0.775,1.222-1.177,1.819c-0.03,0.045-0.061,0.09-0.091,0.135c-0.41,0.606-0.828,1.202-1.257,1.79
			c-0.012,0.017-0.023,0.034-0.036,0.051c30.017-9.511,56.703-33.275,72.007-64.979C265.381,98.214,244.253,72.557,229.103,77.534z"
			/>
		<path class="st2" d="M156.199,220.945c-3.799,2.365-7.874,4.324-12.171,5.854c-1.126,10.436-0.489,26.701,14.445,26.701
			c21.985,0,32.478-7.962,24.483-17.062C175.272,227.691,157.285,242.047,156.199,220.945z"/>
		<path class="st2" d="M85.148,220.945c-1.086,21.102-19.073,6.746-26.758,15.493c-7.995,9.1,2.498,17.062,24.483,17.062
			c14.935,0,15.571-16.265,14.445-26.701C93.022,225.269,88.947,223.31,85.148,220.945z"/>
		<g>
			<path class="st25" d="M185.654,170.667c1.639-1.525,3.13-3.648,4.363-6.455c5.239-11.927-3.758-27.777-10.115-36.77
				c-1.927-2.726-3.579-5.672-5.041-8.749c-1.612-3.395-3.389-6.684-5.305-9.842c-4.319,3.625-9.758,6.884-15.994,9.503
				c1.195,2.299,1.86,4.723,0.91,7.453l0-0.001c0.645,2.255,0.696,4.65-0.476,7.306c-1.874,4.246-5.797,7.64-10.305,10.3
				c-13.924,8.216-31.421,8.216-45.344,0c-4.509-2.66-8.432-6.055-10.305-10.3c-1.172-2.655-1.121-5.051-0.476-7.306
				c-0.949-2.73-0.285-5.153,0.91-7.452c-6.458-2.712-12.06-6.109-16.451-9.888c-2.006,3.274-3.861,6.693-5.539,10.226
				c-1.461,3.078-3.114,6.024-5.041,8.749c-6.357,8.993-15.355,24.843-10.116,36.77c1.233,2.807,2.724,4.93,4.363,6.455
				c-2.938,2.798-14.554,14.23-10.607,16.477c4.506,2.564,9.012-3.419,9.012,5.984c0,5.839,2.184,0.95,6.709-1.334
				c9.852,24.481,32.946,38.958,59.866,38.958c26.92,0,50.014-14.477,59.866-38.958c4.525,2.284,6.709,7.173,6.709,1.334
				c0-9.403,4.506-3.419,9.012-5.984C200.208,184.897,188.592,173.464,185.654,170.667z"/>
		</g>
		<path class="st25" d="M173.294,75.564c-3.448-3.145-5.367-7.623-5.277-12.29c0.005-0.292,0.008-0.586,0.008-0.879
			c0-21.73-14.896-39.975-35.032-45.098c-1.215-0.309-2.175-1.297-2.385-2.532c-0.272-1.603-0.068-3.362,1.066-5.121
			c0.475-0.737-0.247-1.639-1.057-1.303c-2.266,0.938-5.049,2.81-5.338,6.388c-0.056,0.696-0.617,1.242-1.315,1.205
			c-0.039-0.002-0.078-0.004-0.117-0.006c-0.461-0.023-0.87-0.293-1.076-0.706c-1.565-3.139-2.324-7.262,0.783-11.315
			c0.529-0.689-0.148-1.64-0.969-1.355c-3.231,1.122-7.961,3.711-8.253,9.293c-0.135,2.587-1.924,4.832-4.433,5.475
			c-20.097,5.149-34.954,23.373-34.954,45.076c0,0.028,0,0.056,0,0.083c0.009,4.77-1.902,9.366-5.512,12.482
			c-5.075,4.381-7.984,9.466-7.984,14.893c0,10.443,10.756,21.686,27.022,28.511c3.463-6.67,11.393-12.287-2.758-21.275
			c-3.414-2.168-3.305-7.262,0.252-9.188c2.889-1.564,7.64-3.029,15.356-3.95c3.408-0.407,6.747-1.477,9.602-3.382
			c2.378-1.587,6.015-2.602,10.097-2.602c4.083,0,7.72,1.015,10.098,2.602c2.855,1.905,6.194,2.976,9.602,3.382
			c7.716,0.921,12.466,2.386,15.356,3.95c3.557,1.926,3.666,7.019,0.252,9.188c-14.151,8.988-6.221,14.604-2.758,21.275
			c16.266-6.825,27.022-18.068,27.022-28.511C180.591,84.675,177.944,79.806,173.294,75.564z"/>
		<path class="st2" d="M72.547,169.178c-4.804,5.062-11.595,6.382-16.854,1.488c-2.938,2.797-14.554,14.23-10.606,16.477
			c4.506,2.564,9.012-3.419,9.012,5.984s5.659-9.02,17.648,0.427c9.763,7.693-6.773-12.385,10.889-8.121
			C92.856,187.902,78.05,174.094,72.547,169.178z"/>
		<path class="st2" d="M168.8,169.178c4.804,5.062,11.595,6.382,16.854,1.488c2.938,2.797,14.554,14.23,10.606,16.477
			c-4.506,2.564-9.012-3.419-9.012,5.984s-5.659-9.02-17.648,0.427c-9.763,7.693,6.773-12.385-10.889-8.121
			C148.49,187.902,163.297,174.094,168.8,169.178z"/>
		<g>
			<path class="st11" d="M162.372,134.759c-2.148-5.891-4.966-11.533-8.318-16.595c-0.16,0.069-0.325,0.133-0.486,0.2
				c1.192,2.296,1.852,4.717,0.904,7.442l0-0.001c0.645,2.255,0.696,4.65-0.476,7.306c-1.874,4.246-5.797,7.64-10.305,10.3
				c-13.924,8.216-31.421,8.216-45.344,0c-4.509-2.66-8.432-6.055-10.305-10.3c-1.172-2.655-1.121-5.051-0.476-7.306
				c-0.948-2.725-0.288-5.146,0.904-7.442c-0.341-0.143-0.684-0.284-1.02-0.431c-3.42,5.121-6.293,10.844-8.475,16.825
				c-0.017,7.249-0.141,15.737-0.567,20.647c-0.377,4.351-1.785,8.181-3.803,11.201c0.198,1.787,0.478,3.525,0.837,5.213
				c6.395,5.957,15.924,15.722,7.193,13.614c-0.859-0.208-1.615-0.342-2.319-0.44c7.99,14.395,23.064,22.762,40.357,22.762
				s32.367-8.367,40.357-22.762c-0.704,0.098-1.46,0.232-2.319,0.44c-8.731,2.108,0.798-7.657,7.193-13.614
				c0.359-1.689,0.639-3.427,0.837-5.213c-2.018-3.02-3.425-6.85-3.803-11.201C162.513,150.496,162.389,142.008,162.372,134.759z"/>
		</g>
		<g>
			<path class="st2" d="M153.997,126.934c-5.996,11.992-32.977,10.992-32.977,10.992s-26.982,0.999-32.977-10.992
				c-0.191-0.382-0.347-0.758-0.476-1.128c-0.645,2.255-0.696,4.65,0.476,7.306c1.874,4.246,5.797,7.64,10.305,10.3
				c13.924,8.216,31.421,8.216,45.344,0c4.509-2.66,8.432-6.055,10.305-10.3c1.172-2.656,1.121-5.051,0.476-7.306
				C154.344,126.177,154.188,126.552,153.997,126.934z"/>
		</g>
		<path class="st18" d="M156.074,87.903c-2.889-1.564-7.64-3.029-15.356-3.95c-3.408-0.407-6.747-1.477-9.602-3.382
			c-2.378-1.587-6.015-2.602-10.098-2.602c-4.083,0-7.72,1.015-10.097,2.602c-2.855,1.906-6.194,2.976-9.602,3.382
			c-7.716,0.921-12.466,2.386-15.356,3.95c-3.557,1.926-3.666,7.019-0.252,9.188c19.683,12.501-3.352,18.48,2.33,29.844
			c5.996,11.992,32.977,10.992,32.977,10.992s26.982,0.999,32.977-10.992c5.682-11.364-17.353-17.343,2.33-29.844
			C159.74,94.922,159.631,89.829,156.074,87.903z"/>
		<path class="st2" d="M156.074,87.903c-2.889-1.564-7.64-3.029-15.356-3.95c-3.408-0.407-6.747-1.477-9.602-3.382
			c-2.378-1.587-6.015-2.602-10.098-2.602c-4.083,0-7.72,1.015-10.097,2.602c-2.855,1.906-6.194,2.976-9.602,3.382
			c-7.716,0.921-12.466,2.386-15.356,3.95c-3.557,1.926-3.666,7.019-0.252,9.188c0.245,0.156,0.478,0.309,0.71,0.463
			c0.362-0.398,0.791-0.752,1.306-1.031c4.572-2.476,14.042-4.69,33.291-4.69s28.719,2.214,33.291,4.69
			c0.515,0.279,0.944,0.633,1.306,1.031c0.232-0.153,0.465-0.307,0.71-0.463C159.74,94.922,159.631,89.829,156.074,87.903z"/>
		<g>
			<path class="st7" d="M58.978,131.102c-5.912,9.224-12.234,22.672-7.649,33.11c7.737,17.613,25.576,8.528,27.079-8.806
				c0.85-9.798,0.496-33.852,0.496-33.852"/>
			<path class="st7" d="M182.371,131.106c5.911,9.224,12.23,22.669,7.646,33.105c-7.737,17.613-25.576,8.528-27.079-8.806
				c-0.85-9.798-0.496-33.852-0.496-33.852"/>
		</g>
		<g>
			<line class="st7" x1="112.025" y1="125.935" x2="111.026" y2="122.937"/>
			<line class="st7" x1="130.013" y1="125.935" x2="131.012" y2="122.937"/>
		</g>
		<path class="st7" d="M138.46,68.71c-0.01-3.214,2.587-5.828,5.8-5.838c3.214-0.01,5.828,2.587,5.838,5.8"/>
		<path class="st7" d="M91.442,68.692c0-3.214,2.605-5.819,5.819-5.819s5.819,2.605,5.819,5.819"/>
		<path class="st7" d="M229.103,77.534c-17.611,5.786-12.782,38.775-28.942,72.397c-2.695,5.606-6.093,10.282-10.068,14.088
			c-0.027,0.064-0.049,0.129-0.077,0.192c-1.233,2.807-2.724,4.93-4.363,6.455c2.938,2.798,14.554,14.23,10.606,16.477
			c-4.506,2.564-9.012-3.419-9.012,5.984c0,5.839-2.184,0.95-6.709-1.334c-0.132,0.327-0.275,0.646-0.412,0.97
			c-0.059,0.139-0.117,0.278-0.177,0.416c-0.266,0.619-0.541,1.231-0.824,1.837c-0.054,0.115-0.108,0.23-0.162,0.345
			c-0.296,0.623-0.601,1.239-0.914,1.847c-0.047,0.091-0.094,0.182-0.142,0.273c-0.326,0.626-0.662,1.243-1.007,1.853
			c-0.04,0.071-0.081,0.142-0.121,0.213c-0.355,0.622-0.719,1.236-1.093,1.842c-0.036,0.058-0.071,0.115-0.107,0.173
			c-0.383,0.615-0.775,1.222-1.177,1.819c-0.03,0.045-0.061,0.09-0.091,0.135c-0.41,0.606-0.828,1.202-1.257,1.79
			c-0.012,0.017-0.023,0.034-0.036,0.051c30.017-9.511,56.703-33.275,72.007-64.979C265.381,98.214,244.253,72.557,229.103,77.534z"
			/>
		<path class="st7" d="M156.199,220.945c-3.799,2.365-7.874,4.324-12.171,5.854c-1.126,10.436-0.489,26.701,14.445,26.701
			c21.985,0,32.478-7.962,24.483-17.062C175.272,227.691,157.285,242.047,156.199,220.945z"/>
		<path class="st7" d="M85.148,220.945c-1.086,21.102-19.073,6.746-26.758,15.493c-7.995,9.1,2.498,17.062,24.483,17.062
			c14.935,0,15.571-16.265,14.445-26.701C93.022,225.269,88.947,223.31,85.148,220.945z"/>
		<g>
			<path class="st7" d="M185.654,170.667c1.639-1.525,3.13-3.648,4.363-6.455c5.239-11.927-3.758-27.777-10.115-36.77
				c-1.927-2.726-3.579-5.672-5.041-8.749c-1.612-3.395-3.389-6.684-5.305-9.842c-4.319,3.625-9.758,6.884-15.994,9.503
				c1.195,2.299,1.86,4.723,0.91,7.453l0-0.001c0.645,2.255,0.696,4.65-0.476,7.306c-1.874,4.246-5.797,7.64-10.305,10.3
				c-13.924,8.216-31.421,8.216-45.344,0c-4.509-2.66-8.432-6.055-10.305-10.3c-1.172-2.655-1.121-5.051-0.476-7.306
				c-0.949-2.73-0.285-5.153,0.91-7.452c-6.458-2.712-12.06-6.109-16.451-9.888c-2.006,3.274-3.861,6.693-5.539,10.226
				c-1.461,3.078-3.114,6.024-5.041,8.749c-6.357,8.993-15.355,24.843-10.116,36.77c1.233,2.807,2.724,4.93,4.363,6.455
				c-2.938,2.798-14.554,14.23-10.607,16.477c4.506,2.564,9.012-3.419,9.012,5.984c0,5.839,2.184,0.95,6.709-1.334
				c9.852,24.481,32.946,38.958,59.866,38.958c26.92,0,50.014-14.477,59.866-38.958c4.525,2.284,6.709,7.173,6.709,1.334
				c0-9.403,4.506-3.419,9.012-5.984C200.208,184.897,188.592,173.464,185.654,170.667z"/>
		</g>
		<path class="st7" d="M173.294,75.564c-3.448-3.145-5.367-7.623-5.277-12.29c0.005-0.292,0.008-0.586,0.008-0.879
			c0-21.73-14.896-39.975-35.032-45.098c-1.215-0.309-2.175-1.297-2.385-2.532c-0.272-1.603-0.068-3.362,1.066-5.121
			c0.475-0.737-0.247-1.639-1.057-1.303c-2.266,0.938-5.049,2.81-5.338,6.388c-0.056,0.696-0.617,1.242-1.315,1.205
			c-0.039-0.002-0.078-0.004-0.117-0.006c-0.461-0.023-0.87-0.293-1.076-0.706c-1.565-3.139-2.324-7.262,0.783-11.315
			c0.529-0.689-0.148-1.64-0.969-1.355c-3.231,1.122-7.961,3.711-8.253,9.293c-0.135,2.587-1.924,4.832-4.433,5.475
			c-20.097,5.149-34.954,23.373-34.954,45.076c0,0.028,0,0.056,0,0.083c0.009,4.77-1.902,9.366-5.512,12.482
			c-5.075,4.381-7.984,9.466-7.984,14.893c0,10.443,10.756,21.686,27.022,28.511c3.463-6.67,11.393-12.287-2.758-21.275
			c-3.414-2.168-3.305-7.262,0.252-9.188c2.889-1.564,7.64-3.029,15.356-3.95c3.408-0.407,6.747-1.477,9.602-3.382
			c2.378-1.587,6.015-2.602,10.097-2.602c4.083,0,7.72,1.015,10.098,2.602c2.855,1.905,6.194,2.976,9.602,3.382
			c7.716,0.921,12.466,2.386,15.356,3.95c3.557,1.926,3.666,7.019,0.252,9.188c-14.151,8.988-6.221,14.604-2.758,21.275
			c16.266-6.825,27.022-18.068,27.022-28.511C180.591,84.675,177.944,79.806,173.294,75.564z"/>
		<path class="st7" d="M72.547,169.178c-4.804,5.062-11.595,6.382-16.854,1.488c-2.938,2.797-14.554,14.23-10.606,16.477
			c4.506,2.564,9.012-3.419,9.012,5.984s5.659-9.02,17.648,0.427c9.763,7.693-6.773-12.385,10.889-8.121
			C92.856,187.902,78.05,174.094,72.547,169.178z"/>
		<path class="st7" d="M168.8,169.178c4.804,5.062,11.595,6.382,16.854,1.488c2.938,2.797,14.554,14.23,10.606,16.477
			c-4.506,2.564-9.012-3.419-9.012,5.984s-5.659-9.02-17.648,0.427c-9.763,7.693,6.773-12.385-10.889-8.121
			C148.49,187.902,163.297,174.094,168.8,169.178z"/>
		<g>
			<path class="st7" d="M162.372,134.759c-2.148-5.891-4.966-11.533-8.318-16.595c-0.16,0.069-0.325,0.133-0.486,0.2
				c1.192,2.296,1.852,4.717,0.904,7.442l0-0.001c0.645,2.255,0.696,4.65-0.476,7.306c-1.874,4.246-5.797,7.64-10.305,10.3
				c-13.924,8.216-31.421,8.216-45.344,0c-4.509-2.66-8.432-6.055-10.305-10.3c-1.172-2.655-1.121-5.051-0.476-7.306
				c-0.948-2.725-0.288-5.146,0.904-7.442c-0.341-0.143-0.684-0.284-1.02-0.431c-3.42,5.121-6.293,10.844-8.475,16.825
				c-0.017,7.249-0.141,15.737-0.567,20.647c-0.377,4.351-1.785,8.181-3.803,11.201c0.198,1.787,0.478,3.525,0.837,5.213
				c6.395,5.957,15.924,15.722,7.193,13.614c-0.859-0.208-1.615-0.342-2.319-0.44c7.99,14.395,23.064,22.762,40.357,22.762
				s32.367-8.367,40.357-22.762c-0.704,0.098-1.46,0.232-2.319,0.44c-8.731,2.108,0.798-7.657,7.193-13.614
				c0.359-1.689,0.639-3.427,0.837-5.213c-2.018-3.02-3.425-6.85-3.803-11.201C162.513,150.496,162.389,142.008,162.372,134.759z"/>
		</g>
		<g>
			<path class="st7" d="M153.997,126.934c-5.996,11.992-32.977,10.992-32.977,10.992s-26.982,0.999-32.977-10.992
				c-0.191-0.382-0.347-0.758-0.476-1.128c-0.645,2.255-0.696,4.65,0.476,7.306c1.874,4.246,5.797,7.64,10.305,10.3
				c13.924,8.216,31.421,8.216,45.344,0c4.509-2.66,8.432-6.055,10.305-10.3c1.172-2.656,1.121-5.051,0.476-7.306
				C154.344,126.177,154.188,126.552,153.997,126.934z"/>
		</g>
		<path class="st7" d="M156.074,87.903c-2.889-1.564-7.64-3.029-15.356-3.95c-3.408-0.407-6.747-1.477-9.602-3.382
			c-2.378-1.587-6.015-2.602-10.098-2.602c-4.083,0-7.72,1.015-10.097,2.602c-2.855,1.906-6.194,2.976-9.602,3.382
			c-7.716,0.921-12.466,2.386-15.356,3.95c-3.557,1.926-3.666,7.019-0.252,9.188c19.683,12.501-3.352,18.48,2.33,29.844
			c5.996,11.992,32.977,10.992,32.977,10.992s26.982,0.999,32.977-10.992c5.682-11.364-17.353-17.343,2.33-29.844
			C159.74,94.922,159.631,89.829,156.074,87.903z"/>
		<path class="st7" d="M156.074,87.903c-2.889-1.564-7.64-3.029-15.356-3.95c-3.408-0.407-6.747-1.477-9.602-3.382
			c-2.378-1.587-6.015-2.602-10.098-2.602c-4.083,0-7.72,1.015-10.097,2.602c-2.855,1.906-6.194,2.976-9.602,3.382
			c-7.716,0.921-12.466,2.386-15.356,3.95c-3.557,1.926-3.666,7.019-0.252,9.188c0.245,0.156,0.478,0.309,0.71,0.463
			c0.362-0.398,0.791-0.752,1.306-1.031c4.572-2.476,14.042-4.69,33.291-4.69s28.719,2.214,33.291,4.69
			c0.515,0.279,0.944,0.633,1.306,1.031c0.232-0.153,0.465-0.307,0.71-0.463C159.74,94.922,159.631,89.829,156.074,87.903z"/>
	</g>
</g>
<g id="Layer_41">
</g>
<g id="Layer_42">
</g>
<g id="Layer_43">
</g>
<g id="Layer_44">
</g>
<g id="Layer_45">
</g>
<g id="Layer_46">
</g>
<g id="Layer_47">
</g>
<g id="Layer_48">
</g>
<g id="Layer_49">
</g>
<g id="Layer_50">
</g>
<g id="Layer_51">
</g>
<g id="Layer_52">
</g>
<g id="Layer_53">
</g>
<g id="Layer_54">
</g>
<g id="Layer_55">
</g>
<g id="Layer_56">
</g>
<g id="Layer_57">
</g>
<g id="Layer_58">
</g>
<g id="Layer_59">
</g>
<g id="Layer_60">
</g>
<g id="Layer_61">
</g>
<g id="Layer_62">
</g>
<g id="Layer_63">
</g>
<g id="Layer_64">
</g>
<g id="Layer_65">
</g>
<g id="Layer_66">
</g>
<g id="Layer_67">
</g>
<g id="Layer_68">
</g>
<g id="Layer_69">
</g>
<g id="Layer_70">
</g>
<g id="Layer_71">
</g>
<g id="Layer_72">
</g>
<g id="Layer_73">
</g>
<g id="Layer_74">
</g>
<g id="Layer_75">
</g>
<g id="Layer_76">
</g>
<g id="Layer_77">
</g>
<g id="Layer_78">
</g>
<g id="Layer_79">
</g>
<g id="Layer_80">
</g>
<g id="Layer_81">
</g>
<g id="Layer_82">
</g>
<g id="Layer_83">
</g>
<g id="Layer_84">
</g>
<g id="Layer_85">
</g>
<g id="Layer_86">
</g>
<g id="Layer_87">
</g>
<g id="Layer_88">
</g>
<g id="Layer_89">
</g>
<g id="Layer_90">
</g>
<g id="Layer_91">
</g>
<g id="Layer_92">
</g>
<g id="Layer_93">
</g>
<g id="Layer_94">
</g>
<g id="Layer_95">
</g>
<g id="Layer_96">
</g>
<g id="Layer_97">
</g>
<g id="Layer_98">
</g>
<g id="Layer_99">
</g>
<g id="Layer_100">
</g>
</svg>
