<?xml version="1.0" encoding="utf-8"?>
<!-- Generator: Adobe Illustrator 22.0.0, SVG Export Plug-In . SVG Version: 6.00 Build 0)  -->
<svg version="1.1" xmlns="http://www.w3.org/2000/svg" xmlns:xlink="http://www.w3.org/1999/xlink" x="0px" y="0px"
	 viewBox="0 0 256 256" style="enable-background:new 0 0 256 256;" xml:space="preserve">
<style type="text/css">
	.st0{fill:#F9BD55;}
	.st1{fill:#F4DBCE;}
	.st2{fill:#52565B;}
	.st3{fill:#FD605B;}
	.st4{fill:#F98080;}
	.st5{fill:#F9E63A;}
	.st6{fill:#039BE6;}
	.st7{fill:none;stroke:#000000;stroke-width:5;stroke-linecap:round;stroke-linejoin:round;stroke-miterlimit:10;}
	.st8{fill:#7D3D1A;}
	.st9{fill:#EAA250;}
	.st10{fill:#DD7F57;}
	.st11{fill:#FFC097;}
	.st12{fill:#F49667;}
	.st13{fill:#F89422;}
	.st14{fill:#E3E4E5;}
	.st15{fill:#6E7175;}
	.st16{fill:#46BAF9;}
	.st17{fill:#D9F3FF;}
	.st18{fill:#828487;}
	.st19{fill:#A8AEB2;}
	.st20{fill:#C9CDD1;}
	.st21{fill:#8CD8F9;}
	.st22{fill:#1AA7E5;}
	.st23{fill:#ACE7FC;}
	.st24{fill:#FFFFFF;}
	.st25{fill:#9E512B;}
	.st26{fill:#7ED5FC;}
	.st27{fill:#7CCC4E;}
	.st28{fill:#3AA03A;}
	.st29{fill:#FCB1B1;}
	.st30{fill:#F76E23;}
	.st31{fill:#C16A44;}
	.st32{fill:#B796EA;}
</style>
<g id="Layer_1">
</g>
<g id="Layer_2">
</g>
<g id="Layer_3">
</g>
<g id="Layer_4">
</g>
<g id="Layer_5">
</g>
<g id="Layer_6">
</g>
<g id="Layer_7">
</g>
<g id="Layer_8">
</g>
<g id="Layer_9">
</g>
<g id="Layer_10">
</g>
<g id="Layer_11">
</g>
<g id="Layer_12">
</g>
<g id="Layer_13">
</g>
<g id="Layer_14">
</g>
<g id="Layer_15">
</g>
<g id="Layer_16">
</g>
<g id="Layer_17">
</g>
<g id="Layer_18">
</g>
<g id="Layer_19">
</g>
<g id="Layer_20">
</g>
<g id="Layer_21">
</g>
<g id="Layer_22">
</g>
<g id="Layer_23">
</g>
<g id="Layer_24">
</g>
<g id="Layer_25">
</g>
<g id="Layer_26">
</g>
<g id="Layer_27">
</g>
<g id="Layer_28">
</g>
<g id="Layer_29">
</g>
<g id="Layer_30">
</g>
<g id="Layer_31">
</g>
<g id="Layer_32">
</g>
<g id="Layer_33">
</g>
<g id="Layer_34">
</g>
<g id="Layer_35">
</g>
<g id="Layer_36">
</g>
<g id="Layer_37">
</g>
<g id="Layer_38">
</g>
<g id="Layer_39">
</g>
<g id="Layer_40">
</g>
<g id="Layer_41">
</g>
<g id="Layer_42">
</g>
<g id="Layer_43">
</g>
<g id="Layer_44">
</g>
<g id="Layer_45">
</g>
<g id="Layer_46">
</g>
<g id="Layer_47">
</g>
<g id="Layer_48">
</g>
<g id="Layer_49">
</g>
<g id="Layer_50">
</g>
<g id="Layer_51">
</g>
<g id="Layer_52">
</g>
<g id="Layer_53">
</g>
<g id="Layer_54">
</g>
<g id="Layer_55">
</g>
<g id="Layer_56">
</g>
<g id="Layer_57">
</g>
<g id="Layer_58">
</g>
<g id="Layer_59">
</g>
<g id="Layer_60">
</g>
<g id="Layer_61">
</g>
<g id="Layer_62">
</g>
<g id="Layer_63">
</g>
<g id="Layer_64">
</g>
<g id="Layer_65">
</g>
<g id="Layer_66">
</g>
<g id="Layer_67">
</g>
<g id="Layer_68">
</g>
<g id="Layer_69">
</g>
<g id="Layer_70">
</g>
<g id="Layer_71">
</g>
<g id="Layer_72">
</g>
<g id="Layer_73">
</g>
<g id="Layer_74">
</g>
<g id="Layer_75">
</g>
<g id="Layer_76">
</g>
<g id="Layer_77">
</g>
<g id="Layer_78">
</g>
<g id="Layer_79">
</g>
<g id="Layer_80">
</g>
<g id="Layer_81">
</g>
<g id="Layer_82">
</g>
<g id="Layer_83">
</g>
<g id="Layer_84">
</g>
<g id="Layer_85">
</g>
<g id="Layer_86">
</g>
<g id="Layer_87">
</g>
<g id="Layer_88">
</g>
<g id="Layer_89">
</g>
<g id="Layer_90">
	<g>
		<path class="st19" d="M189.671,195.02c-1.995-7.979-1.912-13.879-1.049-17.702c0.659-2.923-0.91-5.889-3.756-6.825
			c-9.095-2.99-28.235-7.821-53.704-6.323c0,0-21.276,1.064-38.297-10.638c-16.56-11.385-24.058-39.89-51.395-40.934
			c-1.474-0.056-2.938,0.297-4.227,1.013c-9.81,5.447-53.242,30.86-25.759,39.39c0,0,0,5.319,11.702,3.191
			c0,0,39.893-2.66,46.276,20.744c6.383,23.404,5.319,27.659-2.128,27.659c-5.908,0-8.468,4.017-9.274,7.802
			c-0.312,1.464,0.835,2.836,2.332,2.836l21.543,0c0.863,0,1.653-0.467,2.075-1.221c2.165-3.868,8.314-16.382,5.664-29.63
			c0,0,31.914,23.404,78.722,3.191c0,0,7.447,12.766,3.191,17.021c-3.908,3.908-12.303-1.157-13.646,7.88
			c-0.215,1.446,0.884,2.758,2.345,2.758l24.974,0c0.816,0,1.568-0.416,2.006-1.104C188.865,211.617,192.146,204.917,189.671,195.02
			z"/>
		<g>
			<path class="st19" d="M59.653,163.896c4.583,3.036,8.226,7.236,9.808,13.039c6.383,23.404,5.319,27.659-2.128,27.659
				c-5.908,0-8.468,4.017-9.274,7.802c-0.312,1.464,0.835,2.836,2.332,2.836h-13.83c-1.497,0-2.644-1.372-2.332-2.836
				c0.806-3.785,3.366-7.802,9.274-7.802C53.504,204.594,68.993,188.091,59.653,163.896z"/>
			<path class="st19" d="M157.94,212.475c1.344-9.038,9.738-3.972,13.646-7.88c4.255-4.255-3.191-17.021-3.191-17.021
				c-4.012,1.732-7.912,3.137-11.694,4.271c1.807,4.114,3.714,10.092,1.056,12.75c-3.908,3.908-12.303-1.157-13.646,7.88
				c-0.215,1.446,0.884,2.758,2.345,2.758h13.83C158.824,215.232,157.725,213.92,157.94,212.475z"/>
		</g>
		<path class="st2" d="M243.926,169.489c0,0-6.383-22.34-20.212-27.659c0,0,17.021-7.447,29.787-7.447
			c0,0-14.893-15.957-31.914-15.957c0,0,12.766-8.51,22.34-8.51c0,0-13.83-14.893-35.106-14.893c0,0,11.702-7.447,22.34-7.447
			c0,0-12.766-12.766-32.978-9.574c0,0,5.319-10.638,18.085-12.766c0,0-21.276-12.766-47.871-4.255c0,0,7.447-10.638,18.085-12.766
			c0,0-26.595-5.319-46.808,5.319c0,0,0-8.51,5.319-12.766c0,0-25.531,3.191-38.297,15.957c0,0-1.064-8.51,3.191-12.766
			c0,0-24.468,8.51-32.978,24.468c0,0-4.255-14.893,0-19.149c0,0-18.085,7.447-23.404,26.595c0,0-3.191-4.255-5.319-13.83
			c0,0-10.638,8.51-9.574,29.787c0,0-6.383-4.255-7.447-9.574c0,0-2.923,17.612,7.057,30.895c1.03-0.404,2.136-0.596,3.249-0.554
			c27.337,1.045,34.834,29.549,51.395,40.934c17.021,11.702,38.297,10.638,38.297,10.638c25.469-1.498,44.609,3.333,53.704,6.323
			c1.509,0.496,2.644,1.571,3.293,2.9c0.244,0.185,0.49,0.366,0.72,0.572c5.732,5.164,17.153,13.736,31.111,15.204
			c0,0,4.255-13.83-4.255-22.34C215.735,166.829,232.224,166.297,243.926,169.489z"/>
		<path class="st7" d="M32.72,133.731c-0.01-3.013,2.425-5.464,5.438-5.473c3.013-0.01,5.464,2.425,5.473,5.438"/>
		<path class="st7" d="M189.671,195.02c-1.995-7.979-1.912-13.879-1.049-17.702c0.659-2.923-0.91-5.889-3.756-6.825
			c-9.095-2.99-28.235-7.821-53.704-6.323c0,0-21.276,1.064-38.297-10.638c-16.56-11.385-24.058-39.89-51.395-40.934
			c-1.474-0.056-2.938,0.297-4.227,1.013c-9.81,5.447-53.242,30.86-25.759,39.39c0,0,0,5.319,11.702,3.191
			c0,0,39.893-2.66,46.276,20.744c6.383,23.404,5.319,27.659-2.128,27.659c-5.908,0-8.468,4.017-9.274,7.802
			c-0.312,1.464,0.835,2.836,2.332,2.836l21.543,0c0.863,0,1.653-0.467,2.075-1.221c2.165-3.868,8.314-16.382,5.664-29.63
			c0,0,31.914,23.404,78.722,3.191c0,0,7.447,12.766,3.191,17.021c-3.908,3.908-12.303-1.157-13.646,7.88
			c-0.215,1.446,0.884,2.758,2.345,2.758l24.974,0c0.816,0,1.568-0.416,2.006-1.104C188.865,211.617,192.146,204.917,189.671,195.02
			z"/>
		<g>
			<path class="st7" d="M59.653,163.896c4.583,3.036,8.226,7.236,9.808,13.039c6.383,23.404,5.319,27.659-2.128,27.659
				c-5.908,0-8.468,4.017-9.274,7.802c-0.312,1.464,0.835,2.836,2.332,2.836h-13.83c-1.497,0-2.644-1.372-2.332-2.836
				c0.806-3.785,3.366-7.802,9.274-7.802C53.504,204.594,68.993,188.091,59.653,163.896z"/>
			<path class="st7" d="M157.94,212.475c1.344-9.038,9.738-3.972,13.646-7.88c4.255-4.255-3.191-17.021-3.191-17.021
				c-4.012,1.732-7.912,3.137-11.694,4.271c1.807,4.114,3.714,10.092,1.056,12.75c-3.908,3.908-12.303-1.157-13.646,7.88
				c-0.215,1.446,0.884,2.758,2.345,2.758h13.83C158.824,215.232,157.725,213.92,157.94,212.475z"/>
		</g>
		<line class="st7" x1="11.483" y1="153" x2="24.249" y2="148.744"/>
		<path class="st7" d="M243.926,169.489c0,0-6.383-22.34-20.212-27.659c0,0,17.021-7.447,29.787-7.447
			c0,0-14.893-15.957-31.914-15.957c0,0,12.766-8.51,22.34-8.51c0,0-13.83-14.893-35.106-14.893c0,0,11.702-7.447,22.34-7.447
			c0,0-12.766-12.766-32.978-9.574c0,0,5.319-10.638,18.085-12.766c0,0-21.276-12.766-47.871-4.255c0,0,7.447-10.638,18.085-12.766
			c0,0-26.595-5.319-46.808,5.319c0,0,0-8.51,5.319-12.766c0,0-25.531,3.191-38.297,15.957c0,0-1.064-8.51,3.191-12.766
			c0,0-24.468,8.51-32.978,24.468c0,0-4.255-14.893,0-19.149c0,0-18.085,7.447-23.404,26.595c0,0-3.191-4.255-5.319-13.83
			c0,0-10.638,8.51-9.574,29.787c0,0-6.383-4.255-7.447-9.574c0,0-2.923,17.612,7.057,30.895c1.03-0.404,2.136-0.596,3.249-0.554
			c27.337,1.045,34.834,29.549,51.395,40.934c17.021,11.702,38.297,10.638,38.297,10.638c25.469-1.498,44.609,3.333,53.704,6.323
			c1.509,0.496,2.644,1.571,3.293,2.9c0.244,0.185,0.49,0.366,0.72,0.572c5.732,5.164,17.153,13.736,31.111,15.204
			c0,0,4.255-13.83-4.255-22.34C215.735,166.829,232.224,166.297,243.926,169.489z"/>
		<path class="st7" d="M77.647,83.435c0,0-2.45,8.817-1.08,21.904"/>
		<path class="st7" d="M58.496,92.044c0,0-0.073,6.47,3.008,12.452"/>
		<path class="st7" d="M107.758,67.363c0,0-17.021,20.212-17.021,45.744"/>
		<path class="st7" d="M141.8,67.363c0,0-34.042,23.404-34.042,60.637"/>
		<path class="st7" d="M174.778,75.873c0,0-40.425,24.468-44.68,62.765"/>
		<path class="st7" d="M193.927,101.405c0,0-31.914,8.51-39.361,42.552"/>
		<path class="st7" d="M209.884,124.809c0,0-22.34,3.191-28.723,24.468"/>
	</g>
</g>
<g id="Layer_91">
</g>
<g id="Layer_92">
</g>
<g id="Layer_93">
</g>
<g id="Layer_94">
</g>
<g id="Layer_95">
</g>
<g id="Layer_96">
</g>
<g id="Layer_97">
</g>
<g id="Layer_98">
</g>
<g id="Layer_99">
</g>
<g id="Layer_100">
</g>
</svg>
