<?xml version="1.0" encoding="utf-8"?>
<!-- Generator: Adobe Illustrator 22.0.0, SVG Export Plug-In . SVG Version: 6.00 Build 0)  -->
<svg version="1.1" xmlns="http://www.w3.org/2000/svg" xmlns:xlink="http://www.w3.org/1999/xlink" x="0px" y="0px"
	 viewBox="0 0 256 256" style="enable-background:new 0 0 256 256;" xml:space="preserve">
<style type="text/css">
	.st0{fill:#F9BD55;}
	.st1{fill:#F4DBCE;}
	.st2{fill:#52565B;}
	.st3{fill:#FD605B;}
	.st4{fill:#F98080;}
	.st5{fill:#F9E63A;}
	.st6{fill:#039BE6;}
	.st7{fill:none;stroke:#000000;stroke-width:5;stroke-linecap:round;stroke-linejoin:round;stroke-miterlimit:10;}
	.st8{fill:#7D3D1A;}
	.st9{fill:#EAA250;}
	.st10{fill:#DD7F57;}
	.st11{fill:#FFC097;}
	.st12{fill:#F49667;}
	.st13{fill:#F89422;}
	.st14{fill:#E3E4E5;}
	.st15{fill:#6E7175;}
	.st16{fill:#46BAF9;}
	.st17{fill:#D9F3FF;}
	.st18{fill:#828487;}
	.st19{fill:#A8AEB2;}
	.st20{fill:#C9CDD1;}
	.st21{fill:#8CD8F9;}
	.st22{fill:#1AA7E5;}
	.st23{fill:#ACE7FC;}
	.st24{fill:#FFFFFF;}
	.st25{fill:#9E512B;}
	.st26{fill:#7ED5FC;}
	.st27{fill:#7CCC4E;}
	.st28{fill:#3AA03A;}
	.st29{fill:#FCB1B1;}
	.st30{fill:#F76E23;}
	.st31{fill:#C16A44;}
	.st32{fill:#B796EA;}
</style>
<g id="Layer_1">
</g>
<g id="Layer_2">
</g>
<g id="Layer_3">
</g>
<g id="Layer_4">
</g>
<g id="Layer_5">
</g>
<g id="Layer_6">
</g>
<g id="Layer_7">
</g>
<g id="Layer_8">
</g>
<g id="Layer_9">
</g>
<g id="Layer_10">
</g>
<g id="Layer_11">
</g>
<g id="Layer_12">
</g>
<g id="Layer_13">
</g>
<g id="Layer_14">
</g>
<g id="Layer_15">
</g>
<g id="Layer_16">
</g>
<g id="Layer_17">
</g>
<g id="Layer_18">
</g>
<g id="Layer_19">
</g>
<g id="Layer_20">
</g>
<g id="Layer_21">
</g>
<g id="Layer_22">
</g>
<g id="Layer_23">
</g>
<g id="Layer_24">
</g>
<g id="Layer_25">
</g>
<g id="Layer_26">
</g>
<g id="Layer_27">
</g>
<g id="Layer_28">
</g>
<g id="Layer_29">
</g>
<g id="Layer_30">
</g>
<g id="Layer_31">
</g>
<g id="Layer_32">
</g>
<g id="Layer_33">
</g>
<g id="Layer_34">
</g>
<g id="Layer_35">
</g>
<g id="Layer_36">
</g>
<g id="Layer_37">
</g>
<g id="Layer_38">
</g>
<g id="Layer_39">
</g>
<g id="Layer_40">
</g>
<g id="Layer_41">
</g>
<g id="Layer_42">
</g>
<g id="Layer_43">
</g>
<g id="Layer_44">
</g>
<g id="Layer_45">
</g>
<g id="Layer_46">
</g>
<g id="Layer_47">
</g>
<g id="Layer_48">
</g>
<g id="Layer_49">
</g>
<g id="Layer_50">
</g>
<g id="Layer_51">
</g>
<g id="Layer_52">
</g>
<g id="Layer_53">
</g>
<g id="Layer_54">
</g>
<g id="Layer_55">
</g>
<g id="Layer_56">
</g>
<g id="Layer_57">
</g>
<g id="Layer_58">
</g>
<g id="Layer_59">
</g>
<g id="Layer_60">
</g>
<g id="Layer_61">
</g>
<g id="Layer_62">
</g>
<g id="Layer_63">
</g>
<g id="Layer_64">
</g>
<g id="Layer_65">
</g>
<g id="Layer_66">
</g>
<g id="Layer_67">
</g>
<g id="Layer_68">
</g>
<g id="Layer_69">
</g>
<g id="Layer_70">
</g>
<g id="Layer_71">
</g>
<g id="Layer_72">
</g>
<g id="Layer_73">
</g>
<g id="Layer_74">
	<g>
		<path class="st13" d="M187.8,77.859c-0.847-10.929-8.817-20.009-19.574-22.123c-7.407-1.455-16.738-2.858-26.766-3.372
			c-3.283-5.098-8.996-8.483-15.51-8.483c-7.455,0-13.861,4.43-16.771,10.794c-0.421,0.095-0.848,0.173-1.267,0.274
			c-25.295,6.106-44.254,2.074-52.736-0.589c-1.3-0.408-2.378,1.048-1.604,2.169c3.585,5.197,5.692,12.725-20.675,4.586
			c-1.358-0.419-2.442,1.169-1.539,2.267c8.126,9.889,35.376,36.311,92.166,32.394c0,0-9.071,12.094-27.213,10.43
			c-1.631-0.15-2.445,1.907-1.166,2.931c8.366,6.7,30.216,19.426,70.191,12.864c8.948-1.469,16.315-7.663,19.348-16.209
			C187.038,99.157,188.739,89.974,187.8,77.859z"/>
		<path class="st0" d="M31.019,55.949c0,0,9.64,21.089,61.72,24.549c2.714,0.18,5.031-1.949,5.111-4.667v0
			c0.078-2.651-2.011-4.864-4.661-4.955C57.004,69.632,41.29,66.841,31.019,55.949z"/>
		<path class="st30" d="M230.876,118.574c1.539-7.213-2.962-14.31-8.013-19.683c-2.816-2.996-5.887-5.745-9.147-8.25
			c1.62,6.164,1.476,12.827-0.544,18.885c-3.475,10.426-12.162,18.838-22.51,22.539c-4.151,1.484-8.534,2.216-12.936,2.271
			c0.992,3.031,2.691,5.751,5.53,7.013c1.506,0.669,3.181,0.845,4.827,0.929c13.024,0.665,26.241-4.121,35.82-12.971
			C227.088,126.363,229.972,122.813,230.876,118.574z"/>
		<path class="st30" d="M231.17,115.508c0.009,1.017-0.075,2.039-0.294,3.065c-0.904,4.24-3.789,7.789-6.973,10.732
			c-9.247,8.544-21.885,13.285-34.467,13.005c0.399,4.434,1.416,8.815,4.546,11.828c3.134,3.018,7.709,3.942,12.043,4.315
			c5.128,0.441,10.482,0.257,15.131-1.95c3.783-1.797,6.844-4.814,9.58-7.985c2.137-2.478,4.142-5.114,5.493-8.093
			C239.97,132.176,237.68,121.718,231.17,115.508z"/>
		<path class="st30" d="M234.504,156.62c0.957-4.049,0.795-8.373-0.499-12.315c-0.999,1.469-2.109,2.868-3.27,4.214
			c-2.735,3.171-5.797,6.188-9.58,7.985c-4.649,2.208-10.003,2.391-15.131,1.95c-3.38-0.291-6.897-0.932-9.772-2.625
			c-0.417,1.559-0.721,3.14-0.798,4.751c-0.155,3.248,0.735,6.695,3.091,8.936c1.989,1.892,4.741,2.706,7.381,3.458
			c4.36,1.242,8.994,2.487,13.359,1.262c2.332-0.655,4.425-1.983,6.288-3.531C229.925,167.09,233.203,162.125,234.504,156.62z"/>
		<path class="st30" d="M225.574,170.704c-1.863,1.548-3.957,2.877-6.288,3.531c-4.365,1.225-8.999-0.02-13.359-1.262
			c-2.42-0.69-4.927-1.441-6.861-3.017c-0.394,1.34-0.787,2.68-1.181,4.02c-1.617,5.504-3.103,11.914,0.215,16.594
			c1.92,2.708,5.222,4.262,8.536,4.461c3.314,0.2,6.621-0.852,9.481-2.538c7.739-4.563,12.054-14.127,10.764-22.962
			C226.456,169.933,226.024,170.33,225.574,170.704z"/>
		<path class="st30" d="M206.637,195.032c-3.314-0.199-6.616-1.753-8.536-4.461c-0.787-1.11-1.296-2.319-1.605-3.587
			c-2.027,2.866-4.167,5.652-6.422,8.342c-1.568,1.871-3.212,3.731-4.232,5.949c-1.02,2.218-1.335,4.906-0.198,7.067
			c1.547,2.941,5.391,4.06,8.648,3.4c3.257-0.66,6.041-2.711,8.614-4.814c2.922-2.389,5.755-4.948,7.936-8.029
			c1.117-1.577,2.052-3.309,2.703-5.129C211.35,194.673,208.997,195.174,206.637,195.032z"/>
		<path class="st13" d="M188.989,211.239c-4.255,8.521-9.973,16.312-16.87,22.882c-2.467,2.35-5.143,4.585-8.309,5.845
			c-3.38,1.344-7.057,1.465-10.701,1.02c0.248,3.04,1.151,6.028,2.68,8.668c1.363,2.356,2.736,3.463,5.83,3.774
			c5.601,0.562,11.144-2.204,15.117-6.192c3.972-3.987,6.607-9.093,8.962-14.207c3.09-6.712,5.838-13.843,6.518-21.125
			C191.1,211.877,189.997,211.657,188.989,211.239z"/>
		<path class="st0" d="M185.643,208.341c-0.556-1.056-0.76-2.239-0.709-3.43c-9.337,6.331-19.855,10.918-30.867,13.373
			c-4.008,0.893-8.185,1.551-11.683,3.704c-3.498,2.153-6.171,6.309-5.145,10.286c1.161,4.499,6.211,6.672,10.727,7.765
			c5.218,1.261,10.856,1.911,15.844-0.072c3.166-1.26,5.842-3.494,8.309-5.845c6.896-6.57,12.615-14.36,16.87-22.882
			C187.576,210.654,186.359,209.701,185.643,208.341z"/>
		<path class="st30" d="M207.488,78.501c-1.427-1.679-3.02-3.183-4.73-4.551c-5.559-4.446-12.256-7.154-19.267-8.179
			c2.419,3.495,3.964,7.631,4.31,12.087c0.939,12.115-0.762,21.298-3.117,27.934c-3.032,8.546-10.4,14.741-19.348,16.209
			c-4.172,0.685-8.134,1.149-11.916,1.442c5.812,6.591,14.057,10.71,22.882,10.896c4.879,0.103,9.763-0.633,14.362-2.277
			c10.348-3.701,19.034-12.113,22.51-22.538C216.648,99.099,214.607,86.872,207.488,78.501z"/>
		<path class="st7" d="M119.201,62.565c-0.012-3.728,3-6.759,6.728-6.771c3.728-0.012,6.759,3,6.771,6.728"/>
		<path class="st7" d="M187.8,77.859c-0.847-10.929-8.817-20.009-19.574-22.123c-7.407-1.455-16.738-2.858-26.766-3.372
			c-3.283-5.098-8.996-8.483-15.51-8.483c-7.455,0-13.861,4.43-16.771,10.794c-0.421,0.095-0.848,0.173-1.267,0.274
			c-25.295,6.106-44.254,2.074-52.736-0.589c-1.3-0.408-2.378,1.048-1.604,2.169c3.585,5.197,5.692,12.725-20.675,4.586
			c-1.358-0.419-2.442,1.169-1.539,2.267c8.126,9.889,35.376,36.311,92.166,32.394c0,0-9.071,12.094-27.213,10.43
			c-1.631-0.15-2.445,1.907-1.166,2.931c8.366,6.7,30.216,19.426,70.191,12.864c8.948-1.469,16.315-7.663,19.348-16.209
			C187.038,99.157,188.739,89.974,187.8,77.859z"/>
		<path class="st7" d="M31.019,55.949c-1.643-1.742-3.203-3.691-4.759-5.875C7.285,23.449,24.097-0.296,44.532,2.768
			c20.574,3.085,10.56,32.202-3.806,25.867c-3.591-1.583-5.841-6.005-4.518-9.699"/>
		<path class="st7" d="M31.019,55.949c0,0,9.64,21.089,61.72,24.549c2.714,0.18,5.031-1.949,5.111-4.667v0
			c0.078-2.651-2.011-4.864-4.661-4.955C57.004,69.632,41.29,66.841,31.019,55.949z"/>
		<path class="st7" d="M230.876,118.574c1.539-7.213-2.962-14.31-8.013-19.683c-2.816-2.996-5.887-5.745-9.147-8.25
			c1.62,6.164,1.476,12.827-0.544,18.885c-3.475,10.426-12.162,18.838-22.51,22.539c-4.151,1.484-8.534,2.216-12.936,2.271
			c0.992,3.031,2.691,5.751,5.53,7.013c1.506,0.669,3.181,0.845,4.827,0.929c13.024,0.665,26.241-4.121,35.82-12.971
			C227.088,126.363,229.972,122.813,230.876,118.574z"/>
		<path class="st7" d="M231.17,115.508c0.009,1.017-0.075,2.039-0.294,3.065c-0.904,4.24-3.789,7.789-6.973,10.732
			c-9.247,8.544-21.885,13.285-34.467,13.005c0.399,4.434,1.416,8.815,4.546,11.828c3.134,3.018,7.709,3.942,12.043,4.315
			c5.128,0.441,10.482,0.257,15.131-1.95c3.783-1.797,6.844-4.814,9.58-7.985c2.137-2.478,4.142-5.114,5.493-8.093
			C239.97,132.176,237.68,121.718,231.17,115.508z"/>
		<path class="st7" d="M234.504,156.62c0.957-4.049,0.795-8.373-0.499-12.315c-0.999,1.469-2.109,2.868-3.27,4.214
			c-2.735,3.171-5.797,6.188-9.58,7.985c-4.649,2.208-10.003,2.391-15.131,1.95c-3.38-0.291-6.897-0.932-9.772-2.625
			c-0.417,1.559-0.721,3.14-0.798,4.751c-0.155,3.248,0.735,6.695,3.091,8.936c1.989,1.892,4.741,2.706,7.381,3.458
			c4.36,1.242,8.994,2.487,13.359,1.262c2.332-0.655,4.425-1.983,6.288-3.531C229.925,167.09,233.203,162.125,234.504,156.62z"/>
		<path class="st7" d="M225.574,170.704c-1.863,1.548-3.957,2.877-6.288,3.531c-4.365,1.225-8.999-0.02-13.359-1.262
			c-2.42-0.69-4.927-1.441-6.861-3.017c-0.394,1.34-0.787,2.68-1.181,4.02c-1.617,5.504-3.103,11.914,0.215,16.594
			c1.92,2.708,5.222,4.262,8.536,4.461c3.314,0.2,6.621-0.852,9.481-2.538c7.739-4.563,12.054-14.127,10.764-22.962
			C226.456,169.933,226.024,170.33,225.574,170.704z"/>
		<path class="st7" d="M206.637,195.032c-3.314-0.199-6.616-1.753-8.536-4.461c-0.787-1.11-1.296-2.319-1.605-3.587
			c-2.027,2.866-4.167,5.652-6.422,8.342c-1.568,1.871-3.212,3.731-4.232,5.949c-1.02,2.218-1.335,4.906-0.198,7.067
			c1.547,2.941,5.391,4.06,8.648,3.4c3.257-0.66,6.041-2.711,8.614-4.814c2.922-2.389,5.755-4.948,7.936-8.029
			c1.117-1.577,2.052-3.309,2.703-5.129C211.35,194.673,208.997,195.174,206.637,195.032z"/>
		<path class="st7" d="M188.989,211.239c-4.255,8.521-9.973,16.312-16.87,22.882c-2.467,2.35-5.143,4.585-8.309,5.845
			c-3.38,1.344-7.057,1.465-10.701,1.02c0.248,3.04,1.151,6.028,2.68,8.668c1.363,2.356,2.736,3.463,5.83,3.774
			c5.601,0.562,11.144-2.204,15.117-6.192c3.972-3.987,6.607-9.093,8.962-14.207c3.09-6.712,5.838-13.843,6.518-21.125
			C191.1,211.877,189.997,211.657,188.989,211.239z"/>
		<path class="st7" d="M185.643,208.341c-0.556-1.056-0.76-2.239-0.709-3.43c-9.337,6.331-19.855,10.918-30.867,13.373
			c-4.008,0.893-8.185,1.551-11.683,3.704c-3.498,2.153-6.171,6.309-5.145,10.286c1.161,4.499,6.211,6.672,10.727,7.765
			c5.218,1.261,10.856,1.911,15.844-0.072c3.166-1.26,5.842-3.494,8.309-5.845c6.896-6.57,12.615-14.36,16.87-22.882
			C187.576,210.654,186.359,209.701,185.643,208.341z"/>
		<path class="st7" d="M207.488,78.501c-1.427-1.679-3.02-3.183-4.73-4.551c-5.559-4.446-12.256-7.154-19.267-8.179
			c2.419,3.495,3.964,7.631,4.31,12.087c0.939,12.115-0.762,21.298-3.117,27.934c-3.032,8.546-10.4,14.741-19.348,16.209
			c-4.172,0.685-8.134,1.149-11.916,1.442c5.812,6.591,14.057,10.71,22.882,10.896c4.879,0.103,9.763-0.633,14.362-2.277
			c10.348-3.701,19.034-12.113,22.51-22.538C216.648,99.099,214.607,86.872,207.488,78.501z"/>
		<polyline class="st7" points="108.844,117.2 92.626,122.465 76.469,142.339 71.296,164.299 		"/>
		<polyline class="st7" points="124.83,122.059 109.711,133.818 101.687,156.834 104.168,178.161 		"/>
		<polyline class="st7" points="145.024,123.829 132.69,137.996 129.652,159.237 135.404,177.242 		"/>
		<polyline class="st7" points="167.43,132.792 160.395,141 160.395,150.579 		"/>
		<polyline class="st7" points="181.342,140.152 172.67,145.752 169.943,154.935 		"/>
		<polyline class="st7" points="191.684,151.069 181.953,155.047 177.58,163.57 		"/>
		<polyline class="st7" points="196.972,167.498 187.884,167.493 180.608,173.723 		"/>
		<polyline class="st7" points="196.108,184.707 189.407,181.67 180.209,184.345 		"/>
	</g>
</g>
<g id="Layer_75">
</g>
<g id="Layer_76">
</g>
<g id="Layer_77">
</g>
<g id="Layer_78">
</g>
<g id="Layer_79">
</g>
<g id="Layer_80">
</g>
<g id="Layer_81">
</g>
<g id="Layer_82">
</g>
<g id="Layer_83">
</g>
<g id="Layer_84">
</g>
<g id="Layer_85">
</g>
<g id="Layer_86">
</g>
<g id="Layer_87">
</g>
<g id="Layer_88">
</g>
<g id="Layer_89">
</g>
<g id="Layer_90">
</g>
<g id="Layer_91">
</g>
<g id="Layer_92">
</g>
<g id="Layer_93">
</g>
<g id="Layer_94">
</g>
<g id="Layer_95">
</g>
<g id="Layer_96">
</g>
<g id="Layer_97">
</g>
<g id="Layer_98">
</g>
<g id="Layer_99">
</g>
<g id="Layer_100">
</g>
</svg>
