<?xml version="1.0" encoding="utf-8"?>
<!-- Generator: Adobe Illustrator 22.0.0, SVG Export Plug-In . SVG Version: 6.00 Build 0)  -->
<svg version="1.1" xmlns="http://www.w3.org/2000/svg" xmlns:xlink="http://www.w3.org/1999/xlink" x="0px" y="0px"
	 viewBox="0 0 256 256" style="enable-background:new 0 0 256 256;" xml:space="preserve">
<style type="text/css">
	.st0{fill:#F9BD55;}
	.st1{fill:#F4DBCE;}
	.st2{fill:#52565B;}
	.st3{fill:#FD605B;}
	.st4{fill:#F98080;}
	.st5{fill:#F9E63A;}
	.st6{fill:#039BE6;}
	.st7{fill:none;stroke:#000000;stroke-width:5;stroke-linecap:round;stroke-linejoin:round;stroke-miterlimit:10;}
	.st8{fill:#7D3D1A;}
	.st9{fill:#EAA250;}
	.st10{fill:#DD7F57;}
	.st11{fill:#FFC097;}
	.st12{fill:#F49667;}
	.st13{fill:#F89422;}
	.st14{fill:#E3E4E5;}
	.st15{fill:#6E7175;}
	.st16{fill:#46BAF9;}
	.st17{fill:#D9F3FF;}
	.st18{fill:#828487;}
	.st19{fill:#A8AEB2;}
	.st20{fill:#C9CDD1;}
	.st21{fill:#8CD8F9;}
	.st22{fill:#1AA7E5;}
	.st23{fill:#ACE7FC;}
	.st24{fill:#FFFFFF;}
	.st25{fill:#9E512B;}
	.st26{fill:#7ED5FC;}
	.st27{fill:#7CCC4E;}
	.st28{fill:#3AA03A;}
	.st29{fill:#FCB1B1;}
	.st30{fill:#F76E23;}
	.st31{fill:#C16A44;}
	.st32{fill:#B796EA;}
</style>
<g id="Layer_1">
</g>
<g id="Layer_2">
</g>
<g id="Layer_3">
</g>
<g id="Layer_4">
</g>
<g id="Layer_5">
</g>
<g id="Layer_6">
</g>
<g id="Layer_7">
</g>
<g id="Layer_8">
</g>
<g id="Layer_9">
</g>
<g id="Layer_10">
</g>
<g id="Layer_11">
</g>
<g id="Layer_12">
</g>
<g id="Layer_13">
</g>
<g id="Layer_14">
</g>
<g id="Layer_15">
</g>
<g id="Layer_16">
</g>
<g id="Layer_17">
</g>
<g id="Layer_18">
</g>
<g id="Layer_19">
</g>
<g id="Layer_20">
</g>
<g id="Layer_21">
</g>
<g id="Layer_22">
</g>
<g id="Layer_23">
</g>
<g id="Layer_24">
</g>
<g id="Layer_25">
</g>
<g id="Layer_26">
</g>
<g id="Layer_27">
</g>
<g id="Layer_28">
</g>
<g id="Layer_29">
</g>
<g id="Layer_30">
</g>
<g id="Layer_31">
</g>
<g id="Layer_32">
</g>
<g id="Layer_33">
</g>
<g id="Layer_34">
</g>
<g id="Layer_35">
</g>
<g id="Layer_36">
</g>
<g id="Layer_37">
</g>
<g id="Layer_38">
</g>
<g id="Layer_39">
</g>
<g id="Layer_40">
</g>
<g id="Layer_41">
</g>
<g id="Layer_42">
</g>
<g id="Layer_43">
</g>
<g id="Layer_44">
</g>
<g id="Layer_45">
</g>
<g id="Layer_46">
</g>
<g id="Layer_47">
</g>
<g id="Layer_48">
</g>
<g id="Layer_49">
</g>
<g id="Layer_50">
</g>
<g id="Layer_51">
</g>
<g id="Layer_52">
</g>
<g id="Layer_53">
</g>
<g id="Layer_54">
</g>
<g id="Layer_55">
</g>
<g id="Layer_56">
</g>
<g id="Layer_57">
</g>
<g id="Layer_58">
</g>
<g id="Layer_59">
</g>
<g id="Layer_60">
</g>
<g id="Layer_61">
</g>
<g id="Layer_62">
</g>
<g id="Layer_63">
</g>
<g id="Layer_64">
</g>
<g id="Layer_65">
</g>
<g id="Layer_66">
</g>
<g id="Layer_67">
</g>
<g id="Layer_68">
</g>
<g id="Layer_69">
</g>
<g id="Layer_70">
</g>
<g id="Layer_71">
</g>
<g id="Layer_72">
</g>
<g id="Layer_73">
</g>
<g id="Layer_74">
</g>
<g id="Layer_75">
</g>
<g id="Layer_76">
</g>
<g id="Layer_77">
	<g>
		<circle class="st0" cx="49.253" cy="41.743" r="13.262"/>
		<path class="st27" d="M65.098,25.541c0,0-6.959-0.573-12.7,3.331c5.803,1.414,10.117,6.633,10.117,12.871
			c0,7.324-5.938,13.262-13.262,13.262c-4.226,0-7.982-1.984-10.41-5.063c-8.268,9.74-19.422,18.179-11.045,21.902
			c3.678,1.634,8.004,1.582,12.196,0.748c0,0-0.246,4.053,2.595,6.326c6.431,5.145,39.873,1.286,43.731-24.438
			C90.179,28.756,65.098,25.541,65.098,25.541z"/>
		<g>
			<path class="st27" d="M56.816,26.7c4.374-1.481,8.281-1.16,8.281-1.16s0.463,0.061,1.238,0.225
				c-5.46-10.179-17.568-24.826-41.642-23.13c-1.225,0.086-1.385,1.828-0.189,2.108C33.453,6.836,48.893,12.409,56.816,26.7z"/>
		</g>
		<path class="st27" d="M87.908,93.088c0.005-2.752-1.953-5.109-4.657-5.621c-2.968-0.562-5.848,1.279-6.609,4.202
			c-1.819,6.992-3.723,19.721,2.828,29.334C87.076,132.165,87.888,104.582,87.908,93.088z"/>
		<path class="st27" d="M79.47,121.003c-1.209-1.774-2.127-3.655-2.814-5.586c-10.886-3.987-33.293-11.432-43.54-9.274
			c-12.664,2.667,19.861,24.429,44.199,19.523c1.682-0.339,3.097-1.27,4.087-2.531C80.812,122.722,80.17,122.031,79.47,121.003z"/>
		<path class="st27" d="M41.118,118.622c-6.343-3.449-10.605-7.296-10.817-9.853c-1.252,4.392-5.473,24.051,15.554,34.739
			c0.804,0.408,1.613-0.559,1.055-1.268C43.377,137.751,37.819,128.609,41.118,118.622z"/>
		<path class="st27" d="M84.903,60.045c-3.103,8.596-9.896,14.131-17.222,17.316c2.251,2.73,5.659,4.471,9.474,4.471
			c6.778,0,12.273-5.495,12.273-12.273C89.428,65.72,87.663,62.295,84.903,60.045z"/>
		<path class="st27" d="M107.215,128.164c-0.744-4.694,3.177-8.43,7.426-8.21L88.24,74.802c-1.648,3.478-4.873,6.057-8.76,6.803
			c0.311,1.683,0.734,3.689,1.311,5.954c0.784-0.199,1.615-0.253,2.46-0.092c2.704,0.512,4.662,2.87,4.657,5.622
			c-0.006,3.339-0.08,8.037-0.367,12.747c4.352,8.745,10.798,17.891,20.314,25.118C107.56,129.923,107.345,128.985,107.215,128.164z
			"/>
		<path class="st27" d="M170.64,209.376c0,0,19.205-11.335,23.608-26.431c0.74-2.537-2.222-4.565-4.367-3.021
			c-6.082,4.377-20.28,15.118-27.221,24.919C152.105,219.749,170.64,209.376,170.64,209.376z"/>
		<g>
			<path class="st27" d="M136.074,175.958c0.786,1.986,1.584,3.577,1.584,3.577s8.859,25.849,21.859,32.469
				c-0.388-1.069,0.36-3.23,3.143-7.16c0.095-0.134,0.205-0.27,0.303-0.404c-2.283-3.287-5.172-9.17-8.354-15.147
				C147.524,185.209,141.377,180.676,136.074,175.958z"/>
		</g>
		<g>
			<path class="st0" d="M178.508,188.727c-51.322-14.372-69.436-48.847-71.293-60.563c-0.025-0.161-0.025-0.316-0.04-0.474
				c-0.062,0.693-0.062,1.409,0.04,2.151c1.747,12.739,17.881,48.774,62.546,66.819
				C172.554,193.872,175.583,191.169,178.508,188.727z"/>
			<path class="st0" d="M230.855,200.755l-8.126-5.702c-11.99-0.325-22.84-1.585-32.642-3.55c-2.393,3.545-5.349,6.716-8.233,9.364
				c13.568,4.009,29.352,6.413,47.652,6.364C232.447,207.222,233.37,202.519,230.855,200.755z"/>
		</g>
		<path class="st28" d="M230.855,189.54l-112.889-68.559c-5.205-3.161-11.689,1.262-10.75,7.184
			c1.856,11.716,19.957,46.201,71.278,60.575c4.492-3.751,8.721-6.895,11.388-8.815c2.145-1.544,5.107,0.483,4.367,3.021
			c-0.883,3.026-2.366,5.897-4.164,8.559c11.62,2.33,24.704,3.673,39.42,3.639C232.447,195.137,233.37,191.067,230.855,189.54z"/>
		<path class="st27" d="M108.376,177.624c-0.047-0.705-0.097-1.503-0.146-2.378c-0.578,0.05-1.188,0.113-1.863,0.2
			c-11.911,1.542-28.05,9.057-34.766,12.381c-2.369,1.173-1.965,4.739,0.624,5.273c15.4,3.179,34.409-8.481,34.409-8.481
			s3.663-2.367,5.985-4.737C110.958,180.875,108.525,179.83,108.376,177.624z"/>
		<g>
			<path class="st27" d="M110.317,140.465c-0.029,0.105-0.057,0.194-0.087,0.301c-3.129,11.595-2.357,29.382-1.854,36.858
				c0.177,2.637,3.627,3.628,5.111,1.44c4.31-6.355,5.676-14.854,5.949-21.892C115.285,151.139,112.308,145.388,110.317,140.465z"/>
		</g>
		<path class="st7" d="M39.994,72.593c9.004-1.79,17.387-7.179,17.387-7.179"/>
		<path class="st7" d="M44.401,43.261c-0.009-2.679,2.156-4.859,4.836-4.867c2.679-0.009,4.859,2.156,4.867,4.836"/>
		<circle class="st7" cx="49.253" cy="41.743" r="13.262"/>
		<path class="st7" d="M44.401,43.261c-0.009-2.679,2.156-4.859,4.836-4.867c2.679-0.009,4.859,2.156,4.867,4.836"/>
		<path class="st7" d="M65.098,25.541c0,0-6.959-0.573-12.7,3.331c5.803,1.414,10.117,6.633,10.117,12.871
			c0,7.324-5.938,13.262-13.262,13.262c-4.226,0-7.982-1.984-10.41-5.063c-8.268,9.74-19.422,18.179-11.045,21.902
			c3.678,1.634,8.004,1.582,12.196,0.748c0,0-0.246,4.053,2.595,6.326c6.431,5.145,39.873,1.286,43.731-24.438
			C90.179,28.756,65.098,25.541,65.098,25.541z"/>
		<g>
			<path class="st7" d="M56.816,26.7c4.374-1.481,8.281-1.16,8.281-1.16s0.463,0.061,1.238,0.225
				c-5.46-10.179-17.568-24.826-41.642-23.13c-1.225,0.086-1.385,1.828-0.189,2.108C33.453,6.836,48.893,12.409,56.816,26.7z"/>
		</g>
		<path class="st7" d="M87.908,93.088c0.005-2.752-1.953-5.109-4.657-5.621c-2.968-0.562-5.848,1.279-6.609,4.202
			c-1.819,6.992-3.723,19.721,2.828,29.334C87.076,132.165,87.888,104.582,87.908,93.088z"/>
		<path class="st7" d="M79.47,121.003c-1.209-1.774-2.127-3.655-2.814-5.586c-10.886-3.987-33.293-11.432-43.54-9.274
			c-12.664,2.667,19.861,24.429,44.199,19.523c1.682-0.339,3.097-1.27,4.087-2.531C80.812,122.722,80.17,122.031,79.47,121.003z"/>
		<path class="st7" d="M41.118,118.622c-6.343-3.449-10.605-7.296-10.817-9.853c-1.252,4.392-5.473,24.051,15.554,34.739
			c0.804,0.408,1.613-0.559,1.055-1.268C43.377,137.751,37.819,128.609,41.118,118.622z"/>
		<path class="st7" d="M84.903,60.045c-3.103,8.596-9.896,14.131-17.222,17.316c2.251,2.73,5.659,4.471,9.474,4.471
			c6.778,0,12.273-5.495,12.273-12.273C89.428,65.72,87.663,62.295,84.903,60.045z"/>
		<path class="st7" d="M107.215,128.164c-0.744-4.694,3.177-8.43,7.426-8.21L88.24,74.802c-1.648,3.478-4.873,6.057-8.76,6.803
			c0.311,1.683,0.734,3.689,1.311,5.954c0.784-0.199,1.615-0.253,2.46-0.092c2.704,0.512,4.662,2.87,4.657,5.622
			c-0.006,3.339-0.08,8.037-0.367,12.747c4.352,8.745,10.798,17.891,20.314,25.118C107.56,129.923,107.345,128.985,107.215,128.164z
			"/>
		<g>
			<path class="st7" d="M230.855,200.755l-8.126-5.702c-6.088-0.165-11.871-0.579-17.384-1.195l-1.697,11.669
				c8.006,1.119,16.605,1.729,25.857,1.704C232.447,207.222,233.37,202.519,230.855,200.755z"/>
		</g>
		<path class="st7" d="M170.64,209.376c0,0,19.205-11.335,23.608-26.431c0.74-2.537-2.222-4.565-4.367-3.021
			c-6.082,4.377-20.28,15.118-27.221,24.919C152.105,219.749,170.64,209.376,170.64,209.376z"/>
		<polyline class="st7" points="193.146,185.974 218.015,253.5 227.944,249.652 232.11,251.732 		"/>
		<polyline class="st7" points="71.129,192.605 51.941,244.708 43.553,241.457 40.034,243.215 		"/>
		<g>
			<path class="st7" d="M136.074,175.958c0.786,1.986,1.584,3.577,1.584,3.577s8.859,25.849,21.859,32.469
				c-0.388-1.069,0.36-3.23,3.143-7.16c0.095-0.134,0.205-0.27,0.303-0.404c-2.283-3.287-5.172-9.17-8.354-15.147
				C147.524,185.209,141.377,180.676,136.074,175.958z"/>
		</g>
		<g>
			<path class="st7" d="M178.517,188.72c-11.848-3.32-21.942-7.701-30.459-12.636l-3.437,6.747
				c7.138,5.174,15.471,9.923,25.14,13.83C172.556,193.869,175.589,191.164,178.517,188.72z"/>
			<path class="st7" d="M230.855,200.755l-8.126-5.702c-11.992-0.325-22.833-1.593-32.636-3.559
				c-2.394,3.548-5.352,6.722-8.239,9.373c13.567,4.009,29.351,6.413,47.651,6.364C232.447,207.222,233.37,202.519,230.855,200.755z
				"/>
		</g>
		<g>
			<path class="st7" d="M178.515,188.721c-4.789-1.342-9.3-2.852-13.526-4.509l-4.264,8.37c2.873,1.438,5.897,2.793,9.048,4.066
				C172.565,193.862,175.592,191.161,178.515,188.721z"/>
			<path class="st7" d="M230.855,200.755l-8.126-5.702c-11.992-0.325-22.835-1.591-32.637-3.558
				c-2.392,3.545-5.347,6.716-8.232,9.366c13.566,4.01,29.344,6.42,47.644,6.37C232.447,207.222,233.37,202.519,230.855,200.755z"/>
		</g>
		<g>
			<path class="st7" d="M178.508,188.727c-51.322-14.372-69.436-48.847-71.293-60.563c-0.025-0.161-0.025-0.316-0.04-0.474
				c-0.062,0.693-0.062,1.409,0.04,2.151c1.747,12.739,17.881,48.774,62.546,66.819
				C172.554,193.872,175.583,191.169,178.508,188.727z"/>
			<path class="st7" d="M230.855,200.755l-8.126-5.702c-11.99-0.325-22.84-1.585-32.642-3.55c-2.393,3.545-5.349,6.716-8.233,9.364
				c13.568,4.009,29.352,6.413,47.652,6.364C232.447,207.222,233.37,202.519,230.855,200.755z"/>
		</g>
		<path class="st7" d="M230.855,189.54l-112.889-68.559c-5.205-3.161-11.689,1.262-10.75,7.184
			c1.856,11.716,19.957,46.201,71.278,60.575c4.492-3.751,8.721-6.895,11.388-8.815c2.145-1.544,5.107,0.483,4.367,3.021
			c-0.883,3.026-2.366,5.897-4.164,8.559c11.62,2.33,24.704,3.673,39.42,3.639C232.447,195.137,233.37,191.067,230.855,189.54z"/>
		<path class="st7" d="M108.376,177.624c-0.047-0.705-0.097-1.503-0.146-2.378c-0.578,0.05-1.188,0.113-1.863,0.2
			c-11.911,1.542-28.05,9.057-34.766,12.381c-2.369,1.173-1.965,4.739,0.624,5.273c15.4,3.179,34.409-8.481,34.409-8.481
			s3.663-2.367,5.985-4.737C110.958,180.875,108.525,179.83,108.376,177.624z"/>
		<g>
			<path class="st7" d="M110.317,140.465c-0.029,0.105-0.057,0.194-0.087,0.301c-3.129,11.595-2.357,29.382-1.854,36.858
				c0.177,2.637,3.627,3.628,5.111,1.44c4.31-6.355,5.676-14.854,5.949-21.892C115.285,151.139,112.308,145.388,110.317,140.465z"/>
		</g>
	</g>
</g>
<g id="Layer_78">
</g>
<g id="Layer_79">
</g>
<g id="Layer_80">
</g>
<g id="Layer_81">
</g>
<g id="Layer_82">
</g>
<g id="Layer_83">
</g>
<g id="Layer_84">
</g>
<g id="Layer_85">
</g>
<g id="Layer_86">
</g>
<g id="Layer_87">
</g>
<g id="Layer_88">
</g>
<g id="Layer_89">
</g>
<g id="Layer_90">
</g>
<g id="Layer_91">
</g>
<g id="Layer_92">
</g>
<g id="Layer_93">
</g>
<g id="Layer_94">
</g>
<g id="Layer_95">
</g>
<g id="Layer_96">
</g>
<g id="Layer_97">
</g>
<g id="Layer_98">
</g>
<g id="Layer_99">
</g>
<g id="Layer_100">
</g>
</svg>
