<?xml version="1.0" encoding="utf-8"?>
<!-- Generator: Adobe Illustrator 22.0.0, SVG Export Plug-In . SVG Version: 6.00 Build 0)  -->
<svg version="1.1" xmlns="http://www.w3.org/2000/svg" xmlns:xlink="http://www.w3.org/1999/xlink" x="0px" y="0px"
	 viewBox="0 0 256 256" style="enable-background:new 0 0 256 256;" xml:space="preserve">
<style type="text/css">
	.st0{fill:#F9BD55;}
	.st1{fill:#F4DBCE;}
	.st2{fill:#52565B;}
	.st3{fill:#FD605B;}
	.st4{fill:#F98080;}
	.st5{fill:#F9E63A;}
	.st6{fill:#039BE6;}
	.st7{fill:none;stroke:#000000;stroke-width:5;stroke-linecap:round;stroke-linejoin:round;stroke-miterlimit:10;}
	.st8{fill:#7D3D1A;}
	.st9{fill:#EAA250;}
	.st10{fill:#DD7F57;}
	.st11{fill:#FFC097;}
	.st12{fill:#F49667;}
	.st13{fill:#F89422;}
	.st14{fill:#E3E4E5;}
	.st15{fill:#6E7175;}
	.st16{fill:#46BAF9;}
	.st17{fill:#D9F3FF;}
	.st18{fill:#828487;}
	.st19{fill:#A8AEB2;}
	.st20{fill:#C9CDD1;}
	.st21{fill:#8CD8F9;}
	.st22{fill:#1AA7E5;}
	.st23{fill:#ACE7FC;}
	.st24{fill:#FFFFFF;}
	.st25{fill:#9E512B;}
	.st26{fill:#7ED5FC;}
	.st27{fill:#7CCC4E;}
	.st28{fill:#3AA03A;}
	.st29{fill:#FCB1B1;}
	.st30{fill:#F76E23;}
	.st31{fill:#C16A44;}
	.st32{fill:#B796EA;}
</style>
<g id="Layer_1">
</g>
<g id="Layer_2">
</g>
<g id="Layer_3">
</g>
<g id="Layer_4">
</g>
<g id="Layer_5">
</g>
<g id="Layer_6">
</g>
<g id="Layer_7">
</g>
<g id="Layer_8">
</g>
<g id="Layer_9">
</g>
<g id="Layer_10">
</g>
<g id="Layer_11">
</g>
<g id="Layer_12">
</g>
<g id="Layer_13">
</g>
<g id="Layer_14">
</g>
<g id="Layer_15">
</g>
<g id="Layer_16">
</g>
<g id="Layer_17">
</g>
<g id="Layer_18">
</g>
<g id="Layer_19">
</g>
<g id="Layer_20">
</g>
<g id="Layer_21">
</g>
<g id="Layer_22">
</g>
<g id="Layer_23">
</g>
<g id="Layer_24">
</g>
<g id="Layer_25">
</g>
<g id="Layer_26">
</g>
<g id="Layer_27">
</g>
<g id="Layer_28">
</g>
<g id="Layer_29">
</g>
<g id="Layer_30">
</g>
<g id="Layer_31">
</g>
<g id="Layer_32">
</g>
<g id="Layer_33">
</g>
<g id="Layer_34">
</g>
<g id="Layer_35">
</g>
<g id="Layer_36">
</g>
<g id="Layer_37">
</g>
<g id="Layer_38">
</g>
<g id="Layer_39">
</g>
<g id="Layer_40">
</g>
<g id="Layer_41">
</g>
<g id="Layer_42">
</g>
<g id="Layer_43">
</g>
<g id="Layer_44">
</g>
<g id="Layer_45">
</g>
<g id="Layer_46">
</g>
<g id="Layer_47">
</g>
<g id="Layer_48">
</g>
<g id="Layer_49">
</g>
<g id="Layer_50">
</g>
<g id="Layer_51">
</g>
<g id="Layer_52">
</g>
<g id="Layer_53">
</g>
<g id="Layer_54">
</g>
<g id="Layer_55">
</g>
<g id="Layer_56">
</g>
<g id="Layer_57">
</g>
<g id="Layer_58">
</g>
<g id="Layer_59">
</g>
<g id="Layer_60">
</g>
<g id="Layer_61">
</g>
<g id="Layer_62">
</g>
<g id="Layer_63">
</g>
<g id="Layer_64">
</g>
<g id="Layer_65">
</g>
<g id="Layer_66">
</g>
<g id="Layer_67">
</g>
<g id="Layer_68">
</g>
<g id="Layer_69">
	<g>
		<path class="st1" d="M251.523,105.921c-0.684-3.043-4.238-4.466-6.779-2.657c-3.658,2.605-10.168,5.968-21.699,9.331
			c-24.277,7.081-43.495-8.092-43.495-8.092C129.695,69.756,82.101,71.677,55.715,82.459c-2.883-2.036-6.394-3.244-10.192-3.244
			c-9.776,0-17.702,7.925-17.702,17.702c0,2.388,0.479,4.661,1.336,6.74c-12.617,10.468-27.454,12.05-26.624,17.031
			c1.012,6.069,8.519,8.759,8.519,8.759c-3.227,0.95-4.991,3.056-5.941,4.859c-0.77,1.461-0.204,3.254,1.238,4.058
			c3.55,1.978,9.656,8.927,22.483,24.808c21.242,26.3,73.611,36.53,110.256,18.207c16.184-8.092,28.323-24.277,53.611-39.449
			c19.103-11.462,39.937,4.205,48.986,12.556c2.33,2.15,6.075,1.167,7.092-1.835C255.59,132.535,253.626,115.279,251.523,105.921z"
			/>
		<g>
			<path class="st13" d="M251.523,105.921c-0.684-3.043-4.238-4.466-6.779-2.657c-6.219,4.429-17.916,8.59-24.749,10.1
				c8.576,7.066,7.984,20.331-1.142,26.628c9.626,3.354,17.947,9.986,22.832,14.493c2.33,2.15,6.075,1.167,7.092-1.835
				C255.59,132.535,253.626,115.279,251.523,105.921z"/>
		</g>
		<path class="st30" d="M155.137,90.188c4.549-5.275,9.099-10.551,13.648-15.826c2.822-3.273,3.031-6.182-1.103-7.297
			c-16.466-4.442-34.588-0.14-48.183,11.05C130.826,80.376,142.806,84.25,155.137,90.188z"/>
		<path class="st30" d="M175.783,153.47c-7.951,6.082-14.475,11.956-20.692,17.026c4.905,0.309,9.818,0.493,14.732,0.527
			c9.623,0.066,12.717-4.135,8.266-12.973C177.32,156.523,176.551,154.996,175.783,153.47z"/>
		<path class="st13" d="M219.995,113.364c0.002,0,0.003-0.001,0.005-0.001c-22.817,5.045-40.45-8.859-40.45-8.859
			C129.695,69.756,82.101,71.677,55.715,82.459c-2.883-2.036-6.394-3.244-10.192-3.244c-9.776,0-17.702,7.925-17.702,17.702
			c0,2.388,0.479,4.661,1.336,6.74c-12.617,10.468-27.454,12.05-26.624,17.031c1.012,6.069,8.519,8.759,8.519,8.759
			c-3.227,0.95-4.991,3.056-5.941,4.859c-0.77,1.461-0.204,3.254,1.238,4.058c1.111,0.619,2.474,1.727,4.214,3.442
			c12.939-6.724,30.282-4.413,44.357,0.362c2.589,0.878,5.625,2.347,9.208,3.784l0.096-0.101c1.858-1.761,3.021-4.248,3.021-7.009
			c0-1.918-0.574-3.695-1.538-5.198c9.587-3.164,12.309-2.788,27.354-4.975c0.031-0.004,0.063-0.009,0.094-0.014
			c4.205-0.614,7.552,3.555,5.935,7.485c-1.713,4.163-3.614,6.381-6.498,9.7c-1.484,1.707-2.731,3.039-4.023,4.027
			c3.656-0.366,7.599-1.173,11.856-2.578c11.016-3.636,20.947-10.566,32.386-12.502c12.167-2.059,24.671,1.78,36.928,0.354
			c17.32-2.015,39.004-17.494,56.23-7.236C226.496,122.624,224.554,117.119,219.995,113.364z"/>
		<path class="st30" d="M93.157,128.654c-0.031,0.004-0.063,0.009-0.094,0.014c-15.045,2.187-17.767,1.811-27.354,4.975
			c0.964,1.503,1.538,3.28,1.538,5.198c0,2.762-1.163,5.248-3.021,7.009c4.654,3.801,10.569,6.036,16.577,6.203
			c5.667,0.158,7.923-1.764,11.791-6.215c2.884-3.319,4.785-5.537,6.498-9.7C100.709,132.209,97.362,128.04,93.157,128.654z"/>
		<g>
			<path class="st7" d="M251.523,105.921c-0.684-3.043-4.238-4.466-6.779-2.657c-6.219,4.429-17.916,8.59-24.749,10.1
				c8.576,7.066,7.984,20.331-1.142,26.628c9.626,3.354,17.947,9.986,22.832,14.493c2.33,2.15,6.075,1.167,7.092-1.835
				C255.59,132.535,253.626,115.279,251.523,105.921z"/>
		</g>
		<path class="st7" d="M62.829,130.725c2.659,1.721,4.418,4.714,4.418,8.117c0,4.547-3.14,8.36-7.371,9.389"/>
		<path class="st7" d="M30.822,106.781c-1.895-2.819-3.001-6.212-3.001-9.864c0-9.776,7.925-17.702,17.702-17.702
			c5.909,0,11.141,2.895,14.356,7.344"/>
		<path class="st7" d="M251.523,105.921c-0.684-3.043-4.238-4.466-6.779-2.657c-3.658,2.605-10.168,5.968-21.699,9.331
			c-24.277,7.081-43.495-8.092-43.495-8.092C129.695,69.756,82.101,71.677,55.715,82.459c-2.883-2.036-6.394-3.244-10.192-3.244
			c-9.776,0-17.702,7.925-17.702,17.702c0,2.388,0.479,4.661,1.336,6.74c-12.617,10.468-27.454,12.05-26.624,17.031
			c1.012,6.069,8.519,8.759,8.519,8.759c-3.227,0.95-4.991,3.056-5.941,4.859c-0.77,1.461-0.204,3.254,1.238,4.058
			c3.55,1.978,9.656,8.927,22.483,24.808c21.242,26.3,73.611,36.53,110.256,18.207c16.184-8.092,28.323-24.277,53.611-39.449
			c19.103-11.462,39.937,4.205,48.986,12.556c2.33,2.15,6.075,1.167,7.092-1.835C255.59,132.535,253.626,115.279,251.523,105.921z"
			/>
		<path class="st7" d="M40.498,97.475c-0.01-3.071,2.471-5.568,5.542-5.578s5.568,2.471,5.578,5.542"/>
		<path class="st7" d="M155.137,90.188c4.549-5.275,9.099-10.551,13.648-15.826c2.822-3.273,3.031-6.182-1.103-7.297
			c-16.466-4.442-34.588-0.14-48.183,11.05C130.826,80.376,142.806,84.25,155.137,90.188z"/>
		<path class="st7" d="M175.783,153.47c-7.951,6.082-14.475,11.956-20.692,17.026c4.905,0.309,9.818,0.493,14.732,0.527
			c9.623,0.066,12.717-4.135,8.266-12.973C177.32,156.523,176.551,154.996,175.783,153.47z"/>
		<path class="st7" d="M234.678,118.159c0,0,5.058-1.012,8.092-2.023"/>
		<path class="st7" d="M234.678,137.378c0,0,5.058,1.012,8.092,2.023"/>
		<line class="st7" x1="235.183" y1="127.768" x2="243.275" y2="127.768"/>
		<path class="st7" d="M68.308,114.641c2.929-2.378,6.12-5.591,9.028-4.518c1.455,0.537,2.362,2.058,2.608,3.589
			s-0.053,3.091-0.351,4.613"/>
		<path class="st7" d="M97.82,110.833c2.929-2.378,6.12-5.591,9.028-4.518c1.455,0.537,2.362,2.058,2.608,3.589
			c0.246,1.531-0.053,3.091-0.351,4.613"/>
		<path class="st7" d="M124.475,119.401c2.929-2.378,6.12-5.591,9.028-4.518c1.455,0.537,2.362,2.058,2.608,3.589
			c0.246,1.531-0.053,3.091-0.351,4.613"/>
		<path class="st7" d="M146.554,110.807c2.727-2.213,5.697-5.204,8.404-4.205c1.354,0.5,2.199,1.916,2.428,3.341
			c0.229,1.425-0.049,2.878-0.326,4.294"/>
		<path class="st7" d="M170.281,120.776c2.281-1.851,4.765-4.353,7.03-3.518c1.133,0.418,1.839,1.602,2.031,2.794
			s-0.041,2.407-0.273,3.592"/>
		<path class="st7" d="M43.84,123.811c2.281-1.851,4.765-4.353,7.03-3.518c1.133,0.418,1.839,1.602,2.031,2.794
			c0.192,1.192-0.041,2.407-0.273,3.592"/>
		<path class="st7" d="M117.752,98.338c2.929-2.378,6.12-5.591,9.028-4.518c1.455,0.537,2.362,2.058,2.608,3.589
			c0.246,1.531-0.053,3.091-0.351,4.613"/>
		<path class="st7" d="M80.684,93.697c2.929-2.378,6.12-5.591,9.028-4.518c1.455,0.537,2.362,2.058,2.608,3.589
			c0.246,1.531-0.053,3.091-0.351,4.613"/>
		<path class="st7" d="M11.052,129.447c0,0,15.757,5.402,21.827-3.702"/>
		<path class="st7" d="M219.995,113.364c0.002,0,0.003-0.001,0.005-0.001c-22.817,5.045-40.45-8.859-40.45-8.859
			C129.695,69.756,82.101,71.677,55.715,82.459c-2.883-2.036-6.394-3.244-10.192-3.244c-9.776,0-17.702,7.925-17.702,17.702
			c0,2.388,0.479,4.661,1.336,6.74c-12.617,10.468-27.454,12.05-26.624,17.031c1.012,6.069,8.519,8.759,8.519,8.759
			c-3.227,0.95-4.991,3.056-5.941,4.859c-0.77,1.461-0.204,3.254,1.238,4.058c1.111,0.619,2.474,1.727,4.214,3.442
			c12.939-6.724,30.282-4.413,44.357,0.362c2.589,0.878,5.625,2.347,9.208,3.784l0.096-0.101c1.858-1.761,3.021-4.248,3.021-7.009
			c0-1.918-0.574-3.695-1.538-5.198c9.587-3.164,12.309-2.788,27.354-4.975c0.031-0.004,0.063-0.009,0.094-0.014
			c4.205-0.614,7.552,3.555,5.935,7.485c-1.713,4.163-3.614,6.381-6.498,9.7c-1.484,1.707-2.731,3.039-4.023,4.027
			c3.656-0.366,7.599-1.173,11.856-2.578c11.016-3.636,20.947-10.566,32.386-12.502c12.167-2.059,24.671,1.78,36.928,0.354
			c17.32-2.015,39.004-17.494,56.23-7.236C226.496,122.624,224.554,117.119,219.995,113.364z"/>
		<path class="st7" d="M93.157,128.654c-0.031,0.004-0.063,0.009-0.094,0.014c-15.045,2.187-17.767,1.811-27.354,4.975
			c0.964,1.503,1.538,3.28,1.538,5.198c0,2.762-1.163,5.248-3.021,7.009c4.654,3.801,10.569,6.036,16.577,6.203
			c5.667,0.158,7.923-1.764,11.791-6.215c2.884-3.319,4.785-5.537,6.498-9.7C100.709,132.209,97.362,128.04,93.157,128.654z"/>
	</g>
</g>
<g id="Layer_70">
</g>
<g id="Layer_71">
</g>
<g id="Layer_72">
</g>
<g id="Layer_73">
</g>
<g id="Layer_74">
</g>
<g id="Layer_75">
</g>
<g id="Layer_76">
</g>
<g id="Layer_77">
</g>
<g id="Layer_78">
</g>
<g id="Layer_79">
</g>
<g id="Layer_80">
</g>
<g id="Layer_81">
</g>
<g id="Layer_82">
</g>
<g id="Layer_83">
</g>
<g id="Layer_84">
</g>
<g id="Layer_85">
</g>
<g id="Layer_86">
</g>
<g id="Layer_87">
</g>
<g id="Layer_88">
</g>
<g id="Layer_89">
</g>
<g id="Layer_90">
</g>
<g id="Layer_91">
</g>
<g id="Layer_92">
</g>
<g id="Layer_93">
</g>
<g id="Layer_94">
</g>
<g id="Layer_95">
</g>
<g id="Layer_96">
</g>
<g id="Layer_97">
</g>
<g id="Layer_98">
</g>
<g id="Layer_99">
</g>
<g id="Layer_100">
</g>
</svg>
