<?xml version="1.0" encoding="utf-8"?>
<!-- Generator: Adobe Illustrator 22.0.0, SVG Export Plug-In . SVG Version: 6.00 Build 0)  -->
<svg version="1.1" xmlns="http://www.w3.org/2000/svg" xmlns:xlink="http://www.w3.org/1999/xlink" x="0px" y="0px"
	 viewBox="0 0 256 256" style="enable-background:new 0 0 256 256;" xml:space="preserve">
<style type="text/css">
	.st0{fill:#F9BD55;}
	.st1{fill:#F4DBCE;}
	.st2{fill:#52565B;}
	.st3{fill:#FD605B;}
	.st4{fill:#F98080;}
	.st5{fill:#F9E63A;}
	.st6{fill:#039BE6;}
	.st7{fill:none;stroke:#000000;stroke-width:5;stroke-linecap:round;stroke-linejoin:round;stroke-miterlimit:10;}
	.st8{fill:#7D3D1A;}
	.st9{fill:#EAA250;}
	.st10{fill:#DD7F57;}
	.st11{fill:#FFC097;}
	.st12{fill:#F49667;}
	.st13{fill:#F89422;}
	.st14{fill:#E3E4E5;}
	.st15{fill:#6E7175;}
	.st16{fill:#46BAF9;}
	.st17{fill:#D9F3FF;}
	.st18{fill:#828487;}
	.st19{fill:#A8AEB2;}
	.st20{fill:#C9CDD1;}
	.st21{fill:#8CD8F9;}
	.st22{fill:#1AA7E5;}
	.st23{fill:#ACE7FC;}
	.st24{fill:#FFFFFF;}
	.st25{fill:#9E512B;}
	.st26{fill:#7ED5FC;}
	.st27{fill:#7CCC4E;}
	.st28{fill:#3AA03A;}
	.st29{fill:#FCB1B1;}
	.st30{fill:#F76E23;}
	.st31{fill:#C16A44;}
	.st32{fill:#B796EA;}
</style>
<g id="Layer_1">
</g>
<g id="Layer_2">
</g>
<g id="Layer_3">
</g>
<g id="Layer_4">
</g>
<g id="Layer_5">
</g>
<g id="Layer_6">
</g>
<g id="Layer_7">
</g>
<g id="Layer_8">
</g>
<g id="Layer_9">
</g>
<g id="Layer_10">
</g>
<g id="Layer_11">
</g>
<g id="Layer_12">
</g>
<g id="Layer_13">
</g>
<g id="Layer_14">
</g>
<g id="Layer_15">
</g>
<g id="Layer_16">
</g>
<g id="Layer_17">
</g>
<g id="Layer_18">
</g>
<g id="Layer_19">
</g>
<g id="Layer_20">
</g>
<g id="Layer_21">
</g>
<g id="Layer_22">
</g>
<g id="Layer_23">
</g>
<g id="Layer_24">
</g>
<g id="Layer_25">
</g>
<g id="Layer_26">
</g>
<g id="Layer_27">
</g>
<g id="Layer_28">
</g>
<g id="Layer_29">
</g>
<g id="Layer_30">
</g>
<g id="Layer_31">
</g>
<g id="Layer_32">
</g>
<g id="Layer_33">
	<g>
		<path class="st19" d="M161.785,97.452c6.794-13.922,13.284-33.871,16.656-51.159c6.036-30.944-0.202-41.584-10.081-43.51
			c-9.879-1.927-19.658,5.588-25.693,36.533c-2.594,13.299-4.073,28.759-4.133,42.222C147.724,84.102,155.793,89.761,161.785,97.452
			z"/>
		<path class="st19" d="M92.981,97.452c5.992-7.692,14.061-13.35,23.251-15.915c-0.06-13.463-1.539-28.923-4.133-42.222
			C106.064,8.371,96.285,0.856,86.406,2.783c-9.879,1.927-16.117,12.566-10.081,43.51C79.697,63.582,86.188,83.531,92.981,97.452z"
			/>
		<path class="st19" d="M177.053,130.061c-2.709-3.551-4.648-7.655-5.622-12.014c-4.885-21.843-22.748-38.041-44.047-38.041
			s-39.162,16.198-44.047,38.041c-0.975,4.359-2.914,8.462-5.622,12.014c-3.176,4.164-5.063,9.363-5.063,15.005
			c0,12.264,8.902,22.416,20.534,24.421c4.279,0.738,8.443,2.095,12.14,4.372c6.53,4.022,14.05,6.318,22.059,6.318
			c8.009,0,15.529-2.296,22.059-6.318c3.698-2.278,7.862-3.634,12.141-4.372c11.629-2.006,20.533-12.155,20.533-24.421
			C182.116,139.424,180.229,134.225,177.053,130.061z"/>
		<path class="st14" d="M153.477,247.219c0,6.242-5.048,6.279-11.275,6.279s-11.275-0.037-11.275-6.279s5.048-11.303,11.275-11.303
			S153.477,240.977,153.477,247.219z"/>
		<path class="st14" d="M122.983,247.219c0,6.242-5.048,6.279-11.275,6.279c-6.227,0-11.275-0.037-11.275-6.279
			s5.048-11.303,11.275-11.303C117.935,235.917,122.983,240.977,122.983,247.219z"/>
		<path class="st19" d="M149.442,173.859c-6.53,4.022-14.05,6.318-22.059,6.318s-15.529-2.296-22.059-6.318
			c-3.315-2.042-7.006-3.34-10.819-4.119c-14.305,29.361,3.685,56.765,12.243,67.34c7.495-3.691,16.235,1.796,16.235,10.139
			c0,0.686-0.071,1.286-0.188,1.831c2.642,0.391,5.514,0.415,8.319,0c-0.117-0.545-0.188-1.144-0.188-1.831
			c0-6.242,5.048-11.303,11.275-11.303c1.782,0,3.461,0.426,4.959,1.164c8.541-10.554,26.477-37.874,12.323-67.171
			C155.948,170.703,152.531,171.956,149.442,173.859z"/>
		<path class="st19" d="M151.013,240.179L151.013,240.179C151.013,240.178,151.012,240.178,151.013,240.179
			c6.168-0.639,10.542-1.12,13.73-1.452c7.708-6.525,18.459-20.61-0.391-39.446c-1.468,11.871-6.57,22.263-11.407,29.788
			c-0.004,0.006-0.008,0.013-0.012,0.019c-1.782,2.77-3.739,5.48-5.772,7.992C148.663,237.82,149.978,238.879,151.013,240.179z"/>
		<path class="st19" d="M89.166,238.727c3.188,0.332,7.562,0.813,13.731,1.451l0,0.001c1.035-1.299,2.35-2.358,3.852-3.098l0,0
			c-2.227-2.753-4.443-5.837-6.497-9.139c-0.004-0.006-0.007-0.011-0.011-0.017c-4.613-7.418-9.289-17.363-10.683-28.643
			C70.707,218.117,81.458,232.202,89.166,238.727z"/>
		<path class="st19" d="M193.095,186.396c-7.701-7.204-20.529,0.185-28.363,6.176c0.002,2.274-0.154,4.5-0.424,6.681l0.044,0.029
			c2.942,2.939,5.162,5.763,6.786,8.46C187.185,214.483,203.861,196.466,193.095,186.396z"/>
		<path class="st14" d="M182.337,249.649l-0.78-3.638c-0.821-3.827-3.77-6.747-7.448-7.625c-2.434-0.581-5.366-0.041-23.096,1.792
			c1.539,1.932,2.464,4.377,2.464,7.042c0,4.569-2.71,5.809-6.601,6.148l-0.041,0.131H179.6
			C181.243,253.499,182.815,251.881,182.337,249.649z"/>
		<path class="st14" d="M100.432,247.219c0-2.665,0.926-5.109,2.464-7.042c-17.73-1.833-20.661-2.374-23.096-1.792
			c-3.678,0.878-6.628,3.798-7.448,7.625l-0.78,3.638c-0.479,2.232,1.094,3.85,2.737,3.85h32.766l-0.041-0.131
			C103.142,253.028,100.432,251.788,100.432,247.219z"/>
		<path class="st14" d="M127.006,188.016c-5.886,0-10.657,4.771-10.657,10.657v20.267c0,0,0.097,0.521,0.266,1.441
			c1.73,5.103,3.917,13.081,4.739,20.982l0,0c1.025,1.68,1.63,3.668,1.63,5.857c0,0.686-0.071,1.286-0.188,1.831
			c2.642,0.391,5.514,0.415,8.319,0c-0.117-0.545-0.188-1.144-0.188-1.831c0-2.139,0.597-4.136,1.63-5.839l0,0
			c0.828-7.957,3.04-16.004,4.775-21.107c0.157-0.855,0.246-1.334,0.246-1.334l0.085-20.175
			C137.714,192.843,132.928,188.016,127.006,188.016z"/>
		<path class="st4" d="M139.581,137.182c0,3.745-6.253,9.04-12.197,9.04c-5.944,0-12.197-5.296-12.197-9.04
			c0-3.745,6.253-4.033,12.197-4.033C133.327,133.149,139.581,133.437,139.581,137.182z"/>
		<g>
			<path class="st14" d="M127.383,150.012c0,3.395-2.339,6.236-5.492,7.02v3.088c0,1.685,1.379,3.064,3.064,3.064h4.856
				c1.685,0,3.064-1.379,3.064-3.064v-3.088C129.723,156.248,127.383,153.407,127.383,150.012z"/>
		</g>
		<path class="st4" d="M161.785,97.453c6.794-13.922,13.284-33.871,16.656-51.159c2.269-11.633,2.803-20.394,2.061-26.904
			c-1.74-2.496-4.061-3.833-6.715-4.351c-8.069-1.574-16.13,4.945-21.313,31.519c-2.432,12.468-3.795,27.131-3.726,39.35
			C153.721,88.844,158.138,92.77,161.785,97.453z"/>
		<path class="st4" d="M92.981,97.453c3.648-4.682,8.065-8.609,13.037-11.545c0.069-12.219-1.294-26.882-3.726-39.35
			c-5.183-26.573-13.244-33.092-21.313-31.519c-2.654,0.518-4.975,1.855-6.715,4.351c-0.741,6.509-0.208,15.271,2.061,26.904
			C79.697,63.582,86.187,83.531,92.981,97.453z"/>
		<g>
			<path class="st7" d="M127.383,146.819v3.193c0,4,3.243,7.242,7.242,7.242h0c4,0,7.242-3.243,7.242-7.242"/>
			<path class="st7" d="M127.383,146.819v3.193c0,4-3.243,7.242-7.242,7.242h0c-4,0-7.242-3.243-7.242-7.242"/>
		</g>
		<path class="st7" d="M177.053,130.061c-2.709-3.551-4.648-7.655-5.622-12.014c-4.885-21.843-22.748-38.041-44.047-38.041
			s-39.162,16.198-44.047,38.041c-0.975,4.359-2.914,8.462-5.622,12.014c-3.176,4.164-5.063,9.363-5.063,15.005
			c0,12.264,8.902,22.416,20.534,24.421c4.279,0.738,8.443,2.095,12.14,4.372c6.53,4.022,14.05,6.318,22.059,6.318
			c8.009,0,15.529-2.296,22.059-6.318c3.698-2.278,7.862-3.634,12.141-4.372c11.629-2.006,20.533-12.155,20.533-24.421
			C182.116,139.424,180.229,134.225,177.053,130.061z"/>
		<path class="st7" d="M161.785,97.452c6.794-13.922,13.284-33.871,16.656-51.159c6.036-30.944-0.202-41.584-10.081-43.51
			c-9.879-1.927-19.658,5.588-25.693,36.533c-2.594,13.299-4.073,28.759-4.133,42.222C147.724,84.102,155.793,89.761,161.785,97.452
			z"/>
		<path class="st7" d="M92.981,97.452c5.992-7.692,14.061-13.35,23.251-15.915c-0.06-13.463-1.539-28.923-4.133-42.222
			C106.064,8.371,96.285,0.856,86.406,2.783c-9.879,1.927-16.117,12.566-10.081,43.51C79.697,63.582,86.188,83.531,92.981,97.452z"
			/>
		<path class="st7" d="M153.477,247.219c0,6.242-5.048,6.279-11.275,6.279s-11.275-0.037-11.275-6.279s5.048-11.303,11.275-11.303
			S153.477,240.977,153.477,247.219z"/>
		<path class="st7" d="M122.983,247.219c0,6.242-5.048,6.279-11.275,6.279c-6.227,0-11.275-0.037-11.275-6.279
			s5.048-11.303,11.275-11.303C117.935,235.917,122.983,240.977,122.983,247.219z"/>
		<g>
			<path class="st7" d="M114.259,214.107c0,0,5.65,13.029,7.094,26.902"/>
			<path class="st7" d="M139.65,214.107c0,0-5.65,13.029-7.094,26.902"/>
		</g>
		<path class="st7" d="M149.442,173.859c-6.53,4.022-14.05,6.318-22.059,6.318s-15.529-2.296-22.059-6.318
			c-3.315-2.042-7.006-3.34-10.819-4.119c-14.305,29.361,3.685,56.765,12.243,67.34c7.495-3.691,16.235,1.796,16.235,10.139
			c0,0.686-0.071,1.286-0.188,1.831c2.642,0.391,5.514,0.415,8.319,0c-0.117-0.545-0.188-1.144-0.188-1.831
			c0-6.242,5.048-11.303,11.275-11.303c1.782,0,3.461,0.426,4.959,1.164c8.541-10.554,26.477-37.874,12.323-67.171
			C155.948,170.703,152.531,171.956,149.442,173.859z"/>
		<path class="st7" d="M151.013,240.179L151.013,240.179C151.013,240.178,151.012,240.178,151.013,240.179
			c6.168-0.639,10.542-1.12,13.73-1.452c7.708-6.525,18.459-20.61-0.391-39.446c-1.468,11.871-6.57,22.263-11.407,29.788
			c-0.004,0.006-0.008,0.013-0.012,0.019c-1.782,2.77-3.739,5.48-5.772,7.992C148.663,237.82,149.978,238.879,151.013,240.179z"/>
		<path class="st7" d="M89.166,238.727c3.188,0.332,7.562,0.813,13.731,1.451l0,0.001c1.035-1.299,2.35-2.358,3.852-3.098l0,0
			c-2.227-2.753-4.443-5.837-6.497-9.139c-0.004-0.006-0.007-0.011-0.011-0.017c-4.613-7.418-9.289-17.363-10.683-28.643
			C70.707,218.117,81.458,232.202,89.166,238.727z"/>
		<path class="st7" d="M193.095,186.396c-7.701-7.204-20.529,0.185-28.363,6.176c0.002,2.274-0.154,4.5-0.424,6.681l0.044,0.029
			c2.942,2.939,5.162,5.763,6.786,8.46C187.185,214.483,203.861,196.466,193.095,186.396z"/>
		<path class="st7" d="M182.337,249.649l-0.78-3.638c-0.821-3.827-3.77-6.747-7.448-7.625c-2.434-0.581-5.366-0.041-23.096,1.792
			c1.539,1.932,2.464,4.377,2.464,7.042c0,4.569-2.71,5.809-6.601,6.148l-0.041,0.131H179.6
			C181.243,253.499,182.815,251.881,182.337,249.649z"/>
		<path class="st7" d="M100.432,247.219c0-2.665,0.926-5.109,2.464-7.042c-17.73-1.833-20.661-2.374-23.096-1.792
			c-3.678,0.878-6.628,3.798-7.448,7.625l-0.78,3.638c-0.479,2.232,1.094,3.85,2.737,3.85h32.766l-0.041-0.131
			C103.142,253.028,100.432,251.788,100.432,247.219z"/>
		<path class="st7" d="M138.831,124.281c-0.012-3.603,2.9-6.533,6.503-6.545c3.603-0.012,6.533,2.9,6.545,6.503"/>
		<path class="st7" d="M102.121,124.26c0-3.603,2.921-6.524,6.524-6.524s6.524,2.921,6.524,6.524"/>
		<path class="st7" d="M153.891,142.5L153.891,142.5c12.552,1.321,24.738,5.02,35.906,10.898l2.094,1.102"/>
		<path class="st7" d="M152.109,149.76L152.109,149.76c11.775,4.544,22.578,11.287,31.831,19.87l1.735,1.609"/>
		<path class="st7" d="M102.109,142.5L102.109,142.5c-12.552,1.321-24.738,5.02-35.906,10.898l-2.094,1.102"/>
		<path class="st7" d="M103.891,149.76c-11.775,4.544-22.578,11.287-31.831,19.87l-1.735,1.609"/>
		<path class="st7" d="M127.006,188.016c-5.886,0-10.657,4.771-10.657,10.657v20.267c0,0,0.097,0.521,0.266,1.441
			c1.73,5.103,3.917,13.081,4.739,20.982l0,0c1.025,1.68,1.63,3.668,1.63,5.857c0,0.686-0.071,1.286-0.188,1.831
			c2.642,0.391,5.514,0.415,8.319,0c-0.117-0.545-0.188-1.144-0.188-1.831c0-2.139,0.597-4.136,1.63-5.839l0,0
			c0.828-7.957,3.04-16.004,4.775-21.107c0.157-0.855,0.246-1.334,0.246-1.334l0.085-20.175
			C137.714,192.843,132.928,188.016,127.006,188.016z"/>
		<path class="st7" d="M139.581,137.182c0,3.745-6.253,9.04-12.197,9.04c-5.944,0-12.197-5.296-12.197-9.04
			c0-3.745,6.253-4.033,12.197-4.033C133.327,133.149,139.581,133.437,139.581,137.182z"/>
		<g>
			<path class="st7" d="M127.383,150.012c0,3.395-2.339,6.236-5.492,7.02v3.088c0,1.685,1.379,3.064,3.064,3.064h4.856
				c1.685,0,3.064-1.379,3.064-3.064v-3.088C129.723,156.248,127.383,153.407,127.383,150.012z"/>
		</g>
		<path class="st7" d="M161.785,97.453c6.794-13.922,13.284-33.871,16.656-51.159c2.269-11.633,2.803-20.394,2.061-26.904
			c-1.74-2.496-4.061-3.833-6.715-4.351c-8.069-1.574-16.13,4.945-21.313,31.519c-2.432,12.468-3.795,27.131-3.726,39.35
			C153.721,88.844,158.138,92.77,161.785,97.453z"/>
		<path class="st7" d="M92.981,97.453c3.648-4.682,8.065-8.609,13.037-11.545c0.069-12.219-1.294-26.882-3.726-39.35
			c-5.183-26.573-13.244-33.092-21.313-31.519c-2.654,0.518-4.975,1.855-6.715,4.351c-0.741,6.509-0.208,15.271,2.061,26.904
			C79.697,63.582,86.187,83.531,92.981,97.453z"/>
	</g>
</g>
<g id="Layer_34">
</g>
<g id="Layer_35">
</g>
<g id="Layer_36">
</g>
<g id="Layer_37">
</g>
<g id="Layer_38">
</g>
<g id="Layer_39">
</g>
<g id="Layer_40">
</g>
<g id="Layer_41">
</g>
<g id="Layer_42">
</g>
<g id="Layer_43">
</g>
<g id="Layer_44">
</g>
<g id="Layer_45">
</g>
<g id="Layer_46">
</g>
<g id="Layer_47">
</g>
<g id="Layer_48">
</g>
<g id="Layer_49">
</g>
<g id="Layer_50">
</g>
<g id="Layer_51">
</g>
<g id="Layer_52">
</g>
<g id="Layer_53">
</g>
<g id="Layer_54">
</g>
<g id="Layer_55">
</g>
<g id="Layer_56">
</g>
<g id="Layer_57">
</g>
<g id="Layer_58">
</g>
<g id="Layer_59">
</g>
<g id="Layer_60">
</g>
<g id="Layer_61">
</g>
<g id="Layer_62">
</g>
<g id="Layer_63">
</g>
<g id="Layer_64">
</g>
<g id="Layer_65">
</g>
<g id="Layer_66">
</g>
<g id="Layer_67">
</g>
<g id="Layer_68">
</g>
<g id="Layer_69">
</g>
<g id="Layer_70">
</g>
<g id="Layer_71">
</g>
<g id="Layer_72">
</g>
<g id="Layer_73">
</g>
<g id="Layer_74">
</g>
<g id="Layer_75">
</g>
<g id="Layer_76">
</g>
<g id="Layer_77">
</g>
<g id="Layer_78">
</g>
<g id="Layer_79">
</g>
<g id="Layer_80">
</g>
<g id="Layer_81">
</g>
<g id="Layer_82">
</g>
<g id="Layer_83">
</g>
<g id="Layer_84">
</g>
<g id="Layer_85">
</g>
<g id="Layer_86">
</g>
<g id="Layer_87">
</g>
<g id="Layer_88">
</g>
<g id="Layer_89">
</g>
<g id="Layer_90">
</g>
<g id="Layer_91">
</g>
<g id="Layer_92">
</g>
<g id="Layer_93">
</g>
<g id="Layer_94">
</g>
<g id="Layer_95">
</g>
<g id="Layer_96">
</g>
<g id="Layer_97">
</g>
<g id="Layer_98">
</g>
<g id="Layer_99">
</g>
<g id="Layer_100">
</g>
</svg>
