<?xml version="1.0" encoding="utf-8"?>
<!-- Generator: Adobe Illustrator 22.0.0, SVG Export Plug-In . SVG Version: 6.00 Build 0)  -->
<svg version="1.1" xmlns="http://www.w3.org/2000/svg" xmlns:xlink="http://www.w3.org/1999/xlink" x="0px" y="0px"
	 viewBox="0 0 256 256" style="enable-background:new 0 0 256 256;" xml:space="preserve">
<style type="text/css">
	.st0{fill:#F9BD55;}
	.st1{fill:#F4DBCE;}
	.st2{fill:#52565B;}
	.st3{fill:#FD605B;}
	.st4{fill:#F98080;}
	.st5{fill:#F9E63A;}
	.st6{fill:#039BE6;}
	.st7{fill:none;stroke:#000000;stroke-width:5;stroke-linecap:round;stroke-linejoin:round;stroke-miterlimit:10;}
	.st8{fill:#7D3D1A;}
	.st9{fill:#EAA250;}
	.st10{fill:#DD7F57;}
	.st11{fill:#FFC097;}
	.st12{fill:#F49667;}
	.st13{fill:#F89422;}
	.st14{fill:#E3E4E5;}
	.st15{fill:#6E7175;}
	.st16{fill:#46BAF9;}
	.st17{fill:#D9F3FF;}
	.st18{fill:#828487;}
	.st19{fill:#A8AEB2;}
	.st20{fill:#C9CDD1;}
	.st21{fill:#8CD8F9;}
	.st22{fill:#1AA7E5;}
	.st23{fill:#ACE7FC;}
	.st24{fill:#FFFFFF;}
	.st25{fill:#9E512B;}
	.st26{fill:#7ED5FC;}
	.st27{fill:#7CCC4E;}
	.st28{fill:#3AA03A;}
	.st29{fill:#FCB1B1;}
	.st30{fill:#F76E23;}
	.st31{fill:#C16A44;}
	.st32{fill:#B796EA;}
</style>
<g id="Layer_1">
</g>
<g id="Layer_2">
</g>
<g id="Layer_3">
</g>
<g id="Layer_4">
</g>
<g id="Layer_5">
</g>
<g id="Layer_6">
</g>
<g id="Layer_7">
</g>
<g id="Layer_8">
</g>
<g id="Layer_9">
</g>
<g id="Layer_10">
</g>
<g id="Layer_11">
</g>
<g id="Layer_12">
</g>
<g id="Layer_13">
</g>
<g id="Layer_14">
</g>
<g id="Layer_15">
</g>
<g id="Layer_16">
</g>
<g id="Layer_17">
</g>
<g id="Layer_18">
</g>
<g id="Layer_19">
</g>
<g id="Layer_20">
</g>
<g id="Layer_21">
</g>
<g id="Layer_22">
</g>
<g id="Layer_23">
</g>
<g id="Layer_24">
</g>
<g id="Layer_25">
</g>
<g id="Layer_26">
</g>
<g id="Layer_27">
</g>
<g id="Layer_28">
</g>
<g id="Layer_29">
</g>
<g id="Layer_30">
</g>
<g id="Layer_31">
</g>
<g id="Layer_32">
</g>
<g id="Layer_33">
</g>
<g id="Layer_34">
</g>
<g id="Layer_35">
</g>
<g id="Layer_36">
</g>
<g id="Layer_37">
</g>
<g id="Layer_38">
</g>
<g id="Layer_39">
</g>
<g id="Layer_40">
</g>
<g id="Layer_41">
</g>
<g id="Layer_42">
</g>
<g id="Layer_43">
</g>
<g id="Layer_44">
</g>
<g id="Layer_45">
</g>
<g id="Layer_46">
</g>
<g id="Layer_47">
</g>
<g id="Layer_48">
</g>
<g id="Layer_49">
	<g>
		<path class="st30" d="M134.867,238.685c-3.147,0.048-6.183-0.04-9.088-0.363c-2.018-0.224-3.829-0.841-5.433-1.733
			c1.198,2.271,1.896,4.878,1.896,7.716c0,1.005-0.104,1.883-0.275,2.68c3.868,0.572,8.073,0.607,12.179,0
			c-0.171-0.797-0.275-1.675-0.275-2.68C133.87,242.33,134.233,240.442,134.867,238.685z"/>
		<path class="st2" d="M89.226,244.306c0-3.901,1.355-7.48,3.608-10.309l0,0c-11.565-0.868-25.859,0.866-24.939,15.009
			c0.164,2.527,2.016,4.493,4.252,4.493h26.803v-0.186C93.221,252.824,89.226,251.019,89.226,244.306z"/>
		<path class="st2" d="M184.784,238.703c-6.655-1.295-13.205-1.662-19.564-1.602l0,0h0c1.055,2.18,1.664,4.618,1.664,7.205
			c0,6.712-3.995,8.518-9.724,9.007v0.186h26.803c2.236,0,4.088-1.966,4.252-4.493C188.519,244.333,187.155,241.021,184.784,238.703
			z"/>
		<path class="st30" d="M136.908,201.899c12.783-0.73,24.742,2.084,35.254,5.363c10.779-20.911,18.449-50.812,0.589-81.723
			c-6.499,3.259-13.845,5.683-21.603,7.28c-5.834,5.159-14.02,8.373-23.093,8.373c-9.072,0-17.258-3.214-23.091-8.372
			c-7.755-1.596-15.101-4.019-21.604-7.28c-25.983,44.968,2.068,87.801,15.113,103.922c5.423-2.671,11.289-2.055,15.838,0.721
			C109.124,219.811,114.5,203.179,136.908,201.899z"/>
		<g>
			<path class="st13" d="M220.885,190.77c-7.821-7.821-19.935-11.028-33.078-11.164c3.044,3.69,5.316,7.24,6.946,10.641
				c7.958,3.132,23.719,10.984,16.014,21.77c-9.298,13.018-38.447-12.141-73.859-10.118c-31.718,1.813-29.341,34.4-11.129,36.424
				s41.498-5.114,65.765,2.024C225.944,250.464,240.929,210.814,220.885,190.77z"/>
		</g>
		<path class="st30" d="M146.541,201.985c-3.151-0.225-6.364-0.272-9.632-0.086c-31.718,1.813-29.341,34.4-11.129,36.424
			c6.824,0.758,14.361,0.23,22.395-0.351C136.143,221.832,143.162,207.266,146.541,201.985z"/>
		<path class="st30" d="M185.268,211.638c-5.822-1.977-12.356-4.315-19.438-6.222c-2.058,5.811-5.166,18.133-1.007,31.688
			c6.202-0.076,12.589,0.255,19.078,1.441C182.562,231.268,181.406,219.734,185.268,211.638z"/>
		<path class="st30" d="M229.138,219.7c-6.528,0.558-15.029-0.126-19.789-6.152c-2.01,1.75-4.647,2.356-7.839,2.184
			c-0.117,5.711,0.752,18.953,10.72,24.457C221.253,236.76,227.147,228.776,229.138,219.7z"/>
		<path class="st30" d="M226.167,197.855c-1.367-2.532-3.119-4.923-5.282-7.086c-2.61-2.61-5.707-4.695-9.152-6.335
			c-0.59,3.66-2.469,7.664-7.117,10.749c3.175,2.056,6.003,4.561,7.361,7.449C215.894,202.942,221.75,202.432,226.167,197.855z"/>
		<path class="st2" d="M134.867,238.685c-0.634,1.757-0.998,3.644-0.998,5.621c0,9.139,7.391,9.193,16.507,9.193
			c9.117,0,16.508-0.054,16.508-9.193c0-2.586-0.609-5.024-1.664-7.205C154.408,237.204,144.149,238.543,134.867,238.685z"/>
		<path class="st2" d="M114.315,230.19c-2.503-1.532-5.434-2.431-8.581-2.431c-9.117,0-16.507,7.408-16.507,16.547
			c0,9.139,7.391,9.193,16.507,9.193s16.507-0.054,16.507-9.193c0-2.793-0.697-5.419-1.915-7.727
			C117.692,235.11,115.653,232.863,114.315,230.19z"/>
		<path class="st25" d="M196.175,214.917c2.682-6.905,3.119-15.208-1.419-24.669c-0.001,0-0.002-0.001-0.003-0.001
			c-0.815-1.7-1.79-3.438-2.943-5.212l0,0c-0.285-0.439-0.581-0.88-0.888-1.323c-0.011-0.016-0.022-0.031-0.033-0.047
			c-0.298-0.43-0.606-0.861-0.926-1.295c-0.021-0.028-0.042-0.056-0.063-0.084c-0.313-0.424-0.635-0.849-0.969-1.277
			c-0.028-0.036-0.057-0.071-0.085-0.107c-0.331-0.422-0.67-0.846-1.021-1.272c-1.487-1.803-3.151-3.638-5.02-5.506
			c-1.533,12.397-5.776,23.681-10.651,33.137C181.445,210.158,189.598,213.41,196.175,214.917z"/>
		<path class="st25" d="M98.474,229.462L98.474,229.462L98.474,229.462c-3.261-4.03-6.505-8.546-9.512-13.38
			c-0.005-0.008-0.01-0.017-0.016-0.025c-6.753-10.861-13.599-25.419-15.641-41.934c-31.576,31.552-6.418,54.001,3.887,61.18
			c4.677-1.561,10.434-1.695,15.641-1.305C94.348,232.096,96.273,230.546,98.474,229.462z"/>
		<path class="st25" d="M172.161,207.262c7.125-13.825,12.893-31.578,10.823-50.955c-14.346-12.479-27.863,1.441-27.863,12.204
			c0,8.09-3.764,17.528-6.277,22.925c-1.571,3.376-3.027,6.869-4.353,10.44C154.428,202.329,163.757,204.64,172.161,207.262z"/>
		<path class="st25" d="M115.186,212.784c-2.094-7.377-4.776-14.596-7.919-21.348c-2.512-5.397-6.277-14.835-6.277-22.925
			c0-10.763-13.517-24.683-27.863-12.204c-3.494,32.707,15.339,60.79,25.346,73.155c5.236-2.579,11.17-2.139,15.833,0.712
			C111.74,225.032,111.775,218.369,115.186,212.784z"/>
		<path class="st13" d="M206.732,79.414c-3.695-2.61-12.518-10.373-28.535-32.57c-9.791-13.569-20.657-19.482-29.764-21.849
			c-1.756-0.456-3.042-1.942-3.256-3.744c-0.796-6.708-4.223-11.933-5.634-13.84c-0.23-0.311-0.715-0.221-0.816,0.153
			c-1.15,4.262-5.06,7.899-6.908,9.425c-0.546,0.451-1.341,0.409-1.842-0.092l-2.583-2.583c-0.261-0.261-0.695-0.126-0.784,0.232
			c-0.16,0.646-0.366,1.266-0.609,1.862c-1.737,4.248-5.896,6.949-10.473,7.284c-10.143,0.744-24.8,5.392-37.615,23.151
			c-16.017,22.197-24.84,29.959-28.535,32.57c-1.211,0.856-1.61,2.505-0.968,3.869c2.15,4.563,7.341,14.011,15.575,19.444
			l-4.178,2.941c0,0,11.602,20.366,45.208,27.198c-5.585-4.916-9.028-11.609-9.028-18.991c0-12.759,10.269-23.473,24.15-26.477
			c-0.754,0.702-1.205,1.685-1.205,3.064c0,4.446,4.677,10.733,9.123,10.733s9.123-6.287,9.123-10.733
			c0-1.379-0.452-2.362-1.205-3.064c13.881,3.003,24.15,13.718,24.15,26.477c0,7.382-3.443,14.075-9.028,18.991
			c33.605-6.831,45.208-27.198,45.208-27.198l-4.178-2.941c8.234-5.433,13.425-14.881,15.575-19.444
			C208.342,81.92,207.943,80.27,206.732,79.414z"/>
		<path class="st13" d="M178.197,46.844c1.561,2.163,3.05,4.184,4.476,6.081c16.133-18.507,13.535-41.26,12.176-48.48
			c-0.246-1.309-1.553-2.152-2.903-1.901c-22,4.101-33.195,15.387-38.696,24.007C161.229,29.619,170.08,35.597,178.197,46.844z"/>
		<path class="st13" d="M77.914,46.844c8.111-11.241,16.959-17.224,24.934-20.295C97.347,17.93,86.151,6.645,64.153,2.544
			c-1.35-0.251-2.657,0.591-2.903,1.901c-1.359,7.221-3.958,29.979,12.182,48.487C74.86,51.033,76.352,49.01,77.914,46.844z"/>
		<path class="st14" d="M135.974,87.399c0.754,0.702,1.205,1.685,1.205,3.064c0,4.446-4.677,10.733-9.123,10.733
			s-9.123-6.287-9.123-10.733c0-1.379,0.452-2.362,1.205-3.064c-13.881,3.003-24.15,13.718-24.15,26.477
			c0,15.087,14.358,27.318,32.069,27.318s32.069-12.231,32.069-27.318C160.124,101.116,149.855,90.402,135.974,87.399z"/>
		<path class="st14" d="M187.942,115.277c-2.252-8.447-7.239-17.991-18.053-24.063c-1.325-0.744-2.749,0.815-1.913,2.084
			c3.838,5.826,8.798,16.841,5.478,31.863C179.657,121.97,184.417,118.447,187.942,115.277z"/>
		<path class="st14" d="M87.804,93.299c0.836-1.269-0.589-2.828-1.913-2.084c-10.709,6.013-15.707,15.433-17.99,23.819
			c3.482,3.169,8.204,6.714,14.385,9.937C79.051,110.047,83.983,99.1,87.804,93.299z"/>
		<path class="st25" d="M178.197,46.844c1.443,1.999,2.825,3.878,4.153,5.649c9.17-13.411,7.421-28.455,6.467-33.527
			c-0.189-1.006-1.193-1.654-2.231-1.461c-12.48,2.327-20.435,7.663-25.449,12.963C166.826,33.989,172.682,39.202,178.197,46.844z"
			/>
		<path class="st25" d="M77.914,46.844c5.513-7.64,11.367-12.849,17.055-16.369C89.956,25.174,82,19.834,69.515,17.506
			c-1.038-0.193-2.042,0.455-2.231,1.461c-0.955,5.073-2.704,20.122,6.472,33.535C75.085,50.728,76.469,48.847,77.914,46.844z"/>
		<path class="st25" d="M137.179,90.463c0,4.446-4.678,10.734-9.123,10.734c-4.446,0-9.123-6.288-9.123-10.734
			c0-4.446,4.678-4.789,9.123-4.789C132.501,85.674,137.179,86.017,137.179,90.463z"/>
		<path class="st7" d="M134.867,238.685c-0.634,1.757-0.998,3.644-0.998,5.621c0,9.139,7.391,9.193,16.507,9.193
			c9.117,0,16.508-0.054,16.508-9.193c0-2.586-0.609-5.024-1.664-7.205C154.408,237.204,144.149,238.543,134.867,238.685z"/>
		<path class="st7" d="M114.315,230.19c-2.503-1.532-5.434-2.431-8.581-2.431c-9.117,0-16.507,7.408-16.507,16.547
			c0,9.139,7.391,9.193,16.507,9.193s16.507-0.054,16.507-9.193c0-2.793-0.697-5.419-1.915-7.727
			C117.692,235.11,115.653,232.863,114.315,230.19z"/>
		<path class="st7" d="M196.175,214.917c2.682-6.905,3.119-15.208-1.419-24.669c-0.001,0-0.002-0.001-0.003-0.001
			c-0.815-1.7-1.79-3.438-2.943-5.212l0,0c-0.285-0.439-0.581-0.88-0.888-1.323c-0.011-0.016-0.022-0.031-0.033-0.047
			c-0.298-0.43-0.606-0.861-0.926-1.295c-0.021-0.028-0.042-0.056-0.063-0.084c-0.313-0.424-0.635-0.849-0.969-1.277
			c-0.028-0.036-0.057-0.071-0.085-0.107c-0.331-0.422-0.67-0.846-1.021-1.272c-1.487-1.803-3.151-3.638-5.02-5.506
			c-1.533,12.397-5.776,23.681-10.651,33.137C181.445,210.158,189.598,213.41,196.175,214.917z"/>
		<path class="st7" d="M98.474,229.462L98.474,229.462L98.474,229.462c-3.261-4.03-6.505-8.546-9.512-13.38
			c-0.005-0.008-0.01-0.017-0.016-0.025c-6.753-10.861-13.599-25.419-15.641-41.934c-31.576,31.552-6.418,54.001,3.887,61.18
			c4.677-1.561,10.434-1.695,15.641-1.305C94.348,232.096,96.273,230.546,98.474,229.462z"/>
		<path class="st7" d="M148.262,77.398c-0.01-3.003,2.417-5.445,5.419-5.454c3.003-0.01,5.445,2.417,5.454,5.419"/>
		<path class="st7" d="M96.976,77.38c0-3.003,2.434-5.437,5.437-5.437c3.003,0,5.437,2.434,5.437,5.437"/>
		<path class="st7" d="M136.908,201.899c12.783-0.73,24.742,2.084,35.254,5.363c10.779-20.911,18.449-50.812,0.589-81.723
			c-6.499,3.259-13.845,5.683-21.603,7.28c-5.834,5.159-14.02,8.373-23.093,8.373c-9.072,0-17.258-3.214-23.091-8.372
			c-7.755-1.596-15.101-4.019-21.604-7.28c-25.983,44.968,2.068,87.801,15.113,103.922c5.423-2.671,11.289-2.055,15.838,0.721
			C109.124,219.811,114.5,203.179,136.908,201.899z"/>
		<path class="st7" d="M134.867,238.685c-3.147,0.048-6.183-0.04-9.088-0.363c-2.018-0.224-3.829-0.841-5.433-1.733
			c1.198,2.271,1.896,4.878,1.896,7.716c0,1.005-0.104,1.883-0.275,2.68c3.868,0.572,8.073,0.607,12.179,0
			c-0.171-0.797-0.275-1.675-0.275-2.68C133.87,242.33,134.233,240.442,134.867,238.685z"/>
		<path class="st7" d="M113.226,116.708c5.982,4.757,14.829,0.387,14.829-7.256v-7.47"/>
		<path class="st7" d="M142.884,116.708c-5.982,4.757-14.829,0.387-14.829-7.256"/>
		<path class="st7" d="M178.197,46.844c1.561,2.163,3.05,4.184,4.476,6.081c16.133-18.507,13.535-41.26,12.176-48.48
			c-0.246-1.309-1.553-2.152-2.903-1.901c-22,4.101-33.195,15.387-38.696,24.007C161.229,29.619,170.08,35.597,178.197,46.844z"/>
		<path class="st7" d="M77.914,46.844c8.111-11.241,16.959-17.224,24.934-20.295C97.347,17.93,86.151,6.645,64.153,2.544
			c-1.35-0.251-2.657,0.591-2.903,1.901c-1.359,7.221-3.958,29.979,12.182,48.487C74.86,51.033,76.352,49.01,77.914,46.844z"/>
		<g>
			<path class="st7" d="M220.885,190.77c-7.821-7.821-19.935-11.028-33.078-11.164c3.044,3.69,5.316,7.24,6.946,10.641
				c7.958,3.132,23.719,10.984,16.014,21.77c-9.298,13.018-38.447-12.141-73.859-10.118c-31.718,1.813-29.341,34.4-11.129,36.424
				s41.498-5.114,65.765,2.024C225.944,250.464,240.929,210.814,220.885,190.77z"/>
		</g>
		<path class="st7" d="M146.541,201.985c-3.151-0.225-6.364-0.272-9.632-0.086c-31.718,1.813-29.341,34.4-11.129,36.424
			c6.824,0.758,14.361,0.23,22.395-0.351C136.143,221.832,143.162,207.266,146.541,201.985z"/>
		<path class="st7" d="M185.268,211.638c-5.822-1.977-12.356-4.315-19.438-6.222c-2.058,5.811-5.166,18.133-1.007,31.688
			c6.202-0.076,12.589,0.255,19.078,1.441C182.562,231.268,181.406,219.734,185.268,211.638z"/>
		<path class="st7" d="M229.138,219.7c-6.528,0.558-15.029-0.126-19.789-6.152c-2.01,1.75-4.647,2.356-7.839,2.184
			c-0.117,5.711,0.752,18.953,10.72,24.457C221.253,236.76,227.147,228.776,229.138,219.7z"/>
		<path class="st7" d="M226.167,197.855c-1.367-2.532-3.119-4.923-5.282-7.086c-2.61-2.61-5.707-4.695-9.152-6.335
			c-0.59,3.66-2.469,7.664-7.117,10.749c3.175,2.056,6.003,4.561,7.361,7.449C215.894,202.942,221.75,202.432,226.167,197.855z"/>
		<path class="st7" d="M135.974,87.399c0.754,0.702,1.205,1.685,1.205,3.064c0,4.446-4.677,10.733-9.123,10.733
			s-9.123-6.287-9.123-10.733c0-1.379,0.452-2.362,1.205-3.064c-13.881,3.003-24.15,13.718-24.15,26.477
			c0,15.087,14.358,27.318,32.069,27.318s32.069-12.231,32.069-27.318C160.124,101.116,149.855,90.402,135.974,87.399z"/>
		<path class="st7" d="M187.942,115.277c-2.252-8.447-7.239-17.991-18.053-24.063c-1.325-0.744-2.749,0.815-1.913,2.084
			c3.838,5.826,8.798,16.841,5.478,31.863C179.657,121.97,184.417,118.447,187.942,115.277z"/>
		<path class="st7" d="M87.804,93.299c0.836-1.269-0.589-2.828-1.913-2.084c-10.709,6.013-15.707,15.433-17.99,23.819
			c3.482,3.169,8.204,6.714,14.385,9.937C79.051,110.047,83.983,99.1,87.804,93.299z"/>
		<path class="st7" d="M206.732,79.414c-3.695-2.61-12.518-10.373-28.535-32.57c-9.791-13.569-20.657-19.482-29.764-21.849
			c-1.756-0.456-3.042-1.942-3.256-3.744c-0.796-6.708-4.223-11.933-5.634-13.84c-0.23-0.311-0.715-0.221-0.816,0.153
			c-1.15,4.262-5.06,7.899-6.908,9.425c-0.546,0.451-1.341,0.409-1.842-0.092l-2.583-2.583c-0.261-0.261-0.695-0.126-0.784,0.232
			c-0.16,0.646-0.366,1.266-0.609,1.862c-1.737,4.248-5.896,6.949-10.473,7.284c-10.143,0.744-24.8,5.392-37.615,23.151
			c-16.017,22.197-24.84,29.959-28.535,32.57c-1.211,0.856-1.61,2.505-0.968,3.869c2.15,4.563,7.341,14.011,15.575,19.444
			l-4.178,2.941c0,0,11.602,20.366,45.208,27.198c-5.585-4.916-9.028-11.609-9.028-18.991c0-12.759,10.269-23.473,24.15-26.477
			c-0.754,0.702-1.205,1.685-1.205,3.064c0,4.446,4.677,10.733,9.123,10.733s9.123-6.287,9.123-10.733
			c0-1.379-0.452-2.362-1.205-3.064c13.881,3.003,24.15,13.718,24.15,26.477c0,7.382-3.443,14.075-9.028,18.991
			c33.605-6.831,45.208-27.198,45.208-27.198l-4.178-2.941c8.234-5.433,13.425-14.881,15.575-19.444
			C208.342,81.92,207.943,80.27,206.732,79.414z"/>
		<path class="st7" d="M178.197,46.844c1.443,1.999,2.825,3.878,4.153,5.649c9.17-13.411,7.421-28.455,6.467-33.527
			c-0.189-1.006-1.193-1.654-2.231-1.461c-12.48,2.327-20.435,7.663-25.449,12.963C166.826,33.989,172.682,39.202,178.197,46.844z"
			/>
		<path class="st7" d="M77.914,46.844c5.513-7.64,11.367-12.849,17.055-16.369C89.956,25.174,82,19.834,69.515,17.506
			c-1.038-0.193-2.042,0.455-2.231,1.461c-0.955,5.073-2.704,20.122,6.472,33.535C75.085,50.728,76.469,48.847,77.914,46.844z"/>
		<path class="st7" d="M137.179,90.463c0,4.446-4.678,10.734-9.123,10.734c-4.446,0-9.123-6.288-9.123-10.734
			c0-4.446,4.678-4.789,9.123-4.789C132.501,85.674,137.179,86.017,137.179,90.463z"/>
		<path class="st7" d="M172.161,207.262c7.125-13.825,12.893-31.578,10.823-50.955c-14.346-12.479-27.863,1.441-27.863,12.204
			c0,8.09-3.764,17.528-6.277,22.925c-1.571,3.376-3.027,6.869-4.353,10.44C154.428,202.329,163.757,204.64,172.161,207.262z"/>
		<path class="st7" d="M115.186,212.784c-2.094-7.377-4.776-14.596-7.919-21.348c-2.512-5.397-6.277-14.835-6.277-22.925
			c0-10.763-13.517-24.683-27.863-12.204c-3.494,32.707,15.339,60.79,25.346,73.155c5.236-2.579,11.17-2.139,15.833,0.712
			C111.74,225.032,111.775,218.369,115.186,212.784z"/>
		<path class="st7" d="M184.784,238.703c-6.655-1.295-13.205-1.662-19.564-1.602l0,0h0c1.055,2.18,1.664,4.618,1.664,7.205
			c0,6.712-3.995,8.518-9.724,9.007v0.186h26.803c2.236,0,4.088-1.966,4.252-4.493C188.519,244.333,187.155,241.021,184.784,238.703
			z"/>
		<path class="st7" d="M89.226,244.306c0-3.901,1.355-7.48,3.608-10.309l0,0c-11.565-0.868-25.859,0.866-24.939,15.009
			c0.164,2.527,2.016,4.493,4.252,4.493h26.803v-0.186C93.221,252.824,89.226,251.019,89.226,244.306z"/>
	</g>
</g>
<g id="Layer_50">
</g>
<g id="Layer_51">
</g>
<g id="Layer_52">
</g>
<g id="Layer_53">
</g>
<g id="Layer_54">
</g>
<g id="Layer_55">
</g>
<g id="Layer_56">
</g>
<g id="Layer_57">
</g>
<g id="Layer_58">
</g>
<g id="Layer_59">
</g>
<g id="Layer_60">
</g>
<g id="Layer_61">
</g>
<g id="Layer_62">
</g>
<g id="Layer_63">
</g>
<g id="Layer_64">
</g>
<g id="Layer_65">
</g>
<g id="Layer_66">
</g>
<g id="Layer_67">
</g>
<g id="Layer_68">
</g>
<g id="Layer_69">
</g>
<g id="Layer_70">
</g>
<g id="Layer_71">
</g>
<g id="Layer_72">
</g>
<g id="Layer_73">
</g>
<g id="Layer_74">
</g>
<g id="Layer_75">
</g>
<g id="Layer_76">
</g>
<g id="Layer_77">
</g>
<g id="Layer_78">
</g>
<g id="Layer_79">
</g>
<g id="Layer_80">
</g>
<g id="Layer_81">
</g>
<g id="Layer_82">
</g>
<g id="Layer_83">
</g>
<g id="Layer_84">
</g>
<g id="Layer_85">
</g>
<g id="Layer_86">
</g>
<g id="Layer_87">
</g>
<g id="Layer_88">
</g>
<g id="Layer_89">
</g>
<g id="Layer_90">
</g>
<g id="Layer_91">
</g>
<g id="Layer_92">
</g>
<g id="Layer_93">
</g>
<g id="Layer_94">
</g>
<g id="Layer_95">
</g>
<g id="Layer_96">
</g>
<g id="Layer_97">
</g>
<g id="Layer_98">
</g>
<g id="Layer_99">
</g>
<g id="Layer_100">
</g>
</svg>
