<?xml version="1.0" encoding="utf-8"?>
<!-- Generator: Adobe Illustrator 22.0.0, SVG Export Plug-In . SVG Version: 6.00 Build 0)  -->
<svg version="1.1" xmlns="http://www.w3.org/2000/svg" xmlns:xlink="http://www.w3.org/1999/xlink" x="0px" y="0px"
	 viewBox="0 0 256 256" style="enable-background:new 0 0 256 256;" xml:space="preserve">
<style type="text/css">
	.st0{fill:#F9BD55;}
	.st1{fill:#F4DBCE;}
	.st2{fill:#52565B;}
	.st3{fill:#FD605B;}
	.st4{fill:#F98080;}
	.st5{fill:#F9E63A;}
	.st6{fill:#039BE6;}
	.st7{fill:none;stroke:#000000;stroke-width:5;stroke-linecap:round;stroke-linejoin:round;stroke-miterlimit:10;}
	.st8{fill:#7D3D1A;}
	.st9{fill:#EAA250;}
	.st10{fill:#DD7F57;}
	.st11{fill:#FFC097;}
	.st12{fill:#F49667;}
	.st13{fill:#F89422;}
	.st14{fill:#E3E4E5;}
	.st15{fill:#6E7175;}
	.st16{fill:#46BAF9;}
	.st17{fill:#D9F3FF;}
	.st18{fill:#828487;}
	.st19{fill:#A8AEB2;}
	.st20{fill:#C9CDD1;}
	.st21{fill:#8CD8F9;}
	.st22{fill:#1AA7E5;}
	.st23{fill:#ACE7FC;}
	.st24{fill:#FFFFFF;}
	.st25{fill:#9E512B;}
	.st26{fill:#7ED5FC;}
	.st27{fill:#7CCC4E;}
	.st28{fill:#3AA03A;}
	.st29{fill:#FCB1B1;}
	.st30{fill:#F76E23;}
	.st31{fill:#C16A44;}
	.st32{fill:#B796EA;}
</style>
<g id="Layer_1">
</g>
<g id="Layer_2">
</g>
<g id="Layer_3">
</g>
<g id="Layer_4">
</g>
<g id="Layer_5">
</g>
<g id="Layer_6">
</g>
<g id="Layer_7">
</g>
<g id="Layer_8">
</g>
<g id="Layer_9">
</g>
<g id="Layer_10">
</g>
<g id="Layer_11">
</g>
<g id="Layer_12">
</g>
<g id="Layer_13">
</g>
<g id="Layer_14">
</g>
<g id="Layer_15">
</g>
<g id="Layer_16">
</g>
<g id="Layer_17">
</g>
<g id="Layer_18">
</g>
<g id="Layer_19">
</g>
<g id="Layer_20">
</g>
<g id="Layer_21">
	<g>
		<path class="st2" d="M232.691,153.492c-0.613-3.847-0.109-7.806,1.466-11.341c19.571-43.929-9.874-70.694-28.106-70.694
			c-9.441,0-15.587-1.478-19.376-2.961c-3.756-1.469-7.85-1.683-11.715-0.568c-8.272,2.386-13.735,4.436-21.052,3.618
			c-9.763-1.092-14.64-10.057-23.389-13.743c-10.603-4.467-29.187-6.689-54.38,9.74c-0.183-1.099-0.337-2.19-0.343-3.267
			c-0.016-3.318-2.078-5.17-3.87-6.226c-1.664-0.98-3.975,0.21-4.419,2.197c-0.49,2.193-1.774,5.116-4.971,7.923
			c-0.829,0.728-1.515,1.476-2.095,2.227c-0.023,0.02-0.046,0.038-0.069,0.059c0,0-10.003-2.913-15.707,4.385
			c-3.625,4.638-4.93,9.925-6.651,15.237c3.322,2.684,0.365,7.738-3.003,7.467c-1.137,2.168-2.57,4.29-4.502,6.32
			c0.18,0.515,0.21,1.091,0.045,1.647c-1.767,5.946-6.719,6.905-9.838,6.881c-0.8-0.006-1.587-0.157-2.332-0.434
			c-0.967,0.426-1.966,0.845-3.039,1.249c-5.573,2.1-7.33,5.481-5.236,14.25s12.566,7.673,12.566,7.673
			c8.377,8.77,7.33,3.289,18.849,3.289s26.179-13.154,26.179-13.154c4.189,9.866,16.754,12.058,16.754,12.058
			c1.047,9.866,9.424,7.673,9.424,7.673c0,17.539,9.424,26.308,11.519,30.693c1.523,3.188-0.276,7.535-1.371,9.671
			c-0.394,0.768-1.133,1.273-1.963,1.34c-6.788,0.543-9.508,5.537-10.597,9.451c-0.663,2.381,1.086,5.279,3.455,5.279h20.911
			c1.36,0,2.598-1.332,3.207-2.605c2.114-4.424,6.338-15.201,3.113-25.328c-4.189-13.154,0-21.924,0-21.924l6.267,1.35
			c10.754,2.317,19.776,2.437,30.505,0c25.085-5.698,27.445-20.203,27.445-20.203c2.524,7.928,12.938,11.892,21.773,21.142
			c5.974,6.254,5.024,18.55,3.781,25.858c-0.516,3.035-2.602,5.595-5.457,6.35c-3.182,0.841-5.568,2.662-7.345,4.768
			c-3.472,4.113-0.684,10.594,4.56,10.594h21.576c3.784,0,6.309-3.938,5.036-7.669c-1.507-4.418-1.227-9.291,0.778-13.49
			l1.716-3.592c1.751-3.666,2.347-7.818,1.704-11.861L232.691,153.492z"/>
		<path class="st4" d="M75.797,64.276c-0.016-3.318-2.078-5.17-3.87-6.226c-1.664-0.98-3.975,0.21-4.419,2.197
			c-0.49,2.193-1.774,5.116-4.971,7.923c-6.28,5.514-4.797,12.197-4.797,12.197l7.647,3.993
			C81.395,77.935,75.829,70.854,75.797,64.276z"/>
		<path class="st2" d="M252.536,141.584c-0.524-1.216-1.584-2.092-2.817-2.428c-1.607-0.438-3.314,0.116-4.385,1.444
			c-2.231,2.763-5.014,8.027-1.089,14.308c0.675,1.079,2.094,1.297,3.039,0.469c1.172-1.028,2.641-2.609,3.433-4.588
			c0.2-0.5,0.801-0.655,1.191-0.298c0.436,0.399,1.117,0.165,1.238-0.427C253.517,148.251,253.916,144.787,252.536,141.584z"/>
		<path class="st0" d="M29.356,102.474c-4.871-2.666-19.039-11.826-23.781-30.302c-0.373-1.454-2.406-1.316-2.602,0.175
			c-1.235,9.398-1.039,26.507,13.303,38.388c1.265,1.048,2.829,1.643,4.442,1.655c3.119,0.024,8.071-0.935,9.838-6.881
			C30.907,104.328,30.404,103.048,29.356,102.474z"/>
		<path class="st0" d="M37.413,89.652c-3.963-2.355-8.539-6.24-11.54-12.485c-0.407-0.847-1.64-0.49-1.579,0.456
			c0.321,5.024,1.95,13.291,8.627,19.003C37.066,100.172,42.506,92.679,37.413,89.652z"/>
		<path class="st2" d="M200.315,200.38c-0.003-0.002-0.006-0.003-0.008-0.005c-0.154-0.108-0.294-0.232-0.437-0.353
			c-0.082-0.07-0.171-0.132-0.249-0.206c-0.053-0.05-0.099-0.108-0.15-0.16c-2.163-2.178-2.736-5.917-0.488-8.649
			c0.034-0.041,0.072-0.081,0.107-0.122c0.013-0.016,0.022-0.033,0.035-0.048c0.095-0.112,0.199-0.22,0.297-0.331
			c0.109-0.123,0.216-0.246,0.329-0.367c0.13-0.138,0.267-0.27,0.403-0.404c0.119-0.117,0.234-0.236,0.358-0.351
			c0.142-0.132,0.293-0.257,0.441-0.385c0.127-0.109,0.25-0.22,0.381-0.326c0.157-0.126,0.324-0.244,0.488-0.365
			c0.133-0.098,0.262-0.199,0.4-0.294c0.174-0.119,0.358-0.228,0.539-0.34c0.139-0.086,0.273-0.177,0.417-0.259
			c0.195-0.111,0.401-0.211,0.603-0.313c0.141-0.071,0.276-0.149,0.422-0.216c0.234-0.109,0.482-0.204,0.727-0.3
			c0.125-0.049,0.243-0.105,0.37-0.151c0.378-0.137,0.768-0.26,1.172-0.366c2.855-0.755,4.941-3.315,5.457-6.35
			c0.311-1.827,0.603-3.966,0.773-6.244c0.085-1.139,0.14-2.313,0.151-3.5c0.011-1.187-0.021-2.388-0.109-3.58
			c-0.088-1.192-0.233-2.376-0.447-3.531c-0.214-1.154-0.498-2.279-0.863-3.352c-0.366-1.073-0.814-2.095-1.357-3.044
			c-0.543-0.949-1.182-1.825-1.929-2.607c-8.836-9.249-19.249-13.214-21.773-21.142c0,0-0.868,5.277-7.053,10.715
			c3.846,2.952,8.297,6.113,12.418,10.426c5.974,6.254,5.024,18.55,3.781,25.858c-0.516,3.035-2.602,5.595-5.457,6.35
			c-3.267,0.864-5.696,2.761-7.487,4.938c-3.357,4.08-0.442,10.423,4.702,10.423h16.409c-0.322,0-0.635-0.025-0.939-0.073
			C201.834,201.216,201.018,200.87,200.315,200.38z"/>
		<path class="st2" d="M91.469,196.151c0.73-2.622,2.199-5.723,5.125-7.652c0.882-3.333,1.353-7.019,0.992-10.854
			c-0.495-5.27,0.068-9.625,0.951-13.005c-2.371-4.636-4.431-10.672-4.618-18.516l-0.812-0.991c-2.099,0.262-7.798,0.214-8.65-7.81
			c0,0-2.217-0.39-5.096-1.567c-4.227,12.41-3.526,24.489,2.47,40.135c1.164,3.036-2.33,13.901-4.705,13.375
			c-11.068-2.451-14.368,3.645-15.332,8.065c-0.458,2.101,1.071,4.099,3.129,4.099H88.78c1.04,0,2.013-0.522,2.614-1.41
			c0.15-0.222,0.304-0.461,0.458-0.702C91.356,198.358,91.176,197.204,91.469,196.151z"/>
		<path class="st7" d="M186.372,132.72c0,0-9.151-16.517-0.316-32.373"/>
		<path class="st7" d="M200.315,200.38c-0.003-0.002-0.006-0.003-0.008-0.005c-0.154-0.108-0.294-0.232-0.437-0.353
			c-0.082-0.07-0.171-0.132-0.249-0.206c-0.053-0.05-0.099-0.108-0.15-0.16c-2.163-2.178-2.736-5.917-0.488-8.649
			c0.034-0.041,0.072-0.081,0.107-0.122c0.013-0.016,0.022-0.033,0.035-0.048c0.095-0.112,0.199-0.22,0.297-0.331
			c0.109-0.123,0.216-0.246,0.329-0.367c0.13-0.138,0.267-0.27,0.403-0.404c0.119-0.117,0.234-0.236,0.358-0.351
			c0.142-0.132,0.293-0.257,0.441-0.385c0.127-0.109,0.25-0.22,0.381-0.326c0.157-0.126,0.324-0.244,0.488-0.365
			c0.133-0.098,0.262-0.199,0.4-0.294c0.174-0.119,0.358-0.228,0.539-0.34c0.139-0.086,0.273-0.177,0.417-0.259
			c0.195-0.111,0.401-0.211,0.603-0.313c0.141-0.071,0.276-0.149,0.422-0.216c0.234-0.109,0.482-0.204,0.727-0.3
			c0.125-0.049,0.243-0.105,0.37-0.151c0.378-0.137,0.768-0.26,1.172-0.366c2.855-0.755,4.941-3.315,5.457-6.35
			c0.311-1.827,0.603-3.966,0.773-6.244c0.085-1.139,0.14-2.313,0.151-3.5c0.011-1.187-0.021-2.388-0.109-3.58
			c-0.088-1.192-0.233-2.376-0.447-3.531c-0.214-1.154-0.498-2.279-0.863-3.352c-0.366-1.073-0.814-2.095-1.357-3.044
			c-0.543-0.949-1.182-1.825-1.929-2.607c-8.836-9.249-19.249-13.214-21.773-21.142c0,0-0.868,5.277-7.053,10.715
			c3.846,2.952,8.297,6.113,12.418,10.426c5.974,6.254,5.024,18.55,3.781,25.858c-0.516,3.035-2.602,5.595-5.457,6.35
			c-3.267,0.864-5.696,2.761-7.487,4.938c-3.357,4.08-0.442,10.423,4.702,10.423h16.409c-0.322,0-0.635-0.025-0.939-0.073
			C201.834,201.216,201.018,200.87,200.315,200.38z"/>
		<path class="st7" d="M22.676,135.13c0,0,6.806-8.221,14.136-8.221s10.471-1.096,12.566-3.289"/>
		<path class="st7" d="M29.356,102.474c-4.871-2.666-19.039-11.826-23.781-30.302c-0.373-1.454-2.406-1.316-2.602,0.175
			c-1.235,9.398-1.039,26.507,13.303,38.388c1.265,1.048,2.829,1.643,4.442,1.655c3.119,0.024,8.071-0.935,9.838-6.881
			C30.907,104.328,30.404,103.048,29.356,102.474z"/>
		<path class="st7" d="M15.87,121.428c0,0,4.189-2.192,5.236,1.096"/>
		<path class="st7" d="M37.413,89.652c-3.963-2.355-8.539-6.24-11.54-12.485c-0.407-0.847-1.64-0.49-1.579,0.456
			c0.321,5.024,1.95,13.291,8.627,19.003C37.066,100.172,42.506,92.679,37.413,89.652z"/>
		<path class="st7" d="M57.74,80.367c0,0-1.483-6.683,4.797-12.197c3.197-2.807,4.481-5.73,4.971-7.923
			c0.444-1.987,2.755-3.177,4.419-2.197c1.792,1.056,3.853,2.908,3.87,6.226c0.033,6.578,5.598,13.659-10.41,20.084"/>
		<path class="st7" d="M232.691,153.492c-0.613-3.847-0.109-7.806,1.466-11.341c19.571-43.929-9.874-70.694-28.106-70.694
			c-9.441,0-15.587-1.478-19.376-2.961c-3.756-1.469-7.85-1.683-11.715-0.568c-8.272,2.386-13.735,4.436-21.052,3.618
			c-9.763-1.092-14.64-10.057-23.389-13.743c-10.603-4.467-29.187-6.689-54.38,9.74c-0.183-1.099-0.337-2.19-0.343-3.267
			c-0.016-3.318-2.078-5.17-3.87-6.226c-1.664-0.98-3.975,0.21-4.419,2.197c-0.49,2.193-1.774,5.116-4.971,7.923
			c-0.829,0.728-1.515,1.476-2.095,2.227c-0.023,0.02-0.046,0.038-0.069,0.059c0,0-10.003-2.913-15.707,4.385
			c-3.625,4.638-4.93,9.925-6.651,15.237c3.322,2.684,0.365,7.738-3.003,7.467c-1.137,2.168-2.57,4.29-4.502,6.32
			c0.18,0.515,0.21,1.091,0.045,1.647c-1.767,5.946-6.719,6.905-9.838,6.881c-0.8-0.006-1.587-0.157-2.332-0.434
			c-0.967,0.426-1.966,0.845-3.039,1.249c-5.573,2.1-7.33,5.481-5.236,14.25s12.566,7.673,12.566,7.673
			c8.377,8.77,7.33,3.289,18.849,3.289s26.179-13.154,26.179-13.154c4.189,9.866,16.754,12.058,16.754,12.058
			c1.047,9.866,9.424,7.673,9.424,7.673c0,17.539,9.424,26.308,11.519,30.693c1.523,3.188-0.276,7.535-1.371,9.671
			c-0.394,0.768-1.133,1.273-1.963,1.34c-6.788,0.543-9.508,5.537-10.597,9.451c-0.663,2.381,1.086,5.279,3.455,5.279h20.911
			c1.36,0,2.598-1.332,3.207-2.605c2.114-4.424,6.338-15.201,3.113-25.328c-4.189-13.154,0-21.924,0-21.924l6.267,1.35
			c10.754,2.317,19.776,2.437,30.505,0c25.085-5.698,27.445-20.203,27.445-20.203c2.524,7.928,12.938,11.892,21.773,21.142
			c5.974,6.254,5.024,18.55,3.781,25.858c-0.516,3.035-2.602,5.595-5.457,6.35c-3.182,0.841-5.568,2.662-7.345,4.768
			c-3.472,4.113-0.684,10.594,4.56,10.594h21.576c3.784,0,6.309-3.938,5.036-7.669c-1.507-4.418-1.227-9.291,0.778-13.49
			l1.716-3.592c1.751-3.666,2.347-7.818,1.704-11.861L232.691,153.492z"/>
		<path class="st7" d="M91.469,196.151c0.73-2.622,2.199-5.723,5.125-7.652c0.882-3.333,1.353-7.019,0.992-10.854
			c-0.495-5.27,0.068-9.625,0.951-13.005c-2.371-4.636-4.431-10.672-4.618-18.516l-0.812-0.991c-2.099,0.262-7.798,0.214-8.65-7.81
			c0,0-2.217-0.39-5.096-1.567c-4.227,12.41-3.526,24.489,2.47,40.135c1.164,3.036-2.33,13.901-4.705,13.375
			c-11.068-2.451-14.368,3.645-15.332,8.065c-0.458,2.101,1.071,4.099,3.129,4.099H88.78c1.04,0,2.013-0.522,2.614-1.41
			c0.15-0.222,0.304-0.461,0.458-0.702C91.356,198.358,91.176,197.204,91.469,196.151z"/>
		<path class="st7" d="M105.924,79.773c0,0,18.849,1.096,16.754,18.635"/>
		<path class="st7" d="M122.155,112.11c0,0-1.047,12.058,5.999,22.049c1.669,2.367,1.296,5.704-0.392,8.056
			c-1.578,2.199-4.856,7.524-5.607,9.358"/>
		<path class="st7" d="M45.131,103.257c0.575-2.53,3.001-4.094,5.418-3.492s3.911,3.141,3.336,5.672"/>
		<path class="st7" d="M176.606,87.994c0,0-8.377,7.673-3.141,25.212"/>
		<path class="st7" d="M73.986,105.533c0,0,11.519,12.058-6.283,19.731"/>
		<path class="st7" d="M252.536,141.584c-0.524-1.216-1.584-2.092-2.817-2.428c-1.607-0.438-3.314,0.116-4.385,1.444
			c-2.231,2.763-5.014,8.027-1.089,14.308c0.675,1.079,2.094,1.297,3.039,0.469c1.172-1.028,2.641-2.609,3.433-4.588
			c0.2-0.5,0.801-0.655,1.191-0.298c0.436,0.399,1.117,0.165,1.238-0.427C253.517,148.251,253.916,144.787,252.536,141.584z"/>
		<path class="st7" d="M236.294,93.475c0,0,19.576,10.735,12.992,45.095"/>
	</g>
</g>
<g id="Layer_22">
</g>
<g id="Layer_23">
</g>
<g id="Layer_24">
</g>
<g id="Layer_25">
</g>
<g id="Layer_26">
</g>
<g id="Layer_27">
</g>
<g id="Layer_28">
</g>
<g id="Layer_29">
</g>
<g id="Layer_30">
</g>
<g id="Layer_31">
</g>
<g id="Layer_32">
</g>
<g id="Layer_33">
</g>
<g id="Layer_34">
</g>
<g id="Layer_35">
</g>
<g id="Layer_36">
</g>
<g id="Layer_37">
</g>
<g id="Layer_38">
</g>
<g id="Layer_39">
</g>
<g id="Layer_40">
</g>
<g id="Layer_41">
</g>
<g id="Layer_42">
</g>
<g id="Layer_43">
</g>
<g id="Layer_44">
</g>
<g id="Layer_45">
</g>
<g id="Layer_46">
</g>
<g id="Layer_47">
</g>
<g id="Layer_48">
</g>
<g id="Layer_49">
</g>
<g id="Layer_50">
</g>
<g id="Layer_51">
</g>
<g id="Layer_52">
</g>
<g id="Layer_53">
</g>
<g id="Layer_54">
</g>
<g id="Layer_55">
</g>
<g id="Layer_56">
</g>
<g id="Layer_57">
</g>
<g id="Layer_58">
</g>
<g id="Layer_59">
</g>
<g id="Layer_60">
</g>
<g id="Layer_61">
</g>
<g id="Layer_62">
</g>
<g id="Layer_63">
</g>
<g id="Layer_64">
</g>
<g id="Layer_65">
</g>
<g id="Layer_66">
</g>
<g id="Layer_67">
</g>
<g id="Layer_68">
</g>
<g id="Layer_69">
</g>
<g id="Layer_70">
</g>
<g id="Layer_71">
</g>
<g id="Layer_72">
</g>
<g id="Layer_73">
</g>
<g id="Layer_74">
</g>
<g id="Layer_75">
</g>
<g id="Layer_76">
</g>
<g id="Layer_77">
</g>
<g id="Layer_78">
</g>
<g id="Layer_79">
</g>
<g id="Layer_80">
</g>
<g id="Layer_81">
</g>
<g id="Layer_82">
</g>
<g id="Layer_83">
</g>
<g id="Layer_84">
</g>
<g id="Layer_85">
</g>
<g id="Layer_86">
</g>
<g id="Layer_87">
</g>
<g id="Layer_88">
</g>
<g id="Layer_89">
</g>
<g id="Layer_90">
</g>
<g id="Layer_91">
</g>
<g id="Layer_92">
</g>
<g id="Layer_93">
</g>
<g id="Layer_94">
</g>
<g id="Layer_95">
</g>
<g id="Layer_96">
</g>
<g id="Layer_97">
</g>
<g id="Layer_98">
</g>
<g id="Layer_99">
</g>
<g id="Layer_100">
</g>
</svg>
