<?xml version="1.0" encoding="utf-8"?>
<!-- Generator: Adobe Illustrator 22.0.0, SVG Export Plug-In . SVG Version: 6.00 Build 0)  -->
<svg version="1.1" xmlns="http://www.w3.org/2000/svg" xmlns:xlink="http://www.w3.org/1999/xlink" x="0px" y="0px"
	 viewBox="0 0 256 256" style="enable-background:new 0 0 256 256;" xml:space="preserve">
<style type="text/css">
	.st0{fill:#F9BD55;}
	.st1{fill:#F4DBCE;}
	.st2{fill:#52565B;}
	.st3{fill:#FD605B;}
	.st4{fill:#F98080;}
	.st5{fill:#F9E63A;}
	.st6{fill:#039BE6;}
	.st7{fill:none;stroke:#000000;stroke-width:5;stroke-linecap:round;stroke-linejoin:round;stroke-miterlimit:10;}
	.st8{fill:#7D3D1A;}
	.st9{fill:#EAA250;}
	.st10{fill:#DD7F57;}
	.st11{fill:#FFC097;}
	.st12{fill:#F49667;}
	.st13{fill:#F89422;}
	.st14{fill:#E3E4E5;}
	.st15{fill:#6E7175;}
	.st16{fill:#46BAF9;}
	.st17{fill:#D9F3FF;}
	.st18{fill:#828487;}
	.st19{fill:#A8AEB2;}
	.st20{fill:#C9CDD1;}
	.st21{fill:#8CD8F9;}
	.st22{fill:#1AA7E5;}
	.st23{fill:#ACE7FC;}
	.st24{fill:#FFFFFF;}
	.st25{fill:#9E512B;}
	.st26{fill:#7ED5FC;}
	.st27{fill:#7CCC4E;}
	.st28{fill:#3AA03A;}
	.st29{fill:#FCB1B1;}
	.st30{fill:#F76E23;}
	.st31{fill:#C16A44;}
	.st32{fill:#B796EA;}
</style>
<g id="Layer_1">
</g>
<g id="Layer_2">
</g>
<g id="Layer_3">
</g>
<g id="Layer_4">
</g>
<g id="Layer_5">
</g>
<g id="Layer_6">
</g>
<g id="Layer_7">
</g>
<g id="Layer_8">
</g>
<g id="Layer_9">
</g>
<g id="Layer_10">
</g>
<g id="Layer_11">
</g>
<g id="Layer_12">
</g>
<g id="Layer_13">
	<g>
		<g>
			<path class="st19" d="M221.409,194.565c6.744-11.269,62.436-111.143-54.636-154.274C98.676,15.202,42.344,64.609,22.533,85.907
				c-2.729,2.934-5.269,6.032-7.632,9.268l-8.188,11.212c-1.528,2.092-2.564,4.543-2.748,7.127c-0.221,3.101,0.634,6.104,2.57,8.125
				c2.491,2.423,6.425,3.182,9.529,1.613c30.841-15.595,52.733-12.82,52.733-12.82c-0.949,2.136-2.91,4.424-5.409,6.701
				c-7.845,7.152-17.825,11.534-28.352,12.903c-17.301,2.25-0.754,9.343-0.754,9.343c21.083,7.59,46.638-3.345,57.794-9.096
				c3.715-1.915,7.867-2.817,12.038-2.56c41.888,2.589,78.421-19.955,98.286,2.748c20.391,23.303,2.675,45.76-2.19,51.123
				c-0.668,0.737-1.711,0.979-2.645,0.638c-35.849-13.062-57.513,17.267-57.513,17.267c8.907-2.227,11.134,2.227,26.721,8.907
				c15.587,6.68,24.494,0,24.494,0c-5.567,18.927,11.134,26.721,17.814,33.401c6.68,6.68,5.01,11.69,5.01,11.69
				c20.928-19.932,9.743-50.568,7.166-56.776C220.963,196.016,221.015,195.222,221.409,194.565z"/>
		</g>
		<path class="st14" d="M98.445,128.096c46.057-51.066-9.051-76.116-9.051-76.116l-13.011-6.198
			C51.392,57.66,32.417,75.282,22.533,85.907c-2.729,2.934-5.269,6.032-7.632,9.268l-8.188,11.212
			c-1.528,2.092-2.564,4.543-2.748,7.127c-0.221,3.101,0.634,6.104,2.57,8.125c2.491,2.423,6.425,3.182,9.529,1.613
			c30.841-15.595,52.733-12.82,52.733-12.82c-0.949,2.136-2.91,4.424-5.408,6.701c-7.845,7.152-17.825,11.534-28.352,12.903
			c-17.301,2.25-0.754,9.343-0.754,9.343c21.083,7.59,46.638-3.345,57.794-9.096C94.092,129.245,96.239,128.515,98.445,128.096z"/>
		<g>
			<path class="st20" d="M231.161,174.42l-0.001-0.002c5.462-60.377-15.96-88.867-41.703-101.832L186.5,71.5
				c-24-9-49.588-8.94-49.588-8.94c-12.035,0.424-20.241,2.224-20.241,2.224l-8.692,1.696c10.281,12.437,16.349,32.918-9.535,61.616
				c1.86-0.353,3.762-0.49,5.67-0.372c41.888,2.589,78.421-19.955,98.286,2.749c20.391,23.303,2.675,45.76-2.19,51.123
				c-0.669,0.737-1.711,0.979-2.645,0.638c-35.849-13.062-57.513,17.267-57.513,17.267c8.907-2.227,11.134,2.227,26.721,8.907
				c15.587,6.68,24.494,0,24.494,0c-5.567,18.927,11.134,26.721,17.814,33.401c6.68,6.68,5.01,11.69,5.01,11.69
				c20.928-19.932,9.743-50.568,7.166-56.776c-0.294-0.708-0.242-1.502,0.152-2.159C222.964,191.966,227.12,184.656,231.161,174.42z
				"/>
		</g>
		<path class="st2" d="M251.793,166.979c-1.905-12.655-7.424-22.155-11.776-27.952c-0.881,8.965-2.832,17.432-5.172,24.953
			C243.864,172.79,253.867,180.759,251.793,166.979z"/>
		<path class="st2" d="M211.581,148.817c-0.956-5.841-3.683-12.062-9.18-18.344c-4.516-5.161-9.896-7.979-16.001-9.29
			c2.286,7.075,3.986,18.093-1.256,29.887C177.213,168.914,200.164,162.919,211.581,148.817z"/>
		<path class="st2" d="M176.783,74.385c0-12.048-32.129,0-36.145,2.008l-1.881,10.645c5.748,0.014,9.58,1.769,13.542,3.354
			C169,97.072,176.783,86.433,176.783,74.385z"/>
		<path class="st2" d="M112.496,127.924c0.283,5.839-0.665,15.527-7.514,26.486c-10.733,17.172,37.499-2.903,29.018-28.308
			C127.073,127.097,119.883,127.838,112.496,127.924z"/>
		<path class="st2" d="M166.773,40.29c4.293,1.582,8.346,3.242,12.185,4.969c4.347-5.618,4.182-11.664-9.767-15.598
			c-32.477-9.159-36.807-34.347-58.458-25.188c-13.997,5.921-17.586,23.32-18.375,34.886
			C114.232,32.141,139.561,30.265,166.773,40.29z"/>
		<path class="st2" d="M198.333,182.377c-0.258-0.009-0.516-0.051-0.768-0.143c-35.849-13.062-57.513,17.267-57.513,17.267
			c8.907-2.227,11.134,2.227,26.721,8.907c15.587,6.68,24.494,0,24.494,0c-5.567,18.927,11.134,26.721,17.814,33.401
			c6.68,6.68,5.01,11.69,5.01,11.69c23.021-21.925,7.087-56.453,7.001-57.517C211.065,204.887,195.187,195.691,198.333,182.377z"/>
		<g>
			<path class="st7" d="M221.409,194.565c6.744-11.269,62.436-111.143-54.636-154.274C98.676,15.202,42.344,64.609,22.533,85.907
				c-2.729,2.934-5.269,6.032-7.632,9.268l-8.188,11.212c-1.528,2.092-2.564,4.543-2.748,7.127c-0.221,3.101,0.634,6.104,2.57,8.125
				c2.491,2.423,6.425,3.182,9.529,1.613c30.841-15.595,52.733-12.82,52.733-12.82c-0.949,2.136-2.91,4.424-5.409,6.701
				c-7.845,7.152-17.825,11.534-28.352,12.903c-17.301,2.25-0.754,9.343-0.754,9.343c21.083,7.59,46.638-3.345,57.794-9.096
				c3.715-1.915,7.867-2.817,12.038-2.56c41.888,2.589,78.421-19.955,98.286,2.748c20.391,23.303,2.675,45.76-2.19,51.123
				c-0.668,0.737-1.711,0.979-2.645,0.638c-35.849-13.062-57.513,17.267-57.513,17.267c8.907-2.227,11.134,2.227,26.721,8.907
				c15.587,6.68,24.494,0,24.494,0c-5.567,18.927,11.134,26.721,17.814,33.401c6.68,6.68,5.01,11.69,5.01,11.69
				c20.928-19.932,9.743-50.568,7.166-56.776C220.963,196.016,221.015,195.222,221.409,194.565z"/>
		</g>
		<path class="st7" d="M68.797,110.432c0,0,9.077-1.973,13.94-8.578"/>
		<path class="st7" d="M89.394,51.98c0,0,55.112,25.051,9.047,76.12"/>
		<path class="st7" d="M58.963,90.005c-1.1-3.522,0.863-7.268,4.385-8.368c3.522-1.1,7.268,0.863,8.368,4.385"/>
		<path class="st7" d="M251.793,166.979c-1.904-12.655-7.424-22.155-11.776-27.952c-0.881,8.965-2.832,17.432-5.172,24.953
			C243.864,172.79,253.867,180.759,251.793,166.979z"/>
		<path class="st7" d="M211.581,148.817c-0.956-5.841-3.683-12.062-9.18-18.345c-4.516-5.161-9.896-7.978-16.001-9.29
			c2.286,7.075,3.986,18.093-1.256,29.887C177.213,168.914,200.164,162.919,211.581,148.817z"/>
		<path class="st7" d="M140.639,76.393c4.016-2.008,36.145-14.056,36.145-2.008S169,97.072,152.299,90.392
			c-3.962-1.585-7.794-3.34-13.542-3.354"/>
		<path class="st7" d="M112.496,127.924c0.283,5.839-0.665,15.527-7.514,26.486c-10.733,17.172,37.499-2.903,29.019-28.307
			C127.073,127.097,119.883,127.839,112.496,127.924z"/>
		<path class="st7" d="M166.773,40.29c4.293,1.582,8.346,3.242,12.185,4.969c4.347-5.618,4.182-11.664-9.767-15.598
			c-32.477-9.159-36.807-34.347-58.458-25.188c-13.997,5.921-17.586,23.32-18.376,34.886
			C114.232,32.141,139.561,30.265,166.773,40.29z"/>
		<g>
			<path class="st7" d="M221.092,195.983c-10.027,8.904-25.905-0.292-22.758-13.606c-0.258-0.009-0.516-0.051-0.768-0.143
				c-35.849-13.062-57.513,17.267-57.513,17.267c8.907-2.227,11.134,2.227,26.721,8.907c15.587,6.68,24.494,0,24.494,0
				c-5.567,18.927,11.134,26.721,17.814,33.401c6.68,6.68,5.01,11.69,5.01,11.69C237.112,231.575,221.178,197.047,221.092,195.983z"
				/>
		</g>
		<path class="st7" d="M189.457,72.586c25.743,12.966,47.165,41.455,41.703,101.832"/>
		<path class="st7" d="M116.671,64.784c0,0,8.206-1.8,20.241-2.224"/>
		<path class="st7" d="M117.228,15.239c0,0-5.871,5.871-6.605,19.449"/>
		<path class="st7" d="M129.652,21.681c0,0-3.174,3.751-4.458,11.669"/>
		<path class="st7" d="M177.907,190.595c0,0-13.36,0-22.15,12.495"/>
		<path class="st7" d="M176.793,200.615c0,0-7.794,3.34-10.02,7.794"/>
		<path class="st7" d="M215.197,215.593c0,0,3.137,12.987-6.945,24.464"/>
		<path class="st7" d="M205.719,219.028c0,0-1.417,8.36-5.223,11.57"/>
	</g>
</g>
<g id="Layer_14">
</g>
<g id="Layer_15">
</g>
<g id="Layer_16">
</g>
<g id="Layer_17">
</g>
<g id="Layer_18">
</g>
<g id="Layer_19">
</g>
<g id="Layer_20">
</g>
<g id="Layer_21">
</g>
<g id="Layer_22">
</g>
<g id="Layer_23">
</g>
<g id="Layer_24">
</g>
<g id="Layer_25">
</g>
<g id="Layer_26">
</g>
<g id="Layer_27">
</g>
<g id="Layer_28">
</g>
<g id="Layer_29">
</g>
<g id="Layer_30">
</g>
<g id="Layer_31">
</g>
<g id="Layer_32">
</g>
<g id="Layer_33">
</g>
<g id="Layer_34">
</g>
<g id="Layer_35">
</g>
<g id="Layer_36">
</g>
<g id="Layer_37">
</g>
<g id="Layer_38">
</g>
<g id="Layer_39">
</g>
<g id="Layer_40">
</g>
<g id="Layer_41">
</g>
<g id="Layer_42">
</g>
<g id="Layer_43">
</g>
<g id="Layer_44">
</g>
<g id="Layer_45">
</g>
<g id="Layer_46">
</g>
<g id="Layer_47">
</g>
<g id="Layer_48">
</g>
<g id="Layer_49">
</g>
<g id="Layer_50">
</g>
<g id="Layer_51">
</g>
<g id="Layer_52">
</g>
<g id="Layer_53">
</g>
<g id="Layer_54">
</g>
<g id="Layer_55">
</g>
<g id="Layer_56">
</g>
<g id="Layer_57">
</g>
<g id="Layer_58">
</g>
<g id="Layer_59">
</g>
<g id="Layer_60">
</g>
<g id="Layer_61">
</g>
<g id="Layer_62">
</g>
<g id="Layer_63">
</g>
<g id="Layer_64">
</g>
<g id="Layer_65">
</g>
<g id="Layer_66">
</g>
<g id="Layer_67">
</g>
<g id="Layer_68">
</g>
<g id="Layer_69">
</g>
<g id="Layer_70">
</g>
<g id="Layer_71">
</g>
<g id="Layer_72">
</g>
<g id="Layer_73">
</g>
<g id="Layer_74">
</g>
<g id="Layer_75">
</g>
<g id="Layer_76">
</g>
<g id="Layer_77">
</g>
<g id="Layer_78">
</g>
<g id="Layer_79">
</g>
<g id="Layer_80">
</g>
<g id="Layer_81">
</g>
<g id="Layer_82">
</g>
<g id="Layer_83">
</g>
<g id="Layer_84">
</g>
<g id="Layer_85">
</g>
<g id="Layer_86">
</g>
<g id="Layer_87">
</g>
<g id="Layer_88">
</g>
<g id="Layer_89">
</g>
<g id="Layer_90">
</g>
<g id="Layer_91">
</g>
<g id="Layer_92">
</g>
<g id="Layer_93">
</g>
<g id="Layer_94">
</g>
<g id="Layer_95">
</g>
<g id="Layer_96">
</g>
<g id="Layer_97">
</g>
<g id="Layer_98">
</g>
<g id="Layer_99">
</g>
<g id="Layer_100">
</g>
</svg>
