<?xml version="1.0" encoding="utf-8"?>
<!-- Generator: Adobe Illustrator 22.0.0, SVG Export Plug-In . SVG Version: 6.00 Build 0)  -->
<svg version="1.1" xmlns="http://www.w3.org/2000/svg" xmlns:xlink="http://www.w3.org/1999/xlink" x="0px" y="0px"
	 viewBox="0 0 256 256" style="enable-background:new 0 0 256 256;" xml:space="preserve">
<style type="text/css">
	.st0{fill:#F9BD55;}
	.st1{fill:#F4DBCE;}
	.st2{fill:#52565B;}
	.st3{fill:#FD605B;}
	.st4{fill:#F98080;}
	.st5{fill:#F9E63A;}
	.st6{fill:#039BE6;}
	.st7{fill:none;stroke:#000000;stroke-width:5;stroke-linecap:round;stroke-linejoin:round;stroke-miterlimit:10;}
	.st8{fill:#7D3D1A;}
	.st9{fill:#EAA250;}
	.st10{fill:#DD7F57;}
	.st11{fill:#FFC097;}
	.st12{fill:#F49667;}
	.st13{fill:#F89422;}
	.st14{fill:#E3E4E5;}
	.st15{fill:#6E7175;}
	.st16{fill:#46BAF9;}
	.st17{fill:#D9F3FF;}
	.st18{fill:#828487;}
	.st19{fill:#A8AEB2;}
	.st20{fill:#C9CDD1;}
	.st21{fill:#8CD8F9;}
	.st22{fill:#1AA7E5;}
	.st23{fill:#ACE7FC;}
	.st24{fill:#FFFFFF;}
	.st25{fill:#9E512B;}
	.st26{fill:#7ED5FC;}
	.st27{fill:#7CCC4E;}
	.st28{fill:#3AA03A;}
	.st29{fill:#FCB1B1;}
	.st30{fill:#F76E23;}
	.st31{fill:#C16A44;}
	.st32{fill:#B796EA;}
</style>
<g id="Layer_1">
</g>
<g id="Layer_2">
</g>
<g id="Layer_3">
</g>
<g id="Layer_4">
</g>
<g id="Layer_5">
</g>
<g id="Layer_6">
</g>
<g id="Layer_7">
</g>
<g id="Layer_8">
</g>
<g id="Layer_9">
</g>
<g id="Layer_10">
</g>
<g id="Layer_11">
</g>
<g id="Layer_12">
</g>
<g id="Layer_13">
</g>
<g id="Layer_14">
</g>
<g id="Layer_15">
</g>
<g id="Layer_16">
</g>
<g id="Layer_17">
</g>
<g id="Layer_18">
</g>
<g id="Layer_19">
</g>
<g id="Layer_20">
</g>
<g id="Layer_21">
</g>
<g id="Layer_22">
</g>
<g id="Layer_23">
</g>
<g id="Layer_24">
</g>
<g id="Layer_25">
</g>
<g id="Layer_26">
</g>
<g id="Layer_27">
</g>
<g id="Layer_28">
</g>
<g id="Layer_29">
</g>
<g id="Layer_30">
</g>
<g id="Layer_31">
</g>
<g id="Layer_32">
</g>
<g id="Layer_33">
</g>
<g id="Layer_34">
</g>
<g id="Layer_35">
</g>
<g id="Layer_36">
</g>
<g id="Layer_37">
</g>
<g id="Layer_38">
</g>
<g id="Layer_39">
</g>
<g id="Layer_40">
</g>
<g id="Layer_41">
</g>
<g id="Layer_42">
</g>
<g id="Layer_43">
</g>
<g id="Layer_44">
</g>
<g id="Layer_45">
</g>
<g id="Layer_46">
</g>
<g id="Layer_47">
</g>
<g id="Layer_48">
</g>
<g id="Layer_49">
</g>
<g id="Layer_50">
</g>
<g id="Layer_51">
</g>
<g id="Layer_52">
</g>
<g id="Layer_53">
</g>
<g id="Layer_54">
</g>
<g id="Layer_55">
</g>
<g id="Layer_56">
</g>
<g id="Layer_57">
</g>
<g id="Layer_58">
</g>
<g id="Layer_59">
</g>
<g id="Layer_60">
</g>
<g id="Layer_61">
</g>
<g id="Layer_62">
</g>
<g id="Layer_63">
</g>
<g id="Layer_64">
</g>
<g id="Layer_65">
</g>
<g id="Layer_66">
</g>
<g id="Layer_67">
</g>
<g id="Layer_68">
</g>
<g id="Layer_69">
</g>
<g id="Layer_70">
</g>
<g id="Layer_71">
</g>
<g id="Layer_72">
</g>
<g id="Layer_73">
</g>
<g id="Layer_74">
</g>
<g id="Layer_75">
</g>
<g id="Layer_76">
</g>
<g id="Layer_77">
</g>
<g id="Layer_78">
</g>
<g id="Layer_79">
	<g>
		<path class="st2" d="M128.509,131.747c9.883,0,18.359,7.531,21.961,18.254c1.19-3.544,1.849-7.435,1.849-11.519
			c0-16.444-10.66-29.774-23.81-29.774s-23.81,13.33-23.81,29.774c0,4.084,0.659,7.976,1.849,11.519
			C110.15,139.278,118.626,131.747,128.509,131.747z"/>
		<g>
			<path class="st2" d="M128.509,108.707c9.883,0,18.359,7.531,21.961,18.254c1.19-3.544,1.849-7.435,1.849-11.52
				c0-16.444-10.66-29.774-23.81-29.774s-23.81,13.33-23.81,29.774c0,4.085,0.659,7.976,1.849,11.52
				C110.15,116.238,118.626,108.707,128.509,108.707z"/>
		</g>
		<g>
			<path class="st2" d="M128.509,85.667c8.147,0,15.336,5.12,19.628,12.925c0.932-2.977,1.45-6.215,1.45-9.605
				c0-14.557-9.437-26.359-21.078-26.359c-11.641,0-21.078,11.801-21.078,26.359c0,3.39,0.518,6.628,1.45,9.605
				C113.174,90.787,120.362,85.667,128.509,85.667z"/>
		</g>
		<g>
			<path class="st2" d="M128.509,62.628c5.363,0,10.256,2.509,13.976,6.635c0.238-1.76,0.375-3.583,0.375-5.463
				c0-13.587-6.556-24.602-14.644-24.602c-8.088,0-14.644,11.014-14.644,24.602c0,2.087,0.171,4.101,0.462,6.036
				C117.811,65.371,122.903,62.628,128.509,62.628z"/>
		</g>
		<path class="st2" d="M128.217,39.198c3.123,0,6.012,1.655,8.389,4.454c1.7-2.162,3.185-4.837,4.251-7.885
			c3.208-9.18,1.433-18.152-3.965-20.039c-5.398-1.886-12.375,4.027-15.583,13.207c-1.809,5.176-2.032,10.284-0.917,14.095
			C122.656,40.616,125.335,39.198,128.217,39.198z"/>
		<path class="st2" d="M161.185,5.663c-2.541-4.401-11.156-4.183-19.243,0.486c-4.684,2.705-8.151,6.308-9.756,9.718
			c1.613-0.568,3.219-0.658,4.705-0.139c3.263,1.14,5.191,4.877,5.506,9.676c2.772-0.51,5.793-1.614,8.746-3.319
			C159.229,17.416,163.726,10.064,161.185,5.663z"/>
		<path class="st2" d="M170.201,4.861c-4.036-1.411-7.994-1.771-11.109-1.22c0.89,0.506,1.606,1.177,2.094,2.022
			c1.704,2.952,0.231,7.229-3.356,11.136c1.899,1.442,4.25,2.718,6.923,3.652c7.912,2.765,15.546,1.516,17.05-2.789
			C183.307,13.357,178.113,7.625,170.201,4.861z"/>
		<path class="st2" d="M189.099,15.63c-3.115-2.542-6.481-4.183-9.463-4.824c2.022,2.283,2.906,4.741,2.167,6.856
			c-0.96,2.749-4.423,4.244-8.858,4.252c1.314,2.239,3.257,4.508,5.712,6.511c6.493,5.299,14.095,6.73,16.979,3.197
			C198.519,28.09,195.592,20.93,189.099,15.63z"/>
		<path class="st18" d="M208.929,31.681c-2.555-4.58-7.625-7-12.672-6.357c0.788,2.49,0.646,4.746-0.622,6.299
			c-1.787,2.19-5.387,2.469-9.411,1.106c-1.152,2.543-1.475,5.467-0.705,8.35c1.295,4.852,4.46,8.523,8.917,11.595
			c4.906,3.38,5.596,8.578,5.457,11.884c-0.046,1.095,1.258,1.683,2.057,0.932C216.063,52.218,213.371,39.643,208.929,31.681z"/>
		<path class="st2" d="M135.918,174.122c0-6.767,5.485-12.252,12.252-12.252c1.451,0,2.836,0.265,4.128,0.728
			c0.01-0.358,0.022-0.716,0.022-1.077c0-16.444-10.66-29.774-23.81-29.774s-23.81,13.33-23.81,29.774
			c0,0.293,0.011,0.583,0.018,0.875c1.123-0.339,2.312-0.526,3.546-0.526c6.766,0,12.252,5.485,12.252,12.252
			c0,4.74-2.697,8.844-6.636,10.88c4.037,3.94,9.112,6.293,14.63,6.293c5.43,0,10.432-2.277,14.437-6.104
			C138.796,183.23,135.918,179.017,135.918,174.122z"/>
		<path class="st18" d="M184.017,221.687c6.374,12.483,2.051,22.9-1.674,28.586c-1.128,1.723,0.08,3.724,1.893,3.116
			c12.504-4.19,22.4-12.878,28.587-24.875c5.935-11.508,5.109-29.8-5.246-33.912C196.479,190.195,174.306,202.667,184.017,221.687z"
			/>
		<g>
			<path class="st2" d="M184.017,221.687c-2.731-5.349-2.94-10.179-1.584-14.263c-6.164,6.364-10.371,14.431-12.196,23.699
				c-0.345,1.749,1.448,2.694,2.793,1.483c2.833-2.553,7.269-5.499,12.985-6.054C185.519,224.97,184.865,223.347,184.017,221.687z"
				/>
		</g>
		<path class="st2" d="M207.577,194.602c0.535,0.212,1.038,0.472,1.523,0.756c-0.048-0.329-0.1-0.665-0.162-1.019
			c-4.232-24.337-21.471-33.801-25.605-35.745c0.189,0.219,0.306,0.48,0.306,0.808c0,2.201-2.098,5.688-5.633,8.992
			c1.905,5.435,10.465,18.028,18.163,26.389C200.205,193.474,204.357,193.323,207.577,194.602z"/>
		<path class="st18" d="M71.983,221.687c-6.374,12.483-2.051,22.9,1.674,28.586c1.128,1.723-0.08,3.724-1.893,3.116
			c-12.504-4.19-22.4-12.878-28.587-24.875c-5.935-11.508-5.109-29.8,5.246-33.912C59.521,190.195,81.694,202.667,71.983,221.687z"
			/>
		<g>
			<path class="st2" d="M71.983,221.687c2.731-5.349,2.94-10.179,1.584-14.263c6.164,6.364,10.371,14.431,12.196,23.699
				c0.345,1.749-1.448,2.694-2.793,1.483c-2.833-2.553-7.269-5.499-12.985-6.054C70.481,224.97,71.135,223.347,71.983,221.687z"/>
		</g>
		<path class="st2" d="M48.423,194.602c-0.535,0.212-1.038,0.472-1.523,0.756c0.048-0.329,0.1-0.665,0.162-1.019
			c4.232-24.337,21.471-33.801,25.605-35.745c-0.189,0.219-0.306,0.48-0.306,0.808c0,2.201,2.098,5.688,5.633,8.992
			c-1.905,5.435-10.465,18.028-18.163,26.389C55.795,193.474,51.643,193.323,48.423,194.602z"/>
		<path class="st2" d="M155.696,164.468c2.872,2.242,4.725,5.728,4.725,9.654c0,0.983-0.128,1.933-0.347,2.849
			c13.399-1.617,23.564-12.716,23.564-17.568C183.639,154.964,165.335,160.989,155.696,164.468z"/>
		<path class="st2" d="M96.012,174.122c0-3.863,1.792-7.303,4.585-9.549c-9.557-3.461-28.235-9.653-28.235-5.17
			c0,4.906,10.392,16.204,24.012,17.623C96.145,176.093,96.012,175.124,96.012,174.122z"/>
		<circle class="st14" cx="148.17" cy="174.122" r="12.252"/>
		<circle class="st14" cx="108.264" cy="174.122" r="12.252"/>
		<path class="st7" d="M128.509,131.747c9.883,0,18.359,7.531,21.961,18.254c1.19-3.544,1.849-7.435,1.849-11.519
			c0-16.444-10.66-29.774-23.81-29.774s-23.81,13.33-23.81,29.774c0,4.084,0.659,7.976,1.849,11.519
			C110.15,139.278,118.626,131.747,128.509,131.747z"/>
		<g>
			<path class="st7" d="M128.509,108.707c9.883,0,18.359,7.531,21.961,18.254c1.19-3.544,1.849-7.435,1.849-11.52
				c0-16.444-10.66-29.774-23.81-29.774s-23.81,13.33-23.81,29.774c0,4.085,0.659,7.976,1.849,11.52
				C110.15,116.238,118.626,108.707,128.509,108.707z"/>
		</g>
		<g>
			<path class="st7" d="M128.509,85.667c8.147,0,15.336,5.12,19.628,12.925c0.932-2.977,1.45-6.215,1.45-9.605
				c0-14.557-9.437-26.359-21.078-26.359c-11.641,0-21.078,11.801-21.078,26.359c0,3.39,0.518,6.628,1.45,9.605
				C113.174,90.787,120.362,85.667,128.509,85.667z"/>
		</g>
		<g>
			<path class="st7" d="M128.509,62.628c5.363,0,10.256,2.509,13.976,6.635c0.238-1.76,0.375-3.583,0.375-5.463
				c0-13.587-6.556-24.602-14.644-24.602c-8.088,0-14.644,11.014-14.644,24.602c0,2.087,0.171,4.101,0.462,6.036
				C117.811,65.371,122.903,62.628,128.509,62.628z"/>
		</g>
		<path class="st7" d="M128.217,39.198c3.123,0,6.012,1.655,8.389,4.454c1.7-2.162,3.185-4.837,4.251-7.885
			c3.208-9.18,1.433-18.152-3.965-20.039c-5.398-1.886-12.375,4.027-15.583,13.207c-1.809,5.176-2.032,10.284-0.917,14.095
			C122.656,40.616,125.335,39.198,128.217,39.198z"/>
		<path class="st7" d="M161.185,5.663c-2.541-4.401-11.156-4.183-19.243,0.486c-4.684,2.705-8.151,6.308-9.756,9.718
			c1.613-0.568,3.219-0.658,4.705-0.139c3.263,1.14,5.191,4.877,5.506,9.676c2.772-0.51,5.793-1.614,8.746-3.319
			C159.229,17.416,163.726,10.064,161.185,5.663z"/>
		<path class="st7" d="M170.201,4.861c-4.036-1.411-7.994-1.771-11.109-1.22c0.89,0.506,1.606,1.177,2.094,2.022
			c1.704,2.952,0.231,7.229-3.356,11.136c1.899,1.442,4.25,2.718,6.923,3.652c7.912,2.765,15.546,1.516,17.05-2.789
			C183.307,13.357,178.113,7.625,170.201,4.861z"/>
		<path class="st7" d="M189.099,15.63c-3.115-2.542-6.481-4.183-9.463-4.824c2.022,2.283,2.906,4.741,2.167,6.856
			c-0.96,2.749-4.423,4.244-8.858,4.252c1.314,2.239,3.257,4.508,5.712,6.511c6.493,5.299,14.095,6.73,16.979,3.197
			C198.519,28.09,195.592,20.93,189.099,15.63z"/>
		<path class="st7" d="M208.929,31.681c-2.555-4.58-7.625-7-12.672-6.357c0.788,2.49,0.646,4.746-0.622,6.299
			c-1.787,2.19-5.387,2.469-9.411,1.106c-1.152,2.543-1.475,5.467-0.705,8.35c1.295,4.852,4.46,8.523,8.917,11.595
			c4.906,3.38,5.596,8.578,5.457,11.884c-0.046,1.095,1.258,1.683,2.057,0.932C216.063,52.218,213.371,39.643,208.929,31.681z"/>
		<polyline class="st7" points="137.01,189.899 142.275,196.765 139.932,201.451 		"/>
		<polyline class="st7" points="118.845,189.899 113.58,196.765 115.923,201.451 		"/>
		<path class="st7" d="M143.688,175.525c-0.008-2.475,1.992-4.489,4.468-4.497s4.489,1.992,4.497,4.468"/>
		<circle class="st7" cx="148.17" cy="174.122" r="12.252"/>
		<path class="st7" d="M103.781,175.525c-0.008-2.475,1.992-4.489,4.468-4.497c2.475-0.008,4.489,1.992,4.497,4.468"/>
		<circle class="st7" cx="108.264" cy="174.122" r="12.252"/>
		<path class="st7" d="M135.918,174.122c0-6.767,5.485-12.252,12.252-12.252c1.451,0,2.836,0.265,4.128,0.728
			c0.01-0.358,0.022-0.716,0.022-1.077c0-16.444-10.66-29.774-23.81-29.774s-23.81,13.33-23.81,29.774
			c0,0.293,0.011,0.583,0.018,0.875c1.123-0.339,2.312-0.526,3.546-0.526c6.766,0,12.252,5.485,12.252,12.252
			c0,4.74-2.697,8.844-6.636,10.88c4.037,3.94,9.112,6.293,14.63,6.293c5.43,0,10.432-2.277,14.437-6.104
			C138.796,183.23,135.918,179.017,135.918,174.122z"/>
		<path class="st7" d="M184.017,221.687c6.374,12.483,2.051,22.9-1.674,28.586c-1.128,1.723,0.08,3.724,1.893,3.116
			c12.504-4.19,22.4-12.878,28.587-24.875c5.935-11.508,5.109-29.8-5.246-33.912C196.479,190.195,174.306,202.667,184.017,221.687z"
			/>
		<g>
			<path class="st7" d="M184.017,221.687c-2.731-5.349-2.94-10.179-1.584-14.263c-6.164,6.364-10.371,14.431-12.196,23.699
				c-0.345,1.749,1.448,2.694,2.793,1.483c2.833-2.553,7.269-5.499,12.985-6.054C185.519,224.97,184.865,223.347,184.017,221.687z"
				/>
		</g>
		<path class="st7" d="M207.577,194.602c0.535,0.212,1.038,0.472,1.523,0.756c-0.048-0.329-0.1-0.665-0.162-1.019
			c-4.232-24.337-21.471-33.801-25.605-35.745c0.189,0.219,0.306,0.48,0.306,0.808c0,2.201-2.098,5.688-5.633,8.992
			c1.905,5.435,10.465,18.028,18.163,26.389C200.205,193.474,204.357,193.323,207.577,194.602z"/>
		<path class="st7" d="M71.983,221.687c-6.374,12.483-2.051,22.9,1.674,28.586c1.128,1.723-0.08,3.724-1.893,3.116
			c-12.504-4.19-22.4-12.878-28.587-24.875c-5.935-11.508-5.109-29.8,5.246-33.912C59.521,190.195,81.694,202.667,71.983,221.687z"
			/>
		<g>
			<path class="st7" d="M71.983,221.687c2.731-5.349,2.94-10.179,1.584-14.263c6.164,6.364,10.371,14.431,12.196,23.699
				c0.345,1.749-1.448,2.694-2.793,1.483c-2.833-2.553-7.269-5.499-12.985-6.054C70.481,224.97,71.135,223.347,71.983,221.687z"/>
		</g>
		<path class="st7" d="M48.423,194.602c-0.535,0.212-1.038,0.472-1.523,0.756c0.048-0.329,0.1-0.665,0.162-1.019
			c4.232-24.337,21.471-33.801,25.605-35.745c-0.189,0.219-0.306,0.48-0.306,0.808c0,2.201,2.098,5.688,5.633,8.992
			c-1.905,5.435-10.465,18.028-18.163,26.389C55.795,193.474,51.643,193.323,48.423,194.602z"/>
		<path class="st7" d="M155.696,164.468c2.872,2.242,4.725,5.728,4.725,9.654c0,0.983-0.128,1.933-0.347,2.849
			c13.399-1.617,23.564-12.716,23.564-17.568C183.639,154.964,165.335,160.989,155.696,164.468z"/>
		<path class="st7" d="M96.012,174.122c0-3.863,1.792-7.303,4.585-9.549c-9.557-3.461-28.235-9.653-28.235-5.17
			c0,4.906,10.392,16.204,24.012,17.623C96.145,176.093,96.012,175.124,96.012,174.122z"/>
		<polyline class="st7" points="152.22,141.173 176.248,131.161 196.164,137.018 206.707,153.419 		"/>
		<polyline class="st7" points="152.228,118.028 171.643,104.695 192.337,106.334 206.027,120.218 		"/>
		<polyline class="st7" points="149.616,89.02 160.198,79.888 178.495,79.319 191.839,90.161 		"/>
		<polyline class="st7" points="104.698,140.915 81.288,131.161 61.372,137.018 50.829,153.419 		"/>
		<polyline class="st7" points="104.771,117.659 85.893,104.695 65.199,106.334 51.51,120.218 		"/>
		<polyline class="st7" points="107.431,88.598 97.338,79.888 79.041,79.319 65.697,90.161 		"/>
	</g>
</g>
<g id="Layer_80">
</g>
<g id="Layer_81">
</g>
<g id="Layer_82">
</g>
<g id="Layer_83">
</g>
<g id="Layer_84">
</g>
<g id="Layer_85">
</g>
<g id="Layer_86">
</g>
<g id="Layer_87">
</g>
<g id="Layer_88">
</g>
<g id="Layer_89">
</g>
<g id="Layer_90">
</g>
<g id="Layer_91">
</g>
<g id="Layer_92">
</g>
<g id="Layer_93">
</g>
<g id="Layer_94">
</g>
<g id="Layer_95">
</g>
<g id="Layer_96">
</g>
<g id="Layer_97">
</g>
<g id="Layer_98">
</g>
<g id="Layer_99">
</g>
<g id="Layer_100">
</g>
</svg>
