<?xml version="1.0" encoding="utf-8"?>
<!-- Generator: Adobe Illustrator 22.0.0, SVG Export Plug-In . SVG Version: 6.00 Build 0)  -->
<svg version="1.1" xmlns="http://www.w3.org/2000/svg" xmlns:xlink="http://www.w3.org/1999/xlink" x="0px" y="0px"
	 viewBox="0 0 256 256" style="enable-background:new 0 0 256 256;" xml:space="preserve">
<style type="text/css">
	.st0{fill:#F9BD55;}
	.st1{fill:#F4DBCE;}
	.st2{fill:#52565B;}
	.st3{fill:#FD605B;}
	.st4{fill:#F98080;}
	.st5{fill:#F9E63A;}
	.st6{fill:#039BE6;}
	.st7{fill:none;stroke:#000000;stroke-width:5;stroke-linecap:round;stroke-linejoin:round;stroke-miterlimit:10;}
	.st8{fill:#7D3D1A;}
	.st9{fill:#EAA250;}
	.st10{fill:#DD7F57;}
	.st11{fill:#FFC097;}
	.st12{fill:#F49667;}
	.st13{fill:#F89422;}
	.st14{fill:#E3E4E5;}
	.st15{fill:#6E7175;}
	.st16{fill:#46BAF9;}
	.st17{fill:#D9F3FF;}
	.st18{fill:#828487;}
	.st19{fill:#A8AEB2;}
	.st20{fill:#C9CDD1;}
	.st21{fill:#8CD8F9;}
	.st22{fill:#1AA7E5;}
	.st23{fill:#ACE7FC;}
	.st24{fill:#FFFFFF;}
	.st25{fill:#9E512B;}
	.st26{fill:#7ED5FC;}
	.st27{fill:#7CCC4E;}
	.st28{fill:#3AA03A;}
	.st29{fill:#FCB1B1;}
	.st30{fill:#F76E23;}
	.st31{fill:#C16A44;}
	.st32{fill:#B796EA;}
</style>
<g id="Layer_1">
</g>
<g id="Layer_2">
</g>
<g id="Layer_3">
</g>
<g id="Layer_4">
</g>
<g id="Layer_5">
</g>
<g id="Layer_6">
</g>
<g id="Layer_7">
</g>
<g id="Layer_8">
</g>
<g id="Layer_9">
</g>
<g id="Layer_10">
</g>
<g id="Layer_11">
</g>
<g id="Layer_12">
</g>
<g id="Layer_13">
</g>
<g id="Layer_14">
</g>
<g id="Layer_15">
</g>
<g id="Layer_16">
</g>
<g id="Layer_17">
</g>
<g id="Layer_18">
</g>
<g id="Layer_19">
</g>
<g id="Layer_20">
</g>
<g id="Layer_21">
</g>
<g id="Layer_22">
</g>
<g id="Layer_23">
</g>
<g id="Layer_24">
</g>
<g id="Layer_25">
</g>
<g id="Layer_26">
</g>
<g id="Layer_27">
</g>
<g id="Layer_28">
</g>
<g id="Layer_29">
</g>
<g id="Layer_30">
</g>
<g id="Layer_31">
</g>
<g id="Layer_32">
</g>
<g id="Layer_33">
</g>
<g id="Layer_34">
</g>
<g id="Layer_35">
</g>
<g id="Layer_36">
</g>
<g id="Layer_37">
</g>
<g id="Layer_38">
</g>
<g id="Layer_39">
</g>
<g id="Layer_40">
</g>
<g id="Layer_41">
</g>
<g id="Layer_42">
</g>
<g id="Layer_43">
</g>
<g id="Layer_44">
</g>
<g id="Layer_45">
</g>
<g id="Layer_46">
</g>
<g id="Layer_47">
</g>
<g id="Layer_48">
</g>
<g id="Layer_49">
</g>
<g id="Layer_50">
</g>
<g id="Layer_51">
</g>
<g id="Layer_52">
</g>
<g id="Layer_53">
</g>
<g id="Layer_54">
</g>
<g id="Layer_55">
</g>
<g id="Layer_56">
	<g>
		<path class="st30" d="M149.971,116.829c-2.133-2.294-4.627-4.651-7.559-7.022c1.198-1.297,2.151-3.039,2.626-5.077
			c0.575-2.468,0.339-4.861-0.484-6.743c8.535-1.852,14.997-4.672,19.802-7.57c11.772-21.39,20.352-43.308,0.607-69.965
			C144.38-7.333,115.479,5.423,115.479,5.423c-5.292,6.141-12.215,5.258-15.509,4.359c-1.011-0.275-2.033,0.364-2.233,1.392
			c-1.297,6.678-7.146,27.702-29.887,32.137c-1.467,0.286-2.62,1.433-2.887,2.904c-0.471,2.597-0.517,6.381,2.745,7.686
			c0.643,0.257,1.415,0.354,2.279,0.316c0,0,3.381,7.403,11.614,3.286s12.453-9.358,18.525-8.233
			c20.309,3.761,27.973-2.374,30.628-5.948c0.8-1.078,2.391-1.116,3.23-0.068c2.07,2.588,4.158,5.858,5.569,8.188
			c0,0-48.689,27.673-48.689,65.751s51.457,69.982,56.603,96.739c5.146,26.758-37.388,35.247-41.166,11.321
			c-1.309-8.291,2.8-12.281,7.323-14.294c1.269-0.565,0.802-2.459-0.582-2.348c-7.282,0.584-17.032,4.255-17.032,19.73
			c0,24.699,32.933,31.903,51.457,18.525c0,0,37.049-19.554,3.087-76.157C138.595,150.775,142.185,133.45,149.971,116.829z"/>
		<path class="st0" d="M67.708,53.901c0.643,0.257,1.415,0.354,2.279,0.316c0,0,3.381,7.403,11.614,3.286s12.453-9.358,18.525-8.233
			c20.302,3.76,27.968-2.369,30.625-5.944c0.802-1.079,2.395-1.119,3.235-0.068c2.069,2.587,4.156,5.856,5.566,8.185
			c19.069-21.269,8.968-39.196,1.588-47.744c-13.878-3.475-25.662,1.725-25.662,1.725c-5.296,6.146-12.225,5.256-15.517,4.357
			c-1.007-0.275-2.027,0.377-2.227,1.401c-1.299,6.685-7.152,27.694-29.881,32.129c-1.47,0.287-2.625,1.435-2.892,2.909
			C64.493,48.816,64.449,52.597,67.708,53.901z"/>
		<g>
			<path class="st13" d="M150.554,67.794c9.492-18.984,5.743-31.21-0.169-38.622c-0.614,6.736-3.657,14.266-10.833,22.27
				c0,0-48.689,27.673-48.689,65.751s51.457,69.982,56.603,96.739c2.153,11.193-4.04,19.186-12.247,22.95
				c7.476-1.388,17.551-5.379,19.451-16.776c3.087-18.525-17.495-47.341-17.495-47.341
				C101.156,117.193,132.03,104.843,150.554,67.794z"/>
		</g>
		<g>
			<path class="st0" d="M145.038,104.731c0.575-2.468,0.339-4.861-0.484-6.743c24.694-5.358,32.053-18.819,32.053-18.819
				c0.917,8.91,13.972,10.711,13.972,10.711c-9.297,7.771,0.689,16.311,0.689,16.311s-12.733,3.243-3.845,16.496
				c0,0-12.733,3.243-7.831,14.325c0,0-12.505-4.157-17.268,3.429c0,0-0.647-15.056-19.913-30.632
				C143.61,108.511,144.563,106.769,145.038,104.731z"/>
		</g>
		<path class="st7" d="M69.988,54.216c3.438-0.152,8.339-2.435,12.426-5.204"/>
		<path class="st7" d="M149.971,116.829c-2.133-2.294-4.627-4.651-7.559-7.022c1.198-1.297,2.151-3.039,2.626-5.077
			c0.575-2.468,0.339-4.861-0.484-6.743c8.535-1.852,14.997-4.672,19.802-7.57c11.772-21.39,20.352-43.308,0.607-69.965
			C144.38-7.333,115.479,5.423,115.479,5.423c-5.292,6.141-12.215,5.258-15.509,4.359c-1.011-0.275-2.033,0.364-2.233,1.392
			c-1.297,6.678-7.146,27.702-29.887,32.137c-1.467,0.286-2.62,1.433-2.887,2.904c-0.471,2.597-0.517,6.381,2.745,7.686
			c0.643,0.257,1.415,0.354,2.279,0.316c0,0,3.381,7.403,11.614,3.286s12.453-9.358,18.525-8.233
			c20.309,3.761,27.973-2.374,30.628-5.948c0.8-1.078,2.391-1.116,3.23-0.068c2.07,2.588,4.158,5.858,5.569,8.188
			c0,0-48.689,27.673-48.689,65.751s51.457,69.982,56.603,96.739c5.146,26.758-37.388,35.247-41.166,11.321
			c-1.309-8.291,2.8-12.281,7.323-14.294c1.269-0.565,0.802-2.459-0.582-2.348c-7.282,0.584-17.032,4.255-17.032,19.73
			c0,24.699,32.933,31.903,51.457,18.525c0,0,37.049-19.554,3.087-76.157C138.595,150.775,142.185,133.45,149.971,116.829z"/>
		<path class="st7" d="M67.708,53.901c0.643,0.257,1.415,0.354,2.279,0.316c0,0,3.381,7.403,11.614,3.286s12.453-9.358,18.525-8.233
			c20.302,3.76,27.968-2.369,30.625-5.944c0.802-1.079,2.395-1.119,3.235-0.068c2.069,2.587,4.156,5.856,5.566,8.185
			c19.069-21.269,8.968-39.196,1.588-47.744c-13.878-3.475-25.662,1.725-25.662,1.725c-5.296,6.146-12.225,5.256-15.517,4.357
			c-1.007-0.275-2.027,0.377-2.227,1.401c-1.299,6.685-7.152,27.694-29.881,32.129c-1.47,0.287-2.625,1.435-2.892,2.909
			C64.493,48.816,64.449,52.597,67.708,53.901z"/>
		<g>
			<path class="st7" d="M150.554,67.794c9.492-18.984,5.743-31.21-0.169-38.622c-0.614,6.736-3.657,14.266-10.833,22.27
				c0,0-48.689,27.673-48.689,65.751s51.457,69.982,56.603,96.739c2.153,11.193-4.04,19.186-12.247,22.95
				c7.476-1.388,17.551-5.379,19.451-16.776c3.087-18.525-17.495-47.341-17.495-47.341
				C101.156,117.193,132.03,104.843,150.554,67.794z"/>
		</g>
		<g>
			<path class="st7" d="M145.038,104.731c0.575-2.468,0.339-4.861-0.484-6.743c24.694-5.358,32.053-18.819,32.053-18.819
				c0.917,8.91,13.972,10.711,13.972,10.711c-9.297,7.771,0.689,16.311,0.689,16.311s-12.733,3.243-3.845,16.496
				c0,0-12.733,3.243-7.831,14.325c0,0-12.505-4.157-17.268,3.429c0,0-0.647-15.056-19.913-30.632
				C143.61,108.511,144.563,106.769,145.038,104.731z"/>
		</g>
		<path class="st7" d="M171.852,120.817c0,0-6.476-6.029-16.532-10.121"/>
		<path class="st7" d="M176.259,101.911c0,0-8.474,2.544-19.303,1.768"/>
		<path class="st7" d="M139.016,111.999c2.705-0.732,5.15-3.531,6.021-7.267c0.853-3.66-0.047-7.182-2.06-9.065"/>
		<path class="st7" d="M104.432,30.712c-0.01-3.052,2.456-5.534,5.508-5.544c3.052-0.01,5.534,2.456,5.544,5.508"/>
		<polyline class="st7" points="174.53,38.561 156.956,49.013 142.129,48.367 		"/>
		<polyline class="st7" points="128.379,58.933 149.194,67.976 174.53,67.437 		"/>
		<polyline class="st7" points="111.548,73.709 138.97,85.398 166.273,86.865 		"/>
		<polyline class="st7" points="97.935,91.821 127.987,103.832 144.631,106.096 		"/>
		<polyline class="st7" points="91.096,117.463 120.726,124.622 146.692,124.419 		"/>
		<polyline class="st7" points="99.785,146.009 123.601,146.009 142.918,141.451 		"/>
		<polyline class="st7" points="117.129,169.679 133.427,166.725 146.125,161.75 		"/>
		<polyline class="st7" points="136.004,192.297 147.294,189.923 157.556,183.945 		"/>
		<polyline class="st7" points="147.245,212.903 154.819,212.903 164.743,209.816 		"/>
	</g>
</g>
<g id="Layer_57">
</g>
<g id="Layer_58">
</g>
<g id="Layer_59">
</g>
<g id="Layer_60">
</g>
<g id="Layer_61">
</g>
<g id="Layer_62">
</g>
<g id="Layer_63">
</g>
<g id="Layer_64">
</g>
<g id="Layer_65">
</g>
<g id="Layer_66">
</g>
<g id="Layer_67">
</g>
<g id="Layer_68">
</g>
<g id="Layer_69">
</g>
<g id="Layer_70">
</g>
<g id="Layer_71">
</g>
<g id="Layer_72">
</g>
<g id="Layer_73">
</g>
<g id="Layer_74">
</g>
<g id="Layer_75">
</g>
<g id="Layer_76">
</g>
<g id="Layer_77">
</g>
<g id="Layer_78">
</g>
<g id="Layer_79">
</g>
<g id="Layer_80">
</g>
<g id="Layer_81">
</g>
<g id="Layer_82">
</g>
<g id="Layer_83">
</g>
<g id="Layer_84">
</g>
<g id="Layer_85">
</g>
<g id="Layer_86">
</g>
<g id="Layer_87">
</g>
<g id="Layer_88">
</g>
<g id="Layer_89">
</g>
<g id="Layer_90">
</g>
<g id="Layer_91">
</g>
<g id="Layer_92">
</g>
<g id="Layer_93">
</g>
<g id="Layer_94">
</g>
<g id="Layer_95">
</g>
<g id="Layer_96">
</g>
<g id="Layer_97">
</g>
<g id="Layer_98">
</g>
<g id="Layer_99">
</g>
<g id="Layer_100">
</g>
</svg>
