<?xml version="1.0" encoding="utf-8"?>
<!-- Generator: Adobe Illustrator 22.0.0, SVG Export Plug-In . SVG Version: 6.00 Build 0)  -->
<svg version="1.1" xmlns="http://www.w3.org/2000/svg" xmlns:xlink="http://www.w3.org/1999/xlink" x="0px" y="0px"
	 viewBox="0 0 256 256" style="enable-background:new 0 0 256 256;" xml:space="preserve">
<style type="text/css">
	.st0{fill:#F9BD55;}
	.st1{fill:#F4DBCE;}
	.st2{fill:#52565B;}
	.st3{fill:#FD605B;}
	.st4{fill:#F98080;}
	.st5{fill:#F9E63A;}
	.st6{fill:#039BE6;}
	.st7{fill:none;stroke:#000000;stroke-width:5;stroke-linecap:round;stroke-linejoin:round;stroke-miterlimit:10;}
	.st8{fill:#7D3D1A;}
	.st9{fill:#EAA250;}
	.st10{fill:#DD7F57;}
	.st11{fill:#FFC097;}
	.st12{fill:#F49667;}
	.st13{fill:#F89422;}
	.st14{fill:#E3E4E5;}
	.st15{fill:#6E7175;}
	.st16{fill:#46BAF9;}
	.st17{fill:#D9F3FF;}
	.st18{fill:#828487;}
	.st19{fill:#A8AEB2;}
	.st20{fill:#C9CDD1;}
	.st21{fill:#8CD8F9;}
	.st22{fill:#1AA7E5;}
	.st23{fill:#ACE7FC;}
	.st24{fill:#FFFFFF;}
	.st25{fill:#9E512B;}
	.st26{fill:#7ED5FC;}
	.st27{fill:#7CCC4E;}
	.st28{fill:#3AA03A;}
	.st29{fill:#FCB1B1;}
	.st30{fill:#F76E23;}
	.st31{fill:#C16A44;}
	.st32{fill:#B796EA;}
</style>
<g id="Layer_1">
</g>
<g id="Layer_2">
</g>
<g id="Layer_3">
</g>
<g id="Layer_4">
</g>
<g id="Layer_5">
</g>
<g id="Layer_6">
</g>
<g id="Layer_7">
</g>
<g id="Layer_8">
</g>
<g id="Layer_9">
</g>
<g id="Layer_10">
</g>
<g id="Layer_11">
</g>
<g id="Layer_12">
</g>
<g id="Layer_13">
</g>
<g id="Layer_14">
</g>
<g id="Layer_15">
</g>
<g id="Layer_16">
</g>
<g id="Layer_17">
</g>
<g id="Layer_18">
</g>
<g id="Layer_19">
</g>
<g id="Layer_20">
</g>
<g id="Layer_21">
</g>
<g id="Layer_22">
</g>
<g id="Layer_23">
</g>
<g id="Layer_24">
</g>
<g id="Layer_25">
</g>
<g id="Layer_26">
</g>
<g id="Layer_27">
	<g>
		<path class="st14" d="M251.557,127.501c3.655-4.479,1.965-11.308-3.519-13.479c0.001-0.052,0.008-0.103,0.008-0.155
			c0-5.738-5.512-9.907-11.062-8.283c4.667,3.706,5.08,10.591,0.928,14.825c5.544,3.495,6.297,11.235,1.529,15.727
			c4.266,4.019,4.196,10.788-0.188,14.714c0.32,0.512,0.591,1.057,0.816,1.625c8.273,4.181,16.407-5.966,10.594-13.136
			C254.106,136.211,254.428,131.021,251.557,127.501z"/>
		<path class="st11" d="M207.412,173.855c-0.946,0.297-1.952,0.458-2.995,0.458c-1.691,0-3.282-0.424-4.679-1.165
			c-0.294,1.871-1.111,3.565-2.289,4.94c0.187,0.878,0.291,1.805,0.291,2.795c0,11.958-8.851,26.888-11.154,30.57
			c-0.343,0.549-0.861,0.949-1.462,1.183c-7.805,3.05-8.915,9.337-8.949,12.496c-0.011,1.046,0.82,1.899,1.858,1.899h14.621
			c-1.038,0-1.869-0.853-1.858-1.899c0.033-3.162,1.146-9.458,8.971-12.505c0.587-0.229,1.092-0.62,1.428-1.156
			c2.284-3.65,11.166-18.611,11.166-30.589c0-0.184-0.019-0.355-0.026-0.535C209.885,178.998,208.062,176.653,207.412,173.855z"/>
		<path class="st11" d="M91.013,173.649c-1.759,1.541-4.056,2.482-6.578,2.482c-0.425,0-0.841-0.035-1.252-0.087
			c1.462,17.263-4.946,32.446-6.738,36.3c-0.259,0.558-0.772,0.958-1.378,1.037c-8.864,1.154-9.912,8.452-9.907,11.878
			c0.002,0.982,0.792,1.773,1.767,1.773l20.759,0c0,0,0,0,0,0h-6.139c-0.122,0-0.241-0.012-0.356-0.036
			c-0.024-0.005-0.046-0.016-0.07-0.022c-0.768-0.191-1.34-0.882-1.342-1.715c0,0,0-0.002,0-0.003l0,0
			c-0.008-6.417,3.327-11.015,9.898-11.874c0.563-0.074,1.13-0.485,1.387-1.038c1.612-3.465,6.95-16.096,6.948-31.158
			C94.494,180.166,91.773,177.27,91.013,173.649z"/>
		<path class="st11" d="M116.294,180.867c-1.14,0.455-2.378,0.717-3.682,0.717c-2.213,0-4.252-0.728-5.908-1.945
			c-1.656,1.217-3.695,1.945-5.908,1.945c-0.966,0-1.897-0.143-2.78-0.398c0.003,15.063-5.339,27.692-6.951,31.157
			c-0.259,0.558-0.772,0.958-1.378,1.037c-8.864,1.154-9.913,8.452-9.907,11.878c0.002,0.982,0.792,1.773,1.767,1.773h20.759
			c5.848,0,3.899-11.783,3.899-11.783s-0.975-2.946,3.899-11.783C112.84,198.507,114.959,188.605,116.294,180.867z"/>
		<path class="st11" d="M227.14,180.675c-1.509,0-2.934-0.344-4.216-0.942c-1.633,1.161-3.625,1.851-5.782,1.851
			c-1.743,0-3.379-0.45-4.804-1.234c0.007,0.178,0.023,0.351,0.023,0.533c0,11.978-8.882,26.939-11.166,30.589
			c-0.336,0.536-0.841,0.927-1.428,1.156c-7.825,3.047-8.937,9.343-8.971,12.505c-0.011,1.046,0.82,1.899,1.858,1.899h23.606
			c3.095,0,2.504-6.808,2.13-9.614c-0.107-0.799,0.026-1.602,0.385-2.322c1.878-3.762,8.02-16.003,12.106-23.412
			c2.002-3.63,2.521-8.581,2.441-13.157C231.619,179.868,229.475,180.675,227.14,180.675z"/>
		<path class="st2" d="M218.391,217.432c-0.078-0.584-0.025-1.168,0.144-1.723c-8.301,1.047-14.606-2.368-17.345-4.236
			c-0.345,0.538-0.857,0.932-1.451,1.165c-7.802,3.051-8.911,9.339-8.944,12.496c-0.011,1.045,0.82,1.897,1.858,1.897h23.606
			C219.349,227.031,218.766,220.247,218.391,217.432z"/>
		<path class="st2" d="M106.276,215.739c-6.738,0.779-12.136-1.366-15.343-3.182c-0.281,0.44-0.723,0.755-1.246,0.823
			c-8.864,1.154-9.912,8.452-9.907,11.878c0.002,0.982,0.792,1.773,1.767,1.773h20.759
			C107.438,227.031,106.567,217.964,106.276,215.739z"/>
		<path class="st2" d="M81.548,227.031c-0.975,0-1.765-0.791-1.767-1.773c-0.004-2.508,0.571-7.084,4.349-9.812
			c-3.253-0.631-5.921-1.815-7.817-2.889c-0.297,0.467-0.777,0.762-1.246,0.823c-1.089,0.142-2.463,0.518-2.971,0.701
			c-4.816,1.739-6.943,6.094-6.935,11.177c0.002,0.982,0.792,1.773,1.767,1.773h20.759l0,0H81.548z"/>
		<path class="st2" d="M190.796,225.132c0.025-2.411,0.689-6.643,4.469-9.869c-3.995-0.924-7.017-2.645-8.695-3.79
			c-0.343,0.538-0.854,0.931-1.446,1.163c-5.713,2.232-8.885,6.737-8.949,12.496c-0.011,1.046,0.82,1.898,1.858,1.898h14.621
			C191.615,227.031,190.785,226.178,190.796,225.132z"/>
		<g>
			<path class="st14" d="M242.592,143.408c0-2.869-1.215-5.448-3.15-7.272c1.935-1.823,3.15-4.403,3.15-7.272
				c0-3.565-1.871-6.685-4.68-8.456c1.768-1.803,2.862-4.271,2.862-6.996c0-5.522-4.476-9.998-9.998-9.998
				c0-5.522-4.476-9.998-9.998-9.998c-1.542,0-2.997,0.359-4.301,0.983c-1.436-3.761-5.068-6.436-9.333-6.436
				c-2.27,0-4.356,0.765-6.035,2.04c-1.76-2.856-4.907-4.767-8.509-4.767c-3.113,0-5.892,1.423-7.726,3.653
				c-1.834-2.23-4.613-3.653-7.726-3.653c-3.336,0-6.282,1.64-8.098,4.15c-1.827-1.988-4.441-3.241-7.354-3.241
				c-3.813,0-7.125,2.135-8.812,5.274c-1.833-2.113-4.532-3.456-7.549-3.456c-3.385,0-6.372,1.687-8.181,4.261
				c-1.809-2.574-4.795-4.261-8.181-4.261c-3.017,0-5.716,1.343-7.549,3.456c-1.686-3.139-4.999-5.274-8.812-5.274
				c-2.614,0-4.986,1.011-6.768,2.654c-1.212-4.158-5.044-7.198-9.593-7.198c-0.386,0-0.764,0.029-1.138,0.073
				c-0.199,0.115-0.39,0.242-0.598,0.343c0.543,1.183,0.854,2.495,0.854,3.881c0,4.567-3.286,8.36-7.62,9.162
				c0.003-0.001,0.005-0.001,0.008-0.001c-6.774,6.482-19.241,7.569-30.039,8.792c-2.466,0.279-4.676,1.016-6.697,2.039
				c-0.141,0.669-0.218,1.361-0.218,2.071c0,4.328,2.755,8.002,6.602,9.394c-1.285,1.682-2.057,3.777-2.057,6.058
				c0,3.801,2.121,7.106,5.244,8.797c-1.834,1.813-2.972,4.327-2.972,7.109c0,4.929,3.57,9.015,8.263,9.838
				c-0.912,1.508-1.446,3.269-1.446,5.16c0,5.522,4.476,9.998,9.998,9.998c0.059,0,0.116-0.008,0.174-0.009
				c-0.11,0.593-0.174,1.202-0.174,1.827c0,5.522,4.476,9.998,9.998,9.998c2.522,0,4.819-0.941,6.578-2.482
				c0.951,4.532,4.968,7.935,9.783,7.935c2.213,0,4.252-0.728,5.908-1.945c1.656,1.217,3.695,1.945,5.908,1.945
				c2.864,0,5.44-1.211,7.263-3.141c1.573,3.459,5.05,5.868,9.098,5.868c1.096,0,2.147-0.183,3.134-0.508
				c1.722,3.016,4.961,5.053,8.683,5.053c3.385,0,6.372-1.687,8.181-4.261c1.809,2.574,4.795,4.261,8.181,4.261
				c4.047,0,7.525-2.409,9.098-5.868c1.823,1.93,4.399,3.141,7.263,3.141c4.549,0,8.382-3.041,9.593-7.198
				c1.781,1.642,4.154,2.654,6.768,2.654c4.989,0,9.113-3.658,9.864-8.436c1.397,0.741,2.987,1.165,4.679,1.165
				c1.044,0,2.05-0.161,2.995-0.458c1.029,4.427,4.99,7.729,9.73,7.729c2.157,0,4.149-0.69,5.782-1.851
				c1.283,0.598,2.708,0.942,4.216,0.942c5.522,0,9.998-4.476,9.998-9.998c0-2.106-0.655-4.058-1.767-5.67
				c3.208-1.665,5.403-5.01,5.403-8.874c0-1.942-0.563-3.749-1.521-5.283C241.298,149.02,242.592,146.368,242.592,143.408z"/>
		</g>
		<path class="st11" d="M86.045,95.221c-5.15,0-9.324-4.175-9.324-9.324c0-0.091,0.011-0.18,0.014-0.271
			c-4.089-0.989-7.13-4.661-7.13-9.054c0-3.236,1.65-6.085,4.153-7.757c-1.787-1.485-2.926-3.724-2.926-6.229
			c0-0.988,0.186-1.93,0.509-2.805c-0.407,0.063-0.821,0.105-1.245,0.105c-3.898,0-7.151-2.755-7.922-6.424
			c-0.894,0.34-1.861,0.535-2.874,0.535c-3.08,0-5.757-1.72-7.126-4.251c-1.458,1.414-3.442,2.288-5.633,2.288
			c-3.428,0-6.352-2.133-7.533-5.142c-3.381,2.983-6.184,6.799-8.097,11.545c0,0-2,17.195-11.999,23.13
			c-4.375,2.597-9.05,6.367-11.765,11.562c1.681,0.278,4.176,0.357,7.137-0.622c5.303-1.754,0.964,13.844-8.098,13.508
			c-0.407-0.015-0.796-0.15-1.151-0.365c0.505,3.789,1.956,8.012,4.702,12.717c0.799,1.369,2.536,1.866,3.925,1.102l1.852-1.02
			c0,0,5.963,6.474,14.272,4.466c8.31-2.009,14.236-17.514,27.934-19.066c10.798-1.224,23.265-2.31,30.039-8.792
			C87.202,95.16,86.631,95.221,86.045,95.221z"/>
		<path class="st2" d="M3.529,95.108c0.611-1.466,1.992-2.271,3.381-2.016c1.678,0.309,4.276,0.439,7.372-0.586
			c5.303-1.754,0.964,13.844-8.098,13.508c-0.733-0.027-1.419-0.411-1.92-1.031C3.074,103.506,1.384,100.253,3.529,95.108z"/>
		<path class="st14" d="M84.316,67.416c1.014-2.207,1.034-4.84-0.188-7.154c-1.252-2.372-3.516-3.859-5.98-4.224L77.73,54.99
			c1.557-2.383,1.815-5.511,0.391-8.207c-0.145-0.274-0.306-0.534-0.476-0.784c0.939-0.972,2.037-1.803,3.277-2.442
			c3.429-1.766,8.113-2.94,14.141-1.845c0.57,0.104,1.132,0.189,1.689,0.266c-0.6-4.57-4.501-8.101-9.235-8.101
			c-2.154,0-4.132,0.738-5.711,1.964c-0.962-3.398-4.079-5.89-7.785-5.89c-3.094,0-5.78,1.736-7.144,4.286
			c-1.149-3.075-4.104-5.268-7.579-5.268c-4.472,0-8.097,3.625-8.097,8.097c0,0.09,0.011,0.178,0.013,0.267
			c-1.321-0.937-2.932-1.494-4.676-1.494c-4.472,0-8.097,3.625-8.097,8.097s3.625,8.097,8.097,8.097
			c2.191,0,4.175-0.874,5.633-2.288c1.369,2.531,4.047,4.251,7.126,4.251c1.014,0,1.98-0.195,2.874-0.535
			c0.771,3.669,4.024,6.424,7.922,6.424c0.425,0,0.838-0.042,1.245-0.105c-0.324,0.875-0.509,1.817-0.509,2.805
			c0,2.505,1.139,4.744,2.926,6.229c-2.503,1.672-4.153,4.521-4.153,7.757c0,4.392,3.041,8.065,7.13,9.054
			c-0.003,0.091-0.014,0.179-0.014,0.271c0,5.15,4.175,9.324,9.324,9.324s9.324-4.175,9.324-9.324c0-1.387-0.311-2.699-0.854-3.881
			c3.116-1.509,5.271-4.693,5.271-8.387c0-1.85-0.546-3.57-1.475-5.02C93.831,69.591,89.073,69.413,84.316,67.416z"/>
		<path class="st4" d="M122.939,42.85c-2.664-4.987-13.172,1.533-27.875-1.138c-6.028-1.095-10.712,0.079-14.141,1.845
			c-1.24,0.639-2.338,1.47-3.277,2.442c0.17,0.25,0.331,0.51,0.476,0.784c1.423,2.696,1.166,5.824-0.391,8.207l0.417,1.047
			c2.464,0.365,4.728,1.853,5.98,4.224c1.222,2.315,1.202,4.948,0.188,7.154C105.393,76.267,126.548,49.604,122.939,42.85z"/>
		<path class="st11" d="M95.064,41.712c-6.028-1.095-10.712,0.079-14.141,1.845c-1.24,0.639-2.338,1.47-3.277,2.442
			c0.17,0.25,0.331,0.51,0.476,0.784c1.423,2.696,1.166,5.824-0.391,8.207l0.417,1.047c0.703,0.104,1.385,0.31,2.037,0.591l0,0
			c6.278,0.031,16.342-1.112,24.856-5.728c7.912-4.289,13.665-3.883,17.142-2.748l0.432-0.038c0.81-2.183,0.974-4.049,0.324-5.264
			C120.274,37.863,109.767,44.382,95.064,41.712z"/>
		<path class="st7" d="M39.754,75.511c-0.012-3.658,2.944-6.634,6.603-6.645c3.658-0.012,6.634,2.944,6.645,6.603"/>
		<path class="st7" d="M190.788,146.598c-2.224,1.834-3.641,4.61-3.641,7.718c0,4.582,3.086,8.435,7.291,9.617
			c-0.005,0.128-0.019,0.253-0.019,0.381c0,5.522,4.476,9.998,9.998,9.998c1.044,0,2.05-0.161,2.995-0.458
			c1.029,4.427,4.99,7.729,9.73,7.729"/>
		<path class="st7" d="M116.504,180.798c3.589-1.518,6.107-5.071,6.107-9.213c0-0.229-0.019-0.454-0.034-0.679
			c3.74-1.447,6.397-5.068,6.397-9.319c0-1.942-0.563-3.749-1.521-5.283c2.044-1.831,3.339-4.482,3.339-7.443
			c0-3.732-2.044-6.986-5.074-8.704"/>
		<path class="st7" d="M251.557,127.501c3.655-4.479,1.965-11.308-3.519-13.479c0.001-0.052,0.008-0.103,0.008-0.155
			c0-5.738-5.512-9.907-11.062-8.283c4.667,3.706,5.08,10.591,0.928,14.825c5.544,3.495,6.297,11.235,1.529,15.727
			c4.266,4.019,4.196,10.788-0.188,14.714c0.32,0.512,0.591,1.057,0.816,1.625c8.273,4.181,16.407-5.966,10.594-13.136
			C254.106,136.211,254.428,131.021,251.557,127.501z"/>
		<path class="st7" d="M207.412,173.855c-0.946,0.297-1.952,0.458-2.995,0.458c-1.691,0-3.282-0.424-4.679-1.165
			c-0.294,1.871-1.111,3.565-2.289,4.94c0.187,0.878,0.291,1.805,0.291,2.795c0,11.958-8.851,26.888-11.154,30.57
			c-0.343,0.549-0.861,0.949-1.462,1.183c-7.805,3.05-8.915,9.337-8.949,12.496c-0.011,1.046,0.82,1.899,1.858,1.899h14.621
			c-1.038,0-1.869-0.853-1.858-1.899c0.033-3.162,1.146-9.458,8.971-12.505c0.587-0.229,1.092-0.62,1.428-1.156
			c2.284-3.65,11.166-18.611,11.166-30.589c0-0.184-0.019-0.355-0.026-0.535C209.885,178.998,208.062,176.653,207.412,173.855z"/>
		<path class="st7" d="M91.013,173.649c-1.759,1.541-4.056,2.482-6.578,2.482c-0.425,0-0.841-0.035-1.252-0.087
			c1.462,17.263-4.946,32.446-6.738,36.3c-0.259,0.558-0.772,0.958-1.378,1.037c-8.864,1.154-9.912,8.452-9.907,11.878
			c0.002,0.982,0.792,1.773,1.767,1.773l20.759,0c0,0,0,0,0,0h-6.139c-0.122,0-0.241-0.012-0.356-0.036
			c-0.024-0.005-0.046-0.016-0.07-0.022c-0.768-0.191-1.34-0.882-1.342-1.715c0,0,0-0.002,0-0.003l0,0
			c-0.008-6.417,3.327-11.015,9.898-11.874c0.563-0.074,1.13-0.485,1.387-1.038c1.612-3.465,6.95-16.096,6.948-31.158
			C94.494,180.166,91.773,177.27,91.013,173.649z"/>
		<path class="st7" d="M116.294,180.867c-1.14,0.455-2.378,0.717-3.682,0.717c-2.213,0-4.252-0.728-5.908-1.945
			c-1.656,1.217-3.695,1.945-5.908,1.945c-0.966,0-1.897-0.143-2.78-0.398c0.003,15.063-5.339,27.692-6.951,31.157
			c-0.259,0.558-0.772,0.958-1.378,1.037c-8.864,1.154-9.913,8.452-9.907,11.878c0.002,0.982,0.792,1.773,1.767,1.773h20.759
			c5.848,0,3.899-11.783,3.899-11.783s-0.975-2.946,3.899-11.783C112.84,198.507,114.959,188.605,116.294,180.867z"/>
		<path class="st7" d="M227.14,180.675c-1.509,0-2.934-0.344-4.216-0.942c-1.633,1.161-3.625,1.851-5.782,1.851
			c-1.743,0-3.379-0.45-4.804-1.234c0.007,0.178,0.023,0.351,0.023,0.533c0,11.978-8.882,26.939-11.166,30.589
			c-0.336,0.536-0.841,0.927-1.428,1.156c-7.825,3.047-8.937,9.343-8.971,12.505c-0.011,1.046,0.82,1.899,1.858,1.899h23.606
			c3.095,0,2.504-6.808,2.13-9.614c-0.107-0.799,0.026-1.602,0.385-2.322c1.878-3.762,8.02-16.003,12.106-23.412
			c2.002-3.63,2.521-8.581,2.441-13.157C231.619,179.868,229.475,180.675,227.14,180.675z"/>
		<path class="st7" d="M15.512,118.449c0,0,7.167-2.727,9.912-8.113c0.83-1.628,1.724-2.799,2.606-3.637"/>
		<path class="st7" d="M87.824,76.4c-0.176-0.808-0.463-1.605-0.868-2.372c-1.006-1.905-2.581-3.31-4.403-4.133
			c2.556-2.437,3.305-6.357,1.574-9.634c-1.444-2.736-4.234-4.301-7.126-4.316c2.183-2.451,2.743-6.089,1.12-9.162
			c-1.044-1.977-2.791-3.344-4.77-3.956"/>
		<path class="st7" d="M87.824,76.4c-0.176-0.808-0.463-1.605-0.868-2.372c-1.006-1.905-2.581-3.31-4.403-4.133
			c2.556-2.437,3.305-6.357,1.574-9.634c-1.444-2.736-4.234-4.301-7.126-4.316c2.183-2.451,2.743-6.089,1.12-9.162
			c-1.044-1.977-2.791-3.344-4.77-3.956"/>
		<path class="st7" d="M218.391,217.432c-0.078-0.584-0.025-1.168,0.144-1.723c-8.301,1.047-14.606-2.368-17.345-4.236
			c-0.345,0.538-0.857,0.932-1.451,1.165c-7.802,3.051-8.911,9.339-8.944,12.496c-0.011,1.045,0.82,1.897,1.858,1.897h23.606
			C219.349,227.031,218.766,220.247,218.391,217.432z"/>
		<path class="st7" d="M106.276,215.739c-6.738,0.779-12.136-1.366-15.343-3.182c-0.281,0.44-0.723,0.755-1.246,0.823
			c-8.864,1.154-9.912,8.452-9.907,11.878c0.002,0.982,0.792,1.773,1.767,1.773h20.759
			C107.438,227.031,106.567,217.964,106.276,215.739z"/>
		<path class="st7" d="M81.548,227.031c-0.975,0-1.765-0.791-1.767-1.773c-0.004-2.508,0.571-7.084,4.349-9.812
			c-3.253-0.631-5.921-1.815-7.817-2.889c-0.297,0.467-0.777,0.762-1.246,0.823c-1.089,0.142-2.463,0.518-2.971,0.701
			c-4.816,1.739-6.943,6.094-6.935,11.177c0.002,0.982,0.792,1.773,1.767,1.773h20.759l0,0H81.548z"/>
		<path class="st7" d="M190.796,225.132c0.025-2.411,0.689-6.643,4.469-9.869c-3.995-0.924-7.017-2.645-8.695-3.79
			c-0.343,0.538-0.854,0.931-1.446,1.163c-5.713,2.232-8.885,6.737-8.949,12.496c-0.011,1.046,0.82,1.898,1.858,1.898h14.621
			C191.615,227.031,190.785,226.178,190.796,225.132z"/>
		<g>
			<path class="st7" d="M242.592,143.408c0-2.869-1.215-5.448-3.15-7.272c1.935-1.823,3.15-4.403,3.15-7.272
				c0-3.565-1.871-6.685-4.68-8.456c1.768-1.803,2.862-4.271,2.862-6.996c0-5.522-4.476-9.998-9.998-9.998
				c0-5.522-4.476-9.998-9.998-9.998c-1.542,0-2.997,0.359-4.301,0.983c-1.436-3.761-5.068-6.436-9.333-6.436
				c-2.27,0-4.356,0.765-6.035,2.04c-1.76-2.856-4.907-4.767-8.509-4.767c-3.113,0-5.892,1.423-7.726,3.653
				c-1.834-2.23-4.613-3.653-7.726-3.653c-3.336,0-6.282,1.64-8.098,4.15c-1.827-1.988-4.441-3.241-7.354-3.241
				c-3.813,0-7.125,2.135-8.812,5.274c-1.833-2.113-4.532-3.456-7.549-3.456c-3.385,0-6.372,1.687-8.181,4.261
				c-1.809-2.574-4.795-4.261-8.181-4.261c-3.017,0-5.716,1.343-7.549,3.456c-1.686-3.139-4.999-5.274-8.812-5.274
				c-2.614,0-4.986,1.011-6.768,2.654c-1.212-4.158-5.044-7.198-9.593-7.198c-0.386,0-0.764,0.029-1.138,0.073
				c-0.199,0.115-0.39,0.242-0.598,0.343c0.543,1.183,0.854,2.495,0.854,3.881c0,4.567-3.286,8.36-7.62,9.162
				c0.003-0.001,0.005-0.001,0.008-0.001c-6.774,6.482-19.241,7.569-30.039,8.792c-2.466,0.279-4.676,1.016-6.697,2.039
				c-0.141,0.669-0.218,1.361-0.218,2.071c0,4.328,2.755,8.002,6.602,9.394c-1.285,1.682-2.057,3.777-2.057,6.058
				c0,3.801,2.121,7.106,5.244,8.797c-1.834,1.813-2.972,4.327-2.972,7.109c0,4.929,3.57,9.015,8.263,9.838
				c-0.912,1.508-1.446,3.269-1.446,5.16c0,5.522,4.476,9.998,9.998,9.998c0.059,0,0.116-0.008,0.174-0.009
				c-0.11,0.593-0.174,1.202-0.174,1.827c0,5.522,4.476,9.998,9.998,9.998c2.522,0,4.819-0.941,6.578-2.482
				c0.951,4.532,4.968,7.935,9.783,7.935c2.213,0,4.252-0.728,5.908-1.945c1.656,1.217,3.695,1.945,5.908,1.945
				c2.864,0,5.44-1.211,7.263-3.141c1.573,3.459,5.05,5.868,9.098,5.868c1.096,0,2.147-0.183,3.134-0.508
				c1.722,3.016,4.961,5.053,8.683,5.053c3.385,0,6.372-1.687,8.181-4.261c1.809,2.574,4.795,4.261,8.181,4.261
				c4.047,0,7.525-2.409,9.098-5.868c1.823,1.93,4.399,3.141,7.263,3.141c4.549,0,8.382-3.041,9.593-7.198
				c1.781,1.642,4.154,2.654,6.768,2.654c4.989,0,9.113-3.658,9.864-8.436c1.397,0.741,2.987,1.165,4.679,1.165
				c1.044,0,2.05-0.161,2.995-0.458c1.029,4.427,4.99,7.729,9.73,7.729c2.157,0,4.149-0.69,5.782-1.851
				c1.283,0.598,2.708,0.942,4.216,0.942c5.522,0,9.998-4.476,9.998-9.998c0-2.106-0.655-4.058-1.767-5.67
				c3.208-1.665,5.403-5.01,5.403-8.874c0-1.942-0.563-3.749-1.521-5.283C241.298,149.02,242.592,146.368,242.592,143.408z"/>
		</g>
		<path class="st7" d="M86.045,95.221c-5.15,0-9.324-4.175-9.324-9.324c0-0.091,0.011-0.18,0.014-0.271
			c-4.089-0.989-7.13-4.661-7.13-9.054c0-3.236,1.65-6.085,4.153-7.757c-1.787-1.485-2.926-3.724-2.926-6.229
			c0-0.988,0.186-1.93,0.509-2.805c-0.407,0.063-0.821,0.105-1.245,0.105c-3.898,0-7.151-2.755-7.922-6.424
			c-0.894,0.34-1.861,0.535-2.874,0.535c-3.08,0-5.757-1.72-7.126-4.251c-1.458,1.414-3.442,2.288-5.633,2.288
			c-3.428,0-6.352-2.133-7.533-5.142c-3.381,2.983-6.184,6.799-8.097,11.545c0,0-2,17.195-11.999,23.13
			c-4.375,2.597-9.05,6.367-11.765,11.562c1.681,0.278,4.176,0.357,7.137-0.622c5.303-1.754,0.964,13.844-8.098,13.508
			c-0.407-0.015-0.796-0.15-1.151-0.365c0.505,3.789,1.956,8.012,4.702,12.717c0.799,1.369,2.536,1.866,3.925,1.102l1.852-1.02
			c0,0,5.963,6.474,14.272,4.466c8.31-2.009,14.236-17.514,27.934-19.066c10.798-1.224,23.265-2.31,30.039-8.792
			C87.202,95.16,86.631,95.221,86.045,95.221z"/>
		<path class="st7" d="M3.529,95.108c0.611-1.466,1.992-2.271,3.381-2.016c1.678,0.309,4.276,0.439,7.372-0.586
			c5.303-1.754,0.964,13.844-8.098,13.508c-0.733-0.027-1.419-0.411-1.92-1.031C3.074,103.506,1.384,100.253,3.529,95.108z"/>
		<path class="st7" d="M84.316,67.416c1.014-2.207,1.034-4.84-0.188-7.154c-1.252-2.372-3.516-3.859-5.98-4.224L77.73,54.99
			c1.557-2.383,1.815-5.511,0.391-8.207c-0.145-0.274-0.306-0.534-0.476-0.784c0.939-0.972,2.037-1.803,3.277-2.442
			c3.429-1.766,8.113-2.94,14.141-1.845c0.57,0.104,1.132,0.189,1.689,0.266c-0.6-4.57-4.501-8.101-9.235-8.101
			c-2.154,0-4.132,0.738-5.711,1.964c-0.962-3.398-4.079-5.89-7.785-5.89c-3.094,0-5.78,1.736-7.144,4.286
			c-1.149-3.075-4.104-5.268-7.579-5.268c-4.472,0-8.097,3.625-8.097,8.097c0,0.09,0.011,0.178,0.013,0.267
			c-1.321-0.937-2.932-1.494-4.676-1.494c-4.472,0-8.097,3.625-8.097,8.097s3.625,8.097,8.097,8.097
			c2.191,0,4.175-0.874,5.633-2.288c1.369,2.531,4.047,4.251,7.126,4.251c1.014,0,1.98-0.195,2.874-0.535
			c0.771,3.669,4.024,6.424,7.922,6.424c0.425,0,0.838-0.042,1.245-0.105c-0.324,0.875-0.509,1.817-0.509,2.805
			c0,2.505,1.139,4.744,2.926,6.229c-2.503,1.672-4.153,4.521-4.153,7.757c0,4.392,3.041,8.065,7.13,9.054
			c-0.003,0.091-0.014,0.179-0.014,0.271c0,5.15,4.175,9.324,9.324,9.324s9.324-4.175,9.324-9.324c0-1.387-0.311-2.699-0.854-3.881
			c3.116-1.509,5.271-4.693,5.271-8.387c0-1.85-0.546-3.57-1.475-5.02C93.831,69.591,89.073,69.413,84.316,67.416z"/>
		<path class="st7" d="M122.939,42.85c-2.664-4.987-13.172,1.533-27.875-1.138c-6.028-1.095-10.712,0.079-14.141,1.845
			c-1.24,0.639-2.338,1.47-3.277,2.442c0.17,0.25,0.331,0.51,0.476,0.784c1.423,2.696,1.166,5.824-0.391,8.207l0.417,1.047
			c2.464,0.365,4.728,1.853,5.98,4.224c1.222,2.315,1.202,4.948,0.188,7.154C105.393,76.267,126.548,49.604,122.939,42.85z"/>
		<path class="st7" d="M95.064,41.712c-6.028-1.095-10.712,0.079-14.141,1.845c-1.24,0.639-2.338,1.47-3.277,2.442
			c0.17,0.25,0.331,0.51,0.476,0.784c1.423,2.696,1.166,5.824-0.391,8.207l0.417,1.047c0.703,0.104,1.385,0.31,2.037,0.591l0,0
			c6.278,0.031,16.342-1.112,24.856-5.728c7.912-4.289,13.665-3.883,17.142-2.748l0.432-0.038c0.81-2.183,0.974-4.049,0.324-5.264
			C120.274,37.863,109.767,44.382,95.064,41.712z"/>
	</g>
</g>
<g id="Layer_28">
</g>
<g id="Layer_29">
</g>
<g id="Layer_30">
</g>
<g id="Layer_31">
</g>
<g id="Layer_32">
</g>
<g id="Layer_33">
</g>
<g id="Layer_34">
</g>
<g id="Layer_35">
</g>
<g id="Layer_36">
</g>
<g id="Layer_37">
</g>
<g id="Layer_38">
</g>
<g id="Layer_39">
</g>
<g id="Layer_40">
</g>
<g id="Layer_41">
</g>
<g id="Layer_42">
</g>
<g id="Layer_43">
</g>
<g id="Layer_44">
</g>
<g id="Layer_45">
</g>
<g id="Layer_46">
</g>
<g id="Layer_47">
</g>
<g id="Layer_48">
</g>
<g id="Layer_49">
</g>
<g id="Layer_50">
</g>
<g id="Layer_51">
</g>
<g id="Layer_52">
</g>
<g id="Layer_53">
</g>
<g id="Layer_54">
</g>
<g id="Layer_55">
</g>
<g id="Layer_56">
</g>
<g id="Layer_57">
</g>
<g id="Layer_58">
</g>
<g id="Layer_59">
</g>
<g id="Layer_60">
</g>
<g id="Layer_61">
</g>
<g id="Layer_62">
</g>
<g id="Layer_63">
</g>
<g id="Layer_64">
</g>
<g id="Layer_65">
</g>
<g id="Layer_66">
</g>
<g id="Layer_67">
</g>
<g id="Layer_68">
</g>
<g id="Layer_69">
</g>
<g id="Layer_70">
</g>
<g id="Layer_71">
</g>
<g id="Layer_72">
</g>
<g id="Layer_73">
</g>
<g id="Layer_74">
</g>
<g id="Layer_75">
</g>
<g id="Layer_76">
</g>
<g id="Layer_77">
</g>
<g id="Layer_78">
</g>
<g id="Layer_79">
</g>
<g id="Layer_80">
</g>
<g id="Layer_81">
</g>
<g id="Layer_82">
</g>
<g id="Layer_83">
</g>
<g id="Layer_84">
</g>
<g id="Layer_85">
</g>
<g id="Layer_86">
</g>
<g id="Layer_87">
</g>
<g id="Layer_88">
</g>
<g id="Layer_89">
</g>
<g id="Layer_90">
</g>
<g id="Layer_91">
</g>
<g id="Layer_92">
</g>
<g id="Layer_93">
</g>
<g id="Layer_94">
</g>
<g id="Layer_95">
</g>
<g id="Layer_96">
</g>
<g id="Layer_97">
</g>
<g id="Layer_98">
</g>
<g id="Layer_99">
</g>
<g id="Layer_100">
</g>
</svg>
