<?xml version="1.0" encoding="utf-8"?>
<!-- Generator: Adobe Illustrator 22.0.0, SVG Export Plug-In . SVG Version: 6.00 Build 0)  -->
<svg version="1.1" xmlns="http://www.w3.org/2000/svg" xmlns:xlink="http://www.w3.org/1999/xlink" x="0px" y="0px"
	 viewBox="0 0 256 256" style="enable-background:new 0 0 256 256;" xml:space="preserve">
<style type="text/css">
	.st0{fill:#F9BD55;}
	.st1{fill:#F4DBCE;}
	.st2{fill:#52565B;}
	.st3{fill:#FD605B;}
	.st4{fill:#F98080;}
	.st5{fill:#F9E63A;}
	.st6{fill:#039BE6;}
	.st7{fill:none;stroke:#000000;stroke-width:5;stroke-linecap:round;stroke-linejoin:round;stroke-miterlimit:10;}
	.st8{fill:#7D3D1A;}
	.st9{fill:#EAA250;}
	.st10{fill:#DD7F57;}
	.st11{fill:#FFC097;}
	.st12{fill:#F49667;}
	.st13{fill:#F89422;}
	.st14{fill:#E3E4E5;}
	.st15{fill:#6E7175;}
	.st16{fill:#46BAF9;}
	.st17{fill:#D9F3FF;}
	.st18{fill:#828487;}
	.st19{fill:#A8AEB2;}
	.st20{fill:#C9CDD1;}
	.st21{fill:#8CD8F9;}
	.st22{fill:#1AA7E5;}
	.st23{fill:#ACE7FC;}
	.st24{fill:#FFFFFF;}
	.st25{fill:#9E512B;}
	.st26{fill:#7ED5FC;}
	.st27{fill:#7CCC4E;}
	.st28{fill:#3AA03A;}
	.st29{fill:#FCB1B1;}
	.st30{fill:#F76E23;}
	.st31{fill:#C16A44;}
	.st32{fill:#B796EA;}
</style>
<g id="Layer_1">
</g>
<g id="Layer_2">
</g>
<g id="Layer_3">
</g>
<g id="Layer_4">
</g>
<g id="Layer_5">
</g>
<g id="Layer_6">
</g>
<g id="Layer_7">
</g>
<g id="Layer_8">
</g>
<g id="Layer_9">
</g>
<g id="Layer_10">
</g>
<g id="Layer_11">
</g>
<g id="Layer_12">
</g>
<g id="Layer_13">
</g>
<g id="Layer_14">
</g>
<g id="Layer_15">
</g>
<g id="Layer_16">
</g>
<g id="Layer_17">
</g>
<g id="Layer_18">
</g>
<g id="Layer_19">
</g>
<g id="Layer_20">
</g>
<g id="Layer_21">
</g>
<g id="Layer_22">
</g>
<g id="Layer_23">
</g>
<g id="Layer_24">
</g>
<g id="Layer_25">
</g>
<g id="Layer_26">
</g>
<g id="Layer_27">
</g>
<g id="Layer_28">
</g>
<g id="Layer_29">
</g>
<g id="Layer_30">
</g>
<g id="Layer_31">
</g>
<g id="Layer_32">
</g>
<g id="Layer_33">
</g>
<g id="Layer_34">
</g>
<g id="Layer_35">
</g>
<g id="Layer_36">
</g>
<g id="Layer_37">
</g>
<g id="Layer_38">
</g>
<g id="Layer_39">
</g>
<g id="Layer_40">
</g>
<g id="Layer_41">
</g>
<g id="Layer_42">
</g>
<g id="Layer_43">
</g>
<g id="Layer_44">
</g>
<g id="Layer_45">
</g>
<g id="Layer_46">
</g>
<g id="Layer_47">
</g>
<g id="Layer_48">
</g>
<g id="Layer_49">
</g>
<g id="Layer_50">
</g>
<g id="Layer_51">
</g>
<g id="Layer_52">
</g>
<g id="Layer_53">
</g>
<g id="Layer_54">
</g>
<g id="Layer_55">
</g>
<g id="Layer_56">
</g>
<g id="Layer_57">
</g>
<g id="Layer_58">
</g>
<g id="Layer_59">
</g>
<g id="Layer_60">
</g>
<g id="Layer_61">
</g>
<g id="Layer_62">
</g>
<g id="Layer_63">
</g>
<g id="Layer_64">
</g>
<g id="Layer_65">
</g>
<g id="Layer_66">
</g>
<g id="Layer_67">
</g>
<g id="Layer_68">
</g>
<g id="Layer_69">
</g>
<g id="Layer_70">
</g>
<g id="Layer_71">
</g>
<g id="Layer_72">
</g>
<g id="Layer_73">
</g>
<g id="Layer_74">
</g>
<g id="Layer_75">
</g>
<g id="Layer_76">
</g>
<g id="Layer_77">
</g>
<g id="Layer_78">
</g>
<g id="Layer_79">
</g>
<g id="Layer_80">
</g>
<g id="Layer_81">
</g>
<g id="Layer_82">
</g>
<g id="Layer_83">
</g>
<g id="Layer_84">
	<g>
		<path class="st31" d="M212,213.814c-26.547,7.324-97.317,17.549-138.936-64.326c-2.526-4.97-8.653-6.877-13.521-4.16
			c-4.616,2.576-6.375,8.353-3.934,13.041c13.47,25.878,61.374,98.847,156.833,56.745C213.217,214.772,212.817,213.589,212,213.814z
			"/>
		<g>
			<path class="st8" d="M250.952,118.687c-12.784-45.906-60.363-72.757-106.27-59.973c-41.558,11.574-70.605,45.963-77.405,85.846
				c2.416,0.773,4.541,2.475,5.788,4.928c39.419,77.549,104.983,72.473,134.36,65.497c0.301-7.911-4.452-11.282-4.452-11.282
				C239.699,193.476,261.179,155.413,250.952,118.687z"/>
		</g>
		<circle class="st0" cx="59.583" cy="26.568" r="13.403"/>
		<circle class="st0" cx="22.098" cy="24.069" r="13.403"/>
		<g>
			<path class="st27" d="M207.633,217.15c-92.261,37.6-138.782-33.342-152.024-58.781c-1.236-2.375-1.391-5.027-0.647-7.403
				c-3.47-13.962-2.334-29.295-0.248-41.365c2.116-12.247-6.172-23.866-18.422-25.966c-11.617-1.991-22.822,5.29-25.677,16.726
				c-9.392,37.613-21.621,116.887,33.947,140.433c0,0,21.866,10.621,51.854-0.625s36.235,4.998,67.473,4.998
				c28.773,0,28.923-10.601,60.016-5.439c3.074,0.511,5.104-3.13,3.027-5.454C222.869,229.73,216.526,223.517,207.633,217.15z"/>
		</g>
		<path class="st7" d="M54.68,26.738c-0.009-2.708,2.179-4.91,4.887-4.919c2.708-0.009,4.91,2.179,4.919,4.887"/>
		<circle class="st7" cx="59.583" cy="26.568" r="13.403"/>
		<path class="st7" d="M17.195,24.239c-0.009-2.708,2.179-4.91,4.887-4.919c2.708-0.009,4.91,2.179,4.919,4.887"/>
		<circle class="st7" cx="22.098" cy="24.069" r="13.403"/>
		<path class="st7" d="M57.152,39.74c0,0-11.108,16.82-16.222,45.212"/>
		<path class="st7" d="M20.822,38.374c0,0-3.124,24.365,3.21,46.578"/>
		<path class="st7" d="M17.762,117.303c2.906,3.231,7.117,5.262,11.806,5.262s8.9-2.032,11.806-5.262"/>
		<path class="st7" d="M212,213.814c-26.547,7.324-97.317,17.549-138.936-64.326c-2.526-4.97-8.653-6.877-13.521-4.16
			c-4.616,2.576-6.375,8.353-3.934,13.041c13.47,25.878,61.374,98.847,156.833,56.745C213.217,214.772,212.817,213.589,212,213.814z
			"/>
		<path class="st7" d="M202.973,203.703c-29.38,8.182-59.831-9.003-68.013-38.383c-6.546-23.504,7.202-47.864,30.706-54.41
			c18.803-5.236,38.292,5.762,43.528,24.565c4.189,15.043-4.609,30.633-19.652,34.822c-12.034,3.351-24.507-3.688-27.858-15.722
			c-2.681-9.627,2.95-19.605,12.577-22.286c7.702-2.145,15.684,2.36,17.829,10.062"/>
		<g>
			<path class="st7" d="M250.952,118.687c-12.784-45.906-60.363-72.757-106.27-59.973c-41.558,11.574-70.605,45.963-77.405,85.846
				c2.416,0.773,4.541,2.475,5.788,4.928c39.419,77.549,104.983,72.473,134.36,65.497c0.301-7.911-4.452-11.282-4.452-11.282
				C239.699,193.476,261.179,155.413,250.952,118.687z"/>
		</g>
		<path class="st7" d="M93.545,90.366c0,0,6.139,10.933,19.58,20.633"/>
		<path class="st7" d="M76.68,115.372c0,0,3.229,5.238,10.909,10.78"/>
		<g>
			<path class="st7" d="M207.633,217.15c-92.261,37.6-138.782-33.342-152.024-58.781c-1.236-2.375-1.391-5.027-0.647-7.403
				c-3.47-13.962-2.334-29.295-0.248-41.365c2.116-12.247-6.172-23.866-18.422-25.966c-11.617-1.991-22.822,5.29-25.677,16.726
				c-9.392,37.613-21.621,116.887,33.947,140.433c0,0,21.866,10.621,51.854-0.625s36.235,4.998,67.473,4.998
				c28.773,0,28.923-10.601,60.016-5.439c3.074,0.511,5.104-3.13,3.027-5.454C222.869,229.73,216.526,223.517,207.633,217.15z"/>
		</g>
	</g>
</g>
<g id="Layer_85">
</g>
<g id="Layer_86">
</g>
<g id="Layer_87">
</g>
<g id="Layer_88">
</g>
<g id="Layer_89">
</g>
<g id="Layer_90">
</g>
<g id="Layer_91">
</g>
<g id="Layer_92">
</g>
<g id="Layer_93">
</g>
<g id="Layer_94">
</g>
<g id="Layer_95">
</g>
<g id="Layer_96">
</g>
<g id="Layer_97">
</g>
<g id="Layer_98">
</g>
<g id="Layer_99">
</g>
<g id="Layer_100">
</g>
</svg>
