<?xml version="1.0" encoding="utf-8"?>
<!-- Generator: Adobe Illustrator 22.0.0, SVG Export Plug-In . SVG Version: 6.00 Build 0)  -->
<svg version="1.1" xmlns="http://www.w3.org/2000/svg" xmlns:xlink="http://www.w3.org/1999/xlink" x="0px" y="0px"
	 viewBox="0 0 256 256" style="enable-background:new 0 0 256 256;" xml:space="preserve">
<style type="text/css">
	.st0{fill:#F9BD55;}
	.st1{fill:#F4DBCE;}
	.st2{fill:#52565B;}
	.st3{fill:#FD605B;}
	.st4{fill:#F98080;}
	.st5{fill:#F9E63A;}
	.st6{fill:#039BE6;}
	.st7{fill:none;stroke:#000000;stroke-width:5;stroke-linecap:round;stroke-linejoin:round;stroke-miterlimit:10;}
	.st8{fill:#7D3D1A;}
	.st9{fill:#EAA250;}
	.st10{fill:#DD7F57;}
	.st11{fill:#FFC097;}
	.st12{fill:#F49667;}
	.st13{fill:#F89422;}
	.st14{fill:#E3E4E5;}
	.st15{fill:#6E7175;}
	.st16{fill:#46BAF9;}
	.st17{fill:#D9F3FF;}
	.st18{fill:#828487;}
	.st19{fill:#A8AEB2;}
	.st20{fill:#C9CDD1;}
	.st21{fill:#8CD8F9;}
	.st22{fill:#1AA7E5;}
	.st23{fill:#ACE7FC;}
	.st24{fill:#FFFFFF;}
	.st25{fill:#9E512B;}
	.st26{fill:#7ED5FC;}
	.st27{fill:#7CCC4E;}
	.st28{fill:#3AA03A;}
	.st29{fill:#FCB1B1;}
	.st30{fill:#F76E23;}
	.st31{fill:#C16A44;}
	.st32{fill:#B796EA;}
</style>
<g id="Layer_1">
</g>
<g id="Layer_2">
</g>
<g id="Layer_3">
</g>
<g id="Layer_4">
</g>
<g id="Layer_5">
</g>
<g id="Layer_6">
</g>
<g id="Layer_7">
</g>
<g id="Layer_8">
</g>
<g id="Layer_9">
</g>
<g id="Layer_10">
</g>
<g id="Layer_11">
</g>
<g id="Layer_12">
</g>
<g id="Layer_13">
</g>
<g id="Layer_14">
</g>
<g id="Layer_15">
</g>
<g id="Layer_16">
</g>
<g id="Layer_17">
</g>
<g id="Layer_18">
</g>
<g id="Layer_19">
</g>
<g id="Layer_20">
</g>
<g id="Layer_21">
</g>
<g id="Layer_22">
</g>
<g id="Layer_23">
</g>
<g id="Layer_24">
</g>
<g id="Layer_25">
</g>
<g id="Layer_26">
</g>
<g id="Layer_27">
</g>
<g id="Layer_28">
</g>
<g id="Layer_29">
</g>
<g id="Layer_30">
</g>
<g id="Layer_31">
</g>
<g id="Layer_32">
</g>
<g id="Layer_33">
</g>
<g id="Layer_34">
</g>
<g id="Layer_35">
</g>
<g id="Layer_36">
</g>
<g id="Layer_37">
</g>
<g id="Layer_38">
</g>
<g id="Layer_39">
</g>
<g id="Layer_40">
</g>
<g id="Layer_41">
</g>
<g id="Layer_42">
</g>
<g id="Layer_43">
</g>
<g id="Layer_44">
</g>
<g id="Layer_45">
</g>
<g id="Layer_46">
</g>
<g id="Layer_47">
</g>
<g id="Layer_48">
</g>
<g id="Layer_49">
</g>
<g id="Layer_50">
	<g>
		<path class="st1" d="M145.096,75.95c-3.1-4.064-5.319-8.76-6.434-13.748c-5.59-24.996-26.032-43.533-50.406-43.533
			c-24.373,0-44.816,18.537-50.406,43.533c-1.115,4.988-3.334,9.684-6.434,13.748c-3.634,4.765-5.794,10.715-5.794,17.171
			c0,10.047,5.236,18.835,13.086,23.871c0.929-1.453,2.162-2.836,3.785-4.059c0.773-0.583,1.867-0.485,2.551,0.199l2.71,2.71
			c0.746,0.746,0.768,1.941,0.054,2.719c-0.451,0.491-0.988,1.119-1.553,1.842c0.938,0.265,1.89,0.498,2.865,0.666
			c4.897,0.845,9.662,2.397,13.893,5.004c7.472,4.603,16.078,7.23,25.243,7.23c9.165,0,17.771-2.628,25.243-7.23
			c4.231-2.606,8.996-4.159,13.894-5.004c13.309-2.295,23.497-13.91,23.497-27.947C150.891,86.665,148.731,80.716,145.096,75.95z"/>
		<g>
			<path class="st14" d="M88.256,98.781c0,3.885-2.677,7.137-6.285,8.034v3.534c0,1.929,1.578,3.507,3.507,3.507h5.557
				c1.929,0,3.507-1.578,3.507-3.507v-3.534C90.934,105.918,88.256,102.667,88.256,98.781z"/>
		</g>
		<path class="st1" d="M79.808,193.912c3.777-13.218,13.533-19.198,22.975-18.884c0,0-4.081-3.929-8.198-11.077
			c-14.921,6.868-31.64,3.688-40.385-0.201c-5.618,24.078-4.365,50.859,21.472,64.442c4.24,0.1,9.145,0.509,14.872,1.33
			C90.544,229.521,72.255,220.349,79.808,193.912z"/>
		<path class="st1" d="M51.483,152.997c-2.622-6.118,0.215-7.379,2.196-7.58c0.474-3.522,0.97-10.674-2.825-10.674
			c-5.036,0-3.777,5.036-6.295,5.036c-2.518,0-5.036-5.036-8.812-5.036c-3.684,0-14.535,22.747,11.806,23.865
			C45.88,154.869,51.483,152.997,51.483,152.997z"/>
		<path class="st4" d="M102.215,84.099c0,4.285-7.156,10.345-13.958,10.345c-6.802,0-13.958-6.06-13.958-10.345
			s7.156-4.616,13.958-4.616C95.058,79.484,102.215,79.814,102.215,84.099z"/>
		<path class="st25" d="M128.276,155.515c-9.734-9.734-13.703-20.998-15.31-29.138c-7.349,4.404-15.758,6.925-24.709,6.925
			c-0.699,0-1.388-0.044-2.081-0.074c0.028,4.398,0.521,8.506,1.323,12.294c-7.603,3.159-18.853,5.277-32.239-0.077
			c0,0-7.553-1.259-3.777,7.553c0,0-7.553,2.518-2.518,7.553c4.549,4.549,26.56,12.174,45.62,3.4
			c4.117,7.148,8.198,11.077,8.198,11.077c-9.442-0.315-19.198,5.665-22.975,18.884c-7.553,26.437,10.736,35.61,10.736,35.61
			c-42.941-6.157-40.95,10.268-40.95,14.746c0,5.036,7.553,13.848,22.66,6.295s51.552,10.134,64.204-2.518
			c3.075-3.075,3.803-7.089,3.903-9.749c0.073-1.917,0.803-3.75,2.102-5.162C177.705,194.824,128.276,155.515,128.276,155.515z"/>
		<g>
			<path class="st25" d="M75.672,228.192c-4.231-2.224-7.791-4.808-10.781-7.67c-35.934-3.53-34.18,11.336-34.18,15.563
				c0,4.596,6.296,12.331,18.881,7.905C49.542,239.817,48.73,227.558,75.672,228.192z"/>
		</g>
		<path class="st25" d="M133.46,47.801c4.67-1.292,9.201-3.995,12.861-8.066c9.068-10.084,9.38-24.59,0.696-32.399
			c-8.684-7.809-23.075-5.964-32.144,4.121c-3.187,3.544-5.268,7.636-6.282,11.79C119.124,28.202,127.865,36.886,133.46,47.801z"/>
		<path class="st25" d="M43.053,47.801c5.596-10.915,14.336-19.598,24.868-24.554c-1.013-4.154-3.095-8.246-6.282-11.79
			C52.57,1.371,38.179-0.473,29.495,7.335c-8.684,7.809-8.372,22.315,0.696,32.399C33.852,43.806,38.383,46.508,43.053,47.801z"/>
		<path class="st25" d="M243.034,46.916c-11.257-20.321-34.357-33.483-57.578-32.805c-11.562,0.337-22.354,4.441-32.251,10.345
			c-0.514,5.313-2.805,10.743-6.884,15.279c-3.661,4.071-8.191,6.774-12.861,8.066l0,0c2.289,4.465,4.06,9.295,5.202,14.402
			c1.116,4.988,3.335,9.684,6.434,13.748c3.635,4.765,5.794,10.715,5.794,17.171c0,10.624-5.842,19.852-14.451,24.711
			c8.21,13.446,18.99,25.481,28.946,37.801c4.704,5.821,9.503,12.233,9.955,19.704c0.376,6.212-2.368,12.224-5.9,17.349
			c-3.893,5.649-8.846,10.546-14.485,14.453c-0.727,7.628-3.795,15.612-10.405,23.591c1.927-0.519,3.853-1.038,5.78-1.557
			c14.412-3.882,29.143-7.909,41.409-16.414c12.266-8.504,21.795-22.51,20.828-37.404c-0.99-15.241-12.472-27.291-21.29-39.762
			c-33.77-47.757,0.461-59.426,11.33-61.834c-5.203,6.368-7.378,15.057-5.09,23.608c3.78,14.125,18.294,22.511,32.419,18.731
			c11.956-3.2,20.272-13.589,22.8-25.928C255.536,75.553,250.255,59.953,243.034,46.916z"/>
		<path class="st25" d="M128.631,39.968c-9.517-12.987-24.061-21.299-40.375-21.299c-16.358,0-30.938,8.358-40.453,21.406
			c34.914-10.987,34.855,23.81,33.121,39.731c2.238-0.276,4.808-0.323,7.332-0.323c2.627,0,5.303,0.053,7.603,0.36
			C94.127,63.992,94.035,29.31,128.631,39.968z"/>
		<path class="st31" d="M132.464,45.939c13.124-2.062,20.031-19.001,10.807-27.295c-8.088-7.273-22.318-1.547-25.458,10.227
			C123.697,33.379,128.694,39.194,132.464,45.939z"/>
		<path class="st31" d="M44.049,45.939c3.769-6.745,8.766-12.559,14.651-17.068c-3.14-11.772-17.369-17.501-25.458-10.227
			C24.052,26.908,30.888,43.872,44.049,45.939z"/>
		<path class="st25" d="M35.747,134.743c3.777,0,6.295,5.036,8.812,5.036c2.518,0,1.259-5.036,6.295-5.036
			c2.688,0,3.221,3.586,3.136,6.93c1.914-0.075,3.446-1.639,3.446-3.572v-0.346c0-5.767-4.718-10.485-10.485-10.485h-3.799
			c-0.391,0-0.668-0.397-0.52-0.759c1.45-3.544,3.737-6.383,5.177-7.951c0.714-0.778,0.692-1.973-0.054-2.719l-2.71-2.71
			c-0.684-0.684-1.778-0.782-2.551-0.199c-5.216,3.934-6.41,9.511-6.415,13.78c-0.001,0.308-0.245,0.558-0.554,0.558h-3.428
			c-5.767,0-10.485,4.718-10.485,10.485v0.346c0,1.981,1.606,3.586,3.586,3.586h5.812C32.105,137.781,34.401,134.743,35.747,134.743
			z"/>
		<g>
			<path class="st11" d="M48.965,160.551c-0.696-0.696-1.145-1.342-1.413-1.942c-16.721-0.71-18.449-10.131-16.543-16.921h-5.812
				c-0.252,0-0.497-0.027-0.734-0.076c-8.805,24.281,7.76,30.381,13.328,31.713c1.143,0.273,2.322,0.273,3.464,0
				c3.163-0.757,9.869-3.057,13.463-9.349C52.032,162.83,50.022,161.608,48.965,160.551z"/>
		</g>
		<path class="st7" d="M90.544,229.521c5.346,0.767,11.389,1.883,18.219,3.416"/>
		<path class="st7" d="M102.783,175.028c9.442,0.315,18.569,6.924,21.087,18.884"/>
		<path class="st7" d="M94.915,141.549c-6.137,4.131-20.772,11.448-39.655,3.895c0,0-7.553-1.259-3.777,7.553
			c0,0-7.553,2.518-2.518,7.553c5.036,5.036,31.473,13.848,51.615,0"/>
		<path class="st7" d="M128.276,155.515c-9.734-9.734-13.703-20.998-15.31-29.138c-7.349,4.404-15.758,6.925-24.709,6.925
			c-0.699,0-1.388-0.044-2.081-0.074c0.028,4.398,0.521,8.506,1.323,12.294c-7.603,3.159-18.853,5.277-32.239-0.077
			c0,0-7.553-1.259-3.777,7.553c0,0-7.553,2.518-2.518,7.553c4.549,4.549,26.56,12.174,45.62,3.4
			c4.117,7.148,8.198,11.077,8.198,11.077c-9.442-0.315-19.198,5.665-22.975,18.884c-7.553,26.437,10.736,35.61,10.736,35.61
			c-42.941-6.157-40.95,10.268-40.95,14.746c0,5.036,7.553,13.848,22.66,6.295s51.552,10.134,64.204-2.518
			c3.075-3.075,3.803-7.089,3.903-9.749c0.073-1.917,0.803-3.75,2.102-5.162C177.705,194.824,128.276,155.515,128.276,155.515z"/>
		<g>
			<path class="st7" d="M75.672,228.192c-4.231-2.224-7.791-4.808-10.781-7.67c-35.934-3.53-34.18,11.336-34.18,15.563
				c0,4.596,6.296,12.331,18.881,7.905C49.542,239.817,48.73,227.558,75.672,228.192z"/>
		</g>
		<path class="st7" d="M35.747,134.743c3.777,0,6.295,5.036,8.812,5.036c2.518,0,1.259-5.036,6.295-5.036
			c2.688,0,3.221,3.586,3.136,6.93c1.914-0.075,3.446-1.639,3.446-3.572v-0.346c0-5.767-4.718-10.485-10.485-10.485h-3.799
			c-0.391,0-0.668-0.397-0.52-0.759c1.45-3.544,3.737-6.383,5.177-7.951c0.714-0.778,0.692-1.973-0.054-2.719l-2.71-2.71
			c-0.684-0.684-1.778-0.782-2.551-0.199c-5.216,3.934-6.41,9.511-6.415,13.78c-0.001,0.308-0.245,0.558-0.554,0.558h-3.428
			c-5.767,0-10.485,4.718-10.485,10.485v0.346c0,1.981,1.606,3.586,3.586,3.586h5.812C32.105,137.781,34.401,134.743,35.747,134.743
			z"/>
		<g>
			<path class="st7" d="M48.965,160.551c-0.696-0.696-1.145-1.342-1.413-1.942c-16.721-0.71-18.449-10.131-16.543-16.921h-5.812
				c-0.252,0-0.497-0.027-0.734-0.076c-8.805,24.281,7.76,30.381,13.328,31.713c1.143,0.273,2.322,0.273,3.464,0
				c3.163-0.757,9.869-3.057,13.463-9.349C52.032,162.83,50.022,161.608,48.965,160.551z"/>
		</g>
		<path class="st7" d="M88.256,95.127v3.654c0,4.577,3.711,8.288,8.288,8.288h0c4.577,0,8.288-3.711,8.288-8.288"/>
		<path class="st7" d="M88.256,95.127v3.654c0,4.577-3.711,8.288-8.288,8.288h0c-4.577,0-8.288-3.711-8.288-8.288"/>
		<path class="st7" d="M133.46,47.801c4.67-1.292,9.201-3.995,12.861-8.066c9.068-10.084,9.38-24.59,0.696-32.399
			c-8.684-7.809-23.075-5.964-32.144,4.121c-3.187,3.544-5.268,7.636-6.282,11.79C119.124,28.202,127.865,36.886,133.46,47.801z"/>
		<path class="st7" d="M43.053,47.801c5.596-10.915,14.336-19.598,24.868-24.554c-1.013-4.154-3.095-8.246-6.282-11.79
			C52.57,1.371,38.179-0.473,29.495,7.335c-8.684,7.809-8.372,22.315,0.696,32.399C33.852,43.806,38.383,46.508,43.053,47.801z"/>
		<path class="st7" d="M145.096,75.95c-3.1-4.064-5.319-8.76-6.434-13.748c-5.59-24.996-26.032-43.533-50.406-43.533
			c-24.373,0-44.816,18.537-50.406,43.533c-1.115,4.988-3.334,9.684-6.434,13.748c-3.634,4.765-5.794,10.715-5.794,17.171
			c0,10.047,5.236,18.835,13.086,23.871c0.929-1.453,2.162-2.836,3.785-4.059c0.773-0.583,1.867-0.485,2.551,0.199l2.71,2.71
			c0.746,0.746,0.768,1.941,0.054,2.719c-0.451,0.491-0.988,1.119-1.553,1.842c0.938,0.265,1.89,0.498,2.865,0.666
			c4.897,0.845,9.662,2.397,13.893,5.004c7.472,4.603,16.078,7.23,25.243,7.23c9.165,0,17.771-2.628,25.243-7.23
			c4.231-2.606,8.996-4.159,13.894-5.004c13.309-2.295,23.497-13.91,23.497-27.947C150.891,86.665,148.731,80.716,145.096,75.95z"/>
		<path class="st7" d="M108.376,73.455c-0.012-3.671,2.954-6.656,6.625-6.668c3.671-0.012,6.656,2.954,6.668,6.625"/>
		<path class="st7" d="M54.675,73.433c0-3.671,2.976-6.647,6.647-6.647s6.647,2.976,6.647,6.647"/>
		<path class="st7" d="M202.608,73.759c0,0,14.262-4.313,23.704,4.823"/>
		<path class="st7" d="M243.034,46.916c-11.257-20.321-34.357-33.483-57.578-32.805c-11.562,0.337-22.354,4.441-32.251,10.345
			c-0.514,5.313-2.805,10.743-6.884,15.279c-3.661,4.071-8.191,6.774-12.861,8.066l0,0c2.289,4.465,4.06,9.295,5.202,14.402
			c1.116,4.988,3.335,9.684,6.434,13.748c3.635,4.765,5.794,10.715,5.794,17.171c0,10.624-5.842,19.852-14.451,24.711
			c8.21,13.446,18.99,25.481,28.946,37.801c4.704,5.821,9.503,12.233,9.955,19.704c0.376,6.212-2.368,12.224-5.9,17.349
			c-3.893,5.649-8.846,10.546-14.485,14.453c-0.727,7.628-3.795,15.612-10.405,23.591c1.927-0.519,3.853-1.038,5.78-1.557
			c14.412-3.882,29.143-7.909,41.409-16.414c12.266-8.504,21.795-22.51,20.828-37.404c-0.99-15.241-12.472-27.291-21.29-39.762
			c-33.77-47.757,0.461-59.426,11.33-61.834c-5.203,6.368-7.378,15.057-5.09,23.608c3.78,14.125,18.294,22.511,32.419,18.731
			c11.956-3.2,20.272-13.589,22.8-25.928C255.536,75.553,250.255,59.953,243.034,46.916z"/>
		<path class="st7" d="M79.808,193.912c3.777-13.218,13.533-19.198,22.975-18.884c0,0-4.081-3.929-8.198-11.077
			c-14.921,6.868-31.64,3.688-40.385-0.201c-5.618,24.078-4.365,50.859,21.472,64.442c4.24,0.1,9.145,0.509,14.872,1.33
			C90.544,229.521,72.255,220.349,79.808,193.912z"/>
		<path class="st7" d="M86.176,133.227c-6.759-0.296-13.178-2.016-19.03-4.9c-2.49,5.133-5.309,11.479-7.863,18.515
			c11.615,3.499,21.389,1.516,28.216-1.321C86.697,141.733,86.204,137.625,86.176,133.227z"/>
		<path class="st7" d="M132.464,45.939c13.124-2.062,20.031-19.001,10.807-27.295c-8.088-7.273-22.318-1.547-25.458,10.227
			C123.697,33.379,128.694,39.194,132.464,45.939z"/>
		<path class="st7" d="M44.049,45.939c3.769-6.745,8.766-12.559,14.651-17.068c-3.14-11.772-17.369-17.501-25.458-10.227
			C24.052,26.908,30.888,43.872,44.049,45.939z"/>
		<path class="st7" d="M128.631,39.968c-9.517-12.987-24.061-21.299-40.375-21.299c-16.358,0-30.938,8.358-40.453,21.406
			c34.914-10.987,34.855,23.81,33.121,39.731c2.238-0.276,4.808-0.323,7.332-0.323c2.627,0,5.303,0.053,7.603,0.36
			C94.127,63.992,94.035,29.31,128.631,39.968z"/>
		<g>
			<path class="st7" d="M88.256,98.781c0,3.885-2.677,7.137-6.285,8.034v3.534c0,1.929,1.578,3.507,3.507,3.507h5.557
				c1.929,0,3.507-1.578,3.507-3.507v-3.534C90.934,105.918,88.256,102.667,88.256,98.781z"/>
		</g>
		<path class="st7" d="M102.215,84.099c0,4.285-7.156,10.345-13.958,10.345c-6.802,0-13.958-6.06-13.958-10.345
			s7.156-4.616,13.958-4.616C95.058,79.484,102.215,79.814,102.215,84.099z"/>
		<path class="st7" d="M51.483,152.997c-2.622-6.118,0.215-7.379,2.196-7.58c0.474-3.522,0.97-10.674-2.825-10.674
			c-5.036,0-3.777,5.036-6.295,5.036c-2.518,0-5.036-5.036-8.812-5.036c-3.684,0-14.535,22.747,11.806,23.865
			C45.88,154.869,51.483,152.997,51.483,152.997z"/>
	</g>
</g>
<g id="Layer_51">
</g>
<g id="Layer_52">
</g>
<g id="Layer_53">
</g>
<g id="Layer_54">
</g>
<g id="Layer_55">
</g>
<g id="Layer_56">
</g>
<g id="Layer_57">
</g>
<g id="Layer_58">
</g>
<g id="Layer_59">
</g>
<g id="Layer_60">
</g>
<g id="Layer_61">
</g>
<g id="Layer_62">
</g>
<g id="Layer_63">
</g>
<g id="Layer_64">
</g>
<g id="Layer_65">
</g>
<g id="Layer_66">
</g>
<g id="Layer_67">
</g>
<g id="Layer_68">
</g>
<g id="Layer_69">
</g>
<g id="Layer_70">
</g>
<g id="Layer_71">
</g>
<g id="Layer_72">
</g>
<g id="Layer_73">
</g>
<g id="Layer_74">
</g>
<g id="Layer_75">
</g>
<g id="Layer_76">
</g>
<g id="Layer_77">
</g>
<g id="Layer_78">
</g>
<g id="Layer_79">
</g>
<g id="Layer_80">
</g>
<g id="Layer_81">
</g>
<g id="Layer_82">
</g>
<g id="Layer_83">
</g>
<g id="Layer_84">
</g>
<g id="Layer_85">
</g>
<g id="Layer_86">
</g>
<g id="Layer_87">
</g>
<g id="Layer_88">
</g>
<g id="Layer_89">
</g>
<g id="Layer_90">
</g>
<g id="Layer_91">
</g>
<g id="Layer_92">
</g>
<g id="Layer_93">
</g>
<g id="Layer_94">
</g>
<g id="Layer_95">
</g>
<g id="Layer_96">
</g>
<g id="Layer_97">
</g>
<g id="Layer_98">
</g>
<g id="Layer_99">
</g>
<g id="Layer_100">
</g>
</svg>
