<?xml version="1.0" encoding="utf-8"?>
<!-- Generator: Adobe Illustrator 22.0.0, SVG Export Plug-In . SVG Version: 6.00 Build 0)  -->
<svg version="1.1" xmlns="http://www.w3.org/2000/svg" xmlns:xlink="http://www.w3.org/1999/xlink" x="0px" y="0px"
	 viewBox="0 0 256 256" style="enable-background:new 0 0 256 256;" xml:space="preserve">
<style type="text/css">
	.st0{fill:#F9BD55;}
	.st1{fill:#F4DBCE;}
	.st2{fill:#52565B;}
	.st3{fill:#FD605B;}
	.st4{fill:#F98080;}
	.st5{fill:#F9E63A;}
	.st6{fill:#039BE6;}
	.st7{fill:none;stroke:#000000;stroke-width:5;stroke-linecap:round;stroke-linejoin:round;stroke-miterlimit:10;}
	.st8{fill:#7D3D1A;}
	.st9{fill:#EAA250;}
	.st10{fill:#DD7F57;}
	.st11{fill:#FFC097;}
	.st12{fill:#F49667;}
	.st13{fill:#F89422;}
	.st14{fill:#E3E4E5;}
	.st15{fill:#6E7175;}
	.st16{fill:#46BAF9;}
	.st17{fill:#D9F3FF;}
	.st18{fill:#828487;}
	.st19{fill:#A8AEB2;}
	.st20{fill:#C9CDD1;}
	.st21{fill:#8CD8F9;}
	.st22{fill:#1AA7E5;}
	.st23{fill:#ACE7FC;}
	.st24{fill:#FFFFFF;}
	.st25{fill:#9E512B;}
	.st26{fill:#7ED5FC;}
	.st27{fill:#7CCC4E;}
	.st28{fill:#3AA03A;}
	.st29{fill:#FCB1B1;}
	.st30{fill:#F76E23;}
	.st31{fill:#C16A44;}
	.st32{fill:#B796EA;}
</style>
<g id="Layer_1">
</g>
<g id="Layer_2">
</g>
<g id="Layer_3">
</g>
<g id="Layer_4">
</g>
<g id="Layer_5">
</g>
<g id="Layer_6">
</g>
<g id="Layer_7">
</g>
<g id="Layer_8">
</g>
<g id="Layer_9">
</g>
<g id="Layer_10">
</g>
<g id="Layer_11">
</g>
<g id="Layer_12">
</g>
<g id="Layer_13">
</g>
<g id="Layer_14">
</g>
<g id="Layer_15">
</g>
<g id="Layer_16">
</g>
<g id="Layer_17">
</g>
<g id="Layer_18">
</g>
<g id="Layer_19">
</g>
<g id="Layer_20">
</g>
<g id="Layer_21">
</g>
<g id="Layer_22">
</g>
<g id="Layer_23">
</g>
<g id="Layer_24">
</g>
<g id="Layer_25">
</g>
<g id="Layer_26">
</g>
<g id="Layer_27">
</g>
<g id="Layer_28">
</g>
<g id="Layer_29">
</g>
<g id="Layer_30">
</g>
<g id="Layer_31">
</g>
<g id="Layer_32">
</g>
<g id="Layer_33">
</g>
<g id="Layer_34">
</g>
<g id="Layer_35">
</g>
<g id="Layer_36">
</g>
<g id="Layer_37">
</g>
<g id="Layer_38">
</g>
<g id="Layer_39">
</g>
<g id="Layer_40">
</g>
<g id="Layer_41">
</g>
<g id="Layer_42">
</g>
<g id="Layer_43">
</g>
<g id="Layer_44">
</g>
<g id="Layer_45">
</g>
<g id="Layer_46">
</g>
<g id="Layer_47">
</g>
<g id="Layer_48">
</g>
<g id="Layer_49">
</g>
<g id="Layer_50">
</g>
<g id="Layer_51">
</g>
<g id="Layer_52">
</g>
<g id="Layer_53">
</g>
<g id="Layer_54">
</g>
<g id="Layer_55">
</g>
<g id="Layer_56">
</g>
<g id="Layer_57">
</g>
<g id="Layer_58">
</g>
<g id="Layer_59">
</g>
<g id="Layer_60">
</g>
<g id="Layer_61">
</g>
<g id="Layer_62">
</g>
<g id="Layer_63">
</g>
<g id="Layer_64">
</g>
<g id="Layer_65">
</g>
<g id="Layer_66">
</g>
<g id="Layer_67">
</g>
<g id="Layer_68">
	<g>
		<path class="st2" d="M252.843,31.043c-4.968,4.539-12.565,5.94-19.417,5.174c-8.012-0.895-15.539-4.17-23.347-6.177
			c-28.479-7.321-56.007,3.345-70.701,23.68c3.715-0.57,7.47,1.251,9.331,4.508c4.43-6.445,10.029-11.943,16.838-15.46
			c26.466-13.669,52.331-0.683,69.085-1.835c7.212-0.496,14.751-3.596,18.791-9.379C253.69,31.172,253.187,30.729,252.843,31.043z"
			/>
		<path class="st18" d="M148.547,68.792c1.087-2.237,2.178-5.796,0.704-9.467c-1.721-4.284-6.507-6.636-10.949-5.38
			c-3.542,1.001-5.652,3.704-6.82,5.869C138.445,58.677,145.519,62.355,148.547,68.792z"/>
		<path class="st19" d="M219.495,169.305c-11.396-3.948-61.262-24.038-73.799-76.906c-0.298-1.256-0.058-2.604,0.635-3.725
			c2.023-3.273,5.821-11.021,2.593-19.061c-3.013-7.504-11.396-11.623-19.178-9.423c-8.337,2.357-12.15,10.098-13.505,13.699
			c-0.464,1.233-1.384,2.247-2.561,2.778C64.168,99.045,17.795,71.845,7.707,65.237c-1.09-0.714-2.603-0.203-3.095,1.074
			c-11.941,31.026,30.176,75.209,41.447,87.584c0.115,0.127,0.229,0.253,0.342,0.379c7.852,8.806,7.26,22.346-1.38,30.381
			c-2.753,2.56-5.081,5.061-6.918,7.189c-2.7,3.13-2.212,7.881,1.036,10.13l0.087,0.06c2.968,2.055,7.037,1.153,9.212-1.944
			c3.689-5.25,7.738-8.458,10.59-10.265c1.917-1.214,4.34-1.035,5.926,0.488c4.247,4.079,13.829,9.094,20.549,10.097
			c2.175,0.325,3.798,2.134,4.007,4.393c0.312,3.362,0.247,8.527-1.655,14.655c-1.122,3.614,0.65,7.387,4.09,8.48l0.101,0.032
			c3.765,1.196,7.825-1.32,8.652-5.369c1.038-5.08,2.056-12.256,1.757-20.006c-0.065-1.674,0.676-3.327,1.997-4.363
			c3.1-2.431,9.795-6.065,21.425-5.117c16.683,1.36,77.394,7.705,94.658-20.705C221.246,171.241,220.726,169.731,219.495,169.305z"
			/>
		<path class="st7" d="M219.495,169.305c-11.396-3.948-61.262-24.038-73.799-76.906c-0.298-1.256-0.058-2.604,0.635-3.725
			c2.023-3.273,5.821-11.021,2.593-19.061c-3.013-7.504-11.396-11.623-19.178-9.423c-8.337,2.357-12.15,10.098-13.505,13.699
			c-0.464,1.233-1.384,2.247-2.561,2.778C64.168,99.045,17.795,71.845,7.707,65.237c-1.09-0.714-2.603-0.203-3.095,1.074
			c-11.941,31.026,30.176,75.209,41.447,87.584c0.115,0.127,0.229,0.253,0.342,0.379c7.852,8.806,7.26,22.346-1.38,30.381
			c-2.753,2.56-5.081,5.061-6.918,7.189c-2.7,3.13-2.212,7.881,1.036,10.13l0.087,0.06c2.968,2.055,7.037,1.153,9.212-1.944
			c3.689-5.25,7.738-8.458,10.59-10.265c1.917-1.214,4.34-1.035,5.926,0.488c4.247,4.079,13.829,9.094,20.549,10.097
			c2.175,0.325,3.798,2.134,4.007,4.393c0.312,3.362,0.247,8.527-1.655,14.655c-1.122,3.614,0.65,7.387,4.09,8.48l0.101,0.032
			c3.765,1.196,7.825-1.32,8.652-5.369c1.038-5.08,2.056-12.256,1.757-20.006c-0.065-1.674,0.676-3.327,1.997-4.363
			c3.1-2.431,9.795-6.065,21.425-5.117c16.683,1.36,77.394,7.705,94.658-20.705C221.246,171.241,220.726,169.731,219.495,169.305z"
			/>
		<path class="st7" d="M111.841,161.295c3.581-5.404,7.073-11.468,10.297-18.028c5.719-11.638,9.705-23.004,11.772-32.695"/>
		<path class="st7" d="M106.493,97.1c-6.408,7.558-12.97,17.658-18.689,29.296c-3.223,6.56-5.89,13.03-7.98,19.167"/>
		<path class="st7" d="M252.843,31.043c-4.968,4.539-12.565,5.94-19.417,5.174c-8.012-0.895-15.539-4.17-23.347-6.177
			c-28.479-7.321-56.007,3.345-70.701,23.68c3.715-0.57,7.47,1.251,9.331,4.508c4.43-6.445,10.029-11.943,16.838-15.46
			c26.466-13.669,52.331-0.683,69.085-1.835c7.212-0.496,14.751-3.596,18.791-9.379C253.69,31.172,253.187,30.729,252.843,31.043z"
			/>
		<path class="st7" d="M148.547,68.792c1.087-2.237,2.178-5.796,0.704-9.467c-1.721-4.284-6.507-6.636-10.949-5.38
			c-3.542,1.001-5.652,3.704-6.82,5.869C138.445,58.677,145.519,62.355,148.547,68.792z"/>
		<path class="st7" d="M76.95,180.555c0.563,1.99,1.936,3.743,3.94,4.727s4.229,1.001,6.149,0.23"/>
		<path class="st7" d="M95.239,174.806c0.951-1.951,3.303-2.761,5.254-1.811c1.951,0.951,2.761,3.303,1.811,5.254"/>
		<path class="st7" d="M73.374,164.048c0.957-1.948,3.312-2.751,5.259-1.794c1.948,0.957,2.751,3.312,1.794,5.259"/>
	</g>
</g>
<g id="Layer_69">
</g>
<g id="Layer_70">
</g>
<g id="Layer_71">
</g>
<g id="Layer_72">
</g>
<g id="Layer_73">
</g>
<g id="Layer_74">
</g>
<g id="Layer_75">
</g>
<g id="Layer_76">
</g>
<g id="Layer_77">
</g>
<g id="Layer_78">
</g>
<g id="Layer_79">
</g>
<g id="Layer_80">
</g>
<g id="Layer_81">
</g>
<g id="Layer_82">
</g>
<g id="Layer_83">
</g>
<g id="Layer_84">
</g>
<g id="Layer_85">
</g>
<g id="Layer_86">
</g>
<g id="Layer_87">
</g>
<g id="Layer_88">
</g>
<g id="Layer_89">
</g>
<g id="Layer_90">
</g>
<g id="Layer_91">
</g>
<g id="Layer_92">
</g>
<g id="Layer_93">
</g>
<g id="Layer_94">
</g>
<g id="Layer_95">
</g>
<g id="Layer_96">
</g>
<g id="Layer_97">
</g>
<g id="Layer_98">
</g>
<g id="Layer_99">
</g>
<g id="Layer_100">
</g>
</svg>
