<?xml version="1.0" encoding="utf-8"?>
<!-- Generator: Adobe Illustrator 22.0.0, SVG Export Plug-In . SVG Version: 6.00 Build 0)  -->
<svg version="1.1" xmlns="http://www.w3.org/2000/svg" xmlns:xlink="http://www.w3.org/1999/xlink" x="0px" y="0px"
	 viewBox="0 0 256 256" style="enable-background:new 0 0 256 256;" xml:space="preserve">
<style type="text/css">
	.st0{fill:#F9BD55;}
	.st1{fill:#F4DBCE;}
	.st2{fill:#52565B;}
	.st3{fill:#FD605B;}
	.st4{fill:#F98080;}
	.st5{fill:#F9E63A;}
	.st6{fill:#039BE6;}
	.st7{fill:none;stroke:#000000;stroke-width:5;stroke-linecap:round;stroke-linejoin:round;stroke-miterlimit:10;}
	.st8{fill:#7D3D1A;}
	.st9{fill:#EAA250;}
	.st10{fill:#DD7F57;}
	.st11{fill:#FFC097;}
	.st12{fill:#F49667;}
	.st13{fill:#F89422;}
	.st14{fill:#E3E4E5;}
	.st15{fill:#6E7175;}
	.st16{fill:#46BAF9;}
	.st17{fill:#D9F3FF;}
	.st18{fill:#828487;}
	.st19{fill:#A8AEB2;}
	.st20{fill:#C9CDD1;}
	.st21{fill:#8CD8F9;}
	.st22{fill:#1AA7E5;}
	.st23{fill:#ACE7FC;}
	.st24{fill:#FFFFFF;}
	.st25{fill:#9E512B;}
	.st26{fill:#7ED5FC;}
	.st27{fill:#7CCC4E;}
	.st28{fill:#3AA03A;}
	.st29{fill:#FCB1B1;}
	.st30{fill:#F76E23;}
	.st31{fill:#C16A44;}
	.st32{fill:#B796EA;}
</style>
<g id="Layer_1">
</g>
<g id="Layer_2">
</g>
<g id="Layer_3">
</g>
<g id="Layer_4">
</g>
<g id="Layer_5">
</g>
<g id="Layer_6">
</g>
<g id="Layer_7">
</g>
<g id="Layer_8">
</g>
<g id="Layer_9">
</g>
<g id="Layer_10">
</g>
<g id="Layer_11">
</g>
<g id="Layer_12">
</g>
<g id="Layer_13">
</g>
<g id="Layer_14">
</g>
<g id="Layer_15">
</g>
<g id="Layer_16">
</g>
<g id="Layer_17">
</g>
<g id="Layer_18">
</g>
<g id="Layer_19">
</g>
<g id="Layer_20">
</g>
<g id="Layer_21">
</g>
<g id="Layer_22">
</g>
<g id="Layer_23">
</g>
<g id="Layer_24">
</g>
<g id="Layer_25">
</g>
<g id="Layer_26">
</g>
<g id="Layer_27">
</g>
<g id="Layer_28">
</g>
<g id="Layer_29">
</g>
<g id="Layer_30">
</g>
<g id="Layer_31">
</g>
<g id="Layer_32">
</g>
<g id="Layer_33">
</g>
<g id="Layer_34">
</g>
<g id="Layer_35">
</g>
<g id="Layer_36">
</g>
<g id="Layer_37">
</g>
<g id="Layer_38">
</g>
<g id="Layer_39">
</g>
<g id="Layer_40">
</g>
<g id="Layer_41">
</g>
<g id="Layer_42">
</g>
<g id="Layer_43">
</g>
<g id="Layer_44">
</g>
<g id="Layer_45">
</g>
<g id="Layer_46">
</g>
<g id="Layer_47">
</g>
<g id="Layer_48">
</g>
<g id="Layer_49">
</g>
<g id="Layer_50">
</g>
<g id="Layer_51">
</g>
<g id="Layer_52">
</g>
<g id="Layer_53">
</g>
<g id="Layer_54">
</g>
<g id="Layer_55">
</g>
<g id="Layer_56">
</g>
<g id="Layer_57">
</g>
<g id="Layer_58">
</g>
<g id="Layer_59">
</g>
<g id="Layer_60">
</g>
<g id="Layer_61">
</g>
<g id="Layer_62">
</g>
<g id="Layer_63">
</g>
<g id="Layer_64">
</g>
<g id="Layer_65">
</g>
<g id="Layer_66">
	<g>
		<path class="st11" d="M181.837,169.335c-5.237-3.389-11.803-3.823-17.649-5.997c-5.076-1.887-9.637-5.138-13.077-9.321
			c-2.696-3.277-4.739-7.117-7.362-10.418c-0.875,0.448-1.741,0.917-2.582,1.436c-8.623,5.311-18.554,8.343-29.13,8.343
			c-10.576,0-20.507-3.032-29.13-8.343c-0.841-0.518-1.707-0.988-2.582-1.436c-2.623,3.302-4.666,7.141-7.362,10.419
			c-3.44,4.183-8.001,7.434-13.077,9.321c-5.846,2.174-12.412,2.608-17.649,5.997c-1.283,0.831-2.594,2.303-1.984,3.705
			c0.277,0.635,0.894,1.055,1.526,1.34c2.55,1.151,6.09,0.915,7.443,3.364c0.24,0.434,0.385,0.927,0.709,1.301
			c0.413,0.476,1.068,0.69,1.698,0.695c2.897,0.021,4.35-3.491,6.788-5.057c1.079-0.693,2.356-0.992,3.598-1.313
			c6.221-1.609,12.155-4.061,17.945-6.863c-0.425,3.078-0.65,6.263-0.65,9.524c0,8.178,1.405,15.874,3.875,22.608
			c-0.722,2.151-1.324,4.33-1.682,6.557c-1.367,8.505,0.791,17.102,1.948,25.632c0.465,3.425,0.757,6.975-0.366,10.268
			c-0.802,2.353-2.481,4.559-4.725,5.822c-2.325,1.308-2.531,4.438-0.15,5.658c0.171,0.088,0.347,0.167,0.525,0.238
			c2.072,0.823,4.42,0.731,6.672,0.593c2.594-0.159,5.233-0.369,7.642-1.269c2.41-0.9,4.595-2.603,5.36-4.892
			c0.783-2.346-0.009-4.855-0.248-7.299c-0.265-2.707,0.161-5.427,0.586-8.117c0.579-3.667,1.159-7.333,1.738-11
			c3.592,1.983,7.483,3.077,11.549,3.077c4.067,0,7.957-1.093,11.55-3.077c0.579,3.667,1.159,7.333,1.738,11
			c0.425,2.69,0.851,5.41,0.586,8.117c-0.239,2.444-1.032,4.954-0.248,7.299c0.765,2.289,2.951,3.992,5.36,4.892
			c2.409,0.9,5.048,1.11,7.642,1.269c2.252,0.138,4.6,0.23,6.672-0.593c0.178-0.071,0.353-0.15,0.525-0.238
			c2.381-1.22,2.175-4.35-0.15-5.658c-2.244-1.263-3.923-3.469-4.725-5.822c-1.122-3.294-0.83-6.843-0.366-10.268
			c1.157-8.531,3.315-17.128,1.948-25.632c-0.358-2.228-0.96-4.407-1.682-6.557c2.471-6.734,3.875-14.43,3.875-22.608
			c0-3.262-0.225-6.446-0.65-9.524c5.791,2.802,11.725,5.254,17.945,6.863c1.242,0.321,2.519,0.62,3.598,1.313
			c2.438,1.565,3.891,5.078,6.788,5.057c0.63-0.005,1.285-0.218,1.698-0.695c0.324-0.374,0.47-0.867,0.709-1.301
			c1.353-2.449,4.893-2.213,7.443-3.364c0.632-0.285,1.249-0.705,1.526-1.34C184.43,171.638,183.12,170.166,181.837,169.335z"/>
		<path class="st1" d="M112.036,153.378c-3.798,0-7.512-0.397-11.113-1.145c-4.045,5.51-6.636,13.956-6.636,23.432
			c0,16.602,7.946,30.061,17.748,30.061c9.802,0,17.749-13.459,17.749-30.061c0-9.476-2.591-17.922-6.636-23.432
			C119.548,152.981,115.835,153.378,112.036,153.378z"/>
		<path class="st1" d="M165.656,174.683c-1.079-0.693-2.356-0.992-3.598-1.313c-6.221-1.609-12.155-4.062-17.945-6.863
			c0.425,3.078,0.65,6.263,0.65,9.524c0,4.199-0.376,8.268-1.071,12.148c1.643-3.147,3.59-6.1,6.36-8.27
			c4.549-3.563,10.582-4.463,16.389-4.633C166.188,175.061,165.929,174.859,165.656,174.683z"/>
		<path class="st1" d="M79.311,176.032c0-3.262,0.225-6.446,0.65-9.524c-5.791,2.802-11.724,5.254-17.945,6.863
			c-1.242,0.321-2.519,0.62-3.598,1.313c-0.274,0.176-0.534,0.379-0.786,0.596c5.785,0.176,11.788,1.082,16.318,4.631
			c2.836,2.222,4.81,5.266,6.478,8.498C79.705,184.459,79.311,180.314,79.311,176.032z"/>
		<path class="st11" d="M139.474,7.477c0,0-4.561,4.495-16.735,1.968c-9.559-1.984-20.726-4.302-28.426,2.441
			c-4.881,4.275-4.674,12.033,0.497,15.953c3.068,2.326,7.702,4.619,14.688,6.069c19.131,3.971,24.808-10.27,24.808-10.27
			s-8.023,1.509-13.93-0.624C120.375,23.014,131.368,20.307,139.474,7.477z"/>
		<g>
			<path class="st11" d="M177.628,87.196c-3.577-4.69-6.138-10.109-7.425-15.865c-4.728-21.14-18.667-38.263-36.845-45.909
				c-2.278,3.688-9.019,11.567-23.862,8.486c-6.986-1.45-11.62-3.743-14.688-6.069c-1.118-0.848-1.99-1.882-2.643-3.015
				C73.278,32.153,58.723,49.631,53.87,71.331c-1.287,5.756-3.848,11.175-7.425,15.865c-4.194,5.499-6.686,12.364-6.686,19.815
				c0,16.195,11.755,29.602,27.116,32.25c5.651,0.974,11.149,2.766,16.032,5.774c8.623,5.311,18.554,8.343,29.13,8.343
				c10.577,0,20.507-3.032,29.13-8.343c4.883-3.008,10.382-4.799,16.033-5.774c15.357-2.649,27.115-16.052,27.115-32.25
				C184.314,99.561,181.822,92.695,177.628,87.196z"/>
		</g>
		<path class="st11" d="M238.612,140.592c-11.545-8.12-27.934-5.968-39.944,1.446c-9.776,6.035-17.298,14.915-24.225,24.173
			c2.603,0.741,5.124,1.654,7.395,3.123c1.283,0.831,2.594,2.303,1.983,3.705c-0.277,0.635-0.894,1.055-1.526,1.34
			c-2.55,1.151-6.09,0.915-7.443,3.364c-0.24,0.434-0.385,0.927-0.709,1.301c-0.413,0.476-1.068,0.69-1.698,0.695
			c-2.222,0.016-3.596-2.045-5.215-3.713c-3.209,4.243-6.723,8.273-11.304,10.894c-3.705,2.12-8.313,3.053-12.432,2.267
			c-0.646,3.308-1.515,6.478-2.606,9.452c0.722,2.151,1.324,4.33,1.682,6.557c0.38,2.364,0.481,4.736,0.413,7.111
			c10.838,5.744,24.057,8.092,37.038,6.387c14.749-1.937,24.9-13.882,33.415-25.543c5.269-7.214,10.81-14.978,19.149-18.182
			c5.361-2.06,12.121-1.063,16.5,2.273c1.853,1.412,4.533,0.13,4.419-2.198C252.843,161.605,249.288,148.101,238.612,140.592z"/>
		<path class="st3" d="M123.198,116.237c0,3.427-5.722,8.273-11.162,8.273s-11.162-4.846-11.162-8.273s5.722-3.691,11.162-3.691
			S123.198,112.81,123.198,116.237z"/>
		<path class="st4" d="M190.839,2.513c-24.916-0.679-38.147,25.522-41.432,33.056c8.699,7.674,15.401,17.969,19.158,29.802
			c21.594-0.645,25.896-25.383,22.735-41.188c-1.749-8.743-0.075-14.064,1.925-17.154C194.46,5.12,193.112,2.575,190.839,2.513z"/>
		<path class="st4" d="M55.509,65.371c3.756-11.832,10.463-22.118,19.16-29.794c-3.28-7.524-16.511-33.743-41.435-33.063
			c-2.273,0.062-3.621,2.607-2.386,4.515c2,3.09,3.673,8.411,1.925,17.154C29.611,39.988,33.914,64.728,55.509,65.371z"/>
		<path class="st8" d="M190.839,2.513c-24.916-0.679-38.147,25.522-41.432,33.056c3.041,2.683,5.829,5.693,8.345,8.97
			c4.016-3.049,9.345-8.972,13.443-20.356c5.561-15.447,16.583-17.219,21.989-17.087c0.014-0.022,0.027-0.046,0.041-0.067
			C194.46,5.12,193.112,2.575,190.839,2.513z"/>
		<path class="st8" d="M52.878,24.183c4.098,11.382,9.425,17.305,13.441,20.354c2.514-3.277,5.31-6.277,8.35-8.96
			c-3.28-7.524-16.511-33.743-41.435-33.063c-2.273,0.062-3.621,2.607-2.386,4.515c0.014,0.021,0.027,0.045,0.041,0.067
			C36.295,6.963,47.317,8.736,52.878,24.183z"/>
		<path class="st8" d="M109.497,33.908c-2.844-0.59-5.279-1.325-7.397-2.139c0.231,24.268,4.59,43.619,9.936,43.619
			c5.194,0,9.455-18.265,9.906-41.557C118.627,34.72,114.539,34.955,109.497,33.908z"/>
		<path class="st8" d="M178.628,88.622c-0.327-0.48-0.649-0.964-1-1.425c-3.577-4.69-6.138-10.109-7.425-15.865
			c-3.469-15.511-11.909-28.841-23.332-37.87c1.315,6.257,1.025,12.851-0.927,18.942c-3.065,9.564-9.843,17.425-16.611,24.845
			c-2.198,2.409-4.433,4.831-6.032,7.673c-2.674,4.755-3.355,10.247-3.488,15.767c-0.054,2.231,2.187,3.788,4.239,2.911
			c5.251-2.245,11.78-1.826,17.707-1.542c6.091,0.291,12.278,0.22,18.17-1.353C167.218,98.757,173.807,94.416,178.628,88.622z"/>
		<path class="st8" d="M100.022,103.599c2.052,0.877,4.293-0.68,4.239-2.911c-0.133-5.519-0.814-11.012-3.488-15.767
			c-1.599-2.842-3.834-5.264-6.032-7.673c-6.768-7.42-13.546-15.281-16.611-24.845c-1.952-6.091-2.242-12.686-0.927-18.943
			C65.781,42.492,57.339,55.821,53.87,71.331c-1.287,5.756-3.848,11.175-7.425,15.865c-0.352,0.461-0.673,0.945-1,1.425
			c4.822,5.795,11.41,10.136,18.7,12.082c5.892,1.573,12.079,1.644,18.17,1.353C88.242,101.773,94.77,101.355,100.022,103.599z"/>
		<path class="st8" d="M238.612,140.592c-10.833-7.619-25.929-6.194-37.673,0.136c4.838,0.733,9.602,1.955,14.184,3.672
			c-2.571,2.281-4.893,4.842-6.914,7.622c3.794-0.008,7.588,0.689,11.132,2.044c-2.789,2.867-5.419,5.889-7.873,9.048
			c3.891-0.352,7.839-0.072,11.642,0.826c-3.473,2.827-6.503,6.197-8.945,9.951c5.417-0.311,10.887,0.447,16.031,2.171
			c0.773-0.401,1.564-0.775,2.389-1.092c5.361-2.06,12.121-1.063,16.5,2.273c1.853,1.412,4.533,0.13,4.419-2.198
			C252.843,161.605,249.288,148.101,238.612,140.592z"/>
		<path class="st7" d="M112.036,125.055v2.922c0,3.66,2.967,6.627,6.627,6.627h0c3.66,0,6.627-2.967,6.627-6.627"/>
		<path class="st7" d="M112.036,125.055v2.922c0,3.66-2.967,6.627-6.627,6.627h0c-3.66,0-6.627-2.967-6.627-6.627"/>
		<path class="st7" d="M123.198,116.237c0,3.427-5.722,8.273-11.162,8.273s-11.162-4.846-11.162-8.273s5.722-3.691,11.162-3.691
			S123.198,112.81,123.198,116.237z"/>
		<path class="st7" d="M190.839,2.513c-24.916-0.679-38.147,25.522-41.432,33.056c8.699,7.674,15.401,17.969,19.158,29.802
			c21.594-0.645,25.896-25.383,22.735-41.188c-1.749-8.743-0.075-14.064,1.925-17.154C194.46,5.12,193.112,2.575,190.839,2.513z"/>
		<path class="st7" d="M190.839,2.513c-24.916-0.679-38.147,25.522-41.432,33.056c3.041,2.683,5.829,5.693,8.345,8.97
			c4.016-3.049,9.345-8.972,13.443-20.356c5.561-15.447,16.583-17.219,21.989-17.087c0.014-0.022,0.027-0.046,0.041-0.067
			C194.46,5.12,193.112,2.575,190.839,2.513z"/>
		<path class="st7" d="M55.509,65.371c3.756-11.832,10.463-22.118,19.16-29.794c-3.28-7.524-16.511-33.743-41.435-33.063
			c-2.273,0.062-3.621,2.607-2.386,4.515c2,3.09,3.673,8.411,1.925,17.154C29.611,39.988,33.914,64.728,55.509,65.371z"/>
		<path class="st7" d="M52.878,24.183c4.098,11.382,9.425,17.305,13.441,20.354c2.514-3.277,5.31-6.277,8.35-8.96
			c-3.28-7.524-16.511-33.743-41.435-33.063c-2.273,0.062-3.621,2.607-2.386,4.515c0.014,0.021,0.027,0.045,0.041,0.067
			C36.295,6.963,47.317,8.736,52.878,24.183z"/>
		<path class="st7" d="M139.474,7.477c0,0-4.561,4.495-16.735,1.968c-9.559-1.984-20.726-4.302-28.426,2.441
			c-4.881,4.275-4.674,12.033,0.497,15.953c3.068,2.326,7.702,4.619,14.688,6.069c19.131,3.971,24.808-10.27,24.808-10.27
			s-8.023,1.509-13.93-0.624C120.375,23.014,131.368,20.307,139.474,7.477z"/>
		<g>
			<path class="st7" d="M177.628,87.196c-3.577-4.69-6.138-10.109-7.425-15.865c-4.728-21.14-18.667-38.263-36.845-45.909
				c-2.278,3.688-9.019,11.567-23.862,8.486c-6.986-1.45-11.62-3.743-14.688-6.069c-1.118-0.848-1.99-1.882-2.643-3.015
				C73.278,32.153,58.723,49.631,53.87,71.331c-1.287,5.756-3.848,11.175-7.425,15.865c-4.194,5.499-6.686,12.364-6.686,19.815
				c0,16.195,11.755,29.602,27.116,32.25c5.651,0.974,11.149,2.766,16.032,5.774c8.623,5.311,18.554,8.343,29.13,8.343
				c10.577,0,20.507-3.032,29.13-8.343c4.883-3.008,10.382-4.799,16.033-5.774c15.357-2.649,27.115-16.052,27.115-32.25
				C184.314,99.561,181.822,92.695,177.628,87.196z"/>
		</g>
		<path class="st7" d="M109.497,33.908c-2.844-0.59-5.279-1.325-7.397-2.139c0.231,24.268,4.59,43.619,9.936,43.619
			c5.194,0,9.455-18.265,9.906-41.557C118.627,34.72,114.539,34.955,109.497,33.908z"/>
		<path class="st7" d="M178.628,88.622c-0.327-0.48-0.649-0.964-1-1.425c-3.577-4.69-6.138-10.109-7.425-15.865
			c-3.469-15.511-11.909-28.841-23.332-37.87c1.315,6.257,1.025,12.851-0.927,18.942c-3.065,9.564-9.843,17.425-16.611,24.845
			c-2.198,2.409-4.433,4.831-6.032,7.673c-2.674,4.755-3.355,10.247-3.488,15.767c-0.054,2.231,2.187,3.788,4.239,2.911
			c5.251-2.245,11.78-1.826,17.707-1.542c6.091,0.291,12.278,0.22,18.17-1.353C167.218,98.757,173.807,94.416,178.628,88.622z"/>
		<path class="st7" d="M100.022,103.599c2.052,0.877,4.293-0.68,4.239-2.911c-0.133-5.519-0.814-11.012-3.488-15.767
			c-1.599-2.842-3.834-5.264-6.032-7.673c-6.768-7.42-13.546-15.281-16.611-24.845c-1.952-6.091-2.242-12.686-0.927-18.943
			C65.781,42.492,57.339,55.821,53.87,71.331c-1.287,5.756-3.848,11.175-7.425,15.865c-0.352,0.461-0.673,0.945-1,1.425
			c4.822,5.795,11.41,10.136,18.7,12.082c5.892,1.573,12.079,1.644,18.17,1.353C88.242,101.773,94.77,101.355,100.022,103.599z"/>
		<path class="st7" d="M79.291,92.388c-0.011-3.399,2.736-6.164,6.135-6.175c3.399-0.011,6.164,2.736,6.175,6.135"/>
		<path class="st7" d="M132.472,92.388c-0.011-3.399,2.736-6.164,6.135-6.175s6.164,2.736,6.175,6.135"/>
		<path class="st7" d="M112.036,153.378c-3.798,0-7.512-0.397-11.113-1.145c-4.045,5.51-6.636,13.956-6.636,23.432
			c0,16.602,7.946,30.061,17.748,30.061c9.802,0,17.749-13.459,17.749-30.061c0-9.476-2.591-17.922-6.636-23.432
			C119.548,152.981,115.835,153.378,112.036,153.378z"/>
		<path class="st7" d="M238.612,140.592c-10.833-7.619-25.929-6.194-37.673,0.136c4.838,0.733,9.602,1.955,14.184,3.672
			c-2.571,2.281-4.893,4.842-6.914,7.622c3.794-0.008,7.588,0.689,11.132,2.044c-2.789,2.867-5.419,5.889-7.873,9.048
			c3.891-0.352,7.839-0.072,11.642,0.826c-3.473,2.827-6.503,6.197-8.945,9.951c5.417-0.311,10.887,0.447,16.031,2.171
			c0.773-0.401,1.564-0.775,2.389-1.092c5.361-2.06,12.121-1.063,16.5,2.273c1.853,1.412,4.533,0.13,4.419-2.198
			C252.843,161.605,249.288,148.101,238.612,140.592z"/>
		<path class="st7" d="M238.612,140.592c-11.545-8.12-27.934-5.968-39.944,1.446c-9.776,6.035-17.298,14.915-24.225,24.173
			c2.603,0.741,5.124,1.654,7.395,3.123c1.283,0.831,2.594,2.303,1.983,3.705c-0.277,0.635-0.894,1.055-1.526,1.34
			c-2.55,1.151-6.09,0.915-7.443,3.364c-0.24,0.434-0.385,0.927-0.709,1.301c-0.413,0.476-1.068,0.69-1.698,0.695
			c-2.222,0.016-3.596-2.045-5.215-3.713c-3.209,4.243-6.723,8.273-11.304,10.894c-3.705,2.12-8.313,3.053-12.432,2.267
			c-0.646,3.308-1.515,6.478-2.606,9.452c0.722,2.151,1.324,4.33,1.682,6.557c0.38,2.364,0.481,4.736,0.413,7.111
			c10.838,5.744,24.057,8.092,37.038,6.387c14.749-1.937,24.9-13.882,33.415-25.543c5.269-7.214,10.81-14.978,19.149-18.182
			c5.361-2.06,12.121-1.063,16.5,2.273c1.853,1.412,4.533,0.13,4.419-2.198C252.843,161.605,249.288,148.101,238.612,140.592z"/>
		<path class="st7" d="M181.837,169.335c-5.237-3.389-11.803-3.823-17.649-5.997c-5.076-1.887-9.637-5.138-13.077-9.321
			c-2.696-3.277-4.739-7.117-7.362-10.418c-0.875,0.448-1.741,0.917-2.582,1.436c-8.623,5.311-18.554,8.343-29.13,8.343
			c-10.576,0-20.507-3.032-29.13-8.343c-0.841-0.518-1.707-0.988-2.582-1.436c-2.623,3.302-4.666,7.141-7.362,10.419
			c-3.44,4.183-8.001,7.434-13.077,9.321c-5.846,2.174-12.412,2.608-17.649,5.997c-1.283,0.831-2.594,2.303-1.984,3.705
			c0.277,0.635,0.894,1.055,1.526,1.34c2.55,1.151,6.09,0.915,7.443,3.364c0.24,0.434,0.385,0.927,0.709,1.301
			c0.413,0.476,1.068,0.69,1.698,0.695c2.897,0.021,4.35-3.491,6.788-5.057c1.079-0.693,2.356-0.992,3.598-1.313
			c6.221-1.609,12.155-4.061,17.945-6.863c-0.425,3.078-0.65,6.263-0.65,9.524c0,8.178,1.405,15.874,3.875,22.608
			c-0.722,2.151-1.324,4.33-1.682,6.557c-1.367,8.505,0.791,17.102,1.948,25.632c0.465,3.425,0.757,6.975-0.366,10.268
			c-0.802,2.353-2.481,4.559-4.725,5.822c-2.325,1.308-2.531,4.438-0.15,5.658c0.171,0.088,0.347,0.167,0.525,0.238
			c2.072,0.823,4.42,0.731,6.672,0.593c2.594-0.159,5.233-0.369,7.642-1.269c2.41-0.9,4.595-2.603,5.36-4.892
			c0.783-2.346-0.009-4.855-0.248-7.299c-0.265-2.707,0.161-5.427,0.586-8.117c0.579-3.667,1.159-7.333,1.738-11
			c3.592,1.983,7.483,3.077,11.549,3.077c4.067,0,7.957-1.093,11.55-3.077c0.579,3.667,1.159,7.333,1.738,11
			c0.425,2.69,0.851,5.41,0.586,8.117c-0.239,2.444-1.032,4.954-0.248,7.299c0.765,2.289,2.951,3.992,5.36,4.892
			c2.409,0.9,5.048,1.11,7.642,1.269c2.252,0.138,4.6,0.23,6.672-0.593c0.178-0.071,0.353-0.15,0.525-0.238
			c2.381-1.22,2.175-4.35-0.15-5.658c-2.244-1.263-3.923-3.469-4.725-5.822c-1.122-3.294-0.83-6.843-0.366-10.268
			c1.157-8.531,3.315-17.128,1.948-25.632c-0.358-2.228-0.96-4.407-1.682-6.557c2.471-6.734,3.875-14.43,3.875-22.608
			c0-3.262-0.225-6.446-0.65-9.524c5.791,2.802,11.725,5.254,17.945,6.863c1.242,0.321,2.519,0.62,3.598,1.313
			c2.438,1.565,3.891,5.078,6.788,5.057c0.63-0.005,1.285-0.218,1.698-0.695c0.324-0.374,0.47-0.867,0.709-1.301
			c1.353-2.449,4.893-2.213,7.443-3.364c0.632-0.285,1.249-0.705,1.526-1.34C184.43,171.638,183.12,170.166,181.837,169.335z"/>
		<path class="st7" d="M165.656,174.683c-1.079-0.693-2.356-0.992-3.598-1.313c-6.221-1.609-12.155-4.062-17.945-6.863
			c0.425,3.078,0.65,6.263,0.65,9.524c0,4.199-0.376,8.268-1.071,12.148c1.643-3.147,3.59-6.1,6.36-8.27
			c4.549-3.563,10.582-4.463,16.389-4.633C166.188,175.061,165.929,174.859,165.656,174.683z"/>
		<path class="st7" d="M79.311,176.032c0-3.262,0.225-6.446,0.65-9.524c-5.791,2.802-11.724,5.254-17.945,6.863
			c-1.242,0.321-2.519,0.62-3.598,1.313c-0.274,0.176-0.534,0.379-0.786,0.596c5.785,0.176,11.788,1.082,16.318,4.631
			c2.836,2.222,4.81,5.266,6.478,8.498C79.705,184.459,79.311,180.314,79.311,176.032z"/>
	</g>
</g>
<g id="Layer_67">
</g>
<g id="Layer_68">
</g>
<g id="Layer_69">
</g>
<g id="Layer_70">
</g>
<g id="Layer_71">
</g>
<g id="Layer_72">
</g>
<g id="Layer_73">
</g>
<g id="Layer_74">
</g>
<g id="Layer_75">
</g>
<g id="Layer_76">
</g>
<g id="Layer_77">
</g>
<g id="Layer_78">
</g>
<g id="Layer_79">
</g>
<g id="Layer_80">
</g>
<g id="Layer_81">
</g>
<g id="Layer_82">
</g>
<g id="Layer_83">
</g>
<g id="Layer_84">
</g>
<g id="Layer_85">
</g>
<g id="Layer_86">
</g>
<g id="Layer_87">
</g>
<g id="Layer_88">
</g>
<g id="Layer_89">
</g>
<g id="Layer_90">
</g>
<g id="Layer_91">
</g>
<g id="Layer_92">
</g>
<g id="Layer_93">
</g>
<g id="Layer_94">
</g>
<g id="Layer_95">
</g>
<g id="Layer_96">
</g>
<g id="Layer_97">
</g>
<g id="Layer_98">
</g>
<g id="Layer_99">
</g>
<g id="Layer_100">
</g>
</svg>
