<?xml version="1.0" encoding="utf-8"?>
<!-- Generator: Adobe Illustrator 22.0.0, SVG Export Plug-In . SVG Version: 6.00 Build 0)  -->
<svg version="1.1" xmlns="http://www.w3.org/2000/svg" xmlns:xlink="http://www.w3.org/1999/xlink" x="0px" y="0px"
	 viewBox="0 0 256 256" style="enable-background:new 0 0 256 256;" xml:space="preserve">
<style type="text/css">
	.st0{fill:#F9BD55;}
	.st1{fill:#F4DBCE;}
	.st2{fill:#52565B;}
	.st3{fill:#FD605B;}
	.st4{fill:#F98080;}
	.st5{fill:#F9E63A;}
	.st6{fill:#039BE6;}
	.st7{fill:none;stroke:#000000;stroke-width:5;stroke-linecap:round;stroke-linejoin:round;stroke-miterlimit:10;}
	.st8{fill:#7D3D1A;}
	.st9{fill:#EAA250;}
	.st10{fill:#DD7F57;}
	.st11{fill:#FFC097;}
	.st12{fill:#F49667;}
	.st13{fill:#F89422;}
	.st14{fill:#E3E4E5;}
	.st15{fill:#6E7175;}
	.st16{fill:#46BAF9;}
	.st17{fill:#D9F3FF;}
	.st18{fill:#828487;}
	.st19{fill:#A8AEB2;}
	.st20{fill:#C9CDD1;}
	.st21{fill:#8CD8F9;}
	.st22{fill:#1AA7E5;}
	.st23{fill:#ACE7FC;}
	.st24{fill:#FFFFFF;}
	.st25{fill:#9E512B;}
	.st26{fill:#7ED5FC;}
	.st27{fill:#7CCC4E;}
	.st28{fill:#3AA03A;}
	.st29{fill:#FCB1B1;}
	.st30{fill:#F76E23;}
	.st31{fill:#C16A44;}
	.st32{fill:#B796EA;}
</style>
<g id="Layer_1">
</g>
<g id="Layer_2">
</g>
<g id="Layer_3">
</g>
<g id="Layer_4">
</g>
<g id="Layer_5">
</g>
<g id="Layer_6">
	<g>
		<path class="st13" d="M198.316,235.004l11.267-26.693c15.293-42.919-2.454-51.994-20.671-51.817
			c1.828,22.015-1.075,48.161-15.846,74.176c-1.763,3.105-0.917,6.942,1.954,9.185c1.8,1.407,3.755,3.182,5.349,5.237
			c2.397,3.088,0.526,7.303-3.108,8.22l0.187,0.188h37.318c3.187-13.589-8.933-15.575-14.714-15.766
			C198.675,237.689,197.781,236.272,198.316,235.004z"/>
		<path class="st13" d="M75.631,245.092c1.595-2.055,3.549-3.83,5.349-5.237c2.871-2.243,3.717-6.08,1.954-9.185
			c-14.772-26.014-17.674-52.161-15.846-74.176c-18.216-0.177-35.963,8.898-20.671,51.817l11.267,26.693
			c0.535,1.268-0.36,2.685-1.735,2.731c-5.782,0.191-17.901,2.176-14.714,15.766h37.318l0.187-0.188
			C75.105,252.395,73.234,248.18,75.631,245.092z"/>
		<path class="st13" d="M172.957,35.069c6.787-1.349,16.574-4.869,19.039-14.046c3.869-14.41-20.878-23.782-23.154-15.305
			c-1.878,6.992-9.518,12.432-12.138,14.124C163.102,23.763,168.635,28.957,172.957,35.069z"/>
		<path class="st13" d="M83.043,35.069c4.322-6.113,9.854-11.307,16.253-15.228c-2.62-1.692-10.26-7.132-12.138-14.124
			c-2.276-8.477-27.024,0.895-23.154,15.305C66.469,30.2,76.256,33.72,83.043,35.069z"/>
		<g>
			<path class="st13" d="M200.639,76.83c0,0-4.24-0.012-11.081-5.605l5.629-7.112c0,0-6.089-0.019-13.626-10.01
				c-5.742-24.271-27.534-42.336-53.56-42.336S80.182,29.832,74.44,54.103c-7.537,9.991-13.626,10.01-13.626,10.01l5.629,7.112
				c-6.842,5.593-11.081,5.605-11.081,5.605c4.427,8.822,14.206,11.782,14.206,11.782l-9.856,3.363
				c7.901,16.476,18.147,27.059,37.36,27.951c-3.167-5.098-2.719-11.724,0.877-16.603c4.116-5.586,11.414-7.685,17.81-5.278
				c-0.956,0.652-1.531,1.525-1.531,2.716c0,4.228,7.061,10.208,13.772,10.208c6.711,0,13.772-5.979,13.772-10.208
				c0-1.191-0.575-2.064-1.531-2.716c6.396-2.407,13.694-0.308,17.81,5.278l0,0c3.595,4.88,4.044,11.505,0.877,16.603
				c19.213-0.892,29.459-11.475,37.36-27.951l-9.856-3.363C186.432,88.612,196.212,85.653,200.639,76.83z"/>
		</g>
		<path class="st13" d="M175.019,239.855c-2.871-2.243-3.717-6.08-1.954-9.185c26.584-46.817,14.746-94.064,6.029-116.862
			c-5.439,3.598-11.988,5.739-20.166,6.119l0,0c-0.14,0.225-0.277,0.452-0.431,0.671c-2.589,3.678-6.575,5.824-10.766,6.156
			c0.646-0.046,1.287-0.133,1.92-0.263c-3.799,8.146-12.057,13.794-21.638,13.794c-9.591,0-17.854-5.66-21.648-13.819
			c-3.473-0.746-6.67-2.752-8.863-5.868c-0.154-0.219-0.291-0.445-0.431-0.671c-8.179-0.38-14.728-2.521-20.168-6.12
			c-8.717,22.802-20.55,70.053,6.03,116.863c1.763,3.105,0.917,6.942-1.954,9.185c-1.8,1.407-3.755,3.182-5.349,5.237
			c-2.703,3.483,0.016,8.408,4.579,8.408h26.44c3.05,0,5.446-2.278,5.606-5.033c4.898,1.758,10.196,2.743,15.744,2.743
			c5.548,0,10.846-0.984,15.744-2.743c0-0.004,0-0.007,0-0.011c0.155,2.76,2.552,5.044,5.606,5.044h26.44
			c4.562,0,7.282-4.925,4.579-8.408C178.774,243.037,176.819,241.262,175.019,239.855z"/>
		<path class="st13" d="M233.357,101.08c10.193-2.987,5.855-18.953-4.397-15.949c-32.833,9.62-45.032,36.126-21.889,58.945
			c6.63,6.537,16.675,13.026,10.153,27.997c-0.609,1.398-1.334,2.711-2.139,3.96c0.803,6.33-0.038,14.557-3.189,25.19
			c5.119-3.217,9.832-7.013,13.754-11.761c8.345-10.103,12.899-24.576,8.252-37.316c-5.093-13.965-17.051-18.786-21.133-27.038
			C206.335,112.104,223.747,103.896,233.357,101.08z"/>
		<path class="st8" d="M141.772,100.762c0,4.228-7.061,10.208-13.772,10.208c-6.711,0-13.772-5.979-13.772-10.208
			c0-4.228,7.061-4.554,13.772-4.554C134.711,96.208,141.772,96.534,141.772,100.762z"/>
		<path class="st1" d="M158.052,103.324L158.052,103.324c-4.116-5.586-11.414-7.685-17.81-5.278
			c0.955,0.652,1.531,1.525,1.531,2.716c0,4.228-7.061,10.208-13.772,10.208s-13.772-5.979-13.772-10.208
			c0-1.191,0.575-2.064,1.531-2.716c-6.396-2.407-13.694-0.308-17.81,5.278c-3.754,5.095-4.089,12.098-0.446,17.274
			c3.768,5.353,10.493,7.46,16.507,5.455l13.99-4.663l13.99,4.663c6.015,2.005,12.739-0.102,16.507-5.455
			C162.14,115.422,161.806,108.419,158.052,103.324z"/>
		<g>
			<path class="st1" d="M142.134,126.053l-13.99-4.663l-13.99,4.663c-2.568,0.856-5.263,0.956-7.804,0.381
				c3.787,8.177,12.06,13.851,21.664,13.851c9.581,0,17.839-5.648,21.638-13.794C147.194,126.995,144.605,126.876,142.134,126.053z"
				/>
		</g>
		<path class="st1" d="M144.913,133.263c-4.32,4.336-10.295,7.022-16.9,7.022c-6.614,0-12.595-2.693-16.915-7.039
			c-5.52,8.894-9.02,22.056-9.02,36.755c0,26.786,11.606,48.5,25.922,48.5s25.922-21.714,25.922-48.5
			C153.922,155.311,150.427,142.156,144.913,133.263z"/>
		<path class="st1" d="M200.051,237.734c-0.648-0.021-1.181-0.352-1.517-0.823c-6.879,2.147-9.617,7.067-17.535,0.589
			c-3.556-2.909-6.629-2.502-8.617-1.614c0.395,1.513,1.29,2.917,2.636,3.969c1.8,1.406,3.755,3.182,5.349,5.237
			c2.397,3.088,0.526,7.303-3.108,8.22l0.187,0.188h37.318C217.952,239.911,205.833,237.925,200.051,237.734z"/>
		<path class="st1" d="M78.739,253.312c-3.635-0.917-5.505-5.132-3.108-8.22c1.595-2.055,3.549-3.83,5.349-5.237
			c1.346-1.052,2.241-2.456,2.636-3.969c-1.988-0.888-5.061-1.295-8.617,1.614c-7.918,6.478-10.655,1.558-17.535-0.589
			c-0.336,0.471-0.869,0.802-1.517,0.823c-5.782,0.191-17.901,2.176-14.714,15.766h37.318L78.739,253.312z"/>
		<path class="st1" d="M109.298,238.084c-6.55-0.379-9.928,4.759-16.798-0.584c-2.829-2.2-6.126-2.682-8.693-2.624
			c-0.208,1.891-1.184,3.695-2.826,4.979c-1.8,1.407-3.755,3.182-5.349,5.237c-2.703,3.483,0.016,8.408,4.579,8.408h26.44
			c3.05,0,5.446-2.278,5.606-5.033C112.435,245.382,109.968,240.614,109.298,238.084z"/>
		<path class="st1" d="M180.369,245.092c-1.595-2.055-3.549-3.83-5.349-5.237c-1.64-1.282-2.616-3.084-2.825-4.972
			c-2.389,0.085-5.221,0.694-7.694,2.617c-7.22,5.616-10.583-0.346-17.824,0.687c-0.322,1.193-0.743,2.363-1.261,3.501
			c-1.653,3.633-1.747,7.194-1.671,6.767c0.155,2.76,2.552,5.044,5.606,5.044h26.44C180.352,253.5,183.072,248.575,180.369,245.092z
			"/>
		<path class="st2" d="M149.959,20.339c-3.364-3.542-7.389-6.074-11.698-7.605c-3.325-0.627-6.753-0.966-10.261-0.966
			c-3.311,0-6.553,0.296-9.702,0.856c-4.204,1.445-8.151,3.845-11.499,7.206l-5.907,5.931c28.946-11.47,53.554-0.124,54.215,0
			L149.959,20.339z"/>
		<path class="st2" d="M146.593,34.499c-9.867-8.611-26.432-8.773-36.544-0.357l-5.001,4.162c24.64-8.093,45.274-0.098,45.905,0
			L146.593,34.499z"/>
		<path class="st2" d="M69.118,220.848c0.939-0.386,0.697-1.774-0.316-1.825c-4.122-0.208-10.841-0.821-19.011-2.719l3.732,8.841
			c4.035-0.293,8.005-1.172,11.741-2.71L69.118,220.848z"/>
		<path class="st2" d="M45.418,205.378c3.476-0.079,6.923-0.637,10.219-1.737l3.628-1.21c0.883-0.295,0.75-1.58-0.175-1.691
			c-3.555-0.424-9.219-1.331-16.047-3.33C43.689,199.915,44.485,202.576,45.418,205.378z"/>
		<path class="st2" d="M42.126,170.637c-1.111,3.257-1.653,7.202-1.463,11.96c7.134,2.851,14.83,4.113,22.404,3.292l4.656-0.504
			c-0.109-0.828-0.211-1.654-0.303-2.476C61.782,180.912,52.551,177.135,42.126,170.637z"/>
		<path class="st2" d="M187.198,219.023c-1.014,0.051-1.255,1.439-0.316,1.825l3.855,1.586c3.736,1.538,7.706,2.417,11.741,2.71
			l3.732-8.841C198.039,218.201,191.32,218.815,187.198,219.023z"/>
		<path class="st2" d="M196.91,200.74c-0.925,0.11-1.059,1.396-0.175,1.691l3.628,1.21c3.296,1.1,6.743,1.658,10.219,1.737
			c0.933-2.802,1.729-5.463,2.375-7.968C206.13,199.41,200.466,200.316,196.91,200.74z"/>
		<path class="st2" d="M188.277,185.384l4.656,0.504c7.574,0.821,15.27-0.441,22.404-3.292c0.189-4.757-0.352-8.703-1.463-11.96
			c-10.425,6.498-19.655,10.275-25.293,12.271C188.488,183.731,188.386,184.556,188.277,185.384z"/>
		<path class="st2" d="M142.792,49.157c-7.85-7.813-21.029-7.96-29.074-0.324l-3.979,3.776c19.563-7.328,36.038-0.086,36.521,0
			L142.792,49.157z"/>
		<path class="st2" d="M75.201,214.427c5.261,0.243,10.526-0.552,15.366-2.544l3.537-1.456c0.861-0.354,0.64-1.628-0.29-1.675
			c-4.497-0.227-12.37-0.984-21.839-3.621C72.905,208.214,73.982,211.315,75.201,214.427z"/>
		<path class="st2" d="M68.575,190.875c6.323,1.553,12.959,1.6,19.143-0.221l3.669-1.08c0.893-0.263,0.805-1.552-0.115-1.696
			c-4.883-0.76-13.737-2.572-24.051-6.977C67.538,184.183,67.98,187.509,68.575,190.875z"/>
		<path class="st2" d="M66.626,165.909c7.375,2.138,15.286,2.248,22.465-0.195l3.621-1.232c0.882-0.3,0.74-1.585-0.185-1.689
			c-5.082-0.576-14.464-2.105-25.428-6.402C66.839,159.485,66.678,162.663,66.626,165.909z"/>
		<path class="st2" d="M69.077,141.642c6.207,1.466,12.7,1.478,18.761-0.302l3.669-1.078c0.894-0.263,0.806-1.552-0.114-1.696
			c-4.307-0.674-11.704-2.167-20.465-5.538C70.26,135.776,69.631,138.645,69.077,141.642z"/>
		<path class="st2" d="M188.902,156.391c-10.964,4.297-20.346,5.826-25.428,6.402c-0.925,0.105-1.067,1.389-0.185,1.689l3.621,1.232
			c7.18,2.443,15.091,2.333,22.466,0.194C189.323,162.662,189.161,159.485,188.902,156.391z"/>
		<path class="st2" d="M185.071,133.029c-8.761,3.371-16.158,4.864-20.465,5.537c-0.92,0.144-1.007,1.433-0.114,1.696l3.669,1.078
			c6.061,1.781,12.555,1.768,18.761,0.302C186.369,138.645,185.74,135.776,185.071,133.029z"/>
		<path class="st2" d="M164.728,187.878c-0.92,0.143-1.008,1.433-0.115,1.696l3.669,1.08c6.185,1.821,12.821,1.774,19.144,0.221
			c0.596-3.367,1.037-6.693,1.354-9.974C178.465,185.307,169.611,187.118,164.728,187.878z"/>
		<path class="st2" d="M162.187,208.753c-0.93,0.047-1.152,1.32-0.29,1.675l3.537,1.456c4.84,1.992,10.105,2.788,15.366,2.544
			c1.219-3.112,2.296-6.213,3.227-9.296C174.557,207.768,166.684,208.526,162.187,208.753z"/>
		<path class="st2" d="M196.194,112.104c4.82,2.647,10.069,4.432,15.457,5.12c0.454-1.947,1.453-3.733,2.809-5.36
			c-3.966-2.198-8.671-5.11-13.693-8.869C198.668,105.866,197.125,108.921,196.194,112.104z"/>
		<path class="st2" d="M214.776,128.23c-4.485,2.392-9.392,4.836-14.692,7.251c1.705,2.73,3.88,5.442,6.519,8.108
			c5.361-2.359,10.486-5.127,15.183-8.216C219.163,132.9,216.668,130.652,214.776,128.23z"/>
		<path class="st2" d="M217.952,170.229c6.221-0.845,12.268-2.703,17.757-5.579c0.143-2.843-0.075-5.693-0.677-8.495
			c-4.758,0.768-10.343,1.418-16.585,1.696C219.642,161.223,219.76,165.228,217.952,170.229z"/>
		<path class="st2" d="M215.141,175.938c-0.02,0.031-0.037,0.064-0.056,0.095c0.466,3.67,0.357,8.001-0.413,13.045
			c2.731,1.274,5.563,2.337,8.461,3.177c0.867-0.897,1.712-1.82,2.516-2.794c2.069-2.505,3.904-5.28,5.425-8.23
			C226.025,179.875,220.674,178.147,215.141,175.938z"/>
		<path class="st2" d="M228.96,85.131c-3.903,1.144-7.505,2.533-10.8,4.119l8.092,14.45c2.521-1.128,5-2.003,7.105-2.62
			C243.551,98.094,239.213,82.127,228.96,85.131z"/>
		<path class="st7" d="M198.316,235.004l11.267-26.693c15.293-42.919-2.454-51.994-20.671-51.817
			c1.828,22.015-1.075,48.161-15.846,74.176c-1.763,3.105-0.917,6.942,1.954,9.185c1.8,1.407,3.755,3.182,5.349,5.237
			c2.397,3.088,0.526,7.303-3.108,8.22l0.187,0.188h37.318c3.187-13.589-8.933-15.575-14.714-15.766
			C198.675,237.689,197.781,236.272,198.316,235.004z"/>
		<path class="st7" d="M75.631,245.092c1.595-2.055,3.549-3.83,5.349-5.237c2.871-2.243,3.717-6.08,1.954-9.185
			c-14.772-26.014-17.674-52.161-15.846-74.176c-18.216-0.177-35.963,8.898-20.671,51.817l11.267,26.693
			c0.535,1.268-0.36,2.685-1.735,2.731c-5.782,0.191-17.901,2.176-14.714,15.766h37.318l0.187-0.188
			C75.105,252.395,73.234,248.18,75.631,245.092z"/>
		<path class="st7" d="M108.614,202.667v30.348c0,2.992,0.721,5.927,1.971,8.674c0.784,1.724,1.286,3.74,1.607,5.613
			c0.068,0.395,0.086,0.784,0.064,1.165"/>
		<path class="st7" d="M143.744,248.467c-0.022-0.381-0.003-0.771,0.064-1.165c0.321-1.873,0.822-3.889,1.607-5.613
			c1.25-2.747,1.971-5.682,1.971-8.674v-30.348"/>
		<path class="st7" d="M141.772,100.762c0,4.228-7.061,10.208-13.772,10.208c-6.711,0-13.772-5.979-13.772-10.208
			c0-4.228,7.061-4.554,13.772-4.554C134.711,96.208,141.772,96.534,141.772,100.762z"/>
		<line class="st7" x1="128" y1="121.299" x2="128" y2="112.619"/>
		<path class="st7" d="M118.176,67.432c0,0,7.594,14.268,0,28.536"/>
		<path class="st7" d="M137.824,67.432c0,0-7.594,14.268,0,28.536"/>
		<path class="st7" d="M96.718,70.443c-0.01-3.232,2.601-5.861,5.833-5.871c3.232-0.01,5.861,2.601,5.871,5.833"/>
		<path class="st7" d="M147.578,70.443c-0.01-3.232,2.601-5.861,5.833-5.871c3.232-0.01,5.861,2.601,5.871,5.833"/>
		<path class="st7" d="M172.957,35.069c6.787-1.349,16.574-4.869,19.039-14.046c3.869-14.41-20.878-23.782-23.154-15.305
			c-1.878,6.992-9.518,12.432-12.138,14.124C163.102,23.763,168.635,28.957,172.957,35.069z"/>
		<path class="st7" d="M83.043,35.069c4.322-6.113,9.854-11.307,16.253-15.228c-2.62-1.692-10.26-7.132-12.138-14.124
			c-2.276-8.477-27.024,0.895-23.154,15.305C66.469,30.2,76.256,33.72,83.043,35.069z"/>
		<path class="st7" d="M177.124,75.733c0,0,6.68,23.574-15.646,36.197"/>
		<path class="st7" d="M78.876,75.733c0,0-6.68,23.574,15.646,36.197"/>
		<g>
			<path class="st7" d="M200.639,76.83c0,0-4.24-0.012-11.081-5.605l5.629-7.112c0,0-6.089-0.019-13.626-10.01
				c-5.742-24.271-27.534-42.336-53.56-42.336S80.182,29.832,74.44,54.103c-7.537,9.991-13.626,10.01-13.626,10.01l5.629,7.112
				c-6.842,5.593-11.081,5.605-11.081,5.605c4.427,8.822,14.206,11.782,14.206,11.782l-9.856,3.363
				c7.901,16.476,18.147,27.059,37.36,27.951c-3.167-5.098-2.719-11.724,0.877-16.603c4.116-5.586,11.414-7.685,17.81-5.278
				c-0.956,0.652-1.531,1.525-1.531,2.716c0,4.228,7.061,10.208,13.772,10.208c6.711,0,13.772-5.979,13.772-10.208
				c0-1.191-0.575-2.064-1.531-2.716c6.396-2.407,13.694-0.308,17.81,5.278l0,0c3.595,4.88,4.044,11.505,0.877,16.603
				c19.213-0.892,29.459-11.475,37.36-27.951l-9.856-3.363C186.432,88.612,196.212,85.653,200.639,76.83z"/>
		</g>
		<path class="st7" d="M149.959,20.339c-3.364-3.542-7.389-6.074-11.698-7.605c-3.325-0.627-6.753-0.966-10.261-0.966
			c-3.311,0-6.553,0.296-9.702,0.856c-4.204,1.445-8.151,3.845-11.499,7.206l-5.907,5.931c28.946-11.47,53.554-0.124,54.215,0
			L149.959,20.339z"/>
		<path class="st7" d="M146.593,34.499c-9.867-8.611-26.432-8.773-36.544-0.357l-5.001,4.162c24.64-8.093,45.274-0.098,45.905,0
			L146.593,34.499z"/>
		<path class="st7" d="M69.118,220.848c0.939-0.386,0.697-1.774-0.316-1.825c-4.122-0.208-10.841-0.821-19.011-2.719l3.732,8.841
			c4.035-0.293,8.005-1.172,11.741-2.71L69.118,220.848z"/>
		<path class="st7" d="M45.418,205.378c3.476-0.079,6.923-0.637,10.219-1.737l3.628-1.21c0.883-0.295,0.75-1.58-0.175-1.691
			c-3.555-0.424-9.219-1.331-16.047-3.33C43.689,199.915,44.485,202.576,45.418,205.378z"/>
		<path class="st7" d="M42.126,170.637c-1.111,3.257-1.653,7.202-1.463,11.96c7.134,2.851,14.83,4.113,22.404,3.292l4.656-0.504
			c-0.109-0.828-0.211-1.654-0.303-2.476C61.782,180.912,52.551,177.135,42.126,170.637z"/>
		<path class="st7" d="M187.198,219.023c-1.014,0.051-1.255,1.439-0.316,1.825l3.855,1.586c3.736,1.538,7.706,2.417,11.741,2.71
			l3.732-8.841C198.039,218.201,191.32,218.815,187.198,219.023z"/>
		<path class="st7" d="M196.91,200.74c-0.925,0.11-1.059,1.396-0.175,1.691l3.628,1.21c3.296,1.1,6.743,1.658,10.219,1.737
			c0.933-2.802,1.729-5.463,2.375-7.968C206.13,199.41,200.466,200.316,196.91,200.74z"/>
		<path class="st7" d="M188.277,185.384l4.656,0.504c7.574,0.821,15.27-0.441,22.404-3.292c0.189-4.757-0.352-8.703-1.463-11.96
			c-10.425,6.498-19.655,10.275-25.293,12.271C188.488,183.731,188.386,184.556,188.277,185.384z"/>
		<path class="st7" d="M142.792,49.157c-7.85-7.813-21.029-7.96-29.074-0.324l-3.979,3.776c19.563-7.328,36.038-0.086,36.521,0
			L142.792,49.157z"/>
		<line class="st7" x1="148.42" y1="107.195" x2="158.184" y2="103.94"/>
		<line class="st7" x1="149.504" y1="115.874" x2="159.269" y2="116.959"/>
		<line class="st7" x1="108.278" y1="107.195" x2="98.514" y2="103.94"/>
		<line class="st7" x1="107.193" y1="115.874" x2="97.429" y2="116.959"/>
		<path class="st7" d="M175.019,239.855c-2.871-2.243-3.717-6.08-1.954-9.185c26.584-46.817,14.746-94.064,6.029-116.862
			c-5.439,3.598-11.988,5.739-20.166,6.119l0,0c-0.14,0.225-0.277,0.452-0.431,0.671c-2.589,3.678-6.575,5.824-10.766,6.156
			c0.646-0.046,1.287-0.133,1.92-0.263c-3.799,8.146-12.057,13.794-21.638,13.794c-9.591,0-17.854-5.66-21.648-13.819
			c-3.473-0.746-6.67-2.752-8.863-5.868c-0.154-0.219-0.291-0.445-0.431-0.671c-8.179-0.38-14.728-2.521-20.168-6.12
			c-8.717,22.802-20.55,70.053,6.03,116.863c1.763,3.105,0.917,6.942-1.954,9.185c-1.8,1.407-3.755,3.182-5.349,5.237
			c-2.703,3.483,0.016,8.408,4.579,8.408h26.44c3.05,0,5.446-2.278,5.606-5.033c4.898,1.758,10.196,2.743,15.744,2.743
			c5.548,0,10.846-0.984,15.744-2.743c0-0.004,0-0.007,0-0.011c0.155,2.76,2.552,5.044,5.606,5.044h26.44
			c4.562,0,7.282-4.925,4.579-8.408C178.774,243.037,176.819,241.262,175.019,239.855z"/>
		<path class="st7" d="M75.201,214.427c5.261,0.243,10.526-0.552,15.366-2.544l3.537-1.456c0.861-0.354,0.64-1.628-0.29-1.675
			c-4.497-0.227-12.37-0.984-21.839-3.621C72.905,208.214,73.982,211.315,75.201,214.427z"/>
		<path class="st7" d="M68.575,190.875c6.323,1.553,12.959,1.6,19.143-0.221l3.669-1.08c0.893-0.263,0.805-1.552-0.115-1.696
			c-4.883-0.76-13.737-2.572-24.051-6.977C67.538,184.183,67.98,187.509,68.575,190.875z"/>
		<path class="st7" d="M66.626,165.909c7.375,2.138,15.286,2.248,22.465-0.195l3.621-1.232c0.882-0.3,0.74-1.585-0.185-1.689
			c-5.082-0.576-14.464-2.105-25.428-6.402C66.839,159.485,66.678,162.663,66.626,165.909z"/>
		<path class="st7" d="M69.077,141.642c6.207,1.466,12.7,1.478,18.761-0.302l3.669-1.078c0.894-0.263,0.806-1.552-0.114-1.696
			c-4.307-0.674-11.704-2.167-20.465-5.538C70.26,135.776,69.631,138.645,69.077,141.642z"/>
		<path class="st7" d="M188.902,156.391c-10.964,4.297-20.346,5.826-25.428,6.402c-0.925,0.105-1.067,1.389-0.185,1.689l3.621,1.232
			c7.18,2.443,15.091,2.333,22.466,0.194C189.323,162.662,189.161,159.485,188.902,156.391z"/>
		<path class="st7" d="M185.071,133.029c-8.761,3.371-16.158,4.864-20.465,5.537c-0.92,0.144-1.007,1.433-0.114,1.696l3.669,1.078
			c6.061,1.781,12.555,1.768,18.761,0.302C186.369,138.645,185.74,135.776,185.071,133.029z"/>
		<path class="st7" d="M164.728,187.878c-0.92,0.143-1.008,1.433-0.115,1.696l3.669,1.08c6.185,1.821,12.821,1.774,19.144,0.221
			c0.596-3.367,1.037-6.693,1.354-9.974C178.465,185.307,169.611,187.118,164.728,187.878z"/>
		<path class="st7" d="M162.187,208.753c-0.93,0.047-1.152,1.32-0.29,1.675l3.537,1.456c4.84,1.992,10.105,2.788,15.366,2.544
			c1.219-3.112,2.296-6.213,3.227-9.296C174.557,207.768,166.684,208.526,162.187,208.753z"/>
		<path class="st7" d="M233.357,101.08c10.193-2.987,5.855-18.953-4.397-15.949c-32.833,9.62-45.032,36.126-21.889,58.945
			c6.63,6.537,16.675,13.026,10.153,27.997c-0.609,1.398-1.334,2.711-2.139,3.96c0.803,6.33-0.038,14.557-3.189,25.19
			c5.119-3.217,9.832-7.013,13.754-11.761c8.345-10.103,12.899-24.576,8.252-37.316c-5.093-13.965-17.051-18.786-21.133-27.038
			C206.335,112.104,223.747,103.896,233.357,101.08z"/>
		<path class="st7" d="M196.194,112.104c4.82,2.647,10.069,4.432,15.457,5.12c0.454-1.947,1.453-3.733,2.809-5.36
			c-3.966-2.198-8.671-5.11-13.693-8.869C198.668,105.866,197.125,108.921,196.194,112.104z"/>
		<path class="st7" d="M214.776,128.23c-4.485,2.392-9.392,4.836-14.692,7.251c1.705,2.73,3.88,5.442,6.519,8.108
			c5.361-2.359,10.486-5.127,15.183-8.216C219.163,132.9,216.668,130.652,214.776,128.23z"/>
		<path class="st7" d="M217.952,170.229c6.221-0.845,12.268-2.703,17.757-5.579c0.143-2.843-0.075-5.693-0.677-8.495
			c-4.758,0.768-10.343,1.418-16.585,1.696C219.642,161.223,219.76,165.228,217.952,170.229z"/>
		<path class="st7" d="M215.141,175.938c-0.02,0.031-0.037,0.064-0.056,0.095c0.466,3.67,0.357,8.001-0.413,13.045
			c2.731,1.274,5.563,2.337,8.461,3.177c0.867-0.897,1.712-1.82,2.516-2.794c2.069-2.505,3.904-5.28,5.425-8.23
			C226.025,179.875,220.674,178.147,215.141,175.938z"/>
		<path class="st7" d="M228.96,85.131c-3.903,1.144-7.505,2.533-10.8,4.119l8.092,14.45c2.521-1.128,5-2.003,7.105-2.62
			C243.551,98.094,239.213,82.127,228.96,85.131z"/>
		<path class="st7" d="M158.052,103.324L158.052,103.324c-4.116-5.586-11.414-7.685-17.81-5.278
			c0.955,0.652,1.531,1.525,1.531,2.716c0,4.228-7.061,10.208-13.772,10.208s-13.772-5.979-13.772-10.208
			c0-1.191,0.575-2.064,1.531-2.716c-6.396-2.407-13.694-0.308-17.81,5.278c-3.754,5.095-4.089,12.098-0.446,17.274
			c3.768,5.353,10.493,7.46,16.507,5.455l13.99-4.663l13.99,4.663c6.015,2.005,12.739-0.102,16.507-5.455
			C162.14,115.422,161.806,108.419,158.052,103.324z"/>
		<g>
			<path class="st7" d="M142.134,126.053l-13.99-4.663l-13.99,4.663c-2.568,0.856-5.263,0.956-7.804,0.381
				c3.787,8.177,12.06,13.851,21.664,13.851c9.581,0,17.839-5.648,21.638-13.794C147.194,126.995,144.605,126.876,142.134,126.053z"
				/>
		</g>
		<path class="st7" d="M144.913,133.263c-4.32,4.336-10.295,7.022-16.9,7.022c-6.614,0-12.595-2.693-16.915-7.039
			c-5.52,8.894-9.02,22.056-9.02,36.755c0,26.786,11.606,48.5,25.922,48.5s25.922-21.714,25.922-48.5
			C153.922,155.311,150.427,142.156,144.913,133.263z"/>
		<path class="st7" d="M200.051,237.734c-0.648-0.021-1.181-0.352-1.517-0.823c-6.879,2.147-9.617,7.067-17.535,0.589
			c-3.556-2.909-6.629-2.502-8.617-1.614c0.395,1.513,1.29,2.917,2.636,3.969c1.8,1.406,3.755,3.182,5.349,5.237
			c2.397,3.088,0.526,7.303-3.108,8.22l0.187,0.188h37.318C217.952,239.911,205.833,237.925,200.051,237.734z"/>
		<path class="st7" d="M78.739,253.312c-3.635-0.917-5.505-5.132-3.108-8.22c1.595-2.055,3.549-3.83,5.349-5.237
			c1.346-1.052,2.241-2.456,2.636-3.969c-1.988-0.888-5.061-1.295-8.617,1.614c-7.918,6.478-10.655,1.558-17.535-0.589
			c-0.336,0.471-0.869,0.802-1.517,0.823c-5.782,0.191-17.901,2.176-14.714,15.766h37.318L78.739,253.312z"/>
		<path class="st7" d="M109.298,238.084c-6.55-0.379-9.928,4.759-16.798-0.584c-2.829-2.2-6.126-2.682-8.693-2.624
			c-0.208,1.891-1.184,3.695-2.826,4.979c-1.8,1.407-3.755,3.182-5.349,5.237c-2.703,3.483,0.016,8.408,4.579,8.408h26.44
			c3.05,0,5.446-2.278,5.606-5.033C112.435,245.382,109.968,240.614,109.298,238.084z"/>
		<path class="st7" d="M180.369,245.092c-1.595-2.055-3.549-3.83-5.349-5.237c-1.64-1.282-2.616-3.084-2.825-4.972
			c-2.389,0.085-5.221,0.694-7.694,2.617c-7.22,5.616-10.583-0.346-17.824,0.687c-0.322,1.193-0.743,2.363-1.261,3.501
			c-1.653,3.633-1.747,7.194-1.671,6.767c0.155,2.76,2.552,5.044,5.606,5.044h26.44C180.352,253.5,183.072,248.575,180.369,245.092z
			"/>
	</g>
</g>
<g id="Layer_7">
</g>
<g id="Layer_8">
</g>
<g id="Layer_9">
</g>
<g id="Layer_10">
</g>
<g id="Layer_11">
</g>
<g id="Layer_12">
</g>
<g id="Layer_13">
</g>
<g id="Layer_14">
</g>
<g id="Layer_15">
</g>
<g id="Layer_16">
</g>
<g id="Layer_17">
</g>
<g id="Layer_18">
</g>
<g id="Layer_19">
</g>
<g id="Layer_20">
</g>
<g id="Layer_21">
</g>
<g id="Layer_22">
</g>
<g id="Layer_23">
</g>
<g id="Layer_24">
</g>
<g id="Layer_25">
</g>
<g id="Layer_26">
</g>
<g id="Layer_27">
</g>
<g id="Layer_28">
</g>
<g id="Layer_29">
</g>
<g id="Layer_30">
</g>
<g id="Layer_31">
</g>
<g id="Layer_32">
</g>
<g id="Layer_33">
</g>
<g id="Layer_34">
</g>
<g id="Layer_35">
</g>
<g id="Layer_36">
</g>
<g id="Layer_37">
</g>
<g id="Layer_38">
</g>
<g id="Layer_39">
</g>
<g id="Layer_40">
</g>
<g id="Layer_41">
</g>
<g id="Layer_42">
</g>
<g id="Layer_43">
</g>
<g id="Layer_44">
</g>
<g id="Layer_45">
</g>
<g id="Layer_46">
</g>
<g id="Layer_47">
</g>
<g id="Layer_48">
</g>
<g id="Layer_49">
</g>
<g id="Layer_50">
</g>
<g id="Layer_51">
</g>
<g id="Layer_52">
</g>
<g id="Layer_53">
</g>
<g id="Layer_54">
</g>
<g id="Layer_55">
</g>
<g id="Layer_56">
</g>
<g id="Layer_57">
</g>
<g id="Layer_58">
</g>
<g id="Layer_59">
</g>
<g id="Layer_60">
</g>
<g id="Layer_61">
</g>
<g id="Layer_62">
</g>
<g id="Layer_63">
</g>
<g id="Layer_64">
</g>
<g id="Layer_65">
</g>
<g id="Layer_66">
</g>
<g id="Layer_67">
</g>
<g id="Layer_68">
</g>
<g id="Layer_69">
</g>
<g id="Layer_70">
</g>
<g id="Layer_71">
</g>
<g id="Layer_72">
</g>
<g id="Layer_73">
</g>
<g id="Layer_74">
</g>
<g id="Layer_75">
</g>
<g id="Layer_76">
</g>
<g id="Layer_77">
</g>
<g id="Layer_78">
</g>
<g id="Layer_79">
</g>
<g id="Layer_80">
</g>
<g id="Layer_81">
</g>
<g id="Layer_82">
</g>
<g id="Layer_83">
</g>
<g id="Layer_84">
</g>
<g id="Layer_85">
</g>
<g id="Layer_86">
</g>
<g id="Layer_87">
</g>
<g id="Layer_88">
</g>
<g id="Layer_89">
</g>
<g id="Layer_90">
</g>
<g id="Layer_91">
</g>
<g id="Layer_92">
</g>
<g id="Layer_93">
</g>
<g id="Layer_94">
</g>
<g id="Layer_95">
</g>
<g id="Layer_96">
</g>
<g id="Layer_97">
</g>
<g id="Layer_98">
</g>
<g id="Layer_99">
</g>
<g id="Layer_100">
</g>
</svg>
