<?xml version="1.0" encoding="utf-8"?>
<!-- Generator: Adobe Illustrator 22.0.0, SVG Export Plug-In . SVG Version: 6.00 Build 0)  -->
<svg version="1.1" xmlns="http://www.w3.org/2000/svg" xmlns:xlink="http://www.w3.org/1999/xlink" x="0px" y="0px"
	 viewBox="0 0 256 256" style="enable-background:new 0 0 256 256;" xml:space="preserve">
<style type="text/css">
	.st0{fill:#F9BD55;}
	.st1{fill:#F4DBCE;}
	.st2{fill:#52565B;}
	.st3{fill:#FD605B;}
	.st4{fill:#F98080;}
	.st5{fill:#F9E63A;}
	.st6{fill:#039BE6;}
	.st7{fill:none;stroke:#000000;stroke-width:5;stroke-linecap:round;stroke-linejoin:round;stroke-miterlimit:10;}
	.st8{fill:#7D3D1A;}
	.st9{fill:#EAA250;}
	.st10{fill:#DD7F57;}
	.st11{fill:#FFC097;}
	.st12{fill:#F49667;}
	.st13{fill:#F89422;}
	.st14{fill:#E3E4E5;}
	.st15{fill:#6E7175;}
	.st16{fill:#46BAF9;}
	.st17{fill:#D9F3FF;}
	.st18{fill:#828487;}
	.st19{fill:#A8AEB2;}
	.st20{fill:#C9CDD1;}
	.st21{fill:#8CD8F9;}
	.st22{fill:#1AA7E5;}
	.st23{fill:#ACE7FC;}
	.st24{fill:#FFFFFF;}
	.st25{fill:#9E512B;}
	.st26{fill:#7ED5FC;}
	.st27{fill:#7CCC4E;}
	.st28{fill:#3AA03A;}
	.st29{fill:#FCB1B1;}
	.st30{fill:#F76E23;}
	.st31{fill:#C16A44;}
	.st32{fill:#B796EA;}
</style>
<g id="Layer_1">
</g>
<g id="Layer_2">
</g>
<g id="Layer_3">
</g>
<g id="Layer_4">
</g>
<g id="Layer_5">
</g>
<g id="Layer_6">
</g>
<g id="Layer_7">
</g>
<g id="Layer_8">
</g>
<g id="Layer_9">
</g>
<g id="Layer_10">
</g>
<g id="Layer_11">
</g>
<g id="Layer_12">
</g>
<g id="Layer_13">
</g>
<g id="Layer_14">
</g>
<g id="Layer_15">
</g>
<g id="Layer_16">
</g>
<g id="Layer_17">
</g>
<g id="Layer_18">
</g>
<g id="Layer_19">
</g>
<g id="Layer_20">
</g>
<g id="Layer_21">
</g>
<g id="Layer_22">
</g>
<g id="Layer_23">
</g>
<g id="Layer_24">
</g>
<g id="Layer_25">
</g>
<g id="Layer_26">
</g>
<g id="Layer_27">
</g>
<g id="Layer_28">
</g>
<g id="Layer_29">
</g>
<g id="Layer_30">
	<g>
		<path class="st27" d="M86.328,97.744c-1.077-1.064-2.026-2.053-2.852-2.952c-1.396-1.519-2.142-3.505-2.216-5.543
			c-0.018-0.509,0.005-1.022,0.071-1.532c0.099-0.764,0.294-1.521,0.586-2.249c0.291-0.728,0.68-1.426,1.167-2.074
			c0.499-0.663,1.059-1.378,1.654-2.117c-1.071-1.987-2.107-4.399-3.022-7.343c-4.124-13.278-17.541-20.721-27.545-21.992
			c-1.062-0.135-2.074-0.503-2.975-1.081c-5.113-3.279-11.743-3.018-16.618,0.695c-0.75,0.572-1.613,0.988-2.533,1.199
			c-10.853,2.485-22.851,9.81-29.477,30.542c-0.303,0.947,0.435,1.91,1.425,1.829c1.934-0.16,5.831,0.015,7.405,0.726
			c0,0,7.236,17.436,22.203,20.891c14.968,3.456,27.633-2.629,41.367,6.172c0,0,7.524-3.621,13.761-12.886
			C87.869,99.238,87.066,98.473,86.328,97.744z"/>
		<path class="st0" d="M88.73,100.031c-6.237,9.265-13.761,12.886-13.761,12.886s3.517,3.603,10.768,8.786
			c3.382-6.697,7.457-12.077,10.365-15.48L88.73,100.031z"/>
		<path class="st0" d="M220.899,139.944c0.724,2.961,1.638,5.829,2.68,8.616c9.527-3.701,15.597-7.861,17.91-9.608L220.899,139.944z
			"/>
		<path class="st0" d="M186.491,138.587l-0.014-0.061c-21.724-2.203-43.057-7.1-62.316-15.754c-3.714,4.09-6.851,9.456-9.495,15.332
			c11.27,5.083,25.014,10.021,41.39,13.802c12.956,2.991,24.557,3.826,34.752,3.368C188.131,148.25,186.973,142.155,186.491,138.587
			z"/>
		<path class="st27" d="M85.732,121.699c-7.247-5.181-10.763-8.782-10.763-8.782c-1.527-0.978-3.039-1.764-4.544-2.408
			c-10.04,11.534-18.805,29.216-9.261,51.486c2.992,6.982,12.883,7.135,16.138,0.272c1.02-2.152,2.146-4.437,3.368-6.791
			C77.703,142.806,81.045,130.979,85.732,121.699z"/>
		<g>
			<path class="st27" d="M201.541,174.314c-5.055-6.372-8.458-13.045-10.743-19.039c-7.492,0.337-15.75-0.035-24.739-1.438
				c3.21,14.77,11.939,31.287,32.398,44.643c5.106,3.333,11.353-2.62,8.907-8.205C205.349,185.675,203.282,180.27,201.541,174.314z"
				/>
		</g>
		<path class="st27" d="M251.49,188.731c-11.023-10.431-25.366-27.423-30.591-48.786c-12.423,0.222-23.874-0.284-34.408-1.357
			c1.617,11.965,10.694,52.286,59.991,61.17C252.484,200.839,255.919,192.922,251.49,188.731z"/>
		<path class="st27" d="M124.174,122.757c-11.936-5.344-21.165-11.22-28.072-16.535c-8.786,10.286-28.274,38.533-6.883,67.063
			c4.557,6.078,14.204,3.89,15.745-3.548C108.026,154.957,113.929,134.024,124.174,122.757z"/>
		<path class="st28" d="M110.35,148.674c-7.528-1.738-14.377,0.084-15.297,4.07c-0.898,3.89,4.189,8.395,11.432,10.225
			c1.101-4.563,2.442-9.422,4.06-14.244C110.479,148.709,110.416,148.689,110.35,148.674z"/>
		<path class="st28" d="M104.839,130.476c-1.324,3.444,2.342,8.121,8.363,11.04c1.926-4.742,4.159-9.238,6.718-13.158
			C112.935,125.873,106.263,126.77,104.839,130.476z"/>
		
			<ellipse transform="matrix(0.225 -0.9744 0.9744 0.225 -62.084 197.9531)" class="st28" cx="93.389" cy="138.002" rx="4.389" ry="5.486"/>
		<path class="st28" d="M187.987,146.305c0.545,2.192,1.255,4.62,2.167,7.2c3.429,1.33,6.699-0.279,7.268-2.746
			C198.422,146.432,191.627,143.187,187.987,146.305z"/>
		<path class="st28" d="M230.775,163.349c-2.537-4.217-4.824-8.738-6.707-13.534c-8.51,0.262-15.297,3.585-15.206,7.484
			C208.99,162.791,221.252,165.437,230.775,163.349z"/>
		<path class="st28" d="M234.653,169.331c-5.212,1.302-8.752,3.783-8.687,6.557c0.092,3.938,7.401,6.961,16.326,6.752
			c1.018-0.024,2.01-0.094,2.974-0.196C241.71,178.613,238.065,174.218,234.653,169.331z"/>
		<path class="st27" d="M83.476,94.793c13.21,14.376,57.904,52.038,158.425,44.131c4.788-0.377,8.367-5.191,7.577-10.269
			c-3.059-19.649-15.979-63.968-70.494-76.554c-55.786-12.879-85.737,17.775-95.899,31.295
			C80.489,86.849,80.685,91.755,83.476,94.793z"/>
		<path class="st27" d="M248.811,124.858c-1.158,0.846-2.526,1.391-4.011,1.508C144.28,134.273,99.586,96.611,86.376,82.235
			c-0.446-0.485-0.817-1.021-1.13-1.588c-0.8,0.974-1.521,1.896-2.162,2.748c-2.595,3.453-2.399,8.36,0.392,11.397
			c13.21,14.376,57.904,52.038,158.425,44.131c4.788-0.376,8.367-5.19,7.577-10.269
			C249.294,127.476,249.073,126.203,248.811,124.858z"/>
		<path class="st28" d="M192.557,87.128l20.433-18.133c0.439-0.389,0.778-0.836,1.036-1.314
			c-9.178-6.709-20.648-12.257-35.042-15.58c-14.855-3.43-27.861-3.752-39.167-2.153c-0.069,0.731,0.037,1.49,0.344,2.233
			l10.416,25.255c0.775,1.88,2.667,3.364,4.963,3.894l30.849,7.122C188.685,88.982,191.036,88.477,192.557,87.128z"/>
		<g>
			<path class="st28" d="M248.807,124.86c-2.578-13.271-9.285-34.004-26.731-50.5c-0.417,0.216-0.807,0.471-1.15,0.775
				l-20.433,18.133c-1.521,1.35-1.98,3.339-1.205,5.219l10.416,25.255c0.686,1.665,2.25,3.016,4.193,3.672
				c9.66,0.132,19.95-0.188,30.903-1.05C246.284,126.249,247.649,125.705,248.807,124.86z"/>
		</g>
		<g>
			<path class="st28" d="M199.73,126.875c-0.023-0.062-0.036-0.124-0.061-0.185l-10.416-25.255c-0.775-1.88-2.667-3.364-4.963-3.894
				l-30.849-7.122c-2.296-0.53-4.647-0.025-6.168,1.324l-20.433,18.133c-0.054,0.048-0.097,0.103-0.148,0.152
				C144.512,118.062,168.422,124.913,199.73,126.875z"/>
		</g>
		<g>
			<path class="st28" d="M140.751,79.477l-10.416-25.256c-0.311-0.753-0.807-1.438-1.43-2.028
				C106.773,58.26,92.608,71.69,85.246,80.648c0.312,0.566,0.684,1.102,1.129,1.587c4.9,5.333,14.138,13.87,28.946,22.096
				c1.453-0.109,2.8-0.622,3.792-1.502l20.433-18.133C141.067,83.346,141.527,81.357,140.751,79.477z"/>
		</g>
		<path class="st7" d="M11.399,85.853c0,0,7.689,1.384,15.132,5.183c8.059,4.113,17.435,0.084,17.435,0.084"/>
		<line class="st7" x1="16.252" y1="74.586" x2="18.884" y2="72.942"/>
		<path class="st7" d="M36.456,66.503c0.773-3.4,4.156-5.529,7.556-4.755c3.4,0.773,5.529,4.156,4.755,7.556"/>
		<path class="st7" d="M86.328,97.744c-1.077-1.064-2.026-2.053-2.852-2.952c-1.396-1.519-2.142-3.505-2.216-5.543
			c-0.018-0.509,0.005-1.022,0.071-1.532c0.099-0.764,0.294-1.521,0.586-2.249c0.291-0.728,0.68-1.426,1.167-2.074
			c0.499-0.663,1.059-1.378,1.654-2.117c-1.071-1.987-2.107-4.399-3.022-7.343c-4.124-13.278-17.541-20.721-27.545-21.992
			c-1.062-0.135-2.074-0.503-2.975-1.081c-5.113-3.279-11.743-3.018-16.618,0.695c-0.75,0.572-1.613,0.988-2.533,1.199
			c-10.853,2.485-22.851,9.81-29.477,30.542c-0.303,0.947,0.435,1.91,1.425,1.829c1.934-0.16,5.831,0.015,7.405,0.726
			c0,0,7.236,17.436,22.203,20.891c14.968,3.456,27.633-2.629,41.367,6.172c0,0,7.524-3.621,13.761-12.886
			C87.869,99.238,87.066,98.473,86.328,97.744z"/>
		<line class="st7" x1="99.476" y1="121.39" x2="99.476" y2="121.39"/>
		<line class="st7" x1="214.856" y1="172.801" x2="214.856" y2="172.801"/>
		<path class="st7" d="M88.73,100.031c-6.237,9.265-13.761,12.886-13.761,12.886s3.517,3.603,10.768,8.786
			c3.382-6.697,7.457-12.077,10.365-15.48L88.73,100.031z"/>
		<path class="st7" d="M220.899,139.944c0.724,2.961,1.638,5.829,2.68,8.616c9.527-3.701,15.597-7.861,17.91-9.608L220.899,139.944z
			"/>
		<path class="st7" d="M186.491,138.587l-0.014-0.061c-21.724-2.203-43.057-7.1-62.316-15.754c-3.714,4.09-6.851,9.456-9.495,15.332
			c11.27,5.083,25.014,10.021,41.39,13.802c12.956,2.991,24.557,3.826,34.752,3.368C188.131,148.25,186.973,142.155,186.491,138.587
			z"/>
		<path class="st7" d="M85.732,121.699c-7.247-5.181-10.763-8.782-10.763-8.782c-1.527-0.978-3.039-1.764-4.544-2.408
			c-10.04,11.534-18.805,29.216-9.261,51.486c2.992,6.982,12.883,7.135,16.138,0.272c1.02-2.152,2.146-4.437,3.368-6.791
			C77.703,142.806,81.045,130.979,85.732,121.699z"/>
		<g>
			<path class="st7" d="M201.541,174.314c-5.055-6.372-8.458-13.045-10.743-19.039c-7.492,0.337-15.75-0.035-24.739-1.438
				c3.21,14.77,11.939,31.287,32.398,44.643c5.106,3.333,11.353-2.62,8.907-8.205C205.349,185.675,203.282,180.27,201.541,174.314z"
				/>
		</g>
		<path class="st7" d="M251.49,188.731c-11.023-10.431-25.366-27.423-30.591-48.786c-12.423,0.222-23.874-0.284-34.408-1.357
			c1.617,11.965,10.694,52.286,59.991,61.17C252.484,200.839,255.919,192.922,251.49,188.731z"/>
		<path class="st7" d="M124.174,122.757c-11.936-5.344-21.165-11.22-28.072-16.535c-8.786,10.286-28.274,38.533-6.883,67.063
			c4.557,6.078,14.204,3.89,15.745-3.548C108.026,154.957,113.929,134.024,124.174,122.757z"/>
		<path class="st7" d="M110.35,148.674c-7.528-1.738-14.377,0.084-15.297,4.07c-0.898,3.89,4.189,8.395,11.432,10.225
			c1.101-4.563,2.442-9.422,4.06-14.244C110.479,148.709,110.416,148.689,110.35,148.674z"/>
		<path class="st7" d="M104.839,130.476c-1.324,3.444,2.342,8.121,8.363,11.04c1.926-4.742,4.159-9.238,6.718-13.158
			C112.935,125.873,106.263,126.77,104.839,130.476z"/>
		
			<ellipse transform="matrix(0.225 -0.9744 0.9744 0.225 -62.084 197.9531)" class="st7" cx="93.389" cy="138.002" rx="4.389" ry="5.486"/>
		<path class="st7" d="M187.987,146.305c0.545,2.192,1.255,4.62,2.167,7.2c3.429,1.33,6.699-0.279,7.268-2.746
			C198.422,146.432,191.627,143.187,187.987,146.305z"/>
		<path class="st7" d="M230.775,163.349c-2.537-4.217-4.824-8.738-6.707-13.534c-8.51,0.262-15.297,3.585-15.206,7.484
			C208.99,162.791,221.252,165.437,230.775,163.349z"/>
		<path class="st7" d="M234.653,169.331c-5.212,1.302-8.752,3.783-8.687,6.557c0.092,3.938,7.401,6.961,16.326,6.752
			c1.018-0.024,2.01-0.094,2.974-0.196C241.71,178.613,238.065,174.218,234.653,169.331z"/>
		<path class="st7" d="M83.476,94.793c13.21,14.376,57.904,52.038,158.425,44.131c4.788-0.377,8.367-5.191,7.577-10.269
			c-3.059-19.649-15.979-63.968-70.494-76.554c-55.786-12.879-85.737,17.775-95.899,31.295
			C80.489,86.849,80.685,91.755,83.476,94.793z"/>
		<path class="st7" d="M248.811,124.858c-1.158,0.846-2.526,1.391-4.011,1.508C144.28,134.273,99.586,96.611,86.376,82.235
			c-0.446-0.485-0.817-1.021-1.13-1.588c-0.8,0.974-1.521,1.896-2.162,2.748c-2.595,3.453-2.399,8.36,0.392,11.397
			c13.21,14.376,57.904,52.038,158.425,44.131c4.788-0.376,8.367-5.19,7.577-10.269
			C249.294,127.476,249.073,126.203,248.811,124.858z"/>
		<path class="st7" d="M192.557,87.128l20.433-18.133c0.439-0.389,0.778-0.836,1.036-1.314c-9.178-6.709-20.648-12.257-35.042-15.58
			c-14.855-3.43-27.861-3.752-39.167-2.153c-0.069,0.731,0.037,1.49,0.344,2.233l10.416,25.255c0.775,1.88,2.667,3.364,4.963,3.894
			l30.849,7.122C188.685,88.982,191.036,88.477,192.557,87.128z"/>
		<g>
			<path class="st7" d="M248.807,124.86c-2.578-13.271-9.285-34.004-26.731-50.5c-0.417,0.216-0.807,0.471-1.15,0.775
				l-20.433,18.133c-1.521,1.35-1.98,3.339-1.205,5.219l10.416,25.255c0.686,1.665,2.25,3.016,4.193,3.672
				c9.66,0.132,19.95-0.188,30.903-1.05C246.284,126.249,247.649,125.705,248.807,124.86z"/>
		</g>
		<g>
			<path class="st7" d="M199.73,126.875c-0.023-0.062-0.036-0.124-0.061-0.185l-10.416-25.255c-0.775-1.88-2.667-3.364-4.963-3.894
				l-30.849-7.122c-2.296-0.53-4.647-0.025-6.168,1.324l-20.433,18.133c-0.054,0.048-0.097,0.103-0.148,0.152
				C144.512,118.062,168.422,124.913,199.73,126.875z"/>
		</g>
		<g>
			<path class="st7" d="M140.751,79.477l-10.416-25.256c-0.311-0.753-0.807-1.438-1.43-2.028
				C106.773,58.26,92.608,71.69,85.246,80.648c0.312,0.566,0.684,1.102,1.129,1.587c4.9,5.333,14.138,13.87,28.946,22.096
				c1.453-0.109,2.8-0.622,3.792-1.502l20.433-18.133C141.067,83.346,141.527,81.357,140.751,79.477z"/>
		</g>
	</g>
</g>
<g id="Layer_31">
</g>
<g id="Layer_32">
</g>
<g id="Layer_33">
</g>
<g id="Layer_34">
</g>
<g id="Layer_35">
</g>
<g id="Layer_36">
</g>
<g id="Layer_37">
</g>
<g id="Layer_38">
</g>
<g id="Layer_39">
</g>
<g id="Layer_40">
</g>
<g id="Layer_41">
</g>
<g id="Layer_42">
</g>
<g id="Layer_43">
</g>
<g id="Layer_44">
</g>
<g id="Layer_45">
</g>
<g id="Layer_46">
</g>
<g id="Layer_47">
</g>
<g id="Layer_48">
</g>
<g id="Layer_49">
</g>
<g id="Layer_50">
</g>
<g id="Layer_51">
</g>
<g id="Layer_52">
</g>
<g id="Layer_53">
</g>
<g id="Layer_54">
</g>
<g id="Layer_55">
</g>
<g id="Layer_56">
</g>
<g id="Layer_57">
</g>
<g id="Layer_58">
</g>
<g id="Layer_59">
</g>
<g id="Layer_60">
</g>
<g id="Layer_61">
</g>
<g id="Layer_62">
</g>
<g id="Layer_63">
</g>
<g id="Layer_64">
</g>
<g id="Layer_65">
</g>
<g id="Layer_66">
</g>
<g id="Layer_67">
</g>
<g id="Layer_68">
</g>
<g id="Layer_69">
</g>
<g id="Layer_70">
</g>
<g id="Layer_71">
</g>
<g id="Layer_72">
</g>
<g id="Layer_73">
</g>
<g id="Layer_74">
</g>
<g id="Layer_75">
</g>
<g id="Layer_76">
</g>
<g id="Layer_77">
</g>
<g id="Layer_78">
</g>
<g id="Layer_79">
</g>
<g id="Layer_80">
</g>
<g id="Layer_81">
</g>
<g id="Layer_82">
</g>
<g id="Layer_83">
</g>
<g id="Layer_84">
</g>
<g id="Layer_85">
</g>
<g id="Layer_86">
</g>
<g id="Layer_87">
</g>
<g id="Layer_88">
</g>
<g id="Layer_89">
</g>
<g id="Layer_90">
</g>
<g id="Layer_91">
</g>
<g id="Layer_92">
</g>
<g id="Layer_93">
</g>
<g id="Layer_94">
</g>
<g id="Layer_95">
</g>
<g id="Layer_96">
</g>
<g id="Layer_97">
</g>
<g id="Layer_98">
</g>
<g id="Layer_99">
</g>
<g id="Layer_100">
</g>
</svg>
