<?xml version="1.0" encoding="utf-8"?>
<!-- Generator: Adobe Illustrator 22.0.0, SVG Export Plug-In . SVG Version: 6.00 Build 0)  -->
<svg version="1.1" xmlns="http://www.w3.org/2000/svg" xmlns:xlink="http://www.w3.org/1999/xlink" x="0px" y="0px"
	 viewBox="0 0 256 256" style="enable-background:new 0 0 256 256;" xml:space="preserve">
<style type="text/css">
	.st0{fill:#F9BD55;}
	.st1{fill:#F4DBCE;}
	.st2{fill:#52565B;}
	.st3{fill:#FD605B;}
	.st4{fill:#F98080;}
	.st5{fill:#F9E63A;}
	.st6{fill:#039BE6;}
	.st7{fill:none;stroke:#000000;stroke-width:5;stroke-linecap:round;stroke-linejoin:round;stroke-miterlimit:10;}
	.st8{fill:#7D3D1A;}
	.st9{fill:#EAA250;}
	.st10{fill:#DD7F57;}
	.st11{fill:#FFC097;}
	.st12{fill:#F49667;}
	.st13{fill:#F89422;}
	.st14{fill:#E3E4E5;}
	.st15{fill:#6E7175;}
	.st16{fill:#46BAF9;}
	.st17{fill:#D9F3FF;}
	.st18{fill:#828487;}
	.st19{fill:#A8AEB2;}
	.st20{fill:#C9CDD1;}
	.st21{fill:#8CD8F9;}
	.st22{fill:#1AA7E5;}
	.st23{fill:#ACE7FC;}
	.st24{fill:#FFFFFF;}
	.st25{fill:#9E512B;}
	.st26{fill:#7ED5FC;}
	.st27{fill:#7CCC4E;}
	.st28{fill:#3AA03A;}
	.st29{fill:#FCB1B1;}
	.st30{fill:#F76E23;}
	.st31{fill:#C16A44;}
	.st32{fill:#B796EA;}
</style>
<g id="Layer_1">
</g>
<g id="Layer_2">
</g>
<g id="Layer_3">
</g>
<g id="Layer_4">
</g>
<g id="Layer_5">
</g>
<g id="Layer_6">
</g>
<g id="Layer_7">
</g>
<g id="Layer_8">
</g>
<g id="Layer_9">
</g>
<g id="Layer_10">
</g>
<g id="Layer_11">
</g>
<g id="Layer_12">
</g>
<g id="Layer_13">
</g>
<g id="Layer_14">
</g>
<g id="Layer_15">
</g>
<g id="Layer_16">
</g>
<g id="Layer_17">
</g>
<g id="Layer_18">
</g>
<g id="Layer_19">
</g>
<g id="Layer_20">
</g>
<g id="Layer_21">
</g>
<g id="Layer_22">
</g>
<g id="Layer_23">
</g>
<g id="Layer_24">
</g>
<g id="Layer_25">
</g>
<g id="Layer_26">
</g>
<g id="Layer_27">
</g>
<g id="Layer_28">
</g>
<g id="Layer_29">
</g>
<g id="Layer_30">
</g>
<g id="Layer_31">
</g>
<g id="Layer_32">
</g>
<g id="Layer_33">
</g>
<g id="Layer_34">
</g>
<g id="Layer_35">
</g>
<g id="Layer_36">
</g>
<g id="Layer_37">
</g>
<g id="Layer_38">
</g>
<g id="Layer_39">
</g>
<g id="Layer_40">
</g>
<g id="Layer_41">
</g>
<g id="Layer_42">
</g>
<g id="Layer_43">
</g>
<g id="Layer_44">
</g>
<g id="Layer_45">
</g>
<g id="Layer_46">
</g>
<g id="Layer_47">
	<g>
		<path class="st0" d="M40.802,56.539c25.401,0,46.588-3.496,53.188-4.711c0.097,0.228,0.162,0.472,0.159,0.73
			c-0.021,1.745-0.527,5.17-3.774,8.024c-0.632,0.555-0.755,1.482-0.353,2.198c-4.236,3.712-14.15,9.771-32.312,7.592
			c-25.617-3.074-38.701-7.276-49.578,0.461C13.365,64.236,23.235,56.539,40.802,56.539z"/>
		<path class="st2" d="M181.548,154.437c-37.046-10.728-67.244-34.788-63.382-53.325c2.562-12.296,10.119-17.035,17.035-18.7
			c1.273-0.306,2.558-0.505,3.844-0.616c-0.441-0.305-0.862-0.611-1.308-0.916c-1.575-1.076-2.471-2.924-2.213-4.815
			C146.5-4.5,87.698,27.391,87.698,27.391c-0.471,0.754-0.271,1.736,0.403,2.317c1.614,1.393,4.064,4.629,1.887,10.436
			c-2.416,6.441,1.496,9.719,3.283,10.828c0.552,0.343,0.887,0.936,0.879,1.586c-0.021,1.745-0.527,5.17-3.774,8.024
			c-0.702,0.617-0.782,1.695-0.205,2.431c2.442,3.114,7.213,11.524,0.841,24.267c-8.197,16.395,4.099,56.357,51.234,72.752
			c1.051,0.366,2.074,0.697,3.095,1.025c-0.009,0.17-0.021,0.34-0.021,0.512c0,5.354,4.38,9.734,9.734,9.734
			c3.981,0,7.421-2.424,8.924-5.868c10.51,1.443,18.733,0.649,24.999-1.015L181.548,154.437z"/>
		<path class="st2" d="M147.059,167.082l-2.483,1.976c-0.591,0.115-1.194,0.196-1.818,0.196c-5.354,0-9.734-4.38-9.734-9.734
			c0-1.037,0.168-2.037,0.472-2.976c2.774,1.253,5.685,2.423,8.75,3.489c1.054,0.367,2.08,0.699,3.103,1.028
			c-0.009,0.17-0.029,0.337-0.029,0.509C145.319,163.615,145.968,165.512,147.059,167.082z"/>
		<path class="st0" d="M120.757,190.85c0.624-2.394,2.071-4.491,4.007-6.031l22.288-17.731c1.754,2.53,4.67,4.2,7.962,4.213
			l-6.059,5.223c-1.174,1.012-1.425,2.732-0.589,4.038c0.193,0.301,0.447,0.563,0.727,0.784c2.41,1.899,3.188,3.861,3.27,5.513
			c0.069,1.398-1.666,2.09-2.632,1.078c-1.659-1.737-5.221-3.229-12.862-1.296c-8.056,2.039-12.1,7.318-14.077,11.399
			c-0.638,1.318-2.606,0.921-2.675-0.542C119.988,194.793,120.309,192.569,120.757,190.85z"/>
		<path class="st0" d="M99.825,180.328c1.052-2.239,2.859-4.036,5.043-5.196l28.189-14.957c0.201,2.961,1.736,5.565,4.01,7.216
			l-6.898,4.017c-1.339,0.78-1.901,2.425-1.318,3.861c0.134,0.331,0.336,0.635,0.571,0.904c1.048,1.197,1.655,2.328,1.972,3.37
			l-3.127,2.488c-1.599-1.753-4.93-3.331-11.833-2.891c-8.293,0.529-13.236,4.978-15.926,8.628
			c-0.869,1.179-2.731,0.428-2.531-1.022C98.347,184.063,99.069,181.936,99.825,180.328z"/>
		<path class="st0" d="M87.543,27.715c-0.249,0.694-0.023,1.492,0.557,1.993c1.614,1.393,4.064,4.629,1.887,10.436
			c-2.416,6.441,1.496,9.719,3.283,10.828c0.333,0.206,0.573,0.51,0.721,0.856c-6.599,1.215-27.787,4.711-53.188,4.711
			c-21.592,0-31.557,11.628-35.575,18.548c-0.75,1.292-2.708,0.772-2.724-0.723C1.975,26.431,73.36,27.108,87.543,27.715z"/>
		<path class="st2" d="M211.972,159.812l39.642,29.732c1.832,1.374,1.349,4.244-0.832,4.942l-8.787,2.812
			c-7.19,2.301-15.062,0.573-20.628-4.529c-2.12-1.944-4.892-3.022-7.768-3.022c-3.634,0-7.053-1.718-9.223-4.633l-22.823-30.669
			C191.381,157.291,201.689,159.196,211.972,159.812z"/>
		<path class="st2" d="M118.165,101.112c2.562-12.296,10.119-17.035,17.035-18.7c7.494-1.804,15.39-0.149,21.797,4.137
			c18.744,12.54,48.274,46.019,55.393,54.226c0.681,0.785,0.207,2.008-0.824,2.136l-3.466,0.433
			c-1.012,0.127-1.491,1.317-0.847,2.109l10.094,12.423c0.704,0.866,0.061,2.146-1.054,2.119
			C165.885,158.784,113.135,125.257,118.165,101.112z"/>
		<path class="st2" d="M24.131,39.085c7.023,1.192,15.798,5.275,3.586,19.098C14.958,61.631,8.324,69.754,5.227,75.087
			c-0.75,1.292-2.708,0.772-2.724-0.723C2.311,56.988,11.573,46.004,24.131,39.085z"/>
		<path class="st14" d="M91.012,87.279c6.373-12.747,1.598-21.157-0.843-24.269c-0.576-0.734-0.496-1.811,0.205-2.427
			c3.248-2.854,3.754-6.281,3.775-8.025c0.008-0.65-0.327-1.243-0.879-1.586c-1.787-1.108-5.698-4.386-3.283-10.828
			c1.264-3.371,0.965-5.87,0.18-7.651c6.77-0.96,16.728-8.232,23.206,10.184c0.445,1.266,1.331,2.337,2.385,3.166
			c2.841,2.235,7.762,8.193,2.408,20.429c-3.362,7.685-4.248,13.569-4.24,17.652c0.019,9.873-4.886,19.221-13.456,24.123
			c-2.764,1.581-5.993,2.869-9.745,3.616C87.79,101.967,88.089,93.123,91.012,87.279z"/>
		<g>
			<path class="st18" d="M207.253,145.455c-0.643-0.792-0.165-1.982,0.847-2.109l3.466-0.433c1.031-0.129,1.505-1.352,0.824-2.136
				c-1.2-1.384-3.049-3.498-5.364-6.097c-27.473,6.537-56.701,4.29-72.407-3.893c18.787,15.493,50.67,28.464,81.674,29.211
				c1.115,0.027,1.758-1.253,1.054-2.119L207.253,145.455z"/>
		</g>
		<path class="st25" d="M136.868,186.641c0.468-0.118,0.92-0.223,1.357-0.317l20.068,3.588
			c47.452,10.404,95.207,24.754,95.207,24.754v19.827c0,0-44.558-20.482-96.88-34.815l-30.259-6.905
			C128.723,190.207,132.084,187.852,136.868,186.641z"/>
		<path class="st25" d="M124.764,184.818c-1.936,1.54-3.383,3.638-4.007,6.031c-0.05,0.191-0.09,0.411-0.136,0.614l-19.525-4.456
			c1.709-2.126,4.174-4.401,7.59-5.965l17.003,3.04L124.764,184.818z"/>
		<path class="st25" d="M88.447,177.424l11.795,2.109c-0.149,0.259-0.289,0.524-0.417,0.796c-0.713,1.517-1.385,3.514-1.771,5.986
			l-11.048-2.521c-20.493-5.659-36.313-12.898-48.313-20.594C38.693,163.199,51.954,170.29,88.447,177.424z"/>
		<path class="st27" d="M29.373,137.334c2.92-0.946,6.247-0.085,8.311,2.432c1.798,2.193,2.174,5.08,1.252,7.559
			c-2.92,0.946-6.247,0.085-8.311-2.432C28.827,142.7,28.451,139.813,29.373,137.334z"/>
		<path class="st27" d="M61.873,157.376c1.744,2.526,1.873,5.96,0.054,8.659c-1.585,2.352-4.243,3.54-6.882,3.367
			c-1.744-2.526-1.873-5.96-0.054-8.659C56.575,158.391,59.233,157.203,61.873,157.376z"/>
		<path class="st27" d="M169.337,211.603c3.037,0.444,5.639,2.689,6.376,5.859c0.642,2.762-0.298,5.518-2.223,7.332
			c-3.037-0.444-5.639-2.689-6.376-5.859C166.472,216.173,167.413,213.418,169.337,211.603z"/>
		<path class="st7" d="M40.802,56.539c25.401,0,46.588-3.496,53.188-4.711c0.097,0.228,0.162,0.472,0.159,0.73
			c-0.021,1.745-0.527,5.17-3.774,8.024c-0.632,0.555-0.755,1.482-0.353,2.198c-4.236,3.712-14.15,9.771-32.312,7.592
			c-25.617-3.074-38.701-7.276-49.578,0.461C13.365,64.236,23.235,56.539,40.802,56.539z"/>
		<path class="st7" d="M147.229,155.795c-1.199,1.618-1.91,3.617-1.91,5.774v0c0,5.354,4.38,9.734,9.734,9.734h0
			c5.354,0,9.734-4.38,9.734-9.734"/>
		<path class="st7" d="M181.548,154.437c-37.046-10.728-67.244-34.788-63.382-53.325c2.562-12.296,10.119-17.035,17.035-18.7
			c1.273-0.306,2.558-0.505,3.844-0.616c-0.441-0.305-0.862-0.611-1.308-0.916c-1.575-1.076-2.471-2.924-2.213-4.815
			C146.5-4.5,87.698,27.391,87.698,27.391c-0.471,0.754-0.271,1.736,0.403,2.317c1.614,1.393,4.064,4.629,1.887,10.436
			c-2.416,6.441,1.496,9.719,3.283,10.828c0.552,0.343,0.887,0.936,0.879,1.586c-0.021,1.745-0.527,5.17-3.774,8.024
			c-0.702,0.617-0.782,1.695-0.205,2.431c2.442,3.114,7.213,11.524,0.841,24.267c-8.197,16.395,4.099,56.357,51.234,72.752
			c1.051,0.366,2.074,0.697,3.095,1.025c-0.009,0.17-0.021,0.34-0.021,0.512c0,5.354,4.38,9.734,9.734,9.734
			c3.981,0,7.421-2.424,8.924-5.868c10.51,1.443,18.733,0.649,24.999-1.015L181.548,154.437z"/>
		<path class="st7" d="M147.059,167.082l-2.483,1.976c-0.591,0.115-1.194,0.196-1.818,0.196c-5.354,0-9.734-4.38-9.734-9.734
			c0-1.037,0.168-2.037,0.472-2.976c2.774,1.253,5.685,2.423,8.75,3.489c1.054,0.367,2.08,0.699,3.103,1.028
			c-0.009,0.17-0.029,0.337-0.029,0.509C145.319,163.615,145.968,165.512,147.059,167.082z"/>
		<path class="st7" d="M120.757,190.85c0.624-2.394,2.071-4.491,4.007-6.031l22.288-17.731c1.754,2.53,4.67,4.2,7.962,4.213
			l-6.059,5.223c-1.174,1.012-1.425,2.732-0.589,4.038c0.193,0.301,0.447,0.563,0.727,0.784c2.41,1.899,3.188,3.861,3.27,5.513
			c0.069,1.398-1.666,2.09-2.632,1.078c-1.659-1.737-5.221-3.229-12.862-1.296c-8.056,2.039-12.1,7.318-14.077,11.399
			c-0.638,1.318-2.606,0.921-2.675-0.542C119.988,194.793,120.309,192.569,120.757,190.85z"/>
		<path class="st7" d="M99.825,180.328c1.052-2.239,2.859-4.036,5.043-5.196l28.189-14.957c0.201,2.961,1.736,5.565,4.01,7.216
			l-6.898,4.017c-1.339,0.78-1.901,2.425-1.318,3.861c0.134,0.331,0.336,0.635,0.571,0.904c1.048,1.197,1.655,2.328,1.972,3.37
			l-3.127,2.488c-1.599-1.753-4.93-3.331-11.833-2.891c-8.293,0.529-13.236,4.978-15.926,8.628
			c-0.869,1.179-2.731,0.428-2.531-1.022C98.347,184.063,99.069,181.936,99.825,180.328z"/>
		<path class="st7" d="M38.693,163.199c-20.176-12.938-33.244-27.146-36.19-37.218"/>
		<path class="st7" d="M188.868,209.728c0,0-17.761-2.779-30.859,6.305"/>
		<path class="st7" d="M42.471,140.97c0,0-6.31,17.602,3.686,25.659"/>
		<path class="st7" d="M29.373,137.334c2.92-0.946,6.247-0.085,8.311,2.432c1.798,2.193,2.174,5.08,1.252,7.559
			c-2.92,0.946-6.247,0.085-8.311-2.432C28.827,142.7,28.451,139.813,29.373,137.334z"/>
		<path class="st7" d="M61.873,157.376c1.744,2.526,1.873,5.96,0.054,8.659c-1.585,2.352-4.243,3.54-6.882,3.367
			c-1.744-2.526-1.873-5.96-0.054-8.659C56.575,158.391,59.233,157.203,61.873,157.376z"/>
		<path class="st7" d="M169.337,211.603c3.037,0.444,5.639,2.689,6.376,5.859c0.642,2.762-0.298,5.518-2.223,7.332
			c-3.037-0.444-5.639-2.689-6.376-5.859C166.472,216.173,167.413,213.418,169.337,211.603z"/>
		<path class="st7" d="M136.868,186.641c0.468-0.118,0.92-0.223,1.357-0.317l20.068,3.588
			c47.452,10.404,95.207,24.754,95.207,24.754v19.827c0,0-44.558-20.482-96.88-34.815l-30.259-6.905
			C128.723,190.207,132.084,187.852,136.868,186.641z"/>
		<path class="st7" d="M124.764,184.818c-1.936,1.54-3.383,3.638-4.007,6.031c-0.05,0.191-0.09,0.411-0.136,0.614l-19.525-4.456
			c1.709-2.126,4.174-4.401,7.59-5.965l17.003,3.04L124.764,184.818z"/>
		<path class="st7" d="M88.447,177.424l11.795,2.109c-0.149,0.259-0.289,0.524-0.417,0.796c-0.713,1.517-1.385,3.514-1.771,5.986
			l-11.048-2.521c-20.493-5.659-36.313-12.898-48.313-20.594C38.693,163.199,51.954,170.29,88.447,177.424z"/>
		<path class="st7" d="M87.543,27.715c-0.249,0.694-0.023,1.492,0.557,1.993c1.614,1.393,4.064,4.629,1.887,10.436
			c-2.416,6.441,1.496,9.719,3.283,10.828c0.333,0.206,0.573,0.51,0.721,0.856c-6.599,1.215-27.787,4.711-53.188,4.711
			c-21.592,0-31.557,11.628-35.575,18.548c-0.75,1.292-2.708,0.772-2.724-0.723C1.975,26.431,73.36,27.108,87.543,27.715z"/>
		<path class="st7" d="M104.622,43.498c0.007-2.081-1.675-3.773-3.756-3.78c-2.081-0.007-3.773,1.675-3.78,3.756"/>
		<path class="st7" d="M211.972,159.812l39.642,29.732c1.832,1.374,1.349,4.244-0.832,4.942l-8.787,2.812
			c-7.19,2.301-15.062,0.573-20.628-4.529c-2.12-1.944-4.892-3.022-7.768-3.022c-3.634,0-7.053-1.718-9.223-4.633l-22.823-30.669
			C191.381,157.291,201.689,159.196,211.972,159.812z"/>
		<path class="st7" d="M118.165,101.112c2.562-12.296,10.119-17.035,17.035-18.7c7.494-1.804,15.39-0.149,21.797,4.137
			c18.744,12.54,48.274,46.019,55.393,54.226c0.681,0.785,0.207,2.008-0.824,2.136l-3.466,0.433
			c-1.012,0.127-1.491,1.317-0.847,2.109l10.094,12.423c0.704,0.866,0.061,2.146-1.054,2.119
			C165.885,158.784,113.135,125.257,118.165,101.112z"/>
		<path class="st7" d="M24.131,39.085c7.023,1.192,15.798,5.275,3.586,19.098C14.958,61.631,8.324,69.754,5.227,75.087
			c-0.75,1.292-2.708,0.772-2.724-0.723C2.311,56.988,11.573,46.004,24.131,39.085z"/>
		<path class="st7" d="M91.012,87.279c6.373-12.747,1.598-21.157-0.843-24.269c-0.576-0.734-0.496-1.811,0.205-2.427
			c3.248-2.854,3.754-6.281,3.775-8.025c0.008-0.65-0.327-1.243-0.879-1.586c-1.787-1.108-5.698-4.386-3.283-10.828
			c1.264-3.371,0.965-5.87,0.18-7.651c6.77-0.96,16.728-8.232,23.206,10.184c0.445,1.266,1.331,2.337,2.385,3.166
			c2.841,2.235,7.762,8.193,2.408,20.429c-3.362,7.685-4.248,13.569-4.24,17.652c0.019,9.873-4.886,19.221-13.456,24.123
			c-2.764,1.581-5.993,2.869-9.745,3.616C87.79,101.967,88.089,93.123,91.012,87.279z"/>
		<g>
			<path class="st7" d="M207.253,145.455c-0.643-0.792-0.165-1.982,0.847-2.109l3.466-0.433c1.031-0.129,1.505-1.352,0.824-2.136
				c-1.2-1.384-3.049-3.498-5.364-6.097c-27.473,6.537-56.701,4.29-72.407-3.893c18.787,15.493,50.67,28.464,81.674,29.211
				c1.115,0.027,1.758-1.253,1.054-2.119L207.253,145.455z"/>
		</g>
	</g>
</g>
<g id="Layer_48">
</g>
<g id="Layer_49">
</g>
<g id="Layer_50">
</g>
<g id="Layer_51">
</g>
<g id="Layer_52">
</g>
<g id="Layer_53">
</g>
<g id="Layer_54">
</g>
<g id="Layer_55">
</g>
<g id="Layer_56">
</g>
<g id="Layer_57">
</g>
<g id="Layer_58">
</g>
<g id="Layer_59">
</g>
<g id="Layer_60">
</g>
<g id="Layer_61">
</g>
<g id="Layer_62">
</g>
<g id="Layer_63">
</g>
<g id="Layer_64">
</g>
<g id="Layer_65">
</g>
<g id="Layer_66">
</g>
<g id="Layer_67">
</g>
<g id="Layer_68">
</g>
<g id="Layer_69">
</g>
<g id="Layer_70">
</g>
<g id="Layer_71">
</g>
<g id="Layer_72">
</g>
<g id="Layer_73">
</g>
<g id="Layer_74">
</g>
<g id="Layer_75">
</g>
<g id="Layer_76">
</g>
<g id="Layer_77">
</g>
<g id="Layer_78">
</g>
<g id="Layer_79">
</g>
<g id="Layer_80">
</g>
<g id="Layer_81">
</g>
<g id="Layer_82">
</g>
<g id="Layer_83">
</g>
<g id="Layer_84">
</g>
<g id="Layer_85">
</g>
<g id="Layer_86">
</g>
<g id="Layer_87">
</g>
<g id="Layer_88">
</g>
<g id="Layer_89">
</g>
<g id="Layer_90">
</g>
<g id="Layer_91">
</g>
<g id="Layer_92">
</g>
<g id="Layer_93">
</g>
<g id="Layer_94">
</g>
<g id="Layer_95">
</g>
<g id="Layer_96">
</g>
<g id="Layer_97">
</g>
<g id="Layer_98">
</g>
<g id="Layer_99">
</g>
<g id="Layer_100">
</g>
</svg>
