<?xml version="1.0" encoding="utf-8"?>
<!-- Generator: Adobe Illustrator 22.0.0, SVG Export Plug-In . SVG Version: 6.00 Build 0)  -->
<svg version="1.1" xmlns="http://www.w3.org/2000/svg" xmlns:xlink="http://www.w3.org/1999/xlink" x="0px" y="0px"
	 viewBox="0 0 256 256" style="enable-background:new 0 0 256 256;" xml:space="preserve">
<style type="text/css">
	.st0{fill:#F9BD55;}
	.st1{fill:#F4DBCE;}
	.st2{fill:#52565B;}
	.st3{fill:#FD605B;}
	.st4{fill:#F98080;}
	.st5{fill:#F9E63A;}
	.st6{fill:#039BE6;}
	.st7{fill:none;stroke:#000000;stroke-width:5;stroke-linecap:round;stroke-linejoin:round;stroke-miterlimit:10;}
	.st8{fill:#7D3D1A;}
	.st9{fill:#EAA250;}
	.st10{fill:#DD7F57;}
	.st11{fill:#FFC097;}
	.st12{fill:#F49667;}
	.st13{fill:#F89422;}
	.st14{fill:#E3E4E5;}
	.st15{fill:#6E7175;}
	.st16{fill:#46BAF9;}
	.st17{fill:#D9F3FF;}
	.st18{fill:#828487;}
	.st19{fill:#A8AEB2;}
	.st20{fill:#C9CDD1;}
	.st21{fill:#8CD8F9;}
	.st22{fill:#1AA7E5;}
	.st23{fill:#ACE7FC;}
	.st24{fill:#FFFFFF;}
	.st25{fill:#9E512B;}
	.st26{fill:#7ED5FC;}
	.st27{fill:#7CCC4E;}
	.st28{fill:#3AA03A;}
	.st29{fill:#FCB1B1;}
	.st30{fill:#F76E23;}
	.st31{fill:#C16A44;}
	.st32{fill:#B796EA;}
</style>
<g id="Layer_1">
</g>
<g id="Layer_2">
</g>
<g id="Layer_3">
</g>
<g id="Layer_4">
</g>
<g id="Layer_5">
</g>
<g id="Layer_6">
</g>
<g id="Layer_7">
</g>
<g id="Layer_8">
</g>
<g id="Layer_9">
</g>
<g id="Layer_10">
</g>
<g id="Layer_11">
</g>
<g id="Layer_12">
</g>
<g id="Layer_13">
</g>
<g id="Layer_14">
</g>
<g id="Layer_15">
</g>
<g id="Layer_16">
</g>
<g id="Layer_17">
</g>
<g id="Layer_18">
</g>
<g id="Layer_19">
</g>
<g id="Layer_20">
</g>
<g id="Layer_21">
</g>
<g id="Layer_22">
</g>
<g id="Layer_23">
</g>
<g id="Layer_24">
</g>
<g id="Layer_25">
</g>
<g id="Layer_26">
</g>
<g id="Layer_27">
</g>
<g id="Layer_28">
</g>
<g id="Layer_29">
</g>
<g id="Layer_30">
</g>
<g id="Layer_31">
</g>
<g id="Layer_32">
</g>
<g id="Layer_33">
</g>
<g id="Layer_34">
</g>
<g id="Layer_35">
</g>
<g id="Layer_36">
</g>
<g id="Layer_37">
</g>
<g id="Layer_38">
</g>
<g id="Layer_39">
</g>
<g id="Layer_40">
</g>
<g id="Layer_41">
</g>
<g id="Layer_42">
</g>
<g id="Layer_43">
</g>
<g id="Layer_44">
</g>
<g id="Layer_45">
</g>
<g id="Layer_46">
</g>
<g id="Layer_47">
</g>
<g id="Layer_48">
</g>
<g id="Layer_49">
</g>
<g id="Layer_50">
</g>
<g id="Layer_51">
</g>
<g id="Layer_52">
</g>
<g id="Layer_53">
</g>
<g id="Layer_54">
</g>
<g id="Layer_55">
</g>
<g id="Layer_56">
</g>
<g id="Layer_57">
</g>
<g id="Layer_58">
</g>
<g id="Layer_59">
</g>
<g id="Layer_60">
</g>
<g id="Layer_61">
</g>
<g id="Layer_62">
</g>
<g id="Layer_63">
</g>
<g id="Layer_64">
</g>
<g id="Layer_65">
</g>
<g id="Layer_66">
</g>
<g id="Layer_67">
</g>
<g id="Layer_68">
</g>
<g id="Layer_69">
</g>
<g id="Layer_70">
</g>
<g id="Layer_71">
</g>
<g id="Layer_72">
</g>
<g id="Layer_73">
</g>
<g id="Layer_74">
</g>
<g id="Layer_75">
</g>
<g id="Layer_76">
</g>
<g id="Layer_77">
</g>
<g id="Layer_78">
</g>
<g id="Layer_79">
</g>
<g id="Layer_80">
	<g>
		<g>
			<path class="st8" d="M173.447,121.365c1.235-14.629,3.629-36.684,7.843-54.743c0.771-3.303,1.726-6.077,2.812-8.409
				c-5.741-0.778-13.659,0.51-17.254,11.895c-2.926,9.266-1.315,29.277,1.092,47.29
				C169.709,118.671,171.451,119.976,173.447,121.365z"/>
		</g>
		<path class="st8" d="M228.6,73.096c-9.098,10.918-29.911,40.239-40.83,55.768c3.153,1.236,4.593,5.015,2.954,8.054
			c-0.306,0.568-0.601,1.142-0.892,1.72l55.699-47.614c0,0,7.968-7.968,7.968-15.936S243.54,55.168,228.6,73.096z"/>
		<path class="st8" d="M222.624,56.164c-14.505,14.505-32.92,55.737-39.424,70.954c1.353,0.612,2.732,1.161,4.141,1.588
			c0.148,0.045,0.288,0.102,0.429,0.158c10.915-15.524,31.729-44.847,40.83-55.768c5.818-6.982,10.876-9.42,14.889-9.339
			C243.036,60.653,239.272,39.516,222.624,56.164z"/>
		<path class="st8" d="M189.755,86.044l-11.531,38.438c1.596,0.972,3.262,1.861,4.976,2.636
			c6.504-15.218,24.919-56.449,39.424-70.954c2.144-2.144,4.072-3.655,5.809-4.665l0.167-0.315
			C228.6,51.184,211.668,11.344,189.755,86.044z"/>
		<path class="st8" d="M178.071,124.394c0.05,0.031,0.103,0.058,0.153,0.089l11.531-38.438
			c5.812-19.815,11.274-31.569,16.163-38.147c-6.73-2.094-19.586-2.886-24.629,18.725c-4.214,18.059-6.607,40.113-7.843,54.743
			C174.832,122.328,176.338,123.331,178.071,124.394z"/>
		<path class="st31" d="M166.847,70.108c-0.869,2.752-1.335,6.458-1.502,10.772c3.494-3.8,8.474-5.792,13.904-4.494
			c0.628-3.335,1.305-6.612,2.04-9.764c0.771-3.303,1.726-6.077,2.812-8.409C178.36,57.435,170.442,58.723,166.847,70.108z"/>
		<path class="st31" d="M181.289,66.622c-0.675,2.893-1.298,5.894-1.883,8.945c1.726-1.338,6.985-4.508,13.59,0.133
			c4.606-13.709,8.953-22.463,12.921-27.803C199.187,45.804,186.332,45.011,181.289,66.622z"/>
		<path class="st31" d="M193.487,74.268c3.001-1.184,9.2-2.577,13.01,3.934c0.094,0.16,0.203,0.308,0.306,0.46
			c5.304-9.244,10.796-17.475,15.82-22.499c2.144-2.144,4.072-3.655,5.809-4.665l0.167-0.315
			C228.6,51.184,213.56,15.816,193.487,74.268z"/>
		<path class="st31" d="M243.489,63.758c-0.453-3.104-4.217-24.242-20.865-7.594c-5.059,5.059-10.594,13.373-15.933,22.698
			c2.405-0.384,8.628-0.617,12.764,5.988c3.589-4.788,6.769-8.902,9.145-11.754C234.418,66.114,239.476,63.676,243.489,63.758z"/>
		<path class="st31" d="M253.5,75.088c0-7.968-9.96-19.92-24.9-1.992c-2.336,2.804-5.448,6.826-8.964,11.512v0.44
			c0,0,12.011-1.84,16.454,14.047l9.442-8.071C245.532,91.024,253.5,83.056,253.5,75.088z"/>
		<path class="st2" d="M190.724,136.918c1.712-3.175,0.069-7.166-3.383-8.211c-3.249-0.984-6.37-2.536-9.27-4.313
			c-12.574-7.71-13.435-12.355-39.919-20.709c-14.452-4.558-29.508-8.519-44.562-7.615c0.042,0.196,0.069,0.395,0.123,0.59
			c1.125,4.063,1.63,9.252-2.485,10.623c-7.024,2.342-16.391-3.512-16.391-3.512s3.512,8.196-1.171,12.879
			c-4.683,4.683-14.049-4.683-14.049-4.683c-0.675,5.399-4.852,10.02-8.268,12.966c-2.281,1.967-5.853,0.864-6.532-2.069
			c-0.334-1.441-0.607-3.132-0.722-5.018c-0.114,0.321-0.225,0.642-0.326,0.968c-3.505,11.273-1.686,30.929,8.638,44.391
			c12.51,16.314,32.694,21.467,53.145,23.518c1.038,2.803,2.318,5.516,3.84,8.089c2.368,4.004,5.342,7.801,6.377,12.336
			c0.589-1.168,2.027-1.989,2.616-3.156c1.553,1.945,2.259,3.544,3.811,5.489c2.096-1.9,3.339-4.056,4.845-6.451
			c1.742,1.483,4.076,2.934,5.818,4.416c0.208-2.906,0.914-4.416,1.876-7.302c1.328,1.195,3.978,1.706,5.307,2.9
			c-1.986-2.789-1.624-6.599-0.733-9.905c0,0,0.537-2.881,0.671-7.101c16.043-3.87,30.59-13.912,39.81-27.603
			c1.176-0.365,2.36-0.743,3.563-1.143c0,0-0.349-1.03-1.313-2.483c0.43-0.744,0.862-1.487,1.262-2.249
			C185.97,147.461,188.004,141.962,190.724,136.918z"/>
		<path class="st19" d="M169.752,146.415c0,0-2.4-9.204-11.486-12.68c0,0-4.548-15.914-20.156-13.51
			c0.139,0.061,7.585,3.387,8.942,12.201c0,0,9.089,3.569,9.213,12.707c0,0,10.239,2.672,10.162,16.86
			c5.317-1.161,10.952-2.71,16.925-4.701C183.351,157.293,180.767,149.54,169.752,146.415z"/>
		<path class="st2" d="M90.867,202.167c0.589-1.168,2.027-1.989,2.616-3.156c1.553,1.945,2.259,3.544,3.811,5.489
			c2.096-1.9,3.339-4.056,4.845-6.451c1.742,1.483,4.076,2.934,5.818,4.416c0.202-2.821,0.876-4.337,1.795-7.062
			c-0.12-0.197-0.244-0.394-0.361-0.592c-1.522-2.573-2.802-5.286-3.84-8.089c-8.493-0.852-16.938-2.243-24.809-4.742
			c1.022,2.718,2.27,5.351,3.749,7.851C86.858,193.836,89.832,197.632,90.867,202.167z"/>
		<path class="st1" d="M102.025,240.741c0,0-6.915,3.305-8.498,10.22c-0.43,1.879,1.721,3.273,3.266,2.12
			c3.522-2.63,9.06-6.465,13.311-8.014C107.674,239.449,102.025,240.741,102.025,240.741z"/>
		<path class="st1" d="M102.025,240.741c-2.429-5.618-8.047-3.189-8.047-3.189s-6.153,2.84-8.205,9.026
			c-0.377,1.136,0.702,2.23,1.856,1.908l8.049-2.25C98.286,242.537,102.025,240.741,102.025,240.741z"/>
		<path class="st1" d="M93.978,237.552c-1.261-4.513-5.775-3.252-5.775-3.252s-4.538,1.653-7.322,6.038
			c-0.853,1.344,0.229,3.078,1.809,2.876l5.242-0.671C90.527,239.146,93.978,237.552,93.978,237.552z"/>
		<path class="st0" d="M137.168,229.415c-2.319-1.711-5.84-3.161-10.493-1.86c0,0,8.487-12.803,7.687-26.321
			c-0.77,2.223-1.325,3.696-1.505,6.212c-1.742-1.482-4.076-2.934-5.818-4.416c-1.506,2.395-2.749,4.552-4.845,6.451
			c-0.938-1.175-1.568-2.225-2.262-3.3c-0.028,6.478-1.312,15.553-5.79,19.923c-1.235,1.206-2.987,1.731-4.688,1.44l-3.262-0.56
			c0,0-12.529-0.792-17.99,7.318c0,0,4.513-1.261,5.774,3.252c0,0,5.618-2.429,8.047,3.189c0,0,5.649-1.293,8.078,4.325
			c0,0,3.321,2.569,9.201-6.831c0.612-0.978,1.573-1.71,2.692-1.993c2.39-0.605,6.652-1.218,10.409,0.672
			c1.669,0.839,3.677,0.577,4.961-0.781l0.347-0.367C139.468,233.913,139.223,230.932,137.168,229.415z"/>
		<path class="st1" d="M80.881,240.338c0.737-1.16,1.597-2.125,2.463-2.922c-2.681-2.452-6.219-1.654-6.219-1.654
			s-6.915,3.305-8.498,10.219c-0.43,1.88,1.721,3.273,3.266,2.12c2.387-1.782,5.697-4.105,8.907-5.907
			C80.519,241.639,80.492,240.951,80.881,240.338z"/>
		<path class="st1" d="M77.125,235.761c-2.429-5.618-8.047-3.189-8.047-3.189s-6.153,2.84-8.205,9.026
			c-0.377,1.136,0.702,2.23,1.856,1.908l8.049-2.25C73.386,237.557,77.125,235.761,77.125,235.761z"/>
		<path class="st1" d="M69.078,232.572c-1.261-4.513-5.775-3.252-5.775-3.252s-4.538,1.653-7.322,6.038
			c-0.853,1.344,0.229,3.078,1.809,2.876l5.242-0.671C65.627,234.166,69.078,232.572,69.078,232.572z"/>
		<g>
			<path class="st0" d="M88.204,234.3c0,0,0.063-0.017,0.164-0.038C88.267,234.284,88.204,234.3,88.204,234.3
				c5.461-8.11,17.99-7.318,17.99-7.318l3.262,0.56c1.523,0.261,3.084-0.138,4.281-1.088c-0.268-0.777-0.75-1.49-1.468-2.019
				c-2.319-1.711-5.84-3.161-10.493-1.86c0,0,8.487-12.803,7.687-26.321c-0.77,2.223-1.325,3.696-1.505,6.212
				c-1.742-1.482-4.076-2.934-5.818-4.416c-1.506,2.395-2.749,4.552-4.845,6.451c-0.938-1.175-1.568-2.225-2.262-3.3
				c-0.028,6.478-1.312,15.553-5.79,19.923c-1.235,1.206-2.987,1.731-4.688,1.44l-3.262-0.56c0,0-12.529-0.792-17.99,7.318
				c0,0,4.513-1.261,5.774,3.252c0,0,5.618-2.429,8.047,3.189c0,0,3.539-0.797,6.219,1.654C85.75,235.199,88.204,234.3,88.204,234.3
				z"/>
		</g>
		<path class="st4" d="M97.667,2.5c-18.732,0-29.269,18.732-29.269,18.732s19.39,9.926,15.998,24.586
			c1.628,0.011,3.35-0.073,5.176-0.322c0.956-0.13,1.799,0.628,1.776,1.593c-0.11,4.695-2.863,17.934-27.047,35.607
			c-21.45,15.675-21.39,31.931-19.484,40.166c0.679,2.933,4.252,4.036,6.532,2.069c3.417-2.946,7.593-7.567,8.268-12.966
			c0,0,9.366,9.366,14.049,4.683s1.171-12.878,1.171-12.878s9.366,5.854,16.391,3.512c4.115-1.372,3.61-6.56,2.485-10.623
			c-0.937-3.385-0.046-7.015,2.365-9.568C148.644,31.42,115.926,2.5,97.667,2.5z"/>
		<path class="st3" d="M68.398,21.232c0,0,4.683,3.512,4.683,10.537l-3.512,10.537l-5.537,7.014
			c-2.65,3.357-2.621,8.258,0.376,11.309c2.986,3.041,8.091,3.723,16.284-7.201C94.74,34.696,68.398,21.232,68.398,21.232z"/>
		<path class="st0" d="M68.398,21.232l-25.105,10.83c-0.915,0.395-0.583,1.766,0.411,1.699l29.377-1.992
			C73.081,24.744,68.398,21.232,68.398,21.232z"/>
		<path class="st0" d="M46.346,33.581c0,0,14.442,3.456,23.223,8.724l3.512-10.537L46.346,33.581z"/>
		<path class="st7" d="M68.398,21.232l-25.105,10.83c-0.915,0.395-0.583,1.766,0.411,1.699l29.377-1.992
			C73.081,24.744,68.398,21.232,68.398,21.232z"/>
		<path class="st7" d="M46.346,33.581c0,0,14.442,3.456,23.223,8.724l3.512-10.537L46.346,33.581z"/>
		<path class="st7" d="M68.398,21.232c0,0,4.683,3.512,4.683,10.537l-3.512,10.537l-5.537,7.014
			c-2.65,3.357-2.621,8.258,0.376,11.309c2.986,3.041,8.091,3.723,16.284-7.201C94.74,34.696,68.398,21.232,68.398,21.232z"/>
		<path class="st7" d="M97.667,2.5c-18.732,0-29.269,18.732-29.269,18.732s19.39,9.926,15.998,24.586
			c1.628,0.011,3.35-0.073,5.176-0.322c0.956-0.13,1.799,0.628,1.776,1.593c-0.11,4.695-2.863,17.934-27.047,35.607
			c-21.45,15.675-21.39,31.931-19.484,40.166c0.679,2.933,4.252,4.036,6.532,2.069c3.417-2.946,7.593-7.567,8.268-12.966
			c0,0,9.366,9.366,14.049,4.683s1.171-12.878,1.171-12.878s9.366,5.854,16.391,3.512c4.115-1.372,3.61-6.56,2.485-10.623
			c-0.937-3.385-0.046-7.015,2.365-9.568C148.644,31.42,115.926,2.5,97.667,2.5z"/>
		<path class="st7" d="M89.415,23.929c-0.009-2.857,2.3-5.181,5.157-5.191s5.181,2.3,5.191,5.157"/>
		<path class="st7" d="M102.025,240.741c0,0-6.915,3.305-8.498,10.22c-0.43,1.879,1.721,3.273,3.266,2.12
			c3.522-2.63,9.06-6.465,13.311-8.014C107.674,239.449,102.025,240.741,102.025,240.741z"/>
		<path class="st7" d="M102.025,240.741c-2.429-5.618-8.047-3.189-8.047-3.189s-6.153,2.84-8.205,9.026
			c-0.377,1.136,0.702,2.23,1.856,1.908l8.049-2.25C98.286,242.537,102.025,240.741,102.025,240.741z"/>
		<path class="st7" d="M93.978,237.552c-1.261-4.513-5.775-3.252-5.775-3.252s-4.538,1.653-7.322,6.038
			c-0.853,1.344,0.229,3.078,1.809,2.876l5.242-0.671C90.527,239.146,93.978,237.552,93.978,237.552z"/>
		<path class="st7" d="M102.416,171.236c0.358,8.268,2.761,16.449,6.974,23.575c2.368,4.004,5.342,7.801,6.377,12.336
			c0.59-1.168,2.026-1.989,2.616-3.156c1.553,1.945,2.258,3.544,3.811,5.489c2.096-1.9,3.339-4.056,4.845-6.451
			c1.742,1.483,4.076,2.934,5.818,4.416c0.208-2.906,0.914-4.416,1.876-7.302c1.328,1.195,3.978,1.706,5.307,2.9
			c-1.986-2.789-1.624-6.599-0.733-9.905c0,0,1.673-8.953-0.15-18.425"/>
		<path class="st7" d="M137.168,229.415c-2.319-1.711-5.84-3.161-10.493-1.86c0,0,8.487-12.803,7.687-26.321
			c-0.77,2.223-1.325,3.696-1.505,6.212c-1.742-1.482-4.076-2.934-5.818-4.416c-1.506,2.395-2.749,4.552-4.845,6.451
			c-0.938-1.175-1.568-2.225-2.262-3.3c-0.028,6.478-1.312,15.553-5.79,19.923c-1.235,1.206-2.987,1.731-4.688,1.44l-3.262-0.56
			c0,0-12.529-0.792-17.99,7.318c0,0,4.513-1.261,5.774,3.252c0,0,5.618-2.429,8.047,3.189c0,0,5.649-1.293,8.078,4.325
			c0,0,3.321,2.569,9.201-6.831c0.612-0.978,1.573-1.71,2.692-1.993c2.39-0.605,6.652-1.218,10.409,0.672
			c1.669,0.839,3.677,0.577,4.961-0.781l0.347-0.367C139.468,233.913,139.223,230.932,137.168,229.415z"/>
		<path class="st7" d="M80.881,240.338c0.737-1.16,1.597-2.125,2.463-2.922c-2.681-2.452-6.219-1.654-6.219-1.654
			s-6.915,3.305-8.498,10.219c-0.43,1.88,1.721,3.273,3.266,2.12c2.387-1.782,5.697-4.105,8.907-5.907
			C80.519,241.639,80.492,240.951,80.881,240.338z"/>
		<path class="st7" d="M77.125,235.761c-2.429-5.618-8.047-3.189-8.047-3.189s-6.153,2.84-8.205,9.026
			c-0.377,1.136,0.702,2.23,1.856,1.908l8.049-2.25C73.386,237.557,77.125,235.761,77.125,235.761z"/>
		<path class="st7" d="M69.078,232.572c-1.261-4.513-5.775-3.252-5.775-3.252s-4.538,1.653-7.322,6.038
			c-0.853,1.344,0.229,3.078,1.809,2.876l5.242-0.671C65.627,234.166,69.078,232.572,69.078,232.572z"/>
		<path class="st7" d="M90.867,202.167c0.589-1.168,2.027-1.989,2.616-3.156c1.553,1.945,2.259,3.544,3.811,5.489
			c2.096-1.9,3.339-4.056,4.845-6.451c1.742,1.483,4.076,2.934,5.818,4.416c0.202-2.821,0.876-4.337,1.795-7.062
			c-0.12-0.197-0.244-0.394-0.361-0.592c-1.522-2.573-2.802-5.286-3.84-8.089c-8.493-0.852-16.938-2.243-24.809-4.742
			c1.022,2.718,2.27,5.351,3.749,7.851C86.858,193.836,89.832,197.632,90.867,202.167z"/>
		<g>
			<path class="st7" d="M88.204,234.3c0,0,0.063-0.017,0.164-0.038C88.267,234.284,88.204,234.3,88.204,234.3
				c5.461-8.11,17.99-7.318,17.99-7.318l3.262,0.56c1.523,0.261,3.084-0.138,4.281-1.088c-0.268-0.777-0.75-1.49-1.468-2.019
				c-2.319-1.711-5.84-3.161-10.493-1.86c0,0,8.487-12.803,7.687-26.321c-0.77,2.223-1.325,3.696-1.505,6.212
				c-1.742-1.482-4.076-2.934-5.818-4.416c-1.506,2.395-2.749,4.552-4.845,6.451c-0.938-1.175-1.568-2.225-2.262-3.3
				c-0.028,6.478-1.312,15.553-5.79,19.923c-1.235,1.206-2.987,1.731-4.688,1.44l-3.262-0.56c0,0-12.529-0.792-17.99,7.318
				c0,0,4.513-1.261,5.774,3.252c0,0,5.618-2.429,8.047,3.189c0,0,3.539-0.797,6.219,1.654C85.75,235.199,88.204,234.3,88.204,234.3
				z"/>
		</g>
		<path class="st7" d="M190.724,136.918c1.712-3.175,0.069-7.166-3.383-8.211c-3.249-0.984-6.37-2.536-9.27-4.313
			c-12.574-7.71-13.435-12.355-39.919-20.709c-14.452-4.558-29.508-8.519-44.562-7.615c0.042,0.196,0.069,0.395,0.123,0.59
			c1.125,4.063,1.63,9.252-2.485,10.623c-7.024,2.342-16.391-3.512-16.391-3.512s3.512,8.196-1.171,12.879
			c-4.683,4.683-14.049-4.683-14.049-4.683c-0.675,5.399-4.852,10.02-8.268,12.966c-2.281,1.967-5.853,0.864-6.532-2.069
			c-0.334-1.441-0.607-3.132-0.722-5.018c-0.114,0.321-0.225,0.642-0.326,0.968c-3.505,11.273-1.686,30.929,8.638,44.391
			c12.51,16.314,32.694,21.467,53.145,23.518c1.038,2.803,2.318,5.516,3.84,8.089c2.368,4.004,5.342,7.801,6.377,12.336
			c0.589-1.168,2.027-1.989,2.616-3.156c1.553,1.945,2.259,3.544,3.811,5.489c2.096-1.9,3.339-4.056,4.845-6.451
			c1.742,1.483,4.076,2.934,5.818,4.416c0.208-2.906,0.914-4.416,1.876-7.302c1.328,1.195,3.978,1.706,5.307,2.9
			c-1.986-2.789-1.624-6.599-0.733-9.905c0,0,0.537-2.881,0.671-7.101c16.043-3.87,30.59-13.912,39.81-27.603
			c1.176-0.365,2.36-0.743,3.563-1.143c0,0-0.349-1.03-1.313-2.483c0.43-0.744,0.862-1.487,1.262-2.249
			C185.97,147.461,188.004,141.962,190.724,136.918z"/>
		<path class="st7" d="M87.398,123.132c-0.12,2.998,0.264,6.234,1.402,9.647c5.837,17.51,31.517,45.525,94.552,24.513
			c0,0-2.584-7.753-13.599-10.877c0,0-2.4-9.204-11.486-12.68c0,0-5.264-18.465-23.941-12.629"/>
		<g>
			<path class="st7" d="M173.447,121.365c1.235-14.629,3.629-36.684,7.843-54.743c0.771-3.303,1.726-6.077,2.812-8.409
				c-5.741-0.778-13.659,0.51-17.254,11.895c-2.926,9.266-1.315,29.277,1.092,47.29
				C169.709,118.671,171.451,119.976,173.447,121.365z"/>
		</g>
		<path class="st7" d="M228.6,73.096c-9.098,10.918-29.911,40.239-40.83,55.768c3.153,1.236,4.593,5.015,2.954,8.054
			c-0.306,0.568-0.601,1.142-0.892,1.72l55.699-47.614c0,0,7.968-7.968,7.968-15.936S243.54,55.168,228.6,73.096z"/>
		<path class="st7" d="M222.624,56.164c-14.505,14.505-32.92,55.737-39.424,70.954c1.353,0.612,2.732,1.161,4.141,1.588
			c0.148,0.045,0.288,0.102,0.429,0.158c10.915-15.524,31.729-44.847,40.83-55.768c5.818-6.982,10.876-9.42,14.889-9.339
			C243.036,60.653,239.272,39.516,222.624,56.164z"/>
		<path class="st7" d="M189.755,86.044l-11.531,38.438c1.596,0.972,3.262,1.861,4.976,2.636
			c6.504-15.218,24.919-56.449,39.424-70.954c2.144-2.144,4.072-3.655,5.809-4.665l0.167-0.315
			C228.6,51.184,211.668,11.344,189.755,86.044z"/>
		<path class="st7" d="M178.071,124.394c0.05,0.031,0.103,0.058,0.153,0.089l11.531-38.438
			c5.812-19.815,11.274-31.569,16.163-38.147c-6.73-2.094-19.586-2.886-24.629,18.725c-4.214,18.059-6.607,40.113-7.843,54.743
			C174.832,122.328,176.338,123.331,178.071,124.394z"/>
		<path class="st7" d="M166.847,70.108c-0.869,2.752-1.335,6.458-1.502,10.772c3.494-3.8,8.474-5.792,13.904-4.494
			c0.628-3.335,1.305-6.612,2.04-9.764c0.771-3.303,1.726-6.077,2.812-8.409C178.36,57.435,170.442,58.723,166.847,70.108z"/>
		<path class="st7" d="M181.289,66.622c-0.675,2.893-1.298,5.894-1.883,8.945c1.726-1.338,6.985-4.508,13.59,0.133
			c4.606-13.709,8.953-22.463,12.921-27.803C199.187,45.804,186.332,45.011,181.289,66.622z"/>
		<path class="st7" d="M193.487,74.268c3.001-1.184,9.2-2.577,13.01,3.934c0.094,0.16,0.203,0.308,0.306,0.46
			c5.304-9.244,10.796-17.475,15.82-22.499c2.144-2.144,4.072-3.655,5.809-4.665l0.167-0.315
			C228.6,51.184,213.56,15.816,193.487,74.268z"/>
		<path class="st7" d="M243.489,63.758c-0.453-3.104-4.217-24.242-20.865-7.594c-5.059,5.059-10.594,13.373-15.933,22.698
			c2.405-0.384,8.628-0.617,12.764,5.988c3.589-4.788,6.769-8.902,9.145-11.754C234.418,66.114,239.476,63.676,243.489,63.758z"/>
		<path class="st7" d="M253.5,75.088c0-7.968-9.96-19.92-24.9-1.992c-2.336,2.804-5.448,6.826-8.964,11.512v0.44
			c0,0,12.011-1.84,16.454,14.047l9.442-8.071C245.532,91.024,253.5,83.056,253.5,75.088z"/>
		<path class="st7" d="M169.752,146.415c0,0-2.4-9.204-11.486-12.68c0,0-4.548-15.914-20.156-13.51
			c0.139,0.061,7.585,3.387,8.942,12.201c0,0,9.089,3.569,9.213,12.707c0,0,10.239,2.672,10.162,16.86
			c5.317-1.161,10.952-2.71,16.925-4.701C183.351,157.293,180.767,149.54,169.752,146.415z"/>
		<path class="st7" d="M169.752,146.415c-5.539-1.571-13.209-1.972-23.755,0.371"/>
		<path class="st7" d="M158.266,133.735c-4.13-1.58-9.642-1.977-16.937,0.212"/>
	</g>
</g>
<g id="Layer_81">
</g>
<g id="Layer_82">
</g>
<g id="Layer_83">
</g>
<g id="Layer_84">
</g>
<g id="Layer_85">
</g>
<g id="Layer_86">
</g>
<g id="Layer_87">
</g>
<g id="Layer_88">
</g>
<g id="Layer_89">
</g>
<g id="Layer_90">
</g>
<g id="Layer_91">
</g>
<g id="Layer_92">
</g>
<g id="Layer_93">
</g>
<g id="Layer_94">
</g>
<g id="Layer_95">
</g>
<g id="Layer_96">
</g>
<g id="Layer_97">
</g>
<g id="Layer_98">
</g>
<g id="Layer_99">
</g>
<g id="Layer_100">
</g>
</svg>
