<?xml version="1.0" encoding="utf-8"?>
<!-- Generator: Adobe Illustrator 22.0.0, SVG Export Plug-In . SVG Version: 6.00 Build 0)  -->
<svg version="1.1" xmlns="http://www.w3.org/2000/svg" xmlns:xlink="http://www.w3.org/1999/xlink" x="0px" y="0px"
	 viewBox="0 0 256 256" style="enable-background:new 0 0 256 256;" xml:space="preserve">
<style type="text/css">
	.st0{fill:#F9BD55;}
	.st1{fill:#F4DBCE;}
	.st2{fill:#52565B;}
	.st3{fill:#FD605B;}
	.st4{fill:#F98080;}
	.st5{fill:#F9E63A;}
	.st6{fill:#039BE6;}
	.st7{fill:none;stroke:#000000;stroke-width:5;stroke-linecap:round;stroke-linejoin:round;stroke-miterlimit:10;}
	.st8{fill:#7D3D1A;}
	.st9{fill:#EAA250;}
	.st10{fill:#DD7F57;}
	.st11{fill:#FFC097;}
	.st12{fill:#F49667;}
	.st13{fill:#F89422;}
	.st14{fill:#E3E4E5;}
	.st15{fill:#6E7175;}
	.st16{fill:#46BAF9;}
	.st17{fill:#D9F3FF;}
	.st18{fill:#828487;}
	.st19{fill:#A8AEB2;}
	.st20{fill:#C9CDD1;}
	.st21{fill:#8CD8F9;}
	.st22{fill:#1AA7E5;}
	.st23{fill:#ACE7FC;}
	.st24{fill:#FFFFFF;}
	.st25{fill:#9E512B;}
	.st26{fill:#7ED5FC;}
	.st27{fill:#7CCC4E;}
	.st28{fill:#3AA03A;}
	.st29{fill:#FCB1B1;}
	.st30{fill:#F76E23;}
	.st31{fill:#C16A44;}
	.st32{fill:#B796EA;}
</style>
<g id="Layer_1">
</g>
<g id="Layer_2">
</g>
<g id="Layer_3">
</g>
<g id="Layer_4">
</g>
<g id="Layer_5">
</g>
<g id="Layer_6">
</g>
<g id="Layer_7">
</g>
<g id="Layer_8">
</g>
<g id="Layer_9">
</g>
<g id="Layer_10">
</g>
<g id="Layer_11">
</g>
<g id="Layer_12">
</g>
<g id="Layer_13">
</g>
<g id="Layer_14">
</g>
<g id="Layer_15">
</g>
<g id="Layer_16">
</g>
<g id="Layer_17">
</g>
<g id="Layer_18">
</g>
<g id="Layer_19">
</g>
<g id="Layer_20">
</g>
<g id="Layer_21">
</g>
<g id="Layer_22">
</g>
<g id="Layer_23">
</g>
<g id="Layer_24">
</g>
<g id="Layer_25">
</g>
<g id="Layer_26">
</g>
<g id="Layer_27">
</g>
<g id="Layer_28">
</g>
<g id="Layer_29">
</g>
<g id="Layer_30">
</g>
<g id="Layer_31">
	<g>
		<path class="st25" d="M239.675,136.319l-3.343-8.118c-1.23-2.988-4.444-4.636-7.589-3.892
			c-21.582,5.109-100.728,29.655-143.081-5.748c-1.806-1.51-4.53-0.139-4.364,2.209c0.657,9.264,5.091,26.381,28.141,32.329
			c30.627,7.904,96.938-0.156,127.529-10.792C239.423,141.453,240.665,138.723,239.675,136.319z"/>
		<path class="st8" d="M172.472,135.869l-3.688-28.496c-0.438-3.383-3.319-5.916-6.731-5.916h-14.481
			c-3.411,0-6.293,2.533-6.731,5.916l-3.825,29.559C148.899,137.81,161.01,137.212,172.472,135.869z"/>
		<g>
			<path class="st8" d="M168.785,107.374l3.686,28.484c12.225-1.432,23.715-3.692,33.39-5.905l-10.064-28.245
				c-1.145-3.214-4.498-5.078-7.832-4.355l-14.152,3.069c-2.858,0.62-4.935,2.977-5.289,5.779
				C168.643,106.578,168.732,106.969,168.785,107.374z"/>
		</g>
		<g>
			<path class="st8" d="M208.42,88.996l-9.359,4.57c-2.707,1.322-4.173,4.237-3.728,7.127c0.178,0.322,0.337,0.658,0.464,1.015
				l10.064,28.245c9.905-2.265,17.919-4.469,22.883-5.643c0.731-0.173,1.464-0.205,2.177-0.132
				C226.579,113.594,219.455,100.153,208.42,88.996z"/>
		</g>
		<g>
			<path class="st8" d="M140.842,107.374c0.063-0.49,0.183-0.959,0.344-1.408c-0.438-2.697-2.477-4.941-5.255-5.544l-14.152-3.069
				c-3.334-0.723-6.687,1.141-7.832,4.355l-9.927,27.862c10.254,4.282,21.518,6.502,32.999,7.351L140.842,107.374z"/>
		</g>
		<g>
			<path class="st8" d="M113.947,101.707c0.127-0.357,0.285-0.693,0.464-1.015c0.445-2.89-1.021-5.805-3.728-7.127l-7.445-3.635
				c-8.639,9.121-14.458,19.52-18.236,28.223c0.228,0.101,0.451,0.233,0.66,0.408c5.556,4.644,11.752,8.241,18.361,11
				L113.947,101.707z"/>
		</g>
		<g>
			<path class="st8" d="M187.965,97.352c2.964-0.643,5.939,0.762,7.368,3.34c-0.445-2.89,1.021-5.805,3.728-7.127l9.357-4.569
				c-9.446-9.537-18.369-13.964-22.718-15.722c-5.298-2.141-13.613-2.23-13.613,3.436c0,5.061,1.401,14.617,3.665,23.291
				L187.965,97.352z"/>
		</g>
		<g>
			<path class="st8" d="M127.91,72.796c-10.058,4.136-18.165,10.271-24.67,17.135l7.443,3.634c2.707,1.322,4.173,4.237,3.728,7.127
				c1.429-2.578,4.404-3.983,7.368-3.34l11.615,2.519c2.244-8.639,3.63-18.125,3.63-23.161
				C137.023,72.394,131.981,71.122,127.91,72.796z"/>
		</g>
		<g>
			<path class="st8" d="M137.023,76.71c0,5.036-1.386,14.522-3.63,23.161l2.537,0.55c2.778,0.602,4.817,2.846,5.255,5.544
				c0.945-2.653,3.47-4.508,6.387-4.508h14.481c3.004,0,5.594,1.964,6.47,4.742c0.354-2.801,2.432-5.159,5.289-5.779l1.939-0.421
				c-2.264-8.674-3.665-18.23-3.665-23.291c0-1.996,1.044-3.266,2.612-3.995c-16.782-10.5-32.613-4-39.842,0.205
				C136.155,73.671,137.023,74.926,137.023,76.71z"/>
		</g>
		<g>
			<path class="st0" d="M193.302,152.172c0.005-0.001,0.009-0.001,0.014-0.002c-29.953,4.481-63.935,5.966-83.572,1
				c-2.087,1.496-3.964,3.42-5.118,5.849c5.037,9.25,15.999,13.109,25.512,9.561c2.547-0.95,5.458-0.428,7.537,1.323
				c7.719,6.498,18.964,6.499,26.684,0c2.08-1.751,4.99-2.273,7.537-1.323c8.066,3.009,17.297,0.739,23.045-5.975
				C192.443,159.397,191.126,155.835,193.302,152.172z"/>
		</g>
		<path class="st0" d="M134.74,156.156l-1.596,11.969c1.639,0.085,3.244,0.695,4.53,1.778c7.719,6.498,18.964,6.499,26.684,0
			c1.184-0.997,2.64-1.58,4.143-1.735l-2.084-12.921C155.402,156.118,144.562,156.474,134.74,156.156z"/>
		<path class="st28" d="M90.112,142.179c-6.593-7.179-8.413-15.755-8.814-21.41c-0.012-0.166-0.006-0.326,0.01-0.482
			c-1.875-0.404-3.802-1.032-5.652-2.01c0,0-6.237-3.118-9.403-13.232c-3.342-10.677-14.089-16.695-22.137-17.73
			c-0.854-0.11-1.668-0.408-2.393-0.873c-4.11-2.645-9.446-2.443-13.373,0.539c-0.604,0.459-1.299,0.793-2.039,0.962
			c-8.736,1.986-18.4,7.865-23.757,24.54c-0.245,0.761,0.347,1.538,1.145,1.473c1.556-0.126,4.692,0.019,5.958,0.593
			c0,0,5.801,14.039,17.84,16.838c12.04,2.799,22.239-2.082,33.279,5.017c0,0,6.591,8.021,21.453,11.489
			C84.121,145.925,86.688,144,90.112,142.179z"/>
		<path class="st28" d="M109.743,153.17c-0.099-0.025-0.206-0.046-0.304-0.071c-8.98-2.318-15.126-6.333-19.332-10.917
			c-20.718,11.017-10.254,25.892-6.049,30.676c0.606,0.69,0.242,1.754-0.646,1.989c-6.761,1.791-9.137,6.505-9.955,9.995
			c-0.494,2.107,1.12,4.118,3.284,4.118h22.304c0,0,10.394-3.118,5.197-19.749C101.8,161.399,105.322,156.34,109.743,153.17z"/>
		<path class="st28" d="M222.451,146.52c-8.7,2.153-18.672,4.085-29.149,5.652c-5.032,8.474,8.608,16.406,12.37,20.686
			c0.606,0.69,0.242,1.754-0.646,1.989c-6.761,1.791-9.137,6.505-9.955,9.995c-0.494,2.107,1.12,4.118,3.284,4.118h22.304
			c0,0,11.954-11.434,3.638-21.828C216.683,157.614,219.154,150.638,222.451,146.52z"/>
		<path class="st28" d="M251.547,152.858c-6.916-3.127-12.389-7.263-15.75-10.161c-3.949,1.327-8.441,2.609-13.346,3.823
			c-1.377,1.72-2.606,3.939-3.02,6.632c9.551,6.352,21.975,6.566,30.982,5.533C253.888,158.286,254.656,154.264,251.547,152.858z"/>
		<path class="st28" d="M73.456,184.842c0.818-3.49,3.194-8.205,9.955-9.995c0.888-0.235,1.252-1.299,0.646-1.989
			c-3.52-4.005-11.415-15.082-1.74-25.047c-0.001-0.001-0.002-0.001-0.003-0.002c-0.027,0.028-0.058,0.056-0.085,0.084
			c-4.019-0.938-7.413-2.211-10.256-3.566c-15.83,10.723-6.407,24.052-2.47,28.531c0.606,0.69,0.242,1.754-0.646,1.989
			c-6.761,1.791-9.137,6.505-9.955,9.995c-0.494,2.107,1.12,4.118,3.284,4.118h14.552C74.576,188.96,72.962,186.949,73.456,184.842z
			"/>
		<g>
			<path class="st28" d="M195.071,184.842c0.818-3.49,3.194-8.205,9.955-9.995c0.888-0.235,1.252-1.299,0.646-1.989
				c-2.136-2.43-7.452-6.037-10.732-10.252c-2.369,2.767-5.335,4.766-8.562,5.965c1.931,1.661,3.709,3.112,4.741,4.287
				c0.606,0.69,0.242,1.754-0.646,1.989c-6.761,1.791-9.137,6.505-9.955,9.995c-0.494,2.107,1.12,4.118,3.284,4.118h14.552
				C196.191,188.96,194.577,186.949,195.071,184.842z"/>
		</g>
		<path class="st7" d="M9.658,114.55c0,0,6.185,1.123,12.17,4.189c6.48,3.319,14.029,0.089,14.029,0.089"/>
		<line class="st7" x1="13.577" y1="105.49" x2="15.697" y2="104.17"/>
		<path class="st7" d="M29.844,99.01c0.626-2.735,3.351-4.444,6.086-3.817c2.735,0.626,4.444,3.351,3.817,6.086"/>
		<path class="st7" d="M239.675,136.319l-3.343-8.118c-1.23-2.988-4.444-4.636-7.589-3.892
			c-21.582,5.109-100.728,29.655-143.081-5.748c-1.806-1.51-4.53-0.139-4.364,2.209c0.657,9.264,5.091,26.381,28.141,32.329
			c30.627,7.904,96.938-0.156,127.529-10.792C239.423,141.453,240.665,138.723,239.675,136.319z"/>
		<path class="st7" d="M90.112,142.179c-6.593-7.179-8.413-15.755-8.814-21.41c-0.012-0.166-0.006-0.326,0.01-0.482
			c-1.875-0.404-3.802-1.032-5.652-2.01c0,0-6.237-3.118-9.403-13.232c-3.342-10.677-14.089-16.695-22.137-17.73
			c-0.854-0.11-1.668-0.408-2.393-0.873c-4.11-2.645-9.446-2.443-13.373,0.539c-0.604,0.459-1.299,0.793-2.039,0.962
			c-8.736,1.986-18.4,7.865-23.757,24.54c-0.245,0.761,0.347,1.538,1.145,1.473c1.556-0.126,4.692,0.019,5.958,0.593
			c0,0,5.801,14.039,17.84,16.838c12.04,2.799,22.239-2.082,33.279,5.017c0,0,6.591,8.021,21.453,11.489
			C84.121,145.925,86.688,144,90.112,142.179z"/>
		<path class="st7" d="M109.743,153.17c-0.099-0.025-0.206-0.046-0.304-0.071c-8.98-2.318-15.126-6.333-19.332-10.917
			c-20.718,11.017-10.254,25.892-6.049,30.676c0.606,0.69,0.242,1.754-0.646,1.989c-6.761,1.791-9.137,6.505-9.955,9.995
			c-0.494,2.107,1.12,4.118,3.284,4.118h22.304c0,0,10.394-3.118,5.197-19.749C101.8,161.399,105.322,156.34,109.743,153.17z"/>
		<path class="st7" d="M222.451,146.52c-8.7,2.153-18.672,4.085-29.149,5.652c-5.032,8.474,8.608,16.406,12.37,20.686
			c0.606,0.69,0.242,1.754-0.646,1.989c-6.761,1.791-9.137,6.505-9.955,9.995c-0.494,2.107,1.12,4.118,3.284,4.118h22.304
			c0,0,11.954-11.434,3.638-21.828C216.683,157.614,219.154,150.638,222.451,146.52z"/>
		<path class="st7" d="M251.547,152.858c-6.916-3.127-12.389-7.263-15.75-10.161c-3.949,1.327-8.441,2.609-13.346,3.823
			c-1.377,1.72-2.606,3.939-3.02,6.632c9.551,6.352,21.975,6.566,30.982,5.533C253.888,158.286,254.656,154.264,251.547,152.858z"/>
		<g>
			<path class="st7" d="M193.302,152.172c0.005-0.001,0.009-0.001,0.014-0.002c-29.953,4.481-63.935,5.966-83.572,1
				c-2.087,1.496-3.964,3.42-5.118,5.849c5.037,9.25,15.999,13.109,25.512,9.561c2.547-0.95,5.458-0.428,7.537,1.323
				c7.719,6.498,18.964,6.499,26.684,0c2.08-1.751,4.99-2.273,7.537-1.323c8.066,3.009,17.297,0.739,23.045-5.975
				C192.443,159.397,191.126,155.835,193.302,152.172z"/>
		</g>
		<path class="st7" d="M119.865,155.025c-1.051-5.157-1.377-12.275,1.445-20.223c-7.299-1.491-14.346-3.71-20.916-6.851
			c-2.751,2.68-6.951,8.346-6.588,17.678c3.905,3.113,8.993,5.756,15.634,7.47C112.563,153.905,116.074,154.537,119.865,155.025z"/>
		<path class="st7" d="M169.468,136.201c-7.602,0.794-15.45,1.241-23.297,1.131c-1.461,4.28-2.182,10.835,1.757,18.873
			c8.595-0.19,17.616-0.779,26.623-1.686C172.07,150.243,169.597,144.043,169.468,136.201z"/>
		<path class="st7" d="M215.308,127.69c-5.862,1.46-12.816,3.106-20.489,4.621c-0.435,4.275,0.22,11.15,6.234,18.621
			c9.083-1.553,17.604-3.369,25.027-5.342C222.438,142.047,217.792,136.177,215.308,127.69z"/>
		<path class="st7" d="M172.472,135.869l-3.688-28.496c-0.438-3.383-3.319-5.916-6.731-5.916h-14.481
			c-3.411,0-6.293,2.533-6.731,5.916l-3.825,29.559C148.899,137.81,161.01,137.212,172.472,135.869z"/>
		<g>
			<path class="st7" d="M168.785,107.374l3.686,28.484c12.225-1.432,23.715-3.692,33.39-5.905l-10.064-28.245
				c-1.145-3.214-4.498-5.078-7.832-4.355l-14.152,3.069c-2.858,0.62-4.935,2.977-5.289,5.779
				C168.643,106.578,168.732,106.969,168.785,107.374z"/>
		</g>
		<g>
			<path class="st7" d="M208.42,88.996l-9.359,4.57c-2.707,1.322-4.173,4.237-3.728,7.127c0.178,0.322,0.337,0.658,0.464,1.015
				l10.064,28.245c9.905-2.265,17.919-4.469,22.883-5.643c0.731-0.173,1.464-0.205,2.177-0.132
				C226.579,113.594,219.455,100.153,208.42,88.996z"/>
		</g>
		<g>
			<path class="st7" d="M140.842,107.374c0.063-0.49,0.183-0.959,0.344-1.408c-0.438-2.697-2.477-4.941-5.255-5.544l-14.152-3.069
				c-3.334-0.723-6.687,1.141-7.832,4.355l-9.927,27.862c10.254,4.282,21.518,6.502,32.999,7.351L140.842,107.374z"/>
		</g>
		<g>
			<path class="st7" d="M113.947,101.707c0.127-0.357,0.285-0.693,0.464-1.015c0.445-2.89-1.021-5.805-3.728-7.127l-7.445-3.635
				c-8.639,9.121-14.458,19.52-18.236,28.223c0.228,0.101,0.451,0.233,0.66,0.408c5.556,4.644,11.752,8.241,18.361,11
				L113.947,101.707z"/>
		</g>
		<g>
			<path class="st7" d="M187.965,97.352c2.964-0.643,5.939,0.762,7.368,3.34c-0.445-2.89,1.021-5.805,3.728-7.127l9.357-4.569
				c-9.446-9.537-18.369-13.964-22.718-15.722c-5.298-2.141-13.613-2.23-13.613,3.436c0,5.061,1.401,14.617,3.665,23.291
				L187.965,97.352z"/>
		</g>
		<g>
			<path class="st7" d="M127.91,72.796c-10.058,4.136-18.165,10.271-24.67,17.135l7.443,3.634c2.707,1.322,4.173,4.237,3.728,7.127
				c1.429-2.578,4.404-3.983,7.368-3.34l11.615,2.519c2.244-8.639,3.63-18.125,3.63-23.161
				C137.023,72.394,131.981,71.122,127.91,72.796z"/>
		</g>
		<g>
			<path class="st7" d="M137.023,76.71c0,5.036-1.386,14.522-3.63,23.161l2.537,0.55c2.778,0.602,4.817,2.846,5.255,5.544
				c0.945-2.653,3.47-4.508,6.387-4.508h14.481c3.004,0,5.594,1.964,6.47,4.742c0.354-2.801,2.432-5.159,5.289-5.779l1.939-0.421
				c-2.264-8.674-3.665-18.23-3.665-23.291c0-1.996,1.044-3.266,2.612-3.995c-16.782-10.5-32.613-4-39.842,0.205
				C136.155,73.671,137.023,74.926,137.023,76.71z"/>
		</g>
		<path class="st7" d="M73.456,184.842c0.818-3.49,3.194-8.205,9.955-9.995c0.888-0.235,1.252-1.299,0.646-1.989
			c-3.52-4.005-11.415-15.082-1.74-25.047c-0.001-0.001-0.002-0.001-0.003-0.002c-0.027,0.028-0.058,0.056-0.085,0.084
			c-4.019-0.938-7.413-2.211-10.256-3.566c-15.83,10.723-6.407,24.052-2.47,28.531c0.606,0.69,0.242,1.754-0.646,1.989
			c-6.761,1.791-9.137,6.505-9.955,9.995c-0.494,2.107,1.12,4.118,3.284,4.118h14.552C74.576,188.96,72.962,186.949,73.456,184.842z
			"/>
		<g>
			<path class="st7" d="M195.071,184.842c0.818-3.49,3.194-8.205,9.955-9.995c0.888-0.235,1.252-1.299,0.646-1.989
				c-2.136-2.43-7.452-6.037-10.732-10.252c-2.369,2.767-5.335,4.766-8.562,5.965c1.931,1.661,3.709,3.112,4.741,4.287
				c0.606,0.69,0.242,1.754-0.646,1.989c-6.761,1.791-9.137,6.505-9.955,9.995c-0.494,2.107,1.12,4.118,3.284,4.118h14.552
				C196.191,188.96,194.577,186.949,195.071,184.842z"/>
		</g>
		<path class="st7" d="M134.74,156.156l-1.596,11.969c1.639,0.085,3.244,0.695,4.53,1.778c7.719,6.498,18.964,6.499,26.684,0
			c1.184-0.997,2.64-1.58,4.143-1.735l-2.084-12.921C155.402,156.118,144.562,156.474,134.74,156.156z"/>
	</g>
</g>
<g id="Layer_32">
</g>
<g id="Layer_33">
</g>
<g id="Layer_34">
</g>
<g id="Layer_35">
</g>
<g id="Layer_36">
</g>
<g id="Layer_37">
</g>
<g id="Layer_38">
</g>
<g id="Layer_39">
</g>
<g id="Layer_40">
</g>
<g id="Layer_41">
</g>
<g id="Layer_42">
</g>
<g id="Layer_43">
</g>
<g id="Layer_44">
</g>
<g id="Layer_45">
</g>
<g id="Layer_46">
</g>
<g id="Layer_47">
</g>
<g id="Layer_48">
</g>
<g id="Layer_49">
</g>
<g id="Layer_50">
</g>
<g id="Layer_51">
</g>
<g id="Layer_52">
</g>
<g id="Layer_53">
</g>
<g id="Layer_54">
</g>
<g id="Layer_55">
</g>
<g id="Layer_56">
</g>
<g id="Layer_57">
</g>
<g id="Layer_58">
</g>
<g id="Layer_59">
</g>
<g id="Layer_60">
</g>
<g id="Layer_61">
</g>
<g id="Layer_62">
</g>
<g id="Layer_63">
</g>
<g id="Layer_64">
</g>
<g id="Layer_65">
</g>
<g id="Layer_66">
</g>
<g id="Layer_67">
</g>
<g id="Layer_68">
</g>
<g id="Layer_69">
</g>
<g id="Layer_70">
</g>
<g id="Layer_71">
</g>
<g id="Layer_72">
</g>
<g id="Layer_73">
</g>
<g id="Layer_74">
</g>
<g id="Layer_75">
</g>
<g id="Layer_76">
</g>
<g id="Layer_77">
</g>
<g id="Layer_78">
</g>
<g id="Layer_79">
</g>
<g id="Layer_80">
</g>
<g id="Layer_81">
</g>
<g id="Layer_82">
</g>
<g id="Layer_83">
</g>
<g id="Layer_84">
</g>
<g id="Layer_85">
</g>
<g id="Layer_86">
</g>
<g id="Layer_87">
</g>
<g id="Layer_88">
</g>
<g id="Layer_89">
</g>
<g id="Layer_90">
</g>
<g id="Layer_91">
</g>
<g id="Layer_92">
</g>
<g id="Layer_93">
</g>
<g id="Layer_94">
</g>
<g id="Layer_95">
</g>
<g id="Layer_96">
</g>
<g id="Layer_97">
</g>
<g id="Layer_98">
</g>
<g id="Layer_99">
</g>
<g id="Layer_100">
</g>
</svg>
