<?xml version="1.0" encoding="utf-8"?>
<!-- Generator: Adobe Illustrator 22.0.0, SVG Export Plug-In . SVG Version: 6.00 Build 0)  -->
<svg version="1.1" xmlns="http://www.w3.org/2000/svg" xmlns:xlink="http://www.w3.org/1999/xlink" x="0px" y="0px"
	 viewBox="0 0 256 256" style="enable-background:new 0 0 256 256;" xml:space="preserve">
<style type="text/css">
	.st0{fill:#F9BD55;}
	.st1{fill:#F4DBCE;}
	.st2{fill:#52565B;}
	.st3{fill:#FD605B;}
	.st4{fill:#F98080;}
	.st5{fill:#F9E63A;}
	.st6{fill:#039BE6;}
	.st7{fill:none;stroke:#000000;stroke-width:5;stroke-linecap:round;stroke-linejoin:round;stroke-miterlimit:10;}
	.st8{fill:#7D3D1A;}
	.st9{fill:#EAA250;}
	.st10{fill:#DD7F57;}
	.st11{fill:#FFC097;}
	.st12{fill:#F49667;}
	.st13{fill:#F89422;}
	.st14{fill:#E3E4E5;}
	.st15{fill:#6E7175;}
	.st16{fill:#46BAF9;}
	.st17{fill:#D9F3FF;}
	.st18{fill:#828487;}
	.st19{fill:#A8AEB2;}
	.st20{fill:#C9CDD1;}
	.st21{fill:#8CD8F9;}
	.st22{fill:#1AA7E5;}
	.st23{fill:#ACE7FC;}
	.st24{fill:#FFFFFF;}
	.st25{fill:#9E512B;}
	.st26{fill:#7ED5FC;}
	.st27{fill:#7CCC4E;}
	.st28{fill:#3AA03A;}
	.st29{fill:#FCB1B1;}
	.st30{fill:#F76E23;}
	.st31{fill:#C16A44;}
	.st32{fill:#B796EA;}
</style>
<g id="Layer_1">
</g>
<g id="Layer_2">
</g>
<g id="Layer_3">
</g>
<g id="Layer_4">
</g>
<g id="Layer_5">
</g>
<g id="Layer_6">
</g>
<g id="Layer_7">
</g>
<g id="Layer_8">
</g>
<g id="Layer_9">
</g>
<g id="Layer_10">
</g>
<g id="Layer_11">
</g>
<g id="Layer_12">
	<g>
		<path class="st2" d="M188.083,78.169c-3.057-16.318-8.78-23.704-11.055-26.091c-0.419-0.439-0.157-1.161,0.444-1.246
			c0.904-0.128,1.756-0.103,2.457-0.027c0.645,0.071,1.045-0.679,0.656-1.198c-8.989-11.982-18.837-16.543-22.183-17.823
			c-0.537-0.206-0.652-0.931-0.19-1.275c1.304-0.971,2.686-1.462,3.75-1.711c0.636-0.149,0.763-1,0.215-1.355
			c-6.979-4.518-13.634-6.515-19.187-7.261c-1.842-0.248-2.82-0.43-1.872-2.029c0.28-0.473,0.575-0.928,0.882-1.346
			c0.24-0.327,0.051-0.786-0.348-0.856c-2.254-0.395-8.197-2.969-10.702,0.168c-0.25,0.313-0.722,0.289-0.915-0.063
			c-3.336-6.07-16.456-1.901-20.382-1.35c-0.447,0.063-0.627,0.606-0.308,0.925c2.115,2.107,3.921,2.158,5.142,4.377
			c-5.83,0.58-13.054,2.511-20.662,7.435c-0.548,0.355-0.421,1.206,0.215,1.355c1.065,0.249,2.446,0.74,3.75,1.711
			c0.462,0.344,0.348,1.069-0.19,1.275c-3.346,1.28-13.194,5.841-22.183,17.823c-0.389,0.519,0.011,1.268,0.656,1.198
			c0.7-0.077,1.553-0.101,2.457,0.027c0.601,0.085,0.862,0.807,0.444,1.246c-2.275,2.387-7.998,9.774-11.055,26.091
			c-0.102,0.544,0.406,1.009,0.936,0.85c1.836-0.548,5.717-1.331,10.745-0.249c0.427,0.092,0.678,0.539,0.538,0.953
			c-0.777,2.295-2.87,9.501-1.874,18.095c0.076,0.657,0.91,0.908,1.321,0.39c1.088-1.374,2.98-3.392,5.503-4.67
			c0.463-0.235,1.02,0.057,1.083,0.573c0.4,3.308,2.206,14.083,9.403,23.357c0.353,0.455,1.072,0.342,1.278-0.196
			c0.425-1.112,1.204-2.792,2.475-4.357c0.363-0.447,1.078-0.319,1.27,0.223c1.593,4.49,8.32,20.419,25.567,27.328
			c1.178,0.472,2.5,0.472,3.679,0c17.247-6.909,23.974-22.838,25.567-27.328c0.192-0.542,0.908-0.67,1.27-0.223
			c1.271,1.565,2.05,3.245,2.475,4.357c0.206,0.538,0.925,0.651,1.278,0.196c7.197-9.274,9.002-20.05,9.403-23.357
			c0.062-0.516,0.619-0.808,1.083-0.573c2.522,1.279,4.414,3.297,5.503,4.67c0.411,0.518,1.245,0.268,1.321-0.39
			c0.996-8.594-1.096-15.8-1.873-18.095c-0.14-0.414,0.11-0.861,0.538-0.953c5.028-1.082,8.909-0.299,10.745,0.249
			C187.677,79.178,188.185,78.713,188.083,78.169z"/>
		<path class="st14" d="M136.936,71.421c-4.495-7.705-2.864-13.66-1.369-16.673v-0.924c0-4.045-3.279-7.324-7.324-7.324
			s-7.324,3.279-7.324,7.324v0.925c1.486,3.033,3.062,8.958-1.401,16.608c-6.693,11.474-22.38,24.574-1.112,39.113
			c4.167,2.849,9.82-0.069,9.82-5.116l0-0.951v0.064v0.951c0,5.047,5.654,7.965,9.82,5.116
			C159.316,95.994,143.629,82.895,136.936,71.421z"/>
		<path class="st2" d="M137.289,97.237c0,2.791-4.762,6.738-9.289,6.738s-9.289-3.947-9.289-6.738c0-2.791,4.762-3.006,9.289-3.006
			S137.289,94.446,137.289,97.237z"/>
		<path class="st3" d="M128.227,107.374v-0.064c0,5.579-5.995,5.808-10.562,2.634c1.573,7.25,5.594,12.422,10.328,12.422
			c4.638,0,8.595-4.966,10.232-11.987C133.745,113.155,128.227,112.726,128.227,107.374z"/>
		<g>
			<path class="st2" d="M170.576,237.566c-2.922-1.378-5.034-4.044-5.633-7.219c-3.186-16.901-0.811-33.466,6.402-60.514
				c5.61-21.039,3.415-37.189,1.559-45.076c-1.6-0.216-3.673-0.239-6.087,0.348c-0.343,0.083-0.544,0.489-0.431,0.864
				c0.623,2.08,2.301,8.61,1.503,16.397c-0.061,0.595-0.73,0.823-1.059,0.353c-0.873-1.245-2.39-3.073-4.413-4.232
				c-0.372-0.213-0.818,0.052-0.868,0.519c-0.321,2.997-1.769,12.762-7.541,21.165c-0.283,0.412-0.86,0.31-1.025-0.178
				c-0.341-1.007-0.966-2.53-1.985-3.948c-0.291-0.405-0.864-0.289-1.019,0.202c-1.277,4.068-6.672,18.503-20.504,24.763
				c-0.945,0.428-2.005,0.428-2.95,0c-13.832-6.26-19.227-20.695-20.504-24.763c-0.154-0.491-0.728-0.607-1.019-0.202
				c-1.019,1.418-1.644,2.94-1.985,3.948c-0.165,0.488-0.742,0.59-1.025,0.178c-5.772-8.404-7.22-18.168-7.541-21.165
				c-0.05-0.467-0.497-0.732-0.868-0.519c-2.023,1.159-3.54,2.987-4.413,4.232c-0.33,0.47-0.998,0.242-1.059-0.353
				c-0.799-7.788,0.879-14.318,1.503-16.397c0.112-0.375-0.088-0.781-0.431-0.864c-2.413-0.587-4.487-0.564-6.087-0.348
				c-1.856,7.886-4.052,24.037,1.559,45.076c7.213,27.049,9.587,43.613,6.402,60.514c-0.598,3.174-2.711,5.841-5.633,7.219
				c-3.307,1.56-7.084,5.105-5.527,13.097c0.324,1.661,1.819,2.837,3.511,2.837h19.902c3.615,0,6.546-2.931,6.546-6.546v-11.599
				c0,0,7.056,4.032,18.145,4.032s18.145-4.032,18.145-4.032v11.599c0,3.615,2.931,6.546,6.546,6.546h19.902
				c1.693,0,3.188-1.175,3.511-2.837C177.661,242.671,173.884,239.126,170.576,237.566z"/>
		</g>
		<path class="st14" d="M128,239.387c11.088,0,18.145-4.032,18.145-4.032l-1.512-27.217c0,0,4.032-13.104,4.032-23.185
			l-0.109-24.863c-2.542,6.016-8.199,15.997-19.08,20.922c-0.945,0.428-2.005,0.428-2.95,0c-11.042-4.998-16.704-15.2-19.19-21.184
			v25.125c0,10.08,4.032,23.185,4.032,23.185l-1.512,27.217C109.855,235.355,116.912,239.387,128,239.387z"/>
		<path class="st14" d="M162.582,27.444c0.549,0.355,0.421,1.206-0.215,1.355c-1.064,0.249-2.446,0.74-3.75,1.711
			c-0.462,0.344-0.348,1.069,0.19,1.275c2.563,0.981,8.944,3.902,15.83,10.594c5.777-13.823,6.152-27.795,1.742-37.026
			c-0.959-2.007-3.375-3.207-5.573-2.759c-8.304,1.692-17.075,8.331-23.826,18.228C151.718,21.867,157.047,23.861,162.582,27.444z"
			/>
		<path class="st14" d="M98.005,31.784c0.538-0.206,0.652-0.931,0.19-1.275c-1.304-0.971-2.686-1.462-3.75-1.711
			c-0.636-0.149-0.764-1-0.215-1.355c5.157-3.338,10.136-5.298,14.626-6.397C102.127,11.285,93.43,4.743,85.194,3.065
			c-2.198-0.448-4.614,0.752-5.573,2.759c-4.435,9.283-4.029,23.36,1.843,37.261C88.618,35.89,95.354,32.799,98.005,31.784z"/>
		<path class="st2" d="M88.015,13.937h-3.769c0,0,7.374,6.034,8.552,20.361c2.268-1.295,4.1-2.09,5.208-2.515
			c0.538-0.206,0.652-0.931,0.19-1.275c-1.304-0.971-2.686-1.462-3.75-1.711c-0.636-0.149-0.764-1-0.215-1.355
			c5.159-3.339,10.14-5.299,14.631-6.398c-6.728-9.765-15.43-16.303-23.666-17.981c-2.198-0.448-4.614,0.752-5.573,2.759
			c-0.012,0.025-0.022,0.053-0.034,0.078C81.758,6.684,84.885,8.722,88.015,13.937z"/>
		<path class="st2" d="M162.582,27.444c0.549,0.355,0.421,1.206-0.215,1.355c-1.064,0.249-2.446,0.74-3.75,1.711
			c-0.462,0.344-0.348,1.069,0.19,1.275c0.972,0.372,2.505,1.033,4.394,2.06c1.174-14.34,8.554-20.378,8.554-20.378h-3.769
			c3.129-5.215,6.256-7.253,8.427-8.035c-0.012-0.025-0.022-0.053-0.034-0.078c-0.959-2.007-3.375-3.207-5.573-2.759
			c-8.305,1.692-17.082,8.326-23.833,18.226C151.713,21.865,157.044,23.859,162.582,27.444z"/>
		<path class="st2" d="M183.82,228.446c-0.879-0.879-1.474-1.881-1.874-2.869c-0.898-2.219-0.85-4.701-0.072-6.965
			c2.067-6.018,7.735-24.852,2.474-37.128c-3.493-8.151-9.554-8.268-14.288-6.738c-6.2,24.191-8.104,39.748-5.116,55.601
			c0.598,3.174,2.711,5.841,5.633,7.219c2.127,1.003,4.441,2.836,5.412,6.136c6.12,1.88,22.078,3.118,22.078-6.286
			C198.067,227.919,186.986,231.612,183.82,228.446z"/>
		<path class="st2" d="M85.424,237.566c2.922-1.378,5.034-4.044,5.633-7.219c2.988-15.853,1.084-31.41-5.116-55.601
			c-4.734-1.53-10.794-1.413-14.288,6.738c-5.261,12.276,0.407,31.11,2.474,37.128c0.777,2.264,0.826,4.746-0.072,6.965
			c-0.4,0.988-0.994,1.99-1.874,2.869c-3.166,3.166-14.247-0.528-14.247,8.97c0,9.404,15.958,8.166,22.078,6.286
			C80.983,240.402,83.297,238.569,85.424,237.566z"/>
		<g>
			<path class="st14" d="M160.429,117.469c-0.353,0.455-1.072,0.342-1.278-0.196c-0.425-1.112-1.204-2.792-2.475-4.357
				c-0.363-0.447-1.078-0.319-1.27,0.223c-1.593,4.49-8.32,20.419-25.567,27.328c-1.178,0.472-2.5,0.472-3.679,0
				c-17.247-6.909-23.974-22.838-25.567-27.328c-0.192-0.542-0.908-0.67-1.27-0.223c-1.271,1.565-2.05,3.245-2.475,4.357
				c-0.206,0.538-0.925,0.651-1.278,0.196c-4.045-5.212-6.386-10.898-7.733-15.467c-2.141,2.959-5.891,9.693-8.024,22.558
				c-0.082,0.493,0.325,0.914,0.751,0.77c1.472-0.497,4.585-1.206,8.617-0.226c0.343,0.083,0.544,0.489,0.431,0.864
				c-0.623,2.08-2.301,8.61-1.503,16.397c0.061,0.595,0.73,0.823,1.059,0.353c0.873-1.245,2.39-3.073,4.413-4.232
				c0.372-0.213,0.818,0.052,0.868,0.519c0.321,2.997,1.769,12.762,7.541,21.165c0.283,0.412,0.86,0.31,1.025-0.178
				c0.341-1.007,0.966-2.53,1.985-3.948c0.291-0.405,0.864-0.289,1.019,0.202c1.277,4.068,6.672,18.503,20.504,24.763
				c0.945,0.428,2.005,0.428,2.95,0c13.832-6.26,19.227-20.695,20.504-24.763c0.154-0.491,0.728-0.607,1.019-0.202
				c1.019,1.418,1.644,2.94,1.985,3.948c0.165,0.488,0.742,0.59,1.025,0.178c5.772-8.404,7.22-18.168,7.541-21.165
				c0.05-0.467,0.497-0.732,0.868-0.519c2.023,1.159,3.54,2.987,4.413,4.232c0.33,0.47,0.998,0.242,1.059-0.353
				c0.799-7.788-0.879-14.318-1.503-16.397c-0.112-0.375,0.088-0.781,0.431-0.864c4.032-0.981,7.145-0.271,8.617,0.226
				c0.425,0.144,0.833-0.277,0.751-0.77c-2.133-12.865-5.883-19.6-8.024-22.558C166.815,106.571,164.474,112.257,160.429,117.469z"
				/>
		</g>
		<path class="st14" d="M222.377,211.991c-8.336-7.731-10.328-18.811-10.764-22.355c-0.074-0.605,0.396-1.136,1.005-1.136h0.573
			c0.68,0,1.155-0.654,0.97-1.308c-3.46-12.214-13.266-16.704-17.58-18.121c-0.798-0.262-0.935-1.335-0.236-1.801l2.695-1.797
			c0.659-0.439,0.577-1.429-0.14-1.767c-9.978-4.707-18.769-4.364-25.659-2.344c-0.5,2.727-1.116,5.546-1.896,8.471l-1.286,4.913
			c4.734-1.53,10.794-1.413,14.288,6.738c1.787,4.171,2.311,9.098,2.146,14.023c2.825,1.455,6.168,3.936,8.927,8.181
			c0.459,0.706,1.519,0.602,1.807-0.19l0.977-2.686c0.272-0.749,1.261-0.9,1.747-0.269c6.42,8.344,16.075,11.81,21.492,13.163
			C222.45,213.958,223.138,212.696,222.377,211.991z"/>
		<path class="st7" d="M188.083,78.169c-3.057-16.318-8.78-23.704-11.055-26.091c-0.419-0.439-0.157-1.161,0.444-1.246
			c0.904-0.128,1.756-0.103,2.457-0.027c0.645,0.071,1.045-0.679,0.656-1.198c-8.989-11.982-18.837-16.543-22.183-17.823
			c-0.537-0.206-0.652-0.931-0.19-1.275c1.304-0.971,2.686-1.462,3.75-1.711c0.636-0.149,0.763-1,0.215-1.355
			c-6.979-4.518-13.634-6.515-19.187-7.261c-1.842-0.248-2.82-0.43-1.872-2.029c0.28-0.473,0.575-0.928,0.882-1.346
			c0.24-0.327,0.051-0.786-0.348-0.856c-2.254-0.395-8.197-2.969-10.702,0.168c-0.25,0.313-0.722,0.289-0.915-0.063
			c-3.336-6.07-16.456-1.901-20.382-1.35c-0.447,0.063-0.627,0.606-0.308,0.925c2.115,2.107,3.921,2.158,5.142,4.377
			c-5.83,0.58-13.054,2.511-20.662,7.435c-0.548,0.355-0.421,1.206,0.215,1.355c1.065,0.249,2.446,0.74,3.75,1.711
			c0.462,0.344,0.348,1.069-0.19,1.275c-3.346,1.28-13.194,5.841-22.183,17.823c-0.389,0.519,0.011,1.268,0.656,1.198
			c0.7-0.077,1.553-0.101,2.457,0.027c0.601,0.085,0.862,0.807,0.444,1.246c-2.275,2.387-7.998,9.774-11.055,26.091
			c-0.102,0.544,0.406,1.009,0.936,0.85c1.836-0.548,5.717-1.331,10.745-0.249c0.427,0.092,0.678,0.539,0.538,0.953
			c-0.777,2.295-2.87,9.501-1.874,18.095c0.076,0.657,0.91,0.908,1.321,0.39c1.088-1.374,2.98-3.392,5.503-4.67
			c0.463-0.235,1.02,0.057,1.083,0.573c0.4,3.308,2.206,14.083,9.403,23.357c0.353,0.455,1.072,0.342,1.278-0.196
			c0.425-1.112,1.204-2.792,2.475-4.357c0.363-0.447,1.078-0.319,1.27,0.223c1.593,4.49,8.32,20.419,25.567,27.328
			c1.178,0.472,2.5,0.472,3.679,0c17.247-6.909,23.974-22.838,25.567-27.328c0.192-0.542,0.908-0.67,1.27-0.223
			c1.271,1.565,2.05,3.245,2.475,4.357c0.206,0.538,0.925,0.651,1.278,0.196c7.197-9.274,9.002-20.05,9.403-23.357
			c0.062-0.516,0.619-0.808,1.083-0.573c2.522,1.279,4.414,3.297,5.503,4.67c0.411,0.518,1.245,0.268,1.321-0.39
			c0.996-8.594-1.096-15.8-1.873-18.095c-0.14-0.414,0.11-0.861,0.538-0.953c5.028-1.082,8.909-0.299,10.745,0.249
			C187.677,79.178,188.185,78.713,188.083,78.169z"/>
		<path class="st7" d="M162.582,27.444c0.549,0.355,0.421,1.206-0.215,1.355c-1.064,0.249-2.446,0.74-3.75,1.711
			c-0.462,0.344-0.348,1.069,0.19,1.275c2.563,0.981,8.944,3.902,15.83,10.594c5.777-13.823,6.152-27.795,1.742-37.026
			c-0.959-2.007-3.375-3.207-5.573-2.759c-8.304,1.692-17.075,8.331-23.826,18.228C151.718,21.867,157.047,23.861,162.582,27.444z"
			/>
		<path class="st7" d="M98.005,31.784c0.538-0.206,0.652-0.931,0.19-1.275c-1.304-0.971-2.686-1.462-3.75-1.711
			c-0.636-0.149-0.764-1-0.215-1.355c5.157-3.338,10.136-5.298,14.626-6.397C102.127,11.285,93.43,4.743,85.194,3.065
			c-2.198-0.448-4.614,0.752-5.573,2.759c-4.435,9.283-4.029,23.36,1.843,37.261C88.618,35.89,95.354,32.799,98.005,31.784z"/>
		<path class="st7" d="M88.015,13.937h-3.769c0,0,7.374,6.034,8.552,20.361c2.268-1.295,4.1-2.09,5.208-2.515
			c0.538-0.206,0.652-0.931,0.19-1.275c-1.304-0.971-2.686-1.462-3.75-1.711c-0.636-0.149-0.764-1-0.215-1.355
			c5.159-3.339,10.14-5.299,14.631-6.398c-6.728-9.765-15.43-16.303-23.666-17.981c-2.198-0.448-4.614,0.752-5.573,2.759
			c-0.012,0.025-0.022,0.053-0.034,0.078C81.758,6.684,84.885,8.722,88.015,13.937z"/>
		<path class="st7" d="M162.582,27.444c0.549,0.355,0.421,1.206-0.215,1.355c-1.064,0.249-2.446,0.74-3.75,1.711
			c-0.462,0.344-0.348,1.069,0.19,1.275c0.972,0.372,2.505,1.033,4.394,2.06c1.174-14.34,8.554-20.378,8.554-20.378h-3.769
			c3.129-5.215,6.256-7.253,8.427-8.035c-0.012-0.025-0.022-0.053-0.034-0.078c-0.959-2.007-3.375-3.207-5.573-2.759
			c-8.305,1.692-17.082,8.326-23.833,18.226C151.713,21.865,157.044,23.859,162.582,27.444z"/>
		<path class="st7" d="M137.289,97.237c0,2.791-4.762,6.738-9.289,6.738s-9.289-3.947-9.289-6.738c0-2.791,4.762-3.006,9.289-3.006
			S137.289,94.446,137.289,97.237z"/>
		<path class="st7" d="M128.227,104.467v2.907c0,5.643,6.135,5.819,10.72,2.53c19.916-14.288,4.585-27.175-2.012-38.483
			c-4.495-7.705-2.864-13.66-1.369-16.673"/>
		<path class="st7" d="M120.92,54.749c1.486,3.033,3.062,8.958-1.401,16.608c-6.596,11.308-21.928,24.195-2.012,38.483
			c4.585,3.289,10.72,3.113,10.72-2.53v-2.907"/>
		<path class="st7" d="M143.533,49.747c0,0,11.308-4.712,24.501,8.481v-4.712c0,0,11.308,2.827,16.02,11.308"/>
		<path class="st7" d="M112.435,49.747c0,0-11.308-4.712-24.501,8.481v-4.712c0,0-11.308,2.827-16.02,11.308"/>
		<path class="st7" d="M145.176,68.11c-0.01-2.974,2.393-5.392,5.367-5.402c2.974-0.01,5.392,2.393,5.402,5.367"/>
		<path class="st7" d="M100.477,68.092c0-2.974,2.411-5.384,5.384-5.384s5.384,2.411,5.384,5.384"/>
		<path class="st7" d="M128.227,107.374v-0.064c0,5.579-5.995,5.808-10.562,2.634c1.573,7.25,5.594,12.422,10.328,12.422
			c4.638,0,8.595-4.966,10.232-11.987C133.745,113.155,128.227,112.726,128.227,107.374z"/>
		<g>
			<path class="st7" d="M160.429,117.469c-0.353,0.455-1.072,0.342-1.278-0.196c-0.425-1.112-1.204-2.792-2.475-4.357
				c-0.363-0.447-1.078-0.319-1.27,0.223c-1.593,4.49-8.32,20.419-25.567,27.328c-1.178,0.472-2.5,0.472-3.679,0
				c-17.247-6.909-23.974-22.838-25.567-27.328c-0.192-0.542-0.908-0.67-1.27-0.223c-1.271,1.565-2.05,3.245-2.475,4.357
				c-0.206,0.538-0.925,0.651-1.278,0.196c-4.045-5.212-6.386-10.898-7.733-15.467c-2.141,2.959-5.891,9.693-8.024,22.558
				c-0.082,0.493,0.325,0.914,0.751,0.77c1.472-0.497,4.585-1.206,8.617-0.226c0.343,0.083,0.544,0.489,0.431,0.864
				c-0.623,2.08-2.301,8.61-1.503,16.397c0.061,0.595,0.73,0.823,1.059,0.353c0.873-1.245,2.39-3.073,4.413-4.232
				c0.372-0.213,0.818,0.052,0.868,0.519c0.321,2.997,1.769,12.762,7.541,21.165c0.283,0.412,0.86,0.31,1.025-0.178
				c0.341-1.007,0.966-2.53,1.985-3.948c0.291-0.405,0.864-0.289,1.019,0.202c1.277,4.068,6.672,18.503,20.504,24.763
				c0.945,0.428,2.005,0.428,2.95,0c13.832-6.26,19.227-20.695,20.504-24.763c0.154-0.491,0.728-0.607,1.019-0.202
				c1.019,1.418,1.644,2.94,1.985,3.948c0.165,0.488,0.742,0.59,1.025,0.178c5.772-8.404,7.22-18.168,7.541-21.165
				c0.05-0.467,0.497-0.732,0.868-0.519c2.023,1.159,3.54,2.987,4.413,4.232c0.33,0.47,0.998,0.242,1.059-0.353
				c0.799-7.788-0.879-14.318-1.503-16.397c-0.112-0.375,0.088-0.781,0.431-0.864c4.032-0.981,7.145-0.271,8.617,0.226
				c0.425,0.144,0.833-0.277,0.751-0.77c-2.133-12.865-5.883-19.6-8.024-22.558C166.815,106.571,164.474,112.257,160.429,117.469z"
				/>
		</g>
		<g>
			<path class="st7" d="M170.576,237.566c-2.922-1.378-5.034-4.044-5.633-7.219c-3.186-16.901-0.811-33.466,6.402-60.514
				c5.61-21.039,3.415-37.189,1.559-45.076c-1.6-0.216-3.673-0.239-6.087,0.348c-0.343,0.083-0.544,0.489-0.431,0.864
				c0.623,2.08,2.301,8.61,1.503,16.397c-0.061,0.595-0.73,0.823-1.059,0.353c-0.873-1.245-2.39-3.073-4.413-4.232
				c-0.372-0.213-0.818,0.052-0.868,0.519c-0.321,2.997-1.769,12.762-7.541,21.165c-0.283,0.412-0.86,0.31-1.025-0.178
				c-0.341-1.007-0.966-2.53-1.985-3.948c-0.291-0.405-0.864-0.289-1.019,0.202c-1.277,4.068-6.672,18.503-20.504,24.763
				c-0.945,0.428-2.005,0.428-2.95,0c-13.832-6.26-19.227-20.695-20.504-24.763c-0.154-0.491-0.728-0.607-1.019-0.202
				c-1.019,1.418-1.644,2.94-1.985,3.948c-0.165,0.488-0.742,0.59-1.025,0.178c-5.772-8.404-7.22-18.168-7.541-21.165
				c-0.05-0.467-0.497-0.732-0.868-0.519c-2.023,1.159-3.54,2.987-4.413,4.232c-0.33,0.47-0.998,0.242-1.059-0.353
				c-0.799-7.788,0.879-14.318,1.503-16.397c0.112-0.375-0.088-0.781-0.431-0.864c-2.413-0.587-4.487-0.564-6.087-0.348
				c-1.856,7.886-4.052,24.037,1.559,45.076c7.213,27.049,9.587,43.613,6.402,60.514c-0.598,3.174-2.711,5.841-5.633,7.219
				c-3.307,1.56-7.084,5.105-5.527,13.097c0.324,1.661,1.819,2.837,3.511,2.837h19.902c3.615,0,6.546-2.931,6.546-6.546v-11.599
				c0,0,7.056,4.032,18.145,4.032s18.145-4.032,18.145-4.032v11.599c0,3.615,2.931,6.546,6.546,6.546h19.902
				c1.693,0,3.188-1.175,3.511-2.837C177.661,242.671,173.884,239.126,170.576,237.566z"/>
		</g>
		<path class="st7" d="M146.145,235.355l-1.512-27.217c0,0,4.032-13.104,4.032-23.185"/>
		<path class="st7" d="M109.855,235.355l1.512-27.217c0,0-4.032-13.104-4.032-23.185"/>
		<path class="st7" d="M183.82,228.446c-0.879-0.879-1.474-1.881-1.874-2.869c-0.898-2.219-0.85-4.701-0.072-6.965
			c2.067-6.018,7.735-24.852,2.474-37.128c-3.493-8.151-9.554-8.268-14.288-6.738c-6.2,24.191-8.104,39.748-5.116,55.601
			c0.598,3.174,2.711,5.841,5.633,7.219c2.127,1.003,4.441,2.836,5.412,6.136c6.12,1.88,22.078,3.118,22.078-6.286
			C198.067,227.919,186.986,231.612,183.82,228.446z"/>
		<path class="st7" d="M85.424,237.566c2.922-1.378,5.034-4.044,5.633-7.219c2.988-15.853,1.084-31.41-5.116-55.601
			c-4.734-1.53-10.794-1.413-14.288,6.738c-5.261,12.276,0.407,31.11,2.474,37.128c0.777,2.264,0.826,4.746-0.072,6.965
			c-0.4,0.988-0.994,1.99-1.874,2.869c-3.166,3.166-14.247-0.528-14.247,8.97c0,9.404,15.958,8.166,22.078,6.286
			C80.983,240.402,83.297,238.569,85.424,237.566z"/>
		<path class="st7" d="M222.377,211.991c-8.336-7.731-10.328-18.811-10.764-22.355c-0.074-0.605,0.396-1.136,1.005-1.136h0.573
			c0.68,0,1.155-0.654,0.97-1.308c-3.46-12.214-13.266-16.704-17.58-18.121c-0.798-0.262-0.935-1.335-0.236-1.801l2.695-1.797
			c0.659-0.439,0.577-1.429-0.14-1.767c-9.978-4.707-18.769-4.364-25.659-2.344c-0.5,2.727-1.116,5.546-1.896,8.471l-1.286,4.913
			c4.734-1.53,10.794-1.413,14.288,6.738c1.787,4.171,2.311,9.098,2.146,14.023c2.825,1.455,6.168,3.936,8.927,8.181
			c0.459,0.706,1.519,0.602,1.807-0.19l0.977-2.686c0.272-0.749,1.261-0.9,1.747-0.269c6.42,8.344,16.075,11.81,21.492,13.163
			C222.45,213.958,223.138,212.696,222.377,211.991z"/>
	</g>
</g>
<g id="Layer_13">
</g>
<g id="Layer_14">
</g>
<g id="Layer_15">
</g>
<g id="Layer_16">
</g>
<g id="Layer_17">
</g>
<g id="Layer_18">
</g>
<g id="Layer_19">
</g>
<g id="Layer_20">
</g>
<g id="Layer_21">
</g>
<g id="Layer_22">
</g>
<g id="Layer_23">
</g>
<g id="Layer_24">
</g>
<g id="Layer_25">
</g>
<g id="Layer_26">
</g>
<g id="Layer_27">
</g>
<g id="Layer_28">
</g>
<g id="Layer_29">
</g>
<g id="Layer_30">
</g>
<g id="Layer_31">
</g>
<g id="Layer_32">
</g>
<g id="Layer_33">
</g>
<g id="Layer_34">
</g>
<g id="Layer_35">
</g>
<g id="Layer_36">
</g>
<g id="Layer_37">
</g>
<g id="Layer_38">
</g>
<g id="Layer_39">
</g>
<g id="Layer_40">
</g>
<g id="Layer_41">
</g>
<g id="Layer_42">
</g>
<g id="Layer_43">
</g>
<g id="Layer_44">
</g>
<g id="Layer_45">
</g>
<g id="Layer_46">
</g>
<g id="Layer_47">
</g>
<g id="Layer_48">
</g>
<g id="Layer_49">
</g>
<g id="Layer_50">
</g>
<g id="Layer_51">
</g>
<g id="Layer_52">
</g>
<g id="Layer_53">
</g>
<g id="Layer_54">
</g>
<g id="Layer_55">
</g>
<g id="Layer_56">
</g>
<g id="Layer_57">
</g>
<g id="Layer_58">
</g>
<g id="Layer_59">
</g>
<g id="Layer_60">
</g>
<g id="Layer_61">
</g>
<g id="Layer_62">
</g>
<g id="Layer_63">
</g>
<g id="Layer_64">
</g>
<g id="Layer_65">
</g>
<g id="Layer_66">
</g>
<g id="Layer_67">
</g>
<g id="Layer_68">
</g>
<g id="Layer_69">
</g>
<g id="Layer_70">
</g>
<g id="Layer_71">
</g>
<g id="Layer_72">
</g>
<g id="Layer_73">
</g>
<g id="Layer_74">
</g>
<g id="Layer_75">
</g>
<g id="Layer_76">
</g>
<g id="Layer_77">
</g>
<g id="Layer_78">
</g>
<g id="Layer_79">
</g>
<g id="Layer_80">
</g>
<g id="Layer_81">
</g>
<g id="Layer_82">
</g>
<g id="Layer_83">
</g>
<g id="Layer_84">
</g>
<g id="Layer_85">
</g>
<g id="Layer_86">
</g>
<g id="Layer_87">
</g>
<g id="Layer_88">
</g>
<g id="Layer_89">
</g>
<g id="Layer_90">
</g>
<g id="Layer_91">
</g>
<g id="Layer_92">
</g>
<g id="Layer_93">
</g>
<g id="Layer_94">
</g>
<g id="Layer_95">
</g>
<g id="Layer_96">
</g>
<g id="Layer_97">
</g>
<g id="Layer_98">
</g>
<g id="Layer_99">
</g>
<g id="Layer_100">
</g>
</svg>
