<?xml version="1.0" encoding="utf-8"?>
<!-- Generator: Adobe Illustrator 22.1.0, SVG Export Plug-In . SVG Version: 6.00 Build 0)  -->
<svg version="1.1" id="Layer_1" xmlns="http://www.w3.org/2000/svg" xmlns:xlink="http://www.w3.org/1999/xlink" x="0px" y="0px"
	 viewBox="0 0 512 512" style="enable-background:new 0 0 512 512;" xml:space="preserve">
<style type="text/css">
	.st0{fill:#FFF9DC;}
	.st1{fill:#FFB74B;}
	.st2{fill:#FF624B;}
	.st3{fill:#FF9079;}
	.st4{fill:#FF4B34;}
	.st5{fill:#FFEACF;}
	.st6{fill:#FFA730;}
	.st7{fill:#FFD551;}
	.st8{fill:#FFF7CA;}
	.st9{fill:#E58D23;}
	.st10{fill:#BF6C0D;}
	.st11{fill:#FFD59A;}
	.st12{fill:#A56021;}
	.st13{fill:#EACF32;}
	.st14{fill:#CCC033;}
	.st15{fill:#FCE575;}
	.st16{fill:#AD9B18;}
	.st17{fill:#FFEEA4;}
	.st18{fill:#FFF4C1;}
	.st19{fill:#FFDF74;}
	.st20{fill:#FFC34C;}
	.st21{fill:#8C4C17;}
	.st22{fill:#F9BB32;}
	.st23{fill:#DB9C2E;}
	.st24{fill:#FCF9DE;}
	.st25{fill:#FFEA63;}
	.st26{fill:#99AF17;}
	.st27{fill:#FCDA4F;}
	.st28{fill:#FFECCD;}
	.st29{fill:#FFEDCB;}
	.st30{fill:#FFEBCD;}
	.st31{fill:#FFEBCE;}
	.st32{fill:#FFECCC;}
</style>
<g>
	<g>
		<path class="st21" d="M386.628,208.583c-35.683-46.483-80.198-77.569-119.03-87.048c-17.792-5.103-37.187-7.91-57.489-7.91
			C123.893,113.625,54,164.211,54,226.611s69.893,112.987,156.109,112.987c0.332,0,0.663-0.001,0.995-0.002
			c19.85-0.09,38.861,7.559,53.228,21.256c53.294,50.806,115.461,70.391,150.662,43.369
			C457.325,371.724,444.626,284.133,386.628,208.583z"/>
	</g>
	<g>
		<path class="st12" d="M404.628,190.583c-35.683-46.483-80.198-77.569-119.03-87.048c-17.792-5.103-37.187-7.91-57.489-7.91
			C141.893,95.625,72,146.211,72,208.611s69.893,112.987,156.109,112.987c0.332,0,0.663-0.001,0.995-0.002
			c19.85-0.09,38.861,7.559,53.228,21.256c53.294,50.806,115.461,70.391,150.662,43.369
			C475.325,353.724,462.626,266.133,404.628,190.583z"/>
	</g>
	<g>
		<path class="st10" d="M394.238,363.307c-24.444-0.001-58.051-17.565-87.709-45.838c-20.93-19.953-48.304-30.943-77.078-30.943
			l-1.342,0.003c-33.875,0-66.615-9.635-89.825-26.433c-11.658-8.438-31.216-26.347-31.216-51.485s19.558-43.047,31.216-51.485
			c23.21-16.798,55.95-26.433,89.825-26.433c16.576,0,32.665,2.204,47.821,6.551l0.672,0.192l0.679,0.167
			c32.235,7.869,70.372,36.352,99.529,74.334c51.07,66.526,54.739,131.182,34.828,146.466c-4.238,3.253-10.093,4.904-17.4,4.904
			C394.239,363.307,394.239,363.307,394.238,363.307z"/>
	</g>
	<g>
		<circle class="st1" cx="169.802" cy="206.423" r="28.445"/>
	</g>
	<g>
		<g>
			<path class="st21" d="M226.125,250.093c-0.615,0-1.241-0.095-1.858-0.296c-3.151-1.025-4.874-4.412-3.848-7.563l26.617-81.758
				c1.025-3.15,4.409-4.875,7.563-3.848c3.151,1.025,4.874,4.412,3.848,7.563l-26.617,81.758
				C231.004,248.483,228.653,250.093,226.125,250.093z"/>
		</g>
		<g>
			<path class="st21" d="M257.133,284.957c-0.631,0-1.273-0.1-1.904-0.312c-3.143-1.051-4.838-4.451-3.787-7.593l30.421-90.937
				c1.051-3.143,4.452-4.839,7.593-3.787c3.143,1.051,4.838,4.451,3.787,7.593l-30.421,90.937
				C261.982,283.37,259.643,284.957,257.133,284.957z"/>
		</g>
		<g>
			<path class="st21" d="M302.8,274.049c-0.615,0-1.241-0.095-1.858-0.296c-3.151-1.025-4.874-4.412-3.848-7.563l26.617-81.759
				c1.026-3.15,4.409-4.875,7.563-3.848c3.151,1.025,4.874,4.412,3.848,7.563l-26.617,81.759
				C307.68,272.438,305.328,274.049,302.8,274.049z"/>
		</g>
		<g>
			<path class="st21" d="M325.58,320.799c-0.631,0-1.273-0.1-1.904-0.312c-3.143-1.051-4.838-4.451-3.787-7.593l30.421-90.937
				c1.052-3.143,4.453-4.837,7.593-3.787c3.143,1.051,4.838,4.451,3.787,7.593l-30.421,90.937
				C330.429,319.212,328.089,320.799,325.58,320.799z"/>
		</g>
		<g>
			<path class="st21" d="M368.133,320.957c-0.631,0-1.273-0.1-1.904-0.312c-3.143-1.051-4.838-4.451-3.787-7.593l19.21-57.424
				c1.052-3.143,4.454-4.837,7.593-3.787c3.143,1.051,4.838,4.451,3.787,7.593l-19.21,57.424
				C372.982,319.37,370.643,320.957,368.133,320.957z"/>
		</g>
	</g>
	<g>
		<path class="st6" d="M182.802,230.867c-15.709,0-28.445-12.735-28.445-28.444c0-10.358,5.538-19.421,13.814-24.396
			c-14.95,0.846-26.814,13.233-26.814,28.396c0,15.709,12.735,28.444,28.445,28.444c5.351,0,10.356-1.48,14.631-4.05
			C183.893,230.848,183.35,230.867,182.802,230.867z"/>
	</g>
	<g>
		<g>
			<circle class="st21" cx="88.776" cy="211.699" r="13.118"/>
		</g>
	</g>
	<g>
		<g>
			<circle class="st21" cx="108.068" cy="256.182" r="13.118"/>
		</g>
	</g>
</g>
</svg>
