<?xml version="1.0" encoding="utf-8"?>
<!-- Generator: Adobe Illustrator 22.1.0, SVG Export Plug-In . SVG Version: 6.00 Build 0)  -->
<svg version="1.1" id="Layer_1" xmlns="http://www.w3.org/2000/svg" xmlns:xlink="http://www.w3.org/1999/xlink" x="0px" y="0px"
	 viewBox="0 0 512 512" style="enable-background:new 0 0 512 512;" xml:space="preserve">
<style type="text/css">
	.st0{fill:#FFF9DC;}
	.st1{fill:#FFB74B;}
	.st2{fill:#FF624B;}
	.st3{fill:#FF9079;}
	.st4{fill:#FF4B34;}
	.st5{fill:#FFEACF;}
	.st6{fill:#FFA730;}
	.st7{fill:#FFD551;}
	.st8{fill:#FFF7CA;}
	.st9{fill:#E58D23;}
	.st10{fill:#BF6C0D;}
	.st11{fill:#FFD59A;}
	.st12{fill:#A56021;}
	.st13{fill:#EACF32;}
	.st14{fill:#CCC033;}
	.st15{fill:#FCE575;}
	.st16{fill:#AD9B18;}
	.st17{fill:#FFEEA4;}
	.st18{fill:#FFF4C1;}
	.st19{fill:#FFDF74;}
	.st20{fill:#FFC34C;}
	.st21{fill:#8C4C17;}
	.st22{fill:#F9BB32;}
	.st23{fill:#DB9C2E;}
	.st24{fill:#FCF9DE;}
	.st25{fill:#FFEA63;}
	.st26{fill:#99AF17;}
	.st27{fill:#FCDA4F;}
	.st28{fill:#FFECCD;}
	.st29{fill:#FFEDCB;}
	.st30{fill:#FFEBCD;}
	.st31{fill:#FFEBCE;}
	.st32{fill:#FFECCC;}
</style>
<g>
	<g>
		<path class="st18" d="M385.071,205.066c1.173-6.416,1.792-13.003,1.792-19.723c0-65.85-58.589-119.232-130.863-119.232
			c-72.273,0-130.863,53.382-130.863,119.232c0,6.72,0.62,13.306,1.792,19.723H385.071z"/>
	</g>
	<g>
		<path class="st18" d="M317.629,492.346H194.371c-11.05,0-20.536-8.068-22.587-19.211l-46.647-253.399h261.726l-46.647,253.399
			C338.165,484.278,328.679,492.346,317.629,492.346z"/>
	</g>
	<g>
		<path class="st23" d="M192.588,471.575c-2.222,0-4.165-1.901-4.62-4.52l-42.111-242.767c-0.854-4.921,2.707-9.458,7.422-9.458
			h205.068c4.715,0,8.275,4.537,7.422,9.458l-42.112,242.768c-0.454,2.618-2.396,4.519-4.618,4.519H192.588z"/>
	</g>
	<g>
		<path class="st11" d="M208.563,473.135l-46.647-253.399h-36.779l46.647,253.399c2.051,11.143,11.537,19.212,22.587,19.212h36.779
			C220.1,492.347,210.614,484.278,208.563,473.135z"/>
	</g>
	<g>
		<ellipse class="st12" cx="303.737" cy="425.845" rx="21.842" ry="20.856"/>
	</g>
	<g>
		<path class="st21" d="M293.809,425.845c0-9.546,6.719-17.587,15.885-20.064c-1.894-0.512-3.891-0.792-5.957-0.792
			c-12.063,0-21.842,9.338-21.842,20.856s9.779,20.856,21.842,20.856c2.066,0,4.062-0.28,5.956-0.792
			C300.527,443.432,293.809,435.39,293.809,425.845z"/>
	</g>
	<g>
		<path class="st10" d="M315.529,437.969c-0.938,0-1.89-0.221-2.778-0.686c-2.936-1.537-4.069-5.163-2.532-8.099
			c1.768-3.376,0.307-5.467-1.23-6.626l0.087,0.063l6.844-9.857c4.171,2.896,10.569,11.219,4.931,21.987
			C319.777,436.798,317.69,437.969,315.529,437.969z"/>
	</g>
	<g>
		<ellipse class="st12" cx="277.842" cy="447.174" rx="21.842" ry="20.856"/>
	</g>
	<g>
		<path class="st21" d="M267.914,447.174c0-9.546,6.719-17.587,15.885-20.064c-1.894-0.512-3.891-0.792-5.957-0.792
			c-12.063,0-21.842,9.338-21.842,20.856c0,11.518,9.779,20.856,21.842,20.856c2.066,0,4.062-0.28,5.956-0.792
			C274.632,464.762,267.914,456.72,267.914,447.174z"/>
	</g>
	<g>
		<path class="st10" d="M289.634,459.298c-0.938,0-1.89-0.221-2.778-0.686c-2.936-1.537-4.069-5.163-2.532-8.099
			c1.768-3.375,0.306-5.467-1.231-6.626l0.087,0.062l6.846-9.855c4.17,2.896,10.568,11.219,4.93,21.986
			C293.882,458.127,291.794,459.298,289.634,459.298z"/>
	</g>
	<g>
		<ellipse class="st12" cx="277.842" cy="381.312" rx="21.842" ry="20.856"/>
	</g>
	<g>
		<path class="st21" d="M267.914,381.312c0-9.546,6.719-17.587,15.885-20.064c-1.894-0.512-3.891-0.792-5.957-0.792
			c-12.063,0-21.842,9.338-21.842,20.856c0,11.518,9.779,20.856,21.842,20.856c2.066,0,4.062-0.28,5.956-0.792
			C274.632,398.899,267.914,390.857,267.914,381.312z"/>
	</g>
	<g>
		<path class="st10" d="M289.634,393.436c-0.938,0-1.89-0.221-2.778-0.686c-2.936-1.537-4.069-5.163-2.532-8.099
			c1.768-3.375,0.306-5.467-1.231-6.626l0.087,0.062l6.846-9.855c4.17,2.896,10.568,11.219,4.93,21.986
			C293.882,392.265,291.794,393.436,289.634,393.436z"/>
	</g>
	<g>
		<path class="st3" d="M263.443,461.971h-15.262c-4.418,0-8-3.582-8-8V27.653c0-4.418,3.582-8,8-8h15.262c4.418,0,8,3.582,8,8
			v426.318C271.443,458.39,267.861,461.971,263.443,461.971z"/>
	</g>
	<g>
		<path class="st2" d="M258.57,454.195V27.431c0-3.965,2.809-7.231,6.436-7.71c-0.302-0.04-0.607-0.067-0.919-0.067h-16.551
			c-4.062,0-7.356,3.482-7.356,7.777v426.764c0,4.295,3.294,7.777,7.356,7.777h16.551c0.313,0,0.618-0.028,0.919-0.067
			C261.379,461.425,258.57,458.16,258.57,454.195z"/>
	</g>
	<g>
		<ellipse class="st12" cx="227.682" cy="387.435" rx="21.842" ry="20.856"/>
	</g>
	<g>
		<path class="st21" d="M217.754,387.435c0-9.546,6.719-17.587,15.885-20.064c-1.894-0.512-3.891-0.792-5.957-0.792
			c-12.063,0-21.842,9.338-21.842,20.856c0,11.518,9.779,20.856,21.842,20.856c2.066,0,4.062-0.28,5.956-0.792
			C224.473,405.022,217.754,396.98,217.754,387.435z"/>
	</g>
	<g>
		<path class="st10" d="M239.475,399.559c-0.938,0-1.89-0.221-2.778-0.686c-2.936-1.537-4.069-5.163-2.532-8.099
			c1.768-3.375,0.306-5.467-1.231-6.626l0.087,0.062l6.845-9.855c4.171,2.896,10.568,11.219,4.93,21.986
			C243.723,398.388,241.635,399.559,239.475,399.559z"/>
	</g>
	<g>
		<ellipse class="st21" cx="219.74" cy="441.116" rx="21.842" ry="20.856"/>
	</g>
	<g>
		<path class="st10" d="M231.532,453.239c-0.938,0-1.89-0.221-2.778-0.686c-2.936-1.537-4.069-5.163-2.532-8.099
			c1.768-3.375,0.306-5.467-1.231-6.626l0.087,0.062l6.845-9.855c4.171,2.896,10.568,11.219,4.93,21.986
			C235.781,452.068,233.693,453.239,231.532,453.239z"/>
	</g>
	<g>
		<path class="st1" d="M329.025,348.381c-0.28,0-0.564-0.02-0.85-0.061c-3.281-0.465-5.563-3.501-5.099-6.782l12.872-90.841
			c0.464-3.28,3.504-5.571,6.782-5.099c3.281,0.465,5.563,3.501,5.099,6.782l-12.872,90.841
			C334.534,346.217,331.966,348.381,329.025,348.381z"/>
	</g>
	<g>
		<path class="st1" d="M320.479,393.455c-0.351,0-0.705-0.03-1.062-0.095c-3.263-0.582-5.435-3.699-4.852-6.961l4.209-23.562
			c0.582-3.262,3.706-5.436,6.961-4.852c3.263,0.582,5.435,3.699,4.852,6.961l-4.209,23.562
			C325.859,391.414,323.33,393.455,320.479,393.455z"/>
	</g>
	<g>
		<ellipse class="st11" cx="198.766" cy="251.539" rx="16.196" ry="15.528"/>
	</g>
	<g>
		<ellipse class="st11" cx="193.239" cy="154.688" rx="16.196" ry="15.528"/>
	</g>
	<g>
		<path class="st24" d="M365.89,172.363c-3.193,0-5.85-2.518-5.989-5.739c-1.703-39.131-44.591-56.13-45.023-56.297
			c-3.092-1.193-4.631-4.667-3.438-7.758c1.192-3.094,4.669-4.634,7.758-3.438c2.067,0.798,50.65,20.08,52.691,66.971
			c0.145,3.311-2.423,6.111-5.733,6.255C366.066,172.361,365.978,172.363,365.89,172.363z"/>
	</g>
	<g>
		<path class="st11" d="M274.389,67.289c-6.009-0.77-12.147-1.178-18.389-1.178c-72.273,0-130.863,53.382-130.863,119.232
			c0,6.72,0.62,13.306,1.792,19.723h36.779c-1.173-6.417-1.792-13.003-1.792-19.723C161.916,125.181,210.825,75.436,274.389,67.289z
			"/>
	</g>
	<g>
		<path class="st10" d="M208.196,467.054l-42.111-242.767c-0.854-4.921,2.706-9.458,7.421-9.458h-20.228
			c-4.715,0-8.275,4.537-7.421,9.458l42.111,242.767c0.455,2.619,2.398,4.52,4.62,4.52h20.228
			C210.594,471.574,208.652,469.673,208.196,467.054z"/>
	</g>
	<g>
		<g>
			<path class="st20" d="M395.14,226.712H116.86c-5.523,0-10-4.477-10-10V193.42c0-5.523,4.477-10,10-10h278.28
				c5.523,0,10,4.477,10,10v23.293C405.14,222.235,400.663,226.712,395.14,226.712z"/>
		</g>
		<g>
			<path class="st1" d="M152.834,212.001c-5.078,0-9.195-4.117-9.195-9.195V183.42h-27.584c-5.078,0-9.195,4.117-9.195,9.195v24.903
				c0,5.078,4.117,9.195,9.195,9.195h279.891c5.078,0,9.195-4.117,9.195-9.195v-5.517H152.834z"/>
		</g>
	</g>
</g>
</svg>
