<?xml version="1.0" encoding="utf-8"?>
<!-- Generator: Adobe Illustrator 22.1.0, SVG Export Plug-In . SVG Version: 6.00 Build 0)  -->
<svg version="1.1" id="Layer_1" xmlns="http://www.w3.org/2000/svg" xmlns:xlink="http://www.w3.org/1999/xlink" x="0px" y="0px"
	 viewBox="0 0 512 512" style="enable-background:new 0 0 512 512;" xml:space="preserve">
<style type="text/css">
	.st0{fill:#FFF9DC;}
	.st1{fill:#FFB74B;}
	.st2{fill:#FF624B;}
	.st3{fill:#FF9079;}
	.st4{fill:#FF4B34;}
	.st5{fill:#FFEACF;}
	.st6{fill:#FFA730;}
	.st7{fill:#FFD551;}
	.st8{fill:#FFF7CA;}
	.st9{fill:#E58D23;}
	.st10{fill:#BF6C0D;}
	.st11{fill:#FFD59A;}
	.st12{fill:#A56021;}
	.st13{fill:#EACF32;}
	.st14{fill:#CCC033;}
	.st15{fill:#FCE575;}
	.st16{fill:#AD9B18;}
	.st17{fill:#FFEEA4;}
	.st18{fill:#FFF4C1;}
	.st19{fill:#FFDF74;}
	.st20{fill:#FFC34C;}
	.st21{fill:#8C4C17;}
	.st22{fill:#F9BB32;}
	.st23{fill:#DB9C2E;}
	.st24{fill:#FCF9DE;}
	.st25{fill:#FFEA63;}
	.st26{fill:#99AF17;}
	.st27{fill:#FCDA4F;}
	.st28{fill:#FFECCD;}
	.st29{fill:#FFEDCB;}
	.st30{fill:#FFEBCD;}
	.st31{fill:#FFEBCE;}
	.st32{fill:#FFECCC;}
</style>
<g>
	<g>
		<g>
			<g>
				<g>
					<path class="st14" d="M435.798,294.919H97.869H77.443c-11.831,0-21.423,6.219-21.423,13.89v7.813
						c0,7.671,9.592,13.89,21.423,13.89h358.355c9.494,0,17.552-4.009,20.377-9.565c0.682-1.357,1.047-2.81,1.047-4.325v-7.813
						C457.222,301.138,447.63,294.919,435.798,294.919z"/>
				</g>
			</g>
		</g>
		<g>
			<g>
				<g>
					<path class="st26" d="M117.443,318.511c-11.832,0-21.423-6.219-21.423-13.889v-7.813c0-0.643,0.091-1.27,0.221-1.89H77.443
						c-11.832,0-21.423,6.219-21.423,13.89v7.813c0,7.671,9.592,13.889,21.423,13.889h358.355c9.494,0,17.552-4.009,20.377-9.565
						c0.392-0.781,0.666-1.597,0.839-2.435H117.443z"/>
				</g>
			</g>
		</g>
	</g>
	<g>
		<g>
			<g>
				<g>
					<path class="st1" d="M292.373,450.416h-3.298h-66.145h-3.298c-90.404,0-163.691-47.282-163.691-105.607l0,0v-4.281
						c0-7.093,6.652-12.843,14.858-12.843h370.407c8.206,0,14.858,5.75,14.858,12.843v4.281l0,0
						C456.063,403.134,382.776,450.416,292.373,450.416z"/>
				</g>
			</g>
		</g>
		<g>
			<g>
				<g>
					<path class="st6" d="M110.419,344.809v-4.281c0-7.093,6.652-12.843,14.858-12.843H70.798c-8.206,0-14.858,5.75-14.858,12.843
						v4.281c0,58.325,73.287,105.608,163.69,105.608h3.299h51.18C183.706,450.416,110.419,403.134,110.419,344.809z"/>
				</g>
			</g>
		</g>
	</g>
	<g>
		<g>
			<g>
				<g>
					<circle class="st6" cx="154.158" cy="376.983" r="16.688"/>
				</g>
			</g>
		</g>
	</g>
	<g>
		<g>
			<g>
				<g>
					<circle class="st6" cx="198.405" cy="405.739" r="16.688"/>
				</g>
			</g>
		</g>
	</g>
	<g>
		<g>
			<g>
				<path class="st11" d="M350.31,429.336c-2.804,0-5.311-1.976-5.878-4.832c-0.646-3.247,1.461-6.403,4.707-7.053l0,0
					c0.553-0.112,55.54-11.746,77.22-62.747c1.297-3.049,4.815-4.472,7.869-3.175c3.049,1.296,4.471,4.819,3.174,7.869
					c-24.211,56.958-83.407,69.323-85.915,69.821C351.091,429.299,350.697,429.336,350.31,429.336z"/>
			</g>
		</g>
	</g>
	<g>
		<g>
			<g>
				<path class="st12" d="M435.798,253.734H97.869H77.443c-11.831,0-21.423,8.325-21.423,18.594v10.459
					c0,10.269,9.592,18.594,21.423,18.594h358.355c9.494,0,17.552-5.367,20.377-12.804c0.682-1.817,1.047-3.761,1.047-5.789v-10.459
					C457.222,262.06,447.63,253.734,435.798,253.734z"/>
			</g>
		</g>
	</g>
	<g>
		<g>
			<g>
				<path class="st21" d="M117.064,283.598c-11.832,0-21.423-8.325-21.423-18.594v-10.459c0-0.274,0.034-0.54,0.047-0.811H77.443
					c-11.832,0-21.423,8.325-21.423,18.594v10.459c0,10.269,9.592,18.594,21.423,18.594h358.355c9.494,0,17.552-5.367,20.377-12.804
					c0.59-1.572,0.926-3.244,1.01-4.979H117.064z"/>
			</g>
		</g>
	</g>
	<g>
		<g>
			<g>
				<g>
					<path class="st1" d="M292.373,61.584h-3.298h-66.145h-3.298c-90.404,0-163.691,47.282-163.691,105.607l0,0v4.281
						c0,7.093,6.652,12.843,14.858,12.843h370.407c8.206,0,14.858-5.75,14.858-12.843v-4.281l0,0
						C456.063,108.866,382.776,61.584,292.373,61.584z"/>
				</g>
			</g>
		</g>
		<g>
			<g>
				<g>
					<path class="st6" d="M110.419,171.472v-4.281c0-58.325,73.287-105.607,163.69-105.607h-51.18h-3.299
						c-90.404,0-163.69,47.282-163.69,105.607v4.281c0,7.093,6.652,12.843,14.858,12.843h54.479
						C117.071,184.315,110.419,178.565,110.419,171.472z"/>
				</g>
			</g>
		</g>
	</g>
	<g id="XMLID_35_">
		<g>
			<g>
				<path class="st25" d="M459.924,235.796c0.122,9.889-9.811,17.981-21.204,17.981H314.245c-8.472,0-16.457,3.444-21.57,9.318
					l-41.897,48.196l-11.101,12.762c-10.274,11.79-30.407,12.509-41.751,1.458l-65.585-63.874c-5.137-5.008-12.465-7.86-20.182-7.86
					H72.574c-5.672,0-10.785-1.986-14.51-5.219c-3.652-3.169-5.94-7.543-5.989-12.382c-0.122-9.889,9.835-17.981,21.229-17.981
					h366.121c5.672,0,10.809,1.986,14.509,5.198C457.587,226.583,459.875,230.957,459.924,235.796z"/>
			</g>
		</g>
	</g>
	<g>
		<g>
			<g>
				<g>
					<path class="st7" d="M237.547,312.407l-65.585-63.874c-5.137-5.008-12.465-7.86-20.182-7.86h-39.585
						c-5.672,0-10.785-1.986-14.51-5.219c-3.652-3.169-5.94-7.543-5.989-12.382c-0.021-1.689,0.259-3.324,0.783-4.877H73.305
						c-11.393,0-21.35,8.092-21.229,17.981c0.049,4.839,2.337,9.212,5.989,12.382c3.725,3.233,8.837,5.219,14.51,5.219h39.585
						c7.717,0,15.045,2.852,20.182,7.86l65.585,63.874c11.345,11.051,31.478,10.332,41.751-1.458l5.591-6.428
						C242.443,316.351,239.817,314.619,237.547,312.407z"/>
				</g>
			</g>
		</g>
	</g>
	<g>
		<g>
			<g>
				<g>
					<path class="st7" d="M346.681,186.506h-1.65h-18.902h-19.068v48.509c0,10.101,8.474,18.312,19.068,18.684v0.035h0.743l0,0
						h18.16v-11.249c1.056-2.289,1.65-4.813,1.65-7.47V186.506z"/>
				</g>
			</g>
		</g>
		<g>
			<g>
				<g>
					<g>
						<g>
							<rect x="376.397" y="188.209" class="st7" width="39.62" height="65.568"/>
						</g>
					</g>
				</g>
			</g>
			<g>
				<g>
					<g>
						<path class="st21" d="M376.397,253.777v28.184c0,9.187,8.869,16.634,19.81,16.634c10.941,0,19.81-7.447,19.81-16.634v-28.184
							H376.397z"/>
					</g>
				</g>
			</g>
			<g>
				<g>
					<g>
						<path class="st2" d="M435.798,182.603H97.869H77.443c-11.832,0-21.423,6.219-21.423,13.89v7.813
							c0,7.671,9.592,13.889,21.423,13.889H323.9v16.926c0,10.28,8.333,18.613,18.613,18.613h2.394
							c10.28,0,18.614-8.333,18.614-18.613v-16.926h24.764v62.62c0,10.28,8.333,18.613,18.613,18.613h2.394
							c10.28,0,18.613-8.333,18.613-18.613v-62.62h7.894c9.494,0,17.552-4.009,20.377-9.565c0.682-1.357,1.047-2.809,1.047-4.324
							v-7.813C457.222,188.822,447.63,182.603,435.798,182.603z"/>
					</g>
				</g>
			</g>
			<g>
				<g>
					<g>
						<path class="st4" d="M95.641,204.306v-7.813c0-7.671,9.592-13.89,21.423-13.89H97.868H77.443
							c-11.832,0-21.423,6.219-21.423,13.89v7.813c0,7.671,9.592,13.89,21.423,13.89h39.621
							C105.233,218.195,95.641,211.976,95.641,204.306z"/>
					</g>
				</g>
			</g>
			<g>
				<g>
					<g>
						<path class="st3" d="M415.599,281.781c-3.313,0-6-2.686-6-6v-51.554c0-3.314,2.687-6,6-6s6,2.686,6,6v51.554
							C421.599,279.094,418.912,281.781,415.599,281.781z"/>
					</g>
				</g>
			</g>
		</g>
	</g>
	<g>
		<g>
			<g>
				<g>
					<circle class="st6" cx="145.158" cy="154.983" r="16.688"/>
				</g>
			</g>
		</g>
	</g>
	<g>
		<g>
			<g>
				<g>
					<circle class="st6" cx="181.717" cy="103.147" r="16.688"/>
				</g>
			</g>
		</g>
	</g>
	<g>
		<g>
			<g>
				<g>
					<circle class="st6" cx="200.658" cy="147.047" r="16.688"/>
				</g>
			</g>
		</g>
	</g>
	<g>
		<g>
			<g>
				<path class="st11" d="M429.102,171.227c-0.054,0-0.107-0.001-0.161-0.002c-3.313-0.087-5.927-2.843-5.84-6.156
					c0.894-33.947-47.397-60.813-47.886-61.081c-2.906-1.593-3.971-5.239-2.378-8.145c1.592-2.905,5.238-3.971,8.146-2.378
					c2.254,1.235,55.198,30.733,54.114,71.919C435.011,168.643,432.342,171.227,429.102,171.227z"/>
			</g>
		</g>
	</g>
</g>
</svg>
