<?xml version="1.0" encoding="utf-8"?>
<!-- Generator: Adobe Illustrator 22.1.0, SVG Export Plug-In . SVG Version: 6.00 Build 0)  -->
<svg version="1.1" id="Layer_1" xmlns="http://www.w3.org/2000/svg" xmlns:xlink="http://www.w3.org/1999/xlink" x="0px" y="0px"
	 viewBox="0 0 512 512" style="enable-background:new 0 0 512 512;" xml:space="preserve">
<style type="text/css">
	.st0{fill:#FFF9DC;}
	.st1{fill:#FFB74B;}
	.st2{fill:#FF624B;}
	.st3{fill:#FF9079;}
	.st4{fill:#FF4B34;}
	.st5{fill:#FFEACF;}
	.st6{fill:#FFA730;}
	.st7{fill:#FFD551;}
	.st8{fill:#FFF7CA;}
	.st9{fill:#E58D23;}
	.st10{fill:#BF6C0D;}
	.st11{fill:#FFD59A;}
	.st12{fill:#A56021;}
	.st13{fill:#EACF32;}
	.st14{fill:#CCC033;}
	.st15{fill:#FCE575;}
	.st16{fill:#AD9B18;}
	.st17{fill:#FFEEA4;}
	.st18{fill:#FFF4C1;}
	.st19{fill:#FFDF74;}
	.st20{fill:#FFC34C;}
	.st21{fill:#8C4C17;}
	.st22{fill:#F9BB32;}
	.st23{fill:#DB9C2E;}
	.st24{fill:#FCF9DE;}
	.st25{fill:#FFEA63;}
	.st26{fill:#99AF17;}
	.st27{fill:#FCDA4F;}
	.st28{fill:#FFECCD;}
	.st29{fill:#FFEDCB;}
	.st30{fill:#FFEBCD;}
	.st31{fill:#FFEBCE;}
	.st32{fill:#FFECCC;}
</style>
<g>
	<g>
		<g>
			<path class="st19" d="M424.471,466.424H86.575c-5.523,0-10-4.477-10-10v-22.5h357.896v22.5
				C434.471,461.947,429.994,466.424,424.471,466.424z"/>
		</g>
		<g>
			<path class="st7" d="M86.144,452.124h348.327v-18.2H76.575v19.5c0,7.18,4.284,13,9.569,13V452.124z"/>
		</g>
		<g>
			<path class="st19" d="M467.087,440.024H43.959c-5.523,0-10-4.477-10-10v0c0-5.523,4.477-10,10-10h423.128c5.523,0,10,4.477,10,10
				v0C477.087,435.547,472.61,440.024,467.087,440.024z"/>
		</g>
	</g>
	<g>
		<g>
			<path class="st18" d="M423.729,380.273H87.317c-4.418,0-8-3.582-8-8v-35.849c0-4.418,3.582-8,8-8h336.412c4.418,0,8,3.582,8,8
				v35.849C431.729,376.691,428.147,380.273,423.729,380.273z"/>
		</g>
		<g>
			<path class="st11" d="M119.317,372.273v-35.849c0-4.418,3.582-8,8-8h-40c-4.418,0-8,3.582-8,8v35.849c0,4.418,3.582,8,8,8h40
				C122.899,380.273,119.317,376.691,119.317,372.273z"/>
		</g>
		<g>
			<path class="st1" d="M430.729,336.273H80.317c-0.552,0-1-0.448-1-1v-49.849c0-0.552,0.448-1,1-1h351.412v50.849
				C431.729,335.825,431.281,336.273,430.729,336.273z"/>
		</g>
		<g>
			<path class="st23" d="M119.317,335.273v-49.849c0-0.552,0.448-1,1-1h-40c-0.552,0-1,0.448-1,1v49.849c0,0.552,0.448,1,1,1h40
				C119.765,336.273,119.317,335.825,119.317,335.273z"/>
		</g>
		<g>
			<path class="st23" d="M413.729,426.273H97.317c-9.941,0-18-8.059-18-18v-32.849c0-0.552,0.448-1,1-1h350.412c0.552,0,1,0.448,1,1
				v32.849C431.729,418.214,423.67,426.273,413.729,426.273z"/>
		</g>
		<g>
			<path class="st10" d="M119.317,408.273v-32.849c0-0.552,0.448-1,1-1h-40c-0.552,0-1,0.448-1,1v32.849c0,9.941,8.059,18,18,18h40
				C127.376,426.273,119.317,418.214,119.317,408.273z"/>
		</g>
		<g>
			<path class="st23" d="M80.317,282.424c-0.552,0-1,0.448-1,1v23c0-0.552,0.448-1,1-1h351.412v-23H80.317z"/>
		</g>
		<g>
			<path class="st12" d="M427.622,275.326l-78.957-47.411c-6.122-3.676-14.469-4.928-22.188-3.327l-62.775,13.02v0l-39.669,8.228
				l0,0L87.686,274.115c-12.909,2.678-10.164,16.071,3.295,16.071h330.896C431.425,290.187,435.371,279.979,427.622,275.326z"/>
		</g>
		<g>
			<g>
				<ellipse class="st2" cx="316.585" cy="219.666" rx="19.609" ry="19.775"/>
			</g>
			<g>
				<path class="st4" d="M307.842,221.412c-1.743-8.878,2.706-17.539,10.326-21.455c-1.762-0.143-3.571-0.053-5.391,0.311
					c-10.623,2.121-17.531,12.525-15.427,23.239s12.42,17.679,23.044,15.558c1.819-0.363,3.526-0.975,5.101-1.784
					C316.97,236.589,309.585,230.291,307.842,221.412z"/>
			</g>
			<g>
				<path class="st3" d="M326.534,229.289c-0.522,0-1.053-0.069-1.581-0.213c-3.197-0.871-5.083-4.17-4.212-7.366
					c1.124-4.124-1.703-5.578-2.029-5.729c-3.003-1.401-4.302-4.972-2.9-7.975c1.401-3.004,4.974-4.3,7.975-2.9
					c4.271,1.993,11.55,8.688,8.533,19.759C331.592,227.533,329.173,229.289,326.534,229.289z"/>
			</g>
		</g>
		<g>
			<g>
				<ellipse class="st2" cx="278.191" cy="218.197" rx="19.609" ry="19.775"/>
			</g>
			<g>
				<path class="st4" d="M269.278,218.197c0-9.051,6.032-16.676,14.261-19.024c-1.701-0.486-3.493-0.751-5.348-0.751
					c-10.83,0-19.609,8.854-19.609,19.775c0,10.921,8.779,19.775,19.609,19.775c1.855,0,3.647-0.266,5.347-0.751
					C275.31,234.872,269.278,227.247,269.278,218.197z"/>
			</g>
			<g>
				<path class="st3" d="M287.215,230.003c-0.896,0-1.804-0.201-2.66-0.626c-2.969-1.472-4.183-5.071-2.71-8.04
					c1.897-3.829-0.608-5.817-0.9-6.032c-2.672-1.96-3.249-5.715-1.289-8.387c1.959-2.672,5.715-3.248,8.387-1.289
					c3.801,2.787,9.644,10.772,4.553,21.038C291.548,228.779,289.423,230.003,287.215,230.003z"/>
			</g>
		</g>
		<g>
			<g>
				<g>
					
						<ellipse transform="matrix(0.5043 -0.8635 0.8635 0.5043 -76.6201 341.752)" class="st13" cx="259.364" cy="237.614" rx="13.845" ry="35.378"/>
				</g>
				<g>
					<path class="st14" d="M251.709,238.589c-10.5-6.254-18.414-13.793-21.833-20.124c-0.344,0.317-0.646,0.665-0.9,1.048
						c-4.228,6.383,5.951,19.662,22.734,29.659c16.783,9.997,33.816,12.926,38.043,6.542c1.583-2.39,1.146-5.746-0.9-9.535
						C283.476,251.135,267.484,247.985,251.709,238.589z"/>
				</g>
			</g>
			<g>
				<g>
					
						<ellipse transform="matrix(0.8635 -0.5043 0.5043 0.8635 -75.8777 194.8404)" class="st14" cx="322.054" cy="237.614" rx="35.378" ry="13.845"/>
				</g>
				<g>
					<path class="st16" d="M314.399,236.639c-10.5,6.254-18.414,13.793-21.833,20.124c-0.344-0.317-0.646-0.665-0.9-1.048
						c-4.228-6.383,5.951-19.662,22.734-29.659c16.783-9.997,33.816-12.926,38.043-6.542c1.583,2.39,1.146,5.746-0.9,9.535
						C346.166,224.092,330.174,227.243,314.399,236.639z"/>
				</g>
			</g>
		</g>
		<g>
			<g>
				<ellipse class="st2" cx="297.595" cy="244.434" rx="19.609" ry="19.775"/>
			</g>
			<g>
				<path class="st4" d="M288.852,246.18c-1.743-8.878,2.706-17.539,10.326-21.455c-1.762-0.143-3.571-0.053-5.391,0.311
					c-10.624,2.121-17.531,12.525-15.427,23.239s12.42,17.679,23.044,15.558c1.819-0.363,3.526-0.975,5.101-1.784
					C297.98,261.357,290.595,255.058,288.852,246.18z"/>
			</g>
			<g>
				<path class="st3" d="M309.106,254.057c-0.522,0-1.053-0.069-1.581-0.213c-3.197-0.871-5.083-4.17-4.212-7.366
					c1.124-4.124-1.703-5.578-2.029-5.729c-3.003-1.401-4.302-4.972-2.9-7.975c1.402-3.004,4.975-4.301,7.975-2.9
					c4.271,1.993,11.55,8.688,8.533,19.759C314.164,252.301,311.745,254.057,309.106,254.057z"/>
			</g>
		</g>
		<g>
			<g>
				<path class="st21" d="M294.39,238.079c-0.128,0.006-0.252,0.035-0.378,0.05c-0.162-0.008-0.324-0.017-0.488-0.009l-52.147,2.49
					c-3.61,0.172-6.455,4.125-6.321,8.785l0.377,13.145c0.134,4.659,3.197,8.33,6.807,8.158l52.147-2.49
					c0.164-0.008,0.325-0.032,0.486-0.055c0.127,0.003,0.252,0.02,0.38,0.014c4.965-0.237,8.796-7.165,8.558-15.473
					C303.572,244.386,299.355,237.842,294.39,238.079z"/>
			</g>
			<g>
				
					<ellipse transform="matrix(0.9998 -0.0181 0.0181 0.9998 -4.5801 4.3877)" class="st21" cx="240.578" cy="255.714" rx="8.997" ry="15.051"/>
			</g>
			<g>
				<path class="st12" d="M240.908,267.228c-3.39,0.162-6.405-4.974-6.584-11.215c-0.179-6.241,2.534-11.651,5.924-11.813
					c3.39-0.162,6.406,4.974,6.585,11.215C247.012,261.656,244.299,267.066,240.908,267.228z"/>
			</g>
			<g>
				<path class="st10" d="M267.701,248.72c-1.339,0-2.448-1.061-2.496-2.41c-0.05-1.38,1.028-2.539,2.408-2.588l22.099-0.795
					c1.372-0.031,2.539,1.028,2.588,2.408c0.05,1.38-1.028,2.539-2.408,2.588l-22.099,0.795
					C267.763,248.719,267.731,248.72,267.701,248.72z"/>
			</g>
		</g>
		<g>
			<path class="st12" d="M439.959,294.13c0-11.046-8.954-20-20-20H91.352c-11.046,0-20,8.954-20,20v0c0,11.046,8.954,20,20,20
				h202.54c8.284,0,15,6.716,15,15v29.332c0,8.417,6.823,15.24,15.24,15.24h0.005c8.417,0,15.24-6.823,15.24-15.24V329.72
				c0-8.61,6.98-15.59,15.59-15.59h0.003c8.61,0,15.59,6.98,15.59,15.59v21.958c0,8.417,6.823,15.24,15.24,15.24h0.005
				c8.417,0,15.24-6.823,15.24-15.24V318.34c0-2.325,1.885-4.21,4.21-4.21h0.01c2.325,0,4.21,1.885,4.21,4.21v16.593
				c0,8.417,6.823,15.24,15.24,15.24h0.005c8.417,0,15.24-6.823,15.24-15.24v-40.509h-0.015
				C439.945,294.325,439.959,294.229,439.959,294.13L439.959,294.13z"/>
		</g>
		<g>
			<path class="st10" d="M192.959,297.425h-78.048c-3.313,0-6-2.687-6-6s2.687-6,6-6h78.048c3.313,0,6,2.687,6,6
				S196.272,297.425,192.959,297.425z"/>
		</g>
		<g>
			<path class="st10" d="M232.292,297.425h-17.333c-3.313,0-6-2.687-6-6s2.687-6,6-6h17.333c3.313,0,6,2.687,6,6
				S235.606,297.425,232.292,297.425z"/>
		</g>
		<g>
			<g>
				<circle class="st21" cx="355.959" cy="259.093" r="16.888"/>
			</g>
		</g>
		<g>
			<g>
				<circle class="st10" cx="145.31" cy="396.863" r="16.888"/>
			</g>
		</g>
		<g>
			<path class="st10" d="M427.459,334.425c-3.313,0-6-2.687-6-6v-31c0-3.313,2.687-6,6-6s6,2.687,6,6v31
				C433.459,331.738,430.772,334.425,427.459,334.425z"/>
		</g>
	</g>
	<g>
		<g>
			<g>
				<path class="st5" d="M468.041,118.252H265.993V90.404h202.048c5.523,0,10,4.477,10,10v7.848
					C478.041,113.774,473.564,118.252,468.041,118.252z"/>
			</g>
			<g>
				<path class="st11" d="M467.97,110.061H299.111c-4.45,0-8.057-2.934-8.057-6.552V90.404h-25.062v19.657v8.191h25.062H467.97
					c5.562,0,10.071-3.667,10.071-8.191v-8.191C478.041,106.394,473.532,110.061,467.97,110.061z"/>
			</g>
			<g>
				<path class="st5" d="M258.414,139.158H181.57V69.497h76.843c9.941,0,18,8.059,18,18v33.661
					C276.414,131.099,268.355,139.158,258.414,139.158z"/>
			</g>
			<g>
				<path class="st24" d="M265.959,108.504c-0.1,0-0.199-0.002-0.3-0.007c-3.31-0.163-5.86-2.979-5.698-6.288
					c0.225-4.554-0.733-7.97-2.848-10.155c-3.271-3.382-8.646-3.327-8.709-3.338c-3.283,0.097-6.062-2.481-6.175-5.793
					s2.506-6.089,5.818-6.201c1.071-0.051,10.655-0.155,17.561,6.854c4.604,4.675,6.737,11.142,6.34,19.223
					C271.789,106.008,269.137,108.504,265.959,108.504z"/>
			</g>
		</g>
		<g>
			<path class="st18" d="M145.227,151.432V53.576c0-4.418,3.582-8,8-8h19.312c4.418,0,8,3.582,8,8v97.856c0,4.418-3.582,8-8,8
				h-19.312C148.808,159.432,145.227,155.85,145.227,151.432z"/>
		</g>
		<g>
			<path class="st1" d="M175.194,158.432V46.576c0-0.552,0.448-1,1-1h19.312c8.284,0,15,6.716,15,15v83.856c0,8.284-6.716,15-15,15
				h-19.312C175.641,159.432,175.194,158.984,175.194,158.432z"/>
		</g>
		<g>
			<path class="st23" d="M113.898,142.717V62.29c0-9.231,7.483-16.715,16.715-16.715h17.669c0.513,0,0.929,0.416,0.929,0.929
				v111.999c0,0.513-0.416,0.929-0.929,0.929h-17.669C121.381,159.432,113.898,151.949,113.898,142.717z"/>
		</g>
	</g>
</g>
</svg>
