<?xml version="1.0" encoding="utf-8"?>
<!-- Generator: Adobe Illustrator 22.1.0, SVG Export Plug-In . SVG Version: 6.00 Build 0)  -->
<svg version="1.1" id="Layer_1" xmlns="http://www.w3.org/2000/svg" xmlns:xlink="http://www.w3.org/1999/xlink" x="0px" y="0px"
	 viewBox="0 0 512 512" style="enable-background:new 0 0 512 512;" xml:space="preserve">
<style type="text/css">
	.st0{fill:#FFF9DC;}
	.st1{fill:#FFB74B;}
	.st2{fill:#FF624B;}
	.st3{fill:#FF9079;}
	.st4{fill:#FF4B34;}
	.st5{fill:#FFEACF;}
	.st6{fill:#FFA730;}
	.st7{fill:#FFD551;}
	.st8{fill:#FFF7CA;}
	.st9{fill:#E58D23;}
	.st10{fill:#BF6C0D;}
	.st11{fill:#FFD59A;}
	.st12{fill:#A56021;}
	.st13{fill:#EACF32;}
	.st14{fill:#CCC033;}
	.st15{fill:#FCE575;}
	.st16{fill:#AD9B18;}
	.st17{fill:#FFEEA4;}
	.st18{fill:#FFF4C1;}
	.st19{fill:#FFDF74;}
	.st20{fill:#FFC34C;}
	.st21{fill:#8C4C17;}
	.st22{fill:#F9BB32;}
	.st23{fill:#DB9C2E;}
	.st24{fill:#FCF9DE;}
	.st25{fill:#FFEA63;}
	.st26{fill:#99AF17;}
	.st27{fill:#FCDA4F;}
	.st28{fill:#FFECCD;}
	.st29{fill:#FFEDCB;}
	.st30{fill:#FFEBCD;}
	.st31{fill:#FFEBCE;}
	.st32{fill:#FFECCC;}
</style>
<g>
	<g>
		<rect x="149.785" y="222.491" class="st2" width="212.431" height="242.918"/>
	</g>
	<g>
		<path class="st4" d="M362.215,222.491H191.761h-41.977v30.795v212.123h41.977V263.78c0-5.796,4.698-10.494,10.494-10.494h159.96
			V222.491z"/>
	</g>
	<g>
		<path class="st24" d="M149.785,274.515v127.313c35.157,0,63.657-28.5,63.657-63.656S184.941,274.515,149.785,274.515z"/>
	</g>
	<g>
		<rect x="162.837" y="316.916" class="st24" width="199.379" height="54.067"/>
	</g>
	<g>
		<path class="st5" d="M363.558,481.238H148.442c-4.418,0-8-3.582-8-8v-15.471c0-4.418,3.582-8,8-8h215.117c4.418,0,8,3.582,8,8
			v15.471C371.558,477.656,367.977,481.238,363.558,481.238z"/>
	</g>
	<g>
		<path class="st5" d="M191.712,290.337c-11.207-9.842-25.889-15.823-41.977-15.823v127.313c16.088,0,30.77-5.98,41.977-15.823
			V290.337z"/>
	</g>
	<g>
		<path class="st5" d="M337.075,381.893c-3.314,0-6-2.687-6-6V270.277c0-3.313,2.686-6,6-6s6,2.687,6,6v105.615
			C343.075,379.206,340.389,381.893,337.075,381.893z"/>
	</g>
	<g>
		<path class="st5" d="M337.075,428.59c-3.313,0-6-2.687-6-6v-17.727c0-3.313,2.687-6,6-6s6,2.687,6,6v17.727
			C343.075,425.903,340.388,428.59,337.075,428.59z"/>
	</g>
	<g>
		<path class="st11" d="M182.419,472.842v-14.681c0-4.637,3.759-8.395,8.395-8.395h-41.977c-4.637,0-8.395,3.759-8.395,8.395v14.681
			c0,4.637,3.759,8.395,8.395,8.395h41.977C186.177,481.238,182.419,477.479,182.419,472.842z"/>
	</g>
	<g>
		<path class="st5" d="M363.558,232.985H148.442c-4.418,0-8-3.582-8-8v-15.471c0-4.418,3.582-8,8-8h215.117c4.418,0,8,3.582,8,8
			v15.471C371.558,229.403,367.977,232.985,363.558,232.985z"/>
	</g>
	<g>
		<path class="st11" d="M182.419,224.589v-14.68c0-4.637,3.759-8.395,8.395-8.395h-41.977c-4.637,0-8.395,3.759-8.395,8.395v14.68
			c0,4.637,3.759,8.395,8.395,8.395h41.977C186.177,232.985,182.419,229.226,182.419,224.589z"/>
	</g>
	<g>
		<g>
			<circle class="st4" cx="222.343" cy="418.393" r="17.723"/>
		</g>
	</g>
	<g>
		
			<ellipse transform="matrix(0.7071 -0.7071 0.7071 0.7071 2.7924 236.8307)" class="st2" cx="287.276" cy="115.045" rx="19.664" ry="117.541"/>
	</g>
</g>
</svg>
