<?xml version="1.0" encoding="utf-8"?>
<!-- Generator: Adobe Illustrator 22.1.0, SVG Export Plug-In . SVG Version: 6.00 Build 0)  -->
<svg version="1.1" id="Layer_1" xmlns="http://www.w3.org/2000/svg" xmlns:xlink="http://www.w3.org/1999/xlink" x="0px" y="0px"
	 viewBox="0 0 512 512" style="enable-background:new 0 0 512 512;" xml:space="preserve">
<style type="text/css">
	.st0{fill:#FFF9DC;}
	.st1{fill:#FFB74B;}
	.st2{fill:#FF624B;}
	.st3{fill:#FF9079;}
	.st4{fill:#FF4B34;}
	.st5{fill:#FFEACF;}
	.st6{fill:#FFA730;}
	.st7{fill:#FFD551;}
	.st8{fill:#FFF7CA;}
	.st9{fill:#E58D23;}
	.st10{fill:#BF6C0D;}
	.st11{fill:#FFD59A;}
	.st12{fill:#A56021;}
	.st13{fill:#EACF32;}
	.st14{fill:#CCC033;}
	.st15{fill:#FCE575;}
	.st16{fill:#AD9B18;}
	.st17{fill:#FFEEA4;}
	.st18{fill:#FFF4C1;}
	.st19{fill:#FFDF74;}
	.st20{fill:#FFC34C;}
	.st21{fill:#8C4C17;}
	.st22{fill:#F9BB32;}
	.st23{fill:#DB9C2E;}
	.st24{fill:#FCF9DE;}
	.st25{fill:#FFEA63;}
	.st26{fill:#99AF17;}
	.st27{fill:#FCDA4F;}
	.st28{fill:#FFECCD;}
	.st29{fill:#FFEDCB;}
	.st30{fill:#FFEBCD;}
	.st31{fill:#FFEBCE;}
	.st32{fill:#FFECCC;}
</style>
<g>
	<g>
		<g>
			<rect x="242.831" y="190.679" class="st24" width="26.598" height="245.612"/>
		</g>
		<g>
			<polygon class="st18" points="258.983,191.756 269.429,191.756 269.429,190.679 242.831,190.679 242.831,436.291 
				258.983,436.291 			"/>
		</g>
		<g>
			<path class="st24" d="M310.956,458.095H196.242c-1.105,0-2-0.895-2-2v-1.608c0-22.091,17.909-40,40-40h38.713
				c22.091,0,40,17.909,40,40v1.608C312.956,457.2,312.06,458.095,310.956,458.095z"/>
		</g>
		<g>
			<path class="st18" d="M264.242,414.487h-30c-22.091,0-40,17.909-40,40v1.608c0,1.105,0.895,2,2,2h28v-3.608
				C224.242,432.396,242.151,414.487,264.242,414.487z"/>
		</g>
	</g>
	<g>
		<path class="st24" d="M101.443,53.905h309.113c7.414,0,11.365,8.744,6.465,14.308L270.648,234.42
			c-8.634,9.804-23.938,9.725-32.47-0.168L94.92,68.145C90.105,62.563,94.071,53.905,101.443,53.905z"/>
	</g>
	<g>
		<path class="st18" d="M147.683,68.145c-4.815-5.583-0.849-14.24,6.523-14.24h-52.763c-7.372,0-11.338,8.657-6.523,14.24
			l143.258,166.106c8.532,9.893,23.836,9.972,32.471,0.168l10.325-11.725L147.683,68.145z"/>
	</g>
	<g>
		<path class="st25" d="M254.487,225.57c-0.921,0-2.676-0.242-4.077-1.867L130.179,84.298c-4.815-5.583-0.849-14.24,6.523-14.24
			h238.106c7.414,0,11.365,8.744,6.465,14.308l-122.747,139.38C257.128,225.333,255.395,225.57,254.487,225.57z"/>
	</g>
	<g>
		<path class="st25" d="M254.487,225.57c-0.921,0-2.676-0.242-4.077-1.867L130.179,84.298c-4.815-5.583-0.849-14.24,6.523-14.24
			h238.106c7.414,0,11.365,8.744,6.465,14.308l-122.747,139.38C257.128,225.333,255.395,225.57,254.487,225.57z"/>
	</g>
	<g>
		<path class="st19" d="M149.332,70.057h-12.629c-7.372,0-11.338,8.657-6.523,14.24l120.23,139.406
			c1.401,1.625,3.156,1.867,4.077,1.867c0.909,0,2.642-0.237,4.04-1.826l11.798-13.397L149.332,70.057z"/>
	</g>
	<g>
		<g>
			<ellipse class="st2" cx="255.756" cy="140.311" rx="29.038" ry="27.727"/>
		</g>
		<g>
			<path class="st4" d="M242.557,140.311c0-12.69,8.932-23.382,21.118-26.674c-2.518-0.681-5.173-1.053-7.919-1.053
				c-16.037,0-29.038,12.414-29.038,27.727s13.001,27.727,29.038,27.727c2.746,0,5.4-0.373,7.919-1.053
				C251.489,163.693,242.557,153.001,242.557,140.311z"/>
		</g>
		<g>
			<path class="st3" d="M271.435,154.452c-0.938,0-1.89-0.221-2.778-0.686c-2.936-1.537-4.069-5.163-2.532-8.099
				c3.397-6.489-0.83-10.3-2.207-11.313c-2.722-1.891-3.364-5.606-1.474-8.328c1.89-2.723,5.659-3.377,8.382-1.483
				c5.049,3.506,12.785,13.597,5.93,26.69C275.683,153.281,273.596,154.452,271.435,154.452z"/>
		</g>
	</g>
	<g>
		<path class="st24" d="M268.078,192.227c-1.388,0-2.783-0.479-3.917-1.457c-2.509-2.165-2.788-5.953-0.623-8.463l56.682-65.695
			c2.164-2.509,5.952-2.788,8.463-0.623c2.509,2.165,2.788,5.953,0.623,8.463l-56.682,65.695
			C271.438,191.521,269.763,192.227,268.078,192.227z"/>
	</g>
	<g>
		<path class="st24" d="M336.46,113.823c-1.388,0-2.783-0.479-3.917-1.457c-2.509-2.165-2.788-5.953-0.623-8.463l18.983-22.002
			c2.163-2.508,5.952-2.788,8.463-0.623c2.509,2.165,2.787,5.953,0.623,8.463l-18.983,22.002
			C339.819,113.118,338.145,113.823,336.46,113.823z"/>
	</g>
	<g>
		<g>
			<circle class="st18" cx="219.243" cy="121.442" r="15.783"/>
		</g>
	</g>
</g>
</svg>
