<?xml version="1.0" encoding="utf-8"?>
<!-- Generator: Adobe Illustrator 22.1.0, SVG Export Plug-In . SVG Version: 6.00 Build 0)  -->
<svg version="1.1" id="Layer_1" xmlns="http://www.w3.org/2000/svg" xmlns:xlink="http://www.w3.org/1999/xlink" x="0px" y="0px"
	 viewBox="0 0 512 512" style="enable-background:new 0 0 512 512;" xml:space="preserve">
<style type="text/css">
	.st0{fill:#FFF9DC;}
	.st1{fill:#FFB74B;}
	.st2{fill:#FF624B;}
	.st3{fill:#FF9079;}
	.st4{fill:#FF4B34;}
	.st5{fill:#FFEACF;}
	.st6{fill:#FFA730;}
	.st7{fill:#FFD551;}
	.st8{fill:#FFF7CA;}
	.st9{fill:#E58D23;}
	.st10{fill:#BF6C0D;}
	.st11{fill:#FFD59A;}
	.st12{fill:#A56021;}
	.st13{fill:#EACF32;}
	.st14{fill:#CCC033;}
	.st15{fill:#FCE575;}
	.st16{fill:#AD9B18;}
	.st17{fill:#FFEEA4;}
	.st18{fill:#FFF4C1;}
	.st19{fill:#FFDF74;}
	.st20{fill:#FFC34C;}
	.st21{fill:#8C4C17;}
	.st22{fill:#F9BB32;}
	.st23{fill:#DB9C2E;}
	.st24{fill:#FCF9DE;}
	.st25{fill:#FFEA63;}
	.st26{fill:#99AF17;}
	.st27{fill:#FCDA4F;}
	.st28{fill:#FFECCD;}
	.st29{fill:#FFEDCB;}
	.st30{fill:#FFEBCD;}
	.st31{fill:#FFEBCE;}
	.st32{fill:#FFECCC;}
</style>
<g>
	<g>
		<g>
			<path class="st20" d="M460.101,178.967c-13.972-15.939-35.081-23.779-57.912-21.511c-19.935,1.982-39.848,11.42-56.072,26.575
				c-16.223,15.155-27.303,34.67-31.198,54.948c-4.461,23.226,0.994,45.689,14.966,61.628c13.972,15.939,35.081,23.78,57.913,21.51
				c19.935-1.981,39.848-11.418,56.071-26.573c16.224-15.156,27.303-34.67,31.198-54.949
				C479.53,217.368,474.074,194.906,460.101,178.967z M424.149,273.046c-23.922,22.346-56.366,25.571-72.468,7.203
				c-16.102-18.368-9.762-51.374,14.159-73.72c23.922-22.346,56.367-25.571,72.469-7.203S448.07,250.699,424.149,273.046z"/>
		</g>
		<g>
			<path class="st22" d="M403.909,286.671c-19.653,8.906-40.371,7.103-52.229-6.423c-16.102-18.368-9.762-51.374,14.159-73.72
				c23.922-22.346,56.367-25.571,72.469-7.203c2.655,3.028,4.687,6.461,6.143,10.171c3.311-12.561,5.464-25.67,6.32-39.18
				c-13.272-10.032-30.372-14.67-48.582-12.861c-19.935,1.982-39.848,11.42-56.072,26.575
				c-16.223,15.155-27.303,34.67-31.198,54.948c-4.461,23.226,0.994,45.689,14.966,61.628c8.857,10.104,20.587,16.94,33.8,20.023
				C378.615,311.605,392.164,300.118,403.909,286.671z"/>
		</g>
		<g>
			<path class="st5" d="M303.398,354.907H187.184c-5.523,0-10-4.477-10-10v-49.49h136.214v49.49
				C313.398,350.43,308.921,354.907,303.398,354.907z"/>
		</g>
		<g>
			<path class="st11" d="M227.295,341.974v-46.557h-50.112v46.557c0,7.143,5.609,12.933,12.528,12.933h50.112
				C232.904,354.907,227.295,349.117,227.295,341.974z"/>
		</g>
		<g>
			<path class="st5" d="M246.326,343.106c92.391,0,167.288-83.291,167.288-186.035H79.037
				C79.037,259.815,153.935,343.106,246.326,343.106z"/>
		</g>
		<g>
			<path class="st23" d="M413.614,157.071H79.037v-40.434c0-5.523,4.477-10,10-10h314.577c5.523,0,10,4.477,10,10V157.071z"/>
		</g>
		<g>
			<path class="st11" d="M129.149,157.071H79.037c0,102.744,74.898,186.035,167.289,186.035c8.516,0,16.882-0.713,25.056-2.078
				C190.878,327.581,129.149,250.345,129.149,157.071z"/>
		</g>
		<g>
			<path class="st22" d="M396.082,133.94h-98.896c-3.313,0-6-2.687-6-6s2.687-6,6-6h98.896c3.313,0,6,2.687,6,6
				S399.396,133.94,396.082,133.94z"/>
		</g>
		<g>
			<path class="st22" d="M270.803,133.94h-30.979c-3.313,0-6-2.687-6-6s2.687-6,6-6h30.979c3.313,0,6,2.687,6,6
				S274.116,133.94,270.803,133.94z"/>
		</g>
		<g>
			<path class="st24" d="M355.505,261.682c-1.781,0-3.544-0.789-4.728-2.3c-2.043-2.608-1.585-6.38,1.023-8.424
				c28.69-22.475,33.009-76.076,33.049-76.615c0.247-3.303,3.123-5.784,6.427-5.538c3.304,0.244,5.783,3.118,5.54,6.421
				c-0.177,2.414-4.724,59.413-37.615,85.18C358.104,261.265,356.799,261.682,355.505,261.682z"/>
		</g>
		<g>
			<g>
				<circle class="st11" cx="212.176" cy="259.437" r="15.783"/>
			</g>
		</g>
		<g>
			<g>
				<circle class="st11" cx="256.5" cy="292.165" r="15.783"/>
			</g>
		</g>
		<g>
			<path class="st10" d="M139.037,106.637h-50c-5.523,0-10,4.477-10,10v40.435h50v-40.435
				C129.037,111.114,133.514,106.637,139.037,106.637z"/>
		</g>
	</g>
	<g>
		<g>
			<path class="st23" d="M399.322,383.753H83.191c-6.097,0-12.03-1.755-16.91-5.001l-32.025-21.305
				c-5.426-3.61-2.552-11.278,4.227-11.278H444.03c6.779,0,9.654,7.668,4.227,11.278l-32.025,21.305
				C411.352,381.998,405.419,383.753,399.322,383.753z"/>
		</g>
		<g>
			<path class="st23" d="M359.147,405.363h-233.22c-5.523,0-10-4.477-10-10V369.66h253.22v25.703
				C369.147,400.886,364.67,405.363,359.147,405.363z"/>
		</g>
		<g>
			<path class="st10" d="M166.039,392.835V369.66h-50.112v23.175c0,6.918,5.609,12.528,12.528,12.528h50.112
				C171.648,405.363,166.039,399.754,166.039,392.835z"/>
		</g>
		<g>
			<path class="st10" d="M133.303,368.72c-6.096,0-12.029-1.754-16.91-5.001l-26.379-17.549h-51.53
				c-6.78,0-9.653,7.668-4.228,11.278l32.025,21.305c4.88,3.246,10.813,5.001,16.91,5.001h316.131c6.098,0,12.03-1.754,16.91-5.001
				l15.08-10.033H133.303z"/>
		</g>
	</g>
	<g>
		<g>
			<ellipse class="st10" cx="413.412" cy="354.104" rx="67.17" ry="49.485"/>
		</g>
		<g>
			<path class="st12" d="M471.813,360.104h-58.4c-3.313,0-6-2.687-6-6s2.687-6,6-6h58.4c3.313,0,6,2.687,6,6
				S475.126,360.104,471.813,360.104z"/>
		</g>
		<g>
			<path class="st12" d="M363.782,331.554c0,27.33,30.073,49.485,67.169,49.485c18.542,0,35.33-5.535,47.484-14.485
				c-7.494,21.303-33.764,37.036-65.023,37.036c-37.097,0-67.169-22.155-67.169-49.485c0-13.669,7.523-26.044,19.685-35
				C364.529,323.082,363.782,327.253,363.782,331.554z"/>
		</g>
	</g>
	<g>
		<g>
			
				<ellipse transform="matrix(0.9733 -0.2295 0.2295 0.9733 -67.9967 90.1413)" class="st12" cx="353.485" cy="337.363" rx="49.485" ry="67.17"/>
		</g>
		<g>
			<path class="st21" d="M353.48,343.364c-2.721,0-5.184-1.861-5.835-4.624l-13.404-56.841c-0.761-3.225,1.237-6.456,4.463-7.217
				c3.226-0.764,6.456,1.237,7.217,4.463l13.404,56.841c0.761,3.225-1.237,6.456-4.463,7.217
				C354.399,343.313,353.937,343.364,353.48,343.364z"/>
		</g>
		<g>
			<path class="st21" d="M386.825,380.492c-26.601,6.273-55.067-17.911-63.581-54.018c-4.256-18.047-2.721-35.657,3.2-49.541
				c-19.014,12.184-28.297,41.363-21.122,71.788c8.515,36.106,36.981,60.291,63.581,54.018c13.304-3.138,23.622-13.3,29.547-27.193
				C394.899,377.821,391.011,379.505,386.825,380.492z"/>
		</g>
	</g>
</g>
</svg>
