<?xml version="1.0" encoding="utf-8"?>
<!-- Generator: Adobe Illustrator 22.1.0, SVG Export Plug-In . SVG Version: 6.00 Build 0)  -->
<svg version="1.1" id="Layer_1" xmlns="http://www.w3.org/2000/svg" xmlns:xlink="http://www.w3.org/1999/xlink" x="0px" y="0px"
	 viewBox="0 0 512 512" style="enable-background:new 0 0 512 512;" xml:space="preserve">
<style type="text/css">
	.st0{fill:#FFF9DC;}
	.st1{fill:#FFB74B;}
	.st2{fill:#FF624B;}
	.st3{fill:#FF9079;}
	.st4{fill:#FF4B34;}
	.st5{fill:#FFEACF;}
	.st6{fill:#FFA730;}
	.st7{fill:#FFD551;}
	.st8{fill:#FFF7CA;}
	.st9{fill:#E58D23;}
	.st10{fill:#BF6C0D;}
	.st11{fill:#FFD59A;}
	.st12{fill:#A56021;}
	.st13{fill:#EACF32;}
	.st14{fill:#CCC033;}
	.st15{fill:#FCE575;}
	.st16{fill:#AD9B18;}
	.st17{fill:#FFEEA4;}
	.st18{fill:#FFF4C1;}
	.st19{fill:#FFDF74;}
	.st20{fill:#FFC34C;}
	.st21{fill:#8C4C17;}
	.st22{fill:#F9BB32;}
	.st23{fill:#DB9C2E;}
	.st24{fill:#FCF9DE;}
	.st25{fill:#FFEA63;}
	.st26{fill:#99AF17;}
	.st27{fill:#FCDA4F;}
	.st28{fill:#FFECCD;}
	.st29{fill:#FFEDCB;}
	.st30{fill:#FFEBCD;}
	.st31{fill:#FFEBCE;}
	.st32{fill:#FFECCC;}
</style>
<g>
	<g>
		<g>
			<path class="st23" d="M451.04,448.492l-1.079,1.051c-3.363,3.275-8.744,3.205-12.02-0.158L186.504,191.239
				c-3.275-3.363-3.205-8.744,0.158-12.02l1.079-1.051c3.363-3.275,8.744-3.205,12.02,0.158l251.436,258.146
				C454.473,439.835,454.402,445.217,451.04,448.492z"/>
		</g>
		<g>
			<path class="st10" d="M447.566,442.105L194.035,181.808c-1.491-1.531-1.914-3.785-1.38-6.097
				c-1.881,0.383-3.816,1.388-5.453,2.983c-3.661,3.566-4.442,8.701-1.745,11.47L438.988,450.46
				c2.697,2.769,7.851,2.123,11.512-1.443c1.637-1.594,2.693-3.502,3.125-5.372C451.3,444.118,449.057,443.636,447.566,442.105z"/>
		</g>
	</g>
	<g>
		<path class="st22" d="M355.296,347.029l-9.713,9.713c-30.266,30.266-79.336,30.266-109.601,0L81.074,201.835
			c-30.266-30.266-30.266-79.336,0-109.601l9.713-9.713c30.266-30.266,79.336-30.266,109.601,0l154.907,154.907
			C385.561,267.693,385.561,316.763,355.296,347.029z"/>
	</g>
	<g>
		<path class="st2" d="M329.274,337.005c-0.625,0-1.261-0.079-1.895-0.244c-4.009-1.044-6.412-5.139-5.368-9.147
			c2.126-8.166,1.865-14.067-0.735-16.617c-3.668-3.597-13.044-2.458-17.01-1.34c-0.07,0.02-0.165,0.045-0.235,0.063
			c-13.69,3.428-24,1.737-30.64-5.022c-10.605-10.796-6.038-29.2-5.483-31.263c0.18-0.666,0.447-1.294,0.789-1.872
			c1.532-7.035,1.094-12.113-1.277-14.423c-3.693-3.598-13.202-2.422-16.973-1.333c-0.086,0.024-0.172,0.048-0.259,0.069
			c-13.693,3.426-24,1.735-30.64-5.022c-9.181-9.347-6.991-24.395-5.877-29.606c0.012-0.578,0.091-1.16,0.241-1.733
			c2.129-8.181,1.864-14.087-0.749-16.631c-3.694-3.6-13.203-2.423-16.974-1.334c-0.086,0.024-0.172,0.048-0.259,0.069
			c-13.693,3.428-24,1.737-30.64-5.022c-10.605-10.796-6.038-29.2-5.482-31.263c0.179-0.666,0.446-1.295,0.789-1.872
			c1.531-7.034,1.093-12.112-1.278-14.422c-3.693-3.597-13.202-2.422-16.973-1.333c-0.086,0.024-0.172,0.048-0.259,0.069
			c-13.691,3.427-24,1.737-30.64-5.022c-10.605-10.796-6.039-29.201-5.483-31.264c1.077-3.999,5.192-6.367,9.192-5.292
			c4,1.077,6.369,5.193,5.291,9.192c-1.018,3.888-1.948,13.164,1.714,16.866c2.567,2.595,8.307,2.946,16.172,0.996
			c2.698-0.758,20.802-5.331,31.452,5.042c6.833,6.656,8.448,17.139,4.798,31.155c-0.164,0.628-0.405,1.224-0.714,1.775
			c-0.769,4.462-0.997,11.708,2.136,14.874c2.567,2.596,8.307,2.946,16.17,0.997c2.693-0.759,20.803-5.333,31.453,5.041
			c6.586,6.415,8.324,16.385,5.174,29.646c-0.018,0.57-0.102,1.144-0.254,1.708c-1.018,3.888-1.948,13.163,1.714,16.865
			c2.567,2.596,8.308,2.946,16.171,0.996c2.696-0.756,20.803-5.331,31.452,5.042c6.833,6.656,8.448,17.139,4.798,31.155
			c-0.163,0.628-0.405,1.224-0.714,1.775c-0.769,4.462-0.997,11.708,2.136,14.875c2.567,2.596,8.307,2.948,16.171,0.996
			c2.698-0.756,20.803-5.33,31.452,5.042c6.833,6.656,8.448,17.139,4.798,31.155C335.648,334.768,332.606,337.005,329.274,337.005z"
			/>
	</g>
	<g>
		<g>
			<circle class="st23" cx="147.39" cy="90.503" r="16.888"/>
		</g>
	</g>
	<g>
		<path class="st20" d="M312.917,227.177c-1.536,0-3.071-0.586-4.243-1.758l-88.267-88.268c-2.343-2.343-2.343-6.142,0-8.484
			c2.343-2.344,6.142-2.344,8.485,0l88.267,88.268c2.343,2.343,2.343,6.142,0,8.484
			C315.988,226.591,314.452,227.177,312.917,227.177z"/>
	</g>
	<g>
		<path class="st20" d="M354.569,291.762c-0.277,0-0.557-0.02-0.84-0.059c-3.281-0.46-5.569-3.493-5.109-6.774
			c2.902-20.716-19.805-39.457-20.035-39.644c-2.57-2.092-2.959-5.87-0.868-8.44c2.092-2.572,5.872-2.959,8.441-0.868
			c1.152,0.938,28.175,23.273,24.345,50.616C360.083,289.593,357.514,291.762,354.569,291.762z"/>
	</g>
	<g>
		<path class="st23" d="M265.68,327.044L110.773,172.136c-26.851-26.851-29.859-68.493-9.067-98.683
			c-3.839,2.644-7.504,5.653-10.918,9.067l-9.713,9.713c-30.266,30.266-30.266,79.336,0,109.601l154.907,154.907
			c30.265,30.265,79.335,30.265,109.601,0l9.713-9.713c3.415-3.415,6.423-7.079,9.067-10.918
			C334.172,356.903,292.531,353.894,265.68,327.044z"/>
	</g>
</g>
</svg>
