<?xml version="1.0" encoding="utf-8"?>
<!-- Generator: Adobe Illustrator 22.1.0, SVG Export Plug-In . SVG Version: 6.00 Build 0)  -->
<svg version="1.1" id="Layer_1" xmlns="http://www.w3.org/2000/svg" xmlns:xlink="http://www.w3.org/1999/xlink" x="0px" y="0px"
	 viewBox="0 0 512 512" style="enable-background:new 0 0 512 512;" xml:space="preserve">
<style type="text/css">
	.st0{fill:#FFF9DC;}
	.st1{fill:#FFB74B;}
	.st2{fill:#FF624B;}
	.st3{fill:#FF9079;}
	.st4{fill:#FF4B34;}
	.st5{fill:#FFEACF;}
	.st6{fill:#FFA730;}
	.st7{fill:#FFD551;}
	.st8{fill:#FFF7CA;}
	.st9{fill:#E58D23;}
	.st10{fill:#BF6C0D;}
	.st11{fill:#FFD59A;}
	.st12{fill:#A56021;}
	.st13{fill:#EACF32;}
	.st14{fill:#CCC033;}
	.st15{fill:#FCE575;}
	.st16{fill:#AD9B18;}
	.st17{fill:#FFEEA4;}
	.st18{fill:#FFF4C1;}
	.st19{fill:#FFDF74;}
	.st20{fill:#FFC34C;}
	.st21{fill:#8C4C17;}
	.st22{fill:#F9BB32;}
	.st23{fill:#DB9C2E;}
	.st24{fill:#FCF9DE;}
	.st25{fill:#FFEA63;}
	.st26{fill:#99AF17;}
	.st27{fill:#FCDA4F;}
	.st28{fill:#FFECCD;}
	.st29{fill:#FFEDCB;}
	.st30{fill:#FFEBCD;}
	.st31{fill:#FFEBCE;}
	.st32{fill:#FFECCC;}
</style>
<g>
	<g>
		
			<rect x="356.729" y="178.78" transform="matrix(-0.7071 -0.7071 0.7071 -0.7071 471.7724 627.8552)" class="st6" width="18.38" height="74.88"/>
	</g>
	<g>
		
			<rect x="126.449" y="178.78" transform="matrix(0.7071 -0.7071 0.7071 0.7071 -113.1632 159.2405)" class="st6" width="18.38" height="74.88"/>
	</g>
	<g>
		<path class="st2" d="M380.446,93.646c32.332,2.327,57.637,30.027,56.106,63.29c-1.429,31.037-26.621,56.228-57.659,57.656
			c-33.261,1.529-60.959-23.774-63.286-56.106c-0.171-2.378,1.692-4.413,4.077-4.413h52.265c2.256,0,4.084-1.829,4.084-4.084V97.723
			C376.033,95.338,378.067,93.475,380.446,93.646z"/>
	</g>
	<g>
		<path class="st6" d="M470.566,333.404c-3.151,0-6.252-1.485-8.198-4.261l-16.159-23.054h-59.637c-5.523,0-10-4.477-10-10
			s4.477-10,10-10h64.839c3.261,0,6.317,1.59,8.189,4.26l19.146,27.314c3.17,4.522,2.073,10.758-2.449,13.929
			C474.55,332.816,472.548,333.404,470.566,333.404z"/>
	</g>
	<g>
		<path class="st6" d="M436.87,376.29c-3.151,0-6.251-1.485-8.197-4.261l-16.16-23.054h-59.637c-5.523,0-10-4.477-10-10
			s4.477-10,10-10h64.839c3.261,0,6.317,1.59,8.188,4.26l19.146,27.314c3.17,4.522,2.074,10.758-2.449,13.928
			C440.854,375.702,438.852,376.29,436.87,376.29z"/>
	</g>
	<g>
		<path class="st6" d="M396.026,428.366c-3.151,0-6.251-1.485-8.197-4.261l-16.16-23.054h-59.637c-5.523,0-10-4.477-10-10
			s4.477-10,10-10h64.839c3.261,0,6.317,1.59,8.188,4.26l19.146,27.314c3.17,4.522,2.074,10.758-2.449,13.928
			C400.01,427.778,398.008,428.366,396.026,428.366z"/>
	</g>
	<g>
		<path class="st6" d="M41.434,333.404c-1.982,0-3.984-0.588-5.731-1.812c-4.522-3.17-5.619-9.406-2.449-13.929l19.146-27.314
			c1.872-2.67,4.928-4.26,8.189-4.26h64.839c5.523,0,10,4.477,10,10s-4.477,10-10,10H65.791l-16.159,23.054
			C47.686,331.919,44.585,333.404,41.434,333.404z"/>
	</g>
	<g>
		<path class="st6" d="M75.13,376.29c-1.982,0-3.984-0.588-5.731-1.813c-4.522-3.17-5.619-9.406-2.449-13.928l19.146-27.314
			c1.872-2.67,4.928-4.26,8.188-4.26h64.839c5.523,0,10,4.477,10,10s-4.477,10-10,10H99.487l-16.16,23.054
			C81.382,374.805,78.281,376.29,75.13,376.29z"/>
	</g>
	<g>
		<path class="st6" d="M115.974,428.366c-1.982,0-3.984-0.588-5.731-1.813c-4.522-3.17-5.619-9.406-2.449-13.928l19.146-27.314
			c1.872-2.67,4.928-4.26,8.188-4.26h64.839c5.523,0,10,4.477,10,10s-4.477,10-10,10h-59.637l-16.16,23.054
			C122.226,426.88,119.125,428.365,115.974,428.366z"/>
	</g>
	<g>
		<ellipse class="st2" cx="250.779" cy="304.26" rx="148.201" ry="106.843"/>
	</g>
	<g>
		<path class="st4" d="M291.623,400.892c-81.849,0-148.201-47.836-148.201-106.843c0-41.196,32.344-76.94,79.719-94.769
			c-68.639,9.335-120.563,52.783-120.563,104.98c0,59.007,66.352,106.843,148.201,106.843c24.707,0,47.998-4.365,68.482-12.074
			C310.305,400.247,301.069,400.892,291.623,400.892z"/>
	</g>
	<g>
		<path class="st2" d="M118.107,93.646c-32.332,2.327-57.637,30.027-56.106,63.29c1.429,31.037,26.621,56.228,57.659,57.656
			c33.261,1.529,60.959-23.774,63.286-56.106c0.171-2.378-1.692-4.413-4.077-4.413h-52.265c-2.256,0-4.084-1.829-4.084-4.084V97.723
			C122.52,95.338,120.486,93.475,118.107,93.646z"/>
	</g>
	<g>
		<path class="st4" d="M140.082,204.381c-31.037-1.428-56.23-26.618-57.659-57.656c-0.957-20.777,8.558-39.383,23.715-50.991
			c-26.372,7.39-45.473,32.175-44.137,61.202c1.429,31.038,26.621,56.228,57.659,57.656c14.942,0.687,28.751-4.053,39.652-12.401
			C153.232,203.893,146.773,204.688,140.082,204.381z"/>
	</g>
	<g>
		<g>
			<path class="st4" d="M399.315,204.381c-31.245,1.436-57.576-20.806-62.584-50.308h-17.048c-2.385,0-4.248,2.034-4.077,4.412
				c2.327,32.332,30.025,57.635,63.286,56.106c12.651-0.582,24.33-5.114,33.825-12.379
				C408.418,203.418,403.933,204.168,399.315,204.381z"/>
		</g>
	</g>
	<g>
		<path class="st3" d="M358.413,356.917c-1.318,0-2.645-0.432-3.752-1.321c-2.584-2.075-2.997-5.851-0.922-8.435
			c38.191-47.567-2.15-87.759-3.886-89.447c-2.373-2.306-2.435-6.103-0.133-8.479c2.301-2.377,6.087-2.448,8.47-0.151
			c0.517,0.498,12.742,12.424,19.514,31.334c6.333,17.688,8.94,44.928-14.607,74.256C361.91,356.15,360.169,356.917,358.413,356.917
			z"/>
	</g>
	<g>
		<path class="st3" d="M422.077,163.002c-3.26,0-5.933-2.61-5.997-5.884c-0.499-25.748-22.801-39.046-23.75-39.6
			c-2.856-1.666-3.834-5.333-2.177-8.194c1.657-2.862,5.309-3.848,8.175-2.199c1.189,0.683,29.118,17.114,29.75,49.761
			c0.064,3.313-2.57,6.051-5.883,6.115C422.156,163.002,422.117,163.002,422.077,163.002z"/>
	</g>
	<g>
		<g>
			<circle class="st4" cx="190.705" cy="333.3" r="16.267"/>
		</g>
	</g>
	<g>
		<g>
			<circle class="st4" cx="227.189" cy="361.469" r="16.267"/>
		</g>
	</g>
	<g>
		<circle cx="291.623" cy="198.009" r="12.443"/>
	</g>
	<g>
		<circle cx="209.935" cy="198.009" r="12.443"/>
	</g>
	<g>
		<path class="st3" d="M143.696,199.374c-2.683,0-5.126-1.813-5.813-4.533c-0.811-3.213,1.136-6.475,4.349-7.286
			c14.614-3.689,13.602-14.943,13.251-17.162c-0.582-3.262,1.596-6.351,4.858-6.933c3.263-0.578,6.384,1.619,6.965,4.881
			c1.491,8.36-1.217,25.567-22.138,30.848C144.676,199.314,144.182,199.374,143.696,199.374z"/>
	</g>
</g>
</svg>
