<?xml version="1.0" encoding="utf-8"?>
<!-- Generator: Adobe Illustrator 22.1.0, SVG Export Plug-In . SVG Version: 6.00 Build 0)  -->
<svg version="1.1" id="Layer_1" xmlns="http://www.w3.org/2000/svg" xmlns:xlink="http://www.w3.org/1999/xlink" x="0px" y="0px"
	 viewBox="0 0 512 512" style="enable-background:new 0 0 512 512;" xml:space="preserve">
<style type="text/css">
	.st0{fill:#FFF9DC;}
	.st1{fill:#FFB74B;}
	.st2{fill:#FF624B;}
	.st3{fill:#FF9079;}
	.st4{fill:#FF4B34;}
	.st5{fill:#FFEACF;}
	.st6{fill:#FFA730;}
	.st7{fill:#FFD551;}
	.st8{fill:#FFF7CA;}
	.st9{fill:#E58D23;}
	.st10{fill:#BF6C0D;}
	.st11{fill:#FFD59A;}
	.st12{fill:#A56021;}
	.st13{fill:#EACF32;}
	.st14{fill:#CCC033;}
	.st15{fill:#FCE575;}
	.st16{fill:#AD9B18;}
	.st17{fill:#FFEEA4;}
	.st18{fill:#FFF4C1;}
	.st19{fill:#FFDF74;}
	.st20{fill:#FFC34C;}
	.st21{fill:#8C4C17;}
	.st22{fill:#F9BB32;}
	.st23{fill:#DB9C2E;}
	.st24{fill:#FCF9DE;}
	.st25{fill:#FFEA63;}
	.st26{fill:#99AF17;}
	.st27{fill:#FCDA4F;}
	.st28{fill:#FFECCD;}
	.st29{fill:#FFEDCB;}
	.st30{fill:#FFEBCD;}
	.st31{fill:#FFEBCE;}
	.st32{fill:#FFECCC;}
</style>
<g>
	<g>
		<path class="st24" d="M94.201,369.876c-0.107,1.648-0.173,3.304-0.177,4.97c-0.02,7.856,1.114,15.525,3.282,22.931h315.522
			c2.119-7.259,3.245-14.772,3.265-22.467c0.004-1.568-0.05-3.125-0.137-4.677c4.976-3.161,8.046-7.449,8.058-12.179
			c0.013-5.11-3.539-9.714-9.22-12.944c0.216-0.864,0.33-1.749,0.333-2.65c0.015-5.911-4.743-11.146-12.05-14.358
			c1.022-1.8,1.587-3.732,1.593-5.744c0.019-7.508-7.656-13.927-18.485-16.489c0.076-0.516,0.123-1.037,0.124-1.565
			c0.021-8.375-9.53-15.395-22.355-17.218c-2.705-5.377-9.511-9.66-18.193-11.496c-5.288-4.045-13.424-6.645-22.562-6.659
			c-3.204-0.005-6.284,0.314-9.167,0.897c-2.937-0.81-5.92-1.556-8.939-2.246c-4.421-6.272-14.626-10.673-26.525-10.69
			c-8-0.012-15.245,1.96-20.488,5.156c-0.142-0.002-0.285-0.003-0.428-0.005c-5.226-3.209-12.459-5.199-20.455-5.211
			c-11.064-0.016-20.681,3.762-25.557,9.324c-4.121,0.805-8.175,1.722-12.156,2.745c-1.21-0.096-2.44-0.152-3.691-0.154
			c-11.874-0.017-22.081,4.336-26.55,10.574c-4.969,2.192-9.752,4.571-14.334,7.119c-9.803,0.646-18.133,4.282-22.493,9.386
			c-13.353,1.542-23.46,8.687-23.482,17.287c-0.004,1.549,0.322,3.052,0.933,4.484c-5.935,3.222-9.682,7.913-9.695,13.144
			c-0.007,2.596,0.913,5.059,2.558,7.281c-0.499,1.016-0.98,2.037-1.439,3.066c-9.397,2.901-15.848,8.838-15.866,15.705
			C85.414,362.167,88.782,366.661,94.201,369.876z"/>
	</g>
	<path class="st18" d="M282.198,317.401v-52.444c0-7.124-7.26-12.792-15.962-12.512c-98.674,3.184-176.369,37.655-176.369,79.711
		c0,2.103,0.218,4.184,0.604,6.246c0,0.002,0,0.004,0,0.006v18.26c0,6.812,5.522,12.333,12.333,12.333h1.137
		c6.812,0,12.333-5.522,12.333-12.333v-10.823c0-2.394,1.94-4.334,4.334-4.334h3.993c2.394,0,4.334,1.94,4.334,4.334
		c0,6.791,5.312,12.632,12.102,12.738c6.882,0.107,12.494-5.439,12.494-12.296c0-2.638,2.138-4.776,4.776-4.776h6.218
		c2.638,0,4.776,2.138,4.776,4.776v6.595c0,6.79,5.312,12.632,12.102,12.738c6.882,0.107,12.494-5.439,12.494-12.296v-0.442
		c0-6.28,5.091-11.371,11.371-11.371h41.289c6.28,0,11.371,5.091,11.371,11.371c0,6.79,5.312,12.632,12.102,12.738
		c6.882,0.107,12.494-5.439,12.494-12.296v-35.923H282.198z"/>
	<g>
		<ellipse class="st18" cx="314.277" cy="310.718" rx="15.688" ry="15.552"/>
	</g>
	<g>
		<ellipse class="st18" cx="361.722" cy="337.948" rx="15.688" ry="15.552"/>
	</g>
	<g>
		<path class="st10" d="M282.198,307.401v-52.444c0-7.124-7.26-12.792-15.962-12.512c-98.674,3.184-176.369,37.655-176.369,79.711
			c0,2.103,0.218,4.184,0.604,6.246c0,0.002,0,0.004,0,0.006v18.26c0,6.812,5.522,12.333,12.333,12.333h1.137
			c6.812,0,12.333-5.522,12.333-12.333v-10.823c0-2.394,1.94-4.334,4.334-4.334h3.993c2.394,0,4.334,1.94,4.334,4.334
			c0,6.791,5.312,12.632,12.102,12.738c6.882,0.107,12.494-5.439,12.494-12.296c0-2.638,2.138-4.776,4.776-4.776h6.218
			c2.638,0,4.776,2.138,4.776,4.776v6.595c0,6.79,5.312,12.632,12.102,12.738c6.882,0.107,12.494-5.439,12.494-12.296v-0.442
			c0-6.28,5.091-11.371,11.371-11.371h41.289c6.28,0,11.371,5.091,11.371,11.371c0,6.79,5.312,12.632,12.102,12.738
			c6.882,0.107,12.494-5.439,12.494-12.296v-35.923H282.198z"/>
	</g>
	<g>
		<g>
			<path class="st12" d="M153.407,337.948c-0.696,0.769-1.131,1.778-1.131,2.897v0.83
				C152.84,340.521,153.228,339.269,153.407,337.948z"/>
		</g>
		<g>
			<path class="st12" d="M125.867,327.156c0-38.861,66.343-71.245,154.276-78.452c-2.757-3.891-7.996-6.45-13.907-6.259
				c-98.674,3.184-176.369,37.655-176.369,79.711c0,2.103,0.218,4.184,0.604,6.246c0,0.002,0,0.004,0,0.006v18.26
				c0,6.812,5.522,12.333,12.333,12.333h1.137c6.812,0,12.333-5.522,12.333-12.333v-10.823c0-2.394,1.94-4.334,4.334-4.334h3.993
				c0.569,0,1.11,0.117,1.608,0.316C125.989,330.282,125.867,328.725,125.867,327.156z"/>
		</g>
	</g>
	<g>
		<path class="st22" d="M144.921,295.11l-17.06-8.364c-4.215-2.067-5.957-7.159-3.89-11.374l4.512-9.203
			c2.067-4.215,7.159-5.957,11.374-3.89l17.06,8.364c4.215,2.067,5.957,7.159,3.89,11.374l-4.512,9.203
			C154.228,295.435,149.136,297.176,144.921,295.11z"/>
	</g>
	<g>
		<path class="st23" d="M135.643,281.095l4.512-9.203c2.067-4.215,7.159-5.957,11.374-3.89l-11.673-5.723
			c-4.215-2.066-9.307-0.325-11.374,3.89l-4.512,9.203c-2.067,4.215-0.325,9.307,3.89,11.374l11.673,5.723
			C135.318,290.402,133.577,285.31,135.643,281.095z"/>
	</g>
	<g>
		<path class="st12" d="M220.361,275.155h-19c-4.694,0-8.5-3.806-8.5-8.5v-7.823c0-4.694,3.806-8.5,8.5-8.5h19
			c4.694,0,8.5,3.806,8.5,8.5v7.823C228.861,271.349,225.055,275.155,220.361,275.155z"/>
	</g>
	<g>
		<path class="st6" d="M227.361,265.582h-19c-4.694,0-8.5-3.806-8.5-8.5v-10.25c0-4.694,3.806-8.5,8.5-8.5h19
			c4.694,0,8.5,3.806,8.5,8.5v10.25C235.861,261.776,232.055,265.582,227.361,265.582z"/>
	</g>
	<g>
		<path class="st9" d="M213.861,257.082v-10.25c0-4.694,3.805-8.5,8.5-8.5h-14c-4.695,0-8.5,3.806-8.5,8.5v10.25
			c0,4.695,3.805,8.5,8.5,8.5h14C217.666,265.582,213.861,261.776,213.861,257.082z"/>
	</g>
	<g>
		<path class="st12" d="M195.825,318.265l-17.06-8.364c-4.215-2.067-5.957-7.159-3.89-11.374l4.512-9.203
			c2.067-4.215,7.159-5.957,11.374-3.89l17.06,8.364c4.215,2.067,5.957,7.159,3.89,11.374l-4.512,9.203
			C205.133,318.59,200.04,320.332,195.825,318.265z"/>
	</g>
	<g>
		<path class="st14" d="M202.224,311.009l-7.857-3.852c-6.757-3.313-9.548-11.475-6.236-18.232l0,0
			c3.313-6.757,11.475-9.548,18.232-6.236l7.857,3.852c6.757,3.313,9.548,11.475,6.236,18.232l0,0
			C217.143,311.53,208.98,314.321,202.224,311.009z"/>
	</g>
	<g>
		<path class="st26" d="M197.547,299.25l4.512-9.203c2.067-4.215,7.159-5.957,11.374-3.89l-11.673-5.723
			c-4.215-2.066-9.307-0.325-11.374,3.89l-4.512,9.203c-2.066,4.215-0.325,9.307,3.89,11.374l11.673,5.723
			C197.223,308.557,195.481,303.465,197.547,299.25z"/>
	</g>
	<g>
		<ellipse class="st12" cx="252.47" cy="287.132" rx="15.688" ry="15.552"/>
	</g>
	<path class="st19" d="M256,377.882H51.999l39.796,38.621c6.356,6.169,16.027,9.765,26.258,9.765H256h137.947
		c10.231,0,19.902-3.597,26.258-9.765l39.796-38.621H256z"/>
	<path class="st19" d="M471.009,377.882H40.991c-4.418,0-8-3.582-8-8v-3.87c0-4.418,3.582-8,8-8h430.017c4.418,0,8,3.582,8,8v3.87
		C479.009,374.301,475.427,377.882,471.009,377.882z"/>
	<path class="st7" d="M460.001,377.882H256H90.294H51.999l11.385,11.049h0l28.411,27.573c6.356,6.169,16.027,9.765,26.258,9.765
		h38.295c-10.231,0-19.902-3.597-26.258-9.765l-28.411-27.573h346.938L460.001,377.882z"/>
	<path class="st24" d="M377.934,420.837c-5.353,0-9.02-0.581-9.437-0.65c-3.27-0.543-5.479-3.633-4.937-6.901
		c0.542-3.266,3.624-5.473,6.889-4.938l0,0c0.235,0.039,23.793,3.66,36.999-9.818c2.318-2.368,6.118-2.405,8.485-0.087
		c2.367,2.319,2.405,6.118,0.087,8.485C404.462,418.724,388.139,420.837,377.934,420.837z"/>
	<path class="st20" d="M468.927,138.333H282.462v-27.651h186.465c5.523,0,10,4.477,10,10v7.651
		C478.927,133.856,474.45,138.333,468.927,138.333z"/>
	<path class="st22" d="M469.596,130.2H313.147c-4.123,0-7.465-2.913-7.465-6.506v-13.012h-23.22V130.2v8.133h23.22h163.914
		c5.153,0,9.331-3.641,9.331-8.133v-8.133C478.927,126.559,474.749,130.2,469.596,130.2z"/>
	<ellipse class="st20" cx="226.564" cy="121.435" rx="63.382" ry="26.5"/>
	<ellipse class="st22" cx="226.564" cy="121.435" rx="58.382" ry="21.5"/>
	<g>
		<g>
			<path class="st24" d="M179.513,130.909c-0.031,0.646-0.051,1.296-0.052,1.949c-0.006,3.081,0.328,6.089,0.967,8.993h92.988
				c0.625-2.847,0.956-5.793,0.962-8.811c0.001-0.615-0.015-1.226-0.04-1.834c1.467-1.24,2.371-2.921,2.375-4.777
				c0.004-2.004-1.043-3.81-2.717-5.076c0.064-0.339,0.097-0.686,0.098-1.039c0.004-2.318-1.398-4.372-3.551-5.631
				c0.301-0.706,0.468-1.463,0.469-2.253c0.006-2.944-2.256-5.462-5.448-6.467c0.022-0.202,0.036-0.407,0.037-0.614
				c0.006-3.284-2.809-6.038-6.588-6.753c-0.797-2.109-2.803-3.789-5.362-4.509c-1.559-1.586-3.956-2.606-6.649-2.611
				c-0.944-0.002-1.852,0.123-2.701,0.352c-0.866-0.318-1.745-0.61-2.635-0.881c-1.303-2.46-4.311-4.186-7.817-4.193
				c-2.358-0.005-4.493,0.769-6.038,2.022c-0.042-0.001-0.084-0.001-0.126-0.002c-1.54-1.258-3.672-2.039-6.028-2.044
				c-3.261-0.006-6.095,1.475-7.532,3.657c-1.215,0.316-2.409,0.675-3.582,1.077c-0.357-0.038-0.719-0.06-1.088-0.06
				c-3.499-0.007-6.508,1.701-7.824,4.147c-1.464,0.86-2.874,1.793-4.224,2.792c-2.889,0.253-5.344,1.679-6.629,3.681
				c-3.935,0.605-6.914,3.407-6.92,6.78c-0.001,0.608,0.095,1.197,0.275,1.759c-1.749,1.264-2.854,3.104-2.857,5.155
				c-0.002,1.018,0.269,1.984,0.754,2.856c-0.147,0.398-0.289,0.799-0.424,1.202c-2.769,1.138-4.671,3.466-4.676,6.159
				C176.923,127.886,177.916,129.648,179.513,130.909z"/>
		</g>
	</g>
	<g>
		<path class="st10" d="M241.109,112.411V90.874c0-2.925-2.574-5.254-5.659-5.138c-34.986,1.307-62.533,15.464-62.533,32.735
			c0,0.864,0.077,1.718,0.214,2.565c0,0.001,0,0.002,0,0.002v7.499c0,2.797,1.958,5.065,4.373,5.065h0.403
			c2.415,0,4.373-2.268,4.373-5.065v-4.445c0-0.983,0.688-1.78,1.537-1.78h1.416c0.849,0,1.537,0.797,1.537,1.78
			c0,2.789,1.883,5.188,4.291,5.231c2.44,0.044,4.43-2.234,4.43-5.05c0-1.083,0.758-1.961,1.693-1.961h2.205
			c0.935,0,1.693,0.878,1.693,1.961v2.708c0,2.788,1.883,5.188,4.291,5.231c2.44,0.044,4.43-2.234,4.43-5.05v-0.181
			c0-2.579,1.805-4.67,4.032-4.67h14.639c2.227,0,4.032,2.091,4.032,4.67c0,2.788,1.883,5.188,4.291,5.231
			c2.44,0.044,4.43-2.234,4.43-5.05v-14.753H241.109z"/>
	</g>
	<g>
		<g>
			<path class="st12" d="M195.445,124.956c-0.247,0.316-0.401,0.73-0.401,1.19v0.341
				C195.244,126.013,195.381,125.499,195.445,124.956z"/>
		</g>
		<g>
			<path class="st12" d="M185.68,120.524c0-15.959,23.523-29.258,54.7-32.218c-0.977-1.598-2.835-2.649-4.931-2.571
				c-34.986,1.307-62.533,15.464-62.533,32.735c0,0.864,0.077,1.718,0.214,2.565c0,0.001,0,0.002,0,0.002v7.499
				c0,2.797,1.958,5.065,4.373,5.065h0.403c2.415,0,4.373-2.268,4.373-5.065v-4.445c0-0.983,0.688-1.78,1.537-1.78h1.416
				c0.202,0,0.394,0.048,0.57,0.13C185.723,121.808,185.68,121.168,185.68,120.524z"/>
		</g>
	</g>
	<g>
		<g>
			<path class="st26" d="M229.672,120.944l-2.571-6.674c-1.588-4.123,0.466-8.753,4.589-10.341L241.887,100
				c-0.051,0.019-0.103,0.031-0.154,0.051l-23.043,8.878c-4.123,1.588-6.177,6.218-4.589,10.341l2.571,6.674
				c1.589,4.123,6.219,6.177,10.342,4.589l12.845-4.949C235.776,127.063,231.241,125.016,229.672,120.944z"/>
		</g>
		<g>
			<path class="st14" d="M255.056,119.655l-23.043,8.878c-4.123,1.589-8.753-0.466-10.341-4.589l-2.572-6.674
				c-1.588-4.123,0.466-8.753,4.589-10.341l23.043-8.878c4.123-1.588,8.753,0.466,10.341,4.589l2.572,6.674
				C261.234,113.436,259.179,118.066,255.056,119.655z"/>
		</g>
	</g>
	<path class="st20" d="M226.564,139.529c-35.005,0-63.382-8.101-63.382-18.094c-0.172,1.069-0.274,2.149-0.274,3.243
		c0,19.656,28.438,35.59,63.519,35.59s63.519-15.934,63.519-35.59c0-0.713-0.056-1.418-0.134-2.12
		C287.778,132.028,260.246,139.529,226.564,139.529z"/>
</g>
</svg>
