<?xml version="1.0" encoding="utf-8"?>
<!-- Generator: Adobe Illustrator 22.1.0, SVG Export Plug-In . SVG Version: 6.00 Build 0)  -->
<svg version="1.1" id="Layer_1" xmlns="http://www.w3.org/2000/svg" xmlns:xlink="http://www.w3.org/1999/xlink" x="0px" y="0px"
	 viewBox="0 0 512 512" style="enable-background:new 0 0 512 512;" xml:space="preserve">
<style type="text/css">
	.st0{fill:#FFF9DC;}
	.st1{fill:#FFB74B;}
	.st2{fill:#FF624B;}
	.st3{fill:#FF9079;}
	.st4{fill:#FF4B34;}
	.st5{fill:#FFEACF;}
	.st6{fill:#FFA730;}
	.st7{fill:#FFD551;}
	.st8{fill:#FFF7CA;}
	.st9{fill:#E58D23;}
	.st10{fill:#BF6C0D;}
	.st11{fill:#FFD59A;}
	.st12{fill:#A56021;}
	.st13{fill:#EACF32;}
	.st14{fill:#CCC033;}
	.st15{fill:#FCE575;}
	.st16{fill:#AD9B18;}
	.st17{fill:#FFEEA4;}
	.st18{fill:#FFF4C1;}
	.st19{fill:#FFDF74;}
	.st20{fill:#FFC34C;}
	.st21{fill:#8C4C17;}
	.st22{fill:#F9BB32;}
	.st23{fill:#DB9C2E;}
	.st24{fill:#FCF9DE;}
	.st25{fill:#FFEA63;}
	.st26{fill:#99AF17;}
	.st27{fill:#FCDA4F;}
	.st28{fill:#FFECCD;}
	.st29{fill:#FFEDCB;}
	.st30{fill:#FFEBCD;}
	.st31{fill:#FFEBCE;}
	.st32{fill:#FFECCC;}
</style>
<g>
	<g>
		<path class="st24" d="M402.707,241.774c2.038-48.902-57.673-65.94-75.479-69.924c-1.917-0.429-2.4-2.655-0.806-3.696l0.003-0.002
			c1.206-0.788,1.757-2.147,1.394-3.439l-0.719-2.561c-0.507-1.809-2.604-2.877-4.611-2.35l-8.789,2.311
			c-107.937,27.687-98.533,84.701-98.533,84.701l0.042-0.001c1.447,33.663,42.882,60.658,93.789,60.658
			c51.822,0,93.832-27.973,93.832-62.478C402.829,243.913,402.788,242.84,402.707,241.774z"/>
	</g>
	<g>
		<path class="st18" d="M248.964,246.813l-0.042,0.001c0,0-8.084-49.126,77.097-78.32c0.117-0.122,0.247-0.238,0.403-0.34
			l0.003-0.002c1.206-0.788,1.757-2.147,1.394-3.439l-0.719-2.561c-0.507-1.809-2.604-2.877-4.611-2.35l-8.789,2.311
			c-107.937,27.687-98.533,84.701-98.533,84.701l0.042-0.001c1.447,33.663,42.882,60.658,93.789,60.658
			c5.765,0,11.406-0.348,16.884-1.011C282.982,301.272,250.247,276.667,248.964,246.813z"/>
	</g>
	<g>
		<g>
			<ellipse class="st18" cx="269.234" cy="244.269" rx="15.672" ry="15.258"/>
		</g>
	</g>
	<g>
		<path class="st18" d="M317.037,214.369c-3.101,0-5.728-2.386-5.975-5.529l-1.326-16.858c-0.26-3.304,2.208-6.192,5.511-6.452
			c3.313-0.255,6.193,2.207,6.452,5.511l1.326,16.858c0.26,3.304-2.208,6.192-5.511,6.452
			C317.354,214.363,317.194,214.369,317.037,214.369z"/>
	</g>
	<g>
		<path class="st18" d="M349.396,205.234c-1.143,0-2.297-0.326-3.319-1.007l-16.198-10.783c-2.759-1.836-3.506-5.561-1.67-8.319
			c1.837-2.759,5.562-3.506,8.319-1.669l16.198,10.783c2.759,1.836,3.506,5.561,1.67,8.319
			C353.241,204.295,351.336,205.234,349.396,205.234z"/>
	</g>
	<g>
		<path class="st18" d="M282.046,210.255c-1.629,0-3.252-0.659-4.436-1.958c-2.232-2.448-2.057-6.243,0.392-8.476l14.323-13.058
			c2.45-2.232,6.245-2.057,8.477,0.392c2.232,2.448,2.057,6.243-0.392,8.476l-14.323,13.058
			C284.937,209.737,283.489,210.255,282.046,210.255z"/>
	</g>
	<g>
		<path class="st7" d="M430.01,340.092H87.959v-70.171c0-4.418,3.582-8,8-8H422.01c4.418,0,8,3.582,8,8V340.092z"/>
	</g>
	<g>
		<path class="st20" d="M135.959,301.48c-4.418,0-8-3.582-8-8v-22.276c0-4.897,3.582-8.867,8-8.867h-40c-4.418,0-8,3.97-8,8.867
			v30.276v50.983h40H430.01V301.48H135.959z"/>
	</g>
	<g>
		<path class="st19" d="M443.034,435.632H68.884V324.38c0-4.418,3.582-8,8-8h358.151c4.418,0,8,3.582,8,8V435.632z"/>
	</g>
	<g>
		<path class="st7" d="M116.448,316.142h-40c-4.418,0-8,3.443-8,7.691v111.561h40V323.832
			C108.448,319.585,112.03,316.142,116.448,316.142z"/>
	</g>
	<g>
		<path class="st10" d="M424.471,472.333H86.575c-5.523,0-10-4.477-10-10v-22.5h357.896v22.5
			C434.471,467.856,429.994,472.333,424.471,472.333z"/>
	</g>
	<g>
		<path class="st12" d="M86.144,458.033h348.327v-18.2H76.575v19.5c0,7.18,4.284,13,9.569,13V458.033z"/>
	</g>
	<g>
		<path class="st10" d="M467.087,445.933H43.959c-5.523,0-10-4.477-10-10v0c0-5.523,4.477-10,10-10h423.128c5.523,0,10,4.477,10,10
			v0C477.087,441.456,472.61,445.933,467.087,445.933z"/>
	</g>
	<g>
		<g>
			<circle class="st7" cx="137.182" cy="372.946" r="16.888"/>
		</g>
	</g>
	<g>
		<g>
			<circle class="st7" cx="174.809" cy="399.277" r="16.888"/>
		</g>
	</g>
	<g>
		<path class="st15" d="M378.245,283.117H250.43c-3.314,0-6-2.687-6-6s2.686-6,6-6h127.815c3.313,0,6,2.687,6,6
			S381.559,283.117,378.245,283.117z"/>
	</g>
	<g>
		<path class="st15" d="M413.796,283.117h-15.435c-3.313,0-6-2.687-6-6s2.687-6,6-6h15.435c3.313,0,6,2.687,6,6
			S417.11,283.117,413.796,283.117z"/>
	</g>
	<g>
		<path class="st22" d="M473.041,145.272h-293.63v-22.088h293.63c2.761,0,5,2.239,5,5v12.088
			C478.041,143.033,475.802,145.272,473.041,145.272z"/>
	</g>
	<g>
		<path class="st9" d="M472.824,133.223H179.411v12.048h293.413c2.881,0,5.217-2.247,5.217-5.02v-12.048
			C478.041,130.976,475.705,133.223,472.824,133.223z"/>
	</g>
	<g>
		<path class="st18" d="M421.959,416.333c-3.313,0-6-2.687-6-6v-76.178c0-3.313,2.687-6,6-6s6,2.687,6,6v76.178
			C427.959,413.646,425.272,416.333,421.959,416.333z"/>
	</g>
	<g>
		<path class="st24" d="M256.196,121.774c2.038-48.902-57.673-65.94-75.48-69.924c-1.917-0.429-2.4-2.655-0.806-3.696l0.003-0.002
			c1.206-0.788,1.757-2.147,1.394-3.439l-0.719-2.561c-0.507-1.809-2.604-2.877-4.611-2.35l-8.789,2.311
			C59.251,69.8,68.655,126.813,68.655,126.813l0.042-0.001c1.447,33.663,42.882,60.658,93.789,60.658
			c51.822,0,93.832-27.973,93.832-62.478C256.318,123.913,256.277,122.84,256.196,121.774z"/>
	</g>
	<g>
		<path class="st18" d="M102.452,126.813l-0.042,0.001c0,0-8.084-49.126,77.097-78.32c0.117-0.122,0.247-0.238,0.403-0.34
			l0.003-0.002c1.206-0.788,1.757-2.147,1.394-3.439l-0.719-2.561c-0.507-1.809-2.604-2.877-4.611-2.35l-8.789,2.311
			C59.251,69.8,68.655,126.813,68.655,126.813l0.042-0.001c1.447,33.663,42.882,60.658,93.789,60.658
			c5.765,0,11.406-0.348,16.884-1.011C136.471,181.272,103.736,156.667,102.452,126.813z"/>
	</g>
	<g>
		<g>
			<ellipse class="st18" cx="122.723" cy="124.269" rx="15.672" ry="15.258"/>
		</g>
	</g>
	<g>
		<path class="st18" d="M170.525,94.369c-3.101,0-5.728-2.386-5.975-5.529l-1.326-16.858c-0.26-3.304,2.208-6.192,5.511-6.452
			c3.312-0.257,6.193,2.207,6.452,5.511l1.326,16.858c0.26,3.304-2.208,6.192-5.511,6.452
			C170.842,94.363,170.683,94.369,170.525,94.369z"/>
	</g>
	<g>
		<path class="st18" d="M202.885,85.234c-1.143,0-2.297-0.326-3.319-1.007l-16.198-10.783c-2.759-1.836-3.506-5.561-1.67-8.319
			c1.836-2.759,5.562-3.506,8.319-1.669l16.198,10.783c2.759,1.836,3.506,5.561,1.67,8.319
			C206.729,84.295,204.825,85.234,202.885,85.234z"/>
	</g>
	<g>
		<path class="st18" d="M135.535,90.255c-1.629,0-3.252-0.659-4.436-1.958c-2.232-2.448-2.057-6.243,0.392-8.476l14.323-13.058
			c2.45-2.232,6.244-2.057,8.477,0.392s2.057,6.243-0.392,8.476l-14.323,13.058C138.425,89.737,136.978,90.255,135.535,90.255z"/>
	</g>
	<g>
		<path class="st22" d="M473.041,108.124H127.969c-2.761,0-5-2.239-5-5V91.035c0-2.761,2.239-5,5-5h345.072c2.761,0,5,2.239,5,5
			v12.088C478.041,105.885,475.802,108.124,473.041,108.124z"/>
	</g>
	<g>
		<path class="st9" d="M138.619,96.075c-2.881,0-5.217-2.247-5.217-5.02v-5.02h-5.217c-2.881,0-5.217,2.248-5.217,5.02v12.048
			c0,2.773,2.336,5.02,5.217,5.02h344.638c2.881,0,5.217-2.247,5.217-5.02v-7.028H138.619z"/>
	</g>
</g>
</svg>
