<?xml version="1.0" encoding="iso-8859-1"?>
<!-- Uploaded to: SVG Repo, www.svgrepo.com, Generator: SVG Repo Mixer Tools -->
<svg height="800px" width="800px" version="1.1" id="Layer_1" xmlns="http://www.w3.org/2000/svg" xmlns:xlink="http://www.w3.org/1999/xlink" 
	 viewBox="0 0 512 512" xml:space="preserve">
<g>
	<ellipse style="fill:#EDDABF;" cx="53.474" cy="162.32" rx="43.275" ry="56.657"/>
	<circle style="fill:#EDDABF;" cx="259.672" cy="255.102" r="144.217"/>
</g>
<g>
	<path style="fill:#570029;" d="M92.174,116.067c-10.147-13.285-23.893-20.602-38.703-20.602s-28.556,7.317-38.703,20.602
		C5.244,128.535,0,144.961,0,162.319c0,32.307,18.425,59.331,42.825,65.52v178.497c0,5.633,4.566,10.199,10.199,10.199
		s10.199-4.566,10.199-10.199V228.067c11.026-2.491,21.074-9.185,28.949-19.497c9.523-12.469,14.767-28.894,14.767-46.251
		S101.697,128.535,92.174,116.067z M53.47,208.775c-18.236,0-33.072-20.84-33.072-46.455s14.836-46.455,33.072-46.455
		s33.073,20.84,33.073,46.455S71.708,208.775,53.47,208.775z"/>
	<path style="fill:#570029;" d="M501.801,96.655c-5.633,0-10.199,4.566-10.199,10.199v55.465c0,33.156-9.185,42.646-17.966,45.363
		V106.854c0-5.633-4.566-10.199-10.199-10.199s-10.199,4.566-10.199,10.199v100.529c-8.5-3.087-17.074-13.031-17.074-45.064v-55.465
		c0-5.633-4.566-10.199-10.199-10.199s-10.199,4.566-10.199,10.199v55.465c0,39.121,12.599,61.224,37.473,65.902v178.114
		c0,5.633,4.566,10.199,10.199,10.199s10.199-4.566,10.199-10.199v-177.96C499.098,224.06,512,201.903,512,162.319v-55.465
		C512,101.221,507.434,96.655,501.801,96.655z"/>
	<path style="fill:#570029;" d="M259.673,100.693c-85.144,0-154.415,69.27-154.415,154.415s69.27,154.415,154.415,154.415
		s154.415-69.27,154.415-154.415C414.088,169.964,344.818,100.693,259.673,100.693z M259.673,389.124
		c-73.897,0-134.017-60.119-134.017-134.017s60.119-134.017,134.017-134.017s134.017,60.119,134.017,134.017
		S333.57,389.124,259.673,389.124z"/>
	<path style="fill:#570029;" d="M351.911,294.396c-4.93-2.727-11.134-0.942-13.863,3.985c-0.886,1.602-1.835,3.196-2.817,4.741
		c-3.026,4.751-1.627,11.056,3.124,14.081c1.698,1.082,3.594,1.598,5.469,1.598c3.37,0,6.668-1.67,8.612-4.722
		c1.208-1.895,2.371-3.853,3.46-5.821C358.624,303.33,356.84,297.124,351.911,294.396z"/>
	<path style="fill:#570029;" d="M259.673,145.198c-60.604,0-109.91,49.305-109.91,109.91s49.305,109.91,109.91,109.91
		c25.427,0,50.221-8.886,69.818-25.02c4.349-3.581,4.972-10.008,1.391-14.356c-3.581-4.348-10.008-4.971-14.356-1.391
		c-15.955,13.136-36.145,20.37-56.852,20.37c-49.357,0-89.511-40.154-89.511-89.511s40.154-89.511,89.511-89.511
		s89.511,40.154,89.511,89.511c0,5.633,4.566,10.199,10.199,10.199c5.633,0,10.199-4.566,10.199-10.199
		C369.581,194.504,320.276,145.198,259.673,145.198z"/>
</g>
</svg>