<?xml version="1.0" encoding="utf-8"?>
<!-- Generator: Adobe Illustrator 22.1.0, SVG Export Plug-In . SVG Version: 6.00 Build 0)  -->
<svg version="1.1" id="Layer_1" xmlns="http://www.w3.org/2000/svg" xmlns:xlink="http://www.w3.org/1999/xlink" x="0px" y="0px"
	 viewBox="0 0 512 512" style="enable-background:new 0 0 512 512;" xml:space="preserve">
<style type="text/css">
	.st0{fill:#FFF9DC;}
	.st1{fill:#FFB74B;}
	.st2{fill:#FF624B;}
	.st3{fill:#FF9079;}
	.st4{fill:#FF4B34;}
	.st5{fill:#FFEACF;}
	.st6{fill:#FFA730;}
	.st7{fill:#FFD551;}
	.st8{fill:#FFF7CA;}
	.st9{fill:#E58D23;}
	.st10{fill:#BF6C0D;}
	.st11{fill:#FFD59A;}
	.st12{fill:#A56021;}
	.st13{fill:#EACF32;}
	.st14{fill:#CCC033;}
	.st15{fill:#FCE575;}
	.st16{fill:#AD9B18;}
	.st17{fill:#FFEEA4;}
	.st18{fill:#FFF4C1;}
	.st19{fill:#FFDF74;}
	.st20{fill:#FFC34C;}
	.st21{fill:#8C4C17;}
	.st22{fill:#F9BB32;}
	.st23{fill:#DB9C2E;}
	.st24{fill:#FCF9DE;}
	.st25{fill:#FFEA63;}
	.st26{fill:#99AF17;}
	.st27{fill:#FCDA4F;}
	.st28{fill:#FFECCD;}
	.st29{fill:#FFEDCB;}
	.st30{fill:#FFEBCD;}
	.st31{fill:#FFEBCE;}
	.st32{fill:#FFECCC;}
</style>
<g>
	<g>
		<g>
			<path class="st14" d="M180.114,284.819c-2.729,0.546-4.911-1.275-4.861-4.058c0.156-8.787-3.023-16.981-9.56-22.437
				c-11.922-9.952-30.806-7.299-43.872,5.546c-1.546,1.52-3.636,2.094-5.344,1.451c-12.559-4.723-28.737,0.195-39.487,13.074
				c-10.75,12.878-12.697,29.676-5.805,41.188c0.937,1.566,0.747,3.725-0.473,5.518c-10.303,15.151-9.537,34.205,2.385,44.156
				c6.537,5.456,15.168,7.12,23.785,5.396c2.729-0.546,4.911,1.275,4.861,4.058c-0.156,8.787,3.023,16.981,9.56,22.437
				c12.869,10.742,33.855,6.807,46.873-8.79l10.196,8.51l45.452-54.453l-10.196-8.51c13.018-15.596,13.139-36.948,0.27-47.689
				C197.362,284.758,188.731,283.094,180.114,284.819z"/>
		</g>
		<g>
			<g>
				<path class="st15" d="M123.008,310.803c-1.12-0.853-3.183-0.129-4.654,1.633c-1.466,1.757-1.813,3.91-0.782,4.864l63.433,58.724
					c0.167,0.154,0.36,0.266,0.572,0.341c2.331,1.402,6.212,0.029,8.972-3.278c0.019-0.023,0.036-0.047,0.055-0.07
					c0.023-0.027,0.047-0.051,0.069-0.078c2.725-3.265,3.345-7.291,1.524-9.299c-0.11-0.192-0.25-0.362-0.427-0.497L123.008,310.803
					z"/>
			</g>
		</g>
		<g>
			<path class="st26" d="M128.292,380.794c-6.537-5.456-9.717-13.651-9.56-22.437c0.05-2.783-2.132-4.604-4.861-4.058
				c-8.617,1.724-17.248,0.061-23.785-5.396c-11.922-9.952-12.688-29.005-2.386-44.156c1.219-1.793,1.41-3.952,0.473-5.518
				c-4.971-8.304-5.341-19.358-1.128-29.708c-3.643,2.316-7.06,5.285-10.056,8.873c-10.75,12.879-12.697,29.676-5.805,41.188
				c0.937,1.566,0.747,3.725-0.473,5.518c-10.302,15.151-9.537,34.205,2.386,44.156c6.537,5.456,15.168,7.12,23.785,5.396
				c2.729-0.546,4.911,1.275,4.861,4.058c-0.156,8.787,3.023,16.981,9.56,22.437c12.869,10.742,33.855,6.807,46.873-8.79
				l10.196,8.51l16.988-20.353l-10.196-8.51C162.147,387.601,141.161,391.536,128.292,380.794z"/>
		</g>
		<g>
			<path class="st27" d="M185.4,371.786c-0.212-0.075-0.406-0.187-0.572-0.341l-63.433-58.724c-0.507-0.47-0.679-1.231-0.55-2.091
				c-0.849,0.29-1.746,0.914-2.49,1.807c-1.466,1.757-1.813,3.91-0.782,4.864l63.433,58.724c0.167,0.154,0.36,0.266,0.572,0.341
				c2.331,1.402,6.212,0.028,8.972-3.278c0.019-0.023,0.036-0.047,0.055-0.07c0.023-0.027,0.047-0.051,0.069-0.078
				c0.647-0.775,1.171-1.593,1.576-2.417C189.854,372.306,187.177,372.854,185.4,371.786z"/>
		</g>
	</g>
	<g>
		<ellipse class="st2" cx="414.241" cy="329.844" rx="37.877" ry="37.244"/>
	</g>
	<g>
		<path class="st3" d="M437.264,335.845c-0.493,0-0.995-0.061-1.495-0.189c-3.21-0.823-5.144-4.093-4.32-7.303
			c2.409-9.392-4.343-11.743-5.721-12.119c-3.197-0.872-5.081-4.17-4.209-7.367s4.173-5.082,7.367-4.209
			c7.9,2.155,18.198,11.038,14.186,26.678C442.376,334.044,439.938,335.845,437.264,335.845z"/>
	</g>
	<g>
		<path class="st4" d="M402.496,329.843c0-16.054,10.331-29.735,24.811-34.967c-4.073-1.472-8.474-2.277-13.066-2.277
			c-20.919,0-37.877,16.675-37.877,37.244c0,20.57,16.958,37.244,37.877,37.244c4.592,0,8.993-0.805,13.066-2.276
			C412.826,359.578,402.496,345.897,402.496,329.843z"/>
	</g>
	<g>
		<g>
			<path class="st7" d="M159.69,376.714H98.024c-6.6,0-12-5.4-12-12v-40.501c0-6.6,5.4-12,12-12h61.667c6.6,0,12,5.4,12,12v40.501
				C171.69,371.314,166.29,376.714,159.69,376.714z"/>
		</g>
		<g>
			<path class="st20" d="M112.337,366.114v-43.302c0-5.83,4.736-10.6,10.525-10.6H96.549c-5.789,0-10.525,4.77-10.525,10.6v43.302
				c0,5.831,4.736,10.6,10.525,10.6h26.314C117.074,376.714,112.337,371.944,112.337,366.114z"/>
		</g>
	</g>
	<g>
		<g>
			<path class="st22" d="M139.083,353.362c-0.088,1.806-0.143,3.62-0.146,5.446c-0.017,8.609,0.917,17.012,2.703,25.127h259.805
				c1.745-7.954,2.672-16.186,2.688-24.619c0.003-1.718-0.042-3.425-0.113-5.125c4.098-3.464,6.625-8.162,6.635-13.346
				c0.011-5.599-2.914-10.644-7.592-14.183c0.178-0.947,0.272-1.917,0.274-2.904c0.012-6.477-3.905-12.214-9.922-15.733
				c0.842-1.973,1.307-4.089,1.312-6.295c0.016-8.227-6.304-15.26-15.221-18.068c0.063-0.565,0.101-1.137,0.102-1.715
				c0.018-9.177-7.847-16.87-18.407-18.867c-2.228-5.892-7.832-10.585-14.98-12.597c-4.354-4.432-11.053-7.282-18.578-7.296
				c-2.638-0.005-5.174,0.344-7.548,0.983c-2.418-0.887-4.875-1.705-7.361-2.461c-3.64-6.873-12.043-11.695-21.841-11.714
				c-6.587-0.013-12.553,2.148-16.87,5.65c-0.117-0.002-0.235-0.003-0.352-0.005c-4.303-3.516-10.259-5.697-16.843-5.71
				c-9.11-0.017-17.029,4.122-21.044,10.217c-3.394,0.882-6.731,1.887-10.009,3.008c-0.996-0.105-2.009-0.166-3.04-0.168
				c-9.777-0.019-18.182,4.751-21.861,11.586c-4.091,2.402-8.03,5.008-11.803,7.8c-8.072,0.708-14.931,4.692-18.521,10.285
				c-10.995,1.69-19.317,9.519-19.335,18.942c-0.003,1.698,0.265,3.344,0.769,4.914c-4.887,3.531-7.973,8.671-7.983,14.403
				c-0.005,2.844,0.752,5.544,2.106,7.979c-0.411,1.113-0.807,2.232-1.185,3.359c-7.737,3.179-13.05,9.685-13.064,17.209
				C131.848,344.915,134.621,349.839,139.083,353.362z"/>
		</g>
		<g>
			<g>
				<circle class="st23" cx="212.207" cy="326.977" r="11.594"/>
			</g>
		</g>
		<g>
			<g>
				<circle class="st23" cx="235.472" cy="289.925" r="11.594"/>
			</g>
		</g>
		<g>
			<g>
				<circle class="st23" cx="271.338" cy="315.493" r="11.594"/>
			</g>
		</g>
		<g>
			<g>
				<circle class="st23" cx="274.829" cy="272.332" r="11.594"/>
			</g>
		</g>
		<g>
			<path class="st23" d="M139.083,353.362c-0.088,1.806-0.143,3.62-0.146,5.446c-0.017,8.609,0.922,17.012,2.709,25.128h38.921
				c-0.809-5.55-1.246-11.21-1.235-16.968c0.004-1.826,0.059-3.64,0.146-5.446c-4.462-3.523-7.235-8.447-7.225-13.898
				c0.015-7.525,5.327-14.031,13.064-17.209c0.377-1.128,0.773-2.246,1.185-3.36c-1.354-2.434-2.112-5.134-2.106-7.979
				c0.011-5.731,3.096-10.872,7.983-14.402c-0.503-1.569-0.772-3.215-0.769-4.913c0.018-9.424,8.341-17.253,19.336-18.943
				c3.59-5.593,10.449-9.578,18.521-10.285c3.773-2.792,7.712-5.398,11.803-7.801c3.679-6.835,12.084-11.605,21.861-11.586
				c1.031,0.002,2.044,0.063,3.04,0.168c3.278-1.122,6.616-2.125,10.009-3.008c4.015-6.094,11.935-10.234,21.044-10.217
				c6.584,0.013,12.54,2.194,16.843,5.71c0.118,0.002,0.235,0.002,0.352,0.005c0.47-0.38,0.962-0.742,1.469-1.09
				c-1.046-0.345-2.095-0.683-3.153-1.004c-3.64-6.873-12.043-11.696-21.841-11.714c-6.587-0.013-12.553,2.148-16.87,5.65
				c-0.117-0.003-0.235-0.003-0.352-0.005c-4.303-3.517-10.259-5.698-16.843-5.71c-9.11-0.017-17.029,4.123-21.044,10.217
				c-3.394,0.882-6.731,1.886-10.009,3.008c-0.996-0.105-2.009-0.166-3.04-0.168c-9.777-0.019-18.182,4.751-21.862,11.586
				c-4.091,2.403-8.029,5.008-11.802,7.801c-8.072,0.708-14.93,4.692-18.521,10.285c-10.996,1.69-19.318,9.519-19.336,18.943
				c-0.003,1.698,0.265,3.344,0.769,4.913c-4.888,3.531-7.973,8.671-7.983,14.402c-0.005,2.845,0.752,5.544,2.106,7.979
				c-0.411,1.114-0.807,2.232-1.185,3.36c-7.737,3.179-13.05,9.685-13.064,17.209C131.848,344.915,134.62,349.839,139.083,353.362z"
				/>
		</g>
	</g>
	<g>
		<path class="st5" d="M256,377.382H51.999l39.796,38.621c6.356,6.169,16.027,9.765,26.258,9.765H256h137.947
			c10.231,0,19.902-3.597,26.258-9.765l39.796-38.621H256z"/>
	</g>
	<g>
		<path class="st5" d="M471.009,377.382H40.991c-4.418,0-8-3.582-8-8v-3.87c0-4.418,3.582-8,8-8h430.017c4.418,0,8,3.582,8,8v3.87
			C479.009,373.801,475.427,377.382,471.009,377.382z"/>
	</g>
	<g>
		<path class="st11" d="M460.001,377.382H256H90.294H51.999l11.385,11.049h0l28.411,27.573c6.356,6.169,16.027,9.765,26.258,9.765
			h38.295c-10.231,0-19.902-3.597-26.258-9.765l-28.411-27.573h346.938L460.001,377.382z"/>
	</g>
	<g>
		<path class="st5" d="M377.934,420.337c-5.353,0-9.02-0.581-9.437-0.65c-3.27-0.543-5.479-3.633-4.937-6.901
			c0.542-3.265,3.624-5.472,6.889-4.938l0,0c0.235,0.038,23.793,3.659,36.999-9.818c2.318-2.368,6.118-2.405,8.485-0.087
			c2.367,2.319,2.405,6.118,0.087,8.485C404.462,418.224,388.139,420.337,377.934,420.337z"/>
	</g>
	<g>
		<path class="st18" d="M468.927,137.833H282.462v-27.651h186.465c5.523,0,10,4.477,10,10v7.651
			C478.927,133.356,474.45,137.833,468.927,137.833z"/>
	</g>
	<g>
		<path class="st15" d="M469.596,129.7H313.147c-4.123,0-7.465-2.913-7.465-6.506v-13.012h-23.22V129.7v8.133h23.22h163.914
			c5.153,0,9.331-3.641,9.331-8.133v-8.133C478.927,126.059,474.749,129.7,469.596,129.7z"/>
	</g>
	<g>
		<ellipse class="st18" cx="226.564" cy="120.935" rx="63.382" ry="26.5"/>
	</g>
	<g>
		<ellipse class="st15" cx="226.564" cy="120.935" rx="58.382" ry="21.5"/>
	</g>
	<g>
		<g>
			<path class="st22" d="M179.513,130.409c-0.031,0.646-0.051,1.296-0.052,1.949c-0.006,3.081,0.328,6.089,0.967,8.993h92.988
				c0.625-2.847,0.956-5.793,0.962-8.811c0.001-0.615-0.015-1.226-0.04-1.834c1.467-1.24,2.371-2.921,2.375-4.777
				c0.004-2.004-1.043-3.81-2.717-5.076c0.064-0.339,0.097-0.686,0.098-1.039c0.004-2.318-1.398-4.372-3.551-5.631
				c0.301-0.706,0.468-1.463,0.469-2.253c0.006-2.944-2.256-5.462-5.448-6.467c0.022-0.202,0.036-0.407,0.037-0.614
				c0.006-3.284-2.809-6.038-6.588-6.753c-0.797-2.109-2.803-3.789-5.362-4.509c-1.559-1.586-3.956-2.606-6.649-2.611
				c-0.944-0.002-1.852,0.123-2.701,0.352c-0.866-0.318-1.745-0.61-2.635-0.881c-1.303-2.46-4.311-4.186-7.817-4.193
				c-2.358-0.005-4.493,0.769-6.038,2.022c-0.042-0.001-0.084-0.001-0.126-0.002c-1.54-1.258-3.672-2.039-6.028-2.044
				c-3.261-0.006-6.095,1.475-7.532,3.657c-1.215,0.316-2.409,0.675-3.582,1.077c-0.357-0.038-0.719-0.06-1.088-0.06
				c-3.499-0.007-6.508,1.701-7.824,4.147c-1.464,0.86-2.874,1.793-4.224,2.792c-2.889,0.253-5.344,1.679-6.629,3.681
				c-3.935,0.605-6.914,3.407-6.92,6.78c-0.001,0.608,0.095,1.197,0.275,1.759c-1.749,1.264-2.854,3.104-2.857,5.155
				c-0.002,1.018,0.269,1.984,0.754,2.856c-0.147,0.398-0.289,0.799-0.424,1.202c-2.769,1.138-4.671,3.466-4.676,6.159
				C176.923,127.386,177.916,129.148,179.513,130.409z"/>
		</g>
		<g>
			<path class="st23" d="M179.513,130.409c-0.031,0.646-0.051,1.296-0.052,1.949c-0.006,3.081,0.33,6.089,0.97,8.993h13.93
				c-0.29-1.986-0.446-4.012-0.442-6.073c0.001-0.653,0.021-1.303,0.052-1.949c-1.597-1.261-2.59-3.023-2.586-4.974
				c0.005-2.693,1.906-5.022,4.676-6.159c0.135-0.404,0.277-0.804,0.424-1.203c-0.485-0.871-0.756-1.838-0.754-2.856
				c0.004-2.051,1.108-3.891,2.857-5.155c-0.18-0.562-0.276-1.151-0.275-1.758c0.006-3.373,2.985-6.175,6.921-6.78
				c1.285-2.002,3.74-3.428,6.629-3.681c1.351-0.999,2.76-1.932,4.224-2.792c1.317-2.446,4.325-4.154,7.824-4.147
				c0.369,0.001,0.732,0.023,1.088,0.06c1.173-0.401,2.368-0.761,3.582-1.076c1.437-2.181,4.272-3.663,7.532-3.657
				c2.357,0.005,4.488,0.785,6.028,2.044c0.042,0.001,0.084,0.001,0.126,0.002c0.168-0.136,0.344-0.266,0.526-0.39
				c-0.374-0.123-0.75-0.244-1.128-0.36c-1.303-2.46-4.311-4.186-7.817-4.193c-2.358-0.005-4.493,0.769-6.038,2.022
				c-0.042-0.001-0.084-0.001-0.126-0.002c-1.54-1.259-3.672-2.039-6.028-2.044c-3.261-0.006-6.095,1.476-7.532,3.657
				c-1.215,0.316-2.409,0.675-3.582,1.076c-0.357-0.038-0.719-0.06-1.088-0.06c-3.499-0.007-6.508,1.701-7.825,4.147
				c-1.464,0.86-2.874,1.793-4.224,2.792c-2.889,0.253-5.344,1.679-6.629,3.681c-3.935,0.605-6.914,3.407-6.921,6.78
				c-0.001,0.608,0.095,1.197,0.275,1.758c-1.749,1.264-2.854,3.104-2.857,5.155c-0.002,1.018,0.269,1.984,0.754,2.856
				c-0.147,0.399-0.289,0.799-0.424,1.203c-2.769,1.138-4.671,3.466-4.676,6.159C176.923,127.386,177.915,129.148,179.513,130.409z"
				/>
		</g>
	</g>
	<g>
		<path class="st18" d="M226.564,139.029c-35.005,0-63.382-8.101-63.382-18.094c-0.172,1.069-0.274,2.149-0.274,3.243
			c0,19.656,28.438,35.59,63.519,35.59s63.519-15.934,63.519-35.59c0-0.713-0.056-1.418-0.134-2.12
			C287.778,131.528,260.246,139.029,226.564,139.029z"/>
	</g>
	<g>
		<g>
			<path class="st26" d="M230.771,122.995l-2.571-6.674c-1.588-4.123,0.466-8.753,4.589-10.341l10.197-3.929
				c-0.051,0.019-0.103,0.031-0.154,0.051l-23.043,8.878c-4.123,1.588-6.177,6.218-4.589,10.341l2.571,6.674
				c1.589,4.123,6.219,6.177,10.342,4.589l12.845-4.949C236.875,129.114,232.34,127.067,230.771,122.995z"/>
		</g>
		<g>
			<path class="st14" d="M256.156,121.706l-23.043,8.878c-4.123,1.589-8.753-0.466-10.341-4.589l-2.572-6.674
				c-1.588-4.123,0.466-8.753,4.589-10.341l23.043-8.878c4.123-1.588,8.753,0.466,10.341,4.589l2.572,6.674
				C262.333,115.487,260.279,120.117,256.156,121.706z"/>
		</g>
	</g>
	<g>
		<g>
			<circle class="st13" cx="109.33" cy="283.842" r="11.594"/>
		</g>
	</g>
</g>
</svg>
