<?xml version="1.0" encoding="utf-8"?>
<!-- Generator: Adobe Illustrator 22.1.0, SVG Export Plug-In . SVG Version: 6.00 Build 0)  -->
<svg version="1.1" id="Layer_1" xmlns="http://www.w3.org/2000/svg" xmlns:xlink="http://www.w3.org/1999/xlink" x="0px" y="0px"
	 viewBox="0 0 512 512" style="enable-background:new 0 0 512 512;" xml:space="preserve">
<style type="text/css">
	.st0{fill:#FFF9DC;}
	.st1{fill:#FFB74B;}
	.st2{fill:#FF624B;}
	.st3{fill:#FF9079;}
	.st4{fill:#FF4B34;}
	.st5{fill:#FFEACF;}
	.st6{fill:#FFA730;}
	.st7{fill:#FFD551;}
	.st8{fill:#FFF7CA;}
	.st9{fill:#E58D23;}
	.st10{fill:#BF6C0D;}
	.st11{fill:#FFD59A;}
	.st12{fill:#A56021;}
	.st13{fill:#EACF32;}
	.st14{fill:#CCC033;}
	.st15{fill:#FCE575;}
	.st16{fill:#AD9B18;}
	.st17{fill:#FFEEA4;}
	.st18{fill:#FFF4C1;}
	.st19{fill:#FFDF74;}
	.st20{fill:#FFC34C;}
	.st21{fill:#8C4C17;}
	.st22{fill:#F9BB32;}
	.st23{fill:#DB9C2E;}
	.st24{fill:#FCF9DE;}
	.st25{fill:#FFEA63;}
	.st26{fill:#99AF17;}
	.st27{fill:#FCDA4F;}
	.st28{fill:#FFECCD;}
	.st29{fill:#FFEDCB;}
	.st30{fill:#FFEBCD;}
	.st31{fill:#FFEBCE;}
	.st32{fill:#FFECCC;}
</style>
<g>
	<g>
		<g>
			<g>
				<g>
					<g>
						<path class="st15" d="M172.628,154.11c-1.789,0-3.558-0.796-4.74-2.316c-16.038-20.618-26.907-24.849-27.009-24.883
							c-3.151-1.026-4.873-4.412-3.847-7.563c1.026-3.15,4.412-4.874,7.563-3.847c1.407,0.458,14.283,5.164,32.765,28.925
							c2.035,2.616,1.563,6.385-1.052,8.42C175.213,153.698,173.916,154.11,172.628,154.11z"/>
					</g>
				</g>
			</g>
		</g>
		<g>
			<g>
				<g>
					<g>
						<g>
							<g>
								<path class="st12" d="M450.128,450.359l-1.291,1.26c-2.865,2.798-7.455,2.743-10.252-0.121L183.842,190.644l11.664-11.391
									l254.743,260.854C453.047,442.972,452.992,447.562,450.128,450.359z"/>
							</g>
						</g>
					</g>
				</g>
				<g>
					<g>
						<g>
							<g>
								<path class="st21" d="M444.949,445.134L190.28,184.357l-6.438,6.288l254.743,260.854c2.798,2.865,7.388,2.919,10.252,0.122
									l1.291-1.26c0.964-0.941,1.602-2.087,1.928-3.301C449.596,447.731,446.856,447.087,444.949,445.134z"/>
							</g>
						</g>
					</g>
				</g>
			</g>
			<g>
				<g>
					<g>
						<g>
							<path class="st7" d="M176.931,217.91c-29.579-4.243-55.617-0.935-67.801,7.417l-34.094-34.911
								c-3.593-3.679-9.324-3.909-12.801-0.514c-3.477,3.395-3.383,9.13,0.21,12.809l43.907,44.96
								c9.965,11.929,35.285,22.955,65.591,27.302c40.093,5.752,73.712-2.359,75.089-18.117
								C248.409,241.098,217.024,223.662,176.931,217.91z"/>
						</g>
					</g>
				</g>
			</g>
			<g>
				<g>
					<g>
						<g>
							<path class="st19" d="M253.215,106.194l-43.906-44.96c-3.593-3.679-9.324-3.909-12.801-0.514s-3.383,9.13,0.21,12.809
								l34.094,34.911c-8.638,11.983-12.563,37.934-9.022,67.607c4.8,40.218,21.488,72.008,37.274,71.005
								c15.786-1.003,24.691-34.42,19.892-74.638C275.327,142.013,264.904,116.439,253.215,106.194z"/>
						</g>
					</g>
				</g>
			</g>
			<g>
				<g>
					<g>
						<g>
							
								<ellipse transform="matrix(0.1518 -0.9884 0.9884 0.1518 -106.1626 500.7341)" class="st7" cx="238.678" cy="312.224" rx="28.589" ry="73.358"/>
						</g>
					</g>
				</g>
			</g>
			<g>
				<g>
					<g>
						<g>
							
								<ellipse transform="matrix(0.9917 -0.1284 0.1284 0.9917 -28.2038 42.3662)" class="st19" cx="314.614" cy="240.014" rx="28.589" ry="73.358"/>
						</g>
					</g>
				</g>
			</g>
			<g>
				<g>
					<g>
						<g>
							
								<ellipse transform="matrix(0.1518 -0.9884 0.9884 0.1518 -116.6943 620.0262)" class="st7" cx="302.92" cy="378.007" rx="28.589" ry="73.358"/>
						</g>
					</g>
				</g>
			</g>
			<g>
				<g>
					<g>
						<g>
							
								<ellipse transform="matrix(0.9917 -0.1284 0.1284 0.9917 -36.1157 51.1558)" class="st19" cx="378.855" cy="305.796" rx="28.589" ry="73.358"/>
						</g>
					</g>
				</g>
			</g>
			<g>
				<g>
					<g>
						<g>
							<path class="st7" d="M116.937,97.873L89.885,70.171c-3.593-3.679-9.324-3.909-12.801-0.514l0,0
								c-3.477,3.395-3.383,9.13,0.21,12.809l27.052,27.701c-1.067,14.854,12.818,40.582,35.984,64.303
								c28.92,29.614,61.328,44.868,72.384,34.07c11.056-10.797-3.425-43.557-32.345-73.172
								C157.204,111.649,131.812,97.158,116.937,97.873z"/>
						</g>
					</g>
				</g>
			</g>
			<g>
				<g>
					<g>
						<g>
							<path class="st20" d="M188.547,263.638c-30.307-4.347-55.626-15.373-65.591-27.302l-11.917-12.203
								c-0.666,0.387-1.309,0.782-1.909,1.193l-34.094-34.911c-3.593-3.679-9.324-3.909-12.801-0.514
								c-3.477,3.395-3.383,9.13,0.21,12.809l43.907,44.96c9.965,11.929,35.285,22.955,65.591,27.302
								c36.223,5.197,67.154-0.925,73.805-13.775C231.875,265.704,211.253,266.896,188.547,263.638z"/>
						</g>
					</g>
				</g>
			</g>
			<g>
				<g>
					<g>
						<g>
							<path class="st20" d="M252.789,329.421c-40.093-5.752-71.479-23.189-70.101-38.946c0.133-1.521,0.573-2.969,1.284-4.342
								c-10.623,3.45-17.291,8.843-17.888,15.676c-1.377,15.758,30.008,33.194,70.101,38.946
								c36.223,5.197,67.154-0.925,73.805-13.775C296.117,331.486,275.495,332.679,252.789,329.421z"/>
						</g>
					</g>
				</g>
			</g>
			<g>
				<g>
					<g>
						<g>
							<path class="st20" d="M317.03,395.204c-40.093-5.752-71.479-23.189-70.101-38.946c0.133-1.521,0.573-2.969,1.284-4.342
								c-10.623,3.45-17.291,8.843-17.888,15.676c-1.377,15.758,30.008,33.194,70.101,38.946
								c36.223,5.197,67.154-0.925,73.805-13.775C360.359,397.269,339.736,398.461,317.03,395.204z"/>
						</g>
					</g>
				</g>
			</g>
			<g>
				<g>
					<g>
						<g>
							<path class="st7" d="M237.791,176.69c-3.542-29.672,0.384-55.624,9.022-67.607l-34.094-34.911
								c-3.03-3.103-3.561-7.663-1.571-11.054l-1.84-1.884c-3.593-3.679-9.324-3.909-12.801-0.514s-3.383,9.13,0.21,12.809
								l34.094,34.911c-8.638,11.983-12.563,37.934-9.022,67.607c4.8,40.218,21.488,72.008,37.274,71.005
								c2.337-0.149,4.519-1.024,6.532-2.51C253.085,235.636,241.631,208.871,237.791,176.69z"/>
						</g>
					</g>
				</g>
			</g>
			<g>
				<g>
					<g>
						<g>
							<path class="st7" d="M302.032,242.472c-4.089-34.264,1.774-63.575,13.359-72.128c-3.125-2.224-6.314-3.353-9.469-3.152
								c-15.786,1.003-24.692,34.42-19.892,74.638s21.488,72.008,37.274,71.005c2.337-0.149,4.519-1.024,6.532-2.51
								C317.326,301.419,305.873,274.654,302.032,242.472z"/>
						</g>
					</g>
				</g>
			</g>
			<g>
				<g>
					<g>
						<g>
							<path class="st7" d="M366.273,308.255c-4.089-34.264,1.774-63.575,13.359-72.128c-3.125-2.224-6.314-3.353-9.469-3.152
								c-15.786,1.003-24.692,34.42-19.892,74.638c4.8,40.218,21.488,72.008,37.274,71.005c2.337-0.149,4.519-1.024,6.532-2.51
								C381.567,367.201,370.114,340.436,366.273,308.255z"/>
						</g>
					</g>
				</g>
			</g>
			<g>
				<g>
					<g>
						<g>
							<path class="st20" d="M152.07,164.453c-24.664-25.256-38.812-52.789-35.588-67.047L89.885,70.171
								c-3.593-3.679-9.324-3.909-12.801-0.514l0,0c-3.477,3.395-3.383,9.13,0.21,12.809l27.052,27.701
								c-1.067,14.854,12.818,40.582,35.984,64.303c28.92,29.614,61.328,44.868,72.384,34.07c1.736-1.695,2.841-3.933,3.36-6.613
								C201.284,203.047,175.53,188.476,152.07,164.453z"/>
						</g>
					</g>
				</g>
			</g>
			<g>
				<g>
					<g>
						<g>
							<path class="st18" d="M263.671,220.56c-0.184,0-0.37-0.009-0.558-0.026c-3.298-0.304-5.726-3.223-5.424-6.521l0,0
								c0.01-0.111,0.991-11.295-0.688-24.343c-0.423-3.287,1.899-6.294,5.186-6.717c3.289-0.426,6.294,1.899,6.717,5.185
								c1.855,14.421,0.782,26.466,0.735,26.971C269.353,218.222,266.737,220.56,263.671,220.56z"/>
						</g>
					</g>
				</g>
			</g>
			<g>
				<g>
					<g>
						<g>
							<path class="st18" d="M328.648,287.095c-0.184,0-0.37-0.009-0.558-0.026c-3.298-0.304-5.726-3.223-5.424-6.521l0,0
								c0.01-0.111,0.991-11.295-0.688-24.343c-0.423-3.287,1.899-6.294,5.186-6.717c3.287-0.425,6.293,1.899,6.717,5.185
								c1.855,14.421,0.782,26.466,0.735,26.971C334.33,284.758,331.714,287.095,328.648,287.095z"/>
						</g>
					</g>
				</g>
			</g>
			<g>
				<g>
					<g>
						<g>
							<path class="st18" d="M393.625,353.631c-0.184,0-0.37-0.009-0.558-0.026c-3.298-0.304-5.726-3.223-5.424-6.521l0,0
								c0.01-0.111,0.991-11.295-0.688-24.343c-0.423-3.286,1.899-6.294,5.186-6.717c3.291-0.425,6.293,1.899,6.717,5.185
								c1.855,14.421,0.782,26.466,0.735,26.971C399.307,351.294,396.691,353.631,393.625,353.631z"/>
						</g>
					</g>
				</g>
			</g>
			<g>
				<g>
					<g>
						<g>
							<g>
								<circle class="st20" cx="328.447" cy="375.641" r="16.688"/>
							</g>
						</g>
					</g>
				</g>
			</g>
		</g>
	</g>
	<g>
		<g>
			<g>
				<path class="st0" d="M196.373,283.625c-28.615-0.044-51.931,23.2-51.975,51.815c-0.044,28.615,23.2,51.932,51.815,51.976
					c28.616,0.044,51.932-23.201,51.976-51.816C248.233,306.984,224.989,283.669,196.373,283.625z"/>
			</g>
		</g>
		<g>
			<g>
				<path class="st4" d="M198.815,261.983c-42.539-1.423-77.358,33.289-76.066,75.832c1.171,38.527,32.5,69.953,71.023,71.242
					c42.539,1.423,77.358-33.289,76.066-75.832C268.668,294.698,237.339,263.272,198.815,261.983z M196.181,283.625
					c8.407-0.018,16.355,1.974,23.39,5.519c3.026,1.525,3.633,5.596,1.233,7.988l-62.973,62.779c-2.4,2.392-6.468,1.773-7.984-1.258
					c-3.524-7.045-5.491-14.998-5.447-23.404C144.545,306.947,167.878,283.685,196.181,283.625z M196.434,387.415
					c-8.399,0.022-16.341-1.961-23.372-5.496c-3.029-1.523-3.638-5.596-1.237-7.99l62.953-62.76
					c2.401-2.394,6.472-1.772,7.986,1.261c3.513,7.041,5.472,14.988,5.424,23.386C248.029,364.099,224.717,387.341,196.434,387.415z
					"/>
			</g>
		</g>
		<g>
			<g>
				<g>
					<path class="st5" d="M234.779,311.17l-62.953,62.76c-2.401,2.394-1.792,6.467,1.237,7.99
						c7.031,3.535,14.973,5.518,23.372,5.496c3.336-0.009,6.599-0.351,9.767-0.974c-4.627-0.916-9.041-2.431-13.139-4.491
						c-3.029-1.523-3.638-5.596-1.237-7.99l54.014-53.848c-0.828-2.656-1.85-5.227-3.075-7.681
						C241.251,309.397,237.18,308.776,234.779,311.17z"/>
				</g>
			</g>
			<g>
				<g>
					<path class="st5" d="M144.399,335.249c-0.043,8.406,1.924,16.359,5.448,23.405c1.516,3.031,5.584,3.65,7.984,1.258l8.933-8.906
						c-1.554-4.967-2.393-10.247-2.365-15.726c0.129-24.957,18.291-45.984,41.987-50.65c-3.303-0.654-6.711-1.012-10.206-1.005
						C167.878,283.685,144.545,306.947,144.399,335.249z"/>
				</g>
			</g>
		</g>
	</g>
</g>
</svg>
