<?xml version="1.0" encoding="utf-8"?>
<!-- Generator: Adobe Illustrator 22.1.0, SVG Export Plug-In . SVG Version: 6.00 Build 0)  -->
<svg version="1.1" id="Layer_1" xmlns="http://www.w3.org/2000/svg" xmlns:xlink="http://www.w3.org/1999/xlink" x="0px" y="0px"
	 viewBox="0 0 512 512" style="enable-background:new 0 0 512 512;" xml:space="preserve">
<style type="text/css">
	.st0{fill:#FFF9DC;}
	.st1{fill:#FFB74B;}
	.st2{fill:#FF624B;}
	.st3{fill:#FF9079;}
	.st4{fill:#FF4B34;}
	.st5{fill:#FFEACF;}
	.st6{fill:#FFA730;}
	.st7{fill:#FFD551;}
	.st8{fill:#FFF7CA;}
	.st9{fill:#E58D23;}
	.st10{fill:#BF6C0D;}
	.st11{fill:#FFD59A;}
	.st12{fill:#A56021;}
	.st13{fill:#EACF32;}
	.st14{fill:#CCC033;}
	.st15{fill:#FCE575;}
	.st16{fill:#AD9B18;}
	.st17{fill:#FFEEA4;}
	.st18{fill:#FFF4C1;}
	.st19{fill:#FFDF74;}
	.st20{fill:#FFC34C;}
	.st21{fill:#8C4C17;}
	.st22{fill:#F9BB32;}
	.st23{fill:#DB9C2E;}
	.st24{fill:#FCF9DE;}
	.st25{fill:#FFEA63;}
	.st26{fill:#99AF17;}
	.st27{fill:#FCDA4F;}
	.st28{fill:#FFECCD;}
	.st29{fill:#FFEDCB;}
	.st30{fill:#FFEBCD;}
	.st31{fill:#FFEBCE;}
	.st32{fill:#FFECCC;}
</style>
<g>
	<path class="st7" d="M357.907,464.572H126.945c-5.523,0-10-4.477-10-10V430.52h250.962v24.052
		C367.907,460.095,363.43,464.572,357.907,464.572z"/>
	<path class="st20" d="M123.656,449.589h244.251V430.52H116.945v20.431c0,7.523,3.004,13.621,6.71,13.621V449.589z"/>
	<path class="st7" d="M387.79,436.911H97.062c-5.523,0-10-4.477-10-10v-9.616c0-5.523,4.477-10,10-10H387.79c5.523,0,10,4.477,10,10
		v9.616C397.79,432.433,393.313,436.911,387.79,436.911z"/>
	<path class="st12" d="M301.285,407.63H180.49c-5.523,0-10-4.477-10-10v-34.111h140.795v34.111
		C311.285,403.153,306.808,407.63,301.285,407.63z"/>
	<path class="st23" d="M305.907,389.313H178.945c-24.853,0-45-20.147-45-45V60.968c0-8.284,6.716-15,15-15h186.962
		c8.284,0,15,6.716,15,15v283.345C350.907,369.166,330.76,389.313,305.907,389.313z"/>
	<path class="st10" d="M175.855,342.164V54.351c0-4.629,3.753-8.382,8.382-8.382h-34.576c-8.68,0-15.716,7.036-15.716,15.716
		v280.479c0,26.04,21.109,47.149,47.149,47.149h41.908C196.963,389.312,175.855,368.202,175.855,342.164z"/>
	<path class="st12" d="M231.255,272.608h-90.781c-3.313,0-6-2.687-6-6s2.687-6,6-6h90.781c3.313,0,6,2.687,6,6
		S234.568,272.608,231.255,272.608z"/>
	<path class="st12" d="M207.506,220.221h-67.032c-3.313,0-6-2.687-6-6s2.687-6,6-6h67.032c3.313,0,6,2.687,6,6
		S210.819,220.221,207.506,220.221z"/>
	<path class="st12" d="M257.885,167.833H140.474c-3.313,0-6-2.687-6-6s2.687-6,6-6h117.411c3.313,0,6,2.687,6,6
		S261.198,167.833,257.885,167.833z"/>
	<g>
		<path class="st12" d="M231.255,115.445h-90.781c-3.313,0-6-2.687-6-6s2.687-6,6-6h90.781c3.313,0,6,2.687,6,6
			S234.568,115.445,231.255,115.445z"/>
	</g>
	<path class="st22" d="M293.255,374.069c-0.896,0-1.738-0.042-2.518-0.119c-3.298-0.325-5.707-3.263-5.381-6.561
		c0.324-3.283,3.229-5.704,6.52-5.385c0.947,0.075,21.361,1.399,29.711-24.615c1.012-3.153,4.389-4.892,7.547-3.879
		c3.154,1.013,4.892,4.392,3.879,7.547C324.56,367.396,304.598,374.069,293.255,374.069z"/>
	<path class="st22" d="M327.3,319.727c-3.313,0-6-2.687-6-6V172.828c0-3.313,2.687-6,6-6s6,2.687,6,6v140.898
		C333.3,317.04,330.613,319.727,327.3,319.727z"/>
	<g>
		<g>
			<circle class="st10" cx="299.183" cy="97.25" r="15.783"/>
		</g>
	</g>
	<g>
		<circle class="st10" cx="233.876" cy="350.625" r="15.783"/>
	</g>
	<path class="st12" d="M207.506,324.997h-67.032c-3.313,0-6-2.687-6-6s2.687-6,6-6h67.032c3.313,0,6,2.687,6,6
		S210.819,324.997,207.506,324.997z"/>
	<path class="st13" d="M348.156,456.941c50.105-88.603-42.105-118.741-72.433-126.043c-5.121-1.233-10.203,2.379-11.216,7.961
		c-6.121,33.728-18.68,141.238,73.875,125.182C342.429,463.339,346.013,460.73,348.156,456.941z"/>
	<path class="st14" d="M352.15,437.291c-79.119,13.725-81.426-62.837-76.605-106.426c-5.061-1.109-10.037,2.476-11.039,7.994
		c-6.121,33.728-18.68,141.238,73.875,125.182c4.048-0.702,7.632-3.311,9.774-7.1c4.514-7.982,7.856-15.483,10.209-22.542
		C356.554,435.876,354.432,436.895,352.15,437.291z"/>
	<path class="st27" d="M324.665,435.584c-2.122,0-4.178-1.128-5.269-3.121l-26.262-47.994c-1.591-2.906-0.523-6.553,2.384-8.144
		c2.907-1.588,6.553-0.523,8.144,2.384l26.262,47.994c1.591,2.906,0.523,6.553-2.384,8.144
		C326.626,435.347,325.639,435.584,324.665,435.584z"/>
	<path class="st14" d="M334.775,460.989c87.935,27.897,91.174-67.646,90.008-98.473c-0.197-5.206-4.523-9.265-9.54-8.961
		c-30.312,1.833-125.234,14.356-88.921,99.662C327.911,456.948,331.015,459.796,334.775,460.989z"/>
	<path class="st26" d="M352.539,460.334c-31.042-72.922,33.81-92.656,72.229-97.995c-0.288-5.119-4.566-9.083-9.525-8.783
		c-30.312,1.833-125.234,14.356-88.921,99.662c1.588,3.731,4.692,6.579,8.452,7.772c7.922,2.513,15.147,4.01,21.752,4.658
		C354.823,464.243,353.434,462.436,352.539,460.334z"/>
	<path class="st13" d="M355.847,444.619c-1.555,0-3.109-0.601-4.284-1.799c-2.32-2.366-2.282-6.165,0.083-8.485l41.258-40.455
		c2.366-2.317,6.166-2.282,8.485,0.083c2.32,2.366,2.282,6.165-0.083,8.485l-41.258,40.455
		C358.88,444.048,357.362,444.619,355.847,444.619z"/>
</g>
</svg>
