<?xml version="1.0" encoding="utf-8"?>
<!-- Generator: Adobe Illustrator 22.1.0, SVG Export Plug-In . SVG Version: 6.00 Build 0)  -->
<svg version="1.1" id="Layer_1" xmlns="http://www.w3.org/2000/svg" xmlns:xlink="http://www.w3.org/1999/xlink" x="0px" y="0px"
	 viewBox="0 0 512 512" style="enable-background:new 0 0 512 512;" xml:space="preserve">
<style type="text/css">
	.st0{fill:#FFF9DC;}
	.st1{fill:#FFB74B;}
	.st2{fill:#FF624B;}
	.st3{fill:#FF9079;}
	.st4{fill:#FF4B34;}
	.st5{fill:#FFEACF;}
	.st6{fill:#FFA730;}
	.st7{fill:#FFD551;}
	.st8{fill:#FFF7CA;}
	.st9{fill:#E58D23;}
	.st10{fill:#BF6C0D;}
	.st11{fill:#FFD59A;}
	.st12{fill:#A56021;}
	.st13{fill:#EACF32;}
	.st14{fill:#CCC033;}
	.st15{fill:#FCE575;}
	.st16{fill:#AD9B18;}
	.st17{fill:#FFEEA4;}
	.st18{fill:#FFF4C1;}
	.st19{fill:#FFDF74;}
	.st20{fill:#FFC34C;}
	.st21{fill:#8C4C17;}
	.st22{fill:#F9BB32;}
	.st23{fill:#DB9C2E;}
	.st24{fill:#FCF9DE;}
	.st25{fill:#FFEA63;}
	.st26{fill:#99AF17;}
	.st27{fill:#FCDA4F;}
	.st28{fill:#FFECCD;}
	.st29{fill:#FFEDCB;}
	.st30{fill:#FFEBCD;}
	.st31{fill:#FFEBCE;}
	.st32{fill:#FFECCC;}
</style>
<g>
	<g>
		<g>
			<path class="st22" d="M388.482,392.69c-2.776-0.593-5.513-1.417-8.204-2.461c-42.012-16.299-98.334-55.411-152.597-108.849
				c-54.264-53.438-93.948-108.873-110.451-150.198c-1.057-2.647-1.89-5.339-2.488-8.068c-2.452-11.191-7.618-41.454,4.908-53.743
				l0,0c17.731-17.396,48.41-15.442,68.522,4.364l250.683,246.87c20.112,19.806,22.042,49.965,4.311,67.361l0,0
				C430.64,400.256,399.862,395.121,388.482,392.69z"/>
		</g>
	</g>
	<g>
		<path class="st6" d="M141.926,155.878c-1.057-2.647-1.89-5.339-2.488-8.068c-2.452-11.19-7.618-41.454,4.908-53.743l0.001-0.001
			c17.731-17.396,48.41-15.442,68.522,4.365l-24.696-24.696c-20.112-19.806-50.79-21.76-68.522-4.365l-0.001,0.001
			c-12.526,12.289-7.36,42.552-4.908,53.743c0.598,2.73,1.431,5.421,2.488,8.068c16.502,41.325,56.187,96.759,110.451,150.197
			c2.819,2.777,5.644,5.504,8.472,8.202C190.223,241.411,156.735,192.964,141.926,155.878z"/>
	</g>
	<g>
		<g>
			<path class="st2" d="M445.013,442.76L445.013,442.76c-17.375,17.375-45.545,17.375-62.92,0l-310.6-310.6
				c-17.375-17.375-17.375-45.545,0-62.919l0,0c17.375-17.375,45.545-17.375,62.92,0l310.6,310.6
				C462.387,397.215,462.387,425.385,445.013,442.76z"/>
		</g>
		<g>
			<path class="st4" d="M410.377,414.476l-310.6-310.6C87.49,91.589,83.904,73.907,88.995,58.458
				c-6.397,2.108-12.414,5.694-17.502,10.782l0,0c-17.375,17.375-17.375,45.545,0,62.919l310.6,310.6
				c17.375,17.375,45.545,17.375,62.919,0l0,0c5.088-5.088,8.674-11.105,10.782-17.502
				C440.346,430.349,422.664,426.762,410.377,414.476z"/>
		</g>
	</g>
	<g>
		<g>
			<path class="st22" d="M330.858,450.313c-2.776-0.593-5.513-1.417-8.204-2.461c-42.012-16.299-98.334-55.411-152.597-108.849
				C115.794,285.565,76.11,230.131,59.607,188.805c-1.057-2.647-1.89-5.339-2.488-8.068c-2.452-11.191-7.618-41.454,4.908-53.743
				l0,0c17.731-17.396,48.41-15.442,68.522,4.364l250.683,246.87c20.112,19.806,22.042,49.965,4.311,67.361l0,0
				C373.017,457.879,342.239,452.744,330.858,450.313z"/>
		</g>
	</g>
	<g>
		<g>
			<path class="st26" d="M372.263,288.297c-3.614-3.614-7.979-5.866-12.304-6.687c-0.821-4.326-3.074-8.69-6.687-12.304
				c-6.309-6.31-14.904-8.465-21.578-6.078c-0.315-0.351-0.624-0.707-0.963-1.046c-4.744-4.744-10.781-7.133-16.323-7.021
				c0.929-6.115-1.421-13.193-6.824-18.596c-3.613-3.614-7.979-5.866-12.304-6.687c-0.821-4.326-3.074-8.69-6.687-12.304
				c-6.309-6.31-14.904-8.465-21.578-6.078c-0.315-0.351-0.624-0.707-0.963-1.046c-4.735-4.735-10.758-7.125-16.292-7.023
				c0.173-2.887-0.344-5.924-1.538-8.868c0.878-0.555,1.708-1.194,2.463-1.947c6.683-6.683,5.46-18.741-2.732-26.933
				c-3.613-3.614-7.979-5.866-12.304-6.688c-0.821-4.325-3.074-8.69-6.687-12.303c-6.309-6.31-14.904-8.465-21.578-6.078
				c-0.315-0.351-0.624-0.707-0.963-1.046c-8.192-8.191-20.25-9.415-26.933-2.732c-6.683,6.683-5.46,18.741,2.732,26.933
				c2.134,2.135,4.533,3.784,7.029,4.956c-1.216,6.263,1.122,13.672,6.724,19.274c4.529,4.529,10.238,6.917,15.569,7.027
				c0.111,5.331,2.498,11.04,7.027,15.57c4.735,4.734,10.758,7.125,16.292,7.023c-0.345,5.733,2.041,12.088,6.99,17.038
				c2.134,2.134,4.533,3.784,7.029,4.955c-1.216,6.263,1.122,13.672,6.724,19.274c4.529,4.529,10.238,6.917,15.569,7.027
				c0.11,5.331,2.498,11.04,7.027,15.57c8.071,8.071,19.885,9.361,26.624,3.005c0.534,0.651,1.094,1.29,1.706,1.902
				c2.134,2.135,4.533,3.785,7.029,4.956c-1.216,6.263,1.122,13.672,6.724,19.274c4.529,4.529,10.238,6.917,15.569,7.027
				c0.11,5.331,2.498,11.04,7.027,15.57c8.192,8.191,20.25,9.414,26.933,2.732c4.678-4.678,5.469-11.987,2.721-18.763
				c0.878-0.555,1.708-1.194,2.463-1.947C381.678,308.547,380.454,296.488,372.263,288.297z"/>
		</g>
		<g>
			<g>
				<path class="st14" d="M184.314,120.04c-0.821-4.325-3.074-8.69-6.687-12.303c-6.309-6.31-14.904-8.465-21.578-6.078
					c-0.315-0.352-0.624-0.707-0.963-1.046c-8.192-8.192-20.25-9.415-26.933-2.732c-6.683,6.683-5.46,18.741,2.732,26.933
					c2.134,2.134,4.533,3.784,7.029,4.956c-1.216,6.262,1.122,13.671,6.724,19.274c4.529,4.529,10.238,6.917,15.569,7.027
					c0.11,5.331,2.498,11.04,7.027,15.568c8.192,8.192,20.25,9.416,26.933,2.732c4.678-4.677,5.469-11.987,2.721-18.762
					c0.878-0.555,1.708-1.194,2.462-1.947c6.683-6.684,5.46-18.741-2.732-26.934C193.004,123.114,188.639,120.861,184.314,120.04z"
					/>
			</g>
			<g>
				<path class="st14" d="M397.658,324.84c-3.613-3.613-7.979-5.866-12.304-6.687c-0.821-4.325-3.074-8.69-6.687-12.303
					c-6.309-6.31-14.904-8.465-21.578-6.079c-0.315-0.351-0.624-0.706-0.963-1.045c-2.926-2.926-6.348-4.947-9.84-6.052
					c0.697-0.481,1.369-1.005,1.982-1.618c6.683-6.683,5.46-18.741-2.732-26.933c-3.613-3.614-7.979-5.866-12.304-6.688
					c-0.821-4.325-3.074-8.69-6.687-12.303c-6.309-6.31-14.904-8.465-21.578-6.078c-0.315-0.352-0.624-0.707-0.963-1.046
					c-8.192-8.191-20.25-9.415-26.933-2.732c-6.683,6.683-5.46,18.741,2.732,26.933c2.134,2.135,4.533,3.784,7.029,4.956
					c-1.216,6.263,1.122,13.672,6.724,19.274c4.529,4.529,10.238,6.917,15.569,7.027c0.11,5.331,2.498,11.04,7.027,15.57
					c3.128,3.128,6.82,5.231,10.561,6.274c1.181,2.707,2.911,5.316,5.211,7.617c2.134,2.134,4.533,3.784,7.029,4.956
					c-1.216,6.262,1.122,13.671,6.724,19.274c4.529,4.529,10.238,6.917,15.569,7.027c0.11,5.331,2.498,11.04,7.027,15.568
					c8.192,8.192,20.25,9.416,26.933,2.732c4.678-4.677,5.468-11.987,2.721-18.763c0.878-0.554,1.708-1.193,2.462-1.946
					C407.073,345.09,405.85,333.032,397.658,324.84z"/>
			</g>
		</g>
	</g>
	<g>
		<path class="st19" d="M423.351,382.345c-0.242,0-0.486-0.015-0.732-0.044c-3.29-0.4-5.632-3.392-5.231-6.681
			c1.325-10.886-0.565-18.909-5.62-23.846c-8.584-8.384-24.107-6.237-24.261-6.213c-0.067,0.01-0.152,0.021-0.22,0.029
			c-14.471,1.608-25.697-1.545-33.37-9.371c-12.586-12.838-10.075-33.23-9.962-34.092c0.092-0.695,0.302-1.356,0.611-1.959
			c0.782-9.677-1.187-16.888-5.863-21.457c-8.585-8.384-24.106-6.237-24.261-6.213c-0.067,0.01-0.152,0.021-0.221,0.029
			c-14.467,1.608-25.696-1.544-33.369-9.371c-10.706-10.921-10.487-27.307-10.113-32.489c-0.098-0.567-0.113-1.151-0.042-1.735
			c1.325-10.886-0.565-18.909-5.62-23.846c-8.583-8.384-24.104-6.236-24.26-6.214c-0.067,0.01-0.153,0.021-0.22,0.029
			c-14.469,1.61-25.697-1.544-33.37-9.371c-12.586-12.838-10.074-33.23-9.961-34.092c0.091-0.695,0.301-1.355,0.61-1.958
			c0.783-9.677-1.185-16.889-5.863-21.458c-8.583-8.384-24.104-6.236-24.26-6.214c-0.067,0.01-0.153,0.021-0.22,0.029
			c-14.467,1.609-25.697-1.545-33.37-9.371c-12.586-12.838-10.074-33.23-9.961-34.092c0.431-3.285,3.438-5.602,6.73-5.168
			c3.286,0.431,5.599,3.444,5.168,6.73c-0.017,0.137-1.833,15.549,6.671,24.169c4.947,5.015,12.802,6.972,23.345,5.816
			c2.049-0.288,21.736-2.665,34.219,9.455c7.917,7.688,11.017,19.107,9.21,33.942c-0.079,0.646-0.259,1.262-0.528,1.832
			c-0.166,4.562,0.223,15.333,6.817,22.019c4.947,5.015,12.801,6.971,23.345,5.816c2.05-0.287,21.737-2.664,34.219,9.455
			c7.658,7.436,10.809,18.362,9.373,32.494c0.085,0.554,0.093,1.124,0.019,1.692c-0.018,0.137-1.833,15.549,6.671,24.17
			c4.946,5.014,12.799,6.97,23.344,5.815c2.05-0.287,21.737-2.666,34.22,9.455c7.918,7.688,11.017,19.107,9.211,33.942
			c-0.079,0.646-0.26,1.263-0.528,1.833c-0.166,4.563,0.224,15.333,6.818,22.018c4.945,5.014,12.801,6.973,23.344,5.816
			c2.05-0.287,21.737-2.666,34.22,9.455c7.918,7.688,11.017,19.107,9.211,33.942C428.929,380.113,426.34,382.345,423.351,382.345z"
			/>
	</g>
	<g>
		<path class="st7" d="M351.489,431.845c-39.315,0-61.78-19.407-62.87-20.372c-2.482-2.195-2.715-5.987-0.52-8.469
			c2.191-2.477,5.973-2.712,8.454-0.533c1.116,0.975,27.838,23.716,74.553,15.65c3.262-0.563,6.369,1.626,6.933,4.892
			c0.564,3.265-1.626,6.369-4.892,6.933C365.452,431.275,358.22,431.845,351.489,431.845z"/>
	</g>
	<g>
		<g>
			<circle class="st6" cx="147.508" cy="224.151" r="16.75"/>
		</g>
	</g>
	<g>
		<path class="st6" d="M215.467,360.925c-54.264-53.438-93.948-108.873-110.451-150.198c-1.057-2.647-1.89-5.339-2.488-8.068
			c-2.452-11.191-7.617-41.454,4.908-53.743l0,0c7.799-7.651,18.103-11.556,28.911-11.848l-5.798-5.709
			c-20.112-19.806-50.791-21.76-68.522-4.364l0,0c-12.526,12.289-7.36,42.552-4.908,53.743c0.599,2.729,1.431,5.421,2.488,8.068
			c16.503,41.325,56.187,96.759,110.451,150.198c54.263,53.439,110.585,92.55,152.596,108.849c1.503,0.582,3.021,1.089,4.55,1.533
			C292.725,428.928,253.591,398.469,215.467,360.925z"/>
	</g>
	<g>
		<g>
			<circle class="st6" cx="140.228" cy="179.663" r="16.75"/>
		</g>
	</g>
	<g>
		<path class="st3" d="M424.235,439.832c-2.289,0-4.476-1.317-5.476-3.54c-1.359-3.022-0.012-6.574,3.01-7.934
			c5.229-2.352,8.577-5.695,10.239-10.22c3.673-10.004-2.075-22.58-2.135-22.704c-1.424-2.992-0.152-6.572,2.84-7.996
			c2.991-1.424,6.571-0.152,7.996,2.84c0.33,0.693,8.016,17.147,2.563,31.997c-2.792,7.605-8.371,13.334-16.579,17.027
			C425.895,439.662,425.058,439.832,424.235,439.832z"/>
	</g>
</g>
</svg>
