<?xml version="1.0" encoding="utf-8"?>
<!-- Generator: Adobe Illustrator 22.1.0, SVG Export Plug-In . SVG Version: 6.00 Build 0)  -->
<svg version="1.1" id="Layer_1" xmlns="http://www.w3.org/2000/svg" xmlns:xlink="http://www.w3.org/1999/xlink" x="0px" y="0px"
	 viewBox="0 0 512 512" style="enable-background:new 0 0 512 512;" xml:space="preserve">
<style type="text/css">
	.st0{fill:#FFF9DC;}
	.st1{fill:#FFB74B;}
	.st2{fill:#FF624B;}
	.st3{fill:#FF9079;}
	.st4{fill:#FF4B34;}
	.st5{fill:#FFEACF;}
	.st6{fill:#FFA730;}
	.st7{fill:#FFD551;}
	.st8{fill:#FFF7CA;}
	.st9{fill:#E58D23;}
	.st10{fill:#BF6C0D;}
	.st11{fill:#FFD59A;}
	.st12{fill:#A56021;}
	.st13{fill:#EACF32;}
	.st14{fill:#CCC033;}
	.st15{fill:#FCE575;}
	.st16{fill:#AD9B18;}
	.st17{fill:#FFEEA4;}
	.st18{fill:#FFF4C1;}
	.st19{fill:#FFDF74;}
	.st20{fill:#FFC34C;}
	.st21{fill:#8C4C17;}
	.st22{fill:#F9BB32;}
	.st23{fill:#DB9C2E;}
	.st24{fill:#FCF9DE;}
	.st25{fill:#FFEA63;}
	.st26{fill:#99AF17;}
	.st27{fill:#FCDA4F;}
	.st28{fill:#FFECCD;}
	.st29{fill:#FFEDCB;}
	.st30{fill:#FFEBCD;}
	.st31{fill:#FFEBCE;}
	.st32{fill:#FFECCC;}
</style>
<g>
	<g>
		<g>
			<path class="st19" d="M208.143,110.137V43.279h-83.426v66.858l-44.187,53.872c-8.066,9.834-12.475,22.161-12.475,34.88v257.814
				c0,16.569,13.431,30,30,30h136.749c16.569,0,30-13.431,30-30V198.889c0-12.719-4.408-25.046-12.475-34.88L208.143,110.137z"/>
		</g>
		<g>
			<circle class="st13" cx="166.43" cy="294.991" r="69.271"/>
		</g>
		<g>
			<path class="st7" d="M114.056,456.703V198.889c0-12.72,4.409-25.046,12.475-34.88l44.187-53.872V43.279h-46v66.858
				l-44.187,53.872c-8.066,9.834-12.475,22.16-12.475,34.88v257.813c0,16.568,13.432,30,30,30h46
				C127.488,486.703,114.056,473.271,114.056,456.703z"/>
		</g>
		<g>
			<path class="st1" d="M220.821,86.447H112.039c-8.284,0-15-6.716-15-15V39.95c0-8.284,6.716-15,15-15h108.782
				c8.284,0,15,6.716,15,15v31.497C235.821,79.731,229.106,86.447,220.821,86.447z"/>
		</g>
		<g>
			<path class="st6" d="M137.039,71.447V39.95c0-8.284,6.716-15,15-15h-40c-8.284,0-15,6.716-15,15v31.497c0,8.284,6.716,15,15,15
				h40C143.755,86.447,137.039,79.731,137.039,71.447z"/>
		</g>
		<g>
			<path class="st14" d="M114.056,249.683c-10.518,12.148-16.896,27.979-16.896,45.308s6.378,33.159,16.896,45.307V249.683z"/>
		</g>
		<g>
			<path class="st25" d="M250.119,219.305c-0.155,0-0.311-0.006-0.469-0.018c-3.304-0.256-5.775-3.141-5.52-6.444
				c2.279-29.483-19.388-38.952-20.311-39.341c-3.041-1.28-4.495-4.783-3.234-7.831c1.261-3.05,4.729-4.515,7.787-3.272
				c10.628,4.321,30.1,20.619,27.722,51.368C255.851,216.913,253.222,219.305,250.119,219.305z"/>
		</g>
		<g>
			<path class="st25" d="M250.3,332.477c-3.313,0-6-2.687-6-6V237.81c0-3.313,2.687-6,6-6s6,2.687,6,6v88.667
				C256.3,329.79,253.613,332.477,250.3,332.477z"/>
		</g>
		<g>
			<path class="st20" d="M214.112,76.477c-3.313,0-6-2.687-6-6V39.143c0-3.313,2.687-6,6-6s6,2.687,6,6v31.334
				C220.112,73.79,217.426,76.477,214.112,76.477z"/>
		</g>
		<g>
			<g>
				<circle class="st7" cx="137.697" cy="412.802" r="15.783"/>
			</g>
		</g>
		<g>
			<g>
				<circle class="st7" cx="160.151" cy="451.174" r="15.783"/>
			</g>
		</g>
		<g>
			<g>
				<circle class="st7" cx="144.364" cy="187.744" r="15.783"/>
			</g>
		</g>
	</g>
	<g>
		<g>
			<path class="st13" d="M308.347,279.246c39.505,21.88,50.286-23.658,52.704-38.564c0.408-2.517-1.276-4.883-3.713-5.222
				c-14.723-2.048-61.486-5.205-52.297,39.24C305.443,276.644,306.657,278.31,308.347,279.246z"/>
		</g>
		<g>
			<path class="st10" d="M287.294,302.17L287.294,302.17c-3.457,0-6.318-2.801-6.529-6.393l-2.896-49.202
				c-0.231-3.917,2.759-7.226,6.529-7.226h5.792c3.77,0,6.76,3.309,6.529,7.226l-2.896,49.202
				C293.611,299.369,290.751,302.17,287.294,302.17z"/>
		</g>
		<g>
			<path class="st2" d="M345.611,295.21c-20.568-4.424-41.379,2.026-58.474,16.045c-17.095-14.019-37.906-20.469-58.474-16.045
				c-41.506,8.927-66.294,58.737-55.366,111.255c10.929,52.518,53.436,87.855,94.943,78.928c6.773-1.457,13.097-4.008,18.897-7.476
				c5.8,3.468,12.124,6.019,18.897,7.476c41.506,8.927,84.014-26.41,94.942-78.928C411.905,353.948,387.117,304.137,345.611,295.21z
				"/>
		</g>
		<g>
			<g>
				<path class="st4" d="M201.763,399.065c-9.402-45.18,7.63-88.354,38.999-105.221c-4.022,0.056-8.064,0.5-12.098,1.367
					c-41.506,8.927-66.294,58.737-55.366,111.255c10.929,52.518,53.436,87.855,94.943,78.928c5.791-1.246,11.251-3.298,16.339-6.033
					C247.219,479.868,211.627,446.467,201.763,399.065z"/>
			</g>
		</g>
		<g>
			<path class="st21" d="M286.869,295.776l-2.896-49.202c-0.227-3.862,2.678-7.127,6.373-7.218
				c-0.053-0.001-0.104-0.009-0.156-0.009h-5.792c-3.77,0-6.76,3.309-6.53,7.226l2.896,49.202c0.212,3.592,3.072,6.393,6.529,6.393
				c1.1,0,2.139-0.286,3.053-0.789C288.39,300.305,287.013,298.226,286.869,295.776z"/>
		</g>
		<g>
			<path class="st3" d="M341.402,464.94c-2,0-3.955-1-5.094-2.82c-1.756-2.811-0.902-6.512,1.907-8.269
				c46.018-28.765,36.96-81.762,36.862-82.294c-0.594-3.261,1.568-6.385,4.828-6.979c3.261-0.585,6.384,1.569,6.979,4.828
				c0.114,0.63,2.766,15.648-1.062,34.762c-5.104,25.482-19.366,46.182-41.246,59.858
				C343.588,464.646,342.488,464.94,341.402,464.94z"/>
		</g>
		<g>
			<path class="st14" d="M316.935,280.647c-7.854-37.993,25.173-41.2,44.126-40.052c0.356-2.484-1.314-4.8-3.723-5.135
				c-14.723-2.048-61.486-5.205-52.297,39.24c0.402,1.944,1.616,3.61,3.306,4.546c3.559,1.971,6.881,3.387,9.989,4.336
				C317.653,282.744,317.161,281.742,316.935,280.647z"/>
		</g>
		<g>
			<g>
				<circle class="st3" cx="239.779" cy="333.813" r="15.783"/>
			</g>
		</g>
		<g>
			<g>
				<circle class="st3" cx="255.567" cy="371.676" r="15.783"/>
			</g>
		</g>
	</g>
	<g>
		<g>
			
				<ellipse transform="matrix(0.7071 -0.7071 0.7071 0.7071 -185.6053 367.3305)" class="st4" cx="350.604" cy="407.711" rx="79.339" ry="79.339"/>
		</g>
		<g>
			
				<ellipse transform="matrix(0.7071 -0.7071 0.7071 0.7071 -181.5048 377.23)" class="st6" cx="364.604" cy="407.711" rx="79.339" ry="79.339"/>
		</g>
		<g>
			<path class="st1" d="M364.604,474.652c-36.911,0-66.941-30.03-66.941-66.941s30.03-66.941,66.941-66.941
				c36.912,0,66.942,30.03,66.942,66.941S401.517,474.652,364.604,474.652z"/>
		</g>
		<g>
			<circle class="st18" cx="365.411" cy="407.711" r="22.526"/>
		</g>
		<g>
			<path class="st18" d="M426.479,413.857H304.343c-3.313,0-6-2.687-6-6s2.687-6,6-6h122.137c3.313,0,6,2.687,6,6
				S429.793,413.857,426.479,413.857z"/>
		</g>
		<g>
			<path class="st18" d="M408.593,457.039c-1.535,0-3.071-0.586-4.242-1.758l-86.363-86.363c-2.344-2.343-2.344-6.142,0-8.484
				c2.342-2.344,6.143-2.344,8.484,0l86.363,86.363c2.344,2.343,2.344,6.142,0,8.484
				C411.664,456.453,410.128,457.039,408.593,457.039z"/>
		</g>
		<g>
			<path class="st18" d="M365.411,474.926c-3.313,0-6-2.687-6-6V346.789c0-3.313,2.687-6,6-6s6,2.687,6,6v122.137
				C371.411,472.239,368.725,474.926,365.411,474.926z"/>
		</g>
		<g>
			<path class="st18" d="M322.229,457.04c-1.535,0-3.071-0.586-4.242-1.758c-2.344-2.343-2.344-6.142,0-8.484l86.363-86.364
				c2.342-2.344,6.143-2.344,8.484,0c2.344,2.343,2.344,6.142,0,8.484l-86.363,86.364
				C325.301,456.454,323.765,457.04,322.229,457.04z"/>
		</g>
	</g>
</g>
</svg>
