<?xml version="1.0" encoding="utf-8"?>
<!-- Generator: Adobe Illustrator 22.1.0, SVG Export Plug-In . SVG Version: 6.00 Build 0)  -->
<svg version="1.1" id="Layer_1" xmlns="http://www.w3.org/2000/svg" xmlns:xlink="http://www.w3.org/1999/xlink" x="0px" y="0px"
	 viewBox="0 0 512 512" style="enable-background:new 0 0 512 512;" xml:space="preserve">
<style type="text/css">
	.st0{fill:#FFF9DC;}
	.st1{fill:#FFB74B;}
	.st2{fill:#FF624B;}
	.st3{fill:#FF9079;}
	.st4{fill:#FF4B34;}
	.st5{fill:#FFEACF;}
	.st6{fill:#FFA730;}
	.st7{fill:#FFD551;}
	.st8{fill:#FFF7CA;}
	.st9{fill:#E58D23;}
	.st10{fill:#BF6C0D;}
	.st11{fill:#FFD59A;}
	.st12{fill:#A56021;}
	.st13{fill:#EACF32;}
	.st14{fill:#CCC033;}
	.st15{fill:#FCE575;}
	.st16{fill:#AD9B18;}
	.st17{fill:#FFEEA4;}
	.st18{fill:#FFF4C1;}
	.st19{fill:#FFDF74;}
	.st20{fill:#FFC34C;}
	.st21{fill:#8C4C17;}
	.st22{fill:#F9BB32;}
	.st23{fill:#DB9C2E;}
	.st24{fill:#FCF9DE;}
	.st25{fill:#FFEA63;}
	.st26{fill:#99AF17;}
	.st27{fill:#FCDA4F;}
	.st28{fill:#FFECCD;}
	.st29{fill:#FFEDCB;}
	.st30{fill:#FFEBCD;}
	.st31{fill:#FFEBCE;}
	.st32{fill:#FFECCC;}
</style>
<g>
	<g>
		<g>
			<path class="st14" d="M206.605,105.774c-2.874-1.025-4.964-4.33-4.659-7.366c0.964-9.584-1.577-20.504-7.842-30.409
				c-11.426-18.065-31.205-26.397-45.895-20.037c-1.738,0.753-3.953,0.139-5.662-1.587c-12.561-12.686-29.748-16.91-42.046-9.132
				c-12.297,7.778-15.846,25.117-9.767,41.903c0.827,2.283,0.432,4.547-0.993,5.795c-12.042,10.547-12.99,31.988-1.564,50.053
				c6.265,9.905,15.042,16.881,24.114,20.117c2.874,1.025,4.964,4.33,4.659,7.366c-0.964,9.584,1.577,20.504,7.842,30.409
				c12.333,19.5,34.404,27.672,49.296,18.253l9.771,15.449l51.996-32.886l-9.771-15.449c14.892-9.419,16.967-32.862,4.634-52.362
				C224.454,115.986,215.677,109.01,206.605,105.774z"/>
		</g>
		<g>
			<g>
				<path class="st15" d="M145.152,100.361c-1.081-1.607-3.282-2.039-4.964-0.975c-1.677,1.061-2.232,3.226-1.254,4.891
					l60.263,102.478c0.158,0.269,0.348,0.507,0.561,0.717c2.284,2.933,6.424,3.733,9.582,1.736c0.022-0.014,0.041-0.03,0.063-0.045
					c0.026-0.016,0.053-0.029,0.079-0.045c3.117-1.972,4.126-6.037,2.425-9.333c-0.097-0.277-0.225-0.547-0.396-0.802
					L145.152,100.361z"/>
			</g>
		</g>
		<g>
			<path class="st26" d="M144.227,180.595c-6.265-9.905-8.806-20.825-7.842-30.409c0.305-3.036-1.785-6.341-4.659-7.366
				c-9.073-3.236-17.85-10.212-24.114-20.117c-11.426-18.065-10.478-39.506,1.564-50.053c1.425-1.248,1.82-3.512,0.993-5.795
				c-4.385-12.109-3.758-24.503,1.546-33.391c-3.98,0.38-7.787,1.613-11.213,3.78c-12.297,7.778-15.846,25.117-9.767,41.903
				c0.827,2.283,0.432,4.547-0.993,5.795c-12.042,10.547-12.99,31.988-1.564,50.053c6.265,9.905,15.042,16.881,24.114,20.117
				c2.874,1.025,4.964,4.33,4.659,7.366c-0.964,9.584,1.577,20.504,7.842,30.409c12.333,19.5,34.404,27.672,49.296,18.253
				l9.771,15.449l19.434-12.292l-9.771-15.449C178.631,208.267,156.56,200.095,144.227,180.595z"/>
		</g>
		<g>
			<path class="st27" d="M204.131,204.706c-0.213-0.21-0.403-0.448-0.561-0.717l-60.263-102.478c-0.482-0.819-0.59-1.76-0.378-2.631
				c-0.905-0.187-1.889-0.033-2.741,0.506c-1.677,1.061-2.232,3.226-1.254,4.891l60.263,102.478
				c0.158,0.269,0.348,0.507,0.561,0.717c2.284,2.933,6.424,3.733,9.582,1.736c0.022-0.014,0.041-0.03,0.063-0.045
				c0.026-0.016,0.053-0.029,0.079-0.045c0.74-0.468,1.357-1.057,1.851-1.722C208.692,207.933,205.873,206.942,204.131,204.706z"/>
		</g>
		<g>
			<g>
				<circle class="st27" cx="160.186" cy="75.299" r="15.931"/>
			</g>
		</g>
	</g>
	<g>
		<g>
			<path class="st27" d="M143.383,141.279c-2.497-0.195-4.755-2.388-5.033-4.886c-0.878-7.889-4.817-16.084-11.585-22.655
				c-12.345-11.984-29.75-14.35-40.508-6.053c-1.273,0.982-3.167,0.973-4.844-0.038c-12.332-7.427-26.935-7.066-35.517,1.845
				c-8.582,8.911-8.45,23.576-0.642,35.701c1.062,1.649,1.135,3.549,0.2,4.859c-7.897,11.074-4.957,28.459,7.388,40.443
				c6.769,6.571,15.059,10.247,22.941,10.863c2.497,0.195,4.755,2.388,5.033,4.886c0.878,7.889,4.817,16.084,11.585,22.655
				c13.325,12.936,32.552,14.674,42.945,3.883l10.557,10.249l36.286-37.678l-10.557-10.249c10.393-10.792,8.016-30.026-5.309-42.962
				C159.556,145.571,151.265,141.895,143.383,141.279z"/>
		</g>
		<g>
			<g>
				<path class="st5" d="M92.844,150.332c-1.15-1.052-3.001-0.918-4.175,0.301c-1.171,1.216-1.244,3.071-0.167,4.191l66.354,68.974
					c0.174,0.181,0.369,0.331,0.577,0.452c2.351,1.852,5.831,1.591,8.034-0.697c0.015-0.016,0.028-0.033,0.043-0.049
					c0.018-0.018,0.038-0.035,0.056-0.053c2.176-2.259,2.287-5.736,0.345-8.006c-0.126-0.201-0.276-0.389-0.459-0.556
					L92.844,150.332z"/>
			</g>
		</g>
		<g>
			<path class="st14" d="M105.964,214.817c-6.769-6.571-10.707-14.766-11.585-22.655c-0.278-2.499-2.537-4.691-5.033-4.886
				c-7.882-0.616-16.173-4.292-22.941-10.863c-12.345-11.984-15.285-29.369-7.388-40.443c0.935-1.31,0.862-3.21-0.2-4.86
				c-5.632-8.746-7.268-18.813-4.523-27.09c-3.147,1.172-6.007,2.989-8.398,5.472c-8.582,8.911-8.45,23.576-0.642,35.7
				c1.062,1.649,1.135,3.549,0.2,4.86c-7.897,11.074-4.957,28.459,7.388,40.443c6.769,6.571,15.059,10.247,22.941,10.863
				c2.497,0.195,4.755,2.388,5.033,4.886c0.878,7.889,4.817,16.084,11.585,22.655c13.325,12.936,32.552,14.674,42.945,3.883
				l10.557,10.249l13.563-14.083l-10.557-10.249C138.517,229.491,119.29,227.753,105.964,214.817z"/>
		</g>
		<g>
			<path class="st18" d="M158.485,221.082c-0.208-0.122-0.402-0.271-0.577-0.452l-66.354-68.974
				c-0.531-0.551-0.781-1.282-0.76-2.025c-0.763,0.048-1.531,0.385-2.125,1.002c-1.171,1.216-1.244,3.071-0.167,4.192l66.354,68.974
				c0.174,0.181,0.369,0.33,0.577,0.452c2.351,1.852,5.831,1.591,8.034-0.697c0.015-0.016,0.028-0.033,0.043-0.049
				c0.018-0.018,0.038-0.035,0.056-0.053c0.516-0.536,0.913-1.142,1.197-1.783C162.724,222.674,160.277,222.494,158.485,221.082z"/>
		</g>
	</g>
	<g>
		<path class="st12" d="M250.231,242.227l-41.224,41.224L89.006,163.449c-5.858-5.858-5.858-15.355,0-21.213l20.011-20.011
			c5.858-5.858,15.355-5.858,21.213,0L250.231,242.227z"/>
	</g>
	<g>
		<g>
			<circle class="st4" cx="180.139" cy="161.776" r="57.046"/>
		</g>
		<g>
			<circle class="st3" cx="180.139" cy="161.776" r="47.067"/>
		</g>
		<g>
			<circle class="st2" cx="180.139" cy="161.776" r="32.1"/>
		</g>
		<g>
			<path class="st2" d="M226.934,170.437h-97.843c-3.313,0-6-2.686-6-6s2.687-6,6-6h97.843c3.313,0,6,2.686,6,6
				S230.247,170.437,226.934,170.437z"/>
		</g>
		<g>
			<path class="st2" d="M212.605,205.03c-1.536,0-3.071-0.586-4.242-1.757l-69.186-69.186c-2.344-2.343-2.344-6.142,0-8.485
				c2.343-2.344,6.144-2.343,8.484,0l69.186,69.186c2.344,2.343,2.344,6.142,0,8.485C215.677,204.444,214.141,205.03,212.605,205.03
				z"/>
		</g>
		<g>
			<path class="st2" d="M180.139,219.358c-3.313,0-6-2.686-6-6v-97.843c0-3.314,2.687-6,6-6s6,2.686,6,6v97.843
				C186.139,216.672,183.452,219.358,180.139,219.358z"/>
		</g>
		<g>
			<path class="st2" d="M145.546,205.03c-1.535,0-3.071-0.586-4.242-1.757c-2.344-2.343-2.344-6.142,0-8.485l69.186-69.186
				c2.342-2.343,6.143-2.343,8.484,0c2.344,2.343,2.344,6.142,0,8.485l-69.186,69.186
				C148.617,204.444,147.081,205.03,145.546,205.03z"/>
		</g>
	</g>
	<g>
		<path class="st21" d="M106.123,125.12L87.64,143.602c-5.104,5.104-3.979,14.503,2.512,20.995l118.855,118.855l18.482-18.482
			L108.635,146.114C102.143,139.623,101.019,130.223,106.123,125.12z"/>
	</g>
	<g>
		<path class="st20" d="M246.425,270.206l76.4-76.4l-96.618-96.618c-5.553-5.553-14.556-5.553-20.108,0l-11.047,11.047
			c-30.54,30.54-30.54,80.056,0,110.597L246.425,270.206z"/>
	</g>
	<g>
		<path class="st7" d="M278.293,184.654c-1.535,0-3.071-0.586-4.242-1.757L243.5,152.346c-2.344-2.343-2.344-6.142,0-8.485
			c2.342-2.343,6.143-2.343,8.484,0l30.551,30.551c2.344,2.343,2.344,6.142,0,8.485
			C281.364,184.068,279.828,184.654,278.293,184.654z"/>
	</g>
	<g>
		<path class="st23" d="M172.935,152.434c-3.355,23.531,4.015,48.297,22.115,66.397l51.374,51.374l29.36-29.36l-68.324-68.324
			C197.526,162.587,185.579,155.906,172.935,152.434z"/>
	</g>
	<g>
		<path class="st20" d="M266.592,250.038l-78.51,78.51L74.514,214.979c-5.553-5.553-5.553-14.556,0-20.108l13.157-13.157
			c30.54-30.54,80.056-30.54,110.597,0L266.592,250.038z"/>
	</g>
	<g>
		<g>
			<circle class="st23" cx="153.596" cy="192.433" r="15.931"/>
		</g>
	</g>
	<g>
		<path class="st23" d="M100.611,171.273c-4.581,2.958-8.928,6.429-12.94,10.441l-13.157,13.157c-5.553,5.553-5.553,14.555,0,20.108
			l113.568,113.568l29.698-29.698L104.213,185.281C100.42,181.488,99.222,176.086,100.611,171.273z"/>
	</g>
	<g>
		<path class="st2" d="M332.674,202.003l-17.291-21.116c-1.914-2.338-5.647-2.263-8.073,0.162L175.107,313.252
			c-2.409,2.409-2.502,6.112-0.202,8.04l31.629,26.506l148.676,126.371c8.232,6.997,21.331,5.698,30.005-2.976l31.925-31.925
			l16.035-16.035l31.925-31.925c8.674-8.674,9.973-21.773,2.976-30.005L332.674,202.003z"/>
	</g>
	<g>
		<path class="st2" d="M305.222,229.455l-17.939-20.468c-1.986-2.266-5.074-2.836-6.678-1.232l-87.427,87.427
			c-1.593,1.593-1.043,4.654,1.194,6.644l30.761,27.373l144.899,130.148c8.023,7.206,18.684,8.345,24.42,2.609l21.112-21.112
			l10.604-10.604l21.112-21.112c5.736-5.736,4.597-16.397-2.609-24.42L305.222,229.455z"/>
	</g>
	<g>
		<path class="st2" d="M305.222,229.455l-17.939-20.468c-1.986-2.266-5.074-2.836-6.678-1.232l-87.427,87.427
			c-1.593,1.593-1.043,4.654,1.194,6.644l30.761,27.373l144.899,130.148c8.023,7.206,18.684,8.345,24.42,2.609l21.112-21.112
			l10.604-10.604l21.112-21.112c5.736-5.736,4.597-16.397-2.609-24.42L305.222,229.455z"/>
	</g>
	<g>
		<path class="st4" d="M318.448,216.229l-17.939-20.468c-1.986-2.266-5.074-2.836-6.678-1.232l-87.427,87.427
			c-1.593,1.593-1.043,4.654,1.194,6.644l30.761,27.373l144.899,130.148c8.023,7.206,18.684,8.345,24.42,2.609l21.112-21.112
			l10.604-10.604l21.112-21.112c5.736-5.736,4.597-16.397-2.609-24.42L318.448,216.229z"/>
	</g>
	<g>
		<path class="st2" d="M305.4,229.276l-18.116-20.292c-2.006-2.247-4.918-2.992-6.297-1.613l-75.205,75.205
			c-1.37,1.37-0.645,4.255,1.575,6.263l30.524,27.61L381.748,447.63c7.966,7.263,17.961,9.068,22.895,4.133l18.161-18.161
			l9.121-9.121l18.161-18.161c4.934-4.934,3.13-14.929-4.133-22.895L305.4,229.276z"/>
	</g>
	<g>
		<g>
			<circle class="st4" cx="261.069" cy="286.745" r="15.931"/>
		</g>
	</g>
	<g>
		<g>
			<circle class="st4" cx="306.63" cy="286.251" r="15.931"/>
		</g>
	</g>
	<g>
		<path class="st3" d="M431.464,392.154c-1.622,0-3.237-0.653-4.421-1.941l-71.272-77.587c-2.241-2.44-2.08-6.236,0.36-8.478
			c2.439-2.242,6.236-2.08,8.478,0.36l71.272,77.587c2.241,2.44,2.08,6.236-0.36,8.478
			C434.369,391.631,432.914,392.154,431.464,392.154z"/>
	</g>
	<g>
		<path class="st4" d="M383.493,445.885L234.818,319.514l-31.629-26.506c-2.3-1.927-2.207-5.631,0.202-8.04l-28.284,28.284
			c-2.409,2.409-2.502,6.113-0.202,8.04l31.629,26.506l148.676,126.372c8.232,6.997,21.331,5.697,30.005-2.977l28.284-28.284
			C404.824,451.583,391.726,452.882,383.493,445.885z"/>
	</g>
</g>
</svg>
