<?xml version="1.0" encoding="utf-8"?>
<!-- Generator: Adobe Illustrator 22.1.0, SVG Export Plug-In . SVG Version: 6.00 Build 0)  -->
<svg version="1.1" id="Layer_1" xmlns="http://www.w3.org/2000/svg" xmlns:xlink="http://www.w3.org/1999/xlink" x="0px" y="0px"
	 viewBox="0 0 512 512" style="enable-background:new 0 0 512 512;" xml:space="preserve">
<style type="text/css">
	.st0{fill:#FFF9DC;}
	.st1{fill:#FFB74B;}
	.st2{fill:#FF624B;}
	.st3{fill:#FF9079;}
	.st4{fill:#FF4B34;}
	.st5{fill:#FFEACF;}
	.st6{fill:#FFA730;}
	.st7{fill:#FFD551;}
	.st8{fill:#FFF7CA;}
	.st9{fill:#E58D23;}
	.st10{fill:#BF6C0D;}
	.st11{fill:#FFD59A;}
	.st12{fill:#A56021;}
	.st13{fill:#EACF32;}
	.st14{fill:#CCC033;}
	.st15{fill:#FCE575;}
	.st16{fill:#AD9B18;}
	.st17{fill:#FFEEA4;}
	.st18{fill:#FFF4C1;}
	.st19{fill:#FFDF74;}
	.st20{fill:#FFC34C;}
	.st21{fill:#8C4C17;}
	.st22{fill:#F9BB32;}
	.st23{fill:#DB9C2E;}
	.st24{fill:#FCF9DE;}
	.st25{fill:#FFEA63;}
	.st26{fill:#99AF17;}
	.st27{fill:#FCDA4F;}
	.st28{fill:#FFECCD;}
	.st29{fill:#FFEDCB;}
	.st30{fill:#FFEBCD;}
	.st31{fill:#FFEBCE;}
	.st32{fill:#FFECCC;}
</style>
<g>
	<g>
		<path class="st2" d="M277.92,253.079h-45.315C245.655,254.779,261.061,255.306,277.92,253.079z"/>
	</g>
	<g>
		<path class="st2" d="M317.315,281.103c0,0-56.85,26.998-124.689,0c0,0-49.191-21.934-108.155-5.003
			c0,0.069-0.005,0.136-0.005,0.205v27.842c0,12.827,10.351,23.226,23.12,23.226h295.007c12.769,0,23.12-10.399,23.12-23.226
			v-27.119C407.254,271.38,367.258,263.701,317.315,281.103z"/>
	</g>
	<path class="st3" d="M400.711,327.374H109.465c-13.807,0-25-11.193-25-25v-24.295c0-13.807,11.193-25,25-25h291.246
		c13.807,0,25,11.193,25,25v24.295C425.711,316.181,414.518,327.374,400.711,327.374z"/>
	<path class="st2" d="M402.592,253.079h-87.424c-56.117,20.913-104.686,5.971-120.169,0h-87.413
		c-12.769,0-23.12,10.398-23.12,23.226v9.087c58.966-16.934,108.16,5.001,108.16,5.001c67.839,26.998,124.689,0,124.689,0
		c49.943-17.402,89.94-9.723,108.397-4.075v-10.014C425.711,263.477,415.36,253.079,402.592,253.079z"/>
	<path class="st3" d="M400.711,401.726H109.465c-13.807,0-25-11.193-25-25v-24.324c0-13.807,11.193-25,25-25h291.246
		c13.807,0,25,11.193,25,25v24.324C425.711,390.534,414.518,401.726,400.711,401.726z"/>
	<path class="st2" d="M121.457,378.5v-27.871c0-12.828,10.351-23.226,23.12-23.226h-36.991c-12.769,0-23.12,10.398-23.12,23.226
		V378.5c0,12.827,10.351,23.226,23.12,23.226h36.991C131.808,401.726,121.457,391.327,121.457,378.5z"/>
	<path class="st2" d="M121.457,304.148v-27.842c0-12.828,10.351-23.226,23.12-23.226h-36.991c-12.769,0-23.12,10.398-23.12,23.226
		v27.842c0,12.827,10.351,23.226,23.12,23.226h36.991C131.808,327.374,121.457,316.975,121.457,304.148z"/>
	<path class="st11" d="M317.315,420.46c0,0-56.85,26.998-124.689,0c0,0-49.793-22.21-109.238-4.694
		c-4.845,1.428-9.993-1.405-9.996-5.538l-0.012-19.597c-0.004-6.088,4.608-11.501,11.452-13.387
		c19.102-5.263,59.844-12.514,105.02,3.74c0,0,60.191,29.105,130.848,0c0,0,44.815-19.213,104.372-3.499
		c6.966,1.838,11.726,7.284,11.726,13.457v20.233c0,4.162-5.232,7.047-10.07,5.522C408.744,411.03,368.179,402.736,317.315,420.46
		L317.315,420.46z"/>
	<g>
		<path class="st18" d="M110.384,410.228l-0.012-19.596c-0.004-6.089,4.608-11.501,11.452-13.387
			c6.917-1.906,16.682-4.067,28.457-5.284c-28.42-2.987-52.168,1.625-65.449,5.284c-6.844,1.885-11.456,7.298-11.452,13.387
			l0.012,19.596c0.003,4.134,5.15,6.966,9.996,5.538c9.285-2.735,18.335-4.502,26.996-5.536
			C110.384,410.229,110.384,410.229,110.384,410.228z"/>
	</g>
	<path class="st11" d="M317.315,271.813c0,0-56.85,26.998-124.689,0c0,0-49.793-22.21-109.238-4.694
		c-4.845,1.428-9.993-1.405-9.996-5.538l-0.012-19.597c-0.004-6.088,4.608-11.501,11.452-13.387
		c19.102-5.263,59.844-12.514,105.02,3.74c0,0,60.191,29.105,130.848,0c0,0,44.815-19.213,104.372-3.499
		c6.966,1.838,11.726,7.284,11.726,13.457v20.233c0,4.162-5.232,7.047-10.07,5.522C408.744,262.383,368.179,254.089,317.315,271.813
		L317.315,271.813z"/>
	<g>
		<path class="st20" d="M110.384,261.58l-0.012-19.596c-0.004-6.089,4.608-11.501,11.452-13.387
			c6.917-1.906,16.682-4.067,28.457-5.284c-28.42-2.987-52.168,1.625-65.449,5.284c-6.844,1.885-11.456,7.298-11.452,13.387
			l0.012,19.596c0.003,4.134,5.15,6.966,9.996,5.538c9.285-2.735,18.335-4.502,26.996-5.536
			C110.384,261.582,110.384,261.581,110.384,261.58z"/>
	</g>
	<path class="st11" d="M145.797,290.227L145.797,290.227c-8.172,0-14.797-6.625-14.797-14.797v-37.786h29.593v37.786
		C160.593,283.602,153.969,290.227,145.797,290.227z"/>
	<path class="st2" d="M402.592,327.403h-87.424c-56.117,20.913-104.686,5.971-120.169,0h-87.413
		c-12.769,0-23.12,10.398-23.12,23.226v9.087c58.966-16.934,108.16,5.001,108.16,5.001c67.839,26.998,124.689,0,124.689,0
		c49.943-17.402,89.94-9.723,108.397-4.075v-10.014C425.711,337.801,415.36,327.403,402.592,327.403z"/>
	<path class="st11" d="M337.302,364.565L337.302,364.565c-8.172,0-14.797-6.625-14.797-14.797v-44.126h29.593v44.126
		C352.098,357.94,345.474,364.565,337.302,364.565z"/>
	<path class="st11" d="M387.582,359.504L387.582,359.504c-8.172,0-14.797-6.625-14.797-14.797V301.6h29.593v43.107
		C402.379,352.88,395.754,359.504,387.582,359.504z"/>
	<path class="st11" d="M317.315,346.136c0,0-56.85,26.998-124.689,0c0,0-49.793-22.21-109.238-4.694
		c-4.845,1.428-9.993-1.405-9.996-5.538l-0.012-19.597c-0.004-6.088,4.608-11.501,11.452-13.387
		c19.102-5.263,59.844-12.514,105.02,3.74c0,0,60.191,29.105,130.848,0c0,0,44.815-19.213,104.372-3.499
		c6.966,1.838,11.726,7.284,11.726,13.457v20.233c0,4.162-5.232,7.047-10.07,5.522C408.744,336.706,368.179,328.413,317.315,346.136
		L317.315,346.136z"/>
	<g>
		<path class="st20" d="M110.384,335.904l-0.012-19.596c-0.004-6.089,4.608-11.501,11.452-13.387
			c6.917-1.906,16.682-4.067,28.457-5.284c-28.42-2.987-52.168,1.625-65.449,5.284c-6.844,1.885-11.456,7.298-11.452,13.387
			l0.012,19.596c0.003,4.134,5.15,6.966,9.996,5.538c9.285-2.735,18.335-4.502,26.996-5.536
			C110.384,335.906,110.384,335.905,110.384,335.904z"/>
	</g>
	<g>
		<path class="st20" d="M110.384,410.228l-0.012-19.596c-0.004-6.089,4.608-11.501,11.452-13.387
			c6.917-1.906,16.682-4.067,28.457-5.284c-28.42-2.987-52.168,1.625-65.449,5.284c-6.844,1.885-11.456,7.298-11.452,13.387
			l0.012,19.596c0.003,4.134,5.15,6.966,9.996,5.538c9.285-2.735,18.335-4.502,26.996-5.536
			C110.384,410.229,110.384,410.229,110.384,410.228z"/>
	</g>
	<path class="st23" d="M415.784,453.654H94.393c-5.523,0-10-4.477-10-10v-20.296h341.391v20.296
		C425.784,449.177,421.307,453.654,415.784,453.654z"/>
	<path class="st10" d="M93.521,440.323h332.263v-16.966H84.393v18.178c0,6.693,4.087,12.119,9.128,12.119V440.323z"/>
	<path class="st23" d="M465.565,430.749H44.612c-5.523,0-10-4.477-10-10v-4.237c0-5.523,4.477-10,10-10h420.953
		c5.523,0,10,4.477,10,10v4.237C475.565,426.272,471.088,430.749,465.565,430.749z"/>
	<g>
		
			<ellipse transform="matrix(0.5067 -0.8621 0.8621 0.5067 -77.7859 310.7501)" class="st13" cx="232.635" cy="223.343" rx="11.738" ry="29.926"/>
	</g>
	<g>
		<path class="st14" d="M226.168,224.171c-8.871-5.309-15.558-11.708-18.447-17.081c-0.29,0.269-0.546,0.564-0.761,0.89
			c-3.572,5.418,5.028,16.689,19.208,25.175c14.18,8.485,28.571,10.972,32.143,5.553c1.337-2.029,0.968-4.878-0.761-8.093
			C253.008,234.82,239.496,232.146,226.168,224.171z"/>
	</g>
	<g>
		
			<ellipse transform="matrix(0.8621 -0.5067 0.5067 0.8621 -73.7874 175.4918)" class="st14" cx="285.603" cy="223.343" rx="29.926" ry="11.738"/>
	</g>
	<g>
		<path class="st16" d="M279.135,222.515c-8.871,5.309-15.558,11.708-18.447,17.081c-0.29-0.269-0.546-0.564-0.761-0.89
			c-3.572-5.418,5.028-16.689,19.208-25.175c14.18-8.485,28.571-10.972,32.143-5.553c1.337,2.029,0.968,4.878-0.761,8.093
			C305.976,211.866,292.464,214.54,279.135,222.515z"/>
	</g>
	<path class="st3" d="M273.916,348.186L273.916,348.186c-8.172,0-14.797-6.625-14.797-14.797v-26.829h29.593v26.829
		C288.712,341.562,282.088,348.186,273.916,348.186z"/>
	<path class="st3" d="M169.841,400.057L169.841,400.057c-8.172,0-14.797-6.625-14.797-14.797v-21.646h29.593v21.646
		C184.638,393.432,178.013,400.057,169.841,400.057z"/>
	<path class="st5" d="M417.587,252.049c-1.043,0-2.1-0.272-3.061-0.844c-33.439-19.884-75.164-0.715-75.582-0.519
		c-2.998,1.407-6.571,0.12-7.981-2.874c-1.41-2.995-0.132-6.565,2.861-7.979c1.934-0.915,47.838-22.131,86.835,1.058
		c2.849,1.694,3.784,5.375,2.091,8.224C421.628,251.001,419.634,252.049,417.587,252.049z"/>
	<path class="st23" d="M467.388,125.108H265.34V97.26h202.048c5.523,0,10,4.477,10,10v7.848
		C477.388,120.63,472.911,125.108,467.388,125.108z"/>
	<path class="st10" d="M467.317,116.917H298.459c-4.45,0-8.057-2.934-8.057-6.552V97.26H265.34v19.657v8.191h25.062h176.915
		c5.562,0,10.071-3.667,10.071-8.191v-8.191C477.388,113.25,472.879,116.917,467.317,116.917z"/>
	<path class="st23" d="M257.761,146.014h-76.843V76.353h76.843c9.941,0,18,8.059,18,18v33.661
		C275.761,137.955,267.702,146.014,257.761,146.014z"/>
	<path class="st1" d="M265.306,115.36c-0.1,0-0.199-0.002-0.3-0.007c-3.31-0.163-5.86-2.978-5.698-6.288
		c0.227-4.591-0.75-8.026-2.902-10.211c-3.262-3.312-8.556-3.291-8.603-3.283c-3.285,0.117-6.088-2.48-6.201-5.792
		c-0.113-3.312,2.48-6.088,5.792-6.201c1.079-0.035,10.657-0.154,17.561,6.855c4.604,4.674,6.736,11.142,6.339,19.222
		C271.136,112.864,268.483,115.36,265.306,115.36z"/>
	<path class="st3" d="M181.464,157.969V79.184c0-9.479,7.684-17.163,17.163-17.163h0c9.479,0,17.163,7.684,17.163,17.163v78.786
		c0,9.479-7.684,17.163-17.163,17.163h0C189.148,175.132,181.464,167.448,181.464,157.969z"/>
	<path class="st2" d="M215.79,167.469v-28.978c-9.662-18.601-2.759-34.7,0-39.832V69.684c0-4.232-4.804-7.663-10.731-7.663h-4.199
		c7.824,19.545-2.311,35.851-2.311,35.851c-12.474,22.486,0,41.33,0,41.33c8.04,16.554,4.492,29.812,1.883,35.93h4.627
		C210.986,175.132,215.79,171.701,215.79,167.469z"/>
	<path class="st3" d="M147.111,157.962V79.19c0-9.483,7.687-17.17,17.17-17.17h0c9.483,0,17.17,7.687,17.17,17.17v78.772
		c0,9.483-7.687,17.17-17.17,17.17h0C154.799,175.132,147.111,167.445,147.111,157.962z"/>
	<path class="st11" d="M138.456,139.202c0,0-12.474-18.844,0-41.33c0,0,10.262-16.505,2.169-36.209
		c-0.66-1.606,0.649-3.312,2.559-3.313l9.054-0.004c2.813-0.001,5.314,1.527,6.185,3.796c2.432,6.332,5.782,19.836-1.728,34.81
		c0,0-13.447,19.951,0,43.372c0,0,8.877,14.855,1.617,34.596c-0.849,2.309-3.365,3.887-6.217,3.887h-9.348
		c-1.923,0-3.256-1.734-2.551-3.338C142.813,169.508,146.645,156.062,138.456,139.202L138.456,139.202z"/>
	<path class="st11" d="M207.135,139.202c0,0-12.474-18.844,0-41.33c0,0,10.262-16.505,2.169-36.209
		c-0.66-1.606,0.649-3.312,2.559-3.313l9.054-0.004c2.813-0.001,5.314,1.527,6.185,3.796c2.432,6.332,5.782,19.836-1.728,34.81
		c0,0-13.447,19.951,0,43.372c0,0,8.877,14.855,1.617,34.596c-0.849,2.309-3.365,3.887-6.217,3.887h-9.348
		c-1.923,0-3.256-1.734-2.551-3.338C211.492,169.508,215.324,156.062,207.135,139.202L207.135,139.202z"/>
	<path class="st2" d="M181.79,167.469v-28.978c-9.662-18.601-2.759-34.7,0-39.832V69.684c0-4.232-4.804-7.663-10.731-7.663h-4.199
		c7.824,19.545-2.311,35.851-2.311,35.851c-12.474,22.486,0,41.33,0,41.33c8.04,16.554,4.492,29.812,1.883,35.93h4.627
		C176.986,175.132,181.79,171.701,181.79,167.469z"/>
	<path class="st11" d="M172.795,139.202c0,0-12.474-18.844,0-41.33c0,0,10.262-16.505,2.169-36.209
		c-0.66-1.606,0.649-3.312,2.559-3.313l9.054-0.004c2.813-0.001,5.314,1.527,6.185,3.796c2.432,6.332,5.782,19.836-1.728,34.81
		c0,0-13.447,19.951,0,43.372c0,0,8.877,14.855,1.617,34.596c-0.849,2.309-3.365,3.887-6.217,3.887h-9.348
		c-1.923,0-3.256-1.734-2.551-3.338C177.152,169.508,180.984,156.062,172.795,139.202L172.795,139.202z"/>
	<circle class="st20" cx="137.286" cy="244.923" r="13.421"/>
	<circle class="st20" cx="360.735" cy="316.247" r="13.421"/>
</g>
</svg>
