<?xml version="1.0" encoding="utf-8"?>
<!-- Generator: Adobe Illustrator 22.1.0, SVG Export Plug-In . SVG Version: 6.00 Build 0)  -->
<svg version="1.1" id="Layer_1" xmlns="http://www.w3.org/2000/svg" xmlns:xlink="http://www.w3.org/1999/xlink" x="0px" y="0px"
	 viewBox="0 0 512 512" style="enable-background:new 0 0 512 512;" xml:space="preserve">
<style type="text/css">
	.st0{fill:#FFF9DC;}
	.st1{fill:#FFB74B;}
	.st2{fill:#FF624B;}
	.st3{fill:#FF9079;}
	.st4{fill:#FF4B34;}
	.st5{fill:#FFEACF;}
	.st6{fill:#FFA730;}
	.st7{fill:#FFD551;}
	.st8{fill:#FFF7CA;}
	.st9{fill:#E58D23;}
	.st10{fill:#BF6C0D;}
	.st11{fill:#FFD59A;}
	.st12{fill:#A56021;}
	.st13{fill:#EACF32;}
	.st14{fill:#CCC033;}
	.st15{fill:#FCE575;}
	.st16{fill:#AD9B18;}
	.st17{fill:#FFEEA4;}
	.st18{fill:#FFF4C1;}
	.st19{fill:#FFDF74;}
	.st20{fill:#FFC34C;}
	.st21{fill:#8C4C17;}
	.st22{fill:#F9BB32;}
	.st23{fill:#DB9C2E;}
	.st24{fill:#FCF9DE;}
	.st25{fill:#FFEA63;}
	.st26{fill:#99AF17;}
	.st27{fill:#FCDA4F;}
	.st28{fill:#FFECCD;}
	.st29{fill:#FFEDCB;}
	.st30{fill:#FFEBCD;}
	.st31{fill:#FFEBCE;}
	.st32{fill:#FFECCC;}
</style>
<g>
	<g>
		<g>
			<g>
				<path class="st5" d="M215.986,486.967l-0.7-0.285c-3.619-1.476-5.356-5.607-3.88-9.226l99.937-244.999
					c1.476-3.619,5.607-5.356,9.226-3.88l0.7,0.285c3.619,1.476,5.356,5.607,3.88,9.226l-99.937,244.999
					C223.736,486.706,219.605,488.443,215.986,486.967z"/>
			</g>
			<g>
				<path class="st11" d="M219.67,480.418l99.652-244.3c0.935-2.293,2.884-3.861,5.116-4.414c-0.801-1.297-1.998-2.366-3.518-2.986
					l0,0c-3.812-1.555-8.164,0.275-9.719,4.087l-99.652,244.3c-1.555,3.813,0.275,8.164,4.087,9.719l0,0
					c1.52,0.62,3.123,0.694,4.603,0.327C219.031,485.194,218.735,482.71,219.67,480.418z"/>
			</g>
		</g>
		<g>
			<circle class="st3" cx="320.919" cy="228.718" r="67.945"/>
		</g>
		<g>
			<path class="st2" d="M290.492,216.307c11.881-29.127,41.671-45.545,71.464-41.747c-4.619-3.495-9.756-6.462-15.374-8.753
				c-34.745-14.173-74.401,2.504-88.574,37.25c-14.173,34.745,2.504,74.401,37.25,88.574c5.618,2.292,11.364,3.765,17.11,4.497
				C288.418,278.004,278.611,245.434,290.492,216.307z"/>
		</g>
		<g>
			<path class="st2" d="M380.374,268.067l-129.469-52.812c-4.091-1.669-6.055-6.338-4.386-10.429l4.516-11.071
				c1.669-4.091,6.338-6.055,10.429-4.386l129.469,52.812c4.091,1.669,6.055,6.338,4.386,10.429l-4.516,11.071
				C389.135,267.772,384.465,269.736,380.374,268.067z"/>
		</g>
		<g>
			<path class="st4" d="M286.454,218.39c-3.588-1.464-5.31-5.559-3.847-9.147l3.934-9.644l-25.988-10.601
				c-3.588-1.464-7.683,0.259-9.147,3.847l-5.259,12.892c-1.464,3.588,0.259,7.683,3.847,9.147l131.29,53.555
				c3.588,1.464,7.683-0.259,9.147-3.847l1.325-3.248L286.454,218.39z"/>
		</g>
		<g>
			<g>
				<circle class="st2" cx="348.299" cy="196.758" r="14.812"/>
			</g>
		</g>
		<g>
			<path class="st5" d="M324.76,288.263c-5.359,0-9.223-0.646-9.674-0.726c-3.264-0.572-5.446-3.683-4.874-6.946
				c0.571-3.26,3.677-5.446,6.936-4.875c0.368,0.062,24.307,3.941,31.425-9.947c1.512-2.949,5.127-4.116,8.076-2.604
				c2.949,1.512,4.115,5.127,2.604,8.076C351.829,285.729,335.367,288.263,324.76,288.263z"/>
		</g>
	</g>
	<g>
		<g>
			<g>
				<path class="st5" d="M195.61,382.385l-0.756-0.003c-3.909-0.013-7.067-3.193-7.053-7.101l0.902-264.596
					c0.013-3.909,3.193-7.067,7.101-7.053l0.756,0.003c3.909,0.013,7.067,3.193,7.053,7.101l-0.902,264.596
					C202.698,379.24,199.519,382.398,195.61,382.385z"/>
			</g>
			<g>
				<path class="st11" d="M196.574,374.933l0.9-263.841c0.008-2.476,1.228-4.66,3.09-6.009c-1.229-0.903-2.739-1.445-4.38-1.451l0,0
					c-4.117-0.014-7.466,3.312-7.481,7.43l-0.9,263.841c-0.014,4.117,3.312,7.466,7.43,7.481l0,0
					c1.642,0.006,3.156-0.526,4.39-1.421C197.77,379.601,196.565,377.409,196.574,374.933z"/>
			</g>
		</g>
		<g>
			<path class="st7" d="M196.025,150.124l-33.853,41.44c-5.325,6.518-0.706,16.298,7.71,16.326l51.891,0.177
				c8.417,0.029,13.102-9.719,7.821-16.273L196.025,150.124z"/>
		</g>
		<g>
			<path class="st20" d="M189.882,207.89c-8.417-0.029-13.035-9.808-7.71-16.327l23.783-29.114l-9.93-12.326l-33.853,41.44
				c-5.325,6.518-0.707,16.298,7.71,16.327l51.891,0.177c0.39,0.001,0.769-0.025,1.142-0.064L189.882,207.89z"/>
		</g>
		<g>
			
				<ellipse transform="matrix(0.0034 -1 1 0.0034 90.4259 297.8538)" class="st7" cx="194.649" cy="103.559" rx="79.052" ry="78.563"/>
		</g>
		<g>
			<path class="st20" d="M156.652,103.43c0.125-36.6,24.954-67.293,58.54-76.179c-6.466-1.758-13.258-2.719-20.274-2.743
				c-43.389-0.148-78.683,35.125-78.832,78.784c-0.149,43.659,34.904,79.172,78.293,79.32c7.015,0.024,13.814-0.891,20.292-2.605
				C181.146,170.892,156.527,140.03,156.652,103.43z"/>
		</g>
		<g>
			<g>
				
					<ellipse transform="matrix(0.0034 -1 1 0.0034 152.7225 279.665)" class="st20" cx="216.671" cy="63.21" rx="17.233" ry="17.127"/>
			</g>
		</g>
		<g>
			<path class="st19" d="M225.374,159.834c-2.558,0-4.928-1.649-5.728-4.221c-0.981-3.155,0.774-6.51,3.924-7.503
				c1.513-0.489,35.142-11.979,24.571-59.567c-0.718-3.234,1.322-6.439,4.557-7.158c3.231-0.714,6.439,1.321,7.158,4.557
				c6.735,30.324-2.349,48.702-11.156,58.779c-9.66,11.053-21.062,14.691-21.542,14.841
				C226.564,159.746,225.964,159.834,225.374,159.834z"/>
		</g>
		<g>
			<g>
				
					<ellipse transform="matrix(0.0034 -1 1 0.0034 84.4062 285.5335)" class="st20" cx="185.458" cy="100.419" rx="17.233" ry="17.127"/>
			</g>
		</g>
	</g>
</g>
</svg>
