<?xml version="1.0" encoding="utf-8"?>
<!-- Generator: Adobe Illustrator 22.1.0, SVG Export Plug-In . SVG Version: 6.00 Build 0)  -->
<svg version="1.1" id="Layer_1" xmlns="http://www.w3.org/2000/svg" xmlns:xlink="http://www.w3.org/1999/xlink" x="0px" y="0px"
	 viewBox="0 0 512 512" style="enable-background:new 0 0 512 512;" xml:space="preserve">
<style type="text/css">
	.st0{fill:#FFF9DC;}
	.st1{fill:#FFB74B;}
	.st2{fill:#FF624B;}
	.st3{fill:#FF9079;}
	.st4{fill:#FF4B34;}
	.st5{fill:#FFEACF;}
	.st6{fill:#FFA730;}
	.st7{fill:#FFD551;}
	.st8{fill:#FFF7CA;}
	.st9{fill:#E58D23;}
	.st10{fill:#BF6C0D;}
	.st11{fill:#FFD59A;}
	.st12{fill:#A56021;}
	.st13{fill:#EACF32;}
	.st14{fill:#CCC033;}
	.st15{fill:#FCE575;}
	.st16{fill:#AD9B18;}
	.st17{fill:#FFEEA4;}
	.st18{fill:#FFF4C1;}
	.st19{fill:#FFDF74;}
	.st20{fill:#FFC34C;}
	.st21{fill:#8C4C17;}
	.st22{fill:#F9BB32;}
	.st23{fill:#DB9C2E;}
	.st24{fill:#FCF9DE;}
	.st25{fill:#FFEA63;}
	.st26{fill:#99AF17;}
	.st27{fill:#FCDA4F;}
	.st28{fill:#FFECCD;}
	.st29{fill:#FFEDCB;}
	.st30{fill:#FFEBCD;}
	.st31{fill:#FFEBCE;}
	.st32{fill:#FFECCC;}
</style>
<g>
	<g>
		<g>
			<path class="st12" d="M451.422,306.488H254.465c-8.129,0-14.718-6.59-14.718-14.718v-4.67c0-8.129,6.59-14.718,14.718-14.718
				h196.957c8.129,0,14.718,6.59,14.718,14.718v4.67C466.14,299.898,459.55,306.488,451.422,306.488z"/>
		</g>
		<g>
			<path class="st21" d="M295.747,291.77v-4.67c0-8.129,6.589-14.718,14.718-14.718h-56c-8.128,0-14.718,6.59-14.718,14.718v4.67
				c0,8.129,6.589,14.718,14.718,14.718h56C302.336,306.488,295.747,299.898,295.747,291.77z"/>
		</g>
		<g>
			<path class="st1" d="M471.506,317.765c-0.002-0.008-0.005-0.013-0.006-0.02c-0.141-1.483-0.404-2.927-0.803-4.306
				c-2.546-8.814-10.082-15.203-18.981-15.203H253.679c-10.992,0-19.903,9.747-19.903,21.77v0c0,3.695,0.569,7.243,1.603,10.556
				c1.1,22.691,53.392,40.967,117.748,40.967c59.492,0,108.681-15.616,116.647-35.902c0.505-1.286,0.83-2.592,0.996-3.913
				C471.616,327.864,472.543,321.968,471.506,317.765z"/>
		</g>
		<g>
			<path class="st1" d="M470.829,247.786c-0.114-1.193-0.381-2.371-0.772-3.536c-0.023-0.089-0.038-0.148-0.038-0.148l-0.006,0.025
				c-0.788-2.287-2.081-4.519-3.871-6.677c-14.351-17.295-59.517-29.923-113.014-29.923c-64.356,0-116.649,18.276-117.748,40.967
				c-1.034,3.312-1.603,6.86-1.603,10.556v0c0,12.023,8.911,21.77,19.903,21.77h198.037c10.992,0,19.903-9.747,19.903-21.77v0
				C472.073,255.512,471.43,250.94,470.829,247.786z"/>
		</g>
		<g>
			<path class="st23" d="M296.051,269.413c-10.992,0-19.903-9.747-19.903-21.77v0c0-3.696,0.569-7.244,1.603-10.556
				c0.477-9.849,10.604-18.866,27.171-25.918c-35.282,5.611-61.342,17.193-67.931,31.111l-0.002-0.003c0,0-0.019,0.038-0.044,0.092
				c-0.002,0.004-0.004,0.009-0.006,0.013c-0.488,1.032-4.35,9.5-3.163,16.667c0,12.023,8.911,21.77,19.903,21.77h198.037
				c7.562,0,14.139-4.613,17.507-11.407H296.051z"/>
		</g>
		<g>
			<path class="st23" d="M277.751,341.969c-1.034-3.312-1.603-6.86-1.603-10.556v0c0-12.023,8.911-21.77,19.903-21.77h173.172
				c-3.368-6.794-9.945-11.407-17.507-11.407H253.679c-10.992,0-19.903,9.747-19.903,21.77v0c0,1.582,0.125,3.129,0.325,4.65
				l-0.016-0.008c0,0,0.185,3.593,1.57,8.052c0.517,2.694,1.755,5.318,3.651,7.848c0.025,0.037,0.046,0.075,0.07,0.111
				c0.062,0.092,0.133,0.168,0.199,0.255c0.073,0.095,0.146,0.19,0.222,0.284c0.029,0.034,0.057,0.071,0.088,0.104
				c9.581,11.879,33.66,21.593,65.038,26.583C288.355,360.834,278.228,351.818,277.751,341.969z"/>
		</g>
		<g>
			<path class="st20" d="M452.364,257.06c-1.988,0-3.933-0.987-5.075-2.791c-9.21-14.543-35.024-21.428-44.193-22.854
				c-3.274-0.509-5.516-3.576-5.007-6.851c0.51-3.274,3.582-5.516,6.851-5.007c1.565,0.243,38.507,6.216,52.488,28.291
				c1.772,2.799,0.94,6.506-1.859,8.279C454.572,256.758,453.462,257.06,452.364,257.06z"/>
		</g>
		<g>
			<g>
				<ellipse class="st23" cx="306.392" cy="333.462" rx="16.888" ry="17.649"/>
			</g>
		</g>
	</g>
	<g>
		<g>
			<g>
				<path class="st23" d="M361.69,217.009c-0.004-0.046-0.013-0.082-0.019-0.125c-0.031-1.047-0.091-2.098-0.216-3.159v0
					c-0.256-2.172-0.803-4.226-1.581-6.129c-2.234-0.045-4.482-0.07-6.747-0.07c-64.356,0-116.649,18.276-117.748,40.967
					c-1.034,3.312-1.603,6.86-1.603,10.556v0c0,11.203,7.739,20.42,17.686,21.627c62.26-8.793,110.724-33.235,110.525-55.475
					l0.01,0.005C361.996,225.207,362.061,221.272,361.69,217.009z"/>
			</g>
			<g>
				<path class="st2" d="M333.147,141.846L333.147,141.846c-0.096-0.82-0.223-1.627-0.372-2.423c0-0.005,0-0.009,0-0.014
					c-0.184-2.097-0.838-4.822-1.51-7.211l0.024-0.003c-0.226-1.913-0.822-3.744-1.75-5.492v0l0,0
					c-10.148-19.115-60.837-27.99-119.96-19.915c-63.845,8.72-113.586,33.936-112.026,56.596c-0.639,3.426-0.789,7.023-0.357,10.689
					v0c1.405,11.928,11.384,20.39,22.289,18.9l196.463-26.833C326.851,164.651,334.552,153.774,333.147,141.846z"/>
			</g>
			<g>
				<path class="st2" d="M340.27,202.319c-1.405-11.928-11.384-20.39-22.289-18.9l-196.463,26.833
					c-10.905,1.489-18.606,12.366-17.201,24.294v0c0.432,3.666,1.411,7.109,2.824,10.255c3.743,22.362,57.754,33.407,121.6,24.687
					c62.831-8.581,112.001-33.138,112.061-55.514c0.002-0.011,0.006-0.019,0.008-0.03
					C341.381,209.755,340.27,202.319,340.27,202.319z"/>
			</g>
			<g>
				<path class="st25" d="M317.788,191.763l-193.66,26.45c-8.542,1.167-16.345-5.344-17.429-14.543l-0.062-0.525
					c-1.083-9.198,4.963-17.601,13.505-18.768l193.66-26.45c8.542-1.167,16.345,5.344,17.429,14.543l0.062,0.525
					C332.376,182.193,326.33,190.596,317.788,191.763z"/>
			</g>
			<g>
				<path class="st19" d="M133.546,204.491l-1.102-9.359c-0.796-6.759,3.568-12.923,9.747-13.767l-26.327,3.596
					c-6.179,0.844-10.543,7.008-9.747,13.767l1.102,9.359c0.796,6.759,6.451,11.554,12.63,10.71l26.327-3.596
					C139.997,216.045,134.342,211.25,133.546,204.491z"/>
			</g>
			<g>
				<path class="st4" d="M160.185,175.916c-10.905,1.489-20.884-6.973-22.289-18.9v0c-0.432-3.666-0.281-7.263,0.357-10.689
					c-0.678-9.836,8.315-20.152,23.927-29.393c-32.619,9.827-56.36,23.869-62.872,37.849c-0.337,0.724-0.628,1.447-0.872,2.17v0
					c0,0-2.972,7.812-1.243,17.121c1.405,11.928,11.384,20.39,22.289,18.9l196.463-26.833c7.502-1.025,13.487-6.492,16.035-13.688
					L160.185,175.916z"/>
			</g>
			<g>
				<path class="st4" d="M150.509,250.375c-1.413-3.146-2.392-6.589-2.824-10.255v0c-1.405-11.928,6.296-22.805,17.201-24.294
					l171.796-23.464c-4.135-6.283-11.199-9.969-18.701-8.944l-196.463,26.833c-10.905,1.489-18.606,12.366-17.201,24.294v0v0
					c0,0.005,0.684,12.658,5.148,16.203c0.003,0.002,0.005,0.003,0.007,0.005c8.17,12.91,35.372,20.865,71.02,21.651
					C163.233,267.654,152.134,260.081,150.509,250.375z"/>
			</g>
		</g>
		<g>
			<path class="st3" d="M280.938,242.091c-2.992,0-5.581-2.236-5.949-5.281c-0.396-3.29,1.948-6.279,5.237-6.677
				c26.652-3.218,34.162-24.336,34.235-24.549c1.071-3.137,4.482-4.81,7.617-3.738c3.136,1.071,4.81,4.481,3.738,7.617
				c-0.396,1.161-10.102,28.473-44.151,32.584C281.421,242.076,281.179,242.091,280.938,242.091z"/>
		</g>
		<g>
			<g>
				<ellipse class="st4" cx="166.392" cy="148.474" rx="16.888" ry="17.649"/>
			</g>
		</g>
	</g>
	<g>
		<g>
			<g>
				<path class="st7" d="M277.109,284.057c-0.057-0.467-0.129-0.933-0.229-1.396l-0.001-0.001v0
					c-4.654-21.52-55.449-38.468-117.426-38.468c-57.434,0-105.255,14.556-115.661,33.815l-0.001,0c0,0-0.004,0.009-0.004,0.009
					c-0.668,1.237-1.179,2.494-1.53,3.768c-1.199,3.349-2.59,8.363-2.134,12.716c0.004,0.039,0.016,0.071,0.021,0.109
					c-0.011,0.37-0.042,0.733-0.042,1.106v0c0,12.023,8.911,21.77,19.903,21.77h198.037c10.992,0,19.904-9.747,19.904-21.77v0
					C278.276,292.278,277.512,286.655,277.109,284.057z"/>
			</g>
			<g>
				<path class="st7" d="M277.846,354.503c-0.005-0.047-0.01-0.093-0.014-0.14c-0.016-0.156-0.027-0.264-0.027-0.264l-0.008,0.007
					c-1.163-10.812-9.556-19.205-19.754-19.205H60.005c-10.992,0-19.903,9.747-19.903,21.77v0c0,1.654,0.13,3.273,0.349,4.859
					l-0.013-0.005c0,0,0.44,9.502,4.025,14.011c0.001,0.001,0.002,0.002,0.003,0.003c11.665,18.681,58.713,32.655,114.988,32.655
					c62.592,0,113.771-17.287,117.543-39.111c0-0.001,0.001-0.002,0.001-0.003C278.678,364.364,278.028,356.371,277.846,354.503z"/>
			</g>
			<g>
				<path class="st24" d="M257.748,343.154H60.791c-8.129,0-14.718-6.59-14.718-14.718v-4.67c0-8.129,6.59-14.718,14.718-14.718
					h196.957c8.129,0,14.718,6.59,14.718,14.718v4.67C272.466,336.565,265.876,343.154,257.748,343.154z"/>
			</g>
			<g>
				<path class="st18" d="M72.61,330.818v-9.434c0-6.813,5.05-12.336,11.278-12.336H57.351c-6.229,0-11.278,5.523-11.278,12.336
					v9.434c0,6.813,5.05,12.336,11.278,12.336h26.538C77.66,343.154,72.61,337.631,72.61,330.818z"/>
			</g>
			<g>
				<path class="st13" d="M102.377,306.079c-10.992,0-19.903-9.747-19.903-21.77v0c0-3.696,0.569-7.244,1.603-10.556
					c0.477-9.849,10.604-18.866,27.171-25.918c-40.416,6.428-68.737,20.689-69.543,37.324c-1.034,3.312-1.603,6.86-1.603,10.556v0
					c0,12.023,8.911,21.77,19.903,21.77h198.037c7.562,0,14.139-4.613,17.507-11.407H102.377z"/>
			</g>
			<g>
				<path class="st13" d="M84.077,378.635c-1.034-3.312-1.603-6.86-1.603-10.556v0c0-12.023,8.911-21.77,19.903-21.77h173.172
					c-3.368-6.794-9.945-11.407-17.507-11.407H60.005c-10.992,0-19.903,9.747-19.903,21.77v0c0,3.695,0.569,7.243,1.603,10.556
					c0.806,16.635,29.127,30.897,69.543,37.324C94.681,397.5,84.554,388.484,84.077,378.635z"/>
			</g>
			<g>
				<g>
					<ellipse class="st13" cx="113.546" cy="371.548" rx="16.888" ry="17.649"/>
				</g>
			</g>
		</g>
		<g>
			<path class="st19" d="M192.523,397.322c-3.941,0-6.445-0.217-6.887-0.259c-3.299-0.313-5.721-3.239-5.409-6.538
				c0.312-3.296,3.236-5.718,6.53-5.41c0.462,0.043,46.258,3.855,69.999-27.238c2.01-2.633,5.774-3.139,8.41-1.127
				c2.634,2.011,3.139,5.776,1.127,8.41C244.201,394.095,207.703,397.322,192.523,397.322z"/>
		</g>
	</g>
</g>
</svg>
