<?xml version="1.0" encoding="utf-8"?>
<!-- Generator: Adobe Illustrator 22.1.0, SVG Export Plug-In . SVG Version: 6.00 Build 0)  -->
<svg version="1.1" id="Layer_1" xmlns="http://www.w3.org/2000/svg" xmlns:xlink="http://www.w3.org/1999/xlink" x="0px" y="0px"
	 viewBox="0 0 512 512" style="enable-background:new 0 0 512 512;" xml:space="preserve">
<style type="text/css">
	.st0{fill:#FFF9DC;}
	.st1{fill:#FFB74B;}
	.st2{fill:#FF624B;}
	.st3{fill:#FF9079;}
	.st4{fill:#FF4B34;}
	.st5{fill:#FFEACF;}
	.st6{fill:#FFA730;}
	.st7{fill:#FFD551;}
	.st8{fill:#FFF7CA;}
	.st9{fill:#E58D23;}
	.st10{fill:#BF6C0D;}
	.st11{fill:#FFD59A;}
	.st12{fill:#A56021;}
	.st13{fill:#EACF32;}
	.st14{fill:#CCC033;}
	.st15{fill:#FCE575;}
	.st16{fill:#AD9B18;}
	.st17{fill:#FFEEA4;}
	.st18{fill:#FFF4C1;}
	.st19{fill:#FFDF74;}
	.st20{fill:#FFC34C;}
	.st21{fill:#8C4C17;}
	.st22{fill:#F9BB32;}
	.st23{fill:#DB9C2E;}
	.st24{fill:#FCF9DE;}
	.st25{fill:#FFEA63;}
	.st26{fill:#99AF17;}
	.st27{fill:#FCDA4F;}
	.st28{fill:#FFECCD;}
	.st29{fill:#FFEDCB;}
	.st30{fill:#FFEBCD;}
	.st31{fill:#FFEBCE;}
	.st32{fill:#FFECCC;}
</style>
<g>
	<g>
		<g>
			<path class="st26" d="M364.343,24.226c-39.985,0-72.4,32.415-72.4,72.4c0,0.048,0.003,0.095,0.003,0.143h72.397v72.257
				c39.985-0.001,72.399-32.415,72.399-72.4C436.743,56.641,404.329,24.226,364.343,24.226z"/>
		</g>
		<g>
			<path class="st14" d="M364.343,31.265c-35.948,0-65.195,29.247-65.195,65.195c0,0.048,0.003,0.095,0.003,0.143h65.192v65.052
				c35.949,0,65.196-29.247,65.196-65.195S400.293,31.265,364.343,31.265z"/>
		</g>
		<g>
			<path class="st18" d="M423.816,102.627H299.151c-3.313,0-6-2.687-6-6s2.687-6,6-6h124.665c3.313,0,6,2.687,6,6
				S427.13,102.627,423.816,102.627z"/>
		</g>
		<g>
			<path class="st18" d="M406.399,144.682c-1.536,0-3.071-0.586-4.243-1.758l-84.111-84.11c-2.343-2.343-2.343-6.142,0-8.484
				c2.343-2.344,6.143-2.344,8.485,0l84.111,84.11c2.343,2.343,2.343,6.142,0,8.484C409.47,144.096,407.935,144.682,406.399,144.682
				z"/>
		</g>
		<g>
			<path class="st18" d="M364.343,102.627c-3.313,0-6-2.687-6-6V37.151c0-3.313,2.687-6,6-6s6,2.687,6,6v59.476
				C370.343,99.94,367.657,102.627,364.343,102.627z"/>
		</g>
		<g>
			<path class="st18" d="M364.343,102.627c-1.536,0-3.071-0.586-4.243-1.758c-2.343-2.343-2.343-6.142,0-8.484l42.056-42.056
				c2.343-2.344,6.143-2.344,8.485,0c2.343,2.343,2.343,6.142,0,8.484l-42.056,42.056
				C367.415,102.041,365.879,102.627,364.343,102.627z"/>
		</g>
		<g>
			<path class="st18" d="M365.141,69.529c-14.942,0-27.099,12.156-27.099,27.098h26.314v27.078c0.261,0.007,0.521,0.02,0.785,0.02
				c14.942,0,27.099-12.156,27.099-27.098C392.24,81.684,380.083,69.529,365.141,69.529z"/>
		</g>
	</g>
	<g>
		<rect x="215.787" y="216.616" class="st24" width="26.97" height="249.048"/>
	</g>
	<g>
		<polygon class="st18" points="232.165,217.708 242.757,217.708 242.757,216.616 215.787,216.616 215.787,465.664 232.165,465.664 
					"/>
	</g>
	<g>
		<path class="st24" d="M365.053,96.793H88.359c-7.236,0-13.102,5.866-13.102,13.102v28.752c0,24.121,19.554,43.675,43.675,43.675
			h0.472c2.54,0,4.73,1.756,5.31,4.228c11.141,47.438,53.722,82.758,104.558,82.758h0.001c50.92,0,93.557-35.437,104.613-82.993
			c0.526-2.264,2.417-3.975,4.731-4.192c22.181-2.084,39.538-20.75,39.538-43.476v-28.752
			C378.155,102.659,372.289,96.793,365.053,96.793z"/>
	</g>
	<g>
		<path class="st18" d="M272.947,258.389L272.947,258.389c-50.837,0-93.418-35.32-104.559-82.758
			c-0.581-2.472-2.771-4.228-5.311-4.228h-0.472c-24.121,0-43.675-19.554-43.675-43.675V98.977c0-0.746,0.077-1.472,0.196-2.184
			H88.359c-7.236,0-13.102,5.866-13.102,13.102v28.752c0,24.121,19.554,43.675,43.675,43.675h0.472c2.54,0,4.73,1.756,5.31,4.228
			c11.141,47.438,53.722,82.758,104.558,82.758h0.001c17,0,33.066-3.967,47.352-10.999
			C275.402,258.35,274.179,258.389,272.947,258.389z"/>
	</g>
	<g>
		<path class="st19" d="M231.839,252.93c-20.942,0-40.622-6.911-56.914-19.985c-15.832-12.706-27.091-30.512-31.7-50.14
			c-2.334-9.929-11.074-16.861-21.254-16.861h-0.472c-15.052,0-27.297-12.245-27.297-27.297v-25.475h270.142v25.475
			c0,14.167-10.616,25.846-24.692,27.169c-9.328,0.878-17.024,7.626-19.153,16.795c-4.573,19.671-15.82,37.525-31.668,50.272
			C272.522,245.998,252.815,252.93,231.839,252.93z"/>
	</g>
	<g>
		<path class="st24" d="M286.893,487.774H166.519v-4.218c0-22.091,17.909-40,40-40h40.375c22.091,0,40,17.909,40,40V487.774z"/>
	</g>
	<g>
		<ellipse class="st25" cx="180.139" cy="138.053" rx="17.614" ry="16.888"/>
	</g>
	<g>
		<ellipse class="st25" cx="219.399" cy="165.845" rx="17.614" ry="16.888"/>
	</g>
	<g>
		<path class="st18" d="M252.924,233.179c-2.694,0-5.144-1.827-5.819-4.561c-0.793-3.206,1.154-6.449,4.353-7.257
			c1.251-0.328,28.673-7.982,37.837-48.643c0.729-3.232,3.939-5.257,7.172-4.534c3.232,0.729,5.262,3.94,4.534,7.173
			c-10.88,48.277-45.176,57.285-46.631,57.645C253.886,233.122,253.401,233.179,252.924,233.179z"/>
	</g>
	<g>
		<path class="st7" d="M218.599,232.945c-15.832-12.706-27.091-30.512-31.7-50.14c-2.334-9.929-11.074-16.861-21.254-16.861h-0.472
			c-15.052,0-27.297-12.245-27.297-27.297v-25.475H94.201v25.475c0,15.052,12.245,27.297,27.297,27.297h0.472
			c10.18,0,18.92,6.932,21.254,16.861c4.609,19.628,15.868,37.435,31.7,50.14c16.293,13.075,35.973,19.985,56.914,19.985
			c7.474,0,14.782-0.896,21.837-2.622C240.961,247.197,229.077,241.354,218.599,232.945z"/>
	</g>
	<g>
		<path class="st18" d="M246.519,443.555h-40c-22.092,0-40,17.909-40,40v4.218h40v-4.218
			C206.519,461.464,224.427,443.555,246.519,443.555z"/>
	</g>
</g>
</svg>
