<?xml version="1.0" encoding="utf-8"?>
<!-- Generator: Adobe Illustrator 22.1.0, SVG Export Plug-In . SVG Version: 6.00 Build 0)  -->
<svg version="1.1" id="Layer_1" xmlns="http://www.w3.org/2000/svg" xmlns:xlink="http://www.w3.org/1999/xlink" x="0px" y="0px"
	 viewBox="0 0 512 512" style="enable-background:new 0 0 512 512;" xml:space="preserve">
<style type="text/css">
	.st0{fill:#FFF9DC;}
	.st1{fill:#FFB74B;}
	.st2{fill:#FF624B;}
	.st3{fill:#FF9079;}
	.st4{fill:#FF4B34;}
	.st5{fill:#FFEACF;}
	.st6{fill:#FFA730;}
	.st7{fill:#FFD551;}
	.st8{fill:#FFF7CA;}
	.st9{fill:#E58D23;}
	.st10{fill:#BF6C0D;}
	.st11{fill:#FFD59A;}
	.st12{fill:#A56021;}
	.st13{fill:#EACF32;}
	.st14{fill:#CCC033;}
	.st15{fill:#FCE575;}
	.st16{fill:#AD9B18;}
	.st17{fill:#FFEEA4;}
	.st18{fill:#FFF4C1;}
	.st19{fill:#FFDF74;}
	.st20{fill:#FFC34C;}
	.st21{fill:#8C4C17;}
	.st22{fill:#F9BB32;}
	.st23{fill:#DB9C2E;}
	.st24{fill:#FCF9DE;}
	.st25{fill:#FFEA63;}
	.st26{fill:#99AF17;}
	.st27{fill:#FCDA4F;}
	.st28{fill:#FFECCD;}
	.st29{fill:#FFEDCB;}
	.st30{fill:#FFEBCD;}
	.st31{fill:#FFEBCE;}
	.st32{fill:#FFECCC;}
</style>
<g>
	<g>
		<g>
			<path class="st23" d="M448.411,446.507l-1.905,1.905c-3.319,3.319-8.701,3.319-12.021,0l-363.4-363.4
				c-3.319-3.319-3.319-8.701,0-12.021l1.905-1.905c3.319-3.319,8.701-3.319,12.021,0l363.4,363.4
				C451.731,437.805,451.731,443.187,448.411,446.507z"/>
		</g>
		<g>
			<path class="st10" d="M441.533,439.075L80.422,77.965c-2.376-2.376-3.344-5.608-2.91-8.644c-2.012,0.288-3.94,1.185-5.473,2.718
				l0,0c-3.845,3.845-3.759,10.166,0.192,14.118l361.111,361.111c3.951,3.951,10.272,4.037,14.118,0.192l0,0
				c1.533-1.533,2.43-3.461,2.718-5.473C447.141,442.419,443.909,441.452,441.533,439.075z"/>
		</g>
	</g>
	<g>
		<path class="st18" d="M95.051,95.051c-24.369,24.369-38.881,49.366-32.413,55.833l78.063,78.063
			c6.467,6.467,31.464-8.045,55.833-32.413s38.881-49.366,32.413-55.833l-78.063-78.063C144.417,56.171,119.42,70.683,95.051,95.051
			z"/>
	</g>
	<g>
		<path class="st25" d="M212.917,163.769c-24.368,24.368-49.366,38.88-55.833,32.413l-78.064-78.064
			c-0.833-0.833-1.312-1.978-1.472-3.384c-13.213,16.937-19.614,31.446-14.911,36.149l78.064,78.064
			c6.467,6.467,31.464-8.045,55.833-32.413c21.231-21.231,34.974-42.934,33.886-52.449
			C225.467,150.435,219.562,157.124,212.917,163.769z"/>
	</g>
	<g>
		<path class="st24" d="M187.323,128.044c-1.536,0-3.071-0.586-4.243-1.757l-40.699-40.699c-2.343-2.343-2.343-6.142,0-8.485
			c2.343-2.343,6.143-2.343,8.485,0l40.699,40.699c2.343,2.343,2.343,6.142,0,8.485
			C190.395,127.458,188.859,128.044,187.323,128.044z"/>
	</g>
	<g>
		<path class="st18" d="M209.731,209.731c-24.369,24.369-38.881,49.366-32.413,55.833l78.063,78.063
			c6.467,6.467,31.464-8.045,55.833-32.413s38.881-49.366,32.413-55.833l-78.063-78.063
			C259.097,170.851,234.1,185.363,209.731,209.731z"/>
	</g>
	<g>
		<path class="st25" d="M327.597,278.449c-24.368,24.368-49.366,38.88-55.833,32.413l-78.064-78.064
			c-0.833-0.833-1.312-1.978-1.472-3.383c-13.213,16.937-19.614,31.446-14.911,36.149l78.064,78.064
			c6.467,6.467,31.464-8.045,55.833-32.413c21.231-21.231,34.974-42.934,33.886-52.449
			C340.147,265.115,334.242,271.804,327.597,278.449z"/>
	</g>
	<g>
		<g>
			<circle class="st25" cx="275.209" cy="281.323" r="13.118"/>
		</g>
	</g>
	<g>
		<path class="st24" d="M302.004,242.724c-1.535,0-3.071-0.586-4.242-1.757l-40.699-40.699c-2.344-2.343-2.344-6.142,0-8.485
			c2.342-2.343,6.143-2.343,8.484,0l40.699,40.699c2.344,2.343,2.344,6.142,0,8.485
			C305.075,242.138,303.539,242.724,302.004,242.724z"/>
	</g>
	<g>
		<g>
			<circle class="st25" cx="164.785" cy="166.735" r="13.118"/>
		</g>
	</g>
</g>
</svg>
