<?xml version="1.0" encoding="utf-8"?>
<!-- Generator: Adobe Illustrator 22.1.0, SVG Export Plug-In . SVG Version: 6.00 Build 0)  -->
<svg version="1.1" id="Layer_1" xmlns="http://www.w3.org/2000/svg" xmlns:xlink="http://www.w3.org/1999/xlink" x="0px" y="0px"
	 viewBox="0 0 512 512" style="enable-background:new 0 0 512 512;" xml:space="preserve">
<style type="text/css">
	.st0{fill:#FFF9DC;}
	.st1{fill:#FFB74B;}
	.st2{fill:#FF624B;}
	.st3{fill:#FF9079;}
	.st4{fill:#FF4B34;}
	.st5{fill:#FFEACF;}
	.st6{fill:#FFA730;}
	.st7{fill:#FFD551;}
	.st8{fill:#FFF7CA;}
	.st9{fill:#E58D23;}
	.st10{fill:#BF6C0D;}
	.st11{fill:#FFD59A;}
	.st12{fill:#A56021;}
	.st13{fill:#EACF32;}
	.st14{fill:#CCC033;}
	.st15{fill:#FCE575;}
	.st16{fill:#AD9B18;}
	.st17{fill:#FFEEA4;}
	.st18{fill:#FFF4C1;}
	.st19{fill:#FFDF74;}
	.st20{fill:#FFC34C;}
	.st21{fill:#8C4C17;}
	.st22{fill:#F9BB32;}
	.st23{fill:#DB9C2E;}
	.st24{fill:#FCF9DE;}
	.st25{fill:#FFEA63;}
	.st26{fill:#99AF17;}
	.st27{fill:#FCDA4F;}
	.st28{fill:#FFECCD;}
	.st29{fill:#FFEDCB;}
	.st30{fill:#FFEBCD;}
	.st31{fill:#FFEBCE;}
	.st32{fill:#FFECCC;}
</style>
<g>
	<g>
		<g>
			<path class="st0" d="M303.247,145.675l-38.522-35.572l-3.837-3.33V74.095h20.914c4.342,0,7.862-3.453,7.862-7.713v-33.75
				c0-4.26-3.52-7.713-7.862-7.713H139.874c-4.342,0-7.862,3.453-7.862,7.713v33.75c0,4.259,3.52,7.713,7.862,7.713h20.223v32.679
				l-3.865,3.33l-38.875,35.897c-9.864,8.55-16.098,21.075-16.098,35.042v259.383c0,25.767,21.187,46.654,47.322,46.654h123.825
				c26.135,0,47.321-20.888,47.321-46.654V181.043C319.726,166.897,313.332,154.231,303.247,145.675z"/>
		</g>
		<g>
			<path class="st5" d="M260.074,74.095h-65.63l0,0h-15.262c-4.342,0-7.862-3.453-7.862-7.713v-33.75c0-4.26,3.52-7.713,7.862-7.713
				h-39.308c-4.342,0-7.861,3.453-7.861,7.713v33.75c0,4.26,3.52,7.713,7.861,7.713h20.223v32.679l-3.865,3.33l-38.875,35.897
				c-9.864,8.55-16.098,21.075-16.098,35.042v259.383c0,25.767,21.187,46.654,47.322,46.654h39.308
				c-26.135,0-47.321-20.888-47.321-46.654V181.043c0-13.967,6.233-26.492,16.098-35.042l38.875-35.897l3.865-3.33V89.079h60.669
				V74.095z"/>
		</g>
		<g>
			<path class="st9" d="M295.316,180.637v-6.277c0-7.987-6.742-14.461-15.059-14.461H140.71c-8.317,0-15.059,6.474-15.059,14.461
				v6.522c-0.004,0.054-0.015,0.106-0.016,0.161v259.382c0,12.323,10.293,22.348,22.945,22.348h123.825
				c12.652,0,22.945-10.025,22.945-22.348V180.96C295.349,180.85,295.332,180.743,295.316,180.637z"/>
		</g>
		<g>
			<path class="st10" d="M145.716,159.898h-5.006c-8.317,0-15.059,6.474-15.059,14.461v6.522c-0.004,0.054-0.015,0.106-0.016,0.161
				v259.382c0,11.565,9.067,21.106,20.641,22.235c-3.641-6.61-5.71-14.184-5.71-22.235V181.043
				C140.567,173.427,142.431,166.246,145.716,159.898z"/>
		</g>
		<g>
			<path class="st11" d="M273.259,197.746c-3.313,0-6-2.687-6-6V171.86c0-3.313,2.687-6,6-6s6,2.687,6,6v19.886
				C279.259,195.06,276.572,197.746,273.259,197.746z"/>
		</g>
		<g>
			<path class="st11" d="M273.259,314.079c-3.313,0-6-2.687-6-6v-93.666c0-3.313,2.687-6,6-6s6,2.687,6,6v93.666
				C279.259,311.393,276.572,314.079,273.259,314.079z"/>
		</g>
		<g>
			<circle class="st5" cx="192.079" cy="141.441" r="16.602"/>
		</g>
		<g>
			<circle class="st11" cx="162.079" cy="182.441" r="16.602"/>
		</g>
	</g>
	<g>
		<g>
			<path class="st0" d="M361.745,485.83h-67.489c-16.52,0-30.363-14.961-32.051-34.64l-16.907-197.117
				c-0.446-5.199,2.961-9.72,7.326-9.72h150.752c4.365,0,7.772,4.52,7.326,9.72L393.795,451.19
				C392.108,470.868,378.264,485.83,361.745,485.83z"/>
		</g>
		<g>
			<path class="st9" d="M294.255,470.829c-8.585,0-16.099-8.593-17.104-19.563l-16.345-178.187h134.389L378.85,451.266
				c-1.006,10.971-8.52,19.564-17.104,19.564H294.255z"/>
		</g>
		<g>
			<path class="st11" d="M366.599,432.739c-0.153,0-0.308-0.006-0.462-0.018c-3.305-0.251-5.779-3.134-5.527-6.438l7.334-96.326
				c0.251-3.305,3.161-5.779,6.438-5.527c3.305,0.251,5.779,3.134,5.527,6.438l-7.334,96.326
				C372.335,430.344,369.705,432.739,366.599,432.739z"/>
		</g>
		<g>
			<path class="st11" d="M375.97,316.502c-0.151,0-0.303-0.005-0.456-0.017c-3.305-0.248-5.782-3.128-5.534-6.433l1.684-22.423
				c0.249-3.305,3.141-5.79,6.433-5.534c3.305,0.248,5.782,3.128,5.534,6.433l-1.684,22.423
				C381.709,314.103,379.079,316.502,375.97,316.502z"/>
		</g>
		<g>
			<path class="st5" d="M292.205,451.19l-16.907-197.117c-0.446-5.199,2.961-9.72,7.326-9.72h-30c-4.365,0-7.772,4.521-7.326,9.72
				l16.907,197.117c1.688,19.678,15.531,34.64,32.051,34.64h30C307.736,485.829,293.893,470.868,292.205,451.19z"/>
		</g>
		<g>
			<path class="st10" d="M300.15,451.266l-16.345-178.187h-23l16.345,178.187c1.006,10.97,8.52,19.563,17.104,19.563h23
				C308.67,470.829,301.156,462.237,300.15,451.266z"/>
		</g>
		<g>
			<circle class="st11" cx="311.952" cy="308.181" r="16.602"/>
		</g>
	</g>
</g>
</svg>
