<?xml version="1.0" encoding="utf-8"?>
<!-- Generator: Adobe Illustrator 22.1.0, SVG Export Plug-In . SVG Version: 6.00 Build 0)  -->
<svg version="1.1" id="Layer_1" xmlns="http://www.w3.org/2000/svg" xmlns:xlink="http://www.w3.org/1999/xlink" x="0px" y="0px"
	 viewBox="0 0 512 512" style="enable-background:new 0 0 512 512;" xml:space="preserve">
<style type="text/css">
	.st0{fill:#FFF9DC;}
	.st1{fill:#FFB74B;}
	.st2{fill:#FF624B;}
	.st3{fill:#FF9079;}
	.st4{fill:#FF4B34;}
	.st5{fill:#FFEACF;}
	.st6{fill:#FFA730;}
	.st7{fill:#FFD551;}
	.st8{fill:#FFF7CA;}
	.st9{fill:#E58D23;}
	.st10{fill:#BF6C0D;}
	.st11{fill:#FFD59A;}
	.st12{fill:#A56021;}
	.st13{fill:#EACF32;}
	.st14{fill:#CCC033;}
	.st15{fill:#FCE575;}
	.st16{fill:#AD9B18;}
	.st17{fill:#FFEEA4;}
	.st18{fill:#FFF4C1;}
	.st19{fill:#FFDF74;}
	.st20{fill:#FFC34C;}
	.st21{fill:#8C4C17;}
	.st22{fill:#F9BB32;}
	.st23{fill:#DB9C2E;}
	.st24{fill:#FCF9DE;}
	.st25{fill:#FFEA63;}
	.st26{fill:#99AF17;}
	.st27{fill:#FCDA4F;}
	.st28{fill:#FFECCD;}
	.st29{fill:#FFEDCB;}
	.st30{fill:#FFEBCD;}
	.st31{fill:#FFEBCE;}
	.st32{fill:#FFECCC;}
</style>
<g>
	<g>
		<g>
			<path class="st10" d="M469.356,110.772h-293.63V88.684h293.63c2.761,0,5,2.239,5,5v12.088
				C474.356,108.533,472.117,110.772,469.356,110.772z"/>
		</g>
		<g>
			<path class="st10" d="M469.356,73.623H124.284c-2.761,0-5-2.239-5-5V56.535c0-2.761,2.239-5,5-5h345.072c2.761,0,5,2.239,5,5
				v12.088C474.356,71.385,472.117,73.623,469.356,73.623z"/>
		</g>
		<g>
			<path class="st12" d="M469.139,98.723H175.726v12.048h293.413c2.881,0,5.217-2.247,5.217-5.02V93.703
				C474.356,96.476,472.02,98.723,469.139,98.723z"/>
		</g>
		<g>
			<path class="st12" d="M134.934,61.575c-2.881,0-5.217-2.247-5.217-5.02v-5.02h-5.217c-2.881,0-5.217,2.248-5.217,5.02v12.048
				c0,2.773,2.336,5.02,5.217,5.02h344.638c2.881,0,5.217-2.247,5.217-5.02v-7.028H134.934z"/>
		</g>
	</g>
	<g>
		<g>
			<path class="st7" d="M449.177,263.814c-7.808-41.021-57.214-72.643-117.007-72.643s-109.2,31.622-117.007,72.643H449.177z"/>
		</g>
		<g>
			<path class="st22" d="M422.308,269.814H242.032c-1.88,0-3.65-0.881-4.785-2.38c-1.134-1.499-1.5-3.443-0.988-5.252
				c8.884-31.435,49.221-54.251,95.911-54.251s87.027,22.816,95.911,54.251c0.512,1.809,0.146,3.753-0.988,5.252
				C425.958,268.933,424.188,269.814,422.308,269.814z M250.871,257.814h162.598c-4.882-9.313-13.646-17.769-25.38-24.341
				c-15.592-8.733-35.451-13.542-55.919-13.542c-20.469,0-40.327,4.809-55.919,13.542
				C264.518,240.044,255.753,248.501,250.871,257.814z"/>
		</g>
		<g>
			<path class="st22" d="M394.537,269.814H269.803c-2.118,0-4.079-1.116-5.16-2.938c-1.08-1.821-1.121-4.077-0.106-5.937
				c9.873-18.092,37.053-30.248,67.634-30.248s57.761,12.156,67.634,30.248c1.015,1.859,0.974,4.115-0.106,5.937
				C398.616,268.698,396.655,269.814,394.537,269.814z M282.684,257.814h98.973c-11.046-9.121-29.825-15.122-49.486-15.122
				S293.729,248.693,282.684,257.814z"/>
		</g>
		<g>
			<path class="st7" d="M288.933,263.883c-7.808-51.704-57.214-91.561-117.007-91.561s-109.2,39.857-117.007,91.561H288.933z"/>
		</g>
		<g>
			<path class="st22" d="M234.293,269.884H109.559c-2.021,0-3.906-1.017-5.016-2.706c-1.108-1.689-1.293-3.823-0.49-5.677
				c9.636-22.257,37.547-37.802,67.873-37.802s58.237,15.545,67.873,37.802c0.803,1.854,0.618,3.988-0.49,5.677
				C238.199,268.866,236.313,269.884,234.293,269.884z M120.097,257.884h103.658c-10.49-13.4-30.354-22.186-51.829-22.186
				S130.587,244.484,120.097,257.884z"/>
		</g>
		<g>
			<path class="st22" d="M262.063,269.884H81.788c-1.822,0-3.545-0.828-4.684-2.25c-1.139-1.422-1.569-3.285-1.171-5.063
				c8.777-39.147,49.148-67.561,95.992-67.561s87.215,28.413,95.992,67.561c0.398,1.778-0.032,3.64-1.171,5.063
				C265.608,269.056,263.886,269.884,262.063,269.884z M89.765,257.884h164.322C243.382,228,210.154,207.01,171.926,207.01
				S100.47,228,89.765,257.884z"/>
		</g>
	</g>
	<g>
		<path class="st24" d="M449.177,273.316H54.918c0,72.984,40.603,136.585,100.693,169.967v17.061c0,4.32,3.64,7.823,8.129,7.823
			h176.553c4.49,0,8.129-3.502,8.129-7.823v-17.027C408.546,409.945,449.177,346.325,449.177,273.316z"/>
	</g>
	<g>
		<g>
			<path class="st7" d="M168.375,124.681h-6.984c-5.523,0-10-4.477-10-10V53.833c0-5.523,4.477-10,10-10h6.984
				c5.523,0,10,4.477,10,10v60.847C178.375,120.204,173.898,124.681,168.375,124.681z"/>
		</g>
		<g>
			<rect x="205.359" y="103.753" class="st7" width="26.984" height="93.599"/>
		</g>
		<g>
			<path class="st7" d="M195.359,155.455h-6.984c-5.523,0-10-4.477-10-10v-34.857h26.984v34.857
				C205.359,150.978,200.882,155.455,195.359,155.455z"/>
		</g>
		<g>
			<path class="st22" d="M171.262,44.282c-4.122,1.247-7.113,4.951-7.113,9.329v61.291c0,4.378,2.991,8.083,7.113,9.329
				c4.122-1.246,7.113-4.951,7.113-9.329V53.611C178.375,49.233,175.384,45.529,171.262,44.282z"/>
		</g>
		<g>
			<path class="st22" d="M178.375,127.614c0,5.4,4.549,9.778,10.161,9.778h6.661c5.612,0,10.161-4.378,10.161-9.778v-17.017h-26.984
				V127.614z"/>
		</g>
		<g>
			<path class="st22" d="M205.359,128.592c0,5.4,4.549,9.778,10.161,9.778h6.661c5.612,0,10.161-4.378,10.161-9.778v-24.839h-26.984
				V128.592z"/>
		</g>
		<g>
			<path class="st7" d="M222.343,124.681h-6.984c-5.523,0-10-4.477-10-10V53.833c0-5.523,4.477-10,10-10h6.984
				c5.523,0,10,4.477,10,10v60.847C232.343,120.204,227.866,124.681,222.343,124.681z"/>
		</g>
		<g>
			<path class="st22" d="M188.536,145.677v-35.079h-10.161v35.079c0,5.4,4.549,9.778,10.161,9.778h6.661
				c0.598,0,1.18-0.06,1.75-0.155C192.171,154.501,188.536,150.502,188.536,145.677z"/>
		</g>
		<g>
			<path class="st7" d="M195.375,124.651h-6.984c-5.523,0-10-4.477-10-10V53.833c0-5.523,4.477-10,10-10h6.984
				c5.523,0,10,4.477,10,10v60.818C205.375,120.174,200.898,124.651,195.375,124.651z"/>
		</g>
		<g>
			<path class="st22" d="M198.262,44.282c-4.122,1.248-7.113,4.956-7.113,9.338v61.345c0,4.382,2.991,8.09,7.113,9.337
				c4.122-1.247,7.113-4.955,7.113-9.337V53.62C205.375,49.238,202.384,45.53,198.262,44.282z"/>
		</g>
	</g>
	<g>
		<path class="st5" d="M449.177,273.316H95.564H54.918c0,1.559,0.025,3.112,0.062,4.661c0.008,0.358,0.017,0.714,0.028,1.071
			c0.045,1.549,0.104,3.094,0.186,4.634c0.003,0.064,0.008,0.127,0.012,0.191c0.082,1.515,0.186,3.025,0.302,4.531
			c0.022,0.277,0.043,0.555,0.065,0.832c0.129,1.58,0.275,3.155,0.442,4.724c0.004,0.038,0.009,0.076,0.013,0.115
			c0.169,1.576,0.36,3.145,0.567,4.709c0.02,0.154,0.04,0.309,0.061,0.463c0.441,3.281,0.966,6.535,1.57,9.762
			c0.008,0.043,0.016,0.086,0.024,0.129c0.309,1.641,0.638,3.275,0.988,4.901c0,0,0,0,0,0.001l0,0
			c11.941,55.496,47.784,102.251,96.375,129.244v17.061c0,4.32,3.64,7.823,8.129,7.823h40.645c-4.489,0-8.129-3.502-8.129-7.823
			v-17.061c-48.59-26.994-84.433-73.749-96.375-129.244h344.977C447.685,300.904,449.177,287.282,449.177,273.316z"/>
	</g>
	<g>
		<path class="st2" d="M66.996,340.602c11.649,31.283,31.186,58.793,56.227,80.181h257.649
			c25.041-21.388,44.578-48.899,56.227-80.181H66.996z"/>
	</g>
	<g>
		<path class="st4" d="M107.642,340.602H66.996c11.649,31.283,31.186,58.793,56.227,80.181h40.645
			C138.827,399.395,119.291,371.885,107.642,340.602z"/>
	</g>
	<g>
		<path class="st2" d="M457.096,294.482H45.644c-4.418,0-8-3.582-8-8V260.15c0-4.418,3.582-8,8-8h411.452c4.418,0,8,3.582,8,8
			v26.332C465.096,290.9,461.515,294.482,457.096,294.482z"/>
	</g>
	<g>
		<path class="st4" d="M76.257,279.815c-4.49,0-8.129-3.503-8.129-7.823V252.15H45.773c-4.49,0-8.129,3.502-8.129,7.823v26.687
			c0,4.32,3.639,7.823,8.129,7.823h411.194c4.49,0,8.129-3.503,8.129-7.823v-6.845H76.257z"/>
	</g>
	<g>
		<path class="st3" d="M367.732,411.302c-1.791,0-3.563-0.799-4.746-2.324c-2.03-2.619-1.553-6.388,1.066-8.418
			c22.608-17.526,33.778-50.285,33.889-50.614c1.052-3.14,4.446-4.837,7.592-3.787c3.141,1.05,4.838,4.444,3.791,7.586
			c-0.494,1.481-12.387,36.506-37.92,56.299C370.311,410.892,369.017,411.302,367.732,411.302z"/>
	</g>
	<g>
		<path class="st3" d="M440.212,272.334h-78.58c-3.313,0-6-2.686-6-6s2.687-6,6-6h78.58c3.313,0,6,2.686,6,6
			S443.525,272.334,440.212,272.334z"/>
	</g>
	<g>
		<g>
			<ellipse class="st4" cx="164.149" cy="369.34" rx="16.188" ry="15.577"/>
		</g>
	</g>
	<g>
		<g>
			<circle class="st4" cx="201.483" cy="394.493" r="13.421"/>
		</g>
	</g>
</g>
</svg>
