<?xml version="1.0" encoding="utf-8"?>
<!-- Generator: Adobe Illustrator 22.1.0, SVG Export Plug-In . SVG Version: 6.00 Build 0)  -->
<svg version="1.1" id="Layer_1" xmlns="http://www.w3.org/2000/svg" xmlns:xlink="http://www.w3.org/1999/xlink" x="0px" y="0px"
	 viewBox="0 0 512 512" style="enable-background:new 0 0 512 512;" xml:space="preserve">
<style type="text/css">
	.st0{fill:#FFF9DC;}
	.st1{fill:#FFB74B;}
	.st2{fill:#FF624B;}
	.st3{fill:#FF9079;}
	.st4{fill:#FF4B34;}
	.st5{fill:#FFEACF;}
	.st6{fill:#FFA730;}
	.st7{fill:#FFD551;}
	.st8{fill:#FFF7CA;}
	.st9{fill:#E58D23;}
	.st10{fill:#BF6C0D;}
	.st11{fill:#FFD59A;}
	.st12{fill:#A56021;}
	.st13{fill:#EACF32;}
	.st14{fill:#CCC033;}
	.st15{fill:#FCE575;}
	.st16{fill:#AD9B18;}
	.st17{fill:#FFEEA4;}
	.st18{fill:#FFF4C1;}
	.st19{fill:#FFDF74;}
	.st20{fill:#FFC34C;}
	.st21{fill:#8C4C17;}
	.st22{fill:#F9BB32;}
	.st23{fill:#DB9C2E;}
	.st24{fill:#FCF9DE;}
	.st25{fill:#FFEA63;}
	.st26{fill:#99AF17;}
	.st27{fill:#FCDA4F;}
	.st28{fill:#FFECCD;}
	.st29{fill:#FFEDCB;}
	.st30{fill:#FFEBCD;}
	.st31{fill:#FFEBCE;}
	.st32{fill:#FFECCC;}
</style>
<g>
	<g>
		<g>
			<g>
				<path class="st9" d="M120.912,277.252c-15.233,21.756-24.42,49.694-24.483,80.186c-0.14,68.402,46.448,124.84,104.074,126.033
					c59.291,1.227,107.831-55.332,108.089-125.473c0.119-32.32-10.036-61.832-26.823-84.187
					c-13.579-18.082-14.517-44.795-2.782-64.646c11.335-19.174,17.873-42.637,17.535-67.94
					c-0.825-61.677-43.159-111.964-95.128-113.021c-54.171-1.102-98.514,50.579-98.75,114.667
					c-0.097,26.318,7.261,50.6,19.718,70.031C134.669,232.099,133.916,258.679,120.912,277.252z"/>
			</g>
			<g>
				<path class="st10" d="M128.007,367.437c0.063-30.492,9.25-58.43,24.483-80.186c13.004-18.573,13.757-45.153,1.45-64.349
					c-12.457-19.432-19.815-43.713-19.718-70.031c0.236-64.088,44.579-115.768,98.75-114.667c2.353,0.048,4.686,0.2,6.997,0.446
					c-11.795-6.451-24.848-10.167-38.575-10.446c-54.17-1.102-98.513,50.579-98.75,114.667c-0.097,26.319,7.261,50.6,19.718,70.031
					c12.307,19.196,11.554,45.776-1.45,64.349c-15.233,21.756-24.42,49.693-24.483,80.186
					c-0.133,64.722,41.573,118.724,94.878,125.358C153.997,463.163,127.902,418.655,128.007,367.437z"/>
			</g>
			<g>
				<path class="st6" d="M253.803,284.898c-1.706,0-3.401-0.724-4.588-2.13c-34.806-41.239-8.004-98.918-6.847-101.354
					c1.425-2.993,5.007-4.264,7.995-2.842c2.991,1.422,4.264,4.998,2.846,7.989l0,0c-0.25,0.528-24.604,53.182,5.176,88.467
					c2.138,2.532,1.817,6.318-0.715,8.455C256.544,284.434,255.17,284.898,253.803,284.898z"/>
			</g>
			<g>
				<path class="st6" d="M268.073,413.403c-0.936,0-1.884-0.219-2.771-0.682c-2.938-1.533-4.077-5.157-2.544-8.095
					c24.187-46.36-1.599-99.013-1.862-99.54c-1.481-2.961-0.285-6.566,2.675-8.05c2.962-1.485,6.562-0.293,8.049,2.664
					c1.19,2.368,28.851,58.582,1.777,110.476C272.327,412.229,270.237,413.403,268.073,413.403z"/>
			</g>
			<g>
				<g>
					<circle class="st10" cx="189.354" cy="83.534" r="16.888"/>
				</g>
			</g>
			<g>
				<g>
					<circle class="st10" cx="177.268" cy="137.562" r="16.888"/>
				</g>
			</g>
			<g>
				<g>
					<circle class="st10" cx="164.664" cy="414.199" r="16.888"/>
				</g>
			</g>
			<g>
				<g>
					<circle class="st10" cx="211.597" cy="438.781" r="16.888"/>
				</g>
			</g>
			<g>
				<g>
					<circle class="st10" cx="225.011" cy="113.275" r="16.888"/>
				</g>
			</g>
		</g>
		<g>
			<g>
				<g>
					<ellipse class="st10" cx="332.511" cy="412.2" rx="98.16" ry="71.613"/>
				</g>
				<g>
					<path class="st12" d="M274.351,422.2c0-39.551,43.948-71.613,98.16-71.613c3.753,0,7.455,0.159,11.099,0.458
						c-14.885-6.634-32.379-10.458-51.099-10.458c-54.212,0-98.16,32.062-98.16,71.613c0,36.812,38.076,67.132,87.062,71.154
						C293.19,470.776,274.351,448.094,274.351,422.2z"/>
				</g>
				<g>
					<path class="st9" d="M331.218,466.461c-9.718,0-16.103-1.376-16.515-1.467c-3.234-0.717-5.276-3.92-4.561-7.155
						c0.716-3.231,3.913-5.271,7.143-4.564c0.139,0.03,14.069,2.964,31.686-0.558c23.258-4.651,41.772-17.854,55.03-39.242
						c1.745-2.817,5.444-3.685,8.261-1.939c2.816,1.746,3.685,5.444,1.938,8.261c-18.912,30.511-44.919,41.199-63.405,44.791
						C343.503,466.005,336.809,466.461,331.218,466.461z"/>
				</g>
			</g>
		</g>
	</g>
	<g>
		<g>
			<path class="st0" d="M154.908,256.805c-28.615,0-51.895,23.28-51.895,51.895c0,28.615,23.28,51.896,51.895,51.896
				c28.616,0,51.896-23.281,51.896-51.896C206.804,280.085,183.524,256.805,154.908,256.805z"/>
		</g>
		<g>
			<path class="st4" d="M157.316,235.16c-42.541-1.358-77.307,33.408-75.949,75.949c1.23,38.525,32.607,69.903,71.133,71.133
				c42.541,1.358,77.307-33.408,75.949-75.949C227.219,267.767,195.842,236.389,157.316,235.16z M154.715,256.806
				c8.407-0.031,16.358,1.948,23.398,5.483c3.028,1.52,3.641,5.59,1.245,7.986l-62.876,62.876c-2.396,2.396-6.466,1.783-7.986-1.245
				c-3.534-7.04-5.514-14.99-5.483-23.396C103.115,280.207,126.413,256.909,154.715,256.806z M155.128,360.595
				c-8.399,0.035-16.344-1.936-23.381-5.46c-3.031-1.518-3.646-5.591-1.249-7.988l62.856-62.856c2.397-2.397,6.47-1.782,7.988,1.249
				c3.524,7.036,5.495,14.979,5.46,23.377C206.687,337.199,183.411,360.477,155.128,360.595z"/>
		</g>
		<g>
			<g>
				<path class="st5" d="M193.355,284.291l-62.856,62.856c-2.397,2.397-1.782,6.47,1.249,7.988c7.037,3.524,14.981,5.495,23.38,5.46
					c3.336-0.014,6.599-0.361,9.766-0.99c-4.628-0.909-9.045-2.417-13.146-4.471c-3.031-1.518-3.646-5.591-1.249-7.988
					l53.931-53.931c-0.832-2.654-1.858-5.224-3.087-7.677C199.825,282.509,195.753,281.894,193.355,284.291z"/>
			</g>
			<g>
				<path class="st5" d="M103.013,308.509c-0.03,8.406,1.949,16.356,5.484,23.396c1.52,3.028,5.59,3.641,7.986,1.245l8.919-8.919
					c-1.561-4.965-2.409-10.243-2.389-15.722c0.09-24.957,18.22-46.012,41.909-50.714c-3.304-0.649-6.713-1.002-10.207-0.989
					C126.412,256.909,103.115,280.207,103.013,308.509z"/>
			</g>
		</g>
	</g>
</g>
</svg>
