<?xml version="1.0" encoding="utf-8"?>
<!-- Generator: Adobe Illustrator 22.1.0, SVG Export Plug-In . SVG Version: 6.00 Build 0)  -->
<svg version="1.1" id="Layer_1" xmlns="http://www.w3.org/2000/svg" xmlns:xlink="http://www.w3.org/1999/xlink" x="0px" y="0px"
	 viewBox="0 0 512 512" style="enable-background:new 0 0 512 512;" xml:space="preserve">
<style type="text/css">
	.st0{fill:#FFF9DC;}
	.st1{fill:#FFB74B;}
	.st2{fill:#FF624B;}
	.st3{fill:#FF9079;}
	.st4{fill:#FF4B34;}
	.st5{fill:#FFEACF;}
	.st6{fill:#FFA730;}
	.st7{fill:#FFD551;}
	.st8{fill:#FFF7CA;}
	.st9{fill:#E58D23;}
	.st10{fill:#BF6C0D;}
	.st11{fill:#FFD59A;}
	.st12{fill:#A56021;}
	.st13{fill:#EACF32;}
	.st14{fill:#CCC033;}
	.st15{fill:#FCE575;}
	.st16{fill:#AD9B18;}
	.st17{fill:#FFEEA4;}
	.st18{fill:#FFF4C1;}
	.st19{fill:#FFDF74;}
	.st20{fill:#FFC34C;}
	.st21{fill:#8C4C17;}
	.st22{fill:#F9BB32;}
	.st23{fill:#DB9C2E;}
	.st24{fill:#FCF9DE;}
	.st25{fill:#FFEA63;}
	.st26{fill:#99AF17;}
	.st27{fill:#FCDA4F;}
	.st28{fill:#FFECCD;}
	.st29{fill:#FFEDCB;}
	.st30{fill:#FFEBCD;}
	.st31{fill:#FFEBCE;}
	.st32{fill:#FFECCC;}
</style>
<g>
	<g>
		<path class="st5" d="M212.815,84.511L46.931,371.83c-19.245,33.333,4.811,75,43.301,75H422c38.49,0,62.546-41.667,43.301-75
			L299.417,84.511C280.172,51.177,232.06,51.177,212.815,84.511z"/>
	</g>
	<g>
		<path class="st12" d="M353.736,452.794h-160.98c-4.418,0-8-3.582-8-8V303.839c0-11.046,8.954-20,20-20h136.98
			c11.046,0,20,8.954,20,20v140.955C361.736,449.212,358.154,452.794,353.736,452.794z"/>
	</g>
	<g>
		<path class="st10" d="M331.173,433.943c-3.313,0-6-2.687-6-6v-91.682c0-3.313,2.687-6,6-6s6,2.687,6,6v91.682
			C337.173,431.257,334.486,433.943,331.173,433.943z"/>
	</g>
	<g>
		<g>
			<circle class="st11" cx="265.154" cy="172.163" r="16.184"/>
		</g>
	</g>
	<g>
		<path class="st11" d="M96.338,372.306L262.772,84.035c4.642-8.041,10.983-14.112,18.185-18.249
			c-22.466-12.904-53.387-6.832-67.868,18.249L46.656,372.306c-19.123,33.122,4.781,74.524,43.026,74.524h49.683
			C101.119,446.83,77.215,405.428,96.338,372.306z"/>
	</g>
	<g>
		<g>
			<circle class="st11" cx="218.124" cy="243.927" r="16.184"/>
		</g>
	</g>
	<g>
		<g>
			<circle class="st11" cx="307.31" cy="235.206" r="16.184"/>
		</g>
	</g>
	<g>
		<g>
			<circle class="st11" cx="396.017" cy="385.213" r="16.184"/>
		</g>
	</g>
	<g>
		<g>
			<circle class="st11" cx="132.866" cy="400.498" r="16.184"/>
		</g>
	</g>
	<g>
		<path class="st21" d="M233.755,444.794V303.839c0-11.046,8.954-20,20-20h-49c-11.046,0-20,8.954-20,20v140.955
			c0,4.418,3.582,8,8,8h49C237.337,452.794,233.755,449.212,233.755,444.794z"/>
	</g>
</g>
</svg>
