<?xml version="1.0" encoding="utf-8"?>
<!-- Generator: Adobe Illustrator 22.1.0, SVG Export Plug-In . SVG Version: 6.00 Build 0)  -->
<svg version="1.1" id="Layer_1" xmlns="http://www.w3.org/2000/svg" xmlns:xlink="http://www.w3.org/1999/xlink" x="0px" y="0px"
	 viewBox="0 0 512 512" style="enable-background:new 0 0 512 512;" xml:space="preserve">
<style type="text/css">
	.st0{fill:#FFF9DC;}
	.st1{fill:#FFB74B;}
	.st2{fill:#FF624B;}
	.st3{fill:#FF9079;}
	.st4{fill:#FF4B34;}
	.st5{fill:#FFEACF;}
	.st6{fill:#FFA730;}
	.st7{fill:#FFD551;}
	.st8{fill:#FFF7CA;}
	.st9{fill:#E58D23;}
	.st10{fill:#BF6C0D;}
	.st11{fill:#FFD59A;}
	.st12{fill:#A56021;}
	.st13{fill:#EACF32;}
	.st14{fill:#CCC033;}
	.st15{fill:#FCE575;}
	.st16{fill:#AD9B18;}
	.st17{fill:#FFEEA4;}
	.st18{fill:#FFF4C1;}
	.st19{fill:#FFDF74;}
	.st20{fill:#FFC34C;}
	.st21{fill:#8C4C17;}
	.st22{fill:#F9BB32;}
	.st23{fill:#DB9C2E;}
	.st24{fill:#FCF9DE;}
	.st25{fill:#FFEA63;}
	.st26{fill:#99AF17;}
	.st27{fill:#FCDA4F;}
	.st28{fill:#FFECCD;}
	.st29{fill:#FFEDCB;}
	.st30{fill:#FFEBCD;}
	.st31{fill:#FFEBCE;}
	.st32{fill:#FFECCC;}
</style>
<g>
	<path class="st10" d="M428.934,204.859c4.283-10.324,6.58-21.204,6.58-32.446c0-66.608-80.371-120.604-179.514-120.604
		S76.487,105.805,76.487,172.413c0,11.242,2.297,22.122,6.58,32.446c32.197,108.812,150.464,131.169,171.346,134.296l-0.004,0.432
		c0,0,0.566-0.063,1.592-0.203c1.027,0.141,1.592,0.203,1.592,0.203l-0.004-0.432C278.469,336.028,396.737,313.671,428.934,204.859z
		"/>
	<path class="st1" d="M256,321.277c-10.433-1.646-41.91-7.768-74.496-25.393c-41.731-22.573-69.071-54.908-81.262-96.108
		l-0.269-0.907l-0.363-0.874c-3.459-8.338-5.213-16.945-5.213-25.582c0-26.059,15.859-51.065,44.655-70.412
		C170.038,81.184,211.57,69.72,256,69.72S341.963,81.184,372.947,102c28.796,19.347,44.655,44.353,44.655,70.412
		c0,8.637-1.754,17.244-5.214,25.582l-0.361,0.874l-0.269,0.908c-12.191,41.199-39.531,73.535-81.262,96.108
		C297.911,313.51,266.434,319.631,256,321.277z"/>
	<path class="st12" d="M279.882,334.546c-41.864-10.692-123.198-42.317-149.051-129.688c-4.283-10.324-6.58-21.204-6.58-32.446
		c0-61.167,67.78-111.692,155.631-119.539c-7.814-0.698-15.784-1.065-23.882-1.065c-99.143,0-179.513,53.996-179.513,120.604
		c0,11.242,2.297,22.122,6.58,32.446c32.197,108.812,150.464,131.169,171.346,134.296l-0.004,0.432c0,0,0.566-0.063,1.592-0.203
		c1.027,0.141,1.592,0.203,1.592,0.203l-0.004-0.432C261.703,338.539,269.609,337.17,279.882,334.546z"/>
	<path class="st23" d="M229.268,295.884c-41.731-22.573-69.071-54.908-81.262-96.108l-0.269-0.907l-0.363-0.874
		c-3.459-8.338-5.213-16.945-5.213-25.582c0-26.059,15.859-51.065,44.655-70.412c25.355-17.033,57.776-27.794,93.065-31.146
		C272.047,70.11,264.074,69.72,256,69.72c-44.43,0-85.963,11.464-116.947,32.28c-28.796,19.347-44.655,44.353-44.655,70.412
		c0,8.637,1.754,17.244,5.213,25.582l0.363,0.874l0.269,0.907c12.191,41.2,39.531,73.536,81.262,96.108
		c32.586,17.625,64.063,23.747,74.496,25.393c4.533-0.715,13.04-2.277,23.881-5.258
		C265.768,312.139,247.697,305.852,229.268,295.884z"/>
	<ellipse class="st10" cx="256" cy="339.587" rx="179.514" ry="42.325"/>
	<path class="st10" d="M256,460.192c99.143,0,179.514-53.996,179.514-120.604H76.486C76.486,406.195,156.857,460.192,256,460.192z"
		/>
	<path class="st20" d="M256,375.941c-47.503,0-92.096-4.346-125.566-12.237c-37.873-8.93-47.978-19.361-47.978-24.117
		c0-4.756,10.104-15.188,47.978-24.117c33.47-7.891,78.063-12.237,125.566-12.237c47.502,0,92.095,4.346,125.565,12.237
		c37.873,8.93,47.978,19.361,47.978,24.117c0,4.756-10.104,15.188-47.978,24.117C348.096,371.595,303.502,375.941,256,375.941z"/>
	<path class="st12" d="M124.25,339.587H76.486c0,66.608,80.371,120.604,179.514,120.604c8.098,0,16.069-0.367,23.882-1.065
		C192.031,451.28,124.25,400.754,124.25,339.587z"/>
	<path class="st22" d="M178.198,363.704c-37.873-8.93-47.978-19.361-47.978-24.117c0-4.756,10.104-15.188,47.978-24.117
		c27.79-6.552,63.258-10.65,101.684-11.855c-7.854-0.247-15.821-0.382-23.882-0.382c-47.503,0-92.096,4.346-125.566,12.237
		c-37.873,8.93-47.978,19.361-47.978,24.117c0,4.756,10.104,15.188,47.978,24.117c33.47,7.891,78.063,12.237,125.566,12.237
		c8.061,0,16.028-0.135,23.882-0.382C241.457,374.354,205.988,370.256,178.198,363.704z"/>
	<g>
		<path class="st15" d="M130.434,363.704c33.47,7.891,78.063,12.237,125.566,12.237c47.502,0,92.095-4.346,125.565-12.237
			c0.976-0.23,1.922-0.462,2.861-0.694c0.612-2.743,0.935-5.534,0.935-8.365c0-38.653-58.63-69.987-130.953-69.987
			c-72.324,0-130.953,31.334-130.953,69.987c0,2.537,0.259,5.043,0.752,7.51C126.197,362.676,128.265,363.193,130.434,363.704z"/>
	</g>
	<path class="st27" d="M171.219,366.586c0-38.653,58.629-69.987,130.953-69.987c10.48,0,20.67,0.662,30.439,1.905
		c-21.823-8.697-48.888-13.846-78.203-13.846c-72.324,0-130.953,31.334-130.953,69.987c0,2.537,0.259,5.043,0.752,7.51
		c1.991,0.52,4.058,1.037,6.228,1.549c12.31,2.902,26.135,5.32,41.046,7.224C171.314,369.491,171.219,368.045,171.219,366.586z"/>
	<g>
		<circle class="st12" cx="203.812" cy="405.512" r="20.166"/>
	</g>
	<path class="st23" d="M320.098,435.584c-3.075,0-5.693-2.351-5.97-5.472c-0.292-3.301,2.147-6.213,5.448-6.505
		c35.817-3.169,68.077-35.068,68.398-35.39c2.344-2.345,6.144-2.346,8.485-0.003c2.344,2.343,2.345,6.142,0.003,8.485
		c-1.439,1.44-35.713,35.312-75.83,38.86C320.453,435.576,320.274,435.584,320.098,435.584z"/>
	<g>
		<circle class="st23" cx="173.607" cy="170.871" r="20.166"/>
	</g>
	<g>
		<circle class="st23" cx="213.949" cy="118.927" r="20.166"/>
	</g>
	<path class="st24" d="M368.592,359.322c-2.801,0-5.306-1.972-5.877-4.824c-6.292-31.458-51.447-39.97-51.903-40.052
		c-3.261-0.589-5.427-3.711-4.837-6.972s3.71-5.428,6.972-4.837c2.188,0.396,53.661,10.135,61.536,49.507
		c0.649,3.249-1.458,6.41-4.707,7.061C369.378,359.284,368.982,359.322,368.592,359.322z"/>
	<path class="st20" d="M371.597,242.809c-1.461,0-2.925-0.53-4.08-1.602c-2.429-2.254-2.571-6.05-0.317-8.479
		c17.999-19.4,25.946-38.696,23.622-57.351c-3.714-29.801-32.623-48.847-32.914-49.035c-2.778-1.8-3.578-5.512-1.783-8.293
		c1.796-2.781,5.499-3.584,8.283-1.794c1.38,0.888,33.841,22.145,38.309,57.536c2.824,22.368-6.165,44.943-26.72,67.099
		C374.814,242.164,373.207,242.809,371.597,242.809z"/>
</g>
</svg>
