<?xml version="1.0" encoding="utf-8"?>
<!-- Generator: Adobe Illustrator 22.1.0, SVG Export Plug-In . SVG Version: 6.00 Build 0)  -->
<svg version="1.1" id="Layer_1" xmlns="http://www.w3.org/2000/svg" xmlns:xlink="http://www.w3.org/1999/xlink" x="0px" y="0px"
	 viewBox="0 0 512 512" style="enable-background:new 0 0 512 512;" xml:space="preserve">
<style type="text/css">
	.st0{fill:#FFF9DC;}
	.st1{fill:#FFB74B;}
	.st2{fill:#FF624B;}
	.st3{fill:#FF9079;}
	.st4{fill:#FF4B34;}
	.st5{fill:#FFEACF;}
	.st6{fill:#FFA730;}
	.st7{fill:#FFD551;}
	.st8{fill:#FFF7CA;}
	.st9{fill:#E58D23;}
	.st10{fill:#BF6C0D;}
	.st11{fill:#FFD59A;}
	.st12{fill:#A56021;}
	.st13{fill:#EACF32;}
	.st14{fill:#CCC033;}
	.st15{fill:#FCE575;}
	.st16{fill:#AD9B18;}
	.st17{fill:#FFEEA4;}
	.st18{fill:#FFF4C1;}
	.st19{fill:#FFDF74;}
	.st20{fill:#FFC34C;}
	.st21{fill:#8C4C17;}
	.st22{fill:#F9BB32;}
	.st23{fill:#DB9C2E;}
	.st24{fill:#FCF9DE;}
	.st25{fill:#FFEA63;}
	.st26{fill:#99AF17;}
	.st27{fill:#FCDA4F;}
	.st28{fill:#FFECCD;}
	.st29{fill:#FFEDCB;}
	.st30{fill:#FFEBCD;}
	.st31{fill:#FFEBCE;}
	.st32{fill:#FFECCC;}
</style>
<g>
	<g>
		<path class="st1" d="M434.948,347.235H117.052c-11.046,0-20-8.954-20-20v-20c0-16.569,13.431-30,30-30h297.896
			c16.569,0,30,13.431,30,30v20C454.948,338.281,445.994,347.235,434.948,347.235z"/>
	</g>
	<g>
		<g>
			<path class="st7" d="M272.094,258.42h-49.948c-9.941,0-18-8.059-18-18v-19.6c0-9.941,8.059-18,18-18h49.948
				c9.941,0,18,8.059,18,18v19.6C290.094,250.361,282.035,258.42,272.094,258.42z"/>
		</g>
		<g>
			<path class="st20" d="M239.146,240.419v-19.6c0-9.94,8.059-18,18-18h-35c-9.941,0-18,8.06-18,18v19.6c0,9.941,8.059,18,18,18h35
				C247.205,258.419,239.146,250.361,239.146,240.419z"/>
		</g>
	</g>
	<g>
		<path class="st7" d="M296.472,258.419h-34.369v-24.595h34.369c6.792,0,12.298,5.506,12.298,12.298v0
			C308.769,252.914,303.263,258.419,296.472,258.419z"/>
	</g>
	<g>
		<g>
			<path class="st18" d="M424.948,465.935H87.052c-5.523,0-10-4.477-10-10v-22.5h357.896v22.5
				C434.948,461.458,430.471,465.935,424.948,465.935z"/>
		</g>
		<g>
			<path class="st11" d="M86.621,451.635h348.327v-18.2H77.052v19.5c0,7.18,4.284,13,9.569,13V451.635z"/>
		</g>
		<g>
			<path class="st18" d="M467.564,439.535H44.436c-5.523,0-10-4.477-10-10v-8.266c0-5.523,4.477-10,10-10h423.128
				c5.523,0,10,4.477,10,10v8.266C477.564,435.058,473.087,439.535,467.564,439.535z"/>
		</g>
	</g>
	<g>
		<path class="st1" d="M415.384,412.749H97.488c-11.046,0-20-8.954-20-20v-19.514c0-16.569,13.431-30,30-30h297.896
			c16.569,0,30,13.431,30,30v19.514C435.384,403.795,426.43,412.749,415.384,412.749z"/>
	</g>
	<g>
		<path class="st23" d="M137.488,398.749c-11.046,0-20-8.955-20-20v-19.514c0-5.884,1.701-11.368,4.628-16h-14.628
			c-16.569,0-30,13.432-30,30v19.514c0,11.045,8.954,20,20,20h317.896c8.955,0,16.533-5.886,19.082-14H137.488z"/>
	</g>
	<g>
		<path class="st23" d="M157.052,333.235c-11.046,0-20-8.954-20-20v-20c0-5.884,1.701-11.368,4.628-16h-14.628
			c-16.569,0-30,13.432-30,30v20c0,11.046,8.954,20,20,20h317.896c8.955,0,16.533-5.886,19.082-14H157.052z"/>
	</g>
	<g>
		<path class="st19" d="M462.679,272.982c-0.99-11.376-10.605-20.381-22.227-20.381H107.086c-12.274,0-22.317,10.042-22.317,22.317
			v83.478c0,9.16,7.426,16.586,16.587,16.586h0c9.16,0,16.587-7.426,16.587-16.586v-61.161h37.667v29.447
			c0,9.161,7.426,16.586,16.587,16.586s16.586-7.426,16.586-16.586v-29.447h240.812v1.447c0,9.161,7.426,16.587,16.587,16.587
			s16.587-7.426,16.587-16.587v-25.699H462.679z"/>
	</g>
	<g>
		<g>
			<path class="st7" d="M99.769,358.396v-83.478c0-12.274,10.042-22.317,22.317-22.317h-15c-12.274,0-22.317,10.042-22.317,22.317
				v83.478c0,9.16,7.426,16.586,16.587,16.586h0c2.702,0,5.246-0.66,7.5-1.806C103.468,370.437,99.769,364.854,99.769,358.396z"/>
		</g>
		<g>
			<path class="st7" d="M444.596,298.682v-1.447h-15v1.447c0,9.161,7.426,16.587,16.587,16.587c2.702,0,5.246-0.66,7.5-1.806
				C448.295,310.723,444.596,305.14,444.596,298.682z"/>
		</g>
		<g>
			<path class="st7" d="M170.61,326.682v-29.447h-15v29.447c0,9.161,7.426,16.586,16.587,16.586c2.702,0,5.246-0.66,7.5-1.806
				C174.309,338.722,170.61,333.14,170.61,326.682z"/>
		</g>
	</g>
	<g>
		<g>
			<circle class="st23" cx="137.163" cy="365.778" r="13.118"/>
		</g>
	</g>
	<g>
		<path class="st20" d="M421.169,395.181c-0.228,0-0.458-0.014-0.691-0.04c-3.292-0.378-5.655-3.353-5.277-6.645
			c1.001-8.731-0.39-15.199-4.135-19.227c-4.984-5.358-13.008-5.098-13.093-5.086c-3.3,0.143-6.104-2.409-6.265-5.702
			s2.344-6.098,5.636-6.281c0.549-0.038,13.511-0.642,22.385,8.765c6.334,6.715,8.822,16.438,7.394,28.898
			C426.772,392.923,424.177,395.18,421.169,395.181z"/>
	</g>
	<g>
		<g>
			<circle class="st23" cx="175.519" cy="381.419" r="13.118"/>
		</g>
	</g>
	<g>
		<g>
			<path class="st5" d="M456.733,122.828H254.685V94.98h202.048c5.523,0,10,4.477,10,10v7.848
				C466.733,118.351,462.256,122.828,456.733,122.828z"/>
		</g>
		<g>
			<path class="st11" d="M456.662,114.638H287.803c-4.45,0-8.057-2.934-8.057-6.552V94.98h-25.062v19.657v8.191h25.062h176.915
				c5.562,0,10.071-3.667,10.071-8.191v-8.191C466.733,110.971,462.224,114.638,456.662,114.638z"/>
		</g>
		<g>
			<path class="st5" d="M247.106,143.735h-76.843V74.074h76.843c9.941,0,18,8.059,18,18v33.661
				C265.106,135.676,257.047,143.735,247.106,143.735z"/>
		</g>
		<g>
			<path class="st24" d="M254.65,113.08c-0.1,0-0.2-0.002-0.3-0.007c-3.31-0.163-5.86-2.979-5.697-6.288
				c0.224-4.553-0.734-7.97-2.848-10.154c-3.271-3.382-8.643-3.336-8.709-3.338c-3.278,0.077-6.062-2.48-6.175-5.793
				c-0.113-3.312,2.506-6.089,5.818-6.201c1.07-0.053,10.656-0.155,17.561,6.854c4.604,4.675,6.737,11.142,6.338,19.222
				C260.48,110.584,257.829,113.08,254.65,113.08z"/>
		</g>
	</g>
	<g>
		<path class="st1" d="M203.748,166.935h-50c-11.046,0-20-8.954-20-20v-65.59c0-11.046,8.954-20,20-20h50c11.046,0,20,8.954,20,20
			v65.59C223.748,157.981,214.794,166.935,203.748,166.935z"/>
	</g>
	<g>
		<path class="st23" d="M165.748,146.935v-65.59c0-11.044,8.953-19.999,19.998-20h-31.998c-11.046,0-20,8.955-20,20v65.59
			c0,11.046,8.954,20,20,20h32C174.703,166.935,165.748,157.981,165.748,146.935z"/>
	</g>
	<g>
		<path class="st20" d="M191.5,162.354c-3.472,0.001-7.228-0.53-11.26-1.593c-3.204-0.845-5.117-4.127-4.272-7.331
			c0.845-3.205,4.126-5.118,7.331-4.272c7.502,1.977,13.145,1.491,16.767-1.447c5.221-4.234,5.986-13.408,5.843-16.288
			c-0.165-3.31,2.384-6.126,5.694-6.291c3.31-0.195,6.126,2.384,6.292,5.693c0.035,0.702,0.73,17.285-10.27,26.206
			C203.252,160.576,197.854,162.354,191.5,162.354z"/>
	</g>
	<g>
		<g>
			<path class="st19" d="M208.412,90.533h-62.137c-12.279,0-22.234-9.954-22.234-22.234v0c0-12.279,9.954-22.234,22.234-22.234
				h62.137c12.279,0,22.234,9.954,22.234,22.234v0C230.646,80.578,220.692,90.533,208.412,90.533z"/>
		</g>
		<g>
			<path class="st19" d="M139.826,131.123L139.826,131.123c-8.718,0-15.785-7.067-15.785-15.785v-47.04h31.569v47.04
				C155.61,124.056,148.543,131.123,139.826,131.123z"/>
		</g>
	</g>
	<g>
		<path class="st19" d="M208.412,46.065h-62.137c-12.28,0-22.234,9.954-22.234,22.234l0,0v47.04c0,8.718,7.067,15.785,15.785,15.785
			l0,0c8.718,0,15.785-7.067,15.785-15.785V90.533h52.802c12.28,0,22.234-9.955,22.234-22.234l0,0
			C230.646,56.019,220.692,46.065,208.412,46.065z"/>
	</g>
	<g>
		<path class="st7" d="M146.041,115.338v-47.04c0-12.28,9.954-22.234,22.234-22.234h-22c-12.28,0-22.234,9.954-22.234,22.234v47.04
			c0,8.718,7.067,15.785,15.785,15.785c4.28,0,8.157-1.71,11-4.477C147.878,123.779,146.041,119.776,146.041,115.338z"/>
	</g>
</g>
</svg>
