<?xml version="1.0" encoding="utf-8"?>
<!-- Generator: Adobe Illustrator 22.1.0, SVG Export Plug-In . SVG Version: 6.00 Build 0)  -->
<svg version="1.1" id="Layer_1" xmlns="http://www.w3.org/2000/svg" xmlns:xlink="http://www.w3.org/1999/xlink" x="0px" y="0px"
	 viewBox="0 0 512 512" style="enable-background:new 0 0 512 512;" xml:space="preserve">
<style type="text/css">
	.st0{fill:#FFF9DC;}
	.st1{fill:#FFB74B;}
	.st2{fill:#FF624B;}
	.st3{fill:#FF9079;}
	.st4{fill:#FF4B34;}
	.st5{fill:#FFEACF;}
	.st6{fill:#FFA730;}
	.st7{fill:#FFD551;}
	.st8{fill:#FFF7CA;}
	.st9{fill:#E58D23;}
	.st10{fill:#BF6C0D;}
	.st11{fill:#FFD59A;}
	.st12{fill:#A56021;}
	.st13{fill:#EACF32;}
	.st14{fill:#CCC033;}
	.st15{fill:#FCE575;}
	.st16{fill:#AD9B18;}
	.st17{fill:#FFEEA4;}
	.st18{fill:#FFF4C1;}
	.st19{fill:#FFDF74;}
	.st20{fill:#FFC34C;}
	.st21{fill:#8C4C17;}
	.st22{fill:#F9BB32;}
	.st23{fill:#DB9C2E;}
	.st24{fill:#FCF9DE;}
	.st25{fill:#FFEA63;}
	.st26{fill:#99AF17;}
	.st27{fill:#FCDA4F;}
	.st28{fill:#FFECCD;}
	.st29{fill:#FFEDCB;}
	.st30{fill:#FFEBCD;}
	.st31{fill:#FFEBCE;}
	.st32{fill:#FFECCC;}
</style>
<g>
	<g>
		<path class="st25" d="M75.889,321.329l-0.016,0.016l199.152,66.106l142.61,47.338c25.13,8.341,46.115-12.644,37.774-37.774
			l-47.338-142.61L342.063,55.552c-1.348-5.143-3.707-9.51-7.155-12.958c-26.915-26.915-109.547,12.078-184.564,87.095
			S36.335,287.337,63.25,314.253C66.627,317.63,70.882,319.968,75.889,321.329z"/>
	</g>
	<g>
		<path class="st7" d="M455.066,395.984c-5.31,1.126-11.243,0.858-17.432-1.196l-142.61-47.338L95.873,281.344l0.016-0.015
			c-5.006-1.361-9.261-3.699-12.638-7.076c-11.455-11.455-10.965-33.005-0.848-59.762c-27.117,44.659-35.907,83.006-19.152,99.762
			c3.377,3.377,7.632,5.715,12.638,7.076l-0.016,0.015l199.151,66.106l142.61,47.338c25.13,8.341,46.115-12.644,37.774-37.773
			L455.066,395.984z"/>
	</g>
	<g>
		<path class="st25" d="M181.835,407.924L181.835,407.924c-15.188,0-27.5-12.312-27.5-27.5v-112.5h55v112.5
			C209.335,395.612,197.023,407.924,181.835,407.924z"/>
	</g>
	<g>
		<path class="st25" d="M306.335,477.924L306.335,477.924c-15.188,0-27.5-12.312-27.5-27.5v-112.5h55v112.5
			C333.835,465.612,321.523,477.924,306.335,477.924z"/>
	</g>
	<g>
		<path class="st25" d="M356.388,445.612h-0.003c-12.454,0-22.55-10.096-22.55-22.55v-92.256h45.103v92.256
			C378.938,435.516,368.842,445.612,356.388,445.612z"/>
	</g>
	<g>
		<path class="st7" d="M342.585,57.122c-37.333-1.404-102.221,35.548-162.24,95.567c-65.708,65.708-103.776,137.257-94.124,172.09
			l50.527,16.772c9.71-37.899,43.426-90.46,92.712-139.747c45.685-45.686,94.181-77.986,131.209-90.199L342.585,57.122z"/>
	</g>
	<g>
		<g>
			<path class="st23" d="M75.873,321.344l28.502,9.461c4.652-38.237,40.237-97.152,95.086-152.001
				c54.827-54.827,113.717-90.404,151.954-95.08l-9.352-28.173c-1.348-5.143-3.707-9.51-7.155-12.958
				c-26.915-26.915-109.547,12.078-184.564,87.095S36.335,287.337,63.25,314.253c3.377,3.377,7.632,5.715,12.639,7.076
				L75.873,321.344z"/>
		</g>
	</g>
	<g>
		<circle class="st20" cx="238.074" cy="274.52" r="35"/>
	</g>
	<g>
		<circle class="st2" cx="248.074" cy="264.52" r="35"/>
	</g>
	<g>
		<path class="st4" d="M258.074,289.52c-19.33,0-35-15.67-35-35c0-7.107,2.124-13.715,5.764-19.236
			c-9.495,6.26-15.764,17.013-15.764,29.236c0,19.33,15.67,35,35,35c12.223,0,22.976-6.27,29.236-15.764
			C271.789,287.396,265.181,289.52,258.074,289.52z"/>
	</g>
	<g>
		<circle class="st7" cx="362.67" cy="314.52" r="35"/>
	</g>
	<g>
		<circle class="st2" cx="372.67" cy="304.52" r="35"/>
	</g>
	<g>
		<path class="st4" d="M382.67,329.52c-19.33,0-35-15.67-35-35c0-7.107,2.124-13.715,5.764-19.236
			c-9.495,6.26-15.764,17.013-15.764,29.236c0,19.33,15.67,35,35,35c12.223,0,22.976-6.27,29.236-15.764
			C396.385,327.396,389.777,329.52,382.67,329.52z"/>
	</g>
	<g>
		<circle class="st20" cx="302.282" cy="165.991" r="35"/>
	</g>
	<g>
		<circle class="st2" cx="312.282" cy="155.991" r="35"/>
	</g>
	<g>
		<path class="st4" d="M291.282,165.991c0-19.33,15.67-35,35-35c4.484,0,8.766,0.852,12.706,2.389
			c-6.42-7.575-15.999-12.389-26.706-12.389c-19.33,0-35,15.67-35,35c0,14.846,9.248,27.524,22.294,32.611
			C294.406,182.502,291.282,174.614,291.282,165.991z"/>
	</g>
	<g>
		<path class="st7" d="M376.897,241.359l-39.658,15.28c-4.123,1.589-8.753-0.466-10.341-4.589l-6.214-16.127
			c-1.589-4.123,0.466-8.753,4.589-10.341l39.658-15.28c4.123-1.588,8.753,0.466,10.341,4.589l6.214,16.127
			C383.075,235.141,381.02,239.771,376.897,241.359z"/>
	</g>
	<g>
		<path class="st26" d="M382.897,232.359l-39.658,15.28c-4.123,1.588-8.753-0.466-10.341-4.589l-6.214-16.127
			c-1.589-4.123,0.466-8.753,4.589-10.341l39.658-15.28c4.123-1.588,8.753,0.466,10.341,4.589l6.214,16.127
			C389.075,226.141,387.02,230.771,382.897,232.359z"/>
	</g>
	<g>
		<circle class="st10" cx="302.282" cy="68.299" r="16.888"/>
	</g>
	<g>
		<circle class="st10" cx="256.001" cy="85.186" r="16.888"/>
	</g>
	<g>
		<g>
			<path class="st10" d="M95.873,281.344l0.016-0.015c-5.006-1.361-9.261-3.699-12.638-7.076
				c-11.455-11.455-10.965-33.005-0.848-59.762c-27.117,44.659-35.907,83.006-19.152,99.762c3.377,3.377,7.632,5.715,12.638,7.076
				l-0.016,0.015l28.502,9.461c1.485-12.207,6.136-26.526,13.546-42.143L95.873,281.344z"/>
		</g>
	</g>
</g>
</svg>
