<?xml version="1.0" encoding="utf-8"?>
<!-- Generator: Adobe Illustrator 22.1.0, SVG Export Plug-In . SVG Version: 6.00 Build 0)  -->
<svg version="1.1" id="Layer_1" xmlns="http://www.w3.org/2000/svg" xmlns:xlink="http://www.w3.org/1999/xlink" x="0px" y="0px"
	 viewBox="0 0 512 512" style="enable-background:new 0 0 512 512;" xml:space="preserve">
<style type="text/css">
	.st0{fill:#FFF9DC;}
	.st1{fill:#FFB74B;}
	.st2{fill:#FF624B;}
	.st3{fill:#FF9079;}
	.st4{fill:#FF4B34;}
	.st5{fill:#FFEACF;}
	.st6{fill:#FFA730;}
	.st7{fill:#FFD551;}
	.st8{fill:#FFF7CA;}
	.st9{fill:#E58D23;}
	.st10{fill:#BF6C0D;}
	.st11{fill:#FFD59A;}
	.st12{fill:#A56021;}
	.st13{fill:#EACF32;}
	.st14{fill:#CCC033;}
	.st15{fill:#FCE575;}
	.st16{fill:#AD9B18;}
	.st17{fill:#FFEEA4;}
	.st18{fill:#FFF4C1;}
	.st19{fill:#FFDF74;}
	.st20{fill:#FFC34C;}
	.st21{fill:#8C4C17;}
	.st22{fill:#F9BB32;}
	.st23{fill:#DB9C2E;}
	.st24{fill:#FCF9DE;}
	.st25{fill:#FFEA63;}
	.st26{fill:#99AF17;}
	.st27{fill:#FCDA4F;}
	.st28{fill:#FFECCD;}
	.st29{fill:#FFEDCB;}
	.st30{fill:#FFEBCD;}
	.st31{fill:#FFEBCE;}
	.st32{fill:#FFECCC;}
</style>
<g>
	<g>
		<g>
			<ellipse class="st7" cx="238.172" cy="247.421" rx="177.074" ry="126.553"/>
		</g>
		<g>
			<g>
				<path class="st24" d="M151.194,206.301c0.071-0.769,0.112-1.548,0.112-2.336c0-13.862-11.237-25.099-25.099-25.099
					c-13.055,0-23.778,9.968-24.982,22.707c-9.702,3.471-16.645,12.741-16.645,23.635c0,13.862,11.237,25.099,25.099,25.099
					c4.778,0,9.243-1.336,13.045-3.653c4.554,4.632,10.888,7.508,17.897,7.508c13.862,0,25.099-11.237,25.099-25.098
					C165.719,218.981,159.771,210.292,151.194,206.301z"/>
			</g>
			<g>
				<path class="st18" d="M159.444,244.751c-7.009,0-13.343-2.876-17.897-7.508c-3.802,2.317-8.267,3.653-13.045,3.653
					c-13.862,0-25.099-11.237-25.099-25.099c0-10.895,6.943-20.165,16.645-23.635c0.473-4.999,2.416-9.566,5.385-13.277
					c-12.702,0.386-23.028,10.203-24.209,22.689c-9.702,3.471-16.645,12.741-16.645,23.635c0,13.862,11.237,25.099,25.099,25.099
					c4.778,0,9.243-1.336,13.045-3.653c4.554,4.632,10.888,7.508,17.897,7.508c7.933,0,15.002-3.685,19.602-9.432
					C159.963,244.739,159.705,244.751,159.444,244.751z"/>
			</g>
			<g>
				<g>
					<circle class="st18" cx="133.835" cy="205.421" r="10.038"/>
				</g>
			</g>
		</g>
		<g>
			<g>
				<path class="st24" d="M175.343,130.835c-0.271-0.723-0.573-1.442-0.916-2.151c-6.035-12.479-21.043-17.703-33.522-11.668
					c-11.753,5.684-17.066,19.326-12.605,31.319c-7.223,7.348-9.438,18.717-4.695,28.524c6.035,12.479,21.043,17.703,33.522,11.668
					c4.301-2.08,7.74-5.227,10.153-8.968c6.116,2.188,13.071,2.018,19.38-1.033c12.479-6.035,17.703-21.043,11.668-33.522
					C193.94,135.926,184.802,130.694,175.343,130.835z"/>
			</g>
			<g>
				<path class="st18" d="M199.51,161.857c-6.31,3.051-13.264,3.22-19.38,1.033c-2.414,3.741-5.852,6.888-10.153,8.968
					c-12.479,6.035-27.487,0.811-33.522-11.668c-4.743-9.808-2.528-21.176,4.695-28.524c-1.751-4.706-1.99-9.664-0.932-14.297
					c-11.267,5.877-16.289,19.211-11.916,30.966c-7.223,7.348-9.438,18.717-4.695,28.524c6.035,12.479,21.043,17.703,33.522,11.668
					c4.301-2.08,7.74-5.227,10.153-8.968c6.116,2.188,13.071,2.018,19.38-1.033c7.142-3.454,11.902-9.849,13.54-17.025
					C199.972,161.621,199.745,161.744,199.51,161.857z"/>
			</g>
			<g>
				<g>
					<circle class="st18" cx="159.333" cy="137.599" r="10.038"/>
				</g>
			</g>
		</g>
		<g>
			<g>
				<path class="st24" d="M197.961,243.914c0.769,0.071,1.548,0.112,2.336,0.112c13.862,0,25.099-11.237,25.099-25.099
					c0-13.055-9.968-23.778-22.707-24.982c-3.471-9.702-12.741-16.645-23.635-16.645c-13.862,0-25.099,11.237-25.099,25.099
					c0,4.778,1.336,9.243,3.653,13.045c-4.632,4.554-7.508,10.888-7.508,17.897c0,13.862,11.237,25.099,25.098,25.099
					C185.281,258.438,193.97,252.49,197.961,243.914z"/>
			</g>
			<g>
				<path class="st18" d="M159.512,252.164c0-7.009,2.876-13.343,7.508-17.897c-2.317-3.802-3.653-8.267-3.653-13.045
					c0-13.862,11.237-25.099,25.099-25.099c10.895,0,20.165,6.943,23.635,16.645c4.999,0.473,9.566,2.416,13.277,5.385
					c-0.386-12.702-10.203-23.028-22.689-24.209c-3.471-9.702-12.741-16.645-23.635-16.645c-13.862,0-25.099,11.237-25.099,25.099
					c0,4.778,1.336,9.243,3.653,13.045c-4.632,4.554-7.508,10.888-7.508,17.897c0,7.933,3.685,15.002,9.432,19.602
					C159.524,252.682,159.512,252.425,159.512,252.164z"/>
			</g>
			<g>
				<g>
					<circle class="st18" cx="198.842" cy="226.555" r="10.038"/>
				</g>
			</g>
		</g>
		<g>
			<g>
				<path class="st24" d="M241.293,170.837c0.769,0.071,1.548,0.112,2.336,0.112c13.862,0,25.099-11.237,25.099-25.099
					c0-13.055-9.968-23.778-22.707-24.982c-3.471-9.702-12.741-16.645-23.635-16.645c-13.862,0-25.099,11.237-25.099,25.099
					c0,4.778,1.336,9.243,3.653,13.045c-4.632,4.554-7.508,10.888-7.508,17.897c0,13.862,11.237,25.099,25.099,25.099
					C228.613,185.362,237.302,179.413,241.293,170.837z"/>
			</g>
			<g>
				<path class="st18" d="M202.844,179.087c0-7.009,2.876-13.343,7.508-17.897c-2.317-3.802-3.653-8.267-3.653-13.045
					c0-13.862,11.237-25.099,25.099-25.099c10.895,0,20.165,6.943,23.635,16.645c4.999,0.473,9.566,2.416,13.277,5.385
					c-0.386-12.702-10.203-23.028-22.689-24.209c-3.471-9.702-12.741-16.645-23.635-16.645c-13.862,0-25.099,11.237-25.099,25.099
					c0,4.778,1.336,9.243,3.653,13.045c-4.632,4.554-7.508,10.888-7.508,17.897c0,7.933,3.685,15.002,9.432,19.602
					C202.856,179.606,202.844,179.348,202.844,179.087z"/>
			</g>
			<g>
				<g>
					<circle class="st18" cx="242.174" cy="153.478" r="10.038"/>
				</g>
			</g>
		</g>
		<g>
			<g>
				<path class="st24" d="M259.038,237.383c0.769,0.071,1.548,0.112,2.336,0.112c13.862,0,25.099-11.237,25.099-25.099
					c0-13.055-9.968-23.778-22.707-24.982c-3.471-9.702-12.741-16.645-23.635-16.645c-13.862,0-25.099,11.237-25.099,25.099
					c0,4.778,1.336,9.243,3.653,13.045c-4.632,4.554-7.508,10.888-7.508,17.897c0,13.862,11.237,25.099,25.099,25.099
					C246.358,251.908,255.047,245.959,259.038,237.383z"/>
			</g>
			<g>
				<path class="st18" d="M220.588,245.633c0-7.009,2.876-13.343,7.508-17.897c-2.317-3.802-3.653-8.267-3.653-13.045
					c0-13.862,11.237-25.099,25.099-25.099c10.895,0,20.165,6.943,23.635,16.645c4.999,0.473,9.566,2.416,13.277,5.385
					c-0.386-12.702-10.203-23.028-22.689-24.209c-3.471-9.702-12.741-16.645-23.635-16.645c-13.862,0-25.099,11.237-25.099,25.099
					c0,4.778,1.336,9.243,3.653,13.045c-4.632,4.554-7.508,10.888-7.508,17.897c0,7.933,3.685,15.002,9.432,19.602
					C220.6,246.152,220.588,245.894,220.588,245.633z"/>
			</g>
			<g>
				<g>
					<circle class="st18" cx="259.918" cy="220.024" r="10.038"/>
				</g>
			</g>
		</g>
		<g>
			<g>
				<path class="st24" d="M345.002,140.227c0.464-0.618,0.907-1.259,1.32-1.93c7.268-11.804,3.591-27.264-8.213-34.532
					c-11.117-6.845-25.474-3.979-33.179,6.238c-10.081-2.131-20.854,2.122-26.566,11.399c-7.268,11.804-3.591,27.264,8.213,34.532
					c4.068,2.505,8.571,3.709,13.023,3.729c1.449,6.332,5.335,12.102,11.303,15.776c11.804,7.268,27.264,3.591,34.532-8.213
					C350.723,158.64,350.213,148.122,345.002,140.227z"/>
			</g>
			<g>
				<path class="st18" d="M331.868,177.293c-5.968-3.675-9.855-9.445-11.303-15.776c-4.452-0.02-8.955-1.224-13.023-3.729
					c-11.804-7.268-15.481-22.728-8.213-34.532c5.712-9.277,16.485-13.53,26.566-11.399c3.023-4.009,7.073-6.88,11.547-8.482
					c-11.018-6.331-24.959-3.386-32.511,6.627c-10.081-2.131-20.854,2.122-26.566,11.399c-7.268,11.804-3.591,27.264,8.213,34.532
					c4.068,2.505,8.571,3.709,13.023,3.729c1.449,6.332,5.335,12.102,11.303,15.776c6.755,4.16,14.707,4.728,21.636,2.246
					C332.316,177.555,332.091,177.43,331.868,177.293z"/>
			</g>
			<g>
				<g>
					<circle class="st18" cx="330.683" cy="130.376" r="10.038"/>
				</g>
			</g>
		</g>
		<g>
			<g>
				<path class="st24" d="M316.589,211.029c0.769,0.071,1.548,0.112,2.336,0.112c13.862,0,25.099-11.237,25.099-25.099
					c0-13.055-9.968-23.778-22.707-24.982c-3.471-9.702-12.741-16.645-23.635-16.645c-13.862,0-25.099,11.237-25.099,25.099
					c0,4.778,1.336,9.243,3.653,13.045c-4.632,4.554-7.508,10.888-7.508,17.897c0,13.862,11.237,25.099,25.099,25.099
					C303.909,225.554,312.598,219.606,316.589,211.029z"/>
			</g>
			<g>
				<path class="st18" d="M278.14,219.28c0-7.009,2.876-13.343,7.508-17.897c-2.317-3.802-3.653-8.267-3.653-13.045
					c0-13.862,11.237-25.099,25.099-25.099c10.895,0,20.165,6.943,23.635,16.645c4.999,0.473,9.566,2.416,13.277,5.385
					c-0.386-12.702-10.203-23.028-22.689-24.209c-3.471-9.702-12.741-16.645-23.635-16.645c-13.862,0-25.099,11.237-25.099,25.099
					c0,4.778,1.336,9.243,3.653,13.045c-4.632,4.554-7.508,10.888-7.508,17.897c0,7.933,3.685,15.002,9.432,19.602
					C278.152,219.798,278.14,219.54,278.14,219.28z"/>
			</g>
			<g>
				<g>
					<circle class="st18" cx="317.47" cy="193.671" r="10.038"/>
				</g>
			</g>
		</g>
		<g>
			<g>
				<path class="st24" d="M330.197,243.914c0.769,0.071,1.548,0.112,2.336,0.112c13.862,0,25.099-11.237,25.099-25.099
					c0-13.055-9.968-23.778-22.707-24.982c-3.471-9.702-12.741-16.645-23.635-16.645c-13.862,0-25.099,11.237-25.099,25.099
					c0,4.778,1.336,9.243,3.653,13.045c-4.632,4.554-7.508,10.888-7.508,17.897c0,13.862,11.237,25.099,25.099,25.099
					C317.517,258.438,326.206,252.49,330.197,243.914z"/>
			</g>
			<g>
				<path class="st18" d="M291.747,252.164c0-7.009,2.876-13.343,7.508-17.897c-2.317-3.802-3.653-8.267-3.653-13.045
					c0-13.862,11.237-25.099,25.099-25.099c10.895,0,20.165,6.943,23.635,16.645c4.999,0.473,9.566,2.416,13.277,5.385
					c-0.386-12.702-10.203-23.028-22.689-24.209c-3.471-9.702-12.741-16.645-23.635-16.645c-13.862,0-25.099,11.237-25.099,25.099
					c0,4.778,1.336,9.243,3.653,13.045c-4.632,4.554-7.508,10.888-7.508,17.897c0,7.933,3.685,15.002,9.432,19.602
					C291.759,252.682,291.747,252.425,291.747,252.164z"/>
			</g>
			<g>
				<g>
					<circle class="st18" cx="331.077" cy="226.555" r="10.038"/>
				</g>
			</g>
		</g>
		<g>
			<g>
				<path class="st24" d="M375.371,190.54c0.769,0.071,1.548,0.112,2.336,0.112c13.862,0,25.099-11.237,25.099-25.099
					c0-13.055-9.968-23.778-22.707-24.982c-3.471-9.702-12.741-16.645-23.635-16.645c-13.862,0-25.099,11.237-25.099,25.099
					c0,4.778,1.336,9.243,3.653,13.045c-4.632,4.554-7.508,10.888-7.508,17.897c0,13.862,11.237,25.099,25.099,25.099
					C362.691,205.065,371.38,199.116,375.371,190.54z"/>
			</g>
			<g>
				<path class="st18" d="M336.922,198.79c0-7.009,2.876-13.343,7.508-17.897c-2.317-3.802-3.653-8.267-3.653-13.045
					c0-13.862,11.237-25.099,25.099-25.099c10.895,0,20.165,6.943,23.635,16.645c4.999,0.473,9.566,2.416,13.277,5.385
					c-0.386-12.702-10.203-23.028-22.689-24.209c-3.471-9.702-12.741-16.645-23.635-16.645c-13.862,0-25.099,11.237-25.099,25.099
					c0,4.778,1.336,9.243,3.653,13.045c-4.632,4.554-7.508,10.888-7.508,17.897c0,7.933,3.685,15.002,9.432,19.602
					C336.934,199.309,336.922,199.051,336.922,198.79z"/>
			</g>
			<g>
				<g>
					<circle class="st18" cx="376.251" cy="173.181" r="10.038"/>
				</g>
			</g>
		</g>
		<g>
			<g>
				<path class="st24" d="M405.379,248.591c0.769,0.071,1.548,0.112,2.336,0.112c13.862,0,25.099-11.237,25.099-25.099
					c0-13.055-9.968-23.778-22.707-24.982c-3.471-9.702-12.741-16.645-23.635-16.645c-13.862,0-25.099,11.237-25.099,25.099
					c0,4.778,1.336,9.243,3.653,13.045c-4.632,4.554-7.508,10.888-7.508,17.897c0,13.862,11.237,25.099,25.098,25.099
					C392.699,263.115,401.388,257.167,405.379,248.591z"/>
			</g>
			<g>
				<path class="st18" d="M366.929,256.841c0-7.009,2.876-13.343,7.508-17.897c-2.317-3.802-3.653-8.267-3.653-13.045
					c0-13.862,11.237-25.099,25.099-25.099c10.895,0,20.165,6.943,23.635,16.645c4.999,0.473,9.566,2.416,13.277,5.385
					c-0.386-12.702-10.203-23.028-22.689-24.209c-3.471-9.702-12.741-16.645-23.635-16.645c-13.862,0-25.099,11.237-25.099,25.099
					c0,4.778,1.336,9.243,3.653,13.045c-4.632,4.554-7.508,10.888-7.508,17.897c0,7.933,3.685,15.002,9.432,19.602
					C366.941,257.359,366.929,257.102,366.929,256.841z"/>
			</g>
			<g>
				<g>
					<circle class="st18" cx="406.259" cy="231.232" r="10.038"/>
				</g>
			</g>
		</g>
		<g>
			<g>
				<path class="st24" d="M211.827,81.707c-0.429-0.642-0.888-1.273-1.384-1.885c-8.729-10.768-24.534-12.422-35.302-3.693
					c-10.141,8.221-12.194,22.717-5.108,33.371c-5.351,8.805-4.908,20.379,1.953,28.842c8.729,10.768,24.534,12.422,35.303,3.693
					c3.712-3.009,6.339-6.858,7.833-11.052c6.454,0.731,13.186-1.024,18.63-5.438c10.768-8.729,12.421-24.534,3.693-35.302
					C231.095,82.411,221.002,79.407,211.827,81.707z"/>
			</g>
			<g>
				<path class="st18" d="M242.448,106.381c-5.445,4.413-12.176,6.169-18.63,5.438c-1.494,4.194-4.122,8.044-7.833,11.052
					c-10.768,8.729-26.574,7.076-35.303-3.693c-6.86-8.463-7.304-20.037-1.953-28.842c-2.781-4.181-4.148-8.953-4.177-13.705
					c-9.624,8.298-11.464,22.427-4.519,32.87c-5.351,8.805-4.908,20.379,1.953,28.842c8.729,10.768,24.534,12.422,35.303,3.693
					c3.712-3.009,6.339-6.858,7.833-11.052c6.454,0.731,13.186-1.024,18.63-5.438c6.163-4.996,9.334-12.31,9.288-19.67
					C242.843,106.045,242.65,106.216,242.448,106.381z"/>
			</g>
			<g>
				<g>
					<circle class="st18" cx="197.788" cy="91.954" r="10.038"/>
				</g>
			</g>
		</g>
		<g>
			<g>
				<path class="st24" d="M115.936,197.924c0.769,0.071,1.548,0.112,2.336,0.112c13.862,0,25.099-11.237,25.099-25.099
					c0-13.055-9.968-23.778-22.707-24.982c-3.471-9.702-12.741-16.645-23.635-16.645c-13.862,0-25.099,11.237-25.099,25.099
					c0,4.778,1.336,9.243,3.653,13.045c-4.632,4.554-7.508,10.888-7.508,17.897c0,13.862,11.237,25.099,25.099,25.099
					C103.256,212.449,111.945,206.501,115.936,197.924z"/>
			</g>
			<g>
				<path class="st18" d="M77.487,206.175c0-7.009,2.876-13.343,7.508-17.897c-2.317-3.802-3.653-8.267-3.653-13.045
					c0-13.862,11.237-25.099,25.099-25.099c10.895,0,20.165,6.943,23.635,16.645c4.999,0.473,9.566,2.416,13.277,5.385
					c-0.386-12.702-10.203-23.028-22.689-24.209c-3.471-9.702-12.741-16.645-23.635-16.645c-13.862,0-25.099,11.237-25.099,25.099
					c0,4.778,1.336,9.243,3.653,13.045c-4.632,4.554-7.508,10.888-7.508,17.897c0,7.933,3.685,15.002,9.432,19.602
					C77.498,206.693,77.487,206.436,77.487,206.175z"/>
			</g>
			<g>
				<g>
					<circle class="st18" cx="116.816" cy="180.566" r="10.038"/>
				</g>
			</g>
		</g>
		<g>
			<g>
				<path class="st24" d="M106.876,249.944c0.769,0.071,1.548,0.112,2.336,0.112c13.862,0,25.099-11.237,25.099-25.099
					c0-13.055-9.968-23.778-22.707-24.982c-3.471-9.702-12.741-16.645-23.635-16.645c-13.862,0-25.099,11.237-25.099,25.099
					c0,4.778,1.336,9.243,3.653,13.045c-4.632,4.554-7.508,10.888-7.508,17.897c0,13.862,11.237,25.099,25.099,25.099
					C94.196,264.469,102.885,258.521,106.876,249.944z"/>
			</g>
			<g>
				<path class="st18" d="M68.426,258.195c0-7.009,2.876-13.343,7.508-17.897c-2.317-3.802-3.653-8.267-3.653-13.045
					c0-13.862,11.237-25.099,25.099-25.099c10.895,0,20.165,6.943,23.635,16.645c4.999,0.473,9.566,2.416,13.277,5.385
					c-0.386-12.702-10.203-23.028-22.689-24.209c-3.471-9.702-12.741-16.645-23.635-16.645c-13.862,0-25.099,11.237-25.099,25.099
					c0,4.778,1.336,9.243,3.653,13.045c-4.632,4.554-7.508,10.888-7.508,17.897c0,7.933,3.685,15.002,9.432,19.602
					C68.438,258.713,68.426,258.456,68.426,258.195z"/>
			</g>
			<g>
				<g>
					<circle class="st18" cx="107.756" cy="232.586" r="10.038"/>
				</g>
			</g>
		</g>
		<g>
			<g>
				<path class="st24" d="M299.533,99.374c0.283-0.719,0.539-1.455,0.759-2.212c3.867-13.312-3.79-27.237-17.101-31.104
					c-12.537-3.642-25.614,2.94-30.325,14.837c-10.285,0.627-19.538,7.592-22.578,18.054c-3.867,13.312,3.79,27.237,17.101,31.104
					c4.588,1.333,9.249,1.296,13.546,0.131c3.081,5.718,8.362,10.247,15.092,12.202c13.311,3.867,27.237-3.79,31.104-17.101
					C309.944,115.603,306.655,105.599,299.533,99.374z"/>
			</g>
			<g>
				<path class="st18" d="M296.73,138.599c-6.73-1.955-12.011-6.484-15.092-12.202c-4.297,1.165-8.958,1.202-13.546-0.131
					c-13.311-3.867-20.968-17.792-17.101-31.104c3.039-10.462,12.293-17.427,22.578-18.054c1.848-4.668,4.988-8.513,8.875-11.248
					c-12.305-3.173-24.96,3.374-29.577,15.035c-10.285,0.627-19.538,7.592-22.578,18.054c-3.867,13.312,3.79,27.237,17.101,31.104
					c4.588,1.333,9.249,1.296,13.546,0.131c3.081,5.718,8.362,10.247,15.092,12.202c7.618,2.213,15.435,0.646,21.454-3.589
					C297.231,138.732,296.98,138.672,296.73,138.599z"/>
			</g>
			<g>
				<g>
					<circle class="st18" cx="283.109" cy="93.687" r="10.038"/>
				</g>
			</g>
		</g>
	</g>
	<g>
		<g>
			<path class="st2" d="M428.138,251.415H50.824c-4.158,0-7.53,3.371-7.53,7.53v22.15h-0.001c0,52.185,28.52,98.731,73.091,129.133
				v22.598c0,7.797,6.321,14.118,14.118,14.118h217.954c7.797,0,14.118-6.321,14.118-14.118v-22.598
				c44.572-30.401,73.091-76.948,73.091-129.133h0.001v-22.15C435.668,254.786,432.297,251.415,428.138,251.415z"/>
		</g>
		<g>
			<path class="st4" d="M154.033,432.826v-22.598c-44.572-30.401-73.091-76.948-73.091-129.133h0.001v-22.15
				c0-4.159,3.371-7.53,7.53-7.53H50.824c-4.158,0-7.53,3.371-7.53,7.53v22.15h-0.001c0,52.185,28.52,98.731,73.091,129.133v22.598
				c0,7.797,6.321,14.118,14.118,14.118h37.648C160.354,446.944,154.033,440.623,154.033,432.826z"/>
		</g>
		<g>
			<g>
				<circle class="st4" cx="109.658" cy="289.234" r="14.994"/>
			</g>
		</g>
		<g>
			<g>
				<circle class="st4" cx="130.156" cy="329.37" r="14.994"/>
			</g>
		</g>
		<g>
			<g>
				<path class="st24" d="M441.272,327.454c0.769,0.071,1.548,0.112,2.336,0.112c13.862,0,25.099-11.237,25.099-25.099
					c0-13.055-9.968-23.778-22.707-24.982c-3.471-9.702-12.741-16.645-23.635-16.645c-13.862,0-25.099,11.237-25.099,25.099
					c0,4.778,1.336,9.243,3.653,13.045c-4.632,4.554-7.508,10.888-7.508,17.897c0,13.862,11.237,25.099,25.099,25.099
					C428.592,341.979,437.281,336.03,441.272,327.454z"/>
			</g>
			<g>
				<path class="st18" d="M402.822,335.704c0-7.009,2.876-13.343,7.508-17.897c-2.317-3.802-3.653-8.267-3.653-13.045
					c0-13.862,11.237-25.099,25.099-25.099c10.895,0,20.165,6.943,23.635,16.645c4.999,0.473,9.566,2.416,13.277,5.385
					c-0.386-12.702-10.203-23.028-22.689-24.209c-3.471-9.702-12.741-16.645-23.635-16.645c-13.862,0-25.099,11.237-25.099,25.099
					c0,4.778,1.336,9.243,3.653,13.045c-4.632,4.554-7.508,10.888-7.508,17.897c0,7.933,3.685,15.002,9.432,19.602
					C402.834,336.223,402.822,335.965,402.822,335.704z"/>
			</g>
			<g>
				<g>
					<circle class="st18" cx="442.152" cy="310.095" r="10.038"/>
				</g>
			</g>
		</g>
		<g>
			<g>
				<path class="st24" d="M422.538,397.884c-0.026-0.772-0.083-1.55-0.181-2.331c-1.736-13.753-14.292-23.494-28.044-21.758
					c-12.952,1.635-22.342,12.867-21.942,25.657c-9.191,4.658-14.919,14.725-13.554,25.534
					c1.736,13.753,14.292,23.494,28.044,21.758c4.74-0.598,9.003-2.483,12.485-5.258c5.098,4.025,11.743,6.085,18.696,5.207
					c13.752-1.736,23.494-14.291,21.758-28.044C438.537,408.646,431.547,400.77,422.538,397.884z"/>
			</g>
			<g>
				<path class="st18" d="M435.538,434.998c-6.954,0.878-13.598-1.182-18.696-5.207c-3.481,2.775-7.745,4.66-12.485,5.258
					c-13.753,1.736-26.308-8.006-28.044-21.758c-1.364-10.809,4.364-20.875,13.554-25.534c-0.157-5.019,1.199-9.794,3.68-13.847
					c-12.554,1.973-21.569,13.006-21.177,25.542c-9.191,4.658-14.919,14.725-13.554,25.534
					c1.736,13.753,14.292,23.494,28.044,21.758c4.74-0.598,9.003-2.483,12.485-5.258c5.098,4.025,11.743,6.085,18.696,5.207
					c7.871-0.993,14.423-5.534,18.266-11.812C436.051,434.921,435.797,434.965,435.538,434.998z"/>
			</g>
			<g>
				<g>
					<circle class="st18" cx="405.206" cy="399.185" r="10.038"/>
				</g>
			</g>
		</g>
		<g>
			<path class="st3" d="M286.376,418.717h-34.162c-3.313,0-6-2.687-6-6s2.687-6,6-6h34.162c3.313,0,6,2.687,6,6
				S289.689,418.717,286.376,418.717z"/>
		</g>
		<g>
			<path class="st3" d="M311.479,412.27c-2.721,0-5.185-1.863-5.835-4.625c-0.76-3.226,1.238-6.456,4.464-7.216
				c41.264-9.722,62.231-68.83,62.438-69.426c1.088-3.13,4.504-4.785,7.637-3.699c3.13,1.087,4.786,4.506,3.699,7.637
				c-0.934,2.688-23.409,65.951-71.022,77.169C312.397,412.217,311.935,412.27,311.479,412.27z"/>
		</g>
	</g>
</g>
</svg>
