<?xml version="1.0" encoding="utf-8"?>
<!-- Generator: Adobe Illustrator 22.1.0, SVG Export Plug-In . SVG Version: 6.00 Build 0)  -->
<svg version="1.1" id="Layer_1" xmlns="http://www.w3.org/2000/svg" xmlns:xlink="http://www.w3.org/1999/xlink" x="0px" y="0px"
	 viewBox="0 0 512 512" style="enable-background:new 0 0 512 512;" xml:space="preserve">
<style type="text/css">
	.st0{fill:#FFF9DC;}
	.st1{fill:#FFB74B;}
	.st2{fill:#FF624B;}
	.st3{fill:#FF9079;}
	.st4{fill:#FF4B34;}
	.st5{fill:#FFEACF;}
	.st6{fill:#FFA730;}
	.st7{fill:#FFD551;}
	.st8{fill:#FFF7CA;}
	.st9{fill:#E58D23;}
	.st10{fill:#BF6C0D;}
	.st11{fill:#FFD59A;}
	.st12{fill:#A56021;}
	.st13{fill:#EACF32;}
	.st14{fill:#CCC033;}
	.st15{fill:#FCE575;}
	.st16{fill:#AD9B18;}
	.st17{fill:#FFEEA4;}
	.st18{fill:#FFF4C1;}
	.st19{fill:#FFDF74;}
	.st20{fill:#FFC34C;}
	.st21{fill:#8C4C17;}
	.st22{fill:#F9BB32;}
	.st23{fill:#DB9C2E;}
	.st24{fill:#FCF9DE;}
	.st25{fill:#FFEA63;}
	.st26{fill:#99AF17;}
	.st27{fill:#FCDA4F;}
	.st28{fill:#FFECCD;}
	.st29{fill:#FFEDCB;}
	.st30{fill:#FFEBCD;}
	.st31{fill:#FFEBCE;}
	.st32{fill:#FFECCC;}
</style>
<g>
	<g>
		<path class="st18" d="M435.048,206.739c0-7.191-3.769-13.663-9.786-18.197c0.226-1.217,0.345-2.462,0.345-3.73
			c0-8.319-5.045-15.677-12.781-20.182c1.076-2.536,1.669-5.255,1.669-8.088c0-10.566-8.134-19.584-19.592-23.168
			c0.079-0.726,0.127-1.46,0.127-2.202c0-11.786-10.119-21.647-23.687-24.185c-2.876-7.562-10.085-13.576-19.27-16.142
			c-5.604-5.682-14.214-9.325-23.877-9.325c-3.389,0-6.645,0.455-9.691,1.281c-3.109-1.134-6.265-2.178-9.46-3.142
			c-4.692-8.818-15.496-14.991-28.08-14.991c-8.46,0-16.117,2.79-21.653,7.297c-0.151-0.003-0.301-0.004-0.452-0.006
			c-5.535-4.505-13.19-7.292-21.646-7.292c-11.7,0-21.861,5.337-27.002,13.173c-4.356,1.141-8.641,2.439-12.848,3.888
			c-1.279-0.132-2.581-0.209-3.904-0.209c-12.557,0-23.34,6.147-28.049,14.935c-5.248,3.096-10.3,6.452-15.139,10.047
			c-10.365,0.929-19.164,6.062-23.761,13.255c-14.117,2.198-24.787,12.273-24.787,24.376c0,2.18,0.349,4.295,0.999,6.309
			c-6.268,4.546-10.218,11.156-10.218,18.517c0,3.653,0.98,7.118,2.725,10.242c-0.525,1.431-1.031,2.869-1.513,4.318
			c-9.93,4.102-16.736,12.47-16.736,22.135c0,7.001,3.574,13.318,9.314,17.832c-0.108,2.32-0.174,4.65-0.174,6.995
			c0,87.563,76.245,158.548,170.299,158.548s170.299-70.985,170.299-158.548c0-2.206-0.062-4.398-0.157-6.582
			C431.814,219.436,435.048,213.396,435.048,206.739z"/>
	</g>
	<g>
		<path class="st15" d="M138.019,240.857c0-2.345,0.066-4.675,0.174-6.994c-5.74-4.514-9.314-10.831-9.314-17.832
			c0-9.664,6.807-18.033,16.736-22.135c0.482-1.45,0.988-2.887,1.513-4.318c-1.745-3.123-2.725-6.589-2.725-10.242
			c0-7.36,3.95-13.971,10.218-18.517c-0.651-2.014-0.999-4.128-0.999-6.308c0-12.103,10.669-22.178,24.787-24.376
			c4.597-7.192,13.396-12.326,23.761-13.255c4.839-3.596,9.891-6.952,15.139-10.048c4.709-8.788,15.492-14.935,28.049-14.935
			c1.324,0,2.625,0.076,3.904,0.209c4.207-1.449,8.492-2.746,12.848-3.887c5.141-7.837,15.302-13.174,27.002-13.174
			c8.456,0,16.111,2.787,21.646,7.292c0.151,0.002,0.301,0.002,0.452,0.005c0.602-0.49,1.233-0.956,1.884-1.404
			c-1.345-0.44-2.693-0.872-4.052-1.282c-4.692-8.818-15.496-14.991-28.079-14.991c-8.46,0-16.117,2.79-21.653,7.297
			c-0.151-0.003-0.301-0.003-0.452-0.005c-5.535-4.506-13.19-7.292-21.646-7.292c-11.7,0-21.861,5.337-27.002,13.174
			c-4.356,1.141-8.641,2.439-12.848,3.887c-1.279-0.133-2.58-0.209-3.904-0.209c-12.556,0-23.34,6.147-28.048,14.935
			c-5.248,3.096-10.3,6.452-15.139,10.048c-10.365,0.929-19.164,6.063-23.761,13.255c-14.117,2.198-24.787,12.273-24.787,24.376
			c0,2.18,0.349,4.294,0.999,6.308c-6.268,4.546-10.218,11.157-10.218,18.517c0,3.653,0.98,7.119,2.725,10.242
			c-0.525,1.431-1.031,2.869-1.513,4.318c-9.929,4.101-16.736,12.47-16.736,22.135c0,7,3.573,13.318,9.314,17.832
			c-0.108,2.319-0.174,4.65-0.174,6.994c0,84.593,71.162,153.706,160.793,158.298C183.205,365.836,138.019,308.263,138.019,240.857z
			"/>
	</g>
	<g>
		<path class="st14" d="M445.629,259.953H66.486c0,70.186,39.046,131.349,96.832,163.451v16.407c0,4.155,3.5,7.523,7.817,7.523
			h169.784c4.317,0,7.817-3.368,7.817-7.523v-16.374C406.556,391.344,445.629,330.164,445.629,259.953z"/>
	</g>
	<g>
		<path class="st7" d="M445.629,259.953H66.371v-29.073c0-6.627,5.373-12,12-12h355.259c6.627,0,12,5.373,12,12V259.953z"/>
	</g>
	<g>
		<g>
			<circle class="st15" cx="195.852" cy="204.401" r="13.594"/>
		</g>
	</g>
	<g>
		<g>
			<circle class="st15" cx="230.143" cy="160.905" r="13.594"/>
		</g>
	</g>
	<g>
		<g>
			<circle class="st15" cx="255.556" cy="204.401" r="13.594"/>
		</g>
	</g>
	<g>
		<g>
			<circle class="st15" cx="282.752" cy="147.307" r="13.594"/>
		</g>
	</g>
	<g>
		<path class="st13" d="M123.33,218.881H79.515c-7.259,0-13.144,5.884-13.144,13.144v27.928h43.815v-27.928
			C110.185,224.765,116.07,218.881,123.33,218.881z"/>
	</g>
	<g>
		<path class="st26" d="M207.133,439.812v-16.407C149.347,391.302,110.3,330.14,110.3,259.953H66.486
			c0,70.187,39.047,131.349,96.832,163.452v16.407c0,4.155,3.5,7.522,7.817,7.522h43.815
			C210.633,447.334,207.133,443.966,207.133,439.812z"/>
	</g>
	<g>
		<path class="st27" d="M333.709,404.837c-2.578,0-4.96-1.674-5.742-4.27c-0.957-3.173,0.84-6.52,4.013-7.477
			c60.974-18.383,76.019-96.332,76.163-97.117c0.601-3.259,3.729-5.415,6.989-4.812c3.258,0.601,5.413,3.73,4.812,6.989
			c-0.161,0.875-4.09,21.682-16.298,45.194c-16.38,31.547-39.964,52.722-68.203,61.236
			C334.865,404.754,334.282,404.837,333.709,404.837z"/>
	</g>
	<g>
		<path class="st27" d="M307.06,410.449h-40.894c-3.313,0-6-2.687-6-6s2.687-6,6-6h40.894c3.313,0,6,2.687,6,6
			S310.373,410.449,307.06,410.449z"/>
	</g>
	<g>
		<g>
			<circle class="st26" cx="169.05" cy="316.95" r="13.594"/>
		</g>
	</g>
</g>
</svg>
