<?xml version="1.0" encoding="utf-8"?>
<!-- Generator: Adobe Illustrator 22.1.0, SVG Export Plug-In . SVG Version: 6.00 Build 0)  -->
<svg version="1.1" id="Layer_1" xmlns="http://www.w3.org/2000/svg" xmlns:xlink="http://www.w3.org/1999/xlink" x="0px" y="0px"
	 viewBox="0 0 512 512" style="enable-background:new 0 0 512 512;" xml:space="preserve">
<style type="text/css">
	.st0{fill:#FFF9DC;}
	.st1{fill:#FFB74B;}
	.st2{fill:#FF624B;}
	.st3{fill:#FF9079;}
	.st4{fill:#FF4B34;}
	.st5{fill:#FFEACF;}
	.st6{fill:#FFA730;}
	.st7{fill:#FFD551;}
	.st8{fill:#FFF7CA;}
	.st9{fill:#E58D23;}
	.st10{fill:#BF6C0D;}
	.st11{fill:#FFD59A;}
	.st12{fill:#A56021;}
	.st13{fill:#EACF32;}
	.st14{fill:#CCC033;}
	.st15{fill:#FCE575;}
	.st16{fill:#AD9B18;}
	.st17{fill:#FFEEA4;}
	.st18{fill:#FFF4C1;}
	.st19{fill:#FFDF74;}
	.st20{fill:#FFC34C;}
	.st21{fill:#8C4C17;}
	.st22{fill:#F9BB32;}
	.st23{fill:#DB9C2E;}
	.st24{fill:#FCF9DE;}
	.st25{fill:#FFEA63;}
	.st26{fill:#99AF17;}
	.st27{fill:#FCDA4F;}
	.st28{fill:#FFECCD;}
	.st29{fill:#FFEDCB;}
	.st30{fill:#FFEBCD;}
	.st31{fill:#FFEBCE;}
	.st32{fill:#FFECCC;}
</style>
<g>
	<g>
		<g>
			<g>
				<path class="st8" d="M332.166,141.556l-60.823,56.489l-19.95-23.248l60.823-56.489c-6.281-7.796-5.519-19.425,1.827-26.248
					c7.49-6.957,18.983-6.279,25.67,1.513c3.906,4.552,5.304,10.523,4.302,16.09c5.43-0.407,10.975,1.713,14.881,6.264
					c6.687,7.792,6.036,19.749-1.455,26.705C350.095,149.456,338.902,148.93,332.166,141.556z"/>
			</g>
			<g>
				<path class="st5" d="M255.313,171.156l56.903-52.848c-6.281-7.796-5.519-19.425,1.827-26.248
					c6.954-6.459,17.357-6.333,24.162-0.045c-4.502-0.151-9.065,1.422-12.69,4.789c-7.346,6.823-8.109,18.452-1.827,26.248
					l-60.823,56.489L255.313,171.156z"/>
			</g>
			<g>
				<path class="st23" d="M320.291,182.135L305.75,195.64c6.307,31.465-5.369,67.967-33.027,93.653
					c-38.887,36.117-94.63,37.173-124.505,2.36c-29.875-34.813-22.569-92.314,16.319-128.43
					c27.688-25.715,63.918-33.65,93.275-23.526l14.503-13.469c5.686-5.281,14.411-4.767,19.488,1.149l29.593,34.485
					C326.472,167.776,325.977,176.853,320.291,182.135z"/>
			</g>
			<g>
				<path class="st10" d="M287.022,143.365l-14.503,13.469c-29.357-10.124-65.587-2.189-93.275,23.526
					c-35.64,33.101-44.747,84.16-23.022,119.257c-2.83-2.407-5.509-5.058-8.004-7.965c-29.875-34.813-22.569-92.314,16.319-128.43
					c27.688-25.715,63.918-33.65,93.275-23.526l14.503-13.469c5.686-5.281,14.411-4.767,19.488,1.149l14.707,17.138
					C301.433,138.598,292.708,138.084,287.022,143.365z"/>
			</g>
			<g>
				<path class="st6" d="M199.807,297.895c-6.45,0-10.452-0.712-10.755-0.769c-3.259-0.6-5.414-3.729-4.814-6.987
					c0.6-3.253,3.717-5.408,6.97-4.817l0,0c0.12,0.023,12.108,2.077,28.117-1.793c21.307-5.151,39.369-17.845,53.684-37.729
					c1.936-2.689,5.686-3.301,8.375-1.363c2.689,1.936,3.3,5.686,1.364,8.375c-20.156,27.997-44.412,38.579-61.212,42.526
					C212.979,297.348,205.454,297.895,199.807,297.895z"/>
			</g>
		</g>
		<g>
			<path class="st12" d="M447.427,386.35c8.135-20.163,12.576-41.939,12.576-64.655c0-103.954-92.967-188.226-207.648-188.226
				S44.707,217.74,44.707,321.694c0,22.716,4.44,44.493,12.575,64.655H447.427z"/>
		</g>
		<g>
			<path class="st21" d="M274.776,134.564c-7.366-0.717-14.845-1.095-22.422-1.095c-114.681,0-207.647,84.272-207.647,188.226
				c0,22.717,4.44,44.493,12.576,64.656h44.843c-8.136-20.163-12.576-41.939-12.576-64.656
				C89.551,224.608,170.643,144.7,274.776,134.564z"/>
		</g>
		<g>
			<g>
				<path class="st8" d="M413.164,157.82l-60.823,56.489l-19.95-23.248l60.823-56.489c-6.281-7.796-5.519-19.425,1.827-26.248
					c7.49-6.957,18.983-6.279,25.67,1.513c3.906,4.552,5.304,10.523,4.302,16.09c5.43-0.407,10.975,1.713,14.881,6.264
					c6.687,7.792,6.036,19.749-1.455,26.705C431.093,165.719,419.9,165.193,413.164,157.82z"/>
			</g>
			<g>
				<path class="st5" d="M336.311,187.42l56.903-52.848c-6.281-7.796-5.519-19.425,1.827-26.248
					c6.954-6.459,17.357-6.333,24.162-0.045c-4.502-0.151-9.065,1.422-12.69,4.789c-7.346,6.823-8.109,18.452-1.827,26.248
					l-60.823,56.489L336.311,187.42z"/>
			</g>
			<g>
				<path class="st23" d="M401.289,198.398l-14.541,13.505c6.307,31.465-5.369,67.967-33.027,93.653
					c-38.887,36.117-94.63,37.173-124.505,2.36c-29.875-34.813-22.569-92.314,16.319-128.43
					c27.688-25.715,63.918-33.65,93.275-23.526l14.503-13.469c5.686-5.281,14.411-4.767,19.488,1.149l29.593,34.485
					C407.47,184.04,406.975,193.117,401.289,198.398z"/>
			</g>
			<g>
				<path class="st10" d="M368.019,159.629l-14.503,13.469c-29.357-10.124-65.587-2.189-93.275,23.526
					c-35.64,33.101-44.747,84.16-23.022,119.257c-2.83-2.407-5.509-5.058-8.004-7.965c-29.875-34.813-22.569-92.314,16.319-128.43
					c27.688-25.715,63.918-33.65,93.275-23.526l14.503-13.469c5.686-5.281,14.411-4.767,19.488,1.149l14.707,17.138
					C382.431,154.862,373.706,154.347,368.019,159.629z"/>
			</g>
			<g>
				<path class="st20" d="M280.804,314.158c-6.449,0-10.451-0.712-10.754-0.769c-3.259-0.6-5.414-3.729-4.814-6.987
					c0.6-3.254,3.72-5.408,6.973-4.816c0.257,0.044,12.199,2.055,28.113-1.795c21.307-5.151,39.369-17.845,53.684-37.729
					c1.935-2.688,5.686-3.3,8.375-1.363c2.689,1.936,3.3,5.686,1.364,8.375c-20.156,27.997-44.412,38.579-61.211,42.527
					C293.975,313.611,286.451,314.158,280.804,314.158z"/>
			</g>
		</g>
		<g>
			<g>
				<ellipse class="st10" cx="258.117" cy="260.221" rx="18.933" ry="19.696"/>
			</g>
		</g>
		<g>
			<g>
				<ellipse class="st21" cx="176.993" cy="331.814" rx="18.933" ry="19.696"/>
			</g>
		</g>
		<g>
			<path class="st10" d="M438.73,357.517c-0.273,0-0.549-0.019-0.828-0.058c-3.282-0.453-5.576-3.48-5.124-6.764
				c6.477-46.939-16.657-81.072-25.366-93.922c-1.154-1.703-2.065-3.048-2.703-4.118c-2.622-4.397-1.338-7.252,0.201-8.871
				c3.658-3.849,8.385-0.987,10.657,0.389c2.451,1.484,3.459,4.442,2.579,7.049c9.949,14.723,33.434,51.009,26.521,101.114
				C444.252,355.34,441.68,357.517,438.73,357.517z"/>
		</g>
		<g>
			<g>
				<ellipse class="st21" cx="129.834" cy="304.774" rx="18.933" ry="19.696"/>
			</g>
		</g>
	</g>
	<g>
		<g>
			<path class="st1" d="M424.948,424.745H87.052c-5.523,0-10-4.477-10-10v-21.887h357.896v21.887
				C434.948,420.267,430.471,424.745,424.948,424.745z"/>
		</g>
		<g>
			<path class="st6" d="M86.621,410.714h348.327v-17.857H77.052v19.132c0,7.044,4.284,12.755,9.569,12.755V410.714z"/>
		</g>
		<g>
			<path class="st1" d="M467.564,400.637H44.436c-5.523,0-10-4.477-10-10v-5.51c0-5.523,4.477-10,10-10h423.128
				c5.523,0,10,4.477,10,10v5.51C477.564,396.16,473.087,400.637,467.564,400.637z"/>
		</g>
	</g>
</g>
</svg>
