<?xml version="1.0" encoding="utf-8"?>
<!-- Generator: Adobe Illustrator 22.1.0, SVG Export Plug-In . SVG Version: 6.00 Build 0)  -->
<svg version="1.1" id="Layer_1" xmlns="http://www.w3.org/2000/svg" xmlns:xlink="http://www.w3.org/1999/xlink" x="0px" y="0px"
	 viewBox="0 0 512 512" style="enable-background:new 0 0 512 512;" xml:space="preserve">
<style type="text/css">
	.st0{fill:#FFF9DC;}
	.st1{fill:#FFB74B;}
	.st2{fill:#FF624B;}
	.st3{fill:#FF9079;}
	.st4{fill:#FF4B34;}
	.st5{fill:#FFEACF;}
	.st6{fill:#FFA730;}
	.st7{fill:#FFD551;}
	.st8{fill:#FFF7CA;}
	.st9{fill:#E58D23;}
	.st10{fill:#BF6C0D;}
	.st11{fill:#FFD59A;}
	.st12{fill:#A56021;}
	.st13{fill:#EACF32;}
	.st14{fill:#CCC033;}
	.st15{fill:#FCE575;}
	.st16{fill:#AD9B18;}
	.st17{fill:#FFEEA4;}
	.st18{fill:#FFF4C1;}
	.st19{fill:#FFDF74;}
	.st20{fill:#FFC34C;}
	.st21{fill:#8C4C17;}
	.st22{fill:#F9BB32;}
	.st23{fill:#DB9C2E;}
	.st24{fill:#FCF9DE;}
	.st25{fill:#FFEA63;}
	.st26{fill:#99AF17;}
	.st27{fill:#FCDA4F;}
	.st28{fill:#FFECCD;}
	.st29{fill:#FFEDCB;}
	.st30{fill:#FFEBCD;}
	.st31{fill:#FFEBCE;}
	.st32{fill:#FFECCC;}
</style>
<g>
	<g>
		<g>
			<g>
				<path class="st14" d="M352.051,202.379c-3.057-2.694-3.057-7.08,0-9.774c9.652-8.506,15.649-20.378,15.649-33.521
					c0-23.97-19.933-43.724-45.641-46.501c-3.042-0.329-5.551-2.238-6.399-4.897c-6.234-19.553-26.175-33.859-49.828-33.859
					c-23.652,0-43.593,14.306-49.828,33.859c-0.848,2.66-3.357,4.569-6.399,4.897c-25.708,2.777-45.641,22.531-45.641,46.501
					c0,13.143,5.997,25.015,15.649,33.521c3.057,2.694,3.057,7.08,0,9.774c-9.652,8.506-15.649,20.378-15.649,33.521
					c0,25.874,23.22,46.849,51.864,46.849v20.499h100.008v-20.499c28.644,0,51.864-20.975,51.864-46.849
					C367.7,222.757,361.703,210.884,352.051,202.379z"/>
			</g>
			<g>
				<g>
					<path class="st15" d="M272.33,160.411c-0.089-2.171-2.737-3.899-5.972-3.899c-3.226,0-5.87,1.719-5.972,3.884l-6.253,133.249
						c-0.016,0.35,0.038,0.69,0.148,1.015c0.589,4.149,5.582,7.389,11.655,7.389c0.042,0,0.083-0.004,0.125-0.004
						c0.049,0,0.098,0.004,0.147,0.004c5.996,0,10.914-3.248,11.442-7.392c0.108-0.32,0.166-0.653,0.152-0.997L272.33,160.411z"/>
				</g>
			</g>
			<g>
				<path class="st26" d="M201.344,235.9c0-13.143,5.997-25.016,15.649-33.521c3.057-2.694,3.057-7.079,0-9.773
					c-9.652-8.506-15.649-20.378-15.649-33.521c0-23.97,19.933-43.723,45.641-46.501c3.042-0.328,5.551-2.238,6.4-4.897
					c4.497-14.105,16.128-25.476,31.138-30.72c-5.798-2.026-12.099-3.139-18.69-3.139c-23.652,0-43.594,14.306-49.828,33.859
					c-0.848,2.66-3.357,4.569-6.4,4.897c-25.708,2.778-45.641,22.531-45.641,46.501c0,13.143,5.997,25.016,15.649,33.521
					c3.057,2.694,3.057,7.079,0,9.773c-9.652,8.506-15.649,20.378-15.649,33.521c0,25.874,23.22,46.849,51.864,46.849v20.499h37.38
					v-20.499C224.564,282.749,201.344,261.774,201.344,235.9z"/>
			</g>
			<g>
				<path class="st27" d="M262.691,294.66c-0.11-0.326-0.164-0.666-0.148-1.016l6.253-133.249c0.05-1.065,0.718-2.022,1.767-2.72
					c-1.081-0.719-2.567-1.164-4.205-1.164c-3.226,0-5.87,1.72-5.972,3.884l-6.253,133.249c-0.016,0.35,0.038,0.69,0.148,1.016
					c0.589,4.149,5.582,7.389,11.655,7.389c0.042,0,0.083-0.004,0.125-0.005c0.05,0.001,0.098,0.005,0.147,0.005
					c1.423,0,2.782-0.188,4.04-0.523C266.152,300.453,263.14,297.823,262.691,294.66z"/>
			</g>
			<g>
				<path class="st27" d="M263.782,200.398c-1.844,0-3.684-0.086-5.522-0.259c-26.687-2.502-42.631-22.413-43.297-23.259
					c-2.049-2.605-1.598-6.377,1.007-8.426c2.6-2.046,6.367-1.599,8.417,0.996c0.271,0.336,13.726,16.813,35.134,18.754
					c15.703,1.422,32.015-5.158,48.52-19.556c2.5-2.179,6.288-1.919,8.466,0.577c2.179,2.497,1.92,6.287-0.577,8.466
					C298.636,192.778,281.119,200.398,263.782,200.398z"/>
			</g>
			<g>
				<path class="st27" d="M263.826,250.319c-1.995,0-3.985-0.093-5.975-0.28c-27.545-2.586-44.031-22.301-44.72-23.139
					c-2.103-2.561-1.732-6.342,0.828-8.445c2.557-2.101,6.331-1.734,8.436,0.817c0.256,0.304,14.299,16.796,36.733,18.834
					c16.581,1.504,33.802-5.095,51.189-19.619c2.545-2.124,6.327-1.785,8.451,0.759c2.125,2.543,1.785,6.327-0.758,8.451
					C300.017,242.727,281.817,250.319,263.826,250.319z"/>
			</g>
			<g>
				<g>
					<ellipse class="st15" cx="281.859" cy="111.589" rx="15.688" ry="15.552"/>
				</g>
			</g>
		</g>
		<g>
			<g>
				<path class="st27" d="M423.165,258.466c-1.145-2.839,0.284-6.014,3.184-7.075c9.159-3.35,16.995-10.201,21.278-19.715
					c7.81-17.352,1.055-37.449-15.053-46.936c-1.906-1.123-2.945-3.234-2.639-5.406c2.245-15.968-6.29-32.123-21.943-39.002
					c-15.652-6.879-33.51-2.321-44.006,10.02c-1.428,1.679-3.71,2.331-5.831,1.684c-17.918-5.466-37.544,3.037-45.354,20.39
					c-4.282,9.514-4.182,19.853-0.565,28.817c1.145,2.839-0.284,6.014-3.184,7.075c-9.159,3.35-16.995,10.201-21.278,19.715
					c-8.43,18.731,0.102,40.668,19.058,48.998l-6.679,14.84l66.182,29.084l6.679-14.84c18.955,8.33,41.156-0.101,49.586-18.832
					C426.882,277.769,426.781,267.43,423.165,258.466z"/>
			</g>
			<g>
				<g>
					<path class="st5" d="M384.082,204.901c0.648-1.597-0.541-3.619-2.682-4.56c-2.135-0.938-4.445-0.463-5.217,1.075
						l-47.552,94.642c-0.125,0.249-0.2,0.51-0.233,0.778c-0.962,3.175,1.286,6.973,5.305,8.739c0.028,0.012,0.056,0.021,0.084,0.033
						c0.033,0.015,0.063,0.032,0.096,0.046c3.968,1.744,8.281,0.823,9.98-2.023c0.176-0.201,0.323-0.425,0.425-0.678
						L384.082,204.901z"/>
				</g>
			</g>
			<g>
				<path class="st20" d="M312.511,238.904c4.282-9.514,12.119-16.365,21.277-19.716c2.901-1.061,4.33-4.236,3.184-7.075
					c-3.616-8.964-3.717-19.303,0.566-28.818c7.81-17.352,27.436-25.855,45.354-20.39c2.12,0.647,4.403-0.005,5.831-1.684
					c7.572-8.903,18.973-13.752,30.615-13.183c-3.177-3.153-6.984-5.791-11.345-7.708c-15.652-6.879-33.51-2.321-44.006,10.02
					c-1.428,1.679-3.71,2.331-5.831,1.684c-17.918-5.466-37.544,3.037-45.354,20.39c-4.282,9.514-4.182,19.853-0.566,28.818
					c1.145,2.839-0.283,6.014-3.184,7.075c-9.159,3.35-16.995,10.201-21.277,19.715c-8.43,18.731,0.102,40.668,19.058,48.998
					l-6.679,14.84l24.736,10.871l6.679-14.84C312.613,279.572,304.081,257.634,312.511,238.904z"/>
			</g>
			<g>
				<path class="st18" d="M333.963,299.282c0.033-0.268,0.108-0.53,0.233-0.778l47.552-94.642c0.38-0.757,1.134-1.255,2.055-1.455
					c-0.481-0.835-1.319-1.589-2.404-2.066c-2.135-0.938-4.445-0.462-5.217,1.075l-47.552,94.642c-0.125,0.249-0.2,0.51-0.233,0.778
					c-0.962,3.175,1.286,6.972,5.306,8.739c0.028,0.012,0.056,0.021,0.084,0.033c0.033,0.015,0.063,0.032,0.096,0.046
					c0.942,0.414,1.902,0.673,2.844,0.796C334.367,304.482,333.23,301.702,333.963,299.282z"/>
			</g>
			<g>
				<path class="st18" d="M381.312,240.188c-8.097,0-15.405-1.816-21.871-5.448c-17.733-9.96-21.979-29.854-22.151-30.696
					c-0.663-3.247,1.431-6.417,4.678-7.08c3.246-0.666,6.402,1.423,7.075,4.657c0.061,0.277,3.481,15.536,16.372,22.71
					c9.384,5.222,21.766,5.125,36.805-0.29c3.119-1.123,6.555,0.494,7.679,3.612c1.122,3.118-0.495,6.555-3.612,7.678
					C397.295,238.569,388.952,240.188,381.312,240.188z"/>
			</g>
			<g>
				<path class="st18" d="M369.329,270.415c-8.748,0-16.642-1.96-23.613-5.879c-18.26-10.264-22.943-30.157-23.134-30.999
					c-0.73-3.232,1.297-6.445,4.529-7.176c3.225-0.73,6.431,1.287,7.171,4.507c0.059,0.247,3.857,15.714,17.423,23.268
					c9.958,5.545,22.949,5.687,38.61,0.423c3.141-1.055,6.543,0.635,7.599,3.776c1.056,3.141-0.635,6.543-3.776,7.599
					C385.249,268.922,376.964,270.415,369.329,270.415z"/>
			</g>
		</g>
		<g>
			<g>
				<ellipse class="st2" cx="297.343" cy="219.563" rx="40.42" ry="40.072"/>
			</g>
			<g>
				<path class="st4" d="M307.45,254.08c-21.599-5.594-34.534-27.487-28.892-48.9c3.051-11.581,10.916-20.64,20.908-25.642
					c-18.772-0.998-36.294,11.162-41.231,29.897c-5.642,21.413,7.293,43.306,28.892,48.899c9.918,2.568,19.933,1.245,28.416-3.002
					C312.86,255.19,310.151,254.779,307.45,254.08z"/>
			</g>
			<g>
				<g>
					<ellipse class="st3" cx="308.5" cy="204.358" rx="15.688" ry="15.552"/>
				</g>
			</g>
		</g>
		<g>
			<g>
				<path class="st27" d="M200.19,194.444c-3.037-0.581-4.97-3.484-4.307-6.469c2.092-9.426,0.489-19.643-5.303-28.343
					c-10.563-15.866-31.328-21.1-48.107-12.826c-1.986,0.979-4.345,0.702-6.03-0.724c-12.389-10.49-30.758-12.115-45.069-2.811
					c-14.311,9.303-20.072,26.616-15.228,42.01c0.659,2.094-0.018,4.344-1.714,5.759c-14.331,11.95-17.687,32.865-7.124,48.731
					c5.792,8.699,14.652,14.198,24.24,16.032c3.037,0.581,4.97,3.484,4.307,6.469c-2.092,9.426-0.489,19.643,5.303,28.342
					c11.402,17.126,34.695,21.875,52.026,10.609l9.033,13.568l60.511-39.337l-9.033-13.568
					c17.331-11.267,22.138-34.283,10.736-51.409C218.638,201.777,209.778,196.277,200.19,194.444z"/>
			</g>
			<g>
				<g>
					<path class="st5" d="M133.46,198.024c-1.01-1.402-3.374-1.504-5.332-0.232c-1.952,1.269-2.794,3.447-1.902,4.919l54.935,90.655
						c0.144,0.238,0.327,0.442,0.537,0.614c2.185,2.514,6.634,2.695,10.308,0.307c0.026-0.017,0.049-0.035,0.074-0.052
						c0.03-0.019,0.061-0.035,0.091-0.055c3.628-2.358,5.172-6.443,3.666-9.393c-0.076-0.255-0.188-0.498-0.348-0.72L133.46,198.024
						z"/>
				</g>
			</g>
			<g>
				<path class="st14" d="M123.775,275.911c-5.792-8.699-7.395-18.916-5.303-28.343c0.663-2.986-1.27-5.888-4.307-6.469
					c-9.588-1.833-18.449-7.333-24.24-16.032c-10.563-15.866-7.207-36.78,7.124-48.731c1.696-1.414,2.373-3.665,1.714-5.759
					c-3.494-11.105-1.468-23.206,5.303-32.581c-4.401,0.94-8.704,2.681-12.692,5.274c-14.311,9.303-20.072,26.616-15.228,42.01
					c0.659,2.094-0.018,4.345-1.714,5.759c-14.331,11.95-17.687,32.865-7.124,48.731c5.792,8.699,14.652,14.199,24.24,16.032
					c3.037,0.581,4.969,3.483,4.307,6.469c-2.092,9.426-0.489,19.643,5.303,28.343c11.402,17.126,34.695,21.875,52.026,10.608
					l9.033,13.568l22.617-14.703l-9.033-13.568C158.469,297.786,135.177,293.036,123.775,275.911z"/>
			</g>
			<g>
				<path class="st18" d="M186.787,290.673c-0.21-0.173-0.393-0.376-0.537-0.614l-54.935-90.655
					c-0.439-0.725-0.457-1.621-0.13-2.495c-0.971-0.051-2.066,0.239-3.057,0.884c-1.952,1.269-2.794,3.447-1.902,4.92l54.935,90.655
					c0.144,0.238,0.327,0.441,0.537,0.614c2.185,2.514,6.633,2.695,10.308,0.306c0.026-0.017,0.048-0.035,0.074-0.052
					c0.03-0.019,0.061-0.035,0.091-0.055c0.861-0.56,1.601-1.219,2.214-1.935C191.434,293.145,188.453,292.59,186.787,290.673z"/>
			</g>
		</g>
		<g>
			<g>
				<path class="st24" d="M201.701,239.693c29.19,15.631,63.702,9.557,81.264-13.008c2.77-3.559,1.566-8.753-2.424-10.889
					l-101.908-54.57c-3.99-2.136-9.031-0.287-10.514,3.961C158.712,192.118,172.512,224.063,201.701,239.693z"/>
			</g>
			<g>
				<path class="st1" d="M213.474,218.086c-14.565-7.799-22-24.606-21.28-43.604c0.103-2.708,3.074-4.348,5.48-3.061l63.828,34.179
					c2.405,1.288,2.651,4.651,0.423,6.221C246.292,222.835,228.039,225.885,213.474,218.086z"/>
			</g>
			<g>
				<path class="st5" d="M283.592,218.863c-18.805,15.433-47.906,18.096-73.062,4.625c-25.156-13.471-38.866-39.057-36.158-63.11
					c-2.75,0.261-5.276,2.008-6.254,4.809c-9.406,26.932,4.393,58.876,33.583,74.507s63.702,9.557,81.264-13.008
					C284.791,224.338,284.88,221.285,283.592,218.863z"/>
			</g>
			<g>
				<path class="st6" d="M261.501,205.6l-0.429-0.23c-13.999,7.559-29.3,8.907-41.86,2.182
					c-12.56-6.725-19.812-20.151-21.111-35.901l-0.429-0.23c-2.405-1.288-5.377,0.352-5.479,3.061
					c-0.72,18.998,6.715,35.804,21.28,43.604c14.565,7.799,32.819,4.749,48.45-6.264C264.152,210.251,263.906,206.888,261.501,205.6
					z"/>
			</g>
		</g>
		<g>
			<g>
				<ellipse class="st2" cx="149.284" cy="239.524" rx="27.877" ry="27.637"/>
			</g>
			<g>
				<path class="st4" d="M156.254,263.329c-14.896-3.858-23.817-18.957-19.926-33.725c2.104-7.987,7.529-14.235,14.42-17.684
					c-12.947-0.688-25.031,7.698-28.436,20.619c-3.891,14.768,5.03,29.867,19.926,33.725c6.84,1.771,13.747,0.858,19.598-2.07
					C159.985,264.095,158.117,263.811,156.254,263.329z"/>
			</g>
			<g>
				<g>
					<ellipse class="st3" cx="156.979" cy="229.038" rx="10.819" ry="10.726"/>
				</g>
			</g>
		</g>
	</g>
	<g>
		<g>
			<g>
				
					<ellipse transform="matrix(0.4729 -0.8811 0.8811 0.4729 -10.2204 436.4073)" class="st14" cx="359.626" cy="226.746" rx="29.877" ry="24.642"/>
			</g>
		</g>
		<g>
			<g>
				<path class="st16" d="M347.387,224.013c7.31-14.124,22.42-21.021,34.366-15.977c-2.032-3.306-4.853-6.022-8.395-7.824
					c-12.131-6.171-28.113,0.706-35.697,15.36c-7.584,14.654-3.897,31.535,8.234,37.706c0.439,0.223,0.883,0.427,1.331,0.617
					C342.299,245.879,342.017,234.388,347.387,224.013z"/>
			</g>
		</g>
		<g>
			<g>
				<path class="st15" d="M352.385,249.508c-0.712-0.362-1.165-1.13-1.083-1.967c0.108-1.095,1.091-1.895,2.196-1.788
					c12.747,1.239,20.244-17.331,20.319-17.519c0.405-1.024,1.57-1.529,2.603-1.129c1.036,0.398,1.543,1.554,1.14,2.578
					c-0.347,0.882-8.678,21.568-24.453,20.034C352.847,249.692,352.604,249.619,352.385,249.508z"/>
			</g>
		</g>
		<g>
			<g>
				
					<ellipse transform="matrix(0.4086 -0.9127 0.9127 0.4086 29.3785 459.9475)" class="st10" cx="369.592" cy="207.305" rx="4.667" ry="10.039"/>
			</g>
		</g>
	</g>
	<g>
		<g>
			<path class="st22" d="M453.385,235.362H58.616c-4.351,0-7.878,3.497-7.878,7.81v22.975h-0.001
				c0,54.129,29.839,102.409,76.473,133.943v23.44c0,8.088,6.613,14.644,14.771,14.644h228.037c8.158,0,14.771-6.556,14.771-14.644
				v-23.44c46.634-31.534,76.473-79.814,76.473-133.943h0.001v-22.975C461.263,238.859,457.736,235.362,453.385,235.362z"/>
		</g>
		<g>
			<path class="st12" d="M369.789,438.173H142.16c-8.284,0-15-6.716-15-15v-7.156h257.63v7.156
				C384.789,431.458,378.074,438.173,369.789,438.173z"/>
		</g>
		<g>
			<path class="st6" d="M166.6,423.53v-23.44c-46.634-31.534-76.473-79.814-76.473-133.943h0.001v-22.975
				c0-4.314,3.527-7.81,7.878-7.81h-39.39c-4.351,0-7.878,3.497-7.878,7.81v22.975h-0.001c0,54.129,29.839,102.409,76.473,133.943
				v23.44c0,8.087,6.613,14.644,14.771,14.644h39.39C173.213,438.173,166.6,431.617,166.6,423.53z"/>
		</g>
		<g>
			<path class="st21" d="M181.32,428.411c-7.384,0-13.485-5.377-14.579-12.393H127.16v7.512c0,8.087,6.613,14.644,14.771,14.644
				h228.087c6.429,0,11.883-4.079,13.913-9.763H181.32z"/>
		</g>
		<g>
			<g>
				<ellipse class="st6" cx="120.171" cy="274.589" rx="15.688" ry="15.552"/>
			</g>
		</g>
		<g>
			<g>
				<ellipse class="st6" cx="141.618" cy="316.221" rx="15.688" ry="15.552"/>
			</g>
		</g>
		<g>
			<path class="st20" d="M391.383,370.5c-1.87,0-3.714-0.872-4.885-2.51c-1.928-2.695-1.306-6.443,1.39-8.371
				c43.685-31.246,45.258-92.665,45.269-93.282c0.059-3.31,2.775-5.954,6.098-5.897c3.312,0.054,5.952,2.778,5.9,6.089
				c-0.042,2.761-1.605,68.032-50.286,102.851C393.811,370.137,392.591,370.5,391.383,370.5z"/>
		</g>
	</g>
</g>
</svg>
