<?xml version="1.0" encoding="utf-8"?>
<!-- Generator: Adobe Illustrator 22.1.0, SVG Export Plug-In . SVG Version: 6.00 Build 0)  -->
<svg version="1.1" id="Layer_1" xmlns="http://www.w3.org/2000/svg" xmlns:xlink="http://www.w3.org/1999/xlink" x="0px" y="0px"
	 viewBox="0 0 512 512" style="enable-background:new 0 0 512 512;" xml:space="preserve">
<style type="text/css">
	.st0{fill:#FFF9DC;}
	.st1{fill:#FFB74B;}
	.st2{fill:#FF624B;}
	.st3{fill:#FF9079;}
	.st4{fill:#FF4B34;}
	.st5{fill:#FFEACF;}
	.st6{fill:#FFA730;}
	.st7{fill:#FFD551;}
	.st8{fill:#FFF7CA;}
	.st9{fill:#E58D23;}
	.st10{fill:#BF6C0D;}
	.st11{fill:#FFD59A;}
	.st12{fill:#A56021;}
	.st13{fill:#EACF32;}
	.st14{fill:#CCC033;}
	.st15{fill:#FCE575;}
	.st16{fill:#AD9B18;}
	.st17{fill:#FFEEA4;}
	.st18{fill:#FFF4C1;}
	.st19{fill:#FFDF74;}
	.st20{fill:#FFC34C;}
	.st21{fill:#8C4C17;}
	.st22{fill:#F9BB32;}
	.st23{fill:#DB9C2E;}
	.st24{fill:#FCF9DE;}
	.st25{fill:#FFEA63;}
	.st26{fill:#99AF17;}
	.st27{fill:#FCDA4F;}
	.st28{fill:#FFECCD;}
	.st29{fill:#FFEDCB;}
	.st30{fill:#FFEBCD;}
	.st31{fill:#FFEBCE;}
	.st32{fill:#FFECCC;}
</style>
<g>
	<g>
		<g>
			<g>
				<path class="st14" d="M275.907,273.666c-1.066-4.213,1.496-6.775,5.709-5.709c13.303,3.366,25.416,1.61,33.093-6.067
					c14.001-14.001,8.327-42.751-12.249-66.572c-2.435-2.819-3.487-6.101-2.665-8.387c6.038-16.804-2.825-42.38-23.249-62.804
					c-20.424-20.424-45.999-29.287-62.804-23.249c-2.286,0.821-5.568-0.23-8.387-2.665c-23.821-20.577-52.571-26.251-66.572-12.249
					c-7.677,7.677-9.433,19.79-6.067,33.093c1.066,4.213-1.496,6.775-5.709,5.709c-13.303-3.366-25.416-1.61-33.093,6.067
					c-15.113,15.113-7.314,47.416,17.42,72.15L99.36,214.956l86.357,86.357l11.974-11.974c24.734,24.734,57.036,32.533,72.15,17.42
					C277.517,299.082,279.274,286.969,275.907,273.666z"/>
			</g>
			<g>
				<g>
					<path class="st15" d="M231.582,180.314c1.191-1.345-0.086-4.641-2.88-7.435c-2.786-2.786-6.073-4.065-7.425-2.888
						l-83.231,72.432c-0.219,0.19-0.37,0.435-0.465,0.721c-1.915,2.932,0.504,9.136,5.748,14.38
						c0.037,0.037,0.074,0.069,0.111,0.106c0.042,0.043,0.082,0.087,0.124,0.13c5.177,5.177,11.321,7.527,14.197,5.562
						c0.281-0.094,0.525-0.238,0.714-0.452L231.582,180.314z"/>
				</g>
			</g>
			<g>
				<path class="st26" d="M126.192,163.11c7.677-7.677,19.79-9.433,33.093-6.067c4.213,1.066,6.775-1.495,5.709-5.709
					c-3.366-13.303-1.61-25.416,6.067-33.093c14.001-14.001,42.751-8.327,66.572,12.249c2.819,2.435,6.101,3.487,8.387,2.665
					c12.122-4.355,28.807-0.954,44.831,8.944c-3.823-6.19-8.614-12.281-14.305-17.972c-20.424-20.424-45.999-29.287-62.804-23.249
					c-2.286,0.821-5.568-0.23-8.387-2.665c-23.821-20.576-52.571-26.25-66.572-12.249c-7.677,7.677-9.433,19.79-6.067,33.093
					c1.066,4.213-1.495,6.775-5.709,5.709c-13.303-3.366-25.416-1.61-33.093,6.067c-15.113,15.113-7.314,47.416,17.42,72.15
					L99.36,214.957l32.277,32.277l11.974-11.974C118.877,210.526,111.078,178.224,126.192,163.11z"/>
			</g>
			<g>
				<path class="st27" d="M144.843,250.406c0.095-0.285,0.247-0.531,0.466-0.721l83.231-72.432c0.665-0.579,1.801-0.561,3.114-0.063
					c-0.513-1.354-1.537-2.896-2.952-4.311c-2.786-2.786-6.073-4.065-7.425-2.888l-83.231,72.432
					c-0.219,0.19-0.37,0.435-0.466,0.721c-1.915,2.932,0.504,9.136,5.748,14.38c0.036,0.036,0.074,0.069,0.111,0.106
					c0.042,0.043,0.082,0.087,0.124,0.13c1.229,1.229,2.512,2.293,3.793,3.183C144.448,256.778,143.383,252.642,144.843,250.406z"/>
			</g>
			<g>
				<path class="st27" d="M258.375,228.01c-0.496,0-1-0.062-1.502-0.191c-40.793-10.517-61.498-32.906-71.683-49.837
					c-11.138-18.513-12.457-34.555-12.508-35.229c-0.249-3.304,2.228-6.185,5.533-6.433c3.303-0.247,6.176,2.221,6.432,5.517
					c0.023,0.272,1.314,14.396,11.132,30.465c13.174,21.561,34.737,36.33,64.09,43.897c3.208,0.827,5.139,4.099,4.312,7.308
					C263.483,226.213,261.046,228.01,258.375,228.01z"/>
			</g>
			<g>
				<path class="st27" d="M231.098,259.052c-0.532,0-1.072-0.071-1.61-0.221c-41.786-11.614-63.357-34.856-74.096-52.309
					c-11.745-19.089-13.442-35.446-13.508-36.133c-0.319-3.298,2.096-6.231,5.394-6.55c3.298-0.319,6.223,2.089,6.549,5.38
					c0.031,0.286,1.668,14.807,12.101,31.524c14.013,22.453,36.479,38.106,66.774,46.527c3.192,0.887,5.062,4.195,4.174,7.387
					C236.138,257.312,233.726,259.052,231.098,259.052z"/>
			</g>
		</g>
		<g>
			<g>
				<path class="st14" d="M403.456,401.215c-1.066-4.213,1.496-6.775,5.709-5.709c13.303,3.366,25.416,1.61,33.093-6.067
					c14.001-14.001,8.327-42.751-12.249-66.572c-2.435-2.819-3.487-6.101-2.665-8.387c6.038-16.804-2.825-42.38-23.249-62.804
					c-20.424-20.424-45.999-29.287-62.804-23.249c-2.286,0.821-5.568-0.23-8.387-2.665c-23.821-20.577-52.571-26.251-66.572-12.249
					c-7.677,7.677-9.433,19.79-6.067,33.093c1.066,4.213-1.496,6.775-5.709,5.709c-13.303-3.366-25.416-1.61-33.093,6.067
					c-15.113,15.113-7.314,47.416,17.42,72.15l-11.974,11.974l86.357,86.357l11.974-11.974c24.734,24.734,57.036,32.533,72.15,17.42
					C405.066,426.631,406.823,414.518,403.456,401.215z"/>
			</g>
			<g>
				<g>
					<path class="st15" d="M359.13,307.863c1.191-1.345-0.086-4.641-2.88-7.435c-2.786-2.786-6.073-4.065-7.425-2.888
						l-83.231,72.432c-0.219,0.19-0.37,0.435-0.465,0.721c-1.915,2.932,0.504,9.136,5.748,14.38
						c0.037,0.037,0.074,0.069,0.111,0.106c0.042,0.043,0.082,0.087,0.124,0.13c5.177,5.177,11.321,7.527,14.197,5.562
						c0.281-0.094,0.525-0.238,0.714-0.452L359.13,307.863z"/>
				</g>
			</g>
			<g>
				<path class="st26" d="M253.74,290.659c7.677-7.677,19.79-9.433,33.093-6.067c4.213,1.066,6.775-1.495,5.709-5.709
					c-3.366-13.303-1.61-25.416,6.067-33.093c14.001-14.001,42.751-8.327,66.572,12.249c2.819,2.435,6.101,3.487,8.387,2.665
					c12.122-4.355,28.807-0.954,44.831,8.944c-3.823-6.19-8.614-12.281-14.305-17.972c-20.424-20.424-45.999-29.287-62.804-23.249
					c-2.286,0.821-5.568-0.23-8.387-2.665c-23.821-20.576-52.571-26.25-66.572-12.249c-7.677,7.677-9.433,19.79-6.067,33.093
					c1.066,4.213-1.495,6.775-5.709,5.709c-13.303-3.366-25.416-1.61-33.093,6.067c-15.113,15.113-7.314,47.416,17.42,72.15
					l-11.974,11.974l32.277,32.277l11.974-11.974C246.426,338.075,238.627,305.773,253.74,290.659z"/>
			</g>
			<g>
				<path class="st27" d="M272.391,377.955c0.095-0.285,0.247-0.531,0.466-0.721l83.231-72.432c0.665-0.579,1.801-0.561,3.114-0.063
					c-0.513-1.354-1.537-2.896-2.952-4.311c-2.786-2.786-6.073-4.065-7.425-2.888l-83.231,72.432
					c-0.219,0.19-0.37,0.435-0.466,0.721c-1.915,2.932,0.504,9.136,5.748,14.38c0.036,0.036,0.074,0.069,0.111,0.105
					c0.042,0.043,0.082,0.087,0.124,0.13c1.229,1.229,2.512,2.293,3.793,3.183C271.997,384.327,270.932,380.19,272.391,377.955z"/>
			</g>
			<g>
				<path class="st27" d="M385.924,355.559c-0.496,0-1-0.062-1.502-0.191c-40.793-10.517-61.498-32.906-71.683-49.837
					c-11.138-18.513-12.457-34.555-12.508-35.229c-0.249-3.304,2.228-6.185,5.533-6.433c3.295-0.244,6.176,2.221,6.432,5.517
					c0.023,0.272,1.314,14.396,11.132,30.465c13.174,21.561,34.737,36.33,64.09,43.897c3.208,0.827,5.139,4.099,4.312,7.308
					C391.032,353.762,388.595,355.559,385.924,355.559z"/>
			</g>
			<g>
				<path class="st27" d="M358.647,386.601c-0.532,0-1.072-0.071-1.61-0.221c-41.786-11.614-63.357-34.856-74.096-52.309
					c-11.745-19.089-13.442-35.446-13.508-36.133c-0.319-3.298,2.096-6.231,5.394-6.55c3.296-0.318,6.223,2.088,6.549,5.38
					c0.031,0.286,1.668,14.807,12.101,31.524c14.013,22.453,36.479,38.107,66.774,46.527c3.192,0.887,5.062,4.195,4.174,7.388
					C363.687,384.861,361.274,386.601,358.647,386.601z"/>
			</g>
		</g>
		<g>
			<path class="st7" d="M330.185,199.349H143.512c-10.15,0-15.232,12.271-8.056,19.448L322.13,405.47
				c7.177,7.177,19.448,2.094,19.448-8.056V210.742C341.578,204.45,336.477,199.349,330.185,199.349z"/>
		</g>
		<g>
			<path class="st20" d="M322.13,285.216l-85.867-85.867h-92.751c-10.15,0-15.232,12.271-8.056,19.448L322.13,405.47
				c7.177,7.176,19.448,2.094,19.448-8.056V277.16C341.578,287.31,329.307,292.393,322.13,285.216z"/>
		</g>
		<g>
			<g>
				<circle class="st4" cx="196.367" cy="208.546" r="68.749"/>
			</g>
			<g>
				
					<ellipse transform="matrix(0.7071 -0.7071 0.7071 0.7071 -89.95 199.9341)" class="st3" cx="196.367" cy="208.546" rx="56.723" ry="56.723"/>
			</g>
			<g>
				
					<ellipse transform="matrix(0.7071 -0.7071 0.7071 0.7071 -89.9501 199.9341)" class="st2" cx="196.367" cy="208.546" rx="38.685" ry="38.685"/>
			</g>
			<g>
				<path class="st2" d="M233.977,256.691c-1.536,0-3.071-0.586-4.243-1.757l-83.379-83.379c-2.343-2.343-2.343-6.142,0-8.485
					c2.343-2.343,6.142-2.343,8.485,0l83.379,83.379c2.343,2.343,2.343,6.142,0,8.485
					C237.048,256.105,235.512,256.691,233.977,256.691z"/>
			</g>
			<g>
				<path class="st2" d="M192.287,273.96c-3.313,0-6-2.686-6-6V150.044c0-3.314,2.687-6,6-6s6,2.686,6,6V267.96
					C198.287,271.273,195.601,273.96,192.287,273.96z"/>
			</g>
			<g>
				<path class="st2" d="M152.41,258.503c-1.536,0-3.071-0.586-4.243-1.757c-2.343-2.343-2.343-6.142,0-8.485l83.379-83.379
					c2.343-2.343,6.142-2.343,8.485,0c2.343,2.343,2.343,6.142,0,8.485l-83.379,83.379
					C155.481,257.917,153.945,258.503,152.41,258.503z"/>
			</g>
			<g>
				<path class="st2" d="M253.057,216.814H135.142c-3.313,0-6-2.686-6-6s2.687-6,6-6h117.916c3.313,0,6,2.686,6,6
					S256.371,216.814,253.057,216.814z"/>
			</g>
		</g>
		<g>
			<g>
				<circle class="st4" cx="315.412" cy="327.592" r="68.749"/>
			</g>
			<g>
				
					<ellipse transform="matrix(0.7071 -0.7071 0.7071 0.7071 -139.2603 318.9797)" class="st3" cx="315.412" cy="327.592" rx="56.723" ry="56.723"/>
			</g>
			<g>
				
					<ellipse transform="matrix(0.7071 -0.7071 0.7071 0.7071 -139.2603 318.9797)" class="st2" cx="315.412" cy="327.592" rx="38.685" ry="38.685"/>
			</g>
			<g>
				<path class="st2" d="M353.022,375.737c-1.536,0-3.071-0.586-4.243-1.757l-83.379-83.379c-2.343-2.343-2.343-6.142,0-8.485
					c2.343-2.343,6.143-2.343,8.485,0l83.379,83.379c2.343,2.343,2.343,6.142,0,8.485
					C356.094,375.151,354.558,375.737,353.022,375.737z"/>
			</g>
			<g>
				<path class="st2" d="M311.333,393.005c-3.313,0-6-2.687-6-6V269.09c0-3.314,2.687-6,6-6s6,2.686,6,6v117.916
					C317.333,390.319,314.646,393.005,311.333,393.005z"/>
			</g>
			<g>
				<path class="st2" d="M271.456,377.549c-1.536,0-3.071-0.586-4.243-1.757c-2.343-2.343-2.343-6.142,0-8.485l83.379-83.379
					c2.343-2.343,6.143-2.343,8.485,0c2.343,2.343,2.343,6.142,0,8.485l-83.379,83.379
					C274.527,376.963,272.991,377.549,271.456,377.549z"/>
			</g>
			<g>
				<path class="st2" d="M372.103,335.859H254.187c-3.313,0-6-2.686-6-6s2.687-6,6-6h117.916c3.313,0,6,2.686,6,6
					S375.416,335.859,372.103,335.859z"/>
			</g>
		</g>
	</g>
	<g>
		<g>
			<path class="st23" d="M82.938,448.148h342.455c18.62,0,27.944-22.512,14.778-35.678L97.717,70.015
				c-13.166-13.166-35.678-3.841-35.678,14.778v342.455C62.039,438.791,71.396,448.148,82.938,448.148z"/>
		</g>
		<g>
			<path class="st10" d="M131.129,425.133c-11.542,0-20.9-9.357-20.9-20.9V82.528L97.717,70.015
				c-13.166-13.166-35.678-3.841-35.678,14.778v342.455c0,11.543,9.357,20.9,20.9,20.9h342.455c13.365,0,21.94-11.599,20.846-23.015
				H131.129z"/>
		</g>
		<g>
			<g>
				<path class="st10" d="M194.583,346.008c-1.536,0-3.071-0.586-4.243-1.757c-2.343-2.343-2.343-6.142,0-8.485l54.078-54.077
					c2.343-2.343,6.142-2.343,8.485,0c2.343,2.343,2.343,6.142,0,8.485l-54.078,54.077
					C197.655,345.422,196.119,346.008,194.583,346.008z"/>
			</g>
			<g>
				<path class="st10" d="M194.583,403.066c-1.536,0-3.071-0.585-4.243-1.757c-2.343-2.343-2.343-6.142,0-8.485l54.078-54.077
					c2.343-2.343,6.142-2.343,8.485,0c2.343,2.343,2.343,6.142,0,8.485l-54.078,54.077
					C197.655,402.48,196.119,403.066,194.583,403.066z"/>
			</g>
			<g>
				<path class="st10" d="M140.798,326.107c-1.536,0-3.071-0.586-4.243-1.757c-2.343-2.343-2.343-6.142,0-8.485l54.077-54.077
					c2.343-2.343,6.143-2.343,8.485,0c2.343,2.343,2.343,6.142,0,8.485l-54.077,54.077
					C143.87,325.522,142.334,326.107,140.798,326.107z"/>
			</g>
			<g>
				<path class="st10" d="M262.72,411.877c-1.536,0-3.071-0.586-4.243-1.757c-2.343-2.343-2.343-6.142,0-8.485l54.077-54.077
					c2.343-2.343,6.143-2.343,8.485,0c2.343,2.343,2.343,6.142,0,8.485l-54.077,54.077
					C265.792,411.292,264.256,411.877,262.72,411.877z"/>
			</g>
		</g>
		<g>
			<g>
				<circle class="st10" cx="141.813" cy="175.156" r="15.931"/>
			</g>
		</g>
		<g>
			<g>
				<circle class="st10" cx="136.929" cy="227.442" r="15.931"/>
			</g>
		</g>
	</g>
</g>
</svg>
