<?xml version="1.0" encoding="utf-8"?>
<!-- Generator: Adobe Illustrator 22.1.0, SVG Export Plug-In . SVG Version: 6.00 Build 0)  -->
<svg version="1.1" id="Layer_1" xmlns="http://www.w3.org/2000/svg" xmlns:xlink="http://www.w3.org/1999/xlink" x="0px" y="0px"
	 viewBox="0 0 512 512" style="enable-background:new 0 0 512 512;" xml:space="preserve">
<style type="text/css">
	.st0{fill:#FFF9DC;}
	.st1{fill:#FFB74B;}
	.st2{fill:#FF624B;}
	.st3{fill:#FF9079;}
	.st4{fill:#FF4B34;}
	.st5{fill:#FFEACF;}
	.st6{fill:#FFA730;}
	.st7{fill:#FFD551;}
	.st8{fill:#FFF7CA;}
	.st9{fill:#E58D23;}
	.st10{fill:#BF6C0D;}
	.st11{fill:#FFD59A;}
	.st12{fill:#A56021;}
	.st13{fill:#EACF32;}
	.st14{fill:#CCC033;}
	.st15{fill:#FCE575;}
	.st16{fill:#AD9B18;}
	.st17{fill:#FFEEA4;}
	.st18{fill:#FFF4C1;}
	.st19{fill:#FFDF74;}
	.st20{fill:#FFC34C;}
	.st21{fill:#8C4C17;}
	.st22{fill:#F9BB32;}
	.st23{fill:#DB9C2E;}
	.st24{fill:#FCF9DE;}
	.st25{fill:#FFEA63;}
	.st26{fill:#99AF17;}
	.st27{fill:#FCDA4F;}
	.st28{fill:#FFECCD;}
	.st29{fill:#FFEDCB;}
	.st30{fill:#FFEBCD;}
	.st31{fill:#FFEBCE;}
	.st32{fill:#FFECCC;}
</style>
<g>
	<g>
		<path class="st2" d="M196.419,154.665c-6.588,19.46,2.042,40.642,20.41,50.094c30.597,15.747,62.307,38.795,91.672,68.025
			c31.029,30.887,55.018,64.276,70.669,96.134c9.153,18.631,30.881,27.689,51.001,21.331h0c22.378-7.072,34.92-30.613,27.9-52.588
			c-13.055-40.868-42.124-87.086-83.973-128.744c-39.2-39.021-82.587-67.047-121.921-81.374
			c-22.622-8.24-47.812,3.648-55.474,26.281L196.419,154.665z"/>
	</g>
	<g>
		<path class="st4" d="M444.308,362.023L444.308,362.023c-20.109,6.348-41.831-2.715-50.987-21.342
			c-15.657-31.85-39.648-65.234-70.676-96.12c-29.364-29.229-61.069-52.28-91.659-68.032c-15.385-7.922-23.935-24.071-22.438-40.538
			c-5.261,4.7-9.414,10.757-11.824,17.884l-0.284,0.839c-6.577,19.448,2.058,40.624,20.421,50.081
			c30.59,15.752,62.295,38.802,91.659,68.032c31.028,30.886,55.019,64.27,70.676,96.12c9.156,18.627,30.878,27.69,50.987,21.342l0,0
			c17.118-5.404,28.46-20.454,29.696-37.068C455.504,357.092,450.259,360.145,444.308,362.023z"/>
	</g>
	<g>
		<path class="st2" d="M315.581,357.302c6.588-19.46-2.042-40.642-20.41-50.094c-30.597-15.747-62.307-38.795-91.672-68.025
			c-31.029-30.887-55.018-64.276-70.669-96.134c-9.153-18.631-30.881-27.689-51.001-21.331l0,0
			c-22.378,7.072-34.92,30.613-27.9,52.588c13.055,40.868,42.124,87.086,83.973,128.744c39.2,39.021,82.587,67.047,121.921,81.374
			c22.622,8.24,47.812-3.648,55.474-26.281L315.581,357.302z"/>
	</g>
	<g>
		<path class="st3" d="M251.613,303.452l11.043-15.518c-5.539-3.711-11.072-7.644-16.584-11.791l-11.243,15.799
			c-3.264,4.586-2.152,10.881,2.482,14.06C241.946,309.18,248.349,308.039,251.613,303.452z"/>
	</g>
	<g>
		<path class="st3" d="M175.988,261.902c3.971,3.953,10.469,3.964,14.515,0.025l18.168-17.689c-1.731-1.666-3.457-3.348-5.173-5.057
			c-3.11-3.096-6.129-6.223-9.097-9.365l-18.278,17.796C172.078,251.552,172.017,257.95,175.988,261.902L175.988,261.902z"/>
	</g>
	<g>
		<path class="st3" d="M147.696,169.702l-18.159,12.231c-4.695,3.162-5.925,9.453-2.748,14.05l0,0
			c3.177,4.598,9.558,5.762,14.253,2.599l17.841-12.017C154.915,180.946,151.19,175.318,147.696,169.702z"/>
	</g>
	<g>
		<path class="st3" d="M260.487,208.615l-11.043,15.518c5.539,3.711,11.072,7.644,16.584,11.791l11.243-15.799
			c3.264-4.586,2.152-10.881-2.482-14.06C270.154,202.887,263.751,204.028,260.487,208.615z"/>
	</g>
	<g>
		<path class="st3" d="M336.112,250.165c-3.971-3.953-10.469-3.964-14.515-0.025l-18.168,17.689
			c1.731,1.666,3.457,3.348,5.173,5.057c3.11,3.096,6.129,6.223,9.097,9.365l18.278-17.796
			C340.023,260.515,340.083,254.117,336.112,250.165L336.112,250.165z"/>
	</g>
	<g>
		<path class="st3" d="M364.405,342.365l18.159-12.231c4.695-3.162,5.925-9.453,2.748-14.05l0,0
			c-3.177-4.598-9.558-5.762-14.253-2.599l-17.841,12.017C357.185,331.121,360.91,336.749,364.405,342.365z"/>
	</g>
	<g>
		<path class="st4" d="M273.964,356.138c-39.333-14.327-82.721-42.353-121.921-81.374c-41.849-41.658-70.918-87.875-83.973-128.744
			c-1.647-5.156-2.205-10.396-1.823-15.492c-12.077,10.685-17.47,27.648-12.319,43.776c13.055,40.868,42.124,87.086,83.973,128.744
			c39.2,39.021,82.588,67.047,121.921,81.374c22.622,8.24,47.812-3.648,55.474-26.281l0.284-0.839
			c1.069-3.157,1.73-6.358,2.021-9.548C306.156,357.98,289.459,361.782,273.964,356.138z"/>
	</g>
	<g>
		<g>
			<circle class="st3" cx="90.573" cy="151.238" r="16.888"/>
		</g>
	</g>
	<g>
		<g>
			<circle class="st3" cx="429.41" cy="343.463" r="16.888"/>
		</g>
	</g>
</g>
</svg>
