<?xml version="1.0" encoding="utf-8"?>
<!-- Generator: Adobe Illustrator 22.1.0, SVG Export Plug-In . SVG Version: 6.00 Build 0)  -->
<svg version="1.1" id="Layer_1" xmlns="http://www.w3.org/2000/svg" xmlns:xlink="http://www.w3.org/1999/xlink" x="0px" y="0px"
	 viewBox="0 0 512 512" style="enable-background:new 0 0 512 512;" xml:space="preserve">
<style type="text/css">
	.st0{fill:#FFF9DC;}
	.st1{fill:#FFB74B;}
	.st2{fill:#FF624B;}
	.st3{fill:#FF9079;}
	.st4{fill:#FF4B34;}
	.st5{fill:#FFEACF;}
	.st6{fill:#FFA730;}
	.st7{fill:#FFD551;}
	.st8{fill:#FFF7CA;}
	.st9{fill:#E58D23;}
	.st10{fill:#BF6C0D;}
	.st11{fill:#FFD59A;}
	.st12{fill:#A56021;}
	.st13{fill:#EACF32;}
	.st14{fill:#CCC033;}
	.st15{fill:#FCE575;}
	.st16{fill:#AD9B18;}
	.st17{fill:#FFEEA4;}
	.st18{fill:#FFF4C1;}
	.st19{fill:#FFDF74;}
	.st20{fill:#FFC34C;}
	.st21{fill:#8C4C17;}
	.st22{fill:#F9BB32;}
	.st23{fill:#DB9C2E;}
	.st24{fill:#FCF9DE;}
	.st25{fill:#FFEA63;}
	.st26{fill:#99AF17;}
	.st27{fill:#FCDA4F;}
	.st28{fill:#FFECCD;}
	.st29{fill:#FFEDCB;}
	.st30{fill:#FFEBCD;}
	.st31{fill:#FFEBCE;}
	.st32{fill:#FFECCC;}
</style>
<g>
	<g>
		<g>
			<path class="st5" d="M356.269,122.527H100.682c-7.326,0-13.074,6.285-12.422,13.582l9.082,101.608
				c0.575,6.432,5.964,11.362,12.422,11.362h2.75l19.796,217.838c1.052,11.578,10.916,20.452,22.735,20.452h146.806
				c11.819,0,21.683-8.873,22.736-20.452l19.796-217.838h2.804c6.458,0,11.847-4.929,12.422-11.362l9.081-101.608
				C369.343,128.812,363.595,122.527,356.269,122.527z"/>
		</g>
	</g>
	<g>
		<g>
			<path class="st11" d="M170.81,466.917l-19.797-217.838h-2.75c-6.457,0-11.847-4.929-12.422-11.362l-9.082-101.608
				c-0.652-7.297,5.096-13.581,12.422-13.581h-38.5c-7.326,0-13.074,6.284-12.422,13.581l9.082,101.608
				c0.575,6.433,5.965,11.362,12.422,11.362h2.75l19.797,217.838c1.052,11.578,10.916,20.451,22.735,20.451h38.5
				C181.726,487.368,171.862,478.495,170.81,466.917z"/>
		</g>
	</g>
	<g>
		<g>
			<g>
				<path class="st7" d="M236.26,451.526l-7.066-0.007c-4.418-0.005-7.996-3.59-7.992-8.008l0.429-410.993
					c0.005-4.418,3.59-7.996,8.008-7.992l7.066,0.007c4.418,0.005,7.996,3.59,7.992,8.008l-0.429,410.993
					C244.264,447.953,240.678,451.531,236.26,451.526z"/>
			</g>
		</g>
		<g>
			<g>
				<path class="st1" d="M234.202,443.51l0.429-410.993c0.003-3.362,2.083-6.232,5.022-7.413c-0.913-0.363-1.905-0.57-2.948-0.571
					l-7.066-0.007c-4.418-0.005-8.004,3.573-8.008,7.991l-0.429,410.993c-0.004,4.418,3.574,8.004,7.992,8.009l7.066,0.007
					c1.057,0.001,2.063-0.207,2.986-0.578C236.29,449.77,234.199,446.886,234.202,443.51z"/>
			</g>
		</g>
	</g>
	<g>
		<g>
			<path class="st3" d="M153.105,470.739c-3.245,0-5.899-2.291-6.175-5.327l-20.621-226.913c-0.311-3.426-3.184-6.05-6.624-6.05
				h-4.257c-2.168,0-3.949-1.628-4.141-3.787l-5.622-62.901c-0.085-0.952,0.367-1.602,0.644-1.905
				c0.277-0.303,0.884-0.811,1.841-0.811h236.771c0.956,0,1.564,0.508,1.841,0.811c0.277,0.303,0.729,0.953,0.644,1.906
				l-5.622,62.901c-0.192,2.159-1.973,3.787-4.141,3.787h-4.31c-3.44,0-6.313,2.623-6.624,6.05l-20.621,226.913
				c-0.276,3.037-2.93,5.327-6.175,5.327H153.105z"/>
		</g>
	</g>
	<g>
		<g>
			<g>
				<g>
					<path class="st2" d="M404.033,391.028c-6.487-7.106-16.463-9.996-27.848-9.059c-5.627,0.463-11.069-2.339-13.991-7.149
						c-5.782-9.516-13.794-15.76-23.202-16.913c-22.205-2.722-43.748,23.91-48.116,59.485
						c-4.368,35.575,10.092,66.621,32.297,69.343c0.097,0.012,0.193,0.013,0.29,0.024c16.987,3.272,40.159-4.751,59.553-22.273
						C409.672,440.4,419.081,407.513,404.033,391.028z"/>
				</g>
			</g>
			<g>
				<g>
					<g>
						<path class="st4" d="M318.907,429.197c3.829-31.18,20.85-55.487,39.948-59.185c-5.377-6.787-12.15-11.16-19.864-12.105
							c-22.205-2.722-43.747,23.91-48.116,59.485c-4.368,35.574,10.092,66.621,32.298,69.343c0.097,0.012,0.193,0.013,0.29,0.023
							c2.757,0.531,5.679,0.76,8.72,0.703C321.523,474.853,315.978,453.051,318.907,429.197z"/>
					</g>
				</g>
				<g>
					<g>
						<path class="st4" d="M390.226,386.625c2.923,4.81,8.364,7.612,13.992,7.149c0.636-0.052,1.265-0.088,1.892-0.116
							c-0.636-0.913-1.316-1.797-2.076-2.63c-4.261-4.667-10.032-7.503-16.712-8.644
							C388.34,383.715,389.313,385.124,390.226,386.625z"/>
					</g>
				</g>
			</g>
		</g>
		<g>
			<g>
				<g>
					<path class="st14" d="M421.523,389.624c0.056-0.043,0.111-0.087,0.164-0.131c0.227-0.186,0.443-0.375,0.636-0.572l0-0.001
						c0.19-0.195,0.357-0.398,0.512-0.603c0.038-0.05,0.075-0.101,0.111-0.152c0.147-0.209,0.282-0.422,0.391-0.642
						c0,0,0-0.001,0.001-0.001c0.109-0.218,0.191-0.443,0.261-0.671c0.018-0.057,0.034-0.113,0.049-0.171
						c0.061-0.231,0.108-0.465,0.129-0.706c0.06-0.722-0.068-1.451-0.367-2.179c-0.075-0.182-0.16-0.364-0.256-0.545
						c-0.958-1.815-2.956-3.602-5.723-5.218c-1.107-0.646-2.338-1.264-3.674-1.846c-4.343-1.89-9.804-3.388-15.789-4.175
						c-9.766-1.283-18.474-0.347-23.378,2.11c-1.662-5.024-5.541-11.229-11.073-17.144c-9.823-10.504-21.233-16.227-25.968-13.151
						c-0.077,0.05-0.148,0.109-0.221,0.163c-0.067,0.05-0.137,0.095-0.201,0.148c-0.333,0.28-0.609,0.611-0.842,0.977
						c-0.146,0.23-0.277,0.474-0.385,0.736c-0.007,0.017-0.016,0.033-0.023,0.05c-0.774,1.941-0.517,4.712,0.622,7.938
						c1.743,4.939,5.555,10.945,10.916,16.677c5.38,5.754,11.237,10.073,16.212,12.298c3.219,1.439,6.069,2.002,8.182,1.508
						c0.358-0.083,0.692-0.2,1.006-0.345c4.08,4.015,12.941,7.572,23.414,8.948c9.835,1.292,18.594,0.333,23.479-2.163
						c0.071-0.036,0.14-0.072,0.209-0.109C420.515,390.334,421.052,389.99,421.523,389.624z"/>
				</g>
			</g>
			<g>
				<g>
					<path class="st14" d="M398.877,414.314c0.165-0.116,0.324-0.241,0.469-0.385c2.059-2.057,1.469-6.519-1.122-11.736
						c-1.773-3.569-4.481-7.492-7.918-11.239c-4.495-4.9-9.331-8.516-13.397-10.308c0,0-0.001,0-0.001,0
						c-0.957-0.421-1.87-0.742-2.727-0.955c-0.428-0.107-0.843-0.186-1.241-0.238c-0.087-0.012-0.17-0.016-0.255-0.025
						c-0.768-1.597-2.495-3.173-4.935-4.588c-0.234-0.136-0.475-0.27-0.721-0.403c-3.948-2.123-9.501-3.838-15.722-4.64
						c-7.388-0.952-14.057-0.404-18.339,1.219c-0.451,0.171-0.875,0.354-1.271,0.548s-0.763,0.4-1.101,0.616
						c-0.411,0.264-0.771,0.546-1.088,0.841c-0.16,0.149-0.307,0.301-0.441,0.458c-0.07,0.081-0.136,0.162-0.198,0.245
						c-0.145,0.192-0.273,0.389-0.38,0.591c-0.017,0.032-0.038,0.063-0.054,0.096c-0.206,0.416-0.331,0.854-0.368,1.311
						c-0.008,0.103-0.006,0.207-0.005,0.311c0,0.043-0.004,0.087-0.002,0.13c0.204,4.748,9.755,9.737,21.824,11.293
						c7.104,0.915,13.54,0.442,17.832-1.039c0.944,4.72,4.565,11.122,10.033,17.083c5.648,6.157,11.832,10.281,16.353,11.315
						c0.065,0.015,0.129,0.029,0.194,0.042c0.562,0.119,1.096,0.188,1.6,0.207c0.06,0.002,0.119,0.004,0.178,0.005
						c0.248,0.003,0.491-0.003,0.723-0.025c0,0,0.001,0,0.002,0c0.23-0.023,0.447-0.063,0.66-0.111
						c0.052-0.012,0.105-0.025,0.156-0.039c0.209-0.056,0.412-0.119,0.603-0.202c0.001,0,0.002-0.001,0.003-0.001
						c0.189-0.082,0.364-0.182,0.533-0.291C398.793,414.372,398.835,414.344,398.877,414.314z"/>
				</g>
			</g>
			<g>
				<g>
					<g>
						<path class="st26" d="M344.738,375.792c-0.002-0.043,0.002-0.087,0.002-0.13c-0.001-0.104-0.003-0.208,0.005-0.311
							c0.037-0.457,0.162-0.895,0.368-1.311c0.016-0.032,0.038-0.064,0.054-0.096c0.107-0.202,0.235-0.399,0.38-0.591
							c0.063-0.083,0.129-0.164,0.198-0.245c0.134-0.156,0.282-0.309,0.441-0.458c0.317-0.296,0.677-0.577,1.088-0.841
							c0.337-0.217,0.705-0.422,1.101-0.616c0.396-0.194,0.82-0.377,1.271-0.548c3.303-1.252,8.029-1.861,13.407-1.638
							c-4.814-5.382-8.248-10.926-9.876-15.539c-0.822-2.329-1.177-4.414-1.024-6.127c-6.126-3.933-11.658-5.429-14.605-3.514
							c-0.077,0.05-0.148,0.109-0.221,0.163c-0.067,0.05-0.137,0.095-0.201,0.148c-0.333,0.28-0.609,0.611-0.842,0.977
							c-0.146,0.23-0.277,0.474-0.385,0.736c-0.007,0.017-0.016,0.033-0.023,0.05c-0.774,1.941-0.517,4.712,0.622,7.938
							c1.628,4.613,5.062,10.157,9.876,15.539c-5.378-0.223-10.104,0.386-13.407,1.638c-0.451,0.171-0.875,0.354-1.271,0.548
							s-0.763,0.4-1.101,0.616c-0.411,0.264-0.771,0.546-1.088,0.841c-0.16,0.149-0.307,0.301-0.441,0.458
							c-0.07,0.081-0.136,0.162-0.198,0.245c-0.145,0.192-0.273,0.389-0.38,0.591c-0.017,0.032-0.038,0.063-0.054,0.096
							c-0.206,0.416-0.331,0.854-0.368,1.311c-0.008,0.103-0.006,0.207-0.005,0.311c0,0.043-0.004,0.087-0.002,0.13
							c0.204,4.748,9.755,9.737,21.824,11.293c6.107,0.787,11.715,0.545,15.898-0.478
							C354.084,385.31,344.937,380.437,344.738,375.792z"/>
					</g>
				</g>
			</g>
		</g>
		<g>
			<g>
				<g>
					<path class="st21" d="M314.062,408.109c-2.322-0.978-3.41-3.643-2.429-5.953l3.452-8.131c0.98-2.309,3.658-3.389,5.98-2.411
						c2.322,0.978,3.41,3.643,2.429,5.953l-3.452,8.131C319.062,408.008,316.384,409.087,314.062,408.109z"/>
				</g>
			</g>
		</g>
		<g>
			<g>
				<g>
					<path class="st21" d="M340.166,417.322c-2.322-0.978-3.41-3.643-2.429-5.953l3.452-8.131c0.98-2.309,3.658-3.389,5.98-2.411
						c2.322,0.978,3.41,3.643,2.429,5.953l-3.452,8.131C345.165,417.22,342.488,418.3,340.166,417.322z"/>
				</g>
			</g>
		</g>
		<g>
			<g>
				<g>
					<path class="st21" d="M359.463,430.242c-2.322-0.978-3.41-3.643-2.429-5.953l3.452-8.131c0.98-2.309,3.658-3.389,5.98-2.411
						c2.322,0.978,3.41,3.643,2.429,5.953l-3.452,8.131C364.463,430.141,361.785,431.22,359.463,430.242z"/>
				</g>
			</g>
		</g>
		<g>
			<g>
				<g>
					<path class="st21" d="M381.72,436.192c-2.322-0.978-3.41-3.643-2.429-5.953l3.452-8.131c0.98-2.309,3.658-3.389,5.98-2.411
						c2.322,0.978,3.41,3.643,2.429,5.953l-3.452,8.131C386.72,436.09,384.042,437.17,381.72,436.192z"/>
				</g>
			</g>
		</g>
		<g>
			<g>
				<g>
					<path class="st21" d="M319.08,432.678c-2.322-0.978-3.41-3.643-2.429-5.953l3.452-8.131c0.98-2.309,3.658-3.389,5.98-2.411
						c2.322,0.978,3.41,3.643,2.429,5.953l-3.452,8.131C324.08,432.576,321.402,433.656,319.08,432.678z"/>
				</g>
			</g>
		</g>
		<g>
			<g>
				<g>
					<path class="st21" d="M361.481,455.328c-2.322-0.978-3.41-3.643-2.429-5.953l3.452-8.131c0.98-2.309,3.658-3.389,5.98-2.411
						c2.322,0.978,3.41,3.643,2.429,5.953l-3.452,8.131C366.48,455.226,363.803,456.306,361.481,455.328z"/>
				</g>
			</g>
		</g>
		<g>
			<g>
				<g>
					<path class="st21" d="M337.488,451.521c-2.322-0.978-3.41-3.643-2.429-5.953l3.452-8.131c0.98-2.309,3.658-3.389,5.98-2.411
						c2.322,0.978,3.41,3.643,2.429,5.953l-3.452,8.131C342.487,451.42,339.81,452.499,337.488,451.521z"/>
				</g>
			</g>
		</g>
		<g>
			<g>
				<g>
					<path class="st21" d="M312.15,463.854c-2.322-0.978-3.41-3.643-2.429-5.953l3.452-8.131c0.98-2.309,3.658-3.389,5.98-2.411
						s3.41,3.643,2.429,5.953l-3.452,8.131C317.149,463.753,314.472,464.832,312.15,463.854z"/>
				</g>
			</g>
		</g>
		<g>
			<g>
				<g>
					<path class="st21" d="M339.453,476.727c-2.322-0.978-3.41-3.643-2.429-5.953l3.452-8.131c0.98-2.309,3.658-3.389,5.98-2.411
						c2.322,0.978,3.41,3.643,2.429,5.953l-3.452,8.131C344.453,476.626,341.775,477.705,339.453,476.727z"/>
				</g>
			</g>
		</g>
	</g>
	<g>
		<g>
			<path class="st11" d="M296.337,362.729c-0.146,0-0.295-0.005-0.444-0.016c-3.305-0.242-5.787-3.118-5.546-6.423l8.181-111.673
				c0.242-3.304,3.093-5.783,6.423-5.546c3.305,0.242,5.787,3.118,5.546,6.423l-8.181,111.673
				C302.084,360.323,299.451,362.729,296.337,362.729z"/>
		</g>
	</g>
	<g>
		<g>
			<g>
				<circle class="st2" cx="214.13" cy="370.741" r="15.783"/>
			</g>
		</g>
	</g>
	<g>
		<g>
			<g>
				<circle class="st2" cx="234.512" cy="430.603" r="15.783"/>
			</g>
		</g>
	</g>
	<g>
		<g>
			<path class="st2" d="M192.167,465.412L171.546,238.5c-0.312-3.427-3.184-6.05-6.624-6.05h-4.257
				c-2.168,0-3.949-1.628-4.141-3.787l-5.622-62.901c-0.085-0.952,0.367-1.602,0.644-1.905c0.277-0.303,0.884-0.81,1.841-0.81
				H108.15c-0.956,0-1.564,0.508-1.841,0.81c-0.277,0.304-0.729,0.953-0.644,1.905l5.622,62.901
				c0.192,2.159,1.973,3.787,4.141,3.787h4.257c3.44,0,6.313,2.623,6.624,6.05l20.621,226.912c0.276,3.037,2.93,5.328,6.175,5.328
				h45.237C195.098,470.74,192.444,468.449,192.167,465.412z"/>
		</g>
	</g>
	<g>
		<g>
			<g>
				<circle class="st2" cx="258.414" cy="386.528" r="15.783"/>
			</g>
		</g>
	</g>
</g>
</svg>
