<?xml version="1.0" encoding="utf-8"?>
<!-- Generator: Adobe Illustrator 22.1.0, SVG Export Plug-In . SVG Version: 6.00 Build 0)  -->
<svg version="1.1" id="Layer_1" xmlns="http://www.w3.org/2000/svg" xmlns:xlink="http://www.w3.org/1999/xlink" x="0px" y="0px"
	 viewBox="0 0 512 512" style="enable-background:new 0 0 512 512;" xml:space="preserve">
<style type="text/css">
	.st0{fill:#FFF9DC;}
	.st1{fill:#FFB74B;}
	.st2{fill:#FF624B;}
	.st3{fill:#FF9079;}
	.st4{fill:#FF4B34;}
	.st5{fill:#FFEACF;}
	.st6{fill:#FFA730;}
	.st7{fill:#FFD551;}
	.st8{fill:#FFF7CA;}
	.st9{fill:#E58D23;}
	.st10{fill:#BF6C0D;}
	.st11{fill:#FFD59A;}
	.st12{fill:#A56021;}
	.st13{fill:#EACF32;}
	.st14{fill:#CCC033;}
	.st15{fill:#FCE575;}
	.st16{fill:#AD9B18;}
	.st17{fill:#FFEEA4;}
	.st18{fill:#FFF4C1;}
	.st19{fill:#FFDF74;}
	.st20{fill:#FFC34C;}
	.st21{fill:#8C4C17;}
	.st22{fill:#F9BB32;}
	.st23{fill:#DB9C2E;}
	.st24{fill:#FCF9DE;}
	.st25{fill:#FFEA63;}
	.st26{fill:#99AF17;}
	.st27{fill:#FCDA4F;}
	.st28{fill:#FFECCD;}
	.st29{fill:#FFEDCB;}
	.st30{fill:#FFEBCD;}
	.st31{fill:#FFEBCE;}
	.st32{fill:#FFECCC;}
</style>
<g>
	<g>
		<g>
			<ellipse class="st23" cx="306.986" cy="91.14" rx="35.521" ry="48.569"/>
		</g>
		<g>
			<path class="st10" d="M271.465,91.14c0,16.201,5.806,30.539,14.723,39.363c11.068-10.465,18.072-25.863,18.072-43.046
				c0-15.092-5.406-28.807-14.219-39.014C278.976,56.671,271.465,72.706,271.465,91.14z"/>
		</g>
	</g>
	<g>
		<g>
			<ellipse class="st22" cx="238.102" cy="87.458" rx="52.596" ry="57.085"/>
		</g>
		<g>
			<path class="st23" d="M198.895,49.419c-8.323,10.098-13.389,23.424-13.389,38.038c0,28.824,19.686,52.645,45.26,56.52
				c8.323-10.098,13.389-23.424,13.389-38.039C244.155,77.115,224.469,53.295,198.895,49.419z"/>
		</g>
	</g>
	<g>
		<g>
			<ellipse class="st20" cx="177.998" cy="116.371" rx="52.596" ry="57.085"/>
		</g>
		<g>
			<path class="st23" d="M198.862,163.024c-29.048,0-52.596-25.558-52.596-57.085c0-18.512,8.125-34.957,20.708-45.387
				c-23.754,5.5-41.572,28.397-41.572,55.819c0,31.527,23.548,57.085,52.596,57.085c11.992,0,23.04-4.364,31.888-11.698
				C206.33,162.581,202.644,163.024,198.862,163.024z"/>
		</g>
	</g>
	<g>
		<g>
			<path class="st2" d="M363.852,133.2v-0.002H100.82v314.124h263.018c0.004,0,0.009,0.002,0.013,0.002
				c10.016,0,18.136-70.319,18.136-157.062S373.868,133.2,363.852,133.2z"/>
		</g>
		<g>
			<path class="st25" d="M230.209,99.544H99.185c-9.01,0-14.402,10.061-9.437,17.61l10.551,16.045h129.91h133.668l10.772-15.92
				c5.101-7.538-0.277-17.734-9.354-17.734H230.209z"/>
		</g>
		<g>
			<path class="st25" d="M230.177,480.977H99.183c-9.007,0-14.398-10.061-9.435-17.61l10.549-16.044h129.881h133.638l10.77,15.92
				c5.1,7.538-0.277,17.734-9.352,17.734H230.177z"/>
		</g>
		<g>
			<circle class="st18" cx="233.379" cy="290.26" r="85.154"/>
		</g>
		<g>
			<path class="st22" d="M258.867,294.379c-4.372-5.035-5.668-11.732-4.103-17.934c-1.774-1.038-3.407-2.368-4.82-3.996
				c-7.279-8.383-6.044-21.375,2.759-29.019c0.661-0.574,1.348-1.096,2.053-1.577c-0.852-0.526-1.719-1.035-2.613-1.511
				c-24.872-13.229-56.922-1.605-71.585,25.964s-6.388,60.642,18.485,73.871s56.922,1.605,71.585-25.964
				c2.292-4.308,4.023-8.752,5.218-13.232C269.551,301.593,263.193,299.36,258.867,294.379z"/>
		</g>
		<g>
			<path class="st22" d="M281.955,271.629h-12.22c-1.657,0-3-1.343-3-3v-12.22c0-1.657,1.343-3,3-3h12.22c1.657,0,3,1.343,3,3v12.22
				C284.955,270.285,283.612,271.629,281.955,271.629z"/>
		</g>
		<g>
			<circle class="st22" cx="296.226" cy="271.629" r="5.977"/>
		</g>
		<g>
			<path class="st23" d="M275.081,267.456c-1.728,0-3.13-1.401-3.13-3.13v-10.918h-2.086c-1.728,0-3.13,1.401-3.13,3.13v11.961
				c0,1.728,1.401,3.13,3.13,3.13h11.96c1.729,0,3.13-1.401,3.13-3.13v-1.043H275.081z"/>
		</g>
		<g>
			<circle class="st22" cx="296.226" cy="271.629" r="5.977"/>
		</g>
		<g>
			<path class="st22" d="M289.857,297.676l-7.219-3.308c-1.506-0.69-2.168-2.471-1.478-3.977l3.352-7.316
				c0.69-1.506,2.471-2.168,3.977-1.478l7.219,3.308c1.506,0.69,2.168,2.471,1.478,3.977l-3.352,7.316
				C293.144,297.704,291.363,298.366,289.857,297.676z"/>
		</g>
		<g>
			<path class="st23" d="M287.056,292.853c-1.202-0.551-1.727-1.98-1.172-3.191l3.506-7.652l-1.451-0.665
				c-1.202-0.551-2.627-0.015-3.182,1.196l-3.841,8.384c-0.555,1.211-0.03,2.64,1.172,3.191l8.32,3.812
				c1.202,0.551,2.627,0.015,3.182-1.196l0.335-0.731L287.056,292.853z"/>
		</g>
		<g>
			<path class="st7" d="M140.959,99.544H99.23c-9.045,0-14.459,10.061-9.475,17.609l10.593,16.045h41.729l-10.593-16.045
				C126.5,109.605,131.914,99.544,140.959,99.544z"/>
		</g>
		<g>
			<path class="st7" d="M279.033,470.545H148.018c-9.009,0-14.4-10.061-9.437-17.61l3.69-5.612h-41.974l-10.55,16.044
				c-4.964,7.549,0.428,17.61,9.437,17.61h131.014h135.076c6.298,0,10.81-4.909,11.283-10.432H279.033z"/>
		</g>
		<g>
			<path class="st4" d="M142.077,133.198h-41.729v0.002c-10.016,0-18.136,70.319-18.136,157.062s8.12,157.062,18.136,157.062
				c0.005,0,0.01-0.002,0.015-0.002h41.714V133.198z"/>
		</g>
		<g>
			<path class="st23" d="M219.906,340.178c-24.872-13.229-33.148-46.302-18.485-73.871c8.637-16.239,23.307-26.937,38.989-30.292
				c-22.466-4.999-47.415,6.906-59.854,30.292c-14.663,27.569-6.388,60.642,18.485,73.871c10.222,5.437,21.655,6.668,32.596,4.328
				C227.62,343.612,223.68,342.185,219.906,340.178z"/>
		</g>
		<g>
			<path class="st3" d="M358.46,330.025c-0.255,0-0.511-0.016-0.77-0.049c-3.287-0.421-5.61-3.427-5.189-6.713
				c11.582-90.454-7.849-141.547-8.046-142.053c-1.205-3.083,0.313-6.564,3.394-7.773c3.077-1.21,6.558,0.3,7.773,3.379
				c0.854,2.167,20.794,54.152,8.781,147.971C364.016,327.814,361.434,330.025,358.46,330.025z"/>
		</g>
		<g>
			<g>
				<circle class="st20" cx="238.102" cy="310.389" r="16.619"/>
			</g>
		</g>
		<g>
			<path class="st24" d="M256.974,362.452c-2.604,0-5.002-1.709-5.761-4.336c-0.917-3.174,0.905-6.49,4.071-7.421
				c0.929-0.281,21.397-6.752,36.024-34.591c1.541-2.934,5.169-4.062,8.103-2.521c2.934,1.541,4.062,5.169,2.521,8.102
				c-17.162,32.663-42.23,40.224-43.289,40.53C258.086,362.375,257.525,362.452,256.974,362.452z"/>
		</g>
	</g>
	<g>
		<g>
			
				<ellipse transform="matrix(0.7071 -0.7071 0.7071 0.7071 -205.4788 356.0825)" class="st20" cx="327.09" cy="426.076" rx="52.596" ry="57.085"/>
		</g>
		<g>
			<path class="st22" d="M371.567,451.248c-23.382,17.236-57.501,10.636-76.208-14.741c-10.984-14.901-14.202-32.959-10.262-48.821
				c-15.857,18.522-16.613,47.525-0.342,69.598c18.707,25.377,52.827,31.977,76.208,14.741c9.653-7.116,15.956-17.184,18.726-28.337
				C377.315,446.461,374.611,449.004,371.567,451.248z"/>
		</g>
	</g>
	<g>
		<g>
			<path class="st20" d="M408.997,409.606c-5.931,0.119-10.693-2.849-13.19-7.512c-1.827,0.629-3.724,0.991-5.642,1.029
				c-9.875,0.198-16.519-8.155-14.84-18.658c0.126-0.789,0.301-1.565,0.51-2.331c-0.893,0.286-1.786,0.592-2.68,0.936
				c-24.845,9.574-40.311,38.459-34.545,64.517s30.581,39.42,55.426,29.846c24.845-9.574,40.311-38.459,34.545-64.517
				c-0.901-4.072-2.268-7.835-4.026-11.247C420.553,406.378,414.865,409.489,408.997,409.606z"/>
		</g>
		<g>
			<g>
				<path class="st23" d="M355.302,447.588c-4.549-20.558,4.124-42.868,20.185-56.074c-0.476-2.172-0.561-4.546-0.161-7.048
					c0.126-0.789,0.301-1.565,0.51-2.33c-0.893,0.285-1.786,0.591-2.68,0.936c-24.845,9.574-40.311,38.459-34.545,64.517
					c5.167,23.349,25.629,36.49,47.702,32.085C371.303,476.531,359.122,464.849,355.302,447.588z"/>
			</g>
		</g>
	</g>
	<g>
		<path class="st3" d="M349.045,368.428c-1.328,0-2.666-0.439-3.777-1.342c-2.573-2.088-2.966-5.867-0.877-8.44
			c3.653-4.5,5.15-13.69,5.419-16.851c0.281-3.298,3.171-5.75,6.479-5.476c3.299,0.276,5.752,3.167,5.48,6.466
			c-0.126,1.536-1.423,15.247-8.062,23.424C352.521,367.67,350.791,368.428,349.045,368.428z"/>
	</g>
	<g>
		<g>
			<circle class="st4" cx="167.644" cy="394.135" r="16.619"/>
		</g>
	</g>
	<g>
		<g>
			<circle class="st4" cx="200.888" cy="424.034" r="16.619"/>
		</g>
	</g>
</g>
</svg>
