<?xml version="1.0" encoding="utf-8"?>
<!-- Generator: Adobe Illustrator 22.1.0, SVG Export Plug-In . SVG Version: 6.00 Build 0)  -->
<svg version="1.1" id="Layer_1" xmlns="http://www.w3.org/2000/svg" xmlns:xlink="http://www.w3.org/1999/xlink" x="0px" y="0px"
	 viewBox="0 0 512 512" style="enable-background:new 0 0 512 512;" xml:space="preserve">
<style type="text/css">
	.st0{fill:#FFF9DC;}
	.st1{fill:#FFB74B;}
	.st2{fill:#FF624B;}
	.st3{fill:#FF9079;}
	.st4{fill:#FF4B34;}
	.st5{fill:#FFEACF;}
	.st6{fill:#FFA730;}
	.st7{fill:#FFD551;}
	.st8{fill:#FFF7CA;}
	.st9{fill:#E58D23;}
	.st10{fill:#BF6C0D;}
	.st11{fill:#FFD59A;}
	.st12{fill:#A56021;}
	.st13{fill:#EACF32;}
	.st14{fill:#CCC033;}
	.st15{fill:#FCE575;}
	.st16{fill:#AD9B18;}
	.st17{fill:#FFEEA4;}
	.st18{fill:#FFF4C1;}
	.st19{fill:#FFDF74;}
	.st20{fill:#FFC34C;}
	.st21{fill:#8C4C17;}
	.st22{fill:#F9BB32;}
	.st23{fill:#DB9C2E;}
	.st24{fill:#FCF9DE;}
	.st25{fill:#FFEA63;}
	.st26{fill:#99AF17;}
	.st27{fill:#FCDA4F;}
	.st28{fill:#FFECCD;}
	.st29{fill:#FFEDCB;}
	.st30{fill:#FFEBCD;}
	.st31{fill:#FFEBCE;}
	.st32{fill:#FFECCC;}
</style>
<g>
	<g>
		<g>
			<path class="st7" d="M450,249.635H62c0,55.675,28.955,105.261,74.05,137.232v2.368c0,19.33,15.67,35,35,35h84.944
				c0.002,0,0.004,0,0.005,0s0.004,0,0.005,0h84.944c19.33,0,35-15.67,35-35v-2.368C421.045,354.896,450,305.309,450,249.635z"/>
		</g>
		<g>
			<path class="st20" d="M450,249.635H102H62c0,1.566,0.031,3.126,0.076,4.683c0.014,0.471,0.034,0.941,0.052,1.411
				c0.043,1.138,0.099,2.275,0.166,3.411c0.027,0.459,0.053,0.918,0.084,1.376c0.105,1.539,0.225,3.074,0.374,4.602
				c0,0.003,0,0.006,0.001,0.01c0.149,1.531,0.328,3.054,0.521,4.573c0.057,0.451,0.121,0.902,0.182,1.352
				c0.152,1.119,0.316,2.237,0.492,3.353c0.07,0.446,0.139,0.893,0.213,1.338c0.25,1.502,0.515,3.001,0.807,4.491l0,0
				c8.457,43.051,34.441,80.656,71.081,106.632v2.368c0,19.33,15.67,35,35,35h40c-19.33,0-35-15.67-35-35v-2.368
				c-34.893-24.738-60.124-60.023-69.753-100.516c-0.743-3.125,1.665-6.117,4.877-6.117h335.857
				C448.982,270.299,450,260.074,450,249.635z"/>
		</g>
		<g>
			<path class="st15" d="M463,263.234H49c-8.284,0-15-6.716-15-15v-12.1c0-8.284,6.716-15,15-15h414c8.284,0,15,6.716,15,15v12.1
				C478,256.518,471.284,263.234,463,263.234z"/>
		</g>
		<g>
			<path class="st19" d="M329.333,382.135h-40.314c-3.313,0-6-2.687-6-6s2.687-6,6-6h40.314c3.313,0,6,2.687,6,6
				S332.647,382.135,329.333,382.135z"/>
		</g>
		<g>
			<path class="st19" d="M353.381,378.136c-2.581,0-4.965-1.678-5.745-4.277c-0.951-3.169,0.843-6.509,4.008-7.467l0,0
				c0.372-0.114,37.367-11.844,52.09-52.948c1.117-3.12,4.552-4.744,7.672-3.625c3.12,1.117,4.743,4.552,3.625,7.672
				c-16.828,46.979-58.172,59.865-59.924,60.39C354.533,378.054,353.952,378.136,353.381,378.136z"/>
		</g>
		<g>
			<path class="st7" d="M79,253.234c-8.284,0-15-6.716-15-15v-12.1c0-1.756,0.317-3.434,0.872-5H49c-8.284,0-15,6.716-15,15v12.1
				c0,8.284,6.716,15,15,15h414c6.528,0,12.067-4.178,14.128-10H79z"/>
		</g>
		<g>
			<g>
				<circle class="st20" cx="363.837" cy="311.143" r="15.931"/>
			</g>
		</g>
	</g>
	<g>
		<g>
			<path class="st9" d="M247.037,337.869c-1.164-1.501-2.391-2.814-3.673-3.94c-20.025-17.586-52.539-29.069-89.037-29.093
				c-36.499-0.024-68.56,11.417-87.892,28.977c-1.238,1.125-2.413,2.436-3.518,3.935c-4.53,6.148-16.271,23.785-15.93,41.043v0
				c0.482,24.431,11.839,44.243,25.367,44.252l168.613,0.111c13.528,0.009,24.103-19.789,23.621-44.22v0
				C264.246,361.676,251.81,344.023,247.037,337.869z"/>
		</g>
		<g>
			<path class="st20" d="M191.654,309.037l0.647,32.773c0.158,8.012,3.883,14.51,8.319,14.513h0.002
				c4.436,0.003,7.905-6.49,7.747-14.502l-0.553-28.05C202.665,311.929,197.266,310.34,191.654,309.037z"/>
		</g>
		<g>
			<path class="st20" d="M154.326,304.836c-2.592-0.002-5.159,0.06-7.704,0.172l0.702,35.576c0.158,8.012,3.883,14.51,8.319,14.513
				h0.002c4.437,0.003,7.905-6.49,7.747-14.502l-0.701-35.543C159.927,304.916,157.14,304.838,154.326,304.836z"/>
		</g>
		<g>
			<path class="st20" d="M110.654,355.067h0.002c4.437,0.003,7.905-6.49,7.747-14.502l-0.626-31.719
				c-5.558,1.27-10.895,2.826-15.976,4.634l0.534,27.075C102.493,348.566,106.217,355.064,110.654,355.067z"/>
		</g>
		<g>
			<path class="st10" d="M256.486,408.636l-168.613-0.111c-13.528-0.009-24.885-19.821-25.367-44.252l0,0
				C62.208,349.138,71.2,333.713,76.473,326c-3.639,2.439-6.997,5.05-10.039,7.812c-1.238,1.125-2.413,2.436-3.518,3.935
				c-4.53,6.148-16.271,23.785-15.93,41.043l0,0c0.482,24.431,11.839,44.243,25.367,44.252l168.613,0.111
				c7.254,0.005,13.656-5.69,17.963-14.736C258.126,408.561,257.312,408.637,256.486,408.636z"/>
		</g>
		<g>
			<path class="st1" d="M114.464,347.805h-0.002c-4.437-0.003-8.161-6.5-8.319-14.513l-0.417-21.143
				c-1.325,0.427-2.633,0.87-3.926,1.33l0.534,27.075c0.158,8.012,3.883,14.51,8.319,14.513h0.002
				c3.278,0.002,6.021-3.546,7.17-8.627C116.813,347.308,115.677,347.806,114.464,347.805z"/>
		</g>
		<g>
			<path class="st1" d="M159.454,347.835h-0.002c-4.437-0.003-8.161-6.5-8.319-14.513l-0.561-28.444
				c-1.322,0.029-2.639,0.072-3.949,0.13l0.702,35.576c0.158,8.012,3.883,14.51,8.319,14.513h0.002
				c3.277,0.002,6.021-3.546,7.17-8.627C161.802,347.337,160.666,347.836,159.454,347.835z"/>
		</g>
		<g>
			<path class="st1" d="M204.43,349.062h-0.002c-4.437-0.003-8.161-6.501-8.319-14.513l-0.484-24.532
				c-1.312-0.342-2.635-0.67-3.971-0.98l0.647,32.773c0.158,8.012,3.883,14.51,8.319,14.513h0.002
				c3.277,0.002,6.021-3.546,7.17-8.627C206.779,348.564,205.643,349.063,204.43,349.062z"/>
		</g>
		<g>
			<path class="st6" d="M245.1,396.237c-0.035,0-0.07,0-0.106-0.001c-3.313-0.058-5.953-2.79-5.895-6.103
				c0.505-29.131-12.539-35.796-13.095-36.066l0.113,0.051l4.766-11.013c0.853,0.369,20.869,9.469,20.214,47.236
				C251.04,393.619,248.365,396.237,245.1,396.237z"/>
		</g>
		<g>
			<g>
				<circle class="st10" cx="110.383" cy="382.069" r="15.931"/>
			</g>
		</g>
	</g>
	<g>
		<g>
			<path class="st12" d="M467.231,103.763H280.766V76.111h186.465c5.523,0,10,4.477,10,10v7.651
				C477.231,99.286,472.754,103.763,467.231,103.763z"/>
		</g>
		<g>
			<path class="st21" d="M467.9,95.63H311.451c-4.123,0-7.465-2.913-7.465-6.506V76.111h-23.22V95.63v8.133h23.22H467.9
				c5.153,0,9.331-3.641,9.331-8.133v-8.133C477.231,91.989,473.053,95.63,467.9,95.63z"/>
		</g>
		<g>
			<ellipse class="st12" cx="224.868" cy="76.865" rx="63.382" ry="26.5"/>
		</g>
		<g>
			<ellipse class="st21" cx="224.868" cy="75.865" rx="58.382" ry="21.5"/>
		</g>
		<g>
			<ellipse class="st11" cx="224.731" cy="80.569" rx="55" ry="16.796"/>
		</g>
		<g>
			<path class="st12" d="M224.868,103.365c-35.005,0-63.382-11.864-63.382-26.5c-0.172,1.565-0.274,3.147-0.274,4.75
				c0,28.788,28.438,52.125,63.519,52.125s63.519-23.337,63.519-52.125c0-1.044-0.056-2.077-0.134-3.105
				C286.083,92.379,258.55,103.365,224.868,103.365z"/>
		</g>
		<g>
			<path class="st11" d="M216.959,162.341L216.959,162.341c-9.194,0-16.647-7.453-16.647-16.647V83.272h33.294v62.422
				C233.606,154.888,226.153,162.341,216.959,162.341z"/>
		</g>
		<g>
			<g>
				<path class="st2" d="M209.107,90.174h-4.482c-6.6,0-12-5.4-12-12v0c0-6.6,5.4-12,12-12h4.482c6.6,0,12,5.4,12,12v0
					C221.107,84.774,215.707,90.174,209.107,90.174z"/>
			</g>
			<g>
				<path class="st4" d="M218.107,85.174h-4.482c-6.6,0-12-5.4-12-12c0-2.593,0.843-4.994,2.255-6.962
					c-6.255,0.39-11.255,5.614-11.255,11.962c0,6.6,5.4,12,12,12h4.482c4.007,0,7.563-1.998,9.745-5.038
					C218.605,85.152,218.359,85.174,218.107,85.174z"/>
			</g>
		</g>
		<g>
			<g>
				<path class="st1" d="M243.972,81.827h-9.252c-5.288,0-9.615-4.327-9.615-9.615v0c0-5.288,4.327-9.615,9.615-9.615h9.252
					c5.288,0,9.615,4.327,9.615,9.615v0C253.587,77.5,249.261,81.827,243.972,81.827z"/>
			</g>
			<g>
				<path class="st6" d="M250.587,77.821h-4.482c-6.6,0-12-4.327-12-9.615c0-2.078,0.843-4.002,2.255-5.579
					c-6.255,0.313-11.255,4.498-11.255,9.585c0,5.288,5.4,9.615,12,9.615h4.482c4.007,0,7.563-1.601,9.745-4.037
					C251.085,77.803,250.839,77.821,250.587,77.821z"/>
			</g>
		</g>
		<g>
			<rect x="241.606" y="83.272" class="st11" width="33.294" height="143.593"/>
		</g>
	</g>
	<g>
		<g>
			<path class="st1" d="M424.512,461.635H86.616c-5.523,0-10-4.477-10-10v-15h357.896v15
				C434.512,457.157,430.035,461.635,424.512,461.635z"/>
		</g>
		<g>
			<path class="st6" d="M86.185,450.635h348.327v-14H76.616v15c0,5.523,4.284,10,9.569,10V450.635z"/>
		</g>
		<g>
			<path class="st1" d="M467.128,442.734H44c-5.523,0-10-4.477-10-10l0,0c0-5.523,4.477-10,10-10h423.128c5.523,0,10,4.477,10,10
				l0,0C477.128,438.257,472.651,442.734,467.128,442.734z"/>
		</g>
	</g>
</g>
</svg>
