<?xml version="1.0" encoding="utf-8"?>
<!-- Generator: Adobe Illustrator 22.1.0, SVG Export Plug-In . SVG Version: 6.00 Build 0)  -->
<svg version="1.1" id="Layer_1" xmlns="http://www.w3.org/2000/svg" xmlns:xlink="http://www.w3.org/1999/xlink" x="0px" y="0px"
	 viewBox="0 0 512 512" style="enable-background:new 0 0 512 512;" xml:space="preserve">
<style type="text/css">
	.st0{fill:#FFF9DC;}
	.st1{fill:#FFB74B;}
	.st2{fill:#FF624B;}
	.st3{fill:#FF9079;}
	.st4{fill:#FF4B34;}
	.st5{fill:#FFEACF;}
	.st6{fill:#FFA730;}
	.st7{fill:#FFD551;}
	.st8{fill:#FFF7CA;}
	.st9{fill:#E58D23;}
	.st10{fill:#BF6C0D;}
	.st11{fill:#FFD59A;}
	.st12{fill:#A56021;}
	.st13{fill:#EACF32;}
	.st14{fill:#CCC033;}
	.st15{fill:#FCE575;}
	.st16{fill:#AD9B18;}
	.st17{fill:#FFEEA4;}
	.st18{fill:#FFF4C1;}
	.st19{fill:#FFDF74;}
	.st20{fill:#FFC34C;}
	.st21{fill:#8C4C17;}
	.st22{fill:#F9BB32;}
	.st23{fill:#DB9C2E;}
	.st24{fill:#FCF9DE;}
	.st25{fill:#FFEA63;}
	.st26{fill:#99AF17;}
	.st27{fill:#FCDA4F;}
	.st28{fill:#FFECCD;}
	.st29{fill:#FFEDCB;}
	.st30{fill:#FFEBCD;}
	.st31{fill:#FFEBCE;}
	.st32{fill:#FFECCC;}
</style>
<g>
	<g>
		<g>
			<path class="st29" d="M277.326,465.437H160.257c-28.655,0-52.668-25.953-55.596-60.087L75.334,63.423
				c-0.774-9.019,5.136-16.86,12.708-16.86h261.5c7.571,0,13.481,7.841,12.708,16.86L332.922,405.35
				C329.995,439.484,305.982,465.437,277.326,465.437z"/>
		</g>
	</g>
	<g>
		<g>
			<path class="st24" d="M160.256,439.417c-14.892,0-27.925-14.906-29.67-33.935L103.12,106.048
				c-0.475-5.183,3.605-9.655,8.81-9.655h213.724c5.205,0,9.285,4.472,8.81,9.655l-27.466,299.432
				c-1.745,19.03-14.778,33.936-29.67,33.936H160.256z"/>
		</g>
	</g>
	<g>
		<g>
			<path class="st29" d="M285.741,368.937c-0.153,0-0.308-0.006-0.462-0.018c-3.305-0.251-5.779-3.134-5.527-6.438l12.721-167.091
				c0.251-3.306,3.159-5.784,6.438-5.527c3.305,0.251,5.779,3.134,5.527,6.438l-12.721,167.091
				C291.478,366.541,288.848,368.937,285.741,368.937z"/>
		</g>
	</g>
	<g>
		<g>
			<path class="st29" d="M301.997,167.308c-0.151,0-0.303-0.005-0.456-0.017c-3.305-0.248-5.782-3.128-5.534-6.433l2.919-38.895
				c0.248-3.305,3.132-5.783,6.433-5.534c3.305,0.248,5.782,3.128,5.534,6.433l-2.919,38.895
				C307.737,164.908,305.106,167.308,301.997,167.308z"/>
		</g>
	</g>
	<g>
		<g>
			<path class="st11" d="M156.7,405.349L127.373,63.424c-0.773-9.019,5.137-16.86,12.708-16.86H88.042
				c-7.571,0-13.482,7.841-12.708,16.86l29.327,341.926c2.928,34.134,26.941,60.087,55.596,60.087h52.039
				C183.641,465.436,159.628,439.484,156.7,405.349z"/>
		</g>
	</g>
	<g>
		<g>
			<path class="st18" d="M170.483,405.482L142.131,96.393H111.93c-5.205,0-9.285,4.472-8.81,9.655l27.466,299.434
				c1.745,19.029,14.778,33.935,29.67,33.935h39.897C185.261,439.417,172.228,424.512,170.483,405.482z"/>
		</g>
	</g>
	<g>
		<g>
			<g>
				<circle class="st29" cx="194.7" cy="155.164" r="15.783"/>
			</g>
		</g>
	</g>
	<g>
		<g>
			<g>
				<circle class="st29" cx="213.382" cy="191.739" r="15.783"/>
			</g>
		</g>
	</g>
	<g>
		<g>
			<g>
				
					<ellipse transform="matrix(0.9587 -0.2844 0.2844 0.9587 -103.8214 96.3413)" class="st20" cx="279.873" cy="405.714" rx="66.79" ry="58.154"/>
			</g>
		</g>
		<g>
			<g>
				<path class="st22" d="M325.072,441.431c-35.364,10.49-71.437-5.969-80.571-36.76c-5.462-18.414-0.046-37.779,12.748-52.619
					c-31.671,12.333-50.006,43.675-41.409,72.656c9.134,30.792,45.207,47.25,80.571,36.76c14.216-4.217,26.146-12.151,34.747-22.128
					C329.179,440.111,327.152,440.814,325.072,441.431z"/>
			</g>
		</g>
		<g>
			<g>
				<path class="st23" d="M239.685,382.65c-2.302,0-4.497-1.332-5.489-3.572c-1.342-3.029,0.026-6.573,3.057-7.916l39.627-17.553
					c3.027-1.34,6.574,0.027,7.916,3.057s-0.026,6.573-3.057,7.916l-39.627,17.553C241.322,382.484,240.496,382.65,239.685,382.65z"
					/>
			</g>
		</g>
	</g>
	<g>
		<g>
			<g>
				<ellipse class="st19" cx="369.944" cy="405.851" rx="66.79" ry="58.154"/>
			</g>
		</g>
		<g>
			<g>
				<path class="st7" d="M403.12,452.947c-36.887,0-66.79-26.038-66.79-58.155c0-19.207,10.699-36.232,27.186-46.821
					c-33.87,2.818-60.362,27.651-60.362,57.88c0,32.118,29.903,58.155,66.79,58.155c14.828,0,28.522-4.214,39.605-11.333
					C407.432,452.849,405.29,452.947,403.12,452.947z"/>
			</g>
		</g>
		<g>
			<g>
				<path class="st22" d="M391.347,370.888h-43.34c-3.313,0-6-2.687-6-6s2.687-6,6-6h43.34c3.313,0,6,2.687,6,6
					S394.66,370.888,391.347,370.888z"/>
			</g>
		</g>
	</g>
</g>
</svg>
