<?xml version="1.0" encoding="utf-8"?>
<!-- Generator: Adobe Illustrator 22.1.0, SVG Export Plug-In . SVG Version: 6.00 Build 0)  -->
<svg version="1.1" id="Layer_1" xmlns="http://www.w3.org/2000/svg" xmlns:xlink="http://www.w3.org/1999/xlink" x="0px" y="0px"
	 viewBox="0 0 512 512" style="enable-background:new 0 0 512 512;" xml:space="preserve">
<style type="text/css">
	.st0{fill:#FFF9DC;}
	.st1{fill:#FFB74B;}
	.st2{fill:#FF624B;}
	.st3{fill:#FF9079;}
	.st4{fill:#FF4B34;}
	.st5{fill:#FFEACF;}
	.st6{fill:#FFA730;}
	.st7{fill:#FFD551;}
	.st8{fill:#FFF7CA;}
	.st9{fill:#E58D23;}
	.st10{fill:#BF6C0D;}
	.st11{fill:#FFD59A;}
	.st12{fill:#A56021;}
	.st13{fill:#EACF32;}
	.st14{fill:#CCC033;}
	.st15{fill:#FCE575;}
	.st16{fill:#AD9B18;}
	.st17{fill:#FFEEA4;}
	.st18{fill:#FFF4C1;}
	.st19{fill:#FFDF74;}
	.st20{fill:#FFC34C;}
	.st21{fill:#8C4C17;}
	.st22{fill:#F9BB32;}
	.st23{fill:#DB9C2E;}
	.st24{fill:#FCF9DE;}
	.st25{fill:#FFEA63;}
	.st26{fill:#99AF17;}
	.st27{fill:#FCDA4F;}
	.st28{fill:#FFECCD;}
	.st29{fill:#FFEDCB;}
	.st30{fill:#FFEBCD;}
	.st31{fill:#FFEBCE;}
	.st32{fill:#FFECCC;}
</style>
<g>
	<g>
		<g>
			<path class="st12" d="M267.196,106.853H123.54v204.57c0,17.852,41.747,32.325,93.244,32.325s93.244-14.473,93.244-32.325v-204.57
				H267.196z"/>
		</g>
		<g>
			<ellipse class="st21" cx="216.784" cy="106.853" rx="93.244" ry="38"/>
		</g>
		<g>
			<path class="st21" d="M256.784,326.735c-51.497,0-93.244-14.473-93.244-32.325V106.853h-40v204.57
				c0,17.852,41.747,32.325,93.244,32.325c40.675,0,75.261-9.03,88.004-21.622C290.765,325.051,274.342,326.735,256.784,326.735z"/>
		</g>
		<g>
			<ellipse class="st24" cx="216.784" cy="106.853" rx="88.244" ry="33"/>
		</g>
		<g>
			<ellipse class="st2" cx="216.784" cy="106.853" rx="39.25" ry="18.547"/>
		</g>
		<g>
			<path class="st5" d="M148.54,109.853c0-15.608,36.24-33,88.244-33c7.389,0,14.447,0.362,21.141,1.009
				c-12.02-2.506-25.895-4.009-41.141-4.009c-52.004,0-88.244,17.392-88.244,33c0,13.391,26.686,28.083,67.103,31.991
				C166.662,132.801,148.54,120.886,148.54,109.853z"/>
		</g>
		<g>
			<path class="st10" d="M286.721,191.396c-3.313,0-6-2.686-6-6v-24.164c0-3.314,2.687-6,6-6s6,2.686,6,6v24.164
				C292.721,188.71,290.034,191.396,286.721,191.396z"/>
		</g>
		<g>
			<path class="st10" d="M286.721,304.447c-3.313,0-6-2.686-6-6v-91.214c0-3.314,2.687-6,6-6s6,2.686,6,6v91.214
				C292.721,301.76,290.034,304.447,286.721,304.447z"/>
		</g>
		<g>
			<g>
				<circle class="st21" cx="186.784" cy="170.693" r="16.619"/>
			</g>
		</g>
		<g>
			<path class="st4" d="M187.534,116.853c0-10.243,17.573-18.547,39.25-18.547c11.419,0,21.696,2.306,28.868,5.984
				c-2.642-9.03-19.032-15.984-38.868-15.984c-21.677,0-39.25,8.304-39.25,18.547c0,4.847,3.939,9.258,10.382,12.563
				C187.671,118.578,187.534,117.723,187.534,116.853z"/>
		</g>
	</g>
	<g>
		<g>
			<path class="st24" d="M271.622,373.848H114.334c-29.177,0-52.829-23.652-52.829-52.829v-15.466
				c0-29.177,23.652-52.829,52.829-52.829h157.288c29.177,0,52.829,23.652,52.829,52.829v15.466
				C324.452,350.196,300.799,373.848,271.622,373.848z"/>
		</g>
		<g>
			<path class="st5" d="M301.622,363.849H144.334c-29.177,0-52.829-23.652-52.829-52.829v-15.466
				c0-17.615,8.63-33.207,21.884-42.805c-28.739,0.506-51.884,23.946-51.884,52.805v15.466c0,29.177,23.653,52.829,52.829,52.829
				h157.288c11.561,0,22.247-3.725,30.946-10.024C302.252,363.83,301.939,363.849,301.622,363.849z"/>
		</g>
		<g>
			<path class="st2" d="M312.271,239.429c-20.229-14.868-65.685-25.232-118.526-25.232c-49.149,0-91.911,8.966-113.925,22.183
				c-16.81,6.846-28.664,23.338-28.664,42.607v0c0,15.242,12.356,27.597,27.598,27.597h228.45c15.242,0,27.598-12.356,27.598-27.597
				v0C334.801,262.158,325.758,247.447,312.271,239.429z"/>
		</g>
		<g>
			<path class="st4" d="M109.418,291.253c-15.242,0-27.598-12.356-27.598-27.597v0c0-14.626,6.833-27.647,17.475-36.069
				c-7.572,2.637-14.138,5.589-19.476,8.794c-16.81,6.846-28.664,23.338-28.664,42.607v0c0,15.242,12.356,27.597,27.598,27.597
				h228.45c10.835,0,20.205-6.247,24.722-15.332H109.418z"/>
		</g>
		<g>
			<path class="st3" d="M278.713,224.603v81.982h14.883v-76.992C289.056,227.799,284.079,226.13,278.713,224.603z"/>
		</g>
		<g>
			<path class="st3" d="M232.717,216.156v90.429h14.883v-88.552C242.788,217.311,237.822,216.682,232.717,216.156z"/>
		</g>
		<g>
			<path class="st3" d="M193.745,214.196c-2.359,0-4.697,0.027-7.025,0.068v92.32h14.883V214.28
				C199.001,214.229,196.385,214.196,193.745,214.196z"/>
		</g>
		<g>
			<path class="st3" d="M140.724,217.907v88.678h14.883v-90.514C150.504,216.585,145.536,217.199,140.724,217.907z"/>
		</g>
		<g>
			<g>
				<g>
					<path class="st2" d="M324.763,301.264v-65.285c0-19.33,15.67-35,35-35h26.531c2.209,0,4,1.791,4,4v66.285
						c0,16.569-13.431,30-30,30H324.763z"/>
				</g>
				<g>
					<path class="st4" d="M324.763,285.249h61.626c2.47-4.121,3.906-9.001,3.906-14.236v-53.424H353.99
						c-14.862,0-27.156,11.573-29.227,26.637V285.249z"/>
				</g>
			</g>
			<g>
				<path class="st4" d="M324.452,301.264v-32.66c0-19.33,15.67-35,35-35h61.942c2.209,0,4,1.791,4,4v33.66
					c0,16.569-13.431,30-30,30H324.452z"/>
			</g>
			<g>
				<path class="st2" d="M353.99,251.4h71.404v-13.795c0-2.209-1.791-4-4-4H353.99c-16.314,0-29.538,13.943-29.538,31.142v17.795
					C324.452,265.342,337.676,251.4,353.99,251.4z"/>
			</g>
		</g>
		<g>
			<rect x="140.724" y="291.253" class="st2" width="14.883" height="15.332"/>
		</g>
		<g>
			<path class="st3" d="M91.818,230.427v76.158h14.883v-81.382C101.309,226.804,96.327,228.551,91.818,230.427z"/>
		</g>
		<g>
			<g>
				<path class="st2" d="M91.818,235.053c2.2-2.762,4.703-5.271,7.472-7.463c-0.034,0.012-0.07,0.023-0.103,0.035
					c-0.398,0.139-0.783,0.282-1.176,0.423c-0.701,0.251-1.396,0.504-2.079,0.761c-0.458,0.172-0.911,0.347-1.361,0.521
					c-0.653,0.254-1.295,0.51-1.93,0.769c-0.275,0.112-0.552,0.224-0.823,0.336V235.053z"/>
			</g>
			<g>
				<path class="st2" d="M106.701,291.118c-5.628-0.55-10.76-2.79-14.883-6.207v21.673h14.883V291.118z"/>
			</g>
		</g>
		<g>
			<rect x="186.724" y="291.253" class="st2" width="14.883" height="15.332"/>
		</g>
		<g>
			<rect x="232.724" y="291.253" class="st2" width="14.883" height="15.332"/>
		</g>
		<g>
			<rect x="278.724" y="291.253" class="st2" width="14.883" height="15.332"/>
		</g>
	</g>
	<g>
		<path class="st24" d="M385.066,443.147H227.778c-29.177,0-52.829-23.652-52.829-52.829v-15.466
			c0-29.177,23.652-52.829,52.829-52.829h157.288c29.177,0,52.829,23.652,52.829,52.829v15.466
			C437.895,419.494,414.243,443.147,385.066,443.147z"/>
	</g>
	<g>
		<path class="st5" d="M415.066,433.147H257.778c-29.177,0-52.829-23.652-52.829-52.829v-15.466c0-17.615,8.63-33.207,21.884-42.805
			c-28.739,0.506-51.884,23.946-51.884,52.805v15.466c0,29.177,23.653,52.829,52.829,52.829h157.288
			c11.561,0,22.247-3.725,30.946-10.024C415.696,433.128,415.383,433.147,415.066,433.147z"/>
	</g>
	<g>
		<rect x="278.713" y="291.253" class="st2" width="14.883" height="15.332"/>
	</g>
	<g>
		<rect x="232.717" y="291.253" class="st2" width="14.883" height="15.332"/>
	</g>
	<g>
		<rect x="186.72" y="291.253" class="st2" width="14.883" height="15.332"/>
	</g>
	<g>
		<path class="st7" d="M440.844,371.391H179.212c-11.046,0-20-8.954-20-20v-44.469c0-11.046,8.954-20,20-20h261.632
			c11.046,0,20,8.954,20,20v44.469C460.844,362.436,451.89,371.391,440.844,371.391z"/>
	</g>
	<g>
		<g>
			<circle class="st20" cx="423.721" cy="313.286" r="15.931"/>
		</g>
	</g>
	<g>
		<g>
			<circle class="st20" cx="378.528" cy="329.22" r="15.931"/>
		</g>
	</g>
	<g>
		<path class="st5" d="M395.017,423.334c-3.313,0-6-2.687-6-6s2.687-6,6-6c5.868,0,10.227-1.68,13.325-5.136
			c7.167-7.992,5.642-22.797,5.625-22.946c-0.359-3.289,2.01-6.255,5.297-6.623c3.286-0.371,6.251,1.987,6.627,5.273
			c0.094,0.82,2.174,20.213-8.568,32.255C411.891,420.247,404.386,423.334,395.017,423.334z"/>
	</g>
	<g>
		<path class="st20" d="M199.212,331.391v-44.47h-20c-11.046,0-20,8.954-20,20v44.47c0,11.046,8.954,20,20,20h261.632
			c11.046,0,20-8.954,20-20H219.212C208.166,351.391,199.212,342.436,199.212,331.391z"/>
	</g>
	<g>
		<path class="st12" d="M346.512,443.147h-72.969c-2.209,0-4-1.791-4-4V290.921c0-2.209,1.791-4,4-4h72.969c2.209,0,4,1.791,4,4
			v148.226C350.512,441.356,348.722,443.147,346.512,443.147z"/>
	</g>
	<g>
		<path class="st21" d="M269.543,290.921v148.226c0,2.209,1.791,4,4,4h26V286.921h-26
			C271.334,286.921,269.543,288.712,269.543,290.921z"/>
	</g>
</g>
</svg>
