<?xml version="1.0" encoding="utf-8"?>
<!-- Generator: Adobe Illustrator 22.1.0, SVG Export Plug-In . SVG Version: 6.00 Build 0)  -->
<svg version="1.1" id="Layer_1" xmlns="http://www.w3.org/2000/svg" xmlns:xlink="http://www.w3.org/1999/xlink" x="0px" y="0px"
	 viewBox="0 0 512 512" style="enable-background:new 0 0 512 512;" xml:space="preserve">
<style type="text/css">
	.st0{fill:#FFF9DC;}
	.st1{fill:#FFB74B;}
	.st2{fill:#FF624B;}
	.st3{fill:#FF9079;}
	.st4{fill:#FF4B34;}
	.st5{fill:#FFEACF;}
	.st6{fill:#FFA730;}
	.st7{fill:#FFD551;}
	.st8{fill:#FFF7CA;}
	.st9{fill:#E58D23;}
	.st10{fill:#BF6C0D;}
	.st11{fill:#FFD59A;}
	.st12{fill:#A56021;}
	.st13{fill:#EACF32;}
	.st14{fill:#CCC033;}
	.st15{fill:#FCE575;}
	.st16{fill:#AD9B18;}
	.st17{fill:#FFEEA4;}
	.st18{fill:#FFF4C1;}
	.st19{fill:#FFDF74;}
	.st20{fill:#FFC34C;}
	.st21{fill:#8C4C17;}
	.st22{fill:#F9BB32;}
	.st23{fill:#DB9C2E;}
	.st24{fill:#FCF9DE;}
	.st25{fill:#FFEA63;}
	.st26{fill:#99AF17;}
	.st27{fill:#FCDA4F;}
	.st28{fill:#FFECCD;}
	.st29{fill:#FFEDCB;}
	.st30{fill:#FFEBCD;}
	.st31{fill:#FFEBCE;}
	.st32{fill:#FFECCC;}
</style>
<g>
	<g>
		<path class="st5" d="M382.78,124.116H129.22c-7.268,0-12.971,6.235-12.324,13.474l9.01,100.802
			c0.57,6.381,5.917,11.272,12.324,11.272h2.728l19.639,216.11c1.044,11.487,10.83,20.289,22.555,20.289h145.642
			c11.725,0,21.511-8.803,22.555-20.289l19.639-216.11h2.782c6.407,0,11.753-4.89,12.324-11.272l9.009-100.802
			C395.75,130.351,390.048,124.116,382.78,124.116z"/>
	</g>
	<g>
		<g>
			<path class="st3" d="M256.603,449.55l-6.883-0.007c-4.418-0.005-7.996-3.59-7.992-8.008l0.425-407.606
				c0.005-4.418,3.59-7.996,8.008-7.992l6.883,0.007c4.418,0.005,7.996,3.59,7.992,8.008l-0.425,407.606
				C264.607,445.977,261.022,449.555,256.603,449.55z"/>
		</g>
		<g>
			<path class="st2" d="M253.729,441.535l0.426-407.606c0.004-3.516,2.278-6.493,5.432-7.563c-0.799-0.269-1.652-0.421-2.541-0.422
				l-6.883-0.007c-4.418-0.005-8.004,3.573-8.008,7.991l-0.426,407.606c-0.004,4.418,3.573,8.004,7.992,8.008l6.883,0.007
				c0.902,0.001,1.767-0.154,2.576-0.429C256.01,448.055,253.725,445.064,253.729,441.535z"/>
		</g>
	</g>
	<g>
		<path class="st11" d="M208.439,465.774l-19.639-216.11h-2.728c-6.406,0-11.753-4.89-12.324-11.272l-9.01-100.802
			c-0.647-7.239,5.056-13.474,12.324-13.474H129.22c-7.268,0-12.971,6.235-12.324,13.474l9.01,100.802
			c0.57,6.381,5.917,11.272,12.324,11.272h2.728l19.639,216.11c1.044,11.487,10.83,20.289,22.555,20.289h47.841
			C219.269,486.063,209.482,477.26,208.439,465.774z"/>
	</g>
	<g>
		<path class="st24" d="M323.069,203.604l-46.274-21.466c-7.515-3.486-10.781-12.404-7.295-19.919l21.466-46.274
			c3.486-7.515,12.404-10.781,19.919-7.295l46.274,21.466c7.515,3.486,10.781,12.404,7.295,19.919l-21.466,46.274
			C339.502,203.824,330.584,207.091,323.069,203.604z"/>
	</g>
	<g>
		<path class="st18" d="M298.324,178.487l23.677-51.041c2.875-6.199,10.232-8.893,16.43-6.017l-29.93-13.884
			c-6.199-2.875-13.555-0.181-16.43,6.017l-23.677,51.041c-2.875,6.199-0.181,13.555,6.017,16.43l29.93,13.884
			C298.143,192.042,295.449,184.686,298.324,178.487z"/>
	</g>
	<g>
		<path class="st9" d="M181.228,469.566c-3.219,0-5.852-2.272-6.126-5.285l-20.458-225.113c-0.309-3.399-3.159-6.002-6.572-6.002
			h-4.223c-2.151,0-3.917-1.615-4.108-3.757l-5.577-62.402c-0.085-0.945,0.364-1.589,0.639-1.89c0.275-0.3,0.877-0.805,1.826-0.805
			h234.893c0.949,0,1.551,0.504,1.826,0.805s0.723,0.946,0.639,1.891l-5.577,62.402c-0.191,2.142-1.957,3.757-4.108,3.757h-4.276
			c-3.413,0-6.263,2.603-6.572,6.002l-20.458,225.113c-0.274,3.013-2.907,5.285-6.126,5.285H181.228z"/>
	</g>
	<g>
		<path class="st1" d="M268.529,164.175l-0.135,0.285c-2.876,6.096-0.182,13.33,6.017,16.158l51.041,23.286
			c6.199,2.827,13.555,0.178,16.43-5.918l15.948-33.811H268.529z"/>
	</g>
	<g>
		<path class="st6" d="M304.9,164.313h-36.371l-0.135,0.283c-2.875,6.042-0.182,13.212,6.017,16.015l29.931,13.534
			c-6.199-2.803-8.893-9.973-6.018-16.016L304.9,164.313z"/>
	</g>
	<g>
		<g>
			<path class="st24" d="M258.04,181.08l-44.115,25.61c-7.165,4.159-16.344,1.723-20.503-5.442l-25.11-43.254
				c-4.159-7.165-1.723-16.344,5.442-20.503l44.115-25.61c7.165-4.159,16.344-1.723,20.503,5.442l25.11,43.254
				C267.641,167.741,265.204,176.92,258.04,181.08z"/>
		</g>
		<g>
			<path class="st18" d="M223.351,187.087l-27.901-48.061c-3.388-5.837-1.345-13.35,4.565-16.781L171.48,138.81
				c-5.91,3.431-7.953,10.944-4.565,16.781l27.901,48.061c3.388,5.837,10.926,7.788,16.836,4.357l28.534-16.565
				C234.277,194.875,226.739,192.924,223.351,187.087z"/>
		</g>
		<g>
			<path class="st1" d="M195.24,203.649c3.431,5.821,11.003,7.801,16.912,4.422l48.66-27.829c5.712-3.266,7.765-10.34,4.799-16.067
				h-93.632L195.24,203.649z"/>
		</g>
		<g>
			<path class="st6" d="M194.718,203.859c3.443,5.832,11.042,7.816,16.973,4.43l28.637-16.349c-5.931,3.386-13.53,1.403-16.973-4.43
				l-13.694-23.197h-38.288L194.718,203.859z"/>
		</g>
	</g>
	<g>
		<path class="st10" d="M208.096,464.281l-20.458-225.112c-0.309-3.399-3.159-6.002-6.572-6.002h-4.223
			c-2.151,0-3.917-1.615-4.108-3.757l-5.577-62.402c-0.085-0.945,0.364-1.589,0.639-1.89c0.275-0.3,0.877-0.805,1.826-0.805h-32.994
			c-0.949,0-1.551,0.504-1.826,0.805c-0.275,0.3-0.723,0.945-0.639,1.89l5.577,62.402c0.191,2.142,1.957,3.757,4.108,3.757h4.223
			c3.413,0,6.263,2.603,6.572,6.002l20.458,225.112c0.274,3.013,2.907,5.285,6.126,5.285h32.994
			C211.003,469.566,208.37,467.294,208.096,464.281z"/>
	</g>
	<g>
		<g>
			<circle class="st6" cx="229.622" cy="397.321" r="15.783"/>
		</g>
	</g>
	<g>
		<g>
			<path class="st1" d="M270.686,258.674l-50.317-8.381c-8.172-1.361-13.693-9.089-12.332-17.261l8.381-50.317
				c1.361-8.172,9.089-13.693,17.261-12.332l50.317,8.381c8.172,1.361,13.693,9.089,12.332,17.261l-8.381,50.317
				C286.586,254.514,278.858,260.035,270.686,258.674z"/>
		</g>
		<g>
			<path class="st6" d="M240.151,241.045l9.244-55.501c1.123-6.74,7.497-11.294,14.237-10.172l-32.546-5.421
				c-6.74-1.123-13.115,3.432-14.237,10.172l-9.244,55.501c-1.123,6.74,3.432,13.115,10.172,14.237l32.546,5.421
				C243.583,254.16,239.029,247.786,240.151,241.045z"/>
		</g>
	</g>
	<g>
		<g>
			<path class="st1" d="M277.441,330.398l-37.558-34.517c-6.1-5.606-6.5-15.095-0.894-21.194l34.517-37.558
				c5.606-6.1,15.095-6.5,21.194-0.894l37.558,34.517c6.1,5.606,6.5,15.095,0.894,21.194l-34.517,37.558
				C293.03,335.604,283.541,336.004,277.441,330.398z"/>
		</g>
		<g>
			<path class="st6" d="M261.504,298.947l38.073-41.427c4.624-5.031,12.451-5.361,17.482-0.737l-24.293-22.326
				c-5.031-4.624-12.858-4.294-17.482,0.738l-38.073,41.427c-4.624,5.031-4.294,12.858,0.738,17.482l24.293,22.326
				C257.21,311.805,256.88,303.978,261.504,298.947z"/>
		</g>
	</g>
	<g>
		<g>
			<circle class="st6" cx="252.178" cy="438.867" r="15.783"/>
		</g>
	</g>
	<g>
		<path class="st28" d="M324.114,415.018c-0.166,0-0.332-0.007-0.499-0.021c-3.303-0.271-5.759-3.169-5.488-6.472l9.898-120.216
			c0.272-3.303,3.182-5.749,6.472-5.487c3.303,0.271,5.759,3.169,5.488,6.472l-9.898,120.216
			C329.829,412.645,327.205,415.018,324.114,415.018z"/>
	</g>
	<g>
		<path class="st28" d="M319.313,464.509c-0.166,0-0.332-0.007-0.499-0.021c-3.303-0.271-5.759-3.169-5.488-6.472l2.414-29.32
			c0.272-3.303,3.183-5.76,6.472-5.487c3.303,0.271,5.759,3.169,5.488,6.472l-2.414,29.32
			C325.028,462.136,322.404,464.509,319.313,464.509z"/>
	</g>
</g>
</svg>
