<?xml version="1.0" encoding="utf-8"?>
<!-- Generator: Adobe Illustrator 22.1.0, SVG Export Plug-In . SVG Version: 6.00 Build 0)  -->
<svg version="1.1" id="Layer_1" xmlns="http://www.w3.org/2000/svg" xmlns:xlink="http://www.w3.org/1999/xlink" x="0px" y="0px"
	 viewBox="0 0 512 512" style="enable-background:new 0 0 512 512;" xml:space="preserve">
<style type="text/css">
	.st0{fill:#FFF9DC;}
	.st1{fill:#FFB74B;}
	.st2{fill:#FF624B;}
	.st3{fill:#FF9079;}
	.st4{fill:#FF4B34;}
	.st5{fill:#FFEACF;}
	.st6{fill:#FFA730;}
	.st7{fill:#FFD551;}
	.st8{fill:#FFF7CA;}
	.st9{fill:#E58D23;}
	.st10{fill:#BF6C0D;}
	.st11{fill:#FFD59A;}
	.st12{fill:#A56021;}
	.st13{fill:#EACF32;}
	.st14{fill:#CCC033;}
	.st15{fill:#FCE575;}
	.st16{fill:#AD9B18;}
	.st17{fill:#FFEEA4;}
	.st18{fill:#FFF4C1;}
	.st19{fill:#FFDF74;}
	.st20{fill:#FFC34C;}
	.st21{fill:#8C4C17;}
	.st22{fill:#F9BB32;}
	.st23{fill:#DB9C2E;}
	.st24{fill:#FCF9DE;}
	.st25{fill:#FFEA63;}
	.st26{fill:#99AF17;}
	.st27{fill:#FCDA4F;}
	.st28{fill:#FFECCD;}
	.st29{fill:#FFEDCB;}
	.st30{fill:#FFEBCD;}
	.st31{fill:#FFEBCE;}
	.st32{fill:#FFECCC;}
</style>
<g>
	<g>
		<path class="st10" d="M435.46,166.702c0-58.593-80.347-106.094-179.46-106.094s-179.46,47.5-179.46,106.094
			c0,23.955,13.435,46.053,36.084,63.812V428.72c0,12.521,10.151,22.672,22.672,22.672h241.407
			c12.521,0,22.672-10.151,22.672-22.672V230.514C422.025,212.755,435.46,190.657,435.46,166.702z"/>
	</g>
	<g>
		<path class="st11" d="M135.296,406.048V219.48l-8.682-6.808c-12.5-9.8-27.402-25.733-27.402-45.97
			c0-26.983,25.956-46.356,41.429-55.503C171.094,93.196,212.064,83.28,256,83.28s84.906,9.916,115.359,27.919
			c15.473,9.146,41.429,28.52,41.429,55.503c0,20.237-14.902,36.17-27.402,45.97l-8.682,6.808v186.567
			c0,12.521-10.151,22.672-22.672,22.672H157.968C145.447,428.72,135.296,418.569,135.296,406.048z"/>
	</g>
	<g>
		<path class="st23" d="M207.22,253.562c-2.147,0-4.224-1.156-5.303-3.184c-1.556-2.926-0.445-6.559,2.48-8.114l86.373-45.93
			c2.926-1.557,6.559-0.445,8.115,2.48c1.556,2.926,0.445,6.559-2.48,8.114l-86.373,45.93
			C209.135,253.336,208.17,253.562,207.22,253.562z"/>
	</g>
	<g>
		<path class="st23" d="M202.569,305.328c-2.164,0-4.253-1.174-5.324-3.225c-1.533-2.938-0.395-6.562,2.543-8.096l96.689-50.465
			c2.939-1.533,6.563-0.395,8.096,2.542c1.533,2.938,0.395,6.562-2.543,8.095l-96.689,50.465
			C204.454,305.108,203.505,305.328,202.569,305.328z"/>
	</g>
	<g>
		<path class="st12" d="M157.968,428.72V230.514c-22.65-17.759-36.084-39.857-36.084-63.812c0-54.054,68.379-98.664,156.788-105.253
			c-7.426-0.554-14.992-0.84-22.672-0.84c-99.113,0-179.46,47.5-179.46,106.094c0,23.955,13.435,46.053,36.084,63.812V428.72
			c0,12.522,10.151,22.672,22.672,22.672h45.344C168.119,451.391,157.968,441.241,157.968,428.72z"/>
	</g>
	<g>
		<path class="st23" d="M164.77,406.048V219.48l-8.682-6.808c-12.5-9.8-27.402-25.733-27.402-45.97
			c0-26.983,25.956-46.356,41.429-55.503c27.018-15.973,62.321-25.561,100.623-27.525c-4.87-0.25-9.781-0.394-14.737-0.394
			c-43.937,0-84.906,9.916-115.359,27.919c-15.473,9.146-41.429,28.52-41.429,55.503c0,20.237,14.902,36.17,27.402,45.97
			l8.682,6.808v186.567c0,12.522,10.151,22.672,22.672,22.672h29.473C174.92,428.72,164.77,418.569,164.77,406.048z"/>
	</g>
	<g>
		<g>
			<circle class="st23" cx="234.757" cy="117.821" r="18.059"/>
		</g>
	</g>
	<g>
		<g>
			<circle class="st23" cx="226.826" cy="176.818" r="18.059"/>
		</g>
	</g>
	<g>
		<path class="st23" d="M246.09,331.196c-2.147,0-4.224-1.156-5.303-3.184c-1.556-2.926-0.445-6.559,2.48-8.114l86.372-45.929
			c2.926-1.556,6.559-0.445,8.115,2.48c1.556,2.926,0.445,6.559-2.48,8.114l-86.372,45.929
			C248.005,330.97,247.04,331.196,246.09,331.196z"/>
	</g>
	<g>
		<g>
			<circle class="st23" cx="342.565" cy="391.968" r="18.059"/>
		</g>
	</g>
	<g>
		<path class="st23" d="M225.569,386.328c-2.164,0-4.253-1.174-5.324-3.225c-1.533-2.938-0.395-6.562,2.543-8.096l96.689-50.465
			c2.938-1.534,6.562-0.395,8.096,2.542c1.533,2.938,0.395,6.562-2.543,8.095l-96.689,50.465
			C227.454,386.108,226.505,386.328,225.569,386.328z"/>
	</g>
	<g>
		<g>
			<circle class="st23" cx="166.912" cy="172.528" r="18.059"/>
		</g>
	</g>
</g>
</svg>
