<?xml version="1.0" encoding="utf-8"?>
<!-- Generator: Adobe Illustrator 22.1.0, SVG Export Plug-In . SVG Version: 6.00 Build 0)  -->
<svg version="1.1" id="Layer_1" xmlns="http://www.w3.org/2000/svg" xmlns:xlink="http://www.w3.org/1999/xlink" x="0px" y="0px"
	 viewBox="0 0 512 512" style="enable-background:new 0 0 512 512;" xml:space="preserve">
<style type="text/css">
	.st0{fill:#FFF9DC;}
	.st1{fill:#FFB74B;}
	.st2{fill:#FF624B;}
	.st3{fill:#FF9079;}
	.st4{fill:#FF4B34;}
	.st5{fill:#FFEACF;}
	.st6{fill:#FFA730;}
	.st7{fill:#FFD551;}
	.st8{fill:#FFF7CA;}
	.st9{fill:#E58D23;}
	.st10{fill:#BF6C0D;}
	.st11{fill:#FFD59A;}
	.st12{fill:#A56021;}
	.st13{fill:#EACF32;}
	.st14{fill:#CCC033;}
	.st15{fill:#FCE575;}
	.st16{fill:#AD9B18;}
	.st17{fill:#FFEEA4;}
	.st18{fill:#FFF4C1;}
	.st19{fill:#FFDF74;}
	.st20{fill:#FFC34C;}
	.st21{fill:#8C4C17;}
	.st22{fill:#F9BB32;}
	.st23{fill:#DB9C2E;}
	.st24{fill:#FCF9DE;}
	.st25{fill:#FFEA63;}
	.st26{fill:#99AF17;}
	.st27{fill:#FCDA4F;}
	.st28{fill:#FFECCD;}
	.st29{fill:#FFEDCB;}
	.st30{fill:#FFEBCD;}
	.st31{fill:#FFEBCE;}
	.st32{fill:#FFECCC;}
</style>
<g>
	<path class="st23" d="M310.846,133.161l-22.454-10.265c-10.826-4.949-17.697-15.276-17.697-26.597v-73.57h-90.561v72.818
		c0,11.32-6.872,21.648-17.697,26.597l-24.099,11.017c-23.817,10.888-38.935,33.608-38.935,58.512v268.025
		c0,16.333,14.078,29.573,31.445,29.573h187.488c17.366,0,31.445-13.24,31.445-29.573V191.673
		C349.78,166.769,334.663,144.048,310.846,133.161z"/>
	<path class="st10" d="M149.714,459.698V191.673c0-24.905,15.118-47.625,38.935-58.512l24.099-11.017
		c10.826-4.95,17.697-15.276,17.697-26.597V22.729h-50.311v72.818c0,11.321-6.871,21.647-17.697,26.597l-24.099,11.017
		c-23.817,10.888-38.935,33.608-38.935,58.512v268.025c0,16.332,14.078,29.573,31.445,29.573h50.311
		C163.793,489.271,149.714,476.03,149.714,459.698z"/>
	<g>
		<path class="st19" d="M275.076,75.879H174.107c-4.418,0-8-3.582-8-8v-37.15c0-4.418,3.582-8,8-8h100.969c4.418,0,8,3.582,8,8
			v37.15C283.076,72.297,279.494,75.879,275.076,75.879z"/>
	</g>
	<g>
		<path class="st7" d="M216.419,68.965V29.643c0-3.818,4.505-6.914,10.062-6.914H176.17c-5.557,0-10.062,3.096-10.062,6.914v39.322
			c0,3.818,4.505,6.914,10.062,6.914h50.311C220.924,75.879,216.419,72.783,216.419,68.965z"/>
	</g>
	<rect x="99.403" y="244.62" class="st7" width="250.377" height="92.997"/>
	<ellipse class="st20" cx="220.489" cy="291.119" rx="89.583" ry="84.25"/>
	<rect x="99.403" y="244.62" class="st20" width="50.311" height="92.997"/>
	<path class="st22" d="M130.905,291.119c0,19.456,7.031,37.357,18.809,51.619V239.5
		C137.937,253.762,130.905,271.663,130.905,291.119z"/>
	<path class="st22" d="M326.042,201.27c-0.117,0-0.234-0.003-0.353-0.01c-3.308-0.192-5.834-3.029-5.642-6.338
		c0.905-15.612-5.047-27.474-17.691-35.254c-9.823-6.044-19.902-7.323-20.002-7.336c-3.29-0.399-5.632-3.39-5.233-6.679
		c0.398-3.289,3.386-5.644,6.679-5.233c0.517,0.063,12.811,1.623,24.845,9.027c11.479,7.063,24.854,20.807,23.382,46.17
		C331.841,198.807,329.197,201.27,326.042,201.27z"/>
	<g>
		<path class="st15" d="M256.439,67.273c-3.313,0-6-2.687-6-6V32.732c0-3.313,2.687-6,6-6s6,2.687,6,6v28.541
			C262.439,64.587,259.753,67.273,256.439,67.273z"/>
	</g>
	<g>
		<circle class="st10" cx="180.342" cy="420.703" r="15.783"/>
	</g>
	<g>
		<circle class="st10" cx="211.917" cy="453.095" r="15.783"/>
	</g>
	<g>
		<path class="st24" d="M376.84,489.271h-84.403c-7.402,0-13.698-5.219-14.825-12.29l-20.815-130.59
			c-0.921-5.781,3.706-10.995,9.758-10.995h136.168c6.052,0,10.679,5.214,9.758,10.995l-20.815,130.59
			C390.538,484.052,384.242,489.271,376.84,489.271z"/>
	</g>
	<g>
		<path class="st15" d="M306.033,471.38c-6.09,0-11.269-4.294-12.196-10.111l-15.938-99.989c-0.67-4.203,2.695-7.995,7.095-7.995
			h99.288c4.4,0,7.765,3.791,7.095,7.995l-15.938,99.989c-0.927,5.817-6.106,10.11-12.196,10.11H306.033z"/>
	</g>
	<g>
		<path class="st18" d="M324.904,463.992L306.16,346.39c-0.921-5.78,3.706-10.994,9.758-10.994h-49.363
			c-6.051,0-10.679,5.214-9.757,10.994l20.815,130.591c1.127,7.071,7.423,12.29,14.825,12.29h62.96
			C340.171,489.271,327.222,478.536,324.904,463.992z"/>
	</g>
	<g>
		<path class="st27" d="M324.689,461.269l-17.212-107.982h-22.483c-4.4,0-7.765,3.791-7.095,7.995l15.938,99.989
			c0.927,5.817,6.106,10.111,12.196,10.111h30.852C330.752,471.38,325.623,467.128,324.689,461.269z"/>
	</g>
	<g>
		<circle class="st18" cx="332.447" cy="377.229" r="15.783"/>
	</g>
	<path class="st24" d="M361.605,463.752c-0.275,0-0.555-0.02-0.835-0.059c-3.282-0.457-5.572-3.488-5.114-6.771l6.331-45.439
		c0.458-3.281,3.489-5.568,6.771-5.114c3.282,0.457,5.572,3.488,5.114,6.771l-6.331,45.439
		C367.123,461.58,364.552,463.752,361.605,463.752z"/>
	<path class="st24" d="M370.888,395.737c-0.248,0-0.498-0.016-0.75-0.047c-3.289-0.41-5.622-3.409-5.211-6.697l1.56-12.503
		c0.41-3.288,3.408-5.614,6.696-5.211c3.289,0.41,5.622,3.409,5.211,6.697l-1.56,12.503
		C376.456,393.516,373.87,395.737,370.888,395.737z"/>
</g>
</svg>
