<?xml version="1.0" encoding="utf-8"?>
<!-- Generator: Adobe Illustrator 22.1.0, SVG Export Plug-In . SVG Version: 6.00 Build 0)  -->
<svg version="1.1" id="Layer_1" xmlns="http://www.w3.org/2000/svg" xmlns:xlink="http://www.w3.org/1999/xlink" x="0px" y="0px"
	 viewBox="0 0 512 512" style="enable-background:new 0 0 512 512;" xml:space="preserve">
<style type="text/css">
	.st0{fill:#FFF9DC;}
	.st1{fill:#FFB74B;}
	.st2{fill:#FF624B;}
	.st3{fill:#FF9079;}
	.st4{fill:#FF4B34;}
	.st5{fill:#FFEACF;}
	.st6{fill:#FFA730;}
	.st7{fill:#FFD551;}
	.st8{fill:#FFF7CA;}
	.st9{fill:#E58D23;}
	.st10{fill:#BF6C0D;}
	.st11{fill:#FFD59A;}
	.st12{fill:#A56021;}
	.st13{fill:#EACF32;}
	.st14{fill:#CCC033;}
	.st15{fill:#FCE575;}
	.st16{fill:#AD9B18;}
	.st17{fill:#FFEEA4;}
	.st18{fill:#FFF4C1;}
	.st19{fill:#FFDF74;}
	.st20{fill:#FFC34C;}
	.st21{fill:#8C4C17;}
	.st22{fill:#F9BB32;}
	.st23{fill:#DB9C2E;}
	.st24{fill:#FCF9DE;}
	.st25{fill:#FFEA63;}
	.st26{fill:#99AF17;}
	.st27{fill:#FCDA4F;}
	.st28{fill:#FFECCD;}
	.st29{fill:#FFEDCB;}
	.st30{fill:#FFEBCD;}
	.st31{fill:#FFEBCE;}
	.st32{fill:#FFECCC;}
</style>
<g>
	<g>
		<path class="st24" d="M424.471,468.474H86.575c-5.523,0-10-4.477-10-10v-22.5h357.896v22.5
			C434.471,463.997,429.994,468.474,424.471,468.474z"/>
	</g>
	<g>
		<path class="st5" d="M86.144,454.174h348.327v-18.2H76.575v19.5c0,7.18,4.284,13,9.569,13V454.174z"/>
	</g>
	<g>
		<path class="st24" d="M467.087,442.074H43.959c-5.523,0-10-4.477-10-10v0c0-5.523,4.477-10,10-10h423.128c5.523,0,10,4.477,10,10
			v0C477.087,437.597,472.61,442.074,467.087,442.074z"/>
	</g>
	<g>
		<g>
			<path class="st5" d="M468.041,120.301H265.993V92.453h202.048c5.523,0,10,4.477,10,10v7.848
				C478.041,115.824,473.564,120.301,468.041,120.301z"/>
		</g>
		<g>
			<path class="st11" d="M467.97,112.111H299.111c-4.45,0-8.057-2.934-8.057-6.552V92.453h-25.062v19.657v8.191h25.062H467.97
				c5.562,0,10.071-3.667,10.071-8.191v-8.191C478.041,108.444,473.532,112.111,467.97,112.111z"/>
		</g>
		<g>
			<path class="st5" d="M258.414,141.208H181.57V71.547h76.843c9.941,0,18,8.059,18,18v33.661
				C276.414,133.149,268.355,141.208,258.414,141.208z"/>
		</g>
		<g>
			<path class="st24" d="M265.958,110.553c-0.1,0-0.2-0.002-0.3-0.007c-3.31-0.163-5.86-2.978-5.697-6.288
				c0.226-4.59-0.75-8.025-2.902-10.21c-3.262-3.312-8.561-3.285-8.603-3.284c-3.289,0.106-6.088-2.48-6.201-5.792
				c-0.113-3.312,2.48-6.088,5.792-6.201c1.077-0.034,10.657-0.153,17.561,6.856c4.604,4.674,6.737,11.141,6.338,19.222
				C271.788,108.058,269.137,110.553,265.958,110.553z"/>
		</g>
	</g>
	<g>
		<path class="st1" d="M214.959,191.745H106.74c-11.046,0-20-8.954-20-20V63.526c0-11.046,8.954-20,20-20h108.219
			c11.046,0,20,8.954,20,20v108.219C234.959,182.791,226.005,191.745,214.959,191.745z"/>
	</g>
	<g>
		<path class="st20" d="M96.939,173.546V61.726c0-4.418,3.582-8,8-8h111.82c4.418,0,8,3.582,8,8v111.82c0,4.418-3.582,8-8,8h-111.82
			C100.521,181.546,96.939,177.964,96.939,173.546z"/>
	</g>
	<g>
		<path class="st22" d="M108.978,102.222V73.765c0-4.418,3.582-8,8-8h28.458c4.418,0,8,3.582,8,8v28.458c0,4.418-3.582,8-8,8
			h-28.458C112.56,110.222,108.978,106.641,108.978,102.222z"/>
	</g>
	<g>
		<path class="st22" d="M168.282,102.222V73.765c0-4.418,3.582-8,8-8h28.458c4.418,0,8,3.582,8,8v28.458c0,4.418-3.582,8-8,8
			h-28.458C171.863,110.222,168.282,106.641,168.282,102.222z"/>
	</g>
	<g>
		<path class="st22" d="M108.978,161.526v-28.458c0-4.418,3.582-8,8-8h28.458c4.418,0,8,3.582,8,8v28.458c0,4.418-3.582,8-8,8
			h-28.458C112.56,169.526,108.978,165.944,108.978,161.526z"/>
	</g>
	<g>
		<path class="st22" d="M168.282,161.526v-28.458c0-4.418,3.582-8,8-8h28.458c4.418,0,8,3.582,8,8v28.458c0,4.418-3.582,8-8,8
			h-28.458C171.863,169.526,168.282,165.944,168.282,161.526z"/>
	</g>
	<g>
		<g>
			<path class="st10" d="M416.471,402.474H94.575c-9.941,0-18-8.059-18-18v0c0-9.941,8.059-18,18-18h321.896c9.941,0,18,8.059,18,18
				v0C434.471,394.415,426.412,402.474,416.471,402.474z"/>
		</g>
		<g>
			<path class="st1" d="M435.386,383.774c0-9.941-8.059-18-18-18H284.968c-8.444,0-15.51,5.822-17.453,13.667h-22.676
				c-1.943-7.845-9.009-13.667-17.453-13.667H94.968c-9.941,0-18,8.059-18,18v11.72c-0.069,0.64-0.109,1.288-0.109,1.947v7.333
				c0,9.941,8.059,18,18,18h321.896c7.598,0,14.082-4.714,16.724-11.371c1.21-2.42,1.907-5.141,1.907-8.029V383.774z"/>
		</g>
		<g>
			<g>
				<path class="st23" d="M134.859,410.774c-9.941,0-18-8.059-18-18v-7.333c0-0.659,0.04-1.308,0.109-1.947v-11.72
					c0-2.107,0.381-4.121,1.046-6H94.968c-9.941,0-18,8.059-18,18v11.72c-0.069,0.64-0.109,1.288-0.109,1.947v7.333
					c0,9.941,8.059,18,18,18h321.896c7.598,0,14.082-4.714,16.724-11.371c0.103-0.206,0.197-0.418,0.293-0.629H134.859z"/>
			</g>
		</g>
	</g>
	<g>
		<g>
			<path class="st1" d="M455.993,327.474c0-9.941-8.059-18-18-18H305.575c-8.444,0-15.51,5.822-17.453,13.667h-22.677
				c-1.943-7.845-9.009-13.667-17.453-13.667H115.575c-9.941,0-18,8.059-18,18v11.72c-0.069,0.64-0.109,1.288-0.109,1.947v7.333
				c0,9.941,8.059,18,18,18h321.896c7.598,0,14.082-4.714,16.724-11.371c1.21-2.42,1.907-5.141,1.907-8.029V327.474z"/>
		</g>
		<g>
			<g>
				<path class="st22" d="M305.446,311.141h22.677c0.141-0.568,0.316-1.122,0.509-1.667h-23.056c-0.211,0-0.418,0.02-0.628,0.027
					C305.136,310.038,305.307,310.583,305.446,311.141z"/>
			</g>
			<g>
				<path class="st23" d="M155.466,354.474c-9.941,0-18-8.059-18-18v-7.333c0-0.659,0.04-1.308,0.109-1.947v-11.72
					c0-2.107,0.381-4.121,1.046-6h-23.046c-9.941,0-18,8.059-18,18v11.72c-0.069,0.64-0.109,1.288-0.109,1.947v7.333
					c0,9.941,8.059,18,18,18h321.896c7.598,0,14.082-4.714,16.724-11.371c0.103-0.206,0.197-0.418,0.293-0.629H155.466z"/>
			</g>
		</g>
	</g>
	<g>
		<path class="st19" d="M455.677,323.694H97.781v-10.22c0-9.941,8.059-18,18-18h321.896c9.941,0,18,8.059,18,18V323.694z"/>
	</g>
	<g>
		<path class="st19" d="M344.697,376.272L344.697,376.272c-8.052,0-14.579-6.527-14.579-14.579v-51.797h29.158v51.797
			C359.276,369.744,352.748,376.272,344.697,376.272z"/>
	</g>
	<g>
		<path class="st19" d="M381.538,400.368L381.538,400.368c-8.052,0-14.579-6.527-14.579-14.579v-74.648h29.158v74.648
			C396.117,393.841,389.59,400.368,381.538,400.368z"/>
	</g>
	<g>
		<path class="st7" d="M253.966,306.559h-49.948c-9.941,0-18-8.059-18-18v-19.6c0-9.941,8.059-18,18-18h49.948
			c9.941,0,18,8.059,18,18v19.6C271.966,298.501,263.907,306.559,253.966,306.559z"/>
	</g>
	<g>
		<path class="st20" d="M221.018,288.559v-19.6c0-9.94,8.059-18,18-18h-35c-9.941,0-18,8.06-18,18v19.6c0,9.941,8.059,18,18,18h35
			C229.077,306.559,221.018,298.5,221.018,288.559z"/>
	</g>
	<g>
		<path class="st23" d="M127.678,98.323c-3.755,0-6.8-3.045-6.8-6.8V65.765h-5.1c-3.755,0-6.8,3.045-6.8,6.8v30.858
			c0,3.755,3.044,6.8,6.8,6.8h30.859c3.755,0,6.8-3.045,6.8-6.8v-5.1H127.678z"/>
	</g>
	<g>
		<path class="st23" d="M186.981,99.173c-3.755,0-6.8-3.045-6.8-6.8V65.765h-5.1c-3.755,0-6.8,3.045-6.8,6.8v30.858
			c0,3.755,3.044,6.8,6.8,6.8h30.859c3.755,0,6.8-3.045,6.8-6.8v-4.25H186.981z"/>
	</g>
	<g>
		<path class="st23" d="M127.678,158.476c-3.755,0-6.8-3.044-6.8-6.8v-26.609h-5.1c-3.755,0-6.8,3.045-6.8,6.8v30.858
			c0,3.756,3.044,6.8,6.8,6.8h30.859c3.755,0,6.8-3.044,6.8-6.8v-4.25H127.678z"/>
	</g>
	<g>
		<path class="st23" d="M186.981,158.476c-3.755,0-6.8-3.044-6.8-6.8v-26.609h-5.1c-3.755,0-6.8,3.045-6.8,6.8v30.858
			c0,3.756,3.044,6.8,6.8,6.8h30.859c3.755,0,6.8-3.044,6.8-6.8v-4.25H186.981z"/>
	</g>
	<g>
		<path class="st19" d="M214.959,43.526H97.187c-11.046,0-20,8.954-20,20v2.979c0,6.887,3.871,12.865,9.553,15.892v52.19
			c0,8.052,6.527,14.579,14.579,14.579c8.052,0,14.579-6.527,14.579-14.579V90.325c0.001,8.051,6.528,14.578,14.579,14.578h0
			c8.052,0,14.579-6.527,14.579-14.579v-5.818h60.744v25.983c0,8.052,6.527,14.579,14.579,14.579h0
			c8.052,0,14.579-6.527,14.579-14.579V84.505V69.901v-6.375C234.959,52.48,226.005,43.526,214.959,43.526z"/>
	</g>
	<g>
		<g>
			<circle class="st23" cx="145.056" cy="389.495" r="13.118"/>
		</g>
	</g>
	<g>
		<g>
			<circle class="st23" cx="427.959" cy="338.974" r="13.118"/>
		</g>
	</g>
	<g>
		<path class="st5" d="M218.959,102.878c-3.313,0-6-2.687-6-6V61.474c0-3.313,2.687-6,6-6s6,2.687,6,6v35.404
			C224.959,100.192,222.272,102.878,218.959,102.878z"/>
	</g>
	<g>
		<path class="st7" d="M155.781,295.474h-40c-9.941,0-18,8.059-18,18v10.22h40v-10.22
			C137.781,303.533,145.84,295.474,155.781,295.474z"/>
	</g>
	<g>
		<g>
			<path class="st7" d="M106.74,134.587v-52.19c-5.682-3.026-9.553-9.005-9.553-15.892v-2.979c0-11.046,8.954-20,20-20h-20
				c-11.046,0-20,8.954-20,20v2.979c0,6.887,3.871,12.865,9.553,15.892v52.19c0,8.052,6.527,14.579,14.579,14.579
				c3.876,0,7.389-1.522,10-3.989C108.505,142.519,106.74,138.763,106.74,134.587z"/>
		</g>
	</g>
</g>
</svg>
