<?xml version="1.0" ?>
<!-- Uploaded to: SVG Repo, www.svgrepo.com, Generator: SVG Repo Mixer Tools -->
<svg width="800px" height="800px" viewBox="0 0 32 32" id="Layer_1" version="1.1" xml:space="preserve" xmlns="http://www.w3.org/2000/svg" xmlns:xlink="http://www.w3.org/1999/xlink">
<style type="text/css">
	.st0{fill:#00BBB4;}
	.st1{fill:#1B75BC;}
	.st2{fill:#F15A29;}
</style>
<g>
<rect class="st2" height="5.4098363" width="6.4508195" x="6.47541" y="7.1557379"/>
<path class="st2" d="M7.7356558,6.1557379V0.5l2.0091028,1.0213795c1.1762362,0.5790699,1.9212246,1.7762096,1.9212246,3.0872598   v1.5470986H7.7356558z"/>
<path class="st1" d="M5,29.8401489C5,30.7568359,5.743103,31.5,6.6598511,31.5h2.8203735   c-0.4995728-0.5447388-0.8122559-1.263916-0.8122559-2.0595703v-4.6616211c0-0.140625,0.0297852-0.2792969,0.0869141-0.4077148   c0.9933472-2.2253418,3.2095337-3.6633911,5.6467285-3.6655884v-1.0395508H5V29.8401489z"/>
<rect class="st0" height="4.4569702" width="9.4016113" x="5" y="12.5655518"/>
<path class="st2" d="M22.2606201,21.704834h-7.8532104c-1.9411621,0-3.6992798,1.0899048-4.5896606,2.795166h17.0325317   C25.9598999,22.7947388,24.2017822,21.704834,22.2606201,21.704834z"/>
<path class="st1" d="M9.6680298,26.5v2.9405518c0,1.1373901,0.9219971,2.0594482,2.0594482,2.0594482h13.2130737   C26.0780029,31.5,27,30.5779419,27,29.4405518V26.5H9.6680298z"/>
</g>
</svg>