<svg xmlns="http://www.w3.org/2000/svg" width="128" height="128" viewBox="0 0 128 128">
  <title>BRUSH</title>
  <g>
    <g>
      <g>
        <path d="M41.45,59.47l-2.13,41.6a10.015,10.015,0,0,1-9.59,0L27.6,59.47A14.935,14.935,0,0,1,41.45,59.47Z" fill="#add3d8"/>
        <path d="M39.32,101.07l-.49,9.49a4.308,4.308,0,0,1-8.61,0l-.49-9.49A10.015,10.015,0,0,0,39.32,101.07Z" fill="#81a1b1"/>
      </g>
      <g>
        <g>
          <path d="M42.09,46.91l-.06,1.15-.58,11.41a14.935,14.935,0,0,0-13.85,0l-.58-11.39-.06-1.17Z" fill="#81a1b1"/>
          <path d="M53.86,22.26,42.02,48.08h-15L15.19,22.26a5,5,0,0,1,3.3-6.93,64.04,64.04,0,0,1,32.07,0A5,5,0,0,1,53.86,22.26Z" fill="#ffd18b"/>
          <path d="M36.27,22.35V48.08h-3.5V22.35a1.75,1.75,0,0,1,3.5,0Z" fill="#ffb22a"/>
        </g>
        <path d="M32.37,48.08H28.81L23.3,24.98a1.748,1.748,0,1,1,3.4-.81l5.62,23.5A2,2,0,0,1,32.37,48.08Z" fill="#ffb22a"/>
        <path d="M45.74,24.98l-5.5,23.1H36.68a2,2,0,0,1,.05-.41l5.6-23.5a1.752,1.752,0,1,1,3.41.81Z" fill="#ffb22a"/>
      </g>
    </g>
    <g>
      <g>
        <path d="M71.4,76.23l-1.69,25.14a11.859,11.859,0,0,1-9.84.01L58.18,76.24A15.383,15.383,0,0,1,71.4,76.23Z" fill="#add3d8"/>
        <path d="M69.71,101.37l-.61,9.16a4.307,4.307,0,0,1-8.61,0l-.62-9.15A11.859,11.859,0,0,0,69.71,101.37Z" fill="#81a1b1"/>
        <path d="M72.37,61.82l-.08,1.26L71.4,76.23a15.383,15.383,0,0,0-13.22.01l-.89-13.16-.08-1.26Z" fill="#81a1b1"/>
      </g>
      <polygon points="57.292 63.075 53.733 46.318 77.369 32.5 72.292 63.075 57.292 63.075" fill="#ffd18b"/>
      <path d="M63.04,63.08V52.41a1.75,1.75,0,1,1,3.5,0V63.08Z" fill="#ffb22a"/>
    </g>
    <g>
      <g>
        <path d="M104.65,67.58a16.9,16.9,0,0,1-13.36.01l1.74-25.93a11.548,11.548,0,0,1,9.88,0Z" fill="#add3d8"/>
        <path d="M93.03,41.66l.64-9.47a4.3,4.3,0,0,1,8.6,0l.64,9.47A11.548,11.548,0,0,0,93.03,41.66Z" fill="#81a1b1"/>
        <path d="M105.54,80.73H90.4l.07-1.07.82-12.07a16.9,16.9,0,0,0,13.36-.01l.82,12.08Z" fill="#81a1b1"/>
      </g>
      <path d="M82.674,99.417a15.3,15.3,0,1,0,28.657-7.433L105.468,79.66h-15L84.607,91.983A15.212,15.212,0,0,0,82.674,99.417Z" fill="#ffd18b"/>
      <path d="M99.72,79.66V97.19a1.75,1.75,0,0,1-3.5,0V79.66Z" fill="#ffb22a"/>
    </g>
  </g>
</svg>
