<?xml version="1.0" encoding="iso-8859-1"?>
<!-- Uploaded to: SVG Repo, www.svgrepo.com, Generator: SVG Repo Mixer Tools -->
<svg height="800px" width="800px" version="1.1" id="Layer_1" xmlns="http://www.w3.org/2000/svg" xmlns:xlink="http://www.w3.org/1999/xlink" 
	 viewBox="0 0 512 512" xml:space="preserve">
<path style="fill:#50412E;" d="M421.438,83.269C419.173,79.868,364.677,0,255.999,0S92.826,79.868,90.561,83.269l-6.486,9.729
	L182.802,256l73.197,12.488L329.197,256l98.729-163.003L421.438,83.269z"/>
<path d="M421.438,83.269C419.173,79.868,364.677,0,255.999,0v256h73.197l98.729-163.003L421.438,83.269z"/>
<path style="fill:#FFE98F;" d="M330.926,256h-74.927h-74.927c0,0-37.463,56.195-37.463,118.634
	c0,51.488,37.463,87.415,37.463,87.415S156.097,487.024,156.097,512h99.902h99.902c0-24.976-24.976-49.951-24.976-49.951
	s37.463-35.926,37.463-87.415C368.39,312.195,330.926,256,330.926,256z"/>
<path style="fill:#FFC170;" d="M368.39,374.634c0-62.439-37.463-118.634-37.463-118.634h-74.927v256h99.902
	c0-24.976-24.976-49.951-24.976-49.951S368.39,426.123,368.39,374.634z"/>
</svg>