<svg xmlns="http://www.w3.org/2000/svg" width="128" height="128" viewBox="0 0 128 128">
  <title>CREAM_1</title>
  <g>
    <path d="M104.89,66.91a14.825,14.825,0,0,1-2.71,3.1c-.15.13-.3.26-.45.38C87,82.61,43.96,81.06,26.51,70.34c-.18-.11-.35-.21-.52-.33-.22-.13-.43-.28-.64-.42a10.251,10.251,0,0,1-4.53-8.61c.1-3.87,2.5-8.16,12.83-7.88-8.32-3.21-4.28-19.6,6.12-15.83-4.16-5.65,0-20.34,9.79-23.98.07,12.36,3.98,19.96,11.45,22.27a14.587,14.587,0,0,0,4.05.59l22.13.24c5.34,0,13.02,8.19,1.34,14.47C107.24,46.64,110.07,61.57,104.89,66.91Z" fill="#f2e4e4"/>
    <path d="M113.36,85.01H14.64A15,15,0,0,1,26.51,70.34a14.711,14.711,0,0,1,3.13-.33H98.36a14.983,14.983,0,0,1,15,15Z" fill="#2bb65e"/>
    <path d="M113.36,85.01v14.7a14.993,14.993,0,0,1-15,15H29.64a14.993,14.993,0,0,1-15-15V85.01Z" fill="#70dd59"/>
  </g>
</svg>
