<svg xmlns="http://www.w3.org/2000/svg" width="128" height="128" viewBox="0 0 128 128">
  <title>CREAM</title>
  <polygon points="102.45 75.08 102.45 80.45 25.55 80.45 25.55 75.08 27.41 68.08 100.59 68.08 102.45 75.08" fill="#ffb22a"/>
  <rect x="25.55" y="75.08" width="76.9" height="8.01" fill="#ffd08a"/>
  <g>
    <g>
      <path d="M95.037,68.08H37.518a7.954,7.954,0,0,1-6.161-2.919c-4.932-5.929-2.581-17.267,4.15-21.079,14.136,15.727,25.81,8.556,39.476,6.983a31.233,31.233,0,0,1,19.195,3.4C101.134,58.157,100.524,68.08,95.037,68.08Z" fill="#d8c5c5"/>
      <path d="M95.531,52.867a3.068,3.068,0,0,1-4.17,2.786,34.279,34.279,0,0,0-16.378-1.882C62.858,55.043,52.3,60.334,40.2,51.5a13.715,13.715,0,0,1-5.618-13.181c1.1-6.616,6.6-10.212,13.3-9.721C52.273,42.427,68.274,37.174,84.06,42.1l4.08,1.523C92.935,46.163,95.522,49.563,95.531,52.867Z" fill="#f2e4e4"/>
      <path d="M87.953,46.056a43.159,43.159,0,0,0-4.214-1.423c-16.309-4.6-32.84.3-37.373-12.624C44.29,19.922,52.672,11.151,60.421,12.1c-8.822,21.21,8.062,13.13,27.532,21.081C96.588,37.092,94.824,47.7,87.953,46.056Z" fill="#f7efef"/>
    </g>
    <path d="M25.546,82.08h76.909a0,0,0,0,1,0,0v23.894a10,10,0,0,1-10,10H35.546a10,10,0,0,1-10-10V82.08a0,0,0,0,1,0,0Z" fill="#ffb22a"/>
  </g>
</svg>
