<?xml version="1.0" encoding="iso-8859-1"?>
<!-- Uploaded to: SVG Repo, www.svgrepo.com, Generator: SVG Repo Mixer Tools -->
<svg height="800px" width="800px" version="1.1" id="Layer_1" xmlns="http://www.w3.org/2000/svg" xmlns:xlink="http://www.w3.org/1999/xlink" 
	 viewBox="0 0 511.998 511.998" xml:space="preserve">
<path style="fill:#FFFFFF;" d="M230.582,423.272c-81.356,0-152.762-63.455-179.875-90.949
	c27.06-27.517,98.267-90.905,179.875-90.905c81.345,0,152.745,63.441,179.875,90.949
	C383.397,359.884,312.192,423.272,230.582,423.272z"/>
<path style="fill:#EBFCFC;" d="M230.582,241.418c81.345,0,152.745,63.441,179.875,90.949
	c-27.06,27.517-98.265,90.905-179.875,90.905"/>
<circle style="fill:#00A1A7;" cx="230.493" cy="332.343" r="94.116"/>
<g>
	<path style="fill:#006C70;" d="M230.488,426.461c51.979,0,94.116-42.137,94.116-94.116s-42.137-94.116-94.116-94.116"/>
	<path style="fill:#006C70;" d="M479.332,290.565c-9.177,18.589-30.67,27.124-49.793,20.664c-1.457-1.537-3.097-3.235-4.901-5.063
		c4.17-1.737,8.218-3.847,12.101-6.332c17.41-11.141,29.437-28.394,33.871-48.581l-35.586-7.813
		c-2.345,10.682-8.71,19.812-17.922,25.706c-8.016,5.13-17.351,7.272-26.678,6.198c-1.477-1.184-2.984-2.374-4.518-3.568
		c20.399-13.809,33.912-37.089,34.114-63.528l-36.432-0.277c-0.148,19.594-14.109,35.909-32.556,39.767
		c-40.439-24.346-81.589-37.085-120.453-37.085c-47.623,0-98.682,19.123-147.657,55.302c-36.349,26.852-58.88,53.571-59.821,54.695
		l-9.792,11.693l9.792,11.693c0.941,1.125,23.473,27.844,59.821,54.695c48.975,36.178,100.035,55.302,147.657,55.302
		c47.624,0,98.683-19.124,147.659-55.302c27.281-20.153,46.779-40.232,55.205-49.471c3.017,0.357,6.037,0.544,9.046,0.544
		c28.541,0,56.041-15.841,69.507-43.115L479.332,290.565z M230.582,423.272c-81.356,0-152.762-63.455-179.877-90.949
		c27.062-27.517,98.267-90.905,179.877-90.905c81.345,0,152.745,63.44,179.875,90.949
		C383.397,359.884,312.192,423.272,230.582,423.272z"/>
</g>
<path style="fill:#50412E;" d="M62.562,177.372c81.495-28.814,294.323-70.331,430.378,5.96c0,0-57.269-104.806-245.561-123.388
	c-82.217-8.113-161.945,10.11-215.95,28.843c-23.416,8.124-36.376,33.168-29.66,57.027l0,0
	C9.115,171.923,36.989,186.413,62.562,177.372z"/>
<circle cx="230.493" cy="332.343" r="54.648"/>
<circle style="fill:#FFFFFF;" cx="230.578" cy="332.343" r="20.928"/>
<path style="fill:#003638;" d="M479.332,290.565c-9.177,18.589-30.67,27.124-49.793,20.664c-1.457-1.537-3.097-3.235-4.901-5.063
	c4.17-1.737,8.218-3.847,12.101-6.332c17.41-11.141,29.437-28.394,33.871-48.581l-35.586-7.813
	c-2.345,10.682-8.71,19.812-17.922,25.706c-8.016,5.13-17.351,7.272-26.678,6.198c-1.477-1.184-2.984-2.374-4.518-3.568
	c20.399-13.809,33.912-37.089,34.114-63.528l-36.432-0.277c-0.148,19.594-14.109,35.909-32.556,39.767
	c-40.439-24.346-81.589-37.085-120.453-37.085c-0.032,0-0.063,0.001-0.095,0.001v30.764c0.032,0,0.063-0.001,0.095-0.001
	c81.345,0,152.745,63.44,179.875,90.949c-27.06,27.517-98.265,90.905-179.875,90.905c-0.032,0-0.063-0.001-0.095-0.001v30.764
	c0.032,0,0.063,0.001,0.095,0.001c47.624,0,98.683-19.124,147.659-55.302c27.281-20.153,46.779-40.232,55.205-49.471
	c3.017,0.357,6.037,0.544,9.046,0.544c28.541,0,56.041-15.841,69.507-43.115L479.332,290.565z"/>
<path d="M247.38,59.944c-5.646-0.556-11.278-0.979-16.892-1.296v84.271c87.365-7.999,186.781-2.02,262.452,40.413
	C492.94,183.332,435.671,78.526,247.38,59.944z"/>
</svg>