<svg xmlns="http://www.w3.org/2000/svg" width="128" height="128" viewBox="0 0 128 128">
  <title>EYELASH MASCARA</title>
  <g>
    <g>
      <path d="M55.719,57.469a1.744,1.744,0,0,1-1.238-.513L8.091,10.565A1.75,1.75,0,0,1,10.565,8.09L56.956,54.481a1.751,1.751,0,0,1-1.237,2.988Z" fill="#81a1b1"/>
      <rect x="54.859" y="52.271" width="18.364" height="23.54" transform="translate(-26.527 64.041) rotate(-45)" fill="#ffa4b5"/>
      <path d="M114.935,114.935h0a12.757,12.757,0,0,1-18.043,0L67.429,85.472,85.472,67.429l29.463,29.463A12.757,12.757,0,0,1,114.935,114.935Z" fill="#fe4566"/>
      <rect x="61.217" y="70.476" width="25.517" height="7" transform="translate(-30.642 73.976) rotate(-45)" fill="#ff7b94"/>
    </g>
    <g>
      <path d="M10.356,19.049a1.751,1.751,0,0,1-1.237-2.988l6.942-6.942a1.75,1.75,0,0,1,2.475,2.475l-6.942,6.942A1.744,1.744,0,0,1,10.356,19.049Z" fill="#5a7983"/>
      <path d="M14.75,25.841a1.75,1.75,0,0,1-1.237-2.987l9.34-9.342a1.75,1.75,0,0,1,2.475,2.475l-9.341,9.341A1.743,1.743,0,0,1,14.75,25.841Z" fill="#5a7983"/>
      <path d="M20.342,31.433A1.75,1.75,0,0,1,19.1,28.446l9.342-9.341a1.75,1.75,0,0,1,2.475,2.475l-9.342,9.34A1.743,1.743,0,0,1,20.342,31.433Z" fill="#5a7983"/>
      <path d="M27.134,35.827A1.751,1.751,0,0,1,25.9,32.839L32.839,25.9a1.75,1.75,0,0,1,2.474,2.475l-6.942,6.942A1.743,1.743,0,0,1,27.134,35.827Z" fill="#5a7983"/>
    </g>
  </g>
</svg>
