<svg xmlns="http://www.w3.org/2000/svg" width="128" height="128" viewBox="0 0 128 128">
  <title>HAIR DRYER</title>
  <g>
    <path d="M63.89,120.31A14.849,14.849,0,0,1,50.132,99.89a1.75,1.75,0,1,1,3.244,1.314A11.341,11.341,0,1,0,74.4,109.72L93.39,62.834a17.239,17.239,0,0,1,9.314-9.461,1.75,1.75,0,1,1,1.365,3.223,13.758,13.758,0,0,0-7.435,7.553L77.643,111.034A14.873,14.873,0,0,1,63.89,120.31Z" fill="#add3d8"/>
    <g>
      <path d="M50.378,90.867l-1.843,4.55a4.909,4.909,0,1,0,9.1,3.687l1.843-4.551Z" fill="#2bb65e"/>
      <path d="M53.836,95.407h0A7.5,7.5,0,0,1,49.7,85.64L60.093,59.983,74,65.614,63.6,91.271A7.5,7.5,0,0,1,53.836,95.407Z" fill="#70dd59"/>
      <path d="M90.19,54.57A18.918,18.918,0,0,1,72.57,66.32a19.338,19.338,0,0,1-9.07-2.26L77.64,29.18A19.1,19.1,0,0,1,90.19,54.57Z" fill="#2bb65e"/>
      <path d="M77.64,29.18,63.5,64.06c-.09-.05-.19-.1-.28-.15L21.71,40.06l9.1-22.78L77.33,29.09Z" fill="#f2e4e4"/>
      <polygon points="22.507 40.54 11.481 41.126 24.314 9.444 31.825 17.538 22.507 40.54" fill="#9fe17f"/>
    </g>
    <g>
      <path d="M109.535,49.769a1.75,1.75,0,0,1-.683-3.362l3.839-1.625A1.75,1.75,0,0,1,114.057,48l-3.84,1.626A1.734,1.734,0,0,1,109.535,49.769Z" fill="#ffd18b"/>
      <path d="M112.681,57.2A1.75,1.75,0,0,1,112,53.834l3.839-1.625a1.75,1.75,0,1,1,1.365,3.223l-3.839,1.625A1.747,1.747,0,0,1,112.681,57.2Z" fill="#ffd18b"/>
    </g>
    <path d="M103.405,54.993h0a6.25,6.25,0,0,1,3.319-8.192l1.946-.824,4.874,11.511-1.947.824A6.25,6.25,0,0,1,103.405,54.993Z" fill="#ffb22a"/>
  </g>
</svg>
