<svg xmlns="http://www.w3.org/2000/svg" width="128" height="128" viewBox="0 0 128 128">
  <title>HAIRBRUSH</title>
  <g>
    <path d="M64.817,81.813a22.1,22.1,0,0,0-16.609,7.714c-.708.849-1.4,1.725-2.072,2.609L29.052,114.764a9.428,9.428,0,1,1-13.209-13.209L38.6,84.323c.841-.644,1.676-1.308,2.5-1.987a21.37,21.37,0,0,0,6.873-10.89,23.458,23.458,0,0,0,.82-5.685c.22-9.921,6.485-22.7,17.4-33.623,14.3-14.3,31.82-20.619,41.882-15.846a13.056,13.056,0,0,1,3.67,2.567c8.91,8.909,2.963,29.309-13.279,45.552C87.544,75.335,74.745,81.6,64.817,81.813Z" fill="#f09b00"/>
    <path d="M92.232,57.538c-15.7,15.7-35.249,21.757-44.258,13.908a23.458,23.458,0,0,0,.82-5.685c.22-9.921,6.485-22.7,17.4-33.623,14.3-14.3,31.82-20.619,41.882-15.846C112.681,26.17,106.367,43.4,92.232,57.538Z" fill="#ffd08a"/>
    <path d="M98.88,23.2A3.494,3.494,0,0,1,96.4,22.178l-6.7-6.7a3.5,3.5,0,1,1,4.95-4.95l6.7,6.7A3.5,3.5,0,0,1,98.88,23.2Z" fill="#9a4916"/>
    <path d="M97.135,41.6a3.493,3.493,0,0,1-2.475-1.025l-6.7-6.7a3.5,3.5,0,1,1,4.95-4.95l6.7,6.7A3.5,3.5,0,0,1,97.135,41.6Z" fill="#9a4916"/>
    <path d="M86.291,54.07a3.493,3.493,0,0,1-2.475-1.025l-6.7-6.7a3.5,3.5,0,0,1,4.951-4.95l6.7,6.7a3.5,3.5,0,0,1-2.475,5.975Z" fill="#9a4916"/>
    <path d="M74.029,63.47a3.488,3.488,0,0,1-2.475-1.026l-6.7-6.7a3.5,3.5,0,1,1,4.95-4.95l6.7,6.7a3.5,3.5,0,0,1-2.475,5.975Z" fill="#9a4916"/>
    <path d="M54.8,65.306a3.49,3.49,0,0,1-2.475-1.025l-6.7-6.7a3.5,3.5,0,0,1,4.95-4.95l6.7,6.7A3.5,3.5,0,0,1,54.8,65.306Z" fill="#9a4916"/>
    <path d="M80.7,26.952a3.49,3.49,0,0,1-2.475-1.025l-6.7-6.7a3.5,3.5,0,1,1,4.95-4.951l6.7,6.7A3.5,3.5,0,0,1,80.7,26.952Z" fill="#9a4916"/>
    <path d="M69.526,35.858a3.491,3.491,0,0,1-2.475-1.025l-6.7-6.7a3.5,3.5,0,1,1,4.95-4.949l6.7,6.7a3.5,3.5,0,0,1-2.475,5.975Z" fill="#9a4916"/>
    <path d="M58.172,47.221A3.491,3.491,0,0,1,55.7,46.2L49,39.5a3.5,3.5,0,0,1,4.95-4.95l6.7,6.7a3.5,3.5,0,0,1-2.475,5.975Z" fill="#9a4916"/>
  </g>
</svg>
