<?xml version="1.0" encoding="iso-8859-1"?>
<!-- Uploaded to: SVG Repo, www.svgrepo.com, Generator: SVG Repo Mixer Tools -->
<svg height="800px" width="800px" version="1.1" id="Layer_1" xmlns="http://www.w3.org/2000/svg" xmlns:xlink="http://www.w3.org/1999/xlink" 
	 viewBox="0 0 512.001 512.001" xml:space="preserve">
<path style="fill:#FD3B6D;" d="M485.344,94.606c16.543-18.921,15.809-47.69-2.224-65.723c-18.033-18.033-46.802-18.767-65.723-2.224
	C343.523-16.951,246.57-7.056,183.171,56.344c-69.358,69.358-74.678,178.871-15.968,254.394c0,0-140.489,106.428-153.094,119.034
	c-18.811,18.811-18.811,49.311,0,68.121c18.811,18.811,49.311,18.811,68.122,0c12.605-12.605,119.034-153.094,119.034-153.094
	c75.523,58.71,185.035,53.39,254.394-15.968C519.057,265.431,528.952,168.478,485.344,94.606z M48.17,481.894
	c-9.976,0-18.063-8.086-18.063-18.063c0-9.976,8.088-18.064,18.063-18.064s18.063,8.088,18.063,18.064
	C66.234,473.808,58.146,481.894,48.17,481.894z"/>
<g>
	<path style="fill:#C6F2EA;" d="M421.597,90.404H385.47L217.232,294.768c26.151,26.151,62.278,42.325,102.183,42.325
		c79.809,0,144.508-64.699,144.508-144.508C463.922,152.682,447.748,116.555,421.597,90.404z"/>
	<path style="fill:#C6F2EA;" d="M369.753,57.095c-15.677-5.826-32.635-9.017-50.339-9.017c-79.809,0-144.508,64.699-144.508,144.508
		c0,17.706,3.19,34.664,9.017,50.339h36.127L369.753,57.095z"/>
</g>
<path style="fill:#FFFFFF;" d="M183.923,242.926c7.306,19.656,18.761,37.295,33.309,51.843L421.597,90.404
	c-14.548-14.548-32.187-26.003-51.843-33.309L183.923,242.926z"/>
</svg>