<svg xmlns="http://www.w3.org/2000/svg" width="128" height="128" viewBox="0 0 128 128">
  <title>HIGHLIGHTER</title>
  <g>
    <g>
      <path d="M70.3,103.664H95.394a0,0,0,0,1,0,0v3.909a5,5,0,0,1-5,5H75.3a5,5,0,0,1-5-5v-3.909A0,0,0,0,1,70.3,103.664Z" fill="#81a1b1"/>
      <circle cx="82.849" cy="75.603" r="31" fill="#5a7983"/>
      <circle cx="82.849" cy="75.603" r="24" fill="#add3d8"/>
    </g>
    <g>
      <g>
        <path d="M50.131,58.292,33.486,53.877l-.735-24.991C32.417,17.523,42.819,8.761,53.6,11.623h0c10.785,2.861,15.475,15.627,9.552,25.33Z" fill="#ffa1b2"/>
        <rect x="19.689" y="59.99" width="27.455" height="55.455" rx="5" transform="matrix(0.967, 0.256, -0.256, 0.967, 23.611, -5.636)" fill="#ffb22a"/>
      </g>
      <path d="M42.322,55.9a1.752,1.752,0,0,1-1.693-2.2l5.386-20.3a1.749,1.749,0,1,1,3.382.9L44.012,54.6A1.751,1.751,0,0,1,42.322,55.9Z" fill="#ff7b94"/>
      <path d="M49.313,63.248,31.739,58.586l1.026-3.866a3,3,0,0,1,3.669-2.131l11.774,3.124a3,3,0,0,1,2.131,3.669Z" fill="#ffd18b"/>
    </g>
  </g>
</svg>
