<svg xmlns="http://www.w3.org/2000/svg" width="128" height="128" viewBox="0 0 128 128">
  <title>LIP GLOSS</title>
  <g>
    <g>
      <rect x="75.477" y="15.864" width="14.727" height="22.955" fill="#ffa1b2"/>
      <path d="M72.113,36.409H93.568a0,0,0,0,1,0,0v72.182a10,10,0,0,1-10,10H82.113a10,10,0,0,1-10-10V36.409A0,0,0,0,1,72.113,36.409Z" fill="#ffb22c"/>
      <path d="M84.59,36.41V80.59a1.75,1.75,0,0,1-3.5,0V36.41Z" fill="#ffd18b"/>
    </g>
    <g>
      <rect x="41.296" y="29.454" width="7.727" height="49.364" fill="#ff7b94"/>
      <path d="M53.386,30.773H36.932V20.636A11.228,11.228,0,0,1,48.159,9.409h0a5.227,5.227,0,0,1,5.227,5.227Z" fill="#ffa1b2"/>
      <rect x="34.43" y="77.5" width="21.46" height="41.09" rx="5" fill="#ffb22c"/>
      <path d="M46.91,98.05v20.54h-3.5V98.05a1.75,1.75,0,1,1,3.5,0Z" fill="#ffd18b"/>
    </g>
  </g>
</svg>
