<svg xmlns="http://www.w3.org/2000/svg" width="128" height="128" viewBox="0 0 128 128">
  <title>LOTION</title>
  <g>
    <rect x="59.5" y="14.204" width="9" height="12.386" fill="#9a4916"/>
    <rect x="55" y="25.403" width="18" height="12.051" fill="#ffd18b"/>
    <rect x="53.159" y="36.229" width="21.681" height="8.862" fill="#d66823"/>
    <path d="M76.274,120.139H51.728a9.993,9.993,0,0,1-9.38-6.516c-7-18.947-4.006-53.994,10.784-70.394h21.73c14.8,16.4,17.783,51.445,10.793,70.391A9.992,9.992,0,0,1,76.274,120.139Z" fill="#ffb22a"/>
    <path d="M75.543,14.861h-36.8a7,7,0,0,1,7-7h29.8Z" fill="#f09b00"/>
    <rect x="48.137" y="65.407" width="31.727" height="37.091" rx="10" fill="#ffd18b"/>
  </g>
</svg>
