<svg xmlns="http://www.w3.org/2000/svg" width="128" height="128" viewBox="0 0 128 128">
  <title>MAKEUP REMOVER</title>
  <g>
    <g>
      <g>
        <path d="M46.52,17.36H21.4a10.005,10.005,0,0,1,9.93-8.82h5.26A10.005,10.005,0,0,1,46.52,17.36Z" fill="#2bb65e"/>
        <path d="M46.59,18.54V40.89H21.33V18.54a9.232,9.232,0,0,1,.07-1.18H46.52A9.232,9.232,0,0,1,46.59,18.54Z" fill="#70dd59"/>
      </g>
      <g>
        <rect x="10.96" y="53.64" width="46" height="50.83" fill="#70dd59"/>
        <path d="M56.96,49.15v4.49h-46V49.15a10,10,0,0,1,10-10h26A10,10,0,0,1,56.96,49.15Z" fill="#2bb65e"/>
        <path d="M10.96,104.47h46v4.99a10,10,0,0,1-10,10h-26a10,10,0,0,1-10-10Z" fill="#2bb65e"/>
      </g>
    </g>
    <g>
      <circle cx="84.979" cy="76.415" r="32.061" fill="#ffd18b"/>
      <path d="M85.051,95.226h-.072a18.791,18.791,0,0,1-9.4-2.52,1.75,1.75,0,1,1,1.754-3.029,15.269,15.269,0,0,0,7.645,2.049,1.78,1.78,0,0,1,1.786,1.75A1.72,1.72,0,0,1,85.051,95.226ZM93.566,92.9a1.75,1.75,0,0,1-.885-3.26,15.445,15.445,0,0,0,5.584-5.625,1.75,1.75,0,1,1,3.035,1.744,18.958,18.958,0,0,1-6.852,6.9A1.747,1.747,0,0,1,93.566,92.9ZM70.214,86.7a1.748,1.748,0,0,1-1.516-.871,18.775,18.775,0,0,1-2.53-9.4,1.75,1.75,0,0,1,1.748-1.751h0a1.75,1.75,0,0,1,1.75,1.748,15.261,15.261,0,0,0,2.058,7.642A1.75,1.75,0,0,1,70.214,86.7Zm31.826-8.591a1.75,1.75,0,0,1-1.75-1.744,15.291,15.291,0,0,0-2.073-7.64,1.75,1.75,0,0,1,3.023-1.763,18.8,18.8,0,0,1,2.55,9.391,1.75,1.75,0,0,1-1.744,1.756ZM70.192,69.657a1.749,1.749,0,0,1-1.513-2.625,18.945,18.945,0,0,1,6.867-6.888,1.75,1.75,0,0,1,1.76,3.025,15.445,15.445,0,0,0-5.6,5.613A1.749,1.749,0,0,1,70.192,69.657Zm23.277-6.286a1.747,1.747,0,0,1-.872-.233A15.28,15.28,0,0,0,84.979,61.1a1.765,1.765,0,0,1-1.768-1.75,1.735,1.735,0,0,1,1.731-1.75h.037a18.8,18.8,0,0,1,9.366,2.5,1.751,1.751,0,0,1-.876,3.267Z" fill="#ffb22c"/>
    </g>
  </g>
</svg>
