<svg xmlns="http://www.w3.org/2000/svg" width="128" height="128" viewBox="0 0 128 128">
  <title>MASK</title>
  <path d="M34.668,87.183C19.068,87.183,7.4,76.1,6.687,66.157c-.639-8.9,6.846-15.349,20.024-17.253a1.75,1.75,0,0,1,.5,3.465C15.886,54,9.678,58.939,10.178,65.906c.6,8.392,11.2,17.777,24.49,17.777a1.75,1.75,0,0,1,0,3.5Z" fill="#5a7983"/>
  <path d="M93.333,87.183a1.75,1.75,0,0,1,0-3.5c13.385,0,24.066-9.442,24.672-17.883.5-6.91-5.674-11.806-16.931-13.431a1.75,1.75,0,0,1,.5-3.465c13.11,1.894,20.557,8.3,19.922,17.147C120.778,76.046,109.035,87.183,93.333,87.183Z" fill="#5a7983"/>
  <g>
    <path d="M56.49,27.952a11.967,11.967,0,0,1,15.02,0l8.825,6.887L96.67,47.587H31.33L47.665,34.839Z" fill="#81a1b1"/>
    <g>
      <path d="M64,102.7h0A33.542,33.542,0,0,1,30.873,74.416L26.818,48.88c24.9-14.429,49.7-15.153,74.364,0L97.127,74.416A33.542,33.542,0,0,1,64,102.7Z" fill="#add3d8"/>
      <g>
        <path d="M90.453,58.658a1.742,1.742,0,0,1-.918-.261c-17.183-10.608-33.887-10.606-51.07,0a1.75,1.75,0,1,1-1.838-2.978c18.163-11.213,36.582-11.213,54.747,0a1.75,1.75,0,0,1-.921,3.239Z" fill="#81a1b1"/>
        <path d="M45.747,68.576a1.75,1.75,0,0,1-.921-3.239c12.723-7.853,25.624-7.853,38.348,0a1.75,1.75,0,1,1-1.839,2.978c-11.666-7.2-23.006-7.2-34.67,0A1.742,1.742,0,0,1,45.747,68.576Z" fill="#81a1b1"/>
        <path d="M76.245,78.613a1.75,1.75,0,0,1-.918-.26c-7.621-4.706-15.032-4.706-22.654,0a1.75,1.75,0,0,1-1.839-2.979c8.737-5.394,17.6-5.392,26.332,0a1.75,1.75,0,0,1-.921,3.239Z" fill="#81a1b1"/>
      </g>
    </g>
  </g>
</svg>
