<svg xmlns="http://www.w3.org/2000/svg" width="128" height="128" viewBox="0 0 128 128">
  <title>MINERAL</title>
  <g>
    <path d="M64,116.65a5.022,5.022,0,0,1-3.54-1.46L12.81,67.54A5.022,5.022,0,0,1,11.35,64H44.88a4.937,4.937,0,0,0,.31,1.73Z" fill="#ffd18b"/>
    <path d="M116.65,64a5.022,5.022,0,0,1-1.46,3.54L67.54,115.19A5.022,5.022,0,0,1,64,116.65L82.81,65.73A4.937,4.937,0,0,0,83.12,64Z" fill="#ffd18b"/>
    <path d="M83.12,64H44.88a4.937,4.937,0,0,1,.31-1.73L64,11.35,82.81,62.27A4.937,4.937,0,0,1,83.12,64Z" fill="#ffd18b"/>
  </g>
  <path d="M64,11.35,45.19,62.27A4.937,4.937,0,0,0,44.88,64H11.35a5.022,5.022,0,0,1,1.46-3.54L60.46,12.81A5.022,5.022,0,0,1,64,11.35Z" fill="#ffb22a"/>
  <path d="M116.65,64H83.12a4.937,4.937,0,0,0-.31-1.73L64,11.35a5.022,5.022,0,0,1,3.54,1.46l47.65,47.65A5.022,5.022,0,0,1,116.65,64Z" fill="#ffb22a"/>
  <path d="M83.12,64a4.937,4.937,0,0,1-.31,1.73L64,116.65,45.19,65.73A4.937,4.937,0,0,1,44.88,64Z" fill="#ffb22a"/>
</svg>
