<svg xmlns="http://www.w3.org/2000/svg" width="128" height="128" viewBox="0 0 128 128">
  <title>MOISTURIZER</title>
  <g>
    <g>
      <path d="M24.561,37.379v1.379h78.878V37.379c.055-8.335-7.119-10.306-14.8-11.169a15.951,15.951,0,0,1-4.617-1.192c-8.3-3.626-3.9-10.2.33-14.518C58,10.5,40.387,34.364,24.561,37.379Z" fill="#f2e4e4"/>
      <polygon points="108.818 44.379 108.818 51.364 19.182 51.364 19.182 44.379 23.545 37.379 104.454 37.379 108.818 44.379" fill="#5a7983"/>
      <rect x="17.364" y="44.379" width="93.272" height="13.97" fill="#81a1b1"/>
      <path d="M14.818,54.379h98.364a5,5,0,0,1,5,5V105.5a12,12,0,0,1-12,12H21.818a12,12,0,0,1-12-12V59.379A5,5,0,0,1,14.818,54.379Z" fill="#add3d8"/>
    </g>
    <ellipse cx="64" cy="85.939" rx="32.636" ry="15.409" fill="#c0eaf0"/>
  </g>
</svg>
