<svg xmlns="http://www.w3.org/2000/svg" width="128" height="128" viewBox="0 0 128 128">
  <title>NAIL CLIPPER</title>
  <g>
    <path d="M96.465,106.227h0a12.321,12.321,0,0,1-16.813.571L11.931,47.711A85.611,85.611,0,0,0,37.949,21.693l59.088,67.72A12.322,12.322,0,0,1,96.465,106.227Z" fill="#add3d8"/>
    <path d="M25.536,18.164A32.225,32.225,0,0,1,8.4,35.3l3.528,12.414A85.611,85.611,0,0,0,37.949,21.693Z" fill="#c0eaf0"/>
    <path d="M119.416,63.855h0a7.5,7.5,0,0,1-8.493,5.775L32.7,57.213l5.376-24.139,76.1,21.948A7.5,7.5,0,0,1,119.416,63.855Z" fill="#c0eaf0"/>
    <path d="M40.2,40.27a6.852,6.852,0,1,1-9.69,0A6.852,6.852,0,0,1,40.2,40.27Z" fill="#81a1b1"/>
  </g>
</svg>
