<svg xmlns="http://www.w3.org/2000/svg" width="128" height="128" viewBox="0 0 128 128">
  <title>NAIL POLISH</title>
  <g>
    <g>
      <polygon points="32.437 56.75 35.027 48.364 48.878 48.364 51.469 56.75 32.437 56.75" fill="#ffc5ce"/>
      <polygon points="57.771 48.818 26.135 48.818 31.627 7.303 52.279 7.303 57.771 48.818" fill="#ff7b94"/>
      <rect x="27.06" y="55.818" width="29.786" height="8.182" fill="#ff7b94"/>
      <rect x="91.635" y="22.288" width="7" height="37.621" fill="#ff7b94"/>
      <path d="M52.548,120.7H31.358a10,10,0,0,1-9.907-8.638L16.242,74.18a10,10,0,0,1,9.907-11.362H57.756A10,10,0,0,1,67.663,74.18l-5.209,37.879A10,10,0,0,1,52.548,120.7Z" fill="#ffc5ce"/>
      <ellipse cx="41.953" cy="91.758" rx="11.347" ry="14.97" fill="#ffa1b2"/>
    </g>
    <g>
      <path d="M111.84,63.72l-.73,10.55H79.16l-.73-10.55a5,5,0,0,1,4.99-5.34h23.43A5,5,0,0,1,111.84,63.72Z" fill="#ffd18b"/>
      <path d="M111.11,74.27l-2.88,41.77a5,5,0,0,1-4.99,4.66H87.03a5,5,0,0,1-4.99-4.66L79.16,74.27Z" fill="#ffb22c"/>
      <polygon points="100.63 23.818 89.639 23.818 86.498 8.454 103.771 8.454 100.63 23.818" fill="#ffa1b2"/>
    </g>
  </g>
</svg>
