<svg xmlns="http://www.w3.org/2000/svg" width="128" height="128" viewBox="0 0 128 128">
  <title>SERUM</title>
  <g>
    <path d="M89.58,76.315v33.851a10.047,10.047,0,0,1-10,10.094H48.42a10.047,10.047,0,0,1-10-10.094V76.315A16.794,16.794,0,0,1,44.2,63.62h0a23.128,23.128,0,0,0,7.96-17.484H75.84A23.179,23.179,0,0,0,83.8,63.62h0A16.794,16.794,0,0,1,89.58,76.315Z" fill="#ffb22a"/>
    <path d="M74.35,29.727H53.65c3.764-5.442,4.793-11.765,5.074-16.864A5.347,5.347,0,0,1,64,7.74h0a5.347,5.347,0,0,1,5.276,5.123C69.557,17.962,70.586,24.285,74.35,29.727Z" fill="#f7efef"/>
    <rect x="47.227" y="29.105" width="33.545" height="17.725" fill="#ffd18b"/>
    <rect x="47.61" y="72.833" width="32.779" height="38.334" rx="10" fill="#f7efef"/>
    <path d="M71.727,94.732c0,4.267-3.459,8.334-7.727,8.334S56.273,99,56.273,94.732,64,80.933,64,80.933,71.727,90.464,71.727,94.732Z" fill="#add3d8"/>
  </g>
</svg>
