<svg id="Capa_1" enable-background="new 0 0 512.001 512.001" height="512" viewBox="0 0 512.001 512.001" width="512" xmlns="http://www.w3.org/2000/svg"><g><path d="m249.197 343.718h-14.667v-16.074c3.707-2.763 7.243-5.808 10.577-9.131 13.271-13.225 22.201-29.635 26.087-47.512h17.21c24.813 0 45-20.187 45-45v-31.03c0-19.555-12.541-36.228-30-42.42v-26.343c.001-69.592-56.615-126.208-126.207-126.208s-126.208 56.616-126.208 126.208v26.344c-17.458 6.192-30 22.865-30 42.42v31.03c0 24.813 20.187 45 45 45h17.391c5.166 22.896 18.388 42.759 36.484 56.369v16.348h-14.667c-57.897 0-105 47.103-105 105v63.283h354v-63.283c0-57.898-47.102-105.001-105-105.001zm54.208-117.717c0 8.271-6.729 15-15 15h-15v-61.03h15c8.271 0 15 6.729 15 15zm-126.208-196.001c53.049 0 96.208 43.159 96.208 96.208v23.763h-.208c-3.225-50.153-45.046-89.971-96-89.971s-92.775 39.818-96 89.971h-.208v-23.763c0-53.049 43.159-96.208 96.208-96.208zm48.643 81.352-7.889 7.888c-14.166 14.166-33 21.967-53.033 21.967h-52.194c6.816-29.301 33.126-51.207 64.473-51.207 19.215 0 36.537 8.235 48.643 21.352zm-174.85 114.649v-31.03c0-8.271 6.729-15 15-15h15v61.03h-15c-8.271 0-15-6.729-15-15zm59.999-54.793h53.929c28.046 0 54.414-10.922 74.246-30.754l1.847-1.847c1.549 5.609 2.394 11.507 2.394 17.601v94.157c0 17.728-6.916 34.384-19.474 46.898-12.557 12.514-29.239 19.348-46.97 19.31-36.377-.126-65.973-30.222-65.973-67.089v-78.276zm65.869 175.364h.343c9.388 0 18.569-1.341 27.33-3.922v16.193c0 15.071-12.262 27.333-27.333 27.333s-27.333-12.262-27.333-27.333v-16.276c8.565 2.571 17.623 3.973 26.993 4.005zm147.339 135.429h-40v-29.867h-30v29.867h-154v-29.867h-30v29.867h-40v-33.283c0-41.355 33.645-75 75-75h16.635c6.569 24.424 28.896 42.459 55.365 42.459s48.797-18.035 55.365-42.459h16.635c41.355 0 75 33.645 75 75z"/><path d="m177.197 286.573c25.129 0 45.573-20.444 45.573-45.573h-30c0 8.587-6.986 15.573-15.573 15.573s-15.573-6.986-15.573-15.573h-30c0 25.129 20.444 45.573 45.573 45.573z"/><path d="m469.84 435.856 20.751 20.751 21.213-21.213-83.934-83.934c7.967-16.724 5.045-37.381-8.782-51.208l-14.142-14.142c-17.545-17.546-46.095-17.545-63.64 0-17.546 17.545-17.546 46.094 0 63.639l14.142 14.142c8.772 8.773 20.296 13.159 31.819 13.159 6.64 0 13.276-1.465 19.39-4.377l33.183 33.183v76.145h-23.358v30h76.716v-30h-23.358zm-93.179-93.177-14.142-14.142c-5.849-5.849-5.849-15.365 0-21.213 2.925-2.924 6.766-4.386 10.607-4.386 3.84 0 7.683 1.462 10.606 4.386l14.142 14.142c5.849 5.849 5.849 15.365 0 21.213-5.847 5.847-15.363 5.849-21.213 0z"/></g></svg>