<svg id="Capa_1" enable-background="new 0 0 512 512" height="512" viewBox="0 0 512 512" width="512" xmlns="http://www.w3.org/2000/svg"><g><path d="m418.022 275.116v-29.62h30v-15c0-105.881-86.141-192.022-192.022-192.022s-192.022 86.141-192.022 192.023v15h30v29.62c-52.287 2.763-93.978 46.17-93.978 99.133 0 54.741 44.535 99.275 99.275 99.275h24.702v-16.67h60v-165.21h-60v-46.148h30v-15c0-56.255 45.767-102.022 102.022-102.022s102.022 45.767 102.022 102.022v15h30v46.148h-60v165.21h60v16.67h24.702c54.74 0 99.275-44.535 99.275-99.275.002-52.963-41.689-96.37-93.976-99.134zm-324.044 168.209c-35.735-2.714-63.978-32.658-63.978-69.075s28.243-66.361 63.978-69.075zm60-16.47h-30v-105.21h30zm102.022-328.38c-67.728 0-123.707 51.259-131.176 117.022h-30.158c7.59-82.337 77.049-147.022 161.334-147.022s153.744 64.685 161.334 147.022h-30.158c-7.469-65.763-63.448-117.022-131.176-117.022zm102.022 328.38v-105.21h30v105.21zm60 16.47v-138.15c35.735 2.714 63.978 32.658 63.978 69.075s-28.243 66.361-63.978 69.075z"/></g></svg>