<svg id="Capa_1" enable-background="new 0 0 512 512" height="512" viewBox="0 0 512 512" width="512" xmlns="http://www.w3.org/2000/svg"><g><path d="m512 301v-90h-31v-106c0-57.897-47.103-105-105-105s-105 47.103-105 105v106h-30v-46c0-57.897-47.103-105-105-105s-105 47.103-105 105v46h-31v90h31v46c0 8.271-6.729 15-15 15h-16v90h16c57.897 0 105-47.103 105-105v-46h30v106c0 57.897 47.103 105 105 105s105-47.103 105-105v-106h30v106c0 57.897 47.103 105 105 105h16v-90h-16c-8.271 0-15-6.729-15-15v-106zm-211-196c0-41.355 33.645-75 75-75s75 33.645 75 75v106h-30v-106c0-24.813-20.187-45-45-45s-45 20.187-45 45v106h-30zm90 106h-30v-106c0-8.271 6.729-15 15-15s15 6.729 15 15zm-330-46c0-41.355 33.645-75 75-75s75 33.645 75 75v46h-30v-46c0-24.813-20.187-45-45-45s-45 20.187-45 45v46h-30zm90 46h-30v-46c0-8.271 6.729-15 15-15s15 6.729 15 15zm-121 30h452v30h-452zm211 60h30v106c0 8.271-6.729 15-15 15s-15-6.729-15-15zm-150 46c0 36.572-26.313 67.114-61 73.69v-30.919c17.979-5.9 31-22.844 31-42.771v-46h30zm240 60c0 41.355-33.645 75-75 75s-75-33.645-75-75v-106h30v106c0 24.813 20.187 45 45 45s45-20.187 45-45v-106h30zm151 42.771v30.919c-34.688-6.576-61-37.118-61-73.69v-106h30v106c0 19.927 13.021 36.871 31 42.771z"/></g></svg>