<svg id="Capa_1" enable-background="new 0 0 512 512" height="512" viewBox="0 0 512 512" width="512" xmlns="http://www.w3.org/2000/svg"><g><path d="m378.819 148.656c17.546-17.545 17.546-46.094 0-63.64l-21.213 21.213c2.833 2.833 4.394 6.6 4.394 10.607s-1.561 7.773-4.394 10.607z"/><path d="m421.246 191.082c19.832-19.831 30.754-46.199 30.754-74.246 0-28.046-10.922-54.414-30.754-74.246l-21.213 21.213c14.166 14.166 21.967 33 21.967 53.033s-7.801 38.868-21.967 53.033z"/><path d="m442.46 212.296 21.213 21.213c64.333-64.333 64.333-169.011 0-233.345l-21.213 21.213c52.636 52.636 52.636 138.282 0 190.919z"/><path d="m154.394 127.443c-2.833-2.833-4.394-6.6-4.394-10.607s1.561-7.773 4.394-10.607l-21.213-21.213c-17.546 17.545-17.546 46.094 0 63.64z"/><path d="m90.754 191.082 21.213-21.213c-29.242-29.243-29.242-76.824 0-106.066l-21.213-21.213c-40.94 40.94-40.94 107.553 0 148.492z"/><path d="m69.541 212.296c-52.636-52.637-52.636-138.282 0-190.919l-21.213-21.213c-64.333 64.333-64.333 169.011 0 233.345z"/><path d="m360.528 481.836-30-290h-59.528v-32.58c17.459-6.192 30-22.865 30-42.42 0-24.813-20.187-45-45-45s-45 20.187-45 45c0 19.555 12.541 36.228 30 42.42v32.58h-59.528l-30 290h-151.472v30h512v-30zm-104.528-380c8.271 0 15 6.729 15 15s-6.729 15-15 15-15-6.729-15-15 6.729-15 15-15zm30.565 272.5-30.565 25.86-30.565-25.86zm-69.176-30 38.611-44.433 38.611 44.433zm102.966 40.708 7.891 76.277-49.023-41.477zm-44.483-108.009 29.766-34.255 8.045 77.768zm-19.872-22.869-28.094-32.33h56.187zm-19.872 22.869-37.811 43.513 8.045-77.768zm-44.483 108.009 41.132 34.801-49.023 41.477zm64.355 54.449 50.048 42.344h-100.096z"/></g></svg>