<svg id="Capa_1" enable-background="new 0 0 512 512" height="512" viewBox="0 0 512 512" width="512" xmlns="http://www.w3.org/2000/svg"><g><path d="m332 169.534v-41.046h-15.476c9.702-12.762 15.476-28.666 15.476-45.898v-52.59h-61v-30h-30v30h-61v52.59c0 17.232 5.774 33.136 15.476 45.898h-15.476v41.046h-180v172.83h180v41.046h15.556c-9.75 12.78-15.556 28.721-15.556 46v52.59h61v30h30v-30h61v-52.59c0-17.279-5.806-33.22-15.556-46h15.556v-41.046h180v-172.83zm-272 142.83h-30v-41.364h30zm0-71.364h-30v-41.466h30zm60 71.364h-30v-41.364h30zm0-71.364h-30v-41.466h30zm60 71.364h-30v-41.364h30zm0-71.364h-30v-41.466h30zm122 211h-92v-22.59c0-25.364 20.636-46 46-46s46 20.636 46 46zm0-98.59h-92v-194.922h92zm0-270.82c0 24.386-19.078 44.391-43.091 45.898h-5.817c-24.014-1.507-43.092-21.512-43.092-45.898v-22.59h92zm60 229.774h-30v-41.364h30zm0-71.364h-30v-41.466h30zm60 71.364h-30v-41.364h30zm0-71.364h-30v-41.466h30zm60 71.364h-30v-41.364h30zm0-71.364h-30v-41.466h30z"/><path d="m241 184.534h30v142.83h-30z"/></g></svg>