<svg id="Capa_1" enable-background="new 0 0 511.969 511.969" height="512" viewBox="0 0 511.969 511.969" width="512" xmlns="http://www.w3.org/2000/svg"><g><path d="m480.405 31.564c-20.354-20.355-47.416-31.564-76.201-31.564s-55.847 11.209-76.201 31.564l-23.023 23.023c-20.354 20.354-31.564 47.416-31.564 76.201 0 .747.012 1.493.027 2.238l-23.452-23.452-112.722 112.723 31.966 31.966-169.235 169.234 88.472 88.472 169.235-169.235 31.966 31.966 112.722-112.722-23.452-23.452c.745.015 1.491.027 2.238.027 28.785 0 55.847-11.209 76.201-31.564l23.023-23.023c20.354-20.354 31.564-47.416 31.564-76.201s-11.21-55.847-31.564-76.201zm-391.933 437.978-46.045-46.045 148.021-148.021 46.045 46.045zm91.224-247.245 24.541-24.541 109.976 109.976-24.541 24.541zm155.73 64.222-109.976-109.976 24.541-24.541 109.976 109.976zm123.766-123.766-23.023 23.023c-14.688 14.688-34.216 22.777-54.988 22.777-20.767 0-40.291-8.086-54.978-22.767l-.02-.02c-14.681-14.687-22.767-34.211-22.767-54.978 0-20.771 8.089-40.3 22.777-54.988l23.023-23.023c14.688-14.688 34.216-22.777 54.988-22.777s40.3 8.089 54.988 22.777 22.777 34.216 22.777 54.988-8.089 40.3-22.777 54.988z"/><path d="m377.692 61.851h30v30h-30z" transform="matrix(.707 -.707 .707 .707 60.676 300.184)"/><path d="m377.692 146.703h30v30h-30z" transform="matrix(.707 -.707 .707 .707 .672 325.028)"/></g></svg>