<svg id="Capa_1" enable-background="new 0 0 512 512" height="512" viewBox="0 0 512 512" width="512" xmlns="http://www.w3.org/2000/svg"><g><path d="m256 0c-110.905 0-201.133 90.228-201.133 201.132v310.868h402.266v-310.868c0-110.904-90.228-201.132-201.133-201.132zm171.133 482h-342.266v-280.868c0-94.362 76.77-171.132 171.133-171.132s171.133 76.77 171.133 171.132z"/><path d="m256 60c-77.821 0-141.133 63.312-141.133 141.132v130.868h282.266v-130.868c0-77.82-63.312-141.132-141.133-141.132zm93.199 80.667h-38.199v-36.075c15.42 8.819 28.532 21.226 38.199 36.075zm17.934 60.465v20.201h-56.133v-50.667h51.887c2.764 9.686 4.246 19.906 4.246 30.466zm-136.133 20.201v-50.667h50v50.667zm50 30v50.667h-50v-50.667zm-131.887-80.666h51.887v50.667h-56.133v-20.201c0-10.561 1.482-20.781 4.246-30.466zm131.887-77.831v47.83h-50v-47.83c8.038-1.855 16.407-2.836 25-2.836s16.962.981 25 2.836zm-80 11.756v36.075h-38.199c9.667-14.849 22.779-27.256 38.199-36.075zm-56.133 146.741h56.133v50.667h-56.133zm166.133 50.667v-50.667h56.133v50.667z"/><path d="m352.133 362h-192.266c-24.813 0-45 20.187-45 45s20.187 45 45 45h192.266c24.813 0 45-20.187 45-45s-20.187-45-45-45zm-42.42 30c-1.665 4.695-2.58 9.742-2.58 15s.915 10.305 2.58 15h-107.426c1.665-4.695 2.58-9.742 2.58-15s-.915-10.305-2.58-15zm-164.846 15c0-8.271 6.729-15 15-15s15 6.729 15 15-6.729 15-15 15-15-6.729-15-15zm207.266 15c-8.271 0-15-6.729-15-15s6.729-15 15-15 15 6.729 15 15-6.729 15-15 15z"/></g></svg>