<svg id="Capa_1" enable-background="new 0 0 512 512" height="512" viewBox="0 0 512 512" width="512" xmlns="http://www.w3.org/2000/svg"><g><path d="m60 333.352h118.934v-90h-118.934zm30-60h58.934v30h-58.934z"/><path d="m193.934 123.352c-24.813 0-45 20.187-45 45v15h-58.934v-138.352c0-24.813-20.187-45-45-45s-45 20.187-45 45v280.31l10 37.648v149.042h228.934v-343.648c0-24.814-20.187-45-45-45zm-163.934-78.352c0-8.271 6.729-15 15-15s15 6.729 15 15v138.352h-30zm178.934 437h-168.934v-122.958l-10-37.648v-108.042h178.934zm-30-298.648v-15c0-8.271 6.729-15 15-15s15 6.729 15 15v15z"/><path d="m74.467 363.352h30v30h-30z"/><path d="m134.467 363.352h30v30h-30z"/><path d="m74.467 423.352h30v30h-30z"/><path d="m134.467 423.352h30v30h-30z"/><path d="m333.066 333.352h118.934v-90h-118.934zm30-60h58.934v30h-58.934z"/><path d="m467 123.352c-24.813 0-45 20.187-45 45v15h-58.934v-138.352c0-24.813-20.187-45-45-45s-45 20.187-45 45v280.31l10 37.648v149.042h228.934v-343.648c0-24.814-20.187-45-45-45zm-163.934-78.352c0-8.271 6.729-15 15-15s15 6.729 15 15v138.352h-30zm178.934 437h-168.934v-122.958l-10-37.648v-108.042h178.934zm-30-298.648v-15c0-8.271 6.729-15 15-15s15 6.729 15 15v15z"/><path d="m347.533 363.352h30v30h-30z"/><path d="m407.533 363.352h30v30h-30z"/><path d="m347.533 423.352h30v30h-30z"/><path d="m407.533 423.352h30v30h-30z"/></g></svg>