<svg id="Capa_1" enable-background="new 0 0 512 512" height="512" viewBox="0 0 512 512" width="512" xmlns="http://www.w3.org/2000/svg"><g><path d="m0 77v358h512v-358zm482 328h-452v-298h452z"/><path d="m120 197h272v30h-272z"/><path d="m256 377c22.159 0 41.537-12.084 51.928-30h144.072v-210h-392v210h144.072c10.391 17.916 29.769 30 51.928 30zm0-30c-16.542 0-30-13.458-30-30s13.458-30 30-30 30 13.458 30 30-13.458 30-30 30zm51.928-60h46.072v30h-38c0-10.925-2.949-21.167-8.072-30zm114.072 30h-38v-30h38zm-332-150h332v90h-332zm0 120h38v30h-38zm68 30v-30h46.072c-5.123 8.833-8.072 19.075-8.072 30z"/></g></svg>