<svg id="Capa_1" enable-background="new 0 0 512 512" height="512" viewBox="0 0 512 512" width="512" xmlns="http://www.w3.org/2000/svg"><g><path d="m0 0v512h512v-512zm482 30v211h-452v-211zm-452 452v-211h452v211z"/><path d="m320.848 305.89-22.273 79.614-23.506-79.675h-28.725l-24.914 138.448 29.526 5.314 13.354-74.211 20.923 70.918h27.486l19.878-71.053 14.574 74.526 29.443-5.758-27.033-138.23z"/><path d="m137.986 448.079h30v-57.65h42.221v-30h-42.221v-25.508h45.864v-30h-75.864z"/><path d="m224.18 189.287 21.213 21.213c2.833-2.833 6.6-4.394 10.607-4.394s7.773 1.561 10.607 4.394l21.213-21.213c-8.5-8.5-19.8-13.181-31.82-13.181s-23.32 4.681-31.82 13.181z"/><path d="m181.754 146.86 21.213 21.213c14.165-14.166 33-21.967 53.033-21.967s38.868 7.801 53.033 21.967l21.213-21.213c-19.832-19.832-46.199-30.754-74.246-30.754s-54.415 10.922-74.246 30.754z"/><path d="m256 86.106c36.06 0 69.961 14.043 95.459 39.541l21.213-21.213c-31.164-31.164-72.599-48.328-116.672-48.328s-85.508 17.163-116.672 48.328l21.213 21.213c25.498-25.498 59.399-39.541 95.459-39.541z"/></g></svg>