<svg id="Capa_1" enable-background="new 0 0 512 512" height="512" viewBox="0 0 512 512" width="512" xmlns="http://www.w3.org/2000/svg"><g><path d="m0 0v512h512v-512zm482 30v60h-452v-60zm-346.265 191.7c0 8.4-6.834 15.234-15.235 15.234s-15.234-6.834-15.234-15.234v-7.133c0-8.4 6.834-15.234 15.234-15.234s15.235 6.834 15.235 15.234zm-45.735 75.85c0-16.817 13.682-30.5 30.5-30.5s30.5 13.683 30.5 30.5v6.45h-61zm392 36.45v30h-452v-30zm-75.266-112.3c0 8.4-6.834 15.234-15.234 15.234s-15.235-6.834-15.235-15.234v-7.133c0-8.4 6.834-15.234 15.235-15.234s15.234 6.834 15.234 15.234zm-45.734 75.85c0-16.817 13.682-30.5 30.5-30.5 16.817 0 30.5 13.683 30.5 30.5v6.45h-61zm91 6.45v-6.45c0-19.865-9.626-37.521-24.455-48.558 5.762-7.592 9.19-17.047 9.19-27.292v-7.133c0-24.942-20.292-45.234-45.234-45.234s-45.235 20.292-45.235 45.234v7.133c0 10.244 3.428 19.7 9.19 27.292-14.83 11.037-24.456 28.693-24.456 48.558v6.45h-30v-41.787l22.606-22.606-21.213-21.213-31.393 31.393v54.213h-30v-54.213l-31.394-31.394-21.213 21.213 22.607 22.607v41.787h-30v-6.45c0-19.865-9.626-37.521-24.456-48.558 5.762-7.592 9.19-17.047 9.19-27.292v-7.133c0-24.942-20.292-45.234-45.235-45.234s-45.234 20.292-45.234 45.234v7.133c0 10.244 3.428 19.7 9.19 27.292-14.829 11.037-24.455 28.693-24.455 48.558v6.45h-30v-184h452v184zm-422 178v-88h452v88z"/></g></svg>