<svg id="Capa_1" enable-background="new 0 0 512 512" height="512" viewBox="0 0 512 512" width="512" xmlns="http://www.w3.org/2000/svg"><g><path d="m431.667 27v-27h-30v27h-50.334v-27h-30v27h-50.333v-27h-30v27h-50.333v-27h-30v27h-50.334v-27h-30v27h-80.333v485h512v-485zm50.333 455h-452v-425h50.333v27h30v-27h50.334v27h30v-27h50.333v27h30v-27h50.333v27h30v-27h50.334v27h30v-27h50.333z"/><path d="m120 452h332v-338h-332zm30-61.6h121.001v31.6h-121.001zm171.334-184.8v31.6h-70.667v-31.6zm-70.667 154.8v-31.6h70.667v31.6zm100.667-31.6h70.666v31.6h-70.666zm-50.333-30v-31.601h120.999v31.601zm50.333-61.601v-31.6h70.666v31.6zm-130.667 0h-70.667v-31.6h70.667zm50.334 30v31.601h-121.001v-31.601zm-50.334 61.601v31.6h-70.667v-31.6zm80.334 93.2v-31.6h120.999v31.6zm120.999-246.4h-120.999v-31.6h120.999zm-150.999-31.6v31.6h-121.001v-31.6z"/><path d="m60 144.8h30v30h-30z"/><path d="m60 206.399h30v30h-30z"/><path d="m60 268h30v30h-30z"/><path d="m60 329.6h30v30h-30z"/><path d="m60 391.2h30v30h-30z"/></g></svg>