<svg id="Capa_1" enable-background="new 0 0 512 512" height="512" viewBox="0 0 512 512" width="512" xmlns="http://www.w3.org/2000/svg"><g><path d="m440.778 231.731v-16.952c0-34.977-9.782-67.705-26.737-95.618l22.094-22.094-7.738-10.397c-19.574-26.301-45.297-48.102-74.387-63.047-30.08-15.454-63.972-23.623-98.01-23.623s-67.93 8.169-98.011 23.622c-29.09 14.945-54.812 36.746-74.386 63.048l-7.738 10.396 22.094 22.094c-16.954 27.913-26.737 60.642-26.737 95.618v16.953c-40.137 5.297-71.222 39.71-71.222 81.269s31.085 75.972 71.221 81.269v87.731h130.779v30h108v-90h-108v30h-100.779v-57h60v-164h-60v-16.222c0-26.651 6.779-51.746 18.692-73.663l21.295 21.295 10.091-15.524c23.151-35.62 62.291-56.886 104.701-56.886 42.409 0 81.55 21.266 104.701 56.886l10.091 15.524 21.295-21.294c11.913 21.917 18.692 47.011 18.692 73.663v16.221h-60v164h79.221c45.215 0 82-36.785 82-82 0-41.56-31.085-75.973-71.222-81.269zm-208.778 220.269h48v30h-48zm-202-139c0-24.979 17.703-45.9 41.221-50.877v101.754c-23.518-4.977-41.221-25.898-41.221-50.877zm101.221-52v104h-30v-104zm124.779-201c-46.453 0-89.737 20.56-118.993 55.782l-21.275-21.274c15.604-18.153 34.745-33.299 55.966-44.201 26.228-13.475 54.592-20.307 84.302-20.307s58.073 6.832 84.302 20.307c21.222 10.902 40.362 26.048 55.967 44.201l-21.275 21.275c-29.258-35.223-72.542-55.783-118.994-55.783zm124.778 305v-104h30v104zm60-1.123v-101.754c23.519 4.977 41.222 25.898 41.222 50.877s-17.703 45.9-41.222 50.877z"/></g></svg>