<svg id="Capa_1" enable-background="new 0 0 512 512" height="512" viewBox="0 0 512 512" width="512" xmlns="http://www.w3.org/2000/svg"><g><path d="m301 237.266v3.734h-30v-36c0-24.813-20.187-45-45-45s-45 20.187-45 45v36h-26.266v30h26.266v3.734c0 14.484-11.782 26.266-26.266 26.266v30c31.026 0 56.266-25.24 56.266-56.266v-3.734h30v36c0 24.813 20.187 45 45 45s45-20.187 45-45v-36h26.266v-30h-26.266v-3.734c0-14.484 11.782-26.266 26.266-26.266v-30c-31.026 0-56.266 25.24-56.266 56.266zm-90 3.734v-36c0-8.271 6.729-15 15-15s15 6.729 15 15v36zm90 66c0 8.271-6.729 15-15 15s-15-6.729-15-15v-36h30z"/><path d="m437.02 74.98c-48.353-48.351-112.64-74.98-181.02-74.98s-132.667 26.629-181.02 74.98c-48.351 48.353-74.98 112.64-74.98 181.02s26.629 132.667 74.98 181.02c48.353 48.351 112.64 74.98 181.02 74.98s132.667-26.629 181.02-74.98c48.351-48.353 74.98-112.64 74.98-181.02s-26.629-132.667-74.98-181.02zm-21.214 340.826c-42.686 42.686-99.439 66.194-159.806 66.194s-117.12-23.508-159.806-66.194-66.194-99.439-66.194-159.806 23.508-117.12 66.194-159.806 99.439-66.194 159.806-66.194 117.12 23.508 159.806 66.194 66.194 99.439 66.194 159.806-23.508 117.12-66.194 159.806z"/><path d="m256 61.855c-107.052 0-194.145 87.093-194.145 194.145s87.093 194.145 194.145 194.145 194.145-87.093 194.145-194.145-87.093-194.145-194.145-194.145zm0 358.29c-90.51 0-164.145-73.635-164.145-164.145s73.635-164.145 164.145-164.145 164.145 73.635 164.145 164.145-73.635 164.145-164.145 164.145z"/></g></svg>