<?xml version="1.0" encoding="iso-8859-1"?>
<!-- Uploaded to: SVG Repo, www.svgrepo.com, Generator: SVG Repo Mixer Tools -->
<svg fill="#000000" height="800px" width="800px" version="1.1" id="Capa_1" xmlns="http://www.w3.org/2000/svg" xmlns:xlink="http://www.w3.org/1999/xlink" 
	 viewBox="0 0 502.664 502.664" xml:space="preserve">
<g>
	<g>
		<g>
			<path d="M497.638,0.798H5.026v322.375h492.612V0.798z M366.272,213.292c0.928,11.864-4.918,26.338-16.696,37.965
				c-17.515,17.278-41.135,21.743-52.827,9.944c-11.67-11.842-6.924-35.419,10.591-52.762
				c14.603-14.345,33.348-19.673,45.989-14.258v-58.478H194.353v77.612c0.928,11.864-4.875,26.338-16.674,37.986
				c-17.494,17.257-41.092,21.722-52.805,9.923c-11.648-11.821-6.946-35.419,10.527-52.762
				c14.647-14.345,33.435-19.673,46.054-14.258V75.455h184.818V213.292L366.272,213.292z"/>
			<path d="M502.664,391.359H264.824c-10.785-34.815-42.904-60.333-81.214-60.333s-70.45,25.518-81.236,60.333H0v58.608h105.093
				c13.072,30.458,43.336,51.899,78.518,51.899s65.446-21.441,78.518-51.899h240.514v-58.608H502.664z M239.759,416.424
				c0,30.954-25.216,56.127-56.17,56.127s-56.149-25.195-56.149-56.127c0-30.997,25.195-56.17,56.149-56.17
				S239.759,385.448,239.759,416.424z"/>
		</g>
	</g>
	<g>
	</g>
	<g>
	</g>
	<g>
	</g>
	<g>
	</g>
	<g>
	</g>
	<g>
	</g>
	<g>
	</g>
	<g>
	</g>
	<g>
	</g>
	<g>
	</g>
	<g>
	</g>
	<g>
	</g>
	<g>
	</g>
	<g>
	</g>
	<g>
	</g>
</g>
</svg>