<?xml version="1.0" encoding="iso-8859-1"?>
<!-- Uploaded to: SVG Repo, www.svgrepo.com, Generator: SVG Repo Mixer Tools -->
<!DOCTYPE svg PUBLIC "-//W3C//DTD SVG 1.1//EN" "http://www.w3.org/Graphics/SVG/1.1/DTD/svg11.dtd">
<svg fill="#000000" height="800px" width="800px" version="1.1" id="Capa_1" xmlns="http://www.w3.org/2000/svg" xmlns:xlink="http://www.w3.org/1999/xlink" 
	 viewBox="0 0 294 294" xml:space="preserve">
<path d="M74.083,189.5c-9.512,0-17.25-7.738-17.25-17.25S64.571,155,74.083,155s17.25,7.738,17.25,17.25S83.595,189.5,74.083,189.5z
	 M194.855,190c-3.175-5-5.022-10.908-5.022-17.25c0-6.554,1.97-12.75,5.343-17.75H100.99c3.373,5,5.343,11.196,5.343,17.75
	c0,6.342-1.848,12.25-5.022,17.25H194.855z M241.472,91l10.461-42H44.712l10.48,42H241.472z M239.333,172.25
	c0-9.512-7.738-17.25-17.25-17.25s-17.25,7.738-17.25,17.25s7.738,17.25,17.25,17.25S239.333,181.762,239.333,172.25z M294,64v166
	c0,8.284-6.382,15-14.667,15h-264C7.049,245,0,238.284,0,230V64c0-8.284,7.049-15,15.333-15h13.918l12.805,51.315
	c0.834,3.341,3.835,5.685,7.277,5.685h198c3.444,0,6.445-2.346,7.277-5.688L267.39,49h11.943C287.618,49,294,55.716,294,64z
	 M254,172.25c0-17.811-14.439-32.25-32.25-32.25H73.25C55.439,140,41,154.439,41,172.25v0.5C41,190.561,55.439,205,73.25,205h148.5
	c17.811,0,32.25-14.439,32.25-32.25V172.25z"/>
</svg>