<?xml version="1.0" encoding="iso-8859-1"?>
<!-- Uploaded to: SVG Repo, www.svgrepo.com, Generator: SVG Repo Mixer Tools -->
<svg fill="#000000" version="1.1" id="Layer_1" xmlns="http://www.w3.org/2000/svg" xmlns:xlink="http://www.w3.org/1999/xlink" 
	 viewBox="0 0 512 512" xml:space="preserve">
<g>
	<g>
		<path d="M0.005,168.047v319.831h511.73V168.047H0.005z M495.743,448.368H328.098v15.673h167.646v7.845H15.997v-7.845h167.905
			v-15.673H15.997V184.039h479.746V448.368z"/>
	</g>
</g>
<g>
	<g>
		<path d="M23.992,439.903h159.915V248.004H23.992V439.903z M39.984,263.996h127.932v159.915H39.984V263.996z"/>
	</g>
</g>
<g>
	<g>
		<path d="M319.836,359.945H191.904v79.958h127.933v-79.958H319.836z M303.845,423.911h-95.949v-47.974h95.949V423.911z"/>
	</g>
</g>
<g>
	<g>
		<path d="M319.836,248.004H191.904v79.958h127.933v-79.958H319.836z M303.845,311.97h-95.949v-47.974h95.949V311.97z"/>
	</g>
</g>
<g>
	<g>
		<path d="M103.951,287.982c-30.862,0-55.97,25.109-55.97,55.971c-0.001,30.863,25.108,55.971,55.97,55.971
			c30.862,0,55.97-25.108,55.97-55.971C159.921,313.091,134.813,287.982,103.951,287.982z M103.951,383.933
			c-22.044,0-39.979-17.935-39.979-39.979c0-22.045,17.935-39.98,39.979-39.98c22.044,0,39.979,17.935,39.979,39.98
			C143.929,365.998,125.995,383.933,103.951,383.933z"/>
	</g>
</g>
<g>
	<g>
		<path d="M103.951,319.967c-13.227,0-23.988,10.761-23.988,23.988c0,13.226,10.76,23.987,23.988,23.987
			c13.226,0,23.987-10.76,23.987-23.987C127.937,330.728,117.177,319.967,103.951,319.967z M103.951,351.948
			c-4.409,0-7.996-3.587-7.996-7.995c-0.001-4.408,3.586-7.996,7.996-7.996c4.408,0,7.996,3.587,7.996,7.996
			C111.946,348.362,108.359,351.948,103.951,351.948z"/>
	</g>
</g>
<g>
	<g>
		<rect x="48.065" y="272.823" width="15.673" height="15.673"/>
	</g>
</g>
<g>
	<g>
		<rect x="143.151" y="272.823" width="16.718" height="15.673"/>
	</g>
</g>
<g>
	<g>
		<rect x="48.065" y="400.3" width="15.673" height="15.673"/>
	</g>
</g>
<g>
	<g>
		<rect x="143.151" y="400.3" width="16.718" height="15.673"/>
	</g>
</g>
<g>
	<g>
		<path d="M327.831,248.004v191.899h159.916V248.004H327.831z M471.756,423.911H343.824V263.996h127.932V423.911z"/>
	</g>
</g>
<g>
	<g>
		<path d="M407.79,287.982c-30.862,0-55.97,25.109-55.97,55.971s25.108,55.971,55.97,55.971s55.97-25.108,55.97-55.971
			C463.76,313.092,438.652,287.982,407.79,287.982z M407.79,383.933c-22.044,0-39.979-17.935-39.979-39.979
			c0-22.045,17.935-39.98,39.979-39.98s39.979,17.935,39.979,39.98C447.768,365.997,429.834,383.933,407.79,383.933z"/>
	</g>
</g>
<g>
	<g>
		<path d="M407.79,319.967c-13.227,0-23.988,10.761-23.988,23.988s10.76,23.987,23.988,23.987c13.226,0,23.988-10.76,23.988-23.987
			S421.017,319.967,407.79,319.967z M407.79,351.949c-4.409,0-7.996-3.587-7.996-7.995c0-4.409,3.587-7.996,7.996-7.996
			c4.408,0,7.996,3.587,7.996,7.996C415.785,348.363,412.199,351.949,407.79,351.949z"/>
	</g>
</g>
<g>
	<g>
		<rect x="352.131" y="272.823" width="15.673" height="15.673"/>
	</g>
</g>
<g>
	<g>
		<rect x="448.261" y="272.823" width="14.629" height="15.673"/>
	</g>
</g>
<g>
	<g>
		<rect x="352.131" y="400.3" width="15.673" height="15.673"/>
	</g>
</g>
<g>
	<g>
		<rect x="448.261" y="400.3" width="14.629" height="15.673"/>
	</g>
</g>
<g>
	<g>
		<rect x="192.261" y="448.366" width="24.033" height="15.673"/>
	</g>
</g>
<g>
	<g>
		<rect x="295.706" y="448.366" width="24.033" height="15.673"/>
	</g>
</g>
<g>
	<g>
		<rect x="223.608" y="448.366" width="15.673" height="15.673"/>
	</g>
</g>
<g>
	<g>
		<rect x="248.686" y="448.366" width="14.629" height="15.673"/>
	</g>
</g>
<g>
	<g>
		<rect x="271.673" y="448.366" width="16.718" height="15.673"/>
	</g>
</g>
<g>
	<g>
		<rect x="192.261" y="336.562" width="24.033" height="15.673"/>
	</g>
</g>
<g>
	<g>
		<rect x="295.706" y="336.562" width="24.033" height="15.673"/>
	</g>
</g>
<g>
	<g>
		<rect x="223.608" y="336.562" width="15.673" height="15.673"/>
	</g>
</g>
<g>
	<g>
		<rect x="248.686" y="336.562" width="14.629" height="15.673"/>
	</g>
</g>
<g>
	<g>
		<rect x="271.673" y="336.562" width="16.718" height="15.673"/>
	</g>
</g>
<g>
	<g>
		<rect x="223.608" y="392.986" width="15.673" height="15.673"/>
	</g>
</g>
<g>
	<g>
		<rect x="271.673" y="392.986" width="16.718" height="15.673"/>
	</g>
</g>
<g>
	<g>
		<rect x="223.608" y="280.137" width="15.673" height="15.673"/>
	</g>
</g>
<g>
	<g>
		<rect x="271.673" y="280.137" width="16.718" height="15.673"/>
	</g>
</g>
<g>
	<g>
		<path d="M47.98,192.033c-13.227,0-23.988,10.761-23.988,23.988s10.761,23.988,23.988,23.988s23.988-10.761,23.988-23.988
			S61.207,192.033,47.98,192.033z M47.98,224.017c-4.409,0-7.996-3.587-7.996-7.996c0-4.408,3.587-7.996,7.996-7.996
			c4.408,0,7.996,3.587,7.996,7.996C55.975,220.431,52.388,224.017,47.98,224.017z"/>
	</g>
</g>
<g>
	<g>
		<path d="M103.951,192.033c-13.227,0-23.988,10.761-23.988,23.988s10.76,23.988,23.988,23.988
			c13.226,0,23.987-10.761,23.987-23.988S117.177,192.033,103.951,192.033z M103.951,224.017c-4.409,0-7.996-3.587-7.996-7.996
			c-0.001-4.408,3.586-7.996,7.996-7.996c4.408,0,7.996,3.587,7.996,7.996C111.946,220.431,108.359,224.017,103.951,224.017z"/>
	</g>
</g>
<g>
	<g>
		<path d="M159.921,192.033c-13.226,0-23.987,10.761-23.987,23.988s10.76,23.988,23.987,23.988s23.988-10.761,23.988-23.988
			S173.148,192.033,159.921,192.033z M159.921,224.017c-4.408,0-7.996-3.587-7.996-7.996c0-4.408,3.587-7.996,7.996-7.996
			s7.996,3.587,7.996,7.996C167.916,220.431,164.329,224.017,159.921,224.017z"/>
	</g>
</g>
<g>
	<g>
		<path d="M215.892,192.033v47.975h271.856v-47.975H215.892z M471.756,224.018h-17.225V216.4h-15.673v7.617h-16.718V216.4h-15.673
			v7.617h-15.674V216.4h-15.673v7.617H358.4V216.4h-15.674v7.617h-15.673V216.4H311.38v7.617h-16.718V216.4h-15.674v7.617h-16.718
			V216.4h-15.673v7.617h-14.713v-15.992h239.873V224.018z"/>
	</g>
</g>
<g>
	<g>
		<rect x="56.424" y="144.3" width="32.392" height="15.673"/>
	</g>
</g>
<g>
	<g>
		<rect x="96.131" y="144.3" width="32.392" height="15.673"/>
	</g>
</g>
<g>
	<g>
		<rect x="135.837" y="144.3" width="32.392" height="15.673"/>
	</g>
</g>
<g>
	<g>
		<rect x="343.771" y="144.3" width="32.392" height="15.673"/>
	</g>
</g>
<g>
	<g>
		<rect x="383.478" y="144.3" width="32.392" height="15.673"/>
	</g>
</g>
<g>
	<g>
		<rect x="423.184" y="144.3" width="32.392" height="15.673"/>
	</g>
</g>
<g>
	<g>
		<path d="M502.596,144.302V40.858H343.824V24.123H159.922v16.735H8.359v103.445H0v15.673h24.033V56.531h135.888v15.567h183.902
			V56.531h143.1v103.445H512v-15.673H502.596z M327.831,56.106H175.913V40.115h151.919V56.106z"/>
	</g>
</g>
</svg>