<?xml version="1.0" encoding="utf-8"?>
<!-- Generator: Adobe Illustrator 16.0.0, SVG Export Plug-In . SVG Version: 6.00 Build 0)  -->
<!DOCTYPE svg PUBLIC "-//W3C//DTD SVG 1.1//EN" "http://www.w3.org/Graphics/SVG/1.1/DTD/svg11.dtd">
<svg version="1.1" id="Layer_1" xmlns="http://www.w3.org/2000/svg" xmlns:xlink="http://www.w3.org/1999/xlink" x="0px" y="0px"
	 width="512px" height="512px" viewBox="0 0 512 512" enable-background="new 0 0 512 512" xml:space="preserve">
<g id="bandit_knife">
	<rect x="10.681" y="197.33" fill="#ED5564" width="170.65" height="85.325"/>
	<path fill="#E6E9ED" d="M506.1,230.454c-2.719-1.359-66.764-33.124-111.434-33.124H181.331c-5.891,0-10.656,4.766-10.656,10.672
		v63.997c0,5.875,4.765,10.656,10.656,10.656h213.335c44.67,0,108.715-31.765,111.434-33.124c3.609-1.812,5.891-5.5,5.891-9.531
		C511.99,235.954,509.709,232.251,506.1,230.454z"/>
	<g>
		<path fill="#434A54" d="M10.681,303.998c-5.89,0-10.671-4.781-10.671-10.672V197.33c0-5.891,4.781-10.671,10.671-10.671
			c5.891,0,10.656,4.78,10.656,10.671v95.996C21.337,299.217,16.572,303.998,10.681,303.998z"/>
	</g>
	<rect x="128.005" y="197.33" fill="#DA4453" width="21.327" height="85.325"/>
	<rect x="85.335" y="197.33" fill="#DA4453" width="21.342" height="85.325"/>
	<rect x="42.68" y="197.33" fill="#DA4453" width="21.327" height="85.325"/>
	<g>
		<path fill="#CCD1D9" d="M373.323,250.656H181.331c-5.891,0-10.656-4.781-10.656-10.656c0-5.905,4.765-10.671,10.656-10.671
			h191.992c5.89,0,10.671,4.766,10.671,10.671C383.994,245.875,379.213,250.656,373.323,250.656z"/>
	</g>
	<path fill="#434A54" d="M202.673,186.659c0-5.891-4.781-10.656-10.671-10.656c-10.343,0-21.327,7.469-21.327,21.327v85.325
		c0,5.891,4.765,10.671,10.656,10.671s10.671-4.78,10.671-10.671v-85.294c0.109-0.016,0.219-0.031,0.297-0.047
		c-0.188,0.016-0.297,0.016-0.297,0.016C197.893,197.33,202.673,192.549,202.673,186.659z"/>
	<path fill="#FFCE54" d="M32.009,325.326c-17.64,0-31.999-14.359-31.999-32c0-17.64,14.359-31.998,31.999-31.998
		c17.64,0,31.999,14.358,31.999,31.998C64.007,310.967,49.648,325.326,32.009,325.326z M32.009,282.655
		c-5.875,0-10.672,4.781-10.672,10.671c0,5.875,4.797,10.672,10.672,10.672c5.875,0,10.671-4.797,10.671-10.672
		C42.68,287.437,37.883,282.655,32.009,282.655z"/>
	<path fill="#FFCE54" d="M74.679,335.997c-17.656,0-31.999-14.358-31.999-31.999c0-17.655,14.343-31.999,31.999-31.999
		c17.639,0,31.998,14.344,31.998,31.999C106.677,321.639,92.318,335.997,74.679,335.997z M74.679,293.326
		c-5.891,0-10.672,4.781-10.672,10.672c0,5.875,4.781,10.656,10.672,10.656c5.875,0,10.656-4.781,10.656-10.656
		C85.335,298.107,80.554,293.326,74.679,293.326z"/>
	<path fill="#FFCE54" d="M117.333,335.997c-17.64,0-31.999-14.358-31.999-31.999c0-17.655,14.358-31.999,31.999-31.999
		c17.655,0,31.999,14.344,31.999,31.999C149.332,321.639,134.989,335.997,117.333,335.997z M117.333,293.326
		c-5.875,0-10.656,4.781-10.656,10.672c0,5.875,4.781,10.656,10.656,10.656c5.89,0,10.671-4.781,10.671-10.656
		C128.005,298.107,123.224,293.326,117.333,293.326z"/>
	<path fill="#FFCE54" d="M160.004,325.326c-17.64,0-31.999-14.359-31.999-32c0-17.64,14.359-31.998,31.999-31.998
		c17.64,0,31.999,14.358,31.999,31.998C192.002,310.967,177.644,325.326,160.004,325.326z M160.004,282.655
		c-5.875,0-10.672,4.781-10.672,10.671c0,5.875,4.797,10.672,10.672,10.672c5.875,0,10.671-4.797,10.671-10.672
		C170.675,287.437,165.878,282.655,160.004,282.655z"/>
</g>
</svg>
