<?xml version="1.0" encoding="utf-8"?>
<!-- Generator: Adobe Illustrator 16.0.0, SVG Export Plug-In . SVG Version: 6.00 Build 0)  -->
<!DOCTYPE svg PUBLIC "-//W3C//DTD SVG 1.1//EN" "http://www.w3.org/Graphics/SVG/1.1/DTD/svg11.dtd">
<svg version="1.1" id="Layer_1" xmlns="http://www.w3.org/2000/svg" xmlns:xlink="http://www.w3.org/1999/xlink" x="0px" y="0px"
	 width="512px" height="512px" viewBox="0 0 512 512" enable-background="new 0 0 512 512" xml:space="preserve">
<g id="bible_hand">
	<g>
		<path fill="#434A54" d="M343.138,0.01H76.476c-23.531,0-42.67,19.14-42.67,42.663v319.98c0,5.906,4.781,10.687,10.671,10.687
			h277.317c5.891,0,10.672-4.78,10.672-10.687v-21.312h10.672c5.875,0,10.656-4.781,10.656-10.688V10.674
			C353.794,4.783,349.013,0.01,343.138,0.01z"/>
		<path fill="#AAB2BC" d="M76.476,0.01c-23.531,0-42.67,19.14-42.67,42.663v319.98c0,5.906,4.781,10.687,10.671,10.687h25.358
			l27.967-29.248v-18.749v-5.344V0.01H76.476z"/>
		<path fill="#E6E9ED" d="M76.476,330.653c-17.671,0-31.999,14.344-31.999,31.999c0,17.687,14.328,31.998,31.999,31.998h255.99
			v-63.997H76.476z"/>
		<path fill="#656D78" d="M332.466,405.337H76.476c-23.531,0-42.67-19.154-42.67-42.685c0-23.515,19.14-42.654,42.67-42.654h255.99
			c5.891,0,10.672,4.781,10.672,10.655v63.997C343.138,400.557,338.356,405.337,332.466,405.337z M76.476,341.341
			c-11.766,0-21.328,9.562-21.328,21.312c0,11.78,9.562,21.343,21.328,21.343h245.318v-42.654H76.476z"/>
		<g>
			<path fill="#CCD1D9" d="M172.472,373.339H87.147c-5.906,0-10.671-4.78-10.671-10.687c0-5.875,4.765-10.656,10.671-10.656h85.325
				c5.89,0,10.671,4.781,10.671,10.656C183.144,368.559,178.362,373.339,172.472,373.339z"/>
		</g>
		<path fill="#CCD1D9" d="M76.476,405.337h21.327v-21.342H76.476c-11.766,0-21.328-9.562-21.328-21.343
			c0-11.75,9.562-21.312,21.328-21.312h21.327v-21.343H76.476c-23.531,0-42.67,19.14-42.67,42.654
			C33.806,386.183,52.945,405.337,76.476,405.337z"/>
		<path fill="#ED5564" d="M161.8,362.652H97.803H87.147v10.687v4.641v59.357c0,3.406,1.641,6.64,4.421,8.64
			c2.781,2.016,6.359,2.547,9.609,1.469l28.624-9.546l28.624,9.546c1.109,0.359,2.25,0.547,3.375,0.547
			c2.219,0,4.406-0.688,6.25-2.016c2.781-2,4.422-5.233,4.422-8.64v-59.357v-4.641v-10.687H161.8z"/>
	</g>
	<rect x="279.14" y="337.341" fill="#DBADA2" width="106.651" height="154.65"/>
	<g>
		<path fill="#DBADA2" d="M468.132,233.298c-10.249-6.703-24.015-3.82-30.718,6.445l-119.886,113.16l92.122,9.906l64.919-98.801
			C481.287,253.75,478.397,239.993,468.132,233.298z"/>
		<path fill="#EAC6BB" d="M407.135,85.342c-11.781,0-21.344,9.547-21.344,21.327v196.672h42.67V106.669
			C428.461,94.889,418.915,85.342,407.135,85.342z"/>
		<path fill="#EAC6BB" d="M353.794,64.008c-11.781,0-21.328,9.554-21.328,21.334V256h42.669V85.342
			C375.135,73.562,365.573,64.008,353.794,64.008z"/>
		<path fill="#EAC6BB" d="M300.467,64.008c-11.78,0-21.327,9.554-21.327,21.334V256h42.654V85.342
			C321.794,73.562,312.248,64.008,300.467,64.008z"/>
		<path fill="#EAC6BB" d="M247.141,128.005c-11.781,0-21.343,9.554-21.343,21.335v154.001h42.67V149.34
			C268.468,137.559,258.921,128.005,247.141,128.005z"/>
		<path fill="#EAC6BB" d="M385.791,221.368v7.969c0,2.945-2.375,5.328-5.328,5.328s-5.328-2.383-5.328-5.328v-14.593
			c-12.811-6.906-27.294-11.14-42.669-11.937v26.53c0,2.945-2.391,5.328-5.328,5.328c-2.953,0-5.344-2.383-5.344-5.328v-26.53
			c-15.374,0.797-29.842,5.031-42.654,11.937v14.593c0,2.945-2.406,5.328-5.344,5.328s-5.328-2.383-5.328-5.328v-7.969
			c-25.827,18.367-42.67,48.53-42.67,82.63c0,55.967,45.373,101.339,101.34,101.339c55.95,0,101.323-45.372,101.323-101.339
			C428.461,269.898,411.618,239.735,385.791,221.368z"/>
	</g>
	<path fill="#ED5564" d="M396.572,511.99v-74.653c0-5.906-4.781-10.688-10.656-10.688H279.015c-5.891,0-10.656,4.781-10.656,10.688
		v74.653H396.572z"/>
</g>
</svg>
