<?xml version="1.0" encoding="utf-8"?>
<!-- Generator: Adobe Illustrator 16.0.0, SVG Export Plug-In . SVG Version: 6.00 Build 0)  -->
<!DOCTYPE svg PUBLIC "-//W3C//DTD SVG 1.1//EN" "http://www.w3.org/Graphics/SVG/1.1/DTD/svg11.dtd">
<svg version="1.1" id="Layer_1" xmlns="http://www.w3.org/2000/svg" xmlns:xlink="http://www.w3.org/1999/xlink" x="0px" y="0px"
	 width="512px" height="512px" viewBox="0 0 512 512" enable-background="new 0 0 512 512" xml:space="preserve">
<g id="blood_money">
	<path fill="#8CC153" d="M508.865,169.066L342.935,3.135c-2-2-4.719-3.125-7.531-3.125c-2.844,0-5.547,1.125-7.547,3.125
		L3.135,327.856c-2,2-3.125,4.719-3.125,7.547s1.125,5.531,3.125,7.531l165.931,165.931c2.078,2.094,4.812,3.125,7.539,3.125
		c2.727,0,5.461-1.031,7.539-3.125l324.722-324.722C513.021,179.988,513.021,173.238,508.865,169.066z"/>
	<path fill="#A0D468" d="M440.992,161.519c4.156-4.156,4.156-10.921,0-15.077l-75.435-75.419c-4.155-4.171-10.904-4.171-15.076,0
		c-4.031,4.031-9.391,6.25-15.078,6.25c-5.703,0-11.062-2.218-15.094-6.25c-2-2-4.719-3.125-7.53-3.125l0,0
		c-2.844,0-5.562,1.125-7.562,3.125L71.015,305.232c-4.164,4.172-4.164,10.922,0,15.078c8.32,8.327,8.32,21.858,0,30.17
		c-4.164,4.172-4.164,10.922,0,15.094l75.418,75.419c2,1.999,4.711,3.124,7.547,3.124c2.828,0,5.539-1.125,7.539-3.124
		c4.031-4.031,9.391-6.25,15.085-6.25c5.695,0,11.055,2.219,15.085,6.25c2.078,2.077,4.812,3.124,7.539,3.124
		c2.734,0,5.46-1.047,7.546-3.124l234.217-234.21c4.156-4.172,4.156-10.921,0-15.093C432.68,183.378,432.68,169.847,440.992,161.519
		z"/>
	<path fill="#8CC153" d="M301.248,210.751c-12.077-12.093-28.155-18.749-45.248-18.749c-17.093,0-33.163,6.656-45.256,18.749
		c-12.085,12.093-18.741,28.155-18.741,45.249c0,17.093,6.656,33.171,18.741,45.248c12.093,12.094,28.163,18.75,45.256,18.75
		c17.093,0,33.171-6.656,45.248-18.734C326.216,276.312,326.216,235.704,301.248,210.751z"/>
	<g>
		<path fill="#ED5564" d="M508.865,252.875c-1.938,1.938-4.594,3.125-7.531,3.125c-5.906,0-10.688-4.766-10.672-10.656v-68.731
			c-0.016-5.891,4.766-10.672,10.672-10.672c5.875,0,10.656,4.781,10.656,10.672v68.731
			C511.99,248.281,510.803,250.953,508.865,252.875z"/>
	</g>
	<g>
		<path fill="#DA4453" d="M466.211,316.873c-1.938,1.938-4.609,3.125-7.562,3.125c-5.875,0-10.656-4.766-10.656-10.656v-90.075
			c0-5.89,4.781-10.655,10.672-10.655s10.671,4.765,10.671,10.655v90.075C469.335,312.279,468.132,314.951,466.211,316.873z"/>
	</g>
	<g>
		<path fill="#DA4453" d="M466.211,380.87c-1.938,1.938-4.609,3.125-7.562,3.125c-5.875,0-10.656-4.766-10.656-10.656v-21.343
			c0-5.89,4.781-10.655,10.656-10.655c5.906,0,10.687,4.766,10.687,10.655v21.343C469.335,376.276,468.132,378.948,466.211,380.87z"
			/>
	</g>
	<g>
		<path fill="#ED5564" d="M423.54,295.545c-1.938,1.922-4.609,3.125-7.547,3.125c-5.89,0-10.655-4.781-10.655-10.671v-26.062
			c0-5.891,4.766-10.672,10.655-10.672c5.891,0.016,10.671,4.781,10.671,10.672v26.062
			C426.648,290.952,425.461,293.607,423.54,295.545z"/>
	</g>
	<g>
		<path fill="#DA4453" d="M380.869,380.87c-1.938,1.938-4.594,3.125-7.53,3.125c-5.906,0-10.687-4.766-10.687-10.656v-68.731
			c0-5.891,4.78-10.672,10.687-10.672c5.874,0,10.655,4.781,10.655,10.672v68.731C383.994,376.276,382.807,378.948,380.869,380.87z"
			/>
	</g>
	<g>
		<path fill="#ED5564" d="M338.216,380.87c-1.938,1.938-4.609,3.125-7.562,3.125c-5.875,0-10.656-4.766-10.656-10.656v-26.076
			c0-5.891,4.781-10.656,10.656-10.656c5.906,0,10.688,4.766,10.688,10.656v26.076C341.341,376.276,340.138,378.948,338.216,380.87z
			"/>
	</g>
	<g>
		<path fill="#DA4453" d="M338.216,444.867c-1.938,1.938-4.609,3.125-7.562,3.125c-5.875,0-10.656-4.766-10.656-10.655v-21.344
			c0-5.891,4.781-10.656,10.656-10.656c5.906,0,10.688,4.766,10.688,10.656v21.344C341.341,440.274,340.138,442.945,338.216,444.867
			z"/>
	</g>
	<path fill="#ED5564" d="M285.749,362.012c0,0-24.242,24.249,0.031,45.231l0,0l223.085-223.1c4.156-4.156,4.156-10.906,0-15.078
		l-15.094-15.078L285.749,362.012z"/>
</g>
</svg>
