<?xml version="1.0" encoding="utf-8"?>
<!-- Generator: Adobe Illustrator 16.0.0, SVG Export Plug-In . SVG Version: 6.00 Build 0)  -->
<!DOCTYPE svg PUBLIC "-//W3C//DTD SVG 1.1//EN" "http://www.w3.org/Graphics/SVG/1.1/DTD/svg11.dtd">
<svg version="1.1" id="Layer_1" xmlns="http://www.w3.org/2000/svg" xmlns:xlink="http://www.w3.org/1999/xlink" x="0px" y="0px"
	 width="512px" height="512px" viewBox="0 0 512 512" enable-background="new 0 0 512 512" xml:space="preserve">
<g id="butterfly_knife">
	<path fill="#DA4453" d="M294.047,320.874c2.078-2.078,2.078-5.469,0-7.562l-30.258-30.265c-2.086-2.078-5.484-2.078-7.569,0
		L72.931,466.352c-10.429,10.422-10.429,27.391,0,37.827c10.414,10.405,27.374,10.421,37.803,0.016L294.047,320.874z"/>
	<path fill="#ED5564" d="M256.22,283.047c2.084-2.078,2.084-5.469,0-7.562l-30.257-30.25c-2.086-2.093-5.484-2.093-7.57,0
		L35.104,428.525c-10.429,10.422-10.429,27.39,0,37.826c10.414,10.406,27.375,10.422,37.804,0.016L256.22,283.047z"/>
	<g>
		<path fill="#CCD1D9" d="M430.212,184.707L294.047,320.874c-4.188,4.188-10.953,4.188-15.141,0l-60.513-60.514
			c-2-2.016-3.132-4.735-3.132-7.563c0-2.844,1.132-5.562,3.132-7.562L460.478,3.151c2.625-2.625,6.405-3.703,10.015-2.859
			c3.609,0.859,6.531,3.516,7.703,7.031c0.328,1.016,8.187,25.046,6.202,58.857C482.554,97.366,471.664,143.255,430.212,184.707z"/>
	</g>
	<g>
		<path fill="#CCD1D9" d="M163.708,360.435c-4.179,4.188-10.953,4.188-15.132,0c-4.171-4.172-4.171-10.953,0-15.124
			c4.18-4.188,10.953-4.188,15.132,0C167.888,349.481,167.888,356.263,163.708,360.435z"/>
	</g>
	<g>
		<path fill="#CCD1D9" d="M193.972,390.698c-4.179,4.172-10.952,4.172-15.132,0c-4.18-4.171-4.18-10.952,0-15.124
			c4.18-4.187,10.953-4.187,15.132,0C198.144,379.746,198.144,386.527,193.972,390.698z"/>
	</g>
	<g>
		<path fill="#CCD1D9" d="M148.576,436.088c-4.171,4.172-10.945,4.172-15.125,0c-4.179-4.172-4.179-10.953,0-15.125
			c4.172-4.188,10.953-4.188,15.125,0C152.755,425.135,152.755,431.916,148.576,436.088z"/>
	</g>
	<g>
		<path fill="#CCD1D9" d="M118.319,405.822c-4.18,4.188-10.953,4.188-15.132,0c-4.18-4.172-4.18-10.952,0-15.124
			c4.179-4.171,10.953-4.171,15.132,0C122.499,394.87,122.499,401.65,118.319,405.822z"/>
	</g>
	<g>
		<path fill="#434A54" d="M301.608,328.451L301.608,328.451c-4.171,4.172-10.952,4.172-15.124,0l-75.653-75.654
			c-4.18-4.188-4.18-10.953,0-15.14l0,0c4.18-4.171,10.953-4.171,15.132,0l75.645,75.654
			C305.78,317.499,305.78,324.265,301.608,328.451z"/>
	</g>
	<g>
		<path fill="#AAB2BC" d="M286.484,222.533c-4.188,4.172-10.953,4.172-15.133,0s-4.18-10.953,0-15.124l90.771-90.793
			c4.187-4.172,10.952-4.172,15.139,0c4.172,4.188,4.172,10.953,0,15.14L286.484,222.533z"/>
	</g>
	<polygon opacity="0.1" points="186.403,352.872 201.535,337.748 163.708,299.921 148.576,315.046 	"/>
	<polygon opacity="0.1" points="224.229,390.698 239.361,375.574 201.535,337.748 186.403,352.872 	"/>
	<polygon opacity="0.1" points="95.625,443.649 110.757,428.525 72.931,390.698 57.798,405.822 	"/>
	<polygon opacity="0.1" points="133.451,481.477 148.576,466.352 110.757,428.525 95.625,443.649 	"/>
</g>
</svg>
