<?xml version="1.0" encoding="utf-8"?>
<!-- Generator: Adobe Illustrator 16.0.0, SVG Export Plug-In . SVG Version: 6.00 Build 0)  -->
<!DOCTYPE svg PUBLIC "-//W3C//DTD SVG 1.1//EN" "http://www.w3.org/Graphics/SVG/1.1/DTD/svg11.dtd">
<svg version="1.1" id="Layer_1" xmlns="http://www.w3.org/2000/svg" xmlns:xlink="http://www.w3.org/1999/xlink" x="0px" y="0px"
	 width="512px" height="512px" viewBox="0 0 512 512" enable-background="new 0 0 512 512" xml:space="preserve">
<g id="constitution">
	<g id="necromancy_book">
		<path fill="#656D78" d="M96.018,0.01c-23.53,0-42.67,19.14-42.67,42.67v383.969c0,5.906,4.766,10.688,10.671,10.688h53.326V0.01
			H96.018z"/>
		<path fill="#E6E9ED" d="M96.018,394.65c-17.687,0-31.999,14.343-31.999,31.999c0,17.687,14.312,31.998,31.999,31.998h351.979
			V394.65H96.018z"/>
		<path fill="#ED5564" d="M458.652,10.682c0-5.891-4.781-10.672-10.656-10.672H117.345v21.335l0,0v362.65l0,0v21.342h119.261h211.39
			c5.875,0,10.656-4.78,10.656-10.687l0,0V10.682L458.652,10.682z"/>
		<g>
			<path fill="#CCD1D9" d="M192.014,437.337h-85.341c-5.875,0-10.656-4.781-10.656-10.688c0-5.875,4.781-10.656,10.656-10.656
				h85.341c5.89,0,10.655,4.781,10.655,10.656C202.669,432.556,197.904,437.337,192.014,437.337z"/>
		</g>
		<path fill="#CCD1D9" d="M362.656,415.993c-5.875,0-10.655,4.781-10.655,10.656c0,5.906,4.78,10.688,10.655,10.688h85.34v-21.344
			H362.656z"/>
		<path fill="#434A54" d="M64.019,85.342c5.891,0,10.656-4.773,10.656-10.663S69.91,64.008,64.019,64.008H53.348v21.334H64.019z"/>
		<path fill="#434A54" d="M64.019,149.34c5.891,0,10.656-4.773,10.656-10.664s-4.766-10.671-10.656-10.671H53.348v21.335H64.019z"/>
		<path fill="#434A54" d="M64.019,213.337c5.891,0,10.656-4.773,10.656-10.664s-4.766-10.671-10.656-10.671H53.348v21.335H64.019z"
			/>
		<path fill="#434A54" d="M64.019,277.343c5.891,0,10.656-4.781,10.656-10.679c0-5.891-4.766-10.672-10.656-10.672H53.348v21.351
			H64.019z"/>
		<path fill="#434A54" d="M64.019,341.341c5.891,0,10.656-4.781,10.656-10.688c0-5.874-4.766-10.655-10.656-10.655H53.348v21.343
			H64.019z"/>
		<path fill="#ED5564" d="M458.652,458.647c0-5.874-4.781-10.655-10.656-10.655h-211.39H117.345v21.343h330.651
			C453.871,469.335,458.652,464.554,458.652,458.647z"/>
		<path fill="#656D78" d="M117.345,447.992H96.018c-11.765,0-21.342-9.562-21.342-21.343c0-11.75,9.578-21.312,21.342-21.312h21.328
			v-21.342H96.018c-23.53,0-42.67,19.123-42.67,42.654c0,23.53,19.14,42.686,42.67,42.686h21.328V447.992z"/>
		<path fill="#FFCE54" d="M181.343,426.649h-10.671h-42.655h-10.671h-10.672v74.685c0,3.406,1.656,6.625,4.438,8.656
			c2.781,2,6.359,2.53,9.609,1.438l28.624-9.531l28.624,9.531c1.109,0.375,2.234,0.562,3.375,0.562c2.203,0,4.391-0.688,6.234-2
			c2.781-2.031,4.437-5.25,4.437-8.656v-74.685H181.343z"/>
	</g>
	<g>
		<g>
			<path fill="#F6BB42" d="M277.347,298.686c-5.898,0-10.68-4.781-10.68-10.687V96.014c0-5.891,4.781-10.664,10.68-10.664
				c5.875,0,10.656,4.773,10.656,10.664v191.985C288.003,293.904,283.222,298.686,277.347,298.686z"/>
		</g>
	</g>
	<g>
		<path fill="#434A54" d="M341.345,298.686H213.341c-5.891,0-10.656-4.781-10.656-10.687c0-5.875,4.766-10.656,10.656-10.656
			h128.003c5.875,0,10.656,4.781,10.656,10.656C352.001,293.904,347.22,298.686,341.345,298.686z"/>
	</g>
	<g>
		<path fill="#E6E9ED" d="M212.794,113.974c-0.016-0.07-0.047-0.133-0.078-0.203c-0.062-0.188-0.141-0.367-0.219-0.547
			c-0.062-0.156-0.125-0.305-0.203-0.461c-0.062-0.148-0.141-0.297-0.219-0.445c-0.094-0.172-0.188-0.336-0.281-0.492
			c-0.078-0.125-0.156-0.258-0.25-0.383c-0.109-0.164-0.219-0.32-0.328-0.477c-0.094-0.125-0.188-0.242-0.281-0.359
			c-0.125-0.148-0.25-0.289-0.375-0.43c-0.109-0.125-0.219-0.242-0.344-0.359c-0.125-0.125-0.234-0.242-0.375-0.359
			c-0.125-0.125-0.266-0.242-0.422-0.359c-0.109-0.094-0.234-0.195-0.359-0.289c-0.156-0.117-0.312-0.219-0.469-0.328
			c-0.125-0.086-0.266-0.172-0.391-0.25c-0.156-0.094-0.312-0.188-0.484-0.273c-0.156-0.078-0.297-0.156-0.453-0.234
			c-0.156-0.07-0.297-0.133-0.453-0.195c-0.188-0.078-0.375-0.156-0.562-0.219c-0.062-0.023-0.125-0.055-0.203-0.078
			c-0.062-0.023-0.141-0.039-0.219-0.062c-0.188-0.062-0.391-0.117-0.594-0.164c-0.141-0.039-0.297-0.07-0.438-0.102
			c-0.203-0.039-0.391-0.07-0.578-0.102c-0.156-0.023-0.328-0.047-0.484-0.062c-0.172-0.016-0.359-0.023-0.531-0.039
			c-0.172-0.008-0.359-0.016-0.531-0.016c-0.156,0-0.328,0.008-0.484,0.016c-0.203,0.008-0.39,0.023-0.578,0.039
			c-0.156,0.016-0.297,0.039-0.453,0.062c-0.203,0.031-0.406,0.062-0.594,0.102c-0.141,0.031-0.281,0.062-0.422,0.094
			c-0.203,0.055-0.422,0.109-0.625,0.172c-0.062,0.023-0.141,0.039-0.203,0.062c-0.078,0.023-0.125,0.047-0.203,0.07
			c-0.188,0.07-0.375,0.148-0.578,0.227c-0.141,0.062-0.281,0.125-0.422,0.195c-0.172,0.078-0.328,0.156-0.484,0.242
			s-0.312,0.172-0.453,0.258s-0.281,0.172-0.406,0.266c-0.156,0.102-0.312,0.203-0.469,0.32c-0.125,0.094-0.25,0.195-0.375,0.297
			c-0.141,0.117-0.281,0.227-0.406,0.352c-0.141,0.117-0.25,0.242-0.375,0.367c-0.125,0.109-0.234,0.227-0.344,0.352
			c-0.125,0.141-0.25,0.289-0.375,0.438c-0.094,0.109-0.188,0.227-0.281,0.344c-0.109,0.164-0.219,0.328-0.328,0.492
			c-0.093,0.125-0.171,0.25-0.25,0.375c-0.094,0.156-0.188,0.328-0.281,0.492c-0.078,0.148-0.156,0.297-0.219,0.445
			c-0.078,0.156-0.141,0.305-0.203,0.461c-0.078,0.18-0.156,0.359-0.219,0.547c-0.031,0.07-0.062,0.133-0.078,0.203l-31.999,95.996
			c-1.859,5.594,1.156,11.632,6.75,13.492c1.109,0.375,2.25,0.555,3.375,0.555c4.453,0,8.625-2.828,10.109-7.297l21.889-65.637
			l21.875,65.637c1.484,4.469,5.656,7.297,10.109,7.297c1.125,0,2.266-0.18,3.375-0.555c5.594-1.859,8.609-7.898,6.75-13.492
			L212.794,113.974z"/>
		<path fill="#E6E9ED" d="M394.123,209.97l-31.998-95.996c-0.031-0.07-0.062-0.133-0.094-0.203
			c-0.062-0.188-0.125-0.367-0.188-0.547c-0.062-0.156-0.156-0.305-0.219-0.461c-0.062-0.148-0.156-0.297-0.219-0.453
			c-0.094-0.164-0.188-0.328-0.281-0.484c-0.094-0.125-0.156-0.258-0.25-0.383c-0.094-0.164-0.219-0.32-0.344-0.477
			c-0.094-0.125-0.188-0.242-0.281-0.359c-0.125-0.148-0.219-0.289-0.344-0.43c-0.125-0.125-0.25-0.242-0.375-0.359
			c-0.094-0.125-0.219-0.242-0.344-0.359c-0.156-0.125-0.281-0.242-0.438-0.359c-0.125-0.094-0.25-0.195-0.375-0.289
			c-0.125-0.117-0.312-0.219-0.469-0.328c-0.125-0.086-0.25-0.172-0.375-0.25c-0.156-0.094-0.312-0.188-0.5-0.273
			c-0.125-0.078-0.281-0.156-0.438-0.234c-0.156-0.07-0.312-0.133-0.469-0.195c-0.188-0.078-0.344-0.156-0.531-0.219
			c-0.094-0.023-0.156-0.055-0.219-0.078s-0.155-0.039-0.218-0.062c-0.188-0.062-0.406-0.117-0.594-0.164
			c-0.156-0.039-0.312-0.07-0.438-0.102c-0.188-0.039-0.375-0.07-0.594-0.102c-0.156-0.023-0.312-0.047-0.469-0.062
			c-0.188-0.016-0.375-0.023-0.531-0.039c-0.188-0.008-0.344-0.016-0.531-0.016c-0.156,0-0.344,0.008-0.5,0.016
			c-0.188,0.008-0.375,0.023-0.562,0.039c-0.156,0.016-0.312,0.039-0.469,0.062c-0.188,0.031-0.375,0.062-0.594,0.102
			c-0.125,0.031-0.281,0.062-0.406,0.094c-0.219,0.055-0.406,0.109-0.625,0.172c-0.062,0.023-0.125,0.039-0.219,0.062
			c-0.062,0.023-0.125,0.055-0.188,0.078c-0.188,0.062-0.375,0.141-0.562,0.219c-0.156,0.062-0.312,0.125-0.438,0.195
			c-0.156,0.078-0.312,0.156-0.469,0.242s-0.312,0.172-0.469,0.266c-0.156,0.078-0.281,0.164-0.406,0.25
			c-0.156,0.109-0.312,0.211-0.469,0.328c-0.125,0.094-0.25,0.195-0.375,0.297c-0.125,0.109-0.281,0.227-0.406,0.352
			c-0.125,0.117-0.25,0.234-0.375,0.359c-0.125,0.117-0.25,0.234-0.344,0.359c-0.125,0.141-0.25,0.281-0.375,0.43
			c-0.094,0.117-0.188,0.234-0.281,0.359c-0.125,0.156-0.219,0.312-0.344,0.477c-0.062,0.125-0.156,0.258-0.25,0.383
			c-0.094,0.156-0.188,0.32-0.25,0.484c-0.094,0.156-0.156,0.305-0.25,0.453c-0.062,0.156-0.125,0.305-0.188,0.461
			c-0.094,0.18-0.156,0.359-0.219,0.547c-0.031,0.07-0.062,0.133-0.094,0.203l-31.999,95.996
			c-1.844,5.594,1.156,11.632,6.749,13.492c1.125,0.375,2.25,0.555,3.375,0.555c4.469,0,8.625-2.828,10.125-7.297l21.875-65.637
			l21.873,65.637c1.499,4.469,5.655,7.297,10.124,7.297c1.125,0,2.25-0.18,3.375-0.555
			C392.967,221.603,395.998,215.564,394.123,209.97z"/>
	</g>
	<g>
		<g>
			<path fill="#FFCE54" d="M352.001,128.013H202.685c-5.906,0-10.671-4.773-10.671-10.664s4.765-10.664,10.671-10.664h149.316
				c5.905,0,10.655,4.773,10.655,10.664S357.906,128.013,352.001,128.013z"/>
		</g>
	</g>
	<g>
		<path fill="#FFCE54" d="M202.685,256.008c-23.53,0-42.669-19.14-42.669-42.663h85.324
			C245.34,236.868,226.2,256.008,202.685,256.008z"/>
	</g>
	<g>
		<path fill="#FFCE54" d="M352.001,256.008c-23.531,0-42.655-19.14-42.655-42.663h85.309
			C394.654,236.868,375.529,256.008,352.001,256.008z"/>
	</g>
</g>
</svg>
