<?xml version="1.0" encoding="utf-8"?>
<!-- Generator: Adobe Illustrator 16.0.0, SVG Export Plug-In . SVG Version: 6.00 Build 0)  -->
<!DOCTYPE svg PUBLIC "-//W3C//DTD SVG 1.1//EN" "http://www.w3.org/Graphics/SVG/1.1/DTD/svg11.dtd">
<svg version="1.1" id="Layer_1" xmlns="http://www.w3.org/2000/svg" xmlns:xlink="http://www.w3.org/1999/xlink" x="0px" y="0px"
	 width="512px" height="512px" viewBox="0 0 512 512" enable-background="new 0 0 512 512" xml:space="preserve">
<g id="death_certificate">
	<g>
		<g id="peace_agreement_1_">
			<polygon fill="#E6E9ED" points="388.396,70.257 324.399,6.26 318.149,0.01 309.338,0.01 31.997,0.01 10.67,0.01 10.67,21.353 
				10.67,490.679 10.67,511.99 31.997,511.99 373.335,511.99 394.646,511.99 394.646,490.679 394.646,85.35 394.646,76.507 			"/>
			<g>
				<path fill="#434A54" d="M85.339,298.686h234.654c5.875,0,10.656-4.781,10.656-10.687c0-5.875-4.781-10.656-10.656-10.656H85.339
					c-5.906,0-10.671,4.781-10.671,10.656C74.668,293.904,79.433,298.686,85.339,298.686z"/>
				<path fill="#434A54" d="M319.993,341.341H85.339c-5.906,0-10.671,4.781-10.671,10.655c0,5.906,4.765,10.688,10.671,10.688
					h234.654c5.875,0,10.656-4.781,10.656-10.688C330.649,346.122,325.868,341.341,319.993,341.341z"/>
				<path fill="#434A54" d="M202.662,405.337H85.339c-5.906,0-10.671,4.781-10.671,10.656c0,5.906,4.765,10.688,10.671,10.688
					h117.323c5.891,0,10.672-4.781,10.672-10.688C213.334,410.118,208.553,405.337,202.662,405.337z"/>
			</g>
			<g>
				<polygon fill="#E6E9ED" points="472.831,341.122 444.488,341.122 415.989,440.681 458.645,469.116 501.33,440.681 				"/>
			</g>
			<g>
				<path fill="#656D78" d="M458.645,63.789c-23.562,0-42.655,19.093-42.655,42.654v287.989h85.341V106.443
					C501.33,82.882,482.205,63.789,458.645,63.789z"/>
			</g>
			<polygon fill="#CCD1D9" points="394.646,76.507 318.149,76.507 318.149,0.01 			"/>
		</g>
	</g>
	<g>
		<path fill="#FFCE54" d="M192.007,224.001h-85.341c-5.891,0-10.656-4.781-10.656-10.671v-22.608
			c-13.499-13.89-21.154-32.592-21.154-52.061c0-41.17,33.498-74.653,74.668-74.653c41.171,0,74.669,33.483,74.669,74.653
			c0,19.671-7.797,38.515-21.53,52.436v22.233C202.662,219.22,197.881,224.001,192.007,224.001z"/>
	</g>
	<path fill="#F6BB42" d="M149.523,202.658c-5.89,0-10.671,4.781-10.671,10.671v10.671h21.343V213.33
		C160.195,207.439,155.414,202.658,149.523,202.658z"/>
	<g>
		<path fill="#434A54" d="M138.665,138.661c0,5.891-4.781,10.672-10.656,10.672c-5.906,0-10.671-4.781-10.671-10.672
			s4.765-10.656,10.671-10.656C133.884,128.005,138.665,132.77,138.665,138.661z"/>
	</g>
	<g>
		<path fill="#434A54" d="M181.335,138.661c0,5.891-4.781,10.672-10.671,10.672c-5.891,0-10.656-4.781-10.656-10.672
			s4.766-10.656,10.656-10.656C176.554,128.005,181.335,132.77,181.335,138.661z"/>
	</g>
</g>
</svg>
