<?xml version="1.0" encoding="utf-8"?>
<!-- Generator: Adobe Illustrator 16.0.0, SVG Export Plug-In . SVG Version: 6.00 Build 0)  -->
<!DOCTYPE svg PUBLIC "-//W3C//DTD SVG 1.1//EN" "http://www.w3.org/Graphics/SVG/1.1/DTD/svg11.dtd">
<svg version="1.1" id="Layer_1" xmlns="http://www.w3.org/2000/svg" xmlns:xlink="http://www.w3.org/1999/xlink" x="0px" y="0px"
	 width="512px" height="512px" viewBox="0 0 512 512" enable-background="new 0 0 512 512" xml:space="preserve">
<g id="dna_analysis">
	<path fill="#5D9CEC" d="M21.345,394.647c-5.882,0-10.671-4.781-10.671-10.656V63.997c0-5.875,4.789-10.656,10.671-10.656h469.302
		c5.891,0,10.688,4.781,10.688,10.656v319.995c0,5.875-4.797,10.656-10.688,10.656H21.345z"/>
	<path fill="#E6E9ED" d="M490.646,42.669H21.345c-11.781,0-21.335,9.546-21.335,21.328v319.995c0,11.781,9.554,21.342,21.335,21.342
		h469.302c11.781,0,21.344-9.561,21.344-21.342V63.997C511.99,52.215,502.428,42.669,490.646,42.669z M490.646,383.991H21.345
		V63.997h469.302V383.991z"/>
	<g>
		<polygon fill="#CCD1D9" points="341.341,469.331 170.667,469.331 191.94,384.085 320.028,384.054 		"/>
	</g>
	<rect x="15.955" y="341.337" fill="#E6E9ED" width="480.098" height="61.027"/>
	<path fill="#434A54" d="M266.663,373.335c0,5.875-4.773,10.656-10.663,10.656c-5.891,0-10.664-4.781-10.664-10.656
		c0-5.904,4.773-10.686,10.664-10.686C261.89,362.649,266.663,367.431,266.663,373.335z"/>
	<path fill="#E6E9ED" d="M341.341,447.989H170.667c-5.891,0-10.664,4.781-10.664,10.654c0,5.906,4.773,10.688,10.664,10.688h170.673
		c5.875,0,10.656-4.781,10.656-10.688C351.997,452.771,347.216,447.989,341.341,447.989z"/>
	<g>
		<path fill="#434A54" d="M447.992,149.337H277.343c-5.898,0-10.672-4.781-10.672-10.672s4.773-10.656,10.672-10.656h170.649
			c5.906,0,10.672,4.765,10.672,10.656S453.898,149.337,447.992,149.337z"/>
	</g>
	<g>
		<path fill="#434A54" d="M447.992,192.007H277.343c-5.898,0-10.672-4.781-10.672-10.671c0-5.89,4.773-10.671,10.672-10.671h170.649
			c5.906,0,10.672,4.781,10.672,10.671C458.664,187.226,453.898,192.007,447.992,192.007z"/>
	</g>
	<g>
		<path fill="#434A54" d="M447.992,234.662H277.343c-5.898,0-10.672-4.766-10.672-10.656s4.773-10.671,10.672-10.671h170.649
			c5.906,0,10.672,4.781,10.672,10.671S453.898,234.662,447.992,234.662z"/>
	</g>
	<g>
		<path fill="#434A54" d="M447.992,277.34H277.343c-5.898,0-10.672-4.781-10.672-10.68c0-5.891,4.773-10.656,10.672-10.656h170.649
			c5.906,0,10.672,4.765,10.672,10.656C458.664,272.559,453.898,277.34,447.992,277.34z"/>
	</g>
	<g>
		<path fill="#CCD1D9" d="M207.556,128.009H70.125c-5.891,0-10.671-4.781-10.671-10.671s4.781-10.672,10.671-10.672h137.432
			c5.891,0,10.664,4.781,10.664,10.672S213.447,128.009,207.556,128.009z"/>
	</g>
	<g>
		<path fill="#CCD1D9" d="M187.706,170.664H89.67c-5.89,0-10.664-4.766-10.664-10.656c0-5.891,4.773-10.671,10.664-10.671h98.036
			c5.89,0,10.663,4.781,10.663,10.671C198.369,165.898,193.596,170.664,187.706,170.664z"/>
	</g>
	<g>
		<path fill="#CCD1D9" d="M187.698,256.004H89.67c-5.89,0-10.664-4.781-10.664-10.672c0-5.89,4.773-10.671,10.664-10.671h98.028
			c5.89,0,10.663,4.781,10.663,10.671C198.361,251.223,193.588,256.004,187.698,256.004z"/>
	</g>
	<g>
		<path fill="#CCD1D9" d="M207.556,298.65H69.82c-5.891,0-10.664-4.75-10.664-10.654c0-5.875,4.773-10.656,10.664-10.656h137.736
			c5.891,0,10.664,4.781,10.664,10.656C218.22,293.9,213.447,298.65,207.556,298.65z"/>
	</g>
	<g>
		<path fill="#E6E9ED" d="M64.046,319.995c-0.648,0-1.297-0.062-1.96-0.188c-5.789-1.062-9.617-6.625-8.539-12.438
			c0.688-3.688,17.531-90.708,81.395-114.691c14.96-5.609,36.397-19.921,53.537-56.201c10.578-22.39,14.335-42.217,14.374-42.42
			c1.07-5.797,6.641-9.609,12.43-8.547c5.796,1.078,9.617,6.656,8.546,12.437c-0.688,3.703-17.531,90.731-81.395,114.699
			c-14.96,5.625-36.397,19.937-53.537,56.217c-10.585,22.383-14.335,42.226-14.374,42.413
			C73.57,316.401,69.085,319.995,64.046,319.995z"/>
	</g>
	<g>
		<path fill="#F5F7FA" d="M213.33,319.995c-5.047,0-9.523-3.594-10.477-8.719c-0.148-0.781-15.381-78.896-67.911-98.63
			C71.078,188.679,54.234,101.651,53.547,97.948c-1.078-5.781,2.75-11.359,8.539-12.437c5.789-1.062,11.351,2.75,12.437,8.531l0,0
			c0.148,0.797,15.382,78.919,67.911,98.637c63.864,23.983,80.708,111.004,81.395,114.691c1.07,5.812-2.75,11.375-8.546,12.438
			C214.626,319.933,213.97,319.995,213.33,319.995z"/>
	</g>
</g>
</svg>
