<?xml version="1.0" encoding="utf-8"?>
<!-- Generator: Adobe Illustrator 16.0.0, SVG Export Plug-In . SVG Version: 6.00 Build 0)  -->
<!DOCTYPE svg PUBLIC "-//W3C//DTD SVG 1.1//EN" "http://www.w3.org/Graphics/SVG/1.1/DTD/svg11.dtd">
<svg version="1.1" id="Layer_1" xmlns="http://www.w3.org/2000/svg" xmlns:xlink="http://www.w3.org/1999/xlink" x="0px" y="0px"
	 width="512px" height="512px" viewBox="0 0 512 512" enable-background="new 0 0 512 512" xml:space="preserve">
<g id="drugs">
	<path fill="#E6E9ED" d="M511.543,394.857c0-52.825-42.983-95.824-95.825-95.824c-52.841,0-95.84,42.983-95.84,95.824
		c0,27.483,11.594,53.232,31.953,71.435v35.046c0,5.891,4.765,10.656,10.64,10.656H468.95c2.828,0,5.531-1.125,7.531-3.125
		s3.125-4.703,3.125-7.531v-35.046C499.965,448.09,511.543,422.341,511.543,394.857z"/>
	<g>
		<path fill="#967ADC" d="M3.578,507.979c-4.172-4.156-4.172-10.89,0-15.046l105.401-105.419c4.156-4.155,10.906-4.155,15.062,0
			c4.156,4.172,4.156,10.906,0,15.062L18.624,507.979C14.468,512.15,7.733,512.15,3.578,507.979z"/>
	</g>
	<path fill="#E6E9ED" d="M398.609,183.835c0-2.828-1.125-5.546-3.125-7.531l-60.231-60.232c-4.156-4.172-10.891-4.172-15.047,0
		L108.979,327.283c-2,1.999-3.125,4.702-3.125,7.53v60.231c0,2.938,1.203,5.609,3.125,7.53c1.922,1.922,4.594,3.125,7.531,3.125
		h60.232c2.828,0,5.531-1.125,7.531-3.125l211.21-211.225C397.484,189.366,398.609,186.647,398.609,183.835z"/>
	<path fill="#AC92EB" d="M105.854,395.045c0,2.938,1.203,5.609,3.125,7.53c1.922,1.922,4.594,3.125,7.531,3.125h60.232
		c2.828,0,5.531-1.125,7.531-3.125L312.27,274.581H161.681l-52.701,52.702c-2,1.999-3.125,4.702-3.125,7.53V395.045z"/>
	<path fill="#434A54" d="M394.422,394.857c0,5.891-4.766,10.655-10.656,10.655c-5.875,0-10.64-4.765-10.64-10.655
		c0-5.875,4.765-10.64,10.64-10.64C389.656,384.218,394.422,388.982,394.422,394.857z"/>
	<path fill="#434A54" d="M458.311,394.857c0,5.891-4.766,10.655-10.656,10.655c-5.875,0-10.641-4.765-10.641-10.655
		c0-5.875,4.766-10.64,10.641-10.64C453.545,384.218,458.311,388.982,458.311,394.857z"/>
	<path fill="#E6E9ED" d="M496.496,55.84c0-2.828-1.125-5.547-3.125-7.531l-30.123-30.124c-4.156-4.156-10.891-4.156-15.047,0
		L335.253,131.118c-2,2-3.109,4.703-3.109,7.531s1.109,5.531,3.109,7.531l30.123,30.124c4.156,4.156,10.905,4.156,15.062,0
		L493.371,63.355C495.371,61.371,496.496,58.652,496.496,55.84z"/>
	<g>
		<path fill="#CCD1D9" d="M312.676,123.603c-4.172-4.172-4.172-10.906,0-15.062c4.155-4.156,10.89-4.156,15.046,0l75.294,75.279
			c4.156,4.172,4.156,10.906,0,15.062c-4.156,4.156-10.891,4.156-15.047,0L312.676,123.603z"/>
	</g>
	<path fill="#434A54" d="M267.083,319.752l-15.046-15.047c-4.156-4.172-10.906-4.156-15.062,0s-4.156,10.891,0,15.047l15.062,15.062
		L267.083,319.752z"/>
	<path fill="#434A54" d="M221.913,364.938l-15.062-15.062c-4.156-4.155-10.89-4.155-15.046,0c-4.171,4.156-4.171,10.906,0,15.062
		l15.046,15.046L221.913,364.938z"/>
	<path fill="#434A54" d="M312.285,274.55l-15.046-15.046c-4.172-4.172-10.906-4.156-15.062,0s-4.156,10.891,0,15.046l15.062,15.062
		L312.285,274.55z"/>
	<path fill="#434A54" d="M357.439,229.411l-15.062-15.062c-4.156-4.156-10.891-4.156-15.062,0c-4.156,4.156-4.156,10.906,0,15.062
		l15.062,15.062L357.439,229.411z"/>
	<path fill="#CCD1D9" d="M394.422,480.042c-5.891,0-10.656,4.766-10.656,10.656v21.296h21.297v-21.296
		C405.062,484.808,400.297,480.042,394.422,480.042z"/>
	<path fill="#CCD1D9" d="M437.014,478.714c-5.891,0-10.656,4.766-10.656,10.656v21.296c0,0.438,0.047,0.891,0.094,1.328h21.109
		c0.062-0.438,0.094-0.891,0.094-1.328V489.37C447.654,483.479,442.889,478.714,437.014,478.714z"/>
	<g>
		<path fill="#CCD1D9" d="M433.139,18.185c-4.156-4.156-4.156-10.89,0-15.062c4.156-4.156,10.891-4.156,15.062,0l60.232,60.232
			c4.156,4.172,4.156,10.906,0,15.062c-4.156,4.156-10.906,4.156-15.062,0L433.139,18.185z"/>
	</g>
</g>
</svg>
