<?xml version="1.0" encoding="utf-8"?>
<!-- Generator: Adobe Illustrator 16.0.0, SVG Export Plug-In . SVG Version: 6.00 Build 0)  -->
<!DOCTYPE svg PUBLIC "-//W3C//DTD SVG 1.1//EN" "http://www.w3.org/Graphics/SVG/1.1/DTD/svg11.dtd">
<svg version="1.1" id="Layer_1" xmlns="http://www.w3.org/2000/svg" xmlns:xlink="http://www.w3.org/1999/xlink" x="0px" y="0px"
	 width="512px" height="512px" viewBox="0 0 512 512" enable-background="new 0 0 512 512" xml:space="preserve">
<g id="empty_safe">
	<g>
		<path fill="#434A54" d="M96.006,463.995H32.009c-5.891,0-10.664-4.781-10.664-10.671v-31.999c0-5.891,4.773-10.672,10.664-10.672
			h63.997c5.891,0,10.671,4.781,10.671,10.672v31.999C106.677,459.214,101.896,463.995,96.006,463.995z"/>
	</g>
	<g>
		<path fill="#434A54" d="M479.991,463.995h-63.998c-5.89,0-10.655-4.781-10.655-10.671v-31.999c0-5.891,4.766-10.672,10.655-10.672
			h63.998c5.905,0,10.671,4.781,10.671,10.672v31.999C490.662,459.214,485.896,463.995,479.991,463.995z"/>
	</g>
	<path fill="#656D78" d="M501.334,69.34H10.681c-5.89,0-10.671,4.765-10.671,10.671v341.314c0,5.891,4.781,10.672,10.671,10.672
		h490.653c5.875,0,10.656-4.781,10.656-10.672V80.011C511.99,74.105,507.209,69.34,501.334,69.34z"/>
	<path fill="#434A54" d="M266.671,101.338H42.68c-5.891,0-10.671,4.765-10.671,10.671v277.317c0,5.891,4.781,10.672,10.671,10.672
		h223.991c5.891,0,10.672-4.781,10.672-10.672V112.009C277.343,106.103,272.562,101.338,266.671,101.338z"/>
	<path fill="#A0D468" d="M149.348,314.658c-5.89,0-10.664,4.781-10.664,10.672c0,5.89,4.773,10.671,10.664,10.671
		c5.891,0,10.672-4.781,10.672-10.671C160.02,319.439,155.238,314.658,149.348,314.658z"/>
	<path fill="#A0D468" d="M149.371,165.335c-16.718,0-29.991,5.062-39.452,15.062c-13.734,14.483-13.992,34.342-13.906,38.201
		c0,0.016-0.008,0.047-0.008,0.062c0,0.078,0.016,0.156,0.016,0.234c0.008,0.172,0.008,0.297,0.016,0.344l0,0
		c0.305,5.625,4.945,10.094,10.64,10.094c5.891,0,10.664-4.781,10.664-10.672c0-0.172-0.016-0.344-0.023-0.5l0.023-0.016
		c-0.008-0.141-0.484-14.171,8.164-23.186c5.281-5.5,13.304-8.296,23.866-8.296c12.671,0,21.218,3.093,26.116,9.437
		c3.875,5.015,5.844,12.609,5.859,22.577c0.016,7.156-6.125,16.328-17.289,25.874c-9.726,8.297-19.726,13.812-19.819,13.859
		c-3.422,1.875-5.547,5.469-5.547,9.359l-0.016,25.545c0,5.891,4.773,10.672,10.664,10.672c0,0,0,0,0.008,0
		c5.883,0,10.656-4.781,10.664-10.672l0.008-19.437c13.031-8.093,42.708-29.374,42.662-55.232
		C202.619,184.272,183.69,165.335,149.371,165.335z"/>
	<path fill="#434A54" d="M472.71,101.885L312.717,48.559c-3.25-1.094-6.844-0.547-9.625,1.453c-2.781,2.016-4.421,5.234-4.421,8.656
		v383.984c0,3.438,1.64,6.656,4.421,8.656c1.844,1.328,4.031,2.016,6.25,2.016c1.125,0,2.266-0.188,3.375-0.547l159.993-53.342
		c4.344-1.438,7.281-5.516,7.281-10.109V112.009C479.991,107.416,477.054,103.338,472.71,101.885z"/>
	<path fill="#AAB2BC" d="M309.342,48.012h-42.671c-5.891,0-10.671,4.765-10.671,10.656v383.984c0,5.891,4.78,10.672,10.671,10.672
		h42.671c5.874,0,10.655-4.781,10.655-10.672V58.668C319.997,52.777,315.216,48.012,309.342,48.012z"/>
	<path fill="#FFCE54" d="M363.59,208.006c-11.968,0-21.343,18.733-21.343,42.654s9.375,42.67,21.343,42.67
		c11.967,0,21.342-18.749,21.342-42.67S375.557,208.006,363.59,208.006z"/>
</g>
</svg>
