<?xml version="1.0" encoding="utf-8"?>
<!-- Generator: Adobe Illustrator 16.0.0, SVG Export Plug-In . SVG Version: 6.00 Build 0)  -->
<!DOCTYPE svg PUBLIC "-//W3C//DTD SVG 1.1//EN" "http://www.w3.org/Graphics/SVG/1.1/DTD/svg11.dtd">
<svg version="1.1" id="Layer_1" xmlns="http://www.w3.org/2000/svg" xmlns:xlink="http://www.w3.org/1999/xlink" x="0px" y="0px"
	 width="512px" height="512px" viewBox="0 0 512 512" enable-background="new 0 0 512 512" xml:space="preserve">
<g id="evidence_destruction">
	<g id="printer">
		<g>
			<path fill="#CCD1D9" d="M469.304,234.688H42.665c-5.898,0-10.656,4.75-10.656,10.655v191.993c0,5.905,4.757,10.655,10.656,10.655
				h426.639c5.906,0,10.688-4.75,10.688-10.655V245.344C479.991,239.438,475.21,234.688,469.304,234.688z"/>
		</g>
		<g>
			<path fill="#E6E9ED" d="M469.304,213.345H42.665c-5.898,0-10.656,4.781-10.656,10.656v191.992
				c0,5.906,4.757,10.688,10.656,10.688h426.639c5.906,0,10.688-4.781,10.688-10.688V224.001
				C479.991,218.126,475.21,213.345,469.304,213.345z"/>
		</g>
		<g>
			<path fill="#656D78" d="M415.993,383.995H96.006c-5.898,0-10.679-4.781-10.679-10.656c0-5.905,4.781-10.655,10.679-10.655
				h319.987c5.875,0,10.655,4.75,10.655,10.655C426.648,379.214,421.868,383.995,415.993,383.995z"/>
		</g>
		<g>
			<path fill="#CCD1D9" d="M415.993,234.688H96.006c-5.898,0-10.679-4.781-10.679-10.688c0-5.875,4.781-10.656,10.679-10.656
				h319.987c5.875,0,10.655,4.781,10.655,10.656C426.648,229.907,421.868,234.688,415.993,234.688z"/>
		</g>
		<g>
			<path fill="#A0D468" d="M390.088,266.688c0,5.874,4.781,10.655,10.656,10.655c5.906,0,10.655-4.781,10.655-10.655
				c0-5.906-4.749-10.688-10.655-10.688C394.869,256,390.088,260.781,390.088,266.688z"/>
			<path fill="#ED5564" d="M347.403,266.688c0,5.874,4.781,10.655,10.687,10.655c5.875,0,10.655-4.781,10.655-10.655
				c0-5.906-4.78-10.688-10.655-10.688C352.185,256,347.403,260.781,347.403,266.688z"/>
			<path fill="#FFCE54" d="M304.748,266.688c0,5.874,4.781,10.655,10.655,10.655c5.906,0,10.688-4.781,10.688-10.655
				c0-5.906-4.781-10.688-10.688-10.688C309.529,256,304.748,260.781,304.748,266.688z"/>
		</g>
	</g>
	<path fill="#FFCE54" d="M412.868,88.459l-85.324-85.34c-2.016-2-4.719-3.109-7.547-3.109H106.669
		c-5.89,0-10.664,4.766-10.664,10.656V213.33c0,5.89,4.773,10.671,10.664,10.671h298.668c5.874,0,10.655-4.781,10.655-10.671V96.006
		C415.993,93.163,414.868,90.459,412.868,88.459z"/>
	<path fill="#F6BB42" d="M319.997,0.01v85.325c0,5.891,4.781,10.672,10.656,10.672h85.34l0,0c0-2.125-0.625-4.172-1.781-5.922
		c0,0,0,0-0.016-0.016c-0.172-0.266-0.375-0.531-0.578-0.781c-0.031-0.031-0.047-0.047-0.062-0.078
		c-0.203-0.234-0.406-0.469-0.625-0.688c-0.125-0.125-0.25-0.266-0.375-0.375L327.544,3.119
		C325.528,1.119,322.825,0.01,319.997,0.01L319.997,0.01z"/>
	<g>
		<path fill="#FFCE54" d="M128.005,511.99c-5.891,0-10.664-4.781-10.664-10.672V373.323h21.327v127.995
			C138.668,507.209,133.895,511.99,128.005,511.99z"/>
	</g>
	<g>
		<path fill="#FFCE54" d="M170.667,511.99c-5.891,0-10.664-4.781-10.664-10.672V373.323h21.335v127.995
			C181.339,507.209,176.558,511.99,170.667,511.99z"/>
	</g>
	<g>
		<path fill="#FFCE54" d="M213.337,511.99c-5.891,0-10.672-4.781-10.672-10.672V373.323h21.335v127.995
			C224.001,507.209,219.228,511.99,213.337,511.99z"/>
	</g>
	<g>
		<path fill="#FFCE54" d="M256,511.99c-5.891,0-10.664-4.781-10.664-10.672V373.323h21.327v127.995
			C266.663,507.209,261.89,511.99,256,511.99z"/>
	</g>
	<g>
		<path fill="#FFCE54" d="M298.655,511.99c-5.875,0-10.656-4.781-10.656-10.672V373.323h21.343v127.995
			C309.342,507.209,304.561,511.99,298.655,511.99z"/>
	</g>
	<g>
		<path fill="#FFCE54" d="M341.341,511.99c-5.906,0-10.688-4.781-10.688-10.672V373.323h21.344v127.995
			C351.997,507.209,347.216,511.99,341.341,511.99z"/>
	</g>
	<g>
		<path fill="#FFCE54" d="M383.994,511.99c-5.891,0-10.655-4.781-10.655-10.672V373.323h21.312v127.995
			C394.65,507.209,389.885,511.99,383.994,511.99z"/>
	</g>
	<g>
		<path fill="#ED5564" d="M213.337,192.002c-41.17,0-74.669-33.499-74.669-74.669c0-41.17,33.499-74.669,74.669-74.669
			c41.17,0,74.662,33.499,74.662,74.669C287.999,158.504,254.508,192.002,213.337,192.002z M213.337,64.008
			c-29.405,0-53.333,23.92-53.333,53.326s23.929,53.326,53.333,53.326c29.405,0,53.326-23.921,53.326-53.326
			S242.743,64.008,213.337,64.008z"/>
	</g>
	<g>
		<path fill="#ED5564" d="M213.337,128.005c-5.891,0-10.672-4.781-10.672-10.671V85.334c0-5.89,4.781-10.671,10.672-10.671
			c5.89,0,10.664,4.781,10.664,10.671v31.999C224.001,123.224,219.228,128.005,213.337,128.005z"/>
	</g>
	<g>
		<path fill="#ED5564" d="M224.001,149.333c0,5.89-4.773,10.671-10.664,10.671c-5.891,0-10.672-4.781-10.672-10.671
			c0-5.891,4.781-10.672,10.672-10.672C219.228,138.661,224.001,143.442,224.001,149.333z"/>
	</g>
</g>
</svg>
