<?xml version="1.0" encoding="utf-8"?>
<!-- Generator: Adobe Illustrator 16.0.0, SVG Export Plug-In . SVG Version: 6.00 Build 0)  -->
<!DOCTYPE svg PUBLIC "-//W3C//DTD SVG 1.1//EN" "http://www.w3.org/Graphics/SVG/1.1/DTD/svg11.dtd">
<svg version="1.1" id="Layer_1" xmlns="http://www.w3.org/2000/svg" xmlns:xlink="http://www.w3.org/1999/xlink" x="0px" y="0px"
	 width="512px" height="512px" viewBox="0 0 512 512" enable-background="new 0 0 512 512" xml:space="preserve">
<g id="evidence">
	<path fill="#E6E9ED" d="M426.645,0.01H85.339c-5.891,0-10.671,4.766-10.671,10.656v490.652c0,5.891,4.78,10.672,10.671,10.672
		h341.306c5.906,0,10.688-4.781,10.688-10.672V10.666C437.332,4.775,432.551,0.01,426.645,0.01z"/>
	<path fill="#E6E9ED" d="M426.645,0.01H85.339c-5.891,0-10.671,4.766-10.671,10.656v31.999h362.664V10.666
		C437.332,4.775,432.551,0.01,426.645,0.01z"/>
	<path fill="#AAB2BC" d="M378.209,153.926c-3.687-0.671-7.437,0.656-9.905,3.453c0,0.031-2.875,3.296-8.312,8.734
		c-9.405,9.375-29.374,28.14-57.717,48.42c-0.469,0.344-0.906,0.719-1.312,1.141L187.632,328.997
		c-4.172,4.156-4.172,10.922,0,15.078l45.217,45.231c2,2,4.719,3.125,7.547,3.125s5.546-1.125,7.546-3.125l47.616-47.606
		l74.746-74.763l0,0c16.999-17.016,25.124-40.952,23.468-69.232c-1.219-20.639-7.219-36.452-7.469-37.124
		C384.959,157.098,381.896,154.582,378.209,153.926z"/>
	<g>
		<path fill="#ED5564" d="M171.055,457.147c-2,2-4.719,3.125-7.547,3.125s-5.547-1.125-7.547-3.125l-36.187-36.186
			c-4.155-4.156-4.155-10.906,0-15.078l72.373-72.371c1.999-2,4.718-3.125,7.546-3.125s5.547,1.125,7.547,3.125l36.171,36.187
			c4.171,4.171,4.171,10.921,0,15.093L171.055,457.147z"/>
	</g>
	<g>
		<path fill="#DA4453" d="M180.101,466.194c-4.172,4.172-10.921,4.172-15.093,0l-45.233-45.232c-4.155-4.156-4.155-10.906,0-15.078
			c4.172-4.172,10.922-4.172,15.094,0l45.232,45.233C184.257,455.273,184.257,462.038,180.101,466.194z"/>
	</g>
	<rect x="74.668" y="32.009" fill="#ED5564" width="362.664" height="21.327"/>
	<path fill="#FFCE54" d="M383.928,224.001H127.931c-5.891,0-10.671,4.766-10.671,10.656v63.997c0,5.891,4.78,10.672,10.671,10.672
		h255.997c2.938,0,5.594-1.188,7.531-3.125c1.938-1.922,3.125-4.594,3.125-7.547v-63.997
		C394.584,228.767,389.803,224.001,383.928,224.001z"/>
	<g>
		<path fill="#434A54" d="M349.493,274.202c-1.906,1.938-4.594,3.125-7.531,3.125H169.961c-5.891,0-10.656-4.781-10.656-10.671
			c0-5.891,4.766-10.656,10.656-10.656h172.001c5.906,0,10.656,4.766,10.656,10.656C352.618,269.609,351.431,272.28,349.493,274.202
			z"/>
	</g>
	<g>
		<path fill="#434A54" d="M261.503,402.868L261.503,402.868c-4.155,4.172-10.921,4.172-15.077,0l-63.325-63.309
			c-4.156-4.172-4.156-10.922,0-15.093l0,0c4.172-4.156,10.921-4.156,15.093,0l63.31,63.324
			C265.675,391.963,265.675,398.713,261.503,402.868z"/>
	</g>
</g>
</svg>
