<?xml version="1.0" encoding="utf-8"?>
<!-- Generator: Adobe Illustrator 16.0.0, SVG Export Plug-In . SVG Version: 6.00 Build 0)  -->
<!DOCTYPE svg PUBLIC "-//W3C//DTD SVG 1.1//EN" "http://www.w3.org/Graphics/SVG/1.1/DTD/svg11.dtd">
<svg version="1.1" id="Layer_1" xmlns="http://www.w3.org/2000/svg" xmlns:xlink="http://www.w3.org/1999/xlink" x="0px" y="0px"
	 width="512px" height="512px" viewBox="0 0 512 512" enable-background="new 0 0 512 512" xml:space="preserve">
<g id="fingerprint_search">
	<path fill="#AC92EB" d="M21.345,394.646c-5.882,0-10.671-4.781-10.671-10.655V63.996c0-5.875,4.789-10.656,10.671-10.656h469.302
		c5.875,0,10.688,4.781,10.688,10.656v319.995c0,5.874-4.812,10.655-10.688,10.655H21.345z"/>
	<path fill="#E6E9ED" d="M490.646,42.669H21.345c-11.781,0-21.335,9.546-21.335,21.327v319.995c0,11.78,9.554,21.342,21.335,21.342
		h469.302c11.781,0,21.344-9.562,21.344-21.342V63.996C511.99,52.215,502.428,42.669,490.646,42.669z M490.646,383.991H21.345
		V63.996h469.302V383.991z"/>
	<g>
		<polygon fill="#CCD1D9" points="341.341,469.331 170.667,469.331 191.94,384.085 320.028,384.054 		"/>
	</g>
	<rect x="15.955" y="341.337" fill="#E6E9ED" width="480.098" height="61.027"/>
	<path fill="#434A54" d="M266.663,373.335c0,5.875-4.773,10.656-10.663,10.656c-5.891,0-10.664-4.781-10.664-10.656
		c0-5.905,4.773-10.687,10.664-10.687C261.89,362.648,266.663,367.43,266.663,373.335z"/>
	<path fill="#E6E9ED" d="M341.341,447.988H170.667c-5.891,0-10.664,4.781-10.664,10.655c0,5.906,4.773,10.688,10.664,10.688h170.673
		c5.875,0,10.656-4.781,10.656-10.688C351.997,452.77,347.216,447.988,341.341,447.988z"/>
	<g>
		<path fill="#CCD1D9" d="M94.975,306.088c-1.938,0-3.898-0.531-5.664-1.656c-4.992-3.125-6.492-9.719-3.359-14.687
			c8.351-13.281,4.109-32.819-0.375-53.475c-4.32-19.875-8.781-40.436-3.523-59.966c6.179-22.921,24.42-39.14,55.771-49.546
			c21.335-7.077,42.756-3.015,61.943,11.75c16.039,12.344,29.272,31.296,38.288,54.795c8.992,23.482,12.921,49.373,11.343,74.888
			c-0.359,5.866-5.414,10.335-11.296,9.991c-5.883-0.375-10.351-5.438-9.992-11.304c2.757-44.765-14.25-90.605-41.357-111.465
			c-13.5-10.39-27.702-13.218-42.209-8.405c-52.725,17.499-46.28,47.17-38.124,84.73c5.203,23.937,10.578,48.693-2.406,69.349
			C101.99,304.307,98.521,306.088,94.975,306.088z"/>
	</g>
	<g>
		<path fill="#E6E9ED" d="M132.091,319.994c-1.211,0-2.445-0.219-3.648-0.656c-5.539-2-8.391-8.125-6.375-13.656
			c6.961-19.155,3.547-42.115,0.242-64.317c-2.391-16.062-4.64-31.233-2.672-44.233c2.547-16.811,11.953-27.748,27.952-32.529
			c11.969-3.562,23.546-1.344,33.499,6.406c8.804,6.859,20.991,22.015,29.069,55.31c5.266,21.687,7.742,47.021,6.789,69.552
			c-0.25,5.875-5.218,10.469-11.101,10.188c-5.89-0.25-10.46-5.219-10.21-11.094c0.867-20.593-1.391-43.787-6.203-63.614
			c-5.179-21.312-12.796-36.764-21.444-43.514c-4.531-3.516-8.937-4.375-14.304-2.781c-8.015,2.391-11.648,6.672-12.953,15.265
			c-1.492,9.844,0.531,23.468,2.68,37.905c3.523,23.671,7.515,50.521-1.297,74.739C140.536,317.307,136.442,319.994,132.091,319.994
			z"/>
	</g>
	<g>
		<path fill="#CCD1D9" d="M169.199,319.994c-0.773,0-1.562-0.094-2.359-0.25c-5.742-1.312-9.351-7.031-8.054-12.781
			c9.179-40.678-4.227-81.989-4.359-82.411c-1.852-5.594,1.18-11.624,6.773-13.468c5.594-1.844,11.633,1.188,13.476,6.78
			c0.633,1.906,15.39,47.405,4.922,93.817C178.479,316.619,174.074,319.994,169.199,319.994z"/>
	</g>
	<g>
		<path fill="#E6E9ED" d="M62.508,273.558c-5.32,0-9.93-3.976-10.578-9.397c-0.781-6.531-2.047-13.812-3.39-21.499
			c-4.531-26.031-10.18-58.42-0.586-87.31c5.39-16.218,15.147-29.951,28.991-40.826c15.233-11.953,36.014-20.843,61.779-26.437
			c30.249-6.562,58.841-1.266,82.708,15.312c13.835,9.625,25.983,23.046,35.116,38.843c8.265,14.312,13.788,29.858,15.952,44.982
			c0.844,5.828-3.211,11.233-9.039,12.077c-5.835,0.828-11.233-3.218-12.077-9.046c-2.938-20.53-15.742-50.998-42.131-69.341
			c-19.14-13.297-41.35-17.328-66.005-11.969c-41.624,9.031-66.169,26.405-75.044,53.123c-7.906,23.796-2.984,52.029,1.352,76.919
			c1.391,7.983,2.711,15.53,3.555,22.64c0.703,5.844-3.469,11.147-9.32,11.866C63.359,273.526,62.929,273.558,62.508,273.558z"/>
	</g>
	<g>
		<path fill="#434A54" d="M447.992,149.337H319.997c-5.875,0-10.655-4.781-10.655-10.672s4.78-10.672,10.655-10.672h127.995
			c5.906,0,10.672,4.781,10.672,10.672S453.898,149.337,447.992,149.337z"/>
	</g>
	<g>
		<path fill="#434A54" d="M447.992,191.991H319.997c-5.875,0-10.655-4.766-10.655-10.656c0-5.89,4.78-10.671,10.655-10.671h127.995
			c5.906,0,10.672,4.781,10.672,10.671C458.664,187.226,453.898,191.991,447.992,191.991z"/>
	</g>
	<g>
		<path fill="#434A54" d="M447.992,234.661H319.997c-5.875,0-10.655-4.781-10.655-10.672s4.78-10.655,10.655-10.655h127.995
			c5.906,0,10.672,4.765,10.672,10.655S453.898,234.661,447.992,234.661z"/>
	</g>
	<g>
		<path fill="#434A54" d="M447.992,277.339H319.997c-5.875,0-10.655-4.781-10.655-10.679c0-5.891,4.78-10.672,10.655-10.672h127.995
			c5.906,0,10.672,4.781,10.672,10.672C458.664,272.558,453.898,277.339,447.992,277.339z"/>
	</g>
</g>
</svg>
