<?xml version="1.0" encoding="utf-8"?>
<!-- Generator: Adobe Illustrator 16.0.0, SVG Export Plug-In . SVG Version: 6.00 Build 0)  -->
<!DOCTYPE svg PUBLIC "-//W3C//DTD SVG 1.1//EN" "http://www.w3.org/Graphics/SVG/1.1/DTD/svg11.dtd">
<svg version="1.1" id="Layer_1" xmlns="http://www.w3.org/2000/svg" xmlns:xlink="http://www.w3.org/1999/xlink" x="0px" y="0px"
	 width="512px" height="512px" viewBox="0 0 512 512" enable-background="new 0 0 512 512" xml:space="preserve">
<g id="fingerprints">
	<path fill="#CCD1D9" d="M174.296,299.967l-45.256,45.249c-4.164,4.171-4.164,10.921,0,15.093l22.624,22.624
		c2,2,4.711,3.125,7.547,3.125c2.828,0,5.539-1.125,7.539-3.125l45.248-45.248C197.654,327.029,184.944,314.311,174.296,299.967z"/>
	<path fill="#E6E9ED" d="M320.001,384.011L320.001,384.011c-51.287,0-99.496-19.968-135.76-56.232
		c-36.265-36.264-56.24-84.481-56.24-135.76c0-51.295,19.976-99.512,56.24-135.776C220.505,19.994,268.714,0.01,320.001,0.01
		c51.279,0,99.496,19.968,135.776,56.232c36.248,36.264,56.217,84.481,56.217,135.776c0,51.279-19.969,99.497-56.217,135.76
		C419.497,364.043,371.28,384.011,320.001,384.011L320.001,384.011z M320.001,21.353c-45.592,0-88.442,17.75-120.675,49.983
		s-49.99,75.091-49.99,120.683c0,45.576,17.75,88.434,49.99,120.667c32.233,32.249,75.083,49.998,120.675,49.998l0,0
		c45.592,0,88.435-17.765,120.683-49.998c32.233-32.233,49.982-75.091,49.982-120.667c0-45.592-17.749-88.45-49.982-120.683
		C408.436,39.103,365.593,21.353,320.001,21.353z"/>
	<g>
		<g>
			<path fill="#AC92EB" d="M249.504,307.014c-1.945,0-3.906-0.516-5.664-1.625c-4.992-3.141-6.492-9.719-3.359-14.718
				c9.687-15.406,4.859-37.608-0.25-61.139c-4.828-22.202-9.812-45.154-3.984-66.826c6.828-25.327,27.069-43.264,61.881-54.811
				c23.561-7.828,47.232-3.328,68.434,13c17.858,13.733,32.593,34.842,42.655,61.06c10.046,26.233,14.437,55.169,12.687,83.685
				c-0.375,5.875-5.438,10.343-11.312,9.999c-5.875-0.375-10.344-5.421-10-11.312c3.125-50.78-16.219-102.809-47.028-126.527
				c-15.562-11.984-31.953-15.233-48.718-9.656c-27.874,9.25-43.116,22-47.998,40.108c-4.484,16.656-0.055,37.045,4.226,56.748
				c5.797,26.671,11.789,54.248-2.531,77.028C256.52,305.248,253.051,307.014,249.504,307.014z"/>
		</g>
		<g>
			<path fill="#AC92EB" d="M291.253,322.67c-1.219,0-2.438-0.203-3.656-0.641c-5.531-2.016-8.375-8.141-6.375-13.672
				c7.969-21.858,4.094-47.857,0.344-73.013c-2.656-17.953-5.188-34.937-3-49.357c2.781-18.359,13.047-30.296,30.499-35.514
				c13.03-3.875,25.655-1.469,36.499,6.984c9.718,7.578,23.217,24.39,32.216,61.481c5.906,24.281,8.656,52.655,7.594,77.856
				c-0.234,5.891-5.219,10.453-11.093,10.219c-5.891-0.25-10.468-5.219-10.218-11.109c1.905-45.17-9.624-104.511-31.608-121.62
				c-5.391-4.203-10.891-5.266-17.297-3.359c-18.811,5.609-18.311,22.124-12.483,61.294c3.938,26.468,8.391,56.482-1.391,83.435
				C299.689,319.982,295.612,322.67,291.253,322.67z"/>
		</g>
		<g>
			<path fill="#AC92EB" d="M333.001,322.67c-0.781,0-1.562-0.078-2.359-0.266c-5.734-1.297-9.359-7-8.047-12.75
				c10.406-46.139-4.797-92.966-4.953-93.435c-1.844-5.593,1.188-11.624,6.781-13.468c5.594-1.859,11.625,1.188,13.484,6.765
				c0.703,2.141,17.188,52.983,5.484,104.84C342.282,319.311,337.876,322.67,333.001,322.67z"/>
		</g>
		<g>
			<path fill="#AC92EB" d="M212.982,270.438c-5.328,0-9.93-3.984-10.578-9.406c-0.89-7.391-2.312-15.578-3.828-24.249
				c-5.078-29.14-11.397-65.388-0.703-97.575c5.976-17.999,16.796-33.233,32.163-45.295c16.976-13.312,40.178-23.233,68.967-29.483
				c33.654-7.312,65.465-1.422,91.995,17.015c15.406,10.703,28.937,25.67,39.107,43.28c9.219,15.937,15.359,33.264,17.797,50.123
				c0.828,5.828-3.219,11.234-9.062,12.062c-5.828,0.844-11.219-3.203-12.062-9.046c-3.343-23.343-17.92-58.029-47.967-78.904
				c-21.842-15.171-47.185-19.78-75.293-13.687c-47.318,10.281-75.255,30.108-85.403,60.654
				c-8.992,27.093-3.429,59.013,1.477,87.184c1.562,8.968,3.039,17.437,3.992,25.39c0.703,5.859-3.477,11.156-9.32,11.859
				C213.826,270.406,213.404,270.438,212.982,270.438z"/>
		</g>
	</g>
	<path fill="#656D78" d="M181.265,375.995l-45.256-45.264c-2-2-4.71-3.124-7.546-3.124c-2.828,0-5.539,1.124-7.539,3.124
		L12.498,439.165c-8.054,8.046-12.492,18.764-12.492,30.154c0,11.406,4.438,22.125,12.492,30.171
		c8.062,8.062,18.773,12.5,30.171,12.5s22.116-4.438,30.171-12.5l108.425-108.418c2-2,3.125-4.718,3.125-7.546
		S183.265,377.995,181.265,375.995z"/>
</g>
</svg>
