<?xml version="1.0" encoding="utf-8"?>
<!-- Generator: Adobe Illustrator 16.0.0, SVG Export Plug-In . SVG Version: 6.00 Build 0)  -->
<!DOCTYPE svg PUBLIC "-//W3C//DTD SVG 1.1//EN" "http://www.w3.org/Graphics/SVG/1.1/DTD/svg11.dtd">
<svg version="1.1" id="Layer_1" xmlns="http://www.w3.org/2000/svg" xmlns:xlink="http://www.w3.org/1999/xlink" x="0px" y="0px"
	 width="512px" height="512px" viewBox="0 0 512 512" enable-background="new 0 0 512 512" xml:space="preserve">
<g id="handcuffs">
	<path fill="#5D9CEC" d="M389.291,146.176C387.604,74.108,328.466,16.009,256,16.009c-35.499,0-68.911,13.797-94.067,38.843
		c-24.976,24.874-38.913,57.958-39.249,93.184c-0.008,0.258-0.016,0.523-0.016,0.789v27.179h9.89h11.445h10.664h15h6.335v-26.585
		c0.008-0.164,0.008-0.32,0.008-0.461c0.102-21.288,8.461-41.288,23.554-56.311c15.093-15.03,35.131-23.303,56.436-23.303
		c44.107,0,79.997,35.88,79.997,79.996c0,3.531-0.25,7.117-0.719,10.664h19.719v15.999h37.106v-29.827H389.291z"/>
	<path fill="#CCD1D9" d="M447.992,224.103v-80.099c0-5.891-4.781-10.664-10.656-10.664H287.999c-5.891,0-10.656,4.773-10.656,10.664
		v80.099c-40.194,27.976-64.005,73.364-64.005,122.551c0,39.904,15.531,77.402,43.733,105.604
		c28.21,28.202,65.708,43.733,105.582,43.733c39.904,0,77.402-15.531,105.589-43.733c28.218-28.202,43.749-65.7,43.749-105.604
		C511.99,297.467,488.178,252.078,447.992,224.103z M362.652,431.993c-47.03,0-85.31-38.28-85.31-85.34
		c0-47.046,38.279-85.317,85.31-85.317c47.061,0,85.34,38.271,85.34,85.317C447.992,393.713,409.713,431.993,362.652,431.993z"/>
	<path fill="#AAB2BC" d="M378.65,463.991c0,5.891-4.765,10.656-10.655,10.656c-5.89,0-10.655-4.766-10.655-10.656
		s4.766-10.655,10.655-10.655C373.886,453.336,378.65,458.101,378.65,463.991z"/>
	<path fill="#AAB2BC" d="M402.447,490.647c1.906-6.688,3.266-14.984,3.266-25.062c0-17.312-4.062-31.873-7.641-41.295
		c-6.422,2.938-13.266,5.109-20.422,6.391c2.938,7.438,6.75,19.968,6.75,34.904c0,16.078-4.312,25.516-6.828,29.672
		C386.041,494.429,394.354,492.882,402.447,490.647z"/>
	<path fill="#E6E9ED" d="M234.665,224.103v-80.099c0-5.891-4.773-10.664-10.664-10.664H74.671c-5.891,0-10.664,4.773-10.664,10.664
		v80.099C23.821,252.078,0.01,297.467,0.01,346.653c0,39.904,15.531,77.402,43.741,105.604
		c28.202,28.202,65.7,43.733,105.589,43.733c39.881,0,77.388-15.531,105.59-43.733c28.194-28.202,43.726-65.7,43.726-105.604
		C298.655,297.467,274.843,252.078,234.665,224.103z M149.34,431.993c-47.053,0-85.333-38.28-85.333-85.34
		c0-47.046,38.28-85.317,85.333-85.317c47.045,0,85.325,38.271,85.325,85.317C234.665,393.713,196.385,431.993,149.34,431.993z"/>
	<path fill="#CCD1D9" d="M165.339,463.991c0,5.891-4.781,10.656-10.671,10.656c-5.891,0-10.664-4.766-10.664-10.656
		s4.773-10.655,10.664-10.655C160.558,453.336,165.339,458.101,165.339,463.991z"/>
	<path fill="#434A54" d="M383.994,208.002c0,11.78-9.562,21.335-21.342,21.335s-21.312-9.555-21.312-21.335
		c0-11.781,9.531-21.335,21.312-21.335S383.994,196.221,383.994,208.002z"/>
	<path fill="#656D78" d="M373.339,177.839v-12.5c0-5.89-4.781-10.671-10.687-10.671c-5.875,0-10.655,4.781-10.655,10.671v12.5
		c-12.406,4.398-21.344,16.257-21.344,30.163c0,17.647,14.375,31.998,31.999,31.998c17.654,0,31.998-14.351,31.998-31.998
		C394.65,194.096,385.744,182.237,373.339,177.839z M362.652,218.665c-5.875,0-10.655-4.781-10.655-10.663
		c0-5.883,4.78-10.664,10.655-10.664c5.89,0,10.687,4.781,10.687,10.664C373.339,213.884,368.542,218.665,362.652,218.665z"/>
	<path fill="#434A54" d="M170.667,208.002c0,11.78-9.547,21.335-21.328,21.335s-21.335-9.555-21.335-21.335
		c0-11.781,9.554-21.335,21.335-21.335S170.667,196.221,170.667,208.002z"/>
	<path fill="#656D78" d="M160.004,177.839v-12.5c0-5.89-4.773-10.671-10.664-10.671c-5.89,0-10.671,4.781-10.671,10.671v12.5
		c-12.414,4.398-21.327,16.257-21.327,30.163c0,17.647,14.351,31.998,31.999,31.998c17.64,0,31.999-14.351,31.999-31.998
		C181.339,194.096,172.417,182.237,160.004,177.839z M149.34,218.665c-5.882,0-10.671-4.781-10.671-10.663
		c0-5.883,4.789-10.664,10.671-10.664c5.875,0,10.664,4.781,10.664,10.664C160.004,213.884,155.215,218.665,149.34,218.665z"/>
	<path fill="#4A89DC" d="M245.336,16.431v53.615c3.508-0.46,7.062-0.702,10.664-0.702c3.616,0,7.179,0.242,10.663,0.71V16.438
		c-3.516-0.281-7.07-0.43-10.663-0.43C252.422,16.009,248.867,16.157,245.336,16.431z"/>
	<path fill="#4A89DC" d="M207.119,85.998c5.688-4.405,11.89-7.991,18.46-10.687l-26.827-46.459
		c-6.406,3.055-12.569,6.625-18.452,10.703L207.119,85.998z"/>
	<path fill="#4A89DC" d="M135.52,92.1l46.459,26.819c2.695-6.57,6.281-12.773,10.687-18.46L146.215,73.64
		C142.145,79.522,138.575,85.686,135.52,92.1z"/>
	<path fill="#4A89DC" d="M319.294,100.475c4.344,5.616,7.953,11.812,10.703,18.46l46.419-26.804
		c-3.077-6.453-6.671-12.624-10.702-18.452L319.294,100.475z"/>
	<path fill="#4A89DC" d="M304.857,86.037l26.796-46.419c-5.812-4.031-12-7.617-18.437-10.695l-26.812,46.428
		C293.062,78.093,299.249,81.702,304.857,86.037z"/>
	<path fill="#CCD1D9" d="M189.127,490.647c1.898-6.688,3.273-14.984,3.273-25.062c0-17.312-4.086-31.873-7.656-41.295
		c-6.422,2.938-13.265,5.109-20.414,6.391c2.93,7.438,6.734,19.968,6.734,34.904c0,16.078-4.297,25.516-6.82,29.672
		C172.714,494.429,181.026,492.882,189.127,490.647z"/>
</g>
</svg>
