<?xml version="1.0" encoding="utf-8"?>
<!-- Generator: Adobe Illustrator 16.0.0, SVG Export Plug-In . SVG Version: 6.00 Build 0)  -->
<!DOCTYPE svg PUBLIC "-//W3C//DTD SVG 1.1//EN" "http://www.w3.org/Graphics/SVG/1.1/DTD/svg11.dtd">
<svg version="1.1" id="Layer_1" xmlns="http://www.w3.org/2000/svg" xmlns:xlink="http://www.w3.org/1999/xlink" x="0px" y="0px"
	 width="512px" height="512px" viewBox="0 0 512 512" enable-background="new 0 0 512 512" xml:space="preserve">
<g id="judge_hammer">
	<path fill="#656D78" d="M288.017,367.14H32.011c-5.891,0-10.672,4.781-10.672,10.671v31.998c0,5.891,4.781,10.656,10.672,10.656
		h256.005c5.891,0,10.656-4.766,10.656-10.656v-31.998C298.673,371.921,293.907,367.14,288.017,367.14z"/>
	<g>
		<g>
			<path fill="#965353" d="M478.931,452.339L478.931,452.339c-6.922-0.219-13.452-2.625-18.874-6.953L243.19,272.533
				c-4.609-3.671-5.359-10.382-1.688-14.983l26.592-33.366c1.75-2.211,4.328-3.641,7.141-3.953s5.625,0.492,7.844,2.258
				l216.866,172.852c13.797,10.983,16.078,31.171,5.078,44.968C498.758,448.183,488.992,452.683,478.931,452.339z"/>
		</g>
		<g>
			<path fill="#7F4545" d="M319.233,156.132L319.233,156.132l-79.246-63.154c-4.594-3.68-11.312-2.914-14.984,1.688
				c-2.938,3.687-3.031,8.718-0.609,12.468c-0.312,0.891-1.125,2.539-3.109,5.031s-3.406,3.641-4.203,4.156
				c-4.203-1.539-9.078-0.312-12.015,3.367c-3.671,4.609-2.922,11.32,1.688,14.991c0,0,0,0.008,0.016,0.008l79.216,63.138
				c0,0,0,0.008,0.016,0.016c1.859,1.484,4.062,2.242,6.281,2.312c0.109,0.008,0.203,0.008,0.312,0.008
				c5.75,0.039,10.53-4.523,10.718-10.312c0.078-2.273-0.562-4.406-1.719-6.179c0.328-0.891,1.125-2.546,3.109-5.023
				c1.984-2.492,3.422-3.641,4.203-4.156c4.203,1.539,9.093,0.32,12.03-3.367C324.593,166.515,323.843,159.804,319.233,156.132z
				 M220.05,118.001L220.05,118.001c-0.172-0.141-0.359-0.273-0.547-0.406C219.753,117.759,219.941,117.907,220.05,118.001z
				 M305.938,172.819c0.188,0.141,0.359,0.273,0.547,0.398C306.25,173.054,306.062,172.905,305.938,172.819z"/>
			<path fill="#7F4545" d="M219.519,281.252c-0.016,0-0.016-0.016-0.016-0.016l-79.215-63.13c-0.016-0.008-0.016-0.008-0.016-0.016
				c-4.609-3.664-11.312-2.906-14.984,1.695c-2.938,3.688-3.047,8.719-0.609,12.469c-0.328,0.891-1.125,2.539-3.109,5.031
				c-1.984,2.492-3.421,3.641-4.218,4.156c-4.188-1.539-9.078-0.32-12.016,3.367c-3.671,4.609-2.906,11.32,1.703,14.992
				c0,0.008,0,0.016,0.016,0.016l79.216,63.123c0,0.016,0,0.016,0,0.016c1.875,1.484,4.078,2.25,6.296,2.328
				c0.094,0,0.203,0,0.297,0c5.765,0.031,10.546-4.516,10.733-10.312c0.078-2.281-0.562-4.406-1.734-6.188
				c0.328-0.891,1.14-2.547,3.109-5.016c1.984-2.5,3.422-3.641,4.219-4.156c4.188,1.531,9.078,0.312,12.015-3.375
				C224.878,291.627,224.128,284.924,219.519,281.252z M120.32,243.121L120.32,243.121c-0.172-0.141-0.344-0.281-0.531-0.406
				C120.023,242.879,120.21,243.027,120.32,243.121z M206.223,297.923v0.016c0.172,0.125,0.344,0.266,0.531,0.391
				C206.52,298.173,206.332,298.017,206.223,297.923z"/>
		</g>
		<polygon fill="#7F4545" points="285.095,305.923 324.983,255.886 308.297,242.59 268.407,292.627 		"/>
		<polygon fill="#7F4545" points="451.916,438.887 491.805,388.841 475.118,375.545 435.229,425.59 		"/>
		<path fill="#A85D5D" d="M313.671,196.607c-0.327-2.804-1.733-5.375-3.952-7.14l-100.09-79.778
			c-2.219-1.766-5.047-2.578-7.843-2.258c-2.812,0.32-5.391,1.742-7.156,3.953l-79.778,100.098c-1.75,2.211-2.578,5.031-2.25,7.843
			c0.312,2.812,1.734,5.383,3.953,7.141l100.089,79.77c1.859,1.484,4.078,2.25,6.281,2.328c3.266,0.109,6.516-1.281,8.703-4.016
			l79.778-100.089C313.172,202.248,313.983,199.419,313.671,196.607z"/>
		<path fill="#7F4545" d="M214.551,165.327c-23.515-0.781-43.279,17.71-44.061,41.225s17.718,43.279,41.232,44.061
			c23.515,0.773,43.28-17.718,44.061-41.233C256.549,185.866,238.065,166.101,214.551,165.327z"/>
		<path fill="#A85D5D" d="M223.8,208.318c-0.203,5.89-5.125,10.507-11.015,10.312c-5.891-0.195-10.5-5.132-10.312-11.015
			c0.188-5.891,5.125-10.508,11.016-10.312C219.378,197.498,223.988,202.435,223.8,208.318z"/>
		<g>
			<path fill="#A85D5D" d="M360.201,138.219c-0.312-2.812-1.734-5.383-3.953-7.14L256.159,51.3
				c-2.219-1.766-5.031-2.578-7.844-2.258c-2.812,0.32-5.375,1.742-7.14,3.953l-26.593,33.366c-1.766,2.211-2.578,5.031-2.266,7.844
				s1.734,5.382,3.953,7.14l100.089,79.779c1.875,1.484,4.078,2.25,6.297,2.32c3.25,0.109,6.516-1.273,8.703-4.015l26.593-33.366
				C359.717,143.852,360.529,141.031,360.201,138.219z"/>
			<path fill="#A85D5D" d="M210.004,314.579l-100.105-79.77c-2.203-1.766-5.031-2.578-7.843-2.258
				c-2.812,0.32-5.375,1.742-7.141,3.953L68.322,269.87c-3.672,4.601-2.922,11.304,1.688,14.976l100.105,79.778
				c1.859,1.484,4.062,2.25,6.281,2.328c3.25,0.109,6.516-1.281,8.703-4.016l26.592-33.358c1.766-2.218,2.578-5.046,2.25-7.858
				C213.629,318.907,212.207,316.345,210.004,314.579z"/>
		</g>
	</g>
	<path fill="#ED5564" d="M309.344,399.028H10.684c-5.89,0-10.671,4.78-10.671,10.671v42.655c0,5.89,4.781,10.671,10.671,10.671
		h298.66c5.89,0,10.671-4.781,10.671-10.671v-42.655C320.015,403.809,315.233,399.028,309.344,399.028z"/>
	<path fill="#434A54" d="M234.69,366.952c0,0.062-0.016,0.125-0.016,0.188v10.671c0,5.891,4.781,10.655,10.671,10.655
		c5.891,0,10.656-4.765,10.656-10.655V367.14c0-0.062,0-0.125,0-0.188H234.69z"/>
	<path fill="#434A54" d="M192.021,366.952c0,0.062-0.016,0.125-0.016,0.188v10.671c0,5.891,4.781,10.655,10.671,10.655
		c5.891,0,10.672-4.765,10.672-10.655V367.14c0-0.062-0.016-0.125-0.016-0.188H192.021z"/>
	<path fill="#434A54" d="M149.35,366.952c0,0.062,0,0.125,0,0.188v10.671c0,5.891,4.766,10.655,10.656,10.655
		c5.89,0,10.671-4.765,10.671-10.655V367.14c0-0.062-0.016-0.125-0.016-0.188H149.35z"/>
	<path fill="#434A54" d="M106.695,366.952c-0.016,0.062-0.016,0.125-0.016,0.188v10.671c0,5.891,4.781,10.655,10.672,10.655
		c5.89,0,10.656-4.765,10.656-10.655V367.14c0-0.062,0-0.125,0-0.188H106.695z"/>
	<path fill="#434A54" d="M64.025,366.952c0,0.062-0.016,0.125-0.016,0.188v10.671c0,5.891,4.781,10.655,10.672,10.655
		c5.89,0,10.671-4.765,10.671-10.655V367.14c0-0.062-0.015-0.125-0.015-0.188H64.025z"/>
</g>
</svg>
