<?xml version="1.0" encoding="utf-8"?>
<!-- Generator: Adobe Illustrator 16.0.0, SVG Export Plug-In . SVG Version: 6.00 Build 0)  -->
<!DOCTYPE svg PUBLIC "-//W3C//DTD SVG 1.1//EN" "http://www.w3.org/Graphics/SVG/1.1/DTD/svg11.dtd">
<svg version="1.1" id="Layer_1" xmlns="http://www.w3.org/2000/svg" xmlns:xlink="http://www.w3.org/1999/xlink" x="0px" y="0px"
	 width="512px" height="512px" viewBox="0 0 512 512" enable-background="new 0 0 512 512" xml:space="preserve">
<g id="judge">
	<g>
		<path fill="#434A54" d="M460.289,386.306l-1.812-0.531c-26.484-7.109-35.437-13.937-47.233-18.421
			c-41.811-15.938-52.685-27.405-55.466-32.827c-0.109-0.203-0.188-0.406-0.266-0.609H156.488c-0.078,0.203-0.156,0.406-0.266,0.609
			c-2.781,5.422-13.655,16.89-55.467,32.827c-11.796,4.484-20.749,11.312-47.232,18.421l-1.812,0.531
			C27.618,394.273,11.4,416.632,11.4,441.851v70.138H256h244.6v-70.138C500.6,416.632,484.396,394.273,460.289,386.306z"/>
	</g>
	<polygon fill="#CCD1D9" points="284.89,332.245 188.19,368.4 168.191,390.93 256.203,503.926 338.075,373.009 	"/>
	<polygon fill="#DA4453" points="278.952,405.288 234.657,405.288 222.626,471.614 253.766,506.52 289.78,468.067 	"/>
	<path fill="#E6E9ED" d="M320.013,399.148l40.53-58.653c-2.562-2.438-3.984-4.453-4.766-5.969c-0.109-0.203-0.188-0.406-0.266-0.609
		l-0.343-48.561L256,284.231l-99.168,1.125l-0.344,48.561c-0.078,0.203-0.156,0.406-0.266,0.609
		c-1.688,3.297-6.391,8.844-19.249,16.28l26.765,43.232l28.374,5.109l64.7-46.764L320.013,399.148z"/>
	<path fill="#ED5564" d="M284.812,359.963c-2.047-2.016-4.812-3.109-7.672-3.047l-42.686,0.812
		c-5.812,0.109-10.469,4.859-10.469,10.672v36.888c0,5.891,4.781,10.672,10.672,10.672h42.686c5.891,0,10.672-4.781,10.672-10.672
		v-37.716C288.015,364.713,286.858,361.963,284.812,359.963z"/>
	<path fill="#656D78" d="M360.543,340.495l-103.73,150.15L150.957,340.964c-5.046,4.641-14.155,10.812-30.577,18.265l108.027,152.76
		H256h27.968L389.822,358.4C373.995,351.072,365.308,345.026,360.543,340.495z"/>
	<g>
		<path fill="#EAC6BB" d="M393.604,191.376c0,89.402-85.23,171.681-137.604,171.681s-137.604-82.278-137.604-171.681
			c0-89.403,61.606-148.385,137.604-148.385S393.604,101.973,393.604,191.376z"/>
	</g>
	<g>
		<path fill="#CCD1D9" d="M170.535,272.106c-5.344,10.344-9.047,20.718-9.047,29.562c0,31.483,75.122,82.372,94.512,82.685
			c19.39-0.312,94.513-51.201,94.513-82.685c0-9.03-3.875-19.671-9.406-30.232C327.31,245.03,184.253,245.475,170.535,272.106z"/>
	</g>
	<g>
		<path fill="#E6E9ED" d="M334.013,229.593c15.016-4.609,28.421,6.172,11.141,15.483c-34.843,18.812-61.076-51.904-90.591-14.952
			s17.515,74.184,59.622,70.309c114.558-10.53,66.091-89.199,44.39-88.535C341.981,212.398,334.013,229.593,334.013,229.593z"/>
	</g>
	<g>
		<path fill="#E6E9ED" d="M177.987,229.593c-15.015-4.609-28.421,6.172-11.14,15.483c34.842,18.812,61.075-51.904,90.59-14.952
			s-17.515,74.184-59.623,70.309c-114.558-10.53-66.091-89.199-44.389-88.535C170.02,212.398,177.987,229.593,177.987,229.593z"/>
	</g>
	<g>
		<path fill="#E6E9ED" d="M341.122,28.429c-23.406-21.194-104.684-51.639-180.087,0c-59.451,40.726-53.451,143.424-53.451,143.424
			s78.028,19.71,167.384-31.343c57.764-33.007,77.904,0.555,88.247,29.788c10.077,28.452,30.389,21.265,30.389,21.265
			S415.993,96.216,341.122,28.429z"/>
	</g>
	<path fill="#CCD1D9" d="M315.294,126.886c8.172-0.25,15.016,1.547,20.812,4.75c11.094-40.264,32.951-51.092,42.497-53.951
		c-3.125-6.257-6.733-12.522-10.905-18.726C352.091,65.1,327.435,81.794,315.294,126.886z"/>
</g>
</svg>
