<?xml version="1.0" encoding="utf-8"?>
<!-- Generator: Adobe Illustrator 16.0.0, SVG Export Plug-In . SVG Version: 6.00 Build 0)  -->
<!DOCTYPE svg PUBLIC "-//W3C//DTD SVG 1.1//EN" "http://www.w3.org/Graphics/SVG/1.1/DTD/svg11.dtd">
<svg version="1.1" id="Layer_1" xmlns="http://www.w3.org/2000/svg" xmlns:xlink="http://www.w3.org/1999/xlink" x="0px" y="0px"
	 width="512px" height="512px" viewBox="0 0 512 512" enable-background="new 0 0 512 512" xml:space="preserve">
<g id="key_card">
	<path fill="#ED5564" d="M479.991,85.347H32.009c-17.64,0-31.999,14.351-31.999,31.999v277.309
		c0,17.655,14.359,31.999,31.999,31.999h447.982c17.655,0,31.999-14.344,31.999-31.999V117.346
		C511.99,99.697,497.646,85.347,479.991,85.347z"/>
	<path fill="#F6BB42" d="M424.868,271.418l-21.327-31.999c-1.969-2.961-5.312-4.75-8.875-4.75H181.347
		c-5.891,0-10.671,4.781-10.671,10.671v85.317c0,5.906,4.781,10.688,10.671,10.688h106.652c2.844,0,5.547-1.125,7.547-3.125
		l13.796-13.796l13.78,13.796c4.172,4.156,10.922,4.156,15.094,0l13.781-13.796l13.795,13.796c2.078,2.062,4.812,3.125,7.547,3.125
		c2.733,0,5.452-1.062,7.546-3.125l21.328-21.343c0.5-0.5,0.938-1.031,1.328-1.625l21.327-31.999
		C427.258,279.659,427.258,275.003,424.868,271.418z"/>
	<path fill="#656D78" d="M511.99,160.008v-42.662c0-17.648-14.344-31.999-31.999-31.999H32.009
		c-17.64,0-31.999,14.351-31.999,31.999v42.662H511.99z"/>
	<polygon fill="#434A54" points="16.931,160.008 47.102,160.008 121.771,85.347 91.6,85.347 	"/>
	<polygon fill="#434A54" points="80.929,160.008 111.099,160.008 185.769,85.347 155.598,85.347 	"/>
	<polygon fill="#434A54" points="144.926,160.008 175.097,160.008 249.766,85.347 219.595,85.347 	"/>
	<polygon fill="#434A54" points="208.923,160.008 239.094,160.008 313.763,85.347 283.593,85.347 	"/>
	<polygon fill="#434A54" points="272.921,160.008 303.092,160.008 377.76,85.347 347.591,85.347 	"/>
	<polygon fill="#434A54" points="336.919,160.008 367.089,160.008 441.758,85.347 411.587,85.347 	"/>
	<path opacity="0.1" d="M196.861,277.347c0,5.875,4.781,10.656,10.671,10.656h214.179l3.156-4.75c2.39-3.594,2.39-8.25,0-11.835
		l-3.156-4.75H207.533C201.643,266.668,196.861,271.449,196.861,277.347z"/>
	<path fill="#434A54" d="M475.585,85.347l-74.669,74.661h30.17l68.186-68.185c-5.359-4.062-12.047-6.477-19.28-6.477H475.585z"/>
	<path fill="#FFCE54" d="M181.347,202.67c-47.061,0-85.341,38.28-85.341,85.333c0,47.061,38.28,85.34,85.341,85.34
		c47.045,0,85.324-38.279,85.324-85.34C266.671,240.95,228.392,202.67,181.347,202.67z M149.348,298.658
		c-5.89,0-10.671-4.766-10.671-10.655c0-5.891,4.781-10.656,10.671-10.656c5.891,0,10.656,4.766,10.656,10.656
		C160.004,293.893,155.238,298.658,149.348,298.658z"/>
</g>
</svg>
