<?xml version="1.0" encoding="utf-8"?>
<!-- Generator: Adobe Illustrator 16.0.0, SVG Export Plug-In . SVG Version: 6.00 Build 0)  -->
<!DOCTYPE svg PUBLIC "-//W3C//DTD SVG 1.1//EN" "http://www.w3.org/Graphics/SVG/1.1/DTD/svg11.dtd">
<svg version="1.1" id="Layer_1" xmlns="http://www.w3.org/2000/svg" xmlns:xlink="http://www.w3.org/1999/xlink" x="0px" y="0px"
	 width="512px" height="512px" viewBox="0 0 512 512" enable-background="new 0 0 512 512" xml:space="preserve">
<g id="lawyer">
	<g>
		<path fill="#434A54" d="M432.746,386.356l-1.812-0.516c-26.467-7.109-14.093-13.937-25.873-18.421
			c-41.811-15.938-52.685-27.405-55.466-32.827c-0.094-0.188-0.156-0.406-0.25-0.609H150.391c-0.094,0.203-0.172,0.422-0.266,0.609
			c-2.781,5.422-13.656,16.89-55.451,32.827c-11.78,4.484-20.733,11.312-47.201,18.421l-1.828,0.516
			C21.552,394.324,5.35,416.667,5.35,441.886v70.106h244.506h223.202v-70.106C473.058,416.667,456.84,394.324,432.746,386.356z"/>
	</g>
	<polygon fill="#CCD1D9" points="292.347,322.156 207.888,309.266 172.343,384.372 250.668,511.992 327.97,394.668 	"/>
	<polygon fill="#DA4453" points="272.815,394.668 228.528,394.668 214.623,447.994 250.668,511.992 286.159,447.994 	"/>
	<path fill="#ED5564" d="M280.284,361.357l-24.616-40.326c-2.078-3.391-5.875-5.359-9.859-5.078
		c-3.968,0.281-7.453,2.75-9.031,6.406l-18.031,41.623c-0.578,1.344-0.891,2.781-0.891,4.234v26.451
		c0,5.891,4.781,10.655,10.672,10.655h42.67c5.898,0,10.648-4.765,10.648-10.655V366.92
		C281.847,364.951,281.315,363.029,280.284,361.357z"/>
	<path fill="#E6E9ED" d="M175.952,393.152l74.716-40.701l78.677,42.951c0,0,21.75-57.888,20.25-60.81
		c-0.094-0.188-0.156-0.406-0.25-0.609l-0.344-48.545l-99.146-1.125l-99.121,1.125l-0.344,48.545
		c-0.094,0.203-0.172,0.422-0.266,0.609C148.828,337.124,175.952,393.152,175.952,393.152z"/>
	<g>
		<path fill="#EAC6BB" d="M387.404,191.488c0,89.372-85.184,171.619-137.549,171.619c-52.342,0-137.542-82.247-137.542-171.619
			c0-89.371,61.592-148.322,137.542-148.322C325.813,43.166,387.404,102.117,387.404,191.488z"/>
	</g>
	<g>
		<path fill="#965353" d="M334.97,28.417c-23.405-21.187-104.676-51.623-180.032,0c-59.436,40.718-53.436,143.369-53.436,143.369
			s77.997,19.702,167.321-31.327c57.74-32.999,77.865,0.562,88.208,29.78c10.093,28.437,30.373,21.249,30.373,21.249
			S409.811,96.18,334.97,28.417z"/>
	</g>
	<path fill="#7F4242" d="M309.127,126.835c8.187-0.25,15.03,1.547,20.812,4.75c11.094-40.249,32.937-51.076,42.467-53.936
		c-3.094-6.25-6.719-12.515-10.874-18.718C345.907,65.072,321.282,81.759,309.127,126.835z"/>
	<g>
		<polygon fill="#656D78" points="250.668,511.992 150.391,333.983 122.673,367.764 155.234,392.762 149.406,416.761 		"/>
		<polygon fill="#656D78" points="250.668,511.992 349.345,333.983 378.436,367.764 345.907,392.762 351.72,416.761 		"/>
	</g>
	<path fill="#FFCE54" d="M503.557,366.279l-53.311-53.795c-2-2.016-4.75-3.156-7.594-3.156h-74.653
		c-5.905,0-10.655,4.781-10.655,10.672v181.32c0,5.891,4.75,10.672,10.655,10.672h127.995c5.906,0,10.656-4.781,10.656-10.672
		V373.778C506.65,370.967,505.557,368.264,503.557,366.279z"/>
	<path fill="#F6BB42" d="M450.246,312.484c-2-2.016-4.75-3.156-7.594-3.156v64.45h63.998c0-2.812-1.094-5.515-3.094-7.499
		L450.246,312.484z"/>
</g>
</svg>
