<?xml version="1.0" encoding="utf-8"?>
<!-- Generator: Adobe Illustrator 16.0.0, SVG Export Plug-In . SVG Version: 6.00 Build 0)  -->
<!DOCTYPE svg PUBLIC "-//W3C//DTD SVG 1.1//EN" "http://www.w3.org/Graphics/SVG/1.1/DTD/svg11.dtd">
<svg version="1.1" id="Layer_1" xmlns="http://www.w3.org/2000/svg" xmlns:xlink="http://www.w3.org/1999/xlink" x="0px" y="0px"
	 width="512px" height="512px" viewBox="0 0 512 512" enable-background="new 0 0 512 512" xml:space="preserve">
<g id="offenders_database">
	<g>
		<path fill="#FC6E51" d="M21.337,394.646c-5.89,0-10.671-4.781-10.671-10.655V63.996c0-5.875,4.781-10.656,10.671-10.656h469.31
			c5.875,0,10.672,4.781,10.672,10.656v319.995c0,5.874-4.797,10.655-10.672,10.655H21.337z"/>
		<path fill="#E6E9ED" d="M490.646,42.669H21.337c-11.781,0-21.327,9.546-21.327,21.327v319.995c0,11.78,9.546,21.342,21.327,21.342
			h469.31c11.781,0,21.344-9.562,21.344-21.342V63.996C511.99,52.215,502.428,42.669,490.646,42.669z M490.646,383.991H21.337
			V63.996h469.31V383.991z"/>
		<g>
			<polygon fill="#CCD1D9" points="341.325,469.331 170.66,469.331 191.94,384.085 320.013,384.054 			"/>
		</g>
		<rect x="15.947" y="341.337" fill="#E6E9ED" width="480.09" height="61.027"/>
		<path fill="#434A54" d="M266.655,373.335c0,5.875-4.781,10.656-10.655,10.656c-5.906,0-10.672-4.781-10.672-10.656
			c0-5.905,4.766-10.687,10.672-10.687C261.874,362.648,266.655,367.43,266.655,373.335z"/>
		<path fill="#E6E9ED" d="M341.325,447.988H170.66c-5.891,0-10.656,4.781-10.656,10.655c0,5.906,4.765,10.688,10.656,10.688h170.666
			c5.891,0,10.672-4.781,10.672-10.688C351.997,452.77,347.216,447.988,341.325,447.988z"/>
	</g>
	<g>
		<path fill="#E9573F" d="M278.187,277.339H53.336c-5.89,0-10.671-4.781-10.671-10.679c0-5.891,4.781-10.672,10.671-10.672h224.851
			c5.891,0,10.656,4.781,10.656,10.672C288.843,272.558,284.077,277.339,278.187,277.339z"/>
	</g>
	<g>
		<path fill="#E9573F" d="M278.187,234.661H53.336c-5.89,0-10.671-4.781-10.671-10.672s4.781-10.655,10.671-10.655h224.851
			c5.891,0,10.656,4.765,10.656,10.655S284.077,234.661,278.187,234.661z"/>
	</g>
	<g>
		<path fill="#E9573F" d="M278.187,191.991H53.336c-5.89,0-10.671-4.766-10.671-10.656c0-5.89,4.781-10.671,10.671-10.671h224.851
			c5.891,0,10.656,4.781,10.656,10.671C288.843,187.226,284.077,191.991,278.187,191.991z"/>
	</g>
	<g>
		<path fill="#E9573F" d="M278.187,149.337H53.336c-5.89,0-10.671-4.781-10.671-10.672s4.781-10.672,10.671-10.672h224.851
			c5.891,0,10.656,4.781,10.656,10.672S284.077,149.337,278.187,149.337z"/>
	</g>
	<g>
		<path fill="#434A54" d="M447.992,149.337H319.997c-5.906,0-10.671-4.781-10.671-10.672s4.765-10.672,10.671-10.672h127.995
			c5.891,0,10.656,4.781,10.656,10.672S453.883,149.337,447.992,149.337z"/>
	</g>
	<g>
		<path fill="#434A54" d="M447.992,191.991H319.997c-5.906,0-10.671-4.766-10.671-10.656c0-5.89,4.765-10.671,10.671-10.671h127.995
			c5.891,0,10.656,4.781,10.656,10.671C458.648,187.226,453.883,191.991,447.992,191.991z"/>
	</g>
	<g>
		<path fill="#434A54" d="M447.992,234.661H319.997c-5.906,0-10.671-4.781-10.671-10.672s4.765-10.655,10.671-10.655h127.995
			c5.891,0,10.656,4.765,10.656,10.655S453.883,234.661,447.992,234.661z"/>
	</g>
	<g>
		<path fill="#434A54" d="M447.992,277.339H319.997c-5.906,0-10.671-4.781-10.671-10.679c0-5.891,4.765-10.672,10.671-10.672
			h127.995c5.891,0,10.656,4.781,10.656,10.672C458.648,272.558,453.883,277.339,447.992,277.339z"/>
	</g>
	<g>
		<g>
			<path fill="#FFCE54" d="M267.015,278.495l-0.906-0.25c-13.233-3.562-17.702-6.96-23.592-9.21
				c-20.906-7.969-26.343-13.703-27.733-16.406c-0.047-0.094-0.078-0.203-0.125-0.297l-0.172-24.28l-49.561-0.562l-49.561,0.562
				l-0.172,24.28c-0.047,0.094-0.094,0.203-0.141,0.297c-1.391,2.703-6.828,8.438-27.718,16.406
				c-5.89,2.25-10.375,5.647-23.608,9.21l-0.906,0.25c-12.046,4-20.155,15.155-20.155,27.78v13.719h122.261h122.246v-13.719
				C287.171,293.65,279.062,282.495,267.015,278.495z"/>
		</g>
		<g>
			<path fill="#EAC6BB" d="M233.688,181.086c0,44.685-42.592,85.809-68.763,85.809s-68.779-41.124-68.779-85.809
				c0-44.687,30.796-74.17,68.779-74.17C202.908,106.916,233.688,136.399,233.688,181.086z"/>
		</g>
		<g>
			<path fill="#965353" d="M200.674,106.916c0,0-1.594-8.031,12.64-16.577c6.031-3.625-90.372-20.812-114.558,40.107
				c-9.093,22.875-2.375,56.561-2.375,56.561l20.953-37.561c0,0,22.843,5.327,47.592,5.327c24.733,0,48.404-5.327,48.404-5.327
				l20.358,31.733c0,0,7.828-30.468-0.938-50.671C223.985,110.307,200.674,106.916,200.674,106.916z"/>
		</g>
	</g>
</g>
</svg>
