<?xml version="1.0" encoding="utf-8"?>
<!-- Generator: Adobe Illustrator 16.0.0, SVG Export Plug-In . SVG Version: 6.00 Build 0)  -->
<!DOCTYPE svg PUBLIC "-//W3C//DTD SVG 1.1//EN" "http://www.w3.org/Graphics/SVG/1.1/DTD/svg11.dtd">
<svg version="1.1" id="Layer_1" xmlns="http://www.w3.org/2000/svg" xmlns:xlink="http://www.w3.org/1999/xlink" x="0px" y="0px"
	 width="512px" height="512px" viewBox="0 0 512 512" enable-background="new 0 0 512 512" xml:space="preserve">
<g id="pepper_spray">
	<path fill="#656D78" d="M277.33,192.002H85.346H74.675v10.664v18.007v280.661c0,5.875,4.781,10.656,10.671,10.656H277.33
		c5.891,0,10.656-4.781,10.656-10.656V220.673v-18.007v-10.664H277.33z"/>
	<g>
		<path fill="#DA4453" d="M138.672,202.666c-5.891,0-10.671-4.773-10.671-10.664v-10.664c0-5.89,4.781-10.671,10.671-10.671
			s10.671,4.781,10.671,10.671v10.664C149.343,197.893,144.562,202.666,138.672,202.666z"/>
	</g>
	<g>
		<path fill="#DA4453" d="M181.342,202.666c-5.891,0-10.671-4.773-10.671-10.664v-10.664c0-5.89,4.781-10.671,10.671-10.671
			s10.656,4.781,10.656,10.671v10.664C191.998,197.893,187.233,202.666,181.342,202.666z"/>
	</g>
	<g>
		<path fill="#DA4453" d="M223.997,202.666c-5.891,0-10.656-4.773-10.656-10.664v-10.664c0-5.89,4.765-10.671,10.656-10.671
			c5.89,0,10.671,4.781,10.671,10.671v10.664C234.668,197.893,229.887,202.666,223.997,202.666z"/>
	</g>
	<g>
		<path fill="#434A54" d="M234.418,298.654H127.75c-5.891,0-10.671-4.766-10.671-10.655c0-5.891,4.781-10.656,10.671-10.656h106.667
			c5.891,0,10.656,4.766,10.656,10.656C245.074,293.889,240.309,298.654,234.418,298.654z"/>
	</g>
	<g>
		<path fill="#434A54" d="M203.372,341.341h-43.185c-5.891,0-10.656-4.781-10.656-10.688c0-5.874,4.766-10.655,10.656-10.655h43.185
			c5.891,0,10.656,4.781,10.656,10.655C214.028,336.56,209.263,341.341,203.372,341.341z"/>
	</g>
	<path fill="#ED5564" d="M277.33,0.01h-42.662c-5.89,0-10.671,4.773-10.671,10.664v10.671h-85.325V10.674
		c0-5.891-4.781-10.664-10.671-10.664H85.346c-5.89,0-10.671,4.773-10.671,10.664v181.329h213.312V10.674
		C287.986,4.783,283.221,0.01,277.33,0.01z"/>
	<rect x="138.672" y="21.345" fill="#DA4453" width="85.325" height="117.324"/>
	<path fill="#434A54" d="M202.669,74.671c0,11.78-9.546,21.335-21.327,21.335S160,86.452,160,74.671
		c0-11.781,9.562-21.328,21.343-21.328S202.669,62.891,202.669,74.671z"/>
	<path fill="#656D78" d="M181.342,106.669c-17.656,0-31.999-14.351-31.999-31.998c0-17.64,14.343-31.999,31.999-31.999
		c17.64,0,31.999,14.359,31.999,31.999C213.341,92.319,198.982,106.669,181.342,106.669z M181.342,64.008
		c-5.891,0-10.671,4.789-10.671,10.664c0,5.882,4.781,10.671,10.671,10.671c5.875,0,10.656-4.789,10.656-10.671
		C191.998,68.797,187.217,64.008,181.342,64.008z"/>
	<path opacity="0.1" fill="#FFFFFF" d="M85.346,501.334V220.673v-18.007v-10.664V10.674c0-5.891,4.766-10.664,10.656-10.664H85.346
		c-5.89,0-10.671,4.773-10.671,10.664v181.329v10.664v18.007v280.661c0,5.875,4.781,10.656,10.671,10.656h10.656
		C90.111,511.99,85.346,507.209,85.346,501.334z"/>
	<path opacity="0.1" fill="#FFFFFF" d="M277.33,501.334V220.673v-18.007v-10.664V10.674c0-5.891-4.781-10.664-10.664-10.664h10.664
		c5.891,0,10.656,4.773,10.656,10.664v181.329v10.664v18.007v280.661c0,5.875-4.766,10.656-10.656,10.656h-10.664
		C272.549,511.99,277.33,507.209,277.33,501.334z"/>
	<g>
		<path fill="#8CC153" d="M380.075,436.556c-3.938,0-7.718-2.188-9.577-5.953c-2.609-5.281-0.438-11.672,4.843-14.281
			c20.344-10.047,36.983-37.764,41.687-47.591c2.547-5.312,8.905-7.562,14.218-5.016c5.328,2.531,7.578,8.905,5.031,14.218
			c-0.828,1.719-20.421,42.154-51.482,57.514C383.263,436.196,381.653,436.556,380.075,436.556z"/>
	</g>
	<path fill="#ED5564" d="M386.7,416.774c-4.234-5.672-13.077-15.406-24.576-17.015c-0.75-0.109-1.531-0.156-2.312-0.156
		c-7.015,0-13.64,4.093-22.796,9.765c-15.531,9.594-38.982,24.094-74.334,24.094c-36.513,0-76.558-12.812-100.495-20.469
		c-12.937-4.141-18.343-5.812-22.405-5.812c-7.062,0-11,5-11.656,9.641c-0.266,1.828-0.812,5.672,5.828,17.609
		c3.031,5.469,8.391,13.983,16.671,23.545c13.093,15.109,28.655,27.344,46.232,36.391c22.733,11.687,48.248,17.624,75.817,17.624
		c44.217,0,77.904-8.812,100.137-26.155c18.093-14.125,24.515-31.296,24.515-41.702C397.325,435.774,393.45,425.79,386.7,416.774z"
		/>
	<path opacity="0.2" fill="#FFFFFF" d="M372.811,475.163c-22.232,17.359-55.92,26.171-100.137,26.171
		c-27.569,0-53.083-5.937-75.817-17.64c-17.577-9.047-33.139-21.297-46.232-36.39c-8.281-9.562-13.64-18.062-16.671-23.53
		c-2.468-4.438-3.937-7.75-4.796-10.25c-0.531,1.062-0.875,2.188-1.031,3.297c-0.266,1.828-0.812,5.672,5.828,17.609
		c3.031,5.469,8.391,13.983,16.671,23.545c13.093,15.109,28.655,27.344,46.232,36.391c22.733,11.687,48.248,17.624,75.817,17.624
		c44.217,0,77.904-8.812,100.137-26.155c18.093-14.125,24.515-31.296,24.515-41.702c0-1.702-0.172-3.499-0.484-5.327
		C395.044,449.148,388.075,463.241,372.811,475.163z"/>
</g>
</svg>
