<?xml version="1.0" encoding="utf-8"?>
<!-- Generator: Adobe Illustrator 16.0.0, SVG Export Plug-In . SVG Version: 6.00 Build 0)  -->
<!DOCTYPE svg PUBLIC "-//W3C//DTD SVG 1.1//EN" "http://www.w3.org/Graphics/SVG/1.1/DTD/svg11.dtd">
<svg version="1.1" id="Layer_1" xmlns="http://www.w3.org/2000/svg" xmlns:xlink="http://www.w3.org/1999/xlink" x="0px" y="0px"
	 width="512px" height="512px" viewBox="0 0 512 512" enable-background="new 0 0 512 512" xml:space="preserve">
<g id="police_baton">
	<path fill="#434A54" d="M269.593,430.976L175.3,336.698c-2-2-4.703-3.125-7.531-3.125s-5.547,1.125-7.547,3.125l-22.624,22.624
		c-4.172,4.172-4.172,10.922,0,15.093l94.277,94.277l0,0l0,0c5.031,5.031,11.734,7.812,18.859,7.812
		c7.124,0,13.812-2.781,18.858-7.812C279.983,458.302,279.983,441.382,269.593,430.976z"/>
	<path fill="#656D78" d="M511.99,32.007c0-8.547-3.328-16.585-9.359-22.624l0,0c-6.047-6.047-14.094-9.375-22.64-9.375
		c-8.547,0-16.577,3.328-22.624,9.375L9.369,457.38c-6.031,6.047-9.359,14.078-9.359,22.625s3.328,16.578,9.359,22.624
		c12.484,12.483,32.78,12.483,45.264,0L502.631,54.631C508.662,48.593,511.99,40.554,511.99,32.007z"/>
	<polygon opacity="0.2" points="205.47,442.304 220.563,457.38 258.28,419.663 243.188,404.585 	"/>
	<polygon opacity="0.2" points="175.3,412.132 190.393,427.21 228.11,389.492 213.017,374.415 	"/>
	<path fill="#ED5564" d="M152.676,314.074L9.369,457.38c-6.031,6.047-9.359,14.078-9.359,22.625s3.328,16.578,9.359,22.624
		c12.484,12.483,32.78,12.483,45.264,0l143.307-143.307L152.676,314.074z"/>
	<polygon fill="#DA4453" points="16.916,449.834 62.18,495.099 77.257,480.005 32.009,434.757 	"/>
	<polygon fill="#DA4453" points="47.086,419.663 92.334,464.927 107.427,449.834 62.164,404.585 	"/>
	<polygon fill="#DA4453" points="77.257,389.492 122.505,434.757 137.598,419.663 92.334,374.415 	"/>
	<polygon fill="#DA4453" points="107.427,359.322 152.676,404.585 167.769,389.492 122.505,344.245 	"/>
	<path opacity="0.1" fill="#FFFFFF" d="M7.541,487.552c0-8.547,3.328-16.594,9.375-22.625L464.914,16.922
		c6.046-6.039,14.077-9.375,22.623-9.375c6.75,0,13.156,2.078,18.547,5.922c-1.031-1.438-2.188-2.812-3.453-4.086l0,0
		c-6.047-6.047-14.094-9.375-22.64-9.375c-8.547,0-16.577,3.328-22.624,9.375L9.369,457.38c-6.031,6.047-9.359,14.078-9.359,22.625
		s3.328,16.578,9.359,22.624c1.281,1.281,2.656,2.438,4.094,3.453C9.619,500.707,7.541,494.286,7.541,487.552z"/>
</g>
</svg>
