<?xml version="1.0" encoding="utf-8"?>
<!-- Generator: Adobe Illustrator 16.0.0, SVG Export Plug-In . SVG Version: 6.00 Build 0)  -->
<!DOCTYPE svg PUBLIC "-//W3C//DTD SVG 1.1//EN" "http://www.w3.org/Graphics/SVG/1.1/DTD/svg11.dtd">
<svg version="1.1" id="Layer_1" xmlns="http://www.w3.org/2000/svg" xmlns:xlink="http://www.w3.org/1999/xlink" x="0px" y="0px"
	 width="512px" height="512px" viewBox="0 0 512 512" enable-background="new 0 0 512 512" xml:space="preserve">
<g id="police_helmet">
	<path fill="#5D9CEC" d="M469.331,192.002H42.669c-17.641,0-31.999,14.359-31.999,31.999C10.67,241.649,25.028,256,42.669,256
		h426.662c17.624,0,31.999-14.351,31.999-31.999C501.33,206.361,486.955,192.002,469.331,192.002z"/>
	<path fill="#656D78" d="M406.834,62.492C366.554,22.196,312.979,0.01,255.996,0.01s-110.55,22.187-150.838,62.482
		c-40.295,40.287-62.481,93.855-62.481,150.837v160.009c0,5.875,4.773,10.656,10.663,10.656h405.305
		c5.906,0,10.671-4.781,10.671-10.656V213.33C469.315,156.348,447.129,102.779,406.834,62.492z"/>
	<path opacity="0.1" fill="#FFFFFF" d="M406.834,62.492C366.554,22.196,312.979,0.01,255.996,0.01s-110.55,22.187-150.838,62.482
		c-40.295,40.287-62.481,93.855-62.481,150.837v21.335c0-56.982,22.187-110.55,62.481-150.846
		c40.288-40.288,93.855-62.475,150.838-62.475s110.558,22.187,150.838,62.475c40.295,40.295,62.481,93.864,62.481,150.846V213.33
		C469.315,156.348,447.129,102.779,406.834,62.492z"/>
	<path fill="#5D9CEC" d="M405.334,192.002H106.666c-17.64,0-31.998,14.359-31.998,31.999v234.646c0,6.141,2.171,15.25,12.507,23.875
		c7.413,6.172,18.327,11.453,32.428,15.688c30.483,9.14,76.372,13.78,136.394,13.78c60.028,0,105.902-4.641,136.4-13.78
		c14.094-4.234,24.999-9.516,32.421-15.688c10.327-8.625,12.515-17.734,12.515-23.875V224.001
		C437.332,206.361,422.958,192.002,405.334,192.002z"/>
	<path fill="#434A54" d="M42.677,213.33v0.008h426.639v-0.008c0-7.171-0.359-14.289-1.047-21.327H43.724
		C43.028,199.041,42.677,206.158,42.677,213.33z"/>
	<path opacity="0.1" fill="#FFFFFF" d="M254.387,511.99l77.325-298.09h-74.099l-76.536,295.059
		C202.443,510.928,226.927,511.959,254.387,511.99z"/>
</g>
</svg>
