<?xml version="1.0" encoding="utf-8"?>
<!-- Generator: Adobe Illustrator 16.0.0, SVG Export Plug-In . SVG Version: 6.00 Build 0)  -->
<!DOCTYPE svg PUBLIC "-//W3C//DTD SVG 1.1//EN" "http://www.w3.org/Graphics/SVG/1.1/DTD/svg11.dtd">
<svg version="1.1" id="Layer_1" xmlns="http://www.w3.org/2000/svg" xmlns:xlink="http://www.w3.org/1999/xlink" x="0px" y="0px"
	 width="512px" height="512px" viewBox="0 0 512 512" enable-background="new 0 0 512 512" xml:space="preserve">
<g id="policeman_1">
	<g>
		<path fill="#4A89DC" d="M460.152,407.712l-1.812-0.516c-26.469-7.108-35.405-13.921-47.187-18.421
			c-41.795-15.905-52.653-27.373-55.435-32.811c-0.109-0.188-0.188-0.406-0.281-0.594H156.562c-0.086,0.188-0.164,0.406-0.266,0.594
			c-2.781,5.438-13.647,16.905-55.436,32.811c-11.78,4.5-20.726,11.312-47.186,18.421l-1.82,0.516
			c-24.085,7.969-40.287,30.312-40.287,55.529v48.749h244.436h244.428v-48.749C500.432,438.024,484.244,415.681,460.152,407.712z"/>
	</g>
	<polygon fill="#CCD1D9" points="253.34,389.166 184.257,427.821 256.004,511.99 324.657,415.149 	"/>
	<path fill="#E6E9ED" d="M320.298,448.805l37.577-89.652c-1.016-1.219-1.703-2.281-2.156-3.188
		c-0.109-0.188-0.188-0.406-0.281-0.594l-0.343-48.529l-99.091-1.125l-99.098,1.125l-0.344,48.529l-0.008,0.031l37.069,93.09
		l63.185-52.607L320.298,448.805z"/>
	<g>
		<path fill="#EAC6BB" d="M393.498,213.298c0,89.356-85.152,171.572-137.494,171.572c-52.326,0-137.503-82.216-137.503-171.572
			c0-89.34,61.561-148.283,137.503-148.283C331.938,65.016,393.498,123.958,393.498,213.298z"/>
	</g>
	<polygon fill="#5D9CEC" points="256.809,511.99 156.562,355.371 128.86,392.244 161.398,419.134 155.578,444.961 	"/>
	<polygon fill="#5D9CEC" points="256.809,511.99 355.438,355.371 384.561,392.244 352.001,419.134 357.828,444.961 	"/>
	<path fill="#4A89DC" d="M368.03,31.923C336.954,11.346,297.175,0.01,256.004,0.01c-41.17,0-80.95,11.336-112.019,31.913
		c-30.968,20.515-48.733,47.521-48.733,74.098c0,26.101,18.844,49.967,53.045,67.201c29.952,15.085,69.208,23.733,107.707,23.733
		s77.747-8.648,107.715-23.733c34.186-17.234,53.028-41.1,53.028-67.201C416.747,79.444,398.998,52.438,368.03,31.923z"/>
	<path fill="#5D9CEC" d="M395.061,151.52c-0.719-2.602-18.656-63.693-139.057-63.693c-120.62,0-136.878,61.357-137.511,63.975
		c-0.772,3.171-0.039,6.531,1.984,9.101c2.023,2.57,5.109,4.07,8.383,4.07h255.903c3.328,0,6.453-1.547,8.469-4.188
		C395.248,158.152,395.936,154.723,395.061,151.52z"/>
	<path fill="#FFCE54" d="M278.128,58.344c0,11.773-9.539,21.327-21.319,21.327c-11.773,0-21.327-9.554-21.327-21.327
		c0-11.781,9.554-21.327,21.327-21.327C268.589,37.017,278.128,46.563,278.128,58.344z"/>
	<path fill="#FFCE54" d="M267.472,434.899c0,5.875-4.773,10.655-10.663,10.655c-5.883,0-10.664-4.78-10.664-10.655
		c0-5.906,4.781-10.672,10.664-10.672C262.698,424.228,267.472,428.993,267.472,434.899z"/>
	<path fill="#434A54" d="M394.873,150.934c-1.438-4.352-5.516-7.289-10.109-7.289H128.86c-4.594,0-8.664,2.938-10.117,7.289
		c-1.452,4.359,0.047,9.148,3.719,11.905l42.647,31.991c1.844,1.383,4.094,2.125,6.398,2.125H342.11
		c2.312,0,4.547-0.742,6.391-2.125l42.653-31.991C394.842,160.082,396.342,155.293,394.873,150.934z"/>
</g>
</svg>
