<?xml version="1.0" encoding="utf-8"?>
<!-- Generator: Adobe Illustrator 16.0.0, SVG Export Plug-In . SVG Version: 6.00 Build 0)  -->
<!DOCTYPE svg PUBLIC "-//W3C//DTD SVG 1.1//EN" "http://www.w3.org/Graphics/SVG/1.1/DTD/svg11.dtd">
<svg version="1.1" id="Layer_1" xmlns="http://www.w3.org/2000/svg" xmlns:xlink="http://www.w3.org/1999/xlink" x="0px" y="0px"
	 width="512px" height="512px" viewBox="0 0 512 512" enable-background="new 0 0 512 512" xml:space="preserve">
<g id="police_cap">
	<path fill="#434A54" d="M430.29,368.637l-169.329-61.436c-2.336-0.844-4.89-0.859-7.226-0.016L81.75,368.621
		c-4.984,1.781-7.906,6.952-6.867,12.14c1.664,8.312,10.616,22.139,30.381,33.764c31.741,18.672,82.458,28.14,150.737,28.14
		s118.995-9.468,150.729-28.14c19.764-11.625,28.717-25.452,30.389-33.764C438.149,375.589,435.243,370.434,430.29,368.637z"/>
	<path fill="#656D78" d="M406.729,403.853c-31.733,18.672-82.45,28.141-150.729,28.141s-118.996-9.469-150.737-28.141
		c-17.155-10.093-26.163-21.842-29.326-30.201c-1.125,2.109-1.555,4.609-1.055,7.109c1.664,8.312,10.616,22.139,30.381,33.764
		c31.741,18.672,82.458,28.14,150.737,28.14s118.995-9.468,150.729-28.14c19.764-11.625,28.717-25.452,30.389-33.764
		c0.5-2.5,0.078-5-1.062-7.109C432.899,382.011,423.885,393.76,406.729,403.853z"/>
	<path fill="#4A89DC" d="M510.866,267.227l-63.998-127.996c-1.234-2.469-3.391-4.367-6-5.289L259.547,69.945
		c-2.296-0.812-4.796-0.812-7.093,0L71.125,133.942c-2.617,0.93-4.773,2.836-6.008,5.32L1.12,268.305
		c-1.93,3.897-1.305,8.569,1.57,11.819l74.669,84.278c2.023,2.281,4.93,3.594,7.984,3.594h341.306c3.078,0,6-1.328,8.031-3.641
		l74.67-85.325C512.194,275.765,512.804,271.102,510.866,267.227z"/>
	<path fill="#5D9CEC" d="M389.917,265.969C365.559,254.117,322.561,240,256.001,240c-118.316,0-181.329,43.358-181.329,74.669
		v63.997c0,3.547,1.766,6.859,4.718,8.843c2.945,1.984,6.679,2.375,9.968,1.031c0.508-0.203,51.811-20.545,166.642-20.545
		c114.12,0,166.149,20.357,166.665,20.561c1.281,0.516,2.64,0.766,3.983,0.766c2.094,0,4.172-0.609,5.953-1.812
		c2.953-1.983,4.719-5.296,4.719-8.843V314.67C437.321,298.857,419.15,280.202,389.917,265.969z"/>
	<path fill="#FFCE54" d="M432.603,366.184c-1.781,1.203-3.859,1.812-5.953,1.812c-1.344,0-2.702-0.25-3.983-0.781
		c-0.516-0.203-52.545-20.546-166.665-20.546c-114.832,0-166.134,20.343-166.642,20.546c-3.289,1.328-7.023,0.953-9.968-1.031
		c-2.953-1.984-4.718-5.297-4.718-8.859v21.343c0,3.547,1.766,6.859,4.718,8.843c2.945,1.984,6.679,2.375,9.968,1.031
		c0.508-0.203,51.811-20.545,166.642-20.545c114.12,0,166.149,20.357,166.665,20.561c1.281,0.516,2.64,0.766,3.983,0.766
		c2.094,0,4.172-0.609,5.953-1.812c2.953-1.983,4.719-5.296,4.719-8.843v-21.343C437.321,360.887,435.556,364.199,432.603,366.184z"
		/>
	<path fill="#5D9CEC" d="M129.459,243.071c2.07,3.023,5.414,4.648,8.82,4.648c2.07,0,4.164-0.602,6.008-1.859
		c4.859-3.32,6.109-9.96,2.789-14.819l-68.216-99.824l-7.734,2.726c-2.617,0.93-4.773,2.836-6.008,5.32l-2.773,5.602
		L129.459,243.071z"/>
	<path fill="#5D9CEC" d="M446.868,139.231c-1.234-2.469-3.391-4.367-6-5.289l-7.703-2.718l-68.622,99.785
		c-3.343,4.859-2.108,11.5,2.734,14.835c1.844,1.266,3.953,1.875,6.031,1.875c3.405,0,6.733-1.609,8.812-4.617l67.561-98.238
		L446.868,139.231z"/>
	<path id="police_badge_1_" fill="#FFCE54" d="M257.274,228.876c5.726-4.539,7.265-5.75,19.054-8.672
		c8.641-2.148,15.453-5.96,20.266-11.335c4.78-5.359,7.296-12.195,7.296-19.773c0-5.414-2.531-9.944-5.202-14.733
		c-1.656-2.945-3.516-6.258-4.984-10.164c-3.859-10.218,0.406-14.562,4.938-19.155l4.093-4.164c0.359-0.375,0.562-0.844,0.562-1.344
		c0-0.57-0.25-1.094-0.703-1.469l-0.438-0.367l-21.64-17.843c-0.453-0.414-1-0.594-1.531-0.562
		c-0.484,0.031-0.953,0.234-1.312,0.594c-0.859,0.938-1.672,1.844-2.016,2.234l-0.688,0.805c-1.906,2.227-4.055,4.742-7.078,4.742
		c-3.328,0-6.07-3.054-8.289-5.507c-0.734-0.82-1.625-1.711-2.327-2.344l-0.094-0.078c-0.414-0.297-0.789-0.43-1.188-0.445
		c-0.43,0.016-0.852,0.188-1.188,0.461c-0.781,0.695-1.664,1.586-2.398,2.398c-2.219,2.461-4.969,5.515-8.297,5.515
		c-3.023,0-5.179-2.523-7.085-4.757l-0.68-0.797c-0.344-0.383-1.156-1.289-1.953-2.164c-0.875-0.875-2.102-0.836-2.859-0.141
		l-21.835,18.007l-0.297,0.25c-0.438,0.375-0.695,0.898-0.695,1.469c0,0.5,0.203,0.977,0.555,1.344l4.102,4.164
		c4.531,4.594,8.796,8.937,4.937,19.155c-1.477,3.906-3.328,7.219-4.976,10.148c-2.688,4.805-5.219,9.335-5.219,14.749
		c0,7.578,2.523,14.414,7.312,19.773c4.796,5.375,11.617,9.187,20.257,11.335c11.789,2.922,13.328,4.133,19.039,8.656
		c0.367,0.305,1.312,0.469,1.312,0.469C256.485,229.321,256.923,229.165,257.274,228.876z"/>
</g>
</svg>
