<?xml version="1.0" encoding="utf-8"?>
<!-- Generator: Adobe Illustrator 16.0.0, SVG Export Plug-In . SVG Version: 6.00 Build 0)  -->
<!DOCTYPE svg PUBLIC "-//W3C//DTD SVG 1.1//EN" "http://www.w3.org/Graphics/SVG/1.1/DTD/svg11.dtd">
<svg version="1.1" id="Layer_1" xmlns="http://www.w3.org/2000/svg" xmlns:xlink="http://www.w3.org/1999/xlink" x="0px" y="0px"
	 width="512px" height="512px" viewBox="0 0 512 512" enable-background="new 0 0 512 512" xml:space="preserve">
<g id="policeman_2">
	<g>
		<path fill="#A0D468" d="M460.305,407.649l-1.812-0.531c-26.484-7.124-35.437-13.952-47.233-18.437
			c-41.811-15.937-52.685-27.404-55.466-32.842c-0.109-0.188-0.188-0.406-0.281-0.594l-0.343-48.561L256,305.561l-99.168,1.125
			l-0.344,48.561c-0.094,0.188-0.172,0.406-0.281,0.594c-2.781,5.438-13.655,16.905-55.467,32.842
			c-11.796,4.484-20.749,11.312-47.232,18.437l-1.812,0.531c-24.108,7.969-40.326,30.312-40.326,55.545v48.796H256h244.631v-48.796
			C500.631,437.962,484.412,415.618,460.305,407.649z"/>
	</g>
	<path fill="#DBAFA5" d="M396.338,382.651c-29.608-12.812-38.139-22.093-40.545-26.812c-0.109-0.188-0.188-0.406-0.281-0.594
		l-0.343-48.561L256,305.561l-99.168,1.125l-0.344,48.561c-0.094,0.188-0.172,0.406-0.281,0.594
		c-2.453,4.812-11.249,14.328-42.123,27.483l42.873,25.451l202.086-3.5L396.338,382.651z"/>
	<g>
		<path fill="#EAC6BB" d="M393.619,212.681c0,89.411-85.246,171.705-137.619,171.705s-137.619-82.294-137.619-171.705
			c0-89.41,61.622-148.4,137.619-148.4S393.619,123.271,393.619,212.681z"/>
	</g>
	<path fill="#656D78" d="M400.932,65.992c-13.109-19.625-30.608-35.163-52.013-46.163C323.341,6.682,292.077,0.01,256,0.01
		s-67.341,6.672-92.918,19.82c-21.405,11-38.905,26.538-52.014,46.163c-24.562,36.779-25.812,75.739-25.812,83.176v85.372
		c0,5.89,4.781,10.671,10.671,10.671h32.015c5.891,0,10.672-4.781,10.672-10.671v-74.7h234.771v74.7
		c0,5.89,4.78,10.671,10.671,10.671h32.015c5.891,0,10.671-4.781,10.671-10.671v-85.372
		C426.742,141.731,425.492,102.771,400.932,65.992z"/>
	<path opacity="0.1" fill="#FFFFFF" d="M400.932,65.992c-13.109-19.625-30.608-35.163-52.013-46.163
		C323.341,6.682,292.077,0.01,256,0.01s-67.341,6.672-92.918,19.82c-21.405,11-38.905,26.538-52.014,46.163
		c-24.562,36.779-25.812,75.739-25.812,83.176v21.343c0-7.438,1.25-46.396,25.812-83.177c13.108-19.624,30.608-35.163,52.014-46.162
		c25.577-13.156,56.841-19.82,92.918-19.82s67.341,6.664,92.919,19.82c21.404,10.999,38.903,26.538,52.013,46.162
		c24.561,36.78,25.811,75.739,25.811,83.177v-21.343C426.742,141.731,425.492,102.771,400.932,65.992z"/>
	<path fill="#8CC153" d="M409.338,387.947c-9.703-3.749-17.672-7.233-24.219-10.468c-4.109,2.234-8.672,4.547-13.687,6.859
		c-23.904,10.968-63.325,24.061-115.479,24.061s-91.605-13.093-115.511-24.061c-5-2.297-9.547-4.594-13.625-6.812
		c-6.562,3.219-14.546,6.719-24.249,10.468c7.094,4.531,16.452,9.938,28.015,15.296c25.999,12.062,68.856,26.453,125.37,26.453
		s99.34-14.391,125.322-26.453C392.869,397.9,402.244,392.494,409.338,387.947z"/>
	<path fill="#5D9CEC" d="M384.057,138.497H127.942c-5.891,0-10.671,4.773-10.671,10.672v149.392c0,4.062,2.296,7.75,5.921,9.562
		c1.844,0.906,46.108,22.452,132.808,22.452c86.685,0,130.963-21.546,132.807-22.452c3.625-1.812,5.922-5.5,5.922-9.562V149.168
		C394.729,143.27,389.947,138.497,384.057,138.497z"/>
	<path opacity="0.1" fill="#FFFFFF" d="M266.546,160.066l-63.044,167.681c11.219,1.25,23.608,2.188,37.171,2.594h4.53
		l64.029-170.274H266.546z"/>
	<path fill="#656D78" d="M256,511.99h138.729v-85.372c0-17.656-14.359-32.015-32.014-32.015h-213.43
		c-17.655,0-32.014,14.358-32.014,32.015v85.372H256z"/>
	<g>
		<path fill="#434A54" d="M341.247,469.304H170.504c-5.891,0-10.672-4.781-10.672-10.672c0-5.89,4.781-10.671,10.672-10.671h170.743
			c5.891,0,10.672,4.781,10.672,10.671C351.919,464.522,347.138,469.304,341.247,469.304z"/>
	</g>
	<path fill="#434A54" d="M426.742,159.84v-10.671c0-1.828-0.078-5.555-0.547-10.672H85.819c-0.484,5.117-0.562,8.844-0.562,10.672
		v10.671h53.357h234.771H426.742z"/>
</g>
</svg>
