<?xml version="1.0" encoding="utf-8"?>
<!-- Generator: Adobe Illustrator 16.0.0, SVG Export Plug-In . SVG Version: 6.00 Build 0)  -->
<!DOCTYPE svg PUBLIC "-//W3C//DTD SVG 1.1//EN" "http://www.w3.org/Graphics/SVG/1.1/DTD/svg11.dtd">
<svg version="1.1" id="Layer_1" xmlns="http://www.w3.org/2000/svg" xmlns:xlink="http://www.w3.org/1999/xlink" x="0px" y="0px"
	 width="512px" height="512px" viewBox="0 0 512 512" enable-background="new 0 0 512 512" xml:space="preserve">
<g id="police_gun">
	<g>
		<path fill="#656D78" d="M213.33,314.65c-2.719,0-5.453-1.031-7.531-3.125l-21.342-21.312c-4.156-4.188-4.156-10.938,0-15.094
			c4.171-4.163,10.921-4.163,15.093,0l21.327,21.343c4.172,4.156,4.172,10.906,0,15.062
			C218.798,313.619,216.063,314.65,213.33,314.65z"/>
	</g>
	<g>
		<path fill="#656D78" d="M140.895,158.633c-2.812,0-5.609-1.094-7.719-3.297l-20.983-21.999H96.006
			c-5.89,0-10.671-4.781-10.671-10.671c0-5.891,4.781-10.656,10.671-10.656h20.75c2.921,0,5.703,1.188,7.718,3.297l24.14,25.296
			c4.062,4.266,3.906,11.016-0.344,15.093C146.192,157.664,143.551,158.633,140.895,158.633z"/>
	</g>
	<g>
		<path fill="#8893A0" d="M479.991,122.666c-5.891,0-10.672-4.766-10.672-10.656v-10.672c0-5.89,4.781-10.671,10.672-10.671
			c5.89,0,10.671,4.781,10.671,10.671v10.672C490.662,117.9,485.881,122.666,479.991,122.666z"/>
	</g>
	<path fill="#8893A0" d="M425.93,150.79c-1.265-3.25-4.03-5.672-7.421-6.484l-97.996-23.827c-3.594-0.859-7.374,0.188-9.999,2.766
		c-2.641,2.593-3.734,6.358-2.922,9.968l12.671,55.811c1.109,4.859,5.422,8.312,10.406,8.312h63.997c3.562,0,6.891-1.78,8.875-4.749
		l21.327-31.999C426.805,157.68,427.195,154.023,425.93,150.79z"/>
	<g>
		<path fill="#AAB2BC" d="M213.33,346.649c-21.39,0-39.311-11-51.811-31.843c-8.843-14.75-11.843-29.437-11.968-30.062
			c-1.156-5.781,2.578-11.375,8.359-12.531c5.781-1.163,11.39,2.594,12.546,8.344c0.031,0.094,2.547,12.125,9.625,23.718
			c8.531,13.969,19.718,21.062,33.249,21.062c13.687,0,24.968-7.25,33.53-21.5c6.844-11.437,9.328-23.155,9.344-23.28
			c1.156-5.75,6.78-9.507,12.562-8.344c5.766,1.156,9.516,6.75,8.359,12.531c-0.125,0.625-3.125,15.312-11.984,30.062
			C252.641,335.649,234.735,346.649,213.33,346.649z"/>
	</g>
	<path fill="#8893A0" d="M233.391,106.932c-1.859-3.453-5.468-5.594-9.39-5.594c-0.953,0-23.765,0.125-49.436,10.812
		c-34.577,14.405-57.919,41.077-67.529,77.106c-0.984,3.641,0.047,7.53,2.688,10.218c2.031,2.062,4.781,3.188,7.609,3.188
		c0.859,0,1.718-0.094,2.562-0.312l64.67-15.999c2.609-0.641,4.875-2.25,6.343-4.5l42.014-63.997
		C235.063,114.572,235.25,110.385,233.391,106.932z"/>
	<path fill="#AAB2BC" d="M501.318,101.338H330.669c-5.891,0-10.672,4.766-10.672,10.672v42.654c0,5.891,4.781,10.672,10.672,10.672
		h170.649c5.891,0,10.672-4.781,10.672-10.672V112.01C511.99,106.104,507.209,101.338,501.318,101.338z"/>
	<g>
		<path fill="#AAB2BC" d="M309.326,293.338H112.193c-4.031,0-7.718-2.28-9.531-5.874l-37.514-74.677
			c-1.359-2.703-1.516-5.859-0.406-8.672c1.109-2.828,3.359-5.047,6.188-6.109l85.325-31.998c2.578-0.953,5.421-0.891,7.953,0.188
			l149.322,63.997c3.922,1.688,6.469,5.531,6.469,9.812v42.646C319.997,288.558,315.216,293.338,309.326,293.338z"/>
	</g>
	<path fill="#965353" d="M170.613,281.589c-3.031-29.913-20.593-54.021-50.78-69.724c-21.921-11.391-42.842-14.312-43.732-14.438
		c-3.047-0.406-6.125,0.516-8.453,2.531c-2.312,2.031-3.641,4.953-3.641,8.047v28.53c-4.984,7.031-17.874,26.03-30.874,52.021
		C11.15,332.524,0.01,373.585,0.01,410.646c0,5.906,4.781,10.688,10.671,10.688H115.99c5.046,0,9.39-3.531,10.437-8.469
		l22.343-105.339l18.468-17.03C169.707,288.245,170.957,284.933,170.613,281.589z"/>
	<path fill="#CCD1D9" d="M330.669,101.338H224.001c-41.17,0-74.669,33.499-74.669,74.67c0,41.153,33.499,74.652,74.669,74.652
		h85.325c2.828,0,5.546-1.125,7.546-3.125l21.328-21.327c2-2,3.125-4.719,3.125-7.547V112.01
		C341.325,106.104,336.56,101.338,330.669,101.338z"/>
	<path fill="#AAB2BC" d="M277.327,154.664c-11.781,0-21.327,9.562-21.327,21.344c0,11.78,9.546,21.326,21.327,21.326h63.998v-42.67
		H277.327z"/>
	<path fill="#CCD1D9" d="M85.335,357.336c0,5.875-4.766,10.656-10.656,10.656c-5.891,0-10.672-4.781-10.672-10.656
		c0-5.906,4.781-10.687,10.672-10.687C80.569,346.649,85.335,351.43,85.335,357.336z"/>
	<path fill="#CCD1D9" d="M106.677,282.651c0,5.906-4.781,10.687-10.671,10.687c-5.89,0-10.671-4.78-10.671-10.687
		c0-5.875,4.781-10.656,10.671-10.656C101.896,271.995,106.677,276.776,106.677,282.651z"/>
</g>
</svg>
