<?xml version="1.0" encoding="utf-8"?>
<!-- Generator: Adobe Illustrator 16.0.0, SVG Export Plug-In . SVG Version: 6.00 Build 0)  -->
<!DOCTYPE svg PUBLIC "-//W3C//DTD SVG 1.1//EN" "http://www.w3.org/Graphics/SVG/1.1/DTD/svg11.dtd">
<svg version="1.1" id="Layer_1" xmlns="http://www.w3.org/2000/svg" xmlns:xlink="http://www.w3.org/1999/xlink" x="0px" y="0px"
	 width="512px" height="512px" viewBox="0 0 512 512" enable-background="new 0 0 512 512" xml:space="preserve">
<g id="prisoners_bus">
	<path fill="#FC6E51" d="M479.991,245.329h-21.343c-5.875,0-10.656-15.452-10.656-21.327v-85.325
		c0-17.655-14.359-31.999-31.999-31.999H32.009c-17.656,0-31.999,14.344-31.999,31.999v181.338
		c0,17.624,14.343,31.998,31.999,31.998h447.982c17.64,0,31.999-14.374,31.999-31.998v-42.687
		C511.99,259.688,497.631,245.329,479.991,245.329z"/>
	<path fill="#E6E9ED" d="M114.615,331.514l-18.609-22.187H0.01v10.688c0,17.624,14.343,31.998,31.999,31.998h76.372
		C112.021,340.014,114.615,331.514,114.615,331.514z"/>
	<g>
		<path fill="#434A54" d="M96.006,298.671c-29.42,0-53.341,23.938-53.341,53.342c0,29.405,23.921,53.31,53.341,53.31
			c29.405,0,53.326-23.904,53.326-53.31C149.332,322.608,125.411,298.671,96.006,298.671z"/>
		<path fill="#434A54" d="M394.65,298.671c-29.405,0-53.325,23.938-53.325,53.342c0,29.405,23.92,53.31,53.325,53.31
			s53.342-23.904,53.342-53.31C447.992,322.608,424.056,298.671,394.65,298.671z"/>
	</g>
	<path fill="#F5F7FA" d="M103.537,344.451c4.171,4.187,4.171,10.937,0,15.093c-4.156,4.156-10.922,4.156-15.078,0
		c-4.171-4.156-4.171-10.906,0-15.093C92.615,340.295,99.381,340.295,103.537,344.451z"/>
	<path fill="#F5F7FA" d="M402.197,344.451c4.172,4.187,4.172,10.937,0,15.093s-10.922,4.156-15.078,0
		c-4.172-4.156-4.172-10.906,0-15.093C391.275,340.295,398.025,340.295,402.197,344.451z"/>
	<polygon fill="#4FC2E9" points="447.992,160.005 394.65,160.005 373.323,160.005 53.336,160.005 53.336,245.329 373.323,245.329 
		394.65,245.329 479.991,245.329 	"/>
	<path fill="#E6E9ED" d="M479.991,277.328c-5.906,0-10.672,4.781-10.672,10.688c0,5.874,4.766,10.655,10.672,10.655h31.999v-21.343
		H479.991z"/>
	<rect x="80.007" y="160.005" fill="#CCD1D9" width="10.655" height="85.324"/>
	<rect x="112.005" y="160.005" fill="#CCD1D9" width="10.656" height="85.324"/>
	<rect x="144.004" y="160.005" fill="#CCD1D9" width="10.656" height="85.324"/>
	<rect x="176.003" y="160.005" fill="#CCD1D9" width="10.656" height="85.324"/>
	<rect x="208.001" y="160.005" fill="#CCD1D9" width="10.656" height="85.324"/>
	<rect x="240" y="160.005" fill="#CCD1D9" width="10.656" height="85.324"/>
	<rect x="271.999" y="160.005" fill="#CCD1D9" width="10.656" height="85.324"/>
	<rect x="303.998" y="160.005" fill="#CCD1D9" width="10.655" height="85.324"/>
	<rect x="335.997" y="160.005" fill="#CCD1D9" width="10.656" height="85.324"/>
	<rect x="367.995" y="160.005" fill="#CCD1D9" width="10.655" height="85.324"/>
	<rect x="53.336" y="197.331" fill="#E6E9ED" width="325.314" height="10.672"/>
	<g>
		<path fill="#FFCE54" d="M314.653,341.326h-10.655V165.332H186.659v175.994h-10.656V160.005c0-2.938,2.375-5.328,5.328-5.328
			h127.995c2.938,0,5.327,2.391,5.327,5.328V341.326z"/>
	</g>
	<g>
		<rect x="240" y="160.005" fill="#FFCE54" width="10.656" height="181.321"/>
	</g>
	<rect x="176.003" y="245.329" fill="#FFCE54" width="138.65" height="106.684"/>
</g>
</svg>
