<?xml version="1.0" encoding="utf-8"?>
<!-- Generator: Adobe Illustrator 16.0.0, SVG Export Plug-In . SVG Version: 6.00 Build 0)  -->
<!DOCTYPE svg PUBLIC "-//W3C//DTD SVG 1.1//EN" "http://www.w3.org/Graphics/SVG/1.1/DTD/svg11.dtd">
<svg version="1.1" id="Layer_1" xmlns="http://www.w3.org/2000/svg" xmlns:xlink="http://www.w3.org/1999/xlink" x="0px" y="0px"
	 width="512px" height="512px" viewBox="0 0 512 512" enable-background="new 0 0 512 512" xml:space="preserve">
<g id="robber_photo">
	<g>
		<path fill="#434A54" d="M501.338,511.988H10.677c-5.89,0-10.671-4.781-10.671-10.672c0-5.89,4.781-10.655,10.671-10.655h490.661
			c5.875,0,10.656,4.766,10.656,10.655C511.994,507.207,507.213,511.988,501.338,511.988z"/>
	</g>
	<g>
		<path fill="#434A54" d="M501.338,447.99H10.677c-5.89,0-10.671-4.781-10.671-10.671c0-5.891,4.781-10.656,10.671-10.656h490.661
			c5.875,0,10.656,4.766,10.656,10.656C511.994,443.209,507.213,447.99,501.338,447.99z"/>
	</g>
	<g>
		<path fill="#434A54" d="M501.338,383.993H10.677c-5.89,0-10.671-4.781-10.671-10.672c0-5.89,4.781-10.671,10.671-10.671h490.661
			c5.875,0,10.656,4.781,10.656,10.671C511.994,379.212,507.213,383.993,501.338,383.993z"/>
	</g>
	<g>
		<path fill="#434A54" d="M501.338,319.996H10.677c-5.89,0-10.671-4.781-10.671-10.672s4.781-10.672,10.671-10.672h490.661
			c5.875,0,10.656,4.781,10.656,10.672S507.213,319.996,501.338,319.996z"/>
	</g>
	<g>
		<path fill="#434A54" d="M501.338,255.998H10.677c-5.89,0-10.671-4.781-10.671-10.672s4.781-10.671,10.671-10.671h490.661
			c5.875,0,10.656,4.78,10.656,10.671S507.213,255.998,501.338,255.998z"/>
	</g>
	<g>
		<path fill="#434A54" d="M501.338,191.984H10.677c-5.89,0-10.671-4.765-10.671-10.655c0-5.891,4.781-10.672,10.671-10.672h490.661
			c5.875,0,10.656,4.781,10.656,10.672C511.994,187.219,507.213,191.984,501.338,191.984z"/>
	</g>
	<g>
		<path fill="#434A54" d="M501.338,127.987H10.677c-5.89,0-10.671-4.765-10.671-10.656s4.781-10.672,10.671-10.672h490.661
			c5.875,0,10.656,4.781,10.656,10.672S507.213,127.987,501.338,127.987z"/>
	</g>
	<g>
		<path fill="#434A54" d="M501.338,63.99H10.677c-5.89,0-10.671-4.766-10.671-10.672c0-5.89,4.781-10.656,10.671-10.656h490.661
			c5.875,0,10.656,4.766,10.656,10.656C511.994,59.224,507.213,63.99,501.338,63.99z"/>
	</g>
	<g>
		<g>
			<path fill="#656D78" d="M460.215,386.353l-1.812-0.531c-26.469-7.109-35.405-13.937-47.187-18.421
				c-41.811-15.922-52.685-27.39-55.466-32.812c-0.094-0.203-0.188-0.406-0.281-0.609l-0.343-48.545l-99.13-1.125l-99.121,1.125
				l-0.344,48.545c-0.094,0.203-0.172,0.406-0.266,0.609c-2.781,5.422-13.656,16.89-55.451,32.812
				c-11.781,4.484-20.749,11.312-47.217,18.421l-1.812,0.531c-24.093,7.968-40.311,30.311-40.311,55.529v70.106h244.522h244.529
				v-70.106C500.525,416.663,484.307,394.32,460.215,386.353z"/>
		</g>
		<path fill="#DBAFA5" d="M355.75,334.589c-0.094-0.203-0.188-0.406-0.281-0.609l-0.343-48.545l-99.13-1.125l-99.121,1.125
			l-0.344,48.545c-0.094,0.203-0.172,0.406-0.266,0.609c-2.641,5.141-12.593,15.749-49.374,30.452
			c20.953,13.796,70.779,39.841,148.417,39.841c76.505,0,128.502-25.279,151.346-39.231
			C368.624,350.635,358.438,339.808,355.75,334.589z"/>
		<g>
			<path fill="#EAC6BB" d="M393.561,191.031c0,89.372-85.215,171.619-137.549,171.619c-52.358,0-137.558-82.247-137.558-171.619
				c0-89.372,61.576-148.338,137.558-148.338C331.97,42.693,393.561,101.66,393.561,191.031z"/>
		</g>
		<path fill="#434A54" d="M418.685,370.635c-2.5-1.172-4.938-2.25-7.469-3.234c-6.343-2.406-11.937-4.703-16.905-6.906
			c-6.031,3.359-13.438,7.109-22.187,10.844c-24.404,10.437-64.497,22.889-116.815,22.889c-52.17,0-90.887-12.374-114.183-22.764
			c-8.953-3.969-16.359-7.984-22.218-11.5c-5.281,2.359-11.281,4.844-18.093,7.438c-1.969,0.75-3.844,1.562-5.734,2.422
			c6.859,4.983,19,12.858,36.343,20.67c25.343,11.437,67.419,25.062,123.886,25.062c56.412,0,99.724-13.594,126.127-24.983
			C398.748,383.103,411.278,375.587,418.685,370.635z"/>
		<path fill="#ED5564" d="M393.561,191.031c0-10.812-0.906-21.171-2.625-31.03H121.079c-1.719,9.859-2.625,20.218-2.625,31.03
			c0,11.156,1.328,22.187,3.75,32.967h267.606C392.217,213.218,393.561,202.187,393.561,191.031z"/>
		<path fill="#EAC6BB" d="M341.345,192c0,11.781-14.344,21.327-31.999,21.327c-17.687,0-31.999-9.546-31.999-21.327
			c0-11.78,14.312-21.327,31.999-21.327C327.001,170.673,341.345,180.22,341.345,192z"/>
		<ellipse fill="#EAC6BB" cx="202.67" cy="192" rx="31.999" ry="21.327"/>
		<g>
			<g>
				<path fill="#656D78" d="M393.561,189.969c-3.906-93.512-5.125-119.464-55.528-159.541
					c-82.036-65.247-208.578-5.219-208.578-5.219l22.843,16.016c0,0-83.653,55.232-62.623,193.445
					c2.578,16.983,117.948-115.339,240.67-108.137L393.561,189.969z"/>
			</g>
		</g>
	</g>
	<path fill="#FFCE54" d="M394.529,383.993H117.658c-5.891,0-10.656,4.765-10.656,10.655v106.668c0,5.891,4.766,10.672,10.656,10.672
		h276.872c5.875,0,10.656-4.781,10.656-10.672V394.648C405.186,388.758,400.404,383.993,394.529,383.993z"/>
	<g>
		<g>
			<path fill="#434A54" d="M191.999,479.708c-2.719,0-5.453-1.031-7.531-3.125l-42.67-42.654c-4.172-4.172-4.172-10.922,0-15.094
				c4.156-4.172,10.921-4.172,15.078,0l42.67,42.67c4.171,4.156,4.171,10.922,0,15.078
				C197.467,478.677,194.732,479.708,191.999,479.708z"/>
		</g>
		<g>
			<path fill="#434A54" d="M149.516,479.708c-2.734,0-5.468-1.031-7.546-3.125c-4.172-4.156-4.172-10.922,0-15.078l42.67-42.67
				c4.171-4.172,10.921-4.172,15.077,0c4.171,4.172,4.171,10.922,0,15.094l-42.654,42.654
				C154.969,478.677,152.234,479.708,149.516,479.708z"/>
		</g>
	</g>
	<g>
		<g>
			<path fill="#434A54" d="M362.656,479.708c-2.719,0-5.438-1.031-7.53-3.125l-42.655-42.654c-4.188-4.172-4.188-10.922,0-15.094
				c4.155-4.172,10.905-4.172,15.062,0l42.686,42.67c4.156,4.156,4.156,10.922,0,15.078
				C368.124,478.677,365.405,479.708,362.656,479.708z"/>
		</g>
		<g>
			<path fill="#434A54" d="M320.188,479.708c-2.75,0-5.469-1.031-7.562-3.125c-4.156-4.156-4.156-10.922,0-15.078l42.686-42.67
				c4.156-4.172,10.905-4.172,15.062,0c4.188,4.172,4.188,10.922,0,15.094l-42.654,42.654
				C325.626,478.677,322.907,479.708,320.188,479.708z"/>
		</g>
	</g>
	<g>
		<g>
			<path fill="#434A54" d="M277.347,479.708c-2.75,0-5.477-1.031-7.555-3.125l-42.67-42.654c-4.156-4.172-4.156-10.922,0-15.094
				c4.171-4.172,10.921-4.172,15.093,0l42.663,42.67c4.156,4.156,4.156,10.922,0,15.078
				C282.784,478.677,280.065,479.708,277.347,479.708z"/>
		</g>
		<g>
			<path fill="#434A54" d="M234.84,479.708c-2.719,0-5.453-1.031-7.531-3.125c-4.172-4.156-4.172-10.922,0-15.078l42.654-42.67
				c4.164-4.172,10.914-4.172,15.102,0c4.156,4.172,4.156,10.922,0,15.094l-42.678,42.654
				C240.309,478.677,237.575,479.708,234.84,479.708z"/>
		</g>
	</g>
</g>
</svg>
