<?xml version="1.0" encoding="utf-8"?>
<!-- Generator: Adobe Illustrator 16.0.0, SVG Export Plug-In . SVG Version: 6.00 Build 0)  -->
<!DOCTYPE svg PUBLIC "-//W3C//DTD SVG 1.1//EN" "http://www.w3.org/Graphics/SVG/1.1/DTD/svg11.dtd">
<svg version="1.1" id="Layer_1" xmlns="http://www.w3.org/2000/svg" xmlns:xlink="http://www.w3.org/1999/xlink" x="0px" y="0px"
	 width="512px" height="512px" viewBox="0 0 512 512" enable-background="new 0 0 512 512" xml:space="preserve">
<g id="robber">
	<path fill="#8CC153" d="M469.397,252.011c-1.625-3.914-5.421-6.453-9.655-6.453H376.15c-4.233,0-8.046,2.539-9.64,6.453
		c-1.625,3.898-0.734,8.39,2.266,11.382l41.796,41.795c1.952,1.953,4.608,3.062,7.374,3.062s5.438-1.109,7.39-3.062l41.796-41.795
		C470.116,260.401,471.007,255.91,469.397,252.011z"/>
	<g>
		<path fill="#656D78" d="M439.57,383.686l-1.781-0.5c-25.921-6.969-34.686-13.655-46.232-18.046
			c-40.935-15.609-51.591-26.858-54.31-32.155c-0.109-0.203-0.188-0.391-0.281-0.594l-0.344-47.561l-97.09-1.094l-97.121,1.094
			l-0.328,47.561c-0.094,0.203-0.172,0.391-0.266,0.594c-2.719,5.297-13.375,16.546-54.311,32.155
			c-11.546,4.391-20.312,11.077-46.248,18.046l-1.781,0.5C15.869,391.481,0.01,413.387,0.01,438.09v68.669h239.522h178.415
			l61.107-68.669C479.054,413.387,463.18,391.481,439.57,383.686z"/>
	</g>
	<path fill="#DBAFA5" d="M337.247,332.984c-0.109-0.203-0.188-0.391-0.281-0.594l-0.344-47.561l-97.09-1.094l-97.121,1.094
		l-0.328,47.561c-0.094,0.203-0.172,0.391-0.266,0.594c-2.578,5.031-12.312,15.422-48.358,29.827
		c20.531,13.53,69.326,39.044,145.401,39.044c74.95,0,125.87-24.779,148.259-38.45C349.841,348.702,339.856,338.094,337.247,332.984
		z"/>
	<g>
		<path fill="#EAC6BB" d="M374.276,192.365c0,87.543-83.465,168.118-134.745,168.118c-51.295,0-134.745-80.575-134.745-168.118
			c0-87.552,60.326-145.314,134.745-145.314C313.95,47.051,374.276,104.813,374.276,192.365z"/>
	</g>
	<path fill="#434A54" d="M398.885,368.296c-2.438-1.156-4.828-2.203-7.328-3.156c-6.188-2.359-11.672-4.625-16.562-6.766
		c-5.891,3.281-13.14,6.953-21.701,10.625c-23.922,10.218-63.201,22.404-114.434,22.404c-51.123,0-89.043-12.124-111.871-22.295
		c-8.765-3.891-16.031-7.812-21.765-11.266c-5.171,2.312-11.031,4.75-17.718,7.297c-1.922,0.719-3.765,1.516-5.625,2.359
		c6.718,4.874,18.624,12.608,35.608,20.248c24.843,11.203,66.044,24.546,121.37,24.546c55.233,0,97.668-13.312,123.542-24.468
		C379.354,380.498,391.619,373.139,398.885,368.296z"/>
	<polygon fill="#434A54" points="0.01,464.979 455.133,464.979 473.741,444.073 0.01,444.073 	"/>
	<path fill="#ED5564" d="M374.276,192.365c0-10.585-0.906-20.733-2.578-30.397H107.349c-1.672,9.664-2.562,19.812-2.562,30.397
		c0,10.921,1.297,21.733,3.672,32.295h262.146C372.979,214.099,374.276,203.287,374.276,192.365z"/>
	<path fill="#EAC6BB" d="M323.106,193.311c0,11.539-14.03,20.905-31.342,20.905c-17.312,0-31.344-9.367-31.344-20.905
		s14.031-20.897,31.344-20.897C309.076,172.413,323.106,181.772,323.106,193.311z"/>
	<path fill="#EAC6BB" d="M218.626,193.311c0,11.539-14.015,20.905-31.342,20.905c-17.312,0-31.343-9.367-31.343-20.905
		s14.031-20.897,31.343-20.897C204.611,172.413,218.626,181.772,218.626,193.311z"/>
	<path fill="#A0D468" d="M485.771,332.203c-19.046-28.921-43.139-44.857-67.825-44.857s-48.764,15.937-67.824,44.857
		c-16.156,24.53-26.203,55.388-26.203,80.527c0,51.842,42.186,94.028,94.027,94.028c51.857,0,94.044-42.187,94.044-94.028
		C511.99,387.591,501.943,356.733,485.771,332.203z"/>
	<g>
		<path fill="#CCD1D9" d="M417.946,464.979c-5.766,0-10.452-4.672-10.452-10.452v-104.48c0-5.78,4.687-10.452,10.452-10.452
			s10.452,4.672,10.452,10.452v104.48C428.398,460.307,423.712,464.979,417.946,464.979z"/>
	</g>
	<g>
		<g>
			<path fill="#656D78" d="M374.276,191.334C370.464,99.72,369.245,74.3,319.888,35.043c-80.356-63.928-204.335-5.117-204.335-5.117
				l22.39,15.687c0,0-81.934,54.115-61.356,189.5c2.531,16.632,115.542-112.988,235.756-105.926L374.276,191.334z"/>
		</g>
	</g>
	<g>
		<path fill="#E6E9ED" d="M386.604,444.089c-5.781,0-10.438-4.671-10.438-10.437c-0.016-5.781,4.656-10.453,10.438-10.453h37.468
			l-44.858-44.857c-2.984-3-3.875-7.483-2.266-11.39s5.422-6.453,9.656-6.453h62.686c5.766,0,10.453,4.672,10.453,10.438
			c0,5.78-4.688,10.452-10.453,10.452h-37.468l44.858,44.857c2.984,3,3.875,7.484,2.25,11.391c-1.609,3.906-5.406,6.452-9.641,6.452
			H386.604L386.604,444.089z"/>
	</g>
</g>
</svg>
