<?xml version="1.0" encoding="utf-8"?>
<!-- Generator: Adobe Illustrator 16.0.0, SVG Export Plug-In . SVG Version: 6.00 Build 0)  -->
<!DOCTYPE svg PUBLIC "-//W3C//DTD SVG 1.1//EN" "http://www.w3.org/Graphics/SVG/1.1/DTD/svg11.dtd">
<svg version="1.1" id="Layer_1" xmlns="http://www.w3.org/2000/svg" xmlns:xlink="http://www.w3.org/1999/xlink" x="0px" y="0px"
	 width="512px" height="512px" viewBox="0 0 512 512" enable-background="new 0 0 512 512" xml:space="preserve">
<g id="scales">
	<path fill="#E6E9ED" d="M91.146,88.209c-3.906,4.758-9.843,7.797-16.467,7.797c-6.641,0-12.578-3.047-16.484-7.805L0.01,287.999
		l20.484,5.968l54.17-186.055l54.185,186.071l20.483-5.968L91.146,88.209z"/>
	<path fill="#E6E9ED" d="M453.805,88.209c-3.922,4.758-9.844,7.797-16.484,7.797c-6.625,0-12.562-3.047-16.483-7.805
		l-58.169,199.797l20.467,5.968l54.186-186.055l54.186,186.071l20.484-5.968L453.805,88.209z"/>
	<g>
		<path fill="#FFCE54" d="M74.679,362.652c41.232,0,74.653-33.421,74.653-74.653H0.01C0.01,329.231,33.431,362.652,74.679,362.652z"
			/>
	</g>
	<g>
		<path fill="#FFCE54" d="M437.32,362.652c41.249,0,74.67-33.421,74.67-74.653H362.668
			C362.668,329.231,396.088,362.652,437.32,362.652z"/>
	</g>
	<path fill="#F6BB42" d="M348.388,96.006c-10.453,8.257-174.322,8.257-184.775,0h-31.53C163.175,128.849,207.189,149.34,256,149.34
		c48.795,0,92.81-20.492,123.916-53.334H348.388z"/>
	<rect x="75.789" y="85.342" fill="#FFCE54" width="361.532" height="21.327"/>
	<rect x="245.328" y="10.674" fill="#434A54" width="21.343" height="479.974"/>
	<g>
		<path fill="#ED5564" d="M256,0.01c-17.671,0-31.999,14.328-31.999,31.999v53.333v21.327v63.998
			c0,11.789,9.546,21.335,21.327,21.335h21.343c11.781,0,21.328-9.546,21.328-21.335v-63.998V85.342V32.009
			C287.999,14.337,273.671,0.01,256,0.01z"/>
	</g>
	<g>
		<path fill="#FFCE54" d="M74.679,42.672C57.008,42.672,42.68,57,42.68,74.671c0,17.679,14.328,31.998,31.999,31.998
			c17.67,0,31.998-14.319,31.998-31.998C106.677,57,92.35,42.672,74.679,42.672z M74.679,85.342
			c-5.891,0-10.672-4.789-10.672-10.671c0-5.875,4.781-10.664,10.672-10.664c5.875,0,10.656,4.789,10.656,10.664
			C85.335,80.554,80.554,85.342,74.679,85.342z"/>
		<path fill="#FFCE54" d="M437.32,42.672c-17.671,0-31.998,14.328-31.998,31.999c0,17.679,14.327,31.998,31.998,31.998
			c17.672,0,31.999-14.319,31.999-31.998C469.319,57,454.992,42.672,437.32,42.672z M437.32,85.342
			c-5.875,0-10.656-4.789-10.656-10.671c0-5.875,4.781-10.664,10.656-10.664c5.891,0,10.672,4.789,10.672,10.664
			C447.992,80.554,443.211,85.342,437.32,85.342z"/>
	</g>
	<g>
		<path fill="#FFCE54" d="M298.671,383.995c0-23.562-19.109-42.654-42.671-42.654c-23.562,0-42.67,19.093-42.67,42.654l0,0l0,0
			v85.34h85.341V383.995L298.671,383.995L298.671,383.995z"/>
	</g>
	<g>
		<path fill="#656D78" d="M405.322,469.335c0-11.781-9.547-21.343-21.328-21.343H128.005c-11.781,0-21.328,9.562-21.328,21.343
			v21.312c0,11.796,9.547,21.343,21.328,21.343h255.989c11.781,0,21.328-9.547,21.328-21.343V469.335z"/>
	</g>
	<path fill="#434A54" d="M426.664,490.647H85.335c-5.891,0-10.656,4.781-10.656,10.687c0,5.875,4.765,10.656,10.656,10.656h341.329
		c5.891,0,10.656-4.781,10.656-10.656C437.32,495.429,432.555,490.647,426.664,490.647z"/>
</g>
</svg>
