<?xml version="1.0" encoding="utf-8"?>
<!-- Generator: Adobe Illustrator 16.0.0, SVG Export Plug-In . SVG Version: 6.00 Build 0)  -->
<!DOCTYPE svg PUBLIC "-//W3C//DTD SVG 1.1//EN" "http://www.w3.org/Graphics/SVG/1.1/DTD/svg11.dtd">
<svg version="1.1" id="Layer_1" xmlns="http://www.w3.org/2000/svg" xmlns:xlink="http://www.w3.org/1999/xlink" x="0px" y="0px"
	 width="512px" height="512px" viewBox="0 0 512 512" enable-background="new 0 0 512 512" xml:space="preserve">
<g id="shotgun">
	<g>
		<path fill="#434A54" d="M229.806,350.078c-2.711,2.719-6.805,3.875-10.719,2.656l-23.007-7.171
			c-5.625-1.75-8.765-7.719-7.015-13.344c1.758-5.624,7.734-8.765,13.358-7.015l23.007,7.155c5.625,1.75,8.765,7.734,7.007,13.359
			C231.907,347.423,230.985,348.906,229.806,350.078z"/>
	</g>
	<g>
		<path fill="#CCD1D9" d="M131.356,508.869c-1.141,1.141-2.531,2.016-4.094,2.547c-2.977,1.015-6.242,0.672-8.937-0.938
			l-75.419-45.249c-2.727-1.641-4.586-4.406-5.062-7.547c-0.477-3.14,0.469-6.343,2.586-8.702l90.997-101.995
			c1.421-1.609,3.312-2.734,5.398-3.25l8.383-2.078c3.476-12.656,12.804-40.452,31.413-59.076c0.008,0,0.008,0,0.008,0
			L380.65,78.558c2-2,4.703-3.125,7.531-3.125s5.547,1.125,7.547,3.125l30.17,30.17c4.172,4.172,4.172,10.922,0,15.094
			L209.306,340.407l-7.039,49.278c-0.5,3.516-2.71,6.547-5.898,8.094L170.8,410.2l-37.046,95.013
			C133.208,506.604,132.387,507.838,131.356,508.869z"/>
	</g>
	<path fill="#965353" d="M388.182,75.433c-2.828,0-132.377,134.729-128.214,138.9l30.172,30.17c2,2,4.703,3.125,7.531,3.125
		c2.843,0,5.546-1.125,7.546-3.125l113.136-113.136l0,0l7.546-7.546c4.172-4.172,4.172-10.922,0-15.094l-30.17-30.17
		C393.729,76.558,391.01,75.433,388.182,75.433z"/>
	<polygon fill="#7F4545" points="403.275,146.446 418.353,131.368 373.104,86.104 358.012,101.197 	"/>
	<polygon fill="#7F4545" points="373.104,176.617 388.182,161.539 342.935,116.275 327.841,131.368 	"/>
	<polygon fill="#7F4545" points="342.935,206.787 358.012,191.709 312.764,146.446 297.671,161.539 	"/>
	<polygon fill="#7F4545" points="312.764,236.958 327.841,221.864 282.593,176.617 267.515,191.694 	"/>
	<g>
		<path fill="#E6E9ED" d="M471.147,18.232L206.791,282.581c-4.164,4.172-10.914,4.172-15.085,0c-4.164-4.156-4.164-10.905,0-15.077
			L456.07,3.139c4.156-4.172,10.921-4.172,15.077,0C475.319,7.311,475.319,14.061,471.147,18.232z"/>
	</g>
	<path fill="#965353" d="M203.33,265.191c-3.984-1.656-8.57-0.734-11.624,2.312l-15.078,15.077c0,0,0,0-0.008,0
		c-18.608,18.624-27.937,46.42-31.413,59.076l-8.383,2.078c-2.086,0.516-3.969,1.641-5.398,3.25L40.43,448.98
		c-2.117,2.359-3.062,5.562-2.586,8.702c0.477,3.141,2.336,5.906,5.062,7.547l75.419,45.249c2.695,1.609,5.96,1.952,8.937,0.938
		c1.562-0.531,2.953-1.406,4.094-2.547c1.031-1.031,1.851-2.266,2.398-3.656L170.8,410.2l25.569-12.421
		c3.188-1.547,5.398-4.578,5.898-8.094l7.547-52.794c0.07-0.5,0.102-1,0.102-1.5V275.05
		C209.916,270.738,207.322,266.848,203.33,265.191z"/>
</g>
</svg>
