<?xml version="1.0" encoding="utf-8"?>
<!-- Generator: Adobe Illustrator 16.0.0, SVG Export Plug-In . SVG Version: 6.00 Build 0)  -->
<!DOCTYPE svg PUBLIC "-//W3C//DTD SVG 1.1//EN" "http://www.w3.org/Graphics/SVG/1.1/DTD/svg11.dtd">
<svg version="1.1" id="Layer_1" xmlns="http://www.w3.org/2000/svg" xmlns:xlink="http://www.w3.org/1999/xlink" x="0px" y="0px"
	 width="512px" height="512px" viewBox="0 0 512 512" enable-background="new 0 0 512 512" xml:space="preserve">
<g id="surveillance_camera">
	<g>
		<path fill="#5D9CEC" d="M3.125,402.208c-2-1.999-3.125-4.718-3.125-7.546v-42.67c0-5.89,4.781-10.655,10.671-10.655h105.91
			l107.464-107.48c2-2,4.711-3.109,7.539-3.125c2.836,0.016,5.547,1.125,7.547,3.125l30.17,30.171
			c4.164,4.172,4.164,10.921,0,15.093L146.213,402.208c-1.953,1.938-4.469,2.984-7.023,3.109c-0.18,0-0.352,0.016-0.523,0.016
			H10.671C7.835,405.333,5.125,404.208,3.125,402.208z"/>
	</g>
	<path fill="#5D9CEC" d="M478.708,350.07l-45.437-45.436c-4.172-4.156-10.921-4.156-15.093,0l-45.248,45.264
		c-2,2-3.125,4.703-3.125,7.531s1.125,5.547,3.125,7.547l45.436,45.435c4.156,4.172,10.921,4.172,15.077,0l45.265-45.247
		C482.863,360.992,482.863,354.242,478.708,350.07z"/>
	<path fill="#434A54" d="M448.537,319.9L177.009,48.379c-2-2-4.71-3.125-7.539-3.125s-5.547,1.125-7.547,3.125l-90.504,90.512
		c-4.164,4.172-4.164,10.922,0,15.078l271.529,271.521c4.156,4.172,10.906,4.172,15.077,0l90.512-90.496
		C452.693,330.821,452.693,324.072,448.537,319.9z"/>
	<path fill="#656D78" d="M511.863,329.149c0.547-3.374-0.562-6.812-3-9.249L192.094,3.131c-4.164-4.156-10.921-4.156-15.085,0
		L86.504,93.643c-4.164,4.156-4.164,10.921,0,15.077l286.614,286.614c3.233,3.234,8.202,4.047,12.312,1.984l120.668-60.325
		C509.16,335.462,511.301,332.54,511.863,329.149z"/>
	<path fill="#434A54" d="M479.114,350.477L358.432,229.81c-1.141-1.156-2.531-2.016-4.062-2.547l-46.062-15.89
		c-5.578-1.922-11.64,1.031-13.562,6.593c-1.375,4-0.25,8.234,2.547,11.031c1.109,1.109,2.468,2,4.062,2.531l43.733,15.093
		L458.99,360.539L479.114,350.477z"/>
	<path fill="#434A54" d="M237.483,169.203L124.214,55.926l-15.085,15.093L222.397,184.28c4.164,4.171,10.921,4.171,15.085,0
		S241.647,173.359,237.483,169.203z"/>
	<path fill="#434A54" d="M184.556,40.849l-22.632-22.625l-15.085,15.078l22.632,22.624c4.164,4.172,10.914,4.172,15.085,0
		C188.719,51.77,188.719,45.004,184.556,40.849z"/>
	<path fill="#E6E9ED" d="M170.666,373.335c0-11.405-4.445-22.124-12.5-30.17c-8.062-8.062-18.773-12.5-30.171-12.5
		c-23.522,0-42.662,19.14-42.662,42.67c0,11.391,4.437,22.108,12.491,30.154c8.062,8.062,18.773,12.5,30.171,12.5
		C151.525,415.989,170.666,396.85,170.666,373.335z"/>
	<g>
		<path fill="#434A54" d="M3.125,508.861C1.195,506.939,0,504.268,0,501.33V245.34c0-5.906,4.781-10.671,10.671-10.671
			c5.891,0,10.664,4.765,10.664,10.671v255.99c0,5.891-4.773,10.656-10.664,10.656C7.726,511.986,5.055,510.799,3.125,508.861z"/>
	</g>
	<path fill="#CCD1D9" d="M138.667,373.335c0,5.875-4.781,10.656-10.671,10.656c-5.891,0-10.664-4.781-10.664-10.656
		c0-5.905,4.773-10.671,10.664-10.671C133.885,362.664,138.667,367.43,138.667,373.335z"/>
</g>
</svg>
