<?xml version="1.0" encoding="utf-8"?>
<!-- Generator: Adobe Illustrator 16.0.0, SVG Export Plug-In . SVG Version: 6.00 Build 0)  -->
<!DOCTYPE svg PUBLIC "-//W3C//DTD SVG 1.1//EN" "http://www.w3.org/Graphics/SVG/1.1/DTD/svg11.dtd">
<svg version="1.1" id="Layer_1" xmlns="http://www.w3.org/2000/svg" xmlns:xlink="http://www.w3.org/1999/xlink" x="0px" y="0px"
	 width="512px" height="512px" viewBox="0 0 512 512" enable-background="new 0 0 512 512" xml:space="preserve">
<g id="witness">
	<g>
		<path fill="#ED5564" d="M490.115,0.01H276.78c-5.891,0-10.672,4.781-10.672,10.656v192.023c0,5.875,4.781,10.656,10.672,10.656
			h31.999V256l85.34-42.655h95.996c5.891,0,10.656-4.781,10.656-10.656V10.666C500.771,4.791,496.006,0.01,490.115,0.01z"/>
	</g>
	<g>
		<path fill="#E2A437" d="M268.608,434.431H51.398c0,0-56.623-263.74,108.605-263.74
			C325.216,170.691,268.608,434.431,268.608,434.431z"/>
	</g>
	<g>
		<path fill="#A0D468" d="M281.905,428.243l-1.203-0.344c-17.641-4.75-23.608-9.312-31.468-12.281
			c-27.858-10.625-35.107-18.28-36.967-21.874c-0.062-0.156-0.109-0.281-0.172-0.406l-0.234-32.373l-51.857-0.75l-51.857,0.75
			l-0.234,32.373c-0.062,0.125-0.109,0.25-0.172,0.406c-1.859,3.594-9.109,11.249-36.967,21.874
			c-7.859,2.969-13.828,7.531-31.468,12.281l-1.219,0.344c-16.062,5.312-26.858,20.187-26.858,36.998v46.749h148.775h148.775
			v-46.749C308.779,448.43,297.968,433.556,281.905,428.243z"/>
	</g>
	<g>
		<path fill="#EAC6BB" d="M251.688,298.029c0,59.592-56.795,114.401-91.684,114.401c-34.905,0-91.699-54.81-91.699-114.401
			c0-59.56,41.061-98.871,91.699-98.871S251.688,238.469,251.688,298.029z"/>
	</g>
	<g>
		<polygon fill="#FFCE54" points="176.769,237.907 94.225,292.718 63.977,299.967 71.117,261.156 91.396,207.533 148.285,187.097 
			214.955,191.534 242.954,239.532 250.969,274.968 		"/>
	</g>
	<g>
		<path fill="#F6BB42" d="M277.218,314.404c-3.047-48.123-16.047-98.372-52.701-124.808l-41.732,34.811l-12.03,17.625
			l106.308,72.591L277.218,314.404z"/>
	</g>
	<g>
		<path fill="#FFCE54" d="M42.571,318.186c41.467-7.562,87.293-30.062,136.229-66.904c29.171-21.999,50.498-42.436,58.592-50.498
			c-17.719-18.437-42.64-30.092-77.388-30.092C70.852,170.691,46.29,247.469,42.571,318.186z"/>
	</g>
	<g>
		<g>
			<path fill="#FFCE54" d="M384.588,138.645c-5.891,0-10.671-4.781-10.671-10.671V53.32c0-5.89,4.78-10.671,10.671-10.671
				S395.26,47.43,395.26,53.32v74.653C395.26,133.864,390.479,138.645,384.588,138.645z"/>
		</g>
		<g>
			<path fill="#FFCE54" d="M395.26,159.973c0,5.89-4.781,10.671-10.672,10.671s-10.671-4.781-10.671-10.671
				c0-5.891,4.78-10.656,10.671-10.656S395.26,154.082,395.26,159.973z"/>
		</g>
	</g>
</g>
</svg>
