<?xml version="1.0" encoding="utf-8"?>
<!-- Generator: Adobe Illustrator 24.0.0, SVG Export Plug-In . SVG Version: 6.00 Build 0)  -->
<svg version="1.1" id="Icon_Set" xmlns="http://www.w3.org/2000/svg" xmlns:xlink="http://www.w3.org/1999/xlink" x="0px" y="0px"
	 viewBox="0 0 256 256" enable-background="new 0 0 256 256" xml:space="preserve">
<g>
	<g>
		<path fill="#FFE2E2" d="M248.94,56.744v171.34c0,11.05-8.96,20-20,20H27.06c-11.04,0-20-8.95-20-20V56.744c0-11.05,8.96-20,20-20
			h201.88C239.98,36.744,248.94,45.694,248.94,56.744z"/>
		<path fill="#FFEFEE" d="M42.06,248.084h-15c-11.04,0-20-8.95-20-20V56.744c0-11.05,8.96-20,20-20h15c-11.04,0-20,8.95-20,20
			v171.34C22.06,239.134,31.02,248.084,42.06,248.084z"/>
		<g>
			<path fill="#FF4A73" d="M66.096,60.914H56.78c-2.761,0-5-2.239-5-5v-43c0-2.761,2.239-5,5-5h9.316c2.761,0,5,2.239,5,5v43
				C71.096,58.675,68.857,60.914,66.096,60.914z"/>
			<path fill="#FF4A73" d="M199.22,60.914h-9.316c-2.761,0-5-2.239-5-5v-43c0-2.761,2.239-5,5-5h9.316c2.761,0,5,2.239,5,5v43
				C204.22,58.675,201.981,60.914,199.22,60.914z"/>
		</g>
		<path fill="#FFCFCF" d="M248.94,56.744v171.34c0,11.05-8.96,20-20,20h-15c11.04,0,20-8.95,20-20V56.744c0-11.05-8.96-20-20-20h15
			C239.98,36.744,248.94,45.694,248.94,56.744z"/>
		<path fill="#5FCDFF" d="M248.94,83.594v144.49c0,11.05-8.96,20-20,20H27.06c-11.04,0-20-8.95-20-20V83.594H248.94z"/>
		<path fill="#73D7F9" d="M42.06,248.084h-15c-11.04,0-20-8.95-20-20V83.594h15v144.49C22.06,239.134,31.02,248.084,42.06,248.084z"
			/>
		<path fill="#30B6FF" d="M248.94,83.594v144.49c0,11.05-8.96,20-20,20h-15c11.04,0,20-8.95,20-20V83.594H248.94z"/>
	</g>
	<g>
		<path fill="#44C7B6" d="M101.06,113.936c7.663,0,15.327,2.965,21.171,8.87l5.767,5.84l5.78-5.84
			c9.112-9.206,22.606-11.24,33.665-6.112c3.152,1.45,6.1,3.496,8.689,6.112c11.687,11.81,11.687,30.974,0,42.796l-4.242,4.273
			l-39.56,39.973c-2.384,2.421-6.267,2.421-8.65,0l-38.023-38.419l-5.78-5.827c-11.7-11.822-11.7-30.987,0-42.796
			C85.733,116.902,93.396,113.936,101.06,113.936z"/>
		<path fill="#4BDBC3" d="M98.476,171.429l35.938,36.306l-2.085,2.111c-2.385,2.427-6.265,2.427-8.649,0l-38.024-38.417
			l-5.777-5.829c-11.7-11.82-11.7-30.981,0-42.793c5.854-5.906,13.521-8.871,21.178-8.871c2.154,0,4.307,0.231,6.418,0.701
			c-5.419,1.196-10.564,3.923-14.777,8.171c-11.7,11.811-11.7,30.973,0,42.793L98.476,171.429z"/>
		<path fill="#3BB2A0" d="M176.13,165.6l-4.239,4.273l-39.562,39.972c-2.385,2.427-6.265,2.427-8.649,0l-2.085-2.111l37.477-37.861
			l4.239-4.273c11.692-11.82,11.692-30.981,0-42.793c-2.59-2.615-5.538-4.666-8.692-6.111c-1.957-0.906-4-1.59-6.077-2.051
			c6.29-1.393,12.948-0.709,18.896,2.051c3.154,1.444,6.102,3.496,8.692,6.111C187.822,134.619,187.822,153.78,176.13,165.6z"/>
	</g>
	<g>
		<path fill="#5F266D" d="M228.94,32.745h-20.72v-19.83c0-4.962-4.038-9-9-9h-9.315c-4.962,0-9,4.038-9,9v19.83H75.096v-19.83
			c0-4.962-4.038-9-9-9H56.78c-4.962,0-9,4.038-9,9v19.83H27.06c-13.233,0-24,10.766-24,24v171.34c0,13.234,10.767,24,24,24h201.88
			c13.233,0,24-10.766,24-24V56.745C252.94,43.511,242.173,32.745,228.94,32.745z M188.904,12.915c0-0.551,0.449-1,1-1h9.315
			c0.551,0,1,0.449,1,1v43c0,0.551-0.449,1-1,1h-9.315c-0.551,0-1-0.449-1-1V12.915z M55.78,12.915c0-0.551,0.449-1,1-1h9.315
			c0.551,0,1,0.449,1,1v43c0,0.551-0.449,1-1,1H56.78c-0.551,0-1-0.449-1-1V12.915z M27.06,40.745h20.72v15.17c0,4.962,4.038,9,9,9
			h9.315c4.962,0,9-4.038,9-9v-15.17h105.809v15.17c0,4.962,4.038,9,9,9h9.315c4.962,0,9-4.038,9-9v-15.17h20.72
			c8.822,0,16,7.178,16,16v22.854H11.06V56.745C11.06,47.923,18.238,40.745,27.06,40.745z M228.94,244.085H27.06
			c-8.822,0-16-7.178-16-16V87.599h233.88v140.486C244.94,236.907,237.762,244.085,228.94,244.085z"/>
		<path fill="#5F266D" d="M205.928,224.084h-17c-5.285,0-5.292,8,0,8h17C211.213,232.084,211.22,224.084,205.928,224.084z"/>
		<path fill="#5F266D" d="M223.678,224.084h-2.75c-5.285,0-5.292,8,0,8h2.75C228.963,232.084,228.97,224.084,223.678,224.084z"/>
		<path fill="#5F266D" d="M178.974,119.992c-12.34-12.467-32.901-15.298-50.973,2.964c-18.131-18.361-38.656-15.377-50.966-2.965
			c-13.22,13.344-13.22,35.067,0.002,48.428l43.792,44.235c3.994,4.056,10.439,3.973,14.344,0.008
			c44.937-45.407,38.14-38.543,43.804-44.248C192.179,155.058,192.179,133.335,178.974,119.992z M173.292,162.785l-43.814,44.258
			c-0.79,0.803-2.152,0.81-2.957-0.007c-43.771-44.228-36.246-36.628-43.802-44.246c-10.146-10.253-10.147-26.927-0.003-37.166
			c10.175-10.258,26.525-10.254,36.668-0.006c6.044,6.121,6.451,7.029,8.61,7.03c0.001,0,0.001,0,0.002,0
			c2.159,0,2.565-0.905,8.623-7.027c9.897-10,26.355-10.419,36.667,0C183.423,135.862,183.422,152.536,173.292,162.785z"/>
		<path fill="#5F266D" d="M144.752,159.828h-12.753v-12.753c0-5.285-8-5.292-8,0v12.753h-12.753c-5.285,0-5.292,8,0,8h12.753v12.753
			c0,5.285,8,5.292,8,0v-12.753h12.753C150.037,167.828,150.044,159.828,144.752,159.828z"/>
	</g>
</g>
</svg>
