<?xml version="1.0" encoding="utf-8"?>
<!-- Generator: Adobe Illustrator 24.0.0, SVG Export Plug-In . SVG Version: 6.00 Build 0)  -->
<svg version="1.1" id="Icon_Set" xmlns="http://www.w3.org/2000/svg" xmlns:xlink="http://www.w3.org/1999/xlink" x="0px" y="0px"
	 viewBox="0 0 256 256" enable-background="new 0 0 256 256" xml:space="preserve">
<g>
	<g>
		<g>
			<g>
				<g>
					<g>
						<g>
							<circle fill="#B76C6C" cx="97.62" cy="88.049" r="28.062"/>
							<path fill="#965959" d="M90.509,60.899c2.266-0.597,4.655-0.91,7.111-0.91c15.503,0,28.066,12.563,28.066,28.056
								c0,15.503-12.563,28.066-28.066,28.066c-2.456,0-4.845-0.313-7.111-0.91c12.061-3.148,20.955-14.109,20.955-27.156
								C111.463,75.008,102.57,64.047,90.509,60.899z"/>
						</g>
						<g>
							<g>
								<g>
									<g>
										<path fill="#F9D335" d="M119.006,155.258v51.406c0,4.44-3.6,8.04-8.04,8.04H16.633c-4.44,0-8.04-3.6-8.04-8.04v-51.406
											c0-12.635,10.243-22.877,22.877-22.877h64.658C108.756,132.381,119.006,142.616,119.006,155.258z"/>
										<path fill="#F9E27D" d="M24.756,133.379v81.33h-8.128c-4.439,0-8.036-3.609-8.036-8.048v-51.399
											C8.592,144.966,15.394,136.249,24.756,133.379z"/>
										<path fill="#5FCDFF" d="M119.011,155.262v51.399c0,4.439-3.609,8.048-8.048,8.048h-8.198v-81.353
											C112.162,136.203,119.011,144.931,119.011,155.262z"/>
										<path fill="#5FCDFF" d="M24.756,133.379v81.33h-8.128c-4.439,0-8.036-3.609-8.036-8.048v-51.399
											C8.592,144.966,15.394,136.249,24.756,133.379z"/>
										<path fill="#FFBB98" d="M63.754,5.673c-10.776,0-20.514,4.365-27.573,11.424c-7.059,7.059-11.424,16.812-11.424,27.588
											v30.042c0,17.293,11.249,32.365,26.786,37.666v19.986h-7.657v18.095c0,4.957,4.018,8.975,8.975,8.975h21.797
											c4.957,0,8.975-4.018,8.975-8.975v-18.095h-7.657V112.45c15.516-5.153,26.789-19.838,26.789-37.016V44.685
											C102.766,23.147,85.307,5.673,63.754,5.673z"/>
										<path fill="#FFAA80" d="M102.766,47.725v27.709c0,18.844-13.561,34.692-31.411,38.244H71.34
											c-0.391,0.075-0.783,0.15-1.174,0.211c-1.911,0.331-3.868,0.512-5.87,0.542c-2.739,0.045-5.403-0.211-7.992-0.753
											c2.634-0.527,5.147-1.324,7.556-2.363c13.952-5.945,23.795-19.822,23.795-35.896v-22.08
											C92.561,52.135,97.709,50.344,102.766,47.725z"/>
										<path fill="#FFCAA6" d="M70.241,113.678c-0.015,0.045-0.045,0.105-0.075,0.211c-1.911,0.331-3.868,0.512-5.87,0.542
											c-2.739,0.045-5.403-0.211-7.992-0.753c-0.015,0-0.015,0-0.015,0c-17.941-3.612-31.531-19.942-31.531-38.952V56.395
											c4.35-0.946,6.726-0.849,14.012-3.176v21.508c0,16.24,9.918,30.523,23.991,36.589
											C65.139,112.354,67.637,113.151,70.241,113.678z"/>
										<path fill="#B76C6C" d="M102.779,44.686v3.026l-0.009,0.009c-5.059,2.627-10.22,4.418-15.13,5.616
											c-14.09,3.509-25.934,2.228-25.934,2.228L67.73,39.46c-0.557,0.362-13.561,8.623-27.846,13.394
											c-0.371,0.121-0.743,0.241-1.114,0.362c-4.687,1.504-9.486,2.608-14.016,2.905V44.686
											c0-19.028,13.607-34.78,31.475-38.279c1.383-0.269,2.785-0.464,4.214-0.585c1.095-0.102,2.2-0.148,3.323-0.148
											c2.543,0,5.087,0.26,7.509,0.733C79.045,7.92,85.951,11.726,91.325,17.1C98.398,24.145,102.779,33.91,102.779,44.686z"/>
										<path fill="#965959" d="M102.781,44.685v3.025l-0.015,0.015c-5.057,2.619-10.219,4.41-15.126,5.614v-8.654
											c0-16.195-9.843-30.072-23.886-35.971c-2.393-0.993-4.922-1.776-7.525-2.303c2.438-0.482,4.967-0.737,7.54-0.737
											c2.544,0,5.087,0.256,7.51,0.737c7.766,1.505,14.675,5.313,20.048,10.686C98.401,24.141,102.781,33.909,102.781,44.685z"
											/>
										<path fill="#C98585" d="M60.444,5.822c-3.1,1.875-5.95,4.131-8.502,6.683c-8.15,8.14-13.171,19.399-13.171,31.81v8.901
											c-4.687,1.504-9.486,2.608-14.016,2.905V44.686c0-19.028,13.607-34.78,31.475-38.279
											C57.613,6.138,59.014,5.943,60.444,5.822z"/>
									</g>
								</g>
							</g>
						</g>
					</g>
				</g>
			</g>
		</g>
		<g>
			<g>
				<path fill="#FFE2E2" d="M217.161,174.815h-72.865c-15.79,0-28.59-12.8-28.59-28.59v0c0-15.79,12.8-28.59,28.59-28.59h72.865
					c15.79,0,28.59,12.8,28.59,28.59v0C245.751,162.015,232.951,174.815,217.161,174.815z"/>
				<path fill="#FFEFEE" d="M155.681,174.817h-11.385c-15.787,0-28.592-12.804-28.592-28.592c0-7.894,3.203-15.044,8.372-20.22
					c5.176-5.169,12.326-8.372,20.22-8.372h11.385c-7.894,0-15.044,3.203-20.22,8.372c-5.169,5.176-8.372,12.326-8.372,20.22
					C127.089,162.013,139.894,174.817,155.681,174.817z"/>
				<path fill="#FFCFCF" d="M245.753,146.225c0,7.894-3.203,15.044-8.372,20.22c-5.176,5.169-12.326,8.372-20.22,8.372h-11.385
					c7.894,0,15.044-3.203,20.22-8.372c5.169-5.176,8.372-12.326,8.372-20.22c0-15.788-12.805-28.592-28.592-28.592h11.385
					C232.949,117.633,245.753,130.438,245.753,146.225z"/>
				<g>
					<g>
						<g>
							<path fill="#87828E" d="M247.412,240.667v0.854c0,4.859-3.943,8.802-8.802,8.802H122.847c-4.859,0-8.802-3.943-8.802-8.802
								v-0.854c0-28.808,18.237-53.282,43.728-62.635c0.607-0.22,1.224-0.44,1.84-0.643c6.628-2.218,13.722-3.415,21.107-3.415
								h0.018c7.385,0,14.479,1.197,21.107,3.415c0.616,0.202,1.232,0.423,1.84,0.643
								C229.228,187.405,247.412,211.913,247.412,240.667z"/>
							<path fill="#796E84" d="M247.413,240.665v0.853c0,4.86-3.941,8.809-8.801,8.809h-12.189c4.859,0,8.801-3.949,8.801-8.809
								c0-24.293-11.896-44.658-29.945-56.502c-9.414-6.246-19.994-9.804-30.644-10.767c1.999-0.187,4.031-0.276,6.087-0.276h0.016
								c7.387,0,14.481,1.203,21.104,3.421c0.618,0.195,1.235,0.423,1.845,0.642C229.23,187.413,247.413,211.922,247.413,240.665z"
								/>
							<path fill="#A4A4A5" d="M186.823,174.249c-10.837,0.981-21.381,4.621-30.644,10.767
								c-17.922,11.76-29.945,32.008-29.945,56.502c0,4.86,3.941,8.809,8.801,8.809h-12.189c-4.859,0-8.801-3.949-8.801-8.809
								v-0.853c0-28.865,18.277-53.286,43.727-62.629c0.609-0.219,1.227-0.447,1.845-0.642c6.623-2.218,13.717-3.421,21.104-3.421
								h0.016C182.793,173.972,184.824,174.062,186.823,174.249z"/>
						</g>
						<g>
							<path fill="#FFBB98" d="M167.366,192.598v11.935c0,7.38,5.983,13.363,13.363,13.363s13.363-5.983,13.363-13.363v-11.935
								H167.366z"/>
							<path fill="#FFCAA6" d="M181.266,192.602v25.297h-0.536c-7.38,0-13.363-5.983-13.363-13.363v-11.934H181.266z"/>
							<g>
								<path fill="#FFBB98" d="M205.226,101.934c-6.873-5.056-15.361-8.047-24.546-8.047c-9.185,0-17.673,2.991-24.546,8.047
									c-10.259,7.543-16.92,19.701-16.92,33.419v7.57v9.689c0,23.123,18.921,42.531,42.035,42.209
									c22.554-0.303,40.897-18.847,40.897-41.466v-10.433v-7.57C222.147,121.635,215.485,109.477,205.226,101.934z"/>
								<path fill="#FFCAA6" d="M187.618,194.234c-2.074,0.358-4.203,0.56-6.368,0.587c-23.114,0.321-42.035-19.086-42.035-42.209
									v-17.26c0-13.718,6.662-25.876,16.92-33.419c6.873-5.056,15.361-8.047,24.546-8.047c2.34,0,4.643,0.193,6.882,0.569
									c-6.533,1.092-12.544,3.716-17.664,7.478c-10.259,7.543-16.92,19.701-16.92,33.419v17.26
									C152.978,173.212,167.99,190.867,187.618,194.234z"/>
								<path fill="#FFAA80" d="M222.147,135.353v18.003c0,22.619-18.343,41.163-40.897,41.466
									c-2.523,0.037-4.992-0.165-7.396-0.587c19.536-3.313,34.529-20.435,34.529-40.879v-18.003
									c0-13.718-6.662-25.876-16.92-33.419c-5.12-3.762-11.13-6.386-17.664-7.478c2.239-0.376,4.542-0.569,6.882-0.569
									c9.185,0,17.673,2.991,24.546,8.047C215.485,109.477,222.147,121.635,222.147,135.353z"/>
								<g>
									<g>
										<g>
											<circle fill="#FFE2E2" cx="160.906" cy="162.326" r="9.208"/>
											<circle fill="#FFE2E2" cx="200.498" cy="162.326" r="9.208"/>
										</g>
									</g>
								</g>
							</g>
						</g>
					</g>
					<g>
						<path fill="#FFE2E2" d="M136.453,127.708c0,0,25.404-2.898,30.01-23.184c0,0,29.402,21.574,58.542,23.184v-23.563
							c0-19.162-15.534-34.696-34.696-34.696h-19.16c-19.162,0-34.696,15.534-34.696,34.696L136.453,127.708z"/>
						<path fill="#FFEFEE" d="M185.636,69.449c-19.156,0-34.689,15.533-34.689,34.699v18.991c-7.38,3.758-14.49,4.569-14.49,4.569
							v-23.56c0-19.165,15.533-34.699,34.689-34.699H185.636z"/>
						<path fill="#FFCFCF" d="M225,104.147v23.56c-4.869-0.271-9.747-1.101-14.49-2.299v-21.261
							c0-19.165-15.533-34.699-34.689-34.699h14.49C209.467,69.449,225,84.982,225,104.147z"/>
					</g>
				</g>
			</g>
		</g>
	</g>
	<g>
		<circle fill="#5F266D" cx="44.56" cy="70.6" r="5.226"/>
		<path fill="#5F266D" d="M82.98,75.83c2.88,0,5.22-2.34,5.22-5.23c0-2.893-2.353-5.23-5.22-5.23c-2.89,0-5.23,2.34-5.23,5.23
			C77.75,73.384,80.006,75.83,82.98,75.83z"/>
		<path fill="#5F266D" d="M63.77,95.53c6.116,0,10.97-4.987,10.97-10.97c0-2.149-1.738-4-4-4c-2.21,0-4,1.8-4,4
			c0,1.677-1.37,2.97-2.97,2.97c-1.64,0-2.97-1.33-2.97-2.97c0-2.2-1.79-4-4-4c-2.21,0-4,1.8-4,4
			C52.8,90.61,57.72,95.53,63.77,95.53z"/>
		<path fill="#5F266D" d="M55.63,201.9h2.62c5.285,0,5.293-8,0-8h-2.62C50.345,193.9,50.337,201.9,55.63,201.9z"/>
		<path fill="#5F266D" d="M73.25,201.9h14c5.285,0,5.293-8,0-8h-14C67.965,193.9,67.957,201.9,73.25,201.9z"/>
		<path fill="#5F266D" d="M217.31,180.18c0.34-0.46,0.67-0.92,0.98-1.39c17.45-0.6,31.46-14.97,31.46-32.56
			c0-13.79-8.61-25.61-20.75-30.36v-11.73c0-21.33-17.35-38.69-38.69-38.69h-19.16c-21.465,0-38.7,17.38-38.7,38.69v11.74
			c-8.65,3.38-15.51,10.36-18.73,19.09c-4.972-4.346-11.3-6.59-17.59-6.59c-9.807,0-14.451-0.005-16.148-0.005v-13.146
			c0.13-0.05,0.269-0.109,0.398-0.159c21.237,13.603,49.3-1.744,49.3-27.02c0-14.5-9.68-26.79-22.91-30.73
			c0-5.365,0.01-11.331,0.01-12.64c0-23.953-19.555-43-43.02-43c-23.222,0-43.01,18.712-43.01,43v30.05
			c0,17.454,10.658,33.665,26.79,40.44v13.205c-0.158,0-3.064,0.005-16.08,0.005c-14.798,0-26.87,12.035-26.87,26.93v51.35
			c0,6.64,5.4,12.04,12.04,12.04c12.047,0,83.01,0,94.33,0c0.94,0,1.85-0.11,2.72-0.31c-2.652,7.911-3.63,15.227-3.63,23.13
			c0,7.06,5.74,12.8,12.8,12.8h115.76c7.06,0,12.8-5.74,12.8-12.8C251.41,215.01,237.748,192.608,217.31,180.18z M181.19,190.82
			c-15.562,0.233-29.532-9.503-35.41-24.49c0-0.001-0.001-0.003-0.001-0.004h2.54c0,0.001,0.001,0.003,0.001,0.004
			c1.735,5.436,6.822,9.2,12.59,9.2c5.585,0,10.477-3.493,12.37-8.599h14.841c1.848,4.987,6.685,8.599,12.38,8.599
			c5.752,0,10.83-3.736,12.6-9.21c0.001-0.004,0.002-0.009,0.003-0.013c0.063,0.003,0.123,0.019,0.187,0.019h2.521
			c0,0.001-0.001,0.003-0.001,0.004C210.706,180.12,197.296,190.597,181.19,190.82z M171.367,197.839c0.001,0,0.002,0,0.003,0.001
			c3.03,0.66,6.15,0.99,9.31,0.99c3.123,0,6.323-0.34,9.41-0.99c0,0,0.001,6.69,0.001,6.693c0,5.162-4.2,9.362-9.363,9.362
			s-9.363-4.2-9.363-9.362C171.366,199.396,171.367,198.056,171.367,197.839z M168.6,110.81c9.7,6.29,20.164,11.599,31.512,15.664
			c-3.761,0.737-4.404,5.768-1.05,7.475l10.536,5.361c4.755,2.414,8.301-4.753,3.628-7.131l-7.919-4.03h0.003
			c4.09,1.21,8.3,2.2,12.58,2.83c0.17,1.44,0.26,2.9,0.26,4.37v18.01c0,1.679-0.11,3.337-0.34,4.966h-4.52
			c-0.065,0-0.125,0.016-0.189,0.019c-0.001-0.002-0.001-0.004-0.001-0.005c-1.7-5.34-6.71-9.22-12.6-9.22
			c-6.11,0-11.27,4.17-12.76,9.81c0,0,0,0,0,0.001h-14.08c0,0,0,0,0-0.001c-1.49-5.64-6.64-9.81-12.75-9.81
			c-5.898,0-10.897,3.868-12.599,9.206h-4.662c-0.29-1.889-0.44-3.797-0.44-5.716v-17.26c0-1.7,0.12-3.4,0.35-5.06
			C154.213,127.271,164.134,121.093,168.6,110.81z M195.29,162.33c0-2.88,2.34-5.21,5.21-5.21s5.21,2.33,5.21,5.21
			c0,2.87-2.34,5.2-5.21,5.2S195.29,165.2,195.29,162.33z M155.7,162.33c0-2.88,2.33-5.21,5.21-5.21c2.87,0,5.2,2.33,5.2,5.21
			c0,2.87-2.33,5.2-5.2,5.2C158.03,167.53,155.7,165.2,155.7,162.33z M241.75,146.23c0,11.57-8.04,21.31-18.84,23.89
			c2.09-5.2,3.24-10.86,3.24-16.76v-18.01c0-1.26-0.05-2.52-0.16-3.77c1.682-0.408,3.01-1.969,3.01-3.87v-3.02
			C236.6,128.87,241.75,136.96,241.75,146.23z M140.45,104.14c0-16.887,13.662-30.69,30.7-30.69h19.16
			c16.92,0,30.69,13.77,30.69,30.69c0,8.438,0,10.226,0,19.2c-19.138-2.336-42.018-14.432-52.17-22.04
			c-2.405-1.723-5.633-0.419-6.27,2.34c-2.361,10.385-11.732,16.414-22.11,19.17C140.45,107.077,140.45,110.769,140.45,104.14z
			 M132.45,124.69v3.02c0,1.72,1.12,3.323,2.92,3.85c-0.21,2.411-0.16,2.063-0.16,21.05c0,6.04,1.22,12.01,3.5,17.55
			c-11.005-2.558-19-12.445-19-23.93C119.71,137.128,124.716,128.958,132.45,124.69z M47.884,136.38
			c1.422,0,2.234-0.005,3.656-0.005c2.209,0,4-1.791,4-4V117.63c0,0,0,0,0,0c2.69,0.53,5.44,0.81,8.23,0.81
			c2.556,0,5.435-0.262,8.21-0.81c0.001,0,0.001,0,0.002,0v14.746c0,2.209,1.791,4,4,4c2.974,0,0.456,0.005,3.656,0.005v14.097
			c0,2.741-2.235,4.971-4.981,4.971H52.865c-2.747,0-4.981-2.229-4.981-4.971V136.38z M121.68,88.05
			c0,16.996-17.251,28.665-32.98,22.34c10.92-7.83,18.07-20.62,18.07-34.96V65.8C115.51,69.4,121.68,78.02,121.68,88.05z
			 M63.76,9.68c19.262,0,35.01,15.318,35.01,35.55c-9.58,4.484-20.804,6.537-31.38,6.56l4.08-10.93
			c1.343-3.545-2.634-6.859-5.92-4.75c-2.931,1.956-21.162,12.81-36.79,15.51v-6.94C28.76,25.236,44.692,9.68,63.76,9.68z
			 M28.75,74.73V59.72c10.402-1.506,22.01-6.399,31.36-11.3l-2.15,5.75c-0.917,2.454,0.726,5.096,3.32,5.37
			c5.646,0.665,22.018,0.666,37.49-5.59c0,20.252,0,0.856,0,21.48c0,19.227-15.711,34.764-34.53,35
			C44.6,110.737,28.75,94.067,28.75,74.73z M31.46,136.38h8.424v14.097c0,7.152,5.823,12.971,12.981,12.971h21.791
			c7.158,0,12.981-5.818,12.981-12.971V136.38h8.492c0.898,0,1.777,0.06,2.636,0.19v74.13h-70.01v-74.119
			c0.001,0,0.003,0,0.004-0.001C29.64,136.45,30.54,136.38,31.46,136.38z M12.59,206.66v-51.41c0-6.428,3.238-12.126,8.166-15.527
			V210.7H16.63C14.4,210.7,12.59,208.89,12.59,206.66z M110.96,210.7h-4.194v-71.033c0.001,0.001,0.003,0.002,0.004,0.003
			c1.96,1.34,3.65,3.04,4.98,5.01c-0.293,5.07,0.754,10.712,3.25,15.81v46.17C115,208.89,113.19,210.7,110.96,210.7z M123,170.87
			c5.49,4.75,12.59,7.71,20.36,7.93c0.29,0.44,0.6,0.87,0.91,1.3c-8.46,5.11-15.68,11.92-21.27,19.86V170.87z M243.41,241.52
			c0,2.65-2.15,4.8-4.8,4.8H122.85c-2.65,0-4.8-2.15-4.8-4.8c0-24.466,12.947-44.622,31.59-55.3
			c4.079,3.909,8.727,6.968,13.726,9.088v9.225c0,9.573,7.789,17.362,17.363,17.362s17.363-7.789,17.363-17.362v-9.204
			c5.159-2.16,9.839-5.24,13.839-9.04C230.346,196.906,243.41,216.925,243.41,241.52z"/>
		<path fill="#5F266D" d="M185.73,173.64c-2.21,0-4,1.79-4,4c0,0.58-0.47,1.06-1.05,1.06s-1.05-0.48-1.05-1.06c0-2.21-1.79-4-4-4
			s-4,1.79-4,4c0,4.957,4.034,9.06,9.05,9.06c5.021,0,9.05-4.108,9.05-9.06C189.73,175.43,187.94,173.64,185.73,173.64z"/>
		<path fill="#5F266D" d="M158.686,141.151c0,2.373,1.924,4.297,4.298,4.297s4.298-1.924,4.298-4.297
			c0-2.374-1.924-4.298-4.298-4.298S158.686,138.778,158.686,141.151z"/>
		<path fill="#5F266D" d="M198.473,145.449c2.373,0,4.298-1.924,4.298-4.297c0-2.374-1.924-4.298-4.298-4.298
			s-4.298,1.924-4.298,4.298C194.176,143.525,196.1,145.449,198.473,145.449z"/>
		<path fill="#5F266D" d="M151.859,139.311l10.536-5.361c4.709-2.396,1.092-9.527-3.628-7.131l-10.536,5.361
			C143.558,134.558,147.106,141.723,151.859,139.311z"/>
	</g>
</g>
</svg>
