<?xml version="1.0" encoding="utf-8"?>
<!-- Generator: Adobe Illustrator 24.0.0, SVG Export Plug-In . SVG Version: 6.00 Build 0)  -->
<svg version="1.1" id="Icon_Set" xmlns="http://www.w3.org/2000/svg" xmlns:xlink="http://www.w3.org/1999/xlink" x="0px" y="0px"
	 viewBox="0 0 256 256" enable-background="new 0 0 256 256" xml:space="preserve">
<g>
	<g>
		<g>
			<circle fill="#5FCDFF" cx="200.401" cy="48.566" r="13.938"/>
			<circle fill="#5FCDFF" cx="160.065" cy="30.208" r="10.245"/>
			<g>
				<path fill="#FFE2E2" d="M210.892,133.866h-15.627c-15.899,0-28.788,12.889-28.788,28.788v78.634
					c0,3.628,2.904,6.589,6.532,6.659l59.883,1.154c3.728,0.072,6.789-2.93,6.789-6.659v-79.789
					C239.681,146.755,226.792,133.866,210.892,133.866z"/>
				<path fill="#FFEFEE" d="M234.825,248.853c-0.61,0.18-1.26,0.26-1.93,0.25l-59.89-1.16c-3.62-0.07-6.53-3.03-6.53-6.65v-78.64
					c0-15.9,12.89-28.79,28.79-28.79h15c-15.9,0-28.79,12.89-28.79,28.79v78.64c0,3.62,2.91,6.58,6.53,6.65L234.825,248.853z"/>
				<path fill="#FFCFCF" d="M239.684,162.653v79.79c0,3.73-3.06,6.73-6.79,6.66l-13.07-0.25c2.8-0.78,4.86-3.35,4.86-6.41v-79.79
					c0-15.9-12.89-28.79-28.79-28.79h15C226.795,133.863,239.684,146.753,239.684,162.653z"/>
				<path fill="#44C7B6" d="M215.625,133.866h-27.879v-9.119c0-5.798,4.7-10.498,10.498-10.498h6.883
					c5.798,0,10.498,4.7,10.498,10.498V133.866z"/>
				<path fill="#3BB2A0" d="M215.623,124.743v9.12h-10.325v-9.12c0-5.211-3.8-9.533-8.776-10.352
					c0.558-0.096,1.136-0.145,1.721-0.145h6.883C210.922,114.246,215.623,118.948,215.623,124.743z"/>
				<rect x="187.746" y="81.733" fill="#FFE2E2" width="57.646" height="16.889"/>
				<rect x="187.746" y="81.735" fill="#FFEFEE" width="10.325" height="16.885"/>
				<path fill="#4BDBC3" d="M206.847,114.391c-4.977,0.819-8.776,5.142-8.776,10.352v9.12h-10.325v-9.12
					c0-5.796,4.701-10.497,10.497-10.497h6.883C205.711,114.246,206.289,114.295,206.847,114.391z"/>
				<rect x="235.068" y="81.735" fill="#FFCFCF" width="10.325" height="16.885"/>
			</g>
		</g>
		<g>
			<g>
				<g>
					<circle fill="#B76C6C" cx="113.777" cy="102.339" r="32.516"/>
					<path fill="#965959" d="M105.537,70.878c2.626-0.692,5.394-1.055,8.24-1.055c17.963,0,32.521,14.558,32.521,32.51
						c0,17.963-14.558,32.521-32.521,32.521c-2.846,0-5.614-0.363-8.24-1.055c13.975-3.648,24.281-16.348,24.281-31.466
						C129.818,87.227,119.512,74.526,105.537,70.878z"/>
				</g>
				<g>
					<g>
						<g>
							<g>
								<path fill="#F9D335" d="M138.558,180.217v59.566c0,5.145-4.171,9.316-9.316,9.316H19.934c-5.145,0-9.316-4.171-9.316-9.316
									v-59.566c0-14.64,11.868-26.509,26.509-26.509h74.922C126.681,153.708,138.558,165.567,138.558,180.217z"/>
								<path fill="#F9E27D" d="M29.347,154.864v94.24h-9.419c-5.144,0-9.312-4.182-9.312-9.325V180.22
									C10.616,168.29,18.498,158.19,29.347,154.864z"/>
								<path fill="#5FCDFF" d="M138.563,180.22v59.558c0,5.144-4.182,9.325-9.325,9.325h-9.499v-94.267
									C130.628,158.137,138.563,168.25,138.563,180.22z"/>
								<path fill="#5FCDFF" d="M29.347,154.864v94.24h-9.419c-5.144,0-9.312-4.182-9.312-9.325V180.22
									C10.616,168.29,18.498,158.19,29.347,154.864z"/>
								<path fill="#FFBB98" d="M74.535,6.886c-12.487,0-23.771,5.058-31.95,13.237c-8.179,8.179-13.237,19.48-13.237,31.967v34.81
									c0,20.038,13.034,37.503,31.038,43.645v23.159h-8.872v20.968c0,5.743,4.656,10.4,10.4,10.4h25.258
									c5.743,0,10.4-4.656,10.4-10.4v-20.968h-8.872v-23.092c17.979-5.971,31.041-22.987,31.041-42.892v-35.63
									C119.74,27.134,99.509,6.886,74.535,6.886z"/>
								<path fill="#FFAA80" d="M119.74,55.614v32.107c0,21.835-15.713,40.199-36.397,44.315h-0.017
									c-0.453,0.087-0.907,0.174-1.36,0.244c-2.215,0.384-4.482,0.593-6.802,0.628c-3.174,0.052-6.261-0.244-9.261-0.872
									c3.052-0.61,5.965-1.535,8.755-2.738c16.167-6.889,27.573-22.968,27.573-41.594V62.119
									C107.915,60.724,113.88,58.648,119.74,55.614z"/>
								<path fill="#FFCAA6" d="M82.052,132.036c-0.017,0.052-0.052,0.122-0.087,0.244c-2.215,0.384-4.482,0.593-6.802,0.628
									c-3.174,0.052-6.261-0.244-9.261-0.872c-0.017,0-0.017,0-0.017,0c-20.788-4.186-36.537-23.108-36.537-45.135V65.659
									c5.04-1.096,7.794-0.983,16.237-3.68v24.922c0,18.818,11.493,35.368,27.799,42.397
									C76.14,130.501,79.035,131.425,82.052,132.036z"/>
								<path fill="#B76C6C" d="M119.755,52.092v3.506l-0.011,0.011c-5.862,3.044-11.842,5.12-17.531,6.507
									c-16.327,4.066-30.051,2.581-30.051,2.581l6.98-18.661c-0.645,0.419-15.714,9.992-32.266,15.52
									c-0.43,0.14-0.86,0.28-1.291,0.419c-5.431,1.742-10.992,3.022-16.241,3.366V52.092c0-22.049,15.767-40.301,36.472-44.356
									c1.603-0.312,3.227-0.538,4.883-0.678c1.269-0.118,2.549-0.172,3.85-0.172c2.947,0,5.894,0.301,8.701,0.85
									c9.002,1.753,17.004,6.163,23.232,12.39C114.678,28.29,119.755,39.605,119.755,52.092z"/>
								<path fill="#965959" d="M119.757,52.091v3.505l-0.017,0.017c-5.86,3.035-11.842,5.11-17.527,6.505V52.091
									c0-18.765-11.406-34.845-27.677-41.682c-2.773-1.151-5.703-2.058-8.72-2.668c2.825-0.558,5.755-0.855,8.737-0.855
									c2.947,0,5.895,0.296,8.703,0.855c8.999,1.744,17.004,6.156,23.23,12.382C114.682,28.285,119.757,39.604,119.757,52.091z"/>
								<path fill="#C98585" d="M70.699,7.059c-3.592,2.173-6.894,4.786-9.852,7.744c-9.443,9.433-15.262,22.479-15.262,36.859
									v10.314c-5.431,1.742-10.992,3.022-16.241,3.366V52.092c0-22.049,15.767-40.301,36.472-44.356
									C67.419,7.424,69.043,7.199,70.699,7.059z"/>
							</g>
						</g>
					</g>
				</g>
			</g>
		</g>
	</g>
	<g>
		<path fill="#5F266D" d="M245.389,77.735h-57.64c-2.21,0-4,1.79-4,4v16.89c0,2.21,1.79,4,4,4h9.936v7.63
			c-7.728,0.292-13.936,6.681-13.936,14.49v7.21c-12.42,4.67-21.27,16.67-21.27,30.7v78.63c0,5.77,4.69,10.55,10.45,10.66
			c0.325,0.006,59.776,1.16,60.1,1.16c5.848,0,10.65-4.725,10.65-10.66v-79.79c0-15.06-10.2-27.77-24.05-31.6v-6.31
			c0-7.8-6.21-14.19-13.94-14.48c-0.001,0-0.003,0-0.004,0v-7.64h39.704c2.21,0,4-1.79,4-4v-16.89
			C249.389,79.525,247.599,77.735,245.389,77.735z M235.679,162.655v79.79c0,1.479-1.189,2.66-2.71,2.66l-59.88-1.16
			c-1.44-0.02-2.61-1.22-2.61-2.66v-78.63c0-13.67,11.12-24.79,24.79-24.79h15.62C224.559,137.865,235.679,148.985,235.679,162.655z
			 M211.629,124.745v5.12c-9.035,0-11.474,0-19.88,0v-5.12c0-3.58,2.91-6.5,6.49-6.5c1.604,0,3.246,0,6.89,0
			C208.709,118.245,211.629,121.165,211.629,124.745z M241.389,94.625c-43.974,0-25.596,0-49.64,0v-8.89h49.64V94.625z"/>
		<path fill="#5F266D" d="M206.819,65.315c9.23-3.53,13.87-13.93,10.33-23.17c-3.563-9.312-13.961-13.849-23.16-10.33
			c-9.31,3.56-13.868,14.023-10.34,23.17C187.189,64.232,197.598,68.855,206.819,65.315z M196.849,39.285
			c5.134-1.967,10.86,0.588,12.83,5.73c1.96,5.11-0.61,10.87-5.72,12.83c-5.12,1.96-10.88-0.61-12.84-5.72
			C189.159,47.005,191.729,41.245,196.849,39.285z"/>
		<path fill="#5F266D" d="M173.369,25.115c-2.777-7.268-10.96-11.06-18.4-8.21c-7.33,2.81-11.02,11.06-8.21,18.4
			c2.751,7.181,10.881,11.08,18.4,8.21C172.489,40.705,176.179,32.445,173.369,25.115z M162.299,36.035
			c-3.28,1.261-6.84-0.412-8.07-3.59c-1.23-3.22,0.39-6.84,3.6-8.07c3.286-1.261,6.853,0.437,8.07,3.6
			C167.129,31.185,165.509,34.805,162.299,36.035z"/>
		<circle fill="#5F266D" cx="52.295" cy="82.12" r="6.055"/>
		<path fill="#5F266D" d="M96.809,88.175c3.35,0,6.06-2.71,6.06-6.06c0-3.341-2.712-6.05-6.06-6.05c-3.34,0-6.05,2.71-6.05,6.05
			C90.759,85.454,93.475,88.175,96.809,88.175z"/>
		<path fill="#5F266D" d="M93.859,132.935c24.14,15.756,56.43-1.616,56.43-30.6c0-16.68-11.24-30.78-26.55-35.13
			c0-6.186,0.02-13.864,0.02-15.11c0-28.021-23.022-49.2-49.21-49.2h-0.02c-25.618,0-49.18,20.514-49.18,49.18
			c0,12.38,0,21.501,0,34.83c0,19.017,11.02,37.854,31.032,46.431v16.365c-0.078,0-4.98,0.004-19.263,0.004
			c-16.822,0-30.508,13.686-30.508,30.577v59.501c0,7.343,5.974,13.316,13.316,13.316c14.399,0,92.572,0,109.312,0
			c7.342,0,13.315-5.974,13.315-13.316v-59.57c0-16.967-13.86-30.508-30.508-30.508c-14.263,0-15.424-0.004-19.342-0.004v-16.294
			C92.948,133.311,93.386,133.134,93.859,132.935z M88.705,157.701c1.397,0,2.049,0.004,4.87,0.004v16.971
			c0,3.526-2.874,6.394-6.407,6.394h-25.25c-3.533,0-6.407-2.868-6.407-6.394v-16.971c1.839,0,3.032-0.004,4.871-0.004
			c2.209,0,4-1.791,4-4v-17.876c3.319,0.72,6.718,1.09,10.178,1.09c3.355,0,6.778-0.356,10.146-1.069v17.855
			C84.705,155.91,86.496,157.701,88.705,157.701z M142.289,102.335c0,20.651-21.398,34.482-40.15,26.03
			c13.02-8.89,21.6-23.84,21.6-40.65v-12.09C134.569,79.675,142.289,90.115,142.289,102.335z M33.349,52.085
			c0-22.961,18.742-41.19,41.19-41.19c21.551,0,41.2,16.92,41.2,42.24c-11.543,5.476-25.297,7.94-37.9,7.82l5.05-13.52
			c1.331-3.573-2.677-6.859-5.93-4.75c-8.609,5.532-27.831,15.687-43.61,18.19V52.085z M33.349,86.905v-17.95
			c12.63-1.708,26.901-7.855,38.14-13.87l-3.07,8.21c-0.912,2.461,0.719,5.105,3.32,5.38c7.509,0.906,26.671,0.463,44-6.79
			c0,7.095,0,13.255,0,25.83c0,22.358-18.163,40.87-40.63,41.2C51.761,129.215,33.349,109.479,33.349,86.905z M14.611,239.783
			v-59.57c0-8.098,4.3-15.208,10.735-19.174v84.06h-5.419C16.996,245.099,14.611,242.714,14.611,239.783z M134.554,180.213v59.57
			c0,2.932-2.385,5.316-5.315,5.316h-5.5v-84.112C130.219,164.943,134.554,172.081,134.554,180.213z M115.739,158.013v87.086H33.346
			v-87.072c1.228-0.208,2.487-0.322,3.772-0.322H47.51v16.971c0,7.937,6.463,14.394,14.407,14.394h25.25
			c7.944,0,14.407-6.457,14.407-14.394v-16.971h10.472C113.304,157.705,114.537,157.814,115.739,158.013z"/>
		<path fill="#5F266D" d="M74.559,110.375c6.595,0,12.07-5.364,12.07-12.07c0-2.22-1.803-4-4-4c-2.21,0-4,1.79-4,4
			c0,2.289-1.899,4.07-4.07,4.07c-2.25,0-4.08-1.83-4.08-4.07c0-2.21-1.79-4-4-4c-2.21,0-4,1.79-4,4
			C62.479,104.955,67.899,110.375,74.559,110.375z"/>
		<path fill="#5F266D" d="M100.769,224.495h-12c-5.285,0-5.293,8,0,8h12C106.054,232.495,106.062,224.495,100.769,224.495z"/>
		<path fill="#5F266D" d="M73.769,224.495h-2.5c-5.285,0-5.293,8,0,8h2.5C79.054,232.495,79.062,224.495,73.769,224.495z"/>
	</g>
</g>
</svg>
