<?xml version="1.0" encoding="utf-8"?>
<!-- Generator: Adobe Illustrator 24.0.0, SVG Export Plug-In . SVG Version: 6.00 Build 0)  -->
<svg version="1.1" id="Icon_Set" xmlns="http://www.w3.org/2000/svg" xmlns:xlink="http://www.w3.org/1999/xlink" x="0px" y="0px"
	 viewBox="0 0 256 256" enable-background="new 0 0 256 256" xml:space="preserve">
<g>
	<g>
		<g>
			<g>
				<g>
					<g>
						<g>
							<polygon fill="#87828E" points="113.508,165.871 81.223,165.871 83.949,94.669 110.782,94.669 							"/>
							<path fill="#FFE2E2" d="M173.272,122.577H21.459c-5.955,0-10.762-4.807-10.762-10.762V19.408
								c0-5.955,4.807-10.762,10.762-10.762h151.813c5.955,0,10.762,4.807,10.762,10.762v92.48
								C184.034,117.771,179.227,122.577,173.272,122.577z"/>
							<polygon fill="#A4A4A5" points="93.678,122.577 91.985,165.871 81.223,165.871 82.916,122.577 							"/>
							<path fill="#FFEFEE" d="M32.221,122.577H21.459c-5.955,0-10.762-4.807-10.762-10.762V19.408
								c0-5.955,4.807-10.762,10.762-10.762h10.762c-5.955,0-10.762,4.807-10.762,10.762v92.408
								C21.459,117.771,26.266,122.577,32.221,122.577z"/>
							<rect x="26.487" y="25.605" fill="#5FCDFF" width="141.757" height="80.009"/>
							<rect x="26.488" y="25.608" fill="#73D7F9" width="10.762" height="80.01"/>
							<rect x="157.481" y="25.608" fill="#30B6FF" width="10.762" height="80.01"/>
							<path fill="#FFCFCF" d="M184.034,19.408v92.48c0,5.883-4.807,10.69-10.762,10.69H162.51c5.955,0,10.762-4.807,10.762-10.69
								v-92.48c0-5.955-4.807-10.762-10.762-10.762h10.762C179.227,8.646,184.034,13.453,184.034,19.408z"/>
						</g>
					</g>
				</g>
			</g>
		</g>
		<g>
			<g>
				<g>
					<g>
						<g>
							<path fill="#F9D335" d="M245.308,191.671v48.154c0,4.159-3.372,7.531-7.531,7.531h-88.366c-4.159,0-7.531-3.372-7.531-7.531
								v-48.154c0-11.836,9.595-21.43,21.43-21.43h60.568C235.706,170.241,245.308,179.828,245.308,191.671z"/>
							<path fill="#FFBB98" d="M193.551,51.549c-10.095,0-19.217,4.089-25.829,10.701c-6.612,6.612-10.701,15.748-10.701,25.843
								v28.141c0,16.199,10.537,30.318,25.092,35.283v18.722h22.888v-18.668c14.535-4.827,25.094-18.583,25.094-34.675V88.093
								C230.095,67.917,213.741,51.549,193.551,51.549z"/>
							<path fill="#F9E27D" d="M157.02,171.176v76.185h-7.614c-4.158,0-7.528-3.38-7.528-7.539v-48.148
								C141.878,182.03,148.25,173.865,157.02,171.176z"/>
							<path fill="#5FCDFF" d="M245.312,191.674v48.148c0,4.158-3.38,7.539-7.539,7.539h-7.679v-76.207
								C238.897,173.822,245.312,181.997,245.312,191.674z"/>
							<path fill="#5FCDFF" d="M157.02,171.176v76.185h-7.614c-4.158,0-7.528-3.38-7.528-7.539v-48.148
								C141.878,182.03,148.25,173.865,157.02,171.176z"/>
							<path fill="#B76C6C" d="M230.099,88.094v28.802c0,4.595-0.859,9.011-2.438,13.077h-68.005
								c-1.698-4.266-2.637-8.911-2.637-13.737V88.094c0-10.101,4.096-19.232,10.7-25.845c6.614-6.614,15.735-10.7,25.835-10.7
								C213.744,51.549,230.099,67.913,230.099,88.094z"/>
						</g>
					</g>
				</g>
			</g>
		</g>
	</g>
	<g>
		<path fill="#5F266D" d="M118.845,93.043h1.96c5.281,0,5.295-8,0-8h-1.96C113.542,85.043,113.569,93.043,118.845,93.043z"/>
		<path fill="#5F266D" d="M223.876,166.239c-11.095,0-14.036-0.003-14.871-0.003v-11.893c14.733-6.13,25.089-20.716,25.089-37.449
			v-28.8c0-24.537-21.756-43.535-46.06-40.16v-28.53c0-8.14-6.62-14.76-14.76-14.76H21.455c-8.14,0-14.76,6.62-14.76,14.76v92.41
			c0,8.14,6.62,14.76,14.76,14.76h57.302l-1.38,35.298H64.219c-5.285,0-5.292,8,0,8c7.808,0,58.546,0,66.365,0c5.285,0,5.292-8,0-8
			h-13.229l-1.38-35.298c13.945,0,24.336,0,38.38,0c5.449,20.844,22.755,27.056,23.755,27.722v11.94
			c-0.021,0-2.924,0.003-14.806,0.003c-14.021,0-25.429,11.407-25.429,25.485v48.102c0,6.358,5.173,11.531,11.531,11.531
			c11.183,0,77.373,0,88.369,0c6.358,0,11.531-5.173,11.531-11.531v-48.157C249.305,177.646,237.898,166.239,223.876,166.239z
			 M85.383,161.871l1.38-35.298h21.206l1.38,35.298H85.383z M21.455,118.573c-3.72,0-6.76-3.03-6.76-6.76v-92.41
			c0-3.72,3.04-6.76,6.76-6.76h151.82c3.73,0,6.76,3.04,6.76,6.76v30.48c-2.75,0.97-5.36,2.23-7.79,3.74v-28.02c0-2.21-1.79-4-4-4
			H26.485c-2.21,0-4,1.79-4,4v80.01c0,2.21,1.79,4,4,4h126.53c0,7.163-0.02,7.553,0.07,8.96
			C142.139,118.573,26.53,118.573,21.455,118.573z M153.136,85.043h-17.331c-5.305,0-5.275,8,0,8h17.21v8.57H30.485v-72.01h133.76
			v30.52C157.955,66.71,153.855,75.415,153.136,85.043z M162.495,125.973c-0.74-2.4-1.21-4.88-1.39-7.4
			c-0.125-1.61-0.09,0.03-0.09-30.48c0-17.984,14.62-32.54,32.54-32.54c17.94,0,32.54,14.6,32.54,32.54v28.8
			c0,3.15-0.46,6.2-1.31,9.08C217.672,125.973,169.35,125.973,162.495,125.973z M166.175,133.973h55.03
			C208.631,154.185,179.226,154.934,166.175,133.973z M201.006,156.733v9.509h-14.896v-9.509c2.438,0.459,4.927,0.7,7.456,0.7
			C195.932,157.433,198.483,157.206,201.006,156.733C201.005,156.733,201.005,156.733,201.006,156.733z M153.02,243.357h-3.615
			c-1.947,0-3.531-1.584-3.531-3.531v-48.157c0-5.763,2.823-10.866,7.146-14.041V243.357z M226.095,243.357H161.02v-68.951
			c0.749-0.099,1.508-0.167,2.283-0.167c3.702,0,52.222,0,60.573,0c0.753,0,1.49,0.064,2.219,0.157V243.357z M241.305,239.825
			c0,1.947-1.584,3.531-3.531,3.531h-3.679v-65.777c4.36,3.171,7.21,8.297,7.21,14.089V239.825z"/>
	</g>
</g>
</svg>
