<?xml version="1.0" encoding="utf-8"?>
<!-- Generator: Adobe Illustrator 24.0.0, SVG Export Plug-In . SVG Version: 6.00 Build 0)  -->
<svg version="1.1" id="Icon_Set" xmlns="http://www.w3.org/2000/svg" xmlns:xlink="http://www.w3.org/1999/xlink" x="0px" y="0px"
	 viewBox="0 0 256 256" enable-background="new 0 0 256 256" xml:space="preserve">
<g>
	<g>
		<g>
			<g>
				<g>
					<g>
						<g>
							<g>
								<path fill="#FFE2E2" d="M130.558,73.51v73.72c0,5.168-4.174,9.453-9.453,9.453H38.537c-5.247,0-9.453-4.252-9.453-9.453
									V73.51c0-2.652,1.134-5.094,2.842-6.756v-0.006c0.503-0.482,41.147-40.244,41.284-40.381
									c3.366-3.293,9.118-4.052,13.701,0.473l40.805,39.909v0.006c1.024,1,1.794,2.206,2.272,3.527
									c0.164,0.442,0.291,0.891,0.382,1.351C130.492,72.243,130.558,72.873,130.558,73.51z"/>
								<path fill="#FFCFCF" d="M106.925,156.687h14.181c5.219,0,9.454-4.235,9.454-9.454V73.511c0-2.543-1.03-4.982-2.846-6.76
									L86.429,26.365c-3.306-3.238-9.032-4.102-13.699,0.473l40.803,39.915c1.815,1.777,2.846,4.216,2.846,6.76v73.721
									C116.379,152.451,112.144,156.687,106.925,156.687z"/>
								<path fill="#FFEFEE" d="M43.263,147.233V73.511c0-2.543,1.03-4.982,2.846-6.759l40.803-39.915
									c-4.513-4.425-10.24-3.86-13.699-0.473c-7.889,7.718-31.852,31.16-41.289,40.391c-1.817,1.778-2.842,4.213-2.842,6.756
									v73.721c0,5.221,4.233,9.454,9.454,9.454h14.181C47.498,156.687,43.263,152.451,43.263,147.233z"/>
							</g>
						</g>
					</g>
				</g>
				<path fill="#B76C6C" d="M98.806,100.427v56.256h-37.97v-56.256c0-2.236,1.806-4.042,4.036-4.042H94.77
					C97,96.385,98.806,98.191,98.806,100.427z"/>
				<path fill="#C98585" d="M73.961,96.385c-2.23,0-4.036,1.806-4.036,4.042v56.256h-9.089v-56.256c0-2.236,1.806-4.042,4.036-4.042
					H73.961z"/>
				<path fill="#965959" d="M98.806,100.427v56.256h-9.089v-56.256c0-2.236-1.806-4.042-4.036-4.042h9.089
					C97,96.385,98.806,98.191,98.806,100.427z"/>
				<g>
					<path fill="#B76C6C" d="M17.633,91.638c-2.38,0-4.762-0.899-6.591-2.702c-3.695-3.641-3.739-9.587-0.099-13.283l22.604-22.943
						c0.061-0.062,0.123-0.123,0.186-0.183c0.939-0.91,33.505-32.772,34.06-33.316c0.008-0.008,0.016-0.016,0.025-0.024
						c6.893-6.746,17.426-6.566,24.501,0.42l33.722,32.98c0.025,0.025,0.05,0.049,0.075,0.074l22.938,22.943
						c3.667,3.668,3.667,9.615-0.001,13.283c-3.668,3.667-9.615,3.667-13.283-0.001l-22.9-22.905l-33.015-32.29
						c-5.763,5.641-30.969,30.296-32.986,32.263L24.325,88.837C22.487,90.703,20.061,91.638,17.633,91.638z"/>
					<path fill="#C98585" d="M84.263,14.877c-2.666,0.757-5.193,2.188-7.356,4.308c-0.006,0.012-0.012,0.018-0.024,0.024
						c-0.558,0.545-33.122,32.407-34.061,33.316c-0.061,0.061-0.121,0.121-0.182,0.188L20.031,75.655
						c-3.636,3.696-3.593,9.641,0.103,13.283c0.624,0.618,1.315,1.127,2.048,1.527c-1.412,0.782-2.981,1.176-4.551,1.176
						c-2.375,0-4.757-0.903-6.587-2.703c-3.696-3.642-3.739-9.586-0.103-13.283L33.55,52.713c0.061-0.067,0.121-0.127,0.182-0.188
						c0.939-0.909,33.504-32.77,34.061-33.316c0.012-0.006,0.018-0.012,0.024-0.024C72.392,14.713,78.561,13.289,84.263,14.877z"/>
					<path fill="#965959" d="M149.052,88.889c-3.03,3.03-7.617,3.557-11.186,1.582c0.751-0.418,1.46-0.945,2.097-1.582
						c3.666-3.666,3.672-9.617,0-13.283l-22.936-22.942c-0.024-0.03-0.048-0.055-0.073-0.079L83.233,19.609
						c-2.387-2.351-5.163-3.933-8.059-4.733c5.817-1.648,12.295-0.061,17.149,4.733l33.722,32.976
						c0.024,0.024,0.048,0.048,0.073,0.079l22.936,22.942C152.724,79.272,152.718,85.223,149.052,88.889z"/>
				</g>
			</g>
			<g>
				<g>
					<g>
						<g>
							<g>
								<path fill="#44C7B6" d="M187.44,132.904l0.002-0.003c-0.021-0.021-0.043-0.038-0.064-0.059l-0.003-0.003l0,0
									c-3.185-3.123-8.034-3.369-10.871-0.532c-2.837,2.837-2.591,7.685,0.532,10.871l-0.003,0.003l-9.734-9.734
									c-3.941-3.941-10.001-4.269-13.537-0.734c-3.513,3.513-3.187,9.535,0.729,13.451l-6.218-6.218
									c-3.928-3.928-9.97-4.256-13.494-0.731l0,0c-3.524,3.524-3.197,9.566,0.731,13.494l6.241,6.241
									c-3.928-3.928-9.97-4.256-13.494-0.731l0,0c-3.524,3.524-3.197,9.566,0.731,13.494l20.503,20.503l0.024-0.038l5.205,5.205
									l-10.952,0.036c-5.882,0.02-10.666,4.803-10.685,10.685l0,0c-0.02,5.882,4.733,10.634,10.614,10.614l23.93-0.079
									c2.971-0.01,5.834,0.607,8.416,1.782c5.622,2.558,9.322,6.549,15.484,6.989l4.949,0.354c1.537,0.11,2.983,0.77,4.073,1.86
									l9.112,9.112c4.072,4.072,10.675,4.072,14.748,0l20.399-20.399c4.072-4.072,4.072-10.675,0-14.748l-8.666-8.666
									c-0.947-0.947-1.574-2.167-1.791-3.489l-0.998-6.066c-0.84-5.102-3.258-9.813-6.914-13.47l-5.059-5.059l-0.003,0.003
									L187.44,132.904z"/>
								<path fill="#FFAA80" d="M221.379,166.846l0.005-0.005l5.057,5.057c3.655,3.655,6.075,8.367,6.909,13.468l1.003,6.07
									c0.217,1.324,0.84,2.539,1.788,3.487l8.667,8.667c4.075,4.075,4.075,10.673,0,14.747l-7.408,7.408
									c4.075-4.075,4.075-10.673,0-14.747l-8.667-8.667c-0.948-0.948-1.571-2.163-1.788-3.487l-1.003-6.07
									c-0.835-5.102-3.255-9.814-6.909-13.468l-5.057-5.057l-0.005,0.005l-33.94-33.94l0.005-0.005
									c-0.02-0.02-0.044-0.035-0.069-0.059c-1.556-1.526-3.507-2.361-5.423-2.499c-0.138-2.015,0.509-3.995,1.961-5.448
									c1.417-1.417,3.339-2.064,5.304-1.966c1.966,0.099,3.976,0.943,5.566,2.504c0.025,0.025,0.049,0.039,0.069,0.059
									l-0.005,0.005L221.379,166.846z"/>
								<path fill="#FFCAA6" d="M231.819,231.327l-7.408,7.408c-4.075,4.075-10.673,4.075-14.747,0l-9.112-9.112
									c-1.091-1.091-2.539-1.748-4.075-1.862l-4.949-0.356c-6.164-0.435-9.863-4.43-15.483-6.988
									c-2.583-1.171-5.443-1.788-8.416-1.778l-23.934,0.079c-2.944,0.01-5.596-1.171-7.517-3.092s-3.107-4.578-3.097-7.522
									c0.02-4.89,3.324-9.013,7.818-10.278c-0.262,0.914-0.405,1.877-0.41,2.869c-0.01,2.944,1.175,5.601,3.097,7.522
									s4.573,3.102,7.517,3.092l23.934-0.079c2.973-0.01,5.833,0.607,8.416,1.778c5.62,2.558,9.32,6.554,15.483,6.988l4.949,0.356
									c1.536,0.114,2.983,0.77,4.075,1.862l9.112,9.112C221.146,235.402,227.745,235.402,231.819,231.327z"/>
								<path fill="#3BB2A0" d="M221.379,166.846l0.005-0.005l5.057,5.057c3.655,3.655,6.075,8.367,6.909,13.468l1.003,6.07
									c0.217,1.324,0.84,2.539,1.788,3.487l8.667,8.667c4.075,4.075,4.075,10.673,0,14.747l-7.408,7.408
									c4.075-4.075,4.075-10.673,0-14.747l-8.667-8.667c-0.948-0.948-1.571-2.163-1.788-3.487l-1.003-6.07
									c-0.835-5.102-3.255-9.814-6.909-13.468l-5.057-5.057l-0.005,0.005l-33.94-33.94l0.005-0.005
									c-0.02-0.02-0.044-0.035-0.069-0.059c-1.556-1.526-3.507-2.361-5.423-2.499c-0.138-2.015,0.509-3.995,1.961-5.448
									c1.417-1.417,3.339-2.064,5.304-1.966c1.966,0.099,3.976,0.943,5.566,2.504c0.025,0.025,0.049,0.039,0.069,0.059
									l-0.005,0.005L221.379,166.846z"/>
								<path fill="#4BDBC3" d="M231.819,231.327l-7.408,7.408c-4.075,4.075-10.673,4.075-14.747,0l-9.112-9.112
									c-1.091-1.091-2.539-1.748-4.075-1.862l-4.949-0.356c-6.164-0.435-9.863-4.43-15.483-6.988
									c-2.583-1.171-5.443-1.788-8.416-1.778l-23.934,0.079c-2.944,0.01-5.596-1.171-7.517-3.092s-3.107-4.578-3.097-7.522
									c0.02-4.89,3.324-9.013,7.818-10.278c-0.262,0.914-0.405,1.877-0.41,2.869c-0.01,2.944,1.175,5.601,3.097,7.522
									s4.573,3.102,7.517,3.092l23.934-0.079c2.973-0.01,5.833,0.607,8.416,1.778c5.62,2.558,9.32,6.554,15.483,6.988l4.949,0.356
									c1.536,0.114,2.983,0.77,4.075,1.862l9.112,9.112C221.146,235.402,227.745,235.402,231.819,231.327z"/>
							</g>
						</g>
					</g>
				</g>
			</g>
		</g>
	</g>
	<g>
		<path fill="#5F266D" d="M110.143,97.368v25c0,5.285,8,5.293,8,0v-25C118.143,92.083,110.143,92.075,110.143,97.368z"/>
		<path fill="#5F266D" d="M110.143,137.368v3.41c0,5.288,8,5.285,8,0v-3.41C118.143,132.083,110.143,132.075,110.143,137.368z"/>
		<path fill="#5F266D" d="M247.633,200.758l-8.66-8.66c-0.847-0.847-0.72-1.612-1.67-7.38c-0.98-5.96-3.76-11.37-8.04-15.65
			c-1.24-1.243-37.889-37.889-39.13-39.13c-5.759-5.589-15.034-4.51-18.42,2.26c-10.316-10.252-20.985-5.776-23.75,2.51
			c-3.946-2.37-9.063-2.642-13.41-0.3v-41.32c13.427,9.794,28.77-8.87,17.33-20.31c-28.651-28.664-15.321-15.497-56.75-56.02
			c-8.67-8.56-21.62-8.74-30.06-0.48c-2.159,1.073-55.994,55.569-56.98,56.57c-11.194,11.366,3.617,29.455,16.99,20.54v53.84
			c0,7.42,6.04,13.46,13.45,13.46c2.024,0,14.426-0.01,82.57-0.01c0.42,0,0.84-0.02,1.25-0.06c-1.36,4.64-0.06,10.05,3.81,13.92
			l18.87,18.88c-10.508,0-15.923,7.406-15.95,14.67c-0.021,8.102,6.501,14.63,14.58,14.63c0.08,0,23.9-0.08,23.98-0.08
			c4.838,0.06,7.446,1.58,11.56,4.11c7.728,4.74,9.291,4.45,16.99,5.01c0.58,0.04,1.12,0.29,1.53,0.69l9.11,9.12
			c5.688,5.667,14.795,5.594,20.41,0l20.39-20.4C253.263,215.538,253.263,206.388,247.633,200.758z M21.473,86.028
			c-4.963,5.06-12.687-2.491-7.68-7.57c47.342-48.033,51.487-51.077,56.82-56.41c5.262-5.16,13.405-5.027,18.91,0.42
			c40.579,39.689,28.519,27.779,56.7,55.96c5.056,5.056-2.648,12.651-7.62,7.63c-28.721-28.721-15.294-15.46-55.95-55.23
			c-1.56-1.52-4.04-1.52-5.6,0.01C34.181,72.817,51.5,55.585,21.473,86.028z M64.843,152.678l0.03-52.29h29.9c0,0,0.03,0,0.03,0.04
			v52.25H64.843z M121.103,152.678h-18.3v-52.25c0-4.44-3.6-8.04-8.03-8.04h-29.9c-4.43,0-8.04,3.6-8.04,8.04v52.25
			c-0.854,0-16.388,0.01-18.3,0.01c-3,0-5.45-2.45-5.45-5.46v-61.58c22.026-22.358,9.574-9.941,46.77-46.36
			c36.24,35.436,25.892,25.219,46.7,46.04v61.9C126.553,150.238,124.113,152.678,121.103,152.678z M241.983,215.508l-20.4,20.4
			c-2.55,2.529-6.602,2.488-9.09,0l-9.11-9.11c-1.78-1.77-4.12-2.85-6.62-3.02c-7.078-0.515-7.302-0.118-13.38-3.85
			c-4.24-2.608-8.642-5.29-15.77-5.29c-0.032,0-23.918,0.08-23.95,0.08c-3.675,0-6.58-2.944-6.58-6.6c0.01-3.68,3.02-6.69,6.7-6.7
			l10.95-0.04c3.551,0,5.326-4.314,2.82-6.82c-1.686-1.686-24.054-23.985-25.74-25.67c-2.36-2.37-2.69-5.88-0.73-7.84
			c1.92-1.92,5.35-1.64,7.71,0.61c0.024,0.019,22.19,22.186,22.211,22.208c3.727,3.725,9.428-1.887,5.656-5.657
			c-24.841-24.84-12.352-12.345-22.077-22.09c-4.495-4.486-11.677-10.302-6.623-14.359c4.468-3.577,8.991,2.527,13.541,7.077
			c0.439,0.449,21.815,21.821,22.262,22.269c3.72,3.722,9.397-1.916,5.656-5.657l-21.98-21.98c-3.096-3.735-2.247-6.532-0.847-7.93
			c1.878-1.879,5.45-1.69,7.88,0.74c17.071,17.071,1.655,1.662,22.056,22.062c3.719,3.721,9.436-1.878,5.656-5.657
			c-3.075-3.075-12.262-12.275-12.292-12.305c-1.58-1.62-1.84-3.97-0.56-5.24c1.27-1.28,3.63-1.03,5.22,0.53
			c4.256,4.256,35.432,35.432,39.06,39.06c3.08,3.08,5.09,6.99,5.79,11.29c1.018,6.17,1.012,8.832,3.91,11.73l8.67,8.67
			C244.483,208.928,244.483,212.998,241.983,215.508z"/>
		<path fill="#5F266D" d="M156.211,49.499h7.48v7.48c0,2.209,1.791,4,4,4s4-1.791,4-4v-7.48h7.481c2.209,0,4-1.791,4-4s-1.791-4-4-4
			h-7.481v-7.481c0-2.209-1.791-4-4-4s-4,1.791-4,4v7.481h-7.48c-2.209,0-4,1.791-4,4S154.002,49.499,156.211,49.499z"/>
		<path fill="#5F266D" d="M188.544,93.832h7.481v7.481c0,2.209,1.791,4,4,4s4-1.791,4-4v-7.481h7.48c2.209,0,4-1.791,4-4
			s-1.791-4-4-4h-7.48v-7.48c0-2.209-1.791-4-4-4s-4,1.791-4,4v7.48h-7.481c-2.209,0-4,1.791-4,4S186.335,93.832,188.544,93.832z"/>
		<path fill="#5F266D" d="M76.006,189.332h-7.48v-7.48c0-2.209-1.791-4-4-4s-4,1.791-4,4v7.48h-7.481c-2.209,0-4,1.791-4,4
			s1.791,4,4,4h7.481v7.481c0,2.209,1.791,4,4,4s4-1.791,4-4v-7.481h7.48c2.209,0,4-1.791,4-4S78.215,189.332,76.006,189.332z"/>
	</g>
</g>
</svg>
