<?xml version="1.0" encoding="utf-8"?>
<!-- Generator: Adobe Illustrator 24.0.0, SVG Export Plug-In . SVG Version: 6.00 Build 0)  -->
<svg version="1.1" id="Icon_Set" xmlns="http://www.w3.org/2000/svg" xmlns:xlink="http://www.w3.org/1999/xlink" x="0px" y="0px"
	 viewBox="0 0 256 256" enable-background="new 0 0 256 256" xml:space="preserve">
<g>
	<g>
		<circle fill="#5FCDFF" cx="191.367" cy="62.5" r="10"/>
		<path fill="#5FCDFF" d="M209.367,90.5c0,0.73-0.04,1.45-0.13,2.15c-5.12,3.39-11.27,5.36-17.87,5.36c-6.6,0-12.75-1.97-17.87-5.36
			c-0.09-0.7-0.13-1.42-0.13-2.15c0-9.94,8.06-18,18-18S209.367,80.56,209.367,90.5z"/>
		<g>
			<g>
				<g id="XMLID_33_">
					<path fill="#5FCDFF" d="M244.242,52.87h-10.069c-0.872-2.97-2.055-5.85-3.571-8.61l7.127-7.123
						c1.735-1.735,1.735-4.558,0-6.293l-11.652-11.642c-1.745-1.745-4.558-1.745-6.303,0l-7.113,7.118
						c-2.765-1.516-5.649-2.698-8.62-3.571V12.681c0-2.455-1.993-4.448-4.448-4.448h-16.467c-2.465,0-4.458,1.993-4.458,4.448
						v10.069c-2.97,0.872-5.85,2.064-8.61,3.571l-7.123-7.118c-1.735-1.745-4.558-1.745-6.293,0l-11.642,11.642
						c-1.745,1.735-1.745,4.558,0,6.293l7.118,7.123c-1.63,3.003-2.889,6.145-3.781,9.382h-9.859c-2.455,0-4.448,1.988-4.448,4.438
						v16.481c0,2.45,1.993,4.448,4.448,4.448h10.312c0.834,2.694,1.95,5.33,3.328,7.842l-7.118,7.123
						c-1.745,1.745-1.745,4.558,0,6.303l11.642,11.652c1.735,1.735,4.558,1.735,6.293,0l7.123-7.127
						c2.76,1.507,5.64,2.689,8.61,3.571v10.069c0,2.465,1.993,4.458,4.458,4.458h16.467c2.455,0,4.448-1.993,4.448-4.458v-10.069
						c2.97-0.882,5.854-2.064,8.62-3.571l7.113,7.127c1.745,1.735,4.558,1.735,6.303,0l11.652-11.652
						c1.735-1.745,1.735-4.558,0-6.303l-7.127-7.113c1.516-2.765,2.698-5.649,3.571-8.62h10.069c2.465,0,4.458-1.993,4.458-4.448
						V57.328C248.7,54.863,246.707,52.87,244.242,52.87z M191.367,98.008c-17.916,0-32.442-14.526-32.442-32.442
						s14.526-32.442,32.442-32.442s32.442,14.526,32.442,32.442S209.283,98.008,191.367,98.008z"/>
				</g>
				<g id="XMLID_32_">
					<path fill="#73D7F9" d="M141.184,74.562V58.081c0-2.45,1.993-4.438,4.448-4.438h-7.151c-2.455,0-4.448,1.988-4.448,4.438
						v16.481c0,2.45,1.993,4.448,4.448,4.448h7.151C143.177,79.01,141.184,77.012,141.184,74.562z M152.154,100.278
						c-1.745-1.745-1.745-4.558,0-6.303l7.118-7.123c-1.378-2.512-2.493-5.149-3.328-7.842h-7.151
						c0.834,2.694,1.95,5.33,3.328,7.842l-7.118,7.123c-1.745,1.745-1.745,4.558,0,6.303l11.642,11.652
						c1.735,1.735,4.558,1.735,6.293,0l0.429-0.429L152.154,100.278z M152.154,30.845l11.213-11.213l-0.429-0.429
						c-1.735-1.745-4.558-1.745-6.293,0l-11.642,11.642c-1.745,1.735-1.745,4.558,0,6.293l7.118,7.123
						c-1.63,3.003-2.889,6.145-3.781,9.382h7.151c0.892-3.237,2.15-6.379,3.781-9.382l-7.118-7.123
						C150.409,35.402,150.409,32.58,152.154,30.845z M185.822,118.442v-10.069c-2.97-0.882-5.85-2.064-8.61-3.571l-2.279,2.279
						c1.225,0.486,2.474,0.915,3.738,1.292v10.069c0,2.465,1.993,4.458,4.458,4.458h7.151
						C187.815,122.899,185.822,120.906,185.822,118.442z M183.128,8.233c-2.465,0-4.458,1.993-4.458,4.448v10.069
						c-1.263,0.372-2.512,0.801-3.738,1.292l2.279,2.279c2.76-1.507,5.64-2.698,8.61-3.571V12.681c0-2.455,1.993-4.448,4.458-4.448
						H183.128z"/>
				</g>
				<g id="XMLID_29_">
					<path fill="#30B6FF" d="M244.242,52.87h-7.151c2.465,0,4.458,1.993,4.458,4.458v16.467c0,2.455-1.993,4.448-4.458,4.448h7.151
						c2.465,0,4.458-1.993,4.458-4.448V57.328C248.7,54.863,246.707,52.87,244.242,52.87z M237.73,30.845l-11.652-11.642
						c-1.745-1.745-4.558-1.745-6.303,0l-0.424,0.424l11.227,11.218c1.735,1.735,1.735,4.558,0,6.293l-7.127,7.123
						c1.516,2.76,2.698,5.64,3.571,8.61h7.151c-0.872-2.97-2.055-5.85-3.571-8.61l7.127-7.123
						C239.465,35.402,239.465,32.58,237.73,30.845z M237.73,93.975l-7.127-7.113c1.516-2.765,2.698-5.649,3.571-8.62h-7.151
						c-0.872,2.97-2.055,5.854-3.571,8.62l7.127,7.113c1.735,1.745,1.735,4.558,0,6.303l-11.227,11.227l0.424,0.424
						c1.745,1.735,4.558,1.735,6.303,0l11.652-11.652C239.465,98.533,239.465,95.72,237.73,93.975z M204.043,22.749V12.681
						c0-2.455-1.993-4.448-4.448-4.448h-7.151c2.455,0,4.448,1.993,4.448,4.448v10.069c2.97,0.872,5.854,2.055,8.62,3.571
						l2.279-2.279C206.56,23.55,205.311,23.121,204.043,22.749z M205.512,104.802c-2.765,1.507-5.649,2.689-8.62,3.571v10.069
						c0,2.465-1.993,4.458-4.448,4.458h7.151c2.455,0,4.448-1.993,4.448-4.458v-10.069c1.263-0.377,2.512-0.806,3.742-1.292
						L205.512,104.802z"/>
				</g>
			</g>
		</g>
		<g>
			<g>
				<g>
					<g>
						<g>
							<path fill="#FFE2E2" d="M152.687,149.005v87.531c0,6.136-4.955,11.224-11.224,11.224H43.426
								c-6.23,0-11.224-5.049-11.224-11.224v-87.531c0-3.149,1.347-6.049,3.374-8.022v-0.007
								c0.597-0.573,48.856-47.784,49.019-47.947c3.996-3.91,10.826-4.811,16.268,0.561l48.45,47.385v0.007
								c1.216,1.187,2.13,2.619,2.698,4.187c0.194,0.525,0.345,1.058,0.453,1.604C152.608,147.502,152.687,148.25,152.687,149.005z"
								/>
							<path fill="#FFCFCF" d="M124.626,247.765h16.838c6.196,0,11.225-5.029,11.225-11.225v-87.533c0-3.02-1.224-5.916-3.379-8.026
								l-49.02-47.954c-3.925-3.844-10.724-4.871-16.265,0.561l48.447,47.392c2.155,2.11,3.379,5.006,3.379,8.026v87.533
								C135.852,242.736,130.823,247.765,124.626,247.765z"/>
							<path fill="#FFEFEE" d="M49.037,236.54v-87.533c0-3.019,1.223-5.916,3.379-8.026l48.447-47.392
								c-5.359-5.254-12.159-4.583-16.265-0.561c-9.367,9.163-37.82,36.997-49.024,47.958c-2.158,2.111-3.374,5.003-3.374,8.022
								v87.533c0,6.199,5.026,11.225,11.225,11.225h16.838C54.066,247.765,49.037,242.736,49.037,236.54z"/>
						</g>
					</g>
				</g>
			</g>
			<path fill="#B76C6C" d="M114.986,180.965v66.796H69.903v-66.796c0-2.655,2.144-4.799,4.792-4.799h35.499
				C112.842,176.166,114.986,178.31,114.986,180.965z"/>
			<path fill="#C98585" d="M85.487,176.166c-2.648,0-4.792,2.144-4.792,4.799v66.796H69.903v-66.796
				c0-2.655,2.144-4.799,4.792-4.799H85.487z"/>
			<path fill="#965959" d="M114.986,180.965v66.796h-10.792v-66.796c0-2.655-2.144-4.799-4.792-4.799h10.792
				C112.842,176.166,114.986,178.31,114.986,180.965z"/>
			<g>
				<path fill="#B76C6C" d="M18.606,170.53c-2.826,0-5.654-1.067-7.826-3.208c-4.387-4.323-4.44-11.384-0.117-15.771l26.839-27.241
					c0.073-0.073,0.146-0.146,0.221-0.217c1.114-1.081,39.782-38.911,40.441-39.558c0.01-0.009,0.019-0.019,0.029-0.028
					c8.185-8.01,20.691-7.796,29.091,0.499l40.039,39.159c0.03,0.029,0.059,0.058,0.089,0.088l27.236,27.241
					c4.354,4.356,4.354,11.417-0.002,15.771c-4.355,4.355-11.416,4.354-15.771-0.002l-27.19-27.196l-39.2-38.339
					c-6.842,6.697-36.771,35.971-39.166,38.308l-26.768,27.169C24.368,169.419,21.488,170.53,18.606,170.53z"/>
				<path fill="#C98585" d="M97.718,79.388c-3.166,0.899-6.166,2.597-8.735,5.116c-0.007,0.014-0.014,0.022-0.029,0.029
					c-0.662,0.648-39.327,38.478-40.442,39.557c-0.072,0.072-0.144,0.144-0.216,0.223l-26.844,27.24
					c-4.317,4.389-4.267,11.447,0.122,15.771c0.741,0.734,1.561,1.338,2.432,1.813c-1.676,0.928-3.54,1.396-5.403,1.396
					c-2.82,0-5.648-1.072-7.821-3.209c-4.389-4.324-4.439-11.382-0.122-15.771l26.844-27.24c0.072-0.079,0.144-0.151,0.216-0.223
					c1.115-1.079,39.78-38.91,40.442-39.557c0.014-0.007,0.022-0.014,0.029-0.029C83.623,79.194,90.948,77.503,97.718,79.388z"/>
				<path fill="#965959" d="M174.645,167.266c-3.597,3.597-9.044,4.223-13.282,1.878c0.892-0.496,1.734-1.122,2.489-1.878
					c4.353-4.353,4.36-11.418,0-15.771l-27.233-27.24c-0.029-0.036-0.058-0.065-0.086-0.094L96.495,85.007
					c-2.835-2.792-6.13-4.669-9.569-5.619c6.907-1.957,14.598-0.072,20.361,5.619l40.039,39.154
					c0.029,0.029,0.058,0.058,0.086,0.094l27.233,27.24C179.005,155.848,178.998,162.913,174.645,167.266z"/>
			</g>
		</g>
	</g>
	<g>
		<path fill="#5F266D" d="M126.577,217.339v0.89c0,5.285,8,5.293,8,0v-0.89C134.577,212.054,126.577,212.046,126.577,217.339z"/>
		<path fill="#5F266D" d="M126.577,177.339v25c0,5.285,8,5.293,8,0v-25C134.577,172.054,126.577,172.046,126.577,177.339z"/>
		<path fill="#5F266D" d="M110.097,82.159c-10-9.87-24.92-10.09-34.66-0.55c-2.584,1.296-66.634,66.129-67.62,67.13
			c-13.388,13.593,5.857,34.355,20.38,22.36v65.44c0,8.4,6.83,15.23,15.23,15.23c0,0,9.931-0.01,98.04-0.01
			c8.39,0,15.22-6.83,15.22-15.22v-65.84c14.517,12.907,34.587-8.243,20.79-22.04C141.031,112.212,160.939,131.883,110.097,82.159z
			 M110.987,243.759h-37.08v-62.8c0-0.44,0.35-0.79,0.79-0.79h35.5c0.43,0,0.79,0.35,0.79,0.79V243.759z M148.687,236.539
			c0,3.98-3.24,7.22-7.22,7.22h-22.48v-62.8c0-4.85-3.95-8.79-8.79-8.79h-35.5c-4.85,0-8.79,3.94-8.79,8.79v62.8
			c-2.214,0-7.711,0.01-22.48,0.01c-3.98,0-7.23-3.25-7.23-7.23v-73.43c24.755-25.127,12.827-13.289,56.29-55.79
			c43.643,42.695,31.227,30.437,56.2,55.41V236.539z M161.707,164.429c-33.461-33.461-18.943-19.115-66.43-65.56
			c-1.55-1.52-4.04-1.52-5.59,0c-49.573,48.559-30.39,29.376-65.99,65.53c-6.587,6.684-16.889-3.22-10.19-10.04
			c56.738-57.583,39.309-38.829,67.41-66.93c1-0.502,11.89-11.084,23.57,0.43c48.013,46.957,32.924,32.042,67.33,66.46
			C178.501,161.002,168.395,171.117,161.707,164.429z"/>
		<path fill="#5F266D" d="M244.242,48.869h-7.175c-0.474-1.303-1.003-2.581-1.586-3.83l5.078-5.074
			c3.294-3.295,3.294-8.655-0.001-11.951l-11.65-11.642c-3.298-3.297-8.662-3.297-11.96,0.001l-5.065,5.069
			c-1.251-0.584-2.533-1.114-3.838-1.589v-7.174c0-4.658-3.79-8.448-8.448-8.448h-16.467c-4.664,0-8.458,3.79-8.458,8.448v7.176
			c-1.296,0.473-2.575,1.003-3.83,1.589l-5.067-5.064c-3.334-3.351-8.696-3.285-11.958-0.007l-11.634,11.635
			c-3.336,3.319-3.3,8.681-0.008,11.957l5.077,5.08c-0.696,1.499-1.316,3.034-1.855,4.597h-6.914c-4.658,0-8.448,3.786-8.448,8.438
			v16.481c0,4.658,3.79,8.448,8.448,8.448h7.464c0.396,1.035,0.829,2.058,1.299,3.064l-5.07,5.073
			c-3.297,3.297-3.297,8.662-0.001,11.958l11.643,11.653c3.295,3.295,8.656,3.294,11.951-0.001l5.077-5.081
			c1.247,0.581,2.524,1.11,3.826,1.585v7.18c0,4.664,3.794,8.458,8.458,8.458h16.467c4.658,0,8.448-3.794,8.448-8.458v-7.18
			c1.304-0.476,2.583-1.005,3.833-1.586l5.08,5.089c3.292,3.275,8.65,3.275,11.952-0.007l11.659-11.66
			c3.275-3.293,3.275-8.651-0.01-11.954l-5.075-5.065c0.583-1.25,1.113-2.531,1.587-3.836h7.174c4.664,0,8.458-3.79,8.458-8.448
			V57.326C252.7,52.663,248.906,48.869,244.242,48.869z M244.7,73.793c0,0.247-0.205,0.448-0.458,0.448h-10.069
			c-1.775,0-3.337,1.169-3.838,2.873c-0.804,2.736-1.894,5.369-3.24,7.824c-0.855,1.56-0.578,3.497,0.682,4.754l7.117,7.103
			c0.184,0.185,0.184,0.476,0.007,0.653l-11.644,11.645c-0.187,0.184-0.476,0.185-0.65,0.01l-7.113-7.127
			c-1.252-1.256-3.186-1.536-4.745-0.687c-2.46,1.341-5.1,2.434-7.844,3.249c-1.697,0.504-2.861,2.064-2.861,3.834v10.069
			c0,0.252-0.201,0.458-0.448,0.458h-16.467c-0.256,0-0.458-0.201-0.458-0.458v-10.069c0-1.771-1.164-3.331-2.861-3.834
			c-2.74-0.813-5.375-1.906-7.833-3.248c-1.564-0.852-3.495-0.568-4.746,0.684l-7.122,7.126c-0.171,0.172-0.463,0.173-0.635,0.001
			l-11.643-11.653c-0.184-0.184-0.184-0.461,0-0.646l7.118-7.123c1.256-1.257,1.533-3.192,0.678-4.751
			c-1.242-2.264-2.256-4.654-3.015-7.103c-0.519-1.675-2.067-2.816-3.821-2.816h-10.312c-0.243,0-0.448-0.205-0.448-0.448V58.08
			c0-0.242,0.201-0.438,0.448-0.438h9.859c1.8,0,3.378-1.203,3.856-2.938c0.816-2.964,1.974-5.836,3.439-8.536
			c0.845-1.557,0.566-3.483-0.686-4.736l-7.126-7.131c-0.168-0.167-0.182-0.44,0.008-0.628l11.649-11.65
			c0.171-0.172,0.442-0.18,0.629,0.008l7.123,7.118c1.255,1.254,3.186,1.532,4.744,0.682c2.493-1.361,5.125-2.453,7.821-3.244
			c1.703-0.5,2.873-2.063,2.873-3.838V12.679c0-0.247,0.205-0.448,0.458-0.448h16.467c0.247,0,0.448,0.201,0.448,0.448v10.069
			c0,1.775,1.17,3.338,2.873,3.838c2.734,0.803,5.366,1.893,7.824,3.24c1.559,0.854,3.494,0.578,4.752-0.68l7.112-7.117
			c0.184-0.184,0.461-0.184,0.646,0.001l11.65,11.642c0.172,0.172,0.172,0.463,0.001,0.635l-7.127,7.123
			c-1.258,1.258-1.535,3.196-0.678,4.755c1.347,2.452,2.437,5.08,3.239,7.812c0.5,1.703,2.063,2.873,3.838,2.873h10.069
			c0.256,0,0.458,0.201,0.458,0.458V73.793z"/>
		<path fill="#5F266D" d="M191.367,29.122c-20.095,0-36.443,16.348-36.443,36.443c0,15.464,9.765,29.009,23.838,34.193
			c23.797,8.801,49.047-8.963,49.047-34.193C227.809,45.47,211.461,29.122,191.367,29.122z M177.37,90.31
			c0.102-7.632,6.341-13.811,13.998-13.811c7.656,0,13.895,6.178,13.997,13.81C196.549,95.316,185.91,95.16,177.37,90.31z
			 M185.367,62.499c0-3.309,2.691-6,6-6s6,2.691,6,6s-2.691,6-6,6S185.367,65.807,185.367,62.499z M212.538,84.532
			c-1.588-5.627-5.361-10.343-10.343-13.173c1.98-2.415,3.171-5.501,3.171-8.861c0-7.72-6.28-14-14-14s-14,6.28-14,14
			c0,3.36,1.191,6.446,3.172,8.861c-4.982,2.83-8.755,7.547-10.343,13.174c-4.518-5.037-7.272-11.686-7.272-18.969
			c0-15.684,12.759-28.443,28.443-28.443c15.683,0,28.442,12.759,28.442,28.443C219.809,72.847,217.055,79.496,212.538,84.532z"/>
	</g>
</g>
</svg>
