<?xml version="1.0" encoding="utf-8"?>
<!-- Generator: Adobe Illustrator 24.0.0, SVG Export Plug-In . SVG Version: 6.00 Build 0)  -->
<svg version="1.1" id="Icon_Set" xmlns="http://www.w3.org/2000/svg" xmlns:xlink="http://www.w3.org/1999/xlink" x="0px" y="0px"
	 viewBox="0 0 256 256" enable-background="new 0 0 256 256" xml:space="preserve">
<g>
	<g>
		<g>
			<g>
				<g>
					<path fill="#FFE2E2" d="M206.729,12v202h-39.02v35H54.269c-2.77,0-5-2.24-5-5V12c0-2.76,2.23-5,5-5h147.46
						C204.499,7,206.729,9.24,206.729,12z"/>
					<path fill="#FFEFEE" d="M69.271,249h-15c-2.77,0-5-2.24-5-5V12c0-2.76,2.23-5,5-5h15c-2.77,0-5,2.24-5,5v232
						C64.271,246.76,66.501,249,69.271,249z"/>
					<path fill="#FFCFCF" d="M206.731,12v202h-15V12c0-2.76-2.23-5-5-5h15C204.501,7,206.731,9.24,206.731,12z"/>
					<polygon fill="#FFCFCF" points="206.729,214 167.709,249 167.709,214 					"/>
				</g>
			</g>
		</g>
		<g>
			<g>
				<path fill="#44C7B6" d="M127.999,162c-24.02-19.802-50.526-52.306-54.63-85.878c9.202-5.313,15.088-15.16,16.519-27.805
					c13.051-10.606,27.218-12.94,37.149-12.94c14.402,0,28.679,4.799,39.08,12.995c1.441,12.615,7.32,22.439,16.513,27.748
					C178.526,109.69,152.019,142.198,127.999,162z"/>
				<path fill="#3BB2A0" d="M182.628,76.117c-4.102,33.57-30.608,66.082-54.629,85.88c-1.586-1.306-3.179-2.663-4.777-4.083
					c22.639-20.008,46.017-50.438,49.851-81.797c-9.192-5.306-15.071-15.129-16.511-27.748C147.313,41.083,135,36.483,122.26,35.553
					c1.675-0.127,3.274-0.178,4.777-0.178c14.403,0,28.678,4.803,39.08,12.995C167.557,60.989,173.437,70.811,182.628,76.117z"/>
				<path fill="#4BDBC3" d="M132.777,157.914c-1.599,1.421-3.191,2.777-4.777,4.083C103.978,142.2,77.473,109.694,73.37,76.124
					c9.198-5.313,15.084-15.161,16.517-27.805c13.052-10.606,27.219-12.944,37.15-12.944c1.599,0,3.191,0.057,4.777,0.178
					c-9.415,0.72-21.295,3.765-32.372,12.765c-1.433,12.644-7.319,22.492-16.517,27.805
					C86.76,107.483,110.138,137.906,132.777,157.914z"/>
			</g>
		</g>
	</g>
	<g>
		<g>
			<path fill="#5F266D" d="M201.73,3H54.27c-4.962,0-9,4.038-9,9v232c0,4.962,4.038,9,9,9h113.44c0.975,0,2.012-0.432,2.67-1.022
				l39.021-35c0.773-0.693,1.33-1.851,1.33-2.978V12C210.73,7.038,206.693,3,201.73,3z M171.71,240.038V218h24.57L171.71,240.038z
				 M202.73,210H167.71c-2.209,0-4,1.791-4,4v31H54.27c-0.551,0-1-0.449-1-1V12c0-0.551,0.449-1,1-1h147.46c0.552,0,1,0.449,1,1V210
				z"/>
		</g>
		<g>
			<path fill="#5F266D" d="M103,223.25H75c-5.285,0-5.292,8,0,8h28C108.285,231.25,108.292,223.25,103,223.25z"/>
		</g>
		<g>
			<path fill="#5F266D" d="M121,223.25h-3c-5.285,0-5.292,8,0,8h3C126.285,231.25,126.292,223.25,121,223.25z"/>
		</g>
		<g>
			<path fill="#5F266D" d="M186.312,187.5H69.687c-5.285,0-5.292,8,0,8h116.625C191.597,195.5,191.604,187.5,186.312,187.5z"/>
		</g>
		<g>
			<path fill="#5F266D" d="M125.455,165.086c1.481,1.22,3.615,1.216,5.089,0c11.802-9.73,50.725-44.866,56.058-88.481
				c0.194-1.592-0.581-3.147-1.971-3.949c-8.087-4.67-13.25-13.456-14.539-24.738c-0.121-1.06-0.661-2.027-1.499-2.688
				c-11.172-8.804-26.318-13.853-41.555-13.853c-10.331,0-25.6,2.4-39.672,13.835c-0.813,0.661-1.334,1.614-1.452,2.655
				c-1.28,11.311-6.445,20.115-14.544,24.791c-1.389,0.802-2.165,2.357-1.97,3.95C74.73,120.22,113.653,155.356,125.455,165.086z
				 M93.646,50.447c11.905-9.118,24.659-11.069,33.391-11.069c12.898,0,25.675,4.054,35.33,11.165
				c1.76,12.002,7.352,21.654,15.946,27.577c-4.757,30.283-28.447,59.908-50.314,78.654c-21.866-18.746-45.556-48.371-50.312-78.651
				C86.305,72.185,91.902,62.497,93.646,50.447z"/>
		</g>
		<g>
			<path fill="#5F266D" d="M124.019,108.431l24.938-26.228c3.642-3.83-2.15-9.349-5.797-5.513l-21.663,22.783l-8.345-11.233
				c-3.152-4.242-9.578,0.521-6.422,4.771l11.179,15.049C119.388,110.05,122.307,110.231,124.019,108.431z"/>
		</g>
	</g>
</g>
</svg>
