<?xml version="1.0" encoding="utf-8"?>
<!-- Generator: Adobe Illustrator 24.0.0, SVG Export Plug-In . SVG Version: 6.00 Build 0)  -->
<svg version="1.1" id="Icon_Set" xmlns="http://www.w3.org/2000/svg" xmlns:xlink="http://www.w3.org/1999/xlink" x="0px" y="0px"
	 viewBox="0 0 256 256" enable-background="new 0 0 256 256" xml:space="preserve">
<g>
	<g>
		<g>
			<g>
				<g>
					<g>
						<g>
							<g>
								<g>
									<g>
										<path id="XMLID_181_" fill="#FFBB98" d="M96.133,191.523c-0.933-1.118-1.914-2.198-2.945-3.228
											c-3.686-3.686-7.978-6.789-12.733-9.145c-1.887-0.938-3.823-1.751-5.808-2.427L42.625,165.74l-16.458-55.504
											c-0.464-1.707-1.347-3.179-2.514-4.346c-2.389-2.389-5.955-3.468-9.451-2.525c-5.197,1.402-7.285,6.298-6.866,11.959
											l2.983,68.161c0.005,0.038,0.005,0.082,0.011,0.12c0.823,6.124,4.881,11.337,10.514,13.884l39.607,17.892
											c4.264,2.116,7.842,5.224,10.503,8.954c1.554,2.176,2.798,4.564,3.692,7.106l28.548-28.548
											C101.368,198.776,98.985,194.954,96.133,191.523z"/>
										<path fill="#4BDBC3" d="M121.345,212.01l-35.782,35.782c-1.365,1.365-3.572,1.365-4.937,0l-8.694-8.694
											c-1.365-1.365-1.365-3.572,0-4.937l35.782-35.782c1.36-1.36,3.572-1.365,4.937,0l8.694,8.694
											C122.71,208.438,122.705,210.65,121.345,212.01z"/>
										<path fill="#3BB2A0" d="M121.345,212.01l-35.782,35.782c-1.365,1.365-3.572,1.365-4.937,0l-1.937-1.937
											c-1.365-1.365-1.365-3.572,0-4.937l35.782-35.782c1.36-1.36,3.572-1.365,4.937,0l1.937,1.937
											C122.71,208.438,122.705,210.65,121.345,212.01z"/>
										<path id="XMLID_180_" fill="#FFCAA6" d="M96.133,191.523c-0.933-1.118-1.914-2.198-2.945-3.228
											c-3.686-3.686-7.978-6.789-12.733-9.145c-1.887-0.938-3.823-1.751-5.808-2.427L42.625,165.74l-5.077-1.74
											c-3.354-1.107-6.898-0.136-9.232,2.198c-0.971,0.971-1.74,2.176-2.192,3.566c-1.565,4.75,1.009,9.865,5.759,11.43
											l39.312,13.485c0,0,11.081,4.216,19.806,14.258l2.828,3.322l9.367-9.367C101.368,198.776,98.985,194.954,96.133,191.523z"
											/>
									</g>
								</g>
							</g>
						</g>
					</g>
				</g>
			</g>
			<g>
				<g>
					<g>
						<g>
							<g>
								<g>
									<g>
										<path id="XMLID_176_" fill="#FFBB98" d="M159.867,191.523c0.933-1.118,1.914-2.198,2.945-3.228
											c3.686-3.686,7.978-6.789,12.733-9.145c1.887-0.938,3.823-1.751,5.808-2.427l32.022-10.983l16.458-55.504
											c0.464-1.707,1.347-3.179,2.514-4.346c2.389-2.389,5.955-3.468,9.451-2.525c5.197,1.402,7.285,6.298,6.866,11.959
											l-2.983,68.161c-0.005,0.038-0.005,0.082-0.011,0.12c-0.823,6.124-4.881,11.337-10.514,13.884l-39.607,17.892
											c-4.264,2.116-7.842,5.224-10.503,8.954c-1.554,2.176-2.798,4.564-3.692,7.106l-28.548-28.548
											C154.632,198.776,157.015,194.954,159.867,191.523z"/>
										<path fill="#4BDBC3" d="M134.655,212.01l35.782,35.782c1.365,1.365,3.572,1.365,4.937,0l8.694-8.694
											c1.365-1.365,1.365-3.572,0-4.937l-35.782-35.782c-1.36-1.36-3.572-1.365-4.937,0l-8.694,8.694
											C133.29,208.438,133.295,210.65,134.655,212.01z"/>
										<path fill="#3BB2A0" d="M134.655,212.01l35.782,35.782c1.365,1.365,3.572,1.365,4.937,0l1.937-1.937
											c1.365-1.365,1.365-3.572,0-4.937l-35.782-35.782c-1.36-1.36-3.572-1.365-4.937,0l-1.937,1.937
											C133.29,208.438,133.295,210.65,134.655,212.01z"/>
										<path id="XMLID_175_" fill="#FFCAA6" d="M159.867,191.523c0.933-1.118,1.914-2.198,2.945-3.228
											c3.686-3.686,7.978-6.789,12.733-9.145c1.887-0.938,3.823-1.751,5.808-2.427l32.022-10.983l5.077-1.74
											c3.354-1.107,6.898-0.136,9.232,2.198c0.971,0.971,1.74,2.176,2.192,3.566c1.565,4.75-1.009,9.865-5.759,11.43
											l-39.312,13.485c0,0-11.081,4.216-19.806,14.258l-2.828,3.322l-9.367-9.367
											C154.632,198.776,157.015,194.954,159.867,191.523z"/>
									</g>
								</g>
							</g>
						</g>
					</g>
				</g>
			</g>
		</g>
	</g>
	<g>
		<g>
			<circle fill="#B76C6C" cx="153.396" cy="66.744" r="27.161"/>
			<path fill="#965959" d="M146.513,40.466c2.193-0.578,4.506-0.881,6.883-0.881c15.005,0,27.165,12.16,27.165,27.156
				c0,15.005-12.16,27.165-27.165,27.165c-2.377,0-4.69-0.303-6.883-0.881c11.673-3.047,20.282-13.656,20.282-26.284
				C166.795,54.122,158.186,43.513,146.513,40.466z"/>
		</g>
		<g>
			<g>
				<g>
					<g>
						<g>
							<g>
								<path fill="#F9D335" d="M172.061,126.575v41.028c0,3.544-2.873,6.417-6.417,6.417H90.356c-3.544,0-6.417-2.873-6.417-6.417
									v-41.028c0-10.084,8.175-18.259,18.259-18.259h51.605C163.881,108.317,172.061,116.485,172.061,126.575z"/>
								<path fill="#F9E27D" d="M96.839,109.113v64.91h-6.487c-3.543,0-6.414-2.88-6.414-6.423v-41.022
									C83.938,118.361,89.367,111.404,96.839,109.113z"/>
								<path fill="#5FCDFF" d="M172.065,126.578V167.6c0,3.543-2.88,6.423-6.423,6.423h-6.543v-64.929
									C166.599,111.367,172.065,118.333,172.065,126.578z"/>
								<path fill="#5FCDFF" d="M96.839,109.113v64.91h-6.487c-3.543,0-6.414-2.88-6.414-6.423v-41.022
									C83.938,118.361,89.367,111.404,96.839,109.113z"/>
								<path fill="#FFBB98" d="M127.964,7.19c-8.601,0-16.373,3.484-22.006,9.117c-5.634,5.634-9.117,13.418-9.117,22.018v23.976
									c0,13.802,8.978,25.831,21.379,30.062v15.951h-6.111v14.442c0,3.956,3.207,7.163,7.163,7.163h17.397
									c3.956,0,7.163-3.207,7.163-7.163v-14.442h-6.111V92.41c12.384-4.113,21.38-15.833,21.38-29.543V38.325
									C159.1,21.136,145.166,7.19,127.964,7.19z"/>
								<path fill="#FFAA80" d="M159.1,40.752v22.115c0,15.039-10.823,27.688-25.07,30.523h-0.012
									c-0.312,0.06-0.625,0.12-0.937,0.168c-1.526,0.264-3.087,0.408-4.685,0.432c-2.186,0.036-4.312-0.168-6.379-0.601
									c2.102-0.42,4.108-1.057,6.03-1.886c11.135-4.745,18.991-15.82,18.991-28.649V45.232
									C150.956,44.272,155.064,42.842,159.1,40.752z"/>
								<path fill="#FFCAA6" d="M133.141,93.39c-0.012,0.036-0.036,0.084-0.06,0.168c-1.526,0.264-3.087,0.408-4.685,0.432
									c-2.186,0.036-4.312-0.168-6.379-0.601c-0.012,0-0.012,0-0.012,0C107.687,90.507,96.84,77.473,96.84,62.302V47.671
									c3.471-0.755,5.368-0.677,11.183-2.535v17.165c0,12.961,7.916,24.361,19.148,29.202
									C129.069,92.333,131.063,92.969,133.141,93.39z"/>
								<path fill="#B76C6C" d="M159.11,38.326v2.415l-0.007,0.007c-4.037,2.097-8.156,3.526-12.075,4.482
									c-11.245,2.8-20.698,1.778-20.698,1.778l4.808-12.853c-0.444,0.289-10.823,6.882-22.224,10.69
									c-0.296,0.096-0.593,0.193-0.889,0.289c-3.741,1.2-7.571,2.082-11.186,2.319v-9.127c0-15.187,10.86-27.758,25.121-30.551
									c1.104-0.215,2.222-0.37,3.363-0.467c0.874-0.081,1.756-0.119,2.652-0.119c2.03,0,4.06,0.207,5.993,0.585
									c6.201,1.208,11.712,4.245,16.001,8.534C155.614,21.932,159.11,29.725,159.11,38.326z"/>
								<path fill="#965959" d="M159.112,38.325v2.414l-0.012,0.012c-4.036,2.09-8.156,3.52-12.072,4.481v-6.907
									c0-12.925-7.856-24-19.063-28.709c-1.91-0.793-3.928-1.417-6.006-1.838c1.946-0.384,3.964-0.589,6.018-0.589
									c2.03,0,4.06,0.204,5.994,0.589c6.198,1.201,11.712,4.24,16,8.529C155.616,21.929,159.112,29.725,159.112,38.325z"/>
								<path fill="#C98585" d="M125.322,7.308c-2.474,1.496-4.749,3.297-6.786,5.334c-6.504,6.497-10.512,15.483-10.512,25.388
									v7.104c-3.741,1.2-7.571,2.082-11.186,2.319v-9.127c0-15.187,10.86-27.758,25.121-30.551
									C123.063,7.56,124.181,7.405,125.322,7.308z"/>
							</g>
						</g>
					</g>
				</g>
			</g>
		</g>
	</g>
	<g>
		<path fill="#5F266D" d="M115.47,195.56c-2.941-2.921-7.655-2.924-10.6,0l-0.63,0.63l-0.002,0.002
			c-6.315-10.852-16.376-19.18-28.296-23.24l-30.064-10.31l-15.848-53.437c-4.182-15.399-28.425-13.226-26.681,6.409
			c0.015,0.344,2.972,68.195,3.02,68.537c0.99,7.356,5.907,13.867,12.831,16.992l39.535,17.865
			c4.956,2.472,8.862,6.502,11.203,11.496L69.1,231.34c-2.92,2.92-2.92,7.67,0,10.59l8.69,8.7c2.886,2.885,7.659,2.932,10.6-0.01
			l35.77-35.77c2.92-2.92,2.92-7.68,0-10.6L115.47,195.56z M62.224,211.808c-0.092-0.046-39.638-17.915-39.732-17.957
			c-4.373-1.974-7.489-6.02-8.172-10.61c-0.005-0.104-2.987-68.167-2.997-68.27c-0.934-9.939,9.314-9.82,11.011-3.58l14.331,48.325
			c-15.74-2.409-21.085,20.33-6.08,25.274l40.072,13.746c4.998,1.715,7.602-5.85,2.596-7.567l-40.118-13.762
			c-6.468-2.131-3.008-11.634,3.117-9.609l37.102,12.723c10.771,3.669,19.746,11.454,24.994,21.561L75.86,224.58l0,0
			C72.683,219.096,67.986,214.662,62.224,211.808z M83.09,244.61l-7.97-7.98c6.807-6.807,17.654-17.653,35.05-35.05l7.98,7.97
			L83.09,244.61z"/>
		<path fill="#5F266D" d="M212.36,192.77l-14.88,5.87c-4.869,1.924-2.025,9.405,2.94,7.44l14.88-5.87
			C220.249,198.239,217.252,190.823,212.36,192.77z"/>
		<path fill="#5F266D" d="M183.53,204.15l-3.67,1.45c-4.876,1.927-2.016,9.403,2.94,7.44l3.67-1.45
			C191.376,209.651,188.461,202.21,183.53,204.15z"/>
		<path fill="#5F266D" d="M225.995,109.116l-15.873,53.525l-30.056,10.308c-11.927,4.062-21.99,12.391-28.305,23.243l-0.632-0.632
			c-2.941-2.921-7.656-2.924-10.6,0l-8.69,8.69c-2.92,2.92-2.92,7.68,0,10.6l35.77,35.77c2.893,2.913,7.672,2.929,10.6,0l8.69-8.69
			c2.92-2.92,2.92-7.67,0-10.59l-0.837-0.837c2.341-4.994,6.247-9.024,11.203-11.496l39.533-17.864
			c6.925-3.125,11.842-9.637,12.829-16.972c0.052-0.373,3.006-68.182,3.023-68.558C254.398,95.948,230.135,93.87,225.995,109.116z
			 M172.91,244.61l-35.06-35.06l7.98-7.97l35.05,35.05L172.91,244.61z M244.677,114.97c-0.01,0.104-2.992,68.167-2.997,68.272
			c-0.674,4.577-3.793,8.632-8.173,10.609c-0.094,0.042-39.638,17.91-39.73,17.956c-5.763,2.854-10.46,7.288-13.636,12.772l0,0
			l-22.488-22.498c5.248-10.107,14.224-17.892,25.002-21.563l37.051-12.707c6.29-2.078,9.59,7.475,3.113,9.61l-40.072,13.746
			c-4.999,1.715-2.411,9.285,2.596,7.567l40.026-13.73c15.091-4.973,9.689-27.694-6.035-25.287l14.357-48.417
			C235.34,105.232,245.617,104.97,244.677,114.97z"/>
		<path fill="#5F266D" d="M90.351,178.02c9.596,0,66.142,0,75.291,0c5.744,0,10.417-4.673,10.417-10.417v-41.03
			c0-12.273-9.985-22.258-22.258-22.258c-7.513,0-11.427-0.005-12.081-0.005v-8.68c20.395,8.304,42.84-6.823,42.84-28.89
			c0-13.8-9.02-25.53-21.47-29.62c-0.02-0.5-0.04-1-0.09-1.5c-1.044-17.213-15.963-32.43-35.03-32.43
			c-19.976,0-35.13,16.386-35.13,35.13c0,8.523,0,14.807,0,23.98c0,14.273,8.674,27.28,21.38,32.8v9.21
			c0,0-1.686,0.005-12.027,0.005c-12.273,0-22.258,9.985-22.258,22.306v40.982C79.935,173.347,84.608,178.02,90.351,178.02z
			 M163.1,115.787c3.031,2.617,4.959,6.476,4.959,10.785v41.03c0,1.333-1.084,2.417-2.417,2.417H163.1V115.787z M163.1,62.86V45.72
			c7.94,3.67,13.46,11.71,13.46,21.02c0,14.173-12.659,24.829-26.04,22.98C158.2,83.26,163.1,73.59,163.1,62.86z M100.84,38.32
			c0-14.668,11.849-27.13,27.24-27.13c12.618,0,25.08,9.167,26.88,24.43h0.01c0.08,0.86,0.13,1.74,0.13,2.63
			c-7.254,3.292-15.106,4.688-23.07,4.93l2.85-7.62c1.377-3.657-2.76-6.819-5.92-4.76c-1.163,0.813-15.609,9.648-28.12,12.09V38.32z
			 M100.84,62.3V51.01c7.537-1.2,15.882-4.579,22.73-8.03l-0.99,2.63c-0.905,2.443,0.736,5.107,3.32,5.38
			c1.014,0.203,15.107,1.264,29.2-4.09v15.96c0,14.754-11.971,26.909-26.76,27.13C113.361,90.239,100.84,77.52,100.84,62.3z
			 M137.72,112.31c0.584,0,2,0.005,2.11,0.005v10.445c0,1.74-1.42,3.16-3.16,3.16h-17.4c-1.74,0-3.16-1.42-3.16-3.16v-10.445
			c0.094,0,0.967-0.005,2.11-0.005c2.2,0,4-1.79,4-4V97.5c1.89,0.33,3.81,0.49,5.76,0.49c1.849,0,3.646-0.129,5.74-0.47v10.79
			C133.72,110.52,135.51,112.31,137.72,112.31z M100.839,112.383c0.446-0.042,0.897-0.069,1.354-0.069h5.917v10.445
			c0,6.15,5.01,11.16,11.16,11.16h17.4c6.15,0,11.16-5.01,11.16-11.16v-10.445h5.971c0.438,0,0.87,0.027,1.298,0.066v57.639h-54.26
			V112.383z M87.935,126.573c0-4.282,1.906-8.119,4.904-10.735v54.182h-2.488c-1.333,0-2.417-1.084-2.417-2.417V126.573z"/>
		<path fill="#5F266D" d="M112.645,54.838c-2.303,0-4.171,1.867-4.171,4.171s1.867,4.171,4.171,4.171
			c2.303,0,4.171-1.867,4.171-4.171S114.949,54.838,112.645,54.838z"/>
		<circle fill="#5F266D" cx="143.307" cy="59.009" r="4.171"/>
		<path fill="#5F266D" d="M137.54,70.15c0-2.2-1.79-4-4-4c-2.221,0-4,1.816-4,4c0,0.87-0.7,1.57-1.56,1.57
			c-0.86,0-1.56-0.7-1.56-1.57c0-2.678-2.571-4.257-4.17-3.99c-2.13,0.08-3.83,1.85-3.83,3.99c0,5.265,4.266,9.57,9.56,9.57
			C133.252,79.72,137.54,75.416,137.54,70.15z"/>
	</g>
</g>
</svg>
