<?xml version="1.0" encoding="utf-8"?>
<!-- Generator: Adobe Illustrator 24.0.0, SVG Export Plug-In . SVG Version: 6.00 Build 0)  -->
<svg version="1.1" id="Icon_Set" xmlns="http://www.w3.org/2000/svg" xmlns:xlink="http://www.w3.org/1999/xlink" x="0px" y="0px"
	 viewBox="0 0 256 256" enable-background="new 0 0 256 256" xml:space="preserve">
<g>
	<g>
		<g>
			<g>
				<g>
					<g>
						<g>
							<g>
								<g>
									<g>
										<path id="XMLID_171_" fill="#FFBB98" d="M96.133,191.52c-0.933-1.118-1.914-2.198-2.945-3.228
											c-3.686-3.686-7.978-6.789-12.733-9.145c-1.887-0.938-3.823-1.751-5.808-2.427l-32.022-10.983l-16.458-55.504
											c-0.464-1.707-1.347-3.179-2.514-4.346c-2.389-2.389-5.955-3.468-9.451-2.525c-5.197,1.402-7.285,6.298-6.866,11.959
											l2.983,68.161c0.005,0.038,0.005,0.082,0.011,0.12c0.823,6.124,4.881,11.337,10.514,13.884l39.607,17.892
											c4.264,2.116,7.842,5.224,10.503,8.954c1.554,2.176,2.798,4.564,3.692,7.106l28.548-28.548
											C101.368,198.773,98.985,194.95,96.133,191.52z"/>
										<path fill="#4BDBC3" d="M121.345,212.006l-35.782,35.782c-1.365,1.365-3.572,1.365-4.937,0l-8.694-8.694
											c-1.365-1.365-1.365-3.572,0-4.937l35.782-35.782c1.36-1.36,3.572-1.365,4.937,0l8.694,8.694
											C122.71,208.434,122.706,210.646,121.345,212.006z"/>
										<path fill="#3BB2A0" d="M121.345,212.006l-35.782,35.782c-1.365,1.365-3.572,1.365-4.937,0l-1.937-1.937
											c-1.365-1.365-1.365-3.572,0-4.937l35.782-35.782c1.36-1.36,3.572-1.365,4.937,0l1.937,1.937
											C122.71,208.434,122.706,210.646,121.345,212.006z"/>
										<path id="XMLID_170_" fill="#FFCAA6" d="M96.133,191.52c-0.933-1.118-1.914-2.198-2.945-3.228
											c-3.686-3.686-7.978-6.789-12.733-9.145c-1.887-0.938-3.823-1.751-5.808-2.427l-32.022-10.983l-5.077-1.74
											c-3.354-1.107-6.898-0.136-9.232,2.198c-0.971,0.971-1.74,2.176-2.192,3.566c-1.565,4.75,1.009,9.865,5.759,11.43
											l39.312,13.485c0,0,11.081,4.216,19.806,14.258l2.828,3.322l9.367-9.367C101.368,198.773,98.985,194.95,96.133,191.52z"/>
									</g>
								</g>
							</g>
						</g>
					</g>
				</g>
			</g>
			<g>
				<g>
					<g>
						<g>
							<g>
								<g>
									<g>
										<path id="XMLID_166_" fill="#FFBB98" d="M159.867,191.52c0.933-1.118,1.914-2.198,2.945-3.228
											c3.686-3.686,7.978-6.789,12.733-9.145c1.887-0.938,3.823-1.751,5.808-2.427l32.022-10.983l16.458-55.504
											c0.464-1.707,1.347-3.179,2.514-4.346c2.389-2.389,5.955-3.468,9.451-2.525c5.197,1.402,7.285,6.298,6.866,11.959
											l-2.983,68.161c-0.005,0.038-0.005,0.082-0.011,0.12c-0.823,6.124-4.881,11.337-10.514,13.884l-39.607,17.892
											c-4.264,2.116-7.842,5.224-10.503,8.954c-1.554,2.176-2.798,4.564-3.692,7.106l-28.548-28.548
											C154.632,198.773,157.015,194.95,159.867,191.52z"/>
										<path fill="#4BDBC3" d="M134.655,212.006l35.782,35.782c1.365,1.365,3.572,1.365,4.937,0l8.694-8.694
											c1.365-1.365,1.365-3.572,0-4.937l-35.782-35.782c-1.36-1.36-3.572-1.365-4.937,0l-8.694,8.694
											C133.291,208.434,133.295,210.646,134.655,212.006z"/>
										<path fill="#3BB2A0" d="M134.655,212.006l35.782,35.782c1.365,1.365,3.572,1.365,4.937,0l1.937-1.937
											c1.365-1.365,1.365-3.572,0-4.937l-35.782-35.782c-1.36-1.36-3.572-1.365-4.937,0l-1.937,1.937
											C133.291,208.434,133.295,210.646,134.655,212.006z"/>
										<path id="XMLID_165_" fill="#FFCAA6" d="M159.867,191.52c0.933-1.118,1.914-2.198,2.945-3.228
											c3.686-3.686,7.978-6.789,12.733-9.145c1.887-0.938,3.823-1.751,5.808-2.427l32.022-10.983l5.077-1.74
											c3.354-1.107,6.898-0.136,9.232,2.198c0.971,0.971,1.74,2.176,2.192,3.566c1.565,4.75-1.009,9.865-5.759,11.43
											l-39.312,13.485c0,0-11.081,4.216-19.806,14.258l-2.828,3.322l-9.367-9.367
											C154.632,198.773,157.015,194.95,159.867,191.52z"/>
									</g>
								</g>
							</g>
						</g>
					</g>
				</g>
			</g>
		</g>
	</g>
	<g>
		<g>
			<g>
				<g>
					<g>
						<g>
							<path fill="#F9D335" d="M172.061,126.571v41.028c0,3.544-2.873,6.417-6.417,6.417H90.356c-3.544,0-6.417-2.873-6.417-6.417
								v-41.028c0-10.084,8.175-18.259,18.259-18.259h51.605C163.881,108.313,172.061,116.481,172.061,126.571z"/>
							<path fill="#F9E27D" d="M96.84,109.109v64.91h-6.487c-3.543,0-6.414-2.88-6.414-6.423v-41.022
								C83.939,118.357,89.368,111.4,96.84,109.109z"/>
							<path fill="#5FCDFF" d="M172.065,126.574v41.022c0,3.543-2.88,6.423-6.423,6.423H159.1V109.09
								C166.599,111.363,172.065,118.329,172.065,126.574z"/>
							<path fill="#5FCDFF" d="M96.84,109.109v64.91h-6.487c-3.543,0-6.414-2.88-6.414-6.423v-41.022
								C83.939,118.357,89.368,111.4,96.84,109.109z"/>
							<path fill="#FFBB98" d="M127.964,7.186c-8.601,0-16.373,3.484-22.006,9.117c-5.634,5.634-9.117,13.418-9.117,22.018v23.976
								c0,13.802,8.978,25.831,21.379,30.062v15.951h-6.111v14.442c0,3.956,3.207,7.163,7.163,7.163h17.397
								c3.956,0,7.163-3.207,7.163-7.163v-14.442h-6.111V92.406c12.384-4.113,21.38-15.833,21.38-29.543V38.322
								C159.1,21.132,145.166,7.186,127.964,7.186z"/>
							<path fill="#FFAA80" d="M159.1,40.748v22.115c0,15.039-10.823,27.688-25.07,30.523h-0.012
								c-0.312,0.06-0.625,0.12-0.937,0.168c-1.526,0.264-3.087,0.408-4.685,0.432c-2.186,0.036-4.312-0.168-6.379-0.601
								c2.102-0.42,4.108-1.057,6.03-1.886c11.135-4.745,18.991-15.82,18.991-28.649V45.229
								C150.956,44.268,155.064,42.838,159.1,40.748z"/>
							<path fill="#FFCAA6" d="M133.142,93.386c-0.012,0.036-0.036,0.084-0.06,0.168c-1.526,0.264-3.087,0.408-4.685,0.432
								c-2.186,0.036-4.312-0.168-6.379-0.601c-0.012,0-0.012,0-0.012,0c-14.319-2.883-25.166-15.916-25.166-31.088V47.667
								c3.471-0.755,5.368-0.677,11.183-2.535v17.165c0,12.961,7.916,24.361,19.148,29.202
								C129.07,92.329,131.064,92.965,133.142,93.386z"/>
							<path fill="#B76C6C" d="M159.111,38.322v2.415l-0.007,0.007c-4.037,2.097-8.156,3.526-12.075,4.482
								c-11.245,2.8-20.698,1.778-20.698,1.778l4.808-12.853c-0.444,0.289-10.823,6.882-22.224,10.69
								c-0.296,0.096-0.593,0.193-0.889,0.289c-3.741,1.2-7.571,2.082-11.186,2.319v-9.127c0-15.187,10.86-27.758,25.121-30.551
								c1.104-0.215,2.222-0.37,3.363-0.467c0.874-0.081,1.756-0.119,2.652-0.119c2.03,0,4.06,0.207,5.993,0.585
								c6.201,1.208,11.712,4.245,16.001,8.534C155.614,21.928,159.111,29.722,159.111,38.322z"/>
							<path fill="#965959" d="M159.112,38.322v2.414l-0.012,0.012c-4.036,2.09-8.156,3.52-12.072,4.481v-6.907
								c0-12.925-7.856-24-19.063-28.709c-1.91-0.793-3.928-1.417-6.006-1.838c1.946-0.384,3.964-0.589,6.018-0.589
								c2.03,0,4.06,0.204,5.994,0.589c6.198,1.201,11.712,4.24,16,8.529C155.617,21.925,159.112,29.721,159.112,38.322z"/>
							<path fill="#C98585" d="M125.322,7.305c-2.474,1.496-4.749,3.297-6.786,5.334c-6.504,6.497-10.512,15.483-10.512,25.388
								v7.104c-3.741,1.2-7.571,2.082-11.186,2.319v-9.127c0-15.187,10.86-27.758,25.121-30.551
								C123.063,7.557,124.182,7.401,125.322,7.305z"/>
						</g>
					</g>
				</g>
			</g>
		</g>
	</g>
	<g>
		<path fill="#5F266D" d="M115.47,195.556c-2.929-2.929-7.668-2.929-10.596,0l-0.635,0.635
			c-6.315-10.853-16.377-19.183-28.298-23.243l-30.064-10.31L30.03,109.201c-4.18-15.387-28.422-13.237-26.681,6.406
			c0.131,3.072,2.963,68.109,3.021,68.54c0.99,7.356,5.907,13.867,12.829,16.992l39.535,17.865c4.955,2.47,8.86,6.499,11.201,11.492
			l-0.837,0.837c-2.92,2.921-2.92,7.673,0,10.594c0,0,0.001,0,0.001,0l8.694,8.694c2.919,2.92,7.674,2.921,10.594,0l35.775-35.775
			c2.934-2.935,2.925-7.674,0-10.595L115.47,195.556z M62.096,211.743l-39.604-17.896c-4.379-1.977-7.498-6.033-8.171-10.607
			c-0.003-0.063-2.991-68.211-2.997-68.273c-0.93-9.937,9.311-9.822,11.011-3.58l14.331,48.325
			c-15.768-2.416-20.974,20.37-6.079,25.275l40.071,13.746c4.997,1.717,7.601-5.851,2.596-7.567l-40.117-13.762
			c-6.384-2.102-3.069-11.657,3.116-9.609l37.102,12.723c10.773,3.669,19.748,11.455,24.996,21.563l-22.492,22.492
			C72.437,218.667,67.095,214.016,62.096,211.743z M83.09,244.604l-7.976-7.975l35.057-35.057l7.976,7.975L83.09,244.604z"/>
		<path fill="#5F266D" d="M183.531,204.146l-3.666,1.448c-4.88,1.925-2.02,9.401,2.938,7.44l3.666-1.448
			C191.385,209.647,188.452,202.199,183.531,204.146z"/>
		<path fill="#5F266D" d="M212.365,192.761l-14.882,5.876c-4.876,1.925-2.028,9.405,2.938,7.44l14.882-5.876
			C220.226,198.258,217.277,190.82,212.365,192.761z"/>
		<path fill="#5F266D" d="M225.996,109.113l-15.873,53.525l-30.057,10.308c-11.927,4.063-21.991,12.392-28.306,23.245l-0.635-0.635
			c-2.928-2.927-7.668-2.928-10.595,0.001l-8.692,8.692c-2.931,2.929-2.93,7.667-0.001,10.596l35.775,35.775
			c2.92,2.921,7.673,2.92,10.594,0l8.694-8.694c0,0,0.001,0,0.001,0c2.92-2.921,2.92-7.673-0.001-10.595l-0.836-0.836
			c2.341-4.993,6.246-9.022,11.201-11.492l39.533-17.864c6.924-3.125,11.841-9.637,12.832-16.998
			c0.057-0.425,2.889-65.463,3.02-68.535C254.387,96.034,230.157,93.791,225.996,109.113z M172.91,244.604l-35.057-35.057
			l7.976-7.975l35.057,35.057L172.91,244.604z M244.677,114.967c-0.007,0.066-2.994,68.206-2.997,68.272
			c-0.675,4.578-3.793,8.632-8.173,10.609l-39.603,17.896c-4.957,2.253-10.318,6.884-13.762,12.829l-22.492-22.492
			c5.248-10.108,14.224-17.894,25.003-21.565l37.051-12.707c6.323-2.076,9.506,7.503,3.113,9.61l-40.071,13.746
			c-4.996,1.714-2.414,9.285,2.596,7.567l40.025-13.73c14.961-4.929,9.734-27.698-6.034-25.286l14.357-48.417
			C235.339,105.236,245.613,104.959,244.677,114.967z"/>
		<path fill="#5F266D" d="M90.352,178.016c9.596,0,66.142,0,75.291,0c5.744,0,10.417-4.673,10.417-10.417v-41.03
			c0-12.273-9.984-22.258-22.258-22.258c-9.312,0-11.558-0.002-12.078-0.002v-9.15c12.538-5.391,21.377-17.891,21.377-32.3
			c0-22.355,0.012-24.127,0.012-24.537c0-19.329-15.366-34.204-33.404-35.089c-20.122-0.99-36.871,15.126-36.871,35.087v23.98
			c0,13.859,8.262,27.053,21.378,32.803v9.206c-0.009,0-1.643,0.002-12.023,0.002c-12.273,0-22.258,9.985-22.258,22.306v40.982
			C79.935,173.343,84.608,178.016,90.352,178.016z M168.06,126.569v41.03c0,1.333-1.084,2.417-2.417,2.417H163.1v-54.233
			C166.131,118.4,168.06,122.26,168.06,126.569z M128.96,30.797c-5.505,3.589-17.982,10.107-28.119,12.089v-4.565
			c0-15.545,13.189-28.16,29.026-27.06c14.111,0.979,25.193,12.76,25.231,26.982c-7.157,3.247-15.344,4.771-23.064,4.927
			l2.849-7.617C136.226,31.956,132.185,28.708,128.96,30.797z M100.838,62.299V51.005c7.656-1.238,15.803-4.545,22.729-8.029
			c-2.077,5.556-0.585,7.692,2.334,8.008c7.296,0.783,19.055-0.237,29.2-4.092v15.967c0,14.757-12.003,26.928-26.756,27.129
			C112.857,90.178,100.838,77.075,100.838,62.299z M127.977,97.991c1.85,0,3.777-0.147,5.747-0.476v10.793c0,2.209,1.791,4,4,4
			c0.837,0,1.665,0.002,2.11,0.002v10.444c0,1.742-1.422,3.159-3.169,3.159h-17.392c-1.747,0-3.168-1.417-3.168-3.159v-10.444
			c0.077,0,0.959-0.002,2.11-0.002c2.209,0,4-1.791,4-4V97.497C124.106,97.817,126.029,97.991,127.977,97.991z M108.106,112.311
			v10.444c0,6.153,5.01,11.159,11.168,11.159h17.392c6.158,0,11.169-5.006,11.169-11.159v-10.444h5.968
			c0.438,0,0.87,0.027,1.298,0.066v57.639h-54.26v-57.637c0.446-0.042,0.896-0.068,1.353-0.068H108.106z M87.935,126.569
			c0-4.282,1.907-8.12,4.905-10.736v54.183h-2.488c-1.333,0-2.417-1.084-2.417-2.417V126.569z"/>
		<path fill="#5F266D" d="M112.646,54.834c-2.303,0-4.171,1.867-4.171,4.171s1.867,4.171,4.171,4.171s4.171-1.867,4.171-4.171
			S114.949,54.834,112.646,54.834z"/>
		<path fill="#5F266D" d="M143.308,63.176c2.303,0,4.171-1.867,4.171-4.171s-1.867-4.171-4.171-4.171s-4.171,1.867-4.171,4.171
			S141.004,63.176,143.308,63.176z"/>
		<path fill="#5F266D" d="M137.539,70.15c0-2.209-1.791-4-4-4s-4,1.791-4,4c0,0.861-0.701,1.562-1.563,1.562
			s-1.562-0.701-1.562-1.562c0-2.209-1.791-4-4-4s-4,1.791-4,4c0,5.272,4.289,9.562,9.562,9.562S137.539,75.423,137.539,70.15z"/>
	</g>
</g>
</svg>
