<?xml version="1.0" encoding="utf-8"?>
<!-- Generator: Adobe Illustrator 24.0.0, SVG Export Plug-In . SVG Version: 6.00 Build 0)  -->
<svg version="1.1" id="Icon_Set" xmlns="http://www.w3.org/2000/svg" xmlns:xlink="http://www.w3.org/1999/xlink" x="0px" y="0px"
	 viewBox="0 0 256 256" enable-background="new 0 0 256 256" xml:space="preserve">
<g>
	<g>
		<path fill="#FFE2E2" d="M212.947,41.519L188.078,94.32H31.205c-7.23,0-13.091,5.861-13.091,13.091v0
			c0,7.23,5.861,13.091,13.091,13.091h144.544h21.686c4.43,0,8.461-2.558,10.348-6.565l9.238-19.617l19.614-41.644
			c3.081-6.541,0.276-14.341-6.265-17.422l0,0C223.829,32.172,216.028,34.977,212.947,41.519z"/>
		<path fill="#87828E" d="M244.347,146.228H11.653c-1.875,0-3.395-1.52-3.395-3.395v-18.935c0-1.875,1.52-3.395,3.395-3.395h232.694
			c1.875,0,3.395,1.52,3.395,3.395v18.935C247.742,144.708,246.222,146.228,244.347,146.228z"/>
		<g>
			<path fill="#87828E" d="M50.234,222.002H34.105c-1.875,0-3.395-1.52-3.395-3.395v-72.379h22.919v72.379
				C53.629,220.482,52.109,222.002,50.234,222.002z"/>
			<path fill="#87828E" d="M221.895,222.002h-16.129c-1.875,0-3.395-1.52-3.395-3.395v-72.379h22.919v72.379
				C225.29,220.482,223.77,222.002,221.895,222.002z"/>
		</g>
		<path fill="#FFEFEE" d="M36.94,116.672c2.37,2.37,5.64,3.83,9.26,3.83h-15c-3.62,0-6.89-1.46-9.26-3.83
			c-2.36-2.37-3.83-5.65-3.83-9.26c0-7.23,5.86-13.09,13.09-13.09h15c-7.23,0-13.09,5.86-13.09,13.09
			C33.11,111.022,34.58,114.302,36.94,116.672z"/>
		<path fill="#A4A4A5" d="M26.65,146.232h-15c-1.87,0-3.39-1.52-3.39-3.4v-18.93c0-1.88,1.52-3.4,3.39-3.4h15
			c-1.87,0-3.39,1.52-3.39,3.4v18.93C23.26,144.712,24.78,146.232,26.65,146.232z"/>
		<path fill="#FFCFCF" d="M236.64,52.672l-19.62,41.65l-9.24,19.61c-1.88,4.01-5.91,6.57-10.34,6.57h-15
			c4.43,0,8.46-2.56,10.34-6.57l9.24-19.61l19.62-41.65c2.76-5.86,0.79-12.73-4.35-16.3c2.19-1.54,4.83-2.37,7.52-2.37
			c1.86,0,3.76,0.4,5.56,1.25C236.91,38.332,239.72,46.132,236.64,52.672z"/>
		<path fill="#796E84" d="M247.74,123.902v18.93c0,1.88-1.52,3.4-3.39,3.4h-15c1.87,0,3.39-1.52,3.39-3.4v-18.93
			c0-1.88-1.52-3.4-3.39-3.4h15C246.22,120.502,247.74,122.022,247.74,123.902z"/>
	</g>
	<g>
		<path fill="#5F266D" d="M244.347,116.502H231.5V72.969l8.755-18.589c4.015-8.526,0.345-18.729-8.181-22.745
			c-8.54-4.028-18.718-0.369-22.746,8.18l-23.787,50.506H31.205c-9.425,0-17.092,7.667-17.092,17.091
			c0,3.342,0.979,6.454,2.644,9.091h-5.104c-4.078,0-7.396,3.317-7.396,7.396v18.936c0,4.077,3.317,7.395,7.396,7.395H26.71v68.379
			c0,4.078,3.317,7.396,7.395,7.396h16.129c4.078,0,7.396-3.317,7.396-7.396v-68.379h140.742v68.379
			c0,4.078,3.317,7.396,7.396,7.396h16.129c4.077,0,7.395-3.317,7.395-7.396v-68.379h15.057c4.078,0,7.396-3.317,7.396-7.395
			v-18.936C251.742,119.82,248.425,116.502,244.347,116.502z M223.5,116.502h-12.542c0.439-0.797-0.468,1.075,12.542-26.547V116.502
			z M22.113,107.411c0-5.013,4.078-9.091,9.092-9.091h156.873c1.549,0,2.959-0.895,3.619-2.296l24.869-52.802h-0.001
			c2.14-4.54,7.545-6.494,12.101-4.352c4.535,2.137,6.486,7.564,4.351,12.101l-28.853,61.261c-1.221,2.594-3.862,4.27-6.729,4.27
			H31.205C26.191,116.502,22.113,112.424,22.113,107.411z M49.629,218.002H34.71v-67.774h14.919V218.002z M221.29,218.002h-14.919
			v-67.774h14.919V218.002z M243.742,142.228c-108.847,0-60.353,0-231.484,0v-17.726c2.891,0,226.542,0,231.484,0V142.228z"/>
		<path fill="#5F266D" d="M63.11,103.412h-30c-2.209,0-4,1.791-4,4s1.791,4,4,4h30c2.209,0,4-1.791,4-4
			S65.319,103.412,63.11,103.412z"/>
		<path fill="#5F266D" d="M82.75,103.412h-4.64c-2.209,0-4,1.791-4,4s1.791,4,4,4h4.64c2.209,0,4-1.791,4-4
			S84.959,103.412,82.75,103.412z"/>
	</g>
</g>
</svg>
