<?xml version="1.0" encoding="utf-8"?>
<!-- Generator: Adobe Illustrator 24.0.0, SVG Export Plug-In . SVG Version: 6.00 Build 0)  -->
<svg version="1.1" id="Icon_Set" xmlns="http://www.w3.org/2000/svg" xmlns:xlink="http://www.w3.org/1999/xlink" x="0px" y="0px"
	 viewBox="0 0 256 256" enable-background="new 0 0 256 256" xml:space="preserve">
<g>
	<g>
		<g>
			<g>
				<path fill="#FF4A73" d="M108.742,179.81v62.708H66.101c-17.319,0-31.354-14.034-31.354-31.354
					c0-8.659,3.509-16.498,9.182-22.172c5.674-5.673,13.512-9.182,22.172-9.182H108.742z"/>
				<path fill="#FFE2E2" d="M182.737,211.164c0,8.66-3.509,16.499-9.182,22.172c-5.674,5.673-13.527,9.182-22.172,9.182h-42.641
					V179.81h42.641C168.688,179.81,182.737,193.844,182.737,211.164z"/>
				<path fill="#F973A3" d="M83.372,242.523H66.106c-17.324,0-31.356-14.043-31.356-31.356c0-8.667,3.511-16.506,9.174-22.181
					c5.675-5.664,13.514-9.174,22.181-9.174h17.266c-8.668,0-16.507,3.511-22.181,9.174c-5.663,5.674-9.174,13.513-9.174,22.181
					C52.017,228.48,66.048,242.523,83.372,242.523z"/>
				<path fill="#FFCFCF" d="M182.734,211.167c0,8.656-3.511,16.495-9.174,22.17c-5.675,5.675-13.537,9.186-22.181,9.186h-17.266
					c8.645,0,16.507-3.511,22.181-9.186c5.663-5.675,9.174-13.514,9.174-22.17c0-17.324-14.043-31.355-31.356-31.355h17.266
					C168.691,179.812,182.734,193.844,182.734,211.167z"/>
			</g>
			<g>
				<path fill="#FFE2E2" d="M164.486,117.108v62.708h-42.641c-17.319,0-31.354-14.034-31.354-31.354
					c0-8.659,3.509-16.498,9.182-22.172c5.674-5.673,13.512-9.182,22.172-9.182H164.486z"/>
				<path fill="#44C7B6" d="M238.481,148.462c0,8.66-3.509,16.499-9.182,22.172c-5.674,5.673-13.527,9.182-22.172,9.182h-42.641
					v-62.708h42.641C224.432,117.108,238.481,131.143,238.481,148.462z"/>
				<path fill="#FFEFEE" d="M139.116,179.822H121.85c-17.324,0-31.356-14.043-31.356-31.356c0-8.667,3.511-16.506,9.174-22.181
					c5.675-5.664,13.514-9.174,22.181-9.174h17.266c-8.668,0-16.507,3.511-22.181,9.174c-5.663,5.674-9.174,13.513-9.174,22.181
					C107.761,165.778,121.792,179.822,139.116,179.822z"/>
				<path fill="#3BB2A0" d="M238.478,148.466c0,8.656-3.511,16.495-9.174,22.17c-5.675,5.675-13.537,9.186-22.181,9.186h-17.266
					c8.645,0,16.507-3.511,22.181-9.186c5.663-5.675,9.174-13.514,9.174-22.17c0-17.324-14.043-31.355-31.356-31.355h17.266
					C224.435,117.111,238.478,131.142,238.478,148.466z"/>
			</g>
			<circle fill="#FFE2E2" cx="65.001" cy="60.964" r="47.482"/>
			<path fill="#FFEFEE" d="M74.893,107.417c-3.192,0.673-6.502,1.029-9.892,1.029c-26.221,0-47.482-21.262-47.482-47.482
				S38.78,13.482,65.001,13.482c3.39,0,6.7,0.356,9.892,1.028c-21.473,4.564-37.59,23.623-37.59,46.454
				S53.42,102.854,74.893,107.417z"/>
			<path fill="#FFCFCF" d="M112.483,60.964c0,26.221-21.262,47.482-47.482,47.482c-3.39,0-6.7-0.356-9.892-1.029
				c21.473-4.564,37.59-23.622,37.59-46.453s-16.118-41.89-37.59-46.454c3.192-0.672,6.502-1.028,9.892-1.028
				C91.222,13.482,112.483,34.743,112.483,60.964z"/>
		</g>
	</g>
	<g>
		<path fill="#5F266D" d="M207.128,113.109c-10.372,0-74.894,0-85.283,0c-19.544,0-35.354,15.81-35.354,35.354
			c0,11.01,5.061,20.859,12.977,27.348H66.101c-19.544,0-35.354,15.81-35.354,35.354c0,19.494,15.859,35.354,35.354,35.354
			c10.372,0,74.894,0,85.283,0c19.539,0,35.354-15.807,35.354-35.354c0-11.01-5.061-20.859-12.977-27.348h33.367
			c19.54,0,35.354-15.806,35.354-35.354C242.481,128.968,226.622,113.109,207.128,113.109z M94.491,148.462
			c0-15.123,12.231-27.354,27.354-27.354h38.642v54.707c-0.42,0-8.501-0.006-38.873-0.006
			C106.637,175.685,94.491,163.468,94.491,148.462z M38.747,211.164c0-15.123,12.231-27.354,27.354-27.354h38.642v54.708H66.101
			C51.018,238.518,38.747,226.247,38.747,211.164z M178.737,211.164c0,15.119-12.229,27.354-27.354,27.354h-38.642V183.81
			c0.42,0,8.501,0.006,38.873,0.006C166.591,183.941,178.737,196.158,178.737,211.164z M207.128,175.816h-38.642v-54.707h38.642
			c15.083,0,27.354,12.271,27.354,27.354C234.481,163.584,222.252,175.816,207.128,175.816z"/>
		<path fill="#5F266D" d="M116.483,60.964c0-28.388-23.095-51.482-51.482-51.482S13.519,32.577,13.519,60.964
			c0,28.387,23.095,51.481,51.482,51.481S116.483,89.351,116.483,60.964z M108.483,60.964c0,22.72-17.52,41.415-39.759,43.311
			c0.172-0.447,0.277-0.928,0.277-1.435V19.087c0-0.507-0.104-0.988-0.277-1.435C90.963,19.548,108.483,38.243,108.483,60.964z
			 M21.519,60.964c0-22.721,17.52-41.416,39.759-43.312c-0.172,0.447-0.277,0.928-0.277,1.435v83.753
			c0,0.507,0.104,0.988,0.277,1.435C39.039,102.379,21.519,83.685,21.519,60.964z"/>
		<path fill="#5F266D" d="M215.147,132.597h-4.811c-2.209,0-4,1.791-4,4s1.791,4,4,4h4.811c2.209,0,4-1.791,4-4
			S217.356,132.597,215.147,132.597z"/>
		<path fill="#5F266D" d="M195.337,132.597h-11c-2.209,0-4,1.791-4,4s1.791,4,4,4h11c2.209,0,4-1.791,4-4
			S197.546,132.597,195.337,132.597z"/>
	</g>
</g>
</svg>
