<?xml version="1.0" encoding="utf-8"?>
<!-- Generator: Adobe Illustrator 24.0.0, SVG Export Plug-In . SVG Version: 6.00 Build 0)  -->
<svg version="1.1" id="Icon_Set" xmlns="http://www.w3.org/2000/svg" xmlns:xlink="http://www.w3.org/1999/xlink" x="0px" y="0px"
	 viewBox="0 0 256 256" enable-background="new 0 0 256 256" xml:space="preserve">
<g>
	<g>
		<g>
			<g>
				<g>
					<g>
						<path id="XMLID_233_" fill="#FFE2E2" d="M43.446,125.901l15.015-20.993c0.572-0.8,0.88-1.755,0.88-2.739
							c0-3.59-0.002-12.334-0.002-12.246c0-42.525,34.014-77.772,76.537-78.086c59.27-0.438,96.591,63.478,67.942,114.567
							c-7.87,14.035-24.871,47.332-24.871,63.793c0,10.866,3.436,21.83,10.349,31.048l11.534,15.379
							c2.33,3.107,0.113,7.54-3.77,7.54l-82.284,0c-2.603,0-4.713-2.112-4.713-4.714c0-19.856,0.003-38.054,0.003-37.933
							c0.001-2.603-2.109-4.714-4.713-4.714H89.165c-15.437,0-29.08-37.415-29.824-61.433H48.315
							C43.444,135.371,40.612,129.863,43.446,125.901z"/>
						<path fill="#FFEFEE" d="M137.887,244.163H114.77c-2.589,0-4.701-2.112-4.701-4.716c0-19.788,0-37.928,0-37.928
							c0-2.604-2.111-4.716-4.716-4.716H89.172c-15.442,0-29.082-37.419-29.837-61.431H48.316c-4.87,0-7.706-5.502-4.87-9.478
							l15.011-20.99c0.57-0.801,0.878-1.757,0.878-2.728c0-3.576,0-12.252,0-12.252c0-42.52,34.013-77.767,76.534-78.09
							c4.192-0.031,8.276,0.262,12.237,0.863c-37.296,5.64-65.653,38.405-65.653,77.227c0,0,0,8.677,0,12.252
							c0,0.971-0.308,1.926-0.878,2.728l-15.011,20.99c-2.836,3.976,0,9.478,4.87,9.478h11.019
							c0.755,24.011,14.394,61.431,29.837,61.431h16.182c2.605,0,4.716,2.112,4.716,4.716c0,0,0,18.139,0,37.928
							C133.187,242.051,135.298,244.163,137.887,244.163z"/>
						<path fill="#FFCFCF" d="M203.818,126.403c-7.875,14.04-24.874,47.329-24.874,63.789c0,10.865,3.437,21.838,10.357,31.054
							l11.528,15.381c2.327,3.098,0.123,7.536-3.76,7.536H173.95c3.884,0,6.088-4.438,3.76-7.536l-11.528-15.381
							c-6.92-9.216-10.357-20.189-10.357-31.054c0-16.459,16.999-49.749,24.874-63.789c26.616-47.467-3.73-106.016-55.713-113.706
							c3.56-0.54,7.182-0.832,10.881-0.863C195.141,11.402,232.468,75.314,203.818,126.403z"/>
					</g>
				</g>
			</g>
		</g>
		<g>
			<path fill="#44C7B6" d="M108.14,58.331c5.646,0,11.292,2.185,15.597,6.535l4.249,4.302l4.258-4.302
				c6.713-6.783,16.654-8.28,24.802-4.503c2.322,1.068,4.494,2.576,6.401,4.503c8.61,8.7,8.61,22.819,0,31.529l-3.125,3.148
				l-29.145,29.449c-1.756,1.784-4.617,1.784-6.373,0l-28.012-28.304l-4.258-4.293c-8.62-8.71-8.62-22.829,0-31.529
				C96.848,60.516,102.494,58.331,108.14,58.331z"/>
			<path fill="#4BDBC3" d="M106.236,100.688l26.477,26.747l-1.536,1.555c-1.757,1.788-4.615,1.788-6.372,0l-28.013-28.303
				l-4.256-4.294c-8.62-8.708-8.62-22.825,0-31.526c4.313-4.351,9.961-6.536,15.603-6.536c1.587,0,3.173,0.17,4.729,0.516
				c-3.992,0.881-7.782,2.89-10.887,6.019c-8.62,8.702-8.62,22.818,0,31.526L106.236,100.688z"/>
			<path fill="#3BB2A0" d="M163.446,96.394l-3.123,3.148l-29.146,29.449c-1.757,1.788-4.615,1.788-6.372,0l-1.536-1.555
				l27.61-27.893l3.123-3.148c8.614-8.708,8.614-22.825,0-31.526c-1.908-1.927-4.08-3.438-6.404-4.502
				c-1.442-0.667-2.947-1.171-4.477-1.511c4.634-1.026,9.539-0.523,13.921,1.511c2.323,1.064,4.496,2.575,6.404,4.502
				C172.059,73.569,172.059,87.686,163.446,96.394z"/>
		</g>
	</g>
	<g id="XMLID_232_">
		<g>
			<g>
				<g>
					<path fill="#5F266D" d="M197.061,248.165h-82.283c-4.805,0-8.713-3.909-8.713-8.714l0.004-37.116
						c0-0.816,0.135-1.531-0.713-1.531h-16.19c-18.664,0-31.649-37.854-33.598-61.433h-7.252c-3.759,0-7.162-2.077-8.881-5.42
						c-1.72-3.343-1.429-7.319,0.759-10.376h-0.001l15.015-20.993c0.088-0.122,0.134-0.264,0.134-0.412l-0.002-12.245
						c0-44.935,36.115-81.759,80.508-82.087c62.258-0.489,101.67,66.649,71.461,120.523c-9.048,16.135-24.36,47.316-24.36,61.836
						c0,19.027,9.694,28.84,21.084,44.027c1.992,2.657,2.308,6.153,0.822,9.124S200.382,248.165,197.061,248.165z M63.33,89.924
						c0.014,0.269,0.011,11.975,0.011,12.245c0,1.828-0.563,3.58-1.627,5.067L46.7,128.229h-0.001
						c-0.636,0.89-0.317,1.74-0.15,2.064s0.673,1.078,1.767,1.078h11.025c2.161,0,3.932,1.716,3.998,3.876
						c0.736,23.775,14.218,57.557,25.826,57.557h16.19c4.805,0,8.713,3.909,8.713,8.714c0,0.109-0.004,18.203-0.004,37.933
						c0,0.394,0.319,0.714,0.713,0.714h82.283c0.109,0,0.44,0,0.638-0.394s-0.002-0.659-0.067-0.746
						c-11.698-15.598-22.684-27.004-22.684-48.827c0-19.497,21.144-58.19,25.382-65.75c27.227-48.551-8.354-109.046-64.424-108.61
						c-40.013,0.296-72.566,33.531-72.566,74.086H63.33z"/>
				</g>
			</g>
		</g>
	</g>
	<g>
		<g>
			<g>
				<g>
					<path fill="#5F266D" d="M181.728,124.069c-1.974-0.994-2.768-3.398-1.773-5.372c1.691-3.36,3.158-6.739,4.357-10.042
						c0.755-2.077,3.054-3.146,5.125-2.394c2.077,0.754,3.148,3.049,2.395,5.125c-1.307,3.598-2.899,7.268-4.732,10.908
						C186.107,124.266,183.703,125.063,181.728,124.069z M191.854,99.531c-0.203,0-0.409-0.016-0.617-0.047
						c-2.183-0.338-3.679-2.382-3.341-4.565c2.742-17.711-3.215-34.07-10.726-41.452c-1.577-1.547-1.601-4.08-0.053-5.657
						c1.549-1.576,4.082-1.6,5.656-0.053c7.995,7.85,16.491,26.022,13.028,48.386C195.497,98.118,193.794,99.531,191.854,99.531z"/>
				</g>
			</g>
		</g>
	</g>
	<g>
		<g>
			<g>
				<g>
					<path fill="#5F266D" d="M121.953,131.798l-32.26-32.586C79.547,88.959,79.548,72.29,89.691,62.051
						c9.227-9.305,25.257-11.77,38.297,1.428c12.938-13.068,29.051-10.776,38.301-1.426c10.133,10.238,10.134,26.906,0.002,37.154
						c-4.175,4.206,0.834-0.852-32.271,32.599C130.726,135.15,125.298,135.198,121.953,131.798z M95.373,67.683
						c-7.068,7.134-7.067,18.753,0.003,25.898c0.211,0.214,32.314,32.749,32.614,32.749l0,0c0.3,0,32.406-32.54,32.617-32.753
						c7.059-7.14,7.06-18.76-0.004-25.897c-7.17-7.243-18.618-6.97-25.518,0c-4.409,4.454-4.989,5.488-7.101,5.488
						c-0.001,0-0.001,0-0.002,0c-2.144-0.001-2.76-1.104-7.093-5.492C113.898,60.612,102.517,60.48,95.373,67.683z"/>
				</g>
			</g>
		</g>
	</g>
	<path fill="#5F266D" d="M140.329,91.088h-8.343v-8.342c0-2.209-1.791-4-4-4s-4,1.791-4,4v8.342h-8.343c-2.209,0-4,1.791-4,4
		s1.791,4,4,4h8.343v8.343c0,2.209,1.791,4,4,4s4-1.791,4-4v-8.343h8.343c2.209,0,4-1.791,4-4S142.538,91.088,140.329,91.088z"/>
</g>
</svg>
