<?xml version="1.0" encoding="utf-8"?>
<!-- Generator: Adobe Illustrator 24.0.0, SVG Export Plug-In . SVG Version: 6.00 Build 0)  -->
<svg version="1.1" id="Icon_Set" xmlns="http://www.w3.org/2000/svg" xmlns:xlink="http://www.w3.org/1999/xlink" x="0px" y="0px"
	 viewBox="0 0 256 256" enable-background="new 0 0 256 256" xml:space="preserve">
<g>
	<g>
		<g>
			<g>
				<g>
					<path fill="#FFBB98" d="M248.017,85.423l0.005-0.001c0-0.036-0.005-0.071-0.005-0.107v-0.005h0
						c-0.054-5.492-4.061-9.927-9.001-9.927c-4.94,0-8.947,4.435-9.001,9.927h-0.005V68.363c0-6.861-4.99-12.424-11.146-12.424
						c-6.117,0-11.075,5.527-11.075,12.345V57.458c0-6.84-4.974-12.384-11.111-12.384h0c-6.136,0-11.111,5.545-11.111,12.384v10.866
						c0-6.84-4.974-12.384-11.111-12.384h0c-6.136,0-11.111,5.545-11.111,12.384v35.698l0.054-0.012v9.063l-9.566-9.503
						c-5.137-5.103-13.467-5.103-18.604,0h0c-5.137,5.103-5.137,13.378,0,18.481l20.902,20.764c2.595,2.578,4.55,5.607,5.775,8.878
						c2.668,7.122,2.414,13.817,7.395,19.564l4.001,4.617c1.243,1.434,1.926,3.267,1.926,5.165v17.058
						c0,7.091,5.748,12.839,12.839,12.839h35.518c7.091,0,12.839-5.748,12.839-12.839v-16.281c0-1.649,0.517-3.257,1.478-4.597
						l4.412-6.15c3.711-5.173,5.707-11.379,5.707-17.746v-8.808h-0.005V85.423z"/>
					<path fill="#FFAA80" d="M248.015,144.519h0.009v8.806c0,6.363-1.995,12.572-5.71,17.74l-4.411,6.157
						c-0.963,1.342-1.479,2.941-1.479,4.592v16.283c0,7.094-5.744,12.839-12.839,12.839h-12.899c7.094,0,12.839-5.744,12.839-12.839
						v-16.283c0-1.651,0.516-3.25,1.479-4.592l4.411-6.157c3.715-5.168,5.71-11.377,5.71-17.74v-8.806h-0.009V85.424h0.009
						c0-0.034-0.009-0.069-0.009-0.112c-0.026-2.683-0.997-5.108-2.545-6.897c1.634-1.875,3.921-3.035,6.449-3.035
						c2.468,0,4.704,1.109,6.329,2.906c1.625,1.797,2.64,4.282,2.666,7.026c0,0.043,0.009,0.077,0.009,0.112h-0.009V144.519z"/>
					<path fill="#FFCAA6" d="M200.968,210.936h-12.899c-7.094,0-12.839-5.744-12.839-12.839V181.04c0-1.9-0.688-3.732-1.926-5.168
						l-3.999-4.618c-4.988-5.744-4.73-12.443-7.395-19.563c-1.23-3.268-3.182-6.295-5.779-8.875l-20.905-20.767
						c-2.571-2.554-3.852-5.89-3.852-9.236s1.281-6.69,3.852-9.244c4.274-4.239,10.741-4.953,15.754-2.141
						c-1.023,0.568-1.986,1.281-2.855,2.141c-2.571,2.554-3.852,5.899-3.852,9.244s1.281,6.682,3.852,9.236l20.905,20.767
						c2.597,2.58,4.549,5.607,5.779,8.875c2.666,7.12,2.408,13.819,7.395,19.563l3.999,4.618c1.238,1.436,1.926,3.268,1.926,5.168
						v17.057C188.13,205.191,193.874,210.936,200.968,210.936z"/>
					<path fill="#FFAA80" d="M248.015,144.519h0.009v8.806c0,6.363-1.995,12.572-5.71,17.74l-4.411,6.157
						c-0.963,1.342-1.479,2.941-1.479,4.592v16.283c0,7.094-5.744,12.839-12.839,12.839h-12.899c7.094,0,12.839-5.744,12.839-12.839
						v-16.283c0-1.651,0.516-3.25,1.479-4.592l4.411-6.157c3.715-5.168,5.71-11.377,5.71-17.74v-8.806h-0.009V85.424h0.009
						c0-0.034-0.009-0.069-0.009-0.112c-0.026-2.683-0.997-5.108-2.545-6.897c1.634-1.875,3.921-3.035,6.449-3.035
						c2.468,0,4.704,1.109,6.329,2.906c1.625,1.797,2.64,4.282,2.666,7.026c0,0.043,0.009,0.077,0.009,0.112h-0.009V144.519z"/>
					<path fill="#FFCAA6" d="M200.968,210.936h-12.899c-7.094,0-12.839-5.744-12.839-12.839V181.04c0-1.9-0.688-3.732-1.926-5.168
						l-3.999-4.618c-4.988-5.744-4.73-12.443-7.395-19.563c-1.23-3.268-3.182-6.295-5.779-8.875l-20.905-20.767
						c-2.571-2.554-3.852-5.89-3.852-9.236s1.281-6.69,3.852-9.244c4.274-4.239,10.741-4.953,15.754-2.141
						c-1.023,0.568-1.986,1.281-2.855,2.141c-2.571,2.554-3.852,5.899-3.852,9.244s1.281,6.682,3.852,9.236l20.905,20.767
						c2.597,2.58,4.549,5.607,5.779,8.875c2.666,7.12,2.408,13.819,7.395,19.563l3.999,4.618c1.238,1.436,1.926,3.268,1.926,5.168
						v17.057C188.13,205.191,193.874,210.936,200.968,210.936z"/>
				</g>
			</g>
		</g>
		<g>
			<g>
				<g>
					<path fill="#FFBB98" d="M7.983,85.423l-0.005-0.001c0-0.036,0.005-0.071,0.005-0.107v-0.005h0
						c0.054-5.492,4.061-9.927,9.001-9.927c4.94,0,8.947,4.435,9.001,9.927h0.005V68.363c0-6.861,4.99-12.424,11.146-12.424
						c6.117,0,11.075,5.527,11.075,12.345V57.458c0-6.84,4.974-12.384,11.111-12.384h0c6.136,0,11.111,5.545,11.111,12.384v10.866
						c0-6.84,4.974-12.384,11.111-12.384h0c6.136,0,11.111,5.545,11.111,12.384v35.698l-0.054-0.012v9.063l9.566-9.503
						c5.137-5.103,13.467-5.103,18.604,0h0c5.137,5.103,5.137,13.378,0,18.481l-20.902,20.764c-2.595,2.578-4.55,5.607-5.775,8.878
						c-2.668,7.122-2.414,13.817-7.395,19.564l-4.001,4.617c-1.243,1.434-1.926,3.267-1.926,5.165v17.058
						c0,7.091-5.748,12.839-12.839,12.839H32.415c-7.091,0-12.839-5.748-12.839-12.839v-16.281c0-1.649-0.517-3.257-1.478-4.597
						l-4.412-6.15c-3.711-5.173-5.707-11.379-5.707-17.746v-8.808h0.005V85.423z"/>
					<path fill="#FFAA80" d="M7.986,144.519H7.977v8.806c0,6.363,1.995,12.572,5.71,17.74l4.411,6.157
						c0.963,1.342,1.479,2.941,1.479,4.592v16.283c0,7.094,5.744,12.839,12.839,12.839h12.899c-7.094,0-12.839-5.744-12.839-12.839
						v-16.283c0-1.651-0.516-3.25-1.479-4.592l-4.411-6.157c-3.715-5.168-5.71-11.377-5.71-17.74v-8.806h0.009V85.424h-0.009
						c0-0.034,0.009-0.069,0.009-0.112c0.026-2.683,0.997-5.108,2.545-6.897c-1.634-1.875-3.921-3.035-6.449-3.035
						c-2.468,0-4.704,1.109-6.329,2.906c-1.625,1.797-2.64,4.282-2.666,7.026c0,0.043-0.009,0.077-0.009,0.112h0.009V144.519z"/>
					<path fill="#FFCAA6" d="M55.033,210.936h12.899c7.094,0,12.839-5.744,12.839-12.839V181.04c0-1.9,0.688-3.732,1.926-5.168
						l3.999-4.618c4.988-5.744,4.73-12.443,7.395-19.563c1.23-3.268,3.182-6.295,5.779-8.875l20.905-20.767
						c2.571-2.554,3.852-5.89,3.852-9.236s-1.281-6.69-3.852-9.244c-4.274-4.239-10.741-4.953-15.754-2.141
						c1.023,0.568,1.986,1.281,2.855,2.141c2.571,2.554,3.852,5.899,3.852,9.244s-1.281,6.682-3.852,9.236L86.97,142.816
						c-2.597,2.58-4.549,5.607-5.779,8.875c-2.666,7.12-2.408,13.819-7.395,19.563l-3.999,4.618
						c-1.238,1.436-1.926,3.268-1.926,5.168v17.057C67.871,205.191,62.127,210.936,55.033,210.936z"/>
					<path fill="#FFAA80" d="M7.986,144.519H7.977v8.806c0,6.363,1.995,12.572,5.71,17.74l4.411,6.157
						c0.963,1.342,1.479,2.941,1.479,4.592v16.283c0,7.094,5.744,12.839,12.839,12.839h12.899c-7.094,0-12.839-5.744-12.839-12.839
						v-16.283c0-1.651-0.516-3.25-1.479-4.592l-4.411-6.157c-3.715-5.168-5.71-11.377-5.71-17.74v-8.806h0.009V85.424h-0.009
						c0-0.034,0.009-0.069,0.009-0.112c0.026-2.683,0.997-5.108,2.545-6.897c-1.634-1.875-3.921-3.035-6.449-3.035
						c-2.468,0-4.704,1.109-6.329,2.906c-1.625,1.797-2.64,4.282-2.666,7.026c0,0.043-0.009,0.077-0.009,0.112h0.009V144.519z"/>
					<path fill="#FFCAA6" d="M55.033,210.936h12.899c7.094,0,12.839-5.744,12.839-12.839V181.04c0-1.9,0.688-3.732,1.926-5.168
						l3.999-4.618c4.988-5.744,4.73-12.443,7.395-19.563c1.23-3.268,3.182-6.295,5.779-8.875l20.905-20.767
						c2.571-2.554,3.852-5.89,3.852-9.236s-1.281-6.69-3.852-9.244c-4.274-4.239-10.741-4.953-15.754-2.141
						c1.023,0.568,1.986,1.281,2.855,2.141c2.571,2.554,3.852,5.899,3.852,9.244s-1.281,6.682-3.852,9.236L86.97,142.816
						c-2.597,2.58-4.549,5.607-5.779,8.875c-2.666,7.12-2.408,13.819-7.395,19.563l-3.999,4.618
						c-1.238,1.436-1.926,3.268-1.926,5.168v17.057C67.871,205.191,62.127,210.936,55.033,210.936z"/>
				</g>
			</g>
		</g>
		<g>
			<path fill="#44C7B6" d="M184.81,101.668c5.096,0,10.193,1.972,14.079,5.899l3.835,3.884l3.844-3.884
				c6.059-6.123,15.034-7.475,22.389-4.065c2.096,0.964,4.057,2.325,5.778,4.065c7.773,7.854,7.773,20.598,0,28.461l-2.821,2.842
				l-26.309,26.583c-1.585,1.61-4.168,1.61-5.753,0l-25.286-25.55l-3.844-3.875c-7.781-7.862-7.781-20.607,0-28.461
				C174.617,103.641,179.714,101.668,184.81,101.668z"/>
			<path fill="#4BDBC3" d="M183.092,139.903l23.9,24.145l-1.387,1.404c-1.586,1.614-4.166,1.614-5.752,0l-25.287-25.548
				l-3.842-3.876c-7.781-7.861-7.781-20.604,0-28.459c3.893-3.927,8.992-5.9,14.084-5.9c1.432,0,2.865,0.153,4.269,0.466
				c-3.604,0.796-7.025,2.609-9.827,5.434c-7.781,7.855-7.781,20.598,0,28.459L183.092,139.903z"/>
			<path fill="#3BB2A0" d="M234.734,136.027l-2.819,2.842l-26.31,26.583c-1.586,1.614-4.166,1.614-5.752,0l-1.387-1.404
				l24.923-25.179l2.819-2.842c7.775-7.861,7.775-20.604,0-28.459c-1.722-1.739-3.683-3.103-5.78-4.064
				c-1.302-0.602-2.66-1.057-4.041-1.364c4.183-0.926,8.611-0.472,12.567,1.364c2.097,0.961,4.058,2.325,5.78,4.064
				C242.51,115.423,242.51,128.166,234.734,136.027z"/>
		</g>
		<g>
			<path fill="#44C7B6" d="M35.81,101.668c5.096,0,10.193,1.972,14.079,5.899l3.835,3.884l3.844-3.884
				c6.059-6.123,15.034-7.475,22.389-4.065c2.097,0.964,4.057,2.325,5.778,4.065c7.773,7.854,7.773,20.598,0,28.461l-2.821,2.842
				l-26.309,26.583c-1.585,1.61-4.168,1.61-5.753,0l-25.286-25.55l-3.844-3.875c-7.781-7.862-7.781-20.607,0-28.461
				C25.617,103.641,30.713,101.668,35.81,101.668z"/>
			<path fill="#4BDBC3" d="M34.092,139.903l23.9,24.145l-1.387,1.404c-1.586,1.614-4.166,1.614-5.752,0l-25.287-25.548l-3.842-3.876
				c-7.781-7.861-7.781-20.604,0-28.459c3.893-3.927,8.992-5.9,14.084-5.9c1.432,0,2.865,0.153,4.269,0.466
				c-3.604,0.796-7.025,2.609-9.827,5.434c-7.781,7.855-7.781,20.598,0,28.459L34.092,139.903z"/>
			<path fill="#3BB2A0" d="M85.734,136.027l-2.819,2.842l-26.31,26.583c-1.586,1.614-4.166,1.614-5.752,0l-1.387-1.404
				l24.923-25.179l2.819-2.842c7.775-7.861,7.775-20.604,0-28.459c-1.722-1.739-3.683-3.103-5.78-4.064
				c-1.302-0.602-2.66-1.057-4.041-1.364c4.183-0.926,8.611-0.472,12.567,1.364c2.097,0.961,4.058,2.325,5.78,4.064
				C93.51,115.423,93.51,128.166,85.734,136.027z"/>
		</g>
	</g>
	<g>
		<path fill="#5F266D" d="M239.021,71.382c-1.77,0-3.47,0.39-5.01,1.09c0-14.605-6.955-20.51-14.34-20.51
			c-2.962-0.11-5.497,0.432-8.211,2.087c-1.709-8.27-8.317-12.981-14.782-12.981c-6.511,0-12.981,4.667-14.788,12.994
			c-2.19-1.35-4.73-2.12-7.43-2.12c-8.34,0-15.11,7.35-15.11,16.38v35.09c-10.212-10.136-20.189-9.391-26.94-2.68
			c-2.13,2.12-3.63,4.69-4.41,7.5c-0.78-2.81-2.28-5.38-4.41-7.5c-6.467-6.429-16.409-7.773-26.94,2.68v-35.09
			c0-9.03-6.77-16.38-15.11-16.38c-2.7,0-5.24,0.77-7.43,2.12c-1.802-8.301-8.247-12.994-14.788-12.994
			c-6.376,0-13.056,4.63-14.782,12.981c-2.308-1.408-4.855-2.148-7.651-2.101c-8.382,0.162-14.9,7.594-14.9,16.414v4.11
			c-1.54-0.7-3.24-1.09-5.01-1.09c-7.05,0-12.85,6.16-12.99,13.8c-0.016,0.124-0.01,68.015-0.01,68.14c0,7.25,2.23,14.19,6.46,20.08
			c4.716,6.577,5.14,6.802,5.14,8.41v16.29c0,9.28,7.55,16.83,16.83,16.83h35.52c9.29,0,16.84-7.55,16.84-16.83v-17.06
			c0-1.883,0.824-2.405,4.95-7.16c5.751-6.629,5.556-13.931,8.12-20.78c1.04-2.78,2.67-5.29,4.85-7.45l20.9-20.76
			c2.13-2.12,3.63-4.7,4.41-7.51c0.78,2.81,2.28,5.39,4.41,7.51l20.9,20.76c4.309,4.269,5.369,8.416,6.74,14.08
			c2.55,10.676,4.103,11.699,10.23,18.76c0.61,0.71,0.95,1.61,0.95,2.55v17.06c0,9.28,7.55,16.83,16.84,16.83h35.52
			c9.28,0,16.83-7.55,16.83-16.83v-16.29c0-0.81,0.26-1.6,0.73-2.26l4.41-6.15c4.23-5.89,6.46-12.83,6.46-20.08v-68.14
			C251.901,77.572,246.081,71.382,239.021,71.382z M74.44,68.112c0.09-4.52,3.24-8.17,7.1-8.17c3.92,0,7.11,3.76,7.11,8.38
			c0,37.318-0.05,36.45-0.05,36.45c-0.01-0.01-0.01-0.01-0.02-0.02c-3.963-3.983-8.928-6.304-14.14-6.9V68.112z M52.266,56.532
			c0.438-4.762,3.831-7.46,7.055-7.46c3.296,0,6.606,2.91,7.04,7.25c0.116,0.927,0.08-0.91,0.08,41.96
			c-5.475,1.221-9.075,3.772-12.71,7.48c-0.291-0.294-1.21-1.235-1.51-1.5C52.22,78.395,52.18,57.41,52.266,56.532z M29.99,68.362
			c0-4.61,3.195-8.482,7.265-8.413c4.179,0.126,6.953,4.177,6.953,8.336c0,0,0.012-1.092,0.012,30.927
			c-4.602-1.754-9.615-1.981-14.22-0.83C30,81.048,29.99,90.048,29.99,68.362z M24.48,110.472c2.859-4.28,14.616-8.136,22.56-0.09
			c3.921,3.92,4.512,5.07,6.68,5.07c2.156,0,2.85-1.19,6.69-5.07c6.063-6.133,16.139-6.388,22.48,0c6.23,6.29,6.23,16.54,0.01,22.83
			l-29.21,29.43l-29.13-29.43C18.36,126.942,18.331,116.772,24.48,110.472z M11.98,85.352c0.04-3.29,2.28-5.97,5-5.97
			c2.73,0,4.97,2.68,5.01,5.97c0,0,0.01-0.587,0.01,16.75c-5.81,4.12-9.473,10.61-10.02,17.81V85.352z M117.95,119.212l-20.9,20.77
			c-3,2.98-5.26,6.45-6.7,10.31c-2.759,7.311-2.492,13.507-6.67,18.35c-3.862,4.44-6.91,6.997-6.91,12.4v17.06
			c0,4.87-3.96,8.83-8.84,8.83H32.41c-4.87,0-8.83-3.96-8.83-8.83v-16.29c0-4.678-2.12-6.766-6.64-13.08
			c-3.25-4.51-4.96-9.84-4.96-15.41v-29.65c0.42,5.53,2.71,10.95,6.9,15.17c31.512,31.837,30.356,31.82,34.85,31.82
			c4.644,0,3.635-0.385,34.85-31.82c6.03-6.1,8.14-14.68,6.35-22.52c0.435-0.307,9.681-9.534,10.06-9.91
			c3.57-3.55,9.39-3.56,12.96,0C121.51,109.951,121.517,115.666,117.95,119.212z M211.789,68.325c0-0.014,0.004-0.026,0.004-0.04
			c0-4.511,3.201-8.581,7.446-8.312c4.028,0.248,6.772,4.199,6.772,8.389c0,21.556-0.01,8.365-0.01,29.92
			c-4.77-1.09-9.74-0.68-14.22,1.13C211.781,61.02,211.774,69.95,211.789,68.325z M189.68,56.022c0.213-2.77,2.824-6.95,7-6.95
			c3.203,0,6.476,2.772,7.01,7.04c0.002,0.004,0.001,0.008,0.002,0.012c0.152,1.131,0.088-2.435,0.088,48.568
			c-0.085,0.085-0.964,0.982-1.05,1.07c-3.429-3.463-7.105-6.392-13.17-7.61C189.561,56.49,189.504,56.903,189.68,56.022z
			 M196.041,110.382c3.966,4.007,4.587,5.07,6.68,5.07c3.164,0,4.277-3.489,8.5-6.64c6.239-4.646,15.009-4.091,20.61,1.51l0.06,0.06
			c6.23,6.29,6.23,16.54,0.01,22.83l-29.21,29.43l-29.13-29.43c-6.23-6.3-6.23-16.54,0-22.83
			C179.821,104.066,189.888,104.129,196.041,110.382z M167.35,68.322c0-4.62,3.19-8.38,7.11-8.38c3.86,0,7.01,3.65,7.1,8.17v29.79
			c-5.726,0.766-10.968,3.742-14.16,7.36C167.401,105.262,167.35,106.571,167.35,68.322z M244.021,153.322
			c0,5.57-1.71,10.9-4.96,15.42l-4.41,6.14c-1.45,2.04-2.23,4.43-2.23,6.93v16.29c0,4.87-3.96,8.83-8.83,8.83h-35.52
			c-4.88,0-8.84-3.96-8.84-8.83v-17.06c0-2.86-1.03-5.63-2.9-7.79c-5.684-6.534-6.394-6.581-8.5-15.39
			c-1.493-6.228-3.015-12.054-8.88-17.88l-20.9-20.77c-3.56-3.539-3.567-9.254,0-12.8c3.617-3.596,9.436-3.523,12.96,0
			c9.967,9.894,9.672,9.741,10.46,10.16c-1.71,7.77,0.43,16.24,6.41,22.27c31.512,31.837,30.356,31.82,34.85,31.82
			c4.709,0,3.607-0.357,34.85-31.82c3.37-3.41,5.52-7.6,6.44-12.01V153.322z M244.021,116.762
			c-1.257-6.026-4.776-11.429-10.02-14.98c0-17.005,0.01-16.43,0.01-16.43c0.04-3.29,2.28-5.97,5.01-5.97c2.72,0,4.96,2.68,5,5.93
			V116.762z"/>
		<path fill="#5F266D" d="M191.583,138.848h7.142v7.141c0,2.209,1.791,4,4,4s4-1.791,4-4v-7.141h7.142c2.209,0,4-1.791,4-4
			s-1.791-4-4-4h-7.142v-7.142c0-2.209-1.791-4-4-4s-4,1.791-4,4v7.142h-7.142c-2.209,0-4,1.791-4,4
			S189.375,138.848,191.583,138.848z"/>
		<path fill="#5F266D" d="M42.583,138.848h7.142v7.141c0,2.209,1.791,4,4,4s4-1.791,4-4v-7.141h7.142c2.209,0,4-1.791,4-4
			s-1.791-4-4-4h-7.142v-7.142c0-2.209-1.791-4-4-4s-4,1.791-4,4v7.142h-7.142c-2.209,0-4,1.791-4,4S40.375,138.848,42.583,138.848z
			"/>
		<path fill="#5F266D" d="M219.75,187.002h-3c-2.21,0-4,1.79-4,4c0,2.21,1.79,4,4,4h3c2.21,0,4-1.79,4-4
			C223.75,188.792,221.96,187.002,219.75,187.002z"/>
		<path fill="#5F266D" d="M201.75,187.002h-10c-2.21,0-4,1.79-4,4c0,2.21,1.79,4,4,4h10c2.21,0,4-1.79,4-4
			C205.75,188.792,203.96,187.002,201.75,187.002z"/>
	</g>
</g>
</svg>
