<?xml version="1.0" encoding="utf-8"?>
<!-- Generator: Adobe Illustrator 24.0.0, SVG Export Plug-In . SVG Version: 6.00 Build 0)  -->
<svg version="1.1" id="Icon_Set" xmlns="http://www.w3.org/2000/svg" xmlns:xlink="http://www.w3.org/1999/xlink" x="0px" y="0px"
	 viewBox="0 0 256 256" enable-background="new 0 0 256 256" xml:space="preserve">
<g>
	<g>
		<g>
			<g>
				<g>
					<g>
						<g>
							<g>
								<path fill="#F9D335" d="M246.909,185.275v49.756c0,4.298-3.484,7.782-7.782,7.782h-91.304c-4.298,0-7.782-3.484-7.782-7.782
									v-49.756c0-12.229,9.914-22.143,22.143-22.143h62.583C236.989,163.132,246.909,173.038,246.909,185.275z"/>
								<path fill="#F9E27D" d="M155.685,164.098v78.719h-7.867c-4.296,0-7.778-3.493-7.778-7.789v-49.749
									C140.04,175.313,146.624,166.876,155.685,164.098z"/>
								<path fill="#5FCDFF" d="M246.914,185.278v49.749c0,4.296-3.493,7.789-7.789,7.789h-7.934v-78.741
									C240.285,166.832,246.914,175.279,246.914,185.278z"/>
								<path fill="#5FCDFF" d="M155.685,164.098v78.719h-7.867c-4.296,0-7.778-3.493-7.778-7.789v-49.749
									C140.04,175.313,146.624,166.876,155.685,164.098z"/>
								<path fill="#FFBB98" d="M193.431,40.493c-10.43,0-19.856,4.225-26.688,11.057c-6.832,6.832-11.057,16.272-11.057,26.702
									v29.077c0,16.738,10.888,31.326,25.926,36.457v19.344h-7.411v17.514c0,4.798,3.889,8.687,8.687,8.687h21.098
									c4.798,0,8.687-3.889,8.687-8.687V163.13h-7.411v-19.288c15.018-4.987,25.929-19.201,25.929-35.828V78.252
									C231.191,57.405,214.292,40.493,193.431,40.493z"/>
								<path fill="#FFAA80" d="M231.191,81.194v26.819c0,18.239-13.125,33.578-30.403,37.016h-0.015
									c-0.379,0.073-0.757,0.146-1.136,0.204c-1.85,0.32-3.744,0.495-5.681,0.524c-2.651,0.044-5.23-0.204-7.735-0.728
									c2.549-0.51,4.982-1.282,7.313-2.287c13.504-5.754,23.031-19.186,23.031-34.744V86.628
									C221.314,85.463,226.296,83.729,231.191,81.194z"/>
								<path fill="#FFCAA6" d="M199.71,145.03c-0.015,0.044-0.044,0.102-0.073,0.204c-1.85,0.32-3.744,0.495-5.681,0.524
									c-2.651,0.044-5.23-0.204-7.735-0.728c-0.015,0-0.015,0-0.015,0c-17.365-3.496-30.519-19.302-30.519-37.701V89.585
									c4.21-0.916,6.51-0.821,13.562-3.074v20.817c0,15.718,9.6,29.543,23.221,35.414
									C194.772,143.748,197.19,144.52,199.71,145.03z"/>
								<path fill="#B76C6C" d="M231.203,78.253v2.929l-0.009,0.009c-4.896,2.542-9.891,4.276-14.644,5.435
									c-13.638,3.396-25.101,2.156-25.101,2.156l5.831-15.587c-0.539,0.35-13.126,8.346-26.952,12.964
									c-0.359,0.117-0.719,0.234-1.078,0.35c-4.537,1.455-9.182,2.525-13.566,2.812V78.253c0-18.417,13.171-33.663,30.465-37.05
									c1.339-0.261,2.695-0.449,4.079-0.566c1.06-0.099,2.129-0.144,3.216-0.144c2.462,0,4.923,0.252,7.268,0.71
									c7.52,1.464,14.204,5.148,19.405,10.35C226.963,58.371,231.203,67.822,231.203,78.253z"/>
								<path fill="#965959" d="M231.205,78.252v2.928l-0.015,0.015c-4.895,2.535-9.891,4.268-14.64,5.434v-8.376
									c0-15.675-9.527-29.106-23.119-34.817c-2.316-0.962-4.764-1.719-7.284-2.229c2.36-0.466,4.807-0.714,7.298-0.714
									c2.462,0,4.924,0.248,7.269,0.714c7.517,1.457,14.203,5.142,19.404,10.343C226.966,58.367,231.205,67.821,231.205,78.252z"
									/>
								<path fill="#C98585" d="M190.227,40.637c-3.001,1.815-5.759,3.998-8.229,6.469c-7.888,7.879-12.748,18.777-12.748,30.788
									v8.616c-4.537,1.455-9.182,2.525-13.566,2.812V78.253c0-18.417,13.171-33.663,30.465-37.05
									C187.487,40.942,188.844,40.753,190.227,40.637z"/>
							</g>
						</g>
					</g>
				</g>
			</g>
		</g>
		<g>
			<circle fill="#FFBB98" cx="36.939" cy="23.284" r="10.096"/>
			<path fill="#5FCDFF" d="M10.009,122.973L28.78,85.25V51.27c0-5.929,6.724-9.204,11.392-5.857l27.991,20.03
				c3.234,2.315,3.98,6.813,1.666,10.047c-2.315,3.235-6.813,3.98-10.047,1.666L43.183,65.279v19.578l23.702,37.475
				c2.126,3.361,1.125,7.81-2.237,9.936c-3.362,2.127-7.81,1.124-9.936-2.237l-17.98-28.429l-13.828,27.788
				c-1.259,2.531-3.806,3.995-6.453,3.995c-1.078,0-2.173-0.243-3.203-0.755C9.688,130.856,8.237,126.533,10.009,122.973z"/>
			<circle fill="#FFBB98" cx="105.068" cy="43.585" r="10.096"/>
			<path fill="#FFE2E2" d="M69.708,83.054c1.666-3.611,5.944-5.188,9.556-3.521l13.263,6.121l12.766-18.221
				c3.403-4.858,10.889-3.714,12.737,1.876l11.61,35.183l19.295,38.776c1.772,3.561,0.322,7.884-3.239,9.656
				c-3.557,1.771-7.883,0.324-9.655-3.239l-15.533-31.216l-8.877,7.158c-3.566,2.876-6.295,6.665-7.891,10.958l-5.363,14.427
				c-1.384,3.723-5.524,5.629-9.26,4.241c-3.728-1.386-5.627-5.532-4.241-9.259l5.363-14.428c2.498-6.719,6.768-12.65,12.35-17.151
				l11.973-9.654l-5.711-17.305l-7.981,11.391c-2.002,2.857-5.758,3.864-8.916,2.406l-18.726-8.643
				C69.617,90.944,68.041,86.666,69.708,83.054z"/>
		</g>
	</g>
	<g>
		<path fill="#5F266D" d="M224.764,159.13c-10.409,0-14.339-0.003-15.498-0.003v-12.517c15.175-6.284,25.926-21.279,25.925-38.601
			c0-27.105,0.014-29.26,0.014-29.757c0-23.196-18.634-41.071-40.5-41.724c-23.562-0.709-43.02,18.224-43.02,41.721v29.082
			c0,16.855,10.24,32.604,25.925,39.228v12.569c-0.024,0-3.965,0.003-15.432,0.003c-14.414,0-26.142,11.727-26.142,26.2v49.701
			c0,6.497,5.285,11.782,11.781,11.782c11.625,0,80.225,0,91.308,0c6.497,0,11.782-5.285,11.782-11.782v-49.759
			C250.907,170.857,239.179,159.13,224.764,159.13z M195.1,69.841c-6.078,3.971-22.206,12.67-35.414,14.969v-6.559
			c0-19.16,16.065-34.675,35.443-33.713c17.268,0.858,32.062,14.937,32.062,34.164c-9.098,4.233-19.805,6.255-30.056,6.296
			l3.889-10.4C202.385,70.957,198.287,67.775,195.1,69.841z M159.684,107.33V92.909c10.001-1.477,20.978-6.079,29.979-10.769
			l-1.961,5.243c-0.913,2.442,0.722,5.097,3.317,5.378c8.274,0.878,22.933-0.075,36.171-5.379v20.626
			c0.001,18.359-14.932,33.5-33.287,33.752C174.992,141.993,159.684,126.08,159.684,107.33z M193.447,149.763
			c2.591,0,5.184-0.249,7.819-0.756v14.119c0,2.209,1.791,4,4,4c3.502,0-0.107,0.003,3.41,0.003v13.518
			c0,2.582-2.105,4.682-4.693,4.682h-21.091c-2.588,0-4.693-2.101-4.693-4.682V167.13c3.67,0-0.26-0.003,3.41-0.003
			c2.209,0,4-1.791,4-4v-14.123C188.17,149.504,190.791,149.763,193.447,149.763z M170.199,167.13v13.518
			c0,6.993,5.694,12.682,12.693,12.682h21.091c6.999,0,12.693-5.689,12.693-12.682V167.13h8.088c0.824,0,1.63,0.075,2.426,0.182
			v71.501h-67.505v-71.491c0.817-0.113,1.645-0.192,2.492-0.192H170.199z M144.036,235.031v-49.759
			c0-6.093,3.029-11.481,7.649-14.773v68.313h-3.868C145.732,238.812,144.036,237.116,144.036,235.031z M242.907,235.031
			c0,2.085-1.696,3.782-3.782,3.782h-3.935v-68.364c4.659,3.287,7.717,8.7,7.717,14.823V235.031z"/>
		
			<ellipse transform="matrix(0.3827 -0.9239 0.9239 0.3827 12.4711 225.3341)" fill="#5F266D" cx="174.854" cy="103.335" rx="5.058" ry="5.058"/>
		
			<ellipse transform="matrix(0.3827 -0.9239 0.9239 0.3827 35.4258 259.6881)" fill="#5F266D" cx="212.038" cy="103.335" rx="5.058" ry="5.058"/>
		<path fill="#5F266D" d="M204.192,116.851c0-2.209-1.791-4-4-4s-4,1.791-4,4c0,1.513-1.231,2.745-2.745,2.745
			s-2.745-1.231-2.745-2.745c0-2.209-1.791-4-4-4s-4,1.791-4,4c0,5.925,4.82,10.745,10.745,10.745S204.192,122.776,204.192,116.851z
			"/>
		<path fill="#5F266D" d="M184.231,229.602h4.111c5.285,0,5.292-8,0-8h-4.111C178.946,221.602,178.939,229.602,184.231,229.602z"/>
		<path fill="#5F266D" d="M203.342,229.602h12c5.285,0,5.292-8,0-8h-12C198.058,221.602,198.05,229.602,203.342,229.602z"/>
		<path fill="#5F266D" d="M36.939,37.38c7.772,0,14.096-6.324,14.096-14.096S44.712,9.188,36.939,9.188s-14.096,6.324-14.096,14.096
			S29.167,37.38,36.939,37.38z M36.939,17.188c3.361,0,6.096,2.735,6.096,6.096s-2.735,6.096-6.096,6.096s-6.096-2.735-6.096-6.096
			S33.578,17.188,36.939,17.188z"/>
		<path fill="#5F266D" d="M105.068,57.681c7.772,0,14.096-6.324,14.096-14.096s-6.324-14.096-14.096-14.096
			s-14.096,6.323-14.096,14.096S97.296,57.681,105.068,57.681z M105.068,37.489c3.361,0,6.096,2.734,6.096,6.096
			s-2.735,6.096-6.096,6.096s-6.096-2.735-6.096-6.096S101.707,37.489,105.068,37.489z"/>
		<path fill="#5F266D" d="M152.516,141.486l-19.168-38.52l-11.521-34.913c-2.879-8.711-14.525-10.464-19.811-2.916L91.168,80.623
			L80.94,75.902c-2.028-0.936-4.237-1.239-6.394-0.903c1.603-4.563,0.107-9.83-4.055-12.808L42.503,42.162
			c-7.334-5.26-17.723-0.038-17.723,9.107v33.04L6.428,121.191c-6.679,13.414,13.533,23.093,20.057,9.98l10.663-21.429
			c15.579,24.633,14.532,23.237,16.017,24.626v18.953c0,5.285,8,5.292,8,0v-15.958c8.631-0.27,13.734-9.843,9.1-17.169l-9.1-14.388
			v-15.23c0-1.79,1.287-3.521,3.935-3.521c0.347,3.865,2.683,7.448,6.452,9.188l18.725,8.642c4.925,2.274,10.757,0.699,13.869-3.742
			l3.405-4.86l2.344,7.103c-10.292,8.299-18.477,13.534-23.406,26.788l-5.362,14.427c-5.182,13.934,15.838,21.688,20.999,7.807
			l5.363-14.428c2.415-6.498,6.407-9.041,11.654-13.272l13.316,26.759C139.022,164.658,159.12,154.757,152.516,141.486z
			 M40.113,99.462c-1.662-2.625-5.573-2.436-6.962,0.356l-13.828,27.789c-1.886,3.793-7.613,0.921-5.732-2.852c0,0,0,0,0-0.001
			C33.942,83.855,32.78,86.593,32.78,85.25v-33.98c0-2.652,3.021-4.069,5.065-2.604l27.991,20.031
			c3.499,2.504-0.347,7.622-3.727,5.207L45.51,62.026c-2.642-1.89-6.328,0.002-6.328,3.253v19.578
			c0,1.613-0.442,0.459,13.982,23.267v11.978L40.113,99.462z M63.504,124.47c1.238,1.957,0.054,4.606-2.339,4.881v-8.579
			L63.504,124.47z M47.183,83.698V73.06c10.735,7.682,10.364,7.456,11.148,7.915c-5.742,3.813-5.166,9.671-5.166,12.181
			L47.183,83.698z M124.089,116.687c-1.14-2.29-4.106-2.932-6.092-1.332c-8.95,7.217-14.602,10.68-18.006,19.836l-5.363,14.428
			c-1.497,4.031-7.451,1.666-6.001-2.231l5.362-14.427c4.184-11.25,11.011-15.35,23.084-25.086c1.297-1.045,1.81-2.785,1.288-4.367
			l-5.71-17.305c-1.033-3.13-5.19-3.731-7.074-1.042l-7.981,11.392c-0.89,1.269-2.557,1.718-3.963,1.069l-18.726-8.643
			c-3.838-1.772-1.151-7.582,2.683-5.814l13.263,6.122c1.756,0.809,3.842,0.248,4.952-1.336l12.767-18.222
			c1.527-2.183,4.855-1.606,5.662,0.834l11.61,35.183c0.139,0.423,19.315,38.906,19.513,39.305c1.885,3.79-3.855,6.629-5.732,2.853
			L124.089,116.687z"/>
	</g>
</g>
</svg>
