<?xml version="1.0" encoding="utf-8"?>
<!-- Generator: Adobe Illustrator 24.0.0, SVG Export Plug-In . SVG Version: 6.00 Build 0)  -->
<svg version="1.1" id="Icon_Set" xmlns="http://www.w3.org/2000/svg" xmlns:xlink="http://www.w3.org/1999/xlink" x="0px" y="0px"
	 viewBox="0 0 256 256" enable-background="new 0 0 256 256" xml:space="preserve">
<g>
	<g>
		<g>
			<g>
				<g>
					<circle fill="#B76C6C" cx="220.231" cy="120.221" r="27.161"/>
					<path fill="#965959" d="M213.348,93.943c2.193-0.578,4.506-0.881,6.883-0.881c15.005,0,27.165,12.16,27.165,27.156
						c0,15.005-12.16,27.165-27.165,27.165c-2.377,0-4.69-0.303-6.883-0.881c11.673-3.047,20.282-13.656,20.282-26.284
						C233.63,107.599,225.022,96.99,213.348,93.943z"/>
				</g>
				<g>
					<g>
						<g>
							<g>
								<path fill="#F9D335" d="M240.93,185.273v49.756c0,4.298-3.484,7.782-7.782,7.782h-91.304c-4.298,0-7.782-3.484-7.782-7.782
									v-49.756c0-12.229,9.914-22.143,22.143-22.143h62.583C231.01,163.13,240.93,173.036,240.93,185.273z"/>
								<path fill="#F9E27D" d="M149.707,164.096v78.719h-7.867c-4.296,0-7.778-3.493-7.778-7.789v-49.749
									C134.061,175.311,140.645,166.874,149.707,164.096z"/>
								<path fill="#5FCDFF" d="M240.935,185.276v49.749c0,4.296-3.493,7.789-7.789,7.789h-7.934v-78.741
									C234.307,166.83,240.935,175.277,240.935,185.276z"/>
								<path fill="#5FCDFF" d="M149.707,164.096v78.719h-7.867c-4.296,0-7.778-3.493-7.778-7.789v-49.749
									C134.061,175.311,140.645,166.874,149.707,164.096z"/>
								<path fill="#FFBB98" d="M187.453,40.49c-10.43,0-19.856,4.225-26.688,11.057c-6.832,6.832-11.057,16.272-11.057,26.702
									v29.077c0,16.738,10.888,31.326,25.926,36.457v19.344h-7.411v17.514c0,4.798,3.889,8.687,8.687,8.687h21.098
									c4.798,0,8.687-3.889,8.687-8.687v-17.514h-7.411v-19.288c15.018-4.987,25.929-19.201,25.929-35.828V78.25
									C225.212,57.403,208.314,40.49,187.453,40.49z"/>
								<path fill="#FFAA80" d="M225.212,81.192v26.819c0,18.239-13.125,33.578-30.403,37.016h-0.015
									c-0.379,0.073-0.757,0.146-1.136,0.204c-1.85,0.32-3.744,0.495-5.681,0.524c-2.651,0.044-5.23-0.204-7.735-0.728
									c2.549-0.51,4.982-1.282,7.313-2.287c13.504-5.754,23.031-19.186,23.031-34.744V86.626
									C215.335,85.461,220.317,83.727,225.212,81.192z"/>
								<path fill="#FFCAA6" d="M193.731,145.028c-0.015,0.044-0.044,0.102-0.073,0.204c-1.85,0.32-3.744,0.495-5.681,0.524
									c-2.651,0.044-5.23-0.204-7.735-0.728c-0.015,0-0.015,0-0.015,0c-17.365-3.496-30.519-19.302-30.519-37.701V89.583
									c4.21-0.916,6.51-0.821,13.562-3.074v20.817c0,15.718,9.6,29.543,23.221,35.414
									C188.793,143.746,191.211,144.518,193.731,145.028z"/>
								<path fill="#B76C6C" d="M225.225,78.25v2.929l-0.009,0.009c-4.896,2.542-9.891,4.276-14.644,5.435
									c-13.638,3.396-25.101,2.156-25.101,2.156l5.831-15.587c-0.539,0.35-13.126,8.346-26.952,12.964
									c-0.359,0.117-0.719,0.234-1.078,0.35c-4.537,1.455-9.182,2.525-13.566,2.812V78.25c0-18.417,13.171-33.663,30.465-37.05
									c1.339-0.261,2.695-0.449,4.079-0.566c1.06-0.099,2.129-0.144,3.216-0.144c2.462,0,4.923,0.252,7.268,0.71
									c7.52,1.464,14.204,5.148,19.405,10.35C220.984,58.369,225.225,67.82,225.225,78.25z"/>
								<path fill="#965959" d="M225.227,78.25v2.928l-0.015,0.015c-4.895,2.535-9.891,4.268-14.64,5.434V78.25
									c0-15.675-9.527-29.106-23.119-34.817c-2.316-0.962-4.764-1.719-7.284-2.229c2.36-0.466,4.807-0.714,7.298-0.714
									c2.462,0,4.924,0.248,7.269,0.714c7.517,1.457,14.203,5.142,19.404,10.343C220.987,58.365,225.227,67.819,225.227,78.25z"/>
								<path fill="#C98585" d="M184.249,40.634c-3.001,1.815-5.759,3.998-8.229,6.469c-7.888,7.879-12.748,18.777-12.748,30.788
									v8.616c-4.537,1.455-9.182,2.525-13.566,2.812V78.25c0-18.417,13.171-33.663,30.465-37.05
									C181.508,40.94,182.865,40.751,184.249,40.634z"/>
							</g>
						</g>
					</g>
				</g>
			</g>
		</g>
		<g>
			<circle fill="#FFBB98" cx="36.294" cy="23.282" r="10.096"/>
			<path fill="#5FCDFF" d="M9.364,122.97l18.77-37.723v-33.98c0-5.929,6.724-9.204,11.392-5.857l27.991,20.03
				c3.234,2.315,3.98,6.813,1.666,10.047c-2.315,3.235-6.813,3.98-10.047,1.666L42.538,65.276v19.578l23.702,37.475
				c2.126,3.361,1.125,7.81-2.237,9.936c-3.362,2.127-7.81,1.124-9.936-2.237l-17.98-28.429l-13.828,27.788
				c-1.259,2.531-3.806,3.995-6.453,3.995c-1.078,0-2.173-0.243-3.203-0.755C9.042,130.854,7.592,126.531,9.364,122.97z"/>
			<circle fill="#FFBB98" cx="104.423" cy="43.583" r="10.096"/>
			<path fill="#FFE2E2" d="M69.062,83.052c1.666-3.611,5.944-5.188,9.556-3.521l13.263,6.121l12.766-18.221
				c3.403-4.858,10.889-3.714,12.737,1.876l11.61,35.183l19.295,38.776c1.772,3.561,0.322,7.884-3.239,9.656
				c-3.557,1.771-7.883,0.324-9.655-3.239l-15.533-31.216l-8.877,7.158c-3.566,2.876-6.295,6.665-7.891,10.958l-5.363,14.427
				c-1.384,3.723-5.524,5.629-9.26,4.241c-3.728-1.386-5.627-5.532-4.241-9.259l5.363-14.428c2.498-6.719,6.768-12.65,12.35-17.151
				l11.973-9.654l-5.711-17.305l-7.981,11.391c-2.002,2.857-5.758,3.864-8.916,2.406l-18.726-8.643
				C68.972,90.942,67.396,86.664,69.062,83.052z"/>
		</g>
	</g>
	<g>
		<path fill="#5F266D" d="M218.786,159.127c-1.828,0-13.666-0.007-15.494-0.007v-12.51c0.08-0.03,0.16-0.06,0.24-0.1
			c20.668,13.179,47.86-1.779,47.86-26.29c0-14.06-9.36-25.98-22.18-29.84c0-5.207,0.01-10.764,0.01-12.13
			c0-23.37-19.052-41.76-41.76-41.76c-22.688,0-41.76,18.375-41.76,41.76v29.08c0,16.865,10.276,32.637,25.93,39.23v12.56
			c-0.322,0-4.323,0.007-15.433,0.007c-14.415,0-26.143,11.727-26.143,26.2v49.701c0,6.497,5.285,11.782,11.782,11.782
			c10.915,0,79.549,0,91.307,0c6.497,0,11.782-5.285,11.782-11.782V185.27C244.928,170.854,233.2,159.127,218.786,159.127z
			 M229.212,98.87c8.32,3.51,14.18,11.76,14.18,21.35c0,16.352-16.559,27.482-31.52,21.59c10.49-7.61,17.34-19.97,17.34-33.8V98.87z
			 M153.712,78.25c0-18.775,15.294-33.76,33.75-33.76c17.678,0,33.75,14.107,33.75,34.2c-9.082,4.252-19.885,6.264-30.05,6.31
			l3.88-10.4c1.358-3.608-2.703-6.856-5.92-4.76c-5.752,3.833-22.188,12.667-35.41,14.97V78.25z M153.702,107.33V92.9
			c9.948-1.44,21.104-6.133,29.98-10.76l-1.96,5.24c-0.905,2.442,0.736,5.107,3.32,5.38c8.585,0.895,23.22-0.198,36.17-5.35
			c0,9.675,0,10.94,0,20.6c0,18.341-14.914,33.505-33.29,33.75C168.869,142.01,153.702,125.903,153.702,107.33z M199.292,167.12
			c3.304,0,0.016,0.007,3.41,0.007v13.522c0,2.58-2.11,4.68-4.7,4.68h-21.09c-2.59,0-4.69-2.1-4.69-4.68v-13.522
			c3.419,0,0.107-0.007,3.41-0.007c2.21,0,4-1.79,4-4v-14.11c2.56,0.5,5.18,0.75,7.84,0.75c2.588,0,5.107-0.221,7.82-0.75v14.11
			C195.292,165.33,197.082,167.12,199.292,167.12z M145.706,238.81h-3.867c-2.086,0-3.782-1.696-3.782-3.782V185.27
			c0-6.093,3.029-11.481,7.649-14.773V238.81z M221.211,238.81h-67.505v-71.491c0.817-0.113,1.645-0.192,2.493-0.192h8.023v13.522
			c0,6.99,5.69,12.68,12.69,12.68h21.09c7,0,12.7-5.69,12.7-12.68v-13.522h8.084c0.824,0,1.629,0.074,2.425,0.182V238.81z
			 M236.928,235.028c0,2.085-1.696,3.782-3.782,3.782h-3.935v-68.364c4.659,3.287,7.717,8.7,7.717,14.823V235.028z"/>
		<path fill="#5F266D" d="M168.875,98.275c-2.793,0-5.058,2.265-5.058,5.058s2.265,5.058,5.058,5.058s5.058-2.265,5.058-5.058
			S171.669,98.275,168.875,98.275z"/>
		<path fill="#5F266D" d="M206.062,108.39c2.79,0,5.06-2.26,5.06-5.06c0-2.789-2.274-5.06-5.06-5.06c-2.8,0-5.06,2.27-5.06,5.06
			C201.002,106.217,203.342,108.39,206.062,108.39z"/>
		<path fill="#5F266D" d="M198.212,116.85c0-2.202-1.78-4-4-4c-2.21,0-4,1.79-4,4c0,1.543-1.274,2.74-2.74,2.74
			c-1.52,0-2.75-1.23-2.75-2.74c0-2.21-1.79-4-4-4s-4,1.79-4,4c0,5.92,4.82,10.74,10.75,10.74
			C193.398,127.59,198.212,122.746,198.212,116.85z"/>
		<path fill="#5F266D" d="M209.362,221.6h-12c-5.285,0-5.293,8,0,8h12C214.646,229.6,214.657,221.6,209.362,221.6z"/>
		<path fill="#5F266D" d="M182.362,221.6h-4.11c-5.285,0-5.293,8,0,8h4.11C187.646,229.6,187.657,221.6,182.362,221.6z"/>
		<path fill="#5F266D" d="M36.292,37.38c7.77,0,14.1-6.33,14.1-14.1s-6.33-14.09-14.1-14.09c-7.77,0-14.09,6.32-14.09,14.09
			S28.522,37.38,36.292,37.38z M36.292,17.19c3.36,0,6.1,2.73,6.1,6.09c0,3.36-2.74,6.1-6.1,6.1c-3.36,0-6.09-2.74-6.09-6.1
			C30.202,19.92,32.932,17.19,36.292,17.19z"/>
		<path fill="#5F266D" d="M104.422,57.68c7.77,0,14.1-6.33,14.1-14.1c0-7.77-6.33-14.09-14.1-14.09c-7.77,0-14.1,6.32-14.1,14.09
			C90.322,51.35,96.652,57.68,104.422,57.68z M104.422,37.49c3.36,0,6.1,2.73,6.1,6.09s-2.74,6.1-6.1,6.1c-3.36,0-6.1-2.74-6.1-6.1
			S101.062,37.49,104.422,37.49z"/>
		<path fill="#5F266D" d="M146.832,156.5c5.53-2.75,7.79-9.49,5.04-15.02l-19.17-38.52l-11.52-34.91
			c-2.896-8.731-14.539-10.449-19.81-2.91l-10.85,15.48l-10.23-4.72c-2.03-0.94-4.25-1.24-6.41-0.9c1.62-4.58,0.1-9.85-4.04-12.81
			l-27.98-20.03c-7.343-5.26-17.73-0.034-17.73,9.11v33.04l-18.35,36.88c-2.738,5.516-0.54,12.23,5.04,15.02
			c5.327,2.664,12.157,0.701,15.02-5.04l10.66-21.43c15.514,24.54,14.548,23.272,16.018,24.637v18.941c0,2.209,1.791,4,4,4
			s4-1.791,4-4V137.37c0.001,0,0.002,0,0.002,0c8.621-0.261,13.72-9.872,9.1-17.18l-9.1-14.39l-0.002-0.004V90.573
			c0-1.782,1.287-3.521,3.913-3.521c0.09,0.979,0.31,1.948,0.66,2.888c1.03,2.81,3.1,5.05,5.82,6.3l18.72,8.64
			c4.92,2.27,10.75,0.7,13.87-3.74l3.4-4.86l2.35,7.1l-9.82,7.92c-6.14,4.95-10.84,11.48-13.59,18.87l-5.36,14.43
			c-2.148,5.784,0.761,12.239,6.6,14.4c5.68,2.13,12.213-0.728,14.4-6.6l5.36-14.42c1.35-3.62,3.65-6.82,6.65-9.24l5.01-4.03
			l13.31,26.76C134.58,157.006,141.286,159.273,146.832,156.5z M52.52,93.146L46.542,83.7V73.06
			C57.15,80.651,57,80.584,57.682,80.97c0.001,0.001,0.003,0.001,0.005,0.002C51.942,84.787,52.52,90.654,52.52,93.146z
			 M62.862,124.47c1.147,1.835,0.24,4.493-2.342,4.89v-8.594C60.524,120.772,62.858,124.464,62.862,124.47z M65.932,73.16
			c-1.03,1.44-3.03,1.77-4.47,0.74l-16.6-11.88c-2.638-1.881-6.32-0.007-6.32,3.26v19.57c0,1.638-0.434,0.491,13.978,23.266v11.98
			L39.462,99.46c-1.661-2.631-5.563-2.435-6.96,0.36l-13.82,27.78c-0.827,1.653-2.795,2.209-4.3,1.44
			c-1.51-0.755-2.264-2.605-1.44-4.29c20.355-40.906,19.19-38.163,19.19-39.5V51.27c0-2.646,3.016-4.077,5.07-2.61l27.99,20.03
			C66.622,69.72,66.962,71.73,65.932,73.16z M117.352,115.35l-8.88,7.16c-4.12,3.33-7.28,7.71-9.13,12.68l-5.36,14.43
			c-0.61,1.65-2.46,2.5-4.12,1.88c-1.628-0.59-2.509-2.433-1.88-4.11l5.36-14.43c2.25-6.05,6.09-11.38,11.11-15.43l11.97-9.66
			c1.3-1.04,1.81-2.78,1.29-4.36l-5.71-17.31c-1.011-3.099-5.188-3.749-7.07-1.04l-7.98,11.39c-0.89,1.27-2.56,1.72-3.97,1.07
			l-18.72-8.64c-1.604-0.74-2.321-2.635-1.57-4.25c0.764-1.655,2.71-2.29,4.25-1.57l13.26,6.12c1.76,0.82,3.84,0.25,4.96-1.33
			l12.76-18.22c1.534-2.181,4.855-1.615,5.66,0.83l11.61,35.18c0.139,0.416,19.325,38.918,19.52,39.31c0.78,1.58,0.14,3.5-1.44,4.29
			c-1.599,0.789-3.52,0.14-4.3-1.44l-15.53-31.21C122.302,114.389,119.323,113.757,117.352,115.35z"/>
	</g>
</g>
</svg>
