<?xml version="1.0" encoding="utf-8"?>
<!-- Generator: Adobe Illustrator 24.0.0, SVG Export Plug-In . SVG Version: 6.00 Build 0)  -->
<svg version="1.1" id="Icon_Set" xmlns="http://www.w3.org/2000/svg" xmlns:xlink="http://www.w3.org/1999/xlink" x="0px" y="0px"
	 viewBox="0 0 256 256" enable-background="new 0 0 256 256" xml:space="preserve">
<g>
	<g>
		<g>
			<path fill="#FFEFEE" d="M21.252,158.593V40.915h-5c-5.523,0-10,4.477-10,10v89.678v12v6c0,13.81,11.19,25,25,25h15
				C32.442,183.593,21.252,172.403,21.252,158.593z"/>
			<path fill="#FFE2E2" d="M237.199,112.177l-4.21-1.08c-6.11-3-10.9-8.11-13.51-14.34c-0.32-0.76-0.61-1.54-0.86-2.33l-11.03-34.67
				l-2.29-7.18c-2.21-6.95-8.67-11.67-15.96-11.67h-60.75l-0.007,0.008H21.252v132.678c0,5.523,4.477,10,10,10h0h97.337v0.003
				h104.41c9.251,0,16.75-7.499,16.75-16.75v-38.45C249.749,120.757,244.589,114.087,237.199,112.177z"/>
			<circle fill="#87828E" cx="56.835" cy="183.677" r="31.417"/>
			<circle fill="#87828E" cx="184.669" cy="183.677" r="31.417"/>
			<g>
				<path fill="#A4A4A5" d="M64.332,153.163c-2.4-0.59-4.91-0.9-7.5-0.9c-17.35,0-31.41,14.06-31.41,31.41
					c0,17.35,14.06,31.42,31.41,31.42c2.59,0,5.1-0.31,7.5-0.91c-13.73-3.35-23.91-15.74-23.91-30.51
					C40.422,168.903,50.602,156.523,64.332,153.163z"/>
				<path fill="#A4A4A5" d="M168.252,183.673c0-14.77,10.19-27.15,23.92-30.51c-2.4-0.59-4.91-0.9-7.5-0.9
					c-17.35,0-31.42,14.06-31.42,31.41c0,17.35,14.07,31.42,31.42,31.42c2.59,0,5.1-0.31,7.5-0.91
					C178.442,210.833,168.252,198.443,168.252,183.673z"/>
			</g>
			<path fill="#796E84" d="M56.835,200.093c-9.052,0-16.416-7.364-16.416-16.417s7.364-16.417,16.416-16.417
				c9.053,0,16.417,7.365,16.417,16.417S65.888,200.093,56.835,200.093z"/>
			<path fill="#796E84" d="M184.668,200.093c-9.052,0-16.416-7.364-16.416-16.417s7.364-16.417,16.416-16.417
				c9.053,0,16.417,7.365,16.417,16.417S193.721,200.093,184.668,200.093z"/>
			<path fill="#FFCFCF" d="M249.749,128.397v38.45c0,9.25-7.5,16.75-16.75,16.75h-15c9.25,0,16.75-7.5,16.75-16.75v-38.45
				c0-7.64-5.16-14.31-12.55-16.22l-4.21-1.08c-6.11-3-10.9-8.11-13.51-14.34c-0.32-0.76-0.61-1.54-0.86-2.33l-11.03-34.67
				l-2.29-7.18c-2.21-6.95-8.67-11.67-15.96-11.67h15c7.29,0,13.75,4.72,15.96,11.67l2.29,7.18l11.03,34.67
				c0.25,0.79,0.54,1.57,0.86,2.33c2.61,6.23,7.4,11.34,13.51,14.34l4.21,1.08C244.589,114.087,249.749,120.757,249.749,128.397z"/>
			<path fill="#73D7F9" d="M219.479,96.757h-50.53c-2.76,0-5-2.24-5-5v-27c0-2.76,2.24-5,5-5h38.64l11.03,34.67
				C218.869,95.217,219.159,95.997,219.479,96.757z"/>
			<path fill="#30B6FF" d="M219.479,96.757h-15c-0.32-0.76-0.61-1.54-0.86-2.33l-11.03-34.67h15l11.03,34.67
				C218.869,95.217,219.159,95.997,219.479,96.757z"/>
			<path fill="#30B6FF" d="M219.479,96.757h-15c-0.32-0.76-0.61-1.54-0.86-2.33l-11.03-34.67h15l11.03,34.67
				C218.869,95.217,219.159,95.997,219.479,96.757z"/>
		</g>
	</g>
	<g>
		<path fill="#5F266D" d="M42.958,68.423h14c5.285,0,5.292-8,0-8h-14C37.673,60.423,37.666,68.423,42.958,68.423z"/>
		<path fill="#5F266D" d="M23.043,68.423h4.915c5.285,0,5.292-8,0-8h-4.915C17.758,60.423,17.751,68.423,23.043,68.423z"/>
		<path fill="#5F266D" d="M56.835,163.26c-11.257,0-20.416,9.159-20.416,20.417s9.159,20.417,20.416,20.417
			c11.258,0,20.417-9.159,20.417-20.417S68.093,163.26,56.835,163.26z M56.835,196.093c-6.846,0-12.416-5.57-12.416-12.417
			s5.57-12.417,12.416-12.417c6.847,0,12.417,5.57,12.417,12.417S63.681,196.093,56.835,196.093z"/>
		<path fill="#5F266D" d="M184.668,163.26c-11.258,0-20.416,9.159-20.416,20.417s9.158,20.417,20.416,20.417
			s20.417-9.159,20.417-20.417S195.926,163.26,184.668,163.26z M184.668,196.093c-6.847,0-12.416-5.57-12.416-12.417
			s5.569-12.417,12.416-12.417s12.417,5.57,12.417,12.417S191.515,196.093,184.668,196.093z"/>
		<path fill="#5F266D" d="M168.918,115.427H158.75c-5.285,0-5.292,8,0,8h10.168C174.203,123.427,174.21,115.427,168.918,115.427z"/>
		<path fill="#5F266D" d="M238.193,108.302l-3.796-0.974c-5.055-2.586-9.033-6.875-11.231-12.125
			c-0.593-1.408,0.529,1.981-14.056-43.839c-2.749-8.648-10.695-14.458-19.771-14.458c-9.339,0-163.471,0.005-173.086,0.005
			c-7.72,0-14,6.28-14,14c0,14.417,0,91.953,0,107.682c0,12.431,7.776,23.234,19.243,27.293
			c1.146,18.502,16.555,33.207,35.341,33.207c18.205,0,33.239-13.808,35.195-31.5h57.443c1.956,17.692,16.99,31.5,35.195,31.5
			c18.204,0,33.238-13.806,35.195-31.497h13.135c11.441,0,20.75-9.309,20.75-20.75v-38.45
			C253.748,118.933,247.355,110.67,238.193,108.302z M213.889,92.757h-44.941c-0.552,0-1-0.449-1-1v-27c0-0.551,0.448-1,1-1h35.711
			L213.889,92.757z M10.252,158.593c0-12.675,0-97.618,0-107.682c0-3.309,2.691-6,6-6c18.632,0,118.541-0.005,120.749-0.005v134.687
			H92.009c-2.032-17.611-17.027-31.333-35.174-31.333c-17.397,0-31.894,12.612-34.854,29.171
			C14.904,173.979,10.252,166.776,10.252,158.593z M56.835,211.093c-15.118,0-27.417-12.299-27.417-27.417
			s12.299-27.417,27.417-27.417s27.417,12.299,27.417,27.417S71.953,211.093,56.835,211.093z M184.668,211.093
			c-15.117,0-27.416-12.299-27.416-27.417s12.299-27.417,27.416-27.417c15.118,0,27.417,12.299,27.417,27.417
			S199.786,211.093,184.668,211.093z M245.748,166.847c0,7.03-5.72,12.75-12.75,12.75h-13.155
			c-2.031-17.613-17.026-31.336-35.175-31.336c-18.147,0-33.141,13.722-35.173,31.333H145V44.907h44.338
			c5.834,0,10.328,3.162,12.775,10.85h-33.164c-4.963,0-9,4.038-9,9v27c0,4.962,4.037,9,9,9h47.997
			c3.146,6.023,8.136,10.914,14.28,13.931c0.577,0.283,0.808,0.294,4.972,1.362c5.623,1.454,9.551,6.531,9.551,12.347V166.847z"/>
		<path fill="#5F266D" d="M58.667,102.667c-2.209,0-4,1.791-4,4s1.791,4,4,4h9.667v9.667c0,2.209,1.791,4,4,4s4-1.791,4-4v-9.667H86
			c2.209,0,4-1.791,4-4s-1.791-4-4-4h-9.667V93c0-2.209-1.791-4-4-4s-4,1.791-4,4v9.667H58.667z"/>
	</g>
</g>
</svg>
