<?xml version="1.0" encoding="utf-8"?>
<!-- Generator: Adobe Illustrator 24.0.0, SVG Export Plug-In . SVG Version: 6.00 Build 0)  -->
<svg version="1.1" id="Icon_Set" xmlns="http://www.w3.org/2000/svg" xmlns:xlink="http://www.w3.org/1999/xlink" x="0px" y="0px"
	 viewBox="0 0 256 256" enable-background="new 0 0 256 256" xml:space="preserve">
<g>
	<g>
		<circle fill="#87828E" cx="219.104" cy="228.493" r="15.819"/>
		<path fill="#FFE2E2" d="M165.156,61.763h-78.98v24.055h78.98c3.065,0,5.549-2.484,5.549-5.549V67.313
			C170.705,64.248,168.22,61.763,165.156,61.763z"/>
		<path fill="#FFE2E2" d="M206.128,116.391H85.265v47.344h133.839v-34.368C219.104,122.201,213.294,116.391,206.128,116.391z"/>
		<circle fill="#87828E" cx="84.81" cy="180.124" r="63.733"/>
		<path fill="#A4A4A5" d="M92.906,243.347c-2.649,0.335-5.352,0.508-8.098,0.508c-35.202,0-63.733-28.531-63.733-63.733
			c0-35.191,28.531-63.733,63.733-63.733c2.746,0,5.449,0.173,8.098,0.508c-31.364,3.989-55.614,30.78-55.614,63.225
			C37.292,212.577,61.542,239.357,92.906,243.347z"/>
		<path fill="#796E84" d="M148.542,180.122c0,35.202-28.531,63.733-63.733,63.733c-2.746,0-5.449-0.173-8.098-0.508
			c31.364-3.989,55.614-30.769,55.614-63.225c0-32.445-24.25-59.236-55.614-63.225c2.649-0.335,5.352-0.508,8.098-0.508
			C120.01,116.388,148.542,144.931,148.542,180.122z"/>
		<path fill="#FFCFCF" d="M170.705,67.316v12.952c0,3.07-2.487,5.546-5.546,5.546h-16.217c3.06,0,5.546-2.476,5.546-5.546V67.316
			c0-3.071-2.487-5.557-5.546-5.557h16.217C168.218,61.759,170.705,64.245,170.705,67.316z"/>
		<path fill="#FFCFCF" d="M219.108,129.362v34.369H202.89v-34.369c0-7.157-5.817-12.974-12.984-12.974h16.217
			C213.291,116.388,219.108,122.205,219.108,129.362z"/>
	</g>
	<g>
		<path fill="#5F266D" d="M222.813,209.034c0.184-0.459,0.291-0.957,0.291-1.481c0-58.331,0.004-26.602,0.004-78.19
			c0-9.359-7.619-16.974-16.984-16.974H88.809v-22.57h76.346c5.266,0,9.55-4.283,9.55-9.549V67.313c0-5.266-4.284-9.549-9.55-9.549
			H88.809V21.976c0-7.879-6.409-14.288-14.288-14.288H35.189c-2.209,0-4,1.791-4,4s1.791,4,4,4h39.333
			c3.467,0,6.288,2.821,6.288,6.288v90.544c-35.492,2.079-63.732,31.601-63.732,67.604c0,37.349,30.385,67.733,67.732,67.733
			c41.97,0,74.372-38.158,66.577-80.126h63.718v39.821c0,0.524,0.107,1.022,0.291,1.481c-9.16,1.743-16.11,9.799-16.11,19.459
			c0,10.929,8.891,19.819,19.819,19.819s19.819-8.891,19.819-19.819C238.923,218.833,231.973,210.777,222.813,209.034z
			 M88.809,65.764h76.346c0.854,0,1.55,0.694,1.55,1.549V80.27c0,0.854-0.695,1.549-1.55,1.549H88.809V65.764z M39.869,140.84
			l35.283,35.284H25.226C26.121,162.661,31.494,150.41,39.869,140.84z M25.226,184.124h49.928l-35.284,35.284
			C31.494,209.839,26.121,197.588,25.226,184.124z M80.809,239.708c-13.463-0.896-25.714-6.268-35.283-14.643l35.283-35.284V239.708
			z M80.809,170.468l-35.284-35.284c9.569-8.375,21.82-13.748,35.284-14.643V170.468z M88.809,120.541
			c13.464,0.896,25.714,6.268,35.284,14.643l-35.284,35.284V120.541z M88.809,239.708v-49.927l35.284,35.284
			C114.524,233.44,102.273,238.813,88.809,239.708z M129.75,219.409l-35.284-35.285h49.928
			C143.498,197.588,138.125,209.839,129.75,219.409z M94.466,176.124l35.283-35.284c8.376,9.569,13.748,21.82,14.644,35.284H94.466z
			 M215.104,159.731h-65.704c-5.369-16.968-17.252-31.062-32.701-39.343h89.425c4.954,0,8.984,4.025,8.984,8.974
			C215.108,129.643,215.104,133.974,215.104,159.731z M219.104,240.313c-6.518,0-11.819-5.302-11.819-11.819
			s5.302-11.819,11.819-11.819s11.819,5.302,11.819,11.819S225.621,240.313,219.104,240.313z"/>
		<path fill="#5F266D" d="M169.959,139.856h-7.363c-5.285,0-5.292,8,0,8h7.363C175.244,147.856,175.251,139.856,169.959,139.856z"/>
		<path fill="#5F266D" d="M202.959,139.856h-18c-5.285,0-5.292,8,0,8h18C208.244,147.856,208.251,139.856,202.959,139.856z"/>
	</g>
</g>
</svg>
