<?xml version="1.0" encoding="utf-8"?>
<!-- Generator: Adobe Illustrator 24.0.0, SVG Export Plug-In . SVG Version: 6.00 Build 0)  -->
<svg version="1.1" id="Icon_Set" xmlns="http://www.w3.org/2000/svg" xmlns:xlink="http://www.w3.org/1999/xlink" x="0px" y="0px"
	 viewBox="0 0 256 256" enable-background="new 0 0 256 256" xml:space="preserve">
<g>
	<g>
		<g>
			<g>
				<g>
					<circle fill="#B76C6C" cx="110.319" cy="102.347" r="32.516"/>
					<path fill="#965959" d="M102.079,70.887c2.626-0.692,5.394-1.055,8.24-1.055c17.963,0,32.521,14.558,32.521,32.51
						c0,17.963-14.558,32.521-32.521,32.521c-2.846,0-5.614-0.363-8.24-1.055c13.975-3.648,24.281-16.348,24.281-31.466
						C126.36,87.235,116.055,74.534,102.079,70.887z"/>
				</g>
				<g>
					<g>
						<g>
							<g>
								<path fill="#F9D335" d="M135.1,180.225v59.566c0,5.145-4.171,9.316-9.316,9.316H16.476c-5.145,0-9.316-4.171-9.316-9.316
									v-59.566c0-14.64,11.868-26.509,26.509-26.509h74.922C123.223,153.716,135.1,165.575,135.1,180.225z"/>
								<path fill="#F9E27D" d="M25.889,154.872v94.24H16.47c-5.144,0-9.312-4.182-9.312-9.325v-59.558
									C7.158,168.298,15.041,158.198,25.889,154.872z"/>
								<path fill="#5FCDFF" d="M135.105,180.229v59.558c0,5.144-4.182,9.325-9.325,9.325h-9.499v-94.267
									C127.17,158.145,135.105,168.258,135.105,180.229z"/>
								<path fill="#5FCDFF" d="M25.889,154.872v94.24H16.47c-5.144,0-9.312-4.182-9.312-9.325v-59.558
									C7.158,168.298,15.041,158.198,25.889,154.872z"/>
								<path fill="#FFBB98" d="M71.077,6.894c-12.487,0-23.771,5.058-31.95,13.237c-8.179,8.179-13.237,19.48-13.237,31.967v34.81
									c0,20.038,13.034,37.503,31.038,43.645v23.159h-8.872v20.968c0,5.743,4.656,10.4,10.4,10.4h25.258
									c5.743,0,10.4-4.656,10.4-10.4v-20.968h-8.872v-23.092c17.979-5.971,31.041-22.987,31.041-42.892v-35.63
									C116.282,27.142,96.052,6.894,71.077,6.894z"/>
								<path fill="#FFAA80" d="M116.282,55.622v32.107c0,21.835-15.713,40.199-36.397,44.315h-0.017
									c-0.453,0.087-0.907,0.174-1.36,0.244c-2.215,0.384-4.482,0.593-6.802,0.628c-3.174,0.052-6.261-0.244-9.261-0.872
									c3.052-0.61,5.965-1.535,8.755-2.738c16.167-6.889,27.573-22.968,27.573-41.594V62.127
									C104.458,60.732,110.422,58.656,116.282,55.622z"/>
								<path fill="#FFCAA6" d="M78.594,132.044c-0.017,0.052-0.052,0.122-0.087,0.244c-2.215,0.384-4.482,0.593-6.802,0.628
									c-3.174,0.052-6.261-0.244-9.261-0.872c-0.017,0-0.017,0-0.017,0c-20.788-4.186-36.537-23.108-36.537-45.135V65.667
									c5.04-1.096,7.794-0.983,16.237-3.68v24.922c0,18.818,11.493,35.368,27.799,42.397
									C72.682,130.509,75.577,131.434,78.594,132.044z"/>
								<path fill="#B76C6C" d="M116.297,52.1v3.506l-0.011,0.011c-5.862,3.044-11.842,5.12-17.531,6.507
									c-16.327,4.066-30.051,2.581-30.051,2.581l6.98-18.661c-0.645,0.419-15.714,9.992-32.266,15.52
									c-0.43,0.14-0.86,0.28-1.291,0.419c-5.431,1.742-10.992,3.022-16.241,3.366V52.1c0-22.049,15.767-40.301,36.472-44.356
									c1.603-0.312,3.227-0.538,4.883-0.678c1.269-0.118,2.549-0.172,3.85-0.172c2.947,0,5.894,0.301,8.701,0.85
									c9.002,1.753,17.004,6.163,23.232,12.39C111.221,28.298,116.297,39.613,116.297,52.1z"/>
								<path fill="#965959" d="M116.299,52.099v3.505l-0.017,0.017c-5.86,3.035-11.842,5.11-17.527,6.505V52.099
									c0-18.765-11.406-34.845-27.677-41.682c-2.773-1.151-5.703-2.058-8.72-2.668c2.825-0.558,5.755-0.855,8.737-0.855
									c2.947,0,5.895,0.296,8.703,0.855c8.999,1.744,17.004,6.156,23.23,12.382C111.224,28.293,116.299,39.612,116.299,52.099z"/>
								<path fill="#C98585" d="M67.242,7.067c-3.592,2.173-6.894,4.786-9.852,7.744C47.946,24.243,42.128,37.29,42.128,51.67
									v10.314c-5.431,1.742-10.992,3.022-16.241,3.366V52.1c0-22.049,15.767-40.301,36.472-44.356
									C63.961,7.433,65.585,7.207,67.242,7.067z"/>
							</g>
						</g>
					</g>
				</g>
			</g>
		</g>
		<g>
			<path fill="#FFE2E2" d="M246.875,138.427l-69.313,69.594c-2.633,2.643-6.901,2.643-9.534,0l-18.295-18.369
				c-2.633-2.643-2.633-6.929,0-9.572l69.313-69.594c2.633-2.643,6.901-2.643,9.534,0l18.295,18.369
				C249.507,131.498,249.507,135.783,246.875,138.427z"/>
			<path fill="#FFE2E2" d="M219.046,208.021l-69.313-69.594c-2.633-2.643-2.633-6.929,0-9.572l18.295-18.369
				c2.633-2.643,6.901-2.643,9.534,0l69.313,69.594c2.633,2.643,2.633,6.929,0,9.572l-18.295,18.369
				C225.947,210.664,221.679,210.664,219.046,208.021z"/>
			<path fill="#F9D335" d="M201.276,172.919l-16.583-16.65c-2.938-2.95-2.938-7.732,0-10.681l0,0c2.938-2.95,7.7-2.95,10.638,0
				l16.583,16.65c2.938,2.95,2.938,7.732,0,10.681l0,0C208.977,175.868,204.214,175.868,201.276,172.919z"/>
		</g>
	</g>
	<g>
		<g>
			<g>
				<g>
					<path fill="#5F266D" d="M97.311,224.503h-12c-2.21,0-4,1.79-4,4c0,2.21,1.79,4,4,4h12c2.21,0,4-1.79,4-4
						C101.311,226.293,99.521,224.503,97.311,224.503z M70.311,224.503h-2.5c-2.21,0-4,1.79-4,4c0,2.21,1.79,4,4,4h2.5
						c2.21,0,4-1.79,4-4C74.311,226.293,72.521,224.503,70.311,224.503z"/>
				</g>
			</g>
		</g>
	</g>
	<g>
		<path fill="#5F266D" d="M108.589,149.713c-14.278,0-15.412-0.004-19.343-0.004v-16.294c0,0,0.467-0.182,1.155-0.472
			c24.139,15.756,56.43-1.616,56.43-30.6c0-16.68-11.24-30.78-26.55-35.13c0-6.185,0.02-13.865,0.02-15.11
			c0-29.778-25.649-49.16-47.24-49.16c-27.578-1.255-51.17,21.088-51.17,49.14c0,12.38,0,21.501,0,34.83
			c0,20.287,12.54,38.889,31.03,46.43c0.004,0.001,0.002,16.362,0.002,16.366c-0.078,0-4.981,0.004-19.262,0.004
			c-16.822,0-30.508,13.686-30.508,30.577v59.501c0,7.343,5.974,13.316,13.316,13.316c14.402,0,92.58,0,109.311,0
			c7.343,0,13.316-5.974,13.316-13.316v-59.57C139.097,163.254,125.237,149.713,108.589,149.713z M52.053,157.713
			c1.839,0,3.032-0.004,4.871-0.004c2.209,0,4-1.791,4-4v-17.876c3.309,0.72,6.718,1.09,10.168,1.09
			c3.384,0,6.803-0.36,10.155-1.069v17.855c0,2.209,1.791,4,4,4c1.4,0,2.048,0.004,4.871,0.004v16.971
			c0,3.526-2.875,6.394-6.407,6.394H58.46c-3.533,0-6.408-2.868-6.408-6.394V157.713z M138.831,102.343
			c0,20.651-21.398,34.482-40.15,26.03c13.02-8.89,21.6-23.84,21.6-40.65v-12.09C131.111,79.683,138.831,90.123,138.831,102.343z
			 M29.891,52.093c0-23.321,19.229-42.173,43.31-41.14c20.621,1.083,39.08,17.606,39.08,42.19c-11.562,5.485-25.322,7.94-37.9,7.82
			l5.05-13.52c1.334-3.578-2.678-6.858-5.93-4.75c-10.757,6.912-29.222,15.908-43.61,18.19V52.093z M29.891,86.913v-17.95
			c12.628-1.708,26.881-7.844,38.14-13.87l-3.07,8.21c-0.919,2.422,0.703,5.102,3.31,5.38c7.583,0.9,26.687,0.46,44.01-6.79
			c0,7.095,0,13.255,0,25.83c0,22.362-18.167,40.87-40.63,41.2C48.3,129.224,29.891,109.494,29.891,86.913z M44.053,157.713v16.971
			c0,7.937,6.463,14.394,14.408,14.394h25.25c7.944,0,14.407-6.457,14.407-14.394v-16.971h10.472c1.258,0,2.49,0.109,3.692,0.308
			v87.086H29.889v-87.072c1.228-0.208,2.487-0.322,3.772-0.322H44.053z M11.154,239.791v-59.57c0-8.098,4.3-15.208,10.735-19.174
			v84.06H16.47C13.538,245.107,11.154,242.722,11.154,239.791z M131.097,239.791c0,2.932-2.385,5.316-5.316,5.316h-5.499v-84.112
			c6.48,3.956,10.815,11.094,10.815,19.225V239.791z"/>
		
			<ellipse transform="matrix(0.7071 -0.7071 0.7071 0.7071 -43.7691 58.5876)" fill="#5F266D" cx="48.837" cy="82.128" rx="6.055" ry="6.055"/>
		<path fill="#5F266D" d="M93.351,88.183c3.35,0,6.06-2.71,6.06-6.06c0-3.341-2.712-6.05-6.06-6.05c-3.34,0-6.05,2.71-6.05,6.05
			C87.301,85.471,90.026,88.183,93.351,88.183z"/>
		<path fill="#5F266D" d="M71.091,110.383c6.612,0,12.08-5.369,12.08-12.07c0-2.22-1.802-4-4-4c-2.21,0-4,1.79-4,4
			c0,2.309-1.921,4.07-4.08,4.07c-2.24,0-4.07-1.83-4.07-4.07c0-2.21-1.79-4-4-4c-2.21,0-4,1.79-4,4
			C59.021,104.963,64.441,110.383,71.091,110.383z"/>
		<path fill="#5F266D" d="M231.781,159.253l17.93-18c4.18-4.2,4.18-11.03,0-15.22l-18.3-18.37c-4.193-4.213-11-4.22-15.2,0
			l-17.91,17.98l-17.91-17.98c-4.202-4.222-11.008-4.213-15.2,0l-18.29,18.37c-4.18,4.19-4.18,11.02,0,15.22l17.93,18l-17.93,18
			c-4.18,4.2-4.18,11.03,0,15.22l18.29,18.37c4.184,4.205,10.991,4.23,15.2,0l17.91-17.98l17.91,17.98
			c4.192,4.212,10.999,4.222,15.2,0l18.3-18.37c4.18-4.19,4.18-11.02,0-15.22L231.781,159.253z M221.881,113.313
			c1.101-1.101,2.81-1.06,3.87,0l18.29,18.36c1.09,1.11,1.07,2.86,0,3.93l-17.91,17.98l-22.18-22.27L221.881,113.313z
			 M174.731,205.193c-1.04,1.04-2.83,1.04-3.87,0l-18.29-18.36c-1.08-1.09-1.08-2.85,0-3.93l17.91-17.98l22.18,22.27
			L174.731,205.193z M244.041,186.833l-18.29,18.36c-1.04,1.04-2.84,1.04-3.87,0c-36.386-36.528-42.597-42.772-69.31-69.59
			c-1.08-1.08-1.08-2.84,0-3.93l18.29-18.36c1.04-1.04,2.83-1.04,3.87,0c75.379,75.673,27.963,28.081,69.31,69.59
			C245.121,183.983,245.121,185.743,244.041,186.833z"/>
		<path fill="#5F266D" d="M214.751,159.413l-16.59-16.65c-4.401-4.446-11.702-4.598-16.3,0c-4.508,4.52-4.478,11.852,0,16.33
			l16.58,16.65c4.532,4.532,11.796,4.514,16.31,0C219.219,171.25,219.252,163.914,214.751,159.413z M187.531,153.443
			c-1.39-1.39-1.39-3.64,0-5.03c1.357-1.377,3.572-1.398,4.97,0l16.58,16.65c1.38,1.39,1.38,3.64,0,5.03
			c-1.301,1.32-3.598,1.372-4.97,0L187.531,153.443z"/>
	</g>
</g>
</svg>
