<?xml version="1.0" encoding="iso-8859-1"?>
<!-- Uploaded to: SVG Repo, www.svgrepo.com, Generator: SVG Repo Mixer Tools -->
<svg fill="#000000" height="800px" width="800px" version="1.1" id="Layer_1" xmlns="http://www.w3.org/2000/svg" xmlns:xlink="http://www.w3.org/1999/xlink" 
	 viewBox="0 0 512 512" xml:space="preserve">
<g>
	<g>
		<g>
			<path d="M341.333,443.733h-26.598l-15.684-125.449c68.54-18.927,119.083-81.672,119.083-156.151C418.133,72.73,345.404,0,256,0
				C166.605,0,93.867,72.73,93.867,162.133c0,74.479,50.543,137.225,119.083,156.151l-15.684,125.449h-26.598
				c-32.939,0-59.733,26.795-59.733,59.733V512h290.133v-8.533C401.067,470.528,374.272,443.733,341.333,443.733z M343.808,87.706
				c3.157-3.166,8.875-3.166,12.117,0c1.536,1.613,2.475,3.84,2.475,6.059c0,2.295-0.853,4.429-2.475,6.059
				c-0.853,0.759-1.792,1.365-2.816,1.783c-1.024,0.427-2.133,0.691-3.243,0.691c-1.109,0-2.219-0.265-3.243-0.691
				c-1.024-0.418-1.963-1.024-2.816-1.783c-0.768-0.862-1.365-1.792-1.792-2.825c-0.512-1.024-0.683-2.133-0.683-3.234
				C341.333,91.546,342.272,89.318,343.808,87.706z M170.667,162.133c0-47.053,38.281-85.333,85.333-85.333
				s85.333,38.281,85.333,85.333S303.053,247.467,256,247.467S170.667,209.186,170.667,162.133z M214.468,443.733l14.933-119.467
				h53.197l14.933,119.467H214.468z"/>
			<path d="M324.268,162.133c0-37.641-30.626-68.267-68.267-68.267c-37.641,0-68.267,30.626-68.267,68.267
				c0,37.641,30.626,68.267,68.267,68.267C293.642,230.4,324.268,199.774,324.268,162.133z M296.194,193.792
				c-0.853,0.768-1.792,1.365-2.816,1.792c-1.024,0.427-2.133,0.683-3.243,0.683c-1.109,0-2.219-0.256-3.243-0.683
				c-1.024-0.427-1.963-1.024-2.816-1.792c-1.621-1.621-2.475-3.755-2.475-6.059c0-2.219,0.939-4.437,2.475-6.059
				c3.243-3.157,8.875-3.157,12.117,0c1.536,1.621,2.475,3.84,2.475,6.059C298.668,190.037,297.815,192.171,296.194,193.792z
				 M264.535,119.467c18.825,0,34.133,19.14,34.133,42.667c0,4.71-3.823,8.533-8.533,8.533c-4.71,0-8.533-3.823-8.533-8.533
				c0-13.875-7.817-25.6-17.067-25.6c-4.71,0-8.533-3.823-8.533-8.533S259.825,119.467,264.535,119.467z M244.994,134.059
				c-0.853,0.768-1.792,1.365-2.816,1.792c-1.024,0.427-2.133,0.683-3.243,0.683c-1.109,0-2.219-0.256-3.243-0.683
				c-1.024-0.427-1.963-1.024-2.816-1.792c-0.768-0.862-1.365-1.792-1.792-2.816c-0.512-1.024-0.683-2.133-0.683-3.243
				c0-2.219,0.939-4.437,2.475-6.059c3.157-3.157,8.875-3.157,12.117,0c1.536,1.621,2.475,3.84,2.475,6.059
				C247.468,130.304,246.615,132.437,244.994,134.059z"/>
		</g>
	</g>
</g>
</svg>