<?xml version="1.0" encoding="iso-8859-1"?>
<!-- Uploaded to: SVG Repo, www.svgrepo.com, Generator: SVG Repo Mixer Tools -->
<!DOCTYPE svg PUBLIC "-//W3C//DTD SVG 1.1//EN" "http://www.w3.org/Graphics/SVG/1.1/DTD/svg11.dtd">
<svg fill="#000000" version="1.1" id="Capa_1" xmlns="http://www.w3.org/2000/svg" xmlns:xlink="http://www.w3.org/1999/xlink" 
	 width="800px" height="800px" viewBox="0 0 950 950" xml:space="preserve">
<g>
	<g>
		<path d="M761.756,578.611c-10.854,0-21.487,0.941-31.83,2.729c-20.397-59.232-60.243-109.407-111.903-142.906L508.888,538.92
			c-9.262,8.527-21.297,13.225-33.887,13.225s-24.625-4.697-33.886-13.225L325.515,432.483
			c-55.212,32.697-98.144,83.941-120.207,145.162c-5.348-0.461-10.756-0.711-16.223-0.711
			c-103.019,0-186.533,83.514-186.533,186.533S86.066,950,189.085,950c5.71,0,11.356-0.27,16.936-0.773
			c0.375,0.506,0.574,0.773,0.574,0.773c0.001,0,0.003,0,0.004,0h505.414c8.174,0,41.025,0,49.742,0
			c102.557,0,185.693-83.137,185.693-185.693C947.45,661.75,864.312,578.611,761.756,578.611z"/>
		<path d="M297.541,372.381l51.668,47.572l109.019,100.378c4.739,4.363,10.757,6.547,16.773,6.547s12.033-2.184,16.773-6.547
			l103.406-95.211l57.28-52.739c6.696-6.166,2.334-17.342-6.768-17.342h-42.893V27.003C602.801,12.089,590.711,0,575.798,0H374.205
			c-14.913,0-27.003,12.09-27.003,27.003v328.036h-42.894C295.207,355.039,290.845,366.216,297.541,372.381z"/>
	</g>
</g>
</svg>