<?xml version="1.0" encoding="iso-8859-1"?>
<!-- Uploaded to: SVG Repo, www.svgrepo.com, Generator: SVG Repo Mixer Tools -->
<svg fill="#000000" version="1.1" id="Layer_1" xmlns="http://www.w3.org/2000/svg" xmlns:xlink="http://www.w3.org/1999/xlink" 
	 viewBox="0 0 491.52 491.52" xml:space="preserve">
<g>
	<g>
		<path d="M430.08,308.018V271.36c0-31.055-25.265-56.32-56.32-56.32s-56.32,25.265-56.32,56.32v76.8
			c0,39.525-32.155,71.68-71.68,71.68c-39.525,0-71.68-32.155-71.68-71.68v-20.984c40.466-2.483,78.041-19.415,106.625-48.631
			c30.29-30.745,46.975-71.485,46.975-114.705c0-43.22-16.685-83.96-46.95-114.68C249.715,17.46,208.2,0,163.84,0
			C119.48,0,77.97,17.46,46.98,49.135C16.685,79.885,0,120.62,0,163.84c0,43.22,16.685,83.955,46.955,114.68
			c28.607,29.239,66.18,46.172,106.645,48.656v20.984c0,50.815,41.345,92.16,92.16,92.16s92.16-41.345,92.16-92.16v-76.8
			c0-19.76,16.08-35.84,35.84-35.84s35.84,16.08,35.84,35.84v36.658c-34.679,4.995-61.44,34.823-61.44,70.862v40.96
			c0,39.525,32.155,71.68,71.68,71.68c39.525,0,71.68-32.155,71.68-71.68v-40.96C491.52,342.841,464.759,313.013,430.08,308.018z
			 M218.474,296.414c8.313-10.742,15.564-23.832,21.388-38.914c6.483,4.089,12.664,8.701,18.497,13.86
			C246.372,281.964,232.958,290.434,218.474,296.414z M272.722,256.783c-8.206-7.359-17.013-13.798-26.34-19.278
			c5.323-19.193,8.576-40.594,9.336-63.425h50.988C304.544,204.738,292.737,233.471,272.722,256.783z M306.706,153.6h-50.988
			c-0.761-22.831-4.014-44.232-9.336-63.426c9.328-5.481,18.135-11.919,26.341-19.279C292.732,94.195,304.544,122.933,306.706,153.6
			z M258.359,56.321c-5.832,5.159-12.014,9.77-18.496,13.859c-5.824-15.081-13.074-28.17-21.386-38.911
			C232.954,37.247,246.367,45.716,258.359,56.321z M174.08,22.192c19.205,5.787,36.17,27.402,47.388,57.844
			c-14.864,6.546-30.832,10.457-47.388,11.619V22.192z M174.08,112.136c18.652-1.144,36.712-5.225,53.532-12.343
			c4.249,16.487,6.923,34.68,7.639,53.807H174.08V112.136z M174.08,174.08h61.171c-0.716,19.128-3.39,37.321-7.639,53.807
			c-16.82-7.118-34.881-11.199-53.532-12.343V174.08z M174.08,236.024c16.556,1.162,32.524,5.073,47.388,11.619
			c-11.218,30.443-28.183,52.058-47.388,57.844V236.024z M109.205,31.267c-8.313,10.741-15.563,23.831-21.386,38.911
			c-6.481-4.089-12.661-8.699-18.493-13.858C81.312,45.716,94.724,37.246,109.205,31.267z M54.963,70.897
			c8.205,7.358,17.009,13.795,26.335,19.276c-5.323,19.194-8.576,40.595-9.336,63.427H20.974
			C23.136,122.946,34.948,94.21,54.963,70.897z M20.974,174.08h50.987c0.761,22.832,4.014,44.233,9.336,63.427
			c-9.326,5.481-18.131,11.919-26.336,19.277C34.952,233.486,23.137,204.743,20.974,174.08z M69.326,271.359
			c5.832-5.159,12.012-9.769,18.493-13.857c5.823,15.079,13.073,28.167,21.384,38.908C94.726,290.432,81.317,281.964,69.326,271.359
			z M153.6,305.487c-19.205-5.787-36.169-27.402-47.388-57.844c14.863-6.546,30.831-10.457,47.388-11.619V305.487z M153.6,215.544
			c-18.652,1.145-36.712,5.226-53.532,12.344c-4.249-16.487-6.924-34.681-7.639-53.809H153.6V215.544z M153.6,153.6H92.429
			c0.716-19.128,3.391-37.321,7.639-53.809c16.82,7.119,34.88,11.199,53.532,12.344V153.6z M153.6,91.656
			c-16.556-1.162-32.524-5.073-47.388-11.619c11.218-30.442,28.182-52.057,47.388-57.844V91.656z M471.04,419.84
			c0,28.23-22.97,51.2-51.2,51.2c-28.23,0-51.2-22.97-51.2-51.2v-40.96c0-28.23,22.97-51.2,51.2-51.2c28.23,0,51.2,22.97,51.2,51.2
			V419.84z"/>
	</g>
</g>
<g>
	<g>
		<rect x="409.6" y="348.16" width="20.48" height="30.72"/>
	</g>
</g>
</svg>