<svg id="Capa_1" enable-background="new 0 0 512 512" height="512" viewBox="0 0 512 512" width="512" xmlns="http://www.w3.org/2000/svg"><g><path d="m336.502 385.321.027-.333 7.667-81.263h-124.703v38.994c0 26.863-17.983 49.593-42.538 56.819 2.184 16.064 6.073 29.236 12.56 43.066l5.281 11.258h122.409l5.281-11.258c8.301-17.698 12.361-34.294 14.016-57.283z"/><path d="m467.001 303.725h-92.671l-7.918 83.917c-1.875 25.868-6.716 45.791-16.091 66.22h80.701c25.323-21.109 37.15-47.927 41.311-75.325l11.681-76.913c-5.45 1.366-11.147 2.101-17.013 2.101z"/><path d="m146.824 400.392c-26.203-6.106-45.79-29.637-45.79-57.673v-38.994h-56.035c-5.866 0-11.562-.735-17.011-2.101l11.681 76.913c4.16 27.398 13.348 48.052 41.31 75.325h80.701c-7.775-16.939-12.426-33.545-14.856-53.47z"/><path d="m131.034 172.659v170.06c0 16.143 13.086 29.229 29.229 29.229s29.229-13.086 29.229-29.229v-170.06h291.61v-7.606c0-30.137-24.519-54.656-54.656-54.656h-25.302c-1.26-29.029-25.271-52.26-54.604-52.26h-181.079c-29.334 0-53.345 23.231-54.604 52.26h-25.304c-30.137 0-54.655 24.519-54.655 54.656v7.606z"/><path d="m101.034 202.659h-101.034v31.066c0 22.091 17.909 40 40 40h61.034z"/><path d="m219.493 273.725h252.507c22.092 0 40-17.909 40-40v-31.066h-292.507z"/></g></svg>