<svg id="Capa_1" enable-background="new 0 0 512 512" height="512" viewBox="0 0 512 512" width="512" xmlns="http://www.w3.org/2000/svg"><g><path d="m275.828 382.507h-105.447c-1.083 10.568-3.816 20.653-7.927 30h121.302c-4.112-9.347-6.845-19.432-7.928-30z"/><path d="m348.267 204.601h162.493l-55.353-72.298h-107.14z"/><path d="m348.267 234.601v40.964c8.74-2.49 17.961-3.823 27.489-3.823 54.846 0 99.559 44.184 100.433 98.825h35.811v-135.966z"/><path d="m70.453 271.742c48.521 0 89.116 34.58 98.439 80.39h108.425c5.218-25.638 20.234-47.755 40.95-62.264v-190.517h42.489v-30h-248.423l-95.333 71.5v146.331c15.491-9.774 33.822-15.44 53.453-15.44zm174.398-139.817v109h-30v-109zm-122.399 109h-30v-76.289h30zm31.199-109h30v109h-30z"/><path d="m70.453 301.742c-38.91 0-70.453 31.543-70.453 70.453s31.543 70.453 70.453 70.453 70.453-31.543 70.453-70.453-31.542-70.453-70.453-70.453zm15 85.453h-30v-30h30z"/><path d="m305.303 372.195c0 38.91 31.543 70.453 70.453 70.453s70.453-31.543 70.453-70.453-31.543-70.453-70.453-70.453-70.453 31.543-70.453 70.453zm85.453 15h-30v-30h30z"/></g></svg>