<svg id="Capa_1" enable-background="new 0 0 511.687 511.687" height="512" viewBox="0 0 511.687 511.687" width="512" xmlns="http://www.w3.org/2000/svg"><g><path d="m489.707 21.981c-15.11-15.11-36.013-23.08-57.345-21.858-21.274 1.215-41.082 11.457-54.373 28.106l-52.923 63.642 94.751 94.751 63.642-52.923c16.65-13.291 26.892-33.099 28.106-54.373 1.218-21.334-6.749-42.235-21.858-57.345z"/><path d="m132.161 196.762-132.161 117.456 61.174 61.174 96.221-96.221 21.212 21.213-96.22 96.22 32.695 32.696 55.359-55.359 21.213 21.213-55.359 55.359 61.174 61.174 117.456-132.16z"/><path d="m305.803 115.034-35.763 43.007c-5.731 6.892-13.818 10.913-22.771 11.324-8.959.414-17.375-2.853-23.712-9.191l-27.042-27.041-42.779 42.779 182.04 182.04 42.779-42.779-27.041-27.041c-6.338-6.338-9.602-14.76-9.191-23.713.411-8.954 4.433-17.041 11.324-22.771l43.007-35.763z"/></g></svg>