<svg id="Capa_1" enable-background="new 0 0 512 512" height="512" viewBox="0 0 512 512" width="512" xmlns="http://www.w3.org/2000/svg"><g><path d="m388.178 311.406h-31.62v-113.313h-30v113.313h-55.558v-113.313h-30v113.313h-55.558v-113.313h-30v113.313h-31.62v30h264.356z"/><path d="m512 377.178h-30.551v-196.551c0-41.866-33.939-75.805-75.805-75.805h-299.288c-41.866 0-75.805 33.939-75.805 75.805v196.551h-30.551v30h123.822v-30h-30v-193.267c0-8.736 7.082-15.818 15.818-15.818h292.72c8.736 0 15.818 7.082 15.818 15.818v193.268h-30v30h123.822z"/></g></svg>