<svg id="Capa_1" enable-background="new 0 0 512 512" height="512" viewBox="0 0 512 512" width="512" xmlns="http://www.w3.org/2000/svg"><g><path d="m468.561 282.222h43.438v166.827h-43.438z"/><path d="m364.119 282.222h-54.002v79.801h-.058c-1.199 28.787-24.983 51.84-54.059 51.84s-52.86-23.053-54.059-51.84h-.058v-79.801h-54.001v166.827h216.237z"/><path d="m0 282.222h43.439v166.827h-43.439z"/><path d="m73.439 263.644h44.443v203.984h-44.443z"/><path d="m394.119 263.644h44.443v203.984h-44.443z"/><path d="m231.882 224.148v87.172c7.267-3.634 15.454-5.691 24.117-5.691s16.85 2.057 24.117 5.691v-87.172h28.892v-126.767c0-29.229-23.779-53.009-53.009-53.009-29.229 0-53.008 23.78-53.008 53.009v126.768h28.891z"/><path d="m280.117 359.746c0-13.298-10.819-24.117-24.117-24.117s-24.117 10.819-24.117 24.117 10.819 24.117 24.117 24.117 24.117-10.819 24.117-24.117z"/></g></svg>