<svg id="Capa_1" enable-background="new 0 0 512 512" height="512" viewBox="0 0 512 512" width="512" xmlns="http://www.w3.org/2000/svg"><g><path d="m190.132 262.797v100.053h50.868v-29.833h30v29.833h50.868v-100.053l-65.868-35.593zm80.868 40.22h-30v-30h30z"/><path d="m379.929 79.122c-8.083 36.493-40.679 63.878-79.569 63.878h-88.72c-38.89 0-71.486-27.385-79.569-63.878h-54.713v432.878h357.284v-432.878zm-28.057 375.507h-131.744v-30h131.743v30zm-191.74-209.721 95.868-51.804 95.868 51.803v147.943h-191.736zm-.004 179.721h30v30h-30z"/><path d="m211.64 113h88.72c28.449 0 51.511-23.062 51.511-51.512v-15.015h-37.264c-6.213-26.63-30.085-46.473-58.607-46.473s-52.395 19.843-58.608 46.473h-37.264v15.016c0 28.449 23.063 51.511 51.512 51.511z"/></g></svg>