<svg id="Capa_1" enable-background="new 0 0 512 512" height="512" viewBox="0 0 512 512" width="512" xmlns="http://www.w3.org/2000/svg"><g><path d="m155.889 398.653v-15.589h-155.889v93.561h80.619c41.751-1.468 75.27-35.869 75.27-77.972z"/><path d="m326.111 461.105c0-30.65 12.831-58.359 33.401-78.041h-173.623v15.589c0 30.614-12.801 58.293-33.329 77.972h173.551z"/><path d="m434.152 383.064c-43.032 0-78.041 35.009-78.041 78.041v15.52h155.889v-93.561z"/><path d="m69.585 353.064 37.79-72.824h-107.375v72.824z"/><path d="m370.824 280.24h-45.153l-23.354 72.824h106.297z"/><path d="m294.167 280.24h-76.412l23 72.824h30.058z"/><path d="m186.294 280.24h-45.119l-37.79 72.824h105.909z"/><path d="m404.624 280.24 37.79 72.824h69.586v-72.824z"/><path d="m70.779 250.24v-27.518h30v27.518h140.221v-27.518h30v27.518h140.221v-27.518h30v27.518h70.779v-72.822h-155.889v29.302h-30v-29.302h-140.222v29.302h-30v-29.302h-155.889v72.822z"/><path d="m512 147.418v-112.041l-63.206 39.335-48.206-30-48.197 30-48.2-30-48.198 30-48.198-30-48.199 30-48.198-30-48.2 30-63.198-39.337v112.043z"/></g></svg>