<svg id="Capa_1" enable-background="new 0 0 511.906 511.906" height="512" viewBox="0 0 511.906 511.906" width="512" xmlns="http://www.w3.org/2000/svg"><g><path d="m279.021 240.981v-110.141c-58.61-29.133-123.505-43.025-189.272-40.317l-56.998 2.351-32.751 131.232 28.778 16.875z"/><path d="m279.021 270.981h-236.464v33.539c7.161-2.266 14.778-3.494 22.679-3.494 24.66 0 46.591 11.909 60.344 30.278 13.753-18.369 35.684-30.278 60.344-30.278 39.034 0 71.225 29.839 74.974 67.904h18.123z"/><path d="m377.898 171.174v54.293h133.988c-.179-18.716-3.628-37.067-10.006-54.293z"/><path d="m347.898 255.467v-114.293h139.178c-7.972-12.653-21.994-28.061-33.371-38.198h-144.683v265.955h27.176c3.749-38.065 35.94-67.904 74.974-67.904s71.225 29.839 74.974 67.904h25.761v-113.464z"/><path d="m65.235 331.026c-25.003 0-45.345 20.342-45.345 45.345s20.342 45.344 45.345 45.344 45.344-20.341 45.344-45.344-20.341-45.345-45.344-45.345z"/><path d="m185.924 331.026c-25.003 0-45.344 20.342-45.344 45.345s20.341 45.344 45.344 45.344 45.345-20.341 45.345-45.344-20.342-45.345-45.345-45.345z"/><path d="m411.171 331.026c-25.003 0-45.345 20.342-45.345 45.345s20.342 45.344 45.345 45.344 45.344-20.341 45.344-45.344-20.341-45.345-45.344-45.345z"/></g></svg>