<svg id="Capa_1" enable-background="new 0 0 512.099 512.099" height="512" viewBox="0 0 512.099 512.099" width="512" xmlns="http://www.w3.org/2000/svg"><g><path d="m170.123 208.083v-44.735h30v44.735h111.854v-44.735h30v44.735h112.122c-1.104-76.903-46.243-143.337-111.289-175.163v65.694h-30v-98.614h-113.522v98.615h-30v-65.695c-65.045 31.826-110.183 98.26-111.287 175.163z"/><path d="m398.179 357.082c-9.004 70.415-69.307 125.017-142.13 125.017s-133.126-54.603-142.13-125.017c0 0-28.333-.087-30.228-.213 9.064 87.098 82.902 155.23 172.358 155.23s163.294-68.133 172.357-155.23c-1.894.126-30.227.213-30.227.213z"/><path d="m33.919 238.083v33.499c0 30.652 24.848 55.5 55.499 55.5h333.262c30.652 0 55.5-24.848 55.5-55.5v-33.499z"/></g></svg>