<?xml version="1.0" encoding="iso-8859-1"?>
<!-- Uploaded to: SVG Repo, www.svgrepo.com, Generator: SVG Repo Mixer Tools -->
<svg fill="#000000" height="800px" width="800px" version="1.1" id="Layer_1" xmlns="http://www.w3.org/2000/svg" xmlns:xlink="http://www.w3.org/1999/xlink" 
	 viewBox="0 0 512 512" xml:space="preserve">
<g>
	<g>
		<path d="M100,158H4c-2.212,0-4,1.788-4,4c0,2.212,1.788,4,4,4h96c2.212,0,4-1.788,4-4C104,159.788,102.212,158,100,158z"/>
	</g>
</g>
<g>
	<g>
		<path d="M272,210h-52c-2.212,0-4,1.788-4,4c0,2.212,1.788,4,4,4h52c2.212,0,4-1.788,4-4C276,211.788,274.212,210,272,210z"/>
	</g>
</g>
<g>
	<g>
		<path d="M448.832,106H220c-2.212,0-4,1.788-4,4s1.788,4,4,4h228.832C480.28,114,504,137.9,504,169.6v73.18
			c0,32.652-24.752,59.22-55.168,59.22H432c-2.212,0-4,1.788-4,4v58.564c0,16.08-11.164,33.436-29.2,33.436h-53.748
			c-17.3,0-33.052-15.612-33.052-32.752V250c0-2.212-1.788-4-4-4c-2.212,0-4,1.788-4,4v115.248C304,386.58,323.568,406,345.052,406
			H398.8c20.512,0,37.2-18.588,37.2-41.436V310h12.832C483.664,310,512,279.848,512,242.78V169.6
			C512,133.344,484.844,106,448.832,106z"/>
	</g>
</g>
<g>
	<g>
		<path d="M235.804,246C222.68,246,212,256.68,212,269.804v112.392C212,395.32,222.68,406,235.804,406h0.392
			C249.32,406,260,395.32,260,382.196V269.804C260,256.68,249.32,246,235.804,246z M252,382.196c0,8.716-7.088,15.804-15.804,15.804
			h-0.392c-8.716,0-15.804-7.088-15.804-15.804V269.804c0-8.716,7.088-15.804,16.196-15.804c8.716,0,15.804,7.088,15.804,15.804
			V382.196z"/>
	</g>
</g>
<g>
	<g>
		<path d="M272,210c-2.212,0-4,1.788-4,4c0,2.212,1.788,4,4,4c17.348,0,32,14.652,32,32c0,2.212,1.788,4,4,4c2.212,0,4-1.788,4-4
			C312,228.316,293.684,210,272,210z"/>
	</g>
</g>
<g>
	<g>
		<path d="M224,210c-2.212,0-4,1.788-4,4v40c0,2.212,1.788,4,4,4c2.212,0,4-1.788,4-4v-40C228,211.788,226.212,210,224,210z"/>
	</g>
</g>
<g>
	<g>
		<path d="M248,210c-2.212,0-4,1.788-4,4v40c0,2.212,1.788,4,4,4c2.212,0,4-1.788,4-4v-40C252,211.788,250.212,210,248,210z"/>
	</g>
</g>
<g>
	<g>
		<path d="M220,210c-14.916,0-28-13.892-28-29.724v-40.064C192,125.268,204.04,114,220,114c2.212,0,4-1.788,4-4s-1.788-4-4-4
			c-20.188,0-36,15.028-36,34.212v40.06C184,200.724,200.484,218,220,218c2.212,0,4-1.788,4-4C224,211.788,222.212,210,220,210z"/>
	</g>
</g>
<g>
	<g>
		<path d="M188,194h-46.208C135.22,194,128,186.796,128,180.236v-39.992c0-6.328,7.16-10.244,13.792-10.244H188c2.212,0,4-1.788,4-4
			s-1.788-4-4-4h-46.208C131.084,122,120,128.824,120,140.244v39.992C120,191.22,130.792,202,141.792,202H188c2.212,0,4-1.788,4-4
			C192,195.788,190.212,194,188,194z"/>
	</g>
</g>
<g>
	<g>
		<path d="M124,182h-13.956c-2.204,0-6.044-3.72-6.044-5.852v-31.812c0-1.032,2.844-2.336,6.044-2.336H124c2.212,0,4-1.788,4-4
			c0-2.212-1.788-4-4-4h-13.956C103.068,134,96,137.552,96,144.336v31.812c0,6.604,7.348,13.852,14.044,13.852H124
			c2.212,0,4-1.788,4-4C128,183.788,126.212,182,124,182z"/>
	</g>
</g>
<g>
	<g>
		<path d="M448.832,134H432c-2.212,0-4,1.788-4,4v138.164c0,1.312,0.644,2.54,1.724,3.288c2.916,2.02,3.736,2.548,5.14,2.548h13.968
			c19.72,0,35.168-17.228,35.168-39.22V169.6C484,148.972,469.212,134,448.832,134z M476,242.78c0,15.348-10.164,31.22-27.168,31.22
			H436V142h12.832C464.828,142,476,153.352,476,169.6V242.78z"/>
	</g>
</g>
<g>
	<g>
		<path d="M404,274h-68c-2.212,0-4,1.788-4,4c0,2.212,1.788,4,4,4h68c2.212,0,4-1.788,4-4C408,275.788,406.212,274,404,274z"/>
	</g>
</g>
<g>
	<g>
		<path d="M388,358h-80c-2.212,0-4,1.788-4,4c0,2.212,1.788,4,4,4h80c2.212,0,4-1.788,4-4C392,359.788,390.212,358,388,358z"/>
	</g>
</g>
<g>
	<g>
		<path d="M432,358h-12c-2.212,0-4,1.788-4,4c0,2.212,1.788,4,4,4h12c2.212,0,4-1.788,4-4C436,359.788,434.212,358,432,358z"/>
	</g>
</g>
<g>
	<g>
		<path d="M404,254h-68c-2.212,0-4,1.788-4,4c0,2.212,1.788,4,4,4h68c2.212,0,4-1.788,4-4C408,255.788,406.212,254,404,254z"/>
	</g>
</g>
<g>
	<g>
		<path d="M404,234h-68c-2.212,0-4,1.788-4,4c0,2.212,1.788,4,4,4h68c2.212,0,4-1.788,4-4C408,235.788,406.212,234,404,234z"/>
	</g>
</g>
<g>
	<g>
		<path d="M404,214h-68c-2.212,0-4,1.788-4,4c0,2.212,1.788,4,4,4h68c2.212,0,4-1.788,4-4C408,215.788,406.212,214,404,214z"/>
	</g>
</g>
<g>
	<g>
		<path d="M404,194h-68c-2.212,0-4,1.788-4,4c0,2.212,1.788,4,4,4h68c2.212,0,4-1.788,4-4C408,195.788,406.212,194,404,194z"/>
	</g>
</g>
<g>
	<g>
		<path d="M404,174h-68c-2.212,0-4,1.788-4,4c0,2.212,1.788,4,4,4h68c2.212,0,4-1.788,4-4C408,175.788,406.212,174,404,174z"/>
	</g>
</g>
</svg>