<?xml version="1.0" encoding="UTF-8"?><svg id="Layer_28" xmlns="http://www.w3.org/2000/svg" viewBox="0 0 64 64"><path d="m30,21c0-1.105-.895-2-2-2h-14c-1.105,0-2,.895-2,2s.895,2,2,2h14c1.105,0,2-.895,2-2Z" style="fill:#5eac24;"/><path d="m12,43c0,1.105.895,2,2,2h14c1.105,0,2-.895,2-2s-.895-2-2-2h-14c-1.105,0-2,.895-2,2Z" style="fill:#5eac24;"/><path d="m28,3h-14c1.313,5.253,1.313,10.747,0,16h14c-1.313-5.253-1.313-10.747,0-16Z" style="fill:#91dc5a;"/><path d="m14,61h14c-1.313-5.253-1.313-10.747,0-16h-14c1.313,5.253,1.313,10.747,0,16Z" style="fill:#91dc5a;"/><path d="m28,41c-1.317-5.928-1.317-12.072,0-18h-14c1.317,5.928,1.317,12.072,0,18h14Z" style="fill:#91dc5a;"/><path d="m52,21c0-1.105-.895-2-2-2h-14c-1.105,0-2,.895-2,2s.895,2,2,2h14c1.105,0,2-.895,2-2Z" style="fill:#5eac24;"/><path d="m34,43c0,1.105.895,2,2,2h14c1.105,0,2-.895,2-2s-.895-2-2-2h-14c-1.105,0-2,.895-2,2Z" style="fill:#5eac24;"/><path d="m50,3h-14c1.313,5.253,1.313,10.747,0,16h14c-1.313-5.253-1.313-10.747,0-16Z" style="fill:#91dc5a;"/><path d="m36,61h14c-1.313-5.253-1.313-10.747,0-16h-14c1.313,5.253,1.313,10.747,0,16Z" style="fill:#91dc5a;"/><path d="m49.566,47c.124-.67.268-1.337.434-2h-14c.166.663.31,1.33.434,2h13.132Z" style="fill:#7ed63e;"/><path d="m27.566,47c.124-.67.268-1.337.434-2h-14c.166.663.31,1.33.434,2h13.132Z" style="fill:#7ed63e;"/><path d="m36,23c1.317,5.928,1.317,12.072,0,18h14c-1.317-5.928-1.317-12.072,0-18h-14Z" style="fill:#91dc5a;"/><path d="m49.613,25c.115-.669.24-1.336.387-2h-14c.148.664.273,1.331.387,2h13.225Z" style="fill:#7ed63e;"/><path d="m27.613,25c.115-.669.24-1.336.387-2h-14c.148.664.273,1.331.387,2h13.225Z" style="fill:#7ed63e;"/><path d="m59.897,15.308l1.103-3.308-3.308,1.103c-3.399,1.133-5.692,4.314-5.692,7.897h0s0,0,0,0c3.583,0,6.764-2.293,7.897-5.692Z" style="fill:#91dc5a;"/><path d="m59.897,37.308l1.103-3.308-3.308,1.103c-3.399,1.133-5.692,4.314-5.692,7.897h0s0,0,0,0c3.583,0,6.764-2.293,7.897-5.692Z" style="fill:#91dc5a;"/><path d="m57.692,50.897l3.308,1.103-1.103-3.308c-1.133-3.399-4.314-5.692-7.897-5.692h0c0,3.583,2.293,6.764,5.692,7.897Z" style="fill:#5eac24;"/><path d="m6.308,13.103l-3.308-1.103,1.103,3.308c1.133,3.399,4.314,5.692,7.897,5.692h0c0-3.583-2.293-6.764-5.692-7.897Z" style="fill:#91dc5a;"/><path d="m4.103,26.692l-1.103,3.308,3.308-1.103c3.399-1.133,5.692-4.314,5.692-7.897h0c-3.583,0-6.764,2.293-7.897,5.692Z" style="fill:#5eac24;"/><path d="m4.103,48.692l-1.103,3.308,3.308-1.103c3.399-1.133,5.692-4.314,5.692-7.897h0c-3.583,0-6.764,2.293-7.897,5.692Z" style="fill:#5eac24;"/><path d="m28.85,40.14c-1.09-5.34-1.09-10.94,0-16.28,1.24-.37,2.15-1.5,2.15-2.86s-.92-2.5-2.17-2.87c-1.11-4.89-1.08-10.02.14-14.89.07-.3.01-.61-.18-.86-.19-.24-.48-.38-.79-.38h-14c-.31,0-.6.14-.79.38-.19.25-.25.56-.18.86,1.22,4.87,1.25,10,.14,14.89-.2.06-.38.13-.56.23-.84-2.87-3.04-5.22-5.99-6.21l-3.3-1.1c-.36-.12-.76-.02-1.03.24-.26.27-.36.67-.24,1.03l1.1,3.3c.8,2.4,2.5,4.3,4.64,5.38-2.14,1.08-3.84,2.98-4.64,5.38l-1.1,3.3c-.12.36-.02.76.24,1.03.19.19.45.29.71.29.11,0,.21-.02.32-.05l3.3-1.1c2.95-.99,5.15-3.34,5.99-6.21.17.09.35.17.54.22,1.09,5.34,1.09,10.94,0,16.28-.93.28-1.67.99-1.98,1.9-3.67.32-6.83,2.79-8.02,6.34l-1.1,3.3c-.12.36-.02.76.24,1.03.19.19.45.29.71.29.11,0,.21-.02.32-.05l3.3-1.1c2.95-.99,5.15-3.34,5.99-6.21.18.1.36.17.56.23,1.11,4.89,1.08,10.02-.14,14.89-.07.3-.01.61.18.86.19.24.48.38.79.38h14c.31,0,.6-.14.79-.38.19-.25.25-.56.18-.86-1.22-4.87-1.25-10-.14-14.89,1.25-.37,2.17-1.51,2.17-2.87s-.91-2.49-2.15-2.86ZM5.99,27.95l-1.41.47.47-1.41c.88-2.65,3.17-4.53,5.87-4.93-.4,2.7-2.28,4.99-4.93,5.87Zm-.94-12.96l-.47-1.41,1.41.47c2.65.88,4.53,3.17,4.93,5.87-2.7-.4-4.99-2.28-5.87-4.93Zm.94,34.96l-1.41.47.47-1.41c.88-2.65,3.17-4.53,5.87-4.93-.4,2.7-2.28,4.99-4.93,5.87ZM15.26,4h11.48c-.96,4.6-.96,9.4,0,14h-11.48c.96-4.6.96-9.4,0-14Zm-2.26,17c0-.55.45-1,1-1h14c.55,0,1,.45,1,1s-.45,1-1,1h-14c-.55,0-1-.45-1-1Zm13.77,19h-11.54c1-5.26,1-10.74,0-16h11.54c-1,5.26-1,10.74,0,16Zm-.03,20h-11.48c.96-4.6.96-9.4,0-14h11.48c-.96,4.6-.96,9.4,0,14Zm1.26-16h-14c-.55,0-1-.45-1-1s.45-1,1-1h14c.55,0,1,.45,1,1s-.45,1-1,1Z" style="fill:#231f20;"/><path d="m60.85,37.62l1.1-3.3c.12-.36.02-.76-.24-1.03-.27-.27-.67-.36-1.03-.24l-3.3,1.1c-2.95.99-5.15,3.34-5.99,6.21-.17-.09-.35-.17-.54-.22-1.09-5.34-1.09-10.94,0-16.28.93-.28,1.67-.99,1.98-1.9,3.67-.32,6.83-2.79,8.02-6.34l1.1-3.3c.12-.36.02-.76-.24-1.03-.27-.27-.67-.36-1.03-.24l-3.3,1.1c-2.95.99-5.15,3.34-5.99,6.21-.18-.1-.36-.17-.56-.23-1.11-4.89-1.08-10.02.14-14.89.07-.3.01-.61-.18-.86-.19-.24-.48-.38-.79-.38h-14c-.31,0-.6.14-.79.38-.19.25-.25.56-.18.86,1.22,4.87,1.25,10,.14,14.89-1.25.37-2.17,1.51-2.17,2.87s.91,2.49,2.15,2.86c1.09,5.34,1.09,10.94,0,16.28-1.24.37-2.15,1.5-2.15,2.86s.92,2.5,2.17,2.87c1.11,4.89,1.08,10.02-.14,14.89-.07.3-.01.61.18.86.19.24.48.38.79.38h14c.31,0,.6-.14.79-.38.19-.25.25-.56.18-.86-1.22-4.87-1.25-10-.14-14.89.2-.06.38-.13.56-.23.84,2.87,3.04,5.22,5.99,6.21l3.3,1.1c.11.03.21.05.32.05.26,0,.52-.1.71-.29.26-.27.36-.67.24-1.03l-1.1-3.3c-.8-2.4-2.5-4.3-4.64-5.38,2.14-1.08,3.84-2.98,4.64-5.38Zm-2.84-23.57l1.41-.47-.47,1.41c-.88,2.65-3.17,4.53-5.87,4.93.4-2.7,2.28-4.99,4.93-5.87Zm-20.75-10.05h11.48c-.96,4.6-.96,9.4,0,14h-11.48c.96-4.6.96-9.4,0-14Zm-2.26,17c0-.55.45-1,1-1h14c.55,0,1,.45,1,1s-.45,1-1,1h-14c-.55,0-1-.45-1-1Zm13.77,19h-11.54c1-5.26,1-10.74,0-16h11.54c-1,5.26-1,10.74,0,16Zm-.03,20h-11.48c.96-4.6.96-9.4,0-14h11.48c-.96,4.6-.96,9.4,0,14Zm1.26-16h-14c-.55,0-1-.45-1-1s.45-1,1-1h14c.55,0,1,.45,1,1s-.45,1-1,1Zm8.95,5.01l.47,1.41-1.41-.47c-2.65-.88-4.53-3.17-4.93-5.87,2.7.4,4.99,2.28,5.87,4.93Zm-5.87-7.09c.4-2.7,2.28-4.99,4.93-5.87l1.41-.47-.47,1.41c-.88,2.65-3.17,4.53-5.87,4.93Z" style="fill:#231f20;"/></svg>