<?xml version="1.0" encoding="UTF-8"?><svg id="Layer_35" xmlns="http://www.w3.org/2000/svg" viewBox="0 0 64 64"><path d="m32,7.686l-1.414,1.414c-2.343,2.343-2.343,6.142,0,8.485l1.414,1.414,1.414-1.414c2.343-2.343,2.343-6.142,0-8.485l-1.414-1.414Z" style="fill:#ffde55;"/><path d="m31.586,17.586c-2.343-2.343-2.343-6.142,0-8.485l.914-.914-.5-.5-1.414,1.414c-2.343,2.343-2.343,6.142,0,8.485l1.414,1.414.5-.5-.914-.914Z" style="fill:#ffd422;"/><path d="m52,7.686l-1.414,1.414c-2.343,2.343-2.343,6.142,0,8.485l1.414,1.414,1.414-1.414c2.343-2.343,2.343-6.142,0-8.485l-1.414-1.414Z" style="fill:#ffde55;"/><path d="m51.586,17.586c-2.343-2.343-2.343-6.142,0-8.485l.914-.914-.5-.5-1.414,1.414c-2.343,2.343-2.343,6.142,0,8.485l1.414,1.414.5-.5-.914-.914Z" style="fill:#ffd422;"/><path d="m12.018,18.642l-.018.018-.018-.018c.007.119.018.237.018.358,0-.121.011-.239.018-.358Z" style="fill:#9bc9ff;"/><path d="m52.018,18.642l-.018.018-.018-.018c.007.119.018.237.018.358,0-.121.011-.239.018-.358Z" style="fill:#9bc9ff;"/><path d="m32.018,18.642l-.018.018-.018-.018c.007.119.018.237.018.358,0-.121.011-.239.018-.358Z" style="fill:#9bc9ff;"/><path d="m46,37h-2v2c0,3.314,2.686,6,6,6h2v-2c0-3.314-2.686-6-6-6Z" style="fill:#ebbf00;"/><path d="m60,37h-2c-3.314,0-6,2.686-6,6v2h2c3.314,0,6-2.686,6-6v-2Z" style="fill:#ffcd00;"/><path d="m46,29h-2v2c0,3.314,2.686,6,6,6h2v-2c0-3.314-2.686-6-6-6Z" style="fill:#ebbf00;"/><path d="m60,29h-2c-3.314,0-6,2.686-6,6v2h2c3.314,0,6-2.686,6-6v-2Z" style="fill:#ffcd00;"/><path d="m46,21h-2v2c0,3.314,2.686,6,6,6h2v-2c0-3.314-2.686-6-6-6Z" style="fill:#ffcd00;"/><path d="m60,21h-2c-3.314,0-6,2.686-6,6v2h2c3.314,0,6-2.686,6-6v-2Z" style="fill:#ffda44;"/><path d="m12,7.686l-1.414,1.414c-2.343,2.343-2.343,6.142,0,8.485l1.414,1.414,1.414-1.414c2.343-2.343,2.343-6.142,0-8.485l-1.414-1.414Z" style="fill:#ffde55;"/><path d="m11.586,17.586c-2.343-2.343-2.343-6.142,0-8.485l.914-.914-.5-.5-1.414,1.414c-2.343,2.343-2.343,6.142,0,8.485l1.414,1.414.5-.5-.914-.914Z" style="fill:#ffd422;"/><path d="m51.982,18.642l-.002-.002.002.002c-.186-3.146-2.789-5.642-5.982-5.642h-2v2c0,3.314,2.686,6,6,6h2v-2c0-.121-.011-.239-.018-.358Z" style="fill:#ffcd00;"/><path d="m52.018,18.642l.002-.002-.002.002c-.007.119-.018.237-.018.358v2h2c3.314,0,6-2.686,6-6v-2h-2c-3.193,0-5.796,2.496-5.982,5.642Z" style="fill:#ffda44;"/><path d="m46,45h-2v2c0,3.314,2.686,6,6,6h2v-2c0-3.314-2.686-6-6-6Z" style="fill:#ebbf00;"/><path d="m60,47v-2h-2c-3.314,0-6,2.686-6,6v2h2c3.314,0,6-2.686,6-6Z" style="fill:#ffcd00;"/><path d="m24,39c0,3.314,2.686,6,6,6h2v-2c0-3.314-2.686-6-6-6h-2v2Z" style="fill:#ebbf00;"/><path d="m34,45c3.314,0,6-2.686,6-6v-2h-2c-3.314,0-6,2.686-6,6v2h2Z" style="fill:#ffcd00;"/><path d="m24,31c0,3.314,2.686,6,6,6h2v-2c0-3.314-2.686-6-6-6h-2v2Z" style="fill:#ebbf00;"/><path d="m34,37c3.314,0,6-2.686,6-6v-2h-2c-3.314,0-6,2.686-6,6v2h2Z" style="fill:#ffcd00;"/><path d="m24,23c0,3.314,2.686,6,6,6h2v-2c0-3.314-2.686-6-6-6h-2v2Z" style="fill:#ffcd00;"/><path d="m34,29c3.314,0,6-2.686,6-6v-2h-2c-3.314,0-6,2.686-6,6v2h2Z" style="fill:#ffda44;"/><path d="m30,21h2v-2c0-.121-.011-.239-.018-.358l-.002-.002.002.002c-.186-3.146-2.789-5.642-5.982-5.642h-2v2c0,3.314,2.686,6,6,6Z" style="fill:#ffcd00;"/><path d="m32,21h2c3.314,0,6-2.686,6-6v-2h-2c-3.193,0-5.796,2.496-5.982,5.642l.002-.002-.002.002c-.007.119-.018.237-.018.358v2Z" style="fill:#ffda44;"/><path d="m26,45h-2v2c0,3.314,2.686,6,6,6h2v-2c0-3.314-2.686-6-6-6Z" style="fill:#ebbf00;"/><path d="m40,47v-2h-2c-3.314,0-6,2.686-6,6v2h2c3.314,0,6-2.686,6-6Z" style="fill:#ffcd00;"/><path d="m4,39c0,3.314,2.686,6,6,6h2v-2c0-3.314-2.686-6-6-6h-2v2Z" style="fill:#ebbf00;"/><path d="m6,39v-2h-2v2c0,3.314,2.686,6,6,6h2c-3.314,0-6-2.686-6-6Z" style="fill:#ddb200;"/><path d="m14,45c3.314,0,6-2.686,6-6v-2h-2c-3.314,0-6,2.686-6,6v2h2Z" style="fill:#ffcd00;"/><path d="m4,31c0,3.314,2.686,6,6,6h2v-2c0-3.314-2.686-6-6-6h-2v2Z" style="fill:#ebbf00;"/><path d="m6,31v-2h-2v2c0,3.314,2.686,6,6,6h2c-3.314,0-6-2.686-6-6Z" style="fill:#ddb200;"/><path d="m14,37c3.314,0,6-2.686,6-6v-2h-2c-3.314,0-6,2.686-6,6v2h2Z" style="fill:#ffcd00;"/><path d="m4,23c0,3.314,2.686,6,6,6h2v-2c0-3.314-2.686-6-6-6h-2v2Z" style="fill:#ffcd00;"/><path d="m6,23v-2h-2v2c0,3.314,2.686,6,6,6h2c-3.314,0-6-2.686-6-6Z" style="fill:#ebbf00;"/><path d="m14,29c3.314,0,6-2.686,6-6v-2h-2c-3.314,0-6,2.686-6,6v2h2Z" style="fill:#ffda44;"/><path d="m10,21h2v-2c0-.121-.011-.239-.018-.358l-.002-.002.002.002c-.186-3.146-2.789-5.642-5.982-5.642h-2v2c0,3.314,2.686,6,6,6Z" style="fill:#ffcd00;"/><path d="m6,15v-2h-2v2c0,3.314,2.686,6,6,6h2c-3.314,0-6-2.686-6-6Z" style="fill:#ebbf00;"/><path d="m12,21h2c3.314,0,6-2.686,6-6v-2h-2c-3.193,0-5.796,2.496-5.982,5.642l.002-.002-.002.002c-.007.119-.018.237-.018.358v2Z" style="fill:#ffda44;"/><path d="m4,47c0,3.314,2.686,6,6,6h2v-2c0-3.314-2.686-6-6-6h-2v2Z" style="fill:#ebbf00;"/><path d="m6,47v-2h-2v2c0,3.314,2.686,6,6,6h2c-3.314,0-6-2.686-6-6Z" style="fill:#ddb200;"/><path d="m26,39v-2h-2v2c0,3.314,2.686,6,6,6h2c-3.314,0-6-2.686-6-6Z" style="fill:#ddb200;"/><path d="m26,31v-2h-2v2c0,3.314,2.686,6,6,6h2c-3.314,0-6-2.686-6-6Z" style="fill:#ddb200;"/><path d="m26,23v-2h-2v2c0,3.314,2.686,6,6,6h2c-3.314,0-6-2.686-6-6Z" style="fill:#ebbf00;"/><path d="m26,15v-2h-2v2c0,3.314,2.686,6,6,6h2c-3.314,0-6-2.686-6-6Z" style="fill:#ebbf00;"/><path d="m26,47v-2h-2v2c0,3.314,2.686,6,6,6h2c-3.314,0-6-2.686-6-6Z" style="fill:#ddb200;"/><path d="m46,39v-2h-2v2c0,3.314,2.686,6,6,6h2c-3.314,0-6-2.686-6-6Z" style="fill:#ddb200;"/><path d="m46,31v-2h-2v2c0,3.314,2.686,6,6,6h2c-3.314,0-6-2.686-6-6Z" style="fill:#ddb200;"/><path d="m46,23v-2h-2v2c0,3.314,2.686,6,6,6h2c-3.314,0-6-2.686-6-6Z" style="fill:#ebbf00;"/><path d="m46,15v-2h-2v2c0,3.314,2.686,6,6,6h2c-3.314,0-6-2.686-6-6Z" style="fill:#ebbf00;"/><path d="m46,47v-2h-2v2c0,3.314,2.686,6,6,6h2c-3.314,0-6-2.686-6-6Z" style="fill:#ddb200;"/><path d="m14,53c3.314,0,6-2.686,6-6v-2h-2c-3.314,0-6,2.686-6,6v2h2Z" style="fill:#ffcd00;"/><path d="m60,8c-.55,0-1,.45-1,1v3h-1v-6c0-.55-.45-1-1-1s-1,.45-1,1v5.46c-.18-.83-.53-1.61-1-2.32V3c0-.55-.45-1-1-1s-1,.45-1,1v3.93l-.29-.29c-.38-.38-1.04-.38-1.42,0l-.29.29v-3.93c0-.55-.45-1-1-1s-1,.45-1,1v6.14c-.47.71-.82,1.49-1,2.32v-5.46c0-.55-.45-1-1-1s-1,.45-1,1v6h-1v-3c0-.55-.45-1-1-1s-1,.45-1,1v6c0,1.96.81,3.73,2.11,5h-1.11c-.55,0-1,.45-1,1v2c0,1.96.81,3.73,2.11,5h-1.11c-.55,0-1,.45-1,1v2c0,1.96.81,3.73,2.11,5h-1.11c-.55,0-1,.45-1,1v2c0,1.96.81,3.73,2.11,5h-1.11c-.55,0-1,.45-1,1v2c0,3.86,3.14,7,7,7h1v7c0,.55.45,1,1,1s1-.45,1-1v-7h1c3.86,0,7-3.14,7-7v-2c0-.55-.45-1-1-1h-1.11c1.3-1.27,2.11-3.04,2.11-5v-2c0-.55-.45-1-1-1h-1.11c1.3-1.27,2.11-3.04,2.11-5v-2c0-.55-.45-1-1-1h-1.11c1.3-1.27,2.11-3.04,2.11-5v-2c0-.55-.45-1-1-1h-1.11c1.3-1.27,2.11-3.04,2.11-5v-6c0-.55-.45-1-1-1Zm-8.7,1.46l.7-.7.71.71c.98.98,1.5,2.3,1.45,3.68-.88.58-1.62,1.36-2.16,2.26-.54-.9-1.28-1.68-2.16-2.26-.05-1.38.47-2.7,1.46-3.69Zm-.41,20.54h2.22c-.43.42-.8.9-1.11,1.41-.31-.51-.68-.99-1.11-1.41Zm2.22,8c-.43.42-.8.9-1.11,1.41-.31-.51-.68-.99-1.11-1.41h2.22Zm-2.22-16h2.22c-.43.42-.8.9-1.11,1.41-.31-.51-.68-.99-1.11-1.41Zm-5.89-7v-1h1c2.76,0,5,2.24,5,5v1h-1c-2.76,0-5-2.24-5-5Zm0,8v-1h1c2.76,0,5,2.24,5,5v1h-1c-2.76,0-5-2.24-5-5Zm0,8v-1h1c2.76,0,5,2.24,5,5v1h-1c-2.76,0-5-2.24-5-5Zm0,8v-1h1c2.76,0,5,2.24,5,5v1h-1c-2.76,0-5-2.24-5-5Zm6,13h-1c-2.76,0-5-2.24-5-5v-1h1c2.76,0,5,2.24,5,5v1Zm1-4.59c-.31-.51-.68-.99-1.11-1.41h2.22c-.43.42-.8.9-1.11,1.41Zm7-1.41v1c0,2.76-2.24,5-5,5h-1v-1c0-2.76,2.24-5,5-5h1Zm0-8v1c0,2.76-2.24,5-5,5h-1v-1c0-2.76,2.24-5,5-5h1Zm0-8v1c0,2.76-2.24,5-5,5h-1v-1c0-2.76,2.24-5,5-5h1Zm0-8v1c0,2.76-2.24,5-5,5h-1v-1c0-2.76,2.24-5,5-5h1Zm0-7c0,2.76-2.24,5-5,5h-1v-1c0-2.76,2.24-5,5-5h1v1Z" style="fill:#231f20;"/><path d="m40,8c-.55,0-1,.45-1,1v3h-1v-6c0-.55-.45-1-1-1s-1,.45-1,1v5.46c-.18-.83-.53-1.61-1-2.32V3c0-.55-.45-1-1-1s-1,.45-1,1v3.93l-.29-.29c-.38-.38-1.04-.38-1.42,0l-.29.29v-3.93c0-.55-.45-1-1-1s-1,.45-1,1v6.14c-.47.71-.82,1.49-1,2.32v-5.46c0-.55-.45-1-1-1s-1,.45-1,1v6h-1v-3c0-.55-.45-1-1-1s-1,.45-1,1v6c0,1.96.81,3.73,2.11,5h-1.11c-.55,0-1,.45-1,1v2c0,1.96.81,3.73,2.11,5h-1.11c-.55,0-1,.45-1,1v2c0,1.96.81,3.73,2.11,5h-1.11c-.55,0-1,.45-1,1v2c0,1.96.81,3.73,2.11,5h-1.11c-.55,0-1,.45-1,1v2c0,3.86,3.14,7,7,7h1v7c0,.55.45,1,1,1s1-.45,1-1v-7h1c3.86,0,7-3.14,7-7v-2c0-.55-.45-1-1-1h-1.11c1.3-1.27,2.11-3.04,2.11-5v-2c0-.55-.45-1-1-1h-1.11c1.3-1.27,2.11-3.04,2.11-5v-2c0-.55-.45-1-1-1h-1.11c1.3-1.27,2.11-3.04,2.11-5v-2c0-.55-.45-1-1-1h-1.11c1.3-1.27,2.11-3.04,2.11-5v-6c0-.55-.45-1-1-1Zm-8.7,1.46l.7-.7.71.71c.98.98,1.5,2.3,1.45,3.68-.88.58-1.62,1.36-2.16,2.26-.54-.9-1.28-1.68-2.16-2.26-.05-1.38.47-2.7,1.46-3.69Zm-.41,20.54h2.22c-.43.42-.8.9-1.11,1.41-.31-.51-.68-.99-1.11-1.41Zm2.22,8c-.43.42-.8.9-1.11,1.41-.31-.51-.68-.99-1.11-1.41h2.22Zm-2.22-16h2.22c-.43.42-.8.9-1.11,1.41-.31-.51-.68-.99-1.11-1.41Zm-5.89-7v-1h1c2.76,0,5,2.24,5,5v1h-1c-2.76,0-5-2.24-5-5Zm0,8v-1h1c2.76,0,5,2.24,5,5v1h-1c-2.76,0-5-2.24-5-5Zm0,8v-1h1c2.76,0,5,2.24,5,5v1h-1c-2.76,0-5-2.24-5-5Zm0,8v-1h1c2.76,0,5,2.24,5,5v1h-1c-2.76,0-5-2.24-5-5Zm6,13h-1c-2.76,0-5-2.24-5-5v-1h1c2.76,0,5,2.24,5,5v1Zm1-4.59c-.31-.51-.68-.99-1.11-1.41h2.22c-.43.42-.8.9-1.11,1.41Zm7-1.41v1c0,2.76-2.24,5-5,5h-1v-1c0-2.76,2.24-5,5-5h1Zm0-8v1c0,2.76-2.24,5-5,5h-1v-1c0-2.76,2.24-5,5-5h1Zm0-8v1c0,2.76-2.24,5-5,5h-1v-1c0-2.76,2.24-5,5-5h1Zm0-8v1c0,2.76-2.24,5-5,5h-1v-1c0-2.76,2.24-5,5-5h1Zm0-7c0,2.76-2.24,5-5,5h-1v-1c0-2.76,2.24-5,5-5h1v1Z" style="fill:#231f20;"/><path d="m20,8c-.55,0-1,.45-1,1v3h-1v-6c0-.55-.45-1-1-1s-1,.45-1,1v5.46c-.18-.83-.53-1.61-1-2.32V3c0-.55-.45-1-1-1s-1,.45-1,1v3.93l-.29-.29c-.38-.38-1.04-.38-1.42,0l-.29.29v-3.93c0-.55-.45-1-1-1s-1,.45-1,1v6.14c-.47.71-.82,1.49-1,2.32v-5.46c0-.55-.45-1-1-1s-1,.45-1,1v6h-1v-3c0-.55-.45-1-1-1s-1,.45-1,1v6c0,1.96.81,3.73,2.11,5h-1.11c-.55,0-1,.45-1,1v2c0,1.96.81,3.73,2.11,5h-1.11c-.55,0-1,.45-1,1v2c0,1.96.81,3.73,2.11,5h-1.11c-.55,0-1,.45-1,1v2c0,1.96.81,3.73,2.11,5h-1.11c-.55,0-1,.45-1,1v2c0,3.86,3.14,7,7,7h1v7c0,.55.45,1,1,1s1-.45,1-1v-7h1c3.86,0,7-3.14,7-7v-2c0-.55-.45-1-1-1h-1.11c1.3-1.27,2.11-3.04,2.11-5v-2c0-.55-.45-1-1-1h-1.11c1.3-1.27,2.11-3.04,2.11-5v-2c0-.55-.45-1-1-1h-1.11c1.3-1.27,2.11-3.04,2.11-5v-2c0-.55-.45-1-1-1h-1.11c1.3-1.27,2.11-3.04,2.11-5v-6c0-.55-.45-1-1-1Zm-8.7,1.46l.7-.7.71.71c.98.98,1.5,2.3,1.45,3.68-.88.58-1.62,1.36-2.16,2.26-.54-.9-1.28-1.68-2.16-2.26-.05-1.38.47-2.7,1.46-3.69Zm-.41,20.54h2.22c-.43.42-.8.9-1.11,1.41-.31-.51-.68-.99-1.11-1.41Zm2.22,8c-.43.42-.8.9-1.11,1.41-.31-.51-.68-.99-1.11-1.41h2.22Zm-2.22-16h2.22c-.43.42-.8.9-1.11,1.41-.31-.51-.68-.99-1.11-1.41Zm-5.89-7v-1h1c2.76,0,5,2.24,5,5v1h-1c-2.76,0-5-2.24-5-5Zm0,8v-1h1c2.76,0,5,2.24,5,5v1h-1c-2.76,0-5-2.24-5-5Zm0,8v-1h1c2.76,0,5,2.24,5,5v1h-1c-2.76,0-5-2.24-5-5Zm0,8v-1h1c2.76,0,5,2.24,5,5v1h-1c-2.76,0-5-2.24-5-5Zm6,13h-1c-2.76,0-5-2.24-5-5v-1h1c2.76,0,5,2.24,5,5v1Zm1-4.59c-.31-.51-.68-.99-1.11-1.41h2.22c-.43.42-.8.9-1.11,1.41Zm7-1.41v1c0,2.76-2.24,5-5,5h-1v-1c0-2.76,2.24-5,5-5h1Zm0-8v1c0,2.76-2.24,5-5,5h-1v-1c0-2.76,2.24-5,5-5h1Zm0-8v1c0,2.76-2.24,5-5,5h-1v-1c0-2.76,2.24-5,5-5h1Zm0-8v1c0,2.76-2.24,5-5,5h-1v-1c0-2.76,2.24-5,5-5h1Zm0-7c0,2.76-2.24,5-5,5h-1v-1c0-2.76,2.24-5,5-5h1v1Z" style="fill:#231f20;"/></svg>