<?xml version="1.0" encoding="UTF-8"?><svg id="Layer_31" xmlns="http://www.w3.org/2000/svg" viewBox="0 0 64 64"><polygon points="36 26 39 61 25 61 28 26 36 26" style="fill:#c49a6c;"/><polygon points="28 26 25 61 27 61 30 26 28 26" style="fill:#a97c50;"/><path d="m42.53,15.5l.59-4.96,4.6,1.96,2.28-1.5v-3l7.25-1c-2.76-4.78-10.43-5.53-17.13-1.66-5.99,3.46-9.17,9.45-7.79,14.09.6-1.43,2.02-2.43,3.67-2.43.86,0,1.65.27,2.31.74l.69-2.74,3.53.5Z" style="fill:#5eac24;"/><path d="m42.12,5.34c2.511-1.45,5.158-2.252,7.632-2.435-3.005-.198-6.427.584-9.632,2.435-5.99,3.46-9.17,9.45-7.79,14.09.338-.805.941-1.465,1.693-1.895-.182-4.279,2.896-9.19,8.097-12.195Z" style="fill:#4e901e;"/><path d="m23.88,5.34c-6.7-3.87-14.37-3.12-17.13,1.66l7.25,1v3l2.28,1.5,4.6-1.96.59,4.96,3.53-.5.69,2.74c.66-.47,1.45-.74,2.31-.74,1.65,0,3.07,1,3.67,2.43,1.38-4.64-1.8-10.63-7.79-14.09Z" style="fill:#5eac24;"/><polygon points="22.88 10.54 20.977 11.351 21.47 15.5 23.437 15.221 22.88 10.54" style="fill:#4e901e;"/><path d="m16,11v-3l-7.25-1c1.44-2.494,4.22-3.879,7.498-4.095-4.127-.306-7.772,1.107-9.498,4.095l7.25,1v3l2.28,1.5,1.214-.517-1.494-.983Z" style="fill:#4e901e;"/><path d="m27,15l-1.931.273.621,2.466c.533-.379,1.153-.62,1.823-.702l-.513-2.038Z" style="fill:#4e901e;"/><path d="m53.124,24.34c-6.694-3.865-14.364-3.12-17.124,1.66l3.464,2,2.732-.732.732,2.732,2.598,1.5,4.598-1.964.598,4.964,3.464,2,1.866-1.232,4.196,4.732c2.76-4.781-.43-11.795-7.124-15.66Z" style="fill:#5eac24;"/><path d="m53.124,24.34c-3.203-1.849-6.624-2.632-9.629-2.433,2.474.184,5.12.984,7.629,2.433,6.013,3.472,9.183,9.48,7.769,14.132l1.355,1.528c2.76-4.781-.43-11.795-7.124-15.66Z" style="fill:#4e901e;"/><path d="m10.876,24.34c-6.694,3.865-9.884,10.88-7.124,15.66l4.196-4.732,1.866,1.232,3.464-2,.598-4.964,4.598,1.964,2.598-1.5.732-2.732,2.732.732,3.464-2c-2.76-4.781-10.43-5.525-17.124-1.66Z" style="fill:#91dc5a;"/><path d="m12.876,24.34c2.509-1.449,5.156-2.25,7.629-2.433-3.005-.198-6.426.584-9.629,2.433-6.694,3.865-9.884,10.88-7.124,15.66l1.355-1.528c-1.414-4.652,1.756-10.66,7.769-14.132Z" style="fill:#7ed63e;"/><circle cx="36" cy="21" r="4" style="fill:#8b5e3c;"/><circle cx="28" cy="21" r="4" style="fill:#8b5e3c;"/><circle cx="32" cy="26" r="4" style="fill:#754c29;"/><path d="m61.14,31.41c-1.43-3.14-4.1-5.96-7.52-7.94-3.41-1.97-7.19-2.87-10.63-2.54-.7.07-1.37.2-2.01.37.01-.1.02-.2.02-.3,0-1.38-.58-2.69-1.57-3.62l.32-1.26,2.64.37c.27.04.54-.03.75-.2.21-.16.35-.4.38-.67l.44-3.64,3.37,1.44c.31.13.66.1.94-.08l2.28-1.5c.28-.19.45-.5.45-.84v-2.13l6.39-.88c.33-.04.61-.25.76-.55.14-.3.13-.65-.03-.94-1.51-2.6-4.3-4.22-7.86-4.57-3.44-.33-7.22.57-10.64,2.54-3.6,2.08-6.27,5.06-7.62,8.19-1.35-3.13-4.02-6.11-7.62-8.19-3.42-1.97-7.2-2.87-10.64-2.54-3.56.35-6.35,1.97-7.86,4.57-.16.29-.17.64-.03.94.15.3.43.51.76.55l6.39.88v2.13c0,.34.17.65.45.84l2.28,1.5c.28.18.63.21.94.08l3.37-1.44.44,3.64c.03.27.17.51.38.67.21.17.48.24.75.2l2.64-.37.32,1.26c-.99.93-1.57,2.24-1.57,3.62,0,.1.01.2.02.3-.64-.17-1.31-.3-2.01-.37-3.45-.33-7.22.57-10.63,2.54-3.42,1.98-6.09,4.8-7.52,7.94-1.49,3.26-1.48,6.49.03,9.09.16.28.44.46.76.5h.1c.29,0,.56-.12.75-.34l3.62-4.08,1.14.75c.32.21.73.23,1.05.04l3.47-2c.27-.16.45-.44.49-.75l.44-3.64,3.37,1.44c.29.12.62.1.89-.05l2.6-1.5c.23-.14.4-.35.47-.61l.47-1.77,1.77.48c.25.07.53.03.76-.1l1.8-1.05-2.84,33.09c-.04.55.36,1.04.91,1.09h.09c.51,0,.95-.39,1-.91l.27-3.19c1.75.71,3.69,1.1,5.73,1.1.55,0,1-.45,1-1s-.45-1-1-1c-2.01,0-3.91-.43-5.55-1.22l.65-7.57c.88.3,1.8.52,2.77.65.04,0,.09.01.13.01.49,0,.92-.37.99-.87.07-.55-.31-1.05-.86-1.12-1.01-.14-1.96-.39-2.85-.73l.15-1.83c1.44.45,3,.68,4.57.68s3.13-.23,4.57-.68l.15,1.82c-1.16.45-2.46.74-3.79.83-.55.04-.96.51-.93,1.06.04.53.48.94,1,.94h.07c1.32-.09,2.62-.35,3.83-.76l.32,3.72c-1.57.69-3.35,1.07-5.22,1.07-.95,0-1.89-.09-2.8-.28-.54-.11-1.07.24-1.18.78-.11.54.24,1.07.78,1.18,1.03.21,2.11.32,3.2.32,1.9,0,3.74-.34,5.4-.97l.15,1.77c-.85.4-1.77.71-2.75.92-.54.11-.89.64-.78,1.18.1.47.51.8.98.8.07,0,.13-.01.2-.02.89-.19,1.73-.45,2.53-.78l.27,3.19c.05.52.49.91,1,.91h.09c.55-.05.95-.54.91-1.09l-.72-8.41c-.01-.01-.01-.02-.01-.03l-2.11-24.65,1.8,1.05c.23.13.51.17.76.1l1.77-.48.47,1.77c.07.26.24.47.47.61l2.6,1.5c.27.15.6.17.89.05l3.37-1.44.44,3.64c.04.31.22.59.49.75l3.47,2c.32.18.73.17,1.05-.04l1.14-.75,3.62,4.08c.19.22.46.34.75.34h.1c.32-.04.6-.22.76-.5,1.51-2.6,1.52-5.83.03-9.09ZM40.62,6.21c3.06-1.77,6.41-2.58,9.45-2.29,2.24.22,4.09,1.03,5.36,2.32l-5.57.77c-.49.07-.86.49-.86.99v2.46l-1.38.91-4.11-1.75c-.29-.12-.62-.1-.89.05-.27.16-.46.44-.49.75l-.47,3.95-2.52-.36c-.5-.08-.99.25-1.11.75l-.39,1.53c-.52-.19-1.07-.29-1.64-.29-1.1,0-2.13.37-2.97.99.09-3.82,3.03-8.15,7.59-10.78Zm-5.62,19.79c0,1.65-1.35,3-3,3s-3-1.35-3-3,1.35-3,3-3,3,1.35,3,3Zm-12.66-11.63l-.47-3.95c-.03-.31-.22-.59-.49-.75-.27-.15-.6-.17-.89-.05l-4.11,1.75-1.38-.91v-2.46c0-.5-.37-.92-.86-.99l-5.57-.77c1.27-1.29,3.12-2.1,5.36-2.32,3.04-.29,6.39.52,9.45,2.29,4.56,2.63,7.5,6.96,7.59,10.78-.84-.62-1.87-.99-2.97-.99-.57,0-1.12.1-1.64.29l-.39-1.53c-.12-.5-.6-.82-1.11-.75l-2.52.36Zm2.06,12.56l-2.34-.63c-.54-.14-1.08.18-1.22.71l-.63,2.33-1.8,1.04-4.14-1.76c-.29-.13-.62-.11-.89.05-.28.16-.46.43-.5.75l-.54,4.46-2.49,1.45-1.35-.9c-.42-.27-.97-.2-1.3.17l-3.16,3.57c-.53-1.77-.32-3.83.64-5.93,1.26-2.77,3.64-5.27,6.7-7.03,2.64-1.53,5.51-2.35,8.2-2.35.42,0,.83.02,1.24.06,2.48.24,4.49,1.21,5.74,2.75l-2.16,1.26Zm.85-4.79c-.15-.36-.25-.75-.25-1.14,0-.97.47-1.88,1.27-2.45.51-.36,1.11-.55,1.73-.55,1.21,0,2.28.71,2.75,1.83.17.37.25.77.25,1.17,0,.03-.01.07-.01.1-1.52.32-2.77,1.33-3.45,2.68-.65-.66-1.43-1.2-2.29-1.64Zm2.36,20.12l.33-3.79c1.29.35,2.65.53,4.06.53.55,0,1-.45,1-1s-.45-1-1-1c-1.36,0-2.66-.2-3.89-.57l.58-6.72c.88.79,2.03,1.29,3.31,1.29s2.43-.5,3.31-1.29l.24,2.81c-1.45.39-2.98.55-4.48.45-.55-.05-1.03.38-1.07.93-.03.55.38,1.03.93,1.06.35.03.71.04,1.07.04,1.27,0,2.52-.15,3.73-.44l.16,1.87c-.36.11-.72.21-1.09.29-.54.11-.89.64-.78,1.18.1.47.51.8.98.8.07,0,.13-.01.2-.02.29-.06.58-.14.86-.22l.33,3.8c-2.73.94-6.05.94-8.78,0Zm8.85-18.48c-.68-1.36-1.94-2.37-3.47-2.68,0-.03.01-.07.01-.1,0-.4.08-.8.25-1.18.47-1.11,1.54-1.82,2.75-1.82.62,0,1.22.19,1.73.56.8.56,1.27,1.47,1.27,2.44,0,.39-.1.78-.25,1.14-.86.44-1.64.98-2.29,1.64Zm23.5,14.39l-3.16-3.57c-.2-.22-.47-.33-.75-.33-.19,0-.38.05-.55.16l-1.35.9-2.49-1.45-.54-4.46c-.04-.32-.22-.59-.5-.75-.27-.16-.6-.18-.89-.05l-4.14,1.76-1.8-1.04-.63-2.33c-.14-.53-.69-.85-1.22-.71l-2.34.63-2.16-1.26c1.25-1.54,3.26-2.51,5.74-2.75,3.04-.29,6.39.52,9.44,2.29,3.06,1.76,5.44,4.26,6.7,7.03.96,2.1,1.17,4.16.64,5.93Z" style="fill:#231f20;"/></svg>