<?xml version="1.0" encoding="UTF-8"?><svg id="Layer_41" xmlns="http://www.w3.org/2000/svg" viewBox="0 0 64 64"><path d="m32.592,17.474l-.592.526-.592-.526c-4.475-3.978-4.475-10.97,0-14.948l.592-.526.592.526c4.475,3.978,4.475,10.97,0,14.948Z" style="fill:#91dc5a;"/><path d="m44,8h-2c-5.523,0-10,4.477-10,10h2c5.523,0,10-4.477,10-10Z" style="fill:#5eac24;"/><path d="m22,8h-2c0,5.523,4.477,10,10,10h2c0-5.523-4.477-10-10-10Z" style="fill:#5eac24;"/><path d="m49.912,41.255c-.603-6.266-4.423-11.579-9.785-14.301-2.443-1.24-5.199-1.954-8.127-1.954-1.626,0-3.194.235-4.692.64-6.816,1.839-12.016,7.567-13.084,14.666-.133.881-.223,1.776-.223,2.694,0,7.745,4.901,14.328,11.763,16.867,1.256.465,2.574.796,3.944.971.753.096,1.514.162,2.293.162,9.941,0,18-8.059,18-18,0-.589-.033-1.17-.088-1.745Z" style="fill:#57a4ff;"/><path d="m49.912,41.255c-.603-6.266-4.423-11.579-9.785-14.301-1.406-.714-2.919-1.246-4.505-1.576.126.615.229,1.239.29,1.876.055.575.088,1.156.088,1.745,0,9.941-8.059,18-18,18-.779,0-1.54-.066-2.293-.162-.45-.057-.892-.138-1.33-.228,1.254,6.132,5.622,11.124,11.386,13.257,1.256.465,2.574.796,3.944.971.753.096,1.514.162,2.293.162,9.941,0,18-8.059,18-18,0-.589-.033-1.17-.088-1.745Z" style="fill:#2488ff;"/><path d="m40,32v3l-3,1v4l2,4,4,2-1,8,3-3,2-8,2.912-1.745c-.603-6.266-4.423-11.579-9.785-14.301l-2.127,3.046,2,2Z" style="fill:#5eac24;"/><path d="m29.03,49.98l2.97-3.98-4-2-6-1-2-4,.99-2.99,3.01.99v-3l6-1v-4l-2.692-3.36c-6.816,1.839-12.016,7.567-13.084,14.666l2.777.694,3,5v4l4,4,1.763,5.867c1.256.465,2.574.796,3.944.971l-1.707-6.838,1.03-4.02Z" style="fill:#7ed63e;"/><path d="m29.03,49.98l2.97-3.98-4-2-.046-.008c-2.328,1.549-5.035,2.567-7.954,2.89v3.117l4,4,1.763,5.867c1.256.465,2.574.796,3.944.971l-1.707-6.838,1.03-4.02Z" style="fill:#5eac24;"/><path d="m33,24.05v-5.05h1c6.07,0,11-4.93,11-11,0-.55-.45-1-1-1h-2c-1.91,0-3.71.49-5.28,1.35-.35-2.31-1.4-4.45-3.08-6.13l-.93-.93c-.39-.39-1.03-.39-1.42,0l-.93.93c-1.68,1.68-2.73,3.82-3.08,6.13-1.57-.86-3.37-1.35-5.28-1.35h-2c-.55,0-1,.45-1,1,0,6.07,4.93,11,11,11h1v5.05c-10.01.53-18,8.81-18,18.95,0,10.48,8.52,19,19,19s19-8.52,19-19c0-10.14-7.99-18.42-18-18.95Zm7.43,4.21c4.49,2.58,7.69,7.14,8.4,12.48l-2.34,1.4c-.23.14-.4.36-.46.62l-1.93,7.73-.75.74.64-5.11c.05-.42-.16-.82-.54-1.01l-3.7-1.86-1.75-3.49v-3.04l2.32-.77c.4-.14.68-.52.68-.95v-3c0-.27-.11-.52-.29-.71l-1.41-1.4,1.13-1.63Zm1.57-19.26h.94c-.49,4.49-4.32,8-8.94,8h-.94c.49-4.49,4.32-8,8.94-8Zm-12,8c-4.62,0-8.45-3.51-8.94-8h.94c4.62,0,8.45,3.51,8.94,8h-.94Zm-.84-7.33c.09-2.29,1-4.42,2.62-6.03l.22-.23.22.23c1.62,1.61,2.53,3.74,2.62,6.02-1.2,1.04-2.17,2.33-2.84,3.78-.67-1.45-1.64-2.74-2.84-3.77Zm-14.16,33.33c0-.49.03-.97.07-1.45l1.29.32,2.64,4.41v3.72c0,.27.11.52.29.71l3.82,3.82,1.07,3.55c-5.45-2.84-9.18-8.53-9.18-15.08Zm11.58,16.1l-1.62-5.39c-.05-.16-.14-.3-.25-.42l-3.71-3.7v-3.59c0-.18-.05-.36-.14-.51l-3-5c-.14-.23-.36-.4-.62-.46l-1.89-.47c1.25-6.07,5.75-10.96,11.58-12.79l2.07,2.58v2.8l-5.16.86c-.49.08-.84.5-.84.99v1.62l-1.7-.56c-.52-.17-1.09.11-1.26.64l-.99,2.99c-.08.25-.06.52.06.76l2,4c.14.28.41.48.73.54l5.85.97,2.79,1.4-2.25,3.02c-.08.11-.14.23-.17.35l-1.03,4.02c-.04.16-.04.33,0,.49l1.34,5.36c-.61-.13-1.21-.31-1.79-.5Zm5.42.9c-.5,0-1-.03-1.49-.08l-1.48-5.92.92-3.58,2.85-3.82c.18-.24.24-.54.17-.83-.07-.29-.26-.53-.52-.66l-4-2c-.09-.05-.19-.08-.29-.1l-5.49-.91-1.59-3.18.55-1.65,2.06.68c.3.1.64.05.9-.14.26-.19.41-.49.41-.81v-2.15l5.16-.86c.49-.08.84-.5.84-.99v-4c0-.23-.08-.45-.22-.63l-1.69-2.1c.95-.17,1.92-.27,2.91-.27,2.35,0,4.59.48,6.63,1.35l-1.45,2.08c-.28.39-.23.93.11,1.28l1.71,1.7v1.87l-2.32.77c-.4.14-.68.52-.68.95v4c0,.16.04.31.11.45l2,4c.09.19.25.35.44.44l3.37,1.69-.91,7.3c-.05.42.17.83.55,1.02.14.07.29.1.44.1.26,0,.52-.1.71-.29l3-3c.12-.13.22-.29.26-.47l1.9-7.6,1.13-.67v.03c0,9.37-7.63,17-17,17Z" style="fill:#231f20;"/></svg>