<?xml version="1.0" encoding="iso-8859-1"?>
<!-- Uploaded to: SVG Repo, www.svgrepo.com, Generator: SVG Repo Mixer Tools -->
<svg height="800px" width="800px" version="1.1" id="Layer_1" xmlns="http://www.w3.org/2000/svg" xmlns:xlink="http://www.w3.org/1999/xlink" 
	 viewBox="0 0 511.999 511.999" xml:space="preserve">
<circle style="fill:#59D8FF;" cx="390.533" cy="147.169" r="116.667"/>
<path style="fill:#00C3F0;" d="M462.332,227.933c-15.942,0-31.047-3.35-44.872-9.153v-41.005
	c26.277-10.677,44.872-36.445,44.872-66.509c0-23.037-8.08-46.765-18.495-67.802c-15.988-8.235-34.077-12.968-53.3-12.968
	c-4.4,0-8.721,0.313-12.99,0.794c0.01-0.011,0.019-0.024,0.029-0.034c-0.112,0.012-0.22,0.04-0.332,0.053
	c-1.399,0.162-2.755,0.444-4.137,0.655c-2.922,0.439-5.817,0.949-8.664,1.601c-1.336,0.31-2.651,0.66-3.969,1.014
	c-3.105,0.827-6.152,1.778-9.151,2.849c-0.854,0.307-1.716,0.587-2.561,0.913c-43.775,16.805-74.891,59.128-74.891,108.82
	c0,64.433,52.233,116.666,116.666,116.666c33.425,0,63.485-14.134,84.755-36.658C471.032,227.644,466.717,227.933,462.332,227.933z"
	/>
<path style="fill:#F0C087;" d="M478.756,335.599c-6.012-16.458-25.008-22.646-39.247-14.084l-88.179,52.909l0,0
	c-9.351,4.007-19.418,6.073-29.593,6.073h-49.581c-7.482,0-12.369-7.85-9.065-14.564c1.16-2.357,3.192-4.17,5.665-5.054
	l48.093-17.186c13.823-4.607,22.761-19.085,18.889-33.131c-4.135-14.996-19.913-23.301-34.482-18.424l-50.569,16.853l-114.345,7.625
	c-17.351,1.157-33.693,8.573-45.989,20.869L13.4,414.433C3.265,424.57,1.617,441.155,10.965,452.02
	c4.754,5.526,41.858,40.438,59.418,57.468c3.369,3.267,8.642,3.344,12.155,0.231l50.717-44.949
	c9.677-8.065,21.875-12.48,34.472-12.48h118.34c13.37,0,26.599-2.716,38.887-7.982l39.721-17.023
	c7.222-3.693,14.42-7.372,21.642-11.065l80.034-48.02C477.51,361.506,483.221,347.824,478.756,335.599z"/>
<g>
	<path style="fill:#E6AF78;" d="M89.764,447.937l-40.909,40.908c8.052,7.688,15.825,15.113,21.531,20.646
		c3.368,3.267,8.642,3.343,12.154,0.231l50.717-44.951c9.677-8.064,21.875-12.48,34.472-12.48h118.34
		c13.37,0,26.6-2.716,38.888-7.983l39.72-17.023c7.223-3.693,14.421-7.374,21.644-11.067l80.03-48.018
		c11.16-6.696,16.872-20.378,12.407-32.603c-0.568-1.554-1.353-2.925-2.137-4.292l-132.35,75.63
		c-10.848,6.199-23.126,9.459-35.621,9.459H165.914C137.352,416.394,109.959,427.74,89.764,447.937z"/>
	<path style="fill:#E6AF78;" d="M263.091,365.933c1.16-2.357,3.192-4.17,5.665-5.054l48.093-17.186
		c14.365-4.789,23.456-20.237,18.373-34.783c-0.062-0.029-0.096-0.046-0.159-0.075l-104.855,40.776
		c-6.14,2.388-10.185,8.3-10.185,14.889v0.021c0,8.823,7.151,15.974,15.974,15.974h36.158
		C264.673,380.496,259.787,372.646,263.091,365.933z"/>
</g>
<path style="fill:#E4EAF8;" d="M493.972,201.009h-45.49c2.652-13.769,4.228-28.88,4.677-44.872h53.591
	c0.227-2.972,0.453-5.944,0.453-8.974c0-3.03-0.227-6.003-0.453-8.974h-53.591c-0.449-15.991-2.025-31.103-4.677-44.872h45.49
	c-3.317-6.358-7.218-12.345-11.604-17.949h-38.191c-4.387-15.486-10.217-28.68-17.127-38.96c-11.496-3.789-23.75-5.912-36.515-5.912
	c12.57,0,25.948,16.893,34.802,44.872h-69.603c8.854-27.979,22.233-44.872,34.802-44.872c-12.765,0-25.018,2.122-36.515,5.912
	c-6.909,10.28-12.739,23.474-17.127,38.96h-38.191c-4.386,5.603-8.287,11.59-11.604,17.949h45.49
	c-2.652,13.769-4.228,28.88-4.677,44.872h-53.591c-0.227,2.972-0.453,5.944-0.453,8.974c0,3.03,0.227,6.003,0.453,8.974h53.591
	c0.449,15.991,2.025,31.103,4.677,44.872h-45.49c3.317,6.358,7.218,12.345,11.604,17.949h38.191
	c4.387,15.486,10.217,28.68,17.127,38.96c11.496,3.789,23.75,5.912,36.515,5.912c-12.57,0-25.948-16.893-34.802-44.872h69.604
	c-8.854,27.979-22.233,44.872-34.802,44.872c12.765,0,25.018-2.122,36.515-5.912c6.909-10.28,12.739-23.474,17.127-38.96h38.191
	C486.755,213.356,490.656,207.368,493.972,201.009z M430.029,201.009h-78.985c-2.833-13.366-4.684-28.441-5.187-44.872h89.359
	C434.713,172.568,432.862,187.643,430.029,201.009z M345.857,138.189c0.504-16.43,2.355-31.506,5.187-44.872h78.985
	c2.833,13.366,4.684,28.441,5.187,44.872H345.857z"/>
<g>
	<path style="fill:#D5DCED;" d="M442.049,225.955c-6.036-1.067-11.914-2.552-17.59-4.512c-8.847,26.431-21.746,42.386-33.923,42.386
		c12.762,0,25.021-2.089,36.499-5.889C432.887,249.241,437.969,238.468,442.049,225.955z"/>
	<path style="fill:#D5DCED;" d="M456.591,75.369h-12.414c-4.355-15.372-10.132-28.485-16.974-38.732
		c-11.548-3.862-23.818-6.14-36.667-6.14c12.57,0,25.948,16.893,34.802,44.872h-69.603c8.854-27.979,22.233-44.872,34.802-44.872
		c-4.4,0-8.721,0.313-12.99,0.794c0.01-0.011,0.019-0.024,0.029-0.034c-0.112,0.012-0.22,0.04-0.332,0.053
		c-1.399,0.162-2.755,0.444-4.137,0.655c-2.922,0.439-5.817,0.949-8.664,1.601c-1.336,0.31-2.651,0.66-3.969,1.014
		c-2.241,0.597-4.42,1.332-6.604,2.056c-6.842,10.248-12.618,23.36-16.974,38.732h-38.166c-4.395,5.596-8.285,11.597-11.609,17.949
		h45.47c-2.652,13.769-4.228,28.88-4.677,44.872h-53.694c-0.225,2.963-0.35,5.953-0.35,8.974c0,3.03,0.227,6.003,0.453,8.974h53.591
		c0.449,15.991,2.025,31.103,4.677,44.872H287.1c3.317,6.358,7.218,12.345,11.604,17.949h38.191
		c4.387,15.486,10.217,28.68,17.127,38.96c11.496,3.789,23.75,5.912,36.515,5.912c-12.57,0-25.948-16.893-34.802-44.872h61.725
		v-17.949h-66.415c-2.833-13.366-4.684-28.441-5.187-44.872h89.359c-0.121,3.977-0.33,7.867-0.605,11.681
		c9.856-7.698,17.659-17.877,22.434-29.629h-3.886c-0.449-15.991-2.025-31.103-4.677-44.872h12.308
		C459.805,87.3,458.365,81.302,456.591,75.369z M345.857,138.189c0.504-16.43,2.355-31.506,5.187-44.872h78.985
		c2.833,13.366,4.684,28.441,5.187,44.872H345.857z"/>
</g>
<path style="fill:#9BF57D;" d="M444.383,111.267c0,30.678-25.656,55.364-56.681,53.774c-29.592-1.517-52.336-28.207-50.913-57.803
	c1.95-40.54,32.477-85.094,46.635-103.703c3.593-4.722,10.643-4.708,14.236,0.015C412.295,22.784,444.383,69.699,444.383,111.267z"
	/>
<path style="fill:#8CE16E;" d="M390.536,0.001c-2.659-0.001-5.317,1.175-7.112,3.534c-14.159,18.607-44.686,63.163-46.637,103.703
	c-1.424,29.596,21.321,56.286,50.913,57.803c0.957,0.048,1.89-0.001,2.835-0.002V0.001H390.536z"/>
<path style="fill:#7DC86E;" d="M390.536,227.933c-4.961,0-8.974-4.014-8.974-8.974V75.369c0-4.961,4.014-8.974,8.974-8.974
	c4.961,0,8.974,4.014,8.974,8.974v143.589C399.511,223.919,395.497,227.933,390.536,227.933z"/>
</svg>