<?xml version="1.0" encoding="UTF-8"?><svg id="Layer_26" xmlns="http://www.w3.org/2000/svg" viewBox="0 0 64 64"><path d="m32,24.227c-.051-4.148-.492-14.472-3.536-18.733-3.536-4.95-11.314-1.414-12.021,4.95-6.364.707-9.9,8.485-4.95,12.021,4.261,3.044,14.585,3.484,18.733,3.536,1.102-.014,1.773,0,1.773,0,0,0-.014-.672,0-1.773Z" style="fill:#57a4ff;"/><path d="m13.494,22.464c-4.95-3.536-1.414-11.314,4.95-12.021.429-3.862,3.463-6.667,6.571-7.182-3.677-.659-8.049,2.484-8.571,7.182-6.364.707-9.9,8.485-4.95,12.021,4.261,3.044,14.585,3.484,18.733,3.536,1.102-.014,1.773,0,1.773,0,0,0,0-.004,0-.004-4.278-.064-14.316-.539-18.506-3.532Z" style="fill:#2488ff;"/><path d="m32,26h0s-.672.014-1.773,0c-4.148.051-14.472.492-18.733,3.536-4.95,3.536-1.414,11.314,4.95,12.021.707,6.364,8.485,9.899,12.021,4.95,3.044-4.261,3.484-14.585,3.536-18.733-.014-1.102,0-1.773,0-1.773Z" style="fill:#9bc9ff;"/><path d="m18.444,41.556c-6.364-.707-9.9-8.485-4.95-12.021,4.19-2.993,14.228-3.468,18.506-3.532,0,0,0-.004,0-.004h0s-.672.014-1.773,0c-4.148.051-14.472.492-18.733,3.536-4.95,3.536-1.414,11.314,4.95,12.021.522,4.697,4.894,7.841,8.571,7.182-3.109-.515-6.142-3.32-6.571-7.182Z" style="fill:#57a4ff;"/><path d="m32,26h0s-.672-.014-1.773,0c1.102.014,1.773,0,1.773,0Z" style="fill:#9bc9ff;"/><path d="m52.506,29.536c-4.261-3.044-14.585-3.484-18.733-3.536-1.102.014-1.773,0-1.773,0,0,0,.014.672,0,1.773.051,4.148.492,14.472,3.536,18.733,3.536,4.95,11.314,1.414,12.021-4.95,6.364-.707,9.9-8.485,4.95-12.021Z" style="fill:#57a4ff;"/><path d="m52.506,29.536c-4.261-3.044-14.585-3.484-18.733-3.536-1.102.014-1.773,0-1.773,0,0,0,0,.004,0,.004,4.278.064,14.316.539,18.506,3.532,4.95,3.536,1.414,11.314-4.95,12.021-.429,3.862-3.463,6.667-6.571,7.182,3.677.659,8.049-2.484,8.571-7.182,6.364-.707,9.9-8.485,4.95-12.021Z" style="fill:#2488ff;"/><path d="m32,26v1.773c.014-1.102,0-1.773,0-1.773Z" style="fill:#9bc9ff;"/><path d="m32,27.773v-1.773s-.014.672,0,1.773Z" style="fill:#9bc9ff;"/><path d="m47.556,10.444c-.707-6.364-8.485-9.9-12.021-4.95-3.044,4.261-3.484,14.585-3.536,18.733.014,1.102,0,1.773,0,1.773h0s.672-.013,1.773,0c4.148-.051,14.472-.492,18.733-3.536,4.95-3.536,1.414-11.314-4.95-12.021Z" style="fill:#9bc9ff;"/><path d="m47.556,10.444c-.522-4.697-4.894-7.841-8.571-7.182,3.109.515,6.142,3.32,6.571,7.182,6.364.707,9.9,8.485,4.95,12.021-4.19,2.993-14.228,3.468-18.506,3.532,0,0,0,.004,0,.004h0s.672-.013,1.773,0c4.148-.051,14.472-.492,18.733-3.536,4.95-3.536,1.414-11.314-4.95-12.021Z" style="fill:#57a4ff;"/><path d="m32,26h0s.014-.672,0-1.773c-.014,1.102,0,1.773,0,1.773Z" style="fill:#9bc9ff;"/><path d="m32,26h0s.672.014,1.773,0c-1.102-.014-1.773,0-1.773,0Z" style="fill:#9bc9ff;"/><path d="m53.09,28.72c-1.85-1.31-4.7-2.17-7.71-2.72,3.02-.55,5.86-1.41,7.71-2.72,2.3-1.65,3.24-4.3,2.5-7.11-.85-3.3-3.74-5.92-7.16-6.6-.68-3.42-3.3-6.31-6.6-7.16-2.81-.73-5.47.2-7.11,2.5-1.31,1.85-2.17,4.69-2.72,7.71-.55-3.02-1.41-5.86-2.72-7.71-1.65-2.3-4.3-3.23-7.11-2.5-3.3.85-5.92,3.74-6.6,7.16-3.42.68-6.31,3.3-7.16,6.6-.74,2.81.2,5.46,2.5,7.11,1.85,1.31,4.69,2.17,7.71,2.72-3.02.55-5.86,1.41-7.71,2.72-2.3,1.65-3.24,4.3-2.5,7.11.85,3.3,3.74,5.92,7.16,6.6.68,3.42,3.3,6.31,6.6,7.16.63.17,1.25.25,1.85.25,2.1,0,3.98-.97,5.26-2.75.69-.98,1.26-2.24,1.72-3.65v.78c0,5.9-2.67,11.37-7.33,15l-1.28.99c-.44.34-.52.97-.18,1.4.2.26.49.39.79.39.21,0,.43-.07.61-.21l1.28-1c5.15-4,8.11-10.04,8.11-16.57v-.78c.46,1.41,1.03,2.67,1.72,3.65,1.28,1.78,3.16,2.75,5.26,2.75.6,0,1.23-.08,1.85-.25,3.3-.85,5.92-3.74,6.6-7.16,3.42-.68,6.31-3.3,7.16-6.6.74-2.81-.2-5.46-2.5-7.11Zm-25.44,17.2c-1.16,1.63-2.97,2.26-4.98,1.74-2.25-.59-4.85-2.78-5.23-6.21-.05-.47-.42-.84-.89-.89-3.43-.38-5.62-2.98-6.21-5.23-.52-2.01.11-3.82,1.74-4.98,3.81-2.73,13.09-3.25,17.49-3.34l-8.18,8.18c-.39.39-.39,1.03,0,1.42.2.19.45.29.71.29s.51-.1.71-.29l8.18-8.18c-.09,4.4-.61,13.68-3.34,17.49Zm-4.84-30.53c-.39-.39-1.03-.39-1.42,0-.39.39-.39,1.03,0,1.42l8.18,8.18c-4.4-.09-13.68-.61-17.49-3.34-1.63-1.16-2.26-2.97-1.74-4.98.59-2.25,2.78-4.85,6.21-5.23.47-.05.84-.42.89-.89.38-3.43,2.98-5.62,5.23-6.21.46-.12.91-.18,1.35-.18,1.46,0,2.74.66,3.63,1.92,2.73,3.81,3.25,13.09,3.34,17.49l-8.18-8.18Zm13.54-9.31c.89-1.26,2.17-1.92,3.63-1.92.44,0,.89.06,1.35.18,2.25.59,4.85,2.78,5.23,6.21.05.47.42.84.89.89,3.43.38,5.62,2.98,6.21,5.23.52,2.01-.11,3.82-1.74,4.98-3.81,2.73-13.09,3.25-17.49,3.34l8.18-8.18c.39-.39.39-1.03,0-1.42-.39-.39-1.03-.39-1.42,0l-8.18,8.18c.09-4.4.61-13.68,3.34-17.49Zm17.31,29.25c-.59,2.25-2.78,4.85-6.21,5.23-.47.05-.84.42-.89.89-.38,3.43-2.98,5.62-5.23,6.21-2.01.52-3.82-.11-4.98-1.74-2.73-3.81-3.25-13.09-3.34-17.49l7.48,7.47c.19.19.45.29.7.29.26,0,.51-.1.71-.29.39-.39.39-1.02,0-1.41l-7.47-7.48c4.4.09,13.68.61,17.49,3.34,1.63,1.16,2.26,2.97,1.74,4.98Z" style="fill:#231f20;"/></svg>