<?xml version="1.0" encoding="UTF-8"?><svg id="Layer_15" xmlns="http://www.w3.org/2000/svg" viewBox="0 0 64 64"><path d="m36.58,35.64c.74-2.04,1.64-4.04,2.69-5.97l4.73-8.67-1.9,10.92c-1,5.73-1.15,11.57-.47,17.33l2.37,11.75h-12l4.58-25.36Z" style="fill:#5eac24;"/><path d="m41.27,29.67l1.793-3.287.937-5.383-4.73,8.67c-1.05,1.93-1.95,3.93-2.69,5.97l-4.58,25.36h2l4.58-25.36c.74-2.04,1.64-4.04,2.69-5.97Z" style="fill:#4e901e;"/><path d="m27.42,35.64c-.74-2.04-1.64-4.04-2.69-5.97l-4.73-8.67,1.9,10.92c1,5.73,1.15,11.57.47,17.33l-2.37,11.75h4s8,0,8,0l-4.58-25.36Z" style="fill:#7ed63e;"/><path d="m23.9,31.92l-.963-5.537-2.937-5.383,1.9,10.92c1,5.73,1.15,11.57.47,17.33l-2.37,11.75h2l2.37-11.75c.68-5.76.53-11.6-.47-17.33Z" style="fill:#5eac24;"/><path d="m49.9,51.04l-.28-1.34c-1.06-5.02-.6-10.24,1.3-15.01l3.08-7.69-5.12,6.83c-3.46,4.6-5.92,9.86-7.25,15.42-.41,1.69-.71,3.4-.9,5.14l-.73,6.61h12l-2.1-9.96Z" style="fill:#91dc5a;"/><path d="m43.63,49.25c1.33-5.56,3.79-10.82,7.25-15.42l.826-1.101,2.294-5.729-5.12,6.83c-3.46,4.6-5.92,9.86-7.25,15.42-.41,1.69-.71,3.4-.9,5.14l-.73,6.61h2l.73-6.61c.19-1.74.49-3.45.9-5.14Z" style="fill:#7ed63e;"/><path d="m14.1,51.04l.28-1.34c1.06-5.02.6-10.24-1.3-15.01l-3.08-7.69,5.12,6.83c3.46,4.6,5.92,9.86,7.25,15.42.41,1.69.71,3.4.9,5.14l.73,6.61h-4s-6,0-6,0h-2s2.1-9.96,2.1-9.96Z" style="fill:#91dc5a;"/><path d="m16.38,49.7c1.06-5.02.6-10.24-1.3-15.01l-.786-1.961-4.294-5.729,3.08,7.69c1.9,4.77,2.36,9.99,1.3,15.01l-.28,1.34-2.1,9.96h2l2.1-9.96.28-1.34Z" style="fill:#7ed63e;"/><path d="m33.348,16.007l-1.348-5.007-1.348,5.007c-3.724,13.834-4.433,28.306-2.078,42.437l.426,2.556h6l.426-2.556c2.355-14.131,1.647-28.604-2.078-42.437Z" style="fill:#7ed63e;"/><path d="m32.652,16.007l.348-1.293-1-3.714-1.348,5.007c-3.724,13.834-4.433,28.306-2.078,42.437l.426,2.556h2l-.426-2.556c-2.355-14.131-1.647-28.604,2.078-42.437Z" style="fill:#5eac24;"/><path d="m49.893,60.465l.107.535h7l-.626-4.07c-.896-5.824-.057-11.783,2.412-17.133l2.214-4.797-2.401,1.886c-7.115,5.59-10.481,14.706-8.706,23.578Z" style="fill:#5eac24;"/><path d="m59.83,37.536l1.17-2.536-2.401,1.886c-7.115,5.59-10.481,14.706-8.706,23.578l.107.535h2l-.107-.535c-1.708-8.541,1.358-17.299,7.937-22.929Z" style="fill:#4e901e;"/><path d="m5.401,36.886l-2.401-1.886,2.214,4.797c2.469,5.35,3.308,11.309,2.412,17.133l-.626,4.07h7l.107-.535c1.774-8.872-1.592-17.988-8.706-23.578Z" style="fill:#5eac24;"/><path d="m7.214,39.797l-1.043-2.261c-.255-.218-.504-.441-.77-.65l-2.401-1.886,2.214,4.797c2.469,5.35,3.308,11.309,2.412,17.133l-.626,4.07h2l.626-4.07c.896-5.824.057-11.783-2.412-17.133Z" style="fill:#4e901e;"/><path d="m50.556,4.615l-5.657,5.657c-.781.781-.781,2.047,0,2.828h0s0,0,0,0c.781.781,2.047.781,2.828,0l5.657-5.657c.781-.781.781-2.047,0-2.828-.781-.781-2.047-.781-2.828,0Z" style="fill:#ff7956;"/><path d="m14.615,11.444l5.657,5.657c.781.781,2.047.781,2.828,0h0s0,0,0,0h0c.781-.781.781-2.047,0-2.828l-5.657-5.657c-.781-.781-2.047-.781-2.828,0-.781.781-.781,2.047,0,2.828Z" style="fill:#ff7956;"/><path d="m61.62,34.22c-.36-.29-.87-.29-1.24-.01l-2.4,1.89c-3.57,2.8-6.21,6.43-7.81,10.45-.34-3.88.21-7.81,1.68-11.49l3.08-7.69c.18-.46,0-1-.44-1.24-.44-.25-.99-.13-1.29.27l-5.12,6.83c-2.46,3.27-4.41,6.84-5.83,10.64-.12-3.95.16-7.89.84-11.78l1.9-10.92c.08-.48-.2-.95-.66-1.11-.46-.16-.97.03-1.21.46l-4.43,8.12.48-3.5c.5-3.65,2.21-7.11,4.83-9.72l1.03-1.04c.41.2.84.3,1.28.3.77,0,1.54-.29,2.13-.87l5.65-5.66c.92-.92,1.11-2.29.58-3.4l.84-.84c.39-.39.39-1.03,0-1.42s-1.03-.39-1.42,0l-.84.84c-1.11-.53-2.48-.34-3.4.58l-5.66,5.65c-.92.93-1.1,2.3-.57,3.41l-1.04,1.03c-2.92,2.93-4.84,6.79-5.39,10.87l-.4,2.95c-.58-4.05-1.4-8.07-2.48-12.07l-1.34-5.01c-.12-.44-.52-.74-.97-.74s-.85.3-.97.74l-1.34,5.01c-.54,1.98-1,3.97-1.41,5.96-.8-1.34-1.75-2.59-2.86-3.71l-1.04-1.03c.53-1.11.35-2.48-.57-3.41l-5.66-5.65c-.92-.92-2.29-1.11-3.4-.58l-.84-.84c-.39-.39-1.03-.39-1.42,0s-.39,1.03,0,1.42l.84.84c-.53,1.11-.34,2.48.58,3.4l5.65,5.66c.59.58,1.36.87,2.13.87.44,0,.87-.1,1.28-.3l1.03,1.04c1.59,1.58,2.81,3.44,3.67,5.51-.38,2.17-.69,4.35-.92,6.54-.36-.77-.74-1.53-1.14-2.28l-4.73-8.67c-.24-.43-.75-.62-1.21-.46-.46.16-.74.63-.66,1.11l1.9,10.92c.68,3.89.96,7.83.84,11.78-1.42-3.8-3.37-7.37-5.83-10.64l-5.12-6.83c-.3-.4-.85-.52-1.29-.27-.44.24-.62.78-.44,1.24l3.08,7.69c1.47,3.68,2.02,7.6,1.68,11.49-1.6-4.02-4.24-7.65-7.81-10.45l-2.4-1.89c-.37-.28-.88-.28-1.24.01-.36.28-.48.78-.29,1.2l2.22,4.8c2.39,5.18,3.2,10.91,2.33,16.56l-.63,4.07c-.04.29.04.58.23.8.19.22.47.35.76.35h50c.29,0,.57-.13.76-.35.19-.22.27-.51.23-.8l-.63-4.07c-.87-5.65-.06-11.38,2.33-16.56l2.22-4.8c.19-.42.07-.92-.29-1.2Zm-16.01-23.24l5.65-5.66c.39-.39,1.03-.39,1.42,0,.39.39.39,1.03,0,1.42l-5.66,5.65c-.39.39-1.02.39-1.41,0-.19-.19-.29-.45-.29-.71,0-.25.1-.5.29-.7Zm-23.22,5.41c-.19.19-.45.29-.71.29-.25,0-.5-.1-.7-.29l-5.66-5.65c-.39-.39-.39-1.03,0-1.42.2-.19.45-.29.71-.29s.51.1.71.29l5.65,5.66c.39.39.39,1.02,0,1.41Zm-9.21,43.61h-5.01l.44-2.92c.93-6.03.07-12.16-2.49-17.7l-.44-.97c3.88,3.38,6.45,7.86,7.44,12.74,0,.05.01.1.03.15.55,2.82.58,5.76.03,8.7Zm2.02,0c.52-3.03.48-6.06-.08-8.97l.24-1.12c1.1-5.22.63-10.61-1.35-15.59l-.26-.65.57.76c3.38,4.5,5.76,9.56,7.08,15.06.4,1.64.69,3.33.88,5.01l.6,5.5h-7.68Zm9.7,0l-.64-5.72c-.18-1.7-.48-3.41-.88-5.08.67-5.84.51-11.71-.49-17.45l-.87-4.95,1.83,3.35c.99,1.81,1.84,3.7,2.55,5.62-.47,7.59-.08,15.22,1.19,22.84l.23,1.39h-2.92Zm9.54-1.72l-.29,1.72h-4.3l-.29-1.72c-1.25-7.52-1.63-15.05-1.16-22.53.01-.04.01-.07.01-.11.42-6.5,1.49-12.98,3.21-19.37l.38-1.42.38,1.42c1.72,6.39,2.79,12.87,3.21,19.37,0,.04,0,.07.01.11.47,7.48.09,15.01-1.16,22.53Zm6.18-9.08c-.4,1.67-.7,3.38-.88,5.08l-.64,5.72h-2.92l.23-1.39c1.27-7.62,1.66-15.25,1.19-22.84.71-1.92,1.56-3.81,2.55-5.62l1.83-3.35-.87,4.95c-1,5.74-1.16,11.61-.49,17.45Zm8.02.7l.24,1.13c-.56,2.91-.6,5.94-.08,8.97h-7.68l.6-5.5c.19-1.68.48-3.37.88-5.02,1.32-5.49,3.7-10.55,7.08-15.05l.57-.76-.26.65c-1.98,4.98-2.45,10.37-1.35,15.58Zm9.24-10.52c-2.56,5.54-3.42,11.67-2.49,17.7l.44,2.92h-5.01c-.55-2.94-.52-5.88.03-8.7.02-.05.03-.1.03-.15.99-4.88,3.56-9.36,7.44-12.74l-.44.97Z" style="fill:#231f20;"/></svg>