<?xml version="1.0" encoding="UTF-8"?><svg id="Layer_5" xmlns="http://www.w3.org/2000/svg" viewBox="0 0 64 64"><polygon points="50.51 41 13.49 41 24 13 28.1 11 32 3 50.51 41" style="fill:#c49a6c;"/><polygon points="53 26 46 13 40.904 21.28 50.51 41 61 41 61 30 53 26" style="fill:#8b5e3c;"/><polygon points="41.904 21.28 41.442 20.406 40.904 21.28 50.51 41 51.51 41 41.904 21.28" style="fill:#754c29;"/><polygon points="19.523 24.932 16 20 9 33 3 33 3 41 13.49 41 19.4 25.26 19.523 24.932" style="fill:#8b5e3c;"/><polygon points="12.49 41 13.49 41 19.4 25.26 19.523 24.932 18.892 24.049 12.49 41" style="fill:#754c29;"/><path d="m43,38c-.78,0-1.48.3-2.01.78-.61.54-.99,1.34-.99,2.22h6c0-1.66-1.34-3-3-3Z" style="fill:#7ed63e;"/><path d="m27,38c-.78,0-1.48.3-2.01.78-.61.54-.99,1.34-.99,2.22h6c0-1.66-1.34-3-3-3Z" style="fill:#7ed63e;"/><path d="m22,36c-1.66,0-3,1.34-3,3,0,.77.29,1.47.77,2h4.23c0-.88.38-1.68.99-2.22-.11-1.56-1.4-2.78-2.99-2.78Z" style="fill:#5eac24;"/><path d="m23.007,36.181c-.315-.112-.652-.181-1.007-.181-1.66,0-3,1.34-3,3,0,.77.29,1.47.77,2h2c-.48-.53-.77-1.23-.77-2,0-1.31.839-2.409,2.007-2.819Z" style="fill:#4e901e;"/><path d="m39,35c0-1.657-1.343-5-3-5s-3,3.343-3,5,1.343,3,3,3,3-1.343,3-3Z" style="fill:#4e901e;"/><path d="m35,35c0-1.306.836-3.652,2-4.591-.313-.253-.649-.409-1-.409-1.657,0-3,3.343-3,5s1.343,3,3,3c.353,0,.686-.072,1-.184-1.163-.413-2-1.512-2-2.816Z" style="fill:#447e1a;"/><rect x="3" y="41" width="58" height="4" style="fill:#4e901e;"/><rect x="3" y="41" width="58" height="1" style="fill:#447e1a;"/><path d="m3,45v14c0,1.105.895,2,2,2h54c1.105,0,2-.895,2-2v-14H3Z" style="fill:#bddbff;"/><rect x="3" y="45" width="58" height="2" style="fill:#9bc9ff;"/><path d="m8,37c2.761,0,5-2.239,5-5s-2.239-11-5-11-5,8.239-5,11,2.239,5,5,5Z" style="fill:#5eac24;"/><path d="m5,32c0-2.419,1.718-9.039,4-10.645-.323-.227-.657-.355-1-.355-2.761,0-5,8.239-5,11s2.239,5,5,5c.343,0,.677-.035,1-.101-2.282-.463-4-2.48-4-4.899Z" style="fill:#4e901e;"/><path d="m61.47,29.12l-7.34-3.87-7.26-12.75c-.17-.3-.49-.49-.84-.5-.35-.01-.68.16-.87.46l-4.24,6.57L32.9,2.56c-.34-.69-1.46-.69-1.8,0l-3.74,7.69-3.8,1.85c-.23.11-.41.31-.5.55l-3.9,10.4-2.32-3.59c-.19-.3-.52-.48-.87-.46-.35.01-.67.2-.84.5l-2.88,5.06c-1.23-3.01-2.66-4.56-4.25-4.56-1.69,0-3.2,1.72-4.47,5.11-.89,2.36-1.53,5.25-1.53,6.89v27c0,1.65,1.35,3,3,3h54c1.65,0,3-1.35,3-3v-29c0-.37-.21-.71-.53-.88ZM24.8,13.72l3.74-1.82c.2-.1.36-.26.46-.46l3-6.16,3.49,7.16-1.17-.39c-.4-.13-.84,0-1.1.33l-4,5c-.35.43-.28,1.06.16,1.4.18.15.4.22.62.22.29,0,.58-.13.78-.38l3.57-4.45,2.33.78h.03l4.89,10.05h-5.6c-.55,0-1,.45-1,1s.45,1,1,1h6.58l6.33,13h-2.05c-.45-1.72-2-3-3.86-3-.99,0-1.94.37-2.67,1.03-.59.52-.99,1.21-1.19,1.97h-2.14v-1.14c1.72-.45,3-2,3-3.86,0-2.06-1.56-6-4-6s-4,3.94-4,6c0,1.86,1.28,3.41,3,3.86v1.14h-4.14c-.45-1.72-2-3-3.86-3-.48,0-.96.09-1.4.26-.65-1.34-2.03-2.26-3.6-2.26-2.21,0-4,1.79-4,4,0,.34.06.67.14,1h-3.21l2-5.31,6.28-2.69h5.79c.46,0,.86-.31.97-.76l1-4c.13-.53-.19-1.08-.73-1.21-.53-.14-1.08.19-1.21.73l-.81,3.24h-5.22c-.14,0-.27.03-.39.08l-4.71,2.02,6.9-18.38Zm19.92,26.28h-3.44c.1-.18.23-.34.38-.48.37-.33.85-.52,1.34-.52.74,0,1.37.41,1.72,1Zm-8.72-3c-1.1,0-2-.9-2-2,0-1.5,1.25-4,2-4s2,2.5,2,4c0,1.1-.9,2-2,2Zm-7.28,3h-3.44c.1-.18.23-.34.38-.48.37-.33.85-.52,1.34-.52.74,0,1.37.41,1.72,1Zm-4.79-1.53c-.37.45-.64.97-.79,1.53h-2.87c-.17-.3-.27-.64-.27-1,0-1.1.9-2,2-2,.93,0,1.7.61,1.93,1.47Zm-9.93-6.47c0-1.2-.35-3.08-.88-4.93l2.93-5.15,2.24,3.46-5.49,14.62h-3.8v-2.09c2.83-.48,5-2.94,5-5.91Zm-6-10c1.63,0,4,7.02,4,10,0,2.21-1.79,4-4,4s-4-1.79-4-4c0-2.98,2.37-10,4-10Zm-4,14.46c.83.74,1.86,1.26,3,1.45v2.09h-3v-3.54Zm56,22.54c0,.55-.45,1-1,1H5c-.55,0-1-.45-1-1v-5h5c.55,0,1-.45,1-1s-.45-1-1-1h-5v-6h56v13Zm0-15H4v-2h56v2Zm0-4h-8.86l-4.33-8.87,5.58.79,2.75,4.59c.15.25.39.42.66.47l4.2.84v2.18Zm0-4.22l-3.37-.67-2.77-4.62c-.16-.26-.42-.44-.72-.48l-5.14-.73-2.24-.32-3.82-7.83,4.01-6.2,3.46,6.07h-3.41c-.55,0-1,.45-1,1s.45,1,1,1h4.55l1.99,3.5c.1.16.24.3.4.38l7.06,3.72v5.18Z" style="fill:#231f20;"/><path d="m55,56h-10c-.553,0-1,.448-1,1s.447,1,1,1h10c.553,0,1-.448,1-1s-.447-1-1-1Z" style="fill:#231f20;"/><path d="m49,50h8c.553,0,1-.448,1-1s-.447-1-1-1h-8c-.553,0-1,.448-1,1s.447,1,1,1Z" style="fill:#231f20;"/><path d="m40,54h6c.553,0,1-.448,1-1s-.447-1-1-1h-6c-.553,0-1,.448-1,1s.447,1,1,1Z" style="fill:#231f20;"/><path d="m25,50h8c.553,0,1-.448,1-1s-.447-1-1-1h-8c-.553,0-1,.448-1,1s.447,1,1,1Z" style="fill:#231f20;"/><path d="m19,56h-10c-.553,0-1,.448-1,1s.447,1,1,1h10c.553,0,1-.448,1-1s-.447-1-1-1Z" style="fill:#231f20;"/><path d="m33,57c0,.552.447,1,1,1h3c.553,0,1-.448,1-1s-.447-1-1-1h-3c-.553,0-1,.448-1,1Z" style="fill:#231f20;"/><path d="m11,50h8c.553,0,1-.448,1-1s-.447-1-1-1h-8c-.553,0-1,.448-1,1s.447,1,1,1Z" style="fill:#231f20;"/><path d="m22,55h8c.553,0,1-.448,1-1s-.447-1-1-1h-8c-.553,0-1,.448-1,1s.447,1,1,1Z" style="fill:#231f20;"/><path d="m23,23h6c.553,0,1-.448,1-1s-.447-1-1-1h-6c-.553,0-1,.448-1,1s.447,1,1,1Z" style="fill:#231f20;"/></svg>