<?xml version="1.0" encoding="UTF-8"?><svg id="Layer_17" xmlns="http://www.w3.org/2000/svg" viewBox="0 0 64 64"><path d="m3,29c3.624,0,3.624,2,7.247,2s3.624-2,7.247-2,3.624,2,7.247,2,3.625-2,7.249-2,3.626,2,7.252,2,3.625-2,7.249-2,3.627,2,7.254,2,3.627-2,7.254-2v32H3V29Z" style="fill:#2488ff;"/><path d="m17.494,29c3.624,0,3.624,2,7.247,2s3.625-2,7.249-2,3.626,2,7.252,2,3.625-2,7.249-2c2.643,0,3.365,1.06,4.963,1.636l-1.455-11.636-6-2-2-6h-5l-5-8-5,10-4-2-3,6-4-2-5.997,15.991h0c.082.002.157.009.244.009,3.624,0,3.624-2,7.247-2Z" style="fill:#d1e7f8;"/><path d="m17,43h5l4,8,6,6,6-9,7-1v-4l7-8-.545-4.364h0c-1.598-.576-2.32-1.636-4.963-1.636-3.625,0-3.625,2-7.249,2s-3.626-2-7.252-2-3.625,2-7.249,2-3.624-2-7.247-2-3.624,2-7.247,2c-.086,0-.161-.006-.244-.009l-.003.009,7,12Z" style="fill:#bddbff;"/><rect x="19.593" y="13.106" width="5.814" height="1.789" transform="translate(-.084 27.864) rotate(-63.435)" style="fill:#bddbff;"/><polygon points="29 13 33.111 4.778 32 3 27.4 12.2 29 13" style="fill:#bddbff;"/><polygon points="12.003 30.991 17.684 15.842 16 15 10.003 30.991 10 31 17 43 19 43 12 31 12.003 30.991" style="fill:#bddbff;"/><path d="m12.003,30.991l.08-.214c-.502.135-1.09.222-1.836.222-.086,0-.161-.006-.244-.009l-.003.009,7,12h2l-7-12,.003-.009Z" style="fill:#9bc9ff;"/><polygon points="28 51 24 43 22 43 26 51 32 57 32.8 55.8 28 51" style="fill:#9bc9ff;"/><path d="m61,28c-2.07,0-3.15.6-4.11,1.12-.85.47-1.59.88-3.14.88-.55,0-1-.05-1.38-.14l-1.38-10.98c-.05-.39-.31-.71-.67-.83l-5.53-1.84-1.84-5.53c-.14-.4-.52-.68-.95-.68h-4.45l-4.7-7.53c-.19-.31-.54-.48-.9-.47-.36.02-.68.23-.84.55l-4.56,9.11-3.1-1.55c-.5-.25-1.1-.05-1.34.44l-2.56,5.11-3.1-1.55c-.26-.13-.55-.14-.82-.04-.26.1-.47.31-.57.58l-5.73,15.29c-.96-.13-1.56-.45-2.22-.82-.96-.52-2.04-1.12-4.11-1.12-.55,0-1,.45-1,1v32c0,.55.45,1,1,1h58c.55,0,1-.45,1-1V29c0-.55-.45-1-1-1Zm-10.47,3.34l.42,3.34-6.7,7.66c-.16.18-.25.42-.25.66v3.13l-6.14.88c-.28.04-.53.2-.69.44l-5.33,7.98-5.02-5.02-3.93-7.86c-.16-.34-.51-.55-.89-.55h-4.43l-5.89-10.11c1.19-.2,1.97-.62,2.67-1.01.86-.47,1.59-.88,3.14-.88,1.56,0,2.29.41,3.14.88.96.52,2.04,1.12,4.11,1.12s3.15-.6,4.11-1.12c.85-.47,1.59-.88,3.14-.88,1.56,0,2.29.41,3.14.88.96.52,2.04,1.12,4.11,1.12s3.15-.6,4.11-1.12c.85-.47,1.59-.88,3.14-.88,1.56,0,2.29.41,3.15.88.28.15.57.31.89.46Zm-33.98-14.95l3,1.5c.5.25,1.1.05,1.34-.44l2.56-5.11,3.1,1.55c.5.25,1.1.05,1.34-.44l4.21-8.41,4.05,6.49c.18.29.51.47.85.47h4.28l1.77,5.32c.1.29.34.53.63.63l5.41,1.8,1.14,9.17c-.81-.43-1.78-.85-3.36-.91l-.88-6.15c-.08-.55-.58-.93-1.13-.85-.55.08-.93.58-.85,1.13l.86,6.01c-1.08.21-1.82.61-2.49.97-.85.47-1.58.88-3.14.88-1.55,0-2.29-.41-3.14-.88-.36-.19-.73-.4-1.17-.58l-1.95-10.72c-.09-.54-.61-.9-1.16-.8-.54.09-.9.62-.8,1.16l1.79,9.86c-.26-.03-.53-.04-.82-.04-2.07,0-3.15.6-4.11,1.12-.85.47-1.58.88-3.14.88-1.55,0-2.29-.41-3.14-.88-.18-.09-.36-.19-.56-.29l.83-4.98,4.33-.87c.38-.08.68-.36.77-.74l1-4c.13-.53-.19-1.08-.73-1.21-.53-.14-1.08.19-1.21.73l-.85,3.38-4.38.88c-.4.08-.72.41-.79.82l-.88,5.31c-.47-.09-1.01-.15-1.64-.15-2.07,0-3.15.6-4.1,1.12-.59.33-1.13.62-1.91.77l5.07-13.5Zm43.45,43.61H4v-29.93c.92.13,1.5.45,2.14.81.82.45,1.73.94,3.26,1.08l6.74,11.54c.18.31.5.5.86.5h4.38l3.73,7.45c.04.09.11.18.18.26l6,6c.19.19.45.29.71.29h.1c.3-.03.57-.2.73-.45l5.75-8.62,6.56-.94c.49-.07.86-.49.86-.99v-3.62l6.75-7.72c.19-.22.28-.5.24-.78l-.37-2.95c.35.04.71.07,1.13.07,2.07,0,3.15-.6,4.11-1.12.64-.36,1.22-.68,2.14-.81v29.93Z" style="fill:#231f20;"/><path d="m55.757,51.03c-.868.216-1.607-.003-2.463-.256-.993-.295-2.119-.627-3.517-.279-1.358.339-1.95.84-2.425,1.243-.398.336-.712.603-1.619.829-.772.195-1.187-.015-1.815-.329-.759-.38-1.702-.853-3.195-.48-.536.134-.861.677-.728,1.213.134.536.68.862,1.213.728.771-.194,1.187.015,1.815.329.564.282,1.231.616,2.148.616.317,0,.664-.04,1.047-.136,1.358-.339,1.95-.841,2.425-1.243.398-.337.712-.603,1.618-.829.868-.217,1.607.003,2.463.256.994.294,2.119.629,3.517.279.536-.134.861-.677.728-1.213-.134-.536-.678-.861-1.213-.728Z" style="fill:#231f20;"/><path d="m21,56c-.797,0-1.15-.302-1.683-.759-.645-.553-1.448-1.241-2.985-1.241-1.403,0-2.074.336-2.613.605-.44.221-.788.395-1.719.395-.833,0-1.281-.335-1.9-.8-.713-.534-1.601-1.2-3.1-1.2-.552,0-1,.448-1,1s.448,1,1,1c.833,0,1.281.335,1.9.8.713.534,1.601,1.2,3.1,1.2,1.403,0,2.075-.336,2.614-.606.44-.22.788-.394,1.718-.394.797,0,1.15.302,1.683.759.645.553,1.448,1.241,2.985,1.241.552,0,1-.448,1-1s-.448-1-1-1Z" style="fill:#231f20;"/><path d="m12,47c.796,0,1.148.302,1.681.759.645.553,1.447,1.241,2.983,1.241.552,0,1-.448,1-1s-.448-1-1-1c-.796,0-1.148-.302-1.682-.759-.645-.553-1.447-1.241-2.983-1.241-.552,0-1,.448-1,1s.448,1,1,1Z" style="fill:#231f20;"/><path d="m57,39c-1.536,0-2.338.688-2.983,1.241-.533.457-.885.759-1.682.759-.552,0-1,.448-1,1s.448,1,1,1c1.536,0,2.339-.688,2.983-1.241.533-.457.885-.759,1.681-.759.552,0,1-.448,1-1s-.448-1-1-1Z" style="fill:#231f20;"/><path d="m31.275,38.039l-7-2c-.532-.152-1.084.156-1.236.687-.152.531.156,1.084.687,1.236l6.414,1.833.88,4.402c.095.475.513.804.979.804.065,0,.131-.006.197-.02.542-.108.893-.635.784-1.177l-1-5c-.073-.367-.346-.663-.706-.765Z" style="fill:#231f20;"/><path d="m40.671,35.553c-.545-.107-1.069.243-1.177.784l-1,5c-.108.542.243,1.068.784,1.177.066.013.132.02.197.02.467,0,.885-.329.979-.804l1-5c.108-.542-.243-1.068-.784-1.177Z" style="fill:#231f20;"/><path d="m38.051,23.316c.14.419.53.684.949.684.104,0,.211-.017.316-.052.524-.175.807-.741.632-1.265l-2-6c-.174-.524-.739-.808-1.265-.632-.524.175-.807.741-.632,1.265l2,6Z" style="fill:#231f20;"/></svg>