<?xml version="1.0" encoding="UTF-8"?><svg id="Layer_16" xmlns="http://www.w3.org/2000/svg" viewBox="0 0 64 64"><polygon points="61 35.058 54 33 59 23 48 25 48 21 40 25 44 10 38 14 32 3 26 14 20 10 24 25 16 21 16 25 5 23 10 33 3 35.058 20 48 18 55 32 50 46 55 44 48 61 35.058" style="fill:#ff6243;"/><polygon points="33 4.833 32 3 26 14 27.498 15.005 33 4.833" style="fill:#ff5023;"/><polygon points="22.432 11.622 20 10 23.692 23.846 24 25 26.475 26.305 22.432 11.622" style="fill:#ff5023;"/><polygon points="20.227 54.205 22 48 5 35.058 12 33 7.2 23.4 5 23 10 33 3 35.058 20 48 18 55 20.227 54.205" style="fill:#ff5023;"/><polygon points="18 25.595 18 22 16 21 16 25 18 25.595" style="fill:#ff5023;"/><path d="m61.98,34.88c-.06-.37-.34-.67-.7-.78l-5.85-1.72,4.46-8.93c.17-.34.14-.75-.09-1.05-.23-.3-.61-.45-.98-.38l-9.82,1.78v-2.8c0-.35-.18-.67-.47-.85-.3-.18-.67-.2-.98-.04l-6.01,3,3.43-12.85c.1-.4-.05-.83-.39-1.07-.34-.25-.79-.25-1.13-.02l-5.1,3.39-5.47-10.04c-.35-.64-1.41-.64-1.76,0l-5.47,10.04-5.1-3.39c-.34-.23-.8-.23-1.13.02-.34.24-.49.67-.39,1.07l3.43,12.85-6.01-3c-.31-.16-.68-.14-.98.04-.29.18-.47.5-.47.85v2.8l-9.82-1.78c-.37-.07-.75.08-.98.38-.23.3-.26.71-.09,1.05l4.46,8.93-5.85,1.72c-.36.11-.64.41-.7.78-.07.37.07.75.37.97l16.46,12.53-1.81,6.35c-.1.36,0,.74.28,1,.27.26.66.34,1.02.21l12.66-4.52v9.58c0,.55.45,1,1,1s1-.45,1-1v-9.58l12.66,4.52c.11.04.23.06.34.06.25,0,.5-.09.68-.27.28-.26.38-.64.28-1l-1.81-6.35,16.46-12.53c.3-.22.44-.6.37-.97Zm-18.59,12.32c-.32.25-.46.68-.35,1.07l1.46,5.13-11.5-4.1v-3.12l4.84.81c.05.01.11.01.16.01.48,0,.91-.35.99-.84.09-.54-.28-1.06-.83-1.15l-5.16-.86v-2.61l8.23-5.49,5.61.94c.05.01.11.01.16.01.48,0,.91-.35.99-.84.09-.54-.28-1.06-.83-1.15l-3.5-.58,5.89-3.93c.46-.31.59-.93.28-1.39-.3-.46-.92-.58-1.38-.28l-6,4,.53-2.63c.11-.55-.24-1.07-.78-1.18-.55-.11-1.07.24-1.18.78l-.92,4.6-7.1,4.73v-6.72l3.71-3.7c.39-.39.39-1.03,0-1.42-.39-.39-1.03-.39-1.42,0l-2.29,2.3v-5.18l3.71-3.7c.39-.39.39-1.03,0-1.42-.39-.39-1.03-.39-1.42,0l-2.29,2.3v-5.59c0-.55-.45-1-1-1s-1,.45-1,1v5.59l-2.29-2.3c-.39-.39-1.03-.39-1.42,0-.39.39-.39,1.03,0,1.42l3.71,3.7v5.18l-2.29-2.3c-.39-.39-1.03-.39-1.42,0-.39.39-.39,1.03,0,1.42l3.71,3.7v6.72l-7.1-4.73-.92-4.6c-.11-.54-.63-.89-1.18-.78-.54.11-.89.63-.78,1.18l.53,2.63-6-4c-.46-.3-1.08-.18-1.38.28-.31.46-.18,1.08.28,1.39l5.89,3.93-3.5.58c-.55.09-.92.61-.83,1.15.09.49.51.84.99.84.05,0,.11,0,.16-.01l5.61-.94,8.23,5.49v2.61l-5.16.86c-.55.09-.92.61-.83,1.15.09.55.61.92,1.15.83l4.84-.81v3.12l-11.5,4.1,1.46-5.13c.11-.39-.03-.82-.35-1.07l-15.43-11.74,5.1-1.5c.29-.08.52-.29.64-.56.12-.27.11-.58-.03-.85l-4.1-8.21,9.03,1.64c.29.06.59-.02.82-.21.23-.19.36-.47.36-.77v-2.38l6.55,3.27c.35.18.78.13,1.08-.12.31-.24.44-.65.34-1.03l-3.32-12.44,3.8,2.53c.23.16.52.21.79.14s.5-.24.64-.49l5.12-9.39,5.12,9.39c.14.25.37.42.64.49s.56.02.79-.14l3.8-2.53-3.32,12.44c-.1.38.03.79.34,1.03.3.25.73.3,1.08.12l6.55-3.27v2.38c0,.3.13.58.36.77.23.19.53.27.82.21l9.03-1.64-4.1,8.21c-.14.27-.15.58-.03.85.12.27.35.48.64.56l5.1,1.5-15.43,11.74Z" style="fill:#231f20;"/></svg>