<?xml version="1.0" encoding="UTF-8"?><svg id="Layer_18" xmlns="http://www.w3.org/2000/svg" viewBox="0 0 64 64"><path d="m46.89,14.42l-1.21-.91c-5.47-4.1-12.54-5.43-19.13-3.58l-.9.25c-8.69,2.43-15.95,8.43-19.99,16.5l-1.82,3.63c-.27.54-.48,1.11-.62,1.7,3.4.07,3.48,1.99,7.03,1.99,3.62,0,3.62-2,7.24-2s3.63,2,7.25,2c2.8,0,3.44-1.19,5.26-1.73v-3.03c0-2.79.65-5.54,1.9-8.03l1.24-2.48c.38-.77,1.45-.84,1.93-.12.31.46.81.7,1.33.7.32,0,.65-.1.94-.31l1.32-1c.73-.54,1.76-.36,2.27.39.31.46.81.71,1.32.71.4,0,.81-.16,1.12-.47l.51-.51c.62-.62,1.62-.62,2.24,0l1.88,1.88.36-1.42c.39-1.56-.19-3.2-1.47-4.16Z" style="fill:#d1e7f8;"/><path d="m11.248,33.937c-.441-.055-.845-.025-1.231.055.079.002.151.008.233.008.37,0,.695-.025.998-.063Z" style="fill:#bddbff;"/><path d="m26.55,9.93l-.9.25c-8.69,2.43-15.95,8.43-19.99,16.5l-1.82,3.63c-.27.54-.48,1.11-.62,1.7.826.017,1.454.144,1.986.326.275-.974.528-1.813.634-2.026l1.82-3.63c4.04-8.07,11.3-14.07,19.99-16.5l.9-.25c1.606-.451,3.241-.71,4.873-.789-2.292-.098-4.611.153-6.873.789Z" style="fill:#bddbff;"/><path d="m46.491,39c-3.625,0-3.625,2-7.249,2s-3.626-2-7.252-2-3.625,2-7.249,2-3.624-2-7.247-2-3.624,2-7.247,2-3.624-2-7.247-2v7c3.624,0,3.624,2,7.247,2s3.624-2,7.247-2,3.624,2,7.247,2,3.625-2,7.249-2,3.626,2,7.252,2,3.625-2,7.249-2,3.627,2,7.254,2,3.627-2,7.254-2v-7c-3.627,0-3.627,2-7.254,2s-3.627-2-7.254-2Z" style="fill:#57a4ff;"/><path d="m46.491,53c-3.625,0-3.625,2-7.249,2s-3.626-2-7.252-2-3.625,2-7.249,2-3.624-2-7.247-2-3.624,2-7.247,2-3.624-2-7.247-2v8h58v-8c-3.627,0-3.627,2-7.254,2s-3.627-2-7.254-2Z" style="fill:#006df0;"/><path d="m46.491,46c-3.625,0-3.625,2-7.249,2s-3.626-2-7.252-2-3.625,2-7.249,2-3.624-2-7.247-2-3.624,2-7.247,2-3.624-2-7.247-2v7c3.624,0,3.624,2,7.247,2s3.624-2,7.247-2,3.624,2,7.247,2,3.625-2,7.249-2,3.626,2,7.252,2,3.625-2,7.249-2,3.627,2,7.254,2,3.627-2,7.254-2v-7c-3.627,0-3.627,2-7.254,2s-3.627-2-7.254-2Z" style="fill:#2488ff;"/><path d="m46.49,32c-1.095,0-1.857.184-2.49.44h0s0,0,0,0c-1.46.589-2.228,1.56-4.76,1.56-3.62,0-3.62-2-7.25-2-.82,0-1.46.1-1.99.27-1.82.54-2.46,1.73-5.26,1.73-3.62,0-3.62-2-7.25-2s-3.62,2-7.24,2c-3.55,0-3.63-1.92-7.03-1.99-.14.62-.22,1.25-.22,1.88v5.11c3.624,0,3.624,2,7.247,2s3.624-2,7.247-2,3.624,2,7.247,2,3.625-2,7.249-2,3.626,2,7.252,2,3.625-2,7.249-2,3.627,2,7.254,2,3.627-2,7.254-2v-7c-3.63,0-3.63,2-7.25,2s-3.63-2-7.26-2Z" style="fill:#9bc9ff;"/><path d="m46.12,18.12c-.62-.62-1.62-.62-2.24,0l-.51.51c-.31.31-.72.47-1.12.47-.51,0-1.01-.25-1.32-.71-.51-.75-1.54-.93-2.27-.39l-1.32,1c-.29.21-.62.31-.94.31-.52,0-1.02-.24-1.33-.7-.48-.72-1.55-.65-1.93.12l-1.24,2.48c-1.25,2.49-1.9,5.24-1.9,8.03v3.03c.53-.17,1.17-.27,1.99-.27,3.63,0,3.63,2,7.25,2,2.532,0,3.3-.971,4.76-1.56v-1.29c0-3.36.99-6.64,2.86-9.43l1.14-1.72-1.88-1.88Z" style="fill:#bddbff;"/><path d="m33.14,20.73c.38-.77,1.45-.84,1.93-.12.31.46.81.7,1.33.7.32,0,.65-.1.94-.31l1.32-1c.73-.54,1.76-.36,2.27.39.31.46.81.71,1.32.71.4,0,.81-.16,1.12-.47l.51-.51c.62-.62,1.62-.62,2.24,0l1.083,1.083.797-1.203-1.88-1.88c-.62-.62-1.62-.62-2.24,0l-.51.51c-.31.31-.72.47-1.12.47-.51,0-1.01-.25-1.32-.71-.51-.75-1.54-.93-2.27-.39l-1.32,1c-.29.21-.62.31-.94.31-.52,0-1.02-.24-1.33-.7-.48-.72-1.55-.65-1.93.12l-1.24,2.48c-1.25,2.49-1.9,5.24-1.9,8.03v2c0-2.79.65-5.54,1.9-8.03l1.24-2.48Z" style="fill:#9bc9ff;"/><path d="m61.001,31c-2.071,0-3.161.6-4.111,1.13-.85.46-1.59.87-3.14.87-1.56,0-2.29-.41-3.15-.88-.95-.52-2.04-1.12-4.11-1.12-.56,0-1.06.04-1.49.12.01-3.17.94-6.22,2.69-8.85l.66-.995c.352-.531.618-1.116.786-1.73.104-.381.194-.724.194-.724.49-1.95-.23-4-1.84-5.2l-1.21-.91c-5.69-4.26-13.16-5.66-20-3.74l-.9.25c-8.94,2.5-16.45,8.7-20.61,17.01l-1.82,3.63c-.31.61-.54,1.24-.7,1.89,0,.02-.25,1.47-.25,2.14v27.11c0,.55.45,1,1,1h58c.55,0,1-.45,1-1v-29c0-.549-.45-1-.999-1Zm-14.971-9.84c-1.98,2.96-3.03,6.41-3.03,9.99v.65c-.21.1-.42.22-.61.32-.7.39-1.33.73-2.39.84v-3.23c0-2.14.83-4.15,2.34-5.66l.37-.36c.39-.39.39-1.03,0-1.42-.39-.39-1.03-.39-1.42,0l-.36.37c-1.89,1.89-2.93,4.4-2.93,7.07v3.16c-.78-.15-1.31-.44-1.9-.76-.33-.19-.69-.39-1.1-.56v-2.24c0-1.98.58-3.9,1.69-5.55l.15-.23c.3-.47.17-1.08-.29-1.39-.46-.3-1.08-.17-1.39.29l-.14.22c-1.32,1.98-2.02,4.28-2.02,6.66v1.73c-.31-.04-.64-.06-1.01-.06-.35,0-.67.03-.99.06v-1.82c0-2.62.62-5.24,1.79-7.58l1.25-2.49c0-.02.03-.06.09-.06.08-.01.1.04.11.06.78,1.16,2.49,1.51,3.7.63l1.31-1c.18-.13.36-.12.46-.1.16.02.3.11.39.25.49.72,1.29,1.15,2.15,1.15.68,0,1.34-.28,1.83-.76l.51-.51c.23-.23.59-.23.82,0l1.3,1.3-.68,1.03ZM4.73,30.76l1.82-3.63c3.91-7.81,10.97-13.64,19.37-15.99l.9-.25c6.24-1.75,13.07-.47,18.26,3.42l1.21.91c.88.66,1.31,1.74,1.15,2.81l-.61-.62c-1.01-1-2.65-1-3.66,0l-.51.51c-.26.26-.7.21-.9-.09-.4-.59-1.03-.99-1.72-1.11-.7-.11-1.4.05-1.98.48l-1.31.99c-.13.1-.26.12-.35.12-.12,0-.35-.03-.5-.26-.42-.63-1.12-.99-1.9-.94-.76.05-1.42.49-1.75,1.17l-1.24,2.48c-1.32,2.62-2.01,5.55-2.01,8.48v2.33c-.42.18-.78.38-1.12.56-.85.47-1.59.87-3.14.87s-2.29-.41-3.14-.87c-.95-.53-2.04-1.13-4.11-1.13s-3.15.6-4.1,1.12c-.85.47-1.59.88-3.14.88s-2.29-.41-3.14-.87c-.68-.38-1.43-.79-2.55-.99.05-.13.11-.26.17-.38Zm55.27,29.24H4v-5.93c.92.13,1.5.45,2.14.81.96.52,2.04,1.12,4.11,1.12s3.15-.6,4.1-1.12c.86-.47,1.59-.88,3.14-.88,1.56,0,2.29.41,3.14.88.96.52,2.04,1.12,4.11,1.12s3.15-.6,4.11-1.12c.85-.47,1.59-.88,3.14-.88,1.56,0,2.29.41,3.14.88.96.52,2.04,1.12,4.11,1.12s3.16-.6,4.11-1.12c.85-.47,1.59-.88,3.14-.88,1.56,0,2.29.41,3.15.88.95.52,2.03,1.12,4.11,1.12s3.15-.6,4.11-1.12c.64-.36,1.22-.68,2.14-.81v5.93Zm0-7.94c-1.44.15-2.32.63-3.11,1.06-.85.47-1.59.88-3.14.88-1.56,0-2.3-.41-3.15-.88-.95-.52-2.04-1.12-4.11-1.12s-3.15.6-4.11,1.12c-.85.47-1.58.88-3.14.88-1.55,0-2.29-.41-3.14-.88-.96-.52-2.04-1.12-4.11-1.12s-3.15.6-4.11,1.12c-.85.47-1.58.88-3.14.88-1.55,0-2.29-.41-3.14-.88-.95-.52-2.04-1.12-4.11-1.12s-3.15.6-4.1,1.12c-.85.47-1.59.88-3.14.88-1.56,0-2.29-.41-3.14-.88-.79-.43-1.67-.91-3.11-1.06v-4.99c.92.13,1.5.45,2.14.81.96.52,2.04,1.12,4.11,1.12s3.15-.6,4.1-1.12c.86-.47,1.59-.88,3.14-.88,1.56,0,2.29.41,3.14.88.96.52,2.04,1.12,4.11,1.12s3.15-.6,4.11-1.12c.85-.47,1.59-.88,3.14-.88,1.56,0,2.29.41,3.14.88.96.52,2.04,1.12,4.11,1.12s3.16-.6,4.11-1.12c.85-.47,1.59-.88,3.14-.88,1.56,0,2.29.41,3.15.88.95.52,2.03,1.12,4.11,1.12s3.15-.6,4.11-1.12c.64-.36,1.22-.68,2.14-.81v4.99Zm0-7c-1.44.15-2.32.63-3.11,1.06-.85.47-1.59.88-3.14.88-1.56,0-2.3-.41-3.15-.88-.95-.52-2.04-1.12-4.11-1.12s-3.15.6-4.11,1.12c-.85.47-1.58.88-3.14.88-1.55,0-2.29-.41-3.14-.88-.96-.52-2.04-1.12-4.11-1.12s-3.15.6-4.11,1.12c-.85.47-1.58.88-3.14.88-1.55,0-2.29-.41-3.14-.88-.95-.52-2.04-1.12-4.11-1.12s-3.15.6-4.1,1.12c-.85.47-1.59.88-3.14.88-1.56,0-2.29-.41-3.14-.88-.79-.43-1.67-.91-3.11-1.06v-4.99c.92.13,1.5.45,2.14.81.96.52,2.04,1.12,4.11,1.12s3.15-.6,4.1-1.12c.86-.47,1.59-.88,3.14-.88,1.56,0,2.29.41,3.14.88.96.52,2.04,1.12,4.11,1.12s3.15-.6,4.11-1.12c.85-.47,1.59-.88,3.14-.88,1.56,0,2.29.41,3.14.88.96.52,2.04,1.12,4.11,1.12s3.16-.6,4.11-1.12c.85-.47,1.59-.88,3.14-.88,1.56,0,2.29.41,3.15.88.95.52,2.03,1.12,4.11,1.12s3.15-.6,4.11-1.12c.64-.36,1.22-.68,2.14-.81v4.99Zm0-7c-1.44.15-2.32.63-3.11,1.06-.85.47-1.59.88-3.14.88-1.56,0-2.3-.41-3.15-.88-.95-.52-2.04-1.12-4.11-1.12s-3.15.6-4.11,1.12c-.85.47-1.58.88-3.14.88-1.55,0-2.29-.41-3.14-.88-.96-.52-2.04-1.12-4.11-1.12s-3.15.6-4.11,1.12c-.85.47-1.58.88-3.14.88-1.55,0-2.29-.41-3.14-.88-.95-.52-2.04-1.12-4.11-1.12s-3.15.6-4.1,1.12c-.85.47-1.59.88-3.14.88-1.56,0-2.29-.41-3.14-.88-.79-.43-1.67-.91-3.11-1.06v-4.17c0-.26.02-.54.05-.81.89.13,1.46.45,2.09.8.96.52,2.04,1.12,4.11,1.12s3.15-.6,4.1-1.12c.85-.47,1.59-.88,3.14-.88,1.56,0,2.3.41,3.15.88.95.52,2.03,1.12,4.1,1.12s3.15-.59,4.11-1.12c.46-.25.89-.49,1.45-.66.47-.15,1.02-.22,1.69-.22,1.56,0,2.3.41,3.15.88.95.52,2.03,1.12,4.1,1.12s3.16-.6,4.11-1.13c.33-.17,1.04-.51,1.07-.52.54-.21,1.16-.35,2.07-.35,1.56,0,2.29.41,3.15.88.95.52,2.04,1.12,4.11,1.12s3.15-.6,4.1-1.12c.65-.36,1.23-.68,2.15-.81v4.99Z" style="fill:#231f20;"/><path d="m8.684,29.949l.382.127c.724.241,1.471.36,2.216.36,1.254,0,2.498-.338,3.599-.998l.321-.192c1.64-.984,3.067-2.345,4.128-3.936l1.24-1.861c1.973-2.958,4.942-5.126,8.36-6.103l1.345-.384c.531-.152.839-.705.688-1.236-.152-.532-.708-.837-1.236-.687l-1.345.384c-3.875,1.106-7.24,3.562-9.476,6.916l-1.24,1.861c-.897,1.346-2.105,2.498-3.492,3.33l-.321.192c-1.253.752-2.766.918-4.153.456l-.382-.127c-.524-.173-1.09.108-1.265.632s.107,1.09.632,1.265Z" style="fill:#231f20;"/></svg>