<?xml version="1.0" encoding="UTF-8"?><svg id="Layer_33" xmlns="http://www.w3.org/2000/svg" viewBox="0 0 64 64"><path d="m46.491,46c-3.625,0-3.625,2-7.249,2s-3.626-2-7.252-2-3.625,2-7.249,2-3.624-2-7.247-2-3.624,2-7.247,2-3.624-2-7.247-2v7c3.624,0,3.624,2,7.247,2s3.624-2,7.247-2,3.624,2,7.247,2,3.625-2,7.249-2,3.626,2,7.252,2,3.625-2,7.249-2,3.627,2,7.254,2,3.627-2,7.254-2v-7c-3.627,0-3.627,2-7.254,2s-3.627-2-7.254-2Z" style="fill:#57a4ff;"/><path d="m46.491,53c-3.625,0-3.625,2-7.249,2s-3.626-2-7.252-2-3.625,2-7.249,2-3.624-2-7.247-2-3.624,2-7.247,2-3.624-2-7.247-2v8h58v-8c-3.627,0-3.627,2-7.254,2s-3.627-2-7.254-2Z" style="fill:#2488ff;"/><path d="m46.491,39c-3.625,0-3.625,2-7.249,2s-3.626-2-7.252-2-3.625,2-7.249,2-3.624-2-7.247-2-3.624,2-7.247,2-3.624-2-7.247-2v7c3.624,0,3.624,2,7.247,2s3.624-2,7.247-2,3.624,2,7.247,2,3.625-2,7.249-2,3.626,2,7.252,2,3.625-2,7.249-2,3.627,2,7.254,2,3.627-2,7.254-2v-7c-3.627,0-3.627,2-7.254,2s-3.627-2-7.254-2Z" style="fill:#9bc9ff;"/><path d="m31,26c0,2.76-2.24,5-5,5H9c-3.31,0-6-2.69-6-6,0-2.97,2.17-5.44,5-5.91v-.09c0-3.31,2.69-6,6-6,2.55,0,4.72,1.59,5.59,3.83.67-.51,1.5-.83,2.41-.83,2.21,0,4,1.79,4,4,0,.35-.06.69-.15,1.01.05,0,.1-.01.15-.01,2.76,0,5,2.24,5,5Z" style="fill:#57a4ff;"/><path d="m5,25c0-2.97,2.17-5.44,5-5.91v-.09c0-2.971,2.169-5.435,5.007-5.911-.328-.055-.663-.089-1.007-.089-3.31,0-6,2.69-6,6v.09c-2.83.47-5,2.94-5,5.91,0,3.31,2.69,6,6,6h2c-3.31,0-6-2.69-6-6Z" style="fill:#2488ff;"/><path d="m61,20c0,2.21-1.79,4-4,4h-14c-2.21,0-4-1.79-4-4s1.79-4,4-4c0-2.76,2.24-5,5-5,1.85,0,3.45,1.02,4.32,2.52.48-.33,1.06-.52,1.68-.52,1.66,0,3,1.34,3,3,2.21,0,4,1.79,4,4Z" style="fill:#006df0;"/><path d="m41,20c0-2.21,1.79-4,4-4,0-2.408,1.706-4.418,3.973-4.892-.316-.064-.638-.108-.973-.108-2.76,0-5,2.24-5,5-2.21,0-4,1.79-4,4s1.79,4,4,4h2c-2.21,0-4-1.79-4-4Z" style="fill:#005ece;"/><path d="m57.886,15.09c-.414-1.767-1.994-3.09-3.886-3.09-.455,0-.903.087-1.333.238-1.101-1.363-2.783-2.238-4.667-2.238-3,0-5.485,2.215-5.924,5.093-2.316.436-4.076,2.466-4.076,4.907,0,2.757,2.243,5,5,5h14c2.757,0,5-2.243,5-5,0-2.453-1.78-4.49-4.114-4.91Zm-.886,7.91h-14c-1.654,0-3-1.346-3-3s1.346-3,3-3c.86,0,1.681.37,2.25,1.016.366.416,1,.453,1.411.088.414-.365.454-.997.089-1.412-.701-.795-1.631-1.337-2.647-1.567.401-1.785,1.992-3.126,3.897-3.126,2.206,0,4,1.794,4,4,0,.552.447,1,1,1s1-.448,1-1c0-.684-.12-1.338-.332-1.951.111-.019.22-.049.332-.049,1.103,0,2,.897,2,2,0,.494-.181.967-.508,1.334-.367.412-.332,1.044.08,1.412.19.17.429.254.666.254.274,0,.548-.113.746-.334.398-.445.671-.974.837-1.537,1.253.36,2.178,1.504,2.178,2.871,0,1.654-1.346,3-3,3Z" style="fill:#231f20;"/><path d="m9,32h17c3.309,0,6-2.691,6-6,0-2.97-2.171-5.436-5.009-5.911,0-.03.009-.058.009-.089,0-2.757-2.243-5-5-5-.689,0-1.363.16-1.986.433-1.247-2.088-3.538-3.433-6.014-3.433-3.592,0-6.558,2.721-6.952,6.283-2.912.848-5.048,3.536-5.048,6.717,0,3.86,3.14,7,7,7Zm0-12c1.779,0,3.439.958,4.332,2.501.277.479.888.642,1.367.365.478-.277.641-.889.365-1.367-1.232-2.129-3.51-3.456-5.963-3.492.462-2.282,2.483-4.007,4.9-4.007,2.044,0,3.916,1.279,4.66,3.189.226.567.34,1.177.34,1.811,0,.552.448,1,1,1s1-.448,1-1c0-.593-.079-1.171-.221-1.728.379-.173.789-.272,1.221-.272,1.654,0,3,1.346,3,3s-1.346,3-3,3c-.552,0-1,.448-1,1s.448,1,1,1c2.023,0,3.76-1.213,4.546-2.945,1.946.269,3.454,1.926,3.454,3.945,0,2.206-1.794,4-4,4H9c-2.757,0-5-2.243-5-5s2.243-5,5-5Z" style="fill:#231f20;"/><path d="m61,38c-2.07,0-3.15.6-4.11,1.12-.85.47-1.59.88-3.14.88-1.56,0-2.3-.41-3.15-.88-.95-.52-2.04-1.12-4.11-1.12s-3.15.6-4.11,1.12c-.85.47-1.58.88-3.14.88-1.55,0-2.29-.41-3.14-.88-.96-.52-2.04-1.12-4.11-1.12s-3.15.6-4.11,1.12c-.85.47-1.58.88-3.14.88-1.55,0-2.29-.41-3.14-.88-.95-.52-2.04-1.12-4.11-1.12s-3.15.6-4.1,1.12c-.85.47-1.59.88-3.14.88-1.56,0-2.29-.41-3.14-.88-.96-.52-2.04-1.12-4.11-1.12-.55,0-1,.45-1,1v22c0,.55.45,1,1,1h58c.55,0,1-.45,1-1v-22c0-.55-.45-1-1-1Zm-1,22H4v-5.93c.92.13,1.5.45,2.14.81.96.52,2.04,1.12,4.11,1.12s3.15-.6,4.1-1.12c.86-.47,1.59-.88,3.14-.88,1.56,0,2.29.41,3.14.88.96.52,2.04,1.12,4.11,1.12s3.15-.6,4.11-1.12c.85-.47,1.59-.88,3.14-.88,1.56,0,2.29.41,3.14.88.96.52,2.04,1.12,4.11,1.12s3.16-.6,4.11-1.12c.85-.47,1.59-.88,3.14-.88,1.56,0,2.29.41,3.15.88.95.52,2.03,1.12,4.11,1.12s3.15-.6,4.11-1.12c.64-.36,1.22-.68,2.14-.81v5.93Zm0-7.94c-1.44.15-2.32.63-3.11,1.06-.85.47-1.59.88-3.14.88-1.56,0-2.3-.41-3.15-.88-.95-.52-2.04-1.12-4.11-1.12s-3.15.6-4.11,1.12c-.85.47-1.58.88-3.14.88-1.55,0-2.29-.41-3.14-.88-.96-.52-2.04-1.12-4.11-1.12s-3.15.6-4.11,1.12c-.85.47-1.58.88-3.14.88-1.55,0-2.29-.41-3.14-.88-.95-.52-2.04-1.12-4.11-1.12s-3.15.6-4.1,1.12c-.85.47-1.59.88-3.14.88-1.56,0-2.29-.41-3.14-.88-.79-.43-1.67-.91-3.11-1.06v-4.99c.92.13,1.5.45,2.14.81.96.52,2.04,1.12,4.11,1.12s3.15-.6,4.1-1.12c.86-.47,1.59-.88,3.14-.88,1.56,0,2.29.41,3.14.88.96.52,2.04,1.12,4.11,1.12s3.15-.6,4.11-1.12c.85-.47,1.59-.88,3.14-.88,1.56,0,2.29.41,3.14.88.96.52,2.04,1.12,4.11,1.12s3.16-.6,4.11-1.12c.85-.47,1.59-.88,3.14-.88,1.56,0,2.29.41,3.15.88.95.52,2.03,1.12,4.11,1.12s3.15-.6,4.11-1.12c.64-.36,1.22-.68,2.14-.81v4.99Zm0-7c-1.44.15-2.32.63-3.11,1.06-.85.47-1.59.88-3.14.88-1.56,0-2.3-.41-3.15-.88-.95-.52-2.04-1.12-4.11-1.12s-3.15.6-4.11,1.12c-.85.47-1.58.88-3.14.88-1.55,0-2.29-.41-3.14-.88-.96-.52-2.04-1.12-4.11-1.12s-3.15.6-4.11,1.12c-.85.47-1.58.88-3.14.88-1.55,0-2.29-.41-3.14-.88-.95-.52-2.04-1.12-4.11-1.12s-3.15.6-4.1,1.12c-.85.47-1.59.88-3.14.88-1.56,0-2.29-.41-3.14-.88-.79-.43-1.67-.91-3.11-1.06v-4.99c.92.13,1.5.45,2.14.81.96.52,2.04,1.12,4.11,1.12s3.15-.6,4.1-1.12c.86-.47,1.59-.88,3.14-.88,1.56,0,2.29.41,3.14.88.96.52,2.04,1.12,4.11,1.12s3.15-.6,4.11-1.12c.85-.47,1.59-.88,3.14-.88,1.56,0,2.29.41,3.14.88.96.52,2.04,1.12,4.11,1.12s3.16-.6,4.11-1.12c.85-.47,1.59-.88,3.14-.88,1.56,0,2.29.41,3.15.88.95.52,2.03,1.12,4.11,1.12s3.15-.6,4.11-1.12c.64-.36,1.22-.68,2.14-.81v4.99Z" style="fill:#231f20;"/><path d="m53,6c.553,0,1-.448,1-1s.448-1,1-1,1,.449,1,1,.447,1,1,1,1-.448,1-1,.448-1,1-1,1,.449,1,1,.447,1,1,1,1-.448,1-1c0-1.654-1.346-3-3-3-.771,0-1.468.301-2,.78-.532-.48-1.229-.78-2-.78-1.654,0-3,1.346-3,3,0,.552.447,1,1,1Z" style="fill:#231f20;"/><path d="m41,8c.553,0,1-.448,1-1s.448-1,1-1,1,.449,1,1,.447,1,1,1,1-.448,1-1,.448-1,1-1,1,.449,1,1,.447,1,1,1,1-.448,1-1c0-1.654-1.346-3-3-3-.771,0-1.468.301-2,.78-.532-.48-1.229-.78-2-.78-1.654,0-3,1.346-3,3,0,.552.447,1,1,1Z" style="fill:#231f20;"/><path d="m22,13c.552,0,1-.448,1-1s.449-1,1-1,1,.449,1,1,.448,1,1,1,1-.448,1-1,.449-1,1-1,1,.449,1,1,.448,1,1,1,1-.448,1-1c0-1.654-1.346-3-3-3-.771,0-1.468.301-2,.78-.532-.48-1.229-.78-2-.78-1.654,0-3,1.346-3,3,0,.552.448,1,1,1Z" style="fill:#231f20;"/><path d="m10,10c.552,0,1-.448,1-1s.449-1,1-1,1,.449,1,1,.448,1,1,1,1-.448,1-1,.449-1,1-1,1,.449,1,1,.448,1,1,1,1-.448,1-1c0-1.654-1.346-3-3-3-.771,0-1.468.301-2,.78-.532-.48-1.229-.78-2-.78-1.654,0-3,1.346-3,3,0,.552.448,1,1,1Z" style="fill:#231f20;"/></svg>