<?xml version="1.0" encoding="UTF-8"?><svg id="Layer_14" xmlns="http://www.w3.org/2000/svg" viewBox="0 0 64 64"><path d="m37,55.11v-10.22c0-1.87.65-3.68,1.85-5.11l.28-.34c1.9-2.27,4.2-4.18,6.78-5.61l.2-.11-3.18-2.81c-3.09,1.97-5.87,4.42-8.23,7.25l-.7.84v-7.19l-4,.01v7.18l-.7-.84c-2.36-2.83-5.14-5.28-8.23-7.25l-3.17,2.81.19.11c2.58,1.43,4.88,3.34,6.78,5.61l.28.34c1.2,1.43,1.85,3.24,1.85,5.11v10.22h10Z" style="fill:#8b5e3c;"/><polygon points="34 31.81 30 31.82 30 32.82 34 32.81 34 31.81" style="fill:#754c29;"/><path d="m34,40l.7-.84c2.36-2.83,5.14-5.28,8.23-7.25l2.505,2.213c.161-.094.312-.203.475-.293l.2-.11-3.18-2.81c-3.09,1.97-5.87,4.42-8.23,7.25l-.7.84v1Z" style="fill:#754c29;"/><path d="m18.57,34.126l2.5-2.216c3.09,1.97,5.87,4.42,8.23,7.25l.7.84v-1l-.7-.84c-2.36-2.83-5.14-5.28-8.23-7.25l-3.17,2.81.19.11c.165.091.318.201.48.296Z" style="fill:#754c29;"/><path d="m59,57c-.4,0-.77.11-1.08.32-.3-1.33-1.49-2.32-2.92-2.32-.85,0-1.62.35-2.15.92-.47-1.69-2.02-2.92-3.85-2.92-.93,0-1.79.32-2.48.87-.8-1.7-2.52-2.87-4.52-2.87-1.52,0-2.88.68-3.8,1.75-.32-.6-.72-1.16-1.2-1.64-1.27-1.3-3.03-2.11-5-2.11s-3.73.81-5,2.11c-.48.48-.88,1.04-1.2,1.64-.92-1.07-2.28-1.75-3.8-1.75-2,0-3.72,1.17-4.52,2.87-.69-.55-1.55-.87-2.48-.87-1.83,0-3.38,1.23-3.85,2.92-.53-.57-1.3-.92-2.15-.92-1.43,0-2.62.99-2.92,2.32-.31-.21-.68-.32-1.08-.32-1.1,0-2,.9-2,2v2h58v-2c0-1.1-.9-2-2-2Z" style="fill:#7ed63e;"/><path d="m59,57c-.4,0-.77.11-1.08.32-.3-1.33-1.49-2.32-2.92-2.32-.85,0-1.62.35-2.15.92-.47-1.69-2.02-2.92-3.85-2.92-.93,0-1.79.32-2.48.87-.8-1.7-2.52-2.87-4.52-2.87-1.52,0-2.88.68-3.8,1.75-.32-.6-.72-1.16-1.2-1.64-1.27-1.3-3.03-2.11-5-2.11s-3.73.81-5,2.11c-.48.48-.88,1.04-1.2,1.64-.92-1.07-2.28-1.75-3.8-1.75-2,0-3.72,1.17-4.52,2.87-.69-.55-1.55-.87-2.48-.87-1.83,0-3.38,1.23-3.85,2.92-.53-.57-1.3-.92-2.15-.92-1.43,0-2.62.99-2.92,2.32-.31-.21-.68-.32-1.08-.32-1.1,0-2,.9-2,2v2c0-1.1.9-2,2-2,.4,0,.77.11,1.08.32.3-1.33,1.49-2.32,2.92-2.32.85,0,1.62.35,2.15.92.47-1.69,2.02-2.92,3.85-2.92.93,0,1.79.32,2.48.87.8-1.7,2.52-2.87,4.52-2.87,1.52,0,2.88.68,3.8,1.75.32-.6.72-1.16,1.2-1.64,1.27-1.3,3.03-2.11,5-2.11s3.73.81,5,2.11c.48.48.88,1.04,1.2,1.64.92-1.07,2.28-1.75,3.8-1.75,2,0,3.72,1.17,4.52,2.87.69-.55,1.55-.87,2.48-.87,1.83,0,3.38,1.23,3.85,2.92.53-.57,1.3-.92,2.15-.92,1.43,0,2.62.99,2.92,2.32.31-.21.68-.32,1.08-.32,1.1,0,2,.9,2,2v-2c0-1.1-.9-2-2-2Z" style="fill:#5eac24;"/><path d="m52.99,15.199c.002-.067.01-.132.01-.199,0-3.866-3.134-7-7-7-1.747,0-3.341.645-4.568,1.703-1.364-3.901-5.066-6.703-9.432-6.703s-8.068,2.803-9.432,6.703c-1.227-1.059-2.82-1.703-4.568-1.703-3.866,0-7,3.134-7,7,0,.067.008.133.01.199-4.569.923-8.01,4.959-8.01,9.801,0,5.523,4.477,10,10,10,4.832,0,8.864-3.428,9.797-7.984,1.965,2.999,5.35,4.984,9.203,4.984s7.239-1.985,9.203-4.984c.933,4.557,4.964,7.984,9.797,7.984,5.523,0,10-4.477,10-10,0-4.841-3.441-8.878-8.01-9.801Z" style="fill:#5eac24;"/><path d="m59,56c-.17,0-.34.01-.51.04-.68-1.24-2-2.04-3.49-2.04-.61,0-1.2.14-1.73.39-.89-1.45-2.5-2.39-4.27-2.39-.75,0-1.48.17-2.14.48-1.12-1.53-2.92-2.48-4.86-2.48-1.31,0-2.57.43-3.6,1.2-.13-.16-.27-.31-.4-.46v-5.85c0-1.64.57-3.23,1.62-4.47l.28-.34c1.77-2.12,3.88-3.87,6.25-5.22,1.5.74,3.15,1.14,4.85,1.14,6.07,0,11-4.93,11-11,0-4.95-3.33-9.27-8.03-10.59-.3-4.13-3.76-7.41-7.97-7.41-1.5,0-2.9.4-4.14,1.16-1.79-3.64-5.53-6.16-9.86-6.16s-8.07,2.52-9.86,6.16c-1.24-.76-2.64-1.16-4.14-1.16-4.21,0-7.67,3.28-7.97,7.41-4.7,1.32-8.03,5.64-8.03,10.59,0,6.07,4.93,11,11,11,1.73,0,3.38-.41,4.85-1.14,2.37,1.35,4.48,3.1,6.25,5.22l.28.34c1.05,1.24,1.62,2.83,1.62,4.47v5.85c-.13.15-.28.3-.4.46-1.03-.77-2.29-1.2-3.6-1.2-1.94,0-3.74.95-4.86,2.48-.66-.31-1.39-.48-2.14-.48-1.77,0-3.38.94-4.27,2.39-.53-.25-1.12-.39-1.73-.39-1.49,0-2.81.8-3.49,2.04-.17-.03-.34-.04-.51-.04-1.65,0-3,1.35-3,3v2c0,.55.45,1,1,1h58c.55,0,1-.45,1-1v-2c0-1.65-1.35-3-3-3ZM13,34c-4.96,0-9-4.04-9-9,0-3.9,2.53-7.32,6.14-8.53.21,1.11.64,2.17,1.29,3.1.2.28.51.43.83.43.19,0,.39-.06.57-.18.45-.31.56-.94.25-1.39-.67-.96-1.04-2.08-1.07-3.26,0-.03-.01-.13-.01-.17,0-3.31,2.69-6,6-6,1.25,0,2.41.39,3.4,1.09-.25.93-.4,1.9-.4,2.91,0,.55.45,1,1,1s1-.45,1-1c0-4.96,4.04-9,9-9s9,4.04,9,9c0,.55.45,1,1,1s1-.45,1-1c0-1.01-.15-1.98-.4-2.91.99-.7,2.15-1.09,3.4-1.09,3.31,0,6,2.69,6,6.06-.01.04-.01.08-.01.11-.03,1.18-.4,2.3-1.07,3.26-.31.45-.2,1.08.25,1.39.18.12.38.18.57.18.32,0,.63-.15.83-.43.65-.93,1.08-1.99,1.29-3.1,3.61,1.21,6.14,4.63,6.14,8.53,0,4.96-4.04,9-9,9-1.74,0-3.42-.49-4.87-1.43-1.01-.66-1.88-1.5-2.57-2.51-.67-.97-1.13-2.07-1.38-3.25-.09-.39-.4-.7-.8-.77-.4-.08-.8.1-1.02.44-1.31,2.02-3.31,3.49-5.64,4.14-1.7.5-3.68.51-5.45.01-2.29-.65-4.27-2.09-5.58-4.07-.17-.32-.51-.54-.89-.54-.49,0-.9.36-.98.82-.88,4.15-4.58,7.16-8.82,7.16Zm28.57-3.37c-2.4,1.62-4.61,3.51-6.57,5.66v-3.68c.09-.02.18-.04.27-.07,2.14-.59,4.05-1.77,5.54-3.39.21.51.47,1,.76,1.48Zm-12.57,1.99v3.67c-1.96-2.14-4.16-4.03-6.56-5.65.29-.47.54-.97.75-1.49,1.49,1.62,3.4,2.8,5.54,3.4.09.03.18.05.27.07Zm-3.08,6.52l-.28-.34c-1.71-2.04-3.7-3.74-5.9-5.13.55-.42,1.05-.9,1.51-1.42,2.71,1.83,5.17,4.02,7.28,6.55l.7.84c.2.23.48.36.77.36.11,0,.23-.02.34-.06.4-.14.66-.52.66-.94v-6.05c.67.06,1.34.06,2,0v6.05c0,.42.26.8.66.94.11.04.23.06.34.06.29,0,.57-.13.77-.36l.7-.84c2.11-2.53,4.56-4.72,7.28-6.55.45.53.96,1,1.5,1.43-2.2,1.39-4.19,3.09-5.89,5.12l-.28.34c-1.34,1.6-2.08,3.64-2.08,5.75v4.19c-1.2-.7-2.57-1.08-4-1.08s-2.8.38-4,1.08v-4.19c0-2.11-.74-4.15-2.08-5.75Zm34.08,20.86H4v-1c0-.55.45-1,1-1,.2,0,.37.05.52.15.27.18.62.22.93.1s.53-.39.61-.71c.2-.91,1-1.54,1.94-1.54.55,0,1.06.22,1.42.6.24.27.62.38.97.29.35-.08.63-.35.72-.7.36-1.29,1.55-2.19,2.89-2.19.68,0,1.32.23,1.86.65.24.19.55.26.85.19.29-.07.54-.27.67-.54.67-1.42,2.06-2.3,3.62-2.3,1.17,0,2.28.51,3.04,1.4.22.25.54.38.87.34.33-.03.62-.23.77-.52.29-.54.63-1.01,1.04-1.41,1.13-1.17,2.66-1.81,4.28-1.81s3.14.64,4.29,1.82c.4.39.74.86,1.03,1.4.15.29.44.49.77.52.32.04.65-.09.87-.34.76-.89,1.87-1.4,3.04-1.4,1.56,0,2.95.88,3.62,2.3.13.27.38.47.67.54.3.07.61,0,.85-.19.54-.42,1.18-.65,1.86-.65,1.34,0,2.53.9,2.89,2.19.09.35.37.62.72.7.35.09.73-.03.97-.29.36-.38.87-.6,1.42-.6.94,0,1.74.63,1.94,1.54.08.32.3.59.61.71s.66.08.93-.1c.15-.1.32-.15.52-.15.55,0,1,.45,1,1v1Z" style="fill:#231f20;"/><path d="m51,32c3.86,0,7-3.14,7-7,0-.552-.448-1-1-1s-1,.448-1,1c0,2.757-2.243,5-5,5-.552,0-1,.448-1,1s.448,1,1,1Z" style="fill:#231f20;"/><path d="m13,28c-1.654,0-3-1.346-3-3,0-.552-.448-1-1-1s-1,.448-1,1c0,2.757,2.243,5,5,5,.552,0,1-.448,1-1s-.448-1-1-1Z" style="fill:#231f20;"/><path d="m32,10c2.206,0,4,1.794,4,4,0,.552.448,1,1,1s1-.448,1-1c0-3.309-2.691-6-6-6-.552,0-1,.448-1,1s.448,1,1,1Z" style="fill:#231f20;"/><path d="m32,28c.552,0,1-.448,1-1s-.448-1-1-1c-3.86,0-7-2.691-7-6,0-.552-.448-1-1-1s-1,.448-1,1c0,4.411,4.038,8,9,8Z" style="fill:#231f20;"/></svg>