<?xml version="1.0" encoding="UTF-8"?><svg id="Layer_4" xmlns="http://www.w3.org/2000/svg" viewBox="0 0 64 64"><polygon points="29 53 37.049 55.146 55 45 54 41 45 37 40 21 24 21 19 36 11 44 10.65 44.3 20 41 29 53" style="fill:#c49a6c;"/><path d="m34,21h-10v7.5c0,.828.672,1.5,1.5,1.5s1.5-.672,1.5-1.5v-2c0-.828.672-1.5,1.5-1.5s1.5.672,1.5,1.5v12c0,.828.672,1.5,1.5,1.5s1.5-.672,1.5-1.5v-11c0-.828.672-1.5,1.5-1.5s1.5.672,1.5,1.5v5.5c0,1.105.895,2,2,2s2-.895,2-2v-12h-6Z" style="fill:#ff6243;"/><polygon points="52 61 3 61 3 47 20 41 29 53 44 57 52 61" style="fill:#8b5e3c;"/><polygon points="44 57 29 53 20 41 17.628 41.837 26 53 41 57 49 61 52 61 44 57" style="fill:#754c29;"/><path d="m34,12.201c0-.973.415-1.874,1.051-2.611.003-.004.006-.007.009-.01.291,1.543,1.781,2.661,3.465,2.375,1.221-.207,2.225-1.209,2.43-2.43.319-1.893-1.124-3.526-2.956-3.526-.78,0-1.48.3-2.01.78-.11-2.11-1.85-3.78-3.99-3.78s-3.88,1.67-3.99,3.78c-.53-.48-1.23-.78-2.01-.78-1.832,0-3.274,1.632-2.956,3.526.206,1.221,1.209,2.223,2.43,2.43,1.684.285,3.175-.833,3.465-2.375.684.795,1.06,1.809,1.06,2.858v8.562h4v-8.799Z" style="fill:#ff5023;"/><polygon points="55 45 37 55 36.765 55.071 44 57 52 61 61 61 61 45 55 45" style="fill:#a97c50;"/><polygon points="57 45 55 45 37 55 36.765 55.071 38.13 55.435 39 55 57 45" style="fill:#8b5e3c;"/><path d="m46,23v-1c0-.552-.448-1-1-1s-1,.448-1,1v1c0,.552.448,1,1,1s1-.448,1-1Z" style="fill:#231f20;"/><path d="m50,20v-1c0-.552-.448-1-1-1s-1,.448-1,1v1c0,.552.448,1,1,1s1-.448,1-1Z" style="fill:#231f20;"/><path d="m49,24v1c0,.552.448,1,1,1s1-.448,1-1v-1c0-.552-.448-1-1-1s-1,.448-1,1Z" style="fill:#231f20;"/><path d="m46,29c.552,0,1-.448,1-1v-1c0-.552-.448-1-1-1s-1,.448-1,1v1c0,.552.448,1,1,1Z" style="fill:#231f20;"/><path d="m50,31v1c0,.552.448,1,1,1s1-.448,1-1v-1c0-.552-.448-1-1-1s-1,.448-1,1Z" style="fill:#231f20;"/><path d="m52,37c0,.552.448,1,1,1s1-.448,1-1v-1c0-.552-.448-1-1-1s-1,.448-1,1v1Z" style="fill:#231f20;"/><path d="m47,35c.552,0,1-.448,1-1v-1c0-.552-.448-1-1-1s-1,.448-1,1v1c0,.552.448,1,1,1Z" style="fill:#231f20;"/><path d="m11,32v1c0,.552.448,1,1,1s1-.448,1-1v-1c0-.552-.448-1-1-1s-1,.448-1,1Z" style="fill:#231f20;"/><path d="m11,28c.552,0,1-.448,1-1v-1c0-.552-.448-1-1-1s-1,.448-1,1v1c0,.552.448,1,1,1Z" style="fill:#231f20;"/><path d="m11,39c.552,0,1-.448,1-1v-1c0-.552-.448-1-1-1s-1,.448-1,1v1c0,.552.448,1,1,1Z" style="fill:#231f20;"/><path d="m18,26c0,.552.448,1,1,1s1-.448,1-1v-1c0-.552-.448-1-1-1s-1,.448-1,1v1Z" style="fill:#231f20;"/><path d="m14,24c.552,0,1-.448,1-1v-1c0-.552-.448-1-1-1s-1,.448-1,1v1c0,.552.448,1,1,1Z" style="fill:#231f20;"/><path d="m14,19c.552,0,1-.448,1-1v-5c0-1.654,1.346-3,3-3h1c.552,0,1-.448,1-1s-.448-1-1-1h-1c-2.757,0-5,2.243-5,5v5c0,.552.448,1,1,1Z" style="fill:#231f20;"/><path d="m15,27c-.552,0-1,.448-1,1v2c0,.552.448,1,1,1s1-.448,1-1v-2c0-.552-.448-1-1-1Z" style="fill:#231f20;"/><path d="m45,7h-1c-.552,0-1,.448-1,1s.448,1,1,1h1c1.654,0,3,1.346,3,3v3c0,.552.448,1,1,1s1-.448,1-1v-3c0-2.757-2.243-5-5-5Z" style="fill:#231f20;"/><path d="m61,44h-5.22l-.81-3.24c-.07-.3-.28-.55-.56-.67l-8.59-3.82-4.87-15.57c-.13-.42-.51-.7-.95-.7h-1v-1.5c0-1.38,1.12-2.5,2.5-2.5s2.5,1.12,2.5,2.5c0,.55.45,1,1,1s1-.45,1-1c0-2.48-2.02-4.5-4.5-4.5s-4.5,2.02-4.5,4.5v1.5h-2v-7.8c0-.17.02-.33.05-.48.88.96,2.23,1.46,3.64,1.22,1.64-.28,2.98-1.61,3.25-3.25.2-1.18-.12-2.37-.88-3.27-1.06-1.25-2.87-1.73-4.38-1.19-.72-1.9-2.55-3.23-4.68-3.23s-3.96,1.33-4.68,3.23c-1.51-.54-3.32-.06-4.38,1.19-.76.9-1.08,2.09-.88,3.27.27,1.64,1.61,2.97,3.25,3.25,1.4.24,2.73-.25,3.62-1.2.05.23.07.46.07.7v7.56h-2v-2c0-2.21-1.79-4-4-4s-4,1.79-4,4v3c0,.55.45,1,1,1s1-.45,1-1v-3c0-1.1.9-2,2-2s2,.9,2,2v2h-1c-.43,0-.81.28-.95.68l-4.92,14.78-7.95,7.95-7.51,2.65c-.4.14-.67.52-.67.94v14c0,.55.45,1,1,1h58c.55,0,1-.45,1-1v-16c0-.55-.45-1-1-1ZM28.68,8.61c-.37.1-.65.41-.72.79-.2,1.06-1.22,1.75-2.32,1.57-.8-.14-1.48-.81-1.61-1.61-.1-.61.05-1.19.44-1.65.38-.45.94-.71,1.53-.71.63,0,1.08.28,1.34.52.29.26.7.33,1.05.18.36-.14.6-.48.62-.87.08-1.59,1.4-2.83,2.99-2.83s2.91,1.24,2.99,2.83c.02.39.26.73.62.87.35.15.77.08,1.05-.18.26-.24.71-.52,1.34-.52.59,0,1.15.26,1.53.71.39.46.54,1.04.44,1.65-.13.8-.81,1.47-1.61,1.61-1.1.18-2.12-.51-2.32-1.57-.07-.38-.35-.68-.72-.78-.37-.1-.78.03-1.03.32-.84.98-1.29,2.11-1.29,3.26v7.8h-2v-7.56c0-1.29-.46-2.54-1.3-3.51-.25-.29-.65-.41-1.02-.32Zm-3.68,13.39h14v11c0,.55-.45,1-1,1s-1-.45-1-1v-5.5c0-1.38-1.12-2.5-2.5-2.5s-2.5,1.12-2.5,2.5v11c0,.28-.22.5-.5.5s-.5-.22-.5-.5v-12c0-1.38-1.12-2.5-2.5-2.5s-2.5,1.12-2.5,2.5v2c0,.28-.22.5-.5.5s-.5-.22-.5-.5v-6.5Zm-5.29,14.71c.11-.11.19-.25.24-.39l3.05-9.16v1.34c0,1.38,1.12,2.5,2.5,2.5s2.5-1.12,2.5-2.5v-2c0-.28.22-.5.5-.5s.5.22.5.5v12c0,1.38,1.12,2.5,2.5,2.5s2.5-1.12,2.5-2.5v-11c0-.28.22-.5.5-.5s.5.22.5.5v5.5c0,1.65,1.35,3,3,3s3-1.35,3-3v-5.45l3.05,9.75c.08.27.28.5.54.61l8.56,3.81.69,2.78-4.59,2.55c-.03-.01-5.77-.98-5.77-.98l-2.77-2.78c-.19-.18-.44-.29-.71-.29h-5c-.55,0-1,.45-1,1s.45,1,1,1h4.59l2.7,2.71c.15.14.34.24.55.28l3.63.6-9.76,5.43-7.12-1.9-3.09-4.12h2.5c.55,0,1-.45,1-1s-.45-1-1-1h-4l-4.2-5.6c-.26-.35-.72-.49-1.13-.34l-5.12,1.8,5.16-5.15Zm-15.71,23.29v-9h5.5l2.7,3.6c.14.18.33.31.56.37l8,2c.08.02.16.03.24.03.45,0,.86-.3.97-.76.13-.53-.19-1.08-.73-1.21l-7.65-1.91-2.79-3.72c-.19-.25-.49-.4-.8-.4h-6v-1.29l15.64-5.52,8.56,11.41c.13.18.33.31.54.37l14.9,3.97,4.12,2.06H4Zm56-8h-5c-.43,0-.81.28-.95.68l-1,3c-.17.53.11,1.09.63,1.27.11.03.22.05.32.05.42,0,.81-.26.95-.68l.77-2.32h4.28v6h-7.76l-7.79-3.89c-.06-.03-.13-.06-.19-.08l-4.77-1.27,15.77-8.76h4.74v6Z" style="fill:#231f20;"/><path d="m14.243,4.97l.996-.249c1.636-.411,3.379-.107,4.783.829l.423.282c.17.114.363.168.554.168.323,0,.64-.156.833-.445.306-.459.182-1.081-.277-1.387l-.423-.282c-1.87-1.248-4.194-1.651-6.378-1.105l-.996.249c-.536.134-.861.677-.728,1.213.135.536.678.863,1.213.728Z" style="fill:#231f20;"/><path d="m43.001,6c.19,0,.383-.054.554-.168l.423-.282c1.404-.936,3.147-1.239,4.783-.829.536.135,1.079-.192,1.213-.728s-.192-1.079-.728-1.213c-2.182-.546-4.507-.142-6.378,1.105l-.423.282c-.459.306-.583.927-.277,1.387.193.289.51.445.833.445Z" style="fill:#231f20;"/></svg>