<?xml version="1.0" encoding="UTF-8"?><svg id="Layer_48" xmlns="http://www.w3.org/2000/svg" viewBox="0 0 64 64"><path d="m17,19S3,39.268,3,47s6.268,14,14,14,14-6.268,14-14-14-28-14-28Z" style="fill:#9bc9ff;"/><path d="m5,47c0-6.471,9.802-21.716,13-26.518-.623-.936-1-1.482-1-1.482,0,0-14,20.268-14,28s6.268,14,14,14c.338,0,.668-.027,1-.05-7.263-.515-13-6.555-13-13.95Z" style="fill:#57a4ff;"/><path d="m35,3s-8,13.582-8,18,3.582,8,8,8,8-3.582,8-8S35,3,35,3Z" style="fill:#bddbff;"/><path d="m29,21c0-3.442,4.854-12.444,7-16.254-.609-1.081-1-1.746-1-1.746,0,0-8,13.582-8,18s3.582,8,8,8c.339,0,.672-.028,1-.069-3.945-.493-7-3.852-7-7.931Z" style="fill:#9bc9ff;"/><path d="m50,23s-11,14.925-11,21,4.925,11,11,11,11-4.925,11-11-11-21-11-21Z" style="fill:#9bc9ff;"/><path d="m41,44c0-4.946,7.29-15.756,10-19.604-.619-.879-1-1.396-1-1.396,0,0-11,14.925-11,21s4.925,11,11,11c.338,0,.67-.021,1-.05-5.606-.506-10-5.212-10-10.95Z" style="fill:#57a4ff;"/><path d="m17,62c-8.271,0-15-6.729-15-15,0-7.952,13.599-27.73,14.177-28.568.375-.541,1.271-.541,1.646,0,.578.838,14.177,20.616,14.177,28.568,0,8.271-6.729,15-15,15Zm0-41.213c-2.977,4.458-13,19.938-13,26.213,0,7.168,5.832,13,13,13s13-5.832,13-13c0-6.276-10.023-21.755-13-26.213Z" style="fill:#231f20;"/><path d="m17,58c-6.065,0-11-4.935-11-11,0-.552.447-1,1-1s1,.448,1,1c0,4.962,4.037,9,9,9,.553,0,1,.448,1,1s-.447,1-1,1Z" style="fill:#231f20;"/><path d="m35,30c-4.963,0-9-4.038-9-9,0-4.56,7.306-17.093,8.139-18.507.359-.61,1.363-.61,1.723,0,.833,1.414,8.139,13.948,8.139,18.507,0,4.962-4.037,9-9,9Zm0-24.998c-2.535,4.475-7,12.982-7,15.998,0,3.86,3.141,7,7,7s7-3.14,7-7c0-3.016-4.465-11.523-7-15.998Z" style="fill:#231f20;"/><path d="m35,26c-2.757,0-5-2.243-5-5,0-.552.447-1,1-1s1,.448,1,1c0,1.654,1.346,3,3,3,.553,0,1,.448,1,1s-.447,1-1,1Z" style="fill:#231f20;"/><path d="m50,56c-6.617,0-12-5.383-12-12,0-6.331,10.738-20.973,11.195-21.593.377-.512,1.232-.512,1.609,0,.457.62,11.195,15.262,11.195,21.593,0,6.617-5.383,12-12,12Zm0-31.293c-3.396,4.776-10,14.958-10,19.293,0,5.514,4.486,10,10,10s10-4.486,10-10c0-4.338-6.604-14.519-10-19.293Z" style="fill:#231f20;"/><path d="m50,52c-4.411,0-8-3.589-8-8,0-.552.447-1,1-1s1,.448,1,1c0,3.309,2.691,6,6,6,.553,0,1,.448,1,1s-.447,1-1,1Z" style="fill:#231f20;"/></svg>