<?xml version="1.0" encoding="UTF-8"?><svg id="Layer_8" xmlns="http://www.w3.org/2000/svg" viewBox="0 0 64 64"><path d="m17,13h44v48H21c-2.208,0-4-1.792-4-4V13h0Z" style="fill:#8b5e3c;"/><path d="m47,61h-26c-2.21,0-4-1.79-4-4V13h12c5.52,0,10,4.48,10,10v30c0,4.42,3.58,8,8,8Z" style="fill:#9bc9ff;"/><path d="m41,53v-30c0-5.52-4.48-10-10-10h-2c5.52,0,10,4.48,10,10v30c0,4.42,3.58,8,8,8h2c-4.42,0-8-3.58-8-8Z" style="fill:#754c29;"/><path d="m19,57V13h-2v44c0,2.21,1.79,4,4,4h2c-2.21,0-4-1.79-4-4Z" style="fill:#57a4ff;"/><path d="m17,57V13c0-2.209-1.791-4-4-4H3v50c0-2.76,2.24-5,5-5s5,2.24,5,5c0,.71-.15,1.39-.41,2h8.41c-2.209,0-4-1.791-4-4Z" style="fill:#a97c50;"/><path d="m8,54c-2.76,0-5,2.24-5,5v2h9.59c.26-.61.41-1.29.41-2,0-2.76-2.24-5-5-5Z" style="fill:#7ed63e;"/><path d="m35,58c-.43,0-.84.09-1.21.26.14-.4.21-.82.21-1.26,0-2.21-1.79-4-4-4-1.61,0-3,.95-3.63,2.33-.41-.21-.88-.33-1.37-.33-1.66,0-3,1.34-3,3s1.34,3,3,3h13c0-1.66-1.34-3-3-3Z" style="fill:#57a4ff;"/><path d="m13,7c0-1.1-.9-2-2-2-.4,0-.77.11-1.08.32-.3-1.33-1.49-2.32-2.92-2.32-1.66,0-3,1.34-3,3s1.34,3,3,3h4c1.1,0,2-.9,2-2Z" style="fill:#5eac24;"/><path d="m57,8c0-2.76-2.24-5-5-5-1.85,0-3.46,1-4.33,2.5-.48-.31-1.05-.5-1.67-.5-1.66,0-3,1.34-3,3-2.21,0-4,1.79-4,4,0,.35.04.68.13,1h21.74c.09-.32.13-.65.13-1,0-2.21-1.79-4-4-4Z" style="fill:#4e901e;"/><path d="m53,53c-2.209,0-4,1.791-4,4s1.791,4,4,4h5l-1-4c0-2.209-1.791-4-4-4Z" style="fill:#4e901e;"/><path d="m58,55c-1.657,0-3,1.343-3,3s1.343,3,3,3h3v-3c0-1.657-1.343-3-3-3Z" style="fill:#5eac24;"/><path d="m57.93,7.09c-.44-2.88-2.93-5.09-5.93-5.09-1.82,0-3.53.84-4.66,2.23-.43-.15-.88-.23-1.34-.23-1.89,0-3.48,1.32-3.89,3.08-2.34.42-4.11,2.47-4.11,4.92h-20.11c-.41-2.02-2.05-3.59-4.1-3.92.13-.34.21-.7.21-1.08,0-1.65-1.35-3-3-3-.18,0-.35.02-.52.05-.68-1.24-1.99-2.05-3.48-2.05-2.21,0-4,1.79-4,4,0,.73.21,1.41.56,2h-.56c-.55,0-1,.45-1,1v52c0,.55.45,1,1,1h58c.55,0,1-.45,1-1V12c0-2.44-1.76-4.48-4.07-4.91ZM7,4c.94,0,1.74.63,1.94,1.54.13.54.66.88,1.2.76.07-.02.66-.3.86-.3.55,0,1,.45,1,1s-.45,1-1,1h-4c-1.1,0-2-.9-2-2s.9-2,2-2Zm4.86,56h-7.86v-1c0-2.21,1.79-4,4-4s4,1.79,4,4c0,.34-.06.67-.14,1Zm2.05,0c.06-.33.09-.66.09-1,0-3.31-2.69-6-6-6-1.54,0-2.94.59-4,1.54V10h9c1.65,0,3,1.35,3,3v44c0,1.13.39,2.16,1.03,3h-3.12Zm11.09,0c-1.1,0-2-.9-2-2s.9-2,2-2c.32,0,.63.08.91.22.25.12.53.14.79.05.26-.08.47-.28.58-.52.48-1.06,1.55-1.75,2.72-1.75,1.65,0,3,1.35,3,3,0,.33-.05.63-.15.93-.14.38-.03.8.27,1.07.29.27.72.34,1.09.17.24-.11.51-.17.79-.17.74,0,1.38.41,1.72,1h-11.72Zm13.86,0c-.45-1.72-2-3-3.86-3,0-2.76-2.24-5-5-5-1.63,0-3.15.8-4.08,2.11-.3-.07-.61-.11-.92-.11-2.21,0-4,1.79-4,4,0,.73.21,1.41.56,2h-.56c-1.65,0-3-1.35-3-3V14h11c4.96,0,9,4.04,9,9v30c0,2.83,1.31,5.35,3.36,7h-2.5Zm15.7,0h-1.56c-1.65,0-3-1.35-3-3s1.35-3,3-3c.9,0,1.73.41,2.29,1.07-.79.74-1.29,1.77-1.29,2.93,0,.73.21,1.41.56,2Zm5.44,0h-2c-1.1,0-2-.9-2-2s.9-2,2-2,2,.9,2,2v2Zm0-5.44c-.59-.35-1.27-.56-2-.56-.32,0-.63.05-.93.12-.92-1.31-2.43-2.12-4.07-2.12-2.76,0-5,2.24-5,5,0,1.13.39,2.16,1.03,3h-2.03c-3.86,0-7-3.14-7-7v-30c0-3.72-1.86-7.01-4.7-9h24.7v40.56ZM40,12c0-1.65,1.35-3,3-3,.55,0,1-.45,1-1,0-1.1.9-2,2-2,.39,0,.78.12,1.13.34.23.15.51.2.77.13.27-.06.5-.23.64-.47.72-1.25,2.02-2,3.46-2,2.21,0,4,1.79,4,4,0,.55.45,1,1,1,1.65,0,3,1.35,3,3h-20Z" style="fill:#231f20;"/><path d="m35,34v-5.686c0-4.297-1.479-8.513-4.22-11.94-.345-.43-.946-.465-1.377-.12-.431.345-.472,1.009-.127,1.439,2.402,3.003,3.725,6.775,3.725,10.62v5.686c0,.552.448,1,1,1s1-.448,1-1Z" style="fill:#231f20;"/><path d="m35,39c-.552,0-1,.448-1,1v11c0,.552.448,1,1,1s1-.448,1-1v-11c0-.552-.448-1-1-1Z" style="fill:#231f20;"/><path d="m22,28c.552,0,1-.448,1-1v-3c0-.552-.448-1-1-1s-1,.448-1,1v3c0,.552.448,1,1,1Z" style="fill:#231f20;"/><path d="m23,36v-3c0-.552-.448-1-1-1s-1,.448-1,1v3c0,.552.448,1,1,1s1-.448,1-1Z" style="fill:#231f20;"/><path d="m31,44c-.552,0-1,.448-1,1v3c0,.552.448,1,1,1s1-.448,1-1v-3c0-.552-.448-1-1-1Z" style="fill:#231f20;"/><path d="m23.949,16.684c-.175-.523-.74-.809-1.265-.632-.524.175-.807.741-.632,1.265l1,3c.14.419.53.684.949.684.104,0,.211-.017.316-.052.524-.175.807-.741.632-1.265l-1-3Z" style="fill:#231f20;"/><path d="m27,42c-.552,0-1,.448-1,1v5c0,.552.448,1,1,1s1-.448,1-1v-5c0-.552-.448-1-1-1Z" style="fill:#231f20;"/><path d="m23,40c-.552,0-1,.448-1,1v11c0,.552.448,1,1,1s1-.448,1-1v-11c0-.552-.448-1-1-1Z" style="fill:#231f20;"/><path d="m30,32.472c0-3.081-.728-6.165-2.105-8.919-.247-.494-.847-.695-1.342-.447-.494.247-.694.848-.447,1.342,1.239,2.478,1.895,5.253,1.895,8.025v6.528c0,.552.448,1,1,1s1-.448,1-1v-6.528Z" style="fill:#231f20;"/></svg>