<?xml version="1.0" ?><!DOCTYPE svg  PUBLIC '-//W3C//DTD SVG 1.1//EN'  'http://www.w3.org/Graphics/SVG/1.1/DTD/svg11.dtd'><!-- Uploaded to: SVG Repo, www.svgrepo.com, Generator: SVG Repo Mixer Tools -->
<svg fill="#000000" width="800px" height="800px" viewBox="0 0 512 512" enable-background="new 0 0 512 512" id="runway_x5F_plane" version="1.1" xml:space="preserve" xmlns="http://www.w3.org/2000/svg" xmlns:xlink="http://www.w3.org/1999/xlink"><rect height="42.694" width="30.637" x="240.682" y="350.788"/><rect height="42.694" width="30.637" x="240.682" y="425.374"/><rect height="424.137" width="32.936" x="55.227" y="43.932"/><rect height="424.137" width="32.936" x="423.838" y="43.932"/><path d="M129.54,176.152l96.918,43.42l-3.801,44.377c-2.643,20.324,1.347,33.335,7.366,41.658  c12.819,17.727,38.619,17.725,51.387-0.039c5.984-8.324,9.94-21.326,7.303-41.619l-3.801-44.377l96.918-43.42  c4.533-2.025,7.592-5.967,8.113-10.454l2.162-18.59c0.416-3.572-3.215-6.461-7.16-5.699l-105.123,18.731l-5.087-59.387  l28.925-17.012c3.021-1.777,5.066-4.836,5.553-8.306l1.343-9.588c0.386-2.749-2.087-5.038-4.798-4.444l-34.328,7.524  c-0.296-0.958-0.632-1.904-1.061-2.814c-2.09-4.437-6.422-9.753-14.628-9.803l-0.113-0.001c-8.205,0.05-12.537,5.367-14.627,9.804  c-0.429,0.91-0.765,1.856-1.061,2.814l-34.329-7.524c-2.71-0.594-5.183,1.695-4.798,4.444l1.344,9.588  c0.486,3.47,2.531,6.529,5.552,8.306l28.926,17.012l-5.087,59.387l-105.123-18.731c-3.945-0.763-7.576,2.127-7.16,5.699l2.162,18.59  C121.948,170.186,125.007,174.127,129.54,176.152z M271.377,276.037c1.957,0,3.543,1.586,3.543,3.543v3.239  c0,10.449-8.471,18.92-18.92,18.92l0,0c-10.449,0-18.921-8.471-18.921-18.92v-3.239c0-1.957,1.587-3.543,3.544-3.543H271.377z"/></svg>