<?xml version="1.0" ?><!DOCTYPE svg  PUBLIC '-//W3C//DTD SVG 1.1//EN'  'http://www.w3.org/Graphics/SVG/1.1/DTD/svg11.dtd'><!-- Uploaded to: SVG Repo, www.svgrepo.com, Generator: SVG Repo Mixer Tools -->
<svg fill="#000000" width="800px" height="800px" viewBox="0 0 512 512" enable-background="new 0 0 512 512" id="airport" version="1.1" xml:space="preserve" xmlns="http://www.w3.org/2000/svg" xmlns:xlink="http://www.w3.org/1999/xlink"><path d="M354.796,309.438H103.652c-2.725,0-4.934,2.209-4.934,4.934v18.268h-2.926c-5.416,0-9.807,4.391-9.807,9.807v126.588h41.108  v-74.574h45.278v74.574h34.047v-74.574h45.278v74.574h34.046v-74.574v-1.385h45.278v1.385v74.574h34.047v-74.574h45.278v74.574  h41.109V342.445c0-5.416-4.392-9.807-9.808-9.807h-2.925v-18.268c0-2.725-2.209-4.934-4.934-4.934h-14.537v-56.341h-64.458V309.438z   M172.373,372.912h-45.278v-19.453h45.278V372.912z M251.698,372.912H206.42v-19.453h45.278V372.912z M331.022,372.256h-45.278  v-18.797h45.278V372.256z M410.348,372.256v0.656h-45.278v-0.656v-18.797h45.278V372.256z"/><path d="M331.719,166.891c1.514,4.569,5.785,7.653,10.599,7.653h12.479v29.462h64.458v-29.462h13.162  c4.813,0,9.085-3.084,10.6-7.653l13.639-41.141c1.05-3.167-1.308-6.432-4.645-6.432h-20.188v-18.371c0-2.604-2.11-4.714-4.715-4.714  h-30.354V58.96h17.805c6.605,0,11.961-5.354,11.961-11.96v-4.033h-78.301V47c0,6.605,5.354,11.96,11.961,11.96h17.804v37.272  h-30.354c-2.604,0-4.714,2.111-4.714,4.714v18.371h-20.189c-3.336,0-5.694,3.265-4.645,6.432L331.719,166.891z M431.828,135.03  c2.261,0,3.859,2.215,3.148,4.361l-5.691,17.167c-0.45,1.357-1.719,2.273-3.148,2.273h-27.055c-1.831,0-3.316-1.485-3.316-3.317  v-17.167c0-1.832,1.485-3.317,3.316-3.317H431.828z M342.906,135.03h32.745c1.832,0,3.317,1.485,3.317,3.317v17.167  c0,1.832-1.485,3.317-3.317,3.317h-27.054c-1.43,0-2.699-0.916-3.148-2.273l-5.691-17.167  C339.046,137.245,340.645,135.03,342.906,135.03z"/><polygon points="419.254,236.323 419.254,218.005 354.796,218.005 354.796,236.323 354.796,239.097 419.254,239.097 "/><path d="M57.354,89.034c0.938,1.525,2.202,2.84,3.653,3.888l57.412,41.479l16.448,97.619c0.655,3.888,2.64,7.429,5.614,10.018  l10.22,8.895c2.755,2.399,7.056,0.462,7.085-3.191l0.68-84.406l57.237,41.354c13.063,9.438,30.591,9.853,44.086,1.043l22.049-14.393  c2.505-1.635,2.968-5.115,0.979-7.348l-2.428-2.727c-4.456-5.003-11.213-7.298-17.794-6.042l-25.207,4.81l-116.816-99.23  c-11.382-9.669-25.806-15.337-40.738-15.125c-4.75,0.068-9.725,0.696-14.664,2.202c-8.892,2.711-12.791,12.814-8.03,20.799  C57.21,88.796,57.282,88.915,57.354,89.034z"/><path d="M187.879,123.313c3.513,3.129,8.112,4.758,12.812,4.537l61.257-2.879c2.973-0.667,3.793-4.513,1.354-6.336l-9.051-6.761  c-2.634-1.968-5.868-2.961-9.152-2.81l-73.858-8.1c-2.998-0.329-4.649,3.386-2.397,5.392L187.879,123.313z"/></svg>