<svg xmlns="http://www.w3.org/2000/svg" viewBox="0 0 512 512"><title>Baggage01</title><g id="Baggage01"><g id="Baggage01-2" data-name="Baggage01"><path d="M349.5413,150.1653H326.4421V86.9836a29.9591,29.9591,0,0,0-29.925-29.925H215.8858a29.9615,29.9615,0,0,0-29.925,29.925v63.1817H162.8625a36.148,36.148,0,0,0-36.1066,36.1056v197.296a36.15,36.15,0,0,0,29.6362,35.4977v19.5843a16.31,16.31,0,0,0,16.2887,16.2925H202.563a16.31,16.31,0,0,0,16.2925-16.2925v-18.97h74.689v18.97a16.31,16.31,0,0,0,16.29,16.2925h29.8813a16.31,16.31,0,0,0,16.2925-16.2925V419.0646a36.1423,36.1423,0,0,0,29.6362-35.4977V186.2709A36.1429,36.1429,0,0,0,349.5413,150.1653Zm-143.63-63.1817a9.9872,9.9872,0,0,1,9.975-9.975h80.6313a9.9872,9.9872,0,0,1,9.975,9.975v63.1817H205.9108Zm-7.0053,348.0078H176.3383V419.6793h22.5672Zm114.589,0V419.6793h22.5672v15.3121Zm52.2025-51.4245a16.1762,16.1762,0,0,1-16.1557,16.16H162.8587a16.1763,16.1763,0,0,1-16.1557-16.16V186.2709a16.1729,16.1729,0,0,1,16.1557-16.1557H349.5413a16.1729,16.1729,0,0,1,16.1557,16.1557Z"/></g></g></svg>