<svg xmlns="http://www.w3.org/2000/svg" viewBox="0 0 512 512"><title>Baggage02</title><g id="Baggage02"><g id="Baggage02-2" data-name="Baggage02"><path d="M390.1111,128.1576h-65.493a42.8159,42.8159,0,0,0-42.334-36.9142H231.7907a42.82,42.82,0,0,0-42.3368,36.9142H121.8928a53.262,53.262,0,0,0-53.2,53.2v186.199a53.262,53.262,0,0,0,53.2,53.2H390.1111a53.2612,53.2612,0,0,0,53.1961-53.2v-186.2A53.256,53.256,0,0,0,390.1111,128.1576Zm-158.32-16.9642h50.4934a22.8568,22.8568,0,0,1,22.0448,16.9642H209.7431A22.8677,22.8677,0,0,1,231.7907,111.1934Zm191.57,256.3641a33.2853,33.2853,0,0,1-33.2472,33.25H121.8928a33.2877,33.2877,0,0,1-33.25-33.25v-186.2a33.2877,33.2877,0,0,1,33.25-33.25H390.1111a33.2844,33.2844,0,0,1,33.2461,33.25v186.2Z"/><path d="M336.7942,217.0016a8.7714,8.7714,0,1,1-17.5427-.0267v-9.9721l-60.9007-.0427v61.615h17.9056v58.3738H379.7931V268.5751h17.9018V206.96l-60.9007.0693Zm18.1716,9.9446,22.7829-.0134v21.6924H359.8431v58.3737H296.2064V248.6252H278.3008V226.9328l22.7763.0134a28.7208,28.7208,0,0,0,53.8887,0Z"/><path d="M122.7839,206.8166l-6.8523,155.8893H238.3581l-6.8534-155.8893Zm63.84,135.9393V262.6006h-19.95V342.753H136.7793l5.0968-115.9893h70.54l5.0967,115.9893H186.6239Z"/></g></g></svg>