<svg xmlns="http://www.w3.org/2000/svg" viewBox="0 0 512 512"><title>Baggage03</title><g id="Baggage03"><g id="Baggage03-2" data-name="Baggage03"><path d="M390.1067,128.1576H324.6146a42.82,42.82,0,0,0-42.3377-36.9142H231.7836a42.82,42.82,0,0,0-42.3369,36.9142H121.8894a53.262,53.262,0,0,0-53.2,53.2v186.199a53.262,53.262,0,0,0,53.2,53.2H390.1067a53.263,53.263,0,0,0,53.2039-53.2v-186.2A53.2653,53.2653,0,0,0,390.1067,128.1576ZM231.7836,111.1934h50.4933a22.861,22.861,0,0,1,22.0448,16.9642h-94.583A22.862,22.862,0,0,1,231.7836,111.1934ZM423.3567,367.5575a33.2884,33.2884,0,0,1-33.2529,33.25H121.8894a33.2877,33.2877,0,0,1-33.25-33.25v-186.2a33.2877,33.2877,0,0,1,33.25-33.25H390.1067a33.2886,33.2886,0,0,1,33.2539,33.25v186.2Z"/><path d="M344.7071,185.7228a29.4764,29.4764,0,0,0-21.0205-8.6184,31.9054,31.9054,0,0,0-22.77,9.6862l-24.4122,26.0908-90.62-27.1254-19.571,19.56a14.3027,14.3027,0,0,0,.0371,20.1828l.9975.9975,63.3545,34.87L206.69,285.7958,178.1018,279.96l-13.34,13.3532a13.2047,13.2047,0,0,0-.0066,18.7L218.82,366.0774a13.1175,13.1175,0,0,0,9.3432,3.87h0a13.097,13.097,0,0,0,9.3461-3.8731l13.3665-13.3532-5.9783-29.1308,24.2962-23.96,35.1416,63.8572,1.004,1.0041a14.2723,14.2723,0,0,0,20.1894,0L345.0767,344.95l-27.3049-91.2342,26.1041-24.4321C356.1119,217.0443,356.4843,197.5038,344.7071,185.7228Zm-14.703,29.2239-34.8927,32.6448,27.4379,91.6665-5.6591,5.6591-42.9353-78.0045-50.7765,50.0812,5.9954,29.2106-1.0079,1.007-44.5417-44.5483,1.0109-1.0109,28.6918,5.8558,50.0612-50.9266-77.4792-42.6426,5.6592-5.6554,91.0613,27.2583,32.6287-34.883a11.9073,11.9073,0,0,1,8.4285-3.6005,9.656,9.656,0,0,1,6.9092,2.773C334.5991,203.8345,334.2267,210.7173,330.0041,214.9467Z"/></g></g></svg>