<svg xmlns="http://www.w3.org/2000/svg" viewBox="0 0 512 512"><title>Compass</title><g id="Compass"><g id="Compass-2" data-name="Compass"><path d="M169.7856,343.57,280.92,282.278l61.2864-111.132-111.131,61.29Zm71.022-87.4741,16.3761,16.4891-36.6016,20.1894Zm30.4637,2.3645-16.3021-16.4188,36.4421-20.0963Z"/><path d="M256,88.64C163.718,88.64,88.6394,163.718,88.6394,256S163.718,423.3606,256,423.3606,423.3606,348.2821,423.3606,256C423.3568,163.718,348.2783,88.64,256,88.64Zm9.975,314.3958V372.8472h-19.95v30.1881a147.58,147.58,0,0,1-137.0631-137.06h30.191v-19.95h-30.191a147.5781,147.5781,0,0,1,137.0631-137.06v30.192h19.95v-30.191A147.5732,147.5732,0,0,1,403.0315,246.025h-30.191v19.95h30.191A147.5773,147.5773,0,0,1,265.975,403.0353Z"/></g></g></svg>