<svg xmlns="http://www.w3.org/2000/svg" viewBox="0 0 512 512"><title>Landing</title><g id="Landing"><g id="Landing-2" data-name="Landing"><path d="M408.4536,323.5554l-4.6654-1.253L79.7,235.4629l8.9775-32.3485-5.26-55.1456.4693-1.7422a15.7393,15.7393,0,0,1,19.2318-11.1255l26.1212,7.0062,39.747,45.8347,54.4664,12.2464L194.08,91.231l.6954-2.59a17.5862,17.5862,0,0,1,21.5527-12.4421l41.439,11.1017,68.5814,136.6974,68.1,15.8336c25.5123,6.8467,40.9469,32.2763,34.41,56.6847a44.2117,44.2117,0,0,1-16.5319,24.1528ZM104.3092,221.4048,403.8015,301.657a24.0049,24.0049,0,0,0,5.7893-10.3075c3.6774-13.7389-5.3571-28.159-20.16-32.2126L312.72,241.3121,243.9526,104.2555l-27.7039-7.4213,35.0654,130.0739L158.21,205.9739l-40.0425-46.1775-13.9384-3.7412,4.6617,48.8377Z"/><rect x="74.9894" y="381.5368" width="362.4212" height="19.95"/><rect x="74.9894" y="416.4531" width="362.4212" height="19.95"/></g></g></svg>