<svg xmlns="http://www.w3.org/2000/svg" viewBox="0 0 512 512"><title>Plane_Maintenance</title><g id="Plane_Maintenance" data-name="Plane Maintenance"><g id="Plane_Maintenance-2" data-name="Plane Maintenance"><path d="M323.7773,157.6427a32.1269,32.1269,0,0,0-22.8162,9.556l-25.15,26.8755-92.2326-27.607-19.8,19.81a14.34,14.34,0,0,0,.0066,20.3186l.9975.9946,65.037,35.797-20.6881,22.44a41.4686,41.4686,0,0,0-3.4751,3.97l-29.7416-7.6969-13.7589,13.7655a13.2632,13.2632,0,0,0,0,18.7758l1.1239,1.1238,34.4336,17.47.874.874,17.47,34.447,1.1438,1.1343a13.2134,13.2134,0,0,0,9.37,3.8636h.0038a13.1806,13.1806,0,0,0,9.3832-3.8864l13.7588-13.7655-7.8508-30.3506A42.0232,42.0232,0,0,0,245.58,302.28l22.5635-20.805,36.0895,65.5794,1.007,1.0042a14.362,14.362,0,0,0,20.3-.0038l19.8075-19.817L317.56,235.3812l26.4071-24.7019.2422-.2328c12.3795-12.3851,12.7547-32.1594.8379-44.0857A29.8381,29.8381,0,0,0,323.7773,157.6427Zm6.42,38.5928-35.3011,33.0172,27.9168,93.3-5.9955,5.9983L273.34,249.5485l-41.4191,38.1843-.29.2765a21.367,21.367,0,0,1-5.6392,4.0831l-7.2846,3.5843,7.3843,28.5513L214.94,302.2431l-5.3732-5.3665-21.9745-11.1483,28.083,7.2685,3.5444-7.4015a21.4264,21.4264,0,0,1,4.17-5.8159l38.3534-41.5957-78.47-43.188,5.9983-5.9983,92.6677,27.7372,33.23-35.5243a12.302,12.302,0,0,1,8.6155-3.6176,10.0152,10.0152,0,0,1,7.1526,2.8661C335.0452,184.578,334.7032,191.627,330.1974,196.2355Z"/><path d="M411.73,265.6187l38.8122-14.9026-9.4762-53.8023-40.1755-.6945a155.534,155.534,0,0,0-19.0921-34.2209l19.418-35.0227L359.3681,91.8609,329,116.4488a154.78,154.78,0,0,0-37.6418-14.0543L283.88,63.8976H229.2437l-7.428,38.2375a154.6723,154.6723,0,0,0-37.6685,13.7218l-30.7-24.8539-41.8514,35.1082L130.93,160.9905a155.4347,155.4347,0,0,0-19.2945,33.8922l-40.6818.7115-9.4962,53.8014,38.73,14.86a155.6328,155.6328,0,0,0,6.72,36.7507L74.9837,328.7567l27.3182,47.3109,40.5754-13.9745a156.4855,156.4855,0,0,0,27.607,23.0622l-6.8057,43.0056,51.3275,18.6827,22.4171-37.3094a156.2012,156.2012,0,0,0,35.5215.2128l22.5634,37.5554L346.84,428.62l-6.74-42.57a156.2116,156.2116,0,0,0,27.9737-22.8456L408.8,377.2314l27.3182-47.3148-31.5077-27.3847A155.5668,155.5668,0,0,0,411.73,265.6187Zm-1.1144,68.5577-10.8689,18.8328-37.5963-12.95-4.4155,4.9609a136.4878,136.4878,0,0,1-33.5389,27.361l-5.9185,3.4285,6.2871,39.6806-20.4287,7.4347-20.8972-34.7833-6.6073,1.0079a137.04,137.04,0,0,1-42.7462-.266l-6.6766-1.0839-20.8344,34.6664-20.4222-7.4347,6.3242-39.9532-5.8083-3.4618a136.6587,136.6587,0,0,1-33.1208-27.6507l-4.4156-5.0568-37.5791,12.9437-10.869-18.8261,29.7055-25.822-2.3246-6.43a135.8776,135.8776,0,0,1-8.0066-43.6639l-.1263-6.7194-35.77-13.7322,3.781-21.4064,37.8119-.6555,2.3408-6.4571a135.5888,135.5888,0,0,1,22.6832-39.88l4.2892-5.2364-17.8486-32.1964L153.67,116.8544l28.4449,23.0328,5.9356-3.4248A134.8651,134.8651,0,0,1,232.07,120.4255l6.7431-1.1932,6.8732-35.3818h21.7389l6.9027,35.5214,6.6766,1.2436a135.0651,135.0651,0,0,1,43.9593,16.435l5.9623,3.5112,28.2092-22.839,16.6516,13.9717-17.8723,32.2325,4.2095,5.22A135.5641,135.5641,0,0,1,384.5279,209.38l2.3009,6.5464,37.44.6517,3.77,21.4064-35.74,13.7256-.1862,6.6471a135.8279,135.8279,0,0,1-8.4854,43.7836l-2.4206,6.4733Z"/></g></g></svg>