<svg xmlns="http://www.w3.org/2000/svg" viewBox="0 0 512 512"><title>Security_Check</title><g id="Security_Check" data-name="Security Check"><g id="Security_Check-2" data-name="Security Check"><path d="M353.6576,64.6728H158.5961a33.2877,33.2877,0,0,0-33.25,33.25V441.5084h19.95V163.04H366.9576V441.5084h19.95V97.9228A33.2877,33.2877,0,0,0,353.6576,64.6728ZM145.2961,143.09V97.9228a13.3134,13.3134,0,0,1,13.3-13.3H353.6576a13.3134,13.3134,0,0,1,13.3,13.3V143.09Z"/><path d="M289.1726,249.21a42.1211,42.1211,0,1,0-66.0877,0,33.2955,33.2955,0,0,0-22.9292,31.5874V362.819h19.81v84.5082h72.3187V362.819h19.8065V280.7978A33.2861,33.2861,0,0,0,289.1726,249.21Zm-33.0439-48.2126a22.1712,22.1712,0,1,1-22.171,22.1712A22.1958,22.1958,0,0,1,256.1287,200.9978Zm36.0164,141.8711H272.3376v84.5082H239.9189V342.8689h-19.81V280.7978a13.3134,13.3134,0,0,1,13.3-13.3h45.4365a13.3134,13.3134,0,0,1,13.3,13.3Z"/><rect x="424.5198" y="287.1244" width="19.9463" height="50.2858" transform="translate(-70.523 489.0551) rotate(-54.9979)"/><rect x="414.1622" y="247.944" width="50.2844" height="19.95"/><rect x="409.1959" y="193.9551" width="50.29" height="19.9508" transform="translate(-38.4222 285.9958) rotate(-34.9985)"/><rect x="52.7631" y="302.2874" width="50.2857" height="19.9461" transform="translate(-165.0312 101.174) rotate(-35.0041)"/><rect x="47.9534" y="247.944" width="50.2873" height="19.95"/><rect x="68.0907" y="178.7696" width="19.9496" height="50.2857" transform="translate(-133.7435 150.8894) rotate(-54.997)"/><rect x="167.1185" y="105.6872" width="24.3856" height="19.95"/><rect x="208.1253" y="105.6872" width="24.3855" height="19.95"/></g></g></svg>