<svg xmlns="http://www.w3.org/2000/svg" viewBox="0 0 512 512"><title>Takeoff</title><g id="Takeoff"><g id="Takeoff-2" data-name="Takeoff"><path d="M139.1576,331.0168l-16.5281-29.22L79.9167,266.5222l-.9017-1.5628a15.7568,15.7568,0,0,1,5.7361-21.47l23.4213-13.5127,60.5112,4.3025,47.1751-29.8547-97.8148-56.2723-1.3395-2.3209a17.62,17.62,0,0,1,6.44-24.04l37.1574-21.4529L305.4541,148.498,364.8092,111.54a49.5215,49.5215,0,0,1,24.6981-6.67c16.758,0,31.6036,8.3828,39.7071,22.4209a44.1864,44.1864,0,0,1,5.3894,28.7708l-.7011,4.7814Zm-38.8094-73.492,37.8252,31.2378,8.436,14.9132L415.13,148.6443a24.004,24.004,0,0,0-3.1986-11.3782c-4.4992-7.7909-12.8849-12.4421-22.43-12.4421a29.53,29.53,0,0,0-14.5939,3.9235l-66.8524,41.6356L162.5162,122.0937l-24.8377,14.3412,116.77,67.1783-80.6378,51.035L112.85,250.3123Z"/><rect x="74.7894" y="356.7988" width="362.4212" height="19.95"/><rect x="74.7894" y="391.7113" width="362.4212" height="19.95"/></g></g></svg>