<svg xmlns="http://www.w3.org/2000/svg" viewBox="0 0 512 512"><title>Ticket01</title><g id="Ticket01"><g id="Ticket01-2" data-name="Ticket01"><path d="M398.5632,187.0613l-3.7745-21.4063c-2.793-15.8308-17.6025-27.3182-35.2146-27.3182a40.9863,40.9863,0,0,0-7.1126.6251L122.6707,179.4766c-20.1124,3.5444-33.858,21.2933-30.6394,39.5608l.2556,1.4469v118c0,19.3981,17.4068,35.1785,38.8065,35.1785H379.6305c21.4,0,38.8056-15.78,38.8056-35.1785V217.7378C418.4361,204.5736,410.4067,193.0929,398.5632,187.0613ZM355.93,158.606a21.12,21.12,0,0,1,3.6471-.323c7.9135,0,14.4609,4.559,15.5676,10.8329l2.3712,13.44H220.0932Zm42.5562,179.8825c0,8.3951-8.4588,15.2285-18.8556,15.2285H131.0934c-10.3977,0-18.8565-6.8334-18.8565-15.2285V217.7378c0-8.3961,8.4588-15.2285,18.8565-15.2285H379.6305c10.3968,0,18.8556,6.8324,18.8556,15.2285Z"/><rect x="180.938" y="286.6945" width="19.95" height="17.1703"/><rect x="180.938" y="321.0389" width="19.95" height="17.1703"/><rect x="180.938" y="218.0171" width="19.95" height="17.1703"/><rect x="180.938" y="252.3539" width="19.95" height="17.1703"/><path d="M333.0037,241.3918,318.537,256.8531l-45.8955-13.7389-7.75,7.7473a2.1769,2.1769,0,0,0,.0029,3.0723l37.2105,20.482-18.7131,19.0351-14.47-2.9488-4.8279,4.8308a1.6352,1.6352,0,0,0,0,2.3179l27.3144,27.3144a1.6413,1.6413,0,0,0,2.318-.0066l4.8279-4.8241-3.0229-14.7431,18.963-18.7035,20.6216,37.4727a2.171,2.171,0,0,0,3.0753,0l7.7471-7.7472-13.8282-46.2,15.3482-14.3612c4.2256-4.2256,4.409-10.8861.419-14.8827S337.23,237.1653,333.0037,241.3918Z"/></g></g></svg>