<?xml version="1.0" encoding="iso-8859-1"?>
<!-- Generator: Adobe Illustrator 25.2.0, SVG Export Plug-In . SVG Version: 6.00 Build 0)  -->
<svg version="1.1" xmlns="http://www.w3.org/2000/svg" xmlns:xlink="http://www.w3.org/1999/xlink" x="0px" y="0px"
	 viewBox="0 0 492 492" style="enable-background:new 0 0 492 492;" xml:space="preserve">
<g id="Master_Layer_2">
</g>
<g id="Layer_1">
	<g>
		<g>
			<g>
				<g>
					<g>
						<path style="fill-rule:evenodd;clip-rule:evenodd;fill:#212121;" d="M173.374,269.265c-15.559,0-28.217-12.658-28.217-28.217
							c0-15.559,12.658-28.217,28.217-28.217c15.559,0,28.217,12.658,28.217,28.217
							C201.591,256.607,188.933,269.265,173.374,269.265L173.374,269.265z M173.374,224.352c-9.207,0-16.697,7.49-16.697,16.697
							c0,9.207,7.49,16.697,16.697,16.697c9.207,0,16.697-7.49,16.697-16.697C190.071,231.842,182.581,224.352,173.374,224.352z"/>
					</g>
					<g>
						<path style="fill-rule:evenodd;clip-rule:evenodd;fill:#212121;" d="M215.534,293.408c-1.895,0-3.75-0.934-4.85-2.646
							c-8.525-13.26-22.819-21.496-37.306-21.496c-14.49,0-28.787,8.237-37.314,21.497c-1.721,2.676-5.285,3.45-7.96,1.729
							c-2.676-1.721-3.45-5.285-1.729-7.96c10.625-16.522,28.634-26.786,47.001-26.786c18.368,0,36.376,10.264,46.999,26.786
							c1.72,2.676,0.946,6.24-1.73,7.96C217.679,293.112,216.6,293.408,215.534,293.408z"/>
					</g>
					<g>
						<path style="fill-rule:evenodd;clip-rule:evenodd;fill:#212121;" d="M173.374,310.954c-17.408,0-33.774-6.779-46.083-19.088
							c-12.309-12.309-19.088-28.675-19.088-46.082c0-17.408,6.779-33.774,19.088-46.083c12.309-12.309,28.675-19.088,46.083-19.088
							c17.408,0,33.773,6.779,46.083,19.088c12.309,12.309,19.088,28.675,19.088,46.083c0,17.408-6.779,33.774-19.088,46.083
							C207.148,304.175,190.782,310.954,173.374,310.954L173.374,310.954z M173.374,192.132c-29.583,0-53.651,24.068-53.651,53.651
							c0,29.583,24.068,53.651,53.651,53.651l0,0c29.583,0,53.65-24.068,53.65-53.65C227.025,216.2,202.957,192.132,173.374,192.132
							z"/>
					</g>
				</g>
				<g>
					<path style="fill-rule:evenodd;clip-rule:evenodd;fill:#212121;" d="M378.557,364.951H113.963c-3.181,0-5.76-2.579-5.76-5.76
						v-24.335c0-3.181,2.579-5.76,5.76-5.76h264.594c3.181,0,5.76,2.579,5.76,5.76v24.335
						C384.317,362.372,381.738,364.951,378.557,364.951L378.557,364.951z M119.723,353.431h253.074v-12.815H119.723V353.431z"/>
				</g>
				<g>
					<g>
						<g>
							<path style="fill-rule:evenodd;clip-rule:evenodd;fill:#212121;" d="M280.975,285.205h-16.159c-3.181,0-5.76-2.579-5.76-5.76
								c0-3.181,2.579-5.76,5.76-5.76h16.159c3.181,0,5.76,2.579,5.76,5.76C286.735,282.626,284.156,285.205,280.975,285.205z"/>
						</g>
						<g>
							<path style="fill-rule:evenodd;clip-rule:evenodd;fill:#212121;" d="M378.557,285.205h-73.41c-3.181,0-5.76-2.579-5.76-5.76
								c0-3.181,2.579-5.76,5.76-5.76h73.41c3.181,0,5.76,2.579,5.76,5.76C384.317,282.626,381.738,285.205,378.557,285.205z"/>
						</g>
					</g>
					<g>
						<g>
							<path style="fill-rule:evenodd;clip-rule:evenodd;fill:#212121;" d="M280.975,251.544h-16.159c-3.181,0-5.76-2.579-5.76-5.76
								s2.579-5.76,5.76-5.76h16.159c3.181,0,5.76,2.579,5.76,5.76C286.735,248.965,284.156,251.544,280.975,251.544z"/>
						</g>
						<g>
							<path style="fill-rule:evenodd;clip-rule:evenodd;fill:#212121;" d="M378.557,251.544h-73.41c-3.181,0-5.76-2.579-5.76-5.76
								s2.579-5.76,5.76-5.76h73.41c3.181,0,5.76,2.579,5.76,5.76C384.317,248.965,381.738,251.544,378.557,251.544z"/>
						</g>
					</g>
					<g>
						<g>
							<path style="fill-rule:evenodd;clip-rule:evenodd;fill:#212121;" d="M280.975,217.882h-16.159c-3.181,0-5.76-2.579-5.76-5.76
								c0-3.181,2.579-5.76,5.76-5.76h16.159c3.181,0,5.76,2.579,5.76,5.76C286.735,215.304,284.156,217.882,280.975,217.882z"/>
						</g>
						<g>
							<path style="fill-rule:evenodd;clip-rule:evenodd;fill:#212121;" d="M378.557,217.882h-73.41c-3.181,0-5.76-2.579-5.76-5.76
								c0-3.181,2.579-5.76,5.76-5.76h73.41c3.181,0,5.76,2.579,5.76,5.76C384.317,215.304,381.738,217.882,378.557,217.882z"/>
						</g>
					</g>
				</g>
			</g>
			<g>
				<path style="fill-rule:evenodd;clip-rule:evenodd;fill:#212121;" d="M414.219,408.965H78.301
					c-9.021,0-16.361-7.339-16.361-16.361V152.959c0-9.021,7.339-16.361,16.361-16.361l148.106,0c3.181,0,5.76,2.579,5.76,5.76
					c0,3.181-2.579,5.76-5.76,5.76H78.301c-2.669,0-4.841,2.172-4.841,4.841v239.645c0,2.669,2.172,4.841,4.841,4.841l335.918,0
					c2.669,0,4.841-2.172,4.841-4.841V152.959c0-2.669-2.172-4.841-4.841-4.841l-148.106,0c-3.181,0-5.76-2.579-5.76-5.76
					c0-3.181,2.579-5.76,5.76-5.76h148.106c9.021,0,16.361,7.34,16.361,16.361v239.645
					C430.58,401.625,423.241,408.965,414.219,408.965z"/>
			</g>
			<g>
				<path style="fill-rule:evenodd;clip-rule:evenodd;fill:#212121;" d="M246.26,177.461c-14.124,0-25.614-11.49-25.614-25.614
					V90.274c0-3.181,2.579-5.76,5.76-5.76h39.708c3.181,0,5.76,2.579,5.76,5.76v61.573
					C271.874,165.97,260.384,177.461,246.26,177.461L246.26,177.461z M232.166,96.034v55.813c0,7.771,6.322,14.094,14.094,14.094
					c7.771,0,14.094-6.322,14.094-14.094V96.034H232.166z"/>
			</g>
		</g>
	</g>
</g>
</svg>
