<?xml version="1.0" encoding="iso-8859-1"?>
<!-- Generator: Adobe Illustrator 25.2.0, SVG Export Plug-In . SVG Version: 6.00 Build 0)  -->
<svg version="1.1" xmlns="http://www.w3.org/2000/svg" xmlns:xlink="http://www.w3.org/1999/xlink" x="0px" y="0px"
	 viewBox="0 0 492 492" style="enable-background:new 0 0 492 492;" xml:space="preserve">
<g id="Master_Layer_2">
</g>
<g id="Layer_1">
	<g>
		<g>
			<g>
				<path style="fill-rule:evenodd;clip-rule:evenodd;fill:#212121;" d="M373.314,279.461c-3.181,0-5.76-2.579-5.76-5.76v-50.508
					c0-4.719-3.84-8.558-8.561-8.558l-225.465,0c-4.72,0-8.561,3.839-8.561,8.558v50.508c0,3.181-2.579,5.76-5.76,5.76
					c-3.181,0-5.76-2.579-5.76-5.76v-50.508c0-11.071,9.008-20.078,20.081-20.078h225.465c11.073,0,20.081,9.007,20.081,20.078
					v50.508C379.074,276.882,376.495,279.461,373.314,279.461z"/>
			</g>
			<g>
				<path style="fill-rule:evenodd;clip-rule:evenodd;fill:#212121;" d="M358.993,431.059H133.528
					c-11.073,0-20.081-9.007-20.081-20.078v-50.508c0-3.181,2.579-5.76,5.76-5.76c3.181,0,5.76,2.579,5.76,5.76v50.508
					c0,4.719,3.84,8.558,8.561,8.558h225.465c4.721,0,8.561-3.839,8.561-8.558v-50.508c0-3.181,2.579-5.76,5.76-5.76
					c3.181,0,5.76,2.579,5.76,5.76v50.508C379.074,422.052,370.065,431.059,358.993,431.059z"/>
			</g>
			<g>
				<g>
					<path style="fill-rule:evenodd;clip-rule:evenodd;fill:#212121;" d="M306.439,214.634c-3.181,0-5.76-2.579-5.76-5.76V160.68
						c0-30.006-24.413-54.418-54.42-54.418c-30.006,0-54.418,24.412-54.418,54.418v48.195c0,3.181-2.579,5.76-5.76,5.76
						c-3.181,0-5.76-2.579-5.76-5.76V160.68c0-17.613,6.859-34.171,19.312-46.625c12.454-12.454,29.013-19.313,46.625-19.313
						c17.613,0,34.172,6.859,46.626,19.312c12.455,12.454,19.314,29.013,19.314,46.625v48.195
						C312.199,212.055,309.621,214.634,306.439,214.634z"/>
				</g>
				<g>
					<path style="fill-rule:evenodd;clip-rule:evenodd;fill:#212121;" d="M338.762,214.634c-3.181,0-5.76-2.579-5.76-5.76V160.68
						c0-11.697-2.297-23.06-6.827-33.771c-4.372-10.333-10.624-19.608-18.58-27.564c-7.958-7.959-17.232-14.209-27.561-18.577
						c-10.709-4.53-22.072-6.827-33.774-6.827c-11.701,0-23.063,2.297-33.77,6.827c-10.331,4.369-19.604,10.619-27.562,18.578
						c-7.956,7.956-14.208,17.23-18.58,27.565c-4.53,10.711-6.827,22.073-6.827,33.77v48.195c0,3.181-2.579,5.76-5.76,5.76
						c-3.181,0-5.76-2.579-5.76-5.76l-0.001-48.195c0-13.247,2.603-26.119,7.737-38.258c4.954-11.708,12.034-22.213,21.044-31.223
						c9.013-9.013,19.517-16.093,31.221-21.042c12.135-5.134,25.007-7.737,38.258-7.737c13.252,0,26.125,2.603,38.261,7.737
						c11.703,4.949,22.206,12.028,31.22,21.041c9.01,9.01,16.091,19.515,21.044,31.222c5.135,12.14,7.738,25.012,7.738,38.259
						v48.195C344.522,212.055,341.943,214.634,338.762,214.634z"/>
				</g>
			</g>
			<g>
				<path style="fill-rule:evenodd;clip-rule:evenodd;fill:#212121;" d="M403.373,366.233H89.147
					c-6.825,0-12.378-5.552-12.378-12.378v-73.536c0-6.825,5.553-12.378,12.378-12.378h314.226c6.825,0,12.378,5.552,12.378,12.378
					v73.536C415.751,360.681,410.198,366.233,403.373,366.233L403.373,366.233z M89.147,279.461c-0.473,0-0.858,0.385-0.858,0.858
					v73.536c0,0.473,0.385,0.858,0.858,0.858l314.226,0c0.473,0,0.858-0.385,0.858-0.858v-73.536c0-0.473-0.385-0.858-0.858-0.858
					L89.147,279.461z"/>
			</g>
			<g>
				<g>
					<g>
						<path style="fill-rule:evenodd;clip-rule:evenodd;fill:#212121;" d="M365.391,338.447c-3.181,0-5.76-2.579-5.76-5.76v-31.2
							c0-3.181,2.579-5.76,5.76-5.76c3.181,0,5.76,2.579,5.76,5.76v31.2C371.151,335.868,368.573,338.447,365.391,338.447z"/>
					</g>
					<g>
						<path style="fill-rule:evenodd;clip-rule:evenodd;fill:#212121;" d="M351.412,329.762c-2.122,0-4.164-1.177-5.168-3.208
							c-1.41-2.852-0.241-6.306,2.611-7.716l27.968-13.828c2.852-1.409,6.306-0.241,7.716,2.611c1.41,2.852,0.241,6.306-2.611,7.716
							l-27.968,13.828C353.14,329.57,352.269,329.762,351.412,329.762z"/>
					</g>
					<g>
						<path style="fill-rule:evenodd;clip-rule:evenodd;fill:#212121;" d="M377.783,332.319c-1.22,0-2.449-0.386-3.493-1.184
							l-24.791-18.943c-2.528-1.932-3.011-5.546-1.08-8.074c1.931-2.528,5.546-3.011,8.074-1.08l24.791,18.943
							c2.528,1.932,3.011,5.546,1.08,8.074C381.23,331.539,379.516,332.319,377.783,332.319z"/>
					</g>
				</g>
				<g>
					<g>
						<path style="fill-rule:evenodd;clip-rule:evenodd;fill:#212121;" d="M305.826,338.447c-3.181,0-5.76-2.579-5.76-5.76v-31.2
							c0-3.181,2.579-5.76,5.76-5.76s5.76,2.579,5.76,5.76v31.2C311.586,335.868,309.007,338.447,305.826,338.447z"/>
					</g>
					<g>
						<path style="fill-rule:evenodd;clip-rule:evenodd;fill:#212121;" d="M291.846,329.762c-2.122,0-4.164-1.177-5.168-3.208
							c-1.41-2.852-0.241-6.306,2.611-7.716l27.968-13.828c2.853-1.409,6.306-0.241,7.716,2.611c1.41,2.852,0.241,6.306-2.611,7.716
							l-27.968,13.828C293.574,329.57,292.703,329.762,291.846,329.762z"/>
					</g>
					<g>
						<path style="fill-rule:evenodd;clip-rule:evenodd;fill:#212121;" d="M318.217,332.319c-1.22,0-2.449-0.386-3.493-1.184
							l-24.791-18.943c-2.528-1.932-3.011-5.546-1.08-8.074c1.931-2.528,5.546-3.011,8.074-1.08l24.791,18.943
							c2.528,1.932,3.011,5.546,1.08,8.074C321.665,331.539,319.951,332.319,318.217,332.319z"/>
					</g>
				</g>
				<g>
					<g>
						<path style="fill-rule:evenodd;clip-rule:evenodd;fill:#212121;" d="M246.26,338.447c-3.181,0-5.76-2.579-5.76-5.76v-31.2
							c0-3.181,2.579-5.76,5.76-5.76s5.76,2.579,5.76,5.76v31.2C252.02,335.868,249.442,338.447,246.26,338.447z"/>
					</g>
					<g>
						<path style="fill-rule:evenodd;clip-rule:evenodd;fill:#212121;" d="M232.28,329.762c-2.122,0-4.164-1.177-5.168-3.208
							c-1.41-2.852-0.241-6.306,2.61-7.716l27.968-13.828c2.853-1.409,6.307-0.241,7.716,2.611c1.41,2.852,0.241,6.306-2.611,7.716
							l-27.968,13.828C234.008,329.57,233.138,329.762,232.28,329.762z"/>
					</g>
					<g>
						<path style="fill-rule:evenodd;clip-rule:evenodd;fill:#212121;" d="M258.652,332.319c-1.22,0-2.449-0.386-3.493-1.184
							l-24.791-18.943c-2.528-1.932-3.011-5.546-1.079-8.074c1.931-2.528,5.546-3.011,8.074-1.08l24.791,18.943
							c2.528,1.932,3.011,5.546,1.08,8.074C262.099,331.539,260.385,332.319,258.652,332.319z"/>
					</g>
				</g>
				<g>
					<g>
						<path style="fill-rule:evenodd;clip-rule:evenodd;fill:#212121;" d="M186.695,338.447c-3.181,0-5.76-2.579-5.76-5.76v-31.2
							c0-3.181,2.579-5.76,5.76-5.76c3.181,0,5.76,2.579,5.76,5.76v31.2C192.455,335.868,189.876,338.447,186.695,338.447z"/>
					</g>
					<g>
						<path style="fill-rule:evenodd;clip-rule:evenodd;fill:#212121;" d="M172.715,329.762c-2.122,0-4.163-1.177-5.167-3.208
							c-1.41-2.852-0.241-6.306,2.61-7.716l27.968-13.828c2.852-1.409,6.307-0.241,7.716,2.611c1.41,2.852,0.241,6.306-2.61,7.716
							l-27.968,13.828C174.443,329.57,173.572,329.762,172.715,329.762z"/>
					</g>
					<g>
						<path style="fill-rule:evenodd;clip-rule:evenodd;fill:#212121;" d="M199.086,332.319c-1.22,0-2.449-0.386-3.493-1.184
							l-24.791-18.943c-2.528-1.932-3.011-5.546-1.079-8.074c1.931-2.528,5.546-3.011,8.074-1.08l24.791,18.943
							c2.528,1.932,3.011,5.546,1.079,8.074C202.533,331.539,200.82,332.319,199.086,332.319z"/>
					</g>
				</g>
				<g>
					<g>
						<path style="fill-rule:evenodd;clip-rule:evenodd;fill:#212121;" d="M127.129,338.447c-3.181,0-5.76-2.579-5.76-5.76v-31.2
							c0-3.181,2.579-5.76,5.76-5.76s5.76,2.579,5.76,5.76v31.2C132.889,335.868,130.31,338.447,127.129,338.447z"/>
					</g>
					<g>
						<path style="fill-rule:evenodd;clip-rule:evenodd;fill:#212121;" d="M113.149,329.762c-2.122,0-4.163-1.177-5.168-3.208
							c-1.41-2.852-0.241-6.306,2.611-7.716l27.968-13.828c2.852-1.409,6.306-0.241,7.716,2.611c1.41,2.852,0.241,6.306-2.611,7.716
							l-27.968,13.828C114.877,329.57,114.007,329.762,113.149,329.762z"/>
					</g>
					<g>
						<path style="fill-rule:evenodd;clip-rule:evenodd;fill:#212121;" d="M139.52,332.319c-1.22,0-2.449-0.386-3.493-1.184
							l-24.791-18.943c-2.528-1.932-3.011-5.546-1.079-8.074c1.931-2.528,5.546-3.011,8.074-1.08l24.791,18.943
							c2.528,1.932,3.011,5.546,1.079,8.074C142.968,331.539,141.254,332.319,139.52,332.319z"/>
					</g>
				</g>
			</g>
		</g>
	</g>
</g>
</svg>
