<?xml version="1.0" encoding="iso-8859-1"?>
<!-- Generator: Adobe Illustrator 25.2.0, SVG Export Plug-In . SVG Version: 6.00 Build 0)  -->
<svg version="1.1" xmlns="http://www.w3.org/2000/svg" xmlns:xlink="http://www.w3.org/1999/xlink" x="0px" y="0px"
	 viewBox="0 0 492 492" style="enable-background:new 0 0 492 492;" xml:space="preserve">
<g id="Master_Layer_2">
</g>
<g id="Layer_1">
	<g>
		<g>
			<g>
				<g>
					<path style="fill-rule:evenodd;clip-rule:evenodd;fill:#212121;" d="M246.26,323.759c-12.63,0-22.906-10.275-22.906-22.906
						v-55.069c-11.715-7.753-18.753-20.917-18.568-35.131c0.293-22.609,18.882-40.933,41.476-40.933c0.063,0,0.124,0,0.188,0.001
						c11.039,0.05,21.41,4.387,29.201,12.212c7.794,7.828,12.087,18.223,12.087,29.27c0,13.986-7.034,26.938-18.572,34.581v55.07
						C269.166,313.484,258.891,323.759,246.26,323.759L246.26,323.759z M231.86,237.474c1.86,1.014,3.015,2.957,3.015,5.078v58.302
						c0,6.278,5.107,11.386,11.386,11.386c6.278,0,11.386-5.107,11.386-11.386v-58.315c0-2.104,1.147-4.041,2.993-5.052
						c9.609-5.264,15.579-15.335,15.579-26.284c0-16.447-13.377-29.888-29.82-29.962c-0.045,0-0.09,0-0.135,0
						c-16.32,0-29.745,13.233-29.957,29.562C216.161,221.91,222.122,232.128,231.86,237.474L231.86,237.474z M226.325,247.577
						c0.015,0.008,0.031,0.017,0.046,0.025c-0.013-0.007-0.026-0.014-0.039-0.021C226.331,247.58,226.327,247.578,226.325,247.577z"
						/>
				</g>
				<g>
					<path style="fill-rule:evenodd;clip-rule:evenodd;fill:#212121;" d="M397.372,431.06H95.148
						c-18.311,0-33.208-14.897-33.208-33.208V95.628c0-18.311,14.897-33.208,33.208-33.208h302.224
						c18.311,0,33.208,14.897,33.208,33.208v302.224C430.58,416.162,415.683,431.06,397.372,431.06L397.372,431.06z M95.148,73.94
						c-11.959,0-21.688,9.729-21.688,21.688v302.224c0,11.959,9.729,21.688,21.688,21.688h302.224
						c11.959,0,21.688-9.729,21.688-21.688V95.628c0-11.959-9.729-21.688-21.688-21.688H95.148z"/>
				</g>
			</g>
			<g>
				<g>
					<g>
						<path style="fill-rule:evenodd;clip-rule:evenodd;fill:#212121;" d="M106.305,121.68c-8.852,0-16.055-7.202-16.055-16.055
							s7.202-16.055,16.055-16.055c8.852,0,16.054,7.202,16.054,16.055S115.157,121.68,106.305,121.68L106.305,121.68z
							 M106.305,101.091c-2.501,0-4.535,2.034-4.535,4.535c0,2.5,2.034,4.535,4.535,4.535c2.5,0,4.534-2.034,4.534-4.535
							C110.839,103.125,108.805,101.091,106.305,101.091z"/>
					</g>
					<g>
						<path style="fill-rule:evenodd;clip-rule:evenodd;fill:#212121;" d="M386.216,121.68c-8.853,0-16.055-7.202-16.055-16.055
							s7.202-16.055,16.055-16.055c8.852,0,16.055,7.202,16.055,16.055S395.068,121.68,386.216,121.68L386.216,121.68z
							 M386.216,101.091c-2.5,0-4.535,2.034-4.535,4.535c0,2.5,2.034,4.535,4.535,4.535c2.5,0,4.535-2.034,4.535-4.535
							C390.75,103.125,388.716,101.091,386.216,101.091z"/>
					</g>
				</g>
				<g>
					<g>
						<path style="fill-rule:evenodd;clip-rule:evenodd;fill:#212121;" d="M106.305,403.908c-8.852,0-16.055-7.202-16.055-16.055
							s7.202-16.055,16.055-16.055c8.852,0,16.054,7.202,16.054,16.055S115.157,403.908,106.305,403.908L106.305,403.908z
							 M106.305,383.319c-2.501,0-4.535,2.034-4.535,4.535c0,2.5,2.034,4.534,4.535,4.534c2.5,0,4.534-2.034,4.534-4.534
							C110.839,385.354,108.805,383.319,106.305,383.319z"/>
					</g>
					<g>
						<path style="fill-rule:evenodd;clip-rule:evenodd;fill:#212121;" d="M386.216,403.908c-8.853,0-16.055-7.202-16.055-16.055
							s7.202-16.055,16.055-16.055c8.852,0,16.055,7.202,16.055,16.055S395.068,403.908,386.216,403.908L386.216,403.908z
							 M386.216,383.319c-2.5,0-4.535,2.034-4.535,4.535c0,2.5,2.034,4.534,4.535,4.534c2.5,0,4.535-2.034,4.535-4.534
							C390.75,385.354,388.716,383.319,386.216,383.319z"/>
					</g>
				</g>
			</g>
		</g>
	</g>
</g>
</svg>
