<?xml version="1.0" encoding="iso-8859-1"?>
<!-- Generator: Adobe Illustrator 25.2.0, SVG Export Plug-In . SVG Version: 6.00 Build 0)  -->
<svg version="1.1" xmlns="http://www.w3.org/2000/svg" xmlns:xlink="http://www.w3.org/1999/xlink" x="0px" y="0px"
	 viewBox="0 0 492 492" style="enable-background:new 0 0 492 492;" xml:space="preserve">
<g id="Master_Layer_2">
</g>
<g id="Layer_1">
	<g>
		<g>
			<g>
				<g>
					<path style="fill-rule:evenodd;clip-rule:evenodd;fill:#212121;" d="M424.82,385.386H67.7c-3.181,0-5.76-2.579-5.76-5.76
						V175.727c0-3.181,2.579-5.76,5.76-5.76h105.357c3.181,0,5.76,2.579,5.76,5.76c0,3.181-2.579,5.76-5.76,5.76H73.46v192.379
						h345.6V181.487h-99.598c-3.181,0-5.76-2.579-5.76-5.76c0-3.181,2.579-5.76,5.76-5.76H424.82c3.181,0,5.76,2.579,5.76,5.76
						v203.899C430.58,382.807,428.001,385.386,424.82,385.386z"/>
				</g>
				<g>
					<path style="fill-rule:evenodd;clip-rule:evenodd;fill:#212121;" d="M186.74,334.412c-3.181,0-5.76-2.579-5.76-5.76v-50.975
						c0-3.181,2.579-5.76,5.76-5.76c3.181,0,5.76,2.579,5.76,5.76v50.975C192.5,331.833,189.921,334.412,186.74,334.412z"/>
				</g>
				<g>
					<path style="fill-rule:evenodd;clip-rule:evenodd;fill:#212121;" d="M127.222,283.437c-3.181,0-5.76-2.579-5.76-5.76v-50.975
						c0-3.181,2.579-5.76,5.76-5.76c3.181,0,5.76,2.579,5.76,5.76v50.975C132.982,280.858,130.403,283.437,127.222,283.437z"/>
				</g>
				<g>
					<path style="fill-rule:evenodd;clip-rule:evenodd;fill:#212121;" d="M127.223,385.386c-3.181,0-5.76-2.579-5.76-5.76v-50.973
						c0-3.181,2.579-5.76,5.76-5.76c3.181,0,5.76,2.579,5.76,5.76v50.973C132.983,382.807,130.404,385.386,127.223,385.386z"/>
				</g>
				<g>
					<path style="fill-rule:evenodd;clip-rule:evenodd;fill:#212121;" d="M305.78,334.412c-3.181,0-5.76-2.579-5.76-5.76v-50.975
						c0-3.181,2.579-5.76,5.76-5.76c3.181,0,5.76,2.579,5.76,5.76v50.975C311.54,331.833,308.962,334.412,305.78,334.412z"/>
				</g>
				<g>
					<path style="fill-rule:evenodd;clip-rule:evenodd;fill:#212121;" d="M246.258,283.437c-3.181,0-5.76-2.579-5.76-5.76v-0.144
						c0-3.181,2.579-5.76,5.76-5.76c3.181,0,5.76,2.579,5.76,5.76v0.144C252.018,280.858,249.439,283.437,246.258,283.437z"/>
				</g>
				<g>
					<path style="fill-rule:evenodd;clip-rule:evenodd;fill:#212121;" d="M246.258,385.386c-3.181,0-5.76-2.579-5.76-5.76v-50.973
						c0-3.181,2.579-5.76,5.76-5.76c3.181,0,5.76,2.579,5.76,5.76v50.973C252.018,382.807,249.439,385.386,246.258,385.386z"/>
				</g>
				<g>
					<path style="fill-rule:evenodd;clip-rule:evenodd;fill:#212121;" d="M424.82,334.412H67.7c-3.181,0-5.76-2.579-5.76-5.76
						s2.579-5.76,5.76-5.76h357.12c3.181,0,5.76,2.579,5.76,5.76S428.001,334.412,424.82,334.412z"/>
				</g>
				<g>
					<path style="fill-rule:evenodd;clip-rule:evenodd;fill:#212121;" d="M213.412,283.437H67.7c-3.181,0-5.76-2.579-5.76-5.76
						c0-3.181,2.579-5.76,5.76-5.76h145.711c3.181,0,5.76,2.579,5.76,5.76C219.172,280.858,216.593,283.437,213.412,283.437z"/>
				</g>
				<g>
					<path style="fill-rule:evenodd;clip-rule:evenodd;fill:#212121;" d="M424.82,283.437H279.109c-3.181,0-5.76-2.579-5.76-5.76
						c0-3.181,2.579-5.76,5.76-5.76H424.82c3.181,0,5.76,2.579,5.76,5.76C430.58,280.858,428.001,283.437,424.82,283.437z"/>
				</g>
				<g>
					<path style="fill-rule:evenodd;clip-rule:evenodd;fill:#212121;" d="M180.973,232.463H67.7c-3.181,0-5.76-2.579-5.76-5.76
						c0-3.181,2.579-5.76,5.76-5.76h113.273c3.181,0,5.76,2.579,5.76,5.76C186.733,229.884,184.154,232.463,180.973,232.463z"/>
				</g>
				<g>
					<path style="fill-rule:evenodd;clip-rule:evenodd;fill:#212121;" d="M424.82,232.463H311.548c-3.181,0-5.76-2.579-5.76-5.76
						c0-3.181,2.579-5.76,5.76-5.76H424.82c3.181,0,5.76,2.579,5.76,5.76C430.58,229.884,428.001,232.463,424.82,232.463z"/>
				</g>
				<g>
					<path style="fill-rule:evenodd;clip-rule:evenodd;fill:#212121;" d="M365.299,283.437c-3.181,0-5.76-2.579-5.76-5.76v-50.975
						c0-3.181,2.579-5.76,5.76-5.76c3.181,0,5.76,2.579,5.76,5.76v50.975C371.059,280.858,368.48,283.437,365.299,283.437z"/>
				</g>
				<g>
					<path style="fill-rule:evenodd;clip-rule:evenodd;fill:#212121;" d="M365.298,385.386c-3.181,0-5.76-2.579-5.76-5.76v-50.973
						c0-3.181,2.579-5.76,5.76-5.76s5.76,2.579,5.76,5.76v50.973C371.058,382.807,368.479,385.386,365.298,385.386z"/>
				</g>
			</g>
			<g>
				<g>
					<path style="fill-rule:evenodd;clip-rule:evenodd;fill:#212121;" d="M239.695,221.351c-1.474,0-2.948-0.562-4.073-1.687
						l-9.12-9.12c-2.25-2.25-2.25-5.897,0-8.146c2.25-2.249,5.896-2.249,8.146,0l5.047,5.047l18.178-18.178
						c2.25-2.249,5.896-2.249,8.146,0c2.249,2.25,2.249,5.897,0,8.146l-22.251,22.251
						C242.643,220.789,241.169,221.351,239.695,221.351z"/>
				</g>
				<g>
					<path style="fill-rule:evenodd;clip-rule:evenodd;fill:#212121;" d="M246.26,313.572c-1.391,0-2.783-0.502-3.883-1.505
						l-28.796-26.281c-30.128-27.495-47.013-66.654-46.328-107.437l0.538-32.023c0.046-2.748,2.027-5.08,4.73-5.57l15.325-2.783
						c25.549-4.639,41.01-16.433,42.455-17.57l12.37-10.875c2.203-1.937,5.511-1.909,7.681,0.066l11.915,10.845
						c1.668,1.302,17.133,12.942,42.409,17.531L320,140.753c2.704,0.491,4.684,2.823,4.73,5.57l0.538,32.026
						c0.685,40.783-16.201,79.942-46.328,107.437l-28.797,26.281C249.043,313.07,247.652,313.572,246.26,313.572L246.26,313.572z
						 M179.23,151.245l-0.459,27.297c-0.63,37.479,14.889,73.467,42.576,98.734l0,0l24.914,22.737l24.914-22.737
						c27.687-25.268,43.205-61.255,42.576-98.735l-0.459-27.3l-10.674-1.938c-28.565-5.186-45.806-18.475-47.678-19.973
						c-0.095-0.076-0.188-0.155-0.278-0.237l-8.253-7.512l-8.607,7.567c-0.065,0.057-0.13,0.112-0.197,0.165
						c-1.867,1.499-19.063,14.794-47.7,19.993L179.23,151.245z"/>
				</g>
				<g>
					<path style="fill-rule:evenodd;clip-rule:evenodd;fill:#212121;" d="M246.26,283.294c-1.391,0-2.783-0.502-3.883-1.505
						l-14.973-13.665c-24.507-22.366-38.243-54.22-37.686-87.395l0.259-15.393c0.046-2.747,2.027-5.08,4.73-5.57
						c30.042-5.455,47.651-20.102,47.826-20.25c2.154-1.837,5.312-1.828,7.465,0.008c0.164,0.139,17.774,14.784,47.816,20.238
						c2.704,0.491,4.684,2.823,4.73,5.571l0.258,15.396l0,0c0.557,33.174-13.179,65.028-37.686,87.395l-14.973,13.665
						C249.044,282.792,247.652,283.294,246.26,283.294L246.26,283.294z M201.417,170.172l-0.18,10.75
						c-0.502,29.871,11.866,58.553,33.933,78.692l11.091,10.122l11.09-10.122c22.067-20.139,34.435-48.821,33.933-78.692l0,0
						l-0.181-10.752c-22.687-4.931-38.142-14.325-44.843-19.045C239.56,155.846,224.104,165.241,201.417,170.172z"/>
				</g>
			</g>
		</g>
	</g>
</g>
</svg>
