<?xml version="1.0" encoding="iso-8859-1"?>
<!-- Generator: Adobe Illustrator 25.2.0, SVG Export Plug-In . SVG Version: 6.00 Build 0)  -->
<svg version="1.1" xmlns="http://www.w3.org/2000/svg" xmlns:xlink="http://www.w3.org/1999/xlink" x="0px" y="0px"
	 viewBox="0 0 492 492" style="enable-background:new 0 0 492 492;" xml:space="preserve">
<g id="Master_Layer_2">
</g>
<g id="Layer_1">
	<g>
		<g>
			<g>
				<g>
					<g>
						<path style="fill-rule:evenodd;clip-rule:evenodd;fill:#212121;" d="M153.835,229.67c-0.293,0-0.591-0.023-0.89-0.069
							c-3.144-0.488-5.297-3.431-4.809-6.575c5.636-36.334,19.784-62.877,42.051-78.892c19.39-13.945,41.011-16.872,55.733-16.872
							c12.648,0,21.532,2.067,23.184,2.482c3.086,0.774,4.96,3.903,4.186,6.988c-0.774,3.086-3.902,4.96-6.988,4.186
							c-0.872-0.219-8.848-2.136-20.381-2.136c-27.286,0-74.794,11.174-86.401,86.01C159.078,227.636,156.626,229.67,153.835,229.67
							z"/>
					</g>
					<g>
						<path style="fill-rule:evenodd;clip-rule:evenodd;fill:#212121;" d="M338.687,228.255c-2.958,0-5.475-2.266-5.733-5.268
							c-2.727-31.774-15.312-50.44-25.39-60.503c-10.803-10.788-21.267-14.338-21.371-14.373c-3.017-1-4.66-4.257-3.664-7.275
							c0.996-3.018,4.244-4.661,7.263-3.668c1.331,0.437,13.366,4.637,25.912,17.164c11.436,11.421,25.704,32.431,28.728,67.67
							c0.272,3.17-2.077,5.96-5.246,6.231C339.018,228.248,338.852,228.255,338.687,228.255z"/>
					</g>
					<g>
						<path style="fill-rule:evenodd;clip-rule:evenodd;fill:#212121;" d="M332.579,283.525c-1.304,0-2.615-0.44-3.693-1.342
							c-5.872-4.913-10.52-13.781-14.208-27.112c-2.446-8.84-4.488-19.76-6.069-32.454c-1.829-14.688-7.805-28.74-16.827-39.567
							c-6.401-7.682-14.319-13.697-22.899-17.395c-6.906-2.977-14.236-4.487-21.787-4.487c-2.371,0-4.79,0.151-7.19,0.45
							c-14.143,1.762-28.386,8.548-42.334,20.171c-2.444,2.036-6.076,1.706-8.112-0.738c-2.037-2.444-1.706-6.076,0.738-8.112
							c15.671-13.058,31.916-20.713,48.285-22.752c2.871-0.358,5.769-0.539,8.614-0.539c9.128,0,17.992,1.826,26.347,5.428
							c10.233,4.411,19.635,11.535,27.189,20.6c10.417,12.502,17.31,28.667,19.409,45.518c1.512,12.14,3.443,22.505,5.74,30.806
							c3.74,13.515,7.773,19.069,10.498,21.349c2.44,2.041,2.763,5.674,0.722,8.114
							C335.861,282.822,334.225,283.525,332.579,283.525z"/>
					</g>
					<g>
						<path style="fill-rule:evenodd;clip-rule:evenodd;fill:#212121;" d="M183.337,324.742c-0.795,0-1.602-0.165-2.372-0.514
							c-2.898-1.312-4.183-4.725-2.872-7.623c10.428-23.03,13.067-48.267,15.62-72.672c0.509-4.867,1.034-9.895,1.712-15.585
							c0.107-0.898,0.279-2.433,0.475-4.2c1.534-13.759,3.119-27.985,15.464-39.015c6.934-6.195,16.065-10.483,25.712-12.073
							c2.825-0.466,5.693-0.702,8.525-0.702c5.15,0,10.185,0.771,14.965,2.291c8.213,2.612,15.369,7.284,21.267,13.886
							c7.895,8.836,13.142,20.733,15.598,35.362l0.019,0.114c0.025,0.15,0.045,0.3,0.057,0.452l0.01,0.113
							c1.222,14.07,5.103,32.831,10.129,48.965c5.398,17.33,10.592,26.222,13.4,28.571c2.44,2.042,2.763,5.674,0.722,8.114
							c-2.042,2.439-5.675,2.763-8.114,0.722c-7.178-6.006-13.21-21.794-17.007-33.98c-5.24-16.823-9.297-36.456-10.596-51.276
							c-2.096-12.395-6.406-22.314-12.809-29.481c-4.506-5.044-9.946-8.605-16.168-10.583c-3.649-1.16-7.51-1.749-11.474-1.749
							c-2.205,0-4.443,0.184-6.65,0.549c-7.516,1.239-14.587,4.541-19.911,9.297c-9.059,8.095-10.278,19.034-11.69,31.701
							c-0.2,1.79-0.374,3.348-0.485,4.286c-0.668,5.608-1.19,10.594-1.694,15.416c-2.648,25.322-5.386,51.501-16.583,76.23
							C187.624,323.484,185.529,324.742,183.337,324.742z"/>
					</g>
					<g>
						<path style="fill-rule:evenodd;clip-rule:evenodd;fill:#212121;" d="M270.249,357.443c-1.713,0-3.408-0.76-4.544-2.216
							c-7.799-9.988-19.878-34.586-30.058-61.208c-9.305-24.333-15.287-46.117-16.843-61.339c-1.064-10.403,0.905-19.498,5.693-26.3
							c2.934-4.169,6.866-7.351,11.371-9.204c2.979-1.225,6.108-1.847,9.3-1.847c1.464,0,2.934,0.135,4.368,0.4
							c6.029,1.116,11.393,4.533,15.105,9.62c2.285,3.132,4.322,7.089,6.053,11.761c1.671,4.509,3.092,9.79,4.226,15.696
							c0.913,4.757,1.438,8.668,1.947,12.45c0.997,7.415,1.785,13.271,4.749,21.851c2.95,8.538,7.082,17.825,12.281,27.603
							c6.861,12.902,13.519,22.719,16.104,25.877c2.015,2.461,1.653,6.091-0.808,8.105c-2.461,2.015-6.09,1.654-8.105-0.808
							c-3.568-4.358-10.522-14.905-17.361-27.765c-5.48-10.305-9.854-20.147-12.998-29.25c-3.34-9.667-4.281-16.667-5.277-24.078
							c-0.487-3.625-0.991-7.373-1.843-11.814c-1.014-5.285-2.264-9.949-3.715-13.865c-1.363-3.678-2.896-6.697-4.556-8.973
							c-1.97-2.7-4.774-4.505-7.896-5.083c-0.745-0.138-1.508-0.208-2.27-0.208c-1.681,0-3.336,0.33-4.917,0.98
							c-2.473,1.017-4.664,2.809-6.333,5.182c-3.167,4.499-4.43,10.896-3.653,18.497c1.456,14.243,7.19,34.982,16.143,58.396
							c9.505,24.855,21.439,49.346,28.378,58.234c1.958,2.507,1.512,6.127-0.995,8.085
							C272.737,357.045,271.488,357.443,270.249,357.443z"/>
					</g>
					<g>
						<path style="fill-rule:evenodd;clip-rule:evenodd;fill:#212121;" d="M166.228,299.327c-0.931,0-1.875-0.226-2.75-0.703
							c-2.794-1.522-3.825-5.02-2.302-7.814c5.398-9.908,6.487-26.317,7.639-43.69c1.176-17.731,2.393-36.065,8.469-49.678
							c1.297-2.905,4.702-4.209,7.608-2.912c2.905,1.297,4.209,4.703,2.912,7.608c-5.238,11.734-6.384,29.023-7.494,45.744
							c-1.239,18.673-2.409,36.309-9.018,48.439C170.246,298.24,168.269,299.327,166.228,299.327z"/>
					</g>
					<g>
						<path style="fill-rule:evenodd;clip-rule:evenodd;fill:#212121;" d="M290.979,346.482c-1.558,0-3.111-0.628-4.247-1.867
							c-13.66-14.893-24.735-33.061-32.92-54.001c-8.198-20.974-13.167-44.029-14.369-66.67c-0.169-3.176,2.27-5.889,5.447-6.057
							c3.173-0.17,5.888,2.27,6.057,5.446c1.137,21.429,5.838,43.244,13.595,63.086c7.664,19.608,17.987,36.568,30.68,50.407
							c2.15,2.345,1.993,5.988-0.352,8.138C293.765,345.981,292.37,346.482,290.979,346.482z"/>
					</g>
					<g>
						<path style="fill-rule:evenodd;clip-rule:evenodd;fill:#212121;" d="M246.961,366.218c-1.849,0-3.665-0.888-4.778-2.536
							c-7.261-10.749-13.635-22.454-19.485-35.784c-2.95-6.72-5.531-14.371-7.997-21.985c-2.564,11.1-6.187,23.833-13.922,37.645
							c-1.555,2.775-5.064,3.765-7.84,2.211c-2.776-1.555-3.765-5.064-2.211-7.84c7.043-12.577,10.396-23.881,13.522-38.043
							c0.956-4.328,1.656-8.74,2.082-13.11c0.01-0.104,0.023-0.206,0.038-0.309l0.012-0.082c0.392-2.581,2.166-4.724,4.63-5.59
							c0.755-0.266,1.542-0.401,2.338-0.401c2.642,0,5.114,1.524,6.297,3.883c0.117,0.234,0.219,0.476,0.303,0.724l0.05,0.146
							c1.432,4.07,2.827,8.414,4.305,13.013c2.793,8.694,5.681,17.684,8.94,25.108c5.569,12.688,11.614,23.798,18.482,33.965
							c1.781,2.636,1.087,6.216-1.549,7.997C249.192,365.898,248.071,366.218,246.961,366.218z"/>
					</g>
				</g>
				<g>
					<path style="fill-rule:evenodd;clip-rule:evenodd;fill:#212121;" d="M246.26,400.005c-20.688,0-40.76-4.053-59.66-12.047
						c-18.251-7.72-34.642-18.77-48.716-32.844c-14.074-14.074-25.124-30.465-32.844-48.716
						c-7.994-18.899-12.047-38.971-12.047-59.66c0-20.688,4.053-40.76,12.047-59.66c7.72-18.251,18.77-34.642,32.844-48.716
						s30.464-25.124,48.716-32.844c18.899-7.994,38.971-12.047,59.66-12.047c20.689,0,40.761,4.053,59.66,12.047
						c18.251,7.72,34.642,18.77,48.716,32.844s25.124,30.464,32.844,48.716c7.994,18.899,12.047,38.971,12.047,59.66
						c0,20.689-4.053,40.76-12.047,59.66c-7.72,18.251-18.77,34.642-32.844,48.716c-14.074,14.074-30.464,25.124-48.716,32.844
						C287.021,395.953,266.948,400.005,246.26,400.005L246.26,400.005z M246.26,104.994c-78.159,0-141.746,63.587-141.746,141.746
						c0,78.159,63.587,141.746,141.746,141.746c78.159,0,141.746-63.587,141.746-141.746
						C388.006,168.581,324.419,104.994,246.26,104.994z"/>
				</g>
			</g>
			<g>
				<g>
					<path style="fill-rule:evenodd;clip-rule:evenodd;fill:#212121;" d="M125.372,431.06H67.7c-3.181,0-5.76-2.579-5.76-5.76
						v-57.672c0-3.181,2.579-5.76,5.76-5.76c3.181,0,5.76,2.579,5.76,5.76v51.912h51.912c3.181,0,5.76,2.579,5.76,5.76
						S128.553,431.06,125.372,431.06z"/>
				</g>
				<g>
					<path style="fill-rule:evenodd;clip-rule:evenodd;fill:#212121;" d="M67.7,131.611c-3.181,0-5.76-2.579-5.76-5.76V68.18
						c0-3.181,2.579-5.76,5.76-5.76h57.672c3.181,0,5.76,2.579,5.76,5.76s-2.579,5.76-5.76,5.76H73.46v51.912
						C73.46,129.033,70.882,131.611,67.7,131.611z"/>
				</g>
				<g>
					<path style="fill-rule:evenodd;clip-rule:evenodd;fill:#212121;" d="M424.82,431.06h-57.67c-3.181,0-5.76-2.579-5.76-5.76
						s2.579-5.76,5.76-5.76h51.91v-51.912c0-3.181,2.579-5.76,5.76-5.76c3.181,0,5.76,2.579,5.76,5.76V425.3
						C430.58,428.481,428.001,431.06,424.82,431.06z"/>
				</g>
				<g>
					<path style="fill-rule:evenodd;clip-rule:evenodd;fill:#212121;" d="M424.82,131.611c-3.181,0-5.76-2.579-5.76-5.76V73.94
						h-51.91c-3.181,0-5.76-2.579-5.76-5.76s2.579-5.76,5.76-5.76h57.67c3.181,0,5.76,2.579,5.76,5.76v57.672
						C430.58,129.033,428.001,131.611,424.82,131.611z"/>
				</g>
			</g>
		</g>
	</g>
</g>
</svg>
