<?xml version="1.0" encoding="iso-8859-1"?>
<!-- Generator: Adobe Illustrator 25.2.0, SVG Export Plug-In . SVG Version: 6.00 Build 0)  -->
<svg version="1.1" xmlns="http://www.w3.org/2000/svg" xmlns:xlink="http://www.w3.org/1999/xlink" x="0px" y="0px"
	 viewBox="0 0 492 492" style="enable-background:new 0 0 492 492;" xml:space="preserve">
<g id="Master_Layer_2">
</g>
<g id="Layer_1">
	<g>
		<g>
			<g>
				<g>
					<path style="fill-rule:evenodd;clip-rule:evenodd;fill:#212121;" d="M246.26,431.06c-1.299,0-2.598-0.438-3.662-1.314
						L160.6,362.223c-16.244-13.377-29.507-30.54-38.352-49.635c-8.845-19.095-13.362-40.31-13.062-61.351l1.799-126.006
						c0.039-2.753,2.021-5.093,4.73-5.585l21.052-3.822c29.251-5.312,51.934-15.189,65.812-22.54
						c14.136-7.488,22.296-13.987,23.143-14.672l16.959-14.775c2.188-1.907,5.454-1.887,7.619,0.046l16.532,14.757
						c0.987,0.795,9.163,7.255,23.106,14.64c13.878,7.35,36.562,17.227,65.813,22.538l21.052,3.823
						c2.709,0.492,4.691,2.832,4.73,5.585l1.799,126.011c0.3,21.042-4.216,42.256-13.062,61.351
						c-8.846,19.095-22.108,36.259-38.353,49.635l-81.998,67.523C248.858,430.622,247.559,431.06,246.26,431.06L246.26,431.06z
						 M122.436,130.134l-1.731,121.268c-0.276,19.325,3.872,38.808,11.996,56.345c8.124,17.536,20.304,33.299,35.223,45.585l0,0
						l78.337,64.507l78.337-64.508c14.919-12.285,27.099-28.048,35.223-45.585c8.124-17.536,12.272-37.02,11.996-56.345
						l-1.731-121.273l-16.389-2.976c-30.703-5.575-54.549-15.961-69.147-23.693c-15.314-8.11-24.137-15.191-25.092-15.972
						c-0.065-0.053-0.129-0.108-0.192-0.163l-12.845-11.465L233.217,87.36c-0.044,0.038-0.089,0.076-0.134,0.113
						c-0.951,0.779-9.739,7.847-25.111,15.99c-14.598,7.732-38.443,18.12-69.146,23.695L122.436,130.134z"/>
				</g>
				<g>
					<path style="fill-rule:evenodd;clip-rule:evenodd;fill:#212121;" d="M246.26,396.881c-1.299,0-2.598-0.438-3.662-1.314
						l-65.466-53.909c-13.252-10.913-24.071-24.914-31.287-40.491c-7.216-15.577-10.901-32.883-10.655-50.048l1.494-104.611
						c0.039-2.753,2.021-5.093,4.73-5.585c33.178-6.024,58.887-17.37,74.612-25.826c17.077-9.184,26.409-17.046,26.501-17.124
						c2.154-1.829,5.32-1.829,7.47,0.004c0.087,0.074,9.42,7.935,26.496,17.118c15.725,8.455,41.434,19.799,74.612,25.824
						c2.709,0.492,4.691,2.832,4.73,5.585l1.494,104.617c0.245,17.165-3.44,34.472-10.655,50.048
						c-7.216,15.576-18.035,29.578-31.286,40.491l-65.467,53.91C248.858,396.443,247.559,396.881,246.26,396.881L246.26,396.881z
						 M148.135,151.367l-1.426,99.916c-0.452,31.657,13.306,61.356,37.746,81.482l61.805,50.894l61.805-50.894
						c24.44-20.126,38.198-49.825,37.746-81.482l0,0l-1.426-99.921c-32.596-6.51-57.932-17.8-73.707-26.317
						c-11.781-6.361-20.013-12.075-24.417-15.369c-4.405,3.295-12.637,9.01-24.418,15.372
						C206.067,133.566,180.731,144.858,148.135,151.367z"/>
				</g>
			</g>
			<g>
				<g>
					<path style="fill-rule:evenodd;clip-rule:evenodd;fill:#212121;" d="M210.965,282.995c-1.474,0-2.948-0.562-4.073-1.687
						c-2.25-2.249-2.25-5.896,0-8.146l70.59-70.59c2.25-2.249,5.896-2.249,8.146,0c2.249,2.25,2.249,5.897,0,8.146l-70.59,70.59
						C213.913,282.433,212.439,282.995,210.965,282.995z"/>
				</g>
				<g>
					<path style="fill-rule:evenodd;clip-rule:evenodd;fill:#212121;" d="M281.555,282.995c-1.474,0-2.948-0.562-4.073-1.687
						l-70.59-70.591c-2.25-2.249-2.25-5.897,0-8.146s5.896-2.249,8.146,0l70.59,70.59c2.249,2.25,2.249,5.896,0,8.146
						C284.504,282.433,283.029,282.995,281.555,282.995z"/>
				</g>
			</g>
		</g>
	</g>
</g>
</svg>
