<?xml version="1.0" encoding="iso-8859-1"?>
<!-- Generator: Adobe Illustrator 25.2.0, SVG Export Plug-In . SVG Version: 6.00 Build 0)  -->
<svg version="1.1" xmlns="http://www.w3.org/2000/svg" xmlns:xlink="http://www.w3.org/1999/xlink" x="0px" y="0px"
	 viewBox="0 0 492 492" style="enable-background:new 0 0 492 492;" xml:space="preserve">
<g id="Master_Layer_2">
</g>
<g id="Layer_1">
	<g>
		<g>
			<g>
				<path style="fill-rule:evenodd;clip-rule:evenodd;fill:#212121;" d="M86.806,376.179H67.7c-3.181,0-5.76-2.579-5.76-5.76
					V246.047c0-3.181,2.579-5.76,5.76-5.76l19.105,0c11.303,0,20.498,9.195,20.498,20.498v94.894
					C107.304,366.983,98.108,376.179,86.806,376.179L86.806,376.179z M73.461,364.658h13.345c4.951,0,8.978-4.027,8.978-8.978
					v-94.895c0-4.951-4.027-8.978-8.978-8.978H73.461V364.658z"/>
			</g>
			<g>
				<path style="fill-rule:evenodd;clip-rule:evenodd;fill:#212121;" d="M135.387,355.794h-33.843c-3.181,0-5.76-2.579-5.76-5.76
					c0-3.181,2.579-5.76,5.76-5.76h28.083v-72.082l-28.083,0c-3.181,0-5.76-2.579-5.76-5.76c0-3.181,2.579-5.76,5.76-5.76h33.843
					c3.182,0,5.76,2.579,5.76,5.76v83.602C141.147,353.215,138.568,355.794,135.387,355.794z"/>
			</g>
			<g>
				<g>
					<g>
						<path style="fill-rule:evenodd;clip-rule:evenodd;fill:#212121;" d="M324.953,286.214c-6.498,0-12.975-1.411-19.051-4.217
							l-114.604-52.933c-6.191-2.86-8.902-10.223-6.043-16.414l13.89-30.074c1.334-2.888,4.756-4.148,7.645-2.814
							c2.888,1.334,4.148,4.757,2.814,7.645l-13.89,30.073c-0.196,0.424-0.01,0.929,0.414,1.125l114.604,52.933
							c8.239,3.805,17.466,4.175,25.981,1.039c8.516-3.135,15.301-9.398,19.107-17.637c1.334-2.888,4.756-4.148,7.644-2.814
							c2.888,1.334,4.148,4.757,2.814,7.645c-5.095,11.032-14.182,19.419-25.585,23.617
							C335.57,285.275,330.255,286.214,324.953,286.214z"/>
					</g>
					<g>
						<g>
							<path style="fill-rule:evenodd;clip-rule:evenodd;fill:#212121;" d="M386.364,274.294c-1.558,0-3.111-0.338-4.568-1.011
								L201.96,190.222c-1.387-0.641-2.463-1.806-2.99-3.239c-0.528-1.434-0.464-3.018,0.176-4.405l26.833-58.095
								c2.859-6.191,10.222-8.902,16.414-6.042l173.837,80.291c2.645,1.222,4.656,3.4,5.663,6.134
								c1.007,2.734,0.888,5.697-0.334,8.342l-25.286,54.747c-1.222,2.645-3.4,4.656-6.134,5.663
								C388.91,274.069,387.635,274.294,386.364,274.294L386.364,274.294z M386.627,262.825h0.003H386.627L386.627,262.825z
								 M212.02,182.178l174.051,80.39l24.773-53.635l-173.282-80.034c-0.425-0.196-0.929-0.01-1.125,0.414L212.02,182.178z"/>
						</g>
						<g>
							<path style="fill-rule:evenodd;clip-rule:evenodd;fill:#212121;" d="M404.764,264.487c-3.686,0-7.359-0.8-10.805-2.392
								l-1.092-0.505c-2.888-1.334-4.148-4.756-2.814-7.645c1.334-2.888,4.756-4.147,7.645-2.814l1.092,0.505
								c3.463,1.599,7.343,1.755,10.923,0.437c3.58-1.318,6.433-3.951,8.033-7.415c1.6-3.464,1.755-7.343,0.437-10.923
								s-3.951-6.433-7.415-8.033l-1.092-0.505c-2.888-1.334-4.148-4.757-2.814-7.645c1.334-2.888,4.757-4.148,7.645-2.814
								l1.092,0.504c12.917,5.966,18.572,21.328,12.606,34.245c-2.89,6.257-8.044,11.015-14.512,13.395
								C410.786,263.954,407.771,264.487,404.764,264.487z"/>
						</g>
					</g>
				</g>
				<g>
					<path style="fill-rule:evenodd;clip-rule:evenodd;fill:#212121;" d="M382.089,222.043c-0.808,0-1.629-0.171-2.411-0.532
						l-11.207-5.176c-2.888-1.334-4.148-4.756-2.814-7.645c1.334-2.888,4.756-4.148,7.645-2.814l11.206,5.176
						c2.888,1.334,4.148,4.756,2.814,7.645C386.35,220.802,384.266,222.043,382.089,222.043z"/>
				</g>
			</g>
			<g>
				<path style="fill-rule:evenodd;clip-rule:evenodd;fill:#212121;" d="M203.577,328.418h-68.19c-3.181,0-5.76-2.579-5.76-5.76
					c0-3.181,2.579-5.76,5.76-5.76h68.189c4.591,0,8.987-1.955,12.061-5.365l50.576-56.093c2.13-2.363,5.773-2.551,8.135-0.421
					c2.363,2.13,2.551,5.773,0.421,8.135l-50.576,56.093C218.939,325.075,211.424,328.418,203.577,328.418z"/>
			</g>
			<g>
				<path style="fill-rule:evenodd;clip-rule:evenodd;fill:#212121;" d="M193.742,306.306h-58.355c-3.181,0-5.76-2.579-5.76-5.76
					c0-3.181,2.579-5.76,5.76-5.76h58.355c4.591,0,8.987-1.955,12.061-5.365l39.391-43.69c2.13-2.363,5.772-2.551,8.135-0.421
					c2.363,2.13,2.551,5.772,0.421,8.135l-39.391,43.69C209.104,302.964,201.589,306.306,193.742,306.306z"/>
			</g>
		</g>
	</g>
</g>
</svg>
