<?xml version="1.0" encoding="iso-8859-1"?>
<!-- Generator: Adobe Illustrator 25.2.0, SVG Export Plug-In . SVG Version: 6.00 Build 0)  -->
<svg version="1.1" xmlns="http://www.w3.org/2000/svg" xmlns:xlink="http://www.w3.org/1999/xlink" x="0px" y="0px"
	 viewBox="0 0 492 492" style="enable-background:new 0 0 492 492;" xml:space="preserve">
<g id="Master_Layer_2">
</g>
<g id="Layer_1">
	<g>
		<g>
			<g>
				<g>
					<g>
						<path style="fill-rule:evenodd;clip-rule:evenodd;fill:#212121;" d="M368.211,369.592H124.31
							c-6.621,0-12.008-5.387-12.008-12.008v-38.589c0-3.181,2.579-5.76,5.76-5.76c3.181,0,5.76,2.579,5.76,5.76v38.589
							c0,0.269,0.219,0.487,0.488,0.487l243.902,0c0.269,0,0.487-0.219,0.487-0.487l0-243.9c0-0.269-0.218-0.488-0.487-0.488H124.31
							c-0.269,0-0.488,0.218-0.488,0.488v38.589c0,3.181-2.579,5.76-5.76,5.76c-3.181,0-5.76-2.579-5.76-5.76v-38.589
							c0-6.621,5.387-12.007,12.008-12.007h243.902c6.621,0,12.008,5.387,12.008,12.007v243.899
							C380.219,364.205,374.832,369.592,368.211,369.592z"/>
					</g>
					<g>
						<path style="fill-rule:evenodd;clip-rule:evenodd;fill:#212121;" d="M118.062,274.178c-3.181,0-5.76-2.579-5.76-5.76v-65.566
							c0-3.181,2.579-5.76,5.76-5.76c3.181,0,5.76,2.579,5.76,5.76v65.566C123.822,271.599,121.243,274.178,118.062,274.178z"/>
					</g>
					<g>
						<g>
							<path style="fill-rule:evenodd;clip-rule:evenodd;fill:#212121;" d="M118.063,324.756c-9.115,0-16.531-7.416-16.531-16.532
								V279.19c0-9.115,7.416-16.532,16.531-16.532c9.115,0,16.531,7.416,16.531,16.532v29.035
								C134.594,317.34,127.178,324.756,118.063,324.756L118.063,324.756z M118.063,274.178c-2.763,0-5.011,2.248-5.011,5.012
								v29.035c0,2.764,2.248,5.012,5.011,5.012c2.763,0,5.011-2.248,5.011-5.012V279.19
								C123.075,276.426,120.826,274.178,118.063,274.178z"/>
						</g>
						<g>
							<path style="fill-rule:evenodd;clip-rule:evenodd;fill:#212121;" d="M118.063,208.612c-9.115,0-16.531-7.416-16.531-16.531
								v-29.035c0-9.115,7.416-16.531,16.531-16.531c9.115,0,16.531,7.416,16.531,16.531v29.035
								C134.594,201.196,127.178,208.612,118.063,208.612L118.063,208.612z M118.063,158.034c-2.763,0-5.011,2.248-5.011,5.011
								v29.035c0,2.763,2.248,5.011,5.011,5.011c2.763,0,5.011-2.248,5.011-5.011v-29.035
								C123.075,160.282,120.826,158.034,118.063,158.034z"/>
						</g>
					</g>
					<g>
						<g>
							<path style="fill-rule:evenodd;clip-rule:evenodd;fill:#212121;" d="M246.26,300.236c-17.256,0-33.479-6.72-45.68-18.921
								c-12.202-12.202-18.921-28.425-18.921-45.68s6.72-33.479,18.921-45.68c12.201-12.201,28.424-18.921,45.68-18.921
								c17.255,0,33.478,6.72,45.68,18.921c12.202,12.201,18.921,28.424,18.921,45.68s-6.72,33.478-18.921,45.68
								C279.738,293.516,263.516,300.236,246.26,300.236L246.26,300.236z M246.26,182.554c-29.269,0-53.081,23.812-53.081,53.081
								c0,29.269,23.812,53.081,53.081,53.081c29.269,0,53.081-23.812,53.081-53.081
								C299.341,206.366,275.529,182.554,246.26,182.554z"/>
						</g>
						<g>
							<path style="fill-rule:evenodd;clip-rule:evenodd;fill:#212121;" d="M246.26,300.236c-3.181,0-5.76-2.579-5.76-5.76v-14.99
								c0-3.181,2.579-5.76,5.76-5.76s5.76,2.579,5.76,5.76v14.99C252.02,297.657,249.442,300.236,246.26,300.236z"/>
						</g>
						<g>
							<path style="fill-rule:evenodd;clip-rule:evenodd;fill:#212121;" d="M246.26,197.544c-3.181,0-5.76-2.579-5.76-5.76v-14.99
								c0-3.181,2.579-5.76,5.76-5.76s5.76,2.579,5.76,5.76v14.99C252.02,194.965,249.442,197.544,246.26,197.544z"/>
						</g>
						<g>
							<path style="fill-rule:evenodd;clip-rule:evenodd;fill:#212121;" d="M204.652,283.002c-1.474,0-2.948-0.563-4.073-1.688
								c-2.249-2.25-2.249-5.897,0.001-8.146l10.556-10.554c1.046-1.07,2.505-1.734,4.119-1.734c3.181,0,5.76,2.578,5.76,5.759
								c0,1.528-0.607,2.995-1.688,4.075l-10.602,10.6C207.6,282.44,206.126,283.002,204.652,283.002z"/>
						</g>
						<g>
							<path style="fill-rule:evenodd;clip-rule:evenodd;fill:#212121;" d="M277.267,210.387c-1.474,0-2.948-0.562-4.073-1.687
								c-2.249-2.25-2.249-5.896,0-8.146l10.6-10.6c2.25-2.25,5.896-2.25,8.146,0c2.249,2.25,2.249,5.896,0,8.146l-10.6,10.6
								C280.215,209.825,278.741,210.387,277.267,210.387z"/>
						</g>
						<g>
							<path style="fill-rule:evenodd;clip-rule:evenodd;fill:#212121;" d="M202.41,241.394h-14.992c-3.181,0-5.76-2.579-5.76-5.76
								c0-3.181,2.579-5.76,5.76-5.76h14.992c3.181,0,5.76,2.579,5.76,5.76C208.17,238.815,205.592,241.394,202.41,241.394z"/>
						</g>
						<g>
							<path style="fill-rule:evenodd;clip-rule:evenodd;fill:#212121;" d="M305.102,241.394H290.11c-3.181,0-5.76-2.579-5.76-5.76
								c0-3.181,2.579-5.76,5.76-5.76h14.992c3.181,0,5.76,2.579,5.76,5.76C310.862,238.815,308.284,241.394,305.102,241.394z"/>
						</g>
						<g>
							<path style="fill-rule:evenodd;clip-rule:evenodd;fill:#212121;" d="M215.254,210.39c-1.474,0-2.948-0.562-4.073-1.687
								l-10.602-10.602c-2.25-2.25-2.25-5.897,0-8.146c2.25-2.25,5.896-2.25,8.146,0l10.602,10.602c2.25,2.25,2.25,5.897,0,8.146
								C218.202,209.827,216.728,210.39,215.254,210.39z"/>
						</g>
						<g>
							<path style="fill-rule:evenodd;clip-rule:evenodd;fill:#212121;" d="M287.866,283.002c-1.474,0-2.948-0.562-4.073-1.687
								l-10.6-10.6c-2.249-2.249-2.249-5.896,0-8.146c2.25-2.25,5.896-2.25,8.146,0l10.6,10.6c2.249,2.25,2.249,5.896,0,8.146
								C290.815,282.44,289.341,283.002,287.866,283.002z"/>
						</g>
						<g>
							<path style="fill-rule:evenodd;clip-rule:evenodd;fill:#212121;" d="M246.26,260.723c-13.834,0-25.088-11.255-25.088-25.088
								c0-13.833,11.255-25.088,25.088-25.088c13.833,0,25.088,11.254,25.088,25.088
								C271.348,249.468,260.094,260.723,246.26,260.723L246.26,260.723z M246.26,222.067c-7.481,0-13.568,6.086-13.568,13.568
								s6.087,13.568,13.568,13.568c7.481,0,13.568-6.087,13.568-13.568C259.828,228.153,253.742,222.067,246.26,222.067z"/>
						</g>
					</g>
					<g>
						<path style="fill-rule:evenodd;clip-rule:evenodd;fill:#212121;" d="M345.924,256.044c-3.181,0-5.76-2.579-5.76-5.76v-29.298
							c0-3.181,2.579-5.76,5.76-5.76c3.181,0,5.76,2.579,5.76,5.76v29.298C351.684,253.465,349.106,256.044,345.924,256.044z"/>
					</g>
				</g>
				<g>
					<path style="fill-rule:evenodd;clip-rule:evenodd;fill:#212121;" d="M402.729,408.85H89.792
						c-9.234,0-16.746-7.512-16.746-16.746V79.166c0-9.234,7.512-16.746,16.746-16.746l312.938,0
						c9.234,0,16.746,7.512,16.746,16.746v312.938C419.475,401.337,411.963,408.85,402.729,408.85L402.729,408.85z M89.792,73.94
						c-2.882,0-5.226,2.345-5.226,5.226v312.938c0,2.882,2.345,5.226,5.226,5.226h312.938c2.882,0,5.226-2.345,5.226-5.226V79.166
						c0-2.882-2.344-5.226-5.226-5.226L89.792,73.94z"/>
				</g>
			</g>
			<g>
				<g>
					<path style="fill-rule:evenodd;clip-rule:evenodd;fill:#212121;" d="M156.63,431.06h-27.229
						c-6.459,0-11.714-5.255-11.714-11.714V403.09c0-3.181,2.579-5.76,5.76-5.76s5.76,2.579,5.76,5.76v16.256
						c0,0.107,0.087,0.194,0.194,0.194h27.228c0.107,0,0.194-0.087,0.194-0.194V403.09c0-3.181,2.579-5.76,5.76-5.76
						c3.181,0,5.76,2.579,5.76,5.76v16.256C168.344,425.805,163.089,431.06,156.63,431.06z"/>
				</g>
				<g>
					<path style="fill-rule:evenodd;clip-rule:evenodd;fill:#212121;" d="M363.119,431.06h-27.228
						c-6.459,0-11.714-5.255-11.714-11.714V403.09c0-3.181,2.579-5.76,5.76-5.76c3.181,0,5.76,2.579,5.76,5.76v16.256
						c0,0.107,0.087,0.194,0.194,0.194h27.228c0.107,0,0.194-0.087,0.194-0.194V403.09c0-3.181,2.579-5.76,5.76-5.76
						c3.181,0,5.76,2.579,5.76,5.76v16.256C374.832,425.805,369.578,431.06,363.119,431.06z"/>
				</g>
			</g>
		</g>
	</g>
</g>
</svg>
