<?xml version="1.0" encoding="iso-8859-1"?>
<!-- Generator: Adobe Illustrator 25.2.0, SVG Export Plug-In . SVG Version: 6.00 Build 0)  -->
<svg version="1.1" xmlns="http://www.w3.org/2000/svg" xmlns:xlink="http://www.w3.org/1999/xlink" x="0px" y="0px"
	 viewBox="0 0 492 492" style="enable-background:new 0 0 492 492;" xml:space="preserve">
<g id="Master_Layer_2">
</g>
<g id="Layer_1">
	<g>
		<g>
			<g>
				<g>
					<path style="fill-rule:evenodd;clip-rule:evenodd;fill:#212121;" d="M387.201,407.065H105.32
						c-17.304,0-31.382-14.078-31.382-31.382l0-281.881c0-17.304,14.078-31.382,31.382-31.382l281.881,0
						c17.304,0,31.382,14.078,31.382,31.382v281.881C418.583,392.987,404.505,407.065,387.201,407.065L387.201,407.065z
						 M105.32,73.94c-10.952,0-19.862,8.91-19.862,19.862v281.881c0,10.952,8.91,19.862,19.862,19.862l281.881,0
						c10.952,0,19.862-8.91,19.862-19.862l0-281.881c0-10.952-8.91-19.862-19.862-19.862L105.32,73.94z"/>
				</g>
				<g>
					<g>
						<path style="fill-rule:evenodd;clip-rule:evenodd;fill:#212121;" d="M371.068,371.131H121.452
							c-6.385,0-11.58-5.195-11.58-11.58V109.934c0-6.385,5.195-11.58,11.58-11.58l249.616,0c6.385,0,11.58,5.195,11.58,11.58
							V359.55C382.649,365.936,377.454,371.131,371.068,371.131L371.068,371.131z M121.452,109.874c-0.033,0-0.06,0.027-0.06,0.06
							V359.55c0,0.033,0.027,0.06,0.06,0.06h249.616c0.034,0,0.06-0.027,0.06-0.06V109.934c0-0.033-0.027-0.06-0.06-0.06H121.452z"
							/>
					</g>
					<g>
						<g>
							<path style="fill-rule:evenodd;clip-rule:evenodd;fill:#212121;" d="M265.517,189.091H153.246c-3.181,0-5.76-2.579-5.76-5.76
								V150.07c0-3.181,2.579-5.76,5.76-5.76h112.271c3.181,0,5.76,2.579,5.76,5.76v33.261
								C271.277,186.512,268.699,189.091,265.517,189.091L265.517,189.091z M159.006,177.571h100.752V155.83H159.006V177.571z"/>
						</g>
						<g>
							<g>
								<g>
									<path style="fill-rule:evenodd;clip-rule:evenodd;fill:#212121;" d="M172.32,240.289h-19.074
										c-3.181,0-5.76-2.579-5.76-5.76v-19.074c0-3.181,2.579-5.76,5.76-5.76h19.074c3.181,0,5.76,2.579,5.76,5.76v19.074
										C178.08,237.71,175.501,240.289,172.32,240.289L172.32,240.289z M159.006,228.769h7.554v-7.554h-7.554V228.769z"/>
								</g>
								<g>
									<path style="fill-rule:evenodd;clip-rule:evenodd;fill:#212121;" d="M218.919,240.289h-19.074
										c-3.181,0-5.76-2.579-5.76-5.76v-19.074c0-3.181,2.579-5.76,5.76-5.76h19.074c3.181,0,5.76,2.579,5.76,5.76v19.074
										C224.679,237.71,222.1,240.289,218.919,240.289L218.919,240.289z M205.605,228.769h7.554v-7.554h-7.554V228.769z"/>
								</g>
								<g>
									<path style="fill-rule:evenodd;clip-rule:evenodd;fill:#212121;" d="M265.517,240.289h-19.074
										c-3.181,0-5.76-2.579-5.76-5.76v-19.074c0-3.181,2.579-5.76,5.76-5.76h19.074c3.181,0,5.76,2.579,5.76,5.76v19.074
										C271.277,237.71,268.699,240.289,265.517,240.289L265.517,240.289z M252.204,228.769h7.554v-7.554h-7.554V228.769z"/>
								</g>
							</g>
							<g>
								<g>
									<path style="fill-rule:evenodd;clip-rule:evenodd;fill:#212121;" d="M172.32,282.732h-19.074
										c-3.181,0-5.76-2.579-5.76-5.76v-19.074c0-3.181,2.579-5.76,5.76-5.76h19.074c3.181,0,5.76,2.579,5.76,5.76v19.074
										C178.08,280.153,175.501,282.732,172.32,282.732L172.32,282.732z M159.006,271.212h7.554v-7.554h-7.554V271.212z"/>
								</g>
								<g>
									<path style="fill-rule:evenodd;clip-rule:evenodd;fill:#212121;" d="M218.919,282.732h-19.074
										c-3.181,0-5.76-2.579-5.76-5.76v-19.074c0-3.181,2.579-5.76,5.76-5.76h19.074c3.181,0,5.76,2.579,5.76,5.76v19.074
										C224.679,280.153,222.1,282.732,218.919,282.732L218.919,282.732z M205.605,271.212h7.554v-7.554h-7.554V271.212z"/>
								</g>
								<g>
									<path style="fill-rule:evenodd;clip-rule:evenodd;fill:#212121;" d="M265.517,282.732h-19.074
										c-3.181,0-5.76-2.579-5.76-5.76v-19.074c0-3.181,2.579-5.76,5.76-5.76h19.074c3.181,0,5.76,2.579,5.76,5.76v19.074
										C271.277,280.153,268.699,282.732,265.517,282.732L265.517,282.732z M252.204,271.212h7.554v-7.554h-7.554V271.212z"/>
								</g>
							</g>
							<g>
								<g>
									<path style="fill-rule:evenodd;clip-rule:evenodd;fill:#212121;" d="M172.32,325.175h-19.074
										c-3.181,0-5.76-2.579-5.76-5.76v-19.074c0-3.181,2.579-5.76,5.76-5.76h19.074c3.181,0,5.76,2.579,5.76,5.76v19.074
										C178.08,322.596,175.501,325.175,172.32,325.175L172.32,325.175z M159.006,313.655h7.554V306.1h-7.554V313.655z"/>
								</g>
								<g>
									<path style="fill-rule:evenodd;clip-rule:evenodd;fill:#212121;" d="M218.919,325.175h-19.074
										c-3.181,0-5.76-2.579-5.76-5.76v-19.074c0-3.181,2.579-5.76,5.76-5.76h19.074c3.181,0,5.76,2.579,5.76,5.76v19.074
										C224.679,322.596,222.1,325.175,218.919,325.175L218.919,325.175z M205.605,313.655h7.554V306.1h-7.554V313.655z"/>
								</g>
								<g>
									<path style="fill-rule:evenodd;clip-rule:evenodd;fill:#212121;" d="M265.517,325.175h-19.074
										c-3.181,0-5.76-2.579-5.76-5.76v-19.074c0-3.181,2.579-5.76,5.76-5.76h19.074c3.181,0,5.76,2.579,5.76,5.76v19.074
										C271.277,322.596,268.699,325.175,265.517,325.175L265.517,325.175z M252.204,313.655h7.554V306.1h-7.554V313.655z"/>
								</g>
							</g>
						</g>
					</g>
					<g>
						<g>
							<path style="fill-rule:evenodd;clip-rule:evenodd;fill:#212121;" d="M342.188,251.605c-9.298,0-16.863-7.564-16.863-16.863
								s7.565-16.863,16.863-16.863s16.863,7.565,16.863,16.863S351.486,251.605,342.188,251.605L342.188,251.605z M342.188,229.4
								c-2.946,0-5.343,2.397-5.343,5.343c0,2.946,2.397,5.342,5.343,5.342c2.946,0,5.343-2.397,5.343-5.342
								C347.53,231.797,345.134,229.4,342.188,229.4z"/>
						</g>
						<g>
							<path style="fill-rule:evenodd;clip-rule:evenodd;fill:#212121;" d="M331.086,240.503h-31.154c-3.181,0-5.76-2.579-5.76-5.76
								c0-3.181,2.579-5.76,5.76-5.76h31.154c3.181,0,5.76,2.579,5.76,5.76C336.846,237.924,334.267,240.503,331.086,240.503z"/>
						</g>
					</g>
				</g>
			</g>
			<g>
				<g>
					<path style="fill-rule:evenodd;clip-rule:evenodd;fill:#212121;" d="M135.974,431.06c-9.792,0-17.758-7.966-17.758-17.757
						v-11.997c0-3.181,2.579-5.76,5.76-5.76c3.181,0,5.76,2.579,5.76,5.76v11.997c0,3.439,2.798,6.237,6.238,6.237
						c3.439,0,6.237-2.798,6.237-6.237v-11.997c0-3.181,2.579-5.76,5.76-5.76s5.76,2.579,5.76,5.76v11.997
						C153.731,423.094,145.765,431.06,135.974,431.06z"/>
				</g>
				<g>
					<path style="fill-rule:evenodd;clip-rule:evenodd;fill:#212121;" d="M356.547,431.06c-9.792,0-17.758-7.966-17.758-17.757
						v-11.997c0-3.181,2.579-5.76,5.76-5.76c3.181,0,5.76,2.579,5.76,5.76v11.997c0,3.439,2.798,6.237,6.238,6.237
						c3.439,0,6.237-2.798,6.237-6.237v-11.997c0-3.181,2.579-5.76,5.76-5.76c3.181,0,5.76,2.579,5.76,5.76v11.997
						C374.304,423.094,366.338,431.06,356.547,431.06z"/>
				</g>
			</g>
		</g>
	</g>
</g>
</svg>
