<?xml version="1.0" encoding="iso-8859-1"?>
<!-- Generator: Adobe Illustrator 25.2.0, SVG Export Plug-In . SVG Version: 6.00 Build 0)  -->
<svg version="1.1" xmlns="http://www.w3.org/2000/svg" xmlns:xlink="http://www.w3.org/1999/xlink" x="0px" y="0px"
	 viewBox="0 0 492 492" style="enable-background:new 0 0 492 492;" xml:space="preserve">
<g id="Master_Layer_2">
</g>
<g id="Layer_1">
	<g>
		<g>
			<g>
				<g>
					<path style="fill-rule:evenodd;clip-rule:evenodd;fill:#212121;" d="M391.629,370.331h-253.11
						c-8.697,0-15.773-7.076-15.773-15.773v-66.745c0-8.697,7.076-15.773,15.773-15.773l253.11,0
						c8.697,0,15.773,7.076,15.773,15.773v66.745C407.402,363.255,400.326,370.331,391.629,370.331L391.629,370.331z
						 M138.519,283.559c-2.345,0-4.253,1.908-4.253,4.253v66.745c0,2.345,1.908,4.253,4.253,4.253l253.11,0
						c2.345,0,4.253-1.908,4.253-4.253v-66.745c0-2.345-1.908-4.253-4.253-4.253L138.519,283.559z"/>
				</g>
				<g>
					<g>
						<g>
							<path style="fill-rule:evenodd;clip-rule:evenodd;fill:#212121;" d="M354.422,342.544c-3.181,0-5.76-2.579-5.76-5.76v-31.2
								c0-3.181,2.579-5.76,5.76-5.76c3.181,0,5.76,2.579,5.76,5.76v31.2C360.182,339.965,357.603,342.544,354.422,342.544z"/>
						</g>
						<g>
							<path style="fill-rule:evenodd;clip-rule:evenodd;fill:#212121;" d="M340.442,333.86c-2.122,0-4.164-1.177-5.168-3.208
								c-1.41-2.852-0.241-6.306,2.611-7.716l27.968-13.828c2.853-1.409,6.306-0.241,7.716,2.611
								c1.41,2.852,0.241,6.306-2.611,7.716l-27.968,13.828C342.17,333.667,341.299,333.86,340.442,333.86z"/>
						</g>
						<g>
							<path style="fill-rule:evenodd;clip-rule:evenodd;fill:#212121;" d="M366.813,336.416c-1.22,0-2.449-0.386-3.493-1.184
								l-24.791-18.943c-2.528-1.932-3.011-5.546-1.08-8.074c1.931-2.528,5.546-3.011,8.074-1.08l24.791,18.943
								c2.528,1.932,3.011,5.546,1.08,8.074C370.261,335.637,368.547,336.416,366.813,336.416z"/>
						</g>
					</g>
					<g>
						<g>
							<path style="fill-rule:evenodd;clip-rule:evenodd;fill:#212121;" d="M294.856,342.544c-3.181,0-5.76-2.579-5.76-5.76v-31.2
								c0-3.181,2.579-5.76,5.76-5.76s5.76,2.579,5.76,5.76v31.2C300.616,339.965,298.038,342.544,294.856,342.544z"/>
						</g>
						<g>
							<path style="fill-rule:evenodd;clip-rule:evenodd;fill:#212121;" d="M280.877,333.86c-2.122,0-4.164-1.177-5.168-3.208
								c-1.41-2.852-0.241-6.306,2.611-7.716l27.968-13.828c2.852-1.409,6.306-0.241,7.716,2.611
								c1.41,2.852,0.241,6.306-2.611,7.716l-27.968,13.828C282.605,333.667,281.734,333.86,280.877,333.86z"/>
						</g>
						<g>
							<path style="fill-rule:evenodd;clip-rule:evenodd;fill:#212121;" d="M307.248,336.416c-1.22,0-2.449-0.386-3.493-1.184
								l-24.791-18.943c-2.528-1.932-3.011-5.546-1.08-8.074c1.931-2.528,5.546-3.011,8.074-1.08l24.791,18.943
								c2.528,1.932,3.011,5.546,1.08,8.074C310.695,335.637,308.981,336.416,307.248,336.416z"/>
						</g>
					</g>
					<g>
						<g>
							<path style="fill-rule:evenodd;clip-rule:evenodd;fill:#212121;" d="M235.291,342.544c-3.181,0-5.76-2.579-5.76-5.76v-31.2
								c0-3.181,2.579-5.76,5.76-5.76c3.181,0,5.76,2.579,5.76,5.76v31.2C241.051,339.965,238.472,342.544,235.291,342.544z"/>
						</g>
						<g>
							<path style="fill-rule:evenodd;clip-rule:evenodd;fill:#212121;" d="M221.311,333.86c-2.122,0-4.163-1.177-5.167-3.208
								c-1.41-2.852-0.241-6.306,2.61-7.716l27.968-13.828c2.852-1.409,6.307-0.241,7.716,2.611c1.41,2.852,0.241,6.306-2.611,7.716
								l-27.968,13.828C223.039,333.667,222.168,333.86,221.311,333.86z"/>
						</g>
						<g>
							<path style="fill-rule:evenodd;clip-rule:evenodd;fill:#212121;" d="M247.682,336.416c-1.22,0-2.449-0.386-3.493-1.184
								l-24.791-18.943c-2.528-1.932-3.011-5.546-1.079-8.074c1.931-2.528,5.546-3.011,8.074-1.08l24.791,18.943
								c2.528,1.932,3.011,5.546,1.08,8.074C251.13,335.637,249.416,336.416,247.682,336.416z"/>
						</g>
					</g>
					<g>
						<g>
							<path style="fill-rule:evenodd;clip-rule:evenodd;fill:#212121;" d="M175.725,342.544c-3.181,0-5.76-2.579-5.76-5.76v-31.2
								c0-3.181,2.579-5.76,5.76-5.76s5.76,2.579,5.76,5.76v31.2C181.485,339.965,178.907,342.544,175.725,342.544z"/>
						</g>
						<g>
							<path style="fill-rule:evenodd;clip-rule:evenodd;fill:#212121;" d="M161.746,333.86c-2.122,0-4.163-1.177-5.168-3.208
								c-1.41-2.852-0.241-6.306,2.611-7.716l27.968-13.828c2.852-1.409,6.306-0.241,7.716,2.611c1.41,2.852,0.241,6.306-2.61,7.716
								l-27.968,13.828C163.474,333.667,162.603,333.86,161.746,333.86z"/>
						</g>
						<g>
							<path style="fill-rule:evenodd;clip-rule:evenodd;fill:#212121;" d="M188.117,336.416c-1.22,0-2.449-0.386-3.493-1.184
								l-24.791-18.943c-2.528-1.932-3.011-5.546-1.079-8.074c1.931-2.528,5.546-3.011,8.074-1.08l24.791,18.943
								c2.528,1.932,3.011,5.546,1.079,8.074C191.564,335.637,189.85,336.416,188.117,336.416z"/>
						</g>
					</g>
				</g>
			</g>
			<g>
				<path style="fill-rule:evenodd;clip-rule:evenodd;fill:#212121;" d="M292.997,431.06h-165.71
					c-23.252,0-42.168-18.916-42.168-42.168V230.794c0-10.744,8.74-19.486,19.483-19.486h211.08
					c10.743,0,19.483,8.741,19.483,19.486v47.004c0,3.181-2.579,5.76-5.76,5.76c-3.181,0-5.76-2.579-5.76-5.76v-47.004
					c0-4.392-3.573-7.966-7.963-7.966h-211.08c-4.391,0-7.963,3.573-7.963,7.966l0,158.097c0,16.899,13.749,30.648,30.648,30.648
					l165.71,0c16.899,0,30.648-13.749,30.648-30.648V364.57c0-3.181,2.579-5.76,5.76-5.76c3.181,0,5.76,2.579,5.76,5.76v24.322
					C335.165,412.143,316.248,431.06,292.997,431.06z"/>
			</g>
			<g>
				<path style="fill-rule:evenodd;clip-rule:evenodd;fill:#212121;" d="M159.99,222.828c-3.181,0-5.76-2.579-5.76-5.76v-63.742
					c0-14.888,5.82-28.979,16.388-39.677c10.613-10.743,24.642-16.662,39.502-16.667c0.005,0,0.013,0,0.018,0
					c14.912,0,28.944,5.819,39.516,16.387c10.575,10.572,16.399,24.609,16.399,39.525v9.13c0,6.353,5.168,11.522,11.521,11.522
					s11.522-5.169,11.522-11.522v-9.13c0-43.259-35.189-78.677-78.442-78.953c-20.962-0.13-40.796,8.031-55.852,22.992
					c-15.229,15.132-23.616,35.202-23.616,56.513v63.621c0,3.181-2.579,5.76-5.76,5.76s-5.76-2.579-5.76-5.76v-63.621
					c0-12.311,2.444-24.284,7.265-35.586c4.654-10.911,11.299-20.701,19.751-29.099c8.369-8.315,18.074-14.83,28.846-19.362
					c11.189-4.708,23.033-7.061,35.2-6.978c12.149,0.077,23.929,2.525,35.014,7.274c10.708,4.588,20.32,11.121,28.567,19.418
					c8.25,8.3,14.726,17.952,19.249,28.691c4.684,11.121,7.059,22.927,7.059,35.09v9.13c0,12.705-10.336,23.042-23.041,23.042
					c-12.705,0-23.042-10.336-23.042-23.042v-9.13c0-11.838-4.625-22.981-13.023-31.377c-8.395-8.393-19.536-13.015-31.371-13.015
					c-0.005,0-0.01,0-0.015,0c-24.468,0.008-44.375,20.115-44.375,44.823v63.742C165.749,220.249,163.171,222.828,159.99,222.828z"
					/>
			</g>
		</g>
	</g>
</g>
</svg>
