<?xml version="1.0" encoding="iso-8859-1"?>
<!-- Generator: Adobe Illustrator 25.2.0, SVG Export Plug-In . SVG Version: 6.00 Build 0)  -->
<svg version="1.1" xmlns="http://www.w3.org/2000/svg" xmlns:xlink="http://www.w3.org/1999/xlink" x="0px" y="0px"
	 viewBox="0 0 492 492" style="enable-background:new 0 0 492 492;" xml:space="preserve">
<g id="Master_Layer_2">
</g>
<g id="Layer_1">
	<g>
		<g>
			<g>
				<g>
					<path style="fill-rule:evenodd;clip-rule:evenodd;fill:#212121;" d="M324.065,315.924c-1.474,0-2.948-0.562-4.073-1.687
						l-13.528-13.528c-2.249-2.249-2.249-5.896,0-8.146c2.25-2.249,5.896-2.25,8.146,0l9.455,9.455l27.966-27.966
						c2.25-2.25,5.896-2.25,8.146,0c2.249,2.25,2.249,5.896,0,8.146l-32.039,32.039
						C327.013,315.362,325.539,315.924,324.065,315.924z"/>
				</g>
				<g>
					<path style="fill-rule:evenodd;clip-rule:evenodd;fill:#212121;" d="M333.321,431.06c-1.392,0-2.783-0.502-3.883-1.505
						l-26.303-24.005c-42.127-38.447-65.739-93.203-64.781-150.229l0.454-27.04c0.046-2.747,2.026-5.08,4.73-5.57
						c54.278-9.855,85.733-36.262,86.044-36.528c2.153-1.837,5.322-1.837,7.475,0c0.073,0.062,8.018,6.749,22.556,14.561
						c13.382,7.19,35.258,16.837,63.489,21.963c2.704,0.491,4.684,2.823,4.73,5.571l0.454,27.045
						c0.958,57.026-22.654,111.782-64.781,150.229l-26.303,24.005C336.104,430.558,334.712,431.06,333.321,431.06L333.321,431.06z
						 M250.248,233.152l-0.376,22.363c-0.903,53.722,21.341,105.306,61.028,141.526l22.42,20.461l22.42-20.461
						c39.687-36.219,61.931-87.804,61.028-141.526l0,0l-0.375-22.368c-27.653-5.605-49.163-15.2-62.595-22.452
						c-9.676-5.225-16.576-9.95-20.477-12.834c-3.901,2.884-10.801,7.611-20.477,12.836
						C299.412,217.95,277.901,227.546,250.248,233.152z"/>
				</g>
				<g>
					<path style="fill-rule:evenodd;clip-rule:evenodd;fill:#212121;" d="M333.321,393.592c-1.392,0-2.783-0.502-3.883-1.505
						l-7.647-6.979c-36.265-33.096-56.59-80.233-55.765-129.322l0.09-5.36c0.043-2.557,1.767-4.78,4.233-5.458
						c17.609-4.839,34.489-11.587,50.172-20.056c3.345-1.807,6.642-3.701,9.799-5.63c1.844-1.126,4.164-1.126,6.007,0
						c3.154,1.927,6.45,3.821,9.797,5.628c15.682,8.467,32.562,15.214,50.17,20.053c2.466,0.678,4.19,2.9,4.233,5.458l0.09,5.365
						c0.825,49.089-19.501,96.225-55.765,129.322l-7.647,6.979C336.104,393.091,334.712,393.592,333.321,393.592L333.321,393.592z
						 M277.562,254.895l-0.018,1.084c-0.77,45.786,18.188,89.75,52.013,120.62l0,0l3.764,3.436l3.764-3.436
						c33.824-30.869,52.782-74.833,52.013-120.619l-0.018-1.089c-16.949-4.965-33.221-11.632-48.43-19.843
						c-2.479-1.339-4.933-2.723-7.328-4.133c-2.396,1.411-4.85,2.796-7.329,4.135C310.785,243.261,294.511,249.928,277.562,254.895z
						"/>
				</g>
			</g>
			<g>
				<path style="fill-rule:evenodd;clip-rule:evenodd;fill:#212121;" d="M247.863,302.422H85.88
					c-11.951,0-21.674-9.723-21.674-21.674V84.094c0-11.951,9.723-21.674,21.674-21.674l302.371,0
					c11.95,0,21.672,9.723,21.672,21.674v140.282c0,3.181-2.579,5.76-5.76,5.76c-3.181,0-5.76-2.579-5.76-5.76V84.094
					c0-5.599-4.554-10.154-10.152-10.154l-302.371,0c-5.599,0-10.154,4.555-10.154,10.154v196.654
					c0,5.599,4.555,10.154,10.154,10.154l161.983,0c3.181,0,5.76,2.579,5.76,5.76C253.623,299.843,251.044,302.422,247.863,302.422z
					"/>
			</g>
			<g>
				<path style="fill-rule:evenodd;clip-rule:evenodd;fill:#212121;" d="M404.163,152.492H69.965c-3.181,0-5.76-2.579-5.76-5.76
					s2.579-5.76,5.76-5.76h334.198c3.181,0,5.76,2.579,5.76,5.76S407.344,152.492,404.163,152.492z"/>
			</g>
			<g>
				<path style="fill-rule:evenodd;clip-rule:evenodd;fill:#212121;" d="M404.163,119.527H69.965c-3.181,0-5.76-2.579-5.76-5.76
					c0-3.181,2.579-5.76,5.76-5.76h334.198c3.181,0,5.76,2.579,5.76,5.76C409.923,116.948,407.344,119.527,404.163,119.527z"/>
			</g>
			<g>
				<path style="fill-rule:evenodd;clip-rule:evenodd;fill:#212121;" d="M158.916,262.636h-49.165c-3.181,0-5.76-2.579-5.76-5.76
					v-29.135c0-3.181,2.579-5.76,5.76-5.76h49.165c3.181,0,5.76,2.579,5.76,5.76v29.135
					C164.676,260.057,162.097,262.636,158.916,262.636L158.916,262.636z M115.511,251.116h37.645v-17.615h-37.645V251.116z"/>
			</g>
		</g>
	</g>
</g>
</svg>
