<?xml version="1.0" encoding="iso-8859-1"?>
<!-- Generator: Adobe Illustrator 25.2.0, SVG Export Plug-In . SVG Version: 6.00 Build 0)  -->
<svg version="1.1" xmlns="http://www.w3.org/2000/svg" xmlns:xlink="http://www.w3.org/1999/xlink" x="0px" y="0px"
	 viewBox="0 0 492 492" style="enable-background:new 0 0 492 492;" xml:space="preserve">
<g id="Master_Layer_2">
</g>
<g id="Layer_1">
	<g>
		<g>
			<g>
				<path style="fill-rule:evenodd;clip-rule:evenodd;fill:#212121;" d="M362.672,431.06H129.849
					c-12.29,0-22.356-9.616-22.919-21.891L98.873,233.62c-0.142-3.096,2.192-5.75,5.281-6.005
					c7.854-0.647,13.859-4.386,18.357-11.429c15.921-24.925,8.348-82.431-6.861-123.883c-1.28-3.489-0.969-7.344,0.852-10.579
					c1.816-3.227,4.94-5.487,8.573-6.201l13.395-2.637c0.367-0.072,0.739-0.109,1.113-0.109c3.181,0,5.761,2.579,5.761,5.76
					c0,2.845-2.061,5.208-4.772,5.676l-13.273,2.613c-0.418,0.082-0.643,0.343-0.758,0.547c-0.118,0.21-0.228,0.548-0.075,0.962
					c8.374,22.824,14.15,49.162,15.846,72.26c1.382,18.819,0.752,44.815-10.092,61.791c-3.102,4.856-6.894,8.731-11.269,11.516
					c-3.148,2.004-6.608,3.452-10.334,4.329l3.033,66.108l4.788,104.301c0.28,6.112,5.292,10.898,11.411,10.898h232.823
					c6.119,0,11.131-4.787,11.411-10.898l7.82-170.409c-3.725-0.877-7.185-2.325-10.333-4.329
					c-4.376-2.785-8.167-6.66-11.269-11.516c-10.844-16.976-11.474-42.972-10.092-61.791c1.696-23.098,7.471-49.436,15.846-72.262
					c0.152-0.414,0.042-0.751-0.076-0.961c-0.115-0.204-0.34-0.465-0.757-0.547l-13.4-2.638c-3.121-0.615-5.153-3.643-4.539-6.764
					c0.614-3.121,3.643-5.154,6.764-4.539l13.399,2.638c3.632,0.714,6.756,2.974,8.572,6.201c1.82,3.235,2.131,7.09,0.852,10.578
					c-15.209,41.454-22.783,98.959-6.861,123.884c4.499,7.043,10.503,10.781,18.357,11.429c3.089,0.255,5.423,2.908,5.28,6.005
					l-3.269,71.249l-4.788,104.301C385.029,421.444,374.962,431.06,362.672,431.06z"/>
			</g>
			<g>
				<path style="fill-rule:evenodd;clip-rule:evenodd;fill:#212121;" d="M246.258,160.744c-11.78,0-23.389-3.06-32.69-8.616
					c-10.502-6.274-17.909-15.478-21.42-26.617c-4.988-15.827-7.866-32.263-8.553-48.852c-0.007-0.156-0.135-0.29-0.243-0.376
					c-0.112-0.089-0.521-0.369-1.144-0.264l-16.924,3.331c-3.122,0.614-6.15-1.418-6.764-4.539c-0.614-3.121,1.418-6.15,4.539-6.764
					l16.972-3.341c0.024-0.005,0.049-0.009,0.073-0.014c3.719-0.683,7.523,0.261,10.437,2.589c2.757,2.202,4.421,5.447,4.563,8.901
					c0.645,15.575,3.347,31.006,8.03,45.865c6.322,20.059,27.181,27.176,43.123,27.176c15.944,0,36.805-7.117,43.125-27.176
					c4.685-14.857,7.388-30.288,8.033-45.866c0.143-3.454,1.806-6.698,4.564-8.9c2.914-2.328,6.717-3.272,10.437-2.589
					c0.024,0.005,0.048,0.009,0.073,0.014l16.972,3.341c3.121,0.614,5.153,3.643,4.539,6.764c-0.615,3.121-3.645,5.155-6.764,4.539
					l-16.923-3.331c-0.623-0.105-1.033,0.174-1.145,0.263c-0.107,0.086-0.236,0.22-0.243,0.376
					c-0.687,16.593-3.566,33.03-8.556,48.854c-3.509,11.138-10.916,20.342-21.418,26.616
					C269.651,157.684,258.04,160.744,246.258,160.744z"/>
			</g>
			<g>
				<g>
					<g>
						<path style="fill-rule:evenodd;clip-rule:evenodd;fill:#212121;" d="M151.603,134.9c-2.613,0-4.971-1.787-5.599-4.43
							l-13.231-55.687c-0.358-1.507-0.094-3.094,0.732-4.405c0.826-1.31,2.145-2.232,3.66-2.558l24.484-5.27
							c3.063-0.66,6.092,1.251,6.816,4.3l13.23,55.688c0.358,1.507,0.094,3.095-0.732,4.405c-0.826,1.31-2.146,2.232-3.66,2.558
							l-24.483,5.27C152.412,134.857,152.005,134.9,151.603,134.9L151.603,134.9z M145.342,77.844l10.568,44.477l13.219-2.845
							l-10.567-44.477L145.342,77.844z"/>
					</g>
				</g>
				<g>
					<path style="fill-rule:evenodd;clip-rule:evenodd;fill:#212121;" d="M340.918,134.9c-0.401,0-0.809-0.042-1.217-0.13
						l-24.484-5.27c-1.514-0.326-2.833-1.248-3.66-2.558c-0.826-1.31-1.09-2.898-0.732-4.405l13.231-55.688
						c0.724-3.048,3.753-4.958,6.816-4.3l24.484,5.27c1.514,0.326,2.834,1.248,3.66,2.558c0.826,1.31,1.09,2.898,0.732,4.405
						l-13.231,55.687C345.889,133.112,343.53,134.9,340.918,134.9L340.918,134.9z M323.393,119.476l13.219,2.845l10.568-44.477
						l-13.219-2.845L323.393,119.476z"/>
				</g>
			</g>
			<g>
				<path style="fill-rule:evenodd;clip-rule:evenodd;fill:#212121;" d="M292.275,238.873h-92.029
					c-8.971,0-16.269-7.298-16.269-16.269v-15.686c0-8.971,7.298-16.269,16.269-16.269h92.03c8.971,0,16.269,7.298,16.269,16.269
					v15.686C308.544,231.575,301.246,238.873,292.275,238.873L292.275,238.873z M200.246,202.169c-2.619,0-4.749,2.13-4.749,4.749
					v15.686c0,2.619,2.13,4.749,4.749,4.749h92.03c2.618,0,4.749-2.13,4.749-4.749v-15.686c0-2.619-2.13-4.749-4.749-4.749H200.246z
					"/>
			</g>
			<g>
				<g>
					<path style="fill-rule:evenodd;clip-rule:evenodd;fill:#212121;" d="M281.361,310.363h-70.201c-3.181,0-5.76-2.579-5.76-5.76
						c0-3.181,2.579-5.76,5.76-5.76h70.2c3.181,0,5.76,2.579,5.76,5.76C287.121,307.785,284.543,310.363,281.361,310.363z"/>
				</g>
				<g>
					<path style="fill-rule:evenodd;clip-rule:evenodd;fill:#212121;" d="M281.361,289.125h-70.201c-3.181,0-5.76-2.579-5.76-5.76
						c0-3.181,2.579-5.76,5.76-5.76h70.2c3.181,0,5.76,2.579,5.76,5.76C287.121,286.547,284.543,289.125,281.361,289.125z"/>
				</g>
				<g>
					<path style="fill-rule:evenodd;clip-rule:evenodd;fill:#212121;" d="M384.624,310.365h-41.765c-3.181,0-5.76-2.579-5.76-5.76
						c0-3.181,2.579-5.76,5.76-5.76h41.765c3.181,0,5.76,2.579,5.76,5.76C390.384,307.786,387.805,310.365,384.624,310.365z"/>
				</g>
				<g>
					<path style="fill-rule:evenodd;clip-rule:evenodd;fill:#212121;" d="M385.598,289.125h-42.739c-3.181,0-5.76-2.579-5.76-5.76
						c0-3.181,2.579-5.76,5.76-5.76h42.739c3.181,0,5.76,2.579,5.76,5.76C391.358,286.546,388.78,289.125,385.598,289.125z"/>
				</g>
				<g>
					<path style="fill-rule:evenodd;clip-rule:evenodd;fill:#212121;" d="M149.663,289.125h-42.742c-3.181,0-5.76-2.579-5.76-5.76
						c0-3.181,2.579-5.76,5.76-5.76h42.742c3.181,0,5.76,2.579,5.76,5.76C155.423,286.546,152.844,289.125,149.663,289.125z"/>
				</g>
				<g>
					<path style="fill-rule:evenodd;clip-rule:evenodd;fill:#212121;" d="M149.663,310.365h-41.767c-3.181,0-5.76-2.579-5.76-5.76
						c0-3.181,2.579-5.76,5.76-5.76h41.767c3.181,0,5.76,2.579,5.76,5.76C155.423,307.786,152.844,310.365,149.663,310.365z"/>
				</g>
				<g>
					<g>
						<path style="fill-rule:evenodd;clip-rule:evenodd;fill:#212121;" d="M203.968,321.773h-47.113
							c-7.142,0-12.953-5.81-12.953-12.953v-29.674c0-7.142,5.811-12.953,12.953-12.953l47.113,0
							c7.142,0,12.953,5.811,12.953,12.953v29.674C216.92,315.963,211.11,321.773,203.968,321.773L203.968,321.773z
							 M156.854,277.715c-0.79,0-1.433,0.643-1.433,1.433v29.674c0,0.79,0.643,1.433,1.433,1.433l47.113,0
							c0.79,0,1.433-0.643,1.433-1.433v-29.674c0-0.79-0.643-1.433-1.433-1.433L156.854,277.715z"/>
					</g>
					<g>
						<path style="fill-rule:evenodd;clip-rule:evenodd;fill:#212121;" d="M335.667,321.773h-47.114
							c-7.142,0-12.953-5.81-12.953-12.953v-29.674c0-7.142,5.811-12.953,12.953-12.953l47.114,0
							c7.142,0,12.953,5.811,12.953,12.953v29.674C348.619,315.963,342.809,321.773,335.667,321.773L335.667,321.773z
							 M288.553,277.715c-0.79,0-1.433,0.643-1.433,1.433v29.674c0,0.79,0.643,1.433,1.433,1.433l47.113,0
							c0.79,0,1.433-0.643,1.433-1.433v-29.674c0-0.79-0.643-1.433-1.433-1.433L288.553,277.715z"/>
					</g>
				</g>
			</g>
			<g>
				<g>
					<path style="fill-rule:evenodd;clip-rule:evenodd;fill:#212121;" d="M281.361,386.216h-70.201c-3.181,0-5.76-2.579-5.76-5.76
						c0-3.181,2.579-5.76,5.76-5.76h70.2c3.181,0,5.76,2.579,5.76,5.76C287.121,383.637,284.543,386.216,281.361,386.216z"/>
				</g>
				<g>
					<path style="fill-rule:evenodd;clip-rule:evenodd;fill:#212121;" d="M281.361,364.978h-70.201c-3.181,0-5.76-2.579-5.76-5.76
						s2.579-5.76,5.76-5.76h70.2c3.181,0,5.76,2.579,5.76,5.76S284.543,364.978,281.361,364.978z"/>
				</g>
				<g>
					<path style="fill-rule:evenodd;clip-rule:evenodd;fill:#212121;" d="M381.142,386.216h-38.282c-3.181,0-5.76-2.579-5.76-5.76
						c0-3.181,2.579-5.76,5.76-5.76h38.282c3.181,0,5.76,2.579,5.76,5.76C386.902,383.637,384.323,386.216,381.142,386.216z"/>
				</g>
				<g>
					<path style="fill-rule:evenodd;clip-rule:evenodd;fill:#212121;" d="M382.116,364.978h-39.257c-3.181,0-5.76-2.579-5.76-5.76
						c0-3.181,2.579-5.76,5.76-5.76h39.257c3.181,0,5.76,2.579,5.76,5.76C387.876,362.4,385.297,364.978,382.116,364.978z"/>
				</g>
				<g>
					<path style="fill-rule:evenodd;clip-rule:evenodd;fill:#212121;" d="M149.663,364.978h-39.259c-3.181,0-5.76-2.579-5.76-5.76
						c0-3.181,2.579-5.76,5.76-5.76h39.259c3.181,0,5.76,2.579,5.76,5.76C155.423,362.4,152.844,364.978,149.663,364.978z"/>
				</g>
				<g>
					<path style="fill-rule:evenodd;clip-rule:evenodd;fill:#212121;" d="M149.663,386.216h-38.285c-3.181,0-5.76-2.579-5.76-5.76
						c0-3.181,2.579-5.76,5.76-5.76h38.285c3.181,0,5.76,2.579,5.76,5.76C155.423,383.637,152.844,386.216,149.663,386.216z"/>
				</g>
				<g>
					<g>
						<path style="fill-rule:evenodd;clip-rule:evenodd;fill:#212121;" d="M203.968,397.625h-47.113
							c-7.142,0-12.953-5.811-12.953-12.953v-29.674c0-7.142,5.811-12.953,12.953-12.953l47.113,0
							c7.142,0,12.953,5.811,12.953,12.953v29.674C216.92,391.815,211.11,397.625,203.968,397.625L203.968,397.625z
							 M156.854,353.567c-0.79,0-1.433,0.643-1.433,1.433v29.674c0,0.79,0.643,1.433,1.433,1.433l47.113,0
							c0.79,0,1.433-0.643,1.433-1.433v-29.674c0-0.79-0.643-1.433-1.433-1.433L156.854,353.567z"/>
					</g>
					<g>
						<path style="fill-rule:evenodd;clip-rule:evenodd;fill:#212121;" d="M335.667,397.625h-47.114
							c-7.142,0-12.953-5.811-12.953-12.953v-29.674c0-7.142,5.811-12.953,12.953-12.953l47.114,0
							c7.142,0,12.953,5.811,12.953,12.953v29.674C348.619,391.815,342.809,397.625,335.667,397.625L335.667,397.625z
							 M288.553,353.567c-0.79,0-1.433,0.643-1.433,1.433v29.674c0,0.79,0.643,1.433,1.433,1.433l47.113,0
							c0.79,0,1.433-0.643,1.433-1.433v-29.674c0-0.79-0.643-1.433-1.433-1.433L288.553,353.567z"/>
					</g>
				</g>
			</g>
		</g>
	</g>
</g>
</svg>
