<?xml version="1.0" encoding="iso-8859-1"?>
<!-- Generator: Adobe Illustrator 25.2.0, SVG Export Plug-In . SVG Version: 6.00 Build 0)  -->
<svg version="1.1" xmlns="http://www.w3.org/2000/svg" xmlns:xlink="http://www.w3.org/1999/xlink" x="0px" y="0px"
	 viewBox="0 0 492 492" style="enable-background:new 0 0 492 492;" xml:space="preserve">
<g id="Master_Layer_2">
</g>
<g id="Layer_1">
	<g>
		<g>
			<g>
				<g>
					<g>
						<g>
							<path style="fill-rule:evenodd;clip-rule:evenodd;fill:#212121;" d="M219.031,384.817c-0.401,0-0.807-0.042-1.215-0.129
								c-3.11-0.668-5.09-3.731-4.423-6.841l9.6-44.72c0.668-3.111,3.73-5.091,6.841-4.423c3.11,0.668,5.09,3.731,4.423,6.841
								l-9.6,44.72C224.077,382.967,221.688,384.817,219.031,384.817z"/>
						</g>
						<g>
							<path style="fill-rule:evenodd;clip-rule:evenodd;fill:#212121;" d="M273.49,384.817c-2.657,0-5.046-1.849-5.626-4.552
								l-9.6-44.72c-0.668-3.11,1.312-6.173,4.423-6.841c3.109-0.667,6.173,1.312,6.841,4.423l9.6,44.72
								c0.668,3.11-1.312,6.173-4.423,6.841C274.297,384.775,273.891,384.817,273.49,384.817z"/>
						</g>
					</g>
				</g>
				<g>
					<path style="fill-rule:evenodd;clip-rule:evenodd;fill:#212121;" d="M321.668,413.564H170.853c-3.181,0-5.76-2.579-5.76-5.76
						c0-19.028,15.48-34.509,34.509-34.509l93.319,0c19.028,0,34.509,15.48,34.509,34.509
						C327.428,410.985,324.849,413.564,321.668,413.564L321.668,413.564z M177.343,402.044h137.835
						c-2.563-9.898-11.571-17.229-22.258-17.229l-93.319,0C188.913,384.815,179.906,392.147,177.343,402.044z"/>
				</g>
				<g>
					<path style="fill-rule:evenodd;clip-rule:evenodd;fill:#212121;" d="M415.221,340.096H77.303
						c-8.47,0-15.361-6.89-15.361-15.358l0-229.463c0-8.468,6.891-15.359,15.361-15.359l337.918,0.001
						c8.469,0,15.358,6.89,15.358,15.359v229.463C430.579,333.206,423.689,340.096,415.221,340.096L415.221,340.096z M77.303,91.436
						c-2.118,0-3.841,1.722-3.841,3.839v229.463c0,2.116,1.723,3.838,3.841,3.838l337.918,0c2.116,0,3.838-1.722,3.838-3.838
						l0-229.463c0-2.117-1.722-3.839-3.838-3.839L77.303,91.436z"/>
				</g>
				<g>
					<path style="fill-rule:evenodd;clip-rule:evenodd;fill:#212121;" d="M424.82,301.258H67.7c-3.181,0-5.76-2.579-5.76-5.76
						s2.579-5.76,5.76-5.76h357.12c3.181,0,5.76,2.579,5.76,5.76S428.001,301.258,424.82,301.258z"/>
				</g>
			</g>
			<g>
				<g>
					<path style="fill-rule:evenodd;clip-rule:evenodd;fill:#212121;" d="M364.985,238.843H127.536
						c-8.149,0-14.778-6.629-14.778-14.778v-66.957c0-8.149,6.629-14.778,14.778-14.778h237.448c8.149,0,14.778,6.629,14.778,14.778
						v66.957C379.763,232.214,373.133,238.843,364.985,238.843L364.985,238.843z M127.536,153.85c-1.797,0-3.258,1.462-3.258,3.258
						v66.957c0,1.797,1.462,3.258,3.258,3.258h237.448c1.796,0,3.258-1.462,3.258-3.258v-66.957c0-1.797-1.462-3.258-3.258-3.258
						H127.536z"/>
				</g>
				<g>
					<g>
						<g>
							<path style="fill-rule:evenodd;clip-rule:evenodd;fill:#212121;" d="M333.777,211.627c-3.181,0-5.76-2.579-5.76-5.76v-30.561
								c0-3.181,2.579-5.76,5.76-5.76c3.181,0,5.76,2.579,5.76,5.76v30.56C339.537,209.048,336.959,211.627,333.777,211.627z"/>
						</g>
						<g>
							<path style="fill-rule:evenodd;clip-rule:evenodd;fill:#212121;" d="M320.084,203.12c-2.122,0-4.164-1.177-5.168-3.209
								c-1.41-2.852-0.241-6.306,2.611-7.716l27.395-13.545c2.852-1.41,6.306-0.241,7.716,2.61c1.41,2.852,0.241,6.306-2.611,7.716
								l-27.395,13.545C321.812,202.928,320.941,203.12,320.084,203.12z"/>
						</g>
						<g>
							<path style="fill-rule:evenodd;clip-rule:evenodd;fill:#212121;" d="M345.915,205.625c-1.22,0-2.449-0.386-3.493-1.184
								l-24.283-18.555c-2.528-1.931-3.011-5.546-1.08-8.074c1.931-2.528,5.546-3.011,8.074-1.079l24.283,18.555
								c2.528,1.931,3.011,5.546,1.08,8.074C349.362,204.845,347.648,205.625,345.915,205.625z"/>
						</g>
					</g>
					<g>
						<g>
							<path style="fill-rule:evenodd;clip-rule:evenodd;fill:#212121;" d="M275.433,211.627c-3.181,0-5.76-2.579-5.76-5.76v-30.561
								c0-3.181,2.579-5.76,5.76-5.76c3.181,0,5.76,2.579,5.76,5.76v30.56C281.193,209.048,278.614,211.627,275.433,211.627z"/>
						</g>
						<g>
							<path style="fill-rule:evenodd;clip-rule:evenodd;fill:#212121;" d="M261.74,203.12c-2.122,0-4.164-1.177-5.168-3.209
								c-1.41-2.852-0.241-6.306,2.611-7.716l27.395-13.545c2.853-1.41,6.307-0.241,7.716,2.61c1.41,2.851,0.241,6.306-2.611,7.716
								l-27.395,13.545C263.467,202.928,262.597,203.12,261.74,203.12z"/>
						</g>
						<g>
							<path style="fill-rule:evenodd;clip-rule:evenodd;fill:#212121;" d="M287.57,205.625c-1.22,0-2.449-0.386-3.493-1.184
								l-24.283-18.555c-2.528-1.931-3.011-5.546-1.08-8.074c1.931-2.528,5.546-3.011,8.074-1.079l24.283,18.555
								c2.528,1.931,3.011,5.546,1.08,8.074C291.017,204.845,289.303,205.625,287.57,205.625z"/>
						</g>
					</g>
					<g>
						<g>
							<path style="fill-rule:evenodd;clip-rule:evenodd;fill:#212121;" d="M217.088,211.627c-3.181,0-5.76-2.579-5.76-5.76v-30.561
								c0-3.181,2.579-5.76,5.76-5.76s5.76,2.579,5.76,5.76v30.56C222.848,209.048,220.269,211.627,217.088,211.627z"/>
						</g>
						<g>
							<path style="fill-rule:evenodd;clip-rule:evenodd;fill:#212121;" d="M203.395,203.12c-2.122,0-4.164-1.177-5.168-3.209
								c-1.41-2.852-0.241-6.306,2.61-7.716l27.395-13.545c2.852-1.41,6.307-0.241,7.716,2.61c1.41,2.852,0.241,6.306-2.611,7.716
								l-27.395,13.545C205.123,202.928,204.252,203.12,203.395,203.12z"/>
						</g>
						<g>
							<path style="fill-rule:evenodd;clip-rule:evenodd;fill:#212121;" d="M229.225,205.625c-1.22,0-2.449-0.386-3.493-1.184
								l-24.283-18.555c-2.528-1.931-3.011-5.546-1.079-8.074c1.931-2.528,5.546-3.011,8.074-1.079l24.283,18.555
								c2.528,1.931,3.011,5.546,1.079,8.074C232.673,204.845,230.959,205.625,229.225,205.625z"/>
						</g>
					</g>
					<g>
						<g>
							<path style="fill-rule:evenodd;clip-rule:evenodd;fill:#212121;" d="M158.743,211.627c-3.181,0-5.76-2.579-5.76-5.76v-30.561
								c0-3.181,2.579-5.76,5.76-5.76c3.181,0,5.76,2.579,5.76,5.76v30.56C164.503,209.048,161.925,211.627,158.743,211.627z"/>
						</g>
						<g>
							<path style="fill-rule:evenodd;clip-rule:evenodd;fill:#212121;" d="M145.05,203.12c-2.122,0-4.163-1.177-5.168-3.209
								c-1.41-2.852-0.241-6.306,2.611-7.716l27.395-13.545c2.851-1.41,6.306-0.241,7.716,2.61c1.41,2.852,0.241,6.306-2.61,7.716
								l-27.395,13.545C146.778,202.928,145.908,203.12,145.05,203.12z"/>
						</g>
						<g>
							<path style="fill-rule:evenodd;clip-rule:evenodd;fill:#212121;" d="M170.881,205.625c-1.22,0-2.449-0.386-3.493-1.184
								l-24.283-18.555c-2.528-1.931-3.011-5.546-1.08-8.074c1.931-2.528,5.546-3.011,8.074-1.079l24.283,18.555
								c2.528,1.931,3.011,5.546,1.08,8.074C174.328,204.845,172.614,205.625,170.881,205.625z"/>
						</g>
					</g>
				</g>
			</g>
		</g>
	</g>
</g>
</svg>
