<?xml version="1.0" encoding="iso-8859-1"?>
<!-- Generator: Adobe Illustrator 25.2.0, SVG Export Plug-In . SVG Version: 6.00 Build 0)  -->
<svg version="1.1" xmlns="http://www.w3.org/2000/svg" xmlns:xlink="http://www.w3.org/1999/xlink" x="0px" y="0px"
	 viewBox="0 0 492 492" style="enable-background:new 0 0 492 492;" xml:space="preserve">
<g id="Master_Layer_2">
</g>
<g id="Layer_1">
	<g>
		<g>
			<g>
				<g>
					<path style="fill-rule:evenodd;clip-rule:evenodd;fill:#212120;" d="M362.5,356.014h-41.688c-3.181,0-5.76-2.579-5.76-5.76
						c0-3.181,2.579-5.76,5.76-5.76H362.5c5.301,0,9.93-3.765,11.006-8.953l37.558-180.586c0.319-1.534-0.344-2.637-0.768-3.158
						c-0.425-0.522-1.371-1.398-2.94-1.398l-281.212,0c-1.785,0-3.344,1.27-3.709,3.019L82.698,344.492l89.013,0.002
						c3.181,0,5.76,2.579,5.76,5.76c0,3.181-2.579,5.76-5.76,5.76c0,0,0,0,0,0l-96.094-0.002c-1.733,0-3.375-0.781-4.468-2.125
						c-1.094-1.345-1.524-3.111-1.171-4.808l41.179-198.009c1.473-7.065,7.776-12.19,14.987-12.19h281.212
						c4.629,0,8.958,2.059,11.878,5.649c2.918,3.589,4.052,8.245,3.109,12.773l-37.557,180.582
						c-1.059,5.105-3.872,9.733-7.92,13.025C372.818,354.201,367.717,356.014,362.5,356.014z"/>
				</g>
				<g>
					<path style="fill-rule:evenodd;clip-rule:evenodd;fill:#212120;" d="M75.616,356.012c-3.181,0-5.76-2.579-5.76-5.76
						L69.853,77.727c0-8.44,6.867-15.307,15.307-15.307h74.745c4.514,0,8.775,1.977,11.69,5.424l23.9,28.271l171.29,0
						c8.44,0,15.307,6.867,15.307,15.307v33.218c0,3.181-2.579,5.76-5.76,5.76s-5.76-2.579-5.76-5.76v-33.218
						c0-2.088-1.699-3.787-3.787-3.787H192.822c-1.695,0-3.304-0.747-4.399-2.041l-25.625-30.312
						c-0.721-0.853-1.775-1.342-2.892-1.342H85.16c-2.088,0-3.787,1.699-3.787,3.787l0.002,272.526
						C81.376,353.434,78.797,356.012,75.616,356.012z"/>
				</g>
			</g>
			<g>
				<g>
					<g>
						<path style="fill-rule:evenodd;clip-rule:evenodd;fill:#212121;" d="M246.261,431.06c-19.128,0-38.032-3.052-56.188-9.071
							l-13.804-4.576c-6.172-2.046-10.319-7.79-10.319-14.292V304.71c0-8.303,6.755-15.057,15.057-15.057l130.507,0
							c8.303,0,15.057,6.755,15.057,15.057v98.411c0,6.503-4.147,12.246-10.319,14.292l-13.804,4.576
							C284.292,428.007,265.388,431.06,246.261,431.06L246.261,431.06z M181.007,301.173c-1.95,0-3.537,1.587-3.537,3.537v98.411
							c0,1.527,0.974,2.877,2.424,3.357l13.804,4.577c33.895,11.237,71.23,11.237,105.125,0l13.804-4.576l0,0
							c1.45-0.48,2.424-1.83,2.424-3.357V304.71c0-1.95-1.587-3.537-3.537-3.537H181.007z"/>
					</g>
					<g>
						<g>
							<path style="fill-rule:evenodd;clip-rule:evenodd;fill:#212121;" d="M246.26,367.081c-10.567,0-19.164-8.597-19.164-19.164
								c0-10.567,8.597-19.164,19.164-19.164s19.164,8.597,19.164,19.164C265.424,358.484,256.827,367.081,246.26,367.081
								L246.26,367.081z M246.26,340.274c-4.215,0-7.644,3.429-7.644,7.644c0,4.215,3.429,7.644,7.644,7.644
								c4.215,0,7.644-3.429,7.644-7.644C253.904,343.703,250.475,340.274,246.26,340.274z"/>
						</g>
						<g>
							<path style="fill-rule:evenodd;clip-rule:evenodd;fill:#212121;" d="M246.261,391.958c-3.181,0-5.76-2.579-5.76-5.76V361.32
								c0-3.181,2.579-5.76,5.76-5.76c3.181,0,5.76,2.579,5.76,5.76v24.878C252.021,389.379,249.442,391.958,246.261,391.958z"/>
						</g>
					</g>
				</g>
				<g>
					<path style="fill-rule:evenodd;clip-rule:evenodd;fill:#212121;" d="M275.476,301.173c-3.181,0-5.76-2.579-5.76-5.76v-22.755
						c0-12.934-10.522-23.455-23.456-23.455c-12.933,0-23.456,10.522-23.456,23.455v22.755c0,3.181-2.579,5.76-5.76,5.76
						c-3.181,0-5.76-2.579-5.76-5.76v-22.755c0-19.285,15.69-34.975,34.975-34.975s34.975,15.69,34.975,34.975v22.755
						C281.236,298.594,278.657,301.173,275.476,301.173z"/>
				</g>
				<g>
					<path style="fill-rule:evenodd;clip-rule:evenodd;fill:#212121;" d="M301.969,301.173c-3.181,0-5.76-2.579-5.76-5.76v-22.756
						c0-27.541-22.407-49.948-49.948-49.948s-49.948,22.407-49.948,49.948v22.756c0,3.181-2.579,5.76-5.76,5.76
						c-3.181,0-5.76-2.579-5.76-5.76v-22.756c0-33.894,27.575-61.468,61.468-61.468s61.468,27.575,61.468,61.468v22.756
						C307.728,298.594,305.15,301.173,301.969,301.173z"/>
				</g>
			</g>
		</g>
	</g>
</g>
</svg>
