<?xml version="1.0" encoding="iso-8859-1"?>
<!-- Generator: Adobe Illustrator 25.2.0, SVG Export Plug-In . SVG Version: 6.00 Build 0)  -->
<svg version="1.1" xmlns="http://www.w3.org/2000/svg" xmlns:xlink="http://www.w3.org/1999/xlink" x="0px" y="0px"
	 viewBox="0 0 492 492" style="enable-background:new 0 0 492 492;" xml:space="preserve">
<g id="Master_Layer_2">
</g>
<g id="Layer_1">
	<g>
		<g>
			<g>
				<path style="fill-rule:evenodd;clip-rule:evenodd;fill:#212121;" d="M400.908,373.665H91.612
					c-16.361,0-29.672-13.311-29.672-29.672V149.486c0-16.361,13.311-29.672,29.672-29.672h309.296
					c16.361,0,29.672,13.311,29.672,29.672v194.508C430.58,360.354,417.269,373.665,400.908,373.665L400.908,373.665z
					 M91.612,131.334c-10.009,0-18.152,8.143-18.152,18.152v194.508c0,10.009,8.143,18.152,18.152,18.152h309.296
					c10.009,0,18.152-8.143,18.152-18.152V149.486c0-10.009-8.143-18.152-18.152-18.152H91.612z"/>
			</g>
			<g>
				<g>
					<g>
						<g>
							<path style="fill-rule:evenodd;clip-rule:evenodd;fill:#212121;" d="M286.996,246.829h-12.611c-3.181,0-5.76-2.579-5.76-5.76
								c0-3.181,2.579-5.76,5.76-5.76h12.611c3.181,0,5.76,2.579,5.76,5.76C292.756,244.251,290.177,246.829,286.996,246.829z"/>
						</g>
						<g>
							<path style="fill-rule:evenodd;clip-rule:evenodd;fill:#212121;" d="M387.047,246.829h-72.561c-3.181,0-5.76-2.579-5.76-5.76
								c0-3.181,2.579-5.76,5.76-5.76h72.561c3.181,0,5.76,2.579,5.76,5.76C392.807,244.251,390.228,246.829,387.047,246.829z"/>
						</g>
					</g>
					<g>
						<g>
							<path style="fill-rule:evenodd;clip-rule:evenodd;fill:#212121;" d="M286.996,287.763h-12.611c-3.181,0-5.76-2.579-5.76-5.76
								s2.579-5.76,5.76-5.76h12.611c3.181,0,5.76,2.579,5.76,5.76S290.177,287.763,286.996,287.763z"/>
						</g>
						<g>
							<path style="fill-rule:evenodd;clip-rule:evenodd;fill:#212121;" d="M387.047,287.763h-72.561c-3.181,0-5.76-2.579-5.76-5.76
								s2.579-5.76,5.76-5.76h72.561c3.181,0,5.76,2.579,5.76,5.76S390.228,287.763,387.047,287.763z"/>
						</g>
					</g>
					<g>
						<g>
							<path style="fill-rule:evenodd;clip-rule:evenodd;fill:#212121;" d="M286.996,328.697h-12.611c-3.181,0-5.76-2.579-5.76-5.76
								c0-3.181,2.579-5.76,5.76-5.76h12.611c3.181,0,5.76,2.579,5.76,5.76C292.756,326.119,290.177,328.697,286.996,328.697z"/>
						</g>
						<g>
							<path style="fill-rule:evenodd;clip-rule:evenodd;fill:#212121;" d="M387.047,328.697h-72.561c-3.181,0-5.76-2.579-5.76-5.76
								c0-3.181,2.579-5.76,5.76-5.76h72.561c3.181,0,5.76,2.579,5.76,5.76C392.807,326.119,390.228,328.697,387.047,328.697z"/>
						</g>
					</g>
				</g>
				<g>
					<path style="fill-rule:evenodd;clip-rule:evenodd;fill:#212121;" d="M387.047,203.849H274.385c-3.181,0-5.76-2.579-5.76-5.76
						v-27.547c0-3.181,2.579-5.76,5.76-5.76h112.662c3.181,0,5.76,2.579,5.76,5.76v27.547
						C392.807,201.27,390.228,203.849,387.047,203.849L387.047,203.849z M280.145,192.329h101.142v-16.027H280.145V192.329z"/>
				</g>
				<g>
					<g>
						<path style="fill-rule:evenodd;clip-rule:evenodd;fill:#212121;" d="M172.306,268.266c-17.527,0-31.787-14.26-31.787-31.787
							c0-17.527,14.26-31.787,31.787-31.787c17.527,0,31.787,14.26,31.787,31.787C204.094,254.006,189.834,268.266,172.306,268.266
							L172.306,268.266z M172.306,216.213c-11.175,0-20.267,9.091-20.267,20.267c0,11.175,9.092,20.267,20.267,20.267
							c11.176,0,20.267-9.092,20.267-20.267C192.573,225.304,183.482,216.213,172.306,216.213z"/>
					</g>
					<g>
						<path style="fill-rule:evenodd;clip-rule:evenodd;fill:#212121;" d="M218.619,328.697c-3.181,0-5.76-2.579-5.76-5.76v-14.119
							c0-10.832-4.218-21.016-11.878-28.675c-7.659-7.659-17.843-11.878-28.675-11.878c-22.361,0-40.553,18.192-40.553,40.553
							v14.119c0,3.181-2.579,5.76-5.76,5.76s-5.76-2.579-5.76-5.76v-14.119c0-28.713,23.36-52.073,52.073-52.073
							c13.909,0,26.986,5.416,36.821,15.252c9.835,9.835,15.252,22.912,15.252,36.821v14.119
							C224.38,326.118,221.801,328.697,218.619,328.697z"/>
					</g>
				</g>
				<g>
					<path style="fill-rule:evenodd;clip-rule:evenodd;fill:#212121;" d="M228.679,328.697H115.934
						c-8.944,0-16.221-7.277-16.221-16.221l0-131.474c0-8.945,7.277-16.221,16.221-16.221h112.745
						c8.944,0,16.221,7.276,16.221,16.221v131.474C244.9,321.421,237.623,328.697,228.679,328.697L228.679,328.697z
						 M115.934,176.302c-2.592,0-4.701,2.109-4.701,4.701v131.474c0,2.592,2.109,4.701,4.701,4.701h112.745
						c2.592,0,4.701-2.109,4.701-4.701V181.003c0-2.592-2.109-4.701-4.701-4.701H115.934z"/>
				</g>
			</g>
		</g>
	</g>
</g>
</svg>
