<?xml version="1.0" encoding="iso-8859-1"?>
<!-- Generator: Adobe Illustrator 25.2.0, SVG Export Plug-In . SVG Version: 6.00 Build 0)  -->
<svg version="1.1" xmlns="http://www.w3.org/2000/svg" xmlns:xlink="http://www.w3.org/1999/xlink" x="0px" y="0px"
	 viewBox="0 0 492 492" style="enable-background:new 0 0 492 492;" xml:space="preserve">
<g id="Master_Layer_2">
</g>
<g id="Layer_1">
	<g>
		<g>
			<g>
				<g>
					<g>
						<path style="fill-rule:evenodd;clip-rule:evenodd;fill:#212121;" d="M96.288,240.684c-0.021,0-0.043,0-0.064,0
							c-3.181-0.035-5.732-2.641-5.697-5.822c0.226-20.793,4.485-40.947,12.66-59.901c7.901-18.32,19.116-34.767,33.333-48.886
							c14.221-14.123,30.752-25.225,49.132-32.996c19.027-8.046,39.233-12.161,60.056-12.233h0.013c0.363-0.004,0.717-0.004,1.08,0
							c20.832,0.073,41.027,4.185,60.046,12.224c18.373,7.766,34.899,18.858,49.119,32.971
							c14.215,14.107,25.431,30.543,33.338,48.85c8.18,18.941,12.45,39.081,12.69,59.862c0.037,3.181-2.512,5.789-5.693,5.826
							c-0.023,0-0.045,0-0.068,0c-3.15,0-5.722-2.535-5.758-5.693c-0.905-78.315-65.369-142.249-143.699-142.52l-0.011,0
							c-0.027,0-0.053,0-0.08-0.001c-0.142-0.002-0.283-0.002-0.422-0.002c-0.14,0-0.28,0-0.422,0.002
							c-0.027,0.001-0.053,0.001-0.08,0.001h-0.031c-78.366,0.271-142.83,64.251-143.681,142.622
							C102.012,238.146,99.44,240.684,96.288,240.684z"/>
					</g>
					<g>
						<path style="fill-rule:evenodd;clip-rule:evenodd;fill:#212121;" d="M168.697,240.736c-0.041,0-0.081,0-0.121-0.001
							c-3.18-0.066-5.705-2.697-5.64-5.878c0.413-19.968,2.779-39.466,7.032-57.953c4.157-18.065,9.925-34.373,17.146-48.469
							c15.573-30.4,36.362-47.301,58.538-47.59c0.023,0,0.046-0.001,0.069-0.001c0.363-0.005,0.717-0.005,1.08,0
							c0.023,0,0.046,0,0.069,0.001c22.166,0.29,42.947,17.168,58.514,47.525c7.22,14.081,12.99,30.374,17.149,48.425
							c4.256,18.473,6.628,37.964,7.049,57.932c0.067,3.18-2.457,5.813-5.637,5.88c-3.184,0.07-5.813-2.457-5.88-5.637
							c-0.803-38.08-8.946-74.072-22.931-101.344c-13.517-26.36-30.697-41.012-48.379-41.262c-0.024,0-0.047,0-0.071-0.001
							c-0.142-0.002-0.282-0.002-0.422-0.002c-0.14,0-0.28,0-0.422,0.002c-0.024,0-0.048,0.001-0.071,0.001
							c-17.688,0.249-34.876,14.923-48.4,41.322c-13.989,27.308-22.126,63.322-22.914,101.408
							C174.389,238.235,171.823,240.735,168.697,240.736z"/>
					</g>
					<g>
						<path style="fill-rule:evenodd;clip-rule:evenodd;fill:#212121;" d="M246.261,242.287c-3.181,0-5.76-2.579-5.76-5.76V86.602
							c0-3.181,2.579-5.76,5.76-5.76c3.181,0,5.76,2.579,5.76,5.76v149.925C252.021,239.709,249.443,242.287,246.261,242.287z"/>
					</g>
					<g>
						<path style="fill-rule:evenodd;clip-rule:evenodd;fill:#212121;" d="M246.261,242.288c-1.326,0-2.652-0.456-3.727-1.368
							c-10.005-8.492-22.15-12.98-35.12-12.98c-14.259,0-26.034,3.847-34.997,11.433c-2.111,1.787-5.193,1.821-7.343,0.082
							c-9.181-7.425-20.774-11.514-32.644-11.514c-11.977,0-23.224,3.965-32.526,11.467c-2.476,1.997-6.102,1.609-8.099-0.867
							c-1.997-2.476-1.609-6.102,0.867-8.099c5.513-4.446,11.674-7.911,18.312-10.298c6.869-2.47,14.085-3.723,21.447-3.723
							c12.953,0,25.64,3.991,36.201,11.314c10.519-7.511,23.542-11.314,38.784-11.314c7.905,0,15.639,1.401,22.988,4.164
							c5.651,2.125,10.97,5.012,15.864,8.61c4.89-3.588,10.194-6.471,15.82-8.594c7.349-2.773,15.072-4.18,22.953-4.18
							c15.384,0,28.432,3.764,38.864,11.198c10.539-7.248,23.223-11.198,36.192-11.198c14.411,0,28.523,4.936,39.736,13.899
							c2.485,1.986,2.889,5.611,0.903,8.096c-1.986,2.485-5.611,2.889-8.096,0.903c-9.179-7.337-20.736-11.378-32.543-11.378
							c-11.907,0-23.507,4.049-32.665,11.401c-2.153,1.728-5.228,1.686-7.333-0.1c-8.836-7.499-20.631-11.301-35.057-11.301
							c-12.897,0-25.019,4.49-35.056,12.985C248.909,241.833,247.585,242.288,246.261,242.288z"/>
					</g>
					<g>
						<path style="fill-rule:evenodd;clip-rule:evenodd;fill:#212121;" d="M246.261,92.362c-3.181,0-5.76-2.579-5.76-5.76V68.18
							c0-3.181,2.579-5.76,5.76-5.76c3.181,0,5.76,2.579,5.76,5.76v18.422C252.021,89.783,249.443,92.362,246.261,92.362z"/>
					</g>
				</g>
				<g>
					<path style="fill-rule:evenodd;clip-rule:evenodd;fill:#212121;" d="M224.137,431.06c-15.376,0-27.885-12.509-27.885-27.885
						v-15.601c0-3.181,2.579-5.76,5.76-5.76c3.181,0,5.76,2.579,5.76,5.76v15.601c0,9.024,7.341,16.365,16.365,16.365
						s16.365-7.341,16.365-16.365V236.528c0-3.181,2.579-5.76,5.76-5.76c3.181,0,5.76,2.579,5.76,5.76v166.647
						C252.021,418.55,239.512,431.06,224.137,431.06z"/>
				</g>
			</g>
		</g>
	</g>
</g>
</svg>
