<?xml version="1.0" encoding="iso-8859-1"?>
<!-- Generator: Adobe Illustrator 25.2.0, SVG Export Plug-In . SVG Version: 6.00 Build 0)  -->
<svg version="1.1" xmlns="http://www.w3.org/2000/svg" xmlns:xlink="http://www.w3.org/1999/xlink" x="0px" y="0px"
	 viewBox="0 0 492 492" style="enable-background:new 0 0 492 492;" xml:space="preserve">
<g id="Master_Layer_2">
</g>
<g id="Layer_1">
	<g>
		<g>
			<g>
				<g>
					<path style="fill-rule:evenodd;clip-rule:evenodd;fill:#212121;" d="M358.913,272.094H133.608
						c-12.359,0-22.414-10.054-22.414-22.412v-46.178c0-12.358,10.055-22.412,22.414-22.412h88.977c3.181,0,5.76,2.579,5.76,5.76
						c0,3.181-2.579,5.76-5.76,5.76h-88.977c-6.007,0-10.894,4.886-10.894,10.892v46.179c0,6.006,4.887,10.892,10.894,10.892
						l225.305,0c6.007,0,10.894-4.886,10.894-10.891v-46.178c0-6.006-4.887-10.892-10.894-10.892h-88.979
						c-3.181,0-5.76-2.579-5.76-5.76c0-3.181,2.579-5.76,5.76-5.76h88.979c12.359,0,22.414,10.054,22.414,22.412v46.179
						C381.327,262.04,371.272,272.094,358.913,272.094z"/>
				</g>
				<g>
					<g>
						<g>
							<path style="fill-rule:evenodd;clip-rule:evenodd;fill:#212121;" d="M159.334,242.087c-8.544,0-15.494-6.951-15.494-15.494
								c0-8.544,6.951-15.494,15.494-15.494c8.544,0,15.494,6.951,15.494,15.494C174.828,235.137,167.877,242.087,159.334,242.087
								L159.334,242.087z M159.334,222.619c-2.191,0-3.974,1.783-3.974,3.974c0,2.191,1.783,3.974,3.974,3.974
								c2.191,0,3.974-1.783,3.974-3.974C163.308,224.402,161.525,222.619,159.334,222.619z"/>
						</g>
						<g>
							<path style="fill-rule:evenodd;clip-rule:evenodd;fill:#212121;" d="M205.002,242.087c-8.544,0-15.494-6.951-15.494-15.494
								c0-8.544,6.951-15.494,15.494-15.494s15.494,6.951,15.494,15.494C220.497,235.137,213.546,242.087,205.002,242.087
								L205.002,242.087z M205.002,222.619c-2.191,0-3.974,1.783-3.974,3.974c0,2.191,1.783,3.974,3.974,3.974
								c2.191,0,3.974-1.783,3.974-3.974C208.977,224.402,207.194,222.619,205.002,222.619z"/>
						</g>
					</g>
					<g>
						<path style="fill-rule:evenodd;clip-rule:evenodd;fill:#212121;" d="M342.92,232.353h-76.64c-3.181,0-5.76-2.579-5.76-5.76
							c0-3.181,2.579-5.76,5.76-5.76h76.64c3.181,0,5.76,2.579,5.76,5.76C348.68,229.774,346.101,232.353,342.92,232.353z"/>
					</g>
				</g>
			</g>
			<g>
				<g>
					<path style="fill-rule:evenodd;clip-rule:evenodd;fill:#212121;" d="M358.913,351.577H133.607
						c-12.358,0-22.413-10.054-22.413-22.413v-46.177c0-12.358,10.054-22.413,22.413-22.413h225.306
						c12.358,0,22.413,10.054,22.413,22.413v46.177C381.326,341.522,371.271,351.577,358.913,351.577L358.913,351.577z
						 M133.607,272.094c-6.006,0-10.893,4.886-10.893,10.893v46.177c0,6.006,4.886,10.893,10.893,10.893l225.306,0
						c6.006,0,10.893-4.886,10.893-10.893v-46.177c0-6.006-4.886-10.893-10.893-10.893L133.607,272.094L133.607,272.094z"/>
				</g>
				<g>
					<g>
						<g>
							<path style="fill-rule:evenodd;clip-rule:evenodd;fill:#212121;" d="M159.334,321.57c-8.544,0-15.494-6.951-15.494-15.494
								c0-8.544,6.951-15.494,15.494-15.494c8.544,0,15.494,6.951,15.494,15.494C174.828,314.619,167.877,321.57,159.334,321.57
								L159.334,321.57z M159.334,302.101c-2.191,0-3.974,1.783-3.974,3.974c0,2.191,1.783,3.974,3.974,3.974
								c2.191,0,3.974-1.783,3.974-3.974C163.308,303.884,161.525,302.101,159.334,302.101z"/>
						</g>
						<g>
							<path style="fill-rule:evenodd;clip-rule:evenodd;fill:#212121;" d="M205.002,321.57c-8.544,0-15.494-6.951-15.494-15.494
								c0-8.544,6.951-15.494,15.494-15.494s15.494,6.951,15.494,15.494C220.497,314.619,213.546,321.57,205.002,321.57
								L205.002,321.57z M205.002,302.101c-2.191,0-3.974,1.783-3.974,3.974c0,2.191,1.783,3.974,3.974,3.974
								c2.191,0,3.974-1.783,3.974-3.974C208.977,303.884,207.194,302.101,205.002,302.101z"/>
						</g>
					</g>
					<g>
						<path style="fill-rule:evenodd;clip-rule:evenodd;fill:#212121;" d="M342.92,311.836h-76.64c-3.181,0-5.76-2.579-5.76-5.76
							c0-3.181,2.579-5.76,5.76-5.76h76.64c3.181,0,5.76,2.579,5.76,5.76C348.68,309.257,346.101,311.836,342.92,311.836z"/>
					</g>
				</g>
			</g>
			<g>
				<g>
					<path style="fill-rule:evenodd;clip-rule:evenodd;fill:#212121;" d="M358.913,431.06H133.607
						c-12.358,0-22.413-10.055-22.413-22.413V362.47c0-12.358,10.054-22.413,22.413-22.413h225.306
						c12.358,0,22.413,10.055,22.413,22.413v46.177C381.326,421.005,371.271,431.06,358.913,431.06L358.913,431.06z
						 M133.607,351.577c-6.006,0-10.893,4.886-10.893,10.893v46.177c0,6.006,4.886,10.893,10.893,10.893h225.306
						c6.006,0,10.893-4.886,10.893-10.893V362.47c0-6.006-4.886-10.893-10.893-10.893H133.607z"/>
				</g>
				<g>
					<g>
						<g>
							<path style="fill-rule:evenodd;clip-rule:evenodd;fill:#212121;" d="M159.334,401.052c-8.544,0-15.494-6.951-15.494-15.494
								c0-8.544,6.951-15.494,15.494-15.494c8.544,0,15.494,6.951,15.494,15.494C174.828,394.102,167.877,401.052,159.334,401.052
								L159.334,401.052z M159.334,381.584c-2.191,0-3.974,1.783-3.974,3.974c0,2.191,1.783,3.974,3.974,3.974
								c2.191,0,3.974-1.783,3.974-3.974C163.308,383.367,161.525,381.584,159.334,381.584z"/>
						</g>
						<g>
							<path style="fill-rule:evenodd;clip-rule:evenodd;fill:#212121;" d="M205.002,401.052c-8.544,0-15.494-6.951-15.494-15.494
								c0-8.544,6.951-15.494,15.494-15.494s15.494,6.951,15.494,15.494C220.497,394.102,213.546,401.052,205.002,401.052
								L205.002,401.052z M205.002,381.584c-2.191,0-3.974,1.783-3.974,3.974c0,2.191,1.783,3.974,3.974,3.974
								c2.191,0,3.974-1.783,3.974-3.974C208.977,383.367,207.194,381.584,205.002,381.584z"/>
						</g>
					</g>
					<g>
						<path style="fill-rule:evenodd;clip-rule:evenodd;fill:#212121;" d="M342.92,391.318h-76.64c-3.181,0-5.76-2.579-5.76-5.76
							s2.579-5.76,5.76-5.76h76.64c3.181,0,5.76,2.579,5.76,5.76S346.101,391.318,342.92,391.318z"/>
					</g>
				</g>
			</g>
			<g>
				<g>
					<path style="fill-rule:evenodd;clip-rule:evenodd;fill:#212121;" d="M240.7,148.243c-1.474,0-2.948-0.562-4.073-1.687
						l-8.126-8.127c-2.25-2.25-2.25-5.897,0-8.146c2.25-2.249,5.896-2.249,8.146,0l4.053,4.053l15.174-15.174
						c2.249-2.249,5.897-2.249,8.146,0c2.249,2.25,2.249,5.897,0,8.146l-19.247,19.247
						C243.648,147.68,242.174,148.243,240.7,148.243z"/>
				</g>
				<g>
					<path style="fill-rule:evenodd;clip-rule:evenodd;fill:#212121;" d="M246.26,214.95c-1.391,0-2.783-0.502-3.883-1.505
						l-15.8-14.42c-25.794-23.54-40.251-57.067-39.665-91.983l0.273-16.243c0.046-2.747,2.027-5.08,4.73-5.57
						c32.003-5.811,50.425-21.275,50.607-21.43c2.154-1.836,5.322-1.837,7.476,0c0.036,0.031,4.719,3.958,13.283,8.544
						c7.869,4.214,20.732,9.871,37.325,12.883c2.704,0.491,4.684,2.823,4.73,5.571l0.273,16.246l0,0
						c0.587,34.916-13.87,68.443-39.665,91.983l-15.801,14.42C249.043,214.448,247.651,214.95,246.26,214.95L246.26,214.95z
						 M198.625,95.639l-0.195,11.596c-0.531,31.613,12.558,61.967,35.912,83.281l11.918,10.876l11.918-10.876
						c23.354-21.313,36.443-51.668,35.912-83.281l0,0l-0.195-11.599c-24.235-5.225-40.669-15.294-47.634-20.229
						C239.296,80.342,222.863,90.413,198.625,95.639z"/>
				</g>
			</g>
		</g>
	</g>
</g>
</svg>
