<?xml version="1.0" encoding="iso-8859-1"?>
<!-- Generator: Adobe Illustrator 25.2.0, SVG Export Plug-In . SVG Version: 6.00 Build 0)  -->
<svg version="1.1" xmlns="http://www.w3.org/2000/svg" xmlns:xlink="http://www.w3.org/1999/xlink" x="0px" y="0px"
	 viewBox="0 0 492 492" style="enable-background:new 0 0 492 492;" xml:space="preserve">
<g id="Master_Layer_2">
</g>
<g id="Layer_1">
	<g>
		<g>
			<g>
				<g>
					<path style="fill-rule:evenodd;clip-rule:evenodd;fill:#FFD7BD;" d="M218.262,331.639l-62.739,0.102
						c0.98-19.497,1.765-44.994,1.896-71.398c0.013-2.609,0.021-5.229,0.021-7.851v-19.04l58.876-1.07v24.243
						c0,1.146,0.003,2.292,0.005,3.44C216.389,285.594,217.218,311.603,218.262,331.639z"/>
					<g>
						<path style="fill-rule:evenodd;clip-rule:evenodd;fill:#F2C9AF;" d="M216.321,267.933c-9.11,3.624-19.195,5.636-29.803,5.636
							c-10.337,0-20.176-1.909-29.1-5.358c0.013-2.609,0.021-5.229,0.021-7.851v-19.04l58.876-1.07v24.243
							C216.316,265.639,216.319,266.785,216.321,267.933z"/>
					</g>
				</g>
				<path style="fill-rule:evenodd;clip-rule:evenodd;fill:#2D4456;" d="M112.313,180.921c-2.285-8.46-5.154-19.006-5.418-24.227
					c-3.048-59.988,23.761-95.742,82.434-94.228c12.472,0.322,24.537,3.503,35.301,9.26c3.066,1.64,5.057,4.773,5.299,8.257
					l0.67,9.654l3.868-2.136c4.22-2.33,9.474-1.341,12.602,2.337c14.371,16.897,22.561,41.067,19.728,70.982
					c-0.541,5.676-3.652,16.274-6.072,24.365L112.313,180.921z"/>
				<g>
					<path style="fill-rule:evenodd;clip-rule:evenodd;fill:#FFD7BD;" d="M124.136,173.028h-8.542c-3.873,0-7.379,1.569-9.916,4.107
						s-4.107,6.04-4.107,9.913c0,7.746,6.277,14.023,14.023,14.023h8.584h124.678h8.584c3.873,0,7.379-1.569,9.916-4.107
						c2.538-2.538,4.107-6.043,4.107-9.916c0-7.742-6.277-14.02-14.023-14.02h-8.541L124.136,173.028L124.136,173.028z"/>
					<path style="fill-rule:evenodd;clip-rule:evenodd;fill:#F2C9AF;" d="M115.595,194.252c-3.973,0-7.205-3.232-7.205-7.205
						c0-1.923,0.749-3.731,2.11-5.092c1.361-1.361,3.17-2.11,5.095-2.11H257.44c3.973,0,7.205,3.231,7.205,7.201
						c0,1.925-0.749,3.734-2.11,5.095c-1.36,1.361-3.17,2.11-5.095,2.11L115.595,194.252L115.595,194.252z"/>
				</g>
				<g>
					<path style="fill-rule:evenodd;clip-rule:evenodd;fill:#FFE0CC;" d="M249.336,135.126v67.223
						c0,36.437-28.125,65.975-62.817,65.975c-34.696,0-62.82-29.537-62.82-65.975V139.12c40.098,9.194,89.552-24.637,89.552-24.637
						S230.841,135.126,249.336,135.126z"/>
				</g>
				<g>
					<path style="fill-rule:evenodd;clip-rule:evenodd;fill:#F2C9AF;" d="M249.336,135.126v6.43
						c-18.495,0-36.086-19.644-36.086-19.644s-49.454,32.197-89.552,23.446v-6.239c40.098,9.194,89.552-24.637,89.552-24.637
						S230.841,135.126,249.336,135.126z"/>
				</g>
				<g>
					<path style="fill-rule:evenodd;clip-rule:evenodd;fill:#3C5B73;" d="M249.336,173.136v7.188l-18.335,7.196
						c-0.422,0.189-0.878,0.289-1.342,0.289l-86.529,0c-0.425,0-0.847-0.084-1.243-0.244l-18.189-7.45l0-7.086l20.076,8.224h85.181
						L249.336,173.136z"/>
				</g>
				<g>
					<g>
						<path style="fill-rule:evenodd;clip-rule:evenodd;fill:#2D4456;" d="M221.244,210.607H210.56
							c-10.778,0-19.546-8.77-19.546-19.549l0-24.772c0-2.192,1.777-3.969,3.969-3.969l41.839,0c2.192,0,3.969,1.777,3.969,3.969
							v24.772C240.79,201.837,232.022,210.607,221.244,210.607z"/>
						<path style="fill-rule:evenodd;clip-rule:evenodd;fill:#BDDCFF;" d="M197.263,168.639v22.876
							c0,7.041,5.726,12.769,12.765,12.769h11.749c7.039,0,12.765-5.728,12.765-12.769v-22.876H197.263z"/>
						<g>
							<path style="fill-rule:evenodd;clip-rule:evenodd;fill:#2D4456;" d="M213.425,194.038c-2.127,0-3.852-2.201-3.852-4.917
								l0-5.319c0-2.715,1.724-4.917,3.852-4.917s3.852,2.201,3.852,4.917v5.319C217.277,191.836,215.552,194.038,213.425,194.038z"
								/>
						</g>
					</g>
					<g>
						<path style="fill-rule:evenodd;clip-rule:evenodd;fill:#2D4456;" d="M132.245,191.058v-24.772
							c0-2.192,1.777-3.969,3.969-3.969l41.838,0c2.192,0,3.969,1.777,3.969,3.969v24.772c0,10.78-8.768,19.549-19.546,19.549
							h-10.684C141.013,210.607,132.245,201.837,132.245,191.058z"/>
						<path style="fill-rule:evenodd;clip-rule:evenodd;fill:#BDDCFF;" d="M138.493,168.639v22.876
							c0,7.041,5.726,12.769,12.765,12.769h11.749c7.039,0,12.765-5.728,12.765-12.769v-22.876H138.493z"/>
						<g>
							<path style="fill-rule:evenodd;clip-rule:evenodd;fill:#2D4456;" d="M159.61,194.038c2.127,0,3.852-2.201,3.852-4.917
								l0-5.319c0-2.715-1.724-4.917-3.852-4.917c-2.127,0-3.852,2.201-3.852,4.917v5.319
								C155.758,191.836,157.483,194.038,159.61,194.038z"/>
						</g>
					</g>
				</g>
				<g>
					<path style="fill-rule:evenodd;clip-rule:evenodd;fill:#FF8C95;" d="M183.794,237.484c-0.403-0.044-0.804-0.101-1.206-0.173
						c-3.712-0.662-6.618-2.393-8.687-4.089c-2.173-1.781-1.994-5.161,0.339-6.727l0,0c1.549-1.04,3.584-0.915,5.033,0.261
						c1.194,0.969,2.848,1.965,4.862,2.307c2.982,0.508,6.268-0.511,9.771-3.023c1.822-1.307,4.387-1.067,5.805,0.671
						c1.538,1.886,1.157,4.649-0.786,6.056C193.853,236.44,188.768,238.024,183.794,237.484z"/>
				</g>
				<path style="fill-rule:evenodd;clip-rule:evenodd;fill:#E8EEFF;" d="M302.257,347.885l-31.229,83.175H66.542l1.88-62.471
					c0-39.067,31.672-70.742,70.742-70.742l27.492,0l20.139,22.35l20.221-22.347l27.579,0c19.533,0,37.221,7.914,50.02,20.721
					C292.696,326.649,298.83,336.674,302.257,347.885z"/>
				<g>
					<g>
						<path style="fill-rule:evenodd;clip-rule:evenodd;fill:#CACFDE;" d="M116.102,431.06V380.32c0-2.318,1.877-4.195,4.195-4.195
							c2.318,0,4.196,1.877,4.196,4.195v50.739H116.102z"/>
					</g>
				</g>
				<polygon style="fill-rule:evenodd;clip-rule:evenodd;fill:#979AA6;" points="186.797,320.196 167.822,337.312 167.822,337.314 
					148.38,354.852 139.165,297.846 157.084,286.434 166.657,297.846 				"/>
				<polygon style="fill-rule:evenodd;clip-rule:evenodd;fill:#979AA6;" points="234.596,297.848 225.382,354.852 205.216,336.74 
					186.797,320.196 207.017,297.848 216.715,286.434 				"/>
				<polygon style="fill-rule:evenodd;clip-rule:evenodd;fill:#848791;" points="205.216,336.74 205.216,336.742 197.33,354.839 
					197.325,354.852 175.463,354.852 167.822,337.314 167.822,337.312 186.797,320.196 				"/>
				<polygon style="fill-rule:evenodd;clip-rule:evenodd;fill:#979AA6;" points="209.819,431.06 197.332,354.839 175.464,354.853 
					162.979,431.058 				"/>
			</g>
			<g>
				<path style="fill-rule:evenodd;clip-rule:evenodd;fill:#6A90D4;" d="M377.803,404.227c-0.145,1.302-0.219,2.611-0.219,3.92
					c0,1.07,0.048,2.139,0.147,3.207c0.318,3.504,1.159,6.968,2.524,10.274c1.387,3.354,3.313,6.542,5.781,9.432H254.96
					c-6.425,0-12.243-2.604-16.452-6.816c-4.21-4.21-6.814-10.027-6.814-16.453c0-12.853,10.416-23.269,23.266-23.269l131.684,0
					l-0.499,0.582c-2.342,2.719-4.203,5.705-5.583,8.85C379.112,397.246,378.194,400.715,377.803,404.227z"/>
				<path style="fill-rule:evenodd;clip-rule:evenodd;fill:#EFFAFF;" d="M377.732,411.354c0.318,3.504,1.159,6.968,2.524,10.274
					H254.96c-3.697,0-7.17-1.438-9.781-4.051c-2.616-2.616-4.053-6.089-4.053-9.786c0-7.631,6.207-13.837,13.835-13.837l125.601,0
					c-1.449,3.292-2.367,6.761-2.758,10.274c-0.03,0.272-0.057,0.545-0.081,0.817c-0.092,1.033-0.138,2.068-0.138,3.103
					c0,0.796,0.027,1.594,0.083,2.39C377.684,410.809,377.707,411.083,377.732,411.354z"/>
				<path style="fill-rule:evenodd;clip-rule:evenodd;fill:#848791;" d="M377.585,408.147c0,0.796,0.027,1.594,0.083,2.39H277.8
					c-1.516,0-2.747-1.231-2.747-2.747c0-0.757,0.308-1.445,0.805-1.942c0.497-0.497,1.185-0.805,1.942-0.805l99.923,0
					C377.631,406.077,377.585,407.112,377.585,408.147z"/>
			</g>
			<g>
				<path style="fill-rule:evenodd;clip-rule:evenodd;fill:#FD4755;" d="M393.537,357.605c-0.145,1.302-0.219,2.611-0.219,3.92
					c0,1.07,0.048,2.139,0.147,3.207c0.318,3.504,1.159,6.968,2.524,10.274c1.387,3.354,3.313,6.542,5.781,9.432H270.694
					c-6.425,0-12.243-2.604-16.453-6.816c-4.21-4.21-6.814-10.027-6.814-16.452c0-12.853,10.416-23.269,23.266-23.269h131.684
					l-0.499,0.582c-2.342,2.719-4.203,5.705-5.583,8.85C394.846,350.623,393.928,354.092,393.537,357.605z"/>
				<path style="fill-rule:evenodd;clip-rule:evenodd;fill:#EFFAFF;" d="M393.466,364.732c0.318,3.504,1.159,6.968,2.524,10.274
					H270.694c-3.697,0-7.171-1.438-9.781-4.051c-2.616-2.615-4.053-6.089-4.053-9.786c0-7.631,6.206-13.837,13.835-13.837l125.601,0
					c-1.449,3.292-2.367,6.761-2.758,10.274c-0.03,0.272-0.057,0.545-0.08,0.817c-0.092,1.033-0.138,2.068-0.138,3.103
					c0,0.796,0.027,1.594,0.083,2.39C393.418,364.187,393.441,364.461,393.466,364.732z"/>
				<path style="fill-rule:evenodd;clip-rule:evenodd;fill:#848791;" d="M393.319,361.525c0,0.796,0.027,1.594,0.083,2.39h-99.868
					c-1.516,0-2.747-1.231-2.747-2.747c0-0.757,0.308-1.445,0.805-1.942c0.497-0.497,1.185-0.805,1.942-0.805l99.923,0
					C393.365,359.455,393.319,360.49,393.319,361.525z"/>
			</g>
			<g>
				<path style="fill-rule:evenodd;clip-rule:evenodd;fill:#FFE07A;" d="M417.138,310.983c-0.145,1.302-0.219,2.611-0.219,3.92
					c0,1.07,0.048,2.139,0.147,3.207c0.317,3.504,1.159,6.968,2.524,10.274c1.387,3.354,3.313,6.542,5.781,9.432H294.295
					c-6.425,0-12.243-2.604-16.453-6.816c-4.21-4.21-6.814-10.028-6.814-16.453c0-12.853,10.416-23.269,23.266-23.269l131.684,0
					l-0.499,0.582c-2.342,2.719-4.203,5.705-5.583,8.85C418.447,304.001,417.529,307.47,417.138,310.983z"/>
				<path style="fill-rule:evenodd;clip-rule:evenodd;fill:#EFFAFF;" d="M417.067,318.11c0.317,3.504,1.159,6.968,2.524,10.274
					H294.295c-3.697,0-7.171-1.438-9.781-4.051c-2.616-2.615-4.053-6.089-4.053-9.786c0-7.631,6.207-13.837,13.835-13.837l125.601,0
					c-1.449,3.292-2.367,6.761-2.758,10.274c-0.03,0.271-0.057,0.545-0.081,0.817c-0.092,1.033-0.138,2.068-0.138,3.103
					c0,0.796,0.027,1.594,0.083,2.39C417.019,317.565,417.042,317.839,417.067,318.11z"/>
				<path style="fill-rule:evenodd;clip-rule:evenodd;fill:#848791;" d="M416.92,314.903c0,0.796,0.027,1.594,0.083,2.39h-99.868
					c-1.516,0-2.747-1.231-2.747-2.747c0-0.757,0.308-1.444,0.805-1.942c0.497-0.497,1.185-0.805,1.942-0.805l99.923,0
					C416.966,312.833,416.92,313.868,416.92,314.903z"/>
			</g>
		</g>
	</g>
</g>
</svg>
