<?xml version="1.0" encoding="iso-8859-1"?>
<!-- Generator: Adobe Illustrator 25.2.0, SVG Export Plug-In . SVG Version: 6.00 Build 0)  -->
<svg version="1.1" xmlns="http://www.w3.org/2000/svg" xmlns:xlink="http://www.w3.org/1999/xlink" x="0px" y="0px"
	 viewBox="0 0 492 492" style="enable-background:new 0 0 492 492;" xml:space="preserve">
<g id="Master_Layer_2">
</g>
<g id="Layer_1">
	<g>
		<g>
			<path style="fill-rule:evenodd;clip-rule:evenodd;fill:#71D438;" d="M430.58,151.157v220.381c0,7.026-6.969,11.924-13.581,9.545
				l-30.97-9.87c-16.874-6.077-34.523-9.156-52.452-9.156c-19.334,0-38.68,3.686-56.686,10.754
				c-4.43,1.734-8.777,3.674-13.024,5.814c-5.537,2.792-11.569,4.187-17.605,4.187c-6.035,0-12.07-1.395-17.604-4.187
				c-4.249-2.14-8.597-4.08-13.024-5.814c-18.008-7.068-37.352-10.754-56.691-10.754c-17.924,0-35.573,3.08-52.45,9.156l-30.97,9.87
				c-6.61,2.378-13.584-2.52-13.584-9.545V151.157l21.472-3.644l22.894-3.887l138.136-0.35l3.652-0.007l0.002,0l134.033-0.339
				l26.979,4.58L430.58,151.157z"/>
			<g>
				<g>
					<path style="fill-rule:evenodd;clip-rule:evenodd;fill:#65BD32;" d="M246.26,144.193v227.648l-4.145-2.089
						c-49.335-24.863-106.722-28.347-158.704-9.635V147.513l22.894-3.887l138.136-0.35L246.26,144.193z"/>
					<path style="fill-rule:evenodd;clip-rule:evenodd;fill:#65BD32;" d="M409.108,147.511v212.607
						c-51.981-18.712-109.368-15.229-158.704,9.635l-4.145,2.089V144.193l1.833-0.924l0.002,0l134.033-0.339L409.108,147.511z"/>
				</g>
				<g>
					<path style="fill-rule:evenodd;clip-rule:evenodd;fill:#EFFAFF;" d="M246.26,361.932l-4.145-2.089
						c-49.335-24.864-106.722-28.348-158.702-9.636l0,0V122.56l0,0c51.98-18.713,109.368-15.228,158.702,9.636l4.145,2.089V361.932z
						"/>
					<path style="fill-rule:evenodd;clip-rule:evenodd;fill:#E3EEF2;" d="M246.26,361.932l4.145-2.089
						c49.335-24.864,106.722-28.348,158.702-9.636l0,0V122.56l0,0c-51.98-18.713-109.368-15.228-158.702,9.636l-4.145,2.089V361.932
						z"/>
					<g>
						<g>
							<path style="fill-rule:evenodd;clip-rule:evenodd;fill:#848791;" d="M294.081,172.863c-1.796,0-3.47-1.133-4.074-2.929
								c-0.758-2.251,0.453-4.689,2.703-5.446c22.505-7.577,45.643-9.561,68.771-5.899c2.345,0.372,3.945,2.574,3.574,4.919
								c-0.371,2.345-2.572,3.946-4.919,3.574c-21.743-3.443-43.505-1.574-64.683,5.555
								C294.998,172.79,294.535,172.863,294.081,172.863z"/>
						</g>
						<g>
							<path style="fill-rule:evenodd;clip-rule:evenodd;fill:#848791;" d="M294.24,215.26c-1.795,0-3.47-1.133-4.074-2.929
								c-0.757-2.25,0.453-4.689,2.703-5.446c22.505-7.576,45.644-9.56,68.771-5.899c2.345,0.372,3.946,2.574,3.574,4.919
								c-0.371,2.345-2.574,3.947-4.919,3.574c-21.744-3.443-43.506-1.574-64.683,5.555
								C295.158,215.187,294.695,215.26,294.24,215.26z"/>
						</g>
						<g>
							<path style="fill-rule:evenodd;clip-rule:evenodd;fill:#848791;" d="M294.4,257.657c-1.795,0-3.47-1.133-4.074-2.929
								c-0.757-2.25,0.453-4.688,2.703-5.446c22.504-7.576,45.643-9.561,68.771-5.899c2.345,0.371,3.945,2.574,3.574,4.919
								c-0.371,2.345-2.574,3.948-4.919,3.574c-21.744-3.442-43.506-1.574-64.683,5.556
								C295.317,257.584,294.855,257.657,294.4,257.657z"/>
						</g>
						<g>
							<path style="fill-rule:evenodd;clip-rule:evenodd;fill:#848791;" d="M294.559,300.055c-1.795,0-3.47-1.133-4.074-2.929
								c-0.758-2.25,0.453-4.689,2.703-5.446c22.505-7.576,45.643-9.561,68.771-5.899c2.345,0.371,3.945,2.574,3.574,4.919
								c-0.371,2.345-2.571,3.947-4.919,3.574c-21.742-3.444-43.505-1.574-64.682,5.555
								C295.477,299.982,295.014,300.055,294.559,300.055z"/>
						</g>
					</g>
					<g>
						<g>
							<path style="fill-rule:evenodd;clip-rule:evenodd;fill:#848791;" d="M198.44,172.863c-0.455,0-0.917-0.073-1.372-0.226
								c-21.177-7.129-42.939-8.999-64.683-5.555c-2.346,0.373-4.548-1.229-4.919-3.574c-0.371-2.345,1.229-4.548,3.574-4.919
								c23.128-3.662,46.265-1.678,68.771,5.899c2.25,0.757,3.46,3.196,2.703,5.446C201.91,171.729,200.235,172.863,198.44,172.863z
								"/>
						</g>
						<g>
							<path style="fill-rule:evenodd;clip-rule:evenodd;fill:#848791;" d="M198.281,215.26c-0.455,0-0.917-0.073-1.372-0.226
								c-21.177-7.129-42.939-8.998-64.683-5.555c-2.346,0.373-4.548-1.229-4.919-3.574c-0.371-2.345,1.229-4.547,3.574-4.919
								c23.128-3.662,46.265-1.678,68.771,5.899c2.25,0.758,3.46,3.196,2.703,5.446C201.75,214.127,200.076,215.26,198.281,215.26z"
								/>
						</g>
						<g>
							<path style="fill-rule:evenodd;clip-rule:evenodd;fill:#848791;" d="M198.121,257.657c-0.455,0-0.917-0.073-1.372-0.226
								c-21.176-7.129-42.939-8.998-64.683-5.556c-2.346,0.374-4.548-1.229-4.919-3.574c-0.371-2.345,1.229-4.547,3.574-4.919
								c23.128-3.662,46.266-1.677,68.771,5.899c2.25,0.758,3.46,3.196,2.703,5.446
								C201.591,256.524,199.916,257.657,198.121,257.657z"/>
						</g>
						<g>
							<path style="fill-rule:evenodd;clip-rule:evenodd;fill:#848791;" d="M197.962,300.055c-0.455,0-0.917-0.073-1.372-0.226
								c-21.177-7.129-42.939-8.997-64.683-5.555c-2.345,0.374-4.548-1.228-4.919-3.574c-0.371-2.345,1.229-4.547,3.574-4.919
								c23.127-3.663,46.265-1.678,68.771,5.899c2.25,0.758,3.46,3.196,2.703,5.446
								C201.431,298.921,199.757,300.055,197.962,300.055z"/>
						</g>
					</g>
				</g>
			</g>
		</g>
	</g>
</g>
</svg>
