<?xml version="1.0" encoding="iso-8859-1"?>
<!-- Generator: Adobe Illustrator 25.2.0, SVG Export Plug-In . SVG Version: 6.00 Build 0)  -->
<svg version="1.1" xmlns="http://www.w3.org/2000/svg" xmlns:xlink="http://www.w3.org/1999/xlink" x="0px" y="0px"
	 viewBox="0 0 492 492" style="enable-background:new 0 0 492 492;" xml:space="preserve">
<g id="Master_Layer_2">
</g>
<g id="Layer_1">
	<g>
		<g>
			<path style="fill-rule:evenodd;clip-rule:evenodd;fill:#B8D9FF;" d="M386.865,272.572c0,20.838-16.9,37.733-37.77,37.78
				c-6.845,24.189-29.128,41.914-55.56,41.914c-18.057,0-34.184-8.276-44.768-21.237c-8.305,21.632-29.316,36.993-53.917,36.993
				c-23.07,0-42.979-13.502-52.218-33.024c-5.335,1.625-10.996,2.497-16.861,2.497c-16.523,0-31.426-6.929-41.955-18.035
				c-9.776-10.319-15.774-24.251-15.774-39.573c0-31.815,25.848-57.609,57.729-57.609c1.883,0,3.743,0.09,5.578,0.27
				c2.13-29.872,27.096-53.45,57.577-53.45c2.856,0,5.661,0.208,8.407,0.607c16.896,2.458,31.415,12.225,40.241,25.978
				c10.388-10.057,24.558-16.242,40.171-16.242c31.885,0,57.733,25.79,57.733,57.608c0,0.078,0,0.157-0.008,0.231
				c4.205-1.613,8.764-2.494,13.534-2.494C369.914,234.788,386.865,251.707,386.865,272.572z"/>
			<g>
				<path style="fill-rule:evenodd;clip-rule:evenodd;fill:#FFE07A;" d="M361.99,221.713c4.228,0,7.962-2.86,8.94-6.965
					c1.188-4.983,3.633-9.624,7.119-13.494c8.828-9.798,14.105-22.847,13.811-37.128c-0.609-29.521-25.218-53.169-54.804-52.717
					c-29.418,0.45-53.128,24.387-53.128,53.852c0,13.837,5.229,26.454,13.823,35.992c3.486,3.869,5.931,8.511,7.119,13.494
					c0.979,4.105,4.712,6.965,8.94,6.965L361.99,221.713L361.99,221.713z"/>
				<g>
					<g>
						<path style="fill-rule:evenodd;clip-rule:evenodd;fill:#FFE89C;" d="M337.899,84.399c-2.273,0-4.116-1.839-4.116-4.108V66.528
							c0-2.269,1.843-4.108,4.116-4.108c2.273,0,4.117,1.839,4.117,4.108v13.764C342.016,82.56,340.173,84.399,337.899,84.399z"/>
					</g>
					<g>
						<path style="fill-rule:evenodd;clip-rule:evenodd;fill:#FFE89C;" d="M297.246,95.382c-1.422,0-2.806-0.736-3.569-2.054
							l-6.952-12.015c-1.137-1.965-0.462-4.477,1.507-5.612c1.969-1.134,4.487-0.461,5.623,1.504l6.952,12.016
							c1.137,1.965,0.462,4.477-1.507,5.611C298.652,95.204,297.944,95.382,297.246,95.382z"/>
					</g>
					<g>
						<path style="fill-rule:evenodd;clip-rule:evenodd;fill:#FFE89C;" d="M267.76,125.248c-0.698,0-1.406-0.177-2.054-0.551
							l-12.327-7.102c-1.969-1.134-2.643-3.646-1.507-5.612c1.137-1.965,3.655-2.638,5.623-1.504l12.327,7.102
							c1.969,1.134,2.643,3.646,1.507,5.611C270.566,124.511,269.183,125.248,267.76,125.248z"/>
					</g>
					<g>
						<path style="fill-rule:evenodd;clip-rule:evenodd;fill:#FFE89C;" d="M408.038,125.248c-1.422,0-2.806-0.736-3.569-2.055
							c-1.137-1.965-0.462-4.477,1.507-5.611l12.327-7.102c1.969-1.134,4.487-0.461,5.623,1.504
							c1.137,1.965,0.462,4.477-1.507,5.612l-12.327,7.102C409.444,125.07,408.737,125.248,408.038,125.248z"/>
					</g>
					<g>
						<path style="fill-rule:evenodd;clip-rule:evenodd;fill:#FFE89C;" d="M378.553,95.382c-0.698,0-1.406-0.178-2.055-0.551
							c-1.969-1.134-2.643-3.647-1.507-5.612l6.952-12.015c1.137-1.965,3.654-2.638,5.623-1.504
							c1.969,1.134,2.643,3.647,1.507,5.612l-6.952,12.015C381.359,94.645,379.975,95.382,378.553,95.382z"/>
					</g>
				</g>
				<g>
					<path style="fill-rule:evenodd;clip-rule:evenodd;fill:#3C5C73;" d="M337.899,232.443c-0.001,0-0.002,0-0.003,0
						c-1.989-0.002-3.6-1.612-3.599-3.597l0.041-50.329c-1.303-1.251-2.718-2.43-4.22-3.515c-2.34-1.692-4.909-3.17-7.637-4.395
						c-1.814-0.815-2.623-2.942-1.807-4.753c0.816-1.811,2.948-2.617,4.763-1.803c3.175,1.426,6.172,3.152,8.907,5.129
						c1.252,0.904,2.455,1.866,3.598,2.875c1.144-1.01,2.347-1.972,3.6-2.877c2.733-1.977,5.73-3.702,8.905-5.128
						c1.697-0.762,3.696-0.108,4.612,1.507c0.917,1.616,0.449,3.662-1.079,4.722l-12.438,8.629l-0.04,49.943
						C341.5,230.836,339.887,232.443,337.899,232.443z"/>
				</g>
				<path style="fill-rule:evenodd;clip-rule:evenodd;fill:#344F63;" d="M351.854,243.285h-27.909
					c-6.265,0-11.344-5.079-11.344-11.344v-10.228h50.598v10.228C363.198,238.206,358.119,243.285,351.854,243.285z"/>
				<path style="fill-rule:evenodd;clip-rule:evenodd;fill:#3C5C73;" d="M353.074,243.217v4.177c0,8.218-6.676,14.881-14.909,14.881
					h-0.53c-8.235,0-14.909-6.662-14.909-14.881v-4.177H353.074z"/>
			</g>
			<g>
				<ellipse style="fill-rule:evenodd;clip-rule:evenodd;fill:#C2DEFF;" cx="116.652" cy="383.387" rx="14.685" ry="14.654"/>
				<path style="fill-rule:evenodd;clip-rule:evenodd;fill:#C2DEFF;" d="M98.248,421.29c0-5.381-4.398-9.769-9.79-9.769
					c-5.392,0-9.79,4.388-9.79,9.769c0,5.381,4.398,9.769,9.79,9.769C93.851,431.06,98.248,426.671,98.248,421.29z"/>
			</g>
			<polygon style="fill-rule:evenodd;clip-rule:evenodd;fill:#71D438;" points="189.238,240.721 182.919,229.646 171.612,223.723 
				182.71,217.418 188.646,206.134 194.965,217.209 206.272,223.132 195.174,229.437 			"/>
			<polygon style="fill-rule:evenodd;clip-rule:evenodd;fill:#FD4755;" points="271.438,295.582 265.119,284.507 253.812,278.584 
				264.91,272.278 270.845,260.994 277.164,272.069 288.472,277.993 277.374,284.298 			"/>
			<polygon style="fill-rule:evenodd;clip-rule:evenodd;fill:#749EE8;" points="185.569,323.71 179.38,312.862 168.304,307.06 
				179.174,300.884 184.989,289.831 191.178,300.679 202.254,306.481 191.383,312.657 			"/>
		</g>
	</g>
</g>
</svg>
