<?xml version="1.0" encoding="iso-8859-1"?>
<!-- Generator: Adobe Illustrator 25.2.0, SVG Export Plug-In . SVG Version: 6.00 Build 0)  -->
<svg version="1.1" xmlns="http://www.w3.org/2000/svg" xmlns:xlink="http://www.w3.org/1999/xlink" x="0px" y="0px"
	 viewBox="0 0 492 492" style="enable-background:new 0 0 492 492;" xml:space="preserve">
<g id="Master_Layer_2">
</g>
<g id="Layer_1">
	<g>
		<g>
			<path style="fill-rule:evenodd;clip-rule:evenodd;fill:#6A90D4;" d="M419.887,327.28H72.634c-5.905,0-10.693-4.787-10.693-10.692
				V84.619c0-5.905,4.787-10.693,10.693-10.693h347.253c5.905,0,10.693,4.787,10.693,10.693v231.969
				C430.579,322.493,425.792,327.28,419.887,327.28z"/>
			<path style="fill-rule:evenodd;clip-rule:evenodd;fill:#E3EEF2;" d="M311.632,398.048l-3.495-4.016
				c-13.268-15.245-22.298-33.708-26.185-53.541l-4.046-20.643h-63.292l-3.022,15.419c-4.558,23.255-15.146,44.905-30.704,62.781
				l0,0H311.632z"/>
			<rect x="78.539" y="90.525" style="fill-rule:evenodd;clip-rule:evenodd;fill:#EFFAFF;" width="335.441" height="172.138"/>
			<path style="fill-rule:evenodd;clip-rule:evenodd;fill:#6A90D4;" d="M338.42,419.553H154.101l0,0
				c0-12.346,10.009-27.004,22.355-27.004l139.609,0C328.411,392.549,338.42,407.207,338.42,419.553L338.42,419.553z"/>
			<path style="fill-rule:evenodd;clip-rule:evenodd;fill:#EFFAFF;" d="M430.58,279.904v36.683c0,5.906-4.789,10.693-10.693,10.693
				H72.633c-5.906,0-10.692-4.786-10.692-10.693v-36.683H430.58z"/>
			<g>
				<path style="fill-rule:evenodd;clip-rule:evenodd;fill:#6A90D4;" d="M253.461,307.556H239.06c-2.189,0-3.964-1.775-3.964-3.964
					c0-2.19,1.775-3.964,3.964-3.964l14.401,0c2.189,0,3.964,1.775,3.964,3.964C257.425,305.781,255.65,307.556,253.461,307.556z"/>
			</g>
			<g>
				<path style="fill-rule:evenodd;clip-rule:evenodd;fill:#3D5D75;" d="M294.721,161.138v34.175c0,4.855-2.813,9.273-7.213,11.329
					c-13.07,6.108-27.161,9.163-41.249,9.163c-14.088,0-28.179-3.054-41.249-9.163c-2.201-1.026-4.003-2.647-5.255-4.614
					c-1.253-1.967-1.957-4.287-1.957-6.715v-34.175H294.721z"/>
				<g>
					<path style="fill-rule:evenodd;clip-rule:evenodd;fill:#848791;" d="M315.421,227.927c-1.657,0-3-1.343-3-3v-76.516
						c0-1.657,1.343-3,3-3c1.657,0,3,1.343,3,3v76.516C318.422,226.584,317.079,227.927,315.421,227.927z"/>
				</g>
				<path style="fill-rule:evenodd;clip-rule:evenodd;fill:#2D4456;" d="M324.671,224.927c0-5.094-4.155-9.25-9.25-9.25
					c-5.094,0-9.249,4.155-9.249,9.25s4.155,9.249,9.249,9.249C320.516,234.177,324.671,230.022,324.671,224.927z"/>
				<polygon style="fill-rule:evenodd;clip-rule:evenodd;fill:#2D4456;" points="246.259,179.251 162.341,149.131 246.259,119.011 
					330.179,149.131 				"/>
			</g>
		</g>
	</g>
</g>
</svg>
