<?xml version="1.0" encoding="iso-8859-1"?>
<!-- Generator: Adobe Illustrator 25.2.0, SVG Export Plug-In . SVG Version: 6.00 Build 0)  -->
<svg version="1.1" xmlns="http://www.w3.org/2000/svg" xmlns:xlink="http://www.w3.org/1999/xlink" x="0px" y="0px"
	 viewBox="0 0 492 492" style="enable-background:new 0 0 492 492;" xml:space="preserve">
<g id="Master_Layer_2">
</g>
<g id="Layer_1">
	<g>
		<g>
			<path style="fill-rule:evenodd;clip-rule:evenodd;fill:#6A90D4;" d="M419.887,327.28H72.634c-5.905,0-10.693-4.787-10.693-10.692
				V84.619c0-5.905,4.787-10.693,10.693-10.693h347.253c5.905,0,10.693,4.787,10.693,10.693v231.969
				C430.579,322.493,425.792,327.28,419.887,327.28z"/>
			<path style="fill-rule:evenodd;clip-rule:evenodd;fill:#E3EEF2;" d="M311.632,398.048l-3.495-4.016
				c-13.268-15.245-22.298-33.708-26.185-53.541l-4.046-20.643h-63.292l-3.022,15.419c-4.558,23.255-15.146,44.905-30.704,62.781
				l0,0H311.632z"/>
			<rect x="78.539" y="90.525" style="fill-rule:evenodd;clip-rule:evenodd;fill:#BDDCFF;" width="335.441" height="172.138"/>
			<path style="fill-rule:evenodd;clip-rule:evenodd;fill:#6A90D4;" d="M338.42,419.553H154.101l0,0
				c0-12.346,10.009-27.004,22.355-27.004l139.609,0C328.411,392.549,338.42,407.207,338.42,419.553L338.42,419.553z"/>
			<path style="fill-rule:evenodd;clip-rule:evenodd;fill:#EFFAFF;" d="M430.58,279.904v36.683c0,5.906-4.789,10.693-10.693,10.693
				H72.633c-5.906,0-10.692-4.786-10.692-10.693v-36.683H430.58z"/>
			<g>
				<path style="fill-rule:evenodd;clip-rule:evenodd;fill:#6A90D4;" d="M253.461,307.556H239.06c-2.189,0-3.964-1.775-3.964-3.964
					c0-2.19,1.775-3.964,3.964-3.964l14.401,0c2.189,0,3.964,1.775,3.964,3.964C257.425,305.781,255.65,307.556,253.461,307.556z"/>
			</g>
			<g>
				
					<ellipse transform="matrix(0.7071 -0.7071 0.7071 0.7071 -52.7428 225.855)" style="fill-rule:evenodd;clip-rule:evenodd;fill:#8FC2FB;" cx="246.26" cy="176.594" rx="73.097" ry="73.097"/>
				<path style="fill-rule:evenodd;clip-rule:evenodd;fill:#FFFFFF;" d="M321.911,176.594
					C321.911,176.594,321.911,176.594,321.911,176.594c0-10.212-2.001-20.119-5.946-29.448c-3.811-9.009-9.265-17.099-16.212-24.046
					c-0.632-0.632-1.273-1.251-1.923-1.857c-0.007-0.007-0.015-0.014-0.023-0.021c-6.497-6.057-13.92-10.873-22.1-14.333
					c-9.328-3.946-19.236-5.946-29.448-5.946l0,0l0,0v0c-10.212,0-20.119,2.001-29.447,5.946c-8.18,3.46-15.602,8.275-22.099,14.332
					c-0.008,0.008-0.017,0.015-0.024,0.023c-0.65,0.607-1.291,1.225-1.923,1.857c-6.947,6.947-12.401,15.037-16.212,24.046
					c-3.946,9.328-5.946,19.236-5.946,29.447l0,0l0,0c0,0,0,0,0,0c0,10.212,2.001,20.119,5.946,29.448
					c3.811,9.009,9.265,17.099,16.212,24.046c0.632,0.632,1.273,1.251,1.923,1.857c0.007,0.007,0.015,0.014,0.023,0.021
					c6.497,6.057,13.92,10.873,22.1,14.333c9.328,3.946,19.236,5.946,29.447,5.946v0l0,0l0,0c10.212,0,20.12-2.001,29.448-5.946
					c9.009-3.811,17.099-9.265,24.046-16.212c6.947-6.947,12.401-15.037,16.212-24.046
					C319.91,196.713,321.911,186.805,321.911,176.594L321.911,176.594L321.911,176.594L321.911,176.594z M316.756,174.039h-31.877
					c-0.232-13.989-2.369-27.33-6.16-38.804c5.945-2.312,11.654-5.271,17.042-8.851C308.178,138.627,316.09,155.426,316.756,174.039
					L316.756,174.039z M269.486,126.037c0.959,1.943,1.856,3.98,2.688,6.1c-7.501,2.413-15.347,3.766-23.36,4.003v-29.879
					C256.495,107.519,263.755,114.429,269.486,126.037L269.486,126.037z M243.705,106.261v29.879
					c-8.013-0.237-15.859-1.591-23.36-4.003c0.833-2.12,1.729-4.157,2.688-6.1C228.764,114.429,236.025,107.52,243.705,106.261
					L243.705,106.261z M243.705,141.251v32.788H212.75c0.229-13.412,2.262-26.162,5.862-37.092
					C226.665,139.556,235.095,141.011,243.705,141.251L243.705,141.251z M243.705,179.148v32.788
					c-8.61,0.24-17.04,1.696-25.093,4.304c-3.6-10.929-5.633-23.679-5.862-37.092H243.705L243.705,179.148z M243.705,217.048v29.879
					c-7.68-1.258-14.941-8.168-20.672-19.776c-0.959-1.943-1.856-3.98-2.688-6.1C227.846,218.638,235.692,217.285,243.705,217.048
					L243.705,217.048z M248.814,246.926v-29.879c8.013,0.237,15.86,1.59,23.36,4.003c-0.833,2.12-1.729,4.157-2.688,6.1
					C263.755,238.759,256.495,245.668,248.814,246.926L248.814,246.926z M248.814,211.936v-32.788h30.956
					c-0.229,13.413-2.262,26.163-5.862,37.092C265.855,213.632,257.424,212.177,248.814,211.936L248.814,211.936z M248.814,174.039
					v-32.788c8.61-0.24,17.04-1.696,25.093-4.304c3.6,10.929,5.632,23.679,5.862,37.092L248.814,174.039L248.814,174.039z
					 M291.873,122.824c-4.729,3.04-9.711,5.58-14.884,7.601c-0.902-2.311-1.876-4.532-2.921-6.649
					c-3.266-6.616-7.067-11.916-11.308-15.775C273.663,110.624,283.588,115.785,291.873,122.824L291.873,122.824z M229.76,108.001
					c-4.241,3.859-8.042,9.16-11.308,15.775c-1.045,2.117-2.019,4.338-2.921,6.649c-5.173-2.021-10.155-4.56-14.884-7.601
					C208.931,115.785,218.857,110.624,229.76,108.001L229.76,108.001z M196.758,126.384c5.389,3.579,11.097,6.539,17.042,8.851
					c-3.792,11.474-5.928,24.815-6.16,38.804h-31.877C176.429,155.426,184.342,138.627,196.758,126.384L196.758,126.384z
					 M175.764,179.148h31.877c0.232,13.989,2.369,27.331,6.16,38.805c-5.945,2.312-11.654,5.271-17.042,8.851
					C184.342,214.56,176.429,197.762,175.764,179.148L175.764,179.148z M200.647,230.364c4.729-3.04,9.711-5.581,14.884-7.601
					c0.902,2.311,1.876,4.532,2.921,6.649c3.266,6.615,7.067,11.916,11.308,15.775C218.857,242.564,208.931,237.402,200.647,230.364
					L200.647,230.364z M262.759,245.187c4.241-3.859,8.042-9.16,11.308-15.775c1.045-2.117,2.019-4.338,2.921-6.649
					c5.173,2.02,10.155,4.56,14.884,7.601C283.588,237.402,273.663,242.564,262.759,245.187L262.759,245.187z M295.762,226.803
					c-5.389-3.579-11.097-6.539-17.042-8.851c3.792-11.474,5.928-24.816,6.16-38.805l31.877,0
					C316.09,197.762,308.178,214.56,295.762,226.803z"/>
			</g>
		</g>
	</g>
</g>
</svg>
