<?xml version="1.0" encoding="iso-8859-1"?>
<!-- Generator: Adobe Illustrator 25.2.0, SVG Export Plug-In . SVG Version: 6.00 Build 0)  -->
<svg version="1.1" xmlns="http://www.w3.org/2000/svg" xmlns:xlink="http://www.w3.org/1999/xlink" x="0px" y="0px"
	 viewBox="0 0 492 492" style="enable-background:new 0 0 492 492;" xml:space="preserve">
<g id="Master_Layer_2">
</g>
<g id="Layer_1">
	<g>
		<g>
			<g>
				<path style="fill-rule:evenodd;clip-rule:evenodd;fill:#FFE89C;" d="M158.614,232.41V431.06h220.81
					c4.444,0,8.047-3.602,8.047-8.047V232.41v-36.351V70.467c0-4.444-3.602-8.047-8.047-8.047l-220.81,0v133.639V232.41z"/>
				<path style="fill-rule:evenodd;clip-rule:evenodd;fill:#FFE07A;" d="M158.614,62.421h-26.871
					c-14.742,0-26.693,11.951-26.693,26.693v315.253c0,14.742,11.951,26.693,26.693,26.693h26.871V62.421z"/>
				<polygon style="fill-rule:evenodd;clip-rule:evenodd;fill:#F23F4C;" points="197.121,222.057 158.614,222.057 105.05,222.057 
					105.05,258.408 158.614,258.408 197.121,258.408 356.397,258.408 387.471,258.408 387.471,222.057 356.397,222.057 				"/>
				<polygon style="fill-rule:evenodd;clip-rule:evenodd;fill:#D93844;" points="197.121,261.757 158.614,261.757 105.05,261.757 
					105.05,255.931 158.614,255.931 197.121,255.931 356.397,255.931 387.471,255.931 387.471,261.757 356.397,261.757 				"/>
				<g>
					<g>
						<path style="fill-rule:evenodd;clip-rule:evenodd;fill:#FF5966;" d="M261.376,222.276l-61.163-25.285
							c-7.449-3.08-15.637,2.396-15.637,10.458v62.011c0,8.055,8.178,13.53,15.624,10.463l61.262-25.241h25.634l61.262,25.241
							c7.446,3.067,15.625-2.408,15.625-10.463l0-62.012c0-8.062-8.188-13.537-15.637-10.458l-61.163,25.285H261.376z"/>
						<polygon style="fill-rule:evenodd;clip-rule:evenodd;fill:#FD4755;" points="258.594,254.47 292.342,349.985 305.055,322.737 
							331.588,336.885 297.603,240.66 						"/>
						<polygon style="fill-rule:evenodd;clip-rule:evenodd;fill:#F23F4C;" points="295.526,241.789 274.856,303.709 
							274.856,303.711 257.96,354.309 245.25,327.061 218.717,341.209 251.578,242.776 						"/>
					</g>
					<g>
						<path style="fill-rule:evenodd;clip-rule:evenodd;fill:#DE3E4B;" d="M299.797,238.444c0-14.054-11.462-25.516-25.516-25.516
							c-14.054,0-25.516,11.462-25.516,25.516c0,14.054,11.462,25.516,25.516,25.516
							C288.335,263.96,299.797,252.497,299.797,238.444z"/>
						<path style="fill-rule:evenodd;clip-rule:evenodd;fill:#FF5966;" d="M287.709,238.444c0-7.396-6.032-13.428-13.428-13.428
							c-7.396,0-13.428,6.032-13.428,13.428c0,7.396,6.032,13.428,13.428,13.428C281.677,251.872,287.709,245.84,287.709,238.444z"
							/>
					</g>
				</g>
				<path style="fill-rule:evenodd;clip-rule:evenodd;fill:#EBCE70;" d="M345.131,156.507H213.341c-2.012,0-3.643-1.631-3.643-3.643
					l0-47.784c0-2.012,1.631-3.643,3.643-3.643l131.79,0c2.012,0,3.643,1.631,3.643,3.643v47.785
					C348.774,154.876,347.143,156.507,345.131,156.507z"/>
			</g>
			<g>
				<path style="fill-rule:evenodd;clip-rule:evenodd;fill:#EFFAFF;" d="M342.653,154.03H210.864c-2.012,0-3.643-1.631-3.643-3.643
					l0-47.785c0-2.012,1.631-3.643,3.643-3.643h131.79c2.012,0,3.643,1.631,3.643,3.643v47.784
					C346.297,152.399,344.666,154.03,342.653,154.03z"/>
				<g>
					<g>
						<path style="fill-rule:evenodd;clip-rule:evenodd;fill:#848791;" d="M310.468,118.82h-67.419c-1.319,0-2.389-1.07-2.389-2.389
							c0-1.319,1.07-2.389,2.389-2.389h67.419c1.319,0,2.389,1.07,2.389,2.389C312.857,117.75,311.788,118.82,310.468,118.82z"/>
					</g>
					<g>
						<path style="fill-rule:evenodd;clip-rule:evenodd;fill:#848791;" d="M310.468,138.946h-67.419
							c-1.319,0-2.389-1.07-2.389-2.389c0-1.319,1.07-2.389,2.389-2.389l67.419,0c1.319,0,2.389,1.07,2.389,2.389
							C312.857,137.877,311.788,138.946,310.468,138.946z"/>
					</g>
				</g>
			</g>
		</g>
	</g>
</g>
</svg>
