<?xml version="1.0" encoding="iso-8859-1"?>
<!-- Generator: Adobe Illustrator 25.2.0, SVG Export Plug-In . SVG Version: 6.00 Build 0)  -->
<svg version="1.1" xmlns="http://www.w3.org/2000/svg" xmlns:xlink="http://www.w3.org/1999/xlink" x="0px" y="0px"
	 viewBox="0 0 492 492" style="enable-background:new 0 0 492 492;" xml:space="preserve">
<g id="Master_Layer_2">
</g>
<g id="Layer_1">
	<g>
		<g>
			<path style="fill-rule:evenodd;clip-rule:evenodd;fill:#FFE89C;" d="M386.316,431.059H164.393V62.42h221.924
				c2.631,0,4.765,2.133,4.765,4.765v359.11C391.081,428.925,388.948,431.059,386.316,431.059z"/>
			<path style="fill-rule:evenodd;clip-rule:evenodd;fill:#DE3E4B;" d="M169.348,62.42h-38.566c-7.301,0-13.222,5.919-13.222,13.219
				l0,342.198c0,7.301,5.921,13.222,13.222,13.222l38.566,0L169.348,62.42z"/>
			<g>
				<path style="fill-rule:evenodd;clip-rule:evenodd;fill:#FFE89C;" d="M126.667,130.741h-15.334c-5.464,0-9.894-4.43-9.894-9.894
					l0,0c0-5.464,4.43-9.894,9.894-9.894h15.334c5.464,0,9.894,4.43,9.894,9.894l0,0
					C136.561,126.311,132.132,130.741,126.667,130.741z"/>
				<path style="fill-rule:evenodd;clip-rule:evenodd;fill:#FFE89C;" d="M126.667,181.098h-15.334c-5.464,0-9.894-4.43-9.894-9.894
					l0,0c0-5.464,4.43-9.894,9.894-9.894h15.334c5.464,0,9.894,4.43,9.894,9.894l0,0
					C136.561,176.668,132.132,181.098,126.667,181.098z"/>
				<path style="fill-rule:evenodd;clip-rule:evenodd;fill:#FFE89C;" d="M126.667,231.455h-15.334c-5.464,0-9.894-4.43-9.894-9.894
					l0,0c0-5.464,4.43-9.894,9.894-9.894l15.334,0c5.464,0,9.894,4.43,9.894,9.894l0,0
					C136.561,227.025,132.132,231.455,126.667,231.455z"/>
				<path style="fill-rule:evenodd;clip-rule:evenodd;fill:#FFE89C;" d="M126.667,281.812h-15.334c-5.464,0-9.894-4.43-9.894-9.894
					l0,0c0-5.464,4.43-9.894,9.894-9.894l15.334,0c5.464,0,9.894,4.43,9.894,9.894l0,0
					C136.561,277.382,132.132,281.812,126.667,281.812z"/>
				<path style="fill-rule:evenodd;clip-rule:evenodd;fill:#FFE89C;" d="M126.667,332.17h-15.334c-5.464,0-9.894-4.43-9.894-9.894
					l0,0c0-5.464,4.43-9.894,9.894-9.894h15.334c5.464,0,9.894,4.43,9.894,9.894l0,0C136.561,327.74,132.132,332.17,126.667,332.17z
					"/>
				<path style="fill-rule:evenodd;clip-rule:evenodd;fill:#FFE89C;" d="M126.667,382.527h-15.334c-5.464,0-9.894-4.43-9.894-9.894
					l0,0c0-5.464,4.43-9.894,9.894-9.894h15.334c5.464,0,9.894,4.43,9.894,9.894l0,0
					C136.561,378.097,132.132,382.527,126.667,382.527z"/>
			</g>
			<g>
				<g>
					
						<ellipse transform="matrix(0.9871 -0.1602 0.1602 0.9871 -27.5695 47.3868)" style="fill-rule:evenodd;clip-rule:evenodd;fill:#E6D08C;" cx="280.137" cy="194.696" rx="72.665" ry="72.666"/>
					<g>
						
							<ellipse transform="matrix(0.9796 -0.2011 0.2011 0.9796 -32.5586 59.2389)" style="fill-rule:evenodd;clip-rule:evenodd;fill:#EFFAFF;" cx="275.337" cy="189.896" rx="72.665" ry="72.666"/>
						<g>
							<g>
								<path style="fill-rule:evenodd;clip-rule:evenodd;fill:#71D438;" d="M262.276,169.891L262.276,169.891
									c2.671-2.671,2.732-6.98,0.14-9.727l-9.705-10.282c-2.7-2.86-7.23-2.926-10.011-0.144l-3.249,3.249
									c-8.421,8.422-8.421,22.075,0,30.497l42.299,42.299c8.421,8.422,22.075,8.422,30.496,0l3.249-3.249
									c2.782-2.782,2.716-7.311-0.144-10.011l-10.282-9.706c-2.746-2.592-7.056-2.53-9.727,0.14l0,0
									c-3.358,3.359-8.804,3.359-12.163,0l-20.904-20.903C258.917,178.695,258.917,173.25,262.276,169.891z"/>
							</g>
						</g>
					</g>
				</g>
				<g>
					<path style="fill-rule:evenodd;clip-rule:evenodd;fill:#E6D08C;" d="M351.831,376.247H209.019c-2.18,0-3.948-1.768-3.948-3.948
						v-51.781c0-2.18,1.768-3.948,3.948-3.948l142.812,0c2.18,0,3.948,1.768,3.948,3.948V372.3
						C355.779,374.48,354.012,376.247,351.831,376.247z"/>
					<g>
						<path style="fill-rule:evenodd;clip-rule:evenodd;fill:#EFFAFF;" d="M346.454,370.871H203.642
							c-2.18,0-3.948-1.768-3.948-3.948v-51.781c0-2.18,1.768-3.948,3.948-3.948l142.812,0c2.18,0,3.948,1.768,3.948,3.948v51.781
							C350.402,369.103,348.635,370.871,346.454,370.871z"/>
						<g>
							<g>
								<path style="fill-rule:evenodd;clip-rule:evenodd;fill:#848791;" d="M311.577,332.716h-73.058
									c-1.43,0-2.588-1.159-2.588-2.588s1.159-2.588,2.588-2.588l73.058,0c1.43,0,2.588,1.159,2.588,2.588
									C314.166,331.557,313.007,332.716,311.577,332.716z"/>
							</g>
							<g>
								<path style="fill-rule:evenodd;clip-rule:evenodd;fill:#848791;" d="M311.577,354.526h-73.058
									c-1.43,0-2.588-1.159-2.588-2.589s1.159-2.588,2.588-2.588l73.058,0c1.43,0,2.588,1.159,2.588,2.588
									C314.166,353.367,313.007,354.526,311.577,354.526z"/>
							</g>
						</g>
					</g>
				</g>
			</g>
		</g>
	</g>
</g>
</svg>
