<?xml version="1.0" encoding="iso-8859-1"?>
<!-- Generator: Adobe Illustrator 25.2.0, SVG Export Plug-In . SVG Version: 6.00 Build 0)  -->
<svg version="1.1" xmlns="http://www.w3.org/2000/svg" xmlns:xlink="http://www.w3.org/1999/xlink" x="0px" y="0px"
	 viewBox="0 0 492 492" style="enable-background:new 0 0 492 492;" xml:space="preserve">
<g id="Master_Layer_2">
</g>
<g id="Layer_1">
	<g>
		<g>
			<g>
				<g>
					<path style="fill-rule:evenodd;clip-rule:evenodd;fill:#ECF7FC;" d="M388.041,134.667v286.79c0,5.304-4.301,9.602-9.602,9.602
						l-264.357,0c-5.302,0-9.602-4.298-9.602-9.602V72.022c0-5.304,4.299-9.602,9.602-9.602l201.708,0
						c2.715,0,5.369,0.588,7.79,1.692v62.765l62.77,0C387.453,129.301,388.041,131.953,388.041,134.667z"/>
					<path style="fill-rule:evenodd;clip-rule:evenodd;fill:#CACFDE;" d="M386.349,126.877h-62.768V64.112
						c2.031,0.922,3.9,2.21,5.507,3.815l53.445,53.44C384.141,122.975,385.429,124.846,386.349,126.877z"/>
				</g>
				<g>
					<g>
						<path style="fill-rule:evenodd;clip-rule:evenodd;fill:#CACFDE;" d="M338.086,342.355H154.435
							c-2.189,0-3.963-1.774-3.963-3.963s1.774-3.963,3.963-3.963h183.651c2.189,0,3.963,1.774,3.963,3.963
							S340.275,342.355,338.086,342.355z"/>
					</g>
					<g>
						<path style="fill-rule:evenodd;clip-rule:evenodd;fill:#CACFDE;" d="M338.086,258.643H154.435
							c-2.189,0-3.963-1.774-3.963-3.963c0-2.189,1.774-3.963,3.963-3.963h183.651c2.189,0,3.963,1.774,3.963,3.963
							C342.049,256.869,340.275,258.643,338.086,258.643z"/>
					</g>
					<g>
						<path style="fill-rule:evenodd;clip-rule:evenodd;fill:#CACFDE;" d="M338.086,300.499H154.435
							c-2.189,0-3.963-1.774-3.963-3.963s1.774-3.963,3.963-3.963h183.651c2.189,0,3.963,1.774,3.963,3.963
							S340.275,300.499,338.086,300.499z"/>
					</g>
					<g>
						<path style="fill-rule:evenodd;clip-rule:evenodd;fill:#CACFDE;" d="M338.086,384.211H154.435
							c-2.189,0-3.963-1.774-3.963-3.963c0-2.189,1.774-3.963,3.963-3.963h183.651c2.189,0,3.963,1.774,3.963,3.963
							C342.049,382.437,340.275,384.211,338.086,384.211z"/>
					</g>
				</g>
				<g>
					<path style="fill-rule:evenodd;clip-rule:evenodd;fill:#DE3E4B;" d="M298.546,141.73c0.008-0.012,0.014-0.024,0.021-0.036
						c0.063-0.097,0.123-0.195,0.178-0.298c0.004-0.007,0.007-0.015,0.01-0.022c0.056-0.107,0.109-0.216,0.155-0.329
						c0.001-0.003,0.002-0.006,0.003-0.009c0.048-0.116,0.09-0.234,0.127-0.355c0.001-0.004,0.002-0.009,0.003-0.013
						c0.036-0.118,0.066-0.238,0.091-0.361c0.005-0.024,0.007-0.05,0.011-0.074c0.018-0.102,0.036-0.205,0.046-0.31
						c0.012-0.123,0.018-0.246,0.019-0.37c0-0.008,0.001-0.016,0.001-0.025v0v0c0-0.133-0.007-0.265-0.02-0.396
						c-0.009-0.089-0.025-0.176-0.039-0.264c-0.007-0.04-0.01-0.082-0.018-0.122c-0.021-0.106-0.049-0.209-0.079-0.312
						c-0.006-0.021-0.01-0.042-0.016-0.063c-0.031-0.103-0.069-0.203-0.109-0.303c-0.008-0.02-0.014-0.041-0.023-0.062
						c-0.038-0.092-0.083-0.181-0.128-0.27c-0.014-0.027-0.025-0.055-0.039-0.082c-0.041-0.077-0.088-0.151-0.135-0.225
						c-0.023-0.036-0.042-0.073-0.066-0.109c-0.042-0.062-0.088-0.121-0.134-0.181c-0.033-0.043-0.063-0.089-0.098-0.131
						c-0.043-0.052-0.09-0.1-0.135-0.149c-0.041-0.045-0.079-0.092-0.123-0.136l-23.822-23.821c-1.547-1.547-4.057-1.547-5.605,0
						c-1.547,1.548-1.547,4.057,0,5.605l17.057,17.056l-83.459,0c-2.189,0-3.963,1.774-3.963,3.963s1.774,3.963,3.963,3.963h83.459
						l-17.057,17.056c-1.548,1.548-1.548,4.057,0,5.605c0.774,0.774,1.788,1.161,2.802,1.161c1.014,0,2.028-0.387,2.802-1.16
						l23.817-23.817c0.094-0.094,0.183-0.192,0.268-0.295c0.007-0.008,0.012-0.017,0.019-0.025
						C298.408,141.925,298.48,141.829,298.546,141.73z"/>
					<path style="fill-rule:evenodd;clip-rule:evenodd;fill:#DE3E4B;" d="M295.251,188.833h-83.459l17.057-17.056
						c1.548-1.548,1.548-4.057,0-5.605c-1.548-1.548-4.057-1.548-5.604,0l-23.817,23.817c-0.094,0.094-0.183,0.192-0.268,0.295
						c-0.007,0.008-0.012,0.017-0.019,0.025c-0.075,0.092-0.146,0.188-0.212,0.287c-0.008,0.012-0.014,0.024-0.022,0.036
						c-0.063,0.097-0.123,0.195-0.178,0.298c-0.004,0.007-0.007,0.015-0.01,0.022c-0.056,0.107-0.109,0.216-0.155,0.328
						c-0.001,0.003-0.002,0.006-0.003,0.009c-0.048,0.116-0.09,0.234-0.127,0.355c-0.001,0.004-0.002,0.009-0.003,0.013
						c-0.035,0.118-0.066,0.238-0.091,0.361c-0.005,0.024-0.007,0.05-0.011,0.074c-0.018,0.102-0.036,0.205-0.046,0.31
						c-0.012,0.122-0.018,0.246-0.019,0.37c0,0.008-0.001,0.016-0.001,0.025v0v0c0,0.133,0.007,0.265,0.02,0.396
						c0.009,0.089,0.025,0.176,0.039,0.264c0.007,0.041,0.01,0.082,0.018,0.122c0.021,0.106,0.049,0.209,0.079,0.312
						c0.006,0.021,0.01,0.042,0.016,0.063c0.031,0.103,0.069,0.204,0.109,0.303c0.008,0.02,0.014,0.041,0.023,0.062
						c0.038,0.092,0.082,0.181,0.128,0.27c0.014,0.027,0.025,0.055,0.039,0.082c0.041,0.077,0.088,0.151,0.135,0.225
						c0.023,0.036,0.042,0.073,0.066,0.109c0.042,0.062,0.088,0.121,0.134,0.181c0.033,0.044,0.063,0.089,0.098,0.131
						c0.043,0.052,0.09,0.1,0.135,0.149c0.041,0.045,0.079,0.092,0.123,0.135l23.822,23.821c0.774,0.774,1.788,1.161,2.802,1.161
						c1.014,0,2.029-0.387,2.803-1.161c1.547-1.548,1.547-4.057,0-5.605l-17.057-17.056l83.458-0.001
						c2.189,0,3.963-1.774,3.963-3.963C299.214,190.607,297.44,188.833,295.251,188.833z"/>
				</g>
			</g>
			<g>
				<path style="fill-rule:evenodd;clip-rule:evenodd;fill:#FD4755;" d="M296.069,139.253c0.008-0.012,0.014-0.024,0.021-0.036
					c0.063-0.097,0.123-0.195,0.178-0.298c0.004-0.007,0.007-0.015,0.01-0.022c0.056-0.107,0.109-0.216,0.155-0.329
					c0.001-0.003,0.002-0.006,0.003-0.009c0.048-0.116,0.091-0.234,0.127-0.355c0.001-0.004,0.002-0.009,0.003-0.013
					c0.035-0.118,0.066-0.238,0.091-0.361c0.005-0.024,0.007-0.05,0.011-0.074c0.018-0.102,0.036-0.205,0.046-0.31
					c0.012-0.122,0.018-0.246,0.019-0.37c0-0.008,0.001-0.016,0.001-0.025v0v0c0-0.133-0.007-0.265-0.02-0.396
					c-0.009-0.089-0.025-0.176-0.039-0.264c-0.007-0.04-0.01-0.082-0.019-0.122c-0.021-0.106-0.049-0.209-0.078-0.312
					c-0.006-0.021-0.01-0.042-0.016-0.063c-0.031-0.103-0.069-0.204-0.109-0.303c-0.008-0.02-0.014-0.041-0.023-0.062
					c-0.038-0.092-0.082-0.181-0.128-0.27c-0.014-0.027-0.025-0.055-0.039-0.082c-0.041-0.077-0.089-0.151-0.135-0.225
					c-0.023-0.036-0.042-0.073-0.066-0.109c-0.042-0.062-0.089-0.121-0.134-0.181c-0.033-0.044-0.063-0.089-0.098-0.131
					c-0.043-0.052-0.09-0.1-0.135-0.149c-0.041-0.045-0.079-0.092-0.123-0.135l-23.822-23.821c-1.547-1.547-4.057-1.547-5.605,0
					c-1.547,1.548-1.547,4.057,0,5.605l17.057,17.056l-83.459,0.001c-2.189,0-3.963,1.774-3.963,3.963
					c0,2.189,1.774,3.963,3.963,3.963h83.458l-17.056,17.056c-1.548,1.548-1.548,4.057,0,5.605c0.774,0.774,1.788,1.161,2.802,1.161
					c1.014,0,2.029-0.387,2.802-1.16l23.817-23.817c0.094-0.094,0.183-0.192,0.268-0.295c0.007-0.008,0.012-0.017,0.019-0.025
					C295.932,139.447,296.003,139.352,296.069,139.253z"/>
				<path style="fill-rule:evenodd;clip-rule:evenodd;fill:#FD4755;" d="M292.774,186.356h-83.459l17.057-17.056
					c1.548-1.548,1.548-4.057,0-5.605c-1.548-1.548-4.057-1.548-5.604,0l-23.817,23.817c-0.094,0.094-0.183,0.192-0.268,0.295
					c-0.007,0.008-0.012,0.017-0.019,0.025c-0.075,0.092-0.146,0.188-0.212,0.287c-0.008,0.012-0.014,0.024-0.022,0.035
					c-0.063,0.097-0.123,0.195-0.178,0.298c-0.004,0.007-0.007,0.015-0.01,0.022c-0.056,0.107-0.109,0.216-0.155,0.329
					c-0.001,0.003-0.002,0.006-0.003,0.009c-0.048,0.116-0.09,0.234-0.127,0.355c-0.001,0.004-0.002,0.009-0.003,0.013
					c-0.035,0.118-0.066,0.238-0.091,0.361c-0.005,0.024-0.007,0.05-0.011,0.074c-0.018,0.102-0.036,0.205-0.046,0.31
					c-0.012,0.122-0.018,0.246-0.019,0.37c0,0.008-0.001,0.016-0.001,0.025v0v0c0,0.133,0.007,0.265,0.02,0.396
					c0.009,0.089,0.025,0.176,0.039,0.264c0.007,0.04,0.01,0.082,0.018,0.122c0.021,0.106,0.049,0.209,0.078,0.312
					c0.006,0.021,0.01,0.042,0.017,0.063c0.031,0.103,0.069,0.203,0.108,0.303c0.008,0.021,0.014,0.041,0.023,0.062
					c0.038,0.092,0.083,0.181,0.128,0.27c0.014,0.027,0.025,0.055,0.039,0.082c0.041,0.077,0.088,0.151,0.135,0.225
					c0.023,0.036,0.042,0.073,0.066,0.109c0.042,0.062,0.088,0.121,0.134,0.181c0.033,0.043,0.063,0.089,0.098,0.131
					c0.043,0.052,0.09,0.1,0.135,0.149c0.041,0.045,0.079,0.092,0.123,0.135l23.822,23.821c0.774,0.774,1.788,1.161,2.802,1.161
					c1.014,0,2.028-0.387,2.803-1.161c1.547-1.548,1.547-4.057,0-5.605l-17.057-17.056l83.458-0.001
					c2.189,0,3.963-1.774,3.963-3.963C296.737,188.13,294.963,186.356,292.774,186.356z"/>
			</g>
		</g>
	</g>
</g>
</svg>
