<?xml version="1.0" encoding="iso-8859-1"?>
<!-- Generator: Adobe Illustrator 25.2.0, SVG Export Plug-In . SVG Version: 6.00 Build 0)  -->
<svg version="1.1" xmlns="http://www.w3.org/2000/svg" xmlns:xlink="http://www.w3.org/1999/xlink" x="0px" y="0px"
	 viewBox="0 0 492 492" style="enable-background:new 0 0 492 492;" xml:space="preserve">
<g id="Master_Layer_2">
</g>
<g id="Layer_1">
	<g>
		<g>
			<path style="fill-rule:evenodd;clip-rule:evenodd;fill:#DE3E4B;" d="M153.917,63.289c0,113.998,0,317.652,0,317.652h-25.475
				c-13.839,0-25.056,11.218-25.056,25.059V114.356c0-21.588,13.906-40.719,34.441-47.378c4.655-1.511,9.419-2.648,14.24-3.414
				C152.683,63.47,153.298,63.376,153.917,63.289z"/>
			<path style="fill-rule:evenodd;clip-rule:evenodd;fill:#B8333E;" d="M379.615,402.162c-0.156,1.402-0.236,2.812-0.236,4.222
				c0,1.152,0.052,2.304,0.159,3.454c0.342,3.773,1.249,7.504,2.718,11.064c1.494,3.612,3.568,7.046,6.226,10.157h-260.04
				c-6.919,0-13.185-2.804-17.718-7.341c-4.534-4.534-7.338-10.799-7.338-17.718c0-13.841,11.218-25.059,25.056-25.059h260.694
				l-0.538,0.627c-2.522,2.928-4.526,6.144-6.013,9.531C381.024,394.643,380.036,398.38,379.615,402.162z"/>
			<path style="fill-rule:evenodd;clip-rule:evenodd;fill:#EFFAFF;" d="M379.538,409.838c0.342,3.773,1.249,7.504,2.718,11.064
				H128.441c-3.981,0-7.722-1.549-10.534-4.363c-2.817-2.817-4.365-6.558-4.365-10.539c0-8.218,6.684-14.901,14.899-14.901h254.144
				c-1.561,3.545-2.549,7.281-2.97,11.064c-0.032,0.292-0.062,0.587-0.087,0.879c-0.099,1.112-0.148,2.227-0.148,3.342
				c0,0.857,0.03,1.717,0.089,2.574C379.486,409.25,379.51,409.546,379.538,409.838z"/>
			<path style="fill-rule:evenodd;clip-rule:evenodd;fill:#FD4755;" d="M389.135,62.42v318.521l-235.219,0c0,0,0-203.653,0-317.652
				h0.002c4.217-0.577,8.473-0.869,12.744-0.869L389.135,62.42z"/>
			<path style="fill-rule:evenodd;clip-rule:evenodd;fill:#848791;" d="M379.379,406.384c0,0.857,0.03,1.717,0.089,2.574l-206.661,0
				c-1.633,0-2.958-1.326-2.958-2.958c0-0.815,0.332-1.556,0.867-2.091c0.535-0.535,1.276-0.867,2.091-0.867l206.721,0
				C379.429,404.155,379.379,405.269,379.379,406.384z"/>
			<g>
				<g>
					<path style="fill-rule:evenodd;clip-rule:evenodd;fill:#DE3E4B;" d="M222.203,180.244c0.632,0.74,1.298,1.461,1.998,2.16
						c15.738,15.737,34.512,35.239,50.931,49.273c16.419-14.034,35.193-33.536,50.931-49.273c14.47-14.47,14.698-38.393,0-53.091
						c-13.228-13.228-34.082-11.087-48.744-0.018c-1.295,0.978-3.078,0.978-4.374,0c-14.661-11.069-35.516-13.21-48.744,0.018
						C210.301,143.213,209.635,165.536,222.203,180.244z"/>
					<path style="fill-rule:evenodd;clip-rule:evenodd;fill:#FFE89C;" d="M217.403,175.444c0.632,0.74,1.298,1.461,1.998,2.16
						c15.738,15.737,34.511,35.239,50.931,49.273c16.419-14.034,35.193-33.536,50.931-49.273c14.47-14.47,14.698-38.393,0-53.091
						c-13.228-13.228-34.082-11.087-48.744-0.018c-1.295,0.978-3.078,0.978-4.374,0c-14.661-11.069-35.516-13.21-48.744,0.018
						C205.501,138.413,204.835,160.736,217.403,175.444z"/>
				</g>
				<g>
					<path style="fill-rule:evenodd;clip-rule:evenodd;fill:#DE3E4B;" d="M337.671,332.368H210.181
						c-1.946,0-3.524-1.578-3.524-3.524v-46.225c0-1.946,1.578-3.524,3.524-3.524l127.489,0c1.946,0,3.524,1.578,3.524,3.524v46.225
						C341.195,330.79,339.617,332.368,337.671,332.368z"/>
					<g>
						<path style="fill-rule:evenodd;clip-rule:evenodd;fill:#EFFAFF;" d="M332.87,327.568H205.381
							c-1.946,0-3.524-1.578-3.524-3.524v-46.225c0-1.946,1.578-3.524,3.524-3.524H332.87c1.946,0,3.524,1.578,3.524,3.524v46.225
							C336.395,325.99,334.817,327.568,332.87,327.568z"/>
						<g>
							<g>
								<path style="fill-rule:evenodd;clip-rule:evenodd;fill:#848791;" d="M301.736,293.507h-65.219
									c-1.277,0-2.311-1.035-2.311-2.311c0-1.276,1.034-2.311,2.311-2.311h65.219c1.277,0,2.311,1.035,2.311,2.311
									C304.046,292.472,303.012,293.507,301.736,293.507z"/>
							</g>
							<g>
								<path style="fill-rule:evenodd;clip-rule:evenodd;fill:#848791;" d="M301.736,312.977h-65.219
									c-1.277,0-2.311-1.035-2.311-2.311c0-1.276,1.034-2.311,2.311-2.311h65.219c1.277,0,2.311,1.035,2.311,2.311
									C304.046,311.942,303.012,312.977,301.736,312.977z"/>
							</g>
						</g>
					</g>
				</g>
			</g>
		</g>
	</g>
</g>
</svg>
