<?xml version="1.0" encoding="iso-8859-1"?>
<!-- Generator: Adobe Illustrator 25.2.0, SVG Export Plug-In . SVG Version: 6.00 Build 0)  -->
<svg version="1.1" xmlns="http://www.w3.org/2000/svg" xmlns:xlink="http://www.w3.org/1999/xlink" x="0px" y="0px"
	 viewBox="0 0 492 492" style="enable-background:new 0 0 492 492;" xml:space="preserve">
<g id="Master_Layer_2">
</g>
<g id="Layer_1">
	<g>
		<g>
			<path style="fill-rule:evenodd;clip-rule:evenodd;fill:#71D438;" d="M153.917,63.289c0,113.998,0,317.652,0,317.652h-25.475
				c-13.839,0-25.056,11.218-25.056,25.059V114.356c0-21.588,13.906-40.719,34.441-47.378c4.655-1.511,9.419-2.648,14.24-3.414
				C152.683,63.47,153.298,63.376,153.917,63.289z"/>
			<path style="fill-rule:evenodd;clip-rule:evenodd;fill:#65BD32;" d="M379.615,402.162c-0.156,1.402-0.236,2.812-0.236,4.222
				c0,1.152,0.052,2.304,0.159,3.454c0.342,3.773,1.249,7.504,2.718,11.064c1.494,3.612,3.568,7.046,6.226,10.157h-260.04
				c-6.919,0-13.185-2.804-17.718-7.341c-4.534-4.534-7.338-10.799-7.338-17.718c0-13.841,11.218-25.059,25.056-25.059h260.694
				l-0.538,0.627c-2.522,2.928-4.526,6.144-6.013,9.531C381.024,394.643,380.036,398.38,379.615,402.162z"/>
			<path style="fill-rule:evenodd;clip-rule:evenodd;fill:#EFFAFF;" d="M379.538,409.838c0.342,3.773,1.249,7.504,2.718,11.064
				H128.441c-3.981,0-7.722-1.549-10.534-4.363c-2.817-2.817-4.365-6.558-4.365-10.539c0-8.218,6.684-14.901,14.899-14.901h254.144
				c-1.561,3.545-2.549,7.281-2.97,11.064c-0.032,0.292-0.062,0.587-0.087,0.879c-0.099,1.112-0.148,2.227-0.148,3.342
				c0,0.857,0.03,1.717,0.089,2.574C379.486,409.25,379.51,409.546,379.538,409.838z"/>
			<path style="fill-rule:evenodd;clip-rule:evenodd;fill:#8CED55;" d="M389.135,62.42v318.521l-235.219,0c0,0,0-203.653,0-317.652
				h0.002c4.217-0.577,8.473-0.869,12.744-0.869L389.135,62.42z"/>
			<path style="fill-rule:evenodd;clip-rule:evenodd;fill:#848791;" d="M379.379,406.384c0,0.857,0.03,1.717,0.089,2.574l-206.661,0
				c-1.633,0-2.958-1.326-2.958-2.958c0-0.815,0.332-1.556,0.867-2.091c0.535-0.535,1.276-0.867,2.091-0.867l206.721,0
				C379.429,404.155,379.379,405.269,379.379,406.384z"/>
			<g>
				<path style="fill-rule:evenodd;clip-rule:evenodd;fill:#65BD32;" d="M347.421,359.568H201.138c-2.233,0-4.044-1.811-4.044-4.044
					v-48.24c0-2.233,1.811-4.044,4.044-4.044h146.283c2.233,0,4.044,1.81,4.044,4.044v48.24
					C351.465,357.758,349.655,359.568,347.421,359.568z"/>
				<g>
					<path style="fill-rule:evenodd;clip-rule:evenodd;fill:#EFFAFF;" d="M341.914,354.061H195.631c-2.233,0-4.044-1.81-4.044-4.044
						v-48.239c0-2.233,1.811-4.044,4.044-4.044l146.283,0c2.233,0,4.044,1.81,4.044,4.044v48.239
						C345.958,352.25,344.147,354.061,341.914,354.061z"/>
					<g>
						<g>
							<path style="fill-rule:evenodd;clip-rule:evenodd;fill:#848791;" d="M306.189,319.779h-74.833
								c-1.464,0-2.652-1.187-2.652-2.651c0-1.464,1.187-2.651,2.652-2.651h74.833c1.464,0,2.651,1.187,2.651,2.651
								C308.84,318.591,307.653,319.779,306.189,319.779z"/>
						</g>
						<g>
							<path style="fill-rule:evenodd;clip-rule:evenodd;fill:#848791;" d="M306.189,337.319h-74.833
								c-1.464,0-2.652-1.187-2.652-2.652c0-1.464,1.187-2.651,2.652-2.651h74.833c1.464,0,2.651,1.187,2.651,2.651
								C308.84,336.131,307.653,337.319,306.189,337.319z"/>
						</g>
					</g>
				</g>
			</g>
			<polygon style="fill-rule:evenodd;clip-rule:evenodd;fill:#71D438;" points="350.452,62.42 350.452,102.174 335.907,87.627 
				320.849,102.685 320.849,62.42 			"/>
			<path style="fill-rule:evenodd;clip-rule:evenodd;fill:#65BD32;" d="M346.423,282.479H200.722c-2.394,0-4.335-1.941-4.335-4.335
				v-143.36c0-2.394,1.941-4.335,4.335-4.335l145.701,0c2.394,0,4.335,1.941,4.335,4.335v143.36
				C350.758,280.538,348.817,282.479,346.423,282.479z"/>
			<path style="fill-rule:evenodd;clip-rule:evenodd;fill:#EFFAFF;" d="M341.623,277.679H195.922c-2.394,0-4.335-1.941-4.335-4.335
				l0-143.36c0-2.394,1.941-4.335,4.335-4.335h145.701c2.394,0,4.335,1.941,4.335,4.335v143.36
				C345.958,275.738,344.017,277.679,341.623,277.679z"/>
			<g>
				<path style="fill-rule:evenodd;clip-rule:evenodd;fill:#8CED55;" d="M268.308,177.899l1.007-2.627
					c3.236-8.442,11.039-14.269,20.052-14.975l2.804-0.22l-1.007,2.627c-3.236,8.442-11.039,14.269-20.052,14.975L268.308,177.899z"
					/>
				<path style="fill-rule:evenodd;clip-rule:evenodd;fill:#8CED55;" d="M268.246,154.817l0.428-1.894
					c1.374-6.086,6.127-10.839,12.214-12.214l1.894-0.428l-0.428,1.894c-1.374,6.086-6.127,10.839-12.214,12.214L268.246,154.817z"
					/>
				<path style="fill-rule:evenodd;clip-rule:evenodd;fill:#8CED55;" d="M264.716,165.506l-2.52-0.569
					c-8.099-1.829-14.424-8.154-16.253-16.253l-0.569-2.52l2.52,0.569c8.099,1.829,14.424,8.154,16.253,16.253L264.716,165.506z"/>
				<g>
					<path style="fill-rule:evenodd;clip-rule:evenodd;fill:#848791;" d="M266.481,188.644c-0.975,0-1.765-0.79-1.765-1.765v-42.747
						c0-0.975,0.79-1.765,1.765-1.765c0.975,0,1.765,0.79,1.765,1.765v42.747C268.246,187.854,267.456,188.644,266.481,188.644z"/>
				</g>
				<path style="fill-rule:evenodd;clip-rule:evenodd;fill:#DEE9ED;" d="M280.24,197.126v52.16c0,7.599-6.16,13.759-13.759,13.759
					l0,0c-7.599,0-13.759-6.16-13.759-13.759v-52.16H280.24z"/>
				<path style="fill-rule:evenodd;clip-rule:evenodd;fill:#C0C9CC;" d="M279.696,185.467h-26.431c-3.999,0-7.241,3.242-7.241,7.241
					l0,0c0,3.999,3.242,7.241,7.241,7.241l26.431,0c3.999,0,7.241-3.242,7.241-7.241l0,0
					C286.938,188.709,283.696,185.467,279.696,185.467z"/>
			</g>
		</g>
	</g>
</g>
</svg>
