<?xml version="1.0" encoding="UTF-8"?>
<!DOCTYPE svg PUBLIC "-//W3C//DTD SVG 1.1//EN" "http://www.w3.org/Graphics/SVG/1.1/DTD/svg11.dtd">
<!-- Creator: CorelDRAW -->
<svg xmlns="http://www.w3.org/2000/svg" xml:space="preserve" width="6.82666in" height="6.82666in" style="shape-rendering:geometricPrecision; text-rendering:geometricPrecision; image-rendering:optimizeQuality; fill-rule:evenodd; clip-rule:evenodd"
viewBox="0 0 6.82666 6.82666"
 xmlns:xlink="http://www.w3.org/1999/xlink">
 <defs>
  <style type="text/css">
   <![CDATA[
    .fil0 {fill:none}
    .fil1 {fill:#202020;fill-rule:nonzero}
    .fil5 {fill:#414141;fill-rule:nonzero}
    .fil3 {fill:#5A5A5A;fill-rule:nonzero}
    .fil2 {fill:#616161;fill-rule:nonzero}
    .fil4 {fill:#6C6C6C;fill-rule:nonzero}
    .fil6 {fill:#B2B2B2;fill-rule:nonzero}
    .fil7 {fill:#B6B6B6;fill-rule:nonzero}
   ]]>
  </style>
 </defs>
 <g id="Layer_x0020_1">
  <metadata id="CorelCorpID_0Corel-Layer"/>
  <rect class="fil0" width="6.82666" height="6.82666"/>
  <polygon class="fil1" points="3.60573,2.66246 3.5337,3.20812 2.6372,3.20812 2.6372,3.38546 3.70123,3.38546 3.79668,2.66246 "/>
  <polygon class="fil2" points="5.60613,2.3041 1.33423,2.3041 1.52177,1.68804 5.60613,1.68804 "/>
  <polygon class="fil1" points="5.60613,2.30406 5.97333,2.30406 5.97333,1.80402 5.60613,1.80402 "/>
  <polygon class="fil1" points="4.90025,1.70907 5.4732,1.70907 5.4732,1.53962 4.90025,1.53962 "/>
  <polygon class="fil1" points="4.46128,2.52696 4.31422,2.52696 4.46128,1.95215 4.60836,1.95215 "/>
  <polygon class="fil1" points="4.60836,2.52696 4.75543,1.95215 4.90246,1.95215 4.75543,2.52696 "/>
  <polygon class="fil1" points="4.90246,2.52696 5.04956,1.95215 5.19663,1.95215 5.04956,2.52696 "/>
  <polygon class="fil3" points="1.68972,2.02619 2.39961,2.02619 2.39961,1.87811 1.68972,1.87811 "/>
  <polygon class="fil3" points="2.56984,4.90054 1.21013,4.90054 1.51944,2.52696 2.87915,2.52696 "/>
  <polygon class="fil4" points="2.44811,4.73919 1.40354,4.73919 1.64117,2.9157 2.68579,2.9157 "/>
  <path class="fil3" d="M1.15794 2.74981c0,0 0.422929,0 0.422929,0.463791l0.636626 -0.359492 -0.172835 -0.404413 -0.88672 0.0772598 0 0.222854z"/>
  <path class="fil3" d="M2.2175 3.71374c0,-0.0954094 -0.0774134,-0.172791 -0.172835,-0.172791 -0.0954252,0 -0.172795,0.0773819 -0.172795,0.172791 0,0.0954685 0.0773701,0.172807 0.172795,0.172807 0.0954213,0 0.172835,-0.0773386 0.172835,-0.172807z"/>
  <path class="fil3" d="M2.14928 4.35946c0,-0.0953898 -0.0774173,-0.172728 -0.172839,-0.172728 -0.0954252,0 -0.172795,0.0773386 -0.172795,0.172728 0,0.0954528 0.0773701,0.172791 0.172795,0.172791 0.0954213,0 0.172839,-0.0773386 0.172839,-0.172791z"/>
  <polygon class="fil4" points="2.65059,5.09607 1.09306,5.09607 1.21013,4.90054 2.56984,4.90054 "/>
  <polygon class="fil3" points="1.09306,5.28704 2.6506,5.28704 2.6506,5.09607 1.09306,5.09607 "/>
  <path class="fil5" d="M0.853331 2.3041l0 0.445709 2.09288 0c0.0445827,0.113307 0.154358,0.193748 0.283539,0.193748l0 -0.108843c-0.0511811,-0.0165 -0.0960039,-0.0464528 -0.131547,-0.0849055l0.556114 0 -0.0720591 0.545661 -0.896465 0 0 0.177303 1.06401 0 0.0954961 -0.722965 1.76083 0 0 -0.445709 -4.7528 0z"/>
  <path class="fil6" d="M1.28122 4.90054l1.28862 0 0.186071 -1.42777 0.714264 0 -0.714264 0 -0.186071 1.42777m0.376366 -2.15073l-0.0960827 0 -0.0597165 0.458311 0 0 0 0 0.0597165 -0.458311m0.0960827 0c0.0445827,0.113307 0.154358,0.193748 0.283539,0.193748l0 -0.108843 0 0 0 0.108843c-0.129181,0 -0.238957,-0.0804409 -0.283539,-0.193748z"/>
  <path class="fil7" d="M1.47234 2.88877c-0.123087,-0.136209 -0.307563,-0.138882 -0.314205,-0.138957 0.00664173,7.48031e-005 0.191197,0.00251969 0.314205,0.138685l-4.33071e-005 0.000271654 4.33071e-005 0z"/>
  <path class="fil5" d="M3.47018 2.3041l-2.13595 0 0.0937953 -0.308067 0 0 0.093748 -0.307992 1.94841 0 0 0.616059zm-1.78046 -0.425996l0 0.148079 0.709886 0 0 -0.148079 -0.709886 0z"/>
  <polygon class="fil1" points="1.68972,2.02619 2.39961,2.02619 2.39961,1.87811 1.68972,1.87811 "/>
  <path class="fil5" d="M2.56984 4.90054l-1.35971 0 0.262209 -2.01178 0 -0.000271654c0.062126,0.0686811 0.108535,0.171441 0.108535,0.325106l0.0231654 -0.0130787 -0.200504 1.53867 1.04457 0 0.237681 -1.82349 -0.577374 0 0.109083 -0.0615866 -0.0445906 -0.104299 0.677217 0 -0.0597165 0.458311 -0.0114055 0.0873504 -0.0932126 0 0 0.177303 0.070122 0 -0.186071 1.42777z"/>
  <path class="fil1" d="M2.44811 4.73919l-1.04457 0 0.200504 -1.53867 0.504378 -0.284827 0.577374 0 -0.237681 1.82349zm-0.471665 -0.552457c-0.0954252,0 -0.172795,0.0773386 -0.172795,0.172728 0,0.0954528 0.0773701,0.172791 0.172795,0.172791 0.0954213,0 0.172839,-0.0773386 0.172839,-0.172791 0,-0.0953898 -0.0774173,-0.172728 -0.172839,-0.172728zm0.0682205 -0.64578c-0.0954252,0 -0.172795,0.0773819 -0.172795,0.172791 0,0.0954685 0.0773701,0.172807 0.172795,0.172807 0.0954213,0 0.172835,-0.0773386 0.172835,-0.172807 0,-0.0954094 -0.0774134,-0.172791 -0.172835,-0.172791z"/>
  <path class="fil5" d="M1.58087 3.2136c0,-0.153665 -0.0464094,-0.256425 -0.108535,-0.325106 -0.123008,-0.136165 -0.307563,-0.13861 -0.314205,-0.138685 -0.000110236,0 -0.000188976,0 -0.000188976,0l1.01496 0 0.0445906 0.104299 -0.109083 0.0615866 -0.504378 0.284827 -0.0231654 0.0130787z"/>
  <path class="fil2" d="M2.04467 3.88655c-0.0954252,0 -0.172795,-0.0773386 -0.172795,-0.172807 0,-0.0954094 0.0773701,-0.172791 0.172795,-0.172791 0.0954213,0 0.172835,0.0773819 0.172835,0.172791 0,0.0954685 -0.0774134,0.172807 -0.172835,0.172807z"/>
  <path class="fil2" d="M1.97644 4.53225c-0.0954252,0 -0.172795,-0.0773386 -0.172795,-0.172791 0,-0.0953898 0.0773701,-0.172728 0.172795,-0.172728 0.0954213,0 0.172839,0.0773386 0.172839,0.172728 0,0.0954528 -0.0774173,0.172791 -0.172839,0.172791z"/>
  <polygon class="fil2" points="2.65059,5.09607 1.09306,5.09607 1.21013,4.90054 2.56984,4.90054 "/>
  <polygon class="fil5" points="1.09306,5.28704 2.6506,5.28704 2.6506,5.09607 1.09306,5.09607 "/>
  <path class="fil2" d="M3.47018 3.47278l-0.714264 0 0.0217677 -0.177303 0.692496 0 0 0.177303zm-0.240429 -0.529217c-0.129181,0 -0.238957,-0.0804409 -0.283539,-0.193748l-2.09288 0 0 -0.445709 2.61685 0 0 0.445709 -0.371976 0 0 0c0.0355433,0.0384528 0.0803661,0.0684055 0.131547,0.0849055l0 0.108843z"/>
 </g>
</svg>
