<?xml version="1.0" encoding="UTF-8"?>
<!DOCTYPE svg PUBLIC "-//W3C//DTD SVG 1.1//EN" "http://www.w3.org/Graphics/SVG/1.1/DTD/svg11.dtd">
<!-- Creator: CorelDRAW -->
<svg xmlns="http://www.w3.org/2000/svg" xml:space="preserve" width="6.82666in" height="6.82666in" style="shape-rendering:geometricPrecision; text-rendering:geometricPrecision; image-rendering:optimizeQuality; fill-rule:evenodd; clip-rule:evenodd"
viewBox="0 0 6.82666 6.82666"
 xmlns:xlink="http://www.w3.org/1999/xlink">
 <defs>
  <style type="text/css">
   <![CDATA[
    .fil5 {fill:none}
    .fil3 {fill:#474747}
    .fil4 {fill:#545454;fill-rule:nonzero}
    .fil0 {fill:#757575;fill-rule:nonzero}
    .fil1 {fill:#AEAEAF;fill-rule:nonzero}
    .fil2 {fill:#B8B8B8;fill-rule:nonzero}
   ]]>
  </style>
 </defs>
 <g id="Layer_x0020_1">
  <metadata id="CorelCorpID_0Corel-Layer"/>
  <polygon class="fil0" points="1.17333,3.09462 2.44993,3.09462 2.5566,3.09462 2.5566,3.21087 2.5566,5.53578 2.5566,5.65203 2.44993,5.65203 1.17333,5.65203 1.06666,5.65203 1.06666,5.53578 1.06666,3.21087 1.06666,3.09462 "/>
  <polygon class="fil0" points="4.37673,3.09462 5.65333,3.09462 5.76,3.09462 5.76,3.21087 5.76,5.53578 5.76,5.65203 5.65333,5.65203 4.37673,5.65203 4.27006,5.65203 4.27006,5.53578 4.27006,3.21087 4.27006,3.09462 "/>
  <path class="fil1" d="M1.24872 2.89646c0.00177559,-0.207453 0.0620512,-0.523732 0.157823,-0.683276 0.100441,-0.167315 0.24226,-0.28039 0.405091,-0.28039 0.162827,0 0.30465,0.113075 0.405091,0.28039 0.0957717,0.159543 0.156047,0.475823 0.157823,0.683276 -0.375996,0 -0.751043,0 -1.12583,0z"/>
  <path class="fil2" d="M1.81163 0.975169c0.132531,0 0.252539,0.0537362 0.339402,0.140598 0.0868622,0.0868622 0.140598,0.206866 0.140598,0.339402 0,0.132531 -0.0537362,0.252539 -0.140598,0.339402 -0.0868622,0.0868622 -0.20687,0.140598 -0.339402,0.140598 -0.132535,0 -0.252539,-0.0537362 -0.339402,-0.140598 -0.0868622,-0.0868622 -0.140598,-0.20687 -0.140598,-0.339402 0,-0.132535 0.0537362,-0.252539 0.140598,-0.339402 0.0868622,-0.0868622 0.206866,-0.140598 0.339402,-0.140598z"/>
  <path class="fil1" d="M2.85042 2.89646c0.00177559,-0.207453 0.0620512,-0.523732 0.157823,-0.683276 0.100441,-0.167315 0.24226,-0.28039 0.405091,-0.28039 0.162827,0 0.30465,0.113075 0.405091,0.28039 0.0957717,0.159543 0.156047,0.475823 0.157823,0.683276 -0.375996,0 -0.751043,0 -1.12583,0z"/>
  <path class="fil2" d="M3.41333 0.975169c0.132531,0 0.252539,0.0537362 0.339402,0.140598 0.0868622,0.0868622 0.140598,0.206866 0.140598,0.339402 0,0.132531 -0.0537362,0.252539 -0.140598,0.339402 -0.0868622,0.0868622 -0.20687,0.140598 -0.339402,0.140598 -0.132535,0 -0.252539,-0.0537362 -0.339402,-0.140598 -0.0868622,-0.0868622 -0.140598,-0.20687 -0.140598,-0.339402 0,-0.132535 0.0537362,-0.252539 0.140598,-0.339402 0.0868622,-0.0868622 0.206866,-0.140598 0.339402,-0.140598z"/>
  <path class="fil1" d="M4.45211 2.89646c0.00177559,-0.207453 0.0620512,-0.523732 0.157823,-0.683276 0.100441,-0.167315 0.24226,-0.28039 0.405091,-0.28039 0.162827,0 0.30465,0.113075 0.405091,0.28039 0.0957717,0.159543 0.156047,0.475823 0.157823,0.683276 -0.375996,0 -0.751043,0 -1.12583,0z"/>
  <path class="fil2" d="M5.01503 0.975169c0.132531,0 0.252539,0.0537362 0.339402,0.140598 0.0868622,0.0868622 0.140598,0.206866 0.140598,0.339402 0,0.132531 -0.0537362,0.252539 -0.140598,0.339402 -0.0868622,0.0868622 -0.20687,0.140598 -0.339402,0.140598 -0.132535,0 -0.252539,-0.0537362 -0.339402,-0.140598 -0.0868622,-0.0868622 -0.140598,-0.20687 -0.140598,-0.339402 0,-0.132535 0.0537362,-0.252539 0.140598,-0.339402 0.0868622,-0.0868622 0.206866,-0.140598 0.339402,-0.140598z"/>
  <rect class="fil3" x="1.92" y="2.98666" width="2.98666" height="2.77333"/>
  <polygon class="fil4" points="0.853331,5.65208 5.97333,5.65208 5.97333,5.86542 0.853331,5.86542 "/>
  <polygon class="fil4" points="0.853331,2.88128 5.97333,2.88128 5.97333,3.09462 0.853331,3.09462 "/>
  <rect class="fil5" width="6.82666" height="6.82666"/>
  <polygon class="fil0" points="2.77333,3.09462 4.04993,3.09462 4.1566,3.09462 4.1566,3.21087 4.1566,5.53578 4.1566,5.65203 4.04993,5.65203 2.77333,5.65203 2.66666,5.65203 2.66666,5.53578 2.66666,3.21087 2.66666,3.09462 "/>
 </g>
</svg>
