<?xml version="1.0" encoding="UTF-8"?>
<!DOCTYPE svg PUBLIC "-//W3C//DTD SVG 1.1//EN" "http://www.w3.org/Graphics/SVG/1.1/DTD/svg11.dtd">
<!-- Creator: CorelDRAW -->
<svg xmlns="http://www.w3.org/2000/svg" xml:space="preserve" width="6.82666in" height="6.82666in" style="shape-rendering:geometricPrecision; text-rendering:geometricPrecision; image-rendering:optimizeQuality; fill-rule:evenodd; clip-rule:evenodd"
viewBox="0 0 6.82666 6.82666"
 xmlns:xlink="http://www.w3.org/1999/xlink">
 <defs>
  <style type="text/css">
   <![CDATA[
    .fil0 {fill:none}
    .fil1 {fill:#545454;fill-rule:nonzero}
    .fil2 {fill:#616161;fill-rule:nonzero}
    .fil3 {fill:#717171;fill-rule:nonzero}
   ]]>
  </style>
 </defs>
 <g id="Layer_x0020_1">
  <metadata id="CorelCorpID_0Corel-Layer"/>
  <rect class="fil0" width="6.82666" height="6.82666"/>
  <g id="_489371688">
   <polygon id="_489373176" class="fil1" points="5.89444,5.97333 4.57517,4.87981 4.49713,4.81417 4.56041,4.73463 5.0691,4.09515 5.13609,4.01093 5.21838,4.07998 5.90714,4.65787 "/>
   <g>
    <polygon id="_489373392" class="fil1" points="4.16271,3.77581 4.94607,4.44727 4.80992,4.60639 4.02656,3.93494 "/>
    <polygon id="_489373152" class="fil1" points="4.19552,3.743 4.97888,4.41446 4.84273,4.57358 4.05937,3.90213 "/>
    <path id="_489373344" class="fil2" d="M3.43888 4.04654c0.00440945,-0.0594803 0.00764567,-0.115717 0.0102638,-0.167173 0.0137165,-0.269472 0.0174134,-0.579559 -0.00822047,-0.886697 -0.0251969,-0.301819 -0.078815,-0.598689 -0.179516,-0.846189 -0.038622,-0.0949331 -0.0917953,-0.199799 -0.161661,-0.284315 -0.063378,-0.0766614 -0.140555,-0.136315 -0.232343,-0.152634 -0.0885669,-0.015748 -0.183409,0.00635827 -0.274764,0.0479252 -0.130677,0.0594606 -0.252177,0.156969 -0.342803,0.245992 -0.149469,0.146819 -0.277579,0.323323 -0.384866,0.513106 -0.122961,0.217508 -0.218921,0.452646 -0.288661,0.681177 -0.0253031,0.0829016 -0.0487126,0.172181 -0.0689606,0.265331 -0.0574882,-0.0926299 -0.104705,-0.190937 -0.140965,-0.293323 0.00323622,-0.0109961 0.00649606,-0.0219016 0.00979528,-0.0327047 0.0737953,-0.241815 0.175713,-0.491287 0.306705,-0.723004 0.116906,-0.206799 0.256728,-0.399354 0.420134,-0.559862 0.105307,-0.103445 0.247535,-0.217228 0.402681,-0.287823 0.126713,-0.0576535 0.262827,-0.0875039 0.397799,-0.0635079 0.14811,0.0263307 0.265587,0.114063 0.357831,0.22563 0.0857441,0.103728 0.149205,0.228008 0.194472,0.339272 0.109606,0.269386 0.167516,0.587079 0.19428,0.907701 0.026315,0.315311 0.0224213,0.635583 0.00822441,0.914591 -0.000566929,0.0111535 -0.00116929,0.0225276 -0.00179528,0.0340945 -0.0692874,0.0468583 -0.142059,0.0877717 -0.21763,0.122413z"/>
    <path id="_489372408" class="fil2" d="M1.49979 4.37831c0.0445906,0.156094 0.111394,0.294358 0.204524,0.408642 0.0862992,0.105917 0.196087,0.192429 0.332811,0.254803 0.113575,0.0518071 0.239205,0.0835276 0.36787,0.0974606 0.138035,0.0149488 0.279272,0.00916535 0.412795,-0.014437 0.263417,-0.0465669 0.415799,-0.276764 0.505929,-0.550622 0.0258583,-0.0785709 0.0466654,-0.160677 0.0635079,-0.243425 0.0780276,-0.0240354 0.154386,-0.0529803 0.228669,-0.086626 -0.0211969,0.132563 -0.0507874,0.267831 -0.0928622,0.395669 -0.112059,0.340504 -0.310988,0.628378 -0.669154,0.691697 -0.151472,0.0267756 -0.312591,0.0332441 -0.471035,0.0160787 -0.149709,-0.0162165 -0.297343,-0.0537795 -0.432661,-0.115508 -0.167319,-0.0763268 -0.30202,-0.182634 -0.408276,-0.313035 -0.112276,-0.137787 -0.19185,-0.30113 -0.243894,-0.483283 -0.0591417,-0.207016 -0.0735827,-0.445157 -0.0589646,-0.684378 0.00252362,-0.0412638 0.00592126,-0.0825984 0.0101063,-0.123839 0.0571929,0.0773031 0.120429,0.150799 0.189433,0.219807 0.00187402,0.00187008 0.00377165,0.0037126 0.00564961,0.00557874 -0.00511024,0.186276 0.0104173,0.367461 0.0555512,0.525417z"/>
    <path id="_489372552" class="fil2" d="M3.11144 4.15355c0.0123386,-0.111205 0.0192126,-0.21276 0.0231535,-0.290189 0.0123898,-0.243488 0.0168031,-0.532469 -0.00531496,-0.818693 -0.0216772,-0.280567 -0.0689449,-0.556654 -0.159606,-0.779492 -0.0180197,-0.0442913 -0.0583465,-0.131846 -0.106713,-0.19513 -0.0211693,-0.0276969 -0.0402323,-0.0485551 -0.0507008,-0.0504173 -0.0269094,-0.00478346 -0.0706535,0.0123268 -0.117961,0.0382323 -0.0886299,0.0485315 -0.177618,0.124957 -0.223756,0.170276 -0.129386,0.127102 -0.241299,0.283264 -0.33574,0.451795 -0.110161,0.196594 -0.19574,0.408185 -0.257252,0.60974 -0.0438031,0.143528 -0.0828504,0.315142 -0.106327,0.492228 -0.0154567,-0.0142362 -0.0306693,-0.0287992 -0.0456024,-0.0437323 -0.0486299,-0.0486299 -0.0935945,-0.100094 -0.134752,-0.154 0.0238071,-0.12724 0.0539409,-0.24835 0.0865512,-0.355197 0.0660394,-0.216402 0.157413,-0.442661 0.274472,-0.651563 0.103185,-0.184146 0.226945,-0.356228 0.371835,-0.498551 0.0546811,-0.0537205 0.161343,-0.144949 0.2705,-0.204724 0.085,-0.0465472 0.174543,-0.0753465 0.254126,-0.0611969 0.0703583,0.0125118 0.131114,0.0645591 0.18111,0.12998 0.0628858,0.0822874 0.11272,0.189736 0.134602,0.24352 0.0996811,0.245004 0.151189,0.542614 0.17437,0.842646 0.022752,0.294366 0.0181378,0.592929 0.00531496,0.844945 -0.00308268,0.0605709 -0.0078937,0.135315 -0.0155669,0.218031 -0.0704449,0.0257756 -0.142866,0.0463465 -0.216744,0.0614921z"/>
    <path id="_489372792" class="fil2" d="M1.80263 4.29178c0.0617402,0.216098 0.180307,0.362843 0.333894,0.447874 0.17148,0.0949291 0.390335,0.116705 0.626441,0.0749685 0.0196732,-0.00347638 0.0374803,-0.00832677 0.0535709,-0.0152559 0.0149449,-0.00643307 0.0289016,-0.0148661 0.042122,-0.0259409 0.0826378,-0.0692283 0.14215,-0.209217 0.185004,-0.37013 0.0761339,-0.009 0.15135,-0.0224409 0.225319,-0.040185 -0.0527244,0.234815 -0.137917,0.455559 -0.275807,0.571075 -0.0297362,0.0249094 -0.0607795,0.0437165 -0.0937992,0.0579331 -0.0318819,0.0137283 -0.0650591,0.0229646 -0.100319,0.0291969 -0.281315,0.0497323 -0.547618,0.0207126 -0.763421,-0.0987559 -0.202087,-0.111878 -0.356685,-0.300047 -0.434776,-0.573366 -0.0346969,-0.121441 -0.0504646,-0.258106 -0.0522402,-0.399992 0.0696693,0.059752 0.143047,0.114193 0.219587,0.163067 0.00720866,0.0632953 0.0184567,0.123622 0.0344252,0.179512z"/>
    <path id="_489372144" class="fil2" d="M2.13727 4.24666c0.0116614,0.0267638 0.0249843,0.0513622 0.0405512,0.0733858 0.029248,0.0413701 0.0678701,0.0752126 0.12074,0.0993307 0.0544409,0.0248307 0.118256,0.0393307 0.184157,0.0454882 0.173941,0.0162559 0.195303,0.0126102 0.229961,-0.0998858 0.0335079,0.00173228 0.0671535,0.00261024 0.100913,0.00261024 0.0392283,0 0.0783071,-0.00118898 0.117197,-0.00351181 -0.0113583,0.036937 -0.0318268,0.0968228 -0.0554173,0.149795 -0.0831535,0.186713 -0.221244,0.17711 -0.41152,0.159331 -0.0881535,-0.00824016 -0.175295,-0.0284449 -0.252232,-0.0635394 -0.0897126,-0.0409252 -0.155374,-0.0985276 -0.20522,-0.169043 -0.0472441,-0.0668307 -0.078752,-0.143382 -0.102709,-0.227224 -0.00748031,-0.0262008 -0.0138189,-0.0534843 -0.0191181,-0.0816693 0.0814409,0.0443425 0.16587,0.0827598 0.252697,0.114933z"/>
    <path id="_489372216" class="fil2" d="M2.79204 4.18464c0.0140748,-0.11202 0.0223701,-0.226701 0.028,-0.337291 0.0103189,-0.202791 0.0147244,-0.42087 0.00448819,-0.637181 -0.0101496,-0.214406 -0.0346339,-0.42711 -0.0819646,-0.621236 -0.00801969,-0.032878 -0.0230472,-0.0870433 -0.0421969,-0.143406 -0.0394606,0.0380669 -0.0740551,0.0759528 -0.0947953,0.10076 -0.0923307,0.110429 -0.172071,0.236146 -0.239783,0.368425 -0.0772717,0.150957 -0.139374,0.310827 -0.187,0.466894 -0.0481457,0.157756 -0.0933465,0.370051 -0.109689,0.578169 -0.000925197,0.0118031 -0.00175591,0.0235787 -0.00248819,0.035315 -0.0693976,-0.038378 -0.135976,-0.0822992 -0.199114,-0.131508 0.0216378,-0.196205 0.0651063,-0.391772 0.111161,-0.542673 0.0510079,-0.167146 0.117717,-0.33876 0.200941,-0.501343 0.0751417,-0.146799 0.16337,-0.285984 0.265217,-0.407795 0.025622,-0.0306496 0.0697638,-0.0787795 0.119768,-0.126185 0.156354,-0.14824 0.261055,-0.117492 0.330476,0.0831811 0.0234724,0.0678346 0.0416024,0.132744 0.0509173,0.170953 0.0508268,0.208449 0.0769961,0.434303 0.0877087,0.660606 0.010622,0.224394 0.00612205,0.449217 -0.00448819,0.657689 -0.00514173,0.101075 -0.012622,0.206713 -0.0249055,0.313551 -0.0660591,0.00869685 -0.133047,0.0131457 -0.200606,0.0131457 -0.00388583,0 -0.00776378,-4.33071e-005 -0.0116457,-7.08661e-005z"/>
    <path id="_489372312" class="fil2" d="M2.47739 4.14963c0.0157795,-0.126098 0.0244764,-0.246965 0.0281024,-0.318287 0.00730709,-0.143677 0.0115197,-0.292193 0.00947244,-0.439571 -0.000106299,-0.00783858 -0.00023622,-0.015685 -0.000377953,-0.0235315 -0.0124843,0.0355394 -0.0239921,0.070689 -0.0345591,0.105299 -0.0382283,0.12528 -0.0791417,0.311839 -0.0956811,0.490783 -0.00509055,0.0551102 -0.00785433,0.109146 -0.00744094,0.159803 -0.0711181,-0.0206772 -0.140535,-0.0465039 -0.207764,-0.0772835 0.00138189,-0.0333976 0.00372047,-0.067311 0.00687008,-0.101382 0.0179291,-0.194028 0.0623583,-0.396531 0.10389,-0.532618 0.0286969,-0.0940394 0.0615984,-0.186961 0.0987559,-0.275559 0.341661,-0.814756 0.34026,-0.123031 0.345469,0.252024 0.00214961,0.155016 -0.00207874,0.307346 -0.00947638,0.452701 -0.00385827,0.0758543 -0.0131339,0.20472 -0.0299488,0.338083 -0.0700984,-0.00543701 -0.139343,-0.0156417 -0.207311,-0.0304606z"/>
    <path id="_489372072" class="fil2" d="M3.76623 3.84255c0.0505709,-1.12193 -0.128965,-1.81785 -0.417524,-2.17364 -0.132051,-0.162803 -0.2865,-0.250972 -0.450378,-0.273524 -0.166917,-0.0229724 -0.34739,0.0206102 -0.527551,0.121571 -0.412571,0.231209 -0.814236,0.753622 -1.05685,1.46835 -0.0229961,-0.105839 -0.0348465,-0.21476 -0.0348465,-0.325205 0,-0.0565866 0.00311811,-0.112776 0.00923622,-0.168354 0.26035,-0.548638 0.61522,-0.953303 0.979937,-1.1577 0.219642,-0.123087 0.444555,-0.175547 0.657957,-0.146177 0.216453,0.0297874 0.417299,0.142354 0.584898,0.348988 0.297449,0.36674 0.490831,1.04083 0.471512,2.09011 -0.031622,0.0384843 -0.0652559,0.0755984 -0.100858,0.111201 -0.0369331,0.0369331 -0.0755079,0.0717402 -0.115531,0.104382z"/>
    <path id="_489372096" class="fil2" d="M1.19695 4.46483c0.113622,0.397689 0.334343,0.652398 0.594972,0.804126 0.339303,0.19752 0.748551,0.224685 1.0807,0.165965 0.334193,-0.0590787 0.546465,-0.282209 0.680705,-0.586051 0.0857913,-0.194165 0.140705,-0.420965 0.175346,-0.660315 0.0792874,-0.0423346 0.15578,-0.0903071 0.228929,-0.143626 -0.0339409,0.319469 -0.0974606,0.628406 -0.212346,0.888421 -0.161528,0.365606 -0.42165,0.634921 -0.836543,0.708264 -0.372819,0.0659094 -0.83461,0.0339961 -1.22178,-0.191394 -0.304449,-0.177236 -0.56137,-0.471638 -0.691752,-0.927976 -0.0645551,-0.225941 -0.0864843,-0.494626 -0.0707953,-0.778236 0.010185,-0.184118 0.0363583,-0.375106 0.0771063,-0.565114 0.0426378,0.10937 0.0951929,0.214799 0.157173,0.31502 -0.0119449,0.0881457 -0.0203661,0.175638 -0.025122,0.261583 -0.0144134,0.260594 0.00520866,0.505618 0.0634094,0.709335z"/>
    <path id="_489372000" class="fil3" d="M2.77088 0.853331c0.507965,0 0.967866,0.205913 1.30076,0.538811 0.332902,0.332898 0.538811,0.792799 0.538811,1.30076 0,0.507969 -0.205913,0.96787 -0.538811,1.30077 -0.332898,0.332898 -0.792799,0.538807 -1.30076,0.538807 -0.507969,0 -0.96787,-0.205906 -1.30077,-0.538807 -0.332898,-0.332898 -0.538807,-0.792799 -0.538807,-1.30077 0,-0.507969 0.205906,-0.967866 0.538807,-1.30076 0.332898,-0.332902 0.792795,-0.538811 1.30077,-0.538811zm1.1523 0.687272c-0.294886,-0.29489 -0.702295,-0.477291 -1.1523,-0.477291 -0.450016,0 -0.857417,0.182398 -1.15231,0.477291 -0.294894,0.29489 -0.477291,0.702291 -0.477291,1.1523 0,0.450012 0.182402,0.857417 0.477291,1.15231 0.29489,0.294894 0.702295,0.477291 1.15231,0.477291 0.450008,0 0.857417,-0.182402 1.1523,-0.477291 0.29489,-0.29489 0.477291,-0.702295 0.477291,-1.15231 0,-0.450008 -0.182398,-0.857413 -0.477291,-1.1523z"/>
   </g>
  </g>
 </g>
</svg>
