<?xml version="1.0" encoding="UTF-8"?>
<!DOCTYPE svg PUBLIC "-//W3C//DTD SVG 1.1//EN" "http://www.w3.org/Graphics/SVG/1.1/DTD/svg11.dtd">
<!-- Creator: CorelDRAW -->
<svg xmlns="http://www.w3.org/2000/svg" xml:space="preserve" width="6.82666in" height="6.82666in" style="shape-rendering:geometricPrecision; text-rendering:geometricPrecision; image-rendering:optimizeQuality; fill-rule:evenodd; clip-rule:evenodd"
viewBox="0 0 6.82666 6.82666"
 xmlns:xlink="http://www.w3.org/1999/xlink">
 <defs>
  <style type="text/css">
   <![CDATA[
    .fil0 {fill:none}
    .fil2 {fill:#2A2A2A}
    .fil5 {fill:#323232}
    .fil11 {fill:#444444}
    .fil10 {fill:#6A6A6A}
    .fil1 {fill:#A5A5A6}
    .fil13 {fill:#C7C7C7}
    .fil3 {fill:gainsboro}
    .fil6 {fill:white}
    .fil7 {fill:#2A2A2A;fill-rule:nonzero}
    .fil8 {fill:#323232;fill-rule:nonzero}
    .fil12 {fill:#565656;fill-rule:nonzero}
    .fil4 {fill:#9E9E9E;fill-rule:nonzero}
    .fil9 {fill:#A5A5A6;fill-rule:nonzero}
   ]]>
  </style>
 </defs>
 <g id="Layer_x0020_1">
  <metadata id="CorelCorpID_0Corel-Layer"/>
  <rect class="fil0" width="6.82666" height="6.82666"/>
  <g id="_489378792">
   <path id="_489381624" class="fil1" d="M4.0701 3.53214c-0.186906,0.0948071 -0.398598,0.217154 -0.611142,0.217154 -0.250697,0 -0.485646,-0.117378 -0.698917,-0.246976l0.170949 1.05113 0.0222441 0.0514724 0.472713 0.362134 0.427669 -0.212067 0.0222559 -0.0523346 0.194228 -1.17052z"/>
   <path id="_489380688" class="fil2" d="M3.42867 1.16875c0.556768,0 1.00807,0.518819 1.00807,1.1588 0,0.640028 -0.451307,1.15884 -1.00807,1.15884 -0.556724,0 -1.00805,-0.518815 -1.00805,-1.15884 0,-0.639984 0.451327,-1.1588 1.00805,-1.1588z"/>
   <path id="_489381336" class="fil3" d="M3.46246 1.65336c0.444689,0 0.794,0.290563 0.73828,0.986945 -0.0158543,0.198236 0.144142,0.0935315 0.144142,0.165157 0,0.591374 -0.410173,1.07078 -0.916213,1.07078 -0.505965,0 -0.916189,-0.479402 -0.916189,-1.07078 0.108,0.189323 0.124528,-0.0508228 0.119665,-0.161563 -0.0399331,-0.906579 0.364146,-0.990539 0.830315,-0.990539z"/>
   <g>
    <path id="_489381240" class="fil4" d="M3.60272 2.96182l-0.0475984 -0.0581732 0.00127165 -0.00143701 0.0013189 -0.00134252 0.00135827 -0.00125197 0.00139764 -0.00115748 0.00143701 -0.00105906 0.00146457 -0.000972441 0.00149606 -0.000874016 0.00152362 -0.000779528 0.00154331 -0.000688976 0.00156693 -0.000594488 0.00158661 -0.0005 0.00159843 -0.000405512 0.00161024 -0.000314961 0.00161811 -0.000220472 0.00162205 -0.000125984 0.00162992 -3.14961e-005 0.00162598 5.90551e-005 0.00162205 0.000153543 0.00161417 0.000248031 0.0016063 0.00034252 0.00159449 0.000433071 0.00157874 0.000527559 0.00155906 0.000622047 0.00153543 0.000712598 0.00151575 0.000807087 0.00148425 0.000901575 0.00145276 0.000992126 0.00142126 0.00108661 0.00138583 0.0011811 0.00134252 0.00127165 0.00130315 0.00136614 0.00125591 0.00146063 0.00119291 0.00153543 0.00111417 0.00158661 0.00103937 0.0016378 0.00096063 0.00168504 0.000877953 0.00172835 0.000807087 0.00176378 0.000724409 0.00180315 0.000649606 0.00183465 0.000570866 0.0018622 0.000492126 0.00188976 0.000413386 0.00190945 0.000338583 0.0019252 0.000259843 0.00194094 0.000185039 0.00194882 0.000102362 0.00195669 2.75591e-005 0.00196063 -5.11811e-005 0.00195669 -0.000125984 0.00195669 -0.000204724 0.00194488 -0.000283465 0.00193701 -0.000362205 0.00192126 -0.000437008 0.00190157 -0.000515748 0.00187795 -0.000594488 0.00185039 -0.000669291 0.00182677 -0.000748031 0.0017874 -0.000822835 0.00175197 -0.000901575 0.0017126 -0.000980315 0.00166929 -0.00105512 0.00161811 -0.00113386 0.00157087 -0.0012126 0.00151181zm-0.348055 0l0.0475984 -0.0581732 0.00665354 0.00751181 0.00687795 0.00701181 0.00710236 0.00651969 0.00731496 0.00604724 0.00749606 0.00555118 0.00767717 0.0050748 0.00785039 0.00459449 0.00799606 0.00411417 0.00813386 0.00363386 0.00824803 0.00314961 0.00835039 0.00266535 0.00844488 0.00218504 0.00851181 0.00170079 0.00855906 0.00121654 0.00859843 0.000728346 0.00861417 0.000244094 0.00861417 -0.000244094 0.00859843 -0.000728346 0.00855906 -0.00121654 0.00851181 -0.00170079 0.00844488 -0.00218504 0.00835039 -0.00266535 0.00824803 -0.00314961 0.00813386 -0.00363386 0.00799606 -0.00411417 0.00785039 -0.00459449 0.00767717 -0.0050748 0.00749606 -0.00555118 0.00731496 -0.00604724 0.00710236 -0.00651969 0.00687795 -0.00701181 0.00665354 -0.00751181 0.0475984 0.0581732 -0.00915748 0.0103386 -0.00950787 0.00968898 -0.0098189 0.00902362 -0.0101102 0.00835433 -0.010378 0.00769291 -0.010622 0.00701181 -0.0108346 0.00635039 -0.0110354 0.00567323 -0.0111969 0.00500394 -0.0113504 0.00433858 -0.0114843 0.00366535 -0.0115787 0.00299606 -0.0116614 0.00233071 -0.0117323 0.00166535 -0.0117717 0.000996063 -0.0117874 0.000330709 -0.0117874 -0.000330709 -0.0117717 -0.000996063 -0.0117323 -0.00166535 -0.0116614 -0.00233071 -0.0115787 -0.00299606 -0.0114843 -0.00366535 -0.0113504 -0.00433858 -0.0111969 -0.00500394 -0.0110354 -0.00567323 -0.0108346 -0.00635039 -0.010622 -0.00701181 -0.010378 -0.00769291 -0.0101102 -0.00835433 -0.0098189 -0.00902362 -0.00950787 -0.00968898 -0.00915748 -0.0103386zm0.0475984 -0.0581732l-0.0475984 0.0581732 -0.0012126 -0.00151181 -0.00113386 -0.00157087 -0.00105512 -0.00161811 -0.000980315 -0.00166929 -0.000901575 -0.0017126 -0.000822835 -0.00175197 -0.000748031 -0.0017874 -0.000669291 -0.00182677 -0.000594488 -0.00185039 -0.000515748 -0.00187795 -0.000437008 -0.00190157 -0.000362205 -0.00192126 -0.000283465 -0.00193701 -0.000204724 -0.00194488 -0.000125984 -0.00195669 -5.11811e-005 -0.00195669 2.75591e-005 -0.00196063 0.000102362 -0.00195669 0.000185039 -0.00194882 0.000259843 -0.00194094 0.000338583 -0.0019252 0.000413386 -0.00190945 0.000492126 -0.00188976 0.000570866 -0.0018622 0.000649606 -0.00183465 0.000724409 -0.00180315 0.000807087 -0.00176378 0.000877953 -0.00172835 0.00096063 -0.00168504 0.00103937 -0.0016378 0.00111417 -0.00158661 0.00119291 -0.00153543 0.00125591 -0.00146063 0.00130315 -0.00136614 0.00134252 -0.00127165 0.00138583 -0.0011811 0.00142126 -0.00108661 0.00145276 -0.000992126 0.00148425 -0.000901575 0.00151575 -0.000807087 0.00153543 -0.000712598 0.00155906 -0.000622047 0.00157874 -0.000527559 0.00159449 -0.000433071 0.0016063 -0.00034252 0.00161417 -0.000248031 0.00162205 -0.000153543 0.00162598 -5.90551e-005 0.00162992 3.14961e-005 0.00162205 0.000125984 0.00161811 0.000220472 0.00161024 0.000314961 0.00159843 0.000405512 0.00158661 0.0005 0.00156693 0.000594488 0.00154331 0.000688976 0.00152362 0.000779528 0.00149606 0.000874016 0.00146457 0.000972441 0.00143701 0.00105906 0.00139764 0.00115748 0.00135827 0.00125197 0.0013189 0.00134252 0.00127165 0.00143701z"/>
   </g>
   <path class="fil5" d="M3.11833 2.36954c0.0435354,0 0.0788465,0.0715591 0.0788465,0.159843 0,0.0882795 -0.035311,0.159839 -0.0788465,0.159839 -0.0435551,0 -0.0788701,-0.0715591 -0.0788701,-0.159839 0,-0.0882835 0.035315,-0.159843 0.0788701,-0.159843z"/>
   <path class="fil6" d="M3.12984 2.39365c0.0256181,0 0.0464094,0.0250354 0.0464094,0.0559291 0,0.0308858 -0.0207913,0.0559055 -0.0464094,0.0559055 -0.025622,0 -0.0464213,-0.0250197 -0.0464213,-0.0559055 0,-0.0308937 0.0207992,-0.0559291 0.0464213,-0.0559291z"/>
   <path class="fil5" d="M3.73905 2.36954c0.0435551,0 0.0788701,0.0715591 0.0788701,0.159843 0,0.0882795 -0.035315,0.159839 -0.0788701,0.159839 -0.0435551,0 -0.0788622,-0.0715591 -0.0788622,-0.159839 0,-0.0882835 0.0353071,-0.159843 0.0788622,-0.159843z"/>
   <path class="fil6" d="M3.75057 2.39365c0.0256142,0 0.0464134,0.0250354 0.0464134,0.0559291 0,0.0308858 -0.0207992,0.0559055 -0.0464134,0.0559055 -0.0256535,0 -0.0464173,-0.0250197 -0.0464173,-0.0559055 0,-0.0308937 0.0207638,-0.0559291 0.0464173,-0.0559291z"/>
   <g>
    <path class="fil7" d="M2.91868 2.2977l0.0644331 0.0254173 -0.000586614 0.00198031 -0.00065748 0.00192126 -0.000732283 0.0018622 -0.00080315 0.00179921 -0.000870079 0.00173622 -0.000937008 0.00166929 -0.000996063 0.0016063 -0.00105512 0.0015315 -0.00111417 0.00146457 -0.00116535 0.0013937 -0.00121654 0.0013189 -0.00126772 0.00124409 -0.00131102 0.00116929 -0.00135433 0.00108661 -0.00139764 0.00101181 -0.00143307 0.000925197 -0.0014685 0.000846457 -0.0015 0.000755906 -0.0015315 0.000673228 -0.00155512 0.000582677 -0.00158268 0.000496063 -0.00160236 0.000401575 -0.00162205 0.000311024 -0.0016378 0.000212598 -0.00165354 0.00011811 -0.00166142 1.9685e-005 -0.00167323 -7.87402e-005 -0.00167323 -0.000181102 -0.0016811 -0.000283465 -0.0016811 -0.000389764 -0.00167323 -0.000496063 -0.00167323 -0.000602362 -0.00164567 -0.000704724 -0.00159449 -0.000795276 -0.00154331 -0.00088189 -0.00149606 -0.000968504 -0.00144094 -0.00104724 -0.00138583 -0.00112598 -0.00133071 -0.00120079 -0.00127165 -0.00127165 -0.00121654 -0.00134252 -0.00115748 -0.00140157 -0.00109449 -0.0014685 -0.0010315 -0.00152362 -0.000968504 -0.00158268 -0.000905512 -0.00163386 -0.000838583 -0.0016811 -0.000767717 -0.00172441 -0.000700787 -0.00177165 -0.000629921 -0.00180709 -0.000559055 -0.00184252 -0.000484252 -0.00187795 -0.000409449 -0.00190551 -0.000334646 -0.00192913 -0.000255906 -0.00195669 -0.000177165 -0.00197244 -9.84252e-005 -0.00199213 -1.5748e-005 -0.002 6.69291e-005 -0.00201575 0.000149606 -0.00201969 0.00023622 -0.00202362 0.000322835 -0.00201969 0.000413386 -0.00202362 0.0005 -0.00201181zm0.263661 -0.18526l-0.0141969 0.079874 -0.00659449 -0.00147244 -0.00669291 -0.00105906 -0.00679528 -0.000637795 -0.00688976 -0.000228346 -0.00696063 0.000185039 -0.00701575 0.000594488 -0.00704331 0.001 -0.00708268 0.00140551 -0.00708661 0.00179921 -0.00707087 0.00219291 -0.00704331 0.0025748 -0.00699213 0.00295276 -0.00692126 0.00332283 -0.00683071 0.0036811 -0.00672441 0.00403543 -0.00659843 0.00436614 -0.00644488 0.00470079 -0.00629528 0.00502362 -0.00610236 0.0053189 -0.00590551 0.00561417 -0.00569291 0.0058937 -0.00545276 0.00615354 -0.0052126 0.00641339 -0.00495276 0.00665748 -0.00467323 0.00687402 -0.00437795 0.00708268 -0.00408268 0.00729134 -0.00377165 0.00747638 -0.00343701 0.00764961 -0.00311024 0.00782283 -0.00276772 0.00798031 -0.00240945 0.0081378 -0.0644331 -0.0254173 0.00361417 -0.0121929 0.00411417 -0.0118858 0.00459055 -0.0115551 0.00504331 -0.0112087 0.00547244 -0.0108622 0.00587008 -0.0104882 0.00625984 -0.010122 0.00661811 -0.00974016 0.00696063 -0.00935039 0.00727559 -0.00895669 0.00758661 -0.00856299 0.00786614 -0.00814567 0.00813386 -0.00773228 0.00838583 -0.00731102 0.00861024 -0.00686614 0.00883071 -0.00644094 0.00903937 -0.00598819 0.0092126 -0.0055315 0.00939764 -0.00505906 0.00954331 -0.00458268 0.00969291 -0.00409449 0.00981496 -0.00359055 0.00992913 -0.0030748 0.0100236 -0.00254724 0.0101142 -0.00200394 0.010185 -0.00144094 0.0102283 -0.000862205 0.0102598 -0.000271654 0.0102756 0.000338583 0.0102756 0.000968504 0.0102441 0.00161811 0.0101929 0.00228346zm-0.0141969 0.079874l0.0141969 -0.079874 0.00169685 0.000492126 0.00165354 0.000590551 0.00161417 0.000681102 0.00157087 0.000771654 0.00152362 0.000858268 0.00147638 0.000944882 0.00142913 0.00102756 0.00137795 0.00110236 0.00132677 0.00117717 0.00127165 0.00125197 0.00121654 0.0013189 0.00116142 0.00138583 0.00110236 0.00144882 0.00103937 0.00151181 0.000980315 0.00156299 0.000913386 0.00162205 0.000854331 0.00166929 0.000783465 0.00171654 0.000716535 0.00176378 0.000645669 0.00180315 0.000574803 0.00184646 0.0005 0.00187795 0.000425197 0.00190945 0.000350394 0.00194094 0.000271654 0.00196457 0.000188976 0.00199213 0.000110236 0.00201181 2.75591e-005 0.00202756 -5.90551e-005 0.00203937 -0.000141732 0.00205512 -0.000232283 0.00205906 -0.000322835 0.00206693 -0.000409449 0.00204331 -0.000488189 0.00199606 -0.000562992 0.00194488 -0.000641732 0.00188976 -0.000712598 0.00183858 -0.000783465 0.00177953 -0.000854331 0.00172047 -0.000913386 0.00166142 -0.000980315 0.00159449 -0.00103543 0.00153543 -0.00109843 0.00146457 -0.00114961 0.00139764 -0.00120079 0.00132677 -0.00125197 0.00125591 -0.00129921 0.0011811 -0.00134646 0.00110236 -0.00138583 0.00102756 -0.0014252 0.000944882 -0.00146457 0.000862205 -0.00149606 0.000775591 -0.0015315 0.000692913 -0.00155906 0.000602362 -0.00158268 0.000515748 -0.00161024 0.00042126 -0.00163386 0.000326772 -0.00165354 0.000228346 -0.00166535 0.000133858 -0.00168504 3.14961e-005 -0.00169291 -7.08661e-005 -0.00170472 -0.000173228 -0.00170866 -0.000279528 -0.00171654 -0.000389764z"/>
   </g>
   <g>
    <path class="fil7" d="M3.87424 2.32309l0.0644409 -0.025378 0.0005 0.00201575 0.000409449 0.00201969 0.000322835 0.00202362 0.00023622 0.00202362 0.000149606 0.00201969 6.29921e-005 0.00201181 -1.5748e-005 0.00200394 -9.84252e-005 0.00199213 -0.000181102 0.00197244 -0.000255906 0.00195276 -0.000334646 0.00193307 -0.000409449 0.00190551 -0.000488189 0.00187402 -0.000559055 0.00184252 -0.000629921 0.00181102 -0.000700787 0.00176772 -0.000771654 0.00172441 -0.000838583 0.0016811 -0.000901575 0.00163386 -0.000972441 0.00157874 -0.0010315 0.00152362 -0.00109449 0.0014685 -0.00115748 0.00140157 -0.00121654 0.00134252 -0.00127559 0.00126772 -0.00133071 0.00120079 -0.00138583 0.00112598 -0.00144094 0.00104724 -0.00149606 0.000968504 -0.00154331 0.00088189 -0.00159449 0.000791339 -0.00164567 0.000704724 -0.00167323 0.000602362 -0.00167323 0.000496063 -0.0016811 0.000385827 -0.00167717 0.000283465 -0.00167717 0.000181102 -0.00167323 7.87402e-005 -0.00166142 -1.9685e-005 -0.00164961 -0.00011811 -0.00164173 -0.000216535 -0.00162205 -0.000311024 -0.00160236 -0.000401575 -0.00157874 -0.000496063 -0.00155906 -0.000586614 -0.00152756 -0.000673228 -0.0015 -0.000759843 -0.0014685 -0.00084252 -0.00143307 -0.000929134 -0.0013937 -0.00101181 -0.00135827 -0.00108661 -0.00131102 -0.00116929 -0.00126378 -0.00124409 -0.00121654 -0.00132283 -0.00116535 -0.0013937 -0.00111417 -0.00146457 -0.00105512 -0.00153543 -0.000996063 -0.0016063 -0.000933071 -0.00166929 -0.000870079 -0.00173622 -0.000799213 -0.00179921 -0.000732283 -0.0018622 -0.000661417 -0.0019252 -0.000582677 -0.00198031zm-0.185028 -0.130783l-0.0141969 -0.079874 0.0101929 -0.00228346 0.010248 -0.00161811 0.0102756 -0.000968504 0.0102756 -0.000338583 0.0102598 0.000271654 0.0102283 0.000862205 0.010185 0.00144094 0.0101181 0.00200394 0.0100236 0.00254724 0.00993307 0.0030748 0.0098189 0.00359055 0.00968898 0.00409449 0.00954724 0.00457874 0.00939764 0.00506299 0.00922047 0.0055315 0.00903543 0.00598819 0.00883071 0.00643701 0.00861417 0.00687008 0.00838583 0.00731102 0.00813386 0.00773228 0.00786614 0.00814567 0.00758268 0.00855906 0.00728346 0.00896063 0.00696457 0.00935827 0.00661024 0.00973622 0.00625591 0.0101181 0.00587402 0.0104961 0.00547244 0.0108661 0.00503543 0.0112126 0.00458661 0.0115512 0.00411417 0.0118898 0.0036063 0.0121969 -0.0644409 0.025378 -0.00240945 -0.00813386 -0.00275984 -0.00797638 -0.0031063 -0.00782677 -0.00343701 -0.00764567 -0.00376378 -0.00747244 -0.00407874 -0.00728346 -0.00438189 -0.00708661 -0.00467323 -0.00687795 -0.00494094 -0.00664961 -0.0052126 -0.00640945 -0.00545669 -0.00615748 -0.00569291 -0.0058937 -0.00590551 -0.00561417 -0.00610236 -0.0053189 -0.00629134 -0.00501969 -0.00645276 -0.00470472 -0.00659449 -0.00436614 -0.00672441 -0.00403543 -0.00683071 -0.00367717 -0.0069252 -0.00332677 -0.00699606 -0.00295276 -0.00703937 -0.0025748 -0.0070748 -0.00219291 -0.00709449 -0.00179921 -0.00707874 -0.00140551 -0.00705118 -0.001 -0.00701575 -0.000594488 -0.00696063 -0.000185039 -0.00688976 0.000228346 -0.00679528 0.000637795 -0.00669685 0.00105906 -0.00659449 0.00147244zm-0.0141969 -0.079874l0.0141969 0.079874 -0.00171654 0.000389764 -0.00170866 0.000279528 -0.00170472 0.000173228 -0.00169291 7.08661e-005 -0.00168504 -3.14961e-005 -0.00166535 -0.000133858 -0.00165354 -0.000228346 -0.00163386 -0.000326772 -0.00161024 -0.00042126 -0.00158268 -0.000515748 -0.00155906 -0.000602362 -0.0015315 -0.000692913 -0.00149606 -0.000775591 -0.00146457 -0.000862205 -0.0014252 -0.000944882 -0.00138583 -0.00102756 -0.00134646 -0.00110236 -0.00129921 -0.0011811 -0.00125197 -0.00125591 -0.00120079 -0.00132677 -0.00114961 -0.00139764 -0.00109843 -0.00146457 -0.00103543 -0.00153543 -0.000980315 -0.00159449 -0.000913386 -0.00166142 -0.000854331 -0.00172047 -0.000783465 -0.00177953 -0.000712598 -0.00183858 -0.000641732 -0.00188976 -0.000562992 -0.00194488 -0.000488189 -0.00199606 -0.000409449 -0.00204331 -0.000322835 -0.00206693 -0.000232283 -0.00205906 -0.000141732 -0.00205512 -5.90551e-005 -0.00203937 2.75591e-005 -0.00202756 0.000110236 -0.00201181 0.000188976 -0.00199213 0.000271654 -0.00196457 0.000350394 -0.00194094 0.000425197 -0.00190945 0.0005 -0.00187795 0.000574803 -0.00184646 0.000645669 -0.00180315 0.000716535 -0.00176378 0.000783465 -0.00171654 0.000854331 -0.00166929 0.000913386 -0.00162205 0.000980315 -0.00156299 0.00103937 -0.00151181 0.00110236 -0.00144882 0.00116142 -0.00138583 0.00121654 -0.0013189 0.00127165 -0.00125197 0.00132677 -0.00117717 0.00137795 -0.00110236 0.00142913 -0.00102756 0.00147638 -0.000944882 0.00152362 -0.000858268 0.00157087 -0.000771654 0.00161417 -0.000681102 0.00165354 -0.000590551 0.00169685 -0.000492126z"/>
   </g>
   <path class="fil2" d="M3.73718 1.49367c0.354594,0.171354 0.642063,0.424665 0.642063,0.565791 0,0.141118 -0.287469,0.116614 -0.642063,-0.0547362 -0.354583,-0.171354 -0.642031,-0.424665 -0.642031,-0.565791 0,-0.141118 0.287449,-0.11663 0.642031,0.0547362z"/>
   <path class="fil3" d="M2.39313 2.44106c0.0506339,-0.0261654 0.13074,0.0771772 0.178866,0.230811 0.0481496,0.153654 0.0461181,0.299409 -0.00455512,0.325555 -0.0506535,0.0261654 -0.13072,-0.0771772 -0.178846,-0.230803 -0.048185,-0.153677 -0.0461181,-0.299417 0.00453543,-0.325563z"/>
   <path class="fil3" d="M4.45203 2.44106c-0.0657323,-0.0261654 -0.153177,0.0771772 -0.195287,0.230811 -0.0421102,0.153654 -0.0229016,0.299409 0.0428661,0.325555 0.065752,0.0261654 0.153177,-0.0771772 0.195272,-0.230803 0.0421024,-0.153677 0.0228976,-0.299417 -0.0428504,-0.325563z"/>
   <path class="fil2" d="M2.79767 1.58763c-0.197315,0.150457 -0.207252,0.409453 -0.207252,0.484264 0,0.0748425 0.159972,0.0135591 0.357287,-0.136906 0.197335,-0.150461 0.357315,-0.333083 0.357315,-0.407921 0,-0.0748386 -0.310016,-0.0898976 -0.50735,0.060563z"/>
   <path class="fil5" d="M3.42867 1.16875c0.556768,0 1.00807,0.518819 1.00807,1.1588 0,0.640028 -0.451307,1.15884 -1.00807,1.15884 -0.556724,0 -1.00805,-0.518815 -1.00805,-1.15884 0,-0.639984 0.451327,-1.1588 1.00805,-1.1588z"/>
   <path class="fil3" d="M4.20074 2.6403c-0.0158543,0.198236 0.144142,0.0935315 0.144142,0.165181 0,0.59135 -0.410209,1.07075 -0.916213,1.07075 -0.506,0 -0.916189,-0.479402 -0.916189,-1.07075 0.108,0.189283 0.124528,-0.0508465 0.119665,-0.161587 -0.023252,-0.527854 0.266035,-0.867075 0.275161,-0.991772 -0.0247047,0.10915 0.476476,0.43061 0.979362,0.435465 0.0997992,0.000964567 0.129161,-0.0402087 0.183827,0.0411142 0.0669016,0.0995118 0.133244,0.390921 0.130244,0.511598z"/>
   <path class="fil5" d="M3.11833 2.36954c0.0435354,0 0.0788465,0.0715591 0.0788465,0.159843 0,0.0882795 -0.035311,0.159839 -0.0788465,0.159839 -0.0435551,0 -0.0788701,-0.0715591 -0.0788701,-0.159839 0,-0.0882835 0.035315,-0.159843 0.0788701,-0.159843z"/>
   <path class="fil6" d="M3.12984 2.39365c0.0256181,0 0.0464094,0.0250354 0.0464094,0.0559291 0,0.0308858 -0.0207913,0.0559055 -0.0464094,0.0559055 -0.025622,0 -0.0464213,-0.0250197 -0.0464213,-0.0559055 0,-0.0308937 0.0207992,-0.0559291 0.0464213,-0.0559291z"/>
   <path class="fil5" d="M3.73905 2.36954c0.0435551,0 0.0788701,0.0715591 0.0788701,0.159843 0,0.0882795 -0.035315,0.159839 -0.0788701,0.159839 -0.0435551,0 -0.0788622,-0.0715591 -0.0788622,-0.159839 0,-0.0882835 0.0353071,-0.159843 0.0788622,-0.159843z"/>
   <path class="fil6" d="M3.75057 2.39365c0.0256142,0 0.0464134,0.0250354 0.0464134,0.0559291 0,0.0308858 -0.0207992,0.0559055 -0.0464134,0.0559055 -0.0256535,0 -0.0464173,-0.0250197 -0.0464173,-0.0559055 0,-0.0308937 0.0207638,-0.0559291 0.0464173,-0.0559291z"/>
   <path class="fil8" d="M2.99908 2.16026c-0.0375157,0.0289291 -0.0677913,-0.0153425 -0.0302756,-0.044185 0.0938543,-0.0721535 0.232819,-0.0450787 0.301268,0.0583071 0.0278425,0.0420157 -0.025122,0.092815 -0.0528583,0.0509055 -0.0471732,-0.0712205 -0.153177,-0.11485 -0.218134,-0.0650276z"/>
   <path class="fil8" d="M3.8583 2.22906c0.0375551,0.0289488 0.0677992,-0.0153189 0.0302441,-0.044189 -0.0938386,-0.0721535 -0.232803,-0.0450748 -0.301252,0.058311 -0.0278228,0.0420118 0.0251417,0.092815 0.0528622,0.0509291 0.0471378,-0.0712205 0.153177,-0.114874 0.218146,-0.0650512z"/>
   <path class="fil9" d="M3.53439 2.94482c0.0264488,-0.0219528 0.0659606,-0.00076378 0.0395157,0.0212283 -0.0801024,0.0666496 -0.209819,0.0666496 -0.289941,0 -0.0264803,-0.0219921 0.00922047,-0.0392441 0.0394961,-0.0212283 0.0601378,0.0357756 0.155386,0.034378 0.210929,0z"/>
   <path class="fil3" d="M4.4422 2.44106c-0.0657677,-0.0261654 -0.153177,0.0771772 -0.195287,0.230811 -0.0420906,0.153654 -0.0229173,0.299409 0.0428307,0.325555 0.0657677,0.0261654 0.153213,-0.0771772 0.195287,-0.230803 0.0421102,-0.153677 0.022937,-0.299417 -0.0428307,-0.325563z"/>
   <path class="fil3" d="M2.41517 2.44106c0.0657638,-0.0261654 0.153177,0.0771772 0.195287,0.230811 0.0421063,0.153654 0.0229291,0.299409 -0.0428346,0.325575 -0.065748,0.0261457 -0.153193,-0.0771969 -0.195268,-0.230823 -0.0421102,-0.153657 -0.0229331,-0.299417 0.042815,-0.325563z"/>
   <polygon class="fil10" points="2.52672,1.2722 4.40813,1.2722 4.40813,1.77254 2.52672,1.77254 "/>
   <path class="fil11" d="M3.46779 0.853331c0.304079,0 0.580075,0.0266417 0.78048,0.0697126 0.219744,0.0472283 0.355661,0.121098 0.355661,0.210413 0,0.0381772 -0.0217441,0.0730394 -0.0639094,0.10361 -0.0320157,0.0232165 -0.0774882,0.0450394 -0.1355,0.0647992l0 -0.000933071 -0.0543661 0.00843701c-0.286543,0.0444685 -0.57665,0.0685945 -0.870811,0.0695394 -0.294024,0.000940945 -0.592941,-0.0212953 -0.897346,-0.0695394l-0.0521102 -0.00825984c-0.000818898,-0.000181102 -0.00170472,-0.000370079 -0.00243701,-0.000543307 -0.0556102,-0.0192087 -0.0995236,-0.040378 -0.130886,-0.0629016 -0.0428268,-0.030748 -0.0649213,-0.065815 -0.0649213,-0.104209 0,-0.089315 0.135921,-0.163185 0.355665,-0.210413 0.200406,-0.0430709 0.476402,-0.0697126 0.78048,-0.0697126z"/>
   <path class="fil12" d="M4.40452 1.54219c0.0612047,0.029748 0.108799,0.0625591 0.14176,0.0973622 0.0380354,0.0401614 0.0576496,0.0833976 0.0576496,0.128453 0,0.120248 -0.157839,0.283697 -0.40698,0.402114 -0.196142,0.0932244 -0.450917,0.161921 -0.729161,0.161921 -0.278244,0 -0.533024,-0.0686969 -0.729161,-0.161921 -0.249146,-0.118417 -0.406984,-0.281866 -0.406984,-0.402114 0,-0.0454449 0.0199055,-0.0889843 0.0584803,-0.129327 0.0324567,-0.0339331 0.0785433,-0.0658661 0.137327,-0.0948189l0 0.0624449 0 0.0300866 0.0364843 0.00624803c0.302425,0.0517835 0.604028,0.0762244 0.904858,0.0755039 0.300646,-0.000724409 0.600248,-0.0266181 0.89889,-0.0755039l0.0368386 -0.0060315 0 -0.0303031 0 -0.0641142zm-1.89995 0.119839c-0.00104724,0.000704724 -0.00208661,0.00140945 -0.00311811,0.00211811 0.0010315,-0.000708661 0.00207087,-0.00141339 0.00311811,-0.00211811z"/>
   <path class="fil13" d="M3.31563 1.08726c0.0923543,-0.00524803 0.133642,-0.023563 0.151433,-0.0478858 0.0251457,0.0329409 0.0777677,0.0478819 0.153185,0.0478858 0.00193701,0.155965 -0.0556535,0.236776 -0.151012,0.269902 -0.0966378,-0.0294528 -0.159276,-0.096185 -0.153606,-0.269902z"/>
   <path class="fil9" d="M3.66065 3.31122c0.0602244,-0.035811 0.150189,-0.00124803 0.0899764,0.0346181 -0.18239,0.108709 -0.477736,0.108709 -0.660161,0 -0.0602913,-0.0358661 0.0209921,-0.0640079 0.0899291,-0.0346181 0.136925,0.0583504 0.353795,0.0560709 0.480256,0z"/>
   <path class="fil10" d="M5.25369 5.44445l0 0.427839 0 0.101039 -0.0904055 0 -2.85245 0 -0.647445 0 -0.0904016 0 0 -0.101039 0 -0.427839c0,-0.898579 0.447776,-1.4555 1.2313,-1.60639l0.609059 1.02387 0.609051 -1.02387c0.783516,0.150878 1.2313,0.707811 1.2313,1.60639z"/>
   <path class="fil11" d="M2.46413 4.76089c0.0873661,0 0.166465,0.0395866 0.223724,0.103587 0.0572598,0.0639921 0.0926772,0.152398 0.0926772,0.250039 0,0.0976378 -0.0354173,0.186047 -0.0926772,0.250047 -0.0572638,0.0639921 -0.136362,0.103579 -0.223724,0.103579 -0.0873583,0 -0.166461,-0.0395866 -0.22372,-0.103579 -0.0572638,-0.064 -0.0926811,-0.152409 -0.0926811,-0.250047 0,-0.0976378 0.0354173,-0.186043 0.0926811,-0.250039 0.0572598,-0.064 0.136362,-0.103587 0.22372,-0.103587z"/>
   <polygon class="fil11" points="3.86533,5.16504 4.67894,5.16504 4.67894,5.36711 3.86533,5.36711 "/>
  </g>
 </g>
</svg>
