<?xml version="1.0" encoding="UTF-8"?>
<!DOCTYPE svg PUBLIC "-//W3C//DTD SVG 1.1//EN" "http://www.w3.org/Graphics/SVG/1.1/DTD/svg11.dtd">
<!-- Creator: CorelDRAW -->
<svg xmlns="http://www.w3.org/2000/svg" xml:space="preserve" width="6.82666in" height="6.82666in" style="shape-rendering:geometricPrecision; text-rendering:geometricPrecision; image-rendering:optimizeQuality; fill-rule:evenodd; clip-rule:evenodd"
viewBox="0 0 6.82666 6.82666"
 xmlns:xlink="http://www.w3.org/1999/xlink">
 <defs>
  <style type="text/css">
   <![CDATA[
    .fil0 {fill:none}
    .fil3 {fill:#202020}
    .fil1 {fill:#212121}
    .fil11 {fill:#414141}
    .fil4 {fill:#616161}
    .fil9 {fill:#6A6A6A}
    .fil5 {fill:#BBBBBC}
    .fil6 {fill:#BEBEBE}
    .fil2 {fill:#EFEFEF}
    .fil14 {fill:url(#id0)}
    .fil10 {fill:url(#id1)}
    .fil12 {fill:url(#id2)}
    .fil13 {fill:url(#id3)}
    .fil7 {fill:url(#id4)}
    .fil8 {fill:url(#id5)}
   ]]>
  </style>
  <linearGradient id="id0" gradientUnits="userSpaceOnUse" x1="4.35191" y1="3.24577" x2="4.48137" y2="3.24577">
   <stop offset="0" style="stop-color:#212121"/>
   <stop offset="1" style="stop-color:#3C3C3C"/>
  </linearGradient>
  <linearGradient id="id1" gradientUnits="userSpaceOnUse" x1="0.921492" y1="3.38799" x2="1.26383" y2="3.38799">
   <stop offset="0" style="stop-color:#888888"/>
   <stop offset="1" style="stop-color:#5F5F5F"/>
  </linearGradient>
  <linearGradient id="id2" gradientUnits="userSpaceOnUse" x1="1.61751" y1="4.02652" x2="2.30677" y2="4.02652">
   <stop offset="0" style="stop-color:#DEDEDE"/>
   <stop offset="0.521569" style="stop-color:white"/>
   <stop offset="1" style="stop-color:#DEDEDE"/>
  </linearGradient>
  <linearGradient id="id3" gradientUnits="userSpaceOnUse" xlink:href="#id2" x1="4.79888" y1="4.02652" x2="5.48813" y2="4.02652">
  </linearGradient>
  <linearGradient id="id4" gradientUnits="userSpaceOnUse" xlink:href="#id0" x1="3.21161" y1="2.61707" x2="3.21023" y2="2.56664">
  </linearGradient>
  <radialGradient id="id5" gradientUnits="userSpaceOnUse" cx="2.83775" cy="2.46333" r="0" fx="2.83775" fy="2.46333">
   <stop offset="0" style="stop-color:#D5D5D6"/>
   <stop offset="1" style="stop-color:#747474"/>
  </radialGradient>
 </defs>
 <g id="Layer_x0020_1">
  <metadata id="CorelCorpID_0Corel-Layer"/>
  <rect class="fil0" width="6.82666" height="6.82666"/>
  <g id="_489385032">
   <path id="_489387192" class="fil1" d="M4.58708 4.03473c-0.00184646,0.00569685 0.0648386,0.0463346 0.0648386,0.0463346 0,0 0.886764,-0.0460748 0.999984,-0.0746969 0.113268,-0.0286378 0.214079,-0.162323 0.214079,-0.162323 0,0 -0.265839,-0.430642 -0.664382,-0.401563 -0.398531,0.0290354 -0.611276,0.232602 -0.61452,0.592248z"/>
   <path id="_489386928" class="fil1" d="M1.39419 3.94629c-0.00272047,0.00535827 0.0612323,0.080248 0.0612323,0.080248 0,0 0.884244,0.0654528 1.00049,0.0545276 0.116331,-0.0109449 0.231299,-0.12726 0.231299,-0.12726 0,0 -0.196764,-0.466252 -0.595028,-0.49863 -0.398264,-0.0323307 -0.639697,0.136299 -0.697996,0.491114z"/>
   <path id="_489387336" class="fil2" d="M4.65192 4.08107l-2.196 0c0.00190945,-0.0178465 0.00295276,-0.0360748 0.00295276,-0.0544449 0,-0.276992 -0.224646,-0.501728 -0.501681,-0.501661 -0.262917,0 -0.478594,0.202346 -0.499988,0.459677 -0.183642,-0.0911732 -0.430205,-0.221181 -0.448346,-0.270469 -0.0291299,-0.0790394 0.0457992,-0.539 0.0770079,-0.547307 0.0312441,-0.00838189 0.803433,-0.126988 0.803433,-0.126988 0,0 0.527571,-0.417319 0.683697,-0.422539 0.15611,-0.00515748 1.12081,0 1.12081,0 0,0 0.0727992,-0.0207795 0.243476,0.0978268 0.170677,0.118669 0.605689,0.422539 0.605689,0.422539 0,0 1.16136,0.118669 1.25502,0.301787 0.0936772,0.183232 0.118638,0.380882 0.118638,0.380882 0,0 -0.099622,0.044126 -0.276,0.0980433 -0.0494843,-0.224953 -0.250083,-0.39352 -0.489949,-0.393453 -0.277008,0 -0.501713,0.224669 -0.501713,0.501661 0,0.0183701 0.00100394,0.0365984 0.00294882,0.0544449z"/>
   <path id="_489387168" class="fil3" d="M4.65024 4.08107l-2.19602 0c0.00194488,-0.0178465 0.00298031,-0.0360748 0.00298031,-0.0544449 0,-0.276992 -0.224724,-0.501728 -0.501728,-0.501661 -0.262917,0 -0.47861,0.202346 -0.499933,0.459677 -0.183677,-0.0911732 -0.43022,-0.221181 -0.448354,-0.270469 -0.0291654,-0.0790394 0.0457913,-0.539 0.077,-0.547307 0.0277283,-0.00737795 0.639331,-0.101717 0.776291,-0.122772 0.000200787,0.000279528 0.0520236,0.0854213 0.116417,0.127055 0.0645079,0.0415748 0.197697,0.0728189 0.197697,0.0728189l-0.0915472 0.229913c0,0 0.235154,0.0687913 0.330941,0.204028 0.0957165,0.135232 0.114453,0.330941 0.114453,0.330941l2.04386 0c0,0 0.0207795,-0.355957 -0.00420079,-0.520354 -0.0249331,-0.164398 -0.051311,-0.245602 -0.051311,-0.245602l0.0245 -0.105189c0,0 1.16133,0.118669 1.25499,0.301787 0.0936496,0.183232 0.118661,0.380882 0.118661,0.380882 0,0 -0.0996772,0.044126 -0.275988,0.0980433 -0.0495157,-0.224953 -0.250083,-0.39352 -0.48998,-0.393453 -0.277043,0 -0.501717,0.224669 -0.501717,0.501661 0,0.0183701 0.00103937,0.0365984 0.00298425,0.0544449z"/>
   <path id="_489386976" class="fil4" d="M1.06159 3.22506c0.00912205,-0.0343386 0.0177008,-0.0564528 0.0242717,-0.0582008 0.0277598,-0.00737795 0.639366,-0.101717 0.776283,-0.122772 0.000228346,0.000279528 0.0520669,0.0854213 0.116461,0.127055 0.0644961,0.0415748 0.197701,0.0728189 0.197701,0.0728189l-0.0790906 0.19852c-0.50839,-0.0727913 -0.852988,-0.16326 -0.852988,-0.16326l-0.182638 -0.0541614zm3.50858 0.265921l-0.000358268 -0.00249213c-0.0249803,-0.164398 -0.0513622,-0.245602 -0.0513622,-0.245602l0.0245197 -0.105189c0,0 1.16136,0.118669 1.25502,0.301787 0.0101693,0.0199055 0.0195079,0.0399567 0.0281614,0.0598661 -0.0942047,0.00569685 -0.182126,0.00541732 -0.241878,-0.00677165 -0.13128,-0.0269606 -0.469976,-0.0205157 -1.01411,-0.00159843z"/>
   <path id="_489387288" class="fil5" d="M5.78781 3.42459c0.00411811,0.00489764 0.00764567,0.00985827 0.0101811,0.0148976 0.0342756,0.0670315 0.0593386,0.136024 0.0773819,0.196516 -0.146571,0.0186339 -0.283618,-0.0059685 -0.283618,-0.0059685 0,0 -0.0520354,-0.0811339 -0.039563,-0.114449 0.0125079,-0.0333386 0.126965,-0.0395669 0.187339,-0.0666535 0.0167874,-0.00751575 0.033185,-0.0159528 0.0482795,-0.0243425z"/>
   <path id="_489385992" class="fil6" d="M1.6383 3.63928l-0.696024 0c0,0 -0.105035,-0.0136102 -0.0868228,0.086815 0.0181299,0.10052 0.0628819,0.10052 0.0889331,0.165079 0.0256417,0.0637008 0.13761,0.133634 0.511031,0.135362 3.54331e-005,-0.155878 0.071252,-0.295264 0.182882,-0.387256z"/>
   <path id="_489386256" class="fil6" d="M5.54489 3.71631l0.419657 0c0,0 0.0144961,0.0999055 0.00622441,0.155087 -0.00837008,0.0551181 -0.0905433,0.132087 -0.287252,0.136303 -0.0109449,0.000216535 -0.0214409,0.000129921 -0.0315551,-0.00019685 -0.00412205,-0.10976 -0.0434528,-0.210472 -0.107075,-0.291193z"/>
   <path id="_489386640" class="fil7" d="M3.02956 2.61486l0 -0.0474094 0.362724 0 0 0.0487913 -0.000496063 1.1811e-005c-0.105157,-0.000669291 -0.240402,-0.00132677 -0.362228,-0.0013937z"/>
   <line id="_489386208" class="fil8" x1="2.83775" y1="2.46333" x2="2.83775" y2= "2.46333" />
   <path id="_489386472" class="fil9" d="M2.85014 2.51946c0.0162835,0.0284213 0.0469488,0.0476535 0.0818937,0.0476535l0.557791 0c0.0385748,0 0.071937,-0.0234803 0.0864764,-0.0568976 0.00499213,-0.0114528 0.00775591,-0.0241102 0.00775591,-0.0373583 0,-0.0518346 -0.0424291,-0.0942008 -0.0942323,-0.0942008l-0.557791 0c-0.00429528,0 -0.0085315,0.000279528 -0.012685,0.00084252 -0.0459252,0.00624409 -0.0815984,0.0458228 -0.0815984,0.0933583 0,0.0168268 0.00446457,0.0326457 0.0122598,0.0463543 0,1.5748e-005 1.9685e-005,3.14961e-005 1.9685e-005,3.14961e-005 3.14961e-005,6.69291e-005 7.87402e-005,0.000149606 0.000110236,0.000216535z"/>
   <path id="_489386712" class="fil6" d="M3.29829 2.69309c0.200091,0.00249213 0.364256,0.00544094 0.364256,0.00544094 0,0 0.039563,-0.00207874 0.172791,0.0895079 0.13315,0.0915827 0.572319,0.430839 0.572319,0.430839l-0.998106 0 -0.11126 -0.525787z"/>
   <path id="_489386544" class="fil6" d="M2.21814 3.20641c0,0 0.322602,-0.48911 0.368398,-0.507878 0.0233622,-0.00952362 0.303551,-0.00932677 0.572122,-0.00683858l0.0595354 0.527185 -0.879335 0c0,0 -0.108126,0.00382677 -0.12072,-0.0124685z"/>
   <path id="_489386328" class="fil6" d="M2.17233 3.19911c0,0 -0.0947283,-0.0197717 -0.152961,-0.0458583 -0.0582992,-0.0259488 -0.0957362,-0.0789921 -0.0957362,-0.0789921 0,0 0.386091,-0.284142 0.474524,-0.329933 0.0884724,-0.0457913 0.123835,-0.0510315 0.123835,-0.0510315 0,0 -0.335079,0.473567 -0.349661,0.505815z"/>
   <path id="_489386376" class="fil4" d="M2.15521 3.19529c-0.0194094,-0.00450394 -0.0527283,-0.0127362 -0.0855157,-0.0232717 0.0156181,-0.034189 0.0382047,-0.0769646 0.068563,-0.117992 0.0603031,-0.0815354 0.302575,-0.302055 0.376693,-0.350811 -0.0355709,0.0505 -0.198701,0.281406 -0.286594,0.410213 -0.026874,0.0299724 -0.0517244,0.0578543 -0.0731457,0.0818622z"/>
   <path id="_489386064" class="fil4" d="M2.17233 3.19911c0,0 -0.0118937,-0.00255512 -0.0298228,-0.00683858 0.010626,-0.0290315 0.0245709,-0.0615394 0.0426457,-0.0935276 0.0487717,-0.0864252 0.253937,-0.326122 0.326173,-0.390291 -0.0572244,0.0809213 -0.325976,0.461756 -0.338996,0.490657z"/>
   <path id="_489385344" class="fil10" d="M1.02763 3.20743c0,0 0.18,0.0197756 0.208106,0.048937 0.0280984,0.0291024 0.00312992,0.301791 -0.00103543,0.306945 -0.00415354,0.00522835 -0.178043,0.0010748 -0.245654,0 -0.0675551,-0.00106693 0.00107087,-0.344433 0.0385827,-0.355882z"/>
   <path id="_489385944" class="fil5" d="M1.24541 3.45422c-0.00362205,0.0582165 -0.00899606,0.106937 -0.0107087,0.109094 -0.00415354,0.00522835 -0.178043,0.0010748 -0.245654,0 -0.0281969,-0.000409449 -0.0326535,-0.0605512 -0.0255512,-0.131209 0.0750669,0.00749606 0.195783,0.0187047 0.281913,0.0221142z"/>
   <path id="_489385824" class="fil1" d="M3.52121 3.34896l0.15626 -0.00348031c0.0104803,-0.00034252 0.0189685,0.0105827 0.0188386,0.0242126 -0.000169291,0.0135906 -0.0088189,0.0249252 -0.019315,0.0252047l-0.15626 0.00347638c-0.0105118,0.000267717 -0.0189961,-0.0106575 -0.0188307,-0.0242677 0.000161417,-0.0136142 0.00884646,-0.0249488 0.0193071,-0.0251457z"/>
   <path id="_489385680" class="fil1" d="M2.34402 3.34896l0.156256 -0.00348031c0.0104961,-0.00034252 0.0189843,0.0105827 0.0188346,0.0242126 -0.000165354,0.0135906 -0.00881496,0.0249252 -0.0193268,0.0252047l-0.15626 0.00347638c-0.0104646,0.000267717 -0.0189488,-0.0106575 -0.0188189,-0.0242677 0.000133858,-0.0136142 0.00885039,-0.0249488 0.019315,-0.0251457z"/>
   <path id="_489385848" class="fil11" d="M1.96215 3.60509c0.23276,0 0.421496,0.188606 0.421496,0.421453 0,0.232799 -0.188736,0.421469 -0.421496,0.421469 -0.232717,0 -0.421472,-0.188669 -0.421472,-0.421469 0,-0.232846 0.188756,-0.421453 0.421472,-0.421453z"/>
   <polygon id="_489385248" class="fil12" points="1.88511,4.05847 1.61751,4.05847 1.61751,3.99464 1.88511,3.99464 1.69586,3.80543 1.74098,3.76022 1.93022,3.94951 1.93022,3.68186 1.99403,3.68186 1.99403,3.94951 2.18331,3.76022 2.22843,3.80543 2.03918,3.99464 2.30677,3.99464 2.30677,4.05847 2.03918,4.05847 2.22843,4.24761 2.18331,4.29274 1.99403,4.10359 1.99403,4.37117 1.93022,4.37117 1.93022,4.10359 1.74098,4.29274 1.69586,4.24761 "/>
   <path id="_489385584" class="fil6" d="M1.96215 3.67972c0.191567,0 0.346839,0.155201 0.346839,0.346819 0,0.191504 -0.155272,0.346858 -0.346839,0.346858 -0.191559,0 -0.346839,-0.155354 -0.346839,-0.346858 0,-0.191618 0.15528,-0.346819 0.346839,-0.346819zm0 0.0513386c0.163161,0 0.295476,0.13222 0.295476,0.29548 0,0.163213 -0.132315,0.295496 -0.295476,0.295496 -0.163228,0 -0.29548,-0.132283 -0.29548,-0.295496 0,-0.16326 0.132252,-0.29548 0.29548,-0.29548z"/>
   <path id="_489385800" class="fil4" d="M1.96215 3.91853c0.0596457,0 0.107976,0.0483425 0.107976,0.108008 0,0.0596181 -0.0483307,0.107961 -0.107976,0.107961 -0.0596339,0 -0.107984,-0.0483425 -0.107984,-0.107961 0,-0.0596654 0.0483504,-0.108008 0.107984,-0.108008z"/>
   <path id="_489385320" class="fil3" d="M1.96215 4.0698c0.0108898,0 0.019622,0.00871654 0.019622,0.0195748 0,0.0109409 -0.00873228,0.0197244 -0.019622,0.0197244 -0.0108622,0 -0.0196102,-0.00878346 -0.0196102,-0.0197244 0,-0.0108583 0.00874803,-0.0195748 0.0196102,-0.0195748zm0 -0.125843c0.0108898,0 0.019622,0.00878346 0.019622,0.0197087 0,0.0108583 -0.00873228,0.0195748 -0.019622,0.0195748 -0.0108622,0 -0.0196102,-0.00871654 -0.0196102,-0.0195748 0,-0.0109252 0.00874803,-0.0197087 0.0196102,-0.0197087z"/>
   <path id="_489385776" class="fil3" d="M1.91885 4.02654c0,0.010811 -0.00869685,0.0196575 -0.0196063,0.0196575 -0.0108622,0 -0.0196102,-0.00884646 -0.0196102,-0.0196575 0,-0.0109252 0.00874803,-0.0197087 0.0196102,-0.0197087 0.0109094,0 0.0196063,0.00878346 0.0196063,0.0197087zm0.125791 0c0,0.010811 -0.00874803,0.0196575 -0.0196102,0.0196575 -0.0108898,0 -0.0196378,-0.00884646 -0.0196378,-0.0196575 0,-0.0109252 0.00874803,-0.0197087 0.0196378,-0.0197087 0.0108622,0 0.0196102,0.00878346 0.0196102,0.0197087z"/>
   <path id="_489385440" class="fil11" d="M5.14351 3.60509c0.232717,0 0.421453,0.188606 0.421453,0.421453 0,0.232799 -0.188736,0.421469 -0.421453,0.421469 -0.232764,0 -0.421496,-0.188669 -0.421496,-0.421469 0,-0.232846 0.188732,-0.421453 0.421496,-0.421453z"/>
   <polygon id="_489384528" class="fil13" points="5.06646,4.05847 4.79888,4.05847 4.79888,3.99464 5.06646,3.99464 4.87719,3.80543 4.92235,3.76022 5.11159,3.94951 5.11159,3.68186 5.1754,3.68186 5.1754,3.94951 5.36463,3.76022 5.40979,3.80543 5.22055,3.99464 5.48813,3.99464 5.48813,4.05847 5.22055,4.05847 5.40979,4.24761 5.36463,4.29274 5.1754,4.10359 5.1754,4.37117 5.11159,4.37117 5.11159,4.10359 4.92235,4.29274 4.87719,4.24761 "/>
   <path id="_489384432" class="fil6" d="M5.14351 3.67972c0.191555,0 0.346843,0.155201 0.346843,0.346819 0,0.191504 -0.155287,0.346858 -0.346843,0.346858 -0.191551,0 -0.346839,-0.155354 -0.346839,-0.346858 0,-0.191618 0.155287,-0.346819 0.346839,-0.346819zm0 0.0513386c0.16313,0 0.295476,0.13222 0.295476,0.29548 0,0.163213 -0.132346,0.295496 -0.295476,0.295496 -0.163228,0 -0.295492,-0.132283 -0.295492,-0.295496 0,-0.16326 0.132264,-0.29548 0.295492,-0.29548z"/>
   <path id="_489385152" class="fil4" d="M5.14351 3.91853c0.0596339,0 0.10798,0.0483425 0.10798,0.108008 0,0.0596181 -0.0483465,0.107961 -0.10798,0.107961 -0.0596457,0 -0.107976,-0.0483425 -0.107976,-0.107961 0,-0.0596654 0.0483307,-0.108008 0.107976,-0.108008z"/>
   <path id="_489384576" class="fil3" d="M5.14351 4.0698c0.0108937,0 0.0196102,0.00871654 0.0196102,0.0195748 0,0.0109409 -0.00871654,0.0197244 -0.0196102,0.0197244 -0.0109055,0 -0.0196535,-0.00878346 -0.0196535,-0.0197244 0,-0.0108583 0.00874803,-0.0195748 0.0196535,-0.0195748zm0 -0.125843c0.0108937,0 0.0196102,0.00878346 0.0196102,0.0197087 0,0.0108583 -0.00871654,0.0195748 -0.0196102,0.0195748 -0.0109055,0 -0.0196535,-0.00871654 -0.0196535,-0.0195748 0,-0.0109252 0.00874803,-0.0197087 0.0196535,-0.0197087z"/>
   <path id="_489384624" class="fil3" d="M5.10023 4.02654c0,0.010811 -0.00871654,0.0196575 -0.0196102,0.0196575 -0.0108898,0 -0.0196417,-0.00884646 -0.0196417,-0.0196575 0,-0.0109252 0.00875197,-0.0197087 0.0196417,-0.0197087 0.0108937,0 0.0196102,0.00878346 0.0196102,0.0197087zm0.125756 0c0,0.010811 -0.00873228,0.0196575 -0.0195945,0.0196575 -0.0108898,0 -0.0196378,-0.00884646 -0.0196378,-0.0196575 0,-0.0109252 0.00874803,-0.0197087 0.0196378,-0.0197087 0.0108622,0 0.0195945,0.00878346 0.0195945,0.0197087z"/>
   <path id="_489385128" class="fil14" d="M4.37806 3.10919l-0.0261535 0.257331c0,0 0.0734567,0.0158189 0.0995591,-0.021122 0.0261535,-0.0369921 0.0299094,-0.176264 0.0224252,-0.190335 -0.00746457,-0.0141535 -0.0958307,-0.045874 -0.0958307,-0.045874z"/>
  </g>
 </g>
</svg>
