<?xml version="1.0" encoding="UTF-8"?>
<!DOCTYPE svg PUBLIC "-//W3C//DTD SVG 1.1//EN" "http://www.w3.org/Graphics/SVG/1.1/DTD/svg11.dtd">
<!-- Creator: CorelDRAW -->
<svg xmlns="http://www.w3.org/2000/svg" xml:space="preserve" width="6.82666in" height="6.82666in" style="shape-rendering:geometricPrecision; text-rendering:geometricPrecision; image-rendering:optimizeQuality; fill-rule:evenodd; clip-rule:evenodd"
viewBox="0 0 6.82666 6.82666"
 xmlns:xlink="http://www.w3.org/1999/xlink">
 <defs>
  <style type="text/css">
   <![CDATA[
    .fil1 {fill:none}
    .fil3 {fill:#2A2A2A}
    .fil6 {fill:#323232}
    .fil12 {fill:#616161}
    .fil9 {fill:#C0C0C1}
    .fil4 {fill:gainsboro}
    .fil7 {fill:white}
    .fil0 {fill:#202020;fill-rule:nonzero}
    .fil8 {fill:#2A2A2A;fill-rule:nonzero}
    .fil10 {fill:#323232;fill-rule:nonzero}
    .fil2 {fill:#393939;fill-rule:nonzero}
    .fil13 {fill:#414141;fill-rule:nonzero}
    .fil14 {fill:#616161;fill-rule:nonzero}
    .fil5 {fill:#9E9E9E;fill-rule:nonzero}
    .fil11 {fill:#A5A5A6;fill-rule:nonzero}
   ]]>
  </style>
 </defs>
 <g id="Layer_x0020_1">
  <metadata id="CorelCorpID_0Corel-Layer"/>
  <polygon class="fil0" points="1.49333,1.13999 5.97333,1.13999 5.97333,1.20666 1.49333,1.20666 "/>
  <polygon class="fil0" points="1.49333,2.29098 5.97333,2.29098 5.97333,2.35765 1.49333,2.35765 "/>
  <polygon class="fil0" points="1.49333,3.44197 5.97333,3.44197 5.97333,3.50864 1.49333,3.50864 "/>
  <polygon class="fil0" points="1.49333,4.59296 5.97333,4.59296 5.97333,4.65963 1.49333,4.65963 "/>
  <polygon class="fil0" points="1.49333,5.74394 5.97333,5.74394 5.97333,5.81061 1.49333,5.81061 "/>
  <rect class="fil1" width="6.82666" height="6.82666"/>
  <path class="fil2" d="M3.05628 3.81746l0.269264 0.408657 0.0119488 0.0247205 0.0878031 0.263417 0.0886063 -0.266067 0.0119488 -0.0251299 0.268551 -0.406012 0.233197 0.0183898 -0.319024 0.492917 -0.176402 0.529693 0.0157087 0.68176 0.553496 -0.79987 -0.202461 -0.29074 -0.0446811 -0.0641535 0.0492126 -0.0615118 0.738461 -0.923079 -0.579689 -0.081122 0.0288386 -0.20848 0.762583 0.10672 0.182894 0.0255945 -0.115323 0.144154 -0.45411 0.567642c0.256051,0.127004 0.47178,0.304067 0.631709,0.514878 0.183866,0.242358 0.293945,0.528854 0.307173,0.835098l0.0233465 0.540394 0.0047126 0.109079 -0.109362 0.000515748 -3.81778 0.017878 -0.114264 0.000531496 0.0087874 -0.113425 0.0432795 -0.558268c0.0233622,-0.301433 0.133067,-0.58402 0.311752,-0.823965 0.158957,-0.213453 0.372437,-0.392929 0.628075,-0.521535l-0.455059 -0.568823 -0.114563 -0.143201 0.181307 -0.0265472 0.740201 -0.108374 0.0304882 0.208476 -0.55889 0.0818268 0.418067 0.522583 0.321157 0.401449 0.0492047 0.0615118 -0.0446732 0.0641535 -0.201079 0.288756 0.586862 0.797083 -0.0153465 -0.665886 -0.179681 -0.539055 -0.296783 -0.494657 0.210539 -0.0179764z"/>
  <path class="fil3" d="M3.44302 1.28511c0.543783,0 0.984571,0.50672 0.984571,1.13178 0,0.625102 -0.440787,1.13182 -0.984571,1.13182 -0.543744,0 -0.984547,-0.50672 -0.984547,-1.13182 0,-0.625063 0.440803,-1.13178 0.984547,-1.13178z"/>
  <path class="fil4" d="M3.47602 1.75842c0.434319,0 0.775484,0.283787 0.721067,0.963933 -0.0154843,0.193614 0.14078,0.0913504 0.14078,0.161307 0,0.577587 -0.40061,1.04581 -0.89485,1.04581 -0.494169,0 -0.894831,-0.46822 -0.894831,-1.04581 0.105484,0.184909 0.121626,-0.0496378 0.116878,-0.157799 -0.039,-0.885437 0.355657,-0.967441 0.810957,-0.967441z"/>
  <g>
   <path class="fil5" d="M3.613 3.03638l-0.0464882 -0.0568189 0.00124409 -0.00140551 0.0012874 -0.00131102 0.00132677 -0.00122047 0.00136614 -0.00112992 0.00139764 -0.00103543 0.00143307 -0.000948819 0.00146063 -0.000854331 0.00148819 -0.00076378 0.00151181 -0.000669291 0.00152756 -0.000582677 0.00154724 -0.000488189 0.00156299 -0.000397638 0.00157087 -0.00030315 0.00158268 -0.000216535 0.00158661 -0.000122047 0.00158661 -3.14961e-005 0.00159055 5.90551e-005 0.00158268 0.000149606 0.00157874 0.000240157 0.00156693 0.000334646 0.00155906 0.000425197 0.00153937 0.000511811 0.00152362 0.000606299 0.0015 0.000700787 0.00148031 0.000787402 0.00144882 0.000877953 0.00142126 0.000972441 0.00138976 0.00105906 0.00135039 0.00115354 0.00131496 0.00124409 0.00126772 0.00133465 0.00122835 0.0014252 0.00116535 0.0015 0.00109055 0.00154724 0.00101181 0.00160236 0.000937008 0.00164567 0.000862205 0.00168504 0.000783465 0.00172835 0.000708661 0.00175984 0.000633858 0.00179134 0.000559055 0.0018189 0.000480315 0.00184252 0.000405512 0.00186614 0.000330709 0.00188189 0.000251969 0.0018937 0.000177165 0.00190551 0.000102362 0.00190945 2.75591e-005 0.00191339 -4.72441e-005 0.00191339 -0.000125984 0.00190945 -0.000200787 0.00190157 -0.000275591 0.00188976 -0.000354331 0.00187795 -0.000425197 0.00185433 -0.000503937 0.00183858 -0.00057874 0.00180709 -0.000653543 0.00177953 -0.000732283 0.00174803 -0.00080315 0.0017126 -0.00088189 0.00167323 -0.000956693 0.00162992 -0.0010315 0.00158268 -0.00111024 0.0015315 -0.0011811 0.00147638zm-0.339941 0l0.0464882 -0.0568189 0.00649606 0.00733465 0.00672047 0.00685039 0.00693701 0.00637008 0.0071378 0.00590157 0.00732677 0.00542126 0.00750394 0.00496063 0.00766535 0.00449213 0.00780709 0.00401575 0.00794488 0.00354724 0.00805512 0.00307874 0.00815354 0.00260236 0.00825197 0.00213386 0.00830709 0.00166142 0.00836614 0.00118504 0.0083937 0.000716535 0.00841732 0.000232283 0.00841339 -0.000232283 0.0083937 -0.000716535 0.00836614 -0.00118504 0.00830709 -0.00166142 0.00825197 -0.00213386 0.00815354 -0.00260236 0.00805512 -0.00307874 0.00794488 -0.00354724 0.00780709 -0.00401575 0.00766535 -0.00449213 0.00750394 -0.00496063 0.00732677 -0.00542126 0.0071378 -0.00590157 0.00693701 -0.00637008 0.00672047 -0.00685039 0.00649606 -0.00733465 0.0464882 0.0568189 -0.00894488 0.0100984 -0.0092874 0.00946457 -0.00959055 0.00881102 -0.00987795 0.00816142 -0.0101299 0.00750787 -0.0103701 0.00685039 -0.0105866 0.00620079 -0.0107756 0.00554331 -0.010937 0.00488583 -0.0110866 0.00423622 -0.0112165 0.00357874 -0.0113071 0.00292913 -0.0113937 0.00227559 -0.0114528 0.00162598 -0.0114961 0.000976378 -0.0115157 0.000326772 -0.0115197 -0.000326772 -0.0114961 -0.000976378 -0.0114528 -0.00162598 -0.0113937 -0.00227559 -0.0113071 -0.00292913 -0.0112165 -0.00357874 -0.0110866 -0.00423622 -0.010937 -0.00488583 -0.0107756 -0.00554331 -0.0105866 -0.00620079 -0.0103701 -0.00685039 -0.0101299 -0.00750787 -0.00987795 -0.00816142 -0.00959055 -0.00881102 -0.0092874 -0.00946457 -0.00894488 -0.0100984zm0.0464882 -0.0568189l-0.0464882 0.0568189 -0.0011811 -0.00147638 -0.00111024 -0.0015315 -0.0010315 -0.00158268 -0.000956693 -0.00162992 -0.00088189 -0.00167323 -0.00080315 -0.0017126 -0.000732283 -0.00174803 -0.000653543 -0.00177953 -0.00057874 -0.00180709 -0.000503937 -0.00183858 -0.000425197 -0.00185433 -0.000354331 -0.00187795 -0.000275591 -0.00188976 -0.000200787 -0.00190157 -0.000125984 -0.00190945 -4.72441e-005 -0.00191339 2.75591e-005 -0.00191339 0.000102362 -0.00190945 0.000177165 -0.00190551 0.000251969 -0.0018937 0.000330709 -0.00188189 0.000405512 -0.00186614 0.000480315 -0.00184252 0.000559055 -0.0018189 0.000633858 -0.00179134 0.000708661 -0.00175984 0.000783465 -0.00172835 0.000862205 -0.00168504 0.000937008 -0.00164567 0.00101181 -0.00160236 0.00109055 -0.00154724 0.00116535 -0.0015 0.00122835 -0.0014252 0.00126772 -0.00133465 0.00131496 -0.00124409 0.00135039 -0.00115354 0.00138976 -0.00105906 0.00142126 -0.000972441 0.00144882 -0.000877953 0.00148031 -0.000787402 0.0015 -0.000700787 0.00152362 -0.000606299 0.00153937 -0.000511811 0.00155906 -0.000425197 0.00156693 -0.000334646 0.00157874 -0.000240157 0.00158268 -0.000149606 0.00159055 -5.90551e-005 0.00158661 3.14961e-005 0.00158661 0.000122047 0.00158268 0.000216535 0.00157087 0.00030315 0.00156299 0.000397638 0.00154724 0.000488189 0.00152756 0.000582677 0.00151181 0.000669291 0.00148819 0.00076378 0.00146063 0.000854331 0.00143307 0.000948819 0.00139764 0.00103543 0.00136614 0.00112992 0.00132677 0.00122047 0.0012874 0.00131102 0.00124409 0.00140551z"/>
  </g>
  <path class="fil6" d="M3.13991 2.45791c0.0425197,0 0.0770079,0.0698898 0.0770079,0.156118 0,0.0862205 -0.0344882,0.15611 -0.0770079,0.15611 -0.0425433,0 -0.0770315,-0.0698898 -0.0770315,-0.15611 0,-0.0862283 0.0344882,-0.156118 0.0770315,-0.156118z"/>
  <path class="fil7" d="M3.15115 2.48145c0.0250236,0 0.0453307,0.0244528 0.0453307,0.054622 0,0.0301654 -0.0203071,0.0546024 -0.0453307,0.0546024 -0.0250197,0 -0.0453346,-0.024437 -0.0453346,-0.0546024 0,-0.0301693 0.020315,-0.054622 0.0453346,-0.054622z"/>
  <path class="fil6" d="M3.74616 2.45791c0.0425394,0 0.0770276,0.0698898 0.0770276,0.156118 0,0.0862205 -0.0344882,0.15611 -0.0770276,0.15611 -0.0425394,0 -0.0770276,-0.0698898 -0.0770276,-0.15611 0,-0.0862283 0.0344882,-0.156118 0.0770276,-0.156118z"/>
  <path class="fil7" d="M3.75741 2.48145c0.0250157,0 0.0453307,0.0244528 0.0453307,0.054622 0,0.0301654 -0.020315,0.0546024 -0.0453307,0.0546024 -0.0250591,0 -0.0453386,-0.024437 -0.0453386,-0.0546024 0,-0.0301693 0.0202795,-0.054622 0.0453386,-0.054622z"/>
  <g>
   <path class="fil8" d="M2.94492 2.38774l0.0629291 0.0248268 -0.000570866 0.00193307 -0.000645669 0.00187795 -0.000716535 0.0018189 -0.000783465 0.00175984 -0.000850394 0.00169291 -0.000909449 0.00163386 -0.000976378 0.00156693 -0.0010315 0.00149606 -0.00108661 0.00143307 -0.0011378 0.00135827 -0.00118898 0.00129134 -0.00123622 0.0012126 -0.00128346 0.00114173 -0.00132283 0.00106299 -0.0013622 0.000988189 -0.00140157 0.000905512 -0.00143307 0.000822835 -0.00146457 0.000740157 -0.00149606 0.00065748 -0.00151969 0.000570866 -0.00154331 0.000484252 -0.00156693 0.000389764 -0.00158268 0.00030315 -0.00160236 0.000208661 -0.00161417 0.00011811 -0.00162205 1.5748e-005 -0.00163386 -7.48031e-005 -0.00163386 -0.000177165 -0.00164173 -0.000279528 -0.0016378 -0.000377953 -0.0016378 -0.000484252 -0.00163386 -0.000590551 -0.0016063 -0.000688976 -0.00155512 -0.000775591 -0.00151181 -0.000862205 -0.00145669 -0.000944882 -0.00140945 -0.00102362 -0.00135433 -0.00109843 -0.00129921 -0.00117323 -0.00124409 -0.00124409 -0.00118504 -0.00131102 -0.00112992 -0.00137008 -0.00107087 -0.00143307 -0.00100787 -0.00149213 -0.000944882 -0.00154331 -0.000885827 -0.00159449 -0.000814961 -0.00164173 -0.000751969 -0.00168504 -0.000685039 -0.00172835 -0.000614173 -0.00176772 -0.000547244 -0.00179921 -0.000472441 -0.00183071 -0.000401575 -0.0018622 -0.000326772 -0.00188583 -0.000248031 -0.00190945 -0.000173228 -0.00192913 -9.84252e-005 -0.00194488 -1.5748e-005 -0.00195669 6.69291e-005 -0.00196457 0.000145669 -0.00197244 0.000232283 -0.00197638 0.000314961 -0.00197638 0.000401575 -0.00197244 0.000488189 -0.0019685zm0.257512 -0.180945l-0.0138661 0.0780157 -0.00644094 -0.00144094 -0.00653937 -0.0010315 -0.00663386 -0.000622047 -0.00673228 -0.000220472 -0.00679528 0.000177165 -0.00684252 0.00057874 -0.00688976 0.000980315 -0.0069252 0.00137008 -0.00692126 0.00175984 -0.00690551 0.0021378 -0.00687402 0.00251575 -0.00682677 0.00288189 -0.00676378 0.00324803 -0.00667323 0.00359449 -0.00655906 0.00393701 -0.00644488 0.00427165 -0.00629921 0.00459055 -0.00614173 0.00490157 -0.00596457 0.00520079 -0.00576772 0.00548031 -0.00555512 0.00575591 -0.00533465 0.00601575 -0.00508661 0.00625984 -0.00483858 0.00650394 -0.00456299 0.0067126 -0.00427559 0.00691732 -0.00398819 0.00712205 -0.00367717 0.00729921 -0.0033622 0.00747244 -0.00303937 0.00764567 -0.00270079 0.00779134 -0.00235433 0.00794882 -0.0629291 -0.0248268 0.00352756 -0.0119094 0.00402362 -0.0116102 0.00448031 -0.0112756 0.00492126 -0.0109528 0.00534646 -0.0106063 0.00573622 -0.010248 0.00611024 -0.00988583 0.0064685 -0.00951575 0.00679134 -0.00912598 0.00711024 -0.00875591 0.00740551 -0.00835433 0.0076811 -0.00796063 0.00794882 -0.00755118 0.00818504 -0.0071378 0.00840945 -0.0067126 0.00862992 -0.00629134 0.00882283 -0.00584646 0.00900787 -0.00540157 0.00916929 -0.00494094 0.00932283 -0.00447638 0.00946457 -0.004 0.00959055 -0.00350787 0.00970079 -0.00300394 0.00979528 -0.00248425 0.00987008 -0.00195276 0.00993701 -0.00141339 0.01 -0.000846457 0.0100236 -0.00026378 0.0100315 0.000330709 0.0100354 0.000944882 0.0100118 0.00158268 0.00995276 0.00222835zm-0.0138661 0.0780157l0.0138661 -0.0780157 0.00165748 0.000480315 0.00161811 0.000574803 0.0015748 0.000665354 0.0015315 0.000755906 0.00148819 0.000838583 0.00144488 0.00092126 0.0013937 0.001 0.00134646 0.00107874 0.00129528 0.00115354 0.00124409 0.00122047 0.00118898 0.0012874 0.00112992 0.00135433 0.00107874 0.00141732 0.00101575 0.00147244 0.000956693 0.00152756 0.000893701 0.00158268 0.000830709 0.00163386 0.000767717 0.00167717 0.000700787 0.00172047 0.000629921 0.00176378 0.000559055 0.00179921 0.000492126 0.00183465 0.000413386 0.00186614 0.00034252 0.0018937 0.00026378 0.00192126 0.000188976 0.00194488 0.000106299 0.00196457 2.75591e-005 0.00198031 -5.90551e-005 0.00199606 -0.000141732 0.00200394 -0.000224409 0.00201181 -0.000314961 0.00201969 -0.000397638 0.00199606 -0.000476378 0.00194882 -0.000555118 0.00189764 -0.000625984 0.00185039 -0.00069685 0.00179134 -0.00076378 0.00174016 -0.000830709 0.0016811 -0.000893701 0.00162205 -0.000956693 0.00155906 -0.00101575 0.00149606 -0.00106693 0.00143307 -0.00112598 0.00136614 -0.00117323 0.00129528 -0.00122441 0.00122835 -0.00126772 0.00114961 -0.00131496 0.00107874 -0.00135433 0.001 -0.00138976 0.000925197 -0.00142913 0.00084252 -0.00146457 0.000759843 -0.00149213 0.000673228 -0.00152362 0.000590551 -0.00154724 0.000503937 -0.0015748 0.000409449 -0.00159449 0.000318898 -0.00161417 0.000224409 -0.00162992 0.000129921 -0.00164173 3.14961e-005 -0.00165748 -6.69291e-005 -0.00166142 -0.000169291 -0.00167323 -0.000275591 -0.00167323 -0.000377953z"/>
  </g>
  <g>
   <path class="fil8" d="M3.8782 2.41254l0.062937 -0.0247874 0.000488189 0.0019685 0.000401575 0.00197244 0.000314961 0.00197638 0.000228346 0.00197638 0.000145669 0.00197244 6.69291e-005 0.0019685 -1.9685e-005 0.00195669 -9.44882e-005 0.00194094 -0.000173228 0.00192913 -0.000251969 0.00190945 -0.000326772 0.00188583 -0.000401575 0.0018622 -0.000476378 0.00183071 -0.000543307 0.00179921 -0.00061811 0.00176772 -0.000685039 0.00172441 -0.000751969 0.00168898 -0.000818898 0.00164173 -0.00088189 0.00159055 -0.000948819 0.00154331 -0.00100787 0.00149213 -0.00107087 0.00142913 -0.00112992 0.00137402 -0.00118504 0.00130709 -0.00124409 0.00124016 -0.00130315 0.00117323 -0.00135433 0.00109843 -0.00140551 0.00102362 -0.00146063 0.000944882 -0.00150787 0.000862205 -0.00155906 0.000775591 -0.0016063 0.000685039 -0.00163386 0.000586614 -0.0016378 0.000484252 -0.0016378 0.000377953 -0.00164173 0.000279528 -0.0016378 0.000173228 -0.00162992 7.87402e-005 -0.00162598 -1.9685e-005 -0.00161024 -0.00011811 -0.00160236 -0.000208661 -0.00158268 -0.00030315 -0.00156693 -0.000393701 -0.00154331 -0.000484252 -0.00151969 -0.000570866 -0.00149606 -0.00065748 -0.00146457 -0.000744094 -0.00143307 -0.000822835 -0.00140157 -0.000905512 -0.0013622 -0.000988189 -0.00132283 -0.00106299 -0.00127953 -0.00114173 -0.00123622 -0.00121654 -0.00118898 -0.0012874 -0.0011378 -0.0013622 -0.00108661 -0.00143307 -0.0010315 -0.0015 -0.000972441 -0.00156693 -0.000909449 -0.00162992 -0.000850394 -0.00169685 -0.000783465 -0.00175984 -0.000716535 -0.0018189 -0.000641732 -0.00187402 -0.000570866 -0.00193701zm-0.180717 -0.127736l-0.0138661 -0.0780157 0.00995276 -0.00222835 0.0100118 -0.00158268 0.0100354 -0.000944882 0.0100315 -0.000330709 0.0100236 0.00026378 0.0100039 0.000846457 0.00994094 0.00141339 0.00987008 0.00195276 0.00979528 0.00248425 0.00970472 0.00300394 0.00958661 0.00350787 0.0094685 0.00399606 0.00932677 0.00448031 0.00916929 0.00493701 0.00900394 0.00540157 0.00883465 0.00585039 0.00862598 0.00629134 0.00841339 0.0067126 0.00818504 0.0071378 0.00794488 0.00754724 0.00768898 0.00796457 0.00740157 0.00835433 0.00711417 0.00875591 0.00679134 0.00913386 0.00646457 0.00950787 0.00611417 0.0098937 0.00573228 0.0102441 0.00534252 0.0106102 0.0049252 0.0109567 0.00447638 0.0112756 0.00401575 0.0116142 0.00352362 0.0119134 -0.062937 0.0247874 -0.00235039 -0.00794488 -0.00270079 -0.0077874 -0.00303543 -0.00764567 -0.00335039 -0.0074685 -0.0036811 -0.00729528 -0.00398425 -0.00712598 -0.00427165 -0.00690945 -0.00456693 -0.00672047 -0.00483071 -0.00649606 -0.00509055 -0.00625984 -0.00533071 -0.00601575 -0.00555512 -0.00575197 -0.00577165 -0.00548425 -0.00596457 -0.00520079 -0.00614567 -0.00490157 -0.00629528 -0.00459055 -0.00644094 -0.00426772 -0.00657087 -0.00393701 -0.00667323 -0.00359843 -0.00675984 -0.00324409 -0.00683071 -0.00288583 -0.00687795 -0.00251575 -0.00690945 -0.0021378 -0.00692126 -0.00175984 -0.0069252 -0.00137008 -0.0068937 -0.000980315 -0.00683858 -0.00057874 -0.00680315 -0.000177165 -0.00673228 0.000220472 -0.00663386 0.000622047 -0.00653937 0.0010315 -0.00644094 0.00144094zm-0.0138661 -0.0780157l0.0138661 0.0780157 -0.00167323 0.000377953 -0.00167323 0.000275591 -0.00166142 0.000169291 -0.00165748 6.69291e-005 -0.00164173 -3.14961e-005 -0.00162992 -0.000129921 -0.00161417 -0.000224409 -0.00159449 -0.000318898 -0.0015748 -0.000409449 -0.00154724 -0.000503937 -0.00152362 -0.000590551 -0.00149213 -0.000673228 -0.00146457 -0.000759843 -0.00142913 -0.00084252 -0.00138976 -0.000925197 -0.00135433 -0.001 -0.00131496 -0.00107874 -0.00126772 -0.00114961 -0.00122441 -0.00122835 -0.00117323 -0.00129528 -0.00112598 -0.00136614 -0.00106693 -0.00143307 -0.00101575 -0.00149606 -0.000956693 -0.00155906 -0.000893701 -0.00162205 -0.000830709 -0.0016811 -0.00076378 -0.00174016 -0.00069685 -0.00179134 -0.000625984 -0.00185039 -0.000555118 -0.00189764 -0.000476378 -0.00194882 -0.000397638 -0.00199606 -0.000314961 -0.00201969 -0.000224409 -0.00201181 -0.000141732 -0.00200394 -5.90551e-005 -0.00199606 2.75591e-005 -0.00198031 0.000106299 -0.00196457 0.000188976 -0.00194488 0.00026378 -0.00192126 0.00034252 -0.0018937 0.000413386 -0.00186614 0.000492126 -0.00183465 0.000559055 -0.00179921 0.000629921 -0.00176378 0.000700787 -0.00172047 0.000767717 -0.00167717 0.000830709 -0.00163386 0.000893701 -0.00158268 0.000956693 -0.00152756 0.00101575 -0.00147244 0.00107874 -0.00141732 0.00112992 -0.00135433 0.00118898 -0.0012874 0.00124409 -0.00122047 0.00129528 -0.00115354 0.00134646 -0.00107874 0.0013937 -0.001 0.00144488 -0.00092126 0.00148819 -0.000838583 0.0015315 -0.000755906 0.0015748 -0.000665354 0.00161811 -0.000574803 0.00165748 -0.000480315z"/>
  </g>
  <path class="fil3" d="M3.74433 1.60245c0.346327,0.167362 0.627091,0.414764 0.627091,0.552598 0,0.137831 -0.280764,0.113898 -0.627091,-0.0534567 -0.346319,-0.167358 -0.627063,-0.414764 -0.627063,-0.552598 0,-0.137831 0.280744,-0.113913 0.627063,0.0534567z"/>
  <path class="fil4" d="M2.43162 2.52776c0.0494567,-0.0255551 0.127693,0.075378 0.174697,0.225429 0.0470276,0.150067 0.0450433,0.292429 -0.00444882,0.317965 -0.0494724,0.0255551 -0.127673,-0.075378 -0.174677,-0.225425 -0.047063,-0.150091 -0.0450433,-0.292433 0.00442913,-0.317969z"/>
  <path class="fil4" d="M4.44252 2.52776c-0.0642008,-0.0255551 -0.149606,0.075378 -0.190736,0.225429 -0.041126,0.150067 -0.0223661,0.292429 0.0418661,0.317965 0.0642165,0.0255551 0.149606,-0.075378 0.19072,-0.225425 0.041122,-0.150091 0.0223622,-0.292433 -0.0418504,-0.317969z"/>
  <path class="fil3" d="M2.82672 1.69422c-0.192713,0.146949 -0.202421,0.399906 -0.202421,0.472972 0,0.0730945 0.156244,0.0132402 0.348957,-0.133713 0.192736,-0.146953 0.348984,-0.325319 0.348984,-0.398413 0,-0.0730945 -0.302787,-0.0877992 -0.49552,0.0591535z"/>
  <path class="fil6" d="M3.44302 1.28511c0.543783,0 0.984571,0.50672 0.984571,1.13178 0,0.625102 -0.440787,1.13182 -0.984571,1.13182 -0.543744,0 -0.984547,-0.50672 -0.984547,-1.13182 0,-0.625063 0.440803,-1.13178 0.984547,-1.13178z"/>
  <path class="fil4" d="M4.19709 2.72235c-0.0154843,0.193614 0.14078,0.0913504 0.14078,0.161331 0,0.577563 -0.400646,1.04578 -0.89485,1.04578 -0.494205,0 -0.894831,-0.46822 -0.894831,-1.04578 0.105484,0.184866 0.121626,-0.0496614 0.116878,-0.157823 -0.0227087,-0.515547 0.259831,-0.846858 0.268748,-0.968646 -0.0241339,0.106606 0.465366,0.420571 0.956524,0.425311 0.0974724,0.000944882 0.12615,-0.0392677 0.179543,0.0401575 0.0653425,0.0971929 0.130138,0.381803 0.127209,0.499669z"/>
  <path class="fil6" d="M3.13991 2.45791c0.0425197,0 0.0770079,0.0698898 0.0770079,0.156118 0,0.0862205 -0.0344882,0.15611 -0.0770079,0.15611 -0.0425433,0 -0.0770315,-0.0698898 -0.0770315,-0.15611 0,-0.0862283 0.0344882,-0.156118 0.0770315,-0.156118z"/>
  <path class="fil7" d="M3.15115 2.64256c0.0250236,0 0.0453307,0.0244528 0.0453307,0.054622 0,0.0301654 -0.0203071,0.0546024 -0.0453307,0.0546024 -0.0250197,0 -0.0453346,-0.024437 -0.0453346,-0.0546024 0,-0.0301693 0.020315,-0.054622 0.0453346,-0.054622z"/>
  <path class="fil6" d="M3.74616 2.45791c0.0425394,0 0.0770276,0.0698898 0.0770276,0.156118 0,0.0862205 -0.0344882,0.15611 -0.0770276,0.15611 -0.0425394,0 -0.0770276,-0.0698898 -0.0770276,-0.15611 0,-0.0862283 0.0344882,-0.156118 0.0770276,-0.156118z"/>
  <path class="fil7" d="M3.75741 2.64256c0.0250157,0 0.0453307,0.0244528 0.0453307,0.054622 0,0.0301654 -0.020315,0.0546024 -0.0453307,0.0546024 -0.0250591,0 -0.0453386,-0.024437 -0.0453386,-0.0546024 0,-0.0301693 0.0202795,-0.054622 0.0453386,-0.054622z"/>
  <path class="fil9" d="M3.75596 3.51541c-0.168921,-0.267504 -0.456965,-0.267504 -0.625909,0l0.625909 0z"/>
  <path class="fil10" d="M3.02344 2.2535c-0.0366417,0.0282598 -0.0662126,-0.0149803 -0.0295709,-0.0431496 0.0916693,-0.0704724 0.227394,-0.0440315 0.294248,0.0569449 0.027189,0.0410354 -0.0245394,0.0906496 -0.0516299,0.0497165 -0.0460748,-0.0695591 -0.149606,-0.112169 -0.213047,-0.0635118z"/>
  <path class="fil10" d="M3.86263 2.3207c0.0366811,0.0282756 0.0662165,-0.0149606 0.0295394,-0.0431575 -0.0916496,-0.0704724 -0.227374,-0.0440236 -0.294228,0.0569488 -0.0271772,0.0410315 0.0245512,0.0906535 0.051626,0.0497441 0.0460394,-0.0695591 0.149606,-0.112193 0.213063,-0.0635354z"/>
  <path class="fil11" d="M3.54627 3.01977c0.0258307,-0.0214449 0.0644213,-0.000748031 0.0385945,0.0207283 -0.0782362,0.0650984 -0.204929,0.0650984 -0.283181,0 -0.0258622,-0.0214764 0.00900394,-0.0383268 0.0385748,-0.0207283 0.0587362,0.0349409 0.151764,0.0335748 0.206012,0z"/>
  <path class="fil4" d="M4.43291 2.52776c-0.0642323,-0.0255551 -0.149606,0.075378 -0.190736,0.225429 -0.0411063,0.150067 -0.0223819,0.292429 0.0418346,0.317965 0.0642323,0.0255551 0.149638,-0.075378 0.190732,-0.225425 0.0411299,-0.150091 0.0224016,-0.292433 -0.0418307,-0.317969z"/>
  <path class="fil4" d="M2.45314 2.52776c0.0642323,-0.0255551 0.149606,0.075378 0.190732,0.225429 0.041126,0.150067 0.0223976,0.292429 -0.0418346,0.31798 -0.0642165,0.0255394 -0.149622,-0.0753937 -0.190717,-0.225441 -0.041126,-0.150075 -0.0223976,-0.292433 0.0418189,-0.317969z"/>
  <path class="fil12" d="M3.04178 3.8187c-0.176535,-0.103673 -0.319661,-0.273622 -0.405469,-0.481906l-0.428303 0.0627047 0.418071 0.522583 0.321157 0.401449 0.0492087 0.0615079 -0.0446772 0.0641575 -0.201079 0.288756 0.586862 0.797079 -0.0153465 -0.665886 -0.179685 -0.539047 -0.29678 -0.494665 0.196039 -0.0167323z"/>
  <path class="fil4" d="M3.76667 3.85897c-0.100366,0.0455276 -0.209512,0.0705 -0.32365,0.0705 -0.134622,0 -0.262307,-0.0347441 -0.376831,-0.0969764l0.259358 0.393622 0.0119449 0.0247165 0.0878031 0.263417 0.0886063 -0.266063 0.0119488 -0.0251299 0.240819 -0.364087z"/>
  <path class="fil12" d="M4.0276 3.83543l-0.319024 0.492917 -0.176406 0.529697 0.0157126 0.68176 0.553492 -0.799874 -0.202461 -0.290736 -0.0446811 -0.0641575 0.0492126 -0.0615079 0.738465 -0.923079 -0.395622 -0.0553661c-0.0867362,0.205843 -0.229701,0.373508 -0.405461,0.475622l0.186772 0.0147244z"/>
  <g>
   <path class="fil13" d="M4.07135 1.49945c0.230811,0.0276417 0.426433,0.0713504 0.564098,0.125496 0.166319,0.0654173 0.262465,0.158772 0.262465,0.275224 0,0.149016 -0.175433,0.266713 -0.459067,0.336528 -0.245441,0.0604213 -0.583339,0.0977913 -0.955496,0.0977913 -0.372161,0 -0.710059,-0.0373701 -0.9555,-0.0977913 -0.28363,-0.069815 -0.459067,-0.187512 -0.459067,-0.336528 0,-0.115937 0.0949252,-0.20887 0.259315,-0.274102 0.135807,-0.0538937 0.329031,-0.0975472 0.557378,-0.125457l0.067185 -0.00820866 0.0233268 0.078c0.0162559,0.0543583 0.0726378,0.106303 0.154776,0.147449 0.0930709,0.0466299 0.21422,0.0746929 0.347654,0.0746929 0.134319,0 0.25572,-0.0280551 0.348409,-0.0746535 0.0821102,-0.0412717 0.138378,-0.0933583 0.15435,-0.147815l0.0230748 -0.0786614 0.0670984 0.00803543z"/>
   <path class="fil14" d="M3.47841 0.921358c0.0853425,0 0.156929,-0.0176024 0.216622,-0.0322756 0.128465,-0.0315787 0.21672,-0.0532795 0.306748,0.0671772 0.0240039,0.0321102 0.0585787,0.141181 0.0886378,0.256244 0.0357835,0.136949 0.069185,0.293976 0.069185,0.331642 0,0.143114 -0.0852559,0.265791 -0.223094,0.348445 -0.118705,0.0711772 -0.280791,0.115209 -0.458098,0.115209 -0.177307,0 -0.33939,-0.0440315 -0.458098,-0.115209 -0.137835,-0.0826535 -0.223094,-0.205331 -0.223094,-0.348445 0,-0.0329094 0.0304252,-0.195106 0.0620512,-0.335902 0.0260315,-0.115902 0.0555354,-0.225197 0.0752402,-0.255492 0.0858504,-0.132008 0.177677,-0.106728 0.311394,-0.0699213 0.0633661,0.0174409 0.139953,0.0385276 0.232508,0.0385276z"/>
  </g>
  <path class="fil13" d="M1.01722 0.918354l0 0.242669 -0.0670551 0 0 -0.159c-0.0108346,0.00822047 -0.0213346,0.0148898 -0.0315,0.02 -0.0101142,0.00511024 -0.0228346,0.01 -0.0381693,0.0146654l0 -0.0543898c0.0226142,-0.00727559 0.0401142,-0.016 0.0526142,-0.0261654 0.0124449,-0.0102205 0.0222205,-0.0228346 0.0292756,-0.0377795l0.0548346 0zm0.0786102 0.17689l0.0708346 0 0 0.0545591c0,0.0200551 -0.00416535,0.0358858 -0.0125551,0.0475 -0.00833465,0.0116102 -0.0226102,0.0218858 -0.0427795,0.0307756l-0.0155 -0.0289449c0.0126142,-0.00588976 0.0212795,-0.0117205 0.026,-0.0175 0.00472441,-0.00583071 0.00733465,-0.0126654 0.00788976,-0.0206102l-0.0338898 0 0 -0.0657795zm0.14439 -0.0625c-0.0104449,-0.0055 -0.018,-0.0117205 -0.0227756,-0.0185551 -0.0065,-0.00933071 -0.00977953,-0.0200551 -0.00977953,-0.0322205 0,-0.0199449 0.00938976,-0.0362795 0.0281654,-0.049 0.0146142,-0.00972441 0.034,-0.0146142 0.0581142,-0.0146142 0.0318858,0 0.0554449,0.00605906 0.0707205,0.0182244 0.0152244,0.0121654 0.0228346,0.0274449 0.0228346,0.0458898 0,0.0107205 -0.003,0.0207756 -0.00911024,0.0301102 -0.00455512,0.00694488 -0.0117244,0.0136654 -0.0215,0.0201654 0.0129449,0.00622441 0.0225551,0.0143898 0.0288858,0.0246142 0.00638976,0.0101654 0.00955906,0.0214409 0.00955906,0.0338307 0,0.0119449 -0.00272441,0.0231142 -0.00822441,0.0334449 -0.0055,0.0103898 -0.0122205,0.0183898 -0.0201654,0.024 -0.008,0.00566929 -0.0179449,0.00983465 -0.0297795,0.0124449 -0.0118898,0.00266535 -0.0245551,0.004 -0.0380551,0.004 -0.0252795,0 -0.0445551,-0.00294488 -0.0579449,-0.00894488 -0.0133346,-0.00594488 -0.0234449,-0.0147756 -0.0303898,-0.0263898 -0.00694488,-0.0115551 -0.0104449,-0.0245551 -0.0104449,-0.0388858 0,-0.014 0.00327953,-0.0258346 0.00977953,-0.0355591 0.0065,-0.00972047 0.0165551,-0.0172205 0.0301102,-0.0225551zm0.0297795 -0.0468307c0,0.00822047 0.00255512,0.0148858 0.00772047,0.0199449 0.00516929,0.005 0.012,0.00755512 0.0206102,0.00755512 0.00755906,0 0.0138346,-0.0025 0.0187244,-0.0075 0.00488976,-0.005 0.00733465,-0.0114449 0.00733465,-0.0193898 0,-0.00822441 -0.00255906,-0.0149449 -0.00766929,-0.0200551 -0.00511024,-0.00516929 -0.0116102,-0.00777953 -0.0195551,-0.00777953 -0.008,0 -0.0145551,0.00255512 -0.0196102,0.00761024 -0.00505512,0.005 -0.00755512,0.0115551 -0.00755512,0.0196142zm-0.00355512 0.102665c0,0.0105551 0.00316535,0.0191654 0.00955512,0.0258346 0.00644488,0.00666535 0.0137205,0.01 0.022,0.01 0.00788976,0 0.015,-0.00338976 0.0213307,-0.0101693 0.00627953,-0.00677559 0.00944488,-0.0153858 0.00944488,-0.0258307 0,-0.0105 -0.00322047,-0.0191142 -0.00955512,-0.0258346 -0.00633071,-0.00677953 -0.0136654,-0.0101102 -0.0220551,-0.0101102 -0.00822047,0 -0.0154449,0.00322047 -0.0215551,0.00977559 -0.00611024,0.0065 -0.00916535,0.0152795 -0.00916535,0.0263346zm-0.249224 0.978882l0 0.242669 -0.0670551 0 0 -0.159c-0.0108346,0.00822047 -0.0213346,0.0148898 -0.0315,0.02 -0.0101142,0.00511024 -0.0228346,0.01 -0.0381693,0.0146654l0 -0.0543898c0.0226142,-0.00727559 0.0401142,-0.016 0.0526142,-0.0261654 0.0124449,-0.0102205 0.0222205,-0.0228346 0.0292756,-0.0377795l0.0548346 0zm0.0786102 0.17689l0.0708346 0 0 0.0545591c0,0.0200551 -0.00416535,0.0358858 -0.0125551,0.0475 -0.00833465,0.0116102 -0.0226102,0.0218858 -0.0427795,0.0307756l-0.0155 -0.0289449c0.0126142,-0.00588976 0.0212795,-0.0117205 0.026,-0.0175 0.00472441,-0.00583071 0.00733465,-0.0126654 0.00788976,-0.0206102l-0.0338898 0 0 -0.0657795zm0.105669 -0.172831l0.1935 0 0 0.0447756c-0.0168346,0.0151654 -0.0308898,0.0316102 -0.0421693,0.0492795 -0.0136654,0.0215 -0.0244409,0.0454449 -0.0323858,0.0717756 -0.00627953,0.0205591 -0.0105,0.0447795 -0.0126693,0.0727795l-0.0661102 0c0.00522441,-0.0389449 0.0133898,-0.0716102 0.0246102,-0.098 0.0111693,-0.0263346 0.0288346,-0.0545551 0.0530551,-0.0846102l-0.117831 0 0 -0.056zm-0.18428 1.14505l0 0.242669 -0.0670551 0 0 -0.159c-0.0108346,0.00822047 -0.0213346,0.0148898 -0.0315,0.02 -0.0101142,0.00511024 -0.0228346,0.01 -0.0381693,0.0146654l0 -0.0543898c0.0226142,-0.00727559 0.0401142,-0.016 0.0526142,-0.0261654 0.0124449,-0.0102205 0.0222205,-0.0228346 0.0292756,-0.0377795l0.0548346 0zm0.0786102 0.17689l0.0708346 0 0 0.0545591c0,0.0200551 -0.00416535,0.0358858 -0.0125551,0.0475 -0.00833465,0.0116102 -0.0226102,0.0218858 -0.0427795,0.0307756l-0.0155 -0.0289449c0.0126142,-0.00588976 0.0212795,-0.0117205 0.026,-0.0175 0.00472441,-0.00583071 0.00733465,-0.0126654 0.00788976,-0.0206102l-0.0338898 0 0 -0.0657795zm0.29639 -0.11911l-0.0658898 0.00811024c-0.00177559,-0.00922047 -0.00466535,-0.0157205 -0.00872047,-0.0195 -0.00405512,-0.00383071 -0.00911024,-0.00572047 -0.0150551,-0.00572047 -0.0107244,0 -0.0191102,0.00544488 -0.0250551,0.0162756 -0.00433465,0.00783465 -0.00755512,0.0245591 -0.00961024,0.0501693 0.00788583,-0.00805512 0.0160551,-0.014 0.0243858,-0.0178346 0.00838976,-0.00388976 0.0180551,-0.00577559 0.029,-0.00577559 0.0212795,0 0.0392244,0.00755512 0.0539449,0.0227756 0.0147244,0.0151654 0.0220551,0.0344449 0.0220551,0.0577795 0,0.0157205 -0.00372047,0.0301102 -0.0111654,0.0431102 -0.00738976,0.0130551 -0.0177205,0.0228898 -0.0308898,0.0295551 -0.0132205,0.00666535 -0.0297205,0.01 -0.0495551,0.01 -0.0238898,0 -0.0430551,-0.00405512 -0.0575,-0.0121654 -0.0143898,-0.00816929 -0.0259449,-0.0211693 -0.0345551,-0.039 -0.00861024,-0.0178346 -0.0129449,-0.0415 -0.0129449,-0.0708898 0,-0.0430551 0.00905512,-0.0746102 0.0271654,-0.0946693 0.0181142,-0.02 0.0432795,-0.03 0.0753898,-0.03 0.0189449,0 0.0339449,0.00216929 0.045,0.00655906 0.011,0.00444094 0.0201693,0.0108307 0.0273898,0.0193307 0.00727953,0.00844488 0.0128346,0.0190551 0.0166102,0.0318898zm-0.122055 0.10628c0,0.0128858 0.00327953,0.0230551 0.00977953,0.0303307 0.0065,0.00733465 0.0144449,0.011 0.0238858,0.011 0.00872441,0 0.0159449,-0.00327559 0.0218346,-0.00994094 0.00583465,-0.00661417 0.00877953,-0.0164449 0.00877953,-0.0296142 0,-0.0134449 -0.00305512,-0.0237205 -0.00911417,-0.0307756 -0.00605512,-0.007 -0.0136102,-0.0105551 -0.0226102,-0.0105551 -0.00922047,0 -0.0169449,0.00344094 -0.0232205,0.0102756 -0.00622441,0.00683465 -0.00933465,0.0165551 -0.00933465,0.0292795zm-0.252945 0.985047l0 0.242669 -0.0670551 0 0 -0.159c-0.0108346,0.00822047 -0.0213346,0.0148898 -0.0315,0.02 -0.0101142,0.00511024 -0.0228346,0.01 -0.0381693,0.0146654l0 -0.0543898c0.0226142,-0.00727559 0.0401142,-0.016 0.0526142,-0.0261654 0.0124449,-0.0102205 0.0222205,-0.0228346 0.0292756,-0.0377795l0.0548346 0zm0.0786102 0.17689l0.0708346 0 0 0.0545591c0,0.0200551 -0.00416535,0.0358858 -0.0125551,0.0475 -0.00833465,0.0116102 -0.0226102,0.0218858 -0.0427795,0.0307756l-0.0155 -0.0289449c0.0126142,-0.00588976 0.0212795,-0.0117205 0.026,-0.0175 0.00472441,-0.00583071 0.00733465,-0.0126654 0.00788976,-0.0206102l-0.0338898 0 0 -0.0657795zm0.13139 -0.172831l0.15739 0 0 0.0528858 -0.10661 0 -0.00572441 0.0358346c0.00738976,-0.0035 0.0146693,-0.00611024 0.0218898,-0.00783465 0.00722441,-0.00172047 0.0143346,-0.00261024 0.0213898,-0.00261024 0.0238898,0 0.0432795,0.00722441 0.0581102,0.0216693 0.0148898,0.0144409 0.0223346,0.0326102 0.0223346,0.0545 0,0.0154409 -0.00383465,0.0302205 -0.0115,0.0444449 -0.00766535,0.0142205 -0.0185,0.0250551 -0.0325551,0.0325551 -0.0140551,0.0075 -0.0320551,0.0112205 -0.0539449,0.0112205 -0.0157244,0 -0.0292244,-0.0015 -0.0404449,-0.00444488 -0.0112244,-0.003 -0.0207795,-0.00744488 -0.0286693,-0.0133898 -0.00783071,-0.00588583 -0.0142205,-0.0126102 -0.0191102,-0.0200551 -0.00488976,-0.0075 -0.00894488,-0.0168307 -0.0122205,-0.028l0.0670551 -0.00733071c0.00166535,0.0107205 0.00544488,0.0188858 0.0113898,0.0245 0.006,0.00555512 0.0131102,0.00838583 0.0213307,0.00838583 0.00922441,0 0.0168346,-0.0035 0.0228898,-0.0105 0.006,-0.007 0.009,-0.0174449 0.009,-0.0313307 0,-0.0142244 -0.003,-0.0246693 -0.00911024,-0.0312795 -0.00605512,-0.00661024 -0.0141654,-0.00988976 -0.0242205,-0.00988976 -0.00638976,0 -0.0126142,0.00155512 -0.0185591,0.00466929 -0.00444094,0.00233071 -0.00933071,0.00644488 -0.0146654,0.0123858l-0.0564449 -0.00811024 0.021 -0.128276zm-0.21 1.14505l0 0.242669 -0.0670551 0 0 -0.159c-0.0108346,0.00822047 -0.0213346,0.0148898 -0.0315,0.02 -0.0101142,0.00511024 -0.0228346,0.01 -0.0381693,0.0146654l0 -0.0543898c0.0226142,-0.00727559 0.0401142,-0.016 0.0526142,-0.0261654 0.0124449,-0.0102205 0.0222205,-0.0228346 0.0292756,-0.0377795l0.0548346 0zm0.0786102 0.17689l0.0708346 0 0 0.0545591c0,0.0200551 -0.00416535,0.0358858 -0.0125551,0.0475 -0.00833465,0.0116102 -0.0226102,0.0218858 -0.0427795,0.0307756l-0.0155 -0.0289449c0.0126142,-0.00588976 0.0212795,-0.0117205 0.026,-0.0175 0.00472441,-0.00583071 0.00733465,-0.0126654 0.00788976,-0.0206102l-0.0338898 0 0 -0.0657795zm0.218445 0.0211693l-0.120776 0 0 -0.0545 0.120776 -0.143559 0.0577795 0 0 0.146614 0.0299449 0 0 0.0514449 -0.0299449 0 0 0.0446102 -0.0577795 0 0 -0.0446102zm0 -0.0514449l0 -0.075 -0.0638307 0.075 0.0638307 0z"/>
 </g>
</svg>
