<?xml version="1.0" encoding="UTF-8"?>
<!DOCTYPE svg PUBLIC "-//W3C//DTD SVG 1.1//EN" "http://www.w3.org/Graphics/SVG/1.1/DTD/svg11.dtd">
<!-- Creator: CorelDRAW -->
<svg xmlns="http://www.w3.org/2000/svg" xml:space="preserve" width="6.82666in" height="6.82666in" style="shape-rendering:geometricPrecision; text-rendering:geometricPrecision; image-rendering:optimizeQuality; fill-rule:evenodd; clip-rule:evenodd"
viewBox="0 0 6.82666 6.82666"
 xmlns:xlink="http://www.w3.org/1999/xlink">
 <defs>
  <style type="text/css">
   <![CDATA[
    .str0 {stroke:#202020;stroke-width:0.00333465}
    .fil0 {fill:none}
    .fil5 {fill:#202020}
    .fil1 {fill:#393939}
    .fil3 {fill:#414141}
    .fil2 {fill:#616161}
    .fil4 {fill:#202020;fill-rule:nonzero}
   ]]>
  </style>
 </defs>
 <g id="Layer_x0020_1">
  <metadata id="CorelCorpID_0Corel-Layer"/>
  <rect class="fil0" width="6.82666" height="6.82666"/>
  <g id="_490569456">
   <path id="_490571472" class="fil1 str0" d="M2.65649 0.853331l0.199697 0c0.0850669,0 0.154665,0.0765236 0.154665,0.170047l0 1.12618 0.228035 0.381614 -0.228035 0.00147638 0 0.10837 -0.509028 0 0 -1.61764c0,-0.0935236 0.0695984,-0.170047 0.154665,-0.170047z"/>
   <path id="_490571520" class="fil2" d="M3.01085 2.13563l0 0.0139291 0.228035 0.381614 -0.228035 0.00147638 0 0.10837 -0.509028 0 0 -0.501323c0.159736,-0.0144567 0.330858,-0.0139055 0.509028,-0.00406693z"/>
   <path id="_490570200" class="fil3" d="M2.7818 2.42603l1.26306 0c0.184756,0 0.346232,0.151457 0.335913,0.335913l-0.107492 1.92146 -0.0408346 0.954012c-0.0078937,0.184571 -0.151177,0.335917 -0.335913,0.335917l-0.956134 0c-0.184732,0 -0.326035,-0.151425 -0.335913,-0.335917l-0.0511063 -0.954012 -0.107496 -1.92146c-0.0103189,-0.184465 0.151157,-0.335913 0.335913,-0.335913z"/>
   <polygon id="_490570368" class="fil2" points="3.98294,3.03974 4.21666,2.87933 4.21666,3.40664 3.98294,3.40664 "/>
   <polygon id="_490570512" class="fil2" points="2.84563,3.03974 2.61192,2.87933 2.61192,3.40664 2.84563,3.40664 "/>
   <path id="_490570776" class="fil2" d="M2.89583 3.87992l-0.11787 0.214465c-0.144583,-0.130146 -0.176835,-0.325815 -0.166039,-0.54661l0.283909 0 0 0.332146z"/>
   <path id="_490569624" class="fil2" d="M3.93083 3.87992l0.11787 0.214465c0.144583,-0.130146 0.176835,-0.325815 0.166039,-0.54661l-0.283909 0 0 0.332146z"/>
   <path id="_490569552" class="fil4" d="M2.88777 4.32482c0.340016,0.183417 0.710425,0.17898 1.05132,-9.84252e-005 0.0743858,0.2675 -1.04229,0.322012 -1.05132,9.84252e-005z"/>
   <path id="_490569912" class="fil5" d="M3.23716 2.86832l0.352343 0c0.147807,0 0.268736,0.120937 0.268736,0.268736l0 0.740657c0,0.147799 -0.120937,0.268732 -0.268736,0.268732l-0.352343 0c-0.147799,0 -0.268736,-0.120925 -0.268736,-0.268732l0 -0.740657c0,-0.147807 0.120929,-0.268736 0.268736,-0.268736z"/>
   <path id="_490569696" class="fil4" d="M2.88777 4.57601c0.340016,0.183417 0.710425,0.17898 1.05132,-9.84252e-005 0.0743858,0.2675 -1.04229,0.322012 -1.05132,9.84252e-005z"/>
   <path id="_490569984" class="fil4" d="M2.88777 4.82719c0.340016,0.183417 0.710425,0.17898 1.05132,-9.84252e-005 0.0743858,0.2675 -1.04229,0.322016 -1.05132,9.84252e-005z"/>
   <path id="_490569744" class="fil4" d="M2.88777 5.07838c0.340016,0.183417 0.710425,0.17898 1.05132,-9.84252e-005 0.0743858,0.2675 -1.04229,0.322016 -1.05132,9.84252e-005z"/>
   <path id="_490570152" class="fil4" d="M2.88777 5.32956c0.340016,0.183417 0.710425,0.17898 1.05132,-9.84252e-005 0.0743858,0.2675 -1.04229,0.322016 -1.05132,9.84252e-005z"/>
  </g>
 </g>
</svg>
