<?xml version="1.0" encoding="UTF-8"?>
<!DOCTYPE svg PUBLIC "-//W3C//DTD SVG 1.1//EN" "http://www.w3.org/Graphics/SVG/1.1/DTD/svg11.dtd">
<!-- Creator: CorelDRAW -->
<svg xmlns="http://www.w3.org/2000/svg" xml:space="preserve" width="6.82666in" height="6.82666in" style="shape-rendering:geometricPrecision; text-rendering:geometricPrecision; image-rendering:optimizeQuality; fill-rule:evenodd; clip-rule:evenodd"
viewBox="0 0 6.82666 6.82666"
 xmlns:xlink="http://www.w3.org/1999/xlink">
 <defs>
  <style type="text/css">
   <![CDATA[
    .fil0 {fill:none}
    .fil4 {fill:#A5A5A6}
    .fil5 {fill:#FBFBFC}
    .fil3 {fill:#5C5C5C;fill-rule:nonzero}
    .fil2 {fill:#797979;fill-rule:nonzero}
    .fil1 {fill:#BBBBBC;fill-rule:nonzero}
   ]]>
  </style>
 </defs>
 <g id="Layer_x0020_1">
  <metadata id="CorelCorpID_0Corel-Layer"/>
  <rect class="fil0" width="6.82666" height="6.82666"/>
  <g id="_490571952">
   <path id="_490572696" class="fil1" d="M4.44986 4.37706l0 0.0108661 -0.0144921 0.0041378 -0.00437795 0.0045315 -0.00263386 -0.00253543 -0.0531575 0.0151772c-0.0979803,0.0279606 -0.182984,0.0876535 -0.243063,0.167118 -0.0585157,0.0773937 -0.0933071,0.173689 -0.0933071,0.277807 0,0.104118 0.0347913,0.200413 0.0933071,0.277807 0.0600787,0.0794646 0.145083,0.139157 0.243063,0.167118l0.000161417 4.72441e-005 1.26528 -1.46878c-0.0878228,-0.0741929 -0.151402,-0.188602 -0.179193,-0.321492 -0.0107913,-0.0516024 -0.0162717,-0.106276 -0.0157402,-0.162634l-0.995846 1.03083zm-0.000976378 1.14503l-0.101783 0 -2.82584 0c-0.183783,0 -0.350795,-0.0751181 -0.471807,-0.196122 -0.121008,-0.121012 -0.196122,-0.288028 -0.196122,-0.471807 0,-0.18378 0.0751142,-0.350795 0.196122,-0.471807 0.0554606,-0.0554606 0.120594,-0.101272 0.192567,-0.134638l0.906449 -0.642713 2.15326 -0.0421693 0.0904134 -0.000224409 0.731646 -0.821835 0.596154 0.0429646 0.211413 0.00325591 -0.133142 0.163728c-0.0513543,0.0631457 -0.0880709,0.13072 -0.112091,0.198917 -0.038874,0.110358 -0.0440433,0.221567 -0.0239803,0.317472 0.018878,0.0902677 0.059374,0.165055 0.11387,0.20937 0.0171299,0.0139291 0.0358465,0.0247165 0.0558228,0.031752l0.141492 0.0498425 -0.0981417 0.113925 -1.42353 1.65248 -0.00277559 -0.00239764zm-0.428453 -1.13033l-2.49917 0c-0.127059,0 -0.242642,0.0520512 -0.3265,0.135909 -0.0838583,0.0838543 -0.135909,0.199441 -0.135909,0.326496 0,0.127055 0.0520512,0.242642 0.135909,0.326496 0.0838583,0.0838583 0.199441,0.135909 0.3265,0.135909l2.49917 0c-0.0185315,-0.0192598 -0.0359252,-0.039622 -0.0520669,-0.0609724 -0.0846929,-0.112024 -0.135059,-0.251185 -0.135059,-0.401433 0,-0.150248 0.0503661,-0.289409 0.135059,-0.401433 0.0161417,-0.0213504 0.0335354,-0.0417126 0.0520669,-0.0609724z"/>
   <g>
    <path id="_490573128" class="fil2" d="M1.52126 2.74022l2.82584 0 0.10276 0 0 0.102764 0 0.0214961 0 0.077437 -0.0746614 0.0213071c-0.0979803,0.0279606 -0.182984,0.0876535 -0.243063,0.167118 -0.0585157,0.0773937 -0.0933071,0.173689 -0.0933071,0.277807 0,0.104118 0.0347913,0.200413 0.0933071,0.277807 0.0600787,0.0794646 0.145083,0.139157 0.243063,0.167118l0.0746614 0.0213071 0 0.077437 0 0.0215 0 0.10276 -0.10276 0 -2.82584 0c-0.183783,0 -0.350795,-0.0751181 -0.471807,-0.196122 -0.121008,-0.121012 -0.196122,-0.288028 -0.196122,-0.471807 0,-0.18378 0.0751142,-0.350795 0.196122,-0.471803 0.121012,-0.121008 0.288024,-0.196126 0.471807,-0.196126zm2.49917 0.205524l-2.49917 0c-0.127059,0 -0.242642,0.0520512 -0.3265,0.135909 -0.0838583,0.0838543 -0.135909,0.199441 -0.135909,0.326496 0,0.127059 0.0520551,0.242642 0.135909,0.3265 0.0838583,0.0838543 0.199441,0.135906 0.3265,0.135906l2.49917 0c-0.0185315,-0.0192559 -0.0359252,-0.039622 -0.0520669,-0.0609685 -0.0846929,-0.112028 -0.135059,-0.251193 -0.135059,-0.401437 0,-0.150248 0.0503661,-0.289409 0.135059,-0.401433 0.0161417,-0.0213504 0.0335354,-0.0417126 0.0520669,-0.0609724z"/>
    <polygon id="_490572240" class="fil2" points="5.75681,1.57817 4.43099,2.95058 4.28328,2.80848 5.6091,1.43607 "/>
    <path id="_490571832" class="fil3" d="M4.29672 3.94441l1.34392 -1.56007c-0.0878228,-0.0741929 -0.151402,-0.188602 -0.179193,-0.321492 -0.0272559,-0.130319 -0.0206732,-0.280189 0.0312008,-0.427457 0.0113031,-0.0320906 0.0247835,-0.0640945 0.0405512,-0.0957874l-1.1619 1.24678 -2.97829 0.116571 -0.0417047 0.0726693 -0.118016 -0.167783 2.1185 -1.4872 0.0602126 -0.0184646 2.30794 0.0355551 0.211409 0.00325591 -0.133138 0.163728c-0.0513543,0.0631457 -0.0880709,0.13072 -0.112091,0.198917 -0.038874,0.110358 -0.0440394,0.221571 -0.0239803,0.317472 0.018878,0.0902677 0.059374,0.165055 0.11387,0.20937 0.0171299,0.0139291 0.0358465,0.0247165 0.0558228,0.031752l0.141492 0.0498465 -0.0981417 0.113921 -1.42353 1.65249 -0.154941 -0.134067z"/>
    <path id="_490571880" class="fil4" d="M4.02043 2.94574l-2.49917 0c-0.127059,0 -0.242642,0.0520512 -0.3265,0.135909 -0.0838583,0.0838543 -0.135909,0.199441 -0.135909,0.326496 0,0.127059 0.0520551,0.242642 0.135909,0.3265 0.0838583,0.0838543 0.199441,0.135906 0.3265,0.135906l2.49917 0c-0.0185315,-0.0192559 -0.0359252,-0.039622 -0.0520669,-0.0609685 -0.0846929,-0.112028 -0.135059,-0.251193 -0.135059,-0.401437 0,-0.150248 0.0503661,-0.289409 0.135059,-0.401433 0.0161417,-0.0213504 0.0335354,-0.0417126 0.0520669,-0.0609724z"/>
    <path id="_490571760" class="fil4" d="M4.3752 2.96322c-0.0979803,0.0279606 -0.182984,0.0876535 -0.243063,0.167118 -0.0585157,0.0773937 -0.0933071,0.173689 -0.0933071,0.277807 0,0.104118 0.0347913,0.200413 0.0933071,0.277807 0.0600787,0.0794646 0.145083,0.139157 0.243063,0.167118l0.000161417 4.72441e-005 1.26528 -1.46878c-0.0878228,-0.0741929 -0.151402,-0.188602 -0.179193,-0.321492 -0.0107913,-0.0515984 -0.0162795,-0.106268 -0.015748,-0.16263l-0.995839 1.03083 0 0.0108701 -0.0144961 0.0041378 -0.00437402 0.00452756 -0.00262992 -0.0025315 -0.0531614 0.0151732z"/>
   </g>
   <path id="_490571856" class="fil5" d="M5.44571 3.34623l-0.995846 1.03083 0 0.0108661 -0.0144921 0.0041378 -0.00437795 0.0045315 -0.00263386 -0.00253543 -0.0531575 0.0151772c-0.0979803,0.0279606 -0.182984,0.0876535 -0.243063,0.167118 -0.0585157,0.0773937 -0.0933071,0.173689 -0.0933071,0.277807 0,0.104118 0.0347913,0.200413 0.0933071,0.277807 0.0600787,0.0794646 0.145083,0.139157 0.243063,0.167118l0.000161417 4.72441e-005 1.26528 -1.46878c-0.0878228,-0.0741929 -0.151402,-0.188602 -0.179193,-0.321492 -0.0107913,-0.0516024 -0.0162717,-0.106276 -0.0157402,-0.162634z"/>
   <path id="_490571736" class="fil5" d="M4.02043 4.39176l-2.49917 0c-0.127059,0 -0.242642,0.0520512 -0.3265,0.135909 -0.0838583,0.0838543 -0.135909,0.199441 -0.135909,0.326496 0,0.127055 0.0520512,0.242642 0.135909,0.326496 0.0838583,0.0838583 0.199441,0.135909 0.3265,0.135909l2.49917 0c-0.0185315,-0.0192598 -0.0359252,-0.039622 -0.0520669,-0.0609724 -0.0846929,-0.112024 -0.135059,-0.251185 -0.135059,-0.401433 0,-0.150248 0.0503661,-0.289409 0.135059,-0.401433 0.0161417,-0.0213504 0.0335354,-0.0417126 0.0520669,-0.0609724z"/>
  </g>
 </g>
</svg>
