<?xml version="1.0" encoding="UTF-8"?>
<!DOCTYPE svg PUBLIC "-//W3C//DTD SVG 1.1//EN" "http://www.w3.org/Graphics/SVG/1.1/DTD/svg11.dtd">
<!-- Creator: CorelDRAW -->
<svg xmlns="http://www.w3.org/2000/svg" xml:space="preserve" width="6.82666in" height="6.82666in" style="shape-rendering:geometricPrecision; text-rendering:geometricPrecision; image-rendering:optimizeQuality; fill-rule:evenodd; clip-rule:evenodd"
viewBox="0 0 6.82666 6.82666"
 xmlns:xlink="http://www.w3.org/1999/xlink">
 <defs>
  <style type="text/css">
   <![CDATA[
    .fil1 {fill:none}
    .fil4 {fill:#414141}
    .fil3 {fill:#6A6A6A}
    .fil0 {fill:#757575}
    .fil2 {fill:#BEBEBE}
   ]]>
  </style>
 </defs>
 <g id="Layer_x0020_1">
  <metadata id="CorelCorpID_0Corel-Layer"/>
  <polygon class="fil0" points="0.853331,0.853331 5.97333,0.853331 5.97333,5.97333 0.853331,5.97333 "/>
  <rect class="fil1" width="6.82666" height="6.82666"/>
  <polygon class="fil2" points="0.996394,0.996394 5.83027,0.996394 5.83027,5.83027 0.996394,5.83027 "/>
  <path class="fil3" d="M3.89952 2.49725c-0.0209685,0.0309764 -0.044874,0.0599094 -0.0713268,0.0863622 -0.101717,0.101717 -0.235858,0.161949 -0.378469,0.170732l0.444732 0.571319 0.0965591 0.124039 0.0544882 -0.147622 0.109059 -0.295476 0.392984 0.0152756 0.252457 0.0098189 -0.192992 -0.163598 -0.630508 -0.534469c-0.0169803,0.0581024 -0.0429094,0.113276 -0.0769843,0.163618z"/>
  <path class="fil3" d="M3.37609 2.75428l-0.443886 0.571378 -0.0964961 0.124209 -0.0545512 -0.147791 -0.109059 -0.295476 -0.392984 0.0152756 -0.252457 0.0098189 0.192992 -0.163598 0.630508 -0.534469c0.0169803,0.0581024 0.0429094,0.113276 0.0769843,0.163618l0 0c0.0208031,0.0307362 0.0446299,0.0596654 0.0713268,0.0863622 0.101516,0.101516 0.235327,0.161709 0.377622,0.170673z"/>
  <path class="fil3" d="M3.41333 1.66953c0.137846,0 0.262657,0.0558819 0.352996,0.146228 0.0903465,0.0903386 0.146228,0.21515 0.146228,0.352992 0,0.137846 -0.0558819,0.262657 -0.146228,0.353 -0.0903386,0.0903425 -0.21515,0.146224 -0.352996,0.146224 -0.137846,0 -0.262657,-0.0558819 -0.352996,-0.146224 -0.0903465,-0.0903425 -0.146228,-0.215154 -0.146228,-0.353 0,-0.137843 0.0558819,-0.262654 0.146228,-0.352992 0.0903386,-0.0903465 0.21515,-0.146228 0.352996,-0.146228z"/>
  <polygon class="fil4" points="1.38667,5.1132 5.44,5.1132 5.44,5.32654 1.38667,5.32654 "/>
  <polygon class="fil4" points="1.38667,4.58361 5.44,4.58361 5.44,4.79695 1.38667,4.79695 "/>
  <polygon class="fil4" points="2.18667,4.05333 4.64,4.05333 4.64,4.26667 2.18667,4.26667 "/>
 </g>
</svg>
