<?xml version="1.0" encoding="UTF-8"?>
<!DOCTYPE svg PUBLIC "-//W3C//DTD SVG 1.1//EN" "http://www.w3.org/Graphics/SVG/1.1/DTD/svg11.dtd">
<!-- Creator: CorelDRAW -->
<svg xmlns="http://www.w3.org/2000/svg" xml:space="preserve" width="6.82666in" height="6.82666in" style="shape-rendering:geometricPrecision; text-rendering:geometricPrecision; image-rendering:optimizeQuality; fill-rule:evenodd; clip-rule:evenodd"
viewBox="0 0 6.82666 6.82666"
 xmlns:xlink="http://www.w3.org/1999/xlink">
 <defs>
  <style type="text/css">
   <![CDATA[
    .fil3 {fill:none}
    .fil1 {fill:#565656}
    .fil2 {fill:#6A6A6A;fill-rule:nonzero}
    .fil0 {fill:#8C8D8D;fill-rule:nonzero}
   ]]>
  </style>
 </defs>
 <g id="Layer_x0020_1">
  <metadata id="CorelCorpID_0Corel-Layer"/>
  <polygon class="fil0" points="0.96,0.853331 5.86666,0.853331 5.97333,0.853331 5.97333,0.96 5.97333,5.86666 5.97333,5.97333 5.86666,5.97333 0.96,5.97333 0.853331,5.97333 0.853331,5.86666 0.853331,0.96 0.853331,0.853331 "/>
  <path class="fil1" d="M1.17333 1.17333l4.47999 0 0 4.47999 -4.47999 0 0 -4.47999zm2.34667 1.67408c0.079937,0.014685 0.154209,0.0455709 0.21928,0.0891339l0.172516 -0.172516c0.0416496,-0.0416496 0.109185,-0.0416496 0.150835,0 0.0416496,0.0416496 0.0416496,0.109185 0,0.150835l-0.17048 0.17048c0.0462362,0.0651772 0.0795,0.140201 0.0960276,0.221315l0.23674 0c0.0589094,0 0.106669,0.0477598 0.106669,0.106669 0,0.0589094 -0.0477598,0.106669 -0.106669,0.106669l-0.232677 0c-0.0137953,0.0841496 -0.0455039,0.162276 -0.0910669,0.230339l0.161453 0.161453c0.0416496,0.0416496 0.0416496,0.109185 0,0.150835 -0.0416496,0.0416496 -0.109185,0.0416496 -0.150835,0l-0.159413 -0.159413c-0.0681299,0.0483307 -0.147024,0.0824803 -0.232378,0.0981614l0 0.223543c0,0.0589094 -0.0477598,0.106669 -0.106669,0.106669 -0.0589094,0 -0.106669,-0.0477598 -0.106669,-0.106669l0 -0.223543c-0.0853543,-0.0156811 -0.164248,-0.0498307 -0.232378,-0.0981614l-0.159413 0.159413c-0.0416496,0.0416496 -0.109185,0.0416496 -0.150835,0 -0.0416496,-0.0416496 -0.0416496,-0.109185 0,-0.150835l0.161453 -0.161453c-0.0455669,-0.068063 -0.0772677,-0.146193 -0.0910669,-0.230339l-0.232681 0c-0.0589094,0 -0.106669,-0.0477598 -0.106669,-0.106669 0,-0.0589094 0.0477598,-0.106669 0.106669,-0.106669l0.236744 0c0.0165276,-0.0811142 0.0497913,-0.156138 0.0960276,-0.221315l-0.17048 -0.17048c-0.0416496,-0.0416496 -0.0416496,-0.109185 0,-0.150835 0.0416496,-0.0416496 0.109185,-0.0416496 0.150835,0l0.172516 0.172516c0.0650709,-0.043563 0.139343,-0.0744488 0.21928,-0.0891339l0 -0.245673c0,-0.0589094 0.0477598,-0.106669 0.106669,-0.106669 0.0589094,0 0.106669,0.0477598 0.106669,0.106669l0 0.245673zm-0.116075 0.950193c0.00310236,-0.000271654 0.00623622,-0.000417323 0.00940551,-0.000417323 0.00316929,0 0.00630315,0.000145669 0.00940551,0.000417323 0.0993701,-0.00245669 0.189102,-0.0437283 0.254591,-0.109217 0.0675472,-0.0675472 0.109335,-0.16089 0.109335,-0.263996 0,-0.103106 -0.0417874,-0.196449 -0.109335,-0.263996 -0.0675472,-0.0675472 -0.16089,-0.109335 -0.263996,-0.109335 -0.103106,0 -0.196449,0.0417874 -0.263996,0.109335 -0.0675472,0.0675472 -0.109335,0.16089 -0.109335,0.263996 0,0.103106 0.0417874,0.196449 0.109335,0.263996 0.0654882,0.0654882 0.15522,0.10676 0.254591,0.109217zm1.39607 -0.745165c0.121906,0 0.220732,0.0988268 0.220732,0.220732 0,0.0832126 -0.0460591,0.155661 -0.114063,0.193276l0 0.307768c0,0.0589094 -0.0477598,0.106669 -0.106669,0.106669 -0.0589094,0 -0.106669,-0.0477598 -0.106669,-0.106669l0 -0.307768c-0.0680039,-0.0376142 -0.114063,-0.110063 -0.114063,-0.193276 0,-0.121906 0.0988268,-0.220732 0.220732,-0.220732z"/>
  <g id="_490582944">
   <polygon id="_490583184" class="fil2" points="1.38666,2.74259 0.96,2.74259 0.96,2.0122 1.38666,2.0122 "/>
   <polygon id="_490582536" class="fil2" points="1.38666,4.81446 0.96,4.81446 0.96,4.08407 1.38666,4.08407 "/>
  </g>
  <rect class="fil3" width="6.82666" height="6.82666"/>
 </g>
</svg>
