<?xml version="1.0" encoding="UTF-8"?>
<!DOCTYPE svg PUBLIC "-//W3C//DTD SVG 1.1//EN" "http://www.w3.org/Graphics/SVG/1.1/DTD/svg11.dtd">
<!-- Creator: CorelDRAW -->
<svg xmlns="http://www.w3.org/2000/svg" xml:space="preserve" width="6.82666in" height="6.82666in" style="shape-rendering:geometricPrecision; text-rendering:geometricPrecision; image-rendering:optimizeQuality; fill-rule:evenodd; clip-rule:evenodd"
viewBox="0 0 6.82666 6.82666"
 xmlns:xlink="http://www.w3.org/1999/xlink">
 <defs>
  <style type="text/css">
   <![CDATA[
    .fil3 {fill:none}
    .fil2 {fill:#323232}
    .fil5 {fill:#CDCDCD}
    .fil0 {fill:#D0D0D1}
    .fil1 {fill:#A8A8A8;fill-rule:nonzero}
    .fil4 {fill:#B3B4B4;fill-rule:nonzero}
   ]]>
  </style>
 </defs>
 <g id="Layer_x0020_1">
  <metadata id="CorelCorpID_0Corel-Layer"/>
  <g id="_490585704">
   <path id="_490586448" class="fil0" d="M2.8537 3.34744l0 0.940669c0.151858,0.164193 0.428618,0.581028 0.609228,0.502028 0.179433,-0.0784803 0.357701,-0.32463 0.51502,-0.500819l0 -0.941878c0,-0.633689 -1.12425,-0.633689 -1.12425,0z"/>
   <path id="_490586064" class="fil1" d="M3.42931 4.1503c-0.00483071,0 -0.00968504,-8.66142e-005 -0.0145118,-0.000267717 -0.273898,-0.0102402 -0.561102,-0.294024 -0.561102,-0.294024l0 -0.033748 1.12425 0.00114173 0 0.0518898c0,0 -0.279106,0.275008 -0.548634,0.275008z"/>
   <path id="_490585944" class="fil0" d="M3.41676 1.38667c-1.72941,0 -1.06656,1.97224 -0.953602,2.12333 0.124563,0.166622 0.674228,0.533921 0.953602,0.533921 0.279461,0 0.829039,-0.367299 0.953665,-0.533921 0.112976,-0.151094 0.77578,-2.12333 -0.953665,-2.12333z"/>
   <path id="_490585728" class="fil0" d="M2.2436 2.63319c0.0989803,-0.0271693 0.22498,0.0664173 0.281346,0.208949 0.0563898,0.142559 0.0218425,0.280134 -0.0772126,0.30728 -0.0989764,0.027126 -0.22498,-0.066374 -0.281323,-0.208992 -0.0564409,-0.142559 -0.0218425,-0.280091 0.077189,-0.307236z"/>
   <path id="_490585896" class="fil0" d="M4.58311 2.63319c-0.0990551,-0.0271693 -0.225035,0.0664173 -0.281421,0.208949 -0.0563976,0.142559 -0.0217677,0.280134 0.0771811,0.30728 0.0990866,0.027126 0.225087,-0.066374 0.281429,-0.208992 0.0563661,-0.142559 0.0217677,-0.280091 -0.077189,-0.307236z"/>
  </g>
  <path class="fil2" d="M2.97335 4.26666l0.879957 0c0.457185,0 0.872748,0.186965 1.17396,0.488177 0.301213,0.301213 0.488177,0.716776 0.488177,1.17396l0 0.0977756 -0.0977756 0 -4.00868 0 -0.0977756 0 0 -0.0977795c0,-0.457185 0.186965,-0.872748 0.488177,-1.17396 0.301213,-0.301213 0.716776,-0.488177 1.17396,-0.488177z"/>
  <rect class="fil3" width="6.82666" height="6.82666"/>
  <path class="fil4" d="M5.07805 1.73915c0.0976063,0.0481181 0.172165,0.135657 0.214882,0.240992 0.0609567,0.150303 0.0521142,0.323492 -0.0209961,0.463638 -0.00205118,0.00393307 -0.00414567,0.00782283 -0.00628346,0.0116693 0.00995669,0.0213307 0.0185315,0.0436457 0.0255669,0.0667835 0.0149764,0.0492165 0.0231339,0.101909 0.0231339,0.156476 0,0.129181 -0.0447953,0.24615 -0.117205,0.330815 -0.0724094,0.0846654 -0.172449,0.137043 -0.282933,0.137043 -0.110484,0 -0.21052,-0.052378 -0.282929,-0.137043 -0.0724134,-0.0846654 -0.117209,-0.201634 -0.117209,-0.330815 0,-0.0545512 0.0083937,-0.107768 0.0237953,-0.157921 0.00724803,-0.0236024 0.0160472,-0.0462953 0.026248,-0.0679055 -0.0383583,-0.0697913 -0.0610669,-0.149764 -0.0656772,-0.232555 -0.0975984,-0.0481142 -0.172157,-0.135657 -0.214874,-0.240992 -0.0574173,-0.141598 -0.034878,-0.288382 -0.0349252,-0.288055 -0.241051,-0.180622 -0.589028,-0.258028 -0.929366,-0.23687 -0.269618,0.0167598 -0.534449,0.095378 -0.737543,0.233531 -0.00125591,0.00102362 -0.00250787,0.00204724 -0.00375984,0.0030748l-0.000137795 -0.000972441c0.0143543,0.100343 0.00103937,0.201035 -0.034748,0.289291 -0.0427165,0.105335 -0.117276,0.192878 -0.214874,0.240992 -0.00461024,0.0827874 -0.0273189,0.162768 -0.0656772,0.232555 0.085685,0.181555 0.0596102,0.408413 -0.0671654,0.556642 -0.0724094,0.0846654 -0.172445,0.137043 -0.282929,0.137043 -0.110484,0 -0.210524,-0.052378 -0.282933,-0.137043 -0.109327,-0.127827 -0.145681,-0.317697 -0.0940709,-0.487291 0.00703543,-0.0231378 0.0156102,-0.0454528 0.0255669,-0.0667835 -0.0021378,-0.00384646 -0.00423228,-0.00773622 -0.00628346,-0.0116693 -0.0731102,-0.140146 -0.0819528,-0.313331 -0.0209961,-0.463638 0.0427165,-0.105335 0.117276,-0.192874 0.214882,-0.240992 0.00447638,-0.0804094 0.0260827,-0.158028 0.0620039,-0.225909 0.101067,-0.190972 0.299406,-0.276531 0.482209,-0.208051 0.0469843,0.0175984 0.0910906,0.0447717 0.130075,0.0802795 0.0387874,-0.0588661 0.0811181,-0.114327 0.126594,-0.165909 0.197122,-0.223602 0.452744,-0.373224 0.734756,-0.410417 0.280909,-0.0370472 0.587071,0.0374488 0.886169,0.261646 0.0980787,0.0735197 0.195425,0.163283 0.290866,0.270661 0.0231299,-0.0146929 0.0474331,-0.0268504 0.0725551,-0.0362598 0.182803,-0.0684803 0.381142,0.0170787 0.482209,0.208051 0.0359213,0.0678819 0.0575276,0.1455 0.0620039,0.225909z"/>
  <path class="fil5" d="M3.41333 4.6325c0.0718228,0 0.136862,0.029126 0.183937,0.0762008 0.0470787,0.0470748 0.0762008,0.112114 0.0762008,0.183937 0,0.0718268 -0.029122,0.136866 -0.0762008,0.183941 -0.0202126,0.0202126 -0.0437362,0.0371102 -0.069689,0.0498189l0.195067 0.337858c0.0226654,0.0391378 0.00931496,0.089248 -0.0298228,0.111913 -0.0391378,0.0226693 -0.0892441,0.0093189 -0.111913,-0.0298189l-0.0854843 -0.148067 0 0.170933c0,0.0453386 -0.0367559,0.0820945 -0.0820945,0.0820945 -0.0453386,0 -0.0820945,-0.0367559 -0.0820945,-0.0820945l0 -0.170933 -0.0854843 0.148067c-0.0226693,0.0391378 -0.0727756,0.0524882 -0.111913,0.0298189 -0.0391378,-0.0226654 -0.0524882,-0.0727756 -0.0298228,-0.111913l0.195067 -0.337858c-0.0259528,-0.0127087 -0.0494764,-0.0296063 -0.069689,-0.0498189 -0.0470787,-0.0470748 -0.0762008,-0.112114 -0.0762008,-0.183941 0,-0.0718228 0.029122,-0.136862 0.0762008,-0.183937 0.0470748,-0.0470748 0.112114,-0.0762008 0.183937,-0.0762008z"/>
 </g>
</svg>
