<?xml version="1.0" encoding="UTF-8"?>
<!DOCTYPE svg PUBLIC "-//W3C//DTD SVG 1.1//EN" "http://www.w3.org/Graphics/SVG/1.1/DTD/svg11.dtd">
<!-- Creator: CorelDRAW -->
<svg xmlns="http://www.w3.org/2000/svg" xml:space="preserve" width="6.82666in" height="6.82666in" style="shape-rendering:geometricPrecision; text-rendering:geometricPrecision; image-rendering:optimizeQuality; fill-rule:evenodd; clip-rule:evenodd"
viewBox="0 0 6.82666 6.82666"
 xmlns:xlink="http://www.w3.org/1999/xlink">
 <defs>
  <style type="text/css">
   <![CDATA[
    .fil0 {fill:none}
    .fil10 {fill:#414141}
    .fil6 {fill:#444444}
    .fil3 {fill:#474747}
    .fil5 {fill:#545454}
    .fil2 {fill:#565656}
    .fil9 {fill:#616161}
    .fil8 {fill:#6A6A6A}
    .fil1 {fill:#BEBEBE}
    .fil11 {fill:#C5C5C5}
    .fil4 {fill:#D8D8D8}
    .fil7 {fill:white}
    .fil12 {fill:#B1B1B1;fill-rule:nonzero}
   ]]>
  </style>
 </defs>
 <g id="Layer_x0020_1">
  <metadata id="CorelCorpID_0Corel-Layer"/>
  <rect class="fil0" width="6.82666" height="6.82666"/>
  <g id="_490590672">
   <path id="_490595328" class="fil1" d="M0.918106 2.33252l0.226524 0 0 0.394697 -0.226524 0c-0.0356299,0 -0.0647756,-0.0291457 -0.0647756,-0.0647756l0 -0.265146c0,-0.0356299 0.0291496,-0.0647756 0.0647756,-0.0647756z"/>
   <path id="_490594440" class="fil1" d="M5.88742 2.26066l-0.300441 0 0 0.523488 0.300441 0c0.0472559,0 0.0859134,-0.0386575 0.0859134,-0.0859134l0 -0.351665c0,-0.0472559 -0.0386614,-0.0859094 -0.0859134,-0.0859094z"/>
   <path id="_490594008" class="fil2" d="M1.1708 1.99337l4.45519 0c0.0945079,0 0.171827,0.0773228 0.171827,0.171823l0 0.80139c0,0.0945039 -0.0773228,0.171827 -0.171827,0.171827l-4.45519 0c-0.0945,0 -0.171823,-0.0773189 -0.171823,-0.171827l0 -0.80139c0,-0.0945039 0.0773189,-0.171823 0.171823,-0.171823z"/>
   <path id="_490593984" class="fil3" d="M1.37332 2.68145l4.05017 0c0.0945079,0 0.171823,0.0773346 0.171823,0.171827l0 2.58763c0,0.0944921 -0.0773307,0.171827 -0.171823,0.171827l-4.05017 0c-0.0944921,0 -0.171823,-0.0773189 -0.171823,-0.171827l0 -2.58763c0,-0.0945079 0.077315,-0.171827 0.171823,-0.171827z"/>
   <path id="_490594344" class="fil4" d="M1.37332 2.68145l4.05017 0c0.0945079,0 0.171823,0.0773386 0.171823,0.171827l0 2.36399c0,0.0944882 -0.0773386,0.171827 -0.171823,0.171827l-4.05017 0c-0.0944843,0 -0.171823,-0.0773189 -0.171823,-0.171827l0 -2.36399c0,-0.0945079 0.077315,-0.171827 0.171823,-0.171827z"/>
   <path id="_490594488" class="fil5" d="M5.59531 3.69192l0 1.52534c0,0.0944882 -0.0773386,0.171827 -0.171823,0.171827l-4.05017 0c-0.0944843,0 -0.171823,-0.0773189 -0.171823,-0.171827l0 -1.52534 4.39381 0z"/>
   <rect id="_490593288" class="fil6" x="1.45415" y="4.00821" width="3.88849" height="1.21858"/>
   <g>
    <circle id="_490593360" class="fil7" cx="1.69624" cy="4.29703" r="0.115991"/>
    <circle id="_490593576" class="fil7" cx="2.0745" cy="4.29703" r="0.115991"/>
    <circle id="_490593384" class="fil7" cx="2.45276" cy="4.29703" r="0.115991"/>
    <circle id="_490593552" class="fil7" cx="2.83102" cy="4.29703" r="0.115991"/>
    <circle id="_490593504" class="fil7" cx="3.20927" cy="4.29703" r="0.115991"/>
    <circle id="_490593720" class="fil7" cx="3.58753" cy="4.29703" r="0.115991"/>
    <circle id="_490593696" class="fil7" cx="3.96579" cy="4.29703" r="0.115991"/>
    <circle id="_490592520" class="fil7" cx="4.34404" cy="4.29703" r="0.115991"/>
    <circle id="_490592880" class="fil7" cx="4.7223" cy="4.29703" r="0.115991"/>
    <circle id="_490592808" class="fil7" cx="5.10056" cy="4.29703" r="0.115991"/>
    <circle id="_490593000" class="fil7" cx="2.0745" cy="4.6175" r="0.115991"/>
    <circle id="_490592832" class="fil7" cx="2.45276" cy="4.6175" r="0.115991"/>
    <circle id="_490592544" class="fil7" cx="2.83102" cy="4.6175" r="0.115991"/>
    <circle id="_490592664" class="fil7" cx="3.20927" cy="4.6175" r="0.115991"/>
    <circle id="_490592784" class="fil7" cx="3.58753" cy="4.6175" r="0.115991"/>
    <circle id="_490591752" class="fil7" cx="3.96579" cy="4.6175" r="0.115991"/>
    <circle id="_490591704" class="fil7" cx="4.34404" cy="4.6175" r="0.115991"/>
    <circle id="_490592232" class="fil7" cx="4.7223" cy="4.6175" r="0.115991"/>
    <circle id="_490592136" class="fil7" cx="2.0745" cy="4.93797" r="0.115991"/>
    <circle id="_490592280" class="fil7" cx="2.45276" cy="4.93797" r="0.115991"/>
    <circle id="_490591968" class="fil7" cx="4.34404" cy="4.93797" r="0.115991"/>
    <circle id="_490592256" class="fil7" cx="4.7223" cy="4.93797" r="0.115991"/>
   </g>
   <polygon id="_490591608" class="fil8" points="5.79782,2.19529 5.79782,2.93648 0.99898,2.93648 0.99898,2.19529 "/>
   <path id="_490591536" class="fil9" d="M3.40564 2.14224c0.0224764,0 0.0447953,0.000401575 0.0669685,0.00112598l1.02799 0.983154c-0.183453,0.249634 -0.604626,0.424276 -1.09496,0.424276 -0.490331,0 -0.911508,-0.174642 -1.09496,-0.424276l1.028 -0.983154c0.0221693,-0.000724409 0.0444882,-0.00112598 0.0669646,-0.00112598z"/>
   <path id="_490591176" class="fil10" d="M4.10341 2.74665l0.130031 0.124358c-0.119323,0.196299 -0.443063,0.337059 -0.823783,0.337059 -0.383862,0 -0.70985,-0.143083 -0.826748,-0.341913l0.130189 -0.124508c0.105161,0.191693 0.377339,0.32826 0.696559,0.32826 0.316433,0 0.586626,-0.134205 0.693752,-0.323256z"/>
   <rect id="_490591512" class="fil11" x="1.41151" y="1.21394" width="3.97378" height="1.55737"/>
   <g>
    <polygon id="_490591320" class="fil12" points="1.98771,1.53213 4.80909,1.53213 4.80909,1.61805 1.98771,1.61805 "/>
    <polygon id="_490590936" class="fil12" points="1.98771,1.81048 4.80909,1.81048 4.80909,1.8964 1.98771,1.8964 "/>
    <polygon id="_490590912" class="fil12" points="1.98771,2.08884 4.80909,2.08884 4.80909,2.17476 1.98771,2.17476 "/>
    <polygon id="_490590432" class="fil12" points="1.98771,2.3672 4.80909,2.3672 4.80909,2.45311 1.98771,2.45311 "/>
   </g>
  </g>
 </g>
</svg>
