<?xml version="1.0" encoding="UTF-8"?>
<!DOCTYPE svg PUBLIC "-//W3C//DTD SVG 1.1//EN" "http://www.w3.org/Graphics/SVG/1.1/DTD/svg11.dtd">
<!-- Creator: CorelDRAW -->
<svg xmlns="http://www.w3.org/2000/svg" xml:space="preserve" width="6.82666in" height="6.82666in" style="shape-rendering:geometricPrecision; text-rendering:geometricPrecision; image-rendering:optimizeQuality; fill-rule:evenodd; clip-rule:evenodd"
viewBox="0 0 6.82666 6.82666"
 xmlns:xlink="http://www.w3.org/1999/xlink">
 <defs>
  <style type="text/css">
   <![CDATA[
    .fil1 {fill:none}
    .fil4 {fill:#717171}
    .fil3 {fill:#7E7E7E}
    .fil0 {fill:#BBBBBC}
    .fil2 {fill:#C7C7C7}
    .fil5 {fill:#D7D7D7}
   ]]>
  </style>
 </defs>
 <g id="Layer_x0020_1">
  <metadata id="CorelCorpID_0Corel-Layer"/>
  <polygon class="fil0" points="4.87338,5.10086 4.69333,5.22666 4.53037,5.39803 4.29552,5.49684 4.13021,5.53388 3.99727,5.59709 2.98667,4.8 3.06493,4.26375 4.01732,3.94044 "/>
  <rect class="fil1" width="6.82666" height="6.82666"/>
  <path class="fil2" d="M5.45172 3.71392l-0.66672 0.707228 0.371657 0.371756c0.0444567,0.0444724 0.0444606,0.11663 -3.93701e-006,0.161091 -0.256067,0.256071 -0.166543,0.314689 -0.333705,0.142823l-0.917984 -0.943787c-0.00370079,-0.00380315 -0.17526,-0.00280709 -0.0828071,0.0923543l0.871106 0.896902c0.0229803,0.0364331 0.0281614,0.075874 -0.0535197,0.157701 -0.0309213,0.0395551 -0.0567441,0.0660433 -0.0791654,0.0824055 -0.0613898,0.0447913 -0.0973307,0.0136772 -0.142846,-0.0331378l-0.914575 -0.940543c-0.0204449,-0.0210315 -0.0545591,-0.0210591 -0.0754213,-0.000433071l0 0c-0.0208622,0.020626 -0.020874,0.0543819 -0.000437008,0.0754213l0.840374 0.865429c0.120386,0.123984 -0.0342795,0.318346 -0.18063,0.167626l-0.83452 -0.859421c-0.0204331,-0.0210433 -0.0545591,-0.0210591 -0.0754213,-0.000433071l0 0c-0.0208622,0.020626 -0.0208543,0.0543622 -0.000437008,0.0754213l0.831181 0.8575 -0.178394 0.178484c-0.0214646,0.0214764 -0.0502953,0.033311 -0.0806378,0.033311 -0.0299882,0 -0.0587008,-0.0117953 -0.0800276,-0.0328898l-0.114043 -0.112815 -0.18278 0.170736c-0.0214921,0.0214961 -0.0502362,0.033311 -0.080563,0.033311 -0.0301654,0 -0.058937,-0.0119803 -0.0802638,-0.033311 -0.356413,-0.356559 -0.714642,-0.71128 -1.07105,-1.06781 -0.0443031,-0.044315 -0.0445787,-0.115984 -0.000551181,-0.160614l0.175378 -0.164697 -0.660646 -0.651602 -0.103736 0.104949c-0.0213701,0.0216181 -0.0504724,0.0334882 -0.0807835,0.0334882 -0.0281496,0 -0.055126,-0.0101417 -0.0761063,-0.0289685l-0.541346 -0.485902 0 -0.306276 -3.93701e-006 -2.13252 0.738665 0 1.39031 1.30552c0.0221457,0.0209449 0.0350236,0.0501772 0.0355866,0.0806614 0.000562992,0.0304685 -0.0114724,0.0602008 -0.0328819,0.0818504l-0.105909 0.107126 0.339461 0.335343 0.184665 -0.183075c0.0245,-0.0242913 0.0579252,-0.0358937 0.0922126,-0.0322559l0.501047 0.0532205 0.231283 -0.242189 -0.0963465 -0.0978819c-0.0214134,-0.0217598 -0.0333819,-0.0512205 -0.0328189,-0.0817638 0.000566929,-0.030626 0.0133228,-0.059626 0.0355866,-0.080689l1.33418 -1.24586 0.504953 0 0.00208268 2.09942 -0.00208268 0.540028 -0.251516 0.225598c-0.0209173,0.0187598 -0.0479843,0.0293346 -0.076122,0.0293346 -0.0305984,0 -0.0596772,-0.012063 -0.081185,-0.0338661l-0.111748 -0.113295zm-0.827925 0.546102l0.658035 -0.69813 -0.910516 -0.910535 -0.218445 0.228465 -0.00298819 0.0021063c-0.078563,0.0553583 -0.184976,0.0590118 -0.277161,0.0491614l-0.348772 -0.037252 -0.866921 0.860016c0.083248,0.00290945 0.169008,-0.0187441 0.244327,-0.0489803 0.214516,-0.0861024 0.414925,-0.264382 0.571134,-0.430398 0.0211575,-0.0224803 0.050311,-0.0352008 0.0811693,-0.0356654 0.0316378,-0.000468504 0.0599331,0.011 0.0822402,0.0333071l0.987898 0.987906zm-1.33233 1.32485l0.101051 -0.0887756 -0.107299 -0.106024 -0.100339 0.0882087 0.106587 0.106591zm-0.276035 -0.460606l-0.0983386 0.0863346 0.106591 0.106579 0.0992362 -0.087122 -0.107488 -0.105791zm-0.259961 -0.0742677l0.0979055 -0.0857638 -0.106614 -0.104886 -0.0973622 0.0855827 0.106071 0.105067zm-0.278382 -0.456854l-0.0961496 0.0842598 0.106402 0.106394 0.0967795 -0.0851417 -0.107031 -0.105512z"/>
  <path class="fil3" d="M1.65427 3.78193l-0.103736 0.104949c-0.0213701,0.0216181 -0.0504724,0.0334882 -0.0807835,0.0334882 -0.0281496,0 -0.055126,-0.0101417 -0.0761063,-0.0289685l-0.541346 -0.485902 0 -0.306276 -3.93701e-006 -2.13252 0.738665 0 1.39031 1.30552c0.0221457,0.0209449 0.0350236,0.0501772 0.0355866,0.0806614 0.000562992,0.0304685 -0.0114724,0.0602008 -0.0328819,0.0818504l-0.105909 0.107126 -1.2238 1.24007z"/>
  <path class="fil4" d="M5.45172 3.71392l-1.22498 -1.24102 -0.0963465 -0.0978819c-0.0214134,-0.0217598 -0.0333819,-0.0512205 -0.0328189,-0.0817638 0.000566929,-0.030626 0.0133228,-0.059626 0.0355866,-0.080689l1.33418 -1.24586 0.504953 0 0.00208268 2.09942 -0.00208268 0.540028 -0.251516 0.225598c-0.0209173,0.0187598 -0.0479843,0.0293346 -0.076122,0.0293346 -0.0305984,0 -0.0596772,-0.012063 -0.081185,-0.0338661l-0.111748 -0.113295z"/>
  <path class="fil5" d="M4.37131 2.65136l-0.218445 0.228465 -0.00298819 0.0021063c-0.078563,0.0553583 -0.184976,0.0590118 -0.277161,0.0491614l-0.348772 -0.037252 -0.866921 0.860016c0.083248,0.00290945 0.169008,-0.0187441 0.244327,-0.0489803 0.214516,-0.0861024 0.414925,-0.264382 0.571134,-0.430398 0.0211575,-0.0224803 0.050311,-0.0352008 0.0811693,-0.0356654 0.0316378,-0.000468504 0.0599331,0.011 0.0822402,0.0333071l0.987898 0.987906 0.658035 -0.69813 -0.910516 -0.910535z"/>
  <polygon class="fil5" points="2.85337,4.96424 2.74676,4.85935 2.64939,4.94494 2.75546,5.05 "/>
  <polygon class="fil5" points="3.01543,5.12427 2.91709,5.21061 3.02368,5.31719 3.12291,5.23006 "/>
  <polygon class="fil5" points="3.28521,5.39008 3.18487,5.47829 3.29146,5.58488 3.39251,5.4961 "/>
  <polygon class="fil5" points="2.48733,4.7838 2.58411,4.69866 2.47708,4.59315 2.38093,4.67741 "/>
 </g>
</svg>
