<?xml version="1.0" encoding="UTF-8"?>
<!DOCTYPE svg PUBLIC "-//W3C//DTD SVG 1.1//EN" "http://www.w3.org/Graphics/SVG/1.1/DTD/svg11.dtd">
<!-- Creator: CorelDRAW -->
<svg xmlns="http://www.w3.org/2000/svg" xml:space="preserve" width="6.82666in" height="6.82666in" style="shape-rendering:geometricPrecision; text-rendering:geometricPrecision; image-rendering:optimizeQuality; fill-rule:evenodd; clip-rule:evenodd"
viewBox="0 0 6.82666 6.82666"
 xmlns:xlink="http://www.w3.org/1999/xlink">
 <defs>
  <style type="text/css">
   <![CDATA[
    .str0 {stroke:#202020;stroke-width:0.00333465}
    .fil0 {fill:none}
    .fil3 {fill:#414141}
    .fil1 {fill:#616161;fill-rule:nonzero}
    .fil2 {fill:#717171;fill-rule:nonzero}
   ]]>
  </style>
 </defs>
 <g id="Layer_x0020_1">
  <metadata id="CorelCorpID_0Corel-Layer"/>
  <rect class="fil0" width="6.82666" height="6.82666"/>
  <g id="_485871960">
   <path id="_485872440" class="fil1" d="M1.66668 2.99507l1.32928 -1.32927 0.0645709 -0.0645669 0.0755512 0.0521063c0.0141339,0.00974409 0.0288858,0.0206457 0.0452874,0.0327598 0.142594,0.10537 0.429756,0.317555 1.01575,0.176843l0.0635551 -0.0152598 0.0434685 0.0483543c0.555965,0.618531 0.705291,1.3027 0.847287,1.95331 0.126925,0.581547 0.24772,1.13499 0.659433,1.56448l-2.3622e-005 2.3622e-005c0.126437,0.117791 0.171661,0.239831 0.160992,0.335181 -0.00323622,0.0289213 -0.0113425,0.0557559 -0.023811,0.0799803l-2.13349 -2.09226c0.0481339,-0.0651496 0.0722165,-0.142496 0.0722165,-0.219835 0,-0.094815 -0.036185,-0.189642 -0.108539,-0.262 -0.0723543,-0.0723504 -0.167181,-0.108531 -0.261996,-0.108531 -0.094811,0 -0.189646,0.0361811 -0.262,0.108531 -0.0723543,0.0723583 -0.108535,0.167189 -0.108535,0.262 0,0.094815 0.0361811,0.18965 0.108535,0.262 0.0723543,0.0723543 0.167189,0.108535 0.262,0.108535 0.0776575,0 0.155311,-0.0242756 0.22063,-0.0728071l2.13819 2.09687c-0.0243976,0.0164646 -0.0524331,0.0284055 -0.0834488,0.0351654 -0.0992717,0.0216378 -0.235488,-0.0125984 -0.372992,-0.133268l-0.00387008 -0.00344094c-0.429492,-0.411709 -0.982933,-0.532508 -1.56448,-0.659433 -0.664409,-0.145008 -1.36382,-0.297661 -1.99214,-0.882933l-0.048874 -0.0455276 0.0179291 -0.0640787c0.159815,-0.571217 -0.0456693,-0.849594 -0.143622,-0.982283 -0.0108465,-0.0146969 -0.0205709,-0.0278661 -0.0293031,-0.0405236l-0.0521142 -0.0755433 0.0645787 -0.0645827zm1.84953 0.37139c-0.0385197,0 -0.0770354,0.014689 -0.106402,0.0440551 -0.0293701,0.0293661 -0.0440591,0.0678858 -0.0440591,0.106402 0,0.0385197 0.014689,0.0770354 0.0440591,0.106406 0.0293661,0.0293661 0.0678819,0.0440551 0.106402,0.0440551 0.0385118,0 0.0770315,-0.014689 0.106398,-0.0440551 0.0293701,-0.0293701 0.044063,-0.0678898 0.044063,-0.106406 0,-0.0385118 -0.0146929,-0.0770276 -0.044063,-0.106402 -0.0293661,-0.0293661 -0.0678858,-0.0440551 -0.106398,-0.0440551z"/>
   <polygon id="_485872968" class="fil2" points="0.931126,2.63165 2.61108,0.951689 2.68888,0.87389 2.76668,0.951689 3.22814,1.41315 3.30594,1.49095 3.22814,1.56875 1.54819,3.2487 1.47039,3.3265 1.39259,3.2487 0.931126,2.78724 0.853331,2.70944 "/>
   <line id="_485873016" class="fil0 str0" x1="5.94802" y1="5.82902" x2="5.87502" y2= "5.91152" />
   <path id="_485871648" class="fil3" d="M5.87502 5.91152l0.0729921 -0.0825079 -2.13349 -2.09226c0.0481339,-0.0651496 0.0722165,-0.142496 0.0722165,-0.219835 0,-0.094815 -0.036185,-0.189642 -0.108539,-0.262 -0.0723543,-0.0723504 -0.167181,-0.108531 -0.261996,-0.108531 -0.094811,0 -0.189646,0.0361811 -0.262,0.108531 -0.0723543,0.0723583 -0.108535,0.167189 -0.108535,0.262 0,0.094815 0.0361811,0.18965 0.108535,0.262 0.0723543,0.0723543 0.167189,0.108535 0.262,0.108535 0.0776575,0 0.155311,-0.0242756 0.22063,-0.0728071l2.13819 2.09687zm-2.20835 -2.3946c0,0.0385157 -0.0146929,0.0770354 -0.044063,0.106406 -0.0293661,0.0293661 -0.0678858,0.0440551 -0.106398,0.0440551 -0.0385197,0 -0.0770354,-0.014689 -0.106402,-0.0440551 -0.0293701,-0.0293701 -0.0440591,-0.0678858 -0.0440591,-0.106406 0,-0.0385157 0.014689,-0.0770354 0.0440591,-0.106402 0.0293661,-0.0293661 0.0678819,-0.0440551 0.106402,-0.0440551 0.0385118,0 0.0770315,0.014689 0.106398,0.0440551 0.0293701,0.029374 0.044063,0.0678898 0.044063,0.106402z"/>
  </g>
 </g>
</svg>
