<?xml version="1.0"?><svg fill="#000000" xmlns="http://www.w3.org/2000/svg"  viewBox="0 0 24 24" width="24px" height="24px">    <path d="M 6 2 C 4.9 2 4 2.9 4 4 L 4 20 C 4 21.1 4.9 22 6 22 L 12.929688 22 L 10.509766 19.589844 C 9.7297656 18.799844 9.7297656 17.539766 10.509766 16.759766 L 14.759766 12.509766 C 15.129766 12.139766 15.639922 11.929687 16.169922 11.929688 C 16.699922 11.929688 17.209844 12.139766 17.589844 12.509766 L 20 14.929688 L 20 8 L 14 2 L 6 2 z M 13 3.5 L 18.5 9 L 13 9 L 13 3.5 z M 16.171875 13.931641 L 11.929688 18.173828 L 14.757812 21.001953 L 16.171875 19.585938 L 19.453125 22.867188 L 20.867188 21.453125 L 17.585938 18.171875 L 19 16.759766 L 16.171875 13.931641 z"/></svg>