<?xml version="1.0" encoding="iso-8859-1"?>
<!-- Uploaded to: SVG Repo, www.svgrepo.com, Generator: SVG Repo Mixer Tools -->
<svg height="800px" width="800px" version="1.1" id="Layer_1" xmlns="http://www.w3.org/2000/svg" xmlns:xlink="http://www.w3.org/1999/xlink" 
	 viewBox="0 0 512 512" xml:space="preserve">
<path style="fill:#FEE856;" d="M374.857,274.286H137.143c-10.099,0-18.286-8.187-18.286-18.286V18.286
	C118.857,8.187,127.044,0,137.143,0h237.714c10.099,0,18.286,8.187,18.286,18.286V256
	C393.143,266.099,384.956,274.286,374.857,274.286z"/>
<g>
	<path style="fill:#FFCE3E;" d="M374.857,0H256.001v274.286h118.856c10.099,0,18.286-8.187,18.286-18.286V18.286
		C393.143,8.187,384.956,0,374.857,0z"/>
	<path style="fill:#FFCE3E;" d="M214.27,173.094c0-0.997-1.124,3.045,27.007-89.211c3.133-9.969,26.168-9.988,29.306,0
		c28.258,92.173,27.151,88.205,27.151,89.211c0,8.049-19.332,13.29-21.692,5.027l-4.885-17.957h-30.312l-4.885,17.957
		C233.606,186.366,214.27,181.159,214.27,173.094z M266.417,142.926l-10.487-38.501l-10.489,38.501H266.417z"/>
</g>
<path style="fill:#84DBFF;" d="M256,512H18.286C8.187,512,0,503.813,0,493.714V256c0-10.099,8.187-18.286,18.286-18.286H256
	c10.099,0,18.286,8.187,18.286,18.286v237.714C274.286,503.813,266.099,512,256,512z"/>
<g>
	<polygon style="fill:#54C9EB;" points="256,237.714 137.143,237.714 137.143,512 256,512 256.001,512 256.001,237.714 	"/>
	<path style="fill:#54C9EB;" d="M103.814,321.885c0-4.597,4.885-6.896,9.769-6.896h29.45c14.365,0,28.731,5.172,28.731,25.571
		c0,11.636-4.597,19.25-12.211,22.555c8.763,3.304,14.797,8.619,14.797,22.984c0,20.935-7.287,33.904-28.876,33.904h-31.89
		c-6.033,0-9.769-3.161-9.769-6.752V321.885z M126.081,354.494h15.084c5.459,0,8.188-5.029,8.188-9.912
		c0-5.029-2.729-10.056-8.188-10.056h-15.084V354.494z M140.448,400.464c7.183,0,11.492-4.023,11.492-13.217
		c0-9.239-1.569-15.515-11.492-15.515h-14.366v28.732H140.448z"/>
</g>
<path style="fill:#FF7058;" d="M493.714,512H256c-10.099,0-18.286-8.187-18.286-18.286V256c0-10.099,8.187-18.286,18.286-18.286
	h237.714c10.099,0,18.286,8.187,18.286,18.286v237.714C512,503.813,503.813,512,493.714,512z"/>
<g>
	<path style="fill:#F1543F;" d="M493.714,237.714H384V512h109.714c10.099,0,18.286-8.187,18.286-18.286V256
		C512,245.901,503.813,237.714,493.714,237.714z"/>
	<path style="fill:#F1543F;" d="M376.437,334.526c-8.188,0-12.928,4.597-12.928,14.365v38.07c0,9.769,4.741,14.366,13.073,14.366
		c11.493,0,12.211-8.763,12.642-14.366c0.432-5.315,5.315-6.751,11.062-6.751c7.757,0,11.349,2.01,11.349,10.63
		c0,19.107-15.516,30.025-36.058,30.025c-18.82,0-34.477-9.194-34.477-33.904v-38.07c0-24.709,15.659-33.903,34.477-33.903
		c20.543,0,36.058,10.344,36.058,28.588c0,8.62-3.591,10.631-11.205,10.631c-6.033,0-10.918-1.58-11.204-6.752
		C389.079,343.72,388.648,334.526,376.437,334.526z"/>
</g>
<path style="fill:#F59D00;" d="M270.582,83.883c-1.563-4.975-8.063-7.467-14.581-7.483v28.287l10.416,38.239h-10.416v17.239h15.156
	l4.885,17.957c2.36,8.263,21.692,3.022,21.692-5.027C297.733,172.088,298.84,176.056,270.582,83.883z"/>
<g>
	<path style="fill:#E03E34;" d="M384,336.289c4.837,2.853,5.118,8.448,5.222,11.166c0.286,5.172,5.171,6.752,11.204,6.752
		c7.614,0,11.205-2.011,11.205-10.631c0-15.649-11.42-25.478-27.632-27.96V336.289z"/>
	<path style="fill:#E03E34;" d="M400.284,380.21c-5.747,0-10.631,1.436-11.062,6.751c-0.308,4.007-0.786,9.613-5.222,12.492v20.749
		c16.212-2.616,27.632-12.973,27.632-29.362C411.633,382.22,408.042,380.21,400.284,380.21z"/>
</g>
<path style="fill:#169ED9;" d="M159.554,363.114c7.614-3.305,12.211-10.919,12.211-22.555c0-20.398-14.365-25.571-28.731-25.571
	h-5.892v19.538h4.023c5.459,0,8.188,5.029,8.188,10.056c0,4.885-2.729,9.912-8.188,9.912h-4.023v17.239h3.305
	c9.922,0,11.492,6.276,11.492,15.515c0,9.194-4.309,13.217-11.492,13.217h-3.305v19.538h8.332c21.588,0,28.876-12.969,28.876-33.904
	C174.349,371.734,168.316,366.418,159.554,363.114z"/>
</svg>