<svg id="Layer_2" data-name="Layer 2" xmlns="http://www.w3.org/2000/svg" viewBox="0 0 128 128"><title>ADAPTIVE</title><path d="M126.25,19.229H108.942V11.785a3.769,3.769,0,0,0-3.765-3.765H71.934a3.769,3.769,0,0,0-3.765,3.765v7.444H1.75A1.75,1.75,0,0,0,0,20.979v61.5a1.75,1.75,0,0,0,1.75,1.75H50v21H45.191a1.751,1.751,0,0,0-1.308.587l-5,5.625a1.749,1.749,0,0,0-.442,1.163v5.625a1.75,1.75,0,0,0,1.75,1.75H87.813a1.75,1.75,0,0,0,1.75-1.75V112.6a1.749,1.749,0,0,0-.442-1.163l-5-5.625a1.751,1.751,0,0,0-1.308-.587H78v-21h48.25a1.75,1.75,0,0,0,1.75-1.75v-61.5A1.75,1.75,0,0,0,126.25,19.229Zm-54.316,51.5a.266.266,0,0,1-.265-.265V62.546h33.773v7.919a.265.265,0,0,1-.265.265Zm-3.756,0H13.5v-38H68.169V43.979H39.564L42,40.634a1.75,1.75,0,0,0-2.83-2.061L34.71,44.7c-.006.009-.01.019-.016.028s-.027.042-.041.063c-.027.043-.05.088-.073.133s-.04.07-.056.106c-.009.021-.016.042-.024.063-.018.046-.031.093-.045.14s-.028.083-.037.125c0,.02-.007.04-.01.06-.009.047-.012.1-.017.143s-.011.094-.012.141c0,.01,0,.019,0,.028s0,.019,0,.028c0,.047.007.094.012.141s.008.1.017.143c0,.02.006.041.01.06.009.042.025.083.037.125s.027.094.045.14c.008.021.015.042.024.063.016.036.038.071.056.106s.046.09.073.133c.013.021.026.042.041.063s.01.019.016.028l4.458,6.125A1.75,1.75,0,0,0,42,50.823l-2.435-3.345H68.169V70.465C68.169,70.554,68.172,70.642,68.178,70.729Zm3.491-39.75v-8.25h33.773V59.046H71.669V47.479H87.186l-2.435,3.345a1.75,1.75,0,0,0,2.83,2.061l4.458-6.125c.006-.009.01-.019.016-.028s.027-.042.041-.063c.027-.043.05-.088.073-.133s.04-.07.056-.106c.009-.021.016-.042.024-.063.018-.046.031-.093.045-.14s.028-.083.037-.125c0-.02.007-.04.01-.06.009-.047.012-.1.017-.143s.011-.094.012-.141c0-.01,0-.019,0-.028s0-.019,0-.028c0-.047-.007-.094-.012-.141s-.008-.1-.017-.143c0-.02-.006-.041-.01-.06-.009-.042-.025-.083-.037-.125s-.027-.094-.045-.14c-.008-.021-.015-.043-.024-.063-.016-.036-.038-.071-.056-.106s-.046-.09-.073-.133c-.013-.021-.026-.042-.041-.063s-.01-.019-.016-.028l-4.458-6.125a1.75,1.75,0,0,0-2.83,2.061l2.435,3.345H71.669Zm37.273,39.485V32.729H114.5v38h-5.567C108.939,70.642,108.942,70.554,108.942,70.465ZM71.669,11.785a.266.266,0,0,1,.265-.265h33.244a.265.265,0,0,1,.265.265v7.444H71.669ZM86.063,113.271v3.209H41.938v-3.209l4.04-4.541H82.023ZM74.5,105.229h-21v-21h3.813v9.188a6.687,6.687,0,1,0,13.375,0V84.229H74.5Zm-13.687-21h6.375v9.188a3.188,3.188,0,0,1-6.375,0Zm63.688-3.5H3.5v-58H68.169v6.5H11.75A1.75,1.75,0,0,0,10,30.979v41.5a1.75,1.75,0,0,0,1.75,1.75h104.5a1.75,1.75,0,0,0,1.75-1.75v-41.5a1.75,1.75,0,0,0-1.75-1.75h-7.308v-6.5H124.5Z"/><path d="M92.239,64.888H84.873a1.75,1.75,0,0,0,0,3.5h7.367a1.75,1.75,0,0,0,0-3.5Z"/><path d="M102.474,13.862H100.4a1.75,1.75,0,1,0,0,3.5h2.078a1.75,1.75,0,1,0,0-3.5Z"/></svg>