<svg id="Layer_2" data-name="Layer 2" xmlns="http://www.w3.org/2000/svg" viewBox="0 0 128 128"><title>ARTIFICIAL INTELLIGENCE</title><path d="M30.6,47.462a1.75,1.75,0,0,0-1.75-1.75A19.477,19.477,0,0,0,9.4,65.167a1.75,1.75,0,1,0,3.5,0A15.973,15.973,0,0,1,28.851,49.212,1.75,1.75,0,0,0,30.6,47.462Z"/><path d="M45.812,10.072A10.168,10.168,0,0,0,35.656,20.228a1.75,1.75,0,0,0,3.5,0,6.656,6.656,0,1,1,13.313,0,1.75,1.75,0,0,0,3.5,0A10.168,10.168,0,0,0,45.812,10.072Z"/><path d="M35.877,35.656h.75a8.618,8.618,0,0,1,8.609,8.609v5.657a8.618,8.618,0,0,1-8.609,8.609,1.75,1.75,0,0,0,0,3.5A12.123,12.123,0,0,0,48.736,49.922V44.265A12.123,12.123,0,0,0,36.627,32.156h-.75a1.75,1.75,0,0,0,0,3.5Z"/><path d="M47,79.656a1.75,1.75,0,0,0,0-3.5H37A10.136,10.136,0,0,1,26.875,66.031a1.75,1.75,0,0,0-3.5,0A13.641,13.641,0,0,0,37,79.656Z"/><path d="M53.375,100.406a12.514,12.514,0,0,1-12.5-12.5,1.75,1.75,0,0,0-3.5,0,16.018,16.018,0,0,0,16,16,1.75,1.75,0,0,0,0-3.5Z"/><path d="M28.545,96.763a5.357,5.357,0,0,1-4.5-6.083,1.75,1.75,0,1,0-3.461-.519,8.862,8.862,0,0,0,7.443,10.064,1.829,1.829,0,0,0,.261.019,1.75,1.75,0,0,0,.257-3.481Z"/><path d="M46.25,115.244a7.508,7.508,0,0,1-7.5-7.5,1.75,1.75,0,0,0-3.5,0,11.012,11.012,0,0,0,11,11,1.75,1.75,0,1,0,0-3.5Z"/><path d="M121.062,70.406a6.885,6.885,0,0,0-3.5.96l-22.7-22.7a1.75,1.75,0,0,0-1.237-.513H65.75V37.323h48.607a6.938,6.938,0,1,0,0-3.5H65.75V25.99H93.625a1.75,1.75,0,0,0,1.237-.513l7.5-7.5a6.951,6.951,0,1,0-2.6-2.349L92.9,22.49H65.75V19.844A19.938,19.938,0,0,0,25.935,18.3a17.258,17.258,0,0,0-14.749,17.07,17.025,17.025,0,0,0,1.144,6.151,28.85,28.85,0,0,0-.649,46.836,17.241,17.241,0,0,0,14.254,21.16,19.938,19.938,0,0,0,39.815-1.546v-.312H84.9l7.458,9.478a6.969,6.969,0,1,0,2.687-2.245l-7.92-10.065a1.75,1.75,0,0,0-1.375-.668h-20v-10.5H84.232a6.938,6.938,0,1,0,0-3.5H65.75v-10.5H95.231a6.938,6.938,0,1,0,0-3.5H65.75v-10.5H76.269a6.939,6.939,0,1,0-.086-3.5H65.75v-10.5H92.9l22.185,22.184a6.931,6.931,0,1,0,5.978-3.434Zm0-38.271a3.438,3.438,0,1,1-3.437,3.438A3.441,3.441,0,0,1,121.062,32.135Zm-15.5-23.751a3.437,3.437,0,1,1-3.437,3.437A3.441,3.441,0,0,1,105.562,8.384Zm-4.125,112.772A3.437,3.437,0,1,1,98,117.719,3.441,3.441,0,0,1,101.437,121.156Zm-10.5-32.687A3.438,3.438,0,1,1,87.5,91.906,3.441,3.441,0,0,1,90.937,88.469Zm11-14A3.438,3.438,0,1,1,98.5,77.906,3.441,3.441,0,0,1,101.937,74.469ZM82.931,60.3a3.438,3.438,0,1,1-3.437,3.438A3.441,3.441,0,0,1,82.931,60.3ZM62.25,107.969a16.438,16.438,0,0,1-32.875.039c0-.028,0-.058,0-.081a1.75,1.75,0,0,0-1.657-1.748,13.744,13.744,0,0,1-12.354-18,1.749,1.749,0,0,0-.685-1.992,25.351,25.351,0,0,1,.766-42.54,1.75,1.75,0,0,0,.646-2.253A13.73,13.73,0,0,1,27.72,21.633a1.75,1.75,0,0,0,1.657-1.748c0-.022,0-.051,0-.08a16.438,16.438,0,0,1,32.875.038Zm58.812-27.187a3.438,3.438,0,1,1,3.438-3.437A3.441,3.441,0,0,1,121.062,80.781Z"/><path d="M115.875,45.156a6.938,6.938,0,1,0,6.937,6.938A6.946,6.946,0,0,0,115.875,45.156Zm0,10.375a3.438,3.438,0,1,1,3.437-3.437A3.441,3.441,0,0,1,115.875,55.531Z"/><path d="M115.875,92.707a6.938,6.938,0,1,0,6.937,6.938A6.946,6.946,0,0,0,115.875,92.707Zm0,10.375a3.438,3.438,0,1,1,3.437-3.438A3.441,3.441,0,0,1,115.875,103.082Z"/></svg>