<svg id="Layer_2" data-name="Layer 2" xmlns="http://www.w3.org/2000/svg" viewBox="0 0 128 128"><title>CHIP</title><path d="M88.979,29.013a1.75,1.75,0,0,0-1.237-.513H30.25a1.75,1.75,0,0,0-1.75,1.75V87.742a1.75,1.75,0,0,0,.513,1.237L39.021,98.987a1.75,1.75,0,0,0,1.237.513H97.75a1.75,1.75,0,0,0,1.75-1.75V40.258a1.75,1.75,0,0,0-.513-1.237ZM96,96H40.983L32,87.017V32H87.017L96,40.983Z"/><path d="M122.875,52.625a5.125,5.125,0,0,0,0-10.25H109.5v-6.25h13.375a5.125,5.125,0,0,0,0-10.25H109.5V20.25a1.75,1.75,0,0,0-1.75-1.75h-5.625V5.125a5.125,5.125,0,0,0-10.25,0V18.5h-6.25V5.125a5.125,5.125,0,0,0-10.25,0V18.5h-6.25V5.125a5.125,5.125,0,0,0-10.25,0V18.5h-6.25V5.125a5.125,5.125,0,0,0-10.25,0V18.5h-6.25V5.125a5.125,5.125,0,0,0-10.25,0V18.5H20.25a1.75,1.75,0,0,0-1.75,1.75v5.625H5.125a5.125,5.125,0,0,0,0,10.25H18.5v6.25H5.125a5.125,5.125,0,0,0,0,10.25H18.5v6.25H5.125a5.125,5.125,0,0,0,0,10.25H18.5v6.25H5.125a5.125,5.125,0,0,0,0,10.25H18.5v6.25H5.125a5.125,5.125,0,0,0,0,10.25H18.5v5.625a1.75,1.75,0,0,0,1.75,1.75h5.625v13.375a5.125,5.125,0,0,0,10.25,0V109.5h6.25v13.375a5.125,5.125,0,0,0,10.25,0V109.5h6.25v13.375a5.125,5.125,0,0,0,10.25,0V109.5h6.25v13.375a5.125,5.125,0,0,0,10.25,0V109.5h6.25v13.375a5.125,5.125,0,0,0,10.25,0V109.5h5.625a1.75,1.75,0,0,0,1.75-1.75v-5.625h13.375a5.125,5.125,0,0,0,0-10.25H109.5v-6.25h13.375a5.125,5.125,0,0,0,0-10.25H109.5v-6.25h13.375a5.125,5.125,0,0,0,0-10.25H109.5v-6.25Zm0-6.75a1.625,1.625,0,0,1,0,3.25H109.5v-3.25Zm0-16.5a1.625,1.625,0,0,1,0,3.25H109.5v-3.25Zm-27.5-24.25a1.625,1.625,0,0,1,3.25,0V18.5h-3.25Zm-16.5,0a1.625,1.625,0,0,1,3.25,0V18.5h-3.25Zm-16.5,0a1.625,1.625,0,0,1,3.25,0V18.5h-3.25Zm-16.5,0a1.625,1.625,0,0,1,3.25,0V18.5h-3.25Zm-16.5,0a1.625,1.625,0,0,1,3.25,0V18.5h-3.25Zm-24.25,27.5a1.625,1.625,0,0,1,0-3.25H18.5v3.25Zm0,16.5a1.625,1.625,0,0,1,0-3.25H18.5v3.25Zm0,16.5a1.625,1.625,0,0,1,0-3.25H18.5v3.25Zm0,16.5a1.625,1.625,0,0,1,0-3.25H18.5v3.25Zm0,16.5a1.625,1.625,0,0,1,0-3.25H18.5v3.25Zm27.5,24.25a1.625,1.625,0,0,1-3.25,0V109.5h3.25Zm16.5,0a1.625,1.625,0,0,1-3.25,0V109.5h3.25Zm16.5,0a1.625,1.625,0,0,1-3.25,0V109.5h3.25Zm16.5,0a1.625,1.625,0,0,1-3.25,0V109.5h3.25Zm16.5,0a1.625,1.625,0,0,1-3.25,0V109.5h3.25ZM106,106H22V22h84Zm16.875-10.625a1.625,1.625,0,0,1,0,3.25H109.5v-3.25Zm0-16.5a1.625,1.625,0,0,1,0,3.25H109.5v-3.25Zm0-16.5a1.625,1.625,0,0,1,0,3.25H109.5v-3.25Z"/><circle cx="97.75" cy="30.25" r="2.25"/><circle cx="30.25" cy="97.75" r="2.25"/><path d="M64,43.917A20.083,20.083,0,1,0,84.083,64,20.106,20.106,0,0,0,64,43.917Zm0,36.667A16.583,16.583,0,1,1,80.583,64,16.6,16.6,0,0,1,64,80.583Z"/></svg>