<svg id="Layer_2" data-name="Layer 2" xmlns="http://www.w3.org/2000/svg" viewBox="0 0 128 128"><title>COMPUTER</title><path d="M126.25,13.625H1.75A1.75,1.75,0,0,0,0,15.375v61.5a1.75,1.75,0,0,0,1.75,1.75H50v21H45.191a1.751,1.751,0,0,0-1.308.587l-5,5.625A1.749,1.749,0,0,0,38.437,107v5.625a1.75,1.75,0,0,0,1.75,1.75H87.812a1.75,1.75,0,0,0,1.75-1.75V107a1.749,1.749,0,0,0-.442-1.163l-5-5.625a1.75,1.75,0,0,0-1.308-.587H78v-21h48.25a1.75,1.75,0,0,0,1.75-1.75v-61.5A1.75,1.75,0,0,0,126.25,13.625Zm-44.227,89.5,4.039,4.541v3.209H41.937v-3.209l4.04-4.541H82.023ZM64,94.5a6.7,6.7,0,0,0,6.687-6.687V78.625H74.5v21h-21v-21h3.812v9.188A6.7,6.7,0,0,0,64,94.5Zm-3.188-6.687V78.625h6.375v9.188a3.187,3.187,0,1,1-6.375,0ZM124.5,75.125H3.5v-58h121Z"/><path d="M11.75,68.625h104.5a1.75,1.75,0,0,0,1.75-1.75v-41.5a1.75,1.75,0,0,0-1.75-1.75H11.75A1.75,1.75,0,0,0,10,25.375v41.5A1.75,1.75,0,0,0,11.75,68.625Zm1.75-41.5h101v38H13.5Z"/></svg>