<svg id="Layer_2" data-name="Layer 2" xmlns="http://www.w3.org/2000/svg" viewBox="0 0 128 128"><title>DATA SHARING</title><path d="M126.25,94.756H116.125V34.51a1.749,1.749,0,0,0-.988-1.575l-10.343-5a1.744,1.744,0,0,0-.762-.175H91.75V14.43A1.75,1.75,0,0,0,90,12.68H64.2L59.716,8.19a1.75,1.75,0,0,0-1.237-.513H38a1.75,1.75,0,0,0-1.75,1.75V27.756H23.968a1.744,1.744,0,0,0-.762.175l-10.343,5a1.749,1.749,0,0,0-.988,1.575V94.756H1.75A1.75,1.75,0,0,0,0,96.506v8.416a1.75,1.75,0,0,0,.693,1.395L10.7,113.9a1.748,1.748,0,0,0,1.057.355H116.242a1.748,1.748,0,0,0,1.057-.355l10.008-7.584a1.75,1.75,0,0,0,.693-1.395V96.506A1.75,1.75,0,0,0,126.25,94.756ZM38,50.615H62.25v15.81l-4.431-2.347a1.75,1.75,0,0,0-1.639,3.094l7,3.708c.018.01.038.013.057.022a1.73,1.73,0,0,0,.239.093c.028.009.054.022.083.029l.052.013a1.749,1.749,0,0,0,.377.045h.024a1.749,1.749,0,0,0,.377-.045l.052-.013c.029-.007.055-.02.083-.029a1.72,1.72,0,0,0,.239-.093c.019-.009.038-.012.057-.021l7-3.708a1.75,1.75,0,0,0-1.639-3.094L65.75,66.425V50.615H90a1.75,1.75,0,0,0,1.75-1.75v-7.61h10.875v43.5H25.375v-43.5H36.25v7.61A1.75,1.75,0,0,0,38,50.615ZM67.705,16.18H88.25v2.542h-18Zm-27.955-5h18l10.53,10.531a1.75,1.75,0,0,0,1.237.513H88.25V47.115H39.75V11.178ZM15.375,35.607l8.994-4.352H36.25v6.5H23.625a1.75,1.75,0,0,0-1.75,1.75v47a1.75,1.75,0,0,0,1.75,1.75h80.75a1.75,1.75,0,0,0,1.75-1.75v-47a1.75,1.75,0,0,0-1.75-1.75H91.75v-6.5h11.881l8.994,4.352V94.756H15.375Zm68.72,62.648-2.814,4.5H46.72l-2.814-4.5Zm40.405,5.8-8.846,6.7H12.346l-8.846-6.7v-5.8H39.777l4.49,7.178a1.748,1.748,0,0,0,1.483.822h36.5a1.748,1.748,0,0,0,1.483-.822l4.49-7.178H124.5Z"/></svg>