<svg id="Layer_2" data-name="Layer 2" xmlns="http://www.w3.org/2000/svg" viewBox="0 0 128 128"><title>DIGITAL WALLET</title><path d="M120.25,50.083h-.125V29.333a7.759,7.759,0,0,0-7.75-7.75H7.75A7.759,7.759,0,0,0,0,29.333V98.667a7.759,7.759,0,0,0,7.75,7.75H112.375a7.759,7.759,0,0,0,7.75-7.75V77.917h.125a7.759,7.759,0,0,0,7.75-7.75V57.833A7.759,7.759,0,0,0,120.25,50.083Zm-112.5-25H112.375a4.255,4.255,0,0,1,4.25,4.25V31.75H3.5V29.333A4.255,4.255,0,0,1,7.75,25.083Zm104.625,77.834H7.75a4.255,4.255,0,0,1-4.25-4.25V96.25H116.625v2.417A4.255,4.255,0,0,1,112.375,102.917Zm4.25-10.167H3.5V85.5H32.25a1.75,1.75,0,0,0,1.237-.513l6.262-6.262a5.438,5.438,0,1,0-2.467-2.482L31.525,82H3.5V75.625h9.281a5.417,5.417,0,1,0,0-3.5H3.5V65.75H60.843a5.412,5.412,0,1,0-.046-3.5H3.5V55.875H20.788a5.417,5.417,0,1,0,0-3.5H3.5V46H31.618l7.452,6.2a5.437,5.437,0,1,0,2.239-2.69l-7.94-6.6a1.752,1.752,0,0,0-1.119-.4H3.5V35.25H116.625V50.083H101.167a7.759,7.759,0,0,0-7.75,7.75V70.167a7.759,7.759,0,0,0,7.75,7.75h15.458Zm-76.4-18.875a1.917,1.917,0,1,1,1.917,1.917A1.919,1.919,0,0,1,40.229,73.875Zm-24.243,0A1.917,1.917,0,1,1,17.9,75.792,1.919,1.919,0,0,1,15.986,73.875Zm48.038-9.938a1.917,1.917,0,1,1,1.917,1.917A1.918,1.918,0,0,1,64.024,63.937ZM23.992,54.125a1.917,1.917,0,1,1,1.917,1.917A1.919,1.919,0,0,1,23.992,54.125Zm20.133-1.917a1.917,1.917,0,1,1-1.917,1.917A1.919,1.919,0,0,1,44.125,52.208ZM124.5,70.167a4.255,4.255,0,0,1-4.25,4.25H101.167a4.255,4.255,0,0,1-4.25-4.25V57.833a4.255,4.255,0,0,1,4.25-4.25H120.25a4.255,4.255,0,0,1,4.25,4.25Z"/><path d="M104.667,58.917a1.75,1.75,0,0,0-1.75,1.75v6.54a1.75,1.75,0,0,0,3.5,0v-6.54A1.75,1.75,0,0,0,104.667,58.917Z"/></svg>