<?xml version="1.0" encoding="iso-8859-1"?>
<!-- Uploaded to: SVG Repo, www.svgrepo.com, Generator: SVG Repo Mixer Tools -->
<svg fill="#000000" height="800px" width="800px" version="1.1" id="Layer_1" xmlns="http://www.w3.org/2000/svg" xmlns:xlink="http://www.w3.org/1999/xlink" 
	 viewBox="0 0 512 512" xml:space="preserve">
<g>
	<g>
		<path d="M278.988,179.722h-45.975c-15.892,0-30.515,7.985-39.118,21.361l13.181,8.478c5.706-8.87,15.402-14.166,25.936-14.166
			h45.975c10.535,0,20.23,5.296,25.936,14.166l13.181-8.478C309.503,187.708,294.88,179.722,278.988,179.722z"/>
	</g>
</g>
<g>
	<g>
		<path d="M120.345,129.909c-4.937-4.937-11.496-7.656-18.468-7.656c-14.404,0-26.122,11.719-26.122,26.122v6.896h15.673v-6.896
			c0-5.762,4.687-10.449,10.449-10.449c2.786,0,5.408,1.089,7.383,3.065c1.977,1.977,3.066,4.599,3.066,7.384v6.896H128v-6.896
			C128,141.404,125.281,134.845,120.345,129.909z"/>
	</g>
</g>
<g>
	<g>
		<path d="M428.59,129.909c-4.937-4.937-11.496-7.656-18.468-7.656c-14.404,0-26.122,11.719-26.122,26.122v6.896h15.673v-6.896
			c0-5.762,4.687-10.449,10.449-10.449c2.786,0,5.408,1.089,7.383,3.065c1.977,1.977,3.066,4.599,3.066,7.384v6.896h15.673v-6.896
			C436.245,141.404,433.526,134.845,428.59,129.909z"/>
	</g>
</g>
<g>
	<g>
		<polygon points="131.099,373.029 102.4,346.123 102.4,274.808 144.959,274.808 144.959,259.135 86.727,259.135 86.727,352.913 
			108.182,373.029 84.637,373.029 84.637,388.702 150.465,388.702 150.465,373.029 		"/>
	</g>
</g>
<g>
	<g>
		<polygon points="404.431,373.029 425.273,352.838 425.273,259.135 367.041,259.135 367.041,274.808 409.6,274.808 409.6,346.199 
			381.905,373.029 360.49,373.029 360.49,388.702 426.318,388.702 426.318,373.029 		"/>
	</g>
</g>
<g>
	<g>
		<path d="M464.98,218.384h-28.735v-35.095c16.302-2.1,31.307-6.153,43.688-11.932c20.68-9.65,32.067-23.192,32.067-38.133
			s-11.387-28.483-32.067-38.134c-18.777-8.763-43.57-13.589-69.811-13.589s-51.034,4.826-69.811,13.589
			c-20.68,9.651-32.067,23.193-32.067,38.134s11.387,28.483,32.067,38.134c12.381,5.778,27.387,9.831,43.688,11.932v35.094H128
			v-35.095c16.302-2.1,31.307-6.153,43.688-11.932c20.68-9.65,32.067-23.192,32.067-38.133s-11.387-28.483-32.067-38.134
			c-18.777-8.763-43.57-13.589-69.811-13.589s-51.034,4.826-69.812,13.589C11.387,104.742,0,118.284,0,133.224
			s11.387,28.483,32.066,38.134c12.381,5.778,27.387,9.831,43.689,11.932v35.094H47.02v-24.555H0v64.784h47.02v-24.555h99.133
			l24.216,62.155c4.332,11.119,14.842,18.302,26.774,18.302h32.735v16.718h-39.184v99.265h130.612v-99.265h-39.184v-16.718h32.735
			c11.933,0,22.442-7.184,26.774-18.303l24.216-62.154h99.133v24.555H512v-64.784h-47.02V218.384z M31.347,242.939H15.673v-33.437
			h15.673V242.939z M15.673,133.224c0-17.051,35.403-36.049,86.204-36.049s86.204,18.998,86.204,36.049
			s-35.403,36.049-86.204,36.049S15.673,150.275,15.673,133.224z M112.327,218.384H91.429v-33.701
			c3.45,0.171,6.935,0.264,10.449,0.264s6.999-0.093,10.449-0.264V218.384z M305.633,346.906v67.918h-99.265v-67.918H305.633z
			 M245.551,331.233v-16.718h20.898v16.718H245.551z M327.028,290.521c-1.97,5.054-6.747,8.319-12.17,8.319h-32.736h-52.245h-32.735
			c-5.424,0-10.201-3.265-12.171-8.319l-21.998-56.464h186.054L327.028,290.521z M323.918,133.224
			c0-17.051,35.403-36.049,86.204-36.049s86.204,18.998,86.204,36.049s-35.403,36.049-86.204,36.049
			S323.918,150.275,323.918,133.224z M420.571,218.384h-20.898v-33.701c3.45,0.171,6.935,0.264,10.449,0.264
			c3.514,0,6.999-0.093,10.449-0.264V218.384z M480.653,209.502h15.673v33.437h-15.673V209.502z"/>
	</g>
</g>
<g>
	<g>
		<path d="M256,352.131c-15.844,0-28.735,12.89-28.735,28.735S240.156,409.6,256,409.6c15.844,0,28.735-12.89,28.735-28.735
			S271.844,352.131,256,352.131z M256,393.927c-7.202,0-13.061-5.859-13.061-13.061c0-7.202,5.859-13.061,13.061-13.061
			c7.203,0,13.061,5.859,13.061,13.061C269.061,388.068,263.203,393.927,256,393.927z"/>
	</g>
</g>
</svg>