<?xml version="1.0" encoding="iso-8859-1"?>
<!-- Uploaded to: SVG Repo, www.svgrepo.com, Generator: SVG Repo Mixer Tools -->
<!DOCTYPE svg PUBLIC "-//W3C//DTD SVG 1.1//EN" "http://www.w3.org/Graphics/SVG/1.1/DTD/svg11.dtd">
<svg fill="#000000" version="1.1" id="Capa_1" xmlns="http://www.w3.org/2000/svg" xmlns:xlink="http://www.w3.org/1999/xlink" 
	 width="800px" height="800px" viewBox="0 0 48.497 48.497"
	 xml:space="preserve">
<g>
	<g>
		<path d="M33.659,24.04c-0.091-0.927-0.312-1.815-0.645-2.647h0.008l-0.026-0.164l-0.055-0.021
			c-0.441-1.045-1.062-1.996-1.823-2.816c-0.05-0.054-0.1-0.106-0.149-0.158c-0.145-0.149-0.291-0.295-0.445-0.436
			c-1.728-1.572-4.022-2.533-6.538-2.533c-2.537,0-4.848,0.978-6.581,2.575c-0.403,0.372-0.775,0.779-1.11,1.214
			c-1.271,1.643-2.029,3.699-2.029,5.932c0,5.359,4.361,9.721,9.721,9.721c3.771,0,7.044-2.159,8.656-5.305
			c0.344-0.672,0.612-1.39,0.792-2.141c0.047-0.189,0.086-0.383,0.121-0.576c0.098-0.551,0.151-1.119,0.151-1.699
			c0-0.033-0.003-0.066-0.003-0.1C33.701,24.601,33.685,24.317,33.659,24.04z M31.874,20.999l0.057-0.063
			c0.073,0.145,0.145,0.29,0.209,0.437l-0.093-0.003l-0.173,0.023V20.999z M30.467,19.304l0.003-0.434
			c0.152,0.161,0.299,0.327,0.439,0.5l-0.176,0.261l-0.61-0.005l-0.039-0.129L30.467,19.304z M18.743,18.224v-0.016h0.193
			l0.018-0.067h0.318v0.14l-0.09,0.122h-0.439V18.224z M19.054,18.656c0,0,0.194-0.031,0.211-0.031s0,0.194,0,0.194l-0.44,0.027
			l-0.082-0.1L19.054,18.656z M32.494,22.517h-0.712l-0.436-0.323l-0.455,0.044v0.279h-0.146l-0.156-0.111l-0.788-0.2v-0.512
			L28.8,21.771l-0.311,0.166h-0.396l-0.195-0.02l-0.481,0.269v0.503l-0.986,0.713l0.082,0.304h0.199l-0.052,0.289l-0.143,0.052
			l-0.007,0.757l0.851,0.971h0.372l0.022-0.06h0.668l0.191-0.178h0.379l0.207,0.207l0.562,0.06l-0.074,0.749l0.626,1.104
			l-0.33,0.631l0.023,0.297l0.259,0.259v0.714l0.341,0.459v0.593h0.295c-1.638,2.011-4.131,3.297-6.92,3.297
			c-4.919,0-8.921-4.001-8.921-8.921c0-1.237,0.254-2.419,0.713-3.491v-0.278l0.318-0.387c0.11-0.21,0.23-0.414,0.356-0.611
			l0.015,0.161l-0.371,0.45l-0.318,0.665v0.508l0.37,0.179v0.705l0.355,0.607l0.289,0.043l0.037-0.207l-0.341-0.525l-0.067-0.512
			h0.2l0.086,0.525l0.492,0.719l-0.127,0.233l0.314,0.478l0.779,0.192v-0.125l0.311,0.044l-0.029,0.223l0.244,0.045l0.378,0.103
			l0.535,0.609l0.681,0.052l0.068,0.556l-0.469,0.326L19.86,26.77l-0.066,0.304l0.674,0.845l0.052,0.29c0,0,0.245,0.065,0.274,0.065
			c0.03,0,0.55,0.393,0.55,0.393v1.528l0.185,0.052l-0.127,0.704l0.312,0.415l-0.058,0.698l0.412,0.723l0.527,0.461l0.531,0.01
			l0.052-0.17l-0.391-0.33l0.023-0.161l0.069-0.2l0.016-0.203l-0.265-0.008l-0.131-0.167l0.22-0.211l0.029-0.16l-0.245-0.071
			l0.015-0.146l0.349-0.054l0.53-0.255l0.178-0.326l0.557-0.713l-0.127-0.556l0.171-0.298l0.512,0.017l0.347-0.271l0.109-1.073
			l0.381-0.485l0.067-0.312l-0.349-0.111l-0.229-0.377l-0.786-0.008l-0.623-0.238l-0.029-0.443l-0.208-0.362l-0.563-0.007
			l-0.326-0.513l-0.289-0.141l-0.015,0.156l-0.526,0.028l-0.193-0.268l-0.549-0.11l-0.451,0.521l-0.712-0.12l-0.055-0.803
			l-0.519-0.089l0.208-0.394l-0.06-0.227l-0.682,0.457l-0.43-0.052l-0.153-0.335l0.094-0.347l0.236-0.438l0.545-0.276h1.053
			l-0.004,0.321l0.379,0.176l-0.03-0.549l0.272-0.273l0.551-0.362l0.037-0.255l0.548-0.569l0.584-0.322l-0.053-0.043l0.396-0.371
			l0.146,0.037l0.066,0.083l0.149-0.165l0.037-0.018l-0.164-0.022l-0.167-0.056v-0.161l0.089-0.072h0.194l0.089,0.039l0.078,0.154
			l0.095-0.013v-0.015l0.026,0.01l0.273-0.041l0.039-0.135l0.155,0.039v0.146l-0.145,0.099l0.021,0.159l0.496,0.153
			c0,0,0,0.002,0,0.006l0.114-0.011l0.009-0.214l-0.394-0.179l-0.022-0.104l0.326-0.111l0.015-0.312l-0.341-0.207l-0.021-0.526
			l-0.468,0.229h-0.171l0.045-0.399l-0.637-0.15l-0.262,0.199v0.606l-0.473,0.149l-0.19,0.394l-0.204,0.034V19.48l-0.445-0.062
			l-0.222-0.146l-0.09-0.327l0.796-0.466l0.388-0.118l0.04,0.262l0.217-0.013l0.017-0.131l0.226-0.032l0.005-0.046l-0.097-0.04
			l-0.022-0.14l0.279-0.022l0.167-0.175l0.01-0.014l0.002,0.001l0.051-0.053l0.587-0.074l0.259,0.221l-0.68,0.36l0.865,0.205
			l0.111-0.289h0.377l0.135-0.253l-0.268-0.066v-0.319l-0.838-0.369l-0.578,0.065l-0.325,0.171l0.021,0.415l-0.341-0.051
			l-0.052-0.231l0.326-0.295l-0.593-0.03l-0.171,0.052l-0.073,0.2l0.223,0.037l-0.045,0.222l-0.377,0.024l-0.058,0.148l-0.549,0.014
			c0,0-0.016-0.31-0.038-0.31c-0.021,0,0.431-0.009,0.431-0.009l0.325-0.317l-0.178-0.09l-0.237,0.23l-0.393-0.022l-0.237-0.326
			H19.91l-0.525,0.393h0.482l0.043,0.142l-0.125,0.117l0.534,0.016l0.081,0.192l-0.601-0.021l-0.028-0.148l-0.379-0.081
			l-0.201-0.111l-0.449,0.004c1.473-1.073,3.283-1.709,5.241-1.709c2.257,0,4.317,0.844,5.89,2.229l-0.104,0.189l-0.412,0.161
			l-0.173,0.188l0.04,0.22l0.212,0.029l0.128,0.32l0.366-0.148l0.062,0.428h-0.112l-0.302-0.043l-0.333,0.055l-0.322,0.455
			l-0.461,0.073l-0.067,0.396l0.195,0.046l-0.056,0.253l-0.459-0.091l-0.421,0.091l-0.089,0.234l0.071,0.491l0.248,0.114
			l0.413-0.002l0.279-0.025l0.086-0.222l0.437-0.567l0.287,0.059l0.283-0.255l0.052,0.199l0.698,0.47l-0.086,0.114l-0.314-0.017
			l0.121,0.171l0.193,0.043l0.227-0.096l-0.004-0.272l0.102-0.049l-0.081-0.088l-0.465-0.258l-0.121-0.344h0.386l0.122,0.121
			l0.334,0.286l0.014,0.348l0.345,0.368l0.129-0.504l0.238-0.131l0.044,0.412l0.233,0.255l0.466-0.007
			c0.09,0.231,0.17,0.467,0.24,0.707L32.494,22.517z M19.566,19.68l0.232-0.11l0.212,0.05l-0.072,0.284l-0.229,0.073L19.566,19.68z
			 M20.805,20.349v0.183h-0.534l-0.2-0.056l0.05-0.127l0.256-0.106h0.351v0.106H20.805z M21.049,20.604v0.178l-0.134,0.085
			l-0.165,0.031c0,0,0-0.267,0-0.294H21.049z M20.899,20.531V20.32l0.184,0.168L20.899,20.531z M20.983,20.959v0.173l-0.128,0.128
			h-0.284l0.045-0.194l0.135-0.012l0.026-0.066L20.983,20.959z M20.277,20.604h0.294l-0.377,0.527l-0.156-0.083l0.033-0.223
			L20.277,20.604z M21.483,20.898v0.173h-0.282l-0.078-0.112v-0.16h0.021L21.483,20.898z M21.221,20.661l0.081-0.085l0.137,0.085
			l-0.108,0.09L21.221,20.661z M32.636,22.967l0.028-0.032c0.012,0.05,0.022,0.1,0.035,0.151L32.636,22.967z"/>
		<polygon points="28.43,19.587 28.449,19.732 28.233,19.777 28.204,20.084 28.463,20.084 28.808,20.051 28.985,19.84 
			28.796,19.767 28.692,19.647 28.539,19.394 28.463,19.039 28.17,19.099 28.088,19.225 28.088,19.366 28.228,19.462 		"/>
		<polygon points="28.182,19.707 28.196,19.514 28.025,19.439 27.786,19.496 27.606,19.781 27.606,19.966 27.815,19.966 		"/>
		<path d="M23.244,20.524l-0.054,0.137h-0.256v0.132h0.062c0,0,0.003,0.028,0.01,0.064l0.155-0.013l0.099-0.062l0.025-0.122
			l0.127-0.011l0.049-0.104l-0.115-0.023L23.244,20.524z"/>
		<polygon points="22.584,20.764 22.575,20.893 22.759,20.878 22.778,20.748 22.667,20.661 		"/>
		<path d="M45.96,13.252c-1.659-3.276-5.107-5.428-9.698-6.15l0.224,1.054c1.909,0.341,3.581,0.955,4.98,1.799l-0.337,0.116
			c1.274,3.165,1.967,6.841,2.053,10.729c-2.569-4.096-6.539-7.88-11.371-10.803c-1.106-0.67-2.236-1.262-3.374-1.808
			c0.702-0.109,1.401-0.202,2.089-0.26l-0.177-0.985c-1.156,0.1-2.335,0.278-3.522,0.518C23.335,5.983,19.791,5.11,16.44,4.919
			c2.427-2.471,5.224-3.921,8.109-3.921c0.316,0,0.633,0.018,0.951,0.053c2.47,0.273,4.723,1.616,6.601,3.836l0.844-0.579
			c-2.057-2.469-4.568-3.944-7.335-4.251c-3.76-0.414-7.43,1.44-10.462,4.808c-0.033,0-0.066-0.004-0.099-0.004
			c-5.531,0-9.753,1.943-11.888,5.474C1.364,13.304,1.265,17.07,2.804,21.11l0.866-0.552c-1.349-3.669-1.256-7.058,0.347-9.706
			c1.846-3.053,5.48-4.785,10.258-4.957c-2.214,2.79-4.023,6.421-5.187,10.564c-1.467,1.343-2.768,2.774-3.864,4.268l0.743,0.685
			c0.778-1.07,1.674-2.104,2.655-3.102c-0.312,1.381-0.558,2.808-0.72,4.274c-0.19,1.718-0.259,3.417-0.226,5.083
			c-0.344-0.357-0.698-0.702-1.035-1.069l-0.369,1.139c0.482,0.505,0.977,0.98,1.469,1.465c0.241,3.931,1.1,7.612,2.55,10.743
			c-3.212-0.918-5.616-2.685-6.867-5.154c-1.182-2.333-1.241-5.112-0.261-8.062l-0.898-0.479c-1.125,3.267-1.063,6.37,0.267,8.992
			c1.492,2.946,4.433,4.979,8.347,5.886c2.314,4.311,5.611,6.896,9.375,7.312c0.354,0.039,0.708,0.059,1.061,0.059
			c3.846,0,7.542-2.333,10.789-5.923l-0.746-0.64c-3.299,3.684-7.096,5.938-10.994,5.51c-3.212-0.354-6.071-2.489-8.19-6.062
			c1.146,0.186,2.361,0.283,3.641,0.283c3.123,0,6.484-0.586,9.818-1.676c1.55,0.413,3.027,0.679,4.354,0.754l0.179-0.99
			c-0.869-0.044-1.81-0.178-2.789-0.377c1.25-0.477,2.489-1.021,3.702-1.636c4.655-2.357,8.614-5.512,11.457-9.046
			c-0.522,2.755-1.345,5.428-2.47,8.194l1.051,0.059c1.345-3.382,2.225-6.601,2.692-9.978c0.191-0.283,0.397-0.563,0.574-0.851
			c0.045-0.072,0.077-0.145,0.121-0.218c1.127,3.44,0.963,6.609-0.553,9.115c-1.469,2.425-4.056,4.026-7.451,4.671l-0.03,1.011
			c3.782-0.669,6.688-2.437,8.337-5.164c1.801-2.975,1.897-6.752,0.348-10.802C47.317,20.567,47.624,16.534,45.96,13.252z
			 M42.373,10.567c1.15,0.863,2.073,1.907,2.695,3.136c1.414,2.791,1.235,6.219-0.435,9.816c-0.143-0.312-0.269-0.621-0.431-0.935
			c-0.008-0.015-0.018-0.028-0.024-0.042C44.284,18.235,43.662,14.131,42.373,10.567z M15.544,5.881
			c3.073,0.066,6.344,0.734,9.602,1.967c-2.599,0.661-5.217,1.635-7.73,2.908c-2.522,1.277-4.844,2.786-6.895,4.462
			C11.736,11.52,13.471,8.306,15.544,5.881z M15.815,40.664c-1.514,0-2.933-0.139-4.241-0.402c-0.105-0.206-0.219-0.396-0.32-0.609
			c-1.294-2.749-2.103-5.96-2.424-9.396c2.261,2.11,4.653,4.001,7.324,5.616c2.559,1.548,5.217,2.758,7.739,3.594
			C21.135,40.242,18.389,40.664,15.815,40.664z M30.627,36.848c-1.646,0.834-3.34,1.528-5.04,2.1
			c-2.842-0.792-5.948-2.133-8.917-3.929c-2.943-1.781-5.54-3.896-7.948-6.271c-0.099-1.97-0.053-3.997,0.175-6.054
			c0.219-1.978,0.597-3.876,1.087-5.685c2.264-2.036,4.925-3.863,7.882-5.36c2.884-1.461,5.904-2.517,8.865-3.145
			c1.541,0.669,3.07,1.445,4.563,2.349c5.272,3.19,9.473,7.423,11.877,11.942c-0.032,0.994-0.089,1.996-0.201,3.008
			c-0.03,0.27-0.083,0.529-0.119,0.798C40.082,30.616,35.797,34.229,30.627,36.848z"/>
		<polygon points="35.267,41.965 35.167,38.02 31.874,40.215 		"/>
		<polygon points="5.272,21.965 1.995,23.924 5.399,25.921 		"/>
		<polygon points="35.267,9.339 35.065,5.613 31.616,7.552 		"/>
	</g>
</g>
</svg>