<svg id="Layer_2" data-name="Layer 2" xmlns="http://www.w3.org/2000/svg" viewBox="0 0 128 128"><title>FLYING CAR</title><path d="M58.792,44.434H64.75a1.75,1.75,0,0,0,0-3.5H60.542V36.47a1.75,1.75,0,0,0-3.5,0v6.213A1.75,1.75,0,0,0,58.792,44.434Z"/><path d="M62.669,57.9H58.006a1.75,1.75,0,0,0,0,3.5h4.663a1.75,1.75,0,0,0,0-3.5Z"/><path d="M109.25,48.934h-1.743l-19.067-20.3a25.847,25.847,0,0,0-18.771-8.122H30.533A11.8,11.8,0,0,0,19.9,27.263L9.627,49.136A11.762,11.762,0,0,0,0,60.684V74.59a1.75,1.75,0,0,0,1.75,1.75H16a1.75,1.75,0,0,0,1.75-1.75,12.423,12.423,0,0,1,.094-1.466c.014-.123.038-.243.056-.365.055-.371.125-.74.213-1.1q.046-.188.1-.374.157-.57.368-1.124c.034-.088.062-.179.1-.266a12.487,12.487,0,0,1,23.151,0c.036.087.064.178.1.267q.21.553.368,1.124.051.186.1.374c.088.364.157.732.213,1.1.018.122.042.243.056.367a12.413,12.413,0,0,1,.094,1.465,1.75,1.75,0,0,0,1.75,1.75H75.485a1.75,1.75,0,0,0,1.75-1.75,12.408,12.408,0,0,1,.094-1.466c.014-.122.038-.241.055-.362.056-.373.125-.743.214-1.109q.045-.184.095-.367.159-.577.372-1.137c.032-.084.059-.171.093-.254a12.487,12.487,0,0,1,23.154,0c.034.083.061.169.093.253q.213.56.373,1.138.05.182.095.367c.089.366.158.737.214,1.109.018.121.041.24.055.362a12.408,12.408,0,0,1,.094,1.466,1.75,1.75,0,0,0,1.75,1.75H126.25A1.75,1.75,0,0,0,128,74.59V67.684A18.771,18.771,0,0,0,109.25,48.934ZM85.889,31.025l16.817,17.909H51.75V24.007H69.669A22.337,22.337,0,0,1,85.889,31.025ZM23.065,28.75a8.282,8.282,0,0,1,7.468-4.743H48.25V48.934H13.588ZM3.5,72.84V69.434H15.106c-.019.056-.029.114-.048.169-.137.417-.254.841-.357,1.272-.025.1-.057.207-.08.312a15.874,15.874,0,0,0-.277,1.653ZM30.25,58.59A16,16,0,0,0,16.8,65.934H3.5v-5.25a8.259,8.259,0,0,1,8.25-8.25h36.5v13.5H43.7A16,16,0,0,0,30.25,58.59Zm15.9,14.25a15.874,15.874,0,0,0-.277-1.653c-.023-.105-.054-.208-.08-.312-.1-.431-.22-.855-.357-1.272-.018-.056-.029-.114-.048-.169h29.2c-.018.053-.028.108-.045.161-.141.426-.261.861-.366,1.3-.023.095-.051.188-.072.283a15.882,15.882,0,0,0-.278,1.66ZM89.735,58.59a16,16,0,0,0-13.448,7.344H51.75v-13.5h57.5a15.266,15.266,0,0,1,15.142,13.5H103.183A16,16,0,0,0,89.735,58.59ZM124.5,72.84H105.641a15.882,15.882,0,0,0-.278-1.66c-.021-.1-.05-.188-.072-.283-.1-.441-.225-.876-.366-1.3-.017-.053-.027-.108-.045-.161H124.5Z"/><path d="M89.735,65.517a9.083,9.083,0,0,0-9.073,9.073v5.5a1.747,1.747,0,0,0,.4,1.119l3.286,3.952a14.554,14.554,0,0,0-.21,11.554l3.974,9.694a1.75,1.75,0,0,0,3.238,0l3.974-9.694a14.554,14.554,0,0,0-.21-11.554L98.4,81.207a1.747,1.747,0,0,0,.4-1.119v-5.5A9.083,9.083,0,0,0,89.735,65.517Zm0,3.5a5.579,5.579,0,0,1,5.573,5.573v.33H84.162v-.33A5.579,5.579,0,0,1,89.735,69.017ZM92.09,95.386l-2.354,5.744-2.354-5.744a11.083,11.083,0,0,1,.117-8.732h4.475A11.083,11.083,0,0,1,92.09,95.386Zm.144-12.232h-5l-3.075-3.7V78.419H95.309v1.037Z"/><path d="M30.331,65.517a9.083,9.083,0,0,0-9.073,9.073v6.5a1.75,1.75,0,0,0,.543,1.267l3.082,2.936a14.555,14.555,0,0,0-.144,11.42l3.973,9.694a1.75,1.75,0,0,0,3.238,0l3.974-9.694a14.555,14.555,0,0,0-.144-11.42l3.082-2.936a1.75,1.75,0,0,0,.543-1.267v-6.5A9.083,9.083,0,0,0,30.331,65.517Zm0,3.5A5.579,5.579,0,0,1,35.9,74.59v.33H24.758v-.33A5.579,5.579,0,0,1,30.331,69.017Zm2.354,26.369-2.354,5.743-2.354-5.743a11.085,11.085,0,0,1,.117-8.732h4.475A11.085,11.085,0,0,1,32.686,95.386Zm.265-12.232H27.712l-2.954-2.814v-1.92H35.9v1.92Z"/></svg>