<svg id="Layer_2" data-name="Layer 2" xmlns="http://www.w3.org/2000/svg" viewBox="0 0 128 128"><title>HARD DISK</title><path d="M106.167,0H21.833a5.756,5.756,0,0,0-5.75,5.75v116.5a5.756,5.756,0,0,0,5.75,5.75h84.333a5.756,5.756,0,0,0,5.75-5.75V5.75A5.756,5.756,0,0,0,106.167,0Zm2.25,122.25a2.253,2.253,0,0,1-2.25,2.25H21.833a2.253,2.253,0,0,1-2.25-2.25V5.75a2.253,2.253,0,0,1,2.25-2.25h84.333a2.253,2.253,0,0,1,2.25,2.25Z"/><path d="M96.911,105.455,86.9,97.622a1.748,1.748,0,0,0-1.078-.372H42.175a1.749,1.749,0,0,0-1.079.372l-10.008,7.833a1.749,1.749,0,0,0-.671,1.378v7.834a1.75,1.75,0,0,0,1.75,1.75H95.833a1.75,1.75,0,0,0,1.75-1.75v-7.834A1.751,1.751,0,0,0,96.911,105.455Zm-2.828,7.462H33.917v-5.231l8.862-6.936H85.222l8.861,6.936Z"/><path d="M98.292,7.006a6.619,6.619,0,1,0,6.619,6.619A6.627,6.627,0,0,0,98.292,7.006Zm0,9.738a3.119,3.119,0,1,1,3.119-3.119A3.123,3.123,0,0,1,98.292,16.744Z"/><path d="M36.328,13.625a6.619,6.619,0,1,0-6.619,6.619A6.627,6.627,0,0,0,36.328,13.625Zm-9.739,0a3.119,3.119,0,1,1,3.12,3.119A3.123,3.123,0,0,1,26.589,13.625Z"/><path d="M64,11.7A35.765,35.765,0,0,0,42.741,76.231L31.466,81.154a1.75,1.75,0,0,0-1.05,1.6v8.409a1.75,1.75,0,0,0,1.75,1.75h14.5A1.75,1.75,0,0,0,47.9,92.4l9.735-9.735A35.771,35.771,0,1,0,64,11.7ZM45.941,89.417H33.917V83.9l13.13-5.734h0l18-7.86ZM64,79.747a32.728,32.728,0,0,1-3.273-.165L74.07,66.237A1.75,1.75,0,0,0,72.133,63.4l-25.639,11.2A32.28,32.28,0,1,1,64,79.747Z"/><path d="M64,37.222a10.25,10.25,0,1,0,10.25,10.25A10.261,10.261,0,0,0,64,37.222Zm0,17a6.75,6.75,0,1,1,6.75-6.75A6.758,6.758,0,0,1,64,54.222Z"/><path d="M64,22.9a1.75,1.75,0,0,0,0,3.5A21.094,21.094,0,0,1,85.069,47.472a1.75,1.75,0,0,0,3.5,0A24.6,24.6,0,0,0,64,22.9Z"/></svg>