<svg id="Layer_2" data-name="Layer 2" xmlns="http://www.w3.org/2000/svg" viewBox="0 0 128 128"><title>HEADPHONES</title><path d="M126.25,85.167h-.125V66.643a61.25,61.25,0,1,0-122.5,0V85.167H1.75A1.75,1.75,0,0,0,0,86.917v16.25a9.761,9.761,0,0,0,9.75,9.75h8.5v1.94a7.759,7.759,0,0,0,7.75,7.75H39.333a12.765,12.765,0,0,0,12.75-12.75V88.226a12.765,12.765,0,0,0-12.75-12.75H26a7.759,7.759,0,0,0-7.75,7.75v1.941H15.125V66.643a49.489,49.489,0,0,1,10-29.875,22.32,22.32,0,0,0,26.741-1.5A18.876,18.876,0,0,1,64,30.836h1.75a18.876,18.876,0,0,1,12.137,4.429,22.284,22.284,0,0,0,26.743,1.5,49.489,49.489,0,0,1,10,29.873V85.167h-4.877V83.226a7.759,7.759,0,0,0-7.75-7.75H88.667a12.765,12.765,0,0,0-12.75,12.75v21.632a12.765,12.765,0,0,0,12.75,12.75H102a7.759,7.759,0,0,0,7.75-7.75v-1.94h8.5a9.761,9.761,0,0,0,9.75-9.75V86.917A1.75,1.75,0,0,0,126.25,85.167ZM48.583,88.226v21.632a9.26,9.26,0,0,1-9.25,9.25H31.75V78.976h7.583A9.26,9.26,0,0,1,48.583,88.226Zm-26.831-5A4.254,4.254,0,0,1,26,78.976H28.25v40.132H26a4.254,4.254,0,0,1-4.25-4.25V83.226Zm-3.5,14.066H10.876a1.75,1.75,0,0,0,0,3.5h7.376v8.625H9.75a6.257,6.257,0,0,1-6.25-6.25v-14.5H18.252ZM80.141,32.587A22.379,22.379,0,0,0,65.75,27.336H64a22.379,22.379,0,0,0-14.391,5.251,18.836,18.836,0,0,1-22.277,1.467A49.565,49.565,0,0,1,64,16.918h1.734a49.682,49.682,0,0,1,36.683,17.136A18.835,18.835,0,0,1,80.141,32.587Zm26.22.725A53.133,53.133,0,0,0,30.6,25.934a49.367,49.367,0,0,0-7.213,7.378A52.984,52.984,0,0,0,11.625,66.643V85.167h-4.5V66.643a57.75,57.75,0,1,1,115.5,0V85.167h-4.5V66.643A52.984,52.984,0,0,0,106.36,33.312ZM79.417,109.857V88.226a9.26,9.26,0,0,1,9.25-9.25H96.25v40.132H88.667A9.26,9.26,0,0,1,79.417,109.857Zm26.831,5a4.254,4.254,0,0,1-4.25,4.25H99.75V78.976H102a4.254,4.254,0,0,1,4.25,4.25v31.632Zm18.252-11.69a6.257,6.257,0,0,1-6.25,6.25h-8.5v-8.625h7.376a1.75,1.75,0,0,0,0-3.5h-7.376V88.667H124.5Z"/></svg>