<?xml version="1.0" encoding="iso-8859-1"?>
<!-- Uploaded to: SVG Repo, www.svgrepo.com, Generator: SVG Repo Mixer Tools -->
<svg fill="#000000" height="800px" width="800px" version="1.1" id="Layer_1" xmlns="http://www.w3.org/2000/svg" xmlns:xlink="http://www.w3.org/1999/xlink" 
	 viewBox="0 0 512 512" xml:space="preserve">
<g>
	<g>
		<g>
			<path d="M427.278,168.007C425.135,75.002,348.817,0,255.305,0C161.651,0,85.247,75.233,83.331,168.437
				c-38.522,12.297-66.5,48.429-66.5,90.977v70.264c0,48.453,36.279,88.59,83.1,94.677v5.844c0,45.105,36.696,81.802,81.802,81.802
				c20.474,0,40.068-7.602,55.171-21.404c13.17-12.036,21.96-27.879,25.216-45.202h3.575c4.465,0,8.084-3.619,8.084-8.084v-55.755
				c0-4.465-3.618-8.084-8.084-8.084h-2.499v-10.869c0-4.465-3.618-8.084-8.084-8.084c-4.465,0-8.084,3.618-8.084,8.084v10.869
				h-2.11c-4.465,0-8.084,3.618-8.084,8.084v55.755c0,4.464,3.618,8.084,8.084,8.084h0.68c-3.015,12.721-9.796,24.307-19.603,33.269
				c-12.116,11.072-27.836,17.172-44.262,17.172c-36.191,0-65.634-29.443-65.634-65.634v-5.043h28.917
				c52.647,0,95.478-42.831,95.478-95.478v-70.264c0-46.076-32.809-84.633-76.292-93.54c3.175-47.503,42.811-85.189,91.104-85.189
				c48.396,0,88.1,37.841,91.13,85.487c-42.803,9.424-74.929,47.649-74.929,93.244v70.264c0,52.647,42.83,95.478,95.477,95.478
				h32.708c52.647,0,95.478-42.831,95.478-95.478v-70.264C495.169,216.356,466.515,179.87,427.278,168.007z M253.002,389.638h4.61
				v5.316h-4.61V389.638z M253.002,411.12h4.61v18.105h-4.61V411.12z M108.158,374.603c-30.207,0-54.783-24.576-54.783-54.784
				v-50.544c0-30.206,24.576-54.781,54.783-54.781c30.208,0,54.785,24.575,54.785,54.781v50.544
				C162.943,350.027,138.366,374.603,108.158,374.603z M224.326,259.414v70.264c0,34.355-21.961,63.668-52.58,74.663
				c21.949-17.508,36.041-44.471,36.041-74.663v-70.264c0-30.194-14.091-57.153-36.04-74.662
				C202.364,195.748,224.326,225.061,224.326,259.414z M191.62,259.414v70.264c0,42.461-33.543,77.228-75.521,79.215v-18.579
				c35.398-3.962,63.012-34.059,63.012-70.495v-50.544c0-39.121-31.829-70.948-70.952-70.948c-39.122,0-70.95,31.827-70.95,70.948
				v50.544c0,36.338,27.464,66.367,62.723,70.459v17.741c-37.873-5.961-66.933-38.817-66.933-78.34v-70.264
				c0-43.731,35.577-79.31,79.309-79.31C156.04,180.104,191.62,215.683,191.62,259.414z M168.242,109.039
				c-11.373,15.678-18.622,34.529-20.139,54.953c-1.025-0.032-2.054-0.055-3.088-0.055h-32.708c-4.298,0-8.53,0.291-12.68,0.844
				c3.796-82.589,72.169-148.614,155.679-148.614c28.111,0,54.507,7.483,77.305,20.559c-10.799-2.421-21.901-3.668-33.158-3.668
				C245.497,33.059,195.27,62.163,168.242,109.039z M255.305,64.518c-7.689,0-15.189,0.818-22.424,2.36
				c20.013-11.359,42.887-17.652,66.571-17.652c27.127,0,53.269,8.045,75.68,23.249c21.008,25.243,34.203,57.201,35.848,92.132
				c-3.702-0.439-7.469-0.67-11.289-0.67h-32.708c-1.499,0-2.988,0.039-4.47,0.108C358.418,108.478,311.901,64.518,255.305,64.518z
				 M366.983,408.989c-43.731,0-79.31-35.579-79.31-79.311v-70.264c0-43.731,35.578-79.31,79.31-79.31
				c43.733,0,79.314,35.578,79.314,79.31v70.264C446.297,373.411,410.716,408.989,366.983,408.989z M426.423,404.342
				c21.949-17.509,36.041-44.47,36.041-74.663v-70.264c0-30.194-14.091-57.153-36.041-74.661
				c30.617,10.995,52.578,40.308,52.578,74.661v70.264h0.001C479.002,364.034,457.04,393.346,426.423,404.342z"/>
			<path d="M362.834,198.326c-39.122,0-70.95,31.827-70.95,70.948v50.544c0,39.122,31.828,70.951,70.95,70.951
				c39.123,0,70.952-31.829,70.952-70.951v-50.544C433.786,230.152,401.957,198.326,362.834,198.326z M417.619,319.818
				L417.619,319.818c0,30.208-24.577,54.784-54.785,54.784c-30.207,0-54.783-24.576-54.783-54.784v-50.544
				c0-30.206,24.576-54.781,54.783-54.781c30.208,0,54.785,24.575,54.785,54.781V319.818z"/>
			<path d="M108.158,248.474c-25.405,0-46.073,20.668-46.073,46.073c0,25.404,20.668,46.072,46.073,46.072
				c25.404,0,46.072-20.668,46.072-46.072C154.23,269.142,133.562,248.474,108.158,248.474z M108.158,324.452
				c-16.491,0-29.906-13.416-29.906-29.905c0-16.49,13.415-29.906,29.906-29.906c16.489,0,29.905,13.416,29.905,29.906
				C138.063,311.037,124.647,324.452,108.158,324.452z"/>
		</g>
	</g>
</g>
</svg>