<svg id="Layer_2" data-name="Layer 2" xmlns="http://www.w3.org/2000/svg" viewBox="0 0 128 128"><title>INNOVATION</title><path d="M64.468,19.556A36.262,36.262,0,0,0,27.9,54.705a35.823,35.823,0,0,0,6.634,21.838,40.14,40.14,0,0,1,7.238,23.409v9.642a1.748,1.748,0,0,0,.62,1.336l6.364,5.383v6.565A5.128,5.128,0,0,0,53.881,128H74.119a5.128,5.128,0,0,0,5.123-5.123v-6.565l6.364-5.383a1.748,1.748,0,0,0,.62-1.336V99.948a41.467,41.467,0,0,1,7.468-23.73A36.115,36.115,0,0,0,64.468,19.556Zm12.384,94.2h-25.7l-5.054-4.274H81.906Zm5.875-7.774H45.273V101.7H82.727Zm-6.984,16.9a1.625,1.625,0,0,1-1.623,1.623H53.881a1.625,1.625,0,0,1-1.623-1.623v-5.626H75.742ZM90.818,74.224A44.962,44.962,0,0,0,82.761,98.2H45.241a43.376,43.376,0,0,0-7.853-23.685A32.362,32.362,0,0,1,31.4,54.8,32.735,32.735,0,0,1,64.008,23.053l.415,0a32.615,32.615,0,0,1,26.4,51.168Z"/><path d="M83.244,55.682a19.9,19.9,0,0,0-2.309-5.6l2.294-2.295a1.749,1.749,0,0,0,0-2.475l-4.165-4.165a1.749,1.749,0,0,0-2.475,0l-2.281,2.281A19.891,19.891,0,0,0,68.7,41.095V37.876a1.75,1.75,0,0,0-1.75-1.75H61.055a1.75,1.75,0,0,0-1.75,1.75v3.219a19.891,19.891,0,0,0-5.613,2.333L51.41,41.146a1.749,1.749,0,0,0-2.475,0l-4.165,4.165a1.749,1.749,0,0,0,0,2.475l2.294,2.295a19.9,19.9,0,0,0-2.309,5.6H41.5a1.75,1.75,0,0,0-1.75,1.75v5.89a1.75,1.75,0,0,0,1.75,1.75h3.283a19.864,19.864,0,0,0,2.32,5.563l-2.333,2.333a1.749,1.749,0,0,0,0,2.475l4.165,4.165a1.8,1.8,0,0,0,2.475,0l2.346-2.346A19.878,19.878,0,0,0,59.3,79.555v3.321a1.75,1.75,0,0,0,1.75,1.75h5.891a1.75,1.75,0,0,0,1.75-1.75V79.555a19.878,19.878,0,0,0,5.549-2.294l2.346,2.346a1.749,1.749,0,0,0,2.475,0l4.165-4.165a1.749,1.749,0,0,0,0-2.475L80.9,70.634a19.864,19.864,0,0,0,2.32-5.562H86.5a1.75,1.75,0,0,0,1.75-1.75v-5.89a1.75,1.75,0,0,0-1.75-1.75Zm1.506,5.89H81.794a1.749,1.749,0,0,0-1.726,1.461,16.309,16.309,0,0,1-2.841,6.8A1.749,1.749,0,0,0,77.41,72.1L79.518,74.2l-1.69,1.69-2.115-2.116a1.75,1.75,0,0,0-2.255-.187,16.315,16.315,0,0,1-6.8,2.81A1.749,1.749,0,0,0,65.2,78.128v3H62.8v-3A1.749,1.749,0,0,0,61.339,76.4a16.315,16.315,0,0,1-6.8-2.81,1.75,1.75,0,0,0-2.255.187l-2.115,2.116-1.69-1.69L50.59,72.1a1.749,1.749,0,0,0,.183-2.261,16.309,16.309,0,0,1-2.841-6.8,1.749,1.749,0,0,0-1.726-1.461H43.25v-2.39h2.937a1.75,1.75,0,0,0,1.728-1.471,16.31,16.31,0,0,1,2.818-6.843,1.75,1.75,0,0,0-.187-2.255l-2.064-2.064,1.69-1.69,2.056,2.056a1.75,1.75,0,0,0,2.261.183,16.276,16.276,0,0,1,6.849-2.848A1.75,1.75,0,0,0,62.8,42.522v-2.9H65.2v2.9a1.75,1.75,0,0,0,1.467,1.727A16.276,16.276,0,0,1,73.511,47.1a1.748,1.748,0,0,0,2.261-.183l2.056-2.056,1.69,1.69-2.064,2.064a1.75,1.75,0,0,0-.187,2.255,16.31,16.31,0,0,1,2.818,6.843,1.75,1.75,0,0,0,1.728,1.471H84.75Z"/><path d="M64,48.025a12.3,12.3,0,1,0,12.3,12.3A12.317,12.317,0,0,0,64,48.025Zm0,21.106a8.8,8.8,0,1,1,8.8-8.8A8.813,8.813,0,0,1,64,69.132Z"/><path d="M64,13.583a1.75,1.75,0,0,0,1.75-1.75V1.75a1.75,1.75,0,0,0-3.5,0V11.833A1.75,1.75,0,0,0,64,13.583Z"/><path d="M106.78,18.745l-7.13,7.13a1.75,1.75,0,1,0,2.475,2.475l7.13-7.13a1.75,1.75,0,1,0-2.475-2.475Z"/><path d="M126.25,62.25H116.167a1.75,1.75,0,1,0,0,3.5H126.25a1.75,1.75,0,0,0,0-3.5Z"/><path d="M11.833,62.25H1.75a1.75,1.75,0,0,0,0,3.5H11.833a1.75,1.75,0,0,0,0-3.5Z"/><path d="M28.35,25.875l-7.13-7.13a1.75,1.75,0,0,0-2.475,2.475l7.13,7.13a1.75,1.75,0,1,0,2.475-2.475Z"/></svg>