<svg id="Layer_2" data-name="Layer 2" xmlns="http://www.w3.org/2000/svg" viewBox="0 0 128 128"><title>JOYSTICK</title><path d="M127.2,113.072l-10.008-6.5a1.749,1.749,0,0,0-.953-.282H112.75V103.9a6.758,6.758,0,0,0-6.75-6.75H81.621V91.488a1.751,1.751,0,0,0-.208-.828l-4-7.458a1.751,1.751,0,0,0-1.542-.922H71.25V41.53h.167a11.764,11.764,0,0,0,11.75-11.75V16.962a11.764,11.764,0,0,0-11.75-11.75H56.583a11.764,11.764,0,0,0-11.75,11.75V29.78a11.764,11.764,0,0,0,11.75,11.75h.167V82.28H52.133a1.748,1.748,0,0,0-1.553.943l-4,7.709a1.743,1.743,0,0,0-.2.807v5.414H22a6.758,6.758,0,0,0-6.75,6.75v2.389H11.758a1.749,1.749,0,0,0-.953.282L.8,113.072A1.749,1.749,0,0,0,0,114.54v6.5a1.75,1.75,0,0,0,1.75,1.75h124.5a1.75,1.75,0,0,0,1.75-1.75v-6.5A1.749,1.749,0,0,0,127.2,113.072ZM48.333,29.78V16.962a8.26,8.26,0,0,1,8.25-8.25H71.417a8.26,8.26,0,0,1,8.25,8.25V29.78a8.26,8.26,0,0,1-8.25,8.25H56.583A8.26,8.26,0,0,1,48.333,29.78ZM67.75,41.53V71.1h-7.5V41.53ZM60.25,74.6h7.5V82.28h-7.5ZM49.879,92.167,53.2,85.78H74.82l3.3,6.148v5.225H49.879ZM18.75,103.9a3.254,3.254,0,0,1,3.25-3.25H47.752a1.75,1.75,0,0,0,.377.043H79.871a1.75,1.75,0,0,0,.377-.043H106a3.254,3.254,0,0,1,3.25,3.25v2.389H18.75ZM124.5,119.288H3.5v-3.8l8.776-5.7H115.724l8.776,5.7Z"/><path d="M70.167,89.738H57.833a1.75,1.75,0,0,0,0,3.5H70.167a1.75,1.75,0,0,0,0-3.5Z"/></svg>