<svg id="Layer_2" data-name="Layer 2" xmlns="http://www.w3.org/2000/svg" viewBox="0 0 128 128"><title>MECHANICAL ARM</title><path d="M112.512,85.85H51.191V60.878a14.314,14.314,0,0,0-7.558-12.607L39.5,40.191H73.9a17.386,17.386,0,0,0,2.948,2.548v7.835H71.425a1.75,1.75,0,0,0-1.75,1.75V60.08a1.75,1.75,0,0,0,1.75,1.75h.62l-.814,1.277a1.75,1.75,0,0,0-.274.941V75.091a1.751,1.751,0,0,0,.513,1.238l6.9,6.9a1.751,1.751,0,0,0,2.475,0l4.143-4.144a1.751,1.751,0,0,0,0-2.475l-4.671-4.669V66.266l2.828-4.437h6.743l2.828,4.437v5.672l-4.671,4.669a1.751,1.751,0,0,0,0,2.475l4.143,4.144a1.751,1.751,0,0,0,2.475,0l6.9-6.9a1.751,1.751,0,0,0,.513-1.238V64.047a1.75,1.75,0,0,0-.274-.941l-.814-1.277h.62a1.75,1.75,0,0,0,1.75-1.75V52.325a1.75,1.75,0,0,0-1.75-1.75H96.183V42.739A17.253,17.253,0,1,0,73.9,16.691H23.273A11.737,11.737,0,0,0,9.585,33.33L22.723,58.993a14.294,14.294,0,0,0-.139,1.885V85.85h-7.1a15.488,15.488,0,1,0,0,30.975h97.024a15.488,15.488,0,1,0,0-30.975ZM37.706,36.691l-3.327-6.5h34.96a17.3,17.3,0,0,0,2.015,6.5ZM77.329,73.9l3.946,3.944-1.668,1.668-5.15-5.148V64.558L76.2,61.83h2.8l-1.9,2.986a1.748,1.748,0,0,0-.274.94v6.907A1.751,1.751,0,0,0,77.329,73.9Zm21.246-9.343v9.808l-5.15,5.148-1.668-1.669L95.7,73.9a1.751,1.751,0,0,0,.513-1.238V65.756a1.748,1.748,0,0,0-.274-.94l-1.9-2.986h2.8Zm1.282-6.228H73.175V54.075H99.856ZM92.683,44.557v6.018H80.349V44.557A17.294,17.294,0,0,0,92.683,44.557ZM86.516,14.675A13.753,13.753,0,1,1,72.75,28.441,13.922,13.922,0,0,1,86.516,14.675ZM71.353,20.191a17.307,17.307,0,0,0-2.015,6.5H32.587c-1.118-2.183-2.1-4.645-3.735-6.5ZM24.22,54.238,12.7,31.735a8.25,8.25,0,1,1,14.688-7.519l7.689,15.022h0l3.829,7.479A14.425,14.425,0,0,0,24.22,54.238Zm1.863,6.64a10.794,10.794,0,0,1,15.466-9.731,10.807,10.807,0,0,1,6.142,9.731V85.85H38.637V67.7a7.054,7.054,0,1,0-3.5,0V85.85H26.083Zm10.8,3.554a3.554,3.554,0,1,1,3.554-3.554A3.558,3.558,0,0,1,36.887,64.433Zm75.625,48.892H15.488a11.988,11.988,0,1,1,0-23.975h97.024a11.988,11.988,0,1,1,0,23.975Z"/><path d="M112.512,94.467a6.875,6.875,0,0,0-6.635,5.12H86.72a6.86,6.86,0,0,0-13.271,0h-18.9a6.86,6.86,0,0,0-13.271,0H22.123a6.87,6.87,0,1,0,0,3.5H41.28a6.86,6.86,0,0,0,13.271,0h18.9a6.86,6.86,0,0,0,13.271,0h19.157a6.866,6.866,0,1,0,6.635-8.62Zm-97.024,10.24a3.37,3.37,0,1,1,3.37-3.37A3.374,3.374,0,0,1,15.488,104.707Zm32.428,0a3.37,3.37,0,1,1,3.37-3.37A3.374,3.374,0,0,1,47.916,104.707Zm32.169,0a3.37,3.37,0,1,1,3.37-3.37A3.374,3.374,0,0,1,80.084,104.707Zm32.428,0a3.37,3.37,0,1,1,3.37-3.37A3.374,3.374,0,0,1,112.512,104.707Z"/><path d="M20.255,23.228a5.214,5.214,0,1,0,5.214,5.214A5.22,5.22,0,0,0,20.255,23.228Zm0,6.928a1.714,1.714,0,1,1,1.714-1.714A1.716,1.716,0,0,1,20.255,30.155Z"/><path d="M86.516,35.908a7.467,7.467,0,1,0-7.467-7.467A7.475,7.475,0,0,0,86.516,35.908Zm0-11.434a3.967,3.967,0,1,1-3.967,3.967A3.972,3.972,0,0,1,86.516,24.474Z"/></svg>