<svg id="Layer_2" data-name="Layer 2" xmlns="http://www.w3.org/2000/svg" viewBox="0 0 128 128"><title>MOBILE PHONE</title><path d="M97,0H31a5.757,5.757,0,0,0-5.75,5.75v116.5A5.757,5.757,0,0,0,31,128H97a5.757,5.757,0,0,0,5.75-5.75V5.75A5.757,5.757,0,0,0,97,0ZM28.75,5.75A2.252,2.252,0,0,1,31,3.5H97a2.252,2.252,0,0,1,2.25,2.25v9.5H28.75Zm70.5,13v90.5H28.75V18.75Zm0,103.5A2.252,2.252,0,0,1,97,124.5H31a2.252,2.252,0,0,1-2.25-2.25v-9.5h70.5Z"/><path d="M56.688,120.375H71.313a1.75,1.75,0,0,0,0-3.5H56.688a1.75,1.75,0,0,0,0,3.5Z"/><path d="M91.632,7.625H87.507a1.75,1.75,0,0,0,0,3.5h4.125a1.75,1.75,0,0,0,0-3.5Z"/></svg>