<svg id="Layer_2" data-name="Layer 2" xmlns="http://www.w3.org/2000/svg" viewBox="0 0 128 128"><title>MOTHERBOARD</title><path d="M116.7,0H11.3a1.75,1.75,0,0,0-1.75,1.75v124.5A1.75,1.75,0,0,0,11.3,128H116.7a1.75,1.75,0,0,0,1.75-1.75V1.75A1.75,1.75,0,0,0,116.7,0Zm-1.75,80.667h-6.822V74.748h6.822Zm-6.822,3.5h6.822V90h-6.822ZM85.005,3.5V7.415H63.755V3.5Zm-71.952,0h8.967l8.472,8.954V54.962l-8.472,8.955H13.053Zm63.077,121V92.25H88.912l13.838,9.2V124.5Zm30.12,0V100.508a1.75,1.75,0,0,0-.781-1.457L90.409,89.043a1.746,1.746,0,0,0-.969-.293H74.38a1.75,1.75,0,0,0-1.75,1.75v34H13.053V67.417h9.721a1.753,1.753,0,0,0,1.271-.547l9.469-10.009a1.753,1.753,0,0,0,.479-1.2v-43.9a1.751,1.751,0,0,0-.479-1.2L26.839,3.5H60.255V9.165a1.75,1.75,0,0,0,1.75,1.75h24.75a1.75,1.75,0,0,0,1.75-1.75V3.5h26.441V71.248h-8.572a1.75,1.75,0,0,0-1.75,1.75v18.75a1.75,1.75,0,0,0,1.75,1.75h8.572v31Z"/><path d="M24.524,50.667V15a1.75,1.75,0,0,0-3.5,0V50.667a1.75,1.75,0,0,0,3.5,0Z"/><path d="M86.755,19.583H62.005a1.75,1.75,0,0,0-1.75,1.75v24.75a1.75,1.75,0,0,0,1.75,1.75h24.75a1.75,1.75,0,0,0,1.75-1.75V21.333A1.75,1.75,0,0,0,86.755,19.583Zm-1.75,24.75H63.755V23.083h21.25Z"/><path d="M111.334,63.665V9.165a1.75,1.75,0,0,0-1.75-1.75H93.834a1.75,1.75,0,0,0-1.75,1.75v54.5a1.75,1.75,0,0,0,1.75,1.75h15.75A1.75,1.75,0,0,0,111.334,63.665ZM95.584,20.923h4.375V51.907H95.584Zm7.875,0h4.375V51.907h-4.375Zm4.375-3.5h-4.375V10.915h4.375Zm-7.875-6.508v6.508H95.584V10.915ZM95.584,55.407h4.375v6.508H95.584Zm7.875,6.508V55.407h4.375v6.508Z"/><path d="M96.125,115.417h-13a1.75,1.75,0,0,0,0,3.5h13a1.75,1.75,0,0,0,0-3.5Z"/><path d="M96.125,105.917h-13a1.75,1.75,0,0,0,0,3.5h13a1.75,1.75,0,0,0,0-3.5Z"/><path d="M21.773,77.25A1.75,1.75,0,0,0,20.023,79V96.75a1.75,1.75,0,0,0,3.5,0V79A1.75,1.75,0,0,0,21.773,77.25Z"/><path d="M21.773,102.917a1.75,1.75,0,0,0-1.75,1.75v3a1.75,1.75,0,0,0,3.5,0v-3A1.75,1.75,0,0,0,21.773,102.917Z"/><path d="M21.773,112.417a1.75,1.75,0,0,0-1.75,1.75v3a1.75,1.75,0,0,0,3.5,0v-3A1.75,1.75,0,0,0,21.773,112.417Z"/><path d="M37.427,53.657a1.731,1.731,0,0,0,.072.469v9.538a1.75,1.75,0,0,0,1.75,1.75H55a1.75,1.75,0,0,0,1.75-1.75V9.165A1.75,1.75,0,0,0,55,7.415H39.249a1.75,1.75,0,0,0-1.75,1.75V18.7a1.57,1.57,0,0,0,0,.939V53.188A1.731,1.731,0,0,0,37.427,53.657Zm15.822-1.75H48.874V20.923h4.375Zm-7.875,0H41V20.923h4.375ZM41,55.407h4.375v6.508H41Zm7.875,6.508V55.407h4.375v6.508Zm4.375-44.492H48.874V10.915h4.375Zm-7.875-6.508v6.508H41V10.915Z"/><path d="M69.276,40.563a1.744,1.744,0,0,0,1.237-.513L80.722,29.842a1.75,1.75,0,0,0-2.475-2.475L68.039,37.575a1.75,1.75,0,0,0,1.237,2.987Z"/><path d="M86.755,52.412H62.005a1.75,1.75,0,0,0,0,3.5h24.75a1.75,1.75,0,0,0,0-3.5Z"/><path d="M81.25,61.915H67.511a1.75,1.75,0,0,0,0,3.5H81.25a1.75,1.75,0,0,0,0-3.5Z"/><path d="M65.667,77.25h-35.5A1.75,1.75,0,0,0,28.417,79v6.833a1.75,1.75,0,0,0,1.75,1.75h35.5a1.75,1.75,0,0,0,1.75-1.75V79A1.75,1.75,0,0,0,65.667,77.25Zm-33.75,3.5H56.125v3.333H31.917Zm32,3.333H59.625V80.75h4.292Z"/><path d="M65.667,101h-35.5a1.75,1.75,0,0,0-1.75,1.75v6.833a1.75,1.75,0,0,0,1.75,1.75h35.5a1.75,1.75,0,0,0,1.75-1.75V102.75A1.75,1.75,0,0,0,65.667,101Zm-33.75,3.5H56.125v3.333H31.917Zm32,3.333H59.625V104.5h4.292Z"/><path d="M65.667,92.75h-35.5a1.75,1.75,0,0,0,0,3.5h35.5a1.75,1.75,0,1,0,0-3.5Z"/><path d="M65.667,116.083h-35.5a1.75,1.75,0,0,0,0,3.5h35.5a1.75,1.75,0,0,0,0-3.5Z"/></svg>