<svg id="Layer_2" data-name="Layer 2" xmlns="http://www.w3.org/2000/svg" viewBox="0 0 128 128"><title>ROBOT ARM</title><path d="M120.917,84H113.25V60.126a12.952,12.952,0,0,0-12.938-12.937H64.187V29.25h3.936a1.747,1.747,0,0,0,.97-.293L79.1,22.291a1.75,1.75,0,0,0,.78-1.457V15.246h5.527a1.748,1.748,0,0,0,1.332-.615L96.749,2.885A1.75,1.75,0,0,0,95.417,0H7.083A1.75,1.75,0,0,0,5.751,2.885L15.76,14.631a1.748,1.748,0,0,0,1.332.615h5.527V20.5a1.749,1.749,0,0,0,.747,1.434l10.008,7a1.749,1.749,0,0,0,1,.316h3.936V60.126A12.952,12.952,0,0,0,51.25,73.064H87.375V84H79.708a1.75,1.75,0,0,0-1.75,1.75V96.336a1.75,1.75,0,0,0,1.75,1.75h2.013l-1.738,2.727a1.746,1.746,0,0,0-.274.941v15.078a1.751,1.751,0,0,0,.513,1.238l9.422,9.418a1.75,1.75,0,0,0,2.475,0l5.656-5.658a1.75,1.75,0,0,0,0-2.475l-6.565-6.562v-8.2l4.15-6.511h9.909l4.15,6.511v8.2l-6.565,6.562a1.75,1.75,0,0,0,0,2.475l5.656,5.658a1.75,1.75,0,0,0,2.475,0l9.422-9.418a1.751,1.751,0,0,0,.513-1.238V101.753a1.746,1.746,0,0,0-.274-.941L118.9,98.086h2.013a1.75,1.75,0,0,0,1.75-1.75V85.748A1.75,1.75,0,0,0,120.917,84ZM60.687,47.189H53V29.25h7.687ZM10.873,3.5H91.627L84.6,11.746H17.9ZM26.119,19.586v-4.34H76.381V19.9L67.594,25.75H34.929Zm15.693,31.7V29.25H49.5V47.321A13,13,0,0,0,41.812,51.286ZM51.25,69.564a9.438,9.438,0,1,1,0-18.875H91.472a12.97,12.97,0,0,0-3.964,7.688H56.861a5.876,5.876,0,1,0,0,3.5H87.375v7.688Zm2.377-9.437A2.377,2.377,0,1,1,51.25,57.75,2.379,2.379,0,0,1,53.627,60.126ZM90.875,71.314V60.126a9.438,9.438,0,1,1,18.875,0V84h-7.688V65.737a5.877,5.877,0,1,0-3.5,0V84H90.875Zm9.437-8.811a2.376,2.376,0,1,1,2.377-2.376A2.379,2.379,0,0,1,100.312,62.5ZM88.221,114.755l5.841,5.837-3.182,3.183-7.672-7.668V102.264l2.664-4.178h5.336l-3.225,5.06a1.743,1.743,0,0,0-.274.94v9.431A1.751,1.751,0,0,0,88.221,114.755Zm29.2-12.491v13.843l-7.672,7.668-3.182-3.183,5.841-5.837a1.751,1.751,0,0,0,.513-1.238v-9.431a1.743,1.743,0,0,0-.274-.94l-3.226-5.06h5.336Zm1.75-7.678H81.458V87.5h37.709Z"/></svg>