<svg id="Layer_2" data-name="Layer 2" xmlns="http://www.w3.org/2000/svg" viewBox="0 0 128 128"><title>SATELLITES</title><path d="M127.7,38.944l-6.733-10.008a1.752,1.752,0,0,0-1.452-.773H88.765a1.75,1.75,0,0,0-1.75,1.75V41.586H83.459V26.39a1.749,1.749,0,0,0-.566-1.289l-8.474-7.779a1.751,1.751,0,0,0-1.184-.461H54.765a1.751,1.751,0,0,0-1.184.461L45.107,25.1a1.749,1.749,0,0,0-.566,1.289v15.2H40.985V29.913a1.75,1.75,0,0,0-1.75-1.75H8.483a1.752,1.752,0,0,0-1.452.773L.3,38.944a1.75,1.75,0,0,0-.3.977v6.831a1.75,1.75,0,0,0,.3.977L7.031,57.737a1.752,1.752,0,0,0,1.452.773H39.235a1.75,1.75,0,0,0,1.75-1.75V45.086h3.556v15.2a1.749,1.749,0,0,0,.566,1.289l7.907,7.259v7.256H47.708a1.75,1.75,0,0,0-1.288.565l-8.473,9.214c-.031.034-.054.072-.082.108s-.068.083-.1.128-.055.1-.082.15-.051.093-.072.143a1.752,1.752,0,0,0-.056.18c-.013.047-.03.091-.04.139a1.748,1.748,0,0,0-.034.337v9.214a1.75,1.75,0,0,0,1.75,1.75H58.793l1.5,11.6a1.75,1.75,0,0,0,1.735,1.526h3.949a1.75,1.75,0,0,0,1.735-1.526l1.5-11.6H88.765a1.75,1.75,0,0,0,1.75-1.75V87.052a1.746,1.746,0,0,0-.034-.337c-.009-.048-.027-.092-.04-.138a1.739,1.739,0,0,0-.056-.18c-.02-.05-.047-.1-.072-.143s-.05-.1-.082-.151-.064-.085-.1-.127-.051-.074-.082-.108L81.58,76.653a1.75,1.75,0,0,0-1.288-.565H74.985V68.832l7.907-7.259a1.749,1.749,0,0,0,.566-1.289v-15.2h3.556V56.76a1.75,1.75,0,0,0,1.75,1.75h30.752a1.752,1.752,0,0,0,1.452-.773L127.7,47.729a1.75,1.75,0,0,0,.3-.977V39.921A1.75,1.75,0,0,0,127.7,38.944Zm-90.217,9.2H24.244v-3.06H37.485Zm-13.241-6.56v-3.06H37.485v3.06Zm13.241-6.56H24.244V31.663H37.485ZM3.5,46.218V40.455l5.915-8.792H20.744V55.01H9.415ZM24.244,55.01V51.646H37.485V55.01Zm40.191,52.63h-.871l-1.243-9.623h3.357Zm3.233-13.123H40.985V88.8H87.015v5.714ZM84.778,85.3H43.222l5.255-5.714H79.523ZM56.515,76.088V69.813H71.485v6.275ZM79.959,59.514l-7.405,6.8H55.446l-7.405-6.8V27.159l7.405-6.8H72.554l7.405,6.8ZM90.515,38.527h13.241v3.06H90.515Zm13.241,6.56v3.06H90.515v-3.06Zm0-13.423v3.364H90.515V31.663ZM90.515,51.646h13.241V55.01H90.515ZM124.5,46.218l-5.915,8.792H107.256V31.663h11.329l5.915,8.792Z"/><path d="M74.5,28.163h-21a1.75,1.75,0,0,0-1.75,1.75v6.864a1.75,1.75,0,0,0,1.75,1.75h21a1.75,1.75,0,0,0,1.75-1.75V29.913A1.75,1.75,0,0,0,74.5,28.163Zm-1.75,6.864H55.25V31.663h17.5Z"/><path d="M74.5,41.586h-21a1.75,1.75,0,0,0,0,3.5h21a1.75,1.75,0,0,0,0-3.5Z"/><path d="M70.75,48.592H57.25a1.75,1.75,0,0,0,0,3.5h13.5a1.75,1.75,0,0,0,0-3.5Z"/></svg>