<svg id="Layer_2" data-name="Layer 2" xmlns="http://www.w3.org/2000/svg" viewBox="0 0 128 128"><title>SERVERS</title><path d="M127.085,34.034A1.751,1.751,0,0,0,128,32.5V15.837a1.751,1.751,0,0,0-.915-1.538l-9-4.892V7.75A7.759,7.759,0,0,0,110.333,0H16.958a7.759,7.759,0,0,0-7.75,7.75V9.792L.915,14.3A1.751,1.751,0,0,0,0,15.837V32.5a1.751,1.751,0,0,0,.915,1.538L9.208,38.54V49.626L.915,54.133A1.751,1.751,0,0,0,0,55.671V72.329a1.751,1.751,0,0,0,.915,1.538l8.293,4.507V89.46L.915,93.966A1.751,1.751,0,0,0,0,95.5v16.659A1.751,1.751,0,0,0,.915,113.7l8.293,4.507v2.042a7.759,7.759,0,0,0,7.75,7.75h93.376a7.759,7.759,0,0,0,7.75-7.75v-1.657l9-4.892a1.751,1.751,0,0,0,.915-1.538V95.5a1.751,1.751,0,0,0-.915-1.538l-9-4.891V78.759l9-4.892A1.751,1.751,0,0,0,128,72.329V55.671a1.751,1.751,0,0,0-.915-1.538l-9-4.892V38.925ZM12.708,39.25H114.583v9.667H12.708Zm0-31.5a4.255,4.255,0,0,1,4.25-4.25h93.376a4.255,4.255,0,0,1,4.25,4.25V9.083H12.708ZM3.5,16.878l7.9-4.295H116.6l7.9,4.295V31.455l-7.9,4.295H11.4L3.5,31.455ZM114.583,88.75H12.708V79.083H114.583Zm0,31.5a4.255,4.255,0,0,1-4.25,4.25H16.958a4.255,4.255,0,0,1-4.25-4.25v-1.333H114.583Zm9.917-9.128-7.9,4.295H11.4l-7.9-4.295V96.545l7.9-4.295H116.6l7.9,4.295Zm0-39.834-7.9,4.295H11.4L3.5,71.288V56.712l7.9-4.295H116.6l7.9,4.295Z"/><path d="M74.333,29.75h14A3.754,3.754,0,0,0,92.083,26V22.333a3.754,3.754,0,0,0-3.75-3.75h-14a3.754,3.754,0,0,0-3.75,3.75V26A3.754,3.754,0,0,0,74.333,29.75Zm-.25-7.417a.25.25,0,0,1,.25-.25h14a.25.25,0,0,1,.25.25V26a.25.25,0,0,1-.25.25h-14a.25.25,0,0,1-.25-.25Z"/><path d="M100.333,29.75h14a3.754,3.754,0,0,0,3.75-3.75V22.333a3.754,3.754,0,0,0-3.75-3.75h-14a3.754,3.754,0,0,0-3.75,3.75V26A3.754,3.754,0,0,0,100.333,29.75Zm-.25-7.417a.25.25,0,0,1,.25-.25h14a.25.25,0,0,1,.25.25V26a.25.25,0,0,1-.25.25h-14a.25.25,0,0,1-.25-.25Z"/><path d="M48.875,25.917a1.75,1.75,0,0,0,0-3.5h-37a1.75,1.75,0,0,0,0,3.5Z"/><path d="M88.333,58.417h-14a3.754,3.754,0,0,0-3.75,3.75v3.666a3.754,3.754,0,0,0,3.75,3.75h14a3.754,3.754,0,0,0,3.75-3.75V62.167A3.754,3.754,0,0,0,88.333,58.417Zm.25,7.416a.25.25,0,0,1-.25.25h-14a.25.25,0,0,1-.25-.25V62.167a.25.25,0,0,1,.25-.25h14a.25.25,0,0,1,.25.25Z"/><path d="M100.333,58.417a3.754,3.754,0,0,0-3.75,3.75v3.666a3.754,3.754,0,0,0,3.75,3.75h14a3.754,3.754,0,0,0,3.75-3.75V62.167a3.754,3.754,0,0,0-3.75-3.75Zm14.25,3.75v3.666a.25.25,0,0,1-.25.25h-14a.25.25,0,0,1-.25-.25V62.167a.25.25,0,0,1,.25-.25h14A.25.25,0,0,1,114.583,62.167Z"/><path d="M48.875,62.25h-37a1.75,1.75,0,0,0,0,3.5h37a1.75,1.75,0,0,0,0-3.5Z"/><path d="M88.333,98.25h-14a3.754,3.754,0,0,0-3.75,3.75v3.667a3.754,3.754,0,0,0,3.75,3.75h14a3.754,3.754,0,0,0,3.75-3.75V102A3.754,3.754,0,0,0,88.333,98.25Zm.25,7.417a.25.25,0,0,1-.25.25h-14a.25.25,0,0,1-.25-.25V102a.25.25,0,0,1,.25-.25h14a.25.25,0,0,1,.25.25Z"/><path d="M100.333,98.25a3.754,3.754,0,0,0-3.75,3.75v3.667a3.754,3.754,0,0,0,3.75,3.75h14a3.754,3.754,0,0,0,3.75-3.75V102a3.754,3.754,0,0,0-3.75-3.75Zm14.25,3.75v3.667a.25.25,0,0,1-.25.25h-14a.25.25,0,0,1-.25-.25V102a.25.25,0,0,1,.25-.25h14A.25.25,0,0,1,114.583,102Z"/><path d="M48.875,102.083h-37a1.75,1.75,0,0,0,0,3.5h37a1.75,1.75,0,1,0,0-3.5Z"/></svg>