<svg id="Layer_2" data-name="Layer 2" xmlns="http://www.w3.org/2000/svg" viewBox="0 0 128 128"><title>SMART TV</title><path d="M126.25,13.572H1.75A1.75,1.75,0,0,0,0,15.322V83.847A1.75,1.75,0,0,0,1.75,85.6H53.875V97.878l-24.582,7.44a1.749,1.749,0,0,0-1.168,2.182,9.729,9.729,0,0,0,12.155,6.508L64,106.83l23.721,7.178A9.748,9.748,0,0,0,99.875,107.5a1.749,1.749,0,0,0-1.168-2.182l-25-7.566V85.6H126.25a1.75,1.75,0,0,0,1.75-1.75V15.322A1.75,1.75,0,0,0,126.25,13.572Zm-54.8,87.154,24.331,7.364a6.257,6.257,0,0,1-7.048,2.568l-24.228-7.332a1.74,1.74,0,0,0-1.014,0l-24.227,7.332a6.26,6.26,0,0,1-7.049-2.568l23.914-7.238a1.749,1.749,0,0,0,1.243-1.675V85.6H70.208V99.051A1.75,1.75,0,0,0,71.451,100.726ZM124.5,82.1H3.5V17.072h121Z"/><path d="M11.958,75.6H116.041a1.75,1.75,0,0,0,1.75-1.75V25.322a1.75,1.75,0,0,0-1.75-1.75H11.958a1.75,1.75,0,0,0-1.75,1.75V73.847A1.75,1.75,0,0,0,11.958,75.6Zm1.75-48.525H114.291V72.1H13.708Z"/><path d="M36.587,33.572H21.958a1.75,1.75,0,0,0-1.75,1.75V45.581a1.75,1.75,0,0,0,1.75,1.75H36.587a1.75,1.75,0,0,0,1.75-1.75V35.322A1.75,1.75,0,0,0,36.587,33.572Zm-1.75,10.259H23.708V37.072H34.837Z"/><path d="M36.587,51.4H21.958a1.75,1.75,0,0,0-1.75,1.75V63.409a1.75,1.75,0,0,0,1.75,1.75H36.587a1.75,1.75,0,0,0,1.75-1.75V53.15A1.75,1.75,0,0,0,36.587,51.4Zm-1.75,10.259H23.708V54.9H34.837Z"/><path d="M59.6,33.572H44.971a1.75,1.75,0,0,0-1.75,1.75V63.847a1.75,1.75,0,0,0,1.75,1.75H59.6a1.75,1.75,0,0,0,1.75-1.75V35.322A1.75,1.75,0,0,0,59.6,33.572ZM57.85,62.1H46.721V37.072H57.85Z"/><path d="M105.624,33.572H67.982a1.75,1.75,0,0,0-1.75,1.75V63.847a1.75,1.75,0,0,0,1.75,1.75h37.642a1.75,1.75,0,0,0,1.75-1.75V35.322A1.75,1.75,0,0,0,105.624,33.572ZM103.874,62.1H69.732V37.072h34.142Z"/><path d="M84.437,55.338a1.75,1.75,0,0,0,2.374-.094L95.657,46.4a1.75,1.75,0,0,0-2.475-2.475l-7.7,7.7-5.156-4.4a1.75,1.75,0,0,0-2.273,2.662Z"/></svg>