<?xml version="1.0" encoding="iso-8859-1"?>
<!-- Uploaded to: SVG Repo, www.svgrepo.com, Generator: SVG Repo Mixer Tools -->
<svg fill="#000000" version="1.1" id="Layer_1" xmlns="http://www.w3.org/2000/svg" xmlns:xlink="http://www.w3.org/1999/xlink" 
	 viewBox="0 0 512 512" xml:space="preserve">
<g>
	<g>
		<path d="M399.373,28.518C353.688,9.595,305.45,0,256,0s-97.687,9.595-143.372,28.518l-4.815,1.995v450.974l4.815,1.995
			C158.314,502.405,206.55,512,256,512s97.687-9.595,143.372-28.518l4.815-1.995V30.513L399.373,28.518z M123.412,40.975
			C165.765,24.133,210.343,15.599,256,15.599c45.658,0,90.236,8.534,132.588,25.377v57.663H123.412V40.975z M388.588,471.025
			c-42.352,16.843-86.93,25.377-132.588,25.377c-45.658,0-90.235-8.533-132.588-25.377v-55.216h265.176V471.025z M388.589,400.21
			H123.413V114.237h265.176V400.21z"/>
	</g>
</g>
<g>
	<g>
		<path d="M256,425.168c-17.489,0-31.717,14.228-31.717,31.717c0,17.489,14.228,31.717,31.717,31.717
			c17.489,0,31.717-14.228,31.717-31.717C287.717,439.396,273.489,425.168,256,425.168z M256,473.004
			c-8.888,0-16.119-7.23-16.119-16.119s7.23-16.118,16.119-16.118c8.888,0,16.118,7.23,16.118,16.118S264.888,473.004,256,473.004z"
			/>
	</g>
</g>
<g>
	<g>
		<path d="M256.001,135.351l-51.018,34.012v-27.484h-15.599v37.883l-15.703,10.469l8.652,12.978l7.051-4.7v68.855h133.233v-68.855
			l7.051,4.7l8.652-12.978L256.001,135.351z M307.018,251.765H204.982v-63.656L256,154.097l51.018,34.012V251.765z"/>
	</g>
</g>
<g>
	<g>
		<path d="M170.208,317.974c-17.202,0-31.197,13.995-31.197,31.197c0,17.201,13.996,31.197,31.197,31.197
			c17.202,0,31.197-13.995,31.197-31.197S187.41,317.974,170.208,317.974z M170.208,364.769c-8.601,0-15.599-6.998-15.599-15.599
			c0-8.601,6.999-15.599,15.599-15.599c8.601,0,15.599,6.997,15.599,15.599C185.807,357.772,178.809,364.769,170.208,364.769z"/>
	</g>
</g>
<g>
	<g>
		<path d="M341.793,317.974c-17.203,0-31.197,13.994-31.197,31.197c0,17.202,13.995,31.197,31.197,31.197
			s31.197-13.995,31.197-31.197S358.995,317.974,341.793,317.974z M341.793,364.769c-8.601,0-15.599-6.998-15.599-15.599
			c0-8.601,6.996-15.599,15.599-15.599c8.601,0,15.599,6.997,15.599,15.599C357.392,357.772,350.394,364.769,341.793,364.769z"/>
	</g>
</g>
<g>
	<g>
		<path d="M256,317.974c-17.202,0-31.197,13.995-31.197,31.197s13.995,31.197,31.197,31.197s31.197-13.995,31.197-31.197
			C287.198,331.968,273.203,317.974,256,317.974z M256,364.769c-8.601,0-15.599-6.998-15.599-15.599
			c0-8.601,6.997-15.599,15.599-15.599c8.601,0,15.599,6.997,15.599,15.599C271.599,357.772,264.601,364.769,256,364.769z"/>
	</g>
</g>
<g>
	<g>
		<rect x="204.009" y="53.922" width="67.594" height="15.599"/>
	</g>
</g>
<g>
	<g>
		<rect x="292.401" y="53.922" width="15.599" height="15.599"/>
	</g>
</g>
<g>
	<g>
		<rect x="230.007" y="204.705" width="15.599" height="15.599"/>
	</g>
</g>
<g>
	<g>
		<rect x="266.403" y="204.705" width="15.599" height="15.599"/>
	</g>
</g>
</svg>