<svg id="Layer_2" data-name="Layer 2" xmlns="http://www.w3.org/2000/svg" viewBox="0 0 128 128"><title>SOLAR PANEL</title><path d="M127.92,83.479c-.009-.032-.018-.062-.029-.094a1.735,1.735,0,0,0-.223-.43c-.005-.008-.007-.017-.013-.025L107.639,55.969a1.75,1.75,0,0,0-1.405-.707H21.766a1.75,1.75,0,0,0-1.405.707L.345,82.931c-.006.008-.007.017-.013.025a1.735,1.735,0,0,0-.223.43c-.011.031-.02.062-.029.094a1.73,1.73,0,0,0-.08.495v6.949a5.757,5.757,0,0,0,5.75,5.75h48v10.82H47.439a1.75,1.75,0,0,0-1.133.417l-10.008,8.5a1.75,1.75,0,0,0-.617,1.333v8.5a1.75,1.75,0,0,0,1.75,1.75H90.568a1.75,1.75,0,0,0,1.75-1.75v-8.5a1.75,1.75,0,0,0-.617-1.333l-10.008-8.5a1.75,1.75,0,0,0-1.133-.417H74.25V96.672h48a5.757,5.757,0,0,0,5.75-5.75V83.974A1.73,1.73,0,0,0,127.92,83.479ZM35.583,82.224,40.36,70.772H62.024V82.224Zm-30.354,0,8.5-11.451H36.567L31.79,82.224Zm56.8-23.461v8.51H41.82l3.55-8.51Zm20.154,0,3.55,8.51h-20.2v-8.51ZM65.524,70.772H87.189l4.777,11.451H65.524ZM95.758,82.224,90.981,70.772H114.27l8.5,11.451Zm15.913-14.951H89.521l-3.55-8.51h19.382Zm-89.025-8.51H41.577l-3.55,8.51h-21.7Zm66.172,59.793V124.5H39.182v-5.944l8.9-7.563H79.917ZM70.75,107.492H57.25V96.672h13.5Zm51.5-14.32H5.75a2.252,2.252,0,0,1-2.25-2.25v-5.2h121v5.2A2.252,2.252,0,0,1,122.25,93.172Z"/><path d="M64,36.54A11.447,11.447,0,1,0,52.553,25.093,11.459,11.459,0,0,0,64,36.54Zm0-19.394a7.947,7.947,0,1,1-7.947,7.947A7.956,7.956,0,0,1,64,17.146Z"/><path d="M63.774,9.625a1.75,1.75,0,0,0,1.75-1.75V1.75a1.75,1.75,0,0,0-3.5,0V7.875A1.75,1.75,0,0,0,63.774,9.625Z"/><path d="M62.024,42.312v6.125a1.75,1.75,0,0,0,3.5,0V42.312a1.75,1.75,0,0,0-3.5,0Z"/><path d="M75.949,14.668a1.744,1.744,0,0,0,1.237-.513l4.331-4.331A1.75,1.75,0,0,0,79.043,7.35l-4.331,4.331a1.75,1.75,0,0,0,1.237,2.987Z"/><path d="M50.362,36.031l-4.331,4.331a1.75,1.75,0,1,0,2.475,2.475l4.331-4.331a1.75,1.75,0,0,0-2.475-2.475Z"/><path d="M79.243,25.093a1.75,1.75,0,0,0,1.75,1.75h6.125a1.75,1.75,0,0,0,0-3.5H80.993A1.75,1.75,0,0,0,79.243,25.093Z"/><path d="M40.431,26.843h6.125a1.75,1.75,0,0,0,0-3.5H40.431a1.75,1.75,0,0,0,0,3.5Z"/><path d="M74.712,36.031a1.749,1.749,0,0,0,0,2.475l4.331,4.331a1.75,1.75,0,0,0,2.475-2.475l-4.331-4.331A1.749,1.749,0,0,0,74.712,36.031Z"/><path d="M50.362,14.155a1.75,1.75,0,0,0,2.475-2.475L48.505,7.35a1.75,1.75,0,0,0-2.475,2.475Z"/></svg>