<svg id="Layer_2" data-name="Layer 2" xmlns="http://www.w3.org/2000/svg" viewBox="0 0 128 128"><title>SPEAKER</title><path d="M49.268.852A1.751,1.751,0,0,0,47.766,0H7.734a1.751,1.751,0,0,0-1.5.852L.248,10.859a1.753,1.753,0,0,0-.248.9V94a1.75,1.75,0,0,0,1.75,1.75H16.125v15.625H11.758a1.755,1.755,0,0,0-.96.286L.79,118.224A1.752,1.752,0,0,0,0,119.688v6.563A1.75,1.75,0,0,0,1.75,128h52a1.75,1.75,0,0,0,1.75-1.75v-6.562a1.752,1.752,0,0,0-.79-1.464L44.7,111.661a1.755,1.755,0,0,0-.96-.286H39.375V95.75H53.75A1.75,1.75,0,0,0,55.5,94V11.758a1.753,1.753,0,0,0-.248-.9ZM52,120.633V124.5H3.5v-3.867l8.78-5.758H43.22Zm-16.125-9.258H19.625V95.75h2.5v6.375a5.625,5.625,0,0,0,11.25,0V95.75h2.5ZM25.625,95.75h4.25v6.375a2.125,2.125,0,0,1-4.25,0ZM52,92.25H3.5V12.241L8.727,3.5H46.773L52,12.241Z"/><path d="M27.75,38A14.25,14.25,0,1,0,13.5,23.75,14.266,14.266,0,0,0,27.75,38Zm0-25A10.75,10.75,0,1,1,17,23.75,10.762,10.762,0,0,1,27.75,13Z"/><path d="M27.75,49.456A18.063,18.063,0,1,0,45.812,67.519,18.083,18.083,0,0,0,27.75,49.456Zm0,32.625A14.563,14.563,0,1,1,42.312,67.519,14.578,14.578,0,0,1,27.75,82.081Z"/><path d="M24.009,29.241a1.743,1.743,0,0,0,1.237-.513l7.482-7.482a1.75,1.75,0,0,0-2.475-2.475l-7.482,7.482a1.75,1.75,0,0,0,1.237,2.987Z"/><path d="M30.254,62.54l-7.482,7.483A1.75,1.75,0,1,0,25.246,72.5l7.482-7.483a1.75,1.75,0,0,0-2.475-2.475Z"/><path d="M126.25,95.75A1.75,1.75,0,0,0,128,94V11.758a1.753,1.753,0,0,0-.248-.9L121.768.852a1.751,1.751,0,0,0-1.5-.852H80.234a1.751,1.751,0,0,0-1.5.852L72.748,10.859a1.753,1.753,0,0,0-.248.9V94a1.75,1.75,0,0,0,1.75,1.75H88.625v15.625H84.258a1.755,1.755,0,0,0-.96.286L73.29,118.224a1.752,1.752,0,0,0-.79,1.464v6.563A1.75,1.75,0,0,0,74.25,128h52a1.75,1.75,0,0,0,1.75-1.75v-6.562a1.752,1.752,0,0,0-.79-1.464L117.2,111.661a1.755,1.755,0,0,0-.96-.286h-4.367V95.75ZM76,12.241,81.227,3.5h38.047l5.227,8.741V92.25H76ZM98.125,95.75h4.25v6.375a2.125,2.125,0,0,1-4.25,0ZM124.5,120.633V124.5H76v-3.867l8.78-5.758H115.72Zm-16.125-9.258H92.125V95.75h2.5v6.375a5.625,5.625,0,0,0,11.25,0V95.75h2.5Z"/><path d="M100.25,38A14.25,14.25,0,1,0,86,23.75,14.266,14.266,0,0,0,100.25,38Zm0-25A10.75,10.75,0,1,1,89.5,23.75,10.762,10.762,0,0,1,100.25,13Z"/><path d="M118.312,67.519A18.062,18.062,0,1,0,100.25,85.581,18.083,18.083,0,0,0,118.312,67.519Zm-32.625,0A14.562,14.562,0,1,1,100.25,82.081,14.578,14.578,0,0,1,85.687,67.519Z"/><path d="M96.509,29.241a1.743,1.743,0,0,0,1.237-.513l7.482-7.482a1.75,1.75,0,0,0-2.475-2.475l-7.482,7.482a1.75,1.75,0,0,0,1.237,2.987Z"/><path d="M105.229,62.54a1.749,1.749,0,0,0-2.475,0l-7.482,7.483A1.75,1.75,0,1,0,97.746,72.5l7.482-7.483A1.749,1.749,0,0,0,105.229,62.54Z"/></svg>