<svg id="Layer_2" data-name="Layer 2" xmlns="http://www.w3.org/2000/svg" viewBox="0 0 128 128"><title>VR GLASSES</title><path d="M126.25,42.9h-8.681A11.482,11.482,0,0,0,106.529,34.5H21.471A11.482,11.482,0,0,0,10.431,42.9H1.75A1.75,1.75,0,0,0,0,44.648V74.008a1.75,1.75,0,0,0,1.75,1.75h8.557A21.208,21.208,0,0,0,31.192,93.5h16a10.2,10.2,0,0,0,8.7-4.922L57.971,85.1H70.029l2.085,3.471a10.19,10.19,0,0,0,8.7,4.922h16a21.208,21.208,0,0,0,20.884-17.737h8.557a1.75,1.75,0,0,0,1.75-1.75V44.648A1.75,1.75,0,0,0,126.25,42.9Zm-92.955,0V38h61.41V42.9ZM3.5,46.4H10V72.258H3.5Zm10,25.9V45.976A7.98,7.98,0,0,1,21.471,38h8.324V42.9H21.471a3.081,3.081,0,0,0-3.078,3.078V72.3a12.814,12.814,0,0,0,11.4,12.718v4.9A17.7,17.7,0,0,1,13.5,72.3Zm8.394-11.958H37.77a.769.769,0,0,1,.768.768v5.772a.769.769,0,0,1-.768.768H21.894ZM52.885,86.771A6.677,6.677,0,0,1,47.19,90h-13.9V85.1H53.888Zm4.1-5.17H31.192a9.309,9.309,0,0,1-9.3-9.3V71.154H37.77a4.273,4.273,0,0,0,4.268-4.268V61.114a4.273,4.273,0,0,0-4.268-4.268H21.894V46.4h84.213V56.846H90.229a4.272,4.272,0,0,0-4.268,4.268v5.772a4.272,4.272,0,0,0,4.268,4.268h15.877V72.3a9.31,9.31,0,0,1-9.3,9.3H56.98Zm49.126-13.947H90.229a.769.769,0,0,1-.768-.768V61.114a.769.769,0,0,1,.768-.768h15.877ZM75.114,86.771l-1-1.67H94.705V90H80.81A6.676,6.676,0,0,1,75.114,86.771Zm23.091,3.153v-4.9a12.814,12.814,0,0,0,11.4-12.718V45.976a3.081,3.081,0,0,0-3.077-3.078H98.205V38h8.324a7.979,7.979,0,0,1,7.971,7.971V72.3A17.7,17.7,0,0,1,98.205,89.924ZM124.5,72.258H118V46.4h6.5Z"/><path d="M70.193,58.091a1.749,1.749,0,0,0-2.475,0L57.806,68a1.75,1.75,0,1,0,2.475,2.475l9.913-9.913A1.749,1.749,0,0,0,70.193,58.091Z"/><path d="M78.144,62.529a1.75,1.75,0,0,0-2.475-2.475l-5.986,5.986a1.75,1.75,0,1,0,2.475,2.475Z"/></svg>