<svg id="Layer_1" data-name="Layer 1" xmlns="http://www.w3.org/2000/svg" viewBox="0 0 100 100"><defs><style>.cls-1{fill:#ff6a90;}.cls-2{fill:#6d5f63;}</style></defs><title>Ambulance</title><path class="cls-1" d="M29.747,50.4a.5.5,0,0,1-.5-.5V44.274H23.625a.5.5,0,0,1-.5-.5V38.268a.5.5,0,0,1,.5-.5h5.622V32.146a.5.5,0,0,1,.5-.5h5.506a.5.5,0,0,1,.5.5v5.622h5.622a.5.5,0,0,1,.5.5v5.506a.5.5,0,0,1-.5.5H35.753V49.9a.5.5,0,0,1-.5.5Z"/><circle class="cls-1" cx="30.125" cy="74.458" r="6"/><circle class="cls-1" cx="70.282" cy="74.458" r="6"/><path class="cls-2" d="M20.844,33.094a1.5,1.5,0,0,0,0-3h-2.75a1.5,1.5,0,0,0,0,3Z"/><path class="cls-2" d="M46.906,33.094a1.5,1.5,0,0,0,0-3h-2.75a1.5,1.5,0,0,0,0,3Z"/><path class="cls-2" d="M11.167,36.844a1.5,1.5,0,0,0,1.5-1.5v-.177a1.5,1.5,0,0,0-3,0v.177A1.5,1.5,0,0,0,11.167,36.844Z"/><path class="cls-2" d="M86.29,49.864c-1.738-.9-6.669-2.106-8.638-2.568L72.287,34.383a1.5,1.5,0,0,0-1.385-.924H69.5V31.917a4.542,4.542,0,1,0-9.083,0v1.542H55.333V25.083a1.5,1.5,0,0,0-1.5-1.5H11.167a1.5,1.5,0,0,0-1.5,1.5V30.5a1.5,1.5,0,0,0,3,0V26.583H52.333V56.458H12.667V40.3a1.5,1.5,0,0,0-3,0V73.529a1.5,1.5,0,0,0,1.5,1.5h9a1.5,1.5,0,0,0,1.493-1.361,8.5,8.5,0,0,1,16.92,0,1.5,1.5,0,0,0,1.493,1.361H60.329a1.5,1.5,0,0,0,1.493-1.361,8.5,8.5,0,0,1,16.92,0,1.5,1.5,0,0,0,1.493,1.361h6.6a3.5,3.5,0,0,0,3.5-3.5V56.167A7,7,0,0,0,86.29,49.864ZM63.417,31.917a1.542,1.542,0,1,1,3.083,0v1.542H63.417ZM87.333,71.529a.5.5,0,0,1-.5.5H81.522a11.5,11.5,0,0,0-22.48,0H41.365a11.5,11.5,0,0,0-22.48,0H12.667V59.458H80.875V62.4a5.507,5.507,0,0,0,5.5,5.5h.958Zm0-6.634h-.958a2.5,2.5,0,0,1-2.5-2.5V59.458h3.458Zm-32-8.437v-20H69.9l5.277,12.7a1.5,1.5,0,0,0,1.054.887,61.035,61.035,0,0,1,8.682,2.484,4.037,4.037,0,0,1,2.419,3.637v.291Z"/><path class="cls-2" d="M64.958,23a1.5,1.5,0,0,0,1.5-1.5V20.042a1.5,1.5,0,0,0-3,0V21.5A1.5,1.5,0,0,0,64.958,23Z"/><path class="cls-2" d="M58,24.924l1.263.729a1.5,1.5,0,0,0,1.5-2.6L59.5,22.326a1.5,1.5,0,1,0-1.5,2.6Z"/><path class="cls-2" d="M69.9,25.854a1.491,1.491,0,0,0,.749-.2l1.263-.729a1.5,1.5,0,1,0-1.5-2.6l-1.263.729a1.5,1.5,0,0,0,.751,2.8Z"/><path class="cls-1" d="M59.875,49.4a.5.5,0,0,1-.5-.5V41.021a.5.5,0,0,1,.5-.5h6.75a.5.5,0,0,1,.461.308L70.364,48.7a.5.5,0,0,1-.462.692Z"/></svg>