<svg id="Layer_1" data-name="Layer 1" xmlns="http://www.w3.org/2000/svg" viewBox="0 0 100 100"><defs><style>.cls-1{fill:#ff6a90;}.cls-2{fill:#fff;}.cls-3{fill:#6d5f63;}</style></defs><title>Call center</title><path class="cls-1" d="M82.1,13.033h0A19.683,19.683,0,0,0,54.537,16.91a19.806,19.806,0,0,0-.508,22.975l-1.744,8.721a1.5,1.5,0,0,0,1.961,1.711l9.1-3.149A19.674,19.674,0,0,0,82.1,13.033Z"/><path class="cls-2" d="M67.261,39.735a1.2,1.2,0,0,1-1.2-1.2v-5.8h-5.8a1.2,1.2,0,0,1-1.2-1.2v-6a1.2,1.2,0,0,1,1.2-1.2h5.8v-5.8a1.2,1.2,0,0,1,1.2-1.2h6a1.2,1.2,0,0,1,1.2,1.2v5.8h5.8a1.2,1.2,0,0,1,1.2,1.2v6a1.2,1.2,0,0,1-1.2,1.2h-5.8v5.8a1.2,1.2,0,0,1-1.2,1.2Z"/><path class="cls-3" d="M81.323,75.888A5.909,5.909,0,0,1,79.6,80.314l-5.411,5.411a14.611,14.611,0,0,1-10.357,4.308,14.846,14.846,0,0,1-6.976-1.752A111.758,111.758,0,0,1,30.733,68.537,112.323,112.323,0,0,1,16.354,51.088a1.5,1.5,0,1,1,2.5-1.653,109.3,109.3,0,0,0,13.995,16.98A108.733,108.733,0,0,0,58.266,85.631a11.665,11.665,0,0,0,13.8-2.028l5.411-5.411a2.895,2.895,0,0,0-.187-4.266L64.827,63.476a2.878,2.878,0,0,0-3.907.171l-5.309,5.309a3.667,3.667,0,0,1-4.541.542c-6.083-3.768-14.649-10.248-20.909-19.719a3.707,3.707,0,0,1,.49-4.648l5.876-5.876a2.879,2.879,0,0,0,.171-3.907L26.248,22.882a2.895,2.895,0,0,0-4.266-.187l-5.5,5.5A11.712,11.712,0,0,0,14.22,41.54a1.5,1.5,0,1,1-2.7,1.3,14.715,14.715,0,0,1,2.844-16.768l5.5-5.5a5.894,5.894,0,0,1,8.686.381L39,33.42a5.863,5.863,0,0,1-.349,7.956l-5.876,5.876a.707.707,0,0,0-.108.873c5.96,9.018,14.158,15.214,19.986,18.823a.686.686,0,0,0,.839-.113L58.8,61.526a5.86,5.86,0,0,1,7.956-.349L79.221,71.628A5.909,5.909,0,0,1,81.323,75.888ZM16.542,45.739l-.213-.361a1.5,1.5,0,1,0-2.589,1.516l.223.379a1.5,1.5,0,1,0,2.579-1.533Z"/></svg>