<svg id="Layer_1" data-name="Layer 1" xmlns="http://www.w3.org/2000/svg" viewBox="0 0 100 100"><defs><style>.cls-1{fill:#ff6a90;}.cls-2{fill:#6d5f63;}</style></defs><title>Crutches</title><rect class="cls-1" x="54.76" y="27.924" width="13.764" height="6"/><path class="cls-1" d="M58.985,50.549a15.571,15.571,0,0,1-9.694-3.414l-.487-.391.487-.391a14.551,14.551,0,0,0,3.725-4.447l.281-.519.467.362a8.439,8.439,0,0,0,5.222,1.8,8.55,8.55,0,0,0,8.539-8.54V20.072l.424-.066a58.705,58.705,0,0,0,5.945-1.247l.628-.166,0,16.416A15.557,15.557,0,0,1,58.985,50.549Z"/><path class="cls-2" d="M25.179,36.606a1.5,1.5,0,0,1-1.5-1.485,1.543,1.543,0,0,1,1.484-1.563,1.42,1.42,0,0,1,1.515,1.437v.1a1.5,1.5,0,0,1-1.485,1.515Zm0-5.771a1.5,1.5,0,0,0,1.5-1.5V19.546a1.5,1.5,0,0,0-2.982-.308,1.7,1.7,0,0,0-.018.23v9.866A1.5,1.5,0,0,0,25.178,30.835ZM76.926,19.981A60.546,60.546,0,0,1,58.961,22.7q-1.1,0-2.2-.04V35.008a16.557,16.557,0,0,1-12.039,15.9V75.15a3.5,3.5,0,0,1,2,3.149v10.25a3.5,3.5,0,0,1-3.5,3.5h-6a3.5,3.5,0,0,1-3.5-3.5V78.3a3.5,3.5,0,0,1,2-3.149V50.913a16.537,16.537,0,0,1-11.17-10.608,1.5,1.5,0,1,1,2.842-.963,13.54,13.54,0,0,0,26.367-4.334V22.464q-1.5-.13-3-.334V35.008a10.54,10.54,0,1,1-21.079,0l-.015-14.424a1.5,1.5,0,1,1,3,0l.015,6.339H47.757V20.5c.3-.769,1.822-.748,8.867-.858a57.64,57.64,0,0,0,19.429-2.53c1.4-.417,3.636-1.467,3.048-3.884a3.052,3.052,0,0,0-5.407-1.036A10.112,10.112,0,0,1,67.068,16.1c-1.452.218-3.7.473-5.249.573a1.5,1.5,0,0,1-.193-2.994c1.465-.095,3.629-.34,5-.545a7.1,7.1,0,0,0,4.657-2.722,6.052,6.052,0,0,1,10.738,2.107C82.848,15.943,80.9,18.8,76.926,19.981ZM47.757,34.924H32.678v.085a7.54,7.54,0,1,0,15.079,0Zm0-5H32.678v2H47.757ZM38.718,74.8h3V51.473c-.495.045-.994.076-1.5.076s-1-.029-1.5-.074Zm5,3.5a.5.5,0,0,0-.5-.5h-6a.5.5,0,0,0-.5.5v10.25a.5.5,0,0,0,.5.5h6a.5.5,0,0,0,.5-.5Zm21.765,0v10.25a3.5,3.5,0,0,1-3.5,3.5h-6a3.5,3.5,0,0,1-3.5-3.5V78.3a3.5,3.5,0,0,1,2-3.149V49.859a15.477,15.477,0,0,0,3,.61V74.8h3V50.473a15.421,15.421,0,0,0,3-.594V75.15A3.5,3.5,0,0,1,65.483,78.3Zm-3,0a.5.5,0,0,0-.5-.5h-6a.5.5,0,0,0-.5.5v10.25a.5.5,0,0,0,.5.5h6a.5.5,0,0,0,.5-.5Z"/><path class="cls-1" d="M40.237,21.725a58.115,58.115,0,0,1-9.772-.847,68.3,68.3,0,0,1-7.248-1.662c-.634-.182-1.294-.233-1.916-.457a5.048,5.048,0,0,1,1.7-9.8,5.073,5.073,0,0,1,4.078,2.05,8.065,8.065,0,0,0,5.3,3.1,52.448,52.448,0,0,0,7.851.594,52.667,52.667,0,0,0,7.785-.582,8.111,8.111,0,0,0,5.314-3.117,5.153,5.153,0,0,1,5.313-1.9,5.006,5.006,0,0,1,3.648,3.647c.775,3.2-.712,5.308-4.422,6.271A59.083,59.083,0,0,1,40.237,21.725Z"/></svg>