<svg id="Layer_1" data-name="Layer 1" xmlns="http://www.w3.org/2000/svg" viewBox="0 0 100 100"><defs><style>.cls-1{fill:#685a63;}.cls-2{fill:#ff6a90;}</style></defs><title>Dna</title><path class="cls-1" d="M66.772,53.5a1.5,1.5,0,0,1-1.5,1.5H55V65.273a22.848,22.848,0,0,1-6.736,16.263l-8.691,8.691A5,5,0,1,1,32.5,83.156l.4-.4-7.828-7.827L27.2,72.8l7.828,7.828,6.169-6.167c.1-.1.178-.2.27-.3l-3.034-3.034,2.121-2.121,2.721,2.721A12.922,12.922,0,0,0,45,65.272V55H34.728a12.912,12.912,0,0,0-6.461,1.728L35.6,64.062l-2.121,2.121-7.645-7.645c-.1.092-.2.175-.3.27l-6.168,6.168,2.879,2.879-2.121,2.121L17.246,67.1l-.4.4a5,5,0,0,1-7.07-7.071l1.141-1.14a1.5,1.5,0,0,1,2.121,2.121L11.894,62.55a2,2,0,0,0,0,2.827,2.048,2.048,0,0,0,2.827,0l8.693-8.691A15.893,15.893,0,0,1,34.728,52H46.5A1.5,1.5,0,0,1,48,53.5V65.272a15.9,15.9,0,0,1-4.687,11.313l-8.692,8.691a2,2,0,0,0,2.829,2.829l8.691-8.691A19.868,19.868,0,0,0,52,65.273V53.5A1.5,1.5,0,0,1,53.5,52H65.272A1.5,1.5,0,0,1,66.772,53.5Zm2.876-1.977-.224.048a1.5,1.5,0,0,0,.609,2.938l.257-.056a1.5,1.5,0,0,0-.643-2.93ZM90.228,32.5a5.005,5.005,0,0,0-7.07,0l-.4.4-7.829-7.829L72.8,27.2l7.829,7.829-6.168,6.168c-.1.1-.2.178-.3.271l-3.035-3.034L69.011,40.55l2.722,2.722A12.916,12.916,0,0,1,65.272,45H55V34.728a12.913,12.913,0,0,1,1.728-6.461L64.062,35.6l2.121-2.121-7.646-7.646c.092-.1.175-.2.271-.3l6.168-6.168,2.879,2.879,2.121-2.121L67.1,17.246l.4-.4a5,5,0,0,0-7.071-7.071l-8.692,8.692A22.851,22.851,0,0,0,45,34.728V45H34.727a22.855,22.855,0,0,0-16.264,6.736l-.9.9a1.5,1.5,0,0,0,2.123,2.121l.9-.9A19.872,19.872,0,0,1,34.727,48H46.5A1.5,1.5,0,0,0,48,46.5V34.728a19.871,19.871,0,0,1,5.857-14.143l8.692-8.692a2.054,2.054,0,0,1,2.829,0,2,2,0,0,1,0,2.829l-8.692,8.692A15.892,15.892,0,0,0,52,34.728V46.5A1.5,1.5,0,0,0,53.5,48H65.272a15.9,15.9,0,0,0,11.313-4.687l8.692-8.692a2.052,2.052,0,0,1,2.828,0,2,2,0,0,1,0,2.828l-8.691,8.692a19.963,19.963,0,0,1-5.785,4.041,1.5,1.5,0,0,0,1.254,2.725,22.947,22.947,0,0,0,6.652-4.644l8.691-8.692a5,5,0,0,0,0-7.071ZM15.307,58.515a1.5,1.5,0,0,0,1.058-.437l.159-.158a1.5,1.5,0,0,0-2.115-2.127l-.159.158a1.5,1.5,0,0,0,1.058,2.563Z"/><path class="cls-2" d="M67.6,41.012a4,4,0,1,1,2.829-1.169A3.973,3.973,0,0,1,67.6,41.012Z"/><path class="cls-2" d="M71.39,27.66a4,4,0,1,1,2.828-1.171A3.974,3.974,0,0,1,71.39,27.66Z"/><path class="cls-2" d="M37.015,71.6a4,4,0,1,1,2.829-1.172A3.973,3.973,0,0,1,37.015,71.6Z"/><path class="cls-2" d="M23.66,75.388a3.993,3.993,0,1,1,2.828-1.169A3.971,3.971,0,0,1,23.66,75.388Z"/></svg>