<svg id="Layer_1" data-name="Layer 1" xmlns="http://www.w3.org/2000/svg" viewBox="0 0 100 100"><defs><style>.cls-1{fill:#ff6a90;}.cls-2{fill:#6d5f63;}</style></defs><title>Dropper</title><path class="cls-1" d="M20.783,85.42a5.173,5.173,0,0,1-5.167-5.167c0-1.749,2.127-5.45,4.351-8.554a1,1,0,0,1,1.632,0c2.224,3.1,4.351,6.8,4.351,8.554A5.173,5.173,0,0,1,20.783,85.42Z"/><path class="cls-2" d="M82.825,18a8.25,8.25,0,0,0-11.518-1.857l-3.851,2.781a1.5,1.5,0,0,0-.338,2.094l7.9,10.944a1.5,1.5,0,0,0,2.094.337l3.852-2.781A8.261,8.261,0,0,0,82.825,18Zm-3.613,9.087-2.635,1.9L70.43,20.479l2.634-1.9a5.25,5.25,0,0,1,6.148,8.513Z"/><path class="cls-1" d="M20.218,64.234a1.026,1.026,0,0,1-.712-1.735l8.107-8.34a8.44,8.44,0,0,0,2.036-3.481A8.365,8.365,0,0,1,32.58,46.4l8.141-6.23L60.3,43,40.073,56.773a8.319,8.319,0,0,1-4.665,1.443l-.6-.011a8.315,8.315,0,0,0-3.659.844L20.68,64.124A1.055,1.055,0,0,1,20.218,64.234Z"/><path class="cls-2" d="M68.6,37.3,60.033,25.443a1.5,1.5,0,0,0-1-.605,1.483,1.483,0,0,0-1.13.292L31.664,45.212a9.859,9.859,0,0,0-3.453,5.042,6.938,6.938,0,0,1-1.673,2.86L18.43,61.454a2.526,2.526,0,0,0,1.788,4.28,2.561,2.561,0,0,0,1.116-.261L31.8,60.4a6.859,6.859,0,0,1,3.241-.689,9.768,9.768,0,0,0,5.872-1.693,1.5,1.5,0,1,0-1.68-2.486,6.865,6.865,0,0,1-4.095,1.182,9.948,9.948,0,0,0-4.647.988l-8,3.877L28.688,55.2a9.939,9.939,0,0,0,2.4-4.1,6.878,6.878,0,0,1,2.4-3.513L58.5,28.449,65.262,37.8,47.7,49.761a1.5,1.5,0,1,0,1.689,2.479L68.225,39.417A1.5,1.5,0,0,0,68.6,37.3Z"/><path class="cls-2" d="M43.852,52.384,43.1,52.9a1.5,1.5,0,0,0,1.689,2.479l.751-.512a1.5,1.5,0,0,0-1.689-2.479Z"/><path class="cls-1" d="M77.894,30.816,69.11,18.653a5.523,5.523,0,0,0-6.7-1.8L54.8,20.239a1.5,1.5,0,0,0-.605,2.249l15.37,21.28a1.5,1.5,0,0,0,1.131.619l.085,0a1.5,1.5,0,0,0,1.109-.49l5.609-6.16A5.524,5.524,0,0,0,77.894,30.816Z"/></svg>