<svg id="Layer_1" data-name="Layer 1" xmlns="http://www.w3.org/2000/svg" viewBox="0 0 100 100"><defs><style>.cls-1{fill:#ff6a90;}.cls-2{fill:#fff;}.cls-3{fill:#6d5f63;}</style></defs><title>Ekg</title><rect class="cls-1" x="20.7" y="23.836" width="58.6" height="37.331" rx="3.5" ry="3.5"/><path class="cls-2" d="M73.323,45.125H70.5L67.709,34.8a1.5,1.5,0,0,0-1.426-1.108h-.022a1.5,1.5,0,0,0-1.436,1.065l-3.053,10.08H58.788L57.21,38.926a1.5,1.5,0,0,0-1.425-1.113h-.024a1.5,1.5,0,0,0-1.436,1.066l-2.711,8.979-4.032-16.8A1.525,1.525,0,0,0,46.1,29.9,1.5,1.5,0,0,0,44.655,31.1L41.228,47.424l-.477-1.139a1.5,1.5,0,0,0-1.384-.921H37.149l-2.641-10.18a1.5,1.5,0,0,0-1.437-1.123h-.015a1.5,1.5,0,0,0-1.444,1.095L28.746,45.364H26.677a1.5,1.5,0,1,0,0,3h3.206a1.5,1.5,0,0,0,1.444-1.095L33,41.313l1.538,5.928a1.5,1.5,0,0,0,1.452,1.123h2.38l1.952,4.665a1.5,1.5,0,0,0,2.852-.271l3.048-14.52,3.77,15.708A1.5,1.5,0,0,0,51.406,55.1h.043a1.5,1.5,0,0,0,1.436-1.066L55.673,44.8l.514,1.924a1.5,1.5,0,0,0,1.449,1.113h5.25a1.5,1.5,0,0,0,1.436-1.065l1.857-6.134L67.9,47.017a1.5,1.5,0,0,0,1.448,1.108h3.972a1.5,1.5,0,0,0,0-3Z"/><path class="cls-1" d="M26.5,77.781a5.8,5.8,0,0,1,0-11.6H53.657a5.8,5.8,0,0,1,0,11.6Z"/><path class="cls-2" d="M32.293,70.479H29.866a1.5,1.5,0,0,0,0,3h2.427a1.5,1.5,0,0,0,0-3Z"/><path class="cls-2" d="M41.293,70.479H38.866a1.5,1.5,0,0,0,0,3h2.427a1.5,1.5,0,0,0,0-3Z"/><path class="cls-2" d="M50.293,70.479H47.866a1.5,1.5,0,0,0,0,3h2.427a1.5,1.5,0,0,0,0-3Z"/><path class="cls-1" d="M74.054,77.781a5.251,5.251,0,0,1-5.245-5.246V71.423a5.246,5.246,0,1,1,10.491,0v1.112A5.252,5.252,0,0,1,74.054,77.781Z"/><path class="cls-3" d="M12.47,29.576v-.107a1.5,1.5,0,0,1,3,0v.107a1.5,1.5,0,0,1-3,0ZM87.53,21.541V79.292a5.507,5.507,0,0,1-5.5,5.5H77.053l1.789,3.579A1.5,1.5,0,0,1,77.5,90.542H61.75a1.5,1.5,0,0,1-1.342-2.171l1.79-3.579H37.8l1.79,3.579a1.5,1.5,0,0,1-1.342,2.171H22.5a1.5,1.5,0,0,1-1.342-2.171l1.789-3.579H17.97a5.507,5.507,0,0,1-5.5-5.5V34.447a1.5,1.5,0,0,1,3,0V79.292a2.5,2.5,0,0,0,2.5,2.5H82.03a2.5,2.5,0,0,0,2.5-2.5V21.541a2.5,2.5,0,0,0-2.5-2.5H17.97a2.5,2.5,0,0,0-2.5,2.5v3.115a1.5,1.5,0,0,1-3,0V21.541a5.507,5.507,0,0,1,5.5-5.5h35.9V13.958a4.5,4.5,0,0,1,4.5-4.5H75.019a4.5,4.5,0,0,1,4.5,4.5v2.083H82.03A5.507,5.507,0,0,1,87.53,21.541Zm-30.66-5.5H76.519V13.958a1.5,1.5,0,0,0-1.5-1.5H58.37a1.5,1.5,0,0,0-1.5,1.5ZM34.448,84.792H26.3l-1.375,2.75h10.9Zm39.25,0H65.552l-1.375,2.75h10.9Z"/></svg>