<svg id="Layer_1" data-name="Layer 1" xmlns="http://www.w3.org/2000/svg" viewBox="0 0 100 100"><defs><style>.cls-1{fill:#ff6a90;}.cls-2{fill:#6d5f63;}</style></defs><title>Herbal</title><path class="cls-1" d="M42.071,36.3a7.868,7.868,0,0,1-1.662-.177.5.5,0,0,1-.337-.258,9.28,9.28,0,0,1,1.216-9.8,9.6,9.6,0,0,1,7.479-3.906,7.879,7.879,0,0,1,1.664.177.5.5,0,0,1,.337.258,9.278,9.278,0,0,1-1.216,9.8A9.605,9.605,0,0,1,42.071,36.3Z"/><path class="cls-1" d="M51.742,40.777a.5.5,0,0,1-.348-.859L66.035,25.761l.04-.358c.212-1.907.688-4.638,2.37-6.319A9.938,9.938,0,0,1,74.9,16.122c.175-.01.347-.015.519-.015a7.9,7.9,0,0,1,8.009,8.542A9.938,9.938,0,0,1,80.466,31.1c-1.294,1.294-3.286,2.082-6.089,2.408L74,33.555l-6.424,7.059a.5.5,0,0,1-.37.163Z"/><path class="cls-1" d="M47.184,68.69a1,1,0,0,1-1-1v-6h-6a1,1,0,0,1-1-1v-5a1,1,0,0,1,1-1h6v-6a1,1,0,0,1,1-1h5a1,1,0,0,1,1,1v6h6a1,1,0,0,1,1,1v5a1,1,0,0,1-1,1h-6v6a1,1,0,0,1-1,1Z"/><path class="cls-2" d="M78.5,64l-.094.112a1.5,1.5,0,0,1-2.3-1.922l.094-.112A1.5,1.5,0,0,1,78.5,64ZM22.78,31.831l-.033-.091a1.457,1.457,0,0,0-1.907-.849,1.542,1.542,0,0,0-.878,1.969,1.5,1.5,0,0,0,2.818-1.029Zm64.23,8.446A37.2,37.2,0,0,1,81.1,60.434a1.5,1.5,0,0,1-2.523-1.623,34.179,34.179,0,0,0,5.4-17.034H15.389A34.328,34.328,0,0,0,73.114,65.363a1.5,1.5,0,0,1,2.049,2.191,37.347,37.347,0,0,1-8.257,5.841l-.892,3.67c-1.144,4.1-4.152,6.828-7.5,6.828H41.178c-3.431,0-6.716-2.852-7.812-6.779l-.91-3.74a37.355,37.355,0,0,1-20.1-33.1,1.5,1.5,0,0,1,1.5-1.5h10.3A13.784,13.784,0,0,1,22.367,37a1.5,1.5,0,1,1,2.307-1.918A9.741,9.741,0,0,0,32.4,38.77a9.92,9.92,0,0,0-.812-9.784,9.971,9.971,0,0,0-8.553-4.818A8.787,8.787,0,0,0,22.109,28a1.519,1.519,0,0,1-1.528,1.472,1.5,1.5,0,0,1-1.472-1.528,11.61,11.61,0,0,1,1.745-6,1.5,1.5,0,0,1,1.067-.685,12.765,12.765,0,0,1,12.192,6.108,13.162,13.162,0,0,1,1.538,11.41H85.511A1.5,1.5,0,0,1,87.011,40.277ZM49.684,77.6a37.116,37.116,0,0,1-13.752-2.636l.338,1.389c.716,2.565,2.832,4.537,4.908,4.537H58.516c1.983,0,3.83-1.843,4.595-4.586l.32-1.318A37.3,37.3,0,0,1,49.684,77.6Z"/></svg>