<svg id="Layer_1" data-name="Layer 1" xmlns="http://www.w3.org/2000/svg" viewBox="0 0 100 100"><defs><style>.cls-1{fill:#6d5f63;}.cls-2{fill:#ff6a90;}.cls-3{fill:#fff;}</style></defs><title>Infirmary</title><path class="cls-1" d="M84.657,44.719v6.714a1.5,1.5,0,0,1-3,0V46.219H43.8v5.214a1.5,1.5,0,0,1-3,0V44.719a1.5,1.5,0,0,1,1.5-1.5h7.256V20.18H46.477A4.657,4.657,0,0,1,37.4,18.695a1.5,1.5,0,0,1,3,0,1.67,1.67,0,0,0,3.34,0A1.589,1.589,0,0,1,45.51,17.18H56.6a1.6,1.6,0,0,1,1.768,1.514,1.67,1.67,0,0,0,3.34,0,1.5,1.5,0,1,1,3,0,4.657,4.657,0,0,1-9.075,1.486H52.557V43.219h30.6A1.5,1.5,0,0,1,84.657,44.719ZM28.246,26.781l-1.09-1.814a1.5,1.5,0,0,0-2.059-.513l-5.463,3.282a1.5,1.5,0,1,0,1.545,2.571L25.357,27.8l.317.528a1.5,1.5,0,0,0,2.572-1.545Zm4.531,7.541a1.5,1.5,0,0,0-2.572,1.545l2.873,4.782L28.9,43.159a1.5,1.5,0,1,0,1.545,2.571l5.463-3.283a1.5,1.5,0,0,0,.514-2.058ZM29.29,32.928a1.5,1.5,0,0,0,1.279-2.282l-.046-.075a1.463,1.463,0,0,0-2.039-.461,1.538,1.538,0,0,0-.476,2.1A1.5,1.5,0,0,0,29.29,32.928ZM81.049,59.937,62.519,68.2,77.879,75a1.664,1.664,0,0,1,1.193,1.5,1.5,1.5,0,0,1-1.5,1.5H40.062a1.5,1.5,0,0,1-1.5-1.5A1.7,1.7,0,0,1,39.756,75L55.116,68.2l-18.64-8.261a1.5,1.5,0,1,1,1.215-2.742l21.127,9.363,21.017-9.363a1.5,1.5,0,0,1,1.215,2.742Zm-22.232,9.9L47.15,75.008H70.485Z"/><circle class="cls-2" cx="77.572" cy="76.508" r="6.311"/><circle class="cls-2" cx="40.062" cy="76.508" r="6.311"/><circle class="cls-3" cx="40.062" cy="76.509" r="2.43"/><circle class="cls-3" cx="77.573" cy="76.509" r="2.43"/><path class="cls-2" d="M29.112,60.387a.5.5,0,0,1-.429-.242L10.678,30.229a.5.5,0,0,1,.171-.686l7.243-4.359a.487.487,0,0,1,.256-.072.5.5,0,0,1,.431.242l15.4,25.58h54.72a.5.5,0,0,1,.5.5v8.454a.5.5,0,0,1-.5.5Z"/></svg>