<svg id="Layer_1" data-name="Layer 1" xmlns="http://www.w3.org/2000/svg" viewBox="0 0 100 100"><defs><style>.cls-1{fill:#6d5f63;}.cls-2{fill:#ff6a90;}</style></defs><title>Male and female</title><path class="cls-1" d="M37.422,20.026a1.5,1.5,0,0,1-1.7,1.271A17.794,17.794,0,0,0,23.1,24.239a1.5,1.5,0,0,1-1.676-2.489,21.092,21.092,0,0,1,14.729-3.422A1.5,1.5,0,0,1,37.422,20.026ZM54.984,40.018c0-9.373-5.479-17.191-14.656-20.914a1.5,1.5,0,0,0-1.127,2.78c8,3.247,12.783,10.026,12.783,18.134A18.725,18.725,0,0,1,36.341,58.666a1.5,1.5,0,0,0-1.258,1.48V71.82a1.5,1.5,0,0,0,1.5,1.5H45.8v3.432H36.583a1.5,1.5,0,0,0-1.5,1.5V86.8H31.651v-8.55a1.5,1.5,0,0,0-1.5-1.5H20.933V73.32h9.219a1.5,1.5,0,0,0,1.5-1.5V60.146a1.5,1.5,0,0,0-1.258-1.48A18.725,18.725,0,0,1,14.75,40.018,19.151,19.151,0,0,1,17.2,30.634a1.5,1.5,0,1,0-2.613-1.473A22.155,22.155,0,0,0,11.75,40.018a21.728,21.728,0,0,0,16.9,21.366V70.32H19.433a1.5,1.5,0,0,0-1.5,1.5v6.432a1.5,1.5,0,0,0,1.5,1.5h9.219V88.3a1.5,1.5,0,0,0,1.5,1.5h6.432a1.5,1.5,0,0,0,1.5-1.5v-8.55H47.3a1.5,1.5,0,0,0,1.5-1.5V71.82a1.5,1.5,0,0,0-1.5-1.5H38.083V61.384A21.728,21.728,0,0,0,54.984,40.018Zm-37.43-12.7a1.5,1.5,0,0,1-.116-2.118l.116-.127a1.533,1.533,0,0,1,2.144-.119,1.467,1.467,0,0,1,.12,2.089l-.056.06-.09.1a1.5,1.5,0,0,1-2.118.115Zm.931,12.7A15.089,15.089,0,0,1,29.435,25.473a1.5,1.5,0,1,1,.8,2.891A12.052,12.052,0,1,0,45.249,40.018,12.082,12.082,0,0,0,36.5,28.366a1.5,1.5,0,1,1,.8-2.89A15.051,15.051,0,1,1,18.485,40.018Z"/><path class="cls-2" d="M83.717,38.017a3.214,3.214,0,0,0-3.17-2.8,3.288,3.288,0,0,0-.44.03,3.21,3.21,0,0,0-2.755,3.607l1.672,12.5L67.093,41.325l.488-1.042A20.106,20.106,0,0,0,49.4,11.7a20.463,20.463,0,0,0-2.716.182A20.116,20.116,0,0,0,37.142,47.8a20.207,20.207,0,0,0,3.184,1.985,12.1,12.1,0,0,0,4.149-5.518,13.373,13.373,0,0,1,3.1-25.711,13.692,13.692,0,0,1,1.807-.121,13.228,13.228,0,0,1,8.092,2.745A13.4,13.4,0,0,1,59.986,39.94,13.229,13.229,0,0,1,54.6,44.115a21.926,21.926,0,0,1-2.991,7.672,20.161,20.161,0,0,0,10.619-4.54l.965-.808L75.121,56.47l-12.5,1.673a3.211,3.211,0,0,0,.414,6.394,3.247,3.247,0,0,0,.447-.031l23.27-3.2Z"/></svg>