<svg id="Layer_1" data-name="Layer 1" xmlns="http://www.w3.org/2000/svg" viewBox="0 0 100 100"><defs><style>.cls-1{fill:#ff6a90;}.cls-2{fill:#fff;}.cls-3{fill:#6d5f63;}</style></defs><title>Medical book</title><path class="cls-1" d="M50.094,45.833A10.667,10.667,0,1,1,60.76,35.167,10.679,10.679,0,0,1,50.094,45.833Z"/><rect class="cls-1" x="33.522" y="55.44" width="33.143" height="12.5" rx="0.5" ry="0.5"/><path class="cls-2" d="M55.558,33.667H51.594V29.7a1.5,1.5,0,0,0-3,0v3.964H44.629a1.5,1.5,0,0,0,0,3h3.965v3.964a1.5,1.5,0,0,0,3,0V36.667h3.964a1.5,1.5,0,0,0,0-3Z"/><path class="cls-3" d="M76.151,63.559a1.536,1.536,0,0,1-1.5,1.541,1.465,1.465,0,0,1-1.5-1.458v-.083a1.5,1.5,0,0,1,3,0Zm0-47.569V58.412a1.5,1.5,0,0,1-3,0V17.49H27.036v6.385a1.5,1.5,0,0,1-3,0V17.49h-.115a3,3,0,0,0-3,3V74.412a5.9,5.9,0,0,1,2.943-.787h.172v-39.7a1.5,1.5,0,0,1,3,0v39.7H73.151v-4.5a1.5,1.5,0,0,1,3,0v6a1.5,1.5,0,0,1-1.5,1.5H72.2V84.01a1.5,1.5,0,0,1-1.5,1.5H23.864a5.949,5.949,0,0,1-5.943-5.942l0-.03,0-.028V20.49a6.007,6.007,0,0,1,6-6h50.73A1.5,1.5,0,0,1,76.151,15.99ZM20.924,79.539h0c0,.01,0,.019,0,.029a2.946,2.946,0,0,0,2.943,2.942H69.2V76.625H23.864A2.945,2.945,0,0,0,20.924,79.539Zm4.612-52a1.541,1.541,0,0,0-1.5,1.547,1.5,1.5,0,0,0,3,0v-.094A1.46,1.46,0,0,0,25.536,27.536Z"/></svg>