<svg id="Layer_1" data-name="Layer 1" xmlns="http://www.w3.org/2000/svg" viewBox="0 0 100 100"><defs><style>.cls-1{fill:#685a63;}.cls-2{fill:#ff6a90;}.cls-3{fill:#fff;}</style></defs><title>Medical file</title><path class="cls-1" d="M32.511,25.389a1.5,1.5,0,0,0,1.5-1.5V16.01H71.886v2.323a1.5,1.5,0,0,0,3,0V14.51a1.5,1.5,0,0,0-1.5-1.5H32.511a1.5,1.5,0,0,0-1.5,1.5v9.378A1.5,1.5,0,0,0,32.511,25.389Z"/><path class="cls-1" d="M73.386,21.741a1.5,1.5,0,0,0-1.5,1.5v.15a1.5,1.5,0,0,0,3,0v-.15A1.5,1.5,0,0,0,73.386,21.741Z"/><path class="cls-2" d="M68.566,28.712l-5.618-5.862a1.5,1.5,0,0,0-1.083-.462H26.511a1.5,1.5,0,0,0-1.5,1.5V37.543a1.5,1.5,0,0,0,1.5,1.5H33.4l7.83,6.644a1.5,1.5,0,0,0,.971.356H60.364V76.9a10.133,10.133,0,0,0,6.6,9.462,1.5,1.5,0,0,0,2.021-1.407V29.75A1.5,1.5,0,0,0,68.566,28.712Z"/><path class="cls-2" d="M38.681,74.392a.5.5,0,0,1-.5-.5V68.27H32.559a.5.5,0,0,1-.5-.5V62.264a.5.5,0,0,1,.5-.5h5.622V56.142a.5.5,0,0,1,.5-.5h5.506a.5.5,0,0,1,.5.5v5.622h5.622a.5.5,0,0,1,.5.5V67.77a.5.5,0,0,1-.5.5H44.687v5.622a.5.5,0,0,1-.5.5Z"/><path class="cls-1" d="M79.052,36.439H74.886V28.25a1.5,1.5,0,0,0-3,0v55.6A7.1,7.1,0,0,1,63.364,76.9V44.543a1.5,1.5,0,0,0-1.5-1.5H42.749L34.919,36.4a1.5,1.5,0,0,0-.971-.356h-13a1.5,1.5,0,0,0-1.5,1.5v7.848a1.5,1.5,0,0,0,3,0V39.043H33.4l7.83,6.644a1.5,1.5,0,0,0,.971.356H60.364V76.9a10.059,10.059,0,0,0,2.92,7.094H24.948a2.5,2.5,0,0,1-2.5-2.5V55.438a1.5,1.5,0,0,0-3,0V81.489a5.507,5.507,0,0,0,5.5,5.5h45.51A10.106,10.106,0,0,0,80.552,76.9V37.939A1.5,1.5,0,0,0,79.052,36.439ZM77.552,76.9a7.08,7.08,0,0,1-2.666,5.533V39.439h2.666Z"/><path class="cls-1" d="M20.948,52.146a1.5,1.5,0,0,0,1.5-1.5v-.313a1.5,1.5,0,0,0-3,0v.313A1.5,1.5,0,0,0,20.948,52.146Z"/><path class="cls-3" d="M60.333,30.792a1.5,1.5,0,0,0-1.5-1.5H45.167a1.5,1.5,0,1,0,0,3H58.833A1.5,1.5,0,0,0,60.333,30.792Z"/><path class="cls-3" d="M39.333,29.292H33.827a1.5,1.5,0,1,0,0,3h5.506a1.5,1.5,0,1,0,0-3Z"/><path class="cls-3" d="M58.833,36.043H47.417a1.5,1.5,0,0,0,0,3H58.833a1.5,1.5,0,0,0,0-3Z"/></svg>