<svg id="Layer_1" data-name="Layer 1" xmlns="http://www.w3.org/2000/svg" viewBox="0 0 100 100"><defs><style>.cls-1{fill:none;stroke:#000;stroke-linecap:round;stroke-linejoin:round;stroke-width:3px;}.cls-2{fill:#6d5f63;}.cls-3{fill:#ff6a90;}</style></defs><title>Medical report</title><line class="cls-1" x1="41.158" y1="40.158" x2="66.071" y2="40.158"/><line class="cls-1" x1="33.929" y1="40.158" x2="36.396" y2="40.158"/><line class="cls-1" x1="58.833" y1="56.229" x2="66.071" y2="56.229"/><line class="cls-1" x1="33.875" y1="56.229" x2="52.973" y2="56.229"/><line class="cls-1" x1="47.417" y1="72.301" x2="66.071" y2="72.301"/><line class="cls-1" x1="33.929" y1="72.301" x2="41.667" y2="72.301"/><path class="cls-2" d="M20.5,38.781V28.729a5.507,5.507,0,0,1,5.5-5.5H36.4a1.5,1.5,0,0,1,0,3H26a2.5,2.5,0,0,0-2.5,2.5V38.781a1.5,1.5,0,0,1-3,0Zm57.5.844a1.5,1.5,0,0,0-1.5,1.5v42.6a2.5,2.5,0,0,1-2.5,2.5H26a2.5,2.5,0,0,1-2.5-2.5V58.781a1.5,1.5,0,0,0-3,0V83.729a5.507,5.507,0,0,0,5.5,5.5H74a5.507,5.507,0,0,0,5.5-5.5v-42.6A1.5,1.5,0,0,0,78,39.625Zm0-5.458a1.5,1.5,0,0,0-1.5,1.5v.416a1.5,1.5,0,0,0,3,0v-.416A1.5,1.5,0,0,0,78,34.167ZM74,23.229H63.6a1.5,1.5,0,0,0,0,3H74a2.5,2.5,0,0,1,2.5,2.5v2.146a1.5,1.5,0,0,0,3,0V28.729A5.507,5.507,0,0,0,74,23.229ZM41.158,41.658H66.071a1.5,1.5,0,0,0,0-3H41.158a1.5,1.5,0,0,0,0,3Zm-7.229,0H36.4a1.5,1.5,0,0,0,0-3H33.929a1.5,1.5,0,0,0,0,3ZM66.071,54.729H58.833a1.5,1.5,0,0,0,0,3h7.238a1.5,1.5,0,0,0,0-3Zm-11.6,1.5a1.5,1.5,0,0,0-1.5-1.5h-19.1a1.5,1.5,0,0,0,0,3h19.1A1.5,1.5,0,0,0,54.474,56.229ZM47.417,73.8H66.071a1.5,1.5,0,0,0,0-3H47.417a1.5,1.5,0,0,0,0,3Zm-13.488-3a1.5,1.5,0,0,0,0,3h7.738a1.5,1.5,0,0,0,0-3Z"/><path class="cls-3" d="M60.838,22.892l-1,0V21.612a9.841,9.841,0,1,0-19.682,0v1.275l-1,0a4.066,4.066,0,0,0-4.045,4.058v2.113a.5.5,0,0,0,.5.5H64.382a.5.5,0,0,0,.5-.5V26.949A4.064,4.064,0,0,0,60.838,22.892Zm-6.335.833a.5.5,0,0,1-.5.5H46a.5.5,0,0,1-.5-.5V21.612a4.5,4.5,0,1,1,9.006,0Z"/><path class="cls-3" d="M19.5,59.281a1,1,0,0,1-1-1v-6h-6a1,1,0,0,1-1-1v-5a1,1,0,0,1,1-1h6v-6a1,1,0,0,1,1-1h5a1,1,0,0,1,1,1v6h6a1,1,0,0,1,1,1v5a1,1,0,0,1-1,1h-6v6a1,1,0,0,1-1,1Z"/></svg>