<svg id="Layer_1" data-name="Layer 1" xmlns="http://www.w3.org/2000/svg" viewBox="0 0 100 100"><defs><style>.cls-1{fill:#6d5f63;}.cls-2{fill:#ff6a90;}.cls-3{fill:#fff;}</style></defs><title>Medicine</title><path class="cls-1" d="M65.195,52.027l-7.327-9.279a1.5,1.5,0,0,0-1.177-.57H38.314a1.5,1.5,0,0,0-1.177.57l-7.328,9.28A4.986,4.986,0,0,0,28.743,55.1V84.876a4.965,4.965,0,0,0,4.96,4.959H61.3a4.965,4.965,0,0,0,4.959-4.959V80.752a1.5,1.5,0,1,0-3,0v4.124A1.961,1.961,0,0,1,61.3,86.835H33.7a1.962,1.962,0,0,1-1.96-1.959V83.8H54.529a1.5,1.5,0,0,0,1.5-1.5V57.326a1.5,1.5,0,0,0-1.5-1.5H42.784a1.5,1.5,0,0,0,0,3H53.029V80.8H31.743V58.826H33.5a1.5,1.5,0,0,0,0-3h-1.76V55.1a1.976,1.976,0,0,1,.421-1.214l6.877-8.709H55.964l6.877,8.709a1.968,1.968,0,0,1,.421,1.214v16.11a1.5,1.5,0,0,0,3,0V55.1A4.977,4.977,0,0,0,65.195,52.027Z"/><path class="cls-1" d="M64.762,74.523a1.5,1.5,0,0,0-1.5,1.5v.188a1.5,1.5,0,1,0,3,0v-.188A1.5,1.5,0,0,0,64.762,74.523Z"/><path class="cls-1" d="M38.127,58.826h.042a1.483,1.483,0,0,0,1.479-1.5,1.519,1.519,0,0,0-1.521-1.5,1.5,1.5,0,0,0,0,3Z"/><path class="cls-1" d="M42.386,62.848a1.5,1.5,0,0,0-1.5,1.5v3.964H36.921a1.5,1.5,0,0,0,0,3h3.965v3.964a1.5,1.5,0,0,0,3,0V71.312H47.85a1.5,1.5,0,0,0,0-3H43.886V64.348A1.5,1.5,0,0,0,42.386,62.848Z"/><path class="cls-2" d="M34.36,45.177a.5.5,0,0,1-.5-.5V37.029a1.5,1.5,0,0,1,1.5-1.5H59.592a1.5,1.5,0,0,1,1.5,1.5v7.648a.5.5,0,0,1-.5.5Z"/><path class="cls-2" d="M60.607,26.557a7.838,7.838,0,0,1-6.773-3.9,7.8,7.8,0,0,1,6.743-11.7,7.838,7.838,0,0,1,6.774,3.9,7.8,7.8,0,0,1-6.744,11.705Z"/><path class="cls-3" d="M67.908,19.2,54.039,15.479a1.5,1.5,0,0,0-.507-.04,7.641,7.641,0,0,0-.72,2.725,1.484,1.484,0,0,0,.45.212L67.13,22.093a1.5,1.5,0,0,0,.39.052c.038,0,.072-.015.109-.018a7.631,7.631,0,0,0,.736-2.714A1.486,1.486,0,0,0,67.908,19.2Z"/><path class="cls-2" d="M41.837,27.563a6.452,6.452,0,0,1-2.541-.521l-11.957-5.1a6.5,6.5,0,0,1,5.1-11.958l11.957,5.1a6.5,6.5,0,0,1-2.561,12.479Z"/><path class="cls-3" d="M39.715,13.086l-2.591-1.105a1.487,1.487,0,0,0-.281.424L32.135,23.444a1.485,1.485,0,0,0-.112.5l2.589,1.1a1.48,1.48,0,0,0,.283-.424L39.6,13.582A1.486,1.486,0,0,0,39.715,13.086Z"/></svg>