<svg id="Layer_1" data-name="Layer 1" xmlns="http://www.w3.org/2000/svg" viewBox="0 0 100 100"><defs><style>.cls-1{fill:#6d5f63;}.cls-2{fill:#ff6a90;}.cls-3{fill:#fff;}</style></defs><title>Medical date</title><path class="cls-1" d="M21.6,34.635a1.5,1.5,0,0,1-1.5,1.5H16.534V60.413a1.5,1.5,0,0,1-3,0V23.607a5.507,5.507,0,0,1,5.5-5.5h6.125a1.5,1.5,0,0,1,0,3H19.034a2.5,2.5,0,0,0-2.5,2.5v9.528H20.1A1.5,1.5,0,0,1,21.6,34.635Zm3.729-1.5h-.167a1.5,1.5,0,1,0,0,3h.167a1.5,1.5,0,0,0,0-3Zm61.208,48.6a1.5,1.5,0,0,1-1.5,1.5H40.2a1.5,1.5,0,0,1,0-3H67.464V65.68a1.5,1.5,0,0,1,1.5-1.5H83.534V36.135h-53a1.5,1.5,0,1,1,0-3h53V23.607a2.5,2.5,0,0,0-2.5-2.5H74.909a1.5,1.5,0,0,1,0-3h6.125a5.507,5.507,0,0,1,5.5,5.5ZM70.464,78.114,81.41,67.18H70.464Zm13.069,2.119V69.3L72.589,80.232ZM54.159,21.107h12.5a1.5,1.5,0,0,0,0-3h-12.5a1.5,1.5,0,0,0,0,3Zm-20.75,0h12.5a1.5,1.5,0,0,0,0-3h-12.5a1.5,1.5,0,0,0,0,3Z"/><rect class="cls-2" x="22.346" y="42.378" width="9" height="9" rx="0.5" ry="0.5"/><rect class="cls-2" x="38.471" y="42.378" width="9" height="9" rx="0.5" ry="0.5"/><rect class="cls-2" x="53.596" y="42.378" width="9" height="9" rx="0.5" ry="0.5"/><rect class="cls-2" x="68.721" y="42.378" width="9" height="9" rx="0.5" ry="0.5"/><rect class="cls-2" x="53.596" y="58.024" width="9" height="9" rx="0.5" ry="0.5"/><path class="cls-2" d="M46.971,58.024h-5.78a20.011,20.011,0,0,1,5.045,9h.735a.5.5,0,0,0,.5-.5v-8A.5.5,0,0,0,46.971,58.024Z"/><path class="cls-2" d="M26.846,89.018A17.036,17.036,0,1,1,43.882,71.982,17.055,17.055,0,0,1,26.846,89.018Z"/><path class="cls-3" d="M23.846,82.482a.5.5,0,0,1-.5-.5v-6.5h-6.5a.5.5,0,0,1-.5-.5v-6a.5.5,0,0,1,.5-.5h6.5v-6.5a.5.5,0,0,1,.5-.5h6a.5.5,0,0,1,.5.5v6.5h6.5a.5.5,0,0,1,.5.5v6a.5.5,0,0,1-.5.5h-6.5v6.5a.5.5,0,0,1-.5.5Z"/><path class="cls-2" d="M50.034,26.537a4.63,4.63,0,0,1-4.625-4.625V15.607a4.625,4.625,0,0,1,9.25,0v6.305A4.63,4.63,0,0,1,50.034,26.537Z"/><path class="cls-2" d="M29.284,26.537a4.63,4.63,0,0,1-4.625-4.625V15.607a4.625,4.625,0,0,1,9.25,0v6.305A4.63,4.63,0,0,1,29.284,26.537Z"/><path class="cls-2" d="M70.784,26.537a4.63,4.63,0,0,1-4.625-4.625V15.607a4.625,4.625,0,0,1,9.25,0v6.305A4.63,4.63,0,0,1,70.784,26.537Z"/></svg>