<svg id="Layer_1" data-name="Layer 1" xmlns="http://www.w3.org/2000/svg" viewBox="0 0 100 100"><defs><style>.cls-1{fill:#6d5f63;}.cls-2{fill:#ff6a90;}.cls-3{fill:#fff;}</style></defs><title>Microscope</title><path class="cls-1" d="M64.77,12.549l-4.06-2.98a4.4,4.4,0,0,0-6.276,6l-3.627,4.94a1.5,1.5,0,0,0,.321,2.1L55.2,25.6a1.5,1.5,0,0,0,2.1-.321l3.624-4.935a4.362,4.362,0,0,0,1.228.185,4.548,4.548,0,0,0,.679-.052,4.416,4.416,0,0,0,1.944-7.924Zm-9,9.741-1.652-1.213,2.575-3.507,1.652,1.213ZM63.3,16.945a1.41,1.41,0,0,1-.928.562,1.392,1.392,0,0,1-1.049-.256l-4.063-2.983a1.416,1.416,0,0,1,.625-2.54,1.473,1.473,0,0,1,.217-.017,1.405,1.405,0,0,1,.835.275l4.06,2.98A1.418,1.418,0,0,1,63.3,16.945Z"/><path class="cls-1" d="M64.324,34.709a1.5,1.5,0,0,0-2.176,2.066l.056.059a1.433,1.433,0,0,0,1.045.452,1.516,1.516,0,0,0,1.075-2.577Z"/><path class="cls-1" d="M67.348,38.626A1.5,1.5,0,1,0,64.795,40.2a20.708,20.708,0,0,1-1.2,23.47,7.236,7.236,0,0,0-7.908,5.593l-.177.776A20.477,20.477,0,0,1,47.15,71.8,20.769,20.769,0,0,1,29.4,61.758h4.575A16.959,16.959,0,0,0,64.109,51.08,16.834,16.834,0,0,0,53.933,35.527l2.075-3.185a20.683,20.683,0,0,1,2.716,1.543A1.5,1.5,0,0,0,60.4,31.4,23.74,23.74,0,0,0,56,29.068a1.5,1.5,0,0,0-1.815.573l-3.8,5.826a1.5,1.5,0,0,0,.823,2.255A13.961,13.961,0,0,1,47.15,65.039a14.019,14.019,0,0,1-8.985-3.281h1.427a1.5,1.5,0,0,0,1.5-1.5V56.6a3.5,3.5,0,0,0-3.5-3.5H23.869a3.5,3.5,0,0,0-3.5,3.5v3.661a1.5,1.5,0,0,0,1.5,1.5h4.123A23.763,23.763,0,0,0,47.15,74.8a23.468,23.468,0,0,0,10.314-2.362,1.5,1.5,0,0,0,.809-1.017l.34-1.5a4.237,4.237,0,0,1,5.214-3.167,1.5,1.5,0,0,0,1.529-.49,23.71,23.71,0,0,0,1.991-27.646ZM23.369,56.6a.5.5,0,0,1,.5-.5H37.592a.5.5,0,0,1,.5.5v2.161H23.369Z"/><path class="cls-2" d="M68.423,66.349a7.25,7.25,0,0,0-12.735,2.917L53.7,78a1.5,1.5,0,0,0,1.463,1.832H66.958a1.5,1.5,0,0,0,1.463-1.168l1.405-6.186A7.212,7.212,0,0,0,68.423,66.349Z"/><circle class="cls-3" cx="62.649" cy="71.372" r="1.917"/><path class="cls-1" d="M39,78.788a1.5,1.5,0,0,1,1.5-1.5h.167a1.5,1.5,0,0,1,0,3H40.5A1.5,1.5,0,0,1,39,78.788ZM83.045,88.924,77,80.35a6.255,6.255,0,0,0-5.5-3.062H45.562a1.5,1.5,0,0,0,0,3H71.506a3.217,3.217,0,0,1,2.888,1.548,1.651,1.651,0,0,0,.1.168l4.43,6.284H21.073L25.5,82a1.651,1.651,0,0,0,.1-.168,3.217,3.217,0,0,1,2.888-1.548h7.36a1.5,1.5,0,0,0,0-3h-7.36A6.255,6.255,0,0,0,23,80.35l-6.044,8.574a1.5,1.5,0,0,0,1.226,2.364H81.819a1.5,1.5,0,0,0,1.226-2.364Z"/><path class="cls-2" d="M57.693,23.706,52.14,19.628a3.479,3.479,0,0,0-4.706.515l-16.021,18.3a3.5,3.5,0,0,0,.562,5.126L40.3,49.68a3.507,3.507,0,0,0,2.075.678,3.4,3.4,0,0,0,.62-.056A3.514,3.514,0,0,0,45.3,48.77l13.254-20.33A3.5,3.5,0,0,0,57.693,23.706Z"/></svg>