<svg id="Layer_1" data-name="Layer 1" xmlns="http://www.w3.org/2000/svg" viewBox="0 0 100 100"><defs><style>.cls-1{fill:#ff6a90;}.cls-2{fill:#6d5f63;}</style></defs><title>Social distancing</title><circle class="cls-1" cx="26.018" cy="24.26" r="6.301"/><path class="cls-1" d="M32.368,82.04a3.413,3.413,0,0,1-3.422-3.364l-.983-12.565A1.863,1.863,0,0,0,26.1,64.1a1.963,1.963,0,0,0-2.027,2l-.982,12.519a3.478,3.478,0,0,1-1.127,2.546,3.429,3.429,0,0,1-2.307.88q-.168,0-.337-.016a3.537,3.537,0,0,1-3.062-3.563l1.177-23.1-1.779,1.565A3.424,3.424,0,0,1,13.4,57.8a3.178,3.178,0,0,1-.68-.074,3.414,3.414,0,0,1-2.537-4.342c.518-1.154,1.025-2.246,1.533-3.336,1.18-2.532,2.39-5.13,3.416-7.749s2.782-6.157,6.226-6.9a31.014,31.014,0,0,1,4.654-.248,30.984,30.984,0,0,1,4.657.248c3.442.739,5.2,4.29,6.225,6.9,1.03,2.629,2.245,5.238,3.42,7.76.51,1.094,1.015,2.177,1.507,3.266a3.41,3.41,0,0,1-2.515,4.4,3.2,3.2,0,0,1-.682.074,3.42,3.42,0,0,1-2.25-.872L34.6,55.366l1.175,23.068a3.567,3.567,0,0,1-3.063,3.589C32.6,82.034,32.482,82.04,32.368,82.04Z"/><path class="cls-2" d="M14.89,40.333l.02-.041a1.5,1.5,0,0,1,2.709,1.29,1.536,1.536,0,0,1-1.379.872,1.459,1.459,0,0,1-.63-.142A1.481,1.481,0,0,1,14.89,40.333ZM56.873,70.627a1.5,1.5,0,0,0-2.121,2.121l1.168,1.168H44.08l1.168-1.168a1.5,1.5,0,0,0-2.121-2.121l-3.8,3.8a1.5,1.5,0,0,0,0,2.121l4.188,4.188a1.5,1.5,0,0,0,2.121-2.121l-1.7-1.7H56.066l-1.7,1.7a1.5,1.5,0,1,0,2.121,2.121l4.188-4.187a1.5,1.5,0,0,0,0-2.121ZM18.717,24.26a7.3,7.3,0,1,1,7.3,7.3A7.309,7.309,0,0,1,18.717,24.26Zm3,0a4.3,4.3,0,1,0,4.3-4.3A4.306,4.306,0,0,0,21.717,24.26ZM39.525,58.7A4.415,4.415,0,0,0,42.8,53.091a1.4,1.4,0,0,0-.067-.177c-.494-1.092-1-2.179-1.507-3.266-1.17-2.512-2.38-5.11-3.4-7.713-1.107-2.821-3.031-6.668-6.946-7.509a43.868,43.868,0,0,0-9.73,0,7.228,7.228,0,0,0-3.117,1.536,1.5,1.5,0,1,0,1.914,2.31,4.2,4.2,0,0,1,1.833-.912,44,44,0,0,1,8.472,0c2.475.531,3.855,3.31,4.782,5.67,1.055,2.69,2.285,5.331,3.475,7.885C39,51.958,39.482,53,39.958,54.05a1.415,1.415,0,0,1-1.077,1.725,1.512,1.512,0,0,1-1.544-.788c-.368-.623-1.951-3.039-2.13-3.312a1.5,1.5,0,0,0-2.753.9l1.321,25.887a1.543,1.543,0,0,1-1.264,1.573,1.414,1.414,0,0,1-1.565-1.407c0-.039,0-.078,0-.117l-.98-12.456a3.839,3.839,0,0,0-3.83-3.954h-.058a3.957,3.957,0,0,0-3.994,3.856l-.985,12.554c0,.039,0,.078,0,.117a1.415,1.415,0,0,1-1.566,1.407,1.524,1.524,0,0,1-1.265-1.5l1.323-25.963a1.5,1.5,0,0,0-2.753-.9c-.179.273-1.762,2.69-2.129,3.312a1.525,1.525,0,0,1-1.545.789,1.415,1.415,0,0,1-1.077-1.725c.478-1.053.966-2.1,1.454-3.149.795-1.707,1.616-3.471,2.38-5.237a1.5,1.5,0,0,0-2.754-1.19c-.747,1.728-1.56,3.473-2.346,5.161C10.3,50.726,9.795,51.817,9.3,52.915a1.431,1.431,0,0,0-.067.177A4.415,4.415,0,0,0,12.51,58.7a4.355,4.355,0,0,0,3.808-1.025L15.26,78.459a4.546,4.546,0,0,0,3.964,4.559,4.416,4.416,0,0,0,4.865-4.327l.984-12.555A.971.971,0,0,1,26.086,65.1c.322,0,.864.14.88,1.09l.98,12.5a4.413,4.413,0,0,0,4.422,4.349q.221,0,.442-.022a4.564,4.564,0,0,0,3.963-4.635l-1.055-20.7A4.353,4.353,0,0,0,39.525,58.7ZM66.682,24.26a7.3,7.3,0,1,1,7.3,7.3A7.309,7.309,0,0,1,66.682,24.26Zm3,0a4.3,4.3,0,1,0,4.3-4.3A4.306,4.306,0,0,0,69.682,24.26ZM90.769,53.091a1.6,1.6,0,0,0-.066-.177c-.5-1.1-1.007-2.193-1.517-3.288-1.167-2.505-2.374-5.1-3.392-7.692-1.107-2.821-3.031-6.668-6.945-7.509a43.935,43.935,0,0,0-9.731,0c-3.915.84-5.839,4.688-6.946,7.509-1.021,2.6-2.23,5.2-3.4,7.713-.507,1.087-1.013,2.174-1.507,3.266a1.4,1.4,0,0,0-.067.177A4.415,4.415,0,0,0,60.475,58.7a4.357,4.357,0,0,0,3.807-1.023L64.02,62.82a1.5,1.5,0,0,0,3,.152l.53-10.4a1.5,1.5,0,0,0-2.753-.9c-.179.273-1.762,2.69-2.13,3.313a1.509,1.509,0,0,1-1.544.788,1.415,1.415,0,0,1-1.077-1.725c.476-1.048.962-2.091,1.447-3.135,1.189-2.554,2.42-5.194,3.475-7.884.927-2.361,2.308-5.14,4.782-5.671a44.014,44.014,0,0,1,8.473,0c2.475.531,3.855,3.31,4.782,5.67,1.052,2.683,2.278,5.316,3.465,7.863.489,1.051.979,2.1,1.457,3.156a1.415,1.415,0,0,1-1.077,1.725,1.517,1.517,0,0,1-1.544-.788c-.368-.623-1.951-3.039-2.13-3.312a1.5,1.5,0,0,0-2.753.9L81.74,78.459a1.543,1.543,0,0,1-1.263,1.573,1.415,1.415,0,0,1-1.566-1.407c0-.039,0-.078,0-.117l-.981-12.5a3.974,3.974,0,0,0-4-3.909h-.058a3.808,3.808,0,0,0-3.825,3.855l-.985,12.554c0,.039,0,.078,0,.117a1.414,1.414,0,0,1-1.565,1.407,1.524,1.524,0,0,1-1.266-1.5L66.54,72.3a1.5,1.5,0,1,0-3-.152l-.319,6.312a4.546,4.546,0,0,0,3.965,4.559,4.415,4.415,0,0,0,4.864-4.328l.985-12.6c.011-.852.553-.987.875-.992a1,1,0,0,1,1.017,1.09l.98,12.5a4.414,4.414,0,0,0,4.423,4.349q.221,0,.442-.022a4.564,4.564,0,0,0,3.962-4.635l-1.055-20.7A4.338,4.338,0,0,0,87.49,58.7a4.415,4.415,0,0,0,3.278-5.613Zm-25.428,13.3a1.529,1.529,0,0,0-1.577,1.449,1.5,1.5,0,0,0,1.421,1.576l.078,0A1.5,1.5,0,0,0,66.76,68l0-.057A1.476,1.476,0,0,0,65.341,66.392Z"/></svg>