<svg id="Layer_1" data-name="Layer 1" xmlns="http://www.w3.org/2000/svg" viewBox="0 0 100 100"><defs><style>.cls-1{fill:#685a63;}.cls-2{fill:#ff6a90;}</style></defs><title>Stethoscope</title><path class="cls-1" d="M73.75,61.252a8.507,8.507,0,0,0-8.375,7.1,10.508,10.508,0,0,0-9.125,10.4,8.009,8.009,0,0,1-8,8H46.562a9.7,9.7,0,0,1-9.687-9.687V68.752h.364a4.579,4.579,0,0,0,4.573-4.573v-2.11a1.5,1.5,0,1,0-3,0v2.11a1.575,1.575,0,0,1-1.573,1.573H33.511a1.575,1.575,0,0,1-1.573-1.573V62a1.5,1.5,0,1,0-3,0v2.179a4.579,4.579,0,0,0,4.573,4.573h.364v8.312A12.7,12.7,0,0,0,46.562,89.751H48.25a11.012,11.012,0,0,0,11-11,7.507,7.507,0,0,1,6.16-7.373,8.5,8.5,0,1,0,8.34-10.126Zm0,14a5.5,5.5,0,1,1,5.5-5.5A5.507,5.507,0,0,1,73.75,75.252Zm2.25-5.5a2.25,2.25,0,1,1-2.25-2.25A2.25,2.25,0,0,1,76,69.752Z"/><path class="cls-1" d="M30.108,9.586l-3.687.827a1.5,1.5,0,0,0-1.172,1.464v.394a8.378,8.378,0,0,0-8,8.356v15.25a1.5,1.5,0,0,0,3,0V20.627a5.365,5.365,0,0,1,5-5.337v1.587a1.5,1.5,0,0,0,1.171,1.464l3.687.828h0a3.527,3.527,0,0,0,.772.086,3.5,3.5,0,0,0,3.494-3.5V13a3.5,3.5,0,0,0-4.267-3.415Zm1.267,6.167a.492.492,0,0,1-.188.391.5.5,0,0,1-.423.1l-2.515-.564v-2.6l2.516-.564a.481.481,0,0,1,.422.1.492.492,0,0,1,.188.391Z"/><path class="cls-1" d="M45.625,12.271v-.394a1.5,1.5,0,0,0-1.172-1.464l-3.686-.827A3.5,3.5,0,0,0,36.5,13v2.752a3.5,3.5,0,0,0,3.494,3.5,3.527,3.527,0,0,0,.772-.086h0l3.687-.828a1.5,1.5,0,0,0,1.171-1.464V15.289a5.365,5.365,0,0,1,5,5.337v15.25a1.5,1.5,0,1,0,3,0V20.627A8.378,8.378,0,0,0,45.625,12.271Zm-3,3.406-2.515.564a.5.5,0,0,1-.61-.488V13a.492.492,0,0,1,.187-.391A.5.5,0,0,1,40,12.5a.491.491,0,0,1,.114.014l2.515.564Z"/><path class="cls-2" d="M35.385,63.127q-.4,0-.81-.015c-11-.416-19.95-9.94-19.95-21.232v-3a3.5,3.5,0,0,1,3.5-3.5h1a3.5,3.5,0,0,1,3.5,3.5v3.5a12.766,12.766,0,0,0,12.743,12.75c.215,0,.432,0,.648-.016A12.939,12.939,0,0,0,48.125,41.992V38.877a3.5,3.5,0,0,1,3.5-3.5h1a3.5,3.5,0,0,1,3.5,3.5v3.5a20.773,20.773,0,0,1-20.74,20.75Z"/></svg>