<svg id="Layer_1" data-name="Layer 1" xmlns="http://www.w3.org/2000/svg" viewBox="0 0 100 100"><defs><style>.cls-1{fill:#ff6a90;}.cls-2{fill:#685a63;}</style></defs><title>Syrup</title><path class="cls-1" d="M66.8,17.961l5.072,13.715a2.965,2.965,0,0,1-2.081,3.593L48.282,43.223a3.755,3.755,0,0,1-1.3.236,3.342,3.342,0,0,1-.9-.121l-8.216-3.77s3.451-.417,10.826-8.542c5.3-5.838,8.024-6.854,11.813-8.437C65.633,20.443,66.8,17.961,66.8,17.961Z"/><path class="cls-1" d="M29.473,62.927a4.961,4.961,0,0,1-4.955-4.956c0-1.842,2.313-4.938,4.605-7.189a.5.5,0,0,1,.7,0c2.292,2.248,4.605,5.343,4.605,7.188A4.962,4.962,0,0,1,29.473,62.927Z"/><path class="cls-2" d="M60.541,14.566a1.5,1.5,0,0,1,.887-1.927,5.052,5.052,0,0,1,3.406-.065A3.952,3.952,0,0,1,67.272,14.9l6.011,16.256a4.454,4.454,0,0,1-2.968,5.52L48.8,44.63a5.277,5.277,0,0,1-1.824.329,4.844,4.844,0,0,1-1.306-.176,1.536,1.536,0,0,1-.221-.081l-8.217-3.77a1.5,1.5,0,0,1,1.252-2.727l8.092,3.713a2.178,2.178,0,0,0,1.183-.1l21.513-7.954c.938-.347,1.383-1.157,1.194-1.666L64.458,15.941a.985.985,0,0,0-.617-.536,2.063,2.063,0,0,0-1.372.048A1.5,1.5,0,0,1,60.541,14.566Zm-2.628,2.469a1.543,1.543,0,0,0,.531-.094,1.5,1.5,0,0,0-1.031-2.817l-.084.031a1.462,1.462,0,0,0-.851,1.909A1.518,1.518,0,0,0,57.913,17.035ZM34.27,32.917a1.5,1.5,0,0,0,1.991-.733l3.73-8.084a2.169,2.169,0,0,1,.965-.692l13.314-4.923a1.5,1.5,0,1,0-1.041-2.813L39.915,20.594a5.105,5.105,0,0,0-2.477,1.922,1.56,1.56,0,0,0-.114.2l-3.788,8.208A1.5,1.5,0,0,0,34.27,32.917Zm-8.4,38.327a1.5,1.5,0,0,0,0-3h-.059a1.475,1.475,0,0,0-1.471,1.5A1.525,1.525,0,0,0,25.871,71.244Zm58.42,2.4a5.408,5.408,0,0,1-5.4,5.4H44.7a15.983,15.983,0,0,1-28.991-9.3,1.5,1.5,0,0,1,1.5-1.5h4.229a1.5,1.5,0,0,1,0,3H18.795a13,13,0,0,0,23.832,5.549c.021-.036.04-.073.064-.107a12.909,12.909,0,0,0,1.932-5.442H30.472a1.5,1.5,0,0,1,0-3H78.89A5.408,5.408,0,0,1,84.291,73.646Zm-3,0a2.4,2.4,0,0,0-2.4-2.4H47.633a15.867,15.867,0,0,1-1.223,4.8H78.89A2.4,2.4,0,0,0,81.291,73.646Z"/><path class="cls-1" d="M34.282,45.437A2.514,2.514,0,0,1,31.934,43.8L27.641,32.2a2.5,2.5,0,0,1,1.479-3.211l2.371-.877a2.476,2.476,0,0,1,.862-.155A2.516,2.516,0,0,1,34.7,29.584L39,41.193A2.5,2.5,0,0,1,37.518,44.4l-2.372.877A2.477,2.477,0,0,1,34.282,45.437Z"/></svg>