<svg id="Layer_1" data-name="Layer 1" xmlns="http://www.w3.org/2000/svg" viewBox="0 0 100 100"><defs><style>.cls-1{fill:#ff6a90;}.cls-2{fill:#6d5f63;}</style></defs><title>Termometer</title><path class="cls-1" d="M62,31.375h6.375a1.5,1.5,0,0,0,0-3H62a1.5,1.5,0,0,0,0,3Z"/><path class="cls-1" d="M68.375,35.813H62a1.5,1.5,0,1,0,0,3h6.375a1.5,1.5,0,1,0,0-3Z"/><path class="cls-1" d="M68.375,43.25H62a1.5,1.5,0,0,0,0,3h6.375a1.5,1.5,0,0,0,0-3Z"/><path class="cls-1" d="M68.375,50.688H62a1.5,1.5,0,1,0,0,3h6.375a1.5,1.5,0,1,0,0-3Z"/><circle class="cls-1" cx="33.929" cy="25.917" r="3"/><path class="cls-2" d="M50,78.048A11.836,11.836,0,0,0,58.8,58.3V30.752a8.8,8.8,0,0,0-17.6,0V58.3A11.836,11.836,0,0,0,50,78.048ZM43.76,59.957A1.5,1.5,0,0,0,44.2,58.9V30.752a5.8,5.8,0,0,1,11.6,0V58.9a1.5,1.5,0,0,0,.44,1.062,8.836,8.836,0,1,1-12.48,0Z"/><path class="cls-2" d="M50,63.376a1.5,1.5,0,0,0,1.5-1.5V39.333a1.5,1.5,0,0,0-3,0V61.876A1.5,1.5,0,0,0,50,63.376Z"/><path class="cls-2" d="M50,35a1.5,1.5,0,0,0,1.5-1.5V29.25a1.5,1.5,0,0,0-3,0V33.5A1.5,1.5,0,0,0,50,35Z"/><circle class="cls-1" cx="50" cy="66.212" r="5.836"/><path class="cls-2" d="M74.419,26.844a1.5,1.5,0,0,0-1.5,1.5V81H27.081V77.063a1.5,1.5,0,0,0-3,0V82.5a1.5,1.5,0,0,0,1.5,1.5H74.419a1.5,1.5,0,0,0,1.5-1.5V28.344A1.5,1.5,0,0,0,74.419,26.844Z"/><path class="cls-2" d="M74.419,21.952a1.5,1.5,0,0,0-1.5,1.5v.2a1.5,1.5,0,1,0,3,0v-.2A1.5,1.5,0,0,0,74.419,21.952Z"/><path class="cls-2" d="M74.419,16H25.581a1.5,1.5,0,0,0-1.5,1.5V67.156a1.5,1.5,0,0,0,3,0V19H72.923a1.5,1.5,0,0,0,3-.1V17.5A1.5,1.5,0,0,0,74.419,16Z"/><path class="cls-2" d="M25.581,73.688a1.5,1.5,0,0,0,1.5-1.5v-.279a1.5,1.5,0,0,0-3,0v.279A1.5,1.5,0,0,0,25.581,73.688Z"/></svg>