<svg id="Capa_1" enable-background="new 0 0 512.014 512.014" height="512" viewBox="0 0 512.014 512.014" width="512" xmlns="http://www.w3.org/2000/svg"><g><g><path d="m489.529 401.592-152.312-152.312-23.575 3.788-8.411-35.774-205.411-205.411c-5.834-5.834-15.38-5.834-21.213 0l-66.72 66.72c-5.834 5.834-5.834 15.38 0 21.213l210.14 210.14 30.006 6.84 1.932 25.097 147.631 147.631c5.834 5.834 16.995 14.218 26.213 5l66.72-66.72c9.218-9.217.834-20.379-5-26.212z" fill="#c7865b"/><path d="m305.231 217.294-83.204 92.663 31.938 31.937 83.252-92.614z" fill="#b36d3c"/><path d="m500.136 412.198-10.607-10.607c5.834 5.834 5.834 15.38 0 21.213l-66.72 66.72c-5.834 5.834-15.38 5.834-21.213 0l10.607 10.607c5.834 5.834 15.38 5.834 21.213 0l66.72-66.72c5.834-5.833 5.834-15.379 0-21.213z" fill="#b36d3c"/><path d="m86.77 493.61 278.192-297.634-34.377-34.377-303.24 272.585c-4.513 4.057-6.408 10.365-4.629 16.167 2.736 8.924 8.555 18.392 15.967 26.921 10.672 10.672 22.997 18.23 31.921 20.967 5.801 1.779 12.109-.116 16.166-4.629z" fill="#d8ab8c"/><path d="m354.198 185.212-272.428 303.398c-4.057 4.513-10.365 6.408-16.167 4.63-8.924-2.736-18.392-8.555-26.921-15.967 10.68 12.29 24.669 22.631 37.528 26.573 5.802 1.779 12.11-.116 16.167-4.629l272.586-303.24z" fill="#c7865b"/><path d="m306.26 14.355c-5.388-7.542-16.258-8.441-22.812-1.887l-39.132 39.132c-6.554 6.554-5.655 17.424 1.887 22.812l63.412 45.3 28.718-16.041 8.004-33.215z" fill="#87a0af"/><path d="m381.205 119.264-34.868-48.808-36.722 49.256 41.497 29.645z" fill="#607882"/><path d="m358.188 79.394-55.148 73.971c-4.452 5.971-3.848 14.305 1.419 19.572l39.035 39.035c4.156 4.156 15.357 10.501 20.862 8.442l44.596-16.685c15.925-5.958 30.596 3.639 39.721 15.177 16.095 20.352 20.897 42.153 25.838 63.102.403 1.709.955 3.279 1.614 4.74 5.043 5.043 12.765 8.105 16.663 8.095 3.96-.01 7.163-3.372 7.115-7.332-.615-51.04-5.615-96.29-59.854-150.53-19.172-19.172-44.437-44.436-59.231-59.23-6.466-6.466-17.164-5.689-22.63 1.643z" fill="#87a0af"/><g fill="#607882"><path d="m403.953 198.729-44.596 16.685c-5.505 2.06-11.706.714-15.862-3.442l10.606 10.606c4.156 4.156 10.358 5.502 15.863 3.442l44.596-16.686c12.24-4.579 26.008-.68 34.114 9.57-14.617-18.479-25.972-27.19-44.721-20.175z"/><path d="m486.788 288.843c-3.898.01-7.496-.703-10.663-2.095 3.802 8.434 11.647 12.726 21.27 12.701 3.96-.01 7.163-3.371 7.115-7.331-.55-45.642-2.347-93.023-53.855-144.531-3.204-3.204-6.786-6.786-10.605-10.605 51.507 51.507 53.303 98.888 53.854 144.53.047 3.96-3.155 7.321-7.116 7.331z"/></g></g><g><path d="m422.81 512.014c-5.763 0-11.524-2.193-15.911-6.58l-163.266-163.265-145.678 162.061c-6.049 6.728-15.449 9.392-23.943 6.786-24.255-7.437-51.03-34.211-58.467-58.467-2.605-8.497.059-17.895 6.786-23.943l42.777-38.453c3.08-2.769 7.822-2.517 10.591.564 2.769 3.08 2.517 7.822-.564 10.591l-42.777 38.453c-2.402 2.16-3.373 5.453-2.473 8.391 5.959 19.436 29.087 42.563 48.523 48.523 2.935.901 6.23-.07 8.391-2.473l250.096-278.222-26.315-26.315-213.484 191.904c-3.08 2.769-7.822 2.518-10.591-.564-2.769-3.08-2.517-7.822.564-10.591l153.887-138.331-73.443-73.443c-2.929-2.929-2.929-7.678 0-10.606 2.929-2.929 7.678-2.929 10.606 0l74.007 74.007 24.881-22.365-182.49-182.49c-2.925-2.924-7.683-2.924-10.606 0l-41.983 41.983 73.122 73.123c2.929 2.929 2.929 7.678 0 10.606-2.929 2.929-7.678 2.929-10.606 0l-73.123-73.123-14.131 14.131c-2.924 2.924-2.924 7.682 0 10.606l160.621 160.621c2.929 2.929 2.929 7.678 0 10.606-2.929 2.929-7.678 2.929-10.606 0l-160.622-160.62c-8.773-8.772-8.773-23.047 0-31.819l66.721-66.721c8.772-8.772 23.047-8.772 31.819 0l183.054 183.055 11.781-10.59-.804-.803c-7.844-7.844-8.759-20.465-2.128-29.358l14.081-18.887-69.265-49.48c-5.393-3.853-8.799-9.85-9.345-16.454s1.828-13.079 6.514-17.764l39.132-39.132c4.686-4.686 11.155-7.061 17.765-6.514 6.604.546 12.602 3.952 16.453 9.345l43.563 60.981c3.562-2.928 7.973-4.719 12.662-5.059 6.521-.475 12.912 1.908 17.535 6.531l13.265 13.264c2.929 2.929 2.929 7.678 0 10.606-2.929 2.927-7.677 2.929-10.607 0l-13.265-13.264c-1.562-1.563-3.628-2.343-5.844-2.176-2.206.16-4.149 1.225-5.472 2.998l-55.147 73.971c-2.21 2.964-1.905 7.171.71 9.786l49.642 49.642c2.072 2.073 5.187 2.749 7.93 1.721l44.598-16.685c15.312-5.729 32.443-.931 42.625 11.942 16.673 21.083 21.839 43.027 26.835 64.249l.42 1.784c2.232 9.465 9.414 11.591 15.195 11.661-.5-41.526-1.17-88.573-51.655-139.058l-35.571-35.571c-2.929-2.929-2.929-7.678 0-10.606 2.931-2.929 7.679-2.928 10.607 0l35.57 35.571c24.083 24.083 39.763 49.492 47.938 77.68 6.991 24.109 7.811 46.901 8.113 72.064.048 3.91-1.507 7.758-4.266 10.557-2.764 2.805-6.432 4.354-10.329 4.365-.033 0-.067 0-.102 0-15.191 0-26.72-8.889-30.101-23.22l-.422-1.79c-4.619-19.625-9.396-39.917-23.999-58.382-6.124-7.744-16.413-10.636-25.604-7.198l-44.597 16.685c-8.234 3.082-17.574 1.056-23.794-5.163l-1.28-1.28-10.59 11.781 67.182 67.181c2.929 2.929 2.929 7.678 0 10.606-2.93 2.929-7.678 2.929-10.607 0l-66.616-66.616-22.365 24.88 92.415 92.415c2.929 2.929 2.929 7.678 0 10.606-2.93 2.929-7.678 2.929-10.607 0l-91.85-91.85-40.803 45.392 163.831 163.831c2.922 2.922 7.681 2.924 10.606 0l5.304-5.303-34.087-34.086c-2.929-2.929-2.929-7.678 0-10.606 2.931-2.93 7.679-2.929 10.607 0l34.086 34.086 50.81-50.811c1.405-1.405 2.179-3.289 2.179-5.303 0-2.015-.773-3.898-2.178-5.303l-79.332-79.332c-2.929-2.929-2.929-7.678 0-10.606 2.931-2.929 7.679-2.929 10.607 0l79.331 79.332c4.237 4.238 6.571 9.888 6.571 15.91s-2.334 11.672-6.572 15.91l-66.719 66.72c-4.384 4.385-10.146 6.577-15.907 6.577zm-128.786-496.441c-1.989 0-3.842.768-5.272 2.198l-39.133 39.132c-1.585 1.585-2.356 3.688-2.171 5.921.185 2.234 1.291 4.182 3.115 5.485l69.512 49.657 26.037-34.923-45.955-64.329c-1.303-1.824-3.251-2.93-5.484-3.115-.218-.017-.434-.026-.649-.026zm-5.937 479.69c-4.143 0-7.5-3.358-7.5-7.5v-5.844h-100.687c-4.142 0-7.5-3.358-7.5-7.5s3.358-7.5 7.5-7.5h100.687v-5.845c0-4.142 3.357-7.5 7.5-7.5s7.5 3.358 7.5 7.5v26.689c0 4.142-3.358 7.5-7.5 7.5z"/></g></g></svg>