<svg id="Capa_1" enable-background="new 0 0 511.881 511.881" height="512" viewBox="0 0 511.881 511.881" width="512" xmlns="http://www.w3.org/2000/svg"><g><g><path d="m319.58 259.438-8.941-.91v-10l-45.427-55.428-9.076-1.075v-10l-121.562-148.327c-12.19-14.874-34.139-19.098-52.171-4.32-49.008 40.165-68.377 80.097-70.072 95.111 4.526 4.526 11.775 2.114 13.669.561l61.009-50c9.693-7.944 23.991-6.526 31.935 3.167l161.19 196.538-24.515 30.801c-2.233 1.92-3.518 4.718-3.518 7.662 0 7.34 7.536 12.133 14.263 9.198 29.967-13.074 47.567-9.733 62.127 5.961l135.71 146.279c9.177 11.197 24.143 5.646 24.143-9.35z" fill="#dc8995"/><path d="m488.614 465.635-.268-.327c-.545 2.231-1.779 4.314-3.693 5.882-4.69 3.844-11.607 3.157-15.451-1.532l-135.71-146.279c-17.538-18.904-40.907-20.347-60.127-11.961-3.158 1.378-6.696-.872-6.696-4.318 0-1.382.603-2.696 1.651-3.597l51.259-44.065-8.941-10.91-24.872 21.381-30.527-37.249c-4.434-13.799-2.746-24.764 3.092-31.557 4.631-5.388 6.88-8.004 6.88-8.004l-9.076-11.075-21.702 25.249-108.929-132.913c-10.885-13.281-30.476-15.224-43.758-4.339l-63.468 52.015c-1.971 1.615-4.015 2.358-5.948 2.454-.083.731-.137 1.424-.137 2.034 0 6.815 8.235 12.559 15.465 6.634l63.468-52.015c6.8-5.573 16.831-4.578 22.404 2.222l113.592 138.602s-11.743 108.864-26.589 121.414c-12.267 10.371 1.295 29.349 14.94 20.872l57.508-35.751c15.263-9.488 35.647-10.145 50.512 5.878l140.496 151.438c5.573 6.8 15.603 7.795 22.403 2.222s7.795-15.605 2.222-22.405z" fill="#cd5668"/><path d="m245.745 253.379c19.764 7.763 42.361 14.508 61.65-2.05l-46.695 40.129-31.139-4.437z" fill="#bcd1e1"/><path d="m245.745 253.379c-7.763-19.764-14.508-42.362 2.05-61.65l-83.148 96.737-152.767 198.294 118.837-92.158 124.523-117.047c-2.653-6.757-6.015-15.317-9.495-24.176z" fill="#dce7ef"/><path d="m11.88 486.76c4.973 5.182 13.267 7.192 20.153 1.272 35.924-30.882 228.667-196.574 228.667-196.574s-2.192-5.582-5.46-13.903c-54.223 46.613-187.688 161.346-243.36 209.205z" fill="#bcd1e1"/><path d="m11.88 486.76c4.973 5.182 13.267 7.192 20.153 1.272 35.924-30.882 228.667-196.574 228.667-196.574s-2.192-5.582-5.46-13.903c-54.223 46.613-187.688 161.346-243.36 209.205z" fill="#bcd1e1"/><path d="m12.364 487.244c-5.182-4.973-7.192-13.267-1.272-20.153 30.882-35.924 153.555-178.625 153.555-178.625l1.584 4.137c2.554 6.671 1.249 14.2-3.408 19.616-25.666 29.858-110.154 128.14-150.459 175.025z" fill="#f5fcff"/></g><g><path d="m476.344 499.148c-.781 0-1.566-.039-2.354-.117-6.143-.609-11.688-3.542-15.643-8.267l-66.683-71.875c-2.817-3.037-2.64-7.782.397-10.599s7.782-2.638 10.599.397l66.825 72.029c.104.113.205.229.303.347 1.426 1.739 3.443 2.819 5.681 3.042 2.241.22 4.429-.441 6.168-1.867s2.819-3.443 3.042-5.681c.222-2.238-.441-4.428-1.867-6.168l-172.567-211.309-24.818 21.306c-2.982 2.568-65.628 56.528-80.052 68.722l-.102.087c-3.526 3.076-1.552 6.412-.856 7.368.863 1.187 3.282 3.689 7.098 1.318l57.507-35.75c20.549-12.775 44.09-9.97 59.97 7.146l54.356 58.59c2.817 3.037 2.64 7.782-.397 10.599-3.036 2.818-7.782 2.639-10.599-.397l-54.356-58.59c-13.072-14.09-29.779-11.62-41.054-4.609l-57.509 35.751c-10.553 6.555-21.644 2.33-27.146-5.235-.757-1.041-1.422-2.161-1.982-3.341l-98.218 84.317c-3.145 2.698-7.879 2.336-10.576-.806-2.698-3.143-2.338-7.878.805-10.576l113.143-97.129c.061-.053.122-.105.184-.158l56.208-48.253-13.085-33.321c-3.165-8.058-7.731-19.684-8.577-32.396l-71.632 83.327c-2.701 3.142-7.436 3.498-10.577.798s-3.498-7.436-.798-10.577l67.557-78.586-11.437-13.955-77.24 63.302c-3.203 2.625-7.93 2.158-10.555-1.047-2.626-3.204-2.157-7.929 1.047-10.555l77.239-63.302-10.674-13.023-77.239 63.302c-3.204 2.625-7.93 2.158-10.555-1.047-2.626-3.204-2.157-7.929 1.047-10.555l77.239-63.302-10.673-13.023-77.24 63.302c-3.204 2.625-7.929 2.158-10.555-1.047-2.626-3.204-2.157-7.929 1.047-10.555l77.239-63.302-10.673-13.024-77.24 63.302c-3.203 2.625-7.93 2.158-10.555-1.047-2.626-3.204-2.157-7.929 1.047-10.555l77.239-63.302-10.674-13.024-77.24 63.302c-3.203 2.625-7.93 2.158-10.555-1.047-2.626-3.204-2.157-7.929 1.047-10.555l77.24-63.302-5.337-6.512c-1.426-1.74-3.442-2.819-5.681-3.042-2.232-.218-4.429.442-6.168 1.867l-63.468 52.015c-5.403 4.428-12.165 5.402-18.086 2.598-5.852-2.77-9.632-8.67-9.632-15.032 0-17.92 22.635-61.706 72.955-102.946 19.89-16.301 46.857-13.996 62.726 5.367l116.295 140.969 26.918-31.313c-20.044-10.989-33.662-32.293-33.662-56.72 0-35.64 28.995-64.636 64.636-64.636s64.636 28.996 64.636 64.636-28.995 64.636-64.636 64.636c-5.602 0-11.039-.716-16.225-2.062l-45.287 52.68c-11.49 13.835-9.304 29.714-1.5 50.446 20.003 7.54 35.474 9.865 49.007-.363l-30.465-37.304c-2.62-3.208-2.144-7.933 1.064-10.553s7.934-2.143 10.553 1.065l30.431 37.263 42.614-36.583c-1.398-5.281-2.145-10.827-2.145-16.541 0-35.64 28.995-64.636 64.636-64.636 14.792 0 28.44 4.996 39.346 13.387 3.899-23.181 22.101-42.451 46.555-46.534 4.082-.681 7.951 2.077 8.633 6.162.683 4.085-2.076 7.951-6.162 8.633-22.554 3.766-37.872 25.096-34.28 47.639 6.665 10.165 10.545 22.313 10.545 35.35 0 35.64-28.995 64.636-64.636 64.636-24.32 0-45.547-13.502-56.577-33.403l-39.037 33.513 172.792 211.585c3.958 4.829 5.802 10.921 5.185 17.146-.617 6.226-3.622 11.837-8.461 15.803-4.227 3.461-9.411 5.306-14.803 5.306zm-217.626-233.253 5.185 13.2 11.734-10.073c.021-.019.04-.035.056-.048-5.988-.372-11.734-1.579-16.975-3.079zm158.526-130.97c-27.369 0-49.636 22.267-49.636 49.636s22.267 49.636 49.636 49.636 49.636-22.267 49.636-49.636-22.267-49.636-49.636-49.636zm-316.069-64.892c.78 0 1.566.039 2.354.117 6.226.617 11.837 3.622 15.802 8.461l105.336 128.527 16.935-19.7c.166-.199.334-.396.504-.595.066-.078.135-.154.204-.229l4.438-5.161-117.959-142.982c-9.122-11.13-26.341-15.825-41.632-3.292-27.617 22.634-43.965 43.863-52.815 57.686-11.586 18.094-14.647 29.929-14.647 33.659 0 .548.461 1.196 1.05 1.475.238.114.874.414 2.16-.642l63.468-52.015c4.225-3.464 9.409-5.309 14.802-5.309zm213.385-37.792c-27.369 0-49.636 22.267-49.636 49.636s22.267 49.636 49.636 49.636 49.636-22.267 49.636-49.636-22.266-49.636-49.636-49.636zm-291.684 466.877c-6.127 0-11.961-2.695-16.077-6.813-7.286-7.292-10.105-19.974-1.396-30.105l122.754-142.795c2.701-3.142 7.437-3.498 10.576-.798 3.142 2.7 3.499 7.436.799 10.577l-122.755 142.794c-3.999 4.651-.176 8.916.632 9.724.808.809 5.079 4.64 9.737.64l31.948-27.426c3.145-2.698 7.879-2.336 10.576.806 2.698 3.143 2.338 7.878-.805 10.576l-31.948 27.426c-4.415 3.79-9.316 5.394-14.041 5.394zm194.049-207.635c-4.411 0-8-3.589-8-8s3.589-8 8-8 8 3.589 8 8-3.589 8-8 8z"/></g></g></svg>