<svg id="Capa_1" enable-background="new 0 0 512 512" height="512" viewBox="0 0 512 512" width="512" xmlns="http://www.w3.org/2000/svg"><g><g><path d="m7.514 7.501s21.917 43.13 48.644 69.857h21.212v-21.214c-26.726-26.726-69.856-48.643-69.856-48.643z" fill="#4e5a61"/><path d="m77.37 56.144-21.213 21.213c9.533 9.533 115.161 115.161 115.161 115.161h21.213v-21.213z" fill="#607882"/><path d="m177.228 177.644h30v29.142h-30z" fill="#4e5a61" transform="matrix(.707 -.707 .707 .707 -79.614 192.225)"/><path d="m492.601 471.255c-47.163-48.605-115.563-131.254-173.207-200.478l-22.655-11.751-11.217-28.783c-22.879-27.215-42.395-49.932-55.783-64.052-2.904-3.063-7.757-3.121-10.742-.137l-52.93 52.93c-2.983 2.983-2.927 7.837.135 10.74 14.12 13.388 36.838 32.905 64.055 55.785l26.397 13.603 21.163 26.119c67.945 56.559 147.007 122.217 193.921 167.814 7.445 5.383 18.503 6.198 23.297.91 4.462-4.924 4.099-14.566-2.434-22.7z" fill="#607882"/><path d="m319.394 270.777-41.578 54.454c-16.747-13.941-32.813-27.324-47.56-39.722l55.265-55.265c10.654 12.671 22.035 26.316 33.873 40.533zm180.437 207.827c-2.348-2.351-4.76-4.805-7.23-7.35 2.623 5.785 1.896 12.776-2.567 17.699-4.794 5.288-12.167 6.643-18.297 4.09 2.48 2.411 4.876 4.769 7.17 7.063 6.034 6.035 15.932 5.853 21.733-.547 5.417-5.973 4.889-15.249-.809-20.955z" fill="#4e5a61"/><path d="m200.546 483.262c26.364-26.364 60.764-171.415 60.764-171.416l-71.143-61.143s-140.245 29.207-166.609 55.571c-25.453 25.453-22.808 96.447 23.827 147.746 50.41 50.41 127.709 54.695 153.161 29.242z" fill="#bfc5eb"/><path d="m250.704 311.24s-29.208 140.245-55.571 166.609c-25.453 25.453-96.447 22.808-147.747-23.827 1.67 1.837 3.39 3.651 5.173 5.434 51.589 51.589 126.817 55.364 153.18 29 26.364-26.364 55.571-166.609 55.571-166.609v-10z" fill="#8a94db"/><path d="m497.164 7.547c-2.036.163-4.454.788-7.229 1.848-47.116 17.992-197.7 163.376-197.7 163.376v47.01l42.211-5.654c-.001-.002 181.232-186.107 162.718-206.58z" fill="#bfc5eb"/><path d="m502.881 9.133c-1.283-1.283-3.21-1.786-5.717-1.586-21.412 49.457-168.527 201.626-168.527 201.626l-36.403 10.607h47.01s145.382-150.582 163.375-197.699c2.365-6.194 2.587-10.624.262-12.948z" fill="#8a94db"/><path d="m328.637 209.173-36.403-36.403-102.066 77.934 60.536 60.536 46.035-52.214z" fill="#f5fcff"/><path d="m328.637 209.173-77.933 102.067 10.607 10.606 77.933-102.066z" fill="#dce7ef"/></g><g><path d="m489.524 512c-5.939 0-11.715-2.384-15.921-6.59-44.39-44.39-125.27-111.719-190.259-165.818-3.183-2.65-3.615-7.379-.965-10.562 2.647-3.184 7.376-3.617 10.562-.966 65.223 54.295 146.395 121.867 191.269 166.74 1.466 1.466 3.421 2.252 5.488 2.194 2.071-.051 3.983-.93 5.385-2.475 2.636-2.907 2.385-7.67-.56-10.619-44.943-45.002-112.011-125.575-171.182-196.663-4.612-5.54-9.168-11.013-13.652-16.397l-41.394 54.21c-1.597 7.475-8.421 38.781-17.656 72.207-14.616 52.903-27.569 84.468-39.598 96.497-10.737 10.738-28.165 17.173-49.073 18.12-4.173.189-7.645-3.015-7.832-7.153s3.015-7.644 7.152-7.832c16.911-.767 31.18-5.775 39.146-13.742 19.667-19.667 43.898-117.74 52.697-158.877l-65.394-65.393c-41.139 8.801-139.217 33.036-158.876 52.696-7.718 7.717-12.558 20.885-13.628 37.079-.272 4.133-3.877 7.247-7.978 6.989-4.134-.273-7.263-3.845-6.989-7.979 1.31-19.823 7.698-36.407 17.988-46.696 12.028-12.028 43.593-24.981 96.496-39.598 22.95-6.341 44.899-11.544 58.823-14.701-4.824-4.32-8.97-8.126-12.535-11.507-2.959-2.806-4.619-6.597-4.673-10.674-.055-4.083 1.506-7.922 4.395-10.811l10.556-10.555-120.463-120.463c-27.255-27.256-49.109-69.958-50.026-71.763-1.471-2.894-.912-6.405 1.383-8.701 2.297-2.295 5.809-2.854 8.701-1.383 1.805.917 44.507 22.771 71.763 50.026l38.588 38.587c2.929 2.929 2.929 7.678 0 10.606-2.93 2.927-7.678 2.929-10.607 0l-33.285-33.282-10.606 10.606 115.161 115.161 10.607-10.606-61.098-61.097c-2.929-2.929-2.929-7.678 0-10.606 2.93-2.929 7.678-2.929 10.607 0l61.097 61.097 10.555-10.555c2.889-2.888 6.749-4.447 10.81-4.396 4.079.054 7.871 1.715 10.679 4.675 6.396 6.747 14.414 15.678 24.428 27.214l27.729-21.173c9.678-9.331 152.552-146.596 199.92-164.684 9.358-3.573 16.397-3.087 20.927 1.442 4.529 4.529 5.014 11.57 1.44 20.926-7.277 19.054-34.268 55.359-80.222 107.908-2.727 3.118-7.465 3.435-10.583.708s-3.435-7.465-.708-10.583c55.781-63.786 72.933-91.428 77.499-103.386.743-1.943 1.098-3.328 1.264-4.266-.938.166-2.322.521-4.267 1.263-12.848 4.906-43.086 23.983-114.181 87.008-33.304 29.522-63.454 58.018-75.472 69.478l36.171 36.171c10.112-10.604 33.486-35.322 59.077-63.816 2.769-3.083 7.51-3.336 10.592-.569 3.081 2.768 3.336 7.51.568 10.591-32.335 36.003-61.159 66.021-64.421 69.41l-25.918 33.943c5.19 6.229 10.48 12.583 15.845 19.028 58.968 70.843 125.804 151.138 170.267 195.66 8.65 8.661 9.115 22.407 1.06 31.293-4.187 4.617-9.915 7.244-16.132 7.396-.18.006-.361.008-.541.008zm-287.991-260.538 59.019 59.019 68.749-90.038-37.73-37.73zm-14.421-42.92-15.742 15.745c4.964 4.708 11.123 10.297 18.751 17.016l57.543-43.938c-9.578-11.022-17.252-19.564-23.368-26.015l-15.656 15.66c-.064.069-.131.137-.197.205-.067.067-.135.132-.204.196l-20.896 20.899c-.038.04-.076.079-.114.117-.04.04-.078.077-.117.115zm-159.343-180.786c7.486 12.043 17.493 26.674 28.524 38.858l10.333-10.333c-12.184-11.031-26.814-21.038-38.857-28.525zm103.645 481.704c-.482 0-.972-.047-1.463-.144-30.655-6.062-60.023-21.886-82.695-44.557-23.902-23.901-40.017-54.865-45.374-87.186-.677-4.086 2.087-7.948 6.173-8.625 4.086-.68 7.947 2.086 8.626 6.172 1.116 6.734 2.75 13.407 4.869 19.952l57.178-33.434c3.575-2.091 8.169-.888 10.261 2.688 2.091 3.576.887 8.169-2.688 10.26l-59.308 34.68c7.345 16.511 17.83 31.847 30.87 44.887 5.197 5.197 10.78 9.998 16.668 14.359l44.089-52.118c2.673-3.162 7.405-3.558 10.569-.882 3.162 2.675 3.558 7.407.882 10.57l-42.972 50.799c8.713 5.19 17.909 9.476 27.382 12.744l22.696-34.106c2.295-3.448 6.951-4.383 10.399-2.088 3.448 2.294 4.384 6.95 2.089 10.399l-20.027 30.094c1.072.24 2.147.466 3.224.679 4.063.803 6.706 4.749 5.902 8.812-.707 3.57-3.841 6.045-7.35 6.045z"/></g></g></svg>