<svg id="Capa_1" enable-background="new 0 0 512 512" height="512" viewBox="0 0 512 512" width="512" xmlns="http://www.w3.org/2000/svg"><g><g><path d="m111.072 214.415c0-1.515-1.227-4.933-5.647-9.353-1.378-.418-2.839-.647-4.353-.647-8.284 0-15 6.716-15 15 0 1.515.229 2.975.647 4.353 4.42 4.42 7.839 5.647 9.353 5.647 8.284 0 15-6.715 15-15z" fill="#ffe07d"/><path d="m105.425 205.062c.418 1.378.647 2.839.647 4.353 0 8.284-6.716 15-15 15-1.515 0-2.975-.229-4.353-.647 1.866 6.16 7.584 10.647 14.353 10.647 8.284 0 15-6.716 15-15 0-6.769-4.486-12.487-10.647-14.353z" fill="#ffc250"/><path d="m122.072 157.415c0-1.515-1.227-4.933-5.647-9.353-1.378-.418-2.839-.647-4.353-.647-8.284 0-15 6.716-15 15 0 1.515.229 2.975.647 4.353 4.42 4.42 7.839 5.647 9.353 5.647 8.284 0 15-6.715 15-15z" fill="#ffe07d"/><path d="m116.425 148.062c.418 1.378.647 2.839.647 4.353 0 8.284-6.716 15-15 15-1.515 0-2.975-.229-4.353-.647 1.866 6.16 7.584 10.647 14.353 10.647 8.284 0 15-6.716 15-15 0-6.769-4.486-12.487-10.647-14.353z" fill="#ffc250"/><path d="m229.066 31.493c0-1.515-1.227-4.933-5.647-9.353-1.378-.418-2.839-.647-4.353-.647-8.284 0-15 6.716-15 15 0 1.515.229 2.975.647 4.353 4.42 4.42 7.839 5.647 9.353 5.647 8.285 0 15-6.716 15-15z" fill="#ffe07d"/><path d="m223.42 22.14c.418 1.378.647 2.839.647 4.353 0 8.284-6.716 15-15 15-1.515 0-2.975-.229-4.353-.647 1.866 6.16 7.584 10.647 14.353 10.647 8.284 0 15-6.716 15-15-.001-6.77-4.487-12.487-10.647-14.353z" fill="#ffc250"/><path d="m302.934 31.493c0-1.515-1.227-4.933-5.647-9.353-1.378-.418-2.839-.647-4.353-.647-8.284 0-15 6.716-15 15 0 1.515.229 2.975.647 4.353 4.42 4.42 7.839 5.647 9.353 5.647 8.284 0 15-6.716 15-15z" fill="#ffe07d"/><path d="m297.287 22.14c.418 1.378.647 2.839.647 4.353 0 8.284-6.716 15-15 15-1.515 0-2.975-.229-4.353-.647 1.866 6.16 7.584 10.647 14.353 10.647 8.284 0 15-6.716 15-15 0-6.77-4.487-12.487-10.647-14.353z" fill="#ffc250"/><path d="m409.928 157.415c0-1.515-1.227-4.933-5.647-9.353-1.378-.418-2.839-.647-4.353-.647-8.284 0-15 6.716-15 15 0 1.515.229 2.975.647 4.353 4.42 4.42 7.839 5.647 9.353 5.647 8.284 0 15-6.715 15-15z" fill="#ffe07d"/><path d="m404.281 148.062c.418 1.378.647 2.839.647 4.353 0 8.284-6.716 15-15 15-1.515 0-2.975-.229-4.353-.647 1.866 6.16 7.584 10.647 14.353 10.647 8.284 0 15-6.716 15-15 0-6.769-4.487-12.487-10.647-14.353z" fill="#ffc250"/><path d="m420.928 214.415c0-1.515-1.227-4.933-5.647-9.353-1.378-.418-2.839-.647-4.353-.647-8.284 0-15 6.716-15 15 0 1.515.229 2.975.647 4.353 4.42 4.42 7.839 5.647 9.353 5.647 8.284 0 15-6.715 15-15z" fill="#ffe07d"/><path d="m415.281 205.062c.418 1.378.647 2.839.647 4.353 0 8.284-6.716 15-15 15-1.515 0-2.975-.229-4.353-.647 1.866 6.16 7.584 10.647 14.353 10.647 8.284 0 15-6.716 15-15 0-6.769-4.487-12.487-10.647-14.353z" fill="#ffc250"/><path d="m256 423.918c119.098 0 176.488-124.479 158.854-188.965-1.253-.34-2.565-.537-3.926-.537-6.52 0-12.069 4.16-14.136 9.971-10.797 30.345-32.277 58.448-56.346 72.934-23.158 13.938-51.53 20.513-84.446 20.513s-61.288-6.576-84.446-20.513c-24.069-14.486-45.549-42.588-56.346-72.934-2.067-5.811-7.616-9.971-14.136-9.971-8.284 0-15 6.716-15 15 0 42.613 12.72 79.578 33.302 108.852 39.987 48.027 89.182 65.65 136.626 65.65z" fill="#ffe07d"/><path d="m414.854 234.952c.047.482.074.969.074 1.463 0 106.973-73.177 179.915-166.928 179.915-47.444 0-95.316-20.59-128.626-58.063 32.373 46.047 84.204 73.063 136.626 73.063 85.751 0 169.928-72.275 169.928-181.915 0-6.923-4.697-12.735-11.074-14.463z" fill="#ffc250"/><path d="m252.916 497.633c9.706 0 34.687-31.935 34.687-85.853 0-25.195-8.971-49.959-18.063-64.644-5.33-6.131-10.363-9.303-13.54-9.303-9.706 0-36.71 29.416-36.71 83.333 0 21.365 4.246 38.866 9.97 52.231 7.033 13.451 19.382 24.236 23.656 24.236z" fill="#bfc5eb"/><path d="m282.71 406.167c0 53.918-23.004 84.333-32.71 84.333-4.273 0-12.674-5.902-20.74-17.102 8.721 20.363 20.88 31.102 26.74 31.102 9.706 0 36.71-29.416 36.71-83.333 0-36.269-12.217-61.43-23.17-74.03 7.273 13.993 13.17 33.834 13.17 59.03z" fill="#8a94db"/><path d="m395.243 413.349c6.663-3.847 16.184-35.431-7.632-71.509-18.611-22.879-41.301-27.907-47.166-24.521-6.822 3.939-15.19 33.277 4.261 66.968 17.062 23.338 43.715 33.001 50.537 29.062z" fill="#bfc5eb"/><path d="m396.311 354.494c-2.729-4.727-5.662-8.919-8.7-12.653 17.746 32.695 9.624 60.774 2.961 64.621-6.822 3.939-32.629-6.817-45.865-22.174 19.451 33.691 49.043 41.113 55.865 37.174s15.19-33.278-4.261-66.968z" fill="#8a94db"/><path d="m163.238 377.362c22.726-40.678 8.316-60.042 8.316-60.042-6.822-3.939-36.414 3.483-55.865 37.174-12.705 22.005-13.539 42.149-10.69 54.576 12.34 12.34 40.472.094 58.239-31.708z" fill="#bfc5eb"/><path d="m171.554 317.32s7.19 20.277-12.261 53.968c-18.214 31.548-45.319 40.062-54.294 37.782 1.513 6.599 4.063 11.025 6.429 12.392 6.822 3.939 36.414-3.483 55.865-37.174s11.083-63.03 4.261-66.968z" fill="#8a94db"/></g><g><path d="m256 512c-14.477 0-40.203-29.754-43.791-79.142-18.958-5.199-36.851-13.575-53.331-24.966-19.511 20.065-42.256 25.229-51.201 20.064-11.387-6.574-19.46-40.882 1.516-77.213 11.59-20.074 25.808-30.438 35.694-35.597 2.323-1.212 4.622-2.254 6.87-3.122-18.666-16.327-34.634-39.882-43.615-65.125-1.061-2.982-3.902-4.985-7.07-4.985-4.136 0-7.5 3.364-7.5 7.5 0 25.369 4.657 49.463 13.841 71.614 1.586 3.826-.229 8.214-4.056 9.801-3.825 1.585-8.214-.229-9.801-4.056-9.943-23.981-14.984-50.009-14.984-77.359 0-5.757 2.173-11.017 5.743-15-3.57-3.983-5.743-9.243-5.743-15 0-12.407 10.093-22.5 22.5-22.5s22.5 10.093 22.5 22.5c0 5.755-2.171 11.012-5.738 14.995 1.916 2.135 3.441 4.654 4.44 7.462 10.336 29.05 30.682 55.483 53.106 68.996.067.04.135.081.202.122 21.407 12.835 48.462 19.343 80.418 19.343s59.011-6.508 80.418-19.343c.067-.041.135-.082.203-.122 8.728-5.259 17.163-12.465 25.072-21.417 2.743-3.104 7.482-3.397 10.586-.655 3.104 2.743 3.397 7.482.654 10.586-4.086 4.625-8.317 8.849-12.668 12.65 2.239.866 4.532 1.905 6.847 3.113 7.882 4.114 18.519 11.536 28.381 24.55 15.033-26.7 22.935-57.698 22.935-90.281 0-4.136-3.364-7.5-7.5-7.5-3.168 0-6.009 2.003-7.069 4.985-3.35 9.414-7.696 18.691-12.919 27.574-2.1 3.571-6.694 4.765-10.267 2.665-3.57-2.099-4.764-6.696-2.664-10.266 4.743-8.067 8.685-16.479 11.717-25 .999-2.808 2.524-5.327 4.44-7.462-3.567-3.983-5.738-9.24-5.738-14.995 0-12.407 10.093-22.5 22.5-22.5s22.5 10.093 22.5 22.5c0 5.757-2.173 11.017-5.743 15 3.57 3.983 5.743 9.243 5.743 15 0 37.962-9.98 74.007-28.89 104.444 18.78 35.158 10.845 67.711-.215 74.097-2.124 1.226-5.029 1.87-8.48 1.871-15.055.001-40.567-12.236-57.63-41.79-11.59-20.074-13.457-37.569-12.981-48.71.094-2.191.282-4.309.56-6.337-14.601 5.949-30.911 9.762-48.805 11.408 11.664 14.504 22.365 39.648 23.176 72.73 8.411-2.578 16.661-5.881 24.625-9.864 3.704-1.854 8.21-.352 10.062 3.354 1.853 3.705.351 8.21-3.354 10.062-10.205 5.103-20.846 9.188-31.704 12.175-3.589 49.389-29.315 79.146-43.792 79.146zm-36.934-483.008c-4.136 0-7.5 3.364-7.5 7.5 0 4.135 3.364 7.5 7.5 7.5 4.135 0 7.5-3.365 7.5-7.5 0-4.136-3.364-7.5-7.5-7.5zm66.368 7.5c0 4.135 3.365 7.5 7.5 7.5 4.136 0 7.5-3.365 7.5-7.5 0-4.136-3.364-7.5-7.5-7.5s-7.5 3.364-7.5 7.5zm-2.68-20.059c3.059-1.559 6.518-2.441 10.18-2.441 12.407 0 22.5 10.093 22.5 22.5s-10.093 22.5-22.5 22.5c-6.467 0-12.312-2.737-16.42-7.121-5.368 5.036-12.59 8.129-20.514 8.129s-15.146-3.093-20.514-8.129c-4.108 4.383-9.952 7.121-16.42 7.121-12.407 0-22.5-10.093-22.5-22.5s10.093-22.5 22.5-22.5c3.662 0 7.121.883 10.18 2.441 4.961-9.746 15.089-16.433 26.754-16.433s21.793 6.688 26.754 16.433zm-11.754 13.567c0-8.271-6.729-15-15-15s-15 6.729-15 15 6.729 15 15 15 15-6.729 15-15zm-48.52 352.82c.529 0 1.064.056 1.602.173 4.047.881 6.614 4.876 5.734 8.923-2.008 9.229-3.027 19.071-3.027 29.25 0 49.646 23.566 73.837 29.21 75.768 5.644-1.931 29.21-26.122 29.21-75.768 0-49.625-23.546-73.816-29.203-75.766-2.286.831-9.336 6.198-16.22 18.92-1.971 3.643-6.521 4.999-10.166 3.027-3.643-1.971-4.998-6.522-3.027-10.166 2.6-4.804 5.435-9.107 8.372-12.789-17.875-1.648-34.17-5.459-48.757-11.403.277 2.028.466 4.146.56 6.337.475 11.141-1.392 28.636-12.981 48.71-1.687 2.922-3.456 5.674-5.29 8.263 13.512 9.182 28.033 16.162 43.34 20.835.239-9.827 1.353-19.365 3.321-28.409.765-3.508 3.872-5.905 7.322-5.905zm121.762-58.924c-3.174 3.919-10.06 27.162 6.96 56.642 17.021 29.48 40.59 35.134 45.574 34.349 3.174-3.919 10.061-27.162-6.96-56.642-17.02-29.481-40.586-35.139-45.574-34.349zm-229.018 90.99c4.978.785 28.553-4.869 45.574-34.349 17.02-29.48 10.134-52.723 6.96-56.642-4.98-.794-28.554 4.868-45.574 34.348-17.019 29.479-10.135 52.721-6.96 56.643zm295.704-202.97c-4.135 0-7.5 3.364-7.5 7.5 0 4.135 3.365 7.5 7.5 7.5 4.136 0 7.5-3.365 7.5-7.5 0-4.136-3.365-7.5-7.5-7.5zm-309.856 0c-4.136 0-7.5 3.364-7.5 7.5 0 4.135 3.364 7.5 7.5 7.5 4.135 0 7.5-3.365 7.5-7.5 0-4.136-3.364-7.5-7.5-7.5zm298.856-27c-12.407 0-22.5-10.093-22.5-22.5s10.093-22.5 22.5-22.5 22.5 10.093 22.5 22.5-10.094 22.5-22.5 22.5zm0-30c-4.135 0-7.5 3.364-7.5 7.5 0 4.135 3.365 7.5 7.5 7.5 4.136 0 7.5-3.365 7.5-7.5 0-4.136-3.365-7.5-7.5-7.5zm-287.856 30c-12.407 0-22.5-10.093-22.5-22.5s10.093-22.5 22.5-22.5 22.5 10.093 22.5 22.5-10.093 22.5-22.5 22.5zm0-30c-4.136 0-7.5 3.364-7.5 7.5 0 4.135 3.364 7.5 7.5 7.5 4.135 0 7.5-3.365 7.5-7.5 0-4.136-3.364-7.5-7.5-7.5zm273.434-26.424c-4.411 0-8-3.589-8-8s3.589-8 8-8 8 3.589 8 8-3.589 8-8 8zm-259.012 0c-4.411 0-8-3.589-8-8s3.589-8 8-8 8 3.589 8 8-3.589 8-8 8zm245.012-25c-4.411 0-8-3.589-8-8s3.589-8 8-8 8 3.589 8 8-3.589 8-8 8zm-231.012 0c-4.411 0-8-3.589-8-8s3.589-8 8-8 8 3.589 8 8-3.589 8-8 8zm213.012-22c-4.411 0-8-3.589-8-8s3.589-8 8-8 8 3.589 8 8-3.589 8-8 8zm-195.012 0c-4.411 0-8-3.589-8-8s3.589-8 8-8 8 3.589 8 8-3.589 8-8 8zm173.012-18c-4.411 0-8-3.589-8-8s3.589-8 8-8 8 3.589 8 8-3.589 8-8 8zm-151.012 0c-4.411 0-8-3.589-8-8s3.589-8 8-8 8 3.589 8 8-3.589 8-8 8z"/></g></g></svg>