<svg id="Capa_1" enable-background="new 0 0 512.001 512.001" height="512" viewBox="0 0 512.001 512.001" width="512" xmlns="http://www.w3.org/2000/svg"><g><g><path d="m385.542 194.501h-205v265l210 5z" fill="#ffe07d"/><path d="m400.542 194.501h-15v257.5c0 4.142-3.358 7.5-7.5 7.5h-197.5v25h220v-70l-10-76.667 10-73.333z" fill="#ffc250"/><path d="m385.542 414.501h15v-150h-15l-10 75z" fill="#dce7ef"/><path d="m385.542 414.501h-130c-8.284 0-15-6.716-15-15v-120c0-8.284 6.716-15 15-15h130z" fill="#f5fcff"/><path d="m385.542 174.501c-18.266-25.302-49.93-47.675-95-47.675s-76.734 22.373-95 47.675l95 23.837z" fill="#dce7ef"/><path d="m299.043 52.547-32.002-2.723v32.003l39.002 7z" fill="#f5fcff"/><path d="m299.043 52.547v21.779c0 4.142-3.358 7.5-7.5 7.5h-24.503v15h47.003v-43.002z" fill="#dce7ef"/><path d="m410.124 177.964c-2.599-2.161-5.938-3.462-9.582-3.462-4.263 0-215.737 0-220 0-8.284 0-15 6.716-15 15 0 0 229.492 7 233 7 7.091-.001 14.526-10.015 11.582-18.538z" fill="#bcd1e1"/><path d="m410.124 177.964c-1.565 6.612-7.492 11.538-14.582 11.538-3.508 0-169.053 0-230 0 0 8.284 6.716 15 15 15h220c8.284 0 15-6.716 15-15 0-4.641-2.109-8.787-5.418-11.538z" fill="#87a0af"/><path d="m410.124 477.964c-2.599-2.161-5.938-3.462-9.582-3.462-4.263 0-215.737 0-220 0-8.284 0-15 6.716-15 15 0 0 229.492 7 233 7 7.091-.001 14.526-10.015 11.582-18.538z" fill="#bcd1e1"/><path d="m410.124 477.964c-1.565 6.612-7.492 11.538-14.582 11.538-3.508 0-169.053 0-230 0 0 8.284 6.716 15 15 15h220c8.284 0 15-6.716 15-15 0-4.641-2.109-8.787-5.418-11.538z" fill="#87a0af"/></g><g><path d="m400.542 512.001h-220c-12.407 0-22.5-10.093-22.5-22.5 0-9.778 6.27-18.12 15-21.215v-37.16c0-4.142 3.358-7.5 7.5-7.5s7.5 3.358 7.5 7.5v35.875h205v-45h-137.5c-12.407 0-22.5-10.093-22.5-22.5v-120c0-12.407 10.093-22.5 22.5-22.5h137.5v-45h-205v189.125c0 4.142-3.358 7.5-7.5 7.5s-7.5-3.358-7.5-7.5v-190.41c-8.73-3.095-15-11.437-15-21.215 0-12.407 10.093-22.5 22.5-22.5h11.241c13.922-18.05 42.636-44.942 91.259-47.481v-15.194h-16.001c-4.142 0-7.5-3.358-7.5-7.5v-47.002c0-2.1.88-4.103 2.427-5.523 1.546-1.421 3.623-2.128 5.709-1.95l47.002 4c3.882.331 6.864 3.578 6.864 7.473v43.003c0 4.142-3.357 7.5-7.5 7.5h-16.001v15.194c48.646 2.541 77.364 29.466 91.26 47.481h11.24c12.406 0 22.5 10.093 22.5 22.5 0 9.778-6.27 18.12-15 21.215v75.715c0 4.142-3.357 7.5-7.5 7.5s-7.5-3.358-7.5-7.5v-14.43h-137.5c-4.136 0-7.5 3.364-7.5 7.5v120c0 4.136 3.364 7.5 7.5 7.5h137.5v-90.57c0-4.142 3.357-7.5 7.5-7.5s7.5 3.358 7.5 7.5v151.855c8.73 3.095 15 11.437 15 21.215 0 12.406-10.094 22.499-22.5 22.499zm-220-30c-4.136 0-7.5 3.364-7.5 7.5s3.364 7.5 7.5 7.5h220c4.136 0 7.5-3.364 7.5-7.5s-3.364-7.5-7.5-7.5zm0-300c-4.136 0-7.5 3.364-7.5 7.5s3.364 7.5 7.5 7.5h220c4.136 0 7.5-3.364 7.5-7.5s-3.364-7.5-7.5-7.5h-143.301c-4.142 0-7.5-3.358-7.5-7.5s3.358-7.5 7.5-7.5h112.27c-14.832-15.377-40.149-32.675-78.969-32.675-38.81 0-64.126 17.285-78.97 32.675h15.668c4.142 0 7.5 3.358 7.5 7.5s-3.358 7.5-7.5 7.5zm93.999-92.674h32.002v-28.615l-32.002-2.723zm-145.154 57.324c-2.957 0-5.759-1.76-6.946-4.666-1.566-3.834.273-8.213 4.107-9.779l93.114-38.032c3.833-1.565 8.212.272 9.779 4.107 1.566 3.834-.273 8.213-4.107 9.779l-93.114 38.032c-.929.379-1.889.559-2.833.559zm87.654-65.826h-120.582c-4.142 0-7.5-3.358-7.5-7.5s3.358-7.5 7.5-7.5h120.581c4.142 0 7.5 3.358 7.5 7.5s-3.357 7.5-7.499 7.5zm5.454-27.79c-.945 0-1.905-.18-2.833-.559l-93.114-38.031c-3.834-1.566-5.673-5.945-4.107-9.779 1.566-3.835 5.943-5.672 9.779-4.107l93.114 38.031c3.834 1.566 5.673 5.945 4.107 9.779-1.187 2.906-3.989 4.666-6.946 4.666z"/></g></g></svg>