<svg id="Capa_1" enable-background="new 0 0 512.067 512.067" height="512" viewBox="0 0 512.067 512.067" width="512" xmlns="http://www.w3.org/2000/svg"><g><g><path d="m434.13 497.59c8.405-3.237 21.635-10.386 37.354-26.106 15.72-15.72 22.869-28.95 26.106-37.354 2.855-7.413-2.356-14.787-8.439-20.871l-64.153-64.153-43.446 35.558-32.446 40.333 64.153 64.153c6.084 6.085 13.458 11.296 20.871 8.44z" fill="#dc8995"/><path d="m500.151 424.259-11-11c4.159 4.159 5.553 10.383 3.439 15.871-3.237 8.405-10.386 21.635-26.106 37.354-15.72 15.72-28.95 22.869-37.354 26.106-5.488 2.114-11.712.719-15.871-3.439l11 11c4.159 4.159 10.383 5.553 15.871 3.439 8.405-3.237 21.635-10.386 37.354-26.106 15.72-15.72 22.869-28.95 26.106-37.354 2.114-5.488.72-11.712-3.439-15.871z" fill="#cd5668"/><path d="m8.321 8.321c-4.141 4.141 9.633 25.084 20.135 39.079h18.944v-18.944c-13.995-10.502-34.938-24.276-39.079-20.135z" fill="#dc8995"/><path d="m47.4 28.456-18.944 18.944c4.354 5.802 8.149 10.418 9.865 12.135h21.213v-21.214c-1.716-1.717-6.332-5.511-12.134-9.865z" fill="#cd5668"/><path d="m69.858 38.057c-2.956-2.679-7.503-2.557-10.324.264l-21.213 21.213c-2.821 2.821-2.943 7.368-.264 10.324 24.234 26.739 25.918 51.474 44.187 76.061h63.675v-63.674c-24.587-18.269-49.321-19.954-76.061-44.188z" fill="#bcd1e1"/><path d="m145.92 82.245-63.675 63.675c2.925 3.936 6.259 7.869 10.195 11.805h65.285v-65.285c-3.937-3.937-7.869-7.271-11.805-10.195z" fill="#87a0af"/><path d="m168.331 92.44c-2.929-2.929-7.678-2.929-10.607 0l-65.284 65.285c-2.929 2.929-2.929 7.678 0 10.607l245.667 245.666 43.446-29.333 32.446-46.558z" fill="#f5fcff"/><path d="m327.888 373.774h107.327v15.556h-107.327z" fill="#dce7ef" transform="matrix(.707 -.707 .707 .707 -158.044 381.552)"/><path d="m82.268 494.544 80.76-80.153-75.891-65.285-75.153 75.153c-4.159 4.159-5.553 10.383-3.439 15.871 3.237 8.405 10.386 21.635 26.106 37.354 0 0 18.963 15.575 31.748 20.499 5.486 2.115 11.71.72 15.869-3.439z" fill="#bfc5eb"/><path d="m77.268 489.544c-4.159 4.159-10.383 5.553-15.871 3.439-8.405-3.237-26.748-15.499-26.748-15.499 15.72 15.72 28.95 22.869 37.354 26.106 5.488 2.114 11.712.719 15.871-3.439l75.153-75.153v-10.607h-10.607z" fill="#8a94db"/><path d="m487.544 40.861-13.619-33.044c-1.217.321-2.385.957-3.379 1.951l-31.112 31.112v31.82h10.607l35.569-24.57c1.901-1.901 2.639-4.674 1.934-7.269z" fill="#bfc5eb"/><path d="m492.151 46.467-9.064-33.362c-1.142-4.203-5.394-6.281-9.162-5.288l7.619 28.044c.705 2.595-.033 5.368-1.934 7.27l-29.569 29.569h21.213l18.962-18.962c1.902-1.902 2.64-4.676 1.935-7.271z" fill="#8a94db"/><path d="m465.912 77.417c2.679-2.956.752-9.308-5.263-15.323l-21.215-21.214c-2.821-2.821-7.368-2.943-10.324-.264-26.731 24.226-41.689 24.019-63.566 41.746v58.62h58.62c17.729-21.876 17.521-36.834 41.748-63.565z" fill="#bcd1e1"/><path d="m471.254 72.699-10.606-10.606c2.82 2.821 2.942 7.367.263 10.323-24.227 26.731-24.019 41.689-41.746 63.566l-53.62-53.62c-3.51 2.844-7.192 6.134-11.136 10.078v65.285h65.285c28.524-28.524 23.71-43.681 51.824-74.701 2.68-2.957 2.557-7.503-.264-10.325z" fill="#87a0af"/><path d="m343.803 92.44-256.667 256.666 65.285 65.285 134.735-128.333 124.932-125.333c2.929-2.929-.071-10.677-3-13.606l-54.679-54.679c-2.929-2.929-7.677-2.929-10.606 0z" fill="#f5fcff"/><path d="m419.694 157.725-10.606-10.606c2.928 2.929 2.928 7.677 0 10.606l-256.667 256.666 10.607 10.607 256.666-256.666c2.929-2.93 2.929-7.679 0-10.607z" fill="#dce7ef"/></g><g><path d="m77.261 512.066c-2.678 0-5.372-.483-7.953-1.477-9.024-3.476-23.282-11.121-39.962-27.801s-24.325-30.938-27.801-39.962c-3.165-8.217-1.149-17.586 5.135-23.87l238.78-238.781-82.432-82.433c-.01.01-.02.02-.029.029l-65.256 65.256 65.736 65.736c2.929 2.929 2.929 7.678 0 10.606-2.929 2.929-7.678 2.929-10.606 0l-65.736-65.736c-3.956-3.956-5.236-9.59-3.84-14.632-12.966-14.261-19.351-28.505-25.544-42.32-6.353-14.17-12.354-27.555-25.251-41.787-3.637-4.013-4.707-9.471-3.26-14.335-4.554-5.505-11.201-14.381-16.567-22.495-12.976-19.612-15.592-29.111-9.657-35.046 5.936-5.935 15.434-3.319 35.047 9.654 8.114 5.367 16.989 12.014 22.495 16.567 4.864-1.446 10.321-.377 14.335 3.26 14.231 12.898 27.616 18.898 41.787 25.251 13.815 6.193 28.06 12.579 42.32 25.544 5.044-1.396 10.677-.116 14.632 3.84l82.433 82.432 82.432-82.432c3.945-3.944 9.557-5.226 14.587-3.853 13.67-12.796 24.705-18.562 35.399-24.15 10.479-5.475 21.312-11.136 35.59-24.075 3.906-3.54 9.182-4.648 13.944-3.371l27.223-27.223c3.828-3.827 9.235-5.281 14.465-3.889 5.229 1.392 9.198 5.34 10.617 10.562l9.064 33.363c1.407 5.176-.076 10.748-3.869 14.54l-15.073 15.073c1.277 4.764.17 10.04-3.371 13.946-12.938 14.277-18.6 25.111-24.075 35.589-5.587 10.693-11.351 21.724-24.142 35.391.352 1.283.533 2.621.533 3.987 0 4.007-1.561 7.774-4.395 10.607l-18.088 18.089c-2.929 2.927-7.678 2.93-10.606 0-2.93-2.929-2.93-7.677-.001-10.606l18.089-18.09-65.284-65.285-331.82 331.82c-2.094 2.095-2.779 5.185-1.744 7.873 2.954 7.67 9.587 19.924 24.41 34.747s27.077 21.456 34.747 24.41c2.688 1.035 5.778.35 7.872-1.744l69.85-69.85-48.482-48.482c-2.929-2.929-2.929-7.678 0-10.606 2.929-2.929 7.678-2.929 10.606 0l48.482 48.482 212.273-212.273c2.93-2.929 7.678-2.929 10.607 0s2.929 7.678 0 10.606l-43.344 43.343 162.89 162.889c6.284 6.284 8.3 15.654 5.135 23.871-3.477 9.023-11.121 23.281-27.801 39.961-16.681 16.68-30.938 24.325-39.962 27.801-8.219 3.165-17.586 1.149-23.87-5.134l-26.728-26.728c-2.929-2.929-2.929-7.678 0-10.606 2.931-2.929 7.679-2.929 10.607 0l26.727 26.727c2.093 2.094 5.183 2.781 7.872 1.744 7.67-2.954 19.924-9.587 34.746-24.41s21.456-27.077 24.41-34.747c1.035-2.688.352-5.777-1.743-7.872l-69.851-69.851-65.284 65.285 22.123 22.123c2.929 2.929 2.929 7.678 0 10.606-2.931 2.929-7.679 2.928-10.607 0l-115.16-115.159-162.889 162.889c-4.31 4.31-10.072 6.612-15.917 6.612zm189.412-180.107 82.433 82.433 65.285-65.285-82.433-82.432zm98.473-239.389 54.418 54.418c10.242-11.34 15.067-20.574 20.142-30.286 5.912-11.315 12.025-23.016 26.255-38.716l-31.83-31.804c-15.684 14.219-27.384 20.333-38.698 26.245-9.712 5.075-18.946 9.9-30.287 20.143zm-321.521-27.733c14.487 15.98 21.262 31.093 27.814 45.708 5.634 12.568 10.998 24.532 21.196 36.377l54.287-54.287c-11.845-10.199-23.809-15.562-36.377-21.196-14.611-6.55-29.72-13.324-45.71-27.812-.124.124-.251.243-.382.356zm406.416-23.958 21.214 21.213 13.658-13.659-9.063-33.362zm-432.081-22.919c4.746 8.913 14.287 22.44 20.761 30.567l9.806-9.806c-8.127-6.473-21.654-16.015-30.567-20.761zm199.466 317.713c-1.919 0-3.839-.732-5.303-2.197-2.929-2.929-2.929-7.678 0-10.606l120.29-120.29c2.929-2.928 7.677-2.93 10.607 0 2.929 2.929 2.929 7.678 0 10.606l-120.291 120.29c-1.464 1.464-3.383 2.197-5.303 2.197z"/></g></g></svg>