<svg id="Capa_1" enable-background="new 0 0 512 512" height="512" viewBox="0 0 512 512" width="512" xmlns="http://www.w3.org/2000/svg"><g><g><path d="m38.608 194.461c-.717 2.137-1.108 4.462-1.108 6.993v16l60.653-9.859s0-11.906 0-15.538c0-2.743-.659-5.137-1.839-7.194-23.019 3.353-42.877 6.761-57.706 9.598z" fill="#7bd0e0"/><path d="m66.826 176.239c-13.578 2.137-24.767 7.939-28.218 18.222l57.706-9.598c-4.469-7.79-16.514-10.665-29.488-8.624z" fill="#b2e5fb"/><path d="m246 147.36h60v43.755h-60z" fill="#607882"/><path d="m488.446 461.237c4.448 0 8.054-3.715 8.054-8.297l-7-241.233c-34.874-8.169-112.163-27.47-213.5-27.47-49.456 0-102.101 4.597-147.38 10.254l-15 1.946c-43.727 5.883-78.805 12.435-94.505 16.058-6.803 1.57-11.615 7.631-11.615 14.613v227.128z" fill="#87a0af"/><path d="m492.886 212.495c-1.079-.249-2.21-.513-3.386-.788v234.233c0 4.582-3.606 8.297-8.054 8.297h-152.186c45.895-14.184 79.24-56.947 79.24-107.5 0-62.132-50.368-112.5-112.5-112.5s-112.5 50.368-112.5 112.5c0 50.553 33.345 93.316 79.24 107.5h-134.12v-259.745c-5.099.637-10.103 1.288-15 1.946v257.798h-106.12c0 8.284 6.716 15 15 15h91.12l7.5-7.5 7.5 7.5h360.88c8.284 0 15-6.716 15-15v-227.127c0-6.983-4.81-13.043-11.614-14.614z" fill="#607882"/><path d="m113.62 454.237h15v15h-15z" fill="#4e5a61"/><circle cx="276" cy="326.737" fill="#f5fcff" r="112.5"/><path d="m351.003 322.234c0-19.567-6.435-39.461-23.489-56.514-14-11.55-31.947-18.489-51.514-18.489-44.737 0-81.003 36.266-81.003 81.003 0 19.567 6.938 37.514 18.489 51.514 15.317 15.317 36.947 23.489 56.514 23.489 44.737 0 81.003-36.266 81.003-81.003z" fill="#bfc5eb"/><path d="m327.514 265.72c11.55 14 18.489 31.947 18.489 51.514 0 44.737-36.266 81.003-81.003 81.003-19.567 0-37.514-6.938-51.514-18.489 14.857 18.009 37.345 29.489 62.514 29.489 44.737 0 81.003-36.266 81.003-81.003 0-25.169-11.48-47.657-29.489-62.514z" fill="#8a94db"/><circle cx="459.5" cy="424.237" fill="#b2e5fb" r="15"/><path d="m360.042 139.605c3.535-.677 6.083-3.766 6.083-7.366l-7-82.54c-15.791-3.046-46.221-6.936-83.125-6.936-40.454 0-73.137 4.676-87.275 7.788-6.342 1.396-10.85 7.02-10.85 13.514v64.725c4.961 11.108 43.438 17.446 98.125 17.446 41.77.001 73.476-4.608 84.042-6.631z" fill="#f5fcff"/><path d="m363.275 50.551c-1.24-.273-2.631-.559-4.15-.851v76.54c0 3.599-2.548 6.689-6.083 7.366-10.566 2.023-35.272 5.632-77.042 5.632-54.687 0-88.346-7.817-98.125-10.446v4.144c0 6.494 4.508 12.118 10.85 13.514 14.138 3.112 36.454 7.788 87.275 7.788s73.137-4.676 87.275-7.788c6.342-1.396 10.85-7.02 10.85-13.514v-68.871c0-6.494-4.507-12.118-10.85-13.514z" fill="#dce7ef"/></g><g><path d="m489.5 476.737h-467c-12.406 0-22.5-10.093-22.5-22.5v-227.128c0-10.538 7.166-19.553 17.428-21.921 3.542-.818 7.757-1.724 12.572-2.697v-1.037c0-16.915 13.331-29.11 35.66-32.623 13.265-2.086 25.062.303 32.374 6.556 4.454 3.808 7.031 8.816 7.529 14.58 39.781-5.505 86.911-10.515 132.937-12.418v-16.821c-27.121-1.612-41.625-4.805-51.388-6.954-9.698-2.135-16.737-10.899-16.737-20.839v-68.87c0-9.94 7.039-18.704 16.737-20.839 16.688-3.673 49.981-7.963 88.888-7.963 4.143 0 7.5 3.358 7.5 7.5s-3.357 7.5-7.5 7.5c-40.321 0-72.818 4.785-85.663 7.613-2.922.643-4.962 3.188-4.962 6.189v68.87c0 3.001 2.04 5.546 4.962 6.189 12.935 2.847 34.583 7.613 85.663 7.613s72.729-4.766 85.663-7.613c2.922-.643 4.962-3.188 4.962-6.189v-68.87c0-3.001-2.04-5.546-4.962-6.189-10.826-2.383-31.51-5.429-57.09-6.83-4.136-.227-7.305-3.763-7.078-7.899s3.765-7.312 7.898-7.079c26.477 1.45 48.093 4.649 59.494 7.158 9.698 2.135 16.737 10.899 16.737 20.839v68.87c0 9.94-7.039 18.704-16.737 20.839-9.763 2.149-24.267 5.342-51.388 6.954v16.881c79.662 3.693 141.189 18.191 172.928 25.671 2.965.699 5.683 1.339 8.145 1.907 10.262 2.369 17.428 11.383 17.428 21.922v66.535c0 4.142-3.357 7.5-7.5 7.5s-7.5-3.358-7.5-7.5v-66.535c0-3.513-2.386-6.517-5.801-7.305-2.482-.573-5.223-1.219-8.212-1.923-36.008-8.486-110.935-26.143-206.987-26.143-46.113 0-95.896 4.104-139.88 9.387v195.459c0 4.142-3.357 7.5-7.5 7.5s-7.5-3.358-7.5-7.5v-193.586c-44.723 5.803-81.831 12.539-100.319 16.806-3.415.788-5.801 3.792-5.801 7.305v227.128c0 4.136 3.364 7.5 7.5 7.5h98.62v-33.154c0-4.142 3.357-7.5 7.5-7.5s7.5 3.358 7.5 7.5v33.154h353.38c4.136 0 7.5-3.364 7.5-7.5v-130.594c0-4.142 3.357-7.5 7.5-7.5s7.5 3.358 7.5 7.5v130.594c0 12.407-10.094 22.5-22.5 22.5zm-414.831-293.623c-2.139 0-4.387.174-6.677.535-8.139 1.281-21.505 5.04-22.877 15.94 12.898-2.364 28.346-4.942 45.537-7.487v-.044c0-2.245-.729-3.871-2.365-5.269-2.78-2.378-7.79-3.675-13.618-3.675zm201.331-6.377c7.635 0 15.139.109 22.5.315v-15.65c-6.824.215-14.299.335-22.5.335s-15.676-.121-22.5-.335v15.639c7.57-.199 15.08-.304 22.5-.304zm183.5 270c-12.406 0-22.5-10.093-22.5-22.5s10.094-22.5 22.5-22.5 22.5 10.093 22.5 22.5-10.094 22.5-22.5 22.5zm0-30c-4.136 0-7.5 3.364-7.5 7.5s3.364 7.5 7.5 7.5 7.5-3.364 7.5-7.5-3.364-7.5-7.5-7.5zm-183.5 30c-66.168 0-120-53.832-120-120 0-28.762 10.332-56.582 29.094-78.336 2.705-3.138 7.441-3.485 10.578-.781 3.137 2.706 3.486 7.441.781 10.578-16.414 19.031-25.453 43.373-25.453 68.539 0 57.897 47.103 105 105 105s105-47.103 105-105-47.103-105-105-105c-21.119 0-41.479 6.241-58.879 18.048-3.425 2.325-8.092 1.433-10.417-1.995-2.326-3.428-1.433-8.092 1.995-10.417 19.895-13.5 43.167-20.636 67.301-20.636 66.168 0 120 53.832 120 120s-53.832 120-120 120zm0-30c-48.801 0-88.503-39.702-88.503-88.503s39.702-88.503 88.503-88.503 88.503 39.702 88.503 88.503-39.702 88.503-88.503 88.503zm0-162.006c-40.529 0-73.503 32.973-73.503 73.503s32.974 73.503 73.503 73.503 73.503-32.973 73.503-73.503-32.974-73.503-73.503-73.503z"/></g></g></svg>