<svg id="Capa_1" enable-background="new 0 0 512 512" height="512" viewBox="0 0 512 512" width="512" xmlns="http://www.w3.org/2000/svg"><g><g><path d="m414.5 7.5h-317c-8.25 0-15 6.75-15 15v467l339.833 8z" fill="#dc8995"/><path d="m429.5 15c0-4.125-3.375-7.5-7.5-7.5h-7.5v482h-332c0 8.25 6.75 15 15 15h123.547l201.287-7 7.167-187.162v-295.338z" fill="#cd5668"/><path d="m345.229 152.355c-61.593-18.37-141.642-3.931-168.635 45.897-12.626 23.306-11.94 57.539-7.333 107.192h111.232v62.964l17.016 33.999c-21.348 21.117-48.604 57.389-67.385 87.093l192.208 8-7.832-217.132-60.248-120.378c-1.837-3.671-5.088-6.462-9.023-7.635z" fill="#ffe07d"/><path d="m414.5 280.368v205.632c0 1.925-1.575 3.5-3.5 3.5h-180.875c-3.315 5.243-6.371 10.286-9.078 15h200.953c4.125 0 7.5-3.375 7.5-7.5v-186.662z" fill="#ffc250"/><path d="m302.387 338.445v-17l-21.894-16.002 21.894-46.681v-5.099c0-5.518-5.758-9.147-10.736-6.766l-122.389 58.545c.226 2.431.458 4.887.701 7.393.418 4.304 4.98 6.884 8.883 5.023l25.093-11.968 69.955 49.328 6.6 13.188 6.897-3.983c9.28-5.358 14.996-15.261 14.996-25.978z" fill="#ffc250"/><path d="m359.251 117.417c-26.439-12.658-64.072-19.917-103.251-19.917s-76.812 7.259-103.251 19.917l-19.432-40.588c33.878-16.219 78.28-24.329 122.683-24.329s88.805 8.11 122.683 24.329z" fill="#f5fcff"/><path d="m295.327 320.493-7.94-54.549-83.449 39.948 12.638 59.737c.381 1.803 1.064 3.441 1.974 4.889l65.042-29.698c7.262-4.194 11.735-11.942 11.735-20.327z" fill="#d8ab8c"/><path d="m287.387 265.944v55.177c0 5.967-3.183 11.481-8.35 14.465l-60.487 34.933c4.123 6.564 12.968 9.173 20.203 4.995l48.637-28.09c9.28-5.36 14.996-15.262 14.996-25.979v-62.682z" fill="#c7865b"/><path d="m247.653 214.557c6.848 11.355 5.167 27.792-4.734 37.693s-26.338 11.582-37.693 4.734c0 0 3.764-13.231 16.48-25.947s25.947-16.48 25.947-16.48z" fill="#7bd0e0"/></g><g><path d="m422 512h-324.5c-12.406 0-22.5-10.093-22.5-22.5v-234.943c0-4.142 3.357-7.5 7.5-7.5s7.5 3.358 7.5 7.5v234.943c0 4.136 3.364 7.5 7.5 7.5h119.236c6.248-10.578 13.996-22.527 22.545-34.76 2.372-3.395 7.049-4.225 10.443-1.852 3.396 2.373 4.225 7.048 1.852 10.444-6.327 9.055-12.194 17.933-17.303 26.168h187.727v-69.748c0-4.142 3.357-7.5 7.5-7.5s7.5 3.358 7.5 7.5v69.748c0 8.271-6.729 15-15 15zm-159.629-61.143c-1.59 0-3.191-.503-4.552-1.544-3.29-2.517-3.916-7.225-1.398-10.514 11.413-14.916 22.377-27.882 31.979-37.837l-17.649-35.266-28.245 16.312c-6.314 3.646-13.755 4.035-20.414 1.066-6.658-2.968-11.343-8.761-12.852-15.894l-10.672-50.442-16.485 7.886c-4.044 1.93-8.78 1.766-12.675-.436-3.894-2.201-6.477-6.174-6.909-10.628-5.736-59.073-6.151-93.679 7.502-118.882 13.578-25.063 40.629-43.616 76.169-52.238 32.263-7.828 69.149-6.833 101.204 2.727 5.861 1.748 10.813 5.927 13.586 11.464l61.04 121.964v-263.595h-324.5c-4.136 0-7.5 3.364-7.5 7.5v202.057c0 4.142-3.357 7.5-7.5 7.5s-7.5-3.358-7.5-7.5v-202.057c0-12.407 10.094-22.5 22.5-22.5h324.5c8.271 0 15 6.729 15 15v382.252c0 4.142-3.357 7.5-7.5 7.5s-7.5-3.358-7.5-7.5v-85.143l-74.455-148.763c-.925-1.849-2.551-3.235-4.459-3.805-29.587-8.824-63.623-9.744-93.38-2.524-31.363 7.609-54.986 23.522-66.517 44.806-11.612 21.435-11.097 54.741-5.936 108.483l121.897-58.31c2.323-1.111 5.056-.953 7.235.42 2.179 1.374 3.501 3.769 3.501 6.345v62.682c0 13.353-7.184 25.795-18.746 32.473l-7.38 4.262 20.455 40.869c1.452 2.901.874 6.407-1.433 8.689-9.985 9.878-21.898 23.771-34.451 40.175-1.475 1.933-3.704 2.946-5.96 2.946zm-49.88-140.778 11.424 53.998c.503 2.377 2.063 4.309 4.283 5.298 2.222.99 4.701.86 6.805-.355l48.637-28.09c6.938-4.007 11.248-11.473 11.248-19.484v-50.781zm8.21-41.438c-6.761 0-13.5-1.708-19.347-5.235-2.898-1.748-4.267-5.219-3.341-8.474.176-.617 4.456-15.265 18.391-29.199 13.933-13.933 28.58-18.214 29.197-18.39 3.251-.925 6.727.443 8.475 3.341 8.796 14.586 6.28 34.736-5.853 46.869-7.27 7.27-17.418 11.087-27.522 11.088zm-5.711-15.67c7.836 1.929 16.869-.269 22.627-6.024 5.755-5.755 7.952-14.79 6.024-22.625-4.39 2.193-10.591 5.978-16.631 12.019h-.001c-6.042 6.042-9.826 12.241-12.019 16.63zm144.261-128.054c-1.11 0-2.218-.247-3.238-.735-25.463-12.191-61.916-19.182-100.013-19.182s-74.55 6.991-100.013 19.182c-1.795.858-3.856.969-5.731.309-1.876-.661-3.413-2.041-4.271-3.834l-19.432-40.588c-1.789-3.736-.21-8.215 3.526-10.003 33.76-16.165 78.48-25.066 125.921-25.066 4.143 0 7.5 3.358 7.5 7.5s-3.357 7.5-7.5 7.5c-42.075 0-81.708 7.247-112.611 20.497l12.97 27.091c26.834-11.225 62.625-17.588 99.641-17.588s72.807 6.363 99.642 17.588l12.969-27.09c-22.827-9.779-50.646-16.348-81.004-19.086-4.125-.372-7.168-4.018-6.796-8.144.372-4.125 4.005-7.169 8.144-6.796 35.219 3.177 67.366 11.335 92.967 23.592 3.736 1.789 5.315 6.267 3.526 10.003l-19.432 40.588c-.858 1.794-2.396 3.173-4.271 3.834-.809.286-1.652.428-2.494.428z"/></g></g></svg>