<svg id="Capa_1" enable-background="new 0 0 512.001 512.001" height="512" viewBox="0 0 512.001 512.001" width="512" xmlns="http://www.w3.org/2000/svg"><g><g><path d="m421.867 490.001-7-60.5c-60.514 0-284.427 0-302.732 0-21.183 0-30 4.415-30 45 0 5.491 1.089 10.603 2.985 15l329.248 8c4.141 0 7.499-3.357 7.499-7.5z" fill="#f5fcff"/><path d="m414.867 429.501v52.5c0 4.142-3.358 7.5-7.5 7.5h-322.248c3.883 9.008 11.165 15 19.515 15h310.232c8.284 0 15-6.716 15-15v-60c.001 0-5.484 0-14.999 0z" fill="#dce7ef"/><path d="m329.515 7.501h-224.88c-12.427 0-22.5 13.259-22.5 30v403.71s17.13-4.71 30-4.71c30.419 0 309.732 1 309.732 1z" fill="#607882"/><path d="m320.314 298.291-13.143-30.094-25.892 9.022c-5.864 2.043-11.992-2.31-11.992-8.521l.001-16.685 28.697-98.894 123.882-74.98v220.151h-101.553z" fill="#bfc5eb"/><path d="m269.288 252.014c14.119-16.746 30.349-38.94 48.697-68.894l96.882-57.535v132.53l15-24.883v-116.555l-8-47.445h-152.579z" fill="#8a94db"/><path d="m429.867 69.231-15 8.908v47.446l15-8.908z" fill="#5766cc"/><ellipse cx="189.11" cy="344.937" fill="#bcd1e1" rx="41.749" ry="71.809" transform="matrix(.932 -.363 .363 .932 -112.311 92.174)"/><path d="m204.466 243.265c-4.358 7.051 4.238 14.904 10.879 9.946 24.897-18.588 54.08-48.92 91.773-111.084l-63.424 37.665z" fill="#c7865b"/><path d="m308.149 375.515-43.437 25.796 27.701 28.19 129.454 7-7-194.362-150.155 89.172z" fill="#d8ab8c"/><path d="m104.635 429.501c-12.87 0-17.948 5.082-22.5 11.71v33.29c0-16.741 10.073-30 22.5-30h202.518v-15z" fill="#4e5a61"/><path d="m414.867 242.139v179.862c0 4.142-3.358 7.5-7.5 7.5h-114.954l14.74 15h107.714c8.284 0 15-6.716 15-15v-196.27z" fill="#c7865b"/><path d="m226.712 80.914c-3.196 11.184 16.981 98.878 16.981 98.878l63.424-37.665 114.749-104.41-7-30.216h-85.352c-51.137 24.731-99.605 62.229-102.802 73.413z" fill="#d8ab8c"/><path d="m429.867 32.424v-9.923c0-8.284-6.716-15-15-15v30.216z" fill="#c7865b"/><path d="m307.118 142.127 107.749-63.988v-40.421c-36.782 15.209-73.082 47.237-107.749 104.409z" fill="#c7865b"/><path d="m414.867 78.139 15-8.908v-36.807c-5.007 1.465-10.008 3.229-15 5.293z" fill="#b36d3c"/></g><g><path d="m414.867 512.001h-134.969c-4.143 0-7.5-3.358-7.5-7.5s3.357-7.5 7.5-7.5h134.969c4.136 0 7.5-3.364 7.5-7.5v-38.785c-2.347.832-4.872 1.285-7.5 1.285h-310.232c-8.131 0-15 10.304-15 22.5s6.869 22.5 15 22.5h145.264c4.143 0 7.5 3.358 7.5 7.5s-3.357 7.5-7.5 7.5h-145.264c-16.822 0-30-16.472-30-37.5v-171.754c0-4.142 3.357-7.5 7.5-7.5s7.5 3.358 7.5 7.5v139.122c4.388-3.105 9.5-4.867 15-4.867v-399.5c0-4.142 3.357-7.5 7.5-7.5s7.5 3.358 7.5 7.5v399.5h97.292l-6.332-16.252c-11.173 1.583-23.422-2.508-35.234-11.917-13.29-10.588-24.704-26.931-32.14-46.019-16.144-41.438-8.632-81.75 17.101-91.776 12.987-5.059 28.091-1.505 42.538 10.004 13.29 10.588 24.704 26.931 32.14 46.018 7.437 19.088 10.086 38.845 7.46 55.633-2.333 14.919-8.588 26.22-17.888 32.611l8.453 21.697h56.244l-29.906-30.434c-1.614-1.644-2.385-3.938-2.088-6.223s1.627-4.306 3.607-5.483l35.215-20.912-36.734-37.382c-1.614-1.644-2.385-3.938-2.088-6.223s1.627-4.306 3.608-5.483l49.908-29.639-7.712-17.659-19.332 6.737c-5.043 1.757-10.654.959-15.007-2.134-4.354-3.093-6.953-8.129-6.953-13.47v-49.433c-17.369 20.29-31.334 32.025-41.955 39.956-5.863 4.377-13.726 3.988-19.123-.953-5.388-4.935-6.467-12.726-2.623-18.945l37.613-60.86c-1.543-6.83-5.438-24.307-9.05-42.449-9.645-48.423-7.958-54.324-7.147-57.159 2.711-9.486 21.182-24.603 36.199-35.614 13.358-9.794 28.444-19.533 43.634-28.238h-194.7c-8.131 0-15 10.304-15 22.5v235.245c0 4.142-3.357 7.5-7.5 7.5s-7.5-3.358-7.5-7.5v-235.245c0-21.028 13.178-37.5 30-37.5h224.715c.108-.002.215-.002.321 0h40.574c4.143 0 7.5 3.358 7.5 7.5s-3.357 7.5-7.5 7.5h-39.002c-21.97 10.753-45.878 25.174-65.85 39.733-20.679 15.075-30.206 25.238-31.457 28.227-1.172 6.978 6.267 46.91 14.793 85.118l52.954-31.448c35.939-58.75 75.462-94.688 120.684-109.72v-4.41c0-4.136-3.364-7.5-7.5-7.5h-14.622c-4.143 0-7.5-3.358-7.5-7.5s3.357-7.5 7.5-7.5h14.622c12.406 0 22.5 10.093 22.5 22.5v467c0 12.407-10.094 22.5-22.5 22.5zm-104.569-75h104.569c4.136 0 7.5-3.364 7.5-7.5v-183.093l-48.292 28.68c-3.561 2.113-8.164.943-10.278-2.619-2.115-3.562-.942-8.163 2.618-10.278l55.952-33.228v-146.555l-109.812 65.213c-13.018 21.361-24.935 38.742-35.769 53.002v68.075c0 .65.349 1.034.642 1.242.293.209.769.411 1.383.197l25.893-9.022c3.702-1.29 7.772.49 9.341 4.081l9.744 22.31 17.485-10.384c3.559-2.113 8.163-.943 10.277 2.619 2.115 3.562.942 8.163-2.619 10.278l-72.168 42.857 36.734 37.382c1.614 1.644 2.385 3.938 2.088 6.223s-1.627 4.306-3.608 5.483l-35.214 20.912zm-144.532-151.987c-17.299 6.74-21.223 39.874-8.569 72.354 6.489 16.658 16.259 30.768 27.51 39.731 10.095 8.042 19.95 10.797 27.746 7.76 7.799-3.038 13.191-11.733 15.186-24.484 2.223-14.211-.127-31.212-6.616-47.87s-16.259-30.768-27.51-39.731c-10.096-8.043-19.95-10.796-27.747-7.76zm45.078-37.805c.005-.002.009-.005.013-.008 16.047-11.98 40.199-33.226 73.12-82.608l-34.872 20.709-38.26 61.906s-.001.001-.001.001zm211.523-204.396c-33.058 12.305-63.07 37.405-91.04 76.214l91.04-54.065z"/></g></g></svg>