<svg id="Capa_1" enable-background="new 0 0 512 512" height="512" viewBox="0 0 512 512" width="512" xmlns="http://www.w3.org/2000/svg"><g><g><path d="m421.866 490-7-60.5c-60.514 0-284.427 0-302.732 0-21.183 0-30 4.415-30 45 0 5.491 1.089 10.603 2.985 15l329.248 8c4.141 0 7.499-3.358 7.499-7.5z" fill="#f5fcff"/><path d="m414.866 429.5v52.5c0 4.142-3.358 7.5-7.5 7.5h-322.248c3.883 9.008 11.165 15 19.515 15h310.232c8.284 0 15-6.716 15-15v-60c.001 0-5.483 0-14.999 0z" fill="#dce7ef"/><path d="m414.866 7.5h-310.232c-12.427 0-22.5 13.259-22.5 30v403.71s17.13-4.71 30-4.71c30.419 0 309.732 1 309.732 1z" fill="#b2e5fb"/><path d="m429.866 140.588v-118.088c0-8.284-6.716-15-15-15v128.538z" fill="#7bd0e0"/><path d="m414.866 316.12v105.88c0 4.142-3.358 7.5-7.5 7.5h-302.732c-12.87 0-17.948 5.082-22.5 11.71v33.29c0-16.741 10.073-30 22.5-30h310.232c8.284 0 15-6.716 15-15l.001-123.302z" fill="#7bd0e0"/><path d="m422.366 224.355-7.5-88.312c-28.011-5.838-55.997 2.638-76.003 20.722-8.759-27.139-30.614-49.443-60.21-57.374-46.381-12.428-94.055 15.096-106.483 61.478-12.028 44.891 12.85 90.555 95.668 216.637 54.978-27.54 113.795-59.683 148.589-80.502z" fill="#dc8995"/><path d="m419.694 137.183c-1.608-.431-3.218-.805-4.828-1.14v161.892c-34.972 20.838-92.854 52.435-147.027 79.571 4.808 7.319 14.339 9.873 22.163 5.938 55.7-28.015 95.95-49.079 124.864-67.325l15-27.347v-148.184c-3.278-1.324-6.67-2.466-10.172-3.405z" fill="#cd5668"/><path d="m429.866 306.194v-17.422c-4.326 2.73-9.378 5.812-15 9.162v18.186c5.384-3.397 10.376-6.697 15-9.926z" fill="#ae3244"/><path d="m271.646 202.563c-12.741-20.955-23.853-32.051-23.853-32.051l-16.741 28.996c8.112 9.502 22.271 13.118 40.594 3.055z" fill="#f5fcff"/><path d="m231.052 199.507-7.726 13.382s22.325 6.008 56.615 4.435c-2.779-5.366-5.574-10.284-8.296-14.761-18.298.23-32.461-1.614-40.593-3.056z" fill="#dce7ef"/></g><g><path d="m414.866 512h-226.02c-4.142 0-7.5-3.357-7.5-7.5s3.358-7.5 7.5-7.5h226.02c4.136 0 7.5-3.364 7.5-7.5v-38.785c-2.347.832-4.872 1.285-7.5 1.285h-310.232c-8.131 0-15 10.304-15 22.5s6.869 22.5 15 22.5h54.213c4.142 0 7.5 3.357 7.5 7.5s-3.358 7.5-7.5 7.5h-54.213c-16.822 0-30-16.472-30-37.5v-121.658c0-4.143 3.358-7.5 7.5-7.5s7.5 3.357 7.5 7.5v89.025c4.388-3.105 9.5-4.867 15-4.867v-312.229l-15-8.66v206.731c0 4.143-3.358 7.5-7.5 7.5s-7.5-3.357-7.5-7.5v-285.342c0-21.028 13.178-37.5 30-37.5h209.913c4.142 0 7.5 3.357 7.5 7.5s-3.358 7.5-7.5 7.5h-209.913c-8.131 0-15 10.304-15 22.5v61.29l15 8.66v-69.95c0-4.143 3.358-7.5 7.5-7.5s7.5 3.357 7.5 7.5v78.61l113.18 65.345 8.483-14.693c1.165-2.018 3.202-3.38 5.512-3.686 2.311-.301 4.631.48 6.28 2.127.702.7 17.377 17.512 33.512 48.673 1.176 2.271 1.114 4.983-.165 7.198-1.278 2.215-3.597 3.625-6.151 3.742-35.051 1.61-57.951-4.427-58.908-4.685-2.25-.605-4.091-2.223-4.982-4.376s-.729-4.598.436-6.616l8.484-14.694-46.97-27.118c-8.181 39.732 15.653 84.103 95.764 206.062 2.718 4.137 8.101 5.578 12.524 3.355 18.356-9.232 32.974-16.672 46.001-23.413 3.677-1.906 8.204-.465 10.108 3.215 1.903 3.679.464 8.204-3.214 10.107-13.08 6.769-27.746 14.232-46.155 23.491-11.229 5.648-24.901 1.984-31.801-8.521-41.587-63.311-68.655-106.474-83.948-139.75-15.343-33.387-19.2-58.068-12.846-82.379l-45.143-26.063v303.569h295.232c4.136 0 7.5-3.364 7.5-7.5v-109.262c-14.844 9.55-33.383 20.221-57.292 32.999-3.653 1.953-8.197.573-10.149-3.079-1.953-3.653-.574-8.197 3.079-10.149 28.189-15.067 48.701-27.096 64.362-37.75v-156.447c-1.525-.508-3.068-.971-4.612-1.384-26.112-6.999-53.721-.305-73.861 17.9-1.887 1.707-4.513 2.341-6.97 1.681-2.458-.658-4.415-2.519-5.196-4.94-8.339-25.836-28.905-45.437-55.014-52.434-30.91-8.279-63.596 2.679-83.267 27.924-2.545 3.267-7.259 3.852-10.526 1.306-3.268-2.546-3.852-7.259-1.306-10.525 23.384-30.01 62.236-43.04 98.981-33.192 27.585 7.392 49.964 26.606 61.561 52.333 22.906-16.48 51.893-21.933 79.479-14.541.244.065.487.131.731.198v-107.638c0-4.136-3.364-7.5-7.5-7.5h-70.319c-4.142 0-7.5-3.357-7.5-7.5s3.358-7.5 7.5-7.5h70.319c12.407 0 22.5 10.094 22.5 22.5v467c-.001 12.406-10.094 22.5-22.501 22.5zm-179.806-304.435c7.332 1.165 18.472 2.442 32.335 2.516-6.995-11.971-13.669-20.976-18.346-26.745z"/></g></g></svg>