<svg id="Capa_1" enable-background="new 0 0 512 512" height="512" viewBox="0 0 512 512" width="512" xmlns="http://www.w3.org/2000/svg"><g><g><path d="m370.702 194.919c0-3.961-2.808-8.694-5.557-11.443-1.378-.418-2.839-.647-4.353-.647-8.284 0-15 6.716-15 15 0 1.515.229 2.975.647 4.353 3.206 3.206 7.482 5.557 11.443 5.557 7.08-.001 12.82-5.74 12.82-12.82z" fill="#f5fcff"/><path d="m365.145 183.475c.418 1.378.647 2.839.647 4.353 0 8.284-6.716 15-15 15-1.515 0-2.975-.229-4.353-.647 1.866 6.16 7.583 10.647 14.353 10.647 8.284 0 15-6.716 15-15 0-6.769-4.487-12.487-10.647-14.353z" fill="#dce7ef"/><path d="m410.702 254.919c0-3.961-2.808-8.694-5.557-11.443-1.378-.418-2.839-.647-4.353-.647-8.284 0-15 6.716-15 15 0 1.515.229 2.975.647 4.353 3.206 3.206 7.482 5.557 11.443 5.557 7.08-.001 12.82-5.74 12.82-12.82z" fill="#f5fcff"/><path d="m405.145 243.475c.418 1.378.647 2.839.647 4.353 0 8.284-6.716 15-15 15-1.515 0-2.975-.229-4.353-.647 1.866 6.16 7.583 10.647 14.353 10.647 8.284 0 15-6.716 15-15 0-6.769-4.487-12.487-10.647-14.353z" fill="#dce7ef"/><path d="m184.993 301.861c1.363-1.62 3.799-1.825 5.321-.354 5.836 5.64 17.991 8.207 21.33 5.781 3.338-2.425 4.654-14.78 1.093-22.072-.929-1.902.019-4.156 1.981-4.951 8.714-3.535 17.772-17.499 10.939-24.907-5.6-3.402-13.324-5.103-18.784-2.582 1.137-9.552-9.792-21.276-17.417-21.276s-18.554 11.725-17.417 21.276c-8.733-4.033-23.261 2.738-25.617 9.99s5.417 21.269 14.853 23.139c-4.08 4.408-4.852 12.267-3.354 18.64 4.938 8.811 21.013 4.516 27.072-2.684z" fill="#bfc5eb"/><path d="m232.489 262.766c-.883-2.718-3.477-5.369-6.833-7.408-.346 7.857-7.112 16.546-15.472 19.937-1.882.763-2.791 2.925-1.9 4.75 3.416 6.996 2.154 18.848-1.049 21.175s-14.865-.135-20.463-5.546c-1.46-1.411-3.797-1.214-5.105.339-5.812 6.907-16.167 10.639-23.748 8.532.901 3.832 2.622 7.127 4.939 8.811 6.169 4.482 21.902 1.42 26.597-6.976 4.725 8.394 20.506 11.454 26.597 6.976 6.143-4.517 8.119-20.392 1.584-27.45 9.436-1.871 17.209-15.888 14.853-23.14z" fill="#8a94db"/><path d="m211.993 114.861c1.363-1.62 3.799-1.825 5.321-.354 5.836 5.64 17.991 8.207 21.33 5.781 3.338-2.425 4.654-14.78 1.093-22.072-.929-1.902.019-4.156 1.981-4.951 8.714-3.535 17.772-17.499 10.939-24.907-5.6-3.402-13.324-5.103-18.784-2.582 1.137-9.552-9.792-21.276-17.417-21.276s-18.554 11.725-17.417 21.276c-8.733-4.033-23.261 2.738-25.617 9.99s5.417 21.269 14.853 23.139c-4.08 4.408-4.852 12.267-3.354 18.64 4.938 8.811 21.013 4.516 27.072-2.684z" fill="#bfc5eb"/><path d="m259.489 75.766c-.883-2.718-3.477-5.369-6.834-7.408-.346 7.857-7.112 16.546-15.472 19.937-1.882.763-2.791 2.925-1.9 4.75 3.416 6.996 2.154 18.848-1.049 21.175s-14.865-.135-20.463-5.546c-1.46-1.411-3.797-1.214-5.105.339-5.812 6.907-16.167 10.639-23.748 8.532.901 3.832 2.622 7.127 4.939 8.811 6.169 4.482 21.902 1.42 26.597-6.976 4.725 8.394 20.506 11.454 26.597 6.976 6.143-4.517 8.119-20.392 1.584-27.45 9.437-1.871 17.21-15.888 14.854-23.14z" fill="#8a94db"/><path d="m316.993 77.861c1.363-1.62 3.799-1.825 5.321-.354 5.836 5.64 17.991 8.207 21.33 5.781 3.338-2.425 4.654-14.78 1.093-22.072-.929-1.902.019-4.156 1.981-4.951 8.714-3.535 17.772-17.499 10.939-24.907-5.6-3.402-13.324-5.103-18.784-2.582 1.136-9.551-9.793-21.276-17.418-21.276s-18.554 11.725-17.417 21.276c-8.733-4.033-23.261 2.738-25.617 9.99s5.417 21.269 14.853 23.139c-4.08 4.408-4.852 12.267-3.354 18.64 4.939 8.811 21.014 4.516 27.073-2.684z" fill="#bfc5eb"/><path d="m364.489 38.766c-.883-2.718-3.477-5.369-6.833-7.408-.346 7.857-7.112 16.546-15.472 19.937-1.882.763-2.791 2.925-1.9 4.75 3.416 6.996 2.154 18.848-1.049 21.175s-14.865-.135-20.463-5.546c-1.46-1.411-3.797-1.214-5.105.339-5.812 6.907-16.167 10.639-23.748 8.532.901 3.832 2.622 7.127 4.939 8.811 6.169 4.482 21.902 1.42 26.597-6.976 4.725 8.394 20.506 11.454 26.597 6.976 6.143-4.517 8.119-20.392 1.584-27.45 9.436-1.871 17.209-15.888 14.853-23.14z" fill="#8a94db"/><path d="m249.16 212.962c1.797-1.119 4.177-.561 5.17 1.308 3.807 7.167 14.575 13.365 18.499 12.09 3.925-1.275 8.993-12.618 7.86-20.654-.295-2.096 1.303-3.946 3.414-4.097 9.38-.669 22.31-11.15 18.1-20.307-4.274-4.966-11.095-8.971-17.067-8.26 4.033-8.733-2.738-23.261-9.99-25.617s-21.269 5.417-23.139 14.853c-7.059-6.534-22.969-4.584-27.45 1.585-4.482 6.169-1.42 21.902 6.976 26.596-5.243 2.931-8.405 10.167-8.95 16.691 1.974 9.904 18.59 10.787 26.577 5.812z" fill="#bfc5eb"/><path d="m306.413 190.458c0-2.858-1.647-6.18-4.21-9.157-2.757 7.366-11.877 13.539-20.876 14.18-2.025.144-3.558 1.92-3.275 3.93 1.087 7.71-3.776 18.592-7.541 19.815s-14.095-4.722-17.747-11.598c-.953-1.793-3.236-2.328-4.96-1.255-7.662 4.773-18.663 5.123-25.222.776-.328 3.923.291 7.589 1.975 9.906 4.482 6.169 20.392 8.119 27.45 1.584 1.9 9.444 15.963 17.23 23.139 14.853 7.238-2.398 14.023-16.885 9.99-25.617 9.552 1.137 21.277-9.792 21.277-17.417z" fill="#8a94db"/><path d="m156.355 160.079c2.013-3.486-.882-18.124-14.014-28.251-24.193-13.968-48.893-6.945-50.906-3.459 21.025 18.629 62.907 35.197 64.92 31.71z" fill="#b2e5fb"/><path d="m142.341 131.828c5.224 7.404 11.042 20.357 4.448 20.357-10.719 0-35.916-12.592-55.354-23.815-2.013 3.486 16.468 18.216 35.906 29.439 19.439 11.223 41.435 19.862 43.448 16.376s-4.255-28.389-28.448-42.357z" fill="#7bd0e0"/><path d="m79.123 210.637c3.408 4.282 16.377 7.3 42.162 7.3 18.507 0 32.077-5.108 36.904-11.928-7.912-5.99-20.714-12.18-36.904-12.18-20.512-.001-35.59 9.933-42.162 16.808z" fill="#b2e5fb"/><path d="m79.123 210.637c-2.379 2.488-3.653 4.58-3.653 5.65 0 4.026 23.369 7.542 45.815 7.542s45.815-3.516 45.815-7.542c0-1.693-3.171-5.932-8.911-10.277-8.845 2.464-23.047 4.593-36.904 5.362-13.29.737-30.407.454-42.162-.735z" fill="#7bd0e0"/><path d="m377.161 338.883c8.668-8.668 19.446-25.658 11.179-36.788-8.732-4.542-22.008-1.17-34.073 10.894-1.096 1.096-2.248 2.33-3.435 3.675 3.606-36.538-.163-67.797-14.381-72.762-11.674 0-21.138 12.699-21.138 32.535 0 7.196 1.246 17.309 3.391 27.277-2.24-5.649-4.631-10.76-6.874-14.645-9.918-17.179-24.464-23.444-34.574-17.607s-11.957 21.566-2.039 38.745c1.489 2.578 3.414 5.484 5.642 8.539-15.349-7.147-28.872-4.797-34.188 4.411-2.612 4.525-2.793 9.938-.664 15.426l121.733 7c0 .002 4.137-1.415 9.421-6.7z" fill="#b2e5fb"/><path d="m392.22 304.931c-1.155-1.155-2.46-2.096-3.88-2.835-.568 9.536-5.511 21.12-14.179 29.788-.938.938-1.976 1.916-3.099 2.923-2.732 2.448-6.28 3.779-9.948 3.779-16.142 0-65.408 0-115.107 0 2.628 6.776 8.781 13.668 18.272 19.147 6.333 3.656 15.917 7.705 25.789 10.854l56.792.002c13.368-6.313 29.131-17.534 37.301-25.705 14.027-14.027 16.314-29.699 8.059-37.953z" fill="#7bd0e0"/><path d="m336.511 312.203c-1.232 3.955.975 8.159 4.93 9.391s8.159-.975 9.391-4.93c4.156-13.339 6.757-29.828 6.757-40.226 0-19.837-9.464-32.535-21.138-32.535 3.415 3.856 7.138 13.097 7.138 29.535.001 10.398-2.922 25.426-7.078 38.765z" fill="#7bd0e0"/><path d="m334.015 496.5s94.515-34.629 94.515-78.245c0-10.451-7.932-27.724-22.462-35.512l-131.365-7.158-153.173 8s-15 16.144-15 34.67c0 10.898 5.01 21.215 12.787 30.675 34.754 28.973 89.728 47.571 89.728 47.571h124.97z" fill="#d8ab8c"/><path d="m421.53 383.585-15.462-.842c7.207 10.618 15.462 25.061 15.462 35.512 0 32.956-75.568 65.923-86.856 70.664-.917.385-1.901.581-2.895.581h-120.87c-.753 0-1.5-.113-2.219-.336-7.801-2.412-55.434-17.652-89.372-40.235 27.156 33.03 88.138 55.571 88.138 55.571h128.15s100.925-37.296 100.925-86.245c-.001-18.548-15.001-34.67-15.001-34.67z" fill="#c7865b"/><path d="m432.667 358.561c-2.746-3.048-6.711-4.977-11.137-4.977-4.263 0-295.737 0-300 0-8.284 0-15 6.716-15 15 49.226 0 310.116 7 314 7 8.509.001 16-6.999 12.137-17.023z" fill="#d8ab8c"/><path d="m432.667 358.561c-2.055 5.834-7.6 10.023-14.137 10.023-3.884 0-262.774 0-312 0 0 8.284 6.716 15 15 15h300c8.284 0 15-6.716 15-15 0-3.858-1.469-7.365-3.863-10.023z" fill="#c7865b"/></g><g><path d="m335.605 512h-128.15c-.888 0-1.768-.157-2.6-.465-1.059-.392-26.214-9.759-51.778-25.405-35.863-21.949-54.047-44.786-54.047-67.875 0-12.34 5.417-23.429 10.214-30.828-6.146-4.021-10.214-10.965-10.214-18.842 0-12.406 10.094-22.5 22.5-22.5h80.712c-5.614-9.046-10.721-18.196-15.269-27.364-2.689 1.51-5.76 2.669-9.098 3.403-7.664 1.682-14.745.7-19.426-2.701-4.681-3.399-7.805-9.829-8.571-17.639-.441-4.499-.03-8.784 1.15-12.551-3.169-2.353-6.02-5.576-8.307-9.475-3.971-6.77-5.223-13.808-3.435-19.31 1.788-5.503 6.938-10.461 14.131-13.604 2.997-1.31 6.026-2.159 8.967-2.545-.901-5.559-1.577-11.08-2.03-16.554-2.141.485-4.367.876-6.562 1.227-9.365 1.497-21.214 2.355-32.509 2.355s-23.144-.858-32.509-2.355c-10.066-1.609-20.807-4.049-20.807-12.687 0-8.429 13.229-17.348 15.88-19.05 7.752-4.977 20.539-10.908 37.436-10.908 16.682 0 30.443 6.09 38.814 11.825.385-5.633 1.021-11.18 1.909-16.628-2.978-.747-6.082-1.857-9.087-3.006-8.858-3.387-19.55-8.567-29.331-14.215-9.782-5.647-19.614-12.316-26.976-18.295-7.913-6.426-15.994-13.909-11.676-21.39 4.214-7.299 20.13-8.409 23.277-8.558 9.196-.435 23.239.822 37.874 9.271 12.241 7.067 19.917 16.292 24.572 23.911 2.893-7.533 6.348-14.755 10.36-21.617-2.204-3.432-3.655-7.855-4.145-12.843-.441-4.499-.03-8.784 1.15-12.551-3.169-2.353-6.02-5.576-8.307-9.475-3.971-6.77-5.223-13.808-3.435-19.31 1.279-3.94 5.518-6.095 9.45-4.815 3.939 1.28 6.096 5.511 4.815 9.45-.194.611-.047 3.439 2.142 7.143 1.973 3.338 4.8 5.879 7.036 6.322 2.665.527 4.835 2.455 5.675 5.039.84 2.583.217 5.418-1.629 7.412-1.548 1.673-2.343 5.391-1.977 9.251.406 4.282 1.949 6.656 2.466 7.037.522.373 3.256 1.109 7.455.171 3.784-.845 7.074-2.749 8.188-4.739 1.325-2.371 3.829-3.84 6.546-3.84s5.221 1.469 6.546 3.84c1.113 1.99 4.403 3.895 8.188 4.739 4.2.938 6.933.201 7.455-.171.517-.381 2.061-2.756 2.466-7.039.365-3.859-.429-7.576-1.977-9.248-1.846-1.994-2.47-4.829-1.63-7.413.839-2.584 3.01-4.512 5.675-5.039 2.236-.443 5.064-2.985 7.038-6.324 2.188-3.703 2.335-6.53 2.141-7.142-.202-.608-1.983-2.811-5.931-4.52-3.56-1.541-7.341-1.934-9.409-.979-2.467 1.143-5.355.855-7.553-.741-2.197-1.596-3.36-4.256-3.039-6.954.27-2.263-1.273-5.738-3.839-8.646-2.845-3.227-5.489-4.24-6.131-4.244-.642.004-3.287 1.019-6.133 4.245-2.564 2.907-4.106 6.381-3.837 8.645.49 4.112-2.447 7.844-6.561 8.334-4.112.488-7.844-2.447-8.334-6.561-.795-6.676 1.96-14.122 7.56-20.428 5.218-5.865 11.525-9.231 17.311-9.231 5.785 0 12.092 3.365 17.303 9.233 3.002 3.38 5.187 7.088 6.445 10.829 3.946.041 8.147.973 12.289 2.782 2.364 1.033 4.509 2.263 6.385 3.644 5.571-2.083 11.344-3.915 17.277-5.482-.498-.722-.977-1.472-1.432-2.247-3.971-6.77-5.223-13.808-3.435-19.31 1.788-5.503 6.938-10.461 14.131-13.604 4.142-1.81 8.342-2.741 12.288-2.782 1.259-3.74 3.442-7.447 6.443-10.827 5.213-5.87 11.52-9.236 17.306-9.236 5.785 0 12.092 3.365 17.303 9.233 3.002 3.38 5.187 7.088 6.445 10.829 3.946.041 8.147.973 12.289 2.782 7.192 3.143 12.342 8.101 14.13 13.604 1.788 5.502.536 12.541-3.435 19.31-2.287 3.899-5.139 7.123-8.308 9.476 1.181 3.767 1.593 8.05 1.151 12.548-.767 7.812-3.891 14.241-8.571 17.642-4.682 3.402-11.763 4.382-19.426 2.701-4.415-.971-8.362-2.687-11.579-4.973-3.217 2.286-7.164 4.002-11.579 4.973-7.664 1.682-14.745.7-19.426-2.701-4.681-3.399-7.805-9.829-8.571-17.639-.192-1.963-.223-3.886-.098-5.741-4.969 1.258-9.812 2.712-14.507 4.356.627 4.953-.796 10.748-4.087 16.358-2.287 3.899-5.139 7.123-8.308 9.476 1.181 3.767 1.593 8.05 1.151 12.548-.767 7.812-3.891 14.241-8.571 17.642-4.681 3.402-11.763 4.382-19.426 2.701-4.415-.971-8.362-2.687-11.579-4.973-3.217 2.286-7.164 4.002-11.579 4.973-3.957.868-7.761 1.028-11.156.509-15.384 26.55-21.616 59.271-18.111 94.206 4.412-3.752 9.291-5.839 13.847-5.839 5.785 0 12.092 3.365 17.303 9.233 3.002 3.38 5.187 7.088 6.445 10.829 3.946.041 8.147.973 12.289 2.782 7.192 3.143 12.342 8.101 14.13 13.604 1.788 5.502.536 12.541-3.435 19.31-2.287 3.899-5.139 7.123-8.308 9.476 1.181 3.767 1.593 8.05 1.151 12.548-.767 7.812-3.891 14.241-8.571 17.642-3.639 2.645-8.729 3.829-14.416 3.432 4.266 7.797 8.946 15.56 14.007 23.23h21.318c-5.184-8.97-5.832-18.641-1.192-26.677 4.94-8.557 14.121-12.812 25.099-12.344-7.529-17.749-4.495-34.748 8.231-42.097 10.614-6.13 23.678-3.059 34.455 7.065 1.425-20.894 12.967-35.63 28.49-35.63 11.79 0 21.829 8.753 26.201 22.843 1.228 3.956-.984 8.158-4.94 9.386-3.961 1.229-8.158-.985-9.386-4.94-2.352-7.579-6.902-12.288-11.875-12.288-7.775 0-13.639 10.763-13.639 25.035 0 6.713 1.205 16.32 3.223 25.7.82 3.813-1.42 7.62-5.153 8.754s-7.713-.785-9.15-4.412c-2.138-5.39-4.35-10.113-6.397-13.66-7.136-12.359-17.598-18.748-24.328-14.862-6.733 3.888-6.43 16.141.706 28.501 1.329 2.301 3.13 5.022 5.206 7.869 2.017 2.764 1.907 6.541-.266 9.184-2.172 2.643-5.856 3.481-8.959 2.035-11.018-5.13-21.104-4.568-24.527 1.361-2.963 5.132.069 12.683 7.553 19.177h108.207c3.963-3.028 7.373-5.947 9.932-8.505 10.092-10.092 13.557-21.849 8.059-27.346-5.497-5.5-17.255-2.032-27.346 8.059-.976.975-2.023 2.097-3.112 3.332-2.342 2.655-6.22 3.312-9.303 1.577-3.084-1.734-4.536-5.39-3.483-8.768 2.265-7.271 4.15-15.88 5.311-24.242.569-4.104 4.358-6.976 8.459-6.398 4.103.568 6.968 4.356 6.398 8.459-.227 1.636-.479 3.281-.756 4.928 12.819-6.622 25.919-6.072 34.438 2.446 11.237 11.237 8.604 30.444-6.048 46.458h30.055c12.406 0 22.5 10.094 22.5 22.5 0 7.871-4.063 14.812-10.202 18.834 4.808 7.402 10.202 18.467 10.202 30.836 0 23.089-18.185 45.926-54.047 67.875-25.564 15.646-50.72 25.014-51.778 25.405-.832.306-1.712.463-2.6.463zm-126.792-15h125.434c27.548-10.436 94.783-43.465 94.783-78.745 0-11.568-7.466-22.585-11.017-27.17h-188.095c-4.143 0-7.5-3.357-7.5-7.5s3.357-7.5 7.5-7.5h191.612c4.136 0 7.5-3.364 7.5-7.5s-3.364-7.5-7.5-7.5h-205.381c-.066.002-.137.002-.203 0h-94.416c-4.136 0-7.5 3.364-7.5 7.5s3.364 7.5 7.5 7.5h78.388c4.143 0 7.5 3.357 7.5 7.5s-3.357 7.5-7.5 7.5h-74.865c-3.51 4.548-11.022 15.632-11.022 27.17-.001 35.28 67.233 68.309 94.782 78.745zm-19.358-198.12c2.717 0 5.221 1.469 6.546 3.84 1.113 1.99 4.403 3.895 8.188 4.739 4.201.937 6.933.202 7.455-.171.517-.381 2.061-2.756 2.466-7.039.365-3.859-.429-7.576-1.977-9.248-1.846-1.994-2.47-4.829-1.63-7.413.839-2.584 3.01-4.512 5.675-5.039 2.236-.443 5.064-2.985 7.038-6.324 2.188-3.703 2.335-6.53 2.141-7.142-.202-.608-1.983-2.811-5.931-4.52-3.56-1.541-7.34-1.934-9.409-.979-2.467 1.142-5.355.854-7.553-.741s-3.36-4.256-3.039-6.954c.27-2.263-1.273-5.738-3.839-8.646-2.845-3.227-5.489-4.24-6.131-4.244-.642.004-3.287 1.019-6.133 4.245-2.564 2.907-4.106 6.381-3.837 8.645.321 2.697-.841 5.357-3.039 6.954s-5.088 1.882-7.553.741c-2.072-.956-5.852-.562-9.408.979-3.947 1.71-5.729 3.912-5.932 4.521-.194.61-.047 3.438 2.142 7.142 1.973 3.338 4.8 5.879 7.036 6.322 2.665.527 4.835 2.455 5.675 5.039.84 2.583.217 5.418-1.629 7.412-1.548 1.673-2.343 5.391-1.977 9.251.406 4.282 1.949 6.656 2.466 7.037.522.374 3.256 1.109 7.455.171 3.784-.845 7.074-2.749 8.188-4.739 1.325-2.37 3.829-3.839 6.546-3.839zm-102.392-85.461c7.162 1.449 19.494 2.909 34.222 2.909s27.06-1.46 34.222-2.909c-6.176-5.179-18.226-12.091-34.222-12.091s-28.046 6.912-34.222 12.091zm15.846-81.735c5.477 4.836 15.427 12.267 28.182 19.631s24.165 12.266 31.092 14.591c-2.759-7.572-9.738-19.584-23.592-27.582-13.852-7.997-27.743-8.035-35.682-6.64zm218.546-56.804c2.717 0 5.221 1.469 6.546 3.84 1.113 1.99 4.403 3.895 8.188 4.739 4.2.938 6.934.201 7.455-.171.517-.381 2.061-2.756 2.466-7.039.365-3.859-.429-7.576-1.977-9.248-1.846-1.994-2.47-4.829-1.63-7.413.839-2.584 3.01-4.512 5.675-5.039 2.236-.443 5.064-2.985 7.038-6.324 2.188-3.703 2.335-6.53 2.141-7.142-.202-.608-1.983-2.811-5.931-4.52-3.56-1.541-7.34-1.934-9.409-.979-2.467 1.142-5.355.855-7.553-.741-2.197-1.596-3.36-4.256-3.039-6.954.27-2.263-1.273-5.738-3.839-8.646-2.845-3.227-5.489-4.24-6.131-4.244-.642.004-3.287 1.019-6.133 4.245-2.564 2.907-4.106 6.381-3.837 8.645.321 2.697-.841 5.357-3.039 6.954-2.198 1.598-5.088 1.882-7.553.741-2.071-.956-5.852-.562-9.408.979-3.947 1.71-5.729 3.912-5.932 4.521-.194.61-.047 3.438 2.142 7.142 1.942 3.287 4.715 5.801 6.934 6.3.949.175 1.848.531 2.648 1.037.002.001.005.003.008.005.002.001.004.002.006.004.004.002.007.004.011.007.001.001.003.001.004.002.089.057.178.116.264.177.001.001.002.001.003.001.004.003.008.006.012.009.002.002.003.003.005.004.003.002.006.004.009.006 1.476 1.042 2.579 2.613 2.997 4.499.055.246.097.494.126.742.001.004.001.007.002.01v.001c.192 1.626-.155 3.206-.909 4.547-.002.004-.004.008-.006.012l-.001.001c-.193.343-.415.673-.664.985-.002.002-.004.005-.006.009-.124.155-.254.306-.391.451-1.527 1.688-2.309 5.382-1.945 9.217.406 4.282 1.949 6.656 2.466 7.037.522.374 3.255 1.108 7.455.171 3.784-.845 7.074-2.749 8.188-4.739 1.323-2.372 3.827-3.841 6.544-3.841zm-132 209.783c-4.364 0-7.914-3.55-7.914-7.914s3.55-7.915 7.914-7.915 7.914 3.551 7.914 7.915-3.55 7.914-7.914 7.914zm211.337-4.335c-12.406 0-22.5-10.094-22.5-22.5s10.094-22.5 22.5-22.5 22.5 10.094 22.5 22.5-10.094 22.5-22.5 22.5zm0-30c-4.136 0-7.5 3.364-7.5 7.5s3.364 7.5 7.5 7.5 7.5-3.364 7.5-7.5-3.364-7.5-7.5-7.5zm-128.622-8.906c-4.391 0-9.27-1.448-14.018-4.233-3.898-2.287-7.121-5.138-9.474-8.306-3.767 1.182-8.051 1.592-12.548 1.151-7.811-.767-14.241-3.891-17.642-8.571-3.401-4.682-4.385-11.763-2.699-19.429.97-4.414 2.686-8.36 4.972-11.576-2.287-3.217-4.002-7.163-4.973-11.578-1.685-7.665-.7-14.746 2.699-19.427 3.402-4.681 9.832-7.806 17.644-8.571 4.5-.442 8.781-.03 12.547 1.15 2.353-3.168 5.576-6.02 9.475-8.307 6.77-3.971 13.811-5.223 19.311-3.435 5.501 1.787 10.459 6.936 13.602 14.126 1.812 4.143 2.743 8.345 2.784 12.293 3.741 1.258 7.448 3.442 10.829 6.444 5.868 5.211 9.234 11.518 9.234 17.304 0 5.785-3.366 12.092-9.234 17.303-3.38 3.002-7.088 5.186-10.829 6.444-.04 3.946-.972 8.147-2.782 12.289-3.143 7.192-8.101 12.343-13.604 14.131-1.644.535-3.425.798-5.294.798zm-20.162-30.283c.775 0 1.557.12 2.316.367 2.584.839 4.512 3.01 5.039 5.675.443 2.235 2.983 5.063 6.322 7.036 3.705 2.19 6.532 2.337 7.145 2.143.607-.202 2.81-1.984 4.52-5.932 1.54-3.559 1.934-7.339.978-9.408-1.14-2.467-.855-5.356.741-7.554 1.596-2.197 4.252-3.358 6.954-3.039 2.267.268 5.737-1.272 8.646-3.838 3.226-2.845 4.24-5.489 4.244-6.131-.004-.642-1.018-3.286-4.243-6.131-2.909-2.566-6.381-4.111-8.647-3.839-2.702.321-5.358-.842-6.954-3.039-1.597-2.197-1.881-5.087-.741-7.553.955-2.069.562-5.851-.979-9.409-1.709-3.947-3.91-5.729-4.52-5.931-.608-.192-3.44-.047-7.144 2.142-3.338 1.973-5.879 4.801-6.322 7.036-.527 2.665-2.455 4.836-5.039 5.675-2.584.842-5.419.217-7.412-1.629-1.673-1.549-5.395-2.343-9.25-1.977-4.283.406-6.657 1.95-7.038 2.467-.373.521-1.107 3.256-.17 7.455.845 3.784 2.749 7.074 4.738 8.187 2.371 1.325 3.84 3.83 3.84 6.546 0 2.717-1.469 5.221-3.84 6.547-1.989 1.111-3.893 4.4-4.738 8.185-.938 4.199-.203 6.936.171 7.457.379.516 2.754 2.06 7.036 2.466 3.857.361 7.578-.429 9.251-1.978 1.407-1.303 3.234-1.996 5.096-1.996zm108.784 9.189c-12.406 0-22.5-10.094-22.5-22.5s10.094-22.5 22.5-22.5 22.5 10.094 22.5 22.5-10.094 22.5-22.5 22.5zm0-30c-4.136 0-7.5 3.364-7.5 7.5s3.364 7.5 7.5 7.5 7.5-3.364 7.5-7.5-3.364-7.5-7.5-7.5zm-99.628 8.044c-4.364 0-7.915-3.55-7.915-7.914s3.551-7.915 7.915-7.915 7.914 3.551 7.914 7.915-3.55 7.914-7.914 7.914zm-44.709-100.709c-4.364 0-7.914-3.55-7.914-7.914s3.55-7.915 7.914-7.915 7.914 3.551 7.914 7.915-3.55 7.914-7.914 7.914zm105-37c-4.364 0-7.914-3.55-7.914-7.914s3.55-7.915 7.914-7.915 7.914 3.551 7.914 7.915-3.55 7.914-7.914 7.914z"/></g></g></svg>