<svg id="Capa_1" enable-background="new 0 0 512.004 512.004" height="512" viewBox="0 0 512.004 512.004" width="512" xmlns="http://www.w3.org/2000/svg"><g><g><path d="m487.841 120.501-45.959 29.866-27.589-17.136c-52.832 4.385-105.785-1.424-158.291-17.463-82.465-25.19-166.035-25.19-248.5 0v226.714c35.128-10.73 70.457-16.89 105.815-18.479 47.647-2.141 95.348 4.019 142.685 18.479 10.422 3.184 20.862 5.962 31.315 8.341l60.702 9.277c47.204 3.71 94.501-.727 141.483-13.321v-226.714c-.554.148-1.107.29-1.661.436z" fill="#f5fcff"/><path d="m504.502 115.768c-4.996 1.526-9.996 2.956-15 4.297v226.714c5.004-1.341 10.004-2.771 15-4.297z" fill="#dce7ef"/><path d="m414.293 133.231c-42.562 72.935-120.101 205.761-126.976 217.591 20.196 4.596 40.44 7.685 60.702 9.277 32.255-55.291 121.112-207.499 139.823-239.598-24.452 6.453-48.987 10.692-73.549 12.73z" fill="#dce7ef"/><path d="m450.719 97.896c-14.978-8.648-27.824-8.922-31.938-1.795-4.064 7.039-150.81 258.389-154.874 265.428v30l-28.577 41.94c-2.613 6.761-5.268 13.649-7.903 20.497-1.087 2.824.068 5.879 2.377 8.578 5.527 4.552 13.7 4.125 15.586 1.792 4.612-5.706 9.25-11.45 13.799-17.093l48.975-60.164s149.392-261.833 153.168-268.374c4.113-7.125-.634-13.668-10.613-20.809z" fill="#dc8995"/><path d="m450.719 97.896c5.683 4.75 8.648 12.135 4.533 19.262-4.064 7.039-150.81 258.389-154.874 265.428v10l-48.014 50.718c-4.549 5.643-9.187 11.387-13.799 17.093-1.886 2.333-5.185 2.834-8.763 2.147 5.453 6.375 17.385 10.756 21.753 5.353 4.612-5.706 9.25-11.45 13.799-17.093v-10l48.013-50.718c4.065-7.04 150.811-258.39 154.874-265.428 4.116-7.126-2.543-18.114-17.522-26.762z" fill="#cd5668"/><path d="m235.329 433.47 17.035 9.835 30.502-26.609 17.512-34.109-36.472-21.057c-1.833 3.174-14.588 35.737-28.577 71.94z" fill="#87a0af"/><path d="m300.378 382.587c-1.833 3.174-23.655 30.502-48.014 60.718l12.99 7.5c24.359-30.216 46.181-57.544 48.013-60.718z" fill="#607882"/></g><g><path d="m228.847 486.858c-1.272 0-2.562-.324-3.743-1.006-3.587-2.071-4.816-6.658-2.745-10.245l3.596-6.229c-5.629-5.384-7.831-12.122-5.528-18.104 33.981-88.291 36.163-92.07 36.985-93.493.32-.557 1.537-2.646 3.503-6.019-2.373-.684-4.746-1.388-7.103-2.107-33.732-10.289-61.068-16.776-109.063-18.346-2.364-.076-4.725-.132-7.089-.167l3.86 25.669c3.354 22.292-11.757 43.417-33.684 47.09-10.939 1.837-21.905-.741-30.875-7.252-8.972-6.511-14.821-16.133-16.469-27.094-.616-4.096 2.205-7.916 6.301-8.532 4.095-.612 7.917 2.205 8.532 6.302 1.046 6.951 4.756 13.055 10.446 17.185 5.688 4.128 12.643 5.758 19.587 4.599 13.904-2.33 23.472-15.817 21.329-30.066l-4.187-27.836c-11.569.266-23.144 1.029-34.703 2.29-25.973 2.847-52.006 8.215-77.689 16.033-.005.001-.014.004-.019.006-.025.008-.048.015-.074.022-.015.004-.031.009-.045.014-.021.006-.039.012-.06.019-.024.007-.037.011-.061.019-.013.004-.031.009-.044.013-.035.011-.076.023-.11.034-3.961 1.208-8.153-1.02-9.364-4.981-.222-.728-.328-1.463-.329-2.186-.003-3.215 2.077-6.19 5.311-7.179.037-.011.075-.023.112-.034.021-.006.03-.009.05-.016.02-.006.041-.013.061-.019.021-.006.044-.014.065-.02.013-.004.027-.008.04-.013.031-.009.052-.016.083-.024.004-.002.01-.003.014-.005 21.058-6.41 42.192-11.207 63.361-14.389-4.641-2.891-9.065-6.328-13.201-10.285-7.6-7.271-13.687-15.835-18.018-25.13-9.41 2.202-18.802 4.734-28.185 7.601-3.961 1.209-8.153-1.021-9.364-4.981-1.21-3.962 1.021-8.154 4.982-9.364 9.146-2.794 18.301-5.282 27.472-7.467-1.651-6.421-2.51-13.035-2.51-19.687 0-7.422 1.005-14.689 2.969-21.663-7.88 1.936-15.739 4.1-23.548 6.485-3.959 1.209-8.154-1.021-9.364-4.981-1.21-3.962 1.021-8.154 4.981-9.364 11.58-3.537 23.271-6.605 34.979-9.181 1.655-2.963 3.509-5.836 5.556-8.604l28.852-39.07c-21.715 3.087-43.514 7.954-65.006 14.52-3.964 1.208-8.154-1.021-9.364-4.981-1.21-3.962 1.021-8.154 4.981-9.364 26.987-8.244 54.459-13.9 81.685-16.821l6.661-9.019-4.926-32.753c-26.411 2.821-52.788 8.241-79.037 16.26-3.961 1.209-8.153-1.02-9.364-4.981-1.21-3.962 1.021-8.154 4.982-9.364 26.971-8.239 54.058-13.828 81.195-16.771-4.138-30.328 5.031-53.541 25.285-63.829 11.678-5.938 26.181-2.334 33.731 8.377 10.451 14.828 10.798 33.637 1.424 53.277 37.178 1.352 74.326 7.667 111.248 18.945 3.961 1.21 6.191 5.402 4.981 9.364-1.21 3.96-5.403 6.188-9.364 4.981-38.386-11.726-77.021-17.894-115.676-18.505-.349.487-.704.977-1.064 1.464l-27.658 37.448.493 3.277c49.45-2.578 99.312 3.688 148.287 18.648 33.386 10.198 67.363 16.257 101.037 18.018 8.577-14.696 16.756-28.711 24.012-41.144-33.66.224-67.453-3.616-100.801-11.466-4.031-.949-6.531-4.987-5.582-9.02s4.989-6.527 9.02-5.582c35.151 8.274 70.868 11.942 106.21 10.906 11.548-19.79 19.316-33.11 20.197-34.636 3.44-5.956 10.284-9.144 18.736-8.76 7.055.326 15.162 3.027 23.446 7.811 12.204 7.045 19.911 15.836 21.96 24.25 8.633-2.072 17.312-4.438 25.882-7.057 3.965-1.208 8.154 1.02 9.364 4.981s-1.021 8.154-4.981 9.364c-6.049 1.848-12.152 3.575-18.259 5.167 3.401 2.921 5.847 6.792 7.032 11.217 1.556 5.806.757 11.869-2.248 17.074l-7.908 13.697c5.685-1.489 11.354-3.098 17-4.822 3.966-1.209 8.153 1.021 9.364 4.981 1.21 3.962-1.021 8.154-4.981 9.364-10.524 3.215-21.133 6.039-31.766 8.46l-26.979 46.73c18.199-3.066 36.367-7.36 54.362-12.857 3.966-1.207 8.153 1.02 9.364 4.981 1.21 3.962-1.021 8.154-4.981 9.364-22.604 6.904-45.476 11.976-68.361 15.168l-6.735 11.665c-2.071 3.588-6.66 4.814-10.245 2.745-3.587-2.071-4.816-6.658-2.745-10.245l1.146-1.986c-6.301.599-12.597 1.054-18.884 1.364-1.196 2.049-2.392 4.097-3.586 6.144-7.048 12.075-14.144 24.233-21.024 36.021 42.073.403 84.4-5.82 126.052-18.544 3.966-1.207 8.153 1.02 9.364 4.981 1.21 3.962-1.021 8.154-4.981 9.364-45.93 14.029-92.707 20.426-139.09 19.028-8.544 14.641-16.555 28.366-23.488 40.248 52.725 4.724 105.897-.969 158.195-16.943 3.966-1.208 8.153 1.021 9.364 4.981 1.21 3.962-1.021 8.154-4.981 9.364-56.468 17.249-113.946 22.916-170.896 16.854-9.171 15.718-15.166 25.999-15.934 27.328-.898 1.556-3.002 5.2-62.475 78.776-4.003 4.952-10.924 6.399-18.425 4.233l-3.615 6.261c-1.391 2.412-3.912 3.757-6.503 3.757zm5.721-30.568c.315.766 1.722 2.708 4.823 4.506 3.225 1.869 5.738 2.134 6.627 2.021 2.792-3.454 5.453-6.749 7.997-9.9l-14.845-8.57c-1.466 3.8-2.997 7.773-4.602 11.943zm10.073-26.105 18.903 10.913c22.652-28.129 33.58-41.955 38.806-48.713l-34.927-20.165c-3.229 7.882-9.737 24.257-22.782 57.965zm29.535-71.387 36.471 21.057c10.781-18.493 149.078-255.442 151.102-258.946.983-1.706-1.969-9.121-14.779-16.517-6.128-3.538-12.036-5.604-16.639-5.816-2.557-.119-4.538.384-5.054 1.276-2.035 3.523-140.252 240.334-151.101 258.946zm-15.983-23.489c3.489 1.066 7.016 2.096 10.524 3.074 11.575-19.843 30.645-52.518 50.926-87.267-21.972-3.199-44.073-8.172-65.833-14.818-29.113-8.894-58.597-14.618-88.051-17.117 10.145 10.155 16.425 24.169 16.425 39.623 0 1.219-.03 2.432-.09 3.64 25.432 3.068 50.816 8.464 76.099 16.187 4.787 1.462 9.637 2.854 14.413 4.139 4 1.075 6.371 5.19 5.296 9.19-1.076 4-5.189 6.368-9.19 5.296-4.939-1.328-9.952-2.768-14.901-4.279-24.588-7.511-49.288-12.742-74.023-15.693-3.227 12.145-9.641 23.267-18.822 32.362-2.55 2.525-5.27 4.854-8.138 6.974 35.215 1.775 70.39 8.005 105.365 18.689zm-205.193-53.186c3.404 6.435 7.869 12.382 13.265 17.543 10.973 10.497 23.198 18.319 44.021 16.973 3.337-.216 6.616-.678 9.815-1.375l-6.084-40.454c-24.172 1.064-35.578 2.328-61.017 7.313zm76.128-7.694 5.389 35.831c5.875-2.88 11.244-6.667 15.892-11.271 6.662-6.6 11.481-14.548 14.2-23.229-11.821-.964-23.65-1.411-35.481-1.331zm-78.629-48.484c-3.444 7.989-5.227 16.624-5.227 25.531 0 5.561.741 11.091 2.165 16.458 12.636-2.562 25.276-4.543 37.94-5.95-2.066-4.803-3.233-10.125-3.233-15.328 0-16.211 8.823-30.4 21.92-38.018l-7.253-48.228-35.671 48.298c2.787-.474 5.572-.918 8.353-1.333 4.096-.606 7.914 2.214 8.525 6.311s-2.214 7.913-6.311 8.525c-7.05 1.053-14.127 2.299-21.208 3.734zm81.253 33.464c11.799 0 23.602.5 35.395 1.5.025-.699.038-1.401.038-2.104 0-24.71-17.753-41.082-41.956-41.082-1.552.046-3.073.214-4.555.495l6.2 41.22c1.624-.02 3.253-.029 4.878-.029zm-25.182-34.11c-5.789 5.297-9.426 12.91-9.426 21.356 0 4.873 1.782 10.163 4.52 13.837 3.366-.243 6.741-.445 10.108-.606zm329.24-30.156c-8.074 13.835-16.868 28.901-25.842 44.276 6.353-.471 12.715-1.094 19.076-1.867l26.25-45.466c-6.503 1.173-13.002 2.194-19.484 3.057zm-304.126 7.59c42.205 0 84.732 6.458 126.509 19.22 23.023 7.032 46.433 12.126 69.629 15.151 2.47-4.231 17.811-30.515 22.941-39.307-32.368-2.295-64.935-8.397-96.953-18.178-46.815-14.3-94.442-20.377-141.663-18.088l6.293 41.844c3.147-.553 6.782-.642 13.244-.642zm339.38-68.014c-4.854 8.326-14.062 24.108-25.571 43.829 6.58-1.069 13.167-2.303 19.752-3.698l14.983-25.951c1.002-1.735 1.268-3.756.749-5.691s-1.759-3.552-3.494-4.554c-.058-.033-.115-.067-.172-.103zm-367.364-29.358 2.558 17.011 13.145-17.797c-5.237.16-10.467.421-15.703.786zm20.076-65.232c-1.763 0-3.542.401-5.191 1.239-20.147 10.234-18.811 37.216-17.121 49.104 9.521-.691 19.053-1.056 28.578-1.095 6.779-11.501 13.712-29.476 3.219-44.364-2.218-3.147-5.817-4.884-9.485-4.884z"/></g></g></svg>