<svg id="Capa_1" enable-background="new 0 0 512.133 512.133" height="512" viewBox="0 0 512.133 512.133" width="512" xmlns="http://www.w3.org/2000/svg"><g><g><path d="m156.011 496.836 340.825-340.826c2.929-2.929 2.126-8.481-5-15.607l-130.715-130.714c-2.929-2.929-7.678-2.929-10.607 0l-30.439 30.439 25.267 54.258-54.258-25.267-21.147 21.147 25.267 54.258-54.258-25.267-71.451 71.451 25.267 54.258-54.258-25.266-21.147 21.147 25.267 54.258-54.258-25.267-21.279 21.279 21.454 50.446-50.446-21.454-30.406 30.405c-2.929 2.929-2.929 7.678 0 10.607l130.715 130.715c7.126 7.125 12.678 7.929 15.607 5z" fill="#f5fcff"/><path d="m502.443 151.01-10.607-10.607c2.929 2.929 2.929 7.678 0 10.607l-340.825 340.826c-2.929 2.929-7.677 2.929-10.606 0l10.606 10.607c2.929 2.929 7.678 2.929 10.607 0l340.825-340.826c2.929-2.929 2.929-7.678 0-10.607z" fill="#dce7ef"/><path d="m121.009 390.416 18.385-18.385c2.929-2.929 2.126-8.481-5-15.607l-65.307-65.307-28.991 28.991 65.307 65.307c7.125 7.127 12.677 7.93 15.606 5.001z" fill="#87a0af"/><path d="m145 367.031-10.607-10.607c2.929 2.929 2.929 7.678 0 10.607l-18.385 18.385c-2.929 2.929-7.677 2.929-10.606 0l10.606 10.607c2.929 2.929 7.678 2.929 10.607 0l18.385-18.385c2.929-2.929 2.929-7.678 0-10.607z" fill="#607882"/><path d="m171.28 340.145 18.385-18.385c2.929-2.929 2.126-8.481-5-15.607l-65.307-65.307-28.991 28.991 65.307 65.307c7.125 7.127 12.677 7.93 15.606 5.001z" fill="#87a0af"/><path d="m195.271 316.761-10.607-10.607c2.929 2.929 2.929 7.678 0 10.607l-18.385 18.385c-2.929 2.929-7.677 2.929-10.606 0l10.606 10.607c2.929 2.929 7.678 2.929 10.607 0l18.385-18.385c2.929-2.93 2.929-7.678 0-10.607z" fill="#607882"/><path d="m221.418 290.007 18.385-18.385c2.929-2.929 2.126-8.481-5-15.607l-65.307-65.308-28.991 28.991 65.307 65.307c7.125 7.127 12.677 7.931 15.606 5.002z" fill="#87a0af"/><path d="m245.409 266.622-10.607-10.607c2.929 2.929 2.929 7.678 0 10.607l-18.385 18.385c-2.929 2.929-7.677 2.929-10.606 0l10.606 10.607c2.929 2.929 7.678 2.929 10.607 0l18.385-18.385c2.929-2.929 2.929-7.678 0-10.607z" fill="#607882"/><path d="m321.86 189.565 18.385-18.385c2.929-2.929 2.126-8.481-5-15.607l-65.307-65.307-28.991 28.991 65.307 65.307c7.125 7.126 12.677 7.93 15.606 5.001z" fill="#87a0af"/><path d="m345.852 166.18-10.607-10.607c2.929 2.929 2.929 7.678 0 10.607l-18.385 18.385c-2.929 2.929-7.677 2.929-10.606 0l10.606 10.607c2.929 2.929 7.678 2.929 10.607 0l18.385-18.385c2.929-2.929 2.929-7.678 0-10.607z" fill="#607882"/><path d="m371.999 139.426 18.385-18.385c2.929-2.929 2.126-8.481-5-15.607l-65.307-65.307-28.991 28.991 65.307 65.307c7.125 7.127 12.677 7.93 15.606 5.001z" fill="#87a0af"/><path d="m395.99 116.041-10.607-10.607c2.929 2.929 2.929 7.678 0 10.607l-18.385 18.385c-2.929 2.929-7.677 2.929-10.606 0l10.606 10.607c2.929 2.929 7.678 2.929 10.607 0l18.385-18.385c2.929-2.929 2.929-7.678 0-10.607z" fill="#607882"/></g><g><path d="m156.314 512.132c-3.842 0-7.683-1.462-10.607-4.386l-141.322-141.322c-5.847-5.848-5.848-15.363-.001-21.213l340.827-340.826c5.851-5.846 15.365-5.847 21.214 0l37.066 37.065c2.929 2.93 2.929 7.678 0 10.606-2.93 2.931-7.678 2.928-10.607.001l-37.066-37.065-25.135 25.135 70.611 70.61c5.848 5.849 5.848 15.365 0 21.214l-3.856 3.855 60.104 60.104 39.598-39.599-83.256-83.255c-2.929-2.93-2.929-7.678 0-10.607 2.931-2.929 7.679-2.927 10.607 0l83.256 83.256c5.848 5.849 5.848 15.365 0 21.214l-340.826 340.827c-2.925 2.924-6.766 4.386-10.607 4.386zm-116.22-181.417-25.102 25.103 141.321 141.321 39.598-39.598-33.069-33.07c-2.929-2.929-2.929-7.677 0-10.606 2.93-2.929 7.678-2.928 10.607.001l33.068 33.069 39.599-39.599-60.104-60.104-3.822 3.823c-5.851 5.847-15.365 5.848-21.214 0l-70.611-70.611-10.672 10.673 70.61 70.61c2.833 2.833 4.394 6.6 4.394 10.607s-1.561 7.773-4.395 10.606l-3.888 3.888 6.035 6.035c2.929 2.93 2.929 7.678 0 10.607-2.93 2.928-7.678 2.928-10.607 0l-6.034-6.035-3.89 3.89c-5.848 5.848-15.363 5.847-21.213.001zm156.525 5.911 60.104 60.104 39.598-39.598-60.104-60.104-3.889 3.89c-5.848 5.848-15.363 5.848-21.213 0l-70.611-70.611-10.54 10.54 14 14c2.929 2.93 2.929 7.678 0 10.607-2.93 2.928-7.678 2.928-10.607 0l-13.999-14-18.385 18.385 70.61 70.61 18.385-18.385-35.611-35.61c-2.929-2.93-2.929-7.678 0-10.607 2.93-2.928 7.678-2.928 10.607 0l35.611 35.611c5.848 5.849 5.848 15.365 0 21.214zm-145.917-16.517 70.61 70.61 18.384-18.385-70.61-70.61zm196.122-33.688 60.104 60.104 39.465-39.465-11.16-10.433c-3.025-2.828-3.186-7.574-.356-10.601 2.828-3.024 7.574-3.188 10.601-.356l11.528 10.777 39.726-39.726-60.104-60.104-3.855 3.856c-5.849 5.848-15.363 5.85-21.214 0l-70.61-70.611-25.152 25.152 108.888 109.854c2.915 2.942 2.895 7.691-.047 10.607-2.943 2.915-7.69 2.896-10.607-.047l-108.84-109.808-25.085 25.085 70.61 70.611c2.833 2.833 4.394 6.6 4.394 10.606 0 4.008-1.561 7.774-4.395 10.607zm-95.714-66.721 70.611 70.61 18.384-18.385-70.61-70.61zm196.123-33.688 60.104 60.104 39.599-39.599-60.104-60.104-3.922 3.922c-2.833 2.833-6.6 4.394-10.607 4.394s-7.773-1.561-10.607-4.395l-70.609-70.609-10.541 10.54 70.611 70.61c2.833 2.833 4.394 6.6 4.394 10.607s-1.561 7.773-4.395 10.607zm-95.681-66.755 70.611 70.61 18.384-18.385-70.61-70.61zm50.139-50.139 70.611 70.61 18.384-18.385-70.61-70.61z"/></g></g></svg>