<svg id="Capa_1" enable-background="new 0 0 512.002 512.002" height="512" viewBox="0 0 512.002 512.002" width="512" xmlns="http://www.w3.org/2000/svg"><g><g><path d="m251.237 195.684c-8.187-6.606-17.898-15.337-21.524-33.42-6.865-34.236 43.76-49.701 31.139-62.323-15.779-.727-43.56 9.472-63.018 28.931-38.298 38.298-34.328 88.295-61.502 112.712-21.183 19.033-75.869 13.968-107.61 45.708-33.352 33.352-31.189 96.804 33.998 161.99 53.258 49.565 122.638 61.349 155.99 27.998 6.499-6.499 6.437-18.968 10.373-26.907 9.646-73.937 31.206-247.384 22.154-254.689z" fill="#dc8995"/><path d="m224.713 160.264c3.626 18.082 18.337 28.813 26.524 35.42-6.911-5.577-13.174-13.7-15.524-25.42-7.842-39.108 40.957-53.804 36.858-64.567-1.369-3.594-5.664-5.477-11.72-5.755-6.46 10.558-43.003 26.086-36.138 60.322z" fill="#cd5668"/><path d="m62.719 449.283c65.186 65.186 128.638 67.349 161.99 33.998 0 0 1.745-12.764 4.373-32.907-3.936 7.938-8.874 15.408-15.373 21.907-33.352 33.351-102.847 16.868-150.99-22.998z" fill="#cd5668"/><path d="m264.418 369.671c24.417-27.175 55.529-9.32 82.712-36.502 13.231-13.231 22.632-43.323 12.363-53.592-9.907 3.61-22.612 24.212-46.821 12.879-24.797-11.608-22.16-42.235-7.868-56.527l-28.73-28.73s-13.318-2.219-24.836-11.514c-11.124-8.976-24.848-4.787-29.582 6.344-7.765 18.26-11.418 28.579-33.035 50.197-26.206 26.206-58.004 29.501-72.583 51.785-9.752 14.907-5.641 34.289 11.647 51.577l28.426 28.426c27.891 27.891 36.54 40.996 36.54 84.672 0 6.334 2.017 11.274 5.143 14.714 9.077 0 16.262-1.466 20.915-6.119 31.74-31.741 26.675-86.427 45.709-107.61z" fill="#f5fcff"/><path d="m364.305 279.43c-1.552-.591-3.143-.462-4.812.146 1.86 13.712-4.133 35.361-17.363 48.592-27.183 27.183-58.295 9.328-82.712 36.502-19.033 21.183-13.968 75.87-45.709 107.61-4.653 4.653-10.011 8.334-15.915 11.119 6.824 7.51 18.938 7.859 26.915-.119 31.74-31.74 26.675-86.427 45.709-107.61 24.417-27.175 55.529-9.32 82.712-36.502 19.111-19.112 24.133-54.802 11.175-59.738z" fill="#dce7ef"/><path d="m421.879 61.393-304.195 304.194 18.427 18.426 163.173-153.604 141.021-150.59z" fill="#d8ab8c"/><path d="m78.11 229.845h430.196v14.142h-430.196z" fill="#c7865b" transform="matrix(.707 -.707 .707 .707 -81.647 276.72)"/><path d="m138.976 401.755 12.135-12.135c4.262-4.262-.738-11.344-5-15.607l-18.426-18.426c-2.929-2.929-7.678-2.929-10.607 0l-12.135 12.135c-2.929 2.929-2.929 7.678 0 10.607l18.426 18.426c4.262 4.262 11.345 9.262 15.607 5z" fill="#f5fcff"/><path d="m156.111 384.013-10-10c2.929 2.929 2.929 7.678 0 10.607l-12.135 12.135c-2.929 2.929-7.678 2.929-10.607 0l10 10c2.929 2.929 7.678 2.929 10.607 0l12.135-12.135c2.929-2.929 2.929-7.678 0-10.607z" fill="#dce7ef"/><path d="m462.289 95.649 33.23-54.163c2.267-3.695 3.703-7.874 3.942-12.202.275-4.964-1.871-13.804-8.097-18.647-4.041-2.226-8.751-3.388-13.755-3.09-4.302.256-8.453 1.684-12.137 3.921l-54.301 32.969c-8.314 5.048-9.699 16.551-2.822 23.428l25.547 25.547c12.192 12.19 23.322 10.503 28.393 2.237z" fill="#dc8995"/><path d="m491.365 10.636c2.21 4.012 3.372 8.683 3.097 13.647-.24 4.328-1.676 8.507-3.942 12.202l-33.23 54.163c-5.071 8.266-16.535 9.62-23.392 2.763l10 10c6.857 6.857 18.321 5.503 23.392-2.763l33.23-54.163c2.267-3.695 3.703-7.874 3.942-12.202.563-10.169-4.878-19.119-13.097-23.647z" fill="#cd5668"/></g><g><path d="m57.416 454.586c-31.547-31.547-50.929-65.106-56.053-97.049-4.768-29.728 3.064-56.558 22.055-75.549 2.929-2.929 7.678-2.929 10.607 0s2.929 7.677 0 10.607c-15.497 15.497-21.837 37.717-17.852 62.566 4.621 28.806 22.55 59.518 51.849 88.818 29.299 29.299 60.012 47.228 88.818 51.849 14.525 2.329 28.152 1.131 40.063-3.362-7.441-4.894-11.751-13.466-11.752-23.781.001-34.863-5.125-48.177-23.915-68.585l-11.957 11.957c-5.849 5.849-15.365 5.848-21.213 0l-28.426-28.426c-5.848-5.848-5.849-15.364 0-21.213l12.135-12.135c.332-.332.675-.645 1.03-.939-11.244-16.75-12.593-34.843-3.042-49.441 8.649-13.221 22.089-20.302 36.318-27.798 12.522-6.597 25.473-13.419 37.237-25.184 19.414-19.414 23.476-29.015 30.204-44.919l1.233-2.909c3.231-7.598 9.562-13.076 17.37-15.027.103-.026.206-.051.309-.075-1.842-3.818-3.202-7.907-4.073-12.253-5.922-29.532 15.662-47.253 28.558-57.84 2.325-1.908 5.252-4.312 7.048-6.101-8.129-2.079-37.885 3.435-60.829 26.379-19.325 19.325-27.136 41.591-34.69 63.124-6.721 19.159-13.07 37.255-27.103 49.864-10.558 9.486-27.238 13.521-44.899 17.794-13.725 3.32-27.918 6.754-40.833 12.861-3.745 1.771-8.216.17-9.987-3.574s-.171-8.215 3.574-9.987c14.306-6.765 29.933-10.545 43.719-13.88 15.767-3.815 30.659-7.417 38.4-14.372 11.176-10.041 16.643-25.626 22.974-43.671 7.733-22.042 16.496-47.023 38.238-68.765 10.48-10.48 24.229-19.378 38.715-25.057 13.599-5.331 26.494-7.298 35.38-5.397 8.697 1.859 11.849 7.01 12.955 9.913 3.386 8.892-4.643 15.485-13.144 22.464-12.261 10.066-27.521 22.594-23.369 43.298 1.693 8.441 6.027 15.526 12.88 21.057 6.409 5.173 13.612 7.844 17.802 9.069l127.62-127.623c-3.762-4.695-5.481-10.663-4.751-16.728.832-6.904 4.718-12.933 10.662-16.542l13.932-8.459c3.54-2.15 8.153-1.026 10.303 2.519 2.15 3.541 1.023 8.153-2.518 10.303l-13.932 8.459c-1.981 1.202-3.276 3.212-3.553 5.513s.504 4.561 2.143 6.2l35.547 35.547c1.634 1.634 3.888 2.416 6.183 2.145s4.304-1.556 5.513-3.526l33.23-54.163c1.7-2.772 2.684-5.779 2.846-8.696.287-5.162-1.559-10.005-5.195-13.642-.009-.009-.018-.018-.027-.027-3.655-3.64-8.519-5.475-13.695-5.167-2.905.173-5.91 1.157-8.69 2.845l-12.789 7.765c-3.54 2.149-8.154 1.021-10.303-2.519-2.15-3.541-1.023-8.153 2.518-10.303l12.788-7.765c4.86-2.951 10.249-4.679 15.584-4.997 9.367-.557 18.542 2.91 25.172 9.512.016.016.032.032.047.047 6.599 6.599 10.086 15.736 9.568 25.08-.299 5.392-2.041 10.824-5.038 15.709l-33.23 54.163c-3.626 5.91-9.654 9.766-16.539 10.579-6.076.717-12.056-1.025-16.747-4.815l-130.596 130.596c-6.465 6.465-9.691 17.179-8.027 26.658 1.002 5.71 4.257 13.482 14.076 18.077 13.619 6.375 21.759.147 30.378-6.447 6.011-4.598 12.825-9.811 20.745-6.795 5.653 2.151 9.635 7.406 11.216 14.796 3.177 14.856-3.473 40.97-19.758 57.255-15.233 15.233-31.726 17.935-46.277 20.318-13.766 2.255-25.655 4.203-36.159 15.893-6.955 7.741-10.558 22.634-14.372 38.402-1.308 5.404-2.66 10.994-4.218 16.657-1.098 3.994-5.227 6.341-9.221 5.242s-6.34-5.227-5.241-9.221c1.496-5.437 2.82-10.911 4.1-16.204 4.272-17.661 8.307-34.342 17.794-44.9 14.031-15.615 30.426-18.301 44.892-20.67 13.514-2.214 26.278-4.304 38.096-16.122 12.138-12.138 18.014-32.673 15.696-43.51-.443-2.066-1.078-3.229-1.583-3.703-1.477.563-4.519 2.89-6.596 4.479-8.972 6.864-23.989 18.352-45.851 8.118-12.215-5.719-20.203-16.041-22.49-29.068-.337-1.924-.543-3.873-.622-5.828l-35.5 35.5c-2.929 2.929-7.678 2.929-10.607 0s-2.929-7.677 0-10.607l21.826-21.826-17.82-17.82-105.989 105.985 17.82 17.82 64.44-64.44c2.929-2.929 7.678-2.929 10.607 0s2.929 7.678 0 10.607l-64.473 64.473c24.18 24.869 33.467 40.867 33.467 84.639 0 5.96 2.462 10.397 6.748 12.174 4.134 1.713 9.043.581 12.507-2.883 5.838-5.838 10.676-12.906 14.788-21.608 1.77-3.745 6.24-5.345 9.985-3.576 3.749 1.768 5.346 6.241 3.576 9.986-4.861 10.285-10.665 18.726-17.743 25.804-18.991 18.991-45.821 26.823-75.549 22.055-31.943-5.123-65.502-24.505-97.048-56.051zm64.965-93.696-12.135 12.135 28.427 28.427 12.135-12.135zm124.146-159.37c-3.413-2.754-7.236-3.785-10.766-2.903-3.203.801-5.829 3.113-7.203 6.345l-1.222 2.883c-7.184 16.981-11.929 28.199-33.412 49.682-13.371 13.371-27.971 21.062-40.853 27.849-13.003 6.851-24.233 12.767-30.757 22.739-6.806 10.403-4.635 23.733 5.652 36.583l134.052-134.052c-4.767-1.999-10.282-4.923-15.491-9.126zm8.359 37.471 17.82 17.82 13.394-13.394-17.82-17.82zm24.001-24 17.82 17.82 13.393-13.393-17.82-17.82zm23.999-24 17.82 17.82 13.394-13.394-17.82-17.82zm24-24 17.82 17.82 13.394-13.394-17.82-17.82zm24-24 17.82 17.82 13.393-13.393-17.82-17.82zm24-23.999 17.82 17.82 13.394-13.394-17.82-17.82zm24-24.001 17.82 17.82 12.993-12.993-17.82-17.82z"/></g></g></svg>