<svg id="Capa_1" enable-background="new 0 0 511.654 511.654" height="512" viewBox="0 0 511.654 511.654" width="512" xmlns="http://www.w3.org/2000/svg"><g><g><path d="m280.593 49.395-66.105 4.442-70.961 308.721 218.171 7.5z" fill="#87a0af"/><path d="m297.167 53.837-16.574-4.442 71.982 313.163h-209.048l-3.447 15 115.92 7 115.575-7z" fill="#607882"/><path d="m255.223 46.837h-15v315.721l22 7z" fill="#ffe07d"/><path d="m255.223 46.837v315.721h-15v17h30v-332.721z" fill="#ffc250"/><path d="m387.586 482.722-31.563-105.163h-85.799-30-100.144l-23.192 100.898c-.26 1.132-.379 2.256-.381 3.36l266.226 7c3.2-.001 5.57-2.976 4.853-6.095z" fill="#d8ab8c"/><path d="m371.575 377.558h-15.552l22.563 98.163c.717 3.119-1.652 6.094-4.853 6.094h-257.226c-.016 8.064 6.52 15 15 15h248.641c9.641 0 16.779-8.964 14.619-18.36z" fill="#c7865b"/><path d="m252.015 15.329-21.73 5.703c-5.402 1.418-9.571 5.717-10.823 11.16l-1.527 6.645 69.231 7-13.561-26.843-13.967-3.666c-2.498-.655-5.124-.655-7.623.001z" fill="#d8ab8c"/><path d="m292.191 32.192c-1.251-5.443-5.42-9.742-10.822-11.16l-7.763-2.038 3.576 15.559c.504 2.192-1.161 4.284-3.411 4.284h-55.835l-3.448 15h82.679z" fill="#c7865b"/><path d="m374.978 160.816c2.493-1.034 9.039-14.062 12.208-23.47-9.439-4.527-22.143-8.917-24.99-7.736-3.109 1.29-7.411 13.499-9.164 22.422 8.418 4.85 19.666 9.729 21.946 8.784z" fill="#dce7ef"/><g fill="#bcd1e1"><path d="m382.57 173.196c4.505-1.868 17.059-24.369 15.191-28.874-.688-1.658-5.079-4.341-10.575-6.977 10.575 6.977-6.204 29.145-8.697 30.179-2.28.945-25.939-6.747-25.457-15.493-.787 4.005-1.062 7.35-.483 8.746 1.869 4.505 25.516 14.288 30.021 12.419z"/><path d="m378.489 167.525c2.493-1.034 19.272-23.202 8.697-30.179-3.169 9.409-9.715 22.436-12.208 23.47-2.28.945-13.528-3.934-21.946-8.784-.483 8.746 23.177 16.438 25.457 15.493z"/></g></g><g><path d="m380.148 504.316h-69.329c-4.143 0-7.5-3.357-7.5-7.5s3.357-7.5 7.5-7.5h69.329c2.298 0 4.436-1.031 5.867-2.828 1.432-1.798 1.957-4.113 1.442-6.353l-21.854-95.077h-219.552l-21.854 95.077c-.515 2.239.011 4.555 1.442 6.353 1.432 1.797 3.569 2.828 5.867 2.828h149.312c4.143 0 7.5 3.357 7.5 7.5s-3.357 7.5-7.5 7.5h-149.311c-6.893 0-13.308-3.093-17.602-8.484-4.294-5.393-5.871-12.338-4.327-19.056l86.722-377.29c.928-4.037 4.953-6.556 8.989-5.63 4.037.928 6.558 4.953 5.63 8.989l-61.42 267.213h83.225v-46.57c0-4.143 3.357-7.5 7.5-7.5s7.5 3.357 7.5 7.5v46.57h15v-308.721h-15v232.151c0 4.143-3.357 7.5-7.5 7.5s-7.5-3.357-7.5-7.5v-232.151h-12.265l-3.488 15.178c-.928 4.037-4.953 6.558-8.989 5.63-4.037-.928-6.558-4.953-5.63-8.989l9.802-42.643c1.883-8.19 8.101-14.604 16.229-16.735l21.729-5.702c3.738-.982 7.692-.982 11.433 0l21.729 5.703c8.127 2.131 14.345 8.544 16.228 16.734l36.076 156.952c.928 4.036-1.593 8.062-5.63 8.989-4.029.927-8.062-1.593-8.989-5.63l-29.765-129.487h-13.471v303.199l79.156-191.353c-9.277-4.757-10.671-8.116-11.259-9.532-1.643-3.962-.911-11.224 2.173-21.586 4.957-16.655 9.561-18.566 11.527-19.383 1.604-.664 5.052-2.095 17.51 2.271l24.364-58.899c1.583-3.827 5.966-5.647 9.798-4.063 3.827 1.584 5.646 5.97 4.063 9.798l-24.365 58.898c11.902 5.712 13.332 9.159 13.997 10.762.815 1.966 2.725 6.57-5.534 21.862-5.138 9.514-9.75 15.17-13.711 16.812-1.416.587-4.773 1.981-14.703-1.206l-23.866 57.694 55.202 240.164c1.544 6.718-.033 13.663-4.327 19.056-4.293 5.392-10.708 8.485-17.6 8.485zm-88.476-134.258h70.483l-25.175-109.529zm68.071-212.526c3.964 2.846 15.211 7.498 20.027 8.284 3.159-3.591 8.634-13.552 10.236-18.506-5.192-3.334-18.406-8.8-24.436-10.107-2.363 4.638-5.525 15.555-5.827 20.329zm-135.836-111.195h63.84l-2.865-12.465c-.628-2.733-2.703-4.874-5.415-5.585l-21.732-5.704c-1.248-.326-2.567-.328-3.813 0l-21.731 5.703c-2.714.712-4.789 2.853-5.417 5.586zm258.143 144.237c-1.771 0-3.548-.623-4.977-1.892-3.098-2.75-3.379-7.49-.629-10.588l22.102-24.895c2.748-3.098 7.488-3.381 10.588-.629 3.098 2.75 3.379 7.49.629 10.588l-22.102 24.895c-1.481 1.67-3.542 2.521-5.611 2.521zm-452.445 0c-2.069 0-4.13-.852-5.611-2.521l-22.102-24.894c-2.75-3.098-2.469-7.838.629-10.588 3.1-2.751 7.84-2.468 10.588.629l22.102 24.895c2.75 3.098 2.469 7.838-.629 10.588-1.43 1.268-3.207 1.891-4.977 1.891zm399.899-38.345c-1.3 0-2.617-.338-3.816-1.049-3.563-2.111-4.74-6.712-2.629-10.275l16.969-28.641c2.111-3.563 6.714-4.741 10.275-2.629 3.563 2.111 4.74 6.712 2.629 10.275l-16.969 28.641c-1.4 2.365-3.897 3.678-6.459 3.678zm-348.562 0c-2.562 0-5.059-1.313-6.46-3.678l-16.966-28.641c-2.111-3.563-.935-8.164 2.629-10.275 3.563-2.108 8.165-.934 10.275 2.631l16.968 28.64c2.111 3.564.935 8.165-2.629 10.275-1.199.71-2.517 1.048-3.817 1.048zm63.473-28.858c-3.108 0-6.015-1.947-7.088-5.05l-10.884-31.46c-1.354-3.915.722-8.186 4.636-9.54 3.918-1.355 8.187.723 9.54 4.636l10.884 31.46c1.354 3.915-.722 8.186-4.636 9.54-.811.281-1.638.414-2.452.414z"/></g></g></svg>