<svg id="Capa_1" enable-background="new 0 0 511.999 511.999" height="512" viewBox="0 0 511.999 511.999" width="512" xmlns="http://www.w3.org/2000/svg"><g><g><path d="m260.612 494.683c157.506-53.503 192.534-96.11 176.482-213.81-69.027-30.108-135.25-10.648-181.095 44.985l-9.999 162.642s13.111 6.693 14.612 6.183zm75.062-155.886c16.13-9.781 36.812-11.091 61.274-1.817-3.087 25.979-13.812 43.711-29.942 53.492s-36.812 11.091-61.275 1.817c3.088-25.979 13.813-43.712 29.943-53.492z" fill="#607882"/><path d="m443.495 283.802c-2.136-1.025-4.27-1.999-6.401-2.928-1.392 125.487-19.117 149.259-176.482 206.81-1.489.545-3.051.817-4.613.817h-10l10 16c1.562 0 3.124-.272 4.613-.817 157.687-57.668 189.198-84.096 190.493-207.639.054-5.209-2.913-9.991-7.61-12.243z" fill="#4e5a61"/><path d="m251.387 494.683c1.513.475 4.613-6.183 4.613-6.183v-162.641c-47.26-57.351-116.177-76.263-187.496-42.057-4.696 2.252-7.664 7.035-7.609 12.243.352 33.598 2.949 60.002 9.7 81.816 19.859 42.639 54.455 77.129 180.792 116.822zm-75.063-155.887c16.13 9.78 26.855 27.513 29.943 53.491-24.462 9.274-45.144 7.964-61.275-1.815-16.13-9.78-26.855-27.513-29.943-53.491 24.463-9.275 45.145-7.965 61.275 1.815z" fill="#f5fcff"/><path d="m251.387 487.683c-101.148-36.991-154.904-63.187-180.793-109.823 18.075 58.4 65.989 83.837 180.792 125.823 1.489.545 3.051.817 4.613.817v-16c-1.561 0-3.123-.272-4.612-.817z" fill="#dce7ef"/><path d="m370.232 234.277c46.646-70.62 94.139-152.614 92.121-171.246-2.673-2.669-5.968-3.926-11.279-3.579-20.034 1.309-103.478 75.326-143.695 131.322 0 0-19.372 78.918-36.412 118.902 25.783-13.844 81.608-48.666 99.265-75.399z" fill="#ffe07d"/><path d="m462.354 63.031c-6.308 18.456-58.031 110.386-98.249 166.384-16.24 22.612-44.324 44.416-66.056 56.867-2.918 1.672-6.266-1.311-4.959-4.41 15.705-37.252 14.291-78.324 14.291-91.098-34.337 47.81-60.453 118.569-51.38 125.085s84.768-28.634 119.105-76.444c40.218-55.997 89.562-145.075 90.844-165.111.338-5.31-.924-8.604-3.596-11.273z" fill="#ffc250"/><path d="m256.255 298.567c-5.711-25.364-26.463-72.744-51.636-107.793-40.217-55.996-123.661-130.013-143.695-131.322-5.311-.347-8.606.91-11.279 3.579s-3.934 5.962-3.595 11.273c1.281 20.035 50.626 109.114 90.844 165.111 41.24 44.417 106.419 72.566 119.361 59.152z" fill="#ffe07d"/><path d="m136.894 239.415c34.337 47.81 110.033 82.96 119.105 76.444 2.421-1.739 2.335-8.057.255-17.291-14.327 3.206-82.925-22.833-119.36-59.153z" fill="#ffc250"/><path d="m266.51 12.938c-3.513-3.999-6.733-5.438-10.51-5.438 13.25 15.083 26.691 110.432 26.691 179.374 0 48.414-20.646 104.436-34.191 122.802 2.923 3.964 5.517 6.182 7.5 6.182 11.17 0 41.691-70.122 41.691-128.985 0-68.941-17.931-158.853-31.181-173.935z" fill="#ffe07d"/><path d="m256 7.5c-3.777 0-6.997 1.439-10.51 5.437-13.25 15.082-31.182 104.994-31.182 173.938 0 48.414 20.646 104.436 34.191 122.802 13.545-18.366 34.191-74.388 34.191-122.802.001-68.943-13.44-164.292-26.69-179.375z" fill="#fff3bf"/><path d="m275.89 310.859c0-9.852-4.663-18.709-10.733-24.779-2.835-1.445-5.922-2.247-9.157-2.247-13.746 0-24.89 14.339-24.89 32.026 0 7.017 1.759 13.502 4.733 18.779 3.139 4.58 9.243 8.247 15.157 8.247 13.746 0 24.89-14.339 24.89-32.026z" fill="#dc8995"/><path d="m265.156 286.08c2.974 5.277 4.733 11.762 4.733 18.779 0 17.688-11.144 32.026-24.89 32.026-3.235 0-6.322-.802-9.157-2.247 4.523 8.024 11.864 13.247 20.157 13.247 13.746 0 24.89-14.339 24.89-32.026.001-13.526-6.519-25.085-15.733-29.779z" fill="#cd5668"/></g><g><path d="m256 511.999c-2.436 0-4.87-.424-7.188-1.271-79.373-29.028-127.864-50.534-156.759-80.999-31.371-33.076-38.05-75.644-38.658-133.604-.085-8.097 4.573-15.588 11.866-19.085 26.298-12.612 52.567-18.552 78.354-17.743-4.688-5.016-9-10.197-12.812-15.506-8.65-12.045-17.879-25.811-27.429-40.917-2.214-3.501-1.17-8.134 2.331-10.347 3.499-2.215 8.134-1.171 10.347 2.331 9.394 14.857 18.456 28.377 26.935 40.183 19.729 27.469 55.384 52.009 83.27 65.17 1.06-2.986 2.411-5.781 4.013-8.334-8.874-20.087-18.692-51.073-22.16-82.467-3.175-5.032-6.394-9.823-9.58-14.26-42.842-59.647-123.706-127.273-138.095-128.213-3.84-.259-4.792.703-5.49 1.402-.698.697-1.655 1.652-1.41 5.487.591 9.237 17.575 46.448 47.889 97.217 2.123 3.557.962 8.161-2.595 10.284-3.553 2.124-8.159.963-10.284-2.595-22.387-37.493-48.91-87.213-49.979-103.949-.464-7.238 1.373-12.659 5.779-17.06 4.408-4.4 9.842-6.218 17.069-5.756 15.706 1.027 49.858 29.935 68.818 47.074 29.572 26.734 57.766 56.982 76.616 82.1.406-29.05 3.841-63.828 9.562-96.465.716-4.079 4.602-6.797 8.683-6.093 4.08.716 6.808 4.603 6.093 8.683-5.96 33.996-9.378 70.302-9.378 99.607 0 33.462 10.118 69.679 19.88 93.529 4.318-2.606 9.177-4.071 14.312-4.071s9.994 1.466 14.312 4.071c9.791-23.905 19.879-60.034 19.879-93.529 0-31.4-3.825-69.96-10.495-105.793-6.814-36.611-14.363-58.119-18.821-63.193-2.538-2.887-3.888-2.887-4.875-2.887s-2.339 0-4.876 2.887c-2.959 3.369-8.148 15.505-13.835 39.459-.956 4.03-5 6.522-9.029 5.564-4.03-.956-6.521-4.999-5.564-9.029 5.689-23.968 11.463-39.408 17.16-45.895 4.787-5.448 9.917-7.986 16.144-7.986s11.356 2.538 16.144 7.987c15.752 17.93 33.048 111.553 33.048 178.887 0 38.443-12.412 79.994-23.46 105.002 1.602 2.553 2.953 5.348 4.013 8.334 27.886-13.161 63.541-37.701 83.27-65.17 18.871-26.274 41.132-61.896 59.548-95.288 21.446-38.887 29.513-59.817 29.903-65.926.245-3.835-.712-4.79-1.41-5.487-.697-.698-1.665-1.66-5.489-1.402-3.676.24-18.636 7.594-48.949 33.705-25.398 21.878-51.581 48.261-71.834 72.384-2.663 3.172-7.395 3.586-10.566.922-3.173-2.663-3.585-7.395-.922-10.566 20.749-24.714 47.551-51.724 73.532-74.104 19.218-16.555 44.839-36.465 57.76-37.31 7.244-.466 12.661 1.356 17.068 5.756 4.406 4.4 6.243 9.821 5.779 17.06-1.467 22.945-53.206 114.663-92.236 169.007-3.812 5.309-8.124 10.489-12.812 15.505 25.792-.807 52.054 5.131 78.354 17.744 7.293 3.497 11.951 10.988 11.866 19.085-.593 56.534-7.896 90.342-25.212 116.691-2.274 3.462-6.925 4.422-10.387 2.148-3.461-2.274-4.424-6.925-2.148-10.387 15.598-23.735 22.188-55.202 22.747-108.61.024-2.294-1.291-4.414-3.353-5.402-30.373-14.568-60.524-19.422-89.632-14.438-19.84 16.812-42.715 30.654-62.231 39.381.001.117.001.234.001.352 0 18.646-10.634 34.317-24.891 38.457v59.755c0 4.143-3.357 7.5-7.5 7.5s-7.5-3.357-7.5-7.5v-59.755c-14.257-4.14-24.891-19.811-24.891-38.457 0-.117 0-.234.001-.352-19.515-8.726-42.392-22.57-62.23-39.38-29.113-4.985-59.262-.13-89.633 14.438-2.062.988-3.377 3.108-3.353 5.401.672 64.146 10.034 97.601 34.541 123.44 26.219 27.643 71.576 48.001 145.564 75.229v-50.566c0-4.143 3.357-7.5 7.5-7.5s7.5 3.357 7.5 7.5v50.565c67.659-24.901 112.359-44.459 139.373-69.16 3.058-2.795 7.801-2.583 10.597.475 2.795 3.057 2.583 7.801-.475 10.596-29.563 27.032-77.315 47.67-149.807 74.182-2.318.847-4.753 1.271-7.188 1.271zm0-220.667c-9.427 0-17.391 11.231-17.391 24.526s7.964 24.526 17.391 24.526 17.391-11.231 17.391-24.526-7.965-24.526-17.391-24.526zm80.96 114.707c-10.652 0-22.03-2.243-33.887-6.738-3.221-1.221-5.196-4.478-4.789-7.898 3.243-27.288 14.828-47.696 33.501-59.019 18.672-11.322 42.125-12.159 67.821-2.417 3.221 1.221 5.195 4.478 4.789 7.897-3.242 27.287-14.826 47.696-33.501 59.021-10.056 6.097-21.5 9.154-33.934 9.154zm-22.912-18.794c19.109 6.052 35.592 4.985 49.069-3.187 13.479-8.173 22.045-22.298 25.515-42.036-19.106-6.05-35.591-4.984-49.069 3.188s-22.044 22.296-25.515 42.035zm-139.01 18.793c-12.434 0-23.876-3.056-33.934-9.153-18.674-11.322-30.259-31.731-33.502-59.02-.407-3.419 1.568-6.677 4.788-7.897 25.695-9.74 49.147-8.906 67.822 2.415 18.673 11.321 30.259 31.73 33.503 59.019.407 3.42-1.568 6.678-4.788 7.898-11.857 4.495-23.237 6.738-33.889 6.738zm-51.672-64.016c3.471 19.739 12.038 33.864 25.516 42.036 13.479 8.173 29.964 9.237 49.07 3.187-3.472-19.74-12.039-33.864-25.517-42.036-13.477-8.17-29.963-9.235-49.069-3.187z"/></g></g></svg>