<?xml version="1.0" encoding="utf-8"?>
<!-- Generator: Adobe Illustrator 24.0.0, SVG Export Plug-In . SVG Version: 6.00 Build 0)  -->
<svg version="1.1" xmlns="http://www.w3.org/2000/svg" xmlns:xlink="http://www.w3.org/1999/xlink" x="0px" y="0px"
	 viewBox="0 0 256 256" enable-background="new 0 0 256 256" xml:space="preserve">
<g id="Caption">
</g>
<g id="Icons">
	<g>
		<path fill="#FFB69F" d="M204.519,103.238l-98.25,98.24l-55.33-55.33l-11.81-11.82l15.25-15.25c7.91-7.91,12.35-18.63,12.35-29.81
			v-26.38c0-6.55,5.3-11.87,11.87-11.88c6.08,0,11.08,4.57,11.78,10.45c0.06,0.46,0.09,0.94,0.09,1.42v20.11l17.43-17.43
			l36.84-36.84c4.63-4.63,12.14-4.64,16.79,0.01c1.94,1.94,3.07,4.4,3.38,6.94c0.43,3.5-0.7,7.16-3.38,9.84l10.38-10.38l0.89-0.89
			c4.66-4.66,12.27-4.65,16.9,0.13c1.87,1.93,2.93,4.35,3.19,6.85c0.38,3.59-0.85,7.36-3.59,10.09l-5.7,5.7
			c4.68-4.67,12.29-4.65,16.92,0.13c4.56,4.7,4.22,12.3-0.41,16.93l-12.11,12.11c4.67-4.67,12.27-4.65,16.91,0.12
			C209.479,90.998,209.149,98.598,204.519,103.238z"/>
		<path fill="#EA8F7C" d="M204.519,103.238l-98.25,98.24l-55.33-55.33l15.25-15.25c6.65-6.65,10.31-15.48,10.3-24.86v-26.39
			c0-8.67,5.89-16,13.89-18.19c0.06,0.46,0.09,0.94,0.09,1.42v20.11l17.43-17.43c3.88,3.46,6.33,8.49,6.33,14.09v3.21l42.32-42.32
			c2.43-2.43,5.32-4.04,8.36-4.87c0.43,3.5-0.7,7.16-3.38,9.84l10.38-10.38c5.75,0.61,11.22,3.84,14.4,9.42
			c1.99-1.57,4.23-2.68,6.58-3.33c0.38,3.59-0.85,7.36-3.59,10.09l-5.7,5.7c4.68-4.67,12.29-4.65,16.92,0.13
			c4.56,4.7,4.22,12.3-0.41,16.93l-12.11,12.11c4.67-4.67,12.27-4.65,16.91,0.12C209.479,90.998,209.149,98.598,204.519,103.238z"/>
		
			<rect x="34.721" y="144.133" transform="matrix(0.7071 -0.7071 0.7071 0.7071 -121.1408 90.7658)" fill="#72C2E9" width="28.545" height="94.959"/>
		<polygon fill="#4BA5C8" points="92.659,215.098 86.429,221.318 19.289,154.178 25.509,147.948 		"/>
		<path fill="#72C2E9" d="M35.662,119.117l-13.694,13.694c-3.905,3.905-3.905,10.237,0,14.142l71.683,71.683
			c3.905,3.905,10.237,3.905,14.142,0l13.694-13.694c3.905-3.905,3.905-10.237,0-14.142l-71.683-71.683
			C45.899,115.212,39.567,115.212,35.662,119.117z"/>
		<path fill="#4BA5C8" d="M121.489,204.938l-13.7,13.7c-3.9,3.9-10.23,3.9-14.14,0l-64.65-64.65c0.56-3.54,2.22-6.8,4.79-9.37
			l13.69-13.68c2.57-2.58,5.83-4.23,9.36-4.78l64.65,64.64C125.389,194.708,125.389,201.038,121.489,204.938z"/>
		<path fill="#FFB69F" d="M221.281,120.003l-98.243,98.243L55.89,151.098l15.251-15.251c7.911-7.911,12.355-18.63,12.35-29.813
			V79.65c0-6.545,5.305-11.864,11.874-11.874c6.555,0,11.869,5.313,11.869,11.869l0,20.109l54.269-54.269
			c4.628-4.628,12.138-4.645,16.788,0.005c4.633,4.633,4.633,12.15,0,16.783l11.27-11.27c4.663-4.663,12.27-4.648,16.907,0.126
			c4.568,4.702,4.234,12.31-0.402,16.945l-5.7,5.7c4.676-4.676,12.292-4.648,16.923,0.131c4.555,4.701,4.216,12.295-0.412,16.924
			l-12.11,12.11c4.665-4.665,12.263-4.647,16.905,0.124C226.244,107.761,225.916,115.368,221.281,120.003z"/>
		
			<rect x="51.487" y="160.899" transform="matrix(0.7071 -0.7071 0.7071 0.7071 -128.0855 107.5317)" fill="#72C2E9" width="28.545" height="94.959"/>
		
			<rect x="68.344" y="153.92" transform="matrix(0.7065 -0.7077 0.7077 0.7065 -121.1783 110.5828)" fill="#4BA5C8" width="8.8" height="94.961"/>
		<path fill="#72C2E9" d="M110.425,235.405c3.9,3.9,10.23,3.9,14.14,0l13.69-13.69c3.91-3.91,3.91-10.24,0-14.15
			c-17.424-17.411-2.739-2.729-71.69-71.68c-3.9-3.91-10.23-3.91-14.14,0l-13.69,13.69c-3.91,3.9-3.91,10.24,0,14.14
			C64.051,189.031,84.853,209.833,110.425,235.405z"/>
		<circle fill="#EFEFEF" cx="113.566" cy="210.715" r="9.214"/>
		<path fill="#72C2E9" d="M233.402,29.045l-7.824,7.824c-2.162,2.162-5.664,2.16-7.824,0c-2.16-2.16-2.162-5.662,0-7.824
			l7.824-7.824c2.162-2.162,5.664-2.161,7.824,0C235.562,23.381,235.564,26.883,233.402,29.045z"/>
		<path fill="#F0C020" d="M245.138,61.963h-11.064c-3.056,0-5.532-2.476-5.532-5.532s2.476-5.532,5.532-5.532h11.064
			c3.056,0,5.532,2.476,5.532,5.532C250.67,59.487,248.195,61.963,245.138,61.963z"/>
		<path fill="#FC5D3D" d="M198.192,26.081c-3.056,0-5.532-2.476-5.532-5.532V9.484c0-3.056,2.476-5.532,5.532-5.532
			s5.532,2.476,5.532,5.532v11.064C203.724,23.605,201.248,26.081,198.192,26.081z"/>
		<path fill="#FAE0E1" d="M138.704,188.438c-0.977-0.976-0.977-2.559,0-3.535l56.471-56.471c0.977-0.977,2.559-0.977,3.535,0
			c0.977,0.976,0.977,2.559,0,3.535l-56.471,56.471C141.263,189.415,139.681,189.415,138.704,188.438z M202.246,124.896
			c-0.977-0.976-0.977-2.559,0-3.535l2.121-2.121c0.977-0.977,2.559-0.977,3.535,0c0.977,0.976,0.977,2.559,0,3.535l-2.121,2.121
			C204.805,125.872,203.223,125.872,202.246,124.896z"/>
		<path fill="#B7E5FF" d="M90.606,204.986l-2.121-2.122c-0.976-0.977-0.976-2.56,0-3.536c0.977-0.977,2.559-0.976,3.536,0
			l2.121,2.122c0.976,0.977,0.976,2.56,0,3.536C93.165,205.963,91.583,205.963,90.606,204.986z M81.414,195.793l-37.376-37.382
			c-0.976-0.977-0.976-2.559,0-3.536c0.977-0.976,2.559-0.976,3.536,0l37.376,37.382c0.976,0.977,0.976,2.559,0,3.536
			C83.973,196.77,82.391,196.77,81.414,195.793z"/>
		<path d="M126.629,43.29c-0.98,0.98-0.98,2.56,0,3.54c0.973,0.973,2.554,0.974,3.53,0c0.942-0.943,1.005-2.514,0-3.54
			C129.219,42.35,127.569,42.35,126.629,43.29z"/>
		<path d="M170.719,167.03c-0.944,0.945-1.002,2.516,0,3.54c0.945,0.946,2.519,1.001,3.54,0c1.016-1.038,0.932-2.607,0-3.54
			C173.309,166.09,171.66,166.09,170.719,167.03z"/>
		<path d="M219.509,118.24l-41.72,41.72c-0.971,0.97-0.971,2.56,0,3.54c0.993,0.973,2.542,0.976,3.54,0l41.699-41.709
			c0.006-0.006,0.013-0.009,0.019-0.015c5.681-5.681,5.866-14.856,0.414-20.451c-2.478-2.547-5.725-4.06-9.229-4.318l4.416-4.413
			c5.656-5.668,5.852-14.831,0.437-20.425c-2.55-2.632-5.921-4.164-9.554-4.354c3.944-5.65,3.557-13.444-1.271-18.429
			c-3.547-3.647-8.475-4.984-13.078-4.089c0.858-4.49-0.368-9.25-3.688-12.677c-5.597-5.755-14.799-5.817-20.467-0.148l-3.563,3.563
			c-0.251-3.312-1.647-6.549-4.173-9.075c-5.604-5.605-14.724-5.608-20.326-0.007c-0.002,0.002-0.003,0.004-0.004,0.005L133.7,36.22
			c-0.932,0.931-1.016,2.504,0,3.54c0.981,0.982,2.565,0.965,3.529,0l9.271-9.27c0,0,0.001-0.001,0.001-0.001
			s0.001-0.001,0.001-0.001c3.652-3.652,9.6-3.65,13.256,0.006c3.531,3.533,3.677,9.197,0.313,12.916
			c-0.094,0.103,3.234-3.262-50.34,50.312V79.648c0-3.458-1.229-6.634-3.272-9.116L123.089,53.9c0.973-0.973,0.975-2.565,0-3.54
			c-0.94-0.94-2.59-0.94-3.53,0L102.639,67.28c-2.139-1.264-4.624-2.003-7.284-2.003c-0.814,0.001-1.608,0.086-2.386,0.218v-2.618
			c0-7.924-6.446-14.37-14.374-14.37c-7.927,0.012-14.376,6.459-14.376,14.37v26.39c0,10.598-4.123,20.557-11.608,28.042
			l-0.538,0.538l-0.503-0.503c-4.879-4.866-12.807-4.864-17.673,0.002l-13.7,13.7c-4.867,4.867-4.868,12.795,0,17.675l0.505,0.505
			L3.562,166.36c-0.977,0.976-0.977,2.559-0.001,3.535c0.975,0.977,2.559,0.978,3.535,0.001l17.143-17.134
			c3.331,3.329,9.95,9.948,13.231,13.229L20.332,183.13c-0.977,0.976-0.977,2.559,0,3.535c0.976,0.976,2.56,0.977,3.535,0
			l17.139-17.139l16.023,16.023c0.946,0.946,2.518,1.001,3.54,0c0.97-0.97,0.97-2.56,0-3.53
			c-27.579-27.58-18.062-18.073-20.122-20.128c-2.866-2.929-2.85-7.642,0.055-10.547l13.694-13.694
			c2.903-2.901,7.607-2.919,10.537-0.063c0.11,0.11,71.24,71.233,71.753,71.746c2.924,2.924,2.924,7.683,0,10.607l-13.694,13.694
			c-2.92,2.919-7.639,2.933-10.575,0.028c-0.01-0.01-0.017-0.023-0.027-0.033l-37.48-37.47c-0.94-0.95-2.59-0.95-3.54,0
			c-0.97,0.97-0.97,2.56,0,3.53l33.451,33.451L87.473,250.28c-0.977,0.976-0.977,2.559-0.001,3.535
			c0.975,0.976,2.558,0.978,3.535,0.001l17.149-17.14l0.491,0.491c0.001,0.001,0.001,0.002,0.002,0.003
			c4.883,4.884,12.792,4.886,17.678,0l13.694-13.694c4.874-4.874,4.874-12.804,0-17.677l-0.495-0.495l27.654-27.663
			c0.986-0.964,0.99-2.571,0-3.54c-0.939-0.94-2.59-0.94-3.53,0l-27.663,27.664l-63.612-63.612l0.534-0.536
			c8.436-8.437,13.082-19.651,13.082-31.578v-26.39c0-5.159,4.205-9.362,9.37-9.37c5.167,0,9.37,4.204,9.37,9.37v19.08l-7.191,7.191
			c-0.977,0.976-0.977,2.559,0,3.535c0.976,0.976,2.56,0.977,3.535,0c71.457-71.457,61.136-61.093,62.713-62.67
			c3.648-3.149,9.194-3.067,12.735,0.481c3.647,3.647,3.651,9.579,0.013,13.231l-0.001,0.001c-0.003,0.003-0.008,0.005-0.011,0.009
			l-39.518,39.518c-0.977,0.976-0.977,2.559,0,3.535c0.977,0.977,2.559,0.977,3.535,0c61.685-61.686,49.358-49.202,50.922-50.907
			c3.67-3.527,9.558-3.542,13.211,0.214c3.543,3.659,3.377,9.685-0.371,13.433c-5.033,5.033-40.885,40.885-50.511,50.511
			c-0.977,0.976-0.977,2.559,0,3.535c0.977,0.977,2.559,0.977,3.535,0l44.806-44.806c4.2-4,10.004-3.359,13.361,0.105
			c3.53,3.647,3.358,9.666-0.381,13.413c-24.439,24.418,12.253-12.25-44.535,44.539c-0.977,0.976-0.977,2.559,0,3.535
			c0.977,0.977,2.559,0.977,3.535,0l32.46-32.46c3.584-3.604,9.607-3.664,13.307,0.139c3.55,3.644,3.388,9.66-0.358,13.417
			C219.518,118.233,219.513,118.236,219.509,118.24z M50.661,134.116L36.966,147.81c-1.941,1.94-3.15,4.41-3.524,7.081l-9.707-9.701
			c-2.921-2.928-2.922-7.687-0.002-10.606l13.7-13.7c2.92-2.92,7.679-2.919,10.604-0.001c3.248,3.25,4.977,4.98,9.703,9.709
			C55.07,130.966,52.601,132.175,50.661,134.116z M87.97,67.354c-4.174,2.52-6.98,7.082-6.98,12.294v26.39
			c0,10.591-4.126,20.55-11.622,28.046l-0.53,0.532c-10.077-10.074,12.098,12.112-13.23-13.231l0.539-0.539
			c8.43-8.43,13.073-19.645,13.073-31.578v-26.39c0-5.159,4.209-9.362,9.38-9.37c5.167,0,9.37,4.204,9.37,9.37V67.354z
			 M187.91,49.133c0,0-0.001,0.001-0.001,0.001c-0.038,0.037-2.766,2.755-3.686,3.675c-0.253-3.432-1.709-6.623-4.163-9.077
			c-2.452-2.457-5.634-3.906-9.053-4.168l3.558-3.558c3.751-3.751,9.739-3.61,13.344,0.096
			C191.312,39.616,191.31,45.332,187.91,49.133z"/>
		<path d="M64.099,189.09c-0.976,0.977-0.97,2.559,0,3.53c0.946,0.946,2.518,1.001,3.54,0c0.97-0.97,0.97-2.56,0-3.53
			C66.689,188.14,65.039,188.14,64.099,189.09z"/>
		<path d="M121.849,218.998c4.567-4.567,4.567-11.999,0-16.566c-4.577-4.578-11.988-4.579-16.566,0
			c-4.578,4.577-4.579,11.987,0,16.566C109.851,223.566,117.282,223.566,121.849,218.998z M108.818,205.967
			c2.624-2.623,6.871-2.624,9.496,0c2.618,2.618,2.618,6.877,0,9.496c-2.626,2.625-6.871,2.624-9.496,0
			C106.2,212.845,106.2,208.585,108.818,205.967z"/>
		<path d="M223.81,19.453l-7.825,7.825c-3.132,3.131-3.132,8.227,0,11.36c3.132,3.13,8.227,3.131,11.36,0l7.824-7.824
			c3.132-3.132,3.132-8.228,0-11.36C232.038,16.321,226.942,16.321,223.81,19.453z M231.634,27.278l-7.824,7.824
			c-1.183,1.181-3.105,1.183-4.29,0c-1.182-1.183-1.182-3.106,0-4.289l7.825-7.825c1.183-1.182,3.105-1.182,4.289,0
			C232.816,24.171,232.816,26.095,231.634,27.278z"/>
		<path d="M234.074,64.463h11.064c4.429,0,8.032-3.603,8.032-8.032s-3.604-8.032-8.032-8.032h-11.064
			c-4.429,0-8.032,3.603-8.032,8.032S229.645,64.463,234.074,64.463z M234.074,53.398h11.064c1.672,0,3.032,1.36,3.032,3.032
			s-1.36,3.032-3.032,3.032h-11.064c-1.672,0-3.032-1.36-3.032-3.032S232.402,53.398,234.074,53.398z"/>
		<path d="M190.16,9.484v11.064c0,4.429,3.604,8.032,8.032,8.032s8.032-3.603,8.032-8.032V9.484c0-4.429-3.604-8.032-8.032-8.032
			S190.16,5.055,190.16,9.484z M201.224,9.484v11.064c0,1.672-1.36,3.032-3.032,3.032s-3.032-1.36-3.032-3.032V9.484
			c0-1.672,1.36-3.032,3.032-3.032S201.224,7.813,201.224,9.484z"/>
	</g>
</g>
</svg>
