<?xml version="1.0" encoding="utf-8"?>
<!-- Generator: Adobe Illustrator 24.0.0, SVG Export Plug-In . SVG Version: 6.00 Build 0)  -->
<svg version="1.1" xmlns="http://www.w3.org/2000/svg" xmlns:xlink="http://www.w3.org/1999/xlink" x="0px" y="0px"
	 viewBox="0 0 256 256" enable-background="new 0 0 256 256" xml:space="preserve">
<g id="Caption">
</g>
<g id="Icons">
	<g>
		<rect x="39.06" y="172.303" fill="#EFEFEF" width="137.18" height="18.66"/>
		<path fill="#AFAFAF" d="M176.24,172.303v18.66h-16.23c-0.05-0.4-0.07-0.81-0.07-1.22v-16.21c0-0.41,0.02-0.82,0.07-1.23H176.24z"
			/>
		<path fill="#AFAFAF" d="M55.88,190.963H39.06v-18.66h16.81C58.02,178.323,58.02,184.933,55.88,190.963z"/>
		<path fill="#F0C020" d="M246.988,194.381v-25.489c0-2.891-2.445-5.18-5.33-4.989l-70.051,4.639
			c-2.627,0.174-4.67,2.356-4.67,4.989v16.21c0,2.633,2.042,4.815,4.67,4.989l70.051,4.639
			C244.542,199.561,246.988,197.272,246.988,194.381z"/>
		<path fill="#F0C020" d="M79.144,63.953v40.085l0,0c42.447-4.864,85.311-4.864,127.759,0l0,0V63.953l0,0
			C164.455,59.09,121.591,59.09,79.144,63.953L79.144,63.953z"/>
		<path fill="#E8A61E" d="M126.106,100.657c-15.68,0.47-31.35,1.59-46.96,3.38v-40.08c7.01-0.81,14.03-1.48,21.06-2.02
			C114.666,69.197,124.896,83.707,126.106,100.657z"/>
		<path fill="#E8A61E" d="M206.906,63.957v40.08c-15.61-1.79-31.28-2.91-46.97-3.38c1.21-16.95,11.43-31.45,25.9-38.72
			C192.866,62.477,199.896,63.147,206.906,63.957z"/>
		<path fill="#E8A61E" d="M162.916,66.516c0,10.97-8.92,19.9-19.89,19.9c-10.97,0-19.9-8.93-19.9-19.9c0-2.04,0.31-4.02,0.89-5.88
			c6.33-0.22,12.67-0.33,19.01-0.33c6.33,0,12.67,0.11,19,0.33C162.606,62.497,162.916,64.477,162.916,66.516z"/>
		<path fill="#EFEFEF" d="M39.06,88.123v88.14H20.45v-88.14c0-2.57,1.04-4.89,2.73-6.58c1.68-1.68,4.01-2.72,6.58-2.72
			C34.9,78.823,39.06,82.983,39.06,88.123z"/>
		<path fill="#AFAFAF" d="M39.06,155.503v20.76H20.45v-20.76C26.45,153.373,33.05,153.373,39.06,155.503z"/>
		<path fill="#AFAFAF" d="M39.06,89.723h-0.004v-1.596c0-2.08-0.68-3.99-1.83-5.54c-1.167,2.277-2.144,4.665-2.934,7.136H20.45
			v28.63h13.836c1.173,3.665,2.781,7.137,4.77,10.354v-10.354h0.004V89.723z"/>
		<path fill="#F0C020" d="M9.012,101.719v4.638c0,2.761,2.239,5,5,5h32.423V96.719H14.012C11.251,96.719,9.012,98.958,9.012,101.719
			z"/>
		<path fill="#E8A61E" d="M46.436,96.717v14.64h-13.81c-0.38-2.38-0.57-4.83-0.57-7.32s0.19-4.93,0.57-7.32H46.436z"/>
		
			<ellipse transform="matrix(0.9871 -0.1602 0.1602 0.9871 -15.6432 14.0208)" fill="#72C2E9" cx="79.144" cy="104.038" rx="40.085" ry="40.085"/>
		<circle fill="#EFEFEF" cx="79.144" cy="104.039" r="25.085"/>
		
			<ellipse transform="matrix(0.9871 -0.1602 0.1602 0.9871 -13.9935 34.4855)" fill="#72C2E9" cx="206.902" cy="104.038" rx="40.085" ry="40.085"/>
		<circle fill="#EFEFEF" cx="206.903" cy="104.039" r="25.085"/>
		<path fill="#AFAFAF" d="M104.226,104.036c0,1.19-0.08,2.36-0.25,3.5c-1.7-12.18-12.19-21.58-24.83-21.58
			c-12.64,0-23.14,9.4-24.84,21.58c-0.17-1.14-0.25-2.31-0.25-3.5c0-13.83,11.26-25.08,25.09-25.08
			C92.976,78.957,104.226,90.207,104.226,104.036z"/>
		<path fill="#AFAFAF" d="M231.986,104.036c0,1.19-0.08,2.36-0.25,3.5c-1.7-12.18-12.19-21.58-24.83-21.58
			c-12.65,0-23.14,9.4-24.84,21.58c-0.17-1.14-0.25-2.31-0.25-3.5c0-13.83,11.25-25.08,25.09-25.08
			C220.736,78.957,231.986,90.207,231.986,104.036z"/>
		
			<ellipse transform="matrix(0.1602 -0.9871 0.9871 0.1602 54.4511 197.0418)" fill="#72C2E9" cx="143.023" cy="66.521" rx="12.894" ry="12.894"/>
		<circle fill="#F0C020" cx="29.754" cy="181.637" r="20.742"/>
		<circle fill="#EFEFEF" cx="29.754" cy="181.637" r="8.26"/>
		<path d="M154.205,132.84c-3.729-1.228-6.641-2.022-8.591-10.421c-0.635-2.737-4.548-2.73-5.181,0
			c-1.907,8.213-4.566,9.092-8.591,10.422c-2.424,0.801-2.43,4.248,0,5.051c6.686,2.209,7.444,5.476,8.591,10.421
			c0.637,2.743,4.545,2.742,5.182,0c1.905-8.212,4.709-9.139,8.591-10.421C156.629,137.09,156.635,133.642,154.205,132.84z"/>
		<path fill="#F0C020" d="M147.008,135.394c-1.47,1.03-2.79,2.42-3.93,4.43c-0.94-1.58-2.25-3.08-4.17-4.4
			c1.55-1.06,2.94-2.5,4.13-4.64C144.238,132.944,145.598,134.384,147.008,135.394z"/>
		<path fill="#FFFFFF" d="M79.144,121.624c-9.696,0-17.585-7.889-17.585-17.585c0-1.381,1.119-2.5,2.5-2.5s2.5,1.119,2.5,2.5
			c0,6.939,5.646,12.585,12.585,12.585c3.002,0,5.91-1.079,8.19-3.038c1.046-0.899,2.624-0.781,3.525,0.268
			c0.899,1.047,0.78,2.625-0.268,3.525C87.406,120.115,83.341,121.623,79.144,121.624z M93.441,109.469
			c-1.354-0.272-2.23-1.589-1.959-2.943c0.163-0.813,0.246-1.65,0.246-2.487c0-1.381,1.119-2.5,2.5-2.5s2.5,1.119,2.5,2.5
			c0,1.167-0.115,2.334-0.344,3.471C96.115,108.856,94.803,109.741,93.441,109.469z"/>
		<path fill="#FFFFFF" d="M206.902,121.624c-9.696,0-17.585-7.889-17.585-17.585c0-1.381,1.119-2.5,2.5-2.5s2.5,1.119,2.5,2.5
			c0,6.939,5.646,12.585,12.585,12.585c3.002,0,5.91-1.079,8.19-3.038c1.046-0.899,2.624-0.781,3.525,0.268
			c0.899,1.047,0.78,2.625-0.268,3.525C215.165,120.115,211.1,121.623,206.902,121.624z M221.2,109.469
			c-1.354-0.272-2.23-1.589-1.959-2.943c0.163-0.813,0.246-1.65,0.246-2.487c0-1.381,1.119-2.5,2.5-2.5s2.5,1.119,2.5,2.5
			c0,1.167-0.115,2.334-0.344,3.471C223.873,108.856,222.562,109.741,221.2,109.469z"/>
		<circle cx="143.1" cy="100.393" r="2.5"/>
		<path d="M79.144,131.624c15.21,0,27.585-12.375,27.585-27.585S94.354,76.454,79.144,76.454s-27.585,12.375-27.585,27.585
			S63.934,131.624,79.144,131.624z M79.144,81.454c12.453,0,22.585,10.131,22.585,22.585s-10.132,22.585-22.585,22.585
			s-22.585-10.131-22.585-22.585S66.69,81.454,79.144,81.454z"/>
		<path d="M235.08,72.103c-1-0.88-2.66-0.77-3.53,0.22c-0.91,1.03-0.82,2.62,0.22,3.53c0,0,0,0,0,0.01
			c1.042,0.906,2.604,0.811,3.53-0.23C236.21,74.603,236.109,73.013,235.08,72.103z"/>
		<path d="M206.902,76.454c-15.21,0-27.585,12.375-27.585,27.585s12.375,27.585,27.585,27.585s27.585-12.375,27.585-27.585
			S222.112,76.454,206.902,76.454z M206.902,126.624c-12.453,0-22.585-10.131-22.585-22.585s10.132-22.585,22.585-22.585
			s22.585,10.131,22.585,22.585S219.355,126.624,206.902,126.624z"/>
		<path d="M6.514,181.593c0,0.014-0.004,0.026-0.004,0.04c0,2.72,0.47,5.37,1.38,7.89c0.442,1.249,1.842,1.995,3.2,1.51
			c1.29-0.47,1.97-1.91,1.5-3.2c-0.717-1.973-1.076-4.055-1.079-6.177c0-0.007,0.002-0.013,0.002-0.019
			c0-10.059,8.183-18.242,18.241-18.242c10.059,0,18.242,8.184,18.242,18.242c0,0.008,0.002,0.016,0.002,0.024
			c-0.036,10.027-8.218,18.202-18.249,18.212c-1.601,0-3.181-0.2-4.7-0.61c-1.31-0.34-2.71,0.47-3.06,1.78
			c-0.345,1.291,0.405,2.679,1.779,3.06c1.94,0.51,3.95,0.77,5.98,0.77c8.501,0,15.943-4.584,19.998-11.41h115.691
			c1.214,2.11,3.421,3.592,6.001,3.762l70.052,4.64c4.327,0.285,7.995-3.154,7.995-7.484v-25.489c0-4.343-3.689-7.775-7.995-7.483
			l-70.052,4.639c-2.577,0.17-4.781,1.649-5.997,3.755H49.747c-1.999-3.364-4.82-6.181-8.187-8.175v-37.593
			c7.173,13.428,21.326,22.589,37.584,22.589c23.481,0,42.585-19.104,42.585-42.585c0-0.244-0.014-0.484-0.018-0.727
			c3.835-0.147,7.673-0.263,11.43-0.329c1.38-0.02,2.48-1.16,2.46-2.54c-0.03-1.36-1.149-2.46-2.5-2.46h-0.04
			c-3.939,0.075-7.861,0.194-11.725,0.344c-2.036-15.112-12.016-27.739-25.597-33.507c10.729-0.911,21.534-1.513,32.309-1.799
			c-0.263,1.126-0.417,2.294-0.417,3.5c0,8.488,6.905,15.394,15.394,15.394s15.394-6.906,15.394-15.394
			c0-1.206-0.154-2.374-0.417-3.5c10.777,0.286,21.583,0.888,32.309,1.799c-13.581,5.768-23.562,18.395-25.598,33.507
			c-3.829-0.15-7.704-0.269-11.572-0.344h-0.04c-1.359,0-2.479,1.1-2.5,2.46c-0.03,1.38,1.07,2.52,2.45,2.54
			c3.714,0.066,7.498,0.186,11.286,0.329c-0.004,0.243-0.018,0.483-0.018,0.726c0,23.481,19.104,42.585,42.585,42.585
			c23.467,0,42.56-19.08,42.584-42.541c0-0.014,0.004-0.026,0.004-0.04c0-0.01,0-0.01,0-0.02c0-8.6-2.561-16.9-7.4-23.98
			c-0.75-1.1-2.37-1.41-3.48-0.65c-1.118,0.753-1.452,2.308-0.649,3.47c4.265,6.243,6.524,13.564,6.529,21.156
			c0,0.007-0.002,0.013-0.002,0.02c0,20.725-16.86,37.585-37.585,37.585s-37.585-16.86-37.585-37.585
			c0-20.712,16.841-37.565,37.548-37.584c0.014,0,0.029,0.002,0.043,0.002c0.01,0,0.02-0.003,0.03-0.003
			c6.036,0.006,11.783,1.395,17.111,4.129c1.253,0.644,2.732,0.131,3.36-1.08c0.627-1.216,0.168-2.714-1.08-3.37
			c-5.917-3.038-12.585-4.653-19.286-4.676c-16.878-1.939-34.106-3.11-51.234-3.494c-2.766-4.118-7.464-6.835-12.787-6.835
			c-5.323,0-10.021,2.717-12.787,6.835c-17.119,0.383-34.343,1.554-51.223,3.494c-16.557,0.05-30.912,9.601-37.909,23.473
			c-1.399-4.956-5.951-8.603-11.349-8.603c-6.512,0-11.81,5.293-11.81,11.8v6.09h-3.933c-4.136,0-7.5,3.364-7.5,7.5v4.64
			c0,4.136,3.364,7.5,7.5,7.5h3.937v47.77C11.123,165.67,6.53,173.103,6.514,181.593z M169.437,173.532
			c0-1.313,1.025-2.408,2.334-2.495l70.052-4.639c1.422-0.096,2.665,1.028,2.665,2.494v25.489c0,1.448-1.225,2.595-2.665,2.495
			l-70.052-4.64c-1.309-0.086-2.334-1.182-2.334-2.494V173.532z M164.437,174.803v13.66H51.971c0.666-2.16,1.027-4.454,1.029-6.83
			c0-0.018-0.005-0.034-0.005-0.052c-0.006-2.358-0.364-4.633-1.025-6.778H164.437z M143.023,56.127
			c5.731,0,10.394,4.663,10.394,10.394s-4.662,10.394-10.394,10.394s-10.394-4.663-10.394-10.394S137.292,56.127,143.023,56.127z
			 M79.115,66.454c0.01,0,0.019,0.003,0.029,0.003c0.014,0,0.028-0.002,0.041-0.002c20.706,0.023,37.544,16.874,37.544,37.584
			c0,20.725-16.86,37.585-37.585,37.585s-37.585-16.86-37.585-37.585C41.559,83.324,58.403,66.47,79.115,66.454z M36.56,159.413
			c-2.154-0.661-4.438-1.019-6.806-1.019c-2.367,0-4.651,0.358-6.804,1.018v-45.556H36.56V159.413z M22.946,88.126
			c0-3.75,3.055-6.8,6.81-6.8c3.75,0,6.801,3.05,6.801,6.8v6.09h-13.61V88.126z M14.014,108.856c-1.379,0-2.5-1.122-2.5-2.5v-4.64
			c0-1.378,1.121-2.5,2.5-2.5h22.826c-0.179,1.584-0.281,3.191-0.281,4.822c0,1.63,0.101,3.235,0.28,4.818
			C31.338,108.856,19.595,108.856,14.014,108.856z"/>
		<path d="M13.89,195.223c-0.976,1.084-0.829,2.641,0.15,3.54c1.028,0.938,2.595,0.864,3.529-0.15c0.931-1.02,0.87-2.6-0.149-3.53
			C16.439,194.183,14.79,194.253,13.89,195.223z"/>
		<path d="M29.754,192.396c5.934,0,10.761-4.827,10.761-10.76s-4.827-10.76-10.761-10.76c-5.933,0-10.76,4.827-10.76,10.76
			S23.821,192.396,29.754,192.396z M29.754,175.876c3.177,0,5.761,2.584,5.761,5.76c0,3.176-2.584,5.76-5.761,5.76
			c-3.176,0-5.76-2.584-5.76-5.76C23.994,178.46,26.578,175.876,29.754,175.876z"/>
		<path d="M143.023,70.345c1.381,0,2.5-1.119,2.5-2.5v-2.648c0-1.381-1.119-2.5-2.5-2.5s-2.5,1.119-2.5,2.5v2.648
			C140.523,69.226,141.643,70.345,143.023,70.345z"/>
	</g>
</g>
</svg>
