<?xml version="1.0" encoding="utf-8"?>
<!-- Generator: Adobe Illustrator 24.0.0, SVG Export Plug-In . SVG Version: 6.00 Build 0)  -->
<svg version="1.1" xmlns="http://www.w3.org/2000/svg" xmlns:xlink="http://www.w3.org/1999/xlink" x="0px" y="0px"
	 viewBox="0 0 256 256" enable-background="new 0 0 256 256" xml:space="preserve">
<g id="Caption">
</g>
<g id="Icons">
	<g>
		<rect x="25.21" y="35.37" fill="#13BF6D" width="205.58" height="196.58"/>
		<path fill="#139C6E" d="M168.6,174.68h-5.57v-12.13h0.12c6.62,0,12-5.38,12-12v-21.66c0-5.47-3.68-10.08-8.7-11.52V88.73
			c0-7.04-5.73-12.78-12.78-12.78h-9.76l9.3-2.98c6.71-2.16,10.41-9.37,8.26-16.08l-0.64-1.97c-2.18-6.8-9.4-10.4-16.07-8.26
			L98.42,61.54C91.71,63.7,88,70.91,90.16,77.62l2.06,6.43v32.87c-6.32,0.33-11.37,5.57-11.37,11.97v21.66c0,6.62,5.38,12,12,12
			h0.12v12.13H87.4c-6.61,0-12,5.38-12,12v12.13c0,5.09,3.2,9.45,7.7,11.18v21.96h24.53v-21.14h40.74v21.14h24.53v-21.96
			c4.5-1.73,7.7-6.09,7.7-11.18v-12.13C180.6,180.06,175.21,174.68,168.6,174.68z M138.5,174.68h-21v-12.13h21V174.68z"/>
		<rect x="25.21" y="35.37" fill="#139C6E" width="205.58" height="7"/>
		<path fill="#13BF6D" d="M5.298,14.266v13.106c0,4.418,3.582,8,8,8h229.404c4.418,0,8-3.582,8-8V14.266c0-4.418-3.582-8-8-8H13.298
			C8.88,6.266,5.298,9.848,5.298,14.266z"/>
		<path fill="#FC5D3D" d="M87.851,128.893v21.66c0,2.761,2.239,5,5,5h70.298c2.761,0,5-2.239,5-5v-21.66c0-2.761-2.239-5-5-5H92.851
			C90.09,123.893,87.851,126.131,87.851,128.893z"/>
		<path fill="#B25035" d="M166.42,125.136c-0.37,6.71-5.94,12.05-12.75,12.05h-48.66c-7.05,0-12.79-5.73-12.79-12.78v-0.46
			c0.21-0.04,0.42-0.05,0.63-0.05h70.3C164.4,123.896,165.55,124.356,166.42,125.136z"/>
		<rect x="99.97" y="155.556" fill="#F0C020" width="10.53" height="26.122"/>
		<rect x="145.5" y="155.556" fill="#F0C020" width="10.53" height="26.122"/>
		<rect x="99.97" y="155.556" fill="#E8A61E" width="10.53" height="7"/>
		<rect x="145.5" y="155.556" fill="#E8A61E" width="10.53" height="7"/>
		<rect x="99.97" y="174.678" fill="#E8A61E" width="10.53" height="7"/>
		<rect x="145.5" y="174.678" fill="#E8A61E" width="10.53" height="7"/>
		<path fill="#F0C020" d="M90.096,203.807v40.661c0,2.908,2.358,5.266,5.266,5.266h0c2.908,0,5.266-2.358,5.266-5.266v-40.661
			H90.096z"/>
		<path fill="#F0C020" d="M155.372,203.807v40.661c0,2.908,2.358,5.266,5.266,5.266h0c2.908,0,5.266-2.358,5.266-5.266v-40.661
			H155.372z"/>
		<rect x="90.1" y="203.808" fill="#E8A61E" width="10.53" height="7"/>
		<rect x="155.37" y="203.808" fill="#E8A61E" width="10.53" height="7"/>
		<path fill="#FC5D3D" d="M82.404,186.679v12.128c0,2.761,2.239,5,5,5h81.191c2.761,0,5-2.239,5-5v-12.128c0-2.761-2.239-5-5-5
			H87.404C84.643,181.679,82.404,183.918,82.404,186.679z"/>
		<path fill="#AFAFAF" d="M99.224,82.951v41.458c0,3.193,2.589,5.782,5.782,5.782h48.666c3.193,0,5.782-2.589,5.782-5.782V88.733
			c0-3.193-2.589-5.782-5.782-5.782H99.224z"/>
		<path fill="#EFEFEF" d="M99.224,82.951v12.942h60.23v-7.16c0-3.193-2.589-5.782-5.782-5.782H99.224z"/>
		<path fill="#AFAFAF" d="M99.224,82.951l-2.4-7.473c-0.976-3.04,0.697-6.297,3.737-7.273l46.336-14.881
			c3.04-0.976,6.297,0.697,7.273,3.737l0.632,1.968c0.976,3.04-0.697,6.297-3.737,7.273L99.224,82.951z"/>
		<path d="M202.465,109.072c-3.729-1.228-6.641-2.022-8.591-10.421c-0.635-2.737-4.548-2.73-5.181,0
			c-1.907,8.213-4.566,9.092-8.591,10.422c-2.424,0.801-2.43,4.248,0,5.051c6.686,2.209,7.444,5.476,8.591,10.421
			c0.637,2.743,4.545,2.742,5.182,0c1.905-8.212,4.709-9.139,8.591-10.421C204.889,113.322,204.895,109.874,202.465,109.072z"/>
		<path fill="#F0C020" d="M195.268,111.626c-1.47,1.03-2.79,2.42-3.93,4.43c-0.94-1.58-2.25-3.08-4.17-4.4
			c1.55-1.06,2.94-2.5,4.13-4.64C192.498,109.176,193.858,110.616,195.268,111.626z"/>
		<path d="M75.898,109.072c-3.729-1.228-6.641-2.022-8.591-10.421c-0.635-2.737-4.548-2.73-5.181,0
			c-1.907,8.213-4.566,9.092-8.591,10.422c-2.424,0.801-2.43,4.248,0,5.051c6.686,2.209,7.444,5.476,8.591,10.421
			c0.637,2.743,4.545,2.742,5.182,0c1.905-8.212,4.709-9.139,8.591-10.421C78.322,113.322,78.328,109.874,75.898,109.072z"/>
		<path fill="#F0C020" d="M68.701,111.626c-1.47,1.03-2.79,2.42-3.93,4.43c-0.94-1.58-2.25-3.08-4.17-4.4
			c1.55-1.06,2.94-2.5,4.13-4.64C65.931,109.176,67.291,110.616,68.701,111.626z"/>
		<path fill="#76FFBB" d="M35.21,224.447c-1.381,0-2.5-1.119-2.5-2.5v-3c0-1.381,1.119-2.5,2.5-2.5s2.5,1.119,2.5,2.5v3
			C37.71,223.328,36.591,224.447,35.21,224.447z M35.21,211.447c-1.381,0-2.5-1.119-2.5-2.5V51.177c0-1.381,1.119-2.5,2.5-2.5
			s2.5,1.119,2.5,2.5v157.771C37.71,210.328,36.591,211.447,35.21,211.447z"/>
		<path fill="#76FFBB" d="M220.79,224.447c-1.381,0-2.5-1.119-2.5-2.5V64.177c0-1.381,1.119-2.5,2.5-2.5s2.5,1.119,2.5,2.5v157.771
			C223.29,223.328,222.171,224.447,220.79,224.447z M220.79,56.677c-1.381,0-2.5-1.119-2.5-2.5v-3c0-1.381,1.119-2.5,2.5-2.5
			s2.5,1.119,2.5,2.5v3C223.29,55.558,222.171,56.677,220.79,56.677z"/>
		<path fill="#76FFBB" d="M236.149,18.766H32.851c-1.381,0-2.5-1.119-2.5-2.5s1.119-2.5,2.5-2.5h203.298c1.381,0,2.5,1.119,2.5,2.5
			S237.53,18.766,236.149,18.766z M22.851,18.766h-3c-1.381,0-2.5-1.119-2.5-2.5s1.119-2.5,2.5-2.5h3c1.381,0,2.5,1.119,2.5,2.5
			S24.232,18.766,22.851,18.766z"/>
		<path fill="#FFCBC3" d="M163.596,196.307h-58.191c-1.381,0-2.5-1.119-2.5-2.5s1.119-2.5,2.5-2.5h58.191c1.381,0,2.5,1.119,2.5,2.5
			S164.977,196.307,163.596,196.307z M95.404,196.307h-3c-1.381,0-2.5-1.119-2.5-2.5s1.119-2.5,2.5-2.5h3c1.381,0,2.5,1.119,2.5,2.5
			S96.785,196.307,95.404,196.307z"/>
		<path fill="#FFCBC3" d="M158.149,148.052h-3c-1.381,0-2.5-1.119-2.5-2.5s1.119-2.5,2.5-2.5h3c1.381,0,2.5,1.119,2.5,2.5
			S159.53,148.052,158.149,148.052z M145.149,148.052H97.851c-1.381,0-2.5-1.119-2.5-2.5s1.119-2.5,2.5-2.5h47.298
			c1.381,0,2.5,1.119,2.5,2.5S146.53,148.052,145.149,148.052z"/>
		<path d="M2.798,14.266v13.106c0,5.79,4.71,10.5,10.5,10.5h9.412v191.574H5.45c-1.381,0-2.5,1.119-2.5,2.5s1.119,2.5,2.5,2.5
			h82.146v10.021c0,4.282,3.484,7.766,7.766,7.766c4.282,0,7.766-3.484,7.766-7.766v-10.021h49.745v10.021
			c0,4.282,3.484,7.766,7.766,7.766c4.282,0,7.766-3.484,7.766-7.766v-10.021c9.15,0,68.853,0,82.146,0c1.381,0,2.5-1.119,2.5-2.5
			s-1.119-2.5-2.5-2.5h-17.26V147.38c0-1.38-1.12-2.5-2.5-2.5c-1.38,0-2.5,1.12-2.5,2.5v82.067h-59.886V206.31
			c4.548,0,7.691-3.528,7.691-7.503v-12.128c0-4.136-3.364-7.5-7.5-7.5h-10.064V158.05h4.618c4.136,0,7.5-3.364,7.5-7.5v-21.66
			c0-4.136-3.364-7.5-7.5-7.5h-1.195V88.733c0-4.566-3.715-8.282-8.282-8.282h-38.487l36.644-11.769
			c4.348-1.396,6.749-6.07,5.353-10.418l-0.632-1.967c-1.388-4.323-6.01-6.753-10.42-5.357l-10.15,3.26
			c-1.32,0.43-2.04,1.84-1.62,3.15c0.422,1.329,1.836,2.041,3.15,1.62l10.103-3.255c1.946-0.579,3.658,0.495,4.177,2.111
			l0.632,1.967c0.553,1.723-0.398,3.575-2.122,4.128l-49.46,15.885l-1.635-5.093c-0.551-1.714,0.39-3.554,2.097-4.117
			c0.009-0.003,0.019-0.004,0.028-0.007l17.13-5.51c1.32-0.42,2.04-1.83,1.62-3.14c-0.41-1.29-1.85-2.04-3.15-1.62l-17.079,5.494
			c-0.018,0.005-0.036,0.006-0.054,0.011c-4.348,1.397-6.749,6.07-5.353,10.418l2.28,7.1v38.047H92.85c-4.136,0-7.5,3.364-7.5,7.5
			v21.66c0,4.136,3.364,7.5,7.5,7.5h4.618v21.129H87.404c-4.136,0-7.5,3.364-7.5,7.5v12.128c0,3.947,3.115,7.503,7.691,7.503v23.137
			H27.71V37.873h200.58v89.507c0,1.37,1.12,2.5,2.5,2.5c1.38,0,2.5-1.13,2.5-2.5V37.873h9.412c5.79,0,10.5-4.71,10.5-10.5V14.266
			c0-5.79-4.71-10.5-10.5-10.5H13.298C7.508,3.766,2.798,8.477,2.798,14.266z M98.127,244.468c0,1.525-1.241,2.766-2.766,2.766
			c-1.525,0-2.766-1.241-2.766-2.766V231.99c0-0.015,0.004-0.029,0.004-0.044s-0.004-0.029-0.004-0.044V206.31h5.532V244.468z
			 M163.404,231.903c0,0.015-0.004,0.029-0.004,0.044s0.004,0.029,0.004,0.044v12.478c0,1.525-1.241,2.766-2.766,2.766
			c-1.525,0-2.766-1.241-2.766-2.766V206.31h5.532V231.903z M146.096,85.451h7.577c1.81,0,3.282,1.472,3.282,3.282v4.66h-10.859
			V85.451z M131.839,85.451h9.256v7.942h-9.256V85.451z M117.583,85.451h9.257v7.942h-9.257V85.451z M101.724,85.451h10.858v7.942
			h-10.858V85.451z M101.724,98.393h55.23c0,4.346,0,18.592,0,26.016c0,1.81-1.472,3.282-3.282,3.282h-48.667
			c-1.81,0-3.282-1.472-3.282-3.282V98.393z M92.85,153.05c-1.378,0-2.5-1.122-2.5-2.5v-21.66c0-1.378,1.122-2.5,2.5-2.5h4.124
			c0.892,3.611,4.15,6.3,8.032,6.3h48.667c3.883,0,7.141-2.689,8.033-6.3h1.445c1.378,0,2.5,1.122,2.5,2.5v21.66
			c0,1.378-1.122,2.5-2.5,2.5H92.85z M153.532,158.05v21.129H148V158.05H153.532z M143,158.05v21.129h-30V158.05H143z M108,158.05
			v21.129h-5.532V158.05H108z M87.433,201.31c-1.503-0.018-2.529-1.196-2.529-2.503v-12.128c0-1.378,1.122-2.5,2.5-2.5h81.191
			c1.378,0,2.5,1.122,2.5,2.5v12.128c0,1.378-1.122,2.5-2.5,2.5c-0.01,0-0.019,0.003-0.029,0.003c-6.792,0-22.181,0-24.167,0
			c-1.37,0-2.5,1.12-2.5,2.5c0,1.38,1.13,2.5,2.5,2.5h8.473v23.137h-49.745V206.31H124.4c1.38,0,2.5-1.12,2.5-2.5
			c0-1.38-1.12-2.5-2.5-2.5C117.04,201.31,137.981,201.31,87.433,201.31z M7.798,14.266c0-3.033,2.467-5.5,5.5-5.5h229.404
			c3.033,0,5.5,2.467,5.5,5.5v13.106c0,3.033-2.467,5.5-5.5,5.5H13.298c-3.033,0-5.5-2.467-5.5-5.5V14.266z"/>
		<circle cx="134.4" cy="203.81" r="2.5"/>
		<path d="M123.386,115.542h14.02c1.381,0,2.5-1.119,2.5-2.5s-1.119-2.5-2.5-2.5h-14.02c-1.381,0-2.5,1.119-2.5,2.5
			S122.005,115.542,123.386,115.542z"/>
		<path d="M126.46,57.26c-1.32,0.42-2.04,1.84-1.62,3.15c0.427,1.346,1.876,2.029,3.14,1.61c1.32-0.42,2.04-1.83,1.62-3.14
			C129.19,57.59,127.75,56.85,126.46,57.26z"/>
		<circle cx="230.79" cy="137.38" r="2.5"/>
	</g>
</g>
</svg>
