<?xml version="1.0" encoding="utf-8"?>
<!-- Generator: Adobe Illustrator 24.0.0, SVG Export Plug-In . SVG Version: 6.00 Build 0)  -->
<svg version="1.1" xmlns="http://www.w3.org/2000/svg" xmlns:xlink="http://www.w3.org/1999/xlink" x="0px" y="0px"
	 viewBox="0 0 256 256" enable-background="new 0 0 256 256" xml:space="preserve">
<g id="Caption">
</g>
<g id="Icons">
	<g>
		<path fill="#EFEFEF" d="M33.978,131.1v115.577c0,2.851,2.311,5.163,5.163,5.163h196.189c2.851,0,5.163-2.311,5.163-5.163V131.1
			H33.978z"/>
		<path fill="#AFAFAF" d="M233.207,244.73v7.11H41.127v-7.11c0-15.78,8.97-29.51,22.06-36.37c-3.15-4.07-5.04-9.16-5.04-14.7v-11.1
			c0-13.24,10.78-24.02,24.03-24.02c13.24,0,24.02,10.78,24.02,24.02v11.1c0,5.54-1.89,10.64-5.05,14.71
			c3.09,1.61,5.96,3.61,8.52,5.93c2.57-2.32,5.43-4.32,8.53-5.94c-3.16-4.07-5.04-9.16-5.04-14.7v-11.1
			c0-13.24,10.77-24.02,24.02-24.02c13.24,0,24.02,10.78,24.02,24.02v11.1c0,5.54-1.89,10.64-5.05,14.71
			c3.09,1.61,5.96,3.61,8.52,5.93c2.57-2.32,5.44-4.32,8.53-5.94c-3.16-4.07-5.04-9.16-5.04-14.7v-11.1
			c0-13.24,10.77-24.02,24.02-24.02s24.02,10.78,24.02,24.02v11.1c0,5.54-1.89,10.64-5.04,14.71
			C224.247,215.23,233.207,228.95,233.207,244.73z"/>
		<path fill="#72C2E9" d="M33.978,131.1V97.915h210.14c2.851,0,5.163,2.311,5.163,5.163v22.859c0,2.851-2.311,5.163-5.163,5.163
			H33.978z"/>
		<path fill="#72C2E9" d="M34.002,97.915l-8.29-26.938c-0.812-2.639,0.669-5.437,3.308-6.25L225.084,4.387
			c2.725-0.839,5.614,0.691,6.453,3.416l6.724,21.848c0.839,2.725-0.691,5.614-3.416,6.453L34.002,97.915z"/>
		<path fill="#4BA5C8" d="M33.997,97.91l-8.29-26.93c-0.47-1.52-0.18-3.09,0.66-4.3c1.63-0.26,3.3-0.4,5-0.4
			c14.47,0,26.71,9.77,30.46,23.06L33.997,97.91z"/>
		<path fill="#4BA5C8" d="M63.007,97.92c-0.01,16.57-12.81,30.19-29.03,31.52V97.92H63.007z"/>
		<path fill="#F0C020" d="M116.205,244.729v7.11H48.129v-7.11c0-18.794,15.232-34.032,34.027-34.038h0
			C100.959,210.684,116.205,225.926,116.205,244.729z"/>
		<path fill="#E8A61E" d="M116.207,244.73v7.11h-20.08v-7.11c0-9.55,3.28-18.35,8.77-25.33
			C111.837,225.63,116.207,234.67,116.207,244.73z"/>
		<path fill="#FFB69F" d="M99.195,182.564v11.099c0,9.409-7.645,17.022-17.022,17.022c-9.317,0-17.022-7.55-17.022-17.022v-11.099
			c0-9.407,7.628-17.022,17.022-17.022C91.563,165.542,99.195,173.157,99.195,182.564z"/>
		<path fill="#FC5D3D" d="M226.209,244.729v7.11h-68.077v-7.11c0-18.794,15.232-34.032,34.027-34.038h0
			C210.963,210.684,226.209,225.926,226.209,244.729z"/>
		<path fill="#B25035" d="M178.207,244.73v7.11h-20.07v-7.11c0-10.06,4.37-19.11,11.31-25.34
			C174.927,226.37,178.207,235.17,178.207,244.73z"/>
		<path fill="#FFB69F" d="M209.199,182.564v11.099c0,9.409-7.645,17.022-17.022,17.022c-9.317,0-17.022-7.55-17.022-17.022v-11.099
			c0-9.407,7.628-17.022,17.022-17.022C201.567,165.542,209.199,173.157,209.199,182.564z"/>
		<path fill="#72C2E9" d="M171.207,244.729v7.11h-68.077v-7.11c0-18.794,15.232-34.032,34.027-34.038h0
			C155.961,210.684,171.207,225.926,171.207,244.729z"/>
		<path fill="#FFB69F" d="M154.197,182.564v11.099c0,9.409-7.645,17.022-17.022,17.022c-9.317,0-17.022-7.55-17.022-17.022v-11.099
			c0-9.407,7.628-17.022,17.022-17.022C146.565,165.542,154.197,173.157,154.197,182.564z"/>
		
			<ellipse transform="matrix(0.3827 -0.9239 0.9239 0.3827 -71.0994 89.4221)" fill="#F0C020" cx="31.365" cy="97.915" rx="24.638" ry="24.638"/>
		<path fill="#E8A61E" d="M31.365,113.289c-8.478,0-15.375-6.896-15.375-15.374s6.897-15.374,15.375-15.374
			c8.477,0,15.374,6.896,15.374,15.374S39.842,113.289,31.365,113.289z"/>
		<path fill="#FC5D3D" d="M31.365,106.289c-4.618,0-8.374-3.757-8.374-8.374c0-4.618,3.757-8.374,8.374-8.374
			s8.374,3.757,8.374,8.374C39.739,102.532,35.983,106.289,31.365,106.289z"/>
		<path d="M41.541,33.507c-3.729-1.228-6.641-2.022-8.591-10.421c-0.635-2.737-4.548-2.73-5.181,0
			c-1.907,8.213-4.566,9.092-8.591,10.422c-2.424,0.801-2.43,4.248,0,5.051c6.686,2.209,7.444,5.476,8.591,10.421
			c0.637,2.743,4.545,2.742,5.182,0c1.905-8.212,4.709-9.139,8.591-10.421C43.965,37.757,43.971,34.31,41.541,33.507z"/>
		<path fill="#F0C020" d="M34.344,36.062c-1.47,1.03-2.79,2.42-3.93,4.43c-0.94-1.58-2.25-3.08-4.17-4.4
			c1.55-1.06,2.94-2.5,4.13-4.64C31.574,33.612,32.934,35.052,34.344,36.062z"/>
		<path d="M223.111,69.199c-3.729-1.228-6.641-2.022-8.591-10.421c-0.635-2.737-4.548-2.73-5.181,0
			c-1.907,8.213-4.566,9.092-8.591,10.422c-2.424,0.801-2.43,4.248,0,5.051c6.686,2.209,7.444,5.476,8.591,10.421
			c0.637,2.743,4.545,2.742,5.182,0c1.905-8.212,4.709-9.139,8.591-10.421C225.535,73.449,225.541,70.001,223.111,69.199z"/>
		<path fill="#F0C020" d="M215.914,71.753c-1.47,1.03-2.79,2.42-3.93,4.43c-0.94-1.58-2.25-3.08-4.17-4.4
			c1.55-1.06,2.94-2.5,4.13-4.64C213.144,69.303,214.504,70.743,215.914,71.753z"/>
		<path fill="#B7E5FF" d="M239.28,123.6h-3c-1.381,0-2.5-1.119-2.5-2.5s1.119-2.5,2.5-2.5h3c1.381,0,2.5,1.119,2.5,2.5
			S240.661,123.6,239.28,123.6z M226.28,123.6H67.239c-1.381,0-2.5-1.119-2.5-2.5s1.119-2.5,2.5-2.5H226.28
			c1.381,0,2.5,1.119,2.5,2.5S227.661,123.6,226.28,123.6z"/>
		<path fill="#B7E5FF" d="M58.45,66.133c-0.406-1.319,0.334-2.719,1.653-3.125l2.867-0.883c1.32-0.406,2.719,0.333,3.125,1.654
			c0.406,1.319-0.334,2.719-1.653,3.125l-2.867,0.883C60.246,68.194,58.854,67.446,58.45,66.133z M70.875,62.308
			c-0.406-1.319,0.334-2.719,1.654-3.125l150.138-46.205c1.318-0.406,2.718,0.335,3.125,1.654c0.406,1.319-0.334,2.719-1.654,3.125
			L74,63.963C72.666,64.372,71.277,63.615,70.875,62.308z"/>
		<path fill="#FFFFFF" d="M230.492,143.6H56.978c-1.381,0-2.5-1.119-2.5-2.5s1.119-2.5,2.5-2.5h173.515c1.381,0,2.5,1.119,2.5,2.5
			S231.873,143.6,230.492,143.6z M46.978,143.6h-3c-1.381,0-2.5-1.119-2.5-2.5s1.119-2.5,2.5-2.5h3c1.381,0,2.5,1.119,2.5,2.5
			S48.358,143.6,46.978,143.6z"/>
		<path d="M222.143,228.398c1.157-0.742,1.498-2.276,0.75-3.46c-0.72-1.12-2.33-1.47-3.46-0.739c-1.16,0.75-1.49,2.3-0.74,3.46
			C219.448,228.823,221.002,229.142,222.143,228.398z"/>
		<circle cx="33.973" cy="187.678" r="2.5"/>
		<path d="M10.603,111.428c-1.071,0.865-1.235,2.439-0.37,3.51c0.896,1.103,2.484,1.22,3.51,0.38c1.1-0.888,1.227-2.457,0.39-3.5
			c0-0.01-0.01-0.01-0.01-0.01C13.293,110.768,11.643,110.589,10.603,111.428z"/>
		<path d="M4.223,97.919c0,2.47,0.34,4.93,1,7.3c0.386,1.388,1.854,2.117,3.08,1.73c1.325-0.352,2.1-1.755,1.73-3.07
			c-0.528-1.921-0.807-3.923-0.809-5.934c0-0.01,0.003-0.02,0.003-0.03c0-12.207,9.931-22.138,22.138-22.138
			s22.138,9.931,22.138,22.138c0,12.205-9.927,22.134-22.131,22.138c-0.002-0.002-0.005-0.005-0.01-0.005
			c-3.66,0-7.14-0.86-10.36-2.56c-1.208-0.638-2.729-0.191-3.37,1.029c-0.646,1.192-0.219,2.712,1.03,3.391
			c3.971,2.108,8.47,3.17,12.814,3.142c0,4.267-0.004-0.475-0.004,52.628c0,1.38,1.13,2.5,2.5,2.5c1.38,0,2.5-1.12,2.5-2.5v-44.079
			c55.93,0,128.57,0,163.65,0c0.003,0,0.007,0.001,0.01,0.001s0.007-0.001,0.01-0.001h37.853v113.08c0,1.467-1.198,2.66-2.67,2.66
			h-6.617l-0.007-4.611c0-3.41-0.47-6.79-1.39-10.04c-0.38-1.3-1.8-2.09-3.1-1.72c-1.32,0.38-2.09,1.76-1.71,3.09
			c0.8,2.811,1.2,5.73,1.2,8.67v4.611h-49.996v-4.61c0-7.201-2.075-14.081-5.932-19.966c5.951-7.267,14.937-11.564,24.382-11.573
			h0.02v-0.002c0.002,0,0.004,0,0.006,0c7.48,0,14.73,2.67,20.42,7.521c1.041,0.878,2.615,0.768,3.53-0.28
			c0.903-1.07,0.756-2.638-0.28-3.53c-3.763-3.209-8.121-5.589-12.781-7.044c5.2-3.511,8.627-9.458,8.627-16.191v-11.099
			c0-10.765-8.757-19.522-19.522-19.522s-19.522,8.758-19.522,19.522v11.099c0,6.741,3.436,12.694,8.647,16.204
			c-6.386,2.001-12.162,5.739-16.62,10.833c-0.541-0.617-1.096-1.225-1.681-1.811c-4.244-4.243-9.349-7.307-14.918-9.042
			c5.193-3.512,8.614-9.456,8.614-16.183v-11.099c0-10.765-8.757-19.522-19.522-19.522s-19.522,8.758-19.522,19.522v11.099
			c0,6.73,3.424,12.676,8.621,16.188c-6.5,2.035-12.218,5.847-16.6,10.857c-4.464-5.097-10.242-8.836-16.629-10.839
			c5.213-3.509,8.65-9.463,8.65-16.206v-11.099c0-10.765-8.757-19.522-19.522-19.522s-19.522,8.758-19.522,19.522v11.099
			c0,6.731,3.424,12.677,8.622,16.188C56.43,214.5,45.627,228.38,45.627,244.73v4.609h-6.49c-1.467,0-2.66-1.193-2.66-2.66
			c0-0.013-0.004-0.025-0.004-0.039v-48.962c0-1.38-1.12-2.5-2.5-2.5c-1.37,0-2.5,1.12-2.5,2.5v49c0,0.026,0.007,0.05,0.008,0.076
			c0.041,4.189,3.458,7.585,7.656,7.585h196.19c4.229,0,7.67-3.437,7.67-7.66v-113.08h1.12c4.224,0,7.66-3.436,7.66-7.659v-22.86
			c0-4.224-3.436-7.66-7.66-7.66c-19.028,0-161.783,0-185.733,0c-0.071-0.777-0.178-1.543-0.313-2.3
			c18.185-5.597,153.885-47.359,177.506-54.629c4.042-1.233,6.32-5.517,5.07-9.576l-6.721-21.853
			c-1.247-4.036-5.542-6.303-9.574-5.063C202.415,8.751,54.559,54.253,28.284,62.34c-3.963,1.216-6.183,5.41-4.967,9.374l0.08,0.259
			C12.323,75.381,4.249,85.697,4.228,97.868C4.228,97.885,4.223,97.901,4.223,97.919z M177.655,193.663v-11.099
			c0-8.008,6.515-14.522,14.522-14.522s14.522,6.515,14.522,14.522v11.099c0,8.008-6.515,14.522-14.522,14.522
			S177.655,201.671,177.655,193.663z M122.653,193.663v-11.099c0-8.008,6.515-14.522,14.522-14.522s14.522,6.515,14.522,14.522
			v11.099c0,8.008-6.515,14.522-14.522,14.522S122.653,201.671,122.653,193.663z M67.651,193.663v-11.099
			c0-8.008,6.515-14.522,14.522-14.522s14.522,6.515,14.522,14.522v11.099c0,8.008-6.515,14.522-14.522,14.522
			S67.651,201.671,67.651,193.663z M100.631,249.34H50.627v-4.609c0-17.382,14.145-31.531,31.55-31.54
			c9.443,0,18.439,4.303,24.407,11.586c-3.758,5.741-5.953,12.594-5.953,19.953V249.34z M168.707,249.34h-63.076v-4.61
			c0-17.385,14.143-31.532,31.527-31.538c0.004,0,0.008,0,0.012,0c17.424,0,31.537,14.1,31.537,31.538V249.34z M234.35,100.42h9.768
			c1.466,0,2.66,1.193,2.66,2.66v22.86c0,1.466-1.193,2.659-2.66,2.659H206.17L234.35,100.42z M191.569,100.42h35.71l-28.18,28.18
			h-35.71L191.569,100.42z M148.789,100.42h35.71l-28.179,28.18h-35.71L148.789,100.42z M106.008,100.42h35.71l-28.179,28.18h-35.71
			L106.008,100.42z M58.383,100.42h40.555l-28.179,28.18H36.477v-4.036C48.204,122.319,57.271,112.506,58.383,100.42z
			 M216.487,9.652l9.337-2.874c1.403-0.431,2.891,0.357,3.323,1.756l6.72,21.852c0.431,1.401-0.341,2.893-1.756,3.324
			l-36.268,11.162L216.487,9.652z M175.6,22.235l34.129-10.503l-18.643,35.22l-34.129,10.504L175.6,22.235z M134.712,34.818
			l34.129-10.503l-18.644,35.22l-34.129,10.504L134.712,34.818z M93.823,47.402l34.13-10.504l-18.643,35.22L75.18,82.623
			L93.823,47.402z M29.752,67.12l57.312-17.638L68.421,84.702l-11.684,3.596c-3.891-10.23-13.794-17.521-25.372-17.521
			c-1.032,0-2.049,0.063-3.051,0.176l-0.217-0.707C27.693,68.929,28.424,67.528,29.752,67.12z"/>
		<path d="M31.365,108.789c5.996,0,10.874-4.878,10.874-10.874S37.361,87.04,31.365,87.04s-10.875,4.879-10.875,10.875
			S25.369,108.789,31.365,108.789z M31.365,92.04c3.239,0,5.874,2.636,5.874,5.875s-2.635,5.874-5.874,5.874
			c-3.239,0-5.875-2.635-5.875-5.874S28.126,92.04,31.365,92.04z"/>
	</g>
</g>
</svg>
