<?xml version="1.0" encoding="utf-8"?>
<!-- Generator: Adobe Illustrator 24.0.0, SVG Export Plug-In . SVG Version: 6.00 Build 0)  -->
<svg version="1.1" xmlns="http://www.w3.org/2000/svg" xmlns:xlink="http://www.w3.org/1999/xlink" x="0px" y="0px"
	 viewBox="0 0 256 256" enable-background="new 0 0 256 256" xml:space="preserve">
<g id="Caption">
</g>
<g id="Icons">
	<g>
		<circle fill="#F0C020" cx="185.275" cy="71.089" r="65.989"/>
		<path fill="#878787" d="M131.416,183.182c0.744-1.993,1.17-4.141,1.17-6.393c0-10.114-8.198-18.312-18.312-18.312
			c-10.113,0-18.312,8.198-18.312,18.312c0,7.588,4.616,14.098,11.193,16.876c-0.744,1.993-1.17,4.141-1.17,6.393
			c0,10.113,8.198,18.311,18.312,18.311c10.113,0,18.312-8.198,18.312-18.311C142.609,192.47,137.993,185.96,131.416,183.182z"/>
		<path fill="#878787" d="M15.926,183.182c-0.744-1.993-1.17-4.141-1.17-6.393c0-10.114,8.198-18.312,18.312-18.312
			c10.113,0,18.312,8.198,18.312,18.312c0,7.588-4.616,14.098-11.193,16.876c0.744,1.993,1.17,4.141,1.17,6.393
			c0,10.113-8.198,18.311-18.312,18.311c-10.113,0-18.312-8.198-18.312-18.311C4.733,192.47,9.349,185.96,15.926,183.182z"/>
		<path fill="#FC5D3D" d="M31.904,124.442l5.76,49.046h72.016l5.76-49.046c0.368-3.135-2.081-5.889-5.238-5.889h-73.06
			C33.985,118.553,31.536,121.307,31.904,124.442z"/>
		<path fill="#FFB69F" d="M36.313,183.715h1.35v26.547h-1.35c-7.33,0-13.268-5.938-13.268-13.268
			C23.045,189.698,28.944,183.715,36.313,183.715z"/>
		<path fill="#FFB69F" d="M124.298,196.994c0,7.327-5.927,13.268-13.268,13.268h-1.35v-26.547h1.35
			C118.359,183.715,124.298,189.663,124.298,196.994z"/>
		<path fill="#EFEFEF" d="M73.671,250.9L73.671,250.9c-19.887,0-36.008-16.121-36.008-36.008v-31.177h72.016v31.177
			C109.679,234.779,93.558,250.9,73.671,250.9z"/>
		<rect x="37.664" y="183.71" fill="#AFAFAF" width="72.01" height="7"/>
		<circle fill="#FC5D3D" cx="73.671" cy="206.818" r="6.76"/>
		<path fill="#E8A61E" d="M134.288,88.664c-5.921-5.922-5.921-15.556-0.001-21.477l20.018-20.018
			c-0.492-7.851,2.687-16.03,8.78-22.124c10.759-10.759,27.316-11.93,37.033-2.212c9.6,9.6,8.607,26.212-2.212,37.032
			c-5.795,5.794-13.887,9.295-22.124,8.779l-20.018,20.019C149.829,94.597,140.223,94.6,134.288,88.664z"/>
		<path fill="#FC5D3D" d="M192.955,54.916c8.104-8.104,9.094-20.251,2.212-27.133c-6.882-6.882-19.029-5.891-27.133,2.212
			c-5.641,5.641-7.825,13.239-6.315,19.659l-22.482,22.482c-3.197,3.197-3.197,8.38,0,11.576l0,0c3.197,3.197,8.38,3.197,11.576,0
			l22.482-22.482C179.716,62.741,187.313,60.557,192.955,54.916z"/>
		<path fill="#EFEFEF" d="M192.952,54.917c-1.542,1.542-3.242,2.831-5.022,3.851L164.181,35.02c1.02-1.779,2.301-3.472,3.851-5.022
			c1.257-1.257,2.61-2.341,4.025-3.25l24.144,24.144C195.292,52.307,194.209,53.66,192.952,54.917z"/>
		<path fill="#E8A61E" d="M170.254,119.345c-9.6-9.601-8.607-26.213,2.212-37.033c5.811-5.809,13.906-9.294,22.124-8.779
			l20.018-20.019c5.934-5.933,15.54-5.936,21.476,0c5.921,5.922,5.921,15.556,0.001,21.477l-20.018,20.018
			c0.491,7.851-2.687,16.03-8.78,22.124C196.527,127.892,179.972,129.062,170.254,119.345z"/>
		<path fill="#FC5D3D" d="M177.416,87.262c-8.104,8.104-9.094,20.251-2.212,27.133c6.882,6.882,19.029,5.891,27.133-2.212
			c5.641-5.641,7.825-13.239,6.315-19.659l22.482-22.482c3.197-3.197,3.197-8.38,0-11.576l0,0c-3.197-3.197-8.38-3.197-11.576,0
			l-22.482,22.482C190.655,79.438,183.057,81.621,177.416,87.262z"/>
		<path fill="#EFEFEF" d="M177.419,87.261c1.542-1.542,3.242-2.831,5.022-3.851l23.749,23.749c-1.02,1.779-2.301,3.472-3.851,5.022
			c-1.257,1.257-2.61,2.341-4.025,3.25l-24.144-24.144C175.079,89.871,176.162,88.519,177.419,87.261z"/>
		<path d="M84.854,83.583c-3.729-1.228-6.641-2.022-8.591-10.421c-0.635-2.737-4.548-2.73-5.181,0
			c-1.907,8.213-4.566,9.092-8.591,10.422c-2.424,0.801-2.43,4.248,0,5.051c6.686,2.209,7.444,5.476,8.591,10.421
			c0.637,2.743,4.545,2.742,5.182,0c1.905-8.212,4.709-9.139,8.591-10.421C87.278,87.833,87.283,84.385,84.854,83.583z"/>
		<path fill="#F0C020" d="M77.657,86.137c-1.47,1.03-2.79,2.42-3.93,4.43c-0.94-1.58-2.25-3.08-4.17-4.4
			c1.55-1.06,2.94-2.5,4.13-4.64C74.887,83.687,76.247,85.127,77.657,86.137z"/>
		<path d="M172.615,171.344c-3.729-1.228-6.641-2.022-8.591-10.421c-0.635-2.737-4.548-2.73-5.181,0
			c-1.907,8.213-4.566,9.092-8.591,10.422c-2.424,0.801-2.43,4.248,0,5.051c6.686,2.209,7.444,5.476,8.591,10.421
			c0.637,2.743,4.545,2.742,5.182,0c1.905-8.212,4.709-9.139,8.591-10.421C175.039,175.594,175.044,172.146,172.615,171.344z"/>
		<path fill="#F0C020" d="M165.418,173.898c-1.47,1.03-2.79,2.42-3.93,4.43c-0.94-1.58-2.25-3.08-4.17-4.4
			c1.55-1.06,2.94-2.5,4.13-4.64C162.648,171.449,164.008,172.889,165.418,173.898z"/>
		<path fill="#F0C020" d="M28.094,178.715L28.094,178.715c0,2.761,2.239,5,5,5h81.155c2.761,0,5-2.239,5-5l0,0c0-2.761-2.239-5-5-5
			H33.094C30.333,173.715,28.094,175.954,28.094,178.715z"/>
		<path fill="#F0C020" d="M144.409,103.471l-16.848,16.848c-2.343,2.343-2.343,6.142,0,8.485h0c2.343,2.343,6.142,2.343,8.485,0
			l16.848-16.848L144.409,103.471z"/>
		<path fill="#FFCBC3" d="M100.493,165.972c-1.372-0.161-2.353-1.403-2.191-2.775l3.775-32.144H86.672c-1.381,0-2.5-1.119-2.5-2.5
			s1.119-2.5,2.5-2.5h18.215c1.495,0,2.658,1.306,2.483,2.792l-4.103,34.936C103.111,165.113,101.916,166.126,100.493,165.972z
			 M76.672,131.053h-3c-1.381,0-2.5-1.119-2.5-2.5s1.119-2.5,2.5-2.5h3c1.381,0,2.5,1.119,2.5,2.5S78.053,131.053,76.672,131.053z"
			/>
		<path d="M2.236,200.056c0,11.475,9.335,20.81,20.81,20.81c4.468,0,8.685-1.388,12.174-3.917
			c1.072,20.281,17.908,36.452,38.452,36.452c20.544,0,37.38-16.171,38.452-36.453c3.489,2.529,7.707,3.918,12.175,3.918
			c11.475,0,20.81-9.335,20.81-20.81c0-7.611-4.121-14.521-10.668-18.176c0.431-1.683,0.648-3.387,0.648-5.091
			c0-11.475-9.335-20.81-20.81-20.81c-0.009,0-0.017,0.001-0.026,0.001l3.669-31.246c0.543-4.619-3.072-8.681-7.721-8.681h-73.06
			c-4.651,0-8.263,4.063-7.721,8.681l3.669,31.246c-0.008,0-0.016-0.001-0.025-0.001c-13.584,0-23.509,12.866-20.166,25.901
			C6.354,185.533,2.236,192.441,2.236,200.056z M35.163,207.701c-5.399-0.576-9.618-5.158-9.618-10.707
			c0-5.555,4.219-10.142,9.618-10.718V207.701z M107.179,214.893c0,18.477-15.032,33.508-33.508,33.508
			s-33.508-15.031-33.508-33.508v-28.678h67.016C107.179,196.995,107.179,204.587,107.179,214.893z M130.088,176.789
			c0,1.847-0.342,3.705-1.015,5.523c-0.464,1.253,0.139,2.648,1.369,3.17c5.872,2.488,9.666,8.208,9.666,14.573
			c0,8.718-7.092,15.81-15.81,15.81c-3.676,0-7.123-1.243-9.89-3.478c7.074-1.552,12.389-7.86,12.389-15.394
			c0-5.491-2.821-10.331-7.085-13.158c1.259-1.342,2.036-3.141,2.036-5.121c0-4.197-3.441-7.505-7.504-7.505h-1.78l1.199-10.206
			C122.728,160.648,130.088,167.924,130.088,176.789z M112.179,207.701v-21.426c5.399,0.577,9.618,5.164,9.618,10.719
			C121.797,202.543,117.578,207.125,112.179,207.701z M37.142,121.054h73.06c1.645,0,2.951,1.43,2.755,3.097l-5.526,47.06H76.254
			c-1.38,0-2.51,1.13-2.51,2.51c0,1.37,1.13,2.49,2.51,2.49c9.735,0,28.684,0,37.946,0c1.528,0.023,2.548,1.196,2.548,2.505
			c0,1.379-1.122,2.5-2.5,2.5c-15.309,0-65.776,0-81.155,0c-1.378,0-2.5-1.121-2.5-2.5c0-1.299,1.009-2.482,2.548-2.505h23.112
			c1.37,0,2.49-1.12,2.49-2.49c0-1.38-1.12-2.51-2.49-2.51H39.913l-5.526-47.06C34.194,122.516,35.464,121.054,37.142,121.054z
			 M16.901,185.483c1.235-0.522,1.838-1.927,1.366-3.182c-3.948-10.511,4.097-21.729,15.413-21.298l1.199,10.207h-1.785
			c-4.045,0-7.5,3.297-7.5,7.505c0,1.981,0.777,3.78,2.036,5.122c-4.264,2.827-7.085,7.667-7.085,13.158
			c0,7.534,5.315,13.842,12.391,15.394c-2.766,2.234-6.214,3.477-9.89,3.477c-8.718,0-15.81-7.092-15.81-15.81
			C7.236,193.687,11.03,187.967,16.901,185.483z"/>
		<path d="M55.497,201.731c1.381,0,2.5-1.119,2.5-2.5v-4.131c0-1.381-1.119-2.5-2.5-2.5s-2.5,1.119-2.5,2.5v4.131
			C52.997,200.612,54.116,201.731,55.497,201.731z"/>
		<path d="M91.846,201.731c1.381,0,2.5-1.119,2.5-2.5v-4.131c0-1.381-1.119-2.5-2.5-2.5s-2.5,1.119-2.5,2.5v4.131
			C89.346,200.612,90.465,201.731,91.846,201.731z"/>
		<path d="M73.671,234.809c8.688,0,15.757-7.069,15.757-15.758c0-1.381-1.119-2.5-2.5-2.5s-2.5,1.119-2.5,2.5
			c0,5.932-4.826,10.758-10.757,10.758s-10.758-4.826-10.758-10.758c0-1.381-1.119-2.5-2.5-2.5s-2.5,1.119-2.5,2.5
			C57.914,227.739,64.982,234.809,73.671,234.809z"/>
		<path d="M73.671,216.078c5.106,0,9.26-4.154,9.26-9.26c0-5.106-4.154-9.261-9.26-9.261s-9.26,4.154-9.26,9.261
			C64.411,211.924,68.565,216.078,73.671,216.078z M73.671,202.558c2.349,0,4.26,1.911,4.26,4.261c0,2.349-1.911,4.26-4.26,4.26
			s-4.26-1.911-4.26-4.26C69.411,204.469,71.322,202.558,73.671,202.558z"/>
		<path d="M146.514,68.39c0.971-0.971,0.976-2.552,0-3.53c-0.94-0.949-2.59-0.949-3.53,0c-0.994,0.975-0.98,2.571,0,3.53
			C143.965,69.37,145.545,69.358,146.514,68.39z"/>
		<path d="M139.134,71.71c-1.16-0.66-2.75-0.22-3.4,0.939c-0.01,0-0.01,0-0.01,0.011c-2.275,3.998-1.79,9.232,1.687,12.75
			c0.021,0.023,0.036,0.049,0.058,0.071c4.165,4.165,10.945,4.166,15.111,0l21.542-21.54c7.494,1.202,15.234-1.892,20.6-7.258
			c8.648-8.648,10.362-22.519,2.212-30.668c-8.183-8.182-22.048-6.408-30.667,2.213c-5.377,5.376-8.457,13.127-7.256,20.604
			l-8.957,8.958c-0.98,0.97-0.98,2.56,0,3.529c0.979,0.98,2.563,0.968,3.53,0l9.9-9.899c1.068-1.035,0.642-2.452,0.669-2.337
			c-0.744-3.164-0.438-6.565,0.766-9.791l18.738,18.739c-3.225,1.204-6.625,1.509-9.79,0.767c-0.842-0.2-1.728,0.054-2.339,0.666
			l-22.483,22.482c-2.217,2.217-5.824,2.217-8.041,0c-0.003-0.003-0.008-0.006-0.011-0.009c-1.793-1.821-2.182-4.583-0.92-6.817
			C140.778,73.883,140.307,72.366,139.134,71.71z M193.399,29.551c4.296,4.296,4.918,11.079,2.195,17.198l-19.393-19.393
			C182.321,24.634,189.104,25.255,193.399,29.551z M167.361,34.665c0.715-1.018,1.531-1.991,2.441-2.901
			c0.636-0.636,1.308-1.206,1.994-1.743l21.134,21.134c-0.538,0.686-1.107,1.358-1.743,1.994c-0.91,0.91-1.883,1.726-2.901,2.441
			L167.361,34.665z"/>
		<path d="M232.902,56.697c-4.175-4.175-10.936-4.178-15.112,0l-21.541,21.54c-7.482-1.199-15.222,1.877-20.601,7.257
			c-8.641,8.64-10.461,22.42-2.212,30.668c8.108,8.11,21.912,6.544,30.668-2.212c5.302-5.303,8.472-13.024,7.257-20.601
			l21.541-21.541C237.076,67.634,237.079,60.873,232.902,56.697z M176.971,112.627c-4.463-4.464-4.822-11.309-2.199-17.202
			l19.398,19.397C188.05,117.545,181.267,116.923,176.971,112.627z M200.569,110.415c-0.636,0.636-1.308,1.205-1.993,1.743
			l-21.136-21.136c0.541-0.688,1.112-1.36,1.745-1.993c0.91-0.91,1.883-1.725,2.901-2.44l20.925,20.925
			C202.294,108.532,201.479,109.505,200.569,110.415z M229.367,68.273l-22.482,22.482c-0.612,0.612-0.864,1.497-0.666,2.34
			c0.744,3.163,0.438,6.563-0.766,9.789l-18.738-18.738c3.225-1.204,6.625-1.51,9.79-0.766c0.842,0.2,1.728-0.054,2.34-0.666
			l22.483-22.482c2.22-2.221,5.818-2.223,8.041,0C231.588,62.455,231.589,66.05,229.367,68.273z"/>
		<path d="M66.244,176.21c1.38,0,2.5-1.12,2.5-2.49c0-1.38-1.12-2.51-2.5-2.51c-1.37,0-2.5,1.13-2.5,2.51
			C63.744,175.09,64.874,176.21,66.244,176.21z"/>
		<path d="M185.274,2.6c-37.765,0-68.49,30.725-68.49,68.49c0,15.23,5.116,30.061,14.434,42.033l-5.418,5.426
			c-3.345,3.33-3.32,8.717-0.012,12.011c3.321,3.35,8.74,3.319,12.022,0.01l5.431-5.423c11.972,9.317,26.803,14.434,42.032,14.434
			c23.667,0,45.171-12.117,57.63-31.471c0.74-1.149,0.41-2.699-0.75-3.449c-1.13-0.73-2.74-0.37-3.46,0.75
			c-11.76,18.27-31.73,29.17-53.42,29.17c-14.826,0-29.251-5.221-40.619-14.7c-0.944-0.788-2.435-0.777-3.368,0.15l-7.019,7.01
			c-1.305,1.314-3.613,1.326-4.941-0.012c-0.662-0.659-1.026-1.536-1.026-2.469c0-0.932,0.365-1.809,1.032-2.473l7-7.011
			c0.92-0.92,0.947-2.417,0.151-3.368c-9.479-11.366-14.7-25.791-14.7-40.618c0-35.009,28.481-63.49,63.49-63.49
			c35.009,0,63.49,28.481,63.49,63.49c0,5.71-0.76,11.37-2.25,16.83c-0.37,1.33,0.42,2.71,1.74,3.07
			c1.38,0.373,2.721-0.459,3.08-1.75c1.61-5.891,2.43-12,2.43-18.15C253.764,33.324,223.04,2.6,185.274,2.6z"/>
		<path d="M247.834,99c0.56-1.26,0-2.74-1.26-3.3c-1.23-0.551-2.75,0.04-3.3,1.25c0,0.01,0,0.01,0,0.01
			c-0.57,1.242-0.031,2.718,1.26,3.31C245.78,100.817,247.271,100.267,247.834,99z"/>
	</g>
</g>
</svg>
