<?xml version="1.0" encoding="utf-8"?>
<!-- Generator: Adobe Illustrator 24.0.0, SVG Export Plug-In . SVG Version: 6.00 Build 0)  -->
<svg version="1.1" xmlns="http://www.w3.org/2000/svg" xmlns:xlink="http://www.w3.org/1999/xlink" x="0px" y="0px"
	 viewBox="0 0 256 256" enable-background="new 0 0 256 256" xml:space="preserve">
<g id="Caption">
</g>
<g id="Icons">
	<g>
		<rect x="23.397" y="111.327" fill="#72C2E9" width="208.64" height="114.38"/>
		<path fill="#4BA5C8" d="M222.659,205.961c0-9.209-7.493-16.702-16.702-16.702s-16.702,7.492-16.702,16.702
			c0,5.107,2.31,9.68,5.933,12.746h-30.621c3.623-3.066,5.933-7.639,5.933-12.746c0-9.209-7.493-16.702-16.702-16.702
			s-16.702,7.492-16.702,16.702c0,5.107,2.31,9.68,5.933,12.746h-30.622c3.623-3.066,5.933-7.639,5.933-12.746
			c0-9.209-7.493-16.702-16.702-16.702s-16.702,7.492-16.702,16.702c0,5.107,2.31,9.68,5.933,12.746H60.247
			c3.623-3.066,5.933-7.639,5.933-12.746c0-9.209-7.493-16.702-16.702-16.702s-16.702,7.492-16.702,16.702
			c0,5.107,2.31,9.68,5.933,12.746H23.397v7h208.64v-7h-15.312C220.349,215.641,222.659,211.068,222.659,205.961z"/>
		<path fill="#4BA5C8" d="M23.397,111.327v7h41.385c-3.62,3.066-5.927,7.636-5.927,12.74c0,9.209,7.493,16.702,16.702,16.702
			s16.702-7.493,16.702-16.702c0-5.104-2.307-9.674-5.927-12.74h30.609c-3.62,3.066-5.927,7.636-5.927,12.74
			c0,9.209,7.493,16.702,16.702,16.702s16.702-7.493,16.702-16.702c0-5.104-2.307-9.674-5.927-12.74h30.609
			c-3.62,3.066-5.927,7.636-5.927,12.74c0,9.209,7.493,16.702,16.702,16.702s16.702-7.493,16.702-16.702
			c0-5.104-2.307-9.674-5.927-12.74h41.385v-7H23.397z"/>
		<rect x="23.397" y="131.067" fill="#F0C020" width="208.64" height="74.89"/>
		<path fill="#E8A61E" d="M232.037,131.067h-7.41l-18.67,53.61l-14.491-41.611c3.145-3.038,5.111-7.29,5.111-11.999h-33.4
			c0,4.709,1.966,8.961,5.111,11.999l-14.491,41.611l-14.491-41.611c3.145-3.038,5.111-7.29,5.111-11.999h-33.4
			c0,4.709,1.966,8.961,5.111,11.999l-14.491,41.611l-14.491-41.611c3.145-3.038,5.111-7.29,5.111-11.999h-33.4
			c0,4.709,1.966,8.961,5.111,11.999l-14.491,41.611l-18.67-53.61h-7.41v21.28l14.491,41.611c-3.145,3.038-5.111,7.29-5.111,11.999
			h33.4c0-4.708-1.965-8.959-5.11-11.998c4.113-11.809,9.982-28.666,14.49-41.602l14.491,41.601
			c-3.145,3.038-5.111,7.29-5.111,11.999h33.4c0-4.708-1.965-8.959-5.11-11.998c4.113-11.809,9.982-28.666,14.49-41.602
			l14.491,41.601c-3.145,3.038-5.111,7.29-5.111,11.999h33.4c0-4.708-1.965-8.959-5.11-11.998
			c4.113-11.809,9.982-28.666,14.49-41.602l14.491,41.601c-3.145,3.038-5.111,7.29-5.111,11.999h33.4
			c0-4.709-1.966-8.961-5.111-11.999l14.491-41.611V131.067z"/>
		<path fill="#FC5D3D" d="M10.534,98.823L10.534,98.823c0,6.904,5.596,12.5,12.5,12.5H232.4c6.904,0,12.5-5.596,12.5-12.5v0
			c0-6.904-5.596-12.5-12.5-12.5H23.034C16.131,86.323,10.534,91.919,10.534,98.823z"/>
		<path fill="#FC5D3D" d="M10.534,238.206L10.534,238.206c0,6.904,5.596,12.5,12.5,12.5H232.4c6.904,0,12.5-5.596,12.5-12.5v0
			c0-6.904-5.596-12.5-12.5-12.5H23.034C16.131,225.706,10.534,231.302,10.534,238.206z"/>
		<circle fill="#EFEFEF" cx="127.717" cy="131.067" r="9.702"/>
		<circle fill="#EFEFEF" cx="75.558" cy="131.067" r="9.702"/>
		<circle fill="#EFEFEF" cx="179.877" cy="131.067" r="9.702"/>
		<circle fill="#EFEFEF" cx="153.797" cy="205.961" r="9.702"/>
		<circle fill="#EFEFEF" cx="205.957" cy="205.961" r="9.702"/>
		<circle fill="#EFEFEF" cx="101.637" cy="205.961" r="9.702"/>
		<circle fill="#EFEFEF" cx="49.478" cy="205.961" r="9.702"/>
		<path fill="#EFEFEF" d="M93.997,48.712v17.39h148.26c4.802,0,8.695-3.893,8.695-8.695v0c0-4.802-3.893-8.695-8.695-8.695H93.997z"
			/>
		
			<ellipse transform="matrix(0.1602 -0.9871 0.9871 0.1602 22.1188 140.8107)" fill="#FC5D3D" cx="93.811" cy="57.407" rx="16.498" ry="16.498"/>
		<path fill="#EFEFEF" d="M162.003,30.484v-17.39H13.744c-4.802,0-8.695,3.893-8.695,8.695v0c0,4.802,3.893,8.695,8.695,8.695
			H162.003z"/>
		
			<ellipse transform="matrix(0.1602 -0.9871 0.9871 0.1602 114.7012 178.3941)" fill="#FC5D3D" cx="162.189" cy="21.79" rx="16.498" ry="16.498"/>
		<path fill="#FFCBC3" d="M232.4,98.823H36.035c-1.381,0-2.5-1.119-2.5-2.5s1.119-2.5,2.5-2.5H232.4c1.381,0,2.5,1.119,2.5,2.5
			S233.781,98.823,232.4,98.823z M26.035,98.823h-3c-1.381,0-2.5-1.119-2.5-2.5s1.119-2.5,2.5-2.5h3c1.381,0,2.5,1.119,2.5,2.5
			S27.416,98.823,26.035,98.823z"/>
		<path fill="#FFCBC3" d="M232.4,243.206h-3c-1.381,0-2.5-1.119-2.5-2.5s1.119-2.5,2.5-2.5h3c1.381,0,2.5,1.119,2.5,2.5
			S233.781,243.206,232.4,243.206z M219.4,243.206H23.035c-1.381,0-2.5-1.119-2.5-2.5s1.119-2.5,2.5-2.5H219.4
			c1.381,0,2.5,1.119,2.5,2.5S220.781,243.206,219.4,243.206z"/>
		<path d="M8.035,238.206c0,8.255,6.704,14.972,14.953,14.998c0.018,0,0.034,0.005,0.052,0.005H92.4c1.38,0,2.5-1.13,2.5-2.5
			c0-1.38-1.12-2.5-2.5-2.5H23.064c-0.01,0-0.019-0.003-0.029-0.003c-5.514,0-10-4.486-10-10s4.486-10,10-10H232.4
			c5.514,0,10,4.486,10,10s-4.486,10-10,10c-0.01,0-0.019,0.003-0.029,0.003H112.4c-1.38,0-2.5,1.12-2.5,2.5
			c0,1.37,1.12,2.5,2.5,2.5h120c0.02,0,0.038-0.005,0.057-0.006c8.244-0.031,14.943-6.745,14.943-14.997
			c0-7.544-5.604-13.787-12.864-14.83c0-10.496,0-97.255,0-109.723c7.26-1.042,12.864-7.286,12.864-14.83c0-8.271-6.729-15-15-15
			H23.035c-8.271,0-15,6.729-15,15c0,7.544,5.603,13.787,12.863,14.83c0,10.331,0,97.248,0,109.723
			C13.638,224.418,8.035,230.662,8.035,238.206z M229.536,223.206H25.898v-14.749h11.636c1.155,5.535,6.07,9.707,11.944,9.707
			s10.788-4.171,11.944-9.707h28.272c1.155,5.535,6.07,9.707,11.944,9.707s10.788-4.171,11.944-9.707h28.272
			c1.155,5.535,6.07,9.707,11.944,9.707s10.788-4.171,11.944-9.707h28.272c1.155,5.535,6.07,9.707,11.944,9.707
			s10.788-4.171,11.944-9.707h11.636V223.206z M68.356,131.057c0.005-3.967,3.234-7.192,7.202-7.192
			c3.966,0,7.192,3.222,7.201,7.186c0,0.005-0.002,0.011-0.002,0.016s0.002,0.011,0.002,0.016c-0.009,3.964-3.236,7.186-7.201,7.186
			c-3.968,0-7.196-3.226-7.202-7.192c0-0.003,0.001-0.006,0.001-0.01S68.356,131.061,68.356,131.057z M120.516,131.054
			c0.007-3.965,3.235-7.189,7.201-7.189c3.966,0,7.192,3.222,7.201,7.186c0,0.005-0.002,0.011-0.002,0.016s0.002,0.011,0.002,0.016
			c-0.009,3.964-3.236,7.186-7.201,7.186c-3.967,0-7.194-3.224-7.201-7.189c0-0.004,0.001-0.009,0.001-0.013
			S120.516,131.058,120.516,131.054z M172.676,131.051c0.009-3.964,3.236-7.186,7.201-7.186c3.967,0,7.194,3.224,7.201,7.189
			c0,0.004-0.001,0.009-0.001,0.013s0.001,0.009,0.001,0.013c-0.007,3.965-3.235,7.189-7.201,7.189
			c-3.966,0-7.192-3.222-7.201-7.186c0-0.005,0.002-0.011,0.002-0.016S172.676,131.056,172.676,131.051z M213.158,205.968
			c-0.004,3.968-3.233,7.195-7.202,7.195c-3.966,0-7.192-3.222-7.201-7.186c0-0.007,0.002-0.014,0.002-0.021
			c0-0.006-0.002-0.012-0.002-0.018c0.012-3.961,3.237-7.18,7.201-7.18c3.967,0,7.195,3.224,7.202,7.19
			c0,0.003-0.001,0.005-0.001,0.008C213.157,205.96,213.158,205.964,213.158,205.968z M146.596,205.942
			c0.01-3.962,3.236-7.183,7.201-7.183c3.966,0,7.193,3.222,7.201,7.186c0,0.004-0.001,0.008-0.001,0.011
			c0,0.005,0.001,0.009,0.001,0.014c-0.005,3.967-3.234,7.192-7.202,7.192c-3.967,0-7.194-3.224-7.201-7.189
			c0-0.006,0.002-0.011,0.002-0.018C146.597,205.952,146.596,205.947,146.596,205.942z M160.079,195.52l18.234-52.363
			c1.153,0.148,1.97,0.149,3.127,0l18.235,52.362c-2.854,1.724-4.955,4.573-5.66,7.937h-28.277
			C165.034,200.092,162.933,197.244,160.079,195.52z M207.519,193.87c-1.153-0.148-1.97-0.149-3.124,0l-18.235-52.363
			c2.855-1.725,4.956-4.574,5.659-7.94h36.7L207.519,193.87z M173.594,141.507l-18.235,52.363c-1.153-0.148-1.968-0.149-3.124,0
			L134,141.507c2.855-1.725,4.956-4.574,5.659-7.94h28.275C168.638,136.933,170.739,139.783,173.594,141.507z M121.437,141.509
			l-6.508,18.669c-0.45,1.3,0.24,2.73,1.54,3.19c1.289,0.431,2.721-0.228,3.18-1.54l6.505-18.671c1.149,0.148,1.964,0.149,3.126,0
			l18.234,52.362c-2.854,1.724-4.955,4.572-5.659,7.937h-28.277c-0.705-3.364-2.804-6.212-5.658-7.936l5.159-14.812
			c0.45-1.3-0.24-2.73-1.54-3.18c-1.29-0.44-2.75,0.27-3.19,1.54l-5.147,14.802c-1.156-0.149-1.972-0.149-3.127,0L81.84,141.508
			c2.855-1.725,4.956-4.575,5.66-7.941h28.275C116.479,136.934,118.581,139.785,121.437,141.509z M42.276,205.948
			c0.007-3.965,3.235-7.19,7.202-7.19c3.964,0,7.189,3.219,7.201,7.18c0,0.006-0.002,0.012-0.002,0.018
			c0,0.007,0.002,0.014,0.002,0.021c-0.009,3.964-3.236,7.186-7.201,7.186c-3.969,0-7.198-3.227-7.202-7.195
			c0-0.004,0.001-0.007,0.001-0.011C42.277,205.954,42.276,205.951,42.276,205.948z M55.759,195.519l18.235-52.362
			c1.157,0.149,1.974,0.148,3.127,0l18.235,52.362c-2.854,1.724-4.955,4.572-5.659,7.937H61.419
			C60.715,200.092,58.614,197.243,55.759,195.519z M94.436,205.945c0.009-3.964,3.236-7.186,7.201-7.186
			c3.965,0,7.191,3.221,7.201,7.183c0,0.005-0.001,0.01-0.001,0.015c0,0.006,0.002,0.011,0.002,0.018
			c-0.007,3.965-3.235,7.189-7.201,7.189c-3.968,0-7.196-3.226-7.202-7.192c0-0.005,0.001-0.01,0.001-0.014
			C94.437,205.953,94.436,205.949,94.436,205.945z M69.274,141.507L51.039,193.87c-1.151-0.148-1.967-0.148-3.124,0l-21-60.303h36.7
			C64.319,136.933,66.419,139.782,69.274,141.507z M43.195,195.52c-2.854,1.724-4.954,4.572-5.659,7.936H25.898V145.85
			L43.195,195.52z M229.536,203.457h-11.638c-0.705-3.364-2.805-6.213-5.659-7.937l17.297-49.67V203.457z M229.536,128.567h-37.717
			c-1.157-5.533-6.071-9.702-11.942-9.702s-10.786,4.169-11.942,9.702H139.66c-1.157-5.533-6.071-9.702-11.942-9.702
			s-10.786,4.169-11.942,9.702H87.5c-1.157-5.533-6.071-9.702-11.942-9.702s-10.786,4.169-11.942,9.702H25.898v-14.744h203.638
			V128.567z M13.035,98.823c0-5.514,4.486-10,10-10H232.4c5.514,0,10,4.486,10,10s-4.486,10-10,10H23.035
			C17.521,108.823,13.035,104.337,13.035,98.823z"/>
		<circle cx="102.4" cy="250.708" r="2.5"/>
		<path d="M111.64,169.618c-0.45,1.31,0.24,2.74,1.54,3.19c1.389,0.462,2.744-0.294,3.18-1.54c0.46-1.3-0.23-2.73-1.53-3.18
			C113.55,167.638,112.08,168.358,111.64,169.618z"/>
		<path d="M242.259,46.212H109.126c-3.46-4.72-9.028-7.804-15.315-7.804c-10.476,0-18.998,8.522-18.998,18.998
			s8.522,18.998,18.998,18.998c6.289,0,11.858-3.085,15.318-7.807h133.131c6.169,0,11.188-5.019,11.188-11.188
			C253.448,51.235,248.429,46.212,242.259,46.212z M93.811,71.405c-7.719,0-13.998-6.279-13.998-13.998s6.279-13.998,13.998-13.998
			s13.998,6.279,13.998,13.998S101.53,71.405,93.811,71.405z M242.259,63.598H111.753c0.673-1.944,1.057-4.021,1.057-6.191
			c0-2.171-0.384-4.25-1.058-6.194h130.508c3.412,0,6.188,2.78,6.188,6.197C248.448,60.822,245.671,63.598,242.259,63.598z"/>
		<path d="M13.741,32.983h133.133c3.46,4.721,9.028,7.804,15.316,7.804c10.476,0,18.998-8.522,18.998-18.998
			s-8.522-18.998-18.998-18.998c-6.289,0-11.858,3.085-15.318,7.807H94.74c-1.38,0-2.5,1.12-2.5,2.5c0,1.38,1.12,2.5,2.5,2.5h49.508
			c-0.673,1.944-1.057,4.021-1.057,6.191c0,2.171,0.384,4.249,1.057,6.194H13.741c-3.412,0-6.188-2.78-6.188-6.197
			c0-3.412,2.776-6.188,6.188-6.188H74.74c1.38,0,2.5-1.12,2.5-2.5c0-1.38-1.12-2.5-2.5-2.5h-61c0,0-0.001,0-0.001,0
			C7.57,10.599,2.552,15.618,2.552,21.787C2.552,27.96,7.571,32.983,13.741,32.983z M162.189,7.792
			c7.719,0,13.998,6.279,13.998,13.998s-6.279,13.998-13.998,13.998s-13.998-6.279-13.998-13.998S154.47,7.792,162.189,7.792z"/>
		<circle cx="84.74" cy="13.098" r="2.5"/>
	</g>
</g>
</svg>
