<?xml version="1.0" encoding="utf-8"?>
<!-- Generator: Adobe Illustrator 24.0.0, SVG Export Plug-In . SVG Version: 6.00 Build 0)  -->
<svg version="1.1" xmlns="http://www.w3.org/2000/svg" xmlns:xlink="http://www.w3.org/1999/xlink" x="0px" y="0px"
	 viewBox="0 0 256 256" enable-background="new 0 0 256 256" xml:space="preserve">
<g id="Caption">
</g>
<g id="Icons">
	<g>
		<path fill="#878787" d="M71.804,15.02v40.081h76.583V15.02c0-5.906-4.788-10.694-10.694-10.694H82.498
			C76.592,4.326,71.804,9.114,71.804,15.02z"/>
		<path fill="#EFEFEF" d="M191.029,185.925c0-23.624-19.151-42.775-42.775-42.775H71.933c-23.624,0-42.775,19.151-42.775,42.775
			v64.653h161.871V185.925z"/>
		<path fill="#AFAFAF" d="M131.34,154.685l-14.258,2.591c-3.825-2.054-10.129-2.061-13.967,0l-14.258-2.591
			c-6.154-1.309-11.851,3.604-11.851,10.046v12.067c0,6.434,5.685,11.354,11.851,10.047l13.292-2.416
			c4.144,2.847,11.728,2.866,15.899,0l13.292,2.416c6.17,1.308,11.851-3.618,11.851-10.047v-12.067
			C143.191,158.288,137.493,153.377,131.34,154.685z"/>
		<path fill="#878787" d="M148.259,143.149h-3.925l4.769,42.497l-11.956,10.02l2.096,31.065l-29.151,23.847l-29.151-23.847
			l2.096-31.065l-11.956-10.02l4.769-42.497h-3.914c-23.633,0-42.775,19.153-42.775,42.775v64.655h161.872v-64.655
			C191.034,162.302,171.882,143.149,148.259,143.149z"/>
		<polygon fill="#4C4944" points="80.942,226.732 83.038,195.666 71.082,185.646 75.852,143.149 110.093,250.579 		"/>
		<polygon fill="#4C4944" points="137.148,195.666 139.244,226.732 110.093,250.579 144.335,143.149 149.104,185.646 		"/>
		<polygon fill="#FEB69F" points="134.213,134.189 134.213,143.622 110.077,174.207 85.973,143.622 85.973,134.211 		"/>
		<path fill="#EA8F7C" d="M134.208,134.192v8.99c-6.98,4.41-15.25,6.97-24.11,6.97c-8.86,0-17.13-2.56-24.12-6.98v-8.96
			L134.208,134.192z"/>
		<path fill="#FEB69F" d="M70.363,75.976h1.436v28.233h-1.436c-7.796,0-14.111-6.315-14.111-14.111
			C56.253,82.339,62.526,75.976,70.363,75.976z"/>
		<path fill="#FEB69F" d="M110.094,143.15L110.094,143.15c-21.149,0-38.294-17.145-38.294-38.294V65.832h76.589v39.024
			C148.388,126.005,131.243,143.15,110.094,143.15z"/>
		<path fill="#FEB69F" d="M149.824,75.976h-1.436v28.233h1.436c7.796,0,14.111-6.315,14.111-14.111
			C163.934,82.339,157.661,75.976,149.824,75.976z"/>
		<path fill="#FC5D3D" d="M136.19,164.732v12.067c0,2.069-1.681,3.613-3.466,3.184l-22.626-4.113v-10.209l22.626-4.113
			C134.51,161.118,136.19,162.662,136.19,164.732z"/>
		<path fill="#FC5D3D" d="M84.006,164.732v12.067c0,2.069,1.681,3.613,3.466,3.184l22.626-4.113v-10.209l-22.626-4.113
			C85.687,161.118,84.006,162.662,84.006,164.732z"/>
		<ellipse fill="#FC5D3D" cx="110.099" cy="171.149" rx="6.218" ry="8.406"/>
		<rect x="71.798" y="65.832" fill="#EA8F7C" width="76.59" height="7"/>
		<path fill="#878787" d="M50.911,60.467L50.911,60.467c0,2.963,2.402,5.366,5.366,5.366h107.64c2.963,0,5.366-2.402,5.366-5.366v0
			c0-2.963-2.402-5.366-5.366-5.366H56.276C53.313,55.101,50.911,57.503,50.911,60.467z"/>
		<rect x="71.804" y="39.538" fill="#FC5D3D" width="76.583" height="15.563"/>
		<path fill="#878787" d="M205.536,98.38v148.298c0,2.761,2.239,5,5,5h4.638c2.761,0,5-2.239,5-5V98.38c0-2.761-2.239-5-5-5h-4.638
			C207.774,93.38,205.536,95.619,205.536,98.38z"/>
		<path fill="#EFEFEF" d="M205.536,230.288v16.39c0,2.761,2.239,5,5,5h4.638c2.761,0,5-2.239,5-5v-16.39H205.536z"/>
		<path fill="#EFEFEF" d="M205.536,98.38v16.39h14.638V98.38c0-2.761-2.239-5-5-5h-4.638
			C207.774,93.38,205.536,95.619,205.536,98.38z"/>
		<path d="M244.358,80.254c-3.729-1.228-6.641-2.022-8.591-10.421c-0.635-2.737-4.548-2.73-5.181,0
			c-1.907,8.213-4.566,9.092-8.591,10.422c-2.424,0.801-2.43,4.248,0,5.051c6.686,2.209,7.444,5.476,8.591,10.421
			c0.637,2.743,4.545,2.742,5.182,0c1.905-8.212,4.709-9.139,8.591-10.421C246.782,84.504,246.788,81.057,244.358,80.254z"/>
		<path fill="#F0C020" d="M237.161,82.809c-1.47,1.03-2.79,2.42-3.93,4.43c-0.94-1.58-2.25-3.08-4.17-4.4
			c1.55-1.06,2.94-2.5,4.13-4.64C234.391,80.359,235.751,81.799,237.161,82.809z"/>
		<path d="M34.006,143.006c-3.729-1.228-6.641-2.022-8.591-10.421c-0.635-2.737-4.548-2.73-5.181,0
			c-1.907,8.213-4.566,9.092-8.591,10.422c-2.424,0.801-2.43,4.248,0,5.051c6.686,2.209,7.444,5.476,8.591,10.421
			c0.637,2.743,4.545,2.742,5.182,0c1.905-8.212,4.709-9.139,8.591-10.421C36.43,147.256,36.435,143.809,34.006,143.006z"/>
		<path fill="#F0C020" d="M26.809,145.561c-1.47,1.03-2.79,2.42-3.93,4.43c-0.94-1.58-2.25-3.08-4.17-4.4
			c1.55-1.06,2.94-2.5,4.13-4.64C24.039,143.111,25.399,144.551,26.809,145.561z"/>
		<path fill="#FFFFFF" d="M181.034,243.078c-1.381,0-2.5-1.119-2.5-2.5v-54.654c0-6.454-2.012-12.617-5.818-17.825
			c-0.814-1.114-0.571-2.679,0.543-3.493c1.116-0.815,2.678-0.572,3.494,0.543c4.437,6.069,6.781,13.253,6.781,20.775v54.654
			C183.534,241.959,182.415,243.078,181.034,243.078z M166.226,161.57c-0.74-0.547-1.515-1.067-2.302-1.545
			c-1.18-0.716-1.556-2.254-0.839-3.434s2.254-1.555,3.435-0.839c0.916,0.556,1.817,1.162,2.679,1.799
			c1.11,0.821,1.345,2.386,0.523,3.497C168.904,162.153,167.339,162.394,166.226,161.57z"/>
		<path d="M41.96,151.992c-1.062,0.956-1.109,2.52-0.22,3.53c0.886,1.019,2.453,1.155,3.529,0.22
			c1.075-0.977,1.099-2.531,0.221-3.53C44.609,151.222,42.95,151.112,41.96,151.992z"/>
		<path d="M34.92,159.842c0,0.01,0,0.01-0.01,0.01c-5.39,7.636-8.238,16.636-8.249,26.027c0,0.017-0.005,0.032-0.005,0.049v64.655
			c0,1.381,1.119,2.5,2.5,2.5s2.5-1.119,2.5-2.5V185.97c0-0.013,0.004-0.025,0.004-0.038c0-8.36,2.54-16.38,7.34-23.2
			c0.79-1.12,0.52-2.69-0.601-3.48C37.31,158.482,35.689,158.762,34.92,159.842z"/>
		<path d="M191.028,253.082c1.381,0,2.5-1.119,2.5-2.5v-64.655c0-24.965-20.311-45.275-45.275-45.275h-11.534v-4.928
			c8.243-7.12,13.616-17.469,14.123-29.067c8.684-0.531,15.593-7.744,15.593-16.559c0-8.806-6.884-16.015-15.547-16.568v-5.198
			h13.028c4.337,0,7.865-3.528,7.865-7.866s-3.528-7.866-7.865-7.866h-13.028V15.02c0-7.249-5.878-13.148-13.117-13.19
			c-0.028-0.001-0.053-0.008-0.081-0.008h-21c-1.37,0-2.5,1.13-2.5,2.5c0,1.38,1.13,2.5,2.5,2.5h20.961
			c0.015,0,0.029,0.004,0.044,0.004c4.518,0,8.193,3.676,8.193,8.194v22.018H74.305V15.02c0-4.518,3.676-8.194,8.193-8.194
			c0.015,0,0.029-0.004,0.044-0.004h14.148c1.38,0,2.5-1.12,2.5-2.5c0-1.37-1.12-2.5-2.5-2.5H82.5c-0.029,0-0.056,0.008-0.084,0.009
			c-7.236,0.045-13.111,5.943-13.111,13.19v37.581H56.276c-4.338,0-7.866,3.528-7.866,7.866s3.528,7.866,7.866,7.866H69.3v5.198
			c-8.663,0.553-15.547,7.762-15.547,16.568c0,8.816,6.908,16.029,15.593,16.559c0.507,11.597,5.88,21.946,14.122,29.066v4.929
			H71.93c-7.43,0-14.79,1.84-21.3,5.32c-1.217,0.64-1.683,2.137-1.03,3.38c0.645,1.229,2.177,1.666,3.38,1.03
			c5.88-3.14,12.25-4.73,18.95-4.73h1.125l-4.457,39.715c-0.094,0.833,0.236,1.657,0.879,2.195l10.981,9.204l-2.011,29.797
			c-0.055,0.808,0.285,1.591,0.911,2.104l29.151,23.847c0.907,0.741,2.253,0.746,3.166,0l29.151-23.847
			c0.626-0.512,0.966-1.296,0.911-2.104l-2.01-29.797l10.981-9.204c0.643-0.538,0.973-1.362,0.879-2.195l-4.457-39.715h1.121
			c22.208,0,40.275,18.067,40.275,40.275v64.655C188.528,251.963,189.647,253.082,191.028,253.082z M69.299,101.661
			c-5.905-0.539-10.546-5.519-10.546-11.563c0-6.049,4.641-11.034,10.546-11.574V101.661z M140.913,145.653l-4.568,14.331
			c-1.204-0.881-2.693-1.208-4.126-0.889l-8.215,1.498l11.793-14.939H140.913z M118.457,166.685l14.713-2.682
			c0.374-0.068,0.518,0.386,0.518,0.73v12.065c0,0.323-0.115,0.79-0.519,0.72l-14.584-2.653c0.172-1.181,0.232-2.436,0.232-3.716
			C118.817,169.594,118.73,168.077,118.457,166.685z M110.099,160.243c-2.742,0-4.628,0.68-5.932,1.802l-0.573-0.104l-15.125-19.188
			v-3.331c6.274,3.94,13.686,6.228,21.626,6.228c7.939,0,15.351-2.288,21.625-6.227v3.329l-15.154,19.196l-0.534,0.097
			C114.726,160.923,112.841,160.243,110.099,160.243z M113.817,171.149c0,5.906-1.165,5.906-3.719,5.906s-3.719,0-3.719-5.906
			c0-5.906,1.165-5.906,3.719-5.906S113.817,165.243,113.817,171.149z M101.612,174.865l-14.584,2.653
			c-0.389,0.067-0.519-0.394-0.519-0.72v-12.065c0-0.336,0.138-0.799,0.518-0.73l14.713,2.682c-0.274,1.391-0.361,2.909-0.361,4.464
			C101.38,172.429,101.44,173.684,101.612,174.865z M161.435,90.098c0,6.043-4.642,11.023-10.547,11.563V78.525
			C156.793,79.064,161.435,84.049,161.435,90.098z M74.305,42.038h71.583v10.563H74.305V42.038z M56.276,63.332
			c-1.58,0-2.866-1.286-2.866-2.866s1.286-2.866,2.866-2.866h107.64c1.58,0,2.865,1.286,2.865,2.866s-1.285,2.866-2.865,2.866
			H56.276z M74.3,104.856V68.332h71.588c0,12.654,0,24.031,0,36.524c0,19.878-16.234,35.794-35.794,35.794
			C90.421,140.65,74.3,124.621,74.3,104.856z M84.387,145.652l11.772,14.933l-8.181-1.491c-1.438-0.32-2.931,0.01-4.135,0.896
			l-4.57-14.338H84.387z M83.522,225.613l2.01-29.778c0.054-0.797-0.276-1.572-0.889-2.084l-10.928-9.158l3.313-29.517l4.481,14.06
			v7.663c0,2.657,1.66,5.013,4.23,5.607l19.411,60.901L83.522,225.613z M110.093,242.347l-19.264-60.438l12.683-2.307
			c1.297,1.51,3.347,2.454,6.587,2.454s5.29-0.944,6.587-2.454l12.673,2.306L110.093,242.347z M135.543,193.75
			c-0.612,0.513-0.942,1.288-0.889,2.084l2.009,29.778l-21.628,17.693l19.411-60.898c2.568-0.587,4.241-2.941,4.241-5.61V169.1
			l4.471-14.025l3.313,29.517L135.543,193.75z"/>
		<path d="M161.554,188.584v61.995c0,1.381,1.119,2.5,2.5,2.5s2.5-1.119,2.5-2.5v-61.995c0-1.381-1.119-2.5-2.5-2.5
			S161.554,187.203,161.554,188.584z"/>
		<path d="M53.632,188.584v61.995c0,1.381,1.119,2.5,2.5,2.5s2.5-1.119,2.5-2.5v-61.995c0-1.381-1.119-2.5-2.5-2.5
			S53.632,187.203,53.632,188.584z"/>
		<path d="M110.094,102.508c1.381,0,2.5-1.119,2.5-2.5V87.596c0-1.381-1.119-2.5-2.5-2.5s-2.5,1.119-2.5,2.5v12.412
			C107.594,101.389,108.713,102.508,110.094,102.508z"/>
		<path d="M93.494,109.278c0,9.153,7.446,16.6,16.6,16.6s16.6-7.447,16.6-16.6c0-1.381-1.119-2.5-2.5-2.5s-2.5,1.119-2.5,2.5
			c0,6.396-5.203,11.6-11.6,11.6s-11.6-5.204-11.6-11.6c0-1.381-1.119-2.5-2.5-2.5S93.494,107.897,93.494,109.278z"/>
		<path d="M91.959,87.79c1.381,0,2.5-1.119,2.5-2.5v-2.816c0-1.381-1.119-2.5-2.5-2.5s-2.5,1.119-2.5,2.5v2.816
			C89.459,86.671,90.578,87.79,91.959,87.79z"/>
		<path d="M128.228,87.79c1.381,0,2.5-1.119,2.5-2.5v-2.816c0-1.381-1.119-2.5-2.5-2.5s-2.5,1.119-2.5,2.5v2.816
			C125.728,86.671,126.847,87.79,128.228,87.79z"/>
		<circle cx="106.689" cy="4.322" r="2.5"/>
		<path d="M222.674,98.38c0-4.136-3.364-7.5-7.5-7.5h-4.638c-4.136,0-7.5,3.364-7.5,7.5v148.298c0,4.136,3.364,7.5,7.5,7.5h4.638
			c4.136,0,7.5-3.364,7.5-7.5c0-0.013-0.004-0.025-0.004-0.039c0-15.285,0-49.595,0-68.957c0-1.38-1.12-2.5-2.5-2.5
			s-2.5,1.12-2.5,2.5v50.106h-9.634V117.27h9.634v40.412c0,1.37,1.12,2.5,2.5,2.5s2.5-1.13,2.5-2.5c0-14.538,0-44.686,0-59.263
			C222.67,98.406,222.674,98.393,222.674,98.38z M217.67,232.788v13.894c0,0.006,0.002,0.011,0.002,0.017
			c-0.012,1.368-1.126,2.479-2.498,2.479h-4.638c-1.379,0-2.5-1.122-2.5-2.5v-13.89H217.67z M217.67,98.382v13.888h-9.634V98.38
			c0-1.378,1.121-2.5,2.5-2.5h4.638c1.373,0,2.488,1.112,2.498,2.482C217.672,98.369,217.67,98.375,217.67,98.382z"/>
		<circle cx="220.17" cy="167.682" r="2.5"/>
	</g>
</g>
</svg>
