<?xml version="1.0" encoding="utf-8"?>
<!-- Generator: Adobe Illustrator 24.0.0, SVG Export Plug-In . SVG Version: 6.00 Build 0)  -->
<svg version="1.1" xmlns="http://www.w3.org/2000/svg" xmlns:xlink="http://www.w3.org/1999/xlink" x="0px" y="0px"
	 viewBox="0 0 256 256" enable-background="new 0 0 256 256" xml:space="preserve">
<g id="Caption">
</g>
<g id="Icons">
	<g>
		<path fill="#72C2E9" d="M117.345,129.289l-16.848,16.848c-2.343,2.343-2.343,6.142,0,8.485l0,0c2.343,2.343,6.142,2.343,8.485,0
			l16.848-16.848L117.345,129.289z"/>
		
			<ellipse transform="matrix(0.0985 -0.9951 0.9951 0.0985 67.3681 245.8463)" fill="#72C2E9" cx="169.38" cy="85.739" rx="80.979" ry="80.979"/>
		<path fill="#4BA5C8" d="M223.5,91.307c-1.362-2.78-4.297-4.641-7.537-4.535c0.327-1.859,0.508-3.769,0.508-5.72
			c0-18.147-14.765-32.912-32.912-32.912c-14.388,0-26.642,9.285-31.104,22.176c-0.1-2.859-1.36-5.42-3.328-7.235V41.936
			c0-5.708-4.643-10.352-10.349-10.352c-7.017,0-16.993,8.95-16.993,21.021v10.474c-2.052,1.892-3.347,4.594-3.347,7.598V98.25
			c-4.647,2.52-7.81,7.443-7.81,13.09c0,8.205,6.675,14.881,14.881,14.881h64.477l23.267,9.142
			c3.969,1.553,8.418-0.256,10.249-3.996C229.721,118.64,229.721,104.04,223.5,91.307z"/>
		<circle fill="#F0C020" cx="183.559" cy="81.05" r="25.912"/>
		<path fill="#EFEFEF" d="M208.448,73.836v14.426h-49.773c-0.669-2.287-1.026-4.708-1.026-7.208s0.357-4.931,1.026-7.219H208.448z"
			/>
		<path fill="#EFEFEF" d="M125.437,70.676v40.663h20.036V70.676c0-1.849-1.499-3.347-3.347-3.347h-13.341
			C126.936,67.329,125.437,68.828,125.437,70.676z"/>
		<path fill="#FC5D3D" d="M128.784,52.605v14.724h13.341V41.935c0-2.478-2.599-4.097-4.823-3.004l0,0
			C132.089,41.492,128.784,46.795,128.784,52.605z"/>
		<path fill="#FC5D3D" d="M191.313,103.459h-65.804c-4.353,0-7.881,3.529-7.881,7.881v0c0,4.353,3.529,7.881,7.881,7.881h65.804
			V103.459z"/>
		<path fill="#F0C020" d="M215.802,93.837l-24.49,9.621v15.762l24.49,9.621c0.541,0.213,1.155-0.026,1.41-0.549v0
			c5.227-10.698,5.227-23.21,0-33.908v0C216.957,93.863,216.343,93.625,215.802,93.837z"/>
		<path fill="#878787" d="M98.579,232.571H5.641v-41.29c0-25.664,20.805-46.469,46.469-46.469h0
			c25.664,0,46.469,20.805,46.469,46.469V232.571z"/>
		<path fill="#FFB69F" d="M52.11,251.24L52.11,251.24c-18.153,0-32.869-14.716-32.869-32.869v-30.267
			c0-3.042,2.624-5.421,5.651-5.123l55.441,5.45c2.635,0.259,4.644,2.475,4.644,5.123v24.817
			C84.979,236.524,70.263,251.24,52.11,251.24z"/>
		<path d="M63.292,116.693c-3.729-1.228-6.641-2.022-8.591-10.421c-0.635-2.737-4.548-2.73-5.181,0
			c-1.907,8.213-4.566,9.092-8.591,10.422c-2.424,0.801-2.43,4.248,0,5.051c6.686,2.209,7.444,5.476,8.591,10.421
			c0.637,2.743,4.545,2.742,5.182,0c1.905-8.212,4.709-9.139,8.591-10.421C65.716,120.944,65.721,117.496,63.292,116.693z"/>
		<path fill="#F0C020" d="M56.095,119.248c-1.47,1.03-2.79,2.42-3.93,4.43c-0.94-1.58-2.25-3.08-4.17-4.4
			c1.55-1.06,2.94-2.5,4.13-4.64C53.325,116.798,54.685,118.238,56.095,119.248z"/>
		<path d="M138.177,186.163c-3.729-1.228-6.641-2.022-8.591-10.421c-0.635-2.737-4.548-2.73-5.181,0
			c-1.907,8.213-4.566,9.092-8.591,10.422c-2.424,0.801-2.43,4.248,0,5.051c6.686,2.209,7.444,5.476,8.591,10.421
			c0.637,2.743,4.545,2.742,5.182,0c1.905-8.212,4.709-9.139,8.591-10.421C140.601,190.413,140.607,186.965,138.177,186.163z"/>
		<path fill="#F0C020" d="M130.98,188.717c-1.47,1.03-2.79,2.42-3.93,4.43c-0.94-1.58-2.25-3.08-4.17-4.4
			c1.55-1.06,2.94-2.5,4.13-4.64C128.21,186.267,129.57,187.707,130.98,188.717z"/>
		<path fill="#B7E5FF" d="M240.359,88.239c-1.381,0-2.5-1.119-2.5-2.5c-0.001-33.027-23.557-61.349-56.011-67.343
			c-1.357-0.25-2.255-1.555-2.004-2.912c0.25-1.357,1.556-2.252,2.912-2.004c34.825,6.432,60.102,36.82,60.103,72.259
			C242.859,87.12,241.74,88.239,240.359,88.239z M172.38,17.322c-0.036,0-0.071-0.001-0.107-0.002
			c-0.96-0.041-1.924-0.061-2.893-0.061c-1.381,0-2.5-1.119-2.5-2.5s1.119-2.5,2.5-2.5c1.039,0,2.073,0.021,3.104,0.064
			c1.38,0.059,2.45,1.224,2.393,2.604C174.819,16.271,173.712,17.322,172.38,17.322z"/>
		<path d="M169.38,2.26c-46.031,0-83.48,37.449-83.48,83.48c0,19.226,6.659,37.84,18.767,52.697l-5.931,5.931
			c-3.35,3.338-3.313,8.725-0.011,12.013c3.324,3.352,8.741,3.317,12.022,0.007l5.935-5.935
			c14.858,12.109,33.471,18.767,52.697,18.767c16.43,0,32.33-4.77,45.979-13.8c1.15-0.76,1.471-2.32,0.71-3.46
			c-0.729-1.11-2.35-1.45-3.46-0.71c-12.84,8.479-27.779,12.97-43.229,12.97c-18.806,0-36.999-6.759-51.227-19.032
			c-0.957-0.829-2.469-0.809-3.4,0.125l-7.547,7.547c-1.307,1.318-3.612,1.329-4.941-0.011c-1.364-1.359-1.376-3.567,0.004-4.941
			l7.54-7.54c0.9-0.898,0.979-2.409,0.125-3.4C97.659,122.738,90.9,104.546,90.9,85.74c0-43.274,35.206-78.48,78.48-78.48
			c43.272,0,78.476,35.202,78.48,78.473c0,0.003-0.001,0.005-0.001,0.008c0,19.649-7.3,38.46-20.56,52.949
			c-0.93,1.021-0.86,2.601,0.16,3.54c1.022,0.933,2.604,0.845,3.53-0.16c14.097-15.417,21.866-35.412,21.869-56.316
			c0-0.004,0.001-0.008,0.001-0.013C252.86,39.709,215.411,2.26,169.38,2.26z"/>
		<path d="M220.35,145.42h-0.01c-1.08,0.931-1.152,2.494-0.28,3.53c0.89,1.036,2.455,1.167,3.53,0.279
			c1.04-0.899,1.17-2.479,0.27-3.529C223,144.7,221.359,144.56,220.35,145.42z"/>
		<circle cx="162.51" cy="119.22" r="2.5"/>
		<path d="M219.458,93.286c-0.82-1.678-2.827-2.455-4.566-1.777c-0.002,0-0.003,0.001-0.004,0.001l-5.962,2.343
			c1.988-3.927,3.047-8.288,3.047-12.805c0-15.664-12.749-28.407-28.419-28.407c-15.663,0-28.406,12.743-28.406,28.407
			c0,7.381,2.966,14.611,8.157,19.912h-15.33V70.682c0-2.33-1.373-4.34-3.349-5.279V41.936c0-4.341-4.55-7.15-8.425-5.249
			c-6.024,2.958-9.917,9.207-9.917,15.918v12.798c-1.976,0.939-3.349,2.949-3.349,5.279v30.613
			c-4.482,1.149-7.809,5.211-7.809,10.045c0,5.724,4.657,10.381,10.381,10.381c0.003,0,0.006-0.001,0.01-0.001h26.992
			c1.38,0,2.5-1.12,2.5-2.5s-1.12-2.5-2.5-2.5h-27c-0.002,0-0.004,0-0.006,0c-2.965-0.002-5.377-2.415-5.377-5.38
			c0-2.967,2.414-5.381,5.381-5.381h19.937c0.01,0,0.019,0.003,0.029,0.003s0.019-0.003,0.029-0.003c16.838,0,27.78,0,43.309,0
			v10.761H172.51c-1.38,0-2.5,1.12-2.5,2.5s1.12,2.5,2.5,2.5h18.326l24.056,9.451c1.755,0.686,3.753-0.115,4.567-1.779
			C225.063,117.919,225.063,104.761,219.458,93.286z M131.285,52.604c0-4.819,2.794-9.306,7.119-11.43
			c0.57-0.281,1.222,0.138,1.222,0.761v22.894h-8.341V52.604z M142.975,100.959h-15.039V82.363h15.039V100.959z M142.975,77.363
			h-15.039c0-6.841-0.295-7.529,0.847-7.529h13.344c0.476,0,0.848,0.372,0.848,0.848V77.363z M183.554,57.64
			c9.448,0,17.601,5.624,21.3,13.696h-42.589C165.962,63.264,174.111,57.64,183.554,57.64z M160.147,81.047
			c0-1.613,0.164-3.189,0.476-4.711h45.872c0.312,1.522,0.477,3.098,0.477,4.711c0,1.602-0.168,3.179-0.481,4.716h-45.856
			C160.317,84.225,160.147,82.647,160.147,81.047z M199.543,119.768l-5.73-2.252v-12.354l5.73-2.252V119.768z M190.838,100.959
			h-19.581c-3.98-2.465-7.074-6.043-8.974-10.196h42.558c-1.064,2.326-2.507,4.483-4.313,6.389L190.838,100.959z M215.507,126.041
			l-10.964-4.308v-20.786l10.964-4.308C219.71,106.051,219.71,116.631,215.507,126.041z"/>
		<path d="M98.58,235.071c1.381,0,2.5-1.119,2.5-2.5v-41.29c0-26.993-21.954-48.955-48.944-48.969c-0.009,0-0.017-0.003-0.026-0.003
			H52.1c-7.13,0-14.01,1.5-20.44,4.46c-1.21,0.556-1.827,2.018-1.23,3.32c0.569,1.234,2.029,1.818,3.32,1.229
			c5.765-2.657,11.94-4.007,18.344-4.009c0.005,0,0.01,0.001,0.015,0.001c24.245,0,43.97,19.725,43.97,43.97v41.29
			C96.08,233.952,97.199,235.071,98.58,235.071z"/>
		<path d="M22.65,152.17c-0.01,0-0.01,0-0.02,0c-1.079,0.813-1.339,2.39-0.48,3.5c0.814,1.108,2.379,1.331,3.5,0.49c0,0,0,0,0.01,0
			c1.09-0.841,1.3-2.4,0.48-3.5C25.33,151.6,23.72,151.37,22.65,152.17z"/>
		<path d="M8.14,191.27c0.01-10.51,3.78-20.68,10.62-28.64c0.9-1.05,0.78-2.63-0.27-3.53c-1-0.87-2.66-0.74-3.52,0.271
			c-7.63,8.859-11.83,20.199-11.83,31.91c0,0.003,0.001,0.006,0.001,0.01v41.281c0,1.381,1.119,2.5,2.5,2.5s2.5-1.119,2.5-2.5
			v-41.29c0-0.003-0.001-0.006-0.001-0.01V191.27z"/>
		<path d="M87.479,218.372v-24.817c0-3.953-2.966-7.225-6.899-7.611l-55.441-5.45c-4.47-0.446-8.396,3.078-8.396,7.611v30.268
			c0,19.502,15.866,35.368,35.368,35.368C71.612,253.74,87.479,237.874,87.479,218.372z M21.742,218.372v-30.268
			c0-1.583,1.363-2.786,2.907-2.635l55.442,5.45c1.361,0.134,2.388,1.267,2.388,2.635v24.817c0,16.745-13.624,30.368-30.369,30.368
			S21.742,235.117,21.742,218.372z"/>
		<path d="M38.02,200.306c0-1.381-1.119-2.5-2.5-2.5s-2.5,1.119-2.5,2.5v3.771c0,1.381,1.119,2.5,2.5,2.5s2.5-1.119,2.5-2.5V200.306
			z"/>
		<path d="M68.7,206.576c1.381,0,2.5-1.119,2.5-2.5v-3.771c0-1.381-1.119-2.5-2.5-2.5s-2.5,1.119-2.5,2.5v3.771
			C66.2,205.457,67.319,206.576,68.7,206.576z"/>
		<path d="M52.11,217.484c1.381,0,2.5-1.119,2.5-2.5v-14.679c0-1.381-1.119-2.5-2.5-2.5s-2.5,1.119-2.5,2.5v14.679
			C49.61,216.365,50.729,217.484,52.11,217.484z"/>
		<path d="M66.712,222.167c0-1.381-1.119-2.5-2.5-2.5s-2.5,1.119-2.5,2.5c0,5.295-4.308,9.603-9.602,9.603s-9.602-4.308-9.602-9.603
			c0-1.381-1.119-2.5-2.5-2.5s-2.5,1.119-2.5,2.5c0,8.052,6.55,14.603,14.602,14.603C60.162,236.77,66.712,230.219,66.712,222.167z"
			/>
	</g>
</g>
</svg>
