<?xml version="1.0" encoding="utf-8"?>
<!-- Generator: Adobe Illustrator 24.0.0, SVG Export Plug-In . SVG Version: 6.00 Build 0)  -->
<svg version="1.1" xmlns="http://www.w3.org/2000/svg" xmlns:xlink="http://www.w3.org/1999/xlink" x="0px" y="0px"
	 viewBox="0 0 256 256" enable-background="new 0 0 256 256" xml:space="preserve">
<g id="Caption">
</g>
<g id="Icons">
	<g>
		<path fill="#FC5D3D" d="M250.702,178.409v69.277h-62.103l9.488-30.53C205.247,194.112,226.571,178.409,250.702,178.409
			L250.702,178.409z"/>
		<path fill="#FC5D3D" d="M5.298,178.409v69.277h62.103l-9.488-30.53C50.753,194.112,29.429,178.409,5.298,178.409L5.298,178.409z"
			/>
		<path fill="#FC5D3D" d="M81.709,54.927c0,74.69-26.97,135.23-76.41,135.23V5.817h70.32C79.699,21.631,81.709,38.269,81.709,54.927
			z"/>
		<path fill="#F0C020" d="M83.319,232.941v14.745h89.362v-14.745c0-2.761-2.239-5-5-5H88.319
			C85.558,227.941,83.319,230.18,83.319,232.941z"/>
		<path d="M139.182,91.683c-3.729-1.228-6.641-2.022-8.591-10.421c-0.635-2.737-4.548-2.73-5.181,0
			c-1.907,8.213-4.566,9.092-8.591,10.422c-2.424,0.801-2.43,4.248,0,5.051c6.686,2.209,7.444,5.476,8.591,10.421
			c0.637,2.743,4.545,2.742,5.182,0c1.905-8.212,4.709-9.139,8.591-10.421C141.606,95.933,141.611,92.486,139.182,91.683z"/>
		<path fill="#F0C020" d="M131.985,94.238c-1.47,1.03-2.79,2.42-3.93,4.43c-0.94-1.58-2.25-3.08-4.17-4.4
			c1.55-1.06,2.94-2.5,4.13-4.64C129.215,91.788,130.575,93.228,131.985,94.238z"/>
		<path fill="#B25035" d="M50.67,202.242H5.3v-36.13h46.66c-6.3,7.91-13.57,14.12-21.78,18.24
			C38.35,188.492,45.42,194.622,50.67,202.242z"/>
		<path fill="#F0C020" d="M5.298,173.114v22.128h49.62c2.761,0,5-2.239,5-5v-12.128c0-2.761-2.239-5-5-5H5.298z"/>
		<path fill="#FC5D3D" d="M174.291,54.927c0,74.69,26.97,135.23,76.41,135.23V5.817h-70.32
			C176.301,21.631,174.291,38.269,174.291,54.927z"/>
		<path fill="#B25035" d="M81.71,54.842c-2.24-1.16-4.36-2.72-6.3-4.7c-9.64,9.87-25.42,9.86-35.05,0
			c-4.46,4.56-10.67,7.4-17.53,7.4c-6.86,0-13.08-2.83-17.53-7.39v-31.78h73.09C80.61,30.312,81.71,42.572,81.71,54.842z"/>
		<path fill="#B25035" d="M250.7,18.372v31.78c-4.45,4.56-10.67,7.39-17.53,7.39c-6.86,0-13.07-2.84-17.53-7.4
			c-9.64,9.87-25.42,9.86-35.05,0c-1.94,1.98-4.06,3.54-6.3,4.7c0-12.27,1.1-24.53,3.32-36.47H250.7z"/>
		<path fill="#B25035" d="M250.7,166.112v36.13h-45.37c5.25-7.62,12.32-13.75,20.49-17.89c-8.21-4.12-15.48-10.33-21.78-18.24H250.7
			z"/>
		<path fill="#F0C020" d="M250.702,173.114v22.128h-49.62c-2.761,0-5-2.239-5-5v-12.128c0-2.761,2.239-5,5-5H250.702z"/>
		<circle fill="#72C2E9" cx="97.259" cy="186.498" r="15.63"/>
		<circle fill="#72C2E9" cx="144.737" cy="186.498" r="15.63"/>
		<polygon fill="#72C2E9" points="112.893,135.305 112.893,153.603 160.371,138.355 160.371,120.069 		"/>
		<rect x="5.298" y="5.817" fill="#72C2E9" width="245.404" height="19.553"/>
		<path fill="#F0C020" d="M5.298,25.37v7.641c0,9.681,7.848,17.529,17.529,17.529h0c9.681,0,17.529-7.848,17.529-17.529V25.37H5.298
			z"/>
		<path fill="#EFEFEF" d="M40.356,25.37v7.641c0,9.681,7.848,17.529,17.529,17.529h0c9.681,0,17.529-7.848,17.529-17.529V25.37
			H40.356z"/>
		<path fill="#F0C020" d="M75.414,25.37v7.641c0,9.681,7.848,17.529,17.529,17.529h0c9.681,0,17.529-7.848,17.529-17.529V25.37
			H75.414z"/>
		<path fill="#EFEFEF" d="M110.471,25.37v7.641c0,9.681,7.848,17.529,17.529,17.529h0c9.681,0,17.529-7.848,17.529-17.529V25.37
			H110.471z"/>
		<path fill="#F0C020" d="M145.529,25.37v7.641c0,9.681,7.848,17.529,17.529,17.529h0c9.681,0,17.529-7.848,17.529-17.529V25.37
			H145.529z"/>
		<path fill="#EFEFEF" d="M180.586,25.37v7.641c0,9.681,7.848,17.529,17.529,17.529h0c9.681,0,17.529-7.848,17.529-17.529V25.37
			H180.586z"/>
		<path fill="#F0C020" d="M215.644,25.37v7.641c0,9.681,7.848,17.529,17.529,17.529h0c9.681,0,17.529-7.848,17.529-17.529V25.37
			H215.644z"/>
		<path fill="#FFCBC3" d="M50.747,150.47c-1.206-0.672-1.638-2.195-0.965-3.401c9.302-16.677,15.58-39.397,18.156-65.704
			c0.134-1.375,1.353-2.377,2.732-2.245c1.374,0.135,2.379,1.358,2.245,2.732c-2.643,26.986-9.132,50.379-18.767,67.652
			C53.477,150.707,51.955,151.145,50.747,150.47z M71.214,74.136c-0.05,0-0.101-0.001-0.151-0.004
			c-1.378-0.083-2.429-1.266-2.347-2.645c0.059-0.989,0.113-1.979,0.162-2.971c0.067-1.379,1.226-2.442,2.619-2.375
			c1.379,0.067,2.442,1.24,2.375,2.619c-0.049,1.009-0.104,2.018-0.165,3.025C73.628,73.113,72.526,74.136,71.214,74.136z"/>
		<path fill="#FFCBC3" d="M200.798,147.567c-0.476-0.897-0.941-1.808-1.399-2.731c-0.613-1.237-0.106-2.737,1.131-3.35
			c1.235-0.613,2.736-0.107,3.35,1.13c0.437,0.882,0.883,1.752,1.337,2.609c0.646,1.22,0.182,2.733-1.038,3.38
			C202.957,149.252,201.445,148.786,200.798,147.567z M195.256,135.514c-7.354-18.484-11.894-41.565-13.128-66.747
			c-0.067-1.379,0.996-2.552,2.375-2.62c1.373-0.061,2.552,0.996,2.619,2.375c1.207,24.639,5.627,47.165,12.78,65.143
			c0.51,1.283-0.116,2.737-1.399,3.247C197.217,137.425,195.766,136.793,195.256,135.514z"/>
		<path d="M69.5,140.502c0.52-1.28-0.09-2.74-1.36-3.27c-1.26-0.51-2.75,0.12-3.27,1.36c-0.519,1.287,0.091,2.738,1.36,3.27
			C67.63,142.404,69.002,141.703,69.5,140.502z"/>
		<path d="M250.702,245.183H218.62l4.843-27.598c1.289-7.352,3.494-14.168,6.385-19.846h20.853c1.381,0,2.5-1.119,2.5-2.5
			s-1.119-2.5-2.5-2.5h-49.619c-1.379,0-2.5-1.122-2.5-2.5v-12.128c0-1.378,1.121-2.5,2.5-2.5c11.002,0,39.744,0,49.619,0
			c1.381,0,2.5-1.119,2.5-2.5s-1.119-2.5-2.5-2.5h-19.426c-7.633-15.225-13.274-40.466-15.916-71.378
			c-0.119-1.36-1.34-2.4-2.71-2.28c-1.364,0.124-2.397,1.301-2.27,2.71c2.64,30.492,7.927,54.882,15.354,70.949h-14.361
			c-21.987-22.204-34.583-64.272-34.583-115.691c0-2.564,0.057-5.075,0.154-7.51c1.435-1.385,2.669-2.974,3.643-4.732
			c3.417,6.17,9.991,10.36,17.529,10.36c3.842,0,7.422-1.106,10.474-2.989c-0.019,1.611-0.029,3.237-0.029,4.874
			c0,8.39,0.181,16.69,0.53,24.67c0.056,1.256,1.031,2.39,2.6,2.39c1.245-0.054,2.391-1.025,2.391-2.61
			c-0.34-7.89-0.521-16.11-0.521-24.45c0-3.088,0.039-6.216,0.113-9.326c0.738-0.911,1.399-1.886,1.971-2.919
			c3.417,6.17,9.991,10.36,17.529,10.36c11.044,0,20.028-8.985,20.028-20.029v-7.641c0-1.381-1.119-2.5-2.5-2.5
			c-76.119,0-169.276,0-245.403,0c-1.381,0-2.5,1.119-2.5,2.5v7.641c0,11.044,8.985,20.029,20.029,20.029
			c7.538,0,14.112-4.19,17.529-10.36c0.571,1.032,1.232,2.007,1.97,2.917c0.073,3.098,0.115,6.229,0.115,9.329
			c0,51.227-6.452,93.216-17.729,115.687H5.298c-1.381,0-2.5,1.119-2.5,2.5s1.119,2.5,2.5,2.5c18.108,0,32.624,0,49.62,0
			c1.378,0,2.5,1.122,2.5,2.5v12.128c0,1.378-1.122,2.5-2.5,2.5H5.298c-1.381,0-2.5,1.119-2.5,2.5s1.119,2.5,2.5,2.5h20.854
			c2.89,5.676,5.095,12.492,6.385,19.847l4.842,27.598H5.299c-1.381,0-2.5,1.119-2.5,2.5s1.119,2.5,2.5,2.5
			c8.363,0,231.676,0,245.403,0c1.381,0,2.5-1.119,2.5-2.5S252.083,245.183,250.702,245.183z M218.538,216.721l-4.994,28.462
			h-21.551l8.483-27.291c2.333-7.495,6.373-14.433,11.686-20.153h12.135C221.724,203.363,219.745,209.834,218.538,216.721z
			 M248.201,33.009c0,8.287-6.741,15.029-15.028,15.029s-15.029-6.742-15.029-15.029v-5.141h30.058V33.009z M213.144,33.009
			c0,8.287-6.741,15.029-15.028,15.029s-15.029-6.742-15.029-15.029v-5.141h30.058V33.009z M148.028,27.867h30.058v5.141
			c0,8.287-6.741,15.029-15.028,15.029s-15.029-6.742-15.029-15.029V27.867z M112.971,33.009v-5.141h30.056v5.141
			c0,8.287-6.742,15.029-15.029,15.029c-8.281,0-15.017-6.731-15.028-15.01C112.97,33.021,112.971,33.015,112.971,33.009z
			 M77.914,33.009v-5.141h30.056v5.141c0,0.007,0.001,0.013,0.001,0.019c-0.011,8.278-6.747,15.01-15.028,15.01
			C84.655,48.037,77.914,41.296,77.914,33.009z M22.827,48.037c-8.287,0-15.029-6.742-15.029-15.029v-5.141h30.058v5.141
			C37.855,41.296,31.114,48.037,22.827,48.037z M42.855,27.867h30.058v5.141c0,8.287-6.742,15.029-15.029,15.029
			s-15.029-6.742-15.029-15.029V27.867z M62.418,190.238v-12.128c0-4.136-3.364-7.5-7.5-7.5H51.44
			c5.138-5.871,9.779-12.843,13.82-20.838c0.623-1.246,0.116-2.741-1.1-3.36c-1.21-0.61-2.76-0.1-3.36,1.1
			c-4.653,9.2-10.092,16.954-16.179,23.099H30.26c10.946-23.63,17.18-65.36,17.18-115.687c0-1.62-0.012-3.249-0.031-4.878
			c3.053,1.884,6.633,2.991,10.476,2.991c7.538,0,14.112-4.19,17.529-10.36c0.973,1.756,2.206,3.346,3.64,4.73
			c0.1,2.442,0.156,4.956,0.156,7.515c0,27.63-3.76,53.38-10.89,74.46c-0.422,1.207,0.168,2.688,1.57,3.17
			c1.247,0.433,2.706-0.218,3.17-1.57c8.056-23.841,11.15-50.797,11.15-76.06c0-1.318-0.016-2.631-0.041-3.936
			c2.654,1.301,5.624,2.052,8.774,2.052c7.538,0,14.11-4.189,17.528-10.358c3.417,6.169,9.99,10.358,17.528,10.358
			c7.539,0,14.113-4.19,17.53-10.361c3.417,6.17,9.991,10.361,17.53,10.361c3.15,0,6.121-0.751,8.775-2.052
			c-0.025,1.299-0.043,2.609-0.043,3.934c0,50.154,11.873,91.828,32.749,115.691h-3.457c-4.136,0-7.5,3.364-7.5,7.5v12.128
			c0,4.136,3.364,7.5,7.5,7.5h4.501c-4.385,5.541-7.773,11.895-9.881,18.668l-8.945,28.776h-11.576v-12.245
			c0-4.136-3.364-7.5-7.5-7.5H88.319c-4.136,0-7.5,3.364-7.5,7.5v12.245H69.242l-8.945-28.776
			c-2.107-6.773-5.495-13.127-9.88-18.668h4.501C59.054,197.738,62.418,194.374,62.418,190.238z M170.181,245.183H85.819v-12.245
			c0-1.378,1.122-2.5,2.5-2.5h79.362c1.379,0,2.5,1.122,2.5,2.5V245.183z M37.462,216.721c-1.209-6.889-3.187-13.359-5.761-18.982
			h12.135c5.313,5.721,9.354,12.658,11.686,20.153l8.484,27.292h-21.55L37.462,216.721z"/>
		<path d="M97.259,204.626c9.974,0,18.09-8.097,18.127-18.062c0.001-0.023,0.007-0.045,0.007-0.068v-31.07l14.447-4.643
			c1.29-0.403,2.044-1.794,1.62-3.15c-0.41-1.28-1.851-2.03-3.15-1.61l-12.917,4.151v-13.048l42.479-13.632v13.033l-10.521,3.376
			c-1.31,0.43-2.03,1.84-1.609,3.15c0.433,1.37,1.905,2.022,3.14,1.61l8.991-2.882v32.253c-3.306-3.482-7.965-5.668-13.134-5.668
			c-9.997,0-18.131,8.133-18.131,18.13s8.134,18.13,18.131,18.13c9.971,0,18.083-8.091,18.126-18.052
			c0.001-0.026,0.008-0.051,0.008-0.078c0-15.053,0-50.358,0-66.43c0-1.688-1.646-2.899-3.264-2.38l-47.479,15.236
			c-1.035,0.332-1.736,1.294-1.736,2.38c0,12.999,0,24.633,0,38.731c-3.306-3.482-7.965-5.668-13.134-5.668
			c-9.997,0-18.13,8.133-18.13,18.13S87.262,204.626,97.259,204.626z M144.737,199.626c-7.24,0-13.131-5.89-13.131-13.13
			s5.891-13.13,13.131-13.13s13.13,5.89,13.13,13.13S151.978,199.626,144.737,199.626z M97.259,173.365
			c7.24,0,13.13,5.89,13.13,13.13s-5.89,13.13-13.13,13.13c-7.24,0-13.13-5.89-13.13-13.13S90.019,173.365,97.259,173.365z"/>
		<path d="M139.359,147.722c1.311-0.42,2.04-1.83,1.62-3.14c-0.42-1.29-1.85-2.03-3.149-1.62c-1.311,0.42-2.03,1.83-1.61,3.15
			C136.637,147.414,138.038,148.145,139.359,147.722z"/>
		<path d="M211.96,86.972c-1.37,0.09-2.42,1.28-2.33,2.66v0.01c0.104,1.513,1.594,2.523,2.65,2.32c1.38-0.09,2.42-1.28,2.34-2.65
			C214.53,87.942,213.35,86.882,211.96,86.972z"/>
	</g>
</g>
</svg>
