<?xml version="1.0" encoding="utf-8"?>
<!-- Generator: Adobe Illustrator 24.0.0, SVG Export Plug-In . SVG Version: 6.00 Build 0)  -->
<svg version="1.1" xmlns="http://www.w3.org/2000/svg" xmlns:xlink="http://www.w3.org/1999/xlink" x="0px" y="0px"
	 viewBox="0 0 256 256" enable-background="new 0 0 256 256" xml:space="preserve">
<g id="Caption">
</g>
<g id="Icons">
	<g>
		<circle fill="#F0C020" cx="170.014" cy="85.492" r="80.979"/>
		<path fill="#F0C020" d="M118.838,128.183l-15.442,15.442c-2.343,2.343-2.343,6.142,0,8.485l0,0c2.343,2.343,6.142,2.343,8.485,0
			l15.442-15.442L118.838,128.183z"/>
		<path fill="#E8A61E" d="M213.489,67.986l-9.05,5.225c-0.494-3.91-2.866-7.242-6.192-9.046c1.498-3.015,2.344-6.408,2.344-9.997
			c0-12.437-10.117-22.554-22.554-22.554H137.84c-12.436,0-22.553,10.117-22.553,22.554c0,3.589,0.847,6.982,2.344,9.997
			c-3.747,2.032-6.297,6.001-6.297,10.556v46.259c0,6.617,5.383,12,12,12h69.211c6.107,0,11.152-4.588,11.895-10.496l9.047,5.224
			c7.997,4.623,18.003-1.175,18.003-10.391V78.378C231.49,69.199,221.523,63.368,213.489,67.986z"/>
		<path d="M70.392,85.847c-3.729-1.228-6.641-2.022-8.591-10.421c-0.635-2.737-4.548-2.73-5.181,0
			c-1.907,8.213-4.566,9.092-8.591,10.422c-2.424,0.801-2.43,4.248,0,5.051c6.686,2.209,7.444,5.476,8.591,10.421
			c0.637,2.743,4.545,2.742,5.182,0c1.905-8.212,4.709-9.139,8.591-10.421C72.816,90.098,72.821,86.65,70.392,85.847z"/>
		<path fill="#F0C020" d="M63.195,88.402c-1.47,1.03-2.79,2.42-3.93,4.43c-0.94-1.58-2.25-3.08-4.17-4.4
			c1.55-1.06,2.94-2.5,4.13-4.64C60.425,85.952,61.785,87.392,63.195,88.402z"/>
		<path d="M134.415,179.696c-3.729-1.228-6.641-2.022-8.591-10.421c-0.635-2.737-4.548-2.73-5.181,0
			c-1.907,8.213-4.566,9.092-8.591,10.422c-2.424,0.801-2.43,4.248,0,5.051c6.686,2.209,7.444,5.476,8.591,10.421
			c0.637,2.743,4.545,2.742,5.182,0c1.905-8.212,4.709-9.139,8.591-10.421C136.839,183.947,136.845,180.499,134.415,179.696z"/>
		<path fill="#F0C020" d="M127.218,182.251c-1.47,1.03-2.79,2.42-3.93,4.43c-0.94-1.58-2.25-3.08-4.17-4.4
			c1.55-1.06,2.94-2.5,4.13-4.64C124.448,179.801,125.808,181.241,127.218,182.251z"/>
		<circle fill="#EFEFEF" cx="178.038" cy="54.169" r="15.553"/>
		<path fill="#EFEFEF" d="M178.038,59.392c-2.88,0-5.223-2.343-5.223-5.223s2.343-5.224,5.223-5.224c2.88,0,5.223,2.344,5.223,5.224
			S180.918,59.392,178.038,59.392z"/>
		<circle fill="#EFEFEF" cx="137.84" cy="54.169" r="15.553"/>
		<path fill="#EFEFEF" d="M137.84,59.392c-2.88,0-5.223-2.343-5.223-5.223c0-2.88,2.343-5.224,5.223-5.224
			c2.88,0,5.223,2.344,5.223,5.224C143.063,57.049,140.72,59.392,137.84,59.392z"/>
		<path fill="#878787" d="M224.49,78.378v38.94c0,3.85-4.16,6.26-7.5,4.33l-12.45-7.19l-28.77-16.61l28.77-16.61l12.45-7.19
			C220.33,72.128,224.49,74.538,224.49,78.378z"/>
		<polygon fill="#4C4944" points="204.54,81.238 204.54,114.458 175.77,97.848 		"/>
		<path fill="#72C2E9" d="M118.334,74.722v46.258c0,2.761,2.239,5,5,5h69.211c2.761,0,5-2.239,5-5V74.722c0-2.761-2.239-5-5-5
			h-69.211C120.572,69.722,118.334,71.96,118.334,74.722z"/>
		<path fill="#72C2E9" d="M106.24,206.818l0.005,44.67c0,0-87.374,0-101.231,0v-44.67c0-11.262,9.117-20.39,20.379-20.39h60.468
			C97.123,186.428,106.24,195.556,106.24,206.818z"/>
		<path fill="#878787" d="M51.197,124.218v13.854h28.381v-13.854c0-5.39-4.37-9.76-9.76-9.76h-8.862
			C55.567,114.458,51.197,118.827,51.197,124.218z"/>
		<path fill="#878787" d="M51.197,124.218v13.854h-19.52v-13.854c0-5.39,4.37-9.76,9.76-9.76h0
			C46.828,114.458,51.197,118.827,51.197,124.218z"/>
		<rect x="85.863" y="222.291" fill="#FFB69F" width="20.382" height="29.197"/>
		<rect x="85.861" y="222.296" fill="#EA8F7C" width="7.544" height="29.192"/>
		<path fill="#4BA5C8" d="M25.392,222.296h-7.544l-0.002-1.261c-0.005-4.165,3.37-7.544,7.534-7.544h0L25.392,222.296z"/>
		<path fill="#4BA5C8" d="M85.864,222.296h7.544l0.002-1.261c0.005-4.165-3.37-7.544-7.534-7.544h0L85.864,222.296z"/>
		<rect x="5.003" y="222.291" fill="#FFB69F" width="20.382" height="29.197"/>
		<rect x="17.843" y="222.296" fill="#EA8F7C" width="7.544" height="29.192"/>
		<path fill="#FFB69F" d="M55.628,203.642L55.628,203.642c-7.477,0-13.538-6.061-13.538-13.538v-21.62h27.076v21.62
			C69.166,197.58,63.105,203.642,55.628,203.642z"/>
		<path fill="#FFB69F" d="M69.168,168.49c0,0.665,0.021,21.764-0.032,22.426c-0.41,7.102-6.315,12.727-13.503,12.727
			c-7.177,0-13.083-5.604-13.503-12.717c-0.053-0.688-0.032,0.631-0.032-22.437H69.168z"/>
		<path fill="#EA8F7C" d="M69.168,168.49c0,0.665,0.021,21.764-0.032,22.426c-4.095,1.961-8.675,3.061-13.503,3.061
			s-9.408-1.088-13.503-3.05c-0.053-0.688-0.032,0.631-0.032-22.437H69.168z"/>
		<path fill="#FFB69F" d="M55.628,186.429L55.628,186.429c-13.227,0-23.95-10.723-23.95-23.95v-24.407h47.901v24.407
			C79.578,175.706,68.855,186.429,55.628,186.429z"/>
		<path fill="#FFB69F" d="M83.815,162.25h-4.237v-16.118h4.237c4.451,0,8.059,3.608,8.059,8.059v0
			C91.874,158.642,88.266,162.25,83.815,162.25z"/>
		<path fill="#FFB69F" d="M27.441,162.25h4.237v-16.118h-4.237c-4.451,0-8.059,3.608-8.059,8.059v0
			C19.382,158.642,22.99,162.25,27.441,162.25z"/>
		<path fill="#FFE5AE" d="M233.854,60.71c-10.182-26.137-35.837-43.697-63.841-43.697c-8.274,0-16.366,1.467-24.052,4.359
			c-1.291,0.487-2.734-0.166-3.221-1.459c-0.486-1.292,0.167-2.734,1.459-3.221c8.251-3.105,16.936-4.68,25.813-4.68
			c30.048,0,57.576,18.841,68.499,46.883c0.502,1.286-0.135,2.735-1.422,3.236C235.794,62.638,234.351,61.986,233.854,60.71z
			 M131.265,25.994c-0.714-1.181-0.335-2.718,0.847-3.433c0.887-0.536,1.792-1.058,2.691-1.55c1.211-0.66,2.729-0.218,3.394,0.993
			c0.662,1.211,0.218,2.73-0.993,3.394c-0.847,0.463-1.682,0.944-2.506,1.442C133.523,27.55,131.983,27.183,131.265,25.994z"/>
		<path d="M178.038,61.893c4.259,0,7.724-3.465,7.724-7.724c0-4.26-3.465-7.725-7.724-7.725c-4.258,0-7.723,3.465-7.723,7.725
			C170.315,58.428,173.78,61.893,178.038,61.893z M178.038,51.444c1.502,0,2.724,1.223,2.724,2.725s-1.222,2.724-2.724,2.724
			c-1.501,0-2.723-1.222-2.723-2.724S176.537,51.444,178.038,51.444z"/>
		<path d="M137.84,61.893c4.259,0,7.724-3.465,7.724-7.724s-3.465-7.724-7.724-7.724s-7.724,3.465-7.724,7.724
			S133.581,61.893,137.84,61.893z M137.84,51.445c1.502,0,2.724,1.222,2.724,2.724s-1.222,2.724-2.724,2.724
			s-2.724-1.222-2.724-2.724S136.338,51.445,137.84,51.445z"/>
		<path d="M115.834,74.722v46.259c0,4.136,3.364,7.5,7.5,7.5h69.211c4.136,0,7.5-3.364,7.5-7.5v-6.232l15.694,9.061
			c4.984,2.883,11.251-0.692,11.251-6.494v-38.93c0-5.776-6.241-9.387-11.25-6.495l-15.695,9.063v-6.232c0-4.136-3.364-7.5-7.5-7.5
			h-2.07c3.452-3.29,5.617-7.919,5.617-13.053c0-9.955-8.099-18.054-18.054-18.054H137.84c-9.954,0-18.053,8.099-18.053,18.054
			c0,5.134,2.165,9.762,5.616,13.053h-2.07C119.198,67.222,115.834,70.586,115.834,74.722z M200.045,86.727l18.195-10.506
			c1.669-0.963,3.75,0.231,3.75,2.165v38.93c0,1.93-2.079,3.133-3.75,2.165l-18.195-10.505V86.727z M178.038,41.115
			c7.198,0,13.054,5.855,13.054,13.054c0,7.197-5.855,13.053-13.054,13.053c-7.197,0-13.053-5.855-13.053-13.053
			C164.985,46.971,170.841,41.115,178.038,41.115z M165.602,41.115c-3.452,3.29-5.617,7.919-5.617,13.054
			c0,5.134,2.165,9.762,5.616,13.053h-15.326c3.452-3.29,5.616-7.919,5.616-13.053c0-5.134-2.165-9.763-5.617-13.054H165.602z
			 M124.787,54.169c0-7.198,5.855-13.054,13.053-13.054s13.053,5.855,13.053,13.054c0,7.197-5.855,13.053-13.053,13.053
			S124.787,61.366,124.787,54.169z M192.545,72.222c1.379,0,2.5,1.121,2.5,2.5v46.259c0,1.379-1.121,2.5-2.5,2.5h-69.211
			c-1.379,0-2.5-1.121-2.5-2.5V74.722c0-1.379,1.121-2.5,2.5-2.5H192.545z"/>
		<path d="M165.988,106.55h19.571c1.381,0,2.5-1.119,2.5-2.5s-1.119-2.5-2.5-2.5h-19.571c-1.381,0-2.5,1.119-2.5,2.5
			S164.607,106.55,165.988,106.55z"/>
		<path d="M165.988,116.782h19.571c1.381,0,2.5-1.119,2.5-2.5s-1.119-2.5-2.5-2.5h-19.571c-1.381,0-2.5,1.119-2.5,2.5
			S164.607,116.782,165.988,116.782z"/>
		<path d="M170.01,2.01c-46.03,0-83.479,37.449-83.479,83.48c0,19.248,6.658,37.86,18.766,52.698l-3.667,3.667
			c-3.31,3.309-3.312,8.702,0,12.026c3.312,3.314,8.71,3.316,12.024,0l3.669-3.669c14.84,12.101,33.45,18.756,52.685,18.757
			c0,0,0,0,0,0c0,0,0.001,0,0.001,0c0,0,0.001,0,0.001,0s0,0,0,0c9.449,0,18.729-1.571,27.568-4.66c1.3-0.46,1.989-1.88,1.54-3.189
			c-0.45-1.261-1.91-1.98-3.19-1.53c0,0,0,0-0.01,0c-8.3,2.91-17.02,4.38-25.909,4.38c-18.816,0-37.005-6.756-51.215-19.022
			c-0.992-0.857-2.503-0.774-3.401,0.125l-5.274,5.274c-1.365,1.365-3.587,1.365-4.95,0.004c-1.365-1.372-1.367-3.596-0.004-4.959
			c6.07-6.071,5.163-5.159,5.372-5.395c0.849-0.961,0.812-2.374,0.026-3.282C98.289,122.51,91.53,104.317,91.53,85.49
			c0-43.274,35.206-78.48,78.479-78.48c43.269,0,78.472,35.198,78.48,78.465c0,0.005-0.002,0.01-0.002,0.016
			c0,26.43-13.181,50.92-35.25,65.51c-1.181,0.78-1.448,2.354-0.71,3.47c0.794,1.183,2.356,1.445,3.47,0.71
			c22.545-14.916,37.482-40.542,37.49-69.667c0-0.008,0.002-0.015,0.002-0.023C253.49,39.459,216.041,2.01,170.01,2.01z"/>
		<path d="M204.857,155.83c-0.01,0-0.01,0.01-0.01,0.01c-1.222,0.611-1.744,2.111-1.12,3.34c0.633,1.296,2.187,1.714,3.33,1.14
			c0.111,0,2.168-1.288,1.15-3.359C207.607,155.76,206.067,155.229,204.857,155.83z"/>
		<path d="M55.628,161.946c1.381,0,2.5-1.119,2.5-2.5v-7.764c0-1.381-1.119-2.5-2.5-2.5s-2.5,1.119-2.5,2.5v7.764
			C53.128,160.827,54.247,161.946,55.628,161.946z"/>
		<path d="M44.31,165.244c0,6.241,5.077,11.318,11.318,11.318s11.318-5.077,11.318-11.318c0-1.381-1.119-2.5-2.5-2.5
			s-2.5,1.119-2.5,2.5c0,3.484-2.834,6.318-6.318,6.318s-6.318-2.834-6.318-6.318c0-1.381-1.119-2.5-2.5-2.5
			S44.31,163.863,44.31,165.244z"/>
		<path d="M44.286,152.741c1.381,0,2.5-1.119,2.5-2.5v-1.762c0-1.381-1.119-2.5-2.5-2.5s-2.5,1.119-2.5,2.5v1.762
			C41.786,151.622,42.905,152.741,44.286,152.741z"/>
		<path d="M66.97,152.741c1.381,0,2.5-1.119,2.5-2.5v-1.762c0-1.381-1.119-2.5-2.5-2.5s-2.5,1.119-2.5,2.5v1.762
			C64.47,151.622,65.589,152.741,66.97,152.741z"/>
		<path d="M5.01,253.99c1.381,0,2.5-1.119,2.5-2.5v-26.699h15.376v26.696c0,1.381,1.119,2.5,2.5,2.5s2.5-1.119,2.5-2.5
			c0-11.878,0.003-32.458-0.004-37.999c-0.002-1.38-1.12-2.497-2.5-2.497c-0.001,0-0.002,0-0.003,0
			c-1.381,0.002-2.499,1.122-2.497,2.503l0.008,6.297H7.51V206.82c0-9.864,8.021-17.89,17.879-17.89h14.197v1.173
			c0,8.842,7.198,16.035,16.047,16.035c8.842,0,16.035-7.193,16.035-16.035v-1.173h14.189c9.858,0,17.879,8.025,17.879,17.891
			l0.003,12.97H88.362l0-6.302c0-1.381-1.119-2.5-2.5-2.5s-2.5,1.119-2.5,2.5l0.002,37.998c0,1.381,1.119,2.5,2.5,2.5
			s2.5-1.119,2.5-2.5l-0.001-26.696h15.379l0.006,26.7c0,1.38,1.119,2.499,2.5,2.499c0,0,0,0,0.001,0c1.38,0,2.499-1.12,2.499-2.501
			c-0.004-15.021-0.007-29.772-0.011-44.669c0-12.621-10.264-22.89-22.879-22.89H71.668v-0.44
			c5.756-4.405,9.654-11.115,10.306-18.741h1.841c5.822,0,10.559-4.737,10.559-10.56s-4.736-10.559-10.559-10.559h-1.737
			c0-4.498,0-14.902,0-19.414c0-6.76-5.5-12.26-12.26-12.26h-8.861c-3.984,0-7.519,1.919-9.76,4.871
			c-2.241-2.952-5.776-4.871-9.76-4.871c-6.76,0-12.26,5.5-12.26,12.26c0,4.514,0,14.919,0,19.414H27.44
			c-5.822,0-10.559,4.736-10.559,10.559s4.736,10.56,10.559,10.56h1.841c0.652,7.625,4.549,14.334,10.304,18.739v0.441H25.389
			c-12.615,0-22.879,10.269-22.879,22.89c0,14.867,0,29.704,0,44.67C2.51,252.871,3.629,253.99,5.01,253.99z M82.078,148.632h1.737
			c3.065,0,5.559,2.493,5.559,5.559s-2.493,5.56-5.559,5.56h-1.737V148.632z M29.178,159.75H27.44c-3.065,0-5.559-2.494-5.559-5.56
			s2.493-5.559,5.559-5.559h1.737V159.75z M66.668,190.104c0,6.085-4.95,11.035-11.035,11.035c-6.091,0-11.047-4.95-11.047-11.035
			v-3.599c3.363,1.552,7.102,2.424,11.042,2.424c3.964,0,7.707-0.887,11.033-2.42C66.672,186.842,66.668,185.585,66.668,190.104z
			 M53.697,124.218c0-4.003,3.257-7.26,7.26-7.26h8.861c4.003,0,7.26,3.257,7.26,7.26v11.354H53.697V124.218z M34.178,124.218
			c0-4.003,3.257-7.26,7.26-7.26s7.26,3.257,7.26,7.26v11.354h-14.52V124.218z M34.178,162.479c0-2.492,0-19.377,0-21.907h42.9
			c0,13.301,0,7.555,0,21.907c0,11.828-9.622,21.45-21.45,21.45S34.178,174.307,34.178,162.479z"/>
	</g>
</g>
</svg>
