<?xml version="1.0" encoding="utf-8"?>
<!-- Generator: Adobe Illustrator 24.0.0, SVG Export Plug-In . SVG Version: 6.00 Build 0)  -->
<svg version="1.1" xmlns="http://www.w3.org/2000/svg" xmlns:xlink="http://www.w3.org/1999/xlink" x="0px" y="0px"
	 viewBox="0 0 256 256" enable-background="new 0 0 256 256" xml:space="preserve">
<g id="Caption">
</g>
<g id="Icons">
	<g>
		<path fill="#FC5D3D" d="M3.894,30.558v117.462h0c24.416,0,45.744-16.507,51.866-40.143l20.027-77.319H3.894z"/>
		<polygon fill="#B25035" points="3.89,30.56 75.79,30.56 73.98,37.56 3.89,37.56 		"/>
		<path fill="#FC5D3D" d="M3.894,148.021v74.921H51.17l-4.877-37.657C43.534,163.972,25.383,148.021,3.894,148.021L3.894,148.021z"
			/>
		<path fill="#B25035" d="M37.397,164.209h-33.5v-16.19C17.367,148.019,29.517,154.279,37.397,164.209z"/>
		<path fill="#B25035" d="M36.687,136.809c-9.15,7.08-20.58,11.21-32.79,11.21v-15.68h37.86
			C40.167,133.939,38.477,135.429,36.687,136.809z"/>
		<path fill="#EFEFEF" d="M3.894,139.335v17.872h40.234c2.761,0,5-2.239,5-5v-7.872c0-2.761-2.239-5-5-5H3.894z"/>
		<path fill="#FC5D3D" d="M252.106,30.558v117.462h0c-24.416,0-45.744-16.507-51.866-40.143l-20.027-77.319H252.106z"/>
		<polygon fill="#B25035" points="252.11,30.56 252.11,37.56 182.02,37.56 180.21,30.56 		"/>
		<path fill="#FC5D3D" d="M252.106,148.021v74.921H204.83l4.877-37.657C212.466,163.972,230.617,148.021,252.106,148.021
			L252.106,148.021z"/>
		<path fill="#B25035" d="M252.103,132.339v15.68c-12.21,0-23.64-4.13-32.79-11.21c-1.79-1.38-3.48-2.87-5.07-4.47H252.103z"/>
		<path fill="#B25035" d="M252.103,148.019v16.19h-33.5C226.483,154.279,238.633,148.019,252.103,148.019z"/>
		<path fill="#EFEFEF" d="M252.106,139.335v17.872h-40.234c-2.761,0-5-2.239-5-5v-7.872c0-2.761,2.239-5,5-5H252.106z"/>
		<rect x="3.894" y="222.941" fill="#F0C020" width="248.213" height="26.553"/>
		<rect x="3.897" y="4.005" fill="#72C2E9" width="248.206" height="26.553"/>
		<circle fill="#AFAFAF" cx="128" cy="125.816" r="13.875"/>
		<path fill="#AFAFAF" d="M172.735,146.561c0-3.794-3.076-6.87-6.87-6.87c-1.444,0-77.513,0-75.729,0c-3.794,0-6.87,3.076-6.87,6.87
			v0.01c0,3.794,3.076,6.87,6.87,6.87h18.708l-4.886,60.709c-0.381,4.737,3.36,8.791,8.112,8.791h0c4.283,0,7.833-3.32,8.12-7.593
			l1.333-19.852c0.229-3.408,3.06-6.055,6.475-6.055h0.003c3.416,0,6.247,2.647,6.475,6.055l1.333,19.852
			c0.287,4.273,3.837,7.593,8.12,7.593h0c4.752,0,8.493-4.054,8.112-8.791l-4.886-60.709h18.708c3.794,0,6.87-3.076,6.87-6.87
			V146.561z"/>
		<path d="M189.898,175.249c-3.729-1.228-6.641-2.022-8.591-10.421c-0.635-2.737-4.548-2.73-5.181,0
			c-1.907,8.213-4.566,9.092-8.591,10.422c-2.424,0.801-2.43,4.248,0,5.051c6.686,2.209,7.444,5.476,8.591,10.421
			c0.637,2.743,4.545,2.742,5.182,0c1.905-8.212,4.709-9.139,8.591-10.421C192.322,179.499,192.328,176.052,189.898,175.249z"/>
		<path fill="#F0C020" d="M182.701,177.804c-1.47,1.03-2.79,2.42-3.93,4.43c-0.94-1.58-2.25-3.08-4.17-4.4
			c1.55-1.06,2.94-2.5,4.13-4.64C179.931,175.354,181.291,176.794,182.701,177.804z"/>
		<path d="M88.465,175.249c-3.729-1.228-6.641-2.022-8.591-10.421c-0.635-2.737-4.548-2.73-5.181,0
			c-1.907,8.213-4.566,9.092-8.591,10.422c-2.424,0.801-2.43,4.248,0,5.051c6.686,2.209,7.444,5.476,8.591,10.421
			c0.637,2.743,4.545,2.742,5.182,0c1.905-8.212,4.709-9.139,8.591-10.421C90.889,179.499,90.895,176.052,88.465,175.249z"/>
		<path fill="#F0C020" d="M81.268,177.804c-1.47,1.03-2.79,2.42-3.93,4.43c-0.94-1.58-2.25-3.08-4.17-4.4
			c1.55-1.06,2.94-2.5,4.13-4.64C78.498,175.354,79.858,176.794,81.268,177.804z"/>
		<path fill="#FFCBC3" d="M35.042,125.022c-1.038-0.91-1.143-2.489-0.233-3.528c4.19-4.783,7.251-10.576,8.851-16.751l6.364-24.571
			c0.347-1.336,1.717-2.138,3.047-1.793c1.337,0.346,2.14,1.71,1.793,3.047l-6.364,24.571c-1.794,6.926-5.228,13.424-9.929,18.792
			C37.666,125.822,36.087,125.936,35.042,125.022z M54.324,73.538c-1.336-0.346-2.14-1.71-1.793-3.047l0.752-2.904
			c0.346-1.337,1.712-2.14,3.047-1.793c1.336,0.346,2.14,1.71,1.793,3.047l-0.752,2.904C57.028,73.074,55.669,73.887,54.324,73.538z
			"/>
		<path fill="#FFCBC3" d="M217.433,124.791c-0.693-0.79-1.368-1.616-2.008-2.456c-0.836-1.099-0.624-2.667,0.475-3.504
			c1.102-0.836,2.667-0.622,3.504,0.475c0.569,0.749,1.172,1.485,1.789,2.19c0.91,1.038,0.807,2.617-0.232,3.527
			C219.925,125.932,218.343,125.831,217.433,124.791z M210.043,113.26c-1.043-2.334-1.898-4.777-2.542-7.263l-9.517-36.743
			c-0.347-1.337,0.456-2.701,1.793-3.047c1.333-0.345,2.701,0.457,3.047,1.793l9.517,36.743c0.574,2.217,1.337,4.396,2.267,6.476
			c0.563,1.261-0.002,2.739-1.262,3.303C212.071,115.091,210.6,114.506,210.043,113.26z"/>
		<path fill="#FFE5AE" d="M242.106,241.994h-3c-1.381,0-2.5-1.119-2.5-2.5s1.119-2.5,2.5-2.5h3c1.381,0,2.5,1.119,2.5,2.5
			S243.487,241.994,242.106,241.994z M229.106,241.994H13.894c-1.381,0-2.5-1.119-2.5-2.5s1.119-2.5,2.5-2.5h215.213
			c1.381,0,2.5,1.119,2.5,2.5S230.487,241.994,229.106,241.994z"/>
		<path fill="#B7E5FF" d="M241.363,16.505H27.637c-1.381,0-2.5-1.119-2.5-2.5s1.119-2.5,2.5-2.5h213.727c1.381,0,2.5,1.119,2.5,2.5
			S242.744,16.505,241.363,16.505z M17.637,16.505h-3c-1.381,0-2.5-1.119-2.5-2.5s1.119-2.5,2.5-2.5h3c1.381,0,2.5,1.119,2.5,2.5
			S19.018,16.505,17.637,16.505z"/>
		<path d="M211.872,141.835c4.053,0,31.733,0,40.234,0c1.381,0,2.5-1.119,2.5-2.5s-1.119-2.5-2.5-2.5H239.8
			c-4.62-6.988-7.939-17.304-9.381-29.257l-8.995-74.52h30.68c1.381,0,2.5-1.119,2.5-2.5s-1.119-2.5-2.5-2.5H3.896
			c-1.381,0-2.5,1.119-2.5,2.5s1.119,2.5,2.5,2.5h30.68l-8.995,74.52c-1.442,11.953-4.761,22.269-9.381,29.257H3.894
			c-1.381,0-2.5,1.119-2.5,2.5s1.119,2.5,2.5,2.5c31.408,0,31.981,0,40.234,0c1.379,0,2.5,1.121,2.5,2.5v7.872
			c0,1.379-1.121,2.5-2.5,2.5c-8.188,0-25.975,0-40.234,0c-1.381,0-2.5,1.119-2.5,2.5s1.119,2.5,2.5,2.5h12.645
			c4.024,6.544,6.607,15.619,7.301,25.748l2.398,34.986H3.894c-1.381,0-2.5,1.119-2.5,2.5s1.119,2.5,2.5,2.5h31.074v24.054
			c0,1.381,1.119,2.5,2.5,2.5s2.5-1.119,2.5-2.5v-24.054h40.267v24.054c0,1.381,1.119,2.5,2.5,2.5s2.5-1.119,2.5-2.5v-24.054H125.5
			v24.054c0,1.381,1.119,2.5,2.5,2.5s2.5-1.119,2.5-2.5v-24.054h40.266v24.054c0,1.381,1.119,2.5,2.5,2.5s2.5-1.119,2.5-2.5v-24.054
			h40.267v24.054c0,1.381,1.119,2.5,2.5,2.5s2.5-1.119,2.5-2.5v-24.054h31.074c1.381,0,2.5-1.119,2.5-2.5s-1.119-2.5-2.5-2.5
			h-22.344l2.398-34.986c0.694-10.129,3.277-19.204,7.301-25.748h12.645c1.381,0,2.5-1.119,2.5-2.5s-1.119-2.5-2.5-2.5h-40.234
			c-1.379,0-2.5-1.121-2.5-2.5v-7.872C209.372,142.956,210.493,141.835,211.872,141.835z M97.309,33.058h61.383v104.133h-18.938
			c2.854-2.949,4.621-6.957,4.621-11.375c0-9.029-7.346-16.375-16.375-16.375s-16.375,7.346-16.375,16.375
			c0,4.418,1.767,8.426,4.621,11.375H97.309V33.058z M139.375,125.816c0,6.272-5.103,11.375-11.375,11.375
			s-11.375-5.103-11.375-11.375s5.103-11.375,11.375-11.375S139.375,119.544,139.375,125.816z M32.355,136.835H22.042
			c4.166-7.441,7.146-17.409,8.504-28.657l9.067-75.119H72.56l-19.22,74.193C50.19,119.393,42.746,129.865,32.355,136.835z
			 M31.25,220.441l-2.421-35.328c-0.662-9.654-2.962-18.489-6.556-25.406h7.202c7.935,6.523,13.023,15.681,14.343,25.893
			l4.506,34.842H31.25z M121.076,220.441c0.909-1.444,1.488-3.119,1.609-4.925l1.333-19.853c0.141-2.087,1.89-3.723,3.983-3.723
			c2.093,0,3.841,1.636,3.981,3.724l1.333,19.852c0.121,1.806,0.7,3.48,1.609,4.925H121.076z M143.931,220.441
			c-2.957,0-5.429-2.311-5.627-5.261l-1.333-19.851c-0.315-4.704-4.256-8.389-8.972-8.389c-4.715,0-8.654,3.685-8.97,8.388
			l-1.333,19.852c-0.198,2.95-2.67,5.261-5.627,5.261c-3.27,0-5.886-2.78-5.619-6.09c0,0,0-0.001,0-0.002c0,0,0,0,0,0l1.439-17.85
			c0.104-1.378-0.923-2.588-2.3-2.69c-1.36-0.13-2.58,0.931-2.69,2.29l-1.427,17.811c-0.001,0.013-0.006,0.025-0.007,0.039
			c-0.184,2.29,0.393,4.568,1.595,6.492H53.365l-4.589-35.482c-1.24-9.586-5.425-18.351-11.965-25.252h7.316
			c4.136,0,7.5-3.364,7.5-7.5v-7.872c0-4.136-3.364-7.5-7.5-7.5h-3.531c8.56-7.398,14.704-17.23,17.583-28.328l19.545-75.448h14.584
			v104.133h-2.204c-5.097,0-9.339,4.177-9.339,9.38c0,5.167,4.203,9.37,9.37,9.37h15.997l-1.623,20.229
			c-0.122,1.356,0.896,2.586,2.29,2.689c1.659,0,2.597-1.088,2.69-2.29l1.85-22.93c0.104-1.431-1.051-2.698-2.496-2.698H90.136
			c-2.41,0-4.37-1.96-4.37-4.38c0-2.41,1.96-4.37,4.37-4.37h75.729c2.41,0,4.37,1.96,4.37,4.38c0,2.41-1.96,4.37-4.37,4.37h-18.708
			c-1.457,0-2.609,1.245-2.492,2.7l4.886,60.71C149.817,217.663,147.199,220.441,143.931,220.441z M226.526,159.707h7.202
			c-3.594,6.917-5.895,15.752-6.556,25.406l-2.421,35.328h-17.073l4.506-34.842C213.503,175.388,218.591,166.23,226.526,159.707z
			 M211.872,159.707h7.316c-6.539,6.901-10.725,15.666-11.965,25.252l-4.589,35.482h-49.696c1.202-1.925,1.779-4.203,1.595-6.491
			l-4.669-58.009h15.999c5.167,0,9.37-4.203,9.37-9.38c0-5.167-4.203-9.37-9.37-9.37h-2.173V33.058h14.582L183.77,54.3
			c0.336,1.273,1.641,2.142,3.05,1.79c1.341-0.35,2.141-1.71,1.801-3.05l-5.179-19.981h32.946l9.067,75.119
			c1.358,11.248,4.338,21.217,8.504,28.657h-10.313c-10.391-6.969-17.834-17.44-20.984-29.581c0-0.001,0-0.003-0.001-0.004
			l-9.03-34.851c-0.34-1.31-1.73-2.13-3.05-1.79c-1.332,0.355-2.139,1.717-1.79,3.051l9.029,34.85
			c0.002,0.008,0.006,0.016,0.008,0.024c2.882,11.087,9.023,20.909,17.576,28.301h-3.531c-4.136,0-7.5,3.364-7.5,7.5v7.872
			C204.372,156.343,207.736,159.707,211.872,159.707z"/>
		<path d="M191.12,62.72c-0.34-1.31-1.721-2.13-3.04-1.79c-1.34,0.34-2.141,1.71-1.8,3.05c0.329,1.253,1.591,2.136,3.05,1.79
			C190.66,65.42,191.47,64.059,191.12,62.72z"/>
		<path d="M106.399,183.84c-1.38-0.13-2.59,0.94-2.699,2.29c-0.11,1.38,0.92,2.58,2.3,2.7c1.633,0,2.587-1.088,2.689-2.29
			C108.8,185.16,107.77,183.95,106.399,183.84z"/>
	</g>
</g>
</svg>
