<?xml version="1.0" encoding="utf-8"?>
<!-- Generator: Adobe Illustrator 24.0.0, SVG Export Plug-In . SVG Version: 6.00 Build 0)  -->
<svg version="1.1" xmlns="http://www.w3.org/2000/svg" xmlns:xlink="http://www.w3.org/1999/xlink" x="0px" y="0px"
	 viewBox="0 0 256 256" enable-background="new 0 0 256 256" xml:space="preserve">
<g id="Caption">
</g>
<g id="Icons">
	<g>
		<circle fill="#FC5D3D" cx="128" cy="128" r="120.24"/>
		<path fill="#B25035" d="M190.35,88.74L78.52,182.57c-4.95-4.49-9.29-9.65-12.86-15.32l111.82-93.82
			C182.43,77.91,186.77,83.07,190.35,88.74z"/>
		<path fill="#F0C020" d="M197.94,56.26L45.19,184.43c-11-16.08-17.43-35.52-17.43-56.43C27.76,72.73,72.73,27.76,128,27.76
			C155.18,27.76,179.87,38.63,197.94,56.26z"/>
		<path fill="#E8A61E" d="M177.48,73.43L65.65,167.26C58.46,155.89,54.3,142.42,54.3,128c0-40.64,33.06-73.7,73.7-73.7
			C147.03,54.3,164.39,61.54,177.48,73.43z"/>
		<path fill="#F0C020" d="M228.24,128c0,55.27-44.97,100.24-100.24,100.24c-27.18,0-51.87-10.87-69.94-28.5L210.81,71.57
			C221.81,87.65,228.24,107.09,228.24,128z"/>
		<path fill="#E8A61E" d="M196.09,183.84c2,7.48-4.87,14.22-12.25,12.25l-18.06-4.84c-27.516,16.509-63,13.356-87.26-8.68
			l111.83-93.83c7.19,11.37,11.35,24.84,11.35,39.26c0,13.8-3.82,26.73-10.45,37.78L196.09,183.84z"/>
		<circle fill="#EFEFEF" cx="128" cy="128" r="66.702"/>
		<path fill="#EFEFEF" d="M189.328,185.653l-6.198-23.133l-20.609,20.609l23.133,6.198
			C187.884,189.925,189.925,187.884,189.328,185.653z"/>
		<path fill="#72C2E9" d="M151.489,108.958h-46.979c-3.313,0-6-2.687-6-6s2.687-6,6-6h46.979c3.313,0,6,2.687,6,6
			S154.803,108.958,151.489,108.958z"/>
		<path fill="#72C2E9" d="M161.68,134H94.479c-3.313,0-6-2.687-6-6s2.687-6,6-6h67.201c3.313,0,6,2.687,6,6S164.993,134,161.68,134z
			"/>
		<path fill="#72C2E9" d="M151.489,159.042h-46.979c-3.313,0-6-2.687-6-6s2.687-6,6-6h46.979c3.313,0,6,2.687,6,6
			S154.803,159.042,151.489,159.042z"/>
		<path fill="#FFE5AE" d="M37.76,130.5c-1.381,0-2.5-1.119-2.5-2.5c0-1.03,0.017-2.057,0.05-3.08
			c0.044-1.379,1.187-2.458,2.58-2.417c1.38,0.044,2.462,1.199,2.417,2.58c-0.031,0.969-0.047,1.941-0.047,2.917
			C40.26,129.381,39.141,130.5,37.76,130.5z M38.33,117.523c-1.367-0.197-2.314-1.465-2.117-2.831
			C42.749,69.408,82.208,35.26,128,35.26c1.381,0,2.5,1.119,2.5,2.5s-1.119,2.5-2.5,2.5c-43.323,0-80.655,32.306-86.839,75.146
			C40.964,116.769,39.699,117.722,38.33,117.523z"/>
		<path fill="#FFE5AE" d="M128,220.74c-20.459,0-39.839-6.532-56.045-18.89c-1.098-0.837-1.309-2.406-0.472-3.504
			c0.836-1.098,2.405-1.31,3.504-0.472c23.835,18.176,54.062,22.098,80.212,13.551c3.153-1.023,4.692,3.726,1.554,4.753
			C147.493,219.205,137.819,220.74,128,220.74z M163.013,211.208c-0.572-1.256-0.017-2.739,1.24-3.311
			c0.885-0.403,1.762-0.82,2.631-1.252c1.236-0.616,2.737-0.11,3.351,1.126c0.614,1.237,0.11,2.737-1.126,3.351
			c-0.92,0.457-1.848,0.899-2.785,1.325C165.078,213.015,163.59,212.474,163.013,211.208z"/>
		<path d="M128,250.74c67.679,0,122.74-55.061,122.74-122.74c0-0.002,0-0.003,0-0.005v-0.005c0-45.648-25.168-87.032-64.96-108.31
			c-1.2-0.634-2.734-0.203-3.38,1.03c-0.641,1.18-0.225,2.714,1.02,3.38c38.44,20.56,62.32,60.37,62.32,103.91
			c0,0.001,0,0.003,0,0.004C245.738,192.925,192.921,245.74,128,245.74c-64.922,0-117.74-52.818-117.74-117.74
			C10.26,63.078,63.078,10.26,128,10.26c0.001,0,0.003,0,0.004,0c12.818,0,25.427,2.051,37.476,6.09
			c1.275,0.441,2.729-0.247,3.17-1.57c0.44-1.31-0.27-2.73-1.58-3.17c-12.56-4.21-25.69-6.35-39.05-6.35H128
			c-0.002,0-0.004,0.001-0.006,0.001C60.318,5.263,5.26,60.323,5.26,128C5.26,195.679,60.321,250.74,128,250.74z"/>
		<path d="M174.61,19.85c1.357,0.551,2.762-0.096,3.29-1.31c0.54-1.26-0.04-2.74-1.31-3.28c-1.24-0.54-2.75,0.07-3.28,1.3
			C172.744,17.839,173.371,19.301,174.61,19.85z"/>
		<path d="M25.26,128c0,20.754,6.178,40.755,17.867,57.842c0.831,1.215,2.535,1.456,3.67,0.503L70.5,166.455
			c2.799,4.171,6.048,8.012,9.662,11.476l-23.709,19.894c-1.101,0.923-1.207,2.653-0.133,3.705c6.48,6.32,13.76,11.77,21.64,16.18
			c1.181,0.671,2.721,0.259,3.4-0.96c0.68-1.2,0.25-2.73-0.96-3.4c0,0,0,0-0.01-0.01c-6.688-3.75-12.925-8.279-18.57-13.491
			l22.102-18.545c23.358,19.349,56.184,21.027,81.172,5.105L185,191.744c4.1,1.103,7.843-2.661,6.744-6.741l-5.336-19.91
			C193.466,154.018,197.2,141.221,197.2,128c0-12.415-3.303-24.066-9.051-34.151l22.125-18.566
			C220.402,91.017,225.74,109.182,225.74,128c0,53.893-43.844,97.738-97.736,97.74c-0.001,0-0.003,0-0.004,0
			c-10.15,0-20.16-1.56-29.75-4.63c-1.29-0.41-2.73,0.34-3.14,1.62c-0.414,1.323,0.293,2.715,1.62,3.15
			c10.078,3.22,20.596,4.859,31.264,4.86c0.002,0,0.004,0.001,0.006,0.001c56.651,0,102.74-46.089,102.74-102.74
			c0-20.754-6.178-40.755-17.867-57.842c-0.831-1.215-2.535-1.456-3.67-0.503L185.5,89.545c-2.799-4.171-6.048-8.012-9.662-11.476
			l23.709-19.894c1.133-0.951,1.197-2.673,0.139-3.705C180.379,35.634,154.92,25.26,128,25.26C71.349,25.26,25.26,71.349,25.26,128z
			 M192.2,128c0,12.622-3.657,24.83-10.576,35.302c-0.386,0.584-0.501,1.38-0.329,2.025l5.621,20.972
			c0.1,0.373-0.24,0.716-0.619,0.616l-20.97-5.62c-0.647-0.174-1.433-0.063-2.025,0.329C152.83,188.543,140.622,192.2,128,192.2
			c-35.4,0-64.2-28.8-64.2-64.2S92.6,63.8,128,63.8S192.2,92.6,192.2,128z M172.079,74.696C160.099,64.773,144.735,58.8,128,58.8
			c-38.157,0-69.2,31.043-69.2,69.2c0,12.415,3.303,24.066,9.051,34.151l-22.125,18.566C35.598,164.983,30.26,146.818,30.26,128
			c0-53.894,43.846-97.74,97.74-97.74c24.686,0,48.081,9.171,66.187,25.885L172.079,74.696z"/>
		<path d="M89.14,217.69c0-0.01,0-0.01-0.01-0.01c-1.23-0.54-2.75,0.07-3.29,1.3c-0.55,1.26,0.03,2.73,1.3,3.29
			c1.362,0.552,2.762-0.098,3.29-1.3C90.994,219.696,90.371,218.214,89.14,217.69z"/>
		<path d="M104.511,111.458h46.979c4.687,0,8.5-3.813,8.5-8.5s-3.813-8.5-8.5-8.5h-46.979c-4.687,0-8.5,3.813-8.5,8.5
			S99.824,111.458,104.511,111.458z M104.511,99.458h46.979c1.93,0,3.5,1.57,3.5,3.5s-1.57,3.5-3.5,3.5h-46.979
			c-1.93,0-3.5-1.57-3.5-3.5S102.581,99.458,104.511,99.458z"/>
		<path d="M161.68,119.5H94.479c-4.687,0-8.5,3.813-8.5,8.5s3.813,8.5,8.5,8.5c0,0,0,0,0,0s0,0,0,0h14.2c1.38,0,2.5-1.12,2.5-2.5
			c0-1.38-1.12-2.5-2.5-2.5h-14.2c0,0,0,0,0,0s0,0,0,0c-1.93,0-3.5-1.57-3.5-3.5s1.57-3.5,3.5-3.5h67.201c1.93,0,3.5,1.57,3.5,3.5
			s-1.57,3.5-3.5,3.5c0,0,0,0,0,0s0,0,0,0h-33c-1.38,0-2.5,1.12-2.5,2.5c0,1.38,1.12,2.5,2.5,2.5h33c0,0,0,0,0,0s0,0,0,0
			c4.687,0,8.5-3.813,8.5-8.5S166.367,119.5,161.68,119.5z"/>
		<circle cx="118.68" cy="134" r="2.5"/>
		<path d="M151.489,144.542h-46.979c-4.687,0-8.5,3.813-8.5,8.5s3.813,8.5,8.5,8.5h46.979c4.687,0,8.5-3.813,8.5-8.5
			S156.176,144.542,151.489,144.542z M151.489,156.542h-46.979c-1.93,0-3.5-1.57-3.5-3.5s1.57-3.5,3.5-3.5h46.979
			c1.93,0,3.5,1.57,3.5,3.5S153.419,156.542,151.489,156.542z"/>
	</g>
</g>
</svg>
