<?xml version="1.0" encoding="utf-8"?>
<!-- Generator: Adobe Illustrator 24.0.0, SVG Export Plug-In . SVG Version: 6.00 Build 0)  -->
<svg version="1.1" xmlns="http://www.w3.org/2000/svg" xmlns:xlink="http://www.w3.org/1999/xlink" x="0px" y="0px"
	 viewBox="0 0 256 256" enable-background="new 0 0 256 256" xml:space="preserve">
<g id="Caption">
</g>
<g id="Icons">
	<g>
		<path fill="#72C2E9" d="M5.202,47.979v160.043c0,2.761,2.239,5,5,5H52c2.761,0,5-2.239,5-5V47.979c0-2.761-2.239-5-5-5H10.202
			C7.441,42.979,5.202,45.217,5.202,47.979z"/>
		<path fill="#72C2E9" d="M198.617,47.979v160.043c0,2.761,2.239,5,5,5h42.181c2.761,0,5-2.239,5-5V47.979c0-2.761-2.239-5-5-5
			h-42.181C200.856,42.979,198.617,45.217,198.617,47.979z"/>
		<path fill="#F0C020" d="M82.405,133.796v74.225c0,2.761,2.239,5,5,5h81.191c2.761,0,5-2.239,5-5v-74.225H82.405z"/>
		<rect x="82.4" y="133.8" fill="#E8A61E" width="91.2" height="7"/>
		<path fill="#FC5D3D" d="M70.66,128.796V89.745c0-2.761,2.239-5,5-5h104.681c2.761,0,5,2.239,5,5v39.051c0,2.761-2.239,5-5,5H75.66
			C72.898,133.796,70.66,131.558,70.66,128.796z"/>
		<circle fill="#EFEFEF" cx="128" cy="181.957" r="20.426"/>
		<path fill="#FC5D3D" d="M128,192.383c-5.749,0-10.426-4.677-10.426-10.425c0-5.749,4.677-10.426,10.426-10.426
			s10.426,4.677,10.426,10.426C138.426,187.706,133.749,192.383,128,192.383z"/>
		
			<ellipse transform="matrix(0.7071 -0.7071 0.7071 0.7071 -46.0675 44.847)" fill="#EFEFEF" cx="31.101" cy="78.032" rx="16.67" ry="16.67"/>
		<path fill="#F0C020" d="M31.101,84.702c-3.678,0-6.67-2.992-6.67-6.67c0-3.678,2.992-6.67,6.67-6.67s6.67,2.992,6.67,6.67
			C37.772,81.71,34.78,84.702,31.101,84.702z"/>
		
			<ellipse transform="matrix(0.7071 -0.7071 0.7071 0.7071 -81.4003 59.4823)" fill="#EFEFEF" cx="31.101" cy="128" rx="12.447" ry="12.447"/>
		
			<ellipse transform="matrix(0.7071 -0.7071 0.7071 0.7071 -116.7331 74.1176)" fill="#EFEFEF" cx="31.101" cy="177.968" rx="16.67" ry="16.67"/>
		<path fill="#F0C020" d="M31.101,184.638c-3.678,0-6.67-2.992-6.67-6.67c0-3.678,2.992-6.67,6.67-6.67s6.67,2.992,6.67,6.67
			C37.772,181.646,34.78,184.638,31.101,184.638z"/>
		
			<ellipse transform="matrix(0.7071 -0.7071 0.7071 0.7071 10.6385 181.7474)" fill="#EFEFEF" cx="224.708" cy="78.032" rx="16.67" ry="16.67"/>
		<path fill="#F0C020" d="M224.708,84.702c-3.678,0-6.67-2.992-6.67-6.67c0-3.678,2.992-6.67,6.67-6.67s6.67,2.992,6.67,6.67
			C231.378,81.71,228.386,84.702,224.708,84.702z"/>
		
			<ellipse transform="matrix(0.7071 -0.7071 0.7071 0.7071 -24.6943 196.3827)" fill="#EFEFEF" cx="224.708" cy="128" rx="12.447" ry="12.447"/>
		
			<ellipse transform="matrix(0.7071 -0.7071 0.7071 0.7071 -60.0271 211.018)" fill="#EFEFEF" cx="224.708" cy="177.968" rx="16.67" ry="16.67"/>
		<path fill="#F0C020" d="M224.708,184.638c-3.678,0-6.67-2.992-6.67-6.67c0-3.678,2.992-6.67,6.67-6.67s6.67,2.992,6.67,6.67
			C231.378,181.646,228.386,184.638,224.708,184.638z"/>
		
			<ellipse transform="matrix(0.9732 -0.2298 0.2298 0.9732 -20.8045 39.8601)" fill="#EFEFEF" cx="160.768" cy="109.27" rx="14.095" ry="14.095"/>
		
			<ellipse transform="matrix(0.9732 -0.2298 0.2298 0.9732 -22.5577 24.8031)" fill="#EFEFEF" cx="95.232" cy="109.27" rx="14.095" ry="14.095"/>
		<path d="M139.182,56.833c-3.729-1.228-6.641-2.022-8.591-10.421c-0.635-2.737-4.548-2.73-5.181,0
			c-1.907,8.213-4.566,9.092-8.591,10.422c-2.424,0.801-2.43,4.248,0,5.051c6.686,2.209,7.444,5.476,8.591,10.421
			c0.637,2.743,4.545,2.742,5.182,0c1.905-8.212,4.709-9.139,8.591-10.421C141.606,61.083,141.612,57.635,139.182,56.833z"/>
		<path fill="#F0C020" d="M131.985,59.388c-1.47,1.03-2.79,2.42-3.93,4.43c-0.94-1.58-2.25-3.08-4.17-4.4
			c1.55-1.06,2.94-2.5,4.13-4.64C129.215,56.938,130.575,58.378,131.985,59.388z"/>
		<path fill="#FFE5AE" d="M163.596,205.521c-1.381,0-2.5-1.119-2.5-2.5v-43.149c0-1.381,1.119-2.5,2.5-2.5s2.5,1.119,2.5,2.5v43.149
			C166.096,204.402,164.977,205.521,163.596,205.521z M163.596,152.373c-1.381,0-2.5-1.119-2.5-2.5v-3c0-1.381,1.119-2.5,2.5-2.5
			s2.5,1.119,2.5,2.5v3C166.096,151.253,164.977,152.373,163.596,152.373z"/>
		<path fill="#FFE5AE" d="M92.405,205.521c-1.381,0-2.5-1.119-2.5-2.5v-3c0-1.381,1.119-2.5,2.5-2.5s2.5,1.119,2.5,2.5v3
			C94.905,204.402,93.785,205.521,92.405,205.521z M92.405,192.521c-1.381,0-2.5-1.119-2.5-2.5v-43.149c0-1.381,1.119-2.5,2.5-2.5
			s2.5,1.119,2.5,2.5v43.149C94.905,191.402,93.785,192.521,92.405,192.521z"/>
		<path d="M122.213,149.373h11.574c1.381,0,2.5-1.119,2.5-2.5s-1.119-2.5-2.5-2.5h-11.574c-1.381,0-2.5,1.119-2.5,2.5
			S120.832,149.373,122.213,149.373z"/>
		<path d="M121.341,109.271c0,1.381,1.119,2.5,2.5,2.5h8.319c1.381,0,2.5-1.119,2.5-2.5s-1.119-2.5-2.5-2.5h-8.319
			C122.46,106.771,121.341,107.89,121.341,109.271z"/>
		<path d="M2.7,208.02c0,0.016,0.004,0.031,0.005,0.047c0.025,4.115,3.377,7.454,7.498,7.454H52c4.136,0,7.5-3.364,7.5-7.5V47.979
			c0-4.136-3.364-7.5-7.5-7.5H10.202c-4.12,0-7.473,3.34-7.498,7.454c0,0.016-0.005,0.031-0.005,0.047v90c0,1.38,1.12,2.5,2.5,2.5
			c1.38,0,2.5-1.12,2.5-2.5V48.003c0-0.008,0.002-0.016,0.002-0.024c0-1.378,1.122-2.5,2.5-2.5H52c1.378,0,2.5,1.122,2.5,2.5
			v160.043c0,1.378-1.122,2.5-2.5,2.5H10.202c-1.378,0-2.5-1.122-2.5-2.5c0-0.008-0.002-0.016-0.002-0.024V157.98
			c0-1.38-1.12-2.5-2.5-2.5c-1.38,0-2.5,1.12-2.5,2.5V208.02z"/>
		<circle cx="5.2" cy="147.98" r="2.5"/>
		<circle cx="250.8" cy="108.02" r="2.5"/>
		<path d="M253.3,47.98c0-0.013-0.004-0.025-0.004-0.037c-0.02-4.119-3.375-7.464-7.498-7.464h-42.181c-4.136,0-7.5,3.364-7.5,7.5
			v160.043c0,4.136,3.364,7.5,7.5,7.5h42.181c4.124,0,7.478-3.345,7.498-7.464c0-0.013,0.004-0.025,0.004-0.037v-90
			c0-1.38-1.12-2.5-2.5-2.5s-2.5,1.12-2.5,2.5v89.982c0,0.007-0.002,0.013-0.002,0.019c0,1.378-1.122,2.5-2.5,2.5h-42.181
			c-1.378,0-2.5-1.122-2.5-2.5V47.979c0-1.378,1.122-2.5,2.5-2.5h42.181c1.378,0,2.5,1.122,2.5,2.5c0,0.007,0.002,0.013,0.002,0.019
			V98.02c0,1.38,1.12,2.5,2.5,2.5s2.5-1.12,2.5-2.5V47.98z"/>
		<path d="M131.16,84.75c0-1.38-1.12-2.5-2.5-2.5c-1.38,0-2.5,1.12-2.5,2.5c0,1.37,1.12,2.49,2.5,2.49
			C130.04,87.24,131.16,86.12,131.16,84.75z"/>
		<path d="M128,204.883c12.641,0,22.926-10.284,22.926-22.925S140.641,159.032,128,159.032s-22.926,10.285-22.926,22.926
			S115.359,204.883,128,204.883z M128,164.032c9.884,0,17.926,8.042,17.926,17.926s-8.042,17.925-17.926,17.925
			s-17.926-8.041-17.926-17.925S118.116,164.032,128,164.032z"/>
		<path d="M128,194.883c7.127,0,12.926-5.798,12.926-12.925c0-7.127-5.798-12.926-12.926-12.926s-12.926,5.798-12.926,12.926
			C115.074,189.084,120.873,194.883,128,194.883z M128,174.032c4.37,0,7.926,3.556,7.926,7.926s-3.556,7.925-7.926,7.925
			s-7.926-3.555-7.926-7.925S123.63,174.032,128,174.032z"/>
		<path d="M177.363,109.271c0-9.15-7.444-16.595-16.595-16.595s-16.595,7.445-16.595,16.595s7.445,16.595,16.595,16.595
			S177.363,118.421,177.363,109.271z M149.173,109.271c0-6.394,5.202-11.595,11.595-11.595s11.595,5.202,11.595,11.595
			s-5.201,11.595-11.595,11.595S149.173,115.664,149.173,109.271z"/>
		<path d="M78.637,109.271c0,9.15,7.444,16.595,16.595,16.595s16.595-7.444,16.595-16.595s-7.445-16.595-16.595-16.595
			S78.637,100.12,78.637,109.271z M106.827,109.271c0,6.394-5.202,11.595-11.595,11.595s-11.595-5.201-11.595-11.595
			s5.201-11.595,11.595-11.595S106.827,102.877,106.827,109.271z"/>
		<path d="M31.101,58.862c-10.571,0-19.17,8.6-19.17,19.17c0,10.571,8.6,19.17,19.17,19.17s19.17-8.6,19.17-19.17
			C50.272,67.461,41.672,58.862,31.101,58.862z M31.101,92.202c-7.813,0-14.17-6.357-14.17-14.17s6.357-14.17,14.17-14.17
			s14.17,6.356,14.17,14.17S38.915,92.202,31.101,92.202z"/>
		<path d="M31.101,68.862c-5.057,0-9.17,4.114-9.17,9.17c0,5.057,4.114,9.17,9.17,9.17s9.17-4.114,9.17-9.17
			C40.272,72.976,36.158,68.862,31.101,68.862z M31.101,82.202c-2.3,0-4.17-1.871-4.17-4.17c0-2.299,1.871-4.17,4.17-4.17
			s4.17,1.871,4.17,4.17C35.272,80.332,33.401,82.202,31.101,82.202z"/>
		<path d="M31.101,113.053c-8.242,0-14.947,6.705-14.947,14.947s6.705,14.947,14.947,14.947S46.048,136.242,46.048,128
			S39.343,113.053,31.101,113.053z M31.101,137.947c-5.485,0-9.947-4.462-9.947-9.947s4.462-9.947,9.947-9.947
			s9.947,4.462,9.947,9.947S36.586,137.947,31.101,137.947z"/>
		<path d="M31.101,197.138c10.571,0,19.17-8.6,19.17-19.17c0-10.571-8.6-19.17-19.17-19.17s-19.17,8.6-19.17,19.17
			C11.931,188.539,20.531,197.138,31.101,197.138z M31.101,163.798c7.813,0,14.17,6.357,14.17,14.17s-6.357,14.17-14.17,14.17
			s-14.17-6.356-14.17-14.17S23.288,163.798,31.101,163.798z"/>
		<path d="M31.101,187.138c5.057,0,9.17-4.114,9.17-9.17c0-5.057-4.114-9.17-9.17-9.17s-9.17,4.114-9.17,9.17
			C21.931,183.024,26.045,187.138,31.101,187.138z M31.101,173.798c2.3,0,4.17,1.871,4.17,4.17c0,2.299-1.871,4.17-4.17,4.17
			s-4.17-1.871-4.17-4.17C26.931,175.668,28.802,173.798,31.101,173.798z"/>
		<path d="M224.708,58.862c-10.571,0-19.17,8.6-19.17,19.17c0,10.571,8.6,19.17,19.17,19.17c10.57,0,19.17-8.6,19.17-19.17
			C243.878,67.461,235.278,58.862,224.708,58.862z M224.708,92.202c-7.813,0-14.17-6.357-14.17-14.17s6.357-14.17,14.17-14.17
			s14.17,6.356,14.17,14.17S232.521,92.202,224.708,92.202z"/>
		<path d="M224.708,68.862c-5.057,0-9.17,4.114-9.17,9.17c0,5.057,4.114,9.17,9.17,9.17s9.17-4.114,9.17-9.17
			C233.878,72.976,229.764,68.862,224.708,68.862z M224.708,82.202c-2.3,0-4.17-1.871-4.17-4.17c0-2.299,1.871-4.17,4.17-4.17
			s4.17,1.871,4.17,4.17C228.878,80.332,227.008,82.202,224.708,82.202z"/>
		<path d="M224.708,142.947c8.242,0,14.947-6.705,14.947-14.947s-6.705-14.947-14.947-14.947s-14.947,6.705-14.947,14.947
			S216.466,142.947,224.708,142.947z M224.708,118.053c5.485,0,9.947,4.462,9.947,9.947s-4.462,9.947-9.947,9.947
			s-9.947-4.462-9.947-9.947S219.223,118.053,224.708,118.053z"/>
		<path d="M224.708,197.138c10.57,0,19.17-8.6,19.17-19.17c0-10.571-8.6-19.17-19.17-19.17c-10.571,0-19.17,8.6-19.17,19.17
			C205.537,188.539,214.137,197.138,224.708,197.138z M224.708,163.798c7.813,0,14.17,6.357,14.17,14.17s-6.356,14.17-14.17,14.17
			s-14.17-6.356-14.17-14.17S216.894,163.798,224.708,163.798z"/>
		<path d="M224.708,187.138c5.057,0,9.17-4.114,9.17-9.17c0-5.057-4.114-9.17-9.17-9.17s-9.17,4.114-9.17,9.17
			C215.537,183.024,219.651,187.138,224.708,187.138z M224.708,173.798c2.3,0,4.17,1.871,4.17,4.17c0,2.299-1.871,4.17-4.17,4.17
			s-4.17-1.871-4.17-4.17C220.537,175.668,222.408,173.798,224.708,173.798z"/>
		<path d="M87.405,215.521h81.191c4.136,0,7.5-3.364,7.5-7.5v-71.726h4.245c4.136,0,7.5-3.364,7.5-7.5V89.745
			c0-4.136-3.364-7.5-7.5-7.5c-0.018,0-0.035,0.005-0.053,0.005H138.66c-1.38,0-2.5,1.12-2.5,2.5c0,1.37,1.12,2.49,2.5,2.49h41.632
			c0.017,0,0.032,0.005,0.048,0.005c1.378,0,2.5,1.122,2.5,2.5v39.051c0,1.378-1.122,2.5-2.5,2.5H75.66c-1.378,0-2.5-1.122-2.5-2.5
			V89.745c0-1.378,1.122-2.5,2.5-2.5c0.017,0,0.032-0.005,0.048-0.005h42.952c1.38,0,2.5-1.12,2.5-2.49c0-1.38-1.12-2.5-2.5-2.5
			H75.713c-0.018,0-0.035-0.005-0.053-0.005c-4.136,0-7.5,3.364-7.5,7.5v39.051c0,4.136,3.364,7.5,7.5,7.5h4.245v71.726
			C79.905,212.157,83.269,215.521,87.405,215.521z M84.905,136.296h86.191v71.726c0,1.378-1.122,2.5-2.5,2.5H87.405
			c-1.378,0-2.5-1.122-2.5-2.5V136.296z"/>
	</g>
</g>
</svg>
