<?xml version="1.0" encoding="utf-8"?>
<!-- Generator: Adobe Illustrator 24.0.0, SVG Export Plug-In . SVG Version: 6.00 Build 0)  -->
<svg version="1.1" xmlns="http://www.w3.org/2000/svg" xmlns:xlink="http://www.w3.org/1999/xlink" x="0px" y="0px"
	 viewBox="0 0 256 256" enable-background="new 0 0 256 256" xml:space="preserve">
<g id="Caption">
</g>
<g id="Icons">
	<g>
		<path fill="#72C2E9" d="M147.949,149.063v36.82h-19.95v64.85H24.309l0.02-52.454H5.809l0.01-18.566
			c0-16.93,13.72-30.65,30.65-30.65H147.949z"/>
		<path fill="#FFB69F" d="M84.167,221.344h-10.62v-7.206c0-3.451-2.798-6.249-6.249-6.249h0c-3.451,0-6.249,2.798-6.249,6.249v7.206
			H35.219v-23.065H5.81v36.915c0,8.585,6.959,15.544,15.544,15.544h62.813c4.418,0,8-3.582,8-8v-13.394
			C92.167,224.926,88.585,221.344,84.167,221.344z"/>
		<rect x="28.19" y="198.279" fill="#EA8F7C" width="7.029" height="23.065"/>
		<path fill="#4BA5C8" d="M28.19,187.823v10.455h7.029v-17.484h0C31.337,180.794,28.19,183.941,28.19,187.823z"/>
		<path fill="#FFB69F" d="M78.818,173.892L78.818,173.892c9.562,0,17.313-7.751,17.313-17.313v-27.649H61.504v27.649
			C61.504,166.141,69.256,173.892,78.818,173.892z"/>
		<path fill="#FFB69F" d="M61.502,128.938c0,0.85-0.026,27.833,0.041,28.681c0.524,9.082,8.076,16.277,17.269,16.277
			c9.179,0,16.731-7.167,17.269-16.263c0.068-0.879,0.041,0.807,0.041-28.694H61.502z"/>
		<path fill="#EA8F7C" d="M96.135,153.758c-5.16,2.757-11.056,4.327-17.316,4.327s-12.156-1.569-17.316-4.327
			c-0.018-7.687,0-24.152,0-24.817h34.623C96.126,143.322,96.135,150.291,96.135,153.758z"/>
		<path fill="#AFAFAF" d="M86.892,73.89v16.147h22.555V73.89c0-6.228-5.049-11.277-11.277-11.277h0
			C91.941,62.612,86.892,67.661,86.892,73.89z"/>
		<path fill="#AFAFAF" d="M73.593,62.612H61.488c-7.345,0-13.3,5.954-13.3,13.3v14.125h38.704V75.912
			C86.892,68.567,80.938,62.612,73.593,62.612z"/>
		<path fill="#FFB69F" d="M78.818,151.879L78.818,151.879c16.916,0,30.63-13.713,30.63-30.629V90.036H48.188v31.213
			C48.188,138.166,61.902,151.879,78.818,151.879z"/>
		<path fill="#FFB69F" d="M42.552,120.958h5.637v-20.613h-5.637c-5.572,0-10.088,4.517-10.088,10.088v0.437
			C32.464,116.441,36.98,120.958,42.552,120.958z"/>
		<path fill="#FFB69F" d="M115.084,120.958h-5.637v-20.613h5.637c5.572,0,10.088,4.517,10.088,10.088v0.437
			C125.172,116.441,120.655,120.958,115.084,120.958z"/>
		<rect x="140.949" y="149.063" fill="#4BA5C8" width="7" height="36.82"/>
		<path fill="#F0C020" d="M147.948,114.547v126.191c0,5.523,4.477,10,10,10h69.21c5.523,0,10-4.477,10-10V114.547
			c0-5.523-4.477-10-10-10h-69.21C152.426,104.547,147.948,109.024,147.948,114.547z"/>
		<path fill="#E8A61E" d="M237.159,155.842v43.6h-3.68c-6.68,0-12.11-5.43-12.11-12.11v-19.38c0-6.67,5.43-12.11,12.11-12.11
			H237.159z"/>
		
			<ellipse transform="matrix(0.9871 -0.1602 0.1602 0.9871 -20.3555 32.6849)" fill="#AFAFAF" cx="192.553" cy="142.599" rx="22.857" ry="22.857"/>
		<path fill="#EFEFEF" d="M192.553,152.266c-5.33,0-9.666-4.336-9.666-9.666c0-5.331,4.336-9.667,9.666-9.667
			c5.33,0,9.667,4.336,9.667,9.667C202.22,147.929,197.883,152.266,192.553,152.266z"/>
		
			<ellipse transform="matrix(0.9871 -0.1602 0.1602 0.9871 -31.582 33.5899)" fill="#AFAFAF" cx="192.553" cy="212.685" rx="22.857" ry="22.857"/>
		<path fill="#878787" d="M215.409,142.6c0,1.19-0.09,2.36-0.26,3.5c-1.69-10.96-11.16-19.36-22.6-19.36
			c-11.43,0-20.9,8.4-22.59,19.36c-0.17-1.14-0.26-2.31-0.26-3.5c0-12.62,10.23-22.86,22.85-22.86
			C205.179,119.74,215.409,129.98,215.409,142.6z"/>
		<path fill="#878787" d="M215.409,212.69c0,1.19-0.09,2.36-0.26,3.5c-1.69-10.97-11.16-19.36-22.6-19.36
			c-11.43,0-20.9,8.39-22.59,19.36c-0.17-1.14-0.26-2.31-0.26-3.5c0-12.63,10.23-22.86,22.85-22.86
			C205.179,189.83,215.409,200.06,215.409,212.69z"/>
		<path fill="#EFEFEF" d="M192.553,222.352c-5.33,0-9.666-4.336-9.666-9.666s4.336-9.666,9.666-9.666
			c5.33,0,9.667,4.336,9.667,9.666S197.883,222.352,192.553,222.352z"/>
		<path d="M136.354,46.66c-3.729-1.228-6.641-2.022-8.591-10.421c-0.635-2.737-4.548-2.73-5.181,0
			c-1.907,8.213-4.566,9.092-8.591,10.422c-2.424,0.801-2.43,4.248,0,5.051c6.686,2.209,7.444,5.476,8.591,10.421
			c0.637,2.743,4.545,2.742,5.182,0c1.905-8.212,4.709-9.139,8.591-10.421C138.778,50.91,138.784,47.462,136.354,46.66z"/>
		<path fill="#F0C020" d="M129.157,49.215c-1.47,1.03-2.79,2.42-3.93,4.43c-0.94-1.58-2.25-3.08-4.17-4.4
			c1.55-1.06,2.94-2.5,4.13-4.64C126.387,46.765,127.747,48.205,129.157,49.215z"/>
		<path fill="#72C2E9" d="M192.552,5.26c-24.261,0-43.929,19.667-43.929,43.929c0,9.967,3.324,19.155,8.918,26.526l-2.597,2.597
			c-2.343,2.343-2.343,6.142,0,8.485l0,0c2.343,2.343,6.142,2.343,8.485,0l2.597-2.597c7.371,5.594,16.559,8.918,26.526,8.918
			c24.261,0,43.929-19.667,43.929-43.929S216.813,5.26,192.552,5.26z"/>
		<path fill="#EFEFEF" d="M164.249,33.904v30.569c0,1.668,1.352,3.021,3.021,3.021h50.564c1.668,0,3.021-1.352,3.021-3.021V33.904
			c0-1.668-1.352-3.021-3.021-3.021H167.27C165.602,30.883,164.249,32.236,164.249,33.904z"/>
		<path fill="#FFB69F" d="M240.19,162.847h-6.712c-2.821,0-5.108,2.287-5.108,5.108v19.378c0,2.821,2.287,5.108,5.108,5.108h6.712
			c5.523,0,10-4.477,10-10v-9.595C250.19,167.324,245.713,162.847,240.19,162.847z"/>
		<path fill="#FFE5AE" d="M157.949,243.021c-1.381,0-2.5-1.119-2.5-2.5v-3c0-1.381,1.119-2.5,2.5-2.5s2.5,1.119,2.5,2.5v3
			C160.449,241.902,159.329,243.021,157.949,243.021z M157.949,230.021c-1.381,0-2.5-1.119-2.5-2.5V114.764
			c0-1.381,1.119-2.5,2.5-2.5s2.5,1.119,2.5,2.5v112.758C160.449,228.902,159.329,230.021,157.949,230.021z"/>
		<path d="M78.818,119.872c1.381,0,2.5-1.119,2.5-2.5v-9.928c0-1.381-1.119-2.5-2.5-2.5s-2.5,1.119-2.5,2.5v9.928
			C76.318,118.753,77.437,119.872,78.818,119.872z"/>
		<path d="M90.095,122.286c-1.381,0-2.5,1.119-2.5,2.5c0,4.84-3.938,8.777-8.777,8.777s-8.777-3.938-8.777-8.777
			c0-1.381-1.119-2.5-2.5-2.5s-2.5,1.119-2.5,2.5c0,7.597,6.181,13.777,13.777,13.777s13.777-6.181,13.777-13.777
			C92.595,123.405,91.476,122.286,90.095,122.286z"/>
		<path d="M93.322,100.848c-1.381,0-2.5,1.119-2.5,2.5v2.252c0,1.381,1.119,2.5,2.5,2.5s2.5-1.119,2.5-2.5v-2.252
			C95.822,101.967,94.703,100.848,93.322,100.848z"/>
		<path d="M66.813,105.6v-2.252c0-1.381-1.119-2.5-2.5-2.5c-1.381,0-2.5,1.119-2.5,2.5v2.252c0,1.381,1.119,2.5,2.5,2.5
			C65.694,108.1,66.813,106.98,66.813,105.6z"/>
		<path d="M114.349,146.56h-14.187c6.673-5.636,11.092-13.855,11.704-23.102h3.219c6.941,0,12.588-5.647,12.588-12.589v-0.437
			c0-6.941-5.647-12.588-12.588-12.588h-3.137c0-13.527,0-10.695,0-23.955c0-7.597-6.181-13.777-13.777-13.777
			c-4.972,0-9.324,2.656-11.747,6.615c-2.87-3.997-7.545-6.615-12.83-6.615H61.488c-8.712,0-15.799,7.088-15.799,15.8
			c0,7.68,0,14.408,0,21.933h-3.137c-6.941,0-12.588,5.646-12.588,12.588v0.437c0,6.941,5.647,12.589,12.588,12.589h3.219
			c0.612,9.246,5.031,17.465,11.704,23.102H36.467c-18.279,0-33.149,14.871-33.149,33.148c-0.01,18.777-0.008,3.378-0.008,55.485
			c0,9.949,8.094,18.044,18.044,18.044h62.813c5.79,0,10.5-4.71,10.5-10.5v-13.394c0-5.79-4.71-10.5-10.5-10.5h-8.12v-4.706
			c0-4.824-3.925-8.749-8.749-8.749c-4.825,0-8.75,3.925-8.75,8.749v4.706H37.72c0-21.051-0.012-17.004-0.01-38.05
			c0-1.381-1.119-2.5-2.5-2.5c-1.38,0-2.5,1.119-2.5,2.5l-0.001,14.984h-24.4l0.009-16.069c0-15.521,12.628-28.149,28.149-28.149
			h22.535v5.019c0,10.924,8.887,19.811,19.81,19.811c10.931,0,19.824-8.887,19.824-19.811v-5.019h15.712c1.38,0,2.5-1.12,2.5-2.5
			S115.729,146.56,114.349,146.56z M111.947,102.845h3.137c4.184,0,7.588,3.404,7.588,7.588v0.437c0,4.185-3.404,7.589-7.588,7.589
			h-3.137V102.845z M45.688,118.458h-3.137c-4.184,0-7.588-3.404-7.588-7.589v-0.437c0-4.184,3.404-7.588,7.588-7.588h3.137V118.458
			z M8.31,200.778h24.398l-0.001,18.065H28.19c-1.381,0-2.5,1.119-2.5,2.5s1.119,2.5,2.5,2.5c11.891,0,19.983,0,32.858,0
			c1.381,0,2.5-1.119,2.5-2.5v-7.206c0-2.067,1.682-3.749,3.75-3.749s3.749,1.682,3.749,3.749v7.206c0,1.381,1.119,2.5,2.5,2.5
			h10.62c3.033,0,5.5,2.468,5.5,5.5v13.394c0,3.032-2.467,5.5-5.5,5.5H21.354c-7.192,0-13.044-5.852-13.044-13.044V200.778z
			 M89.392,73.89c0-4.84,3.938-8.777,8.777-8.777s8.777,3.938,8.777,8.777v13.646H89.392C89.392,78.717,89.392,100.226,89.392,73.89
			z M50.688,75.912c0-5.955,4.845-10.8,10.799-10.8h12.105c5.955,0,10.8,4.845,10.8,10.8v11.624H50.688V75.912z M93.636,156.578
			c0,8.167-6.65,14.811-14.824,14.811c-8.167,0-14.81-6.644-14.81-14.811v-5.71c4.462,2.241,9.492,3.511,14.816,3.511
			c5.325,0,10.356-1.27,14.818-3.512V156.578z M78.818,149.379c-15.511,0-28.129-12.619-28.129-28.13c0-10.367,0-19.011,0-28.713
			c12.406,0,44.424,0,56.259,0c0,9.705,0,18.309,0,28.713C106.947,136.76,94.329,149.379,78.818,149.379z"/>
		<circle cx="124.349" cy="149.06" r="2.5"/>
		<path d="M192.553,130.433c-6.708,0-12.166,5.458-12.166,12.167c0,6.708,5.458,12.166,12.166,12.166s12.167-5.458,12.167-12.166
			C204.72,135.891,199.262,130.433,192.553,130.433z M192.553,149.766c-3.951,0-7.166-3.215-7.166-7.166
			c0-3.952,3.215-7.167,7.166-7.167c3.952,0,7.167,3.215,7.167,7.167C199.72,146.551,196.505,149.766,192.553,149.766z"/>
		<path d="M192.553,224.852c6.708,0,12.167-5.458,12.167-12.166s-5.458-12.166-12.167-12.166s-12.167,5.458-12.167,12.166
			S185.845,224.852,192.553,224.852z M192.553,205.52c3.952,0,7.167,3.215,7.167,7.166s-3.215,7.166-7.167,7.166
			s-7.167-3.215-7.167-7.166S188.601,205.52,192.553,205.52z"/>
		<path d="M192.553,117.242c-13.981,0-25.356,11.375-25.356,25.357c0,13.981,11.375,25.356,25.356,25.356
			c13.982,0,25.357-11.375,25.357-25.356C217.91,128.617,206.535,117.242,192.553,117.242z M192.553,162.956
			c-11.225,0-20.356-9.132-20.356-20.356c0-11.226,9.132-20.357,20.356-20.357s20.357,9.132,20.357,20.357
			C212.91,153.824,203.778,162.956,192.553,162.956z"/>
		<path d="M167.197,212.686c0,13.981,11.375,25.356,25.356,25.356c13.982,0,25.357-11.375,25.357-25.356
			s-11.375-25.356-25.357-25.356C178.572,187.329,167.197,198.704,167.197,212.686z M192.553,192.329
			c11.225,0,20.357,9.132,20.357,20.356s-9.132,20.356-20.357,20.356s-20.356-9.132-20.356-20.356S181.329,192.329,192.553,192.329z
			"/>
		<path d="M202.031,180.143c1.381,0,2.5-1.119,2.5-2.5s-1.119-2.5-2.5-2.5h-18.955c-1.381,0-2.5,1.119-2.5,2.5s1.119,2.5,2.5,2.5
			H202.031z"/>
		<circle cx="237.159" cy="218.439" r="2.5"/>
		<path d="M161.749,33.904v30.569c0,3.044,2.477,5.521,5.521,5.521h50.564c3.044,0,5.521-2.477,5.521-5.521V33.904
			c0-3.045-2.477-5.521-5.521-5.521H167.27C164.225,28.383,161.749,30.859,161.749,33.904z M218.355,33.904v30.569
			c0,0.287-0.233,0.521-0.521,0.521H167.27c-0.287,0-0.521-0.233-0.521-0.521V33.904c0-0.287,0.234-0.521,0.521-0.521h50.564
			C218.121,33.383,218.355,33.617,218.355,33.904z"/>
		<path d="M189.21,54.366h0.842v3.314c0,1.381,1.119,2.5,2.5,2.5s2.5-1.119,2.5-2.5v-3.314h0.842c1.381,0,2.5-1.119,2.5-2.5
			s-1.119-2.5-2.5-2.5h-0.842v-8.67c0-1.381-1.119-2.5-2.5-2.5s-2.5,1.119-2.5,2.5v8.67h-0.842c-1.381,0-2.5,1.119-2.5,2.5
			S187.829,54.366,189.21,54.366z"/>
		<path d="M173.399,49.461h0.842v8.22c0,1.381,1.119,2.5,2.5,2.5s2.5-1.119,2.5-2.5v-8.22h0.842c1.381,0,2.5-1.119,2.5-2.5
			s-1.119-2.5-2.5-2.5h-0.842v-3.765c0-1.381-1.119-2.5-2.5-2.5s-2.5,1.119-2.5,2.5v3.765h-0.842c-1.381,0-2.5,1.119-2.5,2.5
			S172.018,49.461,173.399,49.461z"/>
		<path d="M205.021,49.461h0.842v8.22c0,1.381,1.119,2.5,2.5,2.5s2.5-1.119,2.5-2.5v-8.22h0.842c1.381,0,2.5-1.119,2.5-2.5
			s-1.119-2.5-2.5-2.5h-0.842v-3.765c0-1.381-1.119-2.5-2.5-2.5s-2.5,1.119-2.5,2.5v3.765h-0.842c-1.381,0-2.5,1.119-2.5,2.5
			S203.64,49.461,205.021,49.461z"/>
		<path d="M153.176,88.567c3.308,3.308,8.702,3.31,12.025,0l1.093-1.093c7.741,5.336,16.773,8.146,26.259,8.146
			c25.602,0,46.43-20.828,46.43-46.43c0-0.02-0.005-0.039-0.006-0.059c-0.017-13.588-5.953-26.444-16.299-35.272
			c-1.01-0.859-2.66-0.729-3.52,0.28c-0.88,1.044-0.791,2.617,0.28,3.521c9.24,7.899,14.54,19.39,14.54,31.529
			c0,0.012,0.003,0.023,0.004,0.035c-0.018,22.829-18.596,41.396-41.429,41.396c-9.118,0-17.766-2.908-25.008-8.41
			c-0.994-0.757-2.397-0.663-3.28,0.223l-2.596,2.596c-1.372,1.365-3.595,1.365-4.955,0.008c-1.365-1.371-1.367-3.595-0.003-4.958
			l2.6-2.601c0.884-0.884,0.979-2.285,0.223-3.28c-5.502-7.241-8.411-15.889-8.411-25.007c0-22.844,18.584-41.429,41.427-41.431
			c3.49,0,6.949,0.43,10.298,1.29c1.466,0.347,2.725-0.562,3.04-1.8c0.342-1.304-0.428-2.681-1.78-3.04c-0.01,0-0.01,0-0.02-0.01
			c-3.748-0.95-7.626-1.44-11.534-1.44c-0.001,0-0.001,0-0.002,0c-0.001,0-0.002,0-0.002,0c-0.001,0-0.001,0-0.002,0
			c0,0-0.001,0-0.001,0c-25.599,0.003-46.424,20.831-46.424,46.431c0,9.486,2.809,18.519,8.146,26.259l-1.093,1.094
			C149.867,79.852,149.866,85.244,153.176,88.567z"/>
		<path d="M211.649,12.41c1.128,0.61,2.679,0.214,3.36-1.07c0.615-1.17,0.189-2.719-1.07-3.37c-1.223-0.628-2.733-0.169-3.37,1.061
			c-0.63,1.229-0.16,2.739,1.07,3.38C211.639,12.41,211.639,12.41,211.649,12.41z"/>
		<path d="M240.19,160.348h-0.531v-45.805c0-6.893-5.607-12.5-12.5-12.5h-69.21c-6.893,0-12.5,5.607-12.5,12.5v32.017h-11.101
			c-1.38,0-2.5,1.12-2.5,2.5s1.12,2.5,2.5,2.5h11.101v31.824h-17.448c-1.381,0-2.5,1.119-2.5,2.5v64.856c0,1.381,1.119,2.5,2.5,2.5
			s2.5-1.119,2.5-2.5v-62.356h14.948v52.35c0,6.893,5.607,12.5,12.5,12.5h69.21c6.893,0,12.5-5.607,12.5-12.5
			c0-0.002,0-0.003,0-0.005v-12.289c0-1.38-1.12-2.5-2.5-2.5c-1.38,0-2.5,1.12-2.5,2.5v12.29c0,0.001,0,0.003,0,0.004
			c0,4.136-3.364,7.5-7.5,7.5h-69.21c-4.136,0-7.5-3.364-7.5-7.5v-126.19c0-4.136,3.364-7.5,7.5-7.5h69.21
			c4.136,0,7.5,3.364,7.5,7.5v45.805h-1.181c-4.195,0-7.608,3.413-7.608,7.607v19.379c0,4.195,3.413,7.608,7.608,7.608h1.181v13.497
			c0,1.38,1.12,2.5,2.5,2.5c1.38,0,2.5-1.12,2.5-2.5v-13.497h0.532c6.893,0,12.5-5.607,12.5-12.5v-9.595
			C252.69,165.955,247.083,160.348,240.19,160.348z M247.69,182.442c0,4.136-3.364,7.5-7.5,7.5c-0.726,0-5.953,0-6.712,0
			c-1.438,0-2.608-1.17-2.608-2.608v-2.392h6.288c1.381,0,2.5-1.119,2.5-2.5s-1.119-2.5-2.5-2.5h-6.288v-4.596h6.288
			c1.381,0,2.5-1.119,2.5-2.5s-1.119-2.5-2.5-2.5h-6.288v-2.392c0-1.438,1.17-2.607,2.608-2.607h6.712c4.136,0,7.5,3.364,7.5,7.5
			V182.442z"/>
	</g>
</g>
</svg>
