<?xml version="1.0" encoding="utf-8"?>
<!-- Generator: Adobe Illustrator 24.0.0, SVG Export Plug-In . SVG Version: 6.00 Build 0)  -->
<svg version="1.1" xmlns="http://www.w3.org/2000/svg" xmlns:xlink="http://www.w3.org/1999/xlink" x="0px" y="0px"
	 viewBox="0 0 256 256" enable-background="new 0 0 256 256" xml:space="preserve">
<g id="Caption">
</g>
<g id="Icons">
	<g>
		<polygon fill="#F0C020" points="153.63,145.037 102.37,145.037 109.54,128.807 115.24,115.917 140.76,115.917 146.35,128.557 		
			"/>
		<rect x="77.237" y="179.886" fill="#72C2E9" width="101.527" height="70.193"/>
		<path fill="#4BA5C8" d="M178.764,179.883v37.945c-18.19,0-33.42-12.854-37.099-29.947h-27.33
			c-3.679,17.093-18.91,29.947-37.099,29.947v-37.945H178.764z"/>
		<path fill="#EFEFEF" d="M178.759,149.936L178.759,149.936H77.241l0,0c-16.515,0-29.95,13.435-29.95,29.95
			c0,16.515,13.435,29.95,29.95,29.95s29.95-13.435,29.95-29.95h41.619c0,16.515,13.435,29.95,29.95,29.95s29.95-13.435,29.95-29.95
			C208.709,163.371,195.274,149.936,178.759,149.936z"/>
		<circle fill="#72C2E9" cx="178.76" cy="179.886" r="12.812"/>
		<path fill="#72C2E9" d="M77.24,192.698c-7.064,0-12.811-5.747-12.811-12.812c0-7.064,5.747-12.812,12.811-12.812
			c7.064,0,12.812,5.747,12.812,12.812C90.052,186.951,84.304,192.698,77.24,192.698z"/>
		<path fill="#4BA5C8" d="M134.117,227.618v22.46h-12.234v-22.46c0-3.381,2.734-6.117,6.117-6.117
			C131.376,221.502,134.117,224.243,134.117,227.618z"/>
		<path fill="#4BA5C8" d="M162.548,227.618v22.46h-12.225v-22.46c0-3.381,2.734-6.117,6.117-6.117
			C159.816,221.502,162.548,224.243,162.548,227.618z"/>
		<path fill="#4BA5C8" d="M105.677,227.618v22.46H93.452v-22.46c0-3.332,2.685-6.117,6.108-6.117
			C102.935,221.502,105.677,224.243,105.677,227.618z"/>
		<path fill="#E8A61E" d="M146.35,128.557c-1.05,0.1-2.11,0.16-3.18,0.17l-29.95,0.27c-1.24,0-2.47-0.06-3.68-0.19l5.7-12.89h25.52
			L146.35,128.557z"/>
		<path fill="#F0C020" d="M176.1,73.247c-0.57,8.85-2,17.71-4.32,26.42c-3.46,12.96-15.26,21.94-28.67,22.06l-29.61,0.26
			c-13.55,0.13-25.63-8.81-29.16-21.88c-2.38-8.82-3.86-17.82-4.44-26.86c-0.4-6.11-0.38-12.24,0.05-18.34
			c0.66-9.59,2.34-19.11,5.02-28.39c0.68-2.35,1.42-4.68,2.23-7h81.6c0.8,2.31,1.55,4.65,2.23,7c2.67,9.22,4.35,18.75,5.01,28.39
			C176.48,60.987,176.49,67.116,176.1,73.247z"/>
		<path fill="#EFEFEF" d="M176.1,73.247l-9.26,10.76c-2.386,2.784-6.701,2.788-9.09,0l-12.61-14.64l-12.59,14.64
			c-2.386,2.784-6.711,2.788-9.1,0l-12.59-14.64l-12.61,14.64c-2.364,2.782-6.699,2.79-9.09,0l-9.26-10.76
			c-0.4-6.11-0.38-12.24,0.05-18.34l13.76,15.99l12.6-14.64c2.387-2.784,6.711-2.787,9.1,0L128,70.896l12.59-14.64
			c2.386-2.784,6.711-2.787,9.1,0l12.6,14.64l13.75-15.99C176.48,60.987,176.49,67.116,176.1,73.247z"/>
		<path fill="#E8A61E" d="M171.03,26.517H84.97c0.68-2.35,1.42-4.68,2.23-7h81.6C169.6,21.826,170.35,24.167,171.03,26.517z"/>
		<path fill="#F0C020" d="M78.064,12.722L78.064,12.722c0,3.755,3.044,6.8,6.8,6.8h86.273c3.755,0,6.8-3.044,6.8-6.8v0
			c0-3.755-3.044-6.8-6.8-6.8H84.864C81.108,5.922,78.064,8.966,78.064,12.722z"/>
		<path fill="#F0C020" d="M157.244,137.394H98.756c-3.463,0-6.271,2.808-6.271,6.271v0c0,3.463,2.808,6.271,6.271,6.271h58.488
			c3.463,0,6.271-2.808,6.271-6.271v0C163.515,140.202,160.707,137.394,157.244,137.394z"/>
		<path d="M212.404,109.021c-3.729-1.228-6.641-2.022-8.591-10.421c-0.635-2.737-4.548-2.73-5.181,0
			c-1.907,8.213-4.566,9.092-8.591,10.422c-2.424,0.801-2.43,4.248,0,5.051c6.686,2.209,7.444,5.476,8.591,10.421
			c0.637,2.743,4.545,2.742,5.182,0c1.905-8.212,4.709-9.139,8.591-10.421C214.828,113.271,214.833,109.823,212.404,109.021z"/>
		<path fill="#F0C020" d="M205.207,111.576c-1.47,1.03-2.79,2.42-3.93,4.43c-0.94-1.58-2.25-3.08-4.17-4.4
			c1.55-1.06,2.94-2.5,4.13-4.64C202.437,109.126,203.797,110.566,205.207,111.576z"/>
		<path d="M65.96,109.021c-3.729-1.228-6.641-2.022-8.591-10.421c-0.635-2.737-4.548-2.73-5.181,0
			c-1.907,8.213-4.566,9.092-8.591,10.422c-2.424,0.801-2.43,4.248,0,5.051c6.686,2.209,7.444,5.476,8.591,10.421
			c0.637,2.743,4.545,2.742,5.182,0c1.905-8.212,4.709-9.139,8.591-10.421C68.384,113.271,68.39,109.823,65.96,109.021z"/>
		<path fill="#F0C020" d="M58.763,111.576c-1.47,1.03-2.79,2.42-3.93,4.43c-0.94-1.58-2.25-3.08-4.17-4.4
			c1.55-1.06,2.94-2.5,4.13-4.64C55.993,109.126,57.353,110.566,58.763,111.576z"/>
		<path fill="#FFE5AE" d="M113.209,114.487c-1.371,0-2.487-1.104-2.5-2.478c-0.012-1.381,1.097-2.51,2.478-2.522l3-0.026
			c0.007,0,0.015,0,0.022,0c1.371,0,2.487,1.104,2.5,2.479c0.012,1.38-1.097,2.509-2.478,2.521l-3,0.026
			C113.225,114.487,113.217,114.487,113.209,114.487z M126.209,114.374c-1.371,0-2.487-1.104-2.5-2.479
			c-0.012-1.38,1.097-2.51,2.478-2.521l16.811-0.147c7.845-0.069,14.715-5.322,16.707-12.775c0.99-3.718,1.808-7.498,2.429-11.234
			c0.226-1.361,1.508-2.288,2.876-2.056c1.361,0.226,2.282,1.514,2.056,2.876c-0.646,3.893-1.498,7.83-2.529,11.703
			c-2.571,9.619-11.41,16.397-21.494,16.486l-16.811,0.147C126.224,114.374,126.216,114.374,126.209,114.374z"/>
		<path fill="#FFE5AE" d="M166.324,68.657c-1.381-0.021-2.483-1.155-2.464-2.536c0.162-11.169-1.176-22.276-3.978-33.014
			c-0.349-1.336,0.452-2.701,1.788-3.05c1.334-0.351,2.702,0.451,3.05,1.788c2.915,11.172,4.308,22.729,4.14,34.348
			C168.841,67.513,167.787,68.657,166.324,68.657z"/>
		<path fill="#FFFFFF" d="M164.179,88.091c-1.36-0.232-2.275-1.524-2.044-2.886c1.066-6.247,1.647-12.663,1.726-19.069
			c0.017-1.37,1.132-2.475,2.5-2.475c1.365,0,2.5,1.095,2.5,2.505c-0.082,6.697-0.687,13.376-1.796,19.881
			C166.838,87.372,165.586,88.323,164.179,88.091z"/>
		<path d="M178.76,237.577c-1.37,0-2.5,1.12-2.5,2.5v10c0,1.38,1.13,2.5,2.5,2.5c1.38,0,2.5-1.12,2.5-2.5v-10
			C181.26,238.697,180.14,237.577,178.76,237.577z"/>
		<circle cx="178.76" cy="230.077" r="2.5"/>
		<path d="M128,219.001c-4.751,0-8.617,3.865-8.617,8.617v22.46c0,1.381,1.119,2.5,2.5,2.5s2.5-1.119,2.5-2.5v-22.46
			c0-1.994,1.623-3.617,3.617-3.617c1.994,0,3.617,1.623,3.617,3.617c0,0.01,0.003,0.019,0.003,0.029v22.429
			c0,1.38,1.12,2.5,2.5,2.5c1.37,0,2.5-1.12,2.5-2.5v-22.46c0-0.02-0.006-0.039-0.006-0.059
			C136.581,222.834,132.731,219.001,128,219.001z"/>
		<path d="M156.44,219.001c-4.752,0-8.617,3.865-8.617,8.617v22.46c0,1.381,1.119,2.5,2.5,2.5s2.5-1.119,2.5-2.5v-22.46
			c0-1.994,1.623-3.617,3.617-3.617c1.989,0,3.607,1.623,3.607,3.617v22.46c0,1.381,1.119,2.5,2.5,2.5s2.5-1.119,2.5-2.5v-22.46
			C165.048,222.867,161.187,219.001,156.44,219.001z"/>
		<path d="M99.56,219.001c-4.747,0-8.608,3.865-8.608,8.617v22.46c0,1.381,1.119,2.5,2.5,2.5s2.5-1.119,2.5-2.5v-22.46
			c0-1.994,1.619-3.617,3.608-3.617c1.994,0,3.617,1.623,3.617,3.617v22.46c0,1.381,1.119,2.5,2.5,2.5s2.5-1.119,2.5-2.5v-22.46
			C108.177,222.867,104.312,219.001,99.56,219.001z"/>
		<path d="M178.76,147.436h-13.609c0.548-1.144,0.864-2.42,0.864-3.771c0-4.836-3.935-8.771-8.771-8.771h-5.366l-4.835-10.941
			c12.895-1.676,23.766-10.956,27.154-23.643c2.334-8.766,3.813-17.816,4.398-26.904c1.062-16.662-0.835-34.263-6.358-51.456
			c4.611-0.547,8.2-4.473,8.2-9.229c0-5.128-4.172-9.3-9.3-9.3H84.863c-5.127,0-9.299,4.172-9.299,9.3
			c0,4.754,3.588,8.68,8.196,9.228c-0.504,1.572-0.991,3.153-1.44,4.737c-0.368,1.309,0.36,2.684,1.73,3.09
			c1.349,0.371,2.714-0.426,3.08-1.729c0.57-2.017,1.206-4.032,1.874-6.025h77.991c3.456,10.343,5.631,21.106,6.466,32.052
			l-11.171,12.99l-10.701-12.434c-3.382-3.947-9.512-3.948-12.894-0.003L128,67.063l-10.692-12.434
			c-3.382-3.946-9.51-3.95-12.893-0.004L93.71,67.064L82.526,54.067c0.181-2.278,0.405-4.558,0.684-6.801
			c0.178-1.329-0.753-2.632-2.16-2.8c-1.36-0.17-2.62,0.81-2.79,2.16c-1.046,7.979-1.47,17.381-0.854,26.78
			c0.592,9.225,2.113,18.427,4.521,27.353c3.405,12.604,14.134,21.73,26.925,23.436l-4.729,10.699h-5.367
			c-4.836,0-8.771,3.935-8.771,8.771c0,1.351,0.316,2.626,0.864,3.771H77.241c-17.891,0-32.446,14.553-32.45,32.444
			c0,0.002-0.001,0.004-0.001,0.006c0,6.97,2.19,13.62,6.32,19.22c0.812,1.107,2.387,1.359,3.5,0.53
			c1.055-0.762,1.386-2.305,0.53-3.49c-3.499-4.749-5.349-10.368-5.349-16.256c0-0.001,0-0.002,0-0.003
			c0-15.136,12.314-27.45,27.45-27.45c35.74,0,65.768,0,101.519,0c15.136,0,27.449,12.314,27.449,27.45s-12.313,27.45-27.449,27.45
			s-27.45-12.314-27.45-27.45c0-1.381-1.119-2.5-2.5-2.5H107.19c-1.381,0-2.5,1.119-2.5,2.5c0,15.136-12.314,27.45-27.45,27.45
			c0,0,0,0,0,0s0,0,0,0c-2.47,0-4.93-0.33-7.29-0.98c-1.31-0.37-2.72,0.45-3.07,1.74c-0.37,1.33,0.41,2.71,1.74,3.08
			c0.01,0,0.02,0,0.02,0c1.988,0.549,4.033,0.896,6.097,1.055v37.848c0,1.381,1.119,2.5,2.5,2.5s2.5-1.119,2.5-2.5v-37.847
			c15.905-1.217,28.641-13.941,29.858-29.846h36.81c1.217,15.903,13.951,28.627,29.854,29.845v7.845c0,1.38,1.13,2.5,2.5,2.5
			c1.38,0,2.5-1.12,2.5-2.5v-7.846c16.728-1.282,29.949-15.293,29.949-32.344C211.209,161.993,196.652,147.436,178.76,147.436z
			 M84.863,17.021c-2.371,0-4.299-1.929-4.299-4.3s1.929-4.3,4.299-4.3h86.273c2.371,0,4.3,1.929,4.3,4.3s-1.929,4.3-4.3,4.3H84.863
			z M82.169,61.318l9.646,11.209c0.997,1.158,2.792,1.159,3.79,0l12.603-14.645c1.387-1.617,3.91-1.625,5.307,0.003l12.59,14.641
			c0.95,1.105,2.842,1.105,3.791,0l12.593-14.644c1.391-1.623,3.915-1.62,5.308,0.004l12.6,14.641
			c0.997,1.159,2.795,1.157,3.79-0.001l9.64-11.211c0.085,3.619,0.029,7.28-0.183,10.953l-8.702,10.111
			c-1.359,1.588-3.87,1.661-5.297-0.005l-12.61-14.64c-0.998-1.156-2.791-1.159-3.79,0.002l-12.593,14.643
			c-1.39,1.622-3.915,1.621-5.306-0.003l-12.59-14.64c-0.999-1.162-2.794-1.158-3.79-0.002L96.345,82.388
			c-1.362,1.603-3.889,1.622-5.29-0.013l-8.7-10.109C82.141,68.639,82.083,64.979,82.169,61.318z M86.753,99.456
			c-1.646-6.103-2.854-12.341-3.626-18.626l4.134,4.803c3.396,3.963,9.543,3.936,12.882,0.005l10.714-12.439l10.694,12.435
			c3.389,3.954,9.518,3.941,12.893,0.003l10.696-12.438l10.71,12.435c3.39,3.954,9.509,3.943,12.883,0.004l4.137-4.807
			c-0.754,6.145-1.921,12.238-3.506,18.192c-3.131,11.723-13.839,19.999-26.082,20.194c-0.004,0-0.008,0-0.012,0
			c-0.062,0.001-0.122,0.009-0.183,0.009l-29.612,0.261C100.972,119.583,89.972,111.37,86.753,99.456z M146.41,134.894H109.59
			l4.602-10.413l27.509-0.242L146.41,134.894z M157.244,147.436H98.756c-2.079,0-3.771-1.691-3.771-3.771
			c0-2.079,1.692-3.771,3.771-3.771c3.32,0,49.729,0,58.488,0c2.079,0,3.771,1.691,3.771,3.771
			C161.015,145.745,159.323,147.436,157.244,147.436z"/>
		<path d="M61.69,202.497c0-0.011,0-0.011-0.01-0.011c-1.1-0.75-2.71-0.439-3.47,0.65c-0.772,1.115-0.517,2.671,0.64,3.47
			c1.171,0.808,2.699,0.484,3.48-0.63C63.11,204.836,62.83,203.276,61.69,202.497z"/>
		<path d="M194.071,179.886c0-8.442-6.869-15.312-15.312-15.312s-15.312,6.869-15.312,15.312s6.869,15.312,15.312,15.312
			S194.071,188.329,194.071,179.886z M168.448,179.886c0-5.686,4.626-10.312,10.312-10.312s10.312,4.626,10.312,10.312
			s-4.626,10.312-10.312,10.312S168.448,185.572,168.448,179.886z"/>
		<path d="M92.552,179.886c0-8.442-6.869-15.312-15.312-15.312c-8.442,0-15.311,6.869-15.311,15.312s6.869,15.312,15.311,15.312
			C85.683,195.198,92.552,188.329,92.552,179.886z M66.929,179.886c0-5.686,4.625-10.312,10.311-10.312s10.312,4.626,10.312,10.312
			s-4.626,10.312-10.312,10.312S66.929,185.572,66.929,179.886z"/>
		<path d="M81.87,39.537c1.497,0.257,2.691-0.709,2.95-1.96c0.268-1.341-0.596-2.67-1.95-2.94c-1.33-0.28-2.68,0.62-2.95,1.95
			C79.65,37.936,80.52,39.256,81.87,39.537z"/>
	</g>
</g>
</svg>
