<?xml version="1.0" encoding="utf-8"?>
<!-- Generator: Adobe Illustrator 24.0.0, SVG Export Plug-In . SVG Version: 6.00 Build 0)  -->
<svg version="1.1" xmlns="http://www.w3.org/2000/svg" xmlns:xlink="http://www.w3.org/1999/xlink" x="0px" y="0px"
	 viewBox="0 0 256 256" enable-background="new 0 0 256 256" xml:space="preserve">
<g id="Caption">
</g>
<g id="Icons">
	<g>
		<path fill="#EFEFEF" d="M151.015,98.785l-16.848,16.848c-2.343,2.343-2.343,6.142,0,8.485l0,0c2.343,2.343,6.142,2.343,8.485,0
			L159.5,107.27L151.015,98.785z"/>
		<path fill="#72C2E9" d="M148.955,174.63v19.216h-22.244v54.178H27.933l0.02-54.178H5.689l0.004-19.222
			c0.003-16.566,13.434-29.994,30-29.994h83.262C135.523,144.63,148.955,158.062,148.955,174.63z"/>
		<path fill="#4BA5C8" d="M102.201,217.59v20.44c0,3.74-1.21,7.19-3.26,9.99h-63.84v-61.17c3.86,0,7,3.13,7,7v21.24h11.9
			c1.57-3.35,4.25-6.08,7.55-7.74l-1.29-16.26c-3.69-4.09-5.94-9.49-5.94-15.41c0-12.69,10.32-23.01,23-23.01s23,10.32,23,23.01
			c0,5.92-2.25,11.32-5.94,15.41l-1.19,14.89C98.371,207.32,102.201,212.01,102.201,217.59z"/>
		<path fill="#4BA5C8" d="M35.099,193.846h-7.157v-7.994c0-3.953,3.204-7.157,7.157-7.157h0V193.846z"/>
		<path fill="#FFB69F" d="M77.322,169.459L77.322,169.459c9.562,0,17.313-7.751,17.313-17.313v-27.649H60.008v27.649
			C60.008,161.708,67.76,169.459,77.322,169.459z"/>
		<path fill="#FFB69F" d="M60.007,124.505c0,0.85-0.026,27.833,0.041,28.681c0.524,9.082,8.076,16.277,17.269,16.277
			c9.179,0,16.731-7.167,17.269-16.263c0.068-0.879,0.041,0.807,0.041-28.694H60.007z"/>
		<path fill="#EA8F7C" d="M94.639,149.325c-5.16,2.757-11.056,4.327-17.316,4.327s-12.156-1.569-17.316-4.327
			c-0.018-7.687,0-24.152,0-24.817H94.63C94.63,138.889,94.639,145.858,94.639,149.325z"/>
		<path fill="#AFAFAF" d="M85.396,69.457v16.147h22.555V69.457c0-6.228-5.049-11.277-11.277-11.277h0
			C90.446,58.179,85.396,63.229,85.396,69.457z"/>
		<path fill="#AFAFAF" d="M72.097,58.179H59.992c-7.345,0-13.3,5.954-13.3,13.3v14.125h38.704V71.479
			C85.396,64.134,79.442,58.179,72.097,58.179z"/>
		<path fill="#FFB69F" d="M77.322,147.446L77.322,147.446c16.916,0,30.63-13.713,30.63-30.629V85.604H46.692v31.213
			C46.692,133.733,60.406,147.446,77.322,147.446z"/>
		<path fill="#FC5D3D" d="M66.044,120.354c0,6.228,5.049,11.277,11.277,11.277c6.228,0,11.277-5.049,11.277-11.277H66.044z"/>
		<path fill="#FFB69F" d="M41.056,116.525h5.637V95.912h-5.637c-5.572,0-10.088,4.517-10.088,10.088v0.437
			C30.968,112.008,35.484,116.525,41.056,116.525z"/>
		<path fill="#FFB69F" d="M113.588,116.525h-5.637V95.912h5.637c5.572,0,10.088,4.517,10.088,10.088v0.437
			C123.676,112.008,119.159,116.525,113.588,116.525z"/>
		<circle fill="#EFEFEF" cx="77.322" cy="175.676" r="16.003"/>
		<path fill="#AFAFAF" d="M67.016,187.757l4.089,51.259c0.13,1.631,1.492,2.889,3.128,2.889h6.178c1.636,0,2.998-1.257,3.128-2.889
			l4.089-51.259H67.016z"/>
		<path fill="#FFB69F" d="M90.205,212.591H68.944c-5.249,0-9.504,4.255-9.504,9.504v0H35.099v-28.248H5.69v34.18
			c0,11.046,8.954,20,20,20h59.515c5.523,0,10-4.477,10-10l0-20.435C95.205,214.829,92.967,212.591,90.205,212.591z"/>
		<rect x="119.554" y="193.846" fill="#FFB69F" width="29.41" height="54.183"/>
		<rect x="119.554" y="193.846" fill="#EA8F7C" width="7.157" height="54.183"/>
		<path fill="#4BA5C8" d="M119.554,193.846h7.157v-7.994c0-3.953-3.204-7.157-7.157-7.157h0V193.846z"/>
		
			<ellipse transform="matrix(0.9871 -0.1602 0.1602 0.9871 -8.6115 31.2086)" fill="#EFEFEF" cx="189.268" cy="69.018" rx="61.046" ry="61.046"/>
		<path fill="#AFAFAF" d="M170.951,109.921c-13.631-6.93-22.099-20.735-22.099-36.027V46.65c0-9.819,9.068-17.3,18.825-15.189
			c13.653,2.952,28.352,3.188,43.079,0.015c9.744-2.102,18.928,5.34,18.928,15.283v27.136c0,15.292-8.468,29.096-22.099,36.027
			C196.099,115.761,182.467,115.777,170.951,109.921z"/>
		<path fill="#F0C020" d="M155.852,46.65v27.245c0,12.576,7.061,24.087,18.271,29.787l0,0c9.517,4.839,20.772,4.839,30.289,0l0,0
			c11.21-5.7,18.271-17.211,18.271-29.787V46.759c0-5.501-5.076-9.599-10.453-8.44l0,0c-15.171,3.27-30.865,3.264-46.034-0.016l0,0
			C160.876,37.152,155.852,41.206,155.852,46.65z"/>
		<path fill="#EFEFEF" d="M175.865,78.223v2.01c0,7.402,6,13.402,13.402,13.402h0c7.402,0,13.402-6,13.402-13.402v-2.01
			c0-1.926-2.068-3.144-3.752-2.209l-0.001,0c-6.002,3.331-13.298,3.331-19.3,0l0,0C177.934,75.08,175.865,76.298,175.865,78.223z"
			/>
		<path d="M43.19,48.054c-3.729-1.228-6.641-2.022-8.591-10.421c-0.635-2.737-4.548-2.73-5.181,0
			c-1.907,8.213-4.566,9.092-8.591,10.422c-2.424,0.801-2.43,4.248,0,5.051c6.686,2.209,7.444,5.476,8.591,10.421
			c0.637,2.743,4.545,2.742,5.182,0c1.905-8.212,4.709-9.139,8.591-10.421C45.614,52.304,45.62,48.857,43.19,48.054z"/>
		<path fill="#F0C020" d="M35.993,50.609c-1.47,1.03-2.79,2.42-3.93,4.43c-0.94-1.58-2.25-3.08-4.17-4.4
			c1.55-1.06,2.94-2.5,4.13-4.64C33.223,48.159,34.583,49.599,35.993,50.609z"/>
		<path d="M177.534,147.501c-3.729-1.228-6.641-2.022-8.591-10.421c-0.635-2.737-4.548-2.73-5.181,0
			c-1.907,8.213-4.566,9.092-8.591,10.422c-2.424,0.801-2.43,4.248,0,5.051c6.686,2.209,7.444,5.476,8.591,10.421
			c0.637,2.743,4.545,2.742,5.182,0c1.905-8.212,4.709-9.139,8.591-10.421C179.958,151.751,179.964,148.304,177.534,147.501z"/>
		<path fill="#F0C020" d="M170.337,150.056c-1.47,1.03-2.79,2.42-3.93,4.43c-0.94-1.58-2.25-3.08-4.17-4.4
			c1.55-1.06,2.94-2.5,4.13-4.64C167.567,147.606,168.927,149.046,170.337,150.056z"/>
		<path fill="#FFFFFF" d="M189.268,122.564c-1.044,0-2.101-0.031-3.142-0.091c-1.378-0.08-2.431-1.262-2.351-2.641
			c0.08-1.379,1.262-2.433,2.642-2.351c0.943,0.055,1.903,0.083,2.851,0.083c1.381,0,2.5,1.119,2.5,2.5
			S190.649,122.564,189.268,122.564z M175.783,120.844c-23.587-6.142-40.061-27.454-40.061-51.827c0-1.381,1.119-2.5,2.5-2.5
			s2.5,1.119,2.5,2.5c0,22.098,14.936,41.42,36.32,46.988c1.336,0.348,2.138,1.713,1.789,3.049
			C178.486,120.382,177.129,121.193,175.783,120.844z"/>
		<path d="M77.322,115.439c1.381,0,2.5-1.119,2.5-2.5v-9.928c0-1.381-1.119-2.5-2.5-2.5s-2.5,1.119-2.5,2.5v9.928
			C74.822,114.32,75.941,115.439,77.322,115.439z"/>
		<path d="M91.099,120.354c0-1.381-1.119-2.5-2.5-2.5H66.044c-1.381,0-2.5,1.119-2.5,2.5c0,7.597,6.181,13.777,13.777,13.777
			S91.099,127.951,91.099,120.354z M68.907,122.854h16.83c-1.079,3.626-4.443,6.277-8.415,6.277S69.986,126.48,68.907,122.854z"/>
		<path d="M91.827,103.667c1.381,0,2.5-1.119,2.5-2.5v-2.252c0-1.381-1.119-2.5-2.5-2.5s-2.5,1.119-2.5,2.5v2.252
			C89.327,102.548,90.446,103.667,91.827,103.667z"/>
		<path d="M65.317,101.167v-2.252c0-1.381-1.119-2.5-2.5-2.5s-2.5,1.119-2.5,2.5v2.252c0,1.381,1.119,2.5,2.5,2.5
			S65.317,102.548,65.317,101.167z"/>
		<path d="M25.69,250.526h59.515c6.893,0,12.5-5.607,12.5-12.5l0.001-20.436c0-4.136-3.364-7.5-7.5-7.5h-1.846l1.675-21.011
			c3.68-3.488,5.791-8.302,5.791-13.406c0-3.986-1.28-7.672-3.433-10.696c2.783-3.261,4.439-7.321,4.697-11.722
			c0.031-0.467,0.038-0.561,0.039-6.128h21.826c15.163,0,27.5,12.336,27.5,27.5v16.719h-24.4v-12.651c0-1.381-1.119-2.5-2.5-2.5
			s-2.5,1.119-2.5,2.5v15.151v54.182c0,1.381,1.119,2.5,2.5,2.5s2.5-1.119,2.5-2.5v-51.682h24.407v21.503c0,1.37,1.12,2.49,2.5,2.49
			s2.5-1.12,2.5-2.49c0-37.089-0.007-28.345-0.007-43.222c0-17.92-14.579-32.5-32.5-32.5h-20.29
			c6.674-5.636,11.093-13.856,11.705-23.103h3.218c6.941,0,12.589-5.647,12.589-12.588V106c0-6.941-5.647-12.588-12.589-12.588
			h-3.136v-7.808V69.457c0-7.597-6.181-13.778-13.777-13.778c-4.972,0-9.324,2.656-11.747,6.615
			c-2.87-3.997-7.545-6.615-12.83-6.615H59.992c-8.712,0-15.8,7.088-15.8,15.8v14.125v7.808h-3.136
			c-6.941,0-12.589,5.647-12.589,12.588v0.437c0,6.941,5.647,12.588,12.589,12.588h3.218c0.612,9.247,5.031,17.466,11.705,23.103
			h-20.29c-4.054,0-8.028,0.738-11.788,2.212c-1.311,0.499-1.922,1.959-1.43,3.23c0.522,1.333,2.012,1.929,3.24,1.42
			c3.186-1.233,6.557-1.862,10.004-1.862h21.794c0.011,4.733,0.022,5.95,0.043,6.201c0.245,4.331,1.904,8.388,4.698,11.657
			c-2.149,3.02-3.427,6.7-3.43,10.68c0,0.002-0.001,0.005-0.001,0.007c0,0.001,0,0.001,0,0.002c0,0.002,0,0.003,0,0.005
			c0,5.094,2.109,9.901,5.788,13.389l1.701,21.324c-4.55,1.025-8.135,4.63-9.107,9.2H37.599c0-14.514,0-26.366,0-40.899
			c0-1.381-1.119-2.5-2.5-2.5s-2.5,1.119-2.5,2.5v12.651H8.189v-16.697c0-0.007,0.002-0.013,0.002-0.019
			c0-4.93,1.32-9.76,3.811-13.98c0.686-1.15,0.346-2.702-0.88-3.42c-1.141-0.68-2.75-0.27-3.42,0.88
			c-2.945,4.971-4.504,10.669-4.51,16.487c0,0.01-0.003,0.02-0.003,0.03c0,11.902,0.001,29.788,0.001,53.398
			C3.19,240.433,13.284,250.526,25.69,250.526z M110.452,98.412h3.136c4.185,0,7.589,3.404,7.589,7.588v0.437
			c0,4.184-3.404,7.588-7.589,7.588h-3.136V98.412z M44.192,114.025h-3.136c-4.185,0-7.589-3.404-7.589-7.588V106
			c0-4.184,3.404-7.588,7.589-7.588h3.136V114.025z M87.896,69.457c0-4.84,3.938-8.778,8.778-8.778c4.84,0,8.777,3.938,8.777,8.778
			v13.646H87.896C87.896,79.593,87.896,72.992,87.896,69.457z M49.192,71.479c0-5.955,4.845-10.8,10.8-10.8h12.105
			c5.954,0,10.799,4.845,10.799,10.8v11.625H49.192V71.479z M49.192,116.816c0-16.556,0-10.579,0-28.713c12.406,0,44.425,0,56.26,0
			c0,18.53,0,11.742,0,28.713c0,15.511-12.619,28.13-28.13,28.13S49.192,132.327,49.192,116.816z M62.507,146.436
			c4.461,2.24,9.491,3.51,14.815,3.51c5.32,0,10.347-1.268,14.806-3.506c-0.001,5.796-0.005,6.141-0.027,6.483l-0.009,0.128
			c-0.177,3.038-1.288,5.891-3.148,8.247c-3.178-2.574-7.219-4.123-11.618-4.123c-4.404,0-8.448,1.552-11.629,4.129
			c-1.869-2.363-2.981-5.222-3.154-8.272C62.526,152.644,62.515,149.791,62.507,146.436z M77.327,162.175
			c6.588,0,12.08,4.747,13.257,10.999H64.062C65.242,166.921,70.737,162.175,77.327,162.175z M64.069,178.173h26.506
			c-0.504,2.682-1.807,5.149-3.766,7.086H67.843C65.879,183.321,64.573,180.854,64.069,178.173z M84.924,190.26l-1.581,19.831H71.3
			l-1.582-19.831H84.924z M8.19,196.346h24.409v23.248h-4.656c-1.381,0-2.5,1.119-2.5,2.5s1.119,2.5,2.5,2.5h7.156H59.44
			c1.381,0,2.5-1.119,2.5-2.5c0-3.862,3.142-7.003,7.004-7.003h21.262c1.379,0,2.5,1.122,2.5,2.5l-0.001,20.436
			c0,4.135-3.364,7.5-7.5,7.5H25.69c-9.649,0-17.5-7.851-17.5-17.5V196.346z"/>
		<path d="M17.881,153.67c1.05-0.89,1.18-2.47,0.29-3.52c-0.86-1.01-2.521-1.15-3.53-0.29c-1.098,0.966-1.136,2.515-0.28,3.53
			C15.271,154.45,16.85,154.564,17.881,153.67z"/>
		<path d="M148.961,235.35c-1.38,0-2.5,1.12-2.5,2.5v10.18c0,1.38,1.12,2.5,2.5,2.5s2.5-1.12,2.5-2.5v-10.18
			C151.461,236.47,150.341,235.35,148.961,235.35z"/>
		<path d="M148.961,225.35c-1.38,0-2.5,1.12-2.5,2.5c0,1.37,1.12,2.49,2.5,2.49s2.5-1.12,2.5-2.49
			C151.461,226.47,150.341,225.35,148.961,225.35z"/>
		<path d="M211.705,35.875c-14.924,3.217-30.058,3.21-44.979-0.015c-6.882-1.49-13.373,3.76-13.373,10.791v27.245
			c0,13.589,7.525,25.857,19.639,32.016c10.18,5.176,22.343,5.185,32.539,0.007c0.007-0.003,0.014-0.004,0.021-0.008
			c0,0,0.001-0.001,0.009-0.009c0.001,0,0.002-0.001,0.003-0.002c8.84-4.482,15.302-12.385,18.098-21.649
			c0.39-1.32-0.36-2.71-1.681-3.11c-1.29-0.39-2.729,0.39-3.109,1.67c-2.42,8.04-8.11,14.84-15.59,18.64
			c-0.005,0.003-0.009,0.007-0.014,0.009c-8.773,4.455-19.244,4.452-28.011-0.006c-10.427-5.301-16.904-15.861-16.904-27.559V46.65
			c0-3.861,3.564-6.716,7.316-5.904c15.622,3.379,31.467,3.383,47.089,0.016c3.825-0.825,7.415,2.089,7.426,5.979
			c0,0.007-0.002,0.012-0.002,0.019v16.91c0,1.38,1.12,2.5,2.5,2.5s2.5-1.12,2.5-2.5V46.788c0-0.01,0.003-0.019,0.003-0.029
			C225.184,39.657,218.632,34.383,211.705,35.875z"/>
		<circle cx="222.681" cy="73.67" r="2.5"/>
		<path d="M189.268,96.136c8.769,0,15.902-7.134,15.902-15.903v-2.009c0-3.836-4.117-6.253-7.466-4.395
			c-5.283,2.933-11.591,2.932-16.874,0c-3.347-1.859-7.465,0.56-7.465,4.395v2.009C173.366,89.002,180.5,96.136,189.268,96.136z
			 M178.366,78.224l0.039-0.023c6.804,3.775,14.927,3.775,21.766,0.023v2.009c0,6.012-4.891,10.903-10.902,10.903
			s-10.902-4.891-10.902-10.903V78.224z"/>
		<path d="M189.271,5.47c-35.041,0-63.55,28.508-63.55,63.55c0,13.919,4.611,27.502,13.015,38.511l-6.332,6.332
			c-3.328,3.328-3.328,8.712,0,12.025c3.318,3.318,8.709,3.307,12.016,0l6.341-6.342c11.009,8.404,24.591,13.014,38.511,13.014
			c35.036,0,63.54-28.504,63.54-63.54C252.811,33.979,224.307,5.47,189.271,5.47z M189.271,127.56
			c-13.524,0-26.708-4.717-37.122-13.281c-0.967-0.793-2.447-0.746-3.355,0.163l-7.909,7.91c-1.363,1.364-3.581,1.363-4.948-0.003
			c-1.377-1.371-1.365-3.582,0.003-4.951l7.9-7.899c0.891-0.891,0.974-2.369,0.163-3.356c-8.564-10.414-13.281-23.597-13.281-37.122
			c0-32.285,26.266-58.55,58.55-58.55c32.279,0,58.54,26.265,58.54,58.55C247.811,101.299,221.55,127.56,189.271,127.56z"/>
		<path d="M176.133,60.803c1.907,0,3.458,1.551,3.458,3.458c0,1.381,1.119,2.5,2.5,2.5s2.5-1.119,2.5-2.5
			c0-4.664-3.794-8.458-8.458-8.458s-8.458,3.794-8.458,8.458c0,1.381,1.119,2.5,2.5,2.5s2.5-1.119,2.5-2.5
			C172.675,62.354,174.226,60.803,176.133,60.803z"/>
		<path d="M208.361,66.762c1.381,0,2.5-1.119,2.5-2.5c0-4.664-3.794-8.458-8.458-8.458s-8.459,3.794-8.459,8.458
			c0,1.381,1.119,2.5,2.5,2.5s2.5-1.119,2.5-2.5c0-1.907,1.552-3.458,3.459-3.458s3.458,1.551,3.458,3.458
			C205.861,65.643,206.98,66.762,208.361,66.762z"/>
	</g>
</g>
</svg>
