<?xml version="1.0" encoding="utf-8"?>
<!-- Generator: Adobe Illustrator 24.0.0, SVG Export Plug-In . SVG Version: 6.00 Build 0)  -->
<svg version="1.1" xmlns="http://www.w3.org/2000/svg" xmlns:xlink="http://www.w3.org/1999/xlink" x="0px" y="0px"
	 viewBox="0 0 256 256" enable-background="new 0 0 256 256" xml:space="preserve">
<g id="Caption">
</g>
<g id="Icons">
	<g>
		<path fill="#F0C020" d="M251.13,100.244v55.511c0,2.422-1.732,4.522-4.122,4.917c-10.573,1.745-18.866,10.091-20.61,20.599
			c-0.397,2.39-2.494,4.124-4.917,4.124H34.518c-2.423,0-4.52-1.734-4.917-4.124c-1.744-10.512-10.04-18.855-20.61-20.6
			c-2.39-0.394-4.122-2.495-4.122-4.917v-55.511c0-2.423,1.734-4.521,4.124-4.917c10.527-1.743,18.863-10.048,20.609-20.6
			c0.395-2.389,2.494-4.122,4.916-4.122h186.961c2.422,0,4.521,1.732,4.916,4.122c1.746,10.555,10.084,18.857,20.609,20.6
			C249.396,95.723,251.13,97.821,251.13,100.244z"/>
		<path fill="#E8A61E" d="M161.296,107.069c-3.5,0-8.628,2.16-20.261,2.16c-11.441,0-16.776-2.172-20.308-2.172
			c-4.576,0-8.632,2.226-11.179,5.643V92.758c0-7.884-6.406-14.299-14.281-14.299c-3.627,0-8.898,2.235-20.972,2.235
			c-11.819,0-17.463-2.248-21.021-2.248c-7.831,0-14.201,6.379-14.201,14.219v23.022c0,13.332,7.383,25.368,19.267,31.41
			c10.035,5.102,21.92,5.094,31.939,0c7.582-3.854,13.32-10.154,16.489-17.669v13.844c0,12.97,7.182,24.679,18.744,30.557
			c9.741,4.953,21.305,4.966,31.071,0c11.562-5.877,18.744-17.586,18.744-30.557v-22.152
			C175.329,113.373,169.034,107.069,161.296,107.069z"/>
		<path fill="#72C2E9" d="M113.77,121.032v22.242c0,10.267,5.764,19.664,14.916,24.317l0,0c7.769,3.95,16.958,3.95,24.727,0l0,0
			c9.152-4.653,14.916-14.05,14.916-24.317v-22.152c0-4.491-4.144-7.837-8.534-6.89h0c-12.385,2.669-25.197,2.665-37.58-0.013l0,0
			C117.872,113.278,113.77,116.588,113.77,121.032z"/>
		<path fill="#FC5D3D" d="M46.074,92.666v23.022c0,10.627,5.967,20.354,15.439,25.17l0,0c8.042,4.089,17.553,4.089,25.595,0l0,0
			c9.473-4.816,15.44-14.543,15.44-25.17v-22.93c0-4.648-4.289-8.112-8.833-7.132l0,0c-12.82,2.763-26.081,2.758-38.899-0.013l0,0
			C50.32,84.64,46.074,88.066,46.074,92.666z"/>
		<path fill="#EFEFEF" d="M251.13,100.24v55.51c0,2.43-1.73,4.53-4.12,4.92c-10.57,1.75-18.87,10.09-20.61,20.6
			c-0.4,2.39-2.5,4.12-4.92,4.12h-36.99V70.61h36.99c2.42,0,4.52,1.73,4.92,4.12c1.74,10.55,10.08,18.85,20.61,20.6
			C249.4,95.72,251.13,97.82,251.13,100.24z"/>
		<path fill="#F0C020" d="M219.58,114.568l3.621,7.336l8.096,1.176c1.619,0.235,2.265,2.225,1.094,3.366l-5.858,5.71l1.383,8.063
			c0.277,1.612-1.416,2.842-2.864,2.081l-7.241-3.807l-7.241,3.807c-1.448,0.761-3.14-0.468-2.864-2.081l1.383-8.063l-5.858-5.71
			c-1.171-1.142-0.525-3.131,1.094-3.366l8.096-1.176l3.621-7.336C216.764,113.101,218.856,113.101,219.58,114.568z"/>
		<path d="M139.182,40.453c-3.729-1.228-6.641-2.022-8.591-10.421c-0.635-2.737-4.548-2.73-5.181,0
			c-1.907,8.213-4.566,9.092-8.591,10.422c-2.424,0.801-2.43,4.248,0,5.051c6.686,2.209,7.444,5.476,8.591,10.421
			c0.637,2.743,4.545,2.742,5.182,0c1.905-8.212,4.709-9.139,8.591-10.421C141.606,44.703,141.611,41.256,139.182,40.453z"/>
		<path fill="#F0C020" d="M131.985,43.008c-1.47,1.03-2.79,2.42-3.93,4.43c-0.94-1.58-2.25-3.08-4.17-4.4
			c1.55-1.06,2.94-2.5,4.13-4.64C129.215,40.558,130.575,41.998,131.985,43.008z"/>
		<path d="M139.182,210.489c-3.729-1.228-6.641-2.022-8.591-10.421c-0.635-2.737-4.548-2.73-5.181,0
			c-1.907,8.213-4.566,9.092-8.591,10.422c-2.424,0.801-2.43,4.248,0,5.051c6.686,2.209,7.444,5.476,8.591,10.421
			c0.637,2.743,4.545,2.742,5.182,0c1.905-8.212,4.709-9.139,8.591-10.421C141.606,214.739,141.611,211.292,139.182,210.489z"/>
		<path fill="#F0C020" d="M131.985,213.044c-1.47,1.03-2.79,2.42-3.93,4.43c-0.94-1.58-2.25-3.08-4.17-4.4
			c1.55-1.06,2.94-2.5,4.13-4.64C129.215,210.594,130.575,212.034,131.985,213.044z"/>
		<path fill="#FFE5AE" d="M184.49,83.1h-53.75c-1.381,0-2.5-1.119-2.5-2.5s1.119-2.5,2.5-2.5h53.75c1.381,0,2.5,1.119,2.5,2.5
			S185.871,83.1,184.49,83.1z"/>
		<path fill="#FFE5AE" d="M102.548,177.895H38.491c-1.107,0-2.083-0.728-2.397-1.79c-1.945-6.563-5.836-12.252-11.254-16.454
			c-1.091-0.846-1.29-2.417-0.443-3.508c0.846-1.09,2.416-1.29,3.508-0.443c5.752,4.46,10.013,10.376,12.405,17.194h62.238
			c1.381,0,2.5,1.119,2.5,2.5S103.929,177.895,102.548,177.895z M16.795,155.081c-0.859-0.337-1.745-0.641-2.634-0.904
			c-1.324-0.392-2.08-1.782-1.688-3.106c0.392-1.324,1.781-2.078,3.106-1.688c1.026,0.303,2.049,0.654,3.041,1.043
			c1.286,0.504,1.919,1.955,1.415,3.24C19.532,154.949,18.084,155.585,16.795,155.081z"/>
		<path fill="#FFFFFF" d="M240.418,106.617c-1.021-0.303-2.043-0.654-3.037-1.043c-1.286-0.504-1.92-1.954-1.417-3.24
			c0.504-1.285,1.953-1.921,3.239-1.417c0.864,0.338,1.752,0.644,2.639,0.907c1.323,0.393,2.078,1.784,1.685,3.108
			C243.133,106.258,241.739,107.009,240.418,106.617z M228.097,100.297c-5.755-4.461-10.017-10.378-12.406-17.197h-31.2
			c-1.381,0-2.5-1.119-2.5-2.5s1.119-2.5,2.5-2.5h33.02c1.107,0,2.083,0.729,2.397,1.791c1.941,6.563,5.833,12.253,11.252,16.455
			c1.092,0.846,1.29,2.417,0.444,3.508C230.756,100.947,229.184,101.141,228.097,100.297z"/>
		<path d="M27.137,74.319c-1.574,9.514-9.029,16.965-18.551,18.542c-3.602,0.597-6.215,3.702-6.215,7.383v55.511
			c0,3.684,2.614,6.789,6.215,7.383c9.517,1.571,16.971,9.022,18.55,18.542c0.597,3.601,3.702,6.215,7.383,6.215
			c0.018,0,0.035-0.005,0.053-0.005h82.909c1.38,0,2.5-1.12,2.5-2.5c0-1.37-1.12-2.5-2.5-2.5H34.52c-0.01,0-0.019,0.003-0.029,0.003
			c-1.212-0.013-2.229-0.862-2.423-2.031c-1.93-11.632-11.039-20.737-22.668-22.657c-1.157-0.191-2.029-1.244-2.029-2.45v-55.511
			c0-1.225,0.855-2.255,2.032-2.45c11.635-1.926,20.744-11.032,22.667-22.659c0.191-1.157,1.245-2.03,2.45-2.03H181.99v38.285
			c0,1.38,1.119,2.5,2.5,2.5c1.38,0,2.5-1.12,2.5-2.5V73.105h34.49c1.205,0,2.259,0.873,2.45,2.029
			c1.923,11.626,11.031,20.732,22.667,22.659c1.178,0.195,2.032,1.226,2.032,2.45v55.511c0,1.206-0.872,2.259-2.029,2.45
			c-11.629,1.919-20.739,11.024-22.668,22.657c-0.195,1.169-1.212,2.018-2.423,2.031c-0.01,0-0.02-0.003-0.03-0.003H186.99v-51.5
			c0-1.38-1.12-2.5-2.5-2.5c-1.381,0-2.5,1.12-2.5,2.5v51.5h-44.511c-1.38,0-2.5,1.13-2.5,2.5c0,1.38,1.12,2.5,2.5,2.5h83.95
			c0.018,0,0.035,0.005,0.053,0.005c3.681,0,6.785-2.614,7.382-6.215c1.58-9.521,9.034-16.972,18.551-18.542
			c3.602-0.595,6.215-3.7,6.215-7.383v-55.511c0-3.681-2.614-6.786-6.216-7.383c-9.522-1.577-16.978-9.029-18.55-18.542
			c-0.597-3.6-3.701-6.213-7.384-6.213H34.519C30.836,68.105,27.732,70.718,27.137,74.319z"/>
		<path d="M127.48,187.89c1.38,0,2.5-1.12,2.5-2.5c0-1.37-1.12-2.5-2.5-2.5c-1.38,0-2.5,1.13-2.5,2.5
			C124.98,186.77,126.1,187.89,127.48,187.89z"/>
		<path d="M154.546,169.819c10.044-5.106,16.283-15.278,16.283-26.545v-22.152c0-6.101-5.63-10.614-11.56-9.334
			c-12.12,2.612-24.408,2.608-36.526-0.012c-5.89-1.279-11.474,3.214-11.474,9.258v22.241c0,11.267,6.239,21.439,16.283,26.546
			C136.002,174.115,146.094,174.116,154.546,169.819z M116.27,143.273v-22.241c0-2.846,2.625-4.973,5.417-4.371
			c12.817,2.771,25.818,2.777,38.635,0.013c2.831-0.611,5.507,1.547,5.507,4.447v22.152c0,9.376-5.191,17.84-13.549,22.089
			c-7.033,3.575-15.43,3.574-22.461,0C121.462,161.113,116.27,152.649,116.27,143.273z"/>
		<path d="M49.14,128.74c-1.16,0.73-1.5,2.28-0.76,3.45c0.768,1.201,2.353,1.473,3.45,0.76c1.141-0.712,1.524-2.241,0.76-3.45
			C51.88,128.38,50.28,128.02,49.14,128.74z"/>
		<path d="M55.23,136.65c-0.84,1.1-0.62,2.67,0.47,3.51c1.47,1.11,3.04,2.1,4.68,2.93c0.009,0.005,0.019,0.006,0.028,0.01
			c8.711,4.418,19.111,4.422,27.834-0.013c10.367-5.27,16.807-15.769,16.807-27.399v-22.93c0-6.248-5.765-10.888-11.86-9.576
			c-12.556,2.706-25.289,2.701-37.844-0.013c-6.065-1.311-11.77,3.314-11.77,9.497c0,20.405-0.004,22.688,0.007,23.094
			c0.005,2.156,0.233,4.312,0.678,6.41c0.263,1.201,1.419,2.179,2.98,1.92c1.398-0.323,2.193-1.657,1.91-2.97
			c-0.378-1.769-0.577-3.578-0.579-5.396c0.005-0.349,0.003-5.512,0.003-23.057c0-3.009,2.777-5.244,5.713-4.61
			c13.254,2.867,26.697,2.871,39.954,0.014c2.995-0.643,5.807,1.639,5.807,4.688v22.93c0,9.738-5.393,18.529-14.073,22.942
			c-7.3,3.71-16.014,3.712-23.313,0.007c-0.004-0.002-0.008-0.006-0.012-0.008c-1.37-0.69-2.69-1.52-3.92-2.45
			C57.66,135.36,56.04,135.59,55.23,136.65z"/>
		<circle cx="184.49" cy="121.39" r="2.5"/>
		<path d="M231.655,120.606l-6.795-0.987l-3.039-6.157c-1.639-3.324-6.384-3.324-8.023,0l-3.039,6.158l-6.795,0.987
			c-3.668,0.534-5.135,5.045-2.479,7.63l4.917,4.793l-1.16,6.768c-0.628,3.659,3.218,6.439,6.49,4.716l6.078-3.195l6.078,3.195
			c3.281,1.726,7.118-1.064,6.491-4.716l-1.161-6.768l4.916-4.792C236.789,125.653,235.325,121.14,231.655,120.606z
			 M224.786,130.367c-0.589,0.574-0.858,1.402-0.719,2.213l1.203,7.012l-6.298-3.311c-0.729-0.383-1.598-0.383-2.326,0l-6.297,3.311
			l1.202-7.012c0.14-0.811-0.13-1.638-0.719-2.212l-5.095-4.966l7.04-1.023c0.814-0.118,1.519-0.63,1.883-1.368l3.148-6.379
			l3.148,6.379c0.364,0.738,1.068,1.25,1.883,1.368l7.04,1.023L224.786,130.367z"/>
		<path d="M62.698,101.288c-3.923,0-7.114,3.192-7.114,7.115c0,1.381,1.119,2.5,2.5,2.5s2.5-1.119,2.5-2.5
			c0-1.166,0.948-2.115,2.114-2.115s2.115,0.949,2.115,2.115c0,1.381,1.119,2.5,2.5,2.5c1.381,0,2.5-1.119,2.5-2.5
			C69.812,104.479,66.621,101.288,62.698,101.288z"/>
		<path d="M83.81,108.402c0-1.166,0.948-2.115,2.114-2.115s2.115,0.949,2.115,2.115c0,1.381,1.119,2.5,2.5,2.5s2.5-1.119,2.5-2.5
			c0-3.923-3.192-7.115-7.115-7.115s-7.114,3.192-7.114,7.115c0,1.381,1.119,2.5,2.5,2.5S83.81,109.783,83.81,108.402z"/>
		<path d="M74.311,125.074c-3.015,0-5.468-2.453-5.468-5.468c0-1.381-1.119-2.5-2.5-2.5s-2.5,1.119-2.5,2.5
			c0,5.772,4.696,10.468,10.468,10.468s10.468-4.696,10.468-10.468c0-1.381-1.119-2.5-2.5-2.5s-2.5,1.119-2.5,2.5
			C79.779,122.621,77.326,125.074,74.311,125.074z"/>
		<path d="M131.551,135.254c0,1.381,1.119,2.5,2.5,2.5s2.5-1.119,2.5-2.5c0-3.923-3.191-7.115-7.114-7.115s-7.115,3.192-7.115,7.115
			c0,1.381,1.119,2.5,2.5,2.5s2.5-1.119,2.5-2.5c0-1.166,0.949-2.115,2.115-2.115S131.551,134.088,131.551,135.254z"/>
		<path d="M148.048,137.754c1.381,0,2.5-1.119,2.5-2.5c0-1.166,0.949-2.115,2.115-2.115s2.114,0.949,2.114,2.115
			c0,1.381,1.119,2.5,2.5,2.5s2.5-1.119,2.5-2.5c0-3.923-3.191-7.115-7.114-7.115c-3.924,0-7.115,3.192-7.115,7.115
			C145.548,136.635,146.667,137.754,148.048,137.754z"/>
		<path d="M133.081,143.957c-1.381,0-2.5,1.119-2.5,2.5c0,5.772,4.696,10.468,10.469,10.468c5.771,0,10.468-4.696,10.468-10.468
			c0-1.381-1.119-2.5-2.5-2.5s-2.5,1.119-2.5,2.5c0,3.015-2.453,5.468-5.468,5.468c-3.016,0-5.469-2.453-5.469-5.468
			C135.581,145.076,134.462,143.957,133.081,143.957z"/>
	</g>
</g>
</svg>
