<svg xmlns="http://www.w3.org/2000/svg" viewBox="0 0 48 48"><defs><style>.cls-1{fill:#a87e6b;}.cls-2{fill:#ffdec7;}.cls-3{fill:#f6ccaf;}.cls-4{fill:#f26674;}.cls-5{fill:#db5669;}.cls-6{fill:#ffde76;}.cls-7{fill:#fc6;}.cls-8{fill:#b5e08c;}.cls-9{fill:#9dcc6b;}</style></defs><title>bouquet flowers</title><g id="bouquet_flowers" data-name="bouquet flowers"><path class="cls-1" d="M23,14V9a1,1,0,0,1,2,0v5A1,1,0,0,1,23,14Z"/><path class="cls-2" d="M32.31,30.53a9.08,9.08,0,0,0-.94-1.7,2,2,0,0,0-3-.2l-3,3a2,2,0,0,0-2.82,0l-3-3a2,2,0,0,0-3,.2,9.08,9.08,0,0,0-.94,1.7C10.13,23.56,11,14,11,14H37S37.87,23.56,32.31,30.53Z"/><path class="cls-3" d="M14,14H11s-.87,9.56,4.69,16.53a5.38,5.38,0,0,1,1.5-2.21A26.88,26.88,0,0,1,14,14Z"/><path class="cls-4" d="M26,4a2,2,0,0,0-4,0,2,2,0,0,0,0,4,2,2,0,0,0,4,0,2,2,0,0,0,0-4Z"/><path class="cls-5" d="M23,7a2,2,0,0,1-1.82-2.82A2,2,0,0,0,22,8a2,2,0,0,0,3.82.82A2,2,0,0,1,23,7Z"/><path class="cls-6" d="M36,10a2,2,0,0,1-2,2,2,2,0,0,1-4,0,2,2,0,0,1,0-4,2,2,0,0,1,4,0A2,2,0,0,1,36,10Z"/><path class="cls-7" d="M31,11a2,2,0,0,1-1.81-2.8A2,2,0,0,0,30,12a2,2,0,0,0,3.82.82A2,2,0,0,1,31,11Z"/><path class="cls-6" d="M20,10a2,2,0,0,1-2,2,2,2,0,0,1-4,0,2,2,0,0,1,0-4,2,2,0,0,1,4,0A2,2,0,0,1,20,10Z"/><path class="cls-7" d="M15,11a2,2,0,0,1-1.82-2.8A2,2,0,0,0,14,12a2,2,0,0,0,3.82.82A2,2,0,0,1,15,11Z"/><path class="cls-2" d="M28.88,47H19.12a2,2,0,0,1-2-2.25A23.25,23.25,0,0,1,18.25,40c1.08,0,1.28-.48,4.34-3.54a2,2,0,0,0,2.82,0c3.06,3.06,3.26,3.52,4.34,3.54a23.25,23.25,0,0,1,1.11,4.8A2,2,0,0,1,28.88,47Z"/><path class="cls-3" d="M21.12,45a2,2,0,0,1-2-2.25c.42-3.56,1.15-4,.49-3.38a2,2,0,0,1-1.38.58,23.25,23.25,0,0,0-1.11,4.8,2,2,0,0,0,2,2.25h9.76a2,2,0,0,0,2-2Z"/><path class="cls-8" d="M35.78,9.1A2,2,0,0,0,34,8a2,2,0,0,0-4,0,2,2,0,0,0-1.88,1.32,7,7,0,0,1,9.41-7.85A7,7,0,0,1,35.78,9.1Z"/><path class="cls-9" d="M30.58,2.58a7,7,0,0,0-2.46,6.74,2,2,0,0,1,1-1.08A7,7,0,0,1,30.58,2.58Z"/><path class="cls-8" d="M19.88,9.32A2,2,0,0,0,18,8a2,2,0,0,0-4,0,2,2,0,0,0-1.78,1.1,7,7,0,0,1-1.75-7.63A7,7,0,0,1,19.88,9.32Z"/><path class="cls-9" d="M11,3a6.81,6.81,0,0,1,.23-1.77c-.26.07-.51.15-.76.24A7,7,0,0,0,12.22,9.1,2,2,0,0,1,14,8a2,2,0,0,1,.17-.8C13.76,7.39,11,5,11,3Z"/><path class="cls-4" d="M31.37,39.17a1.85,1.85,0,0,1-1.62.78c-1.08,0-1.28-.48-4.34-3.54C26.15,35.69,26,35,26,33a2,2,0,0,0-.59-1.41l3-3a2,2,0,0,1,3,.2A9,9,0,0,1,31.37,39.17Z"/><path class="cls-5" d="M31.37,37.17a2,2,0,0,1-3,.2L26,35a2,2,0,0,1-.59,1.41c3.06,3.06,3.26,3.52,4.34,3.54a1.85,1.85,0,0,0,1.62-.78,8.88,8.88,0,0,0,1.56-6.25A8.93,8.93,0,0,1,31.37,37.17Z"/><path class="cls-4" d="M22,35a2,2,0,0,0,.59,1.41l-3,3a2,2,0,0,1-3-.2,9,9,0,0,1,0-10.34,2,2,0,0,1,3-.2l3,3C21.85,32.31,22,33,22,35Z"/><path class="cls-5" d="M19.63,37.37a2,2,0,0,1-3-.2,8.93,8.93,0,0,1-1.56-4.25,8.9,8.9,0,0,0,1.56,6.25,1.85,1.85,0,0,0,1.62.78c1.08,0,1.28-.48,4.34-3.54A2,2,0,0,1,22,35Z"/><path class="cls-5" d="M28,35H26a1,1,0,0,1,0-2h2A1,1,0,0,1,28,35Z"/><path class="cls-5" d="M22,35H20a1,1,0,0,1,0-2h2A1,1,0,0,1,22,35Z"/><path class="cls-5" d="M26,33c0,2,.06,2.32-.18,2.82A2,2,0,0,1,22,35c0-1.75-.19-2.65.59-3.41A2,2,0,0,1,26,33Z"/><path class="cls-4" d="M26,33c0,2,.06,2.32-.18,2.82a2,2,0,0,1-2.23-.41C22.85,34.69,23,34,23,32a1.89,1.89,0,0,1,.18-.82A2,2,0,0,1,26,33Z"/></g></svg>