<svg xmlns="http://www.w3.org/2000/svg" viewBox="0 0 48 48"><defs><style>.cls-1{fill:#747575;}.cls-2{fill:#919191;}.cls-3{fill:#dad7e5;}.cls-4{fill:#edebf2;}.cls-5{fill:#edb996;}.cls-6{fill:#f6ccaf;}.cls-7{fill:#db5669;}.cls-8{fill:#f26674;}.cls-9{fill:#ffdec7;}.cls-10{fill:#be927c;}.cls-11{fill:#a87e6b;}.cls-12{fill:#c6c3d8;}.cls-13{fill:#7c7d7d;}.cls-14{fill:#9e9e9e;}</style></defs><title>Christian Groom</title><g id="Christian_Groom" data-name="Christian Groom"><path class="cls-1" d="M47,39.08V47H35l2-2-2-8,3-4-4.93-5.91,7.26,2.56A10,10,0,0,1,47,39.08Z"/><path class="cls-2" d="M35,37l2,8-2,2H27l6-19.95c.13.06-.34-.48,5,5.95Z"/><path class="cls-3" d="M33,27.05,30,37l-6-6,6-5Z"/><path class="cls-4" d="M33,27.05l-1.56,5.2a2,2,0,0,1-3.33.84l-3-3L30,26Z"/><path class="cls-5" d="M30,22.29V26l-6,5-6-5V22.29A8,8,0,0,0,30,22.29Z"/><path class="cls-6" d="M30,25.93c0,.1.48-.33-6,5.07-3.92-3.27-4-3.43-4-3.33A1.89,1.89,0,0,1,22.73,26,8.22,8.22,0,0,0,26,27,7.94,7.94,0,0,0,30,25.93Z"/><polygon class="cls-7" points="26 40 27 47 21 47 22 40 20 35 24 31 28 35 26 40"/><polygon class="cls-8" points="26 40 27 47 23 47 24 40 22 35 25 32 28 35 26 40"/><path class="cls-3" d="M24,31l-6,6-3-9.95L18,26Z"/><path class="cls-4" d="M22.91,30.09l-3,3a2,2,0,0,1-3.33-.84L15,27.05,18,26Z"/><path class="cls-2" d="M21,47H13l-2-2,2-8-3-4c5.05-6.05,4.84-5.82,4.94-5.92S14.65,25.82,21,47Z"/><path class="cls-1" d="M13,37l-2,8,2,2H1V39.08a10,10,0,0,1,6.67-9.43l7.26-2.56L10,33Z"/><path class="cls-9" d="M32,12c0,4.69.48,7.47-2,10.29a8,8,0,0,1-11.66.37C15.46,19.78,16,16.63,16,12A13.38,13.38,0,0,0,27,7,5,5,0,0,0,32,12Z"/><path class="cls-6" d="M20,21.29c-2.42-2.75-2-5.41-2-9.37A15.6,15.6,0,0,1,16,12c0,4.69-.48,7.47,2,10.29a8,8,0,0,0,10.51,1.3A8,8,0,0,1,20,21.29Z"/><path class="cls-9" d="M34,16H32V12h2a2,2,0,0,1,0,4Z"/><path class="cls-6" d="M14,16h2V12H14a2,2,0,0,0-2,2h0A2,2,0,0,0,14,16Z"/><path class="cls-10" d="M35,7v3a2,2,0,0,1-2,2H32a5,5,0,0,1-5-5,13.33,13.33,0,0,1-10.4,5H15a2,2,0,0,1-2-2V4a3,3,0,0,1,3-3H29a3,3,0,0,1,3,3A3,3,0,0,1,35,7Z"/><path class="cls-6" d="M32,12v1a5,5,0,0,1-5-5,13.38,13.38,0,0,1-11,5V12A13.38,13.38,0,0,0,27,7,5,5,0,0,0,32,12Z"/><path class="cls-11" d="M18,11a2,2,0,0,1-2-2c0-6.28-.25-6.86.78-8H16a3,3,0,0,0-3,3v6a2,2,0,0,0,2,2,14.76,14.76,0,0,0,7.31-1.29A18.15,18.15,0,0,1,18,11Z"/><polygon class="cls-12" points="30 37 27 47 26 40 28 35 30 37"/><polygon class="cls-12" points="22 40 21 47 18 37 20 35 22 40"/><path class="cls-13" d="M47,39.08V45H37l-2-8,3-4-4.93-5.91,7.26,2.56A10,10,0,0,1,47,39.08Z"/><path class="cls-13" d="M8,33l3,4L9.07,44.73A7,7,0,0,1,4,38V31.94c2-2,3.85-2.35,8.1-3.85Z"/><path class="cls-14" d="M35,37l2,8H33a4,4,0,0,1-3.84-5.15C33.37,25.78,32.93,27,33.07,27.09L38,33Z"/><path class="cls-14" d="M12.24,40,13,37l-3-4c5.05-6.05,4.84-5.82,4.94-5.92S14.67,25.88,20.4,45H16.12A4,4,0,0,1,12.24,40Z"/></g></svg>