<svg xmlns="http://www.w3.org/2000/svg" viewBox="0 0 48 48"><defs><style>.cls-1{fill:#7c7d7d;}.cls-2{fill:#dad7e5;}.cls-3{fill:#edebf2;}.cls-4{fill:#9fdbf3;}.cls-5{fill:#b2e5fb;}.cls-6{fill:#f26674;}.cls-7{fill:#db5669;}</style></defs><title>Drink Table</title><g id="Drink_Table" data-name="Drink Table"><path class="cls-1" d="M31,17c-1.91,0-1-4,2-4h2a1,1,0,0,1,0,2H33a1,1,0,0,0-1,1A1,1,0,0,1,31,17Z"/><rect class="cls-2" x="35" y="5" width="12" height="12"/><path class="cls-3" d="M47,5c0,11.62-.1,11,0,11A10,10,0,0,1,37,6V5Z"/><rect class="cls-4" x="36" y="6" width="10" height="10" rx="1"/><path class="cls-5" d="M46,7c0,8.55-.1,8,0,8a9,9,0,0,1-9-9h8A1,1,0,0,1,46,7Z"/><path class="cls-2" d="M47,5H35a4,4,0,0,1,1.17-2.83C37.67.7,39,1,43,1A4,4,0,0,1,47,5Z"/><path class="cls-3" d="M46.87,4H39.41a1.68,1.68,0,0,1-1.26-2.81C38.37,1,38.13,1,43,1A4,4,0,0,1,46.87,4Z"/><path class="cls-2" d="M47,17a4,4,0,0,1-1.28,2.93C44.23,21.3,43,21,39,21a4,4,0,0,1-4-4Z"/><path class="cls-3" d="M47,17a4,4,0,0,1-1.28,2.93C45.3,20,45.26,20,41,20a4,4,0,0,1-3.87-3Z"/><rect class="cls-2" x="35" y="21" width="12" height="4"/><path class="cls-3" d="M47,21v3H39a3,3,0,0,1-3-3Z"/><path class="cls-2" d="M9,19c-1,5.81-.77,4.67-1,6H4L3,19Z"/><path class="cls-3" d="M9,19l-.83,5a3.75,3.75,0,0,1-3.69-3.13L4.17,19Z"/><path class="cls-2" d="M19,19c-1,5.81-.77,4.67-1,6H14l-1-6Z"/><path class="cls-3" d="M19,19l-.83,5a3.75,3.75,0,0,1-3.69-3.13L14.17,19Z"/><path class="cls-2" d="M32,19c-1,5.81-.77,4.67-1,6H27l-1-6Z"/><path class="cls-3" d="M32,19l-.83,5a3.75,3.75,0,0,1-3.69-3.13L27.17,19Z"/><path class="cls-2" d="M47,30.31V47H1V30.31a6,6,0,0,0,9.5.65,6,6,0,0,0,9,0,6,6,0,0,0,9,0,6,6,0,0,0,9,0A6,6,0,0,0,47,30.31Z"/><path class="cls-6" d="M47,25v5.31a6,6,0,0,1-9.5.65,6,6,0,0,1-9,0,6,6,0,0,1-9,0,6,6,0,0,1-9,0A6,6,0,0,1,1,30.31V25Z"/><path class="cls-7" d="M4,28.12V25H1v5.31a5.84,5.84,0,0,0,6.44,2.48A4.79,4.79,0,0,1,4,28.12Z"/><path class="cls-3" d="M47,32.31V45H16.35A12.35,12.35,0,0,1,4.17,34.71,6,6,0,0,0,10.5,33a6,6,0,0,0,9,0,6,6,0,0,0,9,0,6,6,0,0,0,9,0A6,6,0,0,0,47,32.31Z"/></g></svg>