<svg xmlns="http://www.w3.org/2000/svg" viewBox="0 0 48 48"><defs><style>.cls-1{fill:#7c7d7d;}.cls-2{fill:#dad7e5;}.cls-3{fill:#f26674;}.cls-4{fill:#db5669;}.cls-5{fill:#edebf2;}.cls-6{fill:#919191;}</style></defs><title>Food Table</title><g id="Food_Table" data-name="Food Table"><path class="cls-1" d="M12,11V10a1,1,0,0,1,2,0v1A1,1,0,0,1,12,11Z"/><path class="cls-2" d="M47,30.31V47H1V30.31a6,6,0,0,0,9.5.65,6,6,0,0,0,9,0,6,6,0,0,0,9,0,6,6,0,0,0,9,0A6,6,0,0,0,47,30.31Z"/><path class="cls-3" d="M47,25v5.31a6,6,0,0,1-9.5.65,6,6,0,0,1-9,0,6,6,0,0,1-9,0,6,6,0,0,1-9,0A6,6,0,0,1,1,30.31V25Z"/><path class="cls-4" d="M4,28.12V25H1v5.31a5.84,5.84,0,0,0,6.44,2.48A4.79,4.79,0,0,1,4,28.12Z"/><path class="cls-2" d="M13,23a6,6,0,0,1-5.65-8h11.3A6,6,0,0,1,13,23Z"/><path class="cls-5" d="M16.63,21.77A6,6,0,0,1,9.09,15h9.56A6,6,0,0,1,16.63,21.77Z"/><path class="cls-2" d="M18.65,15H7.35A6,6,0,0,1,18.65,15Z"/><path class="cls-5" d="M18.19,14H9.35a6,6,0,0,1,2-2.77A6,6,0,0,1,18.19,14Z"/><path class="cls-1" d="M19,24V20H7v4a1,1,0,0,1-2,0V19a1,1,0,0,1,1-1H20a1,1,0,0,1,1,1v5A1,1,0,0,1,19,24Z"/><path class="cls-6" d="M20,18H6a1,1,0,0,0-1,1H19a1,1,0,0,1,1,1v5a1,1,0,0,0,1-1V19A1,1,0,0,0,20,18Z"/><path class="cls-2" d="M35,23a6,6,0,0,1-5.65-8h11.3A6,6,0,0,1,35,23Z"/><path class="cls-5" d="M38.63,21.77A6,6,0,0,1,31.09,15h9.56A6,6,0,0,1,38.63,21.77Z"/><path class="cls-1" d="M41,24V20H29v4a1,1,0,0,1-2,0V19a1,1,0,0,1,1-1H42a1,1,0,0,1,1,1v5A1,1,0,0,1,41,24Z"/><path class="cls-6" d="M42,18H28a1,1,0,0,0-1,1H41a1,1,0,0,1,1,1v5a1,1,0,0,0,1-1V19A1,1,0,0,0,42,18Z"/><path class="cls-2" d="M34,12V11a1,1,0,0,0-1-1H31a3,3,0,0,1,0-6h5a1,1,0,0,0,1-1V2a1,1,0,0,1,2,0V3a3,3,0,0,1-3,3H31a1,1,0,0,0,0,2h2a3,3,0,0,1,3,3v1A1,1,0,0,1,34,12Z"/><path class="cls-5" d="M47,32.31V45H16.35A12.35,12.35,0,0,1,4.17,34.71,6,6,0,0,0,10.5,33a6,6,0,0,0,9,0,6,6,0,0,0,9,0,6,6,0,0,0,9,0A6,6,0,0,0,47,32.31Z"/></g></svg>