<svg xmlns="http://www.w3.org/2000/svg" viewBox="0 0 48 48"><defs><style>.cls-1{fill:#dad7e5;}.cls-2{fill:#edebf2;}.cls-3{fill:#f6ccaf;}.cls-4{fill:#edb996;}.cls-5{fill:#6fabe6;}.cls-6{fill:#82bcf4;}</style></defs><title>Food Serving</title><g id="Food_Serving" data-name="Food Serving"><path class="cls-1" d="M39,25a2,2,0,0,1-2,2H5a2,2,0,0,1,0-4H37A2,2,0,0,1,39,25Z"/><path class="cls-2" d="M39,25H7a2,2,0,0,1-2-2H37A2,2,0,0,1,39,25Z"/><path class="cls-1" d="M39,23H3a18,18,0,0,1,36,0Z"/><path class="cls-2" d="M38.89,21H10.58A4,4,0,0,1,6.7,16a17.92,17.92,0,0,1,5.86-8.88A18,18,0,0,1,38.89,21Z"/><path class="cls-1" d="M25,5c0,1,.16,0-4,0s-4,1-4,0a4,4,0,0,1,8,0Z"/><path class="cls-2" d="M24.89,4.1a17.46,17.46,0,0,0-3.23,0,1.74,1.74,0,0,1-1.38-3A4,4,0,0,1,24.89,4.1Z"/><path class="cls-3" d="M45.65,26.23a3.09,3.09,0,0,0-3.87.49l-8.53,8A3,3,0,0,0,30.35,31C18.12,31,18,30.9,16,31.34a14.11,14.11,0,0,0-5,2.14V45H28.67a8,8,0,0,0,5.65-2.34l11.8-11.8A3,3,0,0,0,45.65,26.23Z"/><path class="cls-4" d="M46,26.51a2.9,2.9,0,0,1-.85,2.35l-11.8,11.8A8,8,0,0,1,27.67,43H11v2H28.67a8,8,0,0,0,5.65-2.34C47.32,29.66,47,30.41,47,28.74A3,3,0,0,0,46,26.51Z"/><path class="cls-4" d="M32.78,32.26a1.94,1.94,0,0,0-.45-.5C32.41,32.87,31.9,33.09,32.78,32.26Z"/><path class="cls-4" d="M30.35,37H21.6a1,1,0,0,1,0-2h8.75a2,2,0,1,0,0-4,3,3,0,0,1,2.19,1A3,3,0,0,1,30.35,37Z"/><rect class="cls-5" x="1" y="30" width="10" height="17"/><path class="cls-6" d="M11,30c0,15.75-.1,15,0,15a7,7,0,0,1-7-7V30Z"/></g></svg>