<svg xmlns="http://www.w3.org/2000/svg" viewBox="0 0 48 48"><defs><style>.cls-1{fill:#ffba55;}.cls-2{fill:#cc734c;}.cls-3{fill:#df8761;}.cls-4{fill:#374f68;}.cls-5{fill:#425b72;}.cls-6{fill:#fc6;}.cls-7{fill:#ffde76;}.cls-8{fill:#db5669;}.cls-9{fill:#f26674;}</style></defs><title>Gramophone on love</title><g id="Gramophone_on_love" data-name="Gramophone on love"><path class="cls-1" d="M7,39H2a1,1,0,0,1-1-1V16a1,1,0,0,1,2,0V37H7A1,1,0,0,1,7,39Z"/><path class="cls-1" d="M12,29V24a1,1,0,0,1,2,0v5A1,1,0,0,1,12,29Z"/><path class="cls-1" d="M23,29V27a1,1,0,0,1,2,0v2A1,1,0,0,1,23,29Z"/><rect class="cls-2" x="6" y="33" width="36" height="10"/><path class="cls-3" d="M42,33v8H17a8,8,0,0,1-8-8Z"/><path class="cls-2" d="M44,45a2,2,0,0,1-2,2H6a2,2,0,0,1,0-4H42A2,2,0,0,1,44,45Z"/><path class="cls-3" d="M44,45H8a2,2,0,0,1-2-2H42A2,2,0,0,1,44,45Z"/><path class="cls-4" d="M40,31a2,2,0,0,1-2,2H10a2,2,0,0,1,0-4H38A2,2,0,0,1,40,31Z"/><path class="cls-5" d="M40,31H12a2,2,0,0,1-2-2H38A2,2,0,0,1,40,31Z"/><path class="cls-1" d="M16,21a3,3,0,1,1-4.55-2.57A3,3,0,0,1,16,21Z"/><path class="cls-6" d="M15.56,22.56a3,3,0,0,1-4.11-4.13A3,3,0,0,1,15.56,22.56Z"/><path class="cls-7" d="M33,1V23c-10.63-6.84-13.18-9-25.5-9a2.51,2.51,0,0,0-1.77,4.27c.95.95,1.77.73,5,.73a3,3,0,0,0,0,4H7.5a6.5,6.5,0,0,1,0-13C20.28,10,23,7.44,33,1Z"/><path class="cls-6" d="M8.5,21a6.5,6.5,0,0,1-6.23-8.35A6.5,6.5,0,0,0,7.5,23h3.27A3,3,0,0,1,10,21Z"/><path class="cls-6" d="M8.5,12A2.5,2.5,0,0,0,6,14.51c.88-.66,1.48-.51,4.19-.51C20.5,14,26.27,18.67,33,23V20.36C23,13.94,20.29,12,8.5,12Z"/><path class="cls-8" d="M47,12.23c0,1.66-.83,2.07-5,6.24-4.2-4.2-5-4.6-5-6.24a3,3,0,0,1,3-3A3.08,3.08,0,0,1,42,10a3.08,3.08,0,0,1,2-.77A3,3,0,0,1,47,12.23Z"/><path class="cls-9" d="M47,12.23c0,1.56-.76,2-3.5,4.74C40,13.42,39,12.88,39,11.23a3,3,0,0,1,.76-2,1,1,0,0,1,.24,0A3.08,3.08,0,0,1,42,10a3.08,3.08,0,0,1,2-.77A3,3,0,0,1,47,12.23Z"/><path class="cls-8" d="M38,5c-.53,0-.67-.26-1.71-1.29a1,1,0,0,1,1.42-1.42l.29.3.29-.3a1,1,0,0,1,1.42,1.42C38.65,4.77,38.52,5,38,5Z"/><path class="cls-8" d="M45,25c-.53,0-.67-.26-1.71-1.29a1,1,0,0,1,1.42-1.42l.29.3.29-.3a1,1,0,0,1,1.42,1.42C45.65,24.77,45.52,25,45,25Z"/><path class="cls-4" d="M28,39H20a1,1,0,0,1,0-2h8A1,1,0,0,1,28,39Z"/></g></svg>