<svg xmlns="http://www.w3.org/2000/svg" viewBox="0 0 48 48"><defs><style>.cls-1{fill:#dad7e5;}.cls-2{fill:#edb996;}.cls-3{fill:#f6ccaf;}.cls-4{fill:#6fabe6;}.cls-5{fill:#82bcf4;}.cls-6{fill:#de4a8c;}.cls-7{fill:#ffdec7;}.cls-8{fill:#be927c;}.cls-9{fill:#a87e6b;}.cls-10{fill:#db5669;}.cls-11{fill:#edebf2;}.cls-12{fill:#f26674;}.cls-13{fill:#f26da6;}</style></defs><title>Guests</title><g id="Guests"><path class="cls-1" d="M24,29l-3.54,4.42-3-6.35L20,26Z"/><polygon class="cls-1" points="30.5 27.07 27.54 33.42 24 29 28 26 30.5 27.07"/><path class="cls-2" d="M28,22.46V26l-4,3-4-3V22.46A6,6,0,0,0,28,22.46Z"/><path class="cls-3" d="M28,25.19V26l-4,3-3-2.25v-.43a1,1,0,0,1,1.41-.91A6,6,0,0,0,28,25.19Z"/><path class="cls-3" d="M30,14.73c0,2.9.45,6.08-2.38,8A6,6,0,0,1,20,22.46c-2.4-2.12-2-4.56-2-7.73.61.36.95.27,3.34.27a4,4,0,0,0,2.81-1.16C25.63,14.93,26.08,15,26.94,15,29.07,15,29.41,15.08,30,14.73Z"/><path class="cls-4" d="M35,32.3V41H24c1.16-2.49,2.5-5.34,6.5-13.93L32,27.7A5,5,0,0,1,35,32.3Z"/><path class="cls-4" d="M24,41H13V32.3a5,5,0,0,1,3-4.58l0,0,1.47-.63C23.72,40.42,21.71,36.07,24,41Z"/><path class="cls-5" d="M35,32.3V39H24.93c3.29-7,2-4.31,5.57-11.93L32,27.7A5,5,0,0,1,35,32.3Z"/><path class="cls-6" d="M13,34.08V41H1V34.08a3.47,3.47,0,0,1,2-1c2-.33,3,1,4,2l1-1A3.52,3.52,0,0,1,13,34.08Z"/><path class="cls-3" d="M14,29.29c-1.17,1.58-1,2.94-1,4.79A3.52,3.52,0,0,0,10.46,33C8.78,33,8,34,7,35c-1-1-1.78-2-3.46-2A3.55,3.55,0,0,0,1,34.08V28.86L3,28V24.46a6,6,0,0,0,8,0V28Z"/><path class="cls-3" d="M13,17c0,3.23.39,5.64-2.39,7.78A6,6,0,0,1,3,24.46C.65,22.38,1,20,1,17c3.17,0,4.79.24,6.84-1.08A10,10,0,0,0,13,17Z"/><path class="cls-7" d="M13,17c0,1.73.05.74-.09,0Z"/><path class="cls-7" d="M13,18c0,2.6.21,4.78-2.39,6.78A6,6,0,0,1,3,19V18a7.68,7.68,0,0,0,4.84-1.08A10,10,0,0,0,13,18Z"/><path class="cls-8" d="M31,11c0,1.68.27,3-1,3.73-.66.39-1.23.27-3.06.27a3.58,3.58,0,0,1-2.26-.77l-.53-.39A4,4,0,0,1,21.34,15c-2.39,0-2.73.09-3.34-.27C16.67,14,17,12.81,17,9a2,2,0,0,1,2-2h8a2,2,0,0,1,2,2A2,2,0,0,1,31,11Z"/><path class="cls-9" d="M23.34,14c-2.39,0-2.73.09-3.34-.27C18.67,13,19,11.81,19,8c0-1.08.63-1,0-1a2,2,0,0,0-2,2v4a2,2,0,0,0,2,2c2.14,0,3.62.25,5-1.07A4.05,4.05,0,0,1,23.34,14Z"/><path class="cls-10" d="M27.54,33.42,24,41l-3.54-7.58L24,29Z"/><polygon class="cls-11" points="30.5 27.07 27.54 33.42 24 29 28 26 30.5 27.07"/><polygon class="cls-12" points="27.54 33.42 24.63 39.66 21.22 32.47 24 29 27.54 33.42"/><path class="cls-11" d="M24,29l-2.78,3.47L18.5,26.64,20,26Z"/><path class="cls-8" d="M13,17a9.8,9.8,0,0,1-5.16-1.08C5.8,17.23,4.26,17,1,17a6,6,0,0,1,12,0Z"/><path class="cls-9" d="M8,11.09A6,6,0,0,0,1,17H3A6,6,0,0,1,8,11.09Z"/><path class="cls-9" d="M9,9v2.35a5.85,5.85,0,0,0-4,0V9A2,2,0,0,1,9,9Z"/><path class="cls-8" d="M9,9v1.09A5.55,5.55,0,0,0,8,10,2,2,0,0,1,6.18,7.18,2,2,0,0,1,9,9Z"/><path class="cls-10" d="M47,34.08V41H35c0-7.26-.06-6.86,0-7a3.56,3.56,0,0,1,2.5-1C39.22,33,40,34,41,35c1-1,1.78-2,3.46-2A3.49,3.49,0,0,1,47,34.08Z"/><path class="cls-3" d="M47,28.86v5.22A3.49,3.49,0,0,0,44.46,33C42.78,33,42,34,41,35c-1-1-1.78-2-3.46-2A3.6,3.6,0,0,0,35,34.08c0-1.87.17-3.21-1-4.79L37,28V24.46a6,6,0,0,0,8,0V28Z"/><path class="cls-3" d="M47,17c0,3,.35,5.38-2,7.46a6,6,0,0,1-8.24-.22C34.66,22.16,35,20,35,17a9.85,9.85,0,0,0,5.16-1.08C42.2,17.23,43.74,17,47,17Z"/><path class="cls-7" d="M47,17c0,1.84,0,.71-.09,0Z"/><path class="cls-7" d="M47,18c0,2.59.21,4.78-2.39,6.78A6,6,0,0,1,39,23.46c-2-1.74-2-3.76-2-5.54a9.74,9.74,0,0,0,3.16-1C42.2,18.23,43.74,18,47,18Z"/><path class="cls-8" d="M35,17a9.8,9.8,0,0,0,5.16-1.08C42.2,17.23,43.74,17,47,17a6,6,0,0,0-12,0Z"/><path class="cls-9" d="M42,11.09A6,6,0,0,0,35,17a12,12,0,0,0,2-.09A6,6,0,0,1,42,11.09Z"/><path class="cls-9" d="M43,9v2.35a5.85,5.85,0,0,0-4,0V9a2,2,0,0,1,4,0Z"/><path class="cls-8" d="M43,9.16v.93A5.55,5.55,0,0,0,42,10a2,2,0,0,1-1.82-2.82A2,2,0,0,1,43,9.16Z"/><path class="cls-5" d="M23.07,39A7.08,7.08,0,0,1,16,31.93V27.75c.07-.1-.08,0,1.5-.68C23.49,39.93,23,39,23.07,39Z"/><path class="cls-7" d="M30,15.73c0,2.45.27,5.21-2.38,7A6,6,0,0,1,20,17V16c1.57,0,2.86.13,4.15-1.16C25.63,15.93,26.08,16,26.94,16,29.07,16,29.41,16.08,30,15.73Z"/><path class="cls-12" d="M47,34.08V39H43a6,6,0,0,1-6-6c1.83-.43,3.11,1.06,4,2l1-1A3.52,3.52,0,0,1,47,34.08Z"/><path class="cls-7" d="M47,28.86v5.22A3.49,3.49,0,0,0,44.46,33C42.78,33,42,34,41,35c-1.13-1.13-2-2.27-4-2a2,2,0,0,1-1-1.69V28.43L37,28V26.19A5.88,5.88,0,0,0,40,27c2.88,0,4.24-1.86,5-2.54V28Z"/><path class="cls-13" d="M13,34.08V39H9a6,6,0,0,1-6-6c2-.33,3,1,4,2l1-1A3.52,3.52,0,0,1,13,34.08Z"/><path class="cls-7" d="M14,29.29c-1.17,1.58-1,2.94-1,4.79A3.52,3.52,0,0,0,10.46,33C8.78,33,8,34,7,35c-1.13-1.13-2-2.27-4-2a2,2,0,0,1-1-1.69V28.43L3,28V26.19A5.88,5.88,0,0,0,6,27c5.62,0,5-6.19,5,1Z"/></g></svg>