<svg xmlns="http://www.w3.org/2000/svg" viewBox="0 0 48 48"><defs><style>.cls-1{fill:#ffdec7;}.cls-2{fill:#f6ccaf;}.cls-3{fill:#edb996;}.cls-4{fill:#374f68;}.cls-5{fill:#425b72;}.cls-6{fill:#dad7e5;}.cls-7{fill:#edebf2;}.cls-8{fill:#db5669;}.cls-9{fill:#f26674;}</style></defs><title>Ijab Qobul</title><g id="Ijab_Qobul" data-name="Ijab Qobul"><path class="cls-1" d="M33,36c2,2-1.08,4.92-3,3C32,41,29,44,27,42a2.09,2.09,0,1,1-3,2.91L23,43.8c1.3-1.2,2.09-1.68,2.09-2.86a2.12,2.12,0,0,0-3.56-1.56,2.12,2.12,0,0,0-3-3,2.12,2.12,0,0,0-3-3,2.12,2.12,0,0,0-3-3L9.66,33H5V17H18.18A3,3,0,0,0,21,21h3L36,33C38,35,35,38,33,36Z"/><path class="cls-2" d="M11.83,31,9.66,33H5V17H7v9.17A4.83,4.83,0,0,0,11.83,31Z"/><path class="cls-2" d="M41,17V33H36L24,21H21a3,3,0,0,1,0-6c8,0,8.69-.31,10,1S33,17,41,17Z"/><path class="cls-2" d="M36.57,34C34.46,34,34.8,33.8,23,22H20.16a3,3,0,0,1-2.39-5h.41a3,3,0,0,0,3,4H24C37,34,36.39,33.21,36.57,34Z"/><path class="cls-3" d="M34.17,28.17l-7-7A7.24,7.24,0,0,0,22,19a3,3,0,0,1-3-3c0-.22.09-.33-.12-.12A3,3,0,0,0,21.16,21H24L36,33h5V31A9.66,9.66,0,0,1,34.17,28.17Z"/><rect class="cls-4" x="41" y="14" width="6" height="22"/><path class="cls-5" d="M47,14c0,20.82-.1,20,0,20a4,4,0,0,1-4-4V14Z"/><rect class="cls-6" x="1" y="14" width="4" height="22"/><path class="cls-7" d="M5,14c0,20.82-.1,20,0,20a2,2,0,0,1-2-2V14Z"/><path class="cls-2" d="M33,36a2.1,2.1,0,0,1,0,3c-.44.44-1.26.7-1.36.6a1.14,1.14,0,0,0,1-1.12c0-.61-.07-.53-3.34-3.79a1,1,0,0,1,1.42-1.42c3.38,3.39,3,3,3.23,3.26A1.92,1.92,0,0,1,33,36Z"/><path class="cls-2" d="M30,39a2.1,2.1,0,0,1,0,3c-.44.44-1.26.7-1.36.6a1.14,1.14,0,0,0,1-1.12c0-.61-.07-.53-3.34-3.79a1,1,0,0,1,1.42-1.42c3.38,3.39,3,3,3.23,3.26A1.92,1.92,0,0,1,30,39Z"/><path class="cls-2" d="M27,42a2.1,2.1,0,0,1,0,3c-.44.44-1.26.7-1.36.6a1.14,1.14,0,0,0,1-1.12c0-.61-.07-.53-3.34-3.79a1,1,0,0,1,1.42-1.42c3.38,3.39,3,3,3.23,3.26A1.92,1.92,0,0,1,27,42Z"/><path class="cls-8" d="M29,4.23c0,1.66-.83,2.07-5,6.24-4.2-4.2-5-4.6-5-6.24a3,3,0,0,1,3-3A3.12,3.12,0,0,1,24,2,3,3,0,0,1,29,4.23Z"/><path class="cls-9" d="M29,4.23c0,1.56-.76,2-3.5,4.74C22,5.42,21,4.88,21,3.23a3,3,0,0,1,.76-2,1,1,0,0,1,.24,0A3.12,3.12,0,0,1,24,2,3,3,0,0,1,29,4.23Z"/><path class="cls-8" d="M35,13c-.53,0-.67-.26-1.71-1.29a1,1,0,0,1,1.42-1.42l.29.3.29-.3a1,1,0,0,1,1.42,1.42C35.65,12.77,35.52,13,35,13Z"/><path class="cls-8" d="M12,4c-.53,0-.67-.26-1.71-1.29a1,1,0,0,1,1.42-1.42l.29.3.29-.3a1,1,0,0,1,1.42,1.42C12.65,3.77,12.52,4,12,4Z"/><path class="cls-3" d="M16.06,31.94c0,1.21-.56,1.44-3.94,4.56a2.12,2.12,0,0,1-3.61-2c.18-.77.22-.69,4-4.17A2.12,2.12,0,0,1,16.06,31.94Z"/><path class="cls-2" d="M16,31.44c-.17.81-.4.86-3.87,4.06a2.13,2.13,0,0,1-3.06.06c-1.3-1.3-.3-1.73,3.44-5.18A2.12,2.12,0,0,1,16,31.44Z"/><path class="cls-3" d="M19.06,34.94c0,1.21-.56,1.44-3.94,4.56a2.12,2.12,0,1,1-3-3l3.38-3.12A2.12,2.12,0,0,1,19.06,34.94Z"/><path class="cls-2" d="M19,34.44c-.17.81-.4.86-3.87,4.06a2.13,2.13,0,0,1-3.06.06c-1.34-1.34-.14-1.88,3.44-5.18A2.12,2.12,0,0,1,19,34.44Z"/><path class="cls-3" d="M22.06,37.94c0,1.21-.56,1.44-3.94,4.56a2.12,2.12,0,1,1-3-3l3.38-3.12A2.12,2.12,0,0,1,22.06,37.94Z"/><path class="cls-2" d="M22,37.44c-.17.81-.4.86-3.87,4.06a2.13,2.13,0,0,1-3.06.06c-1.34-1.34-.14-1.88,3.44-5.18A2.12,2.12,0,0,1,22,37.44Z"/><path class="cls-3" d="M25.06,40.94c0,1.24-.61,1.49-4.06,4.68a2.12,2.12,0,0,1-3.49-2.06c.18-.86.58-1,4-4.18A2.12,2.12,0,0,1,25.06,40.94Z"/><path class="cls-2" d="M25,40.46c-.18.79-.32.77-4,4.16a2.12,2.12,0,0,1-3.49-1.06c.18-.87.62-1.07,4-4.18A2.11,2.11,0,0,1,25,40.46Z"/></g></svg>