<svg xmlns="http://www.w3.org/2000/svg" viewBox="0 0 48 48"><defs><style>.cls-1{fill:#7c7d7d;}.cls-2{fill:#db5669;}.cls-3{fill:#dad7e5;}.cls-4{fill:#edebf2;}.cls-5{fill:#c6c3d8;}.cls-6{fill:#ffde76;}.cls-7{fill:#fc6;}.cls-8{fill:#ffba55;}</style></defs><title>Mosque in Love</title><g id="Mosque_in_Love" data-name="Mosque in Love"><path class="cls-1" d="M4,15V13a1,1,0,0,1,2,0v2A1,1,0,0,1,4,15Z"/><path class="cls-1" d="M42,15V13a1,1,0,0,1,2,0v2A1,1,0,0,1,42,15Z"/><path class="cls-2" d="M36,11c-.53,0-.67-.26-1.71-1.29a1,1,0,0,1,1.42-1.42l.29.3.29-.3a1,1,0,0,1,1.42,1.42C36.65,10.77,36.52,11,36,11Z"/><path class="cls-2" d="M31,4c-.53,0-.67-.26-1.71-1.29a1,1,0,0,1,1.42-1.42l.29.3.29-.3a1,1,0,0,1,1.42,1.42C31.65,3.77,31.52,4,31,4Z"/><path class="cls-2" d="M43,5c-.53,0-.67-.26-1.71-1.29a1,1,0,0,1,1.42-1.42l.29.3.29-.3a1,1,0,0,1,1.42,1.42C43.65,4.77,43.52,5,43,5Z"/><path class="cls-2" d="M12,11c-.53,0-.67-.26-1.71-1.29a1,1,0,0,1,1.42-1.42l.29.3.29-.3a1,1,0,0,1,1.42,1.42C12.65,10.77,12.52,11,12,11Z"/><path class="cls-2" d="M17,4c-.53,0-.67-.26-1.71-1.29a1,1,0,0,1,1.42-1.42l.29.3.29-.3a1,1,0,0,1,1.42,1.42C17.65,3.77,17.52,4,17,4Z"/><path class="cls-2" d="M5,5c-.53,0-.67-.26-1.71-1.29A1,1,0,0,1,4.71,2.29l.29.3.29-.3A1,1,0,0,1,6.71,3.71C5.65,4.77,5.52,5,5,5Z"/><rect class="cls-3" x="8" y="31" width="32" height="16"/><path class="cls-4" d="M40,31V45H25A14,14,0,0,1,11,31Z"/><rect class="cls-5" x="12" y="27" width="24" height="4"/><path class="cls-3" d="M36,27v2H16a2,2,0,0,1-2-2Z"/><path class="cls-6" d="M24,9c2.11,3.17,3.52,5.88,7.75,6.94h0c4,1,4.5,5.44,4.25,5.44A5.61,5.61,0,0,1,30.38,27H17.62A5.61,5.61,0,0,1,12,21.38h0a5.6,5.6,0,0,1,4.25-5.44h0C20.62,14.84,22.15,11.77,24,9Z"/><path class="cls-7" d="M33.38,25H20.91a5.65,5.65,0,0,1-4.75-9A5.61,5.61,0,0,0,12,22a5.78,5.78,0,0,0,5.81,5H30.38a5.58,5.58,0,0,0,4.45-2.2A5.29,5.29,0,0,1,33.38,25Z"/><rect class="cls-3" x="2" y="21" width="6" height="26"/><path class="cls-4" d="M8,21c0,24.83-.1,24,0,24a4,4,0,0,1-4-4V21Z"/><path class="cls-7" d="M9,19v2H1V19a4,4,0,0,1,8,0Z"/><path class="cls-6" d="M9,19H5c-1.57,0-2.58-1.61-1.64-3.64A4,4,0,0,1,9,19Z"/><rect class="cls-3" x="40" y="21" width="6" height="26"/><path class="cls-4" d="M46,21c0,24.83-.1,24,0,24a4,4,0,0,1-4-4V21Z"/><path class="cls-7" d="M47,19v2H39V19a4,4,0,0,1,8,0Z"/><path class="cls-6" d="M47,19H43c-1.57,0-2.58-1.61-1.64-3.64A4,4,0,0,1,47,19Z"/><path class="cls-8" d="M20,40v7H14c0-7.32-.05-7.25.13-7.87A3,3,0,0,1,20,40Z"/><path class="cls-7" d="M18,42v5H14c0-7.32-.05-7.25.13-7.87A3,3,0,0,1,18,42Z"/><path class="cls-8" d="M34,40v7H28c0-7.32-.05-7.25.13-7.87A3,3,0,0,1,34,40Z"/><path class="cls-7" d="M32,42v5H28c0-7.32-.05-7.25.13-7.87A3,3,0,0,1,32,42Z"/></g></svg>