<svg xmlns="http://www.w3.org/2000/svg" viewBox="0 0 48 48"><defs><style>.cls-1{fill:#374f68;}.cls-2{fill:#a87e6b;}.cls-3{fill:#ffdec7;}.cls-4{fill:#f6ccaf;}.cls-5{fill:#edebf2;}.cls-6{fill:#dad7e5;}.cls-7{fill:#6fabe6;}.cls-8{fill:#edb996;}.cls-9{fill:#f29b75;}.cls-10{fill:#df8761;}.cls-11{fill:#425b72;}.cls-12{fill:#cc734c;}.cls-13{fill:#f26674;}.cls-14{fill:#db5669;}.cls-15{fill:#82bcf4;}</style></defs><title>Musician</title><g id="Musician"><path class="cls-1" d="M42,4H40a1,1,0,0,1,0-2h2A1,1,0,0,1,42,4Z"/><path class="cls-1" d="M36,7H34a1,1,0,0,1,0-2h2A1,1,0,0,1,36,7Z"/><path class="cls-2" d="M24,9v2a2,2,0,0,1-2,2c-2.53,0-4.81.39-6-2-1.19,2.39-3.49,2-6,2a2,2,0,0,1-2-2V7a2,2,0,0,1,2-2h9a2,2,0,0,1,2,2h1A2,2,0,0,1,24,9Z"/><path class="cls-3" d="M22,13c0,3,.35,5.38-2,7.46A6,6,0,0,1,10,16V13c2.54,0,4.81.39,6-2C17.26,13.4,19.37,13,22,13Z"/><path class="cls-4" d="M18,21a6,6,0,0,1-6-6V13H10c0,3-.35,5.38,2,7.46a6,6,0,0,0,7.61.32A9,9,0,0,1,18,21Z"/><path class="cls-4" d="M22,13v1c-2.53,0-4.81.39-6-2-1.19,2.39-3.49,2-6,2V13c2.53,0,4.8.4,6-2C17.26,13.41,19.41,13,22,13Z"/><path class="cls-5" d="M16,28,9,32V24.36L12,23Z"/><path class="cls-6" d="M23,32V47H19c-.73-2.65-.15-.52-3-11l3.86-5.79Z"/><path class="cls-6" d="M16,36c-2.85,10.48-2.27,8.34-3,11H9V32l3.14-1.79Z"/><path class="cls-5" d="M16,36l-2.45,9a2.49,2.49,0,0,1-1.8-.75c-1-1-.75-1-.75-11.39l2.11-1.2Z"/><path class="cls-5" d="M23,34V45H18.45L16,36l2.9-4.34Z"/><path class="cls-7" d="M9,24.36V47H1V31.86a6,6,0,0,1,3-5.19C4.36,26.46,4.1,26.59,9,24.36Z"/><path class="cls-8" d="M20,20.46c0,2.95.09,2.43-.27,2.88L16,28l-4-5V20.46A6,6,0,0,0,20,20.46Z"/><path class="cls-4" d="M19.73,23.34,16,28l-3-3.75V22.46A6,6,0,0,0,19.73,23.34Z"/><path class="cls-5" d="M23,24.36V32l-7-4,4-5Z"/><path class="cls-7" d="M32,33v2a2,2,0,0,1-2,2H29c0,2.49-.19,4.79,2,7.29V47H23V24.36l6.42,2.92A10.71,10.71,0,0,0,29,31h1A2,2,0,0,1,32,33Z"/><path class="cls-9" d="M44,33v2a2,2,0,0,0,2,2h1v2a8,8,0,0,1-8,8H37a8,8,0,0,1-8-8V37h1a2,2,0,0,0,2-2V33a2,2,0,0,0-2-2H29a10.65,10.65,0,0,1,.42-3.72A9,9,0,0,1,36,21.22V33h4V21.22A9,9,0,0,1,47,30v1H46A2,2,0,0,0,44,33Z"/><path class="cls-10" d="M32.76,22.68c-2.07,2.86-1.76,5-1.76,8.59A3.54,3.54,0,0,0,29,31V30A9,9,0,0,1,32.76,22.68Z"/><path class="cls-10" d="M41,45c-2.54,0-5.42.22-8-2.71a8,8,0,0,1-2-5.57A3.45,3.45,0,0,1,29,37c0,2.49-.19,4.79,2,7.29C33.58,47.23,36.56,47,39,47a8,8,0,0,0,6.57-3.43A8,8,0,0,1,41,45Z"/><rect class="cls-1" x="36" y="9" width="4" height="24"/><path class="cls-11" d="M40,9c0,23.28-.1,22,0,22a3,3,0,0,1-3-3V9Z"/><path class="cls-12" d="M43,43c-.48,0-.68-.26-1.12-.71A3,3,0,0,1,41,40a1,1,0,0,0-1-1,1,1,0,0,1-1-1c0-1.91,4-1,4,2,0,.67.15.73.71,1.29A1,1,0,0,1,43,43Z"/><path class="cls-12" d="M33,43a1,1,0,0,1-.71-1.71c.45-.45.71-.63.71-1.12A3,3,0,0,1,36,37a1,1,0,0,1,0,2c-.1,0-1,0-1,1.17a3,3,0,0,1-.88,2.12C33.66,42.75,33.49,43,33,43Z"/><path class="cls-10" d="M41,9H35l.75-6a2.27,2.27,0,0,1,4.5,0C41,8.86,40.84,7.67,41,9Z"/><path class="cls-9" d="M40.88,8A4.31,4.31,0,0,1,36.6,3.16,5.6,5.6,0,0,1,37,1.26a2.26,2.26,0,0,1,3.29,1.83Z"/><path class="cls-13" d="M19,47H13l2.51-11.73-3.37-5.06c4.29-2.46,3.8-2.24,4-2.14l3.73,2.14-3.37,5.06C17.38,39.43,18.56,44.92,19,47Z"/><path class="cls-14" d="M18.58,45A3.69,3.69,0,0,1,15,40.53c1.65-7.74,1.86-6.79-1.13-11.29l-1.69,1,3.37,5.06L13,47h6C18.75,45.8,18.85,46.26,18.58,45Z"/><path class="cls-15" d="M32,33v2a2,2,0,0,1-2,2H29c0,2.49-.19,4.79,2,7.29V45H23V24.36l6.42,2.92A10.71,10.71,0,0,0,29,31h1A2,2,0,0,1,32,33Z"/><path class="cls-15" d="M9,24.36C9,46.2,8.9,45,9,45a5,5,0,0,1-5-5V26.67C4.06,26.57,3.68,26.78,9,24.36Z"/></g></svg>