<svg xmlns="http://www.w3.org/2000/svg" viewBox="0 0 48 48"><defs><style>.cls-1{fill:#ffba55;}.cls-2{fill:#fc6;}.cls-3{fill:#dad7e5;}.cls-4{fill:#edebf2;}.cls-5{fill:#c6c3d8;}.cls-6{fill:#f6ccaf;}.cls-7{fill:#ffdec7;}</style></defs><title>Muslim Bride</title><g id="Muslim_Bride" data-name="Muslim Bride"><path class="cls-1" d="M31.34,6.39a5.92,5.92,0,0,1-.89,2.7,11,11,0,0,0-12.9,0l-.44-.9a3.89,3.89,0,0,1,.21-4C18.25,2.93,19.08,2.85,24,1l4.87,1.83A3.71,3.71,0,0,1,31.34,6.39Z"/><path class="cls-2" d="M31.34,6.39a11,11,0,0,0-9.16-.71,2.4,2.4,0,0,1-3.31-2.57C19.23,2.72,18.57,3,24,1c4.83,1.82,5.75,1.92,6.68,3.21A3.64,3.64,0,0,1,31.34,6.39Z"/><path class="cls-3" d="M45,44.79V47H3c0-2.93-.15-5.11,1.56-8.12A11.87,11.87,0,0,1,8.83,34.5,8.58,8.58,0,0,0,13,27.13V18a11,11,0,0,1,22,0c0,9.32-.36,10.74,1.11,13.37a8.65,8.65,0,0,0,3.06,3.13A12,12,0,0,1,45,44.79Z"/><path class="cls-4" d="M45,44.79V47H8.21A2.21,2.21,0,0,1,6,44.79a12,12,0,0,1,5.73-10.23A8.58,8.58,0,0,0,16,27.28V18A11,11,0,0,1,25.47,7.11,11,11,0,0,1,35,18c0,9.32-.36,10.74,1.11,13.37a8.65,8.65,0,0,0,3.06,3.13A12,12,0,0,1,45,44.79Z"/><path class="cls-5" d="M30.34,15H17.66A7,7,0,0,1,30.34,15Z"/><path class="cls-3" d="M29.77,14H21.5a1,1,0,0,1-.74-1.68,7.2,7.2,0,0,1,1.12-1A7,7,0,0,1,29.77,14Z"/><path class="cls-6" d="M31,23H17c0-4.81-.21-6.19.66-8H30.34C31.22,16.82,31,18.06,31,23Z"/><path class="cls-7" d="M31,22H24.07c-3.26,0-6-3.08-4.8-7H30.34C31.15,16.67,31,17.53,31,22Z"/><path class="cls-5" d="M31,23c-.86,15.55-.71,14.72-1.14,15.64A4,4,0,0,1,26.22,41H21.78a4,4,0,0,1-4-3.78L17,23Z"/><path class="cls-3" d="M31,23c-.86,15.52-.67,14.86-1.33,16a10.26,10.26,0,0,1-10.24-9.65L19.06,23Z"/></g></svg>