<svg xmlns="http://www.w3.org/2000/svg" viewBox="0 0 48 48"><defs><style>.cls-1{fill:#db5669;}.cls-2{fill:#f26674;}.cls-3{fill:#edb996;}.cls-4{fill:#f6ccaf;}</style></defs><title>Pray in Love</title><g id="Pray_In_Love" data-name="Pray In Love"><path class="cls-1" d="M29.65,8h0L24,13.66,18.34,8h0C14.24,4.38,19.88-1.76,24,2.36A4,4,0,1,1,29.65,8Z"/><path class="cls-2" d="M29.65,8h0L26,11.66,20.34,6h0a4,4,0,0,1-1-4.63,4,4,0,0,1,4.64,1A4,4,0,1,1,29.65,8Z"/><path class="cls-3" d="M44,29c0,7.92.52,10.28-1.5,13A7.75,7.75,0,0,0,41,47H26a14.08,14.08,0,0,0-2-7c0-19.36-.24-18.61.59-19.41A2,2,0,0,1,28,22V19a2,2,0,0,1,4,0V17a2,2,0,0,1,4,0v3a2,2,0,0,1,4,0v9a1.94,1.94,0,0,1,.59-1.41A2,2,0,0,1,44,29Z"/><path class="cls-4" d="M44,29.11c0,8,.43,10.34-1.47,12.86a7.31,7.31,0,0,0-1.37,3,14.05,14.05,0,0,1-14-13.13L26.39,20A2,2,0,0,1,28,22V19a2,2,0,0,1,4,0V17a2,2,0,0,1,2.18-2A2.08,2.08,0,0,1,36,17.11V20a1.94,1.94,0,0,1,.59-1.41A2,2,0,0,1,40,20.11V29a2,2,0,0,1,.59-1.41A2,2,0,0,1,44,29.11Z"/><path class="cls-3" d="M41,35H39a3,3,0,0,0-3,3,1,1,0,0,1-2,0,5,5,0,0,1,5-5h1c0-4.21,0-4,0-4.3a2,2,0,0,1,4,.3,1,1,0,0,0-2,0v5A1,1,0,0,1,41,35Z"/><path class="cls-3" d="M40,19.78A1,1,0,0,0,38,20v9a1,1,0,0,1-2,0c0-9.52-.21-9.63.59-10.41A2,2,0,0,1,40,19.78Z"/><path class="cls-3" d="M36,16.78A1,1,0,0,0,34,17V29a1,1,0,0,1-2,0c0-13.2-.21-12.64.59-13.41A2,2,0,0,1,36,16.78Z"/><path class="cls-3" d="M32,18.78A1,1,0,0,0,30,19V29a1,1,0,0,1-2,0c0-10.52-.22-10.63.59-11.41A2,2,0,0,1,32,18.78Z"/><path class="cls-3" d="M24,22c0,20.63.27,17.46-.66,19.32A12.71,12.71,0,0,0,22,47H7a7.69,7.69,0,0,0-1.5-5C3.43,39.22,4,36.71,4,29a2,2,0,0,1,4-.3c.08.73,0,.75,0-8.7a2,2,0,0,1,3.41-1.41A2,2,0,0,1,12,20V17a2,2,0,0,1,3.41-1.41c.74.72.59,1.39.59,3.41a2,2,0,0,1,3.41-1.41c.77.75.59,1.4.59,4.41a2,2,0,0,1,4,0Z"/><path class="cls-4" d="M24,22c0,20.63.27,17.46-.66,19.32A12.66,12.66,0,0,0,22.16,45,15.1,15.1,0,0,1,7.09,30.87l-.24-3.68A2,2,0,0,1,8,29V20.11a2,2,0,0,1,3.41-1.52A2,2,0,0,1,12,20V17.11a2,2,0,0,1,3.41-1.52c.74.72.59,1.39.59,3.41a2,2,0,0,1,3.41-1.41c.77.75.59,1.4.59,4.41a2,2,0,0,1,4,0Z"/><path class="cls-3" d="M7,35H9a3,3,0,0,1,3,3,1,1,0,0,0,2,0,5,5,0,0,0-5-5H8c0-4.21,0-4,0-4.3A2,2,0,0,0,4,29a1,1,0,0,1,2,0v5A1,1,0,0,0,7,35Z"/><path class="cls-3" d="M12,19.78A1,1,0,0,0,10,20v9a1,1,0,0,1-2,0c0-9.52-.21-9.63.59-10.41A2,2,0,0,1,12,19.78Z"/><path class="cls-3" d="M16,16.78A1,1,0,0,0,14,17V29a1,1,0,0,1-2,0c0-13.2-.21-12.64.59-13.41A2,2,0,0,1,16,16.78Z"/><path class="cls-3" d="M20,18.78A1,1,0,0,0,18,19V29a1,1,0,0,1-2,0c0-10.52-.22-10.63.59-11.41A2,2,0,0,1,20,18.78Z"/><path class="cls-3" d="M24,21.78A1,1,0,0,0,22,22v7a1,1,0,0,1-2,0c0-7.59-.19-7.65.59-8.41A2,2,0,0,1,24,21.78Z"/></g></svg>