<svg xmlns="http://www.w3.org/2000/svg" viewBox="0 0 48 48"><defs><style>.cls-1{fill:#7c7d7d;}.cls-2{fill:#edb996;}.cls-3{fill:#f6ccaf;}.cls-4{fill:#919191;}.cls-5{fill:#dad7e5;}.cls-6{fill:#edebf2;}.cls-7{fill:#ffdec7;}.cls-8{fill:#fc6;}</style></defs><title>Priest</title><g id="Priest"><path class="cls-1" d="M47,39.08V47H35c-1.12-3.16-5.56-15.76-5.85-16.57l5.54-2.77,5.64,2A10,10,0,0,1,47,39.08Z"/><path class="cls-1" d="M34.69,27.66,24,33V29l6-3Z"/><path class="cls-2" d="M30,21.29V26l-6,3-6-3V21.29A8,8,0,0,0,30,21.29Z"/><path class="cls-3" d="M30,24.23V26l-6,3-5-2.5v-1a1,1,0,0,1,1.53-.85A8,8,0,0,0,30,24.23Z"/><path class="cls-1" d="M18.85,30.43,13,47H1V39.08a10,10,0,0,1,6.67-9.43l5.64-2Z"/><path class="cls-1" d="M24,29v4L13.31,27.66c1.87-.65.08,0,4.69-1.66Z"/><path class="cls-4" d="M32.35,26.83,24,31V29l6-3Z"/><path class="cls-4" d="M24,29v2l-8.34-4.17L18,26Z"/><path class="cls-5" d="M35,47H13l5.85-16.57L24,33l5.15-2.57C35.08,47.23,34,44.24,35,47Z"/><path class="cls-6" d="M34.29,45H18.83a2,2,0,0,1-1.89-2.67L20.2,33.1,24,35l5.75-2.87Z"/><path class="cls-3" d="M32,11c0,4.69.48,7.47-2,10.29A8,8,0,0,1,16,16V11Z"/><path class="cls-7" d="M32,12c0,3.58.64,7.9-3.48,10.59A8,8,0,0,1,18,15V12Z"/><path class="cls-8" d="M31.72,37.71a23.74,23.74,0,0,1-15.44,0L17,35.82a21.83,21.83,0,0,0,14.1,0Z"/><path class="cls-8" d="M23,46V38a1,1,0,0,1,2,0v8A1,1,0,0,1,23,46Z"/><path class="cls-8" d="M26,42H22a1,1,0,0,1,0-2h4A1,1,0,0,1,26,42Z"/><path class="cls-5" d="M34,11H14a10,10,0,0,1,20,0Z"/><path class="cls-6" d="M33.8,9H18.25a2,2,0,0,1-2-2.41A9.85,9.85,0,0,1,18,3,10,10,0,0,1,33.8,9Z"/><path class="cls-3" d="M14,15h2V11H14a2,2,0,0,0-2,2h0A2,2,0,0,0,14,15Z"/><path class="cls-7" d="M34,15H32V11h2a2,2,0,0,1,0,4Z"/><path class="cls-4" d="M13.31,27.66l5.54,2.77C15.48,40,18.12,32.5,13.71,45A9.71,9.71,0,0,1,4,35.29V31.94C5.91,30.06,7,29.87,13.31,27.66Z"/><path class="cls-4" d="M47,39.08V45H34.29c-4.3-12.21-1.68-4.76-5.14-14.57l5.54-2.77,5.64,2A10,10,0,0,1,47,39.08Z"/></g></svg>