<svg xmlns="http://www.w3.org/2000/svg" viewBox="0 0 48 48"><defs><style>.cls-1{fill:#dad7e5;}.cls-2{fill:#d3377f;}.cls-3{fill:#de4a8c;}.cls-4{fill:#cc734c;}.cls-5{fill:#df8761;}.cls-6{fill:#f29b75;}.cls-7{fill:#edebf2;}.cls-8{fill:#db5669;}.cls-9{fill:#f26674;}</style></defs><title>Table Wedding dinner</title><g id="Table_Wedding_dinner" data-name="Table Wedding dinner"><path class="cls-1" d="M9,15V9a1,1,0,0,1,2,0v6A1,1,0,0,1,9,15Z"/><path class="cls-1" d="M37,15V9a1,1,0,0,1,2,0v6A1,1,0,0,1,37,15Z"/><path class="cls-1" d="M23,8V6a1,1,0,0,1,2,0V8A1,1,0,0,1,23,8Z"/><path class="cls-2" d="M43,15v4C22.94,33.76,29.81,28.7,24,33c-3.05-2.26-.08-.07-19-14V15Z"/><path class="cls-3" d="M43,15v4L32.09,27a8,8,0,0,1-9.48,0l-12-8.84A4,4,0,0,1,9,15Z"/><path class="cls-4" d="M27,43H21l.89-11.56L24,33l2.11-1.56C27,42.72,26.8,40.38,27,43Z"/><path class="cls-5" d="M26.85,41a3.56,3.56,0,0,1-3.55-3.84l.34-4.43L24,33l2.11-1.56Z"/><path class="cls-5" d="M32,44.65V47H16V44.65A1.65,1.65,0,0,1,17.65,43h12.7A1.65,1.65,0,0,1,32,44.65Z"/><path class="cls-6" d="M32,44.65V46H20.35a2.28,2.28,0,0,1-2.21-3H30.35A1.65,1.65,0,0,1,32,44.65Z"/><path class="cls-1" d="M32,15H16a8,8,0,1,1,16,0Z"/><path class="cls-7" d="M31.75,13H21.34a2,2,0,0,1-1.91-2.59,8,8,0,0,1,1.74-2.89A8,8,0,0,1,31.75,13Z"/><path class="cls-1" d="M41,1c0,5.3.14,5.62-.44,6.56A3,3,0,0,1,35,6V1Z"/><path class="cls-7" d="M41,1c0,5.3.14,5.62-.44,6.56A3,3,0,0,1,36,5V1Z"/><path class="cls-1" d="M13,1c0,5.3.14,5.62-.44,6.56A3,3,0,0,1,7,6V1Z"/><path class="cls-7" d="M13,1c0,5.3.14,5.62-.44,6.56A3,3,0,0,1,8,5V1Z"/><path class="cls-8" d="M36,6V3h4V6A2,2,0,0,1,36,6Z"/><path class="cls-9" d="M40,3V6a2,2,0,0,1-1.55,2A3,3,0,0,1,36,5V3Z"/><path class="cls-8" d="M8,6V3h4V6A2,2,0,0,1,8,6Z"/><path class="cls-9" d="M12,3V6a2,2,0,0,1-1.55,2A3,3,0,0,1,8,5V3Z"/></g></svg>