<svg xmlns="http://www.w3.org/2000/svg" viewBox="0 0 48 48"><defs><style>.cls-1{fill:#dad7e5;}.cls-2{fill:#edebf2;}.cls-3{fill:#c4455e;}.cls-4{fill:#db5669;}.cls-5{fill:#f26674;}.cls-6{fill:#6fabe6;}.cls-7{fill:#374f68;}.cls-8{fill:#82bcf4;}.cls-9{fill:#9fdbf3;}.cls-10{fill:#b2e5fb;}.cls-11{fill:#425b72;}</style></defs><title>Wedding Cost</title><g id="Wedding_Cost" data-name="Wedding Cost"><path class="cls-1" d="M37,1V19H29a4,4,0,0,0-4,4V43a4,4,0,0,0,4,4H1V1Z"/><path class="cls-2" d="M37,1V19c-8.06,0-9.16-.36-10.72,1.07A4,4,0,0,0,23,24c0,21.54,0,20.27.09,20.86A21.53,21.53,0,0,1,4,23.46V1Z"/><path class="cls-3" d="M18.89,10.36,15,14.24C10.8,10,10,9.64,10,8a3,3,0,0,1,5-2.23A3.11,3.11,0,0,1,17,5a3,3,0,0,1,2.13.88A3,3,0,0,0,18.89,10.36Z"/><path class="cls-4" d="M17.77,10.22a7,7,0,0,0,.62.64l-2,2L12.88,9.35A3,3,0,0,1,13,5a2.94,2.94,0,0,1,2,.77A3.11,3.11,0,0,1,17,5a3.08,3.08,0,0,1,1.71.52A3,3,0,0,0,17.77,10.22Z"/><path class="cls-4" d="M28,8.23c0,1.66-.83,2.07-5,6.24-4.2-4.2-5-4.6-5-6.24A3,3,0,0,1,23,6a3.12,3.12,0,0,1,2-.77A3,3,0,0,1,28,8.23Z"/><path class="cls-5" d="M28,8.23c0,1.69-1.12,2.36-4,5.24-4.2-4.2-5-4.6-5-6.24a2.91,2.91,0,0,1,.45-1.57A2.91,2.91,0,0,1,21,5.23,3.12,3.12,0,0,1,23,6,3,3,0,0,1,28,8.23Z"/><path class="cls-6" d="M4.29,25.71a1,1,0,0,1,1.42-1.42L7,25.59l3.29-3.3a1,1,0,0,1,1.42,1.42C6.26,29.15,7.54,29,4.29,25.71Z"/><path class="cls-6" d="M4.29,36.71a1,1,0,0,1,1.42-1.42L7,36.59l3.29-3.3a1,1,0,0,1,1.42,1.42C6.26,40.15,7.54,40,4.29,36.71Z"/><path class="cls-7" d="M25,26H15a1,1,0,0,1,0-2H25A1,1,0,0,1,25,26Z"/><path class="cls-7" d="M25,37H15a1,1,0,0,1,0-2H25A1,1,0,0,1,25,37Z"/><path class="cls-6" d="M47,23c0,21.5.2,20.7-.52,22A4,4,0,0,1,43,47H29a4,4,0,0,1-4-4V23a4,4,0,0,1,4-4H43A4,4,0,0,1,47,23Z"/><path class="cls-8" d="M47,23c0,23,.31,21.23-1,22A18,18,0,0,1,28,27c0-7.73-.17-7.27.95-7.95H43A4,4,0,0,1,47,23Z"/><rect class="cls-9" x="29" y="23" width="14" height="6"/><path class="cls-10" d="M43,23v5H36a5,5,0,0,1-5-5Z"/><path class="cls-7" d="M31,33H29a1,1,0,0,0-1,1v2a1,1,0,0,0,1,1h2a1,1,0,0,0,1-1V34A1,1,0,0,0,31,33Z"/><path class="cls-11" d="M31,33H29v2a1,1,0,0,0,1,1h2V34A1,1,0,0,0,31,33Z"/><path class="cls-7" d="M37,33H35a1,1,0,0,0-1,1v2a1,1,0,0,0,1,1h2a1,1,0,0,0,1-1V34A1,1,0,0,0,37,33Z"/><path class="cls-11" d="M37,33H35v2a1,1,0,0,0,1,1h2V34A1,1,0,0,0,37,33Z"/><path class="cls-7" d="M43,33H41a1,1,0,0,0-1,1v2a1,1,0,0,0,1,1h2a1,1,0,0,0,1-1V34A1,1,0,0,0,43,33Z"/><path class="cls-11" d="M43,33H41v2a1,1,0,0,0,1,1h2V34A1,1,0,0,0,43,33Z"/><path class="cls-7" d="M31,39H29a1,1,0,0,0-1,1v2a1,1,0,0,0,1,1h2a1,1,0,0,0,1-1V40A1,1,0,0,0,31,39Z"/><path class="cls-11" d="M31,39H29v2a1,1,0,0,0,1,1h2V40A1,1,0,0,0,31,39Z"/><path class="cls-7" d="M37,39H35a1,1,0,0,0-1,1v2a1,1,0,0,0,1,1h2a1,1,0,0,0,1-1V40A1,1,0,0,0,37,39Z"/><path class="cls-11" d="M37,39H35v2a1,1,0,0,0,1,1h2V40A1,1,0,0,0,37,39Z"/><path class="cls-7" d="M43,39H41a1,1,0,0,0-1,1v2a1,1,0,0,0,1,1h2a1,1,0,0,0,1-1V40A1,1,0,0,0,43,39Z"/><path class="cls-11" d="M43,39H41v2a1,1,0,0,0,1,1h2V40A1,1,0,0,0,43,39Z"/></g></svg>