<svg xmlns="http://www.w3.org/2000/svg" viewBox="0 0 48 48"><defs><style>.cls-1{fill:#dad7e5;}.cls-13,.cls-2{fill:#edebf2;}.cls-3{fill:#9fdbf3;}.cls-4{fill:#b2e5fb;}.cls-5{fill:#fc6;}.cls-6{fill:#ffde76;}.cls-7{fill:#7c7d7d;}.cls-8{fill:#919191;}.cls-9{fill:#2c435e;}.cls-10{fill:#374f68;}.cls-11{fill:#db5669;}.cls-12{fill:#f26674;}.cls-13{opacity:0.3;}</style></defs><title>Wedding Car</title><g id="Wedding_Car" data-name="Wedding Car"><path class="cls-1" d="M47,28c0,4.22.51,7.49-2.5,10.5a8.55,8.55,0,0,1-6,2.5H9.54A8.55,8.55,0,0,1,2,36.46C.74,34.13,1,32.39,1,28a1,1,0,0,1,1-1H46A1,1,0,0,1,47,28Z"/><path class="cls-2" d="M47,28c0,4,.53,7.46-2.41,10.4-2,.83-.77.6-32.05.6a8.54,8.54,0,0,1-6-2.5c-3-3-2.5-6.31-2.5-9.5H46A1,1,0,0,1,47,28Z"/><path class="cls-1" d="M46,27H2L6.54,14.89A6,6,0,0,1,12.16,11H35.84a6,6,0,0,1,5.62,3.89Z"/><path class="cls-2" d="M45.25,25H9.77A4,4,0,0,1,6,19.6c2.69-7.2,2.6-7,3-7.71,2-1.21.68-.89,26.81-.89a6,6,0,0,1,5.62,3.89Z"/><path class="cls-3" d="M43.25,26H4.75l4-10.59A5.26,5.26,0,0,1,13.64,12H34.36a5.26,5.26,0,0,1,4.92,3.41C43.79,27.45,42.91,25.08,43.25,26Z"/><path class="cls-4" d="M42.5,24H16.41a6,6,0,0,1-5.62-8.11c1-2.64,1.07-3,1.61-3.74.84-.21-.64-.15,22-.15a5.26,5.26,0,0,1,4.92,3.41Z"/><path class="cls-3" d="M11,34a3,3,0,1,1-4.56-2.56A3,3,0,0,1,11,34Z"/><path class="cls-4" d="M10.56,35.56a3,3,0,0,1-4.12-4.12A3,3,0,0,1,10.56,35.56Z"/><path class="cls-5" d="M15,34a2,2,0,1,1-2.82-1.82A2,2,0,0,1,15,34Z"/><path class="cls-6" d="M14.82,34.82a2,2,0,0,1-2.64-2.64A2,2,0,0,1,14.82,34.82Z"/><path class="cls-3" d="M43,34a3,3,0,1,1-4.56-2.56A3,3,0,0,1,43,34Z"/><path class="cls-4" d="M42.56,35.56a3,3,0,0,1-4.12-4.12A3,3,0,0,1,42.56,35.56Z"/><path class="cls-5" d="M37,34a2,2,0,1,1-2.82-1.82A2,2,0,0,1,37,34Z"/><path class="cls-6" d="M36.82,34.82a2,2,0,0,1-2.64-2.64A2,2,0,0,1,36.82,34.82Z"/><path class="cls-7" d="M29,31c0,1.72,0,3.52-2,5a4.94,4.94,0,0,1-3,1V31Z"/><path class="cls-8" d="M28,32a5.67,5.67,0,0,1-1,4,4.94,4.94,0,0,1-3,1V32Z"/><path class="cls-7" d="M24,31v6a5,5,0,0,1-5-5V31Z"/><path class="cls-8" d="M23,32v4.9A5,5,0,0,1,19,32Z"/><path class="cls-9" d="M10,41v4a2,2,0,0,1-2,2H4a2,2,0,0,1-2-2c0-10.43-.14-8.65.32-8A8.53,8.53,0,0,0,10,41Z"/><path class="cls-10" d="M10,43v2a2,2,0,0,1-2,2H4a2,2,0,0,1-2-2c0-8-.14-6.65.32-6A8.53,8.53,0,0,0,10,43Z"/><path class="cls-9" d="M46,36.44V45a2,2,0,0,1-2,2H40a2,2,0,0,1-2-2V41A8.51,8.51,0,0,0,46,36.44Z"/><path class="cls-10" d="M46,38.44V45a2,2,0,0,1-2,2H40a2,2,0,0,1-2-2V43A8.51,8.51,0,0,0,46,38.44Z"/><path class="cls-11" d="M29,4.23c0,1.72-1.07,2.31-5,6.24-4.07-4.07-5-4.55-5-6.24a3,3,0,0,1,3-3A3.12,3.12,0,0,1,24,2,3,3,0,0,1,29,4.23Z"/><path class="cls-12" d="M29,4.23C29,5.89,27.9,6.57,25.5,9,22,5.43,21,4.89,21,3.23a3,3,0,0,1,.76-2,1,1,0,0,1,.24,0A3.12,3.12,0,0,1,24,2,3,3,0,0,1,29,4.23Z"/><path class="cls-5" d="M35,6.61C35,8,35.15,9,34.23,10c-1.17,1.35-.83,1-18.23,1a3,3,0,0,1-3-3V6.61a3,3,0,0,1,4.66-2.5l1.57,1.27c.35.83.74,1.06,4.77,5.09,4-4,4.43-4.28,4.77-5.09l1.57-1.27A3,3,0,0,1,35,6.61Z"/><path class="cls-6" d="M23.53,10H19a4,4,0,0,1-4-4V3.78c1.84-.66,2.86.49,4.23,1.6C19.54,6.13,19.69,6.16,23.53,10Z"/><path class="cls-6" d="M35,6.61C35,8,35.15,9,34.23,10H24.47c3.79-3.79,4-3.88,4.3-4.62l1.57-1.27A3,3,0,0,1,35,6.61Z"/><path class="cls-13" d="M43,26H31l8.34-10.43C43.55,26.81,43,25.11,43,26Z"/><polygon class="cls-13" points="34 12 23 26 17 26 28 12 34 12"/><polygon class="cls-13" points="22 12 11 26 5 26 16 12 22 12"/></g></svg>