<svg xmlns="http://www.w3.org/2000/svg" viewBox="0 0 48 48"><defs><style>.cls-1{fill:#dad7e5;}.cls-2{fill:#edebf2;}.cls-3{fill:#9fdbf3;}.cls-4{fill:#b2e5fb;}.cls-5{fill:#747575;}.cls-6{fill:#c6c3d8;}.cls-7{fill:#f6ccaf;}.cls-8{fill:#ffdec7;}.cls-9{fill:#de4a8c;}.cls-10{fill:#edb996;}.cls-11{fill:#919191;}.cls-12{fill:#db5669;}.cls-13{fill:#f26674;}.cls-14{fill:#7c7d7d;}</style></defs><title>Wedding Photo</title><g id="Wedding_Photo" data-name="Wedding Photo"><rect class="cls-1" x="3" y="1" width="42" height="46"/><path class="cls-2" d="M45,1c0,45.32-.1,44,0,44A39,39,0,0,1,6,6V1Z"/><rect class="cls-3" x="7" y="5" width="34" height="36"/><path class="cls-4" d="M41,5c0,35.18-.1,34,0,34A31,31,0,0,1,10,8V5Z"/><path class="cls-5" d="M33,41H25V33a4,4,0,0,1,4-4l-1,6Z"/><polygon class="cls-6" points="36 29 33 41 30 29 36 29"/><polygon class="cls-1" points="35 29 32.5 39 30 29 35 29"/><path class="cls-5" d="M41,33v8H33l5-6-1-6A4,4,0,0,1,41,33Z"/><path class="cls-7" d="M25,34.37V41H21c0-6,.22-6.54-.62-7.38a2.13,2.13,0,0,0-3,0,2,2,0,0,1-2.76,0A2.13,2.13,0,0,0,11,35.12V41H7c0-6.28-.57-8.8,2-11.1,1.79-1.61,3.5-1.51,7-1.9l3.66.41A6,6,0,0,1,25,34.37Z"/><path class="cls-8" d="M25,34.37V39H18.1A9.1,9.1,0,0,1,9,29.9c1.79-1.61,3.5-1.51,7-1.9l3.66.41A6,6,0,0,1,25,34.37Z"/><path class="cls-9" d="M21,35.12V41H11V35.12A2.12,2.12,0,0,1,13.12,33c1.45,0,1.51,1.19,2.88,1.19S17.44,33,18.88,33A2.12,2.12,0,0,1,21,35.12Z"/><path class="cls-7" d="M20,22c0,1.94.16,3-.72,4.28A4,4,0,0,1,12,24V22a4,4,0,1,1,8,0Z"/><path class="cls-8" d="M20,22c0,1.9.24,3.55-1.28,4.93A4,4,0,0,1,14,23c0-2-.23-3.54,1.29-4.93A4,4,0,0,1,20,22Z"/><path class="cls-10" d="M37,23c0,2,.24,3.53-1.28,4.93A4,4,0,0,1,29,25V23a4,4,0,0,1,8,0Z"/><path class="cls-7" d="M37,23c0,2,.24,3.53-1.28,4.93A4,4,0,0,1,31,24c0-2-.24-3.53,1.28-4.93A4,4,0,0,1,37,23Z"/><polygon class="cls-11" points="33 41 28 35 29 29 30 29 33 41"/><polygon class="cls-11" points="38 35 33 41 36 29 37 29 38 35"/><path class="cls-12" d="M29,12c0,1.66-.86,2.13-5,6.24C19.75,14,19.83,14.09,19.77,14A3,3,0,0,1,22,9a3.08,3.08,0,0,1,2,.77A3.07,3.07,0,0,1,26,9,3,3,0,0,1,29,12Z"/><path class="cls-13" d="M29,12c0,1.6-.87,2.11-3.61,4.86C22,13.45,21,12.88,21,11.23A2.94,2.94,0,0,1,22,9a2.94,2.94,0,0,1,2,.77A3.09,3.09,0,0,1,26,9,3,3,0,0,1,29,12Z"/><path class="cls-14" d="M28,35c3.79,4.56,3.23,4,3.33,4A4.33,4.33,0,0,1,27,34.67V29.54A4,4,0,0,1,29,29Z"/><path class="cls-14" d="M41,33v6H34.67L38,35l-1-6A4,4,0,0,1,41,33Z"/></g></svg>