<svg xmlns="http://www.w3.org/2000/svg" viewBox="0 0 48 48"><defs><style>.cls-1{fill:#9fdbf3;}.cls-2{fill:#b2e5fb;}.cls-3{fill:#de4a8c;}.cls-4{fill:#fc6;}.cls-5{fill:#ffde76;}.cls-6{fill:#db5669;}.cls-7{fill:#f26674;}.cls-8{fill:#c4455e;}.cls-9{fill:#f26da6;}</style></defs><title>Wedding Calendar</title><g id="Wedding_Calendar" data-name="Wedding Calendar"><rect class="cls-1" x="2" y="13" width="44" height="34"/><path class="cls-2" d="M5,13A32,32,0,0,0,37,45h9V13ZM27.66,32,22,37.66c-6.3-6.3-7-6.57-7-8.66a4,4,0,0,1,7-2.64A4,4,0,1,1,27.65,32Z"/><polygon class="cls-3" points="46 5 46 13 2 13 2 5 8 5 8 9 14 9 14 5 34 5 34 9 40 9 40 5 46 5"/><rect class="cls-4" x="8" y="1" width="6" height="8"/><path class="cls-5" d="M14,1V7a4,4,0,0,1-4-4V1Z"/><rect class="cls-4" x="34" y="1" width="6" height="8"/><path class="cls-5" d="M40,1V7a4,4,0,0,1-4-4V1Z"/><path class="cls-6" d="M11,30A13,13,0,0,1,24,17c12.32,0,17.69,15.59,8,23.21a1,1,0,0,1-1.24-1.56C39,32.15,34.34,19,24,19a11,11,0,1,0,3.19,21.52,1,1,0,0,1,.59,1.92A13,13,0,0,1,11,30Z"/><path class="cls-7" d="M35,30.47a10.93,10.93,0,0,1-4.16,8.18,1,1,0,0,0-.23,1.27A11.45,11.45,0,0,0,35,30.47Z"/><path class="cls-7" d="M24,18A13,13,0,0,1,37,30.47,13,13,0,1,0,11,30.5,13,13,0,0,1,24,18Z"/><path class="cls-8" d="M27.19,40.52A11,11,0,0,1,13,30.5,11,11,0,0,0,24,42c3,0,3.68-1.13,4.33,0A1,1,0,0,0,27.19,40.52Z"/><path class="cls-7" d="M29.65,31h0L24,36.66,18.34,31h0c-4-3.53,1.48-9.8,5.65-5.63C28.19,21.17,33.65,27.47,29.65,31Z"/><path class="cls-6" d="M19,27a4,4,0,0,1,1.29-2.93A4,4,0,0,0,18.35,31h0L24,36.66l1.5-1.5C19.7,29.36,19,29.09,19,27Z"/><path class="cls-9" d="M46,5v6H11A6,6,0,0,1,5,5H8V9h6V5H34V9h6V5Z"/></g></svg>