<svg xmlns="http://www.w3.org/2000/svg" viewBox="0 0 48 48"><defs><style>.cls-1{fill:#dad7e5;}.cls-2{fill:#edebf2;}</style></defs><title>Wedding Dress</title><g id="Wedding_Dress" data-name="Wedding Dress"><path class="cls-1" d="M34.3,8.93,31,18a25.43,25.43,0,0,1-14,0c-3.55-9.76-3.77-9.92-3.77-11.73C13.23,2.78,15.64,1,18,1s3.55,1.58,6,4c2.44-2.44,3.51-4,6-4C33.54,1,35.85,4.65,34.3,8.93Z"/><path class="cls-2" d="M34.3,8.93l-2.7,7.42A24.6,24.6,0,0,1,26,17a9.6,9.6,0,0,1-9-6.38c-1.07-2.95-2.68-6.19-1.22-9a4.76,4.76,0,0,1,5.68.94L24,5l2.5-2.5C30.27-1.27,36.65,2.43,34.3,8.93Z"/><path class="cls-1" d="M40,45c-13.22,2.63-18,2.79-32,0l9-27a25.51,25.51,0,0,0,14,0C40.92,47.79,39.48,43.46,40,45Z"/><path class="cls-2" d="M39.62,43.87a60.35,60.35,0,0,1-23.5,0A3.7,3.7,0,0,1,13.33,39l6.78-20.33A25.36,25.36,0,0,0,31,18Z"/><path class="cls-1" d="M31.05,39.32l-5-15a1,1,0,0,1,1.9-.64l5,15A1,1,0,0,1,31.05,39.32Z"/><path class="cls-1" d="M15.05,38.68l5-15a1,1,0,0,1,1.9.64l-5,15A1,1,0,0,1,15.05,38.68Z"/></g></svg>