<svg xmlns="http://www.w3.org/2000/svg" viewBox="0 0 48 48"><defs><style>.cls-1{fill:#edebf2;}.cls-2{fill:#c6c3d8;}.cls-3{fill:#dad7e5;}.cls-4{fill:#bbb8d1;}</style></defs><title>Wedding Suit</title><g id="Wedding_Suit" data-name="Wedding Suit"><polygon class="cls-1" points="32 10 34 14 24 32 30 1 35 6 32 10"/><path class="cls-2" d="M30,1,24,32c-1.42-7.32-.31-1.59-6-31Z"/><polygon class="cls-3" points="28 1 23 26.83 18 1 28 1"/><path class="cls-3" d="M39,47H30a6,6,0,0,1-6-6V32L34,14l-2-4,3-4L33,4c6.08,1.51,6.43,1.52,7.62,2.17C35.4,36.49,35.33,30.6,39,47Z"/><path class="cls-2" d="M36.48,31.59a28,28,0,0,1,.37-3.53C41.05,3.69,40.76,6.24,40.3,6,36.68,27,36.35,27.82,36.48,31.59Z"/><path class="cls-2" d="M30,45a6,6,0,0,1-6-6v2a6,6,0,0,0,6,6h9l-.45-2Z"/><path class="cls-3" d="M44.79,13.45c-.9,28.12-.6,18.8-.79,24.55H37c-1.34-6.55-.29-9.13,3.62-31.83C41.15,6.17,44.94,8.85,44.79,13.45Z"/><path class="cls-2" d="M44.16,33c-.07,2.17,0,2-.16,2H42a1,1,0,0,1,0-2A17.63,17.63,0,0,1,44.16,33Z"/><path class="cls-2" d="M44.29,29l-.06,2H42a1,1,0,0,1,0-2Z"/><path class="cls-2" d="M33,38H28a1,1,0,0,1,0-2h5A1,1,0,0,1,33,38Z"/><polygon class="cls-1" points="14 14 16 10 13 6 18 1 24 32 14 14"/><path class="cls-3" d="M24,32v9a6,6,0,0,1-6,6H9c3.67-16.42,3.56-10.76-1.62-40.83C8.57,5.52,8.92,5.52,15,4L13,6l3,4-2,4Z"/><path class="cls-2" d="M21,45H14.5a2,2,0,0,1-2-2.44c3-13.57,2.85-9.32-2-37.45A11.31,11.31,0,0,0,7.38,6.17C12.58,36.37,12.67,30.61,9,47h9a6,6,0,0,0,4.67-2.24A6.13,6.13,0,0,1,21,45Z"/><path class="cls-4" d="M11,38H4c-.12-3.5.1,3-.79-24.55A8,8,0,0,1,7.37,6.17c.1,0,0-.27,3.78,21.89A26.8,26.8,0,0,1,11,38Z"/><path class="cls-2" d="M9.18,38H4c-.12-3.5.1,3-.79-24.55A8,8,0,0,1,5.46,7.64C9.33,30.08,10.16,32.09,9.18,38Z"/><path class="cls-4" d="M6,35H4c-.14,0-.09.19-.16-2A16.32,16.32,0,0,1,6,33,1,1,0,0,1,6,35Z"/><path class="cls-4" d="M6,31H3.77l-.06-2H6A1,1,0,0,1,6,31Z"/><path class="cls-2" d="M20,38H15a1,1,0,0,1,0-2h5A1,1,0,0,1,20,38Z"/></g></svg>