<svg xmlns="http://www.w3.org/2000/svg" viewBox="0 0 48 48"><defs><style>.cls-1{fill:#f6ccaf;}.cls-2{fill:#ffdec7;}.cls-3{fill:#747575;}.cls-4{fill:#c6c3d8;}.cls-5{fill:#dad7e5;}.cls-6{fill:#edebf2;}.cls-7{fill:#7c7d7d;}</style></defs><title>Wedding Side by Side</title><g id="Wedding_Side_by_Side" data-name="Wedding Side by Side"><path class="cls-1" d="M45.89,28.89a2,2,0,0,1-2,2.11c-1,0-.28.33-1.78-2-.29-.48-.82-1.19-2.11-3l1.51-5.3a3,3,0,0,0-4.57-3.33L36,18l-.94-.63a3,3,0,0,0-4.69,2.5c0,.58-.06.2,1.63,6.13-1.34,1.87-1.83,2.53-2.11,3-1.55,2.4-.71,2-1.78,2a2,2,0,0,1-2-2.11l.59-11.21a6,6,0,0,1,6-5.68h6.62a6,6,0,0,1,6,5.68Z"/><path class="cls-1" d="M16,5A4,4,0,1,1,9.72,1.72,4,4,0,0,1,16,5Z"/><path class="cls-2" d="M15.28,7.28A4,4,0,0,1,9.72,1.72,4,4,0,0,1,15.28,7.28Z"/><path class="cls-1" d="M40,5a4,4,0,1,1-6.28-3.28A4,4,0,0,1,40,5Z"/><path class="cls-2" d="M39.28,7.28a4,4,0,0,1-5.56-5.56A4,4,0,0,1,39.28,7.28Z"/><path class="cls-3" d="M22,18c0,11.62.23,11.61-.59,12.41a2,2,0,0,1-3.33-.85c-.12-.43-.08.35-.08,15.38a2,2,0,0,1-1.79,2,2.18,2.18,0,0,1-2.34-2.1c-.09-1.28.05.95-.81-12.88a1.06,1.06,0,0,0-2.12,0c-.41,6.52-.82,13.07-.81,12.93a2.07,2.07,0,0,1-4.13,0V29a2,2,0,0,1-1.8,2A2.11,2.11,0,0,1,2,28.82V18a6,6,0,0,1,6-6c4.1,13.33,4,13.07,4,12.87,4-13,3.89-12.87,4-12.87A6,6,0,0,1,22,18Z"/><polygon class="cls-4" points="16 12 12 25 8 12 16 12"/><polygon class="cls-5" points="14 12 11 21.75 8 12 14 12"/><path class="cls-5" d="M45,47H27c0-11.61-.72-13,5-21-1.64-5.77-1.63-5.57-1.63-6.13a3,3,0,0,1,3.18-3A4.53,4.53,0,0,1,36,18a4.32,4.32,0,0,1,2.61-1.14,3,3,0,0,1,2.9,3.84L40,26C45.58,33.82,45,34.8,45,47Z"/><path class="cls-6" d="M45,45H38.23A8.23,8.23,0,0,1,30,36.77a18.06,18.06,0,0,1,3.35-10.46c2.75-3.85-.69-7.08.2-9.44A4.53,4.53,0,0,1,36,18l.94-.63a3,3,0,0,1,3.68.26,3.46,3.46,0,0,1,.84,3.23L40,26C45.56,33.78,45,35.27,45,45Z"/><path class="cls-7" d="M22,18c0,11.62.23,11.61-.59,12.41a2,2,0,0,1-3.33-.85C17.91,29,18.06,44,18,44a4.42,4.42,0,0,1-4.41-4.14L13.06,32a1.06,1.06,0,0,0-2.12,0c-.77,12.27-.69,12-.79,12A3.15,3.15,0,0,1,7,40.85V12.09A5.47,5.47,0,0,1,8,12c4.1,13.33,4,13.07,4,12.87,4-13,3.89-12.87,4-12.87A6,6,0,0,1,22,18Z"/><path class="cls-2" d="M45.89,28.89c0,.16.41.11-3.78.11-.29-.48-.82-1.19-2.11-3l1.46-5.14a3.46,3.46,0,0,0-.84-3.23,3,3,0,0,0-2.51-.72A5,5,0,0,0,36,18c-1-.65-1.79-1.31-3.09-1.09a3,3,0,0,0-3.54,3c0,.58-.06.2,1.63,6.13-2.17,3-1.63,2.27-2,2.77a1.74,1.74,0,0,1-.92-1.66L29,13.27C31.14,11.59,32.9,12,39.31,12a6,6,0,0,1,6,5.68Z"/></g></svg>