<?xml version="1.0" encoding="iso-8859-1"?>
<!-- Uploaded to: SVG Repo, www.svgrepo.com, Generator: SVG Repo Mixer Tools -->
<svg version="1.1" id="Layer_1" xmlns="http://www.w3.org/2000/svg" xmlns:xlink="http://www.w3.org/1999/xlink" 
	 viewBox="0 0 499.55 499.55" xml:space="preserve">
<circle style="fill:#EA83B7;" cx="251.375" cy="200.975" r="200"/>
<path style="fill:#D86699;" d="M251.375,0.975c110.4,0,200,89.6,200,200s-89.6,200-200,200s-200-89.6-200-200"/>
<path style="fill:#BC4888;" d="M251.375,0.975c110.4,0,200,89.6,200,200s-89.6,200-200,200"/>
<path style="fill:#EA83B7;" d="M251.375,400.975c-110.4,0-200-89.6-200-200"/>
<g>
	<path style="fill:#542D0E;" d="M209.775,92.175c0,3.2-5.6,6.4-7.2,6.4h-7.2c-1.6,0-7.2-4-7.2-6.4l4-28.8c0-3.2,1.6-4,3.2-4h6.4
		c1.6,0,3.2,0.8,3.2,4L209.775,92.175z"/>
	<path style="fill:#542D0E;" d="M201.775,297.775c0,4-1.6,7.2-4,7.2l0,0c-2.4,0-4-3.2-4-7.2v-96.8c0-4,1.6-7.2,4-7.2l0,0
		c2.4,0,4,3.2,4,7.2V297.775z"/>
	<path style="fill:#542D0E;" d="M160.975,305.775L160.975,305.775c0-3.2,3.2-7.2,6.4-7.2h64c3.2,0,6.4,3.2,6.4,7.2l0,0"/>
</g>
<path style="fill:#874B22;" d="M222.575,162.575c-18.4-25.6-8.8-32-7.2-38.4c0.8-7.2,11.2-5.6,9.6-16.8c-1.6-8,2.4-8.8,4.8-8.8v-4.8
	c0-10.4,4-19.2-6.4-19.2h-47.2c-10.4,0-6.4,8.8-6.4,19.2v4.8c1.6,0.8,3.2,3.2,2.4,8.8c-2.4,11.2,8.8,9.6,9.6,16.8
	c0.8,7.2,10.4,12.8-7.2,38.4c-2.4,4-5.6,9.6-7.2,15.2l-5.6,15.2c0,10.4,8,17.6,18.4,17.6h39.2c10.4,0,18.4-7.2,18.4-17.6l-4-8
	C229.775,176.175,226.575,168.175,222.575,162.575z"/>
<path style="fill:#542D0E;" d="M169.775,94.575v4.8c1.6,0.8,3.2,3.2,2.4,8.8c-2.4,11.2,8.8,9.6,9.6,16.8c0.8,7.2,10.4,12.8-7.2,38.4
	c-2.4,4-5.6,9.6-7.2,15.2l-5.6,14.4c0,10.4,8,17.6,18.4,17.6h39.2c10.4,0,18.4-7.2,18.4-17.6l-4-8c-3.2-9.6-6.4-17.6-10.4-23.2
	c-18.4-25.6-8.8-31.2-7.2-38.4c0.8-7.2,11.2-5.6,9.6-16.8c-1.6-8,2.4-8.8,4.8-8.8v-4c0-10.4,4-18.4-6.4-18.4"/>
<path style="fill:#FFFEF8;" d="M237.775,194.575c-3.2-12-7.2-24-12-31.2c-18.4-25.6-8.8-32-7.2-39.2c0.8-7.2,11.2-5.6,9.6-16.8
	s6.4-8.8,6.4-8.8s0,0-0.8-0.8c-3.2-3.2-19.2-16.8-35.2-4c-16-12.8-32.8,0.8-35.2,4l-0.8,0.8c0,0,8.8-2.4,6.4,8.8
	c-1.6,11.2,8.8,9.6,9.6,16.8c0.8,7.2,10.4,12.8-7.2,38.4c-4.8,7.2-8.8,19.2-12,32c-10.4,33.6-13.6,80-13.6,80h52h1.6h52
	C250.575,274.575,247.375,228.175,237.775,194.575z"/>
<path style="fill:#FFFEEE;" d="M200.175,96.175c-16.8-14.4-34.4-0.8-37.6,2.4c0.8,0,0.8,0,1.6,0c13.6,0,24,21.6,24,48.8
	c0,26.4-11.2,48.8-24.8,48.8c-2.4,0-4,0.8-6.4,0c-8.8,33.6-12.8,80-12.8,80h57.6v-180H200.175z"/>
<path style="fill:#F2F0DA;" d="M232.175,194.575c-13.6,0-24.8-21.6-24.8-48.8c0-26.4,11.2-48.8,24.8-48.8c0.8,0,1.6,0,2.4,0
	c-3.2-3.2-18.4-16-34.4-2.4h1.6v180h50.4c0,0-4-46.4-12.8-80C236.975,195.375,234.575,194.575,232.175,194.575z"/>
<polyline style="fill:#FFFEEE;" points="201.775,98.575 201.775,274.575 201.775,274.575 201.775,98.575 "/>
<path style="fill:#F9F8F2;" d="M192.175,146.575c0-26.4-15.2-48.8-28.8-48.8c-0.8,0-1.6,0-2.4,0l-0.8,0.8c0,0,8.8-2.4,6.4,8.8
	c-2.4,11.2,8.8,9.6,9.6,16.8c0.8,7.2,10.4,12.8-7.2,38.4c-4.8,7.2-8.8,19.2-12,32c2.4,0.8,4,0,6.4,0
	C176.975,194.575,192.175,172.975,192.175,146.575z"/>
<path style="fill:#EAE7C7;" d="M204.175,146.575c0,26.4,15.2,48.8,28.8,48.8c2.4,0,4,0.8,6.4,0c-3.2-12-7.2-24.8-12-32
	c-18.4-25.6-8.8-32-7.2-38.4c0.8-7.2,11.2-5.6,9.6-16.8s6.4-8.8,6.4-8.8s0,0-0.8-0.8c-0.8,0-1.6,0-2.4,0
	C218.575,97.775,204.175,119.375,204.175,146.575z"/>
<path id="SVGCleanerId_0" style="fill:#F2F0DA;" d="M233.775,194.575c-10.4,4.8-22.4,8-35.2,8s-24.8-2.4-35.2-8c-1.6,0-4,0.8-5.6,0
	c-8.8,33.6-12.8,80-12.8,80h53.6l0,0h53.6c0,0-4-46.4-12.8-80C236.975,195.375,235.375,194.575,233.775,194.575z"/>
<g>
	<path id="SVGCleanerId_0_1_" style="fill:#F2F0DA;" d="M233.775,194.575c-10.4,4.8-22.4,8-35.2,8s-24.8-2.4-35.2-8
		c-1.6,0-4,0.8-5.6,0c-8.8,33.6-12.8,80-12.8,80h53.6l0,0h53.6c0,0-4-46.4-12.8-80C236.975,195.375,235.375,194.575,233.775,194.575
		z"/>
</g>
<path style="fill:#EAE7C7;" d="M198.575,234.575L198.575,234.575h-48.8c-3.2,24-4.8,40-4.8,40h53.6l0,0h53.6c0,0-1.6-16-4.8-40
	H198.575z"/>
<g>
	<path style="fill:#FFFEEE;" d="M255.375,270.575c0,1.6-1.6,4-3.2,4h-108c-1.6,0-3.2-2.4-3.2-4l0,0c0-1.6,1.6-4,3.2-4h108
		C253.775,266.575,255.375,268.975,255.375,270.575L255.375,270.575z"/>
	<circle style="fill:#FFFEEE;" cx="160.175" cy="209.775" r="2.4"/>
	<circle style="fill:#FFFEEE;" cx="169.775" cy="209.775" r="2.4"/>
	<circle style="fill:#FFFEEE;" cx="179.375" cy="209.775" r="2.4"/>
	<circle style="fill:#FFFEEE;" cx="188.975" cy="209.775" r="2.4"/>
	<circle style="fill:#FFFEEE;" cx="197.775" cy="209.775" r="2.4"/>
	<circle style="fill:#FFFEEE;" cx="207.375" cy="209.775" r="2.4"/>
	<circle style="fill:#FFFEEE;" cx="216.975" cy="209.775" r="2.4"/>
	<circle style="fill:#FFFEEE;" cx="226.575" cy="209.775" r="2.4"/>
	<circle style="fill:#FFFEEE;" cx="236.175" cy="209.775" r="2.4"/>
	<circle style="fill:#FFFEEE;" cx="160.175" cy="217.775" r="2.4"/>
	<circle style="fill:#FFFEEE;" cx="169.775" cy="217.775" r="2.4"/>
	<circle style="fill:#FFFEEE;" cx="179.375" cy="217.775" r="2.4"/>
	<circle style="fill:#FFFEEE;" cx="188.975" cy="217.775" r="2.4"/>
	<circle style="fill:#FFFEEE;" cx="197.775" cy="217.775" r="2.4"/>
	<circle style="fill:#FFFEEE;" cx="207.375" cy="217.775" r="2.4"/>
	<circle style="fill:#FFFEEE;" cx="216.975" cy="217.775" r="2.4"/>
	<circle style="fill:#FFFEEE;" cx="226.575" cy="217.775" r="2.4"/>
	<circle style="fill:#FFFEEE;" cx="236.175" cy="217.775" r="2.4"/>
	<circle style="fill:#FFFEEE;" cx="160.175" cy="226.575" r="2.4"/>
	<circle style="fill:#FFFEEE;" cx="169.775" cy="226.575" r="2.4"/>
	<circle style="fill:#FFFEEE;" cx="179.375" cy="226.575" r="2.4"/>
	<circle style="fill:#FFFEEE;" cx="188.975" cy="226.575" r="2.4"/>
	<circle style="fill:#FFFEEE;" cx="197.775" cy="226.575" r="2.4"/>
	<circle style="fill:#FFFEEE;" cx="207.375" cy="226.575" r="2.4"/>
	<circle style="fill:#FFFEEE;" cx="216.975" cy="226.575" r="2.4"/>
	<circle style="fill:#FFFEEE;" cx="226.575" cy="226.575" r="2.4"/>
	<circle style="fill:#FFFEEE;" cx="236.175" cy="226.575" r="2.4"/>
</g>
<g>
	<path style="fill:#542D0E;" d="M334.575,306.575c0,3.2-2.4,8-5.6,8h-62.4c-3.2,0-5.6-4.8-5.6-8l0,0c0-3.2,2.4-8,5.6-8h62.4
		C332.175,298.575,334.575,303.375,334.575,306.575L334.575,306.575z"/>
	<path style="fill:#542D0E;" d="M308.975,83.375c0,3.2-5.6,7.2-8,7.2h-8c-2.4,0-8-4-8-7.2l4.8-33.6c0-2.4,1.6-7.2,4-7.2h8
		c2.4,0,4,4.8,4,7.2L308.975,83.375z"/>
	<polygon style="fill:#542D0E;" points="258.575,178.575 266.575,130.575 258.575,82.575 336.975,82.575 328.975,130.575 
		336.975,178.575 	"/>
</g>
<polygon style="fill:#874B22;" points="284.175,59.375 251.375,72.175 244.175,98.575 296.175,98.575 "/>
<polygon style="fill:#542D0E;" points="284.175,59.375 256.975,75.375 244.175,98.575 296.175,98.575 "/>
<polygon style="fill:#D6D6D6;" points="284.975,55.375 276.975,58.575 282.575,73.775 297.775,95.375 297.775,64.175 "/>
<polygon style="fill:#FFFFFF;" points="284.975,55.375 296.975,64.175 281.775,72.175 "/>
<polygon style="fill:#874B22;" points="310.575,59.375 344.175,72.175 350.575,98.575 298.575,98.575 "/>
<polygon style="fill:#542D0E;" points="310.575,59.375 337.775,75.375 350.575,98.575 298.575,98.575 "/>
<polygon style="fill:#D6D6D6;" points="310.575,55.375 318.575,58.575 312.175,73.775 297.775,95.375 297.775,64.175 "/>
<polygon style="fill:#FFFFFF;" points="310.575,55.375 297.775,64.175 312.975,72.175 "/>
<polygon style="fill:#D6D6D6;" points="308.175,74.575 297.775,97.775 286.575,74.575 297.775,63.375 "/>
<polygon style="fill:#EF4391;" points="297.775,70.575 297.775,64.975 281.775,59.375 281.775,75.375 "/>
<polygon style="fill:#D81665;" points="296.175,70.575 296.175,64.975 284.175,65.775 281.775,75.375 "/>
<polygon style="fill:#BC085A;" points="296.175,70.575 296.175,64.975 286.575,70.575 281.775,75.375 "/>
<polygon style="fill:#EF4391;" points="297.775,70.575 297.775,64.975 313.775,59.375 313.775,75.375 "/>
<polygon style="fill:#D81665;" points="298.575,70.575 298.575,64.975 311.375,65.775 313.775,75.375 "/>
<polygon style="fill:#BC085A;" points="298.575,70.575 298.575,64.975 308.175,70.575 313.775,75.375 "/>
<path style="fill:#D81665;" d="M299.375,69.775c0,0.8-0.8,1.6-1.6,1.6l0,0c-0.8,0-1.6-0.8-1.6-1.6v-4c0-0.8,0.8-1.6,1.6-1.6l0,0
	c0.8,0,1.6,0.8,1.6,1.6V69.775z"/>
<path style="fill:#BC085A;" d="M299.375,65.775v4c0,0.8-0.8,1.6-1.6,1.6l0,0c-0.8,0-1.6-0.8-1.6-1.6v-4"/>
<circle style="fill:#542D0E;" cx="297.775" cy="80.975" r="2.4"/>
<g>
	<circle style="fill:#D6D6D6;" cx="297.775" cy="105.775" r="2.4"/>
	<circle style="fill:#D6D6D6;" cx="297.775" cy="130.575" r="2.4"/>
	<circle style="fill:#D6D6D6;" cx="297.775" cy="155.375" r="2.4"/>
</g>
<g>
	<polygon style="fill:#542D0E;" points="289.775,298.575 273.775,298.575 264.975,170.575 289.775,170.575 	"/>
	<polygon style="fill:#542D0E;" points="305.775,298.575 321.775,298.575 330.575,170.575 305.775,170.575 	"/>
	<rect x="281.775" y="170.575" style="fill:#542D0E;" width="32" height="32"/>
	<polygon style="fill:#542D0E;" points="248.975,142.575 266.575,90.575 245.775,93.775 233.775,134.575 	"/>
	<polygon style="fill:#542D0E;" points="360.975,134.575 349.775,94.575 328.175,90.575 346.575,142.575 	"/>
</g>
<path style="fill:#F4CF31;" d="M425.775,410.575c0,26.4-23.2,32-49.6,32h-250.4c-26.4,0-44-5.6-44-32v-66.4
	c0-26.4,2.4-38.4,28.8-38.4h281.6c26.4,0,33.6,12,33.6,38.4L425.775,410.575L425.775,410.575z"/>
<path id="SVGCleanerId_1" style="fill:#E0B814;" d="M425.775,346.575v64c0,26.4-23.2,32-49.6,32h-250.4c-26.4,0-44-5.6-44-32v-64"/>
<g>
	<path id="SVGCleanerId_1_1_" style="fill:#E0B814;" d="M425.775,346.575v64c0,26.4-23.2,32-49.6,32h-250.4c-26.4,0-44-5.6-44-32
		v-64"/>
</g>
<path style="fill:#F4CF31;" d="M1.775,498.575h496v-65.6c0-37.6,12-54.4-26.4-54.4h-443.2c-38.4,0-26.4,16-26.4,54.4V498.575z"/>
<polyline style="fill:#E0B814;" points="1.775,434.575 1.775,498.575 497.775,498.575 497.775,434.575 "/>
<g>
	<polyline style="fill:#F4ECCB;" points="1.775,434.575 1.775,442.575 497.775,442.575 497.775,434.575 	"/>
	<polyline style="fill:#F4ECCB;" points="81.775,354.575 81.775,362.575 425.775,362.575 425.775,354.575 	"/>
	<polyline style="fill:#F4ECCB;" points="1.775,458.575 1.775,466.575 497.775,466.575 497.775,458.575 	"/>
</g>
<g>
	<circle style="fill:#AA6F48;" cx="28.975" cy="407.375" r="7.2"/>
	<circle style="fill:#AA6F48;" cx="63.375" cy="407.375" r="7.2"/>
	<circle style="fill:#AA6F48;" cx="96.975" cy="407.375" r="7.2"/>
	<circle style="fill:#AA6F48;" cx="131.375" cy="407.375" r="7.2"/>
	<circle style="fill:#AA6F48;" cx="164.975" cy="407.375" r="7.2"/>
	<circle style="fill:#AA6F48;" cx="198.575" cy="407.375" r="7.2"/>
	<circle style="fill:#AA6F48;" cx="232.975" cy="407.375" r="7.2"/>
	<circle style="fill:#AA6F48;" cx="266.575" cy="407.375" r="7.2"/>
	<circle style="fill:#AA6F48;" cx="300.975" cy="407.375" r="7.2"/>
	<circle style="fill:#AA6F48;" cx="334.575" cy="407.375" r="7.2"/>
	<circle style="fill:#AA6F48;" cx="368.175" cy="407.375" r="7.2"/>
	<circle style="fill:#AA6F48;" cx="402.575" cy="407.375" r="7.2"/>
	<circle style="fill:#AA6F48;" cx="436.175" cy="407.375" r="7.2"/>
	<circle style="fill:#AA6F48;" cx="470.575" cy="407.375" r="7.2"/>
	<circle style="fill:#AA6F48;" cx="115.375" cy="335.375" r="7.2"/>
	<circle style="fill:#AA6F48;" cx="148.975" cy="335.375" r="7.2"/>
	<circle style="fill:#AA6F48;" cx="183.375" cy="335.375" r="7.2"/>
	<circle style="fill:#AA6F48;" cx="216.975" cy="335.375" r="7.2"/>
	<circle style="fill:#AA6F48;" cx="251.375" cy="335.375" r="7.2"/>
	<circle style="fill:#AA6F48;" cx="284.975" cy="335.375" r="7.2"/>
	<circle style="fill:#AA6F48;" cx="319.375" cy="335.375" r="7.2"/>
	<circle style="fill:#AA6F48;" cx="352.975" cy="335.375" r="7.2"/>
	<circle style="fill:#AA6F48;" cx="386.575" cy="335.375" r="7.2"/>
</g>
<g>
	<path style="fill:#F9E84E;" d="M481.775,382.575c0,2.4-1.6,4-4,4h-456c-2.4,0-4-1.6-4-4l0,0c0-2.4,1.6-4,4-4h456
		C480.175,378.575,481.775,380.175,481.775,382.575L481.775,382.575z"/>
	<path style="fill:#F9E84E;" d="M401.775,310.575c0,2.4-1.6,4-4,4h-288c-2.4,0-4-1.6-4-4l0,0c0-2.4,1.6-4,4-4h288
		C400.175,306.575,401.775,308.175,401.775,310.575L401.775,310.575z"/>
</g>
<g>
	<path style="fill:#542D0E;" d="M264.175,302.575c0,0-8.8,4.8-2.4,12s4-4,5.6,6.4s5.6,22.4,11.2,9.6s9.6-19.2,24-12.8
		c14.4,6.4,13.6,5.6,19.2-0.8c5.6-5.6,24.8-5.6,30.4,9.6s14.4,6.4,14.4-0.8c0,0,8,0.8,9.6,15.2c1.6,13.6,12,4.8,13.6-0.8
		c0.8-5.6,20-1.6,21.6,11.2c1.6,12.8,4,12,5.6,10.4s1.6-1.6,1.6-1.6v8.8c0,0,7.2,9.6,8.8-0.8c1.6-10.4,2.4-60.8-8.8-60.8h-82.4
		L264.175,302.575z"/>
	
		<rect x="38.318" y="474.561" transform="matrix(-0.7071 0.7071 -0.7071 -0.7071 417.3946 789.8317)" style="fill:#542D0E;" width="13.6" height="13.6"/>
	
		<rect x="96.732" y="474.594" transform="matrix(-0.7071 0.7071 -0.7071 -0.7071 517.1382 748.5832)" style="fill:#542D0E;" width="13.6" height="13.6"/>
	
		<rect x="155.123" y="474.62" transform="matrix(-0.7071 0.7071 -0.7071 -0.7071 616.8351 707.3381)" style="fill:#542D0E;" width="13.6" height="13.6"/>
	
		<rect x="213.538" y="474.653" transform="matrix(-0.7071 0.7071 -0.7071 -0.7071 716.5788 666.0897)" style="fill:#542D0E;" width="13.6" height="13.6"/>
	
		<rect x="271.944" y="474.647" transform="matrix(-0.7071 0.7071 -0.7071 -0.7071 816.2805 624.7786)" style="fill:#542D0E;" width="13.6" height="13.6"/>
	
		<rect x="330.359" y="474.712" transform="matrix(-0.7071 0.7071 -0.7071 -0.7071 916.0466 583.5848)" style="fill:#542D0E;" width="13.6" height="13.6"/>
	
		<rect x="388.766" y="474.777" transform="matrix(-0.7071 0.7071 -0.7071 -0.7071 1015.7993 542.3966)" style="fill:#542D0E;" width="13.6" height="13.6"/>
	
		<rect x="447.22" y="474.763" transform="matrix(-0.7071 0.7071 -0.7071 -0.7071 1115.5773 501.038)" style="fill:#542D0E;" width="13.6" height="13.6"/>
</g>
</svg>