<svg id="Capa_1" enable-background="new 0 0 512 512" height="512" viewBox="0 0 512 512" width="512" xmlns="http://www.w3.org/2000/svg"><g><path d="m36.479 229.756h15v-22.5h46.353c39.151 0 74.424 12.91 102.006 37.333l9.944-11.229c-30.367-26.891-69.079-41.104-111.95-41.104h-3.99c.608-11.34 2.451-22.885 5.543-34.428l11.997-44.773 44.773 11.997c9.482 2.541 18.6 5.838 27.217 9.814-9.694 17.131-16.304 35.574-19.279 54.308l14.814 2.353c4.884-30.762 20.623-60.753 44.317-84.447l32.776-32.774 32.776 32.776c23.749 23.748 39.499 53.809 44.348 84.645l14.817-2.33c-2.933-18.648-9.466-37.007-19.058-54.076 8.894-4.175 18.341-7.627 28.197-10.267l44.773-11.997 11.997 44.773c3.092 11.542 4.935 23.086 5.543 34.427h-5.224c-.003 0 .002 0-.002 0-41.025 0-72.114 12.688-94.551 27.699l.141-4.806c.465-23.837-6.34-47.951-19.68-69.734l-12.792 7.834c11.841 19.335 17.884 40.639 17.477 61.534l-.492 16.802c-3.08 2.635-5.928 5.263-8.533 7.831l-.077.077c-14.329 14.538-30.481 36.379-39.678 66.576-6.974-22.915-18.722-43.736-34.945-61.608l-11.106 10.082c25.232 27.797 38.569 63.546 38.569 103.383h.001v46.352h-46.353c-53.222 0-88.029-23.268-107.865-42.804-19.537-19.836-42.805-54.643-42.804-107.865v-8.853h-15v8.853c0 58.341 25.646 96.605 47.16 118.433l.077.077c21.827 21.514 60.092 47.16 118.433 47.16h46.351 7.5 37.499v-15h-29.999v-46.352c0-53.222 23.268-88.029 42.804-107.865 19.836-19.537 54.644-42.804 107.865-42.804h46.352v22.787h15v-37.787h-41.108c-.618-12.64-2.641-25.49-6.075-38.309l-15.878-59.264-59.262 15.879c-11.292 3.025-22.108 7.037-32.262 11.928-6.282-9.227-13.497-17.961-21.554-26.018l-43.382-43.382-43.382 43.383c-7.927 7.927-15.038 16.513-21.249 25.578-9.894-4.695-20.398-8.559-31.332-11.488l-59.262-15.88-15.879 59.262c-3.435 12.82-5.458 25.671-6.076 38.309h-42.342z"/><path d="m308.5 404.279v15h1.353c58.34 0 96.605-25.646 118.433-47.16l.077-.077c21.514-21.827 47.16-60.092 47.16-118.433v-8.565h-15v8.565c0 53.223-23.268 88.029-42.805 107.865-19.836 19.536-54.643 42.804-107.865 42.804h-1.353z"/><path d="m445.516 254.968-14.999-.123c-.044 5.336-.375 10.642-.982 15.771l14.896 1.767c.672-5.673 1.037-11.532 1.085-17.415z"/><path d="m396.504 340.262 10.606 10.606c17.349-17.349 28.997-38.515 34.618-62.91l-14.617-3.368c-4.979 21.611-15.277 40.342-30.607 55.672z"/><path d="m430.127 387.276-1.92 14.876c49.65 6.41 63.887 13.462 67.739 16.242-3.975 2.871-19.004 10.293-72.574 16.847-45.684 5.589-105.125 8.667-167.373 8.667-43.932 0-87.082-1.55-124.785-4.483l-1.163 14.955c38.083 2.962 81.634 4.528 125.948 4.528 66.697 0 129.451-3.458 176.704-9.735 69.876-9.284 79.297-20.769 79.297-30.78 0-10.161-9.727-21.804-81.873-31.117z"/><path d="m16.064 418.387c3.803-2.736 17.65-9.591 65.27-15.913l-1.974-14.869c-69.931 9.284-79.36 20.773-79.36 30.788 0 9.966 10.558 16.82 35.302 22.919 19.111 4.711 46.672 8.791 79.705 11.798l1.36-14.938c-29.383-2.675-54.461-6.224-72.522-10.262-18.298-4.09-25.255-7.717-27.781-9.523z"/><path d="m233.5 357.927c0-26.071-5.981-49.731-17.775-70.326l-13.017 7.455c10.479 18.295 15.792 39.448 15.792 62.871z"/><path d="m185.296 272.097c3.468 3.538 6.723 7.317 9.674 11.232l11.979-9.028c-3.34-4.431-7.021-8.705-10.941-12.705z"/><path d="m280.084 119.638-10.793 10.417c3.518 3.645 6.862 7.518 9.94 11.511l11.881-9.156c-3.415-4.431-7.126-8.728-11.028-12.772z"/></g></svg>