<svg id="Capa_1" enable-background="new 0 0 511.966 511.966" height="512" viewBox="0 0 511.966 511.966" width="512" xmlns="http://www.w3.org/2000/svg"><g><path d="m184.995 169.546c-.403-4.65-.6-9.271-.64-13.861l64.146 33.332v12.287h15v-72.287l55.5-28.84c1.133 3.418 2.166 6.898 3.088 10.44l14.516-3.78c-11.67-44.817-39.021-80.922-77.011-101.664l-3.594-1.962-3.594 1.962c-28.768 15.707-51.616 40.332-66.076 71.212-13.503 28.837-19.132 61.5-16.279 94.455zm78.506-144.426c7.199 4.882 13.898 10.427 20.034 16.582l-20.034 10.41zm-15 26.993-19.949-10.366c6.105-6.146 12.769-11.708 19.949-16.598zm15 60v-43.096l30.327-15.759c7.852 9.847 14.493 20.853 19.761 32.828zm-45.234-58.806 30.234 15.71v43.096l-8.303-4.314-6.916 13.311 15.219 7.908v43.096l-63.516-33.005c2.779-32.362 14.505-62.236 33.282-85.802z"/><path d="m328.861 225.075c13.095-31.693 17.017-68.259 11.045-102.96l-14.782 2.544c.813 4.725 1.427 9.561 1.844 14.474l-44.307 23.023 6.916 13.311 38.014-19.753c-.138 15.382-2.256 31.181-6.618 46.535l-57.473 29.864v-15.808h-15v15.808l-18.004-9.355-6.916 13.311 24.92 12.949v34.57c-21.628-14.708-38.737-35.589-49.832-60.464l11.6 6.028 6.916-13.311-26.118-13.571c-1.732-5.995-3.156-12.153-4.232-18.462l-14.786 2.521c8.493 49.799 36.254 91.456 76.452 115.006v38.349h15v-38.355c29.225-17.094 51.773-43.366 65.361-76.254zm-15.338-2.051c-10.317 23.509-26.636 44.874-50.023 60.609v-34.616z"/><path d="m248.501 454.843-25.26-31.825c16.22-61.172-7.704-128.672-61.661-172.981l-9.52 11.592c17.597 14.45 31.695 31.561 41.918 50.102l-19.537 61.803-10.026-10.026-10.606 10.606 10.026 10.026-61.717 19.51c-13.638-7.532-26.377-17.053-37.691-28.192l31.11-9.834-4.521-14.302-37.835 11.96c-5.799-6.903-11.091-14.274-15.771-22.055-11.902-19.791-19.128-40.888-21.514-62.103l32.614-10.31 30.523 30.523-34.753 11.18 4.594 14.279 42.081-13.538 30.455 30.455-16.088 5.086 4.521 14.302 23.52-7.435 9.841 9.841 10.606-10.606-9.841-9.841 7.731-24.457-14.302-4.521-5.382 17.026-30.474-30.474 7.77-24.579-14.302-4.521-5.421 17.147-30.473-30.473 10.28-32.52c12.538 1.418 25.032 4.516 37.192 9.219l-7.057 22.323 14.302 4.521 6.555-20.736c6.903 3.452 13.657 7.432 20.198 11.953l8.529-12.339c-42.138-29.126-92.404-38.167-137.908-24.802l-3.929 1.154-1.154 3.929c-12.394 42.203-5.849 87.678 18.429 128.048 26.421 43.932 70.762 76.019 118.613 85.832l3.014-14.694c-8.13-1.667-16.152-4.044-23.981-7.061l53.587-16.939 24.463 24.463c-13.088 2.518-26.486 3.093-39.984 1.698l-1.541 14.921c5.313.548 10.61.822 15.886.822 12.713 0 25.292-1.596 37.586-4.763l36.301 45.737v29.784h15v-154.075h-15v100.16zm-233.483-191.174c-.01-8.689.805-17.349 2.448-25.898l19.09 19.09zm38.93-38.882-6.786 21.467-19.077-19.077c8.519-1.619 17.172-2.417 25.863-2.39zm149.392 107.092c9.63 25.204 12.433 52.099 7.489 78.042l-24.435-24.435z"/><path d="m505.874 220.907-1.154-3.929-3.929-1.154c-41.709-12.25-86.745-5.959-126.813 17.711l7.629 12.915c3.299-1.949 6.633-3.768 9.998-5.458l18.853 59.639-9.645 9.646 10.606 10.606 52.071-52.072 32.457 10.26c-1.43 12.571-4.525 25.07-9.201 37.198l-40.245-12.722-4.521 14.302 38.676 12.226c-7.959 15.971-18.735 31.046-32.143 44.454-11.775 11.775-24.837 21.516-38.66 29.109l-61.688-19.5 30.473-30.473 21.999 6.954 4.521-14.302-14.567-4.605 10.281-10.281-10.606-10.606-10.281 10.281-8.641-27.337-14.302 4.521 10.991 34.768-30.473 30.473-19.512-61.726c7.773-13.953 17.444-26.632 28.218-37.608l6.255 19.788 14.302-4.521-8.394-26.554c3.638-3.071 7.356-5.958 11.131-8.641l-8.689-12.227c-28.629 20.347-51.591 48.953-64.654 80.548-13.631 32.969-16.185 67.605-7.457 100.429l-13.785 17.368 11.749 9.325 13.081-16.481c12.3 3.162 24.936 4.747 37.664 4.746 15.592 0 31.318-2.372 46.7-7.109 27.622-8.507 53.541-24.321 74.953-45.733 21.413-21.413 37.228-47.331 45.736-74.954 9.119-29.613 9.471-60.484 1.016-89.274zm-197.249 110.862 16.981 53.717-24.477 24.477c-5.4-27.638-1.827-54.278 7.496-78.194zm3.148 88.762 24.439-24.439 53.458 16.899c-25.283 9.633-52.165 12.412-77.897 7.54zm146.258-195.806c8.691-.013 17.349.802 25.893 2.441l-19.087 19.087zm-52.634 10.134c12.192-4.744 24.67-7.833 37.184-9.244l10.303 32.591-30.474 30.474zm70.046 22.001 19.074-19.074c1.614 8.522 2.383 17.17 2.347 25.846z"/><path d="m143.399 286.833h16.134v15h-16.134z" transform="matrix(.297 -.955 .955 .297 -174.563 351.595)"/><path d="m210.19 96.767h15v15.576h-15z" transform="matrix(.461 -.887 .887 .461 24.53 249.502)"/><path d="m418.96 353.28h14.999v15.275h-14.999z" transform="matrix(.301 -.954 .954 .301 -46.222 658.744)"/></g></svg>