<svg id="Capa_1" enable-background="new 0 0 512 512" height="512" viewBox="0 0 512 512" width="512" xmlns="http://www.w3.org/2000/svg"><g><path d="m0 419.122h92.396v15h-92.396z"/><path d="m408.597 419.122h103.403v15h-103.403z"/><path d="m0 448.347h185.846v15h-185.846z"/><path d="m230.846 448.347h251.154v15h-251.154z"/><path d="m200.847 448.347h14.999v15h-14.999z"/><path d="m497.001 448.347h14.999v15h-14.999z"/><path d="m377.924 139.595 12.58-8.169c-23.979-36.924-60.831-62.966-106.573-75.309-42.641-11.506-89.004-9.66-130.548 5.198l5.051 14.124c82.273-29.424 176.629-1.842 219.49 64.156z"/><path d="m138.389 404.21c4.4.042 8.717.083 12.973.083 8.397 0 16.553-.161 24.61-.795l-1.176-14.953c-11.483.903-23.519.789-36.264.666-4.528-.043-9.212-.088-13.985-.088h-124.547v15h124.547c4.713 0 9.322.043 13.842.087z"/><path d="m191.552 401.578c22.985-3.995 42.459-13.284 61.284-29.233 30.194-25.582 47.512-62.931 47.512-102.47 0-37.097-15.575-72.893-42.731-98.209l-10.229 10.972c24.124 22.489 37.96 54.286 37.96 87.237 0 35.121-15.385 68.299-42.209 91.025-16.702 14.151-33.91 22.381-54.155 25.899z"/><path d="m500.282 389.123c-16.985-11.312-31.822-25.307-44.111-41.642l-11.986 9.018c9.103 12.1 19.501 23.011 31.045 32.625h-124.78c4.496-3.758 8.849-7.737 13.042-11.931 23.626-23.627 40.399-52.283 49.35-83.557 5.113 17.802 12.772 34.841 22.839 50.607l12.643-8.072c-17.88-28.004-27.537-60.362-28.007-93.737.011-.853.031-1.704.031-2.558 0-35.37-7.374-67.306-21.916-94.92l-13.271 6.989c13.396 25.437 20.188 55.021 20.188 87.931h-.054c0 .832.011 1.662.022 2.493-1.34 97.454-81.012 176.515-178.769 176.754h-89.149v15h226.199v-15h-62.413c9.959-4.173 19.57-9.18 28.738-15h182.077v-15z"/><path d="m35.816 279.098 14.416.997c8.359-23.607 30.811-39.467 55.868-39.467 32.67 0 59.248 26.579 59.248 59.248 0 21.4-7.307 36.605-22.338 46.482-12.89 8.47-31.078 12.765-54.061 12.765h-28.948v15h28.949c58.939 0 91.398-26.368 91.398-74.247 0-40.94-33.308-74.248-74.248-74.248-23.043 0-44.323 10.71-58.161 28.1 7.955-59.015 58.158-103.1 118.161-103.1 25.534 0 49.885 7.958 70.418 23.013l8.869-12.097c-23.124-16.954-50.541-25.916-79.287-25.916-33.355 0-65.336 12.316-90.049 34.679-10.781 9.756-19.806 21.073-26.829 33.473 9.133-55.666 42.479-99.165 95.826-122.95l-6.107-13.7c-34.486 15.376-62.499 39.512-81.01 69.799-20.796 34.026-29.32 74.419-25.336 120.056.648 7.408 1.731 14.847 3.221 22.113z"/><path d="m30.001 359.123h14.999v15h-14.999z"/><path d="m0 359.123h15v15h-15z"/><path d="m254.538 214.648-12.717 7.956c2.662 4.254 4.97 8.75 6.86 13.363l13.879-5.688c-2.211-5.397-4.911-10.656-8.022-15.631z"/><path d="m223.746 338.012 9.697 11.444c30.131-25.529 43.182-65.299 34.059-103.788l-14.596 3.46c7.815 32.966-3.359 67.024-29.16 88.884z"/><path d="m337.864 360.333-10.213-10.985c-11.716 10.892-24.991 19.771-39.455 26.391l6.242 13.64c15.924-7.288 30.535-17.06 43.426-29.046z"/><path d="m390.324 242.703c.572-34.335-7.611-66.234-23.666-92.247-15.599-25.273-38.603-45.101-66.526-57.34l-6.021 13.738c52.665 23.084 82.268 72.508 81.216 135.599z"/><path d="m270.166 83.287-3.332 14.625c4.711 1.073 9.399 2.371 13.938 3.857l4.67-14.254c-4.976-1.63-10.116-3.053-15.276-4.228z"/><path d="m359.328 336.037-12.162-8.779c-2.957 4.096-6.163 8.093-9.529 11.879l11.211 9.966c3.702-4.165 7.228-8.561 10.48-13.066z"/><path d="m408.559 359.122h15v15h-15z"/><path d="m138.871 181.78h15v15h-15z"/><path d="m170.397 91.643h15.001v15h-15.001z"/><path d="m107.396 419.122h15v15h-15z"/><path d="m378.597 419.122h14.999v15h-14.999z"/></g></svg>