<svg id="Capa_1" enable-background="new 0 0 512 512" height="512" viewBox="0 0 512 512" width="512" xmlns="http://www.w3.org/2000/svg"><g><path d="m248.5 497h45v15h-45z"/><path d="m218.5 497h15v15h-15z"/><path d="m354.18 378.288c57.83-67.824 102.942-162.839 117.616-221.643l3.491-13.99-13.458 5.173c-35.983 13.831-71.476 38.291-103.584 70.907 11.836-63.692 17.252-129.985 14.269-178.212l-1.033-16.707-11.78 11.892c-25.926 26.172-48.927 60.571-68.363 102.241l13.594 6.341c15.591-33.425 33.48-61.905 53.313-84.905.945 51.539-6.248 118.698-19.578 180.744-8.777 10.31-17.228 21.245-25.278 32.759-2.042 2.921-4.03 5.859-5.987 8.806l14.47-53.388-14.477-3.924-29.517 108.903.203.055c-9.618 20.26-17.061 40.494-22.081 60.053-.244-.949-.505-1.904-.76-2.856-4.531-70.373 11.3-157.758 43.872-233.27l-13.773-5.941c-12.089 28.026-21.924 57.682-29.34 87.57-20.6-82.987-58.239-157.295-103.701-203.187l-11.78-11.892-1.033 16.707c-1.723 27.844-.672 62.297 3.039 99.636l14.926-1.483c-2.865-28.839-4.115-55.852-3.692-79.256 43.681 50.86 78.506 129.524 94.615 214.825-4.529 24.675-7.356 49.129-8.383 72.577-1.924-4.501-3.946-9.009-6.088-13.52l.062-.017-29.517-108.903-14.477 3.924 14.362 52.988c-1.871-2.812-3.77-5.617-5.72-8.406-8.047-11.511-16.495-22.443-25.27-32.75-6.083-28.302-10.898-57.447-14.298-86.673l-14.898 1.732c2.479 21.318 5.711 42.592 9.615 63.544-32.109-32.619-67.604-57.082-103.59-70.914l-13.459-5.173 3.491 13.99c11.67 46.766 39.947 108.783 73.797 161.852l12.646-8.066c-29.555-46.334-54.714-99.487-67.783-142.61 87.065 40.661 158.349 140.99 181.625 226.217.4 5.676.929 11.244 1.587 16.692l-80.688-118.479-12.398 8.443 85.528 125.586c-32.392-19.04-67.023-54.797-99.756-103.451l-12.445 8.373c24.375 36.23 59.836 80.516 100.775 105.798h-101.091v15h268v-15h-101.15c18.108-11.203 36.578-27.005 55.205-47.272l-11.045-10.15c-19.071 20.752-37.775 36.462-55.867 46.969l85.709-125.852-12.398-8.443-83.806 123.057c16.181-89.081 92.05-203.372 186.474-247.48-17.454 57.349-58.672 140.112-110.356 200.728z"/><path d="m248.5 30h15v134.685h-15z"/><path d="m248.5 0h15v15h-15z"/><path d="m200.005 467h51.989v15h-51.989z"/><path d="m296.995 467h45v15h-45z"/><path d="m266.995 467h15v15h-15z"/><path d="m170.004 467h15v15h-15z"/><path d="m183.748 196.57h15.001v15.566h-15.001z" transform="matrix(.965 -.262 .262 .965 -46.786 57.126)"/><path d="m134.865 269.863h14.999v15.561h-14.999z" transform="matrix(.827 -.563 .563 .827 -131.594 128.31)"/><path d="m361.696 270.143h15.561v15h-15.561z" transform="matrix(.563 -.827 .827 .563 -67.976 426.752)"/><path d="m312.81 196.854h15.567v14.999h-15.567z" transform="matrix(.262 -.965 .965 .262 39.487 460.322)"/></g></svg>