<svg id="Capa_1" enable-background="new 0 0 512.246 512.246" height="512" viewBox="0 0 512.246 512.246" width="512" xmlns="http://www.w3.org/2000/svg"><g><path d="m126.639 497.246h15v15h-15z"/><path d="m263.623 405.32v-26.365l68.718-32.909-6.479-13.529-62.24 29.806v-50.868l149.874-71.775-6.479-13.529-143.395 68.672v-70.476h-15v17.984l-51.816-24.785-6.473 13.531 58.289 27.881v50.865l-149.739-71.711-6.479 13.529 156.219 74.814v78.868c-39.848 5.896-75.922 2.791-104.654-9.071l-5.725 13.865c21.096 8.71 45.643 13.109 72.462 13.108 12.204 0 24.883-.923 37.917-2.754v16.577c-9.096 32.705-32.072 49.969-49.388 60.196h-42.595v15h228.967v-15h-72.563c-10.435-6.18-19-12.697-26.091-19.894l-10.685 10.527c3.199 3.247 6.644 6.36 10.362 9.366h-61.103c13.491-10.948 23.635-23.458 30.594-37.729 2.755 5.671 5.998 11.058 9.711 16.127l12.101-8.865c-6.479-8.844-11.282-18.853-14.311-29.748v-16.55c37.926 5.318 73.075 2.847 102.13-7.238 32.978-11.447 58.293-32.781 73.21-61.697l-13.331-6.877c-25.904 50.223-84.753 72.147-162.008 60.654z"/><path d="m345.41 107.66c-33.673-30.82-65.497-59.96-81.786-91.528v-16.132h-15v16.133c-14.977 29.01-43.479 56.413-76.406 86.599l10.136 11.057c5.235-4.799 10.359-9.531 15.348-14.219l30.668 14.687 6.479-13.529-25.553-12.238c15.138-14.759 28.595-29.222 39.329-44.046v130.38l-87.25-41.785c3.347-3.094 6.663-6.135 9.919-9.12l-10.137-11.057c-46.429 42.57-104.21 95.549-104.21 164.55 0 58.221 23.176 101.743 67.022 125.864l7.229-13.143c-30.001-16.504-49.045-43.592-56.126-79.294l17.622 8.439 6.479-13.529-26.577-12.728c-.424-5.063-.649-10.263-.649-15.61 0-31.89 14.389-60.671 34.364-86.611l43.565 20.863 6.479-13.529-40.296-19.298c10.523-12.259 22.053-23.847 33.563-34.795l99.003 47.413v17.891h15v-32.891l68.241-32.681-6.479-13.529-61.762 29.578v-50.868l40.417-19.356c9.969 9.654 20.514 19.306 31.241 29.124 17.691 16.192 35.588 32.574 51.473 49.631l-78.992 37.83 6.479 13.529 82.925-39.714c25.166 29.433 43.133 61.117 43.133 97.412 0 .103-.003.205-.003.308l-73.673 35.398 6.496 13.52 66.382-31.895c-1.253 13.363-3.984 25.768-8.179 37.028l14.057 5.236c6.582-17.671 9.92-37.722 9.92-59.595-.001-69.171-55.866-120.303-109.891-169.75zm-81.786-63.163c8.343 11.55 18.253 22.759 29.124 33.88l-29.124 13.947z"/><path d="m174.947 303.257h15v101.382h-15z" transform="matrix(.432 -.902 .902 .432 -215.585 365.617)"/><path d="m108.831 314.671h15v15.227h-15z" transform="matrix(.432 -.902 .902 .432 -224.59 288.035)"/><path d="m341.914 322.08h15.147v15.001h-15.147z" transform="matrix(.905 -.425 .425 .905 -106.992 179.944)"/><path d="m282.064 215.429h16.202v15h-16.202z" transform="matrix(.902 -.432 .432 .902 -67.825 147.192)"/><path d="m165.843 207.173h15v14.867h-15z" transform="matrix(.434 -.901 .901 .434 -95.229 277.638)"/></g></svg>