<svg id="Capa_1" enable-background="new 0 0 512.2 512.2" height="512" viewBox="0 0 512.2 512.2" width="512" xmlns="http://www.w3.org/2000/svg"><g><path d="m80.657 353.721h164.158v15h-164.158z"/><path d="m65.657 353.721h-15c-19.661 0-35.657-15.996-35.657-35.658s15.996-35.657 35.657-35.657v-15c-27.932 0-50.657 22.725-50.657 50.657s22.725 50.657 50.657 50.657h15z"/><path d="m259.815 353.721h15v15h-15z"/><path d="m351.148 222.845c14.994 14.177 33.987 21.8 52.744 21.8 6.991 0 13.953-1.061 20.659-3.235l3.895-1.264 1.043-3.959c6.615-25.104-2.063-52.788-22.646-72.249-19.77-18.692-46.5-25.984-70.463-19.431l-41.909-26.652-8.049 12.656 40.828 25.965c-3.934 23.467 4.911 48.416 23.898 66.369zm45.391-48.008c15.457 14.615 22.648 34.743 19.346 53.432-18.48 4.347-38.976-1.709-54.431-16.323-12.84-12.14-19.969-28.084-20.124-43.847l21.973 20.775 10.305-10.898-21.974-20.776c15.749-.73 32.066 5.498 44.905 17.637z"/><path d="m377.305 191.383h14.999v15h-14.999z" transform="matrix(.687 -.727 .727 .687 -24.084 341.85)"/><path d="m140.164 315.439c28.325 0 53.651-14.155 66.092-36.939l1.962-3.594-1.962-3.594c-12.44-22.785-37.764-36.94-66.09-36.94-.002 0 .001 0-.001 0-28.324 0-53.65 14.155-66.091 36.94l-1.962 3.594 1.962 3.594c12.441 22.785 37.764 36.939 66.09 36.939zm.002-66.067c21.271 0 40.325 9.685 50.764 25.534-10.438 15.849-29.493 25.534-50.766 25.534-17.663-.001-33.779-6.695-44.721-18.034h30.214v-15h-30.214c10.942-11.34 27.059-18.034 44.723-18.034z"/><path d="m140.657 267.406h15v15h-15z"/><path d="m289.814 353.721h192.386v15h-192.386z"/><path d="m497.2 353.721h15v15h-15z"/><path d="m376.309 308.721h135.892v15h-135.892z"/><path d="m289.814 323.721h71.494v-15h-71.494c-19.661 0-35.657-15.996-35.657-35.657h-15c0 27.932 22.725 50.657 50.657 50.657z"/><path d="m61.719 398.72h15v15h-15z"/><path d="m91.719 398.72h280.681v15h-280.681z"/><path d="m417.4 398.72h94.8v15h-94.8z"/><path d="m387.399 398.72h15v15h-15z"/><path d="m497.2 443.719h15v15h-15z"/><path d="m136.717 443.719h90.601v15h-90.601z"/><path d="m272.317 443.719h209.883v15h-209.883z"/><path d="m242.317 443.719h15v15h-15z"/><path d="m186.785 92.285h15v15.001h-15z" transform="matrix(.707 -.707 .707 .707 -13.654 166.607)"/><path d="m132.058 172.619 16.783-16.783c4.744 1.043 9.572 1.559 14.411 1.559 19.385 0 38.952-8.204 54.042-23.295 20.03-20.029 27.929-47.945 20.614-72.854l-1.154-3.929-3.929-1.154c-24.908-7.313-52.823.583-72.854 20.611-18.858 18.857-26.958 44.705-21.737 68.453l-16.785 16.785zm38.52-85.238c15.041-15.041 35.363-21.665 53.951-17.84 3.826 18.589-2.8 38.911-17.842 53.952-12.494 12.494-28.629 19.173-44.391 18.887l21.382-21.382-10.607-10.607-21.381 21.381c-.286-15.76 6.394-31.897 18.888-44.391z"/></g></svg>