<svg id="Capa_1" enable-background="new 0 0 512.007 512.007" height="512" viewBox="0 0 512.007 512.007" width="512" xmlns="http://www.w3.org/2000/svg"><g><path d="m482.766 450.418h15v15h-15z"/><path d="m255.148 431.203-11.379-9.773c-17.182 20.008-39.035 30.007-63.245 28.905-8.431-.383-11.198-2.823-14.701-5.912-3.966-3.496-8.901-7.849-19.287-7.849-10.387 0-15.321 4.353-19.287 7.849-3.503 3.09-6.271 5.529-14.7 5.912-1.233.056-2.444.082-3.646.083h-.163c-43.09-.045-66.494-34.64-76.732-55.677-24.844-51.049-21.954-119.441 6.443-152.456l-11.373-9.781c-32.484 37.767-36.242 111.914-8.558 168.801 9.571 19.667 22.517 35.828 37.437 46.734 1.128.824 2.269 1.612 3.417 2.378h-45.076v15h256.241v-15h-36.872c7.7-5.132 14.895-11.545 21.481-19.214z"/><path d="m39.08 221.111 9.082 11.938c22.817-17.358 55.661-15.985 94.98 3.968l3.394 1.722 3.394-1.722c30.555-15.505 56.754-19.856 77.871-12.936l4.672-14.254c-22.347-7.323-48.694-4.401-78.437 8.66v-72.269c18.323-.915 38.663-11.118 55.95-28.407 19.965-19.966 30.491-44.004 28.158-64.303l-.681-5.915-5.914-.68c-16.612-1.909-35.553 4.657-53.349 18.486l9.205 11.844c12.063-9.375 24.82-14.843 35.976-15.566-.928 14.366-9.702 31.228-24.003 45.528-14.3 14.3-31.159 23.075-45.526 24.005.927-14.041 9.379-30.566 23.143-44.655l-10.73-10.482c-19.138 19.592-29.283 43.02-27.229 62.791v11.985c-6.133-8.858-13.879-17.223-22.82-24.39-17.912-14.358-37.847-21.484-54.692-19.546l-5.914.681-.681 5.914c-2.097 18.231 6.176 39.537 22.696 58.453l11.297-9.867c-11.516-13.187-18.4-27.826-19.227-40.422 11.537.737 24.719 6.535 37.139 16.49 17.691 14.182 30.294 34.168 32.202 51.018v1.989c-12.555-.88-27.105-7.731-40.229-19.192l-9.867 11.299c16.094 14.054 33.91 22.125 50.097 22.935v12.29c-50.233-22.031-81.905-11.123-99.957 2.61z"/><path d="m480.106 247.677-8.799 12.148c40.128 29.063 28.166 84.163-1.489 125.877-18.684 26.281-44.139 47.248-69.84 57.525-19.866 7.946-49.453 13.294-77.58-6.332-6.922-4.829-7.956-8.37-9.267-12.853-1.482-5.075-3.329-11.392-12.106-16.941-8.778-5.55-15.276-4.511-20.497-3.675-4.611.74-8.255 1.323-15.585-2.86-28.546-16.286-36.8-43.696-38.697-63.822l-14.934 1.408c1.852 19.643 7.993 36.649 18.069 50.486-6.595 9.322-14.265 17.311-21.954 22.806l8.721 12.203c9.765-6.978 17.584-15.701 23.354-23.422 5.309 5.081 11.318 9.554 18.007 13.37 11.919 6.799 19.704 5.554 25.39 4.643 4.204-.673 6.122-.979 10.109 1.541 3.987 2.521 4.532 4.386 5.726 8.471 1.615 5.526 3.827 13.095 15.08 20.946.602.42 1.211.817 1.818 1.221h-30.092v15h182.227v-15h-47.884c23.213-12.514 45.298-32.303 62.161-56.023 17.999-25.318 28.596-52.947 29.837-77.799 1.447-28.982-9.541-52.813-31.775-68.918z"/><path d="m225.793 322.637c.654-28.628 10.868-60.296 28.021-86.884 17.294-26.807 39.994-45.543 62.278-51.405 32.556-8.567 63.234 9.51 88.714 52.27l1.947 3.27 3.789.358c19.311 1.825 35.784 6.051 48.963 12.56l6.643-13.449c-11.95-5.901-26.122-10.11-42.237-12.57l53.8-85.086-12.678-8.016-13.145 20.79c-.559-10.036-2.606-20.532-6.171-30.835-8.466-24.465-23.328-42.613-40.777-49.792l-5.506-2.266-3.455 4.848c-9.459 13.271-12.953 32.506-9.841 54.164l14.848-2.135c-2.095-14.57-.644-27.921 3.969-37.739 10.969 7.018 20.646 20.655 26.587 37.824 7.244 20.936 7.43 42.3.639 56.663-12.142-7.771-22.662-23.629-28.258-43.095l-14.416 4.145c6.706 23.33 19.422 42.004 34.859 51.747l-13.133 20.769c-13.422-19.884-28.325-34.21-44.417-42.626-17.434-9.118-35.784-11.239-54.539-6.306-26.243 6.904-51.482 27.425-71.066 57.78-18.611 28.849-29.697 63.355-30.413 94.672z"/><path d="m415.953 400.674 8.367 12.449c23.645-15.892 52.224-56.321 57.081-91.179l-14.855-2.07c-4.12 29.551-30.108 67.032-50.593 80.8z"/><path d="m472.597 282.298-11.74 9.336c3.254 4.092 5.261 9.202 5.967 15.188l14.896-1.756c-1.037-8.799-4.106-16.459-9.123-22.768z"/><path d="m308.726 227.024h15v15h-15z"/><path d="m73.225 264.224h15v15h-15z"/><path d="m308.726 272.023h15v15h-15z"/><path d="m331.225 249.524h15.001v15h-15.001z"/><path d="m286.226 249.524h15v15h-15z"/><path d="m73.225 309.223h15v15h-15z"/><path d="m95.725 286.724h15v15h-15z"/><path d="m50.726 286.724h15v15h-15z"/><path d="m181.885 420.365-.682 14.984c.67.03 1.341.046 2.014.046 6.006 0 12.126-1.213 18.221-3.614l-5.498-13.955c-4.8 1.89-9.533 2.747-14.055 2.539z"/></g></svg>