<svg id="Capa_1" enable-background="new 0 0 511.999 511.999" height="512" viewBox="0 0 511.999 511.999" width="512" xmlns="http://www.w3.org/2000/svg"><g><path d="m154.738 138.236c26.858-10.301 61.309 10.653 81.063 48.889-.202.682-.41 1.362-.603 2.047-1.513 5.359-2.733 10.82-3.668 16.312-3.898-5.652-7.753-10.942-10.137-14.17l-12.064 8.914c9.679 13.099 17.134 24.242 19.986 29.83-.073 7.52.416 14.901 1.503 21.949l14.824-2.287c-2.723-17.653-1.305-37.709 3.992-56.473 4.813-17.046 12.621-32.887 22.581-45.812l-11.881-9.156c-6.983 9.062-13.008 19.377-17.845 30.472-10.05-15.652-22.725-28.507-36.689-36.982-19.002-11.533-39.044-14.209-56.435-7.537-21.623 8.297-35.323 26.354-39.622 52.218l14.797 2.459c3.426-20.615 13.586-34.298 30.198-40.673z"/><path d="m511.999 278.548c0-14.074-7.524-26.209-22.363-36.068l-8.301 12.494c10.54 7.003 15.664 14.714 15.664 23.574 0 17.017-22.131 32.474-65.777 45.94-19.796 6.108-44.442 10.27-66.224 13.037l.781-12.451 21.167-7.81-5.191-14.072-30.333 11.19-1.564 24.91c-8.131.867-15.478 1.524-21.514 2.008l1.199 14.951c22.838-1.83 64.022-6.099 96.893-14.804-13.438 18.826-37.727 30.834-57.631 37.966l5.059 14.121c38.02-13.623 63.165-33.752 73.013-58.354 30.677-10.492 65.122-27.374 65.122-56.632z"/><path d="m15 278.548c0-13.501 11.141-24.209 35.93-33.55l11.718 14.885 11.787-9.277-8.38-10.646c9.465-2.811 20.326-5.512 32.702-8.147l-3.123-14.672c-12.522 2.666-24.807 5.598-36.181 9.07l-2.168-13.397-14.807 2.396 2.574 15.912c-26.39 10.109-45.052 24.44-45.052 47.426 0 11.896 5.801 22.829 17.242 32.497l9.682-11.457c-8.024-6.78-11.924-13.662-11.924-21.04z"/><path d="m93.778 266.219-3.289 14.635c24.161 5.429 56.407 9.844 90.798 12.431l1.125-14.957c-11.222-.844-22.189-1.888-32.706-3.095-16.044-21.149-26.799-54.558-26.365-82.507l-14.998-.232c-.415 26.758 7.99 57.03 21.662 80.208-13.351-1.915-25.613-4.098-36.227-6.483z"/><path d="m338.335 116.809c18.082 5.104 30.354 17.997 36.476 38.319 11.954 39.688-3.31 93.884-25.405 121.497-29.147 2.846-61.114 4.408-92.984 4.422-3.173-5.34-5.771-11.279-7.721-17.728l-14.357 4.34c1.398 4.626 3.083 9.049 5.042 13.24-14.138-.234-28.249-.753-42.127-1.574l-.887 14.973c19.608 1.162 39.67 1.751 59.627 1.751 61.295 0 123.168-5.68 165.511-15.193l-3.289-14.635c-14.272 3.207-30.849 5.966-48.917 8.206 21.954-35.23 30.898-87.006 19.869-123.624-7.587-25.188-23.757-41.935-46.762-48.429-23.58-6.657-49.66 2.055-71.551 23.903l10.596 10.617c17.94-17.905 38.672-25.226 56.879-20.085z"/><path d="m352.728 143.727-11.855 9.189c2.464 3.18 4.41 7.197 5.784 11.943l14.408-4.17c-1.903-6.573-4.708-12.28-8.337-16.962z"/><path d="m343.462 259.145c11.688-18.593 22.445-52.772 20.387-82.126l-14.963 1.049c1.813 25.868-7.983 56.966-18.123 73.093z"/><path d="m245.559 371.974 14.846 2.146 2.18-15.075c17.473-.106 34.903-.661 51.881-1.719l-.932-14.971c-17.189 1.071-34.841 1.623-52.532 1.702l-11.03-25.636-13.779 5.928 8.454 19.649c-15.1-.193-30.138-.734-44.847-1.65l-.934 14.971c15.92.992 32.216 1.542 48.566 1.7z"/><path d="m286.799 169.294h15v15h-15z"/><path d="m162.299 234.294h15v15h-15z"/><path d="m429.086 247.777 11.787 9.277 11.937-15.165c6.124 2.061 11.576 4.197 16.385 6.419l6.291-13.617c-5.034-2.326-10.681-4.554-16.969-6.699l2.525-15.611-14.807-2.396-2.192 13.546c-11.038-3.097-23.624-6.016-37.936-8.79l-2.855 14.725c12.807 2.483 24.147 5.064 34.128 7.773z"/><path d="m50.051 279.414h15v15h-15z"/><path d="m181.551 309.915h15v15h-15z"/><path d="m292.051 311.414h15v15h-15z"/><path d="m443.051 282.415h15v15h-15z"/><path d="m212.2 179.199c-2.549-3.258-7.267-9.209-10.228-12.464l-11.096 10.094c1.924 2.115 5.391 6.348 9.509 11.612z"/><path d="m340.906 387.573 3.428 14.604c5.04-1.184 10.026-2.491 14.82-3.886l-4.189-14.402c-4.544 1.321-9.274 2.561-14.059 3.684z"/><path d="m211.166 394.362-1.662 14.908c15.242 1.699 30.887 2.542 46.503 2.542 25.302 0 50.522-2.213 73.797-6.575l-2.764-14.742c-36.221 6.786-77.37 8.162-115.874 3.867z"/><path d="m85.183 340.931c14.55 3.729 30.743 6.949 48.335 9.601l-2.887 11.626 14.559 3.615 3.27-13.168c11.296 1.436 23.087 2.655 35.333 3.635l1.197-14.951c-12.509-1.001-24.517-2.246-35.964-3.718l-6.33-25.407-29.545-11.932-5.617 13.908 22.455 9.068 3.014 12.098c-41.404-6.408-74.213-16-94.839-27.949l-7.52 12.979c9.342 5.412 20.925 10.359 34.442 14.779 14.161 35.573 60.944 61.77 129.249 72.159l2.256-14.83c-30.59-4.652-57.513-12.867-77.858-23.756-15.099-8.08-26.316-17.379-33.55-27.757z"/></g></svg>