<svg id="Capa_1" enable-background="new 0 0 512 512" height="512" viewBox="0 0 512 512" width="512" xmlns="http://www.w3.org/2000/svg"><g><path d="m207.634 197.981c16.823-18.539 34.14-37.623 48.366-58.994 14.227 21.371 31.544 40.452 48.368 58.99 35.88 39.535 69.771 76.878 69.771 130.929 0 44.92-22.481 70.592-41.341 84.218-32.552 23.517-80.115 29.937-121.178 16.353l-4.711 14.24c15.76 5.214 32.399 7.752 48.936 7.752 31.189-.002 61.998-9.035 85.737-26.187 21.695-15.674 47.557-45.118 47.557-96.376 0-59.843-37.448-101.105-73.663-141.009-18.962-20.894-38.569-42.498-53.03-66.8l-6.446-10.831-6.445 10.831c-14.462 24.303-34.069 45.909-53.029 66.804-16.685 18.387-33.937 37.399-47.265 57.909l12.577 8.174c12.67-19.498 28.761-37.231 45.796-56.003z"/><path d="m120.287 400.911-2.385-14.809c-19.472 3.136-37.103 6.922-52.401 11.252l4.085 14.434c14.742-4.174 31.8-7.833 50.701-10.877z"/><path d="m390.628 385.552-2.303 14.822c74.667 11.598 108.675 30.745 108.675 43.626 0 9.768-20.402 25.573-77.901 37.972l3.162 14.662c40.938-8.827 89.739-25.124 89.739-52.634 0-34.452-76.044-51.407-121.372-58.448z"/><path d="m256 497c-65.797 0-127.57-6.217-173.942-17.507-49.496-12.05-67.058-26.651-67.058-35.493 0-8.729 15.197-19.15 40.652-27.88l-4.866-14.189c-33.699 11.558-50.786 25.711-50.786 42.069 0 20.539 26.415 37.384 78.51 50.066 47.499 11.565 110.533 17.934 177.49 17.934 55.111 0 107.44-4.282 151.33-12.384l-2.723-14.75c-43.006 7.937-94.394 12.134-148.607 12.134z"/><path d="m131.126 416.708 3.165 14.662c10.556-2.279 22.857-4.234 36.564-5.829 6.516 4.676 13.626 8.824 21.323 12.365l6.27-13.627c-22.627-10.41-60.587-36.645-60.587-95.374 0-21.586 5.424-42.046 16.582-62.549l-13.175-7.17c-12.386 22.76-18.407 45.564-18.407 69.719 0 33.121 11.556 61.994 32.639 83.496-8.84 1.274-16.996 2.715-24.374 4.307z"/><path d="m248.5 75h15c0-2.731 4.862-9.491 8.412-14.428 6.604-9.179 14.088-19.584 14.088-30.572 0-18.225-11.775-30-30-30-18.224 0-30 11.775-30 30 0 10.987 7.484 21.393 14.088 30.572 3.55 4.937 8.412 11.697 8.412 14.428zm7.5-60c9.953 0 15 5.047 15 15 0 6.153-5.984 14.474-11.265 21.813-1.279 1.779-2.543 3.536-3.735 5.275-1.192-1.739-2.456-3.496-3.735-5.275-5.281-7.339-11.265-15.659-11.265-21.813 0-9.953 5.047-15 15-15z"/><path d="m297.201 230.961c3.555 4.044 6.722 7.751 9.68 11.333l11.564-9.555c-3.058-3.699-6.32-7.521-9.977-11.681z"/><path d="m305.974 391.149 7.15 13.186c50.017-27.124 55.249-84.908 34.566-127.97-4.794-9.981-11.248-20.315-19.729-31.592l-11.988 9.016c7.883 10.479 13.835 19.988 18.196 29.07 17.61 36.665 13.58 85.635-28.195 108.29z"/><path d="m325.219 460.488 1.311 14.943c5.132-.45 10.446-.991 15.795-1.607l-1.717-14.9c-5.214.6-10.392 1.126-15.389 1.564z"/><path d="m106.519 436.445c3.528-1.769 8.159-3.504 13.766-5.158l-4.245-14.387c-6.458 1.905-11.924 3.97-16.245 6.137z"/><path d="m225.633 462.864-.533 14.99c10.283.366 20.612.549 30.929.549 12.152 0 24.285-.254 36.3-.761l-.633-14.986c-21.829.921-44.056.991-66.063.208z"/><path d="m355.255 457.017 2.17 14.842c19.904-2.909 35.797-6.56 47.236-10.85 5.42-2.033 21.915-8.219 21.915-20.613 0-8.454-6.103-20.743-58.87-29.831l-2.545 14.782c32.92 5.67 44.077 12.366 46.189 15.053-2.361 3.056-15.714 10.715-56.095 16.617z"/><path d="m194.486 476.173c5.071.382 10.282.72 15.489 1.003l.814-14.979c-5.103-.277-10.209-.607-15.177-.981z"/><path d="m183.991 322.642h15v15h-15z"/><path d="m228.991 322.642h15v15h-15z"/><path d="m206.491 352.642h15v15h-15z"/><path d="m206.491 292.643h15v15h-15z"/></g></svg>