<?xml version="1.0" encoding="iso-8859-1"?>
<!-- Uploaded to: SVG Repo, www.svgrepo.com, Generator: SVG Repo Mixer Tools -->
<svg fill="#000000" height="800px" width="800px" version="1.1" id="Layer_1" xmlns="http://www.w3.org/2000/svg" xmlns:xlink="http://www.w3.org/1999/xlink" 
	 viewBox="0 0 512 512" xml:space="preserve">
<g>
	<g>
		<path d="M464.503,74.401c-1.779-2.154-4.579-3.194-7.327-2.739l-38.26,6.366l-5.091-57.207c-0.231-2.592-1.734-4.902-4.012-6.162
			c-2.278-1.259-5.033-1.305-7.352-0.125L351.099,40.71L334.927,4.633c-1.127-2.516-3.495-4.254-6.233-4.578
			c-2.737-0.329-5.445,0.816-7.126,3.001c-79.44,103.136-52.046,154.22-28.553,175.53c0.031,0.029,0.059,0.064,0.091,0.093
			c3.818,3.454,7.558,6.122,10.76,8.123c-28,43.833-42.548,93.304-50.093,132.491c-4.397-18.224-10.207-34.107-15.687-46.724
			c-8.477-19.513-17.245-34.042-22.513-42.046c8.941-6.306,25.235-21.008,29.818-46.734c6.789-38.116-14.645-83.987-63.705-136.336
			c-1.909-2.038-4.762-2.902-7.484-2.277c-2.721,0.63-4.903,2.66-5.725,5.331l-11.41,37.069l-53.449-21.019
			c-2.425-0.953-5.162-0.641-7.306,0.834c-2.146,1.474-3.419,3.917-3.399,6.52l0.453,57.645l-39.499-1.662
			c-2.761-0.136-5.369,1.224-6.881,3.529c-1.513,2.305-1.704,5.236-0.502,7.717c42.741,88.256,86.157,109.085,117.619,109.085
			c10.232,0,19.199-2.209,26.466-5.014c0.096-0.033,0.194-0.061,0.289-0.097c4.619-1.802,8.56-3.867,11.723-5.777
			c8.59,13.144,27.661,45.752,37.142,88.746c-5.097-5.699-11.474-11.448-19.43-16.676c-3.618-2.376-8.476-1.371-10.853,2.247
			c-2.376,3.617-1.371,8.476,2.247,10.853c11.007,7.232,18.394,15.682,23.265,23.057l-58.618-28.585
			c-3.892-1.899-8.582-0.28-10.478,3.609c-1.896,3.89-0.282,8.582,3.609,10.478l64.87,31.634
			c-19.796,9.599-37.382,11.237-52.421,4.832c-27.101-11.544-40.63-46.259-45.68-62.797c17.274-0.469,32.949,1.213,46.709,5.023
			c4.179,1.151,8.489-1.292,9.643-5.463c1.154-4.171-1.29-8.489-5.463-9.643c-17.973-4.976-38.673-6.684-61.521-5.083
			c-2.256,0.158-4.334,1.284-5.7,3.087c-1.366,1.805-1.885,4.11-1.425,6.324c0.544,2.622,13.831,64.414,57.238,82.951
			c8.052,3.439,16.538,5.156,25.429,5.156c13.781-0.001,28.536-4.136,44.145-12.364c0.03,5.138-0.116,10.352-0.472,15.637
			l0.311,0.021c-0.368,8.065-0.462,14.618-0.457,19.301H178.97c-4.329,0-7.837,3.508-7.837,7.837v31.88v32.668
			c0,15.404,12.532,27.936,27.936,27.936h107.138c15.404,0,27.936-12.532,27.936-27.936v-32.668v-31.883
			c0-4.329-3.508-7.837-7.837-7.837h-65.944c0.003-9.585,0.433-27.7,2.948-50.54c14.591,7.288,28.42,10.956,41.388,10.956
			c8.89,0,17.379-1.718,25.429-5.156c43.407-18.537,56.694-80.331,57.238-82.951c0.459-2.214-0.061-4.519-1.425-6.324
			c-1.366-1.803-3.444-2.929-5.7-3.087c-56.77-3.984-89.412,13.358-107.215,29.565c8.054-34.348,21.641-74.1,44.537-109.669
			c6.919,3.679,19.052,8.626,34.288,8.626c10.893,0,23.37-2.531,36.648-9.864c3.789-2.093,5.163-6.86,3.071-10.649
			c-2.093-3.788-6.859-5.165-10.649-3.071c-32.863,18.151-59.214-0.678-60.291-1.468c-0.584-0.436-1.225-0.789-1.906-1.048
			c-0.066-0.025-6.477-2.565-13.707-8.714c-0.05-0.145-0.096-0.29-0.144-0.436c-0.1-0.3-0.2-0.601-0.29-0.9
			c-0.046-0.15-0.085-0.3-0.129-0.45c-0.094-0.328-0.185-0.656-0.267-0.982c-0.03-0.121-0.056-0.24-0.085-0.362
			c-0.085-0.356-0.165-0.713-0.235-1.068c-0.018-0.091-0.033-0.182-0.05-0.273c-0.072-0.383-0.138-0.766-0.192-1.147
			c-0.009-0.066-0.018-0.132-0.026-0.199c-0.055-0.404-0.102-0.809-0.139-1.211c-0.004-0.046-0.007-0.091-0.01-0.137
			c-0.036-0.421-0.062-0.84-0.076-1.258c-0.001-0.032-0.002-0.065-0.003-0.096c-0.014-0.429-0.016-0.858-0.006-1.284
			c0-0.024,0.001-0.048,0.002-0.073c0.01-0.433,0.032-0.863,0.066-1.293c0.001-0.022,0.003-0.044,0.005-0.066
			c0.034-0.428,0.08-0.855,0.137-1.28c0.003-0.027,0.007-0.053,0.01-0.08c0.057-0.417,0.126-0.833,0.205-1.249
			c0.007-0.038,0.014-0.074,0.021-0.111c0.078-0.4,0.167-0.799,0.266-1.197c0.013-0.053,0.026-0.107,0.04-0.159
			c0.096-0.378,0.203-0.755,0.318-1.132c0.022-0.073,0.044-0.146,0.066-0.219c0.11-0.352,0.231-0.702,0.357-1.053
			c0.036-0.097,0.069-0.194,0.106-0.292c0.12-0.323,0.251-0.646,0.386-0.968c0.051-0.122,0.099-0.244,0.153-0.366
			c0.118-0.273,0.247-0.545,0.374-0.818c0.087-0.184,0.171-0.369,0.262-0.552c0.13-0.261,0.266-0.522,0.405-0.784
			c0.094-0.177,0.187-0.354,0.285-0.532c0.168-0.304,0.345-0.605,0.523-0.906c0.081-0.135,0.159-0.269,0.241-0.403
			c0.212-0.345,0.433-0.688,0.658-1.03c0.055-0.085,0.111-0.169,0.167-0.253c0.267-0.397,0.544-0.793,0.83-1.186
			c0.016-0.022,0.031-0.044,0.048-0.066c12.315-16.832,41.48-29.687,67.087-37.951c19.365-6.184,35.347-9.313,36.803-9.593
			c0.013-0.002,0.026-0.005,0.039-0.007l32.967-5.485c-12.036,29.672-25.525,52.98-40.178,69.401
			c-2.882,3.23-2.6,8.184,0.629,11.065c3.231,2.883,8.185,2.601,11.065-0.629c17.997-20.168,34.182-49.473,48.105-87.104
			C466.782,79.492,466.282,76.555,464.503,74.401z M152.711,102.707c-1.925,7.697-4.948,21.038-7.14,36.572
			c-17.012-3.522-29.402-5.472-36.521-6.464l-0.372-47.427L152.711,102.707z M66.523,146.114l27.55,1.16
			c0.088,0.007,0.176,0.014,0.263,0.018c0.038,0.002,0.077,0.004,0.117,0.006c4.06,0.344,22.449,2.101,49.298,7.624
			c-2.711,30.255,0.326,53.258,9.036,68.625c0.039,0.069,0.077,0.138,0.117,0.206c0.3,0.525,0.607,1.04,0.922,1.545
			c0.084,0.136,0.166,0.273,0.251,0.407c0.325,0.514,0.658,1.019,0.997,1.514c0.046,0.068,0.09,0.139,0.136,0.207
			c0.008,0.012,0.018,0.023,0.025,0.034c0.429,0.619,0.87,1.219,1.322,1.808c0.123,0.161,0.251,0.317,0.375,0.475
			c0.195,0.248,0.386,0.499,0.585,0.741c0.09,0.11,0.187,0.21,0.278,0.319c0.371,0.444,0.75,0.875,1.135,1.299
			c0.167,0.184,0.332,0.371,0.502,0.552c0.484,0.517,0.979,1.016,1.483,1.503c0.063,0.061,0.122,0.128,0.186,0.188
			C136.144,232.872,102.16,214.411,66.523,146.114z M202.595,220.206c-0.63,0.317-1.241,0.741-1.764,1.213
			c-0.055,0.049-5.233,4.675-13.949,8.389c-0.151-0.02-0.3-0.044-0.45-0.065c-0.315-0.045-0.629-0.09-0.938-0.143
			c-0.154-0.026-0.304-0.057-0.457-0.087c-0.338-0.064-0.675-0.129-1.006-0.202c-0.117-0.026-0.231-0.055-0.348-0.083
			c-0.362-0.085-0.721-0.173-1.074-0.271c-0.085-0.023-0.168-0.049-0.252-0.073c-0.381-0.109-0.759-0.223-1.13-0.346
			c-0.055-0.019-0.111-0.039-0.167-0.057c-0.395-0.134-0.786-0.275-1.17-0.426c-0.033-0.014-0.068-0.027-0.101-0.041
			c-0.402-0.16-0.798-0.328-1.188-0.507c-0.019-0.008-0.038-0.018-0.056-0.026c-0.401-0.185-0.795-0.379-1.183-0.584
			c-0.012-0.006-0.023-0.011-0.034-0.018c-0.392-0.208-0.778-0.425-1.158-0.654c-0.008-0.005-0.018-0.01-0.026-0.016
			c-0.378-0.229-0.751-0.467-1.116-0.716c-0.012-0.008-0.023-0.016-0.034-0.023c-0.358-0.245-0.711-0.499-1.056-0.764
			c-0.021-0.016-0.041-0.031-0.062-0.047c-0.333-0.256-0.66-0.522-0.982-0.797c-0.032-0.027-0.064-0.054-0.096-0.081
			c-0.305-0.263-0.604-0.536-0.899-0.816c-0.047-0.044-0.094-0.088-0.14-0.133c-0.275-0.264-0.543-0.538-0.809-0.817
			c-0.063-0.066-0.126-0.131-0.189-0.198c-0.242-0.26-0.481-0.53-0.717-0.804c-0.079-0.092-0.16-0.183-0.238-0.276
			c-0.199-0.236-0.392-0.481-0.584-0.726c-0.119-0.152-0.238-0.301-0.355-0.455c-0.184-0.243-0.364-0.493-0.543-0.745
			c-0.108-0.153-0.216-0.303-0.323-0.458c-0.204-0.298-0.403-0.602-0.6-0.909c-0.076-0.12-0.155-0.239-0.23-0.36
			c-0.221-0.354-0.436-0.715-0.646-1.081c-0.045-0.078-0.09-0.155-0.135-0.233c-0.24-0.424-0.474-0.856-0.702-1.296
			c-0.009-0.018-0.018-0.034-0.027-0.052c-9.554-18.533-8.018-50.36-3.964-76.957c3.192-20.525,7.656-36.461,7.893-37.297
			l9.824-31.913c38.358,43.605,55.823,82.334,50.596,112.506C225.241,208.278,203.486,219.748,202.595,220.206z M318.471,484.064
			c-0.001,6.762-5.502,12.263-12.264,12.263H199.071c-6.763,0-12.263-5.501-12.263-12.263v-24.831h131.663V484.064z M318.47,427.35
			v16.21H186.807v-16.21H318.47z M281.625,317.561c19.775-19.274,50.047-28.806,87.983-27.812
			c-5.052,16.545-18.582,51.252-45.678,62.793c-15.035,6.405-32.625,4.769-52.42-4.832l64.87-31.634
			c3.891-1.896,5.507-6.589,3.609-10.478c-1.896-3.889-6.588-5.506-10.478-3.609l-58.714,28.632
			C273.53,326.486,277.066,322.003,281.625,317.561z M295.371,134.998c-0.04,0.059-0.078,0.117-0.118,0.174
			c-0.34,0.511-0.669,1.023-0.985,1.538c-0.08,0.13-0.162,0.258-0.24,0.388c-0.319,0.528-0.626,1.057-0.921,1.59
			c-0.038,0.067-0.078,0.132-0.115,0.2c-0.006,0.012-0.012,0.024-0.019,0.036c-0.362,0.66-0.702,1.325-1.027,1.992
			c-0.09,0.185-0.173,0.37-0.261,0.555c-0.133,0.282-0.272,0.564-0.398,0.847c-0.057,0.129-0.103,0.259-0.159,0.389
			c-0.234,0.537-0.452,1.075-0.662,1.615c-0.087,0.224-0.178,0.447-0.261,0.672c-0.247,0.666-0.472,1.333-0.683,2.002
			c-0.026,0.085-0.061,0.168-0.087,0.254c-9.839-22.985-8.517-61.635,36.643-124.044l11.281,25.166
			c0.031,0.077,0.065,0.154,0.098,0.232c0.017,0.038,0.033,0.078,0.052,0.12c1.511,3.8,8.163,21.049,15.217,47.501
			C324.441,107.328,305.218,120.332,295.371,134.998z M367.529,90.859c-4.456-16.793-8.25-28.747-10.545-35.558l42.258-21.535
			l4.194,47.13C395.691,82.615,382.405,85.875,367.529,90.859z"/>
	</g>
</g>
</svg>