<?xml version="1.0" encoding="iso-8859-1"?>
<!-- Uploaded to: SVG Repo, www.svgrepo.com, Generator: SVG Repo Mixer Tools -->
<!DOCTYPE svg PUBLIC "-//W3C//DTD SVG 1.1//EN" "http://www.w3.org/Graphics/SVG/1.1/DTD/svg11.dtd">
<svg fill="#000000" version="1.1" id="Capa_1" xmlns="http://www.w3.org/2000/svg" xmlns:xlink="http://www.w3.org/1999/xlink" 
	 width="800px" height="800px" viewBox="0 0 537.037 537.037"
	 xml:space="preserve">
<g>
	<path d="M211.675,145.51l-60.579-60.749l47.117,0.067L133.362,19.8L78.417,74.736l-5.804-5.822l-51.868,51.877l33.507,0.049
		l-43.075,43.073l38.615,0.053L0,213.759l40.914,0.058l-1.583,1.58l25.637,0.035v41.506h15.296V215.46l45.703,0.063v60.598h14.797
		v-60.584l86.645,0.124l-70.032-70.228L211.675,145.51z M75.485,252.155h-5.738v-36.718l5.738,0.009V252.155z M95.477,159.25
		l-11.556-0.017l5.778,5.794l-44.015,44.015l-34.166-0.054l49.793-49.788l-38.616-0.056l43.075-43.08l-33.507-0.044l40.344-40.345
		l2.429,2.438l-6.529,6.532l13.061,0.016l17.028,17.075l-14.361,14.36l-4.779-0.004l2.39,2.394l-26.801,26.801l53.601,0.077
		l0.359,0.355L95.477,159.25z M101.98,98.358L88.332,84.672l27.302,0.038L101.98,98.358z M341.887,373.503
		c0-6.137-3.006-10.879-7.528-13.576c-4.947-3.444-10.991-4.635-20.797-4.635c-7.439,0-15.093,0.653-19.289,1.508v71.443
		c3.347,0.42,8.938,0.962,16.266,0.962c13.259,0,21.767-2.26,26.952-6.786c4.195-3.454,6.991-8.513,6.991-14.981
		c0-10.016-6.991-16.051-14.641-17.987v-0.224C337.691,386.324,341.887,380.187,341.887,373.503z M307.42,365.639
		c1.391-0.322,3.669-0.536,7.542-0.536c8.405,0,13.576,3.127,13.576,9.913c0,6.137-5.171,10.458-14.332,10.458h-6.786V365.639z
		 M330.466,407.008c0,8.942-7.527,12.182-16.041,12.182c-3.015,0-5.278-0.107-7.005-0.322v-23.704h6.566
		C323.153,395.164,330.466,398.617,330.466,407.008z M350.974,355.83h13.259v72.629h-13.259V355.83z M403.674,429.639
		c20.055,0,34.812-13.885,34.812-38.247c0-20.688-12.493-36.739-33.729-36.739c-20.47,0-34.472,15.737-34.472,38.037
		C370.286,414.023,383.205,429.639,403.674,429.639z M404.435,365.317c13.25,0,20.045,12.929,20.045,26.612
		c0,15.196-7.215,27.036-20.045,27.036c-12.709,0-20.147-11.742-20.147-26.5C384.288,377.503,391.297,365.317,404.435,365.317z
		 M533.158,403.452L487.281,433.2c-1.896,1.232-4.201,1.662-6.413,1.186c-2.203-0.476-4.14-1.801-5.367-3.696l-29.748-45.872
		c-2.558-3.944-1.438-9.223,2.511-11.78c3.949-2.558,9.223-1.442,11.789,2.507l20.097,30.989
		c9.731-58.04-28.012-114.194-86.126-126.581c-4.611-0.989-7.542-5.507-6.558-10.111c0.98-4.606,5.503-7.535,10.104-6.555
		c66.049,14.081,109.284,77.151,99.838,143.046l26.472-17.17c3.948-2.562,9.223-1.438,11.784,2.511
		C538.226,395.621,537.097,400.899,533.158,403.452z M461.785,466.005c3.206,3.448,3,8.839-0.444,12.041
		c-49.499,45.942-125.945,45.061-174.437-0.546l-1.171,31.53c-0.173,4.704-4.131,8.373-8.833,8.2
		c-4.702-0.182-8.377-4.131-8.195-8.835l2.03-54.633c0.086-2.259,1.062-4.392,2.716-5.927c1.652-1.536,3.848-2.353,6.112-2.269
		l54.628,2.035c4.704,0.173,8.373,4.125,8.205,8.83c-0.188,4.704-4.131,8.372-8.84,8.195l-36.907-1.372
		c41.896,41.331,109.531,42.731,153.09,2.306C453.197,462.36,458.587,462.556,461.785,466.005z M251.399,425.723
		c1.081,4.583-1.759,9.176-6.338,10.254c-4.578,1.088-9.17-1.75-10.251-6.328c-15.542-65.723,22.955-131.785,86.551-151.452
		l-26.845-16.57c-4.009-2.48-5.241-7.729-2.772-11.729c2.479-4.009,7.72-5.248,11.724-2.772l46.508,28.723
		c1.923,1.19,3.295,3.095,3.822,5.288c0.509,2.203,0.136,4.514-1.05,6.44l-28.727,46.513c-2.469,4.004-7.715,5.245-11.719,2.768
		c-4.004-2.474-5.25-7.715-2.772-11.72l19.411-31.428C272.312,309.751,237.727,367.894,251.399,425.723z M163.516,353.533
		c2.329,1.555,28.733,73.769,28.733,73.769l-69.885,45.812l15.112-43.907c-0.341-0.206-0.675-0.425-1.022-0.631
		c-4.377-2.786-9.201-5.525-13.67-9.544c-2.284-1.886-4.625-3.817-7.015-5.796c-1.176-0.99-2.371-1.988-3.575-2.997
		c-1.085-1.147-2.184-2.314-3.288-3.486c-4.315-4.788-9.171-9.208-12.86-14.822c-1.942-2.675-3.89-5.377-5.86-8.083
		c-1.893-2.73-3.379-5.765-5.062-8.616c-3.484-5.651-6.001-11.761-8.522-17.669c-2.518-5.886-4.191-11.98-5.997-17.693
		c-1.314-5.885-2.915-11.42-3.603-16.848c-0.971-5.358-1.515-10.459-1.893-15.149c-0.492-4.677-0.455-9.008-0.616-12.778
		c0.077-3.809,0.014-7.095,0.224-9.815c0.238-5.418,0.707-8.461,0.707-8.461s0.206,3.08,1.158,8.363
		c0.378,2.642,1.155,5.819,1.892,9.446c0.976,3.589,1.849,7.663,3.302,11.976c1.342,4.331,2.91,8.961,4.933,13.702
		c1.72,4.835,4.371,9.596,6.709,14.58c2.814,4.779,5.449,9.811,8.816,14.436c3.36,4.63,6.625,9.329,10.653,13.399
		c1.96,2.071,3.685,4.284,5.769,6.184c2.104,1.834,4.203,3.663,6.279,5.475c3.876,3.854,8.728,6.454,12.854,9.441l3.125,2.133
		c1.136,0.569,2.261,1.129,3.37,1.689c2.193,1.102,4.338,2.18,6.436,3.239c2.812,1.633,5.804,2.716,8.665,3.696L163.516,353.533z"/>
</g>
</svg>