<?xml version="1.0" encoding="iso-8859-1"?>
<!-- Uploaded to: SVG Repo, www.svgrepo.com, Generator: SVG Repo Mixer Tools -->
<svg fill="#000000" height="800px" width="800px" version="1.1" id="Layer_1" xmlns="http://www.w3.org/2000/svg" xmlns:xlink="http://www.w3.org/1999/xlink" 
	 viewBox="0 0 511.998 511.998" xml:space="preserve">
<g>
	<g>
		<path d="M435.347,110.202c-2.994-1.575-6.644-1.168-9.218,1.026c-0.386,0.329-39.316,33.272-101.049,65.239
			c-25.847,13.383-46.853,37.858-61.092,71.044v-17.39c7.101-8.325,37.906-43.199,86.077-80.494
			c24.718-19.138,41.646-49.852,48.951-88.821c5.433-28.979,3.721-52.199,3.646-53.173c-0.261-3.373-2.551-6.247-5.779-7.256
			c-3.233-1.009-6.747,0.05-8.883,2.673c-0.32,0.393-32.564,39.716-87.651,82.367c-15.218,11.782-27.476,27.957-36.362,47.739
			V67.869h-16.543v64.047c-8.837-19.218-20.9-34.965-35.798-46.499c-54.97-42.561-87.331-81.976-87.649-82.368
			c-2.135-2.623-5.653-3.679-8.883-2.673c-3.229,1.009-5.518,3.883-5.779,7.256c-0.075,0.974-1.788,24.195,3.646,53.173
			c7.305,38.968,24.234,69.682,48.951,88.822c47.026,36.408,77.483,70.49,85.513,79.835v16.749
			c-14.226-32.525-35.019-56.537-60.526-69.745C125.183,144.5,86.255,111.557,85.871,111.23c-2.574-2.196-6.224-2.604-9.219-1.03
			c-2.994,1.574-4.729,4.813-4.378,8.178c0.1,0.972,2.598,24.121,13.161,51.647c14.203,37.016,36.384,64.179,64.145,78.554
			c48.163,24.937,82.442,50.468,95.371,60.645H132.623c-8.247,0-14.957,6.709-14.957,14.956v18.482
			c0,8.247,6.71,14.956,14.957,14.956h4.591l36.159,148.07c0.904,3.703,4.223,6.31,8.036,6.31h149.176
			c3.813,0,7.131-2.606,8.036-6.31l36.159-148.068h4.592c8.247,0,14.957-6.709,14.957-14.956v-18.483
			c0-8.247-6.71-14.956-14.957-14.956H267.046c12.93-10.179,47.208-35.708,95.371-60.645c27.762-14.375,49.942-41.539,64.146-78.554
			c10.562-27.527,13.06-50.675,13.162-51.647C440.074,115.014,438.34,111.777,435.347,110.202z M310.477,98.497
			c34.935-27.048,60.66-52.47,75.547-68.352c-1.655,28.405-9.941,78.413-46.089,106.402c-34.956,27.064-60.693,52.5-75.576,68.381
			C265.982,176.55,274.229,126.561,310.477,98.497z M247.443,204.721c-14.912-15.893-40.574-41.225-75.384-68.175
			c-36.151-27.991-44.435-78-46.089-106.402c14.888,15.882,40.614,41.304,75.547,68.352c35.087,27.166,43.923,75.072,45.926,103.837
			V204.721z M157.186,233.888c-40.598-21.022-57.754-68.722-64.495-96.361c17.504,12.941,47.386,33.315,86.62,53.631
			c40.598,21.022,57.754,68.718,64.497,96.36C226.303,274.577,196.421,254.204,157.186,233.888z M324.091,495.457H187.904
			l-33.659-137.836H357.75L324.091,495.457z M377.785,325.768v15.309H134.21v-15.309H377.785z M354.81,233.888
			c-39.259,20.327-69.154,40.713-86.653,53.654c6.706-27.621,23.82-75.306,64.529-96.384c39.234-20.316,69.117-40.69,86.62-53.631
			C412.564,165.17,395.408,212.866,354.81,233.888z"/>
	</g>
</g>
</svg>