<?xml version="1.0" encoding="iso-8859-1"?>
<!-- Uploaded to: SVG Repo, www.svgrepo.com, Generator: SVG Repo Mixer Tools -->
<!DOCTYPE svg PUBLIC "-//W3C//DTD SVG 1.1//EN" "http://www.w3.org/Graphics/SVG/1.1/DTD/svg11.dtd">
<svg fill="#000000" height="800px" width="800px" version="1.1" id="Capa_1" xmlns="http://www.w3.org/2000/svg" xmlns:xlink="http://www.w3.org/1999/xlink" 
	 viewBox="0 0 297.813 297.813" xml:space="preserve">
<g>
	<path d="M293.635,182.96l-42.284-50.646h18.267c3.938,0,7.52-2.279,9.189-5.847c1.669-3.567,1.122-7.778-1.401-10.802
		l-41.954-50.25h12.138c2.891,0,5.52-1.673,6.744-4.291c1.225-2.618,0.824-5.709-1.028-7.928L211.122,2.674
		C209.707,0.979,207.613,0,205.406,0s-4.301,0.979-5.716,2.674l-42.183,50.523c-1.853,2.219-2.253,5.31-1.028,7.928
		c1.225,2.618,3.854,4.291,6.744,4.291h12.138L157.75,86.51c0.669,4.482,0.062,9.149-1.924,13.394
		c-0.652,1.394-1.443,2.694-2.336,3.908h51.082c4.143,0,7.5,3.357,7.5,7.5s-3.357,7.5-7.5,7.5h-43.414l11.272,13.502l4.258,5.1
		c6.475,7.757,7.892,18.682,3.61,27.834c-1.241,2.652-2.913,5.021-4.895,7.066h49.168c4.143,0,7.5,3.357,7.5,7.5
		c0,4.143-3.357,7.5-7.5,7.5h-46.177l14.522,17.393c0.42,0.504,0.816,1.023,1.199,1.548c6.436,8.826,7.637,20.622,2.971,30.6
		c-2.896,6.191-7.788,11.084-13.682,14.089v0.673c0,7.841,6.355,14.196,14.196,14.196h14.607c7.841,0,14.196-6.355,14.196-14.196
		v-45.361h56.331c5.511,0,10.523-3.189,12.858-8.181C297.931,193.082,297.166,187.19,293.635,182.96z M186.906,39.813h7.5
		c4.143,0,7.5,3.357,7.5,7.5s-3.357,7.5-7.5,7.5h-7.5c-4.143,0-7.5-3.357-7.5-7.5S182.764,39.813,186.906,39.813z"/>
	<path d="M180.635,214.96l-42.284-50.646h18.267c3.938,0,7.52-2.279,9.189-5.847c1.669-3.567,1.122-7.778-1.401-10.802
		l-41.954-50.25h12.138c2.891,0,5.52-1.673,6.744-4.291c1.225-2.618,0.824-5.709-1.028-7.928L98.122,34.674
		C96.707,32.979,94.613,32,92.406,32c-2.207,0-4.301,0.979-5.716,2.674L44.508,85.197c-1.853,2.219-2.253,5.309-1.028,7.928
		c1.225,2.618,3.854,4.291,6.744,4.291h12.138l-41.953,50.25c-2.524,3.023-3.07,7.234-1.401,10.802
		c1.669,3.567,5.251,5.847,9.189,5.847h18.266L4.178,214.96c-3.531,4.23-4.296,10.122-1.961,15.114
		c2.335,4.991,7.348,8.181,12.858,8.181h55.331c0,19.34,0,14.737,0,45.361c0,7.841,6.355,14.196,14.196,14.196H99.21
		c7.841,0,14.196-6.355,14.196-14.196c0-30.623,0-26.024,0-45.361h56.331c5.511,0,10.523-3.189,12.858-8.181
		C184.931,225.082,184.166,219.19,180.635,214.96z M73.906,71.813h7.5c4.143,0,7.5,3.357,7.5,7.5s-3.357,7.5-7.5,7.5h-7.5
		c-4.143,0-7.5-3.357-7.5-7.5S69.764,71.813,73.906,71.813z M43.406,143.313c0-4.143,3.357-7.5,7.5-7.5h40.666
		c4.143,0,7.5,3.357,7.5,7.5s-3.357,7.5-7.5,7.5H50.906C46.764,150.813,43.406,147.455,43.406,143.313z M114.572,220.813H31.906
		c-4.143,0-7.5-3.357-7.5-7.5s3.357-7.5,7.5-7.5h82.666c4.143,0,7.5,3.357,7.5,7.5S118.715,220.813,114.572,220.813z"/>
</g>
</svg>