<?xml version="1.0" encoding="utf-8"?>
<!-- Generator: Adobe Illustrator 21.1.0, SVG Export Plug-In . SVG Version: 6.00 Build 0)  -->
<svg version="1.1" id="Icon_Set" xmlns="http://www.w3.org/2000/svg" xmlns:xlink="http://www.w3.org/1999/xlink" x="0px" y="0px"
	 viewBox="0 0 64 64" style="enable-background:new 0 0 64 64;" xml:space="preserve">
<style type="text/css">
	.st0{fill:#263238;}
	.st1{fill:#FF5252;}
	.st2{fill:#FFD740;}
	.st3{fill:#40C4FF;}
	.st4{fill:#FFFFFF;}
	.st5{fill:#4DB6AC;}
	.st6{fill:#4FC3F7;}
</style>
<g id="Air_Conditioning">
	<g>
		<g>
			<circle class="st3" cx="48.5" cy="15.25" r="15"/>
		</g>
	</g>
	<g>
		<g>
			<path class="st0" d="M3.5,62.75h-3c-0.276,0-0.5,0.224-0.5,0.5s0.224,0.5,0.5,0.5h3c0.276,0,0.5-0.224,0.5-0.5
				S3.776,62.75,3.5,62.75z"/>
		</g>
	</g>
	<g>
		<g>
			<path class="st0" d="M63.5,62.75h-58c-0.276,0-0.5,0.224-0.5,0.5s0.224,0.5,0.5,0.5h58c0.276,0,0.5-0.224,0.5-0.5
				S63.776,62.75,63.5,62.75z"/>
		</g>
	</g>
	<g>
		<g>
			<path class="st0" d="M62.165,52.028l-0.237-0.118l-0.617-2.944c-0.466-2.218-2.209-3.901-4.44-4.29l-8.032-1.396l-11.524-9.308
				c-0.974-0.788-2.201-1.222-3.456-1.222H13.685c-1.763,0-3.432,0.854-4.462,2.284L4.744,41.25H1.766
				c-0.548,0-1.036,0.285-1.306,0.761c-0.27,0.476-0.263,1.041,0.019,1.51l2.02,3.367v4.911c-0.571,0.115-1.086,0.424-1.46,0.887
				c-0.481,0.595-0.665,1.365-0.504,2.113l0.807,3.765c0.147,0.688,0.764,1.186,1.466,1.186H5c0.276,0,0.5-0.224,0.5-0.5
				s-0.224-0.5-0.5-0.5H2.808c-0.234,0-0.439-0.166-0.489-0.396L1.512,54.59c-0.097-0.452,0.014-0.917,0.305-1.275
				C2.107,52.956,2.538,52.75,3,52.75c0.276,0,0.5-0.224,0.5-0.5v-5.5c0-0.091-0.024-0.18-0.071-0.257l-2.091-3.486
				c-0.135-0.225-0.049-0.427-0.006-0.503c0.043-0.076,0.172-0.254,0.436-0.254H5c0.161,0,0.312-0.077,0.406-0.208l4.628-6.423
				c0.843-1.17,2.208-1.869,3.651-1.869h20.173c1.026,0,2.03,0.355,2.827,1l11.626,9.39c0.066,0.053,0.146,0.089,0.229,0.104
				l8.159,1.419c1.826,0.317,3.253,1.695,3.634,3.509l0.667,3.182c0.031,0.15,0.13,0.277,0.267,0.345l0.454,0.226
				c0.666,0.331,0.99,1.112,0.755,1.817l-1.222,3.667c-0.068,0.205-0.259,0.343-0.475,0.343h-2.279c-0.276,0-0.5,0.224-0.5,0.5
				s0.224,0.5,0.5,0.5h2.279c0.646,0,1.218-0.412,1.424-1.026l1.222-3.667C63.815,53.882,63.274,52.58,62.165,52.028z"/>
		</g>
	</g>
	<g>
		<g>
			<path class="st0" d="M41.499,58.75H22c-0.276,0-0.5,0.224-0.5,0.5s0.224,0.5,0.5,0.5h19.5c0.276,0,0.5-0.224,0.5-0.5
				S41.775,58.75,41.499,58.75z"/>
		</g>
	</g>
	<g>
		<g>
			<g>
				<path class="st0" d="M49.999,49.75c-3.859,0-7,3.14-7,7s3.141,7,7,7s7-3.14,7-7S53.858,49.75,49.999,49.75z M49.999,62.75
					c-3.309,0-6-2.691-6-6s2.691-6,6-6s6,2.691,6,6S53.308,62.75,49.999,62.75z"/>
			</g>
		</g>
	</g>
	<g>
		<g>
			<g>
				<path class="st0" d="M49.999,52.75c-2.206,0-4,1.794-4,4s1.794,4,4,4s4-1.794,4-4S52.205,52.75,49.999,52.75z M49.999,59.75
					c-1.654,0-3-1.346-3-3s1.346-3,3-3s3,1.346,3,3S51.653,59.75,49.999,59.75z"/>
			</g>
		</g>
	</g>
	<g>
		<g>
			<g>
				<path class="st0" d="M13.5,49.75c-3.86,0-7,3.14-7,7s3.14,7,7,7s7-3.14,7-7S17.359,49.75,13.5,49.75z M13.5,62.75
					c-3.309,0-6-2.691-6-6s2.691-6,6-6s6,2.691,6,6S16.808,62.75,13.5,62.75z"/>
			</g>
		</g>
	</g>
	<g>
		<g>
			<g>
				<path class="st0" d="M13.5,52.75c-2.206,0-4,1.794-4,4s1.794,4,4,4s4-1.794,4-4S15.705,52.75,13.5,52.75z M13.5,59.75
					c-1.654,0-3-1.346-3-3s1.346-3,3-3s3,1.346,3,3S15.154,59.75,13.5,59.75z"/>
			</g>
		</g>
	</g>
	<g>
		<g>
			<g>
				<path class="st0" d="M48.939,43.361l-9.905-8c-0.089-0.072-0.2-0.111-0.314-0.111H17.732c-1.244,0-2.373,0.782-2.809,1.947
					l-1.125,3c-0.345,0.921-0.217,1.954,0.343,2.763c0.561,0.808,1.482,1.291,2.466,1.291h32.018c0.212,0,0.4-0.134,0.472-0.333
					C49.167,43.717,49.104,43.494,48.939,43.361z M16.607,43.25c-0.666,0-1.265-0.314-1.644-0.861
					c-0.379-0.547-0.463-1.218-0.229-1.841l1.125-3v0c0.291-0.776,1.043-1.297,1.873-1.297h20.811l8.667,7H16.607z"/>
			</g>
		</g>
	</g>
	<g>
		<g>
			<path class="st0" d="M47.625,45.25c-0.276,0-0.5,0.224-0.5,0.5v2.949c0,0.276,0.224,0.5,0.5,0.5s0.5-0.224,0.5-0.5V45.75
				C48.125,45.474,47.901,45.25,47.625,45.25z"/>
		</g>
	</g>
	<g>
		<g>
			<path class="st0" d="M27.5,35.25c-0.276,0-0.5,0.224-0.5,0.5v8c0,0.276,0.224,0.5,0.5,0.5s0.5-0.224,0.5-0.5v-8
				C28,35.474,27.776,35.25,27.5,35.25z"/>
		</g>
	</g>
	<g>
		<g>
			<g>
				<path class="st0" d="M9.125,43.75h-2c-0.827,0-1.5,0.673-1.5,1.5v2c0,0.827,0.673,1.5,1.5,1.5h2c0.827,0,1.5-0.673,1.5-1.5v-2
					C10.625,44.422,9.952,43.75,9.125,43.75z M9.625,47.25c0,0.276-0.224,0.5-0.5,0.5h-2c-0.276,0-0.5-0.224-0.5-0.5v-2
					c0-0.276,0.224-0.5,0.5-0.5h2c0.276,0,0.5,0.224,0.5,0.5V47.25z"/>
			</g>
		</g>
	</g>
	<g>
		<g>
			<g>
				<path class="st0" d="M61.311,48.966c-0.061-0.288-0.151-0.582-0.277-0.9c-0.076-0.19-0.26-0.315-0.465-0.315h-2.234
					c-0.523,0-1,0.266-1.275,0.711s-0.301,0.991-0.066,1.46l1.276,2.553c0.085,0.169,0.258,0.276,0.447,0.276h2.772
					c0.15,0,0.293-0.068,0.388-0.185c0.096-0.117,0.133-0.271,0.102-0.418L61.311,48.966z M59.024,51.75l-1.138-2.276
					c-0.112-0.226-0.021-0.416,0.022-0.487s0.174-0.237,0.425-0.237h1.884c0.048,0.146,0.086,0.285,0.114,0.421l0.541,2.579H59.024z
					"/>
			</g>
		</g>
	</g>
	<g>
		<g>
			<path class="st0" d="M48.5,8.75c-0.276,0-0.5,0.224-0.5,0.5v12c0,0.276,0.224,0.5,0.5,0.5s0.5-0.224,0.5-0.5v-12
				C49,8.974,48.776,8.75,48.5,8.75z"/>
		</g>
	</g>
	<g>
		<g>
			<path class="st0" d="M50.354,7.397c-0.195-0.195-0.512-0.195-0.707,0L48.5,8.543l-1.146-1.146c-0.195-0.195-0.512-0.195-0.707,0
				s-0.195,0.512,0,0.707l1.5,1.5C48.244,9.701,48.372,9.75,48.5,9.75s0.256-0.049,0.354-0.146l1.5-1.5
				C50.549,7.908,50.549,7.592,50.354,7.397z"/>
		</g>
	</g>
	<g>
		<g>
			<path class="st0" d="M50.354,22.396l-1.5-1.5c-0.195-0.195-0.512-0.195-0.707,0l-1.5,1.5c-0.195,0.195-0.195,0.512,0,0.707
				s0.512,0.195,0.707,0l1.146-1.146l1.146,1.146c0.098,0.098,0.226,0.146,0.354,0.146s0.256-0.049,0.354-0.146
				C50.549,22.908,50.549,22.592,50.354,22.396z"/>
		</g>
	</g>
	<g>
		<g>
			<path class="st0" d="M53.945,17.817l-10.392-6C43.315,11.68,43.009,11.76,42.871,12c-0.139,0.239-0.057,0.545,0.183,0.683
				l10.392,6c0.079,0.045,0.165,0.067,0.25,0.067c0.172,0,0.341-0.089,0.433-0.25C54.267,18.261,54.185,17.955,53.945,17.817z"/>
		</g>
	</g>
	<g>
		<g>
			<path class="st0" d="M43.787,12.121l-0.55-2.049c-0.072-0.267-0.343-0.425-0.613-0.354c-0.267,0.072-0.425,0.346-0.354,0.612
				l0.421,1.566l-1.566,0.419c-0.268,0.071-0.426,0.346-0.354,0.612c0.061,0.223,0.263,0.371,0.483,0.371
				c0.043,0,0.086-0.005,0.129-0.017l2.05-0.549c0.129-0.034,0.238-0.118,0.304-0.233C43.803,12.385,43.821,12.249,43.787,12.121z"
				/>
		</g>
	</g>
	<g>
		<g>
			<path class="st0" d="M56.229,17.571c-0.072-0.267-0.342-0.425-0.613-0.354l-2.05,0.549c-0.128,0.034-0.237,0.118-0.303,0.233
				c-0.066,0.115-0.085,0.251-0.051,0.379l0.55,2.049c0.061,0.224,0.263,0.371,0.483,0.371c0.043,0,0.086-0.005,0.13-0.017
				c0.267-0.072,0.425-0.346,0.354-0.612l-0.421-1.566l1.567-0.42C56.142,18.112,56.3,17.838,56.229,17.571z"/>
		</g>
	</g>
	<g>
		<g>
			<path class="st0" d="M54.128,12c-0.138-0.24-0.444-0.322-0.683-0.183l-10.392,6c-0.239,0.138-0.321,0.444-0.183,0.683
				c0.092,0.161,0.261,0.25,0.433,0.25c0.085,0,0.171-0.021,0.25-0.067l10.392-6C54.185,12.545,54.267,12.239,54.128,12z"/>
		</g>
	</g>
	<g>
		<g>
			<path class="st0" d="M55.874,12.316l-1.566-0.419l0.421-1.566c0.071-0.267-0.087-0.541-0.354-0.612
				c-0.268-0.071-0.541,0.086-0.613,0.354l-0.55,2.049c-0.034,0.128-0.016,0.265,0.051,0.379c0.065,0.115,0.175,0.199,0.304,0.233
				l2.05,0.549c0.043,0.012,0.086,0.017,0.129,0.017c0.221,0,0.423-0.147,0.483-0.371C56.3,12.662,56.142,12.387,55.874,12.316z"/>
		</g>
	</g>
	<g>
		<g>
			<path class="st0" d="M43.736,18c-0.065-0.115-0.175-0.199-0.303-0.233l-2.05-0.549c-0.269-0.071-0.541,0.086-0.613,0.354
				c-0.071,0.267,0.087,0.541,0.354,0.612l1.567,0.42l-0.421,1.566c-0.071,0.267,0.087,0.541,0.354,0.612
				c0.044,0.012,0.087,0.017,0.13,0.017c0.221,0,0.423-0.147,0.483-0.371l0.55-2.049C43.821,18.251,43.803,18.115,43.736,18z"/>
		</g>
	</g>
	<g>
		<g>
			<path class="st0" d="M37.166,53.75h-10c-1.378,0-2.5-1.122-2.5-2.5s1.122-2.5,2.5-2.5h10c0.276,0,0.5-0.224,0.5-0.5
				s-0.224-0.5-0.5-0.5h-10c-1.93,0-3.5,1.57-3.5,3.5s1.57,3.5,3.5,3.5h10c0.276,0,0.5-0.224,0.5-0.5S37.442,53.75,37.166,53.75z"/>
		</g>
	</g>
	<g>
		<g>
			<path class="st0" d="M37.52,53.896l-2-2c-0.195-0.195-0.512-0.195-0.707,0s-0.195,0.512,0,0.707l1.646,1.646l-1.646,1.646
				c-0.195,0.195-0.195,0.512,0,0.707c0.098,0.098,0.226,0.146,0.354,0.146s0.256-0.049,0.354-0.146l2-2
				C37.715,54.408,37.715,54.091,37.52,53.896z"/>
		</g>
	</g>
	<g>
		<g>
			<path class="st0" d="M47,37.25c-0.276,0-0.5,0.224-0.5,0.5v1c0,0.276,0.224,0.5,0.5,0.5s0.5-0.224,0.5-0.5v-1
				C47.5,37.474,47.276,37.25,47,37.25z"/>
		</g>
	</g>
	<g>
		<g>
			<path class="st0" d="M47,27.75c-0.276,0-0.5,0.224-0.5,0.5v7.5c0,0.276,0.224,0.5,0.5,0.5s0.5-0.224,0.5-0.5v-7.5
				C47.5,27.974,47.276,27.75,47,27.75z"/>
		</g>
	</g>
	<g>
		<g>
			<path class="st0" d="M50,27.75c-0.276,0-0.5,0.224-0.5,0.5v1c0,0.276,0.224,0.5,0.5,0.5s0.5-0.224,0.5-0.5v-1
				C50.5,27.974,50.276,27.75,50,27.75z"/>
		</g>
	</g>
	<g>
		<g>
			<path class="st0" d="M50,30.75c-0.276,0-0.5,0.224-0.5,0.5v7.5c0,0.276,0.224,0.5,0.5,0.5s0.5-0.224,0.5-0.5v-7.5
				C50.5,30.974,50.276,30.75,50,30.75z"/>
		</g>
	</g>
</g>
</svg>
