<?xml version="1.0" encoding="utf-8"?>
<!-- Generator: Adobe Illustrator 21.1.0, SVG Export Plug-In . SVG Version: 6.00 Build 0)  -->
<svg version="1.1" id="Icon_Set" xmlns="http://www.w3.org/2000/svg" xmlns:xlink="http://www.w3.org/1999/xlink" x="0px" y="0px"
	 viewBox="0 0 64 64" style="enable-background:new 0 0 64 64;" xml:space="preserve">
<style type="text/css">
	.st0{fill:#263238;}
	.st1{fill:#FF5252;}
	.st2{fill:#FFD740;}
	.st3{fill:#40C4FF;}
	.st4{fill:#FFFFFF;}
	.st5{fill:#4DB6AC;}
	.st6{fill:#4FC3F7;}
</style>
<g id="Air_Conditioner">
	<g>
		<path class="st0" d="M59.5,37.5H55c-0.276,0-0.5-0.224-0.5-0.5s0.224-0.5,0.5-0.5h4.5c1.103,0,2-0.897,2-2v-25
			c0-1.103-0.897-2-2-2h-55c-1.103,0-2,0.897-2,2v25c0,1.103,0.897,2,2,2H9c0.276,0,0.5,0.224,0.5,0.5S9.276,37.5,9,37.5H4.5
			c-1.654,0-3-1.346-3-3v-25c0-1.654,1.346-3,3-3h55c1.654,0,3,1.346,3,3v25C62.5,36.155,61.154,37.5,59.5,37.5z"/>
	</g>
	<g>
		<path class="st0" d="M32.5,26.5h-1c-0.827,0-1.5-0.673-1.5-1.5v-6c0-0.827,0.673-1.5,1.5-1.5h1c0.827,0,1.5,0.673,1.5,1.5v6
			C34,25.828,33.327,26.5,32.5,26.5z M31.5,18.5c-0.276,0-0.5,0.224-0.5,0.5v6c0,0.276,0.224,0.5,0.5,0.5h1
			c0.276,0,0.5-0.224,0.5-0.5v-6c0-0.276-0.224-0.5-0.5-0.5H31.5z"/>
	</g>
	<g>
		<path class="st3" d="M24.5,30h-16C7.119,30,6,28.881,6,27.5v-11C6,15.12,7.119,14,8.5,14h16c1.381,0,2.5,1.119,2.5,2.5v11
			C27,28.881,25.881,30,24.5,30z"/>
		<path class="st0" d="M24.5,30.5h-16c-1.654,0-3-1.346-3-3v-11c0-1.654,1.346-3,3-3h16c1.654,0,3,1.346,3,3v11
			C27.5,29.155,26.154,30.5,24.5,30.5z M8.5,14.5c-1.103,0-2,0.897-2,2v11c0,1.103,0.897,2,2,2h16c1.103,0,2-0.897,2-2v-11
			c0-1.103-0.897-2-2-2H8.5z"/>
	</g>
	<g>
		<path class="st0" d="M27,18H6c-0.276,0-0.5-0.224-0.5-0.5S5.724,17,6,17h21c0.276,0,0.5,0.224,0.5,0.5S27.276,18,27,18z"/>
	</g>
	<g>
		<path class="st0" d="M27,22h-6c-0.276,0-0.5-0.224-0.5-0.5S20.724,21,21,21h6c0.276,0,0.5,0.224,0.5,0.5S27.276,22,27,22z"/>
	</g>
	<g>
		<path class="st0" d="M12,22H6c-0.276,0-0.5-0.224-0.5-0.5S5.724,21,6,21h6c0.276,0,0.5,0.224,0.5,0.5S12.276,22,12,22z"/>
	</g>
	<g>
		<path class="st0" d="M27,26H6c-0.276,0-0.5-0.224-0.5-0.5S5.724,25,6,25h21c0.276,0,0.5,0.224,0.5,0.5S27.276,26,27,26z"/>
	</g>
	<g>
		<path class="st0" d="M18,23.417h-3c-0.827,0-1.5-0.673-1.5-1.5v-1c0-0.827,0.673-1.5,1.5-1.5h3c0.827,0,1.5,0.673,1.5,1.5v1
			C19.5,22.744,18.827,23.417,18,23.417z M15,20.417c-0.276,0-0.5,0.224-0.5,0.5v1c0,0.276,0.224,0.5,0.5,0.5h3
			c0.276,0,0.5-0.224,0.5-0.5v-1c0-0.276-0.224-0.5-0.5-0.5H15z"/>
	</g>
	<g>
		<path class="st3" d="M55.5,30h-16c-1.381,0-2.5-1.119-2.5-2.5v-11c0-1.381,1.119-2.5,2.5-2.5h16c1.381,0,2.5,1.119,2.5,2.5v11
			C58,28.881,56.881,30,55.5,30z"/>
		<path class="st0" d="M55.5,30.5h-16c-1.654,0-3-1.346-3-3v-11c0-1.654,1.346-3,3-3h16c1.654,0,3,1.346,3,3v11
			C58.5,29.155,57.154,30.5,55.5,30.5z M39.5,14.5c-1.103,0-2,0.897-2,2v11c0,1.103,0.897,2,2,2h16c1.103,0,2-0.897,2-2v-11
			c0-1.103-0.897-2-2-2H39.5z"/>
	</g>
	<g>
		<path class="st0" d="M58,18H37c-0.276,0-0.5-0.224-0.5-0.5S36.724,17,37,17h21c0.276,0,0.5,0.224,0.5,0.5S58.276,18,58,18z"/>
	</g>
	<g>
		<path class="st0" d="M58,22h-6c-0.276,0-0.5-0.224-0.5-0.5S51.724,21,52,21h6c0.276,0,0.5,0.224,0.5,0.5S58.276,22,58,22z"/>
	</g>
	<g>
		<path class="st0" d="M43,22h-6c-0.276,0-0.5-0.224-0.5-0.5S36.724,21,37,21h6c0.276,0,0.5,0.224,0.5,0.5S43.276,22,43,22z"/>
	</g>
	<g>
		<path class="st0" d="M58,26H37c-0.276,0-0.5-0.224-0.5-0.5S36.724,25,37,25h21c0.276,0,0.5,0.224,0.5,0.5S58.276,26,58,26z"/>
	</g>
	<g>
		<path class="st0" d="M49,23.417h-3c-0.827,0-1.5-0.673-1.5-1.5v-1c0-0.827,0.673-1.5,1.5-1.5h3c0.827,0,1.5,0.673,1.5,1.5v1
			C50.5,22.744,49.827,23.417,49,23.417z M46,20.417c-0.275,0-0.5,0.224-0.5,0.5v1c0,0.276,0.225,0.5,0.5,0.5h3
			c0.275,0,0.5-0.224,0.5-0.5v-1c0-0.276-0.225-0.5-0.5-0.5H46z"/>
	</g>
	<g>
		<path class="st0" d="M32,57.5c-4.136,0-7.5-3.364-7.5-7.5s3.364-7.5,7.5-7.5s7.5,3.364,7.5,7.5S36.136,57.5,32,57.5z M32,43.5
			c-3.584,0-6.5,2.916-6.5,6.5s2.916,6.5,6.5,6.5s6.5-2.916,6.5-6.5S35.584,43.5,32,43.5z"/>
	</g>
	<g>
		<path class="st0" d="M33.944,53.694c-0.448,0-0.896-0.17-1.237-0.512l-3.889-3.889c-0.331-0.33-0.513-0.77-0.513-1.237
			c0-0.467,0.182-0.907,0.513-1.237c0.662-0.661,1.815-0.66,2.475,0l3.889,3.889c0.331,0.331,0.513,0.77,0.513,1.237
			c0,0.468-0.182,0.907-0.513,1.237l0,0C34.841,53.523,34.393,53.694,33.944,53.694z M30.055,47.306c-0.2,0-0.389,0.078-0.53,0.22
			s-0.22,0.33-0.22,0.53s0.078,0.389,0.22,0.53l3.889,3.889c0.293,0.292,0.768,0.292,1.061,0l0,0c0.142-0.142,0.22-0.33,0.22-0.53
			s-0.078-0.389-0.22-0.53l-3.889-3.889C30.444,47.384,30.255,47.306,30.055,47.306z"/>
	</g>
	<g>
		<path class="st0" d="M12,52.75c-0.276,0-0.5-0.224-0.5-0.5c0-0.722-0.372-1.071-0.842-1.512C10.142,50.254,9.5,49.652,9.5,48.497
			s0.642-1.757,1.158-2.241c0.471-0.441,0.842-0.79,0.842-1.512c0-0.72-0.372-1.068-0.842-1.509C10.142,42.751,9.5,42.15,9.5,40.997
			s0.642-1.755,1.158-2.238c0.47-0.44,0.842-0.789,0.842-1.508c0-0.276,0.224-0.5,0.5-0.5s0.5,0.224,0.5,0.5
			c0,1.153-0.642,1.755-1.158,2.238c-0.47,0.44-0.842,0.789-0.842,1.508c0,0.72,0.372,1.068,0.842,1.509
			c0.516,0.483,1.158,1.085,1.158,2.238c0,1.155-0.642,1.757-1.158,2.242c-0.47,0.441-0.842,0.79-0.842,1.512
			s0.372,1.07,0.842,1.512c0.516,0.484,1.158,1.087,1.158,2.242C12.5,52.527,12.276,52.75,12,52.75z"/>
	</g>
	<g>
		<path class="st0" d="M19,52.75c-0.276,0-0.5-0.224-0.5-0.5c0-0.722-0.372-1.071-0.842-1.512c-0.516-0.484-1.158-1.086-1.158-2.241
			s0.642-1.757,1.158-2.241c0.471-0.441,0.842-0.79,0.842-1.512c0-0.72-0.372-1.068-0.842-1.509
			c-0.516-0.483-1.158-1.085-1.158-2.238s0.642-1.755,1.158-2.238c0.47-0.44,0.842-0.789,0.842-1.508c0-0.276,0.224-0.5,0.5-0.5
			s0.5,0.224,0.5,0.5c0,1.153-0.642,1.755-1.158,2.238c-0.47,0.44-0.842,0.789-0.842,1.508c0,0.72,0.372,1.068,0.842,1.509
			c0.516,0.483,1.158,1.085,1.158,2.238c0,1.155-0.642,1.757-1.158,2.242c-0.47,0.441-0.842,0.79-0.842,1.512
			s0.372,1.07,0.842,1.512c0.516,0.484,1.158,1.087,1.158,2.242C19.5,52.527,19.276,52.75,19,52.75z"/>
	</g>
	<g>
		<path class="st0" d="M52,52.75c-0.276,0-0.5-0.224-0.5-0.5c0-1.154,0.643-1.755,1.158-2.238c0.471-0.441,0.842-0.789,0.842-1.508
			c0-0.72-0.371-1.068-0.842-1.509c-0.516-0.483-1.158-1.085-1.158-2.238c0-1.155,0.642-1.757,1.158-2.241
			c0.47-0.441,0.842-0.79,0.842-1.512c0-0.722-0.372-1.07-0.842-1.512c-0.517-0.484-1.158-1.086-1.158-2.241
			c0-0.276,0.224-0.5,0.5-0.5s0.5,0.224,0.5,0.5c0,0.722,0.372,1.07,0.842,1.512c0.517,0.484,1.158,1.086,1.158,2.241
			s-0.642,1.757-1.158,2.242c-0.47,0.441-0.842,0.79-0.842,1.512c0,0.72,0.371,1.068,0.842,1.509
			c0.516,0.483,1.158,1.085,1.158,2.238s-0.643,1.755-1.158,2.238C52.871,51.183,52.5,51.53,52.5,52.25
			C52.5,52.527,52.276,52.75,52,52.75z"/>
	</g>
	<g>
		<path class="st0" d="M45,52.75c-0.276,0-0.5-0.224-0.5-0.5c0-1.154,0.643-1.755,1.158-2.238c0.471-0.441,0.842-0.789,0.842-1.508
			c0-0.72-0.371-1.068-0.842-1.509c-0.516-0.483-1.158-1.085-1.158-2.238c0-1.155,0.642-1.757,1.158-2.241
			c0.47-0.441,0.842-0.79,0.842-1.512c0-0.722-0.372-1.07-0.842-1.512c-0.517-0.484-1.158-1.086-1.158-2.241
			c0-0.276,0.224-0.5,0.5-0.5s0.5,0.224,0.5,0.5c0,0.722,0.372,1.07,0.842,1.512c0.517,0.484,1.158,1.086,1.158,2.241
			s-0.642,1.757-1.158,2.242c-0.47,0.441-0.842,0.79-0.842,1.512c0,0.72,0.371,1.068,0.842,1.509
			c0.516,0.483,1.158,1.085,1.158,2.238s-0.643,1.755-1.158,2.238C45.871,51.183,45.5,51.53,45.5,52.25
			C45.5,52.527,45.276,52.75,45,52.75z"/>
	</g>
	<g>
		<path class="st0" d="M42,37.5H22c-0.276,0-0.5-0.224-0.5-0.5s0.224-0.5,0.5-0.5h20c0.276,0,0.5,0.224,0.5,0.5S42.276,37.5,42,37.5
			z"/>
	</g>
</g>
</svg>
