<?xml version="1.0" encoding="utf-8"?>
<!-- Generator: Adobe Illustrator 21.1.0, SVG Export Plug-In . SVG Version: 6.00 Build 0)  -->
<svg version="1.1" id="Icon_Set" xmlns="http://www.w3.org/2000/svg" xmlns:xlink="http://www.w3.org/1999/xlink" x="0px" y="0px"
	 viewBox="0 0 64 64" style="enable-background:new 0 0 64 64;" xml:space="preserve">
<style type="text/css">
	.st0{fill:#263238;}
	.st1{fill:#FF5252;}
	.st2{fill:#FFD740;}
	.st3{fill:#40C4FF;}
	.st4{fill:#FFFFFF;}
	.st5{fill:#4DB6AC;}
	.st6{fill:#4FC3F7;}
</style>
<g id="Altenator">
	<g>
		<path class="st3" d="M23.5,50.5h-7c-1.381,0-2.5-1.119-2.5-2.5V13c0-1.381,1.119-2.5,2.5-2.5h7c1.381,0,2.5,1.119,2.5,2.5v35
			C26,49.381,24.881,50.5,23.5,50.5z"/>
		<path class="st0" d="M23.5,51h-7c-1.654,0-3-1.346-3-3V13c0-1.654,1.346-3,3-3h7c1.654,0,3,1.346,3,3v35
			C26.5,49.655,25.154,51,23.5,51z M16.5,11c-1.103,0-2,0.897-2,2v35c0,1.103,0.897,2,2,2h7c1.103,0,2-0.897,2-2V13
			c0-1.103-0.897-2-2-2H16.5z"/>
	</g>
	<g>
		<path class="st3" d="M45.5,50.5h-7c-1.381,0-2.5-1.119-2.5-2.5V13c0-1.381,1.119-2.5,2.5-2.5h7c1.381,0,2.5,1.119,2.5,2.5v35
			C48,49.381,46.881,50.5,45.5,50.5z"/>
		<path class="st0" d="M45.5,51h-7c-1.654,0-3-1.346-3-3V13c0-1.654,1.346-3,3-3h7c1.654,0,3,1.346,3,3v35
			C48.5,49.655,47.154,51,45.5,51z M38.5,11c-1.103,0-2,0.897-2,2v35c0,1.103,0.897,2,2,2h7c1.103,0,2-0.897,2-2V13
			c0-1.103-0.897-2-2-2H38.5z"/>
	</g>
	<g>
		<path class="st0" d="M50.5,49H50c-0.276,0-0.5-0.224-0.5-0.5S49.724,48,50,48h0.5c3.86,0,7-3.14,7-7V25c0-2.481-2.019-4.5-4.5-4.5
			h-3c-0.276,0-0.5-0.224-0.5-0.5s0.224-0.5,0.5-0.5h3c3.033,0,5.5,2.467,5.5,5.5v16C58.5,45.412,54.911,49,50.5,49z"/>
	</g>
	<g>
		<path class="st0" d="M12,37h-2c-0.276,0-0.5-0.224-0.5-0.5v-12c0-0.276,0.224-0.5,0.5-0.5h2c0.276,0,0.5,0.224,0.5,0.5
			S12.276,25,12,25h-1.5v11H12c0.276,0,0.5,0.224,0.5,0.5S12.276,37,12,37z"/>
	</g>
	<g>
		<path class="st0" d="M34,49h-6c-0.276,0-0.5-0.224-0.5-0.5S27.724,48,28,48h6c0.276,0,0.5,0.224,0.5,0.5S34.276,49,34,49z"/>
	</g>
	<g>
		<path class="st0" d="M34,13h-6c-0.276,0-0.5-0.224-0.5-0.5S27.724,12,28,12h6c0.276,0,0.5,0.224,0.5,0.5S34.276,13,34,13z"/>
	</g>
	<g>
		<path class="st0" d="M22,58h-2.795c-0.632,0-1.2-0.4-1.412-0.996l-2.263-6.336c-0.055-0.153-0.032-0.323,0.062-0.456
			S15.837,50,16,50h7c0.276,0,0.5,0.224,0.5,0.5v6C23.5,57.328,22.827,58,22,58z M16.709,51l2.024,5.668
			C18.805,56.867,18.994,57,19.205,57H22c0.276,0,0.5-0.224,0.5-0.5V51H16.709z"/>
	</g>
	<g>
		<path class="st0" d="M44,58h-2.795c-0.632,0-1.2-0.4-1.412-0.996l-2.263-6.336c-0.055-0.153-0.032-0.323,0.062-0.456
			S37.837,50,38,50h7c0.276,0,0.5,0.224,0.5,0.5v6C45.5,57.328,44.827,58,44,58z M38.709,51l2.024,5.668
			C40.805,56.867,40.994,57,41.205,57H44c0.276,0,0.5-0.224,0.5-0.5V51H38.709z"/>
	</g>
	<g>
		<path class="st2" d="M2,40.5h7c0.552,0,1-0.448,1-1v-18c0-0.552-0.448-1-1-1H2c-0.552,0-1,0.448-1,1v18
			C1,40.053,1.448,40.5,2,40.5z"/>
		<path class="st0" d="M9,41H2c-0.827,0-1.5-0.673-1.5-1.5v-18C0.5,20.673,1.173,20,2,20h7c0.827,0,1.5,0.673,1.5,1.5v18
			C10.5,40.328,9.827,41,9,41z M2,21c-0.276,0-0.5,0.224-0.5,0.5v18C1.5,39.776,1.724,40,2,40h7c0.276,0,0.5-0.224,0.5-0.5v-18
			C9.5,21.225,9.276,21,9,21H2z"/>
	</g>
	<g>
		<path class="st0" d="M4,37c-0.276,0-0.5-0.224-0.5-0.5v-16C3.5,20.224,3.724,20,4,20s0.5,0.224,0.5,0.5v16
			C4.5,36.777,4.276,37,4,37z"/>
	</g>
	<g>
		<path class="st0" d="M7,37c-0.276,0-0.5-0.224-0.5-0.5v-16C6.5,20.224,6.724,20,7,20s0.5,0.224,0.5,0.5v16
			C7.5,36.777,7.276,37,7,37z"/>
	</g>
	<g>
		<path class="st4" d="M20,44h-6v-3h6c0.552,0,1,0.448,1,1v1C21,43.553,20.552,44,20,44z"/>
		<path class="st0" d="M20,44.5h-6c-0.276,0-0.5-0.224-0.5-0.5v-3c0-0.276,0.224-0.5,0.5-0.5h6c0.827,0,1.5,0.673,1.5,1.5v1
			C21.5,43.828,20.827,44.5,20,44.5z M14.5,43.5H20c0.276,0,0.5-0.224,0.5-0.5v-1c0-0.276-0.224-0.5-0.5-0.5h-5.5V43.5z"/>
	</g>
	<g>
		<path class="st4" d="M20,38h-6v-3h6c0.552,0,1,0.448,1,1v1C21,37.553,20.552,38,20,38z"/>
		<path class="st0" d="M20,38.5h-6c-0.276,0-0.5-0.224-0.5-0.5v-3c0-0.276,0.224-0.5,0.5-0.5h6c0.827,0,1.5,0.673,1.5,1.5v1
			C21.5,37.828,20.827,38.5,20,38.5z M14.5,37.5H20c0.276,0,0.5-0.224,0.5-0.5v-1c0-0.276-0.224-0.5-0.5-0.5h-5.5V37.5z"/>
	</g>
	<g>
		<path class="st4" d="M20,26h-6v-3h6c0.552,0,1,0.448,1,1v1C21,25.553,20.552,26,20,26z"/>
		<path class="st0" d="M20,26.5h-6c-0.276,0-0.5-0.224-0.5-0.5v-3c0-0.276,0.224-0.5,0.5-0.5h6c0.827,0,1.5,0.673,1.5,1.5v1
			C21.5,25.828,20.827,26.5,20,26.5z M14.5,25.5H20c0.276,0,0.5-0.224,0.5-0.5v-1c0-0.276-0.224-0.5-0.5-0.5h-5.5V25.5z"/>
	</g>
	<g>
		<path class="st4" d="M20,20h-6v-3h6c0.552,0,1,0.448,1,1v1C21,19.553,20.552,20,20,20z"/>
		<path class="st0" d="M20,20.5h-6c-0.276,0-0.5-0.224-0.5-0.5v-3c0-0.276,0.224-0.5,0.5-0.5h6c0.827,0,1.5,0.673,1.5,1.5v1
			C21.5,19.828,20.827,20.5,20,20.5z M14.5,19.5H20c0.276,0,0.5-0.224,0.5-0.5v-1c0-0.276-0.224-0.5-0.5-0.5h-5.5V19.5z"/>
	</g>
	<g>
		<path class="st4" d="M42,17h6v3h-6c-0.552,0-1-0.448-1-1v-1C41,17.448,41.448,17,42,17z"/>
		<path class="st0" d="M48,20.5h-6c-0.827,0-1.5-0.673-1.5-1.5v-1c0-0.827,0.673-1.5,1.5-1.5h6c0.276,0,0.5,0.224,0.5,0.5v3
			C48.5,20.277,48.276,20.5,48,20.5z M42,17.5c-0.276,0-0.5,0.224-0.5,0.5v1c0,0.276,0.224,0.5,0.5,0.5h5.5v-2H42z"/>
	</g>
	<g>
		<path class="st4" d="M42,23h6v3h-6c-0.552,0-1-0.448-1-1v-1C41,23.448,41.448,23,42,23z"/>
		<path class="st0" d="M48,26.5h-6c-0.827,0-1.5-0.673-1.5-1.5v-1c0-0.827,0.673-1.5,1.5-1.5h6c0.276,0,0.5,0.224,0.5,0.5v3
			C48.5,26.277,48.276,26.5,48,26.5z M42,23.5c-0.276,0-0.5,0.224-0.5,0.5v1c0,0.276,0.224,0.5,0.5,0.5h5.5v-2H42z"/>
	</g>
	<g>
		<path class="st4" d="M42,35h6v3h-6c-0.552,0-1-0.448-1-1v-1C41,35.448,41.448,35,42,35z"/>
		<path class="st0" d="M48,38.5h-6c-0.827,0-1.5-0.673-1.5-1.5v-1c0-0.827,0.673-1.5,1.5-1.5h6c0.276,0,0.5,0.224,0.5,0.5v3
			C48.5,38.277,48.276,38.5,48,38.5z M42,35.5c-0.276,0-0.5,0.224-0.5,0.5v1c0,0.276,0.224,0.5,0.5,0.5h5.5v-2H42z"/>
	</g>
	<g>
		<path class="st4" d="M42,41h6v3h-6c-0.552,0-1-0.448-1-1v-1C41,41.448,41.448,41,42,41z"/>
		<path class="st0" d="M48,44.5h-6c-0.827,0-1.5-0.673-1.5-1.5v-1c0-0.827,0.673-1.5,1.5-1.5h6c0.276,0,0.5,0.224,0.5,0.5v3
			C48.5,44.277,48.276,44.5,48,44.5z M42,41.5c-0.276,0-0.5,0.224-0.5,0.5v1c0,0.276,0.224,0.5,0.5,0.5h5.5v-2H42z"/>
	</g>
	<g>
		<path class="st0" d="M34,22.5h-6c-0.276,0-0.5-0.224-0.5-0.5s0.224-0.5,0.5-0.5h6c0.276,0,0.5,0.224,0.5,0.5S34.276,22.5,34,22.5z
			"/>
	</g>
	<g>
		<path class="st0" d="M34,31h-6c-0.276,0-0.5-0.224-0.5-0.5S27.724,30,28,30h6c0.276,0,0.5,0.224,0.5,0.5S34.276,31,34,31z"/>
	</g>
	<g>
		<path class="st0" d="M34,39.5h-6c-0.276,0-0.5-0.224-0.5-0.5s0.224-0.5,0.5-0.5h6c0.276,0,0.5,0.224,0.5,0.5S34.276,39.5,34,39.5z
			"/>
	</g>
	<g>
		<path class="st0" d="M54,20.5h-4c-0.276,0-0.5-0.224-0.5-0.5s0.224-0.5,0.5-0.5h4c0.276,0,0.5-0.224,0.5-0.5v-5
			c0-0.276-0.224-0.5-0.5-0.5h-4c-0.276,0-0.5-0.224-0.5-0.5s0.224-0.5,0.5-0.5h4c0.827,0,1.5,0.673,1.5,1.5v5
			C55.5,19.828,54.827,20.5,54,20.5z"/>
	</g>
	<g>
		<path class="st0" d="M62,18.5h-7c-0.276,0-0.5-0.224-0.5-0.5v-3c0-0.276,0.224-0.5,0.5-0.5h7c0.827,0,1.5,0.673,1.5,1.5v1
			C63.5,17.828,62.827,18.5,62,18.5z M55.5,17.5H62c0.276,0,0.5-0.224,0.5-0.5v-1c0-0.276-0.224-0.5-0.5-0.5h-6.5V17.5z"/>
	</g>
	<g>
		<path class="st0" d="M26,62.5h-1c-0.276,0-0.5-0.224-0.5-0.5s0.224-0.5,0.5-0.5h1c0.276,0,0.5,0.224,0.5,0.5S26.276,62.5,26,62.5z
			"/>
	</g>
	<g>
		<path class="st0" d="M23,62.5H11c-0.276,0-0.5-0.224-0.5-0.5s0.224-0.5,0.5-0.5h12c0.276,0,0.5,0.224,0.5,0.5S23.276,62.5,23,62.5
			z"/>
	</g>
	<g>
		<path class="st0" d="M42.5,6.5h-1C41.224,6.5,41,6.277,41,6s0.224-0.5,0.5-0.5h1C42.776,5.5,43,5.724,43,6S42.776,6.5,42.5,6.5z"
			/>
	</g>
	<g>
		<path class="st0" d="M56.5,6.5h-12C44.224,6.5,44,6.277,44,6s0.224-0.5,0.5-0.5h12C56.776,5.5,57,5.724,57,6S56.776,6.5,56.5,6.5z
			"/>
	</g>
	<g>
		<path class="st0" d="M12,6.5c-0.276,0-0.5-0.224-0.5-0.5V2c0-0.276,0.224-0.5,0.5-0.5s0.5,0.224,0.5,0.5v4
			C12.5,6.277,12.276,6.5,12,6.5z"/>
	</g>
	<g>
		<path class="st0" d="M14,4.5h-4C9.724,4.5,9.5,4.277,9.5,4S9.724,3.5,10,3.5h4c0.276,0,0.5,0.224,0.5,0.5S14.276,4.5,14,4.5z"/>
	</g>
	<g>
		<path class="st0" d="M5,13.5c-0.276,0-0.5-0.224-0.5-0.5V9c0-0.276,0.224-0.5,0.5-0.5S5.5,8.724,5.5,9v4
			C5.5,13.277,5.276,13.5,5,13.5z"/>
	</g>
	<g>
		<path class="st0" d="M7,11.5H3c-0.276,0-0.5-0.224-0.5-0.5s0.224-0.5,0.5-0.5h4c0.276,0,0.5,0.224,0.5,0.5S7.276,11.5,7,11.5z"/>
	</g>
</g>
</svg>
