<?xml version="1.0" encoding="utf-8"?>
<!-- Generator: Adobe Illustrator 21.1.0, SVG Export Plug-In . SVG Version: 6.00 Build 0)  -->
<svg version="1.1" id="Icon_Set" xmlns="http://www.w3.org/2000/svg" xmlns:xlink="http://www.w3.org/1999/xlink" x="0px" y="0px"
	 viewBox="0 0 64 64" style="enable-background:new 0 0 64 64;" xml:space="preserve">
<style type="text/css">
	.st0{fill:#263238;}
	.st1{fill:#FF5252;}
	.st2{fill:#FFD740;}
	.st3{fill:#40C4FF;}
	.st4{fill:#FFFFFF;}
	.st5{fill:#4DB6AC;}
	.st6{fill:#4FC3F7;}
</style>
<g id="Battery">
	<g>
		<path class="st0" d="M59.5,30h-55C3.673,30,3,29.327,3,28.5v-3C3,24.673,3.673,24,4.5,24h55c0.827,0,1.5,0.673,1.5,1.5v3
			C61,29.327,60.327,30,59.5,30z M4.5,25C4.225,25,4,25.224,4,25.5v3C4,28.776,4.225,29,4.5,29h55c0.275,0,0.5-0.224,0.5-0.5v-3
			c0-0.276-0.225-0.5-0.5-0.5H4.5z"/>
	</g>
	<g>
		<path class="st0" d="M59.5,64h-55C3.673,64,3,63.327,3,62.5v-2C3,59.673,3.673,59,4.5,59V31.5C4.5,31.224,4.724,31,5,31
			s0.5,0.224,0.5,0.5v28C5.5,59.776,5.276,60,5,60H4.5C4.225,60,4,60.224,4,60.5v2C4,62.776,4.225,63,4.5,63h55
			c0.275,0,0.5-0.224,0.5-0.5v-2c0-0.276-0.225-0.5-0.5-0.5H59c-0.276,0-0.5-0.224-0.5-0.5v-28c0-0.276,0.224-0.5,0.5-0.5
			s0.5,0.224,0.5,0.5V59c0.827,0,1.5,0.673,1.5,1.5v2C61,63.327,60.327,64,59.5,64z"/>
	</g>
	<g>
		<path class="st0" d="M48.5,23c-0.276,0-0.5-0.224-0.5-0.5V20c0-1.103-0.897-2-2-2H18c-1.103,0-2,0.897-2,2v2.5
			c0,0.276-0.224,0.5-0.5,0.5S15,22.776,15,22.5V20c0-1.654,1.346-3,3-3h28c1.654,0,3,1.346,3,3v2.5C49,22.776,48.776,23,48.5,23z"
			/>
	</g>
	<g>
		<path class="st0" d="M12,23c-0.276,0-0.5-0.224-0.5-0.5v-2c0-0.276-0.225-0.5-0.5-0.5H8c-0.275,0-0.5,0.224-0.5,0.5v2
			C7.5,22.776,7.276,23,7,23s-0.5-0.224-0.5-0.5v-2C6.5,19.673,7.173,19,8,19h3c0.827,0,1.5,0.673,1.5,1.5v2
			C12.5,22.776,12.276,23,12,23z"/>
	</g>
	<g>
		<path class="st0" d="M57,23c-0.276,0-0.5-0.224-0.5-0.5v-2c0-0.276-0.225-0.5-0.5-0.5h-3c-0.275,0-0.5,0.224-0.5,0.5v2
			c0,0.276-0.224,0.5-0.5,0.5s-0.5-0.224-0.5-0.5v-2c0-0.827,0.673-1.5,1.5-1.5h3c0.827,0,1.5,0.673,1.5,1.5v2
			C57.5,22.776,57.276,23,57,23z"/>
	</g>
	<g>
		<path class="st5" d="M50,56.5H14c-0.552,0-1-0.448-1-1v-18c0-0.552,0.448-1,1-1h36c0.552,0,1,0.448,1,1v18
			C51,56.052,50.552,56.5,50,56.5z"/>
		<path class="st0" d="M50,57H14c-0.827,0-1.5-0.673-1.5-1.5v-18c0-0.827,0.673-1.5,1.5-1.5h36c0.827,0,1.5,0.673,1.5,1.5v18
			C51.5,56.327,50.827,57,50,57z M14,37c-0.275,0-0.5,0.224-0.5,0.5v18c0,0.276,0.225,0.5,0.5,0.5h36c0.275,0,0.5-0.224,0.5-0.5v-18
			c0-0.276-0.225-0.5-0.5-0.5H14z"/>
	</g>
	<g>
		<path class="st0" d="M21,3h-4c-0.276,0-0.5-0.224-0.5-0.5S16.724,2,17,2h4c0.276,0,0.5,0.224,0.5,0.5S21.276,3,21,3z"/>
	</g>
	<g>
		<path class="st0" d="M19,5c-0.276,0-0.5-0.224-0.5-0.5v-4C18.5,0.224,18.724,0,19,0s0.5,0.224,0.5,0.5v4C19.5,4.776,19.276,5,19,5
			z"/>
	</g>
	<g>
		<path class="st0" d="M14,10h-4c-0.276,0-0.5-0.224-0.5-0.5S9.724,9,10,9h4c0.276,0,0.5,0.224,0.5,0.5S14.276,10,14,10z"/>
	</g>
	<g>
		<path class="st0" d="M12,12c-0.276,0-0.5-0.224-0.5-0.5v-4C11.5,7.224,11.724,7,12,7s0.5,0.224,0.5,0.5v4
			C12.5,11.776,12.276,12,12,12z"/>
	</g>
	<g>
		<g>
			<path class="st0" d="M36,11.5h-1c-0.276,0-0.5-0.224-0.5-0.5s0.224-0.5,0.5-0.5h1c0.276,0,0.5,0.224,0.5,0.5S36.276,11.5,36,11.5
				z"/>
		</g>
		<g>
			<path class="st0" d="M49,11.5H38c-0.276,0-0.5-0.224-0.5-0.5s0.224-0.5,0.5-0.5h11c0.276,0,0.5,0.224,0.5,0.5
				S49.276,11.5,49,11.5z"/>
		</g>
		<g>
			<path class="st0" d="M55,8.5h-1c-0.276,0-0.5-0.224-0.5-0.5s0.224-0.5,0.5-0.5h1c0.276,0,0.5,0.224,0.5,0.5S55.276,8.5,55,8.5z"
				/>
		</g>
		<g>
			<path class="st0" d="M52,8.5H41c-0.276,0-0.5-0.224-0.5-0.5s0.224-0.5,0.5-0.5h11c0.276,0,0.5,0.224,0.5,0.5S52.276,8.5,52,8.5z"
				/>
		</g>
	</g>
	<g>
		<path class="st4" d="M37,49H27c-0.552,0-1-0.448-1-1v-3c0-0.552,0.448-1,1-1h10c0.552,0,1,0.448,1,1v3C38,48.552,37.552,49,37,49z
			"/>
		<path class="st0" d="M37,49.5H27c-0.827,0-1.5-0.673-1.5-1.5v-3c0-0.827,0.673-1.5,1.5-1.5h10c0.827,0,1.5,0.673,1.5,1.5v3
			C38.5,48.827,37.827,49.5,37,49.5z M27,44.5c-0.275,0-0.5,0.224-0.5,0.5v3c0,0.276,0.225,0.5,0.5,0.5h10
			c0.275,0,0.5-0.224,0.5-0.5v-3c0-0.276-0.225-0.5-0.5-0.5H27z"/>
	</g>
	<g>
		<path class="st0" d="M56,38c-0.276,0-0.5-0.224-0.5-0.5V33H51c-0.276,0-0.5-0.224-0.5-0.5S50.724,32,51,32h5
			c0.276,0,0.5,0.224,0.5,0.5v5C56.5,37.776,56.276,38,56,38z"/>
	</g>
</g>
</svg>
