<?xml version="1.0" encoding="utf-8"?>
<!-- Generator: Adobe Illustrator 21.1.0, SVG Export Plug-In . SVG Version: 6.00 Build 0)  -->
<svg version="1.1" id="Icon_Set" xmlns="http://www.w3.org/2000/svg" xmlns:xlink="http://www.w3.org/1999/xlink" x="0px" y="0px"
	 viewBox="0 0 64 64" style="enable-background:new 0 0 64 64;" xml:space="preserve">
<style type="text/css">
	.st0{fill:#263238;}
	.st1{fill:#FF5252;}
	.st2{fill:#FFD740;}
	.st3{fill:#40C4FF;}
	.st4{fill:#FFFFFF;}
	.st5{fill:#4DB6AC;}
	.st6{fill:#4FC3F7;}
</style>
<g id="Body_Paint_Repair">
	<g>
		<path class="st0" d="M3.5,59.5h-3C0.224,59.5,0,59.276,0,59s0.224-0.5,0.5-0.5h3C3.776,58.5,4,58.724,4,59S3.776,59.5,3.5,59.5z"
			/>
	</g>
	<g>
		<path class="st0" d="M63.5,59.5h-58C5.224,59.5,5,59.276,5,59s0.224-0.5,0.5-0.5h58c0.276,0,0.5,0.224,0.5,0.5
			S63.776,59.5,63.5,59.5z"/>
	</g>
	<g>
		<path class="st1" d="M58.5,55h2.279c0.43,0,0.813-0.275,0.949-0.684l1.222-3.667c0.315-0.946-0.114-1.979-1.007-2.423L61.489,48
			l-0.667-3.182c-0.42-2.004-2.02-3.549-4.037-3.899L48.625,39.5L37,30.11C36.11,29.392,35.001,29,33.858,29H13.685
			c-1.607,0-3.117,0.773-4.057,2.077L5,37.5H1.766c-0.777,0-1.257,0.848-0.857,1.514L3,42.5V48h0c-1.287,0-2.246,1.186-1.976,2.445
			l0.807,3.765C1.93,54.671,2.337,55,2.809,55H5"/>
		<path class="st0" d="M60.779,55.5H58.5c-0.276,0-0.5-0.224-0.5-0.5s0.224-0.5,0.5-0.5h2.279c0.215,0,0.406-0.138,0.475-0.342
			l1.222-3.667c0.235-0.705-0.09-1.486-0.755-1.818l-0.454-0.225c-0.137-0.068-0.235-0.195-0.267-0.346l-0.667-3.182
			c-0.381-1.814-1.807-3.192-3.633-3.51l-8.16-1.419c-0.084-0.014-0.163-0.05-0.229-0.104l-11.625-9.39
			c-0.797-0.645-1.802-0.999-2.828-0.999H13.685c-1.443,0-2.808,0.699-3.651,1.869l-4.628,6.423C5.312,37.923,5.161,38,5,38H1.766
			c-0.263,0-0.392,0.177-0.435,0.254c-0.043,0.076-0.129,0.277,0.006,0.504l2.091,3.485C3.476,42.32,3.5,42.409,3.5,42.5V48
			c0,0.276-0.224,0.5-0.5,0.5c-0.461,0-0.893,0.206-1.183,0.564c-0.29,0.359-0.401,0.824-0.305,1.275l0.807,3.766
			C2.369,54.334,2.574,54.5,2.809,54.5H5c0.276,0,0.5,0.224,0.5,0.5S5.276,55.5,5,55.5H2.809c-0.702,0-1.319-0.498-1.467-1.185
			l-0.807-3.767c-0.16-0.748,0.023-1.518,0.504-2.112c0.374-0.463,0.89-0.772,1.46-0.887v-4.911l-2.02-3.367
			c-0.282-0.47-0.289-1.034-0.019-1.511S1.219,37,1.766,37h2.978l4.479-6.215c1.031-1.431,2.699-2.285,4.462-2.285h20.173
			c1.254,0,2.481,0.434,3.456,1.222l11.524,9.308l8.032,1.397c2.232,0.388,3.975,2.071,4.44,4.289l0.618,2.944l0.237,0.117
			c1.109,0.553,1.65,1.854,1.258,3.03l-1.222,3.667C61.997,55.088,61.425,55.5,60.779,55.5z"/>
	</g>
	<g>
		<path class="st0" d="M41.5,55.5H22c-0.276,0-0.5-0.224-0.5-0.5s0.224-0.5,0.5-0.5h19.5c0.276,0,0.5,0.224,0.5,0.5
			S41.776,55.5,41.5,55.5z"/>
	</g>
	<g>
		<circle class="st4" cx="50" cy="52.5" r="6.5"/>
		<path class="st0" d="M50,59.5c-3.86,0-7-3.141-7-7s3.14-7,7-7s7,3.141,7,7S53.859,59.5,50,59.5z M50,46.5c-3.309,0-6,2.691-6,6
			s2.691,6,6,6s6-2.691,6-6S53.308,46.5,50,46.5z"/>
	</g>
	<g>
		<path class="st0" d="M50,56.5c-2.206,0-4-1.794-4-4s1.794-4,4-4s4,1.794,4,4S52.205,56.5,50,56.5z M50,49.5c-1.654,0-3,1.346-3,3
			s1.346,3,3,3s3-1.346,3-3S51.654,49.5,50,49.5z"/>
	</g>
	<g>
		<circle class="st4" cx="13.5" cy="52.5" r="6.5"/>
		<path class="st0" d="M13.5,59.5c-3.86,0-7-3.141-7-7s3.14-7,7-7s7,3.141,7,7S17.36,59.5,13.5,59.5z M13.5,46.5
			c-3.309,0-6,2.691-6,6s2.691,6,6,6s6-2.691,6-6S16.809,46.5,13.5,46.5z"/>
	</g>
	<g>
		<path class="st0" d="M13.5,56.5c-2.206,0-4-1.794-4-4s1.794-4,4-4s4,1.794,4,4S15.706,56.5,13.5,56.5z M13.5,49.5
			c-1.654,0-3,1.346-3,3s1.346,3,3,3s3-1.346,3-3S15.154,49.5,13.5,49.5z"/>
	</g>
	<g>
		<path class="st4" d="M15.391,33.122l-1.125,3c-0.613,1.634,0.595,3.378,2.341,3.378h32.018l-9.905-8H17.732
			C16.69,31.5,15.757,32.146,15.391,33.122z"/>
		<path class="st0" d="M48.625,40H16.607c-0.983,0-1.905-0.482-2.465-1.291c-0.561-0.809-0.689-1.841-0.344-2.763l1.125-3l0,0
			C15.36,31.782,16.489,31,17.732,31H38.72c0.114,0,0.225,0.039,0.314,0.111l9.905,8c0.165,0.133,0.228,0.355,0.157,0.556
			C49.026,39.866,48.837,40,48.625,40z M15.859,33.298l-1.125,3c-0.234,0.623-0.15,1.294,0.229,1.842
			c0.379,0.547,0.978,0.86,1.644,0.86H47.21l-8.667-7H17.732C16.903,32,16.15,32.521,15.859,33.298z"/>
	</g>
	<g>
		<path class="st0" d="M47.625,44.949c-0.276,0-0.5-0.224-0.5-0.5V41.5c0-0.276,0.224-0.5,0.5-0.5s0.5,0.224,0.5,0.5v2.949
			C48.125,44.726,47.901,44.949,47.625,44.949z"/>
	</g>
	<g>
		<path class="st0" d="M27.5,53.5c-0.276,0-0.5-0.224-0.5-0.5V41.5c0-0.276,0.224-0.5,0.5-0.5s0.5,0.224,0.5,0.5V53
			C28,53.276,27.776,53.5,27.5,53.5z"/>
	</g>
	<g>
		<path class="st0" d="M27.5,40c-0.276,0-0.5-0.224-0.5-0.5v-8c0-0.276,0.224-0.5,0.5-0.5s0.5,0.224,0.5,0.5v8
			C28,39.776,27.776,40,27.5,40z"/>
	</g>
	<g>
		<path class="st0" d="M9.125,44.5h-2c-0.827,0-1.5-0.673-1.5-1.5v-2c0-0.827,0.673-1.5,1.5-1.5h2c0.827,0,1.5,0.673,1.5,1.5v2
			C10.625,43.827,9.952,44.5,9.125,44.5z M7.125,40.5c-0.276,0-0.5,0.225-0.5,0.5v2c0,0.275,0.224,0.5,0.5,0.5h2
			c0.276,0,0.5-0.225,0.5-0.5v-2c0-0.275-0.224-0.5-0.5-0.5H7.125z"/>
	</g>
	<g>
		<path class="st4" d="M61.489,48l-0.667-3.182c-0.06-0.284-0.148-0.555-0.253-0.818h-2.234c-0.743,0-1.227,0.782-0.894,1.447
			L58.716,48L61.489,48L61.489,48z"/>
		<path class="st0" d="M61.489,48.5h-2.772c-0.189,0-0.362-0.107-0.447-0.276l-1.276-2.553c-0.234-0.469-0.209-1.015,0.065-1.46
			c0.275-0.445,0.752-0.711,1.276-0.711h2.234c0.205,0,0.389,0.125,0.465,0.315c0.126,0.319,0.217,0.613,0.277,0.9l0.667,3.182
			c0.031,0.147-0.006,0.301-0.101,0.418C61.782,48.432,61.639,48.5,61.489,48.5z M59.025,47.5h1.848l-0.541-2.579
			c-0.029-0.136-0.066-0.274-0.114-0.421h-1.884c-0.251,0-0.381,0.166-0.425,0.237c-0.044,0.071-0.135,0.261-0.022,0.486
			L59.025,47.5z"/>
	</g>
	<g>
		<path class="st0" d="M36.042,51c-0.104,0-0.206-0.032-0.292-0.095c-0.13-0.094-0.208-0.244-0.208-0.405v-4.793l-2.354-2.354
			c-0.195-0.195-0.195-0.512,0-0.707s0.512-0.195,0.707,0l2.5,2.5c0.094,0.094,0.146,0.221,0.146,0.354v4.307l3.842-1.281
			c0.264-0.087,0.545,0.056,0.632,0.316c0.087,0.262-0.054,0.545-0.316,0.633l-4.5,1.5C36.148,50.991,36.095,51,36.042,51z"/>
	</g>
	<g>
		<path class="st0" d="M30.042,49c-0.033,0-0.065-0.003-0.098-0.01l-7.5-1.5c-0.271-0.054-0.446-0.317-0.392-0.588
			c0.054-0.271,0.314-0.448,0.588-0.393l7.332,1.466l5.847-2.923c0.246-0.124,0.547-0.022,0.671,0.224
			c0.124,0.247,0.023,0.547-0.224,0.671l-6,3C30.195,48.982,30.119,49,30.042,49z"/>
	</g>
	<g>
		<path class="st0" d="M52.156,19.5h-5.098c-1.074,0-2.072-0.579-2.605-1.512l-0.846-1.48c-0.355-0.622-1.02-1.008-1.736-1.008
			H16.155c-0.942,0.956-2.223,1.5-3.548,1.5c-2.757,0-5-2.243-5-5s2.243-5,5-5c1.326,0,2.606,0.544,3.548,1.5h25.715
			c0.716,0,1.381-0.386,1.736-1.008l0.846-1.48C44.986,5.079,45.984,4.5,47.058,4.5h5.098c1.074,0,2.072,0.579,2.604,1.512
			l1.566,2.74c0.088,0.154,0.088,0.345-0.001,0.499C56.235,9.405,56.071,9.5,55.893,9.5h-6.477l-1.25,2.5l1.25,2.5h6.477
			c0.178,0,0.343,0.095,0.433,0.249c0.089,0.154,0.09,0.345,0.001,0.499l-1.566,2.74C54.229,18.921,53.23,19.5,52.156,19.5z
			 M15.939,14.5h25.932c1.074,0,2.072,0.579,2.604,1.512l0.846,1.48c0.355,0.622,1.021,1.008,1.737,1.008h5.098
			c0.716,0,1.381-0.386,1.736-1.008l0,0l1.138-1.992h-5.924c-0.189,0-0.362-0.107-0.447-0.276l-1.5-3
			c-0.07-0.141-0.07-0.307,0-0.447l1.5-3C48.745,8.607,48.917,8.5,49.107,8.5h5.924l-1.138-1.992
			C53.538,5.886,52.873,5.5,52.156,5.5h-5.098c-0.716,0-1.381,0.386-1.737,1.008l-0.846,1.48C43.943,8.921,42.945,9.5,41.871,9.5
			H15.939c-0.142,0-0.277-0.061-0.372-0.165C14.792,8.474,13.741,8,12.607,8c-2.206,0-4,1.794-4,4s1.794,4,4,4
			c1.133,0,2.185-0.474,2.96-1.335C15.662,14.561,15.797,14.5,15.939,14.5z M12.607,14.5c-1.378,0-2.5-1.121-2.5-2.5
			s1.122-2.5,2.5-2.5s2.5,1.121,2.5,2.5S13.985,14.5,12.607,14.5z M12.607,10.5c-0.827,0-1.5,0.673-1.5,1.5s0.673,1.5,1.5,1.5
			s1.5-0.673,1.5-1.5S13.434,10.5,12.607,10.5z"/>
	</g>
	<g>
		<path class="st0" d="M39.607,12.5h-20c-0.276,0-0.5-0.224-0.5-0.5s0.224-0.5,0.5-0.5h20c0.276,0,0.5,0.224,0.5,0.5
			S39.883,12.5,39.607,12.5z"/>
	</g>
	<g>
		<path class="st0" d="M61.5,26.875c-0.276,0-0.5-0.224-0.5-0.5v-4c0-0.276,0.224-0.5,0.5-0.5s0.5,0.224,0.5,0.5v4
			C62,26.651,61.776,26.875,61.5,26.875z"/>
	</g>
	<g>
		<path class="st0" d="M63.5,24.875h-4c-0.276,0-0.5-0.224-0.5-0.5s0.224-0.5,0.5-0.5h4c0.276,0,0.5,0.224,0.5,0.5
			S63.776,24.875,63.5,24.875z"/>
	</g>
	<g>
		<path class="st0" d="M53.5,32.875c-0.276,0-0.5-0.224-0.5-0.5v-4c0-0.276,0.224-0.5,0.5-0.5s0.5,0.224,0.5,0.5v4
			C54,32.651,53.776,32.875,53.5,32.875z"/>
	</g>
	<g>
		<path class="st0" d="M55.5,30.875h-4c-0.276,0-0.5-0.224-0.5-0.5s0.224-0.5,0.5-0.5h4c0.276,0,0.5,0.224,0.5,0.5
			S55.776,30.875,55.5,30.875z"/>
	</g>
</g>
</svg>
