<?xml version="1.0" encoding="utf-8"?>
<!-- Generator: Adobe Illustrator 21.1.0, SVG Export Plug-In . SVG Version: 6.00 Build 0)  -->
<svg version="1.1" id="Icon_Set" xmlns="http://www.w3.org/2000/svg" xmlns:xlink="http://www.w3.org/1999/xlink" x="0px" y="0px"
	 viewBox="0 0 64 64" style="enable-background:new 0 0 64 64;" xml:space="preserve">
<style type="text/css">
	.st0{fill:#263238;}
	.st1{fill:#FF5252;}
	.st2{fill:#FFD740;}
	.st3{fill:#40C4FF;}
	.st4{fill:#FFFFFF;}
	.st5{fill:#4DB6AC;}
	.st6{fill:#4FC3F7;}
</style>
<g id="Brake_Pad">
	<g>
		<path class="st0" d="M32,43.5c-6.341,0-11.5-5.159-11.5-11.5S25.659,20.5,32,20.5S43.5,25.659,43.5,32S38.342,43.5,32,43.5z
			 M32,21.5c-5.79,0-10.5,4.71-10.5,10.5s4.71,10.5,10.5,10.5S42.5,37.79,42.5,32S37.79,21.5,32,21.5z"/>
	</g>
	<g>
		<path class="st0" d="M32,36.5c-2.481,0-4.5-2.019-4.5-4.5s2.019-4.5,4.5-4.5c2.481,0,4.5,2.019,4.5,4.5S34.481,36.5,32,36.5z
			 M32,28.5c-1.93,0-3.5,1.57-3.5,3.5s1.57,3.5,3.5,3.5c1.929,0,3.5-1.57,3.5-3.5S33.93,28.5,32,28.5z"/>
	</g>
	<g>
		<path class="st0" d="M4,32.5c-0.276,0-0.5-0.224-0.5-0.5C3.5,16.285,16.285,3.5,32,3.5c0.276,0,0.5,0.224,0.5,0.5
			S32.276,4.5,32,4.5C16.836,4.5,4.5,16.836,4.5,32C4.5,32.276,4.276,32.5,4,32.5z"/>
	</g>
	<g>
		<path class="st0" d="M35,4.5h-1c-0.276,0-0.5-0.224-0.5-0.5s0.224-0.5,0.5-0.5h1c0.276,0,0.5,0.224,0.5,0.5S35.276,4.5,35,4.5z"/>
	</g>
	<g>
		<path class="st0" d="M32,60.5c-0.276,0-0.5-0.224-0.5-0.5s0.224-0.5,0.5-0.5c15.163,0,27.5-12.336,27.5-27.5
			c0-0.276,0.224-0.5,0.5-0.5s0.5,0.224,0.5,0.5C60.5,47.715,47.715,60.5,32,60.5z"/>
	</g>
	<g>
		<path class="st0" d="M30,60.5h-1c-0.276,0-0.5-0.224-0.5-0.5s0.224-0.5,0.5-0.5h1c0.276,0,0.5,0.224,0.5,0.5S30.276,60.5,30,60.5z
			"/>
	</g>
	<g>
		<path class="st2" d="M32,8.026V18c7.732,0,14,6.268,14,14h9.974c0.562,0,1.028-0.465,1.005-1.027
			C56.455,17.983,46.018,7.545,33.027,7.021C32.465,6.998,32,7.463,32,8.026z"/>
		<path class="st0" d="M55.975,32.5H46c-0.276,0-0.5-0.224-0.5-0.5c0-7.444-6.056-13.5-13.5-13.5c-0.276,0-0.5-0.224-0.5-0.5V8.025
			c0-0.409,0.169-0.807,0.465-1.091c0.295-0.283,0.699-0.437,1.081-0.413c13.169,0.532,23.9,11.264,24.433,24.433
			c0.016,0.403-0.131,0.787-0.413,1.081C56.782,32.331,56.384,32.5,55.975,32.5z M46.491,31.5h9.483c0.139,0,0.273-0.058,0.37-0.158
			c0.093-0.096,0.141-0.22,0.135-0.348C55.969,18.342,45.659,8.031,33.007,7.52c-0.118-0.003-0.252,0.042-0.348,0.135
			C32.558,7.752,32.5,7.887,32.5,8.025v9.483C40.099,17.768,46.232,23.901,46.491,31.5z"/>
	</g>
	<g>
		<path class="st0" d="M32,53.5c-11.855,0-21.5-9.645-21.5-21.5c0-11.149,8.363-20.348,19.453-21.396
			c0.273-0.033,0.519,0.176,0.544,0.451c0.026,0.275-0.176,0.519-0.451,0.544C19.474,12.599,11.5,21.369,11.5,32
			c0,11.304,9.196,20.5,20.5,20.5c10.63,0,19.402-7.974,20.401-18.547c0.026-0.276,0.291-0.478,0.545-0.451
			c0.275,0.026,0.477,0.27,0.451,0.544C52.349,45.137,43.15,53.5,32,53.5z"/>
	</g>
	<g>
		<path class="st0" d="M26.697,28.197c-0.401,0-0.778-0.156-1.061-0.439c-0.584-0.585-0.584-1.536,0-2.121
			c0.565-0.566,1.555-0.567,2.121,0c0.585,0.585,0.585,1.536,0,2.121C27.475,28.041,27.098,28.197,26.697,28.197z M26.697,26.197
			c-0.134,0-0.259,0.052-0.353,0.146c-0.195,0.195-0.195,0.512,0,0.707c0.189,0.189,0.518,0.189,0.707,0
			c0.195-0.195,0.195-0.512,0-0.707C26.956,26.249,26.831,26.197,26.697,26.197z"/>
	</g>
	<g>
		<path class="st0" d="M37.304,38.802c-0.384,0-0.769-0.146-1.061-0.438c-0.283-0.283-0.439-0.66-0.439-1.061
			c0-0.4,0.156-0.777,0.439-1.061c0.584-0.585,1.537-0.585,2.121,0c0.283,0.283,0.439,0.66,0.439,1.061
			c0,0.401-0.156,0.778-0.439,1.061C38.072,38.656,37.687,38.802,37.304,38.802z M37.304,36.804c-0.128,0-0.256,0.048-0.354,0.146
			c-0.095,0.095-0.146,0.22-0.146,0.354c0,0.134,0.052,0.259,0.146,0.353c0.195,0.195,0.512,0.195,0.707,0
			c0.095-0.095,0.146-0.22,0.146-0.354c0-0.133-0.052-0.259-0.146-0.354C37.56,36.852,37.432,36.804,37.304,36.804z"/>
	</g>
	<g>
		<path class="st0" d="M37.304,28.196c-0.384,0-0.769-0.146-1.061-0.438c-0.585-0.585-0.585-1.536,0-2.121
			c0.584-0.585,1.537-0.585,2.121,0c0.585,0.585,0.585,1.536,0,2.121C38.072,28.05,37.687,28.196,37.304,28.196z M37.304,26.197
			c-0.128,0-0.256,0.048-0.354,0.146c-0.195,0.195-0.195,0.512,0,0.707c0.195,0.195,0.512,0.195,0.707,0
			c0.195-0.195,0.195-0.512,0-0.707C37.56,26.246,37.432,26.197,37.304,26.197z"/>
	</g>
	<g>
		<path class="st0" d="M26.697,38.803c-0.401,0-0.778-0.156-1.061-0.439c-0.283-0.283-0.439-0.66-0.439-1.061
			c0-0.4,0.156-0.777,0.439-1.061c0.565-0.566,1.555-0.567,2.121,0c0.283,0.283,0.439,0.66,0.439,1.061
			c0,0.401-0.156,0.778-0.439,1.061C27.474,38.647,27.098,38.803,26.697,38.803z M26.697,36.803c-0.134,0-0.259,0.052-0.353,0.146
			c-0.095,0.095-0.147,0.22-0.147,0.354c0,0.134,0.052,0.259,0.146,0.353c0.189,0.19,0.518,0.19,0.707,0c0,0,0,0,0,0
			c0.095-0.094,0.146-0.219,0.146-0.353c0-0.133-0.052-0.259-0.146-0.354C26.956,36.855,26.831,36.803,26.697,36.803z"/>
	</g>
	<g>
		<path class="st0" d="M49.282,27.5h-4.218c-0.207,0-0.393-0.128-0.467-0.321c-1.369-3.573-4.203-6.407-7.776-7.776
			c-0.193-0.074-0.321-0.26-0.321-0.467v-4.217c0-0.157,0.074-0.305,0.199-0.399c0.127-0.094,0.289-0.125,0.439-0.081
			c6.041,1.745,10.878,6.582,12.624,12.623c0.044,0.151,0.014,0.313-0.081,0.439C49.588,27.426,49.439,27.5,49.282,27.5z
			 M45.404,26.5h3.199c-1.729-5.204-5.9-9.375-11.104-11.103v3.199C41.08,20.067,43.934,22.92,45.404,26.5z"/>
	</g>
	<g>
		<path class="st0" d="M7,52.5c-0.276,0-0.5-0.224-0.5-0.5v-4c0-0.276,0.224-0.5,0.5-0.5s0.5,0.224,0.5,0.5v4
			C7.5,52.276,7.276,52.5,7,52.5z"/>
	</g>
	<g>
		<path class="st0" d="M9,50.5H5c-0.276,0-0.5-0.224-0.5-0.5s0.224-0.5,0.5-0.5h4c0.276,0,0.5,0.224,0.5,0.5S9.276,50.5,9,50.5z"/>
	</g>
	<g>
		<path class="st0" d="M13.5,59.5c-0.276,0-0.5-0.224-0.5-0.5v-4c0-0.276,0.224-0.5,0.5-0.5S14,54.724,14,55v4
			C14,59.276,13.776,59.5,13.5,59.5z"/>
	</g>
	<g>
		<path class="st0" d="M15.5,57.5h-4c-0.276,0-0.5-0.224-0.5-0.5s0.224-0.5,0.5-0.5h4c0.276,0,0.5,0.224,0.5,0.5
			S15.776,57.5,15.5,57.5z"/>
	</g>
</g>
</svg>
