<?xml version="1.0" encoding="utf-8"?>
<!-- Generator: Adobe Illustrator 21.1.0, SVG Export Plug-In . SVG Version: 6.00 Build 0)  -->
<svg version="1.1" id="Icon_Set" xmlns="http://www.w3.org/2000/svg" xmlns:xlink="http://www.w3.org/1999/xlink" x="0px" y="0px"
	 viewBox="0 0 64 64" style="enable-background:new 0 0 64 64;" xml:space="preserve">
<style type="text/css">
	.st0{fill:#263238;}
	.st1{fill:#FF5252;}
	.st2{fill:#FFD740;}
	.st3{fill:#40C4FF;}
	.st4{fill:#FFFFFF;}
	.st5{fill:#4DB6AC;}
	.st6{fill:#4FC3F7;}
</style>
<g id="Car_Door">
	<g>
		<path class="st3" d="M56,28.836H14h-1.172c-0.916,0-1.35-1.13-0.669-1.743l18.279-16.451C30.897,10.229,31.493,10,32.111,10H56
			V28.836z"/>
	</g>
	<g>
		<path class="st0" d="M56.5,57.5h-49c-1.654,0-3-1.346-3-3V31.727c0-1.557,0.664-3.047,1.821-4.088L28.239,7.912
			C29.251,7.001,30.558,6.5,31.918,6.5H56.5c1.654,0,3,1.346,3,3v45C59.5,56.154,58.154,57.5,56.5,57.5z M31.918,7.5
			c-1.113,0-2.183,0.41-3.01,1.155l0,0L6.99,28.382c-0.947,0.852-1.49,2.071-1.49,3.345V54.5c0,1.103,0.897,2,2,2h49
			c1.103,0,2-0.897,2-2v-45c0-1.103-0.897-2-2-2H31.918z M28.574,8.284h0.01H28.574z"/>
	</g>
	<g>
		<path class="st0" d="M53,38H43c-0.827,0-1.5-0.673-1.5-1.5v-1c0-0.827,0.673-1.5,1.5-1.5h10c0.827,0,1.5,0.673,1.5,1.5v1
			C54.5,37.327,53.827,38,53,38z M43,35c-0.276,0-0.5,0.224-0.5,0.5v1c0,0.276,0.224,0.5,0.5,0.5h10c0.276,0,0.5-0.224,0.5-0.5v-1
			c0-0.276-0.224-0.5-0.5-0.5H43z"/>
	</g>
	<g>
		<path class="st0" d="M57,29.336H25c-0.276,0-0.5-0.224-0.5-0.5s0.224-0.5,0.5-0.5h32c0.276,0,0.5,0.224,0.5,0.5
			S57.276,29.336,57,29.336z"/>
	</g>
	<g>
		<path class="st0" d="M14,29.336h-1.172c-0.626,0-1.176-0.378-1.4-0.962s-0.069-1.233,0.397-1.652L30.104,10.27
			c0.552-0.497,1.265-0.77,2.007-0.77H57c0.276,0,0.5,0.224,0.5,0.5s-0.224,0.5-0.5,0.5H32.11c-0.495,0-0.97,0.182-1.338,0.514
			L12.494,27.464c-0.237,0.213-0.161,0.476-0.132,0.551s0.148,0.321,0.467,0.321H14c0.276,0,0.5,0.224,0.5,0.5
			S14.276,29.336,14,29.336z"/>
	</g>
	<g>
		<path class="st0" d="M53,27.336c-0.276,0-0.5-0.224-0.5-0.5V12c0-0.276,0.224-0.5,0.5-0.5s0.5,0.224,0.5,0.5v14.836
			C53.5,27.112,53.276,27.336,53,27.336z"/>
	</g>
	<g>
		<path class="st0" d="M51,38c-0.276,0-0.5-0.224-0.5-0.5v-3c0-0.276,0.224-0.5,0.5-0.5s0.5,0.224,0.5,0.5v3
			C51.5,37.776,51.276,38,51,38z"/>
	</g>
	<g>
		<path class="st0" d="M57,50H7c-0.276,0-0.5-0.224-0.5-0.5S6.724,49,7,49h50c0.276,0,0.5,0.224,0.5,0.5S57.276,50,57,50z"/>
	</g>
	<g>
		<path class="st4" d="M23,32.836h-3c-2.209,0-4-1.791-4-4v0c0-2.209,1.791-4,4-4h3V32.836z"/>
		<path class="st0" d="M23,33.336h-3c-2.481,0-4.5-2.019-4.5-4.5s2.019-4.5,4.5-4.5h3c0.276,0,0.5,0.224,0.5,0.5v8
			C23.5,33.112,23.276,33.336,23,33.336z M20,25.336c-1.93,0-3.5,1.57-3.5,3.5s1.57,3.5,3.5,3.5h2.5v-7H20z"/>
	</g>
	<g>
		<path class="st0" d="M12.5,15.5c-0.215,0-0.406-0.138-0.474-0.342l-0.484-1.451c-0.196-0.586-0.663-1.053-1.249-1.249
			l-1.451-0.484C8.638,11.906,8.5,11.715,8.5,11.5s0.138-0.406,0.342-0.474l1.451-0.484c0.586-0.196,1.053-0.663,1.249-1.249
			l0.484-1.451c0.136-0.408,0.812-0.408,0.948,0l0.484,1.451c0.196,0.586,0.663,1.053,1.249,1.249l1.451,0.484
			c0.204,0.068,0.342,0.259,0.342,0.474s-0.138,0.406-0.342,0.474l-1.451,0.484c-0.586,0.196-1.053,0.663-1.249,1.249l-0.484,1.451
			C12.906,15.362,12.715,15.5,12.5,15.5z M10.581,11.5l0.029,0.01c0.883,0.294,1.587,0.998,1.881,1.881l0.009,0.029l0.01-0.029
			c0.294-0.883,0.998-1.587,1.881-1.881l0.029-0.009l-0.029-0.01c-0.883-0.294-1.587-0.998-1.881-1.881L12.5,9.581l-0.01,0.029
			c-0.294,0.883-0.998,1.587-1.881,1.881L10.581,11.5z"/>
	</g>
	<g>
		<path class="st0" d="M23,61h-1c-0.276,0-0.5-0.224-0.5-0.5S21.724,60,22,60h1c0.276,0,0.5,0.224,0.5,0.5S23.276,61,23,61z"/>
	</g>
	<g>
		<path class="st0" d="M42,61H25c-0.276,0-0.5-0.224-0.5-0.5S24.724,60,25,60h17c0.276,0,0.5,0.224,0.5,0.5S42.276,61,42,61z"/>
	</g>
	<g>
		<path class="st0" d="M57,4h-1c-0.276,0-0.5-0.224-0.5-0.5S55.724,3,56,3h1c0.276,0,0.5,0.224,0.5,0.5S57.276,4,57,4z"/>
	</g>
	<g>
		<path class="st0" d="M54,4H37c-0.276,0-0.5-0.224-0.5-0.5S36.724,3,37,3h17c0.276,0,0.5,0.224,0.5,0.5S54.276,4,54,4z"/>
	</g>
</g>
</svg>
