<?xml version="1.0" encoding="utf-8"?>
<!-- Generator: Adobe Illustrator 21.1.0, SVG Export Plug-In . SVG Version: 6.00 Build 0)  -->
<svg version="1.1" id="Icon_Set" xmlns="http://www.w3.org/2000/svg" xmlns:xlink="http://www.w3.org/1999/xlink" x="0px" y="0px"
	 viewBox="0 0 64 64" style="enable-background:new 0 0 64 64;" xml:space="preserve">
<style type="text/css">
	.st0{fill:#263238;}
	.st1{fill:#FF5252;}
	.st2{fill:#FFD740;}
	.st3{fill:#40C4FF;}
	.st4{fill:#FFFFFF;}
	.st5{fill:#4DB6AC;}
	.st6{fill:#4FC3F7;}
</style>
<g id="Car_Radio">
	<g>
		<path class="st0" d="M57,56.5H7c-3.032,0-5.5-2.467-5.5-5.5V13c0-3.033,2.468-5.5,5.5-5.5h50c3.032,0,5.5,2.467,5.5,5.5v38
			C62.5,54.033,60.032,56.5,57,56.5z M7,8.5c-2.481,0-4.5,2.019-4.5,4.5v38c0,2.481,2.019,4.5,4.5,4.5h50c2.481,0,4.5-2.019,4.5-4.5
			V13c0-2.481-2.019-4.5-4.5-4.5H7z"/>
	</g>
	<g>
		<path class="st0" d="M52,14.5H12c-0.827,0-1.5-0.673-1.5-1.5v-1c0-0.827,0.673-1.5,1.5-1.5h40c0.827,0,1.5,0.673,1.5,1.5v1
			C53.5,13.827,52.827,14.5,52,14.5z M12,11.5c-0.275,0-0.5,0.224-0.5,0.5v1c0,0.276,0.225,0.5,0.5,0.5h40
			c0.275,0,0.5-0.224,0.5-0.5v-1c0-0.276-0.225-0.5-0.5-0.5H12z"/>
	</g>
	<g>
		<path class="st3" d="M53,36H11V18c0-0.552,0.448-1,1-1h40c0.552,0,1,0.448,1,1V36z"/>
		<path class="st0" d="M53,36.5H11c-0.276,0-0.5-0.224-0.5-0.5V18c0-0.827,0.673-1.5,1.5-1.5h40c0.827,0,1.5,0.673,1.5,1.5v18
			C53.5,36.276,53.276,36.5,53,36.5z M11.5,35.5h41V18c0-0.276-0.225-0.5-0.5-0.5H12c-0.275,0-0.5,0.224-0.5,0.5V35.5z"/>
	</g>
	<g>
		<path class="st0" d="M20.382,49h-6.764c-0.572,0-1.087-0.318-1.342-0.83l-1-2c-0.234-0.469-0.209-1.015,0.066-1.46
			S12.095,44,12.618,44h6.764c0.572,0,1.087,0.318,1.342,0.83l1,2c0.234,0.469,0.209,1.015-0.066,1.46S20.905,49,20.382,49z
			 M12.618,45c-0.251,0-0.381,0.166-0.425,0.237s-0.135,0.262-0.022,0.487l1,2C13.256,47.895,13.427,48,13.618,48h6.764
			c0.251,0,0.381-0.166,0.425-0.237s0.135-0.262,0.022-0.487l-1-2C19.744,45.105,19.573,45,19.382,45H12.618z"/>
	</g>
	<g>
		<path class="st0" d="M50.382,49h-6.764c-0.523,0-1-0.266-1.275-0.711s-0.301-0.991-0.066-1.459l1-2
			C43.531,44.318,44.046,44,44.618,44h6.764c0.523,0,1,0.266,1.275,0.711s0.301,0.991,0.066,1.459l-1,2
			C51.469,48.682,50.954,49,50.382,49z M44.618,45c-0.191,0-0.362,0.105-0.447,0.276l-1,2c-0.112,0.225-0.021,0.416,0.022,0.487
			S43.367,48,43.618,48h6.764c0.191,0,0.362-0.105,0.447-0.276l1-2c0.112-0.225,0.021-0.416-0.022-0.487S51.633,45,51.382,45H44.618
			z"/>
	</g>
	<g>
		<path class="st0" d="M6,36H2c-0.276,0-0.5-0.224-0.5-0.5v-18C1.5,17.224,1.724,17,2,17h4c0.827,0,1.5,0.673,1.5,1.5v16
			C7.5,35.327,6.827,36,6,36z M2.5,35H6c0.275,0,0.5-0.224,0.5-0.5v-16C6.5,18.224,6.275,18,6,18H2.5V35z"/>
	</g>
	<g>
		<path class="st0" d="M62,36h-4c-0.827,0-1.5-0.673-1.5-1.5v-16c0-0.827,0.673-1.5,1.5-1.5h4c0.276,0,0.5,0.224,0.5,0.5v18
			C62.5,35.776,62.276,36,62,36z M58,18c-0.275,0-0.5,0.224-0.5,0.5v16c0,0.276,0.225,0.5,0.5,0.5h3.5V18H58z"/>
	</g>
	<g>
		<path class="st0" d="M7,24H2c-0.276,0-0.5-0.224-0.5-0.5S1.724,23,2,23h5c0.276,0,0.5,0.224,0.5,0.5S7.276,24,7,24z"/>
	</g>
	<g>
		<path class="st0" d="M7,30H2c-0.276,0-0.5-0.224-0.5-0.5S1.724,29,2,29h5c0.276,0,0.5,0.224,0.5,0.5S7.276,30,7,30z"/>
	</g>
	<g>
		<path class="st0" d="M62,24h-5c-0.276,0-0.5-0.224-0.5-0.5S56.724,23,57,23h5c0.276,0,0.5,0.224,0.5,0.5S62.276,24,62,24z"/>
	</g>
	<g>
		<path class="st0" d="M62,30h-5c-0.276,0-0.5-0.224-0.5-0.5S56.724,29,57,29h5c0.276,0,0.5,0.224,0.5,0.5S62.276,30,62,30z"/>
	</g>
	<g>
		<path class="st0" d="M42,41.5c-0.276,0-0.5-0.224-0.5-0.5v-5c0-0.276,0.224-0.5,0.5-0.5s0.5,0.224,0.5,0.5v5
			C42.5,41.276,42.276,41.5,42,41.5z"/>
	</g>
	<g>
		<path class="st0" d="M22,41.5c-0.276,0-0.5-0.224-0.5-0.5v-5c0-0.276,0.224-0.5,0.5-0.5s0.5,0.224,0.5,0.5v5
			C22.5,41.276,22.276,41.5,22,41.5z"/>
	</g>
	<g>
		<circle class="st2" cx="32" cy="46" r="7.5"/>
		<path class="st0" d="M32,54c-4.411,0-8-3.589-8-8s3.589-8,8-8s8,3.589,8,8S36.411,54,32,54z M32,39c-3.859,0-7,3.14-7,7
			s3.141,7,7,7s7-3.14,7-7S35.859,39,32,39z"/>
	</g>
	<g>
		<path class="st0" d="M50.5,41.5H40.066c-0.276,0-0.5-0.224-0.5-0.5s0.224-0.5,0.5-0.5H50.5c1.103,0,2-0.897,2-2v-2h-41v2
			c0,1.103,0.897,2,2,2h10.434c0.276,0,0.5,0.224,0.5,0.5s-0.224,0.5-0.5,0.5H13.5c-1.654,0-3-1.346-3-3V36
			c0-0.276,0.224-0.5,0.5-0.5h42c0.276,0,0.5,0.224,0.5,0.5v2.5C53.5,40.154,52.154,41.5,50.5,41.5z"/>
	</g>
	<g>
		<path class="st0" d="M53,56.5H11c-0.173,0-0.334-0.09-0.426-0.237c-0.091-0.147-0.099-0.332-0.021-0.486l1.224-2.447
			c0.255-0.511,0.77-0.829,1.342-0.829h12.476c0.276,0,0.5,0.224,0.5,0.5s-0.224,0.5-0.5,0.5H13.118
			c-0.191,0-0.362,0.105-0.447,0.276L11.809,55.5h40.383l-0.862-1.724c-0.085-0.171-0.256-0.276-0.447-0.276H38.406
			c-0.276,0-0.5-0.224-0.5-0.5s0.224-0.5,0.5-0.5h12.476c0.572,0,1.087,0.318,1.342,0.83l1.224,2.447
			c0.077,0.155,0.069,0.339-0.021,0.486C53.334,56.41,53.173,56.5,53,56.5z"/>
	</g>
	<g>
		<path class="st0" d="M32,51.5c-3.032,0-5.5-2.467-5.5-5.5s2.468-5.5,5.5-5.5s5.5,2.467,5.5,5.5S35.032,51.5,32,51.5z M32,41.5
			c-2.481,0-4.5,2.019-4.5,4.5s2.019,4.5,4.5,4.5s4.5-2.019,4.5-4.5S34.481,41.5,32,41.5z"/>
	</g>
	<g>
		<rect x="19.5" y="29" class="st4" width="4" height="4"/>
		<path class="st0" d="M23.5,33.5h-4c-0.276,0-0.5-0.224-0.5-0.5v-4c0-0.276,0.224-0.5,0.5-0.5h4c0.276,0,0.5,0.224,0.5,0.5v4
			C24,33.276,23.776,33.5,23.5,33.5z M20,32.5h3v-3h-3V32.5z"/>
	</g>
	<g>
		<rect x="40.5" y="28" class="st4" width="4" height="5"/>
		<path class="st0" d="M44.5,33.5h-4c-0.276,0-0.5-0.224-0.5-0.5v-5c0-0.276,0.224-0.5,0.5-0.5h4c0.276,0,0.5,0.224,0.5,0.5v5
			C45,33.276,44.776,33.5,44.5,33.5z M41,32.5h3v-4h-3V32.5z"/>
	</g>
	<g>
		<rect x="33.5" y="25" class="st4" width="4" height="8"/>
		<path class="st0" d="M37.5,33.5h-4c-0.276,0-0.5-0.224-0.5-0.5v-8c0-0.276,0.224-0.5,0.5-0.5h4c0.276,0,0.5,0.224,0.5,0.5v8
			C38,33.276,37.776,33.5,37.5,33.5z M34,32.5h3v-7h-3V32.5z"/>
	</g>
	<g>
		<rect x="26.5" y="23" class="st4" width="4" height="10"/>
		<path class="st0" d="M30.5,33.5h-4c-0.276,0-0.5-0.224-0.5-0.5V23c0-0.276,0.224-0.5,0.5-0.5h4c0.276,0,0.5,0.224,0.5,0.5v10
			C31,33.276,30.776,33.5,30.5,33.5z M27,32.5h3v-9h-3V32.5z"/>
	</g>
	<g>
		<path class="st0" d="M49,21.5h-5c-0.276,0-0.5-0.224-0.5-0.5s0.224-0.5,0.5-0.5h5c0.276,0,0.5,0.224,0.5,0.5S49.276,21.5,49,21.5z
			"/>
	</g>
	<g>
		<path class="st0" d="M49,24.5h-5c-0.276,0-0.5-0.224-0.5-0.5s0.224-0.5,0.5-0.5h5c0.276,0,0.5,0.224,0.5,0.5S49.276,24.5,49,24.5z
			"/>
	</g>
	<g>
		<path class="st0" d="M53,33.5H11c-0.276,0-0.5-0.224-0.5-0.5s0.224-0.5,0.5-0.5h42c0.276,0,0.5,0.224,0.5,0.5S53.276,33.5,53,33.5
			z"/>
	</g>
	<g>
		<path class="st0" d="M25,61.5h-1c-0.276,0-0.5-0.224-0.5-0.5s0.224-0.5,0.5-0.5h1c0.276,0,0.5,0.224,0.5,0.5S25.276,61.5,25,61.5z
			"/>
	</g>
	<g>
		<path class="st0" d="M22,61.5H5c-0.276,0-0.5-0.224-0.5-0.5s0.224-0.5,0.5-0.5h17c0.276,0,0.5,0.224,0.5,0.5S22.276,61.5,22,61.5z
			"/>
	</g>
	<g>
		<path class="st0" d="M40,3.5h-1c-0.276,0-0.5-0.224-0.5-0.5s0.224-0.5,0.5-0.5h1c0.276,0,0.5,0.224,0.5,0.5S40.276,3.5,40,3.5z"/>
	</g>
	<g>
		<path class="st0" d="M59,3.5H42c-0.276,0-0.5-0.224-0.5-0.5s0.224-0.5,0.5-0.5h17c0.276,0,0.5,0.224,0.5,0.5S59.276,3.5,59,3.5z"
			/>
	</g>
</g>
</svg>
