<?xml version="1.0" encoding="utf-8"?>
<!-- Generator: Adobe Illustrator 21.1.0, SVG Export Plug-In . SVG Version: 6.00 Build 0)  -->
<svg version="1.1" id="Icon_Set" xmlns="http://www.w3.org/2000/svg" xmlns:xlink="http://www.w3.org/1999/xlink" x="0px" y="0px"
	 viewBox="0 0 64 64" style="enable-background:new 0 0 64 64;" xml:space="preserve">
<style type="text/css">
	.st0{fill:#263238;}
	.st1{fill:#FF5252;}
	.st2{fill:#FFD740;}
	.st3{fill:#40C4FF;}
	.st4{fill:#FFFFFF;}
	.st5{fill:#4DB6AC;}
	.st6{fill:#4FC3F7;}
</style>
<g id="Car_Seats">
	<g>
		<path class="st0" d="M54.986,57.875H9.014c-2.456,0-4.634-1.651-5.296-4.016l-0.42-1.5c-0.469-1.671-0.136-3.424,0.913-4.807
			s2.646-2.177,4.383-2.177h46.812c1.736,0,3.334,0.793,4.383,2.177s1.382,3.136,0.913,4.807l-0.42,1.5
			C59.62,56.224,57.442,57.875,54.986,57.875z M8.594,46.375c-1.421,0-2.728,0.649-3.586,1.781s-1.131,2.565-0.747,3.934l0.42,1.5
			c0.542,1.935,2.323,3.286,4.333,3.286h45.973c2.01,0,3.791-1.351,4.333-3.286l0.42-1.5c0.384-1.368,0.111-2.802-0.747-3.934
			s-2.165-1.781-3.586-1.781H8.594z"/>
	</g>
	<g>
		<path class="st1" d="M25.414,41.875H8.586c-2.98,0-5.299-2.59-4.969-5.552l1.889-17c0.281-2.532,2.422-4.448,4.969-4.448h13.05
			c2.548,0,4.688,1.916,4.969,4.448l1.889,17C30.712,39.285,28.394,41.875,25.414,41.875z"/>
		<path class="st0" d="M25.414,42.375H8.586c-1.562,0-3.056-0.667-4.098-1.832c-1.042-1.165-1.541-2.723-1.368-4.276l1.889-17
			c0.31-2.789,2.66-4.893,5.467-4.893h13.049c2.807,0,5.157,2.104,5.467,4.893l1.889,17c0.173,1.553-0.326,3.111-1.368,4.276
			C28.47,41.708,26.977,42.375,25.414,42.375z M10.476,15.375c-2.297,0-4.22,1.721-4.473,4.003l-1.889,17
			c-0.142,1.271,0.267,2.546,1.119,3.499c0.853,0.952,2.074,1.499,3.353,1.499h16.828c1.278,0,2.5-0.546,3.353-1.499
			c0.853-0.953,1.261-2.228,1.119-3.499l-1.889-17c-0.253-2.282-2.176-4.003-4.473-4.003H10.476z"/>
	</g>
	<g>
		<path class="st0" d="M25.414,39.375c-0.276,0-0.5-0.224-0.5-0.5s0.224-0.5,0.5-0.5c0.583,0,0.95-0.313,1.118-0.5
			c0.166-0.187,0.437-0.586,0.372-1.166l-1.889-17c-0.085-0.761-0.726-1.334-1.491-1.334c-0.276,0-0.5-0.224-0.5-0.5
			s0.224-0.5,0.5-0.5c1.275,0,2.344,0.956,2.485,2.224l1.889,17c0.107,0.966-0.344,1.632-0.621,1.943
			C26.998,38.854,26.386,39.375,25.414,39.375z"/>
	</g>
	<g>
		<path class="st1" d="M55.414,41.875H38.586c-2.98,0-5.299-2.59-4.969-5.552l1.889-17c0.281-2.532,2.422-4.448,4.969-4.448h13.05
			c2.548,0,4.688,1.916,4.969,4.448l1.889,17C60.712,39.285,58.394,41.875,55.414,41.875z"/>
		<path class="st0" d="M55.414,42.375H38.586c-1.562,0-3.056-0.667-4.098-1.832c-1.042-1.165-1.541-2.723-1.368-4.276l1.889-17
			c0.31-2.789,2.66-4.893,5.467-4.893h13.049c2.807,0,5.157,2.104,5.467,4.893l1.889,17c0.173,1.553-0.326,3.111-1.368,4.276
			C58.47,41.708,56.977,42.375,55.414,42.375z M40.476,15.375c-2.297,0-4.22,1.721-4.473,4.003l-1.889,17
			c-0.142,1.271,0.267,2.546,1.119,3.499c0.853,0.952,2.074,1.499,3.353,1.499h16.828c1.278,0,2.5-0.546,3.353-1.499
			c0.853-0.953,1.261-2.228,1.119-3.499l-1.889-17c-0.253-2.282-2.176-4.003-4.473-4.003H40.476z"/>
	</g>
	<g>
		<path class="st0" d="M55.414,39.375c-0.276,0-0.5-0.224-0.5-0.5s0.224-0.5,0.5-0.5c0.583,0,0.95-0.313,1.118-0.5
			c0.166-0.187,0.437-0.586,0.372-1.166l-1.889-17c-0.085-0.761-0.726-1.334-1.491-1.334c-0.276,0-0.5-0.224-0.5-0.5
			s0.224-0.5,0.5-0.5c1.275,0,2.344,0.956,2.485,2.224l1.889,17c0.107,0.966-0.344,1.632-0.621,1.943
			C56.998,38.854,56.386,39.375,55.414,39.375z"/>
	</g>
	<g>
		<path class="st1" d="M21,12.875h-8c-1.381,0-2.5-1.119-2.5-2.5v-5c0-1.381,1.119-2.5,2.5-2.5h8c1.381,0,2.5,1.119,2.5,2.5v5
			C23.5,11.756,22.381,12.875,21,12.875z"/>
		<path class="st0" d="M21,13.375h-8c-1.654,0-3-1.346-3-3v-5c0-1.654,1.346-3,3-3h8c1.654,0,3,1.346,3,3v5
			C24,12.029,22.654,13.375,21,13.375z M13,3.375c-1.103,0-2,0.897-2,2v5c0,1.103,0.897,2,2,2h8c1.103,0,2-0.897,2-2v-5
			c0-1.103-0.897-2-2-2H13z"/>
	</g>
	<g>
		<path class="st0" d="M26.5,44.375c-0.276,0-0.5-0.224-0.5-0.5v-1.5H8v1.5c0,0.276-0.224,0.5-0.5,0.5S7,44.151,7,43.875v-2
			c0-0.276,0.224-0.5,0.5-0.5h19c0.276,0,0.5,0.224,0.5,0.5v2C27,44.151,26.776,44.375,26.5,44.375z"/>
	</g>
	<g>
		<path class="st4" d="M21,24.875h-8c-1.381,0-2.5,1.119-2.5,2.5v14.5h13v-14.5C23.5,25.994,22.381,24.875,21,24.875z"/>
		<path class="st0" d="M23.5,42.375h-13c-0.276,0-0.5-0.224-0.5-0.5v-14.5c0-1.654,1.346-3,3-3h8c1.654,0,3,1.346,3,3v14.5
			C24,42.151,23.776,42.375,23.5,42.375z M11,41.375h12v-14c0-1.103-0.897-2-2-2h-8c-1.103,0-2,0.897-2,2V41.375z"/>
	</g>
	<g>
		<path class="st0" d="M21.5,30.875h-9c-0.276,0-0.5-0.224-0.5-0.5s0.224-0.5,0.5-0.5h9c0.276,0,0.5,0.224,0.5,0.5
			S21.776,30.875,21.5,30.875z"/>
	</g>
	<g>
		<path class="st0" d="M21.5,36.875h-9c-0.276,0-0.5-0.224-0.5-0.5s0.224-0.5,0.5-0.5h9c0.276,0,0.5,0.224,0.5,0.5
			S21.776,36.875,21.5,36.875z"/>
	</g>
	<g>
		<path class="st1" d="M51,12.875h-8c-1.381,0-2.5-1.119-2.5-2.5v-5c0-1.381,1.119-2.5,2.5-2.5h8c1.381,0,2.5,1.119,2.5,2.5v5
			C53.5,11.756,52.381,12.875,51,12.875z"/>
		<path class="st0" d="M51,13.375h-8c-1.654,0-3-1.346-3-3v-5c0-1.654,1.346-3,3-3h8c1.654,0,3,1.346,3,3v5
			C54,12.029,52.654,13.375,51,13.375z M43,3.375c-1.103,0-2,0.897-2,2v5c0,1.103,0.897,2,2,2h8c1.103,0,2-0.897,2-2v-5
			c0-1.103-0.897-2-2-2H43z"/>
	</g>
	<g>
		<path class="st0" d="M56.5,44.375c-0.276,0-0.5-0.224-0.5-0.5v-1.5H38v1.5c0,0.276-0.224,0.5-0.5,0.5s-0.5-0.224-0.5-0.5v-2
			c0-0.276,0.224-0.5,0.5-0.5h19c0.276,0,0.5,0.224,0.5,0.5v2C57,44.151,56.776,44.375,56.5,44.375z"/>
	</g>
	<g>
		<path class="st4" d="M51,24.875h-8c-1.381,0-2.5,1.119-2.5,2.5v14.5h13v-14.5C53.5,25.994,52.381,24.875,51,24.875z"/>
		<path class="st0" d="M53.5,42.375h-13c-0.276,0-0.5-0.224-0.5-0.5v-14.5c0-1.654,1.346-3,3-3h8c1.654,0,3,1.346,3,3v14.5
			C54,42.151,53.776,42.375,53.5,42.375z M41,41.375h12v-14c0-1.103-0.897-2-2-2h-8c-1.103,0-2,0.897-2,2V41.375z"/>
	</g>
	<g>
		<path class="st0" d="M51.5,30.875h-9c-0.276,0-0.5-0.224-0.5-0.5s0.224-0.5,0.5-0.5h9c0.276,0,0.5,0.224,0.5,0.5
			S51.776,30.875,51.5,30.875z"/>
	</g>
	<g>
		<path class="st0" d="M51.5,36.875h-9c-0.276,0-0.5-0.224-0.5-0.5s0.224-0.5,0.5-0.5h9c0.276,0,0.5,0.224,0.5,0.5
			S51.776,36.875,51.5,36.875z"/>
	</g>
	<g>
		<path class="st0" d="M32,55.875c-0.276,0-0.5-0.224-0.5-0.5v-7.5c0-0.276,0.224-0.5,0.5-0.5s0.5,0.224,0.5,0.5v7.5
			C32.5,55.651,32.276,55.875,32,55.875z"/>
	</g>
	<g>
		<path class="st0" d="M22,61.625h-2c-0.276,0-0.5-0.224-0.5-0.5s0.224-0.5,0.5-0.5h2c0.276,0,0.5,0.224,0.5,0.5
			S22.276,61.625,22,61.625z"/>
	</g>
	<g>
		<path class="st0" d="M44,61.625H24c-0.276,0-0.5-0.224-0.5-0.5s0.224-0.5,0.5-0.5h20c0.276,0,0.5,0.224,0.5,0.5
			S44.276,61.625,44,61.625z"/>
	</g>
</g>
</svg>
