<?xml version="1.0" encoding="utf-8"?>
<!-- Generator: Adobe Illustrator 21.1.0, SVG Export Plug-In . SVG Version: 6.00 Build 0)  -->
<svg version="1.1" id="Icon_Set" xmlns="http://www.w3.org/2000/svg" xmlns:xlink="http://www.w3.org/1999/xlink" x="0px" y="0px"
	 viewBox="0 0 64 64" style="enable-background:new 0 0 64 64;" xml:space="preserve">
<style type="text/css">
	.st0{fill:#263238;}
	.st1{fill:#FF5252;}
	.st2{fill:#FFD740;}
	.st3{fill:#40C4FF;}
	.st4{fill:#FFFFFF;}
	.st5{fill:#4DB6AC;}
	.st6{fill:#4FC3F7;}
</style>
<g id="Car_Lifter">
	<g>
		<path class="st0" d="M4.5,37.505c-0.827,0-1.5-0.673-1.5-1.5v-2c0-0.4,0.155-0.777,0.439-1.061
			c0.283-0.283,0.66-0.439,1.061-0.439l55-0.011c0.827,0,1.5,0.673,1.5,1.5v2c0,0.4-0.155,0.777-0.439,1.061
			c-0.283,0.283-0.66,0.439-1.061,0.439l-10,0.002c-0.276,0-0.5-0.224-0.5-0.5c0-0.276,0.224-0.5,0.5-0.5l10-0.002
			c0.133,0,0.259-0.052,0.354-0.146C59.948,36.254,60,36.128,60,35.995v-2c0-0.275-0.225-0.5-0.5-0.5l-55,0.011
			c-0.133,0-0.259,0.052-0.354,0.146C4.052,33.746,4,33.872,4,34.005v2c0,0.275,0.225,0.5,0.5,0.5l10-0.002
			c0.276,0,0.5,0.224,0.5,0.5c0,0.276-0.224,0.5-0.5,0.5L4.5,37.505z"/>
	</g>
	<g>
		<path class="st1" d="M58.593,29h3l1.45-4.351c0.315-0.946-0.114-1.979-1.007-2.423L61.582,22l-0.667-3.182
			c-0.42-2.004-2.02-3.549-4.037-3.899L48.719,13.5L37.093,4.11C36.204,3.392,35.095,3,33.952,3H13.779
			c-1.607,0-3.117,0.773-4.057,2.077L5.094,11.5H1.86c-0.777,0-1.257,0.848-0.857,1.514L3.094,16.5V22h0
			c-1.287,0-2.246,1.186-1.976,2.445L2.094,29h3"/>
		<path class="st0" d="M61.593,29.5h-3c-0.276,0-0.5-0.224-0.5-0.5s0.224-0.5,0.5-0.5h2.64l1.336-4.009
			c0.235-0.705-0.09-1.486-0.755-1.817l-0.454-0.226c-0.137-0.068-0.235-0.195-0.267-0.345l-0.667-3.182
			c-0.381-1.814-1.807-3.191-3.634-3.509l-8.159-1.419c-0.084-0.015-0.163-0.05-0.229-0.104L36.779,4.5
			c-0.798-0.645-1.803-1-2.828-1H13.779c-1.443,0-2.808,0.699-3.651,1.869L5.5,11.792C5.405,11.923,5.254,12,5.094,12H1.86
			c-0.263,0-0.392,0.177-0.435,0.253c-0.043,0.077-0.129,0.278,0.006,0.504l2.091,3.485c0.047,0.078,0.071,0.167,0.071,0.257V22
			c0,0.276-0.224,0.5-0.5,0.5c-0.462,0-0.893,0.206-1.183,0.565s-0.401,0.824-0.304,1.274L2.498,28.5h2.596
			c0.276,0,0.5,0.224,0.5,0.5s-0.224,0.5-0.5,0.5h-3c-0.236,0-0.439-0.165-0.489-0.395l-0.976-4.556
			c-0.161-0.748,0.023-1.518,0.504-2.113c0.374-0.463,0.89-0.772,1.461-0.887v-4.911l-2.02-3.367
			c-0.282-0.47-0.289-1.035-0.019-1.511C0.824,11.285,1.312,11,1.86,11h2.978l4.479-6.216c1.031-1.43,2.699-2.284,4.462-2.284
			h20.173c1.253,0,2.48,0.434,3.456,1.221l11.525,9.309l8.031,1.396c2.232,0.389,3.976,2.072,4.441,4.29l0.618,2.944l0.237,0.118
			c1.109,0.552,1.65,1.854,1.258,3.029l-1.45,4.351C62,29.362,61.809,29.5,61.593,29.5z"/>
	</g>
	<g>
		<path class="st0" d="M41.593,29.5h-19.5c-0.276,0-0.5-0.224-0.5-0.5s0.224-0.5,0.5-0.5h19.5c0.276,0,0.5,0.224,0.5,0.5
			S41.87,29.5,41.593,29.5z"/>
	</g>
	<g>
		<circle class="st4" cx="50.093" cy="26.5" r="6.5"/>
		<path class="st0" d="M50.093,33.5c-3.86,0-7-3.14-7-7s3.14-7,7-7s7,3.14,7,7S53.953,33.5,50.093,33.5z M50.093,20.5
			c-3.309,0-6,2.691-6,6s2.691,6,6,6s6-2.691,6-6S53.402,20.5,50.093,20.5z"/>
	</g>
	<g>
		<path class="st0" d="M50.093,30.5c-2.206,0-4-1.794-4-4s1.794-4,4-4s4,1.794,4,4S52.299,30.5,50.093,30.5z M50.093,23.5
			c-1.654,0-3,1.346-3,3s1.346,3,3,3s3-1.346,3-3S51.748,23.5,50.093,23.5z"/>
	</g>
	<g>
		<circle class="st4" cx="13.594" cy="26.5" r="6.5"/>
		<path class="st0" d="M13.594,33.5c-3.86,0-7-3.14-7-7s3.14-7,7-7s7,3.14,7,7S17.454,33.5,13.594,33.5z M13.594,20.5
			c-3.309,0-6,2.691-6,6s2.691,6,6,6s6-2.691,6-6S16.902,20.5,13.594,20.5z"/>
	</g>
	<g>
		<path class="st0" d="M13.594,30.5c-2.206,0-4-1.794-4-4s1.794-4,4-4s4,1.794,4,4S15.799,30.5,13.594,30.5z M13.594,23.5
			c-1.654,0-3,1.346-3,3s1.346,3,3,3s3-1.346,3-3S15.248,23.5,13.594,23.5z"/>
	</g>
	<g>
		<path class="st4" d="M15.485,7.122l-1.125,3c-0.613,1.634,0.595,3.378,2.341,3.378h32.018l-9.905-8H17.826
			C16.784,5.5,15.851,6.146,15.485,7.122z"/>
		<path class="st0" d="M48.719,14H16.701c-0.983,0-1.905-0.483-2.466-1.291c-0.56-0.809-0.688-1.841-0.343-2.763l1.125-3v0
			C15.453,5.782,16.582,5,17.826,5h20.988c0.114,0,0.225,0.039,0.314,0.111l9.905,8c0.165,0.133,0.228,0.356,0.157,0.556
			C49.12,13.866,48.931,14,48.719,14z M17.826,6c-0.829,0-1.582,0.521-1.873,1.297v0l-1.125,3c-0.234,0.623-0.15,1.294,0.229,1.841
			C15.436,12.686,16.035,13,16.701,13h30.603l-8.667-7H17.826z M15.485,7.122h0.01H15.485z"/>
	</g>
	<g>
		<path class="st0" d="M47.719,18.95c-0.276,0-0.5-0.224-0.5-0.5V15.5c0-0.276,0.224-0.5,0.5-0.5s0.5,0.224,0.5,0.5v2.95
			C48.219,18.726,47.995,18.95,47.719,18.95z"/>
	</g>
	<g>
		<path class="st0" d="M27.593,27.5c-0.276,0-0.5-0.224-0.5-0.5V15.5c0-0.276,0.224-0.5,0.5-0.5s0.5,0.224,0.5,0.5V27
			C28.093,27.276,27.87,27.5,27.593,27.5z"/>
	</g>
	<g>
		<path class="st0" d="M27.593,14c-0.276,0-0.5-0.224-0.5-0.5v-8c0-0.276,0.224-0.5,0.5-0.5s0.5,0.224,0.5,0.5v8
			C28.093,13.776,27.87,14,27.593,14z"/>
	</g>
	<g>
		<path class="st0" d="M9.218,18.5h-2c-0.827,0-1.5-0.673-1.5-1.5v-2c0-0.827,0.673-1.5,1.5-1.5h2c0.827,0,1.5,0.673,1.5,1.5v2
			C10.718,17.827,10.045,18.5,9.218,18.5z M7.219,14.5c-0.276,0-0.5,0.224-0.5,0.5v2c0,0.276,0.224,0.5,0.5,0.5h2
			c0.276,0,0.5-0.224,0.5-0.5v-2c0-0.276-0.224-0.5-0.5-0.5H7.219z"/>
	</g>
	<g>
		<path class="st4" d="M61.582,22l-0.667-3.182c-0.06-0.284-0.148-0.555-0.253-0.818h-2.234c-0.743,0-1.227,0.782-0.894,1.447
			L58.81,22L61.582,22L61.582,22z"/>
		<path class="st0" d="M61.583,22.5H58.81c-0.189,0-0.362-0.107-0.447-0.276l-1.276-2.553c-0.234-0.468-0.209-1.014,0.065-1.459
			c0.275-0.445,0.752-0.711,1.276-0.711h2.234c0.205,0,0.389,0.125,0.464,0.315c0.127,0.317,0.218,0.612,0.278,0.901l0.667,3.182
			c0.031,0.147-0.006,0.301-0.101,0.417C61.875,22.432,61.733,22.5,61.583,22.5z M59.119,21.5h1.848l-0.541-2.579
			c-0.029-0.136-0.066-0.275-0.114-0.421h-1.884c-0.252,0-0.381,0.166-0.425,0.237c-0.044,0.071-0.135,0.261-0.022,0.486
			L59.119,21.5z"/>
	</g>
	<g>
		<line class="st2" x1="40" y1="36.998" x2="24" y2="37.002"/>
		<path class="st0" d="M24,37.501c-0.276,0-0.5-0.224-0.5-0.5c0-0.276,0.224-0.5,0.5-0.5l16-0.003c0.276,0,0.5,0.224,0.5,0.5
			c0,0.276-0.224,0.5-0.5,0.5L24,37.501z"/>
	</g>
	<g>
		<path class="st0" d="M63.5,61.5h-58C5.224,61.5,5,61.276,5,61s0.224-0.5,0.5-0.5h58c0.276,0,0.5,0.224,0.5,0.5
			S63.776,61.5,63.5,61.5z"/>
	</g>
	<g>
		<path class="st0" d="M3.5,61.5h-3C0.224,61.5,0,61.276,0,61s0.224-0.5,0.5-0.5h3C3.776,60.5,4,60.724,4,61S3.776,61.5,3.5,61.5z"
			/>
	</g>
	<g>
		<path class="st2" d="M43.5,61h4v-3.74c0-0.814-0.396-1.576-1.061-2.045L20.925,37.261c-0.266-0.187-0.425-0.492-0.425-0.818V33h-4
			v4.74c0,0.814,0.396,1.576,1.061,2.045l25.514,17.954c0.266,0.187,0.425,0.492,0.425,0.818V61z"/>
		<path class="st0" d="M47.5,61.5h-4c-0.276,0-0.5-0.224-0.5-0.5v-2.443c0-0.163-0.08-0.315-0.212-0.409L17.273,40.193
			C16.476,39.633,16,38.716,16,37.74V33c0-0.276,0.224-0.5,0.5-0.5h4c0.276,0,0.5,0.224,0.5,0.5v3.443
			c0,0.163,0.08,0.315,0.212,0.409l25.514,17.955C47.524,55.367,48,56.284,48,57.26V61C48,61.276,47.776,61.5,47.5,61.5z M44,60.5h3
			v-3.24c0-0.65-0.317-1.262-0.849-1.635L20.637,37.669C20.238,37.389,20,36.93,20,36.443V33.5h-3v4.24
			c0,0.65,0.317,1.262,0.849,1.635l25.515,17.955C43.762,57.611,44,58.07,44,58.557V60.5z"/>
	</g>
	<g>
		<g>
			<path class="st2" d="M26.787,48.723l-9.226,6.492c-0.665,0.468-1.061,1.231-1.061,2.044V61h4v-2.443
				c0-0.325,0.158-0.63,0.424-0.818l9.338-6.571"/>
			<path class="st0" d="M20.5,61.5h-4c-0.276,0-0.5-0.224-0.5-0.5v-3.74c0-0.975,0.476-1.893,1.274-2.454l9.226-6.492
				c0.227-0.16,0.538-0.105,0.696,0.121c0.159,0.226,0.105,0.538-0.121,0.696l-9.226,6.492C17.317,55.998,17,56.609,17,57.26v3.24h3
				v-1.943c0-0.487,0.238-0.946,0.636-1.227l9.338-6.571c0.227-0.16,0.538-0.105,0.696,0.121c0.159,0.226,0.105,0.538-0.121,0.696
				l-9.338,6.571C21.08,58.242,21,58.395,21,58.557V61C21,61.276,20.776,61.5,20.5,61.5z"/>
		</g>
		<g>
			<path class="st2" d="M37.213,46.277l9.226-6.492c0.665-0.468,1.061-1.231,1.061-2.045V33h-4v3.443
				c0,0.325-0.158,0.631-0.424,0.818l-9.338,6.571"/>
			<path class="st0" d="M37.213,46.777c-0.157,0-0.312-0.074-0.409-0.212c-0.159-0.226-0.105-0.538,0.121-0.696l9.226-6.492
				C46.683,39.002,47,38.39,47,37.74V33.5h-3v2.943c0,0.487-0.238,0.946-0.636,1.227l-9.338,6.571
				c-0.227,0.16-0.538,0.105-0.696-0.121c-0.159-0.226-0.105-0.538,0.121-0.696l9.338-6.571C42.92,36.758,43,36.605,43,36.443V33
				c0-0.276,0.224-0.5,0.5-0.5h4c0.276,0,0.5,0.224,0.5,0.5v4.74c0,0.975-0.476,1.892-1.273,2.454L37.5,46.686
				C37.413,46.748,37.312,46.777,37.213,46.777z"/>
		</g>
	</g>
	<g>
		<path class="st0" d="M9.5,56.5C9.224,56.5,9,56.276,9,56v-0.984c0-0.276,0.224-0.5,0.5-0.5s0.5,0.224,0.5,0.5V56
			C10,56.276,9.776,56.5,9.5,56.5z"/>
	</g>
	<g>
		<path class="st0" d="M9.5,53.547c-0.276,0-0.5-0.224-0.5-0.5v-8c0-0.276,0.224-0.5,0.5-0.5s0.5,0.224,0.5,0.5v8
			C10,53.323,9.776,53.547,9.5,53.547z"/>
	</g>
	<g>
		<path class="st0" d="M6.5,51.547c-0.276,0-0.5-0.224-0.5-0.5v-8c0-0.276,0.224-0.5,0.5-0.5s0.5,0.224,0.5,0.5v8
			C7,51.323,6.776,51.547,6.5,51.547z"/>
	</g>
	<g>
		<path class="st0" d="M12.5,51.547c-0.276,0-0.5-0.224-0.5-0.5v-8c0-0.276,0.224-0.5,0.5-0.5s0.5,0.224,0.5,0.5v8
			C13,51.323,12.776,51.547,12.5,51.547z"/>
	</g>
	<g>
		<path class="st0" d="M54.5,56.5c-0.276,0-0.5-0.224-0.5-0.5v-0.984c0-0.276,0.224-0.5,0.5-0.5s0.5,0.224,0.5,0.5V56
			C55,56.276,54.776,56.5,54.5,56.5z"/>
	</g>
	<g>
		<path class="st0" d="M54.5,53.547c-0.276,0-0.5-0.224-0.5-0.5v-8c0-0.276,0.224-0.5,0.5-0.5s0.5,0.224,0.5,0.5v8
			C55,53.323,54.776,53.547,54.5,53.547z"/>
	</g>
	<g>
		<path class="st0" d="M51.5,51.547c-0.276,0-0.5-0.224-0.5-0.5v-8c0-0.276,0.224-0.5,0.5-0.5s0.5,0.224,0.5,0.5v8
			C52,51.323,51.776,51.547,51.5,51.547z"/>
	</g>
	<g>
		<path class="st0" d="M57.5,51.547c-0.276,0-0.5-0.224-0.5-0.5v-8c0-0.276,0.224-0.5,0.5-0.5s0.5,0.224,0.5,0.5v8
			C58,51.323,57.776,51.547,57.5,51.547z"/>
	</g>
</g>
</svg>
