<?xml version="1.0" encoding="utf-8"?>
<!-- Generator: Adobe Illustrator 21.1.0, SVG Export Plug-In . SVG Version: 6.00 Build 0)  -->
<svg version="1.1" id="Icon_Set" xmlns="http://www.w3.org/2000/svg" xmlns:xlink="http://www.w3.org/1999/xlink" x="0px" y="0px"
	 viewBox="0 0 64 64" style="enable-background:new 0 0 64 64;" xml:space="preserve">
<style type="text/css">
	.st0{fill:#263238;}
	.st1{fill:#FF5252;}
	.st2{fill:#FFD740;}
	.st3{fill:#40C4FF;}
	.st4{fill:#FFFFFF;}
	.st5{fill:#4DB6AC;}
	.st6{fill:#4FC3F7;}
</style>
<g id="Car">
	<g>
		<path class="st0" d="M3.5,56.75h-3c-0.276,0-0.5-0.224-0.5-0.5s0.224-0.5,0.5-0.5h3c0.276,0,0.5,0.224,0.5,0.5
			S3.776,56.75,3.5,56.75z"/>
	</g>
	<g>
		<path class="st0" d="M63.5,56.75h-58c-0.276,0-0.5-0.224-0.5-0.5s0.224-0.5,0.5-0.5h58c0.276,0,0.5,0.224,0.5,0.5
			S63.776,56.75,63.5,56.75z"/>
	</g>
	<g>
		<path class="st0" d="M25.771,19.25h-1c-0.276,0-0.5-0.224-0.5-0.5s0.224-0.5,0.5-0.5h1c0.276,0,0.5,0.224,0.5,0.5
			S26.048,19.25,25.771,19.25z"/>
	</g>
	<g>
		<path class="st0" d="M39.771,19.25h-12c-0.276,0-0.5-0.224-0.5-0.5s0.224-0.5,0.5-0.5h12c0.276,0,0.5,0.224,0.5,0.5
			S40.048,19.25,39.771,19.25z"/>
	</g>
	<g>
		<path class="st0" d="M45.029,16.25h-12c-0.276,0-0.5-0.224-0.5-0.5s0.224-0.5,0.5-0.5h12c0.276,0,0.5,0.224,0.5,0.5
			S45.306,16.25,45.029,16.25z"/>
	</g>
	<g>
		<path class="st1" d="M58.5,52.25h3l1.45-4.351c0.315-0.946-0.114-1.979-1.007-2.423l-0.454-0.226l-0.667-3.182
			c-0.42-2.004-2.02-3.549-4.037-3.899l-8.159-1.419L37,27.36c-0.889-0.718-1.998-1.11-3.142-1.11H13.685
			c-1.607,0-3.117,0.773-4.057,2.077L5,34.75H1.766c-0.777,0-1.257,0.848-0.857,1.514L3,39.75v5.5h0
			c-1.287,0-2.246,1.186-1.976,2.445L2,52.25h3"/>
		<path class="st0" d="M61.5,52.75h-3c-0.276,0-0.5-0.224-0.5-0.5s0.224-0.5,0.5-0.5h2.64l1.336-4.009
			c0.234-0.705-0.09-1.487-0.755-1.817l-0.455-0.226c-0.137-0.068-0.235-0.195-0.267-0.345l-0.667-3.182
			c-0.381-1.814-1.807-3.191-3.633-3.509l-8.159-1.419c-0.084-0.015-0.163-0.05-0.229-0.104l-11.625-9.39
			c-0.798-0.645-1.803-1-2.828-1H13.685c-1.442,0-2.807,0.699-3.651,1.869l-4.628,6.423C5.312,35.173,5.161,35.25,5,35.25H1.767
			c-0.263,0-0.392,0.178-0.436,0.254c-0.043,0.076-0.129,0.278,0.006,0.503l2.091,3.485C3.476,39.57,3.5,39.659,3.5,39.75v5.5
			c0,0.276-0.224,0.5-0.5,0.5c-0.461,0-0.893,0.206-1.183,0.565s-0.401,0.823-0.305,1.274l0.892,4.161H5c0.276,0,0.5,0.224,0.5,0.5
			s-0.224,0.5-0.5,0.5H2c-0.236,0-0.439-0.165-0.489-0.395l-0.976-4.556c-0.16-0.748,0.023-1.518,0.504-2.113
			c0.374-0.463,0.89-0.772,1.46-0.887v-4.911l-2.02-3.367c-0.282-0.47-0.289-1.034-0.019-1.511c0.27-0.477,0.758-0.761,1.306-0.761
			h2.978l4.479-6.216c1.031-1.43,2.7-2.284,4.462-2.284h20.173c1.253,0,2.48,0.434,3.456,1.221l11.524,9.309l8.032,1.396
			c2.232,0.389,3.975,2.072,4.44,4.29l0.618,2.944l0.238,0.118c1.109,0.551,1.65,1.854,1.259,3.029l-1.451,4.351
			C61.906,52.612,61.715,52.75,61.5,52.75z"/>
	</g>
	<g>
		<path class="st0" d="M41.5,52.75H22c-0.276,0-0.5-0.224-0.5-0.5s0.224-0.5,0.5-0.5h19.5c0.276,0,0.5,0.224,0.5,0.5
			S41.776,52.75,41.5,52.75z"/>
	</g>
	<g>
		<circle class="st4" cx="50" cy="49.75" r="6.5"/>
		<path class="st0" d="M50,56.75c-3.86,0-7-3.14-7-7s3.14-7,7-7s7,3.14,7,7S53.86,56.75,50,56.75z M50,43.75c-3.309,0-6,2.691-6,6
			s2.691,6,6,6s6-2.691,6-6S53.309,43.75,50,43.75z"/>
	</g>
	<g>
		<path class="st0" d="M50,53.75c-2.206,0-4-1.794-4-4s1.794-4,4-4s4,1.794,4,4S52.206,53.75,50,53.75z M50,46.75
			c-1.654,0-3,1.346-3,3s1.346,3,3,3s3-1.346,3-3S51.654,46.75,50,46.75z"/>
	</g>
	<g>
		<circle class="st4" cx="13.5" cy="49.75" r="6.5"/>
		<path class="st0" d="M13.5,56.75c-3.86,0-7-3.14-7-7s3.14-7,7-7s7,3.14,7,7S17.36,56.75,13.5,56.75z M13.5,43.75
			c-3.309,0-6,2.691-6,6s2.691,6,6,6s6-2.691,6-6S16.809,43.75,13.5,43.75z"/>
	</g>
	<g>
		<path class="st0" d="M13.5,53.75c-2.206,0-4-1.794-4-4s1.794-4,4-4s4,1.794,4,4S15.706,53.75,13.5,53.75z M13.5,46.75
			c-1.654,0-3,1.346-3,3s1.346,3,3,3s3-1.346,3-3S15.154,46.75,13.5,46.75z"/>
	</g>
	<g>
		<path class="st4" d="M15.391,30.372l-1.125,3c-0.613,1.634,0.595,3.378,2.341,3.378h32.018l-9.905-8H17.732
			C16.69,28.75,15.757,29.396,15.391,30.372z"/>
		<path class="st0" d="M48.625,37.25H16.607c-0.983,0-1.905-0.483-2.466-1.291c-0.56-0.809-0.688-1.841-0.343-2.763l1.125-3v0
			c0.437-1.165,1.565-1.947,2.809-1.947H38.72c0.114,0,0.225,0.039,0.314,0.111l9.905,8c0.165,0.133,0.228,0.356,0.157,0.556
			C49.026,37.116,48.837,37.25,48.625,37.25z M17.732,29.25c-0.829,0-1.582,0.521-1.873,1.297v0l-1.125,3
			c-0.234,0.623-0.15,1.294,0.229,1.841c0.379,0.547,0.978,0.861,1.644,0.861H47.21l-8.667-7H17.732z M15.392,30.372h0.01H15.392z"
			/>
	</g>
	<g>
		<path class="st0" d="M47.625,42.2c-0.276,0-0.5-0.224-0.5-0.5v-2.95c0-0.276,0.224-0.5,0.5-0.5s0.5,0.224,0.5,0.5v2.95
			C48.125,41.976,47.901,42.2,47.625,42.2z"/>
	</g>
	<g>
		<path class="st0" d="M27.5,50.75c-0.276,0-0.5-0.224-0.5-0.5v-11.5c0-0.276,0.224-0.5,0.5-0.5s0.5,0.224,0.5,0.5v11.5
			C28,50.526,27.776,50.75,27.5,50.75z"/>
	</g>
	<g>
		<path class="st0" d="M27.5,37.25c-0.276,0-0.5-0.224-0.5-0.5v-8c0-0.276,0.224-0.5,0.5-0.5s0.5,0.224,0.5,0.5v8
			C28,37.026,27.776,37.25,27.5,37.25z"/>
	</g>
	<g>
		<path class="st0" d="M9.125,41.75h-2c-0.827,0-1.5-0.673-1.5-1.5v-2c0-0.827,0.673-1.5,1.5-1.5h2c0.827,0,1.5,0.673,1.5,1.5v2
			C10.625,41.077,9.952,41.75,9.125,41.75z M7.125,37.75c-0.276,0-0.5,0.224-0.5,0.5v2c0,0.276,0.224,0.5,0.5,0.5h2
			c0.276,0,0.5-0.224,0.5-0.5v-2c0-0.276-0.224-0.5-0.5-0.5H7.125z"/>
	</g>
	<g>
		<path class="st4" d="M61.489,45.25l-0.667-3.182c-0.06-0.284-0.148-0.555-0.253-0.818h-2.234c-0.743,0-1.227,0.782-0.894,1.447
			l1.276,2.553L61.489,45.25L61.489,45.25z"/>
		<path class="st0" d="M61.489,45.75h-2.772c-0.189,0-0.362-0.107-0.447-0.276l-1.276-2.553c-0.234-0.468-0.209-1.014,0.065-1.459
			c0.275-0.445,0.752-0.711,1.276-0.711h2.234c0.205,0,0.389,0.125,0.465,0.315c0.126,0.318,0.217,0.613,0.277,0.9l0.667,3.182
			c0.031,0.147-0.006,0.301-0.101,0.417C61.782,45.682,61.639,45.75,61.489,45.75z M59.025,44.75h1.848l-0.541-2.579
			c-0.029-0.136-0.066-0.275-0.114-0.421h-1.884c-0.252,0-0.381,0.166-0.425,0.237c-0.044,0.071-0.135,0.261-0.022,0.486
			L59.025,44.75z"/>
	</g>
	<g>
		<path class="st6" d="M6.5,10.75c0-1.657,1.343-3,3-3s3,1.343,3,3c1.657,0,3,1.343,3,3s-1.343,3-3,3h-6c-1.657,0-3-1.343-3-3
			S4.843,10.75,6.5,10.75z"/>
	</g>
	<g>
		<path class="st6" d="M53.5,22.25c0-1.105,0.895-2,2-2s2,0.895,2,2c1.105,0,2,0.895,2,2c0,1.105-0.895,2-2,2h-4
			c-1.105,0-2-0.895-2-2C51.5,23.145,52.395,22.25,53.5,22.25z"/>
	</g>
</g>
</svg>
