<?xml version="1.0" encoding="utf-8"?>
<!-- Generator: Adobe Illustrator 21.1.0, SVG Export Plug-In . SVG Version: 6.00 Build 0)  -->
<svg version="1.1" id="Icon_Set" xmlns="http://www.w3.org/2000/svg" xmlns:xlink="http://www.w3.org/1999/xlink" x="0px" y="0px"
	 viewBox="0 0 64 64" style="enable-background:new 0 0 64 64;" xml:space="preserve">
<style type="text/css">
	.st0{fill:#263238;}
	.st1{fill:#FF5252;}
	.st2{fill:#FFD740;}
	.st3{fill:#40C4FF;}
	.st4{fill:#FFFFFF;}
	.st5{fill:#4DB6AC;}
	.st6{fill:#4FC3F7;}
</style>
<g id="Catalytic">
	<g>
		<path class="st2" d="M5.5,28.5h6.085c0.878,0,1.692-0.461,2.144-1.214l3.815-6.359c0.904-1.506,2.531-2.428,4.287-2.428h20.338
			c1.756,0,3.384,0.921,4.287,2.428l3.815,6.359c0.452,0.753,1.266,1.214,2.144,1.214H58.5v12h-6.085
			c-0.878,0-1.692,0.461-2.144,1.214l-3.815,6.359c-0.904,1.506-2.531,2.428-4.287,2.428H21.831c-1.756,0-3.384-0.921-4.287-2.428
			l-3.815-6.359c-0.452-0.753-1.266-1.214-2.144-1.214H5.5"/>
	</g>
	<g>
		<path class="st0" d="M42.169,51H21.831c-1.92,0-3.728-1.023-4.716-2.67l-3.815-6.359C12.94,41.373,12.283,41,11.584,41H5.5
			C5.224,41,5,40.777,5,40.5S5.224,40,5.5,40h6.084c1.048,0,2.034,0.558,2.572,1.456l3.815,6.359C18.781,49.163,20.26,50,21.831,50
			h20.338c1.571,0,3.05-0.837,3.858-2.185l3.815-6.359C50.382,40.559,51.368,40,52.415,40H58.5c0.276,0,0.5,0.224,0.5,0.5
			S58.776,41,58.5,41h-6.085c-0.698,0-1.355,0.372-1.715,0.971l-3.815,6.359C45.896,49.977,44.09,51,42.169,51z"/>
	</g>
	<g>
		<path class="st0" d="M58.5,29h-6.085c-1.047,0-2.032-0.558-2.572-1.457l-3.815-6.359C45.219,19.837,43.74,19,42.169,19H21.831
			c-1.571,0-3.05,0.837-3.859,2.185l-3.815,6.359C13.618,28.442,12.632,29,11.584,29H5.5C5.224,29,5,28.777,5,28.5S5.224,28,5.5,28
			h6.084c0.698,0,1.355-0.372,1.715-0.971l3.815-6.359C18.103,19.023,19.91,18,21.831,18h20.338c1.921,0,3.728,1.023,4.716,2.67
			l3.815,6.359C51.06,27.628,51.717,28,52.415,28H58.5c0.276,0,0.5,0.224,0.5,0.5S58.776,29,58.5,29z"/>
	</g>
	<g>
		<path class="st0" d="M2.5,45h-1C0.673,45,0,44.328,0,43.5v-18C0,24.673,0.673,24,1.5,24h1C3.327,24,4,24.673,4,25.5v18
			C4,44.328,3.327,45,2.5,45z M1.5,25C1.224,25,1,25.225,1,25.5v18C1,43.776,1.224,44,1.5,44h1C2.776,44,3,43.776,3,43.5v-18
			C3,25.225,2.776,25,2.5,25H1.5z"/>
	</g>
	<g>
		<path class="st0" d="M62.5,45h-1c-0.827,0-1.5-0.673-1.5-1.5v-18c0-0.827,0.673-1.5,1.5-1.5h1c0.827,0,1.5,0.673,1.5,1.5v18
			C64,44.328,63.327,45,62.5,45z M61.5,25c-0.275,0-0.5,0.224-0.5,0.5v18c0,0.276,0.225,0.5,0.5,0.5h1c0.275,0,0.5-0.224,0.5-0.5
			v-18c0-0.276-0.225-0.5-0.5-0.5H61.5z"/>
	</g>
	<g>
		<path class="st0" d="M34.5,24h-5c-0.276,0-0.5-0.224-0.5-0.5v-5c0-0.276,0.224-0.5,0.5-0.5h5c0.276,0,0.5,0.224,0.5,0.5v5
			C35,23.777,34.776,24,34.5,24z M30,23h4v-4h-4V23z"/>
	</g>
	<g>
		<path class="st0" d="M22,45c-0.276,0-0.5-0.224-0.5-0.5v-20c0-0.276,0.224-0.5,0.5-0.5s0.5,0.224,0.5,0.5v20
			C22.5,44.777,22.276,45,22,45z"/>
	</g>
	<g>
		<path class="st0" d="M42,45c-0.276,0-0.5-0.224-0.5-0.5v-20c0-0.276,0.224-0.5,0.5-0.5s0.5,0.224,0.5,0.5v20
			C42.5,44.777,42.276,45,42,45z"/>
	</g>
	<g>
		<path class="st0" d="M32,43c-0.276,0-0.5-0.224-0.5-0.5v-16c0-0.276,0.224-0.5,0.5-0.5s0.5,0.224,0.5,0.5v16
			C32.5,42.777,32.276,43,32,43z"/>
	</g>
	<g>
		<path class="st0" d="M18,57h-1c-0.276,0-0.5-0.224-0.5-0.5S16.724,56,17,56h1c0.276,0,0.5,0.224,0.5,0.5S18.276,57,18,57z"/>
	</g>
	<g>
		<path class="st0" d="M37,57H20c-0.276,0-0.5-0.224-0.5-0.5S19.724,56,20,56h17c0.276,0,0.5,0.224,0.5,0.5S37.276,57,37,57z"/>
	</g>
	<g>
		<path class="st0" d="M52,13h-1c-0.276,0-0.5-0.224-0.5-0.5S50.724,12,51,12h1c0.276,0,0.5,0.224,0.5,0.5S52.276,13,52,13z"/>
	</g>
	<g>
		<path class="st0" d="M49,13H32c-0.276,0-0.5-0.224-0.5-0.5S31.724,12,32,12h17c0.276,0,0.5,0.224,0.5,0.5S49.276,13,49,13z"/>
	</g>
	<g>
		<path class="st0" d="M15,12c-0.276,0-0.5-0.224-0.5-0.5v-4C14.5,7.224,14.724,7,15,7s0.5,0.224,0.5,0.5v4
			C15.5,11.777,15.276,12,15,12z"/>
	</g>
	<g>
		<path class="st0" d="M17,10h-4c-0.276,0-0.5-0.224-0.5-0.5S12.724,9,13,9h4c0.276,0,0.5,0.224,0.5,0.5S17.276,10,17,10z"/>
	</g>
	<g>
		<path class="st0" d="M8,19c-0.276,0-0.5-0.224-0.5-0.5v-4C7.5,14.224,7.724,14,8,14s0.5,0.224,0.5,0.5v4C8.5,18.777,8.276,19,8,19
			z"/>
	</g>
	<g>
		<path class="st0" d="M10,17H6c-0.276,0-0.5-0.224-0.5-0.5S5.724,16,6,16h4c0.276,0,0.5,0.224,0.5,0.5S10.276,17,10,17z"/>
	</g>
</g>
</svg>
