<?xml version="1.0" encoding="utf-8"?>
<!-- Generator: Adobe Illustrator 21.1.0, SVG Export Plug-In . SVG Version: 6.00 Build 0)  -->
<svg version="1.1" id="Icon_Set" xmlns="http://www.w3.org/2000/svg" xmlns:xlink="http://www.w3.org/1999/xlink" x="0px" y="0px"
	 viewBox="0 0 64 64" style="enable-background:new 0 0 64 64;" xml:space="preserve">
<style type="text/css">
	.st0{fill:#263238;}
	.st1{fill:#FF5252;}
	.st2{fill:#FFD740;}
	.st3{fill:#40C4FF;}
	.st4{fill:#FFFFFF;}
	.st5{fill:#4DB6AC;}
	.st6{fill:#4FC3F7;}
</style>
<g id="Chain">
	<g>
		<path class="st0" d="M26,21.486c-1.25,0-2.464-0.358-3.513-1.035c-0.591-0.382-1.384-0.382-1.975,0
			c-1.048,0.677-2.263,1.035-3.513,1.035c-1.855,0-3.626-0.795-4.859-2.183c-1.232-1.386-1.813-3.247-1.595-5.105
			c0.335-2.84,2.533-5.152,5.345-5.62c1.622-0.269,3.264,0.065,4.621,0.943c0.591,0.382,1.385,0.382,1.976,0
			c1.358-0.878,2.996-1.214,4.621-0.943c2.812,0.468,5.01,2.78,5.345,5.62l0,0c0.219,1.858-0.362,3.719-1.595,5.105
			C29.626,20.691,27.855,21.486,26,21.486z M21.5,19.167c0.536,0,1.072,0.148,1.53,0.444c0.886,0.572,1.913,0.875,2.97,0.875
			c1.569,0,3.068-0.673,4.112-1.847c1.058-1.19,1.537-2.725,1.349-4.323c-0.279-2.363-2.178-4.361-4.516-4.751
			c-1.375-0.229-2.766,0.054-3.914,0.796c-0.916,0.592-2.146,0.592-3.062,0c-1.148-0.742-2.539-1.026-3.914-0.796
			c-2.338,0.39-4.237,2.388-4.516,4.751c-0.188,1.598,0.291,3.133,1.349,4.323c1.043,1.174,2.542,1.847,4.112,1.847
			c1.057,0,2.084-0.303,2.97-0.875C20.427,19.315,20.964,19.167,21.5,19.167z M26,17.486c-1.378,0-2.5-1.122-2.5-2.5
			s1.122-2.5,2.5-2.5s2.5,1.122,2.5,2.5S27.378,17.486,26,17.486z M26,13.486c-0.827,0-1.5,0.673-1.5,1.5s0.673,1.5,1.5,1.5
			s1.5-0.673,1.5-1.5S26.827,13.486,26,13.486z M17,17.486c-1.378,0-2.5-1.122-2.5-2.5s1.122-2.5,2.5-2.5s2.5,1.122,2.5,2.5
			S18.378,17.486,17,17.486z M17,13.486c-0.827,0-1.5,0.673-1.5,1.5s0.673,1.5,1.5,1.5s1.5-0.673,1.5-1.5S17.827,13.486,17,13.486z"
			/>
	</g>
	<g>
		<path class="st0" d="M47,21.486c-1.25,0-2.464-0.358-3.513-1.035c-0.591-0.382-1.384-0.382-1.975,0
			c-1.048,0.677-2.263,1.035-3.513,1.035c-1.855,0-3.626-0.795-4.859-2.183c-1.232-1.386-1.813-3.247-1.595-5.105
			c0.335-2.84,2.533-5.152,5.345-5.62c1.622-0.269,3.264,0.065,4.621,0.943c0.591,0.382,1.385,0.382,1.976,0
			c1.358-0.878,2.996-1.214,4.621-0.943c2.812,0.468,5.01,2.78,5.345,5.62l0,0c0.219,1.858-0.362,3.719-1.595,5.105
			C50.626,20.691,48.855,21.486,47,21.486z M42.5,19.167c0.536,0,1.072,0.148,1.53,0.444c0.886,0.572,1.913,0.875,2.97,0.875
			c1.569,0,3.068-0.673,4.112-1.847c1.058-1.19,1.537-2.725,1.349-4.323c-0.279-2.363-2.178-4.361-4.516-4.751
			c-1.376-0.229-2.766,0.054-3.914,0.796c-0.916,0.592-2.146,0.592-3.062,0c-1.148-0.742-2.538-1.026-3.914-0.796
			c-2.338,0.39-4.237,2.388-4.516,4.751c-0.188,1.598,0.291,3.133,1.349,4.323c1.043,1.174,2.542,1.847,4.112,1.847
			c1.057,0,2.084-0.303,2.97-0.875C41.427,19.315,41.964,19.167,42.5,19.167z M47,17.486c-1.378,0-2.5-1.122-2.5-2.5
			s1.122-2.5,2.5-2.5s2.5,1.122,2.5,2.5S48.378,17.486,47,17.486z M47,13.486c-0.827,0-1.5,0.673-1.5,1.5s0.673,1.5,1.5,1.5
			s1.5-0.673,1.5-1.5S47.827,13.486,47,13.486z M38,17.486c-1.378,0-2.5-1.122-2.5-2.5s1.122-2.5,2.5-2.5s2.5,1.122,2.5,2.5
			S39.378,17.486,38,17.486z M38,13.486c-0.827,0-1.5,0.673-1.5,1.5s0.673,1.5,1.5,1.5s1.5-0.673,1.5-1.5S38.827,13.486,38,13.486z"
			/>
	</g>
	<g>
		<path class="st0" d="M26,55.848c-1.25,0-2.464-0.358-3.513-1.035c-0.591-0.382-1.384-0.382-1.975,0
			C19.464,55.49,18.25,55.848,17,55.848c-1.855,0-3.626-0.795-4.859-2.183c-1.232-1.386-1.813-3.247-1.595-5.105
			c0.335-2.84,2.533-5.152,5.345-5.62c1.622-0.272,3.263,0.064,4.621,0.942c0.591,0.382,1.385,0.383,1.976,0
			c1.357-0.878,2.999-1.215,4.621-0.942c2.812,0.468,5.01,2.78,5.345,5.62l0,0c0.219,1.858-0.362,3.719-1.595,5.105
			C29.626,55.052,27.855,55.848,26,55.848z M21.5,53.529c0.536,0,1.072,0.148,1.53,0.444c0.886,0.572,1.913,0.875,2.97,0.875
			c1.569,0,3.068-0.673,4.112-1.847c1.058-1.19,1.537-2.725,1.349-4.323c-0.279-2.363-2.178-4.361-4.516-4.751
			c-1.377-0.229-2.766,0.054-3.914,0.796c-0.916,0.592-2.146,0.592-3.062,0c-1.148-0.742-2.537-1.024-3.914-0.796
			c-2.338,0.39-4.237,2.388-4.516,4.751c-0.188,1.598,0.291,3.133,1.349,4.323c1.043,1.174,2.542,1.847,4.112,1.847
			c1.057,0,2.084-0.303,2.97-0.875C20.427,53.677,20.964,53.529,21.5,53.529z M26,51.848c-1.378,0-2.5-1.122-2.5-2.5
			s1.122-2.5,2.5-2.5s2.5,1.122,2.5,2.5S27.378,51.848,26,51.848z M26,47.848c-0.827,0-1.5,0.673-1.5,1.5s0.673,1.5,1.5,1.5
			s1.5-0.673,1.5-1.5S26.827,47.848,26,47.848z M17,51.848c-1.378,0-2.5-1.122-2.5-2.5s1.122-2.5,2.5-2.5s2.5,1.122,2.5,2.5
			S18.378,51.848,17,51.848z M17,47.848c-0.827,0-1.5,0.673-1.5,1.5s0.673,1.5,1.5,1.5s1.5-0.673,1.5-1.5S17.827,47.848,17,47.848z"
			/>
	</g>
	<g>
		<path class="st0" d="M47,55.848c-1.25,0-2.464-0.358-3.513-1.035c-0.591-0.382-1.384-0.382-1.975,0
			C40.464,55.49,39.25,55.848,38,55.848c-1.855,0-3.626-0.795-4.859-2.183c-1.232-1.386-1.813-3.247-1.595-5.105
			c0.335-2.84,2.533-5.152,5.345-5.62c1.622-0.272,3.263,0.064,4.621,0.942c0.591,0.382,1.385,0.383,1.976,0
			c1.357-0.878,3-1.215,4.621-0.942c2.812,0.468,5.01,2.78,5.345,5.62l0,0c0.219,1.858-0.362,3.719-1.595,5.105
			C50.626,55.052,48.855,55.848,47,55.848z M42.5,53.529c0.536,0,1.072,0.148,1.53,0.444c0.886,0.572,1.913,0.875,2.97,0.875
			c1.569,0,3.068-0.673,4.112-1.847c1.058-1.19,1.537-2.725,1.349-4.323c-0.279-2.363-2.178-4.361-4.516-4.751
			c-1.378-0.229-2.767,0.054-3.914,0.796c-0.916,0.592-2.146,0.592-3.062,0c-1.147-0.742-2.535-1.024-3.914-0.796
			c-2.338,0.39-4.237,2.388-4.516,4.751c-0.188,1.598,0.291,3.133,1.349,4.323c1.043,1.174,2.542,1.847,4.112,1.847
			c1.057,0,2.084-0.303,2.97-0.875C41.427,53.677,41.964,53.529,42.5,53.529z M47,51.848c-1.378,0-2.5-1.122-2.5-2.5
			s1.122-2.5,2.5-2.5s2.5,1.122,2.5,2.5S48.378,51.848,47,51.848z M47,47.848c-0.827,0-1.5,0.673-1.5,1.5s0.673,1.5,1.5,1.5
			s1.5-0.673,1.5-1.5S47.827,47.848,47,47.848z M38,51.848c-1.378,0-2.5-1.122-2.5-2.5s1.122-2.5,2.5-2.5s2.5,1.122,2.5,2.5
			S39.378,51.848,38,51.848z M38,47.848c-0.827,0-1.5,0.673-1.5,1.5s0.673,1.5,1.5,1.5s1.5-0.673,1.5-1.5S38.827,47.848,38,47.848z"
			/>
	</g>
	<g>
		<path class="st2" d="M39.911,25.29c-2.27-2.877-6.458-3.059-8.97-0.546c-0.845,0.845-1.383,1.88-1.617,2.967
			c-0.189,0.881-0.9,1.591-1.78,1.781c-1.087,0.234-2.122,0.771-2.967,1.616c-2.513,2.513-2.331,6.7,0.546,8.97
			c2.052,1.62,5.025,1.701,7.153,0.181c1.305-0.933,2.104-2.239,2.403-3.632c0.189-0.881,0.9-1.592,1.781-1.781
			c1.393-0.299,2.7-1.098,3.632-2.403C41.612,30.315,41.531,27.342,39.911,25.29z M30.234,36.764c-0.781,0.781-2.047,0.781-2.828,0
			c-0.781-0.781-0.781-2.047,0-2.828s2.047-0.781,2.828,0S31.015,35.983,30.234,36.764z M36.597,30.4
			c-0.781,0.781-2.047,0.781-2.828,0c-0.781-0.781-0.781-2.047,0-2.828c0.781-0.781,2.047-0.781,2.828,0
			C37.379,28.353,37.379,29.619,36.597,30.4z"/>
		<path class="st0" d="M28.826,41.856c-1.423,0-2.846-0.464-4.014-1.386c-1.468-1.159-2.373-2.885-2.482-4.736
			c-0.109-1.853,0.581-3.668,1.893-4.98c0.884-0.884,1.996-1.49,3.216-1.751c0.687-0.148,1.249-0.709,1.396-1.397
			c0.262-1.219,0.867-2.331,1.751-3.215c1.312-1.312,3.12-2.002,4.98-1.893c1.851,0.109,3.578,1.014,4.737,2.482l0,0
			c1.772,2.245,1.852,5.433,0.194,7.753c-0.956,1.338-2.353,2.262-3.934,2.601c-0.688,0.148-1.249,0.709-1.397,1.397
			c-0.34,1.581-1.263,2.979-2.601,3.934C31.453,41.46,30.139,41.856,28.826,41.856z M35.186,23.486
			c-1.455,0-2.858,0.577-3.892,1.611c-0.748,0.748-1.26,1.688-1.481,2.718c-0.229,1.065-1.099,1.936-2.164,2.165
			c-1.031,0.221-1.971,0.733-2.719,1.481c-1.11,1.11-1.693,2.646-1.601,4.214c0.093,1.589,0.84,3.014,2.103,4.01
			c1.868,1.475,4.623,1.544,6.553,0.167c1.134-0.811,1.917-1.994,2.205-3.331c0.229-1.065,1.099-1.936,2.165-2.165
			c1.337-0.287,2.52-1.07,3.331-2.205c1.378-1.929,1.308-4.685-0.166-6.553l0,0c-0.997-1.263-2.421-2.01-4.01-2.104
			C35.4,23.489,35.293,23.486,35.186,23.486z M28.819,37.85c-0.668,0-1.296-0.26-1.768-0.732c-0.472-0.472-0.732-1.1-0.732-1.768
			s0.26-1.296,0.732-1.768c0.943-0.944,2.592-0.944,3.535,0c0.472,0.472,0.732,1.1,0.732,1.768s-0.26,1.295-0.732,1.768l0,0l0,0l0,0
			C30.115,37.59,29.487,37.85,28.819,37.85z M28.819,33.85c-0.401,0-0.777,0.156-1.061,0.439s-0.439,0.66-0.439,1.061
			s0.156,0.777,0.439,1.061c0.566,0.566,1.555,0.566,2.121,0l0,0c0.283-0.283,0.439-0.66,0.439-1.061s-0.156-0.777-0.439-1.061
			S29.22,33.85,28.819,33.85z M35.184,31.485c-0.641,0-1.281-0.244-1.768-0.731c-0.974-0.975-0.974-2.561,0-3.536
			c0.975-0.975,2.561-0.975,3.536,0c0.974,0.975,0.974,2.561,0,3.536l0,0C36.464,31.241,35.824,31.485,35.184,31.485z
			 M35.184,27.487c-0.384,0-0.769,0.146-1.061,0.438c-0.584,0.585-0.584,1.537,0,2.122c0.585,0.585,1.537,0.584,2.122,0
			c0.584-0.585,0.584-1.537,0-2.122C35.952,27.633,35.567,27.487,35.184,27.487z M36.598,30.4h0.01H36.598z"/>
	</g>
	<g>
		<path class="st0" d="M7.5,32.667h-1c-0.276,0-0.5-0.224-0.5-0.5s0.224-0.5,0.5-0.5h1c0.276,0,0.5,0.224,0.5,0.5
			S7.776,32.667,7.5,32.667z"/>
	</g>
	<g>
		<path class="st0" d="M19.5,32.667h-10c-0.276,0-0.5-0.224-0.5-0.5s0.224-0.5,0.5-0.5h10c0.276,0,0.5,0.224,0.5,0.5
			S19.776,32.667,19.5,32.667z"/>
	</g>
	<g>
		<path class="st0" d="M57.5,32.667h-1c-0.276,0-0.5-0.224-0.5-0.5s0.224-0.5,0.5-0.5h1c0.276,0,0.5,0.224,0.5,0.5
			S57.776,32.667,57.5,32.667z"/>
	</g>
	<g>
		<path class="st0" d="M54.5,32.667h-10c-0.276,0-0.5-0.224-0.5-0.5s0.224-0.5,0.5-0.5h10c0.276,0,0.5,0.224,0.5,0.5
			S54.776,32.667,54.5,32.667z"/>
	</g>
</g>
</svg>
