<?xml version="1.0" encoding="utf-8"?>
<!-- Generator: Adobe Illustrator 21.1.0, SVG Export Plug-In . SVG Version: 6.00 Build 0)  -->
<svg version="1.1" id="Icon_Set" xmlns="http://www.w3.org/2000/svg" xmlns:xlink="http://www.w3.org/1999/xlink" x="0px" y="0px"
	 viewBox="0 0 64 64" style="enable-background:new 0 0 64 64;" xml:space="preserve">
<style type="text/css">
	.st0{fill:#263238;}
	.st1{fill:#FF5252;}
	.st2{fill:#FFD740;}
	.st3{fill:#40C4FF;}
	.st4{fill:#FFFFFF;}
	.st5{fill:#4DB6AC;}
	.st6{fill:#4FC3F7;}
</style>
<g id="COG">
	<g>
		<path class="st0" d="M46.5,62.292h-1c-0.276,0-0.5-0.224-0.5-0.5s0.224-0.5,0.5-0.5h1c0.276,0,0.5,0.224,0.5,0.5
			S46.776,62.292,46.5,62.292z"/>
	</g>
	<g>
		<path class="st0" d="M60.5,62.292h-12c-0.276,0-0.5-0.224-0.5-0.5s0.224-0.5,0.5-0.5h12c0.276,0,0.5,0.224,0.5,0.5
			S60.776,62.292,60.5,62.292z"/>
	</g>
	<g>
		<path class="st0" d="M60,17.292h-1c-0.276,0-0.5-0.224-0.5-0.5s0.224-0.5,0.5-0.5h1c0.276,0,0.5,0.224,0.5,0.5
			S60.276,17.292,60,17.292z"/>
	</g>
	<g>
		<path class="st0" d="M57,17.292H45c-0.276,0-0.5-0.224-0.5-0.5s0.224-0.5,0.5-0.5h12c0.276,0,0.5,0.224,0.5,0.5
			S57.276,17.292,57,17.292z"/>
	</g>
	<g>
		<path class="st1" d="M15.5,54.292h-7c-0.552,0-1-0.448-1-1v-28c0-0.552,0.448-1,1-1h7c0.552,0,1,0.448,1,1v28
			C16.5,53.844,16.052,54.292,15.5,54.292z"/>
		<path class="st0" d="M15.5,54.792h-7c-0.827,0-1.5-0.673-1.5-1.5v-28c0-0.827,0.673-1.5,1.5-1.5h7c0.827,0,1.5,0.673,1.5,1.5v28
			C17,54.119,16.327,54.792,15.5,54.792z M8.5,24.792c-0.276,0-0.5,0.224-0.5,0.5v28c0,0.276,0.224,0.5,0.5,0.5h7
			c0.276,0,0.5-0.224,0.5-0.5v-28c0-0.276-0.224-0.5-0.5-0.5H8.5z"/>
	</g>
	<g>
		<path class="st0" d="M7.5,28.292c-0.219,0-0.42-0.145-0.481-0.366C6.944,27.66,7.1,27.384,7.366,27.31l9-2.5
			c0.267-0.073,0.542,0.082,0.616,0.348c0.074,0.266-0.082,0.542-0.348,0.616l-9,2.5C7.589,28.286,7.544,28.292,7.5,28.292z"/>
	</g>
	<g>
		<path class="st0" d="M7.5,33.292c-0.219,0-0.42-0.145-0.481-0.366C6.944,32.66,7.1,32.384,7.366,32.31l9-2.5
			c0.267-0.073,0.542,0.083,0.616,0.348c0.074,0.266-0.082,0.542-0.348,0.616l-9,2.5C7.589,33.286,7.544,33.292,7.5,33.292z"/>
	</g>
	<g>
		<path class="st0" d="M7.5,38.292c-0.219,0-0.42-0.145-0.481-0.366C6.944,37.66,7.1,37.384,7.366,37.31l9-2.5
			c0.267-0.072,0.542,0.082,0.616,0.348c0.074,0.266-0.082,0.542-0.348,0.616l-9,2.5C7.589,38.286,7.544,38.292,7.5,38.292z"/>
	</g>
	<g>
		<path class="st0" d="M7.5,43.292c-0.219,0-0.42-0.145-0.481-0.366C6.944,42.66,7.1,42.384,7.366,42.31l9-2.5
			c0.267-0.072,0.542,0.082,0.616,0.348c0.074,0.266-0.082,0.542-0.348,0.616l-9,2.5C7.589,43.286,7.544,43.292,7.5,43.292z"/>
	</g>
	<g>
		<path class="st0" d="M7.5,48.292c-0.219,0-0.42-0.145-0.481-0.366C6.944,47.66,7.1,47.384,7.366,47.31l9-2.5
			c0.267-0.071,0.542,0.082,0.616,0.348c0.074,0.266-0.082,0.542-0.348,0.616l-9,2.5C7.589,48.286,7.544,48.292,7.5,48.292z"/>
	</g>
	<g>
		<path class="st0" d="M7.5,53.292c-0.219,0-0.42-0.145-0.481-0.366C6.944,52.66,7.1,52.384,7.366,52.31l9-2.5
			c0.267-0.074,0.542,0.082,0.616,0.348c0.074,0.266-0.082,0.542-0.348,0.616l-9,2.5C7.589,53.286,7.544,53.292,7.5,53.292z"/>
	</g>
	<g>
		<path class="st0" d="M24.5,59.792h-7c-0.827,0-1.5-0.673-1.5-1.5v-38c0-0.827,0.673-1.5,1.5-1.5h7c0.827,0,1.5,0.673,1.5,1.5v38
			C26,59.119,25.327,59.792,24.5,59.792z M17.5,19.792c-0.276,0-0.5,0.224-0.5,0.5v38c0,0.276,0.224,0.5,0.5,0.5h7
			c0.276,0,0.5-0.224,0.5-0.5v-38c0-0.276-0.224-0.5-0.5-0.5H17.5z"/>
	</g>
	<g>
		<path class="st0" d="M16.5,23.292c-0.219,0-0.42-0.145-0.481-0.366c-0.074-0.266,0.082-0.542,0.348-0.616l9-2.5
			c0.265-0.071,0.542,0.082,0.616,0.348c0.074,0.266-0.082,0.542-0.348,0.616l-9,2.5C16.589,23.286,16.544,23.292,16.5,23.292z"/>
	</g>
	<g>
		<path class="st0" d="M16.5,28.292c-0.219,0-0.42-0.145-0.481-0.366c-0.074-0.266,0.082-0.542,0.348-0.616l9-2.5
			c0.265-0.073,0.542,0.082,0.616,0.348c0.074,0.266-0.082,0.542-0.348,0.616l-9,2.5C16.589,28.286,16.544,28.292,16.5,28.292z"/>
	</g>
	<g>
		<path class="st0" d="M16.5,33.292c-0.219,0-0.42-0.145-0.481-0.366c-0.074-0.266,0.082-0.542,0.348-0.616l9-2.5
			c0.265-0.073,0.542,0.083,0.616,0.348c0.074,0.266-0.082,0.542-0.348,0.616l-9,2.5C16.589,33.286,16.544,33.292,16.5,33.292z"/>
	</g>
	<g>
		<path class="st0" d="M16.5,38.292c-0.219,0-0.42-0.145-0.481-0.366c-0.074-0.266,0.082-0.542,0.348-0.616l9-2.5
			c0.265-0.072,0.542,0.082,0.616,0.348c0.074,0.266-0.082,0.542-0.348,0.616l-9,2.5C16.589,38.286,16.544,38.292,16.5,38.292z"/>
	</g>
	<g>
		<path class="st0" d="M16.5,43.292c-0.219,0-0.42-0.145-0.481-0.366c-0.074-0.266,0.082-0.542,0.348-0.616l9-2.5
			c0.265-0.072,0.542,0.082,0.616,0.348c0.074,0.266-0.082,0.542-0.348,0.616l-9,2.5C16.589,43.286,16.544,43.292,16.5,43.292z"/>
	</g>
	<g>
		<path class="st0" d="M16.5,48.292c-0.219,0-0.42-0.145-0.481-0.366c-0.074-0.266,0.082-0.542,0.348-0.616l9-2.5
			c0.265-0.071,0.542,0.082,0.616,0.348c0.074,0.266-0.082,0.542-0.348,0.616l-9,2.5C16.589,48.286,16.544,48.292,16.5,48.292z"/>
	</g>
	<g>
		<path class="st0" d="M16.5,53.292c-0.219,0-0.42-0.145-0.481-0.366c-0.074-0.266,0.082-0.542,0.348-0.616l9-2.5
			c0.265-0.074,0.542,0.082,0.616,0.348c0.074,0.266-0.082,0.542-0.348,0.616l-9,2.5C16.589,53.286,16.544,53.292,16.5,53.292z"/>
	</g>
	<g>
		<path class="st0" d="M16.5,58.292c-0.219,0-0.42-0.145-0.481-0.366c-0.074-0.266,0.082-0.542,0.348-0.616l9-2.5
			c0.265-0.073,0.542,0.082,0.616,0.348c0.074,0.266-0.082,0.542-0.348,0.616l-9,2.5C16.589,58.286,16.544,58.292,16.5,58.292z"/>
	</g>
	<g>
		<path class="st2" d="M38.5,61.792h-5c-0.552,0-1-0.448-1-1v-43c0-0.552,0.448-1,1-1h5c0.552,0,1,0.448,1,1v43
			C39.5,61.344,39.052,61.792,38.5,61.792z"/>
		<path class="st0" d="M38.5,62.292h-5c-0.827,0-1.5-0.673-1.5-1.5v-43c0-0.827,0.673-1.5,1.5-1.5h5c0.827,0,1.5,0.673,1.5,1.5v43
			C40,61.619,39.327,62.292,38.5,62.292z M33.5,17.292c-0.275,0-0.5,0.224-0.5,0.5v43c0,0.276,0.225,0.5,0.5,0.5h5
			c0.275,0,0.5-0.224,0.5-0.5v-43c0-0.276-0.225-0.5-0.5-0.5H33.5z"/>
	</g>
	<g>
		<path class="st0" d="M32.5,25.792c-0.206,0-0.398-0.127-0.471-0.332c-0.093-0.26,0.042-0.546,0.303-0.639l7-2.5
			c0.261-0.093,0.546,0.043,0.639,0.303s-0.043,0.546-0.303,0.639l-7,2.5C32.613,25.783,32.556,25.792,32.5,25.792z"/>
	</g>
	<g>
		<path class="st0" d="M32.5,20.792c-0.206,0-0.398-0.127-0.471-0.332c-0.093-0.26,0.042-0.546,0.303-0.639l7-2.5
			c0.261-0.093,0.546,0.043,0.639,0.303s-0.043,0.546-0.303,0.639l-7,2.5C32.613,20.783,32.556,20.792,32.5,20.792z"/>
	</g>
	<g>
		<path class="st0" d="M32.5,30.792c-0.206,0-0.398-0.127-0.471-0.332c-0.093-0.26,0.042-0.546,0.303-0.639l7-2.5
			c0.261-0.093,0.546,0.043,0.639,0.303s-0.043,0.546-0.303,0.639l-7,2.5C32.613,30.783,32.556,30.792,32.5,30.792z"/>
	</g>
	<g>
		<path class="st0" d="M32.5,35.792c-0.206,0-0.398-0.127-0.471-0.332c-0.093-0.26,0.042-0.546,0.303-0.639l7-2.5
			c0.261-0.094,0.546,0.043,0.639,0.303s-0.043,0.546-0.303,0.639l-7,2.5C32.613,35.783,32.556,35.792,32.5,35.792z"/>
	</g>
	<g>
		<path class="st0" d="M32.5,40.792c-0.206,0-0.398-0.127-0.471-0.332c-0.093-0.26,0.042-0.546,0.303-0.639l7-2.5
			c0.261-0.094,0.546,0.043,0.639,0.303s-0.043,0.546-0.303,0.639l-7,2.5C32.613,40.783,32.556,40.792,32.5,40.792z"/>
	</g>
	<g>
		<path class="st0" d="M32.5,45.792c-0.206,0-0.398-0.127-0.471-0.332c-0.093-0.26,0.042-0.546,0.303-0.639l7-2.5
			c0.261-0.094,0.546,0.043,0.639,0.303s-0.043,0.546-0.303,0.639l-7,2.5C32.613,45.783,32.556,45.792,32.5,45.792z"/>
	</g>
	<g>
		<path class="st0" d="M32.5,50.792c-0.206,0-0.398-0.127-0.471-0.332c-0.093-0.26,0.042-0.546,0.303-0.639l7-2.5
			c0.261-0.094,0.546,0.043,0.639,0.303s-0.043,0.546-0.303,0.639l-7,2.5C32.613,50.783,32.556,50.792,32.5,50.792z"/>
	</g>
	<g>
		<path class="st0" d="M32.5,55.792c-0.206,0-0.398-0.127-0.471-0.332c-0.093-0.26,0.042-0.546,0.303-0.639l7-2.5
			c0.261-0.094,0.546,0.043,0.639,0.303s-0.043,0.546-0.303,0.639l-7,2.5C32.613,55.783,32.556,55.792,32.5,55.792z"/>
	</g>
	<g>
		<path class="st0" d="M32.5,60.792c-0.206,0-0.398-0.127-0.471-0.332c-0.093-0.26,0.042-0.546,0.303-0.639l7-2.5
			c0.261-0.092,0.546,0.042,0.639,0.303c0.093,0.26-0.043,0.546-0.303,0.639l-7,2.5C32.613,60.783,32.556,60.792,32.5,60.792z"/>
	</g>
	<g>
		<path class="st0" d="M55.5,52.292h-5c-0.827,0-1.5-0.673-1.5-1.5v-23c0-0.827,0.673-1.5,1.5-1.5h5c0.827,0,1.5,0.673,1.5,1.5v23
			C57,51.619,56.327,52.292,55.5,52.292z M50.5,27.292c-0.275,0-0.5,0.224-0.5,0.5v23c0,0.276,0.225,0.5,0.5,0.5h5
			c0.275,0,0.5-0.224,0.5-0.5v-23c0-0.276-0.225-0.5-0.5-0.5H50.5z"/>
	</g>
	<g>
		<path class="st0" d="M49.5,35.792c-0.205,0-0.397-0.127-0.471-0.332c-0.093-0.26,0.043-0.546,0.303-0.639l7-2.5
			c0.261-0.094,0.546,0.043,0.639,0.303s-0.043,0.546-0.303,0.639l-7,2.5C49.612,35.783,49.556,35.792,49.5,35.792z"/>
	</g>
	<g>
		<path class="st0" d="M49.5,30.792c-0.205,0-0.397-0.127-0.471-0.332c-0.093-0.26,0.043-0.546,0.303-0.639l7-2.5
			c0.261-0.093,0.546,0.043,0.639,0.303s-0.043,0.546-0.303,0.639l-7,2.5C49.612,30.783,49.556,30.792,49.5,30.792z"/>
	</g>
	<g>
		<path class="st0" d="M49.5,40.792c-0.205,0-0.397-0.127-0.471-0.332c-0.093-0.26,0.043-0.546,0.303-0.639l7-2.5
			c0.261-0.094,0.546,0.043,0.639,0.303s-0.043,0.546-0.303,0.639l-7,2.5C49.612,40.783,49.556,40.792,49.5,40.792z"/>
	</g>
	<g>
		<path class="st0" d="M49.5,45.792c-0.205,0-0.397-0.127-0.471-0.332c-0.093-0.26,0.043-0.546,0.303-0.639l7-2.5
			c0.261-0.094,0.546,0.043,0.639,0.303s-0.043,0.546-0.303,0.639l-7,2.5C49.612,45.783,49.556,45.792,49.5,45.792z"/>
	</g>
	<g>
		<path class="st0" d="M49.5,50.792c-0.205,0-0.397-0.127-0.471-0.332c-0.093-0.26,0.043-0.546,0.303-0.639l7-2.5
			c0.261-0.094,0.546,0.043,0.639,0.303s-0.043,0.546-0.303,0.639l-7,2.5C49.612,50.783,49.556,50.792,49.5,50.792z"/>
	</g>
	<g>
		<path class="st0" d="M5.5,44.792h-4c-0.827,0-1.5-0.673-1.5-1.5v-8c0-0.827,0.673-1.5,1.5-1.5h4c0.276,0,0.5,0.224,0.5,0.5
			s-0.224,0.5-0.5,0.5h-4c-0.276,0-0.5,0.224-0.5,0.5v8c0,0.276,0.224,0.5,0.5,0.5h4c0.276,0,0.5,0.224,0.5,0.5
			S5.776,44.792,5.5,44.792z"/>
	</g>
	<g>
		<path class="st0" d="M62.5,44.792h-3c-0.276,0-0.5-0.224-0.5-0.5s0.224-0.5,0.5-0.5h3c0.275,0,0.5-0.224,0.5-0.5v-8
			c0-0.276-0.225-0.5-0.5-0.5h-3c-0.276,0-0.5-0.224-0.5-0.5s0.224-0.5,0.5-0.5h3c0.827,0,1.5,0.673,1.5,1.5v8
			C64,44.119,63.327,44.792,62.5,44.792z"/>
	</g>
	<g>
		<path class="st0" d="M32.5,50.792h-7c-0.276,0-0.5-0.224-0.5-0.5v-22c0-0.276,0.224-0.5,0.5-0.5h7c0.276,0,0.5,0.224,0.5,0.5v22
			C33,50.568,32.776,50.792,32.5,50.792z M26,49.792h6v-21h-6V49.792z"/>
	</g>
	<g>
		<path class="st0" d="M47.5,34.792h-6c-0.276,0-0.5-0.224-0.5-0.5s0.224-0.5,0.5-0.5h6c0.276,0,0.5,0.224,0.5,0.5
			S47.776,34.792,47.5,34.792z"/>
	</g>
	<g>
		<path class="st0" d="M47.5,44.792h-6c-0.276,0-0.5-0.224-0.5-0.5s0.224-0.5,0.5-0.5h6c0.276,0,0.5,0.224,0.5,0.5
			S47.776,44.792,47.5,44.792z"/>
	</g>
	<g>
		<path class="st0" d="M18.5,7.042c-0.276,0-0.5-0.224-0.5-0.5v-4c0-0.276,0.224-0.5,0.5-0.5s0.5,0.224,0.5,0.5v4
			C19,6.818,18.776,7.042,18.5,7.042z"/>
	</g>
	<g>
		<path class="st0" d="M20.5,5.042h-4c-0.276,0-0.5-0.224-0.5-0.5s0.224-0.5,0.5-0.5h4c0.276,0,0.5,0.224,0.5,0.5
			S20.776,5.042,20.5,5.042z"/>
	</g>
	<g>
		<path class="st0" d="M12,14.042c-0.276,0-0.5-0.224-0.5-0.5v-4c0-0.276,0.224-0.5,0.5-0.5s0.5,0.224,0.5,0.5v4
			C12.5,13.818,12.276,14.042,12,14.042z"/>
	</g>
	<g>
		<path class="st0" d="M14,12.042h-4c-0.276,0-0.5-0.224-0.5-0.5s0.224-0.5,0.5-0.5h4c0.276,0,0.5,0.224,0.5,0.5
			S14.276,12.042,14,12.042z"/>
	</g>
</g>
</svg>
