<?xml version="1.0" encoding="utf-8"?>
<!-- Generator: Adobe Illustrator 21.1.0, SVG Export Plug-In . SVG Version: 6.00 Build 0)  -->
<svg version="1.1" id="Icon_Set" xmlns="http://www.w3.org/2000/svg" xmlns:xlink="http://www.w3.org/1999/xlink" x="0px" y="0px"
	 viewBox="0 0 64 64" style="enable-background:new 0 0 64 64;" xml:space="preserve">
<style type="text/css">
	.st0{fill:#263238;}
	.st1{fill:#FF5252;}
	.st2{fill:#FFD740;}
	.st3{fill:#40C4FF;}
	.st4{fill:#FFFFFF;}
	.st5{fill:#4DB6AC;}
	.st6{fill:#4FC3F7;}
</style>
<g id="Door_Ajar_1_">
	<g>
		<path class="st0" d="M36.25,60.5h-17c-4.411,0-8-3.589-8-8v-36c0-7.168,5.832-13,13-13h7c7.168,0,13,5.832,13,13v36
			C44.25,56.911,40.661,60.5,36.25,60.5z M24.25,4.5c-6.617,0-12,5.383-12,12v36c0,3.859,3.14,7,7,7h17c3.86,0,7-3.141,7-7v-36
			c0-6.617-5.383-12-12-12H24.25z"/>
	</g>
	<g>
		<path class="st0" d="M11.75,23c-0.083,0-0.167-0.021-0.242-0.062c-0.159-0.088-0.258-0.256-0.258-0.438v-6c0-7.168,5.832-13,13-13
			h7c7.168,0,13,5.832,13,13v6c0,0.182-0.099,0.35-0.258,0.438c-0.16,0.089-0.354,0.084-0.508-0.015l-0.104-0.065
			c-9.494-5.93-21.765-5.931-31.26,0.001l-0.104,0.065C11.935,22.975,11.842,23,11.75,23z M24.25,4.5c-6.617,0-12,5.383-12,12v5.109
			c9.5-5.598,21.501-5.6,31,0V16.5c0-6.617-5.383-12-12-12H24.25z"/>
	</g>
	<g>
		<path class="st0" d="M40.75,18.045c-0.276,0-0.5-0.224-0.5-0.5V16.5c0-4.963-4.038-9-9-9c-0.276,0-0.5-0.224-0.5-0.5
			s0.224-0.5,0.5-0.5c5.514,0,10,4.486,10,10v1.045C41.25,17.821,41.026,18.045,40.75,18.045z"/>
	</g>
	<g>
		<path class="st0" d="M36.25,60.5h-17c-2.083,0-4.058-0.801-5.56-2.255c-0.196-0.189-0.204-0.5-0.019-0.699l4.62-4.974
			c0.181-0.197,0.482-0.215,0.687-0.044C19.348,52.837,19.788,53,20.25,53h15c0.462,0,0.902-0.163,1.272-0.472
			c0.204-0.17,0.506-0.151,0.687,0.044l4.62,4.974c0.186,0.199,0.177,0.51-0.019,0.699C40.308,59.699,38.333,60.5,36.25,60.5z
			 M14.749,57.854c1.262,1.064,2.842,1.646,4.501,1.646h17c1.659,0,3.24-0.581,4.501-1.646l-3.977-4.281
			C36.311,53.854,35.792,54,35.25,54h-15c-0.542,0-1.061-0.146-1.524-0.427L14.749,57.854z"/>
	</g>
	<g>
		<path class="st0" d="M37.438,29.312c-0.024,0-0.047-0.002-0.071-0.005c-0.156-0.022-0.292-0.117-0.368-0.256
			C36.645,28.403,35.975,28,35.25,28h-15c-0.725,0-1.395,0.403-1.749,1.052c-0.075,0.139-0.211,0.233-0.368,0.256
			c-0.155,0.02-0.313-0.029-0.425-0.142l-6.312-6.312c-0.108-0.107-0.161-0.259-0.143-0.41c0.017-0.151,0.102-0.286,0.231-0.367
			l0.104-0.065c9.817-6.133,22.504-6.133,32.322,0l0.105,0.066c0.129,0.081,0.214,0.216,0.231,0.367
			c0.017,0.151-0.036,0.302-0.144,0.409l-6.312,6.312C37.697,29.261,37.569,29.312,37.438,29.312z M20.25,27h15
			c0.874,0,1.692,0.386,2.255,1.037l5.444-5.443c-9.288-5.578-21.108-5.579-30.398,0l5.443,5.443C18.558,27.386,19.376,27,20.25,27z
			"/>
	</g>
	<g>
		<path class="st0" d="M17.75,41.5h-6c-0.276,0-0.5-0.224-0.5-0.5s0.224-0.5,0.5-0.5h6c0.276,0,0.5,0.224,0.5,0.5
			S18.026,41.5,17.75,41.5z"/>
	</g>
	<g>
		<path class="st0" d="M43.75,41.5h-6c-0.276,0-0.5-0.224-0.5-0.5s0.224-0.5,0.5-0.5h6c0.276,0,0.5,0.224,0.5,0.5
			S44.026,41.5,43.75,41.5z"/>
	</g>
	<g>
		<path class="st0" d="M35.25,54h-15c-1.654,0-3-1.346-3-3V30c0-1.654,1.346-3,3-3h15c1.654,0,3,1.346,3,3v21
			C38.25,52.654,36.904,54,35.25,54z M20.25,28c-1.103,0-2,0.897-2,2v21c0,1.103,0.897,2,2,2h15c1.103,0,2-0.897,2-2V30
			c0-1.103-0.897-2-2-2H20.25z"/>
	</g>
	<g>
		<path class="st0" d="M32.75,36h-10c-0.827,0-1.5-0.673-1.5-1.5v-3c0-0.827,0.673-1.5,1.5-1.5h10c0.827,0,1.5,0.673,1.5,1.5v3
			C34.25,35.327,33.577,36,32.75,36z M22.75,31c-0.276,0-0.5,0.225-0.5,0.5v3c0,0.275,0.224,0.5,0.5,0.5h10
			c0.276,0,0.5-0.225,0.5-0.5v-3c0-0.275-0.224-0.5-0.5-0.5H22.75z"/>
	</g>
	<g>
		<path class="st1" d="M45.75,29.638l8.861,10.338c0.296,0.346,0.717,0.523,1.139,0.523c0.346,0,0.693-0.119,0.976-0.361
			c0.629-0.539,0.702-1.486,0.163-2.115L45.75,25.028"/>
		<path class="st0" d="M55.75,41c-0.585,0-1.139-0.255-1.519-0.698l-8.861-10.338c-0.18-0.209-0.156-0.525,0.054-0.705
			c0.209-0.177,0.525-0.154,0.705,0.055l8.861,10.338c0.345,0.401,1.004,0.453,1.41,0.107c0.203-0.174,0.326-0.416,0.346-0.683
			s-0.064-0.524-0.238-0.728L45.371,25.354c-0.18-0.209-0.156-0.525,0.054-0.705c0.209-0.178,0.525-0.154,0.705,0.055l11.139,12.995
			c0.348,0.405,0.517,0.922,0.476,1.455c-0.041,0.532-0.287,1.018-0.693,1.365C56.689,40.829,56.227,41,55.75,41z"/>
	</g>
	<g>
		<path class="st0" d="M6.75,33.5c-0.276,0-0.5-0.224-0.5-0.5v-2c0-0.276,0.224-0.5,0.5-0.5s0.5,0.224,0.5,0.5v2
			C7.25,33.276,7.026,33.5,6.75,33.5z"/>
	</g>
	<g>
		<path class="st0" d="M6.75,55.5c-0.276,0-0.5-0.224-0.5-0.5V35c0-0.276,0.224-0.5,0.5-0.5s0.5,0.224,0.5,0.5v20
			C7.25,55.276,7.026,55.5,6.75,55.5z"/>
	</g>
</g>
</svg>
