<?xml version="1.0" encoding="utf-8"?>
<!-- Generator: Adobe Illustrator 21.1.0, SVG Export Plug-In . SVG Version: 6.00 Build 0)  -->
<svg version="1.1" id="Icon_Set" xmlns="http://www.w3.org/2000/svg" xmlns:xlink="http://www.w3.org/1999/xlink" x="0px" y="0px"
	 viewBox="0 0 64 64" style="enable-background:new 0 0 64 64;" xml:space="preserve">
<style type="text/css">
	.st0{fill:#263238;}
	.st1{fill:#FF5252;}
	.st2{fill:#FFD740;}
	.st3{fill:#40C4FF;}
	.st4{fill:#FFFFFF;}
	.st5{fill:#4DB6AC;}
	.st6{fill:#4FC3F7;}
</style>
<g id="Electric_Car">
	<g>
		<path class="st0" d="M44.242,9h-1c-0.276,0-0.5-0.224-0.5-0.5s0.224-0.5,0.5-0.5h1c0.276,0,0.5,0.224,0.5,0.5S44.519,9,44.242,9z"
			/>
	</g>
	<g>
		<path class="st0" d="M58.242,9h-12c-0.276,0-0.5-0.224-0.5-0.5s0.224-0.5,0.5-0.5h12c0.276,0,0.5,0.224,0.5,0.5S58.519,9,58.242,9
			z"/>
	</g>
	<g>
		<path class="st0" d="M63.5,6h-12C51.224,6,51,5.776,51,5.5S51.224,5,51.5,5h12C63.776,5,64,5.224,64,5.5S63.776,6,63.5,6z"/>
	</g>
	<g>
		<path class="st2" d="M58.593,40h3l1.45-4.351c0.315-0.946-0.114-1.979-1.007-2.423L61.582,33l-0.667-3.182
			c-0.42-2.004-2.02-3.549-4.037-3.899L48.719,24.5l-11.625-9.39C36.204,14.392,35.095,14,33.952,14H13.779
			c-1.607,0-3.117,0.773-4.057,2.077L5.094,22.5H1.86c-0.777,0-1.257,0.848-0.857,1.514L3.094,27.5V33h0
			c-1.287,0-2.246,1.186-1.976,2.445L2.094,40h3"/>
		<path class="st0" d="M61.593,40.5h-3c-0.276,0-0.5-0.224-0.5-0.5s0.224-0.5,0.5-0.5h2.64l1.337-4.009
			c0.235-0.705-0.09-1.486-0.755-1.816l-0.455-0.228c-0.137-0.067-0.235-0.195-0.267-0.345l-0.667-3.182
			c-0.381-1.813-1.808-3.191-3.634-3.51l-8.159-1.419c-0.083-0.014-0.162-0.05-0.229-0.104l-11.625-9.39
			c-0.799-0.645-1.803-0.999-2.828-0.999H13.778c-1.441,0-2.807,0.699-3.651,1.87l-4.628,6.422C5.405,22.923,5.255,23,5.094,23
			H1.859c-0.263,0-0.392,0.178-0.435,0.254s-0.129,0.278,0.006,0.504l2.092,3.485c0.047,0.077,0.071,0.166,0.071,0.257V33
			c0,0.276-0.224,0.5-0.5,0.5c-0.462,0-0.893,0.206-1.184,0.564c-0.29,0.359-0.4,0.824-0.304,1.275l0.892,4.16h2.596
			c0.276,0,0.5,0.224,0.5,0.5s-0.224,0.5-0.5,0.5h-3c-0.235,0-0.439-0.165-0.489-0.396l-0.977-4.556
			c-0.16-0.748,0.024-1.518,0.505-2.112c0.374-0.463,0.89-0.772,1.461-0.887v-4.911l-2.021-3.367
			c-0.281-0.469-0.288-1.034-0.019-1.511S1.312,22,1.859,22h2.979l4.479-6.215c1.031-1.431,2.7-2.285,4.462-2.285h20.173
			c1.253,0,2.48,0.434,3.456,1.222l11.524,9.308l8.032,1.397c2.231,0.389,3.975,2.072,4.44,4.289l0.617,2.944l0.238,0.119
			c1.108,0.55,1.649,1.853,1.259,3.028l-1.451,4.351C61.999,40.362,61.808,40.5,61.593,40.5z"/>
	</g>
	<g>
		<path class="st0" d="M41.593,40.5H22.094c-0.276,0-0.5-0.224-0.5-0.5s0.224-0.5,0.5-0.5h19.499c0.276,0,0.5,0.224,0.5,0.5
			S41.869,40.5,41.593,40.5z"/>
	</g>
	<g>
		<circle class="st4" cx="50.093" cy="37.5" r="6.5"/>
		<path class="st0" d="M50.093,44.5c-3.859,0-7-3.141-7-7s3.141-7,7-7s7,3.141,7,7S53.952,44.5,50.093,44.5z M50.093,31.5
			c-3.309,0-6,2.691-6,6s2.691,6,6,6s6-2.691,6-6S53.401,31.5,50.093,31.5z"/>
	</g>
	<g>
		<path class="st0" d="M50.093,41.5c-2.206,0-4-1.794-4-4s1.794-4,4-4s4,1.794,4,4S52.299,41.5,50.093,41.5z M50.093,34.5
			c-1.654,0-3,1.346-3,3s1.346,3,3,3s3-1.346,3-3S51.747,34.5,50.093,34.5z"/>
	</g>
	<g>
		<circle class="st4" cx="13.594" cy="37.5" r="6.5"/>
		<path class="st0" d="M13.594,44.5c-3.859,0-7-3.141-7-7s3.141-7,7-7s7,3.141,7,7S17.453,44.5,13.594,44.5z M13.594,31.5
			c-3.309,0-6,2.691-6,6s2.691,6,6,6s6-2.691,6-6S16.902,31.5,13.594,31.5z"/>
	</g>
	<g>
		<path class="st0" d="M13.594,41.5c-2.206,0-4-1.794-4-4s1.794-4,4-4s4,1.794,4,4S15.8,41.5,13.594,41.5z M13.594,34.5
			c-1.654,0-3,1.346-3,3s1.346,3,3,3s3-1.346,3-3S15.248,34.5,13.594,34.5z"/>
	</g>
	<g>
		<path class="st4" d="M15.485,18.122l-1.125,3c-0.613,1.634,0.595,3.378,2.341,3.378h32.018l-9.905-8H17.826
			C16.784,16.5,15.851,17.147,15.485,18.122z"/>
		<path class="st0" d="M48.719,25H16.701c-0.984,0-1.906-0.482-2.466-1.291c-0.561-0.809-0.688-1.842-0.343-2.763l1.124-3l0,0
			C15.453,16.782,16.582,16,17.826,16h20.987c0.114,0,0.226,0.039,0.314,0.111l9.905,8c0.165,0.133,0.228,0.355,0.157,0.556
			C49.119,24.866,48.931,25,48.719,25z M15.952,18.298l-1.124,3c-0.233,0.623-0.15,1.294,0.229,1.842
			c0.379,0.547,0.979,0.86,1.645,0.86h30.603l-8.667-7H17.826C16.997,17,16.244,17.521,15.952,18.298L15.952,18.298z"/>
	</g>
	<g>
		<path class="st0" d="M47.719,29.95c-0.276,0-0.5-0.224-0.5-0.5V26.5c0-0.276,0.224-0.5,0.5-0.5s0.5,0.224,0.5,0.5v2.95
			C48.219,29.727,47.995,29.95,47.719,29.95z"/>
	</g>
	<g>
		<path class="st0" d="M27.593,38.5c-0.276,0-0.5-0.224-0.5-0.5V26.5c0-0.276,0.224-0.5,0.5-0.5s0.5,0.224,0.5,0.5V38
			C28.093,38.276,27.869,38.5,27.593,38.5z"/>
	</g>
	<g>
		<path class="st0" d="M27.593,25c-0.276,0-0.5-0.224-0.5-0.5v-8c0-0.276,0.224-0.5,0.5-0.5s0.5,0.224,0.5,0.5v8
			C28.093,24.776,27.869,25,27.593,25z"/>
	</g>
	<g>
		<path class="st0" d="M24.219,31h-2c-0.827,0-1.5-0.673-1.5-1.5v-2c0-0.827,0.673-1.5,1.5-1.5h2c0.827,0,1.5,0.673,1.5,1.5v2
			C25.719,30.327,25.046,31,24.219,31z M22.219,27c-0.275,0-0.5,0.225-0.5,0.5v2c0,0.275,0.225,0.5,0.5,0.5h2
			c0.275,0,0.5-0.225,0.5-0.5v-2c0-0.275-0.225-0.5-0.5-0.5H22.219z"/>
	</g>
	<g>
		<path class="st4" d="M61.582,33l-0.667-3.182c-0.06-0.284-0.148-0.555-0.253-0.818h-2.234c-0.743,0-1.227,0.782-0.894,1.447
			L58.81,33L61.582,33L61.582,33z"/>
		<path class="st0" d="M61.582,33.5H58.81c-0.189,0-0.362-0.107-0.447-0.276l-1.276-2.553c-0.234-0.469-0.209-1.015,0.066-1.46
			s0.752-0.711,1.275-0.711h2.234c0.205,0,0.39,0.125,0.465,0.315c0.126,0.319,0.217,0.613,0.277,0.9l0.667,3.182
			c0.031,0.147-0.006,0.301-0.102,0.418C61.875,33.432,61.732,33.5,61.582,33.5z M59.118,32.5h1.849l-0.541-2.579
			c-0.028-0.136-0.066-0.274-0.114-0.421h-1.884c-0.251,0-0.381,0.166-0.425,0.237s-0.135,0.262-0.022,0.486L59.118,32.5z"/>
	</g>
	<g>
		<path class="st0" d="M38.219,59.5h-22.25c-2.895,0-5.25-2.355-5.25-5.25S13.074,49,15.969,49h33.75c0.552,0,1-0.448,1-1
			s-0.448-1-1-1h-21.5c-3.032,0-5.5-2.468-5.5-5.5v-13c0-0.276,0.224-0.5,0.5-0.5s0.5,0.224,0.5,0.5v13c0,2.481,2.019,4.5,4.5,4.5
			h21.5c1.103,0,2,0.897,2,2s-0.897,2-2,2h-33.75c-2.344,0-4.25,1.906-4.25,4.25s1.906,4.25,4.25,4.25h22.25
			c0.276,0,0.5,0.224,0.5,0.5S38.495,59.5,38.219,59.5z"/>
	</g>
	<g>
		<path class="st0" d="M44.219,62.5h-3.5c-1.654,0-3-1.346-3-3v-1c0-1.654,1.346-3,3-3h3.5c0.276,0,0.5,0.224,0.5,0.5v6
			C44.719,62.276,44.495,62.5,44.219,62.5z M40.719,56.5c-1.103,0-2,0.897-2,2v1c0,1.103,0.897,2,2,2h3v-5H40.719z"/>
	</g>
	<g>
		<path class="st0" d="M47.219,57.5h-3c-0.276,0-0.5-0.224-0.5-0.5s0.224-0.5,0.5-0.5h3c0.276,0,0.5,0.224,0.5,0.5
			S47.495,57.5,47.219,57.5z"/>
	</g>
	<g>
		<path class="st0" d="M47.219,61.5h-3c-0.276,0-0.5-0.224-0.5-0.5s0.224-0.5,0.5-0.5h3c0.276,0,0.5,0.224,0.5,0.5
			S47.495,61.5,47.219,61.5z"/>
	</g>
	<g>
		<path class="st0" d="M1.5,14.5c-0.091,0-0.182-0.024-0.263-0.074c-0.197-0.122-0.285-0.364-0.212-0.584L2.807,8.5H0.5
			c-0.202,0-0.385-0.122-0.462-0.309S0.004,7.789,0.146,7.646l6-6c0.165-0.164,0.421-0.192,0.616-0.072
			C6.96,1.696,7.048,1.938,6.975,2.158L5.193,7.5H7.5c0.202,0,0.385,0.122,0.462,0.309s0.034,0.402-0.108,0.545l-6,6
			C1.757,14.45,1.629,14.5,1.5,14.5z M4,8.002c0,0.053-0.009,0.105-0.025,0.156l-1.33,3.99L6.293,8.5H4.5
			c-0.161,0-0.312-0.077-0.405-0.208C4.032,8.207,4,8.105,4,8.002z M1.707,7.5H3.5c0.161,0,0.312,0.077,0.405,0.208
			C3.968,7.793,4,7.895,4,7.998c0-0.053,0.009-0.105,0.025-0.156l1.33-3.99L1.707,7.5z"/>
	</g>
</g>
</svg>
