<?xml version="1.0" encoding="utf-8"?>
<!-- Generator: Adobe Illustrator 21.1.0, SVG Export Plug-In . SVG Version: 6.00 Build 0)  -->
<svg version="1.1" id="Icon_Set" xmlns="http://www.w3.org/2000/svg" xmlns:xlink="http://www.w3.org/1999/xlink" x="0px" y="0px"
	 viewBox="0 0 64 64" style="enable-background:new 0 0 64 64;" xml:space="preserve">
<style type="text/css">
	.st0{fill:#263238;}
	.st1{fill:#FF5252;}
	.st2{fill:#FFD740;}
	.st3{fill:#40C4FF;}
	.st4{fill:#FFFFFF;}
	.st5{fill:#4DB6AC;}
	.st6{fill:#4FC3F7;}
</style>
<g id="Electric_Service">
	<g>
		<path class="st0" d="M31,57.499h-8c-0.276,0-0.5-0.224-0.5-0.5s0.224-0.5,0.5-0.5h8c0.276,0,0.5,0.224,0.5,0.5
			S31.276,57.499,31,57.499z"/>
	</g>
	<g>
		<path class="st0" d="M42.5,57.499H35c-0.276,0-0.5-0.224-0.5-0.5s0.224-0.5,0.5-0.5h7.5c1.103,0,2-0.897,2-2v-49
			c0-1.103-0.897-2-2-2h-31c-1.103,0-2,0.897-2,2v49c0,1.103,0.897,2,2,2H19c0.276,0,0.5,0.224,0.5,0.5s-0.224,0.5-0.5,0.5h-7.5
			c-1.654,0-3-1.346-3-3v-49c0-1.654,1.346-3,3-3h31c1.654,0,3,1.346,3,3v49C45.5,56.153,44.154,57.499,42.5,57.499z"/>
	</g>
	<g>
		<path class="st3" d="M40,19.999H14c-0.552,0-1-0.448-1-1v-11c0-0.552,0.448-1,1-1h26c0.552,0,1,0.448,1,1v11
			C41,19.551,40.552,19.999,40,19.999z"/>
		<path class="st0" d="M40,20.499H14c-0.827,0-1.5-0.673-1.5-1.5v-11c0-0.827,0.673-1.5,1.5-1.5h26c0.827,0,1.5,0.673,1.5,1.5v11
			C41.5,19.826,40.827,20.499,40,20.499z M14,7.499c-0.276,0-0.5,0.225-0.5,0.5v11c0,0.275,0.224,0.5,0.5,0.5h26
			c0.275,0,0.5-0.225,0.5-0.5v-11c0-0.275-0.225-0.5-0.5-0.5H14z"/>
	</g>
	<g>
		<path class="st0" d="M27,44.499c-5.238,0-9.5-4.262-9.5-9.5s4.262-9.5,9.5-9.5s9.5,4.262,9.5,9.5S32.238,44.499,27,44.499z
			 M27,26.499c-4.687,0-8.5,3.813-8.5,8.5s3.813,8.5,8.5,8.5s8.5-3.813,8.5-8.5S31.687,26.499,27,26.499z"/>
	</g>
	<g>
		<path class="st0" d="M24.171,40.741c-0.384,0-0.768-0.146-1.061-0.438l-1.415-1.414c-0.584-0.585-0.584-1.537,0-2.122l7.072-7.07
			c0.585-0.584,1.536-0.584,2.121,0l1.415,1.414c0.584,0.585,0.584,1.536,0,2.121c0,0,0,0,0,0l-7.071,7.071
			C24.939,40.595,24.556,40.741,24.171,40.741z M29.828,30.257c-0.128,0-0.256,0.049-0.354,0.146l-7.071,7.07
			c-0.195,0.195-0.195,0.513,0,0.708l1.414,1.414c0.195,0.195,0.512,0.195,0.707,0l7.071-7.071c0.195-0.195,0.195-0.512,0-0.707
			l-1.414-1.414C30.084,30.306,29.956,30.257,29.828,30.257z M31.95,32.878h0.01H31.95z"/>
	</g>
	<g>
		<path class="st0" d="M18,17.499c-0.276,0-0.5-0.224-0.5-0.5v-6c0-0.276,0.224-0.5,0.5-0.5s0.5,0.224,0.5,0.5v6
			C18.5,17.275,18.276,17.499,18,17.499z"/>
	</g>
	<g>
		<path class="st0" d="M21,17.499c-0.276,0-0.5-0.224-0.5-0.5v-4c0-0.276,0.224-0.5,0.5-0.5s0.5,0.224,0.5,0.5v4
			C21.5,17.275,21.276,17.499,21,17.499z"/>
	</g>
	<g>
		<path class="st0" d="M24.5,17.499c-0.276,0-0.5-0.224-0.5-0.5v-4c0-0.276,0.224-0.5,0.5-0.5s0.5,0.224,0.5,0.5v4
			C25,17.275,24.776,17.499,24.5,17.499z"/>
	</g>
	<g>
		<path class="st0" d="M38.041,12.499h-8c-0.276,0-0.5-0.224-0.5-0.5v-2c0-0.276,0.224-0.5,0.5-0.5h8c0.276,0,0.5,0.224,0.5,0.5v2
			C38.541,12.275,38.317,12.499,38.041,12.499z M30.542,11.499h7v-1h-7V11.499z"/>
	</g>
	<g>
		<path class="st0" d="M38.041,17.499h-8c-0.276,0-0.5-0.224-0.5-0.5v-2c0-0.276,0.224-0.5,0.5-0.5h8c0.276,0,0.5,0.224,0.5,0.5v2
			C38.541,17.275,38.317,17.499,38.041,17.499z M30.542,16.499h7v-1h-7V16.499z"/>
	</g>
	<g>
		<path class="st0" d="M27,24.499c-0.276,0-0.5-0.224-0.5-0.5v-1c0-0.276,0.224-0.5,0.5-0.5s0.5,0.224,0.5,0.5v1
			C27.5,24.275,27.276,24.499,27,24.499z"/>
	</g>
	<g>
		<path class="st0" d="M27,47.499c-0.276,0-0.5-0.224-0.5-0.5v-1c0-0.276,0.224-0.5,0.5-0.5s0.5,0.224,0.5,0.5v1
			C27.5,47.275,27.276,47.499,27,47.499z"/>
	</g>
	<g>
		<path class="st0" d="M39,35.499h-1c-0.276,0-0.5-0.224-0.5-0.5s0.224-0.5,0.5-0.5h1c0.276,0,0.5,0.224,0.5,0.5
			S39.276,35.499,39,35.499z"/>
	</g>
	<g>
		<path class="st0" d="M16,35.499h-1c-0.276,0-0.5-0.224-0.5-0.5s0.224-0.5,0.5-0.5h1c0.276,0,0.5,0.224,0.5,0.5
			S16.276,35.499,16,35.499z"/>
	</g>
	<g>
		<path class="st0" d="M35.485,43.984c-0.128,0-0.256-0.049-0.354-0.146l-0.707-0.707c-0.195-0.195-0.195-0.512,0-0.707
			s0.512-0.195,0.707,0l0.707,0.707c0.195,0.195,0.195,0.512,0,0.707C35.741,43.936,35.613,43.984,35.485,43.984z"/>
	</g>
	<g>
		<path class="st0" d="M19.222,27.721c-0.128,0-0.256-0.049-0.354-0.146l-0.707-0.707c-0.195-0.195-0.195-0.512,0-0.707
			s0.512-0.195,0.707,0l0.707,0.707c0.195,0.195,0.195,0.512,0,0.707C19.478,27.672,19.35,27.721,19.222,27.721z"/>
	</g>
	<g>
		<path class="st0" d="M18.515,43.984c-0.128,0-0.256-0.049-0.354-0.146c-0.195-0.195-0.195-0.512,0-0.707l0.707-0.707
			c0.195-0.195,0.512-0.195,0.707,0s0.195,0.512,0,0.707l-0.707,0.707C18.771,43.936,18.643,43.984,18.515,43.984z"/>
	</g>
	<g>
		<path class="st0" d="M34.778,27.721c-0.128,0-0.256-0.049-0.354-0.146c-0.195-0.195-0.195-0.512,0-0.707l0.707-0.707
			c0.195-0.195,0.512-0.195,0.707,0s0.195,0.512,0,0.707l-0.707,0.707C35.034,27.672,34.906,27.721,34.778,27.721z"/>
	</g>
	<g>
		<path class="st0" d="M21,53.999c-1.378,0-2.5-1.121-2.5-2.5s1.122-2.5,2.5-2.5s2.5,1.121,2.5,2.5S22.378,53.999,21,53.999z
			 M21,49.999c-0.827,0-1.5,0.673-1.5,1.5s0.673,1.5,1.5,1.5s1.5-0.673,1.5-1.5S21.827,49.999,21,49.999z"/>
	</g>
	<g>
		<path class="st0" d="M33,53.999c-1.378,0-2.5-1.121-2.5-2.5s1.122-2.5,2.5-2.5c1.379,0,2.5,1.121,2.5,2.5S34.379,53.999,33,53.999
			z M33,49.999c-0.827,0-1.5,0.673-1.5,1.5s0.673,1.5,1.5,1.5s1.5-0.673,1.5-1.5S33.827,49.999,33,49.999z"/>
	</g>
	<g>
		<path class="st0" d="M48.5,63.499h-25c-1.654,0-3-1.346-3-3v-7c0-0.276,0.224-0.5,0.5-0.5s0.5,0.224,0.5,0.5v7
			c0,1.103,0.897,2,2,2h25c1.103,0,2-0.897,2-2v-18.5c0-0.276,0.224-0.5,0.5-0.5s0.5,0.224,0.5,0.5v18.5
			C51.5,62.153,50.154,63.499,48.5,63.499z"/>
	</g>
	<g>
		<path class="st1" d="M52,39.999h-2c-0.552,0-1-0.448-1-1v-11h4v11C53,39.551,52.552,39.999,52,39.999z"/>
		<path class="st0" d="M52,40.499h-2c-0.827,0-1.5-0.673-1.5-1.5v-11c0-0.276,0.224-0.5,0.5-0.5h4c0.276,0,0.5,0.224,0.5,0.5v11
			C53.5,39.826,52.827,40.499,52,40.499z M49.5,28.499v10.5c0,0.275,0.225,0.5,0.5,0.5h2c0.275,0,0.5-0.225,0.5-0.5v-10.5H49.5z"/>
	</g>
	<g>
		<path class="st0" d="M51,28.499c-0.276,0-0.5-0.224-0.5-0.5v-6.5c0-0.276,0.224-0.5,0.5-0.5s0.5,0.224,0.5,0.5v6.5
			C51.5,28.275,51.276,28.499,51,28.499z"/>
	</g>
	<g>
		<path class="st0" d="M53,37.499h-4c-0.276,0-0.5-0.224-0.5-0.5s0.224-0.5,0.5-0.5h4c0.276,0,0.5,0.224,0.5,0.5
			S53.276,37.499,53,37.499z"/>
	</g>
	<g>
		<path class="st0" d="M56.5,60.499h-21c-1.654,0-3-1.346-3-3v-4c0-0.276,0.224-0.5,0.5-0.5s0.5,0.224,0.5,0.5v4
			c0,1.103,0.897,2,2,2h21c1.103,0,2-0.897,2-2v-18c0-0.276,0.224-0.5,0.5-0.5s0.5,0.224,0.5,0.5v18
			C59.5,59.153,58.154,60.499,56.5,60.499z"/>
	</g>
	<g>
		<path class="st1" d="M60,37.499h-2c-0.552,0-1-0.448-1-1v-11h4v11C61,37.051,60.552,37.499,60,37.499z"/>
		<path class="st0" d="M60,37.999h-2c-0.827,0-1.5-0.673-1.5-1.5v-11c0-0.276,0.224-0.5,0.5-0.5h4c0.276,0,0.5,0.224,0.5,0.5v11
			C61.5,37.326,60.827,37.999,60,37.999z M57.5,25.999v10.5c0,0.275,0.225,0.5,0.5,0.5h2c0.275,0,0.5-0.225,0.5-0.5v-10.5H57.5z"/>
	</g>
	<g>
		<path class="st0" d="M59,25.999c-0.276,0-0.5-0.224-0.5-0.5v-6.5c0-0.276,0.224-0.5,0.5-0.5s0.5,0.224,0.5,0.5v6.5
			C59.5,25.775,59.276,25.999,59,25.999z"/>
	</g>
	<g>
		<path class="st0" d="M61,34.999h-4c-0.276,0-0.5-0.224-0.5-0.5s0.224-0.5,0.5-0.5h4c0.276,0,0.5,0.224,0.5,0.5
			S61.276,34.999,61,34.999z"/>
	</g>
	<g>
		<path class="st0" d="M60,5.499c-0.276,0-0.5-0.224-0.5-0.5v-4c0-0.276,0.224-0.5,0.5-0.5s0.5,0.224,0.5,0.5v4
			C60.5,5.275,60.276,5.499,60,5.499z"/>
	</g>
	<g>
		<path class="st0" d="M62,3.499h-4c-0.276,0-0.5-0.224-0.5-0.5s0.224-0.5,0.5-0.5h4c0.276,0,0.5,0.224,0.5,0.5
			S62.276,3.499,62,3.499z"/>
	</g>
	<g>
		<path class="st0" d="M53.5,12.499c-0.276,0-0.5-0.224-0.5-0.5v-4c0-0.276,0.224-0.5,0.5-0.5s0.5,0.224,0.5,0.5v4
			C54,12.275,53.776,12.499,53.5,12.499z"/>
	</g>
	<g>
		<path class="st0" d="M55.5,10.499h-4c-0.276,0-0.5-0.224-0.5-0.5s0.224-0.5,0.5-0.5h4c0.276,0,0.5,0.224,0.5,0.5
			S55.776,10.499,55.5,10.499z"/>
	</g>
	<g>
		<path class="st0" d="M2.984,60.499H2c-0.276,0-0.5-0.224-0.5-0.5s0.224-0.5,0.5-0.5h0.984c0.276,0,0.5,0.224,0.5,0.5
			S3.261,60.499,2.984,60.499z"/>
	</g>
	<g>
		<path class="st0" d="M17.211,60.499H4.953c-0.276,0-0.5-0.224-0.5-0.5s0.224-0.5,0.5-0.5h12.258c0.276,0,0.5,0.224,0.5,0.5
			S17.487,60.499,17.211,60.499z"/>
	</g>
</g>
</svg>
