<?xml version="1.0" encoding="utf-8"?>
<!-- Generator: Adobe Illustrator 21.1.0, SVG Export Plug-In . SVG Version: 6.00 Build 0)  -->
<svg version="1.1" id="Icon_Set" xmlns="http://www.w3.org/2000/svg" xmlns:xlink="http://www.w3.org/1999/xlink" x="0px" y="0px"
	 viewBox="0 0 64 64" style="enable-background:new 0 0 64 64;" xml:space="preserve">
<style type="text/css">
	.st0{fill:#263238;}
	.st1{fill:#FF5252;}
	.st2{fill:#FFD740;}
	.st3{fill:#40C4FF;}
	.st4{fill:#FFFFFF;}
	.st5{fill:#4DB6AC;}
	.st6{fill:#4FC3F7;}
</style>
<g id="Engine_Fan">
	<g>
		<g>
			<path class="st2" d="M32,44.167c-0.718,0-1.418-0.074-2.101-0.195l-2.96,8.879c-0.216,0.648,0.266,1.316,0.949,1.316H31.5
				c2.761,0,5-2.239,5-5v-5.88C35.109,43.85,33.593,44.167,32,44.167z"/>
		</g>
		<g>
			<path class="st2" d="M32,20.167c0.718,0,1.418,0.074,2.101,0.195l2.96-8.879c0.216-0.648-0.266-1.316-0.949-1.316H32.5
				c-2.761,0-5,2.239-5,5v5.88C28.891,20.484,30.407,20.167,32,20.167z"/>
		</g>
	</g>
	<g>
		<g>
			<path class="st0" d="M31.5,54.667h-3.612c-0.488,0-0.932-0.227-1.217-0.623c-0.286-0.396-0.361-0.889-0.207-1.352l2.96-8.879
				c0.089-0.262,0.372-0.401,0.633-0.316c0.262,0.087,0.403,0.37,0.316,0.632l-2.96,8.879c-0.052,0.154-0.026,0.318,0.068,0.45
				c0.096,0.132,0.243,0.208,0.406,0.208H31.5c2.481,0,4.5-2.019,4.5-4.5v-5.881c0-0.276,0.224-0.5,0.5-0.5s0.5,0.224,0.5,0.5v5.881
				C37,52.2,34.532,54.667,31.5,54.667z"/>
		</g>
		<g>
			<path class="st0" d="M27.5,21.547c-0.276,0-0.5-0.224-0.5-0.5v-5.88c0-3.033,2.468-5.5,5.5-5.5h3.612
				c0.488,0,0.932,0.227,1.218,0.623c0.285,0.396,0.36,0.888,0.206,1.351l-2.96,8.879c-0.088,0.262-0.369,0.403-0.633,0.316
				c-0.262-0.087-0.403-0.37-0.316-0.632l2.96-8.879c0.052-0.154,0.026-0.318-0.068-0.45c-0.096-0.132-0.243-0.208-0.406-0.208H32.5
				c-2.481,0-4.5,2.019-4.5,4.5v5.88C28,21.324,27.776,21.547,27.5,21.547z"/>
		</g>
	</g>
	<g>
		<g>
			<path class="st2" d="M20,32.167c0-0.718,0.074-1.418,0.195-2.101l-8.879-2.96C10.669,26.89,10,27.372,10,28.054v3.613
				c0,2.761,2.239,5,5,5h5.88C20.317,35.276,20,33.76,20,32.167z"/>
		</g>
		<g>
			<path class="st2" d="M44,32.167c0,0.718-0.074,1.418-0.195,2.101l8.879,2.96C53.331,37.444,54,36.962,54,36.279v-3.613
				c0-2.761-2.239-5-5-5h-5.88C43.683,29.057,44,30.574,44,32.167z"/>
		</g>
	</g>
	<g>
		<g>
			<path class="st0" d="M20.881,37.167H15c-3.032,0-5.5-2.467-5.5-5.5v-3.613c0-0.488,0.228-0.932,0.623-1.217
				c0.396-0.286,0.889-0.361,1.352-0.206l8.879,2.96c0.262,0.087,0.403,0.37,0.316,0.632c-0.088,0.262-0.371,0.405-0.633,0.316
				l-8.879-2.96c-0.156-0.051-0.319-0.026-0.45,0.069c-0.132,0.095-0.208,0.243-0.208,0.406v3.613c0,2.481,2.019,4.5,4.5,4.5h5.881
				c0.276,0,0.5,0.224,0.5,0.5S21.157,37.167,20.881,37.167z"/>
		</g>
		<g>
			<path class="st0" d="M53.005,37.781c-0.16,0-0.321-0.026-0.479-0.079l-8.879-2.96c-0.262-0.087-0.403-0.37-0.316-0.632
				c0.088-0.262,0.371-0.403,0.633-0.316l8.879,2.96c0.155,0.049,0.318,0.025,0.45-0.069c0.132-0.095,0.208-0.243,0.208-0.406
				v-3.612c0-2.481-2.019-4.5-4.5-4.5h-5.881c-0.276,0-0.5-0.224-0.5-0.5s0.224-0.5,0.5-0.5H49c3.032,0,5.5,2.467,5.5,5.5v3.612
				c0,0.488-0.228,0.932-0.623,1.217C53.616,37.684,53.313,37.781,53.005,37.781z"/>
		</g>
	</g>
	<g>
		<g>
			<path class="st2" d="M23.515,23.682c0.508-0.508,1.055-0.95,1.624-1.348l-4.186-8.371c-0.305-0.611-1.119-0.743-1.602-0.26
				l-2.554,2.554c-1.953,1.953-1.953,5.118,0,7.071l4.158,4.158C21.54,26.105,22.389,24.808,23.515,23.682z"/>
		</g>
		<g>
			<path class="st2" d="M40.485,40.652c-0.508,0.508-1.055,0.95-1.624,1.348l4.186,8.371c0.305,0.611,1.119,0.743,1.602,0.26
				l2.554-2.554c1.953-1.953,1.953-5.118,0-7.071l-4.158-4.158C42.46,38.229,41.611,39.526,40.485,40.652z"/>
		</g>
	</g>
	<g>
		<g>
			<path class="st0" d="M20.955,27.986c-0.128,0-0.256-0.049-0.354-0.146l-4.158-4.158c-2.144-2.145-2.144-5.634,0-7.778
				l2.555-2.554c0.344-0.345,0.819-0.501,1.301-0.42c0.482,0.078,0.884,0.374,1.102,0.81l4.186,8.371
				c0.123,0.247,0.023,0.547-0.224,0.671c-0.247,0.122-0.547,0.024-0.671-0.224l-4.186-8.372c-0.072-0.146-0.206-0.244-0.367-0.27
				c-0.158-0.024-0.317,0.025-0.434,0.14L17.15,16.61c-1.754,1.754-1.754,4.61,0,6.364l4.158,4.158c0.195,0.195,0.195,0.512,0,0.707
				C21.211,27.938,21.083,27.986,20.955,27.986z"/>
		</g>
		<g>
			<path class="st0" d="M43.947,51.425c-0.081,0-0.164-0.007-0.247-0.02c-0.481-0.079-0.883-0.374-1.101-0.811l-4.186-8.371
				c-0.123-0.247-0.023-0.547,0.224-0.671c0.248-0.122,0.546-0.023,0.671,0.224l4.186,8.371c0.072,0.146,0.206,0.244,0.367,0.27
				c0.16,0.026,0.318-0.025,0.434-0.14l2.555-2.555c1.754-1.754,1.754-4.609,0-6.364l-4.158-4.158c-0.195-0.195-0.195-0.512,0-0.707
				s0.512-0.195,0.707,0l4.158,4.158c2.144,2.145,2.144,5.633,0,7.778l-2.555,2.555C44.716,51.271,44.342,51.425,43.947,51.425z"/>
		</g>
	</g>
	<g>
		<g>
			<path class="st2" d="M40.485,23.682c0.508,0.508,0.95,1.055,1.348,1.624l8.371-4.186c0.611-0.305,0.743-1.119,0.26-1.602
				l-2.554-2.554c-1.953-1.953-5.118-1.953-7.071,0l-4.158,4.158C38.062,21.707,39.359,22.555,40.485,23.682z"/>
		</g>
		<g>
			<path class="st2" d="M23.515,40.652c-0.508-0.508-0.95-1.055-1.348-1.624l-8.371,4.186c-0.611,0.305-0.743,1.119-0.26,1.602
				l2.554,2.554c1.953,1.953,5.118,1.953,7.071,0l4.158-4.158C25.938,42.627,24.641,41.778,23.515,40.652z"/>
		</g>
	</g>
	<g>
		<g>
			<path class="st0" d="M41.833,25.806c-0.183,0-0.359-0.101-0.447-0.276c-0.123-0.247-0.023-0.547,0.224-0.671l8.371-4.186
				c0.146-0.073,0.244-0.207,0.271-0.367s-0.024-0.318-0.14-0.434l-2.555-2.555C46.706,16.467,45.576,16,44.374,16
				s-2.332,0.468-3.182,1.318l-4.158,4.158c-0.195,0.195-0.512,0.195-0.707,0s-0.195-0.512,0-0.707l4.158-4.158
				C41.523,15.571,42.905,15,44.374,15c1.47,0,2.851,0.572,3.89,1.611l2.555,2.555c0.345,0.345,0.498,0.819,0.42,1.301
				c-0.078,0.481-0.374,0.883-0.811,1.101l-8.371,4.186C41.984,25.789,41.908,25.806,41.833,25.806z"/>
		</g>
		<g>
			<path class="st0" d="M19.626,49.334c-1.47,0-2.851-0.572-3.89-1.611l-2.555-2.554c-0.346-0.346-0.498-0.82-0.42-1.302
				c0.079-0.481,0.374-0.883,0.811-1.101l8.371-4.186c0.249-0.122,0.546-0.024,0.671,0.224c0.123,0.247,0.023,0.547-0.224,0.671
				l-8.371,4.186c-0.146,0.073-0.244,0.207-0.271,0.367c-0.026,0.161,0.024,0.319,0.14,0.434l2.555,2.554
				c0.851,0.85,1.98,1.318,3.183,1.318s2.332-0.468,3.182-1.318l4.158-4.158c0.195-0.195,0.512-0.195,0.707,0s0.195,0.512,0,0.707
				l-4.158,4.158C22.477,48.762,21.095,49.334,19.626,49.334z"/>
		</g>
	</g>
	<g>
		<path class="st3" d="M32,22.167c-5.523,0-10,4.477-10,10c0,5.523,4.477,10,10,10s10-4.477,10-10
			C42,26.644,37.523,22.167,32,22.167z M32,37.167c-2.761,0-5-2.239-5-5s2.239-5,5-5s5,2.239,5,5S34.761,37.167,32,37.167z"/>
		<path class="st0" d="M32,42.667c-5.79,0-10.5-4.71-10.5-10.5s4.71-10.5,10.5-10.5s10.5,4.71,10.5,10.5S37.79,42.667,32,42.667z
			 M32,22.667c-5.238,0-9.5,4.262-9.5,9.5s4.262,9.5,9.5,9.5s9.5-4.262,9.5-9.5S37.238,22.667,32,22.667z M32,37.667
			c-3.032,0-5.5-2.467-5.5-5.5s2.468-5.5,5.5-5.5s5.5,2.467,5.5,5.5S35.032,37.667,32,37.667z M32,27.667
			c-2.481,0-4.5,2.019-4.5,4.5s2.019,4.5,4.5,4.5s4.5-2.019,4.5-4.5S34.481,27.667,32,27.667z"/>
	</g>
	<g>
		<path class="st0" d="M4,32.667c-0.276,0-0.5-0.224-0.5-0.5c0-15.715,12.785-28.5,28.5-28.5c0.276,0,0.5,0.224,0.5,0.5
			s-0.224,0.5-0.5,0.5c-15.163,0-27.5,12.336-27.5,27.5C4.5,32.443,4.276,32.667,4,32.667z"/>
	</g>
	<g>
		<path class="st0" d="M35,4.667h-1c-0.276,0-0.5-0.224-0.5-0.5s0.224-0.5,0.5-0.5h1c0.276,0,0.5,0.224,0.5,0.5
			S35.276,4.667,35,4.667z"/>
	</g>
	<g>
		<path class="st0" d="M32,60.667c-0.276,0-0.5-0.224-0.5-0.5s0.224-0.5,0.5-0.5c15.163,0,27.5-12.336,27.5-27.5
			c0-0.276,0.224-0.5,0.5-0.5s0.5,0.224,0.5,0.5C60.5,47.882,47.715,60.667,32,60.667z"/>
	</g>
	<g>
		<path class="st0" d="M30,60.667h-1c-0.276,0-0.5-0.224-0.5-0.5s0.224-0.5,0.5-0.5h1c0.276,0,0.5,0.224,0.5,0.5
			S30.276,60.667,30,60.667z"/>
	</g>
	<g>
		<path class="st0" d="M7,52.667c-0.276,0-0.5-0.224-0.5-0.5v-4c0-0.276,0.224-0.5,0.5-0.5s0.5,0.224,0.5,0.5v4
			C7.5,52.443,7.276,52.667,7,52.667z"/>
	</g>
	<g>
		<path class="st0" d="M9,50.667H5c-0.276,0-0.5-0.224-0.5-0.5s0.224-0.5,0.5-0.5h4c0.276,0,0.5,0.224,0.5,0.5
			S9.276,50.667,9,50.667z"/>
	</g>
	<g>
		<path class="st0" d="M13.5,59.667c-0.276,0-0.5-0.224-0.5-0.5v-4c0-0.276,0.224-0.5,0.5-0.5s0.5,0.224,0.5,0.5v4
			C14,59.443,13.776,59.667,13.5,59.667z"/>
	</g>
	<g>
		<path class="st0" d="M15.5,57.667h-4c-0.276,0-0.5-0.224-0.5-0.5s0.224-0.5,0.5-0.5h4c0.276,0,0.5,0.224,0.5,0.5
			S15.776,57.667,15.5,57.667z"/>
	</g>
	<g>
		<path class="st0" d="M32,27.667c-0.276,0-0.5-0.224-0.5-0.5v-2c0-0.276,0.224-0.5,0.5-0.5s0.5,0.224,0.5,0.5v2
			C32.5,27.443,32.276,27.667,32,27.667z"/>
	</g>
	<g>
		<path class="st0" d="M32,39.667c-0.276,0-0.5-0.224-0.5-0.5v-2c0-0.276,0.224-0.5,0.5-0.5s0.5,0.224,0.5,0.5v2
			C32.5,39.443,32.276,39.667,32,39.667z"/>
	</g>
	<g>
		<path class="st0" d="M39,32.667h-2c-0.276,0-0.5-0.224-0.5-0.5s0.224-0.5,0.5-0.5h2c0.276,0,0.5,0.224,0.5,0.5
			S39.276,32.667,39,32.667z"/>
	</g>
	<g>
		<path class="st0" d="M27,32.667h-2c-0.276,0-0.5-0.224-0.5-0.5s0.224-0.5,0.5-0.5h2c0.276,0,0.5,0.224,0.5,0.5
			S27.276,32.667,27,32.667z"/>
	</g>
	<g>
		<line class="st3" x1="36.95" y1="37.117" x2="35.536" y2="35.702"/>
		<path class="st0" d="M36.95,37.617c-0.128,0-0.256-0.049-0.354-0.146l-1.415-1.415c-0.195-0.195-0.195-0.512,0-0.707
			s0.512-0.195,0.707,0l1.415,1.415c0.195,0.195,0.195,0.512,0,0.707C37.206,37.568,37.078,37.617,36.95,37.617z"/>
	</g>
	<g>
		<line class="st3" x1="28.464" y1="28.631" x2="27.05" y2="27.217"/>
		<path class="st0" d="M28.465,29.131c-0.128,0-0.256-0.049-0.354-0.146l-1.415-1.414c-0.195-0.195-0.195-0.512,0-0.707
			s0.512-0.195,0.707,0l1.415,1.414c0.195,0.195,0.195,0.512,0,0.707C28.721,29.083,28.593,29.131,28.465,29.131z"/>
	</g>
	<g>
		<line class="st3" x1="27.05" y1="37.117" x2="28.464" y2="35.702"/>
		<path class="st0" d="M27.05,37.617c-0.128,0-0.256-0.049-0.354-0.146c-0.195-0.195-0.195-0.512,0-0.707l1.415-1.415
			c0.195-0.195,0.512-0.195,0.707,0s0.195,0.512,0,0.707l-1.415,1.415C27.306,37.568,27.178,37.617,27.05,37.617z"/>
	</g>
	<g>
		<line class="st3" x1="35.536" y1="28.631" x2="36.95" y2="27.217"/>
		<path class="st0" d="M35.535,29.131c-0.128,0-0.256-0.049-0.354-0.146c-0.195-0.195-0.195-0.512,0-0.707l1.415-1.414
			c0.195-0.195,0.512-0.195,0.707,0s0.195,0.512,0,0.707l-1.415,1.414C35.791,29.083,35.663,29.131,35.535,29.131z"/>
	</g>
</g>
</svg>
