<?xml version="1.0" encoding="utf-8"?>
<!-- Generator: Adobe Illustrator 21.1.0, SVG Export Plug-In . SVG Version: 6.00 Build 0)  -->
<svg version="1.1" id="Icon_Set" xmlns="http://www.w3.org/2000/svg" xmlns:xlink="http://www.w3.org/1999/xlink" x="0px" y="0px"
	 viewBox="0 0 64 64" style="enable-background:new 0 0 64 64;" xml:space="preserve">
<style type="text/css">
	.st0{fill:#263238;}
	.st1{fill:#FF5252;}
	.st2{fill:#FFD740;}
	.st3{fill:#40C4FF;}
	.st4{fill:#FFFFFF;}
	.st5{fill:#4DB6AC;}
	.st6{fill:#4FC3F7;}
</style>
<g id="Exhaust_Header">
	<g>
		<path class="st2" d="M57.999,16.5h3.5v-8H58c0-2.209-1.791-4-4-4s-4,1.791-4,4h-7c0-2.209-1.791-4-4-4s-4,1.791-4,4h-7
			c0-2.209-1.791-4-4-4s-4,1.791-4,4h-7c0-2.209-1.791-4-4-4s-4,1.791-4,4H1.5v8H5"/>
		<path class="st0" d="M61.5,17h-3.501c-0.276,0-0.5-0.224-0.5-0.5s0.224-0.5,0.5-0.5H61V9h-3c-0.276,0-0.5-0.224-0.5-0.5
			C57.5,6.57,55.93,5,54,5s-3.5,1.57-3.5,3.5C50.5,8.776,50.276,9,50,9h-7c-0.276,0-0.5-0.224-0.5-0.5C42.5,6.57,40.93,5,39,5
			s-3.5,1.57-3.5,3.5C35.5,8.776,35.276,9,35,9h-7c-0.276,0-0.5-0.224-0.5-0.5C27.5,6.57,25.93,5,24,5s-3.5,1.57-3.5,3.5
			C20.5,8.776,20.276,9,20,9h-7c-0.276,0-0.5-0.224-0.5-0.5C12.5,6.57,10.93,5,9,5S5.5,6.57,5.5,8.5C5.5,8.776,5.276,9,5,9H2v7h3
			c0.276,0,0.5,0.224,0.5,0.5S5.276,17,5,17H1.5C1.224,17,1,16.776,1,16.5v-8C1,8.224,1.224,8,1.5,8h3.027C4.777,5.753,6.687,4,9,4
			c2.312,0,4.223,1.753,4.473,4h6.055c0.25-2.247,2.16-4,4.473-4c2.312,0,4.223,1.753,4.473,4h6.055c0.25-2.247,2.16-4,4.473-4
			c2.312,0,4.223,1.753,4.473,4h6.055c0.25-2.247,2.16-4,4.473-4c2.312,0,4.223,1.753,4.473,4H61.5C61.776,8,62,8.224,62,8.5v8
			C62,16.776,61.776,17,61.5,17z"/>
	</g>
	<g>
		<path class="st0" d="M22.986,29.703c-0.042,0-0.084-0.005-0.127-0.016c-1.978-0.519-3.359-2.309-3.359-4.354V13.5
			c0-0.276,0.224-0.5,0.5-0.5s0.5,0.224,0.5,0.5v11.833c0,1.591,1.074,2.983,2.613,3.386c0.267,0.07,0.427,0.343,0.356,0.61
			C23.411,29.555,23.209,29.703,22.986,29.703z"/>
	</g>
	<g>
		<path class="st0" d="M63,59.333H46.64c-3.554,0-6.717-2.386-7.692-5.802l-2.847-9.963c-0.44-1.541-1.68-2.74-3.235-3.129
			L10.56,34.861C6.992,33.969,4.5,30.778,4.5,27.1V13.5C4.5,13.224,4.724,13,5,13s0.5,0.224,0.5,0.5v13.6
			c0,3.218,2.181,6.011,5.302,6.792l22.306,5.577c1.902,0.476,3.417,1.941,3.954,3.825l2.847,9.963
			c0.854,2.989,3.622,5.077,6.731,5.077H63c0.276,0,0.5,0.224,0.5,0.5S63.276,59.333,63,59.333z"/>
	</g>
	<g>
		<path class="st0" d="M63,51.333H50.788c-2.442,0-4.617-1.641-5.288-3.989l-2.579-9.028c-0.686-2.397-2.614-4.263-5.033-4.868
			l-23.115-5.779c-1.338-0.334-2.272-1.531-2.272-2.91V13.5c0-0.276,0.224-0.5,0.5-0.5s0.5,0.224,0.5,0.5v11.258
			c0,0.919,0.623,1.717,1.515,1.94l23.115,5.779c2.766,0.691,4.97,2.823,5.752,5.563l2.579,9.028
			c0.55,1.921,2.328,3.264,4.327,3.264H63c0.276,0,0.5,0.224,0.5,0.5S63.276,51.333,63,51.333z"/>
	</g>
	<g>
		<path class="st0" d="M63,43.333h-6.384c-2.419,0-4.528-1.551-5.25-3.859l-2.448-7.834c-0.724-2.317-2.559-4.068-4.908-4.683
			l-14.271-3.737c-1.318-0.346-2.239-1.539-2.239-2.902V13.5c0-0.276,0.224-0.5,0.5-0.5s0.5,0.224,0.5,0.5v6.816
			c0,0.909,0.614,1.705,1.493,1.935l14.271,3.737c2.685,0.703,4.782,2.704,5.609,5.353l2.448,7.834
			c0.59,1.888,2.316,3.157,4.295,3.157H63c0.276,0,0.5,0.224,0.5,0.5S63.276,43.333,63,43.333z"/>
	</g>
	<g>
		<path class="st0" d="M49.999,17H43c-0.276,0-0.5-0.224-0.5-0.5S42.724,16,43,16h6.999c0.276,0,0.5,0.224,0.5,0.5
			S50.275,17,49.999,17z"/>
	</g>
	<g>
		<path class="st0" d="M34.999,17H28c-0.276,0-0.5-0.224-0.5-0.5S27.724,16,28,16h6.999c0.276,0,0.5,0.224,0.5,0.5
			S35.275,17,34.999,17z"/>
	</g>
	<g>
		<path class="st0" d="M20,17h-7.001c-0.276,0-0.5-0.224-0.5-0.5s0.224-0.5,0.5-0.5H20c0.276,0,0.5,0.224,0.5,0.5S20.276,17,20,17z"
			/>
	</g>
	<g>
		<path class="st0" d="M35,22.579c-0.276,0-0.5-0.224-0.5-0.5V13.5c0-0.276,0.224-0.5,0.5-0.5s0.5,0.224,0.5,0.5v8.58
			C35.5,22.355,35.276,22.579,35,22.579z"/>
	</g>
	<g>
		<path class="st0" d="M43,24.674c-0.276,0-0.5-0.224-0.5-0.5V13.5c0-0.276,0.224-0.5,0.5-0.5s0.5,0.224,0.5,0.5v10.674
			C43.5,24.45,43.276,24.674,43,24.674z"/>
	</g>
	<g>
		<path class="st0" d="M50,28.924c-0.276,0-0.5-0.224-0.5-0.5V13.5c0-0.276,0.224-0.5,0.5-0.5s0.5,0.224,0.5,0.5v14.924
			C50.5,28.7,50.276,28.924,50,28.924z"/>
	</g>
	<g>
		<path class="st0" d="M58,41.333c-0.276,0-0.5-0.224-0.5-0.5V13.5c0-0.276,0.224-0.5,0.5-0.5s0.5,0.224,0.5,0.5v27.334
			C58.5,41.11,58.276,41.333,58,41.333z"/>
	</g>
	<g>
		<path class="st0" d="M19,60h-1c-0.276,0-0.5-0.224-0.5-0.5S17.724,59,18,59h1c0.276,0,0.5,0.224,0.5,0.5S19.276,60,19,60z"/>
	</g>
	<g>
		<path class="st0" d="M16,60H1c-0.276,0-0.5-0.224-0.5-0.5S0.724,59,1,59h15c0.276,0,0.5,0.224,0.5,0.5S16.276,60,16,60z"/>
	</g>
	<g>
		<path class="st0" d="M9.5,57h-1C8.224,57,8,56.776,8,56.5S8.224,56,8.5,56h1c0.276,0,0.5,0.224,0.5,0.5S9.776,57,9.5,57z"/>
	</g>
	<g>
		<path class="st0" d="M26.5,57h-15c-0.276,0-0.5-0.224-0.5-0.5s0.224-0.5,0.5-0.5h15c0.276,0,0.5,0.224,0.5,0.5S26.776,57,26.5,57z
			"/>
	</g>
	<g>
		<path class="st0" d="M6.5,45.333c-0.276,0-0.5-0.224-0.5-0.5v-4c0-0.276,0.224-0.5,0.5-0.5s0.5,0.224,0.5,0.5v4
			C7,45.109,6.776,45.333,6.5,45.333z"/>
	</g>
	<g>
		<path class="st0" d="M8.5,43.333h-4c-0.276,0-0.5-0.224-0.5-0.5s0.224-0.5,0.5-0.5h4c0.276,0,0.5,0.224,0.5,0.5
			S8.776,43.333,8.5,43.333z"/>
	</g>
	<g>
		<path class="st0" d="M18.5,49.333c-0.276,0-0.5-0.224-0.5-0.5v-4c0-0.276,0.224-0.5,0.5-0.5s0.5,0.224,0.5,0.5v4
			C19,49.109,18.776,49.333,18.5,49.333z"/>
	</g>
	<g>
		<path class="st0" d="M20.5,47.333h-4c-0.276,0-0.5-0.224-0.5-0.5s0.224-0.5,0.5-0.5h4c0.276,0,0.5,0.224,0.5,0.5
			S20.776,47.333,20.5,47.333z"/>
	</g>
</g>
</svg>
