<?xml version="1.0" encoding="utf-8"?>
<!-- Generator: Adobe Illustrator 21.1.0, SVG Export Plug-In . SVG Version: 6.00 Build 0)  -->
<svg version="1.1" id="Icon_Set" xmlns="http://www.w3.org/2000/svg" xmlns:xlink="http://www.w3.org/1999/xlink" x="0px" y="0px"
	 viewBox="0 0 64 64" style="enable-background:new 0 0 64 64;" xml:space="preserve">
<style type="text/css">
	.st0{fill:#263238;}
	.st1{fill:#FF5252;}
	.st2{fill:#FFD740;}
	.st3{fill:#40C4FF;}
	.st4{fill:#FFFFFF;}
	.st5{fill:#4DB6AC;}
	.st6{fill:#4FC3F7;}
</style>
<g id="Gas_Station">
	<g>
		<path class="st0" d="M41,56.499c-0.276,0-0.5-0.224-0.5-0.5v-27.5c0-1.103-0.897-2-2-2H5c-1.103,0-2,0.897-2,2v27.5
			c0,0.276-0.224,0.5-0.5,0.5S2,56.275,2,55.999v-27.5c0-1.654,1.346-3,3-3h33.5c1.654,0,3,1.346,3,3v27.5
			C41.5,56.275,41.276,56.499,41,56.499z"/>
	</g>
	<g>
		<path class="st0" d="M42,63.499H1.5c-0.827,0-1.5-0.673-1.5-1.5v-3c0-0.827,0.673-1.5,1.5-1.5H42c0.827,0,1.5,0.673,1.5,1.5v3
			C43.5,62.826,42.827,63.499,42,63.499z M1.5,58.499c-0.275,0-0.5,0.225-0.5,0.5v3c0,0.275,0.225,0.5,0.5,0.5H42
			c0.275,0,0.5-0.225,0.5-0.5v-3c0-0.275-0.225-0.5-0.5-0.5H1.5z"/>
	</g>
	<g>
		<path class="st0" d="M5.5,24.499c-0.276,0-0.5-0.224-0.5-0.5v-11c0-0.276,0.224-0.5,0.5-0.5s0.5,0.224,0.5,0.5v11
			C6,24.275,5.776,24.499,5.5,24.499z"/>
	</g>
	<g>
		<path class="st0" d="M9.5,24.499c-0.276,0-0.5-0.224-0.5-0.5v-11c0-0.276,0.224-0.5,0.5-0.5s0.5,0.224,0.5,0.5v11
			C10,24.275,9.776,24.499,9.5,24.499z"/>
	</g>
	<g>
		<path class="st0" d="M38,24.499c-0.276,0-0.5-0.224-0.5-0.5v-11c0-0.276,0.224-0.5,0.5-0.5s0.5,0.224,0.5,0.5v11
			C38.5,24.275,38.276,24.499,38,24.499z"/>
	</g>
	<g>
		<path class="st2" d="M40,10.999H3.5c-0.552,0-1-0.448-1-1v-8c0-0.552,0.448-1,1-1H40c0.552,0,1,0.448,1,1v8
			C41,10.551,40.552,10.999,40,10.999z"/>
		<path class="st0" d="M40,11.499H3.5c-0.827,0-1.5-0.673-1.5-1.5v-8c0-0.827,0.673-1.5,1.5-1.5H40c0.827,0,1.5,0.673,1.5,1.5v8
			C41.5,10.826,40.827,11.499,40,11.499z M3.5,1.499c-0.275,0-0.5,0.225-0.5,0.5v8c0,0.275,0.225,0.5,0.5,0.5H40
			c0.275,0,0.5-0.225,0.5-0.5v-8c0-0.275-0.225-0.5-0.5-0.5H3.5z"/>
	</g>
	<g>
		<rect x="7.5" y="30.999" class="st2" width="18.5" height="10"/>
		<path class="st0" d="M26,41.499H7.5c-0.276,0-0.5-0.224-0.5-0.5v-10c0-0.276,0.224-0.5,0.5-0.5H26c0.276,0,0.5,0.224,0.5,0.5v10
			C26.5,41.275,26.276,41.499,26,41.499z M8,40.499h17.5v-9H8V40.499z"/>
	</g>
	<g>
		<path class="st0" d="M31,41.499h-5c-0.276,0-0.5-0.224-0.5-0.5v-10c0-0.276,0.224-0.5,0.5-0.5h5c0.276,0,0.5,0.224,0.5,0.5v10
			C31.5,41.275,31.276,41.499,31,41.499z M26.5,40.499h4v-9h-4V40.499z"/>
	</g>
	<g>
		<path class="st0" d="M31,34.999h-5c-0.276,0-0.5-0.224-0.5-0.5s0.224-0.5,0.5-0.5h5c0.276,0,0.5,0.224,0.5,0.5
			S31.276,34.999,31,34.999z"/>
	</g>
	<g>
		<path class="st0" d="M31,38.499h-5c-0.276,0-0.5-0.224-0.5-0.5s0.224-0.5,0.5-0.5h5c0.276,0,0.5,0.224,0.5,0.5
			S31.276,38.499,31,38.499z"/>
	</g>
	<g>
		<path class="st0" d="M41.5,49.499c-4.411,0-8-3.589-8-8v-30.5c0-0.276,0.224-0.5,0.5-0.5s0.5,0.224,0.5,0.5v30.5
			c0,3.859,3.141,7,7,7s7-3.141,7-7v-8c0-0.276,0.224-0.5,0.5-0.5s0.5,0.224,0.5,0.5v8C49.5,45.91,45.911,49.499,41.5,49.499z"/>
	</g>
	<g>
		<path class="st3" d="M49.5,33.499h-1c-0.552,0-1-0.448-1-1v-6.399c0-0.729-0.228-1.44-0.651-2.033l-3.488-4.883
			c-0.321-0.449-0.217-1.074,0.233-1.395l0.814-0.581c0.449-0.321,1.074-0.217,1.395,0.233l3.488,4.884
			c0.787,1.102,1.21,2.422,1.21,3.776v6.398C50.5,33.051,50.052,33.499,49.5,33.499z"/>
		<path class="st0" d="M49.5,33.999h-1c-0.827,0-1.5-0.673-1.5-1.5v-6.398c0-0.629-0.193-1.23-0.558-1.741l-3.489-4.884
			c-0.232-0.327-0.324-0.725-0.258-1.121c0.066-0.395,0.282-0.74,0.608-0.972l0.812-0.581c0.672-0.48,1.611-0.324,2.092,0.349
			l3.489,4.884C50.55,23.228,51,24.634,51,26.102v6.397C51,33.326,50.327,33.999,49.5,33.999z M44.987,17.522
			c-0.101,0-0.201,0.03-0.289,0.093l-0.813,0.582c-0.109,0.077-0.182,0.192-0.203,0.323c-0.022,0.132,0.008,0.265,0.086,0.374
			l3.488,4.883C47.742,24.459,48,25.262,48,26.101v6.398c0,0.275,0.225,0.5,0.5,0.5h1c0.275,0,0.5-0.225,0.5-0.5v-6.397
			c0-1.258-0.386-2.463-1.117-3.485l-3.488-4.884C45.297,17.596,45.144,17.522,44.987,17.522z"/>
	</g>
	<g>
		<path class="st0" d="M47.5,32.499h-2.153c-0.735,0-1.357-0.526-1.479-1.252l-0.666-4.001c-0.072-0.437,0.05-0.88,0.335-1.217
			c0.286-0.337,0.703-0.53,1.145-0.53H47.5c0.276,0,0.5,0.224,0.5,0.5v6C48,32.275,47.776,32.499,47.5,32.499z M44.681,26.499
			c-0.149,0-0.285,0.062-0.381,0.177c-0.098,0.114-0.137,0.258-0.112,0.406l0.666,4c0.041,0.241,0.248,0.417,0.493,0.417H47v-5
			H44.681z"/>
	</g>
	<g>
		<path class="st4" d="M25.75,7.999h-8c-0.552,0-1-0.448-1-1v-2c0-0.552,0.448-1,1-1h8c0.552,0,1,0.448,1,1v2
			C26.75,7.551,26.302,7.999,25.75,7.999z"/>
		<path class="st0" d="M25.75,8.499h-8c-0.827,0-1.5-0.673-1.5-1.5v-2c0-0.827,0.673-1.5,1.5-1.5h8c0.827,0,1.5,0.673,1.5,1.5v2
			C27.25,7.826,26.577,8.499,25.75,8.499z M17.75,4.499c-0.275,0-0.5,0.225-0.5,0.5v2c0,0.275,0.225,0.5,0.5,0.5h8
			c0.275,0,0.5-0.225,0.5-0.5v-2c0-0.275-0.225-0.5-0.5-0.5H17.75z"/>
	</g>
	<g>
		<path class="st0" d="M61.5,3.999h-4c-0.276,0-0.5-0.224-0.5-0.5s0.224-0.5,0.5-0.5h4c0.276,0,0.5,0.224,0.5,0.5
			S61.776,3.999,61.5,3.999z"/>
	</g>
	<g>
		<path class="st0" d="M59.5,5.999c-0.276,0-0.5-0.224-0.5-0.5v-4c0-0.276,0.224-0.5,0.5-0.5s0.5,0.224,0.5,0.5v4
			C60,5.775,59.776,5.999,59.5,5.999z"/>
	</g>
	<g>
		<path class="st0" d="M54.5,10.999h-4c-0.276,0-0.5-0.224-0.5-0.5s0.224-0.5,0.5-0.5h4c0.276,0,0.5,0.224,0.5,0.5
			S54.776,10.999,54.5,10.999z"/>
	</g>
	<g>
		<path class="st0" d="M52.5,12.999c-0.276,0-0.5-0.224-0.5-0.5v-4c0-0.276,0.224-0.5,0.5-0.5s0.5,0.224,0.5,0.5v4
			C53,12.775,52.776,12.999,52.5,12.999z"/>
	</g>
	<g>
		<path class="st0" d="M59,54.999h-1c-0.276,0-0.5-0.224-0.5-0.5s0.224-0.5,0.5-0.5h1c0.276,0,0.5,0.224,0.5,0.5
			S59.276,54.999,59,54.999z"/>
	</g>
	<g>
		<path class="st0" d="M56,54.999H46c-0.276,0-0.5-0.224-0.5-0.5s0.224-0.5,0.5-0.5h10c0.276,0,0.5,0.224,0.5,0.5
			S56.276,54.999,56,54.999z"/>
	</g>
	<g>
		<path class="st0" d="M51.5,51.999h-1c-0.276,0-0.5-0.224-0.5-0.5s0.224-0.5,0.5-0.5h1c0.276,0,0.5,0.224,0.5,0.5
			S51.776,51.999,51.5,51.999z"/>
	</g>
	<g>
		<path class="st0" d="M63.5,51.999h-10c-0.276,0-0.5-0.224-0.5-0.5s0.224-0.5,0.5-0.5h10c0.276,0,0.5,0.224,0.5,0.5
			S63.776,51.999,63.5,51.999z"/>
	</g>
	<g>
		<path class="st0" d="M16.5,34.499h-6c-0.276,0-0.5-0.224-0.5-0.5s0.224-0.5,0.5-0.5h6c0.276,0,0.5,0.224,0.5,0.5
			S16.776,34.499,16.5,34.499z"/>
	</g>
	<g>
		<path class="st0" d="M16.5,38.499h-6c-0.276,0-0.5-0.224-0.5-0.5s0.224-0.5,0.5-0.5h6c0.276,0,0.5,0.224,0.5,0.5
			S16.776,38.499,16.5,38.499z"/>
	</g>
</g>
</svg>
