<?xml version="1.0" encoding="utf-8"?>
<!-- Generator: Adobe Illustrator 21.1.0, SVG Export Plug-In . SVG Version: 6.00 Build 0)  -->
<svg version="1.1" id="Icon_Set" xmlns="http://www.w3.org/2000/svg" xmlns:xlink="http://www.w3.org/1999/xlink" x="0px" y="0px"
	 viewBox="0 0 64 64" style="enable-background:new 0 0 64 64;" xml:space="preserve">
<style type="text/css">
	.st0{fill:#263238;}
	.st1{fill:#FF5252;}
	.st2{fill:#FFD740;}
	.st3{fill:#40C4FF;}
	.st4{fill:#FFFFFF;}
	.st5{fill:#4DB6AC;}
	.st6{fill:#4FC3F7;}
</style>
<g id="Gear">
	<g>
		<path class="st3" d="M44,33.292c-1.933,0-3.5,1.567-3.5,3.5v5h-3h-2V42c0,1.933-1.567,3.5-3.5,3.5s-3.5-1.567-3.5-3.5v-0.208h-2
			h-3v-5c0-1.933-1.567-3.5-3.5-3.5s-3.5,1.567-3.5,3.5v17c0,1.933,1.567,3.5,3.5,3.5s3.5-1.567,3.5-3.5v-5h5v5
			c0,1.933,1.567,3.5,3.5,3.5s3.5-1.567,3.5-3.5v-5h5v5c0,1.933,1.567,3.5,3.5,3.5s3.5-1.567,3.5-3.5v-17
			C47.5,34.859,45.933,33.292,44,33.292z"/>
	</g>
	<g>
		<path class="st0" d="M44,57.792c-2.206,0-4-1.794-4-4v-4.5h-4v4.5c0,2.206-1.794,4-4,4s-4-1.794-4-4v-4.5h-4v4.5
			c0,2.206-1.794,4-4,4s-4-1.794-4-4v-17c0-2.206,1.794-4,4-4s4,1.794,4,4v4.5h2.5c0.276,0,0.5,0.224,0.5,0.5s-0.224,0.5-0.5,0.5h-3
			c-0.276,0-0.5-0.224-0.5-0.5v-5c0-1.654-1.346-3-3-3s-3,1.346-3,3v17c0,1.654,1.346,3,3,3s3-1.346,3-3v-5
			c0-0.276,0.224-0.5,0.5-0.5h5c0.276,0,0.5,0.224,0.5,0.5v5c0,1.654,1.346,3,3,3s3-1.346,3-3v-5c0-0.276,0.224-0.5,0.5-0.5h5
			c0.276,0,0.5,0.224,0.5,0.5v5c0,1.654,1.346,3,3,3s3-1.346,3-3v-17c0-1.654-1.346-3-3-3s-3,1.346-3,3v5c0,0.276-0.224,0.5-0.5,0.5
			h-3c-0.276,0-0.5-0.224-0.5-0.5s0.224-0.5,0.5-0.5H40v-4.5c0-2.206,1.794-4,4-4s4,1.794,4,4v17C48,55.998,46.206,57.792,44,57.792
			z"/>
	</g>
	<g>
		<path class="st0" d="M32,46c-2.206,0-4-1.794-4-4V23.5c0-0.276,0.224-0.5,0.5-0.5s0.5,0.224,0.5,0.5V42c0,1.654,1.346,3,3,3
			s3-1.346,3-3V23.5c0-0.276,0.224-0.5,0.5-0.5s0.5,0.224,0.5,0.5V42C36,44.206,34.206,46,32,46z"/>
	</g>
	<g>
		<path class="st0" d="M50.5,64h-37C10.467,64,8,61.533,8,58.5v-26c0-3.033,2.467-5.5,5.5-5.5h13c0.276,0,0.5,0.224,0.5,0.5
			S26.776,28,26.5,28h-13C11.019,28,9,30.019,9,32.5v26c0,2.481,2.019,4.5,4.5,4.5h37c2.481,0,4.5-2.019,4.5-4.5v-26
			c0-2.481-2.019-4.5-4.5-4.5h-13c-0.276,0-0.5-0.224-0.5-0.5s0.224-0.5,0.5-0.5h13c3.033,0,5.5,2.467,5.5,5.5v26
			C56,61.533,53.533,64,50.5,64z"/>
	</g>
	<g>
		<path class="st1" d="M37,17.5V19c0,1.381-1.119,2.5-2.5,2.5h-5c-1.381,0-2.5-1.119-2.5-2.5v-1.5L25,16c-1.259-0.944-2-2.426-2-4V8
			c0-4.142,3.358-7.5,7.5-7.5h3C37.642,0.5,41,3.858,41,8v4c0,1.574-0.741,3.056-2,4L37,17.5z"/>
		<path class="st0" d="M34.5,22h-5c-1.654,0-3-1.346-3-3v-1.25l-1.8-1.35c-1.378-1.033-2.2-2.678-2.2-4.4V8c0-4.411,3.589-8,8-8h3
			c4.411,0,8,3.589,8,8v4c0,1.722-0.822,3.367-2.2,4.4l-1.8,1.35V19C37.5,20.654,36.154,22,34.5,22z M30.5,1c-3.86,0-7,3.14-7,7v4
			c0,1.409,0.673,2.754,1.8,3.6l2,1.5c0.126,0.094,0.2,0.243,0.2,0.4V19c0,1.103,0.897,2,2,2h5c1.103,0,2-0.897,2-2v-1.5
			c0-0.157,0.074-0.306,0.2-0.4l2-1.5c1.127-0.846,1.8-2.191,1.8-3.6V8c0-3.86-3.14-7-7-7H30.5z"/>
	</g>
	<g>
		<path class="st1" d="M33.5,3.5C35.981,3.5,38,5.519,38,8"/>
		<path class="st0" d="M38,8.5c-0.276,0-0.5-0.224-0.5-0.5c0-2.206-1.794-4-4-4C33.224,4,33,3.776,33,3.5S33.224,3,33.5,3
			c2.757,0,5,2.243,5,5C38.5,8.276,38.276,8.5,38,8.5z"/>
	</g>
	<g>
		<path class="st0" d="M8,22.5H7c-0.276,0-0.5-0.224-0.5-0.5s0.224-0.5,0.5-0.5h1c0.276,0,0.5,0.224,0.5,0.5S8.276,22.5,8,22.5z"/>
	</g>
	<g>
		<path class="st0" d="M22,22.5H10c-0.276,0-0.5-0.224-0.5-0.5s0.224-0.5,0.5-0.5h12c0.276,0,0.5,0.224,0.5,0.5S22.276,22.5,22,22.5
			z"/>
	</g>
	<g>
		<path class="st0" d="M57,22.5h-1c-0.276,0-0.5-0.224-0.5-0.5s0.224-0.5,0.5-0.5h1c0.276,0,0.5,0.224,0.5,0.5S57.276,22.5,57,22.5z
			"/>
	</g>
	<g>
		<path class="st0" d="M54,22.5H42c-0.276,0-0.5-0.224-0.5-0.5s0.224-0.5,0.5-0.5h12c0.276,0,0.5,0.224,0.5,0.5S54.276,22.5,54,22.5
			z"/>
	</g>
	<g>
		<path class="st0" d="M10.5,52h-2C8.224,52,8,51.776,8,51.5v-12C8,39.224,8.224,39,8.5,39h2c0.827,0,1.5,0.673,1.5,1.5v10
			C12,51.327,11.327,52,10.5,52z M9,51h1.5c0.276,0,0.5-0.224,0.5-0.5v-10c0-0.276-0.224-0.5-0.5-0.5H9V51z"/>
	</g>
	<g>
		<path class="st0" d="M55.5,52h-2c-0.827,0-1.5-0.673-1.5-1.5v-10c0-0.827,0.673-1.5,1.5-1.5h2c0.276,0,0.5,0.224,0.5,0.5v12
			C56,51.776,55.776,52,55.5,52z M53.5,40c-0.276,0-0.5,0.224-0.5,0.5v10c0,0.276,0.224,0.5,0.5,0.5H55V40H53.5z"/>
	</g>
</g>
</svg>
