<?xml version="1.0" encoding="utf-8"?>
<!-- Generator: Adobe Illustrator 21.1.0, SVG Export Plug-In . SVG Version: 6.00 Build 0)  -->
<svg version="1.1" id="Icon_Set" xmlns="http://www.w3.org/2000/svg" xmlns:xlink="http://www.w3.org/1999/xlink" x="0px" y="0px"
	 viewBox="0 0 64 64" style="enable-background:new 0 0 64 64;" xml:space="preserve">
<style type="text/css">
	.st0{fill:#263238;}
	.st1{fill:#FF5252;}
	.st2{fill:#FFD740;}
	.st3{fill:#40C4FF;}
	.st4{fill:#FFFFFF;}
	.st5{fill:#4DB6AC;}
	.st6{fill:#4FC3F7;}
</style>
<g id="Good_Car_Diagnostic">
	<g>
		<g>
			<path class="st0" d="M3.5,58.5h-3C0.224,58.5,0,58.724,0,59s0.224,0.5,0.5,0.5h3C3.776,59.5,4,59.276,4,59S3.776,58.5,3.5,58.5z"
				/>
		</g>
	</g>
	<g>
		<g>
			<path class="st0" d="M63.5,58.5h-58C5.224,58.5,5,58.724,5,59s0.224,0.5,0.5,0.5h58c0.276,0,0.5-0.224,0.5-0.5
				S63.776,58.5,63.5,58.5z"/>
		</g>
	</g>
	<g>
		<path class="st1" d="M58.5,55h3l1.45-4.351c0.315-0.946-0.114-1.979-1.007-2.423L61.489,48l-0.667-3.182
			c-0.42-2.004-2.02-3.549-4.037-3.899L48.625,39.5L37,30.11C36.11,29.392,35.002,29,33.858,29H13.685
			c-1.607,0-3.117,0.773-4.057,2.077L5,37.5H1.766c-0.777,0-1.257,0.848-0.857,1.514L3,42.5V48h0c-1.287,0-2.246,1.186-1.976,2.445
			L2,55h3"/>
		<g>
			<g>
				<path class="st0" d="M62.166,47.778l-0.237-0.118l-0.618-2.944c-0.465-2.217-2.208-3.901-4.44-4.29l-8.032-1.396l-11.523-9.309
					c-0.976-0.788-2.203-1.221-3.456-1.221H13.685c-1.763,0-3.431,0.854-4.462,2.284L4.744,37H1.767
					c-0.548,0-1.036,0.285-1.306,0.761c-0.27,0.477-0.263,1.041,0.019,1.511l2.02,3.367v4.911c-0.571,0.115-1.086,0.424-1.46,0.887
					c-0.481,0.595-0.665,1.365-0.504,2.113l0.976,4.556C1.561,55.335,1.764,55.5,2,55.5h3c0.276,0,0.5-0.224,0.5-0.5
					S5.276,54.5,5,54.5H2.404l-0.892-4.161c-0.097-0.451,0.015-0.916,0.305-1.274S2.539,48.5,3,48.5c0.276,0,0.5-0.224,0.5-0.5v-5.5
					c0-0.091-0.024-0.18-0.071-0.257l-2.091-3.485c-0.135-0.226-0.049-0.427-0.006-0.503C1.375,38.178,1.503,38,1.767,38H5
					c0.161,0,0.312-0.077,0.406-0.208l4.628-6.423c0.844-1.17,2.208-1.869,3.651-1.869h20.173c1.025,0,2.029,0.355,2.827,1
					l11.625,9.39c0.066,0.053,0.146,0.089,0.229,0.104l8.159,1.419c1.827,0.318,3.254,1.695,3.634,3.509L61,48.103
					c0.031,0.15,0.13,0.277,0.267,0.345l0.454,0.226c0.666,0.331,0.99,1.112,0.755,1.817L61.14,54.5H58.5
					c-0.276,0-0.5,0.224-0.5,0.5s0.224,0.5,0.5,0.5h3c0.215,0,0.406-0.138,0.475-0.342l1.45-4.351
					C63.816,49.632,63.275,48.33,62.166,47.778z"/>
			</g>
		</g>
	</g>
	<g>
		<g>
			<g>
				<path class="st0" d="M41.5,54.5H22c-0.276,0-0.5,0.224-0.5,0.5s0.224,0.5,0.5,0.5h19.5c0.276,0,0.5-0.224,0.5-0.5
					S41.776,54.5,41.5,54.5z"/>
			</g>
		</g>
	</g>
	<g>
		<g>
			<g>
				<circle class="st4" cx="50" cy="52.5" r="6.5"/>
			</g>
		</g>
		<g>
			<g>
				<path class="st0" d="M50,45.5c-3.859,0-7,3.14-7,7s3.141,7,7,7s7-3.14,7-7S53.859,45.5,50,45.5z M50,58.5c-3.309,0-6-2.691-6-6
					s2.691-6,6-6s6,2.691,6,6S53.309,58.5,50,58.5z"/>
			</g>
		</g>
	</g>
	<g>
		<g>
			<g>
				<path class="st0" d="M50,48.5c-2.206,0-4,1.794-4,4s1.794,4,4,4s4-1.794,4-4S52.206,48.5,50,48.5z M50,55.5
					c-1.654,0-3-1.346-3-3s1.346-3,3-3s3,1.346,3,3S51.654,55.5,50,55.5z"/>
			</g>
		</g>
	</g>
	<g>
		<g>
			<g>
				<circle class="st4" cx="13.5" cy="52.5" r="6.5"/>
			</g>
		</g>
		<g>
			<g>
				<path class="st0" d="M13.5,45.5c-3.86,0-7,3.14-7,7s3.14,7,7,7s7-3.14,7-7S17.36,45.5,13.5,45.5z M13.5,58.5
					c-3.309,0-6-2.691-6-6s2.691-6,6-6s6,2.691,6,6S16.809,58.5,13.5,58.5z"/>
			</g>
		</g>
	</g>
	<g>
		<g>
			<g>
				<path class="st0" d="M13.5,48.5c-2.206,0-4,1.794-4,4s1.794,4,4,4s4-1.794,4-4S15.706,48.5,13.5,48.5z M13.5,55.5
					c-1.654,0-3-1.346-3-3s1.346-3,3-3s3,1.346,3,3S15.154,55.5,13.5,55.5z"/>
			</g>
		</g>
	</g>
	<g>
		<g>
			<g>
				<path class="st4" d="M38.72,31.5H17.732c-1.042,0-1.975,0.646-2.341,1.622l-1.125,3c-0.613,1.634,0.595,3.378,2.341,3.378
					h32.018L38.72,31.5z"/>
			</g>
		</g>
		<g>
			<g>
				<path class="st0" d="M48.939,39.111l-9.904-8C38.946,31.039,38.835,31,38.721,31H17.732c-1.244,0-2.373,0.782-2.809,1.947v0
					l-1.125,3c-0.345,0.921-0.217,1.954,0.343,2.763C14.702,39.517,15.624,40,16.607,40h32.018c0.212,0,0.4-0.134,0.472-0.333
					C49.167,39.467,49.104,39.244,48.939,39.111z M16.607,39c-0.666,0-1.265-0.314-1.644-0.861
					c-0.379-0.547-0.463-1.218-0.229-1.841l1.125-3v0C16.151,32.521,16.903,32,17.732,32h20.812l8.666,7H16.607z"/>
			</g>
		</g>
	</g>
	<g>
		<g>
			<path class="st0" d="M47.625,41c-0.276,0-0.5,0.224-0.5,0.5v2.95c0,0.276,0.224,0.5,0.5,0.5s0.5-0.224,0.5-0.5V41.5
				C48.125,41.224,47.901,41,47.625,41z"/>
		</g>
	</g>
	<g>
		<g>
			<path class="st0" d="M27.5,41c-0.276,0-0.5,0.224-0.5,0.5V53c0,0.276,0.224,0.5,0.5,0.5S28,53.276,28,53V41.5
				C28,41.224,27.776,41,27.5,41z"/>
		</g>
	</g>
	<g>
		<g>
			<path class="st0" d="M27.5,31c-0.276,0-0.5,0.224-0.5,0.5v8c0,0.276,0.224,0.5,0.5,0.5s0.5-0.224,0.5-0.5v-8
				C28,31.224,27.776,31,27.5,31z"/>
		</g>
	</g>
	<g>
		<g>
			<g>
				<path class="st0" d="M9.125,39.5h-2c-0.827,0-1.5,0.673-1.5,1.5v2c0,0.827,0.673,1.5,1.5,1.5h2c0.827,0,1.5-0.673,1.5-1.5v-2
					C10.625,40.173,9.952,39.5,9.125,39.5z M9.625,43c0,0.276-0.224,0.5-0.5,0.5h-2c-0.276,0-0.5-0.224-0.5-0.5v-2
					c0-0.276,0.224-0.5,0.5-0.5h2c0.276,0,0.5,0.224,0.5,0.5V43z"/>
			</g>
		</g>
	</g>
	<g>
		<g>
			<g>
				<path class="st4" d="M61.489,48l-0.667-3.182c-0.06-0.284-0.148-0.555-0.253-0.818h-2.234c-0.743,0-1.227,0.782-0.894,1.447
					L58.716,48L61.489,48L61.489,48z"/>
			</g>
		</g>
		<g>
			<g>
				<path class="st0" d="M61.311,44.716c-0.061-0.288-0.151-0.582-0.277-0.9c-0.076-0.19-0.26-0.315-0.465-0.315h-2.234
					c-0.523,0-1,0.266-1.275,0.711s-0.301,0.991-0.066,1.46l1.276,2.553c0.085,0.169,0.258,0.276,0.447,0.276h2.773
					c0.15,0,0.293-0.068,0.388-0.185c0.096-0.117,0.133-0.27,0.102-0.417L61.311,44.716z M59.024,47.5l-1.138-2.276
					c-0.112-0.226-0.021-0.416,0.022-0.487s0.174-0.237,0.425-0.237h1.884c0.048,0.146,0.086,0.285,0.114,0.421l0.541,2.579H59.024z
					"/>
			</g>
		</g>
	</g>
	<g>
		<g>
			<path class="st0" d="M59.468,28.658c-0.195-0.195-0.512-0.195-0.707,0L48.271,39.146c-0.195,0.195-0.195,0.512,0,0.707
				C48.369,39.951,48.497,40,48.625,40s0.256-0.049,0.354-0.146l10.489-10.489C59.663,29.169,59.663,28.853,59.468,28.658z"/>
		</g>
	</g>
	<g>
		<g>
			<g>
				<path class="st5" d="M57.048,5h-19c-1.381,0-2.5,1.119-2.5,2.5v13c0,1.381,1.119,2.5,2.5,2.5h19c1.381,0,2.5-1.119,2.5-2.5v-13
					C59.548,6.119,58.429,5,57.048,5z"/>
			</g>
		</g>
		<g>
			<g>
				<path class="st0" d="M57.048,4.5h-19c-1.654,0-3,1.346-3,3v13c0,1.654,1.346,3,3,3h19c1.654,0,3-1.346,3-3v-13
					C60.048,5.846,58.702,4.5,57.048,4.5z M59.048,20.5c0,1.103-0.897,2-2,2h-19c-1.103,0-2-0.897-2-2v-13c0-1.103,0.897-2,2-2h19
					c1.103,0,2,0.897,2,2V20.5z"/>
			</g>
		</g>
	</g>
	<g>
		<g>
			<path class="st0" d="M25.548,18h-3.647l-2.382-6.668c-0.072-0.204-0.27-0.325-0.482-0.332c-0.216,0.005-0.404,0.148-0.467,0.354
				l-3.085,10.139l-2.472-6.179c-0.069-0.172-0.228-0.292-0.413-0.312c-0.188-0.021-0.365,0.065-0.468,0.22L10.281,18H6.548
				c-0.276,0-0.5,0.224-0.5,0.5s0.224,0.5,0.5,0.5h4c0.167,0,0.323-0.083,0.416-0.223l1.473-2.209l2.647,6.617
				c0.076,0.19,0.261,0.314,0.464,0.314c0.007,0,0.014,0,0.021,0c0.212-0.009,0.395-0.151,0.457-0.354l3.06-10.053l1.991,5.575
				C21.148,18.867,21.337,19,21.548,19h4c0.276,0,0.5-0.224,0.5-0.5S25.825,18,25.548,18z"/>
		</g>
	</g>
	<g>
		<g>
			<g>
				<path class="st4" d="M53.912,9.404c-0.586-0.586-1.535-0.586-2.121,0l-6.01,6.01l-2.475-2.475c-0.586-0.586-1.535-0.586-2.121,0
					s-0.586,1.536,0,2.121l3.536,3.535c0.293,0.293,0.677,0.439,1.061,0.439s0.768-0.146,1.061-0.439l7.071-7.071
					C54.498,10.94,54.498,9.989,53.912,9.404z"/>
			</g>
		</g>
		<g>
			<g>
				<path class="st0" d="M54.266,9.05c-0.779-0.78-2.049-0.779-2.828,0l-5.656,5.657l-2.122-2.122c-0.756-0.756-2.072-0.756-2.828,0
					c-0.378,0.378-0.586,0.88-0.586,1.414c0,0.535,0.208,1.037,0.586,1.414l3.536,3.536c0.378,0.378,0.88,0.586,1.414,0.586
					s1.036-0.208,1.414-0.586l7.07-7.071c0.378-0.377,0.586-0.88,0.586-1.414S54.644,9.428,54.266,9.05z M53.559,11.171l-7.07,7.071
					c-0.379,0.378-1.035,0.378-1.414,0l-3.536-3.536c-0.188-0.189-0.293-0.44-0.293-0.707s0.104-0.518,0.293-0.707
					C41.733,13.098,41.989,13,42.245,13s0.512,0.098,0.707,0.292l2.476,2.475c0.195,0.195,0.512,0.195,0.707,0l6.01-6.011
					c0.391-0.39,1.023-0.39,1.414,0c0.188,0.189,0.293,0.44,0.293,0.707S53.747,10.982,53.559,11.171z"/>
			</g>
		</g>
	</g>
</g>
</svg>
