<?xml version="1.0" encoding="utf-8"?>
<!-- Generator: Adobe Illustrator 21.1.0, SVG Export Plug-In . SVG Version: 6.00 Build 0)  -->
<svg version="1.1" id="Icon_Set" xmlns="http://www.w3.org/2000/svg" xmlns:xlink="http://www.w3.org/1999/xlink" x="0px" y="0px"
	 viewBox="0 0 64 64" style="enable-background:new 0 0 64 64;" xml:space="preserve">
<style type="text/css">
	.st0{fill:#263238;}
	.st1{fill:#FF5252;}
	.st2{fill:#FFD740;}
	.st3{fill:#40C4FF;}
	.st4{fill:#FFFFFF;}
	.st5{fill:#4DB6AC;}
	.st6{fill:#4FC3F7;}
</style>
<g id="Hazard_Light">
	<g>
		<path class="st0" d="M56.743,57.184H7.257c-1.075,0-2.043-0.554-2.587-1.48c-0.545-0.928-0.558-2.042-0.033-2.98L29.38,8.355
			c0.538-0.964,1.518-1.539,2.62-1.539c1.104,0,2.083,0.575,2.62,1.539l24.743,44.367c0.524,0.938,0.512,2.053-0.033,2.98
			C58.786,56.63,57.818,57.184,56.743,57.184z M32,7.816c-0.735,0-1.388,0.384-1.747,1.026L5.51,53.209
			c-0.349,0.627-0.341,1.369,0.022,1.987c0.362,0.618,1.008,0.987,1.725,0.987h49.486c0.717,0,1.362-0.369,1.725-0.987
			c0.363-0.618,0.371-1.36,0.022-1.987L33.747,8.842C33.389,8.2,32.735,7.816,32,7.816z M54.189,53.184H9.811
			c-0.178,0-0.342-0.094-0.431-0.247c-0.09-0.152-0.093-0.342-0.006-0.496l22.189-39.787c0.176-0.318,0.697-0.318,0.873,0
			L54.626,52.44c0.087,0.154,0.084,0.344-0.006,0.496C54.531,53.09,54.367,53.184,54.189,53.184z M10.662,52.184h42.676L32,13.923
			L10.662,52.184z"/>
	</g>
	<g>
		<path class="st2" d="M32,39.184L32,39.184c-1.105,0-2-0.895-2-2v-12c0-1.105,0.895-2,2-2h0c1.105,0,2,0.895,2,2v12
			C34,38.288,33.105,39.184,32,39.184z"/>
		<path class="st0" d="M32,39.684c-1.379,0-2.5-1.121-2.5-2.5v-12c0-1.379,1.121-2.5,2.5-2.5s2.5,1.121,2.5,2.5v12
			C34.5,38.562,33.379,39.684,32,39.684z M32,23.684c-0.827,0-1.5,0.673-1.5,1.5v12c0,0.827,0.673,1.5,1.5,1.5s1.5-0.673,1.5-1.5
			v-12C33.5,24.356,32.827,23.684,32,23.684z"/>
	</g>
	<g>
		<circle class="st2" cx="32" cy="45.184" r="3"/>
		<path class="st0" d="M32,48.684c-1.93,0-3.5-1.57-3.5-3.5s1.57-3.5,3.5-3.5s3.5,1.57,3.5,3.5S33.93,48.684,32,48.684z M32,42.684
			c-1.379,0-2.5,1.121-2.5,2.5s1.121,2.5,2.5,2.5s2.5-1.121,2.5-2.5S33.379,42.684,32,42.684z"/>
	</g>
	<g>
		<path class="st0" d="M19.964,16.5c-0.083,0-0.166-0.021-0.243-0.063c-0.241-0.135-0.328-0.438-0.193-0.68l1.115-2
			c0.136-0.242,0.438-0.328,0.68-0.193s0.328,0.438,0.193,0.68l-1.115,2C20.309,16.407,20.139,16.5,19.964,16.5z"/>
	</g>
	<g>
		<path class="st0" d="M4.349,44.5c-0.083,0-0.166-0.021-0.243-0.063c-0.241-0.135-0.328-0.438-0.193-0.68l14.5-25.999
			c0.135-0.242,0.438-0.327,0.68-0.193c0.241,0.135,0.328,0.438,0.193,0.68l-14.5,25.999C4.693,44.407,4.523,44.5,4.349,44.5z"/>
	</g>
	<g>
		<path class="st0" d="M44.036,16.5c-0.175,0-0.345-0.093-0.437-0.257l-1.115-2c-0.135-0.241-0.048-0.545,0.193-0.68
			c0.24-0.134,0.544-0.049,0.68,0.193l1.115,2c0.135,0.241,0.048,0.545-0.193,0.68C44.202,16.479,44.119,16.5,44.036,16.5z"/>
	</g>
	<g>
		<path class="st0" d="M59.651,44.5c-0.175,0-0.345-0.093-0.437-0.257l-14.5-25.999c-0.135-0.241-0.048-0.545,0.193-0.68
			c0.24-0.133,0.544-0.049,0.68,0.193l14.5,25.999c0.135,0.241,0.048,0.545-0.193,0.68C59.817,44.479,59.734,44.5,59.651,44.5z"/>
	</g>
</g>
</svg>
