<?xml version="1.0" encoding="utf-8"?>
<!-- Generator: Adobe Illustrator 21.1.0, SVG Export Plug-In . SVG Version: 6.00 Build 0)  -->
<svg version="1.1" id="Icon_Set" xmlns="http://www.w3.org/2000/svg" xmlns:xlink="http://www.w3.org/1999/xlink" x="0px" y="0px"
	 viewBox="0 0 64 64" style="enable-background:new 0 0 64 64;" xml:space="preserve">
<style type="text/css">
	.st0{fill:#263238;}
	.st1{fill:#FF5252;}
	.st2{fill:#FFD740;}
	.st3{fill:#40C4FF;}
	.st4{fill:#FFFFFF;}
	.st5{fill:#4DB6AC;}
	.st6{fill:#4FC3F7;}
</style>
<g id="Maintenance">
	<g>
		<path class="st1" d="M1,52.75h53.802c0.419,0,0.794-0.261,0.938-0.654l2.438-6.619c0.46-1.248-0.138-2.638-1.361-3.162L55.5,41.75
			l-2.478-6.056c-1.264-3.089-3.986-5.344-7.256-6.012L26.5,25.75L14.486,12.134C12.587,9.982,9.856,8.75,6.987,8.75H1"/>
	</g>
	<g>
		<path class="st4" d="M1,25.75h25.5L14.486,12.134c-0.119-0.135-0.251-0.256-0.377-0.384H1"/>
	</g>
	<g>
		<path class="st0" d="M3.5,60.25h-3c-0.276,0-0.5-0.224-0.5-0.5s0.224-0.5,0.5-0.5h3c0.276,0,0.5,0.224,0.5,0.5
			S3.776,60.25,3.5,60.25z"/>
	</g>
	<g>
		<path class="st0" d="M63.5,60.25h-58c-0.276,0-0.5-0.224-0.5-0.5s0.224-0.5,0.5-0.5h58c0.276,0,0.5,0.224,0.5,0.5
			S63.776,60.25,63.5,60.25z"/>
	</g>
	<g>
		<path class="st0" d="M53.757,53.25H44.87c-0.276,0-0.5-0.224-0.5-0.5s0.224-0.5,0.5-0.5h8.887c0.834,0,1.588-0.526,1.877-1.309
			l2.077-5.637c0.368-0.999-0.11-2.11-1.09-2.53l-1.318-0.565c-0.12-0.052-0.216-0.148-0.266-0.27l-2.478-6.056
			c-1.203-2.941-3.78-5.076-6.893-5.711L26.4,26.24c-0.106-0.021-0.203-0.078-0.275-0.159L14.111,12.465
			C12.308,10.422,9.712,9.25,6.987,9.25H1c-0.276,0-0.5-0.224-0.5-0.5s0.224-0.5,0.5-0.5h5.987c3.011,0,5.881,1.295,7.874,3.553
			l11.903,13.491l19.102,3.899c3.441,0.702,6.289,3.062,7.619,6.312l2.399,5.867l1.131,0.484c1.468,0.629,2.186,2.296,1.633,3.794
			l-2.077,5.637C56.139,52.461,55.008,53.25,53.757,53.25z"/>
	</g>
	<g>
		<path class="st0" d="M20.129,53.25H1c-0.276,0-0.5-0.224-0.5-0.5s0.224-0.5,0.5-0.5h19.129c0.276,0,0.5,0.224,0.5,0.5
			S20.405,53.25,20.129,53.25z"/>
	</g>
	<g>
		<path class="st0" d="M14.109,12.25H1c-0.276,0-0.5-0.224-0.5-0.5s0.224-0.5,0.5-0.5h13.109c0.276,0,0.5,0.224,0.5,0.5
			S14.385,12.25,14.109,12.25z"/>
	</g>
	<g>
		<path class="st0" d="M12.5,26.25H1c-0.276,0-0.5-0.224-0.5-0.5s0.224-0.5,0.5-0.5h11.5c0.276,0,0.5,0.224,0.5,0.5
			S12.777,26.25,12.5,26.25z"/>
	</g>
	<g>
		<path class="st0" d="M26.5,37.25c-0.276,0-0.5-0.224-0.5-0.5v-9c0-0.276,0.224-0.5,0.5-0.5s0.5,0.224,0.5,0.5v9
			C27,37.026,26.776,37.25,26.5,37.25z"/>
	</g>
	<g>
		<path class="st4" d="M53.022,35.694c-0.208-0.508-0.468-0.984-0.751-1.444h-5.937c-0.743,0-1.227,0.782-0.894,1.447l2.085,4.171
			c0.423,0.847,1.289,1.382,2.236,1.382h5.534L53.022,35.694z"/>
		<path class="st0" d="M55.296,41.75h-5.534c-1.144,0-2.172-0.635-2.684-1.658l-2.085-4.171c-0.234-0.468-0.21-1.014,0.065-1.459
			c0.274-0.446,0.752-0.712,1.276-0.712h5.937c0.174,0,0.335,0.09,0.426,0.238c0.342,0.557,0.593,1.038,0.788,1.516l0,0l2.273,5.556
			c0.062,0.154,0.045,0.33-0.048,0.468C55.618,41.667,55.463,41.75,55.296,41.75z M46.335,34.75c-0.252,0-0.382,0.166-0.426,0.237
			s-0.135,0.261-0.021,0.486l2.085,4.171c0.341,0.682,1.026,1.105,1.789,1.105h4.789l-1.991-4.867
			c-0.146-0.358-0.33-0.724-0.571-1.133H46.335z"/>
	</g>
	<g>
		<path class="st0" d="M26.5,26.25c-0.136,0-0.272-0.056-0.371-0.165c-0.185-0.205-0.169-0.521,0.036-0.706l12.719-11.488
			c1.881-1.698,4.174-2.92,6.631-3.534l4.364-1.091c0.264-0.069,0.54,0.096,0.606,0.364c0.066,0.268-0.096,0.539-0.364,0.606
			l-4.364,1.091c-2.299,0.575-4.443,1.718-6.203,3.307L26.835,26.121C26.74,26.208,26.62,26.25,26.5,26.25z"/>
	</g>
	<g>
		<path class="st0" d="M40.767,29.162c-0.276,0-0.5-0.224-0.5-0.5V13.04c0-0.276,0.224-0.5,0.5-0.5s0.5,0.224,0.5,0.5v15.622
			C41.267,28.938,41.043,29.162,40.767,29.162z"/>
	</g>
	<g>
		<path class="st3" d="M62.167,20.75h-10.5c-0.552,0-1-0.448-1-1v-5.586c0-0.265,0.105-0.52,0.293-0.707l1.414-1.414
			c0.188-0.188,0.442-0.293,0.707-0.293h9.086c0.552,0,1,0.448,1,1v7C63.167,20.302,62.719,20.75,62.167,20.75z"/>
		<path class="st0" d="M62.167,21.25h-10.5c-0.827,0-1.5-0.673-1.5-1.5v-5.586c0-0.4,0.156-0.777,0.439-1.061l1.414-1.414
			c0.283-0.283,0.66-0.439,1.061-0.439h9.086c0.827,0,1.5,0.673,1.5,1.5v7C63.667,20.577,62.994,21.25,62.167,21.25z M53.081,12.25
			c-0.134,0-0.259,0.052-0.354,0.146l-1.414,1.414c-0.093,0.093-0.146,0.222-0.146,0.354v5.586c0,0.276,0.225,0.5,0.5,0.5h10.5
			c0.275,0,0.5-0.224,0.5-0.5v-7c0-0.276-0.225-0.5-0.5-0.5H53.081z"/>
	</g>
	<g>
		<path class="st2" d="M47.611,26.883L47.611,26.883c0.663-0.643,0.8-1.656,0.331-2.451l-1.723-2.924l-1.723,2.924
			c-0.469,0.795-0.332,1.808,0.331,2.451v0C45.603,27.635,46.836,27.635,47.611,26.883z"/>
		<path class="st0" d="M46.22,27.952c-0.627,0-1.253-0.237-1.74-0.71c-0.832-0.806-1.002-2.066-0.414-3.064l1.723-2.924
			c0.18-0.305,0.682-0.305,0.861,0l1.724,2.924c0.588,0.998,0.418,2.258-0.414,3.064l0,0C47.472,27.715,46.846,27.952,46.22,27.952z
			 M46.219,22.493l-1.292,2.193c-0.353,0.599-0.25,1.354,0.248,1.838c0.586,0.567,1.503,0.569,2.089,0l0,0
			c0.498-0.484,0.601-1.24,0.248-1.838L46.219,22.493z M47.611,26.883h0.01H47.611z"/>
	</g>
	<g>
		<path class="st0" d="M46.448,19.874c-0.113,0-0.223-0.038-0.312-0.109l-1.562-1.248c-0.215-0.172-0.251-0.487-0.078-0.703
			l0.498-0.624c1.241-1.551,3.091-2.44,5.076-2.44h0.598c0.276,0,0.5,0.224,0.5,0.5v2c0,0.276-0.224,0.5-0.5,0.5h-0.598
			c-1.069,0-2.065,0.479-2.733,1.314l-0.497,0.622c-0.083,0.104-0.203,0.17-0.335,0.185C46.485,19.873,46.467,19.874,46.448,19.874z
			 M45.589,18.047l0.78,0.624l0.186-0.232c0.859-1.074,2.141-1.689,3.515-1.689h0.098v-1h-0.098c-1.68,0-3.245,0.752-4.295,2.065
			L45.589,18.047z"/>
	</g>
	<g>
		<path class="st3" d="M62.667,20.75h-7.5v-4.5c0-0.276,0.224-0.5,0.5-0.5h7.5v4.5C63.167,20.526,62.943,20.75,62.667,20.75z"/>
		<path class="st0" d="M62.667,21.25h-7.5c-0.276,0-0.5-0.224-0.5-0.5v-4.5c0-0.551,0.448-1,1-1h7.5c0.276,0,0.5,0.224,0.5,0.5v4.5
			C63.667,20.801,63.219,21.25,62.667,21.25z M62.667,20.25v0.5V20.25C62.667,20.25,62.667,20.25,62.667,20.25z M55.667,20.25h7v-4
			h-7V20.25z"/>
	</g>
	<g>
		<path class="st0" d="M54.974,49.25h-9.473c-0.276,0-0.5-0.224-0.5-0.5s0.224-0.5,0.5-0.5h9.473c0.276,0,0.5,0.224,0.5,0.5
			S55.25,49.25,54.974,49.25z"/>
	</g>
	<g>
		<path class="st0" d="M19.5,49.25H1c-0.276,0-0.5-0.224-0.5-0.5s0.224-0.5,0.5-0.5h18.5c0.276,0,0.5,0.224,0.5,0.5
			S19.777,49.25,19.5,49.25z"/>
	</g>
	<g>
		<circle class="st4" cx="32.5" cy="48.75" r="11"/>
		<path class="st0" d="M32.5,60.25c-6.341,0-11.5-5.159-11.5-11.5s5.159-11.5,11.5-11.5c6.341,0,11.5,5.159,11.5,11.5
			S38.841,60.25,32.5,60.25z M32.5,38.25c-5.79,0-10.5,4.71-10.5,10.5s4.71,10.5,10.5,10.5c5.79,0,10.5-4.71,10.5-10.5
			S38.29,38.25,32.5,38.25z"/>
	</g>
	<g>
		<path class="st0" d="M32.5,55.25c-3.584,0-6.5-2.916-6.5-6.5s2.916-6.5,6.5-6.5s6.5,2.916,6.5,6.5S36.084,55.25,32.5,55.25z
			 M32.5,43.25c-3.033,0-5.5,2.467-5.5,5.5s2.467,5.5,5.5,5.5c3.032,0,5.5-2.467,5.5-5.5S35.532,43.25,32.5,43.25z"/>
	</g>
	<g>
		<path class="st1" d="M14.501,29.75h3c2.209,0,4-1.791,4-4v0c0-2.209-1.791-4-4-4h-3V29.75z"/>
		<path class="st0" d="M17.5,30.25h-3c-0.276,0-0.5-0.224-0.5-0.5v-8c0-0.276,0.224-0.5,0.5-0.5h3c2.481,0,4.5,2.019,4.5,4.5
			S19.982,30.25,17.5,30.25z M15,29.25h2.5c1.93,0,3.5-1.57,3.5-3.5s-1.57-3.5-3.5-3.5H15V29.25z"/>
	</g>
	<g>
		<path class="st0" d="M26.5,26.25h-3c-0.276,0-0.5-0.224-0.5-0.5s0.224-0.5,0.5-0.5h3c0.276,0,0.5,0.224,0.5,0.5
			S26.776,26.25,26.5,26.25z"/>
	</g>
	<g>
		<path class="st0" d="M36,8.75c-0.276,0-0.5-0.224-0.5-0.5v-4c0-0.276,0.224-0.5,0.5-0.5s0.5,0.224,0.5,0.5v4
			C36.5,8.526,36.276,8.75,36,8.75z"/>
	</g>
	<g>
		<path class="st0" d="M38,6.75h-4c-0.276,0-0.5-0.224-0.5-0.5s0.224-0.5,0.5-0.5h4c0.276,0,0.5,0.224,0.5,0.5S38.276,6.75,38,6.75z
			"/>
	</g>
	<g>
		<path class="st0" d="M28,14.75c-0.276,0-0.5-0.224-0.5-0.5v-4c0-0.276,0.224-0.5,0.5-0.5s0.5,0.224,0.5,0.5v4
			C28.5,14.526,28.276,14.75,28,14.75z"/>
	</g>
	<g>
		<path class="st0" d="M30,12.75h-4c-0.276,0-0.5-0.224-0.5-0.5s0.224-0.5,0.5-0.5h4c0.276,0,0.5,0.224,0.5,0.5
			S30.276,12.75,30,12.75z"/>
	</g>
</g>
</svg>
