<?xml version="1.0" encoding="utf-8"?>
<!-- Generator: Adobe Illustrator 21.1.0, SVG Export Plug-In . SVG Version: 6.00 Build 0)  -->
<svg version="1.1" id="Icon_Set" xmlns="http://www.w3.org/2000/svg" xmlns:xlink="http://www.w3.org/1999/xlink" x="0px" y="0px"
	 viewBox="0 0 64 64" style="enable-background:new 0 0 64 64;" xml:space="preserve">
<style type="text/css">
	.st0{fill:#263238;}
	.st1{fill:#FF5252;}
	.st2{fill:#FFD740;}
	.st3{fill:#40C4FF;}
	.st4{fill:#FFFFFF;}
	.st5{fill:#4DB6AC;}
	.st6{fill:#4FC3F7;}
</style>
<g id="Mechanic">
	<g>
		<path class="st0" d="M16,3h-4c-0.276,0-0.5-0.224-0.5-0.5S11.724,2,12,2h4c0.276,0,0.5,0.224,0.5,0.5S16.276,3,16,3z"/>
	</g>
	<g>
		<path class="st0" d="M14,5c-0.276,0-0.5-0.224-0.5-0.5v-4C13.5,0.224,13.724,0,14,0s0.5,0.224,0.5,0.5v4C14.5,4.776,14.276,5,14,5
			z"/>
	</g>
	<g>
		<path class="st0" d="M9,10H5c-0.276,0-0.5-0.224-0.5-0.5S4.724,9,5,9h4c0.276,0,0.5,0.224,0.5,0.5S9.276,10,9,10z"/>
	</g>
	<g>
		<path class="st0" d="M7,12c-0.276,0-0.5-0.224-0.5-0.5v-4C6.5,7.224,6.724,7,7,7s0.5,0.224,0.5,0.5v4C7.5,11.776,7.276,12,7,12z"
			/>
	</g>
	<g>
		<path class="st0" d="M59,32.5h-1c-0.276,0-0.5-0.224-0.5-0.5s0.224-0.5,0.5-0.5h1c0.276,0,0.5,0.224,0.5,0.5S59.276,32.5,59,32.5z
			"/>
	</g>
	<g>
		<path class="st0" d="M56,32.5H46c-0.276,0-0.5-0.224-0.5-0.5s0.224-0.5,0.5-0.5h10c0.276,0,0.5,0.224,0.5,0.5S56.276,32.5,56,32.5
			z"/>
	</g>
	<g>
		<path class="st0" d="M6,32.5H5c-0.276,0-0.5-0.224-0.5-0.5s0.224-0.5,0.5-0.5h1c0.276,0,0.5,0.224,0.5,0.5S6.276,32.5,6,32.5z"/>
	</g>
	<g>
		<path class="st0" d="M18,32.5H8c-0.276,0-0.5-0.224-0.5-0.5s0.224-0.5,0.5-0.5h10c0.276,0,0.5,0.224,0.5,0.5S18.276,32.5,18,32.5z
			"/>
	</g>
	<g>
		<path class="st0" d="M18,51.5h-8c-0.276,0-0.5-0.224-0.5-0.5s0.224-0.5,0.5-0.5h8c0.276,0,0.5,0.224,0.5,0.5S18.276,51.5,18,51.5z
			"/>
	</g>
	<g>
		<path class="st0" d="M54,51.5h-8c-0.276,0-0.5-0.224-0.5-0.5s0.224-0.5,0.5-0.5h8c0.276,0,0.5,0.224,0.5,0.5S54.276,51.5,54,51.5z
			"/>
	</g>
	<g>
		<path class="st0" d="M54,64c-0.276,0-0.5-0.224-0.5-0.5V48.075c0-4.021-2.547-7.621-6.338-8.958l-9.934-3.506
			c-1.125,1.829-3.049,2.908-5.228,2.908s-4.103-1.079-5.228-2.908l-9.934,3.506c-3.791,1.338-6.338,4.938-6.338,8.958V63.5
			c0,0.276-0.224,0.5-0.5,0.5s-0.5-0.224-0.5-0.5V48.075c0-4.443,2.815-8.423,7.005-9.902l10.328-3.645
			c0.234-0.081,0.494,0.02,0.609,0.239c0.907,1.723,2.611,2.751,4.558,2.751s3.65-1.028,4.558-2.751
			c0.116-0.219,0.376-0.318,0.609-0.239l10.328,3.645c4.19,1.479,7.005,5.458,7.005,9.902V63.5C54.5,63.776,54.276,64,54,64z"/>
	</g>
	<g>
		<path class="st0" d="M22,49h-4c-0.276,0-0.5-0.224-0.5-0.5V38.176c0-0.212,0.134-0.401,0.333-0.472l4-1.412
			c0.152-0.054,0.323-0.03,0.455,0.063c0.133,0.094,0.211,0.246,0.211,0.408V48.5C22.5,48.776,22.276,49,22,49z M18.5,48h3V37.471
			l-3,1.059V48z"/>
	</g>
	<g>
		<path class="st0" d="M46,49h-4c-0.276,0-0.5-0.224-0.5-0.5V36.765c0-0.162,0.079-0.314,0.211-0.408
			c0.132-0.093,0.302-0.118,0.455-0.063l4,1.412c0.2,0.071,0.333,0.26,0.333,0.472V48.5C46.5,48.776,46.276,49,46,49z M42.5,48h3
			v-9.47l-3-1.059V48z"/>
	</g>
	<g>
		<polyline class="st2" points="18,63.5 18,48.5 46,48.5 46,63.5 		"/>
		<path class="st0" d="M46,64c-0.276,0-0.5-0.224-0.5-0.5V49h-27v14.5c0,0.276-0.224,0.5-0.5,0.5s-0.5-0.224-0.5-0.5v-15
			c0-0.276,0.224-0.5,0.5-0.5h28c0.276,0,0.5,0.224,0.5,0.5v15C46.5,63.776,46.276,64,46,64z"/>
	</g>
	<g>
		<path class="st0" d="M36,56h-8c-0.276,0-0.5-0.224-0.5-0.5v-4c0-0.276,0.224-0.5,0.5-0.5h8c0.276,0,0.5,0.224,0.5,0.5v4
			C36.5,55.776,36.276,56,36,56z M28.5,55h7v-3h-7V55z"/>
	</g>
	<g>
		<path class="st0" d="M37,35.5c-0.276,0-0.5-0.224-0.5-0.5v-3.833c0-0.276,0.224-0.5,0.5-0.5s0.5,0.224,0.5,0.5V35
			C37.5,35.276,37.276,35.5,37,35.5z"/>
	</g>
	<g>
		<path class="st0" d="M27,35.5c-0.276,0-0.5-0.224-0.5-0.5v-3.833c0-0.276,0.224-0.5,0.5-0.5s0.5,0.224,0.5,0.5V35
			C27.5,35.276,27.276,35.5,27,35.5z"/>
	</g>
	<g>
		<path class="st3" d="M44,17H20v-1c0-5.523,4.477-10,10-10h4c5.523,0,10,4.477,10,10V17z"/>
		<path class="st0" d="M44,17.5H20c-0.276,0-0.5-0.224-0.5-0.5v-1c0-5.79,4.71-10.5,10.5-10.5h4c5.79,0,10.5,4.71,10.5,10.5v1
			C44.5,17.276,44.276,17.5,44,17.5z M20.5,16.5h23V16c0-5.238-4.262-9.5-9.5-9.5h-4c-5.238,0-9.5,4.262-9.5,9.5V16.5z"/>
	</g>
	<g>
		<path class="st0" d="M33,32.5h-2c-5.28,0-9.677-3.854-10.397-9.033C18.833,23.251,17.5,21.778,17.5,20c0-1.93,1.57-3.5,3.5-3.5h22
			c1.93,0,3.5,1.57,3.5,3.5c0,1.796-1.36,3.281-3.104,3.478C42.671,28.651,38.277,32.5,33,32.5z M21.015,22.5
			c0.257,0,0.507,0.189,0.533,0.445C22.03,27.822,26.093,31.5,31,31.5h2c4.907,0,8.97-3.678,9.452-8.555
			c0.026-0.261,0.213-0.438,0.512-0.451c0.003,0,0.007,0,0.01,0c1.41,0,2.526-1.119,2.526-2.495c0-1.378-1.122-2.5-2.5-2.5H21
			c-1.378,0-2.5,1.122-2.5,2.5s1.122,2.5,2.5,2.5C21.005,22.5,21.01,22.5,21.015,22.5z"/>
	</g>
	<g>
		<path class="st3" d="M38.324,21.5H25.676c-1.672,0-3.233-0.836-4.16-2.226L20,17h24l-1.516,2.274
			C41.557,20.664,39.996,21.5,38.324,21.5z"/>
		<path class="st0" d="M38.324,22H25.676c-1.843,0-3.554-0.916-4.576-2.449l-1.516-2.273c-0.102-0.153-0.112-0.351-0.025-0.513
			S19.815,16.5,20,16.5h24c0.185,0,0.354,0.102,0.441,0.264s0.077,0.36-0.025,0.513L42.9,19.551C41.878,21.084,40.167,22,38.324,22z
			 M20.934,17.5l0.998,1.496C22.768,20.251,24.167,21,25.676,21h12.648c1.508,0,2.908-0.749,3.744-2.004l0.998-1.496H20.934z"/>
	</g>
	<g>
		<path class="st0" d="M32,28.5c-1.663,0-3.22-0.774-4.385-2.181c-0.176-0.212-0.146-0.528,0.066-0.704
			c0.212-0.176,0.528-0.146,0.704,0.066C29.357,26.854,30.641,27.5,32,27.5s2.643-0.646,3.615-1.819
			c0.177-0.212,0.492-0.243,0.704-0.066c0.213,0.176,0.242,0.492,0.066,0.704C35.22,27.726,33.663,28.5,32,28.5z"/>
	</g>
	<g>
		<path class="st4" d="M35,14h-6c-0.828,0-1.5-0.672-1.5-1.5v0c0-0.828,0.672-1.5,1.5-1.5h6c0.828,0,1.5,0.672,1.5,1.5v0
			C36.5,13.328,35.828,14,35,14z"/>
		<path class="st0" d="M35,14.5h-6c-1.103,0-2-0.897-2-2s0.897-2,2-2h6c1.103,0,2,0.897,2,2S36.103,14.5,35,14.5z M29,11.5
			c-0.551,0-1,0.449-1,1s0.449,1,1,1h6c0.551,0,1-0.449,1-1s-0.449-1-1-1H29z"/>
	</g>
</g>
</svg>
