<?xml version="1.0" encoding="utf-8"?>
<!-- Generator: Adobe Illustrator 21.1.0, SVG Export Plug-In . SVG Version: 6.00 Build 0)  -->
<svg version="1.1" id="Icon_Set" xmlns="http://www.w3.org/2000/svg" xmlns:xlink="http://www.w3.org/1999/xlink" x="0px" y="0px"
	 viewBox="0 0 64 64" style="enable-background:new 0 0 64 64;" xml:space="preserve">
<style type="text/css">
	.st0{fill:#263238;}
	.st1{fill:#FF5252;}
	.st2{fill:#FFD740;}
	.st3{fill:#40C4FF;}
	.st4{fill:#FFFFFF;}
	.st5{fill:#4DB6AC;}
	.st6{fill:#4FC3F7;}
</style>
<g id="Painting_Work">
	<g>
		<path class="st3" d="M57,22H23c-1.381,0-2.5,1.119-2.5,2.5v13c0,1.381,1.119,2.5,2.5,2.5h14.649h2.124l5.133,14.342
			C45.262,55.337,46.204,56,47.26,56H58.13c0.677,0,1.159-0.66,0.952-1.305L54.38,40h2.1H57c1.381,0,2.5-1.119,2.5-2.5v-13
			C59.5,23.119,58.381,22,57,22z"/>
	</g>
	<g>
		<path class="st0" d="M57,40.5h-0.521c-0.276,0-0.5-0.224-0.5-0.5s0.224-0.5,0.5-0.5H57c1.103,0,2-0.897,2-2v-13
			c0-1.103-0.897-2-2-2H23c-1.103,0-2,0.897-2,2v13c0,1.103,0.897,2,2,2h14.649c0.276,0,0.5,0.224,0.5,0.5s-0.224,0.5-0.5,0.5H23
			c-1.654,0-3-1.346-3-3v-13c0-1.654,1.346-3,3-3h34c1.654,0,3,1.346,3,3v13C60,39.154,58.654,40.5,57,40.5z"/>
	</g>
	<g>
		<path class="st0" d="M36,18h-6.5c-3.033,0-5.5-2.468-5.5-5.5V3c0-1.654,1.346-3,3-3h11.5c1.654,0,3,1.346,3,3v9.5
			C41.5,15.532,39.033,18,36,18z M27,1c-1.103,0-2,0.897-2,2v9.5c0,2.481,2.019,4.5,4.5,4.5H36c2.481,0,4.5-2.019,4.5-4.5V3
			c0-1.103-0.897-2-2-2H27z"/>
	</g>
	<g>
		<path class="st0" d="M18.5,34.5H14c-0.827,0-1.5-0.673-1.5-1.5v-4c0-0.827,0.673-1.5,1.5-1.5h4.5c0.276,0,0.5,0.224,0.5,0.5
			s-0.224,0.5-0.5,0.5H14c-0.276,0-0.5,0.225-0.5,0.5v4c0,0.275,0.224,0.5,0.5,0.5h4.5c0.276,0,0.5,0.224,0.5,0.5
			S18.776,34.5,18.5,34.5z"/>
	</g>
	<g>
		<path class="st0" d="M62.5,29.5h-1c-0.276,0-0.5-0.224-0.5-0.5s0.224-0.5,0.5-0.5h1c0.276,0,0.5-0.225,0.5-0.5v-2
			c0-0.275-0.224-0.5-0.5-0.5h-1c-0.276,0-0.5-0.224-0.5-0.5s0.224-0.5,0.5-0.5h1c0.827,0,1.5,0.673,1.5,1.5v2
			C64,28.827,63.327,29.5,62.5,29.5z"/>
	</g>
	<g>
		<path class="st0" d="M55.698,59.5h-5.86c-1.005,0-1.938-0.499-2.496-1.336l-1.258-1.887c-0.102-0.153-0.112-0.351-0.025-0.514
			c0.087-0.162,0.256-0.264,0.441-0.264h12c0.161,0,0.312,0.077,0.406,0.208c0.094,0.13,0.12,0.298,0.068,0.45l-0.43,1.291
			C58.135,58.676,56.991,59.5,55.698,59.5z M47.434,56.5l0.74,1.109c0.372,0.558,0.994,0.891,1.664,0.891h5.86
			c0.862,0,1.625-0.55,1.898-1.367l0.21-0.633H47.434z"/>
	</g>
	<g>
		<path class="st0" d="M58.13,56.5H47.26c-1.264,0-2.399-0.799-2.824-1.989l-5.614-15.685c-0.284-0.794-1.04-1.326-1.883-1.326H22.5
			c-0.276,0-0.5-0.224-0.5-0.5s0.224-0.5,0.5-0.5h14.439c1.264,0,2.399,0.799,2.824,1.989l5.614,15.685
			c0.284,0.794,1.04,1.326,1.883,1.326h10.87c0.162,0,0.309-0.075,0.404-0.205c0.095-0.131,0.122-0.293,0.072-0.447l-7.583-23.695
			c-0.084-0.263,0.061-0.544,0.324-0.629c0.263-0.082,0.544,0.062,0.628,0.324l7.583,23.695c0.148,0.461,0.069,0.95-0.217,1.342
			C59.056,56.275,58.614,56.5,58.13,56.5z"/>
	</g>
	<g>
		<path class="st0" d="M35,20.5c-0.276,0-0.5-0.224-0.5-0.5v-2.5c0-0.276,0.224-0.5,0.5-0.5s0.5,0.224,0.5,0.5V20
			C35.5,20.276,35.276,20.5,35,20.5z"/>
	</g>
	<g>
		<path class="st0" d="M30.5,20.5c-0.276,0-0.5-0.224-0.5-0.5v-2.5c0-0.276,0.224-0.5,0.5-0.5s0.5,0.224,0.5,0.5V20
			C31,20.276,30.776,20.5,30.5,20.5z"/>
	</g>
	<g>
		<path class="st0" d="M1.5,31.5h-1C0.224,31.5,0,31.276,0,31s0.224-0.5,0.5-0.5h1C1.776,30.5,2,30.724,2,31S1.776,31.5,1.5,31.5z"
			/>
	</g>
	<g>
		<path class="st0" d="M11,31.5H3.5C3.224,31.5,3,31.276,3,31s0.224-0.5,0.5-0.5H11c0.276,0,0.5,0.224,0.5,0.5S11.276,31.5,11,31.5z
			"/>
	</g>
	<g>
		<path class="st0" d="M0.899,38.519c-0.196,0-0.382-0.116-0.462-0.309c-0.105-0.255,0.016-0.548,0.271-0.653l0.924-0.383
			c0.253-0.105,0.548,0.016,0.653,0.271c0.105,0.255-0.016,0.548-0.271,0.653L1.091,38.48C1.028,38.507,0.963,38.519,0.899,38.519z"
			/>
	</g>
	<g>
		<path class="st0" d="M3.671,37.37c-0.196,0-0.382-0.116-0.462-0.309c-0.105-0.255,0.016-0.548,0.271-0.653l6.929-2.87
			c0.255-0.106,0.548,0.016,0.653,0.271s-0.016,0.548-0.271,0.653l-6.929,2.87C3.8,37.358,3.735,37.37,3.671,37.37z"/>
	</g>
	<g>
		<path class="st0" d="M1.823,24.864c-0.064,0-0.129-0.012-0.191-0.038l-0.924-0.383c-0.255-0.105-0.376-0.398-0.271-0.653
			s0.4-0.377,0.653-0.271l0.924,0.383c0.255,0.105,0.376,0.398,0.271,0.653C2.206,24.748,2.019,24.864,1.823,24.864z"/>
	</g>
	<g>
		<path class="st0" d="M10.6,28.5c-0.064,0-0.129-0.012-0.191-0.038l-6.929-2.87c-0.255-0.105-0.376-0.398-0.271-0.653
			s0.398-0.377,0.653-0.271l6.929,2.87c0.255,0.105,0.376,0.398,0.271,0.653C10.982,28.384,10.796,28.5,10.6,28.5z"/>
	</g>
	<g>
		<path class="st0" d="M55.5,28.5h-7c-0.827,0-1.5-0.673-1.5-1.5v-1c0-0.827,0.673-1.5,1.5-1.5h7c0.827,0,1.5,0.673,1.5,1.5v1
			C57,27.827,56.327,28.5,55.5,28.5z M48.5,25.5c-0.276,0-0.5,0.225-0.5,0.5v1c0,0.275,0.224,0.5,0.5,0.5h7
			c0.276,0,0.5-0.225,0.5-0.5v-1c0-0.275-0.224-0.5-0.5-0.5H48.5z"/>
	</g>
	<g>
		<path class="st0" d="M50.5,64h-30c-0.276,0-0.5-0.224-0.5-0.5s0.224-0.5,0.5-0.5h30c1.103,0,2-0.897,2-2v-2
			c0-0.276,0.224-0.5,0.5-0.5s0.5,0.224,0.5,0.5v2C53.5,62.654,52.154,64,50.5,64z"/>
	</g>
	<g>
		<path class="st2" d="M36,17.5h-6.5c-2.761,0-5-2.239-5-5v-6H41v6C41,15.261,38.761,17.5,36,17.5z"/>
		<path class="st0" d="M36,18h-6.5c-3.033,0-5.5-2.468-5.5-5.5v-6C24,6.224,24.224,6,24.5,6H41c0.276,0,0.5,0.224,0.5,0.5v6
			C41.5,15.532,39.033,18,36,18z M25,7v5.5c0,2.481,2.019,4.5,4.5,4.5H36c2.481,0,4.5-2.019,4.5-4.5V7H25z"/>
	</g>
	<g>
		<path class="st0" d="M40.495,49.5h-4.501c-0.479,0-0.918-0.221-1.204-0.604c-0.286-0.385-0.371-0.868-0.233-1.326l1.093-3.643V42
			c0-0.276,0.224-0.5,0.5-0.5s0.5,0.224,0.5,0.5v2c0,0.049-0.007,0.097-0.021,0.144l-1.114,3.713
			c-0.046,0.153-0.018,0.314,0.077,0.442s0.242,0.201,0.401,0.201h4.501c0.276,0,0.5,0.224,0.5,0.5S40.771,49.5,40.495,49.5z"/>
	</g>
	<g>
		<path class="st0" d="M35.5,15c-0.276,0-0.5-0.224-0.5-0.5s0.224-0.5,0.5-0.5c1.103,0,2-0.897,2-2V9.5C37.5,9.224,37.724,9,38,9
			s0.5,0.224,0.5,0.5V12C38.5,13.654,37.154,15,35.5,15z"/>
	</g>
	<g>
		<path class="st0" d="M15.5,34.5c-0.276,0-0.5-0.224-0.5-0.5v-6c0-0.276,0.224-0.5,0.5-0.5S16,27.724,16,28v6
			C16,34.276,15.776,34.5,15.5,34.5z"/>
	</g>
	<g>
		<path class="st0" d="M59,7.5c-0.276,0-0.5-0.224-0.5-0.5V3c0-0.276,0.224-0.5,0.5-0.5s0.5,0.224,0.5,0.5v4
			C59.5,7.276,59.276,7.5,59,7.5z"/>
	</g>
	<g>
		<path class="st0" d="M61,5.5h-4c-0.276,0-0.5-0.224-0.5-0.5s0.224-0.5,0.5-0.5h4c0.276,0,0.5,0.224,0.5,0.5S61.276,5.5,61,5.5z"/>
	</g>
	<g>
		<path class="st0" d="M51,13.5c-0.276,0-0.5-0.224-0.5-0.5V9c0-0.276,0.224-0.5,0.5-0.5s0.5,0.224,0.5,0.5v4
			C51.5,13.276,51.276,13.5,51,13.5z"/>
	</g>
	<g>
		<path class="st0" d="M53,11.5h-4c-0.276,0-0.5-0.224-0.5-0.5s0.224-0.5,0.5-0.5h4c0.276,0,0.5,0.224,0.5,0.5S53.276,11.5,53,11.5z
			"/>
	</g>
</g>
</svg>
