<?xml version="1.0" encoding="utf-8"?>
<!-- Generator: Adobe Illustrator 21.1.0, SVG Export Plug-In . SVG Version: 6.00 Build 0)  -->
<svg version="1.1" id="Icon_Set" xmlns="http://www.w3.org/2000/svg" xmlns:xlink="http://www.w3.org/1999/xlink" x="0px" y="0px"
	 viewBox="0 0 64 64" style="enable-background:new 0 0 64 64;" xml:space="preserve">
<style type="text/css">
	.st0{fill:#263238;}
	.st1{fill:#FF5252;}
	.st2{fill:#FFD740;}
	.st3{fill:#40C4FF;}
	.st4{fill:#FFFFFF;}
	.st5{fill:#4DB6AC;}
	.st6{fill:#4FC3F7;}
</style>
<g id="Push_Start">
	<g>
		<path class="st0" d="M36.998,61.5h-10c-0.276,0-0.5-0.224-0.5-0.5s0.224-0.5,0.5-0.5h10c0.276,0,0.5,0.224,0.5,0.5
			S37.274,61.5,36.998,61.5z"/>
	</g>
	<g>
		<path class="st2" d="M23.062,32.774c1.146-2.429,3.614-4.024,6.318-4.024h4c2.704,0,5.173,1.595,6.318,4.024
			c1.348,1.122,2.418,2.482,3.203,3.985c0.94-1.798,1.479-3.839,1.479-6.009c0-7.18-5.82-13-13-13s-13,5.82-13,13
			c0,2.17,0.539,4.211,1.479,6.009C20.644,35.256,21.714,33.896,23.062,32.774z"/>
	</g>
	<g>
		<path class="st0" d="M44.38,47.735c-0.147,0-0.294-0.065-0.393-0.19c-0.171-0.216-0.134-0.531,0.083-0.702
			c6.438-5.082,9.228-13.48,7.106-21.396C48.252,14.53,36.99,8.032,26.076,10.954C15.16,13.878,8.659,25.139,11.584,36.055
			c1.146,4.276,3.603,7.997,7.105,10.759c0.217,0.171,0.254,0.485,0.083,0.702c-0.171,0.217-0.484,0.254-0.702,0.083
			c-3.673-2.897-6.25-6.8-7.453-11.286c-1.485-5.546-0.723-11.338,2.147-16.311c2.871-4.973,7.506-8.529,13.052-10.015
			c11.449-3.066,23.258,3.751,26.327,15.199c2.224,8.302-0.702,17.111-7.454,22.44C44.598,47.7,44.488,47.735,44.38,47.735z"/>
	</g>
	<g>
		<path class="st0" d="M4.213,24.467c-0.04,0-0.08-0.005-0.121-0.015c-0.268-0.067-0.431-0.338-0.364-0.606
			C5.299,17.538,8.861,12.106,14.03,8.14c0.218-0.169,0.531-0.128,0.701,0.092c0.168,0.219,0.127,0.533-0.092,0.701
			c-4.988,3.828-8.426,9.068-9.941,15.155C4.642,24.315,4.437,24.467,4.213,24.467z"/>
	</g>
	<g>
		<path class="st0" d="M3.621,27.596c-0.021,0-0.043-0.001-0.065-0.004c-0.273-0.036-0.467-0.287-0.432-0.561
			c0.047-0.36,0.102-0.72,0.162-1.078c0.047-0.272,0.313-0.449,0.577-0.41c0.271,0.046,0.455,0.304,0.409,0.577
			c-0.059,0.345-0.111,0.692-0.156,1.04C4.083,27.412,3.868,27.596,3.621,27.596z"/>
	</g>
	<g>
		<path class="st0" d="M48.426,53.464c-0.149,0-0.298-0.067-0.396-0.196c-0.168-0.219-0.127-0.533,0.092-0.701
			c4.987-3.827,8.425-9.067,9.941-15.155c0.066-0.268,0.334-0.429,0.606-0.364c0.268,0.067,0.431,0.338,0.364,0.606
			c-1.572,6.309-5.135,11.74-10.303,15.706C48.64,53.43,48.532,53.464,48.426,53.464z"/>
	</g>
	<g>
		<path class="st0" d="M58.982,35.963c-0.028,0-0.057-0.002-0.085-0.007c-0.271-0.046-0.455-0.304-0.409-0.577
			c0.059-0.345,0.111-0.692,0.156-1.04c0.036-0.274,0.276-0.46,0.561-0.432c0.273,0.036,0.467,0.287,0.432,0.561
			c-0.047,0.36-0.102,0.72-0.162,1.078C59.433,35.791,59.222,35.963,58.982,35.963z"/>
	</g>
	<g>
		<path class="st0" d="M35.88,45.25h-9c-1.654,0-3-1.346-3-3v-6.5c0-3.033,2.468-5.5,5.5-5.5h4c3.032,0,5.5,2.467,5.5,5.5v6.5
			C38.88,43.904,37.534,45.25,35.88,45.25z M29.38,31.25c-2.481,0-4.5,2.019-4.5,4.5v6.5c0,1.103,0.897,2,2,2h9c1.103,0,2-0.897,2-2
			v-6.5c0-2.481-2.019-4.5-4.5-4.5H29.38z"/>
	</g>
	<g>
		<path class="st0" d="M42.38,62.75c-0.276,0-0.5-0.224-0.5-0.5v-19.5c0-3.286-1.505-6.323-4.129-8.333
			c-0.22-0.168-0.261-0.482-0.093-0.701c0.167-0.219,0.481-0.26,0.7-0.093c2.874,2.2,4.521,5.527,4.521,9.126v19.5
			C42.88,62.526,42.656,62.75,42.38,62.75z"/>
	</g>
	<g>
		<path class="st0" d="M20.38,62.75c-0.276,0-0.5-0.224-0.5-0.5v-19.5c0-3.599,1.648-6.926,4.522-9.126
			c0.219-0.167,0.533-0.126,0.7,0.093c0.168,0.219,0.127,0.533-0.093,0.701c-2.624,2.01-4.13,5.047-4.13,8.333v19.5
			C20.88,62.526,20.656,62.75,20.38,62.75z"/>
	</g>
	<g>
		<path class="st0" d="M44.55,40.297c-0.098,0-0.196-0.028-0.283-0.088c-0.228-0.156-0.285-0.468-0.129-0.695
			c2.575-3.75,3.382-8.407,2.211-12.775c-2.211-8.254-10.729-13.167-18.979-10.958c-8.253,2.211-13.169,10.726-10.957,18.979
			c0.446,1.667,1.19,3.264,2.211,4.745c0.156,0.228,0.099,0.539-0.129,0.695c-0.224,0.156-0.537,0.1-0.695-0.128
			c-1.085-1.576-1.877-3.276-2.354-5.054c-2.354-8.786,2.879-17.85,11.664-20.204c8.791-2.354,17.851,2.879,20.205,11.665
			c1.246,4.651,0.388,9.608-2.354,13.6C44.865,40.222,44.709,40.297,44.55,40.297z"/>
	</g>
	<g>
		<path class="st4" d="M58.916,3.75c1.953,1.953,1.953,5.118,0,7.071s-5.118,1.953-7.071,0s-1.953-5.118,0-7.071"/>
		<path class="st0" d="M55.38,12.783c-1.408,0-2.816-0.536-3.889-1.608c-2.144-2.145-2.144-5.634,0-7.778
			c0.195-0.195,0.512-0.195,0.707,0s0.195,0.512,0,0.707c-1.754,1.754-1.754,4.61,0,6.364c1.755,1.755,4.611,1.752,6.364,0
			c1.754-1.754,1.754-4.61,0-6.364c-0.195-0.195-0.195-0.512,0-0.707c0.195-0.195,0.512-0.195,0.707,0
			c2.144,2.145,2.144,5.634,0,7.778C58.197,12.247,56.789,12.783,55.38,12.783z"/>
	</g>
	<g>
		<path class="st0" d="M55.38,8.518c-0.276,0-0.5-0.224-0.5-0.5V1.75c0-0.276,0.224-0.5,0.5-0.5s0.5,0.224,0.5,0.5v6.268
			C55.88,8.294,55.656,8.518,55.38,8.518z"/>
	</g>
	<g>
		<path class="st0" d="M37.378,55.25h-12c-0.276,0-0.5-0.224-0.5-0.5s0.224-0.5,0.5-0.5h12c0.276,0,0.5,0.224,0.5,0.5
			S37.654,55.25,37.378,55.25z"/>
	</g>
	<g>
		<path class="st4" d="M36.38,26.75h-10c-0.552,0-1-0.448-1-1v-2c0-0.552,0.448-1,1-1h10c0.552,0,1,0.448,1,1v2
			C37.38,26.302,36.933,26.75,36.38,26.75z"/>
		<path class="st0" d="M36.38,27.25h-10c-0.827,0-1.5-0.673-1.5-1.5v-2c0-0.827,0.673-1.5,1.5-1.5h10c0.827,0,1.5,0.673,1.5,1.5v2
			C37.88,26.577,37.207,27.25,36.38,27.25z M26.38,23.25c-0.275,0-0.5,0.224-0.5,0.5v2c0,0.276,0.225,0.5,0.5,0.5h10
			c0.275,0,0.5-0.224,0.5-0.5v-2c0-0.276-0.225-0.5-0.5-0.5H26.38z"/>
	</g>
	<g>
		<path class="st0" d="M42.901,37.259c-0.078,0-0.158-0.018-0.231-0.057c-0.245-0.128-0.34-0.43-0.212-0.675
			c0.943-1.804,1.422-3.748,1.422-5.777c0-6.893-5.607-12.5-12.5-12.5s-12.5,5.607-12.5,12.5c0,2.029,0.479,3.973,1.423,5.777
			c0.128,0.245,0.033,0.547-0.212,0.675c-0.241,0.129-0.546,0.034-0.675-0.211c-1.02-1.95-1.536-4.049-1.536-6.241
			c0-7.444,6.056-13.5,13.5-13.5s13.5,6.056,13.5,13.5c0,2.193-0.517,4.292-1.535,6.241C43.255,37.162,43.081,37.259,42.901,37.259z
			"/>
	</g>
</g>
</svg>
