<?xml version="1.0" encoding="utf-8"?>
<!-- Generator: Adobe Illustrator 21.1.0, SVG Export Plug-In . SVG Version: 6.00 Build 0)  -->
<svg version="1.1" id="Icon_Set" xmlns="http://www.w3.org/2000/svg" xmlns:xlink="http://www.w3.org/1999/xlink" x="0px" y="0px"
	 viewBox="0 0 64 64" style="enable-background:new 0 0 64 64;" xml:space="preserve">
<style type="text/css">
	.st0{fill:#263238;}
	.st1{fill:#FF5252;}
	.st2{fill:#FFD740;}
	.st3{fill:#40C4FF;}
	.st4{fill:#FFFFFF;}
	.st5{fill:#4DB6AC;}
	.st6{fill:#4FC3F7;}
</style>
<g id="Radiator">
	<g>
		<path class="st3" d="M60,15H4c-0.552,0-1,0.448-1,1v4c0,0.552,0.448,1,1,1h56c0.552,0,1-0.448,1-1v-4C61,15.448,60.552,15,60,15z"
			/>
		<path class="st0" d="M60,21.5H4c-0.827,0-1.5-0.673-1.5-1.5v-4c0-0.827,0.673-1.5,1.5-1.5h56c0.827,0,1.5,0.673,1.5,1.5v4
			C61.5,20.828,60.827,21.5,60,21.5z M4,15.5c-0.275,0-0.5,0.224-0.5,0.5v4c0,0.276,0.225,0.5,0.5,0.5h56c0.275,0,0.5-0.224,0.5-0.5
			v-4c0-0.276-0.225-0.5-0.5-0.5H4z"/>
	</g>
	<g>
		<path class="st0" d="M34.5,13.5c-0.166,0-0.329-0.083-0.424-0.235l-2.206-3.53C31.778,9.588,31.619,9.5,31.445,9.5H12.555
			c-0.174,0-0.333,0.088-0.425,0.235l-2.206,3.53c-0.146,0.235-0.456,0.305-0.688,0.159c-0.234-0.146-0.306-0.455-0.159-0.689
			l2.206-3.53C11.558,8.764,12.034,8.5,12.555,8.5h18.891c0.521,0,0.997,0.263,1.272,0.705l2.206,3.53
			c0.146,0.234,0.075,0.543-0.159,0.689C34.683,13.476,34.591,13.5,34.5,13.5z"/>
	</g>
	<g>
		<path class="st2" d="M21,4h-8c-0.552,0-1,0.448-1,1v4h10V5C22,4.448,21.552,4,21,4z"/>
		<path class="st0" d="M22,9.5H12c-0.276,0-0.5-0.224-0.5-0.5V5c0-0.827,0.673-1.5,1.5-1.5h8c0.827,0,1.5,0.673,1.5,1.5v4
			C22.5,9.277,22.276,9.5,22,9.5z M12.5,8.5h9V5c0-0.276-0.225-0.5-0.5-0.5h-8c-0.275,0-0.5,0.224-0.5,0.5V8.5z"/>
	</g>
	<g>
		<path class="st0" d="M4.5,50.5C4.224,50.5,4,50.277,4,50V23c0-0.276,0.224-0.5,0.5-0.5S5,22.724,5,23v27
			C5,50.277,4.776,50.5,4.5,50.5z"/>
	</g>
	<g>
		<path class="st0" d="M59.5,50.5c-0.276,0-0.5-0.224-0.5-0.5V23c0-0.276,0.224-0.5,0.5-0.5S60,22.724,60,23v27
			C60,50.277,59.776,50.5,59.5,50.5z"/>
	</g>
	<g>
		<path class="st0" d="M9.5,50.5C9.224,50.5,9,50.277,9,50V23c0-0.276,0.224-0.5,0.5-0.5S10,22.724,10,23v27
			C10,50.277,9.776,50.5,9.5,50.5z"/>
	</g>
	<g>
		<path class="st0" d="M14.5,50.5c-0.276,0-0.5-0.224-0.5-0.5V23c0-0.276,0.224-0.5,0.5-0.5S15,22.724,15,23v27
			C15,50.277,14.776,50.5,14.5,50.5z"/>
	</g>
	<g>
		<path class="st0" d="M19.5,50.5c-0.276,0-0.5-0.224-0.5-0.5V23c0-0.276,0.224-0.5,0.5-0.5S20,22.724,20,23v27
			C20,50.277,19.776,50.5,19.5,50.5z"/>
	</g>
	<g>
		<path class="st0" d="M24.5,50.5c-0.276,0-0.5-0.224-0.5-0.5V23c0-0.276,0.224-0.5,0.5-0.5S25,22.724,25,23v27
			C25,50.277,24.776,50.5,24.5,50.5z"/>
	</g>
	<g>
		<path class="st0" d="M29.5,50.5c-0.276,0-0.5-0.224-0.5-0.5V23c0-0.276,0.224-0.5,0.5-0.5S30,22.724,30,23v27
			C30,50.277,29.776,50.5,29.5,50.5z"/>
	</g>
	<g>
		<path class="st0" d="M34.5,50.5c-0.276,0-0.5-0.224-0.5-0.5V23c0-0.276,0.224-0.5,0.5-0.5S35,22.724,35,23v27
			C35,50.277,34.776,50.5,34.5,50.5z"/>
	</g>
	<g>
		<path class="st0" d="M39.5,50.5c-0.276,0-0.5-0.224-0.5-0.5V23c0-0.276,0.224-0.5,0.5-0.5S40,22.724,40,23v27
			C40,50.277,39.776,50.5,39.5,50.5z"/>
	</g>
	<g>
		<path class="st0" d="M44.5,50.5c-0.276,0-0.5-0.224-0.5-0.5V23c0-0.276,0.224-0.5,0.5-0.5S45,22.724,45,23v27
			C45,50.277,44.776,50.5,44.5,50.5z"/>
	</g>
	<g>
		<path class="st0" d="M49.5,50.5c-0.276,0-0.5-0.224-0.5-0.5V23c0-0.276,0.224-0.5,0.5-0.5S50,22.724,50,23v27
			C50,50.277,49.776,50.5,49.5,50.5z"/>
	</g>
	<g>
		<path class="st0" d="M54.5,50.5c-0.276,0-0.5-0.224-0.5-0.5V23c0-0.276,0.224-0.5,0.5-0.5S55,22.724,55,23v27
			C55,50.277,54.776,50.5,54.5,50.5z"/>
	</g>
	<g>
		<path class="st3" d="M60,52H4c-0.552,0-1,0.448-1,1v4c0,0.552,0.448,1,1,1h56c0.552,0,1-0.448,1-1v-4C61,52.448,60.552,52,60,52z"
			/>
		<path class="st0" d="M60,58.5H4c-0.827,0-1.5-0.673-1.5-1.5v-4c0-0.827,0.673-1.5,1.5-1.5h56c0.827,0,1.5,0.673,1.5,1.5v4
			C61.5,57.828,60.827,58.5,60,58.5z M4,52.5c-0.275,0-0.5,0.224-0.5,0.5v4c0,0.276,0.225,0.5,0.5,0.5h56c0.275,0,0.5-0.224,0.5-0.5
			v-4c0-0.276-0.225-0.5-0.5-0.5H4z"/>
	</g>
	<g>
		<circle class="st4" cx="54.5" cy="55" r="2"/>
		<path class="st0" d="M54.5,57.5c-1.379,0-2.5-1.122-2.5-2.5s1.121-2.5,2.5-2.5S57,53.622,57,55S55.879,57.5,54.5,57.5z M54.5,53.5
			c-0.827,0-1.5,0.673-1.5,1.5s0.673,1.5,1.5,1.5S56,55.828,56,55S55.327,53.5,54.5,53.5z"/>
	</g>
	<g>
		<circle class="st4" cx="32" cy="18" r="3"/>
		<path class="st0" d="M32,21.5c-1.93,0-3.5-1.57-3.5-3.5s1.57-3.5,3.5-3.5s3.5,1.57,3.5,3.5S33.93,21.5,32,21.5z M32,15.5
			c-1.379,0-2.5,1.122-2.5,2.5s1.121,2.5,2.5,2.5s2.5-1.122,2.5-2.5S33.379,15.5,32,15.5z"/>
	</g>
	<g>
		<path class="st0" d="M24,62.5h-1c-0.276,0-0.5-0.224-0.5-0.5s0.224-0.5,0.5-0.5h1c0.276,0,0.5,0.224,0.5,0.5S24.276,62.5,24,62.5z
			"/>
	</g>
	<g>
		<path class="st0" d="M41,62.5H26c-0.276,0-0.5-0.224-0.5-0.5s0.224-0.5,0.5-0.5h15c0.276,0,0.5,0.224,0.5,0.5S41.276,62.5,41,62.5
			z"/>
	</g>
	<g>
		<path class="st0" d="M44,6.5c-0.276,0-0.5-0.224-0.5-0.5V2c0-0.276,0.224-0.5,0.5-0.5s0.5,0.224,0.5,0.5v4
			C44.5,6.277,44.276,6.5,44,6.5z"/>
	</g>
	<g>
		<path class="st0" d="M46,4.5h-4c-0.276,0-0.5-0.224-0.5-0.5s0.224-0.5,0.5-0.5h4c0.276,0,0.5,0.224,0.5,0.5S46.276,4.5,46,4.5z"/>
	</g>
	<g>
		<path class="st0" d="M52,10.5c-0.276,0-0.5-0.224-0.5-0.5V6c0-0.276,0.224-0.5,0.5-0.5s0.5,0.224,0.5,0.5v4
			C52.5,10.277,52.276,10.5,52,10.5z"/>
	</g>
	<g>
		<path class="st0" d="M54,8.5h-4c-0.276,0-0.5-0.224-0.5-0.5s0.224-0.5,0.5-0.5h4c0.276,0,0.5,0.224,0.5,0.5S54.276,8.5,54,8.5z"/>
	</g>
</g>
</svg>
