<?xml version="1.0" encoding="utf-8"?>
<!-- Generator: Adobe Illustrator 21.1.0, SVG Export Plug-In . SVG Version: 6.00 Build 0)  -->
<svg version="1.1" id="Icon_Set" xmlns="http://www.w3.org/2000/svg" xmlns:xlink="http://www.w3.org/1999/xlink" x="0px" y="0px"
	 viewBox="0 0 64 64" style="enable-background:new 0 0 64 64;" xml:space="preserve">
<style type="text/css">
	.st0{fill:#263238;}
	.st1{fill:#FF5252;}
	.st2{fill:#FFD740;}
	.st3{fill:#40C4FF;}
	.st4{fill:#FFFFFF;}
	.st5{fill:#4DB6AC;}
	.st6{fill:#4FC3F7;}
</style>
<g id="Safety_Belts">
	<g>
		<g>
			<path class="st0" d="M16.001,2h-4c-0.276,0-0.5,0.224-0.5,0.5s0.224,0.5,0.5,0.5h4c0.276,0,0.5-0.224,0.5-0.5S16.277,2,16.001,2z
				"/>
		</g>
	</g>
	<g>
		<g>
			<path class="st0" d="M14.001,0c-0.276,0-0.5,0.224-0.5,0.5v4c0,0.276,0.224,0.5,0.5,0.5s0.5-0.224,0.5-0.5v-4
				C14.501,0.224,14.277,0,14.001,0z"/>
		</g>
	</g>
	<g>
		<g>
			<path class="st0" d="M9.001,9h-4c-0.276,0-0.5,0.224-0.5,0.5s0.224,0.5,0.5,0.5h4c0.276,0,0.5-0.224,0.5-0.5S9.277,9,9.001,9z"/>
		</g>
	</g>
	<g>
		<g>
			<path class="st0" d="M7.001,7c-0.276,0-0.5,0.224-0.5,0.5l0,4C6.5,11.776,6.724,12,7,12c0.276,0,0.5-0.224,0.5-0.5l0-4
				C7.501,7.225,7.277,7,7.001,7z"/>
		</g>
	</g>
	<g>
		<g>
			<path class="st0" d="M59.001,31.5h-1c-0.276,0-0.5,0.224-0.5,0.5s0.224,0.5,0.5,0.5h1c0.276,0,0.5-0.224,0.5-0.5
				S59.277,31.5,59.001,31.5z"/>
		</g>
	</g>
	<g>
		<g>
			<path class="st0" d="M56.001,31.5h-10c-0.276,0-0.5,0.224-0.5,0.5s0.224,0.5,0.5,0.5h10c0.276,0,0.5-0.224,0.5-0.5
				S56.277,31.5,56.001,31.5z"/>
		</g>
	</g>
	<g>
		<g>
			<path class="st0" d="M6.001,31.5h-1c-0.276,0-0.5,0.224-0.5,0.5s0.224,0.5,0.5,0.5h1c0.276,0,0.5-0.224,0.5-0.5
				S6.277,31.5,6.001,31.5z"/>
		</g>
	</g>
	<g>
		<g>
			<path class="st0" d="M18.001,31.5h-10c-0.276,0-0.5,0.224-0.5,0.5s0.224,0.5,0.5,0.5h10c0.276,0,0.5-0.224,0.5-0.5
				S18.277,31.5,18.001,31.5z"/>
		</g>
	</g>
	<g>
		<g>
			<path class="st0" d="M47.496,38.174l-10.329-3.645c-0.232-0.081-0.493,0.019-0.609,0.239c-0.907,1.723-2.61,2.751-4.557,2.751
				c-1.947,0-3.651-1.028-4.558-2.751c-0.115-0.219-0.375-0.318-0.609-0.239l-10.328,3.645c-4.19,1.479-7.005,5.458-7.005,9.902
				V63.5c0,0.276,0.224,0.5,0.5,0.5s0.5-0.224,0.5-0.5V48.076c0-4.021,2.547-7.621,6.338-8.958l9.935-3.506
				c1.125,1.829,3.048,2.908,5.227,2.908c2.179,0,4.103-1.079,5.228-2.908l9.935,3.506c3.791,1.338,6.338,4.938,6.338,8.958V63.5
				c0,0.276,0.224,0.5,0.5,0.5s0.5-0.224,0.5-0.5V48.076C54.5,43.632,51.686,39.653,47.496,38.174z"/>
		</g>
	</g>
	<g>
		<g>
			<path class="st0" d="M46.498,41.003c-0.261-0.09-0.546,0.045-0.638,0.305c-0.092,0.26,0.045,0.546,0.305,0.638
				c2.594,0.916,4.336,3.378,4.336,6.129c0,0.276,0.224,0.5,0.5,0.5s0.5-0.224,0.5-0.5C51.501,44.902,49.49,42.06,46.498,41.003z"/>
		</g>
	</g>
	<g>
		<g>
			<path class="st0" d="M37.001,30.668c-0.276,0-0.5,0.224-0.5,0.5V35c0,0.276,0.224,0.5,0.5,0.5s0.5-0.224,0.5-0.5v-3.833
				C37.501,30.892,37.277,30.668,37.001,30.668z"/>
		</g>
	</g>
	<g>
		<g>
			<path class="st0" d="M27.001,30.668c-0.276,0-0.5,0.224-0.5,0.5V35c0,0.276,0.224,0.5,0.5,0.5s0.5-0.224,0.5-0.5v-3.833
				C27.501,30.892,27.277,30.668,27.001,30.668z"/>
		</g>
	</g>
	<g>
		<g>
			<path class="st0" d="M36.32,24.616c-0.212-0.177-0.527-0.147-0.704,0.066C34.644,25.854,33.36,26.5,32,26.5
				s-2.643-0.646-3.614-1.819c-0.177-0.213-0.491-0.243-0.704-0.066s-0.242,0.492-0.066,0.704C28.781,26.726,30.338,27.5,32,27.5
				c0,0,0,0,0,0c1.662,0,3.22-0.774,4.385-2.181C36.562,25.107,36.533,24.792,36.32,24.616z"/>
		</g>
	</g>
	<g>
		<g>
			<g>
				<path class="st0" d="M43.501,16.536V13.5c0-1.654-1.346-3-3-3h-17c-1.654,0-3,1.346-3,3l0,3.036c-1.694,0.243-3,1.704-3,3.464
					c0,1.778,1.333,3.251,3.103,3.467c0.72,5.179,5.117,9.033,10.397,9.033h2c5.277,0,9.671-3.849,10.396-9.022
					c1.745-0.197,3.104-1.682,3.104-3.478C46.501,18.24,45.195,16.779,43.501,16.536z M42.975,22.495c-0.003,0-0.006,0-0.01,0
					c-0.288-0.004-0.486,0.19-0.512,0.451c-0.482,4.877-4.545,8.555-9.452,8.555h-2c-4.907,0-8.97-3.678-9.453-8.555
					c-0.025-0.256-0.275-0.445-0.532-0.445c-0.005,0-0.01,0-0.015,0c-1.378,0-2.5-1.122-2.5-2.5s1.122-2.5,2.5-2.5
					c0.133,0,0.26-0.053,0.354-0.146s0.146-0.221,0.146-0.354l0-3.5c0-1.103,0.897-2,2-2h17c1.103,0,2,0.897,2,2V17
					c0,0.276,0.224,0.5,0.5,0.5c1.378,0,2.5,1.122,2.5,2.5C45.501,21.376,44.385,22.496,42.975,22.495z"/>
			</g>
		</g>
	</g>
	<g>
		<g>
			<g>
				<path class="st2" d="M45.776,12.064C44.544,5.397,38.575,0.405,31.795,0.502C24.158,0.612,18,6.837,18,14.5
					c0,1.317,0.195,2.587,0.535,3.796C19.077,17.514,19.978,17,21.001,17v-2.117c0-1.818,1.879-3.028,3.534-2.276l3.328,1.512
					c2.629,1.195,5.647,1.195,8.276,0l3.328-1.512c1.655-0.752,3.534,0.458,3.534,2.276V17c1.023,0,1.923,0.514,2.465,1.295
					C46.011,16.357,46.182,14.262,45.776,12.064z"/>
			</g>
		</g>
		<g>
			<g>
				<path class="st0" d="M46.268,11.973c-1.281-6.925-7.504-12.104-14.48-11.971C23.91,0.115,17.5,6.619,17.5,14.5
					c0,1.302,0.186,2.625,0.553,3.931c0.053,0.187,0.208,0.326,0.399,0.358c0.028,0.004,0.055,0.007,0.083,0.007
					c0.163,0,0.317-0.079,0.411-0.215c0.468-0.677,1.236-1.081,2.055-1.081c0.276,0,0.5-0.224,0.5-0.5v-2.118
					c0-0.683,0.343-1.312,0.917-1.681c0.574-0.371,1.288-0.423,1.91-0.14l3.328,1.513c2.762,1.255,5.929,1.254,8.69,0l3.328-1.513
					c0.621-0.282,1.336-0.23,1.91,0.139c0.575,0.37,0.917,0.999,0.917,1.682V17c0,0.276,0.224,0.5,0.5,0.5
					c0.817,0,1.585,0.404,2.054,1.08c0.11,0.159,0.305,0.241,0.493,0.208c0.191-0.032,0.346-0.171,0.399-0.358
					C46.554,16.275,46.662,14.103,46.268,11.973z M45.202,17.283c-0.488-0.396-1.075-0.655-1.701-0.746v-1.654
					c0-1.024-0.514-1.967-1.376-2.522c-0.861-0.555-1.933-0.633-2.866-0.208l-3.328,1.513c-2.498,1.135-5.363,1.135-7.862,0
					l-3.328-1.513c-0.934-0.425-2.004-0.346-2.866,0.209c-0.862,0.555-1.376,1.498-1.375,2.522v1.654
					c-0.626,0.091-1.214,0.35-1.702,0.746C18.601,16.354,18.5,15.421,18.5,14.5c0-7.338,5.967-13.394,13.302-13.499
					C31.865,1.001,31.926,1,31.988,1c6.418,0,12.115,4.765,13.296,11.154C45.597,13.845,45.569,15.565,45.202,17.283z"/>
			</g>
		</g>
	</g>
	<g>
		<g>
			<path class="st0" d="M46.304,63.147L20.295,37.138c-0.136-0.137-0.34-0.182-0.52-0.118l-3.27,1.154
				c-1.333,0.47-2.541,1.196-3.592,2.159c-0.101,0.092-0.159,0.221-0.162,0.357c-0.003,0.137,0.05,0.269,0.146,0.365l22.799,22.799
				c0.195,0.195,0.512,0.195,0.707,0s0.195-0.512,0-0.707l-22.42-22.419c0.855-0.702,1.812-1.243,2.854-1.61l2.972-1.05
				l25.786,25.786C45.694,63.952,45.822,64,45.95,64s0.256-0.049,0.354-0.146C46.499,63.659,46.499,63.342,46.304,63.147z"/>
		</g>
	</g>
	<g>
		<g>
			<g>
				<path class="st1" d="M31.294,46.015l-4.243-4.243c-0.976-0.976-2.559-0.976-3.536,0l-4.243,4.243
					c-0.976,0.976-0.976,2.559,0,3.536l4.243,4.243c0.976,0.976,2.559,0.976,3.536,0l4.243-4.243
					C32.27,48.574,32.27,46.991,31.294,46.015z"/>
			</g>
		</g>
		<g>
			<g>
				<path class="st0" d="M31.647,45.662l-4.243-4.243c-1.17-1.17-3.072-1.17-4.242,0l-4.243,4.243c-1.17,1.17-1.17,3.073,0,4.243
					l4.243,4.243c0.585,0.585,1.353,0.877,2.121,0.877s1.536-0.292,2.121-0.877l4.243-4.243
					C32.817,48.734,32.817,46.832,31.647,45.662z M30.94,49.197l-4.243,4.243c-0.779,0.779-2.049,0.779-2.828,0l-4.243-4.243
					c-0.78-0.78-0.78-2.049,0-2.829l4.243-4.243c0.39-0.39,0.902-0.585,1.414-0.585s1.024,0.195,1.414,0.585l4.243,4.243
					C31.72,47.148,31.72,48.417,30.94,49.197z"/>
			</g>
		</g>
	</g>
	<g>
		<g>
			<circle class="st0" cx="36.501" cy="19.5" r="1"/>
		</g>
	</g>
	<g>
		<g>
			<circle class="st0" cx="27.501" cy="19.5" r="1"/>
		</g>
	</g>
	<g>
		<g>
			<path class="st0" d="M22.101,38.944c-0.195-0.195-0.512-0.195-0.707,0l-4.95,4.95c-0.195,0.195-0.195,0.512,0,0.707
				c0.098,0.098,0.226,0.146,0.354,0.146s0.256-0.049,0.354-0.146l4.95-4.95C22.296,39.456,22.296,39.14,22.101,38.944z"/>
		</g>
	</g>
	<g>
		<g>
			<g>
				<path class="st0" d="M24.576,43.541l-1.415-1.415c-0.188-0.188-0.52-0.188-0.707,0l-2.828,2.829
					c-0.195,0.195-0.195,0.512,0,0.707l1.414,1.414c0.487,0.487,1.127,0.731,1.768,0.731c0.641,0,1.281-0.244,1.768-0.731
					c0.472-0.472,0.732-1.1,0.732-1.768S25.048,44.013,24.576,43.541z M23.869,46.369c-0.584,0.585-1.536,0.585-2.122,0
					l-1.061-1.061l2.121-2.122l1.061,1.061C24.454,44.833,24.454,45.784,23.869,46.369z"/>
			</g>
		</g>
	</g>
	<g>
		<g>
			<path class="st0" d="M27.758,53.086l-2.121-2.122c-0.195-0.195-0.512-0.195-0.707,0s-0.195,0.512,0,0.707l2.121,2.122
				c0.098,0.098,0.226,0.146,0.354,0.146s0.256-0.049,0.354-0.146C27.953,53.598,27.953,53.282,27.758,53.086z"/>
		</g>
	</g>
	<g>
		<g>
			<path class="st0" d="M31.293,49.551l-2.121-2.121c-0.195-0.195-0.512-0.195-0.707,0s-0.195,0.512,0,0.707l2.121,2.121
				c0.098,0.098,0.226,0.146,0.354,0.146s0.256-0.049,0.354-0.146C31.489,50.062,31.489,49.746,31.293,49.551z"/>
		</g>
	</g>
	<g>
		<g>
			<path class="st0" d="M44,52c-0.276,0-0.5,0.224-0.5,0.5v6.05c0,0.276,0.224,0.5,0.5,0.5s0.5-0.224,0.5-0.5V52.5
				C44.5,52.224,44.277,52,44,52z"/>
		</g>
	</g>
	<g>
		<g>
			<path class="st0" d="M19,52c-0.276,0-0.5,0.224-0.5,0.5v11c0,0.276,0.224,0.5,0.5,0.5s0.5-0.224,0.5-0.5v-11
				C19.5,52.224,19.277,52,19,52z"/>
		</g>
	</g>
</g>
</svg>
