<?xml version="1.0" encoding="utf-8"?>
<!-- Generator: Adobe Illustrator 21.1.0, SVG Export Plug-In . SVG Version: 6.00 Build 0)  -->
<svg version="1.1" id="Icon_Set" xmlns="http://www.w3.org/2000/svg" xmlns:xlink="http://www.w3.org/1999/xlink" x="0px" y="0px"
	 viewBox="0 0 64 64" style="enable-background:new 0 0 64 64;" xml:space="preserve">
<style type="text/css">
	.st0{fill:#263238;}
	.st1{fill:#FF5252;}
	.st2{fill:#FFD740;}
	.st3{fill:#40C4FF;}
	.st4{fill:#FFFFFF;}
	.st5{fill:#4DB6AC;}
	.st6{fill:#4FC3F7;}
</style>
<g id="Service_History">
	<g>
		<path class="st0" d="M5.75,35c-0.276,0-0.5-0.224-0.5-0.5V13.581l-0.475-1.423C4.759,12.107,4.75,12.054,4.75,12v-2
			c0-0.276,0.224-0.5,0.5-0.5h4.5c0.276,0,0.5,0.224,0.5,0.5v2c0,0.054-0.009,0.107-0.025,0.158L9.75,13.581v20.872
			c0,0.276-0.224,0.5-0.5,0.5s-0.5-0.224-0.5-0.5V13.5c0-0.054,0.009-0.107,0.025-0.158l0.475-1.423V10.5h-3.5v1.419l0.475,1.423
			C6.241,13.393,6.25,13.446,6.25,13.5v21C6.25,34.776,6.026,35,5.75,35z"/>
	</g>
	<g>
		<path class="st0" d="M8,54.5H7c-1.654,0-3-1.346-3-3V40H3.5C3.224,40,3,39.776,3,39.5v-3C3,36.224,3.224,36,3.5,36h8
			c0.276,0,0.5,0.224,0.5,0.5v3c0,0.276-0.224,0.5-0.5,0.5H11v11.5C11,53.154,9.654,54.5,8,54.5z M4,39h0.5
			C4.776,39,5,39.224,5,39.5v12c0,1.103,0.897,2,2,2h1c1.103,0,2-0.897,2-2v-12c0-0.276,0.224-0.5,0.5-0.5H11v-2H4V39z"/>
	</g>
	<g>
		<path class="st1" d="M58.244,53.922l-0.323-0.186c0.124-0.559,0.194-1.139,0.194-1.735s-0.07-1.176-0.194-1.735l0.322-0.186
			l0.916-0.805c0.358-0.315,0.444-0.838,0.206-1.251l-1.18-2.044c-0.238-0.413-0.735-0.6-1.186-0.447l-1.155,0.391l-0.327,0.189
			c-0.853-0.782-1.87-1.388-3.001-1.743V44l-0.239-1.196C52.183,42.336,51.773,42,51.296,42h-2.36c-0.477,0-0.887,0.336-0.981,0.804
			L47.716,44v0.367c-1.131,0.355-2.148,0.961-3.001,1.743l-0.327-0.189l-1.155-0.391c-0.452-0.153-0.948,0.034-1.186,0.447
			l-1.18,2.044c-0.238,0.413-0.152,0.936,0.206,1.251l0.916,0.805l0.322,0.186c-0.124,0.559-0.194,1.139-0.194,1.735
			s0.07,1.176,0.194,1.735l-0.323,0.186l-0.916,0.805c-0.358,0.315-0.444,0.838-0.206,1.251l1.18,2.044
			c0.238,0.413,0.735,0.6,1.186,0.447l1.155-0.391l0.328-0.189c0.853,0.782,1.87,1.388,3.001,1.743V60l0.239,1.196
			C48.048,61.664,48.459,62,48.935,62h2.36c0.477,0,0.887-0.336,0.981-0.804L52.516,60v-0.368c1.131-0.355,2.148-0.961,3.001-1.743
			l0.328,0.189l1.155,0.391c0.452,0.153,0.948-0.034,1.186-0.447l1.18-2.044c0.238-0.413,0.152-0.936-0.206-1.251L58.244,53.922z
			 M50.116,56.8c-2.651,0-4.8-2.149-4.8-4.8s2.149-4.8,4.8-4.8c2.651,0,4.8,2.149,4.8,4.8S52.767,56.8,50.116,56.8z"/>
		<path class="st0" d="M51.296,62.5h-2.36c-0.714,0-1.332-0.507-1.471-1.207l-0.241-1.299c-0.935-0.338-1.796-0.839-2.57-1.492
			l-0.017,0.01l-1.245,0.431c-0.674,0.229-1.423-0.054-1.779-0.671l-1.18-2.044c-0.356-0.617-0.227-1.407,0.309-1.877l1.009-0.861
			c-0.09-0.5-0.135-0.999-0.135-1.49c0-0.488,0.045-0.985,0.134-1.481l-0.012-0.007l-0.996-0.863c-0.535-0.47-0.665-1.26-0.31-1.877
			l1.182-2.044c0.355-0.616,1.104-0.899,1.779-0.671l1.256,0.446c0.772-0.654,1.634-1.155,2.567-1.494V44l0.249-1.294
			c0.14-0.699,0.759-1.206,1.471-1.206h2.36c0.712,0,1.331,0.507,1.471,1.206l0.241,1.3c0.935,0.338,1.796,0.839,2.569,1.492
			l0.017-0.01l1.245-0.431c0.676-0.23,1.424,0.054,1.78,0.671l1.18,2.044c0.356,0.617,0.227,1.407-0.309,1.877l-1.01,0.862
			c0.09,0.5,0.135,1,0.135,1.489c0,0.487-0.045,0.984-0.133,1.482l0.012,0.007c0.028,0.016,0.056,0.035,0.08,0.057l0.916,0.805
			c0.535,0.47,0.665,1.26,0.31,1.877l-1.182,2.044c-0.354,0.617-1.102,0.901-1.779,0.671l-1.256-0.446
			c-0.772,0.654-1.634,1.155-2.567,1.494V60l-0.249,1.294C52.627,61.993,52.008,62.5,51.296,62.5z M44.715,57.39
			c0.122,0,0.243,0.045,0.338,0.131c0.825,0.758,1.772,1.308,2.813,1.635c0.208,0.065,0.35,0.259,0.35,0.477V60l0.229,1.098
			c0.046,0.233,0.252,0.402,0.49,0.402h2.36c0.237,0,0.443-0.169,0.49-0.402l0.239-1.196l-0.01-0.27c0-0.218,0.142-0.412,0.35-0.477
			c1.041-0.327,1.988-0.877,2.813-1.635c0.161-0.148,0.398-0.173,0.588-0.064l0.327,0.189l1.065,0.35
			c0.229,0.077,0.475-0.018,0.593-0.224l1.182-2.044c0.118-0.206,0.075-0.469-0.104-0.626l-0.879-0.772l-0.279-0.162
			c-0.188-0.109-0.285-0.328-0.238-0.54c0.12-0.548,0.182-1.096,0.182-1.628s-0.062-1.08-0.182-1.628
			c-0.047-0.213,0.05-0.432,0.238-0.541l0.322-0.186l0.836-0.748c0.179-0.157,0.222-0.42,0.103-0.626l-1.18-2.044
			c-0.12-0.206-0.365-0.3-0.594-0.224l-1.155,0.391l-0.237,0.148c-0.189,0.109-0.427,0.083-0.588-0.064
			c-0.825-0.758-1.772-1.308-2.813-1.635c-0.208-0.065-0.35-0.259-0.35-0.477V44l-0.229-1.098c-0.047-0.233-0.253-0.402-0.49-0.402
			h-2.36c-0.237,0-0.443,0.169-0.49,0.402l-0.239,1.196l0.01,0.269c0,0.218-0.142,0.412-0.35,0.477
			c-1.041,0.327-1.988,0.877-2.813,1.635c-0.162,0.147-0.399,0.173-0.588,0.064l-0.327-0.189l-1.065-0.35
			c-0.228-0.076-0.475,0.019-0.593,0.224l-1.182,2.044c-0.118,0.206-0.075,0.469,0.104,0.626l0.916,0.805l0.242,0.128
			c0.189,0.109,0.285,0.328,0.238,0.542c-0.121,0.546-0.183,1.093-0.183,1.627s0.062,1.081,0.183,1.627
			c0.047,0.213-0.049,0.432-0.238,0.541l-0.322,0.187l-0.836,0.748c-0.179,0.157-0.222,0.42-0.103,0.626l1.18,2.044
			c0.119,0.205,0.365,0.3,0.593,0.224l1.155-0.391l0.238-0.148C44.543,57.412,44.629,57.39,44.715,57.39z M50.115,57.3
			c-2.922,0-5.3-2.377-5.3-5.3s2.378-5.3,5.3-5.3c2.923,0,5.301,2.377,5.301,5.3S53.038,57.3,50.115,57.3z M50.115,47.7
			c-2.371,0-4.3,1.929-4.3,4.3s1.929,4.3,4.3,4.3s4.301-1.929,4.301-4.3S52.486,47.7,50.115,47.7z"/>
	</g>
	<g>
		<path class="st0" d="M38.773,55.5H19.5c-3.032,0-5.5-2.467-5.5-5.5V14.5c0-3.033,2.468-5.5,5.5-5.5h3C22.776,9,23,9.224,23,9.5
			S22.776,10,22.5,10h-3c-2.481,0-4.5,2.019-4.5,4.5V50c0,2.481,2.019,4.5,4.5,4.5h19.273c0.276,0,0.5,0.224,0.5,0.5
			S39.05,55.5,38.773,55.5z"/>
	</g>
	<g>
		<path class="st0" d="M52.5,40.765c-0.276,0-0.5-0.224-0.5-0.5V14.5c0-2.481-2.019-4.5-4.5-4.5h-3C44.224,10,44,9.776,44,9.5
			S44.224,9,44.5,9h3c3.032,0,5.5,2.467,5.5,5.5v25.765C53,40.542,52.776,40.765,52.5,40.765z"/>
	</g>
	<g>
		<path class="st0" d="M49.5,40.5c-0.276,0-0.5-0.224-0.5-0.5V15c0-1.103-0.897-2-2-2h-2.5c-0.276,0-0.5-0.224-0.5-0.5
			s0.224-0.5,0.5-0.5H47c1.654,0,3,1.346,3,3v25C50,40.276,49.776,40.5,49.5,40.5z"/>
	</g>
	<g>
		<path class="st0" d="M40.115,52.5H20c-1.654,0-3-1.346-3-3V15c0-1.654,1.346-3,3-3h2.5c0.276,0,0.5,0.224,0.5,0.5
			S22.776,13,22.5,13H20c-1.103,0-2,0.897-2,2v34.5c0,1.103,0.897,2,2,2h20.115c0.276,0,0.5,0.224,0.5,0.5S40.392,52.5,40.115,52.5z
			"/>
	</g>
	<g>
		<path class="st0" d="M33.5,10.5C32.121,10.5,31,9.378,31,8s1.121-2.5,2.5-2.5S36,6.622,36,8S34.879,10.5,33.5,10.5z M33.5,6.5
			C32.673,6.5,32,7.173,32,8s0.673,1.5,1.5,1.5S35,8.827,35,8S34.327,6.5,33.5,6.5z"/>
	</g>
	<g>
		<path class="st0" d="M41.5,15.5h-16c-0.827,0-1.5-0.673-1.5-1.5V8c0-0.827,0.673-1.5,1.5-1.5h2.708c0.663-2.341,2.826-4,5.292-4
			s4.629,1.659,5.292,4H41.5C42.327,6.5,43,7.173,43,8v6C43,14.827,42.327,15.5,41.5,15.5z M25.5,7.5C25.225,7.5,25,7.724,25,8v6
			c0,0.276,0.225,0.5,0.5,0.5h16c0.275,0,0.5-0.224,0.5-0.5V8c0-0.276-0.225-0.5-0.5-0.5h-3.101c-0.237,0-0.442-0.167-0.49-0.4
			c-0.424-2.086-2.278-3.6-4.409-3.6s-3.985,1.514-4.409,3.6c-0.048,0.233-0.253,0.4-0.49,0.4H25.5z"/>
	</g>
	<g>
		<path class="st0" d="M43.5,23.5h-20c-0.276,0-0.5-0.224-0.5-0.5v-4c0-0.276,0.224-0.5,0.5-0.5h20c0.276,0,0.5,0.224,0.5,0.5v4
			C44,23.276,43.776,23.5,43.5,23.5z M24,22.5h19v-3H24V22.5z"/>
	</g>
	<g>
		<path class="st5" d="M30.5,35h-6c-0.552,0-1-0.448-1-1v-6c0-0.552,0.448-1,1-1h6c0.552,0,1,0.448,1,1v6
			C31.5,34.552,31.052,35,30.5,35z"/>
		<path class="st0" d="M30.5,35.5h-6c-0.827,0-1.5-0.673-1.5-1.5v-6c0-0.827,0.673-1.5,1.5-1.5h6c0.827,0,1.5,0.673,1.5,1.5v6
			C32,34.827,31.327,35.5,30.5,35.5z M24.5,27.5c-0.275,0-0.5,0.224-0.5,0.5v6c0,0.276,0.225,0.5,0.5,0.5h6
			c0.275,0,0.5-0.224,0.5-0.5v-6c0-0.276-0.225-0.5-0.5-0.5H24.5z"/>
	</g>
	<g>
		<path class="st0" d="M27.564,32.5c-0.128,0-0.256-0.049-0.354-0.146l-2.121-2.121c-0.195-0.195-0.195-0.512,0-0.707
			s0.512-0.195,0.707,0l1.768,1.768l5.146-5.146c0.195-0.195,0.512-0.195,0.707,0s0.195,0.512,0,0.707l-5.5,5.5
			C27.82,32.451,27.692,32.5,27.564,32.5z"/>
	</g>
	<g>
		<path class="st5" d="M30.5,46.5h-6c-0.552,0-1-0.448-1-1v-6c0-0.552,0.448-1,1-1h6c0.552,0,1,0.448,1,1v6
			C31.5,46.052,31.052,46.5,30.5,46.5z"/>
		<path class="st0" d="M30.5,47h-6c-0.827,0-1.5-0.673-1.5-1.5v-6c0-0.827,0.673-1.5,1.5-1.5h6c0.827,0,1.5,0.673,1.5,1.5v6
			C32,46.327,31.327,47,30.5,47z M24.5,39c-0.275,0-0.5,0.224-0.5,0.5v6c0,0.276,0.225,0.5,0.5,0.5h6c0.275,0,0.5-0.224,0.5-0.5v-6
			c0-0.276-0.225-0.5-0.5-0.5H24.5z"/>
	</g>
	<g>
		<path class="st0" d="M27.564,44c-0.128,0-0.256-0.049-0.354-0.146l-2.121-2.121c-0.195-0.195-0.195-0.512,0-0.707
			s0.512-0.195,0.707,0l1.768,1.768l5.146-5.146c0.195-0.195,0.512-0.195,0.707,0s0.195,0.512,0,0.707l-5.5,5.5
			C27.82,43.951,27.692,44,27.564,44z"/>
	</g>
	<g>
		<path class="st0" d="M43.5,31.5h-8c-0.276,0-0.5-0.224-0.5-0.5s0.224-0.5,0.5-0.5h8c0.276,0,0.5,0.224,0.5,0.5
			S43.776,31.5,43.5,31.5z"/>
	</g>
	<g>
		<path class="st0" d="M43.5,43h-8c-0.276,0-0.5-0.224-0.5-0.5s0.224-0.5,0.5-0.5h8c0.276,0,0.5,0.224,0.5,0.5S43.776,43,43.5,43z"
			/>
	</g>
	<g>
		<path class="st0" d="M20,62h-1c-0.276,0-0.5-0.224-0.5-0.5S18.724,61,19,61h1c0.276,0,0.5,0.224,0.5,0.5S20.276,62,20,62z"/>
	</g>
	<g>
		<path class="st0" d="M39,62H22c-0.276,0-0.5-0.224-0.5-0.5S21.724,61,22,61h17c0.276,0,0.5,0.224,0.5,0.5S39.276,62,39,62z"/>
	</g>
	<g>
		<path class="st0" d="M50,6.5c-0.276,0-0.5-0.224-0.5-0.5V2c0-0.276,0.224-0.5,0.5-0.5s0.5,0.224,0.5,0.5v4
			C50.5,6.276,50.276,6.5,50,6.5z"/>
	</g>
	<g>
		<path class="st0" d="M52,4.5h-4c-0.276,0-0.5-0.224-0.5-0.5s0.224-0.5,0.5-0.5h4c0.276,0,0.5,0.224,0.5,0.5S52.276,4.5,52,4.5z"/>
	</g>
	<g>
		<path class="st0" d="M58.5,12.5c-0.276,0-0.5-0.224-0.5-0.5V8c0-0.276,0.224-0.5,0.5-0.5S59,7.724,59,8v4
			C59,12.276,58.776,12.5,58.5,12.5z"/>
	</g>
	<g>
		<path class="st0" d="M60.5,10.5h-4c-0.276,0-0.5-0.224-0.5-0.5s0.224-0.5,0.5-0.5h4c0.276,0,0.5,0.224,0.5,0.5
			S60.776,10.5,60.5,10.5z"/>
	</g>
</g>
</svg>
