<?xml version="1.0" encoding="utf-8"?>
<!-- Generator: Adobe Illustrator 21.1.0, SVG Export Plug-In . SVG Version: 6.00 Build 0)  -->
<svg version="1.1" id="Icon_Set" xmlns="http://www.w3.org/2000/svg" xmlns:xlink="http://www.w3.org/1999/xlink" x="0px" y="0px"
	 viewBox="0 0 64 64" style="enable-background:new 0 0 64 64;" xml:space="preserve">
<style type="text/css">
	.st0{fill:#263238;}
	.st1{fill:#FF5252;}
	.st2{fill:#FFD740;}
	.st3{fill:#40C4FF;}
	.st4{fill:#FFFFFF;}
	.st5{fill:#4DB6AC;}
	.st6{fill:#4FC3F7;}
</style>
<g id="Service_Book">
	<g>
		<path class="st0" d="M32,64c-0.276,0-0.5-0.224-0.5-0.5c0-2.481-2.019-4.5-4.5-4.5H5c-1.654,0-3-1.346-3-3V24c0-1.654,1.346-3,3-3
			h1c0.276,0,0.5,0.224,0.5,0.5V51c0,1.103,0.897,2,2,2H27c3.033,0,5.5,2.467,5.5,5.5v5C32.5,63.776,32.276,64,32,64z M5,22
			c-1.103,0-2,0.897-2,2v32c0,1.103,0.897,2,2,2h22c1.858,0,3.504,0.926,4.5,2.341V58.5c0-2.481-2.019-4.5-4.5-4.5H8.5
			c-1.654,0-3-1.346-3-3V22H5z"/>
	</g>
	<g>
		<path class="st0" d="M32,59c-0.276,0-0.5-0.224-0.5-0.5V52c0-0.276,0.224-0.5,0.5-0.5s0.5,0.224,0.5,0.5v6.5
			C32.5,58.776,32.276,59,32,59z"/>
	</g>
	<g>
		<path class="st0" d="M58,29.75c-0.276,0-0.5-0.224-0.5-0.5V19c0-1.103-0.897-2-2-2H41c-0.276,0-0.5-0.224-0.5-0.5S40.724,16,41,16
			h14.5c1.654,0,3,1.346,3,3v10.25C58.5,29.526,58.276,29.75,58,29.75z"/>
	</g>
	<g>
		<path class="st0" d="M6,22.571c-0.276,0-0.5-0.224-0.5-0.5V19c0-1.654,1.346-3,3-3H23c0.276,0,0.5,0.224,0.5,0.5S23.276,17,23,17
			H8.5c-1.103,0-2,0.897-2,2v3.071C6.5,22.347,6.276,22.571,6,22.571z"/>
	</g>
	<g>
		<path class="st0" d="M14,27h-3c-0.827,0-1.5-0.673-1.5-1.5v-3c0-0.827,0.673-1.5,1.5-1.5h3c0.827,0,1.5,0.673,1.5,1.5v3
			C15.5,26.327,14.827,27,14,27z M11,22c-0.276,0-0.5,0.224-0.5,0.5v3c0,0.276,0.224,0.5,0.5,0.5h3c0.276,0,0.5-0.224,0.5-0.5v-3
			c0-0.276-0.224-0.5-0.5-0.5H11z"/>
	</g>
	<g>
		<path class="st0" d="M14,34.5h-3c-0.827,0-1.5-0.673-1.5-1.5v-3c0-0.827,0.673-1.5,1.5-1.5h3c0.827,0,1.5,0.673,1.5,1.5v3
			C15.5,33.827,14.827,34.5,14,34.5z M11,29.5c-0.276,0-0.5,0.224-0.5,0.5v3c0,0.276,0.224,0.5,0.5,0.5h3c0.276,0,0.5-0.224,0.5-0.5
			v-3c0-0.276-0.224-0.5-0.5-0.5H11z"/>
	</g>
	<g>
		<path class="st0" d="M14,49.5h-3c-0.827,0-1.5-0.673-1.5-1.5v-3c0-0.827,0.673-1.5,1.5-1.5h3c0.827,0,1.5,0.673,1.5,1.5v3
			C15.5,48.827,14.827,49.5,14,49.5z M11,44.5c-0.276,0-0.5,0.224-0.5,0.5v3c0,0.276,0.224,0.5,0.5,0.5h3c0.276,0,0.5-0.224,0.5-0.5
			v-3c0-0.276-0.224-0.5-0.5-0.5H11z"/>
	</g>
	<g>
		<path class="st0" d="M25.5,24.5H18c-0.276,0-0.5-0.224-0.5-0.5s0.224-0.5,0.5-0.5h7.5c0.276,0,0.5,0.224,0.5,0.5
			S25.776,24.5,25.5,24.5z"/>
	</g>
	<g>
		<path class="st0" d="M24.5,47H18c-0.276,0-0.5-0.224-0.5-0.5S17.724,46,18,46h6.5c0.276,0,0.5,0.224,0.5,0.5S24.776,47,24.5,47z"
			/>
	</g>
	<g>
		<path class="st0" d="M25.5,32H18c-0.276,0-0.5-0.224-0.5-0.5S17.724,31,18,31h7.5c0.276,0,0.5,0.224,0.5,0.5S25.776,32,25.5,32z"
			/>
	</g>
	<g>
		<path class="st0" d="M14,42h-3c-0.827,0-1.5-0.673-1.5-1.5v-3c0-0.827,0.673-1.5,1.5-1.5h3c0.827,0,1.5,0.673,1.5,1.5v3
			C15.5,41.327,14.827,42,14,42z M11,37c-0.276,0-0.5,0.224-0.5,0.5v3c0,0.276,0.224,0.5,0.5,0.5h3c0.276,0,0.5-0.224,0.5-0.5v-3
			c0-0.276-0.224-0.5-0.5-0.5H11z"/>
	</g>
	<g>
		<path class="st0" d="M25.5,39.5H18c-0.276,0-0.5-0.224-0.5-0.5s0.224-0.5,0.5-0.5h7.5c0.276,0,0.5,0.224,0.5,0.5
			S25.776,39.5,25.5,39.5z"/>
	</g>
	<g>
		<path class="st0" d="M52.5,24.5h-13c-0.276,0-0.5-0.224-0.5-0.5s0.224-0.5,0.5-0.5h13c0.276,0,0.5,0.224,0.5,0.5
			S52.776,24.5,52.5,24.5z"/>
	</g>
	<g>
		<path class="st0" d="M52.5,28h-13c-0.276,0-0.5-0.224-0.5-0.5s0.224-0.5,0.5-0.5h13c0.276,0,0.5,0.224,0.5,0.5S52.776,28,52.5,28z
			"/>
	</g>
	<g>
		<path class="st0" d="M1.5,8h-1C0.224,8,0,7.776,0,7.5S0.224,7,0.5,7h1C1.776,7,2,7.224,2,7.5S1.776,8,1.5,8z"/>
	</g>
	<g>
		<path class="st0" d="M13.5,8h-10C3.224,8,3,7.776,3,7.5S3.224,7,3.5,7h10C13.776,7,14,7.224,14,7.5S13.776,8,13.5,8z"/>
	</g>
	<g>
		<path class="st0" d="M21,5h-1c-0.276,0-0.5-0.224-0.5-0.5S19.724,4,20,4h1c0.276,0,0.5,0.224,0.5,0.5S21.276,5,21,5z"/>
	</g>
	<g>
		<path class="st0" d="M18,5H8C7.724,5,7.5,4.776,7.5,4.5S7.724,4,8,4h10c0.276,0,0.5,0.224,0.5,0.5S18.276,5,18,5z"/>
	</g>
	<g>
		<path class="st5" d="M61,49.25H42c-1.381,0-2.5-1.119-2.5-2.5v-13c0-1.381,1.119-2.5,2.5-2.5h19c1.381,0,2.5,1.119,2.5,2.5v13
			C63.5,48.131,62.381,49.25,61,49.25z"/>
		<path class="st0" d="M61,49.75H42c-1.654,0-3-1.346-3-3v-13c0-1.654,1.346-3,3-3h19c1.654,0,3,1.346,3,3v13
			C64,48.404,62.654,49.75,61,49.75z M42,31.75c-1.103,0-2,0.897-2,2v13c0,1.103,0.897,2,2,2h19c1.103,0,2-0.897,2-2v-13
			c0-1.103-0.897-2-2-2H42z"/>
	</g>
	<g>
		<path class="st0" d="M61.5,29.801c-0.276,0-0.5-0.224-0.5-0.5V24c0-1.103-0.897-2-2-2h-1c-0.276,0-0.5-0.224-0.5-0.5
			S57.724,21,58,21h1c1.654,0,3,1.346,3,3v5.301C62,29.577,61.776,29.801,61.5,29.801z"/>
	</g>
	<g>
		<path class="st0" d="M32,64c-0.276,0-0.5-0.224-0.5-0.5v-5c0-3.033,2.467-5.5,5.5-5.5h18.5c1.024,0,1.874-0.774,1.977-1.8
			c0.027-0.274,0.273-0.472,0.548-0.447c0.274,0.028,0.475,0.273,0.447,0.548C58.317,52.839,57.04,54,55.5,54H37
			c-2.481,0-4.5,2.019-4.5,4.5v1.841C33.496,58.926,35.142,58,37,58h22c1.103,0,2-0.897,2-2v-4.8c0-0.276,0.224-0.5,0.5-0.5
			s0.5,0.224,0.5,0.5V56c0,1.654-1.346,3-3,3H37c-2.481,0-4.5,2.019-4.5,4.5C32.5,63.776,32.276,64,32,64z"/>
	</g>
	<g>
		<path class="st4" d="M49.733,45.285c-0.384,0-0.768-0.146-1.061-0.439l-3.536-3.535c-0.586-0.585-0.586-1.535,0-2.121
			s1.535-0.586,2.121,0l2.475,2.475l6.01-6.01c0.586-0.586,1.535-0.586,2.121,0c0.586,0.585,0.586,1.536,0,2.121l-7.071,7.071
			C50.5,45.139,50.116,45.285,49.733,45.285z"/>
		<path class="st0" d="M49.732,45.786c-0.534,0-1.036-0.208-1.414-0.586l-3.536-3.536c-0.378-0.377-0.586-0.879-0.586-1.414
			c0-0.534,0.208-1.036,0.586-1.414c0.756-0.756,2.072-0.756,2.828,0l2.122,2.122l5.657-5.657c0.779-0.78,2.049-0.78,2.828,0
			c0.378,0.377,0.586,0.88,0.586,1.414s-0.208,1.037-0.586,1.414L51.146,45.2C50.769,45.578,50.267,45.786,49.732,45.786z
			 M46.197,39.25c-0.267,0-0.518,0.104-0.707,0.293s-0.293,0.44-0.293,0.707s0.104,0.518,0.293,0.707l3.536,3.536
			c0.378,0.378,1.036,0.378,1.414,0l7.071-7.071c0.189-0.189,0.293-0.44,0.293-0.707s-0.104-0.518-0.293-0.707
			c-0.39-0.39-1.025-0.389-1.414,0l-6.01,6.011c-0.188,0.188-0.52,0.188-0.707,0l-2.475-2.475
			C46.715,39.354,46.464,39.25,46.197,39.25z"/>
	</g>
	<g>
		<path class="st2" d="M37.74,9.28L35,7.714V14.5L32,16l-3-1.5V7.714L26.26,9.28C25.481,9.725,25,10.554,25,11.451v5.098
			c0,0.897,0.481,1.726,1.26,2.171l1.481,0.846c0.779,0.445,1.26,1.273,1.26,2.171v20.931c-0.914,0.824-1.5,2.005-1.5,3.332
			c0,2.485,2.015,4.5,4.5,4.5c2.485,0,4.5-2.015,4.5-4.5c0-1.328-0.586-2.508-1.5-3.332V21.736c0-0.897,0.481-1.725,1.26-2.171
			l1.481-0.846c0.779-0.445,1.26-1.273,1.26-2.171v-5.098C39,10.554,38.519,9.725,37.74,9.28z M32,48c-1.105,0-2-0.896-2-2
			c0-1.105,0.895-2,2-2c1.105,0,2,0.895,2,2C34,47.104,33.104,48,32,48z"/>
		<path class="st0" d="M32,51c-2.757,0-5-2.243-5-5c0-1.326,0.544-2.606,1.5-3.548V21.736c0-0.715-0.386-1.381-1.008-1.736
			l-1.48-0.846c-0.933-0.532-1.512-1.53-1.512-2.604v-5.099c0-1.074,0.579-2.072,1.512-2.604l2.74-1.566
			c0.155-0.089,0.345-0.087,0.499,0.001c0.154,0.09,0.249,0.254,0.249,0.433v6.477l2.5,1.25l2.5-1.25V7.714
			c0-0.178,0.095-0.343,0.249-0.433c0.154-0.089,0.345-0.09,0.499-0.001l2.74,1.566l0,0c0.933,0.533,1.512,1.531,1.512,2.604v5.099
			c0,1.074-0.579,2.072-1.512,2.604L36.508,20c-0.622,0.355-1.008,1.021-1.008,1.736v20.716C36.456,43.394,37,44.675,37,46
			C37,48.757,34.757,51,32,51z M28.5,8.576l-1.992,1.138c-0.622,0.355-1.008,1.021-1.008,1.736v5.099
			c0,0.716,0.386,1.381,1.008,1.736l1.48,0.846c0.933,0.533,1.512,1.531,1.512,2.604v20.932c0,0.142-0.06,0.277-0.166,0.372
			C28.474,43.814,28,44.866,28,46c0,2.206,1.794,4,4,4s4-1.794,4-4c0-1.133-0.474-2.185-1.335-2.96
			c-0.105-0.095-0.165-0.23-0.165-0.372V21.736c0-1.074,0.579-2.072,1.512-2.604l1.48-0.846c0.622-0.355,1.008-1.021,1.008-1.736
			v-5.099c0-0.715-0.386-1.381-1.008-1.736L35.5,8.576V14.5c0,0.189-0.107,0.362-0.276,0.447l-3,1.5c-0.141,0.07-0.307,0.07-0.447,0
			l-3-1.5C28.607,14.862,28.5,14.689,28.5,14.5V8.576z M32,48.5c-1.378,0-2.5-1.122-2.5-2.5s1.122-2.5,2.5-2.5s2.5,1.122,2.5,2.5
			S33.378,48.5,32,48.5z M32,44.5c-0.827,0-1.5,0.673-1.5,1.5s0.673,1.5,1.5,1.5s1.5-0.673,1.5-1.5S32.827,44.5,32,44.5z"/>
	</g>
	<g>
		<path class="st0" d="M32,39.5c-0.276,0-0.5-0.224-0.5-0.5V24c0-0.276,0.224-0.5,0.5-0.5s0.5,0.224,0.5,0.5v15
			C32.5,39.276,32.277,39.5,32,39.5z"/>
	</g>
</g>
</svg>
