<?xml version="1.0" encoding="utf-8"?>
<!-- Generator: Adobe Illustrator 21.1.0, SVG Export Plug-In . SVG Version: 6.00 Build 0)  -->
<svg version="1.1" id="Icon_Set" xmlns="http://www.w3.org/2000/svg" xmlns:xlink="http://www.w3.org/1999/xlink" x="0px" y="0px"
	 viewBox="0 0 64 64" style="enable-background:new 0 0 64 64;" xml:space="preserve">
<style type="text/css">
	.st0{fill:#263238;}
	.st1{fill:#FF5252;}
	.st2{fill:#FFD740;}
	.st3{fill:#40C4FF;}
	.st4{fill:#FFFFFF;}
	.st5{fill:#4DB6AC;}
	.st6{fill:#4FC3F7;}
</style>
<g id="Servicing_Cost">
	<g>
		<path class="st0" d="M15.5,17h-7C8.223,17,8,16.776,8,16.5V12c0-2.757,2.243-5,5-5c0.276,0,0.5,0.224,0.5,0.5S13.276,8,13,8
			c-2.206,0-4,1.794-4,4v4h6.5c0.276,0,0.5,0.224,0.5,0.5S15.776,17,15.5,17z"/>
	</g>
	<g>
		<path class="st0" d="M56,63.5H22c-0.276,0-0.5-0.224-0.5-0.5s0.224-0.5,0.5-0.5c2.206,0,4-1.794,4-4V54c0-0.276,0.224-0.5,0.5-0.5
			h34c0.276,0,0.5,0.224,0.5,0.5v4.5C61,61.257,58.757,63.5,56,63.5z M24.997,62.5H56c2.206,0,4-1.794,4-4v-4H27v4
			C27,60.134,26.212,61.587,24.997,62.5z"/>
	</g>
	<g>
		<circle class="st2" cx="11.5" cy="33.75" r="9"/>
		<path class="st0" d="M11.5,43.25c-5.238,0-9.5-4.262-9.5-9.5s4.262-9.5,9.5-9.5s9.5,4.262,9.5,9.5S16.738,43.25,11.5,43.25z
			 M11.5,25.25c-4.687,0-8.5,3.813-8.5,8.5s3.813,8.5,8.5,8.5c4.687,0,8.5-3.813,8.5-8.5S16.187,25.25,11.5,25.25z"/>
	</g>
	<g>
		<path class="st0" d="M11.5,40.75c-3.86,0-7-3.14-7-7s3.14-7,7-7s7,3.14,7,7S15.359,40.75,11.5,40.75z M11.5,27.75
			c-3.309,0-6,2.691-6,6s2.691,6,6,6s6-2.691,6-6S14.808,27.75,11.5,27.75z"/>
	</g>
	<g>
		<path class="st0" d="M9.75,36.5c-0.275,0-0.499-0.223-0.5-0.498c-0.001-0.276,0.222-0.501,0.498-0.502l2.989-0.012
			c0.275-0.001,0.498-0.225,0.498-0.5v-0.25c0-0.134-0.052-0.259-0.147-0.354c-0.095-0.094-0.22-0.146-0.354-0.146
			c0,0-0.001,0-0.001,0l-2.484,0.009c-0.002,0-0.004,0-0.005,0c-0.822,0-1.495-0.667-1.5-1.49l-0.001-0.259
			c-0.003-0.403,0.152-0.783,0.438-1.068c0.284-0.285,0.661-0.441,1.062-0.441c0.002,0,0.004,0,0.006,0L13.251,31
			c0.276,0.001,0.499,0.226,0.498,0.502C13.749,31.777,13.525,32,13.25,32c0,0-0.001,0-0.001,0l-3.005-0.012c0,0-0.001,0-0.002,0
			c-0.134,0-0.26,0.052-0.354,0.147c-0.095,0.095-0.146,0.222-0.146,0.356l0.001,0.259c0.002,0.273,0.226,0.496,0.5,0.496
			c0,0,0.001,0,0.001,0l2.484-0.009c0.409,0.032,0.78,0.154,1.064,0.438s0.441,0.661,0.441,1.062v0.25c0,0.824-0.67,1.497-1.494,1.5
			L9.751,36.5H9.75z"/>
	</g>
	<g>
		<path class="st0" d="M11.5,31.5c-0.276,0-0.5-0.224-0.5-0.5v-1c0-0.276,0.224-0.5,0.5-0.5S12,29.724,12,30v1
			C12,31.276,11.776,31.5,11.5,31.5z"/>
	</g>
	<g>
		<path class="st0" d="M11.5,38c-0.276,0-0.5-0.224-0.5-0.5v-1c0-0.276,0.224-0.5,0.5-0.5s0.5,0.224,0.5,0.5v1
			C12,37.776,11.776,38,11.5,38z"/>
	</g>
	<g>
		<path class="st2" d="M18.5,47.75h-14c-0.552,0-1-0.448-1-1v-3c0-0.552,0.448-1,1-1h14c0.552,0,1,0.448,1,1v3
			C19.5,47.302,19.052,47.75,18.5,47.75z"/>
		<path class="st0" d="M18.5,48.25h-14c-0.827,0-1.5-0.673-1.5-1.5v-3c0-0.827,0.673-1.5,1.5-1.5h14c0.827,0,1.5,0.673,1.5,1.5v3
			C20,47.577,19.327,48.25,18.5,48.25z M4.5,43.25c-0.276,0-0.5,0.224-0.5,0.5v3c0,0.276,0.224,0.5,0.5,0.5h14
			c0.276,0,0.5-0.224,0.5-0.5v-3c0-0.276-0.224-0.5-0.5-0.5H4.5z"/>
	</g>
	<g>
		<path class="st2" d="M15.5,52.75h-14c-0.552,0-1-0.448-1-1v-3c0-0.552,0.448-1,1-1h14c0.552,0,1,0.448,1,1v3
			C16.5,52.302,16.052,52.75,15.5,52.75z"/>
		<path class="st0" d="M15.5,53.25h-14c-0.827,0-1.5-0.673-1.5-1.5v-3c0-0.827,0.673-1.5,1.5-1.5h14c0.827,0,1.5,0.673,1.5,1.5v3
			C17,52.577,16.327,53.25,15.5,53.25z M1.5,48.25c-0.276,0-0.5,0.224-0.5,0.5v3c0,0.276,0.224,0.5,0.5,0.5h14
			c0.276,0,0.5-0.224,0.5-0.5v-3c0-0.276-0.224-0.5-0.5-0.5H1.5z"/>
	</g>
	<g>
		<path class="st2" d="M19.5,57.75h-14c-0.552,0-1-0.448-1-1v-3c0-0.552,0.448-1,1-1h14c0.552,0,1,0.448,1,1v3
			C20.5,57.302,20.052,57.75,19.5,57.75z"/>
		<path class="st0" d="M19.5,58.25h-14c-0.827,0-1.5-0.673-1.5-1.5v-3c0-0.827,0.673-1.5,1.5-1.5h14c0.827,0,1.5,0.673,1.5,1.5v3
			C21,57.577,20.327,58.25,19.5,58.25z M5.5,53.25c-0.276,0-0.5,0.224-0.5,0.5v3c0,0.276,0.224,0.5,0.5,0.5h14
			c0.276,0,0.5-0.224,0.5-0.5v-3c0-0.276-0.224-0.5-0.5-0.5H5.5z"/>
	</g>
	<g>
		<path class="st2" d="M18.5,62.75h-14c-0.552,0-1-0.448-1-1v-3c0-0.552,0.448-1,1-1h14c0.552,0,1,0.448,1,1v3
			C19.5,62.302,19.052,62.75,18.5,62.75z"/>
		<path class="st0" d="M18.5,63.25h-14c-0.827,0-1.5-0.673-1.5-1.5v-3c0-0.827,0.673-1.5,1.5-1.5h14c0.827,0,1.5,0.673,1.5,1.5v3
			C20,62.577,19.327,63.25,18.5,63.25z M4.5,58.25c-0.276,0-0.5,0.224-0.5,0.5v3c0,0.276,0.224,0.5,0.5,0.5h14
			c0.276,0,0.5-0.224,0.5-0.5v-3c0-0.276-0.224-0.5-0.5-0.5H4.5z"/>
	</g>
	<g>
		<path class="st0" d="M17.5,25.038c-0.276,0-0.5-0.224-0.5-0.5V12c0-2.206-1.794-4-4-4c-0.276,0-0.5-0.224-0.5-0.5S12.723,7,13,7
			h33.5c3.032,0,5.5,2.467,5.5,5.5v3.988c0,0.276-0.224,0.5-0.5,0.5s-0.5-0.224-0.5-0.5V12.5c0-2.481-2.019-4.5-4.5-4.5H15.997
			C17.212,8.913,18,10.366,18,12v12.538C18,24.814,17.776,25.038,17.5,25.038z"/>
	</g>
	<g>
		<path class="st0" d="M51.5,52.5c-0.276,0-0.5-0.224-0.5-0.5V36.63c0-0.276,0.224-0.5,0.5-0.5s0.5,0.224,0.5,0.5V52
			C52,52.276,51.776,52.5,51.5,52.5z"/>
	</g>
	<g>
		<path class="st0" d="M42,17H27c-0.276,0-0.5-0.224-0.5-0.5S26.723,16,27,16h15c0.276,0,0.5,0.224,0.5,0.5S42.276,17,42,17z"/>
	</g>
	<g>
		<path class="st0" d="M33,26h-9c-0.276,0-0.5-0.224-0.5-0.5S23.723,25,24,25h9c0.276,0,0.5,0.224,0.5,0.5S33.275,26,33,26z"/>
	</g>
	<g>
		<path class="st0" d="M33,31h-9c-0.276,0-0.5-0.224-0.5-0.5S23.723,30,24,30h9c0.276,0,0.5,0.224,0.5,0.5S33.275,31,33,31z"/>
	</g>
	<g>
		<path class="st0" d="M33,36h-9c-0.276,0-0.5-0.224-0.5-0.5S23.723,35,24,35h9c0.276,0,0.5,0.224,0.5,0.5S33.275,36,33,36z"/>
	</g>
	<g>
		<path class="st0" d="M43,26h-4c-0.276,0-0.5-0.224-0.5-0.5S38.724,25,39,25h4c0.276,0,0.5,0.224,0.5,0.5S43.276,26,43,26z"/>
	</g>
	<g>
		<path class="st0" d="M43,31h-4c-0.276,0-0.5-0.224-0.5-0.5S38.724,30,39,30h4c0.276,0,0.5,0.224,0.5,0.5S43.276,31,43,31z"/>
	</g>
	<g>
		<path class="st0" d="M52.5,5.5C52.224,5.5,52,5.276,52,5V1c0-0.276,0.224-0.5,0.5-0.5S53,0.724,53,1v4
			C53,5.276,52.776,5.5,52.5,5.5z"/>
	</g>
	<g>
		<path class="st0" d="M54.5,3.5h-4C50.224,3.5,50,3.276,50,3s0.224-0.5,0.5-0.5h4C54.776,2.5,55,2.724,55,3S54.776,3.5,54.5,3.5z"
			/>
	</g>
	<g>
		<path class="st0" d="M59,12.5c-0.276,0-0.5-0.224-0.5-0.5V8c0-0.276,0.224-0.5,0.5-0.5s0.5,0.224,0.5,0.5v4
			C59.5,12.276,59.276,12.5,59,12.5z"/>
	</g>
	<g>
		<path class="st0" d="M61,10.5h-4c-0.276,0-0.5-0.224-0.5-0.5s0.224-0.5,0.5-0.5h4c0.276,0,0.5,0.224,0.5,0.5S61.276,10.5,61,10.5z
			"/>
	</g>
	<g>
		<path class="st0" d="M4.5,3.5h-1C3.224,3.5,3,3.276,3,3s0.224-0.5,0.5-0.5h1C4.776,2.5,5,2.724,5,3S4.776,3.5,4.5,3.5z"/>
	</g>
	<g>
		<path class="st0" d="M23.5,3.5h-17C6.224,3.5,6,3.276,6,3s0.224-0.5,0.5-0.5h17C23.776,2.5,24,2.724,24,3S23.776,3.5,23.5,3.5z"/>
	</g>
	<g>
		<path class="st0" d="M33.388,52.5c-1.335,0-2.591-0.52-3.536-1.464c-1.95-1.949-1.95-5.122,0-7.071
			c0.938-0.938,2.218-1.504,3.57-1.448L48.07,27.868c0.506-0.506,0.703-1.25,0.515-1.94l-0.448-1.646
			c-0.282-1.036,0.014-2.151,0.772-2.911l3.605-3.605c0.759-0.76,1.872-1.056,2.911-0.773l3.045,0.831
			c0.172,0.047,0.306,0.182,0.352,0.354s-0.004,0.356-0.13,0.482l-4.58,4.58l0.884,2.651l2.652,0.884l4.579-4.579
			c0.126-0.126,0.312-0.176,0.481-0.13c0.173,0.046,0.308,0.18,0.354,0.352l0.83,3.045c0.283,1.036-0.013,2.151-0.772,2.91
			l-3.605,3.605c-0.759,0.76-1.874,1.056-2.91,0.773l-1.646-0.448c-0.69-0.189-1.434,0.009-1.94,0.515L38.371,47.466
			c0.011,1.342-0.511,2.632-1.448,3.569C35.979,51.979,34.724,52.5,33.388,52.5z M33.374,43.516c-1.072,0-2.065,0.406-2.815,1.156
			c-1.56,1.56-1.56,4.097,0,5.657c1.511,1.511,4.147,1.511,5.657,0c0.803-0.802,1.211-1.88,1.15-3.037
			c-0.008-0.142,0.045-0.28,0.146-0.38l14.801-14.801c0.759-0.76,1.874-1.058,2.911-0.773l1.646,0.448
			c0.688,0.188,1.434-0.008,1.939-0.515l3.605-3.605c0.506-0.506,0.703-1.249,0.515-1.94v0l-0.604-2.213l-4.188,4.188
			c-0.134,0.134-0.33,0.182-0.512,0.121l-3.183-1.061c-0.149-0.049-0.267-0.167-0.316-0.316l-1.061-3.182
			c-0.06-0.18-0.013-0.378,0.121-0.512l4.189-4.188l-2.214-0.604c-0.691-0.189-1.436,0.009-1.94,0.515l-3.605,3.605
			c-0.506,0.506-0.703,1.25-0.515,1.94l0.448,1.646c0.282,1.036-0.014,2.151-0.772,2.911l-14.801,14.8
			c-0.1,0.101-0.242,0.156-0.38,0.146C33.522,43.518,33.448,43.516,33.374,43.516z M33.388,49.999c-0.641,0-1.28-0.244-1.768-0.731
			c-0.975-0.975-0.975-2.561,0-3.536C32.092,45.26,32.72,45,33.388,45l0,0c0.667,0,1.295,0.26,1.768,0.732
			c0.975,0.975,0.975,2.561,0,3.536C34.668,49.755,34.027,49.999,33.388,49.999z M33.388,46c-0.385,0-0.768,0.146-1.061,0.438
			c-0.585,0.585-0.585,1.537,0,2.122c0.585,0.584,1.537,0.584,2.121,0c0.283-0.284,0.439-0.66,0.439-1.061
			c0-0.4-0.156-0.777-0.439-1.061C34.155,46.146,33.771,46,33.388,46z"/>
	</g>
	<g>
		<path class="st0" d="M38.338,43.05c-0.128,0-0.256-0.049-0.354-0.146c-0.195-0.195-0.195-0.512,0-0.707L48.591,31.59
			c0.195-0.195,0.512-0.195,0.707,0s0.195,0.512,0,0.707L38.691,42.904C38.594,43.001,38.466,43.05,38.338,43.05z"/>
	</g>
</g>
</svg>
