<?xml version="1.0" encoding="utf-8"?>
<!-- Generator: Adobe Illustrator 21.1.0, SVG Export Plug-In . SVG Version: 6.00 Build 0)  -->
<svg version="1.1" id="Icon_Set" xmlns="http://www.w3.org/2000/svg" xmlns:xlink="http://www.w3.org/1999/xlink" x="0px" y="0px"
	 viewBox="0 0 64 64" style="enable-background:new 0 0 64 64;" xml:space="preserve">
<style type="text/css">
	.st0{fill:#263238;}
	.st1{fill:#FF5252;}
	.st2{fill:#FFD740;}
	.st3{fill:#40C4FF;}
	.st4{fill:#FFFFFF;}
	.st5{fill:#4DB6AC;}
	.st6{fill:#4FC3F7;}
</style>
<g id="Shock_Absorber">
	<g>
		<path class="st0" d="M54.42,19.571c-0.128,0-0.256-0.049-0.354-0.146c-0.195-0.195-0.195-0.512,0-0.707l2.828-2.829
			c2.145-2.144,2.145-5.634,0-7.778c-2.146-2.145-5.635-2.144-7.778,0l-2.828,2.829c-0.195,0.195-0.512,0.195-0.707,0
			s-0.195-0.512,0-0.707l2.828-2.829c2.535-2.535,6.659-2.534,9.192,0c2.534,2.535,2.534,6.658,0,9.192l-2.828,2.829
			C54.676,19.522,54.548,19.571,54.42,19.571z"/>
	</g>
	<g>
		<path class="st0" d="M39.217,36.188c-0.133,0-0.26-0.053-0.354-0.146l-9.899-9.9c-0.195-0.195-0.195-0.512,0-0.707l12.374-12.374
			c0.195-0.195,0.512-0.195,0.707,0s0.195,0.512,0,0.707L30.024,25.789l9.192,9.193l10.96-10.96c0.195-0.195,0.512-0.195,0.707,0
			s0.195,0.512,0,0.707L39.57,36.042C39.477,36.136,39.35,36.188,39.217,36.188z"/>
	</g>
	<g>
		<path class="st0" d="M20.125,51.745c-0.128,0-0.256-0.049-0.354-0.146l-6.364-6.364c-0.094-0.094-0.146-0.221-0.146-0.354
			s0.053-0.26,0.146-0.354l17.324-17.324c0.195-0.195,0.512-0.195,0.707,0s0.195,0.512,0,0.707L14.468,44.881l5.657,5.657
			l16.971-16.971c0.195-0.195,0.512-0.195,0.707,0s0.195,0.512,0,0.707L20.479,51.598C20.381,51.696,20.253,51.745,20.125,51.745z"
			/>
	</g>
	<g>
		<path class="st0" d="M11.993,57.512c-1.202,0-2.332-0.468-3.182-1.318c-0.851-0.85-1.318-1.98-1.318-3.182
			c0-1.202,0.468-2.333,1.318-3.182c0.85-0.85,1.979-1.318,3.182-1.318s2.332,0.468,3.182,1.318c0.851,0.85,1.318,1.98,1.318,3.182
			c0,1.202-0.468,2.332-1.318,3.182l0,0l0,0C14.325,57.044,13.195,57.512,11.993,57.512z M11.993,49.513
			c-0.935,0-1.813,0.364-2.475,1.025s-1.025,1.54-1.025,2.475c0,0.935,0.364,1.813,1.025,2.475c1.322,1.322,3.627,1.322,4.949,0l0,0
			c0.661-0.661,1.025-1.54,1.025-2.475c0-0.935-0.364-1.814-1.025-2.475S12.928,49.513,11.993,49.513z"/>
	</g>
	<g>
		<path class="st0" d="M11.993,55.511c-0.64,0-1.28-0.243-1.768-0.73c-0.975-0.975-0.975-2.561,0-3.536s2.561-0.975,3.535,0
			s0.975,2.561,0,3.536l0,0C13.273,55.268,12.633,55.511,11.993,55.511z M11.993,51.513c-0.384,0-0.769,0.146-1.061,0.438
			c-0.585,0.585-0.585,1.537,0,2.122c0.584,0.584,1.537,0.584,2.121,0c0.585-0.585,0.585-1.537,0-2.122
			C12.762,51.659,12.377,51.513,11.993,51.513z M13.407,54.427h0.01H13.407z"/>
	</g>
	<g>
		<path class="st0" d="M53.005,15.499c-0.896,0-1.792-0.341-2.475-1.023c-1.364-1.365-1.364-3.585,0-4.95
			c1.365-1.363,3.585-1.365,4.95,0c0.661,0.661,1.025,1.54,1.025,2.475s-0.364,1.814-1.025,2.475l0,0
			C54.798,15.157,53.901,15.499,53.005,15.499z M53.005,9.501c-0.64,0-1.28,0.244-1.768,0.731c-0.974,0.975-0.974,2.561,0,3.536
			c0.975,0.975,2.562,0.974,3.536,0c0.473-0.473,0.732-1.1,0.732-1.768c0-0.667-0.26-1.295-0.732-1.768
			C54.286,9.745,53.646,9.501,53.005,9.501z M55.127,14.122h0.01H55.127z"/>
	</g>
	<g>
		<path class="st1" d="M30.378,24.728l-0.707-0.707c-1.364-1.364-1.364-3.585,0-4.95l0.297-0.297
			c1.151-1.151,2.922-1.359,4.309-0.507l14.979,8.968c0.197,0.118,0.448,0.087,0.61-0.075l0.311-0.311
			c0.195-0.195,0.195-0.512,0-0.707l-0.707-0.707l2.121-2.121l0.707,0.707c1.364,1.364,1.364,3.585,0,4.95l-0.311,0.311
			c-1.137,1.137-2.894,1.354-4.273,0.528l-14.994-8.977c-0.213-0.131-0.467-0.102-0.631,0.063l-0.297,0.297
			c-0.195,0.195-0.195,0.512,0,0.707l0.707,0.707L30.378,24.728z"/>
		<path class="st0" d="M49.513,30.808c-0.706,0-1.416-0.187-2.056-0.569l-14.993-8.977l-0.318,0.285l0.707,0.707
			c0.195,0.195,0.195,0.512,0,0.707l-2.121,2.121c-0.195,0.195-0.512,0.195-0.707,0l-0.707-0.707c-1.56-1.559-1.56-4.097,0-5.657
			l0.297-0.297c1.315-1.316,3.34-1.554,4.924-0.579l14.975,8.964l0.311-0.31l-0.707-0.708c-0.195-0.195-0.195-0.512,0-0.707
			l2.121-2.122c0.094-0.094,0.221-0.146,0.354-0.146l0,0c0.133,0,0.26,0.053,0.354,0.146l0.707,0.708
			c0.755,0.754,1.17,1.759,1.17,2.829c0,1.069-0.415,2.074-1.17,2.828l-0.311,0.311C51.569,30.407,50.546,30.808,49.513,30.808z
			 M32.439,20.251c0.186,0,0.373,0.051,0.543,0.155l14.988,8.974c1.182,0.708,2.688,0.522,3.663-0.452l0.311-0.311
			c0.565-0.565,0.877-1.319,0.877-2.121s-0.312-1.556-0.877-2.122l-0.354-0.354l-1.414,1.415l0.354,0.354
			c0.188,0.188,0.293,0.439,0.293,0.706c0,0.268-0.104,0.519-0.293,0.708l-0.311,0.311c-0.326,0.325-0.828,0.385-1.222,0.15
			L34.02,18.697c-1.192-0.734-2.712-0.556-3.698,0.431l-0.297,0.297c-1.169,1.17-1.17,3.074,0,4.243l0.354,0.354l1.414-1.414
			l-0.354-0.354c-0.189-0.189-0.293-0.44-0.293-0.708c0-0.267,0.104-0.518,0.293-0.707l0.298-0.297
			C31.928,20.351,32.181,20.251,32.439,20.251z"/>
	</g>
	<g>
		<path class="st1" d="M22.953,35.688l-2.475-2.475c-1.364-1.364-1.364-3.585,0-4.95l0.31-0.31c1.138-1.138,2.896-1.354,4.276-0.526
			l14.999,8.999c0.197,0.118,0.449,0.087,0.611-0.075l0.31-0.31c0.195-0.195,0.195-0.512,0-0.707l-0.707-0.707l2.121-2.121
			l0.707,0.707c1.364,1.364,1.364,3.585,0,4.95l-0.31,0.31c-1.138,1.138-2.896,1.354-4.275,0.526L23.521,30
			c-0.197-0.118-0.449-0.087-0.611,0.075l-0.31,0.31c-0.195,0.195-0.195,0.512,0,0.707l2.475,2.475L22.953,35.688z"/>
		<path class="st0" d="M40.322,40c-0.707,0-1.419-0.188-2.059-0.572l-15-8.999l-0.311,0.311l2.475,2.474
			c0.195,0.195,0.195,0.512,0,0.707l-2.121,2.122c-0.188,0.188-0.52,0.188-0.707,0l-2.475-2.475c-1.56-1.559-1.56-4.097,0-5.657
			l0.31-0.31c1.301-1.301,3.31-1.547,4.887-0.601l14.999,8.999l0.311-0.31l-0.707-0.707c-0.195-0.195-0.195-0.512,0-0.707
			l2.121-2.122c0.188-0.188,0.52-0.188,0.707,0l0.707,0.707c0.755,0.754,1.171,1.759,1.171,2.829c0,1.069-0.416,2.074-1.171,2.828
			l-0.31,0.31C42.378,39.599,41.355,40,40.322,40z M23.263,29.428c0.177,0,0.354,0.047,0.515,0.143l15,8.999
			c1.183,0.71,2.689,0.525,3.665-0.451l0.31-0.31c0.565-0.565,0.878-1.319,0.878-2.121s-0.312-1.556-0.878-2.122l-0.354-0.354
			l-1.414,1.415l0.354,0.354c0.188,0.188,0.293,0.439,0.293,0.706c0,0.268-0.104,0.519-0.293,0.708l-0.31,0.31
			c-0.324,0.325-0.827,0.387-1.222,0.15l-14.999-8.999c-1.184-0.711-2.691-0.525-3.666,0.451l-0.31,0.31
			c-1.169,1.17-1.17,3.073,0,4.243l2.121,2.122l1.414-1.415l-2.121-2.121c-0.189-0.189-0.293-0.44-0.293-0.708
			c0-0.267,0.104-0.518,0.293-0.707l0.311-0.31C22.749,29.528,23.005,29.428,23.263,29.428z"/>
	</g>
	<g>
		<path class="st1" d="M13.761,44.881l-2.475-2.475c-1.364-1.364-1.364-3.585,0-4.95l0.311-0.311
			c1.137-1.137,2.894-1.354,4.273-0.528l14.994,8.977c0.214,0.132,0.466,0.102,0.631-0.063l0.297-0.297
			c0.195-0.195,0.195-0.512,0-0.707l-2.475-2.475l2.121-2.121l2.475,2.475c1.364,1.364,1.364,3.585,0,4.95l-0.297,0.297
			c-1.151,1.151-2.923,1.359-4.31,0.506l-14.978-8.968c-0.197-0.118-0.448-0.087-0.61,0.075l-0.311,0.311
			c-0.195,0.195-0.195,0.512,0,0.707l2.475,2.475L13.761,44.881z"/>
		<path class="st0" d="M31.145,49.182c-0.722,0-1.448-0.196-2.1-0.597L14.072,39.62l-0.312,0.312l2.475,2.474
			c0.195,0.195,0.195,0.512,0,0.707l-2.121,2.122c-0.188,0.188-0.52,0.188-0.707,0l-2.475-2.475c-1.56-1.559-1.56-4.097,0-5.657
			l0.311-0.311c1.3-1.299,3.309-1.548,4.884-0.603l14.994,8.977l0.317-0.284l-2.475-2.475c-0.195-0.195-0.195-0.512,0-0.707
			l2.121-2.122c0.188-0.188,0.52-0.188,0.707,0l2.475,2.475c0.755,0.754,1.17,1.759,1.17,2.829c0,1.069-0.415,2.074-1.17,2.828
			l-0.297,0.297C33.196,48.78,32.176,49.182,31.145,49.182z M14.072,38.62c0.176,0,0.354,0.046,0.514,0.143l14.978,8.967
			c1.194,0.735,2.713,0.556,3.699-0.431l0.297-0.297c0.565-0.565,0.877-1.319,0.877-2.121s-0.312-1.556-0.877-2.122l-2.121-2.121
			l-1.414,1.415l2.121,2.121c0.188,0.188,0.293,0.439,0.293,0.706c0,0.268-0.104,0.519-0.293,0.708l-0.297,0.297
			c-0.329,0.329-0.842,0.383-1.246,0.136l-14.989-8.974c-1.182-0.708-2.688-0.522-3.663,0.452L11.64,37.81
			c-1.169,1.17-1.17,3.073,0,4.243l2.121,2.122l1.414-1.415l-2.121-2.121c-0.189-0.189-0.293-0.44-0.293-0.708
			c0-0.267,0.104-0.518,0.293-0.707l0.312-0.311C13.558,38.72,13.813,38.62,14.072,38.62z"/>
	</g>
	<g>
		<path class="st0" d="M18.711,54.158c-0.384,0-0.769-0.146-1.061-0.438l-6.364-6.364c-0.585-0.585-0.585-1.536,0-2.121l0.707-0.707
			c0.584-0.585,1.537-0.585,2.121,0l6.364,6.364c0.283,0.283,0.439,0.66,0.439,1.061c0,0.401-0.156,0.778-0.439,1.061l-0.707,0.707
			C19.479,54.012,19.095,54.158,18.711,54.158z M13.054,45.088c-0.128,0-0.256,0.048-0.354,0.146l-0.707,0.707
			c-0.195,0.195-0.195,0.512,0,0.707l6.364,6.364l0,0c0.195,0.195,0.512,0.195,0.707,0l0.707-0.707
			c0.095-0.095,0.146-0.22,0.146-0.354c0-0.133-0.052-0.259-0.146-0.354l-6.364-6.364C13.31,45.137,13.182,45.088,13.054,45.088z"/>
	</g>
	<g>
		<path class="st0" d="M52.651,24.46c-0.384,0-0.768-0.146-1.061-0.439L40.984,13.415c-0.585-0.585-0.585-1.537,0-2.122l0.707-0.707
			c0.585-0.585,1.535-0.586,2.122,0L54.42,21.193c0.283,0.283,0.439,0.66,0.439,1.061c0,0.4-0.156,0.777-0.439,1.061l-0.707,0.707
			C53.42,24.313,53.036,24.46,52.651,24.46z M42.753,11.146c-0.129,0-0.257,0.049-0.354,0.146L41.691,12
			c-0.195,0.195-0.195,0.512,0,0.708l10.606,10.606c0.194,0.194,0.512,0.196,0.708,0l0.707-0.707
			c0.095-0.095,0.146-0.22,0.146-0.354c0-0.134-0.052-0.259-0.146-0.353L43.106,11.293C43.009,11.195,42.881,11.146,42.753,11.146z"
			/>
	</g>
	<g>
		<path class="st0" d="M16.999,18.006h-1c-0.276,0-0.5-0.224-0.5-0.5s0.224-0.5,0.5-0.5h1c0.276,0,0.5,0.224,0.5,0.5
			S17.275,18.006,16.999,18.006z"/>
	</g>
	<g>
		<path class="st0" d="M13.999,18.006h-12c-0.276,0-0.5-0.224-0.5-0.5s0.224-0.5,0.5-0.5h12c0.276,0,0.5,0.224,0.5,0.5
			S14.275,18.006,13.999,18.006z"/>
	</g>
	<g>
		<path class="st0" d="M8.499,15.006h-1c-0.276,0-0.5-0.224-0.5-0.5s0.224-0.5,0.5-0.5h1c0.276,0,0.5,0.224,0.5,0.5
			S8.775,15.006,8.499,15.006z"/>
	</g>
	<g>
		<path class="st0" d="M22.499,15.006h-12c-0.276,0-0.5-0.224-0.5-0.5s0.224-0.5,0.5-0.5h12c0.276,0,0.5,0.224,0.5,0.5
			S22.775,15.006,22.499,15.006z"/>
	</g>
	<g>
		<path class="st0" d="M59.999,51.5c-0.276,0-0.5-0.224-0.5-0.5v-4c0-0.276,0.224-0.5,0.5-0.5s0.5,0.224,0.5,0.5v4
			C60.499,51.277,60.275,51.5,59.999,51.5z"/>
	</g>
	<g>
		<path class="st0" d="M61.999,49.5h-4c-0.276,0-0.5-0.224-0.5-0.5s0.224-0.5,0.5-0.5h4c0.276,0,0.5,0.224,0.5,0.5
			S62.275,49.5,61.999,49.5z"/>
	</g>
	<g>
		<path class="st0" d="M52.999,58.5c-0.276,0-0.5-0.224-0.5-0.5v-4c0-0.276,0.224-0.5,0.5-0.5s0.5,0.224,0.5,0.5v4
			C53.499,58.277,53.275,58.5,52.999,58.5z"/>
	</g>
	<g>
		<path class="st0" d="M54.999,56.5h-4c-0.276,0-0.5-0.224-0.5-0.5s0.224-0.5,0.5-0.5h4c0.276,0,0.5,0.224,0.5,0.5
			S55.275,56.5,54.999,56.5z"/>
	</g>
</g>
</svg>
