<?xml version="1.0" encoding="utf-8"?>
<!-- Generator: Adobe Illustrator 21.1.0, SVG Export Plug-In . SVG Version: 6.00 Build 0)  -->
<svg version="1.1" id="Icon_Set" xmlns="http://www.w3.org/2000/svg" xmlns:xlink="http://www.w3.org/1999/xlink" x="0px" y="0px"
	 viewBox="0 0 64 64" style="enable-background:new 0 0 64 64;" xml:space="preserve">
<style type="text/css">
	.st0{fill:#263238;}
	.st1{fill:#FF5252;}
	.st2{fill:#FFD740;}
	.st3{fill:#40C4FF;}
	.st4{fill:#FFFFFF;}
	.st5{fill:#4DB6AC;}
	.st6{fill:#4FC3F7;}
</style>
<g id="Speedometer">
	<g>
		<path class="st0" d="M58,62.5c-0.276,0-0.5-0.224-0.5-0.5c0-14.061-11.439-25.5-25.5-25.5S6.5,47.939,6.5,62
			c0,0.276-0.224,0.5-0.5,0.5S5.5,62.276,5.5,62c0-14.612,11.888-26.5,26.5-26.5S58.5,47.388,58.5,62
			C58.5,62.276,58.277,62.5,58,62.5z M49.312,58.5h-0.811c-0.276,0-0.5-0.224-0.5-0.5s0.224-0.5,0.5-0.5h0.811
			c0.662,0,1.283-0.326,1.663-0.873c0.371-0.534,0.456-1.183,0.233-1.781C48.235,46.863,40.516,41.5,32,41.5
			s-16.234,5.363-19.207,13.346c-0.223,0.599-0.138,1.248,0.233,1.781c0.379,0.546,1.001,0.873,1.663,0.873H15.5
			c0.276,0,0.5,0.224,0.5,0.5s-0.224,0.5-0.5,0.5h-0.811c-0.989,0-1.917-0.487-2.484-1.302c-0.561-0.807-0.688-1.791-0.349-2.701
			C14.974,46.125,23.069,40.5,32,40.5s17.026,5.625,20.144,13.998c0.338,0.91,0.211,1.894-0.349,2.701
			C51.229,58.013,50.3,58.5,49.312,58.5z"/>
	</g>
	<g>
		<path class="st0" d="M41.085,36.021c-0.171,0-0.339-0.088-0.432-0.247c-0.14-0.238-0.06-0.544,0.178-0.684
			C46.179,31.953,49.5,26.171,49.5,20c0-9.649-7.851-17.5-17.5-17.5S14.5,10.351,14.5,20c0,6.171,3.322,11.953,8.668,15.09
			c0.238,0.14,0.318,0.446,0.178,0.684c-0.14,0.238-0.446,0.318-0.684,0.178C17.011,32.637,13.5,26.524,13.5,20
			C13.5,9.799,21.799,1.5,32,1.5S50.5,9.799,50.5,20c0,6.524-3.511,12.637-9.163,15.952C41.258,35.999,41.171,36.021,41.085,36.021z
			"/>
	</g>
	<g>
		<path class="st2" d="M26.67,34.007C28.398,33.679,30.178,33.5,32,33.5s3.602,0.179,5.33,0.507C42.98,31.856,47,26.404,47,20
			c0-8.284-6.716-15-15-15s-15,6.716-15,15C17,26.404,21.021,31.856,26.67,34.007z"/>
		<path class="st0" d="M37.331,34.507c-0.031,0-0.062-0.003-0.093-0.009c-3.479-0.661-6.995-0.661-10.474,0
			c-0.089,0.018-0.185,0.009-0.271-0.024C20.516,32.198,16.5,26.381,16.5,20c0-8.547,6.953-15.5,15.5-15.5S47.5,11.453,47.5,20
			c0,6.381-4.016,12.198-9.992,14.475C37.452,34.496,37.391,34.507,37.331,34.507z M32,33c1.751,0,3.528,0.165,5.283,0.49
			C42.802,31.326,46.5,25.923,46.5,20c0-7.995-6.505-14.5-14.5-14.5S17.5,12.005,17.5,20c0,5.923,3.698,11.326,9.217,13.49
			C28.473,33.165,30.249,33,32,33z"/>
	</g>
	<g>
		<circle class="st4" cx="32" cy="20" r="2"/>
		<path class="st0" d="M32,22.5c-1.378,0-2.5-1.122-2.5-2.5s1.122-2.5,2.5-2.5s2.5,1.122,2.5,2.5S33.379,22.5,32,22.5z M32,18.5
			c-0.827,0-1.5,0.673-1.5,1.5s0.673,1.5,1.5,1.5s1.5-0.673,1.5-1.5S32.828,18.5,32,18.5z"/>
	</g>
	<g>
		<path class="st0" d="M32,18.5c-0.276,0-0.5-0.224-0.5-0.5v-7c0-0.276,0.224-0.5,0.5-0.5s0.5,0.224,0.5,0.5v7
			C32.5,18.276,32.277,18.5,32,18.5z"/>
	</g>
	<g>
		<path class="st3" d="M35.5,28.5h-7c-0.552,0-1-0.448-1-1v-1c0-0.552,0.448-1,1-1h7c0.552,0,1,0.448,1,1v1
			C36.5,28.052,36.053,28.5,35.5,28.5z"/>
		<path class="st0" d="M35.5,29h-7c-0.827,0-1.5-0.673-1.5-1.5v-1c0-0.827,0.673-1.5,1.5-1.5h7c0.827,0,1.5,0.673,1.5,1.5v1
			C37,28.327,36.328,29,35.5,29z M28.5,26c-0.276,0-0.5,0.224-0.5,0.5v1c0,0.276,0.224,0.5,0.5,0.5h7c0.276,0,0.5-0.224,0.5-0.5v-1
			c0-0.276-0.224-0.5-0.5-0.5H28.5z"/>
	</g>
	<g>
		<path class="st0" d="M32,8c-0.276,0-0.5-0.224-0.5-0.5V5c0-0.276,0.224-0.5,0.5-0.5s0.5,0.224,0.5,0.5v2.5
			C32.5,7.776,32.277,8,32,8z"/>
	</g>
	<g>
		<path class="st0" d="M23.162,11.661c-0.128,0-0.256-0.049-0.354-0.146l-1.768-1.768c-0.195-0.195-0.195-0.512,0-0.707
			s0.512-0.195,0.707,0l1.768,1.768c0.195,0.195,0.195,0.512,0,0.707C23.417,11.612,23.29,11.661,23.162,11.661z"/>
	</g>
	<g>
		<path class="st0" d="M19.5,20.5H17c-0.276,0-0.5-0.224-0.5-0.5s0.224-0.5,0.5-0.5h2.5c0.276,0,0.5,0.224,0.5,0.5
			S19.777,20.5,19.5,20.5z"/>
	</g>
	<g>
		<path class="st0" d="M47,20.5h-2.5c-0.276,0-0.5-0.224-0.5-0.5s0.224-0.5,0.5-0.5H47c0.276,0,0.5,0.224,0.5,0.5
			S47.277,20.5,47,20.5z"/>
	</g>
	<g>
		<path class="st0" d="M40.839,11.661c-0.128,0-0.256-0.049-0.354-0.146c-0.195-0.195-0.195-0.512,0-0.707l1.768-1.768
			c0.195-0.195,0.512-0.195,0.707,0s0.195,0.512,0,0.707l-1.768,1.768C41.095,11.612,40.967,11.661,40.839,11.661z"/>
	</g>
	<g>
		<path class="st0" d="M47,62.5c-0.276,0-0.5-0.224-0.5-0.5c0-1.154-0.148-2.329-0.441-3.5h-4.896c-0.199,0-0.378-0.118-0.458-0.3
			c-1.515-3.463-4.931-5.7-8.705-5.7s-7.19,2.237-8.705,5.7c-0.08,0.182-0.259,0.3-0.458,0.3h-4.896
			C17.649,59.671,17.5,60.846,17.5,62c0,0.276-0.224,0.5-0.5,0.5s-0.5-0.224-0.5-0.5c0-1.364,0.193-2.755,0.574-4.133
			c0.06-0.217,0.257-0.367,0.482-0.367h4.96c1.736-3.656,5.423-6,9.484-6s7.748,2.344,9.484,6h4.96c0.225,0,0.422,0.15,0.482,0.367
			C47.307,59.245,47.5,60.636,47.5,62C47.5,62.276,47.277,62.5,47,62.5z"/>
	</g>
	<g>
		<path class="st0" d="M4,6H3C2.724,6,2.5,5.776,2.5,5.5S2.724,5,3,5h1c0.276,0,0.5,0.224,0.5,0.5S4.277,6,4,6z"/>
	</g>
	<g>
		<path class="st0" d="M15,6H6C5.724,6,5.5,5.776,5.5,5.5S5.724,5,6,5h9c0.276,0,0.5,0.224,0.5,0.5S15.277,6,15,6z"/>
	</g>
	<g>
		<path class="st0" d="M61,6h-1c-0.276,0-0.5-0.224-0.5-0.5S59.724,5,60,5h1c0.276,0,0.5,0.224,0.5,0.5S61.277,6,61,6z"/>
	</g>
	<g>
		<path class="st0" d="M58,6h-9c-0.276,0-0.5-0.224-0.5-0.5S48.724,5,49,5h9c0.276,0,0.5,0.224,0.5,0.5S58.277,6,58,6z"/>
	</g>
	<g>
		<path class="st0" d="M9.5,25.5c-0.128,0-0.256-0.049-0.354-0.146l-4-4c-0.195-0.195-0.195-0.512,0-0.707s0.512-0.195,0.707,0l4,4
			c0.195,0.195,0.195,0.512,0,0.707C9.756,25.451,9.628,25.5,9.5,25.5z"/>
	</g>
	<g>
		<path class="st0" d="M54.5,25.5c-0.276,0-0.5-0.224-0.5-0.5v-5.657c0-0.276,0.224-0.5,0.5-0.5s0.5,0.224,0.5,0.5V25
			C55,25.276,54.777,25.5,54.5,25.5z"/>
	</g>
	<g>
		<path class="st0" d="M9.5,34.5C4.262,34.5,0,30.238,0,25s4.262-9.5,9.5-9.5c1.008,0,2.014,0.164,2.988,0.487
			c0.262,0.087,0.404,0.37,0.317,0.632c-0.087,0.262-0.37,0.403-0.632,0.317C11.301,16.646,10.402,16.5,9.5,16.5
			C4.813,16.5,1,20.313,1,25s3.813,8.5,8.5,8.5c2.173,0,4.246-0.828,5.834-2.331c0.201-0.188,0.518-0.181,0.707,0.02
			c0.19,0.201,0.181,0.517-0.02,0.707C14.247,33.575,11.931,34.5,9.5,34.5z"/>
	</g>
	<g>
		<path class="st0" d="M54.5,34.5c-2.43,0-4.747-0.925-6.522-2.604c-0.201-0.19-0.209-0.506-0.02-0.707
			c0.189-0.201,0.507-0.208,0.707-0.02c1.589,1.503,3.661,2.331,5.834,2.331c4.687,0,8.5-3.813,8.5-8.5s-3.813-8.5-8.5-8.5
			c-0.901,0-1.801,0.146-2.674,0.436c-0.263,0.085-0.545-0.055-0.632-0.317s0.055-0.545,0.317-0.632
			c0.974-0.323,1.98-0.487,2.988-0.487c5.238,0,9.5,4.262,9.5,9.5S59.739,34.5,54.5,34.5z"/>
	</g>
</g>
</svg>
