<?xml version="1.0" encoding="utf-8"?>
<!-- Generator: Adobe Illustrator 21.1.0, SVG Export Plug-In . SVG Version: 6.00 Build 0)  -->
<svg version="1.1" id="Icon_Set" xmlns="http://www.w3.org/2000/svg" xmlns:xlink="http://www.w3.org/1999/xlink" x="0px" y="0px"
	 viewBox="0 0 64 64" style="enable-background:new 0 0 64 64;" xml:space="preserve">
<style type="text/css">
	.st0{fill:#263238;}
	.st1{fill:#FF5252;}
	.st2{fill:#FFD740;}
	.st3{fill:#40C4FF;}
	.st4{fill:#FFFFFF;}
	.st5{fill:#4DB6AC;}
	.st6{fill:#4FC3F7;}
</style>
<g id="Suspension">
	<g>
		<rect x="19" y="9" class="st2" width="8" height="4"/>
	</g>
	<g>
		<rect x="37" y="9" class="st2" width="8" height="4"/>
	</g>
	<g>
		<path class="st2" d="M45,55h-8.422c-0.772,1.764-2.529,3-4.578,3s-3.806-1.236-4.578-3H19v-4h8.422c0.772-1.764,2.529-3,4.578-3
			s3.806,1.236,4.578,3H45V55z"/>
	</g>
	<g>
		<polygon class="st2" points="34,46 32,46 30,46 30,18 34,18 		"/>
	</g>
	<g>
		<path class="st0" d="M27,13.5h-8c-0.276,0-0.5-0.224-0.5-0.5s0.224-0.5,0.5-0.5h8c0.276,0,0.5,0.224,0.5,0.5S27.276,13.5,27,13.5z
			"/>
	</g>
	<g>
		<path class="st0" d="M45,13.5h-8c-0.276,0-0.5-0.224-0.5-0.5s0.224-0.5,0.5-0.5h8c0.276,0,0.5,0.224,0.5,0.5S45.276,13.5,45,13.5z
			"/>
	</g>
	<g>
		<path class="st0" d="M45,9.5h-8c-0.276,0-0.5-0.224-0.5-0.5s0.224-0.5,0.5-0.5h8c0.276,0,0.5,0.224,0.5,0.5S45.276,9.5,45,9.5z"/>
	</g>
	<g>
		<path class="st0" d="M27,9.5h-8c-0.276,0-0.5-0.224-0.5-0.5s0.224-0.5,0.5-0.5h8c0.276,0,0.5,0.224,0.5,0.5S27.276,9.5,27,9.5z"/>
	</g>
	<g>
		<path class="st3" d="M34.5,16h-5c-1.381,0-2.5-1.119-2.5-2.5v-5C27,7.119,28.119,6,29.5,6h5C35.881,6,37,7.119,37,8.5v5
			C37,14.881,35.881,16,34.5,16z"/>
		<path class="st0" d="M34.5,16.5h-5c-1.654,0-3-1.346-3-3v-5c0-1.654,1.346-3,3-3h5c1.654,0,3,1.346,3,3v5
			C37.5,15.154,36.154,16.5,34.5,16.5z M29.5,6.5c-1.103,0-2,0.897-2,2v5c0,1.103,0.897,2,2,2h5c1.103,0,2-0.897,2-2v-5
			c0-1.103-0.897-2-2-2H29.5z"/>
	</g>
	<g>
		<path class="st0" d="M43.5,49.5c-0.276,0-0.5-0.224-0.5-0.5V33.073l-2.979-9.93C40.007,23.097,40,23.049,40,23v-8
			c0-0.276,0.224-0.5,0.5-0.5S41,14.724,41,15v7.927l2.979,9.93C43.993,32.903,44,32.951,44,33v16C44,49.276,43.776,49.5,43.5,49.5z
			"/>
	</g>
	<g>
		<path class="st0" d="M20.5,49.5c-0.276,0-0.5-0.224-0.5-0.5V33c0-0.049,0.007-0.097,0.021-0.144L23,22.927V15
			c0-0.276,0.224-0.5,0.5-0.5S24,14.724,24,15v8c0,0.049-0.007,0.097-0.021,0.144L21,33.073V49C21,49.276,20.776,49.5,20.5,49.5z"/>
	</g>
	<g>
		<path class="st0" d="M45,51.5h-8.422c-0.198,0-0.378-0.118-0.458-0.299C35.401,49.56,33.784,48.5,32,48.5s-3.401,1.06-4.12,2.701
			c-0.08,0.182-0.26,0.299-0.458,0.299H19c-0.276,0-0.5-0.224-0.5-0.5s0.224-0.5,0.5-0.5h8.105c0.938-1.833,2.823-3,4.895-3
			s3.957,1.167,4.895,3H45c0.276,0,0.5,0.224,0.5,0.5S45.276,51.5,45,51.5z"/>
	</g>
	<g>
		<path class="st0" d="M32,58.5c-2.071,0-3.958-1.167-4.895-3H19c-0.276,0-0.5-0.224-0.5-0.5s0.224-0.5,0.5-0.5h8.422
			c0.198,0,0.378,0.118,0.458,0.299C28.598,56.44,30.215,57.5,32,57.5s3.402-1.06,4.12-2.701c0.08-0.182,0.26-0.299,0.458-0.299H45
			c0.276,0,0.5,0.224,0.5,0.5s-0.224,0.5-0.5,0.5h-8.105C35.958,57.333,34.071,58.5,32,58.5z"/>
	</g>
	<g>
		<path class="st0" d="M34,46.5c-0.276,0-0.5-0.224-0.5-0.5V18c0-0.276,0.224-0.5,0.5-0.5s0.5,0.224,0.5,0.5v28
			C34.5,46.276,34.276,46.5,34,46.5z"/>
	</g>
	<g>
		<path class="st0" d="M30,46.5c-0.276,0-0.5-0.224-0.5-0.5V18c0-0.276,0.224-0.5,0.5-0.5s0.5,0.224,0.5,0.5v28
			C30.5,46.276,30.276,46.5,30,46.5z"/>
	</g>
	<g>
		<path class="st0" d="M34.5,16.5h-5c-0.276,0-0.5-0.224-0.5-0.5v-4c0-0.827,0.673-1.5,1.5-1.5h3c0.827,0,1.5,0.673,1.5,1.5v4
			C35,16.276,34.776,16.5,34.5,16.5z M30,15.5h4V12c0-0.276-0.225-0.5-0.5-0.5h-3c-0.275,0-0.5,0.224-0.5,0.5V15.5z"/>
	</g>
	<g>
		<path class="st0" d="M14.5,19.5h-3c-1.654,0-3-1.346-3-3v-11c0-1.654,1.346-3,3-3h3c1.654,0,3,1.346,3,3v11
			C17.5,18.154,16.154,19.5,14.5,19.5z M11.5,3.5c-1.103,0-2,0.897-2,2v11c0,1.103,0.897,2,2,2h3c1.103,0,2-0.897,2-2v-11
			c0-1.103-0.897-2-2-2H11.5z"/>
	</g>
	<g>
		<line class="st3" x1="9" y1="7" x2="11.5" y2="6"/>
		<path class="st0" d="M9,7.5c-0.198,0-0.386-0.119-0.464-0.314c-0.103-0.256,0.021-0.547,0.278-0.65l2.5-1
			c0.256-0.104,0.547,0.022,0.649,0.279s-0.021,0.547-0.278,0.65l-2.5,1C9.125,7.489,9.062,7.5,9,7.5z"/>
	</g>
	<g>
		<line class="st3" x1="9" y1="12" x2="11.5" y2="11"/>
		<path class="st0" d="M9,12.5c-0.198,0-0.386-0.119-0.464-0.314c-0.103-0.256,0.021-0.547,0.278-0.65l2.5-1
			c0.256-0.104,0.547,0.022,0.649,0.279c0.103,0.256-0.021,0.547-0.278,0.65l-2.5,1C9.125,12.489,9.062,12.5,9,12.5z"/>
	</g>
	<g>
		<line class="st3" x1="9" y1="17" x2="11.5" y2="16"/>
		<path class="st0" d="M9,17.5c-0.198,0-0.386-0.119-0.464-0.314c-0.103-0.256,0.021-0.547,0.278-0.65l2.5-1
			c0.256-0.103,0.547,0.022,0.649,0.279c0.103,0.256-0.021,0.547-0.278,0.65l-2.5,1C9.125,17.489,9.062,17.5,9,17.5z"/>
	</g>
	<g>
		<path class="st0" d="M14.5,61.5h-3c-1.654,0-3-1.346-3-3v-11c0-1.654,1.346-3,3-3h3c1.654,0,3,1.346,3,3v11
			C17.5,60.154,16.154,61.5,14.5,61.5z M11.5,45.5c-1.103,0-2,0.897-2,2v11c0,1.103,0.897,2,2,2h3c1.103,0,2-0.897,2-2v-11
			c0-1.103-0.897-2-2-2H11.5z"/>
	</g>
	<g>
		<line class="st3" x1="9" y1="49" x2="11.5" y2="48"/>
		<path class="st0" d="M9,49.5c-0.198,0-0.386-0.119-0.464-0.314c-0.103-0.256,0.021-0.547,0.278-0.65l2.5-1
			c0.256-0.104,0.547,0.022,0.649,0.279c0.103,0.256-0.021,0.547-0.278,0.65l-2.5,1C9.125,49.489,9.062,49.5,9,49.5z"/>
	</g>
	<g>
		<line class="st3" x1="9" y1="54" x2="11.5" y2="53"/>
		<path class="st0" d="M9,54.5c-0.198,0-0.386-0.119-0.464-0.314c-0.103-0.256,0.021-0.547,0.278-0.65l2.5-1
			c0.256-0.103,0.547,0.022,0.649,0.279c0.103,0.256-0.021,0.547-0.278,0.65l-2.5,1C9.125,54.489,9.062,54.5,9,54.5z"/>
	</g>
	<g>
		<line class="st3" x1="9" y1="59" x2="11.5" y2="58"/>
		<path class="st0" d="M9,59.5c-0.198,0-0.386-0.119-0.464-0.314c-0.103-0.256,0.021-0.547,0.278-0.65l2.5-1
			c0.256-0.103,0.547,0.022,0.649,0.279s-0.021,0.547-0.278,0.65l-2.5,1C9.125,59.489,9.062,59.5,9,59.5z"/>
	</g>
	<g>
		<path class="st0" d="M52.5,19.5h-3c-1.654,0-3-1.346-3-3v-11c0-1.654,1.346-3,3-3h3c1.654,0,3,1.346,3,3v11
			C55.5,18.154,54.154,19.5,52.5,19.5z M49.5,3.5c-1.103,0-2,0.897-2,2v11c0,1.103,0.897,2,2,2h3c1.103,0,2-0.897,2-2v-11
			c0-1.103-0.897-2-2-2H49.5z"/>
	</g>
	<g>
		<line class="st3" x1="55" y1="7" x2="52.5" y2="6"/>
		<path class="st0" d="M55,7.5c-0.062,0-0.125-0.011-0.186-0.036l-2.5-1c-0.257-0.103-0.381-0.394-0.278-0.65
			s0.395-0.382,0.649-0.279l2.5,1c0.257,0.103,0.381,0.394,0.278,0.65C55.386,7.381,55.198,7.5,55,7.5z"/>
	</g>
	<g>
		<line class="st3" x1="55" y1="12" x2="52.5" y2="11"/>
		<path class="st0" d="M55,12.5c-0.062,0-0.125-0.011-0.186-0.036l-2.5-1c-0.257-0.103-0.381-0.394-0.278-0.65
			c0.103-0.257,0.395-0.383,0.649-0.279l2.5,1c0.257,0.103,0.381,0.394,0.278,0.65C55.386,12.381,55.198,12.5,55,12.5z"/>
	</g>
	<g>
		<line class="st3" x1="55" y1="17" x2="52.5" y2="16"/>
		<path class="st0" d="M55,17.5c-0.062,0-0.125-0.011-0.186-0.036l-2.5-1c-0.257-0.103-0.381-0.394-0.278-0.65
			c0.103-0.257,0.395-0.381,0.649-0.279l2.5,1c0.257,0.103,0.381,0.394,0.278,0.65C55.386,17.381,55.198,17.5,55,17.5z"/>
	</g>
	<g>
		<path class="st0" d="M52.5,61.5h-3c-1.654,0-3-1.346-3-3v-11c0-1.654,1.346-3,3-3h3c1.654,0,3,1.346,3,3v11
			C55.5,60.154,54.154,61.5,52.5,61.5z M49.5,45.5c-1.103,0-2,0.897-2,2v11c0,1.103,0.897,2,2,2h3c1.103,0,2-0.897,2-2v-11
			c0-1.103-0.897-2-2-2H49.5z"/>
	</g>
	<g>
		<line class="st3" x1="55" y1="49" x2="52.5" y2="48"/>
		<path class="st0" d="M55,49.5c-0.062,0-0.125-0.011-0.186-0.036l-2.5-1c-0.257-0.103-0.381-0.394-0.278-0.65
			s0.395-0.382,0.649-0.279l2.5,1c0.257,0.103,0.381,0.394,0.278,0.65C55.386,49.381,55.198,49.5,55,49.5z"/>
	</g>
	<g>
		<line class="st3" x1="55" y1="54" x2="52.5" y2="53"/>
		<path class="st0" d="M55,54.5c-0.062,0-0.125-0.011-0.186-0.036l-2.5-1c-0.257-0.103-0.381-0.394-0.278-0.65
			c0.103-0.257,0.395-0.381,0.649-0.279l2.5,1c0.257,0.103,0.381,0.394,0.278,0.65C55.386,54.381,55.198,54.5,55,54.5z"/>
	</g>
	<g>
		<line class="st3" x1="55" y1="59" x2="52.5" y2="58"/>
		<path class="st0" d="M55,59.5c-0.062,0-0.125-0.011-0.186-0.036l-2.5-1c-0.257-0.103-0.381-0.394-0.278-0.65
			s0.395-0.381,0.649-0.279l2.5,1c0.257,0.103,0.381,0.394,0.278,0.65C55.386,59.381,55.198,59.5,55,59.5z"/>
	</g>
	<g>
		<path class="st0" d="M13,40c-0.276,0-0.5-0.224-0.5-0.5v-1c0-0.276,0.224-0.5,0.5-0.5s0.5,0.224,0.5,0.5v1
			C13.5,39.776,13.276,40,13,40z"/>
	</g>
	<g>
		<path class="st0" d="M13,37c-0.276,0-0.5-0.224-0.5-0.5v-12c0-0.276,0.224-0.5,0.5-0.5s0.5,0.224,0.5,0.5v12
			C13.5,36.776,13.276,37,13,37z"/>
	</g>
	<g>
		<path class="st0" d="M51,40c-0.276,0-0.5-0.224-0.5-0.5v-1c0-0.276,0.224-0.5,0.5-0.5s0.5,0.224,0.5,0.5v1
			C51.5,39.776,51.276,40,51,40z"/>
	</g>
	<g>
		<path class="st0" d="M51,37c-0.276,0-0.5-0.224-0.5-0.5v-12c0-0.276,0.224-0.5,0.5-0.5s0.5,0.224,0.5,0.5v12
			C51.5,36.776,51.276,37,51,37z"/>
	</g>
</g>
</svg>
