<?xml version="1.0" encoding="utf-8"?>
<!-- Generator: Adobe Illustrator 21.1.0, SVG Export Plug-In . SVG Version: 6.00 Build 0)  -->
<svg version="1.1" id="Icon_Set" xmlns="http://www.w3.org/2000/svg" xmlns:xlink="http://www.w3.org/1999/xlink" x="0px" y="0px"
	 viewBox="0 0 64 64" style="enable-background:new 0 0 64 64;" xml:space="preserve">
<style type="text/css">
	.st0{fill:#263238;}
	.st1{fill:#FF5252;}
	.st2{fill:#FFD740;}
	.st3{fill:#40C4FF;}
	.st4{fill:#FFFFFF;}
	.st5{fill:#4DB6AC;}
	.st6{fill:#4FC3F7;}
</style>
<g id="Tow_Truck">
	<g>
		<path class="st0" d="M27.5,55h-7c-0.276,0-0.5-0.224-0.5-0.5s0.224-0.5,0.5-0.5h7c0.276,0,0.5,0.224,0.5,0.5S27.776,55,27.5,55z"
			/>
	</g>
	<g>
		<path class="st0" d="M41.5,55c-0.276,0-0.5-0.224-0.5-0.5V46H1.5C1.224,46,1,46.224,1,46.5v7C1,53.776,1.224,54,1.5,54h2
			C3.776,54,4,54.224,4,54.5S3.776,55,3.5,55h-2C0.673,55,0,54.327,0,53.5v-7C0,45.673,0.673,45,1.5,45h40
			c0.276,0,0.5,0.224,0.5,0.5v9C42,54.776,41.776,55,41.5,55z"/>
	</g>
	<g>
		<path class="st3" d="M60.5,54.5H61c1.381,0,2.5-1.119,2.5-2.5V41.5l-4.86-14.581c-0.681-2.042-2.591-3.419-4.743-3.419H41.5v31h2"
			/>
		<path class="st0" d="M61,55h-0.5c-0.276,0-0.5-0.224-0.5-0.5s0.224-0.5,0.5-0.5H61c1.103,0,2-0.897,2-2V41.581l-4.834-14.504
			c-0.614-1.84-2.33-3.077-4.27-3.077H42v30h1.5c0.276,0,0.5,0.224,0.5,0.5S43.776,55,43.5,55h-2c-0.276,0-0.5-0.224-0.5-0.5v-31
			c0-0.276,0.224-0.5,0.5-0.5h12.396c2.371,0,4.468,1.511,5.218,3.761l4.86,14.581C63.991,41.393,64,41.446,64,41.5V52
			C64,53.654,62.654,55,61,55z"/>
	</g>
	<g>
		<circle class="st4" cx="52" cy="54.5" r="6.5"/>
		<path class="st0" d="M52,61.5c-3.86,0-7-3.14-7-7s3.14-7,7-7s7,3.14,7,7S55.86,61.5,52,61.5z M52,48.5c-3.309,0-6,2.691-6,6
			s2.691,6,6,6s6-2.691,6-6S55.309,48.5,52,48.5z"/>
	</g>
	<g>
		<path class="st0" d="M52,58.5c-2.206,0-4-1.794-4-4s1.794-4,4-4s4,1.794,4,4S54.206,58.5,52,58.5z M52,51.5c-1.654,0-3,1.346-3,3
			s1.346,3,3,3s3-1.346,3-3S53.654,51.5,52,51.5z"/>
	</g>
	<g>
		<circle class="st4" cx="12" cy="54.5" r="6.5"/>
		<path class="st0" d="M12,61.5c-3.86,0-7-3.14-7-7s3.14-7,7-7s7,3.14,7,7S15.86,61.5,12,61.5z M12,48.5c-3.309,0-6,2.691-6,6
			s2.691,6,6,6s6-2.691,6-6S15.309,48.5,12,48.5z"/>
	</g>
	<g>
		<path class="st0" d="M12,58.5c-2.206,0-4-1.794-4-4s1.794-4,4-4s4,1.794,4,4S14.206,58.5,12,58.5z M12,51.5c-1.654,0-3,1.346-3,3
			s1.346,3,3,3s3-1.346,3-3S13.654,51.5,12,51.5z"/>
	</g>
	<g>
		<polyline class="st2" points="35.5,37.5 35.5,9.5 41.5,9.5 41.5,37.5 		"/>
		<path class="st0" d="M41.5,38c-0.276,0-0.5-0.224-0.5-0.5V10h-5v27.5c0,0.276-0.224,0.5-0.5,0.5S35,37.776,35,37.5v-28
			C35,9.224,35.224,9,35.5,9h6C41.776,9,42,9.224,42,9.5v28C42,37.776,41.776,38,41.5,38z"/>
	</g>
	<g>
		<polyline class="st2" points="33.5,11.5 1.5,11.5 1.5,14.5 15.5,14.5 18.5,16.5 33.5,16.5 		"/>
		<path class="st0" d="M33.5,17h-15c-0.099,0-0.195-0.029-0.277-0.084L15.349,15H1.5C1.224,15,1,14.776,1,14.5v-3
			C1,11.224,1.224,11,1.5,11h32c0.276,0,0.5,0.224,0.5,0.5S33.776,12,33.5,12H2v2h13.5c0.099,0,0.195,0.029,0.277,0.084L18.651,16
			H33.5c0.276,0,0.5,0.224,0.5,0.5S33.776,17,33.5,17z"/>
	</g>
	<g>
		<path class="st4" d="M48.5,30v6.5c0,2.761,2.239,5,5,5h10l-4.667-14H51C49.619,27.5,48.5,28.619,48.5,30z"/>
		<path class="st0" d="M63.5,42h-10c-3.033,0-5.5-2.467-5.5-5.5V30c0-1.654,1.346-3,3-3h7.833c0.215,0,0.406,0.138,0.474,0.342
			l4.667,14c0.051,0.152,0.025,0.32-0.068,0.451C63.812,41.923,63.661,42,63.5,42z M51,28c-1.103,0-2,0.897-2,2v6.5
			c0,2.481,2.019,4.5,4.5,4.5h9.306l-4.333-13H51z"/>
	</g>
	<g>
		<path class="st0" d="M59.338,39c-0.209,0-0.404-0.132-0.474-0.342l-2.667-8c-0.087-0.262,0.054-0.545,0.316-0.632
			c0.264-0.088,0.545,0.054,0.632,0.316l2.667,8c0.087,0.262-0.054,0.545-0.316,0.632C59.443,38.992,59.39,39,59.338,39z"/>
	</g>
	<g>
		<path class="st0" d="M6.5,30.243c-0.276,0-0.5-0.224-0.5-0.5V18.5C6,18.224,6.224,18,6.5,18S7,18.224,7,18.5v11.243
			C7,30.019,6.776,30.243,6.5,30.243z"/>
	</g>
	<g>
		<path class="st0" d="M28.293,22.207c-0.128,0-0.256-0.049-0.354-0.146l-5.208-5.207c-0.143-0.143-0.186-0.358-0.108-0.545
			C22.701,16.122,22.883,16,23.085,16h2.828c0.133,0,0.26,0.053,0.354,0.146l3.793,3.793c0.094,0.094,0.146,0.221,0.146,0.354
			s-0.053,0.26-0.146,0.354l-1.414,1.414C28.549,22.158,28.421,22.207,28.293,22.207z M24.292,17l4,4L29,20.293L25.707,17H24.292z"
			/>
	</g>
	<g>
		<path class="st0" d="M35.5,30.121c-0.13,0-0.258-0.051-0.354-0.146l-7.561-7.561c-0.195-0.195-0.195-0.512,0-0.707l2.121-2.121
			c0.195-0.195,0.512-0.195,0.707,0l5.439,5.439C35.947,25.119,36,25.246,36,25.379v4.242c0,0.202-0.122,0.385-0.309,0.462
			C35.629,30.109,35.564,30.121,35.5,30.121z M28.646,22.061L35,28.414v-2.828l-4.939-4.939L28.646,22.061z"/>
	</g>
	<g>
		<path class="st0" d="M7.5,19h-2C5.224,19,5,18.776,5,18.5v-4C5,14.224,5.224,14,5.5,14h2C7.776,14,8,14.224,8,14.5v4
			C8,18.776,7.776,19,7.5,19z M6,18h1v-3H6V18z"/>
	</g>
	<g>
		<path class="st0" d="M6.5,41.743c-2.481,0-4.5-2.019-4.5-4.5c0-0.827,0.673-1.5,1.5-1.5s1.5,0.673,1.5,1.5s0.673,1.5,1.5,1.5
			S8,38.07,8,37.243s-0.673-1.5-1.5-1.5S5,35.07,5,34.243v-2.5c0-0.276,0.224-0.5,0.5-0.5s0.5,0.224,0.5,0.5v2.5
			c0,0.276,0.224,0.5,0.5,0.5c1.378,0,2.5,1.122,2.5,2.5s-1.122,2.5-2.5,2.5S4,38.621,4,37.243c0-0.276-0.224-0.5-0.5-0.5
			S3,36.967,3,37.243c0,1.93,1.57,3.5,3.5,3.5s3.5-1.57,3.5-3.5c0-1.596-1.08-2.99-2.625-3.39C7.154,33.796,7,33.597,7,33.369
			v-1.626c0-0.276,0.224-0.5,0.5-0.5s0.5,0.224,0.5,0.5V33c1.785,0.63,3,2.322,3,4.243C11,39.724,8.981,41.743,6.5,41.743z"/>
	</g>
	<g>
		<path class="st0" d="M9,32.243H4c-0.276,0-0.5-0.224-0.5-0.5s0.224-0.5,0.5-0.5h5c0.276,0,0.5,0.224,0.5,0.5
			S9.276,32.243,9,32.243z"/>
	</g>
	<g>
		<path class="st0" d="M41.5,46h-26c-0.194,0-0.371-0.112-0.453-0.288c-0.083-0.175-0.056-0.383,0.068-0.532l5-6
			C20.211,39.066,20.352,39,20.5,39h21c0.276,0,0.5,0.224,0.5,0.5v6C42,45.776,41.776,46,41.5,46z M16.567,45H41v-5H20.734
			L16.567,45z"/>
	</g>
	<g>
		<path class="st0" d="M39.5,57.5h-10c-0.276,0-0.5-0.224-0.5-0.5v-5c0-0.276,0.224-0.5,0.5-0.5h10c0.276,0,0.5,0.224,0.5,0.5v5
			C40,57.276,39.776,57.5,39.5,57.5z M30,56.5h9v-4h-9V56.5z"/>
	</g>
	<g>
		<path class="st0" d="M59,6.5H44c-0.276,0-0.5-0.224-0.5-0.5s0.224-0.5,0.5-0.5h15c0.276,0,0.5,0.224,0.5,0.5S59.276,6.5,59,6.5z"
			/>
	</g>
	<g>
		<path class="st0" d="M37,3.5h-1c-0.276,0-0.5-0.224-0.5-0.5s0.224-0.5,0.5-0.5h1c0.276,0,0.5,0.224,0.5,0.5S37.276,3.5,37,3.5z"/>
	</g>
	<g>
		<path class="st0" d="M54,3.5H39c-0.276,0-0.5-0.224-0.5-0.5s0.224-0.5,0.5-0.5h15c0.276,0,0.5,0.224,0.5,0.5S54.276,3.5,54,3.5z"
			/>
	</g>
</g>
</svg>
