<?xml version="1.0" encoding="utf-8"?>
<!-- Generator: Adobe Illustrator 21.1.0, SVG Export Plug-In . SVG Version: 6.00 Build 0)  -->
<svg version="1.1" id="Icon_Set" xmlns="http://www.w3.org/2000/svg" xmlns:xlink="http://www.w3.org/1999/xlink" x="0px" y="0px"
	 viewBox="0 0 64 64" style="enable-background:new 0 0 64 64;" xml:space="preserve">
<style type="text/css">
	.st0{fill:#263238;}
	.st1{fill:#FF5252;}
	.st2{fill:#FFD740;}
	.st3{fill:#40C4FF;}
	.st4{fill:#FFFFFF;}
	.st5{fill:#4DB6AC;}
	.st6{fill:#4FC3F7;}
</style>
<g id="Wheel_Alignment">
	<g>
		<path class="st0" d="M10.5,49h-5C2.468,49,0,46.533,0,43.5v-23C0,17.467,2.468,15,5.5,15h5c3.032,0,5.5,2.467,5.5,5.5v23
			C16,46.533,13.532,49,10.5,49z M5.5,16C3.019,16,1,18.019,1,20.5v23C1,45.981,3.019,48,5.5,48h5c2.481,0,4.5-2.019,4.5-4.5v-23
			c0-2.481-2.019-4.5-4.5-4.5H5.5z"/>
	</g>
	<g>
		<path class="st0" d="M6.75,47c-0.276,0-0.5-0.224-0.5-0.5v-29c0-0.276,0.224-0.5,0.5-0.5s0.5,0.224,0.5,0.5v29
			C7.25,46.776,7.026,47,6.75,47z"/>
	</g>
	<g>
		<path class="st0" d="M9.25,47c-0.276,0-0.5-0.224-0.5-0.5v-29c0-0.276,0.224-0.5,0.5-0.5s0.5,0.224,0.5,0.5v29
			C9.75,46.776,9.526,47,9.25,47z"/>
	</g>
	<g>
		<path class="st0" d="M0.5,23c-0.188,0-0.367-0.106-0.452-0.287c-0.118-0.25-0.011-0.548,0.239-0.666l4.25-2
			c0.248-0.117,0.548-0.01,0.665,0.24c0.118,0.25,0.011,0.548-0.239,0.666l-4.25,2C0.645,22.985,0.571,23,0.5,23z"/>
	</g>
	<g>
		<path class="st0" d="M0.5,30c-0.188,0-0.367-0.106-0.452-0.287c-0.118-0.25-0.011-0.548,0.239-0.666l4.25-2
			c0.248-0.117,0.548-0.01,0.665,0.24c0.118,0.25,0.011,0.548-0.239,0.666l-4.25,2C0.645,29.985,0.571,30,0.5,30z"/>
	</g>
	<g>
		<path class="st0" d="M0.5,37c-0.188,0-0.367-0.106-0.452-0.287c-0.118-0.25-0.011-0.548,0.239-0.666l4.25-2
			c0.248-0.117,0.548-0.011,0.665,0.24c0.118,0.25,0.011,0.548-0.239,0.666l-4.25,2C0.645,36.985,0.571,37,0.5,37z"/>
	</g>
	<g>
		<path class="st0" d="M0.5,44c-0.188,0-0.367-0.106-0.452-0.287c-0.118-0.25-0.011-0.548,0.239-0.666l4.25-2
			c0.248-0.117,0.548-0.01,0.665,0.24c0.118,0.25,0.011,0.548-0.239,0.666l-4.25,2C0.645,43.985,0.571,44,0.5,44z"/>
	</g>
	<g>
		<path class="st0" d="M15.5,23c-0.071,0-0.145-0.015-0.213-0.047l-4.25-2c-0.25-0.118-0.357-0.416-0.239-0.666
			c0.117-0.25,0.416-0.356,0.665-0.24l4.25,2c0.25,0.118,0.357,0.416,0.239,0.666C15.867,22.894,15.687,23,15.5,23z"/>
	</g>
	<g>
		<path class="st0" d="M15.5,30c-0.071,0-0.145-0.015-0.213-0.047l-4.25-2c-0.25-0.118-0.357-0.416-0.239-0.666
			c0.117-0.25,0.416-0.356,0.665-0.24l4.25,2c0.25,0.118,0.357,0.416,0.239,0.666C15.867,29.894,15.687,30,15.5,30z"/>
	</g>
	<g>
		<path class="st0" d="M15.5,37c-0.071,0-0.145-0.015-0.213-0.047l-4.25-2c-0.25-0.118-0.357-0.416-0.239-0.666
			c0.117-0.25,0.416-0.357,0.665-0.24l4.25,2c0.25,0.118,0.357,0.416,0.239,0.666C15.867,36.894,15.687,37,15.5,37z"/>
	</g>
	<g>
		<path class="st0" d="M15.5,44c-0.071,0-0.145-0.015-0.213-0.047l-4.25-2c-0.25-0.118-0.357-0.416-0.239-0.666
			c0.117-0.25,0.416-0.357,0.665-0.24l4.25,2c0.25,0.118,0.357,0.416,0.239,0.666C15.867,43.894,15.687,44,15.5,44z"/>
	</g>
	<g>
		<path class="st0" d="M54.75,47c-0.276,0-0.5-0.224-0.5-0.5v-29c0-0.276,0.224-0.5,0.5-0.5s0.5,0.224,0.5,0.5v29
			C55.25,46.776,55.026,47,54.75,47z"/>
	</g>
	<g>
		<path class="st0" d="M57.25,47c-0.276,0-0.5-0.224-0.5-0.5v-29c0-0.276,0.224-0.5,0.5-0.5s0.5,0.224,0.5,0.5v29
			C57.75,46.776,57.526,47,57.25,47z"/>
	</g>
	<g>
		<path class="st0" d="M48.5,23c-0.188,0-0.367-0.106-0.452-0.287c-0.118-0.25-0.011-0.548,0.239-0.666l4.25-2
			c0.248-0.117,0.548-0.01,0.665,0.24c0.118,0.25,0.011,0.548-0.239,0.666l-4.25,2C48.645,22.985,48.571,23,48.5,23z"/>
	</g>
	<g>
		<path class="st0" d="M48.5,30c-0.188,0-0.367-0.106-0.452-0.287c-0.118-0.25-0.011-0.548,0.239-0.666l4.25-2
			c0.248-0.117,0.548-0.01,0.665,0.24c0.118,0.25,0.011,0.548-0.239,0.666l-4.25,2C48.645,29.985,48.571,30,48.5,30z"/>
	</g>
	<g>
		<path class="st0" d="M48.5,37c-0.188,0-0.367-0.106-0.452-0.287c-0.118-0.25-0.011-0.548,0.239-0.666l4.25-2
			c0.248-0.117,0.548-0.011,0.665,0.24c0.118,0.25,0.011,0.548-0.239,0.666l-4.25,2C48.645,36.985,48.571,37,48.5,37z"/>
	</g>
	<g>
		<path class="st0" d="M48.5,44c-0.188,0-0.367-0.106-0.452-0.287c-0.118-0.25-0.011-0.548,0.239-0.666l4.25-2
			c0.248-0.117,0.548-0.01,0.665,0.24c0.118,0.25,0.011,0.548-0.239,0.666l-4.25,2C48.645,43.985,48.571,44,48.5,44z"/>
	</g>
	<g>
		<path class="st0" d="M63.5,23c-0.071,0-0.145-0.015-0.213-0.047l-4.25-2c-0.25-0.118-0.357-0.416-0.239-0.666
			c0.117-0.25,0.416-0.356,0.665-0.24l4.25,2c0.25,0.118,0.357,0.416,0.239,0.666C63.867,22.894,63.687,23,63.5,23z"/>
	</g>
	<g>
		<path class="st0" d="M63.5,30c-0.071,0-0.145-0.015-0.213-0.047l-4.25-2c-0.25-0.118-0.357-0.416-0.239-0.666
			c0.117-0.25,0.416-0.356,0.665-0.24l4.25,2c0.25,0.118,0.357,0.416,0.239,0.666C63.867,29.894,63.687,30,63.5,30z"/>
	</g>
	<g>
		<path class="st0" d="M63.5,37c-0.071,0-0.145-0.015-0.213-0.047l-4.25-2c-0.25-0.118-0.357-0.416-0.239-0.666
			c0.117-0.25,0.416-0.357,0.665-0.24l4.25,2c0.25,0.118,0.357,0.416,0.239,0.666C63.867,36.894,63.687,37,63.5,37z"/>
	</g>
	<g>
		<path class="st0" d="M63.5,44c-0.071,0-0.145-0.015-0.213-0.047l-4.25-2c-0.25-0.118-0.357-0.416-0.239-0.666
			c0.117-0.25,0.416-0.357,0.665-0.24l4.25,2c0.25,0.118,0.357,0.416,0.239,0.666C63.867,43.894,63.687,44,63.5,44z"/>
	</g>
	<g>
		<path class="st0" d="M34,36.5h-4c-0.827,0-1.5-0.673-1.5-1.5v-6c0-0.827,0.673-1.5,1.5-1.5h4c0.827,0,1.5,0.673,1.5,1.5v6
			C35.5,35.827,34.827,36.5,34,36.5z M30,28.5c-0.275,0-0.5,0.224-0.5,0.5v6c0,0.276,0.225,0.5,0.5,0.5h4c0.275,0,0.5-0.224,0.5-0.5
			v-6c0-0.276-0.225-0.5-0.5-0.5H30z"/>
	</g>
	<g>
		<rect x="17.5" y="30" class="st2" width="9.5" height="4"/>
	</g>
	<g>
		<rect x="37" y="30" class="st2" width="9.5" height="4"/>
	</g>
	<g>
		<path class="st0" d="M27,34.5h-9.5c-0.276,0-0.5-0.224-0.5-0.5s0.224-0.5,0.5-0.5H27c0.276,0,0.5,0.224,0.5,0.5
			S27.276,34.5,27,34.5z"/>
	</g>
	<g>
		<path class="st0" d="M27,30.5h-9.5c-0.276,0-0.5-0.224-0.5-0.5s0.224-0.5,0.5-0.5H27c0.276,0,0.5,0.224,0.5,0.5
			S27.276,30.5,27,30.5z"/>
	</g>
	<g>
		<path class="st0" d="M46.5,30.5H37c-0.276,0-0.5-0.224-0.5-0.5s0.224-0.5,0.5-0.5h9.5c0.276,0,0.5,0.224,0.5,0.5
			S46.776,30.5,46.5,30.5z"/>
	</g>
	<g>
		<path class="st0" d="M46.5,34.5H37c-0.276,0-0.5-0.224-0.5-0.5s0.224-0.5,0.5-0.5h9.5c0.276,0,0.5,0.224,0.5,0.5
			S46.776,34.5,46.5,34.5z"/>
	</g>
	<g>
		<path class="st0" d="M32,32.75c-0.276,0-0.5-0.224-0.5-0.5V28c0-0.276,0.224-0.5,0.5-0.5s0.5,0.224,0.5,0.5v4.25
			C32.5,32.526,32.276,32.75,32,32.75z"/>
	</g>
	<g>
		<path class="st0" d="M28.75,16h-1c-0.276,0-0.5-0.224-0.5-0.5s0.224-0.5,0.5-0.5h1c0.276,0,0.5,0.224,0.5,0.5S29.026,16,28.75,16z
			"/>
	</g>
	<g>
		<path class="st0" d="M42.75,16h-12c-0.276,0-0.5-0.224-0.5-0.5s0.224-0.5,0.5-0.5h12c0.276,0,0.5,0.224,0.5,0.5
			S43.026,16,42.75,16z"/>
	</g>
	<g>
		<path class="st0" d="M36.25,19h-1c-0.276,0-0.5-0.224-0.5-0.5s0.224-0.5,0.5-0.5h1c0.276,0,0.5,0.224,0.5,0.5S36.526,19,36.25,19z
			"/>
	</g>
	<g>
		<path class="st0" d="M33.25,19h-12c-0.276,0-0.5-0.224-0.5-0.5s0.224-0.5,0.5-0.5h12c0.276,0,0.5,0.224,0.5,0.5
			S33.526,19,33.25,19z"/>
	</g>
	<g>
		<path class="st0" d="M58.5,49h-5c-3.032,0-5.5-2.467-5.5-5.5v-23c0-3.033,2.468-5.5,5.5-5.5h5c3.032,0,5.5,2.467,5.5,5.5v23
			C64,46.533,61.532,49,58.5,49z M53.5,16c-2.481,0-4.5,2.019-4.5,4.5v23c0,2.481,2.019,4.5,4.5,4.5h5c2.481,0,4.5-2.019,4.5-4.5
			v-23c0-2.481-2.019-4.5-4.5-4.5H53.5z"/>
	</g>
	<g>
		<path class="st0" d="M36.25,46h-1c-0.276,0-0.5-0.224-0.5-0.5s0.224-0.5,0.5-0.5h1c0.276,0,0.5,0.224,0.5,0.5S36.526,46,36.25,46z
			"/>
	</g>
	<g>
		<path class="st0" d="M33.25,46h-12c-0.276,0-0.5-0.224-0.5-0.5s0.224-0.5,0.5-0.5h12c0.276,0,0.5,0.224,0.5,0.5
			S33.526,46,33.25,46z"/>
	</g>
	<g>
		<path class="st0" d="M28.75,49h-1c-0.276,0-0.5-0.224-0.5-0.5s0.224-0.5,0.5-0.5h1c0.276,0,0.5,0.224,0.5,0.5S29.026,49,28.75,49z
			"/>
	</g>
	<g>
		<path class="st0" d="M42.75,49h-12c-0.276,0-0.5-0.224-0.5-0.5s0.224-0.5,0.5-0.5h12c0.276,0,0.5,0.224,0.5,0.5
			S43.026,49,42.75,49z"/>
	</g>
</g>
</svg>
