<?xml version="1.0" encoding="UTF-8"?>
<!DOCTYPE svg PUBLIC "-//W3C//DTD SVG 1.1//EN" "http://www.w3.org/Graphics/SVG/1.1/DTD/svg11.dtd">
<!-- Creator: CorelDRAW -->
<svg xmlns="http://www.w3.org/2000/svg" xml:space="preserve" width="6.82666in" height="6.82666in" style="shape-rendering:geometricPrecision; text-rendering:geometricPrecision; image-rendering:optimizeQuality; fill-rule:evenodd; clip-rule:evenodd"
viewBox="0 0 6.82666 6.82666"
 xmlns:xlink="http://www.w3.org/1999/xlink">
 <defs>
  <style type="text/css">
   <![CDATA[
    .fil0 {fill:none}
    .fil3 {fill:#1565C0}
    .fil2 {fill:#536DFE}
    .fil1 {fill:#64B5F6}
    .fil4 {fill:#90CAF9;fill-rule:nonzero}
   ]]>
  </style>
 </defs>
 <g id="Layer_x0020_1">
  <metadata id="CorelCorpID_0Corel-Layer"/>
  <g id="_317657424">
   <rect id="_317657568" class="fil0" width="6.82666" height="6.82666"/>
   <rect id="_317657544" class="fil0" x="0.853331" y="0.853331" width="5.12" height="5.12"/>
  </g>
  <path class="fil1" d="M1.09333 1.73333l4.64 0c0.0648307,0 0.124154,0.0256142 0.167496,0.0668583 0.0447362,0.0425709 0.0725039,0.101567 0.0725039,0.166689l0 2.89291c0,0.065126 -0.0277795,0.124122 -0.0725079,0.166681 -0.0433465,0.041248 -0.102669,0.0668661 -0.167492,0.0668661l-4.64 0c-0.0648189,0 -0.124146,-0.0256102 -0.167496,-0.0668622 -0.0447283,-0.042563 -0.0725039,-0.101551 -0.0725039,-0.166685l0 -2.89291c0,-0.0651378 0.0277717,-0.124122 0.0725,-0.166693 0.0433465,-0.041248 0.102673,-0.0668543 0.1675,-0.0668543z"/>
  <g id="_317656512">
   <polygon id="_317657208" class="fil2" points="3.73333,3.68148 5.54667,3.68148 5.54667,3.88584 3.73333,3.88584 "/>
   <polygon id="_317656608" class="fil2" points="3.73333,2.94083 5.54667,2.94083 5.54667,3.14518 3.73333,3.14518 "/>
   <polygon id="_317656896" class="fil2" points="3.73333,2.20017 5.54667,2.20017 5.54667,2.40453 3.73333,2.40453 "/>
   <polygon id="_317656776" class="fil2" points="3.73333,4.42213 5.54667,4.42213 5.54667,4.62649 3.73333,4.62649 "/>
  </g>
  <path class="fil3" d="M1.49934 2.14684l1.64741 0c0.0589724,0 0.105787,0.0340591 0.133689,0.0889055 0.0161772,0.0318031 0.0262244,0.0732835 0.0262244,0.116728l0 2.12172c0,0.0434488 -0.0100472,0.0849213 -0.0262244,0.116724 -0.0279016,0.0548583 -0.0747205,0.0889094 -0.133689,0.0889094l-1.64741 0c-0.0589764,0 -0.105791,-0.0340551 -0.133689,-0.0889094 -0.0161772,-0.0317992 -0.0262244,-0.0732717 -0.0262244,-0.116724l0 -2.12172c0,-0.0434528 0.0100472,-0.0849291 0.0262244,-0.116728 0.0278819,-0.0548465 0.0746969,-0.0889055 0.133689,-0.0889055z"/>
  <path class="fil4" d="M2.3213 2.71239c0.124811,0 0.237823,0.0505984 0.31963,0.132406 0.0818031,0.0818071 0.132406,0.194815 0.132406,0.31963 0,0.124811 -0.0506024,0.237823 -0.132406,0.31963 -0.0818071,0.0818031 -0.194819,0.132406 -0.31963,0.132406 -0.124815,0 -0.237823,-0.0506024 -0.31963,-0.132406 -0.0818071,-0.0818071 -0.132406,-0.194819 -0.132406,-0.31963 0,-0.124815 0.0505984,-0.237823 0.132406,-0.31963 0.0818071,-0.0818071 0.194815,-0.132406 0.31963,-0.132406z"/>
  <path class="fil4" d="M1.90796 3.61281l0.826669 0c0.0477795,0 0.0911378,0.0194724 0.1225,0.0508346 0.0313622,0.0313622 0.0508346,0.0747205 0.0508346,0.1225l0 0.786669 0 0.106669 -0.106669 0 -0.96 0 -0.106669 0 0 -0.106669 0 -0.786669c0,-0.0477795 0.0194724,-0.0911378 0.0508346,-0.1225 0.0313622,-0.0313622 0.0747205,-0.0508346 0.1225,-0.0508346z"/>
 </g>
</svg>
