<?xml version="1.0" encoding="UTF-8"?>
<!DOCTYPE svg PUBLIC "-//W3C//DTD SVG 1.1//EN" "http://www.w3.org/Graphics/SVG/1.1/DTD/svg11.dtd">
<!-- Creator: CorelDRAW -->
<svg xmlns="http://www.w3.org/2000/svg" xml:space="preserve" width="6.82666in" height="6.82666in" style="shape-rendering:geometricPrecision; text-rendering:geometricPrecision; image-rendering:optimizeQuality; fill-rule:evenodd; clip-rule:evenodd"
viewBox="0 0 6.82666 6.82666"
 xmlns:xlink="http://www.w3.org/1999/xlink">
 <defs>
  <style type="text/css">
   <![CDATA[
    .fil2 {fill:none}
    .fil1 {fill:#798D92}
    .fil0 {fill:#AEB6B8}
    .fil3 {fill:#E88732}
    .fil4 {fill:#FFA726}
   ]]>
  </style>
 </defs>
 <g id="Layer_x0020_1">
  <metadata id="CorelCorpID_0Corel-Layer"/>
  <path class="fil0" d="M0.853331 1.24577l5.12 0 0 4.16c-0.458067,0 3.00094,0 -5.12,0l0 -4.16z"/>
  <path class="fil1" d="M2.71481 2.15246l1.12517 0 0 0.63998 -1.12517 0 0 -0.63998zm0.591862 0.853319l0.672484 0c-0.0912913,0.146177 -0.156858,0.305004 -0.195583,0.470181 -0.0535787,0.228547 -0.0557402,0.469059 -0.0036063,0.70478 -0.138685,-0.167756 -0.144307,-0.435299 -0.148272,-0.625472 -0.00270079,-0.129614 -0.00482677,-0.231571 -0.0470354,-0.293307 -0.0547953,-0.0801693 -0.127043,-0.0954055 -0.231335,-0.0241063l-0.00625197 0.005c-0.0139016,0.0111142 -0.0273622,0.0230039 -0.0404016,0.0355866l0 -0.272661zm0.0173937 0.394079c0.000901575,0.0285118 0.00159055,0.061685 0.00233465,0.0975118 0.00741339,0.355508 0.0189606,0.909224 0.573067,1.06036l0.232051 0.0632913 -0.0929764 -0.221646c-0.128878,-0.307244 -0.15372,-0.635465 -0.0821614,-0.94072 0.0571929,-0.24398 0.176047,-0.473539 0.352618,-0.666217 -0.00153543,0.0132283 -0.00287795,0.0262756 -0.00401575,0.0391614l0.000153543 1.5748e-005c-0.0206063,0.186732 -0.0106693,0.368634 0.0254331,0.542118 0.0378661,0.181961 0.104547,0.354209 0.194941,0.512701l0.0340315 0.0596693 0.0678661 0c0.148142,0 0.258157,-0.0712165 0.338134,-0.174043 0.0724843,-0.093189 0.117827,-0.213634 0.143102,-0.324413 0.0111417,0.00974803 0.0228622,0.0207008 0.0350433,0.0327913 0.171984,0.170665 0.393268,0.52435 0.393268,0.879441 0,0.328579 -0.132929,0.625811 -0.34839,0.840626 -0.215299,0.214646 -0.513228,0.347409 -0.843594,0.347409l-0.000456693 0.00046063c-0.395067,0.00216142 -0.685079,-0.165756 -0.881449,-0.411358 -0.112094,-0.140197 -0.194902,-0.306795 -0.25024,-0.482705 -0.0559921,-0.177996 -0.0834646,-0.363764 -0.0844252,-0.540409 -0.0016063,-0.292224 0.0666693,-0.557165 0.195665,-0.714047zm1.26259 -1.46074l-1.27999 0 0 -0.587547 -0.213339 0 0 0.587547 -1.06668 0 0 -0.587547 -0.213339 0 0 0.587547 -0.853323 0 0 0.213339 1.54148 0 0 0.63998 -1.54148 0 0 0.213339 0.853323 0 0 0.63998 -0.853323 0 0 0.213339 1.54148 0 0 0.63998 -1.54148 0 0 0.213339 0.688146 0 0 0.587567 0.213339 0 0 -0.587567 1.26419 0c0.0573661,0.168461 0.140685,0.329075 0.251752,0.467972 0.067563,0.0845039 0.145055,0.160661 0.232839,0.225382l-2.75693 0 0 0.167567 5.12 0 -3.93701e-006 -0.167567 -0.893295 0c0.0643465,-0.0443858 0.124461,-0.0944291 0.179614,-0.149417 0.150146,-0.149701 0.263512,-0.33587 0.325724,-0.543937l0.387957 0 0 -0.213339 -0.343528 0c0.00622047,-0.0513622 0.00944882,-0.103642 0.00944882,-0.156669 0,-0.16739 -0.0444409,-0.333717 -0.109764,-0.483311l0.443843 0 0 -0.213339 -0.556681 0c-0.0642362,-0.102575 -0.134142,-0.189417 -0.19774,-0.252528 -0.0456417,-0.0452913 -0.0897756,-0.0802283 -0.128402,-0.102161 -0.0627323,-0.035626 -0.122354,-0.0428071 -0.172563,-0.0169882 -0.0479646,0.0246732 -0.0754921,0.0686339 -0.0770551,0.133661 -0.0131299,0.0887126 -0.0444488,0.196185 -0.102028,0.270217 -0.0223425,0.0287283 -0.0491969,0.0517638 -0.0810827,0.0645236 -0.0536772,-0.106559 -0.0940039,-0.220039 -0.118677,-0.338614 -0.0264724,-0.127205 -0.0349134,-0.260642 -0.0224921,-0.398091l1.45672 0 0 -0.213339 -0.64 0 0 -0.63998 0.64 0 0 -0.213339 -1.17332 0 0 -0.587547 -0.213339 0 0 0.587547zm-0.533339 0.853319l0 -0.63998 1.06666 0 0 0.63998 -0.570028 0c0.0030748,-0.012185 0.0063937,-0.0244921 0.00996063,-0.0369173l0 -0.000830709c0.012563,-0.0451772 0.00581102,-0.0827677 -0.0147638,-0.114567 -0.0216535,-0.0334646 -0.0525827,-0.0510118 -0.0890551,-0.0582244l3.14961e-005 -0.000161417c-0.0322795,-0.00646457 -0.0648346,-0.000622047 -0.0962835,0.0142835 -0.021311,0.0100984 -0.0428071,0.0248976 -0.0630512,0.0423189 -0.0567835,0.048374 -0.109354,0.0998898 -0.157673,0.154098l-0.0857992 0zm-0.959988 0.213339l0 0.63998 -1.06668 0 0 -0.63998 1.06668 0zm-0.378524 0.853319l0.330484 0c-0.0126299,0.083815 -0.0188386,0.171421 -0.0183504,0.260854 0.000681102,0.124413 0.0139449,0.25265 0.0404449,0.379126l-0.352579 0 0 -0.63998z"/>
  <g id="_317666208">
   <rect id="_317667240" class="fil2" width="6.82666" height="6.82666"/>
   <rect id="_317666760" class="fil2" x="0.853331" y="0.853331" width="5.12" height="5.12"/>
  </g>
  <path class="fil3" d="M3.95997 4.47058l-0.0136417 -0.0325236c-0.132717,-0.316386 -0.16572,-0.667717 -0.0873071,-1.00222 0.062315,-0.265827 0.191827,-0.509705 0.376256,-0.710957l0.208669 -0.227701 -0.0284646 0.245232 0.000106299 1.1811e-005 -0.0110512 0.100165c-0.0187835,0.170213 -0.0109567,0.343094 0.023937,0.510776 0.0353661,0.169945 0.097937,0.332803 0.183906,0.483531l0.00525197 0.0092126 0.00977953 0c0.109988,0 0.193232,-0.050626 0.259201,-0.135437 0.0624331,-0.0802717 0.102122,-0.187004 0.124539,-0.285264l0.0372638 -0.163323 0.126079 0.110307c0.0136142,0.0119094 0.0267992,0.0243307 0.0396378,0.0370748 0.235343,0.233563 0.422827,0.616437 0.422827,0.950417 0,0.343043 -0.134843,0.669232 -0.377787,0.911445 -0.233437,0.232732 -0.543783,0.365386 -0.87185,0.375913l-0.000905512 0.000909449 -0.0413504 0.000228346c-0.384862,0.00210236 -0.719161,-0.147567 -0.960098,-0.448909 -0.121465,-0.151917 -0.209311,-0.330075 -0.267528,-0.515146 -0.0576457,-0.18324 -0.0879843,-0.37778 -0.0890354,-0.56987 -0.00140551,-0.257024 0.0504764,-0.573854 0.218425,-0.778106l0.168791 -0.20528 0.00839764 0.26563c0.00103937,0.0328543 0.0016811,0.0657283 0.00236614,0.0985945 0.00830709,0.399252 0.0366772,0.83976 0.499402,0.965965l0.034185 0.00932677z"/>
  <path class="fil4" d="M3.95997 4.47058l-0.0136417 -0.0325236c-0.132717,-0.316386 -0.16572,-0.667717 -0.0873071,-1.00222 0.0202047,-0.0861969 0.0474803,-0.170083 0.0814016,-0.250957 0.00327165,0.100083 0.0152205,0.198209 0.0351102,0.293783 0.0378661,0.181961 0.104547,0.354209 0.194941,0.512701l0.0340315 0.0596693 0.0678661 0c0.148142,0 0.258157,-0.0712165 0.338134,-0.174043 0.00778346,-0.0100079 0.015252,-0.0203307 0.0224213,-0.0309252 0.107264,-0.00166535 0.188823,-0.0520079 0.253685,-0.135394 0.00181102,-0.00233071 0.00360236,-0.00468504 0.00537795,-0.00705906 0.145949,0.18928 0.289929,0.474768 0.289929,0.761197 0,0.328579 -0.132929,0.625811 -0.34839,0.840626 -0.174496,0.173969 -0.40328,0.294138 -0.65961,0.333441 -0.31278,-0.0372047 -0.584488,-0.183681 -0.788953,-0.439406 -0.121465,-0.151917 -0.209311,-0.330075 -0.267528,-0.515146 -0.0558386,-0.177496 -0.0860551,-0.365598 -0.0888504,-0.551803 0.064189,0.232799 0.204209,0.445138 0.515843,0.530138l0.232051 0.0632913 -0.0929764 -0.221646c-0.0340669,-0.0812126 -0.0608583,-0.163894 -0.0805276,-0.247224 0.0726142,0.092185 0.175752,0.164071 0.322807,0.204177l0.034185 0.00932677z"/>
 </g>
</svg>
