<?xml version="1.0" encoding="UTF-8"?>
<!DOCTYPE svg PUBLIC "-//W3C//DTD SVG 1.1//EN" "http://www.w3.org/Graphics/SVG/1.1/DTD/svg11.dtd">
<!-- Creator: CorelDRAW -->
<svg xmlns="http://www.w3.org/2000/svg" xml:space="preserve" width="6.82666in" height="6.82666in" style="shape-rendering:geometricPrecision; text-rendering:geometricPrecision; image-rendering:optimizeQuality; fill-rule:evenodd; clip-rule:evenodd"
viewBox="0 0 6.82666 6.82666"
 xmlns:xlink="http://www.w3.org/1999/xlink">
 <defs>
  <style type="text/css">
   <![CDATA[
    .fil0 {fill:none}
    .fil1 {fill:#5D4037}
    .fil5 {fill:#7D4D1F}
    .fil4 {fill:#A37448}
    .fil3 {fill:#4E342E;fill-rule:nonzero}
    .fil2 {fill:#6D4C41;fill-rule:nonzero}
   ]]>
  </style>
 </defs>
 <g id="Layer_x0020_1">
  <metadata id="CorelCorpID_0Corel-Layer"/>
  <g id="_316864808">
   <rect id="_316864544" class="fil0" width="6.82666" height="6.82666"/>
   <rect id="_316865000" class="fil0" x="0.853331" y="0.853331" width="5.12" height="5.12"/>
  </g>
  <path class="fil1" d="M0.940378 3.22235l0.370606 -0.136858c0.0612126,-0.0226063 0.170461,0.0210512 0.170461,0.078878l0.015063 0.0407874 0.0885354 -0.0326969 0.242079 0.655524 -0.0885315 0.0326929 0.0152205 0.0412244c0.0253465,0.0686339 -0.0103661,0.145169 -0.078874,0.170469l-0.370598 0.136858c-0.0686614,0.0253425 -0.145157,-0.0103465 -0.170476,-0.078878l-0.272358 -0.737535c-0.0253661,-0.0686535 0.0103622,-0.145161 0.078874,-0.170465z"/>
  <polygon class="fil2" points="3.9528,3.61367 4.27798,4.4942 5.85836,4.4942 5.85836,4.72414 4.19806,4.72414 4.11813,4.72414 4.09027,4.64869 3.73724,3.6927 "/>
  <polygon class="fil3" points="5.97333,3.7047 5.97333,5.75267 5.74339,5.75267 5.74339,3.7047 "/>
  <path class="fil4" d="M1.33307 2.42459l3.62295 -1.33793c0.0530984,-0.0196024 0.109433,-0.0156614 0.157398,0.00642913 0.0479331,0.0220669 0.0875472,0.0624961 0.107268,0.115898l0.597646 1.61835c0.0195984,0.0530709 0.0156693,0.109409 -0.00643701,0.157402 -0.0220748,0.0479134 -0.0624921,0.0875591 -0.115886,0.107268l-3.62295 1.33793c-0.0530709,0.0195984 -0.109425,0.0156732 -0.157402,-0.00642913 -0.0479134,-0.0220669 -0.0875433,-0.0624764 -0.107268,-0.115894l-0.59765 -1.61835c-0.0195984,-0.0530866 -0.0156772,-0.109425 0.00642126,-0.157406 0.0220787,-0.0479291 0.0624882,-0.0875433 0.115909,-0.107268z"/>
  <path class="fil5" d="M5.66475 2.41145l0.153583 0.415886c0.0195984,0.0530709 0.0156693,0.109409 -0.00643701,0.157402 -0.0220748,0.0479134 -0.0624921,0.0875591 -0.115886,0.107268l-3.62295 1.33793c-0.0530709,0.0195984 -0.109425,0.0156732 -0.157402,-0.00642913 -0.0479134,-0.0220669 -0.0875433,-0.0624764 -0.107268,-0.115894l-0.141142 -0.382197 3.9975 -1.51396z"/>
  <polygon class="fil5" points="5.31279,1.45839 5.4146,1.73408 1.4171,3.24805 1.31529,2.97235 "/>
 </g>
</svg>
