<?xml version="1.0" encoding="UTF-8"?>
<!DOCTYPE svg PUBLIC "-//W3C//DTD SVG 1.1//EN" "http://www.w3.org/Graphics/SVG/1.1/DTD/svg11.dtd">
<!-- Creator: CorelDRAW -->
<svg xmlns="http://www.w3.org/2000/svg" xml:space="preserve" width="6.82666in" height="6.82666in" style="shape-rendering:geometricPrecision; text-rendering:geometricPrecision; image-rendering:optimizeQuality; fill-rule:evenodd; clip-rule:evenodd"
viewBox="0 0 6.82666 6.82666"
 xmlns:xlink="http://www.w3.org/1999/xlink">
 <defs>
  <style type="text/css">
   <![CDATA[
    .fil4 {fill:none}
    .fil1 {fill:#01579B}
    .fil0 {fill:#039BE5}
    .fil3 {fill:#FFA726}
    .fil2 {fill:#FFB74D}
   ]]>
  </style>
 </defs>
 <g id="Layer_x0020_1">
  <metadata id="CorelCorpID_0Corel-Layer"/>
  <path class="fil0" d="M1.09333 1.73333l4.64 0c0.0648307,0 0.124154,0.0256142 0.167496,0.0668583 0.0447362,0.0425709 0.0725039,0.101567 0.0725039,0.166689l0 2.89291c0,0.065126 -0.0277795,0.124122 -0.0725079,0.166681 -0.0433465,0.041248 -0.102669,0.0668661 -0.167492,0.0668661l-4.64 0c-0.0648189,0 -0.124146,-0.0256102 -0.167496,-0.0668622 -0.0447283,-0.042563 -0.0725039,-0.101551 -0.0725039,-0.166685l0 -2.89291c0,-0.0651378 0.0277717,-0.124122 0.0725,-0.166693 0.0433465,-0.041248 0.102673,-0.0668543 0.1675,-0.0668543z"/>
  <path class="fil1" d="M1.09333 1.93332c-0.0110118,0 -0.0216339,0.00412992 -0.029626,0.0117323 -0.00612992,0.00583465 -0.010378,0.0131732 -0.010378,0.0218189l0 2.89291c0,0.0086378 0.00425197,0.0159764 0.010378,0.0218031 0.00799213,0.0076063 0.0186102,0.011748 0.029626,0.011748l4.64 0c0.0110157,0 0.0216339,-0.00414961 0.029626,-0.0117559 0.00611811,-0.0058189 0.010378,-0.0131654 0.010378,-0.0217953l0 -2.89291c0,-0.0086378 -0.00425197,-0.0159803 -0.010378,-0.0218071 -0.00799213,-0.0076063 -0.0186102,-0.0117441 -0.029626,-0.0117441l-4.64 0z"/>
  <path class="fil2" d="M3.0318 2.60847l-0.763437 -0.140646 -0.765705 0.140713 -0.000570866 0.0056378c-0.00227559,0.0228307 -0.00477165,0.0520984 -0.0071378,0.0884961 -0.0019252,0.0296614 -0.00351969,0.0589921 -0.00449213,0.0860472 -0.00114173,0.031815 -0.00185433,0.0643268 -0.00190551,0.0965 -9.44882e-005,0.0562362 0.00166929,0.119098 0.00633465,0.187768 0.00388976,0.0572559 0.00989764,0.116827 0.018685,0.177461 0.00768898,0.0530748 0.0176496,0.107244 0.0303661,0.161685 0.0116142,0.0497323 0.0253543,0.0988898 0.0415433,0.14663 0.0368858,0.108776 0.0985787,0.212551 0.170717,0.307244 0.074122,0.0972992 0.159354,0.185083 0.240701,0.259287 0.0843858,0.0769724 0.162024,0.137614 0.219992,0.17989 0.0186417,0.0135945 0.0357165,0.0255787 0.0504094,0.0356457 0.0146969,-0.0100709 0.0317717,-0.0220512 0.0504134,-0.0356457 0.0579685,-0.0422756 0.135606,-0.102917 0.219992,-0.17989 0.090315,-0.082378 0.185213,-0.181177 0.264075,-0.290571 0.0618976,-0.0858583 0.114378,-0.178772 0.147331,-0.275961 0.0243228,-0.0717047 0.042937,-0.145634 0.0570236,-0.21935 0.0161969,-0.0847953 0.026378,-0.169378 0.0323465,-0.250063 0.00768504,-0.103898 0.00855906,-0.199055 0.00630709,-0.279787 -0.00232677,-0.083374 -0.00802362,-0.153134 -0.0129882,-0.201091z"/>
  <polygon class="fil3" points="3.63104,3.30666 5.44437,3.30666 5.44437,3.52 3.63104,3.52 "/>
  <polygon class="fil3" points="3.63104,2.57777 5.44437,2.57777 5.44437,2.79111 3.63104,2.79111 "/>
  <polygon class="fil3" points="3.63104,4.03555 5.44437,4.03555 5.44437,4.24889 3.63104,4.24889 "/>
  <g id="_316876736">
   <rect id="_316876424" class="fil4" width="6.82666" height="6.82666"/>
   <rect id="_316876688" class="fil4" x="0.853331" y="0.853331" width="5.12" height="5.12"/>
  </g>
 </g>
</svg>
