<?xml version="1.0" encoding="UTF-8"?>
<!DOCTYPE svg PUBLIC "-//W3C//DTD SVG 1.1//EN" "http://www.w3.org/Graphics/SVG/1.1/DTD/svg11.dtd">
<!-- Creator: CorelDRAW -->
<svg xmlns="http://www.w3.org/2000/svg" xml:space="preserve" width="6.82666in" height="6.82666in" style="shape-rendering:geometricPrecision; text-rendering:geometricPrecision; image-rendering:optimizeQuality; fill-rule:evenodd; clip-rule:evenodd"
viewBox="0 0 6.82666 6.82666"
 xmlns:xlink="http://www.w3.org/1999/xlink">
 <defs>
  <style type="text/css">
   <![CDATA[
    .fil0 {fill:none}
    .fil5 {fill:#4DB6AC}
    .fil1 {fill:#616161}
    .fil2 {fill:#E1F5FE}
    .fil6 {fill:#F05653}
    .fil7 {fill:#F37567}
    .fil4 {fill:#FFA726}
    .fil3 {fill:#424242;fill-rule:nonzero}
   ]]>
  </style>
 </defs>
 <g id="Layer_x0020_1">
  <metadata id="CorelCorpID_0Corel-Layer"/>
  <g id="_316878464">
   <rect id="_316879304" class="fil0" width="6.82666" height="6.82666"/>
   <rect id="_316878512" class="fil0" x="0.853331" y="0.853331" width="5.12" height="5.12"/>
  </g>
  <path class="fil1" d="M1.21919 1.71702l4.3883 0c0.101413,0 0.184378,0.0829685 0.184378,0.184378l0 2.72887c0,0.101406 -0.0829724,0.184378 -0.184378,0.184378l-4.3883 0c-0.101406,0 -0.184378,-0.0829646 -0.184378,-0.184378l0 -2.72887c0,-0.101413 0.0829646,-0.184378 0.184378,-0.184378z"/>
  <path class="fil2" d="M1.21919 1.8553c-0.0250827,0 -0.0460984,0.0210157 -0.0460984,0.0460984l0 2.72887c0,0.0250827 0.0210157,0.0460984 0.0460984,0.0460984l4.3883 0c0.0250787,0 0.0460984,-0.0210197 0.0460984,-0.0460984l0 -2.72887c0,-0.0250827 -0.0210157,-0.0460984 -0.0460984,-0.0460984l-4.3883 0z"/>
  <path class="fil3" d="M1.00393 4.80846c-0.0831654,0 -0.150591,0.0674252 -0.150591,0.150594 0,0.0831654 0.0674252,0.150591 0.150591,0.150591l4.81881 0c0.0831654,0 0.150591,-0.0674252 0.150591,-0.150591 0,-0.0831693 -0.0674252,-0.150594 -0.150591,-0.150594l-4.81881 0z"/>
  <circle class="fil4" cx="5.53998" cy="4.95905" r="0.0524265"/>
  <circle class="fil5" cx="5.40745" cy="4.95905" r="0.0524265"/>
  <path class="fil6" d="M3.41334 4.29165l-5.90551e-005 0c-0.00855118,0 -0.0171929,-0.00120079 -0.0256654,-0.00362205 -0.00784646,-0.00224016 -0.0157874,-0.00579134 -0.0235945,-0.0106732l-7.48031e-005 0.000122047c-0.0116654,-0.00728346 -0.155028,-0.097752 -0.314114,-0.242866 -0.160457,-0.146362 -0.337654,-0.348898 -0.416303,-0.580823 -0.0343228,-0.101209 -0.0571575,-0.205764 -0.0718819,-0.307362 -0.0181063,-0.124949 -0.0238858,-0.246043 -0.0237087,-0.350921 0.000114173,-0.0664764 0.00252756,-0.125205 0.00569685,-0.173972 0.0061378,-0.094374 0.0149606,-0.154626 0.0160551,-0.161787l2.75591e-005 3.93701e-006c0.00298425,-0.0196575 0.0120709,-0.0373307 0.0253346,-0.0510276 0.0131339,-0.013563 0.0304685,-0.0231457 0.0500787,-0.026752l0.761319 -0.140291c0.00266535,-0.000496063 0.00515748,-0.000858268 0.00748425,-0.00109843 0.00217323,-0.000220472 0.0047874,-0.000362205 0.00783858,-0.000417323l0.000685039 -0.000169291 0.00088189 0 0 2.05166z"/>
  <path class="fil7" d="M3.43031 2.24171l0.761165 0.14026c0.0196063,0.0036063 0.0369409,0.013189 0.0500748,0.026752 0.013311,0.013748 0.0224173,0.0314291 0.0253661,0.0510236 0.00218504,0.0145 0.0360039,0.245957 0.0149646,0.530382 -0.0109055,0.147433 -0.0365354,0.309409 -0.0888622,0.463661 -0.0786417,0.231925 -0.255839,0.434461 -0.416291,0.580823 -0.159087,0.145114 -0.302449,0.235583 -0.314114,0.242866l-7.87402e-005 -0.000122047c-0.00780709,0.00488189 -0.0157441,0.00842913 -0.0235906,0.0106732 -0.00838189,0.00238976 -0.0169213,0.00359055 -0.025374,0.00361811l-0.000228346 3.93701e-006 0 -2.05166 0.000807087 0 0.000661417 0.000165354 2.3622e-005 3.93701e-006c0.00305118,5.90551e-005 0.0056811,0.00019685 0.00784646,0.000433071 0.00277953,0.000287402 0.00532677,0.000649606 0.0076378,0.00108268l-7.87402e-006 3.14961e-005z"/>
 </g>
</svg>
