<?xml version="1.0" encoding="UTF-8"?>
<!DOCTYPE svg PUBLIC "-//W3C//DTD SVG 1.1//EN" "http://www.w3.org/Graphics/SVG/1.1/DTD/svg11.dtd">
<!-- Creator: CorelDRAW -->
<svg xmlns="http://www.w3.org/2000/svg" xml:space="preserve" width="6.82666in" height="6.82666in" style="shape-rendering:geometricPrecision; text-rendering:geometricPrecision; image-rendering:optimizeQuality; fill-rule:evenodd; clip-rule:evenodd"
viewBox="0 0 6.82666 6.82666"
 xmlns:xlink="http://www.w3.org/1999/xlink">
 <defs>
  <style type="text/css">
   <![CDATA[
    .fil5 {fill:none}
    .fil1 {fill:#4D4D4D}
    .fil3 {fill:#546E7A}
    .fil4 {fill:#90A4AE}
    .fil2 {fill:white}
    .fil0 {fill:#333333;fill-rule:nonzero}
    .fil6 {fill:white;fill-rule:nonzero}
   ]]>
  </style>
 </defs>
 <g id="Layer_x0020_1">
  <metadata id="CorelCorpID_0Corel-Layer"/>
  <polygon class="fil0" points="4.15461,4.58667 4.3631,5.18004 4.42437,5.35444 4.26477,5.35444 2.56189,5.35444 2.40229,5.35444 2.46356,5.18004 2.67204,4.58667 "/>
  <path class="fil1" d="M1.06109 1.47222l4.70448 0c0.057248,0 0.109209,0.0233543 0.146807,0.0609528l-0.000208661 0.000208661c0.037748,0.0378465 0.0611654,0.089752 0.0611654,0.146602l0 2.81731c0,0.0572244 -0.0233504,0.109201 -0.0609567,0.146807 -0.0376063,0.0376063 -0.0895827,0.0609567 -0.146807,0.0609567l-4.70448 0c-0.0568504,0 -0.108756,-0.0234173 -0.146602,-0.0611654l-0.000208661 0.000208661c-0.0375984,-0.0375984 -0.0609528,-0.0895591 -0.0609528,-0.146807l0 -2.81731c0,-0.057248 0.0233465,-0.109213 0.0609488,-0.146815 0.0376024,-0.0376024 0.0895669,-0.0609488 0.146815,-0.0609488z"/>
  <path class="fil2" d="M1.02879 4.5225l0.00340157 0.0033937c0.00776772,0.00774803 0.0178386,0.0125039 0.0289055,0.0125039l4.70448 0c0.0110315,0 0.0211693,-0.00435433 0.0289567,-0.0121417 0.0077874,-0.0077874 0.0121417,-0.0179252 0.0121417,-0.0289567l0 -2.81731c0,-0.0110669 -0.00475591,-0.0211378 -0.0125039,-0.0289055l-0.0033937 -0.00340157c-0.00717323,-0.0056811 -0.0158583,-0.00879134 -0.0252008,-0.00879134l-4.70448 0c-0.0110433,0 -0.0211693,0.00433858 -0.0289646,0.0121339 -0.00779528,0.00779528 -0.0121339,0.0179213 -0.0121339,0.0289646l0 2.81731c0,0.00934252 0.00311024,0.0180276 0.00879134,0.0252008z"/>
  <path class="fil3" d="M1.86333 2.45333l3.1 0c0.0565591,0 0.108193,0.0232953 0.145831,0.0608346l0.000208661 -0.000208661c0.0374094,0.0374094 0.060626,0.0890945 0.060626,0.146039l0 0.653343c0,0.0569331 -0.0232165,0.10863 -0.060626,0.146039l-0.000417323 0c-0.0374055,0.0373976 -0.0889567,0.060626 -0.145622,0.060626l-3.1 0c-0.0569449,0 -0.10863,-0.0232165 -0.146039,-0.060626l0.000208661 -0.000208661c-0.0375433,-0.0376417 -0.0608346,-0.0892717 -0.0608346,-0.145831l0 -0.653343c0,-0.0564528 0.0232126,-0.107996 0.0606299,-0.145618l-3.93701e-006 -3.93701e-006 0.000208661 -0.000208661 0.000208661 -0.000208661 3.93701e-006 3.93701e-006c0.037622,-0.0374173 0.0891654,-0.0606299 0.145618,-0.0606299z"/>
  <path class="fil4" d="M1.81265 2.60758c-0.0134961,0.0142953 -0.0226535,0.0324488 -0.0226535,0.0524134l0 0.653343c0,0.019626 0.00811811,0.0378504 0.0219055,0.0516732l0.00453937 0.00455118c0.0131378,0.0110276 0.0295118,0.0171102 0.0468898,0.0171102l3.1 0c0.0194724,0 0.037622,-0.00785433 0.0513543,-0.0215827l0.0049252 -0.00492913c0.0109921,-0.013122 0.0170551,-0.0294803 0.0170551,-0.0468228l0 -0.653343c0,-0.017378 -0.00608268,-0.033752 -0.0171102,-0.0468898l-0.00455118 -0.00453937c-0.0138228,-0.0137874 -0.0320512,-0.0219055 -0.0516732,-0.0219055l-3.1 0c-0.0191339,0 -0.0370551,0.00761811 -0.0506811,0.0209213z"/>
  <g id="_316885688">
   <rect id="_316885640" class="fil5" width="6.82666" height="6.82666"/>
   <rect id="_316885856" class="fil5" x="0.853331" y="0.853331" width="5.12" height="5.12"/>
  </g>
  <path class="fil6" d="M2.25519 3.1617l-0.0757283 -0.0586299c0.0241024,-0.0270118 0.0492323,-0.0529921 0.0752126,-0.0776102 0.0102598,-0.0100827 0.0167559,-0.0164094 0.0194882,-0.0191417 -0.00837402,-0.00119685 -0.0321378,-0.00683858 -0.071622,-0.0164134 -0.028378,-0.00700787 -0.0470079,-0.0121339 -0.0560709,-0.0155551l0.0295748 -0.0882047c0.0437598,0.0177795 0.0827362,0.0372638 0.117094,0.0586339 -0.00786614,-0.0543583 -0.0119685,-0.0988031 -0.0119685,-0.133161l0.0892323 0c0,0.0242717 -0.00461417,0.0690591 -0.0135039,0.134185 0.00666535,-0.00273228 0.0210236,-0.00922835 0.0429055,-0.0194843 0.0300866,-0.0136772 0.0577795,-0.0254724 0.083248,-0.0350433l0.0264961 0.0905984c-0.0370945,0.00837402 -0.08,0.0165787 -0.128717,0.0244449l0.0601693 0.067689c0.0119646,0.0136772 0.0215394,0.0247874 0.0285472,0.0335079l-0.076752 0.0505984 -0.0675236 -0.111626c-0.0203386,0.0360669 -0.0437598,0.0743583 -0.0700827,0.115213z"/>
  <path class="fil6" d="M2.79785 3.1617l-0.0757283 -0.0586299c0.0241024,-0.0270118 0.0492323,-0.0529921 0.0752126,-0.0776102 0.0102598,-0.0100827 0.0167559,-0.0164094 0.0194882,-0.0191417 -0.00837402,-0.00119685 -0.0321378,-0.00683858 -0.071622,-0.0164134 -0.028378,-0.00700787 -0.0470079,-0.0121339 -0.0560709,-0.0155551l0.0295748 -0.0882047c0.0437598,0.0177795 0.0827362,0.0372638 0.117094,0.0586339 -0.00786614,-0.0543583 -0.0119685,-0.0988031 -0.0119685,-0.133161l0.0892323 0c0,0.0242717 -0.00461417,0.0690591 -0.0135039,0.134185 0.00666535,-0.00273228 0.0210236,-0.00922835 0.0429055,-0.0194843 0.0300866,-0.0136772 0.0577795,-0.0254724 0.083248,-0.0350433l0.0264961 0.0905984c-0.0370945,0.00837402 -0.08,0.0165787 -0.128717,0.0244449l0.0601693 0.067689c0.0119646,0.0136772 0.0215394,0.0247874 0.0285472,0.0335079l-0.076752 0.0505984 -0.0675236 -0.111626c-0.0203386,0.0360669 -0.0437598,0.0743583 -0.0700827,0.115213z"/>
  <path class="fil6" d="M3.34051 3.1617l-0.0757283 -0.0586299c0.0241024,-0.0270118 0.0492323,-0.0529921 0.0752126,-0.0776102 0.0102598,-0.0100827 0.0167559,-0.0164094 0.0194882,-0.0191417 -0.00837402,-0.00119685 -0.0321378,-0.00683858 -0.071622,-0.0164134 -0.028378,-0.00700787 -0.0470079,-0.0121339 -0.0560709,-0.0155551l0.0295748 -0.0882047c0.0437598,0.0177795 0.0827362,0.0372638 0.117094,0.0586339 -0.00786614,-0.0543583 -0.0119685,-0.0988031 -0.0119685,-0.133161l0.0892323 0c0,0.0242717 -0.00461417,0.0690591 -0.0135039,0.134185 0.00666535,-0.00273228 0.0210236,-0.00922835 0.0429055,-0.0194843 0.0300866,-0.0136772 0.0577795,-0.0254724 0.083248,-0.0350433l0.0264961 0.0905984c-0.0370945,0.00837402 -0.08,0.0165787 -0.128717,0.0244449l0.0601693 0.067689c0.0119646,0.0136772 0.0215394,0.0247874 0.0285472,0.0335079l-0.076752 0.0505984 -0.0675236 -0.111626c-0.0203386,0.0360669 -0.0437598,0.0743583 -0.0700827,0.115213z"/>
  <path class="fil6" d="M3.88317 3.1617l-0.0757283 -0.0586299c0.0241024,-0.0270118 0.0492323,-0.0529921 0.0752126,-0.0776102 0.0102598,-0.0100827 0.0167559,-0.0164094 0.0194882,-0.0191417 -0.00837402,-0.00119685 -0.0321378,-0.00683858 -0.071622,-0.0164134 -0.028378,-0.00700787 -0.0470079,-0.0121339 -0.0560709,-0.0155551l0.0295748 -0.0882047c0.0437598,0.0177795 0.0827362,0.0372638 0.117094,0.0586339 -0.00786614,-0.0543583 -0.0119685,-0.0988031 -0.0119685,-0.133161l0.0892323 0c0,0.0242717 -0.00461417,0.0690591 -0.0135039,0.134185 0.00666535,-0.00273228 0.0210236,-0.00922835 0.0429055,-0.0194843 0.0300866,-0.0136772 0.0577795,-0.0254724 0.083248,-0.0350433l0.0264961 0.0905984c-0.0370945,0.00837402 -0.08,0.0165787 -0.128717,0.0244449l0.0601693 0.067689c0.0119646,0.0136772 0.0215394,0.0247874 0.0285472,0.0335079l-0.076752 0.0505984 -0.0675236 -0.111626c-0.0203386,0.0360669 -0.0437598,0.0743583 -0.0700827,0.115213z"/>
  <path class="fil6" d="M4.42583 3.1617l-0.0757283 -0.0586299c0.0241024,-0.0270118 0.0492323,-0.0529921 0.0752126,-0.0776102 0.0102598,-0.0100827 0.0167559,-0.0164094 0.0194882,-0.0191417 -0.00837402,-0.00119685 -0.0321378,-0.00683858 -0.071622,-0.0164134 -0.028378,-0.00700787 -0.0470079,-0.0121339 -0.0560709,-0.0155551l0.0295748 -0.0882047c0.0437598,0.0177795 0.0827362,0.0372638 0.117094,0.0586339 -0.00786614,-0.0543583 -0.0119685,-0.0988031 -0.0119685,-0.133161l0.0892323 0c0,0.0242717 -0.00461417,0.0690591 -0.0135039,0.134185 0.00666535,-0.00273228 0.0210236,-0.00922835 0.0429055,-0.0194843 0.0300866,-0.0136772 0.0577795,-0.0254724 0.083248,-0.0350433l0.0264961 0.0905984c-0.0370945,0.00837402 -0.08,0.0165787 -0.128717,0.0244449l0.0601693 0.067689c0.0119646,0.0136772 0.0215394,0.0247874 0.0285472,0.0335079l-0.076752 0.0505984 -0.0675236 -0.111626c-0.0203386,0.0360669 -0.0437598,0.0743583 -0.0700827,0.115213z"/>
 </g>
</svg>
