<?xml version="1.0" encoding="UTF-8"?>
<!DOCTYPE svg PUBLIC "-//W3C//DTD SVG 1.1//EN" "http://www.w3.org/Graphics/SVG/1.1/DTD/svg11.dtd">
<!-- Creator: CorelDRAW -->
<svg xmlns="http://www.w3.org/2000/svg" xml:space="preserve" width="6.82666in" height="6.82666in" style="shape-rendering:geometricPrecision; text-rendering:geometricPrecision; image-rendering:optimizeQuality; fill-rule:evenodd; clip-rule:evenodd"
viewBox="0 0 6.82666 6.82666"
 xmlns:xlink="http://www.w3.org/1999/xlink">
 <defs>
  <style type="text/css">
   <![CDATA[
    .fil0 {fill:none}
    .fil1 {fill:#4E342E}
    .fil2 {fill:#6D4C41}
    .fil3 {fill:#FFB74D}
   ]]>
  </style>
 </defs>
 <g id="Layer_x0020_1">
  <metadata id="CorelCorpID_0Corel-Layer"/>
  <g id="_316858304">
   <rect id="_316857968" class="fil0" width="6.82666" height="6.82666"/>
   <rect id="_316857560" class="fil0" x="0.853331" y="0.853331" width="5.12" height="5.12"/>
  </g>
  <g id="_316857368">
   <polygon id="_316857272" class="fil1" points="1.68046,0.853331 4.94025,0.853331 5.04876,0.853331 5.04876,0.961846 5.04876,5.64779 5.04876,5.7563 4.94025,5.7563 1.68046,5.7563 1.57195,5.7563 1.57195,5.64779 1.57195,0.961846 1.57195,0.853331 "/>
   <polygon id="_316857224" class="fil2" points="1.88642,1.07036 5.1462,1.07036 5.25472,1.07036 5.25472,1.17888 5.25472,5.86482 5.25472,5.97333 5.1462,5.97333 1.88642,5.97333 1.77791,5.97333 1.77791,5.86482 1.77791,1.17888 1.77791,1.07036 "/>
   <path id="_316857536" class="fil3" d="M3.77016 2.73938c-0.0652165,-0.0652126 -0.155087,-0.105697 -0.25385,-0.105697 -0.0987677,0 -0.188634,0.0404843 -0.253854,0.105697 -0.0652126,0.0652165 -0.105697,0.155087 -0.105697,0.253854l0 0.232689 0.719102 0 0 -0.232689c0,-0.0987677 -0.0404843,-0.188638 -0.105701,-0.253854zm-0.25385 -0.322728c0.158669,0 0.302846,0.0648346 0.407295,0.169287 0.104449,0.104449 0.169283,0.248622 0.169283,0.407295l0 0.232689 0.207693 0 0.108516 0 0 0.108512 0 1.18409 0 0.108512 -0.108516 3.93701e-006 -1.56854 0 -0.108512 -3.93701e-006 0 -0.108512 0 -1.18409 0 -0.108512 0.108512 0 0.207689 0 0 -0.232689c0,-0.158673 0.0648386,-0.302846 0.169287,-0.407295 0.104453,-0.104453 0.248622,-0.169287 0.407295,-0.169287z"/>
  </g>
 </g>
</svg>
