<?xml version="1.0" encoding="UTF-8"?>
<!DOCTYPE svg PUBLIC "-//W3C//DTD SVG 1.1//EN" "http://www.w3.org/Graphics/SVG/1.1/DTD/svg11.dtd">
<!-- Creator: CorelDRAW -->
<svg xmlns="http://www.w3.org/2000/svg" xml:space="preserve" width="6.82666in" height="6.82666in" style="shape-rendering:geometricPrecision; text-rendering:geometricPrecision; image-rendering:optimizeQuality; fill-rule:evenodd; clip-rule:evenodd"
viewBox="0 0 6.82666 6.82666"
 xmlns:xlink="http://www.w3.org/1999/xlink">
 <defs>
  <style type="text/css">
   <![CDATA[
    .fil2 {fill:none}
    .fil0 {fill:#546E7A}
    .fil4 {fill:#5D4037}
    .fil3 {fill:#6D4C41}
    .fil1 {fill:#ECEFF1}
   ]]>
  </style>
 </defs>
 <g id="Layer_x0020_1">
  <metadata id="CorelCorpID_0Corel-Layer"/>
  <polygon class="fil0" points="0.959996,2.45333 5.86667,2.45333 5.97333,2.45333 5.97333,2.56 5.97333,4.26667 5.97333,4.37333 5.86667,4.37333 0.959996,4.37333 0.853327,4.37333 0.853327,4.26667 0.853327,2.56 0.853327,2.45333 "/>
  <polygon class="fil1" points="1.05332,2.65332 1.05332,4.17334 5.77334,4.17334 5.77334,2.65332 "/>
  <g id="_316860968">
   <rect id="_316860752" class="fil2" width="6.82666" height="6.82666"/>
   <rect id="_316861136" class="fil2" x="0.853331" y="0.853331" width="5.12" height="5.12"/>
  </g>
  <polygon class="fil3" points="2.66667,3.84 3.1921,3.84 3.1921,4.05333 2.66667,4.05333 "/>
  <polygon class="fil3" points="3.41728,3.84 3.94272,3.84 3.94272,4.05333 3.41728,4.05333 "/>
  <polygon class="fil3" points="4.1679,3.84 4.69333,3.84 4.69333,4.05333 4.1679,4.05333 "/>
  <polygon class="fil3" points="4.96395,3.84 5.48938,3.84 5.48938,4.05333 4.96395,4.05333 "/>
  <path class="fil4" d="M1.90372 2.99474c-0.0294921,-0.0294921 -0.0700866,-0.0478031 -0.114654,-0.0478031 -0.044563,0 -0.0851575,0.0183071 -0.11465,0.0478031 -0.0294961,0.0294921 -0.0478031,0.0700866 -0.0478031,0.11465l0 0.0895157 0.324909 0 0 -0.0895157c0,-0.0445591 -0.0183071,-0.0851575 -0.0478031,-0.11465zm-0.114654 -0.261142c0.103453,0 0.197429,0.042248 0.265488,0.110307 0.0680591,0.0680512 0.110307,0.162031 0.110307,0.265484l0 0.0895157 0.0751417 0 0.106669 0 0 0.106669 0 0.680823 0 0.106669 -0.106669 0 -0.90187 0 -0.106669 0 0 -0.106669 0 -0.680823 0 -0.106669 0.106669 0 0.0751417 0 0 -0.0895157c0,-0.103457 0.042248,-0.197433 0.110307,-0.265484 0.0680512,-0.0680591 0.162028,-0.110307 0.265484,-0.110307z"/>
 </g>
</svg>
