<?xml version="1.0" encoding="UTF-8"?>
<!DOCTYPE svg PUBLIC "-//W3C//DTD SVG 1.1//EN" "http://www.w3.org/Graphics/SVG/1.1/DTD/svg11.dtd">
<!-- Creator: CorelDRAW -->
<svg xmlns="http://www.w3.org/2000/svg" xml:space="preserve" width="6.82666in" height="6.82666in" style="shape-rendering:geometricPrecision; text-rendering:geometricPrecision; image-rendering:optimizeQuality; fill-rule:evenodd; clip-rule:evenodd"
viewBox="0 0 6.82666 6.82666"
 xmlns:xlink="http://www.w3.org/1999/xlink">
 <defs>
  <style type="text/css">
   <![CDATA[
    .fil0 {fill:none}
    .fil2 {fill:#FAAC66;fill-rule:nonzero}
    .fil1 {fill:#FFD878;fill-rule:nonzero}
   ]]>
  </style>
 </defs>
 <g id="Layer_x0020_1">
  <metadata id="CorelCorpID_0Corel-Layer"/>
  <g id="_316861472">
   <rect id="_316862672" class="fil0" width="6.82666" height="6.82666"/>
   <rect id="_316861952" class="fil0" x="0.853331" y="0.853331" width="5.12" height="5.12"/>
  </g>
  <g id="_316861664">
   <path id="_316861928" class="fil1" d="M3.15739 1.39336c0,-0.0418307 -0.0177835,-0.070248 -0.0454528,-0.0886378 -0.0472559,-0.0313976 -0.121382,-0.0431693 -0.19835,-0.0431693 -0.0597323,0 -0.113614,0.0240157 -0.15252,0.0629331l-0.000177165 -0.000173228c-0.0387953,0.0388937 -0.0627283,0.0928346 -0.0627283,0.15274l0 2.5479 -0.162449 0.0530945 -0.413276 -0.565378 -0.00281496 -0.00421654c-0.0485157,-0.0745591 -0.119909,-0.124409 -0.196346,-0.144811 -0.0735118,-0.0196142 -0.151417,-0.0116063 -0.216713,0.0285197l0.000129921 0.000208661 -0.00156299 0.000996063 -5.51181e-005 -8.66142e-005c-0.0640709,0.041185 -0.104091,0.106528 -0.11711,0.179248 -0.0134094,0.0748701 0.00141732,0.157713 0.0474213,0.231461 0.217425,0.284406 0.402343,0.561402 0.573394,0.817634 0.490138,0.734224 0.862661,1.29218 1.57683,1.35171 1.33796,-0.0014685 1.45784,-1.02987 1.45784,-1.33735l0 -2.75208c0,-0.0594331 -0.0242087,-0.113291 -0.0632874,-0.152209 -0.0391772,-0.0390197 -0.0934528,-0.0632205 -0.153441,-0.0632205 -0.0594921,0 -0.113472,0.0242323 -0.152535,0.0632835 -0.0388583,0.0388504 -0.0629606,0.092685 -0.0629606,0.152146l-0.0104291 0 0 1.32599 -0.180031 0 0 -1.93695c0,-0.056248 -0.0289764,-0.108118 -0.0759409,-0.146598 -0.0520039,-0.0426063 -0.125047,-0.0689016 -0.206949,-0.0689016 -0.0857795,0 -0.155071,0.0171299 -0.199894,0.0506299 -0.0347835,0.0259961 -0.054752,0.0651181 -0.054752,0.116965l-7.87402e-006 0 0 1.78075 -0.180031 0 0 -1.93695c0,-0.0558819 -0.0291181,-0.107807 -0.0762756,-0.146441 -0.0520236,-0.0426181 -0.124941,-0.0690591 -0.206606,-0.0690591 -0.0816969,0 -0.154614,0.0264331 -0.206622,0.0690433 -0.0471535,0.0386299 -0.0762638,0.090563 -0.0762638,0.146457l0 0.324528 0 1.61243 -0.180031 0 0 -1.61243z"/>
   <path id="_316862072" class="fil2" d="M5.24344 2.82201l0 -0.0670551 -0.442654 0 0 0.0670551 0.442654 0zm-1.43814 3.14965c0.0312835,-0.00109055 0.0620039,-0.00265354 0.0919488,-0.00483858 0.195634,-0.498409 0.421008,-0.939776 0.687756,-1.30174 0.195661,-0.265516 0.413614,-0.488114 0.658437,-0.658929l0 -0.101713c-0.272283,0.180201 -0.512441,0.420803 -0.726244,0.710937 -0.148031,0.200874 -0.283425,0.425594 -0.408134,0.670492 -0.153677,-0.332555 -0.324343,-0.633024 -0.516244,-0.893421 -0.213803,-0.29013 -0.622386,-0.595031 -0.894669,-0.775228l0 0.101717c0.244823,0.170811 0.631201,0.457705 0.826862,0.723217 0.200323,0.271831 0.377315,0.588445 0.535894,0.940366 -0.0907087,0.185992 -0.175646,0.38287 -0.255606,0.589146zm-1.52895 -2.24841l-0.0395669 -0.0541339 -0.454335 0.332516c0.013185,0.0181732 0.0262559,0.036311 0.0392087,0.0543937l0.454693 -0.332776zm1.06106 -1.50468l0.565768 0 0 0.0670512 -0.565768 0 0 -0.0670512zm0 -0.643677l0.565768 0 0 0.0670512 -0.565768 0 0 -0.0670512zm-0.63926 0.362063l0 0.0670551 0.459228 0 0 -0.0670551 -0.459228 0zm0 0.643677l0 0.0670551 0.459228 0 0 -0.0670551 -0.459228 0zm1.9226 0.0268268l0 -0.0670512 -0.537543 0 0 0.0670512 0.537543 0zm0 -0.643677l0 -0.0670512 -0.537543 0 0 0.0670512 0.537543 0zm0.622685 0.362067l0 -0.0670551 -0.442654 0 0 0.0670551 0.442654 0z"/>
  </g>
 </g>
</svg>
