<?xml version="1.0" encoding="UTF-8"?>
<!DOCTYPE svg PUBLIC "-//W3C//DTD SVG 1.1//EN" "http://www.w3.org/Graphics/SVG/1.1/DTD/svg11.dtd">
<!-- Creator: CorelDRAW -->
<svg xmlns="http://www.w3.org/2000/svg" xml:space="preserve" width="6.82666in" height="6.82666in" style="shape-rendering:geometricPrecision; text-rendering:geometricPrecision; image-rendering:optimizeQuality; fill-rule:evenodd; clip-rule:evenodd"
viewBox="0 0 6.82666 6.82666"
 xmlns:xlink="http://www.w3.org/1999/xlink">
 <defs>
  <style type="text/css">
   <![CDATA[
    .fil0 {fill:none}
    .fil3 {fill:#C21B1B;fill-rule:nonzero}
    .fil1 {fill:#D32F2F;fill-rule:nonzero}
    .fil2 {fill:#EB4F35;fill-rule:nonzero}
   ]]>
  </style>
 </defs>
 <g id="Layer_x0020_1">
  <metadata id="CorelCorpID_0Corel-Layer"/>
  <g id="_316863512">
   <rect id="_316863488" class="fil0" width="6.82666" height="6.82666"/>
   <rect id="_316862936" class="fil0" x="0.853331" y="0.853331" width="5.12" height="5.12"/>
  </g>
  <g id="_316862888">
   <g>
    <path id="_316863056" class="fil1" d="M2.57569 2.19787c0.0535315,-0.0438701 0.108,-0.0578898 0.155394,-0.0534803 0.0337087,0.00313386 0.0631614,0.0153386 0.0869173,0.0334252 0.0243858,0.0185787 0.0426811,0.0432756 0.0534724,0.0708071 0.014815,0.0378031 0.0154843,0.0810276 -0.0015,0.121488 -0.00633465,0.017874 -0.0122913,0.0353465 -0.0178661,0.0523937 -0.120866,0.369626 -0.133358,0.731256 -0.0607913,1.01906 0.0414055,0.164217 0.110217,0.302874 0.201618,0.402268 -0.0334016,-0.132134 -0.0590945,-0.268098 -0.0761417,-0.406728 -0.027937,-0.227193 -0.0327992,-0.463327 -0.0104764,-0.703508 0.0332559,-0.354429 0.121484,-0.684567 0.253091,-0.980661 0.137854,-0.31015 0.323016,-0.58276 0.54228,-0.806795l-3.93701e-006 -3.93701e-006c0.0268622,-0.0277087 0.0551535,-0.0511142 0.0829331,-0.0668937 0.0395394,-0.0224646 0.080563,-0.0313465 0.121421,-0.0217874l4.72441e-005 -0.000212598c0.0430984,0.00999606 0.0785197,0.0325276 0.101154,0.0744961 0.0181929,0.0337008 0.0238898,0.0746732 0.0121535,0.125276l-0.000417323 0.000830709c-0.0150906,0.0630472 -0.0280315,0.130366 -0.038874,0.201244 -0.0107992,0.0706142 -0.0187362,0.141126 -0.0239016,0.211039l-0.000417323 0.00208268c-0.0565709,0.605724 0.0555827,1.10463 0.211378,1.34378 0.0399685,0.0613465 0.0793858,0.10076 0.115197,0.11435 0.0193583,0.00734646 0.0403307,0.00263386 0.0616417,-0.0160157 0.0215118,-0.0188228 0.0424134,-0.0459685 0.0623386,-0.0820039 0.130799,0.233232 0.215913,0.485866 0.257299,0.742535 0.0578898,0.358992 0.0305354,0.724693 -0.0766339,1.05538 -0.106378,0.328268 -0.291547,0.622484 -0.550051,0.841276 -0.218783,0.185189 -0.491098,0.316437 -0.813732,0.368465l-0.000362205 0.000503937c-0.0184567,0.00310236 -0.0377402,0.00590157 -0.0576142,0.00847638 -0.0155315,0.00201969 -0.0352283,0.00419685 -0.0575394,0.00648425l0.000814961 0.00772047c-0.25398,-0.0944843 -0.475197,-0.245657 -0.658236,-0.436614 -0.188098,-0.19624 -0.335559,-0.434744 -0.436433,-0.696791 -0.10026,-0.260461 -0.154291,-0.544299 -0.156189,-0.832917 -0.00393701,-0.59835 0.215874,-1.21778 0.71178,-1.69313l0.00625197 -0.00583465z"/>
    <path id="_316863368" class="fil2" d="M2.45543 2.13888c0.0380748,-0.0312008 0.076815,-0.0411732 0.110524,-0.0380354 0.0239764,0.00222835 0.0449213,0.0109094 0.0618189,0.0237717 0.0173465,0.0132126 0.0303583,0.0307795 0.0380315,0.0503622 0.0105394,0.0268858 0.0110157,0.0576299 -0.00106693,0.0864094 -0.00450394,0.0127126 -0.00874016,0.0251378 -0.0127047,0.0372638 -0.0859685,0.262898 -0.0948543,0.52011 -0.0432402,0.724811 0.0294528,0.116799 0.0783937,0.215417 0.143402,0.286114 -0.0237559,-0.0939843 -0.0420315,-0.190689 -0.0541535,-0.289287 -0.0198701,-0.161594 -0.0233307,-0.329543 -0.00745276,-0.500374 0.0236535,-0.252087 0.0864055,-0.486898 0.180012,-0.697496 0.0712795,-0.160374 0.160346,-0.306626 0.263587,-0.435756 -0.00543701,0.0272638 -0.010378,0.0554646 -0.0148189,0.0845039 -0.0076811,0.0502244 -0.0133268,0.100378 -0.017,0.150102l-0.000299213 0.00148031c-0.0402362,0.430827 0.0395354,0.785677 0.150346,0.955768 0.0284252,0.0436299 0.0564606,0.0716654 0.0819331,0.0813307 0.0137677,0.00522441 0.028685,0.00187402 0.0438425,-0.0113898 0.0152992,-0.0133898 0.0301654,-0.0326969 0.0443386,-0.0583268 0.0930315,0.165886 0.153567,0.345575 0.183004,0.52813 0.0411732,0.255335 0.0217205,0.515441 -0.0545039,0.750642 -0.0756614,0.23348 -0.207366,0.442744 -0.391228,0.598358 -0.122339,0.103559 -0.26822,0.183386 -0.436524,0.230776 -0.134661,-0.0660276 -0.254311,-0.155579 -0.357047,-0.262756 -0.133783,-0.139579 -0.238665,-0.309213 -0.310413,-0.495594 -0.071311,-0.185256 -0.10974,-0.387134 -0.111091,-0.592417 -0.00243307,-0.370283 0.115634,-0.751909 0.378669,-1.06752 -0.00217323,0.00637402 -0.00427953,0.0126772 -0.00631496,0.0188976 -0.0859685,0.262898 -0.0948504,0.52011 -0.0432402,0.724811 0.0294528,0.116799 0.0783937,0.215417 0.143402,0.286114 -0.0237559,-0.0939843 -0.0420315,-0.190689 -0.0541535,-0.289287 -0.0198701,-0.161594 -0.0233307,-0.329543 -0.00745276,-0.500374 0.0109843,-0.117067 0.0304094,-0.230409 0.0574291,-0.339331 0.0123858,-0.0126496 0.0250079,-0.0251772 0.0379173,-0.0375551l0.00444882 -0.00414961z"/>
   </g>
   <path id="_316862168" class="fil3" d="M4.13536 2.16187c0.000692913,-0.035622 0.00824016,-0.0697992 0.0226378,-0.098752 0.0170906,-0.034378 0.0429803,-0.0613031 0.0779252,-0.0770984 0.0343622,-0.0155315 0.0734409,-0.0186378 0.116465,-0.00535039 0.0341693,0.0105551 0.0713898,0.0324409 0.110555,0.0687362l-0.000102362 0.000110236c0.527315,0.46674 0.763823,1.09806 0.763823,1.71217 0,0.277059 -0.0485669,0.551484 -0.140626,0.806323 -0.0922559,0.25537 -0.228295,0.490492 -0.403024,0.68835 -0.327024,0.370307 -0.787925,0.610303 -1.34993,0.610303l0 -0.000417323c-0.0415906,0.00026378 -0.0826299,-0.000807087 -0.123106,-0.00315748 0.211768,-0.0771654 0.399295,-0.188346 0.561476,-0.325622 0.291079,-0.246366 0.499256,-0.576654 0.618476,-0.944559 0.118453,-0.365492 0.149,-0.767709 0.085626,-1.16072 -0.0956024,-0.592866 -0.400886,-0.747744 -0.340197,-1.27031z"/>
  </g>
 </g>
</svg>
