<?xml version="1.0" encoding="UTF-8"?>
<!DOCTYPE svg PUBLIC "-//W3C//DTD SVG 1.1//EN" "http://www.w3.org/Graphics/SVG/1.1/DTD/svg11.dtd">
<!-- Creator: CorelDRAW -->
<svg xmlns="http://www.w3.org/2000/svg" xml:space="preserve" width="6.82666in" height="6.82666in" style="shape-rendering:geometricPrecision; text-rendering:geometricPrecision; image-rendering:optimizeQuality; fill-rule:evenodd; clip-rule:evenodd"
viewBox="0 0 6.82666 6.82666"
 xmlns:xlink="http://www.w3.org/1999/xlink">
 <defs>
  <style type="text/css">
   <![CDATA[
    .fil0 {fill:none}
    .fil1 {fill:#F4511E}
   ]]>
  </style>
 </defs>
 <g id="Layer_x0020_1">
  <metadata id="CorelCorpID_0Corel-Layer"/>
  <g id="_238816872">
   <rect id="_238817544" class="fil0" width="6.82666" height="6.82666"/>
   <rect id="_238817496" class="fil0" x="0.853331" y="0.853331" width="5.12" height="5.12"/>
  </g>
  <path class="fil1" d="M3.41333 0.853331c0.680976,0 1.32867,0.268295 1.81019,0.749815 0.48152,0.48152 0.749815,1.12921 0.749815,1.81019 0,0.680976 -0.268295,1.32867 -0.749815,1.81019 -0.48152,0.48152 -1.12921,0.749815 -1.81019,0.749815 -0.680976,0 -1.32867,-0.268295 -1.81019,-0.749815 -0.48152,-0.48152 -0.749815,-1.12921 -0.749815,-1.81019 0,-0.680976 0.268295,-1.32867 0.749815,-1.81019 0.48152,-0.48152 1.12921,-0.749815 1.81019,-0.749815zm1.58257 1.47728l-2.6653 2.6653c0.31811,0.218154 0.694083,0.334638 1.08272,0.334638 0.510346,0 0.994819,-0.200661 1.35569,-0.561528 0.360866,-0.360866 0.561528,-0.845339 0.561528,-1.35569 0,-0.388642 -0.116484,-0.764614 -0.334638,-1.08272zm-3.12744 2.21844l2.68058 -2.68057c-0.328437,-0.242028 -0.724614,-0.37235 -1.13572,-0.37235 -0.510346,0 -0.994819,0.200661 -1.35569,0.561528 -0.360866,0.360866 -0.561528,0.845339 -0.561528,1.35569 0,0.411106 0.130327,0.807272 0.37235,1.13571z"/>
 </g>
</svg>
