<?xml version="1.0" encoding="UTF-8"?>
<!DOCTYPE svg PUBLIC "-//W3C//DTD SVG 1.1//EN" "http://www.w3.org/Graphics/SVG/1.1/DTD/svg11.dtd">
<!-- Creator: CorelDRAW -->
<svg xmlns="http://www.w3.org/2000/svg" xml:space="preserve" width="6.82666in" height="6.82666in" style="shape-rendering:geometricPrecision; text-rendering:geometricPrecision; image-rendering:optimizeQuality; fill-rule:evenodd; clip-rule:evenodd"
viewBox="0 0 6.82666 6.82666"
 xmlns:xlink="http://www.w3.org/1999/xlink">
 <defs>
  <style type="text/css">
   <![CDATA[
    .fil0 {fill:none}
    .fil2 {fill:#B0995D}
    .fil1 {fill:#FFD878}
    .fil4 {fill:#333333;fill-rule:nonzero}
    .fil3 {fill:#666666;fill-rule:nonzero}
   ]]>
  </style>
 </defs>
 <g id="Layer_x0020_1">
  <metadata id="CorelCorpID_0Corel-Layer"/>
  <g id="_238822128">
   <rect id="_238821696" class="fil0" width="6.82666" height="6.82666"/>
   <rect id="_238822008" class="fil0" x="0.853331" y="0.853331" width="5.12" height="5.12"/>
  </g>
  <g id="_238820640">
   <path id="_238820904" class="fil1" d="M5.14173 3.1092c-0.0408937,1.21796 -0.424165,2.86413 -1.73393,2.86413l-0.00446063 -0.000444882c-1.22201,-0.0586024 -1.66507,-1.69029 -1.71842,-2.86353l0.0240512 0.00368898c0.25474,0.0384409 0.512732,0.0620748 0.769327,0.0785315 0.311028,0.0199488 0.623,0.0286732 0.934531,0.0286732 0.311531,0 0.6235,-0.00872441 0.934531,-0.0286732 0.256591,-0.0164567 0.514587,-0.0400906 0.769327,-0.0785315l0.0250394 -0.00384252z"/>
   <path id="_238820808" class="fil2" d="M3.95284 3.70019l0.255012 0c0.044689,0 0.0852638,0.0202638 0.114634,0.0529094 0.0293622,0.0326457 0.0475945,0.077752 0.0475945,0.127421l0 0.119783c0,0.0496772 -0.0182362,0.0947835 -0.0475945,0.127429 -0.0293701,0.0326457 -0.0699488,0.0529134 -0.114634,0.0529134l-0.255012 0c-0.0446811,0 -0.0852598,-0.0202677 -0.11463,-0.0529134 -0.0293622,-0.0326417 -0.0475945,-0.077752 -0.0475945,-0.127429l0 -0.119783c0,-0.0496732 0.0182323,-0.0947756 0.0475945,-0.127421 0.0293701,-0.0326457 0.0699449,-0.0529094 0.11463,-0.0529094z"/>
   <path id="_238821144" class="fil2" d="M2.61881 3.70019l0.255012 0c0.0446811,0 0.0852598,0.0202638 0.11463,0.0529094 0.0293622,0.0326457 0.0475945,0.077752 0.0475945,0.127421l0 0.119783c0,0.0496772 -0.0182362,0.0947835 -0.0475945,0.127429 -0.0293701,0.0326457 -0.0699528,0.0529134 -0.11463,0.0529134l-0.255012 0c-0.044685,0 -0.0852638,-0.0202677 -0.114634,-0.0529134 -0.0293622,-0.0326417 -0.0475945,-0.077752 -0.0475945,-0.127429l0 -0.119783c0,-0.0496732 0.0182323,-0.0947756 0.0475945,-0.127421 0.0293661,-0.0326457 0.0699449,-0.0529094 0.114634,-0.0529094z"/>
   <g>
    <path id="_238820928" class="fil3" d="M4.84312 2.59403c0.0730079,0.00780709 0.142547,0.0161969 0.208244,0.0251102 0.471602,0.0640236 0.763299,0.17698 0.763299,0.323685 0,0.146705 -0.291693,0.259661 -0.763295,0.323685 -0.421236,0.057185 -1.00054,0.0925591 -1.63804,0.0925591 -0.637504,0 -1.2168,-0.035374 -1.63804,-0.0925591 -0.471602,-0.0640236 -0.763295,-0.17698 -0.763295,-0.323685 0,-0.146705 0.291697,-0.259661 0.763299,-0.323685 0.0968071,-0.0131417 0.201992,-0.025126 0.314287,-0.0358031l0.176504 -1.1517c0.0246024,-0.160543 0.0938661,-0.308606 0.199646,-0.414386 0.101197,-0.101193 0.234354,-0.163917 0.392937,-0.163917l1.21372 0c0.158579,0 0.291736,0.0627244 0.392933,0.163917 0.10578,0.105783 0.175043,0.253846 0.199646,0.414386l0.178142 1.16239z"/>
    <path id="_238821360" class="fil4" d="M4.84312 2.59403c-0.970732,0.217425 -1.88958,0.218094 -2.75353,-0.0106929l0.176504 -1.1517c0.0246024,-0.160543 0.0938661,-0.308606 0.199646,-0.414386 0.101197,-0.101193 0.234354,-0.163917 0.392937,-0.163917l1.21372 0c0.158579,0 0.291736,0.0627244 0.392933,0.163917 0.10578,0.105783 0.175043,0.253846 0.199646,0.414386l0.178142 1.16239z"/>
   </g>
  </g>
 </g>
</svg>
