<?xml version="1.0" encoding="UTF-8"?>
<!DOCTYPE svg PUBLIC "-//W3C//DTD SVG 1.1//EN" "http://www.w3.org/Graphics/SVG/1.1/DTD/svg11.dtd">
<!-- Creator: CorelDRAW -->
<svg xmlns="http://www.w3.org/2000/svg" xml:space="preserve" width="6.82666in" height="6.82666in" style="shape-rendering:geometricPrecision; text-rendering:geometricPrecision; image-rendering:optimizeQuality; fill-rule:evenodd; clip-rule:evenodd"
viewBox="0 0 6.82666 6.82666"
 xmlns:xlink="http://www.w3.org/1999/xlink">
 <defs>
  <style type="text/css">
   <![CDATA[
    .fil3 {fill:none}
    .fil1 {fill:#37474F;fill-rule:nonzero}
    .fil0 {fill:#546E7A;fill-rule:nonzero}
    .fil2 {fill:#90A4AE;fill-rule:nonzero}
    .fil4 {fill:#E53935;fill-rule:nonzero}
   ]]>
  </style>
 </defs>
 <g id="Layer_x0020_1">
  <metadata id="CorelCorpID_0Corel-Layer"/>
  <path class="fil0" d="M2.71669 1.45966c0.0186378,0.055689 0.0788976,0.0857205 0.134587,0.0670827 0.055689,-0.0186378 0.0857205,-0.0788976 0.0670827,-0.134587 -0.0451063,-0.13389 -0.12374,-0.212933 -0.227858,-0.250228 -0.0951299,-0.0340787 -0.206457,-0.0287047 -0.32887,0.00370866 -0.0568386,0.0149567 -0.0907913,0.0731614 -0.0758346,0.13 0.0149567,0.0568386 0.0731614,0.0907913 0.13,0.0758346 0.0820394,-0.0217244 0.151634,-0.027122 0.203035,-0.00870866 0.0424094,0.015189 0.0759646,0.0519094 0.0978583,0.116898z"/>
  <path class="fil0" d="M3.92539 1.39216c-0.0186378,0.055689 0.0113937,0.115949 0.0670827,0.134587 0.055689,0.0186378 0.115949,-0.0113937 0.134587,-0.0670827 0.0218937,-0.0649882 0.0554488,-0.101709 0.0978583,-0.116898 0.0514016,-0.0184134 0.120996,-0.0130157 0.203035,0.00870866 0.0568386,0.0149567 0.115043,-0.0189961 0.13,-0.0758346 0.0149567,-0.0568386 -0.0189961,-0.115043 -0.0758346,-0.13 -0.122413,-0.0324134 -0.23374,-0.0377874 -0.32887,-0.00370866 -0.104118,0.0372953 -0.182752,0.116339 -0.227858,0.250228z"/>
  <path class="fil1" d="M3.40235 0.987917c0.215634,0 0.41087,0.0874134 0.552193,0.22874 0.141323,0.141323 0.22874,0.336563 0.22874,0.552197 0,0.0963031 -0.0177402,0.189039 -0.0501575,0.275083 -0.00851969,0.0226142 -0.0180669,0.0447323 -0.0285787,0.0662953 -0.211835,-0.115776 -0.448772,-0.182169 -0.702197,-0.182169 -0.253425,0 -0.49037,0.0663976 -0.702201,0.182173 -0.0105118,-0.0215669 -0.0200591,-0.043685 -0.0285787,-0.0662992 -0.0324173,-0.0860433 -0.0501575,-0.17878 -0.0501575,-0.275083 0,-0.215634 0.0874173,-0.410874 0.22874,-0.552197 0.141323,-0.141323 0.336563,-0.22874 0.552197,-0.22874z"/>
  <path class="fil2" d="M2.24883 2.59545c0.0186378,0.055689 0.0788976,0.0857205 0.134587,0.0670827 0.055689,-0.0186378 0.0857205,-0.0788976 0.0670827,-0.134587 -0.0847126,-0.251449 -0.22965,-0.398906 -0.420378,-0.46722 -0.181744,-0.0651024 -0.399996,-0.0533661 -0.643264,0.0110512 -0.0568386,0.0149567 -0.0907913,0.0731614 -0.0758346,0.13 0.0149567,0.0568386 0.0731614,0.0907913 0.13,0.0758346 0.202894,-0.0537283 0.379409,-0.0654882 0.517429,-0.0160512 0.129024,0.0462126 0.228882,0.151343 0.290378,0.33389z"/>
  <g id="_238790016">
   <rect id="_238790544" class="fil3" width="6.82666" height="6.82666"/>
   <rect id="_238790136" class="fil3" x="0.853331" y="0.853331" width="5.12" height="5.12"/>
  </g>
  <path class="fil2" d="M4.3542 2.52794c-0.0186378,0.055689 0.0113937,0.115949 0.0670827,0.134587 0.055689,0.0186378 0.115949,-0.0113937 0.134587,-0.0670827 0.0614961,-0.182547 0.161354,-0.287677 0.290378,-0.33389 0.13802,-0.049437 0.314535,-0.0376772 0.517429,0.0160512 0.0568386,0.0149567 0.115043,-0.0189961 0.13,-0.0758346 0.0149567,-0.0568386 -0.0189961,-0.115043 -0.0758346,-0.13 -0.243268,-0.0644173 -0.46152,-0.0761535 -0.643264,-0.0110512 -0.190728,0.068315 -0.335665,0.215772 -0.420378,0.46722z"/>
  <path class="fil2" d="M2.16177 5.22097c0.056378,0.0165669 0.115516,-0.0157047 0.132083,-0.0720827 0.0165669,-0.056378 -0.0157047,-0.115516 -0.0720827,-0.132083 -0.253791,-0.0754803 -0.457614,-0.0418937 -0.623402,0.0746654 -0.158354,0.111339 -0.274634,0.296453 -0.362055,0.532142 -0.0204764,0.0552283 0.00768898,0.116606 0.0629173,0.137083 0.0552283,0.0204764 0.116606,-0.00768898 0.137083,-0.0629173 0.0730866,-0.197043 0.165063,-0.348126 0.284559,-0.432142 0.112063,-0.0787874 0.255724,-0.0997402 0.440898,-0.0446654z"/>
  <path class="fil2" d="M4.65897 5.0168c-0.056378,0.0165669 -0.0886496,0.0757047 -0.0720827,0.132083 0.0165669,0.056378 0.0757047,0.0886496 0.132083,0.0720827 0.185169,-0.0550709 0.328831,-0.034122 0.440894,0.0446654 0.1195,0.0840197 0.211476,0.235098 0.284563,0.432142 0.0204764,0.0552283 0.0818543,0.0833937 0.137083,0.0629173 0.0552283,-0.0204764 0.0833937,-0.0818543 0.0629173,-0.137083 -0.0874213,-0.235689 -0.203705,-0.420803 -0.362059,-0.532142 -0.165787,-0.116559 -0.36961,-0.150146 -0.623398,-0.0746654z"/>
  <path class="fil2" d="M1.92325 3.27392c0.055689,0.0190984 0.116319,-0.010563 0.135417,-0.066252 0.0190984,-0.055689 -0.010563,-0.116319 -0.066252,-0.135417 -0.200122,-0.0689921 -0.395024,-0.130858 -0.569,-0.117476 -0.196917,0.0151535 -0.354193,0.117047 -0.439669,0.384169 -0.0179488,0.0559173 0.0128346,0.115803 0.068752,0.133752 0.0559173,0.0179488 0.115803,-0.0128346 0.133752,-0.068752 0.0529921,-0.165606 0.142795,-0.228185 0.253,-0.236665 0.133142,-0.0102402 0.305437,0.0450827 0.484,0.106642z"/>
  <path class="fil2" d="M4.77135 3.07225c-0.055689,0.0190984 -0.0853504,0.0797283 -0.066252,0.135417 0.0190984,0.055689 0.0797283,0.0853504 0.135417,0.066252 0.178563,-0.0615591 0.350854,-0.116882 0.483996,-0.106642 0.110205,0.00848031 0.200008,0.0710591 0.253,0.236665 0.0179488,0.0559173 0.0778346,0.0867008 0.133752,0.068752 0.0559173,-0.0179488 0.0867008,-0.0778346 0.068752,-0.133752 -0.0854764,-0.267122 -0.242752,-0.369016 -0.439669,-0.384169 -0.173976,-0.0133819 -0.368874,0.0484843 -0.568996,0.117476z"/>
  <path class="fil2" d="M1.87839 4.42822c0.055689,0.0190984 0.116319,-0.010563 0.135417,-0.066252 0.0190984,-0.055689 -0.010563,-0.116319 -0.066252,-0.135417 -0.20124,-0.069378 -0.385409,-0.127469 -0.549902,-0.109378 -0.184984,0.0203386 -0.329122,0.126472 -0.413906,0.391425 -0.0179488,0.0559173 0.0128346,0.115803 0.068752,0.133752 0.0559173,0.0179488 0.115803,-0.0128346 0.133752,-0.068752 0.053685,-0.167772 0.134201,-0.233795 0.233906,-0.244756 0.120189,-0.0132205 0.280787,0.0382047 0.458232,0.099378z"/>
  <path class="fil2" d="M4.8791 4.22655c-0.055689,0.0190984 -0.0853504,0.0797283 -0.066252,0.135417 0.0190984,0.055689 0.0797283,0.0853504 0.135417,0.066252 0.177445,-0.0611732 0.338043,-0.112598 0.458232,-0.099378 0.0997047,0.0109606 0.18022,0.0769843 0.233906,0.244756 0.0179488,0.0559173 0.0778346,0.0867008 0.133752,0.068752 0.0559173,-0.0179488 0.0867008,-0.0778346 0.068752,-0.133752 -0.0847835,-0.264953 -0.228921,-0.371087 -0.413906,-0.391425 -0.164492,-0.0180906 -0.348661,0.04 -0.549902,0.109378z"/>
  <path class="fil4" d="M3.40235 1.90014c0.454272,0 0.863902,0.231626 1.15894,0.606098 0.289323,0.36722 0.468276,0.873071 0.468276,1.4305 0,0.557429 -0.178953,1.06328 -0.468276,1.4305 -0.295039,0.374472 -0.704669,0.606098 -1.15894,0.606098 -0.454272,0 -0.863902,-0.231626 -1.15894,-0.606098 -0.289323,-0.367217 -0.468276,-0.873067 -0.468276,-1.4305 0,-0.557429 0.178953,-1.06328 0.468276,-1.4305 0.295039,-0.374472 0.704669,-0.606098 1.15894,-0.606098z"/>
 </g>
</svg>
