<?xml version="1.0" encoding="UTF-8"?>
<!DOCTYPE svg PUBLIC "-//W3C//DTD SVG 1.1//EN" "http://www.w3.org/Graphics/SVG/1.1/DTD/svg11.dtd">
<!-- Creator: CorelDRAW -->
<svg xmlns="http://www.w3.org/2000/svg" xml:space="preserve" width="6.82666in" height="6.82666in" style="shape-rendering:geometricPrecision; text-rendering:geometricPrecision; image-rendering:optimizeQuality; fill-rule:evenodd; clip-rule:evenodd"
viewBox="0 0 6.82666 6.82666"
 xmlns:xlink="http://www.w3.org/1999/xlink">
 <defs>
  <style type="text/css">
   <![CDATA[
    .fil0 {fill:none}
    .fil3 {fill:#90A4AE}
    .fil1 {fill:#29B6F6;fill-rule:nonzero}
    .fil5 {fill:#37474F;fill-rule:nonzero}
    .fil2 {fill:#3949AB;fill-rule:nonzero}
    .fil4 {fill:#546E7A;fill-rule:nonzero}
   ]]>
  </style>
 </defs>
 <g id="Layer_x0020_1">
  <metadata id="CorelCorpID_0Corel-Layer"/>
  <g id="_238795632">
   <rect id="_238795392" class="fil0" width="6.82666" height="6.82666"/>
   <rect id="_238796088" class="fil0" x="0.853331" y="0.853331" width="5.12" height="5.12"/>
  </g>
  <polygon class="fil1" points="3.61543,2.21775 4.32388,2.21775 4.43055,2.21775 4.43055,2.32442 4.43055,3.03287 4.43055,3.13954 4.32388,3.13954 3.61543,3.13954 3.50876,3.13954 3.50876,3.03287 3.50876,2.32442 3.50876,2.21775 "/>
  <polygon class="fil1" points="4.98563,2.21775 5.69407,2.21775 5.80074,2.21775 5.80074,2.32442 5.80074,3.03287 5.80074,3.13954 5.69407,3.13954 4.98563,3.13954 4.87896,3.13954 4.87896,3.03287 4.87896,2.32442 4.87896,2.21775 "/>
  <path class="fil2" d="M4.98563 3.63465l0.708449 0 0.106669 0 0 0.106669 0 0.708449 0 0.106669 -0.106669 0 -0.708449 0 -0.106669 0 0 -0.106669 0 -0.708449 0 -0.106669 0.106669 0zm-2.72805 0l0.708449 0 0.106669 0 0 0.106669 0 0.708449 0 0.106669 -0.106669 0 -0.708449 0 -0.106669 0 0 -0.106669 0 -0.708449 0 -0.106669 0.106669 0zm1.35785 0l0.708449 0 0.106669 0 0 0.106669 0 0.708449 0 0.106669 -0.106669 0 -0.708449 0 -0.106669 0 0 -0.106669 0 -0.708449 0 -0.106669 0.106669 0z"/>
  <path class="fil1" d="M4.98563 5.05154l0.708449 0 0.106669 0 0 0.106669 0 0.708449 0 0.106669 -0.106669 0 -0.708449 0 -0.106669 0 0 -0.106669 0 -0.708449 0 -0.106669 0.106669 0zm-2.72805 0l0.708449 0 0.106669 0 0 0.106669 0 0.708449 0 0.106669 -0.106669 0 -0.708449 0 -0.106669 0 0 -0.106669 0 -0.708449 0 -0.106669 0.106669 0zm1.35785 0l0.708449 0 0.106669 0 0 0.106669 0 0.708449 0 0.106669 -0.106669 0 -0.708449 0 -0.106669 0 0 -0.106669 0 -0.708449 0 -0.106669 0.106669 0z"/>
  <g id="_238795200">
   <path id="_238795080" class="fil3" d="M1.51217 1.7673l0 -0.475843c0,-0.116461 0.0463228,-0.227224 0.12861,-0.309516 0.0822913,-0.0822874 0.193055,-0.12861 0.309516,-0.12861l0.398299 0c0.116461,0 0.227228,0.0463268 0.309516,0.128614 0.0822835,0.0822874 0.12861,0.193055 0.12861,0.309512l0 0.475843 -0.212425 0 0 -0.475843c0,-0.0600394 -0.0239843,-0.116909 -0.0663858,-0.159311 -0.0424016,-0.0424055 -0.0992717,-0.0663898 -0.159315,-0.0663898l-0.398299 0c-0.0600433,0 -0.116913,0.0239843 -0.159315,0.0663858 -0.0424016,0.0424016 -0.0663858,0.0992756 -0.0663858,0.159315l0 0.475843 -0.212425 0z"/>
   <path id="_238794624" class="fil4" d="M1.33625 1.68764l1.62639 0c0.0281575,0 0.0538661,0.0115984 0.0726024,0.0302874l0.000106299 -0.000102362c0.018622,0.018622 0.0301811,0.0443583 0.0301811,0.0727087l0 1.49362c0,0.0283504 -0.0115591,0.0540827 -0.0301811,0.0727087 -0.018626,0.018626 -0.0443583,0.030185 -0.0727087,0.030185l-1.62639 0c-0.0283504,0 -0.0540827,-0.0115591 -0.0727087,-0.030185l0.000106299 -0.000106299c-0.0186929,-0.0187362 -0.0302913,-0.0444449 -0.0302913,-0.0726024l0 -1.49362c0,-0.0281063 0.0115591,-0.0537677 0.030189,-0.0725l-3.93701e-006 -3.93701e-006 0.000106299 -0.000102362 0.000102362 -0.000102362 0 0c0.0187323,-0.0186299 0.0443937,-0.030185 0.0725,-0.030185z"/>
   <path id="_238794960" class="fil5" d="M2.09633 2.56202l0 0.260772c0,0.0293307 0.0237756,0.0531063 0.0531063,0.0531063 0.0293307,0 0.0531102,-0.0237756 0.0531102,-0.0531063l0 -0.260772c0.0245079,-0.00826772 0.0464606,-0.0220945 0.0643465,-0.0399843 0.030063,-0.0300591 0.0486575,-0.0715906 0.0486575,-0.117457 0,-0.0458622 -0.0185945,-0.0873937 -0.0486575,-0.117457 -0.0300591,-0.0300591 -0.0715906,-0.0486535 -0.117457,-0.0486535 -0.0458661,0 -0.0873976,0.0185945 -0.117457,0.0486535 -0.0300591,0.030063 -0.0486575,0.0715945 -0.0486575,0.117457 0,0.0458661 0.0185984,0.0873976 0.0486575,0.117457 0.0178898,0.0178898 0.0398386,0.0317165 0.0643504,0.0399843z"/>
  </g>
 </g>
</svg>
