<svg xmlns="http://www.w3.org/2000/svg" viewBox="0 0 48 48"><title>booking apps</title><g id="booking_apps" data-name="booking apps"><path d="M9,44H23a1,1,0,0,0,0-2H9A1,1,0,0,0,9,44Z"/><path d="M43,13H30V5a5,5,0,0,0-5-5H7A5,5,0,0,0,2,5V43a5,5,0,0,0,5,5H25a5,5,0,0,0,5-5V35H43a3,3,0,0,0,3-3V26a1,1,0,0,0-1-1,1,1,0,0,1,0-2,1,1,0,0,0,1-1V16A3,3,0,0,0,43,13Zm1,3v1H23V15H43A1,1,0,0,1,44,16ZM10,17V16a1,1,0,0,1,1-1H21v2ZM22,2V3a1,1,0,0,1-1,1H11a1,1,0,0,1-1-1V2Zm6,41a3,3,0,0,1-3,3H7a3,3,0,0,1-3-3V5A3,3,0,0,1,7,2H8V3a3,3,0,0,0,3,3H21a3,3,0,0,0,3-3V2h1a3,3,0,0,1,3,3v8H11a3,3,0,0,0-3,3V32a3,3,0,0,0,3,3H28ZM44,26.83V32a1,1,0,0,1-1,1H23V31a1,1,0,0,0-2,0v2H11a1,1,0,0,1-1-1V19H21v2a1,1,0,0,0,2,0V19H44v2.17A3,3,0,0,0,44,26.83Z"/><path d="M21,25v2a1,1,0,0,0,2,0V25A1,1,0,0,0,21,25Z"/><path d="M17,21H13a1,1,0,0,0,0,2h4A1,1,0,0,0,17,21Z"/><path d="M17,25H13a1,1,0,0,0,0,2h4A1,1,0,0,0,17,25Z"/><path d="M17,29H13a1,1,0,0,0,0,2h4A1,1,0,0,0,17,29Z"/><path d="M37.22,24.29l-.69.69-3.28-.17.65-2.57A1,1,0,0,0,32,21.76l-.74,2.95a7.36,7.36,0,0,0-2.63.35c-.92.33-1.55,2.37,2.63,2.23L32,30.24a1,1,0,0,0,1.94-.48l-.65-2.57L36.53,27c.63.63.86,1,1.4,1a1,1,0,0,0,.7-1.71L38.34,26l.29-.29A1,1,0,0,0,37.22,24.29Z"/></g></svg>