<svg xmlns="http://www.w3.org/2000/svg" viewBox="0 0 48 48"><title>cocktail (coconut)</title><g id="cocktail_coconut_" data-name="cocktail (coconut)"><path d="M42.89,24.55C37.6,14,37.87,14,37,14H34.22l1.6-8H42a1,1,0,0,0,0-2H35a1,1,0,0,0-1,.8L32.18,14H15.75L14.23,8.66C20.34,6.74,20.59,6.87,20.68,6a.88.88,0,0,0-.05-.4A8,8,0,0,0,5,8c0,1.42.27,3.48,1.62,3.05l5.7-1.79L13.67,14c-2.41,0-3.18-.22-3.56.55-2.93,5.85-5.07,10.16-5,10C5,24.88,5,24.69,5,29a19,19,0,0,0,38,0C43,24.75,43,24.85,42.89,24.55ZM18.35,5.27,7.05,8.82C6.15,2.09,15.34-.67,18.35,5.27ZM11.62,16H36.38l4,8c-4.4,0-3.71.25-6.74-2.27a5.68,5.68,0,0,0-7.28,0,3.68,3.68,0,0,1-4.72,0,5.68,5.68,0,0,0-7.28,0C11.32,24.26,12,24,7.62,24ZM24,46A17,17,0,0,1,7,29V26c5.68,0,5.22.12,8.64-2.73a3.68,3.68,0,0,1,4.72,0,5.68,5.68,0,0,0,7.28,0,3.68,3.68,0,0,1,4.72,0C36.06,26.35,35.77,26,41,26v3A17,17,0,0,1,24,46Z"/></g></svg>