<svg xmlns="http://www.w3.org/2000/svg" viewBox="0 0 48 48"><title>GPS</title><g id="GPS"><path d="M45.14,10.76a3,3,0,0,0-3-2.76H21.87C22.7,4.28,19.54,0,15,0S7.3,4.26,8.13,8H5.85a3,3,0,0,0-3,2.76C-1,60,.57,39.71.17,44.76A3.07,3.07,0,0,0,1,47c1.29,1.39-1.69,1,43.88,1a3,3,0,0,0,3-3.24C47.12,35.75,45.84,19.55,45.14,10.76Zm-2,.16L44,22H28.52l5.14-12h8.49A1,1,0,0,1,43.15,10.92ZM31.48,10C25.73,23.42,26,22.59,26,23.08a1,1,0,0,0,.59.84c.29.13-.83.08,17.57.08l.32,4H27a1,1,0,0,0-1,1v3.58C25,30.66,24.8,30,24,30s-.93.61-2,2.57V29a1,1,0,0,0-1-1H3.5l.32-4C26.53,24,19.66,24,21,24a1,1,0,0,0,.92-.61c.59-1.31-2.09,4.88,5.74-13.39Zm-7,28.11c-.58-.29-.92,0-4.05,1.57L24,33.09l3.6,6.59ZM15,2a5,5,0,0,1,5,5c0,1.91-2.82,5.88-5,8.47C12.82,12.88,10,8.91,10,7A5,5,0,0,1,15,2ZM5.85,10h3a38.77,38.77,0,0,0,5.41,7.67,1,1,0,0,0,1.48,0A38.77,38.77,0,0,0,21.15,10h4.33L20.34,22H4l.87-11.08A1,1,0,0,1,5.85,10ZM2.43,45.68c-.42-.46-.37.55.92-15.68H20v6.25l-2.88,5.27a1,1,0,0,0,1.33,1.37L20,42.12V46C1.75,46,2.85,46.14,2.43,45.68ZM22,46V41.12l2-1,2,1V46Zm23.57-.32c-.43.46.76.32-17.57.32V42.12c1.26.63,2,1.27,2.72.57s.3-.9-2.72-6.44V30H44.65C45.93,46.19,46,45.22,45.57,45.68Z"/><path d="M18,7a3,3,0,1,0-3,3A3,3,0,0,0,18,7ZM14,7a1,1,0,0,1,2,0A1,1,0,0,1,14,7Z"/></g></svg>