<?xml version="1.0" encoding="iso-8859-1"?>
<!-- Uploaded to: SVG Repo, www.svgrepo.com, Generator: SVG Repo Mixer Tools -->
<!DOCTYPE svg PUBLIC "-//W3C//DTD SVG 1.1//EN" "http://www.w3.org/Graphics/SVG/1.1/DTD/svg11.dtd">
<svg fill="#000000" version="1.1" id="Capa_1" xmlns="http://www.w3.org/2000/svg" xmlns:xlink="http://www.w3.org/1999/xlink" 
	 width="800px" height="800px" viewBox="0 0 505.551 505.552"
	 xml:space="preserve">
<g>
	<path d="M504.499,252.905c-1.838-6.021-6.842-10.364-12.16-13.307c-9.493-5.251-23.888-14.298-35.141-9.837
		c-10.684,4.235-14.104,18.694-16.652,29.143c-0.333-0.081-0.668-0.155-1.002-0.235c-15.646-3.797-31.356-7.114-47.146-10.278
		c-26.992-5.408-53.677-11.364-80.271-18.242c-0.231-0.215-0.495-0.416-0.795-0.6c-11.192-6.837-20.934-15.602-31.02-23.918
		c-10.312-8.502-21.078-15.262-32.854-21.514c-21.146-11.229-43.586-24.733-67.951-26.926c-0.613-0.191-1.266-0.254-1.92-0.151
		c-0.25-0.017-0.5-0.027-0.751-0.042c-1.837,1.533-3.729,2.998-5.419,4.697c0.005,0.061,0.006,0.119,0.014,0.18
		c-12.516,12.08-24.779,24.701-39.311,34.342c-0.09,0.06-0.17,0.124-0.254,0.188c-8.475-1.174-16.945-2.366-25.408-3.61
		c-18.175-2.672-36.417-4.89-54.773-5.774c-16.111-0.777-32.586-4.128-48.488,0.076c-4.406,1.165-3.878,6.771-0.725,8.402
		c30.867,42.578,63.946,85.031,110.052,111.938c0.516,0.812,1.386,1.438,2.673,1.672c53.396,9.729,107.288,16.362,160.807,25.346
		c26.533,4.453,53.1,8.496,79.888,11.094c13.754,1.334,27.546,2.244,41.354,2.754c6.002,0.222,11.996,0.412,17.995,0.08
		c5.258-0.291,10.559-0.952,15.821-0.444c1.922,0.185,3.184-0.697,3.82-1.966c0.01-0.008,0.019-0.013,0.026-0.02
		c11.043-8.795,20.454-19.556,29.066-30.711c0.051,0.027,0.096,0.055,0.146,0.08c6.976,3.375,13.818,5.171,21.605,4.615
		c2.682-0.191,4.188-1.924,4.5-4.5c1.133-9.326,0.846-18.724,1.19-28.095c1.951-0.095,3.873-0.475,5.74-1.387
		c4.846-2.365,6.359-9.353,7.145-14.078C505.348,265.586,506.399,259.137,504.499,252.905z M442.274,268.551
		c-0.014,0.102-0.029,0.201-0.012,0.314c0.729,4.391,1.405,8.786,1.934,13.202c-1.37-0.36-2.742-0.717-4.115-1.072
		c-0.53-4.366-0.811-8.747-0.848-13.159C440.247,268.079,441.26,268.315,442.274,268.551z M437.274,267.366
		c-0.018,0.078-0.047,0.146-0.047,0.234c0.027,4.311,0.31,8.592,0.803,12.857c-1.359-0.357-2.717-0.722-4.064-1.106
		c-0.374-4.422-0.844-8.823-1.622-13.189C433.987,266.567,435.629,266.968,437.274,267.366z M430.229,265.655
		c0.82,4.329,1.303,8.697,1.683,13.084c-1.243-0.378-2.479-0.771-3.705-1.199c-1.185-4.373-2.13-8.807-3.367-13.164
		C426.637,264.79,428.434,265.219,430.229,265.655z M422.741,263.901c-0.027,0.141-0.027,0.295,0.021,0.465
		c1.19,4.088,2.088,8.25,3.153,12.369c-1.609-0.588-3.224-1.168-4.847-1.728c-0.505-3.907-0.866-7.83-1.2-11.758
		C420.828,263.463,421.784,263.685,422.741,263.901z M417.832,262.799c0.325,3.847,0.686,7.687,1.157,11.515
		c-1.083-0.363-2.164-0.734-3.252-1.087c-0.422-3.729-0.738-7.467-1.291-11.175C415.576,262.295,416.702,262.552,417.832,262.799z
		 M412.362,261.608c0.588,3.631,0.916,7.294,1.312,10.951c-1.298-0.41-2.597-0.815-3.898-1.211
		c-0.795-3.588-1.53-7.188-2.336-10.771C409.081,260.916,410.721,261.26,412.362,261.608z M405.286,260.135
		c0.808,3.515,1.533,7.046,2.299,10.568c-1.252-0.371-2.504-0.746-3.762-1.104c-0.927-3.39-1.729-6.806-2.404-10.255
		C402.708,259.604,403.997,259.872,405.286,260.135z M399.317,258.919c0.633,3.383,1.396,6.73,2.279,10.052
		c-0.726-0.201-1.445-0.414-2.172-0.611c-0.677-3.258-1.271-6.532-1.896-9.801C398.125,258.676,398.72,258.799,399.317,258.919z
		 M395.417,258.133c0.623,3.214,1.203,6.435,1.851,9.64c-1.521-0.403-3.043-0.8-4.57-1.187c-0.703-3.146-1.389-6.299-2.178-9.426
		C392.151,257.485,393.784,257.81,395.417,258.133z M388.353,256.731c0.806,3.088,1.484,6.205,2.175,9.317
		c-0.885-0.219-1.77-0.442-2.658-0.655c-0.788-3.027-1.419-6.095-2.043-9.164C386.668,256.397,387.51,256.563,388.353,256.731z
		 M382.313,255.53c0.463,0.092,0.926,0.184,1.389,0.275c0.619,3.032,1.228,6.064,1.969,9.062c-1.559-0.367-3.116-0.732-4.681-1.084
		c-0.826-2.997-1.64-5.995-2.349-9.02C379.866,255.019,381.085,255.284,382.313,255.53z M376.493,254.318
		c0.681,3.015,1.472,6.002,2.289,8.982c-1.317-0.29-2.635-0.586-3.955-0.864c-0.66-3.016-1.449-5.993-2.332-8.95
		C373.825,253.771,375.161,254.038,376.493,254.318z M370.247,253.001c0.912,2.972,1.728,5.963,2.418,8.986
		c-1.325-0.275-2.647-0.559-3.976-0.823c-0.944-2.945-1.634-5.973-2.331-9C367.653,252.446,368.951,252.721,370.247,253.001z
		 M364.198,251.692c0.711,3.031,1.394,6.062,2.279,9.026c-0.51-0.1-1.021-0.207-1.529-0.307c-1.025-3.037-1.896-6.125-2.864-9.182
		C362.788,251.387,363.493,251.537,364.198,251.692z M359.829,250.733c1,3.065,1.862,6.178,2.863,9.245
		c-1.334-0.253-2.666-0.503-4-0.747c-0.92-3.062-1.668-6.168-2.4-9.28C357.468,250.217,358.651,250.469,359.829,250.733z
		 M354.121,249.455c0.737,3.141,1.471,6.279,2.362,9.376c-1.234-0.223-2.469-0.444-3.703-0.66c-1.095-3.239-2.117-6.503-3.188-9.751
		C351.098,248.769,352.61,249.11,354.121,249.455z M347.297,247.886c1.104,3.291,2.144,6.604,3.239,9.898
		c-1.159-0.198-2.317-0.399-3.477-0.593c-1.051-3.34-1.935-6.732-3.019-10.061C345.127,247.386,346.213,247.633,347.297,247.886z
		 M341.761,246.594c1.152,3.373,2.058,6.826,3.1,10.235c-1.222-0.2-2.443-0.403-3.663-0.599c-0.846-3.406-1.473-6.865-2.229-10.294
		C339.899,246.159,340.831,246.375,341.761,246.594z M336.801,245.418c0.801,3.481,1.428,7.001,2.25,10.476
		c-1.224-0.193-2.445-0.39-3.665-0.578c-1.133-3.649-2.671-7.322-3.53-11.082C333.502,244.633,335.153,245.021,336.801,245.418z
		 M329.708,243.71c0.77,3.83,2.274,7.559,3.477,11.274c-1.674-0.253-3.349-0.503-5.021-0.741c-0.987-3.912-2.008-7.812-3.155-11.68
		C326.573,242.954,328.141,243.325,329.708,243.71z M322.737,241.998c1.203,3.953,2.271,7.943,3.287,11.949
		c-1.297-0.181-2.592-0.363-3.89-0.539c-1.19-4.076-2.247-8.176-3.083-12.33C320.28,241.386,321.508,241.69,322.737,241.998z
		 M316.929,240.542c0.814,4.238,1.847,8.42,3.038,12.572c-0.854-0.113-1.707-0.235-2.562-0.346
		c-0.831-4.399-2.157-8.664-3.385-12.961C314.991,240.053,315.959,240.295,316.929,240.542z M311.786,239.235
		c1.234,4.413,2.635,8.773,3.547,13.266c-1.65-0.211-3.303-0.42-4.955-0.623c-0.721-4.498-1.271-9.023-2.021-13.518
		C309.499,238.655,310.642,238.943,311.786,239.235z M306.264,237.821c0.002,0.016-0.004,0.029-0.001,0.045
		c0.801,4.571,1.349,9.18,2.062,13.764c-1.006-0.122-2.01-0.248-3.016-0.367c-0.679-4.675-1.232-9.352-1.465-14.066
		C304.651,237.407,305.458,237.612,306.264,237.821z M301.817,236.667c0.211,4.813,0.77,9.59,1.453,14.358
		c-1.328-0.154-2.656-0.315-3.984-0.465c-1.579-4.896-2.256-10.052-2.471-15.2C298.482,235.799,300.149,236.231,301.817,236.667z
		 M294.792,234.829c0.192,5.244,0.854,10.478,2.354,15.49c-0.89-0.099-1.779-0.205-2.67-0.302
		c-1.431-5.268-1.687-10.762-3.006-16.064C292.577,234.248,293.684,234.535,294.792,234.829z M292.36,249.783
		c-0.789-0.085-1.578-0.177-2.367-0.261c-1.976-5.324-2.395-11.123-3.127-16.785c0.326,0.086,0.652,0.168,0.979,0.256
		c0.474,0.126,0.945,0.249,1.42,0.375C290.782,238.759,291.011,244.378,292.36,249.783z M205.402,237.149
		c-1.374-2.783-2.896-5.498-4.386-8.221c-2.711-4.951-5.658-9.863-8.111-14.971c1.562,0.228,3.121,0.475,4.682,0.707
		c4.104,8.938,7.615,18.213,12.524,26.742c-1.163-0.156-2.326-0.307-3.489-0.467c0.049-0.103,0.092-0.21,0.105-0.34
		C206.842,239.501,205.856,238.069,205.402,237.149z M162.954,210.03c1.752,0.222,3.504,0.441,5.256,0.66
		c3.965,9.318,9.035,18.052,14.088,26.815c-1.221-0.171-2.441-0.346-3.662-0.515C172.547,228.513,167.833,219.233,162.954,210.03z
		 M175.93,236.625c-1.852-0.254-3.701-0.511-5.554-0.756c-6.413-8.217-10.61-17.871-15.776-26.908
		c1.973,0.26,3.946,0.508,5.92,0.759C165.391,218.854,170.024,228.11,175.93,236.625z M170.487,210.978
		c1.325,0.166,2.648,0.339,3.975,0.507c6.085,8.938,12.036,17.99,17.406,27.38c-2.354-0.336-4.707-0.672-7.061-1.005
		C179.737,229.048,174.546,220.303,170.487,210.978z M177.102,211.821c1.789,0.229,3.576,0.465,5.365,0.7
		c4.924,9.015,9.47,18.237,14.676,27.093c-0.922-0.131-1.844-0.261-2.767-0.393C189.075,229.813,183.165,220.756,177.102,211.821z
		 M184.926,212.843c1.875,0.251,3.748,0.515,5.621,0.78c2.112,4.579,4.707,8.969,7.129,13.377c1.516,2.759,3.032,5.518,4.514,8.295
		c0.633,1.186,2.685,3.893,2.537,5.305c-0.003,0.031,0.01,0.053,0.009,0.082c-1.681-0.232-3.361-0.469-5.042-0.705
		C194.402,231.14,189.828,221.902,184.926,212.843z M199.934,215.021c1.657,0.252,3.311,0.521,4.967,0.781
		c3.334,8.824,6.027,17.926,10.389,26.285c-0.886-0.115-1.771-0.225-2.656-0.342C207.559,233.28,203.991,224.008,199.934,215.021z
		 M207.163,216.159c1.716,0.272,3.428,0.562,5.141,0.845c3.312,8.679,5.881,18.242,10.918,26.073
		c-1.832-0.219-3.663-0.444-5.493-0.677C213.185,234.11,210.458,225.013,207.163,216.159z M214.569,217.376
		c1.541,0.258,3.078,0.529,4.616,0.793c2.212,6.965,4.69,13.826,7.394,20.615c0.301,0.755,0.779,3.025,1.563,4.85
		c-0.781-0.088-1.563-0.167-2.345-0.258C220.399,235.801,217.819,226.147,214.569,217.376z M221.44,218.557
		c1.369,0.239,2.736,0.489,4.104,0.734c3.02,8.364,5.398,16.997,9.186,25.043c-1.459-0.148-2.918-0.3-4.377-0.458
		C229.483,241.61,223.594,224.84,221.44,218.557z M227.807,219.696c1.512,0.273,3.02,0.56,4.53,0.842
		c3.013,7.941,4.581,16.471,7.812,24.311c-1.034-0.092-2.068-0.188-3.1-0.287C233.138,236.621,230.756,228.036,227.807,219.696z
		 M234.594,220.958c1.496,0.283,2.99,0.577,4.485,0.868c1.697,8.03,3.726,16.117,7.179,23.558c-1.287-0.11-2.574-0.224-3.861-0.333
		C239.02,237.357,237.421,228.897,234.594,220.958z M241.209,222.237c1.052,0.207,2.101,0.434,3.151,0.646
		c2.329,7.861,4.805,15.791,8.58,23.082c-1.46-0.128-2.919-0.258-4.378-0.385C244.985,238.26,242.915,230.224,241.209,222.237z
		 M246.581,223.338c1.531,0.312,3.059,0.646,4.588,0.969c1.087,7.656,3.658,15.072,6.902,22.113
		c-0.916-0.081-1.831-0.166-2.746-0.246C251.429,239.004,248.905,231.155,246.581,223.338z M253.25,224.748
		c1.457,0.31,2.909,0.636,4.364,0.953c1.709,6.746,2.404,14.53,5.086,21.141c-0.775-0.07-1.553-0.145-2.328-0.213
		C257.082,239.683,254.414,232.332,253.25,224.748z M259.786,226.175c1.51,0.335,3.019,0.681,4.526,1.024
		c0.556,4.148,1.987,8.188,3.281,12.146c0.781,2.391,1.597,4.77,2.387,7.158c0.095,0.287,0.245,0.651,0.409,1.05
		c-1.81-0.17-3.619-0.342-5.431-0.507C262.095,240.662,261.37,232.928,259.786,226.175z M266.384,227.669
		c1.697,0.393,3.392,0.812,5.087,1.215c1.169,5.941,1.598,13.689,4.688,19.223c-1.129-0.109-2.26-0.223-3.389-0.33
		c-0.606-2.029-1.633-4.121-2.166-5.711C269.042,237.414,267.12,232.569,266.384,227.669z M273.588,229.39
		c0.993,0.24,1.986,0.491,2.98,0.734c1.239,6.273,2.173,12.852,5.048,18.523c-0.982-0.1-1.967-0.201-2.951-0.297
		C275.165,243.396,274.637,235.438,273.588,229.39z M278.7,230.649c2.035,0.505,4.068,1.021,6.101,1.549
		c0.812,5.735,1.211,11.614,3.022,17.094c-1.264-0.132-2.527-0.274-3.791-0.402C280.906,243.417,279.889,236.902,278.7,230.649z
		 M261.334,202.719c5.187,3.487,10.187,7.25,15.127,11.352c3.914,3.25,7.799,6.542,11.743,9.754
		c-12.56-3.252-25.159-6.189-37.817-8.838c3.443-3.955,7.052-7.768,10.521-11.704C261.071,203.099,261.208,202.911,261.334,202.719z
		 M232.909,187.283c0.211-0.177,0.391-0.362,0.554-0.55c4.093,2.234,8.136,4.46,12.114,6.562c2.776,1.468,5.477,2.988,8.117,4.57
		c-4.463,5.008-9.104,9.854-13.299,15.095c-9.239-1.818-18.514-3.49-27.833-5.017C219.374,201.08,225.503,193.517,232.909,187.283z
		 M206.228,173.25c6.415,2.617,12.693,5.73,18.851,8.977c-8.418,7.446-15.311,16.48-23.722,23.953
		c-7.79-1.182-15.589-2.31-23.391-3.412c8.292-9.591,17.946-17.893,26.942-26.816C205.757,175.108,206.157,174.17,206.228,173.25z
		 M179.883,166.235c6.125,0.617,12.137,2.025,18.041,3.954c-10.207,10.062-21.199,19.382-30.046,30.729
		c-0.102,0.131-0.193,0.263-0.278,0.396c-7.61-1.055-15.223-2.097-22.834-3.139C157.319,188.551,168.458,177.15,179.883,166.235z
		 M152.094,208.628c5.256,8.922,9.416,18.519,15.52,26.88c-2.029-0.263-4.06-0.52-6.091-0.766
		c-6.054-8.821-11.161-18.249-17.058-27.171C147.006,207.938,149.549,208.286,152.094,208.628z M141.795,207.177
		c6.004,8.89,11.124,18.343,17.103,27.249c-1.58-0.186-3.16-0.367-4.741-0.541c-7.714-8.424-13.188-18.738-20.089-27.858
		C136.641,206.417,139.217,206.797,141.795,207.177z M131.224,205.594c7.12,8.951,12.546,19.305,19.985,27.982
		c-1.169-0.122-2.336-0.248-3.506-0.361c-8.811-9.174-17.715-18.369-24.855-28.9C125.64,204.743,128.432,205.17,131.224,205.594z
		 M120.176,203.905c6.945,10.619,15.699,19.875,24.48,29.023c-1.559-0.137-3.117-0.264-4.68-0.383
		c-9.736-8.984-18.571-18.923-26.355-29.644C115.807,203.233,117.991,203.571,120.176,203.905z M110.868,202.491
		c7.657,10.747,16.33,20.754,25.917,29.818c-1.901-0.13-3.804-0.258-5.708-0.365c-9.211-9.676-18.193-19.568-26.107-30.335
		C106.936,201.897,108.901,202.196,110.868,202.491z M96.502,200.392c1.909,0.264,3.815,0.549,5.724,0.823
		c7.83,10.864,16.742,20.847,25.941,30.565c-1.906-0.096-3.812-0.18-5.721-0.254c-8.912-10.332-18.006-20.512-26.484-31.203
		C96.141,200.348,96.321,200.366,96.502,200.392z M93.171,199.969c8.475,10.809,17.588,21.082,26.57,31.47
		c-1.586-0.054-3.174-0.112-4.762-0.153c-9.193-10.634-18.752-20.957-27.42-32.029C89.428,199.476,91.299,199.728,93.171,199.969z
		 M84.815,198.96c8.639,11.195,18.212,21.602,27.482,32.268c-2.402-0.051-4.807-0.094-7.209-0.119
		C96.529,219.984,87.1,209.552,78.713,198.3C80.747,198.503,82.781,198.733,84.815,198.96z M76.064,198.034
		c8.358,11.391,17.833,21.9,26.5,33.055c-0.96-0.008-1.921-0.019-2.881-0.022c-9.905-11.196-19.811-22.395-29.716-33.591
		C72.001,197.651,74.033,197.838,76.064,198.034z M67.096,197.241c9.973,11.273,19.945,22.547,29.918,33.82
		c-1.539-0.002-3.08-0.005-4.617,0c-0.139,0.001-0.279,0.004-0.42,0.006c-10.021-11.58-20.676-22.595-30.566-34.287
		C63.307,196.923,65.202,197.085,67.096,197.241z M58.63,196.575c9.875,11.832,20.596,22.914,30.729,34.521
		c-1.687,0.025-3.376,0.061-5.068,0.11c-10.371-10.562-19.843-22.151-27.607-34.775C57.333,196.478,57.98,196.528,58.63,196.575z
		 M54.242,196.263c7.659,12.697,17.056,24.388,27.359,35.039c-0.681,0.027-1.36,0.039-2.04,0.072
		c-10.911-10.636-20.503-22.586-28.816-35.352C51.911,196.101,53.077,196.183,54.242,196.263z M48.159,195.85
		c0.035,0.003,0.072,0.005,0.107,0.007c8.246,12.837,17.756,24.91,28.58,35.668c-0.994,0.059-1.988,0.113-2.982,0.188
		c-10.104-12.135-21.074-23.547-30.492-36.234C44.972,195.616,46.569,195.748,48.159,195.85z M40.725,195.24
		c9.407,12.911,20.453,24.474,30.718,36.691c-1.188,0.104-2.378,0.194-3.563,0.323c-9.607-12.821-20.895-24.286-30.25-37.3
		C38.664,195.051,39.694,195.146,40.725,195.24z M35.022,194.713c9.344,13.281,20.783,24.879,30.575,37.809
		c-0.706,0.087-1.412,0.168-2.116,0.266c-10.914-12.85-23.002-24.697-32.816-38.436C32.118,194.46,33.571,194.584,35.022,194.713z
		 M28.118,194.186c9.779,13.991,21.937,26.002,33.025,38.93c-1.391,0.216-2.778,0.448-4.16,0.708
		c-9.979-13.869-22.803-25.486-32.17-39.797C25.915,194.063,27.016,194.121,28.118,194.186z M45.416,236.623
		c-11.468-13.589-22.206-27.861-32.644-42.191c0.814-0.098,1.633-0.176,2.451-0.24c10.439,14.395,23.038,27.074,33.409,41.518
		C47.555,235.996,46.483,236.297,45.416,236.623z M17.573,194.043c1.611-0.075,3.229-0.083,4.848-0.063
		c9.292,14.598,22.25,26.318,32.414,40.268c-1.384,0.287-2.764,0.592-4.135,0.93C40.471,220.822,28.003,208.242,17.573,194.043z
		 M462.93,301.623c-1.492-1.058-3.148-1.87-4.938-2.486c-1.223-0.421-1.742,1.512-0.531,1.93c1.574,0.543,3.009,1.26,4.304,2.184
		c-1.185,1.636-2.373,3.256-3.562,4.844c-1.636-0.997-3.271-1.989-4.769-3.198c-0.992-0.804-2.417,0.604-1.414,1.414
		c1.568,1.269,3.291,2.299,5.002,3.343c-1.189,1.562-2.398,3.116-3.642,4.65c-2.011-1.096-4.047-2.144-6.147-3.063
		c-1.17-0.512-2.189,1.211-1.01,1.727c2.004,0.878,3.946,1.871,5.866,2.91c-1.23,1.492-2.479,2.976-3.754,4.438
		c-1.694-1.045-3.336-2.18-4.901-3.417c-1-0.79-2.426,0.614-1.414,1.414c1.604,1.268,3.27,2.441,4.994,3.526
		c-1.365,1.529-2.752,3.039-4.17,4.521c-0.972-0.869-2.007-1.676-2.755-2.758c-0.727-1.055-2.461-0.056-1.727,1.01
		c0.862,1.248,1.998,2.172,3.092,3.178c-1.138,1.16-2.287,2.312-3.459,3.434c-1.235-1.178-2.404-2.432-3.764-3.479
		c-1.021-0.787-2.016,0.951-1.01,1.727c1.21,0.935,2.271,2.031,3.364,3.097c-1.377,1.289-2.771,2.557-4.194,3.785
		c-1.101-2.174-2.447-4.216-3.804-6.248c-0.711-1.068-2.442-0.068-1.727,1.01c1.414,2.121,2.863,4.255,3.972,6.555
		c-0.458,0.383-0.904,0.781-1.368,1.158c-1.311-0.072-2.625-0.068-3.938-0.038c-1.508-2.616-2.482-5.542-3.939-8.185
		c-0.62-1.131-2.35-0.121-1.727,1.01c1.301,2.358,2.254,4.879,3.485,7.25c-1.434,0.072-2.866,0.167-4.297,0.27
		c-0.872-2.551-1.896-5.043-2.963-7.528c-0.506-1.184-2.229-0.162-1.727,1.01c0.943,2.201,1.84,4.412,2.625,6.663
		c-0.05,0.003-0.102,0.007-0.15,0.011c-1.386,0.092-2.77,0.146-4.15,0.187c-1.178-2.042-2.056-4.246-3.098-6.369
		c-0.565-1.158-2.292-0.146-1.727,1.01c0.879,1.792,1.641,3.643,2.564,5.403c-1.12,0.013-2.24,0.017-3.359,0.009
		c-0.822-2.379-1.422-4.842-2.377-7.185c-0.48-1.178-2.416-0.661-1.93,0.531c0.885,2.167,1.483,4.426,2.209,6.637
		c-1.302-0.021-2.604-0.053-3.906-0.088c-0.676-2.729-1.303-5.463-2.373-8.08c-0.482-1.177-2.417-0.661-1.93,0.531
		c0.993,2.43,1.604,4.959,2.229,7.49c-2.129-0.066-4.256-0.148-6.383-0.244c-0.607-1.201-1.115-2.447-1.416-3.777
		c-0.285-1.258-2.213-0.725-1.93,0.531c0.246,1.088,0.624,2.126,1.075,3.132c-1.388-0.066-2.774-0.134-4.164-0.209
		c-0.481-1.321-0.965-2.645-1.481-3.954c-0.469-1.185-2.402-0.669-1.93,0.531c0.434,1.094,0.836,2.199,1.238,3.303
		c-0.892-0.051-1.785-0.092-2.677-0.146c-0.703-1.898-1.389-3.805-2.133-5.688c-0.469-1.185-2.402-0.669-1.93,0.531
		c0.655,1.661,1.266,3.339,1.881,5.016c-1.562-0.103-3.121-0.204-4.683-0.315c-0.846-2.041-1.567-4.128-2.27-6.23
		c-0.406-1.217-2.338-0.694-1.93,0.531c0.621,1.863,1.271,3.711,1.989,5.53c-1.765-0.132-3.528-0.261-5.292-0.403
		c-1.184-2.684-2.429-5.334-3.87-7.896c-0.631-1.125-2.358-0.117-1.727,1.01c1.226,2.18,2.304,4.426,3.329,6.699
		c-1.163-0.099-2.329-0.187-3.491-0.287c-0.791-2.096-1.729-4.117-3.111-5.922c-0.771-1.011-2.511-0.017-1.727,1.01
		c1.119,1.461,1.932,3.057,2.613,4.721c-0.371-0.032-0.744-0.062-1.117-0.096c-0.723-0.066-1.443-0.146-2.166-0.217
		c-0.58-1.688-1.013-3.433-1.502-5.181c-0.348-1.239-2.277-0.713-1.929,0.531c0.417,1.49,0.801,2.978,1.259,4.433
		c-1.019-0.104-2.035-0.197-3.051-0.306c-0.871-2.348-1.65-4.727-2.279-7.158c-0.322-1.247-2.252-0.718-1.929,0.531
		c0.561,2.166,1.24,4.289,1.997,6.385c-1.189-0.13-2.38-0.256-3.568-0.391c-0.002-0.009,0.002-0.016,0-0.024
		c-0.541-2.533-1.459-4.967-2-7.5c-0.271-1.262-2.197-0.728-1.929,0.53c0.486,2.283,1.268,4.486,1.814,6.752
		c-1.188-0.138-2.381-0.265-3.569-0.407c-0.498-1.916-1.062-3.81-1.918-5.613c-0.552-1.166-2.275-0.15-1.728,1.01
		c0.66,1.396,1.127,2.856,1.529,4.342c-1.234-0.151-2.472-0.303-3.705-0.46c-0.861-2.208-1.587-4.482-2.496-6.652
		c-0.49-1.172-2.427-0.657-1.929,0.53c0.798,1.902,1.461,3.882,2.187,5.832c-1.104-0.143-2.207-0.28-3.311-0.428
		c-0.865-2.459-1.463-5.044-2.447-7.436c-0.484-1.177-2.42-0.66-1.929,0.53c0.878,2.131,1.466,4.398,2.181,6.607
		c-1.371-0.187-2.744-0.363-4.115-0.555c-0.969-2.49-1.938-4.974-3.237-7.322c-0.623-1.129-2.353-0.12-1.728,1.01
		c1.068,1.93,1.903,3.955,2.705,5.997c-0.967-0.137-1.934-0.265-2.898-0.403c-1.071-2.419-1.95-4.918-2.979-7.364
		c-0.491-1.171-2.428-0.656-1.929,0.53c0.904,2.156,1.698,4.353,2.595,6.502c-0.873-0.127-1.746-0.244-2.619-0.375
		c-0.809-1.243-1.182-2.702-1.547-4.157c-0.312-1.25-2.242-0.721-1.929,0.53c0.282,1.125,0.591,2.229,1.038,3.264
		c-1.777-0.269-3.556-0.536-5.332-0.811c-0.854-2.344-1.675-4.676-1.742-7.219c-0.033-1.287-2.033-1.29-2,0
		c0.063,2.42,0.738,4.648,1.515,6.871c-2.188-0.341-4.378-0.686-6.564-1.035c-0.941-2.832-1.752-5.701-2.484-8.602
		c-0.314-1.25-2.244-0.72-1.929,0.53c0.655,2.6,1.384,5.169,2.204,7.713c-1.896-0.306-3.789-0.608-5.683-0.92
		c-1.383-3.13-1.942-6.594-3.094-9.823c-0.43-1.205-2.362-0.687-1.929,0.53c1.04,2.922,1.63,6.016,2.71,8.91
		c-1.982-0.328-3.965-0.651-5.946-0.983c-1.536-2.786-2.69-5.769-3.937-8.695c-0.502-1.185-2.226-0.164-1.728,1.01
		c1.035,2.436,2.01,4.908,3.191,7.276c-2.469-0.412-4.941-0.807-7.412-1.207c-0.709-2.093-1.342-4.21-1.951-6.341
		c-0.354-1.237-2.284-0.711-1.929,0.53c0.521,1.826,1.057,3.646,1.644,5.445c-1.551-0.25-3.1-0.51-4.651-0.758
		c-0.452-1.035-0.818-2.109-1.062-3.219c-0.277-1.26-2.206-0.726-1.929,0.53c0.173,0.787,0.407,1.562,0.686,2.32
		c-1.181-0.188-2.358-0.377-3.538-0.562c-0.536-1.375-0.95-2.795-1.219-4.288c-0.227-1.269-2.154-0.729-1.929,0.53
		c0.21,1.173,0.526,2.299,0.899,3.402c-1.621-0.254-3.24-0.515-4.861-0.768c-0.936-2.119-1.699-4.32-2.711-6.404
		c-0.562-1.16-2.287-0.146-1.727,1.01c0.795,1.638,1.438,3.349,2.128,5.033c-1.716-0.266-3.429-0.54-5.145-0.804
		c-1.263-2.147-2.271-4.441-3.257-6.739c-0.506-1.183-2.229-0.162-1.727,1.01c0.783,1.824,1.585,3.621,2.506,5.351
		c-1.617-0.248-3.233-0.498-4.85-0.744c-1.43-2.72-2.727-5.501-3.828-8.377c-0.457-1.191-2.391-0.675-1.929,0.53
		c0.979,2.558,2.11,5.041,3.337,7.479c-2.346-0.356-4.691-0.714-7.039-1.067c-0.787-1.235-1.482-2.499-1.869-3.942
		c-0.334-1.244-2.264-0.715-1.929,0.53c0.29,1.079,0.734,2.071,1.255,3.028c-1.525-0.229-3.05-0.462-4.574-0.689
		c-0.808-2.096-1.395-4.285-2.252-6.369c-0.484-1.176-2.42-0.66-1.929,0.53c0.74,1.8,1.291,3.671,1.935,5.502
		c-0.76-0.114-1.52-0.229-2.279-0.344c-0.657-1.856-1.117-3.788-1.727-5.688c-0.393-1.224-2.324-0.699-1.929,0.531
		c0.516,1.607,0.935,3.234,1.44,4.825c-1.461-0.219-2.924-0.438-4.385-0.656c-0.782-2.713-1.446-5.458-2.127-8.2
		c-0.311-1.251-2.239-0.722-1.929,0.53c0.608,2.455,1.206,4.91,1.883,7.345c-1.412-0.211-2.823-0.423-4.235-0.636
		c-1.303-2.471-2.115-5.086-2.184-7.975c-0.029-1.287-2.029-1.29-2,0c0.063,2.709,0.713,5.232,1.787,7.617
		c-1.02-0.153-2.039-0.305-3.059-0.459c-1.282-3.075-2.34-6.222-3.264-9.424c-0.357-1.236-2.287-0.71-1.929,0.53
		c0.839,2.904,1.806,5.748,2.919,8.552c-2.439-0.367-4.877-0.732-7.316-1.103c-1.488-3.215-2.557-6.608-3.674-9.979
		c-0.404-1.219-2.336-0.695-1.929,0.53c1.015,3.061,1.997,6.139,3.262,9.095c-1.423-0.218-2.847-0.431-4.27-0.646
		c-1.511-2.968-2.327-6.191-3.063-9.479c-0.282-1.259-2.21-0.726-1.929,0.53c0.661,2.947,1.399,5.854,2.601,8.58
		c-1.899-0.291-3.799-0.578-5.698-0.872c-1.646-3.097-3.022-6.324-4.575-9.478c-0.568-1.158-2.293-0.145-1.727,1.01
		c1.322,2.685,2.517,5.423,3.857,8.09c-1.172-0.182-2.346-0.358-3.518-0.543c-1.372-2.084-2.497-4.327-3.613-6.557
		c-0.576-1.154-2.302-0.141-1.727,1.01c0.877,1.75,1.775,3.477,2.771,5.146c-0.993-0.156-1.988-0.308-2.981-0.466
		c-2.01-3.295-3.787-6.725-3.926-10.686c-0.044-1.285-2.045-1.29-2,0c0.132,3.783,1.572,7.102,3.38,10.281
		c-1.847-0.295-3.696-0.581-5.542-0.881c0.152-0.336,0.154-0.748-0.131-1.107c-2.335-2.947-3.336-6.65-5.344-9.797
		c-0.69-1.084-2.422-0.082-1.727,1.01c1.969,3.086,3.065,6.594,5.201,9.571c-1.886-0.309-3.773-0.604-5.658-0.916
		c-1.77-3.144-3.384-6.354-4.816-9.665c-0.51-1.182-2.232-0.162-1.727,1.01c1.217,2.813,2.568,5.553,4.031,8.242
		c-1.343-0.225-2.688-0.438-4.03-0.665c-1.246-2.196-2.233-4.503-3.173-6.849c-0.473-1.183-2.408-0.666-1.929,0.53
		c0.8,2,1.62,3.982,2.595,5.896c-1.422-0.243-2.846-0.471-4.267-0.718c-1.491-2.322-3.03-4.613-4.501-6.947
		c-0.684-1.088-2.416-0.086-1.727,1.01c1.158,1.84,2.363,3.649,3.553,5.472c-1.178-0.207-2.357-0.408-3.535-0.618
		c-1.697-2.188-3.259-4.528-4.189-7.124c-0.432-1.204-2.365-0.687-1.929,0.53c0.786,2.189,1.952,4.193,3.284,6.09
		c-0.659-0.118-1.318-0.232-1.979-0.354c-0.176-0.135-0.362-0.268-0.57-0.387c-25.479-14.695-46.871-34.312-66.095-56.078
		c23.915-6.227,49.911-4.184,74.29-3.385c32.107,1.055,63.771,7.311,95.592,11.199c31.54,3.854,63.294,5.575,94.82,9.696
		c31.539,4.122,62.875,10.179,93.341,19.396c10.116,3.06,20.032,6.451,30.237,9.211c4.49,1.215,8.962,2.502,13.353,4.041
		c1.69,0.592,7.46,2.664,7.852,3.668c0.489,1.254,1.345,2.082,2.338,2.551C463.463,300.889,463.194,301.252,462.93,301.623z
		 M444.301,269.019c1.692,0.386,3.391,0.756,5.09,1.115c0.367,4.532,0.676,9.064,0.783,13.609c-1.298-0.391-2.601-0.767-3.909-1.123
		C445.739,278.069,445.045,273.54,444.301,269.019z M451.424,270.551c1.493,0.306,2.987,0.608,4.489,0.886
		c0.238,4.729,0.3,9.463,0.308,14.199c-1.394-0.461-2.762-0.878-4.033-1.275C452.099,279.748,451.793,275.149,451.424,270.551z
		 M457.934,271.792c1.893,0.326,3.785,0.639,5.668,0.976c-0.829,4.868-1.752,9.725-3.084,14.477
		c-0.758-0.323-1.523-0.631-2.295-0.912C458.217,281.481,458.168,276.634,457.934,271.792z M462.358,288.091
		c1.396-4.905,2.346-9.927,3.201-14.96c2.087,0.405,4.154,0.873,6.188,1.463c-0.495,2.749-1.856,5.553-2.893,7.808
		c-1.125,2.449-2.435,4.883-3.948,7.162C464.102,289.026,463.247,288.538,462.358,288.091z M466.486,290.745
		c1.771-2.676,3.271-5.536,4.606-8.444c0.994-2.162,2.053-4.624,2.545-7.115c1.039,0.35,2.069,0.733,3.088,1.172
		c-1.933,5.815-4.783,11.373-8.059,16.688C468.044,292.194,467.305,291.435,466.486,290.745z M469.473,307.913
		c0.551-0.761,1.096-1.528,1.639-2.301c2.92,2.041,6.042,3.742,9.251,5.278C476.614,310.563,473.092,309.573,469.473,307.913z
		 M481.769,309.353c-3.303-1.564-6.52-3.294-9.524-5.379c0.111-0.16,0.219-0.324,0.328-0.484c0.093,0.077,0.197,0.146,0.33,0.193
		c3.086,1.059,6.045,2.387,8.971,3.805C481.84,308.108,481.809,308.73,481.769,309.353z M481.975,305.331
		c-2.707-1.291-5.451-2.494-8.293-3.483c0.448-0.677,0.88-1.365,1.317-2.05c2.476,0.752,4.773,1.888,7.053,3.09
		C482.028,303.702,482.008,304.517,481.975,305.331z M482.122,300.67c-1.944-1.006-3.922-1.93-6.006-2.61
		c0.568-0.917,1.126-1.842,1.67-2.771c1.478,0.695,2.938,1.417,4.402,2.139C482.167,298.507,482.147,299.588,482.122,300.67z
		 M482.227,295.224c-1.146-0.569-2.299-1.13-3.457-1.676c0.532-0.948,1.043-1.908,1.545-2.871c0.656,0.36,1.316,0.713,1.982,1.053
		C482.272,292.895,482.249,294.06,482.227,295.224z M482.359,289.516c-0.386-0.201-0.765-0.415-1.146-0.626
		c0.379-0.765,0.766-1.525,1.118-2.3c0.021,0.002,0.04,0.009,0.062,0.011c0.02,0.003,0.039,0.006,0.058,0.008
		C482.411,287.577,482.386,288.545,482.359,289.516z M492.617,278.184c-1.465,0.942-4.487,0.49-7.034,0.003
		c0.164-0.519,0.333-1.035,0.484-1.558c0.406-1.405,0.16-2.607-0.463-3.532c0.021-1.367-0.639-2.714-2.271-3.55
		c-6.271-3.207-12.787-4.715-19.69-5.871c-4.812-0.805-9.582-1.747-14.339-2.775c0.174-0.753,0.354-1.543,0.538-2.341
		c2.512,1.139,5.102,2.061,7.721,2.935c1.227,0.409,1.748-1.522,0.531-1.929c-2.642-0.881-5.259-1.799-7.781-2.979
		c0.115-0.475,0.233-0.955,0.356-1.435c2.373,0.603,4.606,1.577,6.894,2.507c1.195,0.485,1.71-1.449,0.531-1.93
		c-2.293-0.933-4.531-1.908-6.914-2.513c0.34-1.233,0.711-2.466,1.131-3.677c14.785,5.77,32.562,12.298,42.199,25.498
		c0.034,0.049,0.071,0.09,0.108,0.137C494.157,276.495,493.523,277.6,492.617,278.184z M496.444,263.841
		c-10.92-10.63-25.973-16.792-40.045-22.312c0.529-0.679,1.101-1.306,1.715-1.872c0.105,0.109,0.234,0.204,0.406,0.264
		c2.772,0.955,5.389,2.241,7.91,3.734c1.112,0.658,2.119-1.07,1.01-1.727c-2.392-1.417-4.885-2.631-7.488-3.598
		c3.324-1.635,7.885,0.023,11.088,1.065c4.873,1.587,9.466,4.026,13.966,6.444c3.762,2.021,7.472,3.907,9.891,7.587
		C496.86,256.42,496.84,260.269,496.444,263.841z"/>
</g>
</svg>