<svg id="Capa_1" enable-background="new 0 0 512 512" height="512" viewBox="0 0 512 512" width="512" xmlns="http://www.w3.org/2000/svg"><g><path d="m489.25 224.5c0-13.785-11.215-25-25-25s-25 11.215-25 25c0 11.173 7.368 20.656 17.5 23.849v118.151c0 6.893-5.607 12.5-12.5 12.5v-7.5c0-9.649-7.851-17.5-17.5-17.5h-11v-169.5c0-35.377-14.153-68.262-39.851-92.596-3.008-2.849-7.755-2.719-10.603.289s-2.719 7.755.289 10.603c22.676 21.472 35.165 50.489 35.165 81.704v9.5h-242.5c-4.142 0-7.5 3.358-7.5 7.5s3.358 7.5 7.5 7.5h242.5v225h-335v-225h57.5c4.142 0 7.5-3.358 7.5-7.5s-3.358-7.5-7.5-7.5h-57.5v-9.5c0-62.033 50.467-112.5 112.5-112.5h89.976c.006 0 .011.001.017.001.008 0 .017-.001.026-.001h19.981c17.798 0 34.818 4.033 50.589 11.987 3.699 1.866 8.208.38 10.074-3.319 1.866-3.698.379-8.208-3.319-10.074-17.885-9.02-37.178-13.594-57.344-13.594h-14.047l-10.137-43.475c-1.858-7.963-8.866-13.525-17.044-13.525h-27.545c-8.177 0-15.186 5.562-17.043 13.526l-10.137 43.474h-14.047c-70.304 0-127.5 57.196-127.5 127.5v249.5h-.5c-15.164 0-27.5 12.336-27.5 27.5v33c0 9.649 7.851 17.5 17.5 17.5h386c9.649 0 17.5-7.851 17.5-17.5v-33c0-15.164-12.336-27.5-27.5-27.5h-.5v-15h11c9.649 0 17.5-7.851 17.5-17.5v-7.5c15.164 0 27.5-12.336 27.5-27.5v-118.151c10.132-3.193 17.5-12.676 17.5-23.849zm-272.207-207.567c.265-1.138 1.267-1.933 2.435-1.933h27.545c1.168 0 2.169.794 2.435 1.932l9.342 40.068h-51.1zm-70.793 432.067h174v4c0 6.893-5.607 12.5-12.5 12.5h-149c-6.893 0-12.5-5.607-12.5-12.5zm282.5 12.5v33c0 1.378-1.122 2.5-2.5 2.5h-386c-1.378 0-2.5-1.122-2.5-2.5v-33c0-6.893 5.607-12.5 12.5-12.5h81v4c0 15.164 12.336 27.5 27.5 27.5h149c15.164 0 27.5-12.336 27.5-27.5v-4h81c6.893 0 12.5 5.607 12.5 12.5zm.5-60c0 1.378-1.122 2.5-2.5 2.5h-11v-35h11c1.378 0 2.5 1.122 2.5 2.5zm35-167c-5.514 0-10-4.486-10-10s4.486-10 10-10 10 4.486 10 10-4.486 10-10 10z"/><path d="m277.987 122.743c-1.125-3.464-4.064-5.941-7.668-6.465l-19.727-2.867-8.822-17.876c-1.612-3.266-4.876-5.295-8.519-5.295s-6.907 2.029-8.519 5.295l-8.822 17.876-19.727 2.867c-3.604.523-6.543 3.001-7.669 6.465s-.205 7.196 2.404 9.739l14.274 13.914-3.37 19.647c-.616 3.59.833 7.151 3.779 9.292 1.666 1.21 3.614 1.825 5.575 1.824 1.51 0 3.027-.364 4.43-1.101l17.644-9.276 17.644 9.276c3.225 1.697 7.059 1.418 10.005-.723 2.947-2.141 4.395-5.702 3.779-9.292l-3.37-19.647 14.275-13.915c2.609-2.542 3.53-6.274 2.404-9.738zm-29.22 14.931c-2.239 2.183-3.26 5.327-2.731 8.408l1.975 11.514-10.336-5.434c-1.386-.729-2.906-1.094-4.425-1.094s-3.037.364-4.42 1.092l-10.339 5.436 1.975-11.513c.529-3.082-.492-6.225-2.732-8.409l-8.365-8.154 11.561-1.68c3.096-.45 5.771-2.394 7.152-5.197l5.17-10.476 5.168 10.473c1.383 2.806 4.058 4.75 7.154 5.2l11.56 1.68z"/><path d="m337.007 115.009c-1.613-3.267-4.878-5.296-8.521-5.295-3.642 0-6.906 2.03-8.518 5.295l-5.659 11.465-12.652 1.839c-3.605.523-6.544 3.001-7.669 6.466s-.204 7.196 2.404 9.738l9.156 8.925-2.161 12.601c-.616 3.59.833 7.151 3.779 9.292 1.666 1.21 3.614 1.825 5.575 1.825 1.51 0 3.027-.364 4.429-1.102l11.317-5.95 11.316 5.949c3.223 1.695 7.057 1.418 10.005-.723 2.947-2.141 4.395-5.702 3.779-9.292l-2.161-12.602 9.155-8.924c2.609-2.542 3.53-6.274 2.405-9.739-1.125-3.464-4.064-5.942-7.669-6.466l-12.653-1.839zm1.882 29.708c-2.241 2.183-3.263 5.328-2.734 8.411l.766 4.468-4.011-2.108c-2.771-1.457-6.078-1.456-8.842-.001l-4.013 2.109.766-4.467c.529-3.083-.493-6.228-2.732-8.409l-3.246-3.164 4.486-.652c3.096-.45 5.771-2.394 7.152-5.197l2.006-4.065 2.007 4.066c1.384 2.803 4.058 4.746 7.152 5.195l4.486.652z"/><path d="m172.511 134.779c-1.125-3.464-4.064-5.942-7.669-6.466l-12.653-1.839-5.659-11.465c-1.611-3.266-4.875-5.295-8.518-5.296 0 0 0 0-.001 0-3.642 0-6.906 2.029-8.519 5.295l-5.658 11.465-12.652 1.839c-3.605.523-6.544 3.001-7.669 6.466s-.204 7.196 2.404 9.738l9.156 8.925-2.161 12.601c-.616 3.59.833 7.151 3.779 9.292 1.666 1.21 3.614 1.825 5.575 1.824 1.51 0 3.027-.364 4.43-1.101l11.316-5.95 11.317 5.949c3.223 1.695 7.057 1.418 10.005-.723 2.947-2.141 4.395-5.702 3.779-9.292l-2.161-12.602 9.155-8.924c2.608-2.539 3.53-6.271 2.404-9.736zm-24.098 9.938c-2.241 2.183-3.263 5.328-2.734 8.411l.766 4.468-4.009-2.107c-1.385-.729-2.905-1.094-4.424-1.094s-3.037.364-4.421 1.092l-4.012 2.109.766-4.467c.529-3.083-.493-6.228-2.732-8.409l-3.246-3.164 4.487-.652c3.093-.45 5.767-2.392 7.152-5.197l2.006-4.065 2.005 4.062c1.383 2.806 4.058 4.75 7.154 5.2l4.486.652z"/><path d="m368.25 312.883c4.142 0 7.5-3.358 7.5-7.5v-36.635c5.699-1.161 10-6.211 10-12.248v-20c0-6.893-5.607-12.5-12.5-12.5h-280c-6.893 0-12.5 5.607-12.5 12.5v20c0 6.037 4.301 11.087 10 12.248v105.504c-5.699 1.161-10 6.211-10 12.248v20c0 6.893 5.607 12.5 12.5 12.5h95c4.142 0 7.5-3.358 7.5-7.5s-3.358-7.5-7.5-7.5h-92.5v-15h275v15h-147.5c-4.142 0-7.5 3.358-7.5 7.5s3.358 7.5 7.5 7.5h150c6.893 0 12.5-5.607 12.5-12.5v-20c0-6.037-4.301-11.087-10-12.248v-33.869c0-4.142-3.358-7.5-7.5-7.5s-7.5 3.358-7.5 7.5v33.617h-75v-105h75v36.383c0 4.142 3.358 7.5 7.5 7.5zm-272.5-73.883h275v15h-275zm85 30v105h-75v-105zm90 105h-75v-105h75z"/><path d="m209.606 325.801 17.5 25c1.403 2.005 3.697 3.199 6.144 3.199s4.741-1.194 6.144-3.199l17.5-25c1.808-2.582 1.808-6.02 0-8.602l-17.5-25c-1.403-2.005-3.697-3.199-6.144-3.199s-4.741 1.194-6.144 3.199l-17.5 25c-1.808 2.582-1.808 6.02 0 8.602zm23.644-16.222 8.345 11.921-8.345 11.921-8.345-11.921z"/><path d="m128.25 309h17.819l-14.684 29.124c-1.865 3.699-.378 8.208 3.32 10.073 1.083.546 2.235.805 3.371.805 2.742 0 5.384-1.509 6.703-4.125l20.168-40c1.172-2.325 1.055-5.091-.31-7.309-1.365-2.217-3.783-3.568-6.387-3.568h-30c-4.142 0-7.5 3.358-7.5 7.5s3.358 7.5 7.5 7.5z"/><path d="m314.706 348.197c1.083.546 2.235.805 3.371.805 2.742 0 5.384-1.509 6.703-4.125l20.168-40c1.172-2.325 1.055-5.091-.31-7.309-1.365-2.217-3.783-3.568-6.387-3.568h-30c-4.142 0-7.5 3.358-7.5 7.5s3.358 7.5 7.5 7.5h17.819l-14.684 29.124c-1.865 3.698-.379 8.208 3.32 10.073z"/></g></svg>