<svg id="Capa_1" enable-background="new 0 0 512 512" height="512" viewBox="0 0 512 512" width="512" xmlns="http://www.w3.org/2000/svg"><g><path d="m468 0c-69.482 0-211.322 0-281.106 0-4.143 0-7.5 3.358-7.5 7.5s3.357 7.5 7.5 7.5h152.106c12.406 0 22.5 10.093 22.5 22.5v437c0 12.407-10.094 22.5-22.5 22.5h-295c-12.406 0-22.5-10.093-22.5-22.5v-159.837c0-4.142-3.357-7.5-7.5-7.5s-7.5 3.358-7.5 7.5v159.837c0 20.678 16.822 37.5 37.5 37.5h372.126c4.143 0 7.5-3.358 7.5-7.5s-3.357-7.5-7.5-7.5h-47.146c4.719-6.272 7.521-14.064 7.521-22.5v-165.508c8.582-2.525 16.371-7.152 22.761-13.579 6.686-6.727 11.47-15.108 13.835-24.241 1.038-4.01-1.371-8.102-5.381-9.141-4.008-1.037-8.103 1.371-9.141 5.381-1.698 6.559-5.14 12.584-9.951 17.425-3.518 3.538-7.626 6.314-12.123 8.239v-74.52l11.964 11.894c2.563 2.549 4.746 5.423 6.486 8.541 1.373 2.46 3.925 3.847 6.556 3.847 1.237 0 2.491-.307 3.648-.952 3.617-2.019 4.912-6.587 2.894-10.204-2.421-4.339-5.452-8.332-9.008-11.868l-22.54-22.409v-159.905c0-8.436-2.801-16.228-7.521-22.5h99.02c12.406 0 22.5 10.093 22.5 22.5v437c0 12.407-10.094 22.5-22.5 22.5h-16.874c-4.143 0-7.5 3.358-7.5 7.5s3.357 7.5 7.5 7.5h16.874c20.678 0 37.5-16.822 37.5-37.5v-437c0-20.678-16.822-37.5-37.5-37.5z"/><path d="m446.784 477.137c.019-.052.037-.105.055-.158l21.401-64.084c1.312-3.929-.81-8.177-4.738-9.489-3.932-1.312-8.179.81-9.49 4.738l-3.619 10.836h-23.567l-3.58-10.817c-1.3-3.932-5.539-6.065-9.477-4.764-3.933 1.301-6.065 5.544-4.764 9.477l21.208 64.087c.021.063.043.126.065.188 1.266 3.511 4.581 5.868 8.25 5.868h.007c3.673-.003 6.987-2.367 8.249-5.882zm-14.994-43.157h13.594l-6.828 20.446z"/><path d="m424.939 332.163c-6.116 0-11.866 2.382-16.189 6.706-4.325 4.325-6.708 10.075-6.708 16.191s2.383 11.866 6.707 16.191l24.573 24.574c1.407 1.407 3.314 2.197 5.304 2.197s3.896-.79 5.304-2.197l24.573-24.574c4.325-4.325 6.708-10.075 6.708-16.191s-2.383-11.866-6.707-16.191c-4.325-4.325-10.075-6.707-16.191-6.707-2.123 0-4.196.304-6.187.859v-10.859h12.5c4.143 0 7.5-3.358 7.5-7.5s-3.357-7.5-7.5-7.5h-40c-4.143 0-7.5 3.358-7.5 7.5s3.357 7.5 7.5 7.5h12.5v10.859c-1.99-.555-4.064-.858-6.187-.858zm27.373 15c2.109 0 4.093.821 5.585 2.313 1.491 1.492 2.313 3.475 2.313 5.584s-.822 4.092-2.314 5.584l-19.271 19.271-19.271-19.271c-1.491-1.492-2.313-3.475-2.313-5.584s.822-4.092 2.314-5.585c1.491-1.491 3.474-2.312 5.583-2.312s4.093.821 5.584 2.313l2.799 2.799c2.929 2.928 7.676 2.929 10.606.001l2.801-2.8c1.493-1.492 3.476-2.313 5.584-2.313z"/><path d="m14 287.163c4.143 0 7.5-3.358 7.5-7.5v-242.163c0-12.407 10.094-22.5 22.5-22.5h107.894c4.143 0 7.5-3.358 7.5-7.5s-3.357-7.5-7.5-7.5h-107.894c-20.678 0-37.5 16.822-37.5 37.5v242.163c0 4.142 3.357 7.5 7.5 7.5z"/><path d="m126.5 69.293c-9.139-6.869-22.276-6.185-30.618 2.057-4.438 4.382-6.882 10.217-6.882 16.428s2.444 12.046 6.882 16.429l25.348 25.038c1.461 1.443 3.365 2.164 5.271 2.164 1.905 0 3.81-.721 5.271-2.164l25.348-25.038c4.436-4.382 6.88-10.217 6.88-16.429 0-6.211-2.444-12.046-6.882-16.428-8.342-8.24-21.478-8.927-30.618-2.057zm20.077 24.243-20.077 19.831-20.077-19.832c-1.563-1.542-2.423-3.587-2.423-5.757 0-2.169.86-4.214 2.423-5.757 1.644-1.623 3.801-2.435 5.959-2.435s4.317.812 5.96 2.435l2.888 2.852c2.922 2.886 7.619 2.886 10.541 0l2.888-2.853c3.287-3.246 8.634-3.246 11.919 0 1.562 1.543 2.423 3.587 2.423 5.757-.001 2.171-.861 4.216-2.424 5.759z"/><path d="m256.5 69.293c-9.138-6.869-22.275-6.185-30.618 2.057-4.438 4.382-6.882 10.217-6.882 16.428s2.444 12.046 6.882 16.429l25.348 25.038c1.461 1.443 3.365 2.164 5.271 2.164s3.81-.721 5.271-2.164l25.348-25.038c4.436-4.382 6.88-10.217 6.88-16.429 0-6.211-2.444-12.046-6.882-16.428-8.342-8.24-21.479-8.927-30.618-2.057zm20.077 24.243-20.077 19.831-20.077-19.832c-1.563-1.542-2.423-3.587-2.423-5.757 0-2.169.86-4.214 2.423-5.757 1.644-1.623 3.801-2.435 5.959-2.435s4.317.812 5.96 2.435l2.888 2.852c2.922 2.886 7.619 2.886 10.541 0l2.888-2.853c3.287-3.246 8.634-3.246 11.919 0 1.562 1.543 2.423 3.587 2.423 5.757-.001 2.171-.861 4.216-2.424 5.759z"/><path d="m256.5 442.707c4.155 3.124 9.136 4.685 14.118 4.684 5.975 0 11.951-2.247 16.5-6.741 4.438-4.383 6.882-10.218 6.882-16.429s-2.444-12.046-6.882-16.429l-25.348-25.038c-2.922-2.886-7.619-2.886-10.541 0l-25.348 25.038c-4.438 4.383-6.882 10.218-6.882 16.429s2.444 12.046 6.882 16.428c8.342 8.241 21.479 8.927 30.619 2.058zm-20.077-24.243 20.077-19.832 20.077 19.832c1.562 1.543 2.423 3.587 2.423 5.757 0 2.169-.86 4.214-2.423 5.757-3.287 3.246-8.634 3.246-11.919 0l-2.888-2.852c-1.461-1.443-3.365-2.164-5.271-2.164s-3.81.721-5.271 2.164l-2.888 2.853c-3.287 3.246-8.634 3.246-11.919 0-1.562-1.543-2.423-3.587-2.423-5.757.002-2.17.862-4.215 2.425-5.758z"/><path d="m126.5 442.707c4.155 3.124 9.136 4.685 14.118 4.684 5.975 0 11.951-2.247 16.5-6.741 4.438-4.383 6.882-10.218 6.882-16.429s-2.444-12.046-6.882-16.429l-25.348-25.038c-2.922-2.886-7.619-2.886-10.541 0l-25.348 25.038c-4.437 4.383-6.881 10.218-6.881 16.43 0 6.211 2.444 12.046 6.882 16.428 8.341 8.24 21.478 8.926 30.618 2.057zm-20.077-24.243 20.077-19.832 20.077 19.832c1.562 1.543 2.423 3.587 2.423 5.757 0 2.169-.86 4.214-2.423 5.757-3.287 3.246-8.634 3.246-11.919 0l-2.888-2.852c-1.461-1.443-3.365-2.164-5.271-2.164-1.905 0-3.81.721-5.271 2.164l-2.888 2.853c-3.287 3.246-8.634 3.246-11.919 0-1.562-1.543-2.423-3.587-2.423-5.757.002-2.17.862-4.215 2.425-5.758z"/><path d="m256.5 284.707c4.155 3.124 9.136 4.685 14.118 4.684 5.975 0 11.951-2.247 16.5-6.741 4.438-4.383 6.882-10.218 6.882-16.429s-2.444-12.046-6.882-16.429l-25.348-25.038c-2.922-2.886-7.619-2.886-10.541 0l-25.348 25.038c-4.438 4.383-6.882 10.218-6.882 16.429s2.444 12.046 6.882 16.428c8.342 8.241 21.479 8.927 30.619 2.058zm-20.077-24.243 20.077-19.832 20.077 19.832c1.562 1.543 2.423 3.587 2.423 5.757 0 2.169-.86 4.214-2.423 5.757-3.287 3.246-8.634 3.246-11.919 0l-2.888-2.852c-1.461-1.443-3.365-2.164-5.271-2.164s-3.81.721-5.271 2.164l-2.888 2.853c-3.287 3.246-8.634 3.246-11.919 0-1.562-1.543-2.423-3.587-2.423-5.757.002-2.17.862-4.215 2.425-5.758z"/><path d="m95.882 282.65c8.341 8.24 21.479 8.926 30.618 2.057 4.155 3.124 9.136 4.685 14.118 4.684 5.975 0 11.951-2.247 16.5-6.741 4.438-4.383 6.882-10.218 6.882-16.429s-2.444-12.046-6.882-16.429l-25.348-25.038c-2.922-2.886-7.619-2.886-10.541 0l-25.348 25.038c-4.437 4.383-6.881 10.218-6.881 16.43 0 6.211 2.444 12.046 6.882 16.428zm10.541-22.186 20.077-19.832 20.077 19.832c1.562 1.543 2.423 3.587 2.423 5.757 0 2.169-.86 4.214-2.423 5.757-3.287 3.246-8.634 3.246-11.919 0l-2.888-2.852c-1.461-1.443-3.365-2.164-5.271-2.164-1.905 0-3.81.721-5.271 2.164l-2.888 2.853c-3.287 3.246-8.634 3.246-11.919 0-1.562-1.543-2.423-3.587-2.423-5.757.002-2.17.862-4.215 2.425-5.758z"/><path d="m191.5 142.293c-9.139-6.869-22.275-6.185-30.618 2.057-4.438 4.383-6.882 10.218-6.882 16.429s2.444 12.046 6.882 16.429l25.348 25.038c1.461 1.443 3.365 2.164 5.271 2.164s3.81-.721 5.271-2.164l25.348-25.038c4.438-4.383 6.882-10.218 6.882-16.429s-2.444-12.046-6.882-16.428c-8.344-8.242-21.48-8.928-30.62-2.058zm20.077 12.728c1.562 1.543 2.423 3.587 2.423 5.757s-.86 4.214-2.423 5.757l-20.077 19.832-20.077-19.832c-1.562-1.543-2.423-3.587-2.423-5.757 0-2.169.86-4.214 2.423-5.757 1.644-1.623 3.801-2.435 5.959-2.435s4.317.812 5.96 2.435l2.888 2.852c2.922 2.886 7.619 2.886 10.541 0l2.888-2.853c3.286-3.245 8.633-3.245 11.918.001z"/><path d="m191.5 369.707c4.155 3.124 9.136 4.685 14.118 4.684 5.975 0 11.951-2.247 16.5-6.741 4.438-4.383 6.882-10.218 6.882-16.429s-2.444-12.046-6.882-16.429l-25.348-25.038c-2.922-2.886-7.619-2.886-10.541 0l-25.348 25.038c-4.438 4.383-6.882 10.218-6.882 16.429s2.444 12.046 6.882 16.428c8.342 8.241 21.479 8.928 30.619 2.058zm-20.077-12.728c-1.562-1.543-2.423-3.587-2.423-5.757s.86-4.214 2.423-5.757l20.077-19.832 20.077 19.832c1.562 1.543 2.423 3.587 2.423 5.757 0 2.169-.86 4.214-2.423 5.757-3.287 3.246-8.634 3.246-11.919 0l-2.888-2.852c-1.461-1.443-3.365-2.164-5.271-2.164s-3.81.721-5.271 2.164l-2.888 2.853c-3.285 3.245-8.632 3.245-11.917-.001z"/><path d="m36.5 138.177c0 5.468 2.129 10.609 5.995 14.475l20.701 20.701c1.465 1.464 3.385 2.197 5.304 2.197s3.839-.732 5.304-2.197l20.7-20.701c3.867-3.866 5.996-9.007 5.996-14.475s-2.129-10.608-5.995-14.475c-3.867-3.867-9.008-5.996-14.476-5.996-4.175 0-8.158 1.241-11.529 3.548-3.371-2.308-7.354-3.548-11.529-3.548-5.468 0-10.608 2.129-14.476 5.996-3.866 3.866-5.995 9.007-5.995 14.475zm16.603-3.868c1.033-1.033 2.406-1.602 3.868-1.602 1.461 0 2.834.569 3.869 1.603l2.358 2.357c2.928 2.928 7.676 2.928 10.604 0l2.36-2.359c1.033-1.033 2.406-1.602 3.867-1.602 1.462 0 2.835.569 3.868 1.602 1.034 1.033 1.603 2.407 1.603 3.868s-.568 2.835-1.603 3.868l-15.397 15.399-15.398-15.398c-1.033-1.033-1.602-2.406-1.602-3.868 0-1.461.568-2.835 1.603-3.868z"/><path d="m346.5 373.823c0-5.468-2.129-10.609-5.995-14.475l-20.701-20.701c-2.93-2.929-7.678-2.929-10.607 0l-20.7 20.701c-3.867 3.866-5.996 9.007-5.996 14.475s2.129 10.608 5.995 14.475c3.867 3.867 9.008 5.996 14.476 5.996 4.175 0 8.158-1.241 11.529-3.548 3.371 2.308 7.354 3.548 11.529 3.548 5.468 0 10.608-2.129 14.476-5.996 3.865-3.866 5.994-9.007 5.994-14.475zm-16.603 3.868c-1.033 1.033-2.406 1.602-3.868 1.602-1.461 0-2.834-.569-3.869-1.603l-2.358-2.357c-1.464-1.464-3.383-2.196-5.302-2.196s-3.838.732-5.302 2.196l-2.36 2.359c-1.033 1.033-2.406 1.602-3.867 1.602-1.462 0-2.835-.569-3.868-1.602-1.034-1.033-1.603-2.407-1.603-3.868s.568-2.835 1.603-3.868l15.397-15.398 15.398 15.398c1.033 1.033 1.602 2.406 1.602 3.868 0 1.46-.568 2.834-1.603 3.867z"/><path d="m56.221 85.679c-1.006 4.019 1.437 8.091 5.455 9.097.611.153 1.224.226 1.826.226 3.359 0 6.417-2.274 7.27-5.681 1.985-9.047 4.806-18.928 11.01-27.022l7.729-10.297c1.706-2.272 1.981-5.313.711-7.855s-3.869-4.147-6.71-4.147h-30.024c-4.143 0-7.5 3.358-7.5 7.5s3.357 7.5 7.5 7.5h15.057c-5.964 7.883-10.151 20.327-12.324 30.679z"/><path d="m299.488 472h30.023c4.143 0 7.5-3.358 7.5-7.5s-3.357-7.5-7.5-7.5h-15.057c5.964-7.883 10.151-20.327 12.324-30.679 1.006-4.019-1.437-8.091-5.455-9.097-4.021-1.007-8.091 1.437-9.096 5.455-1.985 9.047-4.806 18.928-11.01 27.022l-7.729 10.297c-1.706 2.272-1.981 5.313-.711 7.855s3.87 4.147 6.711 4.147z"/></g></svg>