<svg id="Capa_1" enable-background="new 0 0 511.982 511.982" height="512" viewBox="0 0 511.982 511.982" width="512" xmlns="http://www.w3.org/2000/svg"><g><path d="m511.601 338.35-14.866-151.137c-2.44-24.807-13.955-47.689-32.423-64.43-18.469-16.741-42.368-25.961-67.295-25.961h-57.707c-2.721-6.352-9.032-10.815-16.369-10.815h-47.4c-4.142 0-7.5 3.358-7.5 7.5s3.358 7.5 7.5 7.5h47.4c1.544 0 2.8 1.256 2.8 2.8 0 14.606-11.883 26.49-26.49 26.49h-86.52c-14.606 0-26.49-11.883-26.49-26.49 0-1.544 1.256-2.8 2.8-2.8h51.5c4.142 0 7.5-3.358 7.5-7.5s-3.358-7.5-7.5-7.5h-51.5c-7.336 0-13.648 4.463-16.369 10.815h-57.707c-24.927 0-48.826 9.22-67.295 25.961-18.468 16.741-29.983 39.623-32.423 64.43l-14.866 151.137c-2.201 22.373 5.196 44.756 20.294 61.412s36.65 26.209 59.131 26.209c13.885 0 27.053-6.986 33.27-19.249 10.803-21.309 30.834-38.871 54.898-43.843 4.048-.88 6.616-4.875 5.736-8.922-.88-4.048-4.879-6.612-8.922-5.736-26.028 5.658-48.069 21.809-61.286 44.682l-10.335-2.775c-24.792-6.658-41.048-30.04-38.655-55.598l1.343-14.339c.386-4.124-2.644-7.78-6.768-8.167-4.124-.389-7.78 2.644-8.167 6.768l-1.343 14.339c-3.077 32.86 17.825 62.923 49.699 71.482l5.014 1.346c-4.042 3.192-9.095 5.011-14.486 5.011-18.255 0-35.757-7.757-48.018-21.283-12.26-13.525-18.267-31.702-16.48-49.87l14.866-151.137c4.31-43.817 40.762-76.86 84.791-76.86h57.06c3.745 19.054 20.57 33.475 40.706 33.475h86.52c20.135 0 36.96-14.42 40.706-33.475h57.06c44.029 0 80.48 33.042 84.791 76.86l14.866 151.137c1.787 18.167-4.22 36.344-16.48 49.87-12.261 13.525-29.762 21.283-48.018 21.283-5.39 0-10.444-1.819-14.485-5.011l5.014-1.346c31.875-8.56 52.776-38.623 49.699-71.482l-7.014-74.914c-1.823-19.466-8.824-37.831-20.301-53.478 1.124-.248 2.239-.585 3.331-1.037 7.395-3.063 12.172-10.213 12.172-18.217v-14.007c0-8.004-4.778-15.154-12.172-18.217-1.706-.707-3.466-1.161-5.235-1.372-.211-1.769-.666-3.53-1.372-5.235-3.063-7.394-10.213-12.172-18.217-12.172h-14.007c-8.003 0-15.154 4.778-18.217 12.172-.707 1.706-1.161 3.466-1.372 5.235-1.769.211-3.53.666-5.235 1.372-4.268 1.768-7.656 4.902-9.765 8.772-5.49-.854-11.062-1.294-16.641-1.294h-204.732c-5.834 0-11.657.479-17.389 1.413-6.499-16.197-22.353-27.67-40.845-27.67-24.262 0-44 19.738-44 44 0 11.898 4.755 22.701 12.455 30.629-9.664 14.661-15.604 31.5-17.252 49.107l-2.408 25.718c-.386 4.124 2.644 7.78 6.768 8.167 3.143.299 7.484-1.909 8.167-6.768l2.408-25.718c1.396-14.915 6.364-29.191 14.449-41.662 5.86 2.894 12.449 4.528 19.415 4.528 24.262 0 44-19.738 44-44 0-.548-.021-1.092-.042-1.635 4.708-.73 9.486-1.108 14.275-1.108h204.732c4.774 0 9.539.374 14.234 1.099v8.647c0 8.004 4.778 15.154 12.172 18.217 1.705.707 3.466 1.161 5.235 1.372.211 1.769.666 3.53 1.372 5.235 3.063 7.394 10.213 12.172 18.217 12.172h14.007c4.662 0 9.027-1.63 12.471-4.445 8.057 12.444 12.99 26.637 14.389 41.579l7.014 74.914c2.393 25.558-13.864 48.94-38.655 55.598l-10.339 2.777c-16.758-29.022-47.366-46.822-81.225-46.822h-126.003c-4.142 0-7.5 3.358-7.5 7.5s3.358 7.5 7.5 7.5h126.002c29.66 0 56.349 16.257 69.978 42.506 6.426 12.375 20.172 22.61 34.949 22.384 22.48 0 44.033-9.553 59.131-26.209 15.098-16.657 22.495-39.041 20.294-61.414zm-408.717-131.855v-8.413c0-4.142-3.358-7.5-7.5-7.5s-7.5 3.358-7.5 7.5v8.409c-9.971-2.675-17.836-10.543-20.506-20.516h8.413c4.142 0 7.5-3.358 7.5-7.5s-3.358-7.5-7.5-7.5h-8.409c2.675-9.971 10.543-17.836 20.516-20.506v8.413c0 4.142 3.358 7.5 7.5 7.5s7.5-3.358 7.5-7.5v-8.409c9.971 2.675 17.836 10.543 20.506 20.516h-8.413c-4.142 0-7.5 3.358-7.5 7.5s3.358 7.5 7.5 7.5h8.409c-2.675 9.972-10.543 17.836-20.516 20.506zm339.795-39.375c.876.363 2.913 1.514 2.913 4.359v14.007c0 2.845-2.037 3.996-2.913 4.359-.875.364-3.129.99-5.142-1.022l-10.34-10.34 10.34-10.34c2.012-2.013 4.265-1.387 5.142-1.023zm-37.45-14.726c.362-.875 1.513-2.912 4.358-2.912h14.007c2.845 0 3.996 2.037 4.358 2.912.363.876.989 3.13-1.022 5.142l-10.34 10.34-10.34-10.34c-2.01-2.012-1.384-4.266-1.021-5.142zm-14.725 37.45c-.876-.363-2.913-1.513-2.913-4.359v-14.007c0-2.846 2.037-3.996 2.913-4.359.875-.362 3.129-.989 5.141 1.022l10.34 10.34-10.34 10.34c-2.012 2.013-4.265 1.387-5.141 1.023zm33.091 17.638h-14.007c-2.845 0-3.996-2.037-4.358-2.912-.363-.876-.989-3.13 1.022-5.142l10.34-10.34 10.34 10.34c2.012 2.012 1.385 4.266 1.022 5.142-.363.875-1.514 2.912-4.359 2.912z"/><path d="m152.991 254.382c-12.654 0-22.95 10.295-22.95 22.95s10.295 22.95 22.95 22.95 22.95-10.295 22.95-22.95-10.295-22.95-22.95-22.95zm0 30.9c-4.383 0-7.95-3.566-7.95-7.95 0-4.383 3.566-7.95 7.95-7.95s7.95 3.566 7.95 7.95c0 4.383-3.566 7.95-7.95 7.95z"/><path d="m152.991 223.482c-29.693 0-53.85 24.157-53.85 53.85s24.157 53.85 53.85 53.85 53.85-24.157 53.85-53.85-24.157-53.85-53.85-53.85zm0 92.7c-21.422 0-38.85-17.428-38.85-38.85s17.428-38.85 38.85-38.85 38.85 17.428 38.85 38.85-17.428 38.85-38.85 38.85z"/><path d="m358.991 254.382c-12.655 0-22.95 10.295-22.95 22.95s10.295 22.95 22.95 22.95c12.654 0 22.95-10.295 22.95-22.95s-10.295-22.95-22.95-22.95zm0 30.9c-4.384 0-7.95-3.566-7.95-7.95 0-4.383 3.566-7.95 7.95-7.95 4.383 0 7.95 3.566 7.95 7.95 0 4.383-3.566 7.95-7.95 7.95z"/><path d="m385.754 238.747c1.789-3.736.211-8.215-3.524-10.004-7.287-3.49-15.105-5.26-23.239-5.26-29.693 0-53.85 24.157-53.85 53.85s24.157 53.85 53.85 53.85 53.85-24.157 53.85-53.85c0-6.601-1.182-13.051-3.514-19.169-1.475-3.871-5.809-5.815-9.679-4.338-3.871 1.475-5.813 5.808-4.338 9.679 1.679 4.407 2.531 9.06 2.531 13.829 0 21.422-17.428 38.85-38.85 38.85s-38.85-17.428-38.85-38.85 17.428-38.85 38.85-38.85c5.873 0 11.511 1.274 16.758 3.789 3.737 1.787 8.215.209 10.005-3.526z"/><path d="m255.991 285.282c-18.645 0-33.25 10.081-33.25 22.95s14.605 22.95 33.25 22.95 33.25-10.081 33.25-22.95-14.605-22.95-33.25-22.95zm0 30.9c-11.321 0-18.25-5.147-18.25-7.95s6.929-7.95 18.25-7.95 18.25 5.147 18.25 7.95-6.929 7.95-18.25 7.95z"/><path d="m225.111 190.407h-.01c-4.142 0-7.495 3.358-7.495 7.5s3.363 7.5 7.505 7.5 7.5-3.358 7.5-7.5-3.358-7.5-7.5-7.5z"/><path d="m263.511 197.907c0-4.142-3.358-7.5-7.5-7.5h-.01c-4.142 0-7.495 3.358-7.495 7.5s3.363 7.5 7.505 7.5 7.5-3.358 7.5-7.5z"/><path d="m294.411 197.907c0-4.142-3.358-7.5-7.5-7.5h-.01c-4.142 0-7.495 3.358-7.495 7.5s3.363 7.5 7.505 7.5 7.5-3.358 7.5-7.5z"/><path d="m302.344 214.097h-.01c-4.142 0-7.495 3.358-7.495 7.5s3.363 7.5 7.505 7.5 7.5-3.358 7.5-7.5-3.358-7.5-7.5-7.5z"/><path d="m278.944 221.597c0-4.142-3.358-7.5-7.5-7.5h-.01c-4.142 0-7.495 3.358-7.495 7.5s3.363 7.5 7.505 7.5 7.5-3.358 7.5-7.5z"/><path d="m248.044 221.597c0-4.142-3.358-7.5-7.5-7.5h-.01c-4.142 0-7.495 3.358-7.495 7.5s3.363 7.5 7.505 7.5 7.5-3.358 7.5-7.5z"/><path d="m217.144 221.597c0-4.142-3.358-7.5-7.5-7.5h-.01c-4.142 0-7.495 3.358-7.495 7.5s3.363 7.5 7.505 7.5 7.5-3.358 7.5-7.5z"/><path d="m230.491 262.739c0 4.142 3.358 7.5 7.5 7.5h36c4.142 0 7.5-3.358 7.5-7.5s-3.358-7.5-7.5-7.5h-36c-4.142 0-7.5 3.358-7.5 7.5z"/></g></svg>