<svg id="Capa_1" enable-background="new 0 0 512 512" height="512" viewBox="0 0 512 512" width="512" xmlns="http://www.w3.org/2000/svg"><g><path d="m484.5 0h-265c-15.164 0-27.5 12.336-27.5 27.5v33.5c0 4.142 3.358 7.5 7.5 7.5s7.5-3.358 7.5-7.5v-33.5c0-6.893 5.607-12.5 12.5-12.5h265c6.893 0 12.5 5.607 12.5 12.5v265c0 6.893-5.607 12.5-12.5 12.5h-164.5v-85.5c0-15.164-12.336-27.5-27.5-27.5h-85.5v-96c0-4.142-3.358-7.5-7.5-7.5s-7.5 3.358-7.5 7.5v96h-164.5c-15.164 0-27.5 12.336-27.5 27.5v265c0 15.164 12.336 27.5 27.5 27.5h265c15.164 0 27.5-12.336 27.5-27.5v-63c0-4.142-3.358-7.5-7.5-7.5s-7.5 3.358-7.5 7.5v63c0 6.893-5.607 12.5-12.5 12.5h-265c-6.893 0-12.5-5.607-12.5-12.5v-265c0-6.893 5.607-12.5 12.5-12.5h265c6.893 0 12.5 5.607 12.5 12.5v167c0 4.142 3.358 7.5 7.5 7.5s7.5-3.358 7.5-7.5v-66.5h164.5c15.164 0 27.5-12.336 27.5-27.5v-265c0-15.164-12.336-27.5-27.5-27.5z"/><path d="m311.967 80.108c0-19.299-15.701-35-35-35s-35 15.701-35 35 15.701 35 35 35 35-15.7 35-35zm-55 0c0-11.028 8.972-20 20-20s20 8.972 20 20-8.972 20-20 20-20-8.972-20-20z"/><path d="m430.36 99.834c-4.085.682-6.844 4.547-6.162 8.633.612 3.667 3.785 6.601 7.389 6.266 16.907-1.791 30.532-17.244 30.447-34.624 0-19.299-15.701-35-35-35s-35 15.701-35 35c0 5.417 1.206 10.613 3.585 15.445 1.83 3.716 6.325 5.247 10.041 3.416 3.716-1.83 5.246-6.325 3.416-10.041-1.355-2.753-2.042-5.721-2.042-8.82 0-11.028 8.972-20 20-20s20 8.972 20 20c-.001 9.816-7.013 18.112-16.674 19.725z"/><path d="m427.033 274.892c19.299 0 35-15.701 35-35s-15.701-35-35-35-35 15.701-35 35 15.701 35 35 35zm0-55c11.028 0 20 8.972 20 20s-8.972 20-20 20-20-8.972-20-20 8.972-20 20-20z"/><path d="m352 195c19.299 0 35-15.701 35-35s-15.701-35-35-35-35 15.701-35 35 15.701 35 35 35zm0-55c11.028 0 20 8.972 20 20s-8.972 20-20 20-20-8.972-20-20 8.972-20 20-20z"/><path d="m97.074 332c4.642 0 8.995 1.542 12.589 4.458 3.217 2.61 7.94 2.118 10.55-1.098s2.119-7.94-1.098-10.55c-6.207-5.036-14.035-7.81-22.041-7.81-19.299 0-35 15.701-35 35s15.701 35 35 35c14.097 0 26.754-8.39 32.247-21.374 1.613-3.815-.171-8.216-3.986-9.83-3.816-1.612-8.215.17-9.83 3.986-3.139 7.422-10.374 12.218-18.431 12.218-11.028 0-20-8.972-20-20s8.972-20 20-20z"/><path d="m97.074 229.872c-19.299 0-35 15.701-35 35s15.701 35 35 35 35-15.701 35-35-15.701-35-35-35zm0 55c-11.028 0-20-8.972-20-20s8.972-20 20-20 20 8.972 20 20-8.972 20-20 20z"/><path d="m97.074 474.128c19.299 0 35-15.701 35-35s-15.701-35-35-35-35 15.701-35 35 15.7 35 35 35zm0-55c11.028 0 20 8.972 20 20s-8.972 20-20 20-20-8.972-20-20 8.972-20 20-20z"/><path d="m222.926 317c-19.299 0-35 15.701-35 35s15.701 35 35 35 35-15.701 35-35-15.7-35-35-35zm0 55c-11.028 0-20-8.972-20-20s8.972-20 20-20 20 8.972 20 20-8.972 20-20 20z"/><path d="m222.926 229.872c-19.299 0-35 15.701-35 35s15.701 35 35 35 35-15.701 35-35-15.7-35-35-35zm0 55c-11.028 0-20-8.972-20-20s8.972-20 20-20 20 8.972 20 20-8.972 20-20 20z"/><path d="m222.926 404.128c-19.299 0-35 15.701-35 35s15.701 35 35 35 35-15.701 35-35-15.7-35-35-35zm0 55c-11.028 0-20-8.972-20-20s8.972-20 20-20 20 8.972 20 20-8.972 20-20 20z"/></g></svg>