<svg id="Capa_1" enable-background="new 0 0 512 512" height="512" viewBox="0 0 512 512" width="512" xmlns="http://www.w3.org/2000/svg"><g><path d="m499.5 457h-20.5v-16.713c5.902-2.816 10-8.824 10-15.787v-10c0-8.271-5.775-15.204-13.5-17.021v-12.979c0-9.481-7.583-17.207-17-17.475v-7.525c0-11.041-7.996-20.243-18.5-22.137v-12.863c0-6.893-5.607-12.5-12.5-12.5h-68c-6.893 0-12.5 5.607-12.5 12.5v12.5h-13.5v-32.5c0-8.798-6.534-16.081-15-17.3v-12.7c0-9.649-7.851-17.5-17.5-17.5h-10.913l13.691-124.233c16.617-13.768 27.222-34.551 27.222-57.767 0-41.355-33.645-75-75-75-19.833 0-38.532 7.667-52.654 21.59-2.95 2.908-2.983 7.657-.075 10.606s7.656 2.983 10.606.075c11.297-11.137 26.257-17.271 42.123-17.271 33.084 0 60 26.916 60 60s-26.916 60-60 60-60-26.916-60-60c0-5.529.75-11.004 2.23-16.272 1.121-3.988-1.204-8.129-5.191-9.249-3.988-1.123-8.128 1.204-9.249 5.191-1.852 6.589-2.79 13.429-2.79 20.33 0 23.216 10.605 43.999 27.222 57.767l13.691 124.233h-10.913c-9.649 0-17.5 7.851-17.5 17.5v12.7c-8.466 1.22-15 8.502-15 17.3v32.5h-13.5v-12.5c0-6.893-5.607-12.5-12.5-12.5h-68c-6.893 0-12.5 5.607-12.5 12.5v12.863c-10.504 1.893-18.5 11.096-18.5 22.137v7.525c-9.417.268-17 7.994-17 17.475v12.979c-7.725 1.817-13.5 8.75-13.5 17.021v10c0 6.963 4.098 12.972 10 15.787v16.713h-20.5c-6.893 0-12.5 5.607-12.5 12.5 0 11.676 4.547 22.653 12.803 30.91 7.474 7.474 17.411 11.59 27.981 11.59h430.432c10.57 0 20.507-4.116 27.981-11.59 8.256-8.257 12.803-19.234 12.803-30.91 0-6.893-5.607-12.5-12.5-12.5zm-127.5 0v-15h92v15zm-217 0v-16.713c5.181-2.472 8.953-7.406 9.8-13.287h182.4c.847 5.881 4.62 10.816 9.8 13.287v16.713zm-114.5-30c-1.378 0-2.5-1.122-2.5-2.5v-10c0-1.378 1.122-2.5 2.5-2.5h107c1.378 0 2.5 1.122 2.5 2.5v10c0 1.378-1.122 2.5-2.5 2.5zm420-42.5v12.5h-25.309c-4.142 0-7.5 3.358-7.5 7.5s3.358 7.5 7.5 7.5h36.309c1.378 0 2.5 1.122 2.5 2.5v10c0 1.378-1.122 2.5-2.5 2.5h-107c-1.378 0-2.5-1.122-2.5-2.5v-10c0-1.378 1.122-2.5 2.5-2.5h35.691c4.142 0 7.5-3.358 7.5-7.5s-3.358-7.5-7.5-7.5h-24.691v-12.5c0-1.378 1.122-2.5 2.5-2.5h80c1.378 0 2.5 1.122 2.5 2.5zm-98.5-57.5h63v10h-63zm-137.557-183.986c9.6 4.472 20.288 6.986 31.557 6.986s21.958-2.514 31.557-6.986l-12.562 113.986h-37.99zm-13.443 128.986h90c1.378 0 2.5 1.122 2.5 2.5v12.5h-95v-12.5c0-1.378 1.122-2.5 2.5-2.5zm-61 55v10h-63v-10zm-74 25h180c4.142 0 7.5-3.358 7.5-7.5s-3.358-7.5-7.5-7.5h-62.5v-32.5c0-1.378 1.122-2.5 2.5-2.5h120c1.378 0 2.5 1.122 2.5 2.5v32.5h-27.5c-4.142 0-7.5 3.358-7.5 7.5s3.358 7.5 7.5 7.5h145c4.136 0 7.5 3.364 7.5 7.5v7.5h-65.5c-9.649 0-17.5 7.851-17.5 17.5v12.979c-6.93 1.629-12.272 7.38-13.3 14.521h-182.4c-1.029-7.14-6.37-12.891-13.3-14.521v-12.979c0-9.649-7.851-17.5-17.5-17.5h-65.5v-7.5c0-4.136 3.364-7.5 7.5-7.5zm-22 30h80c1.378 0 2.5 1.122 2.5 2.5v12.5h-85v-12.5c0-1.378 1.122-2.5 2.5-2.5zm434.59 107.803c-4.641 4.641-10.812 7.197-17.375 7.197h-430.431c-6.563 0-12.733-2.556-17.375-7.197-4.83-4.83-7.727-11.077-8.303-17.803h61.213c4.142 0 7.5-3.358 7.5-7.5s-3.358-7.5-7.5-7.5h-28.319v-15h92v15h-28.681c-4.142 0-7.5 3.358-7.5 7.5s3.358 7.5 7.5 7.5h385.574c-.576 6.727-3.473 12.974-8.303 17.803z"/></g></svg>