<svg id="Capa_1" enable-background="new 0 0 511.952 511.952" height="512" viewBox="0 0 511.952 511.952" width="512" xmlns="http://www.w3.org/2000/svg"><g><path d="m111.68 354.31c-2.929 2.929-2.929 7.678 0 10.606l35.355 35.355c1.464 1.464 3.384 2.197 5.303 2.197s3.839-.732 5.303-2.197c2.929-2.929 2.929-7.678 0-10.606l-35.355-35.355c-2.928-2.929-7.677-2.929-10.606 0z"/><path d="m219.369 285.083 7.5 7.501c3.84 3.839 8.883 5.759 13.927 5.759s10.088-1.92 13.928-5.759l9.367-9.367c2.929-2.929 2.929-7.678-.001-10.606-2.928-2.93-7.677-2.928-10.606 0l-9.366 9.366c-1.83 1.832-4.81 1.832-6.642 0l-7.5-7.5c-1.831-1.831-1.831-4.811 0-6.642l42.857-42.856c1.83-1.831 4.811-1.83 6.641 0l7.501 7.502c.887.887 1.375 2.066 1.375 3.32s-.488 2.434-1.376 3.321l-8.899 8.9c-2.929 2.929-2.929 7.678.001 10.606 2.928 2.93 7.677 2.929 10.606 0l8.898-8.899c3.721-3.72 5.77-8.667 5.77-13.928 0-5.262-2.049-10.208-5.769-13.927l-7.501-7.502c-7.68-7.68-20.175-7.677-27.854 0l-42.856 42.856c-7.68 7.679-7.68 20.175-.001 27.855z"/><path d="m207.062 357.923c14.621-14.621 14.621-38.412 0-53.033s-38.412-14.621-53.033 0c-14.622 14.621-14.622 38.412 0 53.033 7.311 7.311 16.914 10.966 26.517 10.966s19.206-3.655 26.516-10.966zm-42.427-42.426c4.387-4.387 10.147-6.579 15.91-6.579 5.761 0 11.524 2.193 15.91 6.579 8.772 8.773 8.772 23.047 0 31.82-8.773 8.772-23.047 8.772-31.82 0-8.773-8.773-8.773-23.047 0-31.82z"/><path d="m482.623 29.331c-39.107-39.107-102.737-39.105-141.845 0-18.943 18.944-29.376 44.131-29.376 70.922 0 13.769 2.763 27.112 8.014 39.405l-33.811 3.802-8.484-8.484c-3.762-3.763-9.341-4.808-14.215-2.663-14.203 6.218-31.004 13.227-44.431 22.021-3.493 2.227-4.52 6.863-2.293 10.356s6.863 4.52 10.356 2.293c11.12-7.455 28.709-14.98 41.04-20.336l97.73 97.73-7.554 17.147c-8.913 20.231-21.358 38.417-36.991 54.049-12.301 12.3-26.308 22.708-41.633 30.935-32.17 17.27-60.226 40.338-83.388 68.563l-43.939 53.543-21.083-21.084c-2.929-2.929-7.678-2.929-10.606 0-2.929 2.929-2.929 7.678 0 10.606l21.097 21.097c-12.726 10.516-28.626 16.805-45.342 17.626-21.687 1.067-42.936-7.129-58.292-22.485-15.355-15.355-23.551-36.602-22.485-58.292.821-16.716 7.11-32.616 17.626-45.342l62.757 62.757c1.464 1.464 3.384 2.197 5.303 2.197s3.839-.732 5.303-2.197c2.929-2.929 2.929-7.678 0-10.606l-62.741-62.741 53.543-43.939c28.225-23.162 51.292-51.218 68.563-83.388 8.227-15.325 18.635-29.332 30.935-41.632 1.254-1.254 2.541-2.502 3.824-3.711 3.016-2.839 3.158-7.586.319-10.602s-7.586-3.159-10.602-.318c-1.393 1.311-2.788 2.665-4.147 4.025-13.337 13.338-24.624 28.526-33.544 45.144-16.338 30.434-38.161 56.975-64.863 78.887l-53.699 44.067c-20.054 16.455-32.285 40.754-33.559 66.664-1.273 25.911 8.517 51.291 26.86 69.635 18.043 18.076 43.764 28.139 69.635 26.86 25.91-1.273 50.208-13.505 66.665-33.558l44.067-53.699c21.912-26.702 48.453-48.524 78.888-64.863 16.617-8.921 31.806-20.207 45.144-33.544 16.951-16.952 30.447-36.67 40.111-58.608l8.159-18.521c2.115-4.796 1.046-10.509-2.661-14.216l-8.485-8.485 3.81-33.883c12.446 5.309 25.885 8.08 39.486 8.08 9.066 0 18.204-1.228 27.163-3.749 3.987-1.122 6.311-5.264 5.188-9.251s-5.264-6.311-9.251-5.188c-29.711 8.359-61.707.01-83.504-21.788-16.111-16.111-24.983-37.531-24.983-60.315s8.872-44.205 24.983-60.315c33.257-33.257 87.371-33.259 120.63 0 33.258 33.258 33.258 87.373 0 120.63-2.598 2.598-5.38 5.046-8.27 7.278-3.277 2.532-3.883 7.242-1.351 10.52s7.243 3.882 10.521 1.351c3.393-2.621 6.659-5.495 9.707-8.543 39.106-39.107 39.106-102.738.001-141.844zm-155.703 124.577c3.926 6.176 8.558 11.966 13.858 17.266 5.289 5.289 11.09 9.902 17.271 13.811l-3.125 27.793-55.75-55.75z"/><path d="m260.449 193.024c0-11.05-8.96-20-20-20-11.05 0-20 8.95-20 20 0 11.04 8.95 20 20 20 11.04 0 20-8.96 20-20zm-25 0c0-2.77 2.23-5 5-5 2.76 0 5 2.23 5 5 0 2.76-2.24 5-5 5-2.77 0-5-2.24-5-5z"/><path d="m198.022 215.441c-11.05 0-20 8.95-20 20 0 11.04 8.95 20 20 20 11.04 0 20-8.96 20-20 0-11.05-8.96-20-20-20zm0 25c-2.77 0-5-2.24-5-5 0-2.77 2.23-5 5-5 2.76 0 5 2.23 5 5 0 2.76-2.24 5-5 5z"/><path d="m256.505 313.935c0 11.04 8.95 20 20 20 11.04 0 20-8.96 20-20 0-11.05-8.96-20-20-20-11.05 0-20 8.95-20 20zm25 0c0 2.76-2.24 5-5 5-2.77 0-5-2.24-5-5 0-2.77 2.23-5 5-5 2.76 0 5 2.23 5 5z"/><path d="m318.937 291.508c11.04 0 20-8.96 20-20 0-11.05-8.96-20-20-20-11.05 0-20 8.95-20 20 0 11.04 8.95 20 20 20zm0-25c2.76 0 5 2.23 5 5 0 2.76-2.24 5-5 5-2.77 0-5-2.24-5-5 0-2.77 2.23-5 5-5z"/></g></svg>