<svg id="Capa_1" enable-background="new 0 0 512 512" height="512" viewBox="0 0 512 512" width="512" xmlns="http://www.w3.org/2000/svg"><g><path d="m492.5 82.5h-473c-10.752 0-19.5 8.748-19.5 19.5v160.997c0 4.143 3.358 7.5 7.5 7.5s7.5-3.357 7.5-7.5v-160.997c0-2.481 2.019-4.5 4.5-4.5h473c2.481 0 4.5 2.019 4.5 4.5v276c0 2.481-2.019 4.5-4.5 4.5h-186.5c-4.142 0-7.5 3.357-7.5 7.5s3.358 7.5 7.5 7.5h152.5v14.5c0 1.379-1.122 2.5-2.5 2.5h-400c-1.378 0-2.5-1.121-2.5-2.5v-14.5h217.5c4.142 0 7.5-3.357 7.5-7.5s-3.358-7.5-7.5-7.5h-251.5c-2.481 0-4.5-2.019-4.5-4.5v-80.003c0-4.143-3.358-7.5-7.5-7.5s-7.5 3.357-7.5 7.5v80.003c0 10.752 8.748 19.5 19.5 19.5h19v14.5c0 9.649 7.851 17.5 17.5 17.5h400c9.649 0 17.5-7.851 17.5-17.5v-14.5h19c10.752 0 19.5-8.748 19.5-19.5v-276c0-10.752-8.748-19.5-19.5-19.5z"/><path d="m256 217.5c12.407 0 22.5-10.094 22.5-22.5s-10.093-22.5-22.5-22.5-22.5 10.094-22.5 22.5 10.093 22.5 22.5 22.5zm0-30c4.136 0 7.5 3.364 7.5 7.5s-3.364 7.5-7.5 7.5-7.5-3.364-7.5-7.5 3.364-7.5 7.5-7.5z"/><path d="m256 317.5c12.407 0 22.5-10.094 22.5-22.5s-10.093-22.5-22.5-22.5-22.5 10.094-22.5 22.5 10.093 22.5 22.5 22.5zm0-30c4.136 0 7.5 3.364 7.5 7.5s-3.364 7.5-7.5 7.5-7.5-3.364-7.5-7.5 3.364-7.5 7.5-7.5z"/><path d="m78 121.5c-4.142 0-7.5 3.357-7.5 7.5v4.5h-14.5c-9.649 0-17.5 7.851-17.5 17.5v190c0 9.649 7.851 17.5 17.5 17.5h140c9.649 0 17.5-7.851 17.5-17.5v-190c0-9.649-7.851-17.5-17.5-17.5h-14.5v-4.5c0-4.143-3.358-7.5-7.5-7.5s-7.5 3.357-7.5 7.5v4.5h-17v-4.5c0-4.143-3.358-7.5-7.5-7.5s-7.5 3.357-7.5 7.5v4.5h-17v-4.5c0-4.143-3.358-7.5-7.5-7.5s-7.5 3.357-7.5 7.5v4.5h-17v-4.5c0-4.143-3.358-7.5-7.5-7.5zm24.5 27v4.5c0 4.143 3.358 7.5 7.5 7.5s7.5-3.357 7.5-7.5v-4.5h17v4.5c0 4.143 3.358 7.5 7.5 7.5s7.5-3.357 7.5-7.5v-4.5h17v4.5c0 4.143 3.358 7.5 7.5 7.5s7.5-3.357 7.5-7.5v-4.5h14.5c1.378 0 2.5 1.121 2.5 2.5v190c0 1.379-1.122 2.5-2.5 2.5h-140c-1.378 0-2.5-1.121-2.5-2.5v-190c0-1.379 1.122-2.5 2.5-2.5h14.5v4.5c0 4.143 3.358 7.5 7.5 7.5s7.5-3.357 7.5-7.5v-4.5z"/><path d="m338 121.5c-4.142 0-7.5 3.357-7.5 7.5v4.5h-14.5c-9.649 0-17.5 7.851-17.5 17.5v190c0 9.649 7.851 17.5 17.5 17.5h140c9.649 0 17.5-7.851 17.5-17.5v-190c0-9.649-7.851-17.5-17.5-17.5h-14.5v-4.5c0-4.143-3.358-7.5-7.5-7.5s-7.5 3.357-7.5 7.5v4.5h-17v-4.5c0-4.143-3.358-7.5-7.5-7.5s-7.5 3.357-7.5 7.5v4.5h-17v-4.5c0-4.143-3.358-7.5-7.5-7.5s-7.5 3.357-7.5 7.5v4.5h-17v-4.5c0-4.143-3.358-7.5-7.5-7.5zm24.5 27v4.5c0 4.143 3.358 7.5 7.5 7.5s7.5-3.357 7.5-7.5v-4.5h17v4.5c0 4.143 3.358 7.5 7.5 7.5s7.5-3.357 7.5-7.5v-4.5h17v4.5c0 4.143 3.358 7.5 7.5 7.5s7.5-3.357 7.5-7.5v-4.5h14.5c1.378 0 2.5 1.121 2.5 2.5v190c0 1.379-1.122 2.5-2.5 2.5h-140c-1.378 0-2.5-1.121-2.5-2.5v-190c0-1.379 1.122-2.5 2.5-2.5h14.5v4.5c0 4.143 3.358 7.5 7.5 7.5s7.5-3.357 7.5-7.5v-4.5z"/><path d="m334.743 197c0 11.579 9.42 21 21 21h28.344l-9.884 22.484c-1.667 3.792.056 8.218 3.848 9.885 3.792 1.668 8.218-.056 9.884-3.848l14.508-33.003c1.02-2.319.799-4.997-.585-7.118s-3.747-3.4-6.28-3.4h-39.833c-3.309 0-6-2.691-6-6s2.691-6 6-6h60.515c2.034 0 3.912 1.017 5.024 2.721 1.112 1.703 1.287 3.831.468 5.693l-48.355 110.001c-.958 2.18-3.117 3.588-5.504 3.588-.001 0-.002 0-.003 0-.822 0-1.629-.172-2.4-.511-1.467-.645-2.595-1.822-3.176-3.315s-.546-3.124.099-4.591l11.43-26.002c1.667-3.792-.056-8.218-3.848-9.885-3.791-1.665-8.216.056-9.884 3.848l-11.43 26.002c-2.257 5.135-2.38 10.842-.345 16.069 2.035 5.228 5.983 9.35 11.118 11.605 2.684 1.181 5.523 1.779 8.433 1.779h.011c8.331 0 15.88-4.927 19.231-12.552l48.355-110c2.866-6.518 2.253-13.968-1.639-19.929-3.892-5.963-10.465-9.522-17.585-9.522h-60.515c-11.582.001-21.002 9.422-21.002 21.001z"/><path d="m77.577 228.698c2.724 4.904 7.195 8.453 12.587 9.993 5.394 1.543 11.065.892 15.969-1.834 4.903-2.725 8.452-7.195 9.993-12.588 1.506-5.271 3.89-6.27 7.763-6.27 1.459 0 2.786.438 3.941 1.302 2.105 1.575 2.826 4.681 1.792 7.73-8.476 18.415-37.553 53.886-39.885 57.776-7.306 9.565-12.584 16.478-9.172 27.571 2.068 6.725 7.128 11.873 13.883 14.124 3 1 5.561 1.522 26.9 1.522 8.703 0 20.146-.091 34.984-.277 11.579-.146 20.88-9.684 20.734-21.263-.144-11.434-9.562-20.735-20.995-20.735-3.596.042-9.117.106-14.785.152 8.71-12.532 22.686-29.602 28.113-45.392 3.109-9.175 3.538-18.908 1.238-28.147-1-4.02-5.069-6.467-9.089-5.467-4.02 1.001-6.467 5.07-5.466 9.09 1.604 6.446 1.297 13.262-.889 19.711-6.386 17.151-24.707 38.744-34.797 53.315-1.696 2.278-1.959 5.319-.68 7.854 1.279 2.537 3.897 4.117 6.72 4.123 9.007-.028 19.504-.113 29.635-.24 3.265 0 5.955 2.658 5.996 5.925.042 3.308-2.616 6.033-5.924 6.075-14.774.186-26.156.275-34.795.275-19.899 0-21.424-.508-22.158-.753-2.13-.71-3.653-2.238-4.289-4.304-1.014-3.298-.257-4.875 6.756-14.057 3.078-4.972 34.361-42.864 42.17-62.066 3.124-9.214.304-19.083-7.016-24.557-3.752-2.807-8.222-4.29-12.924-4.29-11.147 0-19.026 6.09-22.186 17.148-.44 1.541-1.455 2.818-2.855 3.597s-3.019.968-4.562.523c-1.541-.439-2.818-1.454-3.597-2.854-.778-1.401-.964-3.021-.524-4.562 4.628-16.184 17.234-25.848 33.726-25.848 5.177 0 10.121 1.133 14.696 3.367 3.721 1.817 8.213.275 10.031-3.448 1.818-3.722.274-8.212-3.448-10.03-6.642-3.244-13.801-4.889-21.279-4.889-23.225 0-41.673 14.074-48.146 36.73-1.541 5.394-.89 11.065 1.834 15.968z"/></g></svg>