<svg id="Capa_1" enable-background="new 0 0 512 512" height="512" viewBox="0 0 512 512" width="512" xmlns="http://www.w3.org/2000/svg"><g><path d="m494.5 83.5h-477c-9.649 0-17.5 7.851-17.5 17.5v209.894c0 4.143 3.358 7.5 7.5 7.5s7.5-3.357 7.5-7.5v-209.894c0-1.379 1.122-2.5 2.5-2.5h477c1.378 0 2.5 1.121 2.5 2.5v225.319c0 4.143 3.358 7.5 7.5 7.5s7.5-3.357 7.5-7.5v-225.319c0-9.649-7.851-17.5-17.5-17.5z"/><path d="m504.5 353.819c-4.142 0-7.5 3.357-7.5 7.5v49.681c0 1.379-1.122 2.5-2.5 2.5h-477c-1.378 0-2.5-1.121-2.5-2.5v-65.106c0-4.143-3.358-7.5-7.5-7.5s-7.5 3.357-7.5 7.5v65.106c0 9.649 7.851 17.5 17.5 17.5h477c9.649 0 17.5-7.851 17.5-17.5v-49.681c0-4.142-3.358-7.5-7.5-7.5z"/><path d="m194.5 248.5h280c4.142 0 7.5-3.357 7.5-7.5v-120c0-4.143-3.358-7.5-7.5-7.5h-280c-4.142 0-7.5 3.357-7.5 7.5v120c0 4.143 3.358 7.5 7.5 7.5zm272.5-55h-25v-25h25zm-40 0h-25v-25h25zm-145 15h25v25h-25zm-15 25h-25v-25h25zm80-40h-25v-25h25zm15-25h25v25h-25zm-55 25h-25v-25h25zm15 15h25v25h-25zm40 0h25v25h-25zm40 0h25v25h-25zm0-55v-25h25v25zm-15 0h-25v-25h25zm-40 0h-25v-25h25zm-40 0h-25v-25h25zm-40 0h-25v-25h25zm0 15v25h-25v-25zm-40 25h-25v-25h25zm-25 15h25v25h-25zm240 25v-25h25v25zm25-80h-25v-25h25zm-240-25v25h-25v-25z"/><path d="m187 391c0 4.143 3.358 7.5 7.5 7.5h280c4.142 0 7.5-3.357 7.5-7.5v-120c0-4.143-3.358-7.5-7.5-7.5h-280c-4.142 0-7.5 3.357-7.5 7.5zm280-47.5h-25v-25h25zm-40 0h-25v-25h25zm-145 15h25v25h-25zm-15 25h-25v-25h25zm80-40h-25v-25h25zm15-25h25v25h-25zm-55 25h-25v-25h25zm15 15h25v25h-25zm40 0h25v25h-25zm40 0h25v25h-25zm0-55v-25h25v25zm-15 0h-25v-25h25zm-40 0h-25v-25h25zm-40 0h-25v-25h25zm-40 0h-25v-25h25zm0 15v25h-25v-25zm-40 25h-25v-25h25zm-25 15h25v25h-25zm240 25v-25h25v25zm25-80h-25v-25h25zm-240-25v25h-25v-25z"/><path d="m76 128.5c4.142 0 7.5-3.357 7.5-7.5s-3.358-7.5-7.5-7.5h-38.5c-4.142 0-7.5 3.357-7.5 7.5v40c0 4.143 3.358 7.5 7.5 7.5h127c4.142 0 7.5-3.357 7.5-7.5v-40c0-4.143-3.358-7.5-7.5-7.5h-53.5c-4.142 0-7.5 3.357-7.5 7.5s3.358 7.5 7.5 7.5h46v25h-112v-25z"/><path d="m76 203.5c-4.142 0-7.5 3.357-7.5 7.5s3.358 7.5 7.5 7.5h50c4.142 0 7.5-3.357 7.5-7.5s-3.358-7.5-7.5-7.5z"/><path d="m37.5 248.5h127c4.142 0 7.5-3.357 7.5-7.5s-3.358-7.5-7.5-7.5h-127c-4.142 0-7.5 3.357-7.5 7.5s3.358 7.5 7.5 7.5z"/><path d="m164.5 263.5h-53.5c-4.142 0-7.5 3.357-7.5 7.5s3.358 7.5 7.5 7.5h53.5c4.142 0 7.5-3.357 7.5-7.5s-3.358-7.5-7.5-7.5z"/><path d="m37.5 278.5h38.5c4.142 0 7.5-3.357 7.5-7.5s-3.358-7.5-7.5-7.5h-38.5c-4.142 0-7.5 3.357-7.5 7.5s3.358 7.5 7.5 7.5z"/><path d="m37.5 308.5h127c4.142 0 7.5-3.357 7.5-7.5s-3.358-7.5-7.5-7.5h-127c-4.142 0-7.5 3.357-7.5 7.5s3.358 7.5 7.5 7.5z"/><path d="m134.5 353.5h-67c-4.142 0-7.5 3.357-7.5 7.5s3.358 7.5 7.5 7.5h67c4.142 0 7.5-3.357 7.5-7.5s-3.358-7.5-7.5-7.5z"/><path d="m30 391c0 4.143 3.358 7.5 7.5 7.5h127c4.142 0 7.5-3.357 7.5-7.5v-60c0-4.143-3.358-7.5-7.5-7.5h-127c-4.142 0-7.5 3.357-7.5 7.5zm15-52.5h112v45h-112z"/></g></svg>