<svg id="Capa_1" enable-background="new 0 0 512 512" height="512" viewBox="0 0 512 512" width="512" xmlns="http://www.w3.org/2000/svg"><g><path d="m512 294.72c0-12.406-10.094-22.5-22.5-22.5s-22.5 10.094-22.5 22.5v76h-35.5v-4c0-26.191-21.309-47.5-47.5-47.5s-47.5 21.309-47.5 47.5v4h-35v-4c0-14.307-6.356-27.712-17.439-36.778-3.205-2.622-7.931-2.15-10.554 1.056s-2.15 7.931 1.056 10.554c7.587 6.207 11.938 15.38 11.938 25.169v4h-65v-4c0-15.456 10.981-28.86 26.11-31.873 4.062-.809 6.7-4.758 5.891-8.82s-4.759-6.703-8.82-5.891c-22.124 4.404-38.181 23.996-38.181 46.584v4h-35v-53c0-26.191-21.309-47.5-47.5-47.5s-47.5 21.309-47.5 47.5v53h-31.501v-76c0-12.406-10.093-22.5-22.5-22.5s-22.5 10.093-22.5 22.499v113.5c0 9.649 7.851 17.5 17.5 17.5h1v59c0 9.649 7.851 17.5 17.5 17.5h440c9.649 0 17.5-7.851 17.5-17.5v-59h1c9.649 0 17.5-7.851 17.5-17.5 0-20.483 0-92.023 0-113.5zm-30 0c0-4.136 3.364-7.5 7.5-7.5s7.5 3.364 7.5 7.5v76h-15zm-130.5 72c0-17.921 14.579-32.5 32.5-32.5s32.5 14.579 32.5 32.5v4h-65zm-260-41.5h65v15h-65zm32.5-40c15.339 0 28.221 10.685 31.617 25h-63.234c3.396-14.315 16.278-25 31.617-25zm-32.5 70h65v15.5h-65zm-69-68c4.136 0 7.5 3.364 7.5 7.5v76h-15v-76c0-4.136 3.364-7.5 7.5-7.5zm474.5 121c0 1.379-1.121 2.5-2.5 2.5h-386.436c-4.142 0-7.5 3.357-7.5 7.5s3.358 7.5 7.5 7.5h98.436v34c0 6.893 5.607 12.5 12.5 12.5h70c6.893 0 12.5-5.607 12.5-12.5v-34h35v34c0 6.893 5.607 12.5 12.5 12.5h70c6.893 0 12.5-5.607 12.5-12.5v-34h47v59c0 1.379-1.121 2.5-2.5 2.5h-440c-1.378 0-2.5-1.121-2.5-2.5v-59h39.564c4.142 0 7.5-3.357 7.5-7.5s-3.358-7.5-7.5-7.5h-55.564c-1.378 0-2.5-1.121-2.5-2.5v-22.5h482zm-145.5 17.5h65v31.5h-65zm-130 0h65v31.5h-65z"/><path d="m78.698 181.862 90.067 52c2.696 1.557 5.689 2.353 8.722 2.353 1.52 0 3.05-.2 4.558-.604 4.515-1.21 8.289-4.106 10.626-8.154l5.5-9.526c2.337-4.048 2.958-8.765 1.749-13.279-.947-3.533-2.936-6.6-5.691-8.891l14.636-25.35 75.095 43.356c-.512 6.52 2.642 13.073 8.672 16.554l128.172 74c2.696 1.557 5.689 2.353 8.722 2.353 1.521 0 3.051-.2 4.558-.604 4.516-1.21 8.29-4.106 10.626-8.154l15-25.98c4.825-8.356 1.951-19.08-6.405-23.905l-72.286-41.734c-3.59-2.071-8.175-.843-10.245 2.745-2.071 3.587-.842 8.174 2.745 10.245l72.286 41.734c1.193.689 1.604 2.222.915 3.415l-15.001 25.981c-.449.779-1.144 1.063-1.517 1.164-.372.102-1.117.2-1.897-.25l-128.172-74c-1.193-.689-1.604-2.222-.915-3.415l15-25.98c.45-.78 1.145-1.064 1.519-1.165.373-.101 1.116-.2 1.896.25l25.264 14.586c3.587 2.069 8.175.842 10.245-2.745 2.071-3.587.842-8.174-2.745-10.245l-25.263-14.586c-4.049-2.337-8.763-2.957-13.28-1.749-1.964.526-3.776 1.389-5.403 2.51l-75.085-43.351 15.134-26.212c1.953.717 3.979 1.073 5.989 1.072 6.052 0 11.947-3.139 15.185-8.746l5.5-9.525c2.337-4.048 2.958-8.765 1.749-13.28-1.21-4.515-4.105-8.289-8.154-10.626l-27.029-15.604c-3.588-2.071-8.175-.843-10.245 2.745-2.071 3.587-.842 8.174 2.745 10.245l27.029 15.604c.78.45 1.064 1.145 1.165 1.519.1.373.2 1.116-.25 1.896l-5.5 9.526c-.689 1.193-2.22 1.604-3.415.915l-3.896-2.25h-.001s-.001 0-.001 0l-86.169-49.75c-.78-.449-1.064-1.144-1.164-1.517-.1-.374-.201-1.117.25-1.897l5.5-9.525c.69-1.194 2.224-1.604 3.416-.916l32.725 18.895c3.586 2.069 8.173.843 10.245-2.745 2.071-3.587.842-8.174-2.745-10.245l-32.726-18.896c-8.357-4.822-19.079-1.949-23.905 6.406l-5.5 9.526c-2.337 4.049-2.958 8.765-1.748 13.279.947 3.533 2.936 6.6 5.691 8.892l-52.274 90.541c-7.835-2.872-16.857.197-21.169 7.666l-5.5 9.526c-4.83 8.352-1.957 19.076 6.4 23.902zm71.567-11.797 19.55-9.572c2.738-1.341 4.392-4.206 4.184-7.248l-2.103-30.731 27.668-13.549c2.738-1.34 4.392-4.205 4.184-7.247l-1.484-21.72 31.109 17.961-52 90.067zm36.346-99.105 1.828 26.75-27.668 13.549c-2.738 1.341-4.392 4.205-4.184 7.247l2.103 30.731-24.079 11.789-22.52-13.002 52-90.067zm110.864 115.969-7.5 12.99-73.612-42.5 7.5-12.99zm-212.192-21.473 5.5-9.526c.451-.78 1.145-1.064 1.518-1.165.16-.043.386-.086.655-.086.36 0 .795.078 1.243.336l3.896 2.249s.001 0 .001.001h.001l86.169 49.75c.78.45 1.064 1.145 1.165 1.518.1.374.201 1.117-.25 1.897l-5.5 9.526c-.45.78-1.144 1.064-1.518 1.165-.373.102-1.116.2-1.896-.25l-90.066-52c-1.197-.689-1.607-2.221-.918-3.415z"/></g></svg>