<svg id="Capa_1" enable-background="new 0 0 512 512" height="512" viewBox="0 0 512 512" width="512" xmlns="http://www.w3.org/2000/svg"><g><path d="m439.5 90.528h-261.1c-1.882-6.452-5.385-12.366-10.321-17.241-15.544-15.475-42.447-15.671-58.079.735-11.944-12.642-32.367-16.25-48.255-7.889-3.676 1.908-5.109 6.436-3.201 10.111 1.909 3.677 6.436 5.111 10.112 3.201 9.993-5.188 22.074-3.374 30.058 4.513l6.015 5.941c2.921 2.885 7.62 2.885 10.541 0l6.015-5.941c9.995-9.873 26.258-9.873 36.252 0 4.813 4.754 7.463 11.066 7.463 17.775s-2.65 13.021-7.462 17.774l-45.781 45.22c-.968.957-2.544.957-3.513 0l-45.781-45.22c-4.92-4.859-7.569-11.314-7.459-18.176.066-4.142-3.237-7.553-7.378-7.619-4.177-.072-7.553 3.237-7.62 7.379-.177 10.993 4.055 21.323 11.916 29.088l45.78 45.22c3.391 3.35 7.844 5.024 12.298 5.023 4.453 0 8.908-1.675 12.298-5.023l20.118-19.871h297.084c17.92 0 32.5-14.579 32.5-32.5s-14.58-32.5-32.5-32.5zm-271.421 39.652c6.776-6.692 10.864-15.334 11.739-24.651h218.182v35h-240.398zm271.421 10.348h-26.5v-35h26.5c9.649 0 17.5 7.851 17.5 17.5s-7.851 17.5-17.5 17.5z"/><path d="m439.5 225.528h-261.1c-1.882-6.452-5.385-12.366-10.321-17.241-15.544-15.476-42.447-15.671-58.079.735-15.251-16.025-42.095-16.593-58.079-.735-7.687 7.593-11.921 17.695-11.921 28.446s4.234 20.854 11.921 28.446l45.78 45.22c3.391 3.349 7.845 5.023 12.298 5.023s8.908-1.675 12.298-5.023l20.118-19.871h295.563c4.142 0 7.5-3.357 7.5-7.5s-3.358-7.5-7.5-7.5h-166.478v-35h168c9.649 0 17.5 7.851 17.5 17.5 0 1.168-.115 2.333-.341 3.462-.814 4.062 1.818 8.014 5.879 8.827.498.1.994.147 1.482.147 3.501 0 6.632-2.463 7.346-6.027.42-2.098.634-4.254.634-6.409 0-17.921-14.58-32.5-32.5-32.5zm-327.743 74.2c-.968.957-2.545.957-3.514 0l-45.781-45.22c-4.812-4.753-7.462-11.066-7.462-17.775s2.65-13.021 7.463-17.774c4.997-4.937 11.561-7.405 18.125-7.405s13.129 2.469 18.126 7.405l6.015 5.941c2.921 2.885 7.62 2.885 10.541 0l6.015-5.941c9.995-9.873 26.258-9.873 36.252 0 4.812 4.753 7.462 11.065 7.462 17.774s-2.65 13.021-7.462 17.774zm144.743-24.2h-98.898l10.477-10.349c6.776-6.692 10.864-15.334 11.739-24.651h76.682z"/><path d="m179.818 375.528h84.182c4.142 0 7.5-3.357 7.5-7.5s-3.358-7.5-7.5-7.5h-85.6c-1.882-6.452-5.385-12.366-10.321-17.241-15.544-15.475-42.447-15.671-58.079.735-15.251-16.024-42.095-16.592-58.079-.735-7.687 7.593-11.921 17.695-11.921 28.446s4.234 20.854 11.921 28.446l45.78 45.22c3.391 3.349 7.845 5.023 12.298 5.023s8.908-1.675 12.298-5.023l20.118-19.871h297.085c17.92 0 32.5-14.579 32.5-32.5s-14.58-32.5-32.5-32.5h-140.5c-4.142 0-7.5 3.357-7.5 7.5s3.358 7.5 7.5 7.5h57v35h-198.398l10.477-10.349c6.775-6.691 10.863-15.334 11.739-24.651zm191.182 0h68.5c9.649 0 17.5 7.851 17.5 17.5s-7.851 17.5-17.5 17.5h-68.5zm-213.462 13.98-45.781 45.22c-.968.957-2.544.957-3.513 0l-45.781-45.22c-4.813-4.753-7.463-11.066-7.463-17.775s2.65-13.021 7.463-17.774c4.997-4.937 11.561-7.405 18.125-7.405s13.129 2.469 18.126 7.405l6.015 5.941c2.921 2.885 7.62 2.885 10.541 0l6.015-5.941c9.995-9.873 26.258-9.873 36.252 0 4.812 4.753 7.462 11.065 7.462 17.774s-2.649 13.022-7.461 17.775z"/><path d="m504.5 130.528c4.142 0 7.5-3.357 7.5-7.5v-77.028c0-12.406-10.093-22.5-22.5-22.5h-467c-12.407 0-22.5 10.094-22.5 22.5v420c0 12.406 10.093 22.5 22.5 22.5h467c12.407 0 22.5-10.094 22.5-22.5v-307.972c0-4.143-3.358-7.5-7.5-7.5s-7.5 3.357-7.5 7.5v307.972c0 4.136-3.364 7.5-7.5 7.5h-467c-4.136 0-7.5-3.364-7.5-7.5v-420c0-4.136 3.364-7.5 7.5-7.5h467c4.136 0 7.5 3.364 7.5 7.5v77.028c0 4.143 3.358 7.5 7.5 7.5z"/></g></svg>