<svg id="Capa_1" enable-background="new 0 0 512 512" height="512" viewBox="0 0 512 512" width="512" xmlns="http://www.w3.org/2000/svg"><g><path d="m390.38 240.091 10.313-10.313c20.027-20.028 26.977-42.84 20.653-67.801-4.208-16.612-17.32-31.663-35.074-40.261-3.728-1.806-8.214-.247-10.019 3.481-1.806 3.728-.247 8.213 3.481 10.019 13.816 6.691 23.937 18.072 27.07 30.444 5.004 19.752-.465 37.256-16.72 53.511l-10.312 10.313-9.053-9.053 9.813-9.812c13.289-13.29 18.115-26.956 14.345-40.621-3.86-13.99-14.681-23.045-33.077-27.68-10.938-2.757-22.969-1.129-35.712.594-6.09.824-12.572 1.656-18.979 1.984-4.137.212-7.318 3.737-7.106 7.874.212 4.136 3.712 7.318 7.874 7.106 6.982-.357 13.819-1.233 20.225-2.101 11.266-1.522 21.903-2.962 30.034-.913 16.725 4.214 20.693 11.365 22.283 17.125 2.26 8.19-1.172 16.703-10.492 26.023l-9.814 9.813-25.578-25.578c-7.566-7.564-19.874-7.562-27.44 0l-29.518 29.518c-47.699-12.265-100.268-.966-139.313 34.379-3.071 2.78-3.307 7.522-.527 10.594 2.78 3.071 7.522 3.307 10.594.527 53.933-48.821 136.515-46.732 188.003 4.758 30.691 30.69 45.024 74.653 38.342 117.601-.637 4.093 2.165 7.928 6.258 8.564.391.061.779.09 1.163.09 3.633 0 6.825-2.646 7.401-6.348 3.199-20.56 2.047-41.328-3.02-61.036l29.632-29.633c3.665-3.664 5.684-8.537 5.684-13.72s-2.019-10.056-5.683-13.721zm15.124 42.564-24.136 24.136c-7.506-19.803-19.129-38.077-34.427-53.376-15.626-15.625-33.835-27.142-53.266-34.534l24.027-24.027c1.716-1.718 4.512-1.716 6.226 0l81.575 81.574c.832.831 1.29 1.937 1.29 3.113.001 1.177-.457 2.282-1.289 3.114z"/><path d="m375.441 409.568c-3.813-1.607-8.215.183-9.823 4.001-6.846 16.251-16.698 30.873-29.284 43.458-53.211 53.214-139.792 53.213-193.003 0-46.04-46.039-53.129-118.604-16.858-172.542 2.312-3.438 1.399-8.098-2.039-10.409s-8.098-1.398-10.409 2.038c-40.264 59.876-32.4 140.422 18.699 191.521 28.61 28.609 66.648 44.365 107.108 44.365s78.499-15.756 107.109-44.365c13.964-13.964 24.898-30.195 32.501-48.243 1.608-3.818-.183-8.215-4.001-9.824z"/><path d="m167.551 82.472 24.985 12.643-8.728 26.607c-.881 2.688-.176 5.642 1.823 7.642 2 1.999 4.954 2.706 7.641 1.822l26.608-8.728 12.644 24.986c1.277 2.522 3.864 4.113 6.692 4.113s5.415-1.591 6.692-4.113l4.993-9.867c1.342 1.818 2.741 3.471 4.214 4.944 4.478 4.479 9.528 8.147 15.009 10.902 1.081.543 2.229.801 3.362.801 2.745 0 5.39-1.514 6.707-4.134 1.86-3.701.368-8.209-3.333-10.069-4.047-2.034-7.794-4.762-11.138-8.106-2.29-2.289-4.411-5.328-6.433-9.215l25.683 8.424c.006.002.012.005.018.008 4.451 1.627 9.041 2.224 13.857 2.224 6.07-.001 12.5-.948 19.458-1.974 2.148-.317 4.36-.644 6.64-.951 6.57-.889 15.24-1.895 23.92-1.799h.086c4.103 0 7.451-3.303 7.498-7.416.046-4.142-3.273-7.537-7.416-7.584-9.647-.099-19.024.978-26.099 1.934-2.34.316-4.611.651-6.816.977-9.175 1.352-16.718 2.456-22.75 1.355l-7.473-22.783 24.986-12.643c2.522-1.277 4.113-3.864 4.113-6.692s-1.591-5.415-4.113-6.692l-24.986-12.643 8.728-26.608c.882-2.688.177-5.642-1.822-7.642-2-1.999-4.953-2.704-7.642-1.822l-26.608 8.727-12.644-24.987c-1.276-2.522-3.864-4.113-6.691-4.113s-5.415 1.591-6.692 4.113l-12.644 24.987-26.608-8.728c-2.687-.882-5.641-.177-7.641 1.822-2 2-2.705 4.954-1.823 7.642l8.728 26.608-24.985 12.643c-2.523 1.277-4.114 3.864-4.114 6.692s1.59 5.415 4.114 6.693zm37.505-15.552c3.306-1.673 4.895-5.51 3.74-9.03l-6.116-18.646 18.646 6.115c3.52 1.156 7.356-.434 9.029-3.739l8.86-17.509 8.86 17.509c1.673 3.306 5.506 4.896 9.03 3.739l18.645-6.115-6.115 18.646c-1.155 3.521.434 7.357 3.739 9.03l17.509 8.859-17.509 8.859c-3.306 1.673-4.895 5.51-3.739 9.03l6.115 18.645-18.645-6.115c-3.522-1.156-7.356.434-9.03 3.739l-8.86 17.509-8.86-17.509c-1.306-2.58-3.929-4.114-6.692-4.114-.777 0-1.564.121-2.337.375l-18.646 6.115 6.116-18.645c1.155-3.521-.434-7.357-3.74-9.03l-17.509-8.859z"/></g></svg>