<svg id="Capa_1" enable-background="new 0 0 512 512" height="512" viewBox="0 0 512 512" width="512" xmlns="http://www.w3.org/2000/svg"><g><path d="m484.5 0h-457c-15.16 0-27.5 12.34-27.5 27.5v457c0 15.16 12.34 27.5 27.5 27.5h457c15.16 0 27.5-12.34 27.5-27.5v-457c0-15.16-12.34-27.5-27.5-27.5zm12.5 484.5c0 6.89-5.61 12.5-12.5 12.5h-457c-6.89 0-12.5-5.61-12.5-12.5v-457c0-6.89 5.61-12.5 12.5-12.5h457c6.89 0 12.5 5.61 12.5 12.5z"/><path d="m474.48 274.76c2.07-3.59.85-8.18-2.74-10.25-3.58-2.07-8.17-.85-10.25 2.73-4.01 6.95-11.48 11.26-19.49 11.26-12.41 0-22.5-10.09-22.5-22.5s10.09-22.5 22.5-22.5c7.01 0 13.49 3.18 17.79 8.72 2.54 3.28 7.25 3.87 10.53 1.33 3.27-2.54 3.86-7.25 1.32-10.52-5.59-7.22-13.42-12.01-22.14-13.77v-122.81c11.53-3.27 20-13.89 20-26.45 0-15.16-12.34-27.5-27.5-27.5-12.56 0-23.18 8.47-26.45 20h-50.85c-4.14 0-7.5 3.36-7.5 7.5s3.36 7.5 7.5 7.5h50.85c2.59 9.14 9.81 16.36 18.95 18.95v122.8c-14.67 2.99-26.26 14.58-29.25 29.25h-13.8c-2.59-9.14-9.81-16.36-18.95-18.95v-56.1c11.53-3.27 20-13.89 20-26.45 0-15.16-12.34-27.5-27.5-27.5-12.56 0-23.18 8.47-26.45 20h-45.8c-2.99-14.67-14.58-26.26-29.25-29.25v-13.8c9.14-2.59 16.36-9.81 18.95-18.95h47.25c4.14 0 7.5-3.36 7.5-7.5s-3.36-7.5-7.5-7.5h-47.25c-3.27-11.53-13.89-20-26.45-20s-23.18 8.47-26.45 20h-122.8c-3.49-17.1-18.64-30-36.75-30-1.44 0-2.9.08-4.32.25-4.12.47-7.07 4.19-6.6 8.31.48 4.11 4.2 7.06 8.31 6.59.86-.1 1.74-.15 2.61-.15 12.41 0 22.5 10.09 22.5 22.5s-10.09 22.5-22.5 22.5-22.5-10.09-22.5-22.5c0-2.02.27-4.02.79-5.95 1.09-4-1.26-8.12-5.26-9.21-3.99-1.1-8.11 1.26-9.21 5.26-.87 3.21-1.32 6.54-1.32 9.9 0 18.11 12.9 33.26 30 36.75v122.8c-11.53 3.27-20 13.89-20 26.45s8.47 23.18 20 26.45v122.8c-17.1 3.49-30 18.64-30 36.75 0 20.68 16.82 37.5 37.5 37.5 18.11 0 33.26-12.9 36.75-30h27.7c4.14 0 7.5-3.36 7.5-7.5s-3.36-7.5-7.5-7.5h-27.7c-2.99-14.67-14.58-26.26-29.25-29.25v-122.8c9.14-2.59 16.36-9.81 18.95-18.95h24.1c2.59 9.14 9.81 16.36 18.95 18.95v56.1c-11.53 3.27-20 13.89-20 26.45 0 15.16 12.34 27.5 27.5 27.5 12.56 0 23.18-8.47 26.45-20h56.1c2.59 9.14 9.81 16.36 18.95 18.95v24.1c-9.14 2.59-16.36 9.81-18.95 18.95h-60.1c-4.15 0-7.5 3.36-7.5 7.5s3.35 7.5 7.5 7.5h60.1c3.27 11.53 13.89 20 26.45 20s23.18-8.47 26.45-20h133.1c3.27 11.53 13.89 20 26.45 20 15.16 0 27.5-12.34 27.5-27.5 0-12.56-8.47-23.18-20-26.45v-122.82c10.38-2.13 19.57-8.62 24.98-17.97zm-44.98-204.76c0-6.89 5.61-12.5 12.5-12.5s12.5 5.61 12.5 12.5-5.61 12.5-12.5 12.5-12.5-5.61-12.5-12.5zm-52 186c0 6.89-5.61 12.5-12.5 12.5s-12.5-5.61-12.5-12.5 5.61-12.5 12.5-12.5 12.5 5.61 12.5 12.5zm-223-82.55c9.14-2.59 16.36-9.81 18.95-18.95h45.8c2.99 14.67 14.58 26.26 29.25 29.25v23.75h-33.5c-4.14 0-7.5 3.36-7.5 7.5v33.5h-34.05c-2.59-9.14-9.81-16.36-18.95-18.95zm-7.5-13.95c-6.89 0-12.5-5.61-12.5-12.5s5.61-12.5 12.5-12.5 12.5 5.61 12.5 12.5-5.61 12.5-12.5 12.5zm75.5 63c17.67.02 49.42.02 67 0v67h-67zm41 82h33.5c4.14 0 7.5-3.36 7.5-7.5v-33.5h34.05c2.59 9.14 9.81 16.36 18.95 18.95v56.1c-9.14 2.59-16.36 9.81-18.95 18.95h-56.1c-2.59-9.14-9.81-16.36-18.95-18.95zm101.5 48c6.89 0 12.5 5.61 12.5 12.5s-5.61 12.5-12.5 12.5-12.5-5.61-12.5-12.5 5.61-12.5 12.5-12.5zm0-218c6.89 0 12.5 5.61 12.5 12.5s-5.61 12.5-12.5 12.5-12.5-5.61-12.5-12.5 5.61-12.5 12.5-12.5zm-72.25 20h45.8c2.59 9.14 9.81 16.36 18.95 18.95v56.1c-9.14 2.59-16.36 9.81-18.95 18.95h-34.05v-33.5c0-4.14-3.36-7.5-7.5-7.5h-33.5v-23.75c14.67-2.99 26.26-14.58 29.25-29.25zm-14.25-7.5c0 12.41-10.09 22.5-22.5 22.5s-22.5-10.09-22.5-22.5 10.09-22.5 22.5-22.5 22.5 10.09 22.5 22.5zm-22.5-89.5c6.89 0 12.5 5.61 12.5 12.5s-5.61 12.5-12.5 12.5-12.5-5.61-12.5-12.5 5.61-12.5 12.5-12.5zm-163.5 384.5c0 12.41-10.09 22.5-22.5 22.5s-22.5-10.09-22.5-22.5 10.09-22.5 22.5-22.5 22.5 10.09 22.5 22.5zm-22.5-173.5c-6.89 0-12.5-5.61-12.5-12.5s5.61-12.5 12.5-12.5 12.5 5.61 12.5 12.5-5.61 12.5-12.5 12.5zm50.55-20h-24.1c-2.59-9.14-9.81-16.36-18.95-18.95v-122.8c14.67-2.99 26.26-14.58 29.25-29.25h122.8c2.59 9.14 9.81 16.36 18.95 18.95v13.8c-14.67 2.99-26.26 14.58-29.25 29.25h-45.8c-3.27-11.53-13.89-20-26.45-20-15.16 0-27.5 12.34-27.5 27.5 0 12.56 8.47 23.18 20 26.45v56.1c-9.14 2.59-16.36 9.81-18.95 18.95zm13.95 7.5c0-6.89 5.61-12.5 12.5-12.5s12.5 5.61 12.5 12.5-5.61 12.5-12.5 12.5-12.5-5.61-12.5-12.5zm12.5 121.5c-6.89 0-12.5-5.61-12.5-12.5s5.61-12.5 12.5-12.5 12.5 5.61 12.5 12.5-5.61 12.5-12.5 12.5zm82.55-20h-56.1c-2.59-9.14-9.81-16.36-18.95-18.95v-56.1c9.14-2.59 16.36-9.81 18.95-18.95h34.05v33.5c0 4.14 3.36 7.5 7.5 7.5h33.5v34.05c-9.14 2.59-16.36 9.81-18.95 18.95zm13.95 7.5c0-6.89 5.61-12.5 12.5-12.5s12.5 5.61 12.5 12.5-5.61 12.5-12.5 12.5-12.5-5.61-12.5-12.5zm12.5 89.5c-6.89 0-12.5-5.61-12.5-12.5s5.61-12.5 12.5-12.5 12.5 5.61 12.5 12.5-5.61 12.5-12.5 12.5zm159.55-20h-133.1c-2.59-9.14-9.81-16.36-18.95-18.95v-24.1c9.14-2.59 16.36-9.81 18.95-18.95h56.1c3.27 11.53 13.89 20 26.45 20 15.16 0 27.5-12.34 27.5-27.5 0-12.56-8.47-23.18-20-26.45v-56.1c9.14-2.59 16.36-9.81 18.95-18.95h13.8c2.99 14.67 14.58 26.26 29.25 29.25v122.8c-9.14 2.59-16.36 9.81-18.95 18.95zm38.95 7.5c0 6.89-5.61 12.5-12.5 12.5s-12.5-5.61-12.5-12.5 5.61-12.5 12.5-12.5 12.5 5.61 12.5 12.5z"/></g></svg>