<svg id="Capa_1" enable-background="new 0 0 512 512" height="512" viewBox="0 0 512 512" width="512" xmlns="http://www.w3.org/2000/svg"><g><path d="m484.5 103.5h-80v-20h22.5c4.143 0 7.5-3.357 7.5-7.5s-3.357-7.5-7.5-7.5h-6.326l5.136-35.179c1.223-8.373-1.25-16.847-6.784-23.248-5.536-6.401-13.563-10.073-22.026-10.073-4.824 0-9.601 1.202-13.814 3.477-3.645 1.967-5.005 6.517-3.037 10.162 1.967 3.644 6.516 5.007 10.162 3.037 2.06-1.112 4.311-1.676 6.689-1.676 4.103 0 7.995 1.78 10.678 4.884 2.684 3.104 3.882 7.211 3.29 11.271l-5.452 37.345h-17.032l-4.063-27.833c-.598-4.1-4.417-6.935-8.504-6.338-4.099.598-6.937 4.405-6.338 8.504l3.747 25.667h-6.326c-4.143 0-7.5 3.357-7.5 7.5s3.357 7.5 7.5 7.5h22.5v20h-79v-27.5c0-4.143-3.357-7.5-7.5-7.5s-7.5 3.357-7.5 7.5v27.5h-79v-20h22.5c4.142 0 7.5-3.357 7.5-7.5s-3.358-7.5-7.5-7.5h-6.326l5.136-35.18c1.222-8.373-1.251-16.847-6.786-23.248s-13.562-10.072-22.024-10.072-16.49 3.671-22.024 10.072-8.008 14.875-6.786 23.248l5.136 35.18h-6.326c-4.142 0-7.5 3.357-7.5 7.5s3.358 7.5 7.5 7.5h22.5v20h-79v-27.5c0-4.143-3.358-7.5-7.5-7.5s-7.5 3.357-7.5 7.5v27.5h-80c-15.164 0-27.5 12.336-27.5 27.5v250c0 15.164 12.336 27.5 27.5 27.5h80v20h-22.5c-4.142 0-7.5 3.357-7.5 7.5s3.358 7.5 7.5 7.5h6.326l-5.136 35.18c-1.222 8.373 1.251 16.847 6.786 23.248s13.562 10.072 22.024 10.072c2.206 0 4.403-.247 6.531-.734 4.038-.924 6.562-4.946 5.638-8.983-.924-4.038-4.951-6.561-8.984-5.638-1.032.235-2.104.355-3.185.355-4.103 0-7.994-1.78-10.678-4.883-2.683-3.104-3.882-7.212-3.29-11.271l5.452-37.346h17.031l4.943 33.861c.545 3.731 3.75 6.418 7.412 6.418.36 0 .726-.026 1.093-.08 4.099-.598 6.936-4.405 6.338-8.504l-4.627-31.695h6.326c4.142 0 7.5-3.357 7.5-7.5s-3.358-7.5-7.5-7.5h-22.5v-20h79v27.5c0 4.143 3.358 7.5 7.5 7.5s7.5-3.357 7.5-7.5v-27.5h79v20h-22.5c-4.143 0-7.5 3.357-7.5 7.5s3.357 7.5 7.5 7.5h6.326l-5.136 35.179c-1.223 8.373 1.25 16.847 6.784 23.248 5.536 6.401 13.563 10.073 22.026 10.073s16.49-3.672 22.025-10.073c5.534-6.401 8.007-14.875 6.784-23.247l-5.136-35.18h6.327c4.143 0 7.5-3.357 7.5-7.5s-3.357-7.5-7.5-7.5h-22.5v-20h79v27.5c0 4.143 3.357 7.5 7.5 7.5s7.5-3.357 7.5-7.5v-27.5h80c15.164 0 27.5-12.336 27.5-27.5v-19.446c0-4.143-3.357-7.5-7.5-7.5s-7.5 3.357-7.5 7.5v19.446c0 6.893-5.607 12.5-12.5 12.5h-80v-15h70c4.143 0 7.5-3.357 7.5-7.5v-63h15v18.554c0 4.143 3.357 7.5 7.5 7.5s7.5-3.357 7.5-7.5v-195.554c0-15.164-12.336-27.5-27.5-27.5zm-289.467-72.346c-.593-4.06.606-8.168 3.29-11.271 2.683-3.103 6.574-4.883 10.677-4.883s7.994 1.78 10.678 4.883c2.683 3.104 3.882 7.212 3.29 11.271l-5.453 37.346h-17.031zm121.935 449.693c.592 4.059-.606 8.166-3.29 11.27-2.683 3.103-6.575 4.883-10.678 4.883s-7.995-1.78-10.678-4.884c-2.684-3.104-3.882-7.211-3.29-11.271l5.452-37.346h17.032zm167.532-362.347c6.893 0 12.5 5.607 12.5 12.5v73h-15v-63c0-4.143-3.357-7.5-7.5-7.5h-70v-15zm-95 0v15h-79v-15zm7.5 212.5c-5.514 0-10-4.486-10-10s4.486-10 10-10 10 4.486 10 10-4.486 10-10 10zm0-65c-5.514 0-10-4.486-10-10s4.486-10 10-10 10 4.486 10 10-4.486 10-10 10zm0-65c-5.514 0-10-4.486-10-10s4.486-10 10-10 10 4.486 10 10-4.486 10-10 10zm-7.5-33.849c-10.132 3.193-17.5 12.676-17.5 23.849s7.368 20.656 17.5 23.849v17.302c-10.132 3.193-17.5 12.676-17.5 23.849s7.368 20.656 17.5 23.849v17.302c-10.132 3.193-17.5 12.676-17.5 23.849s7.368 20.656 17.5 23.849v18.651h-79v-18.651c10.132-3.193 17.5-12.676 17.5-23.849s-7.368-20.656-17.5-23.849v-17.302c10.132-3.193 17.5-12.676 17.5-23.849s-7.368-20.656-17.5-23.849v-17.302c10.132-3.193 17.5-12.676 17.5-23.849s-7.368-20.656-17.5-23.849v-18.651h79zm-344.5 140.849h9.5c9.649 0 17.5-7.851 17.5-17.5v-17.096c0-4.143-3.358-7.5-7.5-7.5s-7.5 3.357-7.5 7.5v17.096c0 1.379-1.122 2.5-2.5 2.5h-39.5v-74h39.5c1.378 0 2.5 1.121 2.5 2.5v16.904c0 4.143 3.358 7.5 7.5 7.5s7.5-3.357 7.5-7.5v-16.904c0-9.649-7.851-17.5-17.5-17.5h-9.5v-55.5h62.5v18.651c-10.132 3.193-17.5 12.676-17.5 23.849s7.368 20.656 17.5 23.849v17.302c-10.132 3.193-17.5 12.676-17.5 23.849s7.368 20.656 17.5 23.849v17.302c-10.132 3.193-17.5 12.676-17.5 23.849s7.368 20.656 17.5 23.849v18.651h-62.5zm70 23c-5.514 0-10-4.486-10-10s4.486-10 10-10 10 4.486 10 10-4.486 10-10 10zm0-65c-5.514 0-10-4.486-10-10s4.486-10 10-10 10 4.486 10 10-4.486 10-10 10zm0-65c-5.514 0-10-4.486-10-10s4.486-10 10-10 10 4.486 10 10-4.486 10-10 10zm7.5 143.849c10.132-3.193 17.5-12.676 17.5-23.849s-7.368-20.656-17.5-23.849v-17.302c10.132-3.193 17.5-12.676 17.5-23.849s-7.368-20.656-17.5-23.849v-17.302c10.132-3.193 17.5-12.676 17.5-23.849s-7.368-20.656-17.5-23.849v-18.651h79v18.651c-10.132 3.193-17.5 12.676-17.5 23.849s7.368 20.656 17.5 23.849v17.302c-10.132 3.193-17.5 12.676-17.5 23.849s7.368 20.656 17.5 23.849v17.302c-10.132 3.193-17.5 12.676-17.5 23.849s7.368 20.656 17.5 23.849v18.651h-79zm86.5-13.849c-5.514 0-10-4.486-10-10s4.486-10 10-10 10 4.486 10 10-4.486 10-10 10zm0-65c-5.514 0-10-4.486-10-10s4.486-10 10-10 10 4.486 10 10-4.486 10-10 10zm0-65c-5.514 0-10-4.486-10-10s4.486-10 10-10 10 4.486 10 10-4.486 10-10 10zm7.5 143.849c10.132-3.193 17.5-12.676 17.5-23.849s-7.368-20.656-17.5-23.849v-17.302c10.132-3.193 17.5-12.676 17.5-23.849s-7.368-20.656-17.5-23.849v-17.302c10.132-3.193 17.5-12.676 17.5-23.849s-7.368-20.656-17.5-23.849v-18.651h79v18.651c-10.132 3.193-17.5 12.676-17.5 23.849s7.368 20.656 17.5 23.849v17.302c-10.132 3.193-17.5 12.676-17.5 23.849s7.368 20.656 17.5 23.849v17.302c-10.132 3.193-17.5 12.676-17.5 23.849s7.368 20.656 17.5 23.849v18.651h-79zm86.5-13.849c-5.514 0-10-4.486-10-10s4.486-10 10-10 10 4.486 10 10-4.486 10-10 10zm0-65c-5.514 0-10-4.486-10-10s4.486-10 10-10 10 4.486 10 10-4.486 10-10 10zm0-65c-5.514 0-10-4.486-10-10s4.486-10 10-10 10 4.486 10 10-4.486 10-10 10zm-7.5-82.5v15h-79v-15zm-94 0v15h-79v-15zm-174 0h80v15h-70c-4.142 0-7.5 3.357-7.5 7.5v63h-15v-73c0-6.893 5.607-12.5 12.5-12.5zm0 275c-6.893 0-12.5-5.607-12.5-12.5v-73h15v63c0 4.143 3.358 7.5 7.5 7.5h70v15zm95 0v-15h79v15zm94 0v-15h79v15zm173 0h-79v-15h79zm77.5-30h-62.5v-18.651c10.132-3.193 17.5-12.676 17.5-23.849s-7.368-20.656-17.5-23.849v-17.302c10.132-3.193 17.5-12.676 17.5-23.849s-7.368-20.656-17.5-23.849v-17.302c10.132-3.193 17.5-12.676 17.5-23.849s-7.368-20.656-17.5-23.849v-18.651h62.5v55.5h-9.5c-9.649 0-17.5 7.851-17.5 17.5v69c0 9.649 7.851 17.5 17.5 17.5h9.5zm-9.5-70.5c-1.379 0-2.5-1.121-2.5-2.5v-69c0-1.379 1.121-2.5 2.5-2.5h39.5v74z"/></g></svg>