<svg id="Capa_1" enable-background="new 0 0 512 512" height="512" viewBox="0 0 512 512" width="512" xmlns="http://www.w3.org/2000/svg"><g><path d="m504.5 462h-106v-46.5c0-10.752-8.748-19.5-19.5-19.5h-70.5v-51h70.5c10.752 0 19.5-8.748 19.5-19.5v-42c0-10.752-8.748-19.5-19.5-19.5h-70.5v-51h70.5c10.752 0 19.5-8.748 19.5-19.5 0-51.473 0-122.739 0-174 0-10.752-8.748-19.5-19.5-19.5h-69.894c-4.143 0-7.5 3.357-7.5 7.5s3.357 7.5 7.5 7.5h69.894c2.481 0 4.5 2.019 4.5 4.5v46.5h-255v-46.5c0-2.481 2.019-4.5 4.5-4.5h141.106c4.143 0 7.5-3.357 7.5-7.5s-3.357-7.5-7.5-7.5h-141.106c-10.752 0-19.5 8.748-19.5 19.5v306c0 10.752 8.748 19.5 19.5 19.5h70.5v51h-70.5c-10.752 0-19.5 8.748-19.5 19.5v46.5h-106c-4.143 0-7.5 3.357-7.5 7.5v35c0 4.143 3.357 7.5 7.5 7.5h497c4.143 0 7.5-3.357 7.5-7.5v-35c0-4.143-3.357-7.5-7.5-7.5zm-211-198h-75v-51h75zm90-70.5c0 2.481-2.019 4.5-4.5 4.5h-196.383c-4.143 0-7.5 3.357-7.5 7.5s3.357 7.5 7.5 7.5h20.883v51h-75v-51h19.117c4.143 0 7.5-3.357 7.5-7.5s-3.357-7.5-7.5-7.5h-19.117v-51h255zm0-61.5h-75v-51h75zm-90 0h-75v-51h75zm-90-51v51h-75v-51zm-75 244.5v-46.5h250.5c2.481 0 4.5 2.019 4.5 4.5v42c0 2.481-2.019 4.5-4.5 4.5h-246c-2.481 0-4.5-2.019-4.5-4.5zm90 19.5h75v51h-75zm278.5 152h-482v-20h167.191c4.143 0 7.5-3.357 7.5-7.5s-3.357-7.5-7.5-7.5h-53.691v-46.5c0-2.481 2.019-4.5 4.5-4.5h246c2.481 0 4.5 2.019 4.5 4.5v46.5h-166.309c-4.143 0-7.5 3.357-7.5 7.5s3.357 7.5 7.5 7.5h279.809z"/></g></svg>