<svg id="Capa_1" enable-background="new 0 0 512 512" height="512" viewBox="0 0 512 512" width="512" xmlns="http://www.w3.org/2000/svg"><g><path d="m415.643 263.5h88.857c4.143 0 7.5-3.358 7.5-7.5v-114.614c0-4.142-3.357-7.5-7.5-7.5h-88.857v-30.533c0-4.142-3.357-7.5-7.5-7.5s-7.5 3.358-7.5 7.5v30.533h-218.286v-99.615h218.286v34.082c0 4.142 3.357 7.5 7.5 7.5s7.5-3.358 7.5-7.5v-41.582c0-4.142-3.357-7.5-7.5-7.5h-233.286c-4.142 0-7.5 3.358-7.5 7.5v107.114h-88.857c-4.142 0-7.5 3.358-7.5 7.5v114.615c0 4.142 3.358 7.5 7.5 7.5h88.857v99.614h-159.857c-4.142 0-7.5 3.358-7.5 7.5v114.614c0 4.142 3.358 7.5 7.5 7.5h497c4.143 0 7.5-3.358 7.5-7.5v-114.614c0-4.142-3.357-7.5-7.5-7.5h-88.857zm81.357-15h-177.5v-99.614h177.5zm0 229.229h-233.5v-23.099c0-4.142-3.357-7.5-7.5-7.5-4.142 0-7.5 3.358-7.5 7.5v23.099h-233.5v-99.614h233.5v41.516c0 4.142 3.358 7.5 7.5 7.5 4.143 0 7.5-3.358 7.5-7.5v-41.516h78.714c4.143 0 7.5-3.358 7.5-7.5s-3.357-7.5-7.5-7.5c-39.779 0-120.509 0-159.857 0v-99.615h24.429c4.142 0 7.5-3.358 7.5-7.5s-3.358-7.5-7.5-7.5h-120.786v-99.614h218.5v99.614h-62.714c-4.142 0-7.5 3.358-7.5 7.5s3.358 7.5 7.5 7.5h158.857v99.614h-23.429c-4.143 0-7.5 3.358-7.5 7.5s3.357 7.5 7.5 7.5h119.786z"/></g></svg>