<?xml version="1.0" encoding="iso-8859-1"?>
<!-- Uploaded to: SVG Repo, www.svgrepo.com, Generator: SVG Repo Mixer Tools -->
<!DOCTYPE svg PUBLIC "-//W3C//DTD SVG 1.1//EN" "http://www.w3.org/Graphics/SVG/1.1/DTD/svg11.dtd">
<svg fill="#000000" height="800px" width="800px" version="1.1" id="Capa_1" xmlns="http://www.w3.org/2000/svg" xmlns:xlink="http://www.w3.org/1999/xlink" 
	 viewBox="0 0 434.691 434.691" xml:space="preserve">
<path d="M377.172,366.035v-45.721c0-5.104-2.754-9.565-6.845-12.012c0.003-0.148,0.011-0.295,0.011-0.443
	c0-13.477-10.964-24.441-24.44-24.441c-10.644,0-19.715,6.843-23.061,16.358c-5.972-5.001-14.083-9.527-24.153-13.389
	c-16.805-6.446-37.824-10.647-60.605-12.241v-33.309c19.531-5.52,27.304-17.778,27.304-26.281c0-4.993-1.962-8.299-3.692-11.216
	c-1.801-3.036-3.356-5.658-3.356-10.939c0-4.169,1.781-6.592,4.247-9.946c3.043-4.139,6.83-9.29,6.83-18.251
	c0-8.642-4.692-14.203-8.832-19.11c-3.907-4.632-7.281-8.632-7.281-15.13c0-6.105,3.786-10.587,8.17-15.776
	c5.14-6.084,10.965-12.98,10.965-23.499c0-11.115-5.57-15.931-9.638-19.446c-3.41-2.948-5.469-4.729-5.469-9.758
	c0-3.827,3.632-7.536,7.837-11.831c7.82-7.988,18.531-18.928,12.064-39.046C275.954,6.646,272.058,0,260.271,0
	c-26.031,0-78.07,32.885-93.398,42.963c-2.58,1.695-3.23,3.776-3.322,5.224c-0.121,1.916,0.706,3.779,2.268,5.114
	c3.893,3.327,17.398,15.599,27.782,33.82c14.315,25.119,3.467,42.3-14.506,70.764c-4.865,7.705-10.379,16.438-15.729,26.04
	c-8.867,15.914-10.283,29.225-4.208,39.563c7.065,12.024,22.884,17.061,37.443,19.048v31.611
	c-22.776,1.594-43.79,5.796-60.592,12.24c-10.07,3.862-18.181,8.388-24.153,13.389c-3.345-9.515-12.417-16.358-23.061-16.358
	c-13.477,0-24.441,10.965-24.441,24.441c0,0.146,0.009,0.29,0.011,0.435c-4.099,2.445-6.859,6.91-6.859,12.02v46.01v30.432v27.936
	c0,5.514,4.486,10,10,10h42.578c5.514,0,10-4.486,10-10v-13.936h194.525v13.936c0,5.514,4.486,10,10,10h42.578
	c5.514,0,10-4.486,10-10v-58.367C377.187,366.227,377.175,366.132,377.172,366.035z M327.582,379.64h-36.039
	c-10.116,0-18.316-8.2-18.316-18.316c0-10.116,8.2-18.316,18.316-18.316h36.039c10.116,0,18.316,8.2,18.316,18.316
	C345.897,371.44,337.697,379.64,327.582,379.64z"/>
</svg>