<?xml version="1.0" encoding="iso-8859-1"?>
<!-- Generator: Adobe Illustrator 19.0.0, SVG Export Plug-In . SVG Version: 6.00 Build 0)  -->
<svg xmlns="http://www.w3.org/2000/svg" xmlns:xlink="http://www.w3.org/1999/xlink" version="1.1" id="Capa_1" x="0px" y="0px" viewBox="0 0 512 512" style="enable-background:new 0 0 512 512;" xml:space="preserve">
<g>
	<path style="fill:#2D5872;" d="M359.789,452.034h-27.605v-52.79h27.605c6.677,0,12.09,5.413,12.09,12.09v28.609   C371.88,446.621,366.467,452.034,359.789,452.034z"/>
	<path style="fill:#2D5872;" d="M292.641,7.287H137.532c-2.628,0-4.759,2.131-4.759,4.759v117.14h164.628V12.046   C297.401,9.417,295.27,7.287,292.641,7.287z"/>
</g>
<path style="fill:#1D4859;" d="M292.641,7.287h-38.097c2.628,0,4.759,2.131,4.759,4.759v117.14h38.098V12.046  C297.401,9.417,295.27,7.287,292.641,7.287z"/>
<path style="fill:#FFB124;" d="M300.877,504.713h-171.58c-17.291,0-31.308-14.017-31.308-31.308V144.348  c0-8.374,6.788-15.162,15.162-15.162h203.871c8.374,0,15.162,6.788,15.162,15.162v329.057  C332.185,490.696,318.168,504.713,300.877,504.713z"/>
<path style="fill:#FF901E;" d="M317.023,129.186H282.04c6.654,0,12.048,5.394,12.048,12.049V476.52  c0,15.571-12.623,28.195-28.194,28.195h34.983c17.291,0,31.308-14.017,31.308-31.308V144.348  C332.185,135.974,325.396,129.186,317.023,129.186z"/>
<g>
	<path style="fill:#FFBF14;" d="M173.302,55.911h-14.113c-2.361,0-4.275-1.914-4.275-4.275V7.287h22.662v44.35   C177.577,53.997,175.663,55.911,173.302,55.911z"/>
	<path style="fill:#FFBF14;" d="M220.624,55.911h-14.113c-2.361,0-4.275-1.914-4.275-4.275V7.287h22.662v44.35   C224.899,53.997,222.985,55.911,220.624,55.911z"/>
	<path style="fill:#FFBF14;" d="M267.945,55.911h-14.113c-2.361,0-4.275-1.914-4.275-4.275V7.287h22.662v44.35   C272.22,53.997,270.306,55.911,267.945,55.911z"/>
</g>
<g>
	<path style="fill:#FFFFFF;" d="M303.746,306.192c-2.434,0-4.866-0.928-6.723-2.784c-20.598-20.599-47.983-31.942-77.113-31.942   c-29.129,0-56.516,11.343-77.114,31.942c-3.713,3.712-9.732,3.712-13.445,0c-3.713-3.713-3.713-9.733,0-13.446   c24.189-24.189,56.351-37.511,90.559-37.511c34.209,0,66.37,13.321,90.56,37.511c3.713,3.713,3.712,9.733,0,13.446   C308.612,305.263,306.179,306.192,303.746,306.192z"/>
	<path style="fill:#FFFFFF;" d="M274.784,335.153c-2.433,0-4.866-0.928-6.723-2.784c-26.552-26.553-69.753-26.553-96.305,0   c-3.713,3.712-9.732,3.712-13.445,0c-3.713-3.713-3.713-9.733,0-13.446c33.965-33.965,89.231-33.965,123.196,0   c3.713,3.713,3.713,9.733,0,13.446C279.651,334.224,277.218,335.153,274.784,335.153z"/>
	<path style="fill:#FFFFFF;" d="M246.312,363.625c-2.433,0-4.866-0.928-6.723-2.784c-10.852-10.851-28.509-10.851-39.36,0   c-3.713,3.711-9.733,3.711-13.446,0c-3.713-3.713-3.712-9.733,0-13.446c18.265-18.265,47.985-18.265,66.251,0   c3.713,3.713,3.713,9.732,0,13.446C251.179,362.696,248.745,363.625,246.312,363.625z"/>
</g>
<g>
	<path style="fill:#041D23;" d="M97.989,408.208c4.024,0,7.287-3.262,7.287-7.287V144.348c0-4.342,3.533-7.876,7.876-7.876h19.622   h164.627h19.622c4.342,0,7.876,3.533,7.876,7.876v37.136c0,4.025,3.262,7.287,7.287,7.287c4.024,0,7.286-3.262,7.286-7.287v-37.136   c0-12.379-10.071-22.449-22.449-22.449h-12.335V12.046C304.687,5.403,299.284,0,292.641,0H272.22h-22.663h-24.659h-22.662h-24.659   h-22.662h-17.382c-6.642,0-12.046,5.403-12.046,12.046V121.9h-12.336c-12.378,0-22.449,10.07-22.449,22.449v256.573   C90.702,404.946,93.965,408.208,97.989,408.208z M256.844,14.573h8.09v34.051h-8.09V14.573z M209.523,14.573h8.089v34.051h-8.089   V14.573z M162.201,14.573h8.089v34.051h-8.089V14.573z M140.06,14.573h7.568v37.064c0,6.375,5.186,11.561,11.561,11.561h14.113   c6.375,0,11.561-5.186,11.561-11.561V14.573h10.086v37.064c0,6.375,5.186,11.561,11.562,11.561h14.112   c6.375,0,11.561-5.186,11.561-11.561V14.573h10.086v37.064c0,6.375,5.186,11.561,11.562,11.561h14.112   c6.375,0,11.562-5.186,11.562-11.561V14.573h10.607v107.326H140.06V14.573z"/>
	<path style="fill:#041D23;" d="M303.746,313.478c4.487,0,8.704-1.747,11.875-4.918c3.172-3.172,4.919-7.389,4.92-11.876   c0-4.486-1.747-8.704-4.919-11.876c-25.565-25.565-59.556-39.644-95.712-39.644s-70.147,14.08-95.711,39.644   c-3.173,3.172-4.92,7.389-4.92,11.876s1.747,8.704,4.92,11.876c3.172,3.172,7.389,4.918,11.875,4.918   c4.485,0,8.703-1.747,11.875-4.918c19.221-19.222,44.778-29.807,71.962-29.807c27.185,0,52.741,10.585,71.961,29.807   C295.042,311.732,299.26,313.478,303.746,313.478z M137.644,298.254c-0.538,0.538-1.151,0.651-1.571,0.651   s-1.033-0.113-1.571-0.651c-0.537-0.538-0.65-1.151-0.65-1.57s0.113-1.032,0.651-1.57c22.813-22.813,53.144-35.377,85.407-35.377   c32.264,0,62.595,12.564,85.408,35.377c0.537,0.537,0.65,1.15,0.65,1.57c0,0.419-0.113,1.033-0.652,1.571   c-0.537,0.537-1.15,0.65-1.57,0.65s-1.033-0.113-1.571-0.65c-21.972-21.974-51.189-34.076-82.266-34.076   S159.617,276.281,137.644,298.254z"/>
	<path style="fill:#041D23;" d="M286.659,337.521c3.172-3.172,4.919-7.389,4.919-11.876s-1.747-8.704-4.919-11.876   c-17.803-17.803-41.509-27.607-66.75-27.607s-48.947,9.805-66.75,27.607c-3.173,3.172-4.919,7.389-4.919,11.876   s1.747,8.704,4.919,11.876c3.172,3.171,7.389,4.917,11.874,4.917c4.485,0,8.703-1.747,11.875-4.917   c11.465-11.466,26.737-17.78,43-17.78s31.535,6.314,43.001,17.78c3.172,3.172,7.389,4.918,11.874,4.918   C279.269,342.439,283.487,340.693,286.659,337.521z M219.909,305.168c-20.157,0-39.087,7.83-53.305,22.047   c-0.537,0.537-1.151,0.65-1.571,0.65s-1.033-0.113-1.57-0.65s-0.65-1.151-0.65-1.57s0.113-1.033,0.65-1.57   c15.051-15.051,35.097-23.34,56.445-23.34s41.395,8.288,56.446,23.34c0.537,0.537,0.65,1.151,0.65,1.57s-0.113,1.033-0.65,1.57   c-0.566,0.566-1.227,0.651-1.571,0.651s-1.004-0.084-1.57-0.651C258.996,312.998,240.066,305.168,219.909,305.168z"/>
	<path style="fill:#041D23;" d="M219.909,326.409c-14.474,0-28.068,5.622-38.278,15.833c-6.547,6.548-6.547,17.203,0.001,23.752   c3.172,3.17,7.389,4.916,11.874,4.916c4.485,0,8.702-1.746,11.875-4.917c3.872-3.872,9.031-6.005,14.528-6.005   c5.496,0,10.656,2.133,14.529,6.006c3.173,3.171,7.389,4.917,11.874,4.917c4.485,0,8.702-1.747,11.876-4.919   c6.546-6.549,6.546-17.203-0.001-23.751C247.977,332.031,234.383,326.409,219.909,326.409z M247.884,355.688   c-0.566,0.566-1.228,0.651-1.571,0.651s-1.005-0.084-1.571-0.651c-6.625-6.624-15.444-10.272-24.832-10.272   c-9.389,0-18.208,3.648-24.831,10.271c-0.538,0.537-1.152,0.65-1.572,0.65s-1.034-0.113-1.57-0.648   c-0.866-0.866-0.866-2.276,0-3.142c7.457-7.457,17.392-11.565,27.973-11.565s20.516,4.107,27.973,11.564   C248.748,353.413,248.748,354.823,247.884,355.688z"/>
	<path style="fill:#041D23;" d="M414.013,120.661c-4.024,0-7.287,3.262-7.287,7.287v289.971h-27.56v-6.583   c0-10.684-8.692-19.377-19.377-19.377h-20.318V218.874c0-4.025-3.262-7.287-7.286-7.287c-4.024,0-7.287,3.262-7.287,7.287v180.371   v52.789v21.371c0,13.246-10.776,24.022-24.022,24.022H129.297c-13.246,0-24.022-10.776-24.022-24.022v-35.08   c0-4.025-3.262-7.287-7.287-7.287c-4.024,0-7.287,3.262-7.287,7.287v35.08c0,21.281,17.314,38.595,38.595,38.595h171.579   c21.281,0,38.595-17.314,38.595-38.595v-14.084h20.318c10.685,0,19.377-8.693,19.377-19.377v-7.453h34.847   c4.024,0,7.287-3.262,7.287-7.287V127.948C421.3,123.923,418.037,120.661,414.013,120.661z M364.593,439.944   c0,2.649-2.155,4.804-4.804,4.804h-20.318v-38.216h20.318c2.648,0,4.804,2.155,4.804,4.804L364.593,439.944L364.593,439.944z"/>
</g>
<g>
</g>
<g>
</g>
<g>
</g>
<g>
</g>
<g>
</g>
<g>
</g>
<g>
</g>
<g>
</g>
<g>
</g>
<g>
</g>
<g>
</g>
<g>
</g>
<g>
</g>
<g>
</g>
<g>
</g>
</svg>
