<?xml version="1.0" encoding="iso-8859-1"?>
<!-- Generator: Adobe Illustrator 19.0.0, SVG Export Plug-In . SVG Version: 6.00 Build 0)  -->
<svg xmlns="http://www.w3.org/2000/svg" xmlns:xlink="http://www.w3.org/1999/xlink" version="1.1" id="Capa_1" x="0px" y="0px" viewBox="0 0 511.999 511.999" style="enable-background:new 0 0 511.999 511.999;" xml:space="preserve">
<path style="fill:#775146;" d="M256,369.295L256,369.295c-54.459,0-98.606-44.147-98.606-98.606V105.893  c0-54.459,44.147-98.606,98.606-98.606l0,0c54.459,0,98.606,44.147,98.606,98.606V270.69  C354.606,325.148,310.459,369.295,256,369.295z"/>
<path style="fill:#634038;" d="M256,7.287L256,7.287c-6.332,0-12.521,0.604-18.521,1.744c45.604,8.668,80.085,48.735,80.085,96.862  V270.69c0,48.127-34.481,88.194-80.085,96.862c6,1.14,12.189,1.744,18.521,1.744l0,0c54.459,0,98.606-44.147,98.606-98.606V105.893  C354.606,51.434,310.459,7.287,256,7.287z"/>
<path style="fill:#AF8A83;" d="M413.483,270.689v-30.897c0-5.363-4.348-9.711-9.711-9.711h-12.17c-5.363,0-9.711,4.348-9.711,9.711  v29.512c0,69.468-55.688,126.874-125.155,127.273c-69.752,0.401-126.626-56.227-126.626-125.888v-30.897  c0-5.363-4.348-9.711-9.711-9.711h-12.17c-5.363,0-9.711,4.348-9.711,9.711v29.372c0,81.568,61.453,149.66,140.811,158.113  c0.86,0.092,1.514,0.809,1.514,1.674v36.989h-71.96c-18.541,0-34.042,13.014-37.867,30.405c-0.944,4.292,2.3,8.367,6.695,8.367  h236.581c4.395,0,7.639-4.075,6.695-8.367c-3.825-17.392-19.326-30.405-37.867-30.405h-71.96v-36.977  c0-0.865,0.655-1.583,1.515-1.674C351.7,418.936,413.483,351.894,413.483,270.689z"/>
<path style="fill:#FFB124;" d="M256,7.287L256,7.287c-54.459,0-98.606,44.147-98.606,98.606v96.249h197.212v-96.249  C354.606,51.434,310.459,7.287,256,7.287z"/>
<path style="fill:#927167;" d="M343.596,465.952l-0.063,38.762h30.758c4.395,0,7.639-4.074,6.695-8.367  C377.193,479.105,361.924,466.174,343.596,465.952z"/>
<path style="fill:#FF4C4C;" d="M357.963,230.082H154.037c-4.148,0-7.511-3.363-7.511-7.511v-17.628c0-4.148,3.363-7.511,7.511-7.511  h203.926c4.148,0,7.511,3.363,7.511,7.511v17.628C365.474,226.719,362.111,230.082,357.963,230.082z"/>
<path d="M378.113,381.2c27.507-30.365,42.656-69.612,42.656-110.51v-30.897c0-9.373-7.625-16.998-16.998-16.998h-12.17  c-9.372,0-16.998,7.625-16.998,16.998v29.511c0,65.787-52.894,119.613-117.91,119.987c-31.752,0.186-61.692-12.083-84.274-34.535  c-22.585-22.456-35.023-52.311-35.023-84.066v-30.897c0-9.373-7.625-16.998-16.998-16.998h-12.17  c-9.372,0-16.998,7.625-16.998,16.998v29.372c0,27.007,6.615,53.864,19.131,77.67c1.873,3.562,6.278,4.931,9.841,3.059  c3.562-1.873,4.931-6.279,3.059-9.841c-11.421-21.723-17.457-46.235-17.457-70.888v-29.372c0-1.337,1.088-2.425,2.425-2.425h12.17  c1.337,0,2.425,1.088,2.425,2.425v30.897c0,35.663,13.964,69.189,39.321,94.4c25.168,25.024,58.47,38.776,93.849,38.776  c0.261,0,0.523-0.001,0.784-0.002c73.006-0.42,132.4-60.783,132.4-134.56v-29.511c0-1.337,1.088-2.425,2.425-2.425h12.17  c1.337,0,2.425,1.088,2.425,2.425v30.897c0,77.052-57.732,141.261-134.282,149.354c-4.585,0.48-8.042,4.315-8.042,8.92v36.977  c0,4.025,3.262,7.287,7.287,7.287h71.96c14.506,0,27.311,10.148,30.64,24.199H138.242c3.329-14.051,16.134-24.199,30.64-24.199  h71.96c4.024,0,7.287-3.262,7.287-7.287v-36.99c0-4.6-3.453-8.435-8.028-8.919c-37.409-3.985-71.796-22.008-96.825-50.747  c-2.643-3.035-7.246-3.354-10.28-0.71c-3.035,2.643-3.352,7.246-0.709,10.281c26.333,30.236,62.136,49.659,101.27,55.056v24.742  h-64.674c-21.461,0-40.379,15.194-44.983,36.126c-0.929,4.223,0.09,8.576,2.796,11.941c2.696,3.354,6.711,5.278,11.014,5.278  h236.582c4.303,0,8.318-1.924,11.014-5.278c2.706-3.365,3.725-7.718,2.797-11.941c-4.604-20.933-23.523-36.126-44.983-36.126  h-64.674V433.93C316.712,428.691,351.942,410.091,378.113,381.2z"/>
<path d="M150.107,236.822v33.868c0,58.389,47.503,105.892,105.893,105.892s105.893-47.503,105.893-105.892v-33.868  c6.255-1.728,10.867-7.454,10.867-14.251v-17.628c0-6.797-4.612-12.524-10.867-14.251v-84.799c0-31.397-13.74-59.64-35.516-79.049  c-0.36-0.396-0.761-0.753-1.2-1.062C312.246,14.601,296.59,6.495,279.354,2.6c-0.117-0.028-0.233-0.055-0.352-0.077  C271.594,0.876,263.898,0,256,0c-7.857,0-15.514,0.867-22.887,2.498c-0.225,0.038-0.445,0.087-0.663,0.145  c-17.158,3.912-32.745,12-45.627,23.139c-0.439,0.309-0.84,0.666-1.2,1.062c-21.777,19.409-35.516,47.652-35.516,79.049v84.799  c-6.255,1.728-10.867,7.454-10.867,14.251v17.628C139.24,229.368,143.853,235.094,150.107,236.822z M347.32,270.69  c0,50.353-40.966,91.319-91.32,91.319s-91.32-40.966-91.32-91.319v-33.322h182.64V270.69z M284.952,19.28  c10.577,3.545,20.296,8.977,28.757,15.894v79.53c0,4.025,3.262,7.287,7.287,7.287s7.287-3.262,7.287-7.287V50.152  c11.929,15.433,19.038,34.771,19.038,55.741v84.252h-19.038v-38.336c0-4.025-3.262-7.287-7.287-7.287s-7.287,3.262-7.287,7.287  v38.336h-28.757V19.28z M241.621,15.709c4.685-0.744,9.487-1.136,14.379-1.136s9.693,0.391,14.379,1.136v174.437h-28.757  L241.621,15.709L241.621,15.709z M198.292,35.173c8.461-6.917,18.179-12.349,28.757-15.894v170.866h-28.757V35.173z M164.68,105.893  c0-20.97,7.109-40.308,19.038-55.741v139.993H164.68V105.893z M153.813,204.943c0-0.124,0.101-0.225,0.224-0.225h3.357h197.213  h3.357c0.123,0,0.224,0.101,0.224,0.225v17.628c0,0.123-0.101,0.224-0.224,0.224h-3.357H157.394h-3.357  c-0.123,0-0.224-0.101-0.224-0.224V204.943z"/>
<g>
</g>
<g>
</g>
<g>
</g>
<g>
</g>
<g>
</g>
<g>
</g>
<g>
</g>
<g>
</g>
<g>
</g>
<g>
</g>
<g>
</g>
<g>
</g>
<g>
</g>
<g>
</g>
<g>
</g>
</svg>
