<?xml version="1.0" encoding="iso-8859-1"?>
<!-- Generator: Adobe Illustrator 19.0.0, SVG Export Plug-In . SVG Version: 6.00 Build 0)  -->
<svg xmlns="http://www.w3.org/2000/svg" xmlns:xlink="http://www.w3.org/1999/xlink" version="1.1" id="Capa_1" x="0px" y="0px" viewBox="0 0 512 512" style="enable-background:new 0 0 512 512;" xml:space="preserve">
<path style="fill:#21D8DE;" d="M256,7.287C118.639,7.287,7.286,118.639,7.286,256S118.639,504.713,256,504.713  S504.714,393.361,504.714,256S393.361,7.287,256,7.287z M256,303.945c-26.479,0-47.945-21.466-47.945-47.945  s21.466-47.945,47.945-47.945s47.945,21.466,47.945,47.945S282.479,303.945,256,303.945z"/>
<g>
	<path style="fill:#11B9C1;" d="M412.342,62.58c34.572,42.718,55.294,97.106,55.294,156.342   c0,137.361-111.353,248.713-248.713,248.713c-59.236,0-113.624-20.722-156.342-55.294c45.597,56.34,115.295,92.372,193.42,92.372   c65.611,0,125.289-25.406,169.731-66.916c4.855-4.534,9.527-9.261,14.006-14.167c3.989-4.37,7.825-8.883,11.498-13.531   c33.488-42.37,53.478-95.9,53.478-154.099C504.714,177.875,468.682,108.177,412.342,62.58z"/>
	<path style="fill:#11B9C1;" d="M256,180.084c-41.927,0-75.916,33.989-75.916,75.916s33.989,75.916,75.916,75.916   s75.916-33.989,75.916-75.916S297.927,180.084,256,180.084z M256,303.945c-26.479,0-47.945-21.466-47.945-47.945   s21.466-47.945,47.945-47.945s47.945,21.466,47.945,47.945S282.479,303.945,256,303.945z"/>
</g>
<g>
	<path style="fill:#FFFCFD;" d="M371.305,85.405c-31.37-21.247-68.905-34.076-109.369-35.222C258.688,50.091,256,52.701,256,55.95   v86.193c0,3.05,2.377,5.597,5.423,5.748c17.03,0.842,33.021,5.626,47.089,13.45c2.398,1.334,5.397,0.816,7.183-1.267l56.734-66.151   C374.665,91.316,374.148,87.331,371.305,85.405z"/>
	<path style="fill:#FFFCFD;" d="M347.53,198.244c9.609,15.191,15.554,32.929,16.558,51.982c0.163,3.085,2.664,5.523,5.753,5.523   h86.199c3.247,0,5.863-2.685,5.767-5.931c-1.26-42.71-15.535-82.149-38.985-114.505c-1.975-2.726-5.866-3.176-8.421-0.984   l-65.785,56.42C346.43,192.625,345.99,195.81,347.53,198.244z"/>
	<path style="fill:#FFFCFD;" d="M85.706,371.004c-21.247-31.37-34.076-68.905-35.222-109.369c-0.092-3.248,2.519-5.936,5.768-5.936   h86.193c3.05,0,5.597,2.377,5.748,5.423c0.842,17.03,5.626,33.021,13.45,47.089c1.334,2.398,0.816,5.397-1.267,7.183   l-66.151,56.734C91.618,374.364,87.632,373.847,85.706,371.004z"/>
	<path style="fill:#FFFCFD;" d="M198.546,347.229c15.191,9.609,32.929,15.554,51.982,16.558c3.085,0.163,5.523,2.664,5.523,5.753   v86.199c0,3.247-2.685,5.863-5.931,5.767c-42.71-1.26-82.149-15.535-114.505-38.985c-2.726-1.975-3.176-5.866-0.984-8.421   l56.42-65.785C192.926,346.129,196.112,345.689,198.546,347.229z"/>
</g>
<path d="M420.923,432.318C376.055,474.304,317.484,497.427,256,497.427C122.877,497.427,14.573,389.123,14.573,256  c0-61.465,23.111-120.023,65.075-164.886c2.749-2.939,2.595-7.55-0.343-10.299c-2.939-2.748-7.549-2.595-10.299,0.344  C24.507,128.732,0,190.824,0,256c0,68.38,26.629,132.667,74.981,181.019S187.62,512,256,512c65.195,0,127.302-24.519,174.88-69.042  c2.938-2.75,3.092-7.361,0.342-10.299C428.472,429.722,423.861,429.568,420.923,432.318z"/>
<path d="M437.019,74.981C388.667,26.629,324.38,0,256,0C198.009,0,143.318,18.91,97.842,54.686  c-3.163,2.488-3.71,7.069-1.222,10.232c2.488,3.162,7.069,3.709,10.232,1.222C149.735,32.405,201.309,14.573,256,14.573  c133.123,0,241.427,108.304,241.427,241.427c0,54.994-18.01,106.795-52.083,149.803c-2.499,3.154-1.968,7.737,1.186,10.236  c1.339,1.061,2.935,1.576,4.52,1.576c2.149,0,4.278-0.947,5.716-2.762C492.9,369.243,512,314.313,512,256  C512,187.62,485.371,123.333,437.019,74.981z"/>
<path d="M200.768,256c0,30.455,24.777,55.232,55.232,55.232s55.232-24.777,55.232-55.232S286.455,200.768,256,200.768  S200.768,225.545,200.768,256z M256,215.342c22.419,0,40.658,18.24,40.658,40.658s-18.24,40.658-40.658,40.658  s-40.658-18.24-40.658-40.658S233.581,215.342,256,215.342z"/>
<path d="M375.392,79.372c-33.533-22.712-72.694-35.324-113.249-36.473c-7.343-0.185-13.429,5.728-13.429,13.052v86.193  c0,6.961,5.425,12.682,12.351,13.025c15.554,0.769,30.327,4.988,43.907,12.54c1.945,1.082,4.146,1.654,6.365,1.654l0,0  c3.808,0,7.414-1.657,9.891-4.545l56.734-66.151c2.42-2.823,3.525-6.556,3.031-10.242C380.499,84.748,378.458,81.449,375.392,79.372  z M310.978,154.381c-14.814-8.038-30.846-12.638-47.692-13.685v-83.18c36.648,1.324,72.017,12.698,102.5,32.96L310.978,154.381z"/>
<path d="M341.372,202.139c9.195,14.537,14.534,31.298,15.439,48.471c0.368,6.968,6.091,12.426,13.03,12.426h86.199  c3.56,0,6.888-1.408,9.369-3.963c2.479-2.553,3.786-5.916,3.681-9.47c-1.265-42.872-15.224-83.872-40.368-118.566  c-2.444-3.372-6.394-5.385-10.566-5.385c-3.115,0-6.133,1.117-8.499,3.146l-65.785,56.42  C338.993,189.404,337.918,196.679,341.372,202.139z M417.89,140.936c22.508,31.602,35.133,68.713,36.581,107.527h-83.188  c-1.216-18.759-7.049-37.039-16.924-53.04L417.89,140.936z"/>
<path d="M155.47,260.763c-0.342-6.926-6.063-12.351-13.025-12.351H56.252c-3.556,0-6.88,1.405-9.36,3.956  c-2.481,2.552-3.792,5.917-3.691,9.473c1.149,40.555,13.761,79.715,36.472,113.249c2.425,3.58,6.46,5.717,10.795,5.717  c3.115,0,6.134-1.118,8.5-3.147l66.151-56.734c4.68-4.014,5.897-10.851,2.892-16.256C160.458,291.09,156.239,276.317,155.47,260.763  z M90.778,365.485c-20.262-30.482-31.636-65.852-32.96-102.5h83.18c1.046,16.847,5.647,32.879,13.685,47.692L90.778,365.485z"/>
<path d="M185.52,343.571l-56.42,65.785c-2.369,2.761-3.482,6.418-3.056,10.033c0.426,3.61,2.356,6.902,5.296,9.032  c34.695,25.144,75.694,39.103,118.567,40.368c0.13,0.004,0.257,0.006,0.386,0.006c7.194,0,13.046-5.857,13.046-13.056V369.54  c0-6.939-5.458-12.662-12.426-13.03c-17.173-0.905-33.934-6.243-48.471-15.439c-2.111-1.335-4.542-2.041-7.031-2.041  C191.6,339.029,187.995,340.685,185.52,343.571z M248.765,370.982v83.188c-38.814-1.448-75.925-14.074-107.527-36.581l54.487-63.531  C211.726,363.933,230.007,369.766,248.765,370.982z"/>
<g>
</g>
<g>
</g>
<g>
</g>
<g>
</g>
<g>
</g>
<g>
</g>
<g>
</g>
<g>
</g>
<g>
</g>
<g>
</g>
<g>
</g>
<g>
</g>
<g>
</g>
<g>
</g>
<g>
</g>
</svg>
