<?xml version="1.0" encoding="iso-8859-1"?>
<!-- Generator: Adobe Illustrator 19.0.0, SVG Export Plug-In . SVG Version: 6.00 Build 0)  -->
<svg xmlns="http://www.w3.org/2000/svg" xmlns:xlink="http://www.w3.org/1999/xlink" version="1.1" id="Capa_1" x="0px" y="0px" viewBox="0 0 512 512" style="enable-background:new 0 0 512 512;" xml:space="preserve">
<path style="fill:#AF8A83;" d="M406.098,122.834v138.042h37.466V122.833c0-56.784-46.198-102.982-102.982-102.982  S237.6,66.049,237.6,122.833v276.084c0,36.125-29.39,65.515-65.515,65.515c-36.126,0-65.516-29.39-65.516-65.515V250.912H69.103  v148.006c0,56.784,46.198,102.982,102.982,102.982s102.982-46.198,102.982-102.982V122.834c0-36.125,29.39-65.515,65.516-65.515  C376.707,57.318,406.098,86.709,406.098,122.834z"/>
<path style="fill:#2D5872;" d="M125.334,7.284H50.905c-6.48,0-11.734,5.254-11.734,11.734v66.255h97.898V19.018  C137.068,12.537,131.815,7.284,125.334,7.284z"/>
<path style="fill:#1D4859;" d="M125.334,7.284H88.501c6.48,0,11.734,5.254,11.734,11.734v66.255h36.833V19.018  C137.068,12.537,131.815,7.284,125.334,7.284z"/>
<path style="fill:#2D5872;" d="M461.095,504.503h-74.429c-6.48,0-11.734-5.254-11.734-11.734v-66.255h97.978l-0.08,66.255  C472.829,499.25,467.575,504.503,461.095,504.503z"/>
<path style="fill:#1D4859;" d="M435.84,426.515v66.255c0,6.48-5.254,11.734-11.734,11.734h36.989c6.48,0,11.734-5.254,11.734-11.734  l0.08-66.255H435.84z"/>
<path style="fill:#FF4C4C;" d="M115.548,250.912H60.69c-8.199,0-14.844-6.646-14.844-14.844v-22.104h84.539l0.007,22.104  C130.392,244.265,123.747,250.912,115.548,250.912z"/>
<path style="fill:#F33939;" d="M93.247,250.912h22.302c8.199,0,14.844-6.646,14.844-14.844l-0.007-22.104H93.247V250.912z"/>
<path style="fill:#FF4C4C;" d="M451.309,260.875h-54.858c-8.199,0-14.844,6.646-14.844,14.844v22.104h84.547v-22.104  C466.154,267.522,459.507,260.875,451.309,260.875z"/>
<path style="fill:#F33939;" d="M451.309,260.875h-22.145v36.949h36.989V275.72C466.154,267.522,459.507,260.875,451.309,260.875z"/>
<path style="fill:#FFB124;" d="M151.03,213.963H25.209c-4.51,0-8.167-3.656-8.167-8.167V93.439c0-4.51,3.656-8.167,8.167-8.167  H151.03c4.51,0,8.167,3.656,8.167,8.167v112.357C159.196,210.307,155.54,213.963,151.03,213.963z"/>
<path style="fill:#FF901E;" d="M151.03,85.273h-37.26c4.51,0,8.167,3.656,8.167,8.167v112.357c0,4.51-3.656,8.167-8.167,8.167h37.26  c4.51,0,8.167-3.656,8.167-8.167V93.439C159.196,88.929,155.54,85.273,151.03,85.273z"/>
<path style="fill:#FFB124;" d="M486.79,297.824H360.969c-4.51,0-8.167,3.656-8.167,8.167v112.357c0,4.51,3.656,8.167,8.167,8.167  H486.79c4.51,0,8.167-3.656,8.167-8.167V305.991C494.957,301.481,491.3,297.824,486.79,297.824z"/>
<path style="fill:#FF901E;" d="M486.79,297.824h-36.989c4.51,0,8.167,3.656,8.167,8.167v112.357c0,4.51-3.656,8.167-8.167,8.167  h36.989c4.51,0,8.167-3.656,8.167-8.167V305.991C494.957,301.481,491.3,297.824,486.79,297.824z"/>
<path style="fill:#E1EFFB;" d="M446.469,460.519h-45.178c-3.177,0-5.753,2.576-5.753,5.753v38.231h56.683v-38.231  C452.221,463.095,449.646,460.519,446.469,460.519z"/>
<path d="M494.957,353.115c4.022,0,7.283-3.261,7.283-7.283v-39.841c0-8.518-6.931-15.45-15.45-15.45h-13.353V275.72  c0-12.201-9.926-22.128-22.128-22.128h-0.462V122.834c0-60.8-49.464-110.265-110.265-110.265S230.316,62.033,230.316,122.834  v276.084c0,32.109-26.122,58.232-58.232,58.232s-58.232-26.122-58.232-58.232V258.195h1.695c12.201,0,22.128-9.926,22.128-22.128  v-14.821h13.353c8.519,0,15.45-6.931,15.45-15.45V93.439c0-8.519-6.931-15.45-15.45-15.45h-6.678V19.018  C144.351,8.531,135.821,0,125.334,0H50.905C40.418,0,31.887,8.531,31.887,19.018V77.99h-6.678c-8.519,0-15.45,6.931-15.45,15.45  v37.34c0,4.022,3.261,7.283,7.283,7.283s7.284-3.261,7.284-7.283v-37.34c0-0.487,0.396-0.883,0.883-0.883H39.17h97.897h13.961  c0.487,0,0.883,0.396,0.883,0.883v112.357c0,0.487-0.396,0.883-0.883,0.883h-20.637H45.846H25.209c-0.487,0-0.883-0.396-0.883-0.883  v-37.143c0-4.022-3.261-7.284-7.284-7.284c-4.022,0-7.283,3.261-7.283,7.284v37.143c0,8.518,6.931,15.45,15.45,15.45h13.353v14.821  c0,12.201,9.926,22.128,22.128,22.128h1.13v140.723c0,60.801,49.465,110.265,110.266,110.265s110.265-49.464,110.265-110.265  V122.834c0-32.109,26.123-58.232,58.232-58.232s58.232,26.122,58.232,58.232v130.759h-2.363c-12.201,0-22.128,9.926-22.128,22.128  v14.821h-13.354c-8.519,0-15.45,6.931-15.45,15.45v112.357c0,8.519,6.931,15.45,15.45,15.45h6.678v58.971  c0,10.487,8.531,19.018,19.018,19.018h1.376V512h71.677v-0.213h1.376c10.487,0,19.018-8.531,19.018-19.018v-58.971h6.677  c8.519,0,15.45-6.931,15.45-15.45v-35.114c0-4.022-3.261-7.283-7.283-7.283s-7.284,3.261-7.284,7.283v35.114  c0,0.487-0.396,0.883-0.883,0.883H472.83h-97.898h-13.962c-0.487,0-0.883-0.396-0.883-0.883V305.991  c0-0.487,0.396-0.883,0.883-0.883h20.637h84.547h20.637c0.487,0,0.883,0.396,0.883,0.883v39.841  C487.674,349.854,490.934,353.115,494.957,353.115z M129.784,77.99h-83.33V19.018c0-2.454,1.997-4.451,4.451-4.451h6.462v26.301  c0,4.022,3.261,7.284,7.284,7.284c4.022,0,7.283-3.261,7.283-7.284V14.567h8.901v26.301c0,4.022,3.261,7.284,7.283,7.284  c4.022,0,7.284-3.261,7.284-7.284V14.567h8.902v26.301c0,4.022,3.261,7.284,7.284,7.284c4.022,0,7.283-3.261,7.283-7.284V14.567  h6.462c2.454,0,4.451,1.997,4.451,4.451V77.99H129.784z M382.214,433.798h83.331v58.971c0,2.454-1.997,4.451-4.451,4.451h-1.376  v-30.948c0-7.306-5.944-13.249-13.249-13.249h-45.177c-7.306,0-13.249,5.944-13.249,13.249v30.948h-1.376  c-2.454,0-4.451-1.997-4.451-4.451L382.214,433.798L382.214,433.798z M403.035,497.006v-28.99h41.69v28.99H403.035z M60.69,243.628  c-4.169,0-7.561-3.392-7.561-7.561v-14.821h69.98v14.821c0,4.169-3.392,7.561-7.561,7.561h-8.979H69.103H60.69z M340.582,50.035  c-40.141,0-72.799,32.657-72.799,72.799v276.084c0,52.768-42.93,95.698-95.698,95.698s-95.699-42.93-95.699-95.698V258.195h22.899  v140.723c0,40.141,32.657,72.799,72.799,72.799s72.799-32.657,72.799-72.799V122.834c0-52.768,42.93-95.698,95.699-95.698  c52.768,0,95.698,42.93,95.698,95.698v130.759H413.38V122.834C413.381,82.693,380.723,50.035,340.582,50.035z M458.87,290.541  h-69.98V275.72c0-4.169,3.392-7.561,7.561-7.561h9.647h37.466h7.746c4.169,0,7.561,3.392,7.561,7.561L458.87,290.541L458.87,290.541  z"/>
<g>
</g>
<g>
</g>
<g>
</g>
<g>
</g>
<g>
</g>
<g>
</g>
<g>
</g>
<g>
</g>
<g>
</g>
<g>
</g>
<g>
</g>
<g>
</g>
<g>
</g>
<g>
</g>
<g>
</g>
</svg>
