<?xml version="1.0" encoding="iso-8859-1"?>
<!-- Generator: Adobe Illustrator 19.0.0, SVG Export Plug-In . SVG Version: 6.00 Build 0)  -->
<svg xmlns="http://www.w3.org/2000/svg" xmlns:xlink="http://www.w3.org/1999/xlink" version="1.1" id="Capa_1" x="0px" y="0px" viewBox="0 0 512.001 512.001" style="enable-background:new 0 0 512.001 512.001;" xml:space="preserve">
<path style="fill:#FFB124;" d="M470.259,374.31H41.741V114.401c0-11.5,9.322-20.822,20.822-20.822h386.874  c11.5,0,20.822,9.322,20.822,20.822V374.31z"/>
<path style="fill:#FF901E;" d="M449.437,93.578h-37.056c11.5,0,20.822,9.323,20.822,20.822v259.909h37.056V114.4  C470.259,102.901,460.937,93.578,449.437,93.578z"/>
<path style="fill:#FFFCFD;" d="M69.971,337.505V130.383c0-4.735,3.839-8.574,8.574-8.574h354.909c4.735,0,8.574,3.839,8.574,8.574  v207.122c0,4.735-3.839,8.574-8.574,8.574H78.545C73.81,346.079,69.971,342.241,69.971,337.505z"/>
<path style="fill:#E6E6E6;" d="M433.455,121.809h-37.056c4.735,0,8.574,3.839,8.574,8.574v207.122c0,4.735-3.839,8.574-8.574,8.574  h37.056c4.735,0,8.574-3.839,8.574-8.574V130.383C442.029,125.648,438.19,121.809,433.455,121.809z"/>
<path style="fill:#FF4C4C;" d="M478.677,418.424H33.323c-14.38,0-26.037-11.657-26.037-26.037v-18.078h497.427v18.078  C504.713,406.767,493.057,418.424,478.677,418.424z"/>
<path style="fill:#F33939;" d="M424.961,394.915H87.039c-12.984,0-23.509,10.525-23.509,23.509l0,0h384.94l0,0  C448.47,405.44,437.945,394.915,424.961,394.915z"/>
<g>
	<path style="fill:#61AFF6;" d="M171.986,217.864h-52.123c-5.36,0-9.706-4.345-9.706-9.706v-37.249c0-5.36,4.345-9.706,9.706-9.706   h52.123c5.36,0,9.706,4.345,9.706,9.706v37.249C181.692,213.518,177.346,217.864,171.986,217.864z"/>
	<path style="fill:#61AFF6;" d="M171.986,306.685h-52.123c-5.36,0-9.706-4.345-9.706-9.706V259.73c0-5.36,4.345-9.706,9.706-9.706   h52.123c5.36,0,9.706,4.345,9.706,9.706v37.249C181.692,302.34,177.346,306.685,171.986,306.685z"/>
</g>
<path d="M433.454,353.366c8.746,0,15.861-7.115,15.861-15.861V130.383c0-8.746-7.115-15.861-15.861-15.861H78.546  c-8.746,0-15.861,7.115-15.861,15.861v207.122c0,8.746,7.115,15.861,15.861,15.861H433.454z M77.258,337.505V130.383  c0-0.71,0.578-1.287,1.287-1.287h354.909c0.71,0,1.287,0.577,1.287,1.287v207.122c0,0.71-0.578,1.287-1.287,1.287H78.546  C77.836,338.793,77.258,338.215,77.258,337.505z"/>
<path d="M119.862,225.15h52.123c9.37,0,16.992-7.623,16.992-16.992v-37.25c0-9.37-7.622-16.992-16.992-16.992h-52.123  c-9.369,0-16.991,7.622-16.991,16.992v37.25C102.871,217.528,110.493,225.15,119.862,225.15z M117.444,170.909  c0-1.334,1.084-2.419,2.418-2.419h52.123c1.334,0,2.419,1.085,2.419,2.419v37.25c0,1.334-1.085,2.419-2.419,2.419h-52.123  c-1.334,0-2.418-1.085-2.418-2.419V170.909z"/>
<path d="M119.862,313.972h52.123c9.37,0,16.992-7.623,16.992-16.992v-37.25c0-9.37-7.622-16.992-16.992-16.992h-52.123  c-9.369,0-16.991,7.622-16.991,16.992v37.25C102.871,306.349,110.493,313.972,119.862,313.972z M117.444,259.73  c0-1.334,1.084-2.419,2.418-2.419h52.123c1.334,0,2.419,1.085,2.419,2.419v37.25c0,1.334-1.085,2.419-2.419,2.419h-52.123  c-1.334,0-2.418-1.085-2.418-2.419V259.73z"/>
<path d="M504.713,367.023h-27.168V114.4c0-15.499-12.61-28.109-28.109-28.109H62.564c-15.499,0-28.109,12.61-28.109,28.109v145  c0,4.024,3.262,7.287,7.287,7.287s7.287-3.262,7.287-7.287v-145c0-7.463,6.072-13.536,13.536-13.536h386.873  c7.464,0,13.536,6.072,13.536,13.536v252.623H49.028v-70.058c0-4.024-3.262-7.287-7.287-7.287s-7.287,3.262-7.287,7.287v70.058  H7.287c-4.025,0-7.287,3.262-7.287,7.287v18.077c0,18.374,14.949,33.323,33.324,33.323H63.53h384.941h30.206  c18.375,0,33.324-14.949,33.324-33.323V374.31C512,370.286,508.738,367.023,504.713,367.023z M72.546,411.137  c2.674-5.296,8.165-8.936,14.492-8.936H424.96c6.327,0,11.819,3.64,14.492,8.936H72.546z M497.427,392.387  c0,10.339-8.412,18.75-18.75,18.75h-23.798c-3.283-13.474-15.447-23.509-29.917-23.509H87.039  c-14.471,0-26.635,10.035-29.917,23.509H33.324c-10.339,0-18.75-8.411-18.75-18.75v-10.791h27.168H470.26h27.168v10.791H497.427z"/>
<path d="M370.884,181.54h29.389c4.025,0,7.287-3.262,7.287-7.287c0-4.024-3.262-7.287-7.287-7.287h-29.389  c-4.025,0-7.287,3.262-7.287,7.287C363.598,178.278,366.86,181.54,370.884,181.54z"/>
<path d="M214.71,181.54h119.378c4.025,0,7.287-3.262,7.287-7.287c0-4.024-3.262-7.287-7.287-7.287H214.71  c-4.025,0-7.287,3.262-7.287,7.287C207.423,178.278,210.685,181.54,214.71,181.54z"/>
<path d="M214.71,212.373h185.564c4.025,0,7.287-3.262,7.287-7.287c0-4.024-3.262-7.287-7.287-7.287H214.71  c-4.025,0-7.287,3.262-7.287,7.287S210.685,212.373,214.71,212.373z"/>
<path d="M214.71,270.224h185.564c4.025,0,7.287-3.262,7.287-7.287c0-4.024-3.262-7.287-7.287-7.287H214.71  c-4.025,0-7.287,3.262-7.287,7.287S210.685,270.224,214.71,270.224z"/>
<path d="M214.71,301.058h185.564c4.025,0,7.287-3.262,7.287-7.287c0-4.024-3.262-7.287-7.287-7.287H214.71  c-4.025,0-7.287,3.262-7.287,7.287S210.685,301.058,214.71,301.058z"/>
<g>
</g>
<g>
</g>
<g>
</g>
<g>
</g>
<g>
</g>
<g>
</g>
<g>
</g>
<g>
</g>
<g>
</g>
<g>
</g>
<g>
</g>
<g>
</g>
<g>
</g>
<g>
</g>
<g>
</g>
</svg>
