<?xml version="1.0" encoding="iso-8859-1"?>
<!-- Generator: Adobe Illustrator 19.0.0, SVG Export Plug-In . SVG Version: 6.00 Build 0)  -->
<svg xmlns="http://www.w3.org/2000/svg" xmlns:xlink="http://www.w3.org/1999/xlink" version="1.1" id="Capa_1" x="0px" y="0px" viewBox="0 0 512.001 512.001" style="enable-background:new 0 0 512.001 512.001;" xml:space="preserve">
<g>
	<path style="fill:#193D4B;" d="M70.632,486.762H44.098c-4.974,0-9.006-4.032-9.006-9.006v-24.529h44.545v24.529   C79.637,482.73,75.605,486.762,70.632,486.762z"/>
	<path style="fill:#193D4B;" d="M467.902,486.762h-26.533c-4.974,0-9.006-4.032-9.006-9.006v-24.529h44.545v24.529   C476.907,482.73,472.875,486.762,467.902,486.762z"/>
</g>
<path style="fill:#21D8DE;" d="M495.699,458.236H16.301C7.298,458.236,0,450.938,0,441.935V319.909  c0-9.003,7.298-16.301,16.301-16.301H495.7c9.003,0,16.301,7.298,16.301,16.301v122.026  C512,450.938,504.702,458.236,495.699,458.236z"/>
<path style="fill:#11B9C1;" d="M495.699,303.608h-18.855V406.78c0,9.003-7.298,16.301-16.301,16.301H0v18.855  c0,9.003,7.298,16.301,16.301,16.301H495.7c9.003,0,16.301-7.298,16.301-16.301V319.909  C512,310.906,504.702,303.608,495.699,303.608z"/>
<path style="fill:#55A2EF;" d="M455.85,408.048H321.287c-7.862,0-14.236-6.373-14.236-14.236v-32.257  c0-7.862,6.373-14.236,14.236-14.236H455.85c7.862,0,14.236,6.373,14.236,14.236v32.257  C470.086,401.674,463.712,408.048,455.85,408.048z"/>
<g>
	<circle style="fill:#FFFCFD;" cx="69.942" cy="377.68" r="28.03"/>
	<circle style="fill:#FFFCFD;" cx="152.76" cy="377.68" r="28.03"/>
	<circle style="fill:#FFFCFD;" cx="235.57" cy="377.68" r="28.03"/>
</g>
<g>
	<path style="fill:#FFB124;" d="M434.775,99.289C387.023,51.537,323.532,25.238,256,25.238S124.977,51.537,77.225,99.289   c-8.032,8.032-8.032,21.053,0,29.085c8.031,8.031,21.053,8.031,29.085,0c82.54-82.54,216.842-82.54,299.381,0   c8.032,8.031,21.053,8.031,29.085,0C442.807,120.342,442.807,107.321,434.775,99.289z"/>
	<path style="fill:#FFB124;" d="M256,101.334c-52.022,0-100.931,20.258-137.716,57.044c-8.032,8.032-8.032,21.053,0,29.084   c8.032,8.032,21.053,8.032,29.085,0c59.9-59.9,157.364-59.9,217.264,0c8.032,8.032,21.053,8.032,29.085,0   c8.032-8.031,8.032-21.053,0-29.084C356.931,121.592,308.022,101.334,256,101.334z"/>
	<path style="fill:#FFB124;" d="M160.293,219.419c-8.032,8.031-8.032,21.053,0,29.085c8.031,8.031,21.053,8.031,29.085,0   c36.735-36.735,96.509-36.735,133.244,0c8.032,8.031,21.053,8.031,29.085,0c8.032-8.031,8.032-21.053,0-29.085   C298.934,166.646,213.066,166.646,160.293,219.419z"/>
</g>
<g>
	<path style="fill:#FF901E;" d="M255.997,179.839v41.113c24.128-0.001,48.257,9.183,66.625,27.552   c8.032,8.031,21.053,8.031,29.085,0c8.032-8.032,8.032-21.053,0-29.085C325.319,193.031,290.658,179.838,255.997,179.839z"/>
	<path style="fill:#FF901E;" d="M256,101.334c-0.001,0-0.002,0-0.003,0v41.204c39.342-0.001,78.684,14.974,108.635,44.925   c8.032,8.032,21.053,8.032,29.085,0c8.032-8.031,8.032-21.053,0-29.084C356.931,121.592,308.022,101.334,256,101.334z"/>
	<path style="fill:#FF901E;" d="M256,25.238c-0.001,0-0.002,0-0.003,0v41.231c54.212-0.001,108.423,20.634,149.694,61.905   c8.032,8.031,21.053,8.031,29.085,0c8.032-8.032,8.032-21.053,0-29.085C387.023,51.537,323.532,25.238,256,25.238z"/>
</g>
<path d="M488.877,294.967H95.211c-4.025,0-7.287,3.262-7.287,7.287c0,4.024,3.262,7.287,7.287,7.287h393.666  c4.714,0,8.55,3.835,8.55,8.55v118.553c0,4.714-3.836,8.55-8.55,8.55h-10.971h-57.85H91.944h-57.85H23.123  c-4.714,0-8.55-3.836-8.55-8.55V318.09c0-4.714,3.836-8.55,8.55-8.55h34.926c4.025,0,7.287-3.262,7.287-7.287  c0-4.024-3.262-7.287-7.287-7.287H23.123C10.373,294.967,0,305.34,0,318.09v118.553c0,12.75,10.373,23.123,23.123,23.123h10.971  v11.678c0,8.842,7.194,16.036,16.036,16.036h25.778c8.843,0,16.036-7.194,16.036-16.036v-11.678h328.112v11.678  c0,8.842,7.194,16.036,16.036,16.036h25.778c8.842,0,16.036-7.194,16.036-16.036v-11.678h10.971  c12.75,0,23.123-10.373,23.123-23.123V318.09C512,305.34,501.627,294.967,488.877,294.967z M77.371,471.445  c0,0.806-0.657,1.463-1.463,1.463H50.13c-0.806,0-1.463-0.656-1.463-1.463v-11.678h28.704V471.445z M463.333,471.445  c0,0.806-0.657,1.463-1.463,1.463h-25.778c-0.806,0-1.463-0.656-1.463-1.463v-11.678h28.704L463.333,471.445L463.333,471.445z"/>
<path d="M96.441,145.145c7.284,0,14.131-2.836,19.282-7.986C153.13,99.752,202.948,79.15,256,79.15s102.87,20.602,140.278,58.009  c5.15,5.15,11.997,7.986,19.281,7.986c7.283,0,14.131-2.836,19.281-7.986c10.631-10.631,10.631-27.93,0-38.562  C387.069,50.828,323.556,24.52,256,24.52S124.931,50.828,77.16,98.597c-10.631,10.631-10.631,27.93,0,38.562  C82.31,142.309,89.158,145.145,96.441,145.145z M87.466,108.902C132.483,63.885,192.337,39.093,256,39.093  s123.517,24.792,168.534,69.809c4.95,4.95,4.95,13.003,0,17.953c-2.397,2.398-5.584,3.718-8.975,3.718s-6.579-1.321-8.976-3.718  C366.422,86.694,312.945,64.577,256,64.577s-110.422,22.117-150.582,62.277c-2.398,2.398-5.586,3.718-8.977,3.718  s-6.579-1.32-8.975-3.718C82.516,121.905,82.516,113.852,87.466,108.902z"/>
<path d="M394.95,194.565c10.631-10.631,10.631-27.929-0.001-38.561C357.834,118.889,308.488,98.449,256,98.449  s-101.834,20.44-138.95,57.555c-10.631,10.632-10.631,27.93,0.001,38.561c5.15,5.15,11.997,7.987,19.281,7.987  s14.131-2.836,19.281-7.987c26.769-26.769,62.421-41.512,100.387-41.512c37.967,0,73.619,14.743,100.387,41.512  c5.15,5.15,11.997,7.987,19.281,7.987S389.799,199.716,394.95,194.565z M256,138.48c-41.859,0-81.17,16.259-110.693,45.78  c-2.398,2.398-5.584,3.718-8.975,3.718s-6.579-1.321-8.976-3.718c-4.95-4.949-4.95-13.002,0-17.952  c34.362-34.362,80.049-53.286,128.644-53.286s94.282,18.924,128.644,53.286c4.95,4.95,4.95,13.003,0.001,17.952  c-2.398,2.398-5.586,3.718-8.977,3.718s-6.578-1.321-8.975-3.718C337.171,154.739,297.86,138.48,256,138.48z"/>
<path d="M256,174.72c-37.11,0-71.962,14.414-98.136,40.587c-10.631,10.632-10.631,27.93,0.001,38.561  c5.15,5.15,11.997,7.987,19.281,7.987c7.284,0,14.131-2.836,19.281-7.987c15.884-15.885,37.042-24.633,59.573-24.633  s43.689,8.748,59.573,24.633c5.15,5.15,11.997,7.987,19.281,7.987s14.131-2.836,19.282-7.987c10.631-10.631,10.631-27.929,0-38.561  C327.962,189.134,293.11,174.72,256,174.72z M343.831,243.564c-2.398,2.398-5.586,3.718-8.977,3.718s-6.578-1.321-8.975-3.718  c-18.638-18.638-43.454-28.901-69.879-28.901s-51.241,10.264-69.879,28.901c-2.398,2.398-5.584,3.718-8.975,3.718  s-6.579-1.321-8.976-3.718c-4.95-4.949-4.95-13.002,0-17.952c23.42-23.421,54.613-36.319,87.83-36.319s64.41,12.898,87.83,36.319  C348.78,230.562,348.78,238.615,343.831,243.564z"/>
<path d="M319.429,352.007h68.173c4.025,0,7.286-3.262,7.286-7.287s-3.262-7.287-7.286-7.287h-68.173  c-11.644,0-21.117,9.473-21.117,21.117v31.338c0,11.644,9.473,21.117,21.117,21.117h130.733c11.644,0,21.117-9.473,21.117-21.117  v-31.338c0-11.644-9.472-21.117-21.117-21.117h-25.115c-4.025,0-7.286,3.262-7.286,7.287s3.262,7.287,7.286,7.287h25.115  c3.608,0,6.544,2.935,6.544,6.544v31.338c0,3.609-2.935,6.544-6.544,6.544H319.429c-3.608,0-6.544-2.935-6.544-6.544v-31.338  C312.885,354.943,315.821,352.007,319.429,352.007z"/>
<path d="M40.721,374.22c0,19.033,15.484,34.517,34.517,34.517s34.517-15.484,34.517-34.517s-15.484-34.517-34.517-34.517  S40.721,355.188,40.721,374.22z M75.238,354.277c10.997,0,19.944,8.947,19.944,19.944s-8.947,19.944-19.944,19.944  s-19.944-8.947-19.944-19.944S64.241,354.277,75.238,354.277z"/>
<path d="M190.213,374.22c0-19.033-15.484-34.517-34.517-34.517s-34.517,15.484-34.517,34.517s15.484,34.517,34.517,34.517  S190.213,393.253,190.213,374.22z M135.752,374.22c0-10.997,8.947-19.944,19.944-19.944s19.944,8.947,19.944,19.944  s-8.947,19.944-19.944,19.944S135.752,385.217,135.752,374.22z"/>
<path d="M270.671,374.22c0-19.033-15.484-34.517-34.517-34.517s-34.517,15.484-34.517,34.517s15.484,34.517,34.517,34.517  S270.671,393.253,270.671,374.22z M216.21,374.22c0-10.997,8.947-19.944,19.944-19.944s19.944,8.947,19.944,19.944  s-8.947,19.944-19.944,19.944C225.157,394.164,216.21,385.217,216.21,374.22z"/>
<g>
</g>
<g>
</g>
<g>
</g>
<g>
</g>
<g>
</g>
<g>
</g>
<g>
</g>
<g>
</g>
<g>
</g>
<g>
</g>
<g>
</g>
<g>
</g>
<g>
</g>
<g>
</g>
<g>
</g>
</svg>
