<?xml version="1.0" encoding="iso-8859-1"?>
<!-- Generator: Adobe Illustrator 19.0.0, SVG Export Plug-In . SVG Version: 6.00 Build 0)  -->
<svg xmlns="http://www.w3.org/2000/svg" xmlns:xlink="http://www.w3.org/1999/xlink" version="1.1" id="Capa_1" x="0px" y="0px" viewBox="0 0 511.998 511.998" style="enable-background:new 0 0 511.998 511.998;" xml:space="preserve">
<g>
	<path style="fill:#2D5872;" d="M35.777,328.675l19.653-4.986v-70.193c0-16.644,2.365-32.744,8.298-52.939l-34.794-10.006   c-6.849,23.374-9.705,42.832-9.705,62.945v83.819C23.849,333.307,29.443,330.281,35.777,328.675z"/>
	<path style="fill:#2D5872;" d="M474.995,328.675l-19.653-4.986v-70.193c0-16.644-2.365-32.744-8.298-52.939l34.794-10.006   c6.849,23.374,9.705,42.832,9.705,62.945v83.819C486.923,333.307,481.328,330.281,474.995,328.675z"/>
</g>
<path style="fill:#FFB124;" d="M72.751,481.095l30.801-6.251l-33.025-162.72l-30.801,6.251  c-21.914,4.447-36.074,25.819-31.627,47.734l16.918,83.358C29.465,471.382,50.836,485.543,72.751,481.095z"/>
<path style="fill:#FF901E;" d="M70.528,312.124l-30.801,6.251c-2.109,0.428-4.144,1.016-6.099,1.743l32.828,161.751  c2.084-0.093,4.187-0.345,6.296-0.773l30.801-6.251L70.528,312.124z"/>
<path style="fill:#AF8A83;" d="M140.163,482.851l-25.718,5.22c-5.939,1.205-11.731-2.632-12.936-8.571L66.594,307.467  c-1.205-5.939,2.632-11.731,8.571-12.936l25.718-5.22c5.939-1.205,11.731,2.632,12.936,8.571l34.914,172.032  C149.94,475.854,146.102,481.646,140.163,482.851z"/>
<path style="fill:#FFB124;" d="M439.247,481.095l-27.931-5.669l30.154-163.303l30.801,6.251  c21.915,4.448,36.075,25.819,31.628,47.734l-16.918,83.358C482.534,471.382,461.162,485.543,439.247,481.095z"/>
<path style="fill:#FF901E;" d="M472.271,318.375l-13.113-2.661c8.337,4.174,13.192,13.548,11.243,23.122l-25.272,124.151  c-1.659,8.152-7.779,14.198-15.242,16.208l9.36,1.9c21.915,4.448,43.287-9.712,47.734-31.628l16.918-83.358  C508.347,344.194,494.187,322.822,472.271,318.375z"/>
<path style="fill:#AF8A83;" d="M371.835,482.851l25.718,5.22c5.939,1.205,11.731-2.632,12.936-8.571l34.914-172.032  c1.205-5.939-2.632-11.731-8.571-12.936l-25.718-5.22c-5.939-1.205-11.731,2.632-12.936,8.571l-34.914,172.032  C362.059,475.854,365.896,481.646,371.835,482.851z"/>
<path style="fill:#FF4C4C;" d="M440.623,208.192c-5.577,1.602-11.469-1.364-13.447-6.82  c-21.71-59.882-79.475-100.879-143.906-100.879h-54.542c-64.413,0-122.171,40.981-143.892,100.841  c-1.979,5.455-7.872,8.42-13.449,6.816L18.79,193.024c-6.069-1.745-9.495-8.219-7.438-14.19  c14.654-42.529,42.027-80.563,77.956-108.018c40.335-30.822,88.546-47.114,139.42-47.114h54.542  c50.885,0,99.104,16.298,139.444,47.132c35.934,27.467,63.305,65.515,77.951,108.058c2.056,5.972-1.372,12.444-7.442,14.188  L440.623,208.192z"/>
<path style="fill:#F33939;" d="M288.798,62.765h-65.601c-79.616,0-153.953,61.974-178.463,137.719l26.654,7.665  c5.577,1.604,11.469-1.361,13.449-6.816c21.72-59.86,79.479-100.841,143.892-100.841h54.542  c64.431,0,122.196,40.997,143.906,100.879c1.978,5.456,7.869,8.422,13.447,6.82l28.728-8.254  C444.56,124.416,368.244,62.765,288.798,62.765z"/>
<path d="M498.83,325.164v-71.668c0-17.349-2.125-34.214-6.642-52.538l3.047-0.875c4.827-1.387,8.926-4.738,11.244-9.194  c2.337-4.492,2.719-9.595,1.076-14.369c-12.353-35.88-33.521-68.762-61.217-95.089c-2.917-2.772-7.529-2.656-10.302,0.261  c-2.772,2.917-2.656,7.529,0.261,10.302c26.008,24.722,45.884,55.592,57.478,89.27c0.444,1.292,0.05,2.371-0.224,2.899  c-0.284,0.545-0.965,1.519-2.34,1.914l-2.778,0.798l0,0l-48.797,14.02l0,0l-1.026,0.295c-1.906,0.549-3.919-0.463-4.585-2.3  c-22.916-63.213-83.5-105.684-150.755-105.684h-54.542c-67.235,0-127.814,42.454-150.742,105.642  c-0.667,1.836-2.679,2.846-4.585,2.298L20.804,186.02c-1.375-0.395-2.056-1.369-2.339-1.914c-0.275-0.528-0.669-1.607-0.224-2.899  c14.151-41.067,40.96-78.216,75.491-104.602c39.053-29.843,85.734-45.617,134.996-45.617h54.542  c44.844,0,88.001,13.232,124.805,38.265c3.329,2.265,7.86,1.4,10.123-1.926c2.263-3.328,1.4-7.86-1.927-10.123  C377.04,30.52,331.049,16.416,283.27,16.416h-54.542c-52.487,0-102.228,16.81-143.844,48.611  c-36.785,28.109-65.346,67.684-80.42,111.434c-1.645,4.773-1.264,9.876,1.072,14.369c2.317,4.457,6.414,7.809,11.241,9.197  l1.901,0.547c-4.58,18.47-6.736,35.458-6.736,52.923v73.004c-9.526,10.844-14.069,25.853-10.983,41.058l5.652,27.85  c0.8,3.943,4.644,6.49,8.59,5.692c3.944-0.8,6.492-4.647,5.692-8.59l-5.652-27.85c-2.34-11.531,1.636-22.897,9.533-30.519  c0.327-0.316,0.66-0.625,0.999-0.926c0.195-0.173,0.388-0.349,0.588-0.518c0.488-0.413,0.987-0.812,1.496-1.195  c0.189-0.142,0.384-0.278,0.576-0.416c0.404-0.291,0.814-0.572,1.231-0.844c0.186-0.122,0.37-0.245,0.559-0.363  c0.57-0.355,1.149-0.695,1.739-1.014c0.158-0.086,0.32-0.165,0.48-0.248c0.496-0.258,0.999-0.505,1.508-0.738  c0.171-0.078,0.341-0.159,0.514-0.234c0.645-0.282,1.298-0.547,1.961-0.788c0.108-0.039,0.22-0.073,0.328-0.111  c0.579-0.203,1.165-0.39,1.757-0.561c0.183-0.053,0.366-0.106,0.551-0.156c0.698-0.19,1.402-0.365,2.115-0.51l20.79-4.219  l5.184,25.544l24.941,122.894l-20.789,4.22c-17.942,3.638-35.502-7.994-39.144-25.936l-3.85-18.971  c-0.8-3.944-4.645-6.493-8.59-5.692c-3.944,0.8-6.492,4.646-5.692,8.59l3.85,18.971c4.592,22.625,24.563,38.279,46.808,38.279  c3.139,0,6.324-0.312,9.516-0.96l21.058-4.274c2.698,6.883,9.413,11.617,16.993,11.617c1.218,0,2.444-0.124,3.643-0.367  l25.718-5.219c9.867-2.003,16.266-11.66,14.263-21.526L120.96,296.438c-1.721-8.477-9.242-14.63-17.884-14.63  c-1.218,0-2.443,0.123-3.643,0.367l-25.718,5.22c-4.452,0.904-8.313,3.387-11,7.007v-40.901c0-12.875,1.5-25.121,4.798-38.878  l1.86,0.535c9.243,2.659,19.043-2.321,22.312-11.334c20.844-57.444,75.917-96.039,137.042-96.039h54.542  c61.143,0,116.221,38.61,137.055,96.076c2.674,7.377,9.723,12.052,17.26,12.052c1.673,0,3.371-0.23,5.049-0.713l0.711-0.204  c3.236,13.607,4.71,25.739,4.71,38.505v39.415c-2.583-2.81-5.96-4.747-9.773-5.521l-25.719-5.22  c-1.199-0.243-2.425-0.367-3.642-0.367c-8.642,0-16.163,6.152-17.884,14.63l-34.915,172.033  c-2.003,9.867,4.396,19.523,14.263,21.526l25.718,5.219c1.199,0.243,2.425,0.367,3.643,0.367h0.001  c7.579,0,14.294-4.734,16.992-11.617l21.058,4.274c3.146,0.639,6.357,0.962,9.544,0.963c0.001,0,0.001,0,0.002,0  c22.602,0,42.276-16.1,46.778-38.282l16.918-83.358C514.255,351.717,509.185,336.092,498.83,325.164z M48.143,253.496v55.735  l-9.865,2.002c-0.94,0.191-1.864,0.416-2.779,0.659c-0.276,0.073-0.547,0.155-0.821,0.233c-0.658,0.187-1.309,0.386-1.953,0.6  c-0.289,0.096-0.577,0.192-0.864,0.293c-0.694,0.245-1.378,0.506-2.055,0.781c-0.199,0.081-0.401,0.154-0.599,0.238  c-0.849,0.358-1.683,0.739-2.503,1.143c-0.062,0.03-0.127,0.055-0.188,0.086v-61.769c0-16.329,1.92-31.675,6.169-48.895l11.786,3.39  l9.02,2.594C49.808,225.74,48.143,239.227,48.143,253.496z M74.275,303.249c0.315-0.476,1.037-1.313,2.34-1.577l25.718-5.22  c0.248-0.05,0.498-0.075,0.745-0.075c1.739,0,3.254,1.243,3.602,2.955l34.915,172.033c0.264,1.302-0.225,2.294-0.54,2.769  c-0.315,0.475-1.038,1.313-2.34,1.577l-25.718,5.219c-2.005,0.402-3.95-0.925-4.346-2.879l-0.825-4.066  c-0.001-0.003-0.001-0.006-0.001-0.009L80.189,337.819l-6.454-31.801C73.471,304.716,73.96,303.724,74.275,303.249z M478.18,204.983  c4.186,17.073,6.077,32.3,6.077,48.513v61.185c-0.145-0.067-0.296-0.123-0.442-0.189c-0.554-0.249-1.114-0.488-1.68-0.717  c-0.258-0.104-0.516-0.208-0.776-0.308c-0.568-0.218-1.144-0.423-1.724-0.62c-0.262-0.089-0.522-0.182-0.786-0.267  c-0.603-0.193-1.214-0.37-1.829-0.541c-0.241-0.067-0.479-0.141-0.722-0.205c-0.849-0.221-1.707-0.425-2.577-0.601l-11.092-2.251  v-55.486c0-14.159-1.638-27.531-5.257-42.535L478.18,204.983z M403.348,478.055c-0.399,1.952-2.355,3.278-4.345,2.875l-25.718-5.219  c-1.302-0.264-2.025-1.102-2.34-1.577s-0.804-1.467-0.54-2.769l34.915-172.033c0.348-1.712,1.862-2.955,3.602-2.955  c0.247,0,0.497,0.025,0.744,0.075l25.718,5.22c1.302,0.264,2.025,1.101,2.34,1.577c0.315,0.475,0.804,1.467,0.54,2.769  l-5.142,25.338L403.348,478.055z M496.758,364.66l-16.918,83.358c-3.129,15.418-16.797,26.608-32.498,26.608  c-2.216,0-4.453-0.226-6.647-0.671l-20.789-4.22l24.941-122.894l5.184-25.544l20.79,4.219c0.671,0.136,1.333,0.299,1.992,0.475  c0.18,0.048,0.358,0.101,0.537,0.152c0.505,0.144,1.006,0.3,1.503,0.467c0.164,0.055,0.329,0.109,0.491,0.167  c1.274,0.453,2.517,0.983,3.723,1.585c0.177,0.089,0.352,0.181,0.527,0.273c0.425,0.222,0.844,0.454,1.258,0.694  c0.192,0.111,0.385,0.22,0.574,0.334c0.522,0.316,1.037,0.646,1.541,0.991c0.235,0.161,0.462,0.333,0.692,0.5  c0.282,0.204,0.563,0.411,0.839,0.624c0.278,0.215,0.553,0.434,0.823,0.658c0.211,0.174,0.416,0.353,0.623,0.532  C494.687,340.565,499.221,352.522,496.758,364.66z"/>
<g>
</g>
<g>
</g>
<g>
</g>
<g>
</g>
<g>
</g>
<g>
</g>
<g>
</g>
<g>
</g>
<g>
</g>
<g>
</g>
<g>
</g>
<g>
</g>
<g>
</g>
<g>
</g>
<g>
</g>
</svg>
