<?xml version="1.0" encoding="iso-8859-1"?>
<!-- Generator: Adobe Illustrator 19.0.0, SVG Export Plug-In . SVG Version: 6.00 Build 0)  -->
<svg xmlns="http://www.w3.org/2000/svg" xmlns:xlink="http://www.w3.org/1999/xlink" version="1.1" id="Capa_1" x="0px" y="0px" viewBox="0 0 512.001 512.001" style="enable-background:new 0 0 512.001 512.001;" xml:space="preserve">
<path style="fill:#2D5872;" d="M445.245,132.729H66.755c-7.446,0-13.482,6.036-13.482,13.482v79.839h405.593l-0.138-79.839  C458.727,138.765,452.691,132.729,445.245,132.729z"/>
<path style="fill:#E1EFFB;" d="M423.886,226.05H88.114V56.186c0-4.987,4.042-9.029,9.029-9.029h317.714  c4.987,0,9.029,4.042,9.029,9.029V226.05z"/>
<path style="fill:#CCDFED;" d="M423.886,226.05h-37.005V47.157h27.976c4.987,0,9.029,4.042,9.029,9.029V226.05z"/>
<path style="fill:#FFBF14;" d="M491.179,464.843H20.821c-7.475,0-13.534-6.059-13.534-13.534V239.585  c0-7.475,6.059-13.534,13.534-13.534H491.18c7.475,0,13.534,6.059,13.534,13.534V451.31  C504.713,458.784,498.654,464.843,491.179,464.843z"/>
<path style="fill:#EAA200;" d="M491.179,226.05h-37.041c7.475,0,13.534,6.059,13.035,13.534V408.38  c-1.985-15.115-14.94-26.825-30.589-26.825H75.415c-17.017,0-30.861,13.845-30.861,30.862v52.426H454.14h13.308h23.733  c7.475,0,13.534-6.059,13.534-13.534V239.585C504.713,232.11,498.654,226.05,491.179,226.05z"/>
<path style="fill:#2D5872;" d="M61.122,464.843h389.756v-52.426c0-7.894-6.399-14.293-14.293-14.293H75.415  c-7.894,0-14.293,6.399-14.293,14.293V464.843z"/>
<g>
	<path style="fill:#E1EFFB;" d="M454.049,310.342h-30.825c-2.66,0-4.816-2.156-4.816-4.816V274.7c0-2.66,2.156-4.816,4.816-4.816   h30.825c2.66,0,4.816,2.156,4.816,4.816v30.825C458.865,308.185,456.709,310.342,454.049,310.342z"/>
	<path style="fill:#E1EFFB;" d="M384.109,310.342h-30.825c-2.66,0-4.816-2.156-4.816-4.816V274.7c0-2.66,2.156-4.816,4.816-4.816   h30.825c2.66,0,4.816,2.156,4.816,4.816v30.825C388.925,308.185,386.769,310.342,384.109,310.342z"/>
</g>
<path d="M491.179,218.764h-25.166v-72.553c0-11.452-9.316-20.768-20.768-20.768h-14.073V56.185c0-8.996-7.32-16.315-16.316-16.315  H97.143c-8.996,0-16.316,7.319-16.316,16.315v69.258H66.754c-11.452,0-20.768,9.316-20.768,20.768v72.553H20.821  C9.34,218.764,0,228.104,0,239.584v57.22c0,4.024,3.262,7.287,7.287,7.287s7.287-3.262,7.287-7.287v-57.22  c0-3.445,2.803-6.248,6.248-6.248h470.359c3.445,0,6.248,2.803,6.248,6.248v211.725c0,3.445-2.803,6.248-6.248,6.248h-33.014v-45.14  c0-11.899-9.68-21.579-21.58-21.579H75.415c-11.899,0-21.58,9.68-21.58,21.579v45.14H20.821c-3.445,0-6.248-2.803-6.248-6.248  V335.667c0-4.024-3.262-7.287-7.287-7.287S0,331.642,0,335.667V451.31c0,11.481,9.34,20.821,20.821,20.821h40.301h389.757h40.301  c11.481,0,20.821-9.34,20.821-20.821V239.584C512,228.104,502.66,218.764,491.179,218.764z M80.827,218.764H60.56v-72.553  c0-3.416,2.779-6.195,6.194-6.195h14.073C80.827,140.016,80.827,218.764,80.827,218.764z M416.6,132.73v86.034H95.4V132.73V56.185  c0-0.961,0.782-1.742,1.743-1.742h317.714c0.961,0,1.743,0.782,1.743,1.742V132.73z M451.44,218.764h-20.268v-78.748h14.073  c3.416,0,6.194,2.779,6.194,6.195v72.553H451.44z M443.592,457.557H68.408v-45.14c0-3.863,3.143-7.006,7.007-7.006h361.171  c3.863,0,7.007,3.143,7.007,7.006L443.592,457.557L443.592,457.557z"/>
<path d="M378.36,80.749h-32.795c-4.025,0-7.287,3.262-7.287,7.287c0,4.025,3.262,7.287,7.287,7.287h32.795  c4.025,0,7.287-3.262,7.287-7.287C385.647,84.011,382.384,80.749,378.36,80.749z"/>
<path d="M133.64,95.322h174.58c4.025,0,7.287-3.262,7.287-7.287c0-4.025-3.262-7.287-7.287-7.287H133.64  c-4.025,0-7.287,3.262-7.287,7.287C126.353,92.06,129.616,95.322,133.64,95.322z"/>
<path d="M378.36,129.806H133.64c-4.025,0-7.287,3.262-7.287,7.287c0,4.024,3.262,7.287,7.287,7.287h244.72  c4.025,0,7.287-3.262,7.287-7.287C385.646,133.068,382.384,129.806,378.36,129.806z"/>
<path d="M378.36,178.864H133.64c-4.025,0-7.287,3.262-7.287,7.287c0,4.024,3.262,7.287,7.287,7.287h244.72  c4.025,0,7.287-3.262,7.287-7.287C385.646,182.126,382.384,178.864,378.36,178.864z"/>
<path d="M454.049,317.628c6.674,0,12.102-5.429,12.102-12.102V274.7c0-6.674-5.429-12.103-12.102-12.103h-30.825  c-6.674,0-12.102,5.429-12.102,12.103v30.825c0,6.673,5.429,12.102,12.102,12.102L454.049,317.628L454.049,317.628z M425.694,277.17  h25.884v25.885h-25.884V277.17z"/>
<path d="M384.109,317.628c6.674,0,12.102-5.429,12.102-12.102V274.7c0-6.674-5.429-12.103-12.102-12.103h-30.825  c-6.674,0-12.103,5.429-12.103,12.103v30.825c0,6.673,5.43,12.102,12.103,12.102L384.109,317.628L384.109,317.628z M355.753,277.17  h25.885v25.885h-25.885V277.17z"/>
<g>
</g>
<g>
</g>
<g>
</g>
<g>
</g>
<g>
</g>
<g>
</g>
<g>
</g>
<g>
</g>
<g>
</g>
<g>
</g>
<g>
</g>
<g>
</g>
<g>
</g>
<g>
</g>
<g>
</g>
</svg>
