<?xml version="1.0" encoding="iso-8859-1"?>
<!-- Generator: Adobe Illustrator 19.0.0, SVG Export Plug-In . SVG Version: 6.00 Build 0)  -->
<svg xmlns="http://www.w3.org/2000/svg" xmlns:xlink="http://www.w3.org/1999/xlink" version="1.1" id="Capa_1" x="0px" y="0px" viewBox="0 0 512.001 512.001" style="enable-background:new 0 0 512.001 512.001;" xml:space="preserve">
<polygon style="fill:#FF4C4C;" points="321.428,432.752 190.572,432.752 202.666,392.418 309.334,392.418 "/>
<polygon style="fill:#F33939;" points="309.334,392.418 274.08,392.418 286.174,432.752 321.428,432.752 "/>
<path style="fill:#FFB124;" d="M474.126,392.418H37.874c-16.893,0-30.587-13.694-30.587-30.587V75.327  c0-16.893,13.694-30.587,30.587-30.587h436.252c16.893,0,30.587,13.694,30.587,30.587v286.504  C504.713,378.723,491.019,392.418,474.126,392.418z"/>
<path style="fill:#FF901E;" d="M474.126,44.74H437.12c16.893,0,30.587,13.695,30.587,30.587v286.504  c0,16.893-13.694,30.587-30.587,30.587h37.006c16.893,0,30.587-13.695,30.587-30.587V75.327  C504.713,58.434,491.019,44.74,474.126,44.74z"/>
<path style="fill:#FFFCFD;" d="M467.708,323.062V89.477c0-5.784-4.689-10.474-10.474-10.474H54.766  c-5.784,0-10.474,4.689-10.474,10.474v233.585c0,5.549,4.499,10.048,10.048,10.048h403.32  C463.209,333.11,467.708,328.611,467.708,323.062z"/>
<path style="fill:#E6E6E6;" d="M457.234,79.003h-36.959c5.784,0,10.474,4.689,10.474,10.474v233.585  c0,5.549-4.499,10.048-10.048,10.048h36.959c5.549,0,10.048-4.499,10.048-10.048V89.477  C467.708,83.692,463.019,79.003,457.234,79.003z"/>
<path style="fill:#AF8A83;" d="M359.95,467.262h-207.9c-2.748,0-4.976-2.228-4.976-4.976v-13.353c0-8.936,7.244-16.18,16.18-16.18  h185.492c8.936,0,16.18,7.244,16.18,16.18v13.353C364.927,465.034,362.699,467.262,359.95,467.262z"/>
<g>
	<path style="fill:#61AFF6;" d="M146.343,185.636H84.93c-6.316,0-11.436-5.12-11.436-11.436v-43.889   c0-6.316,5.12-11.436,11.436-11.436h61.413c6.316,0,11.436,5.12,11.436,11.436v43.89   C157.779,180.517,152.659,185.636,146.343,185.636z"/>
	<path style="fill:#61AFF6;" d="M146.343,290.289H84.93c-6.316,0-11.436-5.12-11.436-11.436v-43.889   c0-6.316,5.12-11.436,11.436-11.436h61.413c6.316,0,11.436,5.12,11.436,11.436v43.889   C157.779,285.169,152.659,290.289,146.343,290.289z"/>
</g>
<path style="fill:#927167;" d="M348.746,432.752h-20.779v34.51h31.983c2.748,0,4.976-2.228,4.976-4.976v-13.353  C364.927,439.997,357.682,432.752,348.746,432.752z"/>
<path d="M84.93,192.923h61.414c10.324,0,18.722-8.399,18.722-18.722v-43.889c0-10.324-8.398-18.722-18.722-18.722H84.93  c-10.324,0-18.722,8.399-18.722,18.722v43.889C66.208,184.524,74.606,192.923,84.93,192.923z M80.781,130.312  c0-2.288,1.861-4.149,4.149-4.149h61.414c2.287,0,4.149,1.861,4.149,4.149v43.889c0,2.288-1.861,4.149-4.149,4.149H84.93  c-2.287,0-4.149-1.861-4.149-4.149V130.312z"/>
<path d="M84.93,297.575h61.414c10.324,0,18.722-8.398,18.722-18.722v-43.889c0-10.324-8.398-18.722-18.722-18.722H84.93  c-10.324,0-18.722,8.398-18.722,18.722v43.889C66.208,289.177,74.606,297.575,84.93,297.575z M80.781,234.964  c0-2.288,1.861-4.149,4.149-4.149h61.414c2.287,0,4.149,1.861,4.149,4.149v43.889c0,2.288-1.861,4.149-4.149,4.149H84.93  c-2.287,0-4.149-1.861-4.149-4.149V234.964z"/>
<path d="M474.126,37.453H37.874C16.991,37.453,0,54.443,0,75.327V261.83c0,4.024,3.262,7.287,7.287,7.287s7.287-3.262,7.287-7.287  V75.327c0-12.848,10.453-23.301,23.301-23.301h436.252c12.848,0,23.301,10.453,23.301,23.301v286.504  c0,12.848-10.453,23.301-23.301,23.301H309.334H202.666H37.874c-12.848,0-23.301-10.453-23.301-23.301v-62.434  c0-4.024-3.262-7.287-7.287-7.287S0,295.372,0,299.397v62.434c0,20.884,16.991,37.874,37.874,37.874h155.001l-7.724,25.761h-21.896  c-12.94,0-23.468,10.527-23.468,23.467v13.353c0,6.762,5.501,12.263,12.263,12.263h207.901c6.762,0,12.263-5.501,12.263-12.263  v-13.353c0-12.94-10.528-23.467-23.468-23.467H326.85l-7.724-25.761h155.001c20.883,0,37.874-16.99,37.874-37.874V75.327  C512,54.443,495.009,37.453,474.126,37.453z M357.64,448.933v11.043H154.36v-11.043c0-4.904,3.991-8.894,8.895-8.894h27.318h130.856  h27.318C353.65,440.039,357.64,444.029,357.64,448.933z M311.636,425.466H200.364l7.724-25.761h95.824L311.636,425.466z"/>
<path d="M54.341,340.397H457.66c9.559,0,17.335-7.776,17.335-17.334V89.477c0-9.793-7.967-17.76-17.76-17.76H54.766  c-9.793,0-17.76,7.967-17.76,17.76v233.585C37.006,332.621,44.782,340.397,54.341,340.397z M51.579,89.477  c0-1.757,1.43-3.187,3.187-3.187h402.469c1.757,0,3.187,1.43,3.187,3.187v233.585c0,1.523-1.239,2.761-2.762,2.761H54.341  c-1.523,0-2.762-1.239-2.762-2.761V89.477z"/>
<path d="M373.637,141.54h43.798c4.025,0,7.287-3.262,7.287-7.287c0-4.024-3.262-7.287-7.287-7.287h-43.798  c-4.025,0-7.287,3.262-7.287,7.287C366.35,138.278,369.612,141.54,373.637,141.54z"/>
<path d="M195.765,141.54h140.63c4.025,0,7.287-3.262,7.287-7.287c0-4.024-3.262-7.287-7.287-7.287h-140.63  c-4.025,0-7.287,3.262-7.287,7.287C188.478,138.278,191.74,141.54,195.765,141.54z"/>
<path d="M195.765,177.869h221.67c4.025,0,7.287-3.262,7.287-7.287c0-4.024-3.262-7.287-7.287-7.287h-221.67  c-4.025,0-7.287,3.262-7.287,7.287S191.74,177.869,195.765,177.869z"/>
<path d="M195.765,245.12h221.67c4.025,0,7.287-3.262,7.287-7.287c0-4.024-3.262-7.287-7.287-7.287h-221.67  c-4.025,0-7.287,3.262-7.287,7.287C188.478,241.857,191.74,245.12,195.765,245.12z"/>
<path d="M195.765,281.449h221.67c4.025,0,7.287-3.262,7.287-7.287s-3.262-7.287-7.287-7.287h-221.67  c-4.025,0-7.287,3.262-7.287,7.287S191.74,281.449,195.765,281.449z"/>
<g>
</g>
<g>
</g>
<g>
</g>
<g>
</g>
<g>
</g>
<g>
</g>
<g>
</g>
<g>
</g>
<g>
</g>
<g>
</g>
<g>
</g>
<g>
</g>
<g>
</g>
<g>
</g>
<g>
</g>
</svg>
