<svg id="Layer_1" enable-background="new 0 0 513.09 513.09" height="512" viewBox="0 0 513.09 513.09" width="512" xmlns="http://www.w3.org/2000/svg"><g><g><path d="m513.088 134.165c0-6.668-2.597-12.937-7.311-17.652l-37.529-37.528c-4.73-4.798-11.043-7.44-17.778-7.44l-387.85.001h-.001c-6.669.001-12.938 2.598-17.651 7.312l-37.528 37.529c-4.798 4.731-7.44 11.044-7.44 17.778l.002 244.76c0 6.668 2.597 12.937 7.311 17.652l37.529 37.529c4.73 4.797 11.044 7.439 17.778 7.439l387.85-.002c6.667 0 12.936-2.596 17.651-7.311l37.529-37.529c4.797-4.73 7.439-11.043 7.439-17.778zm-21.529 248.346-37.578 37.578c-1.266 1.265-2.743 1.454-3.51 1.454l-387.85.002c-1.807 0-2.991-.928-3.586-1.532l-37.579-37.579c-1.265-1.264-1.454-2.741-1.454-3.509l-.002-244.76c0-1.806.929-2.991 1.532-3.586l37.58-37.58c1.264-1.264 2.742-1.453 3.51-1.453h-.001l387.85-.001c1.806 0 2.99.928 3.585 1.532l37.579 37.579c1.265 1.264 1.454 2.741 1.454 3.509l.002 244.76c-.001 1.806-.929 2.991-1.532 3.586z"/><path d="m470.16 137.464-22.99-22.99c-1.875-1.875-4.419-2.929-7.071-2.929l-367.107.001c-2.652 0-5.196 1.054-7.071 2.929l-22.991 22.991c-1.875 1.875-2.929 4.419-2.929 7.071l.002 224.018c0 2.652 1.054 5.196 2.929 7.071l22.99 22.99c1.875 1.875 4.419 2.929 7.071 2.929h138.551c5.523 0 10-4.477 10-10s-4.477-10-10-10h-100.423c2.205-9.286 6.793-16.195 11.272-22.925 7.409-11.134 16.63-24.991 3.6-43.604-1.694-2.42-1.41-3.596-1.288-4.098 1.752-7.236 20.219-16.963 31.252-22.774 9.029-4.755 16.827-8.863 21.776-13.37 6.007-5.47 13.894-13.949 13.032-24.393-.893-10.813-10.182-16.817-18.377-22.115-8.315-5.375-13.808-9.299-14.377-14.655-.471-4.433 1.874-15.002 22.861-35.989 11.494-11.494 12.886-23.575 12.03-31.685-.552-5.224-2.131-10.069-4.234-14.392h115.655c1.61 2.007 2.312 3.97 2.075 5.845-.338 2.67-2.541 5.585-5.892 7.797-7.094 4.683-22.73 4.613-36.516 4.552-19.69-.089-38.281-.17-48.928 10.699-4.969 5.072-7.386 11.729-7.184 19.785.38 15.137 13.883 22.957 25.797 29.856 16.69 9.664 23.107 14.781 19.291 26.654-1.69 5.258 1.202 10.891 6.459 12.581 1.018.327 2.048.483 3.063.483 4.227 0 8.155-2.702 9.518-6.942 9.131-28.403-13.4-41.45-28.309-50.083-7.372-4.269-15.727-9.107-15.826-13.049-.093-3.686 1.048-4.85 1.477-5.288 4.729-4.827 21.266-4.75 34.551-4.695 17.443.081 35.477.158 47.624-7.861 8.274-5.462 13.637-13.472 14.714-21.975.355-2.8.233-5.607-.323-8.359h74.066c-2.204 9.286-6.794 16.195-11.273 22.926-7.41 11.134-16.631 24.991-3.6 43.604 1.694 2.42 1.41 3.596 1.288 4.098-1.752 7.236-20.219 16.963-31.253 22.774-9.029 4.756-16.826 8.863-21.776 13.37-6.007 5.47-13.894 13.949-13.032 24.393.893 10.813 10.182 16.817 18.377 22.115 8.315 5.375 13.808 9.299 14.377 14.655.47 4.433-1.874 15.002-22.86 35.989-11.521 11.521-12.897 23.631-12.022 31.761.556 5.167 2.155 9.994 4.276 14.314h-20.938c-5.523 0-10 4.477-10 10s4.477 10 10 10h138.557c2.652 0 5.196-1.054 7.071-2.929l22.99-22.99c1.875-1.875 2.929-4.419 2.929-7.071l-.002-224.018c-.001-2.653-1.054-5.196-2.929-7.072zm-297.15 10.573c.588 5.575-1.466 10.626-6.283 15.442-21.064 21.064-30.154 37.665-28.606 52.243 1.62 15.256 14.213 23.396 23.408 29.339 3.084 1.994 8.154 5.271 9.241 7.027-.239.724-1.375 3.227-6.504 7.896-3.063 2.789-10.469 6.69-17.631 10.462-17.574 9.256-37.492 19.748-41.37 35.762-1.155 4.771-1.34 12.161 4.342 20.276 4.815 6.878 3.831 9.487-3.866 21.053-5.392 8.103-12.447 18.752-14.988 34.005h-13.619l-17.132-17.132-.002-215.731 17.133-17.133h87.188c3.093 2.957 7.919 9.192 8.689 16.491zm262.948 233.507h-89.192c-3.198-3.072-7.922-9.456-8.675-16.453-.602-5.59 1.452-10.653 6.279-15.479 10.336-10.336 17.782-19.595 22.509-28.07h56.209c5.523 0 10-4.477 10-10s-4.477-10-10-10h-49.959c.044-1.41-.007-2.801-.153-4.173-1.62-15.256-14.213-23.396-23.408-29.339-3.084-1.994-8.154-5.271-9.241-7.027.239-.724 1.375-3.228 6.503-7.896 3.063-2.789 10.469-6.689 17.631-10.462 17.574-9.257 37.492-19.748 41.371-35.763 1.155-4.771 1.34-12.161-4.342-20.276-4.816-6.878-3.831-9.487 3.866-21.054 5.394-8.105 12.447-18.753 14.988-34.006h15.612l17.132 17.132.002 215.734z"/><path d="m298.666 358.878c3.11-2.882 4.064-7.413 2.38-11.305l-35.323-81.646c-1.583-3.66-5.19-6.029-9.178-6.029s-7.594 2.369-9.178 6.029l-35.323 81.646c-1.684 3.892-.73 8.422 2.38 11.305 1.893 1.754 4.333 2.667 6.8 2.666 1.586 0 3.183-.377 4.652-1.149l30.668-16.128 30.668 16.128c3.755 1.972 8.344 1.365 11.454-1.517zm-37.466-34.761c-2.915-1.533-6.395-1.532-9.31 0l-10.235 5.383 14.89-34.417 14.89 34.417z"/><path d="m423.089 341.543h-29.646c-5.523 0-10 4.477-10 10s4.477 10 10 10h29.646c5.523 0 10-4.477 10-10s-4.477-10-10-10z"/><path d="m256.546 381.544h-.007c-5.523 0-9.996 4.477-9.996 10s4.48 10 10.003 10 10-4.477 10-10-4.477-10-10-10z"/></g></g></svg>