<svg id="Layer_1" enable-background="new 0 0 512.005 512.005" height="512" viewBox="0 0 512.005 512.005" width="512" xmlns="http://www.w3.org/2000/svg"><g><g><path d="m304.599 212.86c-4.646-2.987-10.834-1.639-13.819 3.006-2.985 4.646-1.64 10.833 3.007 13.819 20.173 12.963 32.216 34.996 32.216 58.937 0 38.598-31.402 70-70 70s-70-31.402-70-70c0-23.939 12.041-45.97 32.21-58.934 4.646-2.986 5.991-9.173 3.005-13.819s-9.173-5.994-13.819-3.005c-25.921 16.661-41.396 44.981-41.396 75.758 0 49.626 40.374 90 90 90s90-40.374 90-90c-.001-30.78-15.478-59.102-41.404-75.762z"/><path d="m511.808 162.723c-.908-7.951-4.858-15.073-11.124-20.054-47.111-37.441-82.357-52.88-110.94-48.587-27.034 4.062-44.075 24.271-62.117 45.666-.54.64-1.081 1.282-1.624 1.924v-4.176c0-16.542-13.458-30-30-30h-80c-16.542 0-30 13.458-30 30v4.175c-.543-.642-1.083-1.283-1.623-1.923-18.042-21.396-35.084-41.604-62.118-45.666-28.584-4.294-63.829 11.146-110.942 48.588-6.264 4.98-10.214 12.102-11.121 20.054-.908 7.951 1.335 15.78 6.314 22.044 4.98 6.264 12.103 10.214 20.053 11.123 7.949.91 15.78-1.334 22.043-6.314 28.345-22.526 48.757-32.955 62.411-31.877 10.324.814 17.215 8.405 27.603 20.724 6.486 7.691 13.162 15.582 20.907 23.158-20.827 23.061-33.526 53.595-33.526 87.042 0 71.682 58.317 130 130 130s130-58.318 130-130c0-33.447-12.7-63.981-33.526-87.042 7.745-7.576 14.421-15.468 20.907-23.158 10.388-12.318 17.278-19.909 27.603-20.724 13.655-1.076 34.066 9.35 62.409 31.876 6.265 4.98 14.092 7.22 22.045 6.315 7.951-.908 15.073-4.858 20.053-11.123 4.978-6.265 7.221-14.094 6.313-22.045zm-305.806-25.227c0-5.514 4.486-10 10-10h80c5.514 0 10 4.486 10 10v15h-100zm-169.84 36.423c-2.082 1.656-4.687 2.401-7.328 2.099-2.643-.302-5.011-1.615-6.667-3.698-1.655-2.083-2.4-4.686-2.099-7.329s1.614-5.011 3.695-6.666c18.226-14.485 34.435-25.417 48.779-32.872l8.471 19.206c-12.837 5.862-27.515 15.483-44.851 29.26zm117.748-8.39c-10.885-12.908-22.14-26.255-41.319-27.768-3.968-.313-8.109-.089-12.464.674l-9.247-20.965c10.724-3.652 20.167-4.848 28.409-3.61 19.577 2.941 33.583 19.55 49.801 38.781 6.418 7.612 13.436 15.927 22.011 23.374-6.006 3.475-11.706 7.42-17.058 11.778-7.327-7.108-13.824-14.784-20.133-22.264zm102.092 233.093c-60.654 0-110-49.346-110-110s49.346-110 110-110 110 49.346 110 110-49.345 110-110 110zm143.411-260.861c-19.18 1.513-30.435 14.86-41.319 27.768-6.308 7.48-12.806 15.157-20.133 22.263-5.352-4.358-11.052-8.303-17.059-11.778 8.575-7.446 15.594-15.761 22.013-23.373 16.217-19.231 30.223-35.84 49.8-38.781 8.24-1.238 17.683-.042 28.409 3.611l-9.246 20.962c-4.355-.763-8.497-.986-12.465-.672zm90.424 34.56c-1.655 2.083-4.023 3.396-6.667 3.698-2.648.303-5.246-.444-7.33-2.1-17.333-13.775-32.012-23.397-44.849-29.259l8.47-19.204c14.344 7.455 30.553 18.386 48.777 32.87 2.083 1.656 3.396 4.023 3.698 6.667.303 2.643-.443 5.245-2.099 7.328z"/><path d="m236.001 328.622c5.522 0 10-4.477 10-10v-60c0-5.523-4.478-10-10-10s-10 4.477-10 10v60c0 5.523 4.478 10 10 10z"/><path d="m276.003 328.622c5.522 0 10-4.477 10-10v-60c0-5.523-4.478-10-10-10s-10 4.477-10 10v60c0 5.523 4.478 10 10 10z"/><path d="m256.002 218.622c5.522 0 10-4.477 10-10s-4.478-10-10-10h-.007c-5.522 0-9.996 4.477-9.996 10s4.481 10 10.003 10z"/></g></g></svg>