<svg id="Layer_1" enable-background="new 0 0 512.001 512.001" height="512" viewBox="0 0 512.001 512.001" width="512" xmlns="http://www.w3.org/2000/svg"><g><g><path d="m210 240c16.542 0 30-13.458 30-30 0-13.036-8.361-24.152-20-28.28v-61.718c0-5.523-4.478-10-10-10s-10 4.477-10 10v61.718c-11.639 4.128-20 15.243-20 28.28 0 16.542 13.458 30 30 30zm0-40c5.514 0 10 4.486 10 10s-4.486 10-10 10-10-4.486-10-10 4.487-10 10-10z"/><path d="m414.85 256.209c3.417-15.155 5.15-30.667 5.15-46.209 0-115.794-94.205-210-210-210s-210 94.206-210 210 94.205 210 210 210c15.543 0 31.054-1.733 46.208-5.151 14.589 55.83 65.454 97.152 125.792 97.152 71.683 0 130-58.318 130-130 .001-60.338-41.32-111.203-97.15-125.792zm-204.85 143.791c-104.767 0-190-85.234-190-190s85.234-190 190-190 190 85.234 190 190c0 14.355-1.64 28.678-4.862 42.661-4.321-.436-8.703-.66-13.137-.66-2.455 0-4.898.074-7.33.208 3.535-13.776 5.329-27.922 5.329-42.209 0-93.738-76.262-170-170-170s-170 76.262-170 170 76.262 170 170 170c14.287 0 28.433-1.794 42.209-5.329-.135 2.433-.208 4.876-.208 7.33 0 4.434.225 8.816.66 13.137-13.982 3.222-28.307 4.862-42.661 4.862zm172.001 92.001c-60.654 0-110-49.346-110-110 0-15.165 3.032-29.855 9.012-43.662 2.194-5.068-.135-10.956-5.203-13.15-5.063-2.195-10.954.134-13.15 5.202-3.181 7.345-5.65 14.901-7.411 22.62-14.652 4.639-29.859 6.989-45.249 6.989-51.839 0-97.618-26.436-124.572-66.532l8.327-4.808c4.783-2.761 6.422-8.877 3.66-13.66-2.761-4.782-8.877-6.422-13.66-3.66l-8.351 4.821c-8.459-17.141-13.737-36.118-15.062-56.161h9.658c5.522 0 10-4.477 10-10s-4.478-10-10-10h-9.659c1.326-20.043 6.604-39.02 15.064-56.161l8.351 4.821c1.575.909 3.294 1.342 4.99 1.342 3.456 0 6.817-1.794 8.67-5.002 2.762-4.783 1.123-10.899-3.66-13.66l-8.327-4.808c10.903-16.219 24.885-30.201 41.103-41.103l4.808 8.328c1.853 3.208 5.213 5.002 8.67 5.002 1.696 0 3.416-.433 4.99-1.342 4.783-2.761 6.422-8.877 3.66-13.66l-4.821-8.351c17.141-8.46 36.118-13.738 56.161-15.064v9.658c0 5.523 4.478 10 10 10s10-4.477 10-10v-9.659c20.043 1.326 39.02 6.604 56.161 15.064l-4.821 8.351c-2.762 4.783-1.123 10.899 3.66 13.66 1.575.91 3.294 1.342 4.99 1.342 3.456 0 6.818-1.794 8.67-5.002l4.808-8.328c16.219 10.903 30.201 24.885 41.103 41.103l-8.328 4.808c-4.783 2.761-6.422 8.877-3.66 13.66 1.852 3.208 5.213 5.002 8.67 5.002 1.696 0 3.415-.433 4.99-1.342l8.351-4.822c8.46 17.141 13.738 36.118 15.064 56.161h-9.66c-5.522 0-10 4.477-10 10s4.478 10 10 10h9.663c-.797 11.971-3.021 23.78-6.651 35.249-7.721 1.762-15.279 4.232-22.627 7.415-5.068 2.195-7.397 8.083-5.203 13.15 2.195 5.068 8.085 7.399 13.15 5.202 13.813-5.982 28.506-9.015 43.67-9.015 60.654 0 110 49.346 110 110s-49.344 110.002-109.999 110.002z"/><path d="m382.001 292.001c-49.626 0-90 40.374-90 90s40.374 90 90 90 90-40.374 90-90-40.374-90-90-90zm56.041 131.899-6.853-6.853c-3.906-3.905-10.236-3.905-14.143 0-3.905 3.905-3.905 10.237 0 14.143l6.853 6.853c-11.69 8.762-26.199 13.959-41.899 13.959s-30.209-5.197-41.899-13.959l6.853-6.853c3.905-3.905 3.905-10.237 0-14.143-3.906-3.905-10.236-3.905-14.143 0l-6.853 6.853c-6.867-9.161-11.531-20.058-13.233-31.899h9.712c5.522 0 10-4.477 10-10s-4.478-10-10-10h-9.712c1.702-11.841 6.366-22.737 13.233-31.899l6.853 6.853c1.953 1.953 4.512 2.929 7.071 2.929s5.118-.976 7.071-2.929c3.905-3.905 3.905-10.237 0-14.143l-6.853-6.853c9.161-6.867 20.058-11.532 31.899-13.233v9.712c0 5.523 4.478 10 10 10s10-4.477 10-10v-9.712c11.841 1.702 22.737 6.366 31.899 13.233l-6.853 6.853c-3.905 3.905-3.905 10.237 0 14.143 1.953 1.953 4.512 2.929 7.071 2.929s5.118-.976 7.071-2.929l6.853-6.853c6.867 9.161 11.531 20.058 13.233 31.899h-9.712c-5.522 0-10 4.477-10 10s4.478 10 10 10h9.712c-1.699 11.841-6.364 22.738-13.231 31.899z"/><path d="m382.001 346.564c-5.522 0-10 4.477-10 10v40.875c0 5.523 4.478 10 10 10s10-4.477 10-10v-40.875c0-5.522-4.477-10-10-10z"/><path d="m240 250.001h-60.001c-16.542 0-29.999 13.458-29.999 30s13.457 30 29.999 30h60.001c16.542 0 30-13.458 30-30s-13.458-30-30-30zm0 39.999h-60.001c-5.514 0-9.999-4.486-9.999-10s4.485-10 9.999-10h60.001c5.514 0 10 4.486 10 10 0 5.515-4.486 10-10 10z"/><path d="m303.906 304.52c4.071-3.732 4.347-10.058.614-14.129-3.73-4.07-10.058-4.347-14.128-.614l-.006.005c-4.071 3.732-4.344 10.055-.611 14.126 1.972 2.151 4.667 3.241 7.373 3.241 2.415 0 4.838-.869 6.758-2.629z"/></g></g></svg>