<svg id="Layer_1" enable-background="new 0 0 512 512" height="512" viewBox="0 0 512 512" width="512" xmlns="http://www.w3.org/2000/svg"><g><g><path d="m416.001 100.003h-20v-22.707c5.968-3.465 10-9.91 10-17.294v-10c0-16.542-13.458-30-30-30h-40.001c-16.542 0-29.999 13.458-29.999 30v10c0 7.383 4.032 13.829 9.999 17.293v22.708h-28.559l-21.862-72.877c-4.716-15.718-21.361-27.126-39.579-27.126h-130c-16.542 0-30 13.458-30 30v452c0 16.542 13.458 30 30 30h320c16.543 0 30-13.458 30-30v-351.997c0-16.542-13.457-30-29.999-30zm-80.001-60.001h40.001c5.514 0 10 4.486 10 10v10h-59.991c-.003 0-.006 0-.009 0v-10c0-5.514 4.485-10 9.999-10zm0 40h40.001v20.001h-40.001zm90 401.998c0 5.514-4.485 10-9.999 10h-320.001c-5.514 0-10-4.486-10-10v-452c0-5.514 4.486-10 10-10h130c9.44 0 18.22 5.535 20.422 12.874l24 80.003c1.269 4.23 5.162 7.126 9.578 7.126h136c5.514 0 9.999 4.486 9.999 10v351.997z"/><path d="m119 120.005h109.24c2.895 0 5.647-1.254 7.546-3.438 1.899-2.185 2.759-5.085 2.356-7.952l-8.001-57.004c-.693-4.938-4.917-8.61-9.903-8.61h-101.238c-5.523 0-10 4.477-10 10v57.004c0 5.523 4.477 10 10 10zm10-57.005h82.544l5.194 37.004h-87.738z"/><path d="m376.001 140.003h-240.001c-16.542 0-30 13.458-30 30v271.997c0 16.542 13.458 30 30 30h74.997c5.523 0 10-4.477 10-10s-4.477-10-10-10h-74.997c-5.514 0-10-4.486-10-10v-271.997c0-5.514 4.486-10 10-10h240c5.514 0 10 4.486 10 10v271.997c0 5.514-4.486 10-10 10h-75.004c-5.522 0-10 4.477-10 10s4.478 10 10 10h75.004c16.542 0 30-13.458 30-30v-271.997c.001-16.542-13.457-30-29.999-30z"/><path d="m174.788 387.213c5.666 5.666 13.2 8.787 21.212 8.787 8.013 0 15.546-3.121 21.212-8.786l38.788-38.789 38.788 38.788c11.695 11.695 30.727 11.695 42.424 0 5.666-5.666 8.786-13.199 8.786-21.212s-3.12-15.546-8.786-21.212l-38.788-38.788 38.788-38.788c11.696-11.696 11.696-30.728 0-42.424-11.697-11.696-30.727-11.695-42.424 0l-38.788 38.79-38.788-38.788c-5.666-5.666-13.199-8.787-21.212-8.787s-15.546 3.121-21.212 8.787c-11.695 11.696-11.695 30.727 0 42.423l38.789 38.788-38.789 38.788c-11.695 11.696-11.695 30.728 0 42.423zm14.143-28.281 45.859-45.859c1.875-1.875 2.929-4.419 2.929-7.071s-1.054-5.196-2.929-7.071l-45.859-45.859c-3.898-3.898-3.898-10.241 0-14.139 1.888-1.889 4.399-2.928 7.069-2.928 2.671 0 5.181 1.04 7.069 2.928l45.859 45.859c1.875 1.875 4.419 2.929 7.071 2.929s5.196-1.054 7.071-2.929l45.859-45.859c3.898-3.898 10.24-3.898 14.139 0 3.898 3.898 3.898 10.241 0 14.139l-45.858 45.859c-3.905 3.905-3.905 10.237 0 14.142l45.858 45.859c1.889 1.888 2.929 4.399 2.929 7.069 0 2.671-1.04 5.181-2.929 7.069-3.898 3.898-10.24 3.898-14.139 0l-45.859-45.859c-3.904-3.905-10.237-3.904-14.142 0l-45.859 45.859c-1.888 1.888-4.398 2.928-7.069 2.928-2.67 0-5.181-1.04-7.069-2.928-3.899-3.897-3.898-10.24 0-14.138z"/><path d="m256 452h-.007c-5.523 0-9.996 4.477-9.996 10s4.48 10 10.003 10 10-4.477 10-10-4.477-10-10-10z"/></g></g></svg>