<svg id="Layer_1" enable-background="new 0 0 512.001 512.001" height="512" viewBox="0 0 512.001 512.001" width="512" xmlns="http://www.w3.org/2000/svg"><g><g><path d="m407.42 122.01c-4.087 3.715-4.388 10.04-.673 14.126l.005.005c1.973 2.17 4.681 3.272 7.398 3.272 2.4 0 4.809-.86 6.726-2.602 4.086-3.715 4.385-10.042.67-14.129-3.716-4.085-10.04-4.387-14.126-.672z"/><path d="m497.369 14.645c-9.445-9.444-22-14.645-35.356-14.645s-25.912 5.201-35.355 14.645c-5.661 5.66-9.816 12.564-12.227 20.051-3.246-1.176-6.707-1.768-10.366-1.768h-39.139c-8.706 0-16.599 3.478-23.458 10.337l-25.65 25.65c-8.085 8.086-8.968 20.297-2.722 29.518-14.315-1.378-27.994 7.75-31.838 22.094-4.281 15.978 5.235 32.46 21.213 36.742l4.977 1.333-28.792 28.792-38.438-10.299c-7.718-2.067-15.799-.997-22.752 3.018s-11.922 10.477-13.989 18.195c-2.068 7.719-.997 15.8 3.018 22.753s10.477 11.921 18.195 13.989l4.977 1.334-28.792 28.792-38.438-10.299c-7.721-2.069-15.799-.996-22.752 3.018-6.953 4.015-11.922 10.477-13.989 18.195-2.068 7.719-.997 15.8 3.018 22.753s10.476 11.921 18.195 13.99l4.977 1.334-28.791 28.792-38.439-10.299c-15.976-4.28-32.46 5.234-36.742 21.213-4.281 15.978 5.235 32.46 21.214 36.742l4.976 1.333-20.219 20.219c-1.28-.099-2.569-.165-3.874-.165-27.57 0-50 22.43-50 50s22.43 50 50 50 50.001-22.43 50.001-50c0-1.305-.066-2.594-.165-3.875l46.754-46.754 38.438 10.299c2.591.694 5.193 1.025 7.756 1.025 13.244 0 25.397-8.852 28.985-22.238v-.001c4.281-15.979-5.235-32.461-21.213-36.742l-4.977-1.334 28.792-28.792 38.438 10.299c2.569.688 5.178 1.029 7.772 1.029 5.199 0 10.341-1.369 14.979-4.047 6.953-4.015 11.922-10.477 13.989-18.196 2.068-7.719.997-15.799-3.018-22.752s-10.476-11.921-18.195-13.99l-4.976-1.333 28.792-28.792 38.437 10.299c2.591.694 5.193 1.026 7.757 1.026 13.244 0 25.397-8.852 28.985-22.238v-.001c4.281-15.978-5.235-32.46-21.214-36.742l-4.976-1.333 28.792-28.792 16.539 4.432 13.416 13.415c4.372 4.374 10.082 6.906 16.078 7.13.29.011.58.017.869.017 6.087 0 11.828-2.406 16.249-6.828l25.651-25.649c6.859-6.859 10.337-14.752 10.337-23.458v-39.138c0-3.662-.593-7.124-1.771-10.372 7.488-2.411 14.394-6.561 20.055-12.221 19.497-19.495 19.497-51.215.002-70.71zm-196.792 111.059c1.428-5.327 6.926-8.497 12.248-7.071l27.09 7.259 28.285 28.285-60.553-16.225c-5.325-1.428-8.497-6.923-7.07-12.248zm-250.566 366.297c-16.542 0-30-13.458-30-30s13.458-30 30-30c16.543 0 30.001 13.458 30.001 30s-13.458 30-30.001 30zm43.056-55.379c-4.306-7.277-10.4-13.37-17.677-17.676l21.022-21.021 27.881 7.471zm109.396-41.34c-1.428 5.327-6.917 8.499-12.247 7.072l-115.912-31.058c-5.327-1.427-8.499-6.922-7.072-12.247 1.196-4.463 5.247-7.414 9.662-7.414.854 0 1.723.11 2.586.342l115.911 31.058c5.326 1.427 8.498 6.921 7.072 12.247zm-29.18-38.876-27.882-7.471 28.792-28.792 27.882 7.471zm105.941-46.481c1.343 2.327 1.705 5.017 1.02 7.575v.001c-.686 2.559-2.345 4.708-4.671 6.051-2.326 1.344-5.013 1.707-7.576 1.02l-115.911-31.058c-2.56-.686-4.708-2.345-6.052-4.671-1.343-2.327-1.705-5.017-1.02-7.577.686-2.559 2.345-4.708 4.671-6.051 1.558-.899 3.278-1.359 5.013-1.359.856 0 1.718.112 2.563.339l115.911 31.059c2.56.685 4.708 2.345 6.052 4.671zm-28.159-31.3-27.882-7.471 28.792-28.792 27.882 7.471zm106.961-38.905 9.658 2.588-9.658-2.588c-.687 2.559-2.346 4.708-4.672 6.051-2.326 1.344-5.014 1.706-7.576 1.02l-115.912-31.059c-2.559-.686-4.707-2.345-6.051-4.671-1.343-2.327-1.705-5.017-1.02-7.577.686-2.559 2.345-4.708 4.671-6.051 1.558-.899 3.277-1.359 5.013-1.359.856 0 1.717.112 2.563.339l115.911 31.059c5.327 1.428 8.5 6.922 7.073 12.248zm-29.179-38.876-27.883-7.471 28.792-28.792 27.883 7.471zm130.238-53.758c0 2.076-.465 5.301-4.479 9.316l-25.65 25.65c-.691.691-1.41 1.007-2.227.967-.925-.035-1.903-.503-2.686-1.286l-93.764-93.763c-.268-.268-2.552-2.68-.319-4.913l11.846-11.846 33.452 33.451c1.953 1.953 4.512 2.929 7.071 2.929s5.118-.976 7.071-2.929c3.905-3.906 3.905-10.237 0-14.143l-33.444-33.443c3.854-3.702 6.954-4.149 8.97-4.149h39.139c3.021 0 5.3.99 7.62 3.311l44.088 44.088c2.321 2.321 3.312 4.601 3.312 7.621zm24.141-75.873c-5.229 5.229-12.221 8.325-19.547 8.737l-31.616-31.617c.412-7.324 3.509-14.318 8.737-19.546 5.666-5.666 13.2-8.787 21.213-8.787s15.547 3.121 21.213 8.787c11.697 11.697 11.697 30.729 0 42.426z"/><path d="m57.409 455.272c-3.715-4.087-10.036-4.385-14.124-.67-4.086 3.715-4.385 10.042-.67 14.128 1.974 2.171 4.683 3.273 7.402 3.273 2.4 0 4.808-.859 6.724-2.601 4.087-3.715 4.388-10.04.673-14.126z"/><path d="m469.41 43.271c-3.714-4.087-10.035-4.385-14.124-.67-4.086 3.715-4.385 10.042-.67 14.128 1.974 2.171 4.683 3.273 7.402 3.273 2.4 0 4.808-.859 6.724-2.601 4.087-3.715 4.388-10.04.673-14.126z"/></g></g></svg>