<svg id="Layer_1" enable-background="new 0 0 512 512" height="512" viewBox="0 0 512 512" width="512" xmlns="http://www.w3.org/2000/svg"><g><g><path d="m484.91 44.003-33.777-33.776c-6.593-6.595-15.386-10.226-24.758-10.227 0 0 0 0-.001 0-9.371 0-18.163 3.632-24.757 10.225l-28.993 28.993c-13.65 13.65-13.65 35.862 0 49.514.06.06.125.11.186.168l-18.79 18.79c-1.847-1.716-4.271-2.685-6.802-2.685h-21.743c-2.652 0-5.195 1.054-7.071 2.929l-14.678 14.678c-9.914-9.637-25.815-9.558-35.623.25l-10.871 10.871c-4.781 4.781-7.414 11.153-7.414 17.942 0 6.668 2.545 12.93 7.164 17.68l-14.678 14.678c-1.875 1.875-2.929 4.419-2.929 7.071v17.6l-167.718 167.72c-11.588 11.588-11.879 30.255-.882 42.205l-43.685 43.686c-1.875 1.876-2.929 4.419-2.929 7.071v14.495c0 2.652 1.054 5.196 2.929 7.071l18.12 18.119c1.875 1.875 4.418 2.929 7.071 2.929h14.495c2.652 0 5.196-1.054 7.071-2.929l43.685-43.685c5.629 5.182 12.907 8.025 20.64 8.025 8.163-.001 15.822-3.165 21.566-8.909l167.716-167.716h17.601c2.652 0 5.195-1.054 7.071-2.929l14.679-14.679c4.75 4.619 11.011 7.163 17.679 7.163 6.79 0 13.162-2.633 17.941-7.413l10.873-10.871c9.808-9.808 9.887-25.709.25-35.623l14.679-14.679c1.875-1.876 2.929-4.419 2.929-7.071v-21.742c0-2.531-.969-4.956-2.686-6.803l40.348-40.349c5.745-5.744 8.909-13.403 8.909-21.566 0-8.162-3.164-15.821-8.908-21.566l-8.588-8.588 3.253-3.253c3.905-3.905 3.905-10.236-.001-14.142-3.904-3.906-10.237-3.905-14.142.001l-3.252 3.252-8.588-8.588c-11.893-11.891-31.242-11.891-43.133 0l-7.434 7.434c-.058-.061-.108-.126-.167-.185-5.853-5.854-5.853-15.378 0-21.23l28.993-28.993c2.815-2.816 6.586-4.367 10.615-4.367 4.029.001 7.799 1.552 10.615 4.368l33.777 33.777c3.906 3.904 10.236 3.904 14.143 0 3.906-3.904 3.906-10.236 0-14.141zm-116.735 77.817 18.769-18.769 45.988 45.988c.06.06.125.11.186.168l-18.778 18.778zm-38.558 3.186h13.458l68.08 68.08v13.457l-11.744 11.744-81.538-81.538zm-35.298 176.63-59.795-59.795 14.85-14.85 59.795 59.795zm-69.173 69.174-59.795-59.794 55.031-55.031 59.795 59.795zm-28.992 28.992-59.795-59.794 14.849-14.849 59.795 59.794zm-28.992 28.991-59.795-59.794 14.849-14.849 59.795 59.794zm-104.529 63.207h-6.21l-12.262-12.262v-6.21l40.734-40.734 18.473 18.473zm75.538-38.589c-2.821.001-5.457-1.083-7.424-3.05l-44.947-44.947c-4.094-4.094-4.094-10.754 0-14.848l7.425-7.425 59.795 59.794-7.424 7.424c-1.968 1.969-4.605 3.052-7.425 3.052zm260.985-199.495-10.873 10.872c-1.354 1.353-2.962 1.555-3.8 1.555s-2.446-.202-3.8-1.556l-22.838-22.837c-3.906-3.904-10.238-3.904-14.143 0-3.905 3.905-3.905 10.237 0 14.143l8.952 8.951-11.744 11.744h-13.458l-68.079-68.08v-13.458l11.743-11.743 8.949 8.949c3.906 3.904 10.236 3.904 14.143 0 3.905-3.905 3.905-10.237 0-14.143l-22.837-22.836c-1.353-1.354-1.555-2.961-1.555-3.8 0-.838.202-2.446 1.556-3.801l10.871-10.871c1.354-1.354 2.962-1.556 3.8-1.556.839 0 2.447.202 3.801 1.556l109.311 109.311c1.354 1.354 1.556 2.962 1.556 3.801 0 .837-.202 2.446-1.555 3.799zm24.203-172.432 31.316 31.317c1.968 1.967 3.051 4.604 3.051 7.424s-1.083 5.457-3.051 7.424l-7.434 7.434c-.058-.061-.108-.126-.168-.186l-45.988-45.988 7.425-7.425c4.096-4.093 10.757-4.092 14.849 0z"/><path d="m318.957 207.203h-.008c-5.522 0-9.996 4.478-9.996 10s4.481 10 10.004 10 10-4.478 10-10-4.477-10-10-10z"/></g></g></svg>