<svg id="Layer_1" enable-background="new 0 0 512.002 512.002" height="512" viewBox="0 0 512.002 512.002" width="512" xmlns="http://www.w3.org/2000/svg"><g><g><path d="m256.002 237.002c-24.813 0-45 20.187-45 45s20.187 45 45 45 44.999-20.187 44.999-45-20.187-45-44.999-45zm0 70c-13.785 0-25-11.215-25-25s11.215-25 25-25c13.784 0 24.999 11.215 24.999 25s-11.215 25-24.999 25z"/><path d="m346.001 218.669c5.522 0 10-4.478 10-10s-4.478-10-10-10h-5v-126.666-.001h5c5.522 0 10-4.478 10-10s-4.478-10-10-10h-60v-42.002c0-5.522-4.478-10-10-10h-40c-5.522 0-10 4.478-10 10v42.002h-59.999c-5.522 0-10 4.478-10 10s4.478 10 10 10h4.999v.001 126.666h-5c-5.522 0-10 4.478-10 10s4.478 10 10 10h5v126.666h-5c-5.522 0-10 4.478-10 10s4.478 10 10 10h5v116.667c0 16.542 13.458 30 30 30h110.001c16.542 0 29.999-13.458 29.999-30v-116.667h5c5.522 0 10-4.478 10-10s-4.478-10-10-10h-5v-126.666zm-100-198.669h20v32.002h-20zm75 462.002c0 5.514-4.485 10-9.999 10h-110.001c-5.514 0-10-4.486-10-10v-116.667h130zm0-136.667h-130v-126.666h19.997c5.522 0 10-4.478 10-10s-4.478-10-10-10h-19.997v-126.666-.001h130v.001 126.666h-20.003c-5.522 0-10 4.478-10 10s4.478 10 10 10h20.003z"/><path d="m256.002 180.335c24.813 0 44.999-20.187 44.999-45s-20.187-44.999-44.999-44.999c-24.813 0-45 20.187-45 44.999 0 24.813 20.186 45 45 45zm0-69.999c13.784 0 24.999 11.215 24.999 24.999 0 13.785-11.215 25-24.999 25-13.785 0-25-11.215-25-25 0-13.784 11.215-24.999 25-24.999z"/><path d="m256.002 473.667c24.813 0 44.999-20.187 44.999-45s-20.187-45-44.999-45c-24.813 0-45 20.187-45 45s20.186 45 45 45zm0-70c13.784 0 24.999 11.215 24.999 25s-11.215 25-24.999 25c-13.785 0-25-11.215-25-25s11.215-25 25-25z"/><path d="m255.994 198.669c-5.522 0-9.996 4.478-9.996 10s4.48 10 10.003 10 10-4.478 10-10-4.478-10-10-10z"/></g></g></svg>