<svg id="Layer_1" enable-background="new 0 0 511.963 511.963" height="512" viewBox="0 0 511.963 511.963" width="512" xmlns="http://www.w3.org/2000/svg"><g><g><path d="m509.762 112.086-18.983-45.335c-3.642-10.619-13.023-17.997-24.007-18.846-50.893-3.993-82.325-.777-129.548 7.457-8.201 1.422-15.272 6.507-19.39 13.935l-18.194 32.659h-87.312l-18.184-32.642c-4.127-7.445-11.199-12.53-19.39-13.95-47.232-8.238-78.666-11.455-129.546-7.46-10.997.85-20.378 8.228-24.021 18.847l-18.99 45.353c-5.912 14.195.518 30.772 14.336 36.953 3.358 1.501 6.894 2.299 10.479 2.37l30.208.696 15.757 11.033 6.337 32.187c1.53 7.771 6.205 14.552 12.841 18.638l5.249 3.461-.52 36.633-16.314 26.069c-4.178 6.665-5.431 14.881-3.454 22.477l35.923 141.832c3.139 12.554 14.135 21.316 26.747 21.316h.02 232.355.02c12.611 0 23.608-8.764 26.739-21.287l35.914-141.797c1.994-7.66.741-15.876-3.435-22.536l-16.319-26.074-.52-36.633 5.25-3.462c6.636-4.086 11.311-10.866 12.84-18.637l6.337-32.187 15.757-11.033 30.178-.695c3.616-.072 7.151-.87 10.513-2.372 13.815-6.18 20.246-22.757 14.327-36.97zm-449.054 20.112-33.264-.767c-.924-.019-1.849-.232-2.747-.634-4.007-1.792-5.818-6.729-4.044-10.987l19.123-45.672c.105-.251.2-.505.284-.764 1.018-3.124 3.643-5.295 6.7-5.53 47.858-3.759 77.901-.829 122.083 6.795l-87.245 70.137-15.385-10.773c-1.616-1.131-3.532-1.76-5.505-1.805zm79.09 313.571c-.002 0-.005 0-.007 0-.001 0-.003 0-.005 0-3.417 0-6.437-2.535-7.352-6.197l-8.959-35.373h16.574c5.523 0 10-4.478 10-10s-4.477-10-10-10h-21.639l-5.066-20h26.705c5.523 0 10-4.478 10-10s-4.477-10-10-10h-31.77l-5.066-20h36.836c5.523 0 10-4.478 10-10s-4.477-10-10-10h-41.902l-1.659-6.552c-.612-2.353-.237-4.861 1.032-6.887l17.802-28.443c.97-1.55 1.497-3.336 1.522-5.164l.637-44.902c.048-3.411-1.646-6.611-4.494-8.489l-9.965-6.572c-.108-.072-.219-.142-.33-.209-1.926-1.165-3.294-3.17-3.753-5.5l-5.946-30.201 89.435-71.898 15.287 27.441c1.765 3.169 5.108 5.134 8.736 5.134h39.533v77.335h-5.044l-7.626-7.625c-8.026-8.026-20.492-9.193-29.841-2.861l-37.557 21.685c-8.802 5.058-13.354 15.132-11.327 25.066.023.114.048.227.076.34l35.995 149.643c2.303 10.828 11.931 18.658 22.976 18.658h.014 32.333v41.57h-106.185zm116.185-166.571c5.523 0 10-4.478 10-10v-49.907h9.186c2.652 0 5.195-1.054 7.071-2.929l10.557-10.556c1.229-1.229 3.145-1.393 4.553-.394.255.182.52.352.791.508l37.945 21.909c1.473.846 1.918 2.402 1.716 3.615l-35.976 149.563c-.027.113-.052.227-.076.34-.337 1.652-1.774 2.85-3.43 2.85-.001 0-.003 0-.004 0h-32.333v-25c0-5.522-4.477-10-10-10s-10 4.478-10 10v25h-32.333c-.005 0-.01 0-.014 0-1.646 0-3.083-1.197-3.42-2.849-.023-.114-.048-.228-.076-.341l-35.976-149.564c-.203-1.212.244-2.77 1.733-3.625l37.928-21.898c.271-.156.535-.326.791-.508 1.409-1 3.324-.835 4.554.395l10.556 10.555c1.875 1.875 4.419 2.929 7.071 2.929h9.186v49.907c0 5.523 4.477 10 10 10zm139.139-22.046c.026 1.828.552 3.614 1.522 5.164l17.806 28.449c1.266 2.02 1.641 4.527 1.012 6.944l-1.643 6.488h-41.901c-5.523 0-10 4.478-10 10s4.477 10 10 10h36.836l-5.066 20h-31.77c-5.523 0-10 4.478-10 10s4.477 10 10 10h26.704l-5.066 20h-21.639c-5.523 0-10 4.478-10 10s4.477 10 10 10h16.573l-8.967 35.402c-.908 3.633-3.927 6.168-7.352 6.168-.001 0-.003 0-.005 0h-106.183v-41.57h32.322.025c11.043 0 20.673-7.832 22.976-18.658l35.996-149.645c.027-.113.052-.226.076-.34 2.027-9.936-2.524-20.009-11.309-25.057l-37.574-21.694c-9.348-6.333-21.814-5.166-29.84 2.86l-7.627 7.626h-5.044v-77.335h39.532c3.627 0 6.971-1.965 8.736-5.134l15.287-27.442 89.435 71.898-5.946 30.201c-.459 2.33-1.827 4.335-3.753 5.5-.112.067-.222.137-.331.209l-9.965 6.572c-2.848 1.878-4.542 5.078-4.493 8.489zm92.15-126.355c-.9.402-1.826.616-2.78.636l-33.234.766c-1.973.045-3.889.674-5.505 1.806l-15.385 10.773-87.244-70.138c44.177-7.624 74.222-10.554 122.095-6.794 3.044.234 5.669 2.405 6.688 5.529.084.258.179.513.284.764l19.116 45.654c1.78 4.276-.031 9.213-4.035 11.004z"/><path d="m255.991 324.198c5.523 0 10-4.478 10-10s-4.477-10-10-10h-.007c-5.523 0-9.996 4.478-9.996 10s4.48 10 10.003 10z"/></g></g></svg>