<svg id="Layer_1" enable-background="new 0 0 512 512" height="512" viewBox="0 0 512 512" width="512" xmlns="http://www.w3.org/2000/svg"><g><g><path d="m427 247.5c-6.701 0-13.215.804-19.473 2.277l-54.132-148.698c-1.438-3.95-5.193-6.579-9.397-6.579h-47c-5.523 0-10 4.478-10 10s4.477 10 10 10h39.999l12.832 35.25h-38.875c-27.305 0-54.072 11.632-69.809 29.986-8.821-.046-16.732-.221-24.04-.532-5.509-.208-10.182 4.047-10.417 9.565s4.047 10.182 9.565 10.417c6.118.26 12.634.427 19.701.507v18.871l-12.836 53.436h-25.272c-5.508-4.979-10.896-9.891-16.132-14.663-52.171-47.556-93.621-85.34-143.96-90.062l-9.502-8.216c22.172-7.53 41.901-.462 69.613 10.848 9.216 3.762 18.746 7.651 27.386 10.939 5.163 1.97 10.938-.627 12.903-5.789 1.964-5.161-.627-10.938-5.789-12.902-8.418-3.204-17.835-7.048-26.943-10.766-30.694-12.526-62.435-25.481-100.422-3.549-2.803 1.618-4.649 4.493-4.955 7.715-.306 3.223.966 6.394 3.415 8.51l23.695 20.486c1.652 1.429 3.728 2.277 5.908 2.416 44.884 2.844 84.73 39.166 135.178 85.151 4.982 4.542 10.108 9.212 15.349 13.953l-2.924 32.204-11.786.519c-6.575-40.373-41.677-71.294-83.88-71.294-46.869 0-85 38.131-85 85s38.131 85 85 85c44.756 0 81.517-34.777 84.743-78.724l103.905-4.578h.006c12.214-.128 23.203-5.462 30.838-13.894.098-.102.203-.195.298-.302l75.866-85.57 8.082 22.202c-27.695 14.026-46.738 42.755-46.738 75.866 0 46.869 38.131 85 85 85s85-38.131 85-85-38.13-85-85-85zm-153.791 66.709c-12.246 0-22.209-9.963-22.209-22.209 0-12.245 9.963-22.208 22.209-22.208s22.208 9.963 22.208 22.208c0 12.246-9.962 22.209-22.208 22.209zm0-64.417c-9.998 0-19.189 3.501-26.429 9.332l7.057-29.374h104.244l-44.446 50.13c-5.222-17.383-21.365-30.088-40.426-30.088zm37.746-80.042h46.156l14.562 40h-115.718v-16.563c11.821-14.121 33.46-23.437 55-23.437zm-107.822 122.25h27.867c0 8.795 2.707 16.967 7.327 23.735l-37.499 1.652zm-118.133 105.5c-35.841 0-65-29.159-65-65s29.159-65 65-65c31.454 0 57.755 22.46 63.724 52.183l-20.34.896c-5.238-19.044-22.698-33.079-43.384-33.079-24.813 0-45 20.187-45 45s20.187 45 45 45c22.061 0 40.451-15.962 44.262-36.94l20.334-.896c-3.578 32.481-31.177 57.836-64.596 57.836zm-.007-55c.148 0 .298-.003.447-.01l22.884-1.008c-3.616 9.359-12.704 16.018-23.324 16.018-13.785 0-25-11.215-25-25s11.215-25 25-25c9.84 0 18.367 5.717 22.444 14.002l-22.884 1.008c-5.518.243-9.793 4.913-9.55 10.431.237 5.367 4.663 9.559 9.983 9.559zm342.007 55c-35.841 0-65-29.159-65-65 0-24.475 13.602-45.826 33.639-56.911l6.964 19.128c-12.385 8.025-20.603 21.958-20.603 37.783 0 24.813 20.187 45 45 45s45-20.187 45-45-20.187-45-45-45c-1.9 0-3.769.132-5.608.362l-6.964-19.131c4.07-.801 8.271-1.231 12.572-1.231 35.841 0 65 29.159 65 65s-29.159 65-65 65zm-9.397-61.579c1.479 4.061 5.313 6.582 9.398 6.582 1.135 0 2.291-.195 3.42-.606 5.189-1.889 7.865-7.628 5.976-12.817l-7.836-21.525c13.06.808 23.439 11.684 23.439 24.945 0 13.785-11.215 25-25 25s-25-11.215-25-25c0-7.111 2.989-13.533 7.772-18.09z"/><path d="m171.941 194.368c5.523 0 10-4.478 10-10s-4.477-10-10-10h-.007c-5.523 0-9.996 4.478-9.996 10s4.48 10 10.003 10z"/></g></g></svg>