<svg id="Layer_1" enable-background="new 0 0 512 512" height="512" viewBox="0 0 512 512" width="512" xmlns="http://www.w3.org/2000/svg"><g><g><path d="m502 183.1h-45.799c-2.652 0-5.195 1.054-7.071 2.929l-39.128 39.128v-39.157c0-16.542-13.458-29.999-30-29.999h-239.999c-13.037 0-24.152 8.361-28.28 20h-31.722c-16.542 0-30 13.458-30 30v11.389l-31.483 4.723c-10.904 1.633-18.518 9.812-18.518 19.888v60c0 5.929 2.671 11.769 7.144 15.621 3.396 2.924 7.478 4.466 11.712 4.466.871 0 1.749-.065 2.628-.197l28.518-4.278v8.388c0 16.542 13.458 29.999 30 29.999h94.996c5.522 0 10-4.478 10-10s-4.478-10-10-10h-94.997c-5.514 0-10-4.485-10-9.999v-120.001c0-5.514 4.486-10 10-10h30.002v69.998c0 16.542 13.458 30 30 30h229.998v30.003c0 5.514-4.486 9.999-10 9.999h-95.004c-5.522 0-10 4.478-10 10s4.478 10 10 10h95.004c16.542 0 30-13.457 30-29.999v-20h43.301c2.652 0 5.195-1.054 7.071-2.929l39.971-39.971h21.656c5.522 0 10-4.478 10-10v-60.001c0-5.523-4.478-10-10-10zm-482 118.789v-59.498c.258-.161.748-.39 1.483-.5l28.518-4.278v59.776zm110.003-35.891v-79.999c0-5.514 4.486-9.999 10-9.999h239.999c5.514 0 10 4.485 10 9.999v79.999c0 5.514-4.486 10-10 10h-239.999c-5.514 0-10-4.486-10-10zm361.997-22.896h-15.799c-2.652 0-5.195 1.054-7.071 2.929l-39.971 39.971h-26.823c4.763-5.312 7.666-12.324 7.666-20.003v-19.999h3.299c2.652 0 5.195-1.054 7.071-2.929l39.972-39.971h31.656z"/><path d="m208.997 192.427c-5.338-1.432-10.817 1.737-12.247 7.071l-12.814 47.825c-1.43 5.334 1.736 10.817 7.071 12.247.867.232 1.737.344 2.594.344 4.416 0 8.456-2.947 9.653-7.415l12.814-47.825c1.43-5.334-1.736-10.818-7.071-12.247z"/><path d="m268.997 192.427c-5.339-1.432-10.817 1.737-12.247 7.071l-12.814 47.825c-1.43 5.334 1.736 10.817 7.071 12.247.867.232 1.737.344 2.594.344 4.416 0 8.456-2.947 9.653-7.415l12.814-47.825c1.43-5.334-1.736-10.818-7.071-12.247z"/><path d="m328.997 192.427c-5.337-1.432-10.817 1.737-12.247 7.071l-12.814 47.825c-1.43 5.334 1.736 10.817 7.071 12.247.867.232 1.737.344 2.594.344 4.416 0 8.456-2.947 9.653-7.415l12.814-47.825c1.43-5.334-1.736-10.818-7.071-12.247z"/><path d="m220.001 336h-.008c-5.522 0-9.996 4.478-9.996 10s4.481 10 10.004 10 10-4.478 10-10-4.478-10-10-10z"/></g></g></svg>