<svg id="Layer_1" enable-background="new 0 0 512.005 512.005" height="512" viewBox="0 0 512.005 512.005" width="512" xmlns="http://www.w3.org/2000/svg"><g><g><path d="m256.003 327.931c49.626 0 90-40.374 90-90 0-30.779-15.478-59.102-41.403-75.763-4.647-2.987-10.833-1.639-13.819 3.007-2.985 4.646-1.64 10.833 3.007 13.819 20.173 12.963 32.216 34.996 32.216 58.937 0 38.598-31.402 70-70 70s-70-31.402-70-70c0-23.938 12.041-45.97 32.21-58.934 4.646-2.986 5.991-9.173 3.005-13.819s-9.173-5.991-13.819-3.005c-25.921 16.661-41.396 44.981-41.396 75.758-.001 49.626 40.373 90 89.999 90z"/><path d="m511.808 112.032c-.908-7.951-4.858-15.073-11.124-20.055-47.111-37.44-82.366-52.882-110.939-48.586-2.457.369-4.828.875-7.128 1.5-36.332-29.154-81.1-45.089-126.575-44.886-45.505-.167-90.309 15.734-126.649 44.887-2.3-.625-4.673-1.131-7.13-1.5-28.581-4.294-63.831 11.144-110.943 48.587-6.264 4.979-10.214 12.102-11.122 20.053-.908 7.951 1.334 15.78 6.314 22.044 4.98 6.265 12.102 10.215 20.054 11.123 7.949.903 15.78-1.334 22.043-6.313 7.025-5.583 13.561-10.422 19.63-14.528-11.527 26.047-17.527 54.046-17.527 82.493 0 57.975 30.041 131.486 82.419 201.686 37.182 49.833 91.493 103.467 122.873 103.467s85.692-53.634 122.874-103.467c52.378-70.199 82.419-143.711 82.419-201.686 0-28.448-6.001-56.446-17.529-82.493 6.068 4.106 12.604 8.944 19.629 14.526 6.265 4.98 14.092 7.221 22.045 6.315 7.951-.908 15.073-4.858 20.053-11.122 4.978-6.265 7.221-14.094 6.313-22.045zm-90.683-45.253-9.25 20.971c-4.356-.765-8.496-.99-12.461-.679-19.179 1.513-30.435 14.86-41.319 27.768-6.308 7.479-12.804 15.155-20.134 22.264-5.352-4.358-11.052-8.303-17.058-11.778 8.574-7.445 15.593-15.761 22.012-23.374 16.218-19.23 30.223-35.839 49.8-38.78 8.24-1.241 17.684-.045 28.41 3.608zm-165.122 61.152c60.655 0 110 49.346 110 110s-49.346 110-110 110-110-49.346-110-110 49.345-110 110-110zm49.999-26.126h-100v-15c0-5.514 4.486-10 10-10h80c5.514 0 10 4.486 10 10zm-50.624-81.801c.221 0 .442 0 .663.001 37.759-.13 74.931 12.03 106.171 34.499-12.839 8.778-23.527 21.439-34.586 34.554-.54.64-1.081 1.282-1.624 1.924v-4.176c0-16.542-13.458-30-30-30h-80c-16.542 0-30 13.458-30 30v4.175c-.543-.642-1.084-1.283-1.624-1.924-11.059-13.114-21.747-25.775-34.586-34.553 31.068-22.342 68.009-34.5 105.586-34.5zm-136.088 43.165c19.577 2.941 33.583 19.551 49.8 38.781 6.419 7.612 13.438 15.928 22.013 23.374-6.006 3.475-11.707 7.42-17.058 11.778-7.329-7.109-13.826-14.785-20.133-22.264-10.885-12.907-22.141-26.255-41.319-27.768-3.966-.311-8.107-.087-12.462.677l-9.247-20.963c10.725-3.652 20.167-4.849 28.406-3.615zm-83.126 60.059c-2.083 1.656-4.684 2.404-7.329 2.1-2.644-.302-5.011-1.615-6.667-3.698-1.656-2.082-2.401-4.685-2.099-7.328.302-2.644 1.615-5.012 3.696-6.666 18.225-14.485 34.435-25.414 48.78-32.868l8.472 19.206c-12.839 5.86-27.52 15.478-44.853 29.254zm405.131 83.622c0 53.755-28.594 122.907-78.448 189.726-20.281 27.181-42.831 51.965-63.496 69.785-21.924 18.905-36.768 25.642-43.348 25.642-6.581 0-21.424-6.736-43.348-25.642-20.665-17.82-43.215-42.604-63.496-69.785-49.855-66.818-78.448-135.971-78.448-189.726 0-34.63 9.874-68.556 28.588-98.43 4.353-1.217 8.255-1.687 11.72-1.412 10.325.814 17.215 8.405 27.603 20.723 6.195 7.347 13.057 15.458 20.911 23.154-20.829 23.061-33.53 53.597-33.53 87.046 0 71.683 58.318 130 130 130s130-58.317 130-130c0-33.449-12.702-63.985-33.531-87.047 7.854-7.696 14.717-15.807 20.912-23.153 10.388-12.317 17.278-19.908 27.603-20.723 3.464-.276 7.366.194 11.72 1.411 18.715 29.88 28.588 63.802 28.588 98.431zm48.542-85.219c-1.655 2.082-4.023 3.396-6.667 3.697-2.645.304-5.245-.443-7.33-2.101-17.331-13.774-32.013-23.39-44.852-29.251l8.475-19.213c14.344 7.456 30.553 18.388 48.777 32.871 2.082 1.655 3.396 4.023 3.697 6.667s-.444 5.247-2.1 7.33z"/><path d="m236.002 277.931c5.523 0 10-4.478 10-10v-60c0-5.522-4.477-10-10-10s-10 4.478-10 10v60c0 5.523 4.477 10 10 10z"/><path d="m276.003 277.931c5.522 0 10-4.478 10-10v-60c0-5.522-4.478-10-10-10s-10 4.478-10 10v60c0 5.523 4.478 10 10 10z"/><path d="m256.003 167.931c5.523 0 10-4.478 10-10s-4.477-10-10-10h-.007c-5.523 0-9.996 4.478-9.996 10s4.48 10 10.003 10z"/></g></g></svg>