<svg id="Layer_1" enable-background="new 0 0 512 512" height="512" viewBox="0 0 512 512" width="512" xmlns="http://www.w3.org/2000/svg"><g><g><path d="m497.076 230.518-43.324-43.091c-12.039-48.597-40.152-92.588-79.419-124.131-40.655-32.658-91.821-50.644-144.074-50.644-61.504 0-119.327 23.951-162.817 67.441-43.491 43.492-67.442 101.315-67.442 162.819 0 25.812 4.255 51.18 12.646 75.4 2.745 7.923 8.901 13.989 16.516 16.861v15.97c0 11.637 6.685 21.229 17.883 25.66l135.191 53.489 70.03 62.982c4.499 4.047 10.214 6.073 15.801 6.072 5.517 0 10.907-1.978 14.867-5.937l14-14c7.052-7.051 10.739-19.446-.061-33.091l-56.486-71.352v-39.16c8.509-2.282 14.379-7.894 18.453-17.42l8.225-19.228c12.281-4.876 22.188-14.472 27.467-26.544l207.513-.942c5.505-.025 9.954-4.495 9.954-10 .001-13.871-4.812-21.098-14.923-31.154zm-447.914 120.625v-14.133h171.225v37.323l-35.26 35.594-130.724-51.721c-4.645-1.838-5.241-4.74-5.241-7.063zm233.63 114.125-13.944 13.955c-.418.239-2.107.17-3.206-.818l-63.565-57.168 27.475-27.735 51.641 65.232c3.594 4.54 2.297 5.836 1.599 6.534zm-52.405-148.258h-159.571c-4.614-16.211-6.954-33.043-6.954-50.132 0-37.39 11.059-73.008 31.979-103.004 3.16-4.53 2.048-10.764-2.481-13.923s-10.763-2.049-13.923 2.481c-23.273 33.369-35.575 72.944-35.575 114.445 0 17.031 2.102 33.838 6.246 50.132h-10.946c-3.985 0-6.742-2.719-7.618-5.245-7.66-22.109-11.544-45.275-11.544-68.852 0-115.938 94.322-210.26 210.259-210.26 94.775 0 176.481 62.12 202.146 152.292l-34.734 7.316c-13.246-33.417-34.986-62.077-63.254-83.249-31.237-23.395-68.084-35.761-106.555-35.761-26.828 0-52.706 5.951-76.916 17.689-4.97 2.409-7.045 8.392-4.635 13.36 2.41 4.97 8.392 7.046 13.361 4.636 21.467-10.408 44.41-15.686 68.19-15.686 64.834 0 123.811 41.044 149.915 103.201l-94.66 19.94c-8.981-8.543-21.113-13.803-34.457-13.803-27.596 0-50.047 22.451-50.047 50.048 0 25.992 19.919 47.412 45.293 49.815l-3.453 8.073c-2.25 5.258-3.449 6.487-10.066 6.487zm18.273-34.328c-16.568 0-30.047-13.479-30.047-30.047s13.479-30.048 30.047-30.048 30.047 13.479 30.047 30.048-13.479 30.047-30.047 30.047zm50.046-30.086c-.005-6.464-1.254-12.638-3.5-18.313l146.308-30.82 41.458 41.235c2.963 2.946 4.956 5.155 6.295 7.032z"/><path d="m248.655 242.635c-5.523 0-10 4.478-10 10s4.477 10 10 10h.008c5.523 0 9.997-4.478 9.997-10s-4.482-10-10.005-10z"/><path d="m189.171 382.38c0-5.522-4.481-10-10.004-10s-10 4.478-10 10 4.477 10 10 10h.007c5.523 0 9.997-4.478 9.997-10z"/><path d="m117.737 114.7h-.007c-5.523 0-9.996 4.478-9.996 10s4.48 10 10.003 10 10-4.478 10-10-4.477-10-10-10z"/></g></g></svg>