<?xml version="1.0" encoding="iso-8859-1"?>
<!-- Uploaded to: SVG Repo, www.svgrepo.com, Generator: SVG Repo Mixer Tools -->
<!DOCTYPE svg PUBLIC "-//W3C//DTD SVG 1.1//EN" "http://www.w3.org/Graphics/SVG/1.1/DTD/svg11.dtd">
<svg fill="#000000" height="800px" width="800px" version="1.1" id="Capa_1" xmlns="http://www.w3.org/2000/svg" xmlns:xlink="http://www.w3.org/1999/xlink" 
	 viewBox="0 0 457.751 457.751" xml:space="preserve">
<g id="XMLID_14_">
	<path id="XMLID_110_" d="M165.062,245.376l-23.933,0.019l-7.708,6.554c-6.662,5.664-8.991,14.934-5.797,23.074l14.313,36.482
		l-0.006-6.985C141.914,281.699,150.663,260.965,165.062,245.376z"/>
	<path id="XMLID_221_" d="M324.85,251.949l-7.708-6.554l-23.933-0.019c14.399,15.589,23.148,36.323,23.13,59.144l-0.006,6.985
		l14.313-36.482C333.841,266.883,331.512,257.613,324.85,251.949z"/>
	<circle id="XMLID_450_" cx="226.487" cy="35.358" r="35.358"/>
	<path id="XMLID_798_" d="M228.99,335.274c-0.006,0-0.012,0-0.018,0c-11.751,0.009-21.27,9.543-21.26,21.294l0.064,79.922
		c0.009,11.745,9.534,21.26,21.277,21.26c0.006,0,0.012,0,0.018,0c11.751-0.009,21.27-9.543,21.26-21.294l-0.064-79.922
		C250.257,344.788,240.733,335.273,228.99,335.274z"/>
	<path id="XMLID_804_" d="M348.604,206.941c-2.005-8.247-14.696-60.458-16.586-68.231c-0.863-3.549-2.841-6.727-5.644-9.066
		l-50.148-41.868c-2.085-1.741-4.703-2.684-7.419-2.678l-84.251,0.194c-3.059,0.007-6.006,1.154-8.263,3.218
		c-0.003,0.003-0.007,0.006-0.01,0.01l-54.038,49.496c-2.963,2.715-4.874,6.388-5.394,10.372
		c-0.884,6.765-7.178,54.961-8.045,61.604c-1.22,9.343,5.364,17.905,14.707,19.126c4.811,0.626,9.435-0.811,12.994-3.717
		l56.662-0.045c2.162,6.29,6.038,12.12,11.433,16.662c-25.129,9.807-42.692,34.222-42.669,62.489l0.059,74.273
		c0.007,8.391,6.819,15.198,15.21,15.198c0.004,0,0.008,0,0.012,0l10.528-0.009l-0.03-37.382
		c-0.018-22.76,18.365-41.292,41.26-41.311h0.018c22.742,0,41.258,18.502,41.276,41.244l0.03,37.383v0l10.526-0.009h0.002
		c8.389-0.006,15.204-6.812,15.198-15.222c-0.065-80.8-0.006-75.189-0.196-78.33c-1.628-26.898-19.038-49.197-42.63-58.363
		c-0.001,0-0.002,0-0.002-0.001c5.06-4.274,9.127-9.999,11.407-16.68l58.092-0.047c3.873,2.531,8.668,3.439,13.365,2.297
		C345.212,225.321,350.83,216.096,348.604,206.941z M228.888,230.887c-0.004,0-0.009,0-0.014,0c-9.778,0-17.738-7.951-17.746-17.731
		c-0.008-9.808,7.922-17.752,17.73-17.76c0.004,0,0.009,0,0.014,0c9.778,0,17.738,7.951,17.746,17.731
		C246.627,222.912,238.673,230.879,228.888,230.887z M264.58,200.929c-5.067-14.774-19.139-25.6-35.911-25.529
		c-16.322,0.085-30.455,10.588-35.54,25.586l-48.743,0.039c4.045-30.969,0.791-6.056,5.492-42.052l31.634-28.975l0.11,49.977
		c10.616-15.122,28.09-24.563,47.221-24.578h0.03h0.001h0.001c16.816,0.001,32.366,7.301,43.101,19.345l-0.101-46.151l28.316,23.642
		c2.68,11.025,9.446,38.858,11.828,48.659L264.58,200.929z"/>
</g>
</svg>