<?xml version='1.0' encoding='iso-8859-1'?>
<!-- Uploaded to: SVG Repo, www.svgrepo.com, Generator: SVG Repo Mixer Tools -->
<svg fill="#000000" height="800px" width="800px" version="1.1" xmlns="http://www.w3.org/2000/svg" viewBox="0 0 470 470" xmlns:xlink="http://www.w3.org/1999/xlink" enable-background="new 0 0 470 470">
  <g>
    <path d="m97.302,233.4h-50.239c-19.023,0-34.5,15.477-34.5,34.5v167.6c0,19.023 15.477,34.5 34.5,34.5h50.239c19.023,0 34.5-15.477 34.5-34.5v-167.6c0-19.023-15.477-34.5-34.5-34.5zm0,221.6h-50.239c-10.752,0-19.5-8.748-19.5-19.5v-20.9h19.599c4.143,0 7.5-3.357 7.5-7.5s-3.357-7.5-7.5-7.5h-19.599v-40.4h19.599c4.143,0 7.5-3.357 7.5-7.5s-3.357-7.5-7.5-7.5h-19.599v-40.4h19.599c4.143,0 7.5-3.357 7.5-7.5s-3.357-7.5-7.5-7.5h-19.599v-20.9c0-10.752 8.748-19.5 19.5-19.5h50.239c10.752,0 19.5,8.748 19.5,19.5v20.9h-19.599c-4.143,0-7.5,3.357-7.5,7.5s3.357,7.5 7.5,7.5h19.599v40.4h-19.599c-4.143,0-7.5,3.357-7.5,7.5s3.357,7.5 7.5,7.5h19.599v40.4h-19.599c-4.143,0-7.5,3.357-7.5,7.5s3.357,7.5 7.5,7.5h19.599v20.9c0,10.752-8.748,19.5-19.5,19.5z"/>
    <path d="m315.698,344.2h-161.396c-4.143,0-7.5,3.357-7.5,7.5s3.357,7.5 7.5,7.5h161.396c4.143,0 7.5-3.357 7.5-7.5s-3.357-7.5-7.5-7.5z"/>
    <path d="m147.818,130.49h-92.911c-3.827,0-7.04,2.881-7.456,6.686l-3.957,36.202c-0.436,3.989 2.347,7.616 6.314,8.227l96.865,14.924c0.38,0.059 0.762,0.088 1.142,0.088 1.778,0 3.514-0.633 4.883-1.807 1.661-1.425 2.617-3.505 2.617-5.693l.003-51.126c0-1.989-0.79-3.896-2.196-5.303-1.407-1.408-3.314-2.198-5.304-2.198zm-7.502,49.882l-81.131-12.499 2.446-22.383h78.687l-.002,34.882z"/>
    <path d="m198.91,130.49c-4.142,0-7.5,3.357-7.5,7.5l-.003,51.126c0,4.142 3.357,7.5 7.5,7.5 4.142,0 7.5-3.357 7.5-7.5l.003-51.126c0-4.141-3.357-7.5-7.5-7.5z"/>
    <path d="m235,130.49c-4.143,0-7.5,3.357-7.5,7.5v51.065c0,4.143 3.357,7.5 7.5,7.5s7.5-3.357 7.5-7.5v-51.065c0-4.142-3.357-7.5-7.5-7.5z"/>
    <path d="m422.938,233.4h-50.239c-19.023,0-34.5,15.477-34.5,34.5v167.6c0,19.023 15.477,34.5 34.5,34.5h50.239c19.023,0 34.5-15.477 34.5-34.5v-167.6c0-19.023-15.477-34.5-34.5-34.5zm0,221.6h-50.239c-10.752,0-19.5-8.748-19.5-19.5v-20.9h19.599c4.143,0 7.5-3.357 7.5-7.5s-3.357-7.5-7.5-7.5h-19.599v-40.4h19.599c4.143,0 7.5-3.357 7.5-7.5s-3.357-7.5-7.5-7.5h-19.599v-40.4h19.599c4.143,0 7.5-3.357 7.5-7.5s-3.357-7.5-7.5-7.5h-19.599v-20.9c0-10.752 8.748-19.5 19.5-19.5h50.239c10.752,0 19.5,8.748 19.5,19.5v20.9h-19.599c-4.143,0-7.5,3.357-7.5,7.5s3.357,7.5 7.5,7.5h19.599v40.4h-19.599c-4.143,0-7.5,3.357-7.5,7.5s3.357,7.5 7.5,7.5h19.599v40.4h-19.599c-4.143,0-7.5,3.357-7.5,7.5s3.357,7.5 7.5,7.5h19.599v20.9c0,10.752-8.749,19.5-19.5,19.5z"/>
    <path d="m457.274,178.775l-5.653-51.72c-1.602-14.648-14.894-26.566-29.63-26.566h-134.547l-2.5-15h34.719c10.861,0 23.567-7.399 28.926-16.845l13.418-23.644h59.985c4.143,0 7.5-3.357 7.5-7.5s-3.357-7.5-7.5-7.5h-51.473l3.265-5.753c2.746-4.84 10.315-9.247 15.879-9.247h32.329c4.143,0 7.5-3.357 7.5-7.5s-3.357-7.5-7.5-7.5h-32.329c-10.86,0-23.565,7.399-28.925,16.845l-9.684,17.064c-0.014,0.024-15.512,27.334-15.512,27.334-2.745,4.84-10.314,9.247-15.88,9.247h-37.219l-3.956-23.733c-0.604-3.616-3.732-6.267-7.398-6.267h-72.18c-3.666,0-6.795,2.65-7.398,6.267l-3.956,23.733h-37.22c-5.564,0-13.134-4.407-15.88-9.247l-15.497-27.313c-0.009-0.016-9.695-17.085-9.695-17.085-5.361-9.446-18.067-16.845-28.927-16.845h-32.328c-4.143,0-7.5,3.357-7.5,7.5s3.357,7.5 7.5,7.5h32.328c5.564,0 13.134,4.407 15.881,9.247l3.264,5.753h-51.473c-4.143,0-7.5,3.357-7.5,7.5s3.357,7.5 7.5,7.5h59.985l13.417,23.645c5.359,9.445 18.065,16.845 28.926,16.845h34.72l-2.5,15h-134.548c-14.735,0-28.027,11.918-29.629,26.567l-5.653,51.718c-1.628,14.897 9.097,28.873 23.907,31.154l105.382,16.236 29.717,97.718c0.961,3.158 3.874,5.317 7.176,5.317h112.185c3.302,0 6.215-2.159 7.176-5.317l29.718-97.718 105.381-16.236c14.81-2.282 25.534-16.257 23.906-31.154zm-252.01-123.286h59.473l7.5,45h-74.472l7.499-45zm115.776,156.57c-2.85,0.438-5.195,2.472-6.034,5.229l-29.473,96.912h-101.067l-29.472-96.911c-0.839-2.759-3.185-4.792-6.034-5.23l-110.043-16.955c-6.869-1.059-12.035-7.79-11.279-14.699l5.652-51.719c0.782-7.154 7.522-13.197 14.718-13.197h233.052c0.033,0 140.932,0 140.932,0 7.196,0 13.937,6.043 14.719,13.196l5.652,51.72c0.756,6.909-4.41,13.641-11.279,14.699l-110.044,16.955z"/>
    <path d="m422.549,137.176c-0.416-3.805-3.629-6.686-7.456-6.686h-92.911c-1.989,0-3.896,0.79-5.304,2.197-1.406,1.406-2.196,3.313-2.196,5.303l.003,51.126c0,2.188 0.956,4.269 2.617,5.693 1.369,1.174 3.104,1.807 4.883,1.807 0.38,0 0.762-0.029 1.142-0.088l96.865-14.924c3.968-0.61 6.75-4.237 6.314-8.227l-3.957-36.201zm-92.865,43.196l-.002-34.882h78.687l2.446,22.383-81.131,12.499z"/>
    <path d="m271.09,130.49c-4.143,0-7.5,3.358-7.5,7.5l.002,51.126c0,4.143 3.358,7.5 7.5,7.5 4.143,0 7.5-3.358 7.5-7.5l-.002-51.126c0-4.142-3.359-7.5-7.5-7.5z"/>
  </g>
</svg>