<svg id="Capa_1" enable-background="new 0 0 512 512" height="512" viewBox="0 0 512 512" width="512" xmlns="http://www.w3.org/2000/svg"><g><g><path d="m231.647 155.551h-33.499c-3.314 0-6 2.687-6 6v94.417h45.499v-94.417c0-3.314-2.686-6-6-6z" fill="#cecece"/><path d="m152.277 155.551h-33.499c-3.314 0-6 2.687-6 6v94.417h45.499v-94.417c0-3.314-2.686-6-6-6z" fill="#cecece"/><path d="m311.017 155.551h-33.499c-3.314 0-6 2.687-6 6v94.417h45.499v-94.417c0-3.314-2.686-6-6-6z" fill="#cecece"/><path d="m390.387 155.551h-33.499c-3.314 0-6 2.687-6 6v94.417h45.499v-94.417c0-3.314-2.686-6-6-6z" fill="#cecece"/><g fill="#bfbfbf"><path d="m234.482 155.551h-25.512c3.314 0 6 2.686 6 6v94.417h25.512v-94.417c0-3.314-2.687-6-6-6z"/><path d="m155.112 155.551h-25.512c3.314 0 6 2.686 6 6v94.417h25.512v-94.417c0-3.314-2.687-6-6-6z"/><path d="m313.852 155.551h-25.512c3.314 0 6 2.686 6 6v94.417h25.512v-94.417c0-3.314-2.687-6-6-6z"/><path d="m393.222 155.551h-25.512c3.314 0 6 2.686 6 6v94.417h25.512v-94.417c0-3.314-2.686-6-6-6z"/><path d="m439.333 86.055v134.325c0 8.358 6.411 15.21 14.583 15.928 8.171-.718 14.583-7.57 14.583-15.928v-134.325c0-17.645-14.355-32-32-32h-363.832c-17.645 0-32 14.355-32 32v134.325c0 8.358 6.411 15.21 14.583 15.928 8.171-.718 14.583-7.57 14.583-15.928v-134.325h2.835 363.832z"/></g><g><path d="m439.333 54.055h-19.843c17.645 0 32 14.355 32 32v134.325c0 5.085-2.38 9.607-6.079 12.538 2.728 2.162 6.17 3.462 9.921 3.462 8.836 0 16-7.164 16-16v-134.325c.001-17.645-14.353-32-31.999-32z" fill="#acacac"/></g><path d="m501.665 417.945v-195.938c0-22.091-17.909-40-40-40h-414.165c-22.091 0-40 17.909-40 40v195.938c0 22.091 17.909 40 40 40h414.165c22.092 0 40-17.908 40-40z" fill="#5f99d7"/><circle cx="108.247" cy="313.075" fill="#e2e2e2" r="70.086"/><path d="m325.157 457.945h-138.314v-76.153c0-8.512 6.9-15.412 15.412-15.412h107.491c8.512 0 15.412 6.9 15.412 15.412v76.153z" fill="#98bce5"/><path d="m215.843 424.945v-25.565c0-2.209 1.791-4 4-4h72.314c2.209 0 4 1.791 4 4v25.565c0 2.209-1.791 4-4 4h-72.314c-2.209 0-4-1.791-4-4z" fill="#b3ceec"/><path d="m464.5 182.007h-30.661c22.091 0 40 17.909 40 40v195.938c0 22.091-17.909 40-40 40h30.661c22.091 0 40-17.909 40-40v-195.938c0-22.091-17.909-40-40-40z" fill="#3c87d0"/><circle cx="403.753" cy="313.075" fill="#e2e2e2" r="70.086"/><path d="m312.332 264.547v-34.167c0-5.523-4.477-10-10-10h-95.499c-5.523 0-10 4.477-10 10v34.167c0 5.523 4.477 10 10 10h95.499c5.523 0 10-4.477 10-10z" fill="#b3ceec"/><path d="m305.167 220.38h-22.677c5.523 0 10 4.477 10 10v34.167c0 5.523-4.477 10-10 10h22.677c5.523 0 10-4.477 10-10v-34.167c0-5.523-4.477-10-10-10z" fill="#98bce5"/><ellipse cx="106.83" cy="313.075" fill="#9c9c9c" rx="42.669" ry="44.05"/><ellipse cx="402.335" cy="313.075" fill="#9c9c9c" rx="42.669" ry="44.05"/><circle cx="108.248" cy="313.075" fill="#5a5a5a" r="15"/><path d="m108.248 268.989c-4.053 0-7.975.561-11.705 1.59 18.644 5.142 32.381 22.24 32.381 42.496s-13.737 37.354-32.381 42.497c3.73 1.029 7.652 1.589 11.705 1.589 24.309 0 44.086-19.776 44.086-44.086-.001-24.308-19.777-44.086-44.086-44.086z" fill="#838383"/><circle cx="403.752" cy="313.075" fill="#5a5a5a" r="15"/><path d="m403.752 268.989c-4.053 0-7.975.561-11.705 1.59 18.644 5.142 32.381 22.24 32.381 42.496s-13.737 37.354-32.381 42.497c3.73 1.029 7.652 1.589 11.705 1.589 24.309 0 44.086-19.776 44.086-44.086 0-24.308-19.776-44.086-44.086-44.086z" fill="#838383"/><g><path d="m307.167 282.047h-102.334c-8.547 0-15.5-6.953-15.5-15.5v-38.167c0-8.547 6.953-15.5 15.5-15.5h102.333c8.547 0 15.5 6.953 15.5 15.5v38.167c.001 8.547-6.953 15.5-15.499 15.5zm-102.334-54.167c-.276 0-.5.224-.5.5v38.167c0 .276.224.5.5.5h102.333c.276 0 .5-.224.5-.5v-38.167c0-.276-.224-.5-.5-.5z" fill="#acacac"/></g></g><g><path d="m478.833 176.722v-28.35c0-4.142-3.358-7.5-7.5-7.5s-7.5 3.358-7.5 7.5v26.135h-17v-88.452c0-4.142-3.358-7.5-7.5-7.5h-366.666c-4.142 0-7.5 3.358-7.5 7.5v88.452h-17v-88.452c0-3.765.834-7.375 2.479-10.731 0 0 0 0 0-.001 4.098-8.363 12.742-13.768 22.021-13.768h366.667c13.509 0 24.5 10.991 24.5 24.5v27.317c0 4.142 3.358 7.5 7.5 7.5s7.5-3.358 7.5-7.5v-27.317c0-21.78-17.72-39.5-39.5-39.5h-366.667c-21.429 0-39.5 17.434-39.5 39.5v90.667c-19.208 6.093-33.167 24.087-33.167 45.285v120.795c0 4.142 3.358 7.5 7.5 7.5s7.5-3.358 7.5-7.5v-120.795c0-18.028 14.712-32.5 32.5-32.5h417c17.758 0 32.5 14.443 32.5 32.5v195.938c0 17.92-14.58 32.5-32.5 32.5h-131.843v-68.653c0-12.634-10.278-22.912-22.912-22.912h-107.491c-12.633 0-22.912 10.278-22.912 22.912v68.653h-131.842c-17.92 0-32.5-14.58-32.5-32.5v-40.143c0-4.142-3.358-7.5-7.5-7.5s-7.5 3.358-7.5 7.5v40.143c0 26.191 21.309 47.5 47.5 47.5h417c26.191 0 47.5-21.309 47.5-47.5v-195.938c0-21.198-13.959-39.192-33.167-45.285zm-398.666-83.167h351.667v80.952h-25.112v-12.956c0-7.444-6.056-13.5-13.5-13.5h-36.333c-7.444 0-13.5 6.056-13.5 13.5v12.956h-16.037v-12.956c0-7.444-6.056-13.5-13.5-13.5h-36.333c-7.444 0-13.5 6.056-13.5 13.5v12.956h-16.037v-12.956c0-7.444-6.056-13.5-13.5-13.5h-36.333c-7.444 0-13.5 6.056-13.5 13.5v12.956h-16.037v-12.956c0-7.444-6.056-13.5-13.5-13.5h-36.333c-7.444 0-13.5 6.056-13.5 13.5v12.956h-25.112zm40.111 80.952v-11.456h33.333v11.456zm79.37 0v-11.456h33.333v11.456zm79.371 0v-11.456h33.333v11.456zm79.37 0v-11.456h33.333v11.456zm-164.046 275.938v-68.653c0-4.363 3.549-7.912 7.912-7.912h107.491c4.362 0 7.912 3.549 7.912 7.912v68.653z"/><path d="m108.248 390.662c42.781 0 77.586-34.805 77.586-77.586s-34.805-77.586-77.586-77.586-77.586 34.805-77.586 77.586 34.804 77.586 77.586 77.586zm0-140.172c34.51 0 62.586 28.076 62.586 62.586s-28.076 62.586-62.586 62.586-62.586-28.076-62.586-62.586 28.076-62.586 62.586-62.586z"/><path d="m108.248 364.662c28.445 0 51.586-23.141 51.586-51.586s-23.141-51.586-51.586-51.586-51.586 23.141-51.586 51.586 23.141 51.586 51.586 51.586zm0-88.172c20.173 0 36.586 16.413 36.586 36.586s-16.413 36.586-36.586 36.586-36.586-16.413-36.586-36.586 16.412-36.586 36.586-36.586z"/><path d="m108.248 328.076c8.131 0 15-6.869 15-15s-6.869-15-15-15-15 6.869-15 15 6.869 15 15 15z"/><path d="m307.167 282.047c8.547 0 15.5-6.953 15.5-15.5v-38.167c0-8.547-6.953-15.5-15.5-15.5h-102.334c-8.547 0-15.5 6.953-15.5 15.5v38.167c0 8.547 6.953 15.5 15.5 15.5zm-102.834-15.5v-38.167c0-.276.224-.5.5-.5h102.333c.276 0 .5.224.5.5v38.167c0 .276-.224.5-.5.5h-102.333c-.275 0-.5-.224-.5-.5z"/><path d="m296.157 387.88h-80.314c-4.142 0-7.5 3.358-7.5 7.5v33.565c0 4.142 3.358 7.5 7.5 7.5h80.314c4.142 0 7.5-3.358 7.5-7.5v-33.565c0-4.142-3.358-7.5-7.5-7.5zm-7.5 33.565h-65.314v-18.565h65.314z"/><path d="m403.752 390.662c42.781 0 77.586-34.805 77.586-77.586s-34.805-77.586-77.586-77.586-77.586 34.805-77.586 77.586 34.805 77.586 77.586 77.586zm0-140.172c34.51 0 62.586 28.076 62.586 62.586s-28.076 62.586-62.586 62.586-62.586-28.076-62.586-62.586 28.077-62.586 62.586-62.586z"/><path d="m403.752 364.662c28.445 0 51.586-23.141 51.586-51.586s-23.141-51.586-51.586-51.586-51.586 23.141-51.586 51.586 23.142 51.586 51.586 51.586zm0-88.172c20.173 0 36.586 16.413 36.586 36.586s-16.413 36.586-36.586 36.586-36.586-16.413-36.586-36.586 16.413-36.586 36.586-36.586z"/><path d="m403.752 328.076c8.131 0 15-6.869 15-15s-6.869-15-15-15-15 6.869-15 15 6.87 15 15 15z"/></g></g></svg>