<svg id="Capa_1" enable-background="new 0 0 512 512" height="512" viewBox="0 0 512 512" width="512" xmlns="http://www.w3.org/2000/svg"><g><g><path d="m462.819 82.909-189.7 71.9c2.161 3.204 44.052 65.311 51.972 77.052z" fill="#acacac"/><path d="m143.428 293.515c10.532 15.615 31.186 20.702 47.765 11.765l119.639-64.49-55.808-82.739-104.611 86.769c-14.497 12.024-17.517 33.08-6.985 48.695z" fill="#838383"/><path d="m418.835 99.58-105.794 114.416c7.104 10.533 12.513 18.551 13.255 19.652l140.922-152.406z" fill="#9c9c9c"/><path d="m361.854 312.48c30.657-.542 61.514-9.652 88.827-28.074l4.05-2.732c4.615-3.113 5.832-9.377 2.72-13.992l-170.711-253.089c-3.113-4.615-9.377-5.832-13.992-2.72l-.123.083c-75.235 50.747-95.086 152.875-44.34 228.109 31.179 46.225 81.753 71.532 133.569 72.415z" fill="#cecece"/><path d="m290.667 11.944c-3.113-4.615-9.377-5.832-13.992-2.72l-4.05 2.732c-3.091 2.085-6.078 4.264-8.981 6.517l173.73 257.565-12.406 8.368c-23.51 15.858-49.647 24.822-76.021 27.356 36.598 3.503 74.588-5.192 107.447-27.356l4.05-2.732c4.615-3.113 5.832-9.377 2.72-13.992z" fill="#bfbfbf"/><path d="m469.552 103.071c9.615-6.486 12.152-19.538 5.667-29.153-3.77-5.589-9.76-8.766-16.003-9.19-3.566.243-7.117 1.381-10.294 3.524-9.615 6.486-12.153 19.538-5.667 29.153 3.77 5.589 9.76 8.766 16.003 9.19 3.567-.244 7.118-1.382 10.294-3.524z" fill="#cecece"/><path d="m478.076 73.917c-6.103-9.047-18.018-11.823-27.414-6.716 2.886 1.56 5.454 3.808 7.416 6.716 6.486 9.615 3.948 22.668-5.667 29.153-.568.383-1.149.729-1.739 1.049 6.656 3.596 15.03 3.475 21.737-1.049 9.616-6.485 12.153-19.537 5.667-29.153z" fill="#bfbfbf"/><path d="m159.042 231.797c-25.569.708-46.763 20.309-49.306 45.91l-18.696 188.181h136.004l-18.696-188.18c-2.543-25.602-23.736-45.202-49.306-45.911z" fill="#bfbfbf"/><path d="m287.76 492.405v-19.074c0-17.471-14.163-31.634-31.634-31.634h-194.167c-17.471 0-31.634 14.163-31.634 31.634v19.074c0 6.68 5.415 12.095 12.095 12.095h233.245c6.68 0 12.095-5.415 12.095-12.095z" fill="#cecece"/><path d="m181.85 277.707 16.292 163.99h29.355l-16.292-163.99c-2.591-26.077-24.529-45.944-50.735-45.944-5.092 0-10.019.759-14.678 2.158 19.32 5.806 33.971 22.776 36.058 43.786z" fill="#acacac"/><path d="m258.983 441.697h-28.57c17.471 0 31.634 14.163 31.634 31.634v19.074c0 6.68-5.415 12.095-12.095 12.095h28.57c6.68 0 12.095-5.415 12.095-12.095v-19.074c0-17.471-14.163-31.634-31.634-31.634z" fill="#bfbfbf"/><circle cx="160.471" cy="283.065" fill="#9c9c9c" r="21.797"/></g><g><path d="m131.173 283.065c0 16.155 13.143 29.297 29.297 29.297s29.297-13.143 29.297-29.297-13.143-29.297-29.297-29.297-29.297 13.143-29.297 29.297zm43.595 0c0 7.884-6.414 14.297-14.297 14.297s-14.297-6.414-14.297-14.297 6.414-14.297 14.297-14.297 14.297 6.414 14.297 14.297z"/><path d="m484.294 69.724c-8.788-13.029-26.536-16.479-39.565-7.691-8.279 5.585-12.819 14.812-12.552 24.47l-65.442 24.803-69.85-103.557c-5.424-8.038-16.349-10.176-24.404-4.743-16.656 11.239-31.483 23.102-46.268 43.143-2.459 3.333-1.75 8.029 1.583 10.488s8.029 1.751 10.488-1.583c13.49-18.284 27.066-29.143 42.586-39.612 1.16-.785 2.812-.442 3.58.696 1.683 2.496 163.958 243.08 172.497 255.739.813 1.204.462 2.798-.696 3.58-20.493 13.824-40.804 23.864-69.271 27.962-.007.001-.013.001-.02.002-95.724 13.777-179.283-60.957-179.283-155.09 0-22.072 4.773-44.376 13.804-64.501 1.696-3.779.007-8.217-3.772-9.913-3.777-1.694-8.217-.007-9.913 3.772-9.89 22.041-15.118 46.469-15.118 70.642 0 15.811 2.171 31.39 6.394 46.387l-35.707 29.617c-.959-.046-1.923-.071-2.893-.071-30.193 0-55.212 22.657-58.198 52.702l-15.622 157.231h-24.693c-21.579 0-39.134 17.556-39.134 39.134v19.074c0 10.805 8.791 19.595 19.595 19.595h236.102c10.805 0 19.595-8.791 19.595-19.595v-19.074c0-21.579-17.556-39.134-39.134-39.134h-24.693l-4.272-42.996c-.41-4.122-4.083-7.131-8.205-6.722-4.122.41-7.131 4.083-6.722 8.205l4.124 41.513h-117.49l15.475-155.748c2.219-22.339 20.822-39.186 43.271-39.186 22.502 0 41.094 17.26 43.271 39.186.523 5.26 1.048 10.549 1.583 15.931 0 .001 0 .002.001.003l6.306 63.472c.409 4.121 4.076 7.129 8.205 6.722 4.122-.41 7.131-4.083 6.722-8.205l-5.812-58.503 33.366-17.985c37.909 31.845 87.23 45.259 135.005 38.38.008-.001.015-.002.022-.003 29.997-4.323 52.349-14.753 75.5-30.37 8.03-5.418 10.182-16.339 4.743-24.403l-67.681-100.343 47.512-51.385c8.715 3.805 18.99 3.194 27.39-2.472h.001c13.059-8.809 16.498-26.506 7.689-39.564zm-201.177 403.607v19.074c0 2.534-2.062 4.595-4.595 4.595h-236.102c-2.534 0-4.595-2.062-4.595-4.595v-19.074c0-13.308 10.827-24.134 24.134-24.134h197.024c13.308 0 24.134 10.826 24.134 24.134zm-64.449-196.375c-2.163-21.74-16.161-40.553-36.633-48.619l22.123-18.351c8.376 21.664 21.398 42.066 38.281 59.15l-23.3 12.559c-.013-.131-.484-4.866-.471-4.739zm174.416-126.586c-13.615-20.185-10.565-15.663-17.732-26.288l61.218-23.202c.152.241.308.48.468.717.16.238.324.473.492.706zm75.131-53.517c-4.78 3.225-11.087 3.109-15.819-.532-7.252-5.626-6.906-16.71.721-21.853 6.169-4.162 14.56-2.556 18.741 3.644 4.173 6.185 2.545 14.568-3.643 18.741z"/></g></g></svg>