<svg id="Capa_1" enable-background="new 0 0 512.002 512.002" height="512" viewBox="0 0 512.002 512.002" width="512" xmlns="http://www.w3.org/2000/svg"><g><g><path d="m227.654 77.94h-16.429c-2.34 0-4.237 1.897-4.237 4.237v84.684h24.903v-84.684c.001-2.34-1.896-4.237-4.237-4.237z" fill="#9c9c9c"/><path d="m281.016 77.94h-16.429c-2.34 0-4.237 1.897-4.237 4.237v84.684h24.903v-84.684c0-2.34-1.897-4.237-4.237-4.237z" fill="#9c9c9c"/><path d="m151.483 7.676c-7.513.714-13.39 7.036-13.39 14.736v202.656h26.781v-202.656c0-7.7-5.878-14.022-13.391-14.736z" fill="#9c9c9c"/><path d="m230.488 77.94h-14.167c2.34 0 4.237 1.897 4.237 4.237v84.684h14.167v-84.684c0-2.34-1.897-4.237-4.237-4.237z" fill="#838383"/><path d="m283.849 77.94h-14.167c2.34 0 4.237 1.897 4.237 4.237v84.684h14.167v-84.684c0-2.34-1.897-4.237-4.237-4.237z" fill="#838383"/><path d="m152.9 7.605c-2.566 0-4.979.654-7.083 1.803 4.601 2.512 7.724 7.393 7.724 13.005v202.656h14.167v-202.657c-.001-8.178-6.63-14.807-14.808-14.807z" fill="#838383"/><path d="m186.679 208.774h-96.043c-3.744 0-6.779-3.035-6.779-6.779v-27.965c0-3.744 3.035-6.779 6.779-6.779h96.043c3.744 0 6.779 3.035 6.779 6.779v27.965c.001 3.744-3.034 6.779-6.779 6.779z" fill="#9c9c9c"/><path d="m299.659 489.129v-210.769l11.623-23.6c1.721-3.494 2.616-7.337 2.616-11.232v-35.178-90.21c0-8.424-6.829-15.254-15.254-15.254h-85.554-2.833-85.554c-8.424 0-15.254 6.829-15.254 15.254v90.21 35.178c0 3.895.895 7.738 2.616 11.232l11.623 23.6v210.769c0 8.424 6.829 15.254 15.253 15.254h145.465c8.424 0 15.253-6.829 15.253-15.254z" fill="#5f99d7"/><g fill="#bfbfbf"><path d="m152.534 318.678v-24.751c0-3.276 2.656-5.932 5.932-5.932h36.58c3.276 0 5.932 2.656 5.932 5.932v24.751c0 3.276-2.656 5.932-5.932 5.932h-36.58c-3.276 0-5.932-2.656-5.932-5.932z"/><path d="m225.201 318.678v-24.751c0-3.276 2.656-5.932 5.932-5.932h36.58c3.276 0 5.932 2.656 5.932 5.932v24.751c0 3.276-2.656 5.932-5.932 5.932h-36.58c-3.277 0-5.932-2.656-5.932-5.932z"/><path d="m151.511 362.144c0-6.689 5.422-12.111 12.111-12.111 6.689 0 12.111 5.422 12.111 12.111 0 6.689-5.422 12.111-12.111 12.111-6.688 0-12.111-5.422-12.111-12.111z"/><path d="m250.446 362.144c0-6.689 5.422-12.111 12.111-12.111 6.689 0 12.111 5.422 12.111 12.111 0 6.689-5.422 12.111-12.111 12.111-6.689 0-12.111-5.422-12.111-12.111z"/><path d="m200.979 362.144c0-6.689 5.422-12.111 12.111-12.111 6.689 0 12.111 5.422 12.111 12.111 0 6.689-5.422 12.111-12.111 12.111-6.689 0-12.111-5.422-12.111-12.111z"/><path d="m151.511 412.988c0-6.689 5.422-12.111 12.111-12.111 6.689 0 12.111 5.422 12.111 12.111 0 6.689-5.422 12.111-12.111 12.111-6.688 0-12.111-5.422-12.111-12.111z"/><path d="m250.446 412.988c0-6.689 5.422-12.111 12.111-12.111 6.689 0 12.111 5.422 12.111 12.111 0 6.689-5.422 12.111-12.111 12.111-6.689 0-12.111-5.422-12.111-12.111z"/><path d="m200.979 412.988c0-6.689 5.422-12.111 12.111-12.111 6.689 0 12.111 5.422 12.111 12.111 0 6.689-5.422 12.111-12.111 12.111-6.689 0-12.111-5.422-12.111-12.111z"/><path d="m151.511 463.832c0-6.689 5.422-12.111 12.111-12.111 6.689 0 12.111 5.422 12.111 12.111 0 6.689-5.422 12.111-12.111 12.111-6.688.001-12.111-5.422-12.111-12.111z"/><path d="m250.446 463.832c0-6.689 5.422-12.111 12.111-12.111 6.689 0 12.111 5.422 12.111 12.111 0 6.689-5.422 12.111-12.111 12.111-6.689.001-12.111-5.422-12.111-12.111z"/><path d="m200.979 463.832c0-6.689 5.422-12.111 12.111-12.111 6.689 0 12.111 5.422 12.111 12.111 0 6.689-5.422 12.111-12.111 12.111-6.689.001-12.111-5.422-12.111-12.111z"/></g><path d="m301.477 102.886h-28.619c8.424 0 15.254 6.829 15.254 15.254v90.21 35.178c0 3.895-.895 7.738-2.616 11.232l-11.623 23.6v210.769c0 8.424-6.829 15.254-15.254 15.254h28.619c8.424 0 15.253-6.829 15.253-15.254v-210.769l11.623-23.6c1.721-3.494 2.616-7.337 2.616-11.232v-35.178-90.21c.001-8.425-6.828-15.254-15.253-15.254z" fill="#3c87d0"/><path d="m195.047 287.995h-14.167c3.276 0 5.932 2.656 5.932 5.932v24.751c0 3.276-2.656 5.932-5.932 5.932h14.167c3.276 0 5.932-2.656 5.932-5.932v-24.751c0-3.276-2.656-5.932-5.932-5.932z" fill="#acacac"/><path d="m267.713 287.995h-14.167c3.276 0 5.932 2.656 5.932 5.932v24.751c0 3.276-2.656 5.932-5.932 5.932h14.167c3.276 0 5.932-2.656 5.932-5.932v-24.751c0-3.276-2.656-5.932-5.932-5.932z" fill="#acacac"/><path d="m163.622 350.033c-1.498 0-2.926.285-4.25.782 4.589 1.723 7.861 6.138 7.861 11.329s-3.272 9.606-7.861 11.329c1.324.497 2.752.782 4.25.782 6.689 0 12.111-5.422 12.111-12.111.001-6.689-5.422-12.111-12.111-12.111z" fill="#acacac"/><path d="m262.557 350.033c-1.498 0-2.926.285-4.25.782 4.589 1.723 7.861 6.138 7.861 11.329s-3.272 9.606-7.861 11.329c1.324.497 2.752.782 4.25.782 6.689 0 12.111-5.422 12.111-12.111s-5.423-12.111-12.111-12.111z" fill="#acacac"/><path d="m213.09 350.033c-1.498 0-2.926.285-4.25.782 4.589 1.723 7.861 6.138 7.861 11.329s-3.272 9.606-7.861 11.329c1.324.497 2.752.782 4.25.782 6.689 0 12.111-5.422 12.111-12.111s-5.423-12.111-12.111-12.111z" fill="#acacac"/><path d="m163.622 400.877c-1.498 0-2.926.285-4.25.782 4.589 1.723 7.861 6.138 7.861 11.329s-3.272 9.606-7.861 11.329c1.324.497 2.752.782 4.25.782 6.689 0 12.111-5.422 12.111-12.111.001-6.689-5.422-12.111-12.111-12.111z" fill="#acacac"/><path d="m262.557 400.877c-1.498 0-2.926.285-4.25.782 4.589 1.723 7.861 6.138 7.861 11.329s-3.272 9.606-7.861 11.329c1.324.497 2.752.782 4.25.782 6.689 0 12.111-5.422 12.111-12.111s-5.423-12.111-12.111-12.111z" fill="#acacac"/><path d="m213.09 400.877c-1.498 0-2.926.285-4.25.782 4.589 1.723 7.861 6.138 7.861 11.329s-3.272 9.606-7.861 11.329c1.324.497 2.752.782 4.25.782 6.689 0 12.111-5.422 12.111-12.111s-5.423-12.111-12.111-12.111z" fill="#acacac"/><path d="m163.622 451.721c-1.498 0-2.926.285-4.25.782 4.589 1.723 7.861 6.138 7.861 11.329 0 5.191-3.272 9.606-7.861 11.329 1.324.497 2.752.782 4.25.782 6.689 0 12.111-5.422 12.111-12.111.001-6.688-5.422-12.111-12.111-12.111z" fill="#acacac"/><path d="m262.557 451.721c-1.498 0-2.926.285-4.25.782 4.589 1.723 7.861 6.138 7.861 11.329 0 5.191-3.272 9.606-7.861 11.329 1.324.497 2.752.782 4.25.782 6.689 0 12.111-5.422 12.111-12.111 0-6.688-5.423-12.111-12.111-12.111z" fill="#acacac"/><path d="m213.09 451.721c-1.498 0-2.926.285-4.25.782 4.589 1.723 7.861 6.138 7.861 11.329 0 5.191-3.272 9.606-7.861 11.329 1.324.497 2.752.782 4.25.782 6.689 0 12.111-5.422 12.111-12.111 0-6.688-5.423-12.111-12.111-12.111z" fill="#acacac"/><path d="m285.253 225.722v-75.421c0-6.084-4.932-11.016-11.016-11.016h-125.128c-6.084 0-11.016 4.932-11.016 11.016v75.421c0 6.084 4.932 11.017 11.016 11.017h125.127c6.085 0 11.017-4.933 11.017-11.017z" fill="#b3ceec"/><path d="m277.07 139.285h-28.619c6.084 0 11.016 4.932 11.016 11.016v75.421c0 6.084-4.932 11.017-11.016 11.017h28.619c6.084 0 11.016-4.932 11.016-11.017v-75.421c0-6.084-4.932-11.016-11.016-11.016z" fill="#98bce5"/></g><g><path d="m288.101 174.652c4.143 0 7.5-3.358 7.5-7.5v-16.89c0-10.213-8.309-18.521-18.521-18.521h-128.019c-10.213 0-18.521 8.309-18.521 18.521v75.454c0 10.213 8.309 18.521 18.521 18.521h128.018c10.213 0 18.521-8.309 18.521-18.521v-23.564c0-4.142-3.357-7.5-7.5-7.5s-7.5 3.358-7.5 7.5v23.564c0 1.942-1.58 3.521-3.521 3.521h-128.018c-1.941 0-3.521-1.58-3.521-3.521v-75.454c0-1.942 1.58-3.521 3.521-3.521h128.018c1.941 0 3.521 1.58 3.521 3.521v16.89c.001 4.143 3.358 7.5 7.501 7.5z"/><path d="m301.498 95.326h-5.897v-13.218c0-6.473-5.267-11.739-11.739-11.739h-19.271c-6.473 0-11.739 5.266-11.739 11.739v13.218h-10.637v-13.218c0-6.473-5.266-11.739-11.738-11.739h-19.271c-6.473 0-11.738 5.266-11.738 11.739v13.218h-24.299v-73.01c0-12.304-10.01-22.314-22.314-22.314s-22.313 10.01-22.313 22.314v73.01h-5.897c-12.55 0-22.76 10.21-22.76 22.761v41.632h-11.32c-7.876 0-14.283 6.407-14.283 14.282v27.978c0 7.875 6.407 14.282 14.283 14.282h11.32v27.27c0 5.018 1.172 10.049 3.389 14.55l10.855 22.043v209.117c0 12.55 10.21 22.76 22.761 22.76h21.347c4.143 0 7.5-3.358 7.5-7.5s-3.357-7.5-7.5-7.5h-21.347c-4.279 0-7.761-3.481-7.761-7.76v-210.863c0-2.355.31-1.118-12.398-26.924-1.208-2.451-1.846-5.191-1.846-7.923 0-5.085 0-120.508 0-125.444 0-4.279 3.481-7.761 7.76-7.761h176.855c4.278 0 7.76 3.481 7.76 7.761v125.444c0 2.732-.638 5.472-1.846 7.923-12.678 25.744-12.398 24.546-12.398 26.924v210.864c0 4.279-3.481 7.76-7.761 7.76h-92.019c-4.143 0-7.5 3.358-7.5 7.5s3.357 7.5 7.5 7.5h92.019c12.551 0 22.761-10.21 22.761-22.76v-209.117l10.855-22.043c2.217-4.501 3.389-9.533 3.389-14.551v-125.444c-.002-12.551-10.212-22.761-22.762-22.761zm-210.219 105.935v-26.542h10.604v26.542zm54.261-105.935v-73.01c0-4.033 3.281-7.314 7.313-7.314 4.033 0 7.314 3.281 7.314 7.314v73.01zm68.927 0v-9.957h12.748v9.957zm53.385 0v-9.957h12.749v9.957z"/><path d="m163.581 350.083c-6.692 0-12.116 5.425-12.116 12.116 0 6.692 5.425 12.117 12.116 12.117 6.692 0 12.116-5.425 12.116-12.117 0-6.691-5.424-12.116-12.116-12.116z"/><path d="m262.56 350.083c-6.692 0-12.116 5.425-12.116 12.116 0 6.692 5.425 12.117 12.116 12.117 6.692 0 12.116-5.425 12.116-12.117 0-6.691-5.425-12.116-12.116-12.116z"/><circle cx="213.07" cy="362.2" r="12.117"/><path d="m163.581 400.95c-6.692 0-12.116 5.425-12.116 12.116 0 6.692 5.425 12.117 12.116 12.117 6.692 0 12.116-5.425 12.116-12.117 0-6.691-5.424-12.116-12.116-12.116z"/><path d="m262.56 400.95c-6.692 0-12.116 5.425-12.116 12.116 0 6.692 5.425 12.117 12.116 12.117 6.692 0 12.116-5.425 12.116-12.117 0-6.691-5.425-12.116-12.116-12.116z"/><circle cx="213.07" cy="413.067" r="12.117"/><path d="m163.581 451.817c-6.692 0-12.116 5.425-12.116 12.116 0 6.692 5.425 12.116 12.116 12.116 6.692 0 12.116-5.425 12.116-12.116 0-6.691-5.424-12.116-12.116-12.116z"/><path d="m262.56 451.817c-6.692 0-12.116 5.425-12.116 12.116 0 6.692 5.425 12.116 12.116 12.116 6.692 0 12.116-5.425 12.116-12.116 0-6.691-5.425-12.116-12.116-12.116z"/><path d="m213.07 451.817c-6.692 0-12.116 5.425-12.116 12.116 0 6.692 5.425 12.116 12.116 12.116s12.116-5.425 12.116-12.116c.001-6.691-5.424-12.116-12.116-12.116z"/><path d="m349.821.47c-3.881-1.44-8.199.541-9.64 4.425s.541 8.2 4.425 9.64c45.159 16.745 75.748 60.667 76.116 109.296.031 4.123 3.383 7.443 7.499 7.443h.058c4.143-.032 7.475-3.415 7.443-7.557-.423-55.752-35.276-104.476-85.901-123.247z"/><path d="m332.584 25.529c-3.882-1.448-8.201.529-9.646 4.411s.529 8.2 4.411 9.646c34.681 12.914 58.223 46.775 58.583 84.26.04 4.117 3.39 7.428 7.498 7.428h.074c4.142-.04 7.467-3.43 7.428-7.572-.419-43.654-27.886-83.107-68.348-98.173z"/><path d="m315.352 50.592c-3.873-1.453-8.2.509-9.656 4.388-1.454 3.878.51 8.202 4.389 9.656 24.205 9.081 40.7 32.885 41.046 59.236.054 4.165 3.486 7.461 7.598 7.401 4.142-.055 7.455-3.456 7.4-7.598-.426-32.48-20.831-61.85-50.777-73.083z"/><path d="m158.423 332.149h36.597c7.408 0 13.435-6.027 13.435-13.435v-24.762c0-7.408-6.026-13.435-13.435-13.435h-36.597c-7.408 0-13.435 6.027-13.435 13.435v24.762c0 7.408 6.027 13.435 13.435 13.435zm1.565-36.631h33.466v21.631h-33.466z"/><path d="m281.152 318.714v-24.762c0-7.408-6.026-13.435-13.435-13.435h-36.597c-7.408 0-13.435 6.027-13.435 13.435v24.762c0 7.408 6.026 13.435 13.435 13.435h36.597c7.409 0 13.435-6.027 13.435-13.435zm-15-1.565h-33.466v-21.631h33.466z"/></g></g></svg>