<svg id="Capa_1" enable-background="new 0 0 512 512" height="512" viewBox="0 0 512 512" width="512" xmlns="http://www.w3.org/2000/svg"><g><g><path d="m287.729 490.817v-23.017c0-7.738-6.273-14.01-14.01-14.01h-38.192c-7.738 0-14.01 6.273-14.01 14.01v23.017c0 7.738 6.273 14.01 14.01 14.01h38.192c7.738 0 14.01-6.273 14.01-14.01z" fill="#5f99d7"/><path d="m276.557 453.79h-28.384c7.738 0 14.01 6.273 14.01 14.01v23.017c0 7.738-6.273 14.01-14.01 14.01h28.384c7.738 0 14.01-6.273 14.01-14.01v-23.017c.001-7.738-6.272-14.01-14.01-14.01z" fill="#3c87d0"/><path d="m96.456 343.922v-129.097c0-92.427 71.571-167.623 159.544-167.623s159.544 75.195 159.544 167.623v129.096h28.575v-129.096c0-108.982-84.39-197.645-188.12-197.645s-188.119 88.664-188.119 197.645v129.096h28.576z" fill="#acacac"/><path d="m256 29.88c-74.377 0-139.28 43.394-173.003 107.344-9.723 23.837-15.116 50.068-15.116 77.6v18.243l28.575 3.412v-21.656c0-92.427 71.571-167.622 159.544-167.622s159.544 75.195 159.544 167.622v23.568l28.575-3.412v-20.156c0-27.539-5.396-53.777-15.124-77.618-33.722-63.942-98.623-107.325-172.995-107.325z" fill="#9c9c9c"/><path d="m420.296 265.85-30.447-2.664-14.402 164.62 33.264 2.91c1.391.122 2.772.179 4.148.209 31.164-.756 57.449-24.826 60.23-56.611l3.609-41.248c2.987-34.136-22.265-64.23-56.402-67.216z" fill="#eb5569"/><path d="m447.224 211.903c3.631-.434 6.341-3.588 6.172-7.241-5.061-109.797-91.658-197.489-197.396-197.489-105.108 0-191.313 86.649-197.309 195.528-.202 3.674 2.516 6.864 6.169 7.3l33.469 3.997c4.035.482 7.638-2.56 7.821-6.619 3.748-83.344 69.348-150.169 149.85-150.169 77.794 0 146.178 63.446 149.863 152.073.169 4.062 3.786 7.107 7.823 6.625z" fill="#5f99d7"/><path d="m152.304 436.287c-8.221.719-15.469-5.362-16.188-13.583l-13.55-154.879c-.719-8.221 5.362-15.469 13.584-16.188 8.221-.719 15.469 5.362 16.188 13.584l13.55 154.879c.719 8.22-5.363 15.467-13.584 16.187z" fill="#f58a97"/><path d="m136.553 427.697-33.264 2.91c-34.136 2.987-64.23-22.265-67.217-56.402l-3.609-41.248c-2.987-34.136 22.265-64.23 56.402-67.217l33.264-2.91z" fill="#eb5569"/><path d="m375.851 251.745c8.221.719 14.303 7.967 13.584 16.188l-13.55 154.879c-.719 8.221-7.967 14.303-16.188 13.583-8.221-.719-14.303-7.967-13.584-16.188l13.55-154.879c.719-8.22 7.966-14.302 16.188-13.583z" fill="#f58a97"/><path d="m423.135 265.85-33.264-2.91-.216 2.464 5.095.446c34.136 2.987 59.388 33.081 56.402 67.217l-3.609 41.248c-2.462 28.139-23.348 50.223-49.728 55.449l10.895.953c34.136 2.986 64.23-22.266 67.217-56.402l3.609-41.248c2.987-34.137-22.265-64.231-56.401-67.217z" fill="#e53950"/><g><path d="m278.744 8.554c81.279 22.891 142.053 98.99 146.269 190.431.168 3.652-2.542 6.807-6.172 7.241l-13.057 1.559c.025.5.059.996.08 1.497.169 4.062 3.786 7.107 7.823 6.625l33.538-4.005c3.631-.433 6.341-3.588 6.172-7.241-4.694-101.808-79.496-184.598-174.653-196.107z" fill="#3c87d0"/></g></g><path d="m451.627 267.295v-48.492c5.475-2.112 9.285-7.397 9.285-13.483 0-.219-.005-.438-.015-.668-2.747-59.573-29.438-115.838-73.229-154.37-3.11-2.736-7.85-2.434-10.585.676-2.736 3.11-2.434 7.849.676 10.585 40.641 35.759 65.457 87.979 68.131 143.316 0 0 1.215-.159-31.229 3.715-.024.003-.048.009-.072.012l-1.252.15c-4.086-91.372-74.905-158.697-157.337-158.697-84.705 0-153.144 70.022-157.323 156.783l-1.318-.157c-.003 0-.005-.001-.008-.001-26.548-3.17-18.964-2.264-31.151-3.72 6.056-105.432 89.333-187.944 189.8-187.944 33.24 0 65.975 9.205 94.666 26.619 3.542 2.151 8.155 1.021 10.303-2.52 2.149-3.541 1.021-8.154-2.52-10.303-31.037-18.838-66.463-28.796-102.449-28.796-108.588 0-198.549 89.003-204.804 202.61-.016.271-.023.541-.023.81 0 6.055 3.77 11.318 9.201 13.45v50.279c-6.476 3.616-12.388 8.277-17.491 13.873-11.715 12.85-18.167 29.47-18.167 46.797 0 4.149-.055 2.443 3.877 47.383.855 9.768 3.676 19.039 8.383 27.558 2.003 3.625 6.566 4.939 10.192 2.937 3.625-2.004 4.94-6.567 2.937-10.192-3.688-6.672-5.898-13.943-6.569-21.61-3.952-45.169-3.82-42.776-3.82-46.075 0-27.944 21.841-51.824 49.797-54.269 5.622-.492 20.272-1.774 25.793-2.257l13.117 149.93c-25.484 2.23-39.156 5.458-56.817-4.271-3.627-1.999-8.19-.677-10.188 2.951-1.999 3.628-.677 8.189 2.951 10.188 22.163 12.208 38.596 8.417 69.157 5.744 4.158 5.135 10.448 8.355 17.434 8.355 6.523 0 12.82-2.762 17.231-8.019 3.854-4.592 5.688-10.41 5.166-16.382l-13.551-154.885c-.522-5.972-3.339-11.383-7.932-15.236-4.593-3.854-10.412-5.686-16.382-5.166-5.972.522-11.383 3.339-15.236 7.932-.945 1.126-1.765 2.327-2.462 3.585l-13.843 1.211v-36.168c5.442-1.898 9.414-6.931 9.687-13.011 3.605-80.196 66.138-143.013 142.362-143.013 73.845 0 138.862 60.395 142.375 144.891.254 6.094 4.222 11.138 9.675 13.04v34.369l-13.844-1.211c-3.511-6.334-9.94-10.838-17.698-11.516-12.321-1.069-23.235 8.073-24.314 20.402l-13.55 154.885c-1.081 12.356 8.043 23.233 20.402 24.314 5.875.511 11.713-1.247 16.382-5.166 1.126-.945 2.142-1.985 3.047-3.103l26.884 2.352c-.301 1.789-3.06 18.175-3.409 20.243-1.262 7.499-7.698 12.942-15.303 12.942h-88.58v-4.009c0-11.861-9.65-21.511-21.511-21.511h-41.032c-11.861 0-21.511 9.65-21.511 21.511v23.018c0 11.861 9.65 21.511 21.511 21.511h41.032c11.861 0 21.511-9.65 21.511-21.511v-4.009h88.58c14.956 0 27.612-10.704 30.095-25.453 3.175-18.858 3.42-20.304 3.791-22.526 32.831-3.024 59.901-29.212 62.874-63.192l3.608-41.25c2.461-28.098-12.243-53.797-35.388-66.765zm-319.882-5.22c1.278-1.523 3.073-2.458 5.054-2.63.221-.02.442-.029.661-.029 1.745 0 3.419.607 4.771 1.742 1.523 1.278 2.458 3.073 2.63 5.053l13.551 154.885c.358 4.088-2.677 7.706-6.766 8.063-4.083.36-7.705-2.677-8.063-6.764l-13.551-154.895c-.171-1.977.437-3.904 1.713-5.425zm-56.372-1.13v-41.8l13.576 1.621v37.775c-4.582.401-8.91 1.092-13.576 2.404zm207.696 229.544c0 3.59-2.921 6.511-6.511 6.511h-41.032c-3.59 0-6.511-2.921-6.511-6.511v-23.018c0-3.59 2.921-6.511 6.511-6.511h41.032c3.59 0 6.511 2.921 6.511 6.511zm139.982-267.81 2.263-.27 11.313-1.351v39.997c-4.74-1.333-9.078-2.011-13.576-2.404zm-62.697 206.589c-4.096-.357-7.125-3.964-6.766-8.063l13.55-154.885c.338-3.87 3.596-6.795 7.41-6.795.216 0 .435.009.654.029 4.097.357 7.126 3.964 6.766 8.063l-6.775 77.442-6.775 77.444c-.359 4.088-3.977 7.125-8.064 6.765zm111.72-96.515-3.608 41.25c-2.621 29.963-29.132 52.207-59.094 49.586l-25.794-2.256 7.272-83.129 5.844-66.801c29.936 2.619 33.835 2.427 44.307 7.239 19.71 9.277 33.157 30.293 31.073 54.111z"/></g></svg>