<svg id="Capa_1" enable-background="new 0 0 512 512" height="512" viewBox="0 0 512 512" width="512" xmlns="http://www.w3.org/2000/svg"><g><g><path d="m413 470.5v-429c0-18.778-15.222-34-34-34h-249c-18.778 0-34 15.222-34 34v429c0 18.778 15.222 34 34 34h249c18.778 0 34-15.222 34-34z" fill="#acacac"/><path d="m382 7.5h-31c18.778 0 34 15.222 34 34v429c0 18.778-15.222 34-34 34h31c18.778 0 34-15.222 34-34v-429c0-18.778-15.222-34-34-34z" fill="#9c9c9c"/><path d="m134.999 445h242.002c1.716 0 3.302-.546 4.605-1.466.244-.424.394-.91.394-1.434v-400.7c0-.524-.15-1.01-.394-1.434-1.303-.92-2.89-1.466-4.606-1.466h-242c-4.418 0-8 3.582-8 8v390.5c0 4.418 3.581 7.999 7.999 8z" fill="#5f99d7"/><path d="m377 38.5h-27.902c1.602 0 2.9 1.298 2.9 2.9v400.7c0 1.602-1.298 2.9-2.9 2.9h27.903c4.418-.001 7.999-3.582 7.999-8v-390.5c0-4.418-3.582-8-8-8z" fill="#3c87d0"/><path d="m254.599 100.724c-25.448.753-45.935 21.93-46.671 48.239l2.822 7.912-2.856 6.887c-.003 2.49-.003 5.562-.003 11.179l2.859 8.059-2.858 6.941v9.226h-.007v20.167h93.452c0-26.76 0-44.236 0-68.909 0-26.995-20.804-48.951-46.738-49.701z" fill="#cecece"/><path d="m255.997 100.688c-3.806 0-7.503.471-11.054 1.335 21.236 5.166 37.05 24.868 37.05 48.401v57.617h22.108c0-6.866 0-51.018 0-57.617 0-27.468-21.537-49.736-48.104-49.736z" fill="#bfbfbf"/><g><path d="m291.905 481.605h-71.81c-4.384 0-7.938-3.554-7.938-7.938s3.554-7.938 7.938-7.938h71.81c4.384 0 7.938 3.554 7.938 7.938s-3.554 7.938-7.938 7.938z" fill="#e2e2e2"/></g><path d="m281.982 219.333h22.119c0-6.964 0-61.969 0-68.909 0-27.468-21.537-49.736-48.104-49.736-3.806 0-7.503.471-11.054 1.335 21.236 5.166 37.05 24.868 37.05 48.401-.013 48.653-.011 33.139-.011 68.909z" fill="#bfbfbf"/><path d="m242.697 221.437h26.599v144.931h-26.599z" fill="#838383"/><path d="m304.325 366.595v-.455c0-7.468-6.055-13.523-13.523-13.523h-72.375c-7.469 0-13.523 6.055-13.523 13.523v.455c0 7.469 6.054 13.523 13.523 13.523h72.375c7.469 0 13.523-6.054 13.523-13.523z" fill="#bfbfbf"/><path d="m293.566 352.617h-27.635c7.469 0 13.523 6.055 13.523 13.523v.455c0 7.469-6.054 13.523-13.523 13.523h27.635c7.469 0 13.523-6.055 13.523-13.523v-.455c0-7.469-6.055-13.523-13.523-13.523z" fill="#acacac"/><path d="m207.893 233.751c0 26.989 20.796 48.942 46.722 49.7 25.926-.758 46.722-22.711 46.722-49.7 0-14.219 0-14.029 0-28.543h-93.443z" fill="#acacac"/><path d="m281.982 205.208v21.542h.011v7.001c0 23.534-15.814 43.235-37.05 48.401 3.551.864 7.248 1.335 11.054 1.335 26.567 0 48.104-22.267 48.104-49.736 0-10.753 0-17.828 0-28.543z" fill="#9c9c9c"/></g><g><path d="m382 0h-252c-22.883 0-41.5 18.617-41.5 41.5v312.429c0 4.142 3.358 7.5 7.5 7.5s7.5-3.358 7.5-7.5v-312.429c0-14.612 11.888-26.5 26.5-26.5h252c14.612 0 26.5 11.888 26.5 26.5v429c0 14.612-11.888 26.5-26.5 26.5h-252c-14.612 0-26.5-11.888-26.5-26.5v-79.571c0-4.142-3.358-7.5-7.5-7.5s-7.5 3.358-7.5 7.5v79.571c0 22.883 18.617 41.5 41.5 41.5h252c22.883 0 41.5-18.617 41.5-41.5v-429c0-22.883-18.617-41.5-41.5-41.5z"/><path d="m385 95.5c4.142 0 7.5-3.358 7.5-7.5v-41.5c0-8.547-6.953-15.5-15.5-15.5h-242c-8.547 0-15.5 6.953-15.5 15.5v390.5c0 8.547 6.953 15.5 15.5 15.5h242c8.547 0 15.5-6.953 15.5-15.5v-314c0-4.142-3.358-7.5-7.5-7.5s-7.5 3.358-7.5 7.5v314c0 .276-.224.5-.5.5h-242c-.276 0-.5-.224-.5-.5v-390.5c0-.276.224-.5.5-.5h242c.276 0 .5.224.5.5v41.5c0 4.142 3.358 7.5 7.5 7.5z"/><path d="m220.095 466.167c-4.142 0-7.5 3.358-7.5 7.5s3.358 7.5 7.5 7.5h71.811c4.142 0 7.5-3.358 7.5-7.5s-3.358-7.5-7.5-7.5z"/><path d="m336.608 233.75v-51.309c0-4.142-3.358-7.5-7.5-7.5s-7.5 3.358-7.5 7.5v15.267h-10v-47.296c0-31.564-24.947-57.244-55.611-57.244-30.664 0-55.611 25.679-55.611 57.244v47.296h-10v-15.267c0-4.142-3.358-7.5-7.5-7.5s-7.5 3.358-7.5 7.5v51.309c0 37.489 24.806 69.923 59.81 79.431v31.953h-16.773c-11.593 0-21.025 9.432-21.025 21.025v.455c0 11.593 9.432 21.025 21.025 21.025h75.15c11.593 0 21.025-9.432 21.025-21.025v-.455c0-11.593-9.432-21.025-21.025-21.025h-16.773v-31.953c35.002-9.508 59.808-41.942 59.808-79.431zm-15-21.042v21.042c0 29.254-18.374 54.742-44.81 63.769v-10.695c20.386-8.497 34.81-29.078 34.81-53.073v-21.042h10zm-106.223 0h81.223v21.042c0 22.931-17.733 41.874-40.014 42.214-22.794.342-41.209-18.836-41.209-42.214zm0-22.767h17.576c4.142 0 7.5-3.358 7.5-7.5s-3.358-7.5-7.5-7.5h-17.576v-11.179h17.576c4.142 0 7.5-3.358 7.5-7.5s-3.358-7.5-7.5-7.5h-17.536c.837-22.531 18.71-40.595 40.571-40.595s39.734 18.064 40.571 40.595h-17.536c-4.142 0-7.5 3.358-7.5 7.5s3.358 7.5 7.5 7.5h17.576v11.179h-17.576c-4.142 0-7.5 3.358-7.5 7.5s3.358 7.5 7.5 7.5h17.576v7.767h-81.223v-7.767zm-25 43.809v-21.042h10v21.042c0 23.995 14.424 44.576 34.81 53.073v10.695c-26.436-9.027-44.81-34.515-44.81-63.768zm109.212 132.409v.455c0 3.322-2.703 6.025-6.025 6.025h-75.15c-3.322 0-6.025-2.703-6.025-6.025v-.455c0-3.322 2.703-6.025 6.025-6.025h75.15c3.322 0 6.025 2.703 6.025 6.025zm-49.402-21.025v-37.903-16.55c3.8.407 7.638.425 11.603 0v16.55 37.903z"/></g></g></svg>