<svg id="Capa_1" enable-background="new 0 0 512 512" height="512" viewBox="0 0 512 512" width="512" xmlns="http://www.w3.org/2000/svg"><g><g><g fill="#bfbfbf"><path d="m250.128 198.073h-22.412c-2.693 0-4.876 2.183-4.876 4.877v66.3h32.165v-66.3c0-2.694-2.184-4.877-4.877-4.877z"/><path d="m186.422 198.073h-22.412c-2.693 0-4.877 2.183-4.877 4.877v66.3h32.166v-66.3c0-2.694-2.184-4.877-4.877-4.877z"/><path d="m122.716 198.073h-22.412c-2.693 0-4.877 2.183-4.877 4.877v66.3h32.165v-66.3c.001-2.694-2.183-4.877-4.876-4.877z"/></g><path d="m252.963 198.073h-22.246c2.693 0 4.877 2.183 4.877 4.877v66.3h22.246v-66.3c-.001-2.694-2.184-4.877-4.877-4.877z" fill="#acacac"/><path d="m189.257 198.073h-22.246c2.693 0 4.877 2.183 4.877 4.877v66.3h22.246v-66.3c-.001-2.694-2.184-4.877-4.877-4.877z" fill="#acacac"/><path d="m125.551 198.073h-22.246c2.693 0 4.877 2.183 4.877 4.877v66.3h22.246v-66.3c-.001-2.694-2.184-4.877-4.877-4.877z" fill="#acacac"/><path d="m466.734 478.084v-224.537c0-14.589-11.827-26.416-26.416-26.416h-381.96c-14.589 0-26.416 11.827-26.416 26.416v224.537c0 14.589 11.827 26.416 26.416 26.416h381.96c14.589 0 26.416-11.827 26.416-26.416z" fill="#5f99d7"/><path d="m443.152 227.131h-25.08c14.589 0 26.416 11.827 26.416 26.416v224.537c0 14.589-11.827 26.416-26.416 26.416h25.08c14.589 0 26.416-11.827 26.416-26.416v-224.537c.001-14.589-11.826-26.416-26.416-26.416z" fill="#3c87d0"/><path d="m180.683 471.696h-102.583c-7.519 0-13.614-6.095-13.614-13.614v-88.969c0-7.519 6.095-13.614 13.614-13.614h102.583z" fill="#98bce5"/><path d="m227.325 308.858h116.42v209.705h-116.42z" fill="#838383" transform="matrix(0 -1 1 0 -128.175 699.245)"/><path d="m64.521 315.193v-42.978c0-6.627 5.373-12 12-12h348.467c6.627 0 12 5.373 12 12v42.978c0 6.627-5.373 12-12 12h-348.467c-6.627 0-12-5.373-12-12z" fill="#bfbfbf"/><path d="m436.989 367.5v92.42c0 6.627-5.373 12-12 12h-150.763v-116.42h150.762c6.628 0 12.001 5.373 12.001 12z" fill="#838383"/><ellipse cx="119.349" cy="413.71" fill="#838383" rx="30.832" ry="32.214"/><path d="m424.989 260.215h-28.346c6.627 0 12 5.373 12 12v42.978c0 6.627-5.373 12-12 12h28.346c6.627 0 12-5.373 12-12v-42.978c0-6.627-5.373-12-12-12z" fill="#bfbfbf"/><g><path d="m477.294 149.726v-112.981c0-16.152-13.094-29.245-29.245-29.245h-143.445c-16.152 0-29.245 13.094-29.245 29.245v112.98c0 16.152 13.094 29.245 29.245 29.245h46.82l17.913 42.156c3.401 8.005 13.411 8.005 16.812 0l17.913-42.156h43.985c16.153.001 29.247-13.093 29.247-29.244z" fill="#b3ceec"/><g><path d="m450.883 7.5h-28.346c16.152 0 29.245 13.094 29.245 29.245v112.98c0 16.152-13.094 29.245-29.245 29.245h28.346c16.152 0 29.245-13.094 29.245-29.245v-112.98c.001-16.151-13.093-29.245-29.245-29.245z" fill="#98bce5"/></g><path d="m414.839 85.226h-19.267c.105-1.097.163-2.207.163-3.331 0-19.146-15.521-34.667-34.667-34.667s-34.667 15.521-34.667 34.667c0 1.124.058 2.234.163 3.331h-1.391c-14.175 0-25.667 11.491-25.667 25.667 0 14.175 11.491 25.667 25.667 25.667h89.667c14.175 0 25.667-11.491 25.667-25.667-.001-14.175-11.493-25.667-25.668-25.667z" fill="#e5eef9"/></g><path d="m122.585 381.515v6.022c8.128 5.853 13.423 15.392 13.423 26.173 0 14.866-10.062 27.376-23.745 31.108 2.71.739 5.559 1.141 8.504 1.141 17.811 0 32.25-14.439 32.25-32.249-.002-17.2-13.468-31.252-30.432-32.195z" fill="#5a5a5a"/></g><g><path d="m76.486 334.693h348.467c10.752 0 19.5-8.748 19.5-19.5v-42.978c0-10.752-8.748-19.5-19.5-19.5h-348.467c-10.752 0-19.5 8.748-19.5 19.5v42.978c0 10.752 8.748 19.5 19.5 19.5zm-4.5-62.478c0-2.481 2.019-4.5 4.5-4.5h348.467c2.481 0 4.5 2.019 4.5 4.5v42.978c0 2.481-2.019 4.5-4.5 4.5h-348.467c-2.481 0-4.5-2.019-4.5-4.5z"/><path d="m85.949 301.641h256.551v.425c0 4.142 3.358 7.5 7.5 7.5s7.5-3.358 7.5-7.5v-.425h57.99c4.142 0 7.5-3.358 7.5-7.5s-3.358-7.5-7.5-7.5h-57.99v-.425c0-4.142-3.358-7.5-7.5-7.5s-7.5 3.358-7.5 7.5v.425h-256.551c-4.142 0-7.5 3.358-7.5 7.5s3.358 7.5 7.5 7.5z"/><path d="m120.766 453.459c21.917 0 39.749-17.832 39.749-39.75 0-20.834-16.731-39.749-39.749-39.749-21.918 0-39.75 17.832-39.75 39.749.001 21.919 17.832 39.75 39.75 39.75zm-6.118-63.731v23.982c0 4.142 3.358 7.5 7.5 7.5s7.5-3.358 7.5-7.5v-23.094c9.27 3.578 15.867 12.578 15.867 23.094 0 13.647-11.103 24.75-24.749 24.75-13.647 0-24.75-11.103-24.75-24.75.001-11.536 7.935-21.252 18.632-23.982z"/><path d="m56.986 459.92c0 10.752 8.748 19.5 19.5 19.5h348.467c10.752 0 19.5-8.748 19.5-19.5v-92.42c0-10.752-8.748-19.5-19.5-19.5-4.143 0-340.717 0-348.467 0-10.752 0-19.5 8.748-19.5 19.5zm147.343 4.5h-16.181v-101.42h16.181zm15-101.42h16.181v101.42h-16.181zm62.362 0h16.181v101.42h-16.181zm81.972 101.42h-17.896v-101.42h17.896zm15-101.42h17.895v101.42h-17.895zm-47.895 101.42h-17.896v-101.42h17.896zm98.686-96.92v92.42c0 2.481-2.019 4.5-4.5 4.5h-13.396v-101.42h13.396c2.481 0 4.5 2.019 4.5 4.5zm-162.763 96.92h-16.181v-101.42h16.181zm-194.705-96.92c0-2.481 2.019-4.5 4.5-4.5h96.662v101.42h-96.662c-2.481 0-4.5-2.019-4.5-4.5z"/><path d="m480.094 104.531c4.142 0 7.5-3.358 7.5-7.5v-60.286c0-20.261-16.484-36.745-36.746-36.745h-146.279c-20.262 0-36.746 16.484-36.746 36.745v112.98c0 20.262 16.484 36.746 36.746 36.746h41.858l14.09 33.16h-95.213v-16.681c0-6.824-5.552-12.376-12.376-12.376h-25.247c-6.824 0-12.376 5.552-12.376 12.376v16.681h-13.706v-16.681c0-6.824-5.552-12.376-12.376-12.376h-25.247c-6.825 0-12.377 5.552-12.377 12.376v16.681h-13.706v-16.681c0-6.824-5.552-12.376-12.376-12.376h-25.247c-6.825 0-12.377 5.552-12.377 12.376v16.681h-15.907v-155.622c0-4.142-3.358-7.5-7.5-7.5s-7.5 3.358-7.5 7.5v155.655c-18.084.705-32.58 15.629-32.58 33.882v224.537c0 18.701 15.215 33.916 33.917 33.916h35.794c4.142 0 7.5-3.358 7.5-7.5s-3.358-7.5-7.5-7.5h-35.794c-10.431 0-18.917-8.486-18.917-18.916v-224.536c0-10.43 8.486-18.916 18.917-18.916h384.794c10.43 0 18.916 8.486 18.916 18.916v224.537c0 10.43-8.486 18.916-18.916 18.916h-314c-4.142 0-7.5 3.358-7.5 7.5s3.358 7.5 7.5 7.5h314c18.701 0 33.916-15.215 33.916-33.916v-224.537c0-18.701-15.215-33.916-33.916-33.916h-48.217l14.09-33.16h41.858c20.262 0 36.746-16.484 36.746-36.746v-17.694c0-4.142-3.358-7.5-7.5-7.5s-7.5 3.358-7.5 7.5v17.694c0 11.991-9.755 21.746-21.746 21.746h-46.82c-3.009 0-5.726 1.798-6.903 4.567l-17.913 42.156c-.815 1.916-2.196 1.909-3.007 0l-17.914-42.156c-1.177-2.769-3.894-4.567-6.903-4.567h-46.82c-11.991 0-21.746-9.755-21.746-21.746v-112.98c0-11.99 9.755-21.745 21.746-21.745h146.279c11.991 0 21.746 9.755 21.746 21.745v60.286c.001 4.142 3.359 7.5 7.501 7.5zm-377.202 115.1v-14.058h20v14.058zm63.706 0v-14.058h20v14.058zm63.706 0v-14.058h20v14.058z"/><path d="m422.542 77.726h-11.809c-2.1-21.302-20.118-37.997-41.962-37.997-22.038 0-40.181 16.992-42.015 38.563-15.375 2.879-27.047 16.402-27.047 32.601 0 18.288 14.878 33.167 33.167 33.167h89.667c18.289 0 33.167-14.878 33.167-33.167-.001-18.289-14.879-33.167-33.168-33.167zm0 51.334h-89.667c-10.017 0-18.167-8.149-18.167-18.167 0-9.1 6.773-18.167 19.558-18.167 4.423 0 7.885-3.812 7.466-8.212-1.538-16.122 11.177-29.785 27.038-29.785 15.862 0 28.575 13.665 27.038 29.785-.419 4.403 3.047 8.212 7.466 8.212h19.267c10.017 0 18.167 8.15 18.167 18.167s-8.149 18.167-18.166 18.167z"/></g></g></svg>