<svg id="Capa_1" enable-background="new 0 0 512 512" height="512" viewBox="0 0 512 512" width="512" xmlns="http://www.w3.org/2000/svg"><g><g><path d="m461.665 7.5h-414.165c-22.091 0-40 17.909-40 40v76.5h494.165v-76.5c0-22.091-17.908-40-40-40z" fill="#9c9c9c"/><path d="m462.835 87.75v-44c0-3.314-2.686-6-6-6h-153.002c-3.314 0-6 2.686-6 6v44c0 3.314 2.686 6 6 6h153.003c3.313 0 5.999-2.686 5.999-6z" fill="#98bce5"/><ellipse cx="72.913" cy="65.75" fill="#cecece" rx="26.583" ry="27.964"/><ellipse cx="162.735" cy="65.75" fill="#cecece" rx="26.583" ry="27.964"/><path d="m261.176 87.75v-44c0-3.314-2.686-6-6-6h-23.328c-3.314 0-6 2.686-6 6v44c0 3.314 2.686 6 6 6h23.328c3.314 0 6-2.686 6-6z" fill="#f07281"/><path d="m501.665 464.5v-340.5h-494.165v340.5c0 22.091 17.909 40 40 40h414.165c22.092 0 40-17.909 40-40z" fill="#bfbfbf"/><g><path d="m257.387 470.75c-8.284 0-15-6.716-15-15v-285c0-8.284 6.716-15 15-15s15 6.716 15 15v285c0 8.284-6.716 15-15 15z" fill="#9c9c9c"/></g><g><path d="m160.307 470.75c-8.284 0-15-6.716-15-15v-285c0-8.284 6.716-15 15-15s15 6.716 15 15v285c0 8.284-6.716 15-15 15z" fill="#9c9c9c"/></g><g><path d="m66 470.75c-8.284 0-15-6.716-15-15v-285c0-8.284 6.716-15 15-15s15 6.716 15 15v285c0 8.284-6.716 15-15 15z" fill="#9c9c9c"/></g><g><path d="m351.693 470.75c-8.284 0-15-6.716-15-15v-285c0-8.284 6.716-15 15-15s15 6.716 15 15v285c0 8.284-6.715 15-15 15z" fill="#9c9c9c"/></g><g><path d="m446 470.75c-8.284 0-15-6.716-15-15v-285c0-8.284 6.716-15 15-15s15 6.716 15 15v285c0 8.284-6.716 15-15 15z" fill="#9c9c9c"/></g><path d="m88 322.333h-44c-4.418 0-8-3.582-8-8v-24c0-4.418 3.582-8 8-8h44c4.418 0 8 3.582 8 8v24c0 4.419-3.582 8-8 8z" fill="#e2e2e2"/><path d="m182.307 237.294h-44c-4.418 0-8-3.582-8-8v-24c0-4.418 3.582-8 8-8h44c4.418 0 8 3.582 8 8v24c0 4.418-3.582 8-8 8z" fill="#e2e2e2"/><path d="m279.387 379.026h-44c-4.418 0-8-3.582-8-8v-24c0-4.418 3.582-8 8-8h44c4.418 0 8 3.582 8 8v24c0 4.419-3.582 8-8 8z" fill="#e2e2e2"/><path d="m373.693 237.294h-44c-4.418 0-8-3.582-8-8v-24c0-4.418 3.582-8 8-8h44c4.418 0 8 3.582 8 8v24c0 4.418-3.581 8-8 8z" fill="#e2e2e2"/><path d="m468 293.987h-44c-4.418 0-8-3.582-8-8v-24c0-4.418 3.582-8 8-8h44c4.418 0 8 3.582 8 8v24c0 4.418-3.582 8-8 8z" fill="#e2e2e2"/><path d="m464.5 7.5h-28.5c22.091 0 40 17.909 40 40v76.5h28.5v-76.5c0-22.091-17.909-40-40-40z" fill="#838383"/><path d="m476 124v340.5c0 22.091-17.909 40-40 40h28.5c22.091 0 40-17.909 40-40v-340.5z" fill="#acacac"/><g fill="#cecece"><path d="m65.323 282.333c4.418 0 8 3.582 8 8v24c0 4.418-3.581 7.999-7.999 8h22.676c4.418 0 8-3.582 8-8v-24c0-4.418-3.582-8-8-8z"/><path d="m182.307 197.294h-22.677c4.418 0 8 3.582 8 8v24c0 4.418-3.582 8-8 8h22.677c4.418 0 8-3.582 8-8v-24c0-4.418-3.582-8-8-8z"/><path d="m279.387 339.026h-22.677c4.418 0 8 3.582 8 8v24c0 4.418-3.582 8-8 8h22.677c4.418 0 8-3.582 8-8v-24c0-4.418-3.582-8-8-8z"/><path d="m373.693 197.294h-22.677c4.418 0 8 3.582 8 8v24c0 4.418-3.582 8-8 8h22.677c4.418 0 8-3.582 8-8v-24c0-4.418-3.581-8-8-8z"/><path d="m468 253.987h-22.677c4.418 0 8 3.582 8 8v24c0 4.418-3.582 8-8 8h22.677c4.418 0 8-3.582 8-8v-24c0-4.418-3.582-8-8-8z"/></g><path d="m74.33 37.75c-4.037 0-7.871.861-11.339 2.399 9.813 4.353 16.661 14.174 16.661 25.601s-6.848 21.248-16.661 25.601c3.467 1.538 7.301 2.399 11.339 2.399 15.464 0 28-12.536 28-28s-12.536-28-28-28z" fill="#bfbfbf"/><path d="m164.152 37.75c-4.037 0-7.871.861-11.339 2.399 9.813 4.353 16.661 14.174 16.661 25.601s-6.848 21.248-16.661 25.601c3.467 1.538 7.301 2.399 11.339 2.399 15.464 0 28-12.536 28-28s-12.536-28-28-28z" fill="#bfbfbf"/><path d="m258.011 37.75h-22.677c3.314 0 6 2.686 6 6v44c0 3.314-2.686 6-6 6h22.677c3.314 0 6-2.686 6-6v-44c0-3.314-2.687-6-6-6z" fill="#eb5569"/><path d="m459.67 37.75h-22.677c3.314 0 6 2.686 6 6v44c0 3.314-2.686 6-6 6h22.677c3.314 0 6-2.686 6-6v-44c0-3.314-2.686-6-6-6z" fill="#7bacdf"/></g><g><path d="m464.5 0h-14.643c-4.143 0-7.5 3.358-7.5 7.5s3.357 7.5 7.5 7.5h14.643c17.921 0 32.5 14.58 32.5 32.5v69h-482v-69c0-17.92 14.579-32.5 32.5-32.5h367.357c4.143 0 7.5-3.358 7.5-7.5s-3.357-7.5-7.5-7.5h-367.357c-26.191 0-47.5 21.309-47.5 47.5v311.857c0 4.142 3.357 7.5 7.5 7.5s7.5-3.358 7.5-7.5v-227.857h482v333c0 17.92-14.579 32.5-32.5 32.5h-417c-17.921 0-32.5-14.58-32.5-32.5v-70.143c0-4.142-3.357-7.5-7.5-7.5s-7.5 3.358-7.5 7.5v70.143c0 26.191 21.309 47.5 47.5 47.5h417c26.191 0 47.5-21.309 47.5-47.5 0-13.164 0-407.617 0-417 0-26.191-21.309-47.5-47.5-47.5z"/><path d="m66 148.25c-12.406 0-22.5 10.093-22.5 22.5v104.109c-8.314.267-15 7.097-15 15.475v24c0 8.378 6.686 15.208 15 15.475v125.941c0 12.407 10.094 22.5 22.5 22.5s22.5-10.093 22.5-22.5v-125.942c8.314-.267 15-7.097 15-15.475v-24c0-8.378-6.686-15.208-15-15.475v-104.108c0-12.407-10.094-22.5-22.5-22.5zm-7.5 22.5c0-4.136 3.364-7.5 7.5-7.5s7.5 3.364 7.5 7.5v104.083h-15zm15 285c0 4.136-3.364 7.5-7.5 7.5s-7.5-3.364-7.5-7.5v-125.917h15zm15-141.417c0 .276-.225.5-.5.5-19.038 0-23.938 0-44 0-.275 0-.5-.224-.5-.5 0-25.091-.318-24.5.5-24.5h44c.275 0 .5.224.5.5z"/><path d="m160.307 148.25c-12.406 0-22.5 10.093-22.5 22.5v19.069c-8.314.267-15 7.097-15 15.475v24c0 8.378 6.686 15.208 15 15.475v210.981c0 12.407 10.094 22.5 22.5 22.5s22.5-10.093 22.5-22.5v-210.981c8.314-.267 15-7.097 15-15.475v-24c0-8.378-6.686-15.208-15-15.475v-19.069c0-12.407-10.094-22.5-22.5-22.5zm-7.5 22.5c0-4.136 3.364-7.5 7.5-7.5s7.5 3.364 7.5 7.5v19.044h-15zm15 285c0 4.136-3.364 7.5-7.5 7.5s-7.5-3.364-7.5-7.5v-210.956h15zm15-226.456c0 .832 1.648.5-44.5.5-.275 0-.5-.224-.5-.5v-24c0-.276.225-.5.5-.5h44c.275 0 .5.224.5.5z"/><path d="m257.387 148.25c-12.406 0-22.5 10.093-22.5 22.5v160.802c-8.314.267-15 7.097-15 15.475v24c0 8.378 6.686 15.208 15 15.475v69.249c0 12.407 10.094 22.5 22.5 22.5s22.5-10.093 22.5-22.5v-69.249c8.314-.267 15-7.097 15-15.475v-24c0-8.378-6.686-15.208-15-15.475v-160.802c0-12.407-10.094-22.5-22.5-22.5zm-7.5 22.5c0-4.136 3.364-7.5 7.5-7.5s7.5 3.364 7.5 7.5v160.776h-15zm15 285c0 4.136-3.364 7.5-7.5 7.5s-7.5-3.364-7.5-7.5v-69.224h15zm15-84.724c0 .276-.225.5-.5.5-19.038 0-23.938 0-44 0-.275 0-.5-.224-.5-.5v-24c0-.276.225-.5.5-.5h44c.275 0 .5.224.5.5z"/><path d="m351.693 148.25c-12.406 0-22.5 10.093-22.5 22.5v19.069c-8.314.267-15 7.097-15 15.475v24c0 8.378 6.686 15.208 15 15.475v210.981c0 12.407 10.094 22.5 22.5 22.5s22.5-10.093 22.5-22.5v-210.981c8.314-.267 15-7.097 15-15.475v-24c0-8.378-6.686-15.208-15-15.475v-19.069c0-12.407-10.093-22.5-22.5-22.5zm-7.5 22.5c0-4.136 3.364-7.5 7.5-7.5s7.5 3.364 7.5 7.5v19.044h-15zm15 285c0 4.136-3.364 7.5-7.5 7.5s-7.5-3.364-7.5-7.5v-210.956h15zm15-226.456c0 .276-.225.5-.5.5-19.038 0-23.938 0-44 0-.275 0-.5-.224-.5-.5v-24c0-.276.225-.5.5-.5h44c.275 0 .5.224.5.5z"/><path d="m446 148.25c-12.406 0-22.5 10.093-22.5 22.5v75.762c-8.314.267-15 7.097-15 15.475v24c0 8.378 6.686 15.208 15 15.475v154.288c0 12.407 10.094 22.5 22.5 22.5s22.5-10.093 22.5-22.5v-154.289c8.314-.267 15-7.097 15-15.475v-24c0-8.378-6.686-15.208-15-15.475v-75.761c0-12.407-10.094-22.5-22.5-22.5zm-7.5 22.5c0-4.136 3.364-7.5 7.5-7.5s7.5 3.364 7.5 7.5v75.737h-15zm15 285c0 4.135-3.364 7.5-7.5 7.5s-7.5-3.365-7.5-7.5v-154.263h15zm15-169.763c0 .276-.225.5-.5.5-19.038 0-23.938 0-44 0-.275 0-.5-.224-.5-.5v-24c0-.276.225-.5.5-.5h44c.275 0 .5.224.5.5z"/><path d="m290.333 43.75v44c0 7.444 6.056 13.5 13.5 13.5h155.837c7.444 0 13.5-6.056 13.5-13.5v-44c0-7.444-6.056-13.5-13.5-13.5h-155.837c-7.444 0-13.5 6.056-13.5 13.5zm15 1.5h152.837v41h-152.837z"/><path d="m38.83 65.75c0 19.575 15.925 35.5 35.5 35.5s35.5-15.925 35.5-35.5-15.925-35.5-35.5-35.5-35.5 15.925-35.5 35.5zm56 0c0 11.304-9.196 20.5-20.5 20.5s-20.5-9.196-20.5-20.5 9.196-20.5 20.5-20.5 20.5 9.196 20.5 20.5z"/><path d="m128.652 65.75c0 19.575 15.925 35.5 35.5 35.5s35.5-15.925 35.5-35.5-15.925-35.5-35.5-35.5-35.5 15.925-35.5 35.5zm56 0c0 11.304-9.196 20.5-20.5 20.5s-20.5-9.196-20.5-20.5 9.196-20.5 20.5-20.5 20.5 9.196 20.5 20.5z"/><path d="m231.848 30.25c-7.444 0-13.5 6.056-13.5 13.5v44c0 7.444 6.056 13.5 13.5 13.5h26.163c7.444 0 13.5-6.056 13.5-13.5v-44c0-7.444-6.056-13.5-13.5-13.5zm24.663 56h-23.163v-41h23.163z"/></g></g></svg>