<svg id="Capa_1" enable-background="new 0 0 512 512" height="512" viewBox="0 0 512 512" width="512" xmlns="http://www.w3.org/2000/svg"><g><g><path d="m501.665 401v-290c0-11.046-8.954-20-20-20h-454.165c-11.046 0-20 8.954-20 20v290c0 11.046 8.954 20 20 20h454.165c11.046 0 20-8.954 20-20z" fill="#acacac"/><path d="m47.5 311.667v-170.667c0-5.523 4.477-10 10-10h397c5.523 0 10 4.477 10 10v170.667c0 5.523-4.477 10-10 10h-397c-5.523 0-10-4.477-10-10z" fill="#eb5569"/><path d="m221.116 110.365h69.767v231.937h-69.767z" fill="#838383" transform="matrix(0 1 -1 0 482.334 -29.667)"/><path d="m368.049 362.333h-224.098c-3.351 0-6.424 1.861-7.976 4.831l-28.142 53.836h296.333l-28.142-53.836c-1.551-2.969-4.624-4.831-7.975-4.831z" fill="#9c9c9c"/><path d="m277.085 226.334c0 12.311 2.358 24.08 6.644 34.883h88.24v-69.767h-88.239c-4.287 10.803-6.645 22.573-6.645 34.884z" fill="#acacac"/><path d="m140.032 261.217h88.24c4.286-10.803 6.644-22.572 6.644-34.883s-2.358-24.081-6.644-34.884h-88.239v69.767z" fill="#acacac"/><circle cx="458.831" cy="371.082" fill="#cecece" r="14"/><circle cx="53.169" cy="371.082" fill="#cecece" r="14"/><circle cx="140.032" cy="226.333" fill="#e5eef9" r="34.884"/><circle cx="371.968" cy="226.333" fill="#e5eef9" r="34.884"/><path d="m484.5 91h-28.346c11.046 0 20 8.954 20 20v290c0 11.046-8.954 20-20 20h28.346c11.046 0 20-8.954 20-20v-290c0-11.046-8.954-20-20-20z" fill="#9c9c9c"/><path d="m376.025 367.164c-1.552-2.969-4.625-4.831-7.976-4.831h-28.346c3.351 0 6.424 1.861 7.976 4.831l28.141 53.836h28.346z" fill="#838383"/><g fill="#cecece"><path d="m140.032 191.45c-3.971 0-7.782.673-11.339 1.895 13.698 4.707 23.545 17.694 23.545 32.989s-9.847 28.281-23.545 32.989c3.556 1.222 7.368 1.895 11.339 1.895 19.266 0 34.884-15.618 34.884-34.884s-15.619-34.884-34.884-34.884z"/><path d="m396.635 201.667c-9.74-9.74-23.805-12.512-36.012-8.324 13.701 4.705 23.552 17.694 23.552 32.991s-9.851 28.285-23.552 32.991c12.206 4.187 26.272 1.415 36.012-8.324 13.623-13.624 13.623-35.711 0-49.334z"/></g></g><g><path d="m484.5 83.5h-457c-15.164 0-27.5 12.336-27.5 27.5v167.429c0 4.142 3.357 7.5 7.5 7.5s7.5-3.358 7.5-7.5v-167.429c0-6.893 5.607-12.5 12.5-12.5h457c6.893 0 12.5 5.607 12.5 12.5v290c0 6.893-5.607 12.5-12.5 12.5h-75.791l-26.038-49.812c-2.856-5.462-8.46-8.855-14.623-8.855h-224.097c-6.163 0-11.767 3.393-14.623 8.856l-26.037 49.811h-75.791c-6.893 0-12.5-5.607-12.5-12.5v-87.571c0-4.142-3.357-7.5-7.5-7.5s-7.5 3.358-7.5 7.5v87.571c0 15.164 12.336 27.5 27.5 27.5h457c15.164 0 27.5-12.336 27.5-27.5v-290c0-15.164-12.336-27.5-27.5-27.5zm-364.283 330 22.404-42.86c.26-.497.77-.806 1.33-.806h224.098c.561 0 1.07.309 1.33.805l22.404 42.861z"/><path d="m454.5 123.5h-397c-9.649 0-17.5 7.851-17.5 17.5v170.667c0 9.649 7.851 17.5 17.5 17.5h397c9.649 0 17.5-7.851 17.5-17.5v-112.762c0-4.142-3.357-7.5-7.5-7.5s-7.5 3.358-7.5 7.5v112.761c0 1.378-1.121 2.5-2.5 2.5h-397c-1.379 0-2.5-1.122-2.5-2.5v-170.666c0-1.378 1.121-2.5 2.5-2.5h397c1.379 0 2.5 1.122 2.5 2.5v22.905c0 4.142 3.357 7.5 7.5 7.5s7.5-3.358 7.5-7.5v-22.905c0-9.649-7.851-17.5-17.5-17.5z"/><path d="m437.331 371.082c0 11.855 9.645 21.5 21.5 21.5s21.5-9.645 21.5-21.5-9.645-21.5-21.5-21.5-21.5 9.645-21.5 21.5zm28 0c0 3.584-2.916 6.5-6.5 6.5s-6.5-2.916-6.5-6.5 2.916-6.5 6.5-6.5 6.5 2.916 6.5 6.5z"/><path d="m31.669 371.082c0 11.855 9.645 21.5 21.5 21.5s21.5-9.645 21.5-21.5-9.645-21.5-21.5-21.5-21.5 9.645-21.5 21.5zm21.5-6.5c3.584 0 6.5 2.916 6.5 6.5s-2.916 6.5-6.5 6.5-6.5-2.916-6.5-6.5 2.916-6.5 6.5-6.5z"/><path d="m371.969 183.95h-.01-.002-88.229-55.457-88.23-.01c-23.368 0-42.383 19.012-42.383 42.383 0 23.367 19.009 42.383 42.383 42.383h.008 231.922.008c23.367 0 42.383-19.01 42.383-42.383 0-23.368-19.011-42.383-42.383-42.383zm-2.029 69.684c-14.252-1.048-25.355-12.973-25.355-27.3 0-14.778 11.82-27.012 26.726-27.367 15.395-.365 28.041 12.032 28.041 27.367 0 15.796-13.428 28.474-29.412 27.3zm-96.616-54.684c-2.471 8.878-3.739 18.046-3.739 27.384 0 9.337 1.269 18.505 3.739 27.383h-34.648c2.47-8.878 3.739-18.046 3.739-27.383 0-9.338-1.268-18.506-3.739-27.384zm-133.292 54.767c-15.1 0-27.384-12.285-27.384-27.383s12.283-27.383 27.384-27.383 27.383 12.296 27.383 27.383c0 15.089-12.286 27.383-27.383 27.383zm32.324 0c6.284-7.412 10.059-17.076 10.059-27.383 0-10.246-3.734-19.927-10.06-27.383h50.666c2.917 8.808 4.394 17.997 4.394 27.384s-1.477 18.575-4.394 27.383h-50.665zm116.623 0c-2.917-8.808-4.394-17.996-4.394-27.383s1.477-18.576 4.394-27.384h50.666c-6.485 7.644-10.06 17.385-10.06 27.383 0 10.277 3.742 19.933 10.059 27.383h-50.665z"/></g></g></svg>