<svg id="Capa_1" enable-background="new 0 0 512 512" height="512" viewBox="0 0 512 512" width="512" xmlns="http://www.w3.org/2000/svg"><g><g><ellipse cx="338.833" cy="186" fill="#9c9c9c" rx="162.833" ry="164.232"/><circle cx="340.25" cy="186" fill="#bfbfbf" r="82.713"/><circle cx="340.25" cy="186" fill="#e2e2e2" r="36.505"/><path d="m340.25 21.75c-5.259 0-10.458.258-15.591.741 83.399 7.854 148.66 78.055 148.66 163.509s-65.26 155.655-148.659 163.509c5.133.483 10.331.741 15.591.741 90.713 0 164.25-73.537 164.25-164.25s-73.538-164.25-164.251-164.25z" fill="#838383"/><path d="m366.182 471.579v-127.916c0-4.952-1.896-9.701-5.272-13.202l-20.859-21.636c-1.688-1.751-2.636-4.125-2.636-6.601v-134.058c0-10.312-8.059-18.671-18-18.671h-293.915c-9.941 0-18 8.359-18 18.671v303.413c0 10.312 8.059 18.671 18 18.671h222.665 2.835 86.415 2.835 7.932c9.941 0 18-8.359 18-18.671z" fill="#eb5569"/><path d="m363.745 330.461-20.859-21.636c-1.688-1.751-2.636-4.125-2.636-6.601v-134.058c0-10.312-8.059-18.671-18-18.671h-31.181c9.941 0 18 8.359 18 18.671v134.058c0 2.476.948 4.85 2.636 6.601l20.859 21.636c3.376 3.501 5.272 8.25 5.272 13.202v127.916c0 10.312-8.059 18.671-18 18.671h20.414 10.767c9.941 0 18-8.359 18-18.671v-127.916c0-4.952-1.897-9.701-5.272-13.202z" fill="#e53950"/><g fill="#f8a5af"><ellipse cx="88.9" cy="407.337" rx="39.276" ry="27.472" transform="matrix(.934 -.357 .357 .934 -139.488 58.531)"/><ellipse cx="235.665" cy="385.454" rx="39.276" ry="27.472" transform="matrix(.934 -.357 .357 .934 -122.02 109.457)"/><path d="m126.92 298.939 146.764-23.945v-48.142l-146.764 23.945z"/></g></g><g><path d="m281.184 274.993v-48.142c0-4.601-4.123-8.146-8.708-7.402l-146.765 23.945c-3.628.592-6.292 3.727-6.292 7.402v48.142 76.849c-12.229-6.884-28.176-6.383-41.508-1.668-23.975 8.48-39.255 29.858-33.161 48.623 6.29 19.377 31.415 26.202 55.139 17.812 19.886-7.033 33.891-22.991 34.469-39.077.036-.299.06-.601.06-.909v-95.253l131.765-21.498v70.089c-12.226-6.881-28.17-6.384-41.508-1.667-23.973 8.479-39.255 29.854-33.161 48.622 6.29 19.377 31.415 26.202 55.139 17.812 20.312-7.184 34.497-23.678 34.497-40.109.001-2.766.034 19.548.034-103.571zm-186.296 151.419c-16.909 5.98-32.731 1.37-35.871-8.301-3.399-10.461 7.895-24.192 23.895-29.851 18.518-6.548 36.474-.488 36.474 12.184.001 9.865-10.532 21.029-24.498 25.968zm39.531-136.297v-32.942l131.765-21.498v32.942zm107.234 114.414c-16.909 5.98-32.731 1.37-35.871-8.301-3.399-10.462 7.895-24.191 23.895-29.85 18.462-6.529 36.474-.527 36.474 12.183 0 9.865-10.532 21.029-24.498 25.968z"/><path d="m458.335 61.284c-3.008-2.85-7.755-2.721-10.603.288-2.848 3.007-2.719 7.754.288 10.603 31.585 29.915 48.98 70.339 48.98 113.825 0 73.347-50.37 136.233-120.949 152.646-1.894-9.992-6.157-12.612-27.765-35.024-.341-.354-.536-.863-.536-1.397v-26.325c46.247-3.825 82.713-42.681 82.713-89.899 0-49.743-40.469-90.213-90.213-90.213-32.981 0-62.715 17.592-78.708 46.209h-71.786c19.364-66.849 79.96-112.747 150.494-112.747 28.745 0 56.851 7.847 81.279 22.691 3.541 2.153 8.153 1.025 10.304-2.515 2.151-3.539 1.025-8.152-2.514-10.304-26.777-16.271-57.576-24.872-89.069-24.872-78.523 0-146.284 53.176-166.042 127.746h-148.708c-14.061 0-25.5 11.74-25.5 26.17v211.563c0 4.143 3.358 7.5 7.5 7.5s7.5-3.357 7.5-7.5v-211.563c0-6.159 4.71-11.17 10.5-11.17h296.75c5.696 0 10.5 4.948 10.5 11.17v134.058c0 4.444 1.682 8.638 4.736 11.807l20.858 21.636c3.625 3.76 3.172 7.79 3.172 12.069v123.844c0 6.159-4.71 11.171-10.5 11.171h-325.516c-5.79 0-10.5-5.012-10.5-11.171v-56.85c0-4.143-3.358-7.5-7.5-7.5s-7.5 3.357-7.5 7.5v56.85c0 14.431 11.439 26.171 25.5 26.171h325.517c14.061 0 25.5-11.74 25.5-26.171v-117.682c78.464-16.903 135.483-86.559 135.483-167.898 0-47.647-19.059-91.939-53.665-124.716zm-110.585 106.882c0-3.525-.701-7.191-2.234-10.691 13.488 2.484 23.739 14.331 23.739 28.525 0 13.4-9.135 24.708-21.504 28.021v-45.855zm-7.5-57.379c41.473 0 75.213 33.74 75.213 75.213 0 38.941-29.749 71.065-67.713 74.842v-31.489c20.702-3.572 36.504-21.645 36.504-43.352 0-24.264-19.74-44.004-44.004-44.004-3.478 0-6.927.416-10.29 1.226-5.011-1.635-3.646-1.226-50.689-1.226 14.013-19.511 36.421-31.21 60.979-31.21z"/></g></g></svg>