<svg id="Capa_1" enable-background="new 0 0 512 512" height="512" viewBox="0 0 512 512" width="512" xmlns="http://www.w3.org/2000/svg"><g><g><ellipse cx="254.583" cy="256" fill="#b3ceec" rx="247.083" ry="248.482"/><path d="m322.264 345.264h-132.528c-12.703 0-23-10.297-23-23v-132.528c0-12.703 10.297-23 23-23h132.529c12.703 0 23 10.297 23 23v132.529c-.001 12.702-10.298 22.999-23.001 22.999z" fill="#838383"/><path d="m256 7.5c-5.718 0-11.386.211-17.008.591 129.308 8.742 231.492 116.384 231.492 247.909s-102.184 239.167-231.492 247.909c5.622.38 11.29.591 17.008.591 137.243 0 248.5-111.257 248.5-248.5s-111.257-248.5-248.5-248.5z" fill="#98bce5"/></g><g><path d="m510.512 228.241c-.001-.002-.001-.004-.001-.006-13.958-129.356-123.552-228.235-254.511-228.235-141.491 0-256 114.497-256 256 0 15.831 1.456 31.684 4.328 47.117.758 4.071 4.671 6.761 8.746 6.001 4.072-.758 6.759-4.673 6.001-8.745-2.704-14.531-4.075-29.46-4.075-44.373 0-132.888 108.112-241 241-241 123.382 0 226.387 92.365 239.597 214.84.001.004.001.007.001.011.93 8.624 1.402 17.421 1.402 26.149 0 132.888-108.112 241-241 241-103.5 0-195.28-65.836-228.38-163.824-1.326-3.925-5.581-6.031-9.506-4.705-3.924 1.325-6.031 5.581-4.705 9.506 35.161 104.088 132.651 174.023 242.591 174.023 141.491 0 256-114.497 256-256 0-9.263-.501-18.603-1.488-27.759z"/><path d="m345.265 216.221c4.143 0 7.5-3.357 7.5-7.5v-18.985c0-16.817-13.683-30.5-30.5-30.5h-132.529c-16.818 0-30.5 13.683-30.5 30.5v132.529c0 16.817 13.682 30.5 30.5 30.5h132.529c16.817 0 30.5-13.683 30.5-30.5v-78.544c0-4.143-3.357-7.5-7.5-7.5s-7.5 3.357-7.5 7.5v78.544c0 8.547-6.953 15.5-15.5 15.5h-132.529c-8.547 0-15.5-6.953-15.5-15.5v-132.53c0-8.547 6.953-15.5 15.5-15.5h132.529c8.547 0 15.5 6.953 15.5 15.5v18.985c0 4.143 3.357 7.501 7.5 7.501z"/></g></g></svg>