<svg id="Capa_1" enable-background="new 0 0 511.967 511.967" height="512" viewBox="0 0 511.967 511.967" width="512" xmlns="http://www.w3.org/2000/svg"><g><g><path d="m405.225 22.732-42.769 42.769-21.372 21.372 13.163 13.162 75.204-75.203-2.347-14.999-12.184 5.971c-3.592 1.76-6.868 4.101-9.695 6.928z" fill="#fec165"/><path d="m63.586 355.526 6.767 8.505 4.13 3.595c7.486 6.517 18.648 6.458 26.066-.137l41.098-36.541c3.798-3.377 5.193-8.706 3.537-13.512l-1.399-4.057-18.308-18.308c-4.066-4.066-10.658-4.066-14.724 0l-42.863 42.864c-4.76 4.761-6.188 11.582-4.304 17.591z" fill="#bfbfbf"/><path d="m154.926 324.52-11.141-11.141c.507 3.182-.456 6.553-2.909 9.006l-42.863 42.863c-6.822 6.823-17.884 6.823-24.706 0l-9.722-9.722c.816 2.602 2.243 5.053 4.305 7.115l19.466 19.466c6.822 6.823 17.884 6.823 24.706 0l42.863-42.863c4.067-4.065 4.067-10.657.001-14.724z" fill="#acacac"/><path d="m441.137 14.071-5.21-5.21c-1.31-1.31-3.308-1.642-4.971-.827l-7.776 3.811-4.91 10.019c-1.719 3.509-4.007 6.709-6.77 9.472l-41.789 41.789-20.881 20.881-8.292-8.292-1.405 1.405 23.747 23.747 20.882-20.882 41.789-41.789c2.763-2.763 5.05-5.963 6.769-9.472l9.645-19.681c.814-1.663.482-3.662-.828-4.971z" fill="#fdb441"/><path d="m300.749 157.407 16.125-16.125 9.638-1.112.877-9.403 12.226-12.226 8.87-1.335 1.645-9.179 12.226-12.227 9.258-1.559 1.256-8.956 15.386-16.864-19.81-19.809c-1.692-1.693-4.436-1.693-6.128 0l-220.615 220.616c-1.692 1.692-1.692 4.436 0 6.128l27.84 27.84 137.321-137.321c-3.69-5.101-6.115-8.468-6.115-8.468z" fill="#fece85"/><path d="m401.386 81.551-12.884-12.885c-.169.788-.553 1.541-1.165 2.153l-220.616 220.616c-1.692 1.692-4.436 1.692-6.128 0l-20.055-20.055c-.298 1.39.086 2.895 1.165 3.975l32.939 32.939c1.692 1.693 4.436 1.693 6.128 0l151.558-151.558v-8.966l10.515-1.548 12.226-12.226.85-10.05 9.665-.465 12.226-12.226.908-9.083 9.607-1.432 13.06-13.061c1.693-1.692 1.693-4.436.001-6.128z" fill="#fec165"/><path d="m128.452 348.892c10.79 0 21.155-4.207 28.893-11.728l158.657-154.204-2.025-12.325-46.634-46.634c-2.71-2.71-7.103-2.71-9.813 0l-153.403 153.402c-15.148 15.148-18.147 37.832-9.022 55.978l6.159 5.351c7.542 6.552 17.197 10.16 27.188 10.16z" fill="#9c9c9c"/><path d="m325.997 182.655-12.02-12.021c.017 1.799-.657 3.602-2.029 4.974l-153.403 153.403c-17.312 17.312-44.467 18.761-63.44 4.37 2.264 4.503 5.263 8.731 9.022 12.49 18.907 18.907 49.561 18.907 68.468 0l153.402-153.402c2.71-2.711 2.71-7.104 0-9.814z" fill="#838383"/></g><path d="m480.794 266.949-33.368-33.369c-16.779-16.779-44.084-16.777-60.865 0l-247.017 247.018c-21.833 21.836-57.363 21.836-79.198-.001-21.835-21.835-21.835-57.362 0-79.197l17.775-17.775 3.858 3.858c4.87 4.869 11.267 7.304 17.663 7.304s12.792-2.435 17.662-7.304l19.897-19.897c15.902.31 30.196-5.891 40.661-16.355l13.271-13.271c2.929-2.93 2.929-7.678 0-10.607-2.93-2.928-7.678-2.928-10.607 0l-13.271 13.271c-7.73 7.731-18.01 11.989-28.944 11.989-11.193 0-22.266-4.623-30.246-13.354-5.861-6.432-9.759-14.862-10.536-24.143 0-.002-.001-.004-.001-.006-1.021-12.397 3.444-23.982 11.838-32.376l153.073-153.075c.884.884 8.223 8.224 57.892 57.891l-115.056 115.053c-2.929 2.93-2.929 7.678 0 10.607 2.93 2.928 7.678 2.928 10.607 0l115.449-115.449c5.643-5.645 5.644-14.778 0-20.424l-4.494-4.494 79.915-79.916c4.376-4.377 4.594-11.351.67-15.997l23.505-23.505c3.354-3.354 6.113-7.216 8.203-11.479l9.646-19.685c.792-1.612 1.211-3.414 1.211-5.211 0-3.16-1.23-6.132-3.467-8.372-5.102-5.102-7.611-8.678-13.582-8.678-1.798 0-3.601.419-5.207 1.208-21.618 10.595-20.529 10.025-22.17 10.967-3.593 2.061-4.835 6.644-2.774 10.237 2.061 3.595 6.645 4.836 10.237 2.774 1.105-.634.156-.143 19.277-9.514l2.014 2.014-8.653 17.657c-1.36 2.776-3.158 5.29-5.342 7.474l-23.469 23.47-13.151-13.151 5.353-5.352c2.929-2.93 2.929-7.678 0-10.607-2.93-2.928-7.678-2.928-10.607 0l-5.387 5.387c-2.133-1.805-4.803-2.794-7.629-2.794-3.162 0-6.135 1.231-8.369 3.466-10.144 10.144-73.592 73.591-79.916 79.915l-4.494-4.494c-5.645-5.643-14.779-5.644-20.425 0l-153.467 153.469c-10.686 10.685-16.655 25.059-16.356 40.66l-19.898 19.898c-9.738 9.739-9.738 25.585 0 35.324l5.009 5.009-17.775 17.775c-27.683 27.684-27.683 72.729.001 100.413 13.842 13.841 32.023 20.762 50.206 20.762 18.182 0 36.364-6.921 50.206-20.762l247.016-247.018c10.932-10.931 28.721-10.932 39.652-.001l33.367 33.369c2.929 2.927 7.677 2.929 10.607 0 2.929-2.929 2.929-7.677 0-10.606zm-159.506-166.727 28.478 28.479-12.143 12.144-28.478-28.479zm22.75-22.75 28.478 28.478-12.143 12.144-28.478-28.478zm21.393-21.392c4.474 4.474-10.344-10.343 28.478 28.478l-10.785 10.785-28.478-28.478zm-66.894 66.893 28.478 28.479-10.784 10.784-28.479-28.479zm-225.425 220.318 12.575-12.576c2.878 7.973 7.558 15.003 13.071 20.515 5.561 5.561 12.624 10.221 20.515 13.07l-12.576 12.575c-3.888 3.89-10.221 3.892-14.11 0l-19.475-19.475c-3.89-3.889-3.89-10.219 0-14.109z"/></g></svg>