<svg id="Capa_1" enable-background="new 0 0 512 512" height="512" viewBox="0 0 512 512" width="512" xmlns="http://www.w3.org/2000/svg"><g><g><g><path d="m440.85 418.091h-242.494c-6.903 0-12.5-5.597-12.5-12.5s5.597-12.5 12.5-12.5h242.494c20.675 0 37.494-16.819 37.494-37.494v-192.172c0-20.674-16.819-37.494-37.494-37.494h-125.177c-20.675 0-37.494 16.82-37.494 37.494v64.427c0 26.279-21.379 47.658-47.657 47.658h-80.717c-26.279 0-47.658-21.379-47.658-47.658v-164.819c0-6.903 5.597-12.5 12.5-12.5s12.5 5.597 12.5 12.5v164.818c0 12.494 10.164 22.658 22.658 22.658h80.717c12.493 0 22.657-10.164 22.657-22.658v-64.427c0-34.459 28.035-62.494 62.494-62.494h125.177c34.459 0 62.494 28.035 62.494 62.494v192.172c.001 34.46-28.035 62.495-62.494 62.495z" fill="#838383"/></g><path d="m127.146 184.833v-28.494h-27.313v30.327l-3.364 5.637v13.231c0 3.019 2.447 5.466 5.466 5.466h24.901c3.019 0 5.466-2.447 5.466-5.466v-13.929z" fill="#cecece"/><path d="m132.302 191.605v-35.266h-35.833v35.964c5.35 1.488 10.965 2.339 16.76 2.458 6.639-.136 13.037-1.241 19.073-3.156z" fill="#bfbfbf"/><path d="m173.704 7.5h-2.835c-1.945 0-6.194 0-11.962 0-1.341 0-2.765 0-4.26 0v4.5h-80v-4.5c-9.229 0-16.223 0-19.057 0-4.759 0-8.617 3.858-8.617 8.617v96.833c0 33.385 24.18 61.103 55.979 66.642-.004.001-.008.002-.012.002.035.006.07.01.105.016.153.026.308.045.462.071.921.153 1.847.29 2.779.406.164.021.33.036.495.055.989.117 1.984.212 2.986.286.033.002.066.004.099.007 1.581.114 3.172.189 4.782.189 37.375 0 67.674-30.299 67.674-67.674v-96.833c-.001-4.759-3.859-8.617-8.618-8.617z" fill="#9c9c9c"/><path d="m419.101 504.5h-395.894c-8.037 0-14.552-6.515-14.552-14.552v-168.714c0-8.037 6.515-14.552 14.552-14.552h395.894c8.037 0 14.552 6.515 14.552 14.552v168.714c0 8.037-6.515 14.552-14.552 14.552z" fill="#acacac"/><path d="m419.101 306.682h-25.512c8.037 0 14.552 6.515 14.552 14.552v168.714c0 8.037-6.515 14.552-14.552 14.552h25.512c8.037 0 14.552-6.515 14.552-14.552v-168.714c0-8.037-6.515-14.552-14.552-14.552z" fill="#9c9c9c"/><path d="m149.046 437.396c-8.592.721-15.344 7.912-15.344 16.69s6.752 15.969 15.344 16.689c8.592-.721 15.344-7.911 15.344-16.689s-6.752-15.968-15.344-16.69z" fill="#e2e2e2"/><path d="m216.078 437.396c-8.592.721-15.344 7.912-15.344 16.69s6.752 15.969 15.344 16.689c8.592-.721 15.344-7.911 15.344-16.689s-6.752-15.968-15.344-16.69z" fill="#e2e2e2"/><path d="m397.167 468.12v-28.066c0-1.507-1.222-2.729-2.729-2.729h-18.084c-1.507 0-2.729 1.222-2.729 2.729v28.066c0 1.507 1.222 2.729 2.729 2.729h18.084c1.507-.001 2.729-1.223 2.729-2.729z" fill="#e2e2e2"/><path d="m397.167 386.648v-27.371c0-1.699-1.377-3.076-3.076-3.076h-24.536c-1.699 0-3.076 1.377-3.076 3.076v27.371c0 1.699 1.377 3.076 3.076 3.076h24.536c1.699 0 3.076-1.377 3.076-3.076z" fill="#e2e2e2"/><path d="m345.604 468.12v-28.066c0-1.507-1.222-2.729-2.729-2.729h-18.084c-1.507 0-2.729 1.222-2.729 2.729v28.066c0 1.507 1.222 2.729 2.729 2.729h18.084c1.508-.001 2.729-1.223 2.729-2.729z" fill="#e2e2e2"/><path d="m294.042 468.12v-28.066c0-1.507-1.222-2.729-2.729-2.729h-18.084c-1.507 0-2.729 1.222-2.729 2.729v28.066c0 1.507 1.221 2.729 2.729 2.729h18.084c1.507-.001 2.729-1.223 2.729-2.729z" fill="#e2e2e2"/><path d="m72.378 386.16v-27.428c0-1.683-1.364-3.048-3.048-3.048h-23.975c-1.683 0-3.048 1.365-3.048 3.048v27.428c0 1.683 1.365 3.048 3.048 3.048h23.975c1.683 0 3.048-1.365 3.048-3.048z" fill="#e2e2e2"/><path d="m147.2 119.777 6.418-7.143c.665-3.201 1.029-6.53 1.029-9.956v-3.774l-7.748-7.5 7.748-7.5v-13.371l-7.146-7.5 7.146-7.5v-13.371l-6.845-7.5 6.845-7.5v-19.662h-80v19.662l6.679 7.39-6.679 7.39v13.701l6.679 7.39-6.679 7.39v13.537l6.704 7.417-6.704 7.417v3.884c0 3.425.363 6.754 1.029 9.956l8.262 7.142-2.545 7.5c7.177 11.855 19.39 19.662 33.254 19.662 13.864 0 26.078-7.807 33.254-19.662z" fill="#838383"/><path d="m107.921 399.224v-52.524c0-3.516 2.85-6.367 6.367-6.367h213.734c3.516 0 6.367 2.85 6.367 6.367v52.524c0 3.516-2.85 6.367-6.367 6.367h-213.735c-3.516 0-6.366-2.85-6.366-6.367z" fill="#5f99d7"/><g fill="#cecece"><path d="m150.463 437.325c-2.536 0-4.932.58-7.087 1.588 5.71 2.672 9.675 8.453 9.675 15.174s-3.965 12.501-9.675 15.173c2.155 1.008 4.55 1.588 7.087 1.588 9.257 0 16.761-7.504 16.761-16.761.001-9.257-7.504-16.762-16.761-16.762z"/><path d="m217.495 437.325c-2.536 0-4.932.58-7.087 1.588 5.71 2.672 9.675 8.453 9.675 15.174s-3.965 12.501-9.675 15.173c2.155 1.008 4.55 1.588 7.087 1.588 9.257 0 16.761-7.504 16.761-16.761s-7.504-16.762-16.761-16.762z"/><path d="m397.273 437.325h-17.008c1.507 0 2.729 1.222 2.729 2.729v28.066c0 1.507-1.222 2.729-2.729 2.729h17.008c1.507 0 2.729-1.222 2.729-2.729v-28.066c-.001-1.507-1.222-2.729-2.729-2.729z"/><path d="m396.925 356.201h-17.008c1.699 0 3.076 1.377 3.076 3.076v27.371c0 1.699-1.377 3.076-3.076 3.076h17.008c1.699 0 3.076-1.377 3.076-3.076v-27.371c0-1.699-1.377-3.076-3.076-3.076z"/><path d="m345.71 437.325h-17.008c1.507 0 2.729 1.222 2.729 2.729v28.066c0 1.507-1.221 2.729-2.729 2.729h17.008c1.507 0 2.729-1.222 2.729-2.729v-28.066c0-1.507-1.222-2.729-2.729-2.729z"/><path d="m294.148 437.325h-17.008c1.507 0 2.729 1.222 2.729 2.729v28.066c0 1.507-1.221 2.729-2.729 2.729h17.008c1.507 0 2.729-1.222 2.729-2.729v-28.066c-.001-1.507-1.222-2.729-2.729-2.729z"/><path d="m72.165 355.685h-17.008c1.683 0 3.048 1.365 3.048 3.048v27.428c0 1.683-1.365 3.048-3.048 3.048h17.008c1.683 0 3.048-1.365 3.048-3.048v-27.428c-.001-1.684-1.365-3.048-3.048-3.048z"/></g><path d="m328.021 340.334c-10.901 0-11.776 0-22.677 0 3.516 0 6.367 2.85 6.367 6.366v52.524c0 3.516-2.851 6.366-6.367 6.366h22.677c3.516 0 6.367-2.85 6.367-6.366v-52.524c0-3.516-2.85-6.366-6.367-6.366z" fill="#3c87d0"/><path d="m173.704 7.5c-13.9 0-8.269 0-19.843 0 4.759 0 8.617 3.858 8.617 8.617v96.833c0 33.961-25.018 62.074-57.629 66.928 41.173 6.05 77.472-25.971 77.472-66.928v-96.833c0-4.759-3.858-8.617-8.617-8.617z" fill="#838383"/></g><g><path d="m328.021 332.834h-213.734c-7.646 0-13.866 6.221-13.866 13.866v52.524c0 7.646 6.221 13.866 13.866 13.866h213.734c7.646 0 13.866-6.221 13.866-13.866v-52.524c.001-7.645-6.22-13.866-13.866-13.866zm-1.133 65.257h-211.467v-50.257h211.467z"/><path d="m126.202 454.087c0 13.378 10.884 24.262 24.262 24.262 13.377 0 24.261-10.884 24.261-24.262s-10.884-24.262-24.261-24.262c-13.378 0-24.262 10.884-24.262 24.262zm33.523 0c0 5.106-4.154 9.262-9.261 9.262s-9.262-4.155-9.262-9.262 4.155-9.262 9.262-9.262 9.261 4.155 9.261 9.262z"/><path d="m193.233 454.087c0 13.378 10.884 24.262 24.262 24.262s24.262-10.884 24.262-24.262-10.884-24.262-24.262-24.262-24.262 10.884-24.262 24.262zm33.524 0c0 5.106-4.155 9.262-9.262 9.262s-9.262-4.155-9.262-9.262 4.155-9.262 9.262-9.262 9.262 4.155 9.262 9.262z"/><path d="m376.354 429.825c-5.64 0-10.229 4.589-10.229 10.229v28.066c0 5.64 4.589 10.229 10.229 10.229h20.919c5.64 0 10.229-4.589 10.229-10.229v-28.066c0-5.64-4.589-10.229-10.229-10.229zm16.148 33.524h-11.376v-18.523h11.376z"/><path d="m407.502 359.277c0-5.832-4.744-10.576-10.576-10.576h-27.371c-5.832 0-10.576 4.744-10.576 10.576v27.37c0 5.832 4.744 10.576 10.576 10.576h27.371c5.832 0 10.576-4.744 10.576-10.576zm-15 22.947h-18.523v-18.522h18.523z"/><path d="m314.563 440.054v28.066c0 5.64 4.589 10.229 10.229 10.229h20.918c5.64 0 10.229-4.589 10.229-10.229v-28.066c0-5.64-4.589-10.229-10.229-10.229h-20.918c-5.64 0-10.229 4.589-10.229 10.229zm15 4.771h11.375v18.523h-11.375z"/><path d="m273.229 429.825c-5.64 0-10.229 4.589-10.229 10.229v28.066c0 5.64 4.589 10.229 10.229 10.229h20.919c5.64 0 10.229-4.589 10.229-10.229v-28.066c0-5.64-4.589-10.229-10.229-10.229zm16.147 33.524h-11.376v-18.523h11.376z"/><path d="m45.354 396.708h26.811c5.816 0 10.548-4.731 10.548-10.548v-27.428c0-5.816-4.731-10.548-10.548-10.548h-26.811c-5.815 0-10.547 4.731-10.547 10.548v27.428c.001 5.817 4.732 10.548 10.547 10.548zm4.454-33.523h17.905v18.523h-17.905z"/><path d="m42.308 429.481h32.905c4.143 0 7.5-3.357 7.5-7.5s-3.357-7.5-7.5-7.5h-32.905c-4.143 0-7.5 3.357-7.5 7.5s3.357 7.5 7.5 7.5z"/><path d="m42.308 462.997h32.905c4.143 0 7.5-3.357 7.5-7.5s-3.357-7.5-7.5-7.5h-32.905c-4.143 0-7.5 3.357-7.5 7.5s3.357 7.5 7.5 7.5z"/><path d="m440.851 93.431h-125.178c-38.595 0-69.994 31.399-69.994 69.994v64.427c0 8.358-6.8 15.158-15.157 15.158h-80.717c-8.358 0-15.158-6.8-15.158-15.158v-11.992c3.125-2.37 5.156-6.11 5.156-10.325v-21.755c29.115-10.372 50.019-38.2 50.019-70.83v-22.207c0-4.143-3.357-7.5-7.5-7.5s-7.5 3.357-7.5 7.5v22.207c0 33.567-27.67 60.888-61.506 60.14-32.754-.727-58.843-27.582-58.843-60.14v-96.833c0-.616.501-1.117 1.117-1.117h11.557v91.939c0 26.191 21.309 47.5 47.5 47.5s47.5-21.309 47.5-47.5v-91.939h11.558c.616 0 1.117.501 1.117 1.117v39.626c0 4.143 3.357 7.5 7.5 7.5s7.5-3.357 7.5-7.5v-39.626c-.001-8.887-7.231-16.117-16.118-16.117-4.287 0-113.83 0-118.114 0-8.887 0-16.117 7.23-16.117 16.117v96.833c0 32.437 20.652 60.138 49.496 70.653v21.931c0 4.449 2.254 8.379 5.678 10.716v11.602c0 30.414 24.744 55.158 55.158 55.158h80.717c30.414 0 55.157-24.744 55.157-55.158v-64.427c0-16.539 13.455-29.994 29.994-29.994h125.178c16.539 0 29.994 13.455 29.994 29.994v192.172c0 16.438-13.292 29.823-29.691 29.986v-64.349c0-12.16-9.893-22.053-22.052-22.053h-395.895c-12.159 0-22.052 9.893-22.052 22.053v107.476c0 4.143 3.357 7.5 7.5 7.5s7.5-3.357 7.5-7.5v-107.476c0-3.889 3.163-7.053 7.052-7.053h395.895c3.889 0 7.052 3.164 7.052 7.053v71.856 25 71.857c0 3.889-3.163 7.052-7.052 7.052h-395.895c-3.889 0-7.052-3.163-7.052-7.052v-26.237c0-4.143-3.357-7.5-7.5-7.5s-7.5 3.357-7.5 7.5v26.238c0 12.159 9.893 22.052 22.052 22.052h395.895c12.159 0 22.052-9.893 22.052-22.052v-64.365c38.455-.165 69.691-31.493 69.691-69.986v-192.172c0-38.595-31.4-69.994-69.994-69.994zm-358.705-22.898h65v13.372h-65zm0 36.406v-8.034h65v8.034c0 1.818-.157 3.6-.446 5.338h-64.108c-.288-1.738-.446-3.519-.446-5.338zm65-51.406h-65v-13.371h65zm-32.5 83.906c-10.228 0-19.362-4.753-25.324-12.162h50.647c-5.961 7.409-15.094 12.162-25.323 12.162zm32.5-124.439v12.162h-65v-12.162zm-32.644 173.12c.048 0 .096.004.145.004 3.272 0 7.17-.283 10.156-.689v16.062l-20.834.003v-16.141c3.538.509 7.35.755 10.533.761zm381.343 167.477c0 30.222-24.508 54.828-54.691 54.993v-10c24.671-.164 44.691-20.285 44.691-44.993v-192.172c0-24.81-20.185-44.994-44.994-44.994h-125.178c-24.81 0-44.994 20.185-44.994 44.994v64.427c0 22.144-18.015 40.158-40.157 40.158h-80.717c-22.144 0-40.158-18.015-40.158-40.158v-9.352h10v9.352c0 16.629 13.529 30.158 30.158 30.158h80.717c16.629 0 30.157-13.529 30.157-30.158v-64.427c0-30.324 24.67-54.994 54.994-54.994h125.178c30.324 0 54.994 24.67 54.994 54.994z"/></g></g></svg>