<svg id="Capa_1" enable-background="new 0 0 512 512" height="512" viewBox="0 0 512 512" width="512" xmlns="http://www.w3.org/2000/svg"><g><g><path d="m77.539 350.223h-29.02l-8.81 53.8v16.2c0 6.627 5.373 12 12 12h7.956c5.273 0 9.928-3.442 11.473-8.484l6.043-19.716z" fill="#acacac"/><path d="m434.819 350.223v53.8l6.043 19.716c1.545 5.042 6.2 8.484 11.473 8.484h7.956c6.627 0 12-5.373 12-12v-16.216l-9.489-53.784z" fill="#acacac"/><path d="m434.819 404.023h36.846c.21 0 .417-.012.626-.016v-53.784h-53.962z" fill="#9c9c9c"/><path d="m39.709 404.023h37.472l16.49-53.8h-53.962z" fill="#9c9c9c"/><path d="m501.665 345.677v-235.9c0-16.568-13.431-30-30-30h-434.165c-16.569 0-30 13.432-30 30v235.9c0 16.568 13.431 30 30 30h434.165c16.569 0 30-13.432 30-30z" fill="#d77f4a"/><path d="m474.5 79.777h-29c16.569 0 30 13.432 30 30v235.9c0 16.568-13.431 30-30 30h29c16.569 0 30-13.432 30-30v-235.9c0-16.569-13.431-30-30-30z" fill="#c86d36"/><path d="m472.665 331.677v-207.9c0-8.285-6.716-15-15-15h-406.165c-8.284 0-15 6.715-15 15v207.9c0 8.284 6.716 15 15 15h406.165c8.285 0 15-6.716 15-15z" fill="#cecece"/><path d="m66.5 202.727v-55.95c0-4.418 3.582-8 8-8h363c4.418 0 8 3.582 8 8v55.95c0 4.418-3.582 8-8 8h-363c-4.418 0-8-3.582-8-8z" fill="#98bce5"/><path d="m430.5 109.11c8.284 0 15 6.716 15 15v207.9c0 7.209-5.087 13.225-11.866 14.667h26.866c8.284 0 15-6.716 15-15v-207.9c0-8.285-6.716-15-15-15z" fill="#bfbfbf"/><path d="m112.715 295.946v-28.225c0-3.866-3.134-7-7-7h-32.215c-3.866 0-7 3.134-7 7v28.225c0 3.866 3.134 7 7 7h32.215c3.866 0 7-3.134 7-7z" fill="#9c9c9c"/><path d="m211.499 295.946v-28.225c0-3.866-3.134-7-7-7h-32.215c-3.866 0-7 3.134-7 7v28.225c0 3.866 3.134 7 7 7h32.215c3.866 0 7-3.134 7-7z" fill="#9c9c9c"/><ellipse cx="289.427" cy="281.833" fill="#dc8758" rx="33.427" ry="34.808"/><ellipse cx="409.239" cy="281.833" fill="#dc8758" rx="33.427" ry="34.808"/><path d="m108.55 260.721h-22.677c3.866 0 7 3.134 7 7v28.225c0 3.866-3.134 7-7 7h22.677c3.866 0 7-3.134 7-7v-28.225c0-3.867-3.134-7-7-7z" fill="#838383"/><path d="m207.333 260.721h-22.677c3.866 0 7 3.134 7 7v28.225c0 3.866-3.134 7-7 7h22.677c3.866 0 7-3.134 7-7v-28.225c0-3.867-3.134-7-7-7z" fill="#838383"/><g fill="#d77f4a"><path d="m290.844 246.989c-3.971 0-7.783.673-11.339 1.897 13.675 4.706 23.505 17.674 23.505 32.947s-9.83 28.241-23.505 32.947c3.556 1.223 7.367 1.897 11.339 1.897 19.244 0 34.844-15.6 34.844-34.844s-15.6-34.844-34.844-34.844z"/><path d="m410.656 246.989c-3.971 0-7.783.673-11.339 1.897 13.675 4.706 23.505 17.674 23.505 32.947s-9.83 28.241-23.505 32.947c3.556 1.223 7.367 1.897 11.339 1.897 19.244 0 34.844-15.6 34.844-34.844s-15.6-34.844-34.844-34.844z"/></g></g><g><path d="m474.5 72.277h-339.185c-4.142 0-7.5 3.357-7.5 7.5s3.358 7.5 7.5 7.5h339.185c12.407 0 22.5 10.094 22.5 22.5v235.899c0 12.406-10.093 22.5-22.5 22.5-15.507 0-419.811 0-437 0-12.407 0-22.5-10.094-22.5-22.5v-235.899c0-12.406 10.093-22.5 22.5-22.5h62.815c4.142 0 7.5-3.357 7.5-7.5s-3.358-7.5-7.5-7.5h-62.815c-20.678 0-37.5 16.823-37.5 37.5v235.899c0 18.881 14.029 34.54 32.209 37.12v37.426c0 10.752 8.748 19.5 19.5 19.5h7.956c8.624 0 16.117-5.54 18.644-13.785l13.106-42.761h329.17l13.106 42.761c2.527 8.245 10.02 13.785 18.644 13.785h7.956c10.752 0 19.5-8.748 19.5-19.5v-37.426c18.18-2.58 32.209-18.238 32.209-37.12v-235.899c0-20.677-16.822-37.5-37.5-37.5zm-410.533 349.264c-.583 1.903-2.312 3.182-4.302 3.182h-7.956c-2.481 0-4.5-2.019-4.5-4.5v-37.046h28.517zm400.824-1.318c0 2.481-2.019 4.5-4.5 4.5h-7.956c-1.99 0-3.719-1.278-4.302-3.182l-11.759-38.364h28.517z"/><path d="m475.5 213.233c4.142 0 7.5-3.357 7.5-7.5v-81.957c0-12.406-10.093-22.5-22.5-22.5h-409c-12.407 0-22.5 10.094-22.5 22.5v207.9c0 12.406 10.093 22.5 22.5 22.5h409c12.407 0 22.5-10.094 22.5-22.5v-90.943c0-4.143-3.358-7.5-7.5-7.5s-7.5 3.357-7.5 7.5v90.943c0 4.136-3.364 7.5-7.5 7.5h-409c-4.136 0-7.5-3.364-7.5-7.5v-207.9c0-4.136 3.364-7.5 7.5-7.5h409c4.136 0 7.5 3.364 7.5 7.5v81.957c0 4.143 3.358 7.5 7.5 7.5z"/><path d="m453 146.776c0-8.547-6.953-15.5-15.5-15.5h-363c-8.547 0-15.5 6.953-15.5 15.5v55.95c0 8.547 6.953 15.5 15.5 15.5h363c8.547 0 15.5-6.953 15.5-15.5zm-15 55.951c0 .275-.224.5-.5.5h-239.796v-20.975h213.963c4.142 0 7.5-3.357 7.5-7.5s-3.358-7.5-7.5-7.5h-213.963v-2.65c0-4.143-3.358-7.5-7.5-7.5s-7.5 3.357-7.5 7.5v2.65h-82.37c-4.142 0-7.5 3.357-7.5 7.5s3.358 7.5 7.5 7.5h82.37v20.975h-108.204c-.276 0-.5-.225-.5-.5v-55.95c0-.275.224-.5.5-.5h363c.276 0 .5.225.5.5z"/><path d="m73.5 253.221c-7.995 0-14.5 6.505-14.5 14.5v28.225c0 7.995 6.505 14.5 14.5 14.5h35.05c7.995 0 14.5-6.505 14.5-14.5v-28.225c0-7.995-6.505-14.5-14.5-14.5zm34.55 42.224h-34.05v-27.225h34.05z"/><path d="m172.284 253.221c-7.995 0-14.5 6.505-14.5 14.5v28.225c0 7.995 6.505 14.5 14.5 14.5h35.05c7.995 0 14.5-6.505 14.5-14.5v-28.225c0-7.995-6.505-14.5-14.5-14.5zm34.549 42.224h-34.05v-27.225h34.05z"/><path d="m248.5 281.833c0 23.349 18.995 42.344 42.344 42.344s42.344-18.995 42.344-42.344-18.996-42.344-42.344-42.344-42.344 18.995-42.344 42.344zm69.688 0c0 15.077-12.267 27.344-27.344 27.344s-27.344-12.267-27.344-27.344 12.267-27.344 27.344-27.344 27.344 12.267 27.344 27.344z"/><path d="m410.656 239.489c-23.349 0-42.344 18.995-42.344 42.344s18.996 42.344 42.344 42.344 42.344-18.995 42.344-42.344-18.995-42.344-42.344-42.344zm0 69.688c-15.078 0-27.344-12.267-27.344-27.344s12.267-27.344 27.344-27.344 27.344 12.267 27.344 27.344-12.267 27.344-27.344 27.344z"/></g></g></svg>