<svg id="Capa_1" enable-background="new 0 0 512.021 512.021" height="512" viewBox="0 0 512.021 512.021" width="512" xmlns="http://www.w3.org/2000/svg"><g><g><path d="m385.618 12.82-301.785 301.786 106.496 106.496 303.204-303.203c4.978-4.979 6.443-12.126 4.425-18.397l-86.682-86.682c-7.085-7.086-18.573-7.086-25.658 0z" fill="#acacac"/><path d="m499.201 100.745-8.774-8.774c-.718 1.153-1.563 2.25-2.564 3.251l-303.204 303.202-92.323-92.323-9.921 9.921 113.583 113.583 303.203-303.203c7.085-7.085 7.085-18.572 0-25.657z" fill="#9c9c9c"/><path d="m298.532 62.457-274.564 274.564c-18.008 18.008-21.221 45.194-9.666 66.493 1.241 1.534 2.57 3.021 3.997 4.447l71.587 71.587c21.938 21.938 57.506 21.938 79.444 0l274.564-274.563c1.887-1.887 2.717-4.429 2.494-6.894l-135.634-135.634c-3.375-3.375-8.847-3.375-12.222 0z" fill="#5f99d7"/><path d="m449.564 201.267-15.148-15.149-270.755 270.753c-21.938 21.938-57.506 21.938-79.444 0l-71.587-71.587c-1.842-1.842-3.515-3.787-5.047-5.805.652 13.452 6.113 26.713 16.386 36.986l71.587 71.587c21.938 21.938 57.506 21.938 79.444 0l274.563-274.563c3.376-3.375 3.376-8.847.001-12.222z" fill="#3c87d0"/><path d="m287.091 189.144c-10.97-10.97-28.755-10.97-39.725 0l-120.475 120.474c-5.836 5.836-8.56 13.6-8.184 21.24-.003-.004-.006-.007-.009-.011.319 6.673 3.068 13.369 8.193 18.493l35.794 35.794c10.969 10.969 28.753 10.969 39.722 0l120.475-120.475c10.97-10.97 10.97-28.755 0-39.725z" fill="#b3ceec"/></g><g><path d="m401.871 52.523-25.971 25.973c-2.929 2.929-2.929 7.678.001 10.606 2.928 2.928 7.676 2.929 10.606-.001l25.972-25.973c2.929-2.929 2.929-7.678-.001-10.606-2.928-2.927-7.677-2.928-10.607.001z"/><path d="m448.892 99.542-25.973 25.972c-2.93 2.929-2.93 7.678-.001 10.606 2.929 2.929 7.677 2.93 10.606.001l25.973-25.972c2.93-2.929 2.93-7.678.001-10.606-2.929-2.929-7.678-2.93-10.606-.001z"/><path d="m504.504 95.441-14.85-14.85c-2.93-2.928-7.678-2.928-10.607 0-2.929 2.93-2.929 7.678 0 10.607l14.85 14.849c4.159 4.161 4.163 10.89 0 15.051l-56.946 56.948-102.977-102.976 56.948-56.946c4.159-4.161 10.891-4.161 15.05 0l48.327 48.327c2.93 2.928 7.678 2.928 10.607 0 2.929-2.93 2.929-7.678 0-10.607l-48.327-48.326c-10.022-10.024-26.241-10.023-36.265-.001l-56.947 56.946-7.31-7.31c-6.307-6.307-16.52-6.309-22.829 0l-203.498 203.499c-2.929 2.93-2.929 7.678 0 10.607 2.93 2.928 7.678 2.928 10.607 0 215.188-215.187 204.117-204.499 205.113-203.498 146.386 146.386 139.83 139.407 138.81 140.424l-274.563 274.564c-19.025 19.023-49.813 19.025-68.838 0l-71.588-71.588c-19.024-19.024-19.024-49.813 0-68.837l46.316-46.316c2.929-2.93 2.929-7.678 0-10.607-2.93-2.928-7.678-2.928-10.607 0l-46.316 46.316c-24.884 24.886-24.887 65.163 0 90.052l71.588 71.588c24.886 24.884 65.161 24.887 90.052 0l274.563-274.564c3.049-3.049 4.728-7.104 4.728-11.415s-1.679-8.365-4.728-11.414l-7.31-7.31 56.946-56.947c10.022-10.024 10.025-26.238.001-36.266z"/><path d="m121.587 354.644 35.794 35.794c13.876 13.875 36.452 13.875 50.329 0l120.475-120.475c13.908-13.91 13.911-36.42 0-50.331l-35.79-35.792c-13.876-13.875-36.455-13.876-50.333 0l-120.475 120.475c-13.66 13.659-14.116 36.213 0 50.329zm10.608-39.722 120.475-120.475c8.028-8.03 21.092-8.028 29.118 0v-.001l35.79 35.792c8.028 8.027 8.028 21.09 0 29.117l-120.475 120.475c-8.026 8.028-21.09 8.026-29.114 0l-35.795-35.794c-8.108-8.108-7.948-21.167.001-29.114z"/></g></g></svg>