<svg id="Capa_1" enable-background="new 0 0 512 512" height="512" viewBox="0 0 512 512" width="512" xmlns="http://www.w3.org/2000/svg"><g><g><path d="m390.549 475.195v-368.365c0-16.124-13.071-29.195-29.195-29.195h-213.545c-16.123 0-29.194 13.071-29.194 29.195v368.365c0 16.124 13.071 29.195 29.194 29.195h213.546c16.124 0 29.194-13.071 29.194-29.195z" fill="#acacac"/><path d="m360.608 441.401v-325.248c0-3.68-2.983-6.663-6.663-6.663h-198.726c-3.68 0-6.664 2.983-6.664 6.663v325.248c0 3.68 2.983 6.663 6.664 6.663h198.725c3.681 0 6.664-2.983 6.664-6.663z" fill="#5f99d7"/><path d="m103.615 327.399h-44.121c-28.337 0-51.308-22.972-51.308-51.308v-35.361c0-28.337 22.972-51.308 51.308-51.308h44.121z" fill="#eb5569"/><path d="m408.385 189.421h44.121c28.337 0 51.308 22.972 51.308 51.308v35.361c0 28.337-22.972 51.308-51.308 51.308h-44.121z" fill="#eb5569"/><path d="m408.385 180.407c8.284 0 15 6.716 15 15v126.006c0 8.284-6.716 15-15 15-8.284 0-15-6.716-15-15v-126.006c.001-8.284 6.716-15 15-15z" fill="#f58a97"/><path d="m364.191 77.636h-29.941c16.124 0 29.195 13.071 29.195 29.195v368.365c0 16.124-13.071 29.195-29.195 29.195h29.942c16.123 0 29.194-13.071 29.194-29.195v-368.366c0-16.124-13.071-29.194-29.195-29.194z" fill="#9c9c9c"/><path d="m356.781 109.49h-29.941c3.68 0 6.663 2.983 6.663 6.663v325.248c0 3.68-2.983 6.663-6.663 6.663h29.941c3.68 0 6.664-2.983 6.664-6.663v-325.248c-.001-3.68-2.984-6.663-6.664-6.663z" fill="#3c87d0"/><path d="m452.506 189.421h-28.363c28.337 0 51.308 22.972 51.308 51.308v35.361c0 28.337-22.972 51.308-51.308 51.308h28.363c28.337 0 51.308-22.972 51.308-51.308v-35.361c0-28.336-22.971-51.308-51.308-51.308z" fill="#e53950"/><path d="m408.385 180.407c8.284 0 15 6.716 15 15v126.006c0 8.284-6.716 15-15 15-8.284 0-15-6.716-15-15v-126.006c.001-8.284 6.716-15 15-15z" fill="#f58a97"/><path d="m408.385 180.407c-3.812 0-7.281 1.433-9.927 3.776 3.105 2.748 5.072 6.751 5.072 11.223v126.006c0 4.472-1.967 8.475-5.072 11.223 2.647 2.342 6.115 3.776 9.927 3.776 8.284 0 15-6.716 15-15v-126.004c0-8.284-6.715-15-15-15z" fill="#f07281"/><g fill="#f58a97"><path d="m103.615 336.413c-8.284 0-15-6.716-15-15v-126.006c0-8.284 6.716-15 15-15 8.284 0 15 6.716 15 15v126.006c-.001 8.284-6.716 15-15 15z"/><path d="m103.615 336.413c-8.284 0-15-6.716-15-15v-126.006c0-8.284 6.716-15 15-15 8.284 0 15 6.716 15 15v126.006c-.001 8.284-6.716 15-15 15z"/></g></g><g><path d="m305.193 109.425c0-4.143-3.357-7.5-7.5-7.5h-142.518c-7.812 0-14.167 6.355-14.167 14.167v325.392c0 7.812 6.355 14.166 14.167 14.166h201.65c7.812 0 14.167-6.354 14.167-14.166v-325.392c0-7.812-6.355-14.167-14.167-14.167h-24.132c-4.143 0-7.5 3.357-7.5 7.5s3.357 7.5 7.5 7.5h23.299v323.725h-199.984v-323.725h141.686c4.142 0 7.499-3.358 7.499-7.5z"/><path d="m225.156 467.759c-4.143 0-7.5 3.357-7.5 7.5s3.357 7.5 7.5 7.5h61.688c4.143 0 7.5-3.357 7.5-7.5s-3.357-7.5-7.5-7.5z"/><path d="m248.5 200.852v115.119c0 4.143 3.357 7.5 7.5 7.5s7.5-3.357 7.5-7.5v-115.119c0-4.143-3.357-7.5-7.5-7.5s-7.5 3.357-7.5 7.5z"/><path d="m217.286 223.375v70.072c0 4.143 3.357 7.5 7.5 7.5s7.5-3.357 7.5-7.5v-70.072c0-4.143-3.357-7.5-7.5-7.5s-7.5 3.357-7.5 7.5z"/><path d="m186.073 239.392v38.039c0 4.143 3.357 7.5 7.5 7.5s7.5-3.357 7.5-7.5v-38.039c0-4.143-3.357-7.5-7.5-7.5s-7.5 3.357-7.5 7.5z"/><path d="m279.714 223.375v70.072c0 4.143 3.357 7.5 7.5 7.5s7.5-3.357 7.5-7.5v-70.072c0-4.143-3.357-7.5-7.5-7.5s-7.5 3.357-7.5 7.5z"/><path d="m325.927 277.431v-38.039c0-4.143-3.357-7.5-7.5-7.5s-7.5 3.357-7.5 7.5v38.039c0 4.143 3.357 7.5 7.5 7.5s7.5-3.358 7.5-7.5z"/><path d="m465.498 183.335v-51.319c0-72.794-59.222-132.016-132.016-132.016h-154.964c-72.794 0-132.016 59.222-132.016 132.016v51.319c-26.25 5.901-45.926 29.382-45.926 57.388v35.377c0 32.439 26.392 58.831 58.831 58.831h26.135c4.109 5.471 10.65 9.018 18.005 9.018 2.632 0 5.157-.458 7.507-1.292v53.012c0 4.143 3.357 7.5 7.5 7.5s7.5-3.357 7.5-7.5c0-2.827 0-281.063 0-288.903 0-11.97 9.737-21.708 21.707-21.708h216.479c11.97 0 21.707 9.738 21.707 21.708v214.678 153.851c0 11.97-9.737 21.707-21.707 21.707h-216.479c-11.97 0-21.707-9.737-21.707-21.707v-42.625c0-4.143-3.357-7.5-7.5-7.5s-7.5 3.357-7.5 7.5v42.625c0 20.24 16.467 36.707 36.707 36.707h216.479c20.24 0 36.707-16.467 36.707-36.707v-132.639c2.349.834 4.875 1.292 7.507 1.292 7.354 0 13.895-3.546 18.005-9.018h26.135c32.439 0 58.831-26.392 58.831-58.831v-35.377c-.001-28.005-19.677-51.486-45.927-57.387zm-449.922 92.765v-35.377c0-24.169 19.662-43.831 43.831-43.831h21.634v123.039h-21.634c-24.169 0-43.831-19.662-43.831-43.831zm87.971 52.848c-4.171 0-7.506-3.409-7.506-7.506v-126.061c0-4.093 3.332-7.507 7.506-7.507 4.14 0 7.507 3.367 7.507 7.506v126.063c0 4.138-3.367 7.505-7.507 7.505zm260.692-258.891h-216.478c-20.24 0-36.707 16.467-36.707 36.708v67.401c-2.349-.834-4.875-1.292-7.507-1.292-7.354 0-13.895 3.546-18.005 9.018h-24.04v-49.876c0-64.523 52.493-117.016 117.016-117.016h154.965c64.522 0 117.016 52.493 117.016 117.016v49.876h-24.04c-4.109-5.471-10.65-9.018-18.005-9.018-2.632 0-5.157.458-7.507 1.292v-67.401c-.001-20.242-16.468-36.708-36.708-36.708zm44.214 258.891c-4.14 0-7.507-3.367-7.507-7.506v-126.062c0-4.139 3.367-7.506 7.507-7.506 4.173 0 7.506 3.412 7.506 7.507v126.062c0 1.031-.209 2.035-.623 2.984-1.156 2.657-3.805 4.521-6.883 4.521zm87.971-52.848c0 24.169-19.662 43.831-43.831 43.831h-21.634v-123.039h21.634c24.169 0 43.831 19.662 43.831 43.831z"/></g></g></svg>