<?xml version="1.0" encoding="iso-8859-1"?>
<!-- Uploaded to: SVG Repo, www.svgrepo.com, Generator: SVG Repo Mixer Tools -->
<svg version="1.1" id="Layer_1" xmlns="http://www.w3.org/2000/svg" xmlns:xlink="http://www.w3.org/1999/xlink" 
	 viewBox="0 0 512 512" xml:space="preserve">
<rect x="7.837" y="155.429" style="fill:#79CAE8;" width="496.327" height="73.143"/>
<g>
	<rect x="7.837" y="228.571" style="fill:#4B92B9;" width="496.327" height="229.878"/>
	<rect x="103.361" y="131.396" style="fill:#4B92B9;" width="24.033" height="24.033"/>
	<rect x="159.608" y="131.396" style="fill:#4B92B9;" width="24.033" height="24.033"/>
	<rect x="215.855" y="131.396" style="fill:#4B92B9;" width="24.033" height="24.033"/>
	<rect x="272.112" y="131.396" style="fill:#4B92B9;" width="24.033" height="24.033"/>
	<rect x="328.359" y="131.396" style="fill:#4B92B9;" width="24.033" height="24.033"/>
	<rect x="384.606" y="131.396" style="fill:#4B92B9;" width="24.033" height="24.033"/>
</g>
<rect x="203.755" y="265.143" style="fill:#CAF9F4;" width="104.49" height="73.143"/>
<rect x="203.755" y="288.653" style="fill:#79CAE8;" width="104.49" height="26.122"/>
<circle style="fill:#CAF9F4;" cx="102.902" cy="343.51" r="67.918"/>
<circle style="fill:#79CAE8;" cx="102.902" cy="343.51" r="47.02"/>
<circle style="fill:#4B92B9;" cx="102.902" cy="343.51" r="15.673"/>
<circle cx="45.43" cy="286.041" r="10.449"/>
<circle cx="160.371" cy="286.041" r="10.449"/>
<circle cx="45.43" cy="400.98" r="10.449"/>
<circle cx="160.371" cy="400.98" r="10.449"/>
<circle style="fill:#CAF9F4;" cx="409.098" cy="343.51" r="67.918"/>
<circle style="fill:#79CAE8;" cx="409.098" cy="343.51" r="47.02"/>
<circle style="fill:#4B92B9;" cx="409.098" cy="343.51" r="15.673"/>
<circle cx="351.629" cy="286.041" r="10.449"/>
<circle cx="466.568" cy="286.041" r="10.449"/>
<circle cx="351.629" cy="400.98" r="10.449"/>
<circle cx="466.568" cy="400.98" r="10.449"/>
<rect x="203.755" y="369.633" style="fill:#79CAE8;" width="104.49" height="52.245"/>
<g>
	<circle style="fill:#FFFFFF;" cx="216.816" cy="301.714" r="13.061"/>
	<circle style="fill:#FFFFFF;" cx="295.184" cy="301.714" r="13.061"/>
</g>
<rect x="151.51" y="178.939" style="fill:#CAF9F4;" width="208.98" height="26.122"/>
<rect x="180.945" y="189.388" style="fill:#FF503D;" width="15.673" height="15.673"/>
<g>
	<circle style="fill:#FFFFFF;" cx="48.042" cy="192" r="13.061"/>
	<circle style="fill:#FFFFFF;" cx="463.956" cy="192" r="13.061"/>
</g>
<rect x="112.713" y="53.551" style="fill:#4B92B9;" width="292.571" height="36.571"/>
<path d="M416.479,147.592v-24.033h-39.706v24.033h-16.544v-24.033h-39.706v24.033h-16.544v-24.033h-39.706v24.033h-16.545v-24.033
	h-39.706v24.033h-16.544v-24.033h-39.706v24.033h-16.544v-24.033H95.521v24.033H0v318.694h512V147.592H416.479z M392.446,139.233
	h8.359v8.359h-8.359V139.233z M336.196,139.233h8.359v8.359h-8.359V139.233z M279.946,139.233h8.359v8.359h-8.359V139.233z
	 M223.695,139.233h8.359v8.359h-8.359V139.233z M167.445,139.233h8.359v8.359h-8.359V139.233z M111.194,139.233h8.359v8.359h-8.359
	V139.233z M496.327,450.612H15.673V236.408h480.653V450.612z M15.673,220.735v-57.469h480.653v57.469H15.673z"/>
<path d="M102.9,419.265c41.772,0,75.755-33.983,75.755-75.755s-33.983-75.755-75.755-75.755s-75.755,33.983-75.755,75.755
	S61.129,419.265,102.9,419.265z M102.9,283.429c33.13,0,60.082,26.952,60.082,60.082s-26.952,60.082-60.082,60.082
	S42.819,376.64,42.819,343.51S69.771,283.429,102.9,283.429z"/>
<path d="M102.9,398.367c30.249,0,54.857-24.609,54.857-54.857s-24.608-54.857-54.857-54.857s-54.857,24.609-54.857,54.857
	S72.652,398.367,102.9,398.367z M102.9,304.327c21.606,0,39.184,17.577,39.184,39.184s-17.577,39.184-39.184,39.184
	s-39.184-17.577-39.184-39.184S81.294,304.327,102.9,304.327z"/>
<path d="M102.9,367.02c12.964,0,23.51-10.547,23.51-23.51S115.865,320,102.9,320s-23.51,10.547-23.51,23.51
	S89.936,367.02,102.9,367.02z M102.9,335.673c4.322,0,7.837,3.515,7.837,7.837s-3.515,7.837-7.837,7.837s-7.837-3.515-7.837-7.837
	S98.579,335.673,102.9,335.673z"/>
<path d="M409.101,419.265c41.771,0,75.755-33.983,75.755-75.755s-33.984-75.755-75.755-75.755
	c-41.772,0-75.755,33.983-75.755,75.755S367.329,419.265,409.101,419.265z M409.101,283.429c33.13,0,60.082,26.952,60.082,60.082
	s-26.952,60.082-60.082,60.082s-60.082-26.952-60.082-60.082S375.97,283.429,409.101,283.429z"/>
<path d="M409.101,398.367c30.248,0,54.857-24.609,54.857-54.857s-24.609-54.857-54.857-54.857s-54.857,24.609-54.857,54.857
	S378.852,398.367,409.101,398.367z M409.101,304.327c21.606,0,39.184,17.577,39.184,39.184s-17.577,39.184-39.184,39.184
	s-39.184-17.577-39.184-39.184S387.494,304.327,409.101,304.327z"/>
<path d="M409.101,367.02c12.963,0,23.51-10.547,23.51-23.51S422.064,320,409.101,320s-23.51,10.547-23.51,23.51
	S396.136,367.02,409.101,367.02z M409.101,335.673c4.322,0,7.837,3.515,7.837,7.837s-3.515,7.837-7.837,7.837
	s-7.837-3.515-7.837-7.837S404.779,335.673,409.101,335.673z"/>
<path d="M316.082,257.306H195.918v88.816h120.163V257.306z M211.592,301.714c0-2.881,2.344-5.224,5.224-5.224
	s5.224,2.344,5.224,5.224s-2.344,5.224-5.224,5.224S211.592,304.595,211.592,301.714z M237.027,296.49h37.947
	c-0.433,1.674-0.688,3.418-0.688,5.224c0,1.807,0.255,3.551,0.688,5.224h-37.947c0.433-1.674,0.688-3.418,0.688-5.224
	C237.714,299.908,237.459,298.164,237.027,296.49z M289.959,301.714c0-2.881,2.344-5.224,5.224-5.224s5.224,2.344,5.224,5.224
	s-2.344,5.224-5.224,5.224S289.959,304.595,289.959,301.714z M300.408,272.98v7.837h-88.816v-7.837H300.408z M211.592,330.449
	v-7.837h88.816v7.837H211.592z"/>
<path d="M316.082,361.796H195.918v67.918h120.163V361.796z M300.408,414.041h-88.816v-36.571h88.816V414.041z"/>
<path d="M143.673,212.898h224.653v-41.796H143.673V212.898z M159.347,186.775h193.306v10.449H159.347V186.775z"/>
<path d="M48.043,171.102c-11.523,0-20.898,9.375-20.898,20.898c0,11.523,9.375,20.898,20.898,20.898S68.941,203.523,68.941,192
	C68.941,180.477,59.565,171.102,48.043,171.102z M48.043,197.224c-2.881,0-5.224-2.344-5.224-5.225c0-2.881,2.344-5.224,5.224-5.224
	s5.224,2.344,5.224,5.224C53.268,194.881,50.923,197.224,48.043,197.224z"/>
<path d="M463.958,171.102c-11.523,0-20.898,9.375-20.898,20.898c0,11.523,9.375,20.898,20.898,20.898
	c11.523,0,20.898-9.375,20.898-20.898C484.856,180.477,475.481,171.102,463.958,171.102z M463.958,197.224
	c-2.881,0-5.224-2.344-5.224-5.225c0-2.881,2.344-5.224,5.224-5.224s5.224,2.344,5.224,5.224
	C469.182,194.881,466.837,197.224,463.958,197.224z"/>
<path d="M70.531,79.673h34.351v18.286h308.245V79.673h28.343v54.857h15.673V64h-44.016V45.714H104.882V64H54.857v70.531h15.673
	V79.673z M120.555,61.388h276.898v20.898H120.555V61.388z"/>
</svg>