<svg xmlns="http://www.w3.org/2000/svg"  viewBox="0 0 48 48" width="48px" height="48px"><path fill="#e0dddc" d="M40.854,21.02c-0.375-1.098-1.726-5.412-1.8-5.647c-0.525-1.804-0.301-3.765-0.301-3.765c0.075-0.861,0.301-1.725,0.601-2.588c0.225-0.627,0.225-1.412,0.075-2.195C39.128,5.49,37.928,4,35.978,4s-3.15,1.49-3.451,2.746c-0.225,0.783-0.15,1.488,0.075,2.195c0.3,0.863,0.45,1.726,0.601,2.588c0,0,0.225,1.961-0.301,3.766c-0.074,0.234-1.425,4.549-1.8,5.647c-0.976,3.215-1.351,6.588-0.976,9.883c0.375,3.371,0.825,7.215,0.825,7.686c0.075,0.863,2.251,1.49,5.026,1.49c2.775,0,4.951-0.705,5.025-1.49c0-0.471,0.45-4.314,0.825-7.686C42.203,27.529,41.903,24.156,40.854,21.02"/><path fill="#5ec08f" d="M19.983,20c-6.64,0-12,5.359-12,12s5.36,12,12,12c6.64,0,12-5.359,12-12S26.623,20,19.983,20"/><path fill="#0c723c" d="M19.983 23c1.105 0 2 .895 2 2s-.895 2-2 2c-1.106 0-2-.895-2-2S18.878 23 19.983 23M24.483 27c.828 0 1.5.672 1.5 1.5s-.672 1.5-1.5 1.5-1.5-.672-1.5-1.5S23.655 27 24.483 27M19.483 29c.828 0 1.5.672 1.5 1.5s-.672 1.5-1.5 1.5-1.5-.672-1.5-1.5S18.655 29 19.483 29"/><path fill="#ff754c" d="M38.964 15c-.168-.711-.234-1.414-.25-2h-5.475c-.02.594-.093 1.295-.266 2H38.964zM40.198 19c-.213-.668-.438-1.381-.633-2h-7.2c-.197.625-.423 1.338-.634 2H40.198z"/></svg>