<svg xmlns="http://www.w3.org/2000/svg"  viewBox="0 0 48 48" width="48px" height="48px"><path fill="#ffb74d" d="M12.76,24c-0.158,0-0.317-0.023-0.475-0.078l-6.26-1.998c-0.786-0.262-1.21-1.111-0.948-1.896c0.262-0.785,1.113-1.213,1.898-0.949L12,20.666l3.158-6.835c0.225-0.447,0.658-0.756,1.155-0.818l8-1c0.463-0.059,0.92,0.102,1.247,0.43l4.031,4.031l3.948-4.125c0.636-0.531,1.582-0.445,2.112,0.191c0.53,0.637,0.444,1.582-0.192,2.113l-5,5c-0.596,0.496-1.472,0.461-2.021-0.09L23,15l-6,3l-2.898,5.172C13.842,23.691,13.314,24,12.76,24z"/><path fill="#ba68c8" d="M24.313,12.012l-8,1c-0.497,0.063-0.931,0.371-1.155,0.818l-1.304,2.822L17,18l8-1l2.363-2.756l-1.802-1.802C25.233,12.113,24.776,11.953,24.313,12.012z"/><path fill="#ba68c8" d="M21,31c-2.209,0-4,0.208-4-2V15c0-2.21,1.791-1,4-1s4-1.21,4,1v13.063C25,30.271,23.209,31,21,31z"/><path fill="#ffb74d" d="M19,3c2.209,0,4,1.791,4,4c0,2.208-1.791,4-4,4s-4-1.792-4-4C15,4.791,16.791,3,19,3"/><path fill="#ff754c" d="M37,20c-1,0-1,1-1,1v6.27c0,0,2,2.906,2,1.773c0,0,0-4.892,0-5.375c0-0.486,0.322-0.648,0.644-0.648c2.356,0,3.276,1.988,3.276,1.988S43,20,37,20z"/><path fill="#ff754c" d="M35.521 26.978A2.5 2.002 0 1 0 35.521 30.982A2.5 2.002 0 1 0 35.521 26.978Z"/><path fill="#d2ccc9" d="M29.267,41.838l-5.194-6.377l0.846-6.637c0.001-0.003,0.001-0.007,0.001-0.011l0.068-0.53c0.004-0.034-0.001-0.076,0.001-0.112C24.99,28.133,25,28.102,25,28.063V27h-8v-0.008l-2.882,8.035c-0.285,0.513-0.33,1.125-0.125,1.676l3,8C17.295,45.504,18.057,46,18.866,46c0.233,0,0.471-0.042,0.702-0.127c1.034-0.388,1.559-1.541,1.171-2.576l-2.676-7.133L20,32l0.013,3.779c-0.055,0.49,0.073,0.982,0.359,1.383l5.639,7C26.401,44.708,27.017,45,27.641,45c0.402,0,0.809-0.121,1.16-0.371C29.7,43.984,29.908,42.736,29.267,41.838z"/><path fill="#b2aead" d="M20,30l-3-3.008l-2.882,8.035c-0.285,0.513-0.33,1.125-0.125,1.676l3,8C17.295,45.504,18.057,46,18.866,46c0.233,0,0.471-0.042,0.702-0.127c1.034-0.388,1.559-1.541,1.171-2.576l-2.676-7.133L20,32V30z"/><path fill="#ab47bc" d="M17 18L19 19 19 27 17 27z"/></svg>