<svg xmlns="http://www.w3.org/2000/svg"  viewBox="0 0 48 48" width="48px" height="48px"><path fill="#455a64" d="M24,48c-0.6,0-1-0.4-1-1V4c0-0.6,0.4-1,1-1s1,0.4,1,1v43C25,47.6,24.6,48,24,48z"/><path fill="#546e7a" d="M26,2l-2,45L22,2c-0.1-1.1,0.8-2,1.9-2.1c1.1,0,2,0.8,2.1,1.9C26,1.9,26,1.9,26,2z"/><path fill="#e0dddc" d="M13,21c0,0.1,0,0.1,0,0.2C13,28.5,19,40,24,40s11-11.5,11-18.8c0-0.1,0-0.1,0-0.2H13z"/><path fill="#546e7a" d="M13,21.2c0,0.6,0,1.2,0.1,1.8h21.8c0.1-0.6,0.1-1.2,0.1-1.8c0-1.1-0.1-2.2-0.3-3.2H13.3 C13.1,19,13,20.1,13,21.2z"/><path fill="#ff754c" d="M34.7,18c-1-5.7-4.6-10-10.7-10s-9.8,4.3-10.7,10H34.7z"/></svg>