<svg xmlns="http://www.w3.org/2000/svg"  viewBox="0 0 48 48" width="48px" height="48px"><path fill="#ffb74d" d="M24,7c2.209,0,4,1.791,4,4s-1.791,4-4,4s-4-1.791-4-4S21.791,7,24,7"/><path fill="#ff754c" d="M36.664,36.504L31,33V19H17v14l-5.664,3.504c-1.1,0.734-1.59,2.102-1.207,3.365C10.512,41.135,11.678,42,13,42h9h4h9c1.322,0,2.488-0.865,2.871-2.131C38.254,38.605,37.764,37.238,36.664,36.504z"/><path fill="#ffb74d" d="M41.249,30.438l-4.656-3.725l-3.804-7.607c-0.097-0.191-0.223-0.367-0.375-0.52C32.149,18.32,29.665,16,24,16s-8.149,2.32-8.414,2.586c-0.152,0.152-0.278,0.328-0.375,0.52l-3.804,7.607l-4.656,3.725c-0.863,0.691-1.003,1.949-0.313,2.813C6.833,33.742,7.414,34,8.001,34c0.439,0,0.88-0.145,1.248-0.438l5-4c0.227-0.182,0.41-0.41,0.54-0.668L21,20h6l6.211,8.894c0.13,0.258,0.314,0.486,0.54,0.668l5,4C39.119,33.855,39.56,34,39.999,34c0.587,0,1.168-0.258,1.562-0.75C42.252,32.387,42.112,31.129,41.249,30.438z"/><path fill="#ff754c" d="M36.593,26.713l-3.804-7.607c-0.097-0.191-0.223-0.367-0.375-0.52C32.149,18.32,29.665,16,24,16s-8.149,2.32-8.414,2.586c-0.152,0.152-0.278,0.328-0.375,0.52l-3.804,7.607l2.842,2.85c0.227-0.182,0.41-0.41,0.54-0.668L21,20h6l6.211,8.894c0.13,0.258,0.314,0.486,0.54,0.668L36.593,26.713z"/><path fill="#e64a19" d="M33.751 29.563c-.227-.182-.41-.41-.54-.668L31 25.729V21l2.872 8.658L33.751 29.563zM14.249 29.563c.227-.182.41-.41.54-.668L17 25.729V21l-2.872 8.658L14.249 29.563z"/><path fill="#ffb74d" d="M29,37h-7.5c-1.375,0-2.5,1.125-2.5,2.5s1.125,2.5,2.5,2.5H29V37z"/><path fill="#e64a19" d="M21.5,37H31c0,0-6.857-2-9.5-2S17,37.019,17,39.5c0,0.925,0.282,1.784,0.762,2.5H21.5c-1.375,0-2.5-1.125-2.5-2.5S20.125,37,21.5,37z"/></svg>