<svg xmlns="http://www.w3.org/2000/svg"  viewBox="0 0 48 48" width="48px" height="48px"><path fill="#546e7a" d="M23.5 12.8H25.5V26.1H23.5z" transform="rotate(-12.992 24.498 19.496)"/><path fill="#546e7a" d="M2.9 20.5H22.099999999999998V22.5H2.9z" transform="rotate(-81.013 12.5 21.5)"/><path fill="#ffb74d" d="M18.5,17c1.9,0,3.5,1.6,3.5,3.5S20.4,24,18.5,24S15,22.4,15,20.5S16.6,17,18.5,17"/><path fill="#ba68c8" d="M32,31.8c-0.3,0-0.1,0.3-0.4,0.2l-9.5-3.2c-1.6-0.5-2.4-2.2-1.9-3.8c0.5-1.6,2.2-2.4,3.8-1.9l7,2.2 c1.6,0.5,2.4,2.2,1.9,3.8C32.4,30.4,33.3,31.8,32,31.8z"/><path fill="#2d4c5c" d="M42.1,34.3L33,28.5c0.1-1.4-0.7-2.7-2-3.2L28.6,31l1.8,0.6l9.6,6.1c0.3,0.2,0.7,0.3,1.1,0.3 c0.7,0,1.3-0.3,1.7-0.9C43.3,36.1,43,34.9,42.1,34.3z"/><path fill="#ba68c8" d="M17.5,32h-6c-0.8,0-1.5-0.7-1.5-1.5s0.7-1.5,1.5-1.5h5.3l4-5c0.5-0.6,2.1-1.2,2.7-0.7 s1.4,2.5,0.9,3.1l-5.7,5C18.4,31.8,17.9,32,17.5,32z"/><path fill="#5ec08f" d="M5,11c-0.8-0.3-1-1-1-1s0-1,2-1s34.3,0,36,0c2,0,2,2,2,2l-4,4l4,6c0,2-2,2-2,2S5.8,11.3,5,11z"/><path fill="#41a571" d="M38.4,15.8c0,0-0.1,0-0.1,0L4.9,11C4.3,10.9,3.9,10.4,4,9.9S4.6,8.9,5.1,9l33.4,4.8 c0.5,0.1,0.9,0.6,0.8,1.1C39.3,15.4,38.9,15.8,38.4,15.8z"/><path fill="#41a571" d="M44,11c0,0,0-2-2-2c-0.1,0-0.6,0-1.2,0L35,14.3l5.9,8.4C41.6,22.9,42,23,42,23s2,0,2-2l-4-6L44,11z"/></svg>