<svg xmlns="http://www.w3.org/2000/svg"  viewBox="0 0 48 48" width="48px" height="48px"><path fill="#455a64" d="M24.5 34.4H39.7V36.4H24.5z" transform="rotate(-19.87 32.152 35.412)"/><path fill="#455a64" d="M6.6 11.7H8.6V29.099999999999998H6.6z" transform="rotate(-9.299 7.596 20.417)"/><path fill="#ffb74d" d="M16.5,30c1.9,0,3.5,1.6,3.5,3.5S18.4,37,16.5,37S13,35.4,13,33.5S14.6,30,16.5,30"/><path fill="#ba68c8" d="M20.5,42h-3.9c-0.3,0-0.5-0.1-0.8-0.2l-5.7-3.4c-0.2-0.1-0.4-0.4-0.6-0.6l-2.4-3.6 C7.1,34,7,33.7,7,33.5v-5C7,27.7,7.7,27,8.5,27s1.5,0.7,1.5,1.5v4.6l2,2.9l5,3h3.1l3.7-1.8c0.7-0.4,1.6-0.1,2,0.7 c0.4,0.7,0.1,1.6-0.7,2l-4,2C21,41.9,20.7,42,20.5,42z"/><path fill="#ba68c8" d="M15.3,44.2c-0.5,0.8-1.5,1-2.3,0.5l-4.2-2.6c-0.8-0.5-1-1.5-0.5-2.3l1.6-2.6 c0.5-0.8,0.8-0.7,1.5-0.2l4.2,2.6c0.8,0.5,1.8,1.2,1.3,1.9L15.3,44.2z"/><path fill="#ff754c" d="M5,11c0.8-1.3,1.7-2.2,2.6-3c1-0.9,2-1.6,3.1-2.3c2.2-1.3,4.6-2.1,7.1-2.4c5-0.7,10.4,0.5,14.9,3.3 c4.5,2.8,8,7.3,9.4,12.1c0.7,2.4,1,4.9,0.8,7.4c-0.1,1.3-0.3,2.5-0.7,3.7c-0.4,1.2-0.9,2.5-1.7,3.7L39,34c0,0-0.7-3-1.9-5.2 c-0.8-1.6-1.8-3.2-2.9-4.7c-2.2-3-4.8-5.6-7.9-7.4c-3-2-6.5-3.2-10.1-3.9c-1.8-0.4-3.6-0.5-5.5-0.6c-1.8-0.1-3.7,0-5.5,0.3L5,11z"/><path fill="#e64a19" d="M37.6 10.7L30 19.4c.5.4 1 .9 1.4 1.4l7.5-8.5C38.5 11.8 38.1 11.2 37.6 10.7zM42.9 26c0-.2 0-.5 0-.7L37 28.7c0 0 0 .1.1.1.3.5.6 1.1.8 1.7l4.8-2.7C42.8 27.2 42.9 26.6 42.9 26zM32.7 6.5c-.4-.2-.7-.4-1.1-.6l-6.4 10c.4.2.8.5 1.2.7.2.1.3.2.5.3l6.4-10C33.1 6.8 32.9 6.7 32.7 6.5zM42.1 18.6c-.2-.6-.4-1.2-.6-1.8L34 23.8c.1.1.2.2.2.3.3.4.6.9.9 1.3l7.1-6.5C42.2 18.8 42.1 18.7 42.1 18.6zM20 13.7c.6.2 1.3.4 1.9.7l4.3-10.6c-.7-.2-1.3-.3-2-.4L20 13.7zM17.8 3.2c-.6.1-1.2.2-1.8.3l-1.3 8.9c.5.1 1 .2 1.5.3.2 0 .3.1.5.1l1.4-9.6C18 3.2 17.9 3.2 17.8 3.2zM11.1 5.5c-.1.1-.2.1-.3.2C10.2 6 9.6 6.4 9.1 6.8v5.3c.6 0 1.1 0 1.7 0 .1 0 .2 0 .3 0V5.5z"/></svg>