<svg xmlns="http://www.w3.org/2000/svg"  viewBox="0 0 48 48" width="48px" height="48px"><rect width="15" height="2" x="24" y="6" fill="#757575"/><rect width="15" height="2" x="8" y="17" fill="#757575"/><path fill="#424242" d="M40,40c-0.553,0-1-0.448-1-1V5c0-0.552,0.447-1,1-1s1,0.448,1,1v34C41,39.552,40.553,40,40,40z"/><path fill="#424242" d="M24,40c-0.553,0-1-0.448-1-1V5c0-0.552,0.447-1,1-1s1,0.448,1,1v34C25,39.552,24.553,40,24,40z"/><path fill="#424242" d="M8,40c-0.553,0-1-0.448-1-1V16c0-0.552,0.447-1,1-1s1,0.448,1,1v23C9,39.552,8.553,40,8,40z"/><rect width="44" height="4" x="2" y="39" fill="#2e7d32"/></svg>