<svg xmlns="http://www.w3.org/2000/svg"  viewBox="0 0 48 48" width="48px" height="48px"><path fill="#607d8b" d="M39,34c-2.762,0-5,2.238-5,5s2.238,5,5,5c2.762,0,5-2.238,5-5S41.762,34,39,34z"/><path fill="#37474f" d="M39 37A2 2 0 1 0 39 41A2 2 0 1 0 39 37Z"/><path fill="#607d8b" d="M29,34c-2.762,0-5,2.238-5,5s2.238,5,5,5c2.762,0,5-2.238,5-5S31.762,34,29,34z"/><path fill="#37474f" d="M29 37A2 2 0 1 0 29 41A2 2 0 1 0 29 37Z"/><path fill="#607d8b" d="M19,34c-2.762,0-5,2.238-5,5s2.238,5,5,5c2.762,0,5-2.238,5-5S21.762,34,19,34z"/><path fill="#37474f" d="M19 37A2 2 0 1 0 19 41A2 2 0 1 0 19 37Z"/><path fill="#9fa8da" d="M24,15c0,1.105-0.896,2-2,2H12c-1.105,0-2-0.895-2-2l1-8c0-1.106,0.781-2,2-2c5.656,0,10,1.438,10,1.438s2.406,0.406,1.969,2.656L24,15z"/><path fill="#607d8b" d="M9,34c-2.762,0-5,2.238-5,5s2.238,5,5,5c2.762,0,5-2.238,5-5S11.762,34,9,34z"/><path fill="#37474f" d="M17,39c-3-2-6,0-6,0c0,1.105-0.896,2-2,2c-1.105,0-2-0.895-2-2c0-2,2.895-6,4-6c0,0,25,0,26,0s4,4,4,6h-4c0,0-3-2-6,0s-4,0-4,0s-3-2-6,0S17,39,17,39z"/><path fill="#e8eaf6" d="M39 38A1 1 0 1 0 39 40 1 1 0 1 0 39 38zM29 38A1 1 0 1 0 29 40 1 1 0 1 0 29 38zM9 38A1 1 0 1 0 9 40 1 1 0 1 0 9 38zM19 38A1 1 0 1 0 19 40 1 1 0 1 0 19 38z"/><path fill="#9fa8da" d="M11,33c0,0-4-2-4-6c0-3,1-6,1-6l1-7c0,0,1-4,3-4s13,2,13,2l-1,9l14,5c0,0,3,1,3,5c0,1-2,2-4,2S11,33,11,33z"/><path fill="#c5cae9" d="M17.922,25.109C17.922,25.109,19,19,24,19c0.076,0,0.149-0.014,0.225-0.02L25,11c0,0-10-2-12-2c-3,0-4,4-4,4l-1,8l5.609,5.125L17.922,25.109z"/><path fill="#c5cae9" d="M15.5 22A2.5 2.5 0 1 0 15.5 27A2.5 2.5 0 1 0 15.5 22Z"/><path fill="#5f6ec4" d="M15.5 23A1.5 1.5 0 1 0 15.5 26 1.5 1.5 0 1 0 15.5 23zM23.875 28.042L19.252 28.027 24.252 19.027 27.458 21.583zM25.531 16L15 16 13 12 26 12 25.881 13.01zM28.553 26.895C28.696 26.965 28.849 27 28.999 27c.367 0 .72-.203.895-.553l1.418-2.836-1.897-.678-1.31 2.619C27.858 26.047 28.059 26.648 28.553 26.895zM33.233 24.297l-1.128 2.256c-.247.494-.047 1.096.447 1.342C32.696 27.965 32.849 28 32.999 28c.367 0 .72-.203.895-.553l1.236-2.473L33.233 24.297z"/></svg>