<svg xmlns="http://www.w3.org/2000/svg"  viewBox="0 0 48 48" width="48px" height="48px"><path fill="#ffb74d" d="M38,4c2.209,0,4,1.791,4,4c0,2.208-1.791,4-4,4s-4-1.792-4-4C34,5.791,35.791,4,38,4"/><path fill="#ffba57" d="M11.999,38c-0.484,0-0.971-0.176-1.355-0.529c-0.812-0.748-0.862-2.014-0.113-2.826l5.935-6.43L21.141,21c0.749-0.81,3.402-0.219,4.216,0.531c0.812,0.75,0.862,2.016,0.113,2.826l-12,13C13.075,37.785,12.538,38,11.999,38z"/><path fill="#2d4c5c" d="M16.465,28.215L21.141,21c0.749-0.81,3.402-0.219,4.216,0.531c0.812,0.75,0.862,2.016,0.113,2.826L19.338,31L16.465,28.215z"/><path fill="#455a64" d="M30.5 40A1.5 1.5 0 1 0 30.5 43A1.5 1.5 0 1 0 30.5 40Z"/><path fill="#455a64" d="M27.5 40A1.5 1.5 0 1 0 27.5 43 1.5 1.5 0 1 0 27.5 40zM33.5 40A1.5 1.5 0 1 0 33.5 43 1.5 1.5 0 1 0 33.5 40zM10.195 38A1.5 1.5 0 1 0 10.195 41 1.5 1.5 0 1 0 10.195 38z"/><path fill="#455a64" d="M12.5 40A1.5 1.5 0 1 0 12.5 43A1.5 1.5 0 1 0 12.5 40Z"/><path fill="#00acc1" d="M24,26.5c-0.896,0-1.791-0.34-2.475-1.023c-1.367-1.367-1.367-3.584,0-4.949l7.5-7.502c1.367-1.367,3.582-1.367,4.949,0c1.367,1.365,1.367,3.584,0,4.949l-7.5,7.502C25.791,26.16,24.896,26.5,24,26.5z"/><path fill="#ffb74d" d="M31.5,15H14.583c-0.828,0-1.5-0.672-1.5-1.5s0.672-1.5,1.5-1.5H31.5c0.828,0,1.5,0.672,1.5,1.5S32.328,15,31.5,15z"/><path fill="#455a64" d="M7.875 36A1.5 1.5 0 1 0 7.875 39A1.5 1.5 0 1 0 7.875 36Z"/><path fill="#00acc1" d="M31.5,12H25v3h6.5c0.828,0,1.5-0.672,1.5-1.5C33,12.672,32.328,12,31.5,12z"/><path fill="#0097a7" d="M27.051,15l-5.526,5.527c-1.01,1.009-1.269,2.481-0.786,3.733L30,15H27.051z"/><path fill="#ffba57" d="M30,40c-1.104,0-2-0.895-2-2v-7.969l-6.021-4.176c-0.899-0.645-1.249-2.117-0.607-3.016c0.642-0.902,5.681,0.52,6.579,1.16l3.211,3.373C31.688,27.75,32,28.355,32,29v9C32,39.105,31.104,40,30,40z"/><path fill="#546e7a" d="M28,30.031l3.162-2.659L27.951,24L23,19.052l-1.475,1.475c-1.367,1.365-1.367,3.582,0,4.949c0.109,0.109,0.23,0.193,0.349,0.285c0.036,0.03,0.067,0.067,0.105,0.094l0.067,0.046c0.017,0.011,0.032,0.023,0.049,0.034L28,30.031z"/></svg>