<svg xmlns="http://www.w3.org/2000/svg"  viewBox="0 0 48 48" width="48px" height="48px"><path fill="#7986cb" d="M34.87,24.189c-5.274-0.834-12.165-10.088-13.65-16.502c-0.101-0.436-0.517-0.725-0.963-0.682 c-1.49,0.142-3.261,0.625-4.6,1.132C14.143,8.71,11.29,9.453,9.389,9.67c-0.454,0.052-0.794,0.42-0.807,0.877 c-0.118,4.3-0.992,7.144-1.657,9.066c-0.573,1.656-1.068,3.086-1.068,6.203C5.858,27.543,6.96,31.908,7,32h9l1-3 c2.423,1.251,8.253,3,12,3c0,0,11,0,13,0C41.377,28.96,40,25,34.87,24.189z"/><path fill="#90a4ae" d="M37.59,35.788L40,32H8l3.298,3.788l5.44,2.72l0.56-1.121C18.066,35.852,19.283,35,21,35h6 c1.717,0,2.916,0.852,3.683,2.387l0.56,1.121L37.59,35.788z"/><circle cx="13" cy="39" r="5" fill="#37474f"/><circle cx="13" cy="39" r="2" fill="#cfd8dc"/><circle cx="35" cy="39" r="5" fill="#37474f"/><circle cx="35" cy="39" r="2" fill="#cfd8dc"/><path fill="#673ab7" d="M23.11,12.6l-3.21,1.6c-0.14,0.08-0.29,0.11-0.44,0.11c-0.37,0-0.72-0.2-0.9-0.55 c-0.24-0.5-0.04-1.1,0.45-1.35l3.25-1.62C22.51,11.39,22.79,11.99,23.11,12.6z"/><path fill="#673ab7" d="M25.19,16.09l-3.47,1.74c-0.15,0.07-0.3,0.11-0.45,0.11c-0.37,0-0.72-0.21-0.89-0.56 c-0.25-0.49-0.05-1.09,0.44-1.34l3.29-1.64C24.45,14.97,24.81,15.53,25.19,16.09z"/><path fill="#673ab7" d="M27.75,19.35l-4.22,2.11c-0.14,0.07-0.29,0.1-0.45,0.1c-0.36,0-0.71-0.2-0.89-0.55 c-0.25-0.49-0.05-1.1,0.45-1.34l3.79-1.9C26.85,18.32,27.29,18.85,27.75,19.35z"/><path fill="#ffb74d" d="M42,32c-2,0-13,0-13,0c-3.75,0-9.58-1.75-12-3l-1,3H7c-0.04-0.09-1.14-4.46-1.14-6.18 c0-0.37,0.01-0.71,0.02-1.04C9,24,13.539,25.14,15.84,26.15c0.535,0.235,2.08,1.07,2.08,1.07C20.06,28.33,25.57,30,29,30h12.48 C41.71,30.68,41.87,31.36,42,32z"/></svg>