<svg xmlns="http://www.w3.org/2000/svg"  viewBox="0 0 48 48" width="48px" height="48px"><path fill="#ff5722" d="M39.365,17.681c0,0,3.208,3.224,4.138,4.153s0.41,2.956-1.161,4.527c-1.571,1.571-3.597,2.09-4.527,1.161c-0.929-0.929-4.794-4.903-4.794-4.903"/><path fill="#bf360c" d="M40.545 22.62A0.948 1.897 0 1 0 40.545 26.413999999999998A0.948 1.897 0 1 0 40.545 22.62Z" transform="rotate(45.001 40.545 24.516)"/><path fill="#ff5722" d="M21.386,35.686c0,0,3.208,3.224,4.138,4.153s0.41,2.956-1.161,4.527c-1.571,1.571-3.597,2.09-4.527,1.161s-4.794-4.903-4.794-4.903"/><path fill="#ffcc80" d="M11.644,45.96L11.644,45.96c-2.573-0.001-5.084-1.049-6.89-2.876c-1.249-1.266-1.738-2.521-1.728-3.839c0.02-2.332,2.378-3.882,4.468-5.929c0.366-0.358,0.739-0.725,1.111-1.101L29.257,11.31c1.271-1.286,2.328-2.688,3.351-4.042c2.256-2.99,4.005-6.196,7.166-5.018c2.255,0.841,4.236,3.643,4.922,6.75C44.851,9.703,45,10.614,45,11.667c0,2.317-0.721,5.324-3.682,8.322L17.902,43.406C16.275,45.053,14.052,45.96,11.644,45.96z"/><path fill="#455a64" d="M3.106,40.153c0.021,0.123,0.054,0.245,0.086,0.367c0.052,0.194,0.115,0.388,0.195,0.581c0.021,0.052,0.044,0.105,0.068,0.157c0.09,0.197,0.198,0.394,0.319,0.59c0.077,0.123,0.152,0.245,0.243,0.367c0.032,0.045,0.07,0.09,0.104,0.135c1.702,1.349,3.839,2.112,6.025,2.113h0.001c2.408,0,4.631-0.907,6.258-2.554l23.417-23.417c4.307-4.361,3.874-8.741,3.378-10.989c-0.329-1.49-0.793-2.914-1.587-4.075c-0.576-0.523-1.193-0.938-1.839-1.179c-3.161-1.179-4.91,2.027-7.166,5.018c-1.022,1.354-2.08,2.756-3.351,4.042L8.606,32.216c-0.372,0.376-0.745,0.742-1.111,1.101c-2.09,2.047-4.448,3.597-4.468,5.929c-0.002,0.217,0.017,0.431,0.042,0.645C3.079,39.978,3.09,40.065,3.106,40.153z"/><path fill="#90a4ae" d="M32.027 12.983A1 1 0 1 0 32.027 14.983 1 1 0 1 0 32.027 12.983zM36.027 15.983A1 1 0 1 0 36.027 17.983 1 1 0 1 0 36.027 15.983zM29.027 15.983A1 1 0 1 0 29.027 17.983 1 1 0 1 0 29.027 15.983zM33.027 18.983A1 1 0 1 0 33.027 20.983 1 1 0 1 0 33.027 18.983zM15.027 29.983A1 1 0 1 0 15.027 31.983 1 1 0 1 0 15.027 29.983zM19.027 32.983A1 1 0 1 0 19.027 34.983 1 1 0 1 0 19.027 32.983zM12.027 32.983A1 1 0 1 0 12.027 34.983 1 1 0 1 0 12.027 32.983zM16.027 35.983A1 1 0 1 0 16.027 37.983 1 1 0 1 0 16.027 35.983z"/><path fill="#bf360c" d="M22.566 40.625A0.948 1.897 0 1 0 22.566 44.419A0.948 1.897 0 1 0 22.566 40.625Z" transform="rotate(45.001 22.566 42.522)"/></svg>