<svg xmlns="http://www.w3.org/2000/svg"  viewBox="0 0 48 48" width="48px" height="48px"><path fill="#e64a19" d="M20,24C20,11,30,5,30,5h-9.6C11.908,5,5,13.523,5,24s6.908,19,15.4,19H30C30,43,20,37,20,24z"/><path fill="#ff754c" d="M30,5c-7.72,0-14,8.523-14,19s6.28,19,14,19s14-8.523,14-19S37.72,5,30,5z M30,32c-3.309,0-6-3.589-6-8s2.691-8,6-8s6,3.589,6,8S33.309,32,30,32z"/><path fill="#c93d18" d="M30,16c-1.887,0-3.571,1.17-4.672,2.992C26.879,19.726,28,21.683,28,24s-1.121,4.274-2.672,5.008C26.429,30.83,28.113,32,30,32c3.309,0,6-3.589,6-8S33.309,16,30,16z"/></svg>