<svg xmlns="http://www.w3.org/2000/svg"  viewBox="0 0 48 48" width="48px" height="48px"><path fill="#455a64" d="M12.416,44.996c-2.522,0-4.894-0.982-6.677-2.766l0,0c-1.783-1.783-2.766-4.153-2.766-6.676c0-2.521,0.982-4.893,2.766-6.676L28.856,5.761c3.682-3.682,9.67-3.682,13.352,0c1.783,1.783,2.766,4.154,2.766,6.677s-0.982,4.893-2.766,6.676L19.092,42.23C17.308,44.013,14.938,44.996,12.416,44.996z"/><path fill="#607d8b" d="M41.689 14.433l-2.728 2.728 2.6 2.6.646-.646c.718-.718 1.3-1.535 1.746-2.416L41.689 14.433zM6.233 33.522l-2.236-2.236c-.665 1.308-1.023 2.76-1.023 4.269 0 .057.007.113.008.17l.524.524L6.233 33.522zM6.236 38.975l-2.727-2.727-.458.458c.174 1.437.668 2.799 1.454 4L6.236 38.975z"/><path fill="#607d8b" d="M23.333 31.621H27.189999999999998V35.298H23.333z" transform="rotate(-45.001 25.261 33.46)"/><path fill="#607d8b" d="M14.415 41.708l-2.727 2.727.552.552c.059.001.117.009.177.009 1.508 0 2.958-.358 4.265-1.021L14.415 41.708zM43.418 7.245c-.349-.528-.752-1.026-1.21-1.483-.473-.473-.986-.884-1.526-1.235l-1.718 1.718 2.727 2.727L43.418 7.245zM8.961 41.706l-1.736 1.736c1.196.791 2.554 1.287 3.986 1.469l.477-.477L8.961 41.706zM35.722 3.009l.511.511.443-.443C36.36 3.039 36.042 3.016 35.722 3.009zM44.89 11.246l-.462.462.536.535C44.957 11.907 44.931 11.575 44.89 11.246z"/><path fill="#607d8b" d="M34.242 20.712H38.099V24.389H34.242z" transform="rotate(-45.001 36.168 22.551)"/><path fill="#607d8b" d="M28.787 26.167H32.644V29.844H28.787z" transform="rotate(-45.001 30.716 28.006)"/><path fill="#607d8b" d="M39.765 9.776H43.622V13.632H39.765z" transform="rotate(-134.999 41.693 11.705)"/><path fill="#607d8b" d="M38.961,6.25L38.961,6.25l-2.727-2.728L33.507,6.25l-2.233-2.234c-0.871,0.44-1.69,1.017-2.417,1.744L28.21,6.408l2.57,2.57l-2.727,2.727l-2.57-2.57l-2.727,2.727l2.57,2.57l-2.727,2.727l-2.57-2.57L17.3,17.317l2.57,2.57l-2.727,2.727l-2.57-2.57l-2.728,2.728l2.57,2.57l-2.727,2.727l-2.57-2.57l-2.728,2.728l2.57,2.57l-2.727,2.727l2.727,2.727l-2.727,2.727l2.728,2.728l2.727-2.727l2.727,2.727l2.727-2.727l2.601,2.6l2.728-2.728l-2.6-2.6l0,0l-0.001-0.001l-2.727,2.727l-2.727-2.727l2.727-2.727l2.727,2.727l2.727-2.727l-2.727-2.727l2.727-2.727l2.727,2.727l2.727-2.728l-2.727-2.727l2.727-2.727l2.727,2.727l2.727-2.728l-2.727-2.727l2.727-2.727l2.727,2.727l2.727-2.728l-2.727-2.727l2.727-2.727l0,0l0,0l-2.727-2.727L38.961,6.25L38.961,6.25z M11.689,38.977L8.961,36.25l2.727-2.727l2.727,2.727L11.689,38.977z M11.689,33.523l-2.727-2.727l2.727-2.727l2.727,2.727L11.689,33.523z M17.143,33.523l-2.727-2.727l2.727-2.727l2.727,2.727L17.143,33.523z M17.143,28.068l-2.727-2.727l2.727-2.727l2.727,2.727L17.143,28.068z M22.598,28.068l-2.727-2.727l2.727-2.727l2.727,2.727L22.598,28.068z M22.598,22.614l-2.727-2.727l2.727-2.727l2.727,2.727L22.598,22.614z M28.052,22.614l-2.727-2.727l2.727-2.727l2.727,2.727L28.052,22.614z M28.052,17.159l-2.727-2.727l2.727-2.727l2.727,2.727L28.052,17.159z M33.507,17.159l-2.727-2.727l2.727-2.727l2.727,2.727L33.507,17.159z M33.507,11.705L30.78,8.978l2.727-2.727l2.727,2.727L33.507,11.705z"/></svg>