<svg xmlns="http://www.w3.org/2000/svg"  viewBox="0 0 48 48" width="48px" height="48px"><path fill="#ffba57" d="M27,18h-6c-0.3,0-0.5,0-0.7-0.1l-10-4c-1-0.4-1.5-1.6-1.1-2.6c0.4-1,1.6-1.5,2.6-1.1l9.6,3.9h5.2 l9.6-3.9c1-0.4,2.2,0.1,2.6,1.1c0.4,1-0.1,2.2-1.1,2.6l-10,4C27.5,18,27.3,18,27,18z"/><path fill="#ffb74d" d="M24,4c2.2,0,4,1.8,4,4s-1.8,4-4,4s-4-1.8-4-4S21.8,4,24,4"/><path fill="#e4d8c4" d="M12 44c-.3 0-.7-.2-.9-.5-.3-.5-.1-1.1.4-1.4C11.7 42 17 39 24 39s12.3 3 12.5 3.1c.5.3.6.9.4 1.4-.3.5-.9.6-1.4.4 0 0-5-2.9-11.5-2.9-6.5 0-11.4 2.8-11.5 2.9C12.3 44 12.2 44 12 44zM18 38c-.4 0-.8-.2-.9-.6-.2-.5.1-1.1.6-1.3.1 0 2.9-1.1 6.4-1.1 3.5 0 6.2 1 6.4 1.1.5.2.8.8.6 1.3-.2.5-.8.8-1.3.6 0 0-2.6-.9-5.7-.9-3.1 0-5.6.9-5.6.9C18.2 38 18.1 38 18 38z"/><path fill="#7e8ccf" d="M26.6,14h-5.2L20,17.8V25h8v-7.2L26.6,14z"/><path fill="#ff754c" d="M36.4,32.6L28,22h-8l-8.4,10.6c-0.8,0.8-0.8,2,0,2.8s2,0.8,2.8,0L24,26l9.6,9.4 C34,35.8,34.5,36,35,36s1-0.2,1.4-0.6C37.2,34.6,37.2,33.4,36.4,32.6z"/><path fill="#e64a19" d="M14.9,34.9L24,24l9.1,11L24,26L14.9,34.9z"/></svg>