<svg id="Capa_1" enable-background="new 0 0 510 510" height="512" viewBox="0 0 510 510" width="512" xmlns="http://www.w3.org/2000/svg" xmlns:xlink="http://www.w3.org/1999/xlink"><linearGradient id="SVGID_1_" gradientUnits="userSpaceOnUse" x1="230.039" x2="394.039" y1="209.188" y2="510.188"><stop offset="0" stop-color="#c59191"/><stop offset="1" stop-color="#9b5e5e"/></linearGradient><linearGradient id="lg1"><stop offset="0" stop-color="#9b5e5e" stop-opacity="0"/><stop offset=".2469" stop-color="#955857" stop-opacity=".247"/><stop offset=".6116" stop-color="#854943" stop-opacity=".612"/><stop offset="1" stop-color="#6d3326"/></linearGradient><linearGradient id="SVGID_00000170253758933864834720000007996658689216959648_" gradientUnits="userSpaceOnUse" x1="-9.68" x2="383.32" xlink:href="#lg1" y1="58.582" y2="566.582"/><linearGradient id="SVGID_00000085938989005547681200000009500474762807251079_" gradientUnits="userSpaceOnUse" x1="255" x2="255" xlink:href="#lg1" y1="445.701" y2="505.698"/><linearGradient id="SVGID_00000052803109101377543200000007172358619056412574_" gradientUnits="userSpaceOnUse" x1="255" x2="255" xlink:href="#lg1" y1="430" y2="381.834"/><linearGradient id="SVGID_00000052806130829624802250000007982119934865358227_" gradientTransform="matrix(0 -1 1 0 1637.345 -2191.345)" gradientUnits="userSpaceOnUse" x1="-2446.345" x2="-2446.345" xlink:href="#lg1" y1="-1191.644" y2="-1131.647"/><linearGradient id="lg2"><stop offset="0" stop-color="#e1d3ce"/><stop offset="1" stop-color="#9e9797"/></linearGradient><linearGradient id="SVGID_00000044145787872210474100000017305285254523884942_" gradientUnits="userSpaceOnUse" x1="150.509" x2="400.509" xlink:href="#lg2" y1="46.272" y2="432.272"/><linearGradient id="lg3"><stop offset="0" stop-color="#433f43" stop-opacity="0"/><stop offset=".3007" stop-color="#3c393c" stop-opacity=".301"/><stop offset=".7373" stop-color="#292729" stop-opacity=".737"/><stop offset="1" stop-color="#1a1a1a"/></linearGradient><linearGradient id="SVGID_00000080923779449455257420000009306675306626491272_" gradientUnits="userSpaceOnUse" x1="255" x2="255" xlink:href="#lg3" y1="350" y2="399.092"/><linearGradient id="SVGID_00000177461555577836643200000001802322219739164556_" gradientUnits="userSpaceOnUse" x1="226" x2="273.061" xlink:href="#lg3" y1="207.606" y2="207.606"/><linearGradient id="SVGID_00000146460870957817952040000013824901816516300177_" gradientUnits="userSpaceOnUse" x1="208.197" x2="426.945" y1="160.803" y2="379.551"><stop offset="0" stop-color="#99e6fc"/><stop offset="1" stop-color="#01c0fa"/></linearGradient><linearGradient id="lg4"><stop offset="0" stop-color="#017bae" stop-opacity="0"/><stop offset="1" stop-color="#017bae"/></linearGradient><linearGradient id="SVGID_00000021119282092381585930000010472160092537385902_" gradientUnits="userSpaceOnUse" x1="333.632" x2="288.632" xlink:href="#lg4" y1="330.66" y2="70.66"/><linearGradient id="SVGID_00000061432510388975343630000014526809104353692320_" gradientUnits="userSpaceOnUse" x1="158.01" x2="121.195" xlink:href="#lg4" y1="336.035" y2="123.329"/><linearGradient id="SVGID_00000175310113662736768020000010150591050132176831_" gradientUnits="userSpaceOnUse" x1="255" x2="255" xlink:href="#lg4" y1="78" y2="41.333"/><linearGradient id="SVGID_00000155866208789869016250000016602963453814170536_" gradientUnits="userSpaceOnUse" x1="284" x2="252.667" xlink:href="#lg4" y1="207.606" y2="207.606"/><linearGradient id="lg5"><stop offset="0" stop-color="#fff"/><stop offset="1" stop-color="#eaf6ff" stop-opacity="0"/></linearGradient><linearGradient id="SVGID_00000023259528185387072060000012541700727334067868_" gradientUnits="userSpaceOnUse" x1="300.854" x2="390.854" xlink:href="#lg5" y1="92.262" y2="226.262"/><linearGradient id="SVGID_00000098933304541180413530000009720965693812231307_" gradientUnits="userSpaceOnUse" x1="66.854" x2="156.854" xlink:href="#lg5" y1="184.688" y2="318.688"/><linearGradient id="SVGID_00000138545780325510956580000006418716747357388979_" gradientUnits="userSpaceOnUse" x1="149.195" x2="94.529" xlink:href="#lg4" y1="205.961" y2="182.628"/><linearGradient id="SVGID_00000092432487993906373920000015158998638886507915_" gradientUnits="userSpaceOnUse" x1="273.317" x2="470.291" xlink:href="#lg2" y1="79.756" y2="383.884"/><linearGradient id="SVGID_00000124853807284354698300000010851668867399832458_" gradientUnits="userSpaceOnUse" x1="359.08" x2="359.08" xlink:href="#lg3" y1="355" y2="406.039"/><linearGradient id="lg6"><stop offset="0" stop-color="#fffdf1"/><stop offset="1" stop-color="#fff5c6"/></linearGradient><linearGradient id="SVGID_00000070094414386387988850000009186251992880874624_" gradientUnits="userSpaceOnUse" x1="57.384" x2="86.384" xlink:href="#lg6" y1="359.513" y2="424.263"/><linearGradient id="lg7"><stop offset="0" stop-color="#fea613" stop-opacity="0"/><stop offset=".1832" stop-color="#fc9b19" stop-opacity=".183"/><stop offset=".5086" stop-color="#f57d28" stop-opacity=".509"/><stop offset=".9356" stop-color="#eb4c40" stop-opacity=".936"/><stop offset="1" stop-color="#e94444"/></linearGradient><linearGradient id="SVGID_00000134231666546814591190000012169968571220830898_" gradientUnits="userSpaceOnUse" x1="56.682" x2="103.182" xlink:href="#lg7" y1="382.783" y2="338.283"/><linearGradient id="SVGID_00000168098993843557273730000001467767027212513177_" gradientUnits="userSpaceOnUse" x1="81.76" x2="81.76" xlink:href="#lg7" y1="371" y2="340.353"/><linearGradient id="SVGID_00000152975230112677027640000007748277863118002074_" gradientUnits="userSpaceOnUse" x1="43.523" x2="106.857" xlink:href="#lg6" y1="161.998" y2="203.331"/><linearGradient id="SVGID_00000008858540279987634600000013652354776205632934_" gradientUnits="userSpaceOnUse" x1="99.725" x2="165.058" xlink:href="#lg7" y1="205.316" y2="246.649"/><linearGradient id="SVGID_00000090989737240098311210000002876215783231307685_" gradientUnits="userSpaceOnUse" x1="81.005" x2="159.672" xlink:href="#lg7" y1="194.523" y2="193.189"/><linearGradient id="SVGID_00000164484932233112686030000003813001078758036911_" gradientUnits="userSpaceOnUse" x1="69.662" x2="110.662" xlink:href="#lg7" y1="201.134" y2="219.134"/><linearGradient id="lg8"><stop offset="0" stop-color="#fef48b"/><stop offset=".1462" stop-color="#fdf07e"/><stop offset=".4164" stop-color="#fce55c"/><stop offset=".778" stop-color="#fbd325"/><stop offset="1" stop-color="#fac600"/></linearGradient><linearGradient id="SVGID_00000080897996165960997590000012361664951787903915_" gradientUnits="userSpaceOnUse" x1="47.006" x2="56.506" xlink:href="#lg8" y1="332.891" y2="356.391"/><linearGradient id="SVGID_00000124122652960388319910000008903366557159231408_" gradientUnits="userSpaceOnUse" x1="427.82" x2="451.153" xlink:href="#lg6" y1="378.282" y2="416.282"/><linearGradient id="SVGID_00000181076387123916172740000011328504910804908687_" gradientTransform="matrix(-1 0 0 1 191.292 0)" gradientUnits="userSpaceOnUse" x1="-262.026" x2="-215.526" xlink:href="#lg7" y1="382.783" y2="338.283"/><linearGradient id="SVGID_00000136396152410966389630000006011033891275332739_" gradientTransform="matrix(-1 0 0 1 191.292 0)" gradientUnits="userSpaceOnUse" x1="-236.948" x2="-236.948" xlink:href="#lg7" y1="371" y2="340.353"/><linearGradient id="SVGID_00000106853511998558926770000006243007986429615791_" gradientUnits="userSpaceOnUse" x1="359.396" x2="455.396" xlink:href="#lg6" y1="153.423" y2="189.423"/><linearGradient id="SVGID_00000000193309993860084120000000299581381206475137_" gradientTransform="matrix(-1 0 0 1 191.292 0)" gradientUnits="userSpaceOnUse" x1="-218.983" x2="-153.649" xlink:href="#lg7" y1="205.316" y2="246.649"/><linearGradient id="SVGID_00000165223110340293279910000013798146930363603602_" gradientTransform="matrix(-1 0 0 1 191.292 0)" gradientUnits="userSpaceOnUse" x1="-237.703" x2="-159.036" xlink:href="#lg7" y1="194.523" y2="193.189"/><linearGradient id="SVGID_00000106147282648069288370000014156950217297089924_" gradientTransform="matrix(-1 0 0 1 191.292 0)" gradientUnits="userSpaceOnUse" x1="-249.046" x2="-208.046" xlink:href="#lg7" y1="201.134" y2="219.134"/><linearGradient id="SVGID_00000009579127808161449660000000332007666230140592_" gradientTransform="matrix(-1 0 0 1 191.292 0)" gradientUnits="userSpaceOnUse" x1="-271.702" x2="-262.202" xlink:href="#lg8" y1="332.891" y2="356.391"/><linearGradient id="SVGID_00000172417599083909023700000003668794936027394481_" gradientUnits="userSpaceOnUse" x1="255" x2="255" xlink:href="#lg8" y1="35" y2="47.51"/><g><g><path d="m479 510h-448c-17.121 0-31-13.879-31-31v-448c0-17.121 13.879-31 31-31h448c17.121 0 31 13.879 31 31v448c0 17.121-13.879 31-31 31z" fill="url(#SVGID_1_)"/><path d="m0 311.832v167.168c0 17.121 13.879 31 31 31h448c17.121 0 31-13.879 31-31v-167.168z" fill="url(#SVGID_00000170253758933864834720000007996658689216959648_)"/><path d="m0 311.832v167.168c0 17.121 13.879 31 31 31h448c17.121 0 31-13.879 31-31v-167.168z" fill="url(#SVGID_00000085938989005547681200000009500474762807251079_)"/><path d="m41.513 361.173h426.974v148.827h-426.974z" fill="url(#SVGID_00000052803109101377543200000007172358619056412574_)"/><path d="m311.832 510h167.168c17.121 0 31-13.879 31-31v-448c0-17.121-13.879-31-31-31h-167.168z" fill="url(#SVGID_00000052806130829624802250000007982119934865358227_)"/></g><g><path d="m453.404 378.598h-396.808c-12.586 0-22.789-10.203-22.789-22.789v-296.405c0-12.586 10.203-22.789 22.789-22.789h396.807c12.586 0 22.789 10.203 22.789 22.789v296.405c0 12.586-10.202 22.789-22.788 22.789z" fill="url(#SVGID_00000044145787872210474100000017305285254523884942_)"/><path d="m33.807 215v140.809c0 12.586 10.203 22.789 22.789 22.789h396.807c12.586 0 22.789-10.203 22.789-22.789v-140.809z" fill="url(#SVGID_00000080923779449455257420000009306675306626491272_)"/><path d="m148 36.615h171v341.983h-171z" fill="url(#SVGID_00000177461555577836643200000001802322219739164556_)"/><path d="m443 360.212h-376c-7.732 0-14-6.268-14-14v-277.212c0-7.732 6.268-14 14-14h376c7.732 0 14 6.268 14 14v277.212c0 7.732-6.268 14-14 14z" fill="url(#SVGID_00000146460870957817952040000013824901816516300177_)"/><path d="m392.319 214.644 68.421 71.632c5.614 5.878 8.747 13.693 8.747 21.821v52.115h-270.969l139.042-145.568c14.914-15.614 39.845-15.614 54.759 0z" fill="url(#SVGID_00000021119282092381585930000010472160092537385902_)"/><path d="m206.021 241.123 55.975 58.602c4.593 4.808 7.156 11.202 7.156 17.852v42.635h-221.68l113.75-119.089c12.202-12.774 32.598-12.774 44.799 0z" fill="url(#SVGID_00000061432510388975343630000014526809104353692320_)"/><path d="m443 55h-376c-7.732 0-14 6.268-14 14v63h404v-63c0-7.732-6.268-14-14-14z" fill="url(#SVGID_00000175310113662736768020000010150591050132176831_)"/><path d="m259.333 55h106.167v305.212h-106.167z" fill="url(#SVGID_00000155866208789869016250000016602963453814170536_)"/><path d="m303.875 195.121h9.511c.558 4.848 2.68 9.551 6.399 13.27 8.041 8.041 20.663 8.671 29.449 1.933 11.634 11.003 29.97 10.834 41.364-.56 4.197-4.197 6.852-9.342 8.01-14.743 14.176-1.02 25.367-12.814 25.367-27.249 0-15.105-12.245-27.349-27.349-27.349-3.574 0-6.984.692-10.113 1.939-3.984-20.323-21.885-35.659-43.375-35.659-24.402 0-44.185 19.771-44.208 44.167-9.992 2.253-17.458 11.176-17.458 21.849 0 12.372 10.031 22.402 22.403 22.402z" fill="url(#SVGID_00000023259528185387072060000012541700727334067868_)"/><path d="m69.875 287.547h9.511c.558 4.848 2.68 9.551 6.399 13.27 8.041 8.041 20.663 8.671 29.449 1.933 11.634 11.003 29.97 10.834 41.364-.56 4.197-4.197 6.852-9.342 8.01-14.743 14.176-1.02 25.367-12.814 25.367-27.249 0-15.105-12.245-27.349-27.349-27.349-3.574 0-6.984.692-10.113 1.939-3.984-20.323-21.885-35.659-43.375-35.659-24.402 0-44.185 19.771-44.208 44.167-9.992 2.253-17.458 11.176-17.458 21.849 0 12.372 10.03 22.402 22.403 22.402z" fill="url(#SVGID_00000098933304541180413530000009720965693812231307_)"/><path d="m67 55c-7.732 0-14 6.268-14 14v277.212c0 7.732 6.268 14 14 14h174.97v-305.212z" fill="url(#SVGID_00000138545780325510956580000006418716747357388979_)"/><path d="m453.4 36.61h-201.615c-5.421 0-9.815 4.394-9.815 9.815v322.36c0 5.421 4.394 9.815 9.815 9.815h201.615c12.587 0 22.79-10.203 22.79-22.79v-296.41c0-12.58-10.2-22.79-22.79-22.79zm3.6 309.6c0 7.732-6.268 14-14 14h-159.38c-8.61 0-15.59-6.98-15.59-15.59v-274.03c0-8.61 6.98-15.59 15.59-15.59h159.38c7.732 0 14 6.268 14 14z" fill="url(#SVGID_00000092432487993906373920000015158998638886507915_)"/><path d="m457 215v131.21c0 7.732-6.268 14-14 14h-159.38c-8.61 0-15.59-6.98-15.59-15.59v-129.62h-26.06v153.785c0 5.404 4.369 9.786 9.767 9.813h201.76c12.542-.052 22.693-10.233 22.693-22.787v-140.811z" fill="url(#SVGID_00000124853807284354698300000010851668867399832458_)"/></g><g><g><path d="m136.835 415.723c2.768 6.923-2.176 14.304-9.619 14.734-5.143.297-10.173 1.915-14.097 4.858l-9.18 6.874c-8.75 6.545-22.942 6.545-31.692 0l-9.18-6.874c-6.004-4.498-14.579-5.907-22.197-4.22-4.134.915-8.049-2.222-8.049-6.456v-100.639c6.659 3.022 13.046 6.158 19.147 9.409 43.306 23.029 72.584 51.592 84.867 82.314z" fill="url(#SVGID_00000070094414386387988850000009186251992880874624_)"/><path d="m37.854 431.063c1.92-.675 3.935-.823 5.898-.453 6.831-.803 14.058.767 19.316 4.705l9.18 6.874c.808.604 1.674 1.133 2.566 1.626.546-.493 1.077-1.022 1.572-1.626l5.623-6.874c2.404-2.943 5.485-4.561 8.635-4.858 4.559-.43 7.587-7.811 5.892-14.734-7.524-30.722-25.458-59.285-51.985-82.314-3.737-3.251-7.649-6.387-11.729-9.409v100.639c.001 3.169 2.195 5.723 5.032 6.424z" fill="url(#SVGID_00000134231666546814591190000012169968571220830898_)"/><path d="m32.823 403h97.874c-14.6-25.86-41.465-49.775-78.727-69.591-6.101-3.251-12.488-6.387-19.147-9.409z" fill="url(#SVGID_00000168098993843557273730000001467767027212513177_)"/><path d="m165.679 49.388v5.039c0 114.371-48.24 223.437-132.859 300.381v-303.657c0-8.584 6.958-15.542 15.542-15.542h103.539c7.609 0 13.778 6.169 13.778 13.779z" fill="url(#SVGID_00000152975230112677027640000007748277863118002074_)"/><path d="m134.68 60.521v-24.912h-86.318c-8.584 0-15.542 6.958-15.542 15.542v303.657l3.457-4.1c62.673-74.333 98.403-179.697 98.403-290.187z" fill="url(#SVGID_00000008858540279987634600000013652354776205632934_)"/><path d="m99.249 60.521v-24.912h-50.887c-8.584 0-15.542 6.958-15.542 15.542v303.657l2.255-4.1c40.873-74.333 64.174-179.697 64.174-290.187z" fill="url(#SVGID_00000090989737240098311210000002876215783231307685_)"/><path d="m79.513 60.521v-24.912h-31.151c-8.584 0-15.542 6.958-15.542 15.542v303.657l1.585-4.1c28.729-74.333 45.108-179.697 45.108-290.187z" fill="url(#SVGID_00000164484932233112686030000003813001078758036911_)"/><path d="m76.762 344.16c-.069 7.514-7.719 12.663-14.701 9.885-3.296-1.311-6.976-2.045-10.86-2.045s-7.565.733-10.86 2.045c-6.982 2.778-14.631-2.371-14.701-9.885-.001-.057-.001-.115-.001-.172 0-11.932 11.444-21.605 25.562-21.605s25.562 9.673 25.562 21.605c0 .057 0 .115-.001.172z" fill="url(#SVGID_00000080897996165960997590000012361664951787903915_)"/></g><g><path d="m373.165 415.723c-2.768 6.923 2.176 14.304 9.619 14.734 5.143.297 10.173 1.915 14.097 4.858l9.18 6.874c8.75 6.545 22.942 6.545 31.692 0l9.18-6.874c6.004-4.498 14.579-5.907 22.197-4.22 4.134.915 8.049-2.222 8.049-6.456v-100.639c-6.659 3.022-13.046 6.158-19.147 9.409-43.306 23.029-72.584 51.592-84.867 82.314z" fill="url(#SVGID_00000124122652960388319910000008903366557159231408_)"/><path d="m472.146 431.063c-1.92-.675-3.935-.823-5.898-.453-6.831-.803-14.058.767-19.316 4.705l-9.18 6.874c-.808.604-1.674 1.133-2.566 1.626-.546-.493-1.077-1.022-1.572-1.626l-5.623-6.874c-2.404-2.943-5.485-4.561-8.635-4.858-4.559-.43-7.587-7.811-5.892-14.734 7.524-30.722 25.458-59.285 51.985-82.314 3.737-3.251 7.649-6.387 11.729-9.409v100.639c-.001 3.169-2.195 5.723-5.032 6.424z" fill="url(#SVGID_00000181076387123916172740000011328504910804908687_)"/><path d="m477.177 403h-97.874c14.6-25.86 41.465-49.775 78.727-69.591 6.101-3.251 12.488-6.387 19.147-9.409z" fill="url(#SVGID_00000136396152410966389630000006011033891275332739_)"/><path d="m344.321 49.388v5.039c0 114.371 48.24 223.437 132.859 300.381v-303.657c0-8.584-6.958-15.542-15.542-15.542h-103.539c-7.609 0-13.778 6.169-13.778 13.779z" fill="url(#SVGID_00000106853511998558926770000006243007986429615791_)"/><path d="m375.32 60.521v-24.912h86.318c8.584 0 15.542 6.958 15.542 15.542v303.657l-3.457-4.1c-62.673-74.333-98.403-179.697-98.403-290.187z" fill="url(#SVGID_00000000193309993860084120000000299581381206475137_)"/><path d="m410.751 60.521v-24.912h50.888c8.584 0 15.542 6.958 15.542 15.542v303.657l-2.255-4.1c-40.874-74.333-64.175-179.697-64.175-290.187z" fill="url(#SVGID_00000165223110340293279910000013798146930363603602_)"/><path d="m430.487 60.521v-24.912h31.151c8.584 0 15.542 6.958 15.542 15.542v303.657l-1.585-4.1c-28.729-74.333-45.108-179.697-45.108-290.187z" fill="url(#SVGID_00000106147282648069288370000014156950217297089924_)"/><path d="m433.238 344.16c.069 7.514 7.719 12.663 14.701 9.885 3.296-1.311 6.976-2.045 10.86-2.045s7.565.733 10.86 2.045c6.982 2.778 14.631-2.371 14.701-9.885.001-.057.001-.115.001-.172 0-11.932-11.444-21.605-25.562-21.605s-25.562 9.673-25.562 21.605c0 .057 0 .115.001.172z" fill="url(#SVGID_00000009579127808161449660000000332007666230140592_)"/></g></g><path d="m477.722 46.609h-445.444c-3.666 0-6.639-2.972-6.639-6.639v-.722c0-3.666 2.972-6.639 6.639-6.639h445.444c3.666 0 6.639 2.972 6.639 6.639v.722c0 3.667-2.973 6.639-6.639 6.639z" fill="url(#SVGID_00000172417599083909023700000003668794936027394481_)"/></g></svg>