<svg id="Capa_1" enable-background="new 0 0 510 510" height="512" viewBox="0 0 510 510" width="512" xmlns="http://www.w3.org/2000/svg" xmlns:xlink="http://www.w3.org/1999/xlink"><linearGradient id="SVGID_1_" gradientUnits="userSpaceOnUse" x1="272.376" x2="340.737" y1="191.624" y2="292.334"><stop offset="0" stop-color="#99e6fc"/><stop offset="1" stop-color="#01c0fa"/></linearGradient><linearGradient id="lg1"><stop offset="0" stop-color="#017bae" stop-opacity="0"/><stop offset="1" stop-color="#017bae"/></linearGradient><linearGradient id="SVGID_00000059308298115493775610000001390842758926193583_" gradientUnits="userSpaceOnUse" x1="300.856" x2="300.856" xlink:href="#lg1" y1="259.026" y2="280.119"/><linearGradient id="SVGID_00000182501908049181014170000003513502246989324463_" gradientUnits="userSpaceOnUse" x1="367.582" x2="408.87" xlink:href="#lg1" y1="217.095" y2="217.095"/><linearGradient id="SVGID_00000055707858869206853370000013289259907530704288_" gradientUnits="userSpaceOnUse" x1="389.339" x2="342.839" xlink:href="#lg1" y1="250.093" y2="246.343"/><linearGradient id="SVGID_00000138542202011991498310000009927647097142008483_" gradientUnits="userSpaceOnUse" x1="315.188" x2="399.4" y1="289.67" y2="413.732"><stop offset="0" stop-color="#c59191"/><stop offset="1" stop-color="#9b5e5e"/></linearGradient><linearGradient id="lg2"><stop offset="0" stop-color="#9b5e5e" stop-opacity="0"/><stop offset=".2469" stop-color="#955857" stop-opacity=".247"/><stop offset=".6116" stop-color="#854943" stop-opacity=".612"/><stop offset="1" stop-color="#6d3326"/></linearGradient><linearGradient id="SVGID_00000182503909391851667790000014563333689001097914_" gradientUnits="userSpaceOnUse" x1="347.24" x2="347.24" xlink:href="#lg2" y1="369.5" y2="399.836"/><linearGradient id="SVGID_00000067208113516738358440000010096637087410982051_" gradientUnits="userSpaceOnUse" x1="405" x2="445.031" xlink:href="#lg2" y1="336.889" y2="336.889"/><linearGradient id="SVGID_00000098205284456625251960000000566192800761656242_" gradientUnits="userSpaceOnUse" x1="379" x2="337.851" xlink:href="#lg2" y1="336.889" y2="336.889"/><linearGradient id="SVGID_00000088848664374339450040000000244876674359483316_" gradientUnits="userSpaceOnUse" x1="255" x2="255" y1="406.589" y2="431.931"><stop offset="0" stop-color="#fd8087"/><stop offset="1" stop-color="#e74335"/></linearGradient><linearGradient id="SVGID_00000049937837279072411620000006829783617857923493_" gradientTransform="matrix(0 1 1 0 -668.345 668.345)" gradientUnits="userSpaceOnUse" x1="-366.226" x2="-366.226" y1="729.072" y2="902.027"><stop offset="0" stop-color="#e1d3ce"/><stop offset="1" stop-color="#9e9797"/></linearGradient><linearGradient id="lg3"><stop offset="0" stop-color="#433f43" stop-opacity="0"/><stop offset=".3007" stop-color="#3c393c" stop-opacity=".301"/><stop offset=".7373" stop-color="#292729" stop-opacity=".737"/><stop offset="1" stop-color="#1a1a1a"/></linearGradient><linearGradient id="SVGID_00000038395227655423983210000004032322362598450349_" gradientTransform="matrix(0 1 1 0 -668.345 668.345)" gradientUnits="userSpaceOnUse" x1="-308.585" x2="-283.985" xlink:href="#lg3" y1="797.651" y2="797.651"/><linearGradient id="SVGID_00000029755941369426914390000015637710476368844463_" gradientTransform="matrix(0 1 1 0 -668.345 668.345)" gradientUnits="userSpaceOnUse" x1="-317.029" x2="-344.565" xlink:href="#lg3" y1="745.914" y2="745.914"/><linearGradient id="lg4"><stop offset="0" stop-color="#554e56"/><stop offset="1" stop-color="#433f43"/></linearGradient><linearGradient id="SVGID_00000072968558127754704460000005145387539068937893_" gradientTransform="matrix(0 1 1 0 -668.345 668.345)" gradientUnits="userSpaceOnUse" x1="-366.224" x2="-366.224" xlink:href="#lg4" y1="728.004" y2="746.824"/><linearGradient id="SVGID_00000112622681116687827770000011200328048514401975_" gradientTransform="matrix(0 1 1 0 -668.345 668.345)" gradientUnits="userSpaceOnUse" x1="-366.224" x2="-366.224" y1="741.322" y2="753.399"><stop offset="0" stop-color="#433f43" stop-opacity="0"/><stop offset="1" stop-color="#1a1a1a"/></linearGradient><linearGradient id="SVGID_00000134952303830730611160000000976547998828661943_" gradientTransform="matrix(0 1 1 0 -668.345 668.345)" gradientUnits="userSpaceOnUse" x1="-423.988" x2="-423.988" xlink:href="#lg4" y1="995.914" y2="1012.689"/><linearGradient id="SVGID_00000151525854131931256100000016423262096684051893_" gradientTransform="matrix(0 1 1 0 -668.345 668.345)" gradientUnits="userSpaceOnUse" x1="-308.463" x2="-308.463" xlink:href="#lg4" y1="995.914" y2="1012.689"/><linearGradient id="lg5"><stop offset="0" stop-color="#bbec6c"/><stop offset="1" stop-color="#78a91f"/></linearGradient><linearGradient id="SVGID_00000008853433820040913410000000827691483540316320_" gradientTransform="matrix(0 1 1 0 -668.345 668.345)" gradientUnits="userSpaceOnUse" x1="-366.226" x2="-366.226" xlink:href="#lg5" y1="758.307" y2="774.828"/><linearGradient id="SVGID_00000160184716250453542020000012452272595352281246_" gradientTransform="matrix(0 1 1 0 -668.345 668.345)" gradientUnits="userSpaceOnUse" x1="-425.948" x2="-278.37" xlink:href="#lg5" y1="847.085" y2="940.698"/><linearGradient id="SVGID_00000120556069559158039080000007059845620059676082_" gradientTransform="matrix(0 1 1 0 -668.345 668.345)" gradientUnits="userSpaceOnUse" x1="-400.247" x2="-433.176" xlink:href="#lg5" y1="934.79" y2="934.79"/><linearGradient id="SVGID_00000027562603081663837560000004745790893930055610_" gradientTransform="matrix(0 1 1 0 -668.345 668.345)" gradientUnits="userSpaceOnUse" x1="-353.743" x2="-386.672" xlink:href="#lg5" y1="934.79" y2="934.79"/><linearGradient id="SVGID_00000018229695581143865990000013032845299433698223_" gradientTransform="matrix(0 1 1 0 -668.345 668.345)" gradientUnits="userSpaceOnUse" x1="-307.239" x2="-340.168" xlink:href="#lg5" y1="934.79" y2="934.79"/><linearGradient id="lg6"><stop offset="0" stop-color="#78a91f" stop-opacity="0"/><stop offset=".1473" stop-color="#70a421" stop-opacity=".147"/><stop offset=".3741" stop-color="#5b9927" stop-opacity=".374"/><stop offset=".6521" stop-color="#378531" stop-opacity=".652"/><stop offset=".9682" stop-color="#076b3f" stop-opacity=".968"/><stop offset="1" stop-color="#026841"/></linearGradient><linearGradient id="SVGID_00000134231275211628998930000001235781390730163901_" gradientTransform="matrix(0 1 1 0 -668.345 668.345)" gradientUnits="userSpaceOnUse" x1="-301.367" x2="-254.846" xlink:href="#lg6" y1="884.969" y2="884.969"/><linearGradient id="SVGID_00000125568412646938996240000015231832681226250928_" gradientTransform="matrix(0 1 1 0 -668.345 668.345)" gradientUnits="userSpaceOnUse" x1="-333.849" x2="-356.856" xlink:href="#lg6" y1="819.358" y2="765.022"/><linearGradient id="lg7"><stop offset="0" stop-color="#fef48b"/><stop offset=".1462" stop-color="#fdf07e"/><stop offset=".4164" stop-color="#fce55c"/><stop offset=".778" stop-color="#fbd325"/><stop offset="1" stop-color="#fac600"/></linearGradient><linearGradient id="SVGID_00000034090096706902474890000016327297130082090917_" gradientUnits="userSpaceOnUse" x1="112.18" x2="133.763" xlink:href="#lg7" y1="295.412" y2="306.539"/><linearGradient id="lg8"><stop offset="0" stop-color="#fac600" stop-opacity="0"/><stop offset=".408" stop-color="#efbd01" stop-opacity=".408"/><stop offset="1" stop-color="#d7aa02"/></linearGradient><linearGradient id="SVGID_00000181803705323218578850000013733988965748054702_" gradientUnits="userSpaceOnUse" x1="125.191" x2="125.191" xlink:href="#lg8" y1="322.47" y2="325.781"/><linearGradient id="SVGID_00000111188966658656107100000008463733259328951486_" gradientUnits="userSpaceOnUse" x1="130.981" x2="134.999" xlink:href="#lg8" y1="302.12" y2="302.12"/><linearGradient id="SVGID_00000183225815746837783710000014624636068661177766_" gradientTransform="matrix(0 1 1 0 -668.345 668.345)" gradientUnits="userSpaceOnUse" x1="-366.226" x2="-366.226" xlink:href="#lg6" y1="963.536" y2="1018.905"/><linearGradient id="SVGID_00000108310470582249639240000017921021650586606013_" gradientUnits="userSpaceOnUse" x1="126.974" x2="342.41" xlink:href="#lg7" y1="104.87" y2="438.699"/><linearGradient id="SVGID_00000166663387876807236710000000440936665085060487_" gradientUnits="userSpaceOnUse" x1="445" x2="466" xlink:href="#lg8" y1="251.329" y2="251.329"/><linearGradient id="SVGID_00000005961062001452857900000003067130275774148792_" gradientUnits="userSpaceOnUse" x1="328" x2="296.936" xlink:href="#lg8" y1="82.208" y2="82.208"/><linearGradient id="SVGID_00000052818260498326159230000016091078965741382816_" gradientUnits="userSpaceOnUse" x1="452.828" x2="452.828" xlink:href="#lg8" y1="379.237" y2="421.008"/><linearGradient id="SVGID_00000043423300152755729400000015549450406305553316_" gradientUnits="userSpaceOnUse" x1="57.172" x2="57.172" xlink:href="#lg8" y1="379.237" y2="421.008"/><linearGradient id="SVGID_00000014594136132364014240000017732804708386049187_" gradientUnits="userSpaceOnUse" x1="241" x2="266" xlink:href="#lg7" y1="74.542" y2="74.542"/><linearGradient id="SVGID_00000010299065260377425720000015048794055452908683_" gradientUnits="userSpaceOnUse" x1="255" x2="255" xlink:href="#lg7" y1="117.177" y2="139.2"/><linearGradient id="SVGID_00000013878968281991956110000009489015326735340983_" gradientUnits="userSpaceOnUse" x1="228.5" x2="202.095" xlink:href="#lg8" y1="124.786" y2="124.786"/><linearGradient id="SVGID_00000060021430807239815100000010814034534616203701_" gradientUnits="userSpaceOnUse" x1="255" x2="255" xlink:href="#lg7" y1="420.396" y2="452.927"/><linearGradient id="SVGID_00000175313749759811682450000018306395195616369028_" gradientUnits="userSpaceOnUse" x1="255" x2="255" xlink:href="#lg7" y1="51.5" y2="82.016"/><linearGradient id="SVGID_00000129927077776623460130000017588410377042141356_" gradientUnits="userSpaceOnUse" x1="247.5" x2="265.507" xlink:href="#lg7" y1="14.25" y2="32.257"/><linearGradient id="SVGID_00000118354988447189816450000011383401403620315319_" gradientUnits="userSpaceOnUse" x1="180.645" x2="198.652" xlink:href="#lg7" y1="117.286" y2="135.293"/><linearGradient id="SVGID_00000014602805358272609480000007794376879431056529_" gradientUnits="userSpaceOnUse" x1="314.355" x2="332.362" xlink:href="#lg7" y1="117.286" y2="135.293"/><linearGradient id="SVGID_00000072242532537949084050000003212088090953382588_" gradientUnits="userSpaceOnUse" x1="96.68" x2="125.284" xlink:href="#lg4" y1="470.279" y2="498.882"/><linearGradient id="SVGID_00000096757250819897820270000014973378650382244487_" gradientUnits="userSpaceOnUse" x1="117.04" x2="93.697" xlink:href="#lg4" y1="490.638" y2="467.296"/><linearGradient id="SVGID_00000106145058957329036190000002640705916188620462_" gradientUnits="userSpaceOnUse" x1="399.934" x2="428.538" xlink:href="#lg4" y1="470.279" y2="498.882"/><linearGradient id="SVGID_00000006702370211284518340000011057303778560279713_" gradientUnits="userSpaceOnUse" x1="420.294" x2="396.951" xlink:href="#lg4" y1="490.638" y2="467.296"/><g><g><path d="m372.883 274.189h-144.054c-10.147 0-18.372-8.225-18.372-18.372v-29.831c0-36.443 29.543-65.987 65.987-65.987h48.824c36.443 0 65.987 29.543 65.987 65.987v29.831c0 10.147-8.225 18.372-18.372 18.372z" fill="url(#SVGID_1_)"/><path d="m210.457 225.786v30.032c0 10.147 8.225 18.372 18.372 18.372h144.054c10.147 0 18.372-8.225 18.372-18.372v-30.032z" fill="url(#SVGID_00000059308298115493775610000001390842758926193583_)"/><path d="m325.268 160h-22.044v114.189h69.658c10.147 0 18.372-8.225 18.372-18.372v-29.831c.001-36.443-29.542-65.986-65.986-65.986z" fill="url(#SVGID_00000182501908049181014170000003513502246989324463_)"/><path d="m354.172 232.997-2.89 1.228-17.13-17.13v57.095h38.731c6.123 0 11.531-3.007 14.869-7.612z" fill="url(#SVGID_00000055707858869206853370000013289259907530704288_)"/></g><g><path d="m427.563 399.589h-160.647c-11.315 0-20.488-9.173-20.488-20.488v-84.423c0-11.315 9.173-20.488 20.488-20.488h160.647c11.315 0 20.488 9.173 20.488 20.488v84.423c.001 11.315-9.172 20.488-20.488 20.488z" fill="url(#SVGID_00000138542202011991498310000009927647097142008483_)"/><path d="m246.428 347.553v31.548c0 11.315 9.173 20.488 20.488 20.488h160.647c11.315 0 20.488-9.173 20.488-20.488v-31.548z" fill="url(#SVGID_00000182503909391851667790000014563333689001097914_)"/><path d="m427.563 274.189h-77.682v125.4h77.682c11.315 0 20.488-9.173 20.488-20.488v-84.423c.001-11.316-9.172-20.489-20.488-20.489z" fill="url(#SVGID_00000067208113516738358440000010096637087410982051_)"/><path d="m427.563 399.589h-160.647c-11.315 0-20.488-9.173-20.488-20.488v-84.423c0-11.315 9.173-20.488 20.488-20.488h160.647c11.315 0 20.488 9.173 20.488 20.488v84.423c.001 11.315-9.172 20.488-20.488 20.488z" fill="url(#SVGID_00000098205284456625251960000000566192800761656242_)"/></g><path d="m490 431.589h-470v-7c0-13.807 11.193-25 25-25h420c13.807 0 25 11.193 25 25z" fill="url(#SVGID_00000088848664374339450040000000244876674359483316_)"/><g><g><path d="m95.908 376.816c-20.26 0-36.742-16.482-36.742-36.742v-75.908c0-20.26 16.482-36.742 36.742-36.742h103.538v149.393h-103.538zm0-131.036c-10.138 0-18.385 8.248-18.385 18.385v75.908c0 10.138 8.248 18.385 18.385 18.385h85.181v-112.678z" fill="url(#SVGID_00000049937837279072411620000006829783617857923493_)"/><path d="m59.166 340.074v-37.953h18.357v37.953c0 10.138 8.248 18.385 18.385 18.385h85.181v-56.338h18.357v74.695h-103.538c-20.26 0-36.742-16.482-36.742-36.742z" fill="url(#SVGID_00000038395227655423983210000004032322362598450349_)"/><path d="m59.166 340.074v-37.953h18.357v37.953c0 10.138 8.248 18.385 18.385 18.385h.064v18.357h-.064c-20.26 0-36.742-16.482-36.742-36.742z" fill="url(#SVGID_00000029755941369426914390000015637710476368844463_)"/></g><g><path d="m71.507 267.612c-4.508 0-8.544 1.168-10.136 2.935-6.316 7.01-10.434 18.539-10.434 31.574s4.119 24.565 10.434 31.574c1.592 1.767 5.628 2.935 10.136 2.935 5.396 0 9.986-1.662 10.724-3.901 4.898-14.859 4.898-46.357 0-61.216-.738-2.239-5.328-3.901-10.724-3.901z" fill="url(#SVGID_00000072968558127754704460000005145387539068937893_)"/><path d="m61.371 270.547c1.592-1.767 5.628-2.935 10.136-2.935 5.396 0 9.986 1.662 10.724 3.901 4.898 14.859 4.898 46.357 0 61.216-.738 2.239-5.329 3.901-10.724 3.901-4.508 0-8.544-1.168-10.136-2.935-.159-.176-.315-.357-.471-.539v-62.071c.156-.181.312-.362.471-.538z" fill="url(#SVGID_00000112622681116687827770000011200328048514401975_)"/></g><g><g><path d="m357.051 248.718v-8.723c0-5.499-4.458-9.957-9.957-9.957h-20.237v28.637h20.237c5.499 0 9.957-4.458 9.957-9.957z" fill="url(#SVGID_00000134952303830730611160000000976547998828661943_)"/><path d="m357.051 364.244v-8.723c0-5.499-4.458-9.957-9.957-9.957h-20.237v28.637h20.237c5.499 0 9.957-4.458 9.957-9.957z" fill="url(#SVGID_00000151525854131931256100000016423262096684051893_)"/></g><g><ellipse cx="104.129" cy="302.12" fill="url(#SVGID_00000008853433820040913410000000827691483540316320_)" rx="14.869" ry="45.097"/><path d="m125.133 399.587h182.973c18.492 0 33.483-14.991 33.483-33.483v-127.976c0-18.488-14.987-33.475-33.475-33.475h-182.974c-18.492 0-33.483 14.991-33.483 33.483v24.352c0 2.906 2.355 5.261 5.261 5.261 2.906 0 5.261 2.355 5.261 5.261v58.22c0 2.906-2.355 5.261-5.261 5.261-2.906 0-5.261 2.355-5.261 5.261v24.359c.001 18.488 14.988 33.476 33.476 33.476z" fill="url(#SVGID_00000160184716250453542020000012452272595352281246_)"/><g><path d="m341.587 270.546v-29.86h-135.353c-8.246 0-14.93 6.684-14.93 14.93 0 8.246 6.684 14.93 14.93 14.93z" fill="url(#SVGID_00000120556069559158039080000007059845620059676082_)"/><path d="m341.587 317.05v-29.86h-135.353c-8.246 0-14.93 6.684-14.93 14.93 0 8.246 6.684 14.93 14.93 14.93z" fill="url(#SVGID_00000027562603081663837560000004745790893930055610_)"/><path d="m341.587 363.554v-29.86h-135.353c-8.246 0-14.93 6.684-14.93 14.93 0 8.246 6.684 14.93 14.93 14.93z" fill="url(#SVGID_00000018229695581143865990000013032845299433698223_)"/></g><path d="m125.133 399.587h182.973c18.492 0 33.483-14.991 33.483-33.483v-63.984h-239.409v29.11c0 2.906-2.355 5.261-5.261 5.261-2.906 0-5.261 2.355-5.261 5.261v24.359c0 18.488 14.987 33.476 33.475 33.476z" fill="url(#SVGID_00000134231275211628998930000001235781390730163901_)"/><g><path d="m190.411 399.589-73.592-73.592 17.459-46.998 120.59 120.59z" fill="url(#SVGID_00000125568412646938996240000015231832681226250928_)"/><g><path d="m132.73 326.18h-15.077c-1.122 0-2.032-.91-2.032-2.032v-44.056c0-1.122.91-2.032 2.032-2.032h15.077c1.122 0 2.032.91 2.032 2.032v44.056c0 1.122-.909 2.032-2.032 2.032z" fill="url(#SVGID_00000034090096706902474890000016327297130082090917_)"/><path d="m115.62 316.438v7.71c0 1.122.91 2.032 2.032 2.032h15.077c1.123 0 2.032-.91 2.032-2.032v-7.71z" fill="url(#SVGID_00000181803705323218578850000013733988965748054702_)"/><path d="m132.73 278.059h-7.922v48.121h7.922c1.123 0 2.032-.91 2.032-2.032v-44.056c0-1.123-.909-2.033-2.032-2.033z" fill="url(#SVGID_00000111188966658656107100000008463733259328951486_)"/></g></g><path d="m227.243 204.65h80.866c18.49 0 33.479 14.989 33.479 33.479v127.982c0 18.49-14.989 33.479-33.479 33.479h-80.866z" fill="url(#SVGID_00000183225815746837783710000014624636068661177766_)"/></g></g></g><g><g><path d="m452.828 450.53c-6.903 0-12.5-5.597-12.5-12.5v-226.292c0-74.224-60.386-134.609-134.609-134.609h-101.438c-74.224 0-134.609 60.386-134.609 134.609v226.292c0 6.903-5.597 12.5-12.5 12.5s-12.5-5.597-12.5-12.5v-226.292c0-88.009 71.601-159.609 159.609-159.609h101.438c88.009 0 159.609 71.601 159.609 159.609v226.292c0 6.903-5.597 12.5-12.5 12.5z" fill="url(#SVGID_00000108310470582249639240000017921021650586606013_)"/><path d="m305.719 52.129h-50.719v25h50.719c74.224 0 134.609 60.386 134.609 134.609v226.292c0 6.903 5.597 12.5 12.5 12.5s12.5-5.597 12.5-12.5v-226.292c0-88.009-71.6-159.609-159.609-159.609z" fill="url(#SVGID_00000166663387876807236710000000440936665085060487_)"/><path d="m305.719 52.129h-50.719v25h50.719c34.87 0 66.684 13.329 90.619 35.158h34.123c-29.272-36.639-74.309-60.158-124.742-60.158z" fill="url(#SVGID_00000005961062001452857900000003067130275774148792_)"/><g><path d="m440.328 273.019v165.01c0 6.903 5.597 12.5 12.5 12.5s12.5-5.597 12.5-12.5v-165.01z" fill="url(#SVGID_00000052818260498326159230000016091078965741382816_)"/><path d="m57.172 450.53c6.903 0 12.5-5.597 12.5-12.5v-165.01h-25v165.01c0 6.903 5.597 12.5 12.5 12.5z" fill="url(#SVGID_00000043423300152755729400000015549450406305553316_)"/></g></g><g><path d="m255 131.703c-6.903 0-12.5-5.596-12.5-12.5v-89.322c0-6.904 5.597-12.5 12.5-12.5s12.5 5.596 12.5 12.5v89.322c0 6.904-5.597 12.5-12.5 12.5z" fill="url(#SVGID_00000014594136132364014240000017732804708386049187_)"/><path d="m324.354 137.286h-138.708c-6.903 0-12.5-5.597-12.5-12.5s5.597-12.5 12.5-12.5h138.707c6.903 0 12.5 5.597 12.5 12.5.001 6.904-5.596 12.5-12.499 12.5z" fill="url(#SVGID_00000010299065260377425720000015048794055452908683_)"/><path d="m324.354 137.286h-138.708c-6.903 0-12.5-5.597-12.5-12.5s5.597-12.5 12.5-12.5h138.707c6.903 0 12.5 5.597 12.5 12.5.001 6.904-5.596 12.5-12.499 12.5z" fill="url(#SVGID_00000013878968281991956110000009489015326735340983_)"/></g><path d="m493.008 460.47h-476.016c-9.385 0-16.992-7.607-16.992-16.991v-10.898c0-9.384 7.607-16.992 16.992-16.992h476.017c9.384 0 16.992 7.607 16.992 16.992v10.898c-.001 9.384-7.608 16.991-16.993 16.991z" fill="url(#SVGID_00000060021430807239815100000010814034534616203701_)"/><path d="m291.729 83h-73.459c-5.373 0-9.729-4.356-9.729-9.729v-18.542c0-5.373 4.356-9.729 9.729-9.729h73.459c5.373 0 9.729 4.356 9.729 9.729v18.541c.001 5.374-4.355 9.73-9.729 9.73z" fill="url(#SVGID_00000175313749759811682450000018306395195616369028_)"/><circle cx="255" cy="21.75" fill="url(#SVGID_00000129927077776623460130000017588410377042141356_)" r="21.75"/><g><circle cx="188.145" cy="124.786" fill="url(#SVGID_00000118354988447189816450000011383401403620315319_)" r="21.75"/><circle cx="321.855" cy="124.786" fill="url(#SVGID_00000014602805358272609480000007794376879431056529_)" r="21.75"/></g><g><g><circle cx="103.373" cy="476.972" fill="url(#SVGID_00000072242532537949084050000003212088090953382588_)" r="33.028"/><circle cx="103.373" cy="476.972" fill="url(#SVGID_00000096757250819897820270000014973378650382244487_)" r="17.588"/></g><g><circle cx="406.627" cy="476.972" fill="url(#SVGID_00000106145058957329036190000002640705916188620462_)" r="33.028"/><circle cx="406.627" cy="476.972" fill="url(#SVGID_00000006702370211284518340000011057303778560279713_)" r="17.588"/></g></g></g></g></svg>