<svg id="Capa_1" enable-background="new 0 0 510 510" height="512" viewBox="0 0 510 510" width="512" xmlns="http://www.w3.org/2000/svg" xmlns:xlink="http://www.w3.org/1999/xlink"><linearGradient id="lg1"><stop offset="0" stop-color="#e1d3ce"/><stop offset="1" stop-color="#9e9797"/></linearGradient><linearGradient id="SVGID_1_" gradientUnits="userSpaceOnUse" x1="36.141" x2="63.914" xlink:href="#lg1" y1="174.307" y2="174.307"/><linearGradient id="SVGID_00000038387903393285486640000001057573936990153092_" gradientUnits="userSpaceOnUse" x1="444.645" x2="472.417" xlink:href="#lg1" y1="174.307" y2="174.307"/><linearGradient id="SVGID_00000124849275507594269660000017767032964296627859_" gradientUnits="userSpaceOnUse" x1="90.017" x2="266.063" y1="156.043" y2="332.089"><stop offset="0" stop-color="#c59191"/><stop offset="1" stop-color="#9b5e5e"/></linearGradient><linearGradient id="lg2"><stop offset="0" stop-color="#9b5e5e" stop-opacity="0"/><stop offset=".2469" stop-color="#955857" stop-opacity=".247"/><stop offset=".6116" stop-color="#854943" stop-opacity=".612"/><stop offset="1" stop-color="#6d3326"/></linearGradient><linearGradient id="SVGID_00000180355317920720089930000016820455971302534810_" gradientUnits="userSpaceOnUse" x1="245.728" x2="163.061" xlink:href="#lg2" y1="294.615" y2="252.615"/><linearGradient id="SVGID_00000068650480007233402100000006852276982126714518_" gradientUnits="userSpaceOnUse" x1="429.555" x2="507.681" xlink:href="#lg2" y1="321.026" y2="321.026"/><linearGradient id="SVGID_00000118378009397781152890000015119610367168680339_" gradientUnits="userSpaceOnUse" x1="379.987" x2="325.32" xlink:href="#lg2" y1="315.594" y2="293.594"/><linearGradient id="SVGID_00000039814679844936799860000001391368534171767976_" gradientUnits="userSpaceOnUse" x1="255" x2="255" xlink:href="#lg2" y1="358.399" y2="409.736"/><linearGradient id="SVGID_00000016034871432834394330000003893537449220431539_" gradientTransform="matrix(0 1 1 0 -1132.916 1132.916)" gradientUnits="userSpaceOnUse" x1="-853.939" x2="-765.439" y1="1511.42" y2="1564.92"><stop offset="0" stop-color="#bbec6c"/><stop offset="1" stop-color="#78a91f"/></linearGradient><linearGradient id="lg3"><stop offset="0" stop-color="#78a91f" stop-opacity="0"/><stop offset="1" stop-color="#026841"/></linearGradient><linearGradient id="SVGID_00000083064538996461122000000013049449364030605453_" gradientTransform="matrix(0 1 1 0 -1132.916 1132.916)" gradientUnits="userSpaceOnUse" x1="-837.792" x2="-866.459" xlink:href="#lg3" y1="1551.577" y2="1567.577"/><linearGradient id="SVGID_00000168800147359556974310000014983816883483907206_" gradientTransform="matrix(0 1 1 0 -1132.916 1132.916)" gradientUnits="userSpaceOnUse" x1="-830.639" x2="-848.972" y1="1505.454" y2="1499.454"><stop offset="0" stop-color="#78a91f" stop-opacity="0"/><stop offset=".1473" stop-color="#70a421" stop-opacity=".147"/><stop offset=".3741" stop-color="#5b9927" stop-opacity=".374"/><stop offset=".6521" stop-color="#378531" stop-opacity=".652"/><stop offset=".9682" stop-color="#076b3f" stop-opacity=".968"/><stop offset="1" stop-color="#026841"/></linearGradient><linearGradient id="SVGID_00000037690011466193839290000015349947357783190921_" gradientUnits="userSpaceOnUse" x1="350.667" x2="336.299" xlink:href="#lg3" y1="321.026" y2="321.026"/><linearGradient id="SVGID_00000062165968382243460540000005620822671502485172_" gradientTransform="matrix(0 -1 -1 0 -6892.065 687.559)" gradientUnits="userSpaceOnUse" x1="409.237" x2="409.237" xlink:href="#lg3" y1="-7283.744" y2="-7265.431"/><linearGradient id="SVGID_00000021088008245597536360000007695483979488832906_" gradientTransform="matrix(0 -1 -1 0 -6892.065 687.559)" gradientUnits="userSpaceOnUse" x1="323.828" x2="323.828" xlink:href="#lg3" y1="-7283.744" y2="-7265.431"/><linearGradient id="lg4"><stop offset="0" stop-color="#fef48b"/><stop offset=".1462" stop-color="#fdf07e"/><stop offset=".4164" stop-color="#fce55c"/><stop offset=".778" stop-color="#fbd325"/><stop offset="1" stop-color="#fac600"/></linearGradient><linearGradient id="SVGID_00000157288190348227552010000003378842616302072476_" gradientUnits="userSpaceOnUse" x1="116.381" x2="169.71" xlink:href="#lg4" y1="297.392" y2="350.722"/><linearGradient id="lg5"><stop offset="0" stop-color="#fac600" stop-opacity="0"/><stop offset=".408" stop-color="#efbd01" stop-opacity=".408"/><stop offset="1" stop-color="#d7aa02"/></linearGradient><linearGradient id="SVGID_00000013168010877860506020000012016824093228546702_" gradientUnits="userSpaceOnUse" x1="147.835" x2="180.149" xlink:href="#lg5" y1="294.289" y2="284.236"/><linearGradient id="SVGID_00000045604268051852086090000015721945184081626786_" gradientUnits="userSpaceOnUse" x1="138.121" x2="138.121" xlink:href="#lg5" y1="275.73" y2="247.577"/><linearGradient id="SVGID_00000115473368003562586390000004709523645868534966_" gradientUnits="userSpaceOnUse" x1="114.745" x2="165.782" xlink:href="#lg4" y1="172.618" y2="223.655"/><linearGradient id="SVGID_00000111169290584089430100000011873350500845858476_" gradientUnits="userSpaceOnUse" x1="138.121" x2="138.121" xlink:href="#lg5" y1="352.566" y2="382.726"/><linearGradient id="SVGID_00000142147477403598702600000002524017858983228350_" gradientUnits="userSpaceOnUse" x1="257.63" x2="311.756" xlink:href="#lg4" y1="258.59" y2="312.716"/><linearGradient id="SVGID_00000140002321478480807880000004536309039086541732_" gradientUnits="userSpaceOnUse" x1="282.185" x2="311.627" xlink:href="#lg5" y1="294.662" y2="306.869"/><linearGradient id="SVGID_00000041265176388442782570000000303401045010438068_" gradientUnits="userSpaceOnUse" x1="303.76" x2="289.039" xlink:href="#lg5" y1="274.272" y2="230.468"/><linearGradient id="SVGID_00000078742936985638951410000010418827456998029243_" gradientUnits="userSpaceOnUse" x1="253.816" x2="304.853" xlink:href="#lg4" y1="172.618" y2="223.655"/><g><g><path d="m50.748 250.032c-10.724 0-19.417-8.693-19.417-19.417v-112.616c0-10.724 8.693-19.417 19.417-19.417 10.724 0 19.417 8.693 19.417 19.417v112.616c0 10.724-8.693 19.417-19.417 19.417z" fill="url(#SVGID_1_)"/><path d="m459.252 250.032c-10.724 0-19.417-8.693-19.417-19.417v-112.616c0-10.724 8.693-19.417 19.417-19.417 10.724 0 19.417 8.693 19.417 19.417v112.616c0 10.724-8.693 19.417-19.417 19.417z" fill="url(#SVGID_00000038387903393285486640000001057573936990153092_)"/></g><g><path d="m480.996 411.419h-451.992c-16.018 0-29.004-12.986-29.004-29.005v-122.776c0-16.019 12.986-29.004 29.004-29.004h451.992c16.019 0 29.004 12.986 29.004 29.004v122.776c0 16.019-12.986 29.005-29.004 29.005z" fill="url(#SVGID_00000124849275507594269660000017767032964296627859_)"/><path d="m510 382.414v-122.776c0-16.019-12.986-29.004-29.004-29.004h-346.048l-62.287 145.979 34.805 34.805h373.529c16.019 0 29.005-12.985 29.005-29.004z" fill="url(#SVGID_00000180355317920720089930000016820455971302534810_)"/><path d="m480.996 230.634h-229.329v180.785h229.329c16.019 0 29.004-12.986 29.004-29.004v-122.777c0-16.018-12.986-29.004-29.004-29.004z" fill="url(#SVGID_00000068650480007233402100000006852276982126714518_)"/><path d="m480.996 230.634h-216.344v145.101l35.684 35.684h180.66c16.019 0 29.004-12.986 29.004-29.004v-122.777c0-16.018-12.986-29.004-29.004-29.004z" fill="url(#SVGID_00000118378009397781152890000015119610367168680339_)"/><path d="m0 295.347v87.067c0 16.019 12.986 29.004 29.004 29.004h451.991c16.019 0 29.004-12.986 29.004-29.004v-87.067z" fill="url(#SVGID_00000039814679844936799860000001391368534171767976_)"/></g><g><path d="m406.878 264.639 61.52 40.606c1.731 1.144 3.198 2.497 4.397 4.004 5.461 6.834 5.461 16.722 0 23.556-1.199 1.507-2.666 2.86-4.397 4.004l-61.52 40.606c-12.574 8.296-29.325-.721-29.325-15.782v-14.743h-29.354c-4.716 0-8.538-3.823-8.538-8.538v-34.65c0-4.716 3.823-8.538 8.538-8.538h29.354v-14.742c0-15.062 16.751-24.079 29.325-15.783z" fill="url(#SVGID_00000016034871432834394330000003893537449220431539_)"/><path d="m406.878 264.639 61.52 40.606c1.731 1.144 3.198 2.497 4.397 4.004 5.461 6.834 5.461 16.722 0 23.556-1.199 1.507-2.666 2.86-4.397 4.004l-61.52 40.606c-12.574 8.296-29.325-.721-29.325-15.782v-14.743h-29.354c-4.716 0-8.538-3.823-8.538-8.538v-34.65c0-4.716 3.823-8.538 8.538-8.538h29.354v-14.742c0-15.062 16.751-24.079 29.325-15.783z" fill="url(#SVGID_00000083064538996461122000000013049449364030605453_)"/><path d="m415.34 295.163h-67.141c-4.715 0-8.538 3.823-8.538 8.538v34.651c0 4.716 3.823 8.538 8.538 8.538h67.141z" fill="url(#SVGID_00000168800147359556974310000014983816883483907206_)"/><path d="m377.554 295.163h-29.355c-4.715 0-8.538 3.823-8.538 8.538v34.651c0 4.716 3.823 8.538 8.538 8.538h29.355z" fill="url(#SVGID_00000037690011466193839290000015349947357783190921_)"/><g><path d="m406.879 264.639 46.246 30.524h-75.571v-14.742c0-15.061 16.752-24.078 29.325-15.782z" fill="url(#SVGID_00000062165968382243460540000005620822671502485172_)"/><path d="m377.554 361.632v-14.742h75.571l-46.246 30.524c-12.573 8.296-29.325-.722-29.325-15.782z" fill="url(#SVGID_00000021088008245597536360000007695483979488832906_)"/></g></g><g><g><path d="m138.12 196.156-69.358 162.878c-4.347 10.207 3.144 21.538 14.238 21.538h110.241c11.094 0 18.584-11.33 14.238-21.538z" fill="url(#SVGID_00000157288190348227552010000003378842616302072476_)"/><path d="m138.12 196.156-69.358 162.878c-4.347 10.207 3.144 21.538 14.238 21.538h110.241c11.094 0 18.584-11.33 14.238-21.538z" fill="url(#SVGID_00000013168010877860506020000012016824093228546702_)"/><path d="m138.12 196.156-42.752 100.399h85.505z" fill="url(#SVGID_00000045604268051852086090000015721945184081626786_)"/><circle cx="138.12" cy="195.993" fill="url(#SVGID_00000115473368003562586390000004709523645868534966_)" r="55.755"/><path d="m68.762 359.034c-4.347 10.207 3.144 21.538 14.238 21.538h110.241c11.094 0 18.584-11.33 14.238-21.538l-21.101-49.554h-96.514z" fill="url(#SVGID_00000111169290584089430100000011873350500845858476_)"/></g><g><path d="m260.152 369.308-49.825-117.008c-5.528-12.982 3.998-27.393 18.109-27.393h97.511c14.111 0 23.637 14.411 18.109 27.393l-49.826 117.008c-6.395 15.018-27.683 15.018-34.078 0z" fill="url(#SVGID_00000142147477403598702600000002524017858983228350_)"/><path d="m260.152 369.308-49.825-117.008c-5.528-12.982 3.998-27.393 18.109-27.393h97.511c14.111 0 23.637 14.411 18.109 27.393l-49.826 117.008c-6.395 15.018-27.683 15.018-34.078 0z" fill="url(#SVGID_00000140002321478480807880000004536309039086541732_)"/><path d="m344.056 252.3c5.528-12.983-3.998-27.393-18.109-27.393h-77.669l-10.512 10.512 79.587 79.587z" fill="url(#SVGID_00000041265176388442782570000000303401045010438068_)"/><circle cx="277.191" cy="195.993" fill="url(#SVGID_00000078742936985638951410000010418827456998029243_)" r="55.755"/></g></g></g></svg>