<svg id="Capa_1" enable-background="new 0 0 510 510" height="512" viewBox="0 0 510 510" width="512" xmlns="http://www.w3.org/2000/svg" xmlns:xlink="http://www.w3.org/1999/xlink"><linearGradient id="lg1"><stop offset="0" stop-color="#ffdfcf"/><stop offset="1" stop-color="#ffa78f"/></linearGradient><linearGradient id="SVGID_1_" gradientTransform="matrix(.751 -.661 -.661 -.751 -3089.35 -2001.21)" gradientUnits="userSpaceOnUse" x1="1120.534" x2="1134.678" xlink:href="#lg1" y1="-3800.205" y2="-3785.645"/><linearGradient id="SVGID_00000152251805164309788570000014303047728796018598_" gradientTransform="matrix(.173 .985 -.985 .173 -3204.422 -1497.251)" gradientUnits="userSpaceOnUse" x1="2184.18" x2="2137.65" xlink:href="#lg1" y1="-3164.148" y2="-3173.454"/><linearGradient id="SVGID_00000088825826550269279680000016575745808096580750_" gradientTransform="matrix(.173 .985 -.985 .173 -3204.422 -1497.251)" gradientUnits="userSpaceOnUse" x1="2172.258" x2="2117.087" xlink:href="#lg1" y1="-3190.609" y2="-3191.273"/><linearGradient id="lg2"><stop offset="0" stop-color="#fef48b"/><stop offset=".1462" stop-color="#fdf07e"/><stop offset=".4164" stop-color="#fce55c"/><stop offset=".778" stop-color="#fbd325"/><stop offset="1" stop-color="#fac600"/></linearGradient><linearGradient id="SVGID_00000173130908044220250560000013597509307606123150_" gradientUnits="userSpaceOnUse" x1="409.769" x2="522.862" xlink:href="#lg2" y1="279.872" y2="392.964"/><linearGradient id="lg3"><stop offset="0" stop-color="#fac600" stop-opacity="0"/><stop offset=".408" stop-color="#efbd01" stop-opacity=".408"/><stop offset="1" stop-color="#d7aa02"/></linearGradient><linearGradient id="SVGID_00000146478364760811691150000002883519999815684228_" gradientUnits="userSpaceOnUse" x1="367.895" x2="508.964" xlink:href="#lg3" y1="237.997" y2="379.066"/><linearGradient id="SVGID_00000087392671484494886810000010544093029766240390_" gradientUnits="userSpaceOnUse" x1="209.974" x2="473.474" xlink:href="#lg3" y1="127.883" y2="334.826"/><linearGradient id="SVGID_00000089538549324638767590000003973606347630175379_" gradientUnits="userSpaceOnUse" x1="437.667" x2="437.667" xlink:href="#lg3" y1="323.226" y2="381.241"/><linearGradient id="SVGID_00000134210625433646270370000008649547356901465530_" gradientUnits="userSpaceOnUse" x1="437.667" x2="437.667" xlink:href="#lg3" y1="283" y2="247.265"/><linearGradient id="SVGID_00000008108169272840849300000007990818708622252456_" gradientUnits="userSpaceOnUse" x1="302.362" x2="376.335" y1="70.16" y2="269.316"><stop offset="0" stop-color="#bbec6c"/><stop offset="1" stop-color="#78a91f"/></linearGradient><linearGradient id="lg4"><stop offset="0" stop-color="#78a91f" stop-opacity="0"/><stop offset="1" stop-color="#026841"/></linearGradient><linearGradient id="SVGID_00000088133791370859892320000016299336855625802915_" gradientUnits="userSpaceOnUse" x1="283.791" x2="412.458" xlink:href="#lg4" y1="-2.993" y2="398.341"/><linearGradient id="SVGID_00000003077683086291644970000012701697252427836334_" gradientUnits="userSpaceOnUse" x1="338.859" x2="340.192" xlink:href="#lg4" y1="234.309" y2="278.976"/><linearGradient id="SVGID_00000062176330181168793270000006773752467559726481_" gradientUnits="userSpaceOnUse" x1="470.767" x2="516.706" xlink:href="#lg4" y1="156.584" y2="156.584"/><linearGradient id="SVGID_00000102546022293684646930000010920944876833972126_" gradientUnits="userSpaceOnUse" x1="286.049" x2="370.74" xlink:href="#lg4" y1="35.348" y2="270.602"/><linearGradient id="SVGID_00000170269074047405957070000011198573674867532952_" gradientUnits="userSpaceOnUse" x1="106.552" x2="370.051" xlink:href="#lg4" y1="-10.661" y2="196.282"/><linearGradient id="SVGID_00000178187839690221745140000000559585830542290367_" gradientUnits="userSpaceOnUse" x1="291.519" x2="264.185" y1="239.502" y2="149.502"><stop offset="0" stop-color="#026841" stop-opacity="0"/><stop offset="1" stop-color="#026841"/></linearGradient><linearGradient id="SVGID_00000173881874144204039260000007444331119790884799_" gradientUnits="userSpaceOnUse" x1="201.834" x2="289.584" xlink:href="#lg1" y1="23.829" y2="216.878"/><linearGradient id="lg5"><stop offset="0" stop-color="#f89580" stop-opacity="0"/><stop offset=".2859" stop-color="#ee8e79" stop-opacity=".287"/><stop offset=".7624" stop-color="#d57b65" stop-opacity=".765"/><stop offset=".9972" stop-color="#c5715a"/></linearGradient><linearGradient id="SVGID_00000073722642235516634340000016209905853580534450_" gradientTransform="matrix(-1 0 0 1 616.463 0)" gradientUnits="userSpaceOnUse" x1="427.106" x2="427.106" xlink:href="#lg5" y1="169.502" y2="225.374"/><linearGradient id="SVGID_00000113325080434998397140000012372855429640561318_" gradientUnits="userSpaceOnUse" x1="145.5" x2="100.654" xlink:href="#lg5" y1="125.414" y2="125.414"/><linearGradient id="SVGID_00000025428921612837145850000001676285460221034409_" gradientUnits="userSpaceOnUse" x1="80.833" x2="106.534" y1="144.895" y2="144.895"><stop offset="0" stop-color="#fffdf1"/><stop offset="1" stop-color="#fff5c6"/></linearGradient><linearGradient id="lg6"><stop offset="0" stop-color="#fea613" stop-opacity="0"/><stop offset=".1689" stop-color="#fda016" stop-opacity=".169"/><stop offset=".4029" stop-color="#f98e1f" stop-opacity=".403"/><stop offset=".675" stop-color="#f3712e" stop-opacity=".675"/><stop offset=".9738" stop-color="#ea4842" stop-opacity=".974"/><stop offset="1" stop-color="#e94444"/></linearGradient><linearGradient id="SVGID_00000025412602111570525510000002941765283655958166_" gradientUnits="userSpaceOnUse" x1="90.333" x2="72.667" xlink:href="#lg6" y1="144.895" y2="144.895"/><linearGradient id="SVGID_00000145044266511885785190000008544022281991090329_" gradientUnits="userSpaceOnUse" x1="82.707" x2="82.707" xlink:href="#lg6" y1="196.333" y2="250.692"/><linearGradient id="SVGID_00000036222723966984193780000007667976697432918146_" gradientUnits="userSpaceOnUse" x1="244.317" x2="357.41" xlink:href="#lg2" y1="246.922" y2="360.015"/><linearGradient id="SVGID_00000080196526689657567750000008404127068163887267_" gradientUnits="userSpaceOnUse" x1="202.443" x2="343.512" xlink:href="#lg3" y1="205.048" y2="346.117"/><linearGradient id="SVGID_00000046317789118746452610000016950572493619307392_" gradientUnits="userSpaceOnUse" x1="44.522" x2="308.021" xlink:href="#lg3" y1="94.933" y2="301.877"/><linearGradient id="SVGID_00000026867922171933242330000003744788372237481901_" gradientUnits="userSpaceOnUse" x1="272.214" x2="272.214" xlink:href="#lg3" y1="290.277" y2="348.292"/><linearGradient id="SVGID_00000037670480965171506610000014025455957169850534_" gradientUnits="userSpaceOnUse" x1="310.131" x2="423.223" xlink:href="#lg2" y1="409.769" y2="522.862"/><linearGradient id="SVGID_00000014607848786286587200000004330108954212885922_" gradientUnits="userSpaceOnUse" x1="268.256" x2="409.325" xlink:href="#lg3" y1="367.895" y2="508.964"/><linearGradient id="SVGID_00000077321877701532179830000001611636697341770902_" gradientUnits="userSpaceOnUse" x1="110.336" x2="373.835" xlink:href="#lg3" y1="257.78" y2="464.723"/><linearGradient id="SVGID_00000074410014844453040660000012789636054599770002_" gradientUnits="userSpaceOnUse" x1="338.028" x2="338.028" xlink:href="#lg3" y1="453.123" y2="511.139"/><linearGradient id="SVGID_00000161630581475592424400000003416316552262377370_" gradientUnits="userSpaceOnUse" x1="37.103" x2="76.836" y1="144.895" y2="144.895"><stop offset="0" stop-color="#554e56"/><stop offset="1" stop-color="#433f43"/></linearGradient><linearGradient id="SVGID_00000147923117503959411760000006308953423286953645_" gradientUnits="userSpaceOnUse" x1="40" x2="40" y1="197.686" y2="234.055"><stop offset="0" stop-color="#433f43" stop-opacity="0"/><stop offset="1" stop-color="#1a1a1a"/></linearGradient><g><g><path d="m294.196 111.056c-3.865 1.339-7.954 1.15-11.325-.873l-27.385-16.426c-10.069-6.036-21.809-8.844-34.042-8.338 10.103-16.353 28.949-23.968 43.565-17.511 3.718 1.643 7.342 3.5 10.86 5.569l23.633 13.917c4.28 2.52 6.4 7.365 6.115 12.608-.41.983-.9 1.946-1.486 2.884-2.487 4.013-6.106 6.843-9.935 8.17z" fill="url(#SVGID_1_)"/><path d="m339.898 70.2-40.7-12.615c-6.057-1.876-12.174-3.45-18.331-4.724-24.206-5.009-48.252 9.251-55.627 32.844 17.602-3.489 35.974-2.558 53.363 2.955l47.297 15.008c5.822 1.849 11.866 1.147 16.898-1.488 4.985-2.611 8.988-7.127 10.808-12.919.004-.014.009-.027.013-.041.839-2.642.562-5.547-.691-8.019-2.577-5.086-7.129-9.172-13.03-11.001z" fill="url(#SVGID_00000152251805164309788570000014303047728796018598_)"/><path d="m367.895 36.251-54.405-4.281c-8.096-.635-16.182-.877-24.233-.732-31.653.57-57.671 25.166-60.23 56.721 21.006-9.323 44.221-13.342 67.5-11.358l63.32 5.41c7.795.668 15.148-1.913 20.691-6.625 5.492-4.668 9.219-11.438 9.859-19.187.002-.018.003-.036.005-.054.319-3.724-1.04-7.408-3.478-10.242-4.643-5.4-11.338-9.047-19.029-9.652z" fill="url(#SVGID_00000088825826550269279680000016575745808096580750_)"/></g><g><circle cx="437.666" cy="307.769" fill="url(#SVGID_00000173130908044220250560000013597509307606123150_)" r="72.334"/><circle cx="437.666" cy="307.769" fill="url(#SVGID_00000146478364760811691150000002883519999815684228_)" r="56.721"/><path d="m443.588 298v-17.828c7.938.61 10.258 4.518 14.287 4.518 5.374 0 7.572-6.716 7.572-10.013 0-8.425-14.287-10.38-21.859-10.623v-3.053c0-1.71-2.32-3.298-4.639-3.298-2.686 0-4.641 1.588-4.641 3.298v3.418c-12.944 1.833-24.422 9.281-24.422 24.79 0 15.63 13.188 20.881 24.422 25.155v19.781c-9.036-1.588-13.188-8.792-18.316-8.792-4.641 0-8.303 6.105-8.303 10.257 0 7.815 11.966 15.387 26.62 15.875v3.053c0 1.71 1.954 3.298 4.641 3.298 2.32 0 4.639-1.588 4.639-3.298v-3.541c14.287-2.32 24.057-11.479 24.057-26.62-.001-16.486-12.945-22.226-24.058-26.377zm-8.059-2.931c-4.641-1.953-7.815-4.151-7.815-7.693 0-2.93 2.32-5.739 7.815-6.837zm6.839 38.954v-16.363c4.396 2.076 7.449 4.641 7.449 8.67 0 4.395-3.298 6.716-7.449 7.693z" fill="url(#SVGID_00000087392671484494886810000010544093029766240390_)"/><path d="m365.333 307.769c0 39.949 32.385 72.333 72.334 72.333s72.333-32.385 72.333-72.333c0-2.42-.124-4.81-.356-7.168h-143.955c-.232 2.358-.356 4.748-.356 7.168z" fill="url(#SVGID_00000089538549324638767590000003973606347630175379_)"/></g><circle cx="437.667" cy="307.769" fill="url(#SVGID_00000134210625433646270370000008649547356901465530_)" r="72.334"/><g><path d="m491.394 68.948c-100.715-41.678-202.71 47.227-303.451 8.355-5.362-2.069-11.137 1.827-11.137 7.573v166.777c0 5.147 3.1 9.795 7.856 11.763 100.714 41.678 202.709-47.228 303.451-8.355 5.362 2.069 11.137-1.827 11.137-7.574v-166.776c0-5.147-3.1-9.795-7.856-11.763z" fill="url(#SVGID_00000008108169272840849300000007990818708622252456_)"/><path d="m482.568 109.872c-1.61-1.61-3.75-2.49-6.06-2.49-.01 0-.01 0-.02 0-10.63 0-19.28-8.65-19.28-19.28 0-.98.07-1.96.22-2.92.45-2.96-.34-6.02-2.17-8.39-1.84-2.37-4.61-3.91-7.6-4.21-5.29-.54-10.81-.81-16.4-.81-29.35 0-58.77 7.06-89.91 14.53-31.39 7.53-63.84 15.32-96.55 15.32-3.61 0-9.08-.16-13.03-.3-5.74-.21-10.86 3.64-12.21 9.12-2.13 8.62-9.83 14.64-18.73 14.64-.3 0-.61 0-.91-.02-2.32-.11-4.61.74-6.29 2.34-1.67 1.6-2.6 3.75-2.6 6.07v83.09c0 2.24.88 4.35 2.46 5.93 1.61 1.61 3.75 2.49 6.07 2.49h.01c10.63 0 19.28 8.65 19.28 19.28 0 .98-.07 1.96-.22 2.92-.45 2.96.34 6.02 2.17 8.39 1.84 2.37 4.61 3.91 7.6 4.21 5.29.54 10.81.81 16.4.81 29.34 0 58.76-7.06 89.91-14.53 31.39-7.53 63.84-15.32 96.55-15.32 1.81 0 4.08.04 6.39.1s4.66.13 6.64.2c5.72.2 10.86-3.64 12.21-9.12 2.13-8.62 9.83-14.64 18.73-14.64.3 0 .61 0 .91.02 2.32.1 4.61-.74 6.29-2.34 1.67-1.6 2.6-3.75 2.6-6.07v-83.09c0-2.24-.88-4.35-2.46-5.93zm-223.25 26.01h-21.2c-5.31 0-9.61-4.31-9.61-9.62s4.3-9.61 9.61-9.61h21.2c5.31 0 9.61 4.3 9.61 9.61s-4.3 9.62-9.61 9.62zm178.62 79.83h-21.2c-5.31 0-9.61-4.3-9.61-9.61s4.3-9.62 9.61-9.62h21.2c5.31 0 9.61 4.31 9.61 9.62s-4.3 9.61-9.61 9.61z" fill="url(#SVGID_00000088133791370859892320000016299336855625802915_)"/><path d="m176.806 161.124v90.529c0 5.147 3.1 9.795 7.856 11.763 100.714 41.678 202.709-47.228 303.451-8.355 5.362 2.069 11.137-1.827 11.137-7.574v-86.364h-322.444z" fill="url(#SVGID_00000003077683086291644970000012701697252427836334_)"/><path d="m491.394 68.948c-33.729-13.958-67.601-13.269-101.522-7.64v187.426c32.821-5.447 65.597-6.269 98.241 6.327 5.362 2.069 11.137-1.827 11.137-7.574v-166.776c0-5.147-3.1-9.795-7.856-11.763z" fill="url(#SVGID_00000062176330181168793270000006773752467559726481_)"/><circle cx="334.244" cy="169.225" fill="url(#SVGID_00000102546022293684646930000010920944876833972126_)" r="66.21"/><path d="m340.166 159.456v-17.828c7.938.61 10.258 4.518 14.287 4.518 5.374 0 7.572-6.716 7.572-10.013 0-8.425-14.287-10.38-21.859-10.623v-3.053c0-1.71-2.32-3.298-4.639-3.298-2.686 0-4.641 1.588-4.641 3.298v3.418c-12.944 1.833-24.422 9.281-24.422 24.79 0 15.63 13.188 20.881 24.422 25.155v19.781c-9.036-1.588-13.188-8.792-18.316-8.792-4.641 0-8.303 6.105-8.303 10.257 0 7.815 11.966 15.387 26.62 15.875v3.053c0 1.71 1.954 3.298 4.641 3.298 2.32 0 4.639-1.588 4.639-3.298v-3.541c14.287-2.32 24.057-11.479 24.057-26.62-.001-16.486-12.945-22.226-24.058-26.377zm-8.059-2.931c-4.641-1.953-7.815-4.151-7.815-7.693 0-2.93 2.32-5.739 7.815-6.837zm6.839 38.954v-16.363c4.396 2.076 7.449 4.641 7.449 8.67-.001 4.395-3.298 6.716-7.449 7.693z" fill="url(#SVGID_00000170269074047405957070000011198573674867532952_)"/></g><path d="m184.662 263.416c75.554 31.266 151.829-10.956 227.755-17.592l-96.564-96.564h-139.047v102.393c0 5.147 3.1 9.795 7.856 11.763z" fill="url(#SVGID_00000178187839690221745140000000559585830542290367_)"/><g><g><g><path d="m56.833 87.688v100.85c0 5.507 3.095 10.547 8.007 13.037l33.053 16.759c13.431 6.82 28.765 9.273 43.542 6.361.688-.13 1.376-.279 2.064-.439.11-.03.219-.05.329-.08 11.925-2.732 45.716-17.568 58.947-23.481 3.878-1.735 7.887-3.171 12.015-4.168 24.329-5.913 49.574-6.68 74.112-2.313 12.374 2.194 24.438-4.048 29.932-14.876.788-1.555 1.446-3.211 1.944-4.946 4.367-15.155-4.626-30.979-19.911-34.887-26.622-6.81-53.842-11.157-81.291-12.982l-1.625-.758c-5.913-2.762-7.079-8.904-2.582-13.63 25.764-27.13 34.927-32.016 58.448-42.306 28.147-12.294 59.685-15.145 89.268-6.9 1.097.299 2.194.618 3.28.947l25.186 8.545c15.564 4.736 32.076-4.088 36.762-19.672 4.686-15.514-4.108-31.827-19.632-36.433l-16.352-5.494c-66.416-19.721-138.106-12.293-199.226 20.671l-38.836 21.327-24.398 13.7c-8.236 4.626-17.449 6.82-26.622 6.551h-31.797c-8.073-.001-14.617 6.544-14.617 14.617z" fill="url(#SVGID_00000173881874144204039260000007444331119790884799_)"/><path d="m212.689 119.15c.302 2.683 2.092 5.136 5.26 6.616l1.625.758c27.449 1.824 54.669 6.172 81.291 12.982 15.285 3.909 24.279 19.732 19.911 34.887-.499 1.735-1.157 3.39-1.944 4.946-5.494 10.828-17.558 17.07-29.932 14.876-24.538-4.367-49.784-3.6-74.112 2.313-4.128.997-8.136 2.433-12.015 4.168-13.231 5.913-47.022 20.749-58.947 23.481-.11.03-.219.05-.329.08-.688.16-1.376.309-2.064.439-14.777 2.911-30.112.459-43.542-6.361l-33.051-16.76c-4.912-2.49-8.007-7.53-8.007-13.037v-69.388z" fill="url(#SVGID_00000073722642235516634340000016209905853580534450_)"/><path d="m206.166 24.926c-4.401 2.067-8.761 4.246-13.064 6.567l-38.835 21.327-24.398 13.7c-8.236 4.626-17.449 6.82-26.622 6.551h-31.797c-8.073 0-14.617 6.544-14.617 14.617v100.85c0 5.507 3.095 10.547 8.007 13.037l33.053 16.759c13.43 6.82 28.765 9.273 43.542 6.361.688-.13 1.376-.279 2.064-.439.11-.03.219-.05.329-.08 11.925-2.732 45.716-17.568 58.947-23.481 1.119-.5 2.252-.968 3.392-1.415v-174.354z" fill="url(#SVGID_00000113325080434998397140000012372855429640561318_)"/></g></g></g><g><path d="m95.329 230.211h-25.244c-7.319 0-13.252-5.933-13.252-13.252v-144.129c0-7.319 5.933-13.252 13.252-13.252h25.244c7.319 0 13.252 5.933 13.252 13.252v144.128c0 7.32-5.933 13.253-13.252 13.253z" fill="url(#SVGID_00000025428921612837145850000001676285460221034409_)"/><path d="m95.329 230.211h-25.244c-7.319 0-13.252-5.933-13.252-13.252v-144.129c0-7.319 5.933-13.252 13.252-13.252h25.244c7.319 0 13.252 5.933 13.252 13.252v144.128c0 7.32-5.933 13.253-13.252 13.253z" fill="url(#SVGID_00000025412602111570525510000002941765283655958166_)"/><path d="m56.833 119.159v97.799c0 7.319 5.933 13.252 13.252 13.252h25.244c7.319 0 13.252-5.933 13.252-13.252v-97.799z" fill="url(#SVGID_00000145044266511885785190000008544022281991090329_)"/></g><g><circle cx="272.214" cy="274.82" fill="url(#SVGID_00000036222723966984193780000007667976697432918146_)" r="72.334"/><circle cx="272.214" cy="274.82" fill="url(#SVGID_00000080196526689657567750000008404127068163887267_)" r="56.721"/><path d="m278.136 265.051v-17.828c7.938.61 10.258 4.518 14.287 4.518 5.374 0 7.572-6.716 7.572-10.013 0-8.425-14.287-10.38-21.859-10.623v-3.053c0-1.71-2.32-3.298-4.639-3.298-2.686 0-4.641 1.588-4.641 3.298v3.418c-12.944 1.833-24.422 9.281-24.422 24.79 0 15.63 13.188 20.881 24.422 25.155v19.781c-9.036-1.588-13.188-8.792-18.316-8.792-4.641 0-8.303 6.105-8.303 10.257 0 7.815 11.966 15.387 26.62 15.875v3.053c0 1.71 1.954 3.298 4.641 3.298 2.32 0 4.639-1.588 4.639-3.298v-3.541c14.287-2.32 24.057-11.479 24.057-26.62-.002-16.486-12.946-22.226-24.058-26.377zm-8.059-2.931c-4.641-1.953-7.815-4.151-7.815-7.693 0-2.93 2.32-5.739 7.815-6.837zm6.839 38.954v-16.364c4.396 2.076 7.449 4.641 7.449 8.67-.001 4.396-3.298 6.717-7.449 7.694z" fill="url(#SVGID_00000046317789118746452610000016950572493619307392_)"/><path d="m199.881 274.82c0 39.949 32.385 72.333 72.334 72.333s72.333-32.385 72.333-72.333c0-2.42-.124-4.81-.356-7.168h-143.955c-.232 2.358-.356 4.748-.356 7.168z" fill="url(#SVGID_00000026867922171933242330000003744788372237481901_)"/></g><g><circle cx="338.028" cy="437.667" fill="url(#SVGID_00000037670480965171506610000014025455957169850534_)" r="72.334"/><circle cx="338.028" cy="437.667" fill="url(#SVGID_00000014607848786286587200000004330108954212885922_)" r="56.721"/><path d="m343.949 427.898v-17.828c7.938.61 10.258 4.518 14.287 4.518 5.374 0 7.572-6.716 7.572-10.013 0-8.425-14.287-10.38-21.859-10.623v-3.053c0-1.71-2.32-3.298-4.639-3.298-2.686 0-4.641 1.588-4.641 3.298v3.418c-12.944 1.833-24.422 9.281-24.422 24.79 0 15.63 13.188 20.881 24.422 25.155v19.781c-9.036-1.588-13.188-8.792-18.316-8.792-4.641 0-8.303 6.105-8.303 10.257 0 7.815 11.966 15.387 26.62 15.875v3.053c0 1.71 1.954 3.298 4.641 3.298 2.32 0 4.639-1.588 4.639-3.298v-3.541c14.287-2.32 24.057-11.479 24.057-26.62-.001-16.486-12.945-22.226-24.058-26.377zm-8.058-2.931c-4.641-1.953-7.815-4.151-7.815-7.693 0-2.93 2.32-5.739 7.815-6.837zm6.838 38.953v-16.363c4.396 2.076 7.449 4.641 7.449 8.67 0 4.396-3.298 6.717-7.449 7.693z" fill="url(#SVGID_00000077321877701532179830000001611636697341770902_)"/><path d="m265.694 437.666c0 39.949 32.385 72.333 72.334 72.333s72.333-32.385 72.333-72.333c0-2.42-.124-4.81-.356-7.168h-143.954c-.233 2.359-.357 4.749-.357 7.168z" fill="url(#SVGID_00000074410014844453040660000012789636054599770002_)"/></g><g><path d="m65.253 239.835h-50.506c-8.144 0-14.747-6.602-14.747-14.747v-160.387c0-8.145 6.603-14.747 14.747-14.747h50.506c8.144 0 14.747 6.603 14.747 14.747v160.387c0 8.145-6.603 14.747-14.747 14.747z" fill="url(#SVGID_00000161630581475592424400000003416316552262377370_)"/><path d="m0 116.256v108.832c0 8.145 6.603 14.747 14.747 14.747h50.506c8.145 0 14.747-6.603 14.747-14.747v-108.832z" fill="url(#SVGID_00000147923117503959411760000006308953423286953645_)"/></g></g></svg>