<svg id="Capa_1" enable-background="new 0 0 510 510" height="512" viewBox="0 0 510 510" width="512" xmlns="http://www.w3.org/2000/svg" xmlns:xlink="http://www.w3.org/1999/xlink"><linearGradient id="SVGID_1_" gradientUnits="userSpaceOnUse" x1="99" x2="467.879" y1="99" y2="467.879"><stop offset="0" stop-color="#c59191"/><stop offset="1" stop-color="#9b5e5e"/></linearGradient><linearGradient id="lg1"><stop offset="0" stop-color="#9b5e5e" stop-opacity="0"/><stop offset=".2469" stop-color="#955857" stop-opacity=".247"/><stop offset=".6116" stop-color="#854943" stop-opacity=".612"/><stop offset="1" stop-color="#6d3326"/></linearGradient><linearGradient id="SVGID_00000072279062588722197320000008324376185040929464_" gradientUnits="userSpaceOnUse" x1="88.6" x2="13.933" xlink:href="#lg1" y1="149.41" y2="84.076"/><linearGradient id="SVGID_00000127013919623120538490000013081375540851588799_" gradientUnits="userSpaceOnUse" x1="-9.68" x2="383.32" xlink:href="#lg1" y1="58.582" y2="566.582"/><linearGradient id="SVGID_00000095330083260707516120000002827621917330647426_" gradientUnits="userSpaceOnUse" x1="255" x2="255" xlink:href="#lg1" y1="445.701" y2="505.698"/><linearGradient id="SVGID_00000047040674611152780610000010458178445724769700_" gradientTransform="matrix(0 -1 1 0 2701.345 -3255.345)" gradientUnits="userSpaceOnUse" x1="-3510.345" x2="-3510.345" xlink:href="#lg1" y1="-2255.644" y2="-2195.648"/><linearGradient id="SVGID_00000009588008620691080690000013221046887963499675_" gradientUnits="userSpaceOnUse" x1="351.282" x2="266.282" xlink:href="#lg1" y1="210.306" y2="56.306"/><linearGradient id="SVGID_00000114768435001874532060000012628123724911566502_" gradientUnits="userSpaceOnUse" x1="493.689" x2="455.189" xlink:href="#lg1" y1="172.278" y2="88.278"/><linearGradient id="lg2"><stop offset="0" stop-color="#433f43" stop-opacity="0"/><stop offset="1" stop-color="#1a1a1a"/></linearGradient><linearGradient id="SVGID_00000173866740880284510920000007430901865041698202_" gradientUnits="userSpaceOnUse" x1="481.015" x2="411.682" xlink:href="#lg2" y1="402.782" y2="423.448"/><linearGradient id="SVGID_00000108282167910094418140000012839030050073903295_" gradientUnits="userSpaceOnUse" x1="456.922" x2="386.922" xlink:href="#lg1" y1="362.785" y2="330.119"/><linearGradient id="SVGID_00000164509113254293224030000012335224453948039333_" gradientUnits="userSpaceOnUse" x1="267.582" x2="247.082" xlink:href="#lg2" y1="531.925" y2="459.425"/><linearGradient id="lg3"><stop offset="0" stop-color="#99e6fc"/><stop offset="1" stop-color="#01c0fa"/></linearGradient><linearGradient id="SVGID_00000047044986578106831460000000699383630118451870_" gradientUnits="userSpaceOnUse" x1="255" x2="255" xlink:href="#lg3" y1="207.232" y2="329.773"/><linearGradient id="SVGID_00000115474932795887348360000015721796505237628585_" gradientUnits="userSpaceOnUse" x1="255" x2="255" xlink:href="#lg3" y1="315.942" y2="135.014"/><linearGradient id="lg4"><stop offset="0" stop-color="#017bae" stop-opacity="0"/><stop offset="1" stop-color="#017bae"/></linearGradient><linearGradient id="SVGID_00000129921426437413209360000010775396171762578055_" gradientUnits="userSpaceOnUse" x1="415.5" x2="454.503" xlink:href="#lg4" y1="283.505" y2="283.505"/><linearGradient id="SVGID_00000160907593586449380480000001414223693458584750_" gradientUnits="userSpaceOnUse" x1="268.5" x2="241.958" xlink:href="#lg4" y1="314.042" y2="314.042"/><linearGradient id="SVGID_00000021104370405059449480000004954975875324137118_" gradientUnits="userSpaceOnUse" x1="429" x2="387.951" xlink:href="#lg4" y1="317.228" y2="317.228"/><linearGradient id="lg5"><stop offset="0" stop-color="#554e56"/><stop offset="1" stop-color="#433f43"/></linearGradient><linearGradient id="SVGID_00000150802613818804250180000015467651314558927274_" gradientUnits="userSpaceOnUse" x1="72" x2="90.561" xlink:href="#lg5" y1="471.44" y2="471.44"/><linearGradient id="SVGID_00000005982564870250556880000012626474226552538554_" gradientUnits="userSpaceOnUse" x1="418.5" x2="436.507" xlink:href="#lg5" y1="471.44" y2="471.44"/><linearGradient id="lg6"><stop offset="0" stop-color="#fffdf1"/><stop offset="1" stop-color="#fff5c6"/></linearGradient><linearGradient id="SVGID_00000032612708330181208410000008705496989210015142_" gradientUnits="userSpaceOnUse" x1="178.783" x2="178.783" xlink:href="#lg6" y1="256.243" y2="318.895"/><linearGradient id="lg7"><stop offset="0" stop-color="#fea613" stop-opacity="0"/><stop offset=".1735" stop-color="#fc9d18" stop-opacity=".174"/><stop offset=".4632" stop-color="#f78325" stop-opacity=".463"/><stop offset=".8315" stop-color="#ee5a3a" stop-opacity=".832"/><stop offset="1" stop-color="#e94444"/></linearGradient><linearGradient id="SVGID_00000081642584004696085110000008736452253937193601_" gradientUnits="userSpaceOnUse" x1="178.783" x2="178.783" xlink:href="#lg7" y1="284" y2="340"/><linearGradient id="SVGID_00000026124498449363235900000010920524941849549231_" gradientUnits="userSpaceOnUse" x1="227.104" x2="274" xlink:href="#lg7" y1="295.239" y2="295.239"/><linearGradient id="SVGID_00000116209013337973687000000003948742631093540768_" gradientUnits="userSpaceOnUse" x1="331.217" x2="331.217" xlink:href="#lg6" y1="256.243" y2="318.895"/><linearGradient id="SVGID_00000099630545422405194660000013906334296454305982_" gradientUnits="userSpaceOnUse" x1="331.217" x2="331.217" xlink:href="#lg7" y1="284.667" y2="342"/><linearGradient id="SVGID_00000105394374808144934050000001029346608077278600_" gradientUnits="userSpaceOnUse" x1="379.538" x2="426.434" xlink:href="#lg7" y1="295.239" y2="295.239"/><linearGradient id="SVGID_00000031186391097924523460000017851000870817334197_" gradientUnits="userSpaceOnUse" x1="252.855" x2="254.188" xlink:href="#lg6" y1="321.557" y2="360.223"/><linearGradient id="SVGID_00000061448145459493198820000000110711017676580278_" gradientUnits="userSpaceOnUse" x1="255" x2="255" xlink:href="#lg7" y1="334" y2="397.333"/><linearGradient id="SVGID_00000049923772351427844750000014981686612837370801_" gradientUnits="userSpaceOnUse" x1="202.112" x2="304.628" xlink:href="#lg6" y1="344.449" y2="504.093"/><linearGradient id="lg8"><stop offset="0" stop-color="#fea613" stop-opacity="0"/><stop offset=".1832" stop-color="#fc9b19" stop-opacity=".183"/><stop offset=".5086" stop-color="#f57d28" stop-opacity=".509"/><stop offset=".9356" stop-color="#eb4c40" stop-opacity=".936"/><stop offset="1" stop-color="#e94444"/></linearGradient><linearGradient id="SVGID_00000073702735115060769860000001750268005141580939_" gradientUnits="userSpaceOnUse" x1="255" x2="255" xlink:href="#lg8" y1="473.079" y2="528.916"/><linearGradient id="SVGID_00000080198599855021338530000012875503324845582004_" gradientUnits="userSpaceOnUse" x1="371.738" x2="539.377" xlink:href="#lg8" y1="451.94" y2="495.545"/><linearGradient id="SVGID_00000037676319239217733270000009534399375721940150_" gradientUnits="userSpaceOnUse" x1="282.565" x2="408.781" xlink:href="#lg8" y1="426.786" y2="476.63"/><linearGradient id="SVGID_00000124859653442209801700000011785732728653450885_" gradientUnits="userSpaceOnUse" x1="217.108" x2="185.192" xlink:href="#lg8" y1="460.34" y2="498.769"/><linearGradient id="SVGID_00000161604088206579701720000007807568753037417395_" gradientUnits="userSpaceOnUse" x1="255" x2="255" xlink:href="#lg8" y1="480.347" y2="527.115"/><linearGradient id="SVGID_00000139279968506761664810000008555999379273182342_" gradientUnits="userSpaceOnUse" x1="442.903" x2="537.243" xlink:href="#lg8" y1="426.571" y2="426.571"/><linearGradient id="lg9"><stop offset="0" stop-color="#fffdf1"/><stop offset="1" stop-color="#fff5c6" stop-opacity="0"/></linearGradient><linearGradient id="SVGID_00000065793041358455878510000007364786594404140471_" gradientUnits="userSpaceOnUse" x1="108.469" x2="108.469" xlink:href="#lg9" y1="120.057" y2="264.081"/><linearGradient id="lg10"><stop offset="0" stop-color="#fef48b"/><stop offset=".1462" stop-color="#fdf07e"/><stop offset=".4164" stop-color="#fce55c"/><stop offset=".778" stop-color="#fbd325"/><stop offset="1" stop-color="#fac600"/></linearGradient><linearGradient id="SVGID_00000115506192263055009110000017528838855383999652_" gradientUnits="userSpaceOnUse" x1="38.89" x2="71.819" xlink:href="#lg10" y1="104.333" y2="104.333"/><linearGradient id="SVGID_00000005255562525746763520000007865625135597020086_" gradientUnits="userSpaceOnUse" x1="401.531" x2="401.531" xlink:href="#lg9" y1="120.057" y2="264.081"/><linearGradient id="SVGID_00000117661593673939172860000001670206217534598785_" gradientUnits="userSpaceOnUse" x1="445.012" x2="477.941" xlink:href="#lg10" y1="104.333" y2="104.333"/><linearGradient id="lg11"><stop offset="0" stop-color="#e1d3ce"/><stop offset="1" stop-color="#9e9797"/></linearGradient><linearGradient id="SVGID_00000175312188667143692550000001981467053567694212_" gradientUnits="userSpaceOnUse" x1="209.317" x2="284.65" xlink:href="#lg11" y1="5.357" y2="148.691"/><linearGradient id="lg12"><stop offset="0" stop-color="#433f43" stop-opacity="0"/><stop offset=".3007" stop-color="#3c393c" stop-opacity=".301"/><stop offset=".7373" stop-color="#292729" stop-opacity=".737"/><stop offset="1" stop-color="#1a1a1a"/></linearGradient><linearGradient id="SVGID_00000088095725886369897600000001563103796610648998_" gradientUnits="userSpaceOnUse" x1="166.667" x2="109.33" xlink:href="#lg12" y1="92.277" y2="92.277"/><linearGradient id="SVGID_00000065049265100876403640000005307097195097270668_" gradientUnits="userSpaceOnUse" x1="255" x2="255" xlink:href="#lg12" y1="47.333" y2="-.169"/><linearGradient id="SVGID_00000153696316970732100930000010020194273953464245_" gradientUnits="userSpaceOnUse" x1="234.774" x2="297.441" xlink:href="#lg11" y1="-.031" y2="285.969"/><linearGradient id="SVGID_00000043432684561421932360000013490813482045119877_" gradientUnits="userSpaceOnUse" x1="232.737" x2="386.422" xlink:href="#lg12" y1="66.844" y2="220.529"/><linearGradient id="SVGID_00000044143481592454224140000013212489999602434689_" gradientUnits="userSpaceOnUse" x1="158.438" x2="292.324" xlink:href="#lg12" y1="66.635" y2="200.521"/><linearGradient id="SVGID_00000178889948778543094620000003602031235077658766_" gradientUnits="userSpaceOnUse" x1="283.986" x2="369.845" xlink:href="#lg12" y1="36.584" y2="122.443"/><linearGradient id="SVGID_00000114035130822779430170000011638289029732900778_" gradientUnits="userSpaceOnUse" x1="189.181" x2="317.942" xlink:href="#lg12" y1="29.217" y2="157.978"/><linearGradient id="SVGID_00000062183505151849461820000003946720802316853662_" gradientUnits="userSpaceOnUse" x1="247.012" x2="311.393" xlink:href="#lg12" y1="87.048" y2="151.429"/><linearGradient id="SVGID_00000160189639114874264370000005453414967971348130_" gradientUnits="userSpaceOnUse" x1="255" x2="255" xlink:href="#lg12" y1="142" y2="189.511"/><g><g><g><path d="m479 510h-448c-17.121 0-31-13.879-31-31v-448c0-17.121 13.879-31 31-31h448c17.121 0 31 13.879 31 31v448c0 17.121-13.879 31-31 31z" fill="url(#SVGID_1_)"/><path d="m317.95 311.83h-121.96l-174.87-174.87 25.88-66.74h29.33z" fill="url(#SVGID_00000072279062588722197320000008324376185040929464_)"/><path d="m0 311.832v167.168c0 17.121 13.879 31 31 31h448c17.121 0 31-13.879 31-31v-167.168z" fill="url(#SVGID_00000127013919623120538490000013081375540851588799_)"/><path d="m0 311.832v167.168c0 17.121 13.879 31 31 31h448c17.121 0 31-13.879 31-31v-167.168z" fill="url(#SVGID_00000095330083260707516120000002827621917330647426_)"/><path d="m311.832 510h167.168c17.121 0 31-13.879 31-31v-448c0-17.121-13.879-31-31-31h-167.168z" fill="url(#SVGID_00000047040674611152780610000010458178445724769700_)"/><path d="m510 479v-320.49l-137.234-137.234-233.785 143.748 344.633 344.633c14.932-2.229 26.386-15.105 26.386-30.657z" fill="url(#SVGID_00000009588008620691080690000013221046887963499675_)"/><path d="m510 97.906-27.688-27.686h-29.33l-25.879 66.74 82.897 82.897z" fill="url(#SVGID_00000114768435001874532060000012628123724911566502_)"/><path d="m510 479v-167.168h-86.099v198.168h55.099c17.121 0 31-13.879 31-31z" fill="url(#SVGID_00000173866740880284510920000007430901865041698202_)"/><path d="m479 510c17.121 0 31-13.879 31-31v-216.079l-70.807-70.807-14.805 14.805v303.081z" fill="url(#SVGID_00000108282167910094418140000012839030050073903295_)"/><path d="m86.099 464.858h337.802v45.142h-337.802z" fill="url(#SVGID_00000164509113254293224030000012335224453948039333_)"/></g></g><g><path d="m413.724 181.529c-105.903 8.398-211.546 8.398-317.447 0-20.341-1.613-36.455 16.943-31.831 36.817 13.006 55.905 8.847 110.581-12.445 167.233 135.513-13.729 270.483-13.728 405.999 0-21.294-56.652-25.451-111.328-12.445-167.234 4.623-19.874-11.491-38.43-31.831-36.816z" fill="url(#SVGID_00000047044986578106831460000000699383630118451870_)"/><path d="m431.268 383.052c-16.368-49.478-19.128-97.45-8.242-146.443 4.077-18.348-10.132-35.479-28.068-33.989-93.382 7.753-186.535 7.753-279.916 0-17.936-1.489-32.145 15.642-28.068 33.989 10.886 48.993 8.124 96.964-8.242 146.443 117.63-10.355 234.904-10.354 352.536 0z" fill="url(#SVGID_00000115474932795887348360000015721796505237628585_)"/><path d="m445.555 218.345c4.623-19.874-11.491-38.43-31.831-36.817-31.93 2.532-63.836 4.286-95.733 5.292v189.456c46.635 1.469 93.29 4.57 140.01 9.302-21.295-56.651-25.452-111.327-12.446-167.233z" fill="url(#SVGID_00000129921426437413209360000010775396171762578055_)"/><path d="m380.098 379.207-130.33-130.33-11.446 11.446v115.041c47.248-.395 94.492.886 141.776 3.843z" fill="url(#SVGID_00000160907593586449380480000001414223693458584750_)"/><path d="m458 385.579c-12.8-34.053-19.398-67.392-19.809-100.713l-35.989-35.989-12.163 12.163v118.812c22.642 1.528 45.294 3.431 67.961 5.727z" fill="url(#SVGID_00000021104370405059449480000004954975875324137118_)"/></g><g><path d="m110.159 455.963c4.344-7.653 1.457-17.439-6.483-21.465-7.437-3.771-16.552-.694-20.668 6.558l-6.248 11.009c-5.983 10.542-7.514 22.809-4.421 34.352-7.969 1.064-14.122 7.872-14.122 16.133v.119c0 4.049 3.282 7.331 7.331 7.331h27.489c.559 0 1.11-.038 1.649-.111 7.261-.985 11.518-8.682 9.064-15.587-2.015-5.67-4.919-17.14-.055-26.95 1.454-2.933 6.464-11.389 6.464-11.389z" fill="url(#SVGID_00000150802613818804250180000015467651314558927274_)"/><path d="m399.841 455.963c-4.344-7.653-1.457-17.439 6.483-21.465 7.437-3.771 16.552-.694 20.668 6.558l6.248 11.009c5.983 10.542 7.514 22.809 4.421 34.352 7.969 1.064 14.122 7.872 14.122 16.133v.119c0 4.049-3.282 7.331-7.331 7.331h-27.489c-.559 0-1.11-.038-1.649-.111-7.261-.985-11.518-8.682-9.064-15.587 2.015-5.67 4.919-17.14.055-26.95-1.454-2.933-6.464-11.389-6.464-11.389z" fill="url(#SVGID_00000005982564870250556880000012626474226552538554_)"/></g><g><g><path d="m251.28 257.345c1.528-7.953-5.093-15.102-13.143-14.22-39.601 4.335-79.106 4.335-118.707 0-8.051-.881-14.672 6.267-13.144 14.22 4.891 25.452 4.888 50.346 0 75.787-1.528 7.954 5.092 15.102 13.143 14.221 39.601-4.335 79.106-4.335 118.708 0 8.051.881 14.672-6.267 13.143-14.221-4.889-25.44-4.891-50.335 0-75.787z" fill="url(#SVGID_00000032612708330181208410000008705496989210015142_)"/><path d="m251.28 257.345c1.528-7.953-5.093-15.102-13.143-14.22-39.601 4.335-79.106 4.335-118.707 0-8.051-.881-14.672 6.267-13.144 14.22 4.891 25.452 4.888 50.346 0 75.787-1.528 7.954 5.092 15.102 13.143 14.221 39.601-4.335 79.106-4.335 118.708 0 8.051.881 14.672-6.267 13.143-14.221-4.889-25.44-4.891-50.335 0-75.787z" fill="url(#SVGID_00000081642584004696085110000008736452253937193601_)"/><path d="m238.137 243.125c-19.801 2.168-39.577 3.252-59.354 3.252v97.725c19.776 0 39.553 1.084 59.354 3.251 8.051.881 14.672-6.267 13.143-14.221-4.889-25.441-4.891-50.335 0-75.787 1.528-7.953-5.092-15.101-13.143-14.22z" fill="url(#SVGID_00000026124498449363235900000010920524941849549231_)"/></g><g><path d="m403.714 257.345c1.528-7.953-5.093-15.102-13.143-14.22-39.601 4.335-79.106 4.335-118.707 0-8.051-.881-14.672 6.267-13.144 14.22 4.891 25.452 4.888 50.346 0 75.787-1.528 7.954 5.092 15.102 13.143 14.221 39.601-4.335 79.106-4.335 118.708 0 8.051.881 14.672-6.267 13.143-14.221-4.889-25.44-4.891-50.335 0-75.787z" fill="url(#SVGID_00000116209013337973687000000003948742631093540768_)"/><path d="m403.714 257.345c1.528-7.953-5.093-15.102-13.143-14.22-39.601 4.335-79.106 4.335-118.707 0-8.051-.881-14.672 6.267-13.144 14.22 4.891 25.452 4.888 50.346 0 75.787-1.528 7.954 5.092 15.102 13.143 14.221 39.601-4.335 79.106-4.335 118.708 0 8.051.881 14.672-6.267 13.143-14.221-4.889-25.44-4.891-50.335 0-75.787z" fill="url(#SVGID_00000099630545422405194660000013906334296454305982_)"/><path d="m390.571 243.125c-19.801 2.168-39.577 3.252-59.354 3.252v97.725c19.776 0 39.553 1.084 59.354 3.251 8.051.881 14.672-6.267 13.143-14.221-4.889-25.441-4.891-50.335 0-75.787 1.529-7.953-5.092-15.101-13.143-14.22z" fill="url(#SVGID_00000105394374808144934050000001029346608077278600_)"/></g></g><path d="m451.784 403.327h-393.568v-38.189c0-29.44 23.866-53.306 53.306-53.306h286.956c29.44 0 53.306 23.866 53.306 53.306z" fill="url(#SVGID_00000031186391097924523460000017851000870817334197_)"/><path d="m451.784 403.327h-393.568v-38.189c0-29.44 23.866-53.306 53.306-53.306h286.956c29.44 0 53.306 23.866 53.306 53.306z" fill="url(#SVGID_00000061448145459493198820000000110711017676580278_)"/><g><path d="m476 382.39v94.954c0 5.181-6.312 8.141-10.74 5.036-13.292-9.31-34.837-9.31-48.118 0l-13.954 9.78c-13.281 9.31-34.826 9.31-48.118 0l-13.943-9.78c-13.292-9.31-34.837-9.31-48.118 0l-13.943 9.78c-13.292 9.31-34.837 9.31-48.129 0l-13.943-9.78c-13.281-9.31-34.826-9.31-48.118 0l-13.943 9.78c-13.292 9.31-34.837 9.31-48.118 0l-13.954-9.78c-13.281-9.31-34.826-9.31-48.118 0-4.428 3.105-10.74.145-10.74-5.036v-94.954c-.003-15.68 13.567-28.39 30.318-28.39h381.358c16.751 0 30.321 12.71 30.321 28.39z" fill="url(#SVGID_00000049923772351427844750000014981686612837370801_)"/><path d="m423.686 354h-337.372v124.824c2.327.982 4.538 2.149 6.545 3.556l13.954 9.78c13.281 9.31 34.826 9.31 48.118 0l13.943-9.78c13.292-9.31 34.837-9.31 48.118 0l13.943 9.78c13.292 9.31 34.837 9.31 48.129 0l13.943-9.78c13.281-9.31 34.826-9.31 48.118 0l13.943 9.78c13.292 9.31 34.837 9.31 48.118 0l13.954-9.78c2.007-1.406 4.218-2.574 6.545-3.556v-124.824z" fill="url(#SVGID_00000073702735115060769860000001750268005141580939_)"/><path d="m423.686 354h-337.372v124.824c2.327.982 4.538 2.149 6.545 3.556l13.954 9.78c13.281 9.31 34.826 9.31 48.118 0l13.943-9.78c13.292-9.31 34.837-9.31 48.118 0l13.943 9.78c13.292 9.31 34.837 9.31 48.129 0l13.943-9.78c13.281-9.31 34.826-9.31 48.118 0l13.943 9.78c13.292 9.31 34.837 9.31 48.118 0l13.954-9.78c2.007-1.406 4.218-2.574 6.545-3.556v-124.824z" fill="url(#SVGID_00000080198599855021338530000012875503324845582004_)"/><path d="m317.99 354h-125.98v121.428c9.015-.171 18.106 2.131 24.983 6.951l13.943 9.78c13.292 9.31 34.837 9.31 48.129 0l13.943-9.78c6.877-4.82 15.968-7.123 24.983-6.951v-121.428z" fill="url(#SVGID_00000037676319239217733270000009534399375721940150_)"/><path d="m317.99 354h-125.98v121.428c9.015-.171 18.106 2.131 24.983 6.951l13.943 9.78c13.292 9.31 34.837 9.31 48.129 0l13.943-9.78c6.877-4.82 15.968-7.123 24.983-6.951v-121.428z" fill="url(#SVGID_00000124859653442209801700000011785732728653450885_)"/><path d="m34 421.16v56.184c0 5.181 6.312 8.141 10.74 5.036 13.292-9.31 34.837-9.31 48.118 0l13.954 9.78c13.281 9.31 34.826 9.31 48.118 0l13.943-9.78c13.292-9.31 34.837-9.31 48.118 0l13.943 9.78c13.292 9.31 34.837 9.31 48.129 0l13.943-9.78c13.281-9.31 34.826-9.31 48.118 0l13.943 9.78c13.292 9.31 34.837 9.31 48.118 0l13.954-9.78c13.281-9.31 34.826-9.31 48.118 0 4.428 3.105 10.74.145 10.74-5.036v-56.184z" fill="url(#SVGID_00000161604088206579701720000007807568753037417395_)"/><path d="m445.679 354h-127.689v121.428c8.396.16 16.726 2.462 23.136 6.951l13.943 9.78c13.292 9.31 34.837 9.31 48.118 0l13.954-9.78c13.281-9.31 34.826-9.31 48.118 0 4.428 3.105 10.74.145 10.74-5.036v-94.953c.001-15.68-13.569-28.39-30.32-28.39z" fill="url(#SVGID_00000139279968506761664810000008555999379273182342_)"/></g><g><g><path d="m0 340.275h216.939l-165-250-51.939 78.695z" fill="url(#SVGID_00000065793041358455878510000007364786594404140471_)"/><path d="m74.182 142h-44.487c-5.803 0-10.342-5.001-9.782-10.776l5.401-55.678c.489-5.036 4.722-8.879 9.782-8.879h33.685c5.06 0 9.293 3.842 9.782 8.879l5.401 55.678c.56 5.775-3.979 10.776-9.782 10.776z" fill="url(#SVGID_00000115506192263055009110000017528838855383999652_)"/></g><g><path d="m510 168.97-51.939-78.695-165 250h216.939z" fill="url(#SVGID_00000005255562525746763520000007865625135597020086_)"/><path d="m480.305 142h-44.487c-5.803 0-10.342-5.001-9.782-10.776l5.401-55.678c.489-5.036 4.721-8.879 9.782-8.879h33.685c5.06 0 9.293 3.842 9.782 8.879l5.401 55.678c.559 5.775-3.98 10.776-9.782 10.776z" fill="url(#SVGID_00000117661593673939172860000001670206217534598785_)"/></g></g><g><g><path d="m356.009 163.276h-202.018c-8.289 0-15.009-6.72-15.009-15.009v-111.981c0-8.289 6.72-15.009 15.009-15.009h202.019c8.289 0 15.009 6.72 15.009 15.009v111.981c0 8.29-6.72 15.009-15.01 15.009z" fill="url(#SVGID_00000175312188667143692550000001981467053567694212_)"/><path d="m356.009 163.276h-202.018c-8.289 0-15.009-6.72-15.009-15.009v-111.981c0-8.289 6.72-15.009 15.009-15.009h202.019c8.289 0 15.009 6.72 15.009 15.009v111.981c0 8.29-6.72 15.009-15.01 15.009z" fill="url(#SVGID_00000088095725886369897600000001563103796610648998_)"/><path d="m356.009 163.276h-202.018c-8.289 0-15.009-6.72-15.009-15.009v-111.981c0-8.289 6.72-15.009 15.009-15.009h202.019c8.289 0 15.009 6.72 15.009 15.009v111.981c0 8.29-6.72 15.009-15.01 15.009z" fill="url(#SVGID_00000065049265100876403640000005307097195097270668_)"/><path d="m356.01 170.776h-202.019c-12.412 0-22.509-10.098-22.509-22.51v-111.98c0-12.412 10.098-22.51 22.509-22.51h202.019c12.411 0 22.509 10.098 22.509 22.51v111.98c0 12.413-10.098 22.51-22.509 22.51zm-202.019-142c-4.141 0-7.509 3.369-7.509 7.51v111.98c0 4.141 3.369 7.51 7.509 7.51h202.019c4.141 0 7.509-3.369 7.509-7.51v-111.98c0-4.141-3.368-7.51-7.509-7.51z" fill="url(#SVGID_00000153696316970732100930000010020194273953464245_)"/></g><g><path d="m292.092 62.645-51.733 78.383c-2.327 3.526.202 8.224 4.426 8.224h103.465c4.224 0 6.753-4.698 4.426-8.224l-51.733-78.383c-2.095-3.176-6.755-3.176-8.851 0z" fill="url(#SVGID_00000043432684561421932360000013490813482045119877_)"/><circle cx="195.266" cy="103.462" fill="url(#SVGID_00000044143481592454224140000013212489999602434689_)" r="38.828"/><circle cx="307.603" cy="60.201" fill="url(#SVGID_00000178889948778543094620000003602031235077658766_)" r="24.899"/><path d="m243.932 93.968h-38.667c-5.523 0-10-4.477-10-10v-38.667c0-5.523 4.477-10 10-10h38.667c5.523 0 10 4.477 10 10v38.667c0 5.523-4.477 10-10 10z" fill="url(#SVGID_00000114035130822779430170000011638289029732900778_)"/><path d="m274.388 119.424h-19.333c-2.761 0-5-2.239-5-5v-19.333c0-2.761 2.239-5 5-5h19.333c2.761 0 5 2.239 5 5v19.333c0 2.761-2.239 5-5 5z" fill="url(#SVGID_00000062183505151849461820000003946720802316853662_)"/></g><path d="m363.519 92.276v55.99c0 4.141-3.368 7.51-7.509 7.51h-202.019c-4.141 0-7.509-3.369-7.509-7.51v-55.99h-15v55.99c0 12.412 10.098 22.51 22.509 22.51h202.019c12.411 0 22.509-10.098 22.509-22.51v-55.99z" fill="url(#SVGID_00000160189639114874264370000005453414967971348130_)"/></g></g></svg>