<svg id="Capa_1" enable-background="new 0 0 512 512" height="512" viewBox="0 0 512 512" width="512" xmlns="http://www.w3.org/2000/svg" xmlns:xlink="http://www.w3.org/1999/xlink"><linearGradient id="lg1"><stop offset="0" stop-color="#554e56"/><stop offset="1" stop-color="#433f43"/></linearGradient><linearGradient id="SVGID_1_" gradientTransform="matrix(0 1.004 -1.004 0 1618.231 -1104.223)" gradientUnits="userSpaceOnUse" x1="1207.35" x2="1483.208" xlink:href="#lg1" y1="1517.005" y2="1241.147"/><linearGradient id="SVGID_00000040563755270769962940000004763352243934101171_" gradientTransform="matrix(0 1.004 -1.004 0 1618.231 -1104.223)" gradientUnits="userSpaceOnUse" x1="1394.279" x2="1285.189" xlink:href="#lg1" y1="1240.922" y2="1515.528"/><linearGradient id="lg2"><stop offset="0" stop-color="#433f43" stop-opacity="0"/><stop offset="1" stop-color="#1a1a1a"/></linearGradient><linearGradient id="SVGID_00000113337246034426811160000006842078354137096867_" gradientTransform="matrix(1.004 0 0 -1.004 0 514.008)" gradientUnits="userSpaceOnUse" x1="223.072" x2="223.072" xlink:href="#lg2" y1="116.837" y2="45.826"/><linearGradient id="SVGID_00000036960411548960775300000009426213882062182292_" gradientTransform="matrix(1.004 0 0 -1.004 0 514.008)" gradientUnits="userSpaceOnUse" x1="389.356" x2="327.856" xlink:href="#lg2" y1="167.019" y2="192.019"/><linearGradient id="lg3"><stop offset="0" stop-color="#99e6fc"/><stop offset="1" stop-color="#01c0fa"/></linearGradient><linearGradient id="SVGID_00000123422985673824721060000010277531274918648974_" gradientTransform="matrix(1.004 0 0 -1.004 0 514.008)" gradientUnits="userSpaceOnUse" x1="168.976" x2="366.702" xlink:href="#lg3" y1="354.427" y2="110.504"/><linearGradient id="SVGID_00000079448767804269773140000013238872055993542025_" gradientTransform="matrix(1.004 0 0 -1.004 0 514.008)" gradientUnits="userSpaceOnUse" x1="202.499" x2="257.166" y1="283.616" y2="62.282"><stop offset="0" stop-color="#fff"/><stop offset="1" stop-color="#eaf6ff" stop-opacity="0"/></linearGradient><linearGradient id="lg4"><stop offset="0" stop-color="#017bae" stop-opacity="0"/><stop offset="1" stop-color="#017bae"/></linearGradient><linearGradient id="SVGID_00000033352919268954077690000003335183712565043605_" gradientTransform="matrix(1.004 0 0 -1.004 0 514.008)" gradientUnits="userSpaceOnUse" x1="344.54" x2="281.54" xlink:href="#lg4" y1="186.31" y2="208.81"/><linearGradient id="lg5"><stop offset="0" stop-color="#fef48b"/><stop offset=".1462" stop-color="#fdf07e"/><stop offset=".4164" stop-color="#fce55c"/><stop offset=".778" stop-color="#fbd325"/><stop offset="1" stop-color="#fac600"/></linearGradient><linearGradient id="SVGID_00000072276732290865997320000017813479827632843705_" gradientTransform="matrix(1.004 0 0 -1.004 0 514.008)" gradientUnits="userSpaceOnUse" x1="132.884" x2="156.649" xlink:href="#lg5" y1="239.836" y2="216.071"/><linearGradient id="lg6"><stop offset="0" stop-color="#fac600" stop-opacity="0"/><stop offset=".408" stop-color="#efbd01" stop-opacity=".408"/><stop offset="1" stop-color="#d7aa02"/></linearGradient><linearGradient id="SVGID_00000176754286151121922030000009349933073857162431_" gradientTransform="matrix(1.004 0 0 -1.004 0 514.008)" gradientUnits="userSpaceOnUse" x1="146.624" x2="150.982" xlink:href="#lg6" y1="241.01" y2="233.032"/><linearGradient id="SVGID_00000083806828144700082210000013343802225825851825_" gradientTransform="matrix(1.004 0 0 -1.004 0 514.008)" gradientUnits="userSpaceOnUse" x1="145.694" x2="154.041" xlink:href="#lg6" y1="217.606" y2="253.71"/><linearGradient id="SVGID_00000171694597780180894470000015384964573337363609_" gradientTransform="matrix(1.004 0 0 -1.004 0 514.008)" gradientUnits="userSpaceOnUse" x1="145.065" x2="145.065" xlink:href="#lg6" y1="216.954" y2="207.566"/><linearGradient id="SVGID_00000065757509056266445110000011318572766221065367_" gradientTransform="matrix(1.004 0 0 -1.004 0 514.008)" gradientUnits="userSpaceOnUse" x1="158.047" x2="120.501" xlink:href="#lg6" y1="233.931" y2="217.572"/><linearGradient id="SVGID_00000054964754631445478060000008225343180968738210_" gradientTransform="matrix(1.004 0 0 -1.004 0 514.008)" gradientUnits="userSpaceOnUse" x1="192.466" x2="216.231" xlink:href="#lg5" y1="239.836" y2="216.071"/><linearGradient id="SVGID_00000088822744196452228020000009400381489121753528_" gradientTransform="matrix(1.004 0 0 -1.004 0 514.008)" gradientUnits="userSpaceOnUse" x1="206.206" x2="210.564" xlink:href="#lg6" y1="241.01" y2="233.031"/><linearGradient id="SVGID_00000162323721075089093000000013626997533701194133_" gradientTransform="matrix(1.004 0 0 -1.004 0 514.008)" gradientUnits="userSpaceOnUse" x1="205.276" x2="213.623" xlink:href="#lg6" y1="217.606" y2="253.71"/><linearGradient id="SVGID_00000047773424139907015010000001271104039045695902_" gradientTransform="matrix(1.004 0 0 -1.004 0 514.008)" gradientUnits="userSpaceOnUse" x1="204.648" x2="204.648" xlink:href="#lg6" y1="216.954" y2="207.566"/><linearGradient id="SVGID_00000133517860801901145830000001732009655688566702_" gradientTransform="matrix(1.004 0 0 -1.004 0 514.008)" gradientUnits="userSpaceOnUse" x1="217.629" x2="180.084" xlink:href="#lg6" y1="233.931" y2="217.571"/><linearGradient id="SVGID_00000034061416098195784660000006415010040617951140_" gradientTransform="matrix(1.004 0 0 -1.004 0 514.008)" gradientUnits="userSpaceOnUse" x1="150.419" x2="208.283" y1="196.165" y2="138.301"><stop offset="0" stop-color="#fd8087"/><stop offset="1" stop-color="#e74335"/></linearGradient><linearGradient id="lg7"><stop offset="0" stop-color="#e41f2d" stop-opacity="0"/><stop offset=".3461" stop-color="#de1e2b" stop-opacity=".346"/><stop offset=".8036" stop-color="#ce1b28" stop-opacity=".804"/><stop offset="1" stop-color="#c41926"/></linearGradient><linearGradient id="SVGID_00000083772355360803069970000004009096012483778494_" gradientTransform="matrix(1.004 0 0 -1.004 0 514.008)" gradientUnits="userSpaceOnUse" x1="263.692" x2="290.118" xlink:href="#lg7" y1="141.937" y2="141.937"/><linearGradient id="SVGID_00000111877567553452008020000016044367804761337754_" gradientTransform="matrix(1.004 0 0 -1.004 0 514.008)" gradientUnits="userSpaceOnUse" x1="204.648" x2="204.648" xlink:href="#lg7" y1="130.733" y2="115.344"/><linearGradient id="lg8"><stop offset="0" stop-color="#fffdf1"/><stop offset="1" stop-color="#fff5c6"/></linearGradient><linearGradient id="SVGID_00000035533075705639526800000014957812485034243505_" gradientTransform="matrix(1.004 0 0 -1.004 0 514.008)" gradientUnits="userSpaceOnUse" x1="148.984" x2="160.984" xlink:href="#lg8" y1="141.342" y2="96.842"/><linearGradient id="SVGID_00000116205024542388924540000005293495573679875218_" gradientTransform="matrix(1.004 0 0 -1.004 0 514.008)" gradientUnits="userSpaceOnUse" x1="182.792" x2="194.792" xlink:href="#lg8" y1="150.459" y2="105.959"/><linearGradient id="SVGID_00000103963053749797927250000007092444311513716883_" gradientTransform="matrix(1.004 0 0 -1.004 0 514.008)" gradientUnits="userSpaceOnUse" x1="216.445" x2="228.445" xlink:href="#lg8" y1="159.534" y2="115.034"/><linearGradient id="SVGID_00000052814318615757463310000000446178470963802253_" gradientTransform="matrix(1.004 0 0 -1.004 0 514.008)" gradientUnits="userSpaceOnUse" x1="249.948" x2="261.948" xlink:href="#lg8" y1="168.568" y2="124.068"/><linearGradient id="SVGID_00000119095500592552335350000002177725690264619426_" gradientTransform="matrix(1.004 0 0 -1.004 0 514.008)" gradientUnits="userSpaceOnUse" x1="137.075" x2="268.962" xlink:href="#lg8" y1="392.497" y2="331.759"/><linearGradient id="lg9"><stop offset="0" stop-color="#fea613" stop-opacity="0"/><stop offset=".1832" stop-color="#fc9b19" stop-opacity=".183"/><stop offset=".5086" stop-color="#f57d28" stop-opacity=".509"/><stop offset=".9356" stop-color="#eb4c40" stop-opacity=".936"/><stop offset="1" stop-color="#e94444"/></linearGradient><linearGradient id="SVGID_00000034080067763858259780000009791754060891741842_" gradientTransform="matrix(1.004 0 0 -1.004 0 514.008)" gradientUnits="userSpaceOnUse" x1="223.072" x2="223.072" xlink:href="#lg9" y1="390.378" y2="435.578"/><linearGradient id="SVGID_00000132782607302807342350000005575012066869094043_" gradientTransform="matrix(1.004 0 0 -1.004 0 514.008)" gradientUnits="userSpaceOnUse" x1="302.14" x2="347.883" xlink:href="#lg9" y1="352.893" y2="352.893"/><linearGradient id="SVGID_00000163789603820709578920000007947108772963279511_" gradientTransform="matrix(1.004 0 0 -1.004 0 514.008)" gradientUnits="userSpaceOnUse" x1="159.126" x2="227.36" y1="501.708" y2="433.475"><stop offset="0" stop-color="#c59191"/><stop offset="1" stop-color="#9b5e5e"/></linearGradient><linearGradient id="lg10"><stop offset="0" stop-color="#9b5e5e" stop-opacity="0"/><stop offset=".2469" stop-color="#955857" stop-opacity=".247"/><stop offset=".6116" stop-color="#854943" stop-opacity=".612"/><stop offset="1" stop-color="#6d3326"/></linearGradient><linearGradient id="SVGID_00000030481231316540255930000015965089628159820201_" gradientTransform="matrix(1.004 0 0 -1.004 0 514.008)" gradientUnits="userSpaceOnUse" x1="320.451" x2="337.662" xlink:href="#lg10" y1="437.763" y2="437.763"/><linearGradient id="SVGID_00000106869332106121564920000005062939756363930771_" gradientTransform="matrix(1.004 0 0 -1.004 0 514.008)" gradientUnits="userSpaceOnUse" x1="223.072" x2="223.072" xlink:href="#lg10" y1="436.888" y2="416.719"/><linearGradient id="SVGID_00000011712204742751115920000016137786927676242612_" gradientTransform="matrix(1.004 0 0 -1.004 0 514.008)" gradientUnits="userSpaceOnUse" x1="147.274" x2="173.403" xlink:href="#lg3" y1="386.423" y2="360.294"/><linearGradient id="SVGID_00000156563260300435615790000006607210709920975745_" gradientTransform="matrix(1.004 0 0 -1.004 0 514.008)" gradientUnits="userSpaceOnUse" x1="148.412" x2="131.876" xlink:href="#lg4" y1="373.116" y2="373.116"/><linearGradient id="SVGID_00000113333682380425276120000013251537140946715829_" gradientTransform="matrix(0 1.004 1.004 0 294.149 2613.147)" gradientUnits="userSpaceOnUse" x1="-2476.223" x2="-2492.76" xlink:href="#lg4" y1="-132.42" y2="-132.42"/><linearGradient id="SVGID_00000082325876810521479200000013050812587048962973_" gradientTransform="matrix(1.004 0 0 -1.004 0 514.008)" gradientUnits="userSpaceOnUse" x1="209.765" x2="235.894" xlink:href="#lg3" y1="386.423" y2="360.294"/><linearGradient id="SVGID_00000106114448371913596730000008436615223968400279_" gradientTransform="matrix(1.004 0 0 -1.004 0 514.008)" gradientUnits="userSpaceOnUse" x1="210.904" x2="194.367" xlink:href="#lg4" y1="373.116" y2="373.116"/><linearGradient id="SVGID_00000158711699092540830600000016457274112295108248_" gradientTransform="matrix(0 1.004 1.004 0 294.149 2613.147)" gradientUnits="userSpaceOnUse" x1="-2476.223" x2="-2492.76" xlink:href="#lg4" y1="-69.928" y2="-69.928"/><linearGradient id="SVGID_00000013875625894204665500000011098680059098457017_" gradientTransform="matrix(1.004 0 0 -1.004 0 514.008)" gradientUnits="userSpaceOnUse" x1="272.257" x2="298.386" xlink:href="#lg3" y1="386.423" y2="360.294"/><linearGradient id="SVGID_00000129916771540256678110000000686739713658870919_" gradientTransform="matrix(1.004 0 0 -1.004 0 514.008)" gradientUnits="userSpaceOnUse" x1="273.395" x2="256.859" xlink:href="#lg4" y1="373.116" y2="373.116"/><linearGradient id="SVGID_00000138534699753775368070000009933029452518953404_" gradientTransform="matrix(0 1.004 1.004 0 294.149 2613.147)" gradientUnits="userSpaceOnUse" x1="-2476.223" x2="-2492.76" xlink:href="#lg4" y1="-7.437" y2="-7.437"/><linearGradient id="SVGID_00000011026087632887092320000004695270112903546794_" gradientTransform="matrix(1.004 0 0 -1.004 0 514.008)" gradientUnits="userSpaceOnUse" x1="147.274" x2="173.403" xlink:href="#lg3" y1="329.837" y2="303.707"/><linearGradient id="SVGID_00000140699966834111470670000000545554267465614733_" gradientTransform="matrix(1.004 0 0 -1.004 0 514.008)" gradientUnits="userSpaceOnUse" x1="148.412" x2="131.876" xlink:href="#lg4" y1="316.529" y2="316.529"/><linearGradient id="SVGID_00000054243231882917425860000012069672609775480465_" gradientTransform="matrix(0 1.004 1.004 0 294.149 2613.147)" gradientUnits="userSpaceOnUse" x1="-2419.636" x2="-2436.173" xlink:href="#lg4" y1="-132.42" y2="-132.42"/><linearGradient id="SVGID_00000091005761784832293470000017498514163956063146_" gradientTransform="matrix(1.004 0 0 -1.004 0 514.008)" gradientUnits="userSpaceOnUse" x1="209.765" x2="235.894" xlink:href="#lg3" y1="329.836" y2="303.707"/><linearGradient id="SVGID_00000070114658623776240120000018270314251629589669_" gradientTransform="matrix(1.004 0 0 -1.004 0 514.008)" gradientUnits="userSpaceOnUse" x1="210.904" x2="194.367" xlink:href="#lg4" y1="316.529" y2="316.529"/><linearGradient id="SVGID_00000084519426932606010770000016552060261165424312_" gradientTransform="matrix(0 1.004 1.004 0 294.149 2613.147)" gradientUnits="userSpaceOnUse" x1="-2419.636" x2="-2436.173" xlink:href="#lg4" y1="-69.928" y2="-69.928"/><linearGradient id="SVGID_00000162317267563838136460000012991391816760117121_" gradientTransform="matrix(1.004 0 0 -1.004 0 514.008)" gradientUnits="userSpaceOnUse" x1="272.257" x2="298.386" xlink:href="#lg3" y1="329.837" y2="303.707"/><linearGradient id="SVGID_00000062177788502037863920000015603861333126109594_" gradientTransform="matrix(1.004 0 0 -1.004 0 514.008)" gradientUnits="userSpaceOnUse" x1="273.395" x2="256.859" xlink:href="#lg4" y1="316.529" y2="316.529"/><linearGradient id="SVGID_00000011728710558820057250000013268516509435125380_" gradientTransform="matrix(0 1.004 1.004 0 294.149 2613.147)" gradientUnits="userSpaceOnUse" x1="-2419.636" x2="-2436.173" xlink:href="#lg4" y1="-7.437" y2="-7.437"/><linearGradient id="lg11"><stop offset="0" stop-color="#ffdfcf"/><stop offset="1" stop-color="#ffa78f"/></linearGradient><linearGradient id="SVGID_00000124864665232518062690000005021382877766334629_" gradientTransform="matrix(1.004 0 0 -1.004 0 514.008)" gradientUnits="userSpaceOnUse" x1="273.523" x2="339.287" xlink:href="#lg11" y1="143.301" y2="75.465"/><linearGradient id="SVGID_00000039105932129913086350000012335469096868626111_" gradientTransform="matrix(1.004 0 0 -1.004 0 514.008)" gradientUnits="userSpaceOnUse" x1="267.742" x2="407.342" xlink:href="#lg11" y1="208.955" y2="69.355"/><linearGradient id="lg12"><stop offset="0" stop-color="#f89580" stop-opacity="0"/><stop offset=".9972" stop-color="#c5715a"/></linearGradient><linearGradient id="SVGID_00000100355770985238573550000003849887784006675634_" gradientTransform="matrix(1.004 0 0 -1.004 0 514.008)" gradientUnits="userSpaceOnUse" x1="343.303" x2="494.303" xlink:href="#lg12" y1="207" y2="-35.501"/><linearGradient id="SVGID_00000047774271097943958640000006823640582402580647_" gradientTransform="matrix(-1.004 0 0 -1.004 -3501.844 514.008)" gradientUnits="userSpaceOnUse" x1="-3855.107" x2="-3855.107" xlink:href="#lg12" y1="31.516" y2="9.25"/><g><g><g><path d="m380.693 412.895v-352.727c0-33.23-26.938-60.168-60.168-60.168h-193.156c-33.23 0-60.168 26.938-60.168 60.168v352.727c0 33.23 26.938 60.168 60.168 60.168h193.157c33.229 0 60.167-26.938 60.167-60.168z" fill="url(#SVGID_1_)"/><path d="m311.01 13.645h-174.127c-29.107 0-52.702 23.595-52.702 52.703v340.369c0 29.107 23.596 52.703 52.703 52.703h174.127c29.107 0 52.703-23.596 52.703-52.703v-340.37c-.001-29.107-23.597-52.702-52.704-52.702z" fill="url(#SVGID_00000040563755270769962940000004763352243934101171_)"/><path d="m67.201 257.247v155.647c0 33.23 26.938 60.168 60.168 60.168h193.157c33.23 0 60.168-26.938 60.168-60.168v-155.647z" fill="url(#SVGID_00000113337246034426811160000006842078354137096867_)"/><path d="m380.693 306.602-56.625-56.626v138.395h56.625z" fill="url(#SVGID_00000036960411548960775300000009426213882062182292_)"/></g><path d="m347.365 71.449v307.477c0 23.067-18.699 41.766-41.766 41.766h-163.305c-23.067 0-41.766-18.699-41.766-41.766v-307.477c0-23.067 18.699-41.766 41.766-41.766h28.474c4.439 0 8.037 3.598 8.037 8.037 0 4.439 3.598 8.037 8.037 8.037h74.206c4.439 0 8.037-3.598 8.037-8.037 0-4.439 3.598-8.037 8.037-8.037h28.474c23.069-.001 41.769 18.699 41.769 41.766z" fill="url(#SVGID_00000123422985673824721060000010277531274918648974_)"/><path d="m347.369 241.754v137.176c0 23.06-18.703 41.763-41.773 41.763h-163.298c-23.07 0-41.773-18.703-41.773-41.763v-137.176z" fill="url(#SVGID_00000079448767804269773140000013238872055993542025_)"/><path d="m324.068 249.976v138.395h22.215c.702-3.035 1.085-6.192 1.085-9.441v-105.652z" fill="url(#SVGID_00000033352919268954077690000003335183712565043605_)"/><g><g><g><path d="m143.89 302.802-10.22 4.187c-3.162 1.296-6.584-1.19-6.328-4.598l.824-11.013c.09-1.204-.297-2.394-1.077-3.316l-7.14-8.426c-2.21-2.607-.904-6.629 2.417-7.439l10.729-2.619c1.173-.286 2.186-1.022 2.821-2.049l5.807-9.395c1.797-2.907 6.026-2.907 7.822 0l5.807 9.395c.634 1.027 1.647 1.763 2.821 2.049l10.729 2.619c3.32.81 4.627 4.832 2.417 7.439l-7.14 8.426c-.78.921-1.168 2.112-1.077 3.316l.824 11.013c.255 3.408-3.165 5.893-6.328 4.598l-10.22-4.187c-1.119-.458-2.371-.458-3.488 0z" fill="url(#SVGID_00000072276732290865997320000017813479827632843705_)"/><path d="m156.74 269.366-7.774 8.673c-1.997 2.23-4.666 2.23-6.666 0l-7.772-8.673c.02-.146.036-.293.046-.442.537-.361.996-.834 1.341-1.395l5.808-9.394c.561-.909 1.361-1.535 2.252-1.876 1.064-.406 2.256-.406 3.32 0 .89.341 1.691.967 2.252 1.876l5.806 9.394c.345.561.806 1.036 1.343 1.395.008.149.024.297.044.442z" fill="url(#SVGID_00000176754286151121922030000009349933073857162431_)"/><path d="m133.671 306.989 10.22-4.187c1.117-.458 2.369-.458 3.487 0l10.22 4.187c3.162 1.296 6.584-1.19 6.328-4.598l-.824-11.013c-.033-.447-.001-.891.093-1.322l-12.29-8.673c-3.159-2.23-7.381-2.23-10.54 0l-12.29 8.673c.093.43.126.875.093 1.322l-.824 11.013c-.257 3.409 3.164 5.894 6.327 4.598z" fill="url(#SVGID_00000083806828144700082210000013343802225825851825_)"/><path d="m163.924 302.392-.824-11.013c-.033-.447-.001-.891.093-1.322l-12.29-8.673c-3.159-2.23-7.381-2.23-10.54 0l-12.29 8.673c.093.43.126.875.093 1.322l-.824 11.013c-.255 3.408 3.165 5.893 6.328 4.598l10.22-4.187c1.117-.458 2.369-.458 3.487 0l10.22 4.187c3.162 1.295 6.582-1.19 6.327-4.598z" fill="url(#SVGID_00000171694597780180894470000015384964573337363609_)"/><path d="m147.377 302.802 10.22 4.187c3.162 1.296 6.584-1.19 6.328-4.598l-.824-11.013c-.09-1.204.297-2.394 1.077-3.316l7.14-8.426c2.21-2.607.904-6.629-2.417-7.439l-10.729-2.619c-1.173-.286-2.186-1.022-2.821-2.049l-5.807-9.395c-.899-1.454-2.404-2.181-3.911-2.181v46.505c.593 0 1.186.115 1.744.344z" fill="url(#SVGID_00000065757509056266445110000011318572766221065367_)"/></g><g><path d="m203.707 302.802-10.22 4.187c-3.162 1.296-6.584-1.19-6.328-4.598l.824-11.013c.09-1.204-.297-2.394-1.077-3.316l-7.14-8.426c-2.21-2.607-.904-6.629 2.417-7.439l10.729-2.619c1.173-.286 2.186-1.022 2.821-2.049l5.807-9.395c1.797-2.907 6.026-2.907 7.822 0l5.807 9.395c.634 1.027 1.647 1.763 2.821 2.049l10.729 2.619c3.32.81 4.627 4.832 2.417 7.439l-7.14 8.426c-.78.921-1.168 2.112-1.077 3.316l.824 11.013c.255 3.408-3.165 5.893-6.328 4.598l-10.22-4.187c-1.119-.458-2.372-.458-3.488 0z" fill="url(#SVGID_00000054964754631445478060000008225343180968738210_)"/><path d="m216.556 269.366-7.774 8.673c-1.997 2.23-4.666 2.23-6.666 0l-7.772-8.673c.02-.146.036-.293.046-.442.537-.361.996-.834 1.341-1.395l5.808-9.394c.561-.909 1.361-1.535 2.252-1.876 1.064-.406 2.256-.406 3.32 0 .89.341 1.691.967 2.252 1.876l5.806 9.394c.345.561.806 1.036 1.343 1.395.008.149.024.297.044.442z" fill="url(#SVGID_00000088822744196452228020000009400381489121753528_)"/><path d="m193.487 306.989 10.22-4.187c1.117-.458 2.369-.458 3.487 0l10.22 4.187c3.162 1.296 6.584-1.19 6.328-4.598l-.824-11.013c-.033-.447-.001-.891.093-1.322l-12.29-8.673c-3.159-2.23-7.381-2.23-10.54 0l-12.29 8.673c.093.43.126.875.093 1.322l-.824 11.013c-.256 3.409 3.164 5.894 6.327 4.598z" fill="url(#SVGID_00000162323721075089093000000013626997533701194133_)"/><path d="m223.741 302.392-.824-11.013c-.033-.447-.001-.891.093-1.322l-12.29-8.673c-3.159-2.23-7.381-2.23-10.54 0l-12.29 8.673c.093.43.126.875.093 1.322l-.824 11.013c-.255 3.408 3.165 5.893 6.328 4.598l10.22-4.187c1.117-.458 2.369-.458 3.487 0l10.22 4.187c3.161 1.295 6.582-1.19 6.327-4.598z" fill="url(#SVGID_00000047773424139907015010000001271104039045695902_)"/><path d="m207.193 302.802 10.22 4.187c3.162 1.296 6.584-1.19 6.328-4.598l-.824-11.013c-.09-1.204.297-2.394 1.077-3.316l7.14-8.426c2.21-2.607.904-6.629-2.417-7.439l-10.729-2.619c-1.173-.286-2.186-1.022-2.821-2.049l-5.807-9.395c-.899-1.454-2.404-2.181-3.911-2.181v46.505c.593 0 1.185.115 1.744.344z" fill="url(#SVGID_00000133517860801901145830000001732009655688566702_)"/></g></g><g fill="#fff"><path d="m136.289 316.534h-9.262c-4.514 0-8.172 3.658-8.172 8.172s3.659 8.172 8.172 8.172h9.262c4.514 0 8.172-3.658 8.172-8.172s-3.658-8.172-8.172-8.172z"/><path d="m254.746 316.534h-89.801c-4.514 0-8.172 3.659-8.172 8.172 0 4.514 3.658 8.172 8.172 8.172h89.801c4.514 0 8.172-3.658 8.172-8.172.001-4.512-3.658-8.172-8.172-8.172z"/></g><g><path d="m282.772 398.719h-154.643c-5.121 0-9.272-4.151-9.272-9.272v-35.863c0-5.121 4.151-9.272 9.272-9.272h154.643c5.121 0 9.272 4.151 9.272 9.272v35.863c0 5.12-4.151 9.272-9.272 9.272z" fill="url(#SVGID_00000034061416098195784660000006415010040617951140_)"/><path d="m282.194 344.311h-77.876v54.408h77.876c5.439 0 9.849-3.908 9.849-8.729v-36.95c.001-4.821-4.409-8.729-9.849-8.729z" fill="url(#SVGID_00000083772355360803069970000004009096012483778494_)"/><path d="m118.856 363.786v26.203c0 4.821 4.409 8.729 9.849 8.729h153.489c5.439 0 9.849-3.908 9.849-8.729v-26.203z" fill="url(#SVGID_00000111877567553452008020000016044367804761337754_)"/></g><g><path d="m136.669 353.248c0-1.824 1.939-2.736 3.875-2.736h11.685c5.699 0 11.399 2.052 11.399 10.145 0 4.617-1.824 7.638-4.845 8.949 3.477 1.311 5.871 3.419 5.871 9.12v1.197c0 9.005-5.016 12.254-11.456 12.254h-12.653c-2.394 0-3.875-1.254-3.875-2.678zm8.834 12.937h5.984c2.166 0 3.249-1.995 3.249-3.933 0-1.995-1.082-3.99-3.249-3.99h-5.984zm5.7 18.239c2.85 0 4.56-1.596 4.56-5.243v-.913c0-3.875-1.71-5.243-4.56-5.243h-5.699v11.4z" fill="url(#SVGID_00000035533075705639526800000014957812485034243505_)"/><path d="m171.826 379.066v-15.103c0-9.803 6.099-13.452 13.964-13.452s14.021 3.647 14.021 13.452v15.103c0 9.803-6.155 13.452-14.021 13.452s-13.964-3.648-13.964-13.452zm19.094-15.103c0-3.933-1.938-5.699-5.129-5.699s-5.073 1.767-5.073 5.699v15.103c0 3.933 1.88 5.699 5.073 5.699s5.129-1.767 5.129-5.699z" fill="url(#SVGID_00000116205024542388924540000005293495573679875218_)"/><path d="m208.068 379.066v-15.103c0-9.803 6.099-13.452 13.964-13.452s14.021 3.647 14.021 13.452v15.103c0 9.803-6.155 13.452-14.021 13.452s-13.964-3.648-13.964-13.452zm19.092-15.103c0-3.933-1.938-5.699-5.129-5.699s-5.073 1.767-5.073 5.699v15.103c0 3.933 1.88 5.699 5.073 5.699s5.129-1.767 5.129-5.699z" fill="url(#SVGID_00000103963053749797927250000007092444311513716883_)"/><path d="m244.764 353.191c0-1.881 2.223-2.679 4.445-2.679 2.223 0 4.445.798 4.445 2.679v13.678l10.659-15.103c.626-.913 1.425-1.254 2.336-1.254 2.28 0 5.243 2.337 5.243 4.56 0 .456-.114 1.082-.57 1.71l-9.348 11.741 11.798 18.068c.285.457.457.969.457 1.482 0 2.223-2.793 4.445-5.358 4.445-1.197 0-2.336-.457-3.078-1.652l-9.746-14.819-2.394 3.078v10.316c0 1.823-2.223 2.736-4.445 2.736-2.223 0-4.445-.913-4.445-2.736v-36.25z" fill="url(#SVGID_00000052814318615757463310000000446178470963802253_)"/></g></g></g><g><g><path d="m118.856 77.709h210.181v164.045h-210.181z" fill="url(#SVGID_00000119095500592552335350000002177725690264619426_)"/><path d="m118.858 77.71h210.176v95.751h-210.176z" fill="url(#SVGID_00000034080067763858259780000009791754060891741842_)"/><path d="m223.947 77.709h105.091v164.045h-105.091z" fill="url(#SVGID_00000132782607302807342350000005575012066869094043_)"/><g><path d="m328.934 93.105h-209.975c-5.626 0-10.187-4.561-10.187-10.187v-16.78c0-5.626 4.561-10.187 10.187-10.187h209.975c5.626 0 10.187 4.561 10.187 10.187v16.781c0 5.626-4.561 10.186-10.187 10.186z" fill="url(#SVGID_00000163789603820709578920000007947108772963279511_)"/><path d="m331.128 55.952h-107.181v37.153h107.181c4.414 0 7.993-5.812 7.993-12.981v-11.192c0-7.169-3.579-12.98-7.993-12.98z" fill="url(#SVGID_00000030481231316540255930000015965089628159820201_)"/><path d="m108.773 70.737v9.387c0 7.169 3.579 12.981 7.993 12.981h214.361c4.414 0 7.993-5.812 7.993-12.981v-9.387z" fill="url(#SVGID_00000106869332106121564920000005062939756363930771_)"/></g></g><g><g><g><path d="m174.051 162.751h-25.68c-5.789 0-10.482-4.693-10.482-10.482v-25.68c0-5.789 4.693-10.482 10.482-10.482h25.68c5.789 0 10.482 4.693 10.482 10.482v25.68c0 5.788-4.693 10.482-10.482 10.482z" fill="url(#SVGID_00000011712204742751115920000016137786927676242612_)"/><path d="m174.051 162.751h-25.68c-5.789 0-10.482-4.693-10.482-10.482v-25.68c0-5.789 4.693-10.482 10.482-10.482h25.68c5.789 0 10.482 4.693 10.482 10.482v25.68c0 5.788-4.693 10.482-10.482 10.482z" fill="url(#SVGID_00000156563260300435615790000006607210709920975745_)"/><path d="m137.888 152.269v-25.68c0-5.789 4.693-10.482 10.482-10.482h25.68c5.789 0 10.482 4.693 10.482 10.482v25.68c0 5.789-4.693 10.482-10.482 10.482h-25.68c-5.789 0-10.482-4.694-10.482-10.482z" fill="url(#SVGID_00000113333682380425276120000013251537140946715829_)"/></g><g><path d="m236.787 162.751h-25.68c-5.789 0-10.482-4.693-10.482-10.482v-25.68c0-5.789 4.693-10.482 10.482-10.482h25.68c5.789 0 10.482 4.693 10.482 10.482v25.68c0 5.788-4.693 10.482-10.482 10.482z" fill="url(#SVGID_00000082325876810521479200000013050812587048962973_)"/><path d="m236.787 162.751h-25.68c-5.789 0-10.482-4.693-10.482-10.482v-25.68c0-5.789 4.693-10.482 10.482-10.482h25.68c5.789 0 10.482 4.693 10.482 10.482v25.68c0 5.788-4.693 10.482-10.482 10.482z" fill="url(#SVGID_00000106114448371913596730000008436615223968400279_)"/><path d="m200.625 152.269v-25.68c0-5.789 4.693-10.482 10.482-10.482h25.68c5.789 0 10.482 4.693 10.482 10.482v25.68c0 5.789-4.693 10.482-10.482 10.482h-25.68c-5.79 0-10.482-4.694-10.482-10.482z" fill="url(#SVGID_00000158711699092540830600000016457274112295108248_)"/></g><g><path d="m299.524 162.751h-25.68c-5.789 0-10.482-4.693-10.482-10.482v-25.68c0-5.789 4.693-10.482 10.482-10.482h25.68c5.789 0 10.482 4.693 10.482 10.482v25.68c0 5.788-4.693 10.482-10.482 10.482z" fill="url(#SVGID_00000013875625894204665500000011098680059098457017_)"/><path d="m299.524 162.751h-25.68c-5.789 0-10.482-4.693-10.482-10.482v-25.68c0-5.789 4.693-10.482 10.482-10.482h25.68c5.789 0 10.482 4.693 10.482 10.482v25.68c0 5.788-4.693 10.482-10.482 10.482z" fill="url(#SVGID_00000129916771540256678110000000686739713658870919_)"/><path d="m263.361 152.269v-25.68c0-5.789 4.693-10.482 10.482-10.482h25.68c5.789 0 10.482 4.693 10.482 10.482v25.68c0 5.789-4.693 10.482-10.482 10.482h-25.68c-5.789 0-10.482-4.694-10.482-10.482z" fill="url(#SVGID_00000138534699753775368070000009933029452518953404_)"/></g></g><g><g><path d="m174.051 219.56h-25.68c-5.789 0-10.482-4.693-10.482-10.482v-25.68c0-5.789 4.693-10.482 10.482-10.482h25.68c5.789 0 10.482 4.693 10.482 10.482v25.68c0 5.788-4.693 10.482-10.482 10.482z" fill="url(#SVGID_00000011026087632887092320000004695270112903546794_)"/><path d="m174.051 219.56h-25.68c-5.789 0-10.482-4.693-10.482-10.482v-25.68c0-5.789 4.693-10.482 10.482-10.482h25.68c5.789 0 10.482 4.693 10.482 10.482v25.68c0 5.788-4.693 10.482-10.482 10.482z" fill="url(#SVGID_00000140699966834111470670000000545554267465614733_)"/><path d="m137.888 209.078v-25.68c0-5.789 4.693-10.482 10.482-10.482h25.68c5.789 0 10.482 4.693 10.482 10.482v25.68c0 5.789-4.693 10.482-10.482 10.482h-25.68c-5.789 0-10.482-4.694-10.482-10.482z" fill="url(#SVGID_00000054243231882917425860000012069672609775480465_)"/></g><g><path d="m236.787 219.56h-25.68c-5.789 0-10.482-4.693-10.482-10.482v-25.68c0-5.789 4.693-10.482 10.482-10.482h25.68c5.789 0 10.482 4.693 10.482 10.482v25.68c0 5.788-4.693 10.482-10.482 10.482z" fill="url(#SVGID_00000091005761784832293470000017498514163956063146_)"/><path d="m236.787 219.56h-25.68c-5.789 0-10.482-4.693-10.482-10.482v-25.68c0-5.789 4.693-10.482 10.482-10.482h25.68c5.789 0 10.482 4.693 10.482 10.482v25.68c0 5.788-4.693 10.482-10.482 10.482z" fill="url(#SVGID_00000070114658623776240120000018270314251629589669_)"/><path d="m200.625 209.078v-25.68c0-5.789 4.693-10.482 10.482-10.482h25.68c5.789 0 10.482 4.693 10.482 10.482v25.68c0 5.789-4.693 10.482-10.482 10.482h-25.68c-5.79 0-10.482-4.694-10.482-10.482z" fill="url(#SVGID_00000084519426932606010770000016552060261165424312_)"/></g><g><path d="m299.524 219.56h-25.68c-5.789 0-10.482-4.693-10.482-10.482v-25.68c0-5.789 4.693-10.482 10.482-10.482h25.68c5.789 0 10.482 4.693 10.482 10.482v25.68c0 5.788-4.693 10.482-10.482 10.482z" fill="url(#SVGID_00000162317267563838136460000012991391816760117121_)"/><path d="m299.524 219.56h-25.68c-5.789 0-10.482-4.693-10.482-10.482v-25.68c0-5.789 4.693-10.482 10.482-10.482h25.68c5.789 0 10.482 4.693 10.482 10.482v25.68c0 5.788-4.693 10.482-10.482 10.482z" fill="url(#SVGID_00000062177788502037863920000015603861333126109594_)"/><path d="m263.361 209.078v-25.68c0-5.789 4.693-10.482 10.482-10.482h25.68c5.789 0 10.482 4.693 10.482 10.482v25.68c0 5.789-4.693 10.482-10.482 10.482h-25.68c-5.789 0-10.482-4.694-10.482-10.482z" fill="url(#SVGID_00000011728710558820057250000013268516509435125380_)"/></g></g></g></g><g><g><path d="m291.961 432.461-22.743-33.239c-6.406-9.363-5.235-21.961 2.787-29.982l22.729-22.729v85.951h-2.773" fill="url(#SVGID_00000124864665232518062690000005021382877766334629_)"/><path d="m309.641 241.76c10.028-.245 18.395 8.225 18.588 18.254l1.246 71.785 1.028-16.308c.241-9.837 8.285-17.687 18.126-17.687h.533c9.84 0 17.884 7.85 18.126 17.687l1.131 20.525 1-10.19c.274-9.812 8.307-17.625 18.124-17.625h.654c9.816 0 17.85 7.813 18.124 17.625l1.008 10.459h.119l.893-3.243c.303-9.79 8.328-17.571 18.122-17.571h.208c10.013 0 18.131 8.118 18.131 18.131v82.552c0 10.695-2.711 21.216-7.878 30.579l-5.559 10.072c-5.167 9.364-7.878 19.884-7.878 30.579v9.016c0 8.614-6.982 15.596-15.596 15.596h-79.019c-8.614 0-15.596-6.982-15.596-15.596v-9.016c0-10.695-2.711-21.216-7.878-30.579l-13.436-24.347v-172.573c-.001-9.862 7.873-17.886 17.679-18.125z" fill="url(#SVGID_00000039105932129913086350000012335469096868626111_)"/><path d="m291.961 259.88v100.32l12.601-12.601c5.033-5.033 13.195-5.033 18.237 0 2.516 2.516 5.812 3.785 9.108 3.785 3.306 0 6.602-1.268 9.119-3.785 2.527-2.516 5.823-3.774 9.119-3.774 3.306 0 6.603 1.258 9.119 3.774s5.812 3.785 9.119 3.785c3.306 0 6.602-1.268 9.119-3.785 2.516-2.516 5.812-3.774 9.119-3.774 3.296 0 6.592 1.258 9.119 3.774 2.516 2.516 5.812 3.785 9.119 3.785 3.296 0 6.592-1.268 9.108-3.785 2.516-2.516 5.823-3.774 9.119-3.774 3.306 0 6.602 1.258 9.119 3.774l12.601 12.601v-26.596c0-10.012-8.121-18.133-18.133-18.133h-.208c-9.794 0-17.821 7.777-18.123 17.572l-.894 3.244h-.114l-1.009-10.46c-.281-9.815-8.307-17.623-18.123-17.623h-.655c-9.815 0-17.852 7.809-18.123 17.623l-1.009 10.19-1.122-20.524c-.25-9.835-8.286-17.686-18.133-17.686h-.53c-9.835 0-17.883 7.85-18.123 17.686l-1.029 16.303-1.248-71.779c-.187-10.033-8.557-18.496-18.591-18.257-9.808.237-17.678 8.264-17.678 18.12z" fill="url(#SVGID_00000100355770985238573550000003849887784006675634_)"/><path d="m429.718 460.014c-4.093 8.53-6.231 17.882-6.231 27.374v9.016c0 8.614-6.982 15.596-15.596 15.596h-79.019c-8.614 0-15.596-6.982-15.596-15.596v-9.016c0-9.491-2.139-18.844-6.231-27.374z" fill="url(#SVGID_00000047774271097943958640000006823640582402580647_)"/></g></g></g></svg>