<svg id="Capa_1" enable-background="new 0 0 510 510" height="512" viewBox="0 0 510 510" width="512" xmlns="http://www.w3.org/2000/svg" xmlns:xlink="http://www.w3.org/1999/xlink"><linearGradient id="SVGID_1_" gradientUnits="userSpaceOnUse" x1="412.923" x2="471.42" y1="413.62" y2="475.117"><stop offset="0" stop-color="#e1d3ce"/><stop offset="1" stop-color="#9e9797"/></linearGradient><linearGradient id="lg1"><stop offset="0" stop-color="#554e56"/><stop offset="1" stop-color="#433f43"/></linearGradient><linearGradient id="SVGID_00000013171034521581666040000004543636256566461598_" gradientUnits="userSpaceOnUse" x1="225.472" x2="55.455" xlink:href="#lg1" y1="270.034" y2="503.808"/><linearGradient id="lg2"><stop offset="0" stop-color="#433f43" stop-opacity="0"/><stop offset="1" stop-color="#1a1a1a"/></linearGradient><linearGradient id="SVGID_00000075148853665713419880000018410476761612993438_" gradientUnits="userSpaceOnUse" x1="118.351" x2="88.598" xlink:href="#lg2" y1="417.733" y2="458.82"/><linearGradient id="lg3"><stop offset="0" stop-color="#7bacdf" stop-opacity="0"/><stop offset="1" stop-color="#7bacdf"/></linearGradient><linearGradient id="SVGID_00000080182241339533594400000008729194927465891242_" gradientUnits="userSpaceOnUse" x1="286.93" x2="286.93" xlink:href="#lg3" y1="402.614" y2="488.161"/><linearGradient id="SVGID_00000106835064054679635170000009974971314181469324_" gradientUnits="userSpaceOnUse" x1="92.686" x2="102.603" xlink:href="#lg3" y1="164.07" y2="319.919"/><linearGradient id="SVGID_00000179633816206218717880000004612889230087349685_" gradientUnits="userSpaceOnUse" x1="128.93" x2="45.338" xlink:href="#lg2" y1="374.459" y2="392.169"/><linearGradient id="SVGID_00000013168381748747629110000009533504460460942781_" gradientUnits="userSpaceOnUse" x1="280.176" x2="365.893" xlink:href="#lg2" y1="448.406" y2="448.406"/><linearGradient id="SVGID_00000088818995197270629690000003354236511854255293_" gradientUnits="userSpaceOnUse" x1="123.823" x2="65.025" xlink:href="#lg1" y1="205.757" y2="226.3"/><linearGradient id="SVGID_00000097475307938667025490000008884896037629800345_" gradientUnits="userSpaceOnUse" x1="293.232" x2="288.981" xlink:href="#lg1" y1="378.869" y2="440.5"/><linearGradient id="lg4"><stop offset="0" stop-color="#99e6fc"/><stop offset="1" stop-color="#01c0fa"/></linearGradient><linearGradient id="SVGID_00000106131123178264347290000013127310642678000262_" gradientUnits="userSpaceOnUse" x1="207.515" x2="316.553" xlink:href="#lg4" y1="164.287" y2="349.178"/><linearGradient id="SVGID_00000085961355972581091290000013310374569803978163_" gradientUnits="userSpaceOnUse" x1="303.59" x2="412.628" xlink:href="#lg4" y1="107.628" y2="292.518"/><linearGradient id="lg5"><stop offset="0" stop-color="#bbec6c"/><stop offset="1" stop-color="#78a91f"/></linearGradient><linearGradient id="SVGID_00000024702200514041361010000005342896147886929553_" gradientUnits="userSpaceOnUse" x1="166.224" x2="446.336" xlink:href="#lg5" y1="40.778" y2="320.89"/><linearGradient id="SVGID_00000034768560795634444310000008671505705672558744_" gradientUnits="userSpaceOnUse" x1="398.381" x2="513.309" xlink:href="#lg5" y1="276.621" y2="391.549"/><linearGradient id="lg6"><stop offset="0" stop-color="#78a91f" stop-opacity="0"/><stop offset="1" stop-color="#026841"/></linearGradient><linearGradient id="SVGID_00000105401290293193303860000004644155193446294927_" gradientUnits="userSpaceOnUse" x1="403.075" x2="388.409" xlink:href="#lg6" y1="343.967" y2="405.967"/><linearGradient id="SVGID_00000061443639309655858580000018132997336427007893_" gradientUnits="userSpaceOnUse" x1="444.145" x2="416.145" xlink:href="#lg6" y1="35.074" y2="8.074"/><linearGradient id="SVGID_00000137833595141298369110000003543450231929647762_" gradientUnits="userSpaceOnUse" x1="401.566" x2="373.566" xlink:href="#lg6" y1="79.23" y2="52.23"/><g><g><path d="m496.967 442.191c-6.788 6.788-15.719 11.199-25.738 12.432-8.709 1.07-15.538 7.901-16.608 16.608-1.964 15.973-12.013 29.186-26.882 35.345-14.869 6.158-31.317 3.921-44-5.984-6.914-5.401-16.572-5.4-23.487 0-12.683 9.906-29.132 12.143-44 5.985-14.868-6.159-24.918-19.372-26.882-35.345l24.814-3.051c.85 6.913 5.2 12.633 11.635 15.298 6.435 2.666 13.555 1.697 19.045-2.59 15.974-12.478 38.289-12.477 54.264 0 5.49 4.288 12.609 5.256 19.044 2.59 6.435-2.664 10.785-8.385 11.636-15.299 2.473-20.118 18.252-35.897 38.37-38.37 6.915-.85 12.633-5.2 15.298-11.636 2.666-6.435 1.698-13.554-2.59-19.044-12.477-15.976-12.477-38.29 0-54.264 4.288-5.49 5.256-12.61 2.59-19.046-2.666-6.435-8.385-10.785-15.299-11.635l3.051-24.814c15.973 1.964 29.186 12.013 35.345 26.882 6.159 14.868 3.921 31.317-5.985 44-5.4 6.915-5.4 16.573 0 23.487 9.905 12.683 12.143 29.133 5.984 44-2.294 5.543-5.572 10.417-9.605 14.451z" fill="url(#SVGID_1_)"/><g><g><path d="m245.373 510c-67.668 0-129.874-24.939-175.158-70.224-32.791-32.791-55.207-74.802-64.824-121.492-9.295-45.124-6.528-93.625 8-140.261 5.212-16.73 20.86-29.161 38.053-30.228l22.959-1.426c.809-.051 1.615-.076 2.41-.076 19.233 0 34.238 14.449 34.901 33.609.736 21.267 4.128 42.029 10.083 61.708 3.696 12.217-.027 25.825-9.717 35.515l-13.03 13.032c-9.293 9.292-12.26 22.735-7.213 32.688 10.382 20.48 23.855 39.073 40.046 55.264s34.785 29.664 55.264 40.045c3.19 1.618 6.749 2.438 10.577 2.438 7.918 0 15.978-3.518 22.11-9.651l13.031-13.031c7.055-7.054 16.555-11.099 26.065-11.099 3.237 0 6.417.465 9.45 1.383 19.68 5.954 40.442 9.347 61.708 10.083 9.663.335 18.425 4.308 24.671 11.189 6.328 6.972 9.477 16.249 8.864 26.122l-1.426 22.96c-1.068 17.193-13.499 32.84-30.228 38.052-28.542 8.892-57.677 13.4-86.596 13.4z" fill="url(#SVGID_00000013171034521581666040000004543636256566461598_)"/><path d="m245.373 510c-67.668 0-129.874-24.939-175.158-70.224-32.791-32.791-55.207-74.802-64.824-121.492-9.295-45.124-6.528-93.625 8-140.261 5.212-16.73 20.86-29.161 38.053-30.228l22.959-1.426c.809-.051 1.615-.076 2.41-.076 19.233 0 34.238 14.449 34.901 33.609.736 21.267 4.128 42.029 10.083 61.708 3.696 12.217-.027 25.825-9.717 35.515l-13.03 13.032c-9.293 9.292-12.26 22.735-7.213 32.688 10.382 20.48 23.855 39.073 40.046 55.264s34.785 29.664 55.264 40.045c3.19 1.618 6.749 2.438 10.577 2.438 7.918 0 15.978-3.518 22.11-9.651l13.031-13.031c7.055-7.054 16.555-11.099 26.065-11.099 3.237 0 6.417.465 9.45 1.383 19.68 5.954 40.442 9.347 61.708 10.083 9.663.335 18.425 4.308 24.671 11.189 6.328 6.972 9.477 16.249 8.864 26.122l-1.426 22.96c-1.068 17.193-13.499 32.84-30.228 38.052-28.542 8.892-57.677 13.4-86.596 13.4z" fill="url(#SVGID_00000075148853665713419880000018410476761612993438_)"/><g><path d="m315.505 439.868c16.016 0 32.098-1.389 48.108-4.133l.009-.147c.613-9.873-2.535-19.15-8.864-26.122-6.246-6.88-15.008-10.854-24.671-11.189-21.266-.737-42.028-4.129-61.708-10.083-3.033-.917-6.213-1.383-9.45-1.383-9.51 0-19.01 4.045-26.065 11.099l-13.031 13.031c-2.871 2.872-6.168 5.161-9.671 6.793 32.153 14.488 67.909 22.134 105.343 22.134z" fill="url(#SVGID_00000080182241339533594400000008729194927465891242_)"/><path d="m92.244 299.849c1.617-3.481 3.903-6.789 6.806-9.692l13.031-13.031c9.69-9.69 13.413-23.298 9.717-35.515-5.955-19.679-9.348-40.441-10.083-61.708-.664-19.161-15.668-33.609-34.901-33.609-.795 0-1.601.025-2.41.075l-.133.008c-5.88 34.367-5.506 68.963 1.253 101.774 3.711 18.018 9.336 35.335 16.72 51.698z" fill="url(#SVGID_00000106835064054679635170000009974971314181469324_)"/></g><path d="m188.747 438.96 21.06-21.06c-3.877 1.749-7.998 2.693-12.084 2.693-3.828 0-7.386-.82-10.577-2.438-20.479-10.381-39.073-23.854-55.264-40.045-16.191-16.19-29.664-34.784-40.046-55.264-3.422-6.75-3.149-15.102.273-22.679l-21.084 21.084c-9.517 9.517-11.457 24.233-4.756 35.905 10.289 17.923 22.861 34.411 37.508 49.058 14.706 14.706 31.199 27.259 49.083 37.513 11.67 6.691 26.376 4.745 35.887-4.767z" fill="url(#SVGID_00000179633816206218717880000004612889230087349685_)"/><path d="m330.088 398.277c-21.266-.737-42.028-4.129-61.708-10.083-3.033-.917-6.213-1.383-9.45-1.383-6.595 0-13.183 1.949-18.957 5.494v117.633c1.797.035 3.595.062 5.4.062 28.919 0 58.053-4.508 86.596-13.399 16.729-5.212 29.161-20.859 30.228-38.052l1.426-22.96c.613-9.873-2.536-19.15-8.864-26.122-6.246-6.882-15.008-10.855-24.671-11.19z" fill="url(#SVGID_00000013168381748747629110000009533504460460942781_)"/></g><path d="m60.337 136.904c-10.065 2.697-16.934 12.787-16.576 24.717.634 21.173 3.784 43.094 9.694 65.15s14.143 42.615 24.18 61.268c5.656 10.511 16.65 15.815 26.714 13.118l29.921-8.017c14.301-3.832 20.91-21.92 13.579-37.275-7.363-15.422-13.521-31.992-18.214-49.506-4.693-17.515-7.645-34.943-8.98-51.98-1.329-16.963-16.096-29.324-30.397-25.492z" fill="url(#SVGID_00000088818995197270629690000003354236511854255293_)"/><path d="m205.535 404.845c-1.45 10.318 5.135 20.581 16.229 24.91 19.688 7.682 41.044 13.341 63.602 16.511 22.557 3.17 44.646 3.617 65.689 1.659 11.857-1.103 21.016-9.153 22.466-19.472l4.311-30.675c2.061-14.662-11.97-27.807-28.928-27.053-17.032.757-34.649-.043-52.561-2.56s-35.067-6.604-51.231-12.027c-16.094-5.399-33.204 3.37-35.265 18.031z" fill="url(#SVGID_00000097475307938667025490000008884896037629800345_)"/></g><g><g><path d="m239.364 108.562c29.897 0 60.054 18.815 60.054 53.352 0 55.93-79.643 74.23-79.643 97.684v2.319h67.53c6.443 0 12.114 7.991 12.114 17.269 0 9.28-5.67 17.785-12.114 17.785h-91.757c-7.217 0-17.527-4.897-17.527-12.372v-25.001c0-40.466 81.189-63.663 81.189-96.396 0-8.248-5.155-18.3-19.589-18.3-10.309 0-19.33 5.155-19.33 19.331 0 7.475-7.991 14.691-21.136 14.691-10.309 0-18.042-4.639-18.042-20.876 0-31.444 28.868-49.486 58.251-49.486z" fill="url(#SVGID_00000106131123178264347290000013127310642678000262_)"/><path d="m373.394 257.279h-60.312c-7.475 0-13.403-4.897-13.403-13.918 0-2.061.516-4.897 2.062-7.733l59.539-116.757c3.866-7.475 10.309-10.309 16.752-10.309 6.96 0 20.104 5.927 20.104 15.206 0 1.546-.515 3.093-1.289 4.897l-45.62 91.499h22.166v-18.042c0-8.506 10.052-12.115 20.104-12.115 10.051 0 20.103 3.609 20.103 12.115v18.042h11.083c8.248 0 12.372 9.279 12.372 18.557 0 9.28-6.186 18.558-12.372 18.558h-11.083v27.321c0 8.248-10.052 12.372-20.103 12.372-10.052 0-20.104-4.124-20.104-12.372v-27.321z" fill="url(#SVGID_00000085961355972581091290000013310374569803978163_)"/></g><path d="m189.242 84.07c-31.71 31.7-49.17 73.86-49.17 118.69 0 44.84 17.46 87 49.17 118.7 14.04 14.04 29.98 25.07 46.99 33.08-13-.38-24.71 7.67-26.39 19.63l-.81 5.74c-15.97-8.91-30.99-20.15-44.54-33.7-38.32-38.31-59.42-89.26-59.42-143.45 0-54.18 21.1-105.13 59.42-143.44 69.44-69.45 177.12-77.91 255.89-25.42l16.02-16.02c5.6-5.6 15.18-2.73 16.77 5.03l14.4 70.33c1.44 6.98-4.74 13.16-11.73 11.73l-70.33-14.41c-7.75-1.58-10.63-11.16-5.03-16.76l14.55-14.55c-64.57-39.18-150.06-30.91-205.79 24.82z" fill="url(#SVGID_00000024702200514041361010000005342896147886929553_)"/><path d="m509.922 221.83c-4.35 46.99-24.75 90.6-58.54 124.38-21.48 21.48-46.62 37.13-73.44 46.94-1.08-12.68-13.89-23.1-29.04-22.42-10.49.46-21.2.34-32.06-.42 39.98-2.1 79.34-18.39 109.8-48.85 27.91-27.91 44.78-63.92 48.42-102.73.84-9.03 8.36-15.97 17.43-15.97 10.28 0 18.38 8.83 17.43 19.07z" fill="url(#SVGID_00000034768560795634444310000008671505705672558744_)"/><path d="m509.922 221.83c-4.35 46.99-24.75 90.6-58.54 124.38-21.48 21.48-46.62 37.13-73.44 46.94-1.08-12.68-13.89-23.1-29.04-22.42-10.49.46-21.2.34-32.06-.42 39.98-2.1 79.34-18.39 109.8-48.85 27.91-27.91 44.78-63.92 48.42-102.73.84-9.03 8.36-15.97 17.43-15.97 10.28 0 18.38 8.83 17.43 19.07z" fill="url(#SVGID_00000105401290293193303860000004644155193446294927_)"/></g></g><path d="m464.442 77.96-44.06-44.06 16.02-16.02c5.6-5.6 15.18-2.73 16.77 5.03z" fill="url(#SVGID_00000061443639309655858580000018132997336427007893_)"/><path d="m458.512 105.16c-.87.05-1.76 0-2.67-.19l-70.33-14.41c-7.75-1.58-10.63-11.16-5.03-16.76l14.55-14.55z" fill="url(#SVGID_00000137833595141298369110000003543450231929647762_)"/></g></svg>