<svg id="Capa_1" enable-background="new 0 0 510 510" height="512" viewBox="0 0 510 510" width="512" xmlns="http://www.w3.org/2000/svg" xmlns:xlink="http://www.w3.org/1999/xlink"><linearGradient id="SVGID_1_" gradientUnits="userSpaceOnUse" x1="99" x2="467.879" y1="99" y2="467.879"><stop offset="0" stop-color="#c59191"/><stop offset="1" stop-color="#9b5e5e"/></linearGradient><linearGradient id="lg1"><stop offset="0" stop-color="#9b5e5e" stop-opacity="0"/><stop offset=".2469" stop-color="#955857" stop-opacity=".247"/><stop offset=".6116" stop-color="#854943" stop-opacity=".612"/><stop offset="1" stop-color="#6d3326"/></linearGradient><linearGradient id="SVGID_00000178893573848377741940000018168455429913112471_" gradientUnits="userSpaceOnUse" x1="-9.68" x2="383.32" xlink:href="#lg1" y1="58.582" y2="566.582"/><linearGradient id="SVGID_00000007416793737743758680000017644704762090985856_" gradientUnits="userSpaceOnUse" x1="255" x2="255" xlink:href="#lg1" y1="445.701" y2="505.698"/><linearGradient id="SVGID_00000115502364534219839020000000972197399581939633_" gradientTransform="matrix(0 -1 1 0 4829.345 -3255.345)" gradientUnits="userSpaceOnUse" x1="-3510.345" x2="-3510.345" xlink:href="#lg1" y1="-4383.645" y2="-4323.648"/><linearGradient id="SVGID_00000021115727455251407390000017786074763743872898_" gradientUnits="userSpaceOnUse" x1="325.163" x2="264.163" xlink:href="#lg1" y1="325.596" y2="95.596"/><linearGradient id="SVGID_00000013190176584717174890000004723992573708783036_" gradientUnits="userSpaceOnUse" x1="531.363" x2="418.697" xlink:href="#lg1" y1="426.998" y2="406.331"/><linearGradient id="lg2"><stop offset="0" stop-color="#fffdf1"/><stop offset="1" stop-color="#fff5c6"/></linearGradient><linearGradient id="SVGID_00000093165662319623054160000018203746678943142285_" gradientUnits="userSpaceOnUse" x1="241.157" x2="298.375" xlink:href="#lg2" y1="71.218" y2="283.206"/><linearGradient id="lg3"><stop offset="0" stop-color="#fea613" stop-opacity="0"/><stop offset=".1832" stop-color="#fc9b19" stop-opacity=".183"/><stop offset=".5086" stop-color="#f57d28" stop-opacity=".509"/><stop offset=".9356" stop-color="#eb4c40" stop-opacity=".936"/><stop offset="1" stop-color="#e94444"/></linearGradient><linearGradient id="SVGID_00000155138783337483050030000002494607256115141289_" gradientUnits="userSpaceOnUse" x1="255" x2="255" xlink:href="#lg3" y1="175.333" y2="228.017"/><linearGradient id="SVGID_00000053511587140632278570000007316749642044497803_" gradientUnits="userSpaceOnUse" x1="243.709" x2="282.621" xlink:href="#lg3" y1="77.445" y2="335.752"/><linearGradient id="SVGID_00000023994842076632244470000015939861233907200646_" gradientUnits="userSpaceOnUse" x1="440" x2="502.953" xlink:href="#lg3" y1="122.504" y2="122.504"/><linearGradient id="SVGID_00000068646301413167279160000000941436433447310994_" gradientUnits="userSpaceOnUse" x1="317.091" x2="306.424" xlink:href="#lg3" y1="129.508" y2="33.508"/><linearGradient id="SVGID_00000145060538354444934410000007536480035908211890_" gradientUnits="userSpaceOnUse" x1="254" x2="258.333" y1="73.194" y2="110.194"><stop offset="0" stop-color="#fef48b"/><stop offset=".1462" stop-color="#fdf07e"/><stop offset=".4164" stop-color="#fce55c"/><stop offset=".778" stop-color="#fbd325"/><stop offset="1" stop-color="#fac600"/></linearGradient><linearGradient id="lg4"><stop offset="0" stop-color="#fac600" stop-opacity="0"/><stop offset=".408" stop-color="#efbd01" stop-opacity=".408"/><stop offset="1" stop-color="#d7aa02"/></linearGradient><linearGradient id="SVGID_00000087371836568778009860000013321297572465353663_" gradientUnits="userSpaceOnUse" x1="332.925" x2="342.925" xlink:href="#lg4" y1="81.734" y2="81.734"/><linearGradient id="SVGID_00000110459664194354568090000002063275821997801391_" gradientTransform="matrix(0 1 1 0 3976.034 -3976.034)" gradientUnits="userSpaceOnUse" x1="4065.653" x2="4071.125" xlink:href="#lg4" y1="-3721.034" y2="-3721.034"/><linearGradient id="lg5"><stop offset="0" stop-color="#e1d3ce"/><stop offset="1" stop-color="#9e9797"/></linearGradient><linearGradient id="SVGID_00000134235026097857919920000016182307738536482705_" gradientUnits="userSpaceOnUse" x1="255" x2="255" xlink:href="#lg5" y1="170.766" y2="224.17"/><linearGradient id="lg6"><stop offset="0" stop-color="#433f43" stop-opacity="0"/><stop offset=".3007" stop-color="#3c393c" stop-opacity=".301"/><stop offset=".7373" stop-color="#292729" stop-opacity=".737"/><stop offset="1" stop-color="#1a1a1a"/></linearGradient><linearGradient id="SVGID_00000089568585186180728060000008647994798170222468_" gradientUnits="userSpaceOnUse" x1="255" x2="255" xlink:href="#lg6" y1="196.987" y2="159.517"/><linearGradient id="SVGID_00000070106367100691816490000004350198839168776071_" gradientUnits="userSpaceOnUse" x1="114" x2="68.667" xlink:href="#lg6" y1="187.547" y2="187.547"/><linearGradient id="SVGID_00000039841448573303093380000009361056651591395744_" gradientUnits="userSpaceOnUse" x1="255" x2="255" xlink:href="#lg6" y1="197" y2="169.427"/><linearGradient id="lg7"><stop offset="0" stop-color="#bbec6c"/><stop offset="1" stop-color="#78a91f"/></linearGradient><linearGradient id="SVGID_00000146482681396943698540000002464013057864857513_" gradientUnits="userSpaceOnUse" x1="64.036" x2="72.79" xlink:href="#lg7" y1="170.464" y2="179.218"/><linearGradient id="SVGID_00000027562851813219801160000013915383921433129603_" gradientUnits="userSpaceOnUse" x1="64.036" x2="72.79" y1="190.917" y2="199.67"><stop offset="0" stop-color="#fd8087"/><stop offset="1" stop-color="#e74335"/></linearGradient><linearGradient id="lg8"><stop offset="0" stop-color="#99e6fc"/><stop offset="1" stop-color="#01c0fa"/></linearGradient><linearGradient id="SVGID_00000013190180377741759160000002523527819314243467_" gradientUnits="userSpaceOnUse" x1="107.398" x2="144.615" xlink:href="#lg8" y1="227.535" y2="227.535"/><linearGradient id="SVGID_00000000197894941518114200000005024162872261428925_" gradientUnits="userSpaceOnUse" x1="171.895" x2="209.111" xlink:href="#lg8" y1="227.535" y2="227.535"/><linearGradient id="SVGID_00000096048168848652140560000008340494297447163041_" gradientUnits="userSpaceOnUse" x1="236.392" x2="273.608" xlink:href="#lg8" y1="227.535" y2="227.535"/><linearGradient id="SVGID_00000149357478609506445440000011335045011394311577_" gradientUnits="userSpaceOnUse" x1="300.889" x2="338.105" xlink:href="#lg8" y1="227.535" y2="227.535"/><linearGradient id="SVGID_00000063592211967436137590000000785160264689338788_" gradientUnits="userSpaceOnUse" x1="365.385" x2="402.602" xlink:href="#lg8" y1="227.535" y2="227.535"/><linearGradient id="SVGID_00000049186191012942225580000009944302642722945434_" gradientTransform="matrix(0 1 1 0 578.969 -578.969)" gradientUnits="userSpaceOnUse" x1="958.002" x2="995.804" xlink:href="#lg2" y1="-251.983" y2="-111.929"/><linearGradient id="SVGID_00000114076171870177836560000001271886817199849613_" gradientTransform="matrix(0 1 1 0 578.969 -578.969)" gradientUnits="userSpaceOnUse" x1="967.148" x2="967.148" xlink:href="#lg3" y1="-176.433" y2="-134.88"/><linearGradient id="SVGID_00000063611049322116623230000003512958664131565225_" gradientTransform="matrix(0 1 1 0 578.969 -578.969)" gradientUnits="userSpaceOnUse" x1="1047.916" x2="1097.568" xlink:href="#lg3" y1="-218.1" y2="-218.1"/><linearGradient id="SVGID_00000042710390882073515270000002186950507545116846_" gradientUnits="userSpaceOnUse" x1="394.846" x2="320.708" xlink:href="#lg2" y1="460.075" y2="404.865"/><linearGradient id="SVGID_00000178926257399734025900000008764453246545765518_" gradientUnits="userSpaceOnUse" x1="332.348" x2="414.769" xlink:href="#lg7" y1="306.216" y2="412.298"/><linearGradient id="lg9"><stop offset="0" stop-color="#78a91f" stop-opacity="0"/><stop offset="1" stop-color="#026841"/></linearGradient><linearGradient id="SVGID_00000117639306193870593720000004035507629195499694_" gradientUnits="userSpaceOnUse" x1="330.11" x2="305.215" xlink:href="#lg9" y1="342.925" y2="342.925"/><linearGradient id="SVGID_00000018238757829483214470000017149361021148995991_" gradientUnits="userSpaceOnUse" x1="360.869" x2="360.869" xlink:href="#lg9" y1="316.597" y2="288.922"/><linearGradient id="SVGID_00000086677630449886509490000016050414716839566468_" gradientUnits="userSpaceOnUse" x1="271.239" x2="385.997" xlink:href="#lg9" y1="272.992" y2="407.468"/><linearGradient id="SVGID_00000179610975515309116490000013227811020518761115_" gradientUnits="userSpaceOnUse" x1="290.236" x2="404.994" xlink:href="#lg9" y1="256.781" y2="391.256"/><linearGradient id="SVGID_00000037688274445209162220000014040519609270226586_" gradientUnits="userSpaceOnUse" x1="341.708" x2="414.816" xlink:href="#lg9" y1="281.11" y2="366.781"/><linearGradient id="SVGID_00000111149833407384787230000002443512104249290427_" gradientUnits="userSpaceOnUse" x1="315.508" x2="388.617" xlink:href="#lg9" y1="303.468" y2="389.138"/><linearGradient id="SVGID_00000005977186527116261400000017487800581660403128_" gradientUnits="userSpaceOnUse" x1="328.751" x2="401.86" xlink:href="#lg9" y1="292.167" y2="377.837"/><linearGradient id="SVGID_00000168821898057844667450000013165105530815255439_" gradientUnits="userSpaceOnUse" x1="350.553" x2="366.304" xlink:href="#lg5" y1="410.696" y2="426.446"/><linearGradient id="SVGID_00000167369951864558009090000006288067610024782775_" gradientUnits="userSpaceOnUse" x1="355.689" x2="370.787" xlink:href="#lg5" y1="443.353" y2="458.451"/><g><g><path d="m479 510h-448c-17.121 0-31-13.879-31-31v-448c0-17.121 13.879-31 31-31h448c17.121 0 31 13.879 31 31v448c0 17.121-13.879 31-31 31z" fill="url(#SVGID_1_)"/><path d="m0 311.832v167.168c0 17.121 13.879 31 31 31h448c17.121 0 31-13.879 31-31v-167.168z" fill="url(#SVGID_00000178893573848377741940000018168455429913112471_)"/><path d="m0 311.832v167.168c0 17.121 13.879 31 31 31h448c17.121 0 31-13.879 31-31v-167.168z" fill="url(#SVGID_00000007416793737743758680000017644704762090985856_)"/><path d="m311.832 510h167.168c17.121 0 31-13.879 31-31v-448c0-17.121-13.879-31-31-31h-167.168z" fill="url(#SVGID_00000115502364534219839020000000972197399581939633_)"/></g><path d="m510 479v-389.868l-41.178-41.178-424.597 151.759 310.287 310.287h124.488c17.121 0 31-13.879 31-31z" fill="url(#SVGID_00000021115727455251407390000017786074763743872898_)"/><path d="m510 479v-103.983l-90.179-90.179-116.945 207.641 17.521 17.521h158.603c17.121 0 31-13.879 31-31z" fill="url(#SVGID_00000013190176584717174890000004723992573708783036_)"/><g><g><path d="m441.82 208h-373.64c-21.435 0-38.812-17.377-38.812-38.812v-93.368c0-21.435 17.377-38.812 38.812-38.812h373.64c21.435 0 38.812 17.377 38.812 38.812v93.367c0 21.436-17.376 38.813-38.812 38.813z" fill="url(#SVGID_00000093165662319623054160000018203746678943142285_)"/><path d="m29.368 104v65.188c0 21.435 17.376 38.812 38.812 38.812h373.64c21.435 0 38.812-17.377 38.812-38.812v-65.188z" fill="url(#SVGID_00000155138783337483050030000002494607256115141289_)"/><path d="m29.368 132.667v36.521c0 21.435 17.376 38.812 38.812 38.812h373.64c21.435 0 38.812-17.377 38.812-38.812v-36.521z" fill="url(#SVGID_00000053511587140632278570000007316749642044497803_)"/><path d="m441.82 37.008h-186.82v170.992h186.82c21.435 0 38.812-17.377 38.812-38.812v-93.368c0-21.435-17.376-38.812-38.812-38.812z" fill="url(#SVGID_00000023994842076632244470000015939861233907200646_)"/><path d="m468.822 197.054-126.722-126.722-173.168 23.777 113.89 113.891h158.998c10.498 0 20.016-4.175 27.002-10.946z" fill="url(#SVGID_00000068646301413167279160000000941436433447310994_)"/></g><g><g><path d="m342.349 92v-20.533c0-1.529-1.239-2.768-2.768-2.768h-169.162c-1.529 0-2.768 1.239-2.768 2.768v20.533c0 1.529 1.239 2.768 2.768 2.768h169.162c1.529 0 2.768-1.239 2.768-2.768z" fill="url(#SVGID_00000145060538354444934410000007536480035908211890_)"/><path d="m310.925 68.699h28.656c1.529 0 2.768 1.239 2.768 2.768v20.533c0 1.529-1.239 2.768-2.768 2.768h-28.656z" fill="url(#SVGID_00000087371836568778009860000013321297572465353663_)"/><path d="m167.651 92v-10.788h174.698v10.788c0 1.529-1.239 2.768-2.768 2.768h-169.162c-1.529 0-2.768-1.239-2.768-2.768z" fill="url(#SVGID_00000110459664194354568090000002063275821997801391_)"/></g></g><g><path d="m398.491 167.095h-286.982c-16.464 0-29.81 13.346-29.81 29.81v11.095h346.602v-11.095c0-16.464-13.347-29.81-29.81-29.81z" fill="url(#SVGID_00000134235026097857919920000016182307738536482705_)"/><path d="m398.491 167.095h-286.982c-16.464 0-29.81 13.346-29.81 29.81v11.095h346.602v-11.095c0-16.464-13.347-29.81-29.81-29.81z" fill="url(#SVGID_00000089568585186180728060000008647994798170222468_)"/><path d="m255 167.095h-143.491c-16.464 0-29.81 13.346-29.81 29.81v11.095h173.301z" fill="url(#SVGID_00000070106367100691816490000004350198839168776071_)"/></g><path d="m425.499 184.286h-340.998c-1.793 3.83-2.8 8.102-2.802 12.61v11.104h346.602v-11.095c0-4.512-1.008-8.786-2.802-12.619z" fill="url(#SVGID_00000039841448573303093380000009361056651591395744_)"/><g><circle cx="68.333" cy="174.762" fill="url(#SVGID_00000146482681396943698540000002464013057864857513_)" r="7.667"/><circle cx="68.333" cy="195.214" fill="url(#SVGID_00000027562851813219801160000013915383921433129603_)" r="7.667"/></g></g><g><path d="m139.983 232.104-.318-.462c-8.997-13.06-13.764-28.482-13.791-44.193-.005-2.972-3.735-4.295-5.619-1.997l-8.088 9.865c-6.858 8.365-6.256 20.568 1.393 28.217 8.965 13.014 13.735 28.381 13.791 44.051.01 2.9 3.541 4.302 5.504 2.168l6.736-7.324c6.551-9.002 6.708-21.157.392-30.325z" fill="url(#SVGID_00000013190180377741759160000002523527819314243467_)"/><path d="m204.48 232.104-.318-.462c-8.997-13.06-13.764-28.482-13.791-44.193-.005-2.972-3.735-4.295-5.619-1.997l-8.088 9.865c-6.858 8.365-6.256 20.568 1.393 28.217 8.965 13.014 13.735 28.381 13.791 44.051.01 2.9 3.541 4.302 5.504 2.168l6.736-7.324c6.551-9.002 6.708-21.157.392-30.325z" fill="url(#SVGID_00000000197894941518114200000005024162872261428925_)"/><path d="m268.977 232.104-.318-.462c-8.997-13.06-13.764-28.482-13.791-44.193-.005-2.972-3.735-4.295-5.619-1.997l-8.088 9.865c-6.858 8.365-6.256 20.568 1.393 28.217 8.965 13.014 13.735 28.381 13.791 44.051.01 2.9 3.541 4.302 5.504 2.168l6.736-7.324c6.551-9.002 6.708-21.157.392-30.325z" fill="url(#SVGID_00000096048168848652140560000008340494297447163041_)"/><path d="m333.474 232.104-.318-.462c-8.997-13.06-13.764-28.482-13.791-44.193-.005-2.972-3.735-4.295-5.619-1.997l-8.088 9.865c-6.858 8.365-6.256 20.568 1.393 28.217 8.965 13.014 13.735 28.381 13.791 44.051.01 2.9 3.541 4.302 5.504 2.168l6.736-7.324c6.55-9.002 6.707-21.157.392-30.325z" fill="url(#SVGID_00000149357478609506445440000011335045011394311577_)"/><path d="m397.971 232.104-.318-.462c-8.997-13.06-13.764-28.482-13.791-44.193-.005-2.972-3.735-4.295-5.619-1.997l-8.088 9.865c-6.858 8.365-6.256 20.568 1.393 28.217 8.965 13.014 13.735 28.381 13.791 44.051.01 2.9 3.541 4.302 5.504 2.168l6.736-7.324c6.55-9.002 6.707-21.157.392-30.325z" fill="url(#SVGID_00000063592211967436137590000000785160264689338788_)"/></g><g><g><path d="m428.301 470.383v-164.409c0-16.906-13.705-30.612-30.612-30.612h-73.64c-16.906 0-30.612 13.705-30.612 30.612v164.409c0 16.906 13.705 30.612 30.612 30.612h73.64c16.907 0 30.612-13.706 30.612-30.612z" fill="url(#SVGID_00000049186191012942225580000009944302642722945434_)"/><path d="m346.275 275.362h51.414c16.906 0 30.612 13.705 30.612 30.612v164.409c0 16.906-13.705 30.612-30.612 30.612h-51.414z" fill="url(#SVGID_00000114076171870177836560000001271886817199849613_)"/><path d="m293.438 470.383v-147.347h134.863v147.347c0 16.906-13.705 30.612-30.612 30.612h-73.64c-16.906 0-30.611-13.706-30.611-30.612z" fill="url(#SVGID_00000063611049322116623230000003512958664131565225_)"/></g><path d="m377.958 478.94h-34.178c-7.648 0-13.848-6.2-13.848-13.848v-60.641c0-7.648 6.2-13.848 13.848-13.848h34.178c7.648 0 13.848 6.2 13.848 13.848v60.641c0 7.649-6.2 13.848-13.848 13.848z" fill="url(#SVGID_00000042710390882073515270000002186950507545116846_)"/><g><path d="m394.784 384.727h-67.829c-4.356 0-7.887-3.531-7.887-7.887v-67.83c0-4.356 3.531-7.887 7.887-7.887h67.829c4.356 0 7.887 3.531 7.887 7.887v67.829c0 4.356-3.531 7.888-7.887 7.888z" fill="url(#SVGID_00000178926257399734025900000008764453246545765518_)"/><path d="m394.784 384.727h-67.829c-4.356 0-7.887-3.531-7.887-7.887v-67.83c0-4.356 3.531-7.887 7.887-7.887h67.829c4.356 0 7.887 3.531 7.887 7.887v67.829c0 4.356-3.531 7.888-7.887 7.888z" fill="url(#SVGID_00000117639306193870593720000004035507629195499694_)"/><path d="m394.784 384.727h-67.829c-4.356 0-7.887-3.531-7.887-7.887v-67.83c0-4.356 3.531-7.887 7.887-7.887h67.829c4.356 0 7.887 3.531 7.887 7.887v67.829c0 4.356-3.531 7.888-7.887 7.888z" fill="url(#SVGID_00000018238757829483214470000017149361021148995991_)"/></g><g><path d="m360.696 358.766h-23.625c-2.878 0-5.211 2.333-5.211 5.211s2.333 5.211 5.211 5.211h23.625c2.878 0 5.211-2.333 5.211-5.211s-2.333-5.211-5.211-5.211z" fill="url(#SVGID_00000086677630449886509490000016050414716839566468_)"/><path d="m384.668 358.766h-5.906c-2.878 0-5.211 2.333-5.211 5.211s2.333 5.211 5.211 5.211h5.906c2.878 0 5.211-2.333 5.211-5.211s-2.333-5.211-5.211-5.211z" fill="url(#SVGID_00000179610975515309116490000013227811020518761115_)"/><path d="m379.335 316.661c-3.941 0-7.147 3.206-7.147 7.147v2.789c0 3.941 3.206 7.147 7.147 7.147s7.147-3.206 7.147-7.147v-2.789c0-3.941-3.206-7.147-7.147-7.147zm1.62 9.936c0 .894-.727 1.62-1.62 1.62-.894 0-1.62-.727-1.62-1.62v-2.789c0-.894.727-1.62 1.62-1.62s1.62.727 1.62 1.62z" fill="url(#SVGID_00000037688274445209162220000014040519609270226586_)"/><path d="m354.96 348.357c0-1.719-1.05-3.198-2.243-3.198h-12.507v-.43c0-4.344 14.75-7.733 14.75-18.091 0-6.397-5.585-9.882-11.122-9.882-5.442 0-10.788 3.342-10.788 9.165 0 3.007 1.432 3.867 3.342 3.867 2.434 0 3.914-1.337 3.914-2.721 0-2.625 1.67-3.58 3.58-3.58 2.673 0 3.628 1.862 3.628 3.389 0 6.062-15.037 10.358-15.037 17.853v4.631c0 1.384 1.91 2.291 3.246 2.291h16.994c1.193-.001 2.243-1.576 2.243-3.294z" fill="url(#SVGID_00000111149833407384787230000002443512104249290427_)"/><path d="m358.301 326.303c.334 0 .764-.096 1.193-.382l1.384-.859v24.297c0 1.527 1.862 2.291 3.723 2.291 1.862 0 3.723-.764 3.723-2.291v-30.359c0-1.432-1.766-2.339-3.294-2.339-.525 0-1.002.095-1.384.334l-6.301 3.819c-.955.573-1.385 1.528-1.385 2.53.002 1.48.957 2.959 2.341 2.959z" fill="url(#SVGID_00000005977186527116261400000017487800581660403128_)"/></g><g><path d="m357.969 401.71-13.826 20.948c-1.525 2.31.132 5.389 2.9 5.389h27.652c2.768 0 4.425-3.079 2.9-5.389l-13.825-20.948c-1.374-2.081-4.427-2.081-5.801 0z" fill="url(#SVGID_00000168821898057844667450000013165105530815255439_)"/><path d="m357.969 467.835-13.826-20.948c-1.525-2.31.132-5.389 2.9-5.389h27.652c2.768 0 4.425 3.079 2.9 5.389l-13.826 20.948c-1.373 2.081-4.426 2.081-5.8 0z" fill="url(#SVGID_00000167369951864558009090000006288067610024782775_)"/></g></g></g></svg>