<svg id="Capa_1" enable-background="new 0 0 510 510" height="512" viewBox="0 0 510 510" width="512" xmlns="http://www.w3.org/2000/svg" xmlns:xlink="http://www.w3.org/1999/xlink"><linearGradient id="lg1"><stop offset="0" stop-color="#fffdf1"/><stop offset="1" stop-color="#fff5c6"/></linearGradient><linearGradient id="SVGID_1_" gradientUnits="userSpaceOnUse" x1="116.5" x2="355.552" xlink:href="#lg1" y1="116.5" y2="355.552"/><linearGradient id="lg2"><stop offset="0" stop-color="#fea613" stop-opacity="0"/><stop offset=".1832" stop-color="#fc9b19" stop-opacity=".183"/><stop offset=".5086" stop-color="#f57d28" stop-opacity=".509"/><stop offset=".9356" stop-color="#eb4c40" stop-opacity=".936"/><stop offset="1" stop-color="#e94444"/></linearGradient><linearGradient id="SVGID_00000093156851166491959450000002584299520211767683_" gradientUnits="userSpaceOnUse" x1="110.16" x2="54.827" xlink:href="#lg2" y1="241.54" y2="234.873"/><linearGradient id="SVGID_00000106833118458594204850000016075014654537586598_" gradientUnits="userSpaceOnUse" x1="255" x2="255" xlink:href="#lg2" y1="349" y2="533.391"/><linearGradient id="SVGID_00000134251177819195668440000013629579957618095533_" gradientUnits="userSpaceOnUse" x1="298.5" x2="192.199" xlink:href="#lg1" y1="298.5" y2="192.199"/><linearGradient id="SVGID_00000108294288244206662290000006811654842967829942_" gradientUnits="userSpaceOnUse" x1="235.595" x2="15.095" xlink:href="#lg2" y1="271.613" y2="211.613"/><linearGradient id="SVGID_00000039830875608452633240000006164832113877362053_" gradientUnits="userSpaceOnUse" x1="308.64" x2="224.64" xlink:href="#lg2" y1="363.003" y2="275.003"/><linearGradient id="SVGID_00000083767145540394143850000014896851541385956484_" gradientUnits="userSpaceOnUse" x1="459.862" x2="241.862" xlink:href="#lg2" y1="372.88" y2="222.88"/><linearGradient id="SVGID_00000118378118718470744940000014213318770537245860_" gradientUnits="userSpaceOnUse" x1="265.908" x2="390.028" xlink:href="#lg1" y1="209.061" y2="333.181"/><linearGradient id="SVGID_00000113322501424287202190000012152628737746934944_" gradientUnits="userSpaceOnUse" x1="209.906" x2="369.328" y1="153.059" y2="312.481"><stop offset="0" stop-color="#fff"/><stop offset="1" stop-color="#eaf6ff" stop-opacity="0"/></linearGradient><linearGradient id="SVGID_00000031916121540252621120000002342163954086117504_" gradientUnits="userSpaceOnUse" x1="240.338" x2="145.338" xlink:href="#lg2" y1="251.323" y2="214.323"/><linearGradient id="SVGID_00000067199122100599313820000016005031714168938138_" gradientUnits="userSpaceOnUse" x1="394.165" x2="269.696" xlink:href="#lg2" y1="328.835" y2="204.366"/><linearGradient id="SVGID_00000137132113123422528900000007343548931513634183_" gradientUnits="userSpaceOnUse" x1="298.5" x2="360.508" y1="233.17" y2="295.178"><stop offset="0" stop-color="#fef48b"/><stop offset=".1462" stop-color="#fdf07e"/><stop offset=".4164" stop-color="#fce55c"/><stop offset=".778" stop-color="#fbd325"/><stop offset="1" stop-color="#fac600"/></linearGradient><linearGradient id="lg3"><stop offset="0" stop-color="#bbec6c"/><stop offset="1" stop-color="#78a91f"/></linearGradient><linearGradient id="SVGID_00000127764791794285995990000000195740797120332708_" gradientUnits="userSpaceOnUse" x1="198.254" x2="216.694" xlink:href="#lg3" y1="316.996" y2="335.435"/><linearGradient id="SVGID_00000000192456974841570970000015918565663671842211_" gradientUnits="userSpaceOnUse" x1="208.733" x2="227.173" xlink:href="#lg3" y1="396.386" y2="414.825"/><linearGradient id="SVGID_00000155119314683073098390000008909656533325800852_" gradientUnits="userSpaceOnUse" x1="173.646" x2="192.085" xlink:href="#lg3" y1="341.996" y2="360.435"/><linearGradient id="SVGID_00000121274831206253325300000011573314861950983102_" gradientUnits="userSpaceOnUse" x1="179.637" x2="198.076" xlink:href="#lg3" y1="372.614" y2="391.053"/><linearGradient id="SVGID_00000003085159695897136570000013943597823190945955_" gradientUnits="userSpaceOnUse" x1="198.254" x2="216.694" xlink:href="#lg3" y1="350.496" y2="368.935"/><linearGradient id="SVGID_00000119825084384142119260000003840430592063684784_" gradientUnits="userSpaceOnUse" x1="232.383" x2="250.822" xlink:href="#lg3" y1="341.996" y2="360.435"/><linearGradient id="SVGID_00000090269563457860937030000016421703871519148469_" gradientUnits="userSpaceOnUse" x1="216.872" x2="235.311" xlink:href="#lg3" y1="369.114" y2="387.553"/><linearGradient id="lg4"><stop offset="0" stop-color="#fd8087"/><stop offset="1" stop-color="#e74335"/></linearGradient><linearGradient id="SVGID_00000071557132539083323430000000127597042891559817_" gradientTransform="matrix(.906 .423 -.423 .906 85.42 -43.971)" gradientUnits="userSpaceOnUse" x1="97.433" x2="243.519" xlink:href="#lg4" y1="170.667" y2="170.667"/><linearGradient id="lg5"><stop offset="0" stop-color="#e41f2d" stop-opacity="0"/><stop offset=".3461" stop-color="#de1e2b" stop-opacity=".346"/><stop offset=".8036" stop-color="#ce1b28" stop-opacity=".804"/><stop offset="1" stop-color="#c41926"/></linearGradient><linearGradient id="SVGID_00000044147296622212671120000002239938560646513807_" gradientTransform="matrix(.906 .423 -.423 .906 85.42 -43.971)" gradientUnits="userSpaceOnUse" x1="32.433" x2="218.922" xlink:href="#lg5" y1="170.667" y2="170.667"/><linearGradient id="SVGID_00000043429358805230024120000002837167458020242327_" gradientTransform="matrix(.906 .423 -.423 .906 85.42 -43.971)" gradientUnits="userSpaceOnUse" x1="58.56" x2="301.192" xlink:href="#lg5" y1="170.667" y2="170.667"/><linearGradient id="SVGID_00000103263722586508626390000014010256924570237840_" gradientTransform="matrix(.906 .423 -.423 .906 85.42 -43.971)" gradientUnits="userSpaceOnUse" x1="42.077" x2="284.709" xlink:href="#lg5" y1="170.667" y2="170.667"/><linearGradient id="SVGID_00000075847644485580903200000012994613794511746432_" gradientTransform="matrix(.906 .423 -.423 .906 85.42 -43.971)" gradientUnits="userSpaceOnUse" x1="150.254" x2="296.34" xlink:href="#lg4" y1="208.474" y2="208.474"/><linearGradient id="SVGID_00000176734733765126600490000018393318468655846785_" gradientTransform="matrix(.906 .423 -.423 .906 85.42 -43.971)" gradientUnits="userSpaceOnUse" x1="85.254" x2="271.744" xlink:href="#lg5" y1="208.474" y2="208.474"/><linearGradient id="SVGID_00000038411673090017744330000010358819675843424649_" gradientTransform="matrix(.906 .423 -.423 .906 85.42 -43.971)" gradientUnits="userSpaceOnUse" x1="111.381" x2="354.013" xlink:href="#lg5" y1="208.474" y2="208.474"/><linearGradient id="SVGID_00000034790309584222834860000008139618310881811115_" gradientTransform="matrix(.906 .423 -.423 .906 85.42 -43.971)" gradientUnits="userSpaceOnUse" x1="94.899" x2="337.53" xlink:href="#lg5" y1="208.474" y2="208.474"/><linearGradient id="lg6"><stop offset="0" stop-color="#e1d3ce"/><stop offset="1" stop-color="#9e9797"/></linearGradient><linearGradient id="SVGID_00000154398754380447423390000001659802814707525765_" gradientUnits="userSpaceOnUse" x1="415.705" x2="512.1" xlink:href="#lg6" y1="254.539" y2="254.539"/><linearGradient id="SVGID_00000035497079540344698160000014096734056681127359_" gradientUnits="userSpaceOnUse" x1="511.343" x2="406.185" xlink:href="#lg6" y1="153.506" y2="153.506"/><linearGradient id="SVGID_00000007417575956129393720000009112150630749079173_" gradientUnits="userSpaceOnUse" x1="34.557" x2="80.491" xlink:href="#lg6" y1="257.516" y2="257.516"/><g><g><g><circle cx="255" cy="255" fill="url(#SVGID_1_)" r="212"/><path d="m221.878 45.604c-42.751 6.726-83.841 26.546-116.785 59.49-82.791 82.791-82.791 217.022 0 299.813 32.944 32.943 74.034 52.763 116.785 59.49z" fill="url(#SVGID_00000093156851166491959450000002584299520211767683_)"/><path d="m105.093 404.907c82.791 82.791 217.022 82.791 299.813 0 47.215-47.215 67.489-111.159 60.851-172.753h-421.515c-6.637 61.593 13.636 125.537 60.851 172.753z" fill="url(#SVGID_00000106833118458594204850000016075014654537586598_)"/><circle cx="255" cy="255" fill="url(#SVGID_00000134251177819195668440000013629579957618095533_)" r="155.916"/><path d="m460.055 308.904-231.753-231.753h-65.302v97.464l-83.344 101.649 36.576 36.576-4.682 20.013 133.928 133.928c57.384 2.564 115.61-18.056 159.428-61.874 27.565-27.564 45.939-60.833 55.149-96.003z" fill="url(#SVGID_00000108294288244206662290000006811654842967829942_)"/><path d="m449.433 339.635h-216.333l-56.21 56.21 71.022 71.022c56.593 1.881 113.795-18.763 156.994-61.961 19.379-19.378 34.221-41.575 44.527-65.271z" fill="url(#SVGID_00000039830875608452633240000006164832113877362053_)"/></g><path d="m238.319 369.354 86.026 86.026c29.428-10.16 57.068-26.979 80.562-50.473 50.548-50.548 70.23-120.271 59.054-185.755l-61.548-61.548z" fill="url(#SVGID_00000083767145540394143850000014896851541385956484_)"/><g><g><path d="m420.322 202.038c-.001-.245-.003-.49-.007-.735-.529-34.596-28.538-63.039-63.123-64.066-5.31-.158-10.481.322-15.443 1.367-19.335 4.074-39.414 2.472-57.587-5.285-9.57-4.085-20.104-6.346-31.168-6.346-43.964-.001-79.754 35.988-79.521 79.951.099 18.739 6.683 35.94 17.621 49.479 13.184 16.32 20.602 36.504 21.405 57.468.012.304.025.609.04.914 2.042 41.205 35.864 74.301 77.103 75.475 23.255.662 44.329-8.67 59.266-24.011 9.474-9.731 22.6-15.126 36.181-15.127.483 0 .968-.005 1.454-.016 34.382-.751 62.531-28.608 63.619-62.98.525-16.568-5.146-31.794-14.869-43.551-9.865-11.925-14.906-27.063-14.971-42.537z" fill="url(#SVGID_00000118378118718470744940000014213318770537245860_)"/><path d="m420.322 202.038c-.001-.245-.003-.49-.007-.735-.529-34.596-28.538-63.039-63.123-64.066-5.31-.158-10.481.322-15.443 1.367-19.335 4.074-39.414 2.472-57.587-5.285-9.57-4.085-20.104-6.346-31.168-6.346-43.964-.001-79.754 35.988-79.521 79.951.099 18.739 6.683 35.94 17.621 49.479 13.184 16.32 20.602 36.504 21.405 57.468.012.304.025.609.04.914 2.042 41.205 35.864 74.301 77.103 75.475 23.255.662 44.329-8.67 59.266-24.011 9.474-9.731 22.6-15.126 36.181-15.127.483 0 .968-.005 1.454-.016 34.382-.751 62.531-28.608 63.619-62.98.525-16.568-5.146-31.794-14.869-43.551-9.865-11.925-14.906-27.063-14.971-42.537z" fill="url(#SVGID_00000113322501424287202190000012152628737746934944_)"/><path d="m442.588 316.425-181.798-181.798h-41.756c-27.018 12.841-45.731 40.474-45.562 72.297.099 18.739 6.683 35.94 17.621 49.479 13.184 16.32 20.602 36.504 21.405 57.469.012.304.025.609.04.914 2.042 41.205 35.864 74.301 77.103 75.475 23.255.662 44.329-8.669 59.266-24.011 9.474-9.731 22.6-15.126 36.181-15.126.483 0 .968-.005 1.454-.016 24.19-.53 45.281-14.487 56.046-34.683z" fill="url(#SVGID_00000031916121540252621120000002342163954086117504_)"/><path d="m450.159 288.126c.009-.274.002-.545.007-.818l-77.439-77.439-97.528 97.528 65.886 65.886c2.759-2.173 5.374-4.522 7.82-7.035 9.474-9.731 22.6-15.126 36.181-15.126.483 0 .968-.005 1.454-.016 34.382-.751 62.531-28.607 63.619-62.98z" fill="url(#SVGID_00000067199122100599313820000016005031714168938138_)"/></g><circle cx="323.963" cy="258.633" fill="url(#SVGID_00000137132113123422528900000007343548931513634183_)" r="68.963"/></g><g><circle cx="206.368" cy="325.11" fill="url(#SVGID_00000127764791794285995990000000195740797120332708_)" r="18.618"/><circle cx="216.847" cy="404.5" fill="url(#SVGID_00000000192456974841570970000015918565663671842211_)" r="18.618"/><circle cx="181.76" cy="350.11" fill="url(#SVGID_00000155119314683073098390000008909656533325800852_)" r="18.618"/><circle cx="187.75" cy="380.727" fill="url(#SVGID_00000121274831206253325300000011573314861950983102_)" r="18.618"/><circle cx="206.368" cy="358.61" fill="url(#SVGID_00000003085159695897136570000013943597823190945955_)" r="18.618"/><circle cx="240.496" cy="350.11" fill="url(#SVGID_00000119825084384142119260000003840430592063684784_)" r="18.618"/><circle cx="224.986" cy="377.227" fill="url(#SVGID_00000090269563457860937030000016421703871519148469_)" r="18.618"/></g><g><path d="m130.308 257.085c-3.002-15.507 5.839-34.467 19.648-42.135l14.554-8.082c13.866-7.7 22.663-26.564 19.648-42.134l-3.164-16.345c-3.002-15.506 5.84-34.467 19.648-42.134l14.554-8.082c5.43-3.015 10.071-7.748 13.535-13.322 2.124-3.418.794-7.927-2.854-9.627l-43.873-20.458c-3.153-1.47-6.889-.271-8.632 2.739-3.528 6.092-8.438 11.29-14.253 14.519l-14.554 8.082c-13.808 7.668-22.65 26.628-19.648 42.135l3.164 16.344c3.002 15.506-5.839 34.467-19.648 42.134l-14.554 8.082c-13.808 7.668-22.65 26.628-19.648 42.135l3.164 16.344c1.264 6.53.438 13.632-1.961 20.252-1.185 3.27.298 6.903 3.451 8.373l43.873 20.458c3.647 1.701 7.956-.178 9.209-4.002 2.044-6.237 2.686-12.833 1.505-18.931z" fill="url(#SVGID_00000071557132539083323430000000127597042891559817_)"/><path d="m130.308 257.085c-3.002-15.507 5.839-34.467 19.648-42.135l14.554-8.082c13.866-7.7 22.663-26.564 19.648-42.134l-3.164-16.345c-3.002-15.506 5.84-34.467 19.648-42.134l14.554-8.082c5.43-3.015 10.071-7.748 13.535-13.322 2.124-3.418.794-7.927-2.854-9.627l-10.485-4.889c-3.466 8.412-9.461 15.854-16.963 20.02l-14.554 8.082c-13.808 7.668-22.65 26.628-19.648 42.134l3.164 16.345c3.015 15.57-5.782 34.435-19.648 42.134l-14.554 8.082c-13.808 7.668-22.65 26.629-19.648 42.135l3.164 16.344c1.631 8.424-.217 17.8-4.432 25.863l10.485 4.889c3.647 1.701 7.956-.178 9.209-4.002 2.044-6.237 2.686-12.833 1.505-18.931z" fill="url(#SVGID_00000044147296622212671120000002239938560646513807_)"/><path d="m104.246 244.932c-3.002-15.506 5.839-34.467 19.648-42.135l14.554-8.082c13.866-7.7 22.663-26.564 19.648-42.134l-3.164-16.345c-3.002-15.506 5.84-34.467 19.648-42.134l14.554-8.082c7.502-4.166 13.497-11.608 16.963-20.02l-8.383-3.909c-3.466 8.412-9.461 15.854-16.963 20.02l-14.554 8.082c-13.808 7.668-22.65 26.628-19.648 42.134l3.164 16.345c3.015 15.57-5.782 34.435-19.648 42.134l-14.554 8.082c-13.808 7.668-22.65 26.629-19.648 42.135l3.164 16.344c1.631 8.424-.217 17.8-4.432 25.863l8.383 3.909c4.216-8.063 6.064-17.439 4.432-25.863z" fill="url(#SVGID_00000043429358805230024120000002837167458020242327_)"/><path d="m89.308 237.966c-3.002-15.506 5.839-34.467 19.648-42.135l14.554-8.082c13.866-7.7 22.663-26.564 19.648-42.134l-3.164-16.345c-3.002-15.506 5.84-34.467 19.648-42.134l14.554-8.082c7.502-4.166 13.497-11.608 16.963-20.02l-8.383-3.909c-3.466 8.412-9.461 15.854-16.963 20.02l-14.554 8.082c-13.808 7.668-22.65 26.628-19.648 42.134l3.164 16.345c3.015 15.57-5.782 34.435-19.648 42.134l-14.554 8.082c-13.808 7.668-22.65 26.629-19.648 42.135l3.164 16.344c1.631 8.424-.217 17.8-4.432 25.863l8.383 3.909c4.216-8.063 6.064-17.439 4.432-25.863z" fill="url(#SVGID_00000103263722586508626390000014010256924570237840_)"/></g><g><path d="m162.202 313.674c-3.002-15.506 5.839-34.467 19.648-42.135l14.554-8.082c13.866-7.7 22.663-26.564 19.648-42.134l-3.164-16.345c-3.002-15.506 5.84-34.467 19.648-42.134l14.554-8.082c5.43-3.015 10.071-7.748 13.535-13.322 2.124-3.418.794-7.927-2.854-9.627l-43.873-20.458c-3.153-1.47-6.889-.271-8.632 2.739-3.528 6.092-8.438 11.29-14.253 14.519l-14.554 8.082c-13.808 7.668-22.65 26.628-19.648 42.135l3.164 16.344c3.002 15.506-5.839 34.467-19.648 42.134l-14.554 8.082c-13.808 7.668-22.65 26.629-19.648 42.135l3.164 16.344c1.264 6.53.438 13.632-1.961 20.251-1.185 3.27.298 6.903 3.451 8.373l43.873 20.458c3.647 1.701 7.956-.178 9.209-4.002 2.044-6.237 2.686-12.833 1.505-18.931z" fill="url(#SVGID_00000075847644485580903200000012994613794511746432_)"/><path d="m162.202 313.674c-3.002-15.506 5.839-34.467 19.648-42.135l14.554-8.082c13.866-7.7 22.663-26.564 19.648-42.134l-3.164-16.345c-3.002-15.506 5.84-34.467 19.648-42.134l14.554-8.082c5.43-3.015 10.071-7.748 13.535-13.322 2.124-3.418.794-7.927-2.854-9.627l-10.485-4.889c-3.466 8.412-9.461 15.854-16.963 20.02l-14.554 8.082c-13.808 7.668-22.65 26.628-19.648 42.134l3.164 16.345c3.015 15.57-5.782 34.435-19.648 42.134l-14.554 8.082c-13.808 7.668-22.65 26.629-19.648 42.135l3.164 16.344c1.631 8.424-.217 17.8-4.432 25.863l10.485 4.889c3.647 1.701 7.956-.178 9.209-4.002 2.044-6.237 2.686-12.833 1.505-18.931z" fill="url(#SVGID_00000176734733765126600490000018393318468655846785_)"/><path d="m136.14 301.521c-3.002-15.506 5.839-34.467 19.648-42.135l14.554-8.082c13.866-7.7 22.663-26.564 19.648-42.134l-3.164-16.345c-3.002-15.506 5.84-34.467 19.648-42.134l14.554-8.082c7.502-4.166 13.497-11.608 16.963-20.02l-8.383-3.909c-3.466 8.412-9.461 15.854-16.963 20.02l-14.554 8.082c-13.808 7.668-22.65 26.628-19.648 42.134l3.164 16.345c3.015 15.57-5.782 34.435-19.648 42.134l-14.554 8.082c-13.808 7.668-22.65 26.629-19.648 42.135l3.164 16.344c1.631 8.424-.217 17.8-4.432 25.863l8.383 3.909c4.216-8.063 6.064-17.439 4.432-25.863z" fill="url(#SVGID_00000038411673090017744330000010358819675843424649_)"/><path d="m121.202 294.555c-3.002-15.507 5.839-34.467 19.648-42.135l14.554-8.082c13.866-7.7 22.663-26.564 19.648-42.134l-3.164-16.345c-3.002-15.506 5.84-34.467 19.648-42.134l14.554-8.082c7.502-4.166 13.497-11.608 16.963-20.02l-8.383-3.909c-3.466 8.412-9.461 15.854-16.963 20.02l-14.554 8.082c-13.808 7.668-22.65 26.628-19.648 42.134l3.164 16.345c3.015 15.57-5.782 34.435-19.648 42.134l-14.554 8.082c-13.808 7.668-22.65 26.629-19.648 42.135l3.164 16.344c1.631 8.424-.217 17.8-4.432 25.863l8.383 3.909c4.216-8.063 6.064-17.439 4.432-25.863z" fill="url(#SVGID_00000034790309584222834860000008139618310881811115_)"/></g></g><g><g><path d="m432.058 207.568c7.125 5.593 11.306 14.127 10.946 23.177l-3.254 168.492c-.436 10.972 8.341 20.105 19.322 20.105 10.981 0 19.758-9.133 19.322-20.105l-3.254-168.492c-.36-9.051 3.821-17.585 10.946-23.177 14.363-11.274 23.914-31.269 23.914-54.062 0-35.22-22.801-63.771-50.928-63.771s-50.928 28.551-50.928 63.771c0 22.793 9.551 42.788 23.914 54.062z" fill="url(#SVGID_00000154398754380447423390000001659802814707525765_)"/><ellipse cx="459.072" cy="153.506" fill="url(#SVGID_00000035497079540344698160000014096734056681127359_)" rx="35.795" ry="44.822"/></g><path d="m34.981 218.584-3.375 181.576c-.436 10.972 8.341 20.105 19.322 20.105 10.981 0 19.758-9.133 19.322-20.105l-3.374-181.576c-.296-7.44 3.231-14.477 9.286-18.81 15.349-10.983 25.695-31.675 25.695-55.398 0-18.841-6.528-35.766-16.904-47.437-3.982-4.479-11.417-1.555-11.417 4.439v50.54c0 3.598-2.772 6.735-6.368 6.843-3.721.112-6.772-2.871-6.772-6.567v-42.629c0-5.153-4.216-9.369-9.369-9.369h-.194c-5.175 0-9.369 4.195-9.369 9.369v42.629c0 3.629-2.942 6.57-6.57 6.57-3.629 0-6.57-2.942-6.57-6.57v-50.816c0-5.994-7.434-8.918-11.417-4.439-10.379 11.671-16.907 28.596-16.907 47.437 0 23.722 10.346 44.414 25.695 55.398 6.055 4.333 9.582 11.37 9.286 18.81z" fill="url(#SVGID_00000007417575956129393720000009112150630749079173_)"/></g></g></svg>