<svg id="Capa_1" enable-background="new 0 0 510 510" height="512" viewBox="0 0 510 510" width="512" xmlns="http://www.w3.org/2000/svg" xmlns:xlink="http://www.w3.org/1999/xlink"><linearGradient id="lg1"><stop offset="0" stop-color="#c59191"/><stop offset="1" stop-color="#9b5e5e"/></linearGradient><linearGradient id="SVGID_1_" gradientUnits="userSpaceOnUse" x1="209.393" x2="273.877" xlink:href="#lg1" y1="161.492" y2="319.119"/><linearGradient id="lg2"><stop offset="0" stop-color="#9b5e5e" stop-opacity="0"/><stop offset=".2469" stop-color="#955857" stop-opacity=".247"/><stop offset=".6116" stop-color="#854943" stop-opacity=".612"/><stop offset="1" stop-color="#6d3326"/></linearGradient><linearGradient id="SVGID_00000169559700445385347030000001509570221898711214_" gradientUnits="userSpaceOnUse" x1="420" x2="382.661" xlink:href="#lg2" y1="232.155" y2="232.155"/><linearGradient id="lg3"><stop offset="0" stop-color="#fffdf1"/><stop offset="1" stop-color="#fff5c6"/></linearGradient><linearGradient id="SVGID_00000176737697746887693510000004495939246048104581_" gradientUnits="userSpaceOnUse" x1="181.248" x2="288.954" xlink:href="#lg3" y1="225.13" y2="488.41"/><linearGradient id="lg4"><stop offset="0" stop-color="#fea613" stop-opacity="0"/><stop offset=".1832" stop-color="#fc9b19" stop-opacity=".183"/><stop offset=".5086" stop-color="#f57d28" stop-opacity=".509"/><stop offset=".9356" stop-color="#eb4c40" stop-opacity=".936"/><stop offset="1" stop-color="#e94444"/></linearGradient><linearGradient id="SVGID_00000017498057430908469810000014931157287870970247_" gradientUnits="userSpaceOnUse" x1="444" x2="524.006" xlink:href="#lg4" y1="353.982" y2="353.982"/><linearGradient id="SVGID_00000000219262840772791450000016525447693192698503_" gradientUnits="userSpaceOnUse" x1="414.667" x2="383.993" xlink:href="#lg4" y1="353.982" y2="353.982"/><linearGradient id="SVGID_00000120544267335943074440000017322201308767792295_" gradientUnits="userSpaceOnUse" x1="430.135" x2="430.135" xlink:href="#lg4" y1="433.333" y2="390.537"/><linearGradient id="SVGID_00000025414636964048576410000014460427894094679990_" gradientUnits="userSpaceOnUse" x1="79.865" x2="79.865" xlink:href="#lg4" y1="433.333" y2="390.537"/><linearGradient id="SVGID_00000093864733196890426960000007828437894722439348_" gradientUnits="userSpaceOnUse" x1="90" x2="157.334" xlink:href="#lg4" y1="353.817" y2="353.817"/><linearGradient id="lg5"><stop offset="0" stop-color="#99e6fc"/><stop offset="1" stop-color="#01c0fa"/></linearGradient><linearGradient id="SVGID_00000060022123006276125460000012431066804914257819_" gradientUnits="userSpaceOnUse" x1="55.525" x2="89.233" xlink:href="#lg5" y1="440.568" y2="474.276"/><linearGradient id="lg6"><stop offset="0" stop-color="#017bae" stop-opacity="0"/><stop offset="1" stop-color="#017bae"/></linearGradient><linearGradient id="SVGID_00000000222519877157527050000001065960242313617066_" gradientUnits="userSpaceOnUse" x1="56.994" x2="35.661" xlink:href="#lg6" y1="457.735" y2="457.735"/><linearGradient id="SVGID_00000015336903343792412790000004686227229912475827_" gradientTransform="matrix(0 1 -1 0 273 -57.061)" gradientUnits="userSpaceOnUse" x1="499.099" x2="477.765" xlink:href="#lg6" y1="200.309" y2="200.309"/><linearGradient id="SVGID_00000011000376048803762000000006646150334433584055_" gradientUnits="userSpaceOnUse" x1="420.142" x2="453.85" xlink:href="#lg5" y1="440.568" y2="474.276"/><linearGradient id="SVGID_00000082335210471205105990000010783962578971423161_" gradientUnits="userSpaceOnUse" x1="421.611" x2="400.278" xlink:href="#lg6" y1="457.735" y2="457.735"/><linearGradient id="SVGID_00000165223507505739535500000016727196156275936416_" gradientTransform="matrix(0 1 -1 0 273 -57.061)" gradientUnits="userSpaceOnUse" x1="499.099" x2="477.765" xlink:href="#lg6" y1="-164.309" y2="-164.309"/><linearGradient id="SVGID_00000138549688599582340560000005074181302612724352_" gradientUnits="userSpaceOnUse" x1="65.507" x2="153.532" xlink:href="#lg1" y1="301.233" y2="389.258"/><linearGradient id="SVGID_00000083088432114981296750000008613938261644674466_" gradientUnits="userSpaceOnUse" x1="273.624" x2="295.827" xlink:href="#lg2" y1="383.726" y2="383.726"/><linearGradient id="SVGID_00000169542435647209658670000002794174114064341656_" gradientUnits="userSpaceOnUse" x1="148" x2="148" xlink:href="#lg2" y1="384.855" y2="410.874"/><linearGradient id="SVGID_00000012462320829015245640000013395072594815684015_" gradientUnits="userSpaceOnUse" x1="279.507" x2="367.532" xlink:href="#lg1" y1="301.233" y2="389.258"/><linearGradient id="SVGID_00000018203685428666475600000003675080131387369623_" gradientUnits="userSpaceOnUse" x1="487.624" x2="509.827" xlink:href="#lg2" y1="383.726" y2="383.726"/><linearGradient id="SVGID_00000021084158691575650540000000962688549876224943_" gradientUnits="userSpaceOnUse" x1="362" x2="362" xlink:href="#lg2" y1="384.855" y2="410.874"/><linearGradient id="lg7"><stop offset="0" stop-color="#bbec6c"/><stop offset="1" stop-color="#78a91f"/></linearGradient><linearGradient id="SVGID_00000039119570896212453490000002229493469322799543_" gradientUnits="userSpaceOnUse" x1="61.641" x2="70.308" xlink:href="#lg7" y1="464.471" y2="509.804"/><linearGradient id="SVGID_00000154402203443336707170000002672030112000977591_" gradientUnits="userSpaceOnUse" x1="106.319" x2="334.341" xlink:href="#lg3" y1="200.508" y2="305.518"/><linearGradient id="SVGID_00000119800868626626626640000004900631205351564217_" gradientUnits="userSpaceOnUse" x1="255" x2="255" xlink:href="#lg4" y1="85" y2="26.691"/><linearGradient id="SVGID_00000139294565389031138320000010549417548063983791_" gradientUnits="userSpaceOnUse" x1="255" x2="255" xlink:href="#lg4" y1="414.637" y2="358.636"/><linearGradient id="SVGID_00000165944671524806934340000006847746122289970049_" gradientUnits="userSpaceOnUse" x1="255" x2="255" xlink:href="#lg4" y1="478" y2="521.047"/><linearGradient id="SVGID_00000173870531282282771110000017434206646524811921_" gradientUnits="userSpaceOnUse" x1="357" x2="416.009" xlink:href="#lg4" y1="268.98" y2="268.98"/><linearGradient id="lg8"><stop offset="0" stop-color="#e1d3ce"/><stop offset="1" stop-color="#9e9797"/></linearGradient><linearGradient id="SVGID_00000155118791058499048230000005800205250040186551_" gradientUnits="userSpaceOnUse" x1="125.386" x2="143.393" xlink:href="#lg8" y1="328.65" y2="328.65"/><linearGradient id="SVGID_00000166643798295960160580000015995922049597065646_" gradientUnits="userSpaceOnUse" x1="159.136" x2="177.143" xlink:href="#lg8" y1="328.65" y2="328.65"/><linearGradient id="SVGID_00000133529899945506536360000009288015713578376379_" gradientUnits="userSpaceOnUse" x1="199.396" x2="217.403" xlink:href="#lg8" y1="333.805" y2="333.805"/><linearGradient id="SVGID_00000073680100506747153730000011402656581543926695_" gradientUnits="userSpaceOnUse" x1="251.789" x2="269.796" xlink:href="#lg8" y1="333.805" y2="333.805"/><linearGradient id="SVGID_00000090290130215234182970000008919682190647816859_" gradientUnits="userSpaceOnUse" x1="305.036" x2="323.043" xlink:href="#lg8" y1="333.805" y2="333.805"/><linearGradient id="SVGID_00000096052626518111594180000012283443654980417724_" gradientUnits="userSpaceOnUse" x1="354.245" x2="372.252" xlink:href="#lg8" y1="333.805" y2="333.805"/><linearGradient id="lg9"><stop offset="0" stop-color="#fd8087"/><stop offset="1" stop-color="#e74335"/></linearGradient><linearGradient id="SVGID_00000034083440158880340620000016665388861731546287_" gradientUnits="userSpaceOnUse" x1="142.047" x2="216.047" xlink:href="#lg9" y1="270.754" y2="438.754"/><linearGradient id="SVGID_00000064320814820858572090000000804580908982405019_" gradientUnits="userSpaceOnUse" x1="189.73" x2="263.73" xlink:href="#lg9" y1="249.751" y2="417.751"/><linearGradient id="SVGID_00000033369364344711185880000004178537918802498969_" gradientUnits="userSpaceOnUse" x1="240.974" x2="314.974" xlink:href="#lg9" y1="227.179" y2="395.179"/><linearGradient id="SVGID_00000055670637162323765410000016916558588521829032_" gradientUnits="userSpaceOnUse" x1="278.207" x2="352.207" xlink:href="#lg9" y1="210.779" y2="378.779"/><linearGradient id="SVGID_00000138530983780153252920000016675588781261010361_" gradientUnits="userSpaceOnUse" x1="308.991" x2="382.991" xlink:href="#lg9" y1="197.219" y2="365.219"/><linearGradient id="SVGID_00000137853536016234777650000001854233901420813242_" gradientUnits="userSpaceOnUse" x1="172.507" x2="260.532" xlink:href="#lg1" y1="277.362" y2="365.386"/><linearGradient id="SVGID_00000181800534092430227250000005371007556750985913_" gradientUnits="userSpaceOnUse" x1="380.624" x2="402.827" xlink:href="#lg2" y1="359.855" y2="359.855"/><linearGradient id="SVGID_00000105416284948188203620000005848014075635195521_" gradientUnits="userSpaceOnUse" x1="255" x2="255" xlink:href="#lg2" y1="360.983" y2="387.002"/><linearGradient id="SVGID_00000121243312479520789340000015273270099353034408_" gradientUnits="userSpaceOnUse" x1="172.507" x2="260.532" xlink:href="#lg1" y1="-58.622" y2="29.403"/><linearGradient id="SVGID_00000137114043252272255080000018163290122803801518_" gradientUnits="userSpaceOnUse" x1="380.624" x2="402.827" xlink:href="#lg2" y1="23.871" y2="23.871"/><linearGradient id="SVGID_00000070830266841754824840000010226319550575776175_" gradientUnits="userSpaceOnUse" x1="255" x2="255" xlink:href="#lg2" y1="25" y2="51.019"/><linearGradient id="SVGID_00000127757916853572718910000012330481008948280761_" gradientUnits="userSpaceOnUse" x1="157.216" x2="190.924" xlink:href="#lg5" y1="183.469" y2="217.177"/><linearGradient id="SVGID_00000011737316487283899360000001591465026799717794_" gradientUnits="userSpaceOnUse" x1="158.686" x2="137.352" xlink:href="#lg6" y1="200.636" y2="200.636"/><linearGradient id="SVGID_00000074435286808109094760000015397747582076586116_" gradientTransform="matrix(0 1 -1 0 273 -57.061)" gradientUnits="userSpaceOnUse" x1="242" x2="220.667" xlink:href="#lg6" y1="98.617" y2="98.617"/><linearGradient id="SVGID_00000129200280200115172640000007390257164036852125_" gradientUnits="userSpaceOnUse" x1="237.833" x2="271.541" xlink:href="#lg5" y1="183.469" y2="217.177"/><linearGradient id="SVGID_00000103263476744799720420000015000488407532372650_" gradientUnits="userSpaceOnUse" x1="239.303" x2="217.97" xlink:href="#lg6" y1="200.636" y2="200.636"/><linearGradient id="SVGID_00000075845467322259101710000005059474729012683403_" gradientTransform="matrix(0 1 -1 0 273 -57.061)" gradientUnits="userSpaceOnUse" x1="242" x2="220.667" xlink:href="#lg6" y1="18" y2="18"/><linearGradient id="SVGID_00000174568172990901912560000004676755004281594794_" gradientUnits="userSpaceOnUse" x1="318.451" x2="352.158" xlink:href="#lg5" y1="183.469" y2="217.177"/><linearGradient id="SVGID_00000100377689277556164290000001249324096821556610_" gradientUnits="userSpaceOnUse" x1="319.92" x2="298.587" xlink:href="#lg6" y1="200.636" y2="200.636"/><linearGradient id="SVGID_00000073715215139947078300000011909904974053166518_" gradientTransform="matrix(0 1 -1 0 273 -57.061)" gradientUnits="userSpaceOnUse" x1="242" x2="220.667" xlink:href="#lg6" y1="-62.617" y2="-62.617"/><linearGradient id="SVGID_00000026859058812825095110000012455405244377500330_" gradientUnits="userSpaceOnUse" x1="157.216" x2="190.924" xlink:href="#lg5" y1="90.803" y2="124.511"/><linearGradient id="SVGID_00000183933596606526414580000014842012519682305932_" gradientUnits="userSpaceOnUse" x1="158.686" x2="137.352" xlink:href="#lg6" y1="107.969" y2="107.969"/><linearGradient id="SVGID_00000041262029216093504500000015383663762370659458_" gradientTransform="matrix(0 1 -1 0 273 -57.061)" gradientUnits="userSpaceOnUse" x1="149.333" x2="128" xlink:href="#lg6" y1="98.617" y2="98.617"/><linearGradient id="SVGID_00000054960420239332097290000007095478209257007272_" gradientUnits="userSpaceOnUse" x1="237.833" x2="271.541" xlink:href="#lg5" y1="90.803" y2="124.511"/><linearGradient id="SVGID_00000006686843455757075670000016631068948151408280_" gradientUnits="userSpaceOnUse" x1="239.303" x2="217.97" xlink:href="#lg6" y1="107.969" y2="107.969"/><linearGradient id="SVGID_00000110465230907123036300000018340970701531567765_" gradientTransform="matrix(0 1 -1 0 273 -57.061)" gradientUnits="userSpaceOnUse" x1="149.333" x2="128" xlink:href="#lg6" y1="18" y2="18"/><linearGradient id="SVGID_00000088105785956734959250000008336785284428898216_" gradientUnits="userSpaceOnUse" x1="318.451" x2="352.158" xlink:href="#lg5" y1="90.803" y2="124.511"/><linearGradient id="SVGID_00000071539890508422854610000015979146884818627512_" gradientUnits="userSpaceOnUse" x1="319.92" x2="298.587" xlink:href="#lg6" y1="107.969" y2="107.969"/><linearGradient id="SVGID_00000124870195133136592770000003314354337741175210_" gradientTransform="matrix(0 1 -1 0 273 -57.061)" gradientUnits="userSpaceOnUse" x1="149.333" x2="128" xlink:href="#lg6" y1="-62.617" y2="-62.617"/><linearGradient id="SVGID_00000170249235557450063210000001846929229053988763_" gradientUnits="userSpaceOnUse" x1="222.074" x2="286.727" xlink:href="#lg5" y1="428.754" y2="493.407"/><linearGradient id="SVGID_00000129905114626910305160000009597482839891955608_" gradientUnits="userSpaceOnUse" x1="228.02" x2="191.352" xlink:href="#lg6" y1="457.735" y2="457.735"/><linearGradient id="SVGID_00000069374552189586659320000002199468983902469271_" gradientTransform="matrix(0 1 -1 0 273 -57.061)" gradientUnits="userSpaceOnUse" x1="487.421" x2="450.217" xlink:href="#lg6" y1="18" y2="18"/><linearGradient id="SVGID_00000075860366923564685930000007419281117532302522_" gradientUnits="userSpaceOnUse" x1="267.265" x2="248.932" xlink:href="#lg6" y1="457.735" y2="457.735"/><linearGradient id="SVGID_00000095319927233735874510000014726774495420424093_" gradientUnits="userSpaceOnUse" x1="396.218" x2="404.468" xlink:href="#lg7" y1="472.766" y2="516.016"/><g><path d="m26.058 293.642h457.884c13.754 0 23.489-13.428 19.238-26.509-18.193-55.991-70.79-96.466-132.847-96.466h-230.666c-62.057 0-114.654 40.475-132.847 96.466-4.251 13.08 5.484 26.509 19.238 26.509z" fill="url(#SVGID_1_)"/><path d="m370.527 170.668v122.973h113.415c13.754 0 23.489-13.428 19.239-26.509-18.174-55.932-70.681-96.379-132.654-96.464z" fill="url(#SVGID_00000169559700445385347030000001509570221898711214_)"/><path d="m489.743 510h-469.486v-183.806c0-71.008 57.564-128.572 128.572-128.572h212.343c71.008 0 128.572 57.564 128.572 128.572v183.806z" fill="url(#SVGID_00000176737697746887693510000004495939246048104581_)"/><path d="m370.527 197.963v312.037h119.217v-183.806c-.001-67.861-52.577-123.438-119.217-128.231z" fill="url(#SVGID_00000017498057430908469810000014931157287870970247_)"/><path d="m370.527 197.963v312.037h119.217v-183.806c-.001-67.861-52.577-123.438-119.217-128.231z" fill="url(#SVGID_00000000219262840772791450000016525447693192698503_)"/><path d="m370.527 389.333h119.217v120.667h-119.217z" fill="url(#SVGID_00000120544267335943074440000017322201308767792295_)"/><path d="m20.257 389.333h119.217v120.667h-119.217z" fill="url(#SVGID_00000025414636964048576410000014460427894094679990_)"/><path d="m62.667 510h85.333v-312.367c-32.821.208-62.724 12.708-85.333 33.135z" fill="url(#SVGID_00000093864733196890426960000007828437894722439348_)"/><g><g><path d="m89.191 487.704h-33c-7.439 0-13.469-6.03-13.469-13.469v-33c0-7.439 6.03-13.469 13.469-13.469h33c7.439 0 13.469 6.03 13.469 13.469v33c.001 7.439-6.03 13.469-13.469 13.469z" fill="url(#SVGID_00000060022123006276125460000012431066804914257819_)"/><path d="m89.191 487.704h-33c-7.439 0-13.469-6.03-13.469-13.469v-33c0-7.439 6.03-13.469 13.469-13.469h33c7.439 0 13.469 6.03 13.469 13.469v33c.001 7.439-6.03 13.469-13.469 13.469z" fill="url(#SVGID_00000000222519877157527050000001065960242313617066_)"/><path d="m42.722 474.235v-33c0-7.439 6.03-13.469 13.469-13.469h33c7.439 0 13.469 6.03 13.469 13.469v33c0 7.439-6.03 13.469-13.469 13.469h-33c-7.439 0-13.469-6.03-13.469-13.469z" fill="url(#SVGID_00000015336903343792412790000004686227229912475827_)"/></g><g><path d="m453.809 487.704h-33c-7.439 0-13.469-6.03-13.469-13.469v-33c0-7.439 6.03-13.469 13.469-13.469h33c7.439 0 13.469 6.03 13.469 13.469v33c0 7.439-6.03 13.469-13.469 13.469z" fill="url(#SVGID_00000011000376048803762000000006646150334433584055_)"/><path d="m453.809 487.704h-33c-7.439 0-13.469-6.03-13.469-13.469v-33c0-7.439 6.03-13.469 13.469-13.469h33c7.439 0 13.469 6.03 13.469 13.469v33c0 7.439-6.03 13.469-13.469 13.469z" fill="url(#SVGID_00000082335210471205105990000010783962578971423161_)"/><path d="m407.339 474.235v-33c0-7.439 6.03-13.469 13.469-13.469h33c7.439 0 13.469 6.03 13.469 13.469v33c0 7.439-6.03 13.469-13.469 13.469h-33c-7.438 0-13.469-6.03-13.469-13.469z" fill="url(#SVGID_00000165223507505739535500000016727196156275936416_)"/></g></g><g><path d="m282.91 407.597h-269.82c-7.229 0-13.09-5.86-13.09-13.09v-21.563c0-7.229 5.86-13.09 13.09-13.09h269.82c7.229 0 13.09 5.86 13.09 13.09v21.563c0 7.23-5.86 13.09-13.09 13.09z" fill="url(#SVGID_00000138549688599582340560000005074181302612724352_)"/><path d="m285.728 359.855h-137.728v47.743h137.728c5.673 0 10.272-7.468 10.272-16.68v-14.382c0-9.213-4.599-16.681-10.272-16.681z" fill="url(#SVGID_00000083088432114981296750000008613938261644674466_)"/><path d="m0 378.855v12.062c0 9.212 4.599 16.68 10.272 16.68h275.456c5.673 0 10.272-7.468 10.272-16.68v-12.062z" fill="url(#SVGID_00000169542435647209658670000002794174114064341656_)"/></g><g><path d="m496.91 407.597h-269.82c-7.229 0-13.09-5.86-13.09-13.09v-21.563c0-7.229 5.86-13.09 13.09-13.09h269.82c7.229 0 13.09 5.86 13.09 13.09v21.563c0 7.23-5.86 13.09-13.09 13.09z" fill="url(#SVGID_00000012462320829015245640000013395072594815684015_)"/><path d="m499.728 359.855h-137.728v47.743h137.728c5.673 0 10.272-7.468 10.272-16.68v-14.382c0-9.213-4.599-16.681-10.272-16.681z" fill="url(#SVGID_00000018203685428666475600000003675080131387369623_)"/><path d="m214 378.855v12.062c0 9.212 4.599 16.68 10.272 16.68h275.456c5.673 0 10.272-7.468 10.272-16.68v-12.062z" fill="url(#SVGID_00000021084158691575650540000000962688549876224943_)"/></g><path d="m133.703 510h-128.654c-3.855 0-6.272-4.141-4.407-7.516 4.352-7.878 12.495-13.374 21.974-14.054 1.15-5.4 3.81-10.54 8.01-14.74 11.39-11.39 29.73-11.56 41.36-.56 8.79-6.74 21.41-6.11 29.45 1.93 3.72 3.72 5.84 8.42 6.4 13.27h9.51c9.749 0 18.049 6.231 21.121 14.936 1.159 3.285-1.28 6.734-4.764 6.734z" fill="url(#SVGID_00000039119570896212453490000002229493469322799543_)"/><path d="m119.961 27.959h270.078v482.041h-270.078z" fill="url(#SVGID_00000154402203443336707170000002672030112000977591_)"/><path d="m119.961 27.959h270.078v123.041h-270.078z" fill="url(#SVGID_00000119800868626626626640000004900631205351564217_)"/><path d="m119.961 359.855h270.078v118.169h-270.078z" fill="url(#SVGID_00000139294565389031138320000010549417548063983791_)"/><path d="m119.961 391.831h270.078v118.169h-270.078z" fill="url(#SVGID_00000165944671524806934340000006847746122289970049_)"/><path d="m255 27.959h135.039v482.041h-135.039z" fill="url(#SVGID_00000173870531282282771110000017434206646524811921_)"/><g><g><path d="m141.669 313.673v29.953c0 3.649-2.958 6.607-6.607 6.607s-6.607-2.958-6.607-6.607v-29.953c0-3.649 2.958-6.607 6.607-6.607s6.607 2.958 6.607 6.607z" fill="url(#SVGID_00000155118791058499048230000005800205250040186551_)"/></g><g><path d="m175.419 313.673v29.953c0 3.649-2.958 6.607-6.607 6.607s-6.607-2.958-6.607-6.607v-29.953c0-3.649 2.958-6.607 6.607-6.607s6.607 2.958 6.607 6.607z" fill="url(#SVGID_00000166643798295960160580000015995922049597065646_)"/></g><g><path d="m215.678 322.405v22.8c0 2.778-2.958 5.029-6.607 5.029s-6.607-2.252-6.607-5.029v-22.8c0-2.778 2.958-5.029 6.607-5.029 3.649-.001 6.607 2.251 6.607 5.029z" fill="url(#SVGID_00000133529899945506536360000009288015713578376379_)"/></g><g><path d="m268.071 322.405v22.8c0 2.778-2.958 5.029-6.607 5.029s-6.607-2.252-6.607-5.029v-22.8c0-2.778 2.958-5.029 6.607-5.029 3.649-.001 6.607 2.251 6.607 5.029z" fill="url(#SVGID_00000073680100506747153730000011402656581543926695_)"/></g><g><path d="m321.318 322.405v22.8c0 2.778-2.958 5.029-6.607 5.029s-6.607-2.252-6.607-5.029v-22.8c0-2.778 2.958-5.029 6.607-5.029 3.649-.001 6.607 2.251 6.607 5.029z" fill="url(#SVGID_00000090290130215234182970000008919682190647816859_)"/></g><g><path d="m370.527 322.405v22.8c0 2.778-2.958 5.029-6.607 5.029s-6.607-2.252-6.607-5.029v-22.8c0-2.778 2.958-5.029 6.607-5.029 3.649-.001 6.607 2.251 6.607 5.029z" fill="url(#SVGID_00000096052626518111594180000012283443654980417724_)"/></g><g><path d="m168.839 258.633c-3.705 0-7.41 1.33-7.41 4.466v23.275h-18.905v-23.275c0-3.136-3.705-4.466-7.41-4.466s-7.41 1.33-7.41 4.466v60.421c0 3.039 3.705 4.56 7.41 4.56s7.41-1.521 7.41-4.56v-25.746h18.905v25.746c0 3.039 3.705 4.56 7.41 4.56s7.41-1.521 7.41-4.56v-60.421c.001-3.136-3.704-4.466-7.41-4.466z" fill="url(#SVGID_00000034083440158880340620000016665388861731546287_)"/><path d="m209.023 258.633c-13.11 0-23.275 6.08-23.275 22.421v25.175c0 16.341 10.165 22.421 23.275 22.421s23.37-6.08 23.37-22.421v-25.175c0-16.341-10.26-22.421-23.37-22.421zm8.55 47.596c0 6.556-3.229 9.5-8.55 9.5s-8.455-2.944-8.455-9.5v-25.175c0-6.556 3.135-9.5 8.455-9.5s8.55 2.944 8.55 9.5z" fill="url(#SVGID_00000064320814820858572090000000804580908982405019_)"/><path d="m281.984 258.633h-41.041c-3.135 0-4.465 3.421-4.465 6.556 0 3.61 1.615 6.745 4.465 6.745h13.11v51.586c0 3.039 3.705 4.56 7.41 4.56s7.41-1.521 7.41-4.56v-51.586h13.11c2.85 0 4.465-3.135 4.465-6.745.001-3.135-1.329-6.556-4.464-6.556z" fill="url(#SVGID_00000033369364344711185880000004178537918802498969_)"/><path d="m332.618 271.554c2.851 0 4.466-3.04 4.466-6.556 0-3.04-1.33-6.365-4.466-6.365h-33.82c-3.229 0-6.46 1.521-6.46 4.561v60.326c0 3.039 3.23 4.56 6.46 4.56h33.82c3.136 0 4.466-3.325 4.466-6.365 0-3.515-1.615-6.555-4.466-6.555h-25.46v-16.15h14.25c3.136 0 4.465-3.04 4.465-5.605 0-3.04-1.614-5.795-4.465-5.795h-14.25v-16.055h25.46z" fill="url(#SVGID_00000055670637162323765410000016916558588521829032_)"/><path d="m380.022 315.16h-21.66v-52.061c0-3.136-3.705-4.466-7.41-4.466s-7.41 1.33-7.41 4.466v60.421c0 3.039 3.23 4.56 6.46 4.56h30.021c2.851 0 4.275-3.23 4.275-6.46-.001-3.231-1.425-6.46-4.276-6.46z" fill="url(#SVGID_00000138530983780153252920000016675588781261010361_)"/></g><g><path d="m389.91 383.726h-269.82c-7.229 0-13.09-5.86-13.09-13.09v-21.563c0-7.229 5.86-13.09 13.09-13.09h269.82c7.229 0 13.09 5.86 13.09 13.09v21.563c0 7.23-5.86 13.09-13.09 13.09z" fill="url(#SVGID_00000137853536016234777650000001854233901420813242_)"/><path d="m392.728 335.983h-137.728v47.743h137.728c5.673 0 10.272-7.468 10.272-16.68v-14.382c0-9.213-4.599-16.681-10.272-16.681z" fill="url(#SVGID_00000181800534092430227250000005371007556750985913_)"/><path d="m107 354.983v12.062c0 9.212 4.599 16.68 10.272 16.68h275.456c5.673 0 10.272-7.468 10.272-16.68v-12.062z" fill="url(#SVGID_00000105416284948188203620000005848014075635195521_)"/></g></g><g><path d="m389.91 47.743h-269.82c-7.229 0-13.09-5.86-13.09-13.09v-21.563c0-7.23 5.86-13.09 13.09-13.09h269.82c7.23 0 13.09 5.86 13.09 13.09v21.563c0 7.229-5.86 13.09-13.09 13.09z" fill="url(#SVGID_00000121243312479520789340000015273270099353034408_)"/><path d="m392.728 0h-137.728v47.743h137.728c5.673 0 10.272-7.468 10.272-16.68v-14.383c0-9.212-4.599-16.68-10.272-16.68z" fill="url(#SVGID_00000137114043252272255080000018163290122803801518_)"/><path d="m107 19v12.062c0 9.212 4.599 16.68 10.272 16.68h275.456c5.673 0 10.272-7.468 10.272-16.68v-12.062z" fill="url(#SVGID_00000070830266841754824840000010226319550575776175_)"/></g><g><g><path d="m190.883 230.606h-33c-7.439 0-13.469-6.03-13.469-13.469v-33c0-7.439 6.03-13.469 13.469-13.469h33c7.439 0 13.469 6.03 13.469 13.469v33c0 7.438-6.03 13.469-13.469 13.469z" fill="url(#SVGID_00000127757916853572718910000012330481008948280761_)"/><path d="m190.883 230.606h-33c-7.439 0-13.469-6.03-13.469-13.469v-33c0-7.439 6.03-13.469 13.469-13.469h33c7.439 0 13.469 6.03 13.469 13.469v33c0 7.438-6.03 13.469-13.469 13.469z" fill="url(#SVGID_00000011737316487283899360000001591465026799717794_)"/><path d="m144.413 217.136v-33c0-7.439 6.03-13.469 13.469-13.469h33c7.439 0 13.469 6.03 13.469 13.469v33c0 7.439-6.03 13.469-13.469 13.469h-33c-7.438.001-13.469-6.03-13.469-13.469z" fill="url(#SVGID_00000074435286808109094760000015397747582076586116_)"/></g><g><path d="m271.5 230.606h-33c-7.439 0-13.469-6.03-13.469-13.469v-33c0-7.439 6.03-13.469 13.469-13.469h33c7.439 0 13.469 6.03 13.469 13.469v33c0 7.438-6.03 13.469-13.469 13.469z" fill="url(#SVGID_00000129200280200115172640000007390257164036852125_)"/><path d="m271.5 230.606h-33c-7.439 0-13.469-6.03-13.469-13.469v-33c0-7.439 6.03-13.469 13.469-13.469h33c7.439 0 13.469 6.03 13.469 13.469v33c0 7.438-6.03 13.469-13.469 13.469z" fill="url(#SVGID_00000103263476744799720420000015000488407532372650_)"/><path d="m225.031 217.136v-33c0-7.439 6.03-13.469 13.469-13.469h33c7.439 0 13.469 6.03 13.469 13.469v33c0 7.439-6.03 13.469-13.469 13.469h-33c-7.439.001-13.469-6.03-13.469-13.469z" fill="url(#SVGID_00000075845467322259101710000005059474729012683403_)"/></g><g><path d="m352.117 230.606h-33c-7.439 0-13.469-6.03-13.469-13.469v-33c0-7.439 6.03-13.469 13.469-13.469h33c7.439 0 13.469 6.03 13.469 13.469v33c.001 7.438-6.03 13.469-13.469 13.469z" fill="url(#SVGID_00000174568172990901912560000004676755004281594794_)"/><path d="m352.117 230.606h-33c-7.439 0-13.469-6.03-13.469-13.469v-33c0-7.439 6.03-13.469 13.469-13.469h33c7.439 0 13.469 6.03 13.469 13.469v33c.001 7.438-6.03 13.469-13.469 13.469z" fill="url(#SVGID_00000100377689277556164290000001249324096821556610_)"/><path d="m305.648 217.136v-33c0-7.439 6.03-13.469 13.469-13.469h33c7.439 0 13.469 6.03 13.469 13.469v33c0 7.439-6.03 13.469-13.469 13.469h-33c-7.439.001-13.469-6.03-13.469-13.469z" fill="url(#SVGID_00000073715215139947078300000011909904974053166518_)"/></g></g><g><g><path d="m190.883 137.939h-33c-7.439 0-13.469-6.03-13.469-13.469v-33c0-7.439 6.03-13.469 13.469-13.469h33c7.439 0 13.469 6.03 13.469 13.469v33c0 7.438-6.03 13.469-13.469 13.469z" fill="url(#SVGID_00000026859058812825095110000012455405244377500330_)"/><path d="m190.883 137.939h-33c-7.439 0-13.469-6.03-13.469-13.469v-33c0-7.439 6.03-13.469 13.469-13.469h33c7.439 0 13.469 6.03 13.469 13.469v33c0 7.438-6.03 13.469-13.469 13.469z" fill="url(#SVGID_00000183933596606526414580000014842012519682305932_)"/><path d="m144.413 124.469v-33c0-7.439 6.03-13.469 13.469-13.469h33c7.439 0 13.469 6.03 13.469 13.469v33c0 7.439-6.03 13.469-13.469 13.469h-33c-7.438.001-13.469-6.03-13.469-13.469z" fill="url(#SVGID_00000041262029216093504500000015383663762370659458_)"/></g><g><path d="m271.5 137.939h-33c-7.439 0-13.469-6.03-13.469-13.469v-33c0-7.439 6.03-13.469 13.469-13.469h33c7.439 0 13.469 6.03 13.469 13.469v33c0 7.438-6.03 13.469-13.469 13.469z" fill="url(#SVGID_00000054960420239332097290000007095478209257007272_)"/><path d="m271.5 137.939h-33c-7.439 0-13.469-6.03-13.469-13.469v-33c0-7.439 6.03-13.469 13.469-13.469h33c7.439 0 13.469 6.03 13.469 13.469v33c0 7.438-6.03 13.469-13.469 13.469z" fill="url(#SVGID_00000006686843455757075670000016631068948151408280_)"/><path d="m225.031 124.469v-33c0-7.439 6.03-13.469 13.469-13.469h33c7.439 0 13.469 6.03 13.469 13.469v33c0 7.439-6.03 13.469-13.469 13.469h-33c-7.439.001-13.469-6.03-13.469-13.469z" fill="url(#SVGID_00000110465230907123036300000018340970701531567765_)"/></g><g><path d="m352.117 137.939h-33c-7.439 0-13.469-6.03-13.469-13.469v-33c0-7.439 6.03-13.469 13.469-13.469h33c7.439 0 13.469 6.03 13.469 13.469v33c.001 7.438-6.03 13.469-13.469 13.469z" fill="url(#SVGID_00000088105785956734959250000008336785284428898216_)"/><path d="m352.117 137.939h-33c-7.439 0-13.469-6.03-13.469-13.469v-33c0-7.439 6.03-13.469 13.469-13.469h33c7.439 0 13.469 6.03 13.469 13.469v33c.001 7.438-6.03 13.469-13.469 13.469z" fill="url(#SVGID_00000071539890508422854610000015979146884818627512_)"/><path d="m305.648 124.469v-33c0-7.439 6.03-13.469 13.469-13.469h33c7.439 0 13.469 6.03 13.469 13.469v33c0 7.439-6.03 13.469-13.469 13.469h-33c-7.439.001-13.469-6.03-13.469-13.469z" fill="url(#SVGID_00000124870195133136592770000003314354337741175210_)"/></g></g><g><path d="m306.511 510h-103.022v-91.061c0-7.439 6.03-13.469 13.469-13.469h76.083c7.439 0 13.469 6.03 13.469 13.469v91.061z" fill="url(#SVGID_00000170249235557450063210000001846929229053988763_)"/><path d="m306.511 510h-103.022v-91.061c0-7.439 6.03-13.469 13.469-13.469h76.083c7.439 0 13.469 6.03 13.469 13.469v91.061z" fill="url(#SVGID_00000129905114626910305160000009597482839891955608_)"/><path d="m203.489 510v-91.061c0-7.439 6.03-13.469 13.469-13.469h76.083c7.439 0 13.469 6.03 13.469 13.469v91.061z" fill="url(#SVGID_00000069374552189586659320000002199468983902469271_)"/><path d="m293.042 405.47h-38.042v104.53h51.511v-91.061c0-7.439-6.03-13.469-13.469-13.469z" fill="url(#SVGID_00000075860366923564685930000007419281117532302522_)"/></g><path d="m438.478 497.256c-.02-15.989-12.987-28.956-28.982-28.956-14.088 0-25.823 10.056-28.438 23.377-2.052-.813-4.287-1.272-6.628-1.272-9.899 0-17.93 8.031-17.93 17.93v.011c.001.922.771 1.654 1.688 1.654h89.621c1.113 0 1.915-1.057 1.634-2.134-1.374-5.279-5.616-9.405-10.965-10.61z" fill="url(#SVGID_00000095319927233735874510000014726774495420424093_)"/></g></svg>