<svg id="Capa_1" enable-background="new 0 0 510 510" height="512" viewBox="0 0 510 510" width="512" xmlns="http://www.w3.org/2000/svg" xmlns:xlink="http://www.w3.org/1999/xlink"><linearGradient id="lg1"><stop offset="0" stop-color="#99e6fc"/><stop offset="1" stop-color="#01c0fa"/></linearGradient><linearGradient id="SVGID_1_" gradientUnits="userSpaceOnUse" x1="245.325" x2="263.332" xlink:href="#lg1" y1="61.139" y2="61.139"/><linearGradient id="SVGID_00000039818112941020873840000003823994353431110019_" gradientTransform="matrix(.906 -.423 .423 .906 -109.742 303.026)" gradientUnits="userSpaceOnUse" x1="375.795" x2="393.802" xlink:href="#lg1" y1="-75.569" y2="-75.569"/><linearGradient id="SVGID_00000085243249419160261240000014482878559785753733_" gradientTransform="matrix(.906 .423 -.423 .906 227.525 -228.256)" gradientUnits="userSpaceOnUse" x1="184.854" x2="202.861" xlink:href="#lg1" y1="240.177" y2="240.177"/><linearGradient id="lg2"><stop offset="0" stop-color="#fffdf1"/><stop offset="1" stop-color="#fff5c6"/></linearGradient><linearGradient id="SVGID_00000091697914970734845100000003118292909414363808_" gradientUnits="userSpaceOnUse" x1="90.017" x2="266.063" xlink:href="#lg2" y1="82.978" y2="259.024"/><linearGradient id="lg3"><stop offset="0" stop-color="#fea613" stop-opacity="0"/><stop offset=".1832" stop-color="#fc9b19" stop-opacity=".183"/><stop offset=".5086" stop-color="#f57d28" stop-opacity=".509"/><stop offset=".9356" stop-color="#eb4c40" stop-opacity=".936"/><stop offset="1" stop-color="#e94444"/></linearGradient><linearGradient id="SVGID_00000031184954300444673770000017540962208433152655_" gradientUnits="userSpaceOnUse" x1="473.606" x2="542.619" xlink:href="#lg3" y1="247.961" y2="247.961"/><linearGradient id="SVGID_00000039124877927910879900000004285971566875460286_" gradientUnits="userSpaceOnUse" x1="255" x2="255" xlink:href="#lg3" y1="291.76" y2="378.289"/><linearGradient id="SVGID_00000087386399725585555940000008403470465137962386_" gradientUnits="userSpaceOnUse" x1="247.778" x2="155.111" xlink:href="#lg3" y1="181.165" y2="57.165"/><linearGradient id="SVGID_00000160873280666018423710000004040444433377583236_" gradientUnits="userSpaceOnUse" x1="368.48" x2="264.48" xlink:href="#lg3" y1="227.988" y2="61.988"/><linearGradient id="SVGID_00000095327334528464901830000013770099537048949160_" gradientUnits="userSpaceOnUse" x1="491.043" x2="406.376" xlink:href="#lg3" y1="267.628" y2="159.628"/><linearGradient id="lg4"><stop offset="0" stop-color="#fef48b"/><stop offset=".1462" stop-color="#fdf07e"/><stop offset=".4164" stop-color="#fce55c"/><stop offset=".778" stop-color="#fbd325"/><stop offset="1" stop-color="#fac600"/></linearGradient><linearGradient id="SVGID_00000049206272286043026340000012181760703580299137_" gradientUnits="userSpaceOnUse" x1="42.842" x2="113.099" xlink:href="#lg4" y1="147.629" y2="217.886"/><linearGradient id="lg5"><stop offset="0" stop-color="#fac600" stop-opacity="0"/><stop offset=".408" stop-color="#efbd01" stop-opacity=".408"/><stop offset="1" stop-color="#d7aa02"/></linearGradient><linearGradient id="SVGID_00000083788597793113704210000001075612980502363069_" gradientUnits="userSpaceOnUse" x1="83.465" x2="96.349" xlink:href="#lg5" y1="144.156" y2="167.743"/><linearGradient id="SVGID_00000056415534927560585850000012602256980402861496_" gradientUnits="userSpaceOnUse" x1="80.713" x2="105.39" xlink:href="#lg5" y1="213.346" y2="106.61"/><linearGradient id="SVGID_00000076590282806825720130000014975359043102276768_" gradientUnits="userSpaceOnUse" x1="78.855" x2="78.855" xlink:href="#lg5" y1="215.275" y2="243.027"/><linearGradient id="SVGID_00000117645254813316106880000001504411679003910290_" gradientUnits="userSpaceOnUse" x1="117.235" x2="6.238" xlink:href="#lg5" y1="165.087" y2="213.45"/><linearGradient id="SVGID_00000121265664609577212060000000313294440254039180_" gradientUnits="userSpaceOnUse" x1="218.987" x2="289.244" xlink:href="#lg4" y1="147.629" y2="217.886"/><linearGradient id="SVGID_00000170980791623226660230000006121437613348235141_" gradientUnits="userSpaceOnUse" x1="259.611" x2="272.494" xlink:href="#lg5" y1="144.156" y2="167.743"/><linearGradient id="SVGID_00000044155661739044762330000013057746157775768730_" gradientUnits="userSpaceOnUse" x1="256.858" x2="281.536" xlink:href="#lg5" y1="213.346" y2="106.61"/><linearGradient id="SVGID_00000134236189804338741790000010756884161383945619_" gradientUnits="userSpaceOnUse" x1="255" x2="255" xlink:href="#lg5" y1="215.275" y2="243.027"/><linearGradient id="SVGID_00000084500949118053701720000005527107707002458038_" gradientUnits="userSpaceOnUse" x1="293.38" x2="182.383" xlink:href="#lg5" y1="165.087" y2="213.45"/><linearGradient id="SVGID_00000040554341163437517550000000489176521767625636_" gradientUnits="userSpaceOnUse" x1="395.133" x2="465.389" xlink:href="#lg4" y1="147.629" y2="217.886"/><linearGradient id="SVGID_00000011741693440129013970000002240165374217390525_" gradientUnits="userSpaceOnUse" x1="435.756" x2="448.639" xlink:href="#lg5" y1="144.156" y2="167.743"/><linearGradient id="SVGID_00000155146100474440019270000014254027268763681694_" gradientUnits="userSpaceOnUse" x1="433.003" x2="457.681" xlink:href="#lg5" y1="213.346" y2="106.61"/><linearGradient id="SVGID_00000059991042252402232030000005468806606123476653_" gradientUnits="userSpaceOnUse" x1="431.145" x2="431.145" xlink:href="#lg5" y1="215.275" y2="243.027"/><linearGradient id="SVGID_00000080198773455300226680000001522794777041683079_" gradientUnits="userSpaceOnUse" x1="469.525" x2="358.528" xlink:href="#lg5" y1="165.087" y2="213.45"/><linearGradient id="SVGID_00000170262716452773273070000016642350536405369521_" gradientUnits="userSpaceOnUse" x1="183" x2="332.933" y1="299.446" y2="449.379"><stop offset="0" stop-color="#bbec6c"/><stop offset="1" stop-color="#78a91f"/></linearGradient><linearGradient id="lg6"><stop offset="0" stop-color="#78a91f" stop-opacity="0"/><stop offset=".1473" stop-color="#70a421" stop-opacity=".147"/><stop offset=".3741" stop-color="#5b9927" stop-opacity=".374"/><stop offset=".6521" stop-color="#378531" stop-opacity=".652"/><stop offset=".9682" stop-color="#076b3f" stop-opacity=".968"/><stop offset="1" stop-color="#026841"/></linearGradient><linearGradient id="SVGID_00000022553371564288233210000014860615308186049946_" gradientUnits="userSpaceOnUse" x1="327.944" x2="276.541" xlink:href="#lg6" y1="423.835" y2="372.433"/><linearGradient id="SVGID_00000175317188266340104910000010003817463980374694_" gradientTransform="matrix(.707 .707 -.707 .707 -715.466 678.289)" gradientUnits="userSpaceOnUse" x1="428.164" x2="510.342" xlink:href="#lg2" y1="-944.283" y2="-862.105"/><linearGradient id="SVGID_00000068677309917862694240000013509676963360878232_" gradientUnits="userSpaceOnUse" x1="255" x2="255" xlink:href="#lg6" y1="391.446" y2="468.452"/><g><g><g><g><path d="m261.607 46.162v29.953c0 3.649-2.958 6.607-6.607 6.607s-6.607-2.958-6.607-6.607v-29.953c0-3.649 2.958-6.607 6.607-6.607 3.649-.001 6.607 2.958 6.607 6.607z" fill="url(#SVGID_1_)"/></g><g><path d="m207.334 55.264 12.659 27.147c1.542 3.307.112 7.238-3.196 8.781-3.307 1.542-7.239.111-8.781-3.196l-12.659-27.147c-1.542-3.307-.111-7.239 3.196-8.781 3.308-1.542 7.239-.111 8.781 3.196z" fill="url(#SVGID_00000039818112941020873840000003823994353431110019_)"/></g><g><path d="m314.642 60.849-12.659 27.147c-1.542 3.307-5.473 4.738-8.781 3.196-3.307-1.542-4.738-5.473-3.196-8.781l12.659-27.147c1.542-3.307 5.474-4.738 8.781-3.196 3.308 1.543 4.738 5.474 3.196 8.781z" fill="url(#SVGID_00000085243249419160261240000014482878559785753733_)"/></g></g><g><path d="m480.996 338.353h-451.992c-16.018 0-29.004-12.985-29.004-29.004v-122.776c0-16.019 12.986-29.004 29.004-29.004h451.992c16.019 0 29.004 12.986 29.004 29.004v122.776c0 16.019-12.986 29.004-29.004 29.004z" fill="url(#SVGID_00000091697914970734845100000003118292909414363808_)"/><path d="m480.996 157.569h-229.329v180.785h229.329c16.019 0 29.004-12.986 29.004-29.004v-122.777c0-16.018-12.986-29.004-29.004-29.004z" fill="url(#SVGID_00000031184954300444673770000017540962208433152655_)"/><path d="m0 222.282v87.067c0 16.019 12.986 29.004 29.004 29.004h451.991c16.019 0 29.004-12.986 29.004-29.004v-87.067z" fill="url(#SVGID_00000039124877927910879900000004285971566875460286_)"/><path d="m480.996 157.569h-451.329v86.856l93.928 93.928h357.401c16.019 0 29.004-12.986 29.004-29.004v-122.776c0-16.019-12.986-29.004-29.004-29.004z" fill="url(#SVGID_00000087386399725585555940000008403470465137962386_)"/><path d="m510 309.349v-122.776c0-16.019-12.986-29.004-29.004-29.004h-274.913v86.856l93.928 93.928h180.984c16.019 0 29.005-12.985 29.005-29.004z" fill="url(#SVGID_00000160873280666018423710000004040444433377583236_)"/><path d="m510 309.349v-122.776c0-16.018-12.984-29.003-29.002-29.004h-98.498v86.856l93.928 93.928h4.568c16.018 0 29.004-12.985 29.004-29.004z" fill="url(#SVGID_00000095327334528464901830000013770099537048949160_)"/></g><g><g><path d="m73.722 234.706-30.094 12.331c-9.313 3.816-19.386-3.503-18.635-13.539l2.427-32.432c.265-3.545-.874-7.052-3.173-9.764l-21.027-24.811c-6.507-7.678-2.659-19.52 7.118-21.907l31.595-7.713c3.454-.843 6.437-3.011 8.306-6.035l17.099-27.665c5.292-8.561 17.743-8.561 23.034 0l17.099 27.665c1.869 3.024 4.852 5.192 8.306 6.035l31.595 7.713c9.777 2.387 13.625 14.229 7.118 21.907l-21.027 24.811c-2.298 2.712-3.438 6.219-3.173 9.764l2.427 32.432c.751 10.036-9.322 17.355-18.635 13.539l-30.094-12.331c-3.289-1.347-6.977-1.347-10.266 0z" fill="url(#SVGID_00000049206272286043026340000012181760703580299137_)"/><path d="m111.562 136.245-22.893 25.539c-5.881 6.565-13.742 6.565-19.629 0l-22.887-25.539c.06-.428.107-.862.137-1.302 1.582-1.064 2.932-2.456 3.948-4.109l17.102-27.662c1.653-2.676 4.008-4.519 6.63-5.524 3.134-1.195 6.642-1.195 9.776 0 2.622 1.005 4.977 2.848 6.63 5.524l17.096 27.662c1.017 1.653 2.373 3.051 3.954 4.109.029.44.076.874.136 1.302z" fill="url(#SVGID_00000083788597793113704210000001075612980502363069_)"/><path d="m43.627 247.037 30.094-12.331c3.29-1.348 6.977-1.348 10.267 0l30.094 12.331c9.313 3.816 19.386-3.503 18.635-13.539l-2.427-32.432c-.098-1.316-.002-2.626.274-3.892l-36.19-25.54c-9.305-6.566-21.735-6.566-31.039 0l-36.19 25.54c.276 1.267.373 2.577.274 3.892l-2.427 32.432c-.751 10.036 9.322 17.355 18.635 13.539z" fill="url(#SVGID_00000056415534927560585850000012602256980402861496_)"/><path d="m132.718 233.498-2.427-32.432c-.098-1.316-.002-2.626.274-3.892l-36.19-25.54c-9.305-6.566-21.735-6.566-31.039 0l-36.19 25.54c.276 1.267.373 2.577.274 3.892l-2.427 32.432c-.751 10.036 9.322 17.355 18.635 13.539l30.094-12.331c3.29-1.348 6.977-1.348 10.267 0l30.094 12.331c9.313 3.816 19.386-3.503 18.635-13.539z" fill="url(#SVGID_00000076590282806825720130000014975359043102276768_)"/><path d="m83.988 234.706 30.094 12.331c9.313 3.816 19.386-3.503 18.635-13.539l-2.427-32.432c-.265-3.545.874-7.052 3.173-9.764l21.027-24.811c6.507-7.678 2.659-19.52-7.118-21.907l-31.595-7.713c-3.454-.843-6.437-3.011-8.306-6.035l-17.099-27.665c-2.646-4.281-7.081-6.421-11.517-6.421v136.945c1.744.001 3.488.337 5.133 1.011z" fill="url(#SVGID_00000117645254813316106880000001504411679003910290_)"/></g><g><path d="m249.867 234.706-30.094 12.331c-9.313 3.816-19.386-3.503-18.635-13.539l2.427-32.432c.265-3.545-.874-7.052-3.173-9.764l-21.027-24.811c-6.507-7.678-2.659-19.52 7.118-21.907l31.595-7.713c3.454-.843 6.437-3.011 8.306-6.035l17.099-27.665c5.292-8.561 17.743-8.561 23.034 0l17.099 27.665c1.869 3.024 4.852 5.192 8.306 6.035l31.595 7.713c9.777 2.387 13.625 14.229 7.118 21.907l-21.027 24.811c-2.298 2.712-3.438 6.219-3.173 9.764l2.427 32.432c.751 10.036-9.322 17.355-18.635 13.539l-30.094-12.331c-3.289-1.347-6.977-1.347-10.266 0z" fill="url(#SVGID_00000121265664609577212060000000313294440254039180_)"/><path d="m287.707 136.245-22.893 25.539c-5.881 6.565-13.742 6.565-19.629 0l-22.887-25.539c.06-.428.107-.862.137-1.302 1.582-1.064 2.932-2.456 3.948-4.109l17.102-27.662c1.653-2.676 4.008-4.519 6.63-5.524 3.134-1.195 6.642-1.195 9.776 0 2.622 1.005 4.977 2.848 6.63 5.524l17.096 27.662c1.017 1.653 2.373 3.051 3.954 4.109.029.44.076.874.136 1.302z" fill="url(#SVGID_00000170980791623226660230000006121437613348235141_)"/><path d="m219.772 247.037 30.094-12.331c3.29-1.348 6.977-1.348 10.267 0l30.094 12.331c9.313 3.816 19.386-3.503 18.635-13.539l-2.427-32.432c-.099-1.316-.002-2.626.274-3.892l-36.19-25.54c-9.305-6.566-21.735-6.566-31.039 0l-36.19 25.54c.276 1.267.373 2.577.274 3.892l-2.427 32.432c-.751 10.036 9.322 17.355 18.635 13.539z" fill="url(#SVGID_00000044155661739044762330000013057746157775768730_)"/><path d="m308.863 233.498-2.427-32.432c-.099-1.316-.002-2.626.274-3.892l-36.19-25.54c-9.305-6.566-21.735-6.566-31.039 0l-36.19 25.54c.276 1.267.373 2.577.274 3.892l-2.427 32.432c-.751 10.036 9.322 17.355 18.635 13.539l30.094-12.331c3.29-1.348 6.977-1.348 10.267 0l30.094 12.331c9.313 3.816 19.386-3.503 18.635-13.539z" fill="url(#SVGID_00000134236189804338741790000010756884161383945619_)"/><path d="m260.133 234.706 30.094 12.331c9.313 3.816 19.386-3.503 18.635-13.539l-2.427-32.432c-.265-3.545.874-7.052 3.173-9.764l21.027-24.811c6.507-7.678 2.659-19.52-7.118-21.907l-31.595-7.713c-3.454-.843-6.437-3.011-8.306-6.035l-17.099-27.665c-2.646-4.281-7.081-6.421-11.517-6.421v136.945c1.744.001 3.489.337 5.133 1.011z" fill="url(#SVGID_00000084500949118053701720000005527107707002458038_)"/></g><g><path d="m426.012 234.706-30.094 12.331c-9.313 3.816-19.386-3.503-18.635-13.539l2.427-32.432c.265-3.545-.874-7.052-3.173-9.764l-21.027-24.811c-6.507-7.678-2.659-19.52 7.118-21.907l31.595-7.713c3.454-.843 6.437-3.011 8.306-6.035l17.099-27.665c5.292-8.561 17.743-8.561 23.034 0l17.099 27.665c1.869 3.024 4.852 5.192 8.306 6.035l31.595 7.713c9.777 2.387 13.625 14.229 7.118 21.907l-21.027 24.811c-2.298 2.712-3.438 6.219-3.173 9.764l2.427 32.432c.751 10.036-9.322 17.355-18.635 13.539l-30.094-12.331c-3.289-1.347-6.977-1.347-10.266 0z" fill="url(#SVGID_00000040554341163437517550000000489176521767625636_)"/><path d="m463.852 136.245-22.893 25.539c-5.881 6.565-13.742 6.565-19.629 0l-22.887-25.539c.06-.428.107-.862.137-1.302 1.582-1.064 2.932-2.456 3.948-4.109l17.102-27.662c1.653-2.676 4.008-4.519 6.63-5.524 3.134-1.195 6.642-1.195 9.776 0 2.622 1.005 4.977 2.848 6.63 5.524l17.096 27.662c1.017 1.653 2.373 3.051 3.954 4.109.029.44.076.874.136 1.302z" fill="url(#SVGID_00000011741693440129013970000002240165374217390525_)"/><path d="m395.917 247.037 30.094-12.331c3.29-1.348 6.977-1.348 10.267 0l30.094 12.331c9.313 3.816 19.386-3.503 18.635-13.539l-2.427-32.432c-.099-1.316-.002-2.626.274-3.892l-36.19-25.54c-9.305-6.566-21.735-6.566-31.039 0l-36.19 25.54c.276 1.267.373 2.577.274 3.892l-2.427 32.432c-.751 10.036 9.322 17.355 18.635 13.539z" fill="url(#SVGID_00000155146100474440019270000014254027268763681694_)"/><path d="m485.008 233.498-2.427-32.432c-.099-1.316-.002-2.626.274-3.892l-36.19-25.54c-9.305-6.566-21.735-6.566-31.039 0l-36.19 25.54c.276 1.267.373 2.577.274 3.892l-2.427 32.432c-.751 10.036 9.322 17.355 18.635 13.539l30.094-12.331c3.29-1.348 6.977-1.348 10.267 0l30.094 12.331c9.313 3.816 19.386-3.503 18.635-13.539z" fill="url(#SVGID_00000059991042252402232030000005468806606123476653_)"/><path d="m436.278 234.706 30.094 12.331c9.313 3.816 19.386-3.503 18.635-13.539l-2.427-32.432c-.265-3.545.874-7.052 3.173-9.764l21.027-24.811c6.507-7.678 2.659-19.52-7.118-21.907l-31.595-7.713c-3.454-.843-6.437-3.011-8.306-6.035l-17.099-27.665c-2.646-4.281-7.081-6.421-11.517-6.421v136.945c1.744.001 3.489.337 5.133 1.011z" fill="url(#SVGID_00000080198773455300226680000001522794777041683079_)"/></g></g></g><g><circle cx="255" cy="371.446" fill="url(#SVGID_00000170262716452773273070000016642350536405369521_)" r="99"/><path d="m221.107 425.893 44.023 44.023c21.862-2.236 43.123-11.716 59.874-28.467 29.21-29.21 36.335-72.128 21.406-108.042l-16.409-16.409z" fill="url(#SVGID_00000022553371564288233210000014860615308186049946_)"/><path d="m229.946 429.554c-3.199 0-6.398-1.22-8.839-3.661l-41.108-41.108c-4.881-4.881-4.881-12.796 0-17.678 4.882-4.882 12.796-4.882 17.678 0l32.27 32.27 82.378-82.378c4.882-4.882 12.796-4.882 17.678 0 4.881 4.881 4.881 12.796 0 17.678l-91.217 91.217c-2.442 2.44-5.641 3.66-8.84 3.66z" fill="url(#SVGID_00000175317188266340104910000010003817463980374694_)"/><path d="m184.996 441.449c38.662 38.662 101.345 38.662 140.007 0 25.746-25.746 34.323-62.14 25.779-95.004h-191.564c-8.545 32.864.032 69.258 25.778 95.004z" fill="url(#SVGID_00000068677309917862694240000013509676963360878232_)"/></g></g></svg>