<?xml version="1.0" encoding="iso-8859-1"?>
<!-- Uploaded to: SVG Repo, www.svgrepo.com, Generator: SVG Repo Mixer Tools -->
<svg version="1.1" id="Layer_1" xmlns="http://www.w3.org/2000/svg" xmlns:xlink="http://www.w3.org/1999/xlink" 
	 viewBox="0 0 496.2 496.2" xml:space="preserve">
<path style="fill:#334D5C;" d="M248.1,0C111.1,0,0,111.1,0,248.1s111.1,248.1,248.1,248.1s248.1-111.1,248.1-248.1S385.1,0,248.1,0z
	"/>
<polygon style="fill:#D1D1D1;" points="247.9,317 208.3,322.3 210.2,335.4 247.8,363.5 286,335.4 287.9,322.3 "/>
<g>
	<path style="fill:#9B1818;" d="M418.5,382.8c-8.5-27.3-81.2-49.3-170.8-49.3s-161.5,22-170,49.3c-2.6,8.5-5.5,22.2-8.3,37.4
		c45.1,46.9,108.5,76,178.7,76s133.6-29.2,178.7-76C424.1,405,421.2,391.2,418.5,382.8z"/>
	<path style="fill:#9B1818;" d="M394.8,382.8c-7.3-27.3-69.9-49.3-147.1-49.3s-139.1,22.1-146.4,49.3c-3.3,12.2-7,35.2-10.1,57.5
		c42.7,34.9,97.4,55.9,156.9,55.9s114.1-21,156.9-55.9C401.8,417.9,398.1,394.9,394.8,382.8z"/>
</g>
<path style="fill:#E6E7E8;" d="M304.2,336.5l-16.4-14.2l-39.7,19.2l-39.8-19.2l-16.2,14.1l-1.6,1.4c0,0,23.9,71.4,45.1,111.5
	c4.2,0.2,20.9,0.2,25.1,0c21.3-40.2,45.1-111.5,45.1-111.5L304.2,336.5z"/>
<path style="fill:#751414;" d="M185.4,338.5c-54,6.1-5.8,95.2,50.5,120.5L185.4,338.5z"/>
<path style="fill:#9B1818;" d="M247.7,443.1c-34.5-45.4-57.3-105.3-57.3-105.3c-52.9,5.9-7.7,91.6,47.1,118.9
	C247,461.4,253.6,450.9,247.7,443.1z"/>
<path style="fill:#751414;" d="M310.4,338.9l-76.1,127C299.5,462.7,372.6,345.9,310.4,338.9z"/>
<path style="fill:#9B1818;" d="M305.8,337.8c0,0-31.4,82.3-76.1,127C294.8,461.6,367.9,344.8,305.8,337.8z"/>
<path style="fill:#751414;" d="M290.4,371.7c-5.5,11.1-11.4,22.1-17.7,32.7c-6.3,10.7-13,21.1-20.3,31.1c-7.3,10-15.2,19.5-24,28.1
	l-0.5,0.5v0.7l-0.3,30.5c1.3,0.1,2.6,0.2,4,0.3l-0.3-30.1c-0.2,0.2-0.3,0.3-0.5,0.5l0.5-1.2v0.6c8.6-8.8,16.2-18.5,23.2-28.5
	c7.1-10.2,13.6-20.9,19.7-31.7c6.1-10.9,11.7-21.9,17-33.2c5.2-11.3,10.2-22.6,14.6-34.2C301.1,349.3,295.9,360.6,290.4,371.7z"/>
<circle style="fill:#E5AA17;" cx="248.1" cy="480.6" r="7.5"/>
<path style="fill:#E2A379;" d="M287,282.1h-77.8c12.1,36.6,1,53.3,1,53.3l26.9,6.1h22l26.9-6.1C286,335.4,274.9,318.7,287,282.1z"/>
<g>
	<polygon style="fill:#9B1818;" points="210.6,327.7 210.6,361.9 241.7,351.1 241.7,338.4 	"/>
	<polygon style="fill:#9B1818;" points="254.5,338.4 254.5,351.1 285.6,361.9 285.6,327.7 	"/>
	<rect x="238.5" y="336.3" style="fill:#9B1818;" width="19.3" height="17.2"/>
</g>
<path style="fill:#F4B382;" d="M248.1,61.6c-48.7,0-88.3,21.2-88.3,113.6c0,31.3,6.2,55.8,15.5,74.7c20.4,41.6,55.7,56.1,72.8,56.1
	s52.4-14.5,72.8-56.1c9.3-18.9,15.5-43.4,15.5-74.7C336.4,82.8,296.8,61.6,248.1,61.6z"/>
<g>
	<path style="fill:#141414;" d="M248.1,59.1c-58,0-88.3,23.7-88.3,116.1l39.8-33.1c0,0,26.5,0,48.5,0s46.2-35.3,46.2-35.3l42.1,68.4
		C336.4,82.8,306.1,59.1,248.1,59.1z"/>
	<path style="fill:#141414;" d="M180.1,138.6l-14.6,2.2c-4.2,10.9-5.6,24.4-5.6,37.5c0,0,8.8-1.9,8.8,2.6l2.8,27.6l3.9-1.9
		C175,183.6,180.1,138.6,180.1,138.6z"/>
	<path style="fill:#141414;" d="M330.8,140.8l-14.6-0.4c0,0,5.1,43.2,4.9,66.2l3.9,1.9l2.8-27.6c0-4.5,8.8-2.6,8.8-2.6
		C336.5,165.1,335.1,151.7,330.8,140.8z"/>
</g>
<path style="fill:#9B1818;" d="M331.9,78.5c0-4.2-35.2-22.9-82.7-22.9c-48.1,0-84.5,18.6-84.5,22.9c0,8.5-4,76.2-4,76.2
	s29.9-20.5,87.4-20.5s87.8,20.5,87.8,20.5S331.9,87,331.9,78.5z"/>
<path style="fill:#E5AA17;" d="M333.6,115.1c-10.6-5.7-39.6-18.4-85.5-18.4s-74.6,12.7-85.1,18.4c-0.4,7.4-0.8,14.8-1.2,21.2
	c9.5-5.3,38.7-19,86.3-19c47.7,0,77.2,13.8,86.7,19C334.4,130,334,122.5,333.6,115.1z"/>
<path style="fill:#E5A173;" d="M259.5,254.8c-3.3-0.5-11.4,2.7-11.4,2.7s-8.3-3.1-11.6-2.7c-5.3,0.8-13.1,4.9-13.1,6.4
	c0,2.4,11,8.8,24.7,8.8s24.7-6.5,24.7-8.8C272.8,261.2,264.9,255.5,259.5,254.8z"/>
<path style="fill:#D89364;" d="M248.1,262.4c-14.6,0-24.7-1.2-24.7-1.2c0,2.4,11,11.5,24.7,11.5c13.7,0,24.7-9.1,24.7-11.5
	C272.8,261.2,262.7,262.4,248.1,262.4z"/>
<g>
	<path style="fill:#F4B382;" d="M161.4,178c-8.4,1.4-14.9,5.1-10.1,32.9s10.7,29.1,19.1,27.7L161.4,178z"/>
	<path style="fill:#F4B382;" d="M334.9,178l-9,60.6c8.4,1.4,14.3,0.1,19.1-27.7C349.7,183.1,343.3,179.5,334.9,178z"/>
</g>
</svg>