<svg id="OBJECT" xmlns="http://www.w3.org/2000/svg" viewBox="0 0 32 32"><path d="M26,13.61a7,7,0,0,0-4.15-6.36A5.85,5.85,0,0,0,22,6c0-3-2.36-5-6-5s-6,2-6,5a5.85,5.85,0,0,0,.15,1.25A7,7,0,0,0,6,13.61a7.63,7.63,0,0,0,1.76,4.87l.5.6v3.85c.38,4.81,4.47,7,6.21,7.77A4,4,0,0,0,16,31a3.88,3.88,0,0,0,1.53-.31c1.74-.73,5.83-3,6.21-7.84V19.08l.5-.6A7.63,7.63,0,0,0,26,13.61ZM12,6a2.59,2.59,0,0,1,1.2-2.32,3.05,3.05,0,0,0,2.68,2.49l.42-1.95c-1-.23-1.18-.67-1.17-1.17A7.24,7.24,0,0,1,16,3c1.2,0,4,.29,4,3a4.39,4.39,0,0,1-.07.72,6.4,6.4,0,0,0-.88-.06H18a4,4,0,0,0-2,.55,4,4,0,0,0-2-.55H13a6.4,6.4,0,0,0-.88.06A4.39,4.39,0,0,1,12,6ZM13,8.66H14a2,2,0,0,1,2,2V13H13.85a5.61,5.61,0,0,0-5.13,3.36A5.59,5.59,0,0,1,8,13.61,5,5,0,0,1,13,8.66Zm3.81,20.19a2,2,0,0,1-1.51,0c-1.75-.73-4.71-2.49-5-6V18.59h0A3.59,3.59,0,0,1,13.85,15h4.3a3.59,3.59,0,0,1,3.59,3.58v4.19C21.46,26.36,18.5,28.12,16.76,28.85Zm6.52-12.49A5.61,5.61,0,0,0,18.15,13H18V10.66a4,4,0,0,0-.51-1.92A1.75,1.75,0,0,1,18,8.66h1.05A5,5,0,0,1,24,13.61,5.59,5.59,0,0,1,23.28,16.36Z"/><path d="M17.52,24.32a2.08,2.08,0,0,1-3,0l-.68-.73L12.34,25l.68.73a4,4,0,0,0,6,0l.68-.73L18.2,23.59Z"/></svg>