<svg id="OBJECT" xmlns="http://www.w3.org/2000/svg" viewBox="0 0 32 32"><path d="M31,7.29a6.7,6.7,0,0,0-13.38.27,3.62,3.62,0,0,1-.9,2.23,2.65,2.65,0,0,0-2.79,4.37l.07.08L1.78,26.46a2.66,2.66,0,1,0,3.76,3.76L17.76,18l.07.08h0a2.69,2.69,0,0,0,1.89.78,2.65,2.65,0,0,0,2.48-3.59,4.07,4.07,0,0,1,2.42-.9A6.69,6.69,0,0,0,31,7.29ZM4.13,28.81a.68.68,0,0,1-.94,0,.66.66,0,0,1,0-.94L15.41,15.65l.93.94ZM20.18,16.67a.67.67,0,0,1-.93,0h0l-3.92-3.92a.68.68,0,0,1,0-.94.68.68,0,0,1,.94,0l3.91,3.92A.66.66,0,0,1,20.18,16.67ZM27.62,11a4.62,4.62,0,0,1-3,1.36,3.68,3.68,0,0,1,1.32-1.87L24.69,8.92A5.46,5.46,0,0,0,22.5,12.8a5.38,5.38,0,0,0-1.52.89L18.29,11a6.14,6.14,0,0,0,.91-1.5,5.52,5.52,0,0,0,3.88-2.19L21.51,6.07a3.74,3.74,0,0,1-1.88,1.32,4.64,4.64,0,0,1,1.93-3.52A4.74,4.74,0,0,1,27.2,4a4.7,4.7,0,0,1,.42,7Z"/></svg>