<svg id="OBJECT" xmlns="http://www.w3.org/2000/svg" viewBox="0 0 32 32"><path d="M3.18,23.43C2.52,24.38,1,26.72,1,28a3,3,0,0,0,6,0c0-1.28-1.52-3.62-2.18-4.57A1,1,0,0,0,3.18,23.43ZM4,29a1,1,0,0,1-1-1,7.48,7.48,0,0,1,1-2.15A7.48,7.48,0,0,1,5,28,1,1,0,0,1,4,29Z"/><path d="M30.34,3.44A4.9,4.9,0,0,0,23,2.11L18.65,5.7a3.16,3.16,0,0,0-.94-.46,2.86,2.86,0,0,0-2.16.29L14,6.45a1,1,0,0,0-.36,1.36l.65,1.12-11.6,6.7a3.3,3.3,0,0,0,.79,6,3.62,3.62,0,0,0,.86.11,3.28,3.28,0,0,0,1.64-.44l11.6-6.7.65,1.12a1,1,0,0,0,.6.47l.26,0a1,1,0,0,0,.5-.13l1.59-.92a2.78,2.78,0,0,0,1.32-1.72,2.67,2.67,0,0,0,.08-1.05l5.29-2a4.9,4.9,0,0,0,2.51-7ZM4.94,19.6a1.28,1.28,0,0,1-1.89-1.45,1.23,1.23,0,0,1,.6-.79l11.6-6.69,1.29,2.24ZM20.53,13a.83.83,0,0,1-.39.51l-.72.41L15.83,7.68l.72-.42a.85.85,0,0,1,.64-.08.82.82,0,0,1,.51.39l2.75,4.77A.81.81,0,0,1,20.53,13Zm8.3-6.11a2.9,2.9,0,0,1-1.71,1.73l-5.36,2L19.85,7.3l4.43-3.64a2.85,2.85,0,0,1,2.35-.61,2.88,2.88,0,0,1,2.2,3.81Z"/></svg>