<svg id="OBJECT" xmlns="http://www.w3.org/2000/svg" viewBox="0 0 32 32"><path d="M24.6,3.2A3,3,0,0,0,21.71,1H10.29A3,3,0,0,0,7.4,3.2,40.31,40.31,0,0,0,6,14c0,6.52,1.37,12.54,3.76,16.52a1,1,0,0,0,.86.48H21.38a1,1,0,0,0,.86-.48c2.39-4,3.76-10,3.76-16.52A40.31,40.31,0,0,0,24.6,3.2ZM8.12,17H23.88A38.12,38.12,0,0,1,23,23H9A38.12,38.12,0,0,1,8.12,17ZM8,15c0-.33,0-.66,0-1,0-1,0-2,.11-3H23.89C24,12,24,13,24,14c0,.34,0,.67,0,1ZM14.5,3h3v.5a1.5,1.5,0,0,1-3,0ZM10.29,3H12.5v.5a3.5,3.5,0,0,0,7,0V3h2.21a1,1,0,0,1,1,.74A36,36,0,0,1,23.7,9H8.3a36,36,0,0,1,1-5.26A1,1,0,0,1,10.29,3ZM20.81,29H11.19a22.07,22.07,0,0,1-1.63-4H22.44A22.07,22.07,0,0,1,20.81,29Z"/><rect x="11" y="19" width="10" height="2"/></svg>