<svg id="OBJECT" xmlns="http://www.w3.org/2000/svg" viewBox="0 0 32 32"><path d="M30.92,9.25a15.47,15.47,0,0,0-8.17-8.17,1,1,0,0,0-1.25.4L17.55,8.05l-.24-.24a1,1,0,0,0-1.41,0L13.61,10.1a1,1,0,0,0-.3.71,1,1,0,0,0,.3.71l1.58,1.58L1.77,26.53A2.62,2.62,0,0,0,3.62,31a2.57,2.57,0,0,0,1.85-.77L18.9,16.81l1.58,1.58a1,1,0,0,0,1.42,0l2.29-2.29a1,1,0,0,0,0-1.41L24,14.45l6.57-3.95A1,1,0,0,0,30.92,9.25ZM4.06,28.82a.65.65,0,0,1-.88,0,.63.63,0,0,1,0-.88L16.61,14.52l.87.87ZM21.19,16.27l-5.46-5.46.88-.88,5.46,5.46ZM22.49,13,19,9.51l3.74-6.22a9.55,9.55,0,0,1,1,.58L22.25,6.33l1.69,1.06,1.47-2.34A12.45,12.45,0,0,1,27,6.59L24.61,8.06l1.06,1.69,2.46-1.54a10.44,10.44,0,0,1,.58,1Z"/></svg>