<svg id="OBJECT" xmlns="http://www.w3.org/2000/svg" viewBox="0 0 32 32"><path d="M30,23h-.75A15,15,0,1,0,1,16a14.91,14.91,0,0,0,1.75,7H2a1,1,0,0,0-1,1v4a3,3,0,0,0,3,3H28a3,3,0,0,0,3-3V24A1,1,0,0,0,30,23ZM3,16a13,13,0,1,1,23.94,7H25.11A11.5,11.5,0,1,0,4.5,16a11.42,11.42,0,0,0,2.39,7H5.06A13,13,0,0,1,3,16Zm6.61,7a9.5,9.5,0,1,1,12.78,0ZM29,28a1,1,0,0,1-1,1H4a1,1,0,0,1-1-1V25H29Z"/><rect x="13" y="26" width="6" height="2"/><rect x="12.57" y="15.75" width="8.36" height="2" transform="translate(-6.94 16.75) rotate(-45)"/><rect x="11.69" y="12.75" width="4.12" height="2" transform="translate(-5.7 13.75) rotate(-45)"/></svg>