<svg id="OBJECT" xmlns="http://www.w3.org/2000/svg" viewBox="0 0 32 32"><path d="M23,1a8,8,0,0,0-8,8c0,.22,0,.43,0,.64A40.37,40.37,0,0,1,9.64,15c-.21,0-.42,0-.64,0a8,8,0,1,0,8,8c0-.22,0-.43,0-.64A40.37,40.37,0,0,1,22.36,17c.21,0,.42,0,.64,0A8,8,0,0,0,23,1ZM9,29a6,6,0,1,1,6-6A6,6,0,0,1,9,29Zm7.39-9a8,8,0,0,0-4.34-4.34,46,46,0,0,0,3.56-3.56A8,8,0,0,0,20,16.39,46,46,0,0,0,16.39,20ZM23,15a6,6,0,1,1,6-6A6,6,0,0,1,23,15Z"/><path d="M23,4.5A4.5,4.5,0,1,0,27.5,9,4.51,4.51,0,0,0,23,4.5Zm0,7A2.5,2.5,0,1,1,25.5,9,2.5,2.5,0,0,1,23,11.5Z"/><path d="M9,18.5A4.5,4.5,0,1,0,13.5,23,4.51,4.51,0,0,0,9,18.5Zm0,7A2.5,2.5,0,1,1,11.5,23,2.5,2.5,0,0,1,9,25.5Z"/></svg>