<?xml version="1.0" encoding="iso-8859-1"?>
<!-- Uploaded to: SVG Repo, www.svgrepo.com, Generator: SVG Repo Mixer Tools -->
<svg fill="#000000" version="1.1" id="Layer_1" xmlns="http://www.w3.org/2000/svg" xmlns:xlink="http://www.w3.org/1999/xlink" 
	 viewBox="0 0 512 512" xml:space="preserve">
<g>
	<g>
		<path d="M454.776,228.894h-22.889c-27.235,0-49.393-22.158-49.393-49.393c0,0,0-32.917,0-34.936C382.494,64.852,325.749,0,256,0
			S129.506,64.852,129.506,144.565c0,2.019,0,34.936,0,34.936c0,27.235-22.158,49.393-49.393,49.393H57.224v132.518h21.922
			c-5.816,10.798-9.875,24.615-9.875,42.165c0,21.421,9.652,37.601,18.985,53.248c9.775,16.389,19.009,31.867,19.009,55.176h36.141
			c0-33.268-13.37-55.682-24.112-73.691c-7.756-13.002-13.882-23.272-13.882-34.733c0-28.486,16.961-39.142,23.411-42.165h254.41
			c6.01,2.819,23.357,13.442,23.357,42.165c0,11.46-6.126,21.73-13.882,34.733c-10.742,18.009-24.112,40.423-24.112,73.691h36.141
			c0-23.309,9.234-38.787,19.009-55.176c9.333-15.647,18.985-31.827,18.985-53.248c0-17.55-4.059-31.367-9.875-42.165h21.921
			V228.894z M165.647,325.271H93.365v-36.141h72.282V325.271z M123.817,252.988c11.198-6.685,20.738-15.855,27.873-26.743
			c5.932,9.864,12.906,18.848,20.74,26.743H123.817z M310.212,325.271H201.788v-36.141h108.424V325.271z M256,252.988
			c-49.821,0-90.353-48.639-90.353-108.424S206.179,36.141,256,36.141s90.353,48.639,90.353,108.424S305.821,252.988,256,252.988z
			 M360.309,226.245c7.135,10.888,16.676,20.058,27.873,26.743h-48.614C347.403,245.091,354.376,236.109,360.309,226.245z
			 M418.635,325.271h-72.282v-36.141h72.282V325.271z"/>
	</g>
</g>
<g>
	<g>
		
			<rect x="186.827" y="108.419" transform="matrix(0.7071 -0.7071 0.7071 0.7071 -19.7516 205.2945)" width="102.218" height="36.141"/>
	</g>
</g>
<g>
	<g>
		
			<rect x="252.044" y="156.612" transform="matrix(0.7071 -0.7071 0.7071 0.7071 -39.7171 253.4797)" width="68.15" height="36.141"/>
	</g>
</g>
</svg>