<svg id="OBJECT" xmlns="http://www.w3.org/2000/svg" viewBox="0 0 32 32"><path d="M30,16H29V14a1,1,0,0,0-1-1H26.31c-.21-.2-.71-.86-.61-2.78a3.56,3.56,0,0,0-1-2.79C23,5.83,20.09,6,19.75,6a1,1,0,0,0-.78.5,1,1,0,0,0,0,.94c.05.11.25.71-.73,1.42-1.15.82-3.41.57-5.41.36a12.75,12.75,0,0,0-4.62,0A3.93,3.93,0,0,0,5,13H4a1,1,0,0,0-1,1v2H2a1,1,0,0,0-1,1v6a3,3,0,0,0,3,3H28a3,3,0,0,0,3-3V17A1,1,0,0,0,30,16ZM7.25,12.19a2.29,2.29,0,0,1,1.47-1,12.25,12.25,0,0,1,3.85.06c2.47.27,5,.55,6.79-.72A3.49,3.49,0,0,0,21,8a3.88,3.88,0,0,1,2.31.83,1.51,1.51,0,0,1,.43,1.25A7.47,7.47,0,0,0,24,13H7A2,2,0,0,1,7.25,12.19ZM5,15H27v1H5Zm24,8a1,1,0,0,1-1,1H4a1,1,0,0,1-1-1V18H29Z"/><rect x="6" y="20" width="20" height="2"/></svg>