<svg id="OBJECT" xmlns="http://www.w3.org/2000/svg" viewBox="0 0 32 32"><path d="M13.33,6.69a8.41,8.41,0,0,1,5.34,0l.94.34.67-1.89-1-.33a10.4,10.4,0,0,0-6.66,0l-.95.33L12.39,7Z"/><path d="M23,23.14v-1.2A3,3,0,0,0,21,19.1l-1.46-.49s0-.07,0-.11a3.33,3.33,0,0,0-.24-1.23l1.87-1.19a3,3,0,0,0,1.39-2.53V11.11L24,4.6a1,1,0,0,0-.36-1,12.47,12.47,0,0,0-15.24,0A1,1,0,0,0,8,4.6l1.46,6.51v2.44a3,3,0,0,0,1.39,2.53l1.87,1.19a3.33,3.33,0,0,0-.24,1.23s0,.07,0,.11l-1.46.49A3,3,0,0,0,9,21.94v1.2a4,4,0,1,0,2,0v-1.2a1,1,0,0,1,.68-1l1.46-.48a3.49,3.49,0,0,0,5.72,0l1.46.48a1,1,0,0,1,.68,1v1.2a4,4,0,1,0,2,0ZM12,27a2,2,0,1,1-2-2A2,2,0,0,1,12,27ZM16,3a10.44,10.44,0,0,1,5.88,1.8L20.72,10H11.28L10.12,4.8A10.44,10.44,0,0,1,16,3ZM11.48,13.55V12h9v1.55a1,1,0,0,1-.46.84l-2,1.28a3.44,3.44,0,0,0-4.08,0l-2-1.28A1,1,0,0,1,11.48,13.55ZM16,20a1.5,1.5,0,1,1,1.5-1.5A1.5,1.5,0,0,1,16,20Zm6,9a2,2,0,1,1,2-2A2,2,0,0,1,22,29Z"/></svg>