<?xml version='1.0' encoding='iso-8859-1'?>
<!-- Uploaded to: SVG Repo, www.svgrepo.com, Generator: SVG Repo Mixer Tools -->
<svg fill="#000000" height="800px" width="800px" version="1.1" xmlns="http://www.w3.org/2000/svg" viewBox="0 0 297 297" xmlns:xlink="http://www.w3.org/1999/xlink" enable-background="new 0 0 297 297">
  <path d="M206.25,53c4.556,0,8.25-3.443,8.25-8s-3.694-8-8.25-8h-17.083v-9h17.083c4.556,0,8.25-3.443,8.25-8s-3.694-8-8.25-8  h-17.804C185.915,5,179.045,0,171,0h-45c-8.045,0-14.915,5-17.446,12H90.75c-4.556,0-8.25,3.443-8.25,8s3.694,8,8.25,8h16.417v9  H90.75c-4.556,0-8.25,3.443-8.25,8s3.694,8,8.25,8h16.417v9H90.75c-4.556,0-8.25,3.443-8.25,8s3.694,8,8.25,8h16.417v8H90.75  c-4.556,0-8.25,3.443-8.25,8s3.694,8,8.25,8h16.417v9H90.75c-4.556,0-8.25,3.443-8.25,8s3.694,8,8.25,8h16.417v9H90.75  c-4.556,0-8.25,3.443-8.25,8s3.694,8,8.25,8h17.804c2.531,7,9.401,13,17.446,13h5.167v119.668c0,6.508,6.157,12.332,12.664,12.332  h9.338c6.507,0,10.998-5.824,10.998-12.332V165H171c8.045,0,14.915-6,17.446-13h17.804c4.556,0,8.25-3.443,8.25-8s-3.694-8-8.25-8  h-17.083v-9h17.083c4.556,0,8.25-3.443,8.25-8s-3.694-8-8.25-8h-17.083v-9h17.083c4.556,0,8.25-3.443,8.25-8s-3.694-8-8.25-8  h-17.083v-8h17.083c4.556,0,8.25-3.443,8.25-8s-3.694-8-8.25-8h-17.083v-9H206.25z"/>
</svg>