<svg id="OBJECT" xmlns="http://www.w3.org/2000/svg" viewBox="0 0 32 32"><path d="M24.38,6.08a1,1,0,0,0-.83,0L17.76,9H14.23a1,1,0,0,1-.79-.4A7,7,0,0,0,6.88,6.09a7.07,7.07,0,0,0-5.83,6.07,7,7,0,0,0,4,7.16V25a1,1,0,0,0,1,1H8a3,3,0,0,0,3-3V19.32a6.89,6.89,0,0,0,2.46-1.95,1,1,0,0,1,.77-.37h3.53l5.79,2.89A.91.91,0,0,0,24,20a1,1,0,0,0,.95-.68A20.09,20.09,0,0,0,25,6.68,1,1,0,0,0,24.38,6.08ZM9,23a1,1,0,0,1-1,1H7V19.92a6.29,6.29,0,0,0,2,0Zm2.9-6.88A5,5,0,0,1,3,12.39,5.06,5.06,0,0,1,7.19,8.06,5.52,5.52,0,0,1,8,8a4.94,4.94,0,0,1,3.88,1.86A3,3,0,0,0,14.23,11H17v4H14.23A3,3,0,0,0,11.9,16.12Zm11.48,1.45L19,15.38V10.62l4.38-2.19A18.14,18.14,0,0,1,23.38,17.57Z"/><rect x="28" y="15.5" width="3" height="2"/><rect x="28" y="12" width="3" height="2"/><rect x="28" y="8.5" width="3" height="2"/><rect x="5.5" y="10.5" width="5" height="2"/><rect x="5.5" y="13.5" width="5" height="2"/></svg>