<svg id="OBJECT" xmlns="http://www.w3.org/2000/svg" viewBox="0 0 32 32"><path d="M30.12,7.35l-5.5-5.5a3.08,3.08,0,0,0-4.24,0l-8.83,8.83a3,3,0,0,0-.39,3.75L9.3,16.29a1,1,0,0,0,0,1.41l.55.54-8,8a2.76,2.76,0,1,0,3.91,3.91l8-8,.54.55A1,1,0,0,0,15,23a1,1,0,0,0,.7-.29l1.87-1.87a3,3,0,0,0,3.71-.41l8.83-8.83A3,3,0,0,0,30.12,7.35ZM4.31,28.78a.79.79,0,0,1-1.09,0A.76.76,0,0,1,3,28.23a.79.79,0,0,1,.22-.54l8-8,1.08,1.08ZM15,20.57,11.43,17l1.09-1.1,3.59,3.59Zm13.7-10.39L19.88,19a1,1,0,0,1-1.41,0L13,13.51a1,1,0,0,1,0-1.42L21.8,3.26A1,1,0,0,1,22.5,3a1,1,0,0,1,.71.29l5.5,5.5A1,1,0,0,1,28.71,10.18Z"/><rect x="21" y="5.38" width="2.59" height="2" transform="translate(2.02 17.63) rotate(-45)"/><rect x="24.33" y="8.71" width="2.59" height="2" transform="translate(0.63 20.93) rotate(-44.93)"/><rect x="17.88" y="8.5" width="2.59" height="2" transform="translate(-1.11 16.32) rotate(-44.96)"/><rect x="21.21" y="11.83" width="2.59" height="2" transform="translate(-2.48 19.67) rotate(-45)"/><rect x="14.75" y="11.62" width="2.59" height="2" transform="translate(-4.22 15.06) rotate(-45.04)"/><rect x="18.08" y="14.95" width="2.59" height="2" transform="translate(-5.6 18.39) rotate(-45.04)"/></svg>