<svg id="OBJECT" xmlns="http://www.w3.org/2000/svg" viewBox="0 0 32 32"><path d="M11,5h2V3H11V1H9V3H7V5H9V6H6V8H9V9H7v2H9v4H8a1,1,0,0,0-1,1v2a1,1,0,0,0-1,1.09l1,11A1,1,0,0,0,8,31h4a1,1,0,0,0,1-.91l1-11A1,1,0,0,0,13,18V16a1,1,0,0,0-1-1H11V11h2V9H11V8h3V6H11Zm.9,15-.18,2H8.28L8.1,20Zm-3,9-.45-5h3.08l-.45,5ZM9,18V17h2v1Z"/><path d="M25.73,12.31A1,1,0,0,0,25,12H19a1,1,0,0,0-.73.31,1,1,0,0,0-.27.75l1,17A1,1,0,0,0,20,31h4a1,1,0,0,0,1-.94l1-17A1,1,0,0,0,25.73,12.31ZM23.94,14l-.12,2H20.18l-.12-2Zm-3,15L20.3,18h3.4l-.64,11Z"/></svg>