<svg id="OBJECT" xmlns="http://www.w3.org/2000/svg" viewBox="0 0 32 32"><path d="M30.71,1.29a1,1,0,0,0-1.09-.21L17.9,5.9a3.08,3.08,0,0,0-1.76,1.89l-1.35,4a4,4,0,0,0-2.14,3.52c0,.11,0,.22,0,.33L9.6,18.76,8.08,17.24a4.15,4.15,0,1,0,0,5.87l5.37-5.38a4,4,0,0,0,.82.82L8.89,23.92A4.15,4.15,0,0,0,11.83,31a4.15,4.15,0,0,0,2.93-7.08l-1.52-1.51,3.09-3.09a3.16,3.16,0,0,0,.32,0,4,4,0,0,0,3.52-2.14l4-1.35A3.08,3.08,0,0,0,26.1,14.1L30.92,2.38A1,1,0,0,0,30.71,1.29Zm-24,20.4a2.19,2.19,0,0,1-3,0,2.14,2.14,0,0,1,0-3,2.15,2.15,0,0,1,3,0l1.51,1.52Zm6.67,3.65a2.14,2.14,0,1,1-3,0l1.52-1.52ZM18,8.42a1.08,1.08,0,0,1,.62-.67l7.1-2.92-7.09,7.09A4,4,0,0,0,17,11.39Zm-1.39,8.93a2,2,0,1,1,2-2A2,2,0,0,1,16.65,17.35Zm7.6-4a1.13,1.13,0,0,1-.67.63l-3,1a4,4,0,0,0-.53-1.63l7.09-7.09Z"/></svg>