<svg id="OBJECT" xmlns="http://www.w3.org/2000/svg" viewBox="0 0 32 32"><path d="M15.47,1.5a1,1,0,0,0-.86-.5H7A1,1,0,0,0,6,2V30a1,1,0,0,0,1,1h7.59a1,1,0,0,0,.86-.5A29.23,29.23,0,0,0,19,16,29.23,29.23,0,0,0,15.47,1.5ZM14,3a22.82,22.82,0,0,1,1.66,4H8V3Zm0,26H8V9h8.23c.22,1,.39,2,.52,3H13a3,3,0,0,0-3,3v8a3,3,0,0,0,3,3h2.34A22.16,22.16,0,0,1,14,29Zm2-5H13a1,1,0,0,1-1-1V15a1,1,0,0,1,1-1h3.94Q17,15,17,16A31,31,0,0,1,16,24Z"/><rect x="9" y="4" width="3" height="2"/><path d="M23.28,22.38a1,1,0,0,0-1.56,0c-.64.79-2.72,3.51-2.72,5.12a3.5,3.5,0,0,0,7,0C26,25.89,23.92,23.17,23.28,22.38ZM22.5,29A1.5,1.5,0,0,1,21,27.5a8.24,8.24,0,0,1,1.5-2.83A8.24,8.24,0,0,1,24,27.5,1.5,1.5,0,0,1,22.5,29Z"/></svg>