<svg id="OBJECT" xmlns="http://www.w3.org/2000/svg" viewBox="0 0 32 32"><path d="M25,14H21.78l-.43-1.73A3,3,0,0,0,18.44,10H17V8A3,3,0,0,0,19.5,5V3h1.09L23,5.41,24.41,4l-2.7-2.71A1,1,0,0,0,21,1H8V3h4.5V5A3,3,0,0,0,15,8V10H13.56a3,3,0,0,0-2.91,2.27L10.22,14H7a1,1,0,0,0-1,1V30a1,1,0,0,0,1,1H25a1,1,0,0,0,1-1V15A1,1,0,0,0,25,14ZM14.5,5V3h3V5a1,1,0,0,1-1,1h-1A1,1,0,0,1,14.5,5Zm-1.91,7.76a1,1,0,0,1,1-.76h4.88a1,1,0,0,1,1,.76L19.72,14H12.28ZM24,29H8V16H24Z"/><path d="M16,27a3.5,3.5,0,0,0,3.5-3.5c0-1.61-2.08-4.33-2.72-5.12a1,1,0,0,0-1.56,0c-.64.79-2.72,3.51-2.72,5.12A3.5,3.5,0,0,0,16,27Zm0-6.33a8.24,8.24,0,0,1,1.5,2.83,1.5,1.5,0,0,1-3,0A8.24,8.24,0,0,1,16,20.67Z"/></svg>