<svg id="OBJECT" xmlns="http://www.w3.org/2000/svg" viewBox="0 0 32 32"><path d="M17,10V8a1,1,0,0,0-1-1h-.5V6H17V4H15.5V2a1,1,0,0,0-1-1h-5a1,1,0,0,0-1,1V7H8A1,1,0,0,0,7,8v2a1,1,0,0,0-1,1V28a3,3,0,0,0,3,3h6a3,3,0,0,0,3-3V11A1,1,0,0,0,17,10ZM10.5,3h3V7h-3ZM9,9h6v1H9Zm7,7.5H8V12h8Zm0,2v4H8v-4ZM15,29H9a1,1,0,0,1-1-1V24.5h8V28A1,1,0,0,1,15,29Z"/><path d="M23,2c-1.28,0-3.62,1.52-4.57,2.18a1,1,0,0,0,0,1.64C19.38,6.48,21.72,8,23,8a3,3,0,0,0,0-6Zm0,4a7.48,7.48,0,0,1-2.15-1A7.48,7.48,0,0,1,23,4a1,1,0,0,1,0,2Z"/></svg>