<svg id="OBJECT" xmlns="http://www.w3.org/2000/svg" viewBox="0 0 32 32"><path d="M25,19H2a1,1,0,0,0-.93,1.37A8.91,8.91,0,0,0,9.38,26h8.24a8.91,8.91,0,0,0,8.31-5.63A1,1,0,0,0,25,19Zm-7.38,5H9.38a6.91,6.91,0,0,1-5.72-3H23.34A6.91,6.91,0,0,1,17.62,24Z"/><path d="M28.5,6H9A2.5,2.5,0,0,0,6.5,8.5v5a2.5,2.5,0,0,0,5,0v-1a.5.5,0,0,1,1,0v3a2.5,2.5,0,0,0,5,0V13H18a2.5,2.5,0,0,0,2.45-2H28.5a2.5,2.5,0,0,0,0-5Zm-10,4.5a.5.5,0,0,1-.5.5H16.5a1,1,0,0,0-1,1v3.5a.5.5,0,0,1-1,0v-3a2.5,2.5,0,0,0-5,0v1a.5.5,0,0,1-1,0v-5A.5.5,0,0,1,9,8h9.5ZM28.5,9h-8V8h8a.5.5,0,0,1,0,1Z"/></svg>