<?xml version="1.0" encoding="UTF-8"?>
<!DOCTYPE svg PUBLIC "-//W3C//DTD SVG 1.1//EN" "http://www.w3.org/Graphics/SVG/1.1/DTD/svg11.dtd">
<!-- Creator: CorelDRAW -->
<svg xmlns="http://www.w3.org/2000/svg" xml:space="preserve" width="6.82666in" height="6.82666in" style="shape-rendering:geometricPrecision; text-rendering:geometricPrecision; image-rendering:optimizeQuality; fill-rule:evenodd; clip-rule:evenodd"
viewBox="0 0 6.82666 6.82666"
 xmlns:xlink="http://www.w3.org/1999/xlink">
 <defs>
  <style type="text/css">
   <![CDATA[
    .fil5 {fill:none}
    .fil1 {fill:#6A8241}
    .fil0 {fill:#85A64D}
    .fil2 {fill:#DEC275}
    .fil3 {fill:#EF5350}
    .fil4 {fill:#FFFFFE;fill-rule:nonzero}
   ]]>
  </style>
 </defs>
 <g id="Layer_x0020_1">
  <metadata id="CorelCorpID_0Corel-Layer"/>
  <g id="_467003456">
   <g>
    <path id="_467005280" class="fil0" d="M2.54128 2.49575l-0.154406 0.154406c-0.0316102,0.0316181 -0.0833583,0.0316181 -0.114972,-3.93701e-006l-1.41857 -1.41857 0.269378 -0.269378 1.41857 1.41857c0.031622,0.0316181 0.0316181,0.0833583 0,0.114976z"/>
    <path id="_467004296" class="fil1" d="M2.15402 2.44622l0.180236 -0.180236c0.0498425,-0.0498425 0.131394,-0.0498425 0.181236,0l0 3.93701e-006 -0.361469 0.361469 -3.93701e-006 0c-0.0498425,-0.0498425 -0.0498386,-0.131394 0,-0.181236z"/>
    <path id="_467004200" class="fil2" d="M5.70723 5.2756l-0.540504 0.5405c-0.0644764,0.0644843 -0.169984,0.0644843 -0.234465,0l-0.144457 -0.144453 0.774972 -0.774972 0.144453 0.144457c0.0644803,0.0644843 0.0644803,0.169988 0,0.234469zm-1.00072 0.314752l-0.329453 -0.329449 0.774972 -0.774972 0.329453 0.329449 -0.774972 0.774972zm-0.410748 -0.410744l-2.08329 -2.08329c-0.0833622,-0.0833701 -0.123602,-0.194165 -0.12074,-0.304028l1.10788 0.593689 0.166933 0.0894528 -0.0894567 -0.166925 -0.593693 -1.10791c0.109866,-0.00287008 0.220677,0.037378 0.304047,0.120744l2.08329 2.08329 -0.774972 0.774972zm-2.18352 -2.50627c0.0195394,-0.0597638 0.0529409,-0.115894 0.100228,-0.163185l0.188811 -0.188807c0.0472874,-0.0472913 0.103409,-0.080689 0.163173,-0.100228l0.522122 0.974354 -0.974335 -0.522134z"/>
    <polygon id="_467004152" class="fil3" points="2.09173,2.79229 3.19961,3.38598 3.36654,3.47544 3.27709,3.30851 2.6834,2.20061 2.56446,2.22112 3.08659,3.19548 2.11224,2.67335 "/>
    <polygon id="_467004080" class="fil3" points="5.15204,4.48593 5.07074,4.40464 4.29576,5.17961 4.37706,5.26091 "/>
    <polygon id="_467004488" class="fil3" points="5.48148,4.81538 4.70651,5.59036 4.78781,5.67165 5.56278,4.89668 "/>
   </g>
   <g>
    <circle id="_467004344" class="fil3" cx="5.60514" cy="3.67603" r="0.368189"/>
    <g>
     <path id="_467004056" class="fil4" d="M5.64541 3.31004c0.00512205,0.00780315 0.0168858,0.0106535 0.0247795,0.0035315 -0.00816535,-0.00145669 -0.016437,-0.00262205 -0.0247795,-0.0035315zm-0.360276 0.548185c-0.0048189,-0.00844488 -0.00929528,-0.0171063 -0.0134528,-0.0259528 0.0136378,-0.000169291 0.0209016,0.0157165 0.0134528,0.0259528zm0.0055748 -0.0405276c-0.015748,0.0102677 -0.00455118,0.0353543 0.0144173,0.0292874 0.0012874,-0.000484252 0.00237795,-0.000996063 0.00352756,-0.00174409l0.00422441 -0.00273228 0.00487008 -0.00319291 0.00482677 -0.00322441 0.00478346 -0.00323228 0.00474409 -0.00326772 0.00432283 -0.00301181c0.014437,-0.0105039 0.00472441,-0.0329134 -0.0128386,-0.0295354 -0.0022126,0.000531496 -0.0042126,0.0012874 -0.00607087,0.00264567l-0.00412992 0.00287795 -0.00454724 0.00312598 -0.00459843 0.00311024 -0.00463386 0.00309055 -0.00467323 0.00306693 -0.00422441 0.00273622zm0.0527717 -0.0370433c-0.00450787,0.00348425 -0.00701575,0.00916142 -0.00633858,0.0148307 0.00146063,0.0126614 0.0161969,0.0190945 0.0263425,0.0112559l0.000677165 -0.000519685 0.00442126 -0.00340945 0.00438189 -0.00342913 0.00434252 -0.00344882 0.00429921 -0.0034685 0.00426378 -0.00348425 0.00383071 -0.00317323c0.0143071,-0.0122638 0.000547244,-0.0350472 -0.0172047,-0.0276496 -0.00147244,0.000673228 -0.00260236,0.00138976 -0.00385827,0.00240157l-0.00366535 0.00304331 -0.00408268 0.00333858 -0.00412205 0.0033189 -0.00416535 0.00330709 -0.00420472 0.00329528 -0.00424016 0.00327559 -0.000677165 0.000515748zm0.0493858 -0.0411496c-0.0140039,0.0133071 0.00177165,0.0355276 0.0190276,0.0265276 0.00120472,-0.000681102 0.00216929,-0.00137008 0.00320079,-0.00229921l0.00347244 -0.00316929 0.00391732 -0.00361811 0.00388189 -0.00363386 0.00383858 -0.00364173 0.00380709 -0.00365354 0.00375984 -0.00366929 0.00167323 -0.00164961c0.0056063,-0.0056063 0.00647638,-0.0143622 0.00200787,-0.0209173 -0.000543307,-0.000795276 -0.0011378,-0.00152756 -0.00178346,-0.00218898 0.00617323,0.0056063 0.0163543,0.00623228 0.0231378,-0.000909449l0.000314961 -0.000334646 0.00348425 -0.00375984 0.00343701 -0.00375984 0.00340945 -0.00377559 0.00337402 -0.00378346 0.00333465 -0.0037874 0.00330315 -0.00379921 0.00175197 -0.00204331c0.0114685,-0.0133819 -0.00362992,-0.0338307 -0.0206772,-0.024937 -0.00167323,0.000992126 -0.00305118,0.0021063 -0.00433465,0.00360236l-0.00162205 0.00188976 -0.00316142 0.0036378 -0.00320472 0.0036378 -0.00323622 0.00362992 -0.00326772 0.00361811 -0.00330315 0.00361417 -0.00332677 0.00359843 -0.000314961 0.000330709c-0.00290945,0.00306693 -0.0045748,0.00747244 -0.00440945,0.011685 0.000177165,0.00449606 0.00194882,0.00824409 0.00462598,0.0109764 -0.00629921,-0.00578346 -0.0163583,-0.00589764 -0.0227047,0.000448819l-0.00151575 0.00149213 -0.00361417 0.00352362 -0.00364961 0.00350394 -0.00368504 0.00350394 -0.00371654 0.00348031 -0.00375591 0.00346063 -0.00347638 0.00316929zm0.0877913 -0.0940472c-0.0111181,0.0143858 0.00581102,0.0334409 0.0213543,0.0242598 0.00188976,-0.00120079 0.00310236,-0.00223228 0.00452756,-0.00399213l0.0021063 -0.00267323 0.00300394 -0.0038622 0.0029685 -0.0038622 0.0029252 -0.00385827 0.00290551 -0.00387402 0.0028622 -0.00387008 0.00283071 -0.00387008 0.000641732 -0.000885827c0.0103189,-0.014189 -0.00637402,-0.0335039 -0.0227559,-0.0230787 -0.00156693,0.00112205 -0.00280315,0.00233465 -0.00394094,0.00389764l-0.000527559 0.000724409 -0.00272835 0.00372835 -0.00275591 0.00372441 -0.00277953 0.00370472 -0.0028189 0.0037126 -0.00284252 0.00370866 -0.00287008 0.00369291 -0.0021063 0.00267323zm0.0378228 -0.052126c-0.0105433,0.0161575 0.0107126,0.0345394 0.0253346,0.020689 0.000787402,-0.000830709 0.00147638,-0.00162205 0.00210236,-0.00258268l0.00176378 -0.00266142 0.00255512 -0.00388976 0.00251969 -0.00388976 0.00249213 -0.00388976 0.00246457 -0.00388583 0.00242913 -0.00388976 0.00240157 -0.00388583 0.00137795 -0.00224803c0.00316142,-0.00519291 0.00323622,-0.0122283 -0.000161417,-0.0173268 -0.00654724,-0.0102913 -0.0216024,-0.0101457 -0.027937,0.000259843l-0.00128346 0.00210236 -0.00231496 0.00374016 -0.00233858 0.00373622 -0.00236614 0.00374016 -0.0023937 0.00373622 -0.0024252 0.00373622 -0.00245276 0.00374409 -0.00176772 0.00266535zm0.0335866 -0.0549921c-0.0093622,0.0172835 0.0140354,0.0337362 0.0271457,0.018311 0.000606299,-0.000751969 0.00116929,-0.00157087 0.00163386,-0.0024252l0.00201575 -0.00363386 0.00211811 -0.00385433 0.00208661 -0.00385433 0.00205512 -0.00383858 0.00203543 -0.00383465 0.00200394 -0.00383465 0.00198031 -0.00382283 0.00144488 -0.00282283c0.00859449,-0.017189 -0.0143937,-0.0331299 -0.0275118,-0.0176969 -0.000685039,0.000897638 -0.00128346,0.00177559 -0.00179528,0.00280315l-0.00137402 0.0026811 -0.00190551 0.00368504 -0.00193307 0.00368504 -0.00195669 0.00369685 -0.00198819 0.00370866 -0.00200787 0.00370472 -0.0020315 0.00370472 -0.00201575 0.0036378zm0.0293228 -0.0575118c-0.00759843,0.0172638 0.0143031,0.0314449 0.0269173,0.0181299 0.00128346,-0.00143307 0.00209055,-0.00261024 0.0029252,-0.00434646l0.000535433 -0.00115748 0.00172047 -0.00374409 0.00169291 -0.00373228 0.00166929 -0.00371654 0.00164961 -0.00372047 0.00162205 -0.0037126 0.00159449 -0.00368898 0.00156693 -0.00367323 0.00146063 -0.00345669c0.00123228,-0.00279921 0.00160236,-0.00637402 0.00100394,-0.00936614 -0.00320079,-0.0160079 -0.0247047,-0.018374 -0.031315,-0.0033622l-0.00140551 0.00332677 -0.00151969 0.00355512 -0.00153937 0.00356299 -0.00155906 0.00356693 -0.00158268 0.00357087 -0.00161417 0.00359449 -0.00162992 0.00360236 -0.00165748 0.00361024 -0.000535433 0.00115748zm0.0249921 -0.0595c-0.00638189,0.0165906 0.015315,0.0305157 0.0278465,0.0165079 0.00132283,-0.00164961 0.00215354,-0.00293701 0.00292126,-0.00493701l0.00057874 -0.00153937 0.00132283 -0.0035315 0.00129921 -0.00351575 0.00127165 -0.0035 0.00125984 -0.00348425 0.00123228 -0.00347638 0.0012126 -0.00345669 0.00118898 -0.0034252 0.00117323 -0.00341339 0.000732283 -0.00216142c0.00575197,-0.0166102 -0.0160748,-0.0300354 -0.0284173,-0.0155157 -0.00122835,0.00153543 -0.00210236,0.00317323 -0.00274409,0.00503937l-0.000688976 0.00202756 -0.00113386 0.00330709 -0.00114961 0.0033189 -0.00117323 0.00333071 -0.00118898 0.00334252 -0.00120866 0.0033622 -0.00123622 0.00338189 -0.00124803 0.00338976 -0.00127165 0.00340945 -0.00057874 0.00153937zm0.0206575 -0.0611535c-0.00502756,0.0163386 0.0161181,0.0289213 0.0282205,0.0153937 0.00157087,-0.00184646 0.00259055,-0.00374803 0.00330709,-0.0060748l0.000685039 -0.00230315 0.000933071 -0.0031811 0.000917323 -0.00316142 0.000901575 -0.00314173 0.00088189 -0.00312598 0.000862205 -0.00310236 0.00084252 -0.00305906 0.000830709 -0.00304724 0.000811024 -0.00303543 0.000795276 -0.00300787 0.000531496 -0.00203543c0.00474409,-0.0183071 -0.0206693,-0.0291181 -0.0303898,-0.0119173 -0.000633858,0.00126772 -0.00106299,0.00229528 -0.00143307,0.00366929l-0.000507874 0.00194488 -0.00076378 0.00289764 -0.000783465 0.00290945 -0.000799213 0.00294094 -0.000818898 0.00298031 -0.000830709 0.00298819 -0.000850394 0.003 -0.000870079 0.0030315 -0.000885827 0.00305512 -0.000905512 0.00307874 -0.000681102 0.00230315z"/>
     <path id="_467003504" class="fil4" d="M5.87572 3.42637c-6.69291e-005,0.00852756 0.00651575,0.0147874 0.0139961,0.0160433 -0.00450787,-0.00548819 -0.0091811,-0.0108307 -0.0139961,-0.0160433zm0.0142795 0.0163937c0.00376772,0.00459055 0.00742126,0.00927953 0.0109606,0.0140512 0.000114173,0.00172835 -5.11811e-005,0.00355512 -0.000547244,0.0054685l-0.000531496 0.00203937 -0.000795276 0.00300394 -0.000811024 0.00303937 -0.000830709 0.00304724 -0.00084252 0.00305906 -0.000862205 0.00310236 -0.00088189 0.00312598 -0.000901575 0.00314173 -0.000917323 0.00316142 -0.000933071 0.00317717 -0.000685039 0.00230315c-0.000716535,0.00233071 -0.00173622,0.00422835 -0.00330709,0.00607874 -0.0121024,0.0135276 -0.033248,0.000940945 -0.0282205,-0.0153976l0.000681102 -0.00230315 0.000905512 -0.00307874 0.000885827 -0.00305118 0.000870079 -0.0030315 0.000850394 -0.003 0.000830709 -0.00298819 0.000818898 -0.00298031 0.000799213 -0.00294094 0.000783465 -0.00291339 0.00076378 -0.0028937 0.000507874 -0.00194488c0.000370079,-0.00137795 0.000799213,-0.00240157 0.00143307,-0.00366929 0.0047126,-0.00833858 0.0131102,-0.0100984 0.0199764,-0.0076063zm-0.430008 0.571724c-0.012126,-0.00520866 -0.0239055,-0.0110472 -0.035315,-0.0174764l0.000838583 -0.000389764 0.00552362 -0.00259843 0.00548031 -0.00262205 0.00283465 -0.00138976c0.00200787,-0.000964567 0.00391732,-0.00148425 0.00611024,-0.00165354 0.015563,-0.00061811 0.0218031,0.0161614 0.0145276,0.0261299zm0.00811024 -0.039185c-0.0166299,0.00900787 -0.0074252,0.0348543 0.011878,0.0304016 0.00130315,-0.000366142 0.00247244,-0.000787402 0.00366535,-0.00143701l0.000374016 -0.00019685 0.00538583 -0.00291732 0.00533465 -0.00294094 0.0052874 -0.00296457 0.00524803 -0.00298425 0.00520472 -0.00301181 0.00243701 -0.00143701c0.0162087,-0.00986614 0.00597244,-0.0350197 -0.0131693,-0.0298661 -0.00131102,0.00042126 -0.00240945,0.000897638 -0.00359843,0.00159449l-0.00223228 0.00131102 -0.00500394 0.00289764 -0.00504331 0.00287008 -0.00509449 0.00285039 -0.00513386 0.00283071 -0.00516929 0.00279921 -0.000370079 0.000200787zm0.0554606 -0.0326142c-0.015748,0.0102717 -0.00455118,0.0353583 0.0144173,0.0292874 0.0012874,-0.000480315 0.00237795,-0.000992126 0.00352756,-0.00174016l0.00422441 -0.00273622 0.00487008 -0.00318898 0.00482677 -0.00322441 0.00478346 -0.00323228 0.00474409 -0.00326772 0.00432283 -0.00301181c0.014437,-0.0105039 0.00472441,-0.0329134 -0.0128386,-0.0295354 -0.0022126,0.000531496 -0.0042126,0.0012874 -0.00607087,0.00264173l-0.00412992 0.00288189 -0.00454724 0.00312598 -0.00459843 0.00311024 -0.00463386 0.00309055 -0.00467323 0.00306693 -0.00422441 0.00273228zm0.0527717 -0.0370394c-0.00450787,0.00348031 -0.00701575,0.00915748 -0.00633858,0.0148307 0.00146063,0.0126575 0.0161969,0.0190906 0.0263425,0.011252l0.000677165 -0.000515748 0.00442126 -0.00340945 0.00438189 -0.00343307 0.00434252 -0.00344882 0.00429921 -0.00346457 0.00426378 -0.00348819 0.00383071 -0.00317323c0.0143071,-0.0122598 0.000547244,-0.0350433 -0.0172047,-0.0276496 -0.00147244,0.000677165 -0.00260236,0.0013937 -0.00385827,0.00240551l-0.00366535 0.00303937 -0.00408268 0.00333858 -0.00412205 0.00332283 -0.00416535 0.00330709 -0.00420472 0.00329134 -0.00424016 0.00327953 -0.000677165 0.000515748zm0.0493858 -0.0411496c-0.0140039,0.0133031 0.00177165,0.0355276 0.0190276,0.0265276 0.00120472,-0.000681102 0.00216929,-0.00137402 0.00320079,-0.00229921l0.00347244 -0.00316929 0.00391732 -0.00361811 0.00388189 -0.00363386 0.00383858 -0.00364173 0.00380709 -0.00365354 0.00375984 -0.00366929 0.00167323 -0.00165354c0.0056063,-0.0056063 0.00647638,-0.0143622 0.00200787,-0.0209134 -0.000543307,-0.000799213 -0.0011378,-0.00152756 -0.00178346,-0.00219291 0.00617323,0.00561024 0.0163543,0.00623228 0.0231378,-0.000905512l0.000314961 -0.000334646 0.00348425 -0.00375984 0.00343701 -0.00376378 0.00340945 -0.00377165 0.00337402 -0.0037874 0.00333465 -0.00378346 0.00330315 -0.00380315 0.00175197 -0.00204331c0.0114685,-0.013378 -0.00362992,-0.0338307 -0.0206772,-0.0249331 -0.00167323,0.000988189 -0.00305118,0.00210236 -0.00433465,0.00360236l-0.00162205 0.00188583 -0.00316142 0.00364173 -0.00320472 0.0036378 -0.00323622 0.00362992 -0.00326772 0.00361811 -0.00330315 0.00361417 -0.00332677 0.00359449 -0.000314961 0.000334646c-0.00290945,0.00306299 -0.0045748,0.00747244 -0.00440945,0.011685 0.000177165,0.00449606 0.00194882,0.00824016 0.00462598,0.0109764 -0.00629921,-0.0057874 -0.0163583,-0.00589764 -0.0227047,0.000444882l-0.00151575 0.00149606 -0.00361417 0.00351969 -0.00364961 0.00350787 -0.00368504 0.00350394 -0.00371654 0.00347638 -0.00375591 0.00346457 -0.00347638 0.00316929zm0.0877913 -0.0940512c-0.0111142,0.0143858 0.00581102,0.0334449 0.0213543,0.0242598 0.00188976,-0.00120079 0.00310236,-0.00222835 0.00452756,-0.00399213l0.0021063 -0.00266929 0.00300394 -0.0038622 0.0029685 -0.00386614 0.0029252 -0.00385433 0.00290551 -0.00387402 0.0028622 -0.00387402 0.00283071 -0.00386614 0.000641732 -0.000889764c0.0103189,-0.014185 -0.00637402,-0.0335 -0.0227559,-0.0230748 -0.00156693,0.00111811 -0.00280315,0.00233465 -0.00394094,0.0038937l-0.000527559 0.000728346 -0.00272835 0.00372835 -0.00275591 0.00372047 -0.00277953 0.00370472 -0.0028189 0.00371654 -0.00284252 0.00370866 -0.00287008 0.00369291 -0.0021063 0.00266929zm0.0378228 -0.052126c-0.0105433,0.0161614 0.0107126,0.0345433 0.0253346,0.0206929 0.000787402,-0.000830709 0.00147638,-0.00162205 0.00210236,-0.00258268l0.00176378 -0.00266535 0.00255512 -0.00388976 0.00251969 -0.00388583 0.00249606 -0.00388976 0.00246063 -0.00388583 0.00242913 -0.0038937 0.00240157 -0.00388189 0.00137795 -0.00224803c0.00316535,-0.00519291 0.00323622,-0.0122323 -0.000161417,-0.0173268 -0.00654724,-0.0102913 -0.0216024,-0.0101457 -0.027937,0.000259843l-0.00128346 0.00209843 -0.00231496 0.00374409 -0.00233858 0.00373622 -0.00236614 0.00373622 -0.0023937 0.00373622 -0.0024252 0.00374016 -0.00245276 0.00374409 -0.00176772 0.00266142zm0.0335866 -0.0549921c-0.0093622,0.0172874 0.0140354,0.0337402 0.0271496,0.018311 0.000602362,-0.000748031 0.00116535,-0.00156693 0.00162992,-0.00242126l0.00201575 -0.00363386 0.00211811 -0.00385827 0.00208661 -0.00385039 0.00205512 -0.00383858 0.00203543 -0.00383858 0.00200394 -0.00383071 0.00198031 -0.00382677 0.00144488 -0.00282283c0.00859449,-0.017189 -0.0143937,-0.033126 -0.0275118,-0.0176969 -0.000685039,0.000901575 -0.00128346,0.00177953 -0.00179528,0.00280315l-0.00137402 0.00268504 -0.00190551 0.00368504 -0.00193307 0.00368504 -0.00195669 0.00369685 -0.00198819 0.00370472 -0.00200787 0.00370472 -0.0020315 0.00370866 -0.00201575 0.00363386zm0.0293228 -0.0575118c-0.00759843,0.0172677 0.0143031,0.0314488 0.0269173,0.0181339 0.00128346,-0.00143307 0.00209055,-0.00261417 0.0029252,-0.00435039l0.000535433 -0.00115748 0.00172047 -0.00374016 0.00169291 -0.00373228 0.00166929 -0.00372047 0.00164961 -0.00372047 0.00162205 -0.00370866 0.00159449 -0.00368898 0.00156693 -0.00367323 0.00146063 -0.00345669c0.00123228,-0.00279921 0.00160236,-0.00637795 0.00100394,-0.00936614 -0.00320079,-0.0160079 -0.0247047,-0.018378 -0.031311,-0.0033622l-0.00140551 0.00332283 -0.00152362 0.00355906 -0.00153937 0.00356299 -0.00155906 0.00356299 -0.00157874 0.0035748 -0.00161811 0.00359449 -0.00162992 0.00359843 -0.00165748 0.00361024 -0.000535433 0.00115748zm0.0249921 -0.0595c-0.00638189,0.0165906 0.015315,0.0305197 0.0278465,0.0165118 0.00132283,-0.00164961 0.00215354,-0.00293701 0.00292126,-0.00494094l0.00057874 -0.00153543 0.00132283 -0.00353543 0.00129921 -0.00351181 0.00127165 -0.0035 0.00125984 -0.00348819 0.00123228 -0.00347244 0.0012126 -0.00345669 0.00118898 -0.00342913 0.00117323 -0.00341339 0.000732283 -0.00215748c0.00575197,-0.0166102 -0.0160748,-0.0300354 -0.0284173,-0.0155157 -0.00122835,0.00153543 -0.00210236,0.00317323 -0.00274409,0.00503937l-0.000688976 0.00202756 -0.00113386 0.00330315 -0.00114961 0.0033189 -0.00117323 0.00333465 -0.00118898 0.00334252 -0.00120866 0.0033622 -0.00123622 0.00338189 -0.00124803 0.00338976 -0.00127165 0.00340945 -0.00057874 0.00153543z"/>
    </g>
   </g>
  </g>
 </g>
 <rect class="fil5" width="6.82666" height="6.82666"/>
</svg>
