<?xml version="1.0" encoding="UTF-8"?>
<!DOCTYPE svg PUBLIC "-//W3C//DTD SVG 1.1//EN" "http://www.w3.org/Graphics/SVG/1.1/DTD/svg11.dtd">
<!-- Creator: CorelDRAW -->
<svg xmlns="http://www.w3.org/2000/svg" xml:space="preserve" width="6.82666in" height="6.82666in" style="shape-rendering:geometricPrecision; text-rendering:geometricPrecision; image-rendering:optimizeQuality; fill-rule:evenodd; clip-rule:evenodd"
viewBox="0 0 6.82666 6.82666"
 xmlns:xlink="http://www.w3.org/1999/xlink">
 <defs>
  <style type="text/css">
   <![CDATA[
    .fil8 {fill:none}
    .fil7 {fill:#00B8D4}
    .fil0 {fill:#05ABC4}
    .fil1 {fill:#EBEBEA}
    .fil4 {fill:#F57C00}
    .fil5 {fill:#FFB300}
    .fil3 {fill:#FFCA28}
    .fil6 {fill:#FFFFFE}
    .fil2 {fill:#F57C00;fill-rule:nonzero}
   ]]>
  </style>
 </defs>
 <g id="Layer_x0020_1">
  <metadata id="CorelCorpID_0Corel-Layer"/>
  <g id="_322876280">
   <g>
    <polygon id="_322878224" class="fil0" points="3.42669,1.8446 3.6923,0.853331 4.2681,1.00761 3.92772,2.27794 3.90382,2.36713 3.5667,2.36713 3.50167,2.36713 3.46201,2.36713 3.41959,2.36713 3.37992,2.36713 3.28668,2.36713 3.31058,2.27794 3.3333,2.19314 3.35314,2.11912 3.37434,2.03996 3.39418,1.96594 "/>
    <polygon id="_322877936" class="fil1" points="3.82302,2.27794 4.17042,0.981445 4.20743,0.991358 3.86269,2.27794 3.83879,2.36713 3.79913,2.36713 "/>
    <polygon id="_322877576" class="fil1" points="3.74094,2.27794 4.09384,0.960921 4.13085,0.970839 3.78061,2.27794 3.75671,2.36713 3.71705,2.36713 "/>
    <polygon id="_322877744" class="fil1" points="3.50024,2.11912 3.82956,0.890106 3.86656,0.900024 3.52007,2.19314 3.49735,2.27794 3.48757,2.31447 3.47346,2.36713 3.46201,2.36713 3.43379,2.36713 3.4479,2.31447 3.45769,2.27794 3.46773,2.24046 "/>
    <polygon id="_322878272" class="fil1" points="3.4592,1.96594 3.75298,0.869591 3.78998,0.879504 3.47904,2.03996 3.44652,2.1613 3.42669,2.23532 3.41527,2.27794 3.40548,2.31447 3.39137,2.36713 3.37992,2.36713 3.35171,2.36713 3.36581,2.31447 3.37561,2.27794 3.38565,2.24046 3.40686,2.1613 3.42669,2.08728 "/>
   </g>
   <path id="_322876952" class="fil2" d="M2.67002 2.27794l1.48663 0 0.0445945 0 0 0.0445906 0 0.357535 0 0.0445945 -0.0445945 0 -1.48663 0 -0.0445906 0 0 -0.0445945 0 -0.357535 0 -0.0445906 0.0445906 0zm1.44204 0.0891811l-1.39745 0 0 0.268354 1.39745 0 0 -0.268354z"/>
   <path id="_322877408" class="fil3" d="M3.41333 2.42976c0.978528,0 1.77178,0.79326 1.77178,1.77179 0,0.978524 -0.793256,1.77178 -1.77178,1.77178 -0.978528,0 -1.77178,-0.79326 -1.77178,-1.77178 0,-0.978528 0.793256,-1.77179 1.77178,-1.77179z"/>
   <path id="_322876880" class="fil4" d="M3.41333 2.72509c0.407705,0 0.776819,0.165264 1.044,0.432449 0.267189,0.267189 0.432453,0.636307 0.432453,1.04401 0,0.407697 -0.165264,0.776815 -0.432453,1.044 -0.267185,0.267185 -0.636299,0.432453 -1.044,0.432453 -0.407705,0 -0.776819,-0.165268 -1.044,-0.432453 -0.267189,-0.267185 -0.432453,-0.636303 -0.432453,-1.044 0,-0.407701 0.165264,-0.776819 0.432453,-1.04401 0.267185,-0.267185 0.636299,-0.432449 1.044,-0.432449z"/>
   <path id="_322877096" class="fil5" d="M4.33122 3.28365c-0.234902,-0.234902 -0.559429,-0.380197 -0.917894,-0.380197 -0.358465,0 -0.682992,0.145295 -0.917894,0.380197 -0.234902,0.234902 -0.380197,0.559433 -0.380197,0.917894 0,0.358457 0.145295,0.682988 0.380197,0.917886 0.234902,0.234902 0.559429,0.380197 0.917894,0.380197 0.358465,0 0.682992,-0.145295 0.917894,-0.380197 0.234902,-0.234898 0.380197,-0.559429 0.380197,-0.917886 0,-0.358461 -0.145295,-0.682992 -0.380197,-0.917894z"/>
   <polygon id="_322876856" class="fil6" points="3.41333,3.32203 3.62633,3.98191 4.31974,3.98057 3.75798,4.38707 3.97353,5.04613 3.41333,4.63748 2.85313,5.04613 3.06868,4.38707 2.50692,3.98057 3.20033,3.98191 "/>
   <g>
    <polygon id="_322876376" class="fil7" points="3.39997,1.8446 3.13436,0.853331 2.55856,1.00761 2.89894,2.27794 2.92284,2.36713 3.25996,2.36713 3.32499,2.36713 3.36465,2.36713 3.40707,2.36713 3.44674,2.36713 3.53998,2.36713 3.51608,2.27794 3.49336,2.19314 3.47352,2.11912 3.45232,2.03996 3.43248,1.96594 "/>
    <polygon id="_322876328" class="fil6" points="3.00364,2.27794 2.65624,0.981445 2.61923,0.991358 2.96397,2.27794 2.98787,2.36713 3.02754,2.36713 "/>
    <polygon id="_322876232" class="fil6" points="3.08572,2.27794 2.73282,0.960921 2.69581,0.970839 3.04605,2.27794 3.06995,2.36713 3.10961,2.36713 "/>
    <polygon id="_322876208" class="fil6" points="3.32642,2.11912 2.99711,0.890106 2.9601,0.900024 3.30659,2.19314 3.32931,2.27794 3.33909,2.31447 3.3532,2.36713 3.36465,2.36713 3.39287,2.36713 3.37876,2.31447 3.36897,2.27794 3.35893,2.24046 "/>
    <polygon id="_322876304" class="fil6" points="3.36746,1.96594 3.07369,0.869591 3.03668,0.879504 3.34762,2.03996 3.38014,2.1613 3.39997,2.23532 3.41139,2.27794 3.42118,2.31447 3.43529,2.36713 3.44674,2.36713 3.47495,2.36713 3.46085,2.31447 3.45106,2.27794 3.44102,2.24046 3.4198,2.1613 3.39997,2.08728 "/>
   </g>
  </g>
 </g>
 <rect class="fil8" width="6.82666" height="6.82666"/>
</svg>
