<?xml version="1.0" encoding="UTF-8"?>
<!DOCTYPE svg PUBLIC "-//W3C//DTD SVG 1.1//EN" "http://www.w3.org/Graphics/SVG/1.1/DTD/svg11.dtd">
<!-- Creator: CorelDRAW -->
<svg xmlns="http://www.w3.org/2000/svg" xml:space="preserve" width="6.82666in" height="6.82666in" style="shape-rendering:geometricPrecision; text-rendering:geometricPrecision; image-rendering:optimizeQuality; fill-rule:evenodd; clip-rule:evenodd"
viewBox="0 0 6.82666 6.82666"
 xmlns:xlink="http://www.w3.org/1999/xlink">
 <defs>
  <style type="text/css">
   <![CDATA[
    .fil13 {fill:none}
    .fil6 {fill:#25939B}
    .fil7 {fill:#32A6B0}
    .fil2 {fill:#3D4F58}
    .fil8 {fill:#3DB7C1}
    .fil1 {fill:#455A64}
    .fil0 {fill:#475E68}
    .fil9 {fill:#54C3CA}
    .fil10 {fill:#72D1D4}
    .fil5 {fill:#8DDCDE}
    .fil4 {fill:#334149;fill-rule:nonzero}
    .fil3 {fill:#37474F;fill-rule:nonzero}
    .fil12 {fill:#85BABF;fill-rule:nonzero}
    .fil11 {fill:#E0E0E0;fill-rule:nonzero}
   ]]>
  </style>
 </defs>
 <g id="Layer_x0020_1">
  <metadata id="CorelCorpID_0Corel-Layer"/>
  <path class="fil0" d="M1.81169 2.4638l0.0165276 -0.0186063 0.229189 -0.258024 2.65296 0 0.301047 0.273957c0.000980315,0.000889764 0.00196063,0.00178346 0.00293701,0.00267323 -1.06061,0.0260394 -2.14031,0.0381929 -3.20266,0z"/>
  <polygon class="fil1" points="5.01435,2.94112 1.81161,2.94103 1.80799,2.9526 0.853331,4.63949 5.97333,4.63949 "/>
  <polygon class="fil2" points="5.01435,2.4638 5.01435,2.93119 5.01435,2.94112 1.81161,2.94103 1.81169,2.4638 "/>
  <polygon class="fil3" points="4.83557,2.94111 1.98967,2.94104 1.98967,2.94332 1.98714,2.95141 1.12292,4.46885 1.20984,4.46885 5.61085,4.46885 5.69778,4.46885 4.89535,3.04704 "/>
  <polygon class="fil4" points="4.83561,2.63444 4.83551,2.93239 4.83551,2.9409 4.83557,2.94111 1.98967,2.94104 1.98967,2.63444 "/>
  <path class="fil5" d="M2.10484 3.13319c-0.0154882,0.0280118 -0.0305748,0.0560197 -0.045248,0.0840276 -0.11089,0.208654 -0.220894,0.417697 -0.332661,0.625957 -0.112043,0.208768 -0.227079,0.417165 -0.343264,0.625681 0.679185,0 1.35878,0 2.03796,0 0.679185,0 1.35919,0 2.03878,0 -0.119453,-0.207972 -0.237736,-0.415827 -0.352642,-0.624059 -0.11461,-0.207717 -0.22748,-0.41622 -0.339996,-0.624331 -0.0191654,-0.0349094 -0.0379173,-0.0698189 -0.0566693,-0.104732 -0.432949,0.00298031 -0.867122,0.00596063 -1.30089,0.00879528 -0.434579,0.00284646 -0.869976,0.0058189 -1.30537,0.00866142z"/>
  <path class="fil6" d="M2.50029 3.26038c0.0684882,-0.0212441 0.136571,-0.0423504 0.209543,-0.0423504 0.0733819,0 0.135756,0.0211063 0.198945,0.0423504 0.0513701,0.017185 0.103142,0.0343701 0.147984,0.0343701 0.0444409,0 0.098252,-0.017185 0.152472,-0.0343701 0.0652283,-0.0212441 0.130457,-0.0423504 0.203839,-0.0423504 0.0733819,0 0.13861,0.0211063 0.204244,0.0423504 0.053811,0.017185 0.108031,0.0343701 0.152469,0.0343701 0.0448425,0 0.0962087,-0.017185 0.147579,-0.0343701 0.063189,-0.0212441 0.125154,-0.0423504 0.198535,-0.0423504 0.0733819,0 0.141465,0.0211063 0.209957,0.0423504 0.0558504,0.017185 0.112516,0.0343701 0.156953,0.0343701 0.0448425,0 0.0937638,-0.017185 0.143091,-0.0343701 0.0460709,-0.0162362 0.0913189,-0.0323386 0.14228,-0.0391063 0,-0.000267717 0,-0.00053937 -0.000405512,-0.000811024 -0.0191654,-0.0349094 -0.0379173,-0.0698189 -0.0566693,-0.104732 -0.432949,0.00298031 -0.867122,0.00596063 -1.30089,0.00879528 -0.434579,0.00284646 -0.869976,0.0058189 -1.30537,0.00866142 -0.0154882,0.0280118 -0.0305748,0.0560197 -0.045248,0.0840276 -0.000818898,0.00135433 -0.00163386,0.00270866 -0.00204331,0.00405906 0.0513701,0.00676772 0.096622,0.0228701 0.142689,0.0391063 0.0493307,0.017185 0.099063,0.0343701 0.1435,0.0343701 0.044437,0 0.100697,-0.017185 0.156547,-0.0343701z"/>
  <path class="fil7" d="M3.20108 3.52965c0.0680787,-0.0211063 0.136161,-0.0423504 0.213622,-0.0423504 0.0766417,0 0.14513,0.0212441 0.213618,0.0423504 0.0566693,0.017185 0.113339,0.0343701 0.159811,0.0343701 0.0464724,0 0.100697,-0.017185 0.154913,-0.0343701 0.0660433,-0.0211063 0.131272,-0.0423504 0.208323,-0.0423504 0.0766417,0 0.147984,0.0212441 0.219331,0.0423504 0.0578858,0.017185 0.116594,0.0343701 0.163476,0.0343701 0.0464724,0 0.0986575,-0.017185 0.150433,-0.0343701 0.0635945,-0.0211063 0.126783,-0.0423504 0.203429,-0.0423504 0.00814961,0 0.0167126,0.000271654 0.0248661,0.000677165 -0.0477008,-0.0889016 -0.0962126,-0.177803 -0.144724,-0.266705 -0.0509606,0.00676772 -0.0962087,0.0228701 -0.14228,0.0391063 -0.0493268,0.017185 -0.098248,0.0343701 -0.143091,0.0343701 -0.044437,0 -0.101102,-0.017185 -0.156953,-0.0343701 -0.0684921,-0.0212441 -0.136575,-0.0423504 -0.209957,-0.0423504 -0.0733819,0 -0.135346,0.0211063 -0.198535,0.0423504 -0.0513701,0.017185 -0.102736,0.0343701 -0.147579,0.0343701 -0.044437,0 -0.0986575,-0.017185 -0.152469,-0.0343701 -0.0656339,-0.0212441 -0.130862,-0.0423504 -0.204244,-0.0423504 -0.0733819,0 -0.13861,0.0211063 -0.203839,0.0423504 -0.0542205,0.017185 -0.108031,0.0343701 -0.152472,0.0343701 -0.0448425,0 -0.0966142,-0.017185 -0.147984,-0.0343701 -0.063189,-0.0212441 -0.125563,-0.0423504 -0.198945,-0.0423504 -0.0729724,0 -0.141055,0.0211063 -0.209543,0.0423504 -0.0558504,0.017185 -0.11211,0.0343701 -0.156547,0.0343701 -0.044437,0 -0.0941693,-0.017185 -0.1435,-0.0343701 -0.0460669,-0.0162362 -0.0913189,-0.0323386 -0.142689,-0.0391063 -0.0476969,0.0889016 -0.0945787,0.177803 -0.14187,0.266705 0.00856299,-0.000405512 0.0167165,-0.000677165 0.0248701,-0.000677165 0.0766417,0 0.14024,0.0212441 0.204244,0.0423504 0.0521811,0.017185 0.104366,0.0343701 0.151248,0.0343701 0.0464724,0 0.104772,-0.017185 0.162661,-0.0343701 0.0713425,-0.0211063 0.14187,-0.0423504 0.218512,-0.0423504 0.0770512,0 0.142689,0.0212441 0.209547,0.0423504 0.053811,0.017185 0.108441,0.0343701 0.154917,0.0343701 0.0468819,0 0.103142,-0.017185 0.159398,-0.0343701z"/>
  <path class="fil8" d="M3.19456 3.79906c0.070937,-0.0211102 0.141465,-0.0423543 0.222181,-0.0423543 0.0799055,0 0.151248,0.0212441 0.222591,0.0423543 0.0587047,0.017185 0.117409,0.0343701 0.165925,0.0343701 0.0485118,0 0.105181,-0.017185 0.161441,-0.0343701 0.0693031,-0.0211102 0.137382,-0.0423543 0.217287,-0.0423543 0.0799016,0 0.154098,0.0212441 0.228299,0.0423543 0.0599252,0.017185 0.120669,0.0343701 0.169185,0.0343701 0.0485118,0 0.103142,-0.017185 0.157768,-0.0343701 0.0668583,-0.0211102 0.132496,-0.0423543 0.212398,-0.0423543 0.0391339,0 0.0774567,0.00500787 0.114965,0.0125866 -0.0517756,-0.0937717 -0.103142,-0.187543 -0.153693,-0.281311 -0.00815354,-0.000405512 -0.0167165,-0.000677165 -0.0248661,-0.000677165 -0.0766457,0 -0.139835,0.0212441 -0.203429,0.0423504 -0.0517756,0.017185 -0.103961,0.0343701 -0.150433,0.0343701 -0.0468819,0 -0.105591,-0.017185 -0.163476,-0.0343701 -0.0713465,-0.0211063 -0.142689,-0.0423504 -0.219331,-0.0423504 -0.0770512,0 -0.14228,0.0212441 -0.208323,0.0423504 -0.0542165,0.017185 -0.108441,0.0343701 -0.154913,0.0343701 -0.0464724,0 -0.103142,-0.017185 -0.159811,-0.0343701 -0.0684882,-0.0211063 -0.136976,-0.0423504 -0.213618,-0.0423504 -0.0774606,0 -0.145543,0.0212441 -0.213622,0.0423504 -0.0562559,0.017185 -0.112516,0.0343701 -0.159398,0.0343701 -0.0464764,0 -0.101106,-0.017185 -0.154917,-0.0343701 -0.0668583,-0.0211063 -0.132496,-0.0423504 -0.209547,-0.0423504 -0.0766417,0 -0.147169,0.0212441 -0.218512,0.0423504 -0.0578898,0.017185 -0.116189,0.0343701 -0.162661,0.0343701 -0.0468819,0 -0.0990669,-0.017185 -0.151248,-0.0343701 -0.0640039,-0.0211063 -0.127602,-0.0423504 -0.204244,-0.0423504 -0.00815354,0 -0.0163071,0.000271654 -0.0248701,0.000677165 -0.0497323,0.0937677 -0.099063,0.187539 -0.148799,0.281311 0.0375079,-0.00757874 0.0750118,-0.0125866 0.11415,-0.0125866 0.0799055,0 0.146354,0.0212441 0.213622,0.0423543 0.054626,0.017185 0.109661,0.0343701 0.158173,0.0343701 0.0485157,0 0.108854,-0.017185 0.16878,-0.0343701 0.0737874,-0.0211102 0.147169,-0.0423543 0.227075,-0.0423543 0.0799016,0 0.148799,0.0212441 0.218512,0.0423543 0.0562598,0.017185 0.113335,0.0343701 0.161846,0.0343701 0.0485157,0 0.106811,-0.017185 0.165516,-0.0343701z"/>
  <path class="fil9" d="M3.98911 4.06846c0.071748,-0.0212441 0.143091,-0.0423504 0.226256,-0.0423504 0.0827598,0 0.158996,0.0211063 0.235638,0.0423504 0.062374,0.017185 0.124744,0.0343701 0.175299,0.0343701 0.0501457,0 0.107217,-0.017185 0.163886,-0.0343701 0.0693031,-0.0212441 0.138606,-0.0423504 0.221772,-0.0423504 0.0750157,0 0.145543,0.017185 0.216476,0.0359961 -0.0542205,-0.097563 -0.108441,-0.195122 -0.161846,-0.292819 -0.0375079,-0.00757874 -0.0758307,-0.0125866 -0.114965,-0.0125866 -0.0799016,0 -0.145539,0.0212441 -0.212398,0.0423543 -0.054626,0.017185 -0.109256,0.0343701 -0.157768,0.0343701 -0.0485157,0 -0.10926,-0.017185 -0.169185,-0.0343701 -0.0742008,-0.0211102 -0.148398,-0.0423543 -0.228299,-0.0423543 -0.0799055,0 -0.147984,0.0212441 -0.217287,0.0423543 -0.0562598,0.017185 -0.112929,0.0343701 -0.161441,0.0343701 -0.0485157,0 -0.10722,-0.017185 -0.165925,-0.0343701 -0.0713425,-0.0211102 -0.142685,-0.0423543 -0.222591,-0.0423543 -0.0807165,0 -0.151244,0.0212441 -0.222181,0.0423543 -0.0587047,0.017185 -0.117,0.0343701 -0.165516,0.0343701 -0.0485118,0 -0.105587,-0.017185 -0.161846,-0.0343701 -0.0697126,-0.0211102 -0.13861,-0.0423543 -0.218512,-0.0423543 -0.0799055,0 -0.153287,0.0212441 -0.227075,0.0423543 -0.0599252,0.017185 -0.120264,0.0343701 -0.16878,0.0343701 -0.0485118,0 -0.103547,-0.017185 -0.158173,-0.0343701 -0.0672677,-0.0211102 -0.133717,-0.0423543 -0.213622,-0.0423543 -0.0391378,0 -0.0766417,0.00500787 -0.11415,0.0125866 -0.0525906,0.0976969 -0.105177,0.195256 -0.157768,0.292819 0.0705276,-0.018811 0.140646,-0.0359961 0.215657,-0.0359961 0.0831693,0 0.152878,0.0211063 0.222591,0.0423504 0.0566654,0.017185 0.114146,0.0343701 0.164291,0.0343701 0.0505551,0 0.11252,-0.017185 0.174894,-0.0343701 0.0762362,-0.0212441 0.152063,-0.0423504 0.234823,-0.0423504 0.0831614,0 0.154909,0.0211063 0.227071,0.0423504 0.0587047,0.017185 0.117815,0.0343701 0.167961,0.0343701 0.0505551,0 0.11089,-0.017185 0.171634,-0.0343701 0.0737874,-0.0212441 0.147169,-0.0423504 0.23074,-0.0423504 0.0827598,0 0.156547,0.0211063 0.230744,0.0423504 0.0607441,0.017185 0.121894,0.0343701 0.172039,0.0343701 0.0501457,0 0.108846,-0.017185 0.167555,-0.0343701z"/>
  <path class="fil10" d="M5.396 4.35749c-0.0562598,-0.0983701 -0.11211,-0.196878 -0.167555,-0.295382 -0.0709331,-0.018811 -0.141461,-0.0359961 -0.216476,-0.0359961 -0.0831654,0 -0.152469,0.0211063 -0.221772,0.0423504 -0.0566693,0.017185 -0.11374,0.0343701 -0.163886,0.0343701 -0.0505551,0 -0.112925,-0.017185 -0.175299,-0.0343701 -0.0766417,-0.0212441 -0.152878,-0.0423504 -0.235638,-0.0423504 -0.0831654,0 -0.154508,0.0211063 -0.226256,0.0423504 -0.0587087,0.017185 -0.117409,0.0343701 -0.167555,0.0343701 -0.0501457,0 -0.111295,-0.017185 -0.172039,-0.0343701 -0.0741969,-0.0212441 -0.147984,-0.0423504 -0.230744,-0.0423504 -0.0835709,0 -0.156953,0.0211063 -0.23074,0.0423504 -0.0607441,0.017185 -0.121079,0.0343701 -0.171634,0.0343701 -0.0501457,0 -0.109256,-0.017185 -0.167961,-0.0343701 -0.0721614,-0.0212441 -0.143909,-0.0423504 -0.227071,-0.0423504 -0.0827598,0 -0.158587,0.0211063 -0.234823,0.0423504 -0.062374,0.017185 -0.124339,0.0343701 -0.174894,0.0343701 -0.0501457,0 -0.107626,-0.017185 -0.164291,-0.0343701 -0.0697126,-0.0212441 -0.139421,-0.0423504 -0.222591,-0.0423504 -0.0750118,0 -0.14513,0.017185 -0.215657,0.0359961 -0.053815,0.0985039 -0.10885,0.197012 -0.163476,0.295382 0.0256811,-0.0058189 0.0525866,-0.0127205 0.0790866,-0.019752 0.0807205,-0.0211102 0.161437,-0.0423543 0.247457,-0.0423543 0.0856142,0 0.157772,0.0212441 0.230339,0.0423543 0.0591102,0.017185 0.11863,0.0343661 0.170815,0.0343661 0.0517717,0 0.11578,-0.0171811 0.179783,-0.0343661 0.0786811,-0.0211102 0.157362,-0.0423543 0.242972,-0.0423543 0.0860197,0 0.160217,0.0212441 0.234819,0.0423543 0.0611535,0.017185 0.122303,0.0343661 0.174079,0.0343661 0.0521811,0 0.114555,-0.0171811 0.177339,-0.0343661 0.0758268,-0.0211102 0.152059,-0.0423543 0.238488,-0.0423543 0.0860197,0 0.162256,0.0212441 0.238488,0.0423543 0.063189,0.017185 0.125972,0.0343661 0.178157,0.0343661 0.0517717,0 0.112925,-0.0171811 0.17326,-0.0343661 0.0741969,-0.0211102 0.14839,-0.0423543 0.234409,-0.0423543 0.0856142,0 0.164295,0.0212441 0.243382,0.0423543 0.0644134,0.017185 0.128827,0.0343661 0.180602,0.0343661 0.0521811,0 0.111295,-0.0171811 0.169996,-0.0343661 0.0721614,-0.0211102 0.144319,-0.0423543 0.229929,-0.0423543 0.0860197,0 0.16674,0.0212441 0.247866,0.0423543 0.0269055,0.0070315 0.053811,0.0139331 0.0790906,0.019752z"/>
  <path class="fil11" d="M2.60219 3.42928c0,0.0160433 0.0119409,0.0290512 0.0266654,0.0290512 0.0147244,0 0.0266654,-0.0130079 0.0266654,-0.0290512l0 -0.904343c0,-0.0394882 -9.44882e-005,-0.00932283 -6.29921e-005,-0.018685 0.000385827,-0.113732 0.00105512,-0.310512 -0.103811,-0.310512 -0.0505984,0 -0.0816378,0.0254961 -0.100024,0.0715669 -0.0156457,0.0391969 -0.0205157,0.0932008 -0.0205157,0.158969 0,0.0160433 0.011937,0.0290512 0.0266654,0.0290512 0.0147244,0 0.0266614,-0.0130079 0.0266614,-0.0290512 0,-0.0586378 0.0037874,-0.105386 0.0159331,-0.135823 0.00940157,-0.0235669 0.025315,-0.0366142 0.0512795,-0.0366142 0.0515551,0 0.0510118,0.159961 0.0506969,0.252413 -7.48031e-005,0.0224764 -0.000153543,-0.00904331 -0.000153543,0.018685l0 0.904343z"/>
  <path class="fil11" d="M3.04492 3.42928c0,0.0160433 0.011937,0.0290512 0.0266614,0.0290512 0.0147283,0 0.0266654,-0.0130079 0.0266654,-0.0290512l0 -0.904346c0,-0.0394882 -9.05512e-005,-0.00932283 -6.29921e-005,-0.018685 0.000385827,-0.113732 0.00105906,-0.310512 -0.103807,-0.310512 -0.0506024,0 -0.0816417,0.0254961 -0.100024,0.0715669 -0.0156457,0.0391969 -0.0205197,0.0932008 -0.0205197,0.158969 0,0.0160433 0.0119409,0.0290512 0.0266654,0.0290512 0.0147244,0 0.0266654,-0.0130079 0.0266654,-0.0290512 0,-0.0586378 0.00378346,-0.105386 0.0159291,-0.135823 0.00940551,-0.0235669 0.0253189,-0.0366142 0.0512835,-0.0366142 0.0515551,0 0.0510079,0.159961 0.0506929,0.252413 -7.08661e-005,0.0224764 -0.000149606,-0.00904331 -0.000149606,0.018685l0 0.904346z"/>
  <g id="_322883288">
   <polygon id="_322883504" class="fil12" points="2.65552,3.564 2.65552,3.21112 2.60219,3.21146 2.60219,3.564 "/>
   <polygon id="_322883600" class="fil12" points="3.09825,3.564 3.09825,3.20831 3.04492,3.20865 3.04492,3.564 "/>
  </g>
  <polygon class="fil11" points="2.62885,2.58029 3.07158,2.58029 3.07158,2.63839 2.62885,2.63839 "/>
  <polygon class="fil11" points="2.62885,2.82358 3.07158,2.82358 3.07158,2.88169 2.62885,2.88169 "/>
  <polygon class="fil11" points="2.62885,3.06688 3.07158,3.06688 3.07158,3.12498 2.62885,3.12498 "/>
  <polygon class="fil12" points="2.62885,3.31017 3.07158,3.31017 3.07158,3.36827 2.62885,3.36827 "/>
 </g>
 <rect class="fil13" width="6.82666" height="6.82666"/>
</svg>
