<?xml version="1.0" encoding="UTF-8"?>
<!DOCTYPE svg PUBLIC "-//W3C//DTD SVG 1.1//EN" "http://www.w3.org/Graphics/SVG/1.1/DTD/svg11.dtd">
<!-- Creator: CorelDRAW -->
<svg xmlns="http://www.w3.org/2000/svg" xml:space="preserve" width="6.82666in" height="6.82666in" style="shape-rendering:geometricPrecision; text-rendering:geometricPrecision; image-rendering:optimizeQuality; fill-rule:evenodd; clip-rule:evenodd"
viewBox="0 0 6.82666 6.82666"
 xmlns:xlink="http://www.w3.org/1999/xlink">
 <defs>
  <style type="text/css">
   <![CDATA[
    .fil13 {fill:none}
    .fil7 {fill:#0097A7}
    .fil8 {fill:#00ACC1}
    .fil9 {fill:#26C6DA}
    .fil10 {fill:#4DD0E1}
    .fil11 {fill:#73D7E3}
    .fil12 {fill:#80DEEA}
    .fil3 {fill:#AC968D}
    .fil5 {fill:#BCAAA4}
    .fil6 {fill:#EF5350}
    .fil2 {fill:#315159;fill-rule:nonzero}
    .fil1 {fill:#425F67;fill-rule:nonzero}
    .fil0 {fill:#999999;fill-rule:nonzero}
    .fil4 {fill:#EF5350;fill-rule:nonzero}
   ]]>
  </style>
 </defs>
 <g id="Layer_x0020_1">
  <metadata id="CorelCorpID_0Corel-Layer"/>
  <g id="_322885208">
   <polygon id="_322888928" class="fil0" points="3.85328,4.49967 3.80641,5.17155 3.77985,5.16978 3.82672,4.4979 "/>
   <polygon id="_322888400" class="fil0" points="2.91973,4.4979 2.9666,5.16978 2.94004,5.17155 2.89317,4.49967 "/>
   <polygon id="_322887872" class="fil1" points="3.64743,4.53577 3.52243,5.50192 3.47301,5.49567 3.59802,4.52952 "/>
   <polygon id="_322887824" class="fil1" points="3.14222,4.52952 3.26722,5.49567 3.21781,5.50192 3.0928,4.53577 "/>
   <polygon id="_322888040" class="fil2" points="1.23973,2.47192 2.91595,4.37922 2.88396,4.40816 1.20774,2.50087 "/>
   <polygon id="_322887632" class="fil2" points="2.19925,1.76104 3.11374,4.36622 3.07294,4.38044 2.15845,1.77526 "/>
   <polygon id="_322887992" class="fil2" points="3.39179,1.53135 3.39179,4.37333 3.34845,4.37333 3.34845,1.53135 "/>
   <polygon id="_322888256" class="fil2" points="5.61339,2.50326 3.8563,4.40816 3.8243,4.37922 5.58139,2.47431 "/>
   <polygon id="_322887848" class="fil2" points="4.5818,1.77526 3.66731,4.38044 3.62652,4.36622 4.541,1.76104 "/>
   <g>
    <polygon id="_322888064" class="fil3" points="3.30794,5.28004 3.43229,5.28004 3.44562,5.42458 3.29461,5.42458 "/>
    <path id="_322887320" class="fil4" d="M2.99846 5.14599c-0.0209409,-0.0205945 -0.0546142,-0.020315 -0.0752087,0.000625984 -0.0205945,0.0209409 -0.020315,0.0546142 0.000625984,0.0752087l0.235102 0.231819 -0.000106299 0.000106299c0.0103898,0.0102441 0.0239213,0.0153504 0.0374449,0.0153504l0 7.87402e-006 0.351898 0c0.0157835,0 0.0299646,-0.0068622 0.0397323,-0.0177638l0.22798 -0.220472c0.0211693,-0.0203622 0.0218228,-0.0540394 0.00146063,-0.0752087 -0.0203622,-0.0211693 -0.0540394,-0.0218228 -0.0752087,-0.00146063l-0.215327 0.208236 -0.0724724 0c-0.0208504,0.0322913 -0.0500709,0.052374 -0.0824252,0.052374 -0.0323543,0 -0.0615748,-0.0200827 -0.0824252,-0.052374l-0.0715551 0 -0.219516 -0.216449z"/>
    <ellipse id="_322887200" class="fil5" cx="3.37012" cy="5.1622" rx="0.150453" ry="0.171875"/>
    <path id="_322887344" class="fil6" d="M3.13915 5.36369l0.149362 0c0.0207953,0.031563 0.0496732,0.051126 0.0816102,0.051126 0.031937,0 0.060815,-0.019563 0.0816102,-0.051126l0.135402 0c-0.0409409,0.179469 -0.0704803,0.353563 0.0139606,0.609646 -0.149327,0 -0.298657,0 -0.447984,0 0.0716457,-0.21139 0.0372126,-0.436563 -0.0139606,-0.609646z"/>
   </g>
   <path id="_322887080" class="fil7" d="M5.62623 2.55778l0 -0.00717323c0,-0.937374 -0.990748,-1.69727 -2.2129,-1.69727 -1.22215,0 -2.2129,0.759898 -2.2129,1.69727l0.00148819 0.000570866c0.567083,-1.17586 3.87781,-1.14243 4.42431,0.00660236z"/>
   <path id="_322886792" class="fil8" d="M5.61827 2.54248c-0.0950945,-0.870134 -1.04587,-1.55363 -2.20494,-1.55363 -1.157,0 -2.10645,0.681087 -2.2044,1.54902 0.583134,-1.15686 3.8428,-1.12487 4.40933,0.00461417z"/>
   <path id="_322886672" class="fil9" d="M5.57964 2.47381c-0.209244,-0.770528 -1.09959,-1.34944 -2.16631,-1.34944 -1.06363,0 -1.95187,0.575602 -2.16442,1.3428 0.663575,-1.06139 3.68307,-1.03238 4.33072,0.00664173z"/>
   <path id="_322886528" class="fil10" d="M5.4712 2.33193c-0.324594,-0.627957 -1.1236,-1.07204 -2.05787,-1.07204 -0.928441,0 -1.7232,0.438598 -2.05164,1.06034 0.796429,-0.863602 3.32925,-0.839945 4.10951,0.0117008z"/>
   <path id="_322886360" class="fil11" d="M5.24078 2.13539c-0.398598,-0.446768 -1.06834,-0.739984 -1.82745,-0.739984 -0.749409,0 -1.41172,0.28578 -1.81204,0.722941 0.887106,-0.592079 2.76757,-0.57511 3.63949,0.0170433z"/>
   <path id="_322886624" class="fil12" d="M4.8299 1.92431c-0.383819,-0.245571 -0.877657,-0.393386 -1.41657,-0.393386 -0.524929,0 -1.00707,0.14028 -1.38645,0.374504 0.813854,-0.305079 1.99996,-0.294559 2.80302,0.0188819z"/>
   <rect id="_322886120" class="fil10" x="2.81851" y="4.32594" width="1.10322" height="0.252436" rx="0.126217" ry="0.126217"/>
  </g>
 </g>
 <rect class="fil13" width="6.82666" height="6.82666"/>
</svg>
