<?xml version="1.0" encoding="UTF-8"?>
<!DOCTYPE svg PUBLIC "-//W3C//DTD SVG 1.1//EN" "http://www.w3.org/Graphics/SVG/1.1/DTD/svg11.dtd">
<!-- Creator: CorelDRAW -->
<svg xmlns="http://www.w3.org/2000/svg" xml:space="preserve" width="6.82666in" height="6.82666in" style="shape-rendering:geometricPrecision; text-rendering:geometricPrecision; image-rendering:optimizeQuality; fill-rule:evenodd; clip-rule:evenodd"
viewBox="0 0 6.82666 6.82666"
 xmlns:xlink="http://www.w3.org/1999/xlink">
 <defs>
  <style type="text/css">
   <![CDATA[
    .fil5 {fill:none}
    .fil2 {fill:#CF515D}
    .fil1 {fill:#FF6472}
    .fil4 {fill:#AD4650;fill-rule:nonzero}
    .fil3 {fill:#D55763;fill-rule:nonzero}
    .fil0 {fill:#FFC855;fill-rule:nonzero}
   ]]>
  </style>
 </defs>
 <g id="Layer_x0020_1">
  <metadata id="CorelCorpID_0Corel-Layer"/>
  <g id="_322890392">
   <path id="_322891448" class="fil0" d="M1.20218 4.09844c-0.111953,-0.149335 -0.299579,-0.446941 -0.299346,-0.76398 0.000240157,-0.325531 0.191,-0.663449 0.8395,-0.870803 0.0352835,-0.0112835 0.0697874,-0.0217047 0.103555,-0.0313465 0.0421299,-0.0760472 0.0931929,-0.154504 0.154098,-0.235035 0.302996,-0.40063 0.62211,-0.638567 0.935516,-0.756 0.267677,-0.100299 0.530319,-0.112409 0.775004,-0.0624528 0.243299,0.0496772 0.467894,0.160539 0.661256,0.306772 0.250299,0.189307 0.449492,0.439126 0.569736,0.692728 0.14639,0.0613543 0.279039,0.149094 0.389213,0.261894 0.178209,0.182457 0.296772,0.429343 0.318732,0.734772 0.00887402,0.123402 0.00194882,0.256055 -0.0232441,0.397461l-0.160173 -0.0279724c0.0228898,-0.128472 0.029252,-0.247917 0.0213346,-0.358047 -0.0190079,-0.264409 -0.120531,-0.477 -0.272969,-0.633075 -0.0562283,-0.0575709 -0.11952,-0.107598 -0.188264,-0.149854 0.0617402,0.230071 0.0384567,0.440366 -0.0389764,0.620874 -0.0755984,0.17624 -0.202472,0.322913 -0.351783,0.431031 -0.148835,0.107772 -0.320992,0.177866 -0.487535,0.201181 -0.191496,0.026811 -0.376941,-0.00806299 -0.515413,-0.11776 -0.138925,-0.110047 -0.210307,-0.270047 -0.222878,-0.444862 -0.0079252,-0.110193 0.00771654,-0.226374 0.0446339,-0.339118 0.0365236,-0.111539 0.0942323,-0.220327 0.170878,-0.317079 0.154118,-0.194559 0.384276,-0.339728 0.672295,-0.360437 0.122984,-0.00884646 0.244669,-0.00258268 0.361563,0.0182402 0.020374,0.00362992 0.0406142,0.00770472 0.0606929,0.0122165 -0.109811,-0.181169 -0.262685,-0.354083 -0.445728,-0.492524 -0.175496,-0.132728 -0.378004,-0.233071 -0.595783,-0.277535 -0.216398,-0.0441811 -0.448858,-0.0334055 -0.686024,0.0554606 -0.285626,0.10702 -0.579323,0.327657 -0.862417,0.701972 -0.0210394,0.027815 -0.040748,0.0552835 -0.0592165,0.0823937 0.349217,-0.0694567 0.60102,-0.0403386 0.769264,0.0450945 0.112343,0.0570472 0.189071,0.138606 0.234091,0.233591 0.0445906,0.0940748 0.0571772,0.199969 0.0418031,0.307079 -0.0301417,0.210004 -0.169429,0.427146 -0.385224,0.564024 -0.196394,0.124571 -0.412181,0.150004 -0.596516,0.0954291 -0.112709,-0.033374 -0.213583,-0.0966339 -0.291339,-0.18552 -0.0774921,-0.0885827 -0.13165,-0.202051 -0.151173,-0.336024 -0.0199488,-0.136878 -0.00343701,-0.295535 0.0622598,-0.470689 -0.530811,0.179543 -0.688492,0.448268 -0.688685,0.703921 -0.00019685,0.270091 0.167106,0.533583 0.266929,0.666736l-0.129665 0.0972441zm1.56443 -1.53087c-0.160941,-0.0817244 -0.423146,-0.0989488 -0.809681,0.00224016 -0.0972953,0.195697 -0.125323,0.367531 -0.104776,0.508531 0.0147913,0.101492 0.0550354,0.186551 0.112402,0.25213 0.0571063,0.0652756 0.131579,0.111854 0.215067,0.136575 0.141449,0.041878 0.308984,0.021122 0.463677,-0.0769961 0.17515,-0.111091 0.287724,-0.284047 0.311492,-0.449618 0.0109724,-0.0764409 0.0026378,-0.150642 -0.0278228,-0.214913 -0.0300276,-0.0633543 -0.0825118,-0.118421 -0.160358,-0.157949zm2.07337 -0.0140354c-0.00595276,-0.015878 -0.0122756,-0.0317795 -0.0189528,-0.0476929 -0.0611457,-0.0217165 -0.124756,-0.0384606 -0.190075,-0.0500945 -0.104366,-0.0185945 -0.212791,-0.0242008 -0.32215,-0.0163346 -0.238252,0.017126 -0.428846,0.137472 -0.556618,0.29878 -0.0641969,0.0810354 -0.112689,0.172618 -0.143547,0.26687 -0.0304685,0.0930315 -0.0434252,0.188102 -0.0370039,0.277461 0.00943701,0.131264 0.0611142,0.249886 0.16122,0.329185 0.101386,0.080315 0.243094,0.105024 0.39274,0.0840709 0.140559,-0.0196772 0.286886,-0.0795827 0.414445,-0.171949 0.127075,-0.0920157 0.234547,-0.215657 0.297756,-0.36302 0.0739252,-0.172339 0.0877992,-0.378783 0.00218504,-0.607276z"/>
   <polygon id="_322890680" class="fil1" points="1.41643,3.94674 2.33134,5.28188 2.02456,5.47648 1.11758,4.15291 "/>
   <polygon id="_322891328" class="fil2" points="2.17795,5.37918 2.02456,5.47648 1.11758,4.15291 1.26476,4.05137 "/>
   <polygon id="_322890608" class="fil3" points="1.67654,3.89868 0.976213,4.38182 0.853327,4.20385 1.55365,3.72071 "/>
   <polygon id="_322890656" class="fil4" points="1.32605,4.14048 0.976213,4.38182 0.853327,4.20385 1.20349,3.96228 "/>
   <polygon id="_322890584" class="fil1" points="5.71976,3.77492 5.49759,5.37814 5.13973,5.31554 5.35998,3.72622 "/>
   <polygon id="_322890200" class="fil2" points="5.71976,3.77492 5.49759,5.37814 5.31866,5.34684 5.53711,3.7502 "/>
   <polygon id="_322890056" class="fil3" points="5.94452,3.91452 5.1014,3.80038 5.13021,3.58597 5.97333,3.7001 "/>
   <polygon id="_322889960" class="fil4" points="5.94452,3.91452 5.52244,3.85738 5.55177,3.64304 5.97333,3.7001 "/>
  </g>
 </g>
 <rect class="fil5" width="6.82666" height="6.82666"/>
</svg>
