<?xml version="1.0" encoding="UTF-8"?>
<!DOCTYPE svg PUBLIC "-//W3C//DTD SVG 1.1//EN" "http://www.w3.org/Graphics/SVG/1.1/DTD/svg11.dtd">
<!-- Creator: CorelDRAW -->
<svg xmlns="http://www.w3.org/2000/svg" xml:space="preserve" width="6.82666in" height="6.82666in" style="shape-rendering:geometricPrecision; text-rendering:geometricPrecision; image-rendering:optimizeQuality; fill-rule:evenodd; clip-rule:evenodd"
viewBox="0 0 6.82666 6.82666"
 xmlns:xlink="http://www.w3.org/1999/xlink">
 <defs>
  <style type="text/css">
   <![CDATA[
    .fil13 {fill:none}
    .fil12 {fill:#212121}
    .fil3 {fill:#263238}
    .fil5 {fill:#455A64}
    .fil6 {fill:#546E7A}
    .fil4 {fill:#CFD8DC}
    .fil10 {fill:#096888;fill-rule:nonzero}
    .fil9 {fill:#12576F;fill-rule:nonzero}
    .fil11 {fill:#42A5F5;fill-rule:nonzero}
    .fil0 {fill:#455A64;fill-rule:nonzero}
    .fil2 {fill:#526D74;fill-rule:nonzero}
    .fil8 {fill:#CFD8DC;fill-rule:nonzero}
    .fil1 {fill:#F1BC90;fill-rule:nonzero}
    .fil7 {fill:white;fill-rule:nonzero}
   ]]>
  </style>
 </defs>
 <g id="Layer_x0020_1">
  <metadata id="CorelCorpID_0Corel-Layer"/>
  <g id="_325552808">
   <g>
    <path id="_325557416" class="fil0" d="M3.64443 5.62982c5.51181e-005,-0.000240157 0.0293071,-0.027126 0.0262756,-0.0773661 0.0540984,0.0055 0.077311,0.0248661 0.103654,0.0472795 0.00377559,0.0032126 -0.0123346,0.0139528 -0.00834252,0.0169449 -0.0380157,0.0529291 -0.120591,0.0132441 -0.121587,0.0131417z"/>
    <path id="_325557272" class="fil1" d="M3.45005 5.44907c7.87402e-006,0.0637717 -0.00294882,0.12674 -0.00951969,0.188272l0.299165 0.010311c-0.000866142,-0.0052874 0.0111772,-0.135831 0.0150984,-0.198583l-0.304744 0z"/>
    <path id="_325557248" class="fil2" d="M4.12533 5.92781l-0.0319921 0.037685 -0.00419685 0.00494094 -0.0069252 0 -0.0447244 0 -0.0139567 0 0 -0.0124055 0 -0.0289331c0.0358504,0 0.0938661,-0.0066063 0.101795,-0.0012874z"/>
    <path id="_325557176" class="fil2" d="M4.23298 5.89556l-0.0192165 0.0419843 -0.00285827 0.00624409 -0.0075 0.00126772 -0.0438268 0.00739764 -0.0133031 0.00224803 -0.00288976 -0.0117953 -0.00694488 -0.0283543c0.0264488,-0.00507874 0.0944055,-0.0197598 0.0965394,-0.0189921z"/>
    <path id="_325556816" class="fil2" d="M4.00253 5.93401l-0.0299921 0.0344764 -0.00421654 0.00484646 -0.00679528 0 -0.0447244 0 -0.0145551 0 0.000653543 -0.012937 0.00220866 -0.0437047c0.0135866,0.000519685 0.0931339,0.014374 0.0974213,0.0173189z"/>
    <path id="_325556960" class="fil2" d="M3.68543 5.91907l-0.0423543 0.0467677 -0.0042126 0.00460236 -0.00657874 0 -0.0447283 0 -0.0140079 0 0.000110236 -0.0124528 0.000295276 -0.0336654c0.0283386,9.84252e-005 0.108591,-0.00733858 0.111476,-0.00525197z"/>
    <path id="_325557152" class="fil2" d="M3.53275 5.93463l-0.0285551 0.0312087 -0.0042126 0.00460236 -0.00657874 0 -0.0447244 0 -0.0139724 0 7.08661e-005 -0.0124528 0.000188976 -0.0330984c0.0144764,5.11811e-005 0.0962323,0.00861811 0.0977835,0.00974016z"/>
    <path id="_325557560" class="fil3" d="M3.3914 5.82261c0,0 -0.0189055,0.036937 -0.0193622,0.0696024 -0.000354331,0.0253071 0.0166024,0.0489213 0.0779055,0.0530394 0,0 0.102193,0.00809055 0.264024,-0.0233898 0.0386732,-0.00752362 0.0769606,-0.0078937 0.113886,-0.00480315 0.0711575,0.00595276 0.137106,0.0272835 0.191378,0.0299134 0.0721969,0.0035 0.175335,-0.0211024 0.228185,-0.0555472 0.0520276,-0.0339094 0.0331732,-0.101165 -0.00274016,-0.124646 -0.0142126,-0.00929528 -0.0368268,-0.0159685 -0.0756181,-0.0217677 -0.0393465,-0.00587795 -0.0793701,-0.0120276 -0.119031,-0.0201299l-0.0269567 0.0490315c-0.00259055,0.00472835 -0.00826772,0.00631496 -0.012685,0.00354331 -0.00441339,-0.00277559 -0.0058937,-0.00885827 -0.00330709,-0.0135866l0.0236929 -0.0430906c-0.0160787,-0.0035748 -0.0320669,-0.00751575 -0.0478976,-0.0119449l-0.028122 0.0486417c-0.00268898,0.00466142 -0.00840157,0.00611024 -0.0127559,0.00322835 -0.00435433,-0.00287795 -0.00570472,-0.00899606 -0.00301575,-0.0136614l0.025252 -0.0436772c-0.0152835,-0.00470079 -0.0303937,-0.00990157 -0.0452598,-0.0157087l-0.0309646 0.0469803c-0.00295276,0.00449213 -0.00874409,0.00557087 -0.012937,0.00241339 -0.00419685,-0.00316142 -0.00520472,-0.00936614 -0.00225197,-0.0138583l0.0282598 -0.042878c-0.0130551,-0.00561811 -0.0258937,-0.0117559 -0.0384764,-0.0184803l-0.0369528 0.0424921c-0.00349213,0.00401969 -0.00936614,0.00424803 -0.013122,0.000507874 -0.00375197,-0.00374016 -0.00396063,-0.0100315 -0.000472441,-0.0140512l0.0335 -0.0385197c-0.0170197,-0.0100394 -0.0335079,-0.0212598 -0.0493465,-0.0338622l-0.0351102 0.0405748c-0.00349213,0.00401969 -0.00936614,0.00424409 -0.0131181,0.000507874 -0.00375591,-0.00374016 -0.00396457,-0.0100315 -0.000476378,-0.0140512l0.0340039 -0.0392953c-0.00239764,-0.00209843 -0.00478346,-0.00423228 -0.00714567,-0.00640157 -0.0149685,-0.00883465 -0.0237756,-0.00697638 -0.0396496,-0.0075315 -0.00314173,0.000480315 -0.00624409,0.000944882 -0.0093189,0.00138583 -0.0078189,0.00112992 -0.0154173,0.00211811 -0.0228071,0.00292913 -0.0137362,0.0015 -0.0277205,0.00279528 -0.0414961,0.00355512 -0.154622,0.00855906 -0.198276,-0.0444488 -0.226807,-0.0278819 -0.0120984,0.0144646 -0.0183386,0.0870984 -0.0428819,0.250417z"/>
    <g>
     <path id="_325556528" class="fil4" d="M3.78151 5.60614l-0.034 0.0392953c-0.00349213,0.00401969 -0.00328346,0.010311 0.000472441,0.0140512 0.00375197,0.00373622 0.00962598,0.00351181 0.0131181,-0.000507874l0.0351102 -0.0405787 -0.0147008 -0.0122598z"/>
     <path id="_325556048" class="fil4" d="M3.84556 5.65226l-0.0335 0.0385197c-0.00348819,0.00401969 -0.00327953,0.010311 0.000472441,0.0140512 0.00375197,0.00374016 0.00962992,0.00351181 0.013122,-0.000507874l0.0369528 -0.0424921 -0.0170472 -0.00957087z"/>
     <path id="_325556360" class="fil4" d="M3.90108 5.68031l-0.0282598 0.042878c-0.00295276,0.00449213 -0.00194094,0.0106969 0.00225197,0.0138583 0.00419291,0.00315748 0.00998425,0.00207874 0.012937,-0.00241339l0.0309646 -0.0469803 -0.0178937 -0.00734252z"/>
     <path id="_325556792" class="fil4" d="M3.96423 5.70337l-0.025252 0.0436772c-0.00268898,0.00466535 -0.00133858,0.0107835 0.00301575,0.0136614 0.00435433,0.00288189 0.0100669,0.00143307 0.0127559,-0.00322835l0.028122 -0.0486417 -0.0186417 -0.0054685z"/>
     <path id="_325556240" class="fil4" d="M4.03077 5.72078l-0.0236929 0.0430906c-0.00258661,0.00473228 -0.0011063,0.010815 0.00330709,0.0135866 0.00441732,0.00277165 0.0100945,0.00118504 0.012685,-0.00354331l0.0269567 -0.0490315 -0.0192559 -0.00410236z"/>
    </g>
    <path id="_325556504" class="fil5" d="M3.41333 5.67007c-0.00546063,0.0381457 -0.0122795,0.0883346 -0.0219291,0.152535 0,0 -0.0189094,0.036937 -0.0193622,0.0696024 -0.000322835,0.0230945 0.0137717,0.0447795 0.0628189,0.0515236 0.00470079,0.000645669 0.00972441,0.00115354 0.0150866,0.00151575 0,0 0.0261929,0.00207087 0.0730591,3.54331e-005 0.0149016,-0.000649606 0.0318937,-0.0017126 0.0507953,-0.00338976 0.029815,-0.00264567 0.0643819,-0.0068189 0.103008,-0.0133031 0.0120039,-0.00201575 0.0243976,-0.00425197 0.0371614,-0.00673228 0.0158819,-0.00309055 0.0316969,-0.00497244 0.0473819,-0.00590551 0.00142913,-0.00155512 0.00334646,-0.00261811 0.00552362,-0.0028937 0.0276299,-0.0035748 0.0841811,-0.0491575 0.0942756,-0.059122 0.00259449,-0.00255906 0.00402362,-0.00475197 0.00400787,-0.00635039 -1.1811e-005,-0.00126378 -0.00131102,-0.0029252 -0.00414567,-0.00498031 -0.0117362,-0.00851181 -0.0395276,-0.0150236 -0.0896654,-0.0160197 -0.148051,-0.00294488 -0.266311,-0.0531457 -0.276429,-0.0575551 -0.0015,-0.000503937 -0.00290157,-0.0014252 -0.00404331,-0.00275591l1.5748e-005 -1.1811e-005c-0.00693701,-0.00808268 -0.0650118,-0.0825276 -0.0708819,-0.0889646 -0.00228346,-0.00250394 -0.00451181,-0.00491339 -0.00667717,-0.00722835z"/>
    <path id="_325556696" class="fil6" d="M4.14313 5.74109c0.0332756,0.0316811 0.0843465,0.0834961 0.121181,0.135488 0.0299094,-0.0359094 0.0115827,-0.0893937 -0.0196339,-0.109803 -0.0142165,-0.00929528 -0.0368268,-0.0159685 -0.0756181,-0.0217677 -0.00861417,-0.0012874 -0.0172638,-0.00258661 -0.0259291,-0.00391732z"/>
    <path id="_325555592" class="fil7" d="M4.26263 5.87851c0.00127165,-0.00141732 0.0024685,-0.00286614 0.00358268,-0.00433858l-3.14961e-005 -8.26772e-005c-9.84252e-005,-0.00019685 -0.000188976,-0.000366142 -0.000314961,-0.000543307l-0.000598425 -0.000838583 -0.00126378 -0.00175984 -0.00127165 -0.00175984 -0.0005 -0.000681102c-0.00216929,-0.00287008 -0.00636614,-0.000208661 -0.00502756,0.00322441 0.000106299,0.000255906 0.000220472,0.000464567 0.00038189,0.000685039l0.000484252 0.000661417 0.00125591 0.00173622 0.00125197 0.00174016 0.000598425 0.000838583c0.000417323,0.00057874 0.00092126,0.000940945 0.00145276,0.00111811zm-0.114217 -0.13661l-0.00545669 -0.000834646c-0.000732283,0.000917323 -0.001,0.00226772 -0.000271654,0.00364961 0.000149606,0.000271654 0.000346457,0.000519685 0.000566929,0.000732283l0.000212598 0.000204724 0.00115354 0.00110236 0.00116142 0.00111811 0.00117717 0.00112992 0.000685039 0.000661417c0.0025315,0.00243701 0.00642913,-0.000968504 0.00435433,-0.00423228 -0.000125984,-0.000173228 -0.000251969,-0.000326772 -0.000405512,-0.000472441l-0.000685039 -0.000661417 -0.0011811 -0.0011378 -0.00116535 -0.00111811 -0.000145669 -0.000141732zm-0.00547638 -0.000838583l-0.00512992 -0.000791339 0.000106299 9.84252e-005 0.000933071 0.000885827c0.00125197,0.00114961 0.00301575,0.00101969 0.00409055,-0.000192913zm0.111008 0.126417c0.00211417,0.00279921 0.0063622,0.000228346 0.00499606,-0.0032874 -0.000106299,-0.000240157 -0.00023622,-0.000468504 -0.000393701,-0.000677165l-0.00100787 -0.00135039 -0.0013189 -0.00175197 -0.00133071 -0.00175197 -7.08661e-005 -9.44882e-005c-0.00076378,-0.00101181 -0.00204724,-0.0013937 -0.00319291,-0.00100394 -0.00199213,0.000712598 -0.00268898,0.00327953 -0.00137402,0.00501969l5.90551e-005 7.87402e-005 0.00131496 0.00173228 0.00130709 0.00173622 0.00101181 0.00135039zm-0.00743701 -0.00976378c0.00229921,0.00287402 0.00651969,-0.000133858 0.00485827,-0.00355512 -9.84252e-005,-0.000181102 -0.00019685,-0.000330709 -0.000318898,-0.000496063l-0.000188976 -0.000244094 -0.0013622 -0.00174409 -0.00136614 -0.00174016 -0.000901575 -0.0011378c-0.00204724,-0.00255906 -0.00596063,-0.000401575 -0.0050748,0.00297638 0.000129921,0.000425197 0.000299213,0.000779528 0.000570866,0.00111811l0.000889764 0.00112598 0.00135433 0.00172441 0.00134646 0.00172441 0.000192913 0.000248031zm-0.0076063 -0.0096063c0.00214173,0.00267323 0.00626772,6.69291e-005 0.00494488,-0.00333858 -0.000133858,-0.000307087 -0.000271654,-0.000547244 -0.000476378,-0.00080315l-0.000771654 -0.00096063 -0.00140157 -0.00172835 -0.00140157 -0.00172047 -0.000318898 -0.000385827c-0.00223228,-0.00265748 -0.00622835,7.87402e-006 -0.00492126,0.00336614 0.000133858,0.000314961 0.000275591,0.000551181 0.000488189,0.000814961l0.000307087 0.000374016 0.0013937 0.00170866 0.00138583 0.0017126 0.000771654 0.00096063zm-0.00775591 -0.00947638c0.00221654,0.0026378 0.00620079,-5.90551e-005 0.0049252,-0.00333858 -0.000133858,-0.000330709 -0.000299213,-0.000614173 -0.000523622,-0.00088189l-0.00141732 -0.00170079 -0.00142913 -0.00170079 -0.00111024 -0.0013189c-0.000791339,-0.000940945 -0.00200394,-0.00126378 -0.00311417,-0.00088189 -0.000374016,0.000129921 -0.00069685,0.000330709 -0.000976378,0.00057874 0.0010748,-0.0011378 0.00120866,-0.00306693 9.44882e-005,-0.0043937l-0.000637795 -0.000744094 -0.00144488 -0.00167717 -0.00144488 -0.00167323 -0.000496063 -0.000570866c-0.0023937,-0.00269685 -0.00645669,0.000448819 -0.00470079,0.00377559 0.000102362,0.000185039 0.000240157,0.00038189 0.00038189,0.000543307l0.000484252 0.000559055 0.00143701 0.00166142 0.00143701 0.00166535 0.000633858 0.000744094c0.000822835,0.000925197 0.00197638,0.00124803 0.00310236,0.000862205 0.000374016,-0.000133858 0.00069685,-0.000330709 0.000972441,-0.000574803 -0.00107087,0.0011378 -0.00121654,0.00305512 -0.000110236,0.00437008l0.00110236 0.00130709 0.00141732 0.00169291 0.00141732 0.00169685zm-0.0159173 -0.0185866c0.000988189,0.00111417 0.00266535,0.00133071 0.00383858,0.000413386 0.00148425,-0.00107874 0.00167323,-0.00338976 0.000452756,-0.00476378l-0.00125591 -0.0014252 -0.00145669 -0.00164173 -0.0013622 -0.00153543c-0.000606299,-0.000677165 -0.00148425,-0.00104331 -0.00235433,-0.000968504 -0.00248819,0.000204724 -0.00364173,0.00340157 -0.00192126,0.00533858l0.00135433 0.00152362 0.00144882 0.00163386 0.00125591 0.0014252zm-0.0081378 -0.00912992c0.00215748,0.00242913 0.0060315,-5.11811e-005 0.00487008,-0.00335827 -0.00015748,-0.000413386 -0.000338583,-0.000716535 -0.000625984,-0.00104331l-0.000354331 -0.000393701 -0.00145669 -0.0016063 -0.00145276 -0.0016063 -0.000866142 -0.000944882c-0.000515748,-0.000555118 -0.00109449,-0.00084252 -0.00181102,-0.000933071 -0.00278346,-0.000240157 -0.00431496,0.0032126 -0.00240945,0.0053622l0.000854331 0.000937008 0.00144882 0.00159055 0.00144882 0.00160236 0.000354331 0.000393701zm-0.00823622 -0.00902362c0.00224016,0.00240157 0.00598425,-0.000137795 0.00485039,-0.00338583 -0.000169291,-0.000437008 -0.000350394,-0.000724409 -0.000653543,-0.00106693l-0.000795276 -0.000862205 -0.00145276 -0.00156693 -0.00144488 -0.00155512 -0.000484252 -0.000515748c-0.00114173,-0.00122441 -0.00299213,-0.00123228 -0.00414567,-2.75591e-005 0.0010748,-0.00119291 0.00114567,-0.00316535 -5.51181e-005,-0.00444882l-0.00108268 -0.00114567 -0.00143307 -0.00151181 -0.00142913 -0.00150394 -0.000275591 -0.000291339c-0.00245276,-0.00249606 -0.00621654,0.00057874 -0.00466929,0.00375197 0.000149606,0.000287402 0.000314961,0.000543307 0.000543307,0.000775591l0.000267717 0.000283465 0.00142126 0.00149606 0.0014252 0.00150394 0.00108268 0.00114567c0.000897638,0.000913386 0.00204331,0.00114173 0.00318898,0.000681102 0.000370079,-0.000165354 0.000688976,-0.000393701 0.000948819,-0.000669291 -0.00111811,0.00124016 -0.00110236,0.00321654 3.93701e-005,0.00443701l0.000476378 0.000511811 0.00144094 0.00154724 0.00144094 0.00155512 0.000795276 0.000862205zm-0.016748 -0.0177598c0.000759843,0.000775591 0.00184252,0.00108661 0.00285433,0.000771654 0.00217717,-0.000653543 0.0028937,-0.00364961 0.00125197,-0.0053189l-0.00116142 -0.00120079 -0.00140551 -0.00145669 -0.00140157 -0.00144488 -0.000295276 -0.00030315c-0.00240157,-0.00244488 -0.00621654,0.000562992 -0.0046378,0.00379921 0.000153543,0.000287402 0.000322835,0.00053937 0.000551181,0.000771654l0.000287402 0.000295276 0.00139764 0.00143701 0.00139764 0.00144882 0.00116142 0.00120079zm-0.00850394 -0.00874409c0.000692913,0.000704724 0.00166929,0.00101181 0.00260236,0.000811024 0.00235039,-0.000503937 0.00320079,-0.00363386 0.00146457,-0.00540157l-0.000972441 -0.000988189 -0.00137008 -0.0013937 -0.00136614 -0.00137795 -0.000590551 -0.000598425c-0.00223228,-0.00227165 -0.00590157,0.000248031 -0.00477559,0.00346063 0.000177165,0.000456693 0.000389764,0.00080315 0.000728346,0.00114961l0.000582677 0.000590551 0.00135827 0.00137402 0.00136614 0.00138583 0.000972441 0.000988189zm-0.00858268 -0.00866142c0.000551181,0.000562992 0.00134252,0.00088189 0.00210236,0.000850394 0.00264567,-0.000110236 0.00384646,-0.00352362 0.00192913,-0.00547638l-0.000472441 -0.000468504 -0.00132283 -0.00132283 -0.0013189 -0.00131102 -0.00122441 -0.0012126c-0.00222441,-0.00226378 -0.00598819,0.000311024 -0.00469685,0.00362598 0.000185039,0.000409449 0.000374016,0.000700787 0.000685039,0.00101969l0.00122047 0.00120866 0.00131102 0.00130315 0.0013189 0.00131496 0.000468504 0.000468504zm-0.00865354 -0.00857087c0.00106693,0.00102362 0.00258268,0.00110236 0.00374409,0.000216535 0.00150787,-0.00123228 0.00161811,-0.00348819 0.000244094,-0.00488583l-0.000862205 -0.000846457 -0.00125984 -0.00123228 -0.00124803 -0.00122047 -0.001 -0.000976378c-0.00255906,-0.00246457 -0.00642913,0.000980315 -0.00437402,0.00420866 0.000122047,0.000173228 0.000248031,0.000330709 0.000401575,0.000476378l0.000996063 0.000968504 0.00124409 0.00121654 0.00125197 0.00122835 0.000862205 0.000846457z"/>
    <path id="_325555544" class="fil8" d="M3.40363 5.86146l7.87402e-006 -1.5748e-005 0 -3.93701e-006 -7.87402e-006 1.9685e-005zm0.850606 0.00584252c0.00405512,-0.00293701 0.0014685,-0.00956693 -0.00326378,-0.00863386 -0.000590551,0.000133858 -0.0010748,0.000334646 -0.00158268,0.000685039l-0.000145669 0.000106299 -0.000322835 0.000224409 -0.000318898 0.000220472 -0.000318898 0.000224409 -0.000314961 0.000220472 -0.000318898 0.000220472 -0.000311024 0.000216535 -0.000307087 0.000216535 -0.000311024 0.000212598 -0.00030315 0.000212598 -0.00030315 0.000208661 -0.000307087 0.000212598 -0.000299213 0.000208661 -0.000299213 0.000208661 -0.000299213 0.000204724 -0.000287402 0.000200787 -0.000295276 0.000204724 -0.000291339 0.000200787 -0.000287402 0.00019685 -0.000291339 0.000200787 -0.000283465 0.00019685 -0.000283465 0.000192913 -0.000287402 0.00019685 -0.000279528 0.000192913 -0.000275591 0.000188976 -5.90551e-005 4.33071e-005c-0.00329921,0.00222047 -0.00240945,0.00774409 0.00140551,0.00862598 0.00114173,0.000299213 0.00237795,3.93701e-005 0.00336614,-0.000629921l6.29921e-005 -4.33071e-005 0.000287402 -0.00019685 0.000283465 -0.000192913 0.000279528 -0.000192913 0.000291339 -0.000200787 0.000291339 -0.000200787 0.000283465 -0.00019685 0.000299213 -0.000204724 0.000291339 -0.000204724 0.000295276 -0.000200787 0.00030315 -0.000208661 0.000295276 -0.000208661 0.000299213 -0.000204724 0.000307087 -0.000212598 0.000299213 -0.000208661 0.000307087 -0.000212598 0.000311024 -0.000216535 0.000311024 -0.000216535 0.000314961 -0.000216535 0.000311024 -0.000220472 0.000314961 -0.000216535 0.000318898 -0.000224409 0.000318898 -0.000220472 0.000322835 -0.000228346 0.000326772 -0.000224409 0.000149606 -0.000106299zm-0.0481142 0.0265512c0.00455906,-0.00162992 0.00382283,-0.00883071 -0.00112205,-0.00924803 -0.000555118,-3.14961e-005 -0.0011063,3.93701e-005 -0.0016378,0.000228346l-0.000275591 9.44882e-005 -0.000279528 0.000102362 -0.000283465 9.84252e-005 -0.000287402 9.84252e-005 -0.000283465 9.84252e-005 -0.000287402 9.84252e-005 -0.000291339 0.000102362 -0.000283465 9.84252e-005 -0.000295276 0.000102362 -0.00030315 0.000102362 -0.000295276 0.000102362 -0.000295276 9.84252e-005 -0.000299213 0.000102362 -0.00030315 0.000102362 -0.000307087 0.000102362 -0.000307087 0.000106299 -0.000307087 0.000102362 -0.000311024 0.000102362 -0.000314961 0.000106299 -0.000314961 0.000106299 -0.000318898 0.000106299 -0.000318898 0.000106299 -0.000318898 0.000102362 -0.000326772 0.000110236 -0.000326772 0.000106299 -0.000326772 0.000110236 -0.000330709 0.000106299 -0.000169291 5.51181e-005c-0.00138189,0.000456693 -0.00245276,0.00157874 -0.00290945,0.00304331 -0.00113386,0.00364567 0.00207087,0.00716535 0.00549606,0.00603543l0.000177165 -5.90551e-005 0.000338583 -0.000110236 0.000334646 -0.000110236 0.000326772 -0.000110236 0.000330709 -0.000106299 0.000326772 -0.000110236 0.000326772 -0.000106299 0.000322835 -0.000106299 0.000318898 -0.000106299 0.000318898 -0.000110236 0.000318898 -0.000106299 0.000314961 -0.000102362 0.000311024 -0.000106299 0.000311024 -0.000106299 0.000311024 -0.000106299 0.000307087 -0.000102362 0.000311024 -0.000106299 0.00030315 -0.000102362 0.000295276 -0.000102362 0.000299213 -0.000102362 0.000307087 -0.000106299 0.000295276 -0.000102362 0.000295276 -0.000102362 0.000295276 -0.000102362 0.000291339 -0.000102362 0.000287402 -0.000102362 0.000287402 -9.84252e-005 0.000271654 -9.44882e-005zm-0.0515079 0.0155591c0.00476378,-0.00127559 0.00440551,-0.00863386 -0.000527559,-0.00933071 -0.000551181,-5.90551e-005 -0.00100394,-2.75591e-005 -0.00154331,0.000102362l-0.000255906 6.69291e-005 -0.00076378 0.00019685 -0.000771654 0.000192913 -0.000771654 0.000200787 -0.000771654 0.000192913 -0.000779528 0.00019685 -0.000779528 0.000192913 -0.000783465 0.00019685 -0.000787402 0.000192913 -0.000787402 0.000192913 -0.000791339 0.000192913 -0.000527559 0.000125984c-0.00196063,0.000476378 -0.00340157,0.00233465 -0.00345276,0.00448819 -7.08661e-005,0.0031063 0.0025748,0.00545276 0.00540551,0.00477165l0.000535433 -0.000129921 0.000807087 -0.00019685 0.000795276 -0.00019685 0.000799213 -0.00019685 0.000795276 -0.00019685 0.000791339 -0.00019685 0.000783465 -0.00019685 0.000787402 -0.000200787 0.000783465 -0.00019685 0.000779528 -0.000200787 0.000775591 -0.00019685 0.000255906 -6.69291e-005zm-0.0525433 0.0110354c0.00144488,-0.000224409 0.00266929,-0.00119685 0.00332283,-0.00259449 0.00156299,-0.00344882 -0.00109055,-0.00734646 -0.00462598,-0.00679134l-0.000602362 9.44882e-005 -0.000905512 0.000145669 -0.000905512 0.000141732 -0.000905512 0.000137795 -0.000913386 0.000141732 -0.000909449 0.000133858 -0.000913386 0.000137795 -0.000913386 0.000133858 -0.000913386 0.000133858 -0.000826772 0.00011811c-0.00475197,0.000744094 -0.00520472,0.00777559 -0.000688976,0.00925197 0.000622047,0.00019685 0.0012126,0.000240157 0.00185827,0.00015748l0.000838583 -0.000122047 0.000933071 -0.000133858 0.000929134 -0.000137795 0.000925197 -0.000137795 0.000929134 -0.000141732 0.00092126 -0.000137795 0.000925197 -0.000145669 0.00092126 -0.000141732 0.000917323 -0.000145669 0.000602362 -9.84252e-005zm-0.0533858 0.00553543c0.00484252,-0.000251969 0.00588976,-0.0073622 0.00135433,-0.00920079 -0.000562992,-0.000216535 -0.00109055,-0.000299213 -0.00168898,-0.000283465l-0.000783465 3.14961e-005 -0.000968504 3.93701e-005 -0.000964567 3.54331e-005 -0.000964567 3.14961e-005 -0.000964567 3.14961e-005 -0.000968504 2.75591e-005 -0.000964567 2.75591e-005 -0.000968504 1.9685e-005 -0.000968504 2.3622e-005 -0.000248031 3.93701e-006c-0.00477953,0.000125984 -0.00603543,0.0071063 -0.00163386,0.00912598 0.000555118,0.000248031 0.00117717,0.00038189 0.00177953,0.000366142l0.000267717 -7.87402e-006 0.000992126 -1.9685e-005 0.000988189 -2.3622e-005 0.000988189 -2.75591e-005 0.000988189 -2.75591e-005 0.000984252 -3.14961e-005 0.000988189 -3.54331e-005 0.000984252 -3.54331e-005 0.000984252 -3.93701e-005 0.000787402 -3.14961e-005zm-0.053748 -0.00170866c0.00104331,0.000110236 0.0020315,-0.000129921 0.00290945,-0.000748031 0.00346063,-0.00250787 0.00218504,-0.00814567 -0.00194882,-0.00868504l-0.00065748 -7.48031e-005 -0.000964567 -0.000114173 -0.00096063 -0.00011811 -0.00096063 -0.000122047 -0.000964567 -0.000122047 -0.00096063 -0.000129921 -0.00096063 -0.000129921 -0.00096063 -0.000133858 -0.000956693 -0.000137795 -0.000318898 -4.33071e-005c-0.00178346,-0.000279528 -0.00353937,0.000661417 -0.00444488,0.00231496 -0.00157874,0.00293307 0.000110236,0.00659449 0.00322047,0.00708268l0.000350394 5.11811e-005 0.000988189 0.000141732 0.000992126 0.000137795 0.000988189 0.000137795 0.000988189 0.000129921 0.000992126 0.000125984 0.000992126 0.000125984 0.000992126 0.000122047 0.000988189 0.000114173 0.00065748 7.48031e-005zm-0.0526654 -0.0108543c0.00203543,0.000492126 0.0040748,-0.000574803 0.00498425,-0.00258268 0.00120866,-0.00274409 -0.000244094,-0.00600394 -0.00301969,-0.00667323l-0.000354331 -8.66142e-005 -0.00136614 -0.000330709 -0.0013622 -0.000326772 -0.00135827 -0.000326772 -0.00135433 -0.000318898 -0.00135433 -0.000314961 -0.00134646 -0.000314961 -0.000212598 -4.72441e-005c-0.00477559,-0.00102362 -0.00741339,0.00562205 -0.00337402,0.00859449 0.000503937,0.00034252 0.000940945,0.000547244 0.00152362,0.000685039l0.000192913 4.72441e-005 0.00133071 0.000307087 0.00133465 0.000314961 0.00134252 0.000314961 0.00134252 0.000318898 0.00134646 0.000326772 0.00135039 0.000326772 0.000354331 8.66142e-005zm-0.0519016 -0.0105512c0.0036811,0.00057874 0.00634252,-0.00362205 0.00448425,-0.00708268 -0.000661417,-0.00123228 -0.00185433,-0.00209449 -0.00316929,-0.00229921l-0.000405512 -6.69291e-005 -0.00118898 -0.000192913 -0.00118898 -0.000185039 -0.0011811 -0.000185039 -0.00117717 -0.000181102 -0.00117323 -0.000181102 -0.00116535 -0.000173228 -0.00116535 -0.000173228 -0.000185039 -2.75591e-005c-0.00468898,-0.000614173 -0.00700787,0.00587008 -0.00290551,0.00875591 0.00053937,0.000350394 0.00108661,0.000551181 0.00170866,0.000649606l0.000169291 2.3622e-005 0.00114961 0.000169291 0.00115354 0.000177165 0.00115748 0.000173228 0.00116142 0.000181102 0.00116535 0.000181102 0.00117323 0.000185039 0.00117323 0.000188976 0.000409449 6.29921e-005zm-0.0524685 -0.00615354c0.000917323,7.08661e-005 0.00185433,-0.000192913 0.00263386,-0.000712598 0.00362992,-0.00247638 0.00222835,-0.0084252 -0.00206299,-0.00875984l-0.000913386 -6.29921e-005 -0.000944882 -6.69291e-005 -0.000944882 -6.29921e-005 -0.000937008 -5.90551e-005 -0.000929134 -5.90551e-005 -0.000929134 -5.90551e-005 -0.00092126 -5.51181e-005 -0.000913386 -5.51181e-005 -0.000913386 -5.11811e-005 -0.000562992 -3.14961e-005c-0.00441339,-0.000228346 -0.00638976,0.00587402 -0.00277559,0.00862205 0.000704724,0.000519685 0.00147244,0.000814961 0.00233071,0.000858268l0.000547244 3.14961e-005 0.000897638 5.11811e-005 0.000901575 5.11811e-005 0.000909449 5.51181e-005 0.000909449 5.51181e-005 0.000917323 5.90551e-005 0.000925197 5.90551e-005 0.000929134 6.29921e-005 0.000933071 6.29921e-005 0.000913386 6.69291e-005zm-0.0526732 -0.000940945c0.00486614,-0.000255906 0.00588976,-0.00748819 0.00122047,-0.00924803 -0.000511811,-0.000177165 -0.00104724,-0.00026378 -0.00158661,-0.00023622l-0.000425197 1.5748e-005 -0.000555118 2.75591e-005 -0.000547244 2.3622e-005 -0.000543307 2.75591e-005 -0.000535433 2.3622e-005 -0.000531496 2.75591e-005 -0.000523622 2.75591e-005 -0.000515748 2.75591e-005 -0.000511811 2.75591e-005 -0.000503937 3.14961e-005 -0.0005 2.75591e-005 -0.000496063 2.75591e-005 -0.000484252 3.14961e-005 -0.000484252 3.14961e-005 -0.000472441 2.75591e-005 -0.000472441 3.14961e-005 -0.000456693 3.14961e-005 -0.000389764 2.75591e-005c-0.00434646,0.00034252 -0.00570866,0.00639764 -0.00197638,0.0088189 0.000814961,0.0005 0.00159843,0.000700787 0.00254331,0.000653543l0.00038189 -2.75591e-005 0.000448819 -3.14961e-005 0.000456693 -2.75591e-005 0.00046063 -3.14961e-005 0.000468504 -2.75591e-005 0.000476378 -3.14961e-005 0.000480315 -2.75591e-005 0.000488189 -2.75591e-005 0.000492126 -2.75591e-005 0.0005 -2.75591e-005 0.000503937 -2.75591e-005 0.000515748 -2.75591e-005 0.000515748 -2.75591e-005 0.000523622 -2.3622e-005 0.000527559 -2.75591e-005 0.000535433 -2.3622e-005 0.000543307 -2.3622e-005 0.000429134 -1.5748e-005zm-0.0522362 0.00685827c0.00217717,-0.00034252 0.00381102,-0.00243307 0.00375591,-0.00478346 -6.69291e-005,-0.0028937 -0.00243701,-0.00501575 -0.0051063,-0.00459843l-0.00019685 3.14961e-005 -0.00084252 0.000141732 -0.000854331 0.000137795 -0.000866142 0.000145669 -0.000874016 0.000145669 -0.000885827 0.000145669 -0.000893701 0.000145669 -0.000905512 0.000145669 -0.000913386 0.000153543 -0.000925197 0.000149606 -0.000594488 9.84252e-005c-0.00176378,0.000275591 -0.00316142,0.00166535 -0.00362205,0.00349213 -0.000759843,0.00333858 0.00177953,0.00638583 0.00495669,0.00588976l0.000598425 -9.84252e-005 0.000925197 -0.000149606 0.000917323 -0.000153543 0.000905512 -0.000145669 0.000897638 -0.000149606 0.000885827 -0.000145669 0.000877953 -0.000145669 0.000866142 -0.000141732 0.000854331 -0.000141732 0.000846457 -0.000137795 0.000192913 -3.14961e-005zm-0.0526575 0.00833858c0.00425591,-0.000665354 0.00526772,-0.00673228 0.00137008,-0.00894094 -0.000822835,-0.000429134 -0.00169685,-0.000598425 -0.0026063,-0.000456693l-0.000830709 0.000122047 -0.00125591 0.000192913 -0.00126378 0.000188976 -0.00126772 0.000188976 -0.00127165 0.000192913 -0.00127953 0.000188976 -0.0012874 0.000192913 -0.000311024 4.33071e-005c-0.00154331,0.000244094 -0.00276772,0.00124016 -0.00342913,0.00274409 -0.00143701,0.00337402 0.00121654,0.00719685 0.00464567,0.00665748l0.000314961 -4.72441e-005 0.0012874 -0.000188976 0.00128346 -0.000192913 0.00127559 -0.000188976 0.00127165 -0.000192913 0.00126378 -0.000188976 0.00125984 -0.000188976 0.000830709 -0.000125984zm-0.0527677 0.00756299c0.00197244,-0.000255906 0.00351969,-0.00189764 0.00382677,-0.00398819 0.000448819,-0.00311811 -0.00202362,-0.00580709 -0.00493307,-0.00542913l-0.000893701 0.000122047 -0.00142913 0.000192913 -0.00143307 0.000192913 -0.00143701 0.000188976 -0.00143701 0.000192913 -0.00144094 0.000188976 -0.000708661 9.44882e-005c-0.00143307,0.000185039 -0.00264567,0.00108661 -0.00334646,0.00242913 -0.00172835,0.0033937 0.000846457,0.00746063 0.0044252,0.00699213l0.000716535 -9.44882e-005 0.00144488 -0.000192913 0.00144094 -0.000192913 0.00144094 -0.000188976 0.00143701 -0.000192913 0.00143307 -0.000192913 0.000893701 -0.000122047zm-0.0528976 0.00662205c0.00184252,-0.000192913 0.00335827,-0.0016378 0.00382677,-0.00353937 0.00073622,-0.00324409 -0.00166142,-0.00622441 -0.00476378,-0.00590157l-0.000759843 9.05512e-005 -0.00147638 0.000165354 -0.00147638 0.000165354 -0.00147244 0.000165354 -0.00147638 0.000165354 -0.00147244 0.000161417 -0.000661417 7.48031e-005c-0.00129921,0.000133858 -0.00251969,0.000917323 -0.00323622,0.00209055 -0.00205906,0.0033622 0.000409449,0.00774016 0.0041378,0.00735039l0.000665354 -7.48031e-005 0.00148031 -0.000161417 0.00148031 -0.000165354 0.00148031 -0.000165354 0.00148031 -0.000169291 0.00148031 -0.000165354 0.00076378 -8.66142e-005zm-0.0530669 0.00529134c0.00193701,-0.000153543 0.00359055,-0.00169291 0.00398819,-0.00373228 0.000614173,-0.00311417 -0.00170472,-0.00596457 -0.00466929,-0.00573228l-0.000248031 1.9685e-005 -0.00140945 0.00011811 -0.00140551 0.000114173 -0.00140551 0.000110236 -0.00140157 0.000110236 -0.0013937 0.000110236 -0.0013937 0.000106299 -0.000149606 1.1811e-005c-0.00469685,0.000366142 -0.00570472,0.00732283 -0.00125591,0.00917323 0.000614173,0.000240157 0.00122047,0.000346457 0.00187402,0.000295276l0.00015748 -1.5748e-005 0.00140551 -0.000106299 0.00140551 -0.000110236 0.00140551 -0.000110236 0.00141339 -0.000110236 0.00141732 -0.000114173 0.00141732 -0.00011811 0.000248031 -1.9685e-005zm-0.0534724 0.00288189c0.00185039,0 0.00340945,-0.00112992 0.0041378,-0.00294488 0.00119685,-0.0030748 -0.000948819,-0.00654724 -0.00406299,-0.00654724l-3.93701e-005 0 -0.00112992 -1.1811e-005 -0.00112205 -1.9685e-005 -0.0011063 -2.75591e-005 -0.00109843 -3.14961e-005 -0.00108268 -3.93701e-005 -0.0010748 -4.33071e-005 -0.00105906 -5.11811e-005 -0.000944882 -5.11811e-005c-0.0039252,-0.000204724 -0.0061378,0.00467323 -0.00355118,0.00788583 0.000822835,0.000952756 0.00185433,0.00152756 0.0030748,0.00159055l0.001 5.51181e-005 0.00111024 5.11811e-005 0.00112598 4.72441e-005 0.00113386 3.93701e-005 0.00114567 3.54331e-005 0.00115748 2.75591e-005 0.00116929 1.9685e-005 0.0011811 1.5748e-005 3.54331e-005 0zm-0.0537205 -0.0120039c0.0044252,0.00263386 0.00883858,-0.00329921 0.00545669,-0.00734252 -0.000326772,-0.000362205 -0.000629921,-0.000629921 -0.00104331,-0.000885827l-0.000259843 -0.000161417 -0.000476378 -0.000295276 -0.00046063 -0.000295276 -0.000456693 -0.000299213 -0.000448819 -0.00030315 -0.000437008 -0.00030315 -0.000433071 -0.000307087 -0.00042126 -0.000307087 -0.000417323 -0.000311024 -0.000409449 -0.000311024 -0.000401575 -0.000314961 -0.000389764 -0.000318898 -0.000385827 -0.000314961 -0.00038189 -0.000322835 -0.000370079 -0.000322835 -0.000362205 -0.000322835 -7.08661e-005 -6.69291e-005c-0.00131496,-0.00122441 -0.00324409,-0.00150394 -0.00481102,-0.000688976 -0.00288189,0.0015 -0.00339764,0.00562205 -0.000984252,0.00787402l0.00015748 0.000141732 0.000448819 0.000397638 0.000456693 0.000397638 0.00046063 0.000389764 0.000472441 0.000389764 0.000476378 0.000385827 0.000488189 0.00038189 0.000492126 0.000377953 0.000503937 0.000377953 0.000511811 0.000370079 0.000519685 0.000370079 0.000523622 0.000362205 0.000535433 0.000362205 0.000543307 0.000354331 0.000551181 0.000354331 0.000559055 0.000346457 0.00026378 0.000161417zm-0.0107795 -0.0598661c-0.000976378,0.0025 -0.0017126,0.00555906 -0.0022126,0.00819685 -0.000149606,0.000807087 -0.000503937,0.00153937 -0.00100394,0.00216142 -0.00303543,0.00364173 -0.00856299,0.000677165 -0.00767323,-0.00408661 0.000610236,-0.00320866 0.00152756,-0.00696457 0.00274016,-0.0100039 0.00137008,-0.00340157 0.00575197,-0.0038937 0.00772441,-0.000826772 0.000858268,0.00135827 0.00102362,0.00301575 0.000437008,0.0045315m-3.93701e-006 7.87402e-006l3.93701e-006 -7.87402e-006 -1.1811e-005 2.75591e-005"/>
   </g>
   <g>
    <path id="_325555448" class="fil0" d="M2.07741 4.98275c0.000220472,-0.000106299 0.0393425,0.00683071 0.077437,-0.026063 0.0284567,0.0463346 0.0271496,0.0765354 0.0253189,0.111075 -0.00026378,0.00495276 -0.0185709,-0.00133465 -0.0185315,0.00365354 -0.0651378,0.00190157 -0.0837008,-0.087815 -0.0842244,-0.0886654z"/>
    <path id="_325555280" class="fil1" d="M2.2582 4.98025c-0.0402283,0.0173268 -0.076315,0.0331339 -0.104882,0.045748 -0.0420551,0.013378 -0.0778465,0.0247323 -0.080248,0.0262126l-0.0918465 -0.247161 0.0199488 -0.0237126c0.0331181,-0.0152795 0.0864409,-0.0375118 0.147189,-0.0681181l0.109839 0.267031z"/>
    <path id="_325555616" class="fil2" d="M2.13237 5.54581l-0.0493661 -0.00255906 -0.00647244 -0.000338583 -0.00420472 -0.00550394 -0.0271378 -0.0355472 -0.0084685 -0.0110906 0.0098622 -0.0075315 0.0229961 -0.0175551c0.0217559,0.0284921 0.0622087,0.0705945 0.0627913,0.080126z"/>
    <path id="_325555352" class="fil2" d="M2.22333 5.6118l-0.0450315 0.0102008 -0.00669685 0.00151969 -0.00555906 -0.00519291 -0.0324764 -0.0303465 -0.00985433 -0.00920866 0.00761811 -0.00945276 0.0183228 -0.0227283c0.0200866,0.0179409 0.0729921,0.0630472 0.0736772,0.0652087z"/>
    <path id="_325555832" class="fil2" d="M2.05293 5.45196l-0.0456063 -0.00291732 -0.00640945 -0.000409449 -0.00412205 -0.00540157 -0.0271417 -0.0355472 -0.00883071 -0.0115709 0.0106811 -0.00733071 0.0360787 -0.0247677c0.00782677,0.0111142 0.0450866,0.082752 0.0453504,0.0879449z"/>
    <path id="_325555904" class="fil2" d="M1.87239 5.19086l-0.062874 -0.0052874 -0.00621654 -0.000555118 -0.00399213 -0.00522835 -0.0271417 -0.0355512 -0.0085 -0.0111339 0.00996457 -0.00747244 0.0269409 -0.0201929c0.0171181,0.0225866 0.0717283,0.0818622 0.0718189,0.0854213z"/>
    <path id="_325554656" class="fil2" d="M1.76737 5.07894l-0.0421339 -0.00375984 -0.00621654 -0.000555118 -0.00399213 -0.00523228 -0.0271378 -0.0355472 -0.00848031 -0.0111063 0.00994094 -0.0075 0.0264213 -0.019937c0.00874803,0.0115394 0.0515472,0.0817244 0.0515984,0.0836378z"/>
    <path id="_325554632" class="fil3" d="M1.77063 4.89862c0,0 -0.0408346,0.00738189 -0.0670748,0.0268425 -0.0203268,0.0150748 -0.0288071,0.0428858 0.00511811,0.0941063 0,0 0.0555827,0.0861378 0.178807,0.195665 0.0294488,0.0261732 0.0529764,0.0563819 0.0729252,0.0876102 0.0384449,0.0601693 0.0615118,0.125531 0.0923543,0.170264 0.0410276,0.0595118 0.123169,0.126559 0.182618,0.147665 0.0585236,0.0207756 0.100539,-0.0350236 0.0974094,-0.0778189 -0.00124016,-0.0169331 -0.00965354,-0.0389567 -0.0285866,-0.073311 -0.0192008,-0.0348425 -0.0386024,-0.0703858 -0.0562283,-0.106827l-0.0553307 0.00832677c-0.00532677,0.000811024 -0.0100354,-0.00274016 -0.0105118,-0.00793307 -0.000476378,-0.00518898 0.00346063,-0.0100591 0.00879134,-0.0108701l0.0486299 -0.00731496c-0.00691732,-0.0149488 -0.0134882,-0.0300512 -0.0195748,-0.0453228l-0.0557244 0.00716535c-0.00533858,0.000692913 -0.00995669,-0.0029685 -0.0103071,-0.0081811 -0.000354331,-0.00520866 0.00368898,-0.00999213 0.00902756,-0.010685l0.0500394 -0.00643307c-0.00553937,-0.015 -0.0105709,-0.0301654 -0.0149764,-0.0455079l-0.0561339 0.0038937c-0.00535827,0.00038189 -0.00973228,-0.00356693 -0.00976772,-0.0088189 -3.14961e-005,-0.00524803 0.0042874,-0.00981496 0.00964567,-0.0101969l0.0512283 -0.00355512c-0.00344882,-0.0137874 -0.00636614,-0.0277165 -0.00865354,-0.0417992l-0.0562008 -0.00358661c-0.00531496,-0.000334646 -0.00905906,-0.00486614 -0.0083622,-0.0101181 0.000692913,-0.00525197 0.00556693,-0.00924016 0.010878,-0.00890157l0.0509488 0.00325197c-0.00235039,-0.0196181 -0.00343701,-0.0395354 -0.0030315,-0.0597756l-0.0535591 -0.00328346c-0.00531102,-0.000334646 -0.00905512,-0.00487008 -0.0083622,-0.0101181 0.00069685,-0.00525197 0.00556693,-0.00924016 0.0108819,-0.00890157l0.0518661 0.00317717c0.000212598,-0.00317717 0.00046063,-0.00636614 0.000748031,-0.00956299 -0.00205512,-0.0172559 -0.00887795,-0.0231299 -0.0180709,-0.0360866 -0.0022874,-0.00220079 -0.00453937,-0.00438976 -0.00675591,-0.00656299 -0.0056378,-0.0055315 -0.0110394,-0.0109724 -0.0161654,-0.0163543 -0.0095315,-0.0100039 -0.0190472,-0.0203346 -0.0280079,-0.0308228 -0.10063,-0.117705 -0.0849882,-0.184571 -0.115469,-0.197193 -0.0188386,-0.000838583 -0.0803543,0.0382756 -0.225063,0.117874z"/>
    <g>
     <path id="_325554608" class="fil4" d="M2.17942 5.07733l-0.0518661 -0.00317717c-0.00531496,-0.000338583 -0.010185,0.00364961 -0.0108819,0.00889764 -0.000692913,0.00525591 0.00305118,0.0097874 0.0083622,0.010122l0.0535591 0.00328346 0.000826772 -0.019126z"/>
     <path id="_325554512" class="fil4" d="M2.18162 5.15623l-0.0509488 -0.00325197c-0.00531102,-0.000338583 -0.010185,0.00364961 -0.010878,0.00890157 -0.00069685,0.00525197 0.00304724,0.00978346 0.0083622,0.0101181l0.0562008 0.00358661 -0.00273622 -0.0193543z"/>
     <path id="_325555256" class="fil4" d="M2.19301 5.21738l-0.0512283 0.00355512c-0.00535827,0.00038189 -0.00967717,0.00494882 -0.00964567,0.0101969 3.54331e-005,0.00525197 0.00440945,0.00920079 0.00976772,0.00882283l0.0561299 -0.00389764 -0.00502362 -0.0186772z"/>
     <path id="_325554896" class="fil4" d="M2.21302 5.28157l-0.0500394 0.00643307c-0.00533858,0.000692913 -0.00938189,0.00547638 -0.00902756,0.010685 0.000350394,0.00520866 0.0049685,0.00887402 0.0103071,0.0081811l0.0557244 -0.00716535 -0.00696457 -0.0181339z"/>
     <path id="_325555064" class="fil4" d="M2.23956 5.34502l-0.0486299 0.00731496c-0.00533071,0.000811024 -0.00926772,0.0056811 -0.00879134,0.0108701 0.000476378,0.00519291 0.00518504,0.00874409 0.0105118,0.00793307l0.0553307 -0.00832677 -0.00842126 -0.0177913z"/>
    </g>
    <path id="_325554440" class="fil5" d="M1.90518 4.82348c-0.0336339,0.0188071 -0.0776654,0.0438425 -0.134547,0.0751339 0,0 -0.0408346,0.00738189 -0.0670748,0.0268425 -0.0185512,0.0137559 -0.0272323,0.0381181 -0.00283071,0.0811969 0.00233858,0.00412992 0.00498425,0.00842913 0.00794882,0.0129094 0,0 0.014248,0.0220787 0.0443071,0.0580945 0.00955512,0.0114488 0.0207126,0.024311 0.0335157,0.0383189 0.0201969,0.0220906 0.0444882,0.0470315 0.0730827,0.0738031 0.00888189,0.00831496 0.0181811,0.0168071 0.0279016,0.0254488 0.0120906,0.010748 0.023185,0.0221772 0.0334449,0.0340787 0.00210236,0.000192913 0.00411024,0.00107087 0.00564961,0.00263386 0.0196063,0.0197913 0.0901575,0.0370827 0.104201,0.0390591 0.00361024,0.000507874 0.00622047,0.000314961 0.00748425,-0.000669291 0.000992126,-0.000775591 0.00152756,-0.0028189 0.00144094,-0.0063189 -0.000354331,-0.0144921 -0.0120433,-0.0405315 -0.0416772,-0.0809882 -0.0875,-0.119465 -0.119362,-0.243925 -0.121996,-0.254642 -0.000507874,-0.0015 -0.000625984,-0.00317323 -0.00026378,-0.00488583l1.9685e-005 0c0.0022126,-0.0104134 0.0261457,-0.101748 0.0277008,-0.110319 0.000602362,-0.00333858 0.00116929,-0.00657087 0.00169291,-0.00969685z"/>
    <path id="_325554224" class="fil6" d="M2.29159 5.44665c-0.00498819,0.0456772 -0.0151811,0.117713 -0.0341575,0.178539 0.0466929,0.00198425 0.0780827,-0.0450394 0.0753622,-0.0822402 -0.00124016,-0.016937 -0.00965354,-0.0389567 -0.0285866,-0.073311 -0.00420079,-0.00762598 -0.00841732,-0.0152913 -0.0126181,-0.0229882z"/>
    <path id="_325554008" class="fil7" d="M2.25488 5.62502c0.00189764,0.000153543 0.00377165,0.000224409 0.00562205,0.000216535l4.33071e-005 -7.48031e-005c9.84252e-005,-0.00019685 0.000181102,-0.000370079 0.000244094,-0.00057874l0.00030315 -0.000988189 0.000629921 -0.00207087 0.000625984 -0.00207874 0.000240157 -0.000807087c0.000964567,-0.0034685 -0.00369685,-0.00518504 -0.00561811,-0.00204331 -0.000133858,0.000244094 -0.000228346,0.00046063 -0.000307087,0.000720472l-0.000232283 0.000783465 -0.00061811 0.00205906 -0.000625984 0.00204724 -0.00030315 0.000984252c-0.000208661,0.000685039 -0.000185039,0.00130315 -3.93701e-006,0.00183071zm0.0392717 -0.173681l-0.00264567 -0.00484252c-0.00117323,-2.75591e-005 -0.00240945,0.000582677 -0.00306693,0.002 -0.000125984,0.000283465 -0.000200787,0.000590551 -0.00023622,0.000893701l-3.54331e-005 0.000295276 -0.000177165 0.00158268 -0.000181102 0.00160236 -0.000185039 0.00162205 -0.000110236 0.000944882c-0.000401575,0.00349213 0.00467323,0.00452362 0.00600394,0.000893701 6.29921e-005,-0.000204724 0.000110236,-0.000397638 0.000133858,-0.000606299l0.000110236 -0.000948819 0.000185039 -0.00162598 0.000181102 -0.00161024 2.3622e-005 -0.000200787zm-0.00265748 -0.00485827l-0.00248425 -0.00455512 -1.1811e-005 0.000141732 -0.000137795 0.00127559c-0.000153543,0.00169291 0.00101969,0.00301969 0.00263386,0.0031378zm-0.0331181 0.164945c-0.000940945,0.00338189 0.00367717,0.00519685 0.00564173,0.00197638 0.000129921,-0.000228346 0.000232283,-0.000472441 0.00030315,-0.000724409l0.00046063 -0.00162205 0.000590551 -0.00211024 0.000586614 -0.00211811 3.14961e-005 -0.00011811c0.000338583,-0.00122047 -0.000133858,-0.00247244 -0.0011378,-0.00314567 -0.00177559,-0.00114961 -0.00424016,-0.000149606 -0.00482677,0.00195276l-2.3622e-005 9.84252e-005 -0.00057874 0.00209449 -0.000586614 0.00209449 -0.00046063 0.00162205zm0.00324803 -0.0118386c-0.000889764,0.0035748 0.00406299,0.00510236 0.00577165,0.00170472 8.66142e-005,-0.000185039 0.000145669,-0.000354331 0.000200787,-0.000551181l7.87402e-005 -0.00030315 0.000562992 -0.0021378 0.000551181 -0.00214173 0.000358268 -0.00140551c0.000791339,-0.0031811 -0.00329528,-0.00498031 -0.00544488,-0.00222835 -0.000259843,0.000362205 -0.000437008,0.000708661 -0.000543307,0.00113386l-0.000354331 0.00138976 -0.000547244 0.00212205 -0.000555118 0.00211811 -7.87402e-005 0.000299213zm0.00301969 -0.011874c-0.000826772,0.00332677 0.00375197,0.00502362 0.00565354,0.00190551 0.000165354,-0.000291339 0.000271654,-0.000547244 0.000350394,-0.000866142l0.000295276 -0.00119685 0.000523622 -0.00216142 0.000515748 -0.00215748 0.000114173 -0.000488189c0.000755906,-0.00338976 -0.0037874,-0.00494488 -0.00566142,-0.00187008 -0.000169291,0.000299213 -0.000271654,0.000555118 -0.000354331,0.00088189l-0.000110236 0.000472441 -0.000511811 0.00214567 -0.000519685 0.0021378 -0.000295276 0.00119685zm0.00282677 -0.0119134c-0.000751969,0.00335827 0.00380709,0.00488976 0.00564173,0.00188976 0.000181102,-0.000311024 0.000307087,-0.000610236 0.00038189,-0.000952756l0.000492126 -0.00215748 0.000488189 -0.00216929 0.000370079 -0.00168504c0.000267717,-0.00119685 -0.000208661,-0.00235827 -0.00118504,-0.00301181 -0.000334646,-0.000212598 -0.000688976,-0.000350394 -0.00105118,-0.00042126 0.00155512,0.000165354 0.00316929,-0.000897638 0.00354724,-0.00259055l0.000204724 -0.000956693 0.000456693 -0.00216535 0.000448819 -0.00216535 0.000153543 -0.000744094c0.000692913,-0.00353937 -0.00427165,-0.00485827 -0.00585039,-0.00144488 -8.66142e-005,0.00019685 -0.000161417,0.00042126 -0.000200787,0.000633858l-0.000149606 0.000728346 -0.000448819 0.00214961 -0.000452756 0.00214961 -0.000204724 0.000956693c-0.000240157,0.0012126 0.000200787,0.00232677 0.00119685,0.00298819 0.000330709,0.000216535 0.000681102,0.000354331 0.00104331,0.000425197 -0.00155118,-0.000161417 -0.00316535,0.000885827 -0.00353937,0.00256693l-0.000370079 0.00166929 -0.000484252 0.00214961 -0.000488189 0.00215748zm0.00511417 -0.0239331c-0.000287402,0.00146457 0.000559055,0.0029252 0.002,0.00330709 0.00175984,0.000519685 0.00370866,-0.000728346 0.00405906,-0.00253543l0.000370079 -0.0018622 0.000425197 -0.00215354 0.000389764 -0.00201575c0.000177165,-0.000889764 -6.69291e-005,-0.00181102 -0.000653543,-0.00245669 -0.00167323,-0.00185433 -0.00491339,-0.000830709 -0.00541339,0.0017126l-0.000385827 0.002 -0.00042126 0.00214173 -0.000370079 0.0018622zm0.0023189 -0.0120079c-0.000625984,0.00318898 0.00370079,0.00476378 0.00562598,0.00183465 0.000228346,-0.000377953 0.000362205,-0.000704724 0.000444882,-0.00112992l9.84252e-005 -0.000519685 0.000397638 -0.00213386 0.000389764 -0.00212992 0.000228346 -0.00125984c0.000125984,-0.000748031 3.93701e-006,-0.00138189 -0.000358268,-0.00200787 -0.0015,-0.00235433 -0.00517323,-0.00148031 -0.00572441,0.00133858l-0.000224409 0.00124803 -0.000385827 0.00211811 -0.000393701 0.00212205 -9.84252e-005 0.000519685zm0.00217323 -0.0120197c-0.000547244,0.00323622 0.00374409,0.00467323 0.00563386,0.00179921 0.000244094,-0.000401575 0.000366142,-0.000716535 0.000452756,-0.00116535l0.000204724 -0.00115748 0.000362205 -0.00210236 0.000358268 -0.00209449 0.00011811 -0.00069685c0.000279528,-0.00165354 -0.000838583,-0.00312598 -0.00249606,-0.00331496 0.00160236,0.000129921 0.0032126,-0.00100787 0.00350394,-0.00274016l0.000255906 -0.00155512 0.000330709 -0.00205906 0.000326772 -0.00204724 6.29921e-005 -0.000393701c0.000496063,-0.00346457 -0.00423228,-0.00459055 -0.00581496,-0.00143701 -0.000137795,0.000295276 -0.000244094,0.00057874 -0.000287402,0.000901575l-5.90551e-005 0.00038189 -0.000326772 0.00203937 -0.000330709 0.00204724 -0.000255906 0.00155512c-0.000181102,0.00126772 0.000330709,0.00231496 0.0013937,0.00294882 0.000354331,0.000192913 0.000732283,0.000307087 0.0011063,0.000350394 -0.00166142,-0.000137795 -0.00322441,0.0010748 -0.00350394,0.00272047l-0.000114173 0.000688976 -0.000358268 0.00208268 -0.000358268 0.00209055 -0.000204724 0.00115748zm0.00395276 -0.0240906c-0.000153543,0.0010748 0.000255906,0.00212598 0.00112205,0.00273622 0.00183858,0.00133465 0.00465354,8.66142e-005 0.00498425,-0.00223228l0.000251969 -0.00164961 0.00030315 -0.002 0.000299213 -0.00199213 5.90551e-005 -0.000417323c0.000488189,-0.0033937 -0.00421654,-0.00460236 -0.00583071,-0.00138189 -0.000137795,0.000295276 -0.000232283,0.000582677 -0.000279528,0.000905512l-5.90551e-005 0.000409449 -0.000299213 0.00198031 -0.000299213 0.00199213 -0.000251969 0.00164961zm0.00179134 -0.012063c-0.000141732,0.000976378 0.000208661,0.00193701 0.000937008,0.00255906 0.00182283,0.00156299 0.00482677,0.000338583 0.00517717,-0.00211417l0.00019685 -0.00137402 0.000275591 -0.00193307 0.000267717 -0.00192126 0.00011811 -0.000834646c0.000448819,-0.00315354 -0.00377953,-0.00453543 -0.00564961,-0.00169685 -0.000255906,0.00042126 -0.000405512,0.000799213 -0.000472441,0.00127559l-0.000114173 0.000826772 -0.000267717 0.00191339 -0.000271654 0.0019252 -0.00019685 0.00137402zm0.00167717 -0.0120787c-0.000114173,0.000779528 0.000114173,0.00160236 0.000598425,0.00218504 0.00169291,0.00203543 0.00513386,0.00092126 0.00552362,-0.0017874l8.66142e-005 -0.000661417 0.000248031 -0.00185433 0.000240157 -0.00184252 0.000224409 -0.00170866c0.000448819,-0.00314173 -0.00388189,-0.00457087 -0.00573622,-0.00153543 -0.000212598,0.000397638 -0.000326772,0.000724409 -0.000389764,0.00116535l-0.000224409 0.00170079 -0.000240157 0.00183465 -0.000244094 0.00184646 -8.66142e-005 0.00065748zm0.00156299 -0.0120787c-0.000173228,0.0014685 0.000685039,0.00272047 0.00209843,0.0031063 0.0018937,0.000452756 0.00375197,-0.000830709 0.0040315,-0.00277165l0.000149606 -0.00119685 0.000212598 -0.00174803 0.000212598 -0.00173228 0.000169291 -0.00138976c0.000409449,-0.0035315 -0.0046811,-0.00451575 -0.006,-0.00092126 -6.29921e-005,0.000200787 -0.000110236,0.000397638 -0.000133858,0.000606299l-0.000165354 0.00137795 -0.000212598 0.00172835 -0.000212598 0.00174016 -0.000149606 0.00120079z"/>
    <path id="_325554464" class="fil8" d="M1.74718 4.93191l1.5748e-005 -3.93701e-006 3.93701e-006 0 -1.9685e-005 3.93701e-006zm0.511516 0.679646c0.00479528,0.00144094 0.00849606,-0.0046378 0.00488583,-0.00783465 -0.000464567,-0.000385827 -0.00092126,-0.000649606 -0.00150787,-0.000838583l-0.000173228 -5.51181e-005 -0.000370079 -0.00011811 -0.000370079 -0.00011811 -0.000374016 -0.000122047 -0.000366142 -0.00011811 -0.000366142 -0.00011811 -0.000362205 -0.000114173 -0.000358268 -0.000114173 -0.000358268 -0.000114173 -0.000354331 -0.000114173 -0.000350394 -0.000114173 -0.000354331 -0.000114173 -0.000346457 -0.000114173 -0.000346457 -0.000110236 -0.000346457 -0.000110236 -0.000334646 -0.000110236 -0.00034252 -0.000110236 -0.000334646 -0.000110236 -0.000330709 -0.000106299 -0.000338583 -0.000110236 -0.000326772 -0.000106299 -0.000326772 -0.000106299 -0.000330709 -0.000110236 -0.000322835 -0.000102362 -0.000314961 -0.000106299 -7.08661e-005 -2.3622e-005c-0.00376772,-0.00127559 -0.00761811,0.00278346 -0.00600394,0.00635433 0.000456693,0.00108661 0.00141339,0.00190945 0.00254331,0.00229134l7.48031e-005 2.3622e-005 0.000326772 0.000110236 0.000326772 0.000106299 0.000326772 0.000106299 0.000334646 0.000110236 0.000334646 0.000110236 0.000330709 0.000106299 0.00034252 0.000110236 0.000338583 0.000110236 0.000338583 0.000110236 0.000350394 0.000114173 0.000346457 0.000110236 0.000346457 0.000114173 0.000350394 0.000114173 0.000350394 0.000110236 0.000354331 0.000114173 0.000362205 0.00011811 0.000358268 0.000114173 0.000366142 0.00011811 0.000362205 0.00011811 0.000366142 0.000114173 0.000370079 0.000122047 0.000366142 0.000114173 0.000377953 0.000122047 0.000377953 0.000122047 0.000173228 5.51181e-005zm-0.0502953 -0.0221299c0.00405906,0.00263386 0.00933858,-0.00232283 0.00666929,-0.00650394 -0.000314961,-0.000464567 -0.000704724,-0.000858268 -0.00117717,-0.00116535l-0.000244094 -0.000161417 -0.000248031 -0.000161417 -0.000251969 -0.000165354 -0.000251969 -0.000169291 -0.000251969 -0.000161417 -0.000251969 -0.000169291 -0.000255906 -0.000169291 -0.000251969 -0.000169291 -0.000259843 -0.000173228 -0.00026378 -0.000177165 -0.00026378 -0.000173228 -0.000259843 -0.000173228 -0.000259843 -0.000177165 -0.000267717 -0.000177165 -0.000267717 -0.000181102 -0.000267717 -0.000181102 -0.000267717 -0.000185039 -0.000271654 -0.000181102 -0.000271654 -0.000185039 -0.000279528 -0.000188976 -0.000275591 -0.000188976 -0.000279528 -0.000188976 -0.000275591 -0.000188976 -0.000283465 -0.000192913 -0.000287402 -0.00019685 -0.000283465 -0.000192913 -0.000283465 -0.00019685 -0.000149606 -0.000102362c-0.00120079,-0.000818898 -0.00274016,-0.000992126 -0.0041811,-0.000468504 -0.00358661,0.00131102 -0.00444094,0.00599606 -0.00146457,0.00803543l0.00015748 0.000106299 0.000291339 0.000200787 0.000291339 0.00019685 0.000283465 0.00019685 0.000283465 0.000192913 0.000287402 0.00019685 0.000283465 0.000192913 0.000283465 0.000192913 0.000275591 0.000185039 0.000279528 0.000192913 0.000275591 0.000185039 0.000275591 0.000188976 0.000275591 0.000181102 0.000271654 0.000185039 0.000271654 0.000181102 0.000271654 0.000185039 0.000271654 0.000181102 0.00026378 0.000177165 0.00026378 0.000173228 0.00026378 0.000177165 0.000267717 0.000177165 0.000259843 0.000173228 0.000259843 0.000173228 0.00026378 0.000173228 0.000255906 0.000169291 0.000255906 0.000169291 0.000251969 0.000165354 0.000244094 0.000161417zm-0.043626 -0.0315c0.00390157,0.00301181 0.00953543,-0.00174016 0.00709449,-0.00608268 -0.000287402,-0.000472441 -0.000586614,-0.000814961 -0.00101575,-0.00116535l-0.000208661 -0.000161417 -0.00061811 -0.000488189 -0.000625984 -0.000496063 -0.000625984 -0.000492126 -0.000622047 -0.000496063 -0.000629921 -0.0005 -0.000625984 -0.000503937 -0.000629921 -0.000503937 -0.000629921 -0.000507874 -0.000633858 -0.000507874 -0.000629921 -0.000511811 -0.000425197 -0.00034252c-0.00156693,-0.00127165 -0.00391732,-0.0012874 -0.00565748,-2.3622e-005 -0.00251575,0.00183071 -0.00277559,0.00535827 -0.000515748,0.00719685l0.000429134 0.000346457 0.000645669 0.000519685 0.000637795 0.000515748 0.000641732 0.000511811 0.000637795 0.000511811 0.000637795 0.000511811 0.000633858 0.000503937 0.000633858 0.000503937 0.000633858 0.0005 0.000629921 0.0005 0.000629921 0.000496063 0.000208661 0.000165354zm-0.0406575 -0.0350669c0.00105906,0.00101181 0.0025748,0.0013937 0.00407874,0.00106299 0.00369291,-0.000846457 0.00517717,-0.00532283 0.00259055,-0.00779528l-0.000437008 -0.00042126 -0.000665354 -0.000633858 -0.000661417 -0.000633858 -0.000661417 -0.000633858 -0.000665354 -0.000641732 -0.000661417 -0.000637795 -0.000661417 -0.000645669 -0.000661417 -0.000641732 -0.000661417 -0.000649606 -0.000594488 -0.000582677c-0.00347638,-0.00332283 -0.00933858,0.000582677 -0.00777165,0.00506299 0.000220472,0.00061811 0.000543307,0.00111417 0.001,0.0015748l0.000606299 0.000594488 0.000673228 0.00065748 0.000673228 0.00065748 0.000673228 0.000653543 0.000673228 0.000649606 0.000673228 0.000649606 0.000673228 0.000645669 0.000673228 0.000645669 0.000673228 0.000641732 0.000440945 0.00042126zm-0.0367913 -0.0390748c0.0031378,0.00369685 0.0094252,0.000212598 0.00813386,-0.00450787 -0.000169291,-0.00057874 -0.000425197,-0.00104724 -0.000799213,-0.00151181l-0.000503937 -0.000606299 -0.000614173 -0.000744094 -0.000614173 -0.000748031 -0.000614173 -0.000744094 -0.000610236 -0.000751969 -0.000610236 -0.000751969 -0.000606299 -0.000751969 -0.000602362 -0.000755906 -0.000606299 -0.000755906 -0.000153543 -0.000188976c-0.003,-0.00372835 -0.00931102,-0.000488189 -0.00824409,0.00423622 0.000137795,0.000590551 0.000413386,0.00116535 0.000791339,0.00163386l0.000165354 0.000212598 0.00061811 0.000771654 0.00061811 0.000771654 0.000622047 0.000771654 0.000622047 0.00076378 0.000622047 0.000767717 0.000625984 0.00076378 0.000625984 0.000759843 0.000629921 0.000759843 0.000503937 0.000606299zm-0.0312598 -0.0437598c0.000543307,0.000897638 0.00133465,0.00153543 0.0023622,0.0018622 0.00409055,0.00122441 0.00779921,-0.00320866 0.00572047,-0.00682283l-0.000338583 -0.000566929 -0.000496063 -0.000834646 -0.000492126 -0.000838583 -0.000484252 -0.000834646 -0.000488189 -0.00084252 -0.000480315 -0.00084252 -0.000480315 -0.000838583 -0.000476378 -0.000846457 -0.000472441 -0.000846457 -0.00015748 -0.000279528c-0.000858268,-0.00158661 -0.00267323,-0.00240945 -0.00453937,-0.00212598 -0.00328346,0.000523622 -0.00517323,0.00408661 -0.00367323,0.00685827l0.000173228 0.000311024 0.000488189 0.000870079 0.000488189 0.000870079 0.000496063 0.000870079 0.000496063 0.000862205 0.000496063 0.000866142 0.000503937 0.000866142 0.000507874 0.000858268 0.000507874 0.000858268 0.000338583 0.000566929zm-0.0233307 -0.0484449c0.000846457,0.00191339 0.00292913,0.00288583 0.00507874,0.0023937 0.00291339,-0.000704724 0.00462205,-0.00383465 0.00347244,-0.00644882l-0.000149606 -0.000334646 -0.000562992 -0.0012874 -0.000566929 -0.00128346 -0.000566929 -0.00127559 -0.000566929 -0.00127165 -0.000570866 -0.00126772 -0.000566929 -0.00125591 -9.05512e-005 -0.000200787c-0.00208661,-0.00441732 -0.0089685,-0.00248031 -0.00888189,0.0025315 3.14961e-005,0.000610236 0.000137795,0.00107874 0.00038189,0.00162992l8.26772e-005 0.000181102 0.000559055 0.00124409 0.000562992 0.00125197 0.000559055 0.00125591 0.000562992 0.00126378 0.000559055 0.00126378 0.000559055 0.00127559 0.000145669 0.000334646zm-0.0231102 -0.0476575c0.00177559,0.00327559 0.00673228,0.00284252 0.00835433,-0.000732283 0.000574803,-0.00127559 0.00053937,-0.00274803 -9.44882e-005,-0.00391732l-0.00019685 -0.000362205 -0.000566929 -0.00106299 -0.000570866 -0.00105512 -0.000570866 -0.00105118 -0.000570866 -0.00104724 -0.000570866 -0.00103937 -0.000566929 -0.00103543 -0.000570866 -0.00102756 -9.05512e-005 -0.000165354c-0.00235827,-0.00409843 -0.00891732,-0.00200787 -0.00872047,0.00300394 4.72441e-005,0.000641732 0.000220472,0.00120079 0.000519685,0.00175197l8.66142e-005 0.000149606 0.000559055 0.00101575 0.000562992 0.00102362 0.000562992 0.00102756 0.000562992 0.0010315 0.000559055 0.00103937 0.000566929 0.00104331 0.000562992 0.00104724 0.000192913 0.000362205zm-0.0269449 -0.0454409c0.0005,0.000771654 0.00127953,0.0013622 0.00216535,0.00166142 0.00416929,0.00138583 0.00804724,-0.00333858 0.00570866,-0.00695276l-0.0005 -0.00076378 -0.000523622 -0.000791339 -0.000523622 -0.000787402 -0.000519685 -0.000783465 -0.000515748 -0.000775591 -0.000519685 -0.000771654 -0.000515748 -0.000767717 -0.000511811 -0.000759843 -0.000511811 -0.000755906 -0.000318898 -0.000468504c-0.00249213,-0.00364567 -0.00854331,-0.00151575 -0.00853543,0.00302756 1.5748e-005,0.000877953 0.000248031,0.00166535 0.000732283,0.00237402l0.000307087 0.000452756 0.000503937 0.000744094 0.000507874 0.000748031 0.000507874 0.000755906 0.000507874 0.000755906 0.000511811 0.000767717 0.000511811 0.000771654 0.000511811 0.000775591 0.000515748 0.000779528 0.000503937 0.00076378zm-0.0312126 -0.042437c0.00315354,0.0037126 0.00952362,0.000137795 0.00808661,-0.00464173 -0.000169291,-0.000511811 -0.00042126,-0.000992126 -0.000771654,-0.00140157l-0.000271654 -0.000330709 -0.000358268 -0.00042126 -0.000350394 -0.00042126 -0.000350394 -0.000417323 -0.000346457 -0.000409449 -0.00034252 -0.000405512 -0.00034252 -0.000401575 -0.000334646 -0.000393701 -0.000334646 -0.000389764 -0.000326772 -0.00038189 -0.000326772 -0.000377953 -0.000322835 -0.000377953 -0.000318898 -0.000366142 -0.000314961 -0.000366142 -0.000314961 -0.000358268 -0.000307087 -0.000354331 -0.00030315 -0.000346457 -0.000259843 -0.000295276c-0.00290551,-0.00324409 -0.00854724,-0.000653543 -0.00820866,0.00377953 9.44882e-005,0.000952756 0.000413386,0.00170079 0.00102362,0.00241732l0.000251969 0.000287402 0.000299213 0.00034252 0.00030315 0.00034252 0.00030315 0.000350394 0.000307087 0.000354331 0.000311024 0.000358268 0.000314961 0.000366142 0.000314961 0.000370079 0.000322835 0.000374016 0.000326772 0.00038189 0.000326772 0.000385827 0.000330709 0.000389764 0.000338583 0.000397638 0.000334646 0.000397638 0.00034252 0.000405512 0.000346457 0.000413386 0.000346457 0.000417323 0.000275591 0.000326772zm-0.0371496 -0.0373583c0.00159055,0.00152362 0.00424409,0.00155512 0.00607874,8.66142e-005 0.00225984,-0.00181102 0.00250787,-0.00498425 0.000555118,-0.00685039l-0.000141732 -0.000137795 -0.000622047 -0.000586614 -0.000633858 -0.000590551 -0.000637795 -0.000602362 -0.000645669 -0.000606299 -0.000653543 -0.000614173 -0.00065748 -0.000622047 -0.000665354 -0.000629921 -0.000677165 -0.000637795 -0.000681102 -0.000641732 -0.000437008 -0.000413386c-0.00129134,-0.00123622 -0.00324409,-0.00150394 -0.00497638,-0.000759843 -0.00311417,0.00142126 -0.00399606,0.00529134 -0.00167323,0.00751181l0.000440945 0.000417323 0.000681102 0.000645669 0.000677165 0.000633858 0.000669291 0.000633858 0.000661417 0.000622047 0.000653543 0.00061811 0.000645669 0.000606299 0.000641732 0.000602362 0.000629921 0.000594488 0.000625984 0.000586614 0.000141732 0.000133858zm-0.0385827 -0.0367913c0.00311024,0.00297638 0.00854724,9.84252e-005 0.00793701,-0.00433858 -0.00015748,-0.000909449 -0.000551181,-0.0017126 -0.00121654,-0.00235039l-0.000606299 -0.000582677 -0.000909449 -0.00088189 -0.000917323 -0.000889764 -0.00092126 -0.000889764 -0.000925197 -0.000897638 -0.000929134 -0.000901575 -0.000929134 -0.000905512 -0.000228346 -0.000220472c-0.00112992,-0.00107874 -0.00266142,-0.00144882 -0.00425984,-0.00105906 -0.00355512,0.000901575 -0.00498425,0.00533071 -0.00247244,0.00773228l0.000228346 0.000220472 0.000933071 0.000905512 0.000929134 0.000905512 0.000929134 0.000897638 0.00092126 0.000893701 0.000917323 0.000889764 0.000917323 0.000885827 0.000602362 0.000586614zm-0.0380315 -0.0373543c0.00139764,0.00140945 0.00364567,0.00164567 0.00549213,0.000622047 0.00275197,-0.00153543 0.00338976,-0.00512992 0.0013189,-0.0072126l-0.000637795 -0.000641732 -0.00101969 -0.00101969 -0.00102362 -0.00101969 -0.00102362 -0.00102362 -0.00102362 -0.00102756 -0.00102362 -0.00102756 -0.000507874 -0.000511811c-0.00101575,-0.00102362 -0.00246457,-0.00144094 -0.00396063,-0.00118504 -0.00374409,0.000685039 -0.00541339,0.00520079 -0.00287008,0.00776378l0.000507874 0.000511811 0.0010315 0.0010315 0.00102756 0.00102756 0.00102362 0.00102756 0.00102362 0.00102756 0.00102756 0.00101969 0.000637795 0.000637795zm-0.0373622 -0.0380276c0.00127165,0.00135039 0.00333858,0.00167717 0.00513386,0.000893701 0.00302362,-0.00138189 0.00393701,-0.00509449 0.00179921,-0.0073622l-0.000531496 -0.000555118 -0.00102756 -0.00107087 -0.00102756 -0.00107087 -0.00102756 -0.00107087 -0.00102362 -0.0010748 -0.00102362 -0.00107087 -0.000456693 -0.000480315c-0.000897638,-0.000952756 -0.00225984,-0.00144488 -0.00362598,-0.00130709 -0.0039252,0.000405512 -0.00590551,0.00502362 -0.00333465,0.00775197l0.000464567 0.000484252 0.00102756 0.00107874 0.00102756 0.0010748 0.0010315 0.0010748 0.0010315 0.0010748 0.0010315 0.00107874 0.000531496 0.000551181zm-0.0364094 -0.0389685c0.00129921,0.00144882 0.00352362,0.00182677 0.00538583,0.000909449 0.00285039,-0.00140551 0.00370866,-0.00497638 0.00172441,-0.00719291l-0.000169291 -0.000185039 -0.000944882 -0.00105118 -0.000944882 -0.00104724 -0.000940945 -0.00104724 -0.000937008 -0.00104724 -0.000933071 -0.00104331 -0.000929134 -0.00103937 -0.000102362 -0.000114173c-0.00314173,-0.00351181 -0.00927953,-9.05512e-005 -0.00805512,0.00457087 0.000185039,0.000629921 0.000468504,0.00117717 0.000905512,0.00166535l0.000106299 0.00011811 0.000937008 0.00105118 0.000940945 0.00104724 0.000940945 0.00105512 0.000944882 0.00105118 0.000952756 0.00105906 0.000952756 0.00105512 0.000165354 0.000185039zm-0.0347362 -0.040752c0.00112205,0.0014685 0.00296457,0.00202756 0.00485039,0.0015 0.00316929,-0.000913386 0.00462992,-0.00472441 0.00273622,-0.00720079l-1.9685e-005 -3.14961e-005 -0.000677165 -0.000905512 -0.000665354 -0.000905512 -0.000653543 -0.000893701 -0.000637795 -0.000893701 -0.000625984 -0.000885827 -0.00061811 -0.000877953 -0.000602362 -0.000874016 -0.000531496 -0.000779528c-0.00222047,-0.00324409 -0.00744094,-0.00204724 -0.0084252,0.00196063 -0.000255906,0.00123228 -8.66142e-005,0.00240157 0.000602362,0.00340945l0.000562992 0.000826772 0.000633858 0.000917323 0.000641732 0.00092126 0.00065748 0.000925197 0.000669291 0.000933071 0.000681102 0.000937008 0.000692913 0.000940945 0.000708661 0.000948819 1.9685e-005 2.75591e-005zm-0.0230591 -0.0499843c0.000590551,0.00511417 0.00798819,0.00502362 0.00914567,-0.000114173 9.05512e-005,-0.000484252 0.00011811,-0.000885827 7.48031e-005,-0.00137008l-3.14961e-005 -0.00030315 -5.51181e-005 -0.000559055 -4.33071e-005 -0.000543307 -3.93701e-005 -0.000547244 -3.14961e-005 -0.00053937 -2.75591e-005 -0.000531496 -1.5748e-005 -0.000531496 -1.1811e-005 -0.000523622 -7.87402e-006 -0.000515748 0 -0.000515748 7.87402e-006 -0.000511811 1.5748e-005 -0.000503937 1.5748e-005 -0.0005 2.75591e-005 -0.000496063 3.14961e-005 -0.000488189 3.54331e-005 -0.000484252 7.87402e-006 -9.84252e-005c0.000177165,-0.0017874 -0.000771654,-0.00349213 -0.00237008,-0.00424016 -0.00294094,-0.00138189 -0.00652756,0.000708661 -0.00685433,0.00399606l-1.5748e-005 0.000208661 -4.72441e-005 0.000598425 -3.93701e-005 0.000602362 -2.75591e-005 0.000606299 -2.3622e-005 0.000610236 -1.9685e-005 0.000614173 -7.87402e-006 0.00061811 0 0.000622047 7.87402e-006 0.000625984 1.1811e-005 0.000633858 2.3622e-005 0.000633858 3.14961e-005 0.000641732 3.54331e-005 0.000645669 4.72441e-005 0.000645669 5.51181e-005 0.000653543 6.29921e-005 0.000653543 3.14961e-005 0.000307087zm0.0410433 -0.0448976c-0.00257874,0.000744094 -0.00545669,0.00201575 -0.00785827,0.00321654 -0.000732283,0.000370079 -0.00152756,0.000535433 -0.00232677,0.000515748 -0.00474016,-0.000204724 -0.00573622,-0.00639764 -0.00140945,-0.00857874 0.00292126,-0.00146457 0.00646457,-0.00301575 0.00961417,-0.0038937 0.00353543,-0.000976378 0.00658661,0.00220866 0.00534646,0.0056378 -0.000559055,0.00150787 -0.00177559,0.00264173 -0.00333858,0.00309449m-7.87402e-006 3.93701e-006l7.87402e-006 -3.93701e-006 -2.75591e-005 7.87402e-006"/>
   </g>
   <path id="_325553816" class="fil9" d="M3.36564 4.11167c-0.0258543,0.102035 -0.189252,0.427839 -0.235583,0.477528 -0.0306457,0.0328701 -0.0754291,0.0618465 -0.147079,0.0968543 -0.259583,0.126843 -0.613736,0.298008 -0.735307,0.322201l-0.139146 -0.293709c0.189622,-0.187717 0.51078,-0.330732 0.630213,-0.461563 0.0122953,-0.0134724 0.0235827,-0.0262756 0.033685,-0.0382913 0.0178189,-0.0423819 0.14037,-0.481803 0.144795,-0.530024l0.448421 0.427004z"/>
   <path id="_325553792" class="fil10" d="M2.91111 3.02108c-0.047752,0.0698386 -0.0843583,0.16924 -0.105417,0.274354 -0.0272638,0.136098 -0.00302756,0.264756 0.029685,0.37472 0.091315,0.30702 0.438398,0.745693 0.60352,0.825091 -0.0161496,0.0796614 -0.0164528,0.170004 -0.0130079,0.243181 0.0127992,0.271783 0.0065,0.471972 -0.00666929,0.744449l0.355752 -0.00125591c0.0138425,-0.221531 0.214669,-1.06389 0.176276,-1.20219 -0.0276457,-0.0995748 -0.209429,-0.592035 -0.327091,-0.736283l0.0728819 -0.240764c0.0051063,-0.0169921 0.00545669,-0.0348465 0.00189764,-0.0511339l7.48031e-005 -2.75591e-005c-0.0797008,-0.361476 -0.450661,-0.334055 -0.626646,-0.317764 -0.0543189,0.00502756 -0.101791,0.0255512 -0.161256,0.0876181z"/>
   <path id="_325553648" class="fil1" d="M3.66548 1.67278c-0.0172638,-0.0896654 -0.0832244,-0.431276 0.114921,-0.606685 0.0734764,-0.0650472 0.160555,-0.0880276 0.245181,-0.0809921 0.0646024,0.00537008 0.127823,0.0287677 0.181894,0.0644449 0.0543425,0.0358543 0.0997717,0.0844134 0.128465,0.139878 0.0327362,0.0632717 0.0443465,0.135157 0.0244606,0.208087l0.0194843 0.102996 0.000181102 -3.54331e-005c0.00759843,0.040189 -0.0188189,0.078937 -0.0590039,0.0865354 -0.00230709,0.000437008 -0.0046063,0.000755906 -0.00689764,0.000968504 -0.0189409,0.0955039 -0.0662559,0.254646 -0.170386,0.245587 -0.0168622,-0.00146457 -0.0626732,-0.00473228 -0.0691732,-0.00396457 -0.016811,0.0605354 -0.156937,0.263646 -0.2455,0.293713 -0.030563,0.010378 0.0052874,0.054748 -0.0411693,0.0482047 -0.0357835,-0.00503937 -0.0421024,-0.0833858 -0.0905118,-0.102976l-3.14961e-005 8.26772e-005c-0.00298819,-0.0012126 -0.00585827,-0.00259055 -0.00859843,-0.00413386 -0.0310748,-0.0149331 -0.0299567,-0.0747913 -0.0467795,-0.0898386 -0.0220709,-0.0197323 0.0102205,0.0263307 -3.93701e-006,3.93701e-006 -0.0530512,-0.123039 0.00088189,-0.24728 0.0234685,-0.301874z"/>
   <path id="_325553480" class="fil11" d="M3.78824 2.09502c0.166618,-0.0326575 0.203575,-0.135252 0.235791,-0.170358 0.168043,0.128043 0.367776,0.423311 0.415594,0.731799 0.21711,-0.168957 0.341445,-0.287744 0.402299,-0.544039 0.0860984,-0.0765236 0.178004,-0.0111024 0.154201,0.0577874 -0.075685,0.219059 -0.303882,0.525988 -0.425594,0.730087 -0.0723031,0.121232 -0.109921,0.193665 -0.222488,0.0851339 -0.112571,-0.108535 -0.205638,-0.322898 -0.317933,-0.489303l-0.311441 0.814685 1.9685e-005 8.66142e-005c-0.0175866,0.040374 -0.0610787,0.0571339 -0.097122,0.0374331 -0.189386,-0.103512 -0.770657,-0.205902 -0.781961,-0.255283 -0.00864173,-0.037748 0.0316732,-0.0840472 0.0615512,-0.100839 0.175035,-0.117492 0.284996,-0.723047 0.290823,-0.839197 -0.0822638,-0.0936614 -0.3795,0.0932283 -0.464402,0.153354 -0.168492,0.119327 -0.153618,0.201114 -0.140031,0.54339 0.00270472,0.0681693 0.00559055,0.170591 -0.0574724,0.153614 -0.0547047,-0.0147205 -0.083815,-0.0332165 -0.0868701,-0.102717 -0.0126654,-0.287685 -0.00556299,-0.504626 0.0359764,-0.726063 0.216327,-0.308453 0.739697,-0.516697 1.00131,-0.431449 0.0647717,0.0211024 0.122138,0.0273031 0.141898,0.074 0.052185,0.123303 0.0536299,0.272803 0.165846,0.277878z"/>
   <path id="_325553624" class="fil1" d="M4.40426 2.49374c0.0148031,0.0528307 0.0267756,0.107303 0.0353661,0.162717 0.140012,-0.187268 0.276724,-0.327134 0.366331,-0.50674 0.0114567,-0.012252 -0.0233504,-0.225051 -0.0108189,-0.237665 0.0462677,-0.0144488 0.070685,0.122669 0.0883543,0.126472 0.00885039,0.00190551 0.038063,-0.142378 0.0430827,-0.149055 0.0716063,-0.0952598 0.263291,0.0275315 0.212094,0.108126 -0.00496063,0.00780709 -0.157417,0.211087 -0.159638,0.21752 -0.00977953,0.0283031 -0.00501969,0.0131732 -0.0193307,0.044 -0.0964567,0.207748 -0.283185,0.463453 -0.389173,0.641177 -0.0723031,0.121232 -0.109921,0.193665 -0.222488,0.0851339 -0.0595433,-0.0574094 -0.113626,-0.144429 -0.167988,-0.238299l0.224209 -0.253386z"/>
   <path id="_325553144" class="fil1" d="M2.61131 2.80114c-0.00135433,0.0297677 0.00640945,0.0507835 0.00206299,0.0849882 -0.00211417,0.0166339 0.0807992,0.211339 0.0719606,0.226764 -0.0409528,0.0259331 -0.100024,-0.100193 -0.118079,-0.0992953 -0.00903937,0.000452756 8.66142e-005,0.147378 -0.00303543,0.15513 -0.0445079,0.110543 -0.261441,0.0415512 -0.23285,-0.0495512 0.00277165,-0.00882677 0.0974173,-0.244634 0.0978976,-0.251425 0.000716535,-0.0100591 0.00111417,-0.014937 0.00154724,-0.018252l0.180496 -0.0483583z"/>
   <path id="_325553048" class="fil1" d="M2.78123 2.26468c-0.0225984,0.0155394 -0.0411457,0.0299724 -0.0536496,0.041685 -0.130406,0.122161 -0.12539,0.335984 -0.114811,0.521437 -0.0702008,0.0748622 -0.0196299,0.192543 -0.0826929,0.175567 -0.0547087,-0.0147205 -0.0962047,-0.084374 -0.0992598,-0.153874 -0.0126654,-0.287689 0.00682677,-0.453469 0.0483701,-0.674906 0.0421929,-0.0601614 0.0961063,-0.116492 0.157441,-0.167598l0.144602 0.257677 0 1.1811e-005z"/>
   <path id="_325553312" class="fil12" d="M3.97594 1.38347c0,0 0.0561535,-0.00254331 0.134606,-0.147606 0.0784488,-0.145063 0.175189,0.0219882 0.224165,0.051622 0.0489724,0.0296378 0.106244,-0.0810827 0.0239094,-0.232228 -0.0823346,-0.151146 -0.265016,-0.256173 -0.469701,-0.172055 -0.266413,0.103217 -0.319772,0.618949 -0.241496,0.673894 0.0573976,-0.0384685 0.0410984,-0.0467087 0.0919173,-0.14422 0.0508189,-0.0975157 0.102673,-0.15828 0.102673,-0.15828 0,0 0.0876654,-0.0734055 0.113496,-0.000212598 0.0258346,0.0731929 0.0204291,0.129087 0.0204291,0.129087z"/>
  </g>
 </g>
 <rect class="fil13" width="6.82666" height="6.82666"/>
</svg>
