<?xml version="1.0" encoding="UTF-8"?>
<!DOCTYPE svg PUBLIC "-//W3C//DTD SVG 1.1//EN" "http://www.w3.org/Graphics/SVG/1.1/DTD/svg11.dtd">
<!-- Creator: CorelDRAW -->
<svg xmlns="http://www.w3.org/2000/svg" xml:space="preserve" width="6.82666in" height="6.82666in" style="shape-rendering:geometricPrecision; text-rendering:geometricPrecision; image-rendering:optimizeQuality; fill-rule:evenodd; clip-rule:evenodd"
viewBox="0 0 6.82666 6.82666"
 xmlns:xlink="http://www.w3.org/1999/xlink">
 <defs>
  <style type="text/css">
   <![CDATA[
    .fil22 {fill:none}
    .fil7 {fill:black}
    .fil18 {fill:#1D5378}
    .fil13 {fill:#212121}
    .fil9 {fill:#333333}
    .fil10 {fill:#666666}
    .fil14 {fill:#80DEEA}
    .fil8 {fill:#B3B3B3}
    .fil20 {fill:#FFB300}
    .fil2 {fill:#006064;fill-rule:nonzero}
    .fil3 {fill:#00838F;fill-rule:nonzero}
    .fil4 {fill:#00ACC1;fill-rule:nonzero}
    .fil21 {fill:#212121;fill-rule:nonzero}
    .fil16 {fill:#256EA1;fill-rule:nonzero}
    .fil5 {fill:#26C6DA;fill-rule:nonzero}
    .fil17 {fill:#42A5F5;fill-rule:nonzero}
    .fil15 {fill:#4D4D4D;fill-rule:nonzero}
    .fil6 {fill:#526D74;fill-rule:nonzero}
    .fil12 {fill:#B3B3B3;fill-rule:nonzero}
    .fil1 {fill:#CCCCCC;fill-rule:nonzero}
    .fil0 {fill:#F1BC90;fill-rule:nonzero}
    .fil19 {fill:#FFFFFE;fill-rule:nonzero}
    .fil11 {fill:white;fill-rule:nonzero}
   ]]>
  </style>
 </defs>
 <g id="Layer_x0020_1">
  <metadata id="CorelCorpID_0Corel-Layer"/>
  <g id="_325576568">
   <path id="_327203536" class="fil0" d="M3.47196 2.76156c0.0239173,0.0137165 0.106173,0.0984331 0.128933,0.11213 0.175122,0.105398 0.31965,0.207787 0.491264,0.268764 0.0138898,0.0101417 0.265213,0.0042874 0.279606,0.0154764 0.0204449,0.0452953 -0.155138,0.031185 -0.156815,0.0496378 -0.000838583,0.00923622 0.14963,0.0210591 0.157047,0.0253386 0.105839,0.0610512 0.00466142,0.271378 -0.0837165,0.229283 -0.00856299,-0.00408268 -0.234374,-0.134008 -0.241197,-0.135472 -0.0300197,-0.00644094 -0.0140276,-0.00347244 -0.0471772,-0.0142126 -0.223413,-0.072378 -0.506831,-0.230677 -0.700866,-0.31648 -0.00650394,-0.00287402 -0.0128858,-0.00566929 -0.0191299,-0.00838583 0.0642756,-0.13824 0.12178,-0.170169 0.192051,-0.226079z"/>
   <path id="_327203560" class="fil0" d="M3.2775 2.48895c0.0161811,0.053874 0.102232,0.170886 0.194461,0.27261l-0.192051 0.226079c-0.104354,-0.0904567 -0.191969,-0.168906 -0.236913,-0.224996l0.234504 -0.273693z"/>
   <path id="_327203752" class="fil1" d="M2.01353 5.01812c-0.221831,0.143083 -0.452236,0.303122 -0.532783,0.31915l-0.040189 -0.314539c0.084937,-0.0840827 0.18339,-0.172539 0.276945,-0.256343l0.296028 0.251732z"/>
   <path id="_325568864" class="fil0" d="M2.55826 4.52669c-0.0258543,0.102031 -0.0399449,0.160693 -0.0862874,0.210394 -0.0306575,0.0328819 -0.0754291,0.0618465 -0.147079,0.0968543 -0.0876024,0.0428071 -0.198374,0.111295 -0.311366,0.184177l-0.296028 -0.251732c0.115311,-0.103291 0.223189,-0.199508 0.28913,-0.271744 0.0123031,-0.0134764 0.0235787,-0.0262717 0.033685,-0.0382874 0.017815,-0.0423819 0.0274252,-0.0891142 0.0318504,-0.137335l0.486094 0.207673z"/>
   <path id="_325546688" class="fil2" d="M2.07429 3.84344c0.148689,0.157398 0.413846,0.211622 0.58774,0.34161 -0.0383819,0.056 -0.075689,0.264402 -0.0960984,0.34498l-0.519134 -0.21902c0.0187323,-0.204161 -0.0305236,-0.42702 0.0274921,-0.467571z"/>
   <path id="_322182864" class="fil1" d="M2.81493 5.1467c0.0144016,0.0581299 0.0289409,0.115689 0.042748,0.171264 0.0261102,0.105098 0.0495709,0.203063 0.0643386,0.284165l0.307398 -0.0559331c-0.00156299,-0.0132598 -0.00295276,-0.0235276 -0.0040315,-0.0290276 -0.0104724,-0.0535394 -0.0168307,-0.107059 -0.013622,-0.150685 0.00406299,-0.0551024 0.00435827,-0.129472 0.00209055,-0.209161 -0.000629921,-0.0220394 -0.00144882,-0.0444764 -0.00244488,-0.0670315l-0.396476 0.0564094z"/>
   <path id="_467012744" class="fil0" d="M2.64731 4.50642c0.0208819,0.015374 0.0406024,0.0285709 0.0588346,0.0390945 0.00299606,0.157965 0.0548465,0.383504 0.108776,0.601185l0.396476 -0.0564094c-0.00659449,-0.149504 -0.0207165,-0.303965 -0.0350354,-0.377654 0.0222717,-0.0786929 0.0299213,-0.356689 -0.0619291,-0.546441 -0.00668898,-0.0138189 -0.0161024,-0.0319331 -0.0277244,-0.0531575l-0.439398 0.393382z"/>
   <path id="_322183536" class="fil3" d="M1.93275 3.25186c-0.0353504,0.0792165 -0.0540315,0.186201 -0.0559843,0.296098 -0.00252362,0.142287 0.0669016,0.21778 0.120079,0.322701 0.178469,0.180339 0.449177,0.509457 0.637118,0.64778l0.468102 -0.415413c-0.0686063,-0.125272 -0.230094,-0.349441 -0.354224,-0.455406l0.0293307 -0.25624c0.0020315,-0.0180787 -0.000889764,-0.0361535 -0.00747244,-0.0519291l7.48031e-005 -4.33071e-005c-0.146748,-0.35 -0.515906,-0.25426 -0.690441,-0.205528 -0.0538701,0.0150394 -0.0979921,0.0444606 -0.146583,0.11798z"/>
   <path id="_322183224" class="fil0" d="M2.44625 1.75334c-0.033874,-0.0872795 -0.163106,-0.419764 0.0045748,-0.633071 0.0621772,-0.0791024 0.145799,-0.118264 0.232457,-0.126701 0.0661535,-0.00643701 0.13422,0.00556299 0.195307,0.031622 0.0614016,0.0261969 0.116134,0.0668425 0.15526,0.117524 0.0446339,0.057815 0.0695394,0.128201 0.0628622,0.205417l0.0385591 0.100315 0.000177165 -6.69291e-005c0.0150394,0.0391417 -0.00449606,0.0830787 -0.0436378,0.0981181 -0.00224409,0.000866142 -0.00450787,0.0016063 -0.00677953,0.00224409 -0.00157874,0.099815 -0.0200984,0.269028 -0.126799,0.279004 -0.0172795,0.00161417 -0.0640906,0.00672441 -0.0705039,0.00869291 -0.00584646,0.0641496 -0.109921,0.294752 -0.193736,0.341335 -0.0289252,0.0160787 0.015378,0.0542559 -0.0326811,0.0561811 -0.0370197,0.00148425 -0.0577756,-0.0763858 -0.110201,-0.0872598l-1.9685e-005 8.66142e-005c-0.00323622,-0.000673228 -0.00638189,-0.00153937 -0.00942913,-0.00259449 -0.0340906,-0.00935827 -0.0439488,-0.0699449 -0.0636811,-0.0820315 -0.0258819,-0.0158583 0.0151457,0.0246811 0,3.93701e-006 -0.0760984,-0.114382 -0.0444961,-0.249602 -0.0317283,-0.308819z"/>
   <path id="_322796320" class="fil4" d="M3.04302 2.06852c0.0263228,0.0300433 0.0523465,0.0624921 0.0773937,0.0969764 0.0690276,0.0950354 0.13063,0.205461 0.170535,0.323114l-0.256421 0.297004c-0.0379252,-0.0554843 -0.0714252,-0.126197 -0.107929,-0.190327 -0.013252,-0.0232913 -0.0269055,-0.0457126 -0.0413071,-0.0662205 0,0 0.0396142,-0.346047 0.157728,-0.460547z"/>
   <path id="_322796272" class="fil5" d="M2.64757 2.15673c0.162083,-0.0635197 0.180528,-0.173791 0.206583,-0.215118 0.0577638,0.0294252 0.123157,0.0726575 0.188992,0.126988 -0.0981772,0.131996 -0.0816575,0.479909 -0.0816575,0.479909 -0.0335197,0.330366 -0.212429,0.532154 -0.140929,0.999579 0.00926378,0.0216142 -0.0460748,0.0705945 -0.0910669,0.0556732 -0.210039,-0.0696575 -0.867732,-0.178976 -0.888201,-0.226717 -0.0156457,-0.0364921 0.0178307,-0.102319 0.0448858,-0.124736 0.289992,-0.33726 0.0778268,-0.956232 0.229583,-1.23063 0.057622,-0.104189 0.325598,-0.186894 0.31352,-0.114807 0.0752638,0.114799 0.104165,0.265339 0.218291,0.249862z"/>
   <path id="_322796128" class="fil6" d="M3.66569 5.80358l-0.0253543 0.0438858 -0.00332677 0.00575591 -0.00698425 0.00126772 -0.0451142 0.00820866 -0.0140787 0.00256299 -0.00227559 -0.0125157 -0.00531102 -0.029185c0.0361614,-0.00657874 0.0934685,-0.0238937 0.102445,-0.0199803z"/>
   <path id="_322795864" class="fil6" d="M3.76835 5.75129l-0.0116772 0.045878 -0.00174016 0.00682677 -0.00733071 0.00264961 -0.0428504 0.0155118 -0.0130039 0.00470472 -0.00507874 -0.0113661 -0.0122126 -0.0273268c0.025748,-0.00997638 0.0916024,-0.0372598 0.0938937,-0.036878z"/>
   <path id="_322796536" class="fil6" d="M3.54295 5.83237l-0.0239291 0.0402835 -0.0033622 0.00566142 -0.00685433 0.00124803 -0.0451142 0.00820866 -0.014685 0.00267323 -0.0017126 -0.0131732 -0.00579528 -0.0444921c0.0137992,-0.0019685 0.0965866,-0.00259055 0.101453,-0.000409449z"/>
   <path id="_322796440" class="fil6" d="M3.22035 5.8755l-0.0341417 0.0549488 -0.00340551 0.00541732 -0.0066378 0.00120866 -0.0451142 0.00820866 -0.0141339 0.00257087 -0.00217717 -0.0125827 -0.00587795 -0.0340118c0.0286063,-0.00510236 0.108193,-0.0273346 0.111488,-0.0257598z"/>
   <path id="_322796056" class="fil6" d="M3.06919 5.91922l-0.0230787 0.0367205 -0.00340551 0.00541732 -0.0066378 0.00120472 -0.0451142 0.00820866 -0.0140945 0.00256693 -0.0022126 -0.0125787 -0.00588583 -0.0334213c0.0146142,-0.0026063 0.0986575,-0.00896457 0.100429,-0.00811811z"/>
   <path id="_322796248" class="fil7" d="M2.90605 5.83216c0,0 -0.0122953,0.0407283 -0.00675984,0.0737638 0.00429134,0.0255906 0.0257283,0.0462992 0.0883189,0.0392008 0,0 0.104571,-0.0105945 0.262035,-0.0720512 0.0376339,-0.014689 0.076189,-0.0220866 0.114004,-0.0257441 0.0728701,-0.00705512 0.143311,0.00235433 0.198535,-0.00495276 0.0734724,-0.00971654 0.172992,-0.0534646 0.219984,-0.0979134 0.0462559,-0.043752 0.0148937,-0.108134 -0.0256457,-0.125228 -0.0160394,-0.00676378 -0.0400748,-0.00935039 -0.0802717,-0.00807874 -0.0407677,0.00129134 -0.0822677,0.00243701 -0.123764,0.00153937l-0.0181929 0.0544094c-0.00174409,0.00524409 -0.0071811,0.00788583 -0.0121457,0.00589764 -0.00496063,-0.00198425 -0.00757087,-0.00784646 -0.00582677,-0.0130945l0.0159882 -0.047815c-0.016874,-0.000653543 -0.0337244,-0.00169685 -0.0505079,-0.00325591l-0.0194409 0.0542244c-0.00185433,0.00519685 -0.00735039,0.00770472 -0.0122717,0.00559843 -0.00492126,-0.0021063 -0.00740945,-0.00802756 -0.00555118,-0.0132244l0.0174567 -0.0486969c-0.0162795,-0.00193307 -0.0324764,-0.00440945 -0.0485394,-0.00753937l-0.0226142 0.0530748c-0.00214961,0.00507087 -0.00779528,0.00722441 -0.0126063,0.00480709 -0.00481102,-0.00241732 -0.00696457,-0.00849213 -0.00481496,-0.013563l0.0206378 -0.048437c-0.0141969,-0.00327559 -0.0282756,-0.00711024 -0.0422047,-0.0115827l-0.0294764 0.0496457c-0.00278346,0.00469685 -0.00866929,0.00600394 -0.0131417,0.00291732 -0.0044685,-0.00308268 -0.00583858,-0.00938976 -0.00305512,-0.0140827l0.0267244 -0.0450079c-0.0190118,-0.007 -0.0377047,-0.0152953 -0.0559961,-0.0251024l-0.0279685 0.047378c-0.00278346,0.00469291 -0.00866929,0.006 -0.0131417,0.00291732 -0.00447244,-0.00308268 -0.00583858,-0.00938976 -0.00305512,-0.0140866l0.0270866 -0.045878c-0.00280709,-0.00167717 -0.00559843,-0.00338976 -0.00838189,-0.00514567 -0.0167205,-0.00616535 -0.0252638,-0.00267717 -0.0413819,-0.000318898 -0.00307874,0.00105906 -0.00612205,0.00209843 -0.00914173,0.0031063 -0.00767717,0.00257087 -0.0151654,0.0049685 -0.0224685,0.0071378 -0.0135827,0.00403937 -0.0274528,0.00790945 -0.0412087,0.0112047 -0.154398,0.0370118 -0.208161,-0.00844488 -0.233902,0.0135039 -0.00954724,0.0168071 -0.00251181,0.0912205 0.00270472,0.260472z"/>
   <g>
    <path id="_322795624" class="fil8" d="M3.25983 5.5422l-0.0270866 0.045878c-0.00278346,0.00469685 -0.00141732,0.0110039 0.00305512,0.0140866 0.00447244,0.00308268 0.0103543,0.00177559 0.0131417,-0.00291732l0.0279685 -0.047378 -0.0170787 -0.00966929z"/>
    <path id="_322795024" class="fil8" d="M3.3329 5.57697l-0.0267244 0.0450079c-0.00278346,0.00469291 -0.00141339,0.011 0.00305512,0.0140827 0.00447244,0.00308661 0.0103583,0.00177953 0.0131417,-0.00291732l0.0294764 -0.0496457 -0.0189488 -0.00652756z"/>
    <path id="_322795456" class="fil8" d="M3.39406 5.59508l-0.0206378 0.048437c-0.00214961,0.00507087 3.93701e-006,0.0111457 0.00481496,0.013563 0.00481102,0.00241732 0.0104567,0.00026378 0.0126063,-0.00480709l0.0226142 -0.0530748 -0.0193976 -0.00411811z"/>
    <path id="_322795192" class="fil8" d="M3.46199 5.60674l-0.0174567 0.0486969c-0.00185827,0.00519685 0.000629921,0.0111181 0.00555118,0.0132244 0.00492126,0.0021063 0.0104173,-0.000401575 0.0122717,-0.00559843l0.0194409 -0.0542283 -0.0198071 -0.00209449z"/>
    <path id="_322795360" class="fil8" d="M3.53231 5.61209l-0.0159882 0.047815c-0.00174409,0.00524803 0.000866142,0.0111102 0.00582677,0.0130945 0.00496457,0.00198819 0.0104016,-0.000653543 0.0121457,-0.00589764l0.0181929 -0.0544094 -0.0201772 -0.000602362z"/>
   </g>
   <path id="_322795288" class="fil9" d="M2.90017 5.67427c0.00149606,0.0394843 0.00382677,0.0913622 0.00587795,0.157894 0,0 -0.0122953,0.0407283 -0.00675984,0.0737638 0.00391339,0.0233504 0.0221102,0.0426417 0.0728268,0.0404409 0.00485827,-0.000212598 0.0100197,-0.00061811 0.0154921,-0.00124016 0,0 0.0268031,-0.00271654 0.0737047,-0.013374 0.0149134,-0.00338583 0.0318583,-0.00757874 0.0506181,-0.0127402 0.0295866,-0.00814173 0.0636929,-0.0186969 0.101465,-0.0323228 0.0117402,-0.00423622 0.0238307,-0.00876772 0.036248,-0.0136142 0.0154567,-0.0060315 0.031063,-0.0108346 0.0467126,-0.0146535 0.00115748,-0.00182677 0.0028937,-0.00325197 0.00504331,-0.00392913 0.0272126,-0.00867717 0.0758937,-0.0650394 0.084248,-0.0769409 0.00214567,-0.00305906 0.00318504,-0.0055315 0.00287402,-0.00714567 -0.000240157,-0.00126772 -0.00185827,-0.00270866 -0.00509449,-0.00425984 -0.0134016,-0.00643307 -0.0426299,-0.00790157 -0.0933858,0.000295276 -0.149886,0.0242008 -0.27839,-0.00472835 -0.289409,-0.0073189 -0.0016063,-0.00023622 -0.00318504,-0.000909449 -0.00458268,-0.00203937l1.1811e-005 -1.5748e-005c-0.00848031,-0.00687795 -0.0807244,-0.071315 -0.0878268,-0.0767323 -0.00276378,-0.0021063 -0.00544882,-0.00412992 -0.00806299,-0.00606693z"/>
   <path id="_322795408" class="fil10" d="M3.64937 5.61196c0.0393819,0.0258504 0.100409,0.0687441 0.147106,0.114429 0.0235827,-0.0417087 -0.00472047,-0.0922992 -0.0399606,-0.107157 -0.0160433,-0.00676378 -0.0400748,-0.00935039 -0.0802717,-0.00807874 -0.0089252,0.000283465 -0.0178858,0.000559055 -0.026874,0.000807087z"/>
   <path id="_322794952" class="fil11" d="M3.79514 5.72865c0.00102362,-0.00166142 0.00196457,-0.00333858 0.0028189,-0.0050315l-4.72441e-005 -7.48031e-005c-0.000133858,-0.000181102 -0.000255906,-0.000338583 -0.000417323,-0.000492126l-0.000759843 -0.00073622 -0.00159449 -0.00154331 -0.00161024 -0.00153937 -0.000625984 -0.000594488c-0.00271654,-0.0025 -0.00645669,0.000956693 -0.00448031,0.00417323 0.00015748,0.000240157 0.000311024,0.000425197 0.000511811,0.000622047l0.000606299 0.000574803 0.00159055 0.00152362 0.00157874 0.00152362 0.000759843 0.000740157c0.000527559,0.000507874 0.00110236,0.000775591 0.00166929,0.000854331zm-0.140287 -0.116835l-0.00565748 0.00015748c-0.000570866,0.00105906 -0.000590551,0.00247244 0.000397638,0.00373228 0.000200787,0.000248031 0.000444882,0.00046063 0.000708661,0.000633858l0.000251969 0.000169291 0.0013622 0.000897638 0.00137795 0.000913386 0.0013937 0.000925197 0.000814961 0.000543307c0.003,0.00199606 0.00630709,-0.00215748 0.00361417,-0.00507087 -0.00015748,-0.000149606 -0.000311024,-0.000283465 -0.000492126,-0.000401575l-0.000814961 -0.000543307 -0.00139764 -0.000925197 -0.00138583 -0.000917323 -0.000173228 -0.000114173zm-0.00567323 0.000161417l-0.0053189 0.000141732 0.000122047 7.87402e-005 0.00110236 0.000720472c0.00147244,0.000929134 0.00322835,0.000476378 0.00409449,-0.000940945zm0.135173 0.107142c0.00264961,0.00243701 0.00646457,-0.000933071 0.00443701,-0.00422835 -0.000149606,-0.000228346 -0.000322835,-0.000433071 -0.000515748,-0.000614173l-0.00126772 -0.00117717 -0.00165354 -0.00152362 -0.00166142 -0.00152362 -9.05512e-005 -8.26772e-005c-0.000956693,-0.000877953 -0.00232283,-0.0010315 -0.00340157,-0.000425197 -0.00188189,0.00108268 -0.00211417,0.00379921 -0.000468504,0.00531496l7.48031e-005 6.69291e-005 0.00164567 0.00150787 0.0016378 0.00150787 0.00126378 0.00117717zm-0.00929134 -0.00848425c0.00285039,0.00248031 0.00655512,-0.00133071 0.00424803,-0.00447244 -0.000129921,-0.000169291 -0.000255906,-0.00030315 -0.000413386,-0.000444882l-0.00023622 -0.000212598 -0.00169291 -0.00150787 -0.00169685 -0.00150394 -0.00111811 -0.000984252c-0.0025315,-0.00220472 -0.00608661,0.000688976 -0.0045748,0.00393701 0.000212598,0.000405512 0.000444882,0.000728346 0.000783465,0.00102362l0.0011063 0.000968504 0.0016811 0.00149213 0.00167717 0.00149213 0.00023622 0.000212598zm-0.00943307 -0.00829528c0.00264961,0.00230709 0.00633465,-0.00107874 0.00437008,-0.00427165 -0.000188976,-0.000287402 -0.000370079,-0.000503937 -0.000625984,-0.000724409l-0.000956693 -0.000826772 -0.00172835 -0.00148425 -0.00172835 -0.00147638 -0.000393701 -0.000334646c-0.00274016,-0.00227165 -0.00627953,0.00115354 -0.00434646,0.00429921 0.000192913,0.000295276 0.000377953,0.000507874 0.000641732,0.000732283l0.000377953 0.000322835 0.00172047 0.0014685 0.0017126 0.0014685 0.000956693 0.000826772zm-0.00956299 -0.00813386c0.00271654,0.00225197 0.00624016,-0.00119685 0.00435433,-0.00426772 -0.00019685,-0.000311024 -0.000413386,-0.000566929 -0.000692913,-0.000799213l-0.00174016 -0.00145276 -0.00175197 -0.00145276 -0.00136614 -0.00112992c-0.000968504,-0.000799213 -0.00225197,-0.000905512 -0.00330315,-0.000314961 -0.000350394,0.000200787 -0.000641732,0.00046063 -0.000874016,0.000759843 0.000874016,-0.00134252 0.000653543,-0.00331102 -0.000712598,-0.00444488l-0.000779528 -0.000633858 -0.00176378 -0.00142913 -0.00176772 -0.00142126 -0.000606299 -0.000484252c-0.00290945,-0.00228346 -0.00642913,0.0016378 -0.00404724,0.00466929 0.000137795,0.000169291 0.000311024,0.00034252 0.000484252,0.000476378l0.000594488 0.000480315 0.00175197 0.00140945 0.00175197 0.00141732 0.000779528 0.000633858c0.000996063,0.000779528 0.00222047,0.000897638 0.0032874,0.000299213 0.000350394,-0.000200787 0.000641732,-0.00046063 0.000874016,-0.000755906 -0.000870079,0.00134252 -0.000665354,0.00330315 0.000692913,0.00442913l0.00135039 0.00111417 0.00174016 0.00144488 0.00174409 0.00145276zm-0.0194724 -0.0158268c0.00120472,0.000944882 0.00293307,0.000854331 0.00395276,-0.000287402 0.00129528,-0.0013622 0.00106299,-0.00372441 -0.00042126,-0.00488976l-0.00152756 -0.00120472 -0.00176772 -0.00138976 -0.00166142 -0.00129921c-0.000732283,-0.000574803 -0.00168504,-0.000779528 -0.00254724,-0.000547244 -0.00247244,0.000665354 -0.00305118,0.00410236 -0.00096063,0.00574016l0.00164567 0.0012874 0.00175984 0.00138583 0.00152756 0.00120472zm-0.00988189 -0.00771654c0.00262205,0.00205512 0.0060748,-0.00115748 0.00429921,-0.00428346 -0.000240157,-0.000385827 -0.000472441,-0.00065748 -0.000822835,-0.000933071l-0.000429134 -0.000330709 -0.00176772 -0.00135827 -0.00175984 -0.00135039 -0.00104724 -0.000795276c-0.000622047,-0.000464567 -0.00125984,-0.000645669 -0.002,-0.000606299 -0.00285039,0.000267717 -0.00376378,0.0040315 -0.00144488,0.00584646l0.00103543 0.000787402 0.00175197 0.00134252 0.00175591 0.00135039 0.000429134 0.000330709zm-0.00996457 -0.00759055c0.00270079,0.00201181 0.00601181,-0.00123622 0.00427165,-0.00430315 -0.000251969,-0.000409449 -0.000484252,-0.000669291 -0.000854331,-0.000956693l-0.00096063 -0.000724409 -0.00175197 -0.00131496 -0.00174409 -0.00130315 -0.000582677 -0.000433071c-0.00137795,-0.00102362 -0.00324409,-0.000688976 -0.00418898,0.000732283 0.000866142,-0.00139764 0.00057874,-0.00339764 -0.000870079,-0.00447638l-0.00130315 -0.000956693 -0.00172047 -0.00126378 -0.00172047 -0.00125197 -0.000330709 -0.000240157c-0.00293307,-0.00207087 -0.00616535,0.00172441 -0.00402362,0.0046378 0.000204724,0.00026378 0.000417323,0.000492126 0.000692913,0.000685039l0.000318898 0.000232283 0.00170866 0.00124803 0.00171654 0.00125984 0.00130315 0.000956693c0.00107087,0.000755906 0.00226772,0.000775591 0.00333858,9.84252e-005 0.00034252,-0.000232283 0.000622047,-0.000523622 0.000838583,-0.000846457 -0.000901575,0.00145669 -0.000523622,0.00344488 0.000850394,0.0044685l0.000574803 0.000429134 0.00173622 0.00129528 0.00174016 0.00130315 0.00096063 0.000724409zm-0.0201535 -0.0148386c0.000909449,0.000641732 0.00205906,0.000755906 0.00301969,0.000251969 0.00207874,-0.00105906 0.00225197,-0.00420866 0.000287402,-0.00559449l-0.00138976 -0.001 -0.00168504 -0.00120866 -0.0016811 -0.00120079 -0.000350394 -0.000251969c-0.00287402,-0.00202362 -0.00616929,0.00170866 -0.00398425,0.00468504 0.000208661,0.00026378 0.000425197,0.000484252 0.000700787,0.000677165l0.00034252 0.000244094 0.00167323 0.00119291 0.00167717 0.00120472 0.00138976 0.001zm-0.0101811 -0.00725984c0.000826772,0.000582677 0.00187008,0.000712598 0.00277559,0.000338583 0.00227559,-0.000940945 0.00255906,-0.00425197 0.000484252,-0.00571654l-0.00116535 -0.000818898 -0.0016378 -0.00115354 -0.00162992 -0.00114173 -0.000708661 -0.000496063c-0.00266535,-0.00187795 -0.00590157,0.00133858 -0.0041811,0.00437008 0.00026378,0.000429134 0.000543307,0.000740157 0.000944882,0.00102362l0.000700787 0.000488189 0.00162205 0.0011378 0.00162992 0.00114567 0.00116535 0.000822835zm-0.010248 -0.00716142c0.00065748,0.000464567 0.00151575,0.000641732 0.00227559,0.000468504 0.00264567,-0.000594488 0.00323228,-0.00425984 0.000940945,-0.00587795l-0.000562992 -0.000385827 -0.0015748 -0.00109055 -0.00157087 -0.00107874 -0.00145669 -0.001c-0.00266142,-0.00187795 -0.00598425,0.00140945 -0.0040748,0.00451969 0.000259843,0.00038189 0.000503937,0.000637795 0.000877953,0.000901575l0.00145276 0.000996063 0.00156299 0.0010748 0.00157087 0.00108268 0.000559055 0.000389764zm-0.0103031 -0.00705906c0.00126378,0.000838583 0.00280709,0.000637795 0.00381496,-0.000468504 0.00129921,-0.00151969 0.000992126,-0.00381496 -0.000645669,-0.00497244l-0.00102756 -0.00069685 -0.00149606 -0.00101181 -0.00148425 -0.001 -0.00118898 -0.00080315c-0.00303543,-0.00201969 -0.00630709,0.00216929 -0.0036378,0.00504724 0.000153543,0.000153543 0.000311024,0.000287402 0.000492126,0.000409449l0.0011811 0.000795276 0.00147638 0.000996063 0.00149213 0.00100787 0.00102362 0.00069685z"/>
   <path id="_322794400" class="fil12" d="M2.92551 5.8691l0 -1.9685e-005 3.93701e-006 0 -3.93701e-006 1.9685e-005zm0.859102 -0.15022c0.00355118,-0.00370866 -0.000275591,-0.00992126 -0.00487795,-0.00811417 -0.000566929,0.000244094 -0.00101969,0.00053937 -0.0014685,0.000984252l-0.000129921 0.000133858 -0.000283465 0.000283465 -0.000279528 0.000283465 -0.000283465 0.000283465 -0.000279528 0.000279528 -0.000275591 0.000279528 -0.000275591 0.000279528 -0.000271654 0.000271654 -0.000271654 0.000271654 -0.000267717 0.000271654 -0.000267717 0.000267717 -0.000271654 0.000271654 -0.00026378 0.00026378 -0.00026378 0.00026378 -0.00026378 0.00026378 -0.000255906 0.000255906 -0.000259843 0.000259843 -0.000255906 0.000255906 -0.000251969 0.000251969 -0.000255906 0.000255906 -0.000251969 0.000248031 -0.000248031 0.000248031 -0.000255906 0.000251969 -0.000244094 0.000244094 -0.000244094 0.000244094 -5.51181e-005 5.11811e-005c-0.00291732,0.00284646 -0.00100787,0.00825197 0.00300394,0.00844488 0.00120866,9.05512e-005 0.00240157,-0.000397638 0.00327953,-0.00125197l5.51181e-005 -5.90551e-005 0.000251969 -0.000248031 0.000251969 -0.000248031 0.000248031 -0.000248031 0.000255906 -0.000255906 0.000255906 -0.000251969 0.000251969 -0.000251969 0.00026378 -0.000259843 0.000255906 -0.000259843 0.000259843 -0.000259843 0.000267717 -0.00026378 0.00026378 -0.00026378 0.00026378 -0.00026378 0.000267717 -0.000271654 0.00026378 -0.00026378 0.000271654 -0.000271654 0.000271654 -0.000275591 0.000275591 -0.000275591 0.000275591 -0.000279528 0.000275591 -0.000275591 0.000279528 -0.000279528 0.000279528 -0.000283465 0.000279528 -0.000279528 0.000283465 -0.000287402 0.000291339 -0.000291339 0.000129921 -0.000129921zm-0.0436614 0.0356102c0.00430315,-0.00248031 0.00223622,-0.00961024 -0.00282677,-0.00912205 -0.000566929,7.08661e-005 -0.00111024,0.000240157 -0.00161417,0.000531496l-0.000255906 0.000145669 -0.000267717 0.000153543 -0.000267717 0.000149606 -0.000271654 0.000153543 -0.00026378 0.000153543 -0.000275591 0.000153543 -0.000271654 0.000153543 -0.000271654 0.000153543 -0.000279528 0.000153543 -0.000283465 0.000161417 -0.000283465 0.00015748 -0.000279528 0.000153543 -0.000283465 0.00015748 -0.000287402 0.000161417 -0.000287402 0.00015748 -0.000291339 0.000161417 -0.000291339 0.000161417 -0.000295276 0.000161417 -0.000295276 0.000161417 -0.00030315 0.000169291 -0.000299213 0.000165354 -0.00030315 0.000165354 -0.00030315 0.000161417 -0.000307087 0.000169291 -0.000311024 0.000169291 -0.000307087 0.000169291 -0.000314961 0.000169291 -0.000161417 8.66142e-005c-0.00130709,0.000712598 -0.00218898,0.00204331 -0.00237795,0.00360236 -0.000476378,0.00388583 0.00340551,0.00685039 0.00665354,0.00508268l0.000169291 -9.44882e-005 0.000318898 -0.000173228 0.000318898 -0.000173228 0.000311024 -0.000169291 0.000311024 -0.000169291 0.000311024 -0.000169291 0.000307087 -0.000169291 0.000307087 -0.000165354 0.00030315 -0.000165354 0.000299213 -0.000169291 0.00030315 -0.000165354 0.000299213 -0.000165354 0.000295276 -0.000161417 0.000295276 -0.000165354 0.000291339 -0.000161417 0.000291339 -0.000161417 0.000295276 -0.000165354 0.000287402 -0.00015748 0.000279528 -0.00015748 0.000283465 -0.000161417 0.000287402 -0.000161417 0.000279528 -0.00015748 0.000279528 -0.000153543 0.000279528 -0.000161417 0.000275591 -0.000153543 0.000271654 -0.00015748 0.000271654 -0.000153543 0.000255906 -0.000145669zm-0.0490984 0.0251496c0.00456693,-0.00216142 0.00285827,-0.00951969 -0.00224803,-0.00931496 -0.000566929,3.93701e-005 -0.00101575,0.00015748 -0.00153937,0.000385827l-0.000244094 0.000114173 -0.00073622 0.000338583 -0.000740157 0.000338583 -0.000744094 0.00034252 -0.000744094 0.000334646 -0.000748031 0.00034252 -0.000751969 0.000338583 -0.000751969 0.000338583 -0.000759843 0.00034252 -0.000759843 0.000338583 -0.000759843 0.000338583 -0.000507874 0.000228346c-0.0018937,0.000834646 -0.00300394,0.00297638 -0.00266142,0.00515748 0.000496063,0.00314567 0.00359843,0.0050315 0.00632677,0.00382283l0.000519685 -0.000232283 0.000775591 -0.00034252 0.000767717 -0.000346457 0.000767717 -0.00034252 0.00076378 -0.000346457 0.00076378 -0.000346457 0.000755906 -0.00034252 0.000759843 -0.00034252 0.000751969 -0.000346457 0.000748031 -0.00034252 0.000748031 -0.00034252 0.000248031 -0.000114173zm-0.0509803 0.0207756c0.00141732,-0.000492126 0.00247244,-0.00169685 0.00287402,-0.00322835 0.000944882,-0.00376378 -0.00244882,-0.00720866 -0.00591339,-0.006l-0.000586614 0.000204724 -0.000889764 0.000311024 -0.000885827 0.000311024 -0.000889764 0.000307087 -0.000893701 0.000307087 -0.000893701 0.000307087 -0.000893701 0.00030315 -0.000897638 0.00030315 -0.000897638 0.00030315 -0.000811024 0.000271654c-0.00465748,0.00162205 -0.00382283,0.00879528 0.001,0.00945669 0.000669291,8.66142e-005 0.00126772,2.3622e-005 0.00190551,-0.000181102l0.000822835 -0.000275591 0.000917323 -0.000307087 0.000909449 -0.000311024 0.000913386 -0.000307087 0.000905512 -0.000311024 0.000905512 -0.000311024 0.000905512 -0.000314961 0.000905512 -0.000314961 0.000897638 -0.000314961 0.000590551 -0.000208661zm-0.0528346 0.0153819c0.00483858,-0.00114567 0.00459055,-0.00850787 -0.000322835,-0.0095315 -0.000610236,-0.000114173 -0.00115354,-0.000102362 -0.00175591,2.3622e-005l-0.000787402 0.000177165 -0.000964567 0.000216535 -0.000968504 0.000212598 -0.000968504 0.000208661 -0.000968504 0.000208661 -0.000972441 0.000208661 -0.000968504 0.000200787 -0.000972441 0.000200787 -0.000972441 0.000200787 -0.000244094 5.11811e-005c-0.00480315,0.00100394 -0.0047874,0.00827559 2.3622e-005,0.00950394 0.000606299,0.000145669 0.00125984,0.000169291 0.0018622,3.93701e-005l0.000271654 -5.11811e-005 0.000992126 -0.000204724 0.000992126 -0.000204724 0.000996063 -0.000208661 0.000988189 -0.000212598 0.000988189 -0.000212598 0.000992126 -0.000212598 0.000984252 -0.000220472 0.000988189 -0.000216535 0.000787402 -0.000177165zm-0.0545315 0.00814173c0.00107087,-8.26772e-005 0.00202756,-0.000503937 0.00279921,-0.00129134 0.00302756,-0.00316535 0.000708661,-0.00861417 -0.00356299,-0.00840157l-0.000673228 4.33071e-005 -0.000996063 6.29921e-005 -0.000992126 5.90551e-005 -0.000992126 5.51181e-005 -0.000992126 5.11811e-005 -0.000996063 4.72441e-005 -0.000992126 4.33071e-005 -0.000992126 4.33071e-005 -0.000992126 3.54331e-005 -0.000330709 1.1811e-005c-0.00185039,4.72441e-005 -0.00344488,0.0013189 -0.00405906,0.00315354 -0.00105118,0.00324803 0.00132283,0.00662992 0.00455118,0.00655118l0.000366142 -1.1811e-005 0.00101969 -3.93701e-005 0.00102362 -3.93701e-005 0.00102362 -4.72441e-005 0.00102362 -4.72441e-005 0.00101969 -5.51181e-005 0.00102362 -5.51181e-005 0.00102362 -5.90551e-005 0.00101969 -6.69291e-005 0.000677165 -4.33071e-005zm-0.0551142 -0.00128346c0.00214173,0.00011811 0.004,-0.00133071 0.00455118,-0.00352362 0.000716535,-0.00298425 -0.00134646,-0.00600787 -0.00426772,-0.00617323l-0.000374016 -2.3622e-005 -0.00144094 -8.26772e-005 -0.00143701 -7.87402e-005 -0.00142913 -7.87402e-005 -0.0014252 -7.48031e-005 -0.00142126 -7.08661e-005 -0.00141339 -6.69291e-005 -0.000224409 -1.1811e-005c-0.00500787,-0.00015748 -0.00644882,0.0070315 -0.00183071,0.00929134 0.000574803,0.000251969 0.00105118,0.000374016 0.00166535,0.000409449l0.000204724 1.1811e-005 0.00139764 6.69291e-005 0.00140551 7.08661e-005 0.00140945 7.08661e-005 0.00141339 7.87402e-005 0.00141732 7.87402e-005 0.0014252 8.26772e-005 0.000374016 2.3622e-005zm-0.0542953 -0.00111811c0.0038189,-9.44882e-005 0.00573622,-0.0048189 0.00322441,-0.0079685 -0.000893701,-0.00112205 -0.00225591,-0.00177165 -0.00361811,-0.00174016l-0.00042126 1.1811e-005 -0.00123622 2.3622e-005 -0.00123228 2.75591e-005 -0.00122441 3.14961e-005 -0.00122441 3.14961e-005 -0.0012126 3.54331e-005 -0.00120866 3.93701e-005 -0.00120866 3.93701e-005 -0.000192913 3.93701e-006c-0.00484252,0.000244094 -0.00598819,0.00720866 -0.0013189,0.00936614 0.000606299,0.000255906 0.00119685,0.000358268 0.00184252,0.00034252l0.000173228 -7.87402e-006 0.00118898 -3.93701e-005 0.00119685 -3.54331e-005 0.00120079 -3.54331e-005 0.00120472 -3.14961e-005 0.00120866 -3.14961e-005 0.00121654 -2.75591e-005 0.00122047 -2.3622e-005 0.00042126 -1.1811e-005zm-0.0540551 0.00342126c0.000937008,-9.84252e-005 0.00183858,-0.000535433 0.00252756,-0.00120079 0.00320866,-0.00316535 0.000700787,-0.00890945 -0.00368898,-0.00846063l-0.000933071 0.000106299 -0.000968504 0.000106299 -0.00096063 0.000110236 -0.000956693 0.000110236 -0.000948819 0.000110236 -0.000948819 0.000114173 -0.000940945 0.000114173 -0.000929134 0.000114173 -0.000929134 0.000114173 -0.000574803 7.08661e-005c-0.00449606,0.00057874 -0.00537008,0.00709449 -0.00121654,0.00920472 0.000807087,0.000393701 0.00163386,0.000551181 0.00250394,0.000440945l0.000559055 -7.08661e-005 0.000913386 -0.000114173 0.00092126 -0.000114173 0.000925197 -0.000110236 0.000929134 -0.000110236 0.000940945 -0.000110236 0.000940945 -0.000106299 0.000948819 -0.000110236 0.000952756 -0.000106299 0.000933071 -0.000102362zm-0.0533071 0.00871654c0.0048622,-0.00114961 0.00457087,-0.00863386 -0.000464567,-0.00954724 -0.000551181,-8.66142e-005 -0.00110236,-7.87402e-005 -0.00164173,4.72441e-005l-0.000429134 9.84252e-005 -0.000551181 0.000125984 -0.000547244 0.000125984 -0.000547244 0.000125984 -0.000535433 0.000125984 -0.000531496 0.000122047 -0.000519685 0.000125984 -0.000519685 0.000122047 -0.000507874 0.000122047 -0.000503937 0.000122047 -0.0005 0.000122047 -0.000492126 0.00011811 -0.000484252 0.000122047 -0.000480315 0.00011811 -0.000476378 0.00011811 -0.000468504 0.000114173 -0.000456693 0.00011811 -0.000389764 9.84252e-005c-0.0043189,0.00114173 -0.00458268,0.0075 -0.000374016,0.00925591 0.000913386,0.000358268 0.00174409,0.000417323 0.00268504,0.000192913l0.00038189 -9.44882e-005 0.000448819 -0.000114173 0.000452756 -0.000114173 0.00046063 -0.000114173 0.000468504 -0.00011811 0.000472441 -0.000114173 0.000480315 -0.00011811 0.000488189 -0.00011811 0.000492126 -0.00011811 0.000496063 -0.00011811 0.000507874 -0.000122047 0.000511811 -0.00011811 0.000515748 -0.000125984 0.000523622 -0.00011811 0.000527559 -0.000122047 0.000535433 -0.000125984 0.000547244 -0.000122047 0.000425197 -9.84252e-005zm-0.0514331 0.0165079c0.00213386,-0.000744094 0.00339764,-0.00315354 0.00291339,-0.00551181 -0.000602362,-0.00290945 -0.00338189,-0.00461417 -0.00599606,-0.00370472l-0.000188976 6.69291e-005 -0.000826772 0.000295276 -0.000838583 0.00030315 -0.000846457 0.000299213 -0.000854331 0.000307087 -0.000866142 0.000311024 -0.000874016 0.000311024 -0.000885827 0.000314961 -0.000897638 0.000318898 -0.000901575 0.000322835 -0.000582677 0.000208661c-0.00172835,0.000602362 -0.00288189,0.00225984 -0.00301575,0.00418898 -0.000149606,0.00350394 0.00297244,0.00611417 0.00608268,0.0050315l0.000586614 -0.000208661 0.000905512 -0.000322835 0.000893701 -0.000318898 0.000889764 -0.000318898 0.000877953 -0.000311024 0.000870079 -0.000311024 0.000854331 -0.000307087 0.000846457 -0.00030315 0.000838583 -0.000299213 0.000826772 -0.000295276 0.000188976 -6.69291e-005zm-0.0515827 0.0180748c0.00416535,-0.00145276 0.0040748,-0.00775591 -0.000259843,-0.00927165 -0.000909449,-0.000279528 -0.00182283,-0.000291339 -0.00271654,1.9685e-005l-0.000814961 0.000275591 -0.00123228 0.000425197 -0.00123622 0.00042126 -0.00124409 0.000425197 -0.00124803 0.000425197 -0.00125591 0.000429134 -0.00126378 0.000425197 -0.000307087 0.000106299c-0.00151181,0.000527559 -0.00256299,0.00175591 -0.00295276,0.00339764 -0.000834646,0.00366535 0.00254331,0.00703543 0.00590945,0.0058622l0.000307087 -0.000106299 0.00126378 -0.000429134 0.00125591 -0.000429134 0.00125591 -0.000425197 0.00124409 -0.000425197 0.00124409 -0.000425197 0.00123622 -0.00042126 0.000814961 -0.000279528zm-0.0518425 0.017315c0.00194094,-0.000622047 0.00320079,-0.00256299 0.00312992,-0.00472835 -0.000122047,-0.00322835 -0.0031063,-0.00548425 -0.00597244,-0.00456693l-0.00088189 0.000283465 -0.00140945 0.000456693 -0.00140551 0.000456693 -0.00141339 0.000456693 -0.00141732 0.000456693 -0.00141732 0.000456693 -0.000700787 0.000224409c-0.00140945,0.000452756 -0.0024685,0.00158268 -0.00292913,0.00306693 -0.00111811,0.00373622 0.00222441,0.00737008 0.00574803,0.00624016l0.000704724 -0.000228346 0.0014252 -0.000456693 0.00141732 -0.00046063 0.00141732 -0.000456693 0.00141339 -0.000456693 0.00140945 -0.00046063 0.00088189 -0.000283465zm-0.0521457 0.0163858c0.00182677,-0.000531496 0.00308661,-0.00226772 0.00320866,-0.00427165 0.000149606,-0.00340551 -0.00281496,-0.00597244 -0.00588189,-0.0050748l-0.000755906 0.000224409 -0.00145669 0.000440945 -0.00145669 0.000437008 -0.00145669 0.000437008 -0.00145669 0.000437008 -0.00145669 0.000433071 -0.000653543 0.00019685c-0.0012874,0.000374016 -0.00237402,0.00138976 -0.00288189,0.00270472 -0.00146063,0.00376772 0.00183465,0.00773228 0.00552362,0.00665354l0.00065748 -0.00019685 0.00146457 -0.000437008 0.00146063 -0.000437008 0.00146457 -0.000437008 0.00146063 -0.000440945 0.00146457 -0.000440945 0.000751969 -0.000228346zm-0.0525591 0.0150787c0.0019252,-0.000507874 0.00331102,-0.00236614 0.00334252,-0.00449606 4.33071e-005,-0.00325591 -0.0028189,-0.00570472 -0.00576772,-0.0049252l-0.000244094 6.69291e-005 -0.00140157 0.000374016 -0.00139764 0.000374016 -0.0013937 0.000370079 -0.0013937 0.000370079 -0.00138976 0.000362205 -0.00138189 0.000366142 -0.000149606 3.93701e-005c-0.00467323,0.00123228 -0.00441339,0.00843307 0.000417323,0.00948425 0.000661417,0.000125984 0.00129134,0.000122047 0.00194094,-4.72441e-005l0.00015748 -4.33071e-005 0.00139764 -0.000366142 0.00139764 -0.000366142 0.00139764 -0.000370079 0.00140551 -0.000374016 0.00140945 -0.000374016 0.00140945 -0.00038189 0.000244094 -6.29921e-005zm-0.0534055 0.0127205c0.0018622,-0.00034252 0.00323228,-0.00176378 0.00362992,-0.00372835 0.000641732,-0.00332283 -0.00215748,-0.00643307 -0.00530315,-0.00585827l-3.54331e-005 3.93701e-006 -0.00114567 0.00019685 -0.00113386 0.000185039 -0.00112205 0.000177165 -0.00111024 0.000169291 -0.00110236 0.000161417 -0.00109055 0.000149606 -0.00107874 0.000141732 -0.00096063 0.000122047c-0.00399606,0.000515748 -0.00533858,0.00584252 -0.0021378,0.00861024 0.00100787,0.000807087 0.00214961,0.00119685 0.0033937,0.00103937l0.00101969 -0.000129921 0.00112992 -0.000149606 0.00114173 -0.00015748 0.00115354 -0.000169291 0.00116142 -0.000177165 0.00117323 -0.000185039 0.00118504 -0.000192913 0.00119291 -0.000204724 3.93701e-005 -3.93701e-006zm-0.0563976 -0.00224803c0.00494882,0.00184252 0.00831496,-0.00495276 0.00416142,-0.00840551 -0.000401575,-0.000311024 -0.000755906,-0.000519685 -0.00121654,-0.000704724l-0.000295276 -0.000114173 -0.000531496 -0.000208661 -0.000519685 -0.000216535 -0.000515748 -0.000216535 -0.000507874 -0.000224409 -0.0005 -0.000224409 -0.000488189 -0.000232283 -0.000484252 -0.000232283 -0.000476378 -0.00023622 -0.000472441 -0.000240157 -0.00046063 -0.000244094 -0.000452756 -0.000248031 -0.000448819 -0.000248031 -0.000440945 -0.000255906 -0.000433071 -0.000255906 -0.000425197 -0.000259843 -8.26772e-005 -5.51181e-005c-0.00155512,-0.000996063 -0.00354724,-0.00092126 -0.00498031,0.000188976 -0.00263386,0.00203937 -0.0023937,0.00629528 0.000452756,0.00812205l0.000185039 0.000114173 0.000523622 0.000318898 0.000531496 0.000314961 0.00053937 0.000311024 0.000547244 0.000307087 0.000555118 0.00030315 0.000559055 0.000295276 0.000566929 0.000291339 0.000574803 0.000283465 0.000586614 0.000283465 0.000590551 0.000275591 0.000598425 0.000271654 0.000606299 0.00026378 0.000610236 0.000259843 0.000622047 0.000255906 0.000629921 0.000248031 0.000291339 0.000114173zm-0.0218583 -0.0584094c-0.000527559,0.00269685 -0.000708661,0.00591732 -0.000728346,0.00867323 -3.93701e-006,0.00084252 -0.000224409,0.00164567 -0.000614173,0.00236614 -0.00239764,0.00422835 -0.00851575,0.00225197 -0.00849213,-0.00271654 2.75591e-005,-0.00334646 0.00026378,-0.00730709 0.000929134,-0.0105906 0.000755906,-0.00368504 0.00508661,-0.00498819 0.0076378,-0.00225591 0.00111811,0.0012126 0.00158661,0.00285433 0.00127165,0.00449213m0 1.1811e-005l0 -1.1811e-005 -3.93701e-006 3.14961e-005"/>
   <path id="_322794760" class="fil13" d="M2.70631 1.40453c0,0 0.0561772,-0.0128701 0.108689,-0.173598 0.0525079,-0.160728 0.180752,-0.00997638 0.235594,0.0109331 0.0548425,0.0209055 0.0922913,-0.101291 -0.0185039,-0.238646 -0.110791,-0.137354 -0.314343,-0.209772 -0.505378,-0.0873543 -0.249791,0.153016 -0.208961,0.683043 -0.119917,0.724098 0.0508386,-0.0493346 0.0328819,-0.0546535 0.066248,-0.162346 0.0333661,-0.107693 0.0745236,-0.178504 0.0745236,-0.178504 0,0 0.0749567,-0.0901378 0.114445,-0.0210472 0.0394921,0.0690906 0.0442992,0.126465 0.0442992,0.126465z"/>
   <g>
    <g>
     <path id="_322794568" class="fil0" d="M2.99253 3.21897c0.0295,0.0257953 0.0574764,0.0350512 0.0890866,0.0675748 0.0153661,0.0158189 0.283579,0.090248 0.292197,0.112004 -0.0069252,0.0633701 -0.185071,0.0206693 -0.198949,0.0399646 -0.00695669,0.00966535 0.151602,0.120795 0.15702,0.130362 0.0771535,0.136441 -0.171713,0.302909 -0.241937,0.198791 -0.00681102,-0.0100866 -0.171646,-0.300827 -0.178232,-0.306886 -0.00975984,-0.00898425 -0.0144449,-0.0133937 -0.0175,-0.0165591l0.098315 -0.225252z"/>
     <path id="_322794256" class="fil0" d="M2.58696 2.60264c-0.00255906,0.0359724 0.00801969,0.0652402 0.00981102,0.0876929 0.0186457,0.23428 0.225004,0.407764 0.424378,0.549 0.0193937,0.133583 0.181882,0.17811 0.112713,0.229028 -0.0600197,0.0441811 -0.165677,0.0297205 -0.239642,-0.0241417 -0.306209,-0.222941 -0.460689,-0.378965 -0.654311,-0.603299 -0.0272047,-0.0925669 -0.0409094,-0.194008 -0.043189,-0.298799l0.196201 0.0301457 0.194024 0.0303622 1.5748e-005 1.1811e-005z"/>
    </g>
    <path id="_322794232" class="fil14" d="M2.17757 2.67724c0,0 -0.118693,-0.278441 -0.0513425,-0.499819 0.0673504,-0.221382 0.380173,-0.127551 0.380173,0.0291299 0,0.156681 0.107472,0.414406 0.107472,0.414406l-0.436303 0.0562835z"/>
   </g>
   <g>
    <g>
     <path id="_322794208" class="fil15" d="M5.61859 2.25706l-0.141945 -0.0702402c0.0529016,0.0117756 0.101012,0.0357362 0.141945,0.0702402z"/>
     <path id="_322793896" class="fil15" d="M5.70925 2.37366l-0.38113 -0.188606c0.00741732,-0.00135433 0.0147835,-0.00248031 0.0221102,-0.00341339l0.348669 0.172543c0.00366142,0.0064252 0.00711811,0.0129173 0.0103504,0.0194764z"/>
     <path id="_322793608" class="fil15" d="M5.73853 2.4599l-0.501358 -0.248106c0.00546063,-0.00220866 0.0109016,-0.00428346 0.0163346,-0.00626772l0.481437 0.238248c0.00132677,0.00535039 0.00252362,0.0107283 0.00358661,0.016126z"/>
     <path id="_322793728" class="fil15" d="M5.74467 2.53468l-0.580039 -0.287043c0.00451181,-0.0026378 0.00902362,-0.00517323 0.0135315,-0.00765354l0.566638 0.280409c5.90551e-005,0.00475591 1.5748e-005,0.00951969 -0.000129921,0.0142874z"/>
     <path id="_322793848" class="fil15" d="M5.7358 2.60204l-0.633031 -0.313264c0.00388583,-0.00290945 0.00779134,-0.00575197 0.0117126,-0.00855906l0.624106 0.30885c-0.000838583,0.00432677 -0.00177953,0.00865354 -0.0027874,0.0129724z"/>
     <path id="_322793536" class="fil15" d="M5.71539 2.66368l-0.666894 -0.330024c0.00342913,-0.00311417 0.00688189,-0.00618898 0.0103543,-0.00922835l0.661472 0.327339c-0.00156299,0.00398031 -0.00322047,0.00795276 -0.00493307,0.0119134z"/>
     <path id="_322794016" class="fil15" d="M5.68511 2.72044l-0.685028 -0.338996c0.00305906,-0.00328346 0.00614961,-0.00653937 0.00925984,-0.00977165l0.682551 0.337772c-0.00219685,0.00367717 -0.00444882,0.00734646 -0.00678346,0.0109961z"/>
     <path id="_322792888" class="fil15" d="M5.64584 2.77275l-0.689098 -0.341012c0.00273622,-0.00343701 0.0055,-0.00685039 0.00829134,-0.010248l0.689366 0.341142c-0.00278346,0.0033937 -0.00564173,0.00676378 -0.00855906,0.0101181z"/>
     <path id="_322792768" class="fil15" d="M5.59796 2.8208l-0.679843 -0.336437c0.00241732,-0.00358268 0.00487008,-0.00715354 0.00735433,-0.0107126l0.682764 0.337878c-0.00335433,0.00311417 -0.00679134,0.00620079 -0.0102756,0.00927165z"/>
     <path id="_322793392" class="fil15" d="M5.54156 2.86463l-0.657331 -0.325295c0.00209055,-0.00373622 0.00422047,-0.00746457 0.00638976,-0.011189l0.662933 0.328063c-0.00392913,0.00283465 -0.00793701,0.0056378 -0.0119921,0.00842126z"/>
     <path id="_322793272" class="fil15" d="M5.47653 2.9042l-0.621106 -0.307366c0.00172441,-0.00390551 0.00350394,-0.00781496 0.00532283,-0.0117205l0.629504 0.31152c-0.00453543,0.00256693 -0.00911417,0.00507874 -0.0137205,0.00756693z"/>
     <path id="_322793008" class="fil15" d="M5.40254 2.93933l-0.569917 -0.282031c0.00127953,-0.00411417 0.00261811,-0.00823622 0.00401969,-0.0123661l0.581465 0.287748c-0.00516142,0.00226772 -0.0103504,0.00448425 -0.0155669,0.00664961z"/>
     <path id="_322793128" class="fil15" d="M5.31816 2.96931l-0.500634 -0.247748c0.000677165,-0.0043937 0.00141732,-0.00880709 0.00225197,-0.0132402l0.516252 0.255476c-0.00594094,0.00190945 -0.0119016,0.00373228 -0.0178701,0.00551181z"/>
     <path id="_322793248" class="fil15" d="M5.21963 2.9923l-0.405535 -0.200685c-0.000326772,-0.00483858 -0.000527559,-0.00972047 -0.000602362,-0.0146535l0.427327 0.211472c-0.0070748,0.00138976 -0.0141378,0.0026811 -0.021189,0.00386614z"/>
     <path id="_322793104" class="fil15" d="M5.09444 3.00209l-0.259563 -0.128449c-0.00285827,-0.00591732 -0.00543307,-0.0119685 -0.00770079,-0.0181693l0.296055 0.146512c-0.00970472,0.000271654 -0.0193031,0.000299213 -0.0287913,0.000106299z"/>
     <path id="_322793440" class="fil15" d="M5.74057 2.57772l-0.00951575 -0.148327c0.0141496,0.0479961 0.0174961,0.0982402 0.00951575,0.148327z"/>
     <path id="_322793416" class="fil15" d="M5.67209 2.31361l0.0248386 0.387177c-0.00367323,0.00650394 -0.00754724,0.0129685 -0.0116496,0.0193898l-0.0271969 -0.423941c0.00482283,0.0056063 0.00948425,0.0114055 0.0140079,0.017374z"/>
     <path id="_322793056" class="fil15" d="M5.60325 2.24488l0.0344488 0.536984c-0.00391732,0.0042874 -0.00793307,0.00854331 -0.0120709,0.0127598l-0.0358858 -0.559346c0.0045748,0.00308268 0.0090748,0.0062874 0.0135079,0.00960236z"/>
     <path id="_322792456" class="fil15" d="M5.53633 2.20609l0.0405669 0.632374c-0.00402362,0.00321654 -0.0081063,0.00640945 -0.0122756,0.00957087l-0.0415276 -0.647295c0.00445276,0.00169685 0.00887008,0.0034685 0.0132362,0.00535039z"/>
     <path id="_322792288" class="fil15" d="M5.47057 2.18553l0.0446693 0.696276c-0.00410236,0.00254331 -0.00823228,0.00506299 -0.0124055,0.00753543l-0.0453071 -0.706201c0.00437795,0.000716535 0.00872835,0.00151181 0.0130433,0.00238976z"/>
     <path id="_322792192" class="fil15" d="M5.40569 2.17852l0.0473346 0.737846c-0.00414567,0.00205512 -0.00831102,0.00407874 -0.0125,0.00607087l-0.0477283 -0.743906c0.0043189,-7.48031e-005 0.00861811,-8.26772e-005 0.0128937,-1.1811e-005z"/>
     <path id="_322792552" class="fil15" d="M5.34153 2.18285l0.0488504 0.761425c-0.0041811,0.00165748 -0.00837402,0.0032874 -0.0125787,0.00488189l-0.0490276 -0.764213c0.00426772,-0.000771654 0.00851575,-0.00146063 0.0127559,-0.00209449z"/>
     <path id="_322792384" class="fil15" d="M5.27802 2.19729l0.0493504 0.769232c-0.00420866,0.00130315 -0.0084252,0.00257874 -0.0126457,0.00381496l-0.0493346 -0.768992c0.00422047,-0.00141732 0.00842913,-0.00277165 0.0126299,-0.00405512z"/>
     <path id="_322792000" class="fil15" d="M5.21513 2.22131l0.0489016 0.762217c-0.00424016,0.00096063 -0.00847638,0.00188976 -0.0127126,0.00277953l-0.0486969 -0.759047c0.00417323,-0.00204331 0.00834646,-0.00403937 0.0125079,-0.00594882z"/>
     <path id="_322792336" class="fil15" d="M5.15284 2.2547l0.0475157 0.740602c-0.00427165,0.000606299 -0.0085315,0.00117717 -0.0127835,0.00170866l-0.0471181 -0.73448c0.00412992,-0.00266929 0.00825984,-0.00529134 0.0123858,-0.00783071z"/>
     <path id="_322792696" class="fil15" d="M5.09116 2.29765l0.0451535 0.703843c-0.00430315,0.000208661 -0.00859055,0.000370079 -0.0128583,0.000492126l-0.0445551 -0.69452c0.00406299,-0.0033189 0.00814567,-0.00660236 0.0122598,-0.00981496z"/>
     <path id="_322792648" class="fil15" d="M5.03014 2.35084l0.0417205 0.650319c-0.00435039,-0.000271654 -0.00866535,-0.000590551 -0.0129528,-0.000968504l-0.0408937 -0.637386c0.00400394,-0.00403543 0.00804724,-0.00802362 0.012126,-0.0119646z"/>
     <path id="_322792624" class="fil15" d="M4.96986 2.41563l0.0370157 0.576941c-0.00441339,-0.000925197 -0.00877559,-0.00191732 -0.0130866,-0.00298425l-0.0358819 -0.559315c0.00393307,-0.00491732 0.00790551,-0.00980315 0.0119528,-0.0146417z"/>
     <path id="_322791880" class="fil15" d="M4.91057 2.49576l0.0305394 0.476063c-0.0045315,-0.00200394 -0.00895276,-0.00413386 -0.0132992,-0.00634646l-0.0289409 -0.451146c0.00379921,-0.00622047 0.00769291,-0.0124094 0.0117008,-0.0185709z"/>
     <path id="_322791208" class="fil15" d="M4.85298 2.60249l0.0208465 0.324933c-0.00487402,-0.00471654 -0.00948819,-0.00967323 -0.0138465,-0.0148622l-0.0181181 -0.282409c0.00341732,-0.00920472 0.00714961,-0.0184291 0.0111181,-0.0276614z"/>
    </g>
    <path id="_322791352" class="fil16" d="M5.01074 3.01231c-0.00073622,-0.000169291 -0.140307,-0.0984213 -0.426039,0.120992l-0.0212953 -0.0297047 -0.000893701 0.000523622 -0.00790157 -0.0127874 -0.00875984 -0.0122165 0.000826772 -0.000622047 -0.0192047 -0.0310945c0.312555,-0.179154 0.27565,-0.345803 0.27578,-0.346551l0.0338583 0.00590945c-0.000102362,0.000602362 -0.00820079,0.177059 -0.182602,0.318024 0.191906,-0.107098 0.363228,-0.0461299 0.363823,-0.0459921l-0.00759055 0.0335197z"/>
    <path id="_322791688" class="fil17" d="M5.69967 2.32263l7.87402e-006 7.87402e-006 -5.90551e-005 3.54331e-005c0.0581024,0.0872205 0.0765669,0.189524 0.0514173,0.289449 -0.0249331,0.0990827 -0.0927835,0.195496 -0.207425,0.271866l3.54331e-005 5.51181e-005 -7.87402e-006 7.87402e-006 -3.93701e-006 0 -3.54331e-005 -5.51181e-005c-0.113287,0.0754724 -0.26028,0.124728 -0.393071,0.13387 -0.135866,0.00935827 -0.257843,-0.0232008 -0.317079,-0.112118l-5.51181e-005 3.93701e-005 -3.93701e-006 -3.93701e-006 5.51181e-005 -3.93701e-005c-0.0591614,-0.088815 -0.0432087,-0.215252 0.0167283,-0.338366 0.0587047,-0.120591 0.159866,-0.238768 0.273142,-0.314232l1.5748e-005 -1.1811e-005 7.87402e-006 -3.93701e-006c0.114563,-0.0763189 0.229185,-0.102488 0.329807,-0.0880512 0.101472,0.014563 0.188327,0.070311 0.246465,0.157583l5.90551e-005 -3.54331e-005 0 3.93701e-006zm-0.0286181 0.0190748l-5.51181e-005 3.93701e-005 -3.93701e-006 -7.87402e-006 -3.93701e-006 -3.93701e-006 5.51181e-005 -3.93701e-005c-0.0526457,-0.0790315 -0.13115,-0.129496 -0.222764,-0.142642 -0.0924606,-0.0132677 -0.198665,0.0113622 -0.305835,0.0827598l-7.87402e-006 3.93701e-006 -1.5748e-005 1.1811e-005c-0.108457,0.072248 -0.205256,0.185291 -0.261382,0.300571 -0.0548898,0.112748 -0.0706417,0.226831 -0.0190276,0.304315l5.90551e-005 -3.54331e-005 0 3.93701e-006 -5.51181e-005 3.54331e-005c0.0515512,0.0773858 0.16189,0.105429 0.286059,0.096878 0.127252,-0.00875984 0.268043,-0.0559213 0.376492,-0.128165l-3.93701e-005 -5.51181e-005 3.93701e-006 -3.93701e-006 1.1811e-005 -7.87402e-006 3.54331e-005 5.90551e-005c0.107087,-0.0713425 0.170252,-0.160539 0.193197,-0.251709 0.0227323,-0.0903268 0.00595669,-0.182929 -0.0467244,-0.262008z"/>
    <path id="_325576232" class="fil18" d="M4.52748 3.04741l0.0572283 0.0859016 -0.499559 0.358327c-0.0365984,-0.0345197 -0.0632835,-0.0749488 -0.0805906,-0.120972l0.522921 -0.323256z"/>
    <g>
     <polygon id="_325565024" class="fil19" points="4.50437,3.19093 4.39116,3.13167 4.42374,3.11153 4.53435,3.16943 "/>
     <polygon id="_325546496" class="fil19" points="4.35776,3.29609 4.23182,3.23017 4.2644,3.21003 4.38774,3.27459 "/>
     <polygon id="_325546568" class="fil19" points="4.21116,3.40125 4.07248,3.32867 4.10507,3.30852 4.24113,3.37975 "/>
    </g>
   </g>
   <path id="_325546064" class="fil0" d="M4.26119 3.15036c0.0553937,0.00113386 0.104445,0.00280709 0.110571,0.00757087 0.0136024,0.0301378 -0.0595748,0.0339764 -0.110571,0.0386063l0 -0.0461772z"/>
   <path id="_325546160" class="fil6" d="M1.3454 5.78724l-0.0474567 -0.0177913 -0.00622441 -0.00233465 -0.00240157 -0.0066811 -0.0155197 -0.0431496 -0.00484252 -0.0134646 0.0119685 -0.00430315 0.0279173 -0.0100394c0.012437,0.0345866 0.0389409,0.0882638 0.0365591,0.0977638z"/>
   <path id="_325546640" class="fil6" d="M1.41387 5.87991l-0.0471732 -0.00397244 -0.00701969 -0.000594488 -0.00382283 -0.00679528 -0.0223465 -0.0397165 -0.00677953 -0.0120512 0.010374 -0.00688189 0.0249449 -0.0165394c0.0140787,0.0237559 0.0518228,0.0842244 0.0518228,0.0865512z"/>
   <path id="_325546664" class="fil6" d="M1.29681 5.67091l-0.0436693 -0.0169724 -0.0061378 -0.00238976 -0.00235827 -0.00655512 -0.0155197 -0.0431496 -0.00505118 -0.0140433 0.0127126 -0.00385827 0.0429291 -0.0130315c0.0042126,0.0132874 0.0184488,0.0948386 0.0170945,0.1z"/>
   <path id="_325546304" class="fil6" d="M1.2012 5.3598l-0.059815 -0.0246339 -0.00590551 -0.0024685 -0.00228346 -0.00635039 -0.0155197 -0.0431496 -0.00485827 -0.0135157 0.0120512 -0.00421654 0.0325827 -0.0113976c0.00974016,0.027378 0.0447598,0.102224 0.043748,0.105732z"/>
   <path id="_325546016" class="fil6" d="M1.13321 5.21789l-0.0400157 -0.0167205 -0.00590551 -0.0024685 -0.00228346 -0.00635039 -0.0155157 -0.0431496 -0.00485039 -0.0134764 0.0120394 -0.00425591 0.032 -0.0113031c0.00497638,0.0139882 0.0250748,0.0958386 0.0245315,0.0977244z"/>
   <path id="_325545296" class="fil7" d="M1.19224 5.04265c0,0 -0.0421969,-0.0054252 -0.0738701,0.0054685 -0.0245354,0.00844094 -0.041437,0.0329961 -0.0241378,0.0935669 0,0 0.0276535,0.101402 0.114177,0.24661 0.0206772,0.0347047 0.0343189,0.0715157 0.0441496,0.108213 0.0189449,0.0707205 0.021252,0.141748 0.0375433,0.19502 0.0216732,0.0708701 0.0811969,0.161843 0.132768,0.200878 0.0507677,0.0384291 0.109114,-0.00309449 0.119307,-0.0458937 0.0040315,-0.016937 0.00262598,-0.0410709 -0.00524016,-0.0805079 -0.00797638,-0.0400039 -0.0159331,-0.080748 -0.021878,-0.121827l-0.0566575 -0.00899606c-0.00546063,-0.000854331 -0.00896063,-0.00578346 -0.0078189,-0.0110079 0.00114173,-0.00522047 0.00649606,-0.00875984 0.0119567,-0.00790157l0.0497953 0.00790551c-0.00212992,-0.016752 -0.00387402,-0.0335472 -0.00509449,-0.0503543l-0.056685 -0.0102559c-0.00543307,-0.000976378 -0.00881102,-0.00598425 -0.00754331,-0.011185 0.00126772,-0.00520079 0.00670079,-0.00862992 0.0121339,-0.00765354l0.0509016 0.00920866c-0.000767717,-0.016374 -0.000992126,-0.0327559 -0.000547244,-0.0491181l-0.0560709 -0.0135709c-0.00535827,-0.0012874 -0.00840945,-0.00650394 -0.00681496,-0.0116457 0.00159055,-0.00514173 0.00722835,-0.00826772 0.0125866,-0.00698031l0.0511732 0.0123858c0.000893701,-0.0145433 0.00235827,-0.0290591 0.00448031,-0.0435315l-0.0538189 -0.0209094c-0.00509055,-0.00197638 -0.00734646,-0.00756299 -0.00504331,-0.0124803 0.00230709,-0.00491732 0.00830315,-0.00730709 0.0133937,-0.00533071l0.0487874 0.0189528c0.00377953,-0.0199016 0.00888583,-0.0397047 0.0155472,-0.0593622l-0.0513307 -0.0197953c-0.00508661,-0.00197244 -0.00734646,-0.00756299 -0.00503937,-0.0124803 0.00230709,-0.00491732 0.00830315,-0.00730315 0.0133898,-0.00533071l0.0497126 0.0191693c0.00119291,-0.00304331 0.00242126,-0.00607874 0.00369291,-0.00911417 0.00333465,-0.0175079 -0.00151575,-0.0253583 -0.00648819,-0.0408701 -0.00155512,-0.00285827 -0.00307874,-0.00569291 -0.00457087,-0.00850394 -0.00379921,-0.00715354 -0.0073937,-0.0141417 -0.0107362,-0.0209921 -0.00621654,-0.0127283 -0.0123189,-0.0257756 -0.0178307,-0.0388031 -0.0619094,-0.146205 -0.0259134,-0.206713 -0.0517992,-0.228492 -0.0181496,-0.00665354 -0.0903898,0.0125276 -0.25648,0.0455157z"/>
   <g>
    <path id="_325545560" class="fil8" d="M1.53645 5.34391l-0.0497126 -0.0191693c-0.00508661,-0.00197244 -0.0110827,0.000413386 -0.0133898,0.00533071 -0.00230709,0.00491732 -4.72441e-005,0.0105079 0.00503937,0.0124803l0.0513307 0.0197953 0.00673228 -0.018437z"/>
    <path id="_325545800" class="fil8" d="M1.51417 5.42171l-0.0487874 -0.0189528c-0.00509055,-0.00197638 -0.0110866,0.000413386 -0.0133898,0.00533071 -0.00230709,0.00491732 -5.11811e-005,0.0105039 0.00503937,0.0124803l0.0538189 0.0209094 0.0033189 -0.0197677z"/>
    <path id="_325545752" class="fil8" d="M1.50637 5.48501l-0.0511732 -0.0123858c-0.00535827,-0.0012874 -0.0109961,0.00183858 -0.0125866,0.00698031 -0.00159449,0.00514173 0.00145669,0.0103583 0.00681496,0.0116457l0.0560709 0.0135709 0.000874016 -0.019811z"/>
    <path id="_325545584" class="fil8" d="M1.50605 5.55394l-0.0509016 -0.00920472c-0.00543307,-0.000976378 -0.0108661,0.00244882 -0.0121339,0.00764961 -0.00126772,0.00520079 0.00211024,0.0102087 0.00754331,0.011185l0.056685 0.0102559 -0.00119291 -0.0198858z"/>
    <path id="_325545704" class="fil8" d="M1.51233 5.62418l-0.0497953 -0.00790551c-0.00546063,-0.000858268 -0.010815,0.0026811 -0.0119567,0.00790157 -0.00114173,0.00522441 0.00235827,0.0101535 0.0078189,0.0110079l0.0566575 0.00899606 -0.00272441 -0.02z"/>
   </g>
   <path id="_325545680" class="fil9" d="M1.34702 5.01088c-0.0387008,0.00797244 -0.0894882,0.0188071 -0.15478,0.0317717 0,0 -0.0421969,-0.0054252 -0.0738701,0.0054685 -0.0223898,0.00770472 -0.0384213,0.0288228 -0.0279094,0.0784882 0.00100787,0.00475984 0.00225984,0.00977953 0.00377165,0.0150787 0,0 0.00709055,0.0259921 0.025315,0.0705 0.00579528,0.0141535 0.0127165,0.0301772 0.0208976,0.0478307 0.0128976,0.0278465 0.0289173,0.059748 0.0485748,0.0947677 0.0061063,0.010878 0.0125669,0.0220591 0.0193898,0.0335118 0.00849213,0.014252 0.0157953,0.0288583 0.0221378,0.0436693 0.00199606,0.000838583 0.00368504,0.0023189 0.00470866,0.00432677 0.0130354,0.0254134 0.0766339,0.0641575 0.089748,0.0704409 0.00337402,0.00161417 0.00598425,0.00223228 0.00752362,0.00166142 0.0012126,-0.000448819 0.00236614,-0.00227953 0.0033622,-0.00572835 0.00414173,-0.0142756 0.000783465,-0.0433465 -0.0156535,-0.0920669 -0.0485315,-0.143858 -0.0411339,-0.275374 -0.0403898,-0.286665 -3.14961e-005,-0.00162598 0.000370079,-0.00329528 0.00125984,-0.00485827l1.5748e-005 7.87402e-006c0.00538976,-0.00949213 0.057063,-0.0913543 0.0612362,-0.099252 0.00162598,-0.00307087 0.00317717,-0.00605512 0.00466142,-0.00895276z"/>
   <path id="_325577624" class="fil10" d="M1.53172 5.73963c-0.0190197,0.0430984 -0.0512874,0.11035 -0.0886693,0.163929 0.0450236,0.0163976 0.0902677,-0.0198425 0.099126,-0.0570433 0.0040315,-0.016937 0.00262598,-0.0410709 -0.00524016,-0.0805079 -0.00174803,-0.00875984 -0.00349213,-0.0175512 -0.00521654,-0.026378z"/>
   <path id="_325577552" class="fil11" d="M1.44061 5.9026c0.00181102,0.00073622 0.00362205,0.00138583 0.00542913,0.00195276l6.69291e-005 -6.29921e-005c0.00015748,-0.000161417 0.000291339,-0.000307087 0.000417323,-0.000492126l0.000602362 -0.000866142 0.00125591 -0.00183071 0.00125591 -0.00183858 0.000484252 -0.000716535c0.00201575,-0.00309055 -0.00200787,-0.0062126 -0.00485433,-0.00373228 -0.000208661,0.000192913 -0.000370079,0.000374016 -0.000527559,0.000606299l-0.000468504 0.000692913 -0.00124409 0.0018189 -0.00124409 0.00181102 -0.000602362 0.000866142c-0.000413386,0.000606299 -0.000582677,0.00121654 -0.000570866,0.00179134zm0.0921693 -0.157598l-0.00109055 -0.00555118c-0.0011378,-0.000389764 -0.0025315,-0.000181102 -0.00361417,0.00100394 -0.000208661,0.00023622 -0.000377953,0.000511811 -0.000507874,0.000799213l-0.000125984 0.000279528 -0.000661417 0.00149213 -0.000673228 0.00150787 -0.000685039 0.00152756 -0.000397638 0.000889764c-0.00147638,0.00329134 0.00316535,0.00587008 0.00559055,0.00273228 0.000125984,-0.000177165 0.000228346,-0.000354331 0.000318898,-0.000551181l0.000401575 -0.000893701 0.000685039 -0.0015315 0.000673228 -0.00151575 8.66142e-005 -0.000188976zm-0.00109055 -0.00557087l-0.00101969 -0.00522441 -5.51181e-005 0.000133858 -0.000531496 0.00120866c-0.000673228,0.0016063 6.29921e-005,0.00326378 0.0016063,0.00388189zm-0.0834488 0.150961c-0.0019685,0.00301181 0.00198425,0.00622047 0.00490157,0.00367717 0.00019685,-0.000181102 0.000374016,-0.000385827 0.000519685,-0.000610236l0.000952756 -0.00144094 0.00123228 -0.00188189 0.00122835 -0.00188976 6.69291e-005 -0.000102362c0.000708661,-0.00109055 0.000633858,-0.00246063 -0.000137795,-0.00342913 -0.00137795,-0.00167323 -0.00409843,-0.00145669 -0.00532283,0.000417323l-5.51181e-005 8.26772e-005 -0.0012126 0.00187008 -0.00122047 0.0018622 -0.000952756 0.00144488zm0.00683858 -0.010563c-0.00197638,0.00321654 0.0023937,0.00624409 0.00511417,0.00345276 0.000141732,-0.00015748 0.000251969,-0.00030315 0.000370079,-0.000476378l0.000169291 -0.000271654 0.00120866 -0.00191732 0.00120472 -0.00192126 0.000787402 -0.00126378c0.00175591,-0.0028622 -0.0016811,-0.00588976 -0.00463386,-0.00386614 -0.000366142,0.000275591 -0.000645669,0.000559055 -0.00088189,0.000940945l-0.000775591 0.00124803 -0.00119291 0.00190551 -0.00119685 0.00190157 -0.000173228 0.000267717zm0.00662992 -0.0106693c-0.00183858,0.00299213 0.00211024,0.00607087 0.00493701,0.00361024 0.000248031,-0.000232283 0.000433071,-0.000452756 0.000610236,-0.00073622l0.00065748 -0.00108268 0.0011811 -0.00194882 0.00116929 -0.00194882 0.00026378 -0.000440945c0.00179134,-0.00307874 -0.00216535,-0.00600787 -0.00495276,-0.00358268 -0.000259843,0.000240157 -0.000437008,0.00046063 -0.00061811,0.000755906l-0.000255906 0.000425197 -0.00116535 0.00193701 -0.00116535 0.00193307 -0.000661417 0.00107874zm0.00644882 -0.0107717c-0.00177165,0.00305118 0.0022126,0.00596063 0.00492913,0.00359055 0.000275591,-0.000244094 0.000492126,-0.0005 0.000673228,-0.000811024l0.00114567 -0.00195669 0.00114961 -0.00196457 0.000885827 -0.00153543c0.000633858,-0.00108661 0.000523622,-0.00237008 -0.000228346,-0.00330709 -0.000259843,-0.000314961 -0.000562992,-0.000559055 -0.000897638,-0.000740157 0.00147244,0.000641732 0.00337795,0.000102362 0.00427165,-0.00143701l0.000496063 -0.000870079 0.00111417 -0.00197638 0.00111417 -0.00197244 0.000377953 -0.000681102c0.00177165,-0.00324409 -0.00267323,-0.00607087 -0.00527165,-0.00322441 -0.000145669,0.000165354 -0.000287402,0.000362205 -0.000393701,0.000555118l-0.000370079 0.000665354 -0.0011063 0.00196457 -0.0011063 0.00196063 -0.000496063 0.000870079c-0.000610236,0.00111417 -0.000523622,0.00233858 0.000244094,0.00329528 0.000255906,0.000311024 0.000559055,0.000555118 0.000889764,0.00073622 -0.0014685,-0.000637795 -0.00337008,-0.000114173 -0.00425591,0.00140945l-0.000877953 0.00151969 -0.0011378 0.00195276 -0.00114961 0.00195669zm0.0124134 -0.0218071c-0.00073622,0.00134252 -0.000362205,0.0030315 0.000929134,0.00385039 0.00155906,0.00105118 0.00385039,0.000433071 0.00475591,-0.00122047l0.000937008 -0.00170472 0.00107874 -0.00197638 0.00100787 -0.00184646c0.000448819,-0.000818898 0.000496063,-0.00179134 0.000122047,-0.0026063 -0.00106299,-0.00233071 -0.00454724,-0.00233465 -0.0058189,0l-0.001 0.00183465 -0.0010748 0.00196063 -0.000937008 0.00170866zm0.00598425 -0.0110197c-0.00159843,0.0029252 0.00214173,0.00579921 0.00492913,0.00353543 0.00034252,-0.000299213 0.000574803,-0.000574803 0.000787402,-0.000964567l0.000255906 -0.000480315 0.00104724 -0.00196457 0.00104331 -0.00196063 0.000610236 -0.00115748c0.000358268,-0.000692913 0.000433071,-0.00135039 0.000275591,-0.0020748 -0.00073622,-0.00276772 -0.00459843,-0.00304724 -0.00600787,-0.000464567l-0.000610236 0.00114961 -0.0010315 0.00194882 -0.00104331 0.00195276 -0.000255906 0.000480315zm0.00584646 -0.0110787c-0.00153937,0.00299606 0.0022126,0.00572835 0.00494882,0.00350394 0.000362205,-0.000314961 0.00057874,-0.000586614 0.00080315,-0.000996063l0.000559055 -0.00107087 0.00100394 -0.00194094 0.001 -0.00193701 0.000330709 -0.000645669c0.000783465,-0.00152756 0.000149606,-0.00331102 -0.00141339,-0.00400787 0.00152362,0.000622047 0.00344882,7.87402e-006 0.00427165,-0.00159449l0.000732283 -0.00144094 0.00096063 -0.00190945 0.000956693 -0.00190157 0.000181102 -0.000366142c0.00155906,-0.00323228 -0.0027126,-0.00579921 -0.00524016,-0.00320472 -0.000224409,0.000244094 -0.000413386,0.000492126 -0.000559055,0.000795276l-0.000177165 0.000354331 -0.000948819 0.00188976 -0.000956693 0.00189764 -0.000732283 0.00144488c-0.000566929,0.0011811 -0.000393701,0.0023622 0.000448819,0.00331102 0.000287402,0.000299213 0.00061811,0.000527559 0.000972441,0.000685039 -0.00158268,-0.000649606 -0.00348425,5.11811e-005 -0.00426772,0.0015748l-0.000322835 0.000637795 -0.000996063 0.0019252 -0.001 0.00192913 -0.000555118 0.00106693zm0.0113228 -0.0223189c-0.000484252,0.00100394 -0.000409449,0.00215748 0.000248031,0.00302362 0.00138189,0.00187402 0.00452362,0.00152362 0.00556299,-0.000637795l0.000759843 -0.00153543 0.000913386 -0.0018622 0.000909449 -0.00185433 0.000188976 -0.000389764c0.00152362,-0.00316929 -0.00269685,-0.00580315 -0.00527559,-0.00315748 -0.000224409,0.000248031 -0.000405512,0.0005 -0.000551181,0.000799213l-0.000185039 0.00038189 -0.000901575 0.00184252 -0.000913386 0.00185433 -0.000755906 0.00153543zm0.00548425 -0.0112362c-0.000437008,0.000909449 -0.000393701,0.00196063 0.000125984,0.00279134 0.00129921,0.00209055 0.00461417,0.00182677 0.00571654,-0.00046063l0.00061811 -0.00128346 0.000866142 -0.00180709 0.000858268 -0.00179134 0.000370079 -0.000783465c0.00141732,-0.00293701 -0.0022874,-0.00560236 -0.00499606,-0.00340551 -0.000377953,0.000330709 -0.000641732,0.00065748 -0.000854331,0.00110236l-0.000366142 0.000771654 -0.000858268 0.0017874 -0.000862205 0.00179528 -0.00061811 0.00128346zm0.00537795 -0.0112874c-0.000346457,0.000728346 -0.00038189,0.00160236 -8.66142e-005,0.00232283 0.00101969,0.00251181 0.00473228,0.00248819 0.00594882,-3.93701e-005l0.000291339 -0.00061811 0.000814961 -0.00173622 0.000807087 -0.00172441 0.000748031 -0.00160236c0.00141339,-0.00293307 -0.00237795,-0.00566929 -0.00512992,-0.00327559 -0.000334646,0.000322835 -0.000547244,0.000606299 -0.000744094,0.00101575l-0.000744094 0.00159449 -0.00080315 0.00172047 -0.000811024 0.00172835 -0.000291339 0.000614173zm0.00527165 -0.0113228c-0.000622047,0.00138583 -0.000173228,0.00287402 0.00108661,0.00368504 0.0017126,0.0010315 0.00392913,0.000354331 0.00479921,-0.00145669l0.000515748 -0.00112598 0.000751969 -0.00164173 0.000744094 -0.00162992 0.000594488 -0.00130315c0.00149213,-0.00332677 -0.00317323,-0.0058622 -0.0055748,-0.00275984 -0.000125984,0.000181102 -0.000232283,0.000354331 -0.000322835,0.000551181l-0.000590551 0.00129921 -0.000740157 0.00162205 -0.000748031 0.00163386 -0.000515748 0.00112598z"/>
   <path id="_325577720" class="fil12" d="M1.15901 5.06793l1.5748e-005 0 3.93701e-006 0 -1.9685e-005 0zm0.2895 0.822689c0.00424409,0.00288976 0.00974409,-0.00190551 0.00720079,-0.00614567 -0.000334646,-0.000523622 -0.00069685,-0.00092126 -0.0012126,-0.0012874l-0.000149606 -0.000106299 -0.000326772 -0.000232283 -0.000326772 -0.000232283 -0.000326772 -0.000232283 -0.000322835 -0.000228346 -0.000322835 -0.000228346 -0.000318898 -0.000224409 -0.000311024 -0.000220472 -0.000314961 -0.000224409 -0.000311024 -0.000220472 -0.000307087 -0.000220472 -0.000311024 -0.000220472 -0.00030315 -0.000216535 -0.000307087 -0.000220472 -0.00030315 -0.000212598 -0.000295276 -0.000212598 -0.000295276 -0.000212598 -0.000295276 -0.000212598 -0.000291339 -0.000204724 -0.000295276 -0.000212598 -0.000287402 -0.000208661 -0.000283465 -0.000200787 -0.000291339 -0.000208661 -0.000283465 -0.000204724 -0.000275591 -0.000200787 -6.29921e-005 -4.33071e-005c-0.0032874,-0.00241339 -0.00830709,0.000362205 -0.00783465,0.00435039 0.000110236,0.00120472 0.000787402,0.00230315 0.00177559,0.00302756l6.29921e-005 4.72441e-005 0.000287402 0.000208661 0.000287402 0.000204724 0.000287402 0.000204724 0.000291339 0.000212598 0.000295276 0.000208661 0.000287402 0.000208661 0.000299213 0.000212598 0.000299213 0.000216535 0.000299213 0.000212598 0.000307087 0.000216535 0.00030315 0.000216535 0.00030315 0.000216535 0.000307087 0.000220472 0.000307087 0.000216535 0.000311024 0.000224409 0.000318898 0.000224409 0.000314961 0.000224409 0.000318898 0.000228346 0.000318898 0.000224409 0.000322835 0.000228346 0.000322835 0.000232283 0.000322835 0.000228346 0.000330709 0.000232283 0.000334646 0.00023622 0.000149606 0.000110236zm-0.0423071 -0.0372087c0.00315354,0.00383465 0.00984646,0.000625984 0.00853543,-0.00429134 -0.000165354,-0.000547244 -0.000425197,-0.00105512 -0.000791339,-0.0015l-0.000185039 -0.000232283 -0.00019685 -0.000240157 -0.000192913 -0.00023622 -0.00019685 -0.000240157 -0.000192913 -0.000240157 -0.00019685 -0.000244094 -0.00019685 -0.000244094 -0.000192913 -0.000244094 -0.000200787 -0.000248031 -0.000204724 -0.000255906 -0.000200787 -0.000248031 -0.000200787 -0.000251969 -0.000200787 -0.000255906 -0.000204724 -0.000255906 -0.000204724 -0.000259843 -0.000208661 -0.000259843 -0.000204724 -0.000259843 -0.000208661 -0.00026378 -0.000208661 -0.00026378 -0.000212598 -0.000271654 -0.000212598 -0.000271654 -0.000212598 -0.000267717 -0.000212598 -0.000271654 -0.000216535 -0.000275591 -0.000220472 -0.000279528 -0.000216535 -0.000279528 -0.000216535 -0.000279528 -0.000114173 -0.000145669c-0.000917323,-0.00117323 -0.00237402,-0.00182283 -0.00394488,-0.00175197 -0.00390945,0.000169291 -0.00619291,0.00448425 -0.00391339,0.00739764l0.00011811 0.000153543 0.000220472 0.000283465 0.000224409 0.000287402 0.000216535 0.000279528 0.000220472 0.000279528 0.000220472 0.000279528 0.000216535 0.000275591 0.000212598 0.000271654 0.000216535 0.000271654 0.000212598 0.000271654 0.000212598 0.000267717 0.000212598 0.000267717 0.000208661 0.000267717 0.000208661 0.00026378 0.000208661 0.000259843 0.000208661 0.00026378 0.000208661 0.000259843 0.000204724 0.000255906 0.000204724 0.000251969 0.000200787 0.000251969 0.000208661 0.000259843 0.000200787 0.000248031 0.000200787 0.000248031 0.000200787 0.000251969 0.000200787 0.000248031 0.00019685 0.000240157 0.00019685 0.000244094 0.000185039 0.000228346zm-0.0328819 -0.0442953c0.00288189,0.00415354 0.00985827,0.00125591 0.00881496,-0.00374803 -0.000129921,-0.000551181 -0.000318898,-0.000976378 -0.000633858,-0.00145276l-0.000149606 -0.000224409 -0.000456693 -0.000669291 -0.000456693 -0.000673228 -0.000456693 -0.000677165 -0.000456693 -0.000681102 -0.00046063 -0.000681102 -0.000456693 -0.000685039 -0.00046063 -0.000688976 -0.000456693 -0.000688976 -0.00046063 -0.000692913 -0.00046063 -0.00069685 -0.000307087 -0.000464567c-0.0011378,-0.00172835 -0.00343307,-0.00247244 -0.00552362,-0.00177559 -0.00302362,0.00100787 -0.00437402,0.00437402 -0.00273228,0.00687008l0.000311024 0.000472441 0.000468504 0.000708661 0.000468504 0.000700787 0.000464567 0.000700787 0.000468504 0.000700787 0.000464567 0.000692913 0.00046063 0.000688976 0.000464567 0.000692913 0.000464567 0.000685039 0.00046063 0.000681102 0.000464567 0.000681102 0.000153543 0.000224409zm-0.0288819 -0.0468661c0.000720472,0.0013189 0.00208268,0.00216142 0.00365748,0.00230709 0.00387008,0.000311024 0.00670866,-0.00360236 0.00494882,-0.0068189l-0.00030315 -0.000547244 -0.000452756 -0.000826772 -0.000448819 -0.000822835 -0.000448819 -0.000826772 -0.000452756 -0.000830709 -0.000448819 -0.000830709 -0.000448819 -0.000834646 -0.000444882 -0.000834646 -0.000444882 -0.000834646 -0.000401575 -0.000755906c-0.00236614,-0.00432677 -0.00930709,-0.00232283 -0.00916535,0.00254331 2.3622e-005,0.000673228 0.000185039,0.00125591 0.000492126,0.00185039l0.000409449 0.000767717 0.000452756 0.000850394 0.000456693 0.000846457 0.000452756 0.000850394 0.000456693 0.00084252 0.000456693 0.00084252 0.000456693 0.00084252 0.00046063 0.000838583 0.000456693 0.000834646 0.00030315 0.000547244zm-0.0238622 -0.0495827c0.0019252,0.00458268 0.00914567,0.00312598 0.00934646,-0.00188976 1.5748e-005,-0.00061811 -9.05512e-005,-0.00115354 -0.000311024,-0.00172441l-0.00030315 -0.000748031 -0.000374016 -0.000917323 -0.000370079 -0.00092126 -0.000366142 -0.000917323 -0.000362205 -0.00092126 -0.000366142 -0.000925197 -0.000358268 -0.00092126 -0.000358268 -0.000925197 -0.000358268 -0.000929134 -8.66142e-005 -0.000232283c-0.00178346,-0.00457087 -0.00895276,-0.0033622 -0.00937402,0.00158661 -4.33071e-005,0.000622047 4.33071e-005,0.00126772 0.000267717,0.00184252l9.84252e-005 0.000259843 0.000362205 0.000944882 0.000366142 0.000944882 0.000370079 0.000948819 0.000370079 0.000940945 0.000374016 0.000940945 0.000374016 0.000937008 0.000377953 0.000940945 0.000377953 0.000937008 0.00030315 0.000748031zm-0.0170039 -0.0524488c0.000255906,0.00104331 0.000834646,0.00191339 0.00173228,0.00254724 0.00362205,0.00246457 0.00861811,-0.000720472 0.00770472,-0.0048937l-0.00015748 -0.000661417 -0.000224409 -0.000968504 -0.000220472 -0.000968504 -0.000216535 -0.000972441 -0.000212598 -0.000968504 -0.000212598 -0.000976378 -0.000204724 -0.000968504 -0.000204724 -0.000972441 -0.000200787 -0.000972441 -6.69291e-005 -0.000326772c-0.000346457,-0.00181496 -0.00186614,-0.0031811 -0.00377559,-0.00348425 -0.00337402,-0.0005 -0.00632283,0.00239764 -0.00571654,0.00556693l7.08661e-005 0.000358268 0.000208661 0.001 0.000208661 0.00100394 0.000216535 0.00100394 0.000216535 0.000996063 0.000216535 0.001 0.000224409 0.00100394 0.000228346 0.000996063 0.000232283 0.000996063 0.000153543 0.000661417zm-0.00779921 -0.0545787c0.000232283,0.00213386 0.0019685,0.00372835 0.00422441,0.00391339 0.00306299,0.000212598 0.00570472,-0.0023189 0.00538583,-0.00522835l-3.93701e-005 -0.000374016 -0.000153543 -0.00143307 -0.00015748 -0.00142913 -0.00015748 -0.00142126 -0.000161417 -0.00141732 -0.000165354 -0.00141732 -0.000165354 -0.00140551 -2.3622e-005 -0.000220472c-0.000673228,-0.00496457 -0.008,-0.00520472 -0.00946457,-0.000275591 -0.00015748,0.000606299 -0.000200787,0.00109449 -0.000133858,0.00170866l2.3622e-005 0.000200787 0.000165354 0.0013937 0.000161417 0.0013937 0.00015748 0.00140551 0.00015748 0.00140551 0.000153543 0.00141339 0.000153543 0.00141732 3.93701e-005 0.000370079zm-0.00783071 -0.0537362c0.000720472,0.00375197 0.00569685,0.0048622 0.00838976,0.00187008 0.00096063,-0.00106693 0.00137795,-0.00251969 0.00112205,-0.00385433l-7.87402e-005 -0.000417323 -0.000228346 -0.0012126 -0.000228346 -0.0012126 -0.000232283 -0.00120079 -0.00023622 -0.00120079 -0.000232283 -0.00119291 -0.00023622 -0.00118898 -0.00023622 -0.0011811 -3.93701e-005 -0.000188976c-0.00103543,-0.00473622 -0.00809449,-0.00472441 -0.00945669,0.00023622 -0.000149606,0.000641732 -0.000153543,0.00124016 -3.14961e-005,0.00187402l3.54331e-005 0.000173228 0.000232283 0.00116535 0.000232283 0.00117323 0.000232283 0.0011811 0.000232283 0.0011811 0.000228346 0.00118898 0.000228346 0.00119291 0.000224409 0.00120079 7.87402e-005 0.000413386zm-0.0122638 -0.0527559c0.000248031,0.000909449 0.000826772,0.00172441 0.00159843,0.00229528 0.00364961,0.00264173 0.00890157,-0.000775591 0.00773622,-0.0050315l-0.000255906 -0.000901575 -0.00026378 -0.000937008 -0.000267717 -0.000929134 -0.00026378 -0.000925197 -0.000267717 -0.00092126 -0.000267717 -0.000913386 -0.000267717 -0.000909449 -0.00026378 -0.000901575 -0.000267717 -0.000897638 -0.000165354 -0.000555118c-0.00130709,-0.00433858 -0.00788189,-0.00412598 -0.00927953,0.000314961 -0.000255906,0.000862205 -0.000271654,0.00170472 -1.9685e-005,0.00254331l0.000161417 0.00053937 0.000259843 0.000885827 0.00026378 0.000889764 0.00026378 0.000893701 0.000259843 0.000897638 0.00026378 0.000905512 0.00026378 0.000913386 0.000259843 0.000917323 0.00026378 0.00092126 0.000255906 0.000905512zm-0.0173701 -0.0511457c0.00193307,0.0046063 0.00926772,0.00308661 0.00934252,-0.0020315 -3.93701e-006,-0.000555118 -0.000106299,-0.00109843 -0.000318898,-0.00161024l-0.000165354 -0.000405512 -0.000216535 -0.000527559 -0.000212598 -0.000515748 -0.000216535 -0.000519685 -0.000208661 -0.000507874 -0.000212598 -0.0005 -0.000208661 -0.000496063 -0.000204724 -0.000488189 -0.000204724 -0.000484252 -0.000200787 -0.000480315 -0.000204724 -0.000468504 -0.00019685 -0.000468504 -0.000200787 -0.00046063 -0.000192913 -0.000452756 -0.00019685 -0.000448819 -0.000192913 -0.000440945 -0.000188976 -0.000433071 -0.000161417 -0.000366142c-0.00183465,-0.00407087 -0.00814961,-0.0032874 -0.00919291,0.00115354 -0.000200787,0.00096063 -0.000122047,0.0017874 0.000251969,0.0026811l0.00015748 0.000358268 0.000188976 0.000425197 0.000185039 0.000429134 0.000188976 0.000433071 0.000192913 0.000444882 0.000188976 0.000444882 0.00019685 0.000456693 0.00019685 0.00046063 0.00019685 0.000464567 0.000200787 0.000472441 0.000200787 0.000480315 0.000204724 0.000484252 0.000204724 0.000492126 0.000204724 0.000492126 0.000208661 0.0005 0.000208661 0.000511811 0.000212598 0.000515748 0.000165354 0.000405512zm-0.0247402 -0.0480157c0.00108268,0.00198031 0.00366929,0.00283071 0.00591339,0.00196063 0.00277165,-0.00106693 0.00399606,-0.00409055 0.00266535,-0.00651969l-9.84252e-005 -0.000177165 -0.000425197 -0.000767717 -0.000433071 -0.000775591 -0.000437008 -0.000783465 -0.000444882 -0.000795276 -0.000448819 -0.00080315 -0.000448819 -0.000811024 -0.000456693 -0.000818898 -0.000464567 -0.000830709 -0.000464567 -0.00084252 -0.000299213 -0.00053937c-0.00088189,-0.0016063 -0.00270472,-0.00247244 -0.00462992,-0.00228346 -0.00348425,0.000429134 -0.00554331,0.00393701 -0.00396063,0.00682677l0.000299213 0.000543307 0.000468504 0.000838583 0.000464567 0.000834646 0.000456693 0.000822835 0.000452756 0.000814961 0.000448819 0.000807087 0.000444882 0.000795276 0.000437008 0.000783465 0.000433071 0.000775591 0.000429134 0.000767717 9.84252e-005 0.000177165zm-0.0263189 -0.0479094c0.00211811,0.00387008 0.00832283,0.00274409 0.00910236,-0.00178346 0.000125984,-0.000940945 -1.1811e-005,-0.00184646 -0.000464567,-0.00267323l-0.000405512 -0.000755906 -0.000622047 -0.00114567 -0.00061811 -0.00115354 -0.000625984 -0.00115748 -0.000625984 -0.00116142 -0.000625984 -0.00116929 -0.000629921 -0.00117323 -0.000153543 -0.000287402c-0.000771654,-0.00140157 -0.00215354,-0.00223622 -0.00383858,-0.00235433 -0.00375197,-0.000216535 -0.00651969,0.00366929 -0.00481102,0.00679528l0.000153543 0.000283465 0.000633858 0.00117717 0.000629921 0.00116929 0.000625984 0.00116535 0.000625984 0.00116142 0.000622047 0.00115354 0.00061811 0.00114961 0.000409449 0.000759843zm-0.0256063 -0.0482874c0.000933071,0.00181102 0.00305512,0.00273622 0.00517717,0.00231102 0.00316535,-0.000649606 0.00490157,-0.0039685 0.00352362,-0.00664567l-0.000425197 -0.000822835 -0.000681102 -0.00131102 -0.000685039 -0.00131496 -0.000681102 -0.0013189 -0.000685039 -0.0013189 -0.000681102 -0.00132283 -0.000338583 -0.000653543c-0.000677165,-0.0013189 -0.00196457,-0.00217717 -0.00350394,-0.00238583 -0.00387402,-0.000492126 -0.00690157,0.00340551 -0.00520866,0.00669291l0.000338583 0.000661417 0.000685039 0.00132677 0.000685039 0.00132283 0.000685039 0.00132283 0.000685039 0.0013189 0.000685039 0.00131496 0.000425197 0.000822835zm-0.0247402 -0.0487362c0.000826772,0.00170866 0.00274409,0.00266929 0.00474016,0.00246063 0.00338583,-0.000413386 0.00542913,-0.00375984 0.00403937,-0.00664173l-0.000346457 -0.000704724 -0.000673228 -0.00136614 -0.000673228 -0.0013622 -0.000669291 -0.00136614 -0.000673228 -0.00136614 -0.000665354 -0.00136614 -0.000299213 -0.000610236c-0.000582677,-0.00120866 -0.00176378,-0.00211417 -0.00314173,-0.00239764 -0.00396063,-0.000822835 -0.00732677,0.00307874 -0.00565748,0.00654331l0.00030315 0.00061811 0.000669291 0.00137008 0.000673228 0.00137008 0.000673228 0.00137008 0.000673228 0.00137008 0.000681102 0.00137008 0.000346457 0.000708661zm-0.0235197 -0.0493661c0.000818898,0.0018189 0.00287795,0.00287795 0.00498425,0.00255512 0.00322047,-0.000488189 0.00516142,-0.00371654 0.00390945,-0.00649606l-0.000106299 -0.000232283 -0.000602362 -0.0013189 -0.000594488 -0.00131496 -0.000594488 -0.0013189 -0.000594488 -0.00131102 -0.000590551 -0.00131102 -0.000582677 -0.00130315 -6.29921e-005 -0.000141732c-0.00198819,-0.00440551 -0.00904724,-0.00296457 -0.00929134,0.00197244 -1.5748e-005,0.000677165 9.05512e-005,0.00129528 0.000370079,0.00190945l6.69291e-005 0.000149606 0.000590551 0.00131496 0.000590551 0.0013189 0.000598425 0.0013189 0.000598425 0.00132283 0.000602362 0.00132677 0.000602362 0.00132677 0.000106299 0.000232283zm-0.0213307 -0.0505866c0.000641732,0.00178346 0.00226772,0.00289764 0.00427165,0.0029685 0.00338583,8.66142e-005 0.00598819,-0.00318504 0.00490945,-0.00619291l-1.5748e-005 -3.54331e-005 -0.000377953 -0.00109449 -0.000370079 -0.00109055 -0.000362205 -0.00107874 -0.000346457 -0.00106693 -0.000338583 -0.00105906 -0.000330709 -0.00105118 -0.000318898 -0.00104331 -0.000275591 -0.000925197c-0.00116535,-0.00385827 -0.00664173,-0.00430315 -0.00884646,-0.000692913 -0.000629921,0.00112598 -0.000826772,0.0023189 -0.000464567,0.00351969l0.000295276 0.000984252 0.000334646 0.00109055 0.00034252 0.00109843 0.000354331 0.00111024 0.000366142 0.00111811 0.000377953 0.00112598 0.000385827 0.00113386 0.000393701 0.00114567 1.5748e-005 3.54331e-005zm-0.00706299 -0.0559961c-0.00100394,0.0051811 0.00625197,0.00738583 0.00897638,0.00272047 0.000240157,-0.000444882 0.000389764,-0.000830709 0.000496063,-0.00131496l6.29921e-005 -0.000307087 0.00011811 -0.000562992 0.000125984 -0.000547244 0.000129921 -0.000547244 0.000137795 -0.000535433 0.000141732 -0.000527559 0.000145669 -0.000523622 0.000149606 -0.000515748 0.000153543 -0.000507874 0.000161417 -0.000503937 0.000165354 -0.000496063 0.000169291 -0.000488189 0.000173228 -0.000480315 0.000177165 -0.000476378 0.000181102 -0.000472441 0.000185039 -0.00046063 3.93701e-005 -9.05512e-005c0.000728346,-0.00169685 0.000330709,-0.00365354 -0.00100394,-0.00488189 -0.00244488,-0.00225984 -0.00659843,-0.00132677 -0.00793701,0.00178346l-8.26772e-005 0.000200787 -0.000228346 0.000570866 -0.000220472 0.000574803 -0.000220472 0.000582677 -0.000212598 0.000586614 -0.000204724 0.000598425 -0.000200787 0.000602362 -0.000192913 0.000606299 -0.000188976 0.00061811 -0.000181102 0.00061811 -0.000173228 0.000629921 -0.000169291 0.000633858 -0.000161417 0.000641732 -0.00015748 0.000645669 -0.000149606 0.00065748 -0.000141732 0.000661417 -6.29921e-005 0.000307087zm0.0540197 -0.0311732c-0.00274803,-7.08661e-005 -0.00595669,0.000279528 -0.00867717,0.000712598 -0.000830709,0.000133858 -0.00165748,4.72441e-005 -0.00243307,-0.000220472 -0.00456693,-0.00166535 -0.00362598,-0.00802756 0.00127953,-0.00882283 0.00330709,-0.000523622 0.00725197,-0.000940945 0.0106024,-0.000822835 0.00375984,0.000137795 0.00575591,0.00419685 0.00348031,0.00716142 -0.00101575,0.00130315 -0.00255512,0.00203543 -0.00422441,0.00199606m-7.87402e-006 -3.93701e-006l7.87402e-006 3.93701e-006 -2.75591e-005 -3.93701e-006"/>
   <g>
    <circle id="_325577432" class="fil20" cx="5.54054" cy="3.4072" r="0.146024"/>
    <path id="_325577192" class="fil11" d="M5.65659 3.49583c-0.00233858,-0.00136614 -0.00440551,-0.00236614 -0.00647638,-0.00306299 -0.00667717,-0.00224409 -0.0154724,-0.00224409 -0.0353858,-0.00224409l0 2.75591e-005 -0.00084252 0 -0.0799528 0c-0.0229291,0 -0.0437677,-0.00937402 -0.0588701,-0.0244764 -0.0151063,-0.0151024 -0.0244803,-0.0359449 -0.0244803,-0.058874 0,-0.0229291 0.00937402,-0.0437717 0.0244803,-0.058874 0.0151024,-0.0151024 0.0359409,-0.0244764 0.0588701,-0.0244764l0.078937 0c0.0260748,0 0.0337441,-0.00030315 0.0434291,-0.00565748 0.00320079,0.00415748 0.00618898,0.00848819 0.00893701,0.0129843 -0.0129252,0.00789764 -0.0206339,0.0083189 -0.0523661,0.0083189l-0.078937 0c-0.0186102,0 -0.0355354,0.00761811 -0.047811,0.0198937 -0.0122756,0.0122756 -0.0198937,0.0292008 -0.0198937,0.047811 0,0.0186102 0.00761811,0.0355354 0.0198937,0.047811 0.0122756,0.0122756 0.0292008,0.0198937 0.047811,0.0198937l0.0799528 0 0.00084252 0 0 3.14961e-005c0.0217087,0 0.0312992,0 0.0403386,0.00304331 0.00361024,0.00121654 0.00682283,0.00279134 0.0103661,0.0049252 -0.00271654,0.00447244 -0.00567717,0.00878346 -0.00884252,0.0129252z"/>
   </g>
   <g>
    <path id="_325577312" class="fil21" d="M1.67382 4.80556l0.284642 0.248276c-0.0115787,0.00754724 -0.0231496,0.0151024 -0.0346811,0.0226496l-0.279803 -0.244055c0.00995669,-0.00898819 0.0199094,-0.0179449 0.0298425,-0.0268701z"/>
    <path id="_325577480" class="fil21" d="M1.58588 4.8852l0.270157 0.235646 -0.0346614 0.0226614 -0.265008 -0.23115c0.00978346,-0.00904724 0.019626,-0.0181063 0.0295118,-0.0271575z"/>
   </g>
   <g>
    <path id="_325576832" class="fil21" d="M2.82727 5.1963l0.386024 -0.0568189c0.00019685,0.00597244 0.00038189,0.0119213 0.000551181,0.0178386 0.000212598,0.00750787 0.000409449,0.0149724 0.000574803,0.022374l-0.377409 0.0555512 -0.00974016 -0.0389449z"/>
    <path id="_325576112" class="fil21" d="M2.84889 5.28272l0.366287 -0.0539094c0.000106299,0.013811 0.000110236,0.0272953 1.1811e-005,0.040374l-0.356598 0.0524882 -0.000917323 -0.00370472 -0.00878346 -0.035248z"/>
   </g>
  </g>
 </g>
 <rect class="fil22" width="6.82666" height="6.82666"/>
</svg>
