<?xml version="1.0" encoding="UTF-8"?>
<!DOCTYPE svg PUBLIC "-//W3C//DTD SVG 1.1//EN" "http://www.w3.org/Graphics/SVG/1.1/DTD/svg11.dtd">
<!-- Creator: CorelDRAW -->
<svg xmlns="http://www.w3.org/2000/svg" xml:space="preserve" width="6.82666in" height="6.82666in" style="shape-rendering:geometricPrecision; text-rendering:geometricPrecision; image-rendering:optimizeQuality; fill-rule:evenodd; clip-rule:evenodd"
viewBox="0 0 6.82666 6.82666"
 xmlns:xlink="http://www.w3.org/1999/xlink">
 <defs>
  <style type="text/css">
   <![CDATA[
    .fil10 {fill:none}
    .fil0 {fill:#4B4B4D}
    .fil9 {fill:#1A1A1A}
    .fil8 {fill:#315159}
    .fil7 {fill:#425F67}
    .fil6 {fill:#526D74}
    .fil5 {fill:#90A4AE}
    .fil1 {fill:#E6B68E}
    .fil4 {fill:#F3C9A5}
    .fil3 {fill:#0288D1;fill-rule:nonzero}
    .fil2 {fill:#E6B68E;fill-rule:nonzero}
   ]]>
  </style>
 </defs>
 <g id="Layer_x0020_1">
  <metadata id="CorelCorpID_0Corel-Layer"/>
  <g id="_327182752">
   <path id="_327185728" class="fil0" d="M4.08822 5.367c0,0 -0.0202638,0.0976417 0.0164094,0.123807 0.0227953,0.0162638 0.114535,0.0611732 0.180705,0.0928307 0.0563661,0.0269685 0.0809409,0.0229567 0.0928071,0.085874 0.00607087,0.0322008 -0.000515748,0.072378 -0.0547205,0.0994685 -0.0905354,0.00916142 -0.324098,-0.0617953 -0.436118,-0.113083 -0.0113071,-0.00517717 -0.0213819,-0.00987008 -0.0299409,-0.0139173 0,0 -0.00586614,-0.0173543 -0.0132165,-0.0466654 -0.011815,-0.0471024 -0.0275039,-0.153059 -0.0289528,-0.239657l0.273028 0.0113425z"/>
   <g>
    <ellipse id="_327185560" class="fil1" transform="matrix(1.02218 -0 0.225412 1.02218 3.01947 2.24499)" rx="0.0397205" ry="0.102"/>
    <ellipse id="_327184984" class="fil1" transform="matrix(-1.02218 -0 -0.225412 1.02218 3.69838 2.24499)" rx="0.0397205" ry="0.102"/>
   </g>
   <polygon id="_327184840" class="fil1" points="3.55505,2.90478 3.5657,2.777 3.47926,2.31048 3.2386,2.31048 3.15216,2.777 "/>
   <path id="_327184936" class="fil2" d="M2.84817 3.02894c-0.25989,-0.232138 -0.268984,-0.382346 -0.520929,-0.666118 -0.086185,-0.158465 -0.120114,-0.395728 -0.145449,-0.586803 -0.117016,-0.127358 -0.0890433,-0.301126 -0.0169882,-0.340602 0.0114331,-0.00626378 0.0472362,-0.0131772 0.0607756,-0.0131535 0.0925197,0.000192913 0.174382,0.163311 0.105224,0.323598 0.0627087,0.202654 0.172984,0.482642 0.253386,0.535358 0.270732,0.17752 0.233181,0.181972 0.375189,0.29824 0.0666496,0.0545709 0.159402,0.0588425 0.239106,0.0882717 0.0486654,0.0305748 0.0973346,0.0502362 0.146008,0.0570039l0.000200787 -2.75591e-005 0.000200787 2.75591e-005c0.0486732,-0.00676772 0.0973425,-0.0264291 0.146008,-0.0570039 0.0797047,-0.0294291 0.172457,-0.0337008 0.239106,-0.0882717 0.142008,-0.116268 0.104457,-0.12072 0.375189,-0.29824 0.0804016,-0.0527165 0.190677,-0.332705 0.253386,-0.535358 -0.0691575,-0.160287 0.0127047,-0.323406 0.105224,-0.323598 0.0135394,-2.3622e-005 0.0493425,0.00688976 0.0607756,0.0131535 0.0720551,0.0394764 0.100028,0.213244 -0.0169882,0.340602 -0.0253346,0.191075 -0.0592638,0.428339 -0.145449,0.586803 -0.251945,0.283772 -0.261039,0.43398 -0.520929,0.666118 0,0.259232 -0.206547,0.420508 -0.0681299,0.777697 0.109866,0.286614 0.259996,0.372669 0.337323,0.816157 0.0345787,0.198283 -0.00521654,0.67515 -0.0617913,0.840634 -0.0268504,0.0785551 -0.167661,0.0951811 -0.200799,-0.0369488 -0.054937,-0.219039 -0.0345394,-0.512315 -0.0664803,-0.675898l-0.338665 -0.405315c-0.0388937,-0.0444488 -0.0697795,-0.0701772 -0.0977795,-0.0764331l-0.000200787 4.72441e-005 -0.000200787 -4.72441e-005c-0.028,0.00625591 -0.0588858,0.0319843 -0.0977795,0.0764331l-0.338665 0.405315c-0.0319409,0.163583 -0.0115433,0.456858 -0.0664803,0.675898 -0.0331378,0.13213 -0.173949,0.115504 -0.200799,0.0369488 -0.0565748,-0.165484 -0.0963701,-0.64235 -0.0617913,-0.840634 0.0773268,-0.443488 0.227457,-0.529543 0.337323,-0.816157 0.138417,-0.357189 -0.0681299,-0.518465 -0.0681299,-0.777697z"/>
   <path id="_327184864" class="fil3" d="M3.34449 4.28928c-0.028,0.00624803 -0.0588858,0.0319843 -0.0977795,0.0764291l-0.0991378 0.130504 -0.512295 -0.190378 -0.000503937 -0.000496063c5.11811e-005,-0.000102362 0.000110236,-0.000228346 0.000145669,-0.000311024 0.0724016,-0.158138 0.199217,-0.319591 0.267752,-0.498386l0 -0.0557441c0.032063,0.00139764 0.0777598,0.00607874 0.109634,0.014748 0.116075,0.0315748 0.228583,0.0475472 0.332185,0.053689 0.103598,-0.00614173 0.216106,-0.0221142 0.332181,-0.053689 0.031874,-0.00866929 0.0775709,-0.0133504 0.109634,-0.014748l0 0.0557441c0.0685354,0.178795 0.19535,0.340248 0.267752,0.498386 3.54331e-005,8.26772e-005 9.44882e-005,0.000208661 0.000145669,0.000311024l-0.000503937 0.000496063 -0.512295 0.190378 -0.0991339 -0.130504c-0.0388976,-0.0444449 -0.0697835,-0.0701811 -0.0977795,-0.0764291z"/>
   <path id="_327184024" class="fil4" d="M3.35893 1.791c0.193051,0 0.349551,0.150559 0.349551,0.370429 0,0.21987 -0.1565,0.446201 -0.349551,0.446201 -0.193051,0 -0.349551,-0.226331 -0.349551,-0.446201 0,-0.21987 0.1565,-0.370429 0.349551,-0.370429z"/>
   <g>
    <rect id="_327184408" class="fil5" x="0.853332" y="1.4655" width="5.12" height="0.10701"/>
    <g>
     <g>
      <rect id="_327184192" class="fil6" x="5.57965" y="1.29629" width="0.187087" height="0.445434" rx="0.0621496" ry="0.0621496"/>
      <rect id="_327184168" class="fil7" x="5.3668" y="1.18362" width="0.22066" height="0.670772" rx="0.0732992" ry="0.0732992"/>
      <rect id="_327184144" class="fil8" x="5.15786" y="1.05686" width="0.22066" height="0.924283" rx="0.0732992" ry="0.0732992"/>
     </g>
     <g>
      <rect id="_327184120" class="fil6" x="1.05994" y="1.29629" width="0.187087" height="0.445434" rx="0.0621496" ry="0.0621496"/>
      <rect id="_327183400" class="fil7" x="1.23921" y="1.18362" width="0.22066" height="0.670772" rx="0.0732992" ry="0.0732992"/>
      <rect id="_327183208" class="fil8" x="1.44815" y="1.05686" width="0.22066" height="0.924283" rx="0.0732992" ry="0.0732992"/>
     </g>
    </g>
   </g>
   <path id="_327183088" class="fil1" d="M2.27086 1.61661c0,0 0.0157835,-0.125165 0.044437,-0.163118 0.0286535,-0.0379567 0.0718701,0.0166378 0.0438465,0.189913 -0.0280236,0.173276 -0.0882835,-0.0267953 -0.0882835,-0.0267953z"/>
   <path id="_327183832" class="fil0" d="M2.60117 5.367c0,0 0.0202638,0.0976417 -0.0164094,0.123807 -0.0227953,0.0162638 -0.114535,0.0611732 -0.180705,0.0928307 -0.0563661,0.0269685 -0.0809409,0.0229567 -0.0928071,0.085874 -0.00607087,0.0322008 0.000515748,0.072378 0.0547205,0.0994685 0.0905354,0.00916142 0.324098,-0.0617953 0.436118,-0.113083 0.0113071,-0.00517717 0.0213819,-0.00987008 0.0299409,-0.0139173 0,0 0.00586614,-0.0173543 0.0132165,-0.0466654 0.011815,-0.0471024 0.0275039,-0.153059 0.0289528,-0.239657l-0.273028 0.0113425z"/>
   <path id="_327182320" class="fil9" d="M3.00965 2.14547c-0.0984961,-0.222898 0.0305591,-0.401795 0.322654,-0.404319 0.222161,-0.00191732 0.218264,0.00493701 0.263736,-0.0530827 0,0 0.147028,0.0752992 0.130354,0.211091 0.0560512,0.114961 -0.018252,0.164079 -0.0146654,0.215299 0.00118898,0.016937 -2.75591e-005,0.0321535 -0.00514961,0.0509528 -0.00778346,0.0285551 -0.0434173,-0.171417 -0.128902,-0.141091 -0.141547,0.0502165 -0.391846,-0.0350512 -0.391846,-0.0350512 0,0 -0.131717,-0.0160945 -0.123126,0.0870709 0,0 -0.0136457,0.0888819 -0.0530551,0.0691299z"/>
   <path id="_327182488" class="fil1" d="M4.41852 1.61661c0,0 -0.0157835,-0.125165 -0.044437,-0.163118 -0.0286535,-0.0379567 -0.0718701,0.0166378 -0.0438465,0.189913 0.0280236,0.173276 0.0882835,-0.0267953 0.0882835,-0.0267953z"/>
  </g>
 </g>
 <rect class="fil10" width="6.82666" height="6.82666"/>
</svg>
