<?xml version="1.0" encoding="UTF-8"?>
<!DOCTYPE svg PUBLIC "-//W3C//DTD SVG 1.1//EN" "http://www.w3.org/Graphics/SVG/1.1/DTD/svg11.dtd">
<!-- Creator: CorelDRAW -->
<svg xmlns="http://www.w3.org/2000/svg" xml:space="preserve" width="6.82666in" height="6.82666in" style="shape-rendering:geometricPrecision; text-rendering:geometricPrecision; image-rendering:optimizeQuality; fill-rule:evenodd; clip-rule:evenodd"
viewBox="0 0 6.82666 6.82666"
 xmlns:xlink="http://www.w3.org/1999/xlink">
 <defs>
  <style type="text/css">
   <![CDATA[
    .fil8 {fill:none}
    .fil4 {fill:#4B4B4D}
    .fil5 {fill:#1A1A1A}
    .fil7 {fill:#5D4037}
    .fil0 {fill:#E6B68E}
    .fil1 {fill:#F3C9A5}
    .fil3 {fill:#00ACC1;fill-rule:nonzero}
    .fil6 {fill:#90A4AE;fill-rule:nonzero}
    .fil2 {fill:#E6B68E;fill-rule:nonzero}
   ]]>
  </style>
 </defs>
 <g id="Layer_x0020_1">
  <metadata id="CorelCorpID_0Corel-Layer"/>
  <g id="_327199408">
   <g>
    <ellipse id="_327201664" class="fil0" transform="matrix(1.02218 -0 0.225412 1.02218 3.08862 1.88531)" rx="0.0397205" ry="0.102"/>
    <ellipse id="_327200752" class="fil0" transform="matrix(-1.02218 -0 -0.225412 1.02218 3.76753 1.88531)" rx="0.0397205" ry="0.102"/>
   </g>
   <polygon id="_327201256" class="fil0" points="3.6242,2.54509 3.63485,2.41732 3.54841,1.95079 3.30775,1.95079 3.22131,2.41732 "/>
   <path id="_327201232" class="fil1" d="M3.42808 1.43131c0.193051,0 0.349551,0.150559 0.349551,0.370429 0,0.21987 -0.1565,0.446201 -0.349551,0.446201 -0.193051,0 -0.349551,-0.226331 -0.349551,-0.446201 0,-0.21987 0.1565,-0.370429 0.349551,-0.370429z"/>
   <path id="_327201040" class="fil2" d="M2.91732 2.66926c-0.25989,-0.232138 -0.491366,-0.253953 -0.743311,-0.537724 -0.086185,-0.158465 -0.0576142,-0.587394 -0.0829488,-0.778469 -0.117016,-0.127358 -0.0546654,-0.301126 0.0173858,-0.340602 0.0114331,-0.00625984 0.0472362,-0.0131772 0.0607756,-0.0131535 0.0925197,0.000192913 0.140008,0.163311 0.0708504,0.323598 0.0700433,0.226346 0.132571,0.687331 0.219256,0.686736 0.159894,-0.00110236 0.423165,0.0924331 0.569201,0.210134 0.0670709,0.054063 0.159402,0.0588425 0.239106,0.0882717 0.0485591,0.0305079 0.097126,0.0501496 0.145693,0.0569606 0.0485669,-0.00681102 0.0971339,-0.0264528 0.145693,-0.0569606 0.0797047,-0.0294291 0.172035,-0.0342087 0.239106,-0.0882717 0.146035,-0.117701 0.409307,-0.211236 0.569201,-0.210134 0.086685,0.000594488 0.149213,-0.46039 0.219256,-0.686736 -0.0691575,-0.160287 0.0127047,-0.323406 0.105224,-0.323598 0.0135394,-2.3622e-005 0.0493425,0.00688976 0.0607756,0.0131535 0.0720551,0.0394764 0.100028,0.213244 -0.0169882,0.340602 -0.0253346,0.191075 0.00323622,0.620004 -0.0829488,0.778469 -0.251945,0.283772 -0.483421,0.305587 -0.743311,0.537724 0,0.259232 -0.206547,0.420508 -0.0681299,0.777697 0.109866,0.286614 0.0597283,0.462843 0.137055,0.906331 0.0345787,0.198283 -0.0052126,0.67515 -0.0617913,0.840634 -0.0268504,0.0785551 -0.167665,0.0951811 -0.200799,-0.0369488 -0.054937,-0.219035 -0.0345394,-0.512315 -0.0664803,-0.675898l-0.138398 -0.495488c-0.038748,-0.0442835 -0.0695472,-0.0699803 -0.0974646,-0.0763583 -0.0279173,0.00637795 -0.0587165,0.0320748 -0.0974646,0.0763583l-0.138398 0.495488c-0.0319409,0.163583 -0.0115433,0.456862 -0.0664803,0.675898 -0.0331339,0.13213 -0.173949,0.115504 -0.200799,0.0369488 -0.0565787,-0.165484 -0.0963701,-0.64235 -0.0617913,-0.840634 0.0773268,-0.443488 0.027189,-0.619717 0.137055,-0.906331 0.138417,-0.357189 -0.0681299,-0.518465 -0.0681299,-0.777697z"/>
   <path id="_327200560" class="fil3" d="M3.41333 3.9297c-0.0282283,0.00762205 -0.0936614,0.125839 -0.143433,0.320665l-0.444039 -0.0117047c0.00777559,-0.0299094 0.034185,-0.193917 0.0399528,-0.223256 0.040185,-0.204366 0.0394724,-0.394835 0.106016,-0.568445l0.0092874 -0.0552677c0.032063,0.00139764 0.0684724,0.00560236 0.100346,0.0142717 0.253996,0.0690945 0.409752,0.0690945 0.663748,0 0.031874,-0.00866929 0.0682835,-0.012874 0.100346,-0.0142717l0.0092874 0.0552677c0.0665433,0.17361 0.0658307,0.364079 0.106016,0.568445 0.00576772,0.0293386 0.0321772,0.193346 0.0399528,0.223256l-0.444039 0.0117047c-0.0497717,-0.194827 -0.115205,-0.313043 -0.143433,-0.320665l-3.93701e-006 0 -3.93701e-006 0z"/>
   <path id="_327200536" class="fil4" d="M2.86362 5.05791c0,0 0.0202638,0.0976417 -0.0164094,0.123807 -0.0227953,0.0162638 -0.114535,0.0611732 -0.180705,0.0928307 -0.0563661,0.0269685 -0.0809409,0.0229567 -0.0928071,0.085874 -0.00607087,0.0322008 0.000515748,0.072378 0.0547205,0.0994685 0.0905354,0.00916142 0.324098,-0.0617953 0.436118,-0.113083 0.0113071,-0.00517717 0.0213819,-0.00987008 0.0299409,-0.0139173 0,0 0.00586614,-0.0173543 0.0132165,-0.0466654 0.011815,-0.0471024 0.0275039,-0.153059 0.0289528,-0.239657l-0.273028 0.0113425z"/>
   <path id="_327200608" class="fil5" d="M3.07881 1.78578c-0.0984961,-0.222898 0.0305591,-0.401795 0.322654,-0.404319 0.222161,-0.00191732 0.218264,0.00493701 0.263736,-0.0530827 0,0 0.147028,0.0752992 0.130354,0.211091 0.0560512,0.114961 -0.018252,0.164079 -0.0146654,0.215299 0.00118898,0.016937 -2.75591e-005,0.0321535 -0.00514961,0.0509528 -0.00778346,0.0285551 -0.0434173,-0.171417 -0.128902,-0.141091 -0.141547,0.0502165 -0.391846,-0.0350512 -0.391846,-0.0350512 0,0 -0.131717,-0.0160945 -0.123126,0.0870709 0,0 -0.0136457,0.0888819 -0.0530551,0.0691299z"/>
   <path id="_327200176" class="fil4" d="M3.96304 5.05791c0,0 -0.0202638,0.0976417 0.0164094,0.123807 0.0227953,0.0162638 0.114535,0.0611732 0.180705,0.0928307 0.0563661,0.0269685 0.0809409,0.0229567 0.0928071,0.085874 0.00607087,0.0322008 -0.000515748,0.072378 -0.0547205,0.0994685 -0.0905354,0.00916142 -0.324098,-0.0617953 -0.436118,-0.113083 -0.0113071,-0.00517717 -0.0213819,-0.00987008 -0.0299409,-0.0139173 0,0 -0.00586614,-0.0173543 -0.0132165,-0.0466654 -0.011815,-0.0471024 -0.0275039,-0.153059 -0.0289528,-0.239657l0.273028 0.0113425z"/>
   <polygon id="_327200128" class="fil6" points="0.853331,1.02417 5.97333,1.02417 5.97333,1.24069 0.853331,1.24069 "/>
   <rect id="_327200224" class="fil7" x="0.853329" y="1.02417" width="0.345486" height="4.80318"/>
   <rect id="_327199840" class="fil7" x="5.62784" y="1.02417" width="0.345486" height="4.80318"/>
   <g>
    <path id="_327199480" class="fil0" d="M2.16026 1.25452c0,0 0.0634094,-0.0225591 0.103374,-0.227173 0.0342402,-0.0379528 0.0694173,0.0166378 0.0158504,0.189909 -0.0535669,0.173268 -0.119224,0.0372638 -0.119224,0.0372638z"/>
    <path id="_327199312" class="fil0" d="M4.6664 1.25452c0,0 -0.0634094,-0.0225591 -0.103374,-0.227173 -0.0342402,-0.0379528 -0.0694173,0.0166378 -0.0158504,0.189909 0.0535669,0.173268 0.119224,0.0372638 0.119224,0.0372638z"/>
   </g>
  </g>
 </g>
 <rect class="fil8" width="6.82666" height="6.82666"/>
</svg>
