<?xml version="1.0" encoding="UTF-8"?>
<!DOCTYPE svg PUBLIC "-//W3C//DTD SVG 1.1//EN" "http://www.w3.org/Graphics/SVG/1.1/DTD/svg11.dtd">
<!-- Creator: CorelDRAW -->
<svg xmlns="http://www.w3.org/2000/svg" xml:space="preserve" width="6.82666in" height="6.82666in" style="shape-rendering:geometricPrecision; text-rendering:geometricPrecision; image-rendering:optimizeQuality; fill-rule:evenodd; clip-rule:evenodd"
viewBox="0 0 6.82666 6.82666"
 xmlns:xlink="http://www.w3.org/1999/xlink">
 <defs>
  <style type="text/css">
   <![CDATA[
    .fil11 {fill:none}
    .fil10 {fill:#094F52}
    .fil4 {fill:#1A1A1A}
    .fil2 {fill:#212121}
    .fil7 {fill:#315159}
    .fil9 {fill:#526D74}
    .fil5 {fill:#9DF3F3}
    .fil0 {fill:#D7AD91}
    .fil1 {fill:#ECBD9E}
    .fil3 {fill:#006064;fill-rule:nonzero}
    .fil6 {fill:#00838F;fill-rule:nonzero}
    .fil8 {fill:#315159;fill-rule:nonzero}
   ]]>
  </style>
 </defs>
 <g id="Layer_x0020_1">
  <metadata id="CorelCorpID_0Corel-Layer"/>
  <g id="_324943880">
   <path id="_324913232" class="fil0" d="M3.12405 3.17011c0,0 -0.20828,1.04138 -0.20828,1.17156 0,0.17361 1.04139,0.17361 1.04139,0 0,-0.113311 -0.167402,-0.965236 -0.20828,-1.17156 -0.00607874,-0.0306969 -0.624835,0 -0.624835,0z"/>
   <path id="_324913424" class="fil1" d="M4.43874 2.71075c-0.00633858,0.048063 -0.00942913,0.186157 -0.0535433,0.326106 -0.00670472,0.024811 -0.0814331,0.236579 -0.206031,0.397154 -0.174622,0.208472 -0.428134,0.339642 -0.71026,0.339642 -0.440024,0 -0.810398,-0.319047 -0.920492,-0.752862 -0.048437,-0.148646 -0.0289213,-0.300433 -0.0345118,-0.342878 0.845205,-0.764835 1.1398,-0.690083 1.92484,0.0328386z"/>
   <polygon id="_324913520" class="fil2" points="3.41026,2.23437 2.56405,2.23437 2.56405,2.73342 3.29448,2.73342 3.42168,2.45984 3.46592,2.36468 3.51016,2.45984 3.63735,2.73342 4.3678,2.73342 4.3678,2.23437 3.52158,2.23437 "/>
   <path id="_324913208" class="fil3" d="M3.37367 2.332l-0.711984 0 0 0.303791 0.570744 0 0.100776 -0.21676 0.0404646 -0.0870315zm-0.809614 -0.19526l0.846209 0 0.054189 0 0.0014685 -0.00316142 0.0014685 0.00316142 0.0541969 0 0.846213 0 0.0976299 0 0 0.0976299 0 0.499051 0 0.0976299 -0.0976299 0 -0.730445 0 -0.0620591 0 -0.0264173 -0.0568228 -0.0829567 -0.178433 -0.0829567 0.178433 -0.0264173 0.0568228 -0.0620591 0 -0.730433 0 -0.0976299 0 0 -0.0976299 0 -0.499051 0 -0.0976299 0.0976299 0zm0.994118 0.19526l0.0404646 0.0870315 0.100776 0.21676 0.570756 0 0 -0.303791 -0.711996 0z"/>
   <path id="_324913664" class="fil4" d="M3.49072 1.56013c0.387012,0 0.710441,0.220059 0.863913,0.57661l-0.833055 0 -0.111323 0 -0.818752 0c0.166323,-0.356551 0.512205,-0.57661 0.899217,-0.57661z"/>
   <path id="_324912680" class="fil3" d="M1.72419 5.87778c0.00254331,0.0588898 0.971555,0.0886063 1.71228,0.0955512 0.740732,-0.00694488 1.65683,-0.0366614 1.65937,-0.0955512 0.0178976,-0.48226 0.155134,-1.36773 -0.642343,-1.75898 -0.151894,-0.0745197 -0.322878,-0.134295 -0.549886,-0.16676 -0.0942323,0.023815 -0.0705709,0.320059 -0.467142,0.389669 -0.0355,-0.00623228 -0.0713189,-0.0163701 -0.107417,-0.0301772 -0.26076,-0.0997087 -0.30363,-0.341106 -0.356929,-0.354579 -0.188441,0.0269488 -0.337398,0.0687953 -0.474839,0.125445 -0.897445,0.369921 -0.791571,1.29752 -0.773098,1.79539z"/>
   <polygon id="_324912656" class="fil5" points="3.50736,2.29945 3.67887,2.66834 4.30271,2.66834 4.30271,2.29945 "/>
   <polygon id="_324912992" class="fil5" points="2.62913,2.29945 2.62913,2.66834 3.25297,2.66834 3.42447,2.29945 "/>
   <path id="_324912944" class="fil6" d="M2.51524 2.13674l0.895024 0 0.111323 0 0.895028 0 0.048815 0 0 0.048815 0 0.596681 0 0.048815 -0.048815 0 -0.810291 0 -0.0310354 0 -0.0132047 -0.0284094 -0.0961614 -0.206835 -0.0961614 0.206835 -0.0132047 0.0284094 -0.0310354 0 -0.81028 0 -0.048815 0 0 -0.048815 0 -0.596681 0 -0.048815 0.048815 0zm0.895024 0.0976299l-0.846209 0 0 0.499051 0.730433 0 0.127193 -0.273583 0.0442402 -0.0951575 0.0442402 0.0951575 0.127193 0.273583 0.730445 0 0 -0.499051 -0.846213 0 -0.111323 0z"/>
   <circle id="_324912848" class="fil7" cx="3.46592" cy="3.23501" r="0.224453"/>
   <polygon id="_324912392" class="fil8" points="3.64544,3.18638 4.82524,3.16808 4.81707,1.65551 4.58864,0.880795 4.68207,0.853331 4.91237,1.63438 4.91427,1.64792 4.92274,3.21576 4.923,3.26382 4.87469,3.26457 3.64658,3.28363 "/>
   <circle id="_324912824" class="fil9" cx="3.46592" cy="3.23501" r="0.11872"/>
   <g>
    <path id="_324944792" class="fil10" d="M2.2583 5.94285c-0.0178465,-0.288862 0.0553228,-0.749839 0.116717,-0.855134 0.0413701,0.190035 0.0257244,0.515646 0.0915472,0.864177 -0.0726535,-0.00275197 -0.142441,-0.00576772 -0.208264,-0.00904331z"/>
    <path id="_324944744" class="fil10" d="M4.56831 5.94378c0.018063,-0.288807 -0.0552087,-0.750654 -0.116665,-0.856063 -0.0414094,0.190217 -0.025689,0.516272 -0.0917362,0.865185 0.0727835,-0.00276378 0.142657,-0.00580315 0.208402,-0.00912205z"/>
   </g>
  </g>
 </g>
 <rect class="fil11" width="6.82666" height="6.82666"/>
</svg>
