<?xml version="1.0" encoding="iso-8859-1"?>
<!-- Uploaded to: SVG Repo, www.svgrepo.com, Generator: SVG Repo Mixer Tools -->
<svg height="800px" width="800px" version="1.1" id="Layer_1" xmlns="http://www.w3.org/2000/svg" xmlns:xlink="http://www.w3.org/1999/xlink" 
	 viewBox="0 0 512 512" xml:space="preserve">
<path style="fill:#FFFFFF;" d="M182.739,434.265c-4.541,10.997-9.094,20.591-12.9,28.127c-5.587,11.041-9.572,17.631-9.572,17.631
	s-12.956,5.732-30.23,5.732s-30.23-5.732-30.23-5.732s-60.082-99.25-40.481-173.068l20.936-42.685
	c21.782-38.5,26.357-57.556,24.064-85.816c-0.913-11.309-2.927-24.086-5.376-40.181c-0.634-4.152-1.291-8.537-1.97-13.167
	C86.15,51.189,119.831,53.47,130.037,53.47c9.695,0,43.887-2.282,33.057,71.636c-0.679,4.63-1.336,9.016-1.97,13.167
	c-2.449,16.095-4.463,28.872-5.376,40.181c-1.881,23.162,0.857,40.148,13.902,66.727c3.384,6.89,7.457,14.436,12.333,22.895
	L182.739,434.265z"/>
<path style="fill:#F5F5F5;" d="M182.739,434.265c-4.541,10.997-9.094,20.591-12.9,28.127c-5.587,11.041-9.572,17.631-9.572,17.631
	s-12.956,5.732-30.23,5.732V53.469c9.695,0,43.887-2.282,33.057,71.636c-0.679,4.63-1.336,9.016-1.97,13.167
	c-2.449,16.095-4.463,28.872-5.376,40.181c-1.881,23.162,0.857,40.148,13.902,66.727c3.384,6.89,7.457,14.436,12.333,22.895
	L182.739,434.265z"/>
<path style="fill:#FF633E;" d="M161.123,138.272c-2.449,16.095-4.463,28.872-5.376,40.181h-51.423
	c-0.913-11.309-2.927-24.086-5.376-40.181H161.123z"/>
<path style="fill:#FFFFFF;" d="M445.484,404.391l-16.106,42.084c-5.176,10.986-10.741,23.229-17.419,34.36
	c-9.439,2.783-19.723,4.441-29.997,4.452c-10.318,0.011-20.625-1.658-30.108-5.565c-5.532-8.303-10.207-17.475-14.559-26.691
	c-2.649-5.61-5.176-11.242-7.702-16.718c-1.113-4.452-4.452-8.904-4.92-13.702l1.024-147.122v-0.022
	c4.207-7.123,8.326-14.303,12.199-21.615c0.145-0.267,0.289-0.545,0.423-0.813c10.385-19.69,18.521-40.181,18.454-62.742
	c-0.011-3.962-0.178-7.903-0.479-11.843c-0.979-13.468-3.361-26.824-5.498-40.181c-1.469-9.194-2.827-18.399-3.551-27.659
	c-1.269-16.518-1.692-40.092,13.012-51.489c6.367-4.942,13.98-5.621,21.704-5.654c0.345-0.011,0.701-0.011,1.046-0.011
	c8.938,0.022,17.542,1.87,23.808,8.793c14.102,15.56,11.03,42.619,8.403,61.451c-0.679,4.831-1.458,9.695-2.259,14.57
	c-2.193,13.301-4.564,26.747-5.476,40.181c-0.423,6.255-0.534,12.499-0.167,18.744c1.369,23.274,11.798,44.5,22.984,64.523
	c7.023,12.6,15.516,24.543,20.246,38.267c3.773,10.941,5.565,22.506,5.966,34.048C457.338,357.876,452.53,381.718,445.484,404.391z"
	/>
<path style="fill:#F5F5F5;" d="M445.484,404.391l-16.106,42.084c-5.176,10.986-10.741,23.229-17.419,34.36
	c-9.439,2.783-19.723,4.441-29.997,4.452V53.469c0.345-0.011,0.701-0.011,1.046-0.011c8.938,0.022,17.542,1.87,23.808,8.793
	c14.102,15.56,11.03,42.619,8.403,61.451c-0.679,4.831-1.458,9.695-2.259,14.57c-2.193,13.301-4.564,26.746-5.476,40.181
	c-0.423,6.255-0.534,12.499-0.167,18.744c1.369,23.274,11.798,44.5,22.984,64.523c7.023,12.6,15.516,24.543,20.246,38.267
	c3.773,10.941,5.565,22.506,5.966,34.048C457.338,357.876,452.53,381.718,445.484,404.391z"/>
<path style="fill:#FF633E;" d="M412.961,138.272c-2.193,13.301-4.564,26.746-5.476,40.181h-51.189
	c-0.979-13.468-3.361-26.824-5.498-40.181H412.961z"/>
<g>
	<path style="fill:#C9C9C9;" d="M181.982,268.076l0.757,166.189c-4.541,10.997-9.094,20.591-12.9,28.127
		c-22.973-54.818-46.67-139.932-8.826-202.63c3.105-5.153,5.988-10.006,8.637-14.581
		C173.033,252.07,177.107,259.617,181.982,268.076z"/>
	<path style="fill:#C9C9C9;" d="M362.318,335.226c-0.2-28.876-7.168-54.261-19.968-75.465c-1.391-2.304-2.727-4.541-4.029-6.723
		c-0.134,0.267-0.278,0.545-0.423,0.813c-3.873,7.313-7.992,14.492-12.199,21.615v0.022l-1.024,147.122
		c0.467,4.797,3.807,9.249,4.92,13.702c2.527,5.476,5.053,11.108,7.702,16.718c8.114-20.525,15.327-44.544,20.569-69.376
		C360.224,372.482,362.414,349.217,362.318,335.226z"/>
</g>
<path style="fill:#FFFFFF;" d="M340.057,335.571l-4.074,43.976c-12.366,65.959-48.507,125.663-48.507,125.663
	S272.138,512,251.681,512c-20.469,0-35.807-6.79-35.807-6.79s-88.632-146.41-35.807-233.951
	c36.697-60.828,44.266-84.859,41.149-123.225c-1.08-13.39-3.462-28.527-6.367-47.594c-0.746-4.92-1.525-10.106-2.326-15.594
	C199.69-2.695,239.593,0.01,251.681,0.01c0.957,0,2.115-0.022,3.428,0c14.447,0.178,47.483,4.597,35.729,84.836
	c-0.801,5.487-1.592,10.674-2.337,15.594c-2.894,19.044-5.276,34.171-6.367,47.549v0.045c-3.117,38.367,4.452,62.397,41.149,123.225
	C334.937,290.559,339.7,312.742,340.057,335.571z"/>
<path style="fill:#F5F5F5;" d="M340.057,335.571l-4.074,43.976c-12.366,65.959-48.507,125.663-48.507,125.663
	S272.138,512,251.681,512V0.01h3.428c14.447,0.178,47.483,4.597,35.729,84.836c-0.801,5.487-1.592,10.674-2.337,15.594
	c-2.894,19.044-5.276,34.171-6.367,47.549v0.045c-3.117,38.367,4.452,62.397,41.149,123.225
	C334.937,290.559,339.7,312.742,340.057,335.571z"/>
<path style="fill:#FF633E;" d="M288.5,100.44l-6.367,47.549v0.045h-60.917c-1.08-13.39-3.462-28.527-6.367-47.594
	C214.849,100.44,288.5,100.44,288.5,100.44z"/>
</svg>