<svg xmlns="http://www.w3.org/2000/svg" viewBox="0 0 48 48"><defs><style>.cls-1{fill:#dad7e5;}.cls-2{fill:#c6c3d8;}.cls-3{fill:#edebf2;}.cls-4{fill:#f6ccaf;}.cls-5{fill:#ffdec7;}.cls-6{fill:#edb996;}</style></defs><title>Beach Volleyball</title><g id="Beach_Volleyball" data-name="Beach Volleyball"><path class="cls-1" d="M10,26H5a1,1,0,0,1,0-2h5A1,1,0,0,1,10,26Z"/><path class="cls-1" d="M43,15H39a1,1,0,0,1,0-2h4A1,1,0,0,1,43,15Z"/><path class="cls-1" d="M43,26H38a1,1,0,0,1,0-2h5A1,1,0,0,1,43,26Z"/><path class="cls-1" d="M9,15H5a1,1,0,0,1,0-2H9A1,1,0,0,1,9,15Z"/><rect class="cls-2" x="1" y="9" width="4" height="30"/><path class="cls-1" d="M5,9c0,29.13-.1,28,0,28a2,2,0,0,1-2-2V9Z"/><rect class="cls-2" x="43" y="9" width="4" height="30"/><path class="cls-1" d="M47,9c0,29.13-.1,28,0,28a2,2,0,0,1-2-2V9Z"/><rect class="cls-1" x="9" y="13" width="30" height="4"/><path class="cls-3" d="M39,13v2H13a2,2,0,0,1-2-2Z"/><path class="cls-1" d="M38,16H10a1,1,0,0,0-1,1v8a1,1,0,0,0,1,1H38a1,1,0,0,0,1-1V17A1,1,0,0,0,38,16Zm-1,4H35V18h2ZM23,20H20V18h3Zm2-2h3v2H25Zm-7,2H15V18h3Zm0,2v2H15V22Zm2,0h3v2H20Zm5,0h3v2H25Zm5,0h3v2H30Zm0-2V18h3v2ZM13,18v2H11V18Zm-2,4h2v2H11Zm24,2V22h2v2Z"/><rect class="cls-4" x="1" y="39" width="46" height="8"/><path class="cls-5" d="M47,39v6H10a6,6,0,0,1-6-6Z"/><path class="cls-6" d="M9,42a1,1,0,0,0-2,0A1,1,0,0,0,9,42Z"/><path class="cls-6" d="M15,44a1,1,0,0,0-2,0A1,1,0,0,0,15,44Z"/><path class="cls-6" d="M22,42a1,1,0,0,0-2,0A1,1,0,0,0,22,42Z"/><path class="cls-6" d="M30,43a1,1,0,0,0-2,0A1,1,0,0,0,30,43Z"/><path class="cls-6" d="M37,44a1,1,0,0,0-2,0A1,1,0,0,0,37,44Z"/><path class="cls-6" d="M43,43a1,1,0,0,0-2,0A1,1,0,0,0,43,43Z"/><path class="cls-1" d="M37.28,7.28a4,4,0,1,1-5.56-5.56A4,4,0,0,1,37.28,7.28Z"/><path class="cls-3" d="M37.28,7.28a4,4,0,0,1-5.56-5.56A4,4,0,0,1,37.28,7.28Z"/><path class="cls-2" d="M33.29,7.12,32,8.44A3.66,3.66,0,0,1,30.56,7l1.32-1.31A1,1,0,0,1,33.29,7.12Z"/><path class="cls-2" d="M37.44,3c-1.21,1.2-1.46,1.61-2,1.61a1,1,0,0,1-.7-1.71L36,1.56A3.66,3.66,0,0,1,37.44,3Z"/></g></svg>