<svg xmlns="http://www.w3.org/2000/svg" viewBox="0 0 48 48"><defs><style>.cls-1{fill:#db5669;}.cls-2{fill:#f26674;}.cls-3{fill:#9fdbf3;}.cls-4{fill:#b2e5fb;}.cls-5{fill:#8bd1ea;}.cls-6{fill:#374f68;}.cls-7{fill:#425b72;}</style></defs><title>Bus</title><g id="Bus"><path class="cls-1" d="M47,22.11V35a2,2,0,0,1-2,2H43a3,3,0,0,0-.77-2A3,3,0,0,0,37,37H11a3,3,0,0,0-6,0H3a2,2,0,0,1-2-2V15a4,4,0,0,1,3-3.87c.67-.19-2.26-.13,34.74-.13a4,4,0,0,1,3.43,1.94C46.77,20.62,47,20.63,47,22.11Z"/><path class="cls-2" d="M47,22.11V35H27.87A23.87,23.87,0,0,1,4,11.13c.67-.19-2.26-.13,34.74-.13a4,4,0,0,1,3.43,1.94C46.77,20.62,47,20.63,47,22.11Z"/><path class="cls-3" d="M47,24v6H45a6,6,0,0,1-6-6Z"/><path class="cls-4" d="M47,24v4a6,6,0,0,1-5.65-4Z"/><rect class="cls-5" x="27" y="24" width="6" height="13"/><path class="cls-3" d="M31,28v9H27V26h2A2,2,0,0,1,31,28Z"/><rect class="cls-3" x="1" y="24" width="22" height="6"/><path class="cls-4" d="M23,24v4H8a4,4,0,0,1-4-4Z"/><path class="cls-3" d="M42,20H1V15H39Z"/><path class="cls-4" d="M40.8,18H7a3,3,0,0,1-3-3c0-.1-1,0,35,0Z"/><path class="cls-6" d="M43,37a3,3,0,1,1-4.56-2.56A3,3,0,0,1,43,37Z"/><path class="cls-7" d="M42.56,38.56a3,3,0,0,1-4.12-4.12A3,3,0,0,1,42.56,38.56Z"/><path class="cls-6" d="M11,37a3,3,0,1,1-4.56-2.56A3,3,0,0,1,11,37Z"/><path class="cls-7" d="M10.56,38.56a3,3,0,0,1-4.12-4.12A3,3,0,0,1,10.56,38.56Z"/></g></svg>