<svg xmlns="http://www.w3.org/2000/svg" viewBox="0 0 48 48"><defs><style>.cls-1{fill:#f16f39;}.cls-2{fill:#f8834b;}.cls-3{fill:#fc6;}.cls-4{fill:#ffde76;}</style></defs><title>Flip Flops</title><g id="Flip_Flops" data-name="Flip Flops"><path class="cls-1" d="M47,14,45.53,36a8.55,8.55,0,0,1-17.06,0L27,14a10,10,0,0,1,20,0Z"/><path class="cls-2" d="M37,20.51l8.72,12.6c-.21,3.18-.06,5.68-2.58,8.29A8.55,8.55,0,0,1,31.47,34l-.34-5Z"/><path class="cls-2" d="M47,14c-.24,3.61-.46,6.81-1.06,15.91L37,17l-6.08,8.78c-.09-1.37-.53-8-.92-13.78a9.94,9.94,0,0,1,3-7.18A10,10,0,0,1,47,14Z"/><path class="cls-3" d="M46.33,24l-.39,5.87L37,17,28.06,29.91,27.67,24C35.83,12.29,35.61,12,37,12S37.82,11.78,46.33,24Z"/><path class="cls-4" d="M36,13V9a1,1,0,0,1,2,0v4A1,1,0,0,1,36,13Z"/><path class="cls-3" d="M46.33,24c-.23,3.42-.14,2.05-.39,5.87L37,17,28.06,29.91,27.67,24C35.84,12.47,35.49,12,37,12S37.92,12.13,46.33,24Z"/><path class="cls-4" d="M46.33,24l-.19,2.84L37,15l-4.57,6.61a1,1,0,0,1-1.82-.51l-.08-1.18,4.92-7.09a1.86,1.86,0,0,1,3.1,0C43.86,20.48,46.14,23.78,46.33,24Z"/><path class="cls-1" d="M21,14,19.53,36A8.55,8.55,0,0,1,2.47,36L1,14a10,10,0,0,1,20,0Z"/><path class="cls-2" d="M11,20.51l8.72,12.6c-.21,3.18-.06,5.68-2.58,8.29A8.55,8.55,0,0,1,5.47,34l-.34-5Z"/><path class="cls-2" d="M21,14c-.24,3.61-.46,6.81-1.06,15.91L11,17,4.92,25.78c-.09-1.37-.53-8-.92-13.78A9.94,9.94,0,0,1,7.05,4.82,10,10,0,0,1,21,14Z"/><path class="cls-3" d="M20.33,24l-.39,5.87L11,17,2.06,29.91,1.67,24C9.83,12.29,9.61,12,11,12S11.82,11.78,20.33,24Z"/><path class="cls-4" d="M10,13V9a1,1,0,0,1,2,0v4A1,1,0,0,1,10,13Z"/><path class="cls-3" d="M20.33,24c-.23,3.42-.14,2.05-.39,5.87L11,17,2.06,29.91,1.67,24C9.84,12.47,9.49,12,11,12S11.92,12.13,20.33,24Z"/><path class="cls-4" d="M20.33,24l-.19,2.84L11,15,6.43,21.61a1,1,0,0,1-1.82-.51l-.08-1.18,4.92-7.09a1.86,1.86,0,0,1,3.1,0C17.86,20.48,20.14,23.78,20.33,24Z"/></g></svg>