<svg xmlns="http://www.w3.org/2000/svg" viewBox="0 0 48 48"><defs><style>.cls-1{fill:#df8761;}.cls-2{fill:#9dcc6b;}.cls-3{fill:#b5e08c;}.cls-4{fill:#a87e6b;}.cls-5{fill:#be927c;}.cls-6{fill:#f6ccaf;}.cls-7{fill:#9fdbf3;}.cls-8{fill:#b2e5fb;}.cls-9{fill:#ffdec7;}.cls-10{fill:#f29b75;}</style></defs><title>Island</title><g id="Island"><path class="cls-1" d="M25.24,11.15A2,2,0,0,0,24,13a2,2,0,0,0-1.24-1.85c-1.61-1.66-1.43-.14-1.27-2.47L22,9a2,2,0,1,0,4,0l.51-.27C26.67,11,26.85,9.49,25.24,11.15Z"/><path class="cls-2" d="M26.17,3.48A7.56,7.56,0,0,0,24,6.33a7.63,7.63,0,0,0-2.18-2.87c0-.11,0,.49.16-2.46h1.51A2.67,2.67,0,0,1,26.17,3.48Z"/><path class="cls-3" d="M26.17,3.48c-2.78,2.38-.35,2.32-3.17,0,0-.11,0,.49.16-2.46A2.7,2.7,0,0,1,26.17,3.48Z"/><path class="cls-1" d="M27.89,29.33a23.08,23.08,0,0,0-7.78,0l1-14.56A2,2,0,0,0,24,13a2,2,0,0,0,2.92,1.77C27.87,29.07,27.68,26.25,27.89,29.33Z"/><path class="cls-3" d="M38,14H32l-1-1-1,1H27.73a2,2,0,0,0-2.49-2.85C29.17,7.12,38,9.15,38,14Z"/><path class="cls-2" d="M31.71,12.71a1,1,0,0,0-1.42,0,1,1,0,0,1-.7.29c-2.43,0-1.16-.2-1.86,1H30l1-1,1,1h6a3.72,3.72,0,0,0-.14-1C31.91,13,32.1,13.1,31.71,12.71Z"/><path class="cls-3" d="M22.76,11.15A2,2,0,0,0,20.27,14H18l-1-1-1,1H10C10,9.12,18.85,7.14,22.76,11.15Z"/><path class="cls-2" d="M17.71,12.71a1,1,0,0,0-1.42,0c-.41.41-.19.29-6.15.29A3.72,3.72,0,0,0,10,14h6l1-1,1,1h2.27A2,2,0,0,1,20,13C18.36,13,18.08,13.08,17.71,12.71Z"/><path class="cls-3" d="M24,6.33a4.6,4.6,0,0,0-.24.68A2,2,0,0,0,22,9L18.69,7.2l-.42-1.35-1.35.42-5.3-2.8C13.77-.64,22,1.28,24,6.33Z"/><path class="cls-2" d="M19.43,4.85c-1.73.54-1.41.39-6.65-2.38A3.89,3.89,0,0,1,13.12,2a3.72,3.72,0,0,0-1.5,1.52l5.3,2.8,1.35-.42.42,1.35L22,9a2,2,0,0,1,.55-1.32C20.37,6.47,19.94,6.5,19.43,4.85Z"/><path class="cls-3" d="M36.43,3.47l-5.31,2.8-1.35-.42L29.35,7.2,26,9a2,2,0,0,0-2.22-2C25.16,1.72,34.09-1,36.43,3.47Z"/><path class="cls-2" d="M26.17,3.48A7.56,7.56,0,0,0,24,6.33a5.49,5.49,0,0,0-.5-1A8.48,8.48,0,0,1,26,2.83,2.78,2.78,0,0,1,26.17,3.48Z"/><path class="cls-2" d="M35.22,2.14a2.3,2.3,0,0,1,.21.33c-4,2.11-4.9,2.93-6.66,2.38-.49,1.57-1.7,2.07-3.26,2.85A2,2,0,0,1,26,9L29.35,7.2l.42-1.35,1.35.42,5.31-2.8A3.76,3.76,0,0,0,35.22,2.14Z"/><path class="cls-4" d="M26,9a2,2,0,1,1-2-2A2,2,0,0,1,26,9Z"/><path class="cls-5" d="M25.82,9.82a2,2,0,0,1-2.64-2.64A2,2,0,0,1,25.82,9.82Z"/><path class="cls-4" d="M24,13a2,2,0,1,1-1.24-1.85A2,2,0,0,1,24,13Z"/><path class="cls-5" d="M23.82,13.82a2,2,0,0,1-2.64-2.64A2,2,0,0,1,23.82,13.82Z"/><path class="cls-4" d="M28,13a2,2,0,1,1-2-2A2,2,0,0,1,28,13Z"/><path class="cls-5" d="M27.82,13.82a2,2,0,0,1-2.64-2.64A2,2,0,0,1,27.82,13.82Z"/><path class="cls-6" d="M39.81,38.29A5.84,5.84,0,0,0,38,39a7.2,7.2,0,0,1-7,0,7.2,7.2,0,0,0-7,0,7.2,7.2,0,0,1-7,0,7.2,7.2,0,0,0-7,0,5.91,5.91,0,0,1-2,.75c.23-7.65,10.93-12,19.88-10.42C33.09,30.22,38.67,33.26,39.81,38.29Z"/><path class="cls-7" d="M47,39.72V47H1V38.28A8.67,8.67,0,0,1,3,39a7.35,7.35,0,0,0,7,0,7.2,7.2,0,0,1,7,0,7.2,7.2,0,0,0,7,0,7.2,7.2,0,0,1,7,0,7.2,7.2,0,0,0,7,0,5.84,5.84,0,0,1,1.81-.71C43.18,37.51,44.78,39.23,47,39.72Z"/><path class="cls-8" d="M47,39.72V45H9.57A5.57,5.57,0,0,1,4,39.43,7.14,7.14,0,0,0,10,39a7.2,7.2,0,0,1,7,0,7.2,7.2,0,0,0,7,0,7.2,7.2,0,0,1,7,0,7.2,7.2,0,0,0,7,0,7.32,7.32,0,0,1,7,0A8.67,8.67,0,0,0,47,39.72Z"/><path class="cls-9" d="M38.71,35.64A7.64,7.64,0,0,1,31,36a7.2,7.2,0,0,0-7,0,7.2,7.2,0,0,1-7,0,7.54,7.54,0,0,0-5.49-.63A3.3,3.3,0,0,1,11,33.59C18,26.77,33.66,27.67,38.71,35.64Z"/><path class="cls-10" d="M27.73,27a5.38,5.38,0,0,1-5.37-5.72l.4-6.43A2,2,0,0,0,24,13a2,2,0,0,0,2.92,1.77Z"/></g></svg>