<svg xmlns="http://www.w3.org/2000/svg" viewBox="0 0 48 48"><defs><style>.cls-1{fill:#db5669;}.cls-2{fill:#dad7e5;}.cls-3{fill:#7c7d7d;}.cls-4{fill:#edebf2;}.cls-5{fill:#f26674;}</style></defs><title>lifebuoy</title><g id="lifebuoy"><path class="cls-1" d="M36,23c0,.21,0,.38,0,.24S36,23.12,36,23Zm0,1.68c0-.13,0,0,0,.24C36,24.88,36,24.8,36,24.72ZM34.92,29H46.45C51.32,7.24,25.31-7.9,8.78,6.78-7.07,20.74,2.94,47,24,47a22.88,22.88,0,0,0,17.22-7.78A22.87,22.87,0,0,1,29,44.81V34.92a12,12,0,1,1-6.63-22.81C32.37,10.93,38.84,21.15,34.92,29Z"/><path class="cls-2" d="M47,19V29H34.92a12.23,12.23,0,0,0,0-10Z"/><path class="cls-2" d="M29,1c0,13.44.06,12.08-.13,12a12.21,12.21,0,0,0-9.87.05V1Z"/><path class="cls-2" d="M13,28.87c.05.19,1.43.13-12,.13V19H13.08A12.15,12.15,0,0,0,13,28.87Z"/><path class="cls-2" d="M29,34.92V47H19c0-13.44-.06-12.08.13-12A12.24,12.24,0,0,0,29,34.92Z"/><path class="cls-3" d="M21,47H12.14a10.92,10.92,0,0,1-7.78-3.22C.18,39.59,1,35.87,1,27a1,1,0,0,1,2,0c0,9-.72,11.86,2.78,15.36A8.94,8.94,0,0,0,12.14,45H21A1,1,0,0,1,21,47Z"/><path class="cls-4" d="M13.08,19H3.19a23,23,0,0,0,.9,10h9A12.22,12.22,0,0,1,13.08,19ZM28.87,35a12.22,12.22,0,0,1-9.74,0c-.19,0-.13-1.09-.13,8.94a23,23,0,0,0,10,.9C29,33.76,29.06,34.92,28.87,35Z"/><path class="cls-5" d="M19,34.92v9A23,23,0,0,1,4.09,29h9A12.09,12.09,0,0,0,19,34.92Z"/><path class="cls-5" d="M19.58,12.84A12.06,12.06,0,0,0,13.08,19H3.19A22.87,22.87,0,0,1,8.78,6.78,22.83,22.83,0,0,1,19,1.55V13.08A5.89,5.89,0,0,1,19.58,12.84Z"/><path class="cls-5" d="M46.45,29a22.83,22.83,0,0,1-5.23,10.22A22.87,22.87,0,0,1,29,44.81V34.92A12.12,12.12,0,0,0,34.92,29Z"/><path class="cls-5" d="M34.92,19A12,12,0,0,0,29,13.08V1.56A22.88,22.88,0,0,1,46.46,19Z"/><path class="cls-4" d="M29,1.56c0,14.47.31,11.15-.94,11.15a12.08,12.08,0,0,0-9.06.37V1.55A23,23,0,0,1,29,1.56Z"/><path class="cls-4" d="M46.45,29H34.92a12,12,0,0,0,0-9.87c0-.19-1.37-.13,11.49-.13C47,22.68,47.33,25.06,46.45,29Z"/><path class="cls-3" d="M45,21V12.14A9.23,9.23,0,0,0,35.86,3H27a1,1,0,0,1,0-2h8.86a10.92,10.92,0,0,1,7.78,3.22C47.82,8.41,47,12.13,47,21A1,1,0,0,1,45,21Z"/><path class="cls-3" d="M35.86,47H27a1,1,0,0,1,0-2h8.86A9.23,9.23,0,0,0,45,35.86V27a1,1,0,0,1,2,0v8.86A11.23,11.23,0,0,1,35.86,47Z"/><path class="cls-3" d="M1,21V12.14A11.22,11.22,0,0,1,12.14,1H21a1,1,0,0,1,0,2C12,3,9.1,2.32,5.78,5.64,2.28,9.14,3,12,3,21A1,1,0,0,1,1,21Z"/></g></svg>