<svg xmlns="http://www.w3.org/2000/svg" viewBox="0 0 48 48"><defs><style>.cls-1{fill:#fc6;}.cls-2{fill:#ffde76;}.cls-3{fill:#dad7e5;}.cls-4{fill:#edebf2;}.cls-5{fill:#7c7d7d;}.cls-6{fill:#919191;}.cls-7{fill:#747575;}</style></defs><title>oxigen tank (for diving)</title><g id="oxigen_tank_for_diving_" data-name="oxigen tank (for diving)"><path class="cls-1" d="M41,20V47H27V20a7,7,0,0,1,14,0Z"/><path class="cls-2" d="M41,20c0,26.24-.1,25,0,25A11,11,0,0,1,30,34V18a6.89,6.89,0,0,1,1.78-4.64A7,7,0,0,1,41,20Z"/><path class="cls-3" d="M36,13.29a7,7,0,0,0-4,0V3a2,2,0,0,1,3.41-1.41C36.21,2.37,36,2,36,13.29Z"/><rect class="cls-3" x="36" y="5" width="4" height="4"/><rect class="cls-4" x="36" y="5" width="2" height="2"/><rect class="cls-3" x="16" y="5" width="16" height="4"/><rect class="cls-4" x="16" y="5" width="14" height="2"/><rect class="cls-5" x="40" y="4" width="6" height="6"/><path class="cls-6" d="M46,4V8a4,4,0,0,1-4-4Z"/><rect class="cls-5" x="27" y="21" width="14" height="6"/><path class="cls-6" d="M41,21v4H34a4,4,0,0,1-4-4Z"/><rect class="cls-5" x="27" y="35" width="14" height="6"/><path class="cls-6" d="M41,35v4H34a4,4,0,0,1-4-4Z"/><path class="cls-1" d="M21,20V47H7V20a7,7,0,1,1,14,0Z"/><path class="cls-2" d="M21,20c0,26.24-.1,25,0,25A11,11,0,0,1,10,34V18a7,7,0,0,1,1.77-4.64A7,7,0,0,1,21,20Z"/><path class="cls-3" d="M16,13.29a7,7,0,0,0-4,0V3a2,2,0,0,1,3.41-1.41C16.21,2.37,16,2,16,13.29Z"/><rect class="cls-3" x="8" y="5" width="4" height="4"/><rect class="cls-4" x="8" y="5" width="2" height="2"/><rect class="cls-5" x="2" y="4" width="6" height="6"/><path class="cls-6" d="M8,4V8A4,4,0,0,1,4,4Z"/><rect class="cls-5" x="7" y="21" width="14" height="6"/><path class="cls-6" d="M21,21v4H14a4,4,0,0,1-4-4Z"/><rect class="cls-5" x="7" y="35" width="14" height="6"/><path class="cls-6" d="M21,35v4H14a4,4,0,0,1-4-4Z"/><rect class="cls-5" x="21" y="21" width="6" height="6"/><rect class="cls-7" x="21" y="21" width="6" height="6"/><rect class="cls-5" x="21" y="21" width="4" height="4"/><rect class="cls-7" x="21" y="35" width="6" height="6"/><rect class="cls-5" x="21" y="35" width="4" height="4"/><path class="cls-4" d="M16,3c0,9.57-.1,9,0,9a2,2,0,0,1-2-2V1A2,2,0,0,1,16,3Z"/><path class="cls-4" d="M36,3c0,9.57-.1,9,0,9a2,2,0,0,1-2-2V1A2,2,0,0,1,36,3Z"/></g></svg>