<svg xmlns="http://www.w3.org/2000/svg" viewBox="0 0 48 48"><defs><style>.cls-1{fill:#919191;}.cls-2{fill:#7c7d7d;}.cls-3{fill:#b2e5fb;}.cls-4{fill:#9fdbf3;}.cls-5{fill:#dad7e5;}.cls-6{fill:#edebf2;}</style></defs><title>snorkel</title><g id="snorkel"><path class="cls-1" d="M45,5V33A12,12,0,0,1,33,45H27.46a4,4,0,0,0,0-4H33a8,8,0,0,0,8-8V5Z"/><path class="cls-2" d="M43,31V5H41V33a8,8,0,0,1-1.43,4.57A8,8,0,0,0,43,31Z"/><path class="cls-1" d="M29.15,33.16,38,30.79a4,4,0,0,0,3-3.86V17a4,4,0,0,0-4-4H9a4,4,0,0,0-4,4v9.93a4,4,0,0,0,3,3.86l8.88,2.37a4,4,0,0,0,4.61-2.08l.65-1.29a1,1,0,0,1,1.78,0l.65,1.29A4,4,0,0,0,29.15,33.16Z"/><path class="cls-2" d="M10,28.79a4,4,0,0,1-3-3.86c0-11-.12-10.5.36-11.57A4,4,0,0,0,5,17v9.93a4,4,0,0,0,3,3.86l8.88,2.37a4,4,0,0,0,4.68-2.22C19.69,31.77,18.86,31.16,10,28.79Z"/><path class="cls-3" d="M37,17V27l-9,2c-1.71-2.85-2.46-5-5-5s-3.19,2-5,5L9,27V17Z"/><path class="cls-4" d="M9,17v2H33a2,2,0,0,1,2,2v6.44L37,27V17Z"/><rect class="cls-5" x="1" y="17" width="4" height="8"/><rect class="cls-6" x="1" y="17" width="2" height="6"/><rect class="cls-5" x="41" y="17" width="4" height="8"/><path class="cls-6" d="M45,17v6a4,4,0,0,1-4-4V17Z"/><path class="cls-5" d="M27.46,45A4,4,0,1,1,24,39,4,4,0,0,1,27.46,45Z"/><path class="cls-6" d="M27.92,43.72c-2.68,2.94-7.69.4-6.85-3.44C23.91,37.2,28.85,40.16,27.92,43.72Z"/><path class="cls-2" d="M25,43a1,1,0,0,0-2,0A1,1,0,0,0,25,43Z"/><path class="cls-5" d="M46.41,4.41c-.82.84-1.7.59-5.41.59a2,2,0,0,1-1.41-3.41C40.43.75,41.21,1,45,1A2,2,0,0,1,46.41,4.41Z"/><path class="cls-6" d="M47,3c0,1.28-.21,1-5,1a2,2,0,0,1-2-2c0-1.28.21-1,5-1A2,2,0,0,1,47,3Z"/></g></svg>