<svg xmlns="http://www.w3.org/2000/svg" viewBox="0 0 48 48"><defs><style>.cls-1{fill:#db5669;}.cls-2{fill:#c4455e;}.cls-3{fill:#f6ccaf;}</style></defs><title>starfish</title><g id="starfish"><path class="cls-1" d="M46.76,19.23c-.06,3.15,1.28,1.89-8.51,6.52a6,6,0,0,0-2.7,8.31c5.65,10.31,5.79,10,5.33,11.25a2.09,2.09,0,0,1-1.51,1.31c-1.3.35-1,.22-11.61-8.32a6,6,0,0,0-7.52,0C9.49,47,10,46.93,8.63,46.62a2.1,2.1,0,0,1-1.39-3.06l5.21-9.5a6,6,0,0,0-2.7-8.31c-8.2-3.88-8-3.64-8.47-4.47A2.21,2.21,0,0,1,3.21,18H14.12A6,6,0,0,0,20,13.22C22.44,1.43,22.16,1.86,23,1.3a1.82,1.82,0,0,1,2,0c.85.57.62.41,3,11.92A6,6,0,0,0,33.88,18H44.79A2.18,2.18,0,0,1,46.76,19.23Z"/><path class="cls-1" d="M46.76,19.23c-.06,3.15,1.28,1.89-8.51,6.52a6,6,0,0,0-2.7,8.31c5.65,10.31,5.79,10,5.33,11.25a2.09,2.09,0,0,1-1.51,1.31c-1.3.35-1,.22-11.61-8.32a6,6,0,0,0-7.52,0C9.49,47,10,46.93,8.63,46.62a2.1,2.1,0,0,1-1.39-3.06l5.21-9.5a6,6,0,0,0-2.7-8.31c-8.2-3.88-8-3.64-8.47-4.47A2.21,2.21,0,0,1,3.21,18H14.12A6,6,0,0,0,20,13.22C22.44,1.43,22.16,1.86,23,1.3a1.82,1.82,0,0,1,2,0c.85.57.62.41,3,11.92A6,6,0,0,0,33.88,18H44.79A2.18,2.18,0,0,1,46.76,19.23Z"/><path class="cls-1" d="M46.76,19.23c-.06,3.15,1.28,1.89-8.51,6.52a6,6,0,0,0-2.7,8.31c5.65,10.31,5.79,10,5.33,11.25a2.09,2.09,0,0,1-1.51,1.31c-1.3.35-1,.22-11.61-8.32a6,6,0,0,0-7.52,0C9.49,47,10,46.93,8.63,46.62a2.1,2.1,0,0,1-1.39-3.06l5.21-9.5a6,6,0,0,0-2.7-8.31c-8.2-3.88-8-3.64-8.47-4.47A2.21,2.21,0,0,1,3.21,18H14.12A6,6,0,0,0,20,13.22C22.44,1.43,22.16,1.86,23,1.3a1.82,1.82,0,0,1,2,0c.85.57.62.41,3,11.92A6,6,0,0,0,33.88,18H44.79A2.18,2.18,0,0,1,46.76,19.23Z"/><path class="cls-2" d="M12,42.57c0-.78-.12-.32,5.47-10.51a6,6,0,0,0-2.7-8.31L7.27,20.21a2.21,2.21,0,0,1-1.27-2c0-.3.53-.21-2.79-.21a2.21,2.21,0,0,0-1.93,3.28c.46.83.26.58,8.47,4.47a6,6,0,0,1,2.7,8.31c-5.66,10.31-5.8,10-5.33,11.25a2.09,2.09,0,0,0,1.51,1.31c1.24.29,1.7-.35,4.21-2.37A2.08,2.08,0,0,1,12,42.57Z"/><path class="cls-3" d="M23,1.3V16a1,1,0,0,0,2,0V1.3A1.82,1.82,0,0,0,23,1.3Z"/><path class="cls-3" d="M24,19a1,1,0,0,0,0,2A1,1,0,0,0,24,19Z"/><path class="cls-3" d="M19,23a1,1,0,0,0,0,2A1,1,0,0,0,19,23Z"/><path class="cls-3" d="M21,29a1,1,0,0,0,0,2A1,1,0,0,0,21,29Z"/><path class="cls-3" d="M30,24a1,1,0,0,0-2,0A1,1,0,0,0,30,24Z"/><path class="cls-3" d="M24,24a1,1,0,0,0,0,2A1,1,0,0,0,24,24Z"/><path class="cls-3" d="M27,29a1,1,0,0,0,0,2A1,1,0,0,0,27,29Z"/><path class="cls-3" d="M17.24,33.35l-10.12,12a2.09,2.09,0,0,0,1.51,1.31l10.13-12A1,1,0,0,0,17.24,33.35Z"/><path class="cls-3" d="M29.24,34.65l10.13,12a2.09,2.09,0,0,0,1.51-1.31l-10.12-12A1,1,0,0,0,29.24,34.65Z"/><path class="cls-3" d="M15,24a1,1,0,0,0,.2-2l-14-2.79a2.14,2.14,0,0,0,0,2.05C15.65,24.15,14.85,24,15,24Z"/><path class="cls-3" d="M32.8,22a1,1,0,0,0,.2,2c.15,0-.6.14,13.72-2.72l0-2.05Z"/></g></svg>