<svg xmlns="http://www.w3.org/2000/svg" viewBox="0 0 48 48"><defs><style>.cls-1{fill:#df8761;}.cls-2{fill:#a87e6b;}.cls-3{fill:#f29b75;}.cls-4{fill:#dad7e5;}.cls-5{fill:#edebf2;}.cls-6{fill:#be927c;}</style></defs><title>steership</title><g id="steership"><path class="cls-1" d="M42.79,21.21C40.36,4.49,18.72-.85,8.74,12.69s1.45,32.65,18,30.1A19,19,0,0,0,42.79,21.21ZM24,39A15,15,0,0,1,9.22,26.59C7,13.19,21.92,4.14,32.61,11.73,44.55,20,38.67,39,24,39Z"/><path class="cls-2" d="M38.78,26.59l-9.17-.46a6,6,0,0,0,0-4.26l9.17-.46A15.27,15.27,0,0,1,38.78,26.59Z"/><path class="cls-2" d="M36.27,32.61a14.47,14.47,0,0,1-3.66,3.66l-6.15-6.8a6,6,0,0,0,3-3Z"/><path class="cls-2" d="M26.59,38.78a15.27,15.27,0,0,1-5.18,0l.46-9.17a6,6,0,0,0,4.26,0Z"/><path class="cls-2" d="M21.54,29.47l-6.15,6.8a14.47,14.47,0,0,1-3.66-3.66l6.8-6.15A6,6,0,0,0,21.54,29.47Z"/><path class="cls-2" d="M18.39,26.13l-9.17.46a15.27,15.27,0,0,1,0-5.18l9.17.46A6,6,0,0,0,18.39,26.13Z"/><path class="cls-2" d="M21.54,18.53a6,6,0,0,0-3,3l-6.8-6.15a14.47,14.47,0,0,1,3.66-3.66Z"/><path class="cls-2" d="M26.59,9.22c-.45,9-.37,7.42-.46,9.17a6,6,0,0,0-4.26,0l-.46-9.17A15.27,15.27,0,0,1,26.59,9.22Z"/><path class="cls-2" d="M36.27,15.39l-6.8,6.15a6,6,0,0,0-3-3l6.15-6.8A14.47,14.47,0,0,1,36.27,15.39Z"/><path class="cls-1" d="M30,24a6,6,0,1,1-8.13-5.61A6,6,0,0,1,30,24Z"/><path class="cls-3" d="M29.47,26.46a1.4,1.4,0,0,1-1,1,6,6,0,0,1-7.58-8.59A6,6,0,0,1,29.47,26.46Z"/><path class="cls-4" d="M26,24a2,2,0,1,1-2.82-1.82A2,2,0,0,1,26,24Z"/><path class="cls-5" d="M25.82,24.82a2,2,0,0,1-2.64-2.64A2,2,0,0,1,25.82,24.82Z"/><path class="cls-2" d="M26.85,3.86c0,.2,0,0-.06,1.35a18.64,18.64,0,0,0-5.58,0L21.15,4a2.85,2.85,0,1,1,5.7-.14Z"/><path class="cls-2" d="M41.1,9.76c0,1.48-1,2.14-1.84,2.93a19,19,0,0,0-3.95-3.95l.82-.9A2.86,2.86,0,0,1,41.1,9.76Z"/><path class="cls-2" d="M47,24a2.86,2.86,0,0,1-3,2.85l-1.21-.06a18.64,18.64,0,0,0,0-5.58L44,21.15A2.86,2.86,0,0,1,47,24Z"/><path class="cls-2" d="M26.85,44a2.85,2.85,0,1,1-5.7.14c0-.2,0,0,.06-1.35a18.63,18.63,0,0,0,5.58,0Z"/><path class="cls-2" d="M5.21,26.79,4,26.85a2.85,2.85,0,1,1-.14-5.7l1.35.06A18.64,18.64,0,0,0,5.21,26.79Z"/><path class="cls-2" d="M12.69,8.74a19,19,0,0,0-3.95,3.95l-.9-.82a2.86,2.86,0,0,1,1.92-5C11.24,6.9,11.9,7.87,12.69,8.74Z"/><path class="cls-2" d="M41.1,38.24a2.86,2.86,0,0,1-5,1.92l-.82-.9a19,19,0,0,0,3.95-3.95C40.22,36.19,41.1,36.8,41.1,38.24Z"/><path class="cls-2" d="M12.69,39.26c-.88,1-1.49,1.84-2.93,1.84a2.86,2.86,0,0,1-1.92-5l.9-.82A19,19,0,0,0,12.69,39.26Z"/><path class="cls-3" d="M42.79,21.21C39.69-.1,7-.91,7,22,7,38.35,26.24,46.9,38.42,36.37A19,19,0,0,0,42.79,21.21ZM24,39A15,15,0,0,1,9.22,26.59C7,13.19,21.92,4.14,32.61,11.73,44.55,20,38.67,39,24,39Z"/><path class="cls-6" d="M24,9a15.79,15.79,0,0,1,2.59.22L26.2,17h0A2.19,2.19,0,0,1,24,14.8Z"/><path class="cls-6" d="M26.85,3.86c0,.2,0,0-.06,1.35A18.32,18.32,0,0,0,24,5V1A2.86,2.86,0,0,1,26.85,3.86Z"/><path class="cls-6" d="M13.39,13.39a16.31,16.31,0,0,1,2-1.67l5.23,5.77h0a2.21,2.21,0,0,1-3.12,0Z"/><path class="cls-6" d="M11.77,7.74c.14.14,0,0,.92,1a19.16,19.16,0,0,0-2.13,1.82L7.74,7.74A2.85,2.85,0,0,1,11.77,7.74Z"/><path class="cls-6" d="M34.61,13.39a16.31,16.31,0,0,0-2-1.67l-5.23,5.77h0a2.21,2.21,0,0,0,3.12,0Z"/><path class="cls-6" d="M36.23,7.74c-.14.14,0,0-.92,1a19.16,19.16,0,0,1,2.13,1.82l2.82-2.82A2.85,2.85,0,0,0,36.23,7.74Z"/><path class="cls-6" d="M39,24a15.79,15.79,0,0,0-.22-2.59L31,21.8h0A2.19,2.19,0,0,0,33.2,24Z"/><path class="cls-6" d="M44.14,21.15l-1.35.06A18.32,18.32,0,0,1,43,24h4A2.86,2.86,0,0,0,44.14,21.15Z"/><path class="cls-6" d="M34.61,34.61a16.31,16.31,0,0,0,1.67-2l-5.77-5.23h0a2.21,2.21,0,0,0,0,3.12Z"/><path class="cls-6" d="M40.26,36.23c-.14-.14,0,0-1-.92a19.16,19.16,0,0,1-1.82,2.13l2.82,2.82A2.85,2.85,0,0,0,40.26,36.23Z"/><path class="cls-6" d="M24,39a15.79,15.79,0,0,0,2.59-.22L26.2,31h0A2.19,2.19,0,0,0,24,33.2Z"/><path class="cls-6" d="M26.85,44.14c0-.2,0,0-.06-1.35A18.32,18.32,0,0,1,24,43v4A2.86,2.86,0,0,0,26.85,44.14Z"/><path class="cls-6" d="M13.39,34.61a16.31,16.31,0,0,0,2,1.67l5.23-5.77h0a2.21,2.21,0,0,0-3.12,0Z"/><path class="cls-6" d="M11.77,40.26c.14-.14,0,0,.92-1a19.16,19.16,0,0,1-2.13-1.82L7.74,40.26A2.85,2.85,0,0,0,11.77,40.26Z"/><path class="cls-6" d="M9,24a15.79,15.79,0,0,0,.22,2.59L17,26.2h0A2.19,2.19,0,0,0,14.8,24Z"/><path class="cls-6" d="M3.86,26.85l1.35-.06A18.32,18.32,0,0,1,5,24H1A2.86,2.86,0,0,0,3.86,26.85Z"/></g></svg>