<svg id="Sunbed" xmlns="http://www.w3.org/2000/svg" viewBox="0 0 48 48"><defs><style>.cls-1{fill:#dad7e5;}.cls-2{fill:#df8761;}.cls-3{fill:#f29b75;}.cls-4{fill:#cc734c;}.cls-5{fill:#f6ccaf;}.cls-6{fill:#ffdec7;}.cls-7{fill:#fc6;}</style></defs><title>Sunbed</title><path class="cls-1" d="M1,38.78l2-9a1,1,0,0,1,2,.44l-2,9A1,1,0,0,1,1,38.78Z"/><rect class="cls-2" x="1" y="39" width="46" height="4"/><path class="cls-3" d="M47,39v2H6a2,2,0,0,1-2-2Z"/><rect class="cls-4" x="1" y="43" width="6" height="4"/><path class="cls-2" d="M7,44v3H2a3,3,0,0,1,3-3Z"/><rect class="cls-4" x="41" y="43" width="6" height="4"/><path class="cls-2" d="M47,44v3H42a3,3,0,0,1,3-3Z"/><path class="cls-2" d="M18,39H12L3.5,30.5a2.12,2.12,0,0,1,3-3Z"/><path class="cls-3" d="M16,37a9.66,9.66,0,0,1-6.83-2.83c-6.36-6.36-5.81-5.75-6-6.17a2.19,2.19,0,0,1,3.52-.35Z"/><path class="cls-5" d="M44.5,39H18C6.11,27.11,6.18,27.6,6.18,26A2.83,2.83,0,0,1,11,24L21,34c25,0,24.23-.31,25.27.73A2.51,2.51,0,0,1,44.5,39Z"/><path class="cls-6" d="M47,36.5a2.5,2.5,0,0,1-1.5.5H22.31a8,8,0,0,1-5.65-2.34c-9.38-9.38-9.57-9.12-9.48-10.82A2.85,2.85,0,0,1,11,24L21,34c25,0,24.23-.31,25.27.73A2.5,2.5,0,0,1,47,36.5Z"/><circle class="cls-7" cx="37" cy="11" r="4"/><path class="cls-7" d="M36,4V2a1,1,0,0,1,2,0V4A1,1,0,0,1,36,4Z"/><path class="cls-7" d="M46,12H44a1,1,0,0,1,0-2h2A1,1,0,0,1,46,12Z"/><path class="cls-7" d="M36,20V18a1,1,0,0,1,2,0v2A1,1,0,0,1,36,20Z"/><path class="cls-7" d="M30,12H28a1,1,0,0,1,0-2h2A1,1,0,0,1,30,12Z"/><path class="cls-7" d="M32.05,7.05c-.6,0-.83-.41-2.12-1.71a1,1,0,0,1,1.41-1.41l1.42,1.41A1,1,0,0,1,32.05,7.05Z"/><path class="cls-7" d="M42,7.05a1,1,0,0,1-.71-1.71l1.42-1.41a1,1,0,0,1,1.41,1.41C42.53,6.88,42.48,7.05,42,7.05Z"/><path class="cls-7" d="M43.36,18.36c-.6,0-.82-.41-2.12-1.7a1,1,0,0,1,1.42-1.42l1.41,1.42A1,1,0,0,1,43.36,18.36Z"/><path class="cls-7" d="M30.64,18.36a1,1,0,0,1-.71-1.7l1.41-1.42a1,1,0,0,1,1.42,1.42C31.22,18.19,31.16,18.36,30.64,18.36Z"/></svg>