<svg xmlns="http://www.w3.org/2000/svg" viewBox="0 0 48 48"><defs><style>.cls-1{fill:#7c7d7d;}.cls-2{fill:#dad7e5;}.cls-3{fill:#edebf2;}.cls-4{fill:#c6c3d8;}.cls-5{fill:#fc6;}.cls-6{fill:#6fabe6;}.cls-7{fill:#9fdbf3;}.cls-8{fill:#b2e5fb;}.cls-9{fill:#ffde76;}.cls-10{fill:#82bcf4;}</style></defs><title>swimming pool</title><g id="swimming_pool" data-name="swimming pool"><path class="cls-1" d="M37,24V9a1,1,0,0,1,2,0V24A1,1,0,0,1,37,24Z"/><path class="cls-2" d="M47,28V39.72A8.67,8.67,0,0,1,45,39a7.2,7.2,0,0,0-7,0,7.2,7.2,0,0,1-7,0,7.2,7.2,0,0,0-7,0,7.2,7.2,0,0,1-7,0,7.2,7.2,0,0,0-7,0,7.2,7.2,0,0,1-7,0,8.67,8.67,0,0,0-2-.72V28Z"/><path class="cls-3" d="M4.2,30H7v5.13A9.91,9.91,0,0,1,4.2,30Z"/><path class="cls-3" d="M19,30v7.72A8.67,8.67,0,0,1,17,37a7.29,7.29,0,0,0-7,0c-.11.09-.08.2-1-.35V30Z"/><path class="cls-3" d="M47,30v7.72A8.67,8.67,0,0,1,45,37a7.2,7.2,0,0,0-7,0,7.2,7.2,0,0,1-7,0,7.32,7.32,0,0,0-7,0,6.72,6.72,0,0,1-3,.88V30Z"/><rect class="cls-4" x="1" y="24" width="46" height="4"/><path class="cls-2" d="M7,24v2H6a2,2,0,0,1-2-2Z"/><rect class="cls-2" x="9" y="24" width="10" height="2"/><rect class="cls-2" x="21" y="24" width="26" height="2"/><path class="cls-5" d="M37.62,1A12.92,12.92,0,0,0,34,10H29A9,9,0,0,1,37.62,1Z"/><path class="cls-6" d="M42,10H34a13,13,0,0,1,3.62-9c.17,0,.59,0,.76,0A12.92,12.92,0,0,1,42,10Z"/><path class="cls-5" d="M47,10H42a12.92,12.92,0,0,0-3.62-9A9,9,0,0,1,47,10Z"/><path class="cls-1" d="M11,22V42a1,1,0,0,1-2,0V22a1,1,0,0,0-2,0v2H5V22a3,3,0,0,1,6,0Z"/><path class="cls-1" d="M23,22V42a1,1,0,0,1-2,0V22a1,1,0,0,0-2,0v2H17V22a3,3,0,0,1,6,0Z"/><path class="cls-1" d="M22,34H10a1,1,0,0,1,0-2H22A1,1,0,0,1,22,34Z"/><path class="cls-7" d="M47,39.72V47H1V38.28A8.67,8.67,0,0,1,3,39a7.33,7.33,0,0,0,7,0,7.34,7.34,0,0,1,7,0,7.2,7.2,0,0,0,7,0,7.2,7.2,0,0,1,7,0,7.2,7.2,0,0,0,7,0,7.2,7.2,0,0,1,7,0A8.67,8.67,0,0,0,47,39.72Z"/><path class="cls-8" d="M47,39.72V45H9.57A5.57,5.57,0,0,1,4,39.43a7.18,7.18,0,0,0,6.19-.54A7.33,7.33,0,0,1,17,39a7.2,7.2,0,0,0,7,0,7.2,7.2,0,0,1,7,0,7.2,7.2,0,0,0,7,0,7.2,7.2,0,0,1,7,0A8.67,8.67,0,0,0,47,39.72Z"/><path class="cls-9" d="M46.78,8H41.85a13,13,0,0,0-3.47-7A9,9,0,0,1,46.78,8Z"/><path class="cls-9" d="M37.62,1a12.79,12.79,0,0,0-3.33,6.31,4.68,4.68,0,0,1-2.29-4A9,9,0,0,1,37.62,1Z"/><path class="cls-10" d="M41.85,8c-5.29,0-6.08.21-7.56-.68A12.79,12.79,0,0,1,37.62,1c.17,0,.59,0,.76,0A13,13,0,0,1,41.85,8Z"/></g></svg>