<svg xmlns="http://www.w3.org/2000/svg" viewBox="0 0 48 48"><defs><style>.cls-1{fill:#f26674;}.cls-2{fill:#db5669;}.cls-3{fill:#c4455e;}</style></defs><title>swimsuit</title><g id="swimsuit"><path class="cls-1" d="M35,39l-5.88,5.88a7.24,7.24,0,0,1-10.24,0L13,39c4.33-10.83,4.35-8.95,1-19-2.92-2.2-2.31-6.53-.34-9.5.47-.7.34.86.34-9.5h3l1.85,6.17a5.38,5.38,0,0,0,10.3,0L31,1h3c0,10.31-.14,8.8.34,9.5,2,3,2.58,7.3-.34,9.5C30.68,30,30.66,28.15,35,39Z"/><path class="cls-2" d="M29.43,44.57a7.26,7.26,0,0,1-10.55.31L13,39c4.31-10.78,4.32-9,1-19-2.92-2.2-2.31-6.53-.34-9.5.47-.7.34.86.34-9.5h3V8c-2.23,3.28-3.09,7.68,0,10,3.33,10,3.32,8.19-1,19l5.88,5.88A7.21,7.21,0,0,0,29.43,44.57Z"/><path class="cls-3" d="M14.87,22.61,14,20c.74,0,1.15,1,3,1C18.49,21,18.74,24.11,14.87,22.61Z"/><path class="cls-2" d="M34,20l-.87,2.61A5.87,5.87,0,0,1,31,23a1,1,0,0,1,0-2C32.79,21,33.3,20,34,20Z"/></g></svg>