<svg xmlns="http://www.w3.org/2000/svg" viewBox="0 0 48 48"><defs><style>.cls-1{fill:#6fabe6;}.cls-2{fill:#82bcf4;}.cls-3{fill:#374f68;}.cls-4{fill:#dad7e5;}</style></defs><title>time zone</title><g id="time_zone" data-name="time zone"><path class="cls-1" d="M13,24a6,6,0,1,1-9.12-5.12A6,6,0,0,1,13,24Z"/><path class="cls-2" d="M12.12,27.12c-5.3,3.26-11.53-2.9-8.24-8.24C9.2,15.6,15.39,21.81,12.12,27.12Z"/><path class="cls-3" d="M8,16H6a1,1,0,0,1,0-2H8A1,1,0,0,1,8,16Z"/><path class="cls-3" d="M13,19c-.53,0-.67-.26-1.71-1.29a1,1,0,0,1,1.42-1.42l1,1A1,1,0,0,1,13,19Z"/><path class="cls-4" d="M6,26a1,1,0,0,1-.71-1.71l.71-.7V21a1,1,0,0,1,2,0c0,3.26.09,3.32-.29,3.71C6.65,25.77,6.52,26,6,26Z"/><path class="cls-1" d="M29,24a6,6,0,1,1-9.12-5.12A6,6,0,0,1,29,24Z"/><path class="cls-2" d="M28.12,27.12c-5.3,3.26-11.53-2.9-8.24-8.24C25.2,15.6,31.39,21.81,28.12,27.12Z"/><path class="cls-3" d="M24,16H22a1,1,0,0,1,0-2h2A1,1,0,0,1,24,16Z"/><path class="cls-3" d="M29,19c-.53,0-.67-.26-1.71-1.29a1,1,0,0,1,1.42-1.42l1,1A1,1,0,0,1,29,19Z"/><path class="cls-4" d="M24,26c-.53,0-.67-.26-1.71-1.29C21.9,24.32,22,24.19,22,21a1,1,0,0,1,2,0v2.59l.71.7A1,1,0,0,1,24,26Z"/><path class="cls-1" d="M46,24a6,6,0,1,1-9.12-5.12A6,6,0,0,1,46,24Z"/><path class="cls-2" d="M45.12,27.12c-5.3,3.26-11.53-2.9-8.24-8.24C42.2,15.6,48.39,21.81,45.12,27.12Z"/><path class="cls-3" d="M41,16H39a1,1,0,0,1,0-2h2A1,1,0,0,1,41,16Z"/><path class="cls-3" d="M46,19c-.53,0-.67-.26-1.71-1.29a1,1,0,0,1,1.42-1.42l1,1A1,1,0,0,1,46,19Z"/><path class="cls-4" d="M40,25H38a1,1,0,0,1,0-2h1V21a1,1,0,0,1,2,0v3A1,1,0,0,1,40,25Z"/><path class="cls-3" d="M10,34H4a1,1,0,0,1,0-2h6A1,1,0,0,1,10,34Z"/><path class="cls-3" d="M26,34H20a1,1,0,0,1,0-2h6A1,1,0,0,1,26,34Z"/><path class="cls-3" d="M43,34H37a1,1,0,0,1,0-2h6A1,1,0,0,1,43,34Z"/></g></svg>