<?xml version="1.0" encoding="UTF-8"?>
<!DOCTYPE svg PUBLIC "-//W3C//DTD SVG 1.1//EN" "http://www.w3.org/Graphics/SVG/1.1/DTD/svg11.dtd">
<!-- Creator: CorelDRAW -->
<svg xmlns="http://www.w3.org/2000/svg" xml:space="preserve" width="6.82666in" height="6.82666in" style="shape-rendering:geometricPrecision; text-rendering:geometricPrecision; image-rendering:optimizeQuality; fill-rule:evenodd; clip-rule:evenodd"
viewBox="0 0 6.82666 6.82666"
 xmlns:xlink="http://www.w3.org/1999/xlink">
 <defs>
  <style type="text/css">
   <![CDATA[
    .fil1 {fill:none}
    .fil0 {fill:#464646}
    .fil4 {fill:darkgray}
    .fil2 {fill:#6C6C6C;fill-rule:nonzero}
    .fil5 {fill:#8C8D8D;fill-rule:nonzero}
    .fil3 {fill:#EFEFEF;fill-rule:nonzero}
   ]]>
  </style>
 </defs>
 <g id="Layer_x0020_1">
  <metadata id="CorelCorpID_0Corel-Layer"/>
  <path class="fil0" d="M4.01524 3.67454l1.85553 1.85553c0.0611614,0.0611654 0.0611614,0.160378 0,0.221543 -0.0611654,0.0611614 -0.160378,0.0611614 -0.221543,0l-1.85553 -1.85553c-0.0611614,-0.0611654 -0.0611614,-0.160378 0,-0.221543 0.0611654,-0.0611614 0.160378,-0.0611614 0.221543,0z"/>
  <g id="_274174304">
   <rect id="_274174616" class="fil1" width="6.82666" height="6.82666"/>
   <rect id="_274175048" class="fil1" x="0.853331" y="0.853331" width="5.12" height="5.12"/>
  </g>
  <path class="fil2" d="M2.75699 1.06666c0.440646,0 0.839587,0.178618 1.12837,0.467398 0.28878,0.288783 0.467398,0.687728 0.467398,1.12837 0,0.440646 -0.178618,0.839587 -0.467398,1.12837 -0.288783,0.28878 -0.687724,0.467398 -1.12837,0.467398 -0.440646,0 -0.839591,-0.178618 -1.12837,-0.467398 -0.28878,-0.288783 -0.467398,-0.687724 -0.467398,-1.12837 0,-0.44065 0.178618,-0.839591 0.467398,-1.12837 0.288783,-0.28878 0.687724,-0.467398 1.12837,-0.467398z"/>
  <path class="fil3" d="M3.73452 1.68489c-0.250161,-0.250165 -0.595776,-0.404898 -0.977535,-0.404898 -0.381764,0 -0.727378,0.154732 -0.977539,0.404898 -0.250165,0.250161 -0.404898,0.595776 -0.404898,0.977539 0,0.38176 0.154732,0.727374 0.404898,0.977535 0.250161,0.250165 0.59578,0.404902 0.977539,0.404902 0.38176,0 0.727374,-0.154736 0.977535,-0.404902 0.250165,-0.250161 0.404902,-0.595776 0.404902,-0.977535 0,-0.38176 -0.154736,-0.727378 -0.404902,-0.977539z"/>
  <g id="_274172936">
   <polygon id="_274172528" class="fil4" points="2.01841,2.36245 2.68595,1.76846 3.35349,2.38604 3.35349,3.25957 2.01841,3.25957 "/>
   <polygon id="_274172504" class="fil5" points="1.85191,2.47828 2.65515,1.73516 2.68595,1.70666 2.71676,1.73516 3.52,2.47828 3.45839,2.54488 2.68595,1.83026 1.91352,2.54488 "/>
  </g>
 </g>
</svg>
