<?xml version="1.0" encoding="UTF-8"?>
<!DOCTYPE svg PUBLIC "-//W3C//DTD SVG 1.1//EN" "http://www.w3.org/Graphics/SVG/1.1/DTD/svg11.dtd">
<!-- Creator: CorelDRAW -->
<svg xmlns="http://www.w3.org/2000/svg" xml:space="preserve" width="6.82666in" height="6.82666in" style="shape-rendering:geometricPrecision; text-rendering:geometricPrecision; image-rendering:optimizeQuality; fill-rule:evenodd; clip-rule:evenodd"
viewBox="0 0 6.82666 6.82666"
 xmlns:xlink="http://www.w3.org/1999/xlink">
 <defs>
  <style type="text/css">
   <![CDATA[
    .fil3 {fill:none}
    .fil2 {fill:#777777}
    .fil1 {fill:#919191}
    .fil0 {fill:#DADADA}
    .fil5 {fill:#727272;fill-rule:nonzero}
    .fil4 {fill:#7E7E7E;fill-rule:nonzero}
   ]]>
  </style>
 </defs>
 <g id="Layer_x0020_1">
  <metadata id="CorelCorpID_0Corel-Layer"/>
  <path class="fil0" d="M2.30154 1.44l3.40001 0c0.0606181,0 0.115642,0.0247205 0.155457,0.0645433 0.0398228,0.039815 0.0645433,0.0948386 0.0645433,0.155457l0 3.50667c0,0.0606181 -0.0247205,0.115642 -0.0645433,0.155457 -0.039815,0.0398228 -0.0948386,0.0645433 -0.155457,0.0645433l-3.40001 0c-0.0606181,0 -0.115642,-0.0247205 -0.155457,-0.0645433 -0.0398228,-0.039815 -0.0645433,-0.0948386 -0.0645433,-0.155457l0 -3.50667c0,-0.0606181 0.0247205,-0.115642 0.0645433,-0.155457 0.039815,-0.0398228 0.0948386,-0.0645433 0.155457,-0.0645433z"/>
  <polygon class="fil1" points="2.29179,3.35999 3.25179,3.35999 3.25179,3.57333 2.29179,3.57333 "/>
  <polygon class="fil2" points="3.89179,1.65333 3.89179,2.61333 4.74512,2.61333 4.85179,2.61333 4.85179,2.72 4.85179,3.35999 5.91846,3.35999 5.91846,3.57333 5.27846,3.57333 5.27846,4.21333 5.27846,4.32 5.17179,4.32 4.31846,4.32 4.31846,4.96 4.31846,5.06667 4.21179,5.06667 3.03846,5.06667 3.03846,4.85333 4.10512,4.85333 4.10512,4.21333 4.10512,4.10666 4.21179,4.10666 5.06512,4.10666 5.06512,3.57333 4.74512,3.57333 4.63845,3.57333 4.63845,3.46666 4.63845,2.82667 3.78512,2.82667 3.67845,2.82667 3.67845,2.72 3.67845,1.65333 "/>
  <g id="_347940312">
   <rect id="_347941080" class="fil3" width="6.82666" height="6.82666"/>
   <rect id="_347941032" class="fil3" x="0.853331" y="0.853331" width="5.12" height="5.12"/>
  </g>
  <polygon class="fil4" points="1.44154,1.86667 1.44154,4.96 1.2282,4.96 1.2282,1.86667 "/>
  <polygon class="fil5" points="0.832791,2.11124 1.25946,1.68458 1.33487,1.60917 1.41029,1.68458 1.83696,2.11124 1.68612,2.26208 1.33487,1.91083 0.983626,2.26208 "/>
  <polygon class="fil5" points="0.983626,4.56459 1.33487,4.91583 1.68612,4.56459 1.83696,4.71542 1.41029,5.14208 1.33487,5.2175 1.25946,5.14208 0.832791,4.71542 "/>
 </g>
</svg>
