<?xml version="1.0" encoding="UTF-8"?>
<!DOCTYPE svg PUBLIC "-//W3C//DTD SVG 1.1//EN" "http://www.w3.org/Graphics/SVG/1.1/DTD/svg11.dtd">
<!-- Creator: CorelDRAW -->
<svg xmlns="http://www.w3.org/2000/svg" xml:space="preserve" width="6.82666in" height="6.82666in" style="shape-rendering:geometricPrecision; text-rendering:geometricPrecision; image-rendering:optimizeQuality; fill-rule:evenodd; clip-rule:evenodd"
viewBox="0 0 6.82666 6.82666"
 xmlns:xlink="http://www.w3.org/1999/xlink">
 <defs>
  <style type="text/css">
   <![CDATA[
    .fil1 {fill:none}
    .fil2 {fill:#202020;fill-rule:nonzero}
    .fil0 {fill:#757575;fill-rule:nonzero}
    .fil3 {fill:#9A9A9A;fill-rule:nonzero}
    .fil5 {fill:#A4A4A5;fill-rule:nonzero}
    .fil4 {fill:#C4C4C4;fill-rule:nonzero}
   ]]>
  </style>
 </defs>
 <g id="Layer_x0020_1">
  <metadata id="CorelCorpID_0Corel-Layer"/>
  <polygon class="fil0" points="2.31921,2.8294 2.31921,4.34342 2.10587,4.34342 2.10587,2.8294 "/>
  <g id="_347942520">
   <rect id="_347942472" class="fil1" width="6.82666" height="6.82666"/>
   <rect id="_347942256" class="fil1" x="0.853331" y="0.853331" width="5.12" height="5.12"/>
  </g>
  <path class="fil2" d="M2.20963 1.11691c-0.00474409,-8.26772e-005 -0.000429134,-7.87402e-006 0.00291339,9.84252e-005 0.00334252,-0.000106299 0.00765748,-0.000181102 0.00291339,-9.84252e-005l-0.00124803 1.9685e-005 -0.00333071 0 -0.00124803 -1.9685e-005z"/>
  <path class="fil2" d="M2.21254 0.904075c-0.0025,8.66142e-005 -0.00601969,0.000204724 0,0.000318898 0.00601969,-0.000114173 0.0025,-0.000232283 0,-0.000318898z"/>
  <polygon class="fil0" points="4.78792,3.00091 4.78792,4.34342 4.59875,4.34342 4.59875,3.00091 "/>
  <polygon class="fil3" points="0.853331,4.21607 5.97333,4.21607 5.97333,4.42941 0.853331,4.42941 "/>
  <polygon class="fil3" points="0.853331,4.96276 5.97333,4.96276 5.97333,5.1761 0.853331,5.1761 "/>
  <path class="fil4" d="M5.57339 5.92273l-0.533343 0 -0.106669 0 0 -0.106669 0 -1.88724 0.0216693 -0.063752 0.264752 -0.352752 0.085 -0.113256 0.085 0.113256 0.265709 0.354031 0.021252 0.063752 0.00288189 1.88596 0.000161417 0.106669 -0.106413 0zm-3.78653 0l-0.533343 0 -0.106669 0 0 -0.106669 0 -1.88724 0.0216693 -0.063752 0.264752 -0.352752 0.085 -0.113256 0.085 0.113256 0.265709 0.354031 0.021252 0.063752 0.00288189 1.88596 0.000161417 0.106669 -0.106413 0zm1.26218 0l-0.533343 0 -0.106669 0 0 -0.106669 0 -1.88724 0.0216693 -0.063752 0.264752 -0.352752 0.085 -0.113256 0.085 0.113256 0.265709 0.354031 0.021252 0.063752 0.00288189 1.88596 0.000161417 0.106669 -0.106413 0zm1.26218 0l-0.533343 0 -0.106669 0 0 -0.106669 0 -1.88724 0.0216693 -0.063752 0.264752 -0.352752 0.085 -0.113256 0.085 0.113256 0.265709 0.354031 0.021252 0.063752 0.00288189 1.88596 0.000161417 0.106669 -0.106413 0z"/>
  <path class="fil5" d="M2.21802 1.06666c0.124878,0 0.237953,0.0506339 0.319799,0.132476 0.0818465,0.0818465 0.13248,0.194925 0.13248,0.319803 0,0.0222441 -0.00162992,0.0441693 -0.00477953,0.0656575 0.0863583,0.0186732 0.163539,0.0620039 0.223795,0.12226 0.0818504,0.0818504 0.13248,0.194925 0.13248,0.319803 0,0.0302835 -0.00301969,0.0599567 -0.00876378,0.0887283 0.0646929,0.0262835 0.121917,0.0670827 0.167598,0.118354 0.071248,0.0799685 0.114547,0.185291 0.114547,0.30063 0,0.124878 -0.0506299,0.237957 -0.132476,0.319803 -0.0818465,0.0818425 -0.194921,0.132476 -0.319799,0.132476l-1.26072 0c-0.124878,0 -0.237953,-0.0506339 -0.319799,-0.132476 -0.0818465,-0.0818465 -0.132476,-0.194925 -0.132476,-0.319803 0,-0.115339 0.0432953,-0.220661 0.114547,-0.30063 0.0456811,-0.0512717 0.102902,-0.0920709 0.167598,-0.118354 -0.00574409,-0.0287756 -0.00875984,-0.0584488 -0.00875984,-0.0887283 0,-0.124882 0.0506299,-0.237961 0.132476,-0.319803 0.0602559,-0.0602559 0.137441,-0.103587 0.223795,-0.12226 -0.00314961,-0.0214882 -0.00477559,-0.0434134 -0.00477559,-0.0656575 0,-0.124878 0.0506299,-0.237957 0.132476,-0.319803 0.0818465,-0.0818425 0.194921,-0.132476 0.319799,-0.132476l0.00543307 1.1811e-005 9.05512e-005 0 0.00543307 -1.1811e-005z"/>
  <path class="fil5" d="M4.69819 1.43784c0.110732,0 0.211,0.0448976 0.283575,0.117472 0.0725748,0.0725709 0.117472,0.172839 0.117472,0.283575 0,0.0197205 -0.00144488,0.0391654 -0.00423622,0.0582165 0.0765748,0.0165591 0.145012,0.0549803 0.198445,0.108413 0.0725748,0.0725787 0.117472,0.172843 0.117472,0.283575 0,0.0268543 -0.00267717,0.0531693 -0.00777165,0.0786772 0.0573622,0.0233071 0.108106,0.0594882 0.148614,0.104949 0.0631772,0.0709094 0.101575,0.164303 0.101575,0.266579 0,0.110732 -0.0448976,0.211 -0.117472,0.283571 -0.0725748,0.0725748 -0.172843,0.117472 -0.283575,0.117472l-1.11791 0c-0.110732,0 -0.211,-0.0448976 -0.283575,-0.117472 -0.0725709,-0.0725709 -0.117469,-0.172839 -0.117469,-0.283571 0,-0.102276 0.0383898,-0.195669 0.101571,-0.266579 0.0405079,-0.0454606 0.091248,-0.0816417 0.148614,-0.104949 -0.00509449,-0.0255118 -0.00776772,-0.0518268 -0.00776772,-0.0786772 0,-0.110736 0.0448976,-0.211004 0.117469,-0.283575 0.0534331,-0.0534331 0.121874,-0.0918543 0.198445,-0.108413 -0.00279134,-0.0190512 -0.00423622,-0.0384961 -0.00423622,-0.0582165 0,-0.110736 0.0448976,-0.211004 0.117472,-0.283575 0.0725748,-0.0725748 0.172843,-0.117472 0.283575,-0.117472l0.00481496 7.87402e-006 8.26772e-005 0 0.00481496 -7.87402e-006z"/>
 </g>
</svg>
