<?xml version="1.0" encoding="UTF-8"?>
<!DOCTYPE svg PUBLIC "-//W3C//DTD SVG 1.1//EN" "http://www.w3.org/Graphics/SVG/1.1/DTD/svg11.dtd">
<!-- Creator: CorelDRAW -->
<svg xmlns="http://www.w3.org/2000/svg" xml:space="preserve" width="6.82666in" height="6.82666in" style="shape-rendering:geometricPrecision; text-rendering:geometricPrecision; image-rendering:optimizeQuality; fill-rule:evenodd; clip-rule:evenodd"
viewBox="0 0 6.82666 6.82666"
 xmlns:xlink="http://www.w3.org/1999/xlink">
 <defs>
  <style type="text/css">
   <![CDATA[
    .fil0 {fill:none}
    .fil7 {fill:#919191}
    .fil2 {fill:#959595}
    .fil1 {fill:#BCBCBC}
    .fil4 {fill:#C9C9C9}
    .fil3 {fill:#959595;fill-rule:nonzero}
    .fil6 {fill:#A4A4A5;fill-rule:nonzero}
    .fil5 {fill:#BFBFBF;fill-rule:nonzero}
   ]]>
  </style>
 </defs>
 <g id="Layer_x0020_1">
  <metadata id="CorelCorpID_0Corel-Layer"/>
  <g id="_339690592">
   <rect id="_339691168" class="fil0" width="6.82666" height="6.82666"/>
   <rect id="_339690688" class="fil0" x="0.853331" y="0.853331" width="5.12" height="5.12"/>
  </g>
  <g id="_347943144">
   <polygon id="_339690904" class="fil1" points="2.04076,2.53177 3.78901,1.13493 5.53726,2.58723 5.53726,4.64144 2.04076,4.64144 "/>
   <polygon id="_347943552" class="fil2" points="3.24637,2.44833 4.34292,2.44833 4.45257,2.44833 4.45257,2.55798 4.45257,3.65453 4.45257,3.76419 4.34292,3.76419 3.24637,3.76419 3.13671,3.76419 3.13671,3.65453 3.13671,2.55798 3.13671,2.44833 "/>
   <polygon id="_347944152" class="fil3" points="1.60468,2.80415 3.70833,1.05662 3.789,0.989598 3.86969,1.05662 5.97333,2.80415 5.81197,2.96077 3.78901,1.28026 1.76605,2.96077 "/>
   <polygon id="_347944080" class="fil4" points="3.33394,2.55341 4.25535,2.55341 4.34749,2.55341 4.34749,2.64556 4.34749,3.56696 4.34749,3.65911 4.25535,3.65911 3.33394,3.65911 3.2418,3.65911 3.2418,3.56696 3.2418,2.64556 3.2418,2.55341 "/>
   <polygon id="_347943648" class="fil5" points="2.36435,5.25531 5.22494,5.25531 5.22494,5.47463 2.36435,5.47463 "/>
   <polygon id="_347944008" class="fil6" points="2.58274,5.83707 2.18818,5.4425 2.11065,5.36497 2.18818,5.28744 2.58274,4.89288 2.7378,5.04794 2.42077,5.36497 2.7378,5.682 "/>
   <polygon id="_347943936" class="fil6" points="4.85148,5.682 5.16852,5.36497 4.85148,5.04794 5.00655,4.89288 5.40111,5.28744 5.47863,5.36497 5.40111,5.4425 5.00655,5.83707 "/>
   <polygon id="_347943864" class="fil5" points="1.43508,1.71943 1.43508,4.58002 1.21576,4.58002 1.21576,1.71943 "/>
   <polygon id="_347943600" class="fil6" points="0.853331,1.93782 1.24789,1.54326 1.32542,1.46573 1.40295,1.54326 1.79752,1.93782 1.64246,2.09288 1.32542,1.77585 1.00839,2.09288 "/>
   <polygon id="_347943960" class="fil6" points="1.00839,4.20657 1.32542,4.5236 1.64246,4.20657 1.79752,4.36163 1.40295,4.75619 1.32542,4.83372 1.24789,4.75619 0.853331,4.36163 "/>
   <polygon id="_347942976" class="fil7" points="3.9043,3.54488 4.23326,3.54488 4.23326,3.21592 3.9043,3.21592 "/>
   <polygon id="_347942808" class="fil7" points="3.35602,3.21592 3.35602,3.54488 3.68499,3.54488 3.68499,3.21592 "/>
   <polygon id="_347943120" class="fil7" points="3.68499,2.66764 3.35602,2.66764 3.35602,2.9966 3.68499,2.9966 "/>
   <polygon id="_347943432" class="fil7" points="4.23326,2.66764 3.9043,2.66764 3.9043,2.9966 4.23326,2.9966 "/>
  </g>
 </g>
</svg>
