<?xml version="1.0" encoding="UTF-8"?>
<!DOCTYPE svg PUBLIC "-//W3C//DTD SVG 1.1//EN" "http://www.w3.org/Graphics/SVG/1.1/DTD/svg11.dtd">
<!-- Creator: CorelDRAW -->
<svg xmlns="http://www.w3.org/2000/svg" xml:space="preserve" width="6.82666in" height="6.82666in" style="shape-rendering:geometricPrecision; text-rendering:geometricPrecision; image-rendering:optimizeQuality; fill-rule:evenodd; clip-rule:evenodd"
viewBox="0 0 6.82666 6.82666"
 xmlns:xlink="http://www.w3.org/1999/xlink">
 <defs>
  <style type="text/css">
   <![CDATA[
    .fil0 {fill:none}
    .fil2 {fill:#B9BABA}
    .fil1 {fill:#C7C7C7;fill-rule:nonzero}
   ]]>
  </style>
 </defs>
 <g id="Layer_x0020_1">
  <metadata id="CorelCorpID_0Corel-Layer"/>
  <g id="_339692080">
   <rect id="_339692344" class="fil0" width="6.82666" height="6.82666"/>
   <rect id="_339691984" class="fil0" x="0.853331" y="0.853331" width="5.12" height="5.12"/>
  </g>
  <g id="_339691432">
   <polygon id="_339692032" class="fil1" points="2.0507,2.1333 3.85819,1.59719 3.91819,1.80136 2.1107,2.33746 "/>
   <polygon id="_339692224" class="fil1" points="2.21153,2.67555 4.01902,2.13945 4.07902,2.34361 2.27153,2.87972 "/>
   <polygon id="_339691888" class="fil1" points="2.37237,3.21781 4.17986,2.6817 4.23986,2.88587 2.43237,3.42197 "/>
   <polygon id="_339691720" class="fil1" points="2.5332,3.76006 4.34069,3.22396 4.40069,3.42812 2.5932,3.96422 "/>
   <polygon id="_339691696" class="fil1" points="2.69403,4.30231 4.50152,3.76621 4.56152,3.97038 2.75403,4.50648 "/>
   <polygon id="_339691504" class="fil1" points="2.85487,4.84457 4.66235,4.30846 4.72235,4.51263 2.91487,5.04874 "/>
   <path id="_339691288" class="fil2" d="M2.05906 1.55381l1.23304 4.15724c0.0271772,0.091626 -0.0255709,0.188075 -0.117201,0.215 -0.0915669,0.0269094 -0.187673,-0.0256535 -0.214791,-0.117087l-1.23304 -4.15724c-0.0271772,-0.091626 0.0255709,-0.188075 0.117201,-0.215 0.0915669,-0.0269094 0.187673,0.0256535 0.214791,0.117087z"/>
   <path id="_339691456" class="fil2" d="M3.86655 1.0177l1.23304 4.15724c0.0271772,0.091626 -0.0255709,0.188075 -0.117201,0.215 -0.0915669,0.0269094 -0.187673,-0.0256535 -0.214791,-0.117087l-1.23304 -4.15724c-0.0271772,-0.091626 0.0255709,-0.188075 0.117201,-0.215 0.0915669,-0.0269094 0.187673,0.0256535 0.214791,0.117087z"/>
  </g>
 </g>
</svg>
