<?xml version="1.0" encoding="UTF-8"?>
<!DOCTYPE svg PUBLIC "-//W3C//DTD SVG 1.1//EN" "http://www.w3.org/Graphics/SVG/1.1/DTD/svg11.dtd">
<!-- Creator: CorelDRAW -->
<svg xmlns="http://www.w3.org/2000/svg" xml:space="preserve" width="6.82666in" height="6.82666in" style="shape-rendering:geometricPrecision; text-rendering:geometricPrecision; image-rendering:optimizeQuality; fill-rule:evenodd; clip-rule:evenodd"
viewBox="0 0 6.82666 6.82666"
 xmlns:xlink="http://www.w3.org/1999/xlink">
 <defs>
  <style type="text/css">
   <![CDATA[
    .fil0 {fill:none}
    .fil1 {fill:#3A3A3A;fill-rule:nonzero}
    .fil3 {fill:#545454;fill-rule:nonzero}
    .fil2 {fill:#757575;fill-rule:nonzero}
    .fil9 {fill:#7D7D7D;fill-rule:nonzero}
    .fil6 {fill:#8E8E8F;fill-rule:nonzero}
    .fil8 {fill:#ABABAB;fill-rule:nonzero}
    .fil5 {fill:#BEBEBE;fill-rule:nonzero}
    .fil4 {fill:#E1E1E2;fill-rule:nonzero}
    .fil7 {fill:#F3F3F3;fill-rule:nonzero}
   ]]>
  </style>
 </defs>
 <g id="Layer_x0020_1">
  <metadata id="CorelCorpID_0Corel-Layer"/>
  <g id="_339690112">
   <rect id="_339689800" class="fil0" width="6.82666" height="6.82666"/>
   <rect id="_339690280" class="fil0" x="0.853331" y="0.853331" width="5.12" height="5.12"/>
  </g>
  <path class="fil1" d="M0.883807 5.03877l0.477276 0 0 0.13874 -0.477276 0 0 -0.13874zm0.806091 0l0.432146 0 0 0.13874 -0.432146 0 0 -0.13874zm0.760957 0l0.43215 0 0 0.13874 -0.43215 0 0 -0.13874zm0.760957 0l0.43215 0 0 0.13874 -0.43215 0 0 -0.13874zm0.760961 0l0.432154 0 0 0.13874 -0.432154 0 0 -0.13874zm0.760969 0l0.432146 0 0 0.13874 -0.432146 0 0 -0.13874zm0.760957 0l0.478634 0 0 0.13874 -0.478634 0 0 -0.13874z"/>
  <path class="fil1" d="M0.883807 5.501l0.477276 0 0 0.13874 -0.477276 0 0 -0.13874zm0.806854 0l0.431382 0 0 0.13874 -0.431382 0 0 -0.13874zm0.760961 0l0.431382 0 0 0.13874 -0.431382 0 0 -0.13874zm0.760957 0l0.431382 0 0 0.13874 -0.431382 0 0 -0.13874zm0.760961 0l0.431386 0 0 0.13874 -0.431386 0 0 -0.13874zm0.760965 0l0.431382 0 0 0.13874 -0.431382 0 0 -0.13874zm0.760961 0l0.477866 0 0 0.13874 -0.477866 0 0 -0.13874z"/>
  <polygon class="fil2" points="1.69125,6.03258 1.36108,6.03258 1.25441,6.03258 1.25441,5.92591 1.25441,4.88743 1.27983,4.81868 1.44372,4.62457 1.52498,4.52834 1.60623,4.62457 1.77072,4.81939 1.79572,4.88814 1.7975,5.92591 1.79769,6.03258 "/>
  <polygon class="fil3" points="2.45221,6.03258 2.12204,6.03258 2.01537,6.03258 2.01537,5.92591 2.01537,4.88743 2.04079,4.81868 2.20469,4.62457 2.28594,4.52834 2.36719,4.62457 2.53168,4.81939 2.55668,4.88814 2.55846,5.92591 2.55865,6.03258 "/>
  <polygon class="fil2" points="3.21317,6.03258 2.883,6.03258 2.77633,6.03258 2.77633,5.92591 2.77633,4.88743 2.80175,4.81868 2.96564,4.62457 3.0469,4.52834 3.12815,4.62457 3.29263,4.81939 3.31763,4.88814 3.31942,5.92591 3.3196,6.03258 "/>
  <polygon class="fil3" points="3.97413,6.03258 3.64396,6.03258 3.5373,6.03258 3.5373,5.92591 3.5373,4.88743 3.56271,4.81868 3.72661,4.62457 3.80786,4.52834 3.88911,4.62457 4.05359,4.81939 4.07859,4.88814 4.08038,5.92591 4.08056,6.03258 "/>
  <polygon class="fil2" points="4.73509,6.03258 4.40493,6.03258 4.29826,6.03258 4.29826,5.92591 4.29826,4.88743 4.32367,4.81868 4.48757,4.62457 4.56882,4.52834 4.65007,4.62457 4.81456,4.81939 4.83956,4.88814 4.84134,5.92591 4.84152,6.03258 "/>
  <polygon class="fil3" points="5.49605,6.03258 5.16589,6.03258 5.05922,6.03258 5.05922,5.92591 5.05922,4.88743 5.08463,4.81868 5.24853,4.62457 5.32978,4.52834 5.41103,4.62457 5.57552,4.81939 5.60052,4.88814 5.6023,5.92591 5.60248,6.03258 "/>
  <g id="_339687160">
   <g>
    <polygon id="_339689224" class="fil4" points="4.78644,1.63759 4.78644,2.73555 4.78644,2.81398 4.70801,2.81398 2.04154,2.81398 1.96311,2.81398 1.96311,2.73555 1.96311,1.63759 1.96311,1.55916 2.04154,1.55916 4.70801,1.55916 4.78644,1.55916 "/>
    <polygon id="_339689272" class="fil5" points="4.78644,1.63759 4.78644,1.77444 1.96311,1.77444 1.96311,1.63759 1.96311,1.55916 2.04154,1.55916 4.70801,1.55916 4.78644,1.55916 "/>
    <polygon id="_339689296" class="fil6" points="1.96311,0.853327 4.78644,0.853327 4.83699,0.853327 4.85782,0.900201 5.17152,1.60603 5.2204,1.71602 5.10014,1.71602 1.64941,1.71602 1.52915,1.71602 1.57803,1.60603 1.89173,0.900201 1.91256,0.853327 "/>
    <g>
     <g>
      <polygon id="_339688336" class="fil5" points="2.4562,1.95129 2.72193,1.95129 2.77729,1.95129 2.77729,2.00665 2.77729,2.27237 2.77729,2.32774 2.72193,2.32774 2.4562,2.32774 2.40084,2.32774 2.40084,2.27237 2.40084,2.00665 2.40084,1.95129 "/>
      <polygon id="_339688600" class="fil7" points="2.47057,1.97163 2.70757,1.97163 2.75694,1.97163 2.75694,2.02101 2.75694,2.25801 2.75694,2.30739 2.70757,2.30739 2.47057,2.30739 2.42119,2.30739 2.42119,2.25801 2.42119,2.02101 2.42119,1.97163 "/>
      <polygon id="_339688216" class="fil8" points="2.36988,2.32381 2.80825,2.32381 2.80825,2.36303 2.36988,2.36303 "/>
     </g>
     <g>
      <polygon id="_339688168" class="fil5" points="3.24191,1.95129 3.50764,1.95129 3.563,1.95129 3.563,2.00665 3.563,2.27237 3.563,2.32774 3.50764,2.32774 3.24191,2.32774 3.18655,2.32774 3.18655,2.27237 3.18655,2.00665 3.18655,1.95129 "/>
      <polygon id="_339688480" class="fil7" points="3.25628,1.97163 3.49328,1.97163 3.54265,1.97163 3.54265,2.02101 3.54265,2.25801 3.54265,2.30739 3.49328,2.30739 3.25628,2.30739 3.2069,2.30739 3.2069,2.25801 3.2069,2.02101 3.2069,1.97163 "/>
      <polygon id="_339688120" class="fil8" points="3.15559,2.32381 3.59396,2.32381 3.59396,2.36303 3.15559,2.36303 "/>
     </g>
     <g>
      <polygon id="_339688720" class="fil5" points="4.02762,1.95129 4.29335,1.95129 4.34871,1.95129 4.34871,2.00665 4.34871,2.27237 4.34871,2.32774 4.29335,2.32774 4.02762,2.32774 3.97226,2.32774 3.97226,2.27237 3.97226,2.00665 3.97226,1.95129 "/>
      <polygon id="_339688408" class="fil7" points="4.04198,1.97163 4.27898,1.97163 4.32836,1.97163 4.32836,2.02101 4.32836,2.25801 4.32836,2.30739 4.27898,2.30739 4.04198,2.30739 3.99261,2.30739 3.99261,2.25801 3.99261,2.02101 3.99261,1.97163 "/>
      <polygon id="_339688648" class="fil8" points="3.9413,2.32381 4.37967,2.32381 4.37967,2.36303 3.9413,2.36303 "/>
     </g>
    </g>
   </g>
   <g>
    <polygon id="_339688000" class="fil4" points="4.78644,3.35373 4.78644,4.39172 4.78644,4.46092 4.70801,4.46092 2.04154,4.46092 1.96311,4.46092 1.96311,4.39172 1.96311,3.35373 1.96311,3.28453 2.04154,3.28453 4.70801,3.28453 4.78644,3.28453 "/>
    <polygon id="_339687736" class="fil5" points="4.78644,3.36296 4.78644,3.49981 1.96311,3.49981 1.96311,3.36296 1.96311,3.28453 2.04154,3.28453 4.70801,3.28453 4.78644,3.28453 "/>
    <path id="_339687952" class="fil8" d="M3.16099 4.46092l0 -0.646465c0.142524,0 0.285047,0 0.427567,0l0 0.646465c-0.280921,0 -0.146642,0 -0.427567,0z"/>
    <polygon id="_339687520" class="fil9" points="1.96311,2.65712 4.78644,2.65712 4.83454,2.65712 4.85629,2.70063 5.16999,3.32803 5.22667,3.44139 5.10014,3.44139 1.64941,3.44139 1.52289,3.44139 1.57956,3.32803 1.89326,2.70063 1.91502,2.65712 "/>
    <g>
     <polygon id="_339687856" class="fil5" points="2.4562,3.79111 2.72193,3.79111 2.77729,3.79111 2.77729,3.84647 2.77729,4.1122 2.77729,4.16756 2.72193,4.16756 2.4562,4.16756 2.40084,4.16756 2.40084,4.1122 2.40084,3.84647 2.40084,3.79111 "/>
     <polygon id="_339687976" class="fil7" points="2.47057,3.81146 2.70757,3.81146 2.75694,3.81146 2.75694,3.86083 2.75694,4.09784 2.75694,4.14721 2.70757,4.14721 2.47057,4.14721 2.42119,4.14721 2.42119,4.09784 2.42119,3.86083 2.42119,3.81146 "/>
     <polygon id="_339687832" class="fil8" points="2.36988,4.16363 2.80825,4.16363 2.80825,4.20285 2.36988,4.20285 "/>
    </g>
    <g>
     <polygon id="_339686944" class="fil5" points="4.02762,3.79111 4.29335,3.79111 4.34871,3.79111 4.34871,3.84647 4.34871,4.1122 4.34871,4.16756 4.29335,4.16756 4.02762,4.16756 3.97226,4.16756 3.97226,4.1122 3.97226,3.84647 3.97226,3.79111 "/>
     <polygon id="_339687064" class="fil7" points="4.04198,3.81146 4.27898,3.81146 4.32836,3.81146 4.32836,3.86083 4.32836,4.09784 4.32836,4.14721 4.27898,4.14721 4.04198,4.14721 3.99261,4.14721 3.99261,4.09784 3.99261,3.86083 3.99261,3.81146 "/>
     <polygon id="_339686608" class="fil8" points="3.9413,4.16363 4.37967,4.16363 4.37967,4.20285 3.9413,4.20285 "/>
    </g>
   </g>
  </g>
 </g>
</svg>
