<?xml version="1.0" encoding="UTF-8"?>
<!DOCTYPE svg PUBLIC "-//W3C//DTD SVG 1.1//EN" "http://www.w3.org/Graphics/SVG/1.1/DTD/svg11.dtd">
<!-- Creator: CorelDRAW -->
<svg xmlns="http://www.w3.org/2000/svg" xml:space="preserve" width="6.82666in" height="6.82666in" style="shape-rendering:geometricPrecision; text-rendering:geometricPrecision; image-rendering:optimizeQuality; fill-rule:evenodd; clip-rule:evenodd"
viewBox="0 0 6.82666 6.82666"
 xmlns:xlink="http://www.w3.org/1999/xlink">
 <defs>
  <style type="text/css">
   <![CDATA[
    .fil0 {fill:none}
    .fil4 {fill:#757575}
    .fil5 {fill:#959595}
    .fil1 {fill:#BEBEBE}
    .fil3 {fill:#EFEFEF}
    .fil2 {fill:#A5A5A6;fill-rule:nonzero}
   ]]>
  </style>
 </defs>
 <g id="Layer_x0020_1">
  <metadata id="CorelCorpID_0Corel-Layer"/>
  <g id="_347922840">
   <rect id="_347923704" class="fil0" width="6.82666" height="6.82666"/>
   <rect id="_347922864" class="fil0" x="0.853331" y="0.853331" width="5.12" height="5.12"/>
  </g>
  <g id="_275842008">
   <polygon id="_347922792" class="fil1" points="1.06902,1.90415 3.20633,1.90415 3.30526,1.90415 3.30526,2.01223 3.30526,5.86525 3.30526,5.97333 3.20633,5.97333 1.06902,5.97333 0.970094,5.97333 0.970094,5.86525 0.970094,2.01223 0.970094,1.90415 "/>
   <polygon id="_347922768" class="fil2" points="3.41333,0.853331 5.7485,0.853331 5.85657,0.853331 5.85657,0.961409 5.85657,5.86525 5.85657,5.97333 5.7485,5.97333 3.41333,5.97333 3.30526,5.97333 3.30526,5.86525 3.30526,0.961409 3.30526,0.853331 "/>
   <g>
    <g>
     <polygon id="_347923296" class="fil3" points="1.61701,2.1732 1.61701,2.64023 1.29279,2.64023 1.29279,2.1732 "/>
     <polygon id="_347923056" class="fil4" points="1.61701,2.61512 1.61701,2.64023 1.29279,2.64023 1.29279,2.61512 "/>
    </g>
    <g>
     <polygon id="_347938800" class="fil3" points="2.29979,2.1732 2.29979,2.64023 1.97556,2.64023 1.97556,2.1732 "/>
     <polygon id="_347938632" class="fil4" points="2.29979,2.61512 2.29979,2.64023 1.97556,2.64023 1.97556,2.61512 "/>
    </g>
    <g>
     <polygon id="_347938032" class="fil3" points="2.98256,2.1732 2.98256,2.64023 2.65833,2.64023 2.65833,2.1732 "/>
     <polygon id="_347938608" class="fil4" points="2.98256,2.61512 2.98256,2.64023 2.65833,2.64023 2.65833,2.61512 "/>
    </g>
   </g>
   <g>
    <g>
     <polygon id="_347937552" class="fil3" points="1.61701,2.9463 1.61701,3.41333 1.29279,3.41333 1.29279,2.9463 "/>
     <polygon id="_347937216" class="fil4" points="1.61701,3.38822 1.61701,3.41333 1.29279,3.41333 1.29279,3.38822 "/>
    </g>
    <g>
     <polygon id="_347937768" class="fil3" points="2.29979,2.9463 2.29979,3.41333 1.97556,3.41333 1.97556,2.9463 "/>
     <polygon id="_347937744" class="fil4" points="2.29979,3.38822 2.29979,3.41333 1.97556,3.41333 1.97556,3.38822 "/>
    </g>
    <g>
     <polygon id="_347936592" class="fil3" points="2.98256,2.9463 2.98256,3.41333 2.65833,3.41333 2.65833,2.9463 "/>
     <polygon id="_347936952" class="fil4" points="2.98256,3.38822 2.98256,3.41333 2.65833,3.41333 2.65833,3.38822 "/>
    </g>
   </g>
   <g>
    <g>
     <polygon id="_347936976" class="fil3" points="1.61701,3.71939 1.61701,4.18642 1.29279,4.18642 1.29279,3.71939 "/>
     <polygon id="_347936736" class="fil4" points="1.61701,4.16131 1.61701,4.18642 1.29279,4.18642 1.29279,4.16131 "/>
    </g>
    <g>
     <polygon id="_347935704" class="fil3" points="2.29979,3.71939 2.29979,4.18642 1.97556,4.18642 1.97556,3.71939 "/>
     <polygon id="_347935632" class="fil4" points="2.29979,4.16131 2.29979,4.18642 1.97556,4.18642 1.97556,4.16131 "/>
    </g>
    <g>
     <polygon id="_347936040" class="fil3" points="2.98256,3.71939 2.98256,4.18642 2.65833,4.18642 2.65833,3.71939 "/>
     <polygon id="_347935728" class="fil4" points="2.98256,4.16131 2.98256,4.18642 2.65833,4.18642 2.65833,4.16131 "/>
    </g>
   </g>
   <g>
    <g>
     <polygon id="_347935104" class="fil3" points="1.61701,4.49248 1.61701,4.95951 1.29279,4.95951 1.29279,4.49248 "/>
     <polygon id="_347935392" class="fil4" points="1.61701,4.9344 1.61701,4.95951 1.29279,4.95951 1.29279,4.9344 "/>
    </g>
    <g>
     <polygon id="_347935488" class="fil3" points="2.29979,4.49248 2.29979,4.95951 1.97556,4.95951 1.97556,4.49248 "/>
     <polygon id="_347934864" class="fil4" points="2.29979,4.9344 2.29979,4.95951 1.97556,4.95951 1.97556,4.9344 "/>
    </g>
    <g>
     <polygon id="_347934240" class="fil3" points="2.98256,4.49248 2.98256,4.95951 2.65833,4.95951 2.65833,4.49248 "/>
     <polygon id="_347934168" class="fil4" points="2.98256,4.9344 2.98256,4.95951 2.65833,4.95951 2.65833,4.9344 "/>
    </g>
   </g>
   <rect id="_347934624" class="fil5" x="1.9022" y="5.20109" width="0.470958" height="0.772243"/>
   <polygon id="_347934432" class="fil3" points="4.0481,1.38355 4.0481,1.86148 3.71631,1.86148 3.71631,1.38355 "/>
   <polygon id="_347933832" class="fil4" points="4.0481,1.83578 4.0481,1.86148 3.71631,1.86148 3.71631,1.83578 "/>
   <polygon id="_347933448" class="fil3" points="4.74681,1.38355 4.74681,1.86148 4.41502,1.86148 4.41502,1.38355 "/>
   <polygon id="_347933712" class="fil4" points="4.74681,1.83578 4.74681,1.86148 4.41502,1.86148 4.41502,1.83578 "/>
   <polygon id="_347933880" class="fil3" points="5.44552,1.38355 5.44552,1.86148 5.11372,1.86148 5.11372,1.38355 "/>
   <polygon id="_347933496" class="fil4" points="5.44552,1.83578 5.44552,1.86148 5.11372,1.86148 5.11372,1.83578 "/>
   <polygon id="_347932944" class="fil3" points="4.0481,2.2245 4.0481,2.70243 3.71631,2.70243 3.71631,2.2245 "/>
   <polygon id="_347932632" class="fil4" points="4.0481,2.67673 4.0481,2.70243 3.71631,2.70243 3.71631,2.67673 "/>
   <polygon id="_347933040" class="fil3" points="4.74681,2.2245 4.74681,2.70243 4.41502,2.70243 4.41502,2.2245 "/>
   <polygon id="_347933232" class="fil4" points="4.74681,2.67673 4.74681,2.70243 4.41502,2.70243 4.41502,2.67673 "/>
   <polygon id="_347932104" class="fil3" points="5.44552,2.2245 5.44552,2.70243 5.11372,2.70243 5.11372,2.2245 "/>
   <polygon id="_347931816" class="fil4" points="5.44552,2.67673 5.44552,2.70243 5.11372,2.70243 5.11372,2.67673 "/>
   <polygon id="_347932488" class="fil3" points="4.0481,3.06545 4.0481,3.54339 3.71631,3.54339 3.71631,3.06545 "/>
   <polygon id="_347932464" class="fil4" points="4.0481,3.51769 4.0481,3.54339 3.71631,3.54339 3.71631,3.51769 "/>
   <polygon id="_347932440" class="fil3" points="4.74681,3.06545 4.74681,3.54339 4.41502,3.54339 4.41502,3.06545 "/>
   <polygon id="_275843616" class="fil4" points="4.74681,3.51769 4.74681,3.54339 4.41502,3.54339 4.41502,3.51769 "/>
   <polygon id="_275843424" class="fil3" points="5.44552,3.06545 5.44552,3.54339 5.11372,3.54339 5.11372,3.06545 "/>
   <polygon id="_275843400" class="fil4" points="5.44552,3.51769 5.44552,3.54339 5.11372,3.54339 5.11372,3.51769 "/>
   <polygon id="_275843784" class="fil3" points="4.0481,3.90641 4.0481,4.38434 3.71631,4.38434 3.71631,3.90641 "/>
   <polygon id="_275842992" class="fil4" points="4.0481,4.35864 4.0481,4.38434 3.71631,4.38434 3.71631,4.35864 "/>
   <polygon id="_275842584" class="fil3" points="4.74681,3.90641 4.74681,4.38434 4.41502,4.38434 4.41502,3.90641 "/>
   <polygon id="_275843328" class="fil4" points="4.74681,4.35864 4.74681,4.38434 4.41502,4.38434 4.41502,4.35864 "/>
   <polygon id="_275843184" class="fil3" points="5.44552,3.90641 5.44552,4.38434 5.11372,4.38434 5.11372,3.90641 "/>
   <polygon id="_275843040" class="fil4" points="5.44552,4.35864 5.44552,4.38434 5.11372,4.38434 5.11372,4.35864 "/>
   <rect id="_275842608" class="fil5" x="4.26167" y="4.92638" width="0.638487" height="1.04695"/>
  </g>
 </g>
</svg>
