<?xml version="1.0" encoding="UTF-8"?>
<!DOCTYPE svg PUBLIC "-//W3C//DTD SVG 1.1//EN" "http://www.w3.org/Graphics/SVG/1.1/DTD/svg11.dtd">
<!-- Creator: CorelDRAW -->
<svg xmlns="http://www.w3.org/2000/svg" xml:space="preserve" width="6.82666in" height="6.82666in" style="shape-rendering:geometricPrecision; text-rendering:geometricPrecision; image-rendering:optimizeQuality; fill-rule:evenodd; clip-rule:evenodd"
viewBox="0 0 6.82666 6.82666"
 xmlns:xlink="http://www.w3.org/1999/xlink">
 <defs>
  <style type="text/css">
   <![CDATA[
    .fil1 {fill:none}
    .fil3 {fill:#727272;fill-rule:nonzero}
    .fil2 {fill:#8B8C8C;fill-rule:nonzero}
    .fil4 {fill:#B7B7B7;fill-rule:nonzero}
    .fil0 {fill:#E1E1E2;fill-rule:nonzero}
   ]]>
  </style>
 </defs>
 <g id="Layer_x0020_1">
  <metadata id="CorelCorpID_0Corel-Layer"/>
  <polygon class="fil0" points="5.37331,2.24 5.37331,5.97333 1.34668,5.97333 1.34668,2.24 "/>
  <g id="_339780720">
   <rect id="_339780264" class="fil1" width="6.82666" height="6.82666"/>
   <rect id="_339780504" class="fil1" x="0.853331" y="0.853331" width="5.12" height="5.12"/>
  </g>
  <polygon class="fil2" points="1.28,1.27999 5.44,1.27999 5.51348,1.27999 5.53958,1.34958 5.85958,2.20291 5.91349,2.34667 5.76,2.34667 0.96,2.34667 0.806512,2.34667 0.860417,2.20291 1.18042,1.34958 1.20652,1.27999 "/>
  <polygon class="fil3" points="5.56548,1.41863 5.67728,1.71676 1.04272,1.71676 1.15452,1.41863 "/>
  <polygon class="fil4" points="1.81333,5.86666 1.81333,3.2 1.81333,3.09376 1.92,3.09375 4.8,3.09374 4.90667,3.09374 4.90667,3.2 4.90667,5.86666 4.69333,5.86666 4.69333,3.30625 2.02667,3.30626 2.02667,5.86666 "/>
  <polygon class="fil4" points="2.02667,3.4381 4.69333,3.4381 4.69333,3.65144 2.02667,3.65144 "/>
  <polygon class="fil4" points="2.02667,3.8073 4.69333,3.8073 4.69333,4.02064 2.02667,4.02064 "/>
  <polygon class="fil4" points="2.02667,4.1765 4.69333,4.1765 4.69333,4.38984 2.02667,4.38984 "/>
  <polygon class="fil4" points="2.02667,4.54571 4.69333,4.54571 4.69333,4.75905 2.02667,4.75905 "/>
  <polygon class="fil4" points="2.02667,4.91491 4.69333,4.91491 4.69333,5.12825 2.02667,5.12825 "/>
  <polygon class="fil4" points="2.02667,5.28411 4.69333,5.28411 4.69333,5.49745 2.02667,5.49745 "/>
  <polygon class="fil4" points="2.02667,5.65332 4.69333,5.65332 4.69333,5.86666 2.02667,5.86666 "/>
  <polygon class="fil3" points="5.73693,1.87584 5.84873,2.17397 0.871272,2.17397 0.983071,1.87584 "/>
 </g>
</svg>
