<?xml version="1.0" encoding="UTF-8"?>
<!DOCTYPE svg PUBLIC "-//W3C//DTD SVG 1.1//EN" "http://www.w3.org/Graphics/SVG/1.1/DTD/svg11.dtd">
<!-- Creator: CorelDRAW -->
<svg xmlns="http://www.w3.org/2000/svg" xml:space="preserve" width="6.82666in" height="6.82666in" style="shape-rendering:geometricPrecision; text-rendering:geometricPrecision; image-rendering:optimizeQuality; fill-rule:evenodd; clip-rule:evenodd"
viewBox="0 0 6.82666 6.82666"
 xmlns:xlink="http://www.w3.org/1999/xlink">
 <defs>
  <style type="text/css">
   <![CDATA[
    .fil1 {fill:none}
    .fil2 {fill:#474747;fill-rule:nonzero}
    .fil3 {fill:#545454;fill-rule:nonzero}
    .fil0 {fill:#8E8E8F;fill-rule:nonzero}
    .fil4 {fill:#AEAEAF;fill-rule:nonzero}
    .fil5 {fill:white;fill-rule:nonzero}
   ]]>
  </style>
 </defs>
 <g id="Layer_x0020_1">
  <metadata id="CorelCorpID_0Corel-Layer"/>
  <polygon class="fil0" points="4.85859,1.38666 4.85859,2.24 4.64526,2.24 4.64526,1.38666 "/>
  <polygon class="fil0" points="2.51192,1.38666 2.51192,2.24 2.29858,2.24 2.29858,1.38666 "/>
  <g id="_339782832">
   <rect id="_339783720" class="fil1" width="6.82666" height="6.82666"/>
   <rect id="_339782856" class="fil1" x="0.853331" y="0.853331" width="5.12" height="5.12"/>
  </g>
  <polygon class="fil2" points="1.22667,0.853331 1.22667,5.97333 1.01333,5.97333 1.01333,0.853331 "/>
  <path class="fil3" d="M1.22667 1.27999c-0.0589094,0 -0.106669,0.0477598 -0.106669,0.106669 0,0.0589094 0.0477598,0.106669 0.106669,0.106669l4.48 0c0.0589094,0 0.106669,-0.0477598 0.106669,-0.106669 0,-0.0589094 -0.0477598,-0.106669 -0.106669,-0.106669l-4.48 0z"/>
  <path class="fil4" d="M5.31693 2.14798l-3.47669 0c-0.0346339,0 -0.0658346,0.0135157 -0.0881969,0.0352795 -0.0215118,0.0209449 -0.0348701,0.0497717 -0.0348701,0.0814134l0 1.51707c0,0.0316417 0.0133622,0.0604724 0.0348701,0.0814094 0.0223661,0.0217717 0.0535669,0.0352835 0.0881969,0.0352835l3.47669 0c0.034626,0 0.0658307,-0.0135157 0.0881969,-0.0352874 0.0215079,-0.020937 0.0348701,-0.0497638 0.0348701,-0.0814055l0 -1.51707c0,-0.0316417 -0.0133583,-0.0604685 -0.0348701,-0.0814134 -0.0223622,-0.0217638 -0.0535669,-0.0352795 -0.0881969,-0.0352795z"/>
  <path class="fil5" d="M4.57441 3.44044c-0.000748031,-0.0297087 -0.00833071,-0.0522126 -0.022874,-0.067626 -0.0145433,-0.0154134 -0.0323228,-0.023122 -0.0532047,-0.023122 -0.022378,0 -0.0407756,0.00820472 -0.0553189,0.0244882 -0.0145433,0.0161614 -0.0217559,0.0382913 -0.0215079,0.0662598l0.152906 0zm-0.00584252 0.103429l0.102059 0.0170276c-0.0131772,0.0374213 -0.033811,0.0658858 -0.0621575,0.0854055 -0.0282165,0.0196378 -0.0636457,0.0293346 -0.106161,0.0293346 -0.067252,0 -0.116976,-0.021878 -0.149299,-0.0658858 -0.0254803,-0.0351772 -0.0382874,-0.0796811 -0.0382874,-0.13326 0,-0.0641457 0.0167835,-0.114366 0.0503465,-0.150665 0.0334409,-0.0362992 0.0758307,-0.0544488 0.127047,-0.0544488 0.0575551,0 0.102929,0.0190197 0.136244,0.0570591 0.0331929,0.0380394 0.0491063,0.0962165 0.0477362,0.174657l-0.256453 0c0.000744094,0.0303307 0.00894882,0.0539528 0.0247362,0.0707323 0.0157874,0.0169055 0.0355551,0.0253622 0.0590472,0.0253622 0.0160394,0 0.0294646,-0.00435433 0.0404016,-0.0130551 0.0109409,-0.00882677 0.0192677,-0.022874 0.0247402,-0.0422638zm-0.674764 0.0126772l0.102681 -0.0156614c0.00435039,0.0198898 0.0131772,0.0350551 0.0266024,0.045374 0.0133031,0.010315 0.0319488,0.0155394 0.0560669,0.0155394 0.0264764,0 0.0463661,-0.00485039 0.0596693,-0.0146693 0.0090748,-0.0067126 0.0135472,-0.0159134 0.0135472,-0.0272244 0,-0.00783071 -0.00248425,-0.0142953 -0.00733071,-0.0193937 -0.00509843,-0.00484646 -0.0165354,-0.00932283 -0.034189,-0.0134252 -0.0825433,-0.0181496 -0.134878,-0.0348071 -0.157004,-0.0498504 -0.0305827,-0.0208819 -0.0458701,-0.0499724 -0.0458701,-0.0871417 0,-0.0334409 0.0131772,-0.0616575 0.0396535,-0.0844055 0.0264803,-0.022874 0.0675,-0.034311 0.123071,-0.034311 0.0529567,0 0.0923622,0.00870079 0.118094,0.0258543 0.0257323,0.0172795 0.0433858,0.0427638 0.0530827,0.0765787l-0.0964685 0.0177756c-0.00410236,-0.0150433 -0.0119331,-0.0266024 -0.0234921,-0.0345591 -0.011563,-0.00807874 -0.0279724,-0.0120591 -0.0493543,-0.0120591 -0.0269764,0 -0.0462441,0.00373228 -0.0579291,0.011315 -0.00770866,0.00534252 -0.0115591,0.0123071 -0.0115591,0.0207598 0,0.00733465 0.00335433,0.0134252 0.0101929,0.0185197 0.00919685,0.00683858 0.0410236,0.0164094 0.0955945,0.0288425 0.0544488,0.0123071 0.0924882,0.0274724 0.114118,0.0454961 0.0213819,0.0182756 0.0320748,0.0436339 0.0320748,0.0760787 0,0.0354291 -0.0147953,0.0660118 -0.0445039,0.0914961 -0.0295866,0.0254843 -0.0733465,0.0381614 -0.131398,0.0381614 -0.0527087,0 -0.0943543,-0.010689 -0.125185,-0.0320709 -0.0307047,-0.0212559 -0.0507165,-0.0503465 -0.0601654,-0.0870197zm-0.164961 0.11039l0 -0.0579291c-0.0141732,0.0206339 -0.0326929,0.0369213 -0.0555669,0.0488543 -0.023,0.011811 -0.0472402,0.0177756 -0.0727244,0.0177756 -0.0259803,0 -0.0492283,-0.00571654 -0.0698622,-0.0170315 -0.0206339,-0.0114331 -0.0355512,-0.0274724 -0.044878,-0.0481063 -0.00919685,-0.0206378 -0.0137953,-0.0492283 -0.0137953,-0.0856496l0 -0.244646 0.102307 0 0 0.177642c0,0.0544449 0.00186614,0.0877638 0.00571654,0.100071 0.00373228,0.0121811 0.0105669,0.021878 0.0205118,0.0290866 0.00994488,0.0072126 0.022626,0.0106929 0.0379173,0.0106929 0.0175276,0 0.033189,-0.00472441 0.0469882,-0.0142992 0.0137992,-0.00969291 0.023248,-0.0215039 0.0283425,-0.0356772 0.00509843,-0.0142953 0.00770866,-0.0491024 0.00770866,-0.104421l0 -0.163094 0.102307 0 0 0.386732 -0.0949724 0zm-0.62902 -0.193429c0,0.0384134 0.0090748,0.067752 0.0273504,0.0881378 0.0181496,0.0203858 0.0406496,0.0305787 0.067378,0.0305787 0.0267244,0 0.0491024,-0.0101929 0.067126,-0.0305787 0.0181496,-0.0203858 0.0272244,-0.0499724 0.0272244,-0.0888819 0,-0.0377913 -0.0090748,-0.0670039 -0.0272244,-0.0873937 -0.0180236,-0.0203858 -0.0404016,-0.0305787 -0.067126,-0.0305787 -0.0267283,0 -0.0492283,0.0101929 -0.067378,0.0305787 -0.0182756,0.0203898 -0.0273504,0.0498504 -0.0273504,0.0881378zm-0.104917 -0.0054685c0,-0.033937 0.00845276,-0.0668819 0.0251102,-0.0987047 0.0167835,-0.0317008 0.0405276,-0.056063 0.0712323,-0.0727205 0.0307047,-0.0167835 0.0650157,-0.0252362 0.102929,-0.0252362 0.0584252,0 0.106409,0.0190197 0.143827,0.0570591 0.0374213,0.0380394 0.0560669,0.0860236 0.0560669,0.144075 0,0.0584291 -0.0188976,0.106909 -0.056563,0.145445 -0.0377913,0.0385394 -0.0852756,0.0576811 -0.142587,0.0576811 -0.0355512,0 -0.0692402,-0.00795669 -0.101437,-0.0239921 -0.0321969,-0.0160354 -0.056685,-0.0395315 -0.0734685,-0.0704843 -0.0166575,-0.0309528 -0.0251102,-0.0686181 -0.0251102,-0.113122zm-0.513906 0.198898l0 -0.533917 0.107906 0 0 0.210087 0.211205 0 0 -0.210087 0.10778 0 0 0.533917 -0.10778 0 0 -0.233457 -0.211205 0 0 0.233457 -0.107906 0zm1.98806 -0.75315l-0.102311 0 0 -0.197406c0,-0.0417717 -0.00223622,-0.0687441 -0.00658661,-0.0810512 -0.00435039,-0.012185 -0.011563,-0.0217559 -0.0213819,-0.0285945 -0.00982283,-0.0067126 -0.0216299,-0.0101929 -0.0354291,-0.0101929 -0.0177756,0 -0.033689,0.00485039 -0.0477362,0.0145433 -0.0140472,0.00982283 -0.0237441,0.022626 -0.0289646,0.0386614 -0.00522047,0.0160394 -0.00783071,0.045622 -0.00783071,0.0888858l0 0.175154 -0.102311 0 0 -0.386732 0.0949764 0 0 0.056811c0.033811,-0.0437598 0.0763268,-0.0656378 0.127543,-0.0656378 0.0225,0 0.0432598,0.00410236 0.0619055,0.0121811 0.0186496,0.00820472 0.0328189,0.0185236 0.0423937,0.0312047 0.00957087,0.0126772 0.0162835,0.0269724 0.0200118,0.0430118 0.00385433,0.0160354 0.00572047,0.0389094 0.00572047,0.0687441l0 0.240417zm-0.536902 -0.226496c-0.000748031,-0.0297087 -0.00833071,-0.0522126 -0.022874,-0.067626 -0.0145433,-0.0154134 -0.0323228,-0.023122 -0.0532047,-0.023122 -0.022378,0 -0.0407756,0.00820472 -0.0553189,0.0244882 -0.0145433,0.0161614 -0.0217559,0.0382913 -0.0215079,0.0662598l0.152906 0zm-0.00584252 0.103429l0.102059 0.0170276c-0.0131772,0.0374213 -0.033811,0.0658858 -0.0621575,0.0854055 -0.0282165,0.0196378 -0.0636457,0.0293346 -0.106161,0.0293346 -0.067252,0 -0.116976,-0.021878 -0.149299,-0.0658858 -0.0254803,-0.0351772 -0.0382874,-0.0796811 -0.0382874,-0.13326 0,-0.0641457 0.0167835,-0.114366 0.0503465,-0.150665 0.0334409,-0.0362992 0.0758307,-0.0544488 0.127047,-0.0544488 0.0575551,0 0.102929,0.0190197 0.136244,0.0570591 0.0331929,0.0380394 0.0491063,0.0962165 0.0477362,0.174657l-0.256453 0c0.000744094,0.0303307 0.00894882,0.0539528 0.0247362,0.0707323 0.0157874,0.0169055 0.0355551,0.0253622 0.0590472,0.0253622 0.0160394,0 0.0294646,-0.00435433 0.0404016,-0.0130551 0.0109409,-0.00882677 0.0192677,-0.022874 0.0247402,-0.0422638zm-0.581157 -0.0768268c0,0.0433858 0.00857874,0.0755827 0.0258543,0.0962165 0.0171575,0.0207598 0.0381654,0.0312047 0.0630276,0.0312047 0.0237441,0 0.0435079,-0.0095748 0.0592953,-0.0285945 0.0157874,-0.0190197 0.0237441,-0.0503465 0.0237441,-0.0937283 0,-0.0406496 -0.00820472,-0.0707362 -0.0244882,-0.090374 -0.0162835,-0.0196417 -0.0364252,-0.0294646 -0.0604173,-0.0294646 -0.0249843,0 -0.0457441,0.0095748 -0.0622795,0.0289646 -0.0165315,0.0192677 -0.0247362,0.0478622 -0.0247362,0.0857756zm-0.101315 -0.186839l0.0954724 0 0 0.056811c0.0123071,-0.0195197 0.0290866,-0.0353071 0.0502205,-0.0473661 0.0211339,-0.0121811 0.0446299,-0.0182717 0.0703622,-0.0182717 0.044874,0 0.0830394,0.0176496 0.11424,0.0528307 0.0313268,0.0351811 0.0469921,0.0842835 0.0469921,0.147185 0,0.0645197 -0.0157874,0.11474 -0.0472402,0.150543 -0.0315748,0.0357992 -0.0698622,0.0537008 -0.11474,0.0537008 -0.0213819,0 -0.0407717,-0.00422441 -0.0581772,-0.0126772 -0.0172795,-0.00857874 -0.0355512,-0.023122 -0.0548228,-0.0437598l0 0.194921 -0.102307 0 0 -0.533917zm-0.487299 0.119461c0,0.0604173 0.0140472,0.106287 0.0418937,0.137492 0.0279685,0.0312008 0.0633976,0.0467402 0.106409,0.0467402 0.0428858,0 0.0781929,-0.0154173 0.105787,-0.0464921 0.0274724,-0.0309567 0.0412717,-0.0773228 0.0412717,-0.139232 0,-0.0611575 -0.0134252,-0.106783 -0.0401496,-0.136988 -0.0268543,-0.0300866 -0.0625315,-0.045126 -0.106909,-0.045126 -0.0445039,0 -0.0803071,0.0152913 -0.107531,0.045748 -0.0270984,0.0304528 -0.0407717,0.0763268 -0.0407717,0.137858zm-0.111012 0.0036063c0,-0.0544488 0.00808268,-0.100071 0.0243661,-0.136992 0.0121811,-0.0270984 0.0287165,-0.0515866 0.0497244,-0.0732205 0.0210079,-0.0215039 0.0440079,-0.0375394 0.0689921,-0.0479843 0.033315,-0.0141693 0.0716024,-0.0211299 0.115114,-0.0211299 0.078689,0 0.141591,0.0243622 0.188827,0.0732165 0.0472402,0.0487323 0.0708583,0.116606 0.0708583,0.2035 0,0.0862717 -0.0234921,0.15365 -0.0703583,0.202378 -0.0468661,0.0486063 -0.10952,0.0729724 -0.187835,0.0729724 -0.079437,0 -0.142587,-0.0242402 -0.189453,-0.0725984 -0.0468661,-0.0484803 -0.0702362,-0.115236 -0.0702362,-0.200142z"/>
 </g>
</svg>
