<?xml version="1.0" encoding="iso-8859-1"?>
<!-- Uploaded to: SVG Repo, www.svgrepo.com, Generator: SVG Repo Mixer Tools -->
<svg fill="#000000" version="1.1" id="Layer_1" xmlns="http://www.w3.org/2000/svg" xmlns:xlink="http://www.w3.org/1999/xlink" 
	 viewBox="0 0 511.999 511.999" xml:space="preserve">
<g>
	<g>
		<path d="M456.869,42.22c-56.293-56.294-147.891-56.294-204.184,0c-21.288,21.289-35.201,48.18-40.232,77.768
			c-4.314,25.364-1.872,51.032,7.045,74.866L12.91,401.44l10.768,52.493l226.209-226.208l21.48,21.48l-50.677,50.677l31.63,31.63
			l51.916-51.916c23.832,8.916,49.501,11.359,74.866,7.044c29.588-5.033,56.479-18.945,77.768-40.233
			C513.162,190.112,513.162,98.514,456.869,42.22z M412.642,135.103c-6.498,6.498-15.138,10.076-24.327,10.076
			c-9.189,0-17.829-3.578-24.327-10.076c-6.498-6.498-10.076-15.137-10.076-24.327c0-9.19,3.578-17.83,10.076-24.327
			c6.707-6.707,15.518-10.061,24.327-10.061s17.62,3.354,24.327,10.061C426.056,99.862,426.056,121.688,412.642,135.103z"/>
	</g>
</g>
<g>
	<g>
		
			<rect x="174.325" y="331.671" transform="matrix(0.7071 -0.7071 0.7071 0.7071 -192.3021 243.8202)" width="47.682" height="44.736"/>
	</g>
</g>
<g>
	<g>
		
			<rect x="136.17" y="379.81" transform="matrix(0.7071 -0.7071 0.7071 0.7071 -240.4406 223.8812)" width="27.716" height="44.736"/>
	</g>
</g>
<g>
	<g>
		
			<rect x="43.025" y="442.45" transform="matrix(0.7071 -0.7071 0.7071 0.7071 -303.0824 197.9296)" width="88.712" height="44.736"/>
	</g>
</g>
</svg>