<?xml version="1.0" encoding="iso-8859-1"?>
<!-- Uploaded to: SVG Repo, www.svgrepo.com, Generator: SVG Repo Mixer Tools -->
<svg fill="#000000" version="1.1" id="Layer_1" xmlns="http://www.w3.org/2000/svg" xmlns:xlink="http://www.w3.org/1999/xlink" 
	 viewBox="0 0 512 512" xml:space="preserve">
<g transform="translate(0 -1)">
	<g>
		<g>
			<path d="M494.933,453.267H486.4V436.2c0-9.412-7.654-17.067-17.067-17.067H460.8V385h-59.733v-17.067H460.8V333.8H384v9.301
				c-24.175,4.087-42.667,25.114-42.667,50.432c0,14.114-11.486,25.6-25.6,25.6h-14.558c13.559-11.127,22.025-27.486,23.253-45.5
				c0.666-9.924,2.236-33.178-29.355-55.322c-11.332-8.183-14.49-16.333-13.508-34.842c0.162-3.362-1.783-6.707-4.787-8.226
				c-2.893-1.468-6.605-1.135-9.216,0.819c-26.513,20.011-35.917,33.314-32.179,64.23c-7.287-4.42-10.146-7.125-10.402-12.919
				c-0.154-3.627-2.893-7.151-6.357-8.201c-3.439-1.033-7.578,0.324-9.728,3.209l-2.372,3.132
				c-8.371,10.931-18.79,24.525-18.79,50.953c0,16.213,7.287,31.514,19.712,42.667h-11.179c-14.114,0-25.6-11.486-25.6-25.6
				c0-25.318-18.492-46.345-42.667-50.432V333.8H51.2v34.133h59.733V385H51.2v34.133h-8.533c-9.412,0-17.067,7.654-17.067,17.067
				v17.067h-8.533C7.654,453.267,0,460.921,0,470.333v25.6C0,505.346,7.654,513,17.067,513h477.867
				c9.412,0,17.067-7.654,17.067-17.067v-25.6C512,460.921,504.346,453.267,494.933,453.267z M358.4,393.533
				c0-15.872,10.888-29.252,25.6-33.058v7.458V385v34.133h-34.15C355.217,411.999,358.4,403.133,358.4,393.533z M128,385v-17.067
				v-7.458c14.711,3.806,25.6,17.186,25.6,33.058c0,9.6,3.183,18.466,8.55,25.6H128V385z M469.333,453.267H42.667V436.2h17.067
				h59.733h76.8h50.193c2.372,0.247,4.753,0.418,7.142,0.418c2.398,0,4.804-0.171,7.211-0.418h54.921h76.8h59.733h17.067V453.267z"
				/>
			<path d="M494.933,137.533H380.416L348.74,82.101c-1.519-2.662-4.352-4.301-7.407-4.301h-11.52L297.933,6.069
				C296.559,2.988,293.513,1,290.133,1h-68.267c-3.379,0-6.426,1.988-7.799,5.069L182.187,77.8h-11.52
				c-3.055,0-5.888,1.638-7.407,4.301l-31.676,55.433H17.067C7.654,137.533,0,145.188,0,154.6v25.6
				c0,9.412,7.654,17.067,17.067,17.067H25.6v17.067c0,9.412,7.654,17.067,17.067,17.067H51.2v34.133H128V231.4h256v34.133h76.8
				V231.4h8.533c9.412,0,17.067-7.654,17.067-17.067v-17.067h8.533c9.412,0,17.067-7.654,17.067-17.067v-25.6
				C512,145.188,504.346,137.533,494.933,137.533z M175.616,94.867h12.117h136.533h12.117l24.371,42.667h-209.51L175.616,94.867z
				 M469.333,214.333h-17.067h-59.733H119.467H59.733H42.667v-17.067h426.667V214.333z"/>
			<rect x="51.198" y="282.6" width="76.8" height="34.133"/>
			<rect x="383.998" y="282.6" width="76.8" height="34.133"/>
		</g>
	</g>
</g>
</svg>