<?xml version="1.0" ?><!-- Uploaded to: SVG Repo, www.svgrepo.com, Generator: SVG Repo Mixer Tools -->
<svg fill="#000000" width="800px" height="800px" viewBox="-3 0 124 124" xmlns="http://www.w3.org/2000/svg"><path d="     M 110.39405298233,44.4056413173676     C 110.39405298233,44.4056413173676 110.39405298233,122.488833665848 110.39405298233,122.488833665848     C 110.39405298233,122.488833665848 7.45602416992188,122.488833665848 7.45602416992188,122.488833665848     C 7.45602416992188,122.488833665848 7.45602416992188,44.4056413173676 7.45602416992188,44.4056413173676     C 7.45602416992188,44.4056413173676 1.59914422035217,44.4056413173676 1.59914422035217,44.4056413173676     C 1.59914422035217,44.4056413173676 15.9946423768997,1.19823980331421 15.9946423768997,1.19823980331421     C 15.9946423768997,1.19823980331421 98.768660068512,1.19823980331421 98.768660068512,1.19823980331421     C 98.768660068512,1.19823980331421 116.763059139252,44.4056413173676 116.763059139252,44.4056413173676     C 116.763059139252,44.4056413173676 110.39405298233,44.4056413173676 110.39405298233,44.4056413173676     Z     M 61.5645626783371,84.4288625717163     C 61.5645626783371,84.4288625717163 68.5294762849808,84.4288625717163 68.5294762849808,84.4288625717163     C 68.5294762849808,84.4288625717163 68.5294762849808,73.1595754623413 68.5294762849808,73.1595754623413     C 68.5294762849808,69.7312934398651 65.5735921859741,66.8489384651184 61.5645626783371,66.0118291378021     C 61.5645626783371,66.0118291378021 61.5645626783371,84.4288625717163 61.5645626783371,84.4288625717163     Z     M 49.7986083030701,84.4288625717163     C 49.7986083030701,84.4288625717163 57.6053363084793,84.4288625717163 57.6053363084793,84.4288625717163     C 57.6053363084793,84.4288625717163 57.6053363084793,65.869434595108 57.6053363084793,65.869434595108     C 53.1752554178238,66.4556572437286 49.7986083030701,69.4954843521118 49.7986083030701,73.1595754623413     C 49.7986083030701,73.1595754623413 49.7986083030701,84.4288625717163 49.7986083030701,84.4288625717163     Z     M 106.055546283722,44.4056413173676     C 106.055546283722,44.4056413173676 11.7946082353592,44.4056413173676 11.7946082353592,44.4056413173676     C 11.7946082353592,44.4056413173676 11.7946082353592,118.202488899231 11.7946082353592,118.202488899231     C 11.7946082353592,118.202488899231 45.7841771841049,118.202488899231 45.7841771841049,118.202488899231     C 45.7841771841049,118.202488899231 45.7841771841049,70.9349064826965 45.7841771841049,70.9349064826965     C 45.7841771841049,65.1012091636658 51.7742546796799,60.3720414638519 59.1633987426758,60.3720414638519     C 66.5525428056717,60.3720414638519 72.5425781011581,65.1012091636658 72.5425781011581,70.9349064826965     C 72.5425781011581,70.9349064826965 72.5425781011581,118.202488899231 72.5425781011581,118.202488899231     C 72.5425781011581,118.202488899231 106.055546283722,118.202488899231 106.055546283722,118.202488899231     C 106.055546283722,118.202488899231 106.055546283722,44.4056413173676 106.055546283722,44.4056413173676     Z     M 78.5418622493744,58.5986285209656     C 78.5418622493744,54.5150330066681 83.5735124349594,51.2046222686768 89.7803999185562,51.2046222686768     C 95.9872803688049,51.2046222686768 101.018888354301,54.5150330066681 101.018888354301,58.5986285209656     C 101.018888354301,58.5986285209656 101.018888354301,88.6488807201386 101.018888354301,88.6488807201386     C 101.018888354301,88.6488807201386 102.965909004211,88.6488807201386 102.965909004211,88.6488807201386     C 102.965909004211,88.6488807201386 102.965909004211,91.9646573066711 102.965909004211,91.9646573066711     C 102.965909004211,91.9646573066711 76.8304235935211,91.9646573066711 76.8304235935211,91.9646573066711     C 76.8304235935211,91.9646573066711 76.8304235935211,88.6488807201386 76.8304235935211,88.6488807201386     C 76.8304235935211,88.6488807201386 78.5418622493744,88.6488807201386 78.5418622493744,88.6488807201386     C 78.5418622493744,88.6488807201386 78.5418622493744,58.5986285209656 78.5418622493744,58.5986285209656     Z     M 91.2500883340836,88.5719554424286     C 91.2500883340836,88.5719554424286 97.6479382514954,88.5719554424286 97.6479382514954,88.5719554424286     C 97.6479382514954,88.5719554424286 97.6479382514954,79.5025701522827 97.6479382514954,79.5025701522827     C 97.6479382514954,79.5025701522827 91.2500883340836,79.5025701522827 91.2500883340836,79.5025701522827     C 91.2500883340836,79.5025701522827 91.2500883340836,88.5719554424286 91.2500883340836,88.5719554424286     Z     M 91.2500883340836,77.1669552326202     C 91.2500883340836,77.1669552326202 97.6479382514954,77.1669552326202 97.6479382514954,77.1669552326202     C 97.6479382514954,77.1669552326202 97.6479382514954,65.5001666545868 97.6479382514954,65.5001666545868     C 97.6479382514954,65.5001666545868 91.2500883340836,65.5001666545868 91.2500883340836,65.5001666545868     C 91.2500883340836,65.5001666545868 91.2500883340836,77.1669552326202 91.2500883340836,77.1669552326202     Z     M 91.2500883340836,63.1645517349243     C 91.2500883340836,63.1645517349243 97.6479382514954,63.1645517349243 97.6479382514954,63.1645517349243     C 97.6479382514954,63.1645517349243 97.6479382514954,59.167120218277 97.6479382514954,59.167120218277     C 97.6479382514954,56.6390590667725 94.8923990726471,54.5356833934784 91.2500883340836,54.0828087329865     C 91.2500883340836,54.0828087329865 91.2500883340836,63.1645517349243 91.2500883340836,63.1645517349243     Z     M 81.9139658212662,88.5719554424286     C 81.9139658212662,88.5719554424286 88.448698759079,88.5719554424286 88.448698759079,88.5719554424286     C 88.448698759079,88.5719554424286 88.448698759079,79.5025701522827 88.448698759079,79.5025701522827     C 88.448698759079,79.5025701522827 81.9139658212662,79.5025701522827 81.9139658212662,79.5025701522827     C 81.9139658212662,79.5025701522827 81.9139658212662,88.5719554424286 81.9139658212662,88.5719554424286     Z     M 81.9139658212662,77.1669552326202     C 81.9139658212662,77.1669552326202 88.448698759079,77.1669552326202 88.448698759079,77.1669552326202     C 88.448698759079,77.1669552326202 88.448698759079,65.5001666545868 88.448698759079,65.5001666545868     C 88.448698759079,65.5001666545868 81.9139658212662,65.5001666545868 81.9139658212662,65.5001666545868     C 81.9139658212662,65.5001666545868 81.9139658212662,77.1669552326202 81.9139658212662,77.1669552326202     Z     M 81.9139658212662,63.1645517349243     C 81.9139658212662,63.1645517349243 88.448698759079,63.1645517349243 88.448698759079,63.1645517349243     C 88.448698759079,63.1645517349243 88.448698759079,54.0667259693146 88.448698759079,54.0667259693146     C 84.7387623786926,54.4832739830017 81.9139658212662,56.6075069904327 81.9139658212662,59.167120218277     C 81.9139658212662,59.167120218277 81.9139658212662,63.1645517349243 81.9139658212662,63.1645517349243     Z     M 14.8498383760452,88.6488807201386     C 14.8498383760452,88.6488807201386 16.5613262653351,88.6488807201386 16.5613262653351,88.6488807201386     C 16.5613262653351,88.6488807201386 16.5613262653351,58.5986285209656 16.5613262653351,58.5986285209656     C 16.5613262653351,54.5150330066681 21.5929272174835,51.2046222686768 27.7998147010803,51.2046222686768     C 34.0066529512405,51.2046222686768 39.0383453369141,54.5150330066681 39.0383453369141,58.5986285209656     C 39.0383453369141,58.5986285209656 39.0383453369141,88.6488807201386 39.0383453369141,88.6488807201386     C 39.0383453369141,88.6488807201386 40.9853237867355,88.6488807201386 40.9853237867355,88.6488807201386     C 40.9853237867355,88.6488807201386 40.9853237867355,91.9646573066711 40.9853237867355,91.9646573066711     C 40.9853237867355,91.9646573066711 14.8498383760452,91.9646573066711 14.8498383760452,91.9646573066711     C 14.8498383760452,91.9646573066711 14.8498383760452,88.6488807201386 14.8498383760452,88.6488807201386     Z     M 29.2695101499558,88.5719554424286     C 29.2695101499558,88.5719554424286 35.6672686338425,88.5719554424286 35.6672686338425,88.5719554424286     C 35.6672686338425,88.5719554424286 35.6672686338425,79.5025701522827 35.6672686338425,79.5025701522827     C 35.6672686338425,79.5025701522827 29.2695101499558,79.5025701522827 29.2695101499558,79.5025701522827     C 29.2695101499558,79.5025701522827 29.2695101499558,88.5719554424286 29.2695101499558,88.5719554424286     Z     M 29.2695101499558,77.1669552326202     C 29.2695101499558,77.1669552326202 35.6672686338425,77.1669552326202 35.6672686338425,77.1669552326202     C 35.6672686338425,77.1669552326202 35.6672686338425,65.5001666545868 35.6672686338425,65.5001666545868     C 35.6672686338425,65.5001666545868 29.2695101499558,65.5001666545868 29.2695101499558,65.5001666545868     C 29.2695101499558,65.5001666545868 29.2695101499558,77.1669552326202 29.2695101499558,77.1669552326202     Z     M 29.2695101499558,63.1645517349243     C 29.2695101499558,63.1645517349243 35.6672686338425,63.1645517349243 35.6672686338425,63.1645517349243     C 35.6672686338425,63.1645517349243 35.6672686338425,59.167120218277 35.6672686338425,59.167120218277     C 35.6672686338425,56.6390590667725 32.9118138551712,54.5356833934784 29.2695101499558,54.0828087329865     C 29.2695101499558,54.0828087329865 29.2695101499558,63.1645517349243 29.2695101499558,63.1645517349243     Z     M 19.9333806037903,88.5719554424286     C 19.9333806037903,88.5719554424286 26.4681135416031,88.5719554424286 26.4681135416031,88.5719554424286     C 26.4681135416031,88.5719554424286 26.4681135416031,79.5025701522827 26.4681135416031,79.5025701522827     C 26.4681135416031,79.5025701522827 19.9333806037903,79.5025701522827 19.9333806037903,79.5025701522827     C 19.9333806037903,79.5025701522827 19.9333806037903,88.5719554424286 19.9333806037903,88.5719554424286     Z     M 19.9333806037903,77.1669552326202     C 19.9333806037903,77.1669552326202 26.4681135416031,77.1669552326202 26.4681135416031,77.1669552326202     C 26.4681135416031,77.1669552326202 26.4681135416031,65.5001666545868 26.4681135416031,65.5001666545868     C 26.4681135416031,65.5001666545868 19.9333806037903,65.5001666545868 19.9333806037903,65.5001666545868     C 19.9333806037903,65.5001666545868 19.9333806037903,77.1669552326202 19.9333806037903,77.1669552326202     Z     M 19.9333806037903,63.1645517349243     C 19.9333806037903,63.1645517349243 26.4681135416031,63.1645517349243 26.4681135416031,63.1645517349243     C 26.4681135416031,63.1645517349243 26.4681135416031,54.0667259693146 26.4681135416031,54.0667259693146     C 22.7581349611282,54.4832739830017 19.9333806037903,56.6075069904327 19.9333806037903,59.167120218277     C 19.9333806037903,59.167120218277 19.9333806037903,63.1645517349243 19.9333806037903,63.1645517349243     Z " fill-rule="nonzero" id="house-shape-PhotoshopSupply.com"/></svg>