<svg xmlns="http://www.w3.org/2000/svg" viewBox="0 0 64 64"><title>crankset-bicycle-drive-wheel-gear</title><g id="filled_outline" data-name="filled outline"><path d="M60.979,32.815c.008-.272.021-.542.021-.815s-.013-.543-.021-.815l-5.532-2.079a23.549,23.549,0,0,0-.674-3.409l4.32-4.041q-.291-.76-.623-1.5l-5.913.2a23.728,23.728,0,0,0-1.932-2.887l2.443-5.383q-.559-.592-1.152-1.152l-5.383,2.443a23.728,23.728,0,0,0-2.887-1.932l.2-5.913c-.493-.221-.992-.43-1.5-.623L38.3,9.227a23.509,23.509,0,0,0-3.408-.674L32.815,3.021C32.543,3.013,32.273,3,32,3s-.543.013-.815.021L29.106,8.553a23.509,23.509,0,0,0-3.408.674l-4.042-4.32c-.507.193-1.006.4-1.5.623l.2,5.913a23.728,23.728,0,0,0-2.887,1.932l-5.383-2.443q-.592.559-1.152,1.152l2.443,5.383a23.728,23.728,0,0,0-1.932,2.887l-5.913-.2q-.332.739-.623,1.5L9.227,25.7a23.549,23.549,0,0,0-.674,3.409L3.021,31.185C3.013,31.457,3,31.727,3,32s.013.543.021.815l5.532,2.079A23.509,23.509,0,0,0,9.227,38.3l-4.32,4.042c.193.507.4,1.006.623,1.5l5.913-.2a23.64,23.64,0,0,0,1.932,2.886l-2.443,5.384q.559.593,1.152,1.152l5.383-2.443a23.728,23.728,0,0,0,2.887,1.932l-.2,5.913q.739.332,1.5.623l4.041-4.32a23.549,23.549,0,0,0,3.409.674l2.079,5.532c.272.008.542.021.815.021s.543-.013.815-.021l2.079-5.532a23.549,23.549,0,0,0,3.409-.674l4.041,4.32q.761-.291,1.5-.623l-.2-5.913a23.728,23.728,0,0,0,2.887-1.932l5.383,2.443q.593-.559,1.152-1.152l-2.443-5.384a23.64,23.64,0,0,0,1.932-2.886l5.913.2c.221-.493.43-.992.623-1.5L54.773,38.3a23.509,23.509,0,0,0,.674-3.408Zm-15.525-7.4-5.893,1.2a4,4,0,0,1-4.775-3.469l-.677-5.984a1.339,1.339,0,0,1,1.6-1.469,16.733,16.733,0,0,1,10.642,7.741A1.338,1.338,0,0,1,45.454,25.411Zm-15.563-8.25-.677,5.984a4,4,0,0,1-4.775,3.469l-5.893-1.2a1.338,1.338,0,0,1-.9-1.978,16.733,16.733,0,0,1,10.642-7.741A1.339,1.339,0,0,1,29.891,17.161ZM15.269,32c0-.493.022-.982.064-1.464a1.348,1.348,0,0,1,1.9-1.118l5.486,2.5a4,4,0,0,1,1.824,5.613l-2.962,5.228A1.34,1.34,0,0,1,19.418,43,16.626,16.626,0,0,1,15.269,32ZM32,48.731a16.6,16.6,0,0,1-6.59-1.359,1.336,1.336,0,0,1-.427-2.126L29.049,40.8a4,4,0,0,1,5.9,0l4.066,4.444a1.336,1.336,0,0,1-.427,2.126A16.6,16.6,0,0,1,32,48.731Zm10.421-5.977-2.962-5.228a4,4,0,0,1,1.824-5.613l5.486-2.5a1.348,1.348,0,0,1,1.9,1.118c.042.482.064.971.064,1.464a16.626,16.626,0,0,1-4.149,11A1.34,1.34,0,0,1,42.421,42.754Z" style="fill:#b0b0ae"/><path d="M55.447,29.106a23.549,23.549,0,0,0-.674-3.409l4.32-4.041q-.291-.76-.623-1.5l-5.913.2c-.038-.069-.084-.133-.124-.2C44.175,28.37,33.406,34.819,23.348,39.631l-1.769,3.123A1.34,1.34,0,0,1,19.418,43q-.485-.552-.92-1.146c-2.243.987-4.419,1.887-6.492,2.7a23.649,23.649,0,0,0,1.369,1.973l-2.443,5.384q.559.593,1.152,1.152l5.383-2.443a23.728,23.728,0,0,0,2.887,1.932l-.2,5.913q.739.332,1.5.623l4.041-4.32a23.549,23.549,0,0,0,3.409.674l2.079,5.532c.272.008.542.021.815.021s.543-.013.815-.021l2.079-5.532a23.549,23.549,0,0,0,3.409-.674l4.041,4.32q.761-.291,1.5-.623l-.2-5.913a23.728,23.728,0,0,0,2.887-1.932l5.383,2.443q.593-.559,1.152-1.152l-2.443-5.384a23.64,23.64,0,0,0,1.932-2.886l5.913.2c.221-.493.43-.992.623-1.5L54.773,38.3a23.536,23.536,0,0,0,.674-3.408l5.532-2.079c.008-.272.021-.542.021-.815s-.013-.543-.021-.815ZM38.59,47.372a16.657,16.657,0,0,1-13.18,0,1.336,1.336,0,0,1-.427-2.126L29.049,40.8a4,4,0,0,1,5.9,0l4.066,4.444A1.336,1.336,0,0,1,38.59,47.372ZM44.582,43a1.34,1.34,0,0,1-2.161-.247l-2.962-5.228a4,4,0,0,1,1.824-5.613l5.486-2.5a1.348,1.348,0,0,1,1.9,1.118c.042.482.064.971.064,1.464A16.626,16.626,0,0,1,44.582,43Z" style="fill:#a6a6a4"/><rect x="31" y="11" width="2" height="2" style="fill:#737373"/><rect x="13" y="25" width="2" height="2" style="fill:#737373"/><rect x="20" y="47" width="2" height="2" style="fill:#737373"/><rect x="42" y="47" width="2" height="2" style="fill:#737373"/><rect x="49" y="25" width="2" height="2" style="fill:#737373"/><path d="M61,8.657h0A5.657,5.657,0,0,0,55.343,3h0a5.657,5.657,0,0,0-4,1.657L28,28a5.657,5.657,0,0,0,0,8h0a5.657,5.657,0,0,0,8,0L59.343,12.657A5.657,5.657,0,0,0,61,8.657Z" style="fill:#737373"/><circle cx="32" cy="32" r="2" style="fill:#b0b0ae"/><circle cx="55" cy="9" r="2" style="fill:#b0b0ae"/><rect x="37.645" y="17.729" width="9.251" height="2" transform="translate(-0.863 35.376) rotate(-45)" style="fill:#8a8a8a"/><rect x="46.503" y="12.511" width="1.974" height="2" transform="translate(4.356 37.537) rotate(-45)" style="fill:#8a8a8a"/><path d="M61.333,30.254l-4.975-1.871c-.124-.83-.278-1.611-.467-2.362l3.881-3.63a1,1,0,0,0,.255-1.079c-.2-.532-.416-1.053-.645-1.562a1,1,0,0,0-.945-.589l-4.322.139,5.935-5.936A6.657,6.657,0,1,0,50.636,3.95L44.7,9.885l.138-4.323a1,1,0,0,0-.59-.945c-.51-.228-1.03-.447-1.56-.644a1,1,0,0,0-1.08.254L37.979,8.11c-.749-.188-1.54-.345-2.363-.468L33.745,2.668a1,1,0,0,0-.9-.647q-.847-.031-1.7,0a1,1,0,0,0-.9.647L28.384,7.642c-.823.123-1.614.28-2.363.468l-3.63-3.883a1,1,0,0,0-1.08-.254c-.53.2-1.05.416-1.56.644a1,1,0,0,0-.59.945l.17,5.317c-.692.419-1.358.866-1.992,1.334l-4.847-2.194a1,1,0,0,0-1.1.186c-.4.381-.806.784-1.188,1.187a1,1,0,0,0-.185,1.1l2.194,4.847c-.47.634-.916,1.3-1.333,1.992l-5.318-.171a1.014,1.014,0,0,0-.944.589c-.229.509-.448,1.03-.645,1.562a1,1,0,0,0,.255,1.079l3.881,3.63c-.189.751-.343,1.532-.467,2.362L2.667,30.254a1,1,0,0,0-.646.9C2.01,31.436,2,31.718,2,32s.01.564.021.846a1,1,0,0,0,.646.9l4.975,1.871c.124.83.278,1.611.467,2.362l-3.881,3.63a1,1,0,0,0-.255,1.079c.2.532.416,1.053.645,1.562a1.01,1.01,0,0,0,.944.589l5.318-.171c.417.691.863,1.358,1.333,1.992l-2.194,4.847a1,1,0,0,0,.185,1.1c.382.4.785.806,1.188,1.187a1,1,0,0,0,1.1.186l4.847-2.194c.634.468,1.3.915,1.992,1.334l-.17,5.317a1,1,0,0,0,.59.945c.51.228,1.03.447,1.56.644a1,1,0,0,0,1.08-.254l3.63-3.883c.749.188,1.54.345,2.363.468l1.871,4.974a1,1,0,0,0,.9.647c.283.011.566.021.848.021s.565-.01.848-.021a1,1,0,0,0,.9-.647l1.871-4.974c.823-.123,1.614-.28,2.363-.468l3.63,3.883a1,1,0,0,0,1.08.254c.53-.2,1.05-.416,1.56-.644a1,1,0,0,0,.59-.945l-.17-5.317c.692-.419,1.358-.866,1.992-1.334l4.847,2.194a1,1,0,0,0,1.1-.186c.4-.381.806-.784,1.188-1.187a1,1,0,0,0,.185-1.1L51.787,46.66c.47-.634.916-1.3,1.333-1.992l5.317.171a1,1,0,0,0,.945-.589c.229-.509.448-1.03.645-1.562a1,1,0,0,0-.255-1.079l-3.881-3.63c.189-.751.343-1.532.467-2.362l4.975-1.871a1,1,0,0,0,.646-.9c.011-.282.021-.564.021-.846s-.01-.564-.021-.846A1,1,0,0,0,61.333,30.254ZM52.05,5.364a4.657,4.657,0,0,1,6.586,6.586L35.293,35.293a4.657,4.657,0,0,1-6.586-6.586ZM41.7,32.823l5.487-2.5a.33.33,0,0,1,.311.015.354.354,0,0,1,.176.28q.059.681.059,1.377a15.674,15.674,0,0,1-3.9,10.341.3.3,0,0,1-.262.1.354.354,0,0,1-.277-.179l-2.962-5.227a3,3,0,0,1,1.368-4.21Zm-7.483,8.654,4.065,4.443a.356.356,0,0,1,.085.319.29.29,0,0,1-.17.215,15.725,15.725,0,0,1-12.388,0,.29.29,0,0,1-.17-.215.355.355,0,0,1,.084-.318l4.066-4.444a3,3,0,0,1,4.428,0ZM27,25.122a2.952,2.952,0,0,1-2.362.512l-5.894-1.2a.365.365,0,0,1-.256-.208.293.293,0,0,1,.013-.276,15.792,15.792,0,0,1,10-7.28.318.318,0,0,1,.067-.007.3.3,0,0,1,.2.083.353.353,0,0,1,.118.306h0l-.677,5.984A2.974,2.974,0,0,1,27,25.122Zm8.1-8.072a.361.361,0,0,1,.119-.311.292.292,0,0,1,.265-.074,15.532,15.532,0,0,1,1.871.562l-2.008,2.008ZM60,32.111l-4.9,1.843a1,1,0,0,0-.641.809,22.5,22.5,0,0,1-.65,3.265,1,1,0,0,0,.279,1l3.825,3.577c-.029.071-.058.142-.088.211l-5.232-.168a1,1,0,0,0-.9.5,23.564,23.564,0,0,1-1.85,2.762,1,1,0,0,0-.123,1.027l2.16,4.77-.167.166-4.77-2.159a1,1,0,0,0-1.027.122,23.543,23.543,0,0,1-2.763,1.852,1,1,0,0,0-.5.9l.167,5.232-.211.088L39.03,54.087a1,1,0,0,0-1-.279,22.872,22.872,0,0,1-3.266.65,1,1,0,0,0-.808.64L32.11,60h-.22l-1.844-4.9a1,1,0,0,0-.808-.64,22.872,22.872,0,0,1-3.266-.65,1,1,0,0,0-1,.279l-3.577,3.825-.211-.088.167-5.232a1,1,0,0,0-.5-.9,23.46,23.46,0,0,1-2.763-1.852,1,1,0,0,0-1.027-.122l-4.77,2.159-.167-.166,2.16-4.77a1,1,0,0,0-.123-1.027,23.564,23.564,0,0,1-1.85-2.762.991.991,0,0,0-.9-.5l-5.232.168c-.03-.069-.059-.14-.088-.211L9.913,39.03a1,1,0,0,0,.279-1,22.5,22.5,0,0,1-.65-3.265,1,1,0,0,0-.641-.809L4,32.111c0-.037,0-.074,0-.111s0-.074,0-.111l4.9-1.843a1,1,0,0,0,.641-.809,22.5,22.5,0,0,1,.65-3.265,1,1,0,0,0-.279-1L6.088,21.393c.029-.071.058-.142.088-.211l5.232.168a1.01,1.01,0,0,0,.9-.5,23.564,23.564,0,0,1,1.85-2.762,1,1,0,0,0,.123-1.027l-2.16-4.77.167-.166,4.77,2.159a1,1,0,0,0,1.027-.122,23.46,23.46,0,0,1,2.763-1.852,1,1,0,0,0,.5-.9l-.167-5.232.211-.088L24.97,9.913a1,1,0,0,0,1,.279,22.872,22.872,0,0,1,3.266-.65,1,1,0,0,0,.808-.64L31.89,4h.22l1.844,4.9a1,1,0,0,0,.808.64,22.872,22.872,0,0,1,3.266.65,1,1,0,0,0,1-.279l3.577-3.825.211.088-.167,5.232a.987.987,0,0,0,.093.433L38.891,15.7a17.577,17.577,0,0,0-2.962-.981,2.271,2.271,0,0,0-2.04.535,2.367,2.367,0,0,0-.773,2.023l.426,3.772L29.71,24.876a4.971,4.971,0,0,0,.5-1.619l.678-5.984h0a2.362,2.362,0,0,0-.773-2.021,2.276,2.276,0,0,0-2.048-.535,17.8,17.8,0,0,0-11.279,8.2,2.275,2.275,0,0,0-.126,2.109,2.366,2.366,0,0,0,1.686,1.362l5.893,1.2a4.958,4.958,0,0,0,3.146-.393l-.092.092a6.652,6.652,0,0,0-1.835,5.912A5,5,0,0,0,23.131,31l-5.486-2.5a2.349,2.349,0,0,0-3.308,1.942c-.045.513-.067,1.035-.067,1.551a17.687,17.687,0,0,0,4.4,11.661,2.318,2.318,0,0,0,1.97.768,2.365,2.365,0,0,0,1.813-1.182l2.962-5.227A5,5,0,0,0,26,34.861a6.588,6.588,0,0,0,5.146,3.731,5,5,0,0,0-2.831,1.534l-4.068,4.445a2.361,2.361,0,0,0-.563,2.088,2.269,2.269,0,0,0,1.334,1.632,17.661,17.661,0,0,0,13.97,0,2.269,2.269,0,0,0,1.334-1.632,2.362,2.362,0,0,0-.564-2.089l-4.067-4.444a4.993,4.993,0,0,0-2.831-1.534,6.61,6.61,0,0,0,3.85-1.885l1.26-1.26a4.985,4.985,0,0,0,.622,2.573l2.962,5.227h0a2.365,2.365,0,0,0,1.813,1.182,2.316,2.316,0,0,0,1.97-.769A17.682,17.682,0,0,0,49.73,32c0-.516-.022-1.038-.067-1.552a2.349,2.349,0,0,0-3.308-1.941L43.7,29.716l8.459-8.459a.975.975,0,0,0,.435.093l5.232-.168c.03.069.059.14.088.211L54.087,24.97a1,1,0,0,0-.279,1,22.5,22.5,0,0,1,.65,3.265,1,1,0,0,0,.641.809L60,31.889c0,.037,0,.074,0,.111S60,32.074,60,32.111ZM23.671,37.033,20.709,42.26a.354.354,0,0,1-.277.179.3.3,0,0,1-.262-.1A15.679,15.679,0,0,1,16.27,32q0-.7.059-1.376a.354.354,0,0,1,.176-.281.345.345,0,0,1,.17-.047.336.336,0,0,1,.141.032l5.487,2.5a3,3,0,0,1,1.368,4.21Z"/><rect x="31" y="11" width="2" height="2"/><rect x="13" y="25" width="2" height="2"/><rect x="20" y="47" width="2" height="2"/><rect x="42" y="47" width="2" height="2"/><rect x="49" y="25" width="2" height="2"/><path d="M32,35a3,3,0,1,0-3-3A3,3,0,0,0,32,35Zm0-4a1,1,0,1,1-1,1A1,1,0,0,1,32,31Z"/><path d="M55,12a3,3,0,1,0-3-3A3,3,0,0,0,55,12Zm0-4a1,1,0,1,1-1,1A1,1,0,0,1,55,8Z"/><rect x="37.645" y="17.729" width="9.251" height="2" transform="translate(-0.863 35.376) rotate(-45)"/><rect x="46.503" y="12.511" width="1.974" height="2" transform="translate(4.356 37.537) rotate(-45)"/></g></svg>