<svg xmlns="http://www.w3.org/2000/svg" viewBox="0 0 64 64"><title>cruisers-bikes-bicycle-cycling-riding</title><g id="filled_outline" data-name="filled outline"><path d="M13,48A11,11,0,1,1,24,37,11.013,11.013,0,0,1,13,48Zm0-20a9,9,0,1,0,9,9A9.011,9.011,0,0,0,13,28Z" style="fill:#545454"/><path d="M51,48A11,11,0,1,1,62,37,11.013,11.013,0,0,1,51,48Zm0-20a9,9,0,1,0,9,9A9.011,9.011,0,0,0,51,28Z" style="fill:#545454"/><path d="M32,12h0a1,1,0,0,0,1,1h5V11H33A1,1,0,0,0,32,12Z" style="fill:#545454"/><path d="M28,40c-6.03,0-15.784-1.937-16.2-2.02a1,1,0,0,1-.652-1.51A39.158,39.158,0,0,1,43,20v2A37.1,37.1,0,0,0,13.725,36.308,96.123,96.123,0,0,0,28,38c3.719,0,6.084-3.974,8.372-7.818C38.57,26.489,40.647,23,44,23v2c-2.216,0-4.01,3.014-5.91,6.2C35.637,35.328,32.855,40,28,40Z" style="fill:#fdbb3d"/><rect x="24.5" y="19.376" width="2" height="20.248" transform="translate(-8.626 10.634) rotate(-20.225)" style="fill:#fdbb3d"/><path d="M48.893,31.544,43.186,18.229l1.521-1.522a1,1,0,0,0,.263-.95l-1-4A1,1,0,0,0,43,11H38v2h4.219l.674,2.693-1.6,1.6a1,1,0,0,0-.212,1.1l6,14a.92.92,0,0,0,.062.121l3,5,1.714-1.03Z" style="fill:#fdbb3d"/><path d="M17,18.165h0a1.559,1.559,0,0,0,.7,1.3l1.151.767a3,3,0,0,0,2.488.389l4.839-1.383A1.139,1.139,0,0,0,27,18.14h0A1.139,1.139,0,0,0,25.86,17H20l-.946-.315A1.56,1.56,0,0,0,17,18.165Z" style="fill:#545454"/><path d="M29,43a4,4,0,1,1,4-4A4,4,0,0,1,29,43Zm0-6a2,2,0,1,0,2,2A2,2,0,0,0,29,37Z" style="fill:#c4c4c2"/><path d="M35,45H31a1,1,0,0,1-.929-.628l-2-5,1.858-.744L31.677,43H35Z" style="fill:#d1d1cf"/><path d="M13,48a11.01,11.01,0,0,0,10.636-8.242q.744.07,1.469.122A4,4,0,0,0,29,43a3.951,3.951,0,0,0,.5-.051l.569,1.423A1,1,0,0,0,31,45h4V43H31.677l-.315-.789a3.929,3.929,0,0,0,1.534-4.09C35,36.38,36.608,33.7,38.09,31.205c1.875-3.15,3.648-6.122,5.825-6.2l1.171,2.733a10.917,10.917,0,1,0,1.779-.927l-3.679-8.584,1.521-1.522a1,1,0,0,0,.263-.95l-1-4A1,1,0,0,0,43,11H32v2H42.219l.674,2.693-1.6,1.6a1,1,0,0,0-.212,1.1l.7,1.635a38.159,38.159,0,0,0-17.047,4.5l-1.281-3.478,3-.855A2.14,2.14,0,0,0,25.86,16h-5.7l-.792-.264A2.56,2.56,0,0,0,17.14,20.3l1.151.767a3.939,3.939,0,0,0,3.232.536l1.451,3.939a40.359,40.359,0,0,0-3.644,2.482A10.995,10.995,0,1,0,13,48ZM47.081,32.394a.92.92,0,0,0,.062.121l3,5,1.714-1.03-2.964-4.941-1.24-2.892a9.018,9.018,0,1,1-1.768.952Zm-19.81,7.592c.245.006.494.014.729.014.108,0,.209-.014.315-.019l.4.99A1.992,1.992,0,0,1,27.271,39.986Zm.013-2a2.009,2.009,0,0,1,.183-.258l.1.262C27.47,37.992,27.379,37.992,27.284,37.989Zm2.314-.258-.256-.7a1.98,1.98,0,0,1,.92.426A5.369,5.369,0,0,1,29.6,37.731Zm.97,2.5-.248-.621c.22-.076.434-.164.645-.26A1.983,1.983,0,0,1,30.568,40.227ZM42.63,22.007,43.1,23.1c-2.835.564-4.732,3.735-6.725,7.084a26.735,26.735,0,0,1-4.434,6.125A3.977,3.977,0,0,0,29,35a3.9,3.9,0,0,0-.393.04l-3.178-8.625A36.316,36.316,0,0,1,42.63,22.007Zm-21.571-2.35A1.994,1.994,0,0,1,19.4,19.4l-1.15-.767a.557.557,0,0,1-.25-.466.551.551,0,0,1,.233-.455.561.561,0,0,1,.324-.107.579.579,0,0,1,.18.03l.947.316A1,1,0,0,0,20,18h5.86a.14.14,0,0,1,.038.275Zm2.613,7.776,3.053,8.284a4,4,0,0,0-1.546,2.165c-.4-.029-.807-.065-1.218-.1.018-.258.039-.516.039-.779a10.961,10.961,0,0,0-3.125-7.665C21.737,28.691,22.669,28.052,23.672,27.433ZM22,37c0,.192-.017.379-.029.567-3.228-.382-6.427-.928-8.246-1.259A36.81,36.81,0,0,1,19.3,30.58,8.969,8.969,0,0,1,22,37Zm-9-9a8.94,8.94,0,0,1,4.7,1.337,35.635,35.635,0,0,0-6.545,7.133,1,1,0,0,0,.652,1.51c.283.057,4.965.987,9.824,1.565A9,9,0,1,1,13,28Z"/></g></svg>