<svg xmlns="http://www.w3.org/2000/svg" viewBox="0 0 64 64"><title>cycling-short-riding-bicycle-wear</title><g id="filled_outline" data-name="filled outline"><polygon points="55.698 57 52.812 18.755 52.812 18.755 52 8 52 3 12 3 12 8 9.094 46.511 8.302 57 8 61 24 61 30 32 34 32 40 61 56 61 55.698 57" style="fill:#616161"/><path d="M52.812,18.755h0l-.77-10.2C39.71,23.96,20.733,35.894,9.423,42.149l-.329,4.362L8.3,57,8,61H24l6-29h4l6,29H56l-.3-4Z" style="fill:#595959"/><path d="M39.222,35.192A9.476,9.476,0,0,0,33,19.025V8H52V6H12V8H31V19.025a9.476,9.476,0,0,0-6.222,16.167L27.9,38.311a1,1,0,0,0,.738.287l.407-1.97-2.85-2.85A7.485,7.485,0,0,1,31.485,21h1.03a7.485,7.485,0,0,1,5.293,12.778l-2.85,2.85.42,2.03a.994.994,0,0,0,.662-.284Z" style="fill:#4d4d4d"/><path d="M21.889,56c-.069-.6-.138-1.23-.209-1.9a92.268,92.268,0,0,0-4.736-22.354c-.71-2.043-1.434-3.92-2.134-5.736a59.246,59.246,0,0,1-2.762-8.219.993.993,0,0,0-.73-.748l-.328,4.344c.545,1.657,1.21,3.414,1.953,5.343.7,1.8,1.413,3.662,2.113,5.673a90.521,90.521,0,0,1,4.635,21.909c.063.591.124,1.149.185,1.689H8.377L8.3,57l-.076,1H24.621l.412-1.993c-.012,0-.021-.007-.033-.007Z" style="fill:#4d4d4d"/><path d="M55.623,56H44.194c.061-.54.122-1.1.185-1.689A90.533,90.533,0,0,1,49.015,32.4c.7-2.011,1.418-3.873,2.112-5.673.717-1.86,1.362-3.56,1.9-5.167l-.212-2.807h0l-.127-1.686a.987.987,0,0,0-.663.721,59.094,59.094,0,0,1-2.761,8.219c-.7,1.816-1.425,3.693-2.135,5.736A92.207,92.207,0,0,0,42.391,54.1c-.072.671-.141,1.3-.21,1.9H39c-.012,0-.021.006-.033.007L39.379,58h16.4L55.7,57Z" style="fill:#4d4d4d"/><path d="M7.267,61.68A1,1,0,0,0,8,62H24a1,1,0,0,0,.979-.8L30.814,33h2.372l5.835,28.2A1,1,0,0,0,40,62H56a1,1,0,0,0,1-1.075L53,8V3a1,1,0,0,0-1-1H12a1,1,0,0,0-1,1l0,4.925-4,53A.993.993,0,0,0,7.267,61.68ZM34.979,31.8A1,1,0,0,0,34,31H30a1,1,0,0,0-.979.8L28.2,35.782l-2-2A7.485,7.485,0,0,1,31.485,21h1.03a7.485,7.485,0,0,1,5.293,12.778l-2,2ZM54.922,60H40.814L40.4,58h14.37ZM52.2,23.905,54.62,56H44.194c.061-.54.122-1.1.185-1.689A90.579,90.579,0,0,1,49.015,32.4c.688-1.971,1.394-3.8,2.076-5.573C51.485,25.8,51.851,24.841,52.2,23.905ZM51,8.075l.8,10.6a71.287,71.287,0,0,1-2.577,7.43c-.689,1.786-1.4,3.632-2.1,5.636A92.252,92.252,0,0,0,42.391,54.1c-.072.671-.141,1.3-.21,1.9H39.987l-3.7-17.875,2.933-2.933A9.476,9.476,0,0,0,33,19.025V8H51ZM13,4H51V6H13Zm0,4H31V19.025a9.476,9.476,0,0,0-6.222,16.167l2.933,2.933L24.013,56H21.889c-.069-.6-.138-1.23-.209-1.9a92.328,92.328,0,0,0-4.736-22.358c-.71-2.043-1.435-3.923-2.136-5.741a68.046,68.046,0,0,1-2.6-7.529ZM11.813,23.739c.354.955.726,1.935,1.129,2.981.7,1.8,1.413,3.666,2.114,5.678a90.582,90.582,0,0,1,4.635,21.913c.063.591.124,1.149.185,1.689H9.38ZM9.229,58H23.6l-.413,2H9.078Z"/></g></svg>