<svg xmlns="http://www.w3.org/2000/svg" viewBox="0 0 64 64"><title>frame-bicycle-bike-parts-body</title><g id="filled_outline" data-name="filled outline"><path d="M55.937,32.688,52,18l-4.414.549L47.875,20H21l-1-4-4,1,3.729,11.744L3,48v1l2,1v1L3,52v2H28.449a4,4,0,0,0,2.7-1.046L52,34h0ZM8.515,48,20.98,33.436,25.4,50H9Zm20.6.422L22.6,24H48.375l1.2,4.214Z" style="fill:#e8594a"/><polygon points="58 54 52 34 55.937 32.688 61 53 58 54" style="fill:#616161"/><polygon points="47.586 18.549 45.917 10.917 50 10 52 18 47.586 18.549" style="fill:#616161"/><circle cx="28" cy="51" r="3" style="fill:#616161"/><path d="M61.971,52.758,56.908,32.446l0-.009v-.008L52.966,17.741h0l-2-7.984a1,1,0,0,0-1.189-.733L45.7,9.941a1,1,0,0,0-.758,1.189l1.666,7.617.05.253H21.781l-.811-3.243a1,1,0,0,0-1.212-.727l-4,1a1,1,0,0,0-.711,1.273l3.558,11.209L2.245,47.344A1,1,0,0,0,2,48v1a1,1,0,0,0,.553.9l1.211.6-1.211.6A1,1,0,0,0,2,52v2a1,1,0,0,0,1,1H28.448a4.988,4.988,0,0,0,3.37-1.306L51.5,35.808l5.544,18.479a1,1,0,0,0,1.274.662l3-1A1,1,0,0,0,61.971,52.758Zm-12.7-41.569,1.489,5.958-2.388.3-1.262-5.77ZM4,52.618,5.447,51.9A1,1,0,0,0,6,51V50a1,1,0,0,0-.553-.9L4,48.382,20.483,29.4a1,1,0,0,0,.2-.959L17.275,17.712l2-.5.758,3.03A1,1,0,0,0,21,21H47.875a1,1,0,0,0,.98-1.2l-.078-.4L51.26,19.1l3.468,12.937-3.044,1.014a.978.978,0,0,0-.347.2l-.01.006L31.984,50.841a3.981,3.981,0,0,0-1.176-2.684L50.282,28.925a1,1,0,0,0,.259-.986l-1.2-4.214A1,1,0,0,0,48.375,23H22.6a1,1,0,0,0-.966,1.258L27.71,47.029a3.976,3.976,0,0,0-1.81.581L21.944,33.172a1,1,0,0,0-1.724-.386L7.756,47.35a1,1,0,0,0-.212.885l.484,2A1,1,0,0,0,9,51H24a3.959,3.959,0,0,0,.556,2H4ZM26,51a2,2,0,1,1,2,2A2,2,0,0,1,26,51ZM23.905,25H47.621l.834,2.919L29.639,46.5Zm.3,24H9.787l-.18-.738L20.514,35.519Zm34.455,3.726L53.236,34.642l1.993-.664,4.577,18.366Z"/></g></svg>