<svg xmlns="http://www.w3.org/2000/svg" viewBox="0 0 64 64"><title>kid-bike-bicycle-riding-ride</title><g id="filled_outline" data-name="filled outline"><polygon points="20 39 15.414 39 18.707 35.707 17.293 34.293 14 37.586 14 33 12 33 12 37.586 8.707 34.293 7.293 35.707 10.586 39 6 39 6 41 10.586 41 7.293 44.293 8.707 45.707 12 42.414 12 47 14 47 14 42.414 17.293 45.707 18.707 44.293 15.414 41 20 41 20 39" style="fill:#d1d1cf"/><path d="M13,30A10,10,0,1,0,23,40,10,10,0,0,0,13,30Zm0,16a6,6,0,1,1,6-6A6,6,0,0,1,13,46Z" style="fill:#8f6349"/><polygon points="58 39 53.414 39 56.707 35.707 55.293 34.293 52 37.586 52 33 50 33 50 37.586 46.707 34.293 45.293 35.707 48.586 39 44 39 44 41 48.586 41 45.293 44.293 46.707 45.707 50 42.414 50 47 52 47 52 42.414 55.293 45.707 56.707 44.293 53.414 41 58 41 58 39" style="fill:#d1d1cf"/><path d="M51,30A10,10,0,1,0,61,40,10,10,0,0,0,51,30Zm0,16a6,6,0,1,1,6-6A6,6,0,0,1,51,46Z" style="fill:#8f6349"/><path d="M51.9,40.553,42.873,22.51l.056-.139-.156-.062L41.217,19.2l2.655-2.616-1.414-1.414-3.165,3.126a1,1,0,0,0-.188,1.154L40.682,22.6,34.077,39.114A2.985,2.985,0,0,1,31.292,41H28.781L24.814,25.016l-1.939.484,1.941,7.884L12.641,38.066A1,1,0,0,0,12,39v2a1,1,0,0,0,.89.994l9,1A1,1,0,0,0,22,43h9.292a4.975,4.975,0,0,0,4.643-3.144L41.879,25l8.226,16.452ZM14,40.1v-.417l11.305-4.348L26.72,41H22.056Z" style="fill:#edb9b9"/><path d="M43.872,16.581l-1.414-1.414-1.567,1.548a3.651,3.651,0,0,0,.983,1.834Z" style="fill:#eba9a9"/><polygon points="24.814 25.016 22.875 25.5 23.294 27.201 25.233 26.703 24.814 25.016" style="fill:#eba9a9"/><circle cx="44" cy="16" r="2" style="fill:#8f6349"/><path d="M18,23.476h0a1.236,1.236,0,0,0,.683,1.105l1.994,1a4,4,0,0,0,2.759.3L30,24.239h0a2,2,0,0,0-2-2H19.236A1.236,1.236,0,0,0,18,23.476Z" style="fill:#8f6349"/><path d="M51,29a10.941,10.941,0,0,0-4.416.932L41.217,19.2l.889-.889A2.972,2.972,0,0,0,44,19a3.04,3.04,0,1,0-2.946-2.468l-1.761,1.761a1,1,0,0,0-.188,1.154l1.58,3.159-6.6,16.51A3,3,0,0,1,31.29,41H28.781l-3.63-14.518,5.091-1.273a1,1,0,0,0,.758-.97,3,3,0,0,0-3-3H19.236a2.237,2.237,0,0,0-1,4.237l1.993,1A5.006,5.006,0,0,0,22.466,27a5.078,5.078,0,0,0,.738-.061l1.612,6.445-2.418.929A10.991,10.991,0,1,0,23.574,43H31.29a4.989,4.989,0,0,0,4.648-3.139L41.882,25l2.949,5.9A10.994,10.994,0,1,0,51,29ZM44,15a1,1,0,1,1-1,1A1,1,0,0,1,44,15ZM13,49a9,9,0,1,1,7.5-13.958l-1.929.742a6.991,6.991,0,1,0,.873,6.939l2.045.227A9.007,9.007,0,0,1,13,49Zm2.785-10,1.889-.726A4.812,4.812,0,0,1,17.9,39Zm1.527,3.486c-.051.087-.089.183-.145.267l-.319-.319Zm-3.243-4.969L14,37.544V35.1a4.961,4.961,0,0,1,1.753.732Zm1.684,6.65A4.961,4.961,0,0,1,14,44.9V42.414ZM10.586,41,8.833,42.753A4.961,4.961,0,0,1,8.1,41ZM8.1,39a4.961,4.961,0,0,1,.732-1.753L10.586,39ZM12,42.414V44.9a4.961,4.961,0,0,1-1.753-.732Zm-1.753-6.581A4.961,4.961,0,0,1,12,35.1v2.485Zm11.7,5.154-1.987-.22A7.2,7.2,0,0,0,20,40a6.961,6.961,0,0,0-.45-2.448l1.865-.717a8.787,8.787,0,0,1,.528,4.152Zm1.25-16.076a3.014,3.014,0,0,1-2.069-.227l-1.994-1a.24.24,0,0,1-.13-.211.237.237,0,0,1,.236-.237H28a1,1,0,0,1,.706.293ZM23.949,41c.03-.33.051-.662.051-1a10.907,10.907,0,0,0-.721-3.882l2.026-.779L26.72,41ZM50,42.414V44.9a4.961,4.961,0,0,1-1.753-.732Zm-.72-7.09A4.885,4.885,0,0,1,50,35.1v1.663Zm-2.447,7.429A4.961,4.961,0,0,1,46.1,41h2.485ZM46.1,39a4.961,4.961,0,0,1,.732-1.753L48.586,39ZM51,49a8.99,8.99,0,0,1-5.262-16.287l.908,1.816a6.991,6.991,0,1,0,1.73-1.014l-.9-1.8A9,9,0,1,1,51,49Zm2.414-10,1.753-1.753A4.961,4.961,0,0,1,55.9,39ZM55.9,41a4.961,4.961,0,0,1-.732,1.753L53.414,41ZM52,37.586V35.1a4.961,4.961,0,0,1,1.753.732Zm1.753,6.581A4.961,4.961,0,0,1,52,44.9V42.414Z"/></g></svg>