<svg xmlns="http://www.w3.org/2000/svg" viewBox="0 0 64 64"><title>outer-tire-bicycle-parts-bike</title><g id="filled_outline" data-name="filled outline"><path d="M32,3A29,29,0,1,0,61,32,29,29,0,0,0,32,3Zm0,51A22,22,0,1,1,54,32,22,22,0,0,1,32,54Z" style="fill:#616161"/><path d="M30,8a1,1,0,0,1-.707-1.707l4-4a1,1,0,1,1,1.414,1.414l-4,4A1,1,0,0,1,30,8Z" style="fill:#4d4d4d"/><path d="M31,62a1,1,0,0,1-.707-1.707l4-4a1,1,0,0,1,1.414,1.414l-4,4A1,1,0,0,1,31,62Z" style="fill:#4d4d4d"/><path d="M24.856,9.066a.988.988,0,0,1-.544-.161,1,1,0,0,1-.294-1.384L27.1,2.777a1,1,0,0,1,1.678,1.09L25.7,8.611A1,1,0,0,1,24.856,9.066Z" style="fill:#4d4d4d"/><path d="M37.061,61.678a1,1,0,0,1-.838-1.545L39.3,55.389a1,1,0,1,1,1.678,1.09L37.9,61.223A1,1,0,0,1,37.061,61.678Z" style="fill:#4d4d4d"/><path d="M20.048,11.178a1,1,0,0,1-.934-1.359l2.028-5.28a1,1,0,0,1,1.867.717l-2.028,5.28A1,1,0,0,1,20.048,11.178Z" style="fill:#4d4d4d"/><path d="M42.925,60.1a1,1,0,0,1-.934-1.359l2.028-5.28a1,1,0,0,1,1.867.717l-2.028,5.28A1,1,0,0,1,42.925,60.1Z" style="fill:#4d4d4d"/><path d="M15.784,14.244a.944.944,0,0,1-.158-.013,1,1,0,0,1-.831-1.143L15.68,7.5a1,1,0,0,1,1.976.312L16.771,13.4A1,1,0,0,1,15.784,14.244Z" style="fill:#4d4d4d"/><path d="M48.333,57.343a.953.953,0,0,1-.158-.013,1,1,0,0,1-.831-1.143l.885-5.587a1,1,0,0,1,1.976.312L49.32,56.5A1,1,0,0,1,48.333,57.343Z" style="fill:#4d4d4d"/><path d="M12.248,18.13a1,1,0,0,1-1-.947l-.3-5.65a1,1,0,1,1,2-.1l.3,5.649a1,1,0,0,1-.946,1.052Z" style="fill:#4d4d4d"/><path d="M53.046,53.52a1,1,0,0,1-1-.948l-.3-5.649a1,1,0,1,1,2-.106l.3,5.65a1,1,0,0,1-.946,1.052Z" style="fill:#4d4d4d"/><path d="M9.6,22.665a1,1,0,0,1-.966-.741L7.169,16.46A1,1,0,1,1,9.1,15.942l1.464,5.464a1,1,0,0,1-.707,1.225A1.013,1.013,0,0,1,9.6,22.665Z" style="fill:#4d4d4d"/><path d="M56.864,48.8a1,1,0,0,1-.965-.741l-1.464-5.464a1,1,0,1,1,1.932-.518l1.464,5.464a1,1,0,0,1-.707,1.225A1.015,1.015,0,0,1,56.864,48.8Z" style="fill:#4d4d4d"/><path d="M7.952,27.652a1,1,0,0,1-.892-.546l-2.568-5.04a1,1,0,0,1,1.782-.908L8.842,26.2a1,1,0,0,1-.89,1.454Z" style="fill:#4d4d4d"/><path d="M59.618,43.388a1,1,0,0,1-.892-.546L56.158,37.8a1,1,0,1,1,1.782-.908l2.568,5.04a1,1,0,0,1-.437,1.344A.983.983,0,0,1,59.618,43.388Z" style="fill:#4d4d4d"/><path d="M7.376,32.873A1,1,0,0,1,6.6,32.5l-3.56-4.4a1,1,0,1,1,1.555-1.257l3.56,4.4a1,1,0,0,1-.777,1.629Z" style="fill:#4d4d4d"/><path d="M61.185,37.523a1,1,0,0,1-.778-.371l-3.56-4.4A1,1,0,0,1,58.4,31.5l3.56,4.4a1,1,0,0,1-.777,1.628Z" style="fill:#4d4d4d"/><path d="M7.9,38.1a1,1,0,0,1-.629-.223l-4.4-3.561a1,1,0,1,1,1.258-1.554l4.4,3.56A1,1,0,0,1,7.9,38.1Z" style="fill:#4d4d4d"/><path d="M61.5,31.461a.994.994,0,0,1-.629-.223l-4.4-3.56a1,1,0,0,1,1.259-1.555l4.4,3.561a1,1,0,0,1-.629,1.777Z" style="fill:#4d4d4d"/><path d="M9.495,43.1a1,1,0,0,1-.453-.11L4,40.426a1,1,0,1,1,.908-1.781l5.04,2.568A1,1,0,0,1,9.495,43.1Z" style="fill:#4d4d4d"/><path d="M60.543,25.465a.983.983,0,0,1-.453-.11l-5.04-2.568a1,1,0,1,1,.908-1.781L61,23.574a1,1,0,0,1-.455,1.891Z" style="fill:#4d4d4d"/><path d="M12.1,47.665a1.015,1.015,0,0,1-.26-.034L6.376,46.167a1,1,0,1,1,.518-1.932L12.358,45.7a1,1,0,0,1-.258,1.966Z" style="fill:#4d4d4d"/><path d="M58.365,19.8a1.013,1.013,0,0,1-.259-.034L52.642,18.3a1,1,0,0,1,.518-1.932l5.464,1.464a1,1,0,0,1-.259,1.966Z" style="fill:#4d4d4d"/><path d="M15.6,51.586h-.053l-5.649-.3a1,1,0,0,1,.1-2l5.648.3a1,1,0,0,1-.051,2Z" style="fill:#4d4d4d"/><path d="M55.056,14.71H55l-5.648-.3a1,1,0,1,1,.1-2l5.649.3a1,1,0,0,1-.051,2Z" style="fill:#4d4d4d"/><path d="M14.24,55.58a1,1,0,0,1-.156-1.987l5.588-.885a1,1,0,1,1,.312,1.975l-5.587.884A.932.932,0,0,1,14.24,55.58Z" style="fill:#4d4d4d"/><path d="M45.171,11.305a1,1,0,0,1-.155-1.988L50.6,8.433a1,1,0,1,1,.313,1.974l-5.588.885A.932.932,0,0,1,45.171,11.305Z" style="fill:#4d4d4d"/><path d="M19.334,58.883a1,1,0,0,1-.358-1.934l5.281-2.027a1,1,0,0,1,.717,1.867l-5.281,2.027A1,1,0,0,1,19.334,58.883Z" style="fill:#4d4d4d"/><path d="M40.385,9.145a1,1,0,0,1-.359-1.934l5.281-2.027a1,1,0,0,1,.717,1.867L40.743,9.078A1,1,0,0,1,40.385,9.145Z" style="fill:#4d4d4d"/><path d="M25,61.055a1,1,0,0,1-.545-1.839L29.2,56.135a1,1,0,1,1,1.089,1.677l-4.744,3.082A1,1,0,0,1,25,61.055Z" style="fill:#4d4d4d"/><path d="M35.253,8.026a1,1,0,0,1-.545-1.838l4.744-3.082a1,1,0,0,1,1.089,1.678L35.8,7.865A.988.988,0,0,1,35.253,8.026Z" style="fill:#4d4d4d"/><path d="M32,9A23,23,0,1,0,55,32,23.026,23.026,0,0,0,32,9Zm0,44A21,21,0,1,1,53,32,21.024,21.024,0,0,1,32,53Z"/><path d="M61.887,29.489a29.833,29.833,0,0,0-1.024-5.649L61,23.574l-.247-.126a29.747,29.747,0,0,0-2.192-5.375l.065-.24-.218-.058a30.038,30.038,0,0,0-3.308-4.9l.009-.168-.162-.009a30.249,30.249,0,0,0-4.331-4.2L50.6,8.433l-.061.009A29.992,29.992,0,1,0,32,62a29.821,29.821,0,0,0,17.289-5.506l.031.005.005-.03A30.307,30.307,0,0,0,53.9,52.475l.148-.008-.007-.14a30.211,30.211,0,0,0,3.578-4.73l.214-.057-.057-.21a29.846,29.846,0,0,0,2.485-5.27l.249-.126-.123-.243a29.818,29.818,0,0,0,1.328-5.6l.249-.2-.193-.239A30.015,30.015,0,0,0,62,32c0-.694-.032-1.38-.079-2.062l.206-.254Zm-1.923,3.938L58.4,31.5l-1.555,1.258,2.831,3.495a27.875,27.875,0,0,1-.6,2.876L57.94,36.894l-1.782.908,2.055,4.032a28.09,28.09,0,0,1-1.187,2.7l-.659-2.46-1.932.518,1.183,4.416a28.022,28.022,0,0,1-1.731,2.423l-.137-2.616-2,.106L52,51.573a28.077,28.077,0,0,1-2.221,2.044l.429-2.7L48.229,50.6l-.747,4.716a27.859,27.859,0,0,1-2.625,1.545l1.029-2.68-1.867-.717-1.759,4.58a27.759,27.759,0,0,1-2.928.976l1.65-2.541L39.3,55.389l-2.75,4.235a28.048,28.048,0,0,1-3.1.339l2.255-2.256-1.414-1.414-3.672,3.672a28.021,28.021,0,0,1-3.13-.333l2.8-1.82L29.2,56.135l-4.47,2.9a27.734,27.734,0,0,1-3.011-1l3.252-1.248-.717-1.867L19.17,56.875a27.931,27.931,0,0,1-2.757-1.627l3.571-.565-.312-1.975-5.5.87a28.212,28.212,0,0,1-2.347-2.187l3.713.194.1-2L10,49.291a28.145,28.145,0,0,1-1.857-2.65l3.7.99.518-1.932L6.894,44.235l-.025.095a27.83,27.83,0,0,1-1.3-3.106l3.474,1.77.908-1.781L4.91,38.645l-.073.144A27.8,27.8,0,0,1,4.214,35.4l3.055,2.474,1.259-1.555-4.4-3.56-.108.134C4.013,32.6,4,32.3,4,32c0-.862.045-1.714.122-2.556L6.6,32.5l1.555-1.258-3.56-4.4-.128.1a27.555,27.555,0,0,1,.818-3.332L7.06,27.106,8.842,26.2l-2.568-5.04-.111.057a27.856,27.856,0,0,1,1.478-3l.992,3.7,1.932-.518L9.1,15.942l-.023.006a28.237,28.237,0,0,1,1.976-2.5l.2,3.737,2-.106L12.955,11.5a28.2,28.2,0,0,1,2.409-2.006L14.8,13.088l1.976.312.858-5.42a27.87,27.87,0,0,1,2.745-1.442l-1.26,3.281,1.867.717,1.925-5.012a27.806,27.806,0,0,1,2.953-.837L24.018,7.521,25.7,8.611l2.851-4.39a28.02,28.02,0,0,1,3.028-.21L29.293,6.293l1.414,1.414,3.6-3.6a27.847,27.847,0,0,1,2.982.406L34.708,6.188,35.8,7.865l4.165-2.7a28.085,28.085,0,0,1,2.809,1L40.026,7.211l.717,1.867,4.515-1.733a28.113,28.113,0,0,1,2.516,1.536l-2.758.436.312,1.975,4.65-.736a28.258,28.258,0,0,1,2.14,2l-2.66-.139-.1,2,4.6.241a28.093,28.093,0,0,1,1.692,2.382l-2.488-.667L52.642,18.3l4.39,1.176a27.747,27.747,0,0,1,1.175,2.675l-2.249-1.146-.908,1.781,4.017,2.047a28.127,28.127,0,0,1,.6,2.858l-1.937-1.569-1.259,1.555L59.959,30.5c.026.5.041,1,.041,1.5Q60,32.719,59.964,33.427Z"/></g></svg>