<svg xmlns="http://www.w3.org/2000/svg" viewBox="0 0 64 64"><title>tools-bicycle-fix-bike-cycling</title><g id="filled_outline" data-name="filled outline"><path d="M60.913,14.543,55,17l-3-7,5.737-2.593A13,13,0,0,0,35,16.168a6.348,6.348,0,0,1-1.787,4.618L20.788,33.212A6.359,6.359,0,0,1,16.166,35a12.824,12.824,0,0,0-2.836.281,13.1,13.1,0,0,0-7.352,4.486L11,42,8,49,3.058,46.76a13,13,0,0,0,25.66,3.91A12.824,12.824,0,0,0,29,47.834a6.359,6.359,0,0,1,1.789-4.622L43.075,30.925A6.833,6.833,0,0,1,47.972,29H48A12.957,12.957,0,0,0,60.913,14.543ZM22.716,54.21l-6,.79L13,49.942l2.281-5.848,6-.79L25,48.362ZM30,39H26l-2-3.5L26,32h4l2,3.5ZM40.25,29h-3.5L35,26l1.75-3h3.5L42,26ZM46.5,19h-5L39,15l2.5-4h5L49,15Z" style="fill:#4398d1"/><path d="M55,17l-.722-1.684A75.45,75.45,0,0,1,31.631,34.853L32,35.5,30,39H26l-.6-1.05a75.382,75.382,0,0,1-14.682,4.707L8,49,3.058,46.76a13,13,0,0,0,25.66,3.91A12.824,12.824,0,0,0,29,47.834a6.359,6.359,0,0,1,1.789-4.622L43.075,30.925A6.833,6.833,0,0,1,47.972,29H48A12.957,12.957,0,0,0,60.913,14.543ZM22.716,54.21l-6,.79L13,49.942l2.281-5.848,6-.79L25,48.362Z" style="fill:#388dc7"/><path d="M61.422,13.682a1.006,1.006,0,0,0-.892-.063l-5,2.078-2.224-5.189,4.843-2.19a1,1,0,0,0,.338-1.573A14,14,0,0,0,34,16.182a5.332,5.332,0,0,1-1.494,3.9L20.081,32.505a5.455,5.455,0,0,1-3.9,1.5,13.249,13.249,0,0,0-3.055.3A14.142,14.142,0,0,0,5.208,39.13a1,1,0,0,0,.364,1.552l4.12,1.831L7.483,47.668,3.47,45.85a1,1,0,0,0-1.408.819A14,14,0,0,0,16.016,62c.438,0,.879-.02,1.32-.061A14.108,14.108,0,0,0,29.7,50.878a13.889,13.889,0,0,0,.3-3.057,5.343,5.343,0,0,1,1.5-3.9L43.782,31.632A5.848,5.848,0,0,1,47.985,30H48A13.958,13.958,0,0,0,61.907,14.433,1,1,0,0,0,61.422,13.682ZM47.974,28h-.019a7.81,7.81,0,0,0-5.587,2.218L30.081,42.505A7.324,7.324,0,0,0,28,47.847a11.9,11.9,0,0,1-.259,2.615A12,12,0,0,1,4.005,48.288l3.582,1.623a1,1,0,0,0,1.332-.517l3-7a1,1,0,0,0-.513-1.308L7.658,39.42a12.073,12.073,0,0,1,5.88-3.159A11.342,11.342,0,0,1,16.152,36,7.351,7.351,0,0,0,21.5,33.919L33.921,21.492A7.313,7.313,0,0,0,36,16.155a11.919,11.919,0,0,1,.45-3.388A11.973,11.973,0,0,1,56.016,7.088l-4.428,2a1,1,0,0,0-.507,1.3l3,7a1,1,0,0,0,1.3.53L60,16.006A12.018,12.018,0,0,1,47.974,28Z"/><path d="M22.084,42.712a.991.991,0,0,0-.936-.4l-6,.791a1,1,0,0,0-.8.627l-2.281,5.849a1,1,0,0,0,.126.955l3.718,5.058a1,1,0,0,0,.806.408.947.947,0,0,0,.13-.009l6-.79a1,1,0,0,0,.8-.628l2.281-5.848a1,1,0,0,0-.126-.955ZM22,53.3l-4.826.636-3.042-4.139L16,45.008l4.825-.636,3.042,4.139Z"/><path d="M47.348,10.47A1,1,0,0,0,46.5,10h-5a1,1,0,0,0-.848.47l-2.5,4a1,1,0,0,0,0,1.06l2.5,4A1,1,0,0,0,41.5,20h5a1,1,0,0,0,.848-.47l2.5-4a1,1,0,0,0,0-1.06ZM45.946,18H42.054l-1.875-3,1.875-3h3.892l1.875,3Z"/><path d="M41.114,22.5a1,1,0,0,0-.864-.5h-3.5a1,1,0,0,0-.864.5l-1.75,3a1,1,0,0,0,0,1.008l1.75,3a1,1,0,0,0,.864.5h3.5a1,1,0,0,0,.864-.5l1.75-3a1,1,0,0,0,0-1.008ZM39.676,28H37.324l-1.166-2,1.166-2h2.352l1.166,2Z"/><path d="M30.868,31.5A1,1,0,0,0,30,31H26a1,1,0,0,0-.868.5l-2,3.5a1,1,0,0,0,0,.992l2,3.5A1,1,0,0,0,26,40h4a1,1,0,0,0,.868-.5l2-3.5a1,1,0,0,0,0-.992ZM29.419,38H26.581l-1.429-2.5L26.581,33h2.838l1.429,2.5Z"/></g></svg>