<?xml version="1.0" encoding="UTF-8" standalone="no"?><!DOCTYPE svg PUBLIC "-//W3C//DTD SVG 1.1//EN" "http://www.w3.org/Graphics/SVG/1.1/DTD/svg11.dtd"><svg width="100%" height="100%" viewBox="0 0 64 64" version="1.1" xmlns="http://www.w3.org/2000/svg" xmlns:xlink="http://www.w3.org/1999/xlink" xml:space="preserve" xmlns:serif="http://www.serif.com/" style="fill-rule:evenodd;clip-rule:evenodd;stroke-linecap:round;stroke-linejoin:round;stroke-miterlimit:2;"><rect id="_66---Beer" serif:id="66 - Beer" x="0" y="0" width="64" height="64" style="fill:none;"/><path d="M15,25l0,28.387c0,1.995 1.618,3.613 3.613,3.613c6.534,0 20.24,0 26.774,0c1.995,0 3.613,-1.618 3.613,-3.613c0,-8.493 0,-29.018 0,-29.018" style="fill:none;stroke:#444f58;stroke-width:2px;"/><path d="M49,51l5.71,0c0.607,0 1.19,-0.241 1.619,-0.671c0.43,-0.429 0.671,-1.012 0.671,-1.619c0,-4.406 0,-14.014 0,-18.42c0,-0.607 -0.241,-1.19 -0.671,-1.619c-0.429,-0.43 -1.012,-0.671 -1.619,-0.671c-2.364,0 -5.71,0 -5.71,0" style="fill:none;stroke:#444f58;stroke-width:2px;"/><path d="M42.047,13.367c0,0 -4.63,-1.088 -6.625,4.579" style="fill:none;stroke:#444f58;stroke-width:2px;"/><path d="M21.546,27.728c0,-0.853 -0.662,-1.56 -1.514,-1.615c-0.215,-0.012 -0.426,-0.021 -0.633,-0.021c-1.688,0 -3.306,-0.67 -4.499,-1.863c-1.193,-1.193 -1.864,-2.812 -1.864,-4.499c0,0 0,-0.001 0,-0.001c0,-1.687 0.671,-3.306 1.864,-4.499c1.193,-1.193 2.811,-1.863 4.499,-1.863l1.542,0c2.068,-0.001 3.997,-1.041 5.133,-2.769c1.24,-1.96 3.43,-3.252 5.919,-3.252c2.489,0 4.678,1.292 5.933,3.242c1.133,1.723 3.056,2.761 5.118,2.761c0.905,0.018 1.602,0.018 1.602,0.018c1.687,0 3.306,0.67 4.499,1.863c1.193,1.193 1.863,2.812 1.863,4.499c0,0 0,0.001 0,0.001c0,1.687 -0.67,3.306 -1.863,4.499c-1.193,1.193 -2.812,1.863 -4.499,1.863c-3.482,0 -8,2.455 -12.525,2.455c-1.269,0 -2.538,-0.187 -3.785,-0.458c-0.61,-0.127 -1.245,0.028 -1.729,0.422c-0.484,0.394 -0.765,0.984 -0.765,1.608c-0.007,1.203 -0.007,2.604 -0.007,3.737c0,1.184 -0.96,2.144 -2.144,2.144c0,0 -0.001,0 -0.001,0c-1.184,0 -2.144,-0.96 -2.144,-2.144c0,-1.868 0,-4.521 0,-6.128Z" style="fill:none;stroke:#444f58;stroke-width:2px;"/></svg>