<?xml version="1.0" encoding="UTF-8" standalone="no"?><!DOCTYPE svg PUBLIC "-//W3C//DTD SVG 1.1//EN" "http://www.w3.org/Graphics/SVG/1.1/DTD/svg11.dtd"><svg width="100%" height="100%" viewBox="0 0 64 64" version="1.1" xmlns="http://www.w3.org/2000/svg" xmlns:xlink="http://www.w3.org/1999/xlink" xml:space="preserve" xmlns:serif="http://www.serif.com/" style="fill-rule:evenodd;clip-rule:evenodd;stroke-linecap:round;stroke-linejoin:round;stroke-miterlimit:2;"><rect id="_88---Bottle-Water" serif:id="88 - Bottle Water" x="0" y="0" width="64" height="64" style="fill:none;"/><path d="M49.387,18.44c0.886,1.64 1.363,3.489 1.363,5.387c0,3.004 -1.194,5.885 -3.318,8.009c-2.685,2.685 -5.446,5.446 -7.221,7.221c-1.213,1.213 -2.92,1.792 -4.62,1.567c0,0 0,0 0,0c-1.698,-0.224 -3.403,0.354 -4.614,1.565c-0.019,0.019 -0.038,0.038 -0.057,0.057c-1.211,1.211 -1.79,2.916 -1.565,4.614c0,0 0,0.001 0,0.001c0.224,1.7 -0.355,3.407 -1.567,4.619c-1.637,1.637 -3.971,3.971 -5.586,5.586c-0.49,0.49 -1.155,0.765 -1.848,0.765c-0.693,0 -1.358,-0.275 -1.848,-0.765c-3.082,-3.083 -9.239,-9.24 -12.322,-12.322c-0.49,-0.49 -0.765,-1.155 -0.765,-1.848c0,-0.693 0.275,-1.358 0.765,-1.848c1.615,-1.615 3.949,-3.949 5.586,-5.586c1.212,-1.212 2.919,-1.791 4.619,-1.567c0,0 0.001,0 0.001,0c1.698,0.225 3.403,-0.354 4.614,-1.565c0.019,-0.019 0.038,-0.038 0.057,-0.057c1.211,-1.211 1.789,-2.916 1.565,-4.614c0,0 0,0 0,0c-0.225,-1.7 0.354,-3.407 1.567,-4.62c1.775,-1.775 4.536,-4.536 7.221,-7.221c2.124,-2.124 5.005,-3.318 8.009,-3.318c1.898,0 3.747,0.477 5.387,1.363l2.241,-2.241l4.577,4.577l-2.241,2.241Z" style="fill:none;stroke:#444f58;stroke-width:2px;"/><path d="M53.937,15.415c0.295,-0.295 0.461,-0.696 0.461,-1.114c0,-0.418 -0.166,-0.819 -0.461,-1.114c-1.101,-1.101 -2.773,-2.773 -3.874,-3.874c-0.295,-0.295 -0.696,-0.461 -1.114,-0.461c-0.418,0 -0.819,0.166 -1.114,0.461c-0.733,0.732 -1.556,1.556 -1.556,1.556l6.102,6.102c0,0 0.824,-0.823 1.556,-1.556Z" style="fill:none;stroke:#444f58;stroke-width:2px;"/><path d="M35.228,28.022c1.263,1.263 -0.262,4.839 -1.525,6.102c-1.263,1.263 -3.314,1.263 -4.577,0c-1.263,-1.263 -1.263,-3.314 0,-4.577c1.263,-1.263 4.839,-2.788 6.102,-1.525Z" style="fill:none;stroke:#444f58;stroke-width:2px;"/></svg>