<?xml version="1.0" encoding="iso-8859-1"?>
<!-- Uploaded to: SVG Repo, www.svgrepo.com, Generator: SVG Repo Mixer Tools -->
<svg height="800px" width="800px" version="1.1" id="Layer_1" xmlns="http://www.w3.org/2000/svg" xmlns:xlink="http://www.w3.org/1999/xlink" 
	 viewBox="0 0 503.799 503.799" xml:space="preserve">
<g>
	<path style="fill:#ECF0F1;" d="M142.69,369.503c-2.149,0-4.297-0.823-5.934-2.459c-3.282-3.282-3.282-8.587,0-11.868l293.77-293.77
		c3.282-3.282,8.587-3.282,11.868,0c3.282,3.282,3.282,8.586,0,11.868l-293.77,293.77
		C146.988,368.68,144.839,369.503,142.69,369.503"/>
	<g>
		<path style="fill:#C03A2B;" d="M452.363,151.282c-11.633,0-22.872-4.709-31.92-13.765c-11.39-11.39-14.437-27.228-12.548-41.522
			c-13.681,1.989-29.36-0.378-41.019-12.036c-13.513-13.513-17.5-31.853-10.651-49.068c8.1-20.388,28.831-34.002,52.828-34.69
			c14.655-0.411,81.912-0.067,86.285-0.008c4.264,0.067,7.797,3.307,8.234,7.537c0.487,4.851,0.042,86.612,0.034,87.426
			c-0.134,23.208-13.757,44.351-33.884,52.618C463.988,150.123,458.129,151.282,452.363,151.282"/>
		<path style="fill:#C03A2B;" d="M92.329,419.863H8.395c-3.391,0-6.463-2.048-7.756-5.179c-1.301-3.139-0.579-6.748,1.821-9.149
			l50.361-50.361c1.57-1.578,3.702-2.459,5.934-2.459h83.934c3.391,0,6.463,2.048,7.756,5.179c1.301,3.139,0.579,6.748-1.821,9.149
			l-50.361,50.361C96.694,418.982,94.562,419.863,92.329,419.863"/>
	</g>
	<path style="fill:#96241B;" d="M92.329,503.798c-1.083,0-2.174-0.21-3.215-0.638c-3.139-1.301-5.179-4.365-5.179-7.756V411.47
		c0-2.224,0.881-4.365,2.459-5.934l50.361-50.361c2.401-2.409,6.01-3.114,9.149-1.821c3.139,1.301,5.179,4.365,5.179,7.756v83.934
		c0,2.224-0.881,4.365-2.459,5.934l-50.361,50.361C96.66,502.942,94.512,503.798,92.329,503.798"/>
</g>
</svg>