<svg id="icons" xmlns="http://www.w3.org/2000/svg" viewBox="0 0 200 200"><defs><style>.cls-1{fill:#db3561;}.cls-2{fill:#a81841;}.cls-3{fill:#ff577e;}</style></defs><g id="love_music"><circle class="cls-1" cx="53.12" cy="152.84" r="32.16"/><rect class="cls-1" x="62.39" y="60.82" width="22.89" height="91.48"/><path class="cls-2" d="M71.18,148.91a10.47,10.47,0,0,1-1.82,5.53c-.16.24-.34.48-.52.71s-.47.54-.72.79l-4,4-5.53,5.53-5.26,5.26L48,165.48,42.5,160l-4-4a10.66,10.66,0,0,1-1.27-1.52,10.52,10.52,0,0,1-.43-11.06,10.32,10.32,0,0,1,1.7-2.22,10.47,10.47,0,0,1,14.81,0,4.68,4.68,0,0,1,.39-.38l.4-.34.21-.17a10.48,10.48,0,0,1,13.81.89,10.35,10.35,0,0,1,1.7,2.24A10.49,10.49,0,0,1,71.18,148.91Z"/><circle class="cls-1" cx="146.88" cy="134.24" r="32.16"/><rect class="cls-1" x="156.14" y="35.71" width="22.89" height="97.99"/><path class="cls-2" d="M164.93,130.31a10.46,10.46,0,0,1-1.81,5.53c-.17.24-.34.48-.53.71s-.46.54-.72.8l-4,4-5.52,5.52-5.27,5.27-5.27-5.27-5.54-5.54-4-4a10,10,0,0,1-1.26-1.53,10.48,10.48,0,0,1,1.26-13.28,10.47,10.47,0,0,1,14.81,0l.39-.37.41-.35.2-.17a10.48,10.48,0,0,1,13.81.89,10.73,10.73,0,0,1,1.71,2.24A10.52,10.52,0,0,1,164.93,130.31Z"/><path class="cls-3" d="M179,22.75V51L62.39,76.08V47.86a7.75,7.75,0,0,1,7.75-7.75L171.28,15A7.76,7.76,0,0,1,179,22.75Z"/></g></svg>