<svg id="icons" xmlns="http://www.w3.org/2000/svg" viewBox="0 0 200 200"><defs><style>.cls-1{fill:#ff577e;}</style></defs><g id="lips"><path class="cls-1" d="M15,47.3A56.52,56.52,0,0,0,17.5,62.18c.18.6.38,1.21.57,1.81s.33.93.49,1.4A92.34,92.34,0,0,0,28.7,85.15l.28.42.33.49c1.7,2.51,3.49,5,5.33,7.31a165.3,165.3,0,0,0,10.87,12.49c.48.51,1,1,1.44,1.49q1.56,1.59,3.09,3.09c1.23,1.19,2.43,2.34,3.62,3.44S56,116,57.08,117a167.36,167.36,0,0,0,14.83,11.92L72,129s2.35,2.77,6.43,7c.81.85,1.69,1.76,2.64,2.71a235.12,235.12,0,0,0,21.66,19.45c2.65,2.08,5.41,4.14,8.26,6.11a125.43,125.43,0,0,0,17.38,10.27A81.2,81.2,0,0,0,139.68,179a59.06,59.06,0,0,0,8.57,2l1.25.17a41.31,41.31,0,0,0,12.67-.34q.83-.16,1.65-.36A35,35,0,0,0,175,175.57c.94-.62,1.87-1.29,2.79-2a.76.76,0,0,1-.11-.14c-.45-.85-1-1.79-1.58-2.8-.77-1.32-1.67-2.77-2.68-4.34-.46-.72-1-1.46-1.46-2.23a246.66,246.66,0,0,0-15.26-20.3c-1-1.22-2.06-2.46-3.13-3.72-1.26-1.46-2.55-2.95-3.9-4.45-1-1.17-2.1-2.35-3.2-3.54-3.5-3.82-7.28-7.75-11.31-11.73q-5.82-5.75-12.37-11.59-4.93-4.38-10.26-8.75c-1.56-1.27-3.15-2.55-4.76-3.82l-.21-.16a.71.71,0,0,1-.15-.15A134.46,134.46,0,0,0,93.15,79,133,133,0,0,0,81.67,68.67q-2-1.61-4-3.11l-.05,0-1.87-1.36c-1.18-.84-2.35-1.66-3.53-2.46-1.5-1-3-2-4.5-2.94q-.92-.59-1.83-1.14c-4.27-2.62-8.48-5-12.57-7.13-3.27-1.73-6.46-3.34-9.54-4.89l-1.67-.84c-8-4-15.16-7.61-21-11.68-1.22-.85-2.39-1.72-3.49-2.62-.24.68-.45,1.36-.66,2.05a46,46,0,0,0-1.85,10.23C15,44.27,15,45.79,15,47.3Z"/><path class="cls-1" d="M184.22,160.39c.1-1.41.2-2.81.28-4.19a237.51,237.51,0,0,0,.33-24.18c-.09-2.1-.2-4.14-.35-6.12a149.21,149.21,0,0,0-2.16-17,100.61,100.61,0,0,0-6.17-20.85A71.17,71.17,0,0,0,172.1,80c-.83-1.43-1.69-2.76-2.56-4a54.25,54.25,0,0,0-5.48-6.68,44.34,44.34,0,0,0-12-8.91,38.9,38.9,0,0,0-7.37-2.81c-.33-.74-.7-1.54-1.11-2.38a60.34,60.34,0,0,0-4.41-7.54,59.11,59.11,0,0,0-13.74-14.13c-1.41-1-2.92-2.05-4.52-3a74.67,74.67,0,0,0-18.47-8,106.91,106.91,0,0,0-22.79-3.76c-1.33-.09-2.7-.15-4.08-.19h-.32l-1.56-.05a168.15,168.15,0,0,0-16.86.56,243.55,243.55,0,0,0-33.65,5.31,58.82,58.82,0,0,0,5.95,4.26c5.24,3.33,11.4,6.43,18.23,9.86l2.49,1.25c2.71,1.36,5.51,2.78,8.36,4.29,4.86,2.56,9.89,5.37,15,8.58a.41.41,0,0,0,.11.07l.15.1q2.52,1.59,5,3.31c1,.67,1.94,1.36,2.92,2.06.55.4,1.11.8,1.67,1.22,1.11.52,2.21,1.07,3.3,1.62a151.78,151.78,0,0,1,14.18,8.16q3.64,2.37,7.1,4.91a141.34,141.34,0,0,1,14.3,12,126,126,0,0,1,8.72,9.27,103.63,103.63,0,0,1,13.9,20.86c.6,1.2,1.16,2.39,1.69,3.6q3,3.12,5.83,6.18l2.78,3.07q2.46,2.75,4.71,5.39c.74.86,1.46,1.71,2.16,2.56a246.81,246.81,0,0,1,16.66,22.18l1,1.48c.64,1,1.24,2,1.79,2.86.92,1.52,1.72,2.9,2.37,4.11l.06-.05c0-.19,0-.38,0-.58Q184,163.67,184.22,160.39Z"/></g></svg>