<svg id="icons" xmlns="http://www.w3.org/2000/svg" viewBox="0 0 200 200"><defs><style>.cls-1{fill:#ff577e;}.cls-2{fill:#db3561;}.cls-3{fill:#ffadc3;}</style></defs><g id="heart_cake"><path class="cls-1" d="M183.72,86.64a1.7,1.7,0,0,0-1.7-1.7h0a1.71,1.71,0,0,0-1.69,1.72h0C180.36,94.8,172,103,157.44,109c-15.29,6.37-35.69,10-57.43,10.09h-1.3C55,119.13,19.38,105,19.27,87.69a1.71,1.71,0,1,0-3.42,0l.43,62.46C16.41,169.7,52.81,185,99.14,185h1.31c22.18-.15,43-3.83,58.72-10.37,16.17-6.74,25-15.81,25-25.53Z"/><path class="cls-2" d="M184,122.35c-14.38,11.53-47.4,19.42-84,19.42s-69.5-7.87-83.91-19.38l.13,20C32.29,153.34,63.43,160.6,100,160.6c36.81,0,68.13-7.36,84.1-18.4Z"/><path d="M137,55.37a1.71,1.71,0,0,0-1.21,3.14l3,1.75L83.16,57.51A1.73,1.73,0,0,0,83.25,56l-1-2.19a1.68,1.68,0,0,0-1.73-1c-38,3.73-64.51,17.88-64.51,34.41,0,19.83,36.87,35.37,83.94,35.37S183.94,107,183.94,87.17C183.94,73.47,165.94,61.28,137,55.37Z"/><path class="cls-3" d="M151.13,41a28.81,28.81,0,0,0-36.59-11.72A28.81,28.81,0,0,0,78,17.53a23.67,23.67,0,0,0-10.8,33.72L92.94,96.68l47.38-22A23.68,23.68,0,0,0,151.13,41Z"/></g></svg>