<svg id="icons" xmlns="http://www.w3.org/2000/svg" viewBox="0 0 200 200"><defs><style>.cls-1{fill:#db3561;}.cls-2{fill:#ff577e;}</style></defs><g id="sale"><path class="cls-1" d="M185,140.16a21.18,21.18,0,0,1-3.67,11.21c-.34.49-.69,1-1.08,1.44s-.94,1.09-1.45,1.61l-8.15,8.15-11.2,11.2-4.57,4.56a8.64,8.64,0,0,1-12.21,0l-4.58-4.58-11.21-11.21-8.12-8.12a21.23,21.23,0,0,1-3.43-25.51,21.6,21.6,0,0,1,3.43-4.51,21.23,21.23,0,0,1,30,0c.26-.26.52-.51.79-.75s.54-.48.82-.7l.42-.34a21.26,21.26,0,0,1,28,1.79,21.72,21.72,0,0,1,3.46,4.55A21.29,21.29,0,0,1,185,140.16Z"/><path class="cls-2" d="M169.49,144.93a12.11,12.11,0,0,1-2.1,6.41c-.19.28-.39.56-.61.83a12,12,0,0,1-.84.92l-4.66,4.66-6.4,6.41h0a8.65,8.65,0,0,1-12.22,0h0l-6.42-6.42-4.64-4.64a12.16,12.16,0,0,1-2-14.6,12.17,12.17,0,0,1,19.14-2.57l.45-.43.47-.41.24-.19a12.14,12.14,0,0,1,16,1,12.13,12.13,0,0,1,3.55,9Z"/><path class="cls-1" d="M87.45,41.11a21.18,21.18,0,0,1-3.67,11.21c-.34.49-.69,1-1.08,1.44s-.94,1.09-1.45,1.61L73.1,63.52,61.9,74.72l-3.44,3.43a10.22,10.22,0,0,1-14.47,0L40.54,74.7,29.33,63.49l-8.12-8.12a20.76,20.76,0,0,1-2.56-3.1A21.22,21.22,0,0,1,51.23,25.36c.26-.26.52-.52.79-.76s.54-.48.82-.7l.42-.34a21.24,21.24,0,0,1,28,1.8,21.67,21.67,0,0,1,3.46,4.54A21.29,21.29,0,0,1,87.45,41.11Z"/><path class="cls-2" d="M75.78,44.7a14.27,14.27,0,0,1-2.49,7.6c-.22.33-.46.66-.72,1a14.53,14.53,0,0,1-1,1.09l-5.52,5.52-7.6,7.6h0a10.24,10.24,0,0,1-14.47,0h0l-7.6-7.61-5.5-5.5a13.69,13.69,0,0,1-1.73-2.1,14.27,14.27,0,0,1-2.47-7.6A14.38,14.38,0,0,1,51.23,34l.54-.51.55-.48.29-.22A14.38,14.38,0,0,1,75.78,44.7Z"/><rect class="cls-1" x="3.73" y="81.26" width="181.82" height="30.93" rx="15.1" transform="translate(-40.68 95.25) rotate(-45)"/></g></svg>