<svg id="icons" xmlns="http://www.w3.org/2000/svg" viewBox="0 0 200 200"><defs><style>.cls-1{fill:#ffadc3;}.cls-2{fill:#ff577e;}.cls-3{fill:#a81841;}</style></defs><g id="heart_lock"><path class="cls-1" d="M100,15C70.41,15,46.42,42,46.42,75.4s24,60.41,53.58,60.41,53.58-27,53.58-60.41S129.59,15,100,15Zm0,100.35c-19.57,0-35.43-17.89-35.43-39.95S80.43,35.46,100,35.46s35.43,17.88,35.43,39.94S119.57,115.35,100,115.35Z"/><path class="cls-2" d="M156.06,82.14a39.64,39.64,0,0,0-56.06,0A39.64,39.64,0,0,0,43.94,138.2l40.25,40.25a22.36,22.36,0,0,0,31.62,0l40.25-40.25A39.64,39.64,0,0,0,156.06,82.14Z"/><path class="cls-3" d="M117,113.82A17,17,0,1,0,92.85,129.2l-4.64,24.14h23.58l-4.64-24.14A17,17,0,0,0,117,113.82Z"/></g></svg>