<svg id="icons" xmlns="http://www.w3.org/2000/svg" viewBox="0 0 200 200"><defs><style>.cls-1{fill:#ff577e;}.cls-2{fill:#ffadc3;}.cls-3{fill:#a81841;}</style></defs><g id="cake"><path class="cls-1" d="M144,75.13c0,23.75-23.48,39-47.5,39S53,94.88,53,71.13s19.48-43,43.5-43S144,51.38,144,75.13Z"/><path class="cls-2" d="M184.93,136.45V93.14a24.6,24.6,0,0,1-2,1.83c-21.88,19.51-60.38,22.35-81.38,22.35-32.56,0-69.4-1.75-86.26-12.31l.15,41.85a6,6,0,0,1-.11,1,6.66,6.66,0,0,0-.15,3.54c2.82,8,41.21,20.43,86.43,20.43,34,0,60.74-7.13,75.27-20.05.7-.6,1.36-1.26,2.12-2,4.18-4.34,6.2-8.65,6-12.83A2.63,2.63,0,0,1,184.93,136.45Z"/><path class="cls-3" d="M109,78.16a8.75,8.75,0,0,0,1-3,4.5,4.5,0,0,1-2.86,2.34,4.57,4.57,0,0,1-5.67-3.12h0A2.68,2.68,0,0,0,99,72.47a1.94,1.94,0,0,0-.59,0A3.79,3.79,0,0,0,96,74.3a4,4,0,0,0-.35,3.22,6.72,6.72,0,0,0,8,4.69A8.57,8.57,0,0,0,109,78.16Z"/><path class="cls-3" d="M110.38,98.48a27.46,27.46,0,0,0,17.09-13A28.13,28.13,0,0,0,130,63.56,39.57,39.57,0,0,0,111.16,40a35.7,35.7,0,0,0-27.32-3.28C70.23,40.69,61.07,52.71,61.53,66c.33,9.16,5.27,17.24,13.88,23.12A34.45,34.45,0,0,1,74,85a25.41,25.41,0,0,1,2.31-19.81A24.88,24.88,0,0,1,91.91,53.32a22.3,22.3,0,0,1,26.78,15.43,18,18,0,0,1-1.63,14,17.78,17.78,0,0,1-11,8.39,16,16,0,0,1-19.15-11A13.15,13.15,0,0,1,88.13,69.9a12.87,12.87,0,0,1,8-6.14,11.87,11.87,0,0,1,12.19,4.16,13,13,0,0,0-14.15-5.7,15.94,15.94,0,0,0-9.93,7.57,16.39,16.39,0,0,0-1.46,12.83A23.24,23.24,0,0,0,97.07,97.9l.37.14A22.38,22.38,0,0,0,110.38,98.48Z"/><path d="M184.77,88.85c-1.29-7.33-9.51-14.39-22.6-19.57a4.6,4.6,0,0,1-2.84-3.67C157.28,51.19,148.48,43.78,131,44.13c3.82,4.87,6.06,11,7.79,16.9a37.23,37.23,0,0,1-3.37,29,36.51,36.51,0,0,1-22.75,17.35,31.48,31.48,0,0,1-18.33-.79c-26.25-5.77-38.22-20.43-41.19-34.35C27.1,87.69,14.86,101.46,15.28,105c2.8,8,41,20.15,86.26,20.15,34,0,60.74-7.11,75.27-20C181.1,101.34,185.94,95.48,184.77,88.85Z"/></g></svg>