<svg id="icons" xmlns="http://www.w3.org/2000/svg" viewBox="0 0 200 200"><defs><style>.cls-1{fill:#db3561;}</style></defs><g id="heart_arrow"><path d="M183,31.26l-74.53,69.51a7,7,0,0,1-9.77-.14h0a7,7,0,0,1,.14-10.1L173,21.34a7,7,0,0,1,10,0h0A7,7,0,0,1,183,31.26Z"/><rect x="157.75" y="33.34" width="40.63" height="12.5" rx="5.79" transform="translate(130.09 215.58) rotate(-87.29)"/><path d="M150.15,19.39h29.06A5.78,5.78,0,0,1,185,25.17v.93a5.79,5.79,0,0,1-5.79,5.79H150.15a5.79,5.79,0,0,1-5.79-5.79v-.93a5.79,5.79,0,0,1,5.79-5.79Z" transform="translate(-0.2 1.34) rotate(-0.47)"/><path class="cls-1" d="M157.81,49.7a40,40,0,0,0-56.61,0,40,40,0,0,0-56.61,56.61l56.61,56.61,56.61-56.61A40,40,0,0,0,157.81,49.7Z"/><path d="M105.47,103.9,30.93,173.41a7,7,0,0,1-9.77-.13h0a7,7,0,0,1,.14-10.1L95.5,94a7,7,0,0,1,9.94,0h0A7,7,0,0,1,105.47,103.9Z"/><rect x="29.35" y="154.16" width="40.63" height="12.5" rx="5.79" transform="translate(-112.92 202.43) rotate(-87.29)"/><rect x="29.07" y="125.81" width="12.5" height="40.63" rx="5.79" transform="translate(-112.32 174.49) rotate(-87.29)"/><rect x="48.06" y="135.37" width="40.63" height="12.5" rx="5.79" transform="translate(-76.32 203.21) rotate(-87.29)"/><path d="M53.56,107h.93a5.78,5.78,0,0,1,5.78,5.78v29.06a5.79,5.79,0,0,1-5.79,5.79h-.93a5.79,5.79,0,0,1-5.79-5.79V112.8A5.79,5.79,0,0,1,53.56,107Z" transform="translate(-75.72 175.27) rotate(-87.29)"/></g></svg>