<svg id="icons" xmlns="http://www.w3.org/2000/svg" viewBox="0 0 200 200"><defs><style>.cls-1{fill:#ffadc3;}.cls-2{fill:#db3561;}</style></defs><g id="love_message"><path class="cls-1" d="M38.27,164.16h81.78a23.27,23.27,0,0,0,23.27-23.27V93.42C147.82,90.76,176.76,73.68,185,49c.94-2.8-35.72,12.54-41.76,8.09a23.26,23.26,0,0,0-23.17-21.25H38.27A23.27,23.27,0,0,0,15,59.11v81.78A23.27,23.27,0,0,0,38.27,164.16Z"/><path class="cls-2" d="M44.7,71.38a24.48,24.48,0,0,1,34.62,0A24.48,24.48,0,0,1,113.94,106L79.32,140.62,44.7,106A24.48,24.48,0,0,1,44.7,71.38Z"/></g></svg>