<svg id="icons" xmlns="http://www.w3.org/2000/svg" viewBox="0 0 200 200"><defs><style>.cls-1{fill:#ffadc3;}.cls-2{fill:#db3561;}.cls-3{fill:#ff577e;}.cls-4{fill:#a81841;}</style></defs><g id="love_chemistry"><path class="cls-1" d="M161,125.79c.16-24.11-14.38-45-35.42-54.49l.18-26.75a20.6,20.6,0,0,0-1.54-7.93L77,36.31a20.27,20.27,0,0,0-1.65,7.9L75.12,71C54,80.2,39.13,100.86,39,125,38.77,155,61.38,180,91,184.31a22,22,0,0,0,5,.64l7.2.05a22.13,22.13,0,0,0,5-.57C137.88,180.53,160.83,155.84,161,125.79Z"/><path class="cls-2" d="M47.68,94.75A58.07,58.07,0,0,0,39,125C38.77,155,61.38,180,91,184.31a22,22,0,0,0,5,.64l7.2.05a22.13,22.13,0,0,0,5-.57c29.64-3.9,52.59-28.59,52.79-58.64a58.13,58.13,0,0,0-8.3-30.33Z"/><path class="cls-3" d="M125.26,41.79l-50.69-.34A13.26,13.26,0,0,1,61.43,28.13h0A13.26,13.26,0,0,1,74.74,15l50.69.34a13.26,13.26,0,0,1,13.14,13.31h0A13.27,13.27,0,0,1,125.26,41.79Z"/><path class="cls-4" d="M130.42,129.45a17.71,17.71,0,0,1-3.08,9.41c-.28.42-.58.82-.9,1.21a17.36,17.36,0,0,1-1.23,1.36l-6.84,6.84L109,157.68l-9,9-9-9-9.42-9.42-6.82-6.82a18.78,18.78,0,0,1-2.15-2.6A17.83,17.83,0,0,1,100,116.21l.66-.63.69-.59.36-.28a17.82,17.82,0,0,1,28.71,14.74Z"/></g></svg>