<svg xmlns="http://www.w3.org/2000/svg" viewBox="0 0 64 64"><title>artboard-40</title><g id="Abacus"><rect x="12" y="43" width="5" height="2" style="fill:#2d2f30"/><rect x="25" y="43" width="3" height="2" style="fill:#2d2f30"/><rect x="36" y="43" width="3" height="2" style="fill:#2d2f30"/><rect x="12" y="32" width="8" height="2" style="fill:#2d2f30"/><rect x="28" y="32" width="3" height="2" style="fill:#2d2f30"/><rect x="39" y="32" width="3" height="2" style="fill:#2d2f30"/><rect x="12" y="21" width="3" height="2" style="fill:#2d2f30"/><rect x="23" y="21" width="3" height="2" style="fill:#2d2f30"/><rect x="34" y="21" width="3" height="2" style="fill:#2d2f30"/><path d="M10,5A1,1,0,0,0,9,4H6A1.0029,1.0029,0,0,0,5,5V51h5Z" style="fill:#2d2f30"/><rect x="2" y="53" width="60" height="7" rx="1" ry="1" style="fill:#2d2f30"/><rect x="47" y="43" width="5" height="2" style="fill:#2d2f30"/><rect x="50" y="32" width="2" height="2" style="fill:#2d2f30"/><rect x="45" y="21" width="7" height="2" style="fill:#2d2f30"/><path d="M59,5a1.0029,1.0029,0,0,0-1-1H55a1,1,0,0,0-1,1V51h5Z" style="fill:#2d2f30"/><rect x="12" y="8" width="40" height="6" style="fill:#2d2f30"/><path d="M48,34V32a2,2,0,0,0-4,0v2a2,2,0,0,0,4,0Z" style="fill:#2d2f30"/><path d="M37,34V32a2,2,0,0,0-4,0v2a2,2,0,0,0,4,0Z" style="fill:#2d2f30"/><path d="M26,34V32a2,2,0,0,0-4,0v2a2,2,0,0,0,4,0Z" style="fill:#2d2f30"/><path d="M43,47a2.0027,2.0027,0,0,0,2-2V43a2,2,0,0,0-4,0v2A2.0027,2.0027,0,0,0,43,47Z" style="fill:#2d2f30"/><path d="M32,47a2.0027,2.0027,0,0,0,2-2V43a2,2,0,0,0-4,0v2A2.0027,2.0027,0,0,0,32,47Z" style="fill:#2d2f30"/><path d="M19,43v2a2,2,0,0,0,4,0V43a2,2,0,0,0-4,0Z" style="fill:#2d2f30"/><path d="M43,23V21a2,2,0,0,0-4,0v2a2,2,0,0,0,4,0Z" style="fill:#2d2f30"/><path d="M32,23V21a2,2,0,0,0-4,0v2a2,2,0,0,0,4,0Z" style="fill:#2d2f30"/><path d="M21,21a2,2,0,0,0-4,0v2a2,2,0,0,0,4,0Z" style="fill:#2d2f30"/></g></svg>