<svg xmlns="http://www.w3.org/2000/svg" viewBox="0 0 64 64"><title>artboard-4</title><g id="Briefcase"><path d="M57,20H7a5.0018,5.0018,0,0,0-5,5v4A10.0294,10.0294,0,0,0,12,39H25V36a1.0029,1.0029,0,0,1,1-1h2V32a1.0029,1.0029,0,0,1,1-1h6a1.0029,1.0029,0,0,1,1,1v3h2a1.0029,1.0029,0,0,1,1,1v3H52A10.0294,10.0294,0,0,0,62,29V25A5.0018,5.0018,0,0,0,57,20Z" style="fill:#2d2f30"/><path d="M39,5a1,1,0,0,0-1-1H26a1,1,0,0,0-1,1v9H39Z" style="fill:#2d2f30"/><polygon points="23 15.42 23 6.58 11.58 18 20.42 18 23 15.42" style="fill:#2d2f30"/><polygon points="52.42 18 41 6.58 41 15.42 43.58 18 52.42 18" style="fill:#2d2f30"/><path d="M34,45H30a2,2,0,0,0,4,0Z" style="fill:#2d2f30"/><path d="M27,43H37V37H27Z" style="fill:#2d2f30"/><rect x="30" y="33" width="4" height="2" style="fill:#2d2f30"/><path d="M3,51a8.2619,8.2619,0,0,0-1,.06V55a5.0018,5.0018,0,0,0,5,5h3.94A8.2619,8.2619,0,0,0,11,59,8.0106,8.0106,0,0,0,3,51Z" style="fill:#2d2f30"/><path d="M28,45H26a1.0029,1.0029,0,0,1-1-1V41H12A11.9921,11.9921,0,0,1,2,35.62V49.05c.33-.03.66-.05,1-.05A10.0165,10.0165,0,0,1,13,59c0,.34-.02.67-.05,1H31V48.86A4,4,0,0,1,28,45Z" style="fill:#2d2f30"/><path d="M52,41H39v3a1.0029,1.0029,0,0,1-1,1H36a4,4,0,0,1-3,3.86V60H51.05c-.03-.33-.05-.66-.05-1A10.0165,10.0165,0,0,1,61,49c.34,0,.67.02,1,.05V35.62A11.9921,11.9921,0,0,1,52,41Z" style="fill:#2d2f30"/><path d="M53,59a8.2619,8.2619,0,0,0,.06,1H57a5.0018,5.0018,0,0,0,5-5V51.06A8.2619,8.2619,0,0,0,61,51,8.0106,8.0106,0,0,0,53,59Z" style="fill:#2d2f30"/></g></svg>