<svg xmlns="http://www.w3.org/2000/svg" viewBox="0 0 64 64"><title>artboard-35</title><g id="Smartphone"><path d="M53,21H24v2H45.9709A1.0091,1.0091,0,0,1,47,23.9767,3.9989,3.9989,0,0,0,51.0233,28,1.0091,1.0091,0,0,1,52,29.0291v5.9417A1.0092,1.0092,0,0,1,51.0233,36,3.9988,3.9988,0,0,0,47,40.0233,1.0092,1.0092,0,0,1,45.9708,41H24v2H53a1,1,0,0,0,1-1V22A1,1,0,0,0,53,21Z" style="fill:#2d2f30"/><path d="M24,46a1,1,0,0,1-2,0V18a1,1,0,0,1,2,0v1H44V15H10V49H44V45H24Z" style="fill:#2d2f30"/><path d="M10,54a5.0059,5.0059,0,0,0,5,5H39a5.0059,5.0059,0,0,0,5-5V51H10Zm17-1a2,2,0,1,1-2,2A2,2,0,0,1,27,53Z" style="fill:#2d2f30"/><path d="M44,10a5.0059,5.0059,0,0,0-5-5H15a5.0059,5.0059,0,0,0-5,5v3H44ZM30,10H24a1,1,0,0,1,0-2h6a1,1,0,0,1,0,2Z" style="fill:#2d2f30"/><path d="M50,34.08V29.92A6.0376,6.0376,0,0,1,45.08,25H24V39H45.08A6.0376,6.0376,0,0,1,50,34.08ZM33,30a1,1,0,0,1-2,0v-.15a.8493.8493,0,0,0-.85-.85h-.3a.8493.8493,0,0,0-.85.85.8588.8588,0,0,0,.47.77l1.95.97A2.8561,2.8561,0,0,1,31,36.87V37a1,1,0,0,1-2,0v-.13a2.8451,2.8451,0,0,1-2-2.72V34a1,1,0,0,1,2,0v.15a.8493.8493,0,0,0,.85.85h.3a.8493.8493,0,0,0,.85-.85.8588.8588,0,0,0-.47-.77l-1.95-.97A2.8561,2.8561,0,0,1,29,27.13V27a1,1,0,0,1,2,0v.13a2.8451,2.8451,0,0,1,2,2.72Z" style="fill:#2d2f30"/></g></svg>