<svg xmlns="http://www.w3.org/2000/svg" viewBox="0 0 64 64"><title>artboard-31</title><g id="Payment"><path d="M12,23h4V17H12a3,3,0,0,0,0,6Z" style="fill:#2d2f30"/><path d="M48,20a3.0088,3.0088,0,0,0-3-3H42v6h6Z" style="fill:#2d2f30"/><path d="M46,41a3.9989,3.9989,0,0,0,4,4h7V37H50A3.9989,3.9989,0,0,0,46,41Zm6,0a2,2,0,1,1-2-2A2.0059,2.0059,0,0,1,52,41Z" style="fill:#2d2f30"/><path d="M52,25H12a5.0018,5.0018,0,0,1-5-5V52a5.0018,5.0018,0,0,0,5,5H52a5.0018,5.0018,0,0,0,5-5V47H50a6,6,0,0,1,0-12h7V30A5.0018,5.0018,0,0,0,52,25Z" style="fill:#2d2f30"/><path d="M27.2783,23h3.4434a1.9821,1.9821,0,0,0-3.4434,0Z" style="fill:#2d2f30"/><path d="M32.86,23H35V15.9A5.01,5.01,0,0,1,31.1,12H26.9A5.01,5.01,0,0,1,23,15.9V23h2.14a3.9833,3.9833,0,0,1,7.72,0Z" style="fill:#2d2f30"/><path d="M21,15a1.0056,1.0056,0,0,1,1.0127-1A3.009,3.009,0,0,0,25,11.0127,1.0054,1.0054,0,0,1,26,10h6a1.0054,1.0054,0,0,1,1,1.0127A3.009,3.009,0,0,0,35.9873,14,1.0056,1.0056,0,0,1,37,15v8h3V8a1,1,0,0,0-1-1H19a1,1,0,0,0-1,1V23h3Z" style="fill:#2d2f30"/></g></svg>