<svg xmlns="http://www.w3.org/2000/svg" viewBox="0 0 64 64"><title>artboard-24</title><g id="Money"><path d="M53,18H11a1,1,0,0,0-1,1V45a1,1,0,0,0,1,1H53a1,1,0,0,0,1-1V19A1,1,0,0,0,53,18ZM50,36a1,1,0,0,1-1,1,4.0042,4.0042,0,0,0-4,4,1,1,0,0,1-1,1H20a1,1,0,0,1-1-1,4.0042,4.0042,0,0,0-4-4,1,1,0,0,1-1-1V28a1,1,0,0,1,1-1,3.9588,3.9588,0,0,0,1.7354-.395A4.0268,4.0268,0,0,0,19,23a1,1,0,0,1,1-1H44a1,1,0,0,1,1,1,4.0042,4.0042,0,0,0,4,4,1,1,0,0,1,1,1Z" style="fill:#2d2f30"/><path d="M43.083,24H20.915a6.05,6.05,0,0,1-3.31,4.4058A5.916,5.916,0,0,1,16,28.9175v6.166A6.0158,6.0158,0,0,1,20.917,40H43.083A6.0158,6.0158,0,0,1,48,35.0835v-6.167A6.0158,6.0158,0,0,1,43.083,24ZM35,30a1,1,0,0,1-2,0v-.146A.8556.8556,0,0,0,32.1455,29h-.291a.854.854,0,0,0-.3818,1.6182l1.9492.9746A2.8436,2.8436,0,0,1,33,36.8549V37a1,1,0,0,1-2,0v-.1451a2.8481,2.8481,0,0,1-2-2.7089V34a1,1,0,0,1,2,0v.146a.8556.8556,0,0,0,.8545.854h.291a.854.854,0,0,0,.3818-1.6182l-1.9492-.9746A2.8436,2.8436,0,0,1,31,27.1451V27a1,1,0,0,1,2,0v.1451a2.8481,2.8481,0,0,1,2,2.7089Z" style="fill:#2d2f30"/></g></svg>