<svg xmlns="http://www.w3.org/2000/svg" viewBox="0 0 64 64"><title>artboard-36</title><g id="Moneybag"><path d="M46,18a2.0059,2.0059,0,0,1-2,2H20a2,2,0,0,1,0-4H44A2.0059,2.0059,0,0,1,46,18Z" style="fill:#2d2f30"/><path d="M32,33a8,8,0,1,0,8,8A8.0106,8.0106,0,0,0,32,33Zm3,6a1,1,0,0,1-2,0v-.15a.8493.8493,0,0,0-.85-.85h-.3a.8493.8493,0,0,0-.85.85.8588.8588,0,0,0,.47.77l1.95.97A2.8561,2.8561,0,0,1,33,45.87V46a1,1,0,0,1-2,0v-.13a2.8451,2.8451,0,0,1-2-2.72V43a1,1,0,0,1,2,0v.15a.8493.8493,0,0,0,.85.85h.3a.8493.8493,0,0,0,.85-.85.8588.8588,0,0,0-.47-.77l-1.95-.97A2.8561,2.8561,0,0,1,31,36.13V36a1,1,0,0,1,2,0v.13a2.8451,2.8451,0,0,1,2,2.72Z" style="fill:#2d2f30"/><path d="M45.61,22.2l-.39-.39A4.1481,4.1481,0,0,1,44,22H20a4.1481,4.1481,0,0,1-1.22-.19l-.39.39A28.449,28.449,0,0,0,10,42.45V49A11.0066,11.0066,0,0,0,21,60H43A11.0066,11.0066,0,0,0,54,49V42.45A28.449,28.449,0,0,0,45.61,22.2ZM32,51A10,10,0,1,1,42,41,10.0165,10.0165,0,0,1,32,51Z" style="fill:#2d2f30"/><path d="M44.89,5.45,40.62,14H23.39L19.11,5.45A.9953.9953,0,0,1,20,4H44a.9953.9953,0,0,1,.89,1.45Z" style="fill:#2d2f30"/></g></svg>