<svg xmlns="http://www.w3.org/2000/svg" viewBox="0 0 64 64"><title>artboard-41</title><g id="Trophy"><path d="M27.91,33.46,27.1,50h9.8l-.81-16.54a15.759,15.759,0,0,1-8.18,0Z" style="fill:#2d2f30"/><path d="M44.0161,52.6423A1,1,0,0,0,43.0822,52H20.9178a1,1,0,0,0-.9339.6423L18.07,57.64a.9939.9939,0,0,0,.11.93A.9833.9833,0,0,0,19,59H45a.9833.9833,0,0,0,.82-.43.9939.9939,0,0,0,.11-.93Z" style="fill:#2d2f30"/><path d="M48,8.18v2.05A8.9972,8.9972,0,0,1,46,28a8.5363,8.5363,0,0,1-1.43-.12,15.5414,15.5414,0,0,1-1.55,1.7A10.5711,10.5711,0,0,0,46,30,11.0018,11.0018,0,0,0,48,8.18Z" style="fill:#2d2f30"/><path d="M19.43,27.88A8.5363,8.5363,0,0,1,18,28a8.9972,8.9972,0,0,1-2-17.77V8.18A11.0018,11.0018,0,0,0,18,30a10.5711,10.5711,0,0,0,2.98-.42A15.5414,15.5414,0,0,1,19.43,27.88Z" style="fill:#2d2f30"/><path d="M31.2949,31.9825A14.0148,14.0148,0,0,0,46,18V6a1,1,0,0,0-1-1H19a1,1,0,0,0-1,1V17.594A14.2687,14.2687,0,0,0,31.2949,31.9825ZM29,20a1,1,0,0,1,2,0v.1455A.8556.8556,0,0,0,31.854,21h.292a.854.854,0,0,0,.3813-1.6182l-1.95-.9746A2.8439,2.8439,0,0,1,31,13.145V13a1,1,0,0,1,2,0v.145a2.8485,2.8485,0,0,1,2,2.71V16a1,1,0,0,1-2,0v-.1455A.8556.8556,0,0,0,32.146,15h-.292a.854.854,0,0,0-.3813,1.6182l1.95.9746A2.8438,2.8438,0,0,1,33,22.8549V23a1,1,0,0,1-2,0v-.1451a2.8484,2.8484,0,0,1-2-2.7094Z" style="fill:#2d2f30"/></g></svg>