<svg xmlns="http://www.w3.org/2000/svg" viewBox="0 0 64 64"><title>artboard-49</title><g id="Hourglass"><rect x="9" y="12" width="6" height="40" style="fill:#2d2f30"/><path d="M5.65,9.3936A1,1,0,0,0,6.57,10H57.43a1,1,0,0,0,.9193-.6064L60.92,3.39A1.0045,1.0045,0,0,0,60,2H4a1.0045,1.0045,0,0,0-.92,1.39Z" style="fill:#2d2f30"/><rect x="49" y="12" width="6" height="40" style="fill:#2d2f30"/><path d="M58.35,54.6064A1,1,0,0,0,57.43,54H6.57a1,1,0,0,0-.9193.6064L3.08,60.61A1.0045,1.0045,0,0,0,4,62H60a1.0045,1.0045,0,0,0,.92-1.39Z" style="fill:#2d2f30"/><path d="M47.02,24.58A13.0189,13.0189,0,0,0,43.91,12H20.09a13.0329,13.0329,0,0,0,1.28,19.18L22.4,32l-1.03.82A13.037,13.037,0,0,0,20.09,52H43.91a13.0371,13.0371,0,0,0-1.28-19.18L41.6,32l1.03-.82A13.001,13.001,0,0,0,47.02,24.58Zm-23.81-2.8a.0349.0349,0,0,0,.01-.02,1.0073,1.0073,0,0,1,.97-.76H39.81a1.0073,1.0073,0,0,1,.97.76.0349.0349,0,0,0,.01.02,6.9507,6.9507,0,0,1-2.34,7.34l-5.83,4.66a.9836.9836,0,0,1-1.24,0l-5.83-4.65A6.9816,6.9816,0,0,1,23.21,21.78ZM41.4467,50H22.5533c-.7166-4.99,2.9639-6.8173,8.8267-11.5a.9924.9924,0,0,1,1.24,0C38.4029,43.1189,42.1644,45.0018,41.4467,50Z" style="fill:#2d2f30"/></g></svg>