<svg xmlns="http://www.w3.org/2000/svg" viewBox="0 0 64 64"><title>artboard-29</title><g id="Target"><path d="M29,28.3691a2.3675,2.3675,0,0,0,1.7939,2.2989L31,30.72V26.0373A2.3662,2.3662,0,0,0,29,28.3691Z" style="fill:#2d2f30"/><path d="M33,37.9627a2.3644,2.3644,0,0,0,.2061-4.6307L33,33.2805Z" style="fill:#2d2f30"/><path d="M32,16A16,16,0,1,0,48,32,16.0183,16.0183,0,0,0,32,16Zm5,13a1,1,0,0,1-2,0v-.6309a2.3662,2.3662,0,0,0-2-2.3318V31.22l.6914.1729A4.3562,4.3562,0,0,1,33,39.9626V42a1,1,0,0,1-2,0V39.9626a4.36,4.36,0,0,1-4-4.3317V35a1,1,0,0,1,2,0v.6309a2.3662,2.3662,0,0,0,2,2.3318V32.78l-.6914-.1729A4.3562,4.3562,0,0,1,31,24.0374V22a1,1,0,0,1,2,0v2.0374a4.36,4.36,0,0,1,4,4.3317Z" style="fill:#2d2f30"/><path d="M60,31H56.9746A25.026,25.026,0,0,0,33,7.0254V4a1,1,0,0,0-2,0V7.0254A25.026,25.026,0,0,0,7.0254,31H4a1,1,0,0,0,0,2H7.0254A25.026,25.026,0,0,0,31,56.9746V60a1,1,0,0,0,2,0V56.9746A25.026,25.026,0,0,0,56.9746,33H60a1,1,0,0,0,0-2ZM33,54.9747V52a1,1,0,0,0-2,0v2.9747A23.0258,23.0258,0,0,1,9.0253,33H12a1,1,0,0,0,0-2H9.0253A23.0258,23.0258,0,0,1,31,9.0253V12a1,1,0,0,0,2,0V9.0253A23.0258,23.0258,0,0,1,54.9747,31H52a1,1,0,0,0,0,2h2.9747A23.0258,23.0258,0,0,1,33,54.9747Z" style="fill:#2d2f30"/></g></svg>