<svg xmlns="http://www.w3.org/2000/svg" viewBox="0 0 64 64"><title>artboard-28</title><g id="Loss"><path d="M14,11c20.9056,0,33.3445,13.3873,37.01,18H46a1,1,0,0,0,0,2h7.001A1.038,1.038,0,0,0,54,30V23a1,1,0,0,0-2,0v4.0545C47.5011,21.6536,34.7478,9,14,9a1,1,0,0,0,0,2Z" style="fill:#2d2f30"/><path d="M37,34a1,1,0,0,0-1,1V53h8V35a1,1,0,0,0-1-1Z" style="fill:#2d2f30"/><path d="M48,42V53h8V42a1,1,0,0,0-1-1H49A1,1,0,0,0,48,42Z" style="fill:#2d2f30"/><path d="M20,20a1,1,0,0,0-1-1H13a1,1,0,0,0-1,1V53h8Z" style="fill:#2d2f30"/><path d="M59,55H8V6A3,3,0,0,0,2,6V60a1,1,0,0,0,1,1H59a3,3,0,0,0,0-6Z" style="fill:#2d2f30"/><path d="M25,26a1,1,0,0,0-1,1V53h8V27a1,1,0,0,0-1-1Z" style="fill:#2d2f30"/></g></svg>