<svg xmlns="http://www.w3.org/2000/svg" viewBox="0 0 64 64"><title>artboard-13</title><g id="Auction"><rect x="3.9912" y="54" width="24" height="7" rx="1" ry="1" style="fill:#2d2f30"/><path d="M21.9912,47h-12a3.0088,3.0088,0,0,0-3,3v2h18V50A3.0088,3.0088,0,0,0,21.9912,47Z" style="fill:#2d2f30"/><rect x="21.7476" y="16.1203" width="13.5623" height="14.8492" transform="translate(-8.2929 27.069) rotate(-45)" style="fill:#2d2f30"/><path d="M34.3446,2.4364h7.1925a1,1,0,0,1,1,1V24.65a1,1,0,0,1-1,1H34.3446a1,1,0,0,1-1-1V3.4364a1,1,0,0,1,1-1Z" transform="translate(1.1827 30.9412) rotate(-45)" style="fill:#2d2f30"/><path d="M14.7768,22.207a1,1,0,0,0-1.4142,0L8.2767,27.2929a1,1,0,0,0,0,1.4141l15,15a1,1,0,0,0,1.4141,0l5.0858-5.0859a1,1,0,0,0,0-1.4142Z" style="fill:#2d2f30"/><path d="M58.6637,47.27,38.4037,27l-6.42,6.42,20.27,20.26a4.5325,4.5325,0,1,0,6.41-6.41Z" style="fill:#2d2f30"/></g></svg>