<svg xmlns="http://www.w3.org/2000/svg" viewBox="0 0 64 64"><title>artboard-18</title><g id="Exchange"><path d="M15,21A11,11,0,1,0,26,32,11.0125,11.0125,0,0,0,15,21Zm3,9a1,1,0,0,1-2,0v-.146A.8552.8552,0,0,0,15.146,29h-.292a.8543.8543,0,0,0-.3813,1.6187l1.95.9741A2.8439,2.8439,0,0,1,16,36.855V37a1,1,0,0,1-2,0v-.145a2.8482,2.8482,0,0,1-2-2.709V34a1,1,0,0,1,2,0v.146a.8552.8552,0,0,0,.854.854h.292a.8543.8543,0,0,0,.3813-1.6187l-1.95-.9741A2.8439,2.8439,0,0,1,14,27.145V27a1,1,0,0,1,2,0v.145a2.8482,2.8482,0,0,1,2,2.709Z" style="fill:#2d2f30"/><path d="M49,21A11,11,0,1,0,60,32,11.0125,11.0125,0,0,0,49,21Zm.5,9a.5.5,0,0,1,0,1H46.142a3.5921,3.5921,0,0,0,0,2H49.5a.5.5,0,0,1,0,1H46.5563A3.9865,3.9865,0,0,0,50,36a3.9216,3.9216,0,0,0,1.7881-.4214,1,1,0,1,1,.9043,1.7832A5.8927,5.8927,0,0,1,50,38a6.0048,6.0048,0,0,1-5.65-4H43.5a.5.5,0,0,1,0-1h.59a5.5822,5.5822,0,0,1,0-2H43.5a.5.5,0,0,1,0-1h.85A6.0048,6.0048,0,0,1,50,26a5.8927,5.8927,0,0,1,2.6924.6382,1,1,0,1,1-.9043,1.7832A3.9216,3.9216,0,0,0,50,28a3.9865,3.9865,0,0,0-3.4437,2Z" style="fill:#2d2f30"/><path d="M36,27H30.4141l.2929-.293a1,1,0,0,0-1.414-1.414l-2,2a1.0038,1.0038,0,0,0,0,1.4146l2,2a1,1,0,0,0,1.414-1.414L30.4141,29H36a1,1,0,0,0,0-2Z" style="fill:#2d2f30"/><path d="M36.7064,35.2923,34.707,33.293a1,1,0,0,0-1.414,1.414l.2929.293H28a1,1,0,0,0,0,2h5.5859l-.2929.293a1,1,0,0,0,1.414,1.414l1.9994-1.9993A1.0041,1.0041,0,0,0,36.7064,35.2923Z" style="fill:#2d2f30"/></g></svg>