<svg xmlns="http://www.w3.org/2000/svg" viewBox="0 0 64 64"><title>artboard-25</title><g id="Calculator"><rect x="25" y="29" width="4" height="4" style="fill:#2d2f30"/><rect x="35" y="49" width="4" height="4" style="fill:#2d2f30"/><rect x="35" y="39" width="4" height="4" style="fill:#2d2f30"/><rect x="35" y="29" width="4" height="4" style="fill:#2d2f30"/><rect x="25" y="49" width="4" height="4" style="fill:#2d2f30"/><rect x="15" y="49" width="4" height="4" style="fill:#2d2f30"/><rect x="45" y="39" width="4" height="14" style="fill:#2d2f30"/><rect x="15" y="39" width="4" height="4" style="fill:#2d2f30"/><rect x="15" y="29" width="4" height="4" style="fill:#2d2f30"/><rect x="25" y="39" width="4" height="4" style="fill:#2d2f30"/><rect x="45" y="29" width="4" height="4" style="fill:#2d2f30"/><path d="M52,2H12A4.0042,4.0042,0,0,0,8,6V58a4.0042,4.0042,0,0,0,4,4H52a4.0042,4.0042,0,0,0,4-4V6A4.0042,4.0042,0,0,0,52,2ZM21,54a1,1,0,0,1-1,1H14a1,1,0,0,1-1-1V48a1,1,0,0,1,1-1h6a1,1,0,0,1,1,1Zm0-10a1,1,0,0,1-1,1H14a1,1,0,0,1-1-1V38a1,1,0,0,1,1-1h6a1,1,0,0,1,1,1Zm0-10a1,1,0,0,1-1,1H14a1,1,0,0,1-1-1V28a1,1,0,0,1,1-1h6a1,1,0,0,1,1,1ZM31,54a1,1,0,0,1-1,1H24a1,1,0,0,1-1-1V48a1,1,0,0,1,1-1h6a1,1,0,0,1,1,1Zm0-10a1,1,0,0,1-1,1H24a1,1,0,0,1-1-1V38a1,1,0,0,1,1-1h6a1,1,0,0,1,1,1Zm0-10a1,1,0,0,1-1,1H24a1,1,0,0,1-1-1V28a1,1,0,0,1,1-1h6a1,1,0,0,1,1,1ZM41,54a1,1,0,0,1-1,1H34a1,1,0,0,1-1-1V48a1,1,0,0,1,1-1h6a1,1,0,0,1,1,1Zm0-10a1,1,0,0,1-1,1H34a1,1,0,0,1-1-1V38a1,1,0,0,1,1-1h6a1,1,0,0,1,1,1Zm0-10a1,1,0,0,1-1,1H34a1,1,0,0,1-1-1V28a1,1,0,0,1,1-1h6a1,1,0,0,1,1,1ZM51,54a1,1,0,0,1-1,1H44a1,1,0,0,1-1-1V38a1,1,0,0,1,1-1h6a1,1,0,0,1,1,1Zm0-20a1,1,0,0,1-1,1H44a1,1,0,0,1-1-1V28a1,1,0,0,1,1-1h6a1,1,0,0,1,1,1Zm0-13a1,1,0,0,1-1,1H14a1,1,0,0,1-1-1V9a1,1,0,0,1,1-1H50a1,1,0,0,1,1,1Z" style="fill:#2d2f30"/><path d="M15,20H49V10H15Zm14-8a1,1,0,0,1,2,0v6a1,1,0,0,1-2,0Zm-4,0a1,1,0,0,1,2,0v6a1,1,0,0,1-2,0Zm-4,0a1,1,0,0,1,2,0v6a1,1,0,0,1-2,0Zm-4,0a1,1,0,0,1,2,0v6a1,1,0,0,1-2,0Z" style="fill:#2d2f30"/></g></svg>