<svg xmlns="http://www.w3.org/2000/svg" viewBox="0 0 64 64"><title>artboard-7</title><g id="Coin"><path d="M32,16A16,16,0,1,0,48,32,16.0183,16.0183,0,0,0,32,16Zm5,13a1,1,0,0,1-2,0v-.6309a2.3669,2.3669,0,0,0-2-2.3317v5.1817l.69.1725a4.3567,4.3567,0,0,1-.69,8.571V42a1,1,0,0,1-2,0V39.9626a4.36,4.36,0,0,1-4-4.3317V35a1,1,0,0,1,2,0v.6309a2.3669,2.3669,0,0,0,2,2.3317V32.7809l-.69-.1725a4.3567,4.3567,0,0,1,.69-8.571V22a1,1,0,0,1,2,0v2.0374a4.36,4.36,0,0,1,4,4.3317Z" style="fill:#2d2f30"/><path d="M29,28.3691a2.3664,2.3664,0,0,0,1.7949,2.2989L31,30.7192V26.0374A2.3669,2.3669,0,0,0,29,28.3691Z" style="fill:#2d2f30"/><path d="M32,10A22,22,0,1,0,54,32,22.0248,22.0248,0,0,0,32,10Zm0,40A18,18,0,1,1,50,32,18.02,18.02,0,0,1,32,50Z" style="fill:#2d2f30"/><path d="M35,35.6309a2.3664,2.3664,0,0,0-1.7949-2.2989L33,33.2808v4.6818A2.3669,2.3669,0,0,0,35,35.6309Z" style="fill:#2d2f30"/></g></svg>