<svg xmlns="http://www.w3.org/2000/svg" viewBox="0 0 64 64"><title>artboard-30</title><g id="Tie"><polygon points="40.2 6 23.8 6 32 12.71 40.2 6" style="fill:#2d2f30"/><polygon points="30.51 14.07 21.19 6.45 17.16 12.09 22.27 22.31 30.51 14.07" style="fill:#2d2f30"/><polygon points="41.73 22.31 46.84 12.09 42.81 6.45 33.49 14.07 41.73 22.31" style="fill:#2d2f30"/><polygon points="32 15.42 27.22 20.2 29.62 25 34.39 25 36.78 20.2 32 15.42" style="fill:#2d2f30"/><polygon points="26.09 47.61 32 52.68 37.91 47.61 34.17 27 29.83 27 26.09 47.61" style="fill:#2d2f30"/><rect x="46" y="32" width="8" height="2" style="fill:#2d2f30"/><polygon points="46 40.32 50 41.92 54 40.32 54 36 46 36 46 40.32" style="fill:#2d2f30"/><path d="M59.418,18.3522,48.46,13.31,42.89,24.45a1.0052,1.0052,0,0,1-1.6.26l-3.02-3.02-2.23,4.46,3.94,21.67a.9852.9852,0,0,1-.33.94l-7,6a.991.991,0,0,1-1.3,0l-7-6a.9852.9852,0,0,1-.33-.94l3.94-21.67-2.23-4.46-3.02,3.02a.99.99,0,0,1-1.6-.26L15.73,13.68,4.5818,18.8121A1,1,0,0,0,4,19.7205V57a1.0029,1.0029,0,0,0,1,1H59a1.0029,1.0029,0,0,0,1-1V19.2606A1,1,0,0,0,59.418,18.3522ZM56,41a1,1,0,0,1-.63.93l-5,2a1.0072,1.0072,0,0,1-.74,0l-5-2A1,1,0,0,1,44,41V31a1.0029,1.0029,0,0,1,1-1H55a1.0029,1.0029,0,0,1,1,1Z" style="fill:#2d2f30"/></g></svg>