<svg xmlns="http://www.w3.org/2000/svg" viewBox="0 0 64 64"><title>artboard-33</title><g id="Statistycs"><path d="M56,17H8a1.0029,1.0029,0,0,0-1,1v4a1,1,0,0,0,1,1H56a1,1,0,0,0,1-1V18A1.0029,1.0029,0,0,0,56,17Z" style="fill:#2d2f30"/><path d="M28.5083,7.9117a3.9633,3.9633,0,0,0,6.9835,0L42.58,15h2.84L35.9528,5.5327a3.9778,3.9778,0,0,0-7.9056,0L18.58,15h2.84Z" style="fill:#2d2f30"/><path d="M33,56.1843V52H31v4.1843a3,3,0,1,0,2,0Z" style="fill:#2d2f30"/><path d="M10,49a1,1,0,0,0,1,1H53a1,1,0,0,0,1-1V25H10ZM43,32h6v2H43Zm0,5h6v2H43Zm0,5h6v2H43ZM35,32h6v2H35Zm0,5h6v2H35Zm0,5h6v2H35ZM15,30a1,1,0,0,1,2,0V44h2V34a1,1,0,0,1,2,0V44h2V37a1,1,0,0,1,2,0v7h2V40a1,1,0,0,1,2,0v4h2a1,1,0,0,1,0,2H16a1.0029,1.0029,0,0,1-1-1Z" style="fill:#2d2f30"/></g></svg>