<?xml version="1.0" encoding="utf-8"?>
<!-- Uploaded to: SVG Repo, www.svgrepo.com, Generator: SVG Repo Mixer Tools -->
<svg fill="#000000" height="800px" width="800px" version="1.2" baseProfile="tiny" id="Gift" xmlns="http://www.w3.org/2000/svg" xmlns:xlink="http://www.w3.org/1999/xlink"
	  viewBox="0 0 256 256" xml:space="preserve">
<path d="M244.8,48.8L126.9,0.4L10.2,49.9v34.4h234.6V48.8z M131.5,37.1l-1.4,6.5h-12.8c-0.1,1-0.1,2.1-0.1,3.2c0,1.1,0,2.2,0.1,3.2
	h12l-1.4,6.5h-9.2c0.3,0.8,0.8,1.6,1.2,2.3c1.9,2.7,4.2,4,7.1,4c2.9,0,5.2-1.1,6.7-3.4c0.9-1.2,1.6-3.1,2.1-5.5h8.3
	c-0.7,5.2-2.6,9.4-5.6,12.7c-3,3.3-6.8,4.9-11.5,4.9c-5.8,0-10.3-2.2-13.6-6.6c-1.7-2.3-3-5.1-3.8-8.3H99.5l1.4-6.5h8
	c-0.1-1.1-0.1-2.2-0.1-3.4c0-1,0-2.1,0.1-3h-9.3l1.4-6.5h8.9c0.9-3.9,2.4-7.1,4.6-9.7c3.3-3.9,7.4-5.9,12.5-5.9
	c6.7,0,11.7,2.6,14.8,7.9c1.7,3,2.7,5.9,2.8,8.9H136c-0.5-2.3-1.2-4-2.1-5.2c-1.5-2.1-3.8-3.1-6.8-3.1c-3,0-5.5,1.5-7.2,4.4
	c-0.5,0.8-0.9,1.7-1.2,2.7H131.5z M246,230.8l0-19.6l-9.7,0l0-96.7l9.8,0l0-19.6l-236,0l0,19.6l10.2,0l0,96.7l-10.3,0l0,19.6l-9.8,0
	l0,24.9l255.6,0l0-24.9L246,230.8z M39.9,211.1l0-96.7l19.6,0l0,96.7L39.9,211.1z M79.2,211.1l0-96.7l19.6,0l0,96.7L79.2,211.1z
	 M118.5,211.1l0-96.7l19.6,0l0,96.7L118.5,211.1z M157.7,211.1l0-96.7l19.6,0l0,96.7L157.7,211.1z M197,211.1l0-96.7l19.6,0l0,96.7
	L197,211.1z"/>
</svg>