<?xml version="1.0" encoding="iso-8859-1"?>
<!-- Uploaded to: SVG Repo, www.svgrepo.com, Generator: SVG Repo Mixer Tools -->
<svg version="1.1" id="Layer_1" xmlns="http://www.w3.org/2000/svg" xmlns:xlink="http://www.w3.org/1999/xlink" 
	 viewBox="0 0 512 512" xml:space="preserve">
<path style="fill:#FFFFFF;" d="M117.6,508C90.207,508,68,485.793,68,458.4l0,0V4h326.4C421.793,4,444,26.207,444,53.6l0,0V508H117.6
	z"/>
<path style="fill:#999999;" d="M394.401,8c25.185,0,45.6,20.416,45.6,45.6l0,0V504H117.6C92.416,504,72,483.585,72,458.4l0,0V8
	H394.401 M394.401,0H64v458.4c0,29.603,23.997,53.6,53.6,53.6l0,0H448V53.6C448.001,23.997,424.004,0,394.401,0L394.401,0z"/>
<g>
	<rect x="225.188" y="284.791" style="fill:#CCCCCC;" width="156.238" height="8"/>
	<rect x="225.188" y="311.022" style="fill:#CCCCCC;" width="156.238" height="8"/>
	<rect x="225.188" y="190.807" style="fill:#CCCCCC;" width="156.238" height="8"/>
	<rect x="225.188" y="217.058" style="fill:#CCCCCC;" width="156.238" height="8"/>
	<rect x="225.188" y="96.833" style="fill:#CCCCCC;" width="156.238" height="8"/>
	<rect x="225.188" y="123.074" style="fill:#CCCCCC;" width="156.238" height="8"/>
	<rect x="225.188" y="378.756" style="fill:#CCCCCC;" width="156.238" height="8"/>
	<rect x="225.188" y="404.996" style="fill:#CCCCCC;" width="156.238" height="8"/>
</g>
<path style="fill:#E21B1B;" d="M162.617,83.96c-17.673,0-32,14.327-32,32s14.327,32,32,32s32-14.327,32-32h-32V83.96z"/>
<path d="M167.625,82.184v28.8h28.8C195.625,95.422,183.187,82.984,167.625,82.184z"/>
<path style="fill:#E21B1B;" d="M162.617,177.936c-17.673,0-32,14.327-32,32s14.327,32,32,32s32-14.327,32-32h-32V177.936z"/>
<path d="M167.625,176.152v28.8h28.8C195.625,189.39,183.187,176.952,167.625,176.152z"/>
<path style="fill:#E21B1B;" d="M162.545,271.912c-17.673,0-32,14.327-32,32c0,17.673,14.327,32,32,32s32-14.327,32-32h-32V271.912z"
	/>
<path d="M167.625,270.056v28.8h28.8C195.625,283.294,183.187,270.856,167.625,270.056z"/>
<path style="fill:#E21B1B;" d="M162.545,365.864c-17.673,0-32,14.327-32,32s14.327,32,32,32s32-14.327,32-32h-32V365.864z"/>
<path d="M167.625,364v28.76h28.8C195.605,377.213,183.173,364.798,167.625,364z"/>
</svg>