<?xml version="1.0" encoding="iso-8859-1"?>
<!-- Uploaded to: SVG Repo, www.svgrepo.com, Generator: SVG Repo Mixer Tools -->
<svg version="1.1" id="Layer_1" xmlns="http://www.w3.org/2000/svg" xmlns:xlink="http://www.w3.org/1999/xlink" 
	 viewBox="0 0 512 512" xml:space="preserve">
<path style="fill:#E5E5E5;" d="M256,0C114.616,0,0,114.616,0,256s114.616,256,256,256s256-114.616,256-256S397.384,0,256,0z"/>
<path d="M320.968,424H191.032c-23.096,0-42-18.896-42-42V130c0-23.096,18.904-42,42-42h129.936c23.104,0,42,18.904,42,42v252
	C362.968,405.096,344.072,424,320.968,424z"/>
<g>
	<rect x="165.44" y="127.648" style="fill:#FFFFFF;" width="183.752" height="247.352"/>
	<circle style="fill:#FFFFFF;" cx="256" cy="107.8" r="7.872"/>
	<path style="fill:#FFFFFF;" d="M273.808,408.424H238.2c-4.92,0-8.904-3.984-8.904-8.904s3.984-8.904,8.904-8.904h35.608
		c4.92,0,8.904,3.984,8.904,8.904S278.728,408.424,273.808,408.424z"/>
</g>
<g>
	<rect x="187.232" y="316.504" style="fill:#FF583E;" width="137.528" height="8"/>
	<rect x="202.496" y="334.152" style="fill:#FF583E;" width="107.016" height="8"/>
</g>
<circle style="fill:#F00000;" cx="256" cy="221.432" r="72.64"/>
<path style="fill:#FFFFFF;" d="M284.216,261.128c-4.568,2.552-12.368,5.104-20.968,5.104c-13.176,0-25.264-5.376-32.792-15.32
	c-3.632-4.568-6.32-10.344-7.528-17.472h-8.736v-9.544h7.392c0-0.672,0-1.48,0-2.288c0-1.344,0.136-2.68,0.136-4.032h-7.528v-9.536
	h9.008c1.744-7.264,4.976-13.44,9.272-18.416c7.664-8.6,18.416-13.704,31.048-13.704c8.2,0,15.32,1.88,20.16,4.032l-3.768,15.32
	c-3.488-1.48-9-3.232-14.92-3.232c-6.448,0-12.368,2.16-16.528,7.264c-1.88,2.152-3.36,5.24-4.304,8.736h33.472v9.536h-35.496
	c-0.128,1.352-0.128,2.824-0.128,4.168c0,0.808,0,1.344,0,2.152h35.624v9.544h-33.736c0.936,4.032,2.416,7.128,4.432,9.408
	c4.296,4.84,10.624,6.848,17.344,6.848c6.176,0,12.496-2.008,15.32-3.488L284.216,261.128z"/>
</svg>