<svg xmlns="http://www.w3.org/2000/svg" viewBox="0 0 64 64"><g id="Layer_31" data-name="Layer 31"><path d="M7,31H37a0,0,0,0,1,0,0V51a0,0,0,0,1,0,0H7a2,2,0,0,1-2-2V33a2,2,0,0,1,2-2Z" transform="translate(42 82) rotate(-180)" style="fill:#e6e6e6"/><path d="M8,32V31H5V51H35a2,2,0,0,0,2-2V48H24A16,16,0,0,1,8,32Z" style="fill:#cecece"/><path d="M1,31H3a2,2,0,0,1,2,2V49a2,2,0,0,1-2,2H1a0,0,0,0,1,0,0V31A0,0,0,0,1,1,31Z" transform="translate(6 82) rotate(-180)" style="fill:#7a838b"/><path d="M1,48H3a2,2,0,0,1,2,2v1a0,0,0,0,1,0,0H1a0,0,0,0,1,0,0V48A0,0,0,0,1,1,48Z" transform="translate(6 99) rotate(-180)" style="fill:#5d6972"/><path d="M33,35h2a2,2,0,0,1,2,2v8a2,2,0,0,1-2,2H33a0,0,0,0,1,0,0V35A0,0,0,0,1,33,35Z" transform="translate(70 82) rotate(-180)" style="fill:#7a838b"/><path d="M33,42v3a2,2,0,0,0,2,2h2V44H35A2,2,0,0,1,33,42Z" style="fill:#5d6972"/><path d="M39,35h4a0,0,0,0,1,0,0V47a0,0,0,0,1,0,0H39a2,2,0,0,1-2-2V37A2,2,0,0,1,39,35Z" transform="translate(80 82) rotate(-180)" style="fill:#e6e6e6"/><path d="M40,42V35H37V47h4a2,2,0,0,0,2-2V44H42A2,2,0,0,1,40,42Z" style="fill:#cecece"/><rect x="43" y="37" width="4" height="8" transform="translate(90 82) rotate(-180)" style="fill:#7a838b"/><rect x="43" y="37" width="2" height="8" transform="translate(88 82) rotate(-180)" style="fill:#5d6972"/><path d="M50.66,47h6.333V35H50.66a4,4,0,0,0-2.824,1.167L47,37v8l.836.833A4,4,0,0,0,50.66,47Z" style="fill:#e6e6e6"/><path d="M53.66,44a4,4,0,0,1-2.824-1.167l-.248-.247A2,2,0,0,1,50,41.17V35.065a4,4,0,0,0-2.164,1.1L47,37v8l.836.833A4,4,0,0,0,50.66,47h6.333V44Z" style="fill:#cecece"/><path d="M56.993,47l1.422,1.417A2,2,0,0,0,59.826,49H63V33H59.826a2,2,0,0,0-1.411.583L56.993,35Z" style="fill:#7a838b"/><path d="M62.826,46a2,2,0,0,1-1.411-.583l-.245-.245a4,4,0,0,1-1.177-2.833V33h-.167a2,2,0,0,0-1.411.583L56.993,35V47l1.422,1.417A2,2,0,0,0,59.826,49H63V46Z" style="fill:#5d6972"/><rect x="15" y="35" width="15" height="12" rx="2" transform="translate(45 82) rotate(-180)" style="fill:#a7d0e1"/><path d="M26,44a8,8,0,0,1-8-8V35H17a2,2,0,0,0-2,2v8a2,2,0,0,0,2,2H28a2,2,0,0,0,2-2V44Z" style="fill:#80bbce"/><path d="M23,25H35a0,0,0,0,1,0,0v4a2,2,0,0,1-2,2H25a2,2,0,0,1-2-2V25A0,0,0,0,1,23,25Z" transform="translate(58 56) rotate(-180)" style="fill:#7a838b"/><path d="M26,26V25H25a2,2,0,0,0-2,2v4H35V28H28A2,2,0,0,1,26,26Z" style="fill:#5d6972"/><path d="M29,13h4a0,0,0,0,1,0,0v6a2,2,0,0,1-2,2h0a2,2,0,0,1-2-2V13a0,0,0,0,1,0,0Z" transform="translate(62 34) rotate(-180)" style="fill:#7a838b"/><rect x="29" y="21" width="4" height="4" transform="translate(62 46) rotate(-180)" style="fill:#e6e6e6"/><rect x="29" y="21" width="4" height="2" transform="translate(62 44) rotate(-180)" style="fill:#cecece"/><rect x="33" y="17" width="4" height="4" transform="translate(70 38) rotate(-180)" style="fill:#e6e6e6"/><path d="M21,17h6a2,2,0,0,1,2,2v0a2,2,0,0,1-2,2H21a0,0,0,0,1,0,0V17a0,0,0,0,1,0,0Z" transform="translate(50 38) rotate(-180)" style="fill:#7a838b"/><rect x="27" y="17" width="2" height="4" transform="translate(56 38) rotate(-180)" style="fill:#5d6972"/><path d="M24,19a2,2,0,0,1,2-2H23a2,2,0,0,0,0,4h3A2,2,0,0,1,24,19Z" style="fill:#5d6972"/><path d="M39.54,21.966,53,21.125A2.129,2.129,0,0,0,55,19h0a2.129,2.129,0,0,0-2-2.125L39.54,16.034a2,2,0,0,0-1.018.206L37,17v4l1.522.76A2,2,0,0,0,39.54,21.966Z" style="fill:#7a838b"/><path d="M43.054,18.934a3.907,3.907,0,0,1-1.993-.405h0A1.916,1.916,0,0,1,40,16.815v-.753l-.46-.028a2,2,0,0,0-1.018.206L37,17v4l1.522.76a2,2,0,0,0,1.018.206l13.36-.835a2.2,2.2,0,0,0,2.047-1.667A2.143,2.143,0,0,0,54.84,18.2Z" style="fill:#5d6972"/><circle cx="10" cy="45" r="2" style="fill:#5d6972"/><path d="M63,32H59.827a2.985,2.985,0,0,0-2.119.875L56.58,34H50.66a4.97,4.97,0,0,0-3.53,1.458L46.586,36h-2.77A3,3,0,0,0,41,34H38V33a3,3,0,0,0-2-2.816V27a3,3,0,0,0-2-2.816V22h2.764l1.311.655a3.02,3.02,0,0,0,1.341.315c.062,0,.124,0,.187-.006l13.46-.841a3.129,3.129,0,0,0,0-6.246L39.6,15.036a3.019,3.019,0,0,0-1.528.31L36.764,16H34V15a3,3,0,0,0-6,0v1H23a3,3,0,0,0,0,6h5v2H25a3,3,0,0,0-3,3v3H3a3,3,0,0,0-3,3V49a3,3,0,0,0,3,3H35a3,3,0,0,0,3-3V48h3a3,3,0,0,0,2.816-2h2.77l.544.542A4.97,4.97,0,0,0,50.66,48h5.92l1.129,1.125A2.981,2.981,0,0,0,59.827,50H63a1,1,0,0,0,1-1V33A1,1,0,0,0,63,32ZM36,46H35a1,1,0,0,1-1-1V37a1,1,0,0,1,1-1h1Zm2.968-28.865a.986.986,0,0,1,.51-.1l13.46.841a1.129,1.129,0,0,1,0,2.254l-13.46.841a.967.967,0,0,1-.51-.1L38,20.382V17.618ZM36,18v2H34V18Zm-6-3a1,1,0,0,1,2,0v5H30V15Zm-8,4a1,1,0,0,1,1-1h5v2H23A1,1,0,0,1,22,19Zm8,3h2v2H30Zm5,28H6V41a1,1,0,0,0-2,0v9H3a1,1,0,0,1-1-1V33a1,1,0,0,1,1-1H4v5a1,1,0,0,0,2,0V32H25a1,1,0,0,0,0-2H24V27a1,1,0,0,1,1-1h8a1,1,0,0,1,1,1v3H29a1,1,0,0,0,0,2h6a1,1,0,0,1,1,1v1H35a3,3,0,0,0-3,3v8a3,3,0,0,0,3,3h1v1A1,1,0,0,1,35,50Zm6-4H38V36h3a1,1,0,0,1,1,1v8A1,1,0,0,1,41,46Zm3-8h2v6H44Zm4.542,7.125L48,44.585v-7.17l.542-.54A2.981,2.981,0,0,1,50.66,36h5.333v1H51a1,1,0,0,0,0,2h4.993v1H51a1,1,0,0,0,0,2h4.993v1H51a1,1,0,0,0,0,2h4.993v1H50.66A2.981,2.981,0,0,1,48.542,45.125ZM62,48H59.827a.992.992,0,0,1-.706-.292l-1.128-1.123V35.415l1.127-1.123A1,1,0,0,1,59.827,34H62Z"/><path d="M28,34H17a3,3,0,0,0-3,3v8a3,3,0,0,0,3,3H28a3,3,0,0,0,3-3V37A3,3,0,0,0,28,34Zm1,11a1,1,0,0,1-1,1H17a1,1,0,0,1-1-1V37a1,1,0,0,1,1-1H28a1,1,0,0,1,1,1Z"/><path d="M10,42a3,3,0,1,0,3,3A3,3,0,0,0,10,42Zm0,4a1,1,0,1,1,1-1A1,1,0,0,1,10,46Z"/><path d="M9,36h2a1,1,0,0,0,0-2H9a1,1,0,0,0,0,2Z"/><path d="M9,40h2a1,1,0,0,0,0-2H9a1,1,0,0,0,0,2Z"/><path d="M28,38H26a1,1,0,0,1,0-2h2a1,1,0,0,1,0,2Z" style="fill:#fff"/></g></svg>