<svg xmlns="http://www.w3.org/2000/svg" viewBox="0 0 64 64"><g id="Layer_31" data-name="Layer 31"><path d="M7,19h4a0,0,0,0,1,0,0V37a0,0,0,0,1,0,0H7a2,2,0,0,1-2-2V21A2,2,0,0,1,7,19Z" style="fill:#e6e6e6"/><path d="M11,34a3,3,0,0,1-3-3V19H7a2,2,0,0,0-2,2V35a2,2,0,0,0,2,2h4V34Z" style="fill:#cecece"/><path d="M5,35l-1.789-.894A4,4,0,0,1,1,30.528V25.472a4,4,0,0,1,2.211-3.578L5,21Z" style="fill:#ea5b5a"/><path d="M1,27v3.528a4,4,0,0,0,2.211,3.578L5,35V31.472l-1.789-.894A4,4,0,0,1,1,27Z" style="fill:#e04b4b"/><rect x="11" y="19" width="14" height="18" style="fill:#ea5b5a"/><rect x="11" y="34" width="14" height="3" style="fill:#e04b4b"/><path d="M27.334,19H25V37h2.334a23.988,23.988,0,0,1,10.733,2.534L49,45V11L38.067,16.466A23.988,23.988,0,0,1,27.334,19Z" style="fill:#e6e6e6"/><path d="M49.387,47h0a1.967,1.967,0,0,1-1.924-2.342,91.053,91.053,0,0,0,0-33.316A1.967,1.967,0,0,1,49.387,9h0a1.966,1.966,0,0,1,1.932,1.582,91.094,91.094,0,0,1,0,34.836A1.966,1.966,0,0,1,49.387,47Z" style="fill:#ea5b5a"/><path d="M45.676,12.662A90.767,90.767,0,0,1,46.6,36.223a2.008,2.008,0,0,1-2.892,1.63l-2.638-1.319A24,24,0,0,0,30.334,34H30a2,2,0,0,1-2-2V18.981c-.222.006-.443.019-.666.019H25V37h2.334a24,24,0,0,1,10.734,2.534l7.608,3.8L49,45V11Z" style="fill:#cecece"/><path d="M51.387,44a1.967,1.967,0,0,1-1.924-2.342,91,91,0,0,0,.109-32.642C49.51,9.01,49.45,9,49.387,9a1.967,1.967,0,0,0-1.924,2.342,91.053,91.053,0,0,1,0,33.316,1.965,1.965,0,0,0,3.856.76c.092-.478.158-.956.242-1.433C51.5,43.99,51.446,44,51.387,44Z" style="fill:#e04b4b"/><path d="M23,41H16.236a2,2,0,0,1-1.789-1.106L13,37H25v2A2,2,0,0,1,23,41Z" style="fill:#e6e6e6"/><polygon points="14 39 25 39 25 37 13 37 14 39" style="fill:#cecece"/><path d="M24,55H19.862a2,2,0,0,1-1.995-1.858L17,41h6l.89,8.9a2,2,0,0,0,1.1,1.59L26,52v1A2,2,0,0,1,24,55Z" style="fill:#ea5b5a"/><path d="M23.724,52a4,4,0,0,1-3.989-3.715l-.225-3.143A2,2,0,0,1,21.505,43H23l.18-.2L23,41H17l.867,12.142A2,2,0,0,0,19.862,55H24a2,2,0,0,0,2-2V52Z" style="fill:#e04b4b"/><path d="M49.387,8a2.943,2.943,0,0,0-2.268,1.062,2.975,2.975,0,0,0-.667,2.094L37.62,15.572A23.124,23.124,0,0,1,27.334,18H7a3,3,0,0,0-2.922,2.343L2.764,21A4.972,4.972,0,0,0,0,25.472v5.056A4.973,4.973,0,0,0,2.764,35l1.314.657A3,3,0,0,0,7,38h5.382l1.171,2.342a2.977,2.977,0,0,0,2.515,1.646l.8,11.226A3.01,3.01,0,0,0,19.862,56H24a3,3,0,0,0,3-3V52a1,1,0,0,0-.553-.9L25.433,50.6a1,1,0,0,1-.548-.795l-.8-8.014A3,3,0,0,0,26,39V38h1.334A23.106,23.106,0,0,1,37.62,40.429l8.832,4.415a2.955,2.955,0,0,0,5.849.763,92.5,92.5,0,0,0,0-35.215A2.966,2.966,0,0,0,49.387,8ZM2,30.528V25.472a2.982,2.982,0,0,1,1.658-2.683L4,22.618V33.382l-.342-.171A2.983,2.983,0,0,1,2,30.528Zm9-4.51a1,1,0,0,0-1,1V36H7a1,1,0,0,1-1-1V21a1,1,0,0,1,1-1h3v2.986a1,1,0,1,0,2,0V20H24V36H12V27.018A1,1,0,0,0,11,26.018Zm4.342,13.429L14.618,38H24v1a1,1,0,0,1-1,1H16.236A.994.994,0,0,1,15.342,39.447ZM25,52.618V53a1,1,0,0,1-1,1H19.862a1,1,0,0,1-1-.929L18.074,42H22.1l.8,8a2.988,2.988,0,0,0,1.644,2.385ZM27.334,36H26V20h1.334a25.141,25.141,0,0,0,11.181-2.639l8.241-4.121a90.371,90.371,0,0,1,0,29.52l-8.241-4.12A25.122,25.122,0,0,0,27.334,36Zm23,9.229a.961.961,0,0,1-.95.771.939.939,0,0,1-.731-.342.992.992,0,0,1-.21-.818,92.454,92.454,0,0,0,0-33.679,1,1,0,0,1,.211-.819.935.935,0,0,1,.73-.342.962.962,0,0,1,.95.771A90.534,90.534,0,0,1,50.337,45.229Z"/><path d="M63,27H59a1,1,0,0,0,0,2h4a1,1,0,0,0,0-2Z"/><path d="M57.259,22.5a.992.992,0,0,0,.5-.134l3.465-2a1,1,0,0,0-1-1.732l-3.465,2a1,1,0,0,0,.5,1.866Z"/><path d="M61.223,35.634l-3.465-2a1,1,0,1,0-1,1.732l3.465,2a.992.992,0,0,0,.5.134,1,1,0,0,0,.5-1.866Z"/><path d="M23,22H21a1,1,0,0,1,0-2h2a1,1,0,0,1,0,2Z" style="fill:#fff"/></g></svg>