<svg xmlns="http://www.w3.org/2000/svg" viewBox="0 0 64 64"><g id="Layer_31" data-name="Layer 31"><path d="M17,57H47a2,2,0,0,1,2,2v4a0,0,0,0,1,0,0H15a0,0,0,0,1,0,0V59A2,2,0,0,1,17,57Z" style="fill:#7a838b"/><path d="M18,58V57H17a2,2,0,0,0-2,2v4H49V60H20A2,2,0,0,1,18,58Z" style="fill:#5d6972"/><path d="M21,45H43a2,2,0,0,1,2,2V57a0,0,0,0,1,0,0H19a0,0,0,0,1,0,0V47A2,2,0,0,1,21,45Z" style="fill:#7a838b"/><path d="M22,50V45H21a2,2,0,0,0-2,2V57H45V54H26A4,4,0,0,1,22,50Z" style="fill:#5d6972"/><polygon points="36 25 28 25 23 45 41 45 36 25" style="fill:#f8c460"/><path d="M40.25,42h-4a7.994,7.994,0,0,1-7.875-6.618,3.949,3.949,0,0,1,1.538-3.8l1.474-1.122a1.02,1.02,0,0,1,1.234,0l5.864,4.459L36,25H28L23,45H41Z" style="fill:#faaf42"/><path d="M32.952,1.663l3.864,10.7a1.012,1.012,0,0,0,.953.663H48.987a1,1,0,0,1,.575,1.822l-9.821,6.721a.992.992,0,0,0-.363,1.193l4.4,10.865a1.008,1.008,0,0,1-1.555,1.164l-9.6-7.3a1.023,1.023,0,0,0-1.234,0l-9.6,7.3a1.008,1.008,0,0,1-1.555-1.164l4.4-10.865a.992.992,0,0,0-.363-1.193l-9.821-6.721a1,1,0,0,1,.575-1.822H26.231a1.012,1.012,0,0,0,.953-.663l3.864-10.7A1.015,1.015,0,0,1,32.952,1.663Z" style="fill:#f8c460"/><path d="M23.226,32.6l4.4-10.865a.992.992,0,0,0-.363-1.193l-9.821-6.722a.964.964,0,0,1-.435-.8h-1.99a1,1,0,0,0-.575,1.822l9.821,6.721a.992.992,0,0,1,.363,1.193l-4.4,10.865a1.008,1.008,0,0,0,1.555,1.164l1.586-1.206A.954.954,0,0,1,23.226,32.6Z" style="fill:#faaf42"/><rect x="25" y="49" width="14" height="4" style="fill:#e6e6e6"/><path d="M50.909,13.435a2,2,0,0,0-1.922-1.413l-11.23,0-3.864-10.7a2.016,2.016,0,0,0-3.786,0l-3.876,10.7H15.013a2,2,0,0,0-1.14,3.647L23.7,22.383,19.3,33.248a1.975,1.975,0,0,0,.641,2.332,2,2,0,0,0,2.448,0l2.39-1.813L22.219,44H21a3,3,0,0,0-3,3v9H17a3,3,0,0,0-3,3v4a1,1,0,0,0,1,1H49a1,1,0,0,0,1-1V59a3,3,0,0,0-3-3H46V47a3,3,0,0,0-3-3H41.781L39.222,33.765l2.391,1.818a2,2,0,0,0,2.448,0,1.973,1.973,0,0,0,.64-2.332l-4.4-10.857,9.821-6.722A1.984,1.984,0,0,0,50.909,13.435ZM48,59v3H16V59a1,1,0,0,1,1-1H47A1,1,0,0,1,48,59ZM44,47v9H20V47a1,1,0,0,1,1-1H43A1,1,0,0,1,44,47Zm-4.281-3H24.281l3.04-12.16,4.69-3.559,4.665,3.548Zm-.542-23.261a1.98,1.98,0,0,0-.726,2.394l4.373,10.858-9.6-7.3a2.028,2.028,0,0,0-2.444,0L21.152,34l4.4-10.864a1.98,1.98,0,0,0-.725-2.394l-9.811-6.718H26.231A2.014,2.014,0,0,0,28.124,12.7l3.883-10.7.005.01L35.875,12.7a2.016,2.016,0,0,0,1.894,1.325l11.229,0Z"/><path d="M39,48H37a1,1,0,0,0,0,2h1v2H26V50h7a1,1,0,0,0,0-2H25a1,1,0,0,0-1,1v4a1,1,0,0,0,1,1H39a1,1,0,0,0,1-1V49A1,1,0,0,0,39,48Z"/><path d="M43,48H41a1,1,0,0,1,0-2h2a1,1,0,0,1,0,2Z" style="fill:#fff"/></g></svg>