<svg xmlns="http://www.w3.org/2000/svg" viewBox="0 0 64 64"><g id="Layer_31" data-name="Layer 31"><rect x="11" y="21" width="36" height="26" rx="2" style="fill:#7a838b"/><circle cx="36" cy="36" r="5" style="fill:#5d6972"/><circle cx="25" cy="36" r="3" style="fill:#5d6972"/><path d="M37,44A23,23,0,0,1,14,21H13a2,2,0,0,0-2,2V45a2,2,0,0,0,2,2H45a2,2,0,0,0,2-2V44Z" style="fill:#5d6972"/><rect x="47" y="27" width="4" height="14" style="fill:#e6e6e6"/><rect x="47" y="27" width="2" height="14" style="fill:#cecece"/><path d="M63,45H56.657a4,4,0,0,1-2.829-1.172L51,41V27l2.828-2.828A4,4,0,0,1,56.657,23H63Z" style="fill:#7a838b"/><path d="M60.828,42A6.826,6.826,0,0,1,56,40h0a6.826,6.826,0,0,1-2-4.828V24.243l-.172-.071L51,27V41l2.828,2.828A4,4,0,0,0,56.657,45H63V42Z" style="fill:#5d6972"/><rect x="5" y="27" width="6" height="6" style="fill:#e6e6e6"/><path d="M9,27v1a2,2,0,0,1-2,2H5v3h6V27Z" style="fill:#cecece"/><polygon points="5 27 1 25 1 35 5 33 5 27" style="fill:#7a838b"/><polygon points="1 35 5 33 5 30 1 32 1 35" style="fill:#5d6972"/><circle cx="19" cy="11" r="10" style="fill:#e6e6e6"/><path d="M22,18A9.99,9.99,0,0,1,13.6,2.6a9.995,9.995,0,1,0,13.81,13.81A9.942,9.942,0,0,1,22,18Z" style="fill:#cecece"/><circle cx="18" cy="12" r="3" style="fill:#cecece"/><circle cx="19" cy="11" r="3" style="fill:#7a838b"/><path d="M19,8a3,3,0,1,0,3,3A3,3,0,0,1,19,8Z" style="fill:#5d6972"/><circle cx="39" cy="11" r="10" style="fill:#e6e6e6"/><circle cx="38" cy="12" r="3" style="fill:#cecece"/><path d="M42,18A9.99,9.99,0,0,1,33.6,2.6a9.995,9.995,0,1,0,13.81,13.81A9.942,9.942,0,0,1,42,18Z" style="fill:#cecece"/><circle cx="39" cy="11" r="3" style="fill:#7a838b"/><path d="M39,8a3,3,0,1,0,3,3A3,3,0,0,1,39,8Z" style="fill:#5d6972"/><path d="M23,47H35a0,0,0,0,1,0,0v2a2,2,0,0,1-2,2H25a2,2,0,0,1-2-2V47A0,0,0,0,1,23,47Z" style="fill:#e6e6e6"/><rect x="23" y="47" width="12" height="2" style="fill:#cecece"/><rect x="22" y="55" width="14" height="4" rx="2" style="fill:#e6e6e6"/><path d="M25,57a2,2,0,0,1,2-2H24a2,2,0,0,0,0,4h3A2,2,0,0,1,25,57Z" style="fill:#cecece"/><polygon points="26 63 22 63 24 59 28 59 26 63" style="fill:#7a838b"/><path d="M23.109,60.782A1.978,1.978,0,0,0,24,61h3l1-2H24Z" style="fill:#5d6972"/><polygon points="32 63 36 63 34 59 30 59 32 63" style="fill:#7a838b"/><path d="M34.891,60.782,34,59H30l1,2h3A1.978,1.978,0,0,0,34.891,60.782Z" style="fill:#5d6972"/><rect x="27" y="51" width="4" height="4" style="fill:#7a838b"/><rect x="27" y="51" width="4" height="2" style="fill:#5d6972"/><circle cx="38" cy="34" r="5" style="fill:#e6e6e6"/><path d="M41,36a5,5,0,0,1-5-5,4.947,4.947,0,0,1,.313-1.687,4.988,4.988,0,1,0,6.374,6.374A4.947,4.947,0,0,1,41,36Z" style="fill:#cecece"/><circle cx="38" cy="34" r="2" style="fill:#a7d0e1"/><circle cx="27" cy="34" r="3" style="fill:#a7d0e1"/><circle cx="18" cy="34" r="3" style="fill:#a7d0e1"/><path d="M18,31a3,3,0,1,0,3,3A3,3,0,0,1,18,31Z" style="fill:#80bbce"/><path d="M27,31a3,3,0,1,0,3,3A3,3,0,0,1,27,31Z" style="fill:#80bbce"/><path d="M63,22H56.657a4.968,4.968,0,0,0-3.535,1.465L50.586,26H48V23a2.994,2.994,0,0,0-2.732-2.973A10.992,10.992,0,1,0,29,6.444,10.992,10.992,0,1,0,12.732,20.027,2.994,2.994,0,0,0,10,23v3H5.236L1.447,24.105A1,1,0,0,0,0,25V35a1,1,0,0,0,1.447.9L5.236,34H10V45a3,3,0,0,0,3,3h9v1a3,3,0,0,0,3,3h1v2H24a2.989,2.989,0,0,0-1.429,5.621l-1.466,2.932A1,1,0,0,0,22,64h4a1,1,0,0,0,.895-.553L28.618,60h.764l1.723,3.447A1,1,0,0,0,32,64h4a1,1,0,0,0,.9-1.447l-1.466-2.932A2.989,2.989,0,0,0,34,54H32V52h1a3,3,0,0,0,3-3V48h9a3,3,0,0,0,3-3V42h2.586l2.536,2.535A4.968,4.968,0,0,0,56.657,46H63a1,1,0,0,0,1-1V23A1,1,0,0,0,63,22ZM39,2a9,9,0,1,1-9,9A9.01,9.01,0,0,1,39,2ZM32.7,20h-7.39A11.061,11.061,0,0,0,29,15.556,11.061,11.061,0,0,0,32.7,20ZM10,11a9,9,0,1,1,9,9A9.01,9.01,0,0,1,10,11ZM2,26.618l2,1v4.764l-2,1ZM6,32V28h4v4ZM25.382,62H23.618l1-2h1.764Zm7.236,0-1-2h1.764l1,2ZM35,57a1,1,0,0,1-1,1H24a1,1,0,0,1,0-2H34A1,1,0,0,1,35,57Zm-5-3H28V52h2Zm16-9a1,1,0,0,1-1,1H33a1,1,0,0,0,0,2h1v1a1,1,0,0,1-1,1H25a1,1,0,0,1-1-1V48h5a1,1,0,0,0,0-2H13a1,1,0,0,1-1-1V23a1,1,0,0,1,1-1H45a1,1,0,0,1,1,1Zm2-17h2V40H48ZM62,44H56.657a3.017,3.017,0,0,1-2.121-.879L52,40.586V27.414l2.536-2.535A3.017,3.017,0,0,1,56.657,24H62Z"/><path d="M23,11a4,4,0,1,0-4,4A4,4,0,0,0,23,11Zm-6,0a2,2,0,1,1,2,2A2,2,0,0,1,17,11Z"/><path d="M39,15a4,4,0,0,0,4-4,1,1,0,0,0-2,0,2,2,0,1,1-1.333-1.886,1,1,0,0,0,.666-1.886A4,4,0,1,0,39,15Z"/><path d="M38,28a6,6,0,1,0,6,6A6.006,6.006,0,0,0,38,28Zm0,10a4,4,0,1,1,4-4A4,4,0,0,1,38,38Z"/><path d="M38,31a3,3,0,1,0,3,3A3,3,0,0,0,38,31Zm0,4a1,1,0,1,1,1-1A1,1,0,0,1,38,35Z"/><path d="M27,30a4,4,0,1,0,4,4A4,4,0,0,0,27,30Zm0,6a2,2,0,1,1,2-2A2,2,0,0,1,27,36Z"/><path d="M18,30a4,4,0,1,0,4,4A4,4,0,0,0,18,30Zm0,6a2,2,0,1,1,2-2A2,2,0,0,1,18,36Z"/><path d="M45,24H43a1,1,0,0,1,0-2h2a1,1,0,0,1,0,2Z" style="fill:#fff"/></g></svg>