<svg xmlns="http://www.w3.org/2000/svg" viewBox="0 0 64 64"><g id="Layer_31" data-name="Layer 31"><path d="M11,43H25a0,0,0,0,1,0,0V53a4,4,0,0,1-4,4H15a4,4,0,0,1-4-4V43a0,0,0,0,1,0,0Z" transform="translate(36 100) rotate(-180)" style="fill:#e6e6e6"/><path d="M22,47a3.983,3.983,0,0,0-2.671,1.023,2,2,0,0,1-2.674-.01,3.991,3.991,0,0,0-2.585-1.006A8.16,8.16,0,0,1,14,46V44a3.974,3.974,0,0,1,.108-.892A4,4,0,0,0,11,47h0V57H25V47H22Z" style="fill:#cecece"/><path d="M25,43H39a0,0,0,0,1,0,0V53a4,4,0,0,1-4,4H29a4,4,0,0,1-4-4V43a0,0,0,0,1,0,0Z" transform="translate(64 100) rotate(-180)" style="fill:#e6e6e6"/><path d="M36,47a3.983,3.983,0,0,0-2.671,1.023,2,2,0,0,1-2.674-.01,3.991,3.991,0,0,0-2.585-1.006A8.16,8.16,0,0,1,28,46V44a3.974,3.974,0,0,1,.108-.892A4,4,0,0,0,25,47h0V57H39V47H36Z" style="fill:#cecece"/><path d="M39,43H53a0,0,0,0,1,0,0V53a4,4,0,0,1-4,4H43a4,4,0,0,1-4-4V43a0,0,0,0,1,0,0Z" transform="translate(92 100) rotate(-180)" style="fill:#e6e6e6"/><path d="M50,47a3.983,3.983,0,0,0-2.671,1.023,2,2,0,0,1-2.674-.01,3.991,3.991,0,0,0-2.585-1.006A8.16,8.16,0,0,1,42,46V44a3.974,3.974,0,0,1,.108-.892A4,4,0,0,0,39,47h0V57H53V47H50Z" style="fill:#cecece"/><rect x="1" y="1" width="62" height="32" style="fill:#a7d0e1"/><path d="M61,1V27a8.638,8.638,0,0,1-8.61-7.98L51,1Z" style="fill:#80bbce"/><path d="M61,27v6H53.25a8.122,8.122,0,0,1,2.09-3.66A8.014,8.014,0,0,1,61,27Z" style="fill:#80bbce"/><path d="M33,30a28.9,28.9,0,0,1-20.536-8.529,3.068,3.068,0,0,1-.851-2.434v-.013L13,1H1V33H63V30Z" style="fill:#80bbce"/><path d="M1,27H1V1H11L9.614,19.024A8.64,8.64,0,0,1,1,27Z" style="fill:#ea5b5a"/><path d="M63,27h0V1H53l1.386,18.024A8.64,8.64,0,0,0,63,27Z" style="fill:#ea5b5a"/><path d="M4,49H18a0,0,0,0,1,0,0V59a4,4,0,0,1-4,4H8a4,4,0,0,1-4-4V49A0,0,0,0,1,4,49Z" transform="translate(22 112) rotate(-180)" style="fill:#e6e6e6"/><path d="M15,60a8,8,0,0,1-8-8V50a3.974,3.974,0,0,1,.108-.892A4,4,0,0,0,4,53V63H18V60Z" style="fill:#cecece"/><path d="M18,49H32a0,0,0,0,1,0,0V59a4,4,0,0,1-4,4H22a4,4,0,0,1-4-4V49A0,0,0,0,1,18,49Z" transform="translate(50 112) rotate(-180)" style="fill:#e6e6e6"/><path d="M29,60a8,8,0,0,1-8-8V50a3.974,3.974,0,0,1,.108-.892A4,4,0,0,0,18,53V63H32V60Z" style="fill:#cecece"/><path d="M32,49H46a0,0,0,0,1,0,0V59a4,4,0,0,1-4,4H36a4,4,0,0,1-4-4V49A0,0,0,0,1,32,49Z" transform="translate(78 112) rotate(-180)" style="fill:#e6e6e6"/><path d="M43,60a8,8,0,0,1-8-8V50a3.974,3.974,0,0,1,.108-.892A4,4,0,0,0,32,53V63H46V60Z" style="fill:#cecece"/><path d="M46,49H60a0,0,0,0,1,0,0V59a4,4,0,0,1-4,4H50a4,4,0,0,1-4-4V49A0,0,0,0,1,46,49Z" transform="translate(106 112) rotate(-180)" style="fill:#e6e6e6"/><path d="M57,60a8,8,0,0,1-8-8V50a3.974,3.974,0,0,1,.108-.892A4,4,0,0,0,46,53V63H60V60Z" style="fill:#cecece"/><circle cx="32" cy="17" r="10" style="fill:#e6e6e6"/><polygon points="28 12 28 22 36 17 28 12" style="fill:#ea5b5a"/><path d="M9,35v6H7.828a2,2,0,0,1-1.414-.586L4,38v1a2,2,0,0,1-2,2H1V27a8.014,8.014,0,0,1,5.66,2.34A8.014,8.014,0,0,1,9,35Z" style="fill:#ea5b5a"/><path d="M55,35v6h1.172a2,2,0,0,0,1.414-.586L60,38v1a2,2,0,0,0,2,2h1V27a7.989,7.989,0,0,0-8,8Z" style="fill:#ea5b5a"/><path d="M63,0H1A1,1,0,0,0,0,1V41a1,1,0,0,0,1,1H2a3.006,3.006,0,0,0,2.761-1.825l.946.946A2.978,2.978,0,0,0,7.828,42H9a1,1,0,0,0,1-1V35a8.963,8.963,0,0,0-.06-1H54.06A8.963,8.963,0,0,0,54,35v6a1,1,0,0,0,1,1h1.172a2.978,2.978,0,0,0,2.121-.879l.946-.946A3.006,3.006,0,0,0,62,42h1a1,1,0,0,0,1-1V1A1,1,0,0,0,63,0ZM58,2V5a1,1,0,0,0,2,0V2h2V25.934a7.681,7.681,0,0,1-6.616-6.987L54.08,2ZM2,2H4V5A1,1,0,0,0,6,5V2H9.92l-1.3,16.947A7.681,7.681,0,0,1,2,25.934ZM8,40H7.828a1.009,1.009,0,0,1-.707-.293L4.707,37.293A1,1,0,0,0,3,38v1a1,1,0,0,1-1,1V28.071A6.987,6.987,0,0,1,8,35Zm1.478-8a9.053,9.053,0,0,0-2.113-3.37,9.1,9.1,0,0,0-2.185-1.6A9.676,9.676,0,0,0,10.61,19.1L11.926,2H52.074L53.39,19.1a9.673,9.673,0,0,0,5.431,7.928,9.155,9.155,0,0,0-2.191,1.607A9.031,9.031,0,0,0,54.522,32ZM62,40a1,1,0,0,1-1-1V38a1,1,0,0,0-1.707-.707l-2.414,2.414a1.009,1.009,0,0,1-.707.293H56V35a6.987,6.987,0,0,1,6-6.929Z"/><path d="M5,12a1,1,0,0,0-1,1v3.02a19.006,19.006,0,0,1-.369,3.726L3.02,22.8A1,1,0,0,0,3.8,23.98.955.955,0,0,0,4,24a1,1,0,0,0,.979-.8l.612-3.058A21.064,21.064,0,0,0,6,16.02V13A1,1,0,0,0,5,12Z"/><path d="M4,31a1,1,0,0,0-1,1v2a1,1,0,0,0,2,0V32A1,1,0,0,0,4,31Z"/><path d="M60,36a1,1,0,0,0,1-1V33a1,1,0,0,0-2,0v2A1,1,0,0,0,60,36Z"/><path d="M56,48H54V47a5.006,5.006,0,0,0-5-5H43a4.982,4.982,0,0,0-4,2.031A4.982,4.982,0,0,0,35,42H29a4.982,4.982,0,0,0-4,2.031A4.982,4.982,0,0,0,21,42H15a5.006,5.006,0,0,0-5,5v1H8a5.006,5.006,0,0,0-5,5V63a1,1,0,0,0,1,1H60a1,1,0,0,0,1-1V53A5.006,5.006,0,0,0,56,48ZM43,44h6a3,3,0,0,1,3,3v1H50a4.982,4.982,0,0,0-4,2.031A4.982,4.982,0,0,0,42,48H40V47A3,3,0,0,1,43,44ZM29,44h6a3,3,0,0,1,3,3v1H36a4.982,4.982,0,0,0-4,2.031A4.982,4.982,0,0,0,28,48H26V47A3,3,0,0,1,29,44ZM12,47a3,3,0,0,1,3-3h6a3,3,0,0,1,3,3v1H22a4.982,4.982,0,0,0-4,2.031A4.982,4.982,0,0,0,14,48H12ZM5,53a3,3,0,0,1,3-3h6a3,3,0,0,1,3,3v9H5Zm14,0a3,3,0,0,1,3-3h6a3,3,0,0,1,3,3v9H19Zm14,0a3,3,0,0,1,3-3h6a3,3,0,0,1,3,3v9H33Zm26,9H47V53a3,3,0,0,1,3-3h6a3,3,0,0,1,3,3Z"/><path d="M40.161,11.134A1,1,0,0,0,39.8,12.5a9.006,9.006,0,1,1-2.4-2.7,1,1,0,1,0,1.2-1.6,11,11,0,1,0,2.925,3.3A1,1,0,0,0,40.161,11.134Z"/><path d="M28.53,11.152A1,1,0,0,0,27,12V22a1,1,0,0,0,1.53.848l8-5a1,1,0,0,0,0-1.7ZM29,20.2V13.8L34.113,17Z"/><path d="M59.02,23.2A1,1,0,0,0,60,24a.955.955,0,0,0,.2-.02A1,1,0,0,0,60.98,22.8l-.611-3.058A19.006,19.006,0,0,1,60,16.02V13a1,1,0,0,0-2,0v3.02a21.064,21.064,0,0,0,.408,4.118Z"/><path d="M50,4H48a1,1,0,0,1,0-2h2a1,1,0,0,1,0,2Z" style="fill:#fff"/></g></svg>