<svg xmlns="http://www.w3.org/2000/svg" viewBox="0 0 64 64"><g id="Layer_31" data-name="Layer 31"><path d="M1,33V49a2,2,0,0,0,2,2H3v2a2,2,0,0,0,2,2H27a2,2,0,0,0,2-2V45a2,2,0,0,1,2-2h2a2,2,0,0,1,2,2v8a2,2,0,0,0,2,2H59a2,2,0,0,0,2-2V51h0a2,2,0,0,0,2-2V33Z" style="fill:#e6e6e6"/><path d="M18.277,9.965,1,33H9L20,15l.644,2.574A1.882,1.882,0,0,0,22.47,19h0a1.883,1.883,0,0,0,1.8-2.423l-1.757-5.858A2.412,2.412,0,0,0,20.206,9h0A2.409,2.409,0,0,0,18.277,9.965Z" style="fill:#e6e6e6"/><polygon points="10.222 31 2.5 31 1 33 9 33 10.222 31" style="fill:#cecece"/><path d="M45.723,9.965,63,33H55L44,15l-.644,2.574A1.882,1.882,0,0,1,41.53,19h0a1.883,1.883,0,0,1-1.8-2.423l1.757-5.858A2.412,2.412,0,0,1,43.794,9h0A2.409,2.409,0,0,1,45.723,9.965Z" style="fill:#e6e6e6"/><polygon points="53.778 31 61.5 31 63 33 55 33 53.778 31" style="fill:#cecece"/><rect x="6" y="37" width="20" height="14" rx="2" style="fill:#a7d0e1"/><path d="M24,37H8a2,2,0,0,0-2,2H20a4,4,0,0,1,4,4v8a2,2,0,0,0,2-2V39A2,2,0,0,0,24,37Z" style="fill:#80bbce"/><rect x="38" y="37" width="20" height="14" rx="2" style="fill:#ea5b5a"/><path d="M56,37H40a2,2,0,0,0-2,2H52a4,4,0,0,1,4,4v8a2,2,0,0,0,2-2V39A2,2,0,0,0,56,37Z" style="fill:#e04b4b"/><path d="M24,36H8a3,3,0,0,0-3,3V49a3,3,0,0,0,3,3H24a3,3,0,0,0,3-3V39A3,3,0,0,0,24,36Zm1,13a1,1,0,0,1-1,1H8a1,1,0,0,1-1-1V39a1,1,0,0,1,1-1H24a1,1,0,0,1,1,1Z"/><path d="M56,36H40a3,3,0,0,0-3,3V49a3,3,0,0,0,3,3H56a3,3,0,0,0,3-3V39A3,3,0,0,0,56,36Zm1,13a1,1,0,0,1-1,1H40a1,1,0,0,1-1-1V39a1,1,0,0,1,1-1H56a1,1,0,0,1,1,1Z"/><path d="M63.8,32.4,46.523,9.365a3.411,3.411,0,0,0-6,1.067l-1.757,5.857a2.883,2.883,0,1,0,5.558,1.528l.064-.259,7.314,11.968a1,1,0,1,0,1.707-1.043l-8.558-14a1,1,0,0,0-1.824.278l-.644,2.575a.882.882,0,1,1-1.7-.468l1.757-5.858A1.4,1.4,0,0,1,43.794,10a1.42,1.42,0,0,1,1.13.565L61,32H3L19.076,10.565A1.42,1.42,0,0,1,20.206,10a1.4,1.4,0,0,1,1.352,1.006l1.757,5.858a.882.882,0,1,1-1.7.468l-.644-2.575a1,1,0,0,0-1.824-.278l-8.555,14A1,1,0,1,0,12.3,29.521l7.311-11.963.064.259a2.883,2.883,0,1,0,5.558-1.527l-1.757-5.859a3.411,3.411,0,0,0-6-1.066L.2,32.4A1,1,0,0,0,0,33V49a3.006,3.006,0,0,0,2,2.829V53a3,3,0,0,0,3,3H27a3,3,0,0,0,3-3V45a1,1,0,0,1,1-1h2a1,1,0,0,1,1,1v8a3,3,0,0,0,3,3H59a3,3,0,0,0,3-3V51.829A3.006,3.006,0,0,0,64,49V33A1,1,0,0,0,63.8,32.4ZM61,50a1,1,0,0,0-1,1v2a1,1,0,0,1-1,1H37a1,1,0,0,1-1-1V45a3,3,0,0,0-3-3H31a3,3,0,0,0-3,3v8a1,1,0,0,1-1,1H5a1,1,0,0,1-1-1V51a1,1,0,0,0-1-1,1,1,0,0,1-1-1V34H62V49A1,1,0,0,1,61,50Z"/><path d="M61,36H59a1,1,0,0,1,0-2h2a1,1,0,0,1,0,2Z" style="fill:#fff"/></g></svg>