<svg xmlns="http://www.w3.org/2000/svg" viewBox="0 0 64 64"><g id="Layer_31" data-name="Layer 31"><path d="M1,5V59H63V5Zm9,51H6V50h4Zm0-42H6V8h4Zm8,42H14V50h4Zm0-42H14V8h4Zm8,42H22V50h4Zm0-42H22V8h4Zm8,42H30V50h4Zm0-42H30V8h4Zm8,42H38V50h4Zm0-42H38V8h4Zm8,42H46V50h4Zm0-42H46V8h4Zm8,42H54V50h4Zm0-42H54V8h4Z" style="fill:#7a838b"/><path d="M54,56c-1.35,0-2.68-.05-4-.16V56H46v-.64c-1.35-.22-2.69-.49-4-.82V56H38V53.38c-1.36-.46-2.7-.97-4-1.55V56H30V50h.25A49.983,49.983,0,0,1,4,6V5H1V59H63V56ZM10,56H6V50h4Zm8,0H14V50h4Zm8,0H22V50h4Z" style="fill:#5d6972"/><rect x="1" y="17" width="62" height="30" rx="2" style="fill:#a7d0e1"/><path d="M3,47H25.4A50.031,50.031,0,0,1,5.222,17H3a2,2,0,0,0-2,2V45A2,2,0,0,0,3,47Z" style="fill:#80bbce"/><circle cx="32" cy="32" r="10" style="fill:#e6e6e6"/><polygon points="28 27 28 37 36 32 28 27" style="fill:#ea5b5a"/><path d="M63,4H1A1,1,0,0,0,0,5V59a1,1,0,0,0,1,1H63a1,1,0,0,0,1-1V5A1,1,0,0,0,63,4ZM62,6V16.184A2.966,2.966,0,0,0,61,16H52a1,1,0,0,0,0,2h9a1,1,0,0,1,1,1V45a1,1,0,0,1-1,1H3a1,1,0,0,1-1-1V19a1,1,0,0,1,1-1H48a1,1,0,0,0,0-2H3a2.966,2.966,0,0,0-1,.184V6ZM2,58V47.816A2.966,2.966,0,0,0,3,48H61a2.966,2.966,0,0,0,1-.184V58Z"/><path d="M6,15h4a1,1,0,0,0,1-1V8a1,1,0,0,0-1-1H6A1,1,0,0,0,5,8v6A1,1,0,0,0,6,15ZM7,9H9v4H7Z"/><path d="M14,15h4a1,1,0,0,0,1-1V8a1,1,0,0,0-1-1H14a1,1,0,0,0-1,1v6A1,1,0,0,0,14,15Zm1-6h2v4H15Z"/><path d="M22,15h4a1,1,0,0,0,1-1V8a1,1,0,0,0-1-1H22a1,1,0,0,0-1,1v6A1,1,0,0,0,22,15Zm1-6h2v4H23Z"/><path d="M30,15h4a1,1,0,0,0,1-1V8a1,1,0,0,0-1-1H30a1,1,0,0,0-1,1v6A1,1,0,0,0,30,15Zm1-6h2v4H31Z"/><path d="M38,15h4a1,1,0,0,0,1-1V8a1,1,0,0,0-1-1H38a1,1,0,0,0-1,1v6A1,1,0,0,0,38,15Zm1-6h2v4H39Z"/><path d="M46,15h4a1,1,0,0,0,1-1V8a1,1,0,0,0-1-1H46a1,1,0,0,0-1,1v6A1,1,0,0,0,46,15Zm1-6h2v4H47Z"/><path d="M54,15h4a1,1,0,0,0,1-1V8a1,1,0,0,0-1-1H54a1,1,0,0,0-1,1v6A1,1,0,0,0,54,15Zm1-6h2v4H55Z"/><path d="M10,49H6a1,1,0,0,0-1,1v6a1,1,0,0,0,1,1h4a1,1,0,0,0,1-1V50A1,1,0,0,0,10,49ZM9,55H7V51H9Z"/><path d="M18,49H14a1,1,0,0,0-1,1v6a1,1,0,0,0,1,1h4a1,1,0,0,0,1-1V50A1,1,0,0,0,18,49Zm-1,6H15V51h2Z"/><path d="M26,49H22a1,1,0,0,0-1,1v6a1,1,0,0,0,1,1h4a1,1,0,0,0,1-1V50A1,1,0,0,0,26,49Zm-1,6H23V51h2Z"/><path d="M34,49H30a1,1,0,0,0-1,1v6a1,1,0,0,0,1,1h4a1,1,0,0,0,1-1V50A1,1,0,0,0,34,49Zm-1,6H31V51h2Z"/><path d="M42,49H38a1,1,0,0,0-1,1v6a1,1,0,0,0,1,1h4a1,1,0,0,0,1-1V50A1,1,0,0,0,42,49Zm-1,6H39V51h2Z"/><path d="M50,49H46a1,1,0,0,0-1,1v6a1,1,0,0,0,1,1h4a1,1,0,0,0,1-1V50A1,1,0,0,0,50,49Zm-1,6H47V51h2Z"/><path d="M58,49H54a1,1,0,0,0-1,1v6a1,1,0,0,0,1,1h4a1,1,0,0,0,1-1V50A1,1,0,0,0,58,49Zm-1,6H55V51h2Z"/><path d="M32,21A11,11,0,1,0,43,32,11.013,11.013,0,0,0,32,21Zm0,20a9,9,0,1,1,9-9A9.011,9.011,0,0,1,32,41Z"/><path d="M36.53,31.152l-8-5A1,1,0,0,0,27,27V37a1,1,0,0,0,1.53.848l8-5a1,1,0,0,0,0-1.7ZM29,35.2V28.8L34.113,32Z"/><path d="M61,20H59a1,1,0,0,1,0-2h2a1,1,0,0,1,0,2Z" style="fill:#fff"/></g></svg>