<svg fill="#000000" xmlns="http://www.w3.org/2000/svg"  viewBox="0 0 80 80" width="80px" height="80px"><path d="M 40 8 C 39.449219 8 39 8.449219 39 9 C 39 9.550781 39.449219 10 40 10 C 40.550781 10 41 9.550781 41 9 C 41 8.449219 40.550781 8 40 8 Z M 39 12 L 39 15 L 37 15 L 37 17 L 39 17 L 39 19 L 38 19 L 38 21 L 39 21 L 39 25 L 34 25 C 31.25 25 29 27.25 29 30 L 29 35 L 27 35 L 27 33 L 19.585938 33 L 15.953125 36.632813 L 8.65625 30.25 L 7.34375 31.75 L 14.535156 38.046875 L 11 41.585938 L 11 46 L 3 46 L 3 52 L 5.054688 52 L 12.609375 63.6875 C 12.273438 63.816406 11.945313 63.945313 11.628906 64.074219 C 10.378906 64.574219 9.277344 65 8 65 C 7.640625 64.996094 7.304688 65.183594 7.121094 65.496094 C 6.941406 65.808594 6.941406 66.191406 7.121094 66.503906 C 7.304688 66.816406 7.640625 67.003906 8 67 C 9.722656 67 11.121094 66.425781 12.371094 65.925781 C 13.621094 65.425781 14.722656 65 16 65 C 17.277344 65 18.378906 65.425781 19.628906 65.925781 C 20.878906 66.425781 22.277344 67 24 67 C 25.722656 67 27.121094 66.425781 28.371094 65.925781 C 29.621094 65.425781 30.722656 65 32 65 C 33.277344 65 34.378906 65.425781 35.628906 65.925781 C 36.878906 66.425781 38.277344 67 40 67 C 41.722656 67 43.121094 66.425781 44.371094 65.925781 C 45.621094 65.425781 46.722656 65 48 65 C 49.277344 65 50.378906 65.425781 51.628906 65.925781 C 52.878906 66.425781 54.277344 67 56 67 C 57.722656 67 59.121094 66.425781 60.371094 65.925781 C 61.621094 65.425781 62.722656 65 64 65 C 65.277344 65 66.378906 65.425781 67.628906 65.925781 C 68.878906 66.425781 70.277344 67 72 67 C 72.359375 67.003906 72.695313 66.816406 72.878906 66.503906 C 73.058594 66.191406 73.058594 65.808594 72.878906 65.496094 C 72.695313 65.183594 72.359375 64.996094 72 65 C 70.722656 65 69.621094 64.574219 68.371094 64.074219 C 68.054688 63.945313 67.726563 63.816406 67.390625 63.6875 L 74.945313 52 L 77 52 L 77 46 L 67 46 L 67 39.585938 L 64.613281 37.199219 L 71.015625 33.359375 L 69.984375 31.640625 L 63.15625 35.742188 L 60.414063 33 L 53 33 L 53 35 L 51 35 L 51 30 C 51 27.25 48.75 25 46 25 L 41 25 L 41 21 L 42 21 L 42 19 L 41 19 L 41 17 L 43 17 L 43 15 L 41 15 L 41 12 Z M 34 27 L 46 27 C 47.667969 27 49 28.332031 49 30 L 49 37 L 55 37 L 55 35 L 59.585938 35 L 65 40.414063 L 65 46 L 13 46 L 13 42.414063 L 20.414063 35 L 25 35 L 25 37 L 31 37 L 31 30 C 31 28.332031 32.332031 27 34 27 Z M 34 35 C 33.449219 35 33 35.449219 33 36 C 33 36.550781 33.449219 37 34 37 C 34.550781 37 35 36.550781 35 36 C 35 35.449219 34.550781 35 34 35 Z M 38 35 C 37.449219 35 37 35.449219 37 36 C 37 36.550781 37.449219 37 38 37 C 38.550781 37 39 36.550781 39 36 C 39 35.449219 38.550781 35 38 35 Z M 42 35 C 41.449219 35 41 35.449219 41 36 C 41 36.550781 41.449219 37 42 37 C 42.550781 37 43 36.550781 43 36 C 43 35.449219 42.550781 35 42 35 Z M 46 35 C 45.449219 35 45 35.449219 45 36 C 45 36.550781 45.449219 37 46 37 C 46.550781 37 47 36.550781 47 36 C 47 35.449219 46.550781 35 46 35 Z M 26 39 C 25.449219 39 25 39.449219 25 40 C 25 40.550781 25.449219 41 26 41 C 26.550781 41 27 40.550781 27 40 C 27 39.449219 26.550781 39 26 39 Z M 54 39 C 53.449219 39 53 39.449219 53 40 C 53 40.550781 53.449219 41 54 41 C 54.550781 41 55 40.550781 55 40 C 55 39.449219 54.550781 39 54 39 Z M 26 43 C 25.449219 43 25 43.449219 25 44 C 25 44.550781 25.449219 45 26 45 C 26.550781 45 27 44.550781 27 44 C 27 43.449219 26.550781 43 26 43 Z M 54 43 C 53.449219 43 53 43.449219 53 44 C 53 44.550781 53.449219 45 54 45 C 54.550781 45 55 44.550781 55 44 C 55 43.449219 54.550781 43 54 43 Z M 5 48 L 75 48 L 75 50 L 73.855469 50 L 65.375 63.128906 C 64.9375 63.054688 64.484375 63 64 63 C 62.277344 63 60.878906 63.574219 59.628906 64.074219 C 58.378906 64.574219 57.277344 65 56 65 C 54.722656 65 53.621094 64.574219 52.371094 64.074219 C 51.121094 63.574219 49.722656 63 48 63 C 46.277344 63 44.878906 63.574219 43.628906 64.074219 C 42.378906 64.574219 41.277344 65 40 65 C 38.722656 65 37.621094 64.574219 36.371094 64.074219 C 35.121094 63.574219 33.722656 63 32 63 C 30.277344 63 28.878906 63.574219 27.628906 64.074219 C 26.378906 64.574219 25.277344 65 24 65 C 22.722656 65 21.621094 64.574219 20.371094 64.074219 C 19.121094 63.574219 17.722656 63 16 63 C 15.515625 63 15.0625 63.054688 14.625 63.128906 L 6.144531 50 L 5 50 Z M 10 50 C 9.449219 50 9 50.449219 9 51 C 9 51.550781 9.449219 52 10 52 C 10.550781 52 11 51.550781 11 51 C 11 50.449219 10.550781 50 10 50 Z M 14 50 C 13.449219 50 13 50.449219 13 51 C 13 51.550781 13.449219 52 14 52 C 14.550781 52 15 51.550781 15 51 C 15 50.449219 14.550781 50 14 50 Z M 18 50 C 17.449219 50 17 50.449219 17 51 C 17 51.550781 17.449219 52 18 52 C 18.550781 52 19 51.550781 19 51 C 19 50.449219 18.550781 50 18 50 Z M 22 50 C 21.449219 50 21 50.449219 21 51 C 21 51.550781 21.449219 52 22 52 C 22.550781 52 23 51.550781 23 51 C 23 50.449219 22.550781 50 22 50 Z M 26 50 C 25.449219 50 25 50.449219 25 51 C 25 51.550781 25.449219 52 26 52 C 26.550781 52 27 51.550781 27 51 C 27 50.449219 26.550781 50 26 50 Z M 30 50 C 29.449219 50 29 50.449219 29 51 C 29 51.550781 29.449219 52 30 52 C 30.550781 52 31 51.550781 31 51 C 31 50.449219 30.550781 50 30 50 Z M 34 50 C 33.449219 50 33 50.449219 33 51 C 33 51.550781 33.449219 52 34 52 C 34.550781 52 35 51.550781 35 51 C 35 50.449219 34.550781 50 34 50 Z M 38 50 C 37.449219 50 37 50.449219 37 51 C 37 51.550781 37.449219 52 38 52 C 38.550781 52 39 51.550781 39 51 C 39 50.449219 38.550781 50 38 50 Z M 42 50 C 41.449219 50 41 50.449219 41 51 C 41 51.550781 41.449219 52 42 52 C 42.550781 52 43 51.550781 43 51 C 43 50.449219 42.550781 50 42 50 Z M 46 50 C 45.449219 50 45 50.449219 45 51 C 45 51.550781 45.449219 52 46 52 C 46.550781 52 47 51.550781 47 51 C 47 50.449219 46.550781 50 46 50 Z M 50 50 C 49.449219 50 49 50.449219 49 51 C 49 51.550781 49.449219 52 50 52 C 50.550781 52 51 51.550781 51 51 C 51 50.449219 50.550781 50 50 50 Z M 54 50 C 53.449219 50 53 50.449219 53 51 C 53 51.550781 53.449219 52 54 52 C 54.550781 52 55 51.550781 55 51 C 55 50.449219 54.550781 50 54 50 Z M 58 50 C 57.449219 50 57 50.449219 57 51 C 57 51.550781 57.449219 52 58 52 C 58.550781 52 59 51.550781 59 51 C 59 50.449219 58.550781 50 58 50 Z M 62 50 C 61.449219 50 61 50.449219 61 51 C 61 51.550781 61.449219 52 62 52 C 62.550781 52 63 51.550781 63 51 C 63 50.449219 62.550781 50 62 50 Z M 66 50 C 65.449219 50 65 50.449219 65 51 C 65 51.550781 65.449219 52 66 52 C 66.550781 52 67 51.550781 67 51 C 67 50.449219 66.550781 50 66 50 Z M 70 50 C 69.449219 50 69 50.449219 69 51 C 69 51.550781 69.449219 52 70 52 C 70.550781 52 71 51.550781 71 51 C 71 50.449219 70.550781 50 70 50 Z M 60 55 C 59.449219 55 59 55.449219 59 56 C 59 56.550781 59.449219 57 60 57 C 60.550781 57 61 56.550781 61 56 C 61 55.449219 60.550781 55 60 55 Z M 64 55 C 63.449219 55 63 55.449219 63 56 C 63 56.550781 63.449219 57 64 57 C 64.550781 57 65 56.550781 65 56 C 65 55.449219 64.550781 55 64 55 Z"/></svg>