<?xml version="1.0" encoding="iso-8859-1"?>
<!-- Uploaded to: SVG Repo, www.svgrepo.com, Generator: SVG Repo Mixer Tools -->
<!DOCTYPE svg PUBLIC "-//W3C//DTD SVG 1.1//EN" "http://www.w3.org/Graphics/SVG/1.1/DTD/svg11.dtd">
<svg fill="#000000" height="800px" width="800px" version="1.1" id="Capa_1" xmlns="http://www.w3.org/2000/svg" xmlns:xlink="http://www.w3.org/1999/xlink" 
	 viewBox="0 0 489.157 489.157" xml:space="preserve">
<g>
	<path d="M154.515,102.298c-2.15-0.944-4.657,0.035-5.6,2.185c-5.212,11.878-8.66,25.142-10.249,39.426L121.332,261.95
		c-0.341,2.322,1.266,4.481,3.588,4.822c0.209,0.031,0.417,0.046,0.622,0.046c2.074,0,3.89-1.521,4.2-3.633l17.345-118.116
		c0.007-0.05,0.014-0.1,0.02-0.15c1.49-13.455,4.717-25.912,9.592-37.021C157.642,105.748,156.665,103.241,154.515,102.298z"/>
	<path d="M185.146,59.882c-8.891,6.227-16.708,13.75-23.235,22.363c-1.418,1.87-1.051,4.535,0.819,5.953
		c0.769,0.582,1.67,0.863,2.564,0.863c1.284,0,2.554-0.58,3.39-1.684c5.993-7.906,13.172-14.814,21.337-20.533
		c1.923-1.346,2.391-3.996,1.044-5.919C189.718,59.003,187.067,58.536,185.146,59.882z"/>
	<path d="M425.655,288.253h-14.038c-21.516-7.619-26.404-43.226-26.461-43.656l-17.333-118.043
		c-3.648-32.779-17.152-59.861-39.055-78.316c-14.624-12.322-32.827-20.674-53.603-24.742V4.25c0-2.347-1.902-4.25-4.25-4.25
		h-52.693c-2.348,0-4.25,1.903-4.25,4.25v19.245c-20.774,4.068-38.979,12.42-53.604,24.742
		c-21.902,18.455-35.406,45.537-39.054,78.316l-17.343,118.108c-0.047,0.358-4.934,35.759-26.302,43.591H63.501
		c-12.708,0-23.047,10.338-23.047,23.047v33.835c0,12.708,10.339,23.047,23.047,23.047h124.424
		c5.959,14.155,17.015,25.336,30.5,31.72v85.006c0,2.348,1.902,4.25,4.25,4.25h47.111c2.348,0,4.25-1.902,4.25-4.25v-85.301
		c0-0.396-0.071-0.77-0.172-1.133c12.063-6.506,21.795-17.023,27.361-30.292h124.429c12.709,0,23.048-10.339,23.048-23.047V311.3
		C448.703,298.591,438.364,288.253,425.655,288.253z M222.471,8.5h44.193v13.609c-7.115-0.966-14.484-1.481-22.101-1.481
		c-7.613,0-14.98,0.515-22.093,1.48V8.5z M112.39,245.833l17.345-118.117c0.007-0.049,0.014-0.1,0.02-0.149
		c6.827-61.638,49.747-98.438,114.818-98.438c65.062,0,107.981,36.8,114.809,98.438c0.006,0.05,0.013,0.101,0.02,0.149
		l17.334,118.043c0.175,1.361,3.758,27.648,19.265,42.494h-30.569c-21.523-7.621-26.492-43.234-26.549-43.656l-17.334-118.041
		c-4.596-41.297-24.152-72.518-56.561-90.287c-2.06-1.129-4.641-0.375-5.77,1.684c-1.129,2.058-0.375,4.641,1.684,5.77
		c29.893,16.391,47.945,45.385,52.206,83.846c0.006,0.049,0.013,0.1,0.02,0.148l17.336,118.052
		c0.179,1.362,3.819,27.643,19.345,42.485H93.134C108.582,273.372,112.218,247.143,112.39,245.833z M265.537,480.657H227.25
		l38.286-34.344V480.657z M265.537,434.944c-0.098,0.074-0.203,0.133-0.296,0.216l-38.315,34.37v-25.255
		c0.098-0.073,0.201-0.135,0.294-0.218l38.317-34.372V434.944z M226.925,432.903v-29.721c5.647,1.713,11.584,2.635,17.653,2.635
		c4.947,0,9.777-0.584,14.422-1.688L226.925,432.903z M244.579,397.317c-20.014,0-38.378-11.513-47.289-29.136h94.588
		C282.941,386.032,264.884,397.317,244.579,397.317z M440.203,329.169h-187.59c-2.348,0-4.25,1.902-4.25,4.25
		c0,2.348,1.902,4.25,4.25,4.25h187.59v7.466c0,8.021-6.526,14.547-14.548,14.547H63.501c-8.021,0-14.547-6.526-14.547-14.547V311.3
		c0-8.021,6.525-14.547,14.547-14.547h362.153c8.021,0,14.548,6.525,14.548,14.547V329.169z"/>
	<path d="M234.299,329.169h-41.448c-2.348,0-4.25,1.902-4.25,4.25c0,2.348,1.902,4.25,4.25,4.25h41.448
		c2.348,0,4.25-1.902,4.25-4.25C238.549,331.071,236.647,329.169,234.299,329.169z"/>
</g>
</svg>