<svg fill="#000000" xmlns="http://www.w3.org/2000/svg"  viewBox="0 0 80 80" width="80px" height="80px"><path d="M 32 21 C 31.449219 21 31 21.449219 31 22 C 31 22.550781 31.449219 23 32 23 C 32.550781 23 33 22.550781 33 22 C 33 21.449219 32.550781 21 32 21 Z M 36 21 C 35.640625 20.996094 35.304688 21.183594 35.121094 21.496094 C 34.941406 21.808594 34.941406 22.191406 35.121094 22.503906 C 35.304688 22.816406 35.640625 23.003906 36 23 L 39 23 L 39 31 C 38.996094 31.359375 39.183594 31.695313 39.496094 31.878906 C 39.808594 32.058594 40.191406 32.058594 40.503906 31.878906 C 40.816406 31.695313 41.003906 31.359375 41 31 L 41 23 L 44 23 C 44.359375 23.003906 44.695313 22.816406 44.878906 22.503906 C 45.058594 22.191406 45.058594 21.808594 44.878906 21.496094 C 44.695313 21.183594 44.359375 20.996094 44 21 Z M 48 21 C 47.449219 21 47 21.449219 47 22 C 47 22.550781 47.449219 23 48 23 C 48.550781 23 49 22.550781 49 22 C 49 21.449219 48.550781 21 48 21 Z M 19 30 C 16.25 30 14 32.25 14 35 L 14 38.4375 C 9.4375 39.578125 6 43.59375 6 48.5 C 6 52.835938 8.648438 56.570313 12.410156 58.171875 C 11.472656 58.632813 10.632813 59 10 59 C 9.640625 58.996094 9.304688 59.183594 9.121094 59.496094 C 8.941406 59.808594 8.941406 60.191406 9.121094 60.503906 C 9.304688 60.816406 9.640625 61.003906 10 61 C 11.332031 61 12.449219 60.394531 13.449219 59.894531 C 14.449219 59.394531 15.332031 59 16 59 C 16.667969 59 17.550781 59.394531 18.550781 59.894531 C 19.550781 60.394531 20.667969 61 22 61 C 23.332031 61 24.449219 60.394531 25.449219 59.894531 C 26.449219 59.394531 27.332031 59 28 59 C 28.667969 59 29.550781 59.394531 30.550781 59.894531 C 31.550781 60.394531 32.667969 61 34 61 C 35.332031 61 36.449219 60.394531 37.449219 59.894531 C 38.449219 59.394531 39.332031 59 40 59 C 40.667969 59 41.550781 59.394531 42.550781 59.894531 C 43.550781 60.394531 44.667969 61 46 61 C 47.332031 61 48.449219 60.394531 49.449219 59.894531 C 50.449219 59.394531 51.332031 59 52 59 C 52.667969 59 53.550781 59.394531 54.550781 59.894531 C 55.550781 60.394531 56.667969 61 58 61 C 59.332031 61 60.449219 60.394531 61.449219 59.894531 C 62.449219 59.394531 63.332031 59 64 59 C 64.667969 59 65.550781 59.394531 66.550781 59.894531 C 67.550781 60.394531 68.667969 61 70 61 C 70.359375 61.003906 70.695313 60.816406 70.878906 60.503906 C 71.058594 60.191406 71.058594 59.808594 70.878906 59.496094 C 70.695313 59.183594 70.359375 58.996094 70 59 C 69.367188 59 68.527344 58.632813 67.589844 58.171875 C 71.351563 56.570313 74 52.835938 74 48.5 C 74 43.59375 70.5625 39.578125 66 38.4375 L 66 35 C 66 32.25 63.75 30 61 30 L 43.921875 30 L 43.660156 30.597656 C 43.042969 32.011719 41.648438 33 40 33 C 38.351563 33 36.957031 32.011719 36.339844 30.597656 L 36.078125 30 Z M 19 32 L 35.011719 32 C 36.0625 33.730469 37.832031 35 40 35 C 42.167969 35 43.9375 33.730469 44.988281 32 L 61 32 C 62.667969 32 64 33.332031 64 35 L 64 39.984375 L 64.84375 40.117188 C 68.898438 40.761719 72 44.253906 72 48.5 C 72 53.207031 68.207031 57 63.5 57 C 63.347656 57 63.195313 57.03125 63.054688 57.097656 C 62.125 57.292969 61.308594 57.726563 60.550781 58.105469 C 59.550781 58.605469 58.667969 59 58 59 C 57.332031 59 56.449219 58.605469 55.449219 58.105469 C 54.449219 57.605469 53.332031 57 52 57 C 50.667969 57 49.550781 57.605469 48.550781 58.105469 C 47.550781 58.605469 46.667969 59 46 59 C 45.332031 59 44.449219 58.605469 43.449219 58.105469 C 42.449219 57.605469 41.332031 57 40 57 C 38.667969 57 37.550781 57.605469 36.550781 58.105469 C 35.550781 58.605469 34.667969 59 34 59 C 33.332031 59 32.449219 58.605469 31.449219 58.105469 C 30.449219 57.605469 29.332031 57 28 57 C 26.667969 57 25.550781 57.605469 24.550781 58.105469 C 23.550781 58.605469 22.667969 59 22 59 C 21.332031 59 20.449219 58.605469 19.449219 58.105469 C 18.695313 57.730469 17.878906 57.292969 16.953125 57.101563 C 16.8125 57.03125 16.65625 56.996094 16.5 57 C 11.792969 57 8 53.207031 8 48.5 C 8 44.253906 11.101563 40.761719 15.15625 40.117188 L 16 39.984375 L 16 35 C 16 33.332031 17.332031 32 19 32 Z M 18 38 C 17.449219 38 17 38.449219 17 39 C 17 39.550781 17.449219 40 18 40 C 18.550781 40 19 39.550781 19 39 C 19 38.449219 18.550781 38 18 38 Z M 22 38 C 21.449219 38 21 38.449219 21 39 C 21 39.550781 21.449219 40 22 40 C 22.550781 40 23 39.550781 23 39 C 23 38.449219 22.550781 38 22 38 Z M 26 38 C 25.449219 38 25 38.449219 25 39 C 25 39.550781 25.449219 40 26 40 C 26.550781 40 27 39.550781 27 39 C 27 38.449219 26.550781 38 26 38 Z M 30 38 C 29.449219 38 29 38.449219 29 39 C 29 39.550781 29.449219 40 30 40 C 30.550781 40 31 39.550781 31 39 C 31 38.449219 30.550781 38 30 38 Z M 34 38 C 33.449219 38 33 38.449219 33 39 C 33 39.550781 33.449219 40 34 40 C 34.550781 40 35 39.550781 35 39 C 35 38.449219 34.550781 38 34 38 Z M 38 38 C 37.449219 38 37 38.449219 37 39 C 37 39.550781 37.449219 40 38 40 C 38.550781 40 39 39.550781 39 39 C 39 38.449219 38.550781 38 38 38 Z M 42 38 C 41.449219 38 41 38.449219 41 39 C 41 39.550781 41.449219 40 42 40 C 42.550781 40 43 39.550781 43 39 C 43 38.449219 42.550781 38 42 38 Z M 46 38 C 45.449219 38 45 38.449219 45 39 C 45 39.550781 45.449219 40 46 40 C 46.550781 40 47 39.550781 47 39 C 47 38.449219 46.550781 38 46 38 Z M 50 38 C 49.449219 38 49 38.449219 49 39 C 49 39.550781 49.449219 40 50 40 C 50.550781 40 51 39.550781 51 39 C 51 38.449219 50.550781 38 50 38 Z M 54 38 C 53.449219 38 53 38.449219 53 39 C 53 39.550781 53.449219 40 54 40 C 54.550781 40 55 39.550781 55 39 C 55 38.449219 54.550781 38 54 38 Z M 58 38 C 57.449219 38 57 38.449219 57 39 C 57 39.550781 57.449219 40 58 40 C 58.550781 40 59 39.550781 59 39 C 59 38.449219 58.550781 38 58 38 Z M 62 38 C 61.449219 38 61 38.449219 61 39 C 61 39.550781 61.449219 40 62 40 C 62.550781 40 63 39.550781 63 39 C 63 38.449219 62.550781 38 62 38 Z M 6 58 C 5.449219 58 5 58.449219 5 59 C 5 59.550781 5.449219 60 6 60 C 6.550781 60 7 59.550781 7 59 C 7 58.449219 6.550781 58 6 58 Z M 74 58 C 73.449219 58 73 58.449219 73 59 C 73 59.550781 73.449219 60 74 60 C 74.550781 60 75 59.550781 75 59 C 75 58.449219 74.550781 58 74 58 Z"/></svg>