<svg fill="#000000" xmlns="http://www.w3.org/2000/svg"  viewBox="0 0 80 80" width="80px" height="80px"><path d="M 40 9 C 36.144531 9 33 12.144531 33 16 L 33 18 C 31.355469 18 30 19.355469 30 21 L 30 24 C 28.355469 24 27 25.355469 27 27 C 27 28.484375 28.105469 29.722656 29.53125 29.953125 L 21.328125 50 L 18 50 C 16.355469 50 15 51.355469 15 53 C 15 54.644531 16.355469 56 18 56 L 18.113281 56 C 18.378906 61.203125 19.542969 65.265625 20.339844 67.511719 C 20.046875 67.382813 19.765625 67.265625 19.449219 67.105469 C 18.449219 66.605469 17.332031 66 16 66 C 14.667969 66 13.550781 66.605469 12.550781 67.105469 C 11.550781 67.605469 10.667969 68 10 68 C 9.640625 67.996094 9.304688 68.183594 9.121094 68.496094 C 8.941406 68.808594 8.941406 69.191406 9.121094 69.503906 C 9.304688 69.816406 9.640625 70.003906 10 70 C 11.332031 70 12.449219 69.394531 13.449219 68.894531 C 14.449219 68.394531 15.332031 68 16 68 C 16.667969 68 17.550781 68.394531 18.550781 68.894531 C 19.476563 69.355469 20.496094 69.898438 21.699219 69.984375 C 21.910156 70.054688 22.136719 70.054688 22.347656 69.980469 C 23.527344 69.886719 24.535156 69.351563 25.449219 68.894531 C 26.449219 68.394531 27.332031 68 28 68 C 28.667969 68 29.550781 68.394531 30.550781 68.894531 C 31.550781 69.394531 32.667969 70 34 70 C 35.332031 70 36.449219 69.394531 37.449219 68.894531 C 38.449219 68.394531 39.332031 68 40 68 C 40.667969 68 41.550781 68.394531 42.550781 68.894531 C 43.550781 69.394531 44.667969 70 46 70 C 47.332031 70 48.449219 69.394531 49.449219 68.894531 C 50.449219 68.394531 51.332031 68 52 68 C 52.667969 68 53.550781 68.394531 54.550781 68.894531 C 55.464844 69.351563 56.472656 69.886719 57.652344 69.980469 C 57.863281 70.054688 58.09375 70.054688 58.308594 69.984375 C 59.503906 69.898438 60.527344 69.355469 61.449219 68.894531 C 62.449219 68.394531 63.332031 68 64 68 C 64.667969 68 65.550781 68.394531 66.550781 68.894531 C 67.550781 69.394531 68.667969 70 70 70 C 70.359375 70.003906 70.695313 69.816406 70.878906 69.503906 C 71.058594 69.191406 71.058594 68.808594 70.878906 68.496094 C 70.695313 68.183594 70.359375 67.996094 70 68 C 69.332031 68 68.449219 67.605469 67.449219 67.105469 C 66.449219 66.605469 65.332031 66 64 66 C 62.667969 66 61.550781 66.605469 60.550781 67.105469 C 60.234375 67.265625 59.953125 67.382813 59.660156 67.511719 C 60.457031 65.265625 61.621094 61.203125 61.886719 56 L 62 56 C 63.644531 56 65 54.644531 65 53 C 65 51.355469 63.644531 50 62 50 L 58.671875 50 L 50.46875 29.953125 C 51.894531 29.722656 53 28.484375 53 27 C 53 25.355469 51.644531 24 50 24 L 50 21 C 50 19.355469 48.644531 18 47 18 L 47 16 C 47 12.144531 43.855469 9 40 9 Z M 40 11 C 42.773438 11 45 13.226563 45 16 L 45 20 L 47 20 C 47.566406 20 48 20.433594 48 21 L 48 26 L 50 26 C 50.566406 26 51 26.433594 51 27 C 51 27.566406 50.566406 28 50 28 L 30 28 C 29.433594 28 29 27.566406 29 27 C 29 26.433594 29.433594 26 30 26 L 32 26 L 32 21 C 32 20.433594 32.433594 20 33 20 L 35 20 L 35 16 C 35 13.226563 37.226563 11 40 11 Z M 38 18 C 37.449219 18 37 18.449219 37 19 C 37 19.550781 37.449219 20 38 20 C 38.550781 20 39 19.550781 39 19 C 39 18.449219 38.550781 18 38 18 Z M 42 18 C 41.449219 18 41 18.449219 41 19 C 41 19.550781 41.449219 20 42 20 C 42.550781 20 43 19.550781 43 19 C 43 18.449219 42.550781 18 42 18 Z M 34 24 C 33.449219 24 33 24.449219 33 25 C 33 25.550781 33.449219 26 34 26 C 34.550781 26 35 25.550781 35 25 C 35 24.449219 34.550781 24 34 24 Z M 38 24 C 37.449219 24 37 24.449219 37 25 C 37 25.550781 37.449219 26 38 26 C 38.550781 26 39 25.550781 39 25 C 39 24.449219 38.550781 24 38 24 Z M 42 24 C 41.449219 24 41 24.449219 41 25 C 41 25.550781 41.449219 26 42 26 C 42.550781 26 43 25.550781 43 25 C 43 24.449219 42.550781 24 42 24 Z M 46 24 C 45.449219 24 45 24.449219 45 25 C 45 25.550781 45.449219 26 46 26 C 46.550781 26 47 25.550781 47 25 C 47 24.449219 46.550781 24 46 24 Z M 31.671875 30 L 34.800781 30 L 31.164063 50 L 23.488281 50 Z M 36.835938 30 L 43.164063 30 L 46.800781 50 L 33.199219 50 Z M 45.199219 30 L 48.328125 30 L 56.511719 50 L 48.835938 50 Z M 18 52 L 62 52 C 62.566406 52 63 52.433594 63 53 C 63 53.566406 62.566406 54 62 54 L 60.003906 54 L 59.980469 54.972656 C 59.808594 61.820313 58.011719 66.46875 57.386719 67.90625 C 56.824219 67.761719 56.167969 67.464844 55.449219 67.105469 C 54.449219 66.605469 53.332031 66 52 66 C 50.667969 66 49.550781 66.605469 48.550781 67.105469 C 47.550781 67.605469 46.667969 68 46 68 C 45.332031 68 44.449219 67.605469 43.449219 67.105469 C 42.449219 66.605469 41.332031 66 40 66 C 38.667969 66 37.550781 66.605469 36.550781 67.105469 C 35.550781 67.605469 34.667969 68 34 68 C 33.332031 68 32.449219 67.605469 31.449219 67.105469 C 30.449219 66.605469 29.332031 66 28 66 C 26.667969 66 25.550781 66.605469 24.550781 67.105469 C 23.832031 67.464844 23.175781 67.761719 22.613281 67.90625 C 21.988281 66.46875 20.191406 61.820313 20.019531 54.972656 L 19.996094 54 L 18 54 C 17.433594 54 17 53.566406 17 53 C 17 52.433594 17.433594 52 18 52 Z M 22 54 C 21.449219 54 21 54.449219 21 55 C 21 55.550781 21.449219 56 22 56 C 22.550781 56 23 55.550781 23 55 C 23 54.449219 22.550781 54 22 54 Z M 26 54 C 25.449219 54 25 54.449219 25 55 C 25 55.550781 25.449219 56 26 56 C 26.550781 56 27 55.550781 27 55 C 27 54.449219 26.550781 54 26 54 Z M 30 54 C 29.449219 54 29 54.449219 29 55 C 29 55.550781 29.449219 56 30 56 C 30.550781 56 31 55.550781 31 55 C 31 54.449219 30.550781 54 30 54 Z M 34 54 C 33.449219 54 33 54.449219 33 55 C 33 55.550781 33.449219 56 34 56 C 34.550781 56 35 55.550781 35 55 C 35 54.449219 34.550781 54 34 54 Z M 38 54 C 37.449219 54 37 54.449219 37 55 C 37 55.550781 37.449219 56 38 56 C 38.550781 56 39 55.550781 39 55 C 39 54.449219 38.550781 54 38 54 Z M 42 54 C 41.449219 54 41 54.449219 41 55 C 41 55.550781 41.449219 56 42 56 C 42.550781 56 43 55.550781 43 55 C 43 54.449219 42.550781 54 42 54 Z M 46 54 C 45.449219 54 45 54.449219 45 55 C 45 55.550781 45.449219 56 46 56 C 46.550781 56 47 55.550781 47 55 C 47 54.449219 46.550781 54 46 54 Z M 50 54 C 49.449219 54 49 54.449219 49 55 C 49 55.550781 49.449219 56 50 56 C 50.550781 56 51 55.550781 51 55 C 51 54.449219 50.550781 54 50 54 Z M 54 54 C 53.449219 54 53 54.449219 53 55 C 53 55.550781 53.449219 56 54 56 C 54.550781 56 55 55.550781 55 55 C 55 54.449219 54.550781 54 54 54 Z M 58 54 C 57.449219 54 57 54.449219 57 55 C 57 55.550781 57.449219 56 58 56 C 58.550781 56 59 55.550781 59 55 C 59 54.449219 58.550781 54 58 54 Z M 6 68 C 5.449219 68 5 68.449219 5 69 C 5 69.550781 5.449219 70 6 70 C 6.550781 70 7 69.550781 7 69 C 7 68.449219 6.550781 68 6 68 Z M 74 68 C 73.449219 68 73 68.449219 73 69 C 73 69.550781 73.449219 70 74 70 C 74.550781 70 75 69.550781 75 69 C 75 68.449219 74.550781 68 74 68 Z"/></svg>