<svg fill="#000000" xmlns="http://www.w3.org/2000/svg"  viewBox="0 0 80 80" width="80px" height="80px"><path d="M 16.984375 10.984375 C 16.433594 10.996094 15.992188 11.449219 16 12 L 16 19 L 14 19 L 14 16 C 14.003906 15.730469 13.898438 15.46875 13.707031 15.277344 C 13.515625 15.085938 13.253906 14.980469 12.984375 14.984375 C 12.433594 14.996094 11.992188 15.449219 12 16 L 12 19 L 7 19 L 7 39 L 3 39 L 3 51.566406 L 3.484375 51.859375 C 3.484375 51.859375 8.175781 54.695313 10.050781 60.316406 C 10.050781 60.320313 10.054688 60.324219 10.058594 60.328125 C 9.269531 60.703125 8.546875 61 8 61 C 7.640625 60.996094 7.304688 61.183594 7.121094 61.496094 C 6.941406 61.808594 6.941406 62.191406 7.121094 62.503906 C 7.304688 62.816406 7.640625 63.003906 8 63 C 9.332031 63 10.449219 62.394531 11.449219 61.894531 C 12.449219 61.394531 13.332031 61 14 61 C 14.667969 61 15.550781 61.394531 16.550781 61.894531 C 17.550781 62.394531 18.667969 63 20 63 C 21.332031 63 22.449219 62.394531 23.449219 61.894531 C 24.449219 61.394531 25.332031 61 26 61 C 26.667969 61 27.550781 61.394531 28.550781 61.894531 C 29.550781 62.394531 30.667969 63 32 63 C 33.332031 63 34.449219 62.394531 35.449219 61.894531 C 36.449219 61.394531 37.332031 61 38 61 C 38.667969 61 39.550781 61.394531 40.550781 61.894531 C 41.550781 62.394531 42.667969 63 44 63 C 45.332031 63 46.449219 62.394531 47.449219 61.894531 C 48.449219 61.394531 49.332031 61 50 61 C 50.667969 61 51.550781 61.394531 52.550781 61.894531 C 53.550781 62.394531 54.667969 63 56 63 C 57.332031 63 58.449219 62.394531 59.449219 61.894531 C 60.402344 61.417969 61.246094 61.046875 61.902344 61.015625 C 61.960938 61.015625 62.019531 61.015625 62.078125 61.011719 C 62.734375 61.035156 63.589844 61.414063 64.550781 61.894531 C 65.550781 62.394531 66.667969 63 68 63 C 68.359375 63.003906 68.695313 62.816406 68.878906 62.503906 C 69.058594 62.191406 69.058594 61.808594 68.878906 61.496094 C 68.695313 61.183594 68.359375 60.996094 68 61 C 67.332031 61 66.449219 60.605469 65.449219 60.105469 C 65.007813 59.886719 64.539063 59.648438 64.046875 59.449219 C 67.273438 56.292969 75.351563 47.246094 76.992188 34.125 L 77.132813 33 L 61.210938 33 C 58.871094 33 56.683594 34.171875 55.386719 36.117188 L 53.464844 39 L 23 39 L 23 25 C 24.644531 25 26 23.644531 26 22 L 26 19 L 18 19 L 18 12 C 18.003906 11.730469 17.898438 11.46875 17.707031 11.277344 C 17.515625 11.085938 17.253906 10.980469 16.984375 10.984375 Z M 9 21 L 12.832031 21 C 12.941406 21.019531 13.050781 21.019531 13.15625 21 L 16.832031 21 C 16.941406 21.019531 17.050781 21.019531 17.15625 21 L 24 21 L 24 22 C 24 22.566406 23.566406 23 23 23 L 21 23 C 20.449219 23 20 23.449219 20 24 C 20 24.550781 20.449219 25 21 25 L 21 39 L 9 39 L 9 25 C 9.550781 25 10 24.550781 10 24 C 10 23.449219 9.550781 23 9 23 Z M 13 23 C 12.449219 23 12 23.449219 12 24 C 12 24.550781 12.449219 25 13 25 C 13.550781 25 14 24.550781 14 24 C 14 23.449219 13.550781 23 13 23 Z M 17 23 C 16.449219 23 16 23.449219 16 24 C 16 24.550781 16.449219 25 17 25 C 17.550781 25 18 24.550781 18 24 C 18 23.449219 17.550781 23 17 23 Z M 61.210938 35 L 74.777344 35 C 72.554688 48.976563 62.785156 57.96875 61.59375 59.023438 C 60.4375 59.128906 59.449219 59.65625 58.550781 60.105469 C 57.550781 60.605469 56.667969 61 56 61 C 55.332031 61 54.449219 60.605469 53.449219 60.105469 C 52.449219 59.605469 51.332031 59 50 59 C 48.667969 59 47.550781 59.605469 46.550781 60.105469 C 45.550781 60.605469 44.667969 61 44 61 C 43.332031 61 42.449219 60.605469 41.449219 60.105469 C 40.449219 59.605469 39.332031 59 38 59 C 36.667969 59 35.550781 59.605469 34.550781 60.105469 C 33.550781 60.605469 32.667969 61 32 61 C 31.332031 61 30.449219 60.605469 29.449219 60.105469 C 28.449219 59.605469 27.332031 59 26 59 C 24.667969 59 23.550781 59.605469 22.550781 60.105469 C 21.550781 60.605469 20.667969 61 20 61 C 19.332031 61 18.449219 60.605469 17.449219 60.105469 C 16.449219 59.605469 15.332031 59 14 59 C 13.222656 59 12.523438 59.214844 11.875 59.484375 C 9.894531 53.777344 5.746094 51.015625 5 50.539063 L 5 46 C 5.550781 46 6 45.550781 6 45 C 6 44.449219 5.550781 44 5 44 L 5 41 L 54.535156 41 L 57.050781 37.226563 C 57.980469 35.835938 59.539063 35 61.210938 35 Z M 63 38 C 61.355469 38 60 39.355469 60 41 C 60 42.644531 61.355469 44 63 44 C 64.644531 44 66 42.644531 66 41 C 66 39.355469 64.644531 38 63 38 Z M 63 40 C 63.5625 40 64 40.4375 64 41 C 64 41.5625 63.5625 42 63 42 C 62.4375 42 62 41.5625 62 41 C 62 40.4375 62.4375 40 63 40 Z M 9 44 C 8.449219 44 8 44.449219 8 45 C 8 45.550781 8.449219 46 9 46 C 9.550781 46 10 45.550781 10 45 C 10 44.449219 9.550781 44 9 44 Z M 13 44 C 12.449219 44 12 44.449219 12 45 C 12 45.550781 12.449219 46 13 46 C 13.550781 46 14 45.550781 14 45 C 14 44.449219 13.550781 44 13 44 Z M 17 44 C 16.449219 44 16 44.449219 16 45 C 16 45.550781 16.449219 46 17 46 C 17.550781 46 18 45.550781 18 45 C 18 44.449219 17.550781 44 17 44 Z M 21 44 C 20.449219 44 20 44.449219 20 45 C 20 45.550781 20.449219 46 21 46 C 21.550781 46 22 45.550781 22 45 C 22 44.449219 21.550781 44 21 44 Z M 25 44 C 24.449219 44 24 44.449219 24 45 C 24 45.550781 24.449219 46 25 46 C 25.550781 46 26 45.550781 26 45 C 26 44.449219 25.550781 44 25 44 Z M 29 44 C 28.449219 44 28 44.449219 28 45 C 28 45.550781 28.449219 46 29 46 C 29.550781 46 30 45.550781 30 45 C 30 44.449219 29.550781 44 29 44 Z M 33 44 C 32.449219 44 32 44.449219 32 45 C 32 45.550781 32.449219 46 33 46 C 33.550781 46 34 45.550781 34 45 C 34 44.449219 33.550781 44 33 44 Z M 37 44 C 36.449219 44 36 44.449219 36 45 C 36 45.550781 36.449219 46 37 46 C 37.550781 46 38 45.550781 38 45 C 38 44.449219 37.550781 44 37 44 Z M 41 44 C 40.449219 44 40 44.449219 40 45 C 40 45.550781 40.449219 46 41 46 C 41.550781 46 42 45.550781 42 45 C 42 44.449219 41.550781 44 41 44 Z M 45 44 C 44.449219 44 44 44.449219 44 45 C 44 45.550781 44.449219 46 45 46 C 45.550781 46 46 45.550781 46 45 C 46 44.449219 45.550781 44 45 44 Z M 49 44 C 48.449219 44 48 44.449219 48 45 C 48 45.550781 48.449219 46 49 46 C 49.550781 46 50 45.550781 50 45 C 50 44.449219 49.550781 44 49 44 Z M 53 44 C 52.449219 44 52 44.449219 52 45 C 52 45.550781 52.449219 46 53 46 C 53.550781 46 54 45.550781 54 45 C 54 44.449219 53.550781 44 53 44 Z M 4 61 C 3.449219 61 3 61.449219 3 62 C 3 62.550781 3.449219 63 4 63 C 4.550781 63 5 62.550781 5 62 C 5 61.449219 4.550781 61 4 61 Z M 72 61 C 71.449219 61 71 61.449219 71 62 C 71 62.550781 71.449219 63 72 63 C 72.550781 63 73 62.550781 73 62 C 73 61.449219 72.550781 61 72 61 Z"/></svg>