<svg fill="#000000" xmlns="http://www.w3.org/2000/svg"  viewBox="0 0 80 80" width="80px" height="80px"><path d="M 12.847656 14 L 13.96875 21.859375 L 7.34375 37 L 3 37 L 3 53.566406 L 3.484375 53.859375 C 3.484375 53.859375 7.992188 56.59375 9.933594 62 C 9.394531 62.039063 8.980469 62.492188 9 63.03125 C 9.015625 63.574219 9.460938 64 10 64 C 11.332031 64 12.449219 63.394531 13.449219 62.894531 C 14.449219 62.394531 15.332031 62 16 62 C 16.667969 62 17.550781 62.394531 18.550781 62.894531 C 19.550781 63.394531 20.667969 64 22 64 C 23.332031 64 24.449219 63.394531 25.449219 62.894531 C 26.449219 62.394531 27.332031 62 28 62 C 28.667969 62 29.550781 62.394531 30.550781 62.894531 C 31.550781 63.394531 32.667969 64 34 64 C 35.332031 64 36.449219 63.394531 37.449219 62.894531 C 38.449219 62.394531 39.332031 62 40 62 C 40.667969 62 41.550781 62.394531 42.550781 62.894531 C 43.550781 63.394531 44.667969 64 46 64 C 47.332031 64 48.449219 63.394531 49.449219 62.894531 C 50.449219 62.394531 51.332031 62 52 62 C 52.667969 62 53.550781 62.394531 54.550781 62.894531 C 55.550781 63.394531 56.667969 64 58 64 C 59.332031 64 60.449219 63.394531 61.449219 62.894531 C 62.449219 62.394531 63.332031 62 64 62 C 64.667969 62 65.550781 62.394531 66.550781 62.894531 C 67.550781 63.394531 68.667969 64 70 64 C 70.359375 64.003906 70.695313 63.816406 70.878906 63.503906 C 71.058594 63.191406 71.058594 62.808594 70.878906 62.496094 C 70.695313 62.183594 70.359375 61.996094 70 62 C 69.332031 62 68.449219 61.605469 67.449219 61.105469 C 67.179688 60.972656 66.902344 60.832031 66.613281 60.699219 C 68.933594 58.042969 75.316406 49.855469 76.988281 38.140625 L 77.152344 37 L 65.582031 37 L 53.578125 16 L 35.324219 16 L 33.324219 21 L 26.515625 21 L 21.515625 14 Z M 15.152344 16 L 20.484375 16 L 24.058594 21 L 15.867188 21 Z M 36.675781 18 L 52.421875 18 L 54.296875 21.289063 C 54.109375 21.476563 54 21.734375 54 22 C 54 22.550781 54.449219 23 55 23 C 55.085938 23 55.171875 22.988281 55.253906 22.964844 L 58.726563 29.039063 C 58.296875 29.160156 58 29.554688 58 30 C 58 30.550781 58.449219 31 59 31 C 59.257813 31 59.503906 30.898438 59.6875 30.722656 L 63.277344 37 L 63.210938 37 C 62.066406 37 60.960938 37.28125 59.980469 37.796875 C 59.882813 37.332031 59.472656 37 59 37 C 58.449219 37 58 37.449219 58 38 C 58 38.347656 58.179688 38.667969 58.472656 38.847656 C 58.066406 39.222656 57.699219 39.648438 57.386719 40.117188 L 55.464844 43 L 19.46875 43 L 15.800781 38.597656 C 15.929688 38.425781 16 38.214844 16 38 C 16 37.449219 15.550781 37 15 37 C 14.847656 37 14.695313 37.035156 14.558594 37.105469 L 14.46875 37 L 9.53125 37 L 15.65625 23 L 34.675781 23 L 34.699219 22.953125 C 34.796875 22.984375 34.898438 23 35 23 C 35.550781 23 36 22.550781 36 22 C 36 21.617188 35.78125 21.269531 35.4375 21.101563 Z M 39 21 C 38.449219 21 38 21.449219 38 22 C 38 22.550781 38.449219 23 39 23 C 39.550781 23 40 22.550781 40 22 C 40 21.449219 39.550781 21 39 21 Z M 43 21 C 42.449219 21 42 21.449219 42 22 C 42 22.550781 42.449219 23 43 23 C 43.550781 23 44 22.550781 44 22 C 44 21.449219 43.550781 21 43 21 Z M 47 21 C 46.449219 21 46 21.449219 46 22 C 46 22.550781 46.449219 23 47 23 C 47.550781 23 48 22.550781 48 22 C 48 21.449219 47.550781 21 47 21 Z M 51 21 C 50.449219 21 50 21.449219 50 22 C 50 22.550781 50.449219 23 51 23 C 51.550781 23 52 22.550781 52 22 C 52 21.449219 51.550781 21 51 21 Z M 15 29 C 14.449219 29 14 29.449219 14 30 C 14 30.550781 14.449219 31 15 31 C 15.550781 31 16 30.550781 16 30 C 16 29.449219 15.550781 29 15 29 Z M 19 29 C 18.449219 29 18 29.449219 18 30 C 18 30.550781 18.449219 31 19 31 C 19.550781 31 20 30.550781 20 30 C 20 29.449219 19.550781 29 19 29 Z M 23 29 C 22.449219 29 22 29.449219 22 30 C 22 30.550781 22.449219 31 23 31 C 23.550781 31 24 30.550781 24 30 C 24 29.449219 23.550781 29 23 29 Z M 27 29 C 26.449219 29 26 29.449219 26 30 C 26 30.550781 26.449219 31 27 31 C 27.550781 31 28 30.550781 28 30 C 28 29.449219 27.550781 29 27 29 Z M 31 29 C 30.449219 29 30 29.449219 30 30 C 30 30.550781 30.449219 31 31 31 C 31.550781 31 32 30.550781 32 30 C 32 29.449219 31.550781 29 31 29 Z M 35 29 C 34.449219 29 34 29.449219 34 30 C 34 30.550781 34.449219 31 35 31 C 35.550781 31 36 30.550781 36 30 C 36 29.449219 35.550781 29 35 29 Z M 39 29 C 38.449219 29 38 29.449219 38 30 C 38 30.550781 38.449219 31 39 31 C 39.550781 31 40 30.550781 40 30 C 40 29.449219 39.550781 29 39 29 Z M 43 29 C 42.449219 29 42 29.449219 42 30 C 42 30.550781 42.449219 31 43 31 C 43.550781 31 44 30.550781 44 30 C 44 29.449219 43.550781 29 43 29 Z M 47 29 C 46.449219 29 46 29.449219 46 30 C 46 30.550781 46.449219 31 47 31 C 47.550781 31 48 30.550781 48 30 C 48 29.449219 47.550781 29 47 29 Z M 51 29 C 50.449219 29 50 29.449219 50 30 C 50 30.550781 50.449219 31 51 31 C 51.550781 31 52 30.550781 52 30 C 52 29.449219 51.550781 29 51 29 Z M 55 29 C 54.449219 29 54 29.449219 54 30 C 54 30.550781 54.449219 31 55 31 C 55.550781 31 56 30.550781 56 30 C 56 29.449219 55.550781 29 55 29 Z M 19 37 C 18.449219 37 18 37.449219 18 38 C 18 38.550781 18.449219 39 19 39 C 19.550781 39 20 38.550781 20 38 C 20 37.449219 19.550781 37 19 37 Z M 23 37 C 22.449219 37 22 37.449219 22 38 C 22 38.550781 22.449219 39 23 39 C 23.550781 39 24 38.550781 24 38 C 24 37.449219 23.550781 37 23 37 Z M 27 37 C 26.449219 37 26 37.449219 26 38 C 26 38.550781 26.449219 39 27 39 C 27.550781 39 28 38.550781 28 38 C 28 37.449219 27.550781 37 27 37 Z M 31 37 C 30.449219 37 30 37.449219 30 38 C 30 38.550781 30.449219 39 31 39 C 31.550781 39 32 38.550781 32 38 C 32 37.449219 31.550781 37 31 37 Z M 35 37 C 34.449219 37 34 37.449219 34 38 C 34 38.550781 34.449219 39 35 39 C 35.550781 39 36 38.550781 36 38 C 36 37.449219 35.550781 37 35 37 Z M 39 37 C 38.449219 37 38 37.449219 38 38 C 38 38.550781 38.449219 39 39 39 C 39.550781 39 40 38.550781 40 38 C 40 37.449219 39.550781 37 39 37 Z M 43 37 C 42.449219 37 42 37.449219 42 38 C 42 38.550781 42.449219 39 43 39 C 43.550781 39 44 38.550781 44 38 C 44 37.449219 43.550781 37 43 37 Z M 47 37 C 46.449219 37 46 37.449219 46 38 C 46 38.550781 46.449219 39 47 39 C 47.550781 39 48 38.550781 48 38 C 48 37.449219 47.550781 37 47 37 Z M 51 37 C 50.449219 37 50 37.449219 50 38 C 50 38.550781 50.449219 39 51 39 C 51.550781 39 52 38.550781 52 38 C 52 37.449219 51.550781 37 51 37 Z M 55 37 C 54.449219 37 54 37.449219 54 38 C 54 38.550781 54.449219 39 55 39 C 55.550781 39 56 38.550781 56 38 C 56 37.449219 55.550781 37 55 37 Z M 5 39 L 7.765625 39 C 7.910156 39.035156 8.0625 39.035156 8.210938 39 L 13.53125 39 L 18.53125 45 L 56.535156 45 L 59.050781 41.226563 C 59.980469 39.835938 61.539063 39 63.210938 39 L 74.769531 39 C 72.695313 50.871094 65.710938 58.773438 64.535156 60.035156 C 64.359375 60.015625 64.183594 60 64 60 C 62.667969 60 61.550781 60.605469 60.550781 61.105469 C 59.550781 61.605469 58.667969 62 58 62 C 57.332031 62 56.449219 61.605469 55.449219 61.105469 C 54.449219 60.605469 53.332031 60 52 60 C 50.667969 60 49.550781 60.605469 48.550781 61.105469 C 47.550781 61.605469 46.667969 62 46 62 C 45.332031 62 44.449219 61.605469 43.449219 61.105469 C 42.449219 60.605469 41.332031 60 40 60 C 38.667969 60 37.550781 60.605469 36.550781 61.105469 C 35.550781 61.605469 34.667969 62 34 62 C 33.332031 62 32.449219 61.605469 31.449219 61.105469 C 30.449219 60.605469 29.332031 60 28 60 C 26.667969 60 25.550781 60.605469 24.550781 61.105469 C 23.550781 61.605469 22.667969 62 22 62 C 21.332031 62 20.449219 61.605469 19.449219 61.105469 C 18.449219 60.605469 17.332031 60 16 60 C 14.667969 60 13.550781 60.605469 12.550781 61.105469 C 12.304688 61.230469 12.085938 61.316406 11.855469 61.421875 C 9.867188 55.757813 5.746094 53.015625 5 52.539063 Z M 9 43 C 8.449219 43 8 43.449219 8 44 C 8 44.550781 8.449219 45 9 45 C 9.550781 45 10 44.550781 10 44 C 10 43.449219 9.550781 43 9 43 Z M 13 43 C 12.449219 43 12 43.449219 12 44 C 12 44.550781 12.449219 45 13 45 C 13.550781 45 14 44.550781 14 44 C 14 43.449219 13.550781 43 13 43 Z M 61 43 C 60.449219 43 60 43.449219 60 44 C 60 44.550781 60.449219 45 61 45 C 61.550781 45 62 44.550781 62 44 C 62 43.449219 61.550781 43 61 43 Z M 65 43 C 64.449219 43 64 43.449219 64 44 C 64 44.550781 64.449219 45 65 45 C 65.550781 45 66 44.550781 66 44 C 66 43.449219 65.550781 43 65 43 Z M 69 43 C 68.449219 43 68 43.449219 68 44 C 68 44.550781 68.449219 45 69 45 C 69.550781 45 70 44.550781 70 44 C 70 43.449219 69.550781 43 69 43 Z M 9 48 C 8.449219 48 8 48.449219 8 49 C 8 49.550781 8.449219 50 9 50 C 9.550781 50 10 49.550781 10 49 C 10 48.449219 9.550781 48 9 48 Z M 13 48 C 12.449219 48 12 48.449219 12 49 C 12 49.550781 12.449219 50 13 50 C 13.550781 50 14 49.550781 14 49 C 14 48.449219 13.550781 48 13 48 Z M 17 48 C 16.449219 48 16 48.449219 16 49 C 16 49.550781 16.449219 50 17 50 C 17.550781 50 18 49.550781 18 49 C 18 48.449219 17.550781 48 17 48 Z M 21 48 C 20.449219 48 20 48.449219 20 49 C 20 49.550781 20.449219 50 21 50 C 21.550781 50 22 49.550781 22 49 C 22 48.449219 21.550781 48 21 48 Z M 25 48 C 24.449219 48 24 48.449219 24 49 C 24 49.550781 24.449219 50 25 50 C 25.550781 50 26 49.550781 26 49 C 26 48.449219 25.550781 48 25 48 Z M 29 48 C 28.449219 48 28 48.449219 28 49 C 28 49.550781 28.449219 50 29 50 C 29.550781 50 30 49.550781 30 49 C 30 48.449219 29.550781 48 29 48 Z M 33 48 C 32.449219 48 32 48.449219 32 49 C 32 49.550781 32.449219 50 33 50 C 33.550781 50 34 49.550781 34 49 C 34 48.449219 33.550781 48 33 48 Z M 37 48 C 36.449219 48 36 48.449219 36 49 C 36 49.550781 36.449219 50 37 50 C 37.550781 50 38 49.550781 38 49 C 38 48.449219 37.550781 48 37 48 Z M 41 48 C 40.449219 48 40 48.449219 40 49 C 40 49.550781 40.449219 50 41 50 C 41.550781 50 42 49.550781 42 49 C 42 48.449219 41.550781 48 41 48 Z M 45 48 C 44.449219 48 44 48.449219 44 49 C 44 49.550781 44.449219 50 45 50 C 45.550781 50 46 49.550781 46 49 C 46 48.449219 45.550781 48 45 48 Z M 49 48 C 48.449219 48 48 48.449219 48 49 C 48 49.550781 48.449219 50 49 50 C 49.550781 50 50 49.550781 50 49 C 50 48.449219 49.550781 48 49 48 Z M 53 48 C 52.449219 48 52 48.449219 52 49 C 52 49.550781 52.449219 50 53 50 C 53.550781 50 54 49.550781 54 49 C 54 48.449219 53.550781 48 53 48 Z M 57 48 C 56.449219 48 56 48.449219 56 49 C 56 49.550781 56.449219 50 57 50 C 57.550781 50 58 49.550781 58 49 C 58 48.449219 57.550781 48 57 48 Z M 61 48 C 60.449219 48 60 48.449219 60 49 C 60 49.550781 60.449219 50 61 50 C 61.550781 50 62 49.550781 62 49 C 62 48.449219 61.550781 48 61 48 Z M 65 48 C 64.449219 48 64 48.449219 64 49 C 64 49.550781 64.449219 50 65 50 C 65.550781 50 66 49.550781 66 49 C 66 48.449219 65.550781 48 65 48 Z M 6 62 C 5.449219 62 5 62.449219 5 63 C 5 63.550781 5.449219 64 6 64 C 6.550781 64 7 63.550781 7 63 C 7 62.449219 6.550781 62 6 62 Z M 74 62 C 73.449219 62 73 62.449219 73 63 C 73 63.550781 73.449219 64 74 64 C 74.550781 64 75 63.550781 75 63 C 75 62.449219 74.550781 62 74 62 Z"/></svg>