<svg fill="#000000" xmlns="http://www.w3.org/2000/svg"  viewBox="0 0 80 80" width="80px" height="80px"><path d="M 45 10 C 41.144531 10 38 13.144531 38 17 C 38 20.855469 41.144531 24 45 24 C 48.855469 24 52 20.855469 52 17 C 52 13.144531 48.855469 10 45 10 Z M 45 12 C 47.773438 12 50 14.226563 50 17 C 50 19.773438 47.773438 22 45 22 C 42.226563 22 40 19.773438 40 17 C 40 14.226563 42.226563 12 45 12 Z M 36 25 C 33.367188 25 31.101563 26.484375 29.90625 28.640625 C 29.855469 28.6875 29.8125 28.742188 29.777344 28.800781 L 18.441406 47 L 10 47 C 8.355469 47 7 48.355469 7 50 C 7 51.3125 7.960938 52.242188 9.148438 52.644531 C 9.417969 56.566406 11.921875 59.902344 14.394531 62.285156 C 14.679688 62.5625 14.964844 62.816406 15.246094 63.066406 C 14.238281 63.238281 13.359375 63.703125 12.550781 64.105469 C 11.550781 64.605469 10.667969 65 10 65 C 9.640625 64.996094 9.304688 65.183594 9.121094 65.496094 C 8.941406 65.808594 8.941406 66.191406 9.121094 66.503906 C 9.304688 66.816406 9.640625 67.003906 10 67 C 11.332031 67 12.449219 66.394531 13.449219 65.894531 C 14.449219 65.394531 15.332031 65 16 65 C 16.667969 65 17.550781 65.394531 18.550781 65.894531 C 19.550781 66.394531 20.667969 67 22 67 C 23.332031 67 24.449219 66.394531 25.449219 65.894531 C 26.449219 65.394531 27.332031 65 28 65 C 28.667969 65 29.550781 65.394531 30.550781 65.894531 C 31.550781 66.394531 32.667969 67 34 67 C 35.332031 67 36.449219 66.394531 37.449219 65.894531 C 38.449219 65.394531 39.332031 65 40 65 C 40.667969 65 41.550781 65.394531 42.550781 65.894531 C 43.550781 66.394531 44.667969 67 46 67 C 47.332031 67 48.449219 66.394531 49.449219 65.894531 C 50.449219 65.394531 51.332031 65 52 65 C 52.667969 65 53.550781 65.394531 54.550781 65.894531 C 55.550781 66.394531 56.667969 67 58 67 C 59.332031 67 60.449219 66.394531 61.449219 65.894531 C 62.449219 65.394531 63.332031 65 64 65 C 64.667969 65 65.550781 65.394531 66.550781 65.894531 C 67.550781 66.394531 68.667969 67 70 67 C 70.359375 67.003906 70.695313 66.816406 70.878906 66.503906 C 71.058594 66.191406 71.058594 65.808594 70.878906 65.496094 C 70.695313 65.183594 70.359375 64.996094 70 65 C 69.332031 65 68.449219 64.605469 67.449219 64.105469 C 66.449219 63.605469 65.332031 63 64 63 C 62.667969 63 61.550781 63.605469 60.550781 64.105469 C 59.550781 64.605469 58.667969 65 58 65 C 57.84375 65 57.675781 64.972656 57.496094 64.933594 C 60.863281 63.410156 66.882813 59.796875 68.757813 52.683594 C 69.996094 52.3125 71 51.351563 71 50 C 71 48.355469 69.644531 47 68 47 L 54.441406 47 L 57.558594 43.28125 L 58.332031 43.632813 C 58.464844 43.695313 58.609375 43.722656 58.753906 43.722656 C 59.152344 43.859375 59.550781 44 60 44 C 62.199219 44 64 42.199219 64 40 C 64 38.519531 63.105469 37.335938 61.90625 36.644531 C 61.804688 36.492188 61.664063 36.371094 61.5 36.292969 L 39.066406 25.707031 C 38.929688 25.644531 38.78125 25.609375 38.628906 25.613281 C 37.8125 25.273438 36.945313 25 36 25 Z M 36 27 C 36.789063 27 37.527344 27.1875 38.191406 27.515625 C 38.429688 27.628906 38.703125 27.648438 38.953125 27.5625 L 38.597656 27.699219 L 59.792969 37.699219 L 60.140625 36.832031 C 60.039063 37.082031 60.042969 37.359375 60.152344 37.605469 C 60.257813 37.851563 60.460938 38.042969 60.710938 38.140625 C 61.464844 38.425781 62 39.140625 62 40 C 62 41.117188 61.117188 42 60 42 C 59.707031 42 59.433594 41.933594 59.167969 41.8125 C 59.136719 41.796875 59.105469 41.785156 59.074219 41.773438 C 59.074219 41.773438 59.070313 41.773438 59.066406 41.769531 L 57.957031 41.265625 C 57.816406 41.144531 57.640625 41.066406 57.457031 41.035156 L 43.796875 34.804688 C 43.335938 34.59375 42.789063 34.765625 42.527344 35.199219 L 35.433594 47 L 20.800781 47 L 31.296875 30.148438 L 30.984375 30.265625 C 31.222656 30.175781 31.414063 30 31.527344 29.777344 C 32.347656 28.132813 34.03125 27 36 27 Z M 43.78125 36.996094 L 55.671875 42.421875 L 51.832031 47 L 37.765625 47 Z M 10 49 L 50.15625 49 L 38.097656 63.386719 C 37.550781 63.597656 37.039063 63.863281 36.550781 64.105469 C 35.550781 64.605469 34.667969 65 34 65 C 33.332031 65 32.449219 64.605469 31.449219 64.105469 C 30.449219 63.605469 29.332031 63 28 63 C 26.667969 63 25.550781 63.605469 24.550781 64.105469 C 23.550781 64.605469 22.667969 65 22 65 C 21.644531 65 21.21875 64.878906 20.753906 64.699219 C 20.71875 64.667969 20.679688 64.644531 20.640625 64.621094 C 20.640625 64.621094 18.210938 63.1875 15.78125 60.847656 C 13.355469 58.507813 11.046875 55.324219 11.046875 52 L 11.046875 51 L 10 51 C 9.433594 51 9 50.566406 9 50 C 9 49.433594 9.433594 49 10 49 Z M 52.765625 49 L 68 49 C 68.566406 49 69 49.433594 69 50 C 69 50.566406 68.566406 51 68 51 L 67.152344 51 L 66.972656 51.777344 C 65.058594 60.085938 56.464844 63.316406 54.910156 63.839844 C 54.050781 63.414063 53.101563 63 52 63 C 50.667969 63 49.550781 63.605469 48.550781 64.105469 C 47.550781 64.605469 46.667969 65 46 65 C 45.332031 65 44.449219 64.605469 43.449219 64.105469 C 42.695313 63.730469 41.878906 63.292969 40.953125 63.097656 Z M 13 51 C 12.449219 51 12 51.449219 12 52 C 12 52.550781 12.449219 53 13 53 C 13.550781 53 14 52.550781 14 52 C 14 51.449219 13.550781 51 13 51 Z M 17 51 C 16.449219 51 16 51.449219 16 52 C 16 52.550781 16.449219 53 17 53 C 17.550781 53 18 52.550781 18 52 C 18 51.449219 17.550781 51 17 51 Z M 21 51 C 20.449219 51 20 51.449219 20 52 C 20 52.550781 20.449219 53 21 53 C 21.550781 53 22 52.550781 22 52 C 22 51.449219 21.550781 51 21 51 Z M 25 51 C 24.449219 51 24 51.449219 24 52 C 24 52.550781 24.449219 53 25 53 C 25.550781 53 26 52.550781 26 52 C 26 51.449219 25.550781 51 25 51 Z M 29 51 C 28.449219 51 28 51.449219 28 52 C 28 52.550781 28.449219 53 29 53 C 29.550781 53 30 52.550781 30 52 C 30 51.449219 29.550781 51 29 51 Z M 33 51 C 32.449219 51 32 51.449219 32 52 C 32 52.550781 32.449219 53 33 53 C 33.550781 53 34 52.550781 34 52 C 34 51.449219 33.550781 51 33 51 Z M 37 51 C 36.449219 51 36 51.449219 36 52 C 36 52.550781 36.449219 53 37 53 C 37.550781 53 38 52.550781 38 52 C 38 51.449219 37.550781 51 37 51 Z M 41 51 C 40.449219 51 40 51.449219 40 52 C 40 52.550781 40.449219 53 41 53 C 41.550781 53 42 52.550781 42 52 C 42 51.449219 41.550781 51 41 51 Z M 45 51 C 44.449219 51 44 51.449219 44 52 C 44 52.550781 44.449219 53 45 53 C 45.550781 53 46 52.550781 46 52 C 46 51.449219 45.550781 51 45 51 Z M 53 51 C 52.449219 51 52 51.449219 52 52 C 52 52.550781 52.449219 53 53 53 C 53.550781 53 54 52.550781 54 52 C 54 51.449219 53.550781 51 53 51 Z M 57 51 C 56.449219 51 56 51.449219 56 52 C 56 52.550781 56.449219 53 57 53 C 57.550781 53 58 52.550781 58 52 C 58 51.449219 57.550781 51 57 51 Z M 61 51 C 60.449219 51 60 51.449219 60 52 C 60 52.550781 60.449219 53 61 53 C 61.550781 53 62 52.550781 62 52 C 62 51.449219 61.550781 51 61 51 Z M 65 51 C 64.449219 51 64 51.449219 64 52 C 64 52.550781 64.449219 53 65 53 C 65.550781 53 66 52.550781 66 52 C 66 51.449219 65.550781 51 65 51 Z M 6 65 C 5.449219 65 5 65.449219 5 66 C 5 66.550781 5.449219 67 6 67 C 6.550781 67 7 66.550781 7 66 C 7 65.449219 6.550781 65 6 65 Z M 74 65 C 73.449219 65 73 65.449219 73 66 C 73 66.550781 73.449219 67 74 67 C 74.550781 67 75 66.550781 75 66 C 75 65.449219 74.550781 65 74 65 Z"/></svg>