<svg fill="#000000" xmlns="http://www.w3.org/2000/svg"  viewBox="0 0 80 80" width="80px" height="80px"><path d="M 33 8 L 33 16.984375 L 20.171875 19.316406 L 21.21875 20.625 C 28.8125 30.117188 25.03125 44.742188 25.03125 44.742188 L 24.625 46.28125 L 33 44.671875 L 33 50 L 26.566406 50 L 20.566406 40 L 9 40 L 9 52.820313 L 14.175781 53.855469 C 14.503906 55.46875 16.414063 63.527344 22.796875 67.847656 C 22.507813 67.9375 22.238281 68 22 68 C 21.332031 68 20.449219 67.605469 19.449219 67.105469 C 18.449219 66.605469 17.332031 66 16 66 C 14.667969 66 13.550781 66.605469 12.550781 67.105469 C 11.550781 67.605469 10.667969 68 10 68 C 9.640625 67.996094 9.304688 68.183594 9.121094 68.496094 C 8.941406 68.808594 8.941406 69.191406 9.121094 69.503906 C 9.304688 69.816406 9.640625 70.003906 10 70 C 11.332031 70 12.449219 69.394531 13.449219 68.894531 C 14.449219 68.394531 15.332031 68 16 68 C 16.667969 68 17.550781 68.394531 18.550781 68.894531 C 19.550781 69.394531 20.667969 70 22 70 C 23.332031 70 24.449219 69.394531 25.449219 68.894531 C 26.449219 68.394531 27.332031 68 28 68 C 28.667969 68 29.550781 68.394531 30.550781 68.894531 C 31.550781 69.394531 32.667969 70 34 70 C 35.332031 70 36.449219 69.394531 37.449219 68.894531 C 38.449219 68.394531 39.332031 68 40 68 C 40.667969 68 41.550781 68.394531 42.550781 68.894531 C 43.550781 69.394531 44.667969 70 46 70 C 47.332031 70 48.449219 69.394531 49.449219 68.894531 C 50.449219 68.394531 51.332031 68 52 68 C 52.628906 68 53.460938 68.363281 54.390625 68.820313 C 54.488281 68.894531 54.605469 68.949219 54.722656 68.980469 C 55.679688 69.460938 56.742188 70 58 70 C 59.332031 70 60.449219 69.394531 61.449219 68.894531 C 62.449219 68.394531 63.332031 68 64 68 C 64.667969 68 65.550781 68.394531 66.550781 68.894531 C 67.550781 69.394531 68.667969 70 70 70 C 70.359375 70.003906 70.695313 69.816406 70.878906 69.503906 C 71.058594 69.191406 71.058594 68.808594 70.878906 68.496094 C 70.695313 68.183594 70.359375 67.996094 70 68 C 69.332031 68 68.449219 67.605469 67.449219 67.105469 C 66.449219 66.605469 65.332031 66 64 66 C 62.667969 66 61.550781 66.605469 60.550781 67.105469 C 59.550781 67.605469 58.667969 68 58 68 C 57.800781 68 57.574219 67.953125 57.335938 67.890625 C 61.691406 65.429688 72.347656 58.089844 73.992188 44.117188 L 74.15625 42.730469 L 58.5625 46.074219 L 53.648438 50 L 35 50 L 35 44.285156 L 52.949219 40.835938 L 53 40.0625 C 53 40.0625 54.1875 23.714844 44.664063 15.25 L 44.300781 14.929688 L 35 16.621094 L 35 11.957031 C 43.125 11.628906 44.695313 9.300781 50 8 C 41.484375 8 39 10 33 8 Z M 43.628906 17.082031 C 51.140625 24.152344 51.058594 37.167969 51 39.171875 L 45.035156 40.320313 L 44.835938 39.664063 L 43.992188 39.359375 L 43.246094 39.855469 L 43.125 40.1875 L 43.109375 40.28125 L 43.222656 40.667969 L 36.3125 42 L 36.320313 41.980469 L 36.144531 41.097656 L 35.339844 40.714844 L 34.542969 41.128906 L 34.390625 41.445313 L 34.363281 41.542969 L 34.523438 42.34375 L 27.28125 43.734375 C 27.996094 40.394531 29.632813 29.535156 23.625 20.71875 L 29.582031 19.640625 L 30.191406 19.847656 L 30.832031 19.410156 L 37.808594 18.140625 L 37.824219 18.15625 L 38.675781 18.421875 L 39.402344 17.894531 L 39.402344 17.855469 Z M 49.304688 17.238281 L 51.210938 20.222656 C 51.210938 20.222656 56.921875 29.296875 55.019531 38.804688 L 54.714844 40.324219 L 70.511719 36.675781 L 69.875 35.519531 C 69.875 35.519531 63.796875 24.273438 52.488281 18.785156 Z M 41.054688 19.554688 L 40.234375 19.914063 L 40.03125 20.785156 L 40.15625 21.074219 L 40.152344 21.074219 L 40.171875 21.109375 L 40.183594 21.125 L 40.191406 21.140625 L 40.941406 21.632813 L 41.785156 21.324219 L 42.042969 20.464844 L 41.921875 20.136719 L 41.878906 20.0625 L 41.863281 20.035156 L 41.84375 20.011719 L 41.835938 19.996094 Z M 32.585938 21 L 31.761719 21.347656 L 31.546875 22.21875 L 31.683594 22.546875 L 31.734375 22.628906 L 32.511719 23.082031 L 33.335938 22.734375 L 33.550781 21.863281 L 33.414063 21.539063 L 33.359375 21.453125 Z M 54.425781 22.203125 C 61.648438 26.707031 66.015625 33.066406 67.417969 35.339844 L 57.144531 37.707031 C 57.976563 31.242188 55.988281 25.539063 54.425781 22.203125 Z M 43.085938 23.246094 L 42.210938 23.4375 L 41.839844 24.25 L 41.917969 24.59375 L 41.953125 24.6875 L 42.628906 25.277344 L 43.503906 25.082031 L 43.875 24.265625 L 43.800781 23.921875 L 43.765625 23.828125 Z M 34.671875 24.667969 L 33.792969 24.84375 L 33.410156 25.65625 L 33.484375 26 L 33.519531 26.09375 L 34.1875 26.6875 L 35.066406 26.511719 L 35.449219 25.699219 L 35.375 25.355469 L 35.339844 25.261719 Z M 44.417969 27.207031 L 43.523438 27.265625 L 43.035156 28.019531 L 43.058594 28.371094 L 43.082031 28.46875 L 43.667969 29.152344 L 44.558594 29.089844 L 45.046875 28.339844 L 45.023438 27.984375 L 45 27.890625 Z M 36.050781 28.625 L 35.15625 28.660156 L 34.652344 29.398438 L 34.667969 29.75 L 34.6875 29.847656 L 35.25 30.542969 L 36.148438 30.507813 L 36.65625 29.765625 L 36.640625 29.417969 L 36.621094 29.316406 Z M 44.21875 31.257813 L 43.617188 31.921875 L 43.585938 32.273438 L 43.59375 32.375 L 44.0625 33.140625 L 44.953125 33.21875 L 45.554688 32.554688 L 45.585938 32.203125 L 45.578125 32.105469 L 45.109375 31.339844 Z M 35.871094 32.648438 L 35.253906 33.296875 L 35.214844 33.652344 L 35.21875 33.75 L 35.667969 34.527344 L 36.558594 34.625 L 37.171875 33.976563 L 37.214844 33.625 L 37.207031 33.527344 L 36.757813 32.75 Z M 44.363281 35.3125 L 43.679688 35.890625 L 43.597656 36.234375 L 43.59375 36.332031 L 43.953125 37.152344 L 44.824219 37.359375 L 45.511719 36.78125 L 45.589844 36.4375 L 45.59375 36.339844 L 45.238281 35.515625 Z M 35.933594 36.695313 L 35.203125 37.21875 L 35.097656 37.554688 L 35.085938 37.65625 L 35.382813 38.5 L 36.238281 38.765625 L 36.964844 38.246094 L 37.070313 37.90625 L 37.082031 37.808594 L 36.785156 36.964844 Z M 11 42 L 19.433594 42 L 25.433594 52 L 33.832031 52 C 33.941406 52.019531 34.050781 52.019531 34.15625 52 L 54.351563 52 L 59.4375 47.925781 L 71.683594 45.304688 C 69.238281 59.394531 56.988281 65.914063 55.003906 66.886719 C 54.117188 66.445313 53.140625 66 52 66 C 50.667969 66 49.550781 66.605469 48.550781 67.105469 C 47.550781 67.605469 46.667969 68 46 68 C 45.332031 68 44.449219 67.605469 43.449219 67.105469 C 42.449219 66.605469 41.332031 66 40 66 C 38.667969 66 37.550781 66.605469 36.550781 67.105469 C 35.550781 67.605469 34.667969 68 34 68 C 33.332031 68 32.449219 67.605469 31.449219 67.105469 C 30.449219 66.605469 29.332031 66 28 66 C 26.875 66 25.910156 66.433594 25.035156 66.867188 C 17.976563 62.980469 15.984375 52.820313 15.984375 52.820313 L 15.863281 52.152344 L 11 51.179688 Z M 27 55 C 26.449219 55 26 55.449219 26 56 C 26 56.550781 26.449219 57 27 57 C 27.550781 57 28 56.550781 28 56 C 28 55.449219 27.550781 55 27 55 Z M 31 55 C 30.449219 55 30 55.449219 30 56 C 30 56.550781 30.449219 57 31 57 C 31.550781 57 32 56.550781 32 56 C 32 55.449219 31.550781 55 31 55 Z M 35 55 C 34.449219 55 34 55.449219 34 56 C 34 56.550781 34.449219 57 35 57 C 35.550781 57 36 56.550781 36 56 C 36 55.449219 35.550781 55 35 55 Z M 39 55 C 38.449219 55 38 55.449219 38 56 C 38 56.550781 38.449219 57 39 57 C 39.550781 57 40 56.550781 40 56 C 40 55.449219 39.550781 55 39 55 Z M 43 55 C 42.449219 55 42 55.449219 42 56 C 42 56.550781 42.449219 57 43 57 C 43.550781 57 44 56.550781 44 56 C 44 55.449219 43.550781 55 43 55 Z M 47 55 C 46.449219 55 46 55.449219 46 56 C 46 56.550781 46.449219 57 47 57 C 47.550781 57 48 56.550781 48 56 C 48 55.449219 47.550781 55 47 55 Z M 51 55 C 50.449219 55 50 55.449219 50 56 C 50 56.550781 50.449219 57 51 57 C 51.550781 57 52 56.550781 52 56 C 52 55.449219 51.550781 55 51 55 Z M 6 68 C 5.449219 68 5 68.449219 5 69 C 5 69.550781 5.449219 70 6 70 C 6.550781 70 7 69.550781 7 69 C 7 68.449219 6.550781 68 6 68 Z M 74 68 C 73.449219 68 73 68.449219 73 69 C 73 69.550781 73.449219 70 74 70 C 74.550781 70 75 69.550781 75 69 C 75 68.449219 74.550781 68 74 68 Z"/></svg>