<?xml version="1.0" ?><!-- Uploaded to: SVG Repo, www.svgrepo.com, Generator: SVG Repo Mixer Tools -->
<svg fill="#000000" width="800px" height="800px" viewBox="0 0 80 80" data-name="Layer 1" id="Layer_1" xmlns="http://www.w3.org/2000/svg"><title/><path d="M78,62c-3,0-4.36,2.38-5.61,4.49S70.18,70,68.5,70a2.73,2.73,0,0,1-1.84-.71s0,0,0,0L75,38.34a1,1,0,0,0-.52-1.15L62,30.94V15.14C62,9.87,50.15,8,40,8S18,9.87,18,15.14v15.8L5.55,37.19A1,1,0,0,0,5,38.34l8.3,30.92s0,0,0,0A2.69,2.69,0,0,1,11.5,70c-1.69,0-2.59-1.33-3.89-3.51S4.94,62,2,62a1,1,0,0,0,0,2c1.68,0,2.59,1.33,3.89,3.51S8.55,72,11.5,72s4.36-2.38,5.61-4.49S19.31,64,21,64s2.6,1.33,3.89,3.51S27.55,72,30.49,72s4.36-2.38,5.61-4.49S38.3,64,40,64s2.59,1.33,3.89,3.51S46.55,72,49.49,72s4.36-2.39,5.61-4.49S57.31,64,59,64s2.59,1.33,3.89,3.51S65.55,72,68.5,72s4.36-2.38,5.61-4.49S76.31,64,78,64a1,1,0,0,0,0-2Zm-39,.1c-2.29.47-3.52,2.54-4.62,4.39C33.08,68.67,32.17,70,30.49,70s-2.59-1.33-3.89-3.51S23.94,62,21,62s-4.36,2.38-5.6,4.49l-.51.83L7.18,38.61,39,22.62Zm1.42-42A.92.92,0,0,0,40,20h0a.92.92,0,0,0-.41.1h0L20,29.93V15.14C20,12.31,29,10,40,10a59.22,59.22,0,0,1,14.19,1.5c3.69,1,5.81,2.29,5.81,3.64V29.93L40.45,20.11ZM64.6,66.49C63.35,64.38,61.93,62,59,62s-4.36,2.38-5.61,4.49S51.17,70,49.49,70s-2.59-1.33-3.89-3.51c-1.1-1.85-2.32-3.91-4.6-4.39V22.62l31.82,16-7.7,28.73Z"/></svg>