<svg fill="#000000" xmlns="http://www.w3.org/2000/svg"  viewBox="0 0 80 80" width="80px" height="80px"><path d="M 27 11 C 25.355469 11 24 12.355469 24 14 L 24 20 C 24 21.644531 25.355469 23 27 23 L 29 23 C 29.851563 23 30.550781 22.570313 31.09375 22 L 34 22 C 34.566406 22 35 22.433594 35 23 L 35 39.785156 C 34.632813 39.914063 34.292969 40 34 40 C 33.332031 40 32.449219 39.605469 31.449219 39.105469 C 30.449219 38.605469 29.332031 38 28 38 C 26.667969 38 25.550781 38.605469 24.550781 39.105469 C 23.550781 39.605469 22.667969 40 22 40 C 21.332031 40 20.449219 39.605469 19.449219 39.105469 C 18.449219 38.605469 17.332031 38 16 38 C 14.667969 38 13.550781 38.605469 12.550781 39.105469 C 11.550781 39.605469 10.667969 40 10 40 C 9.640625 39.996094 9.304688 40.183594 9.121094 40.496094 C 8.941406 40.808594 8.941406 41.191406 9.121094 41.503906 C 9.304688 41.816406 9.640625 42.003906 10 42 C 11.332031 42 12.449219 41.394531 13.449219 40.894531 C 14.449219 40.394531 15.332031 40 16 40 C 16.667969 40 17.550781 40.394531 18.550781 40.894531 C 19.550781 41.394531 20.667969 42 22 42 C 23.332031 42 24.449219 41.394531 25.449219 40.894531 C 26.449219 40.394531 27.332031 40 28 40 C 28.667969 40 29.550781 40.394531 30.550781 40.894531 C 31.550781 41.394531 32.667969 42 34 42 C 35.332031 42 36.449219 41.394531 37.449219 40.894531 C 38.449219 40.394531 39.332031 40 40 40 C 40.667969 40 41.550781 40.394531 42.550781 40.894531 C 43.550781 41.394531 44.667969 42 46 42 C 47.332031 42 48.449219 41.394531 49.449219 40.894531 C 50.449219 40.394531 51.332031 40 52 40 C 52.667969 40 53.550781 40.394531 54.550781 40.894531 C 55.550781 41.394531 56.667969 42 58 42 C 59.332031 42 60.449219 41.394531 61.449219 40.894531 C 62.449219 40.394531 63.332031 40 64 40 C 64.667969 40 65.550781 40.394531 66.550781 40.894531 C 67.550781 41.394531 68.667969 42 70 42 C 70.359375 42.003906 70.695313 41.816406 70.878906 41.503906 C 71.058594 41.191406 71.058594 40.808594 70.878906 40.496094 C 70.695313 40.183594 70.359375 39.996094 70 40 C 69.332031 40 68.449219 39.605469 67.449219 39.105469 C 66.449219 38.605469 65.332031 38 64 38 C 62.667969 38 61.550781 38.605469 60.550781 39.105469 C 59.550781 39.605469 58.667969 40 58 40 C 57.332031 40 56.449219 39.605469 55.449219 39.105469 C 54.449219 38.605469 53.332031 38 52 38 C 50.667969 38 49.550781 38.605469 48.550781 39.105469 C 47.550781 39.605469 46.667969 40 46 40 C 45.707031 40 45.367188 39.914063 45 39.785156 L 45 23 C 45 16.9375 40.0625 12 34 12 L 31.09375 12 C 30.550781 11.429688 29.851563 11 29 11 Z M 27 13 L 29 13 C 29.375 13 29.683594 13.199219 29.859375 13.5 L 30.148438 14 L 34 14 C 38.984375 14 43 18.015625 43 23 L 43 31 C 42.449219 31 42 31.449219 42 32 C 42 32.550781 42.449219 33 43 33 L 43 38.886719 C 42.113281 38.445313 41.140625 38 40 38 C 38.859375 38 37.886719 38.445313 37 38.886719 L 37 23 C 37 21.355469 35.644531 20 34 20 L 30.148438 20 L 29.859375 20.496094 C 29.679688 20.800781 29.371094 21 29 21 L 27 21 C 26.433594 21 26 20.566406 26 20 L 26 14 C 26 13.433594 26.433594 13 27 13 Z M 31 16 C 30.449219 16 30 16.449219 30 17 C 30 17.550781 30.449219 18 31 18 C 31.550781 18 32 17.550781 32 17 C 32 16.449219 31.550781 16 31 16 Z M 39 31 C 38.449219 31 38 31.449219 38 32 C 38 32.550781 38.449219 33 39 33 C 39.550781 33 40 32.550781 40 32 C 40 31.449219 39.550781 31 39 31 Z M 6 40 C 5.449219 40 5 40.449219 5 41 C 5 41.550781 5.449219 42 6 42 C 6.550781 42 7 41.550781 7 41 C 7 40.449219 6.550781 40 6 40 Z M 74 40 C 73.449219 40 73 40.449219 73 41 C 73 41.550781 73.449219 42 74 42 C 74.550781 42 75 41.550781 75 41 C 75 40.449219 74.550781 40 74 40 Z M 36 44 C 35.449219 44 35 44.449219 35 45 C 35 45.550781 35.449219 46 36 46 C 36.550781 46 37 45.550781 37 45 C 37 44.449219 36.550781 44 36 44 Z M 44 44 C 43.449219 44 43 44.449219 43 45 C 43 45.550781 43.449219 46 44 46 C 44.550781 46 45 45.550781 45 45 C 45 44.449219 44.550781 44 44 44 Z M 36 48 C 35.449219 48 35 48.449219 35 49 C 35 49.550781 35.449219 50 36 50 C 36.550781 50 37 49.550781 37 49 C 37 48.449219 36.550781 48 36 48 Z M 44 48 C 43.449219 48 43 48.449219 43 49 C 43 49.550781 43.449219 50 44 50 C 44.550781 50 45 49.550781 45 49 C 45 48.449219 44.550781 48 44 48 Z M 35.984375 51.984375 C 35.433594 51.996094 34.992188 52.449219 35 53 L 35 55 L 30 55 C 27.800781 55 26 56.800781 26 59 L 26 60 L 15 60 C 13.355469 60 12 61.355469 12 63 L 12 64 L 12.417969 64 C 12.859375 65.105469 13.742188 66 15 66 L 26 66 L 26 67 C 26 69.199219 27.800781 71 30 71 L 50 71 C 52.199219 71 54 69.199219 54 67 L 54 66 L 65 66 C 66.257813 66 67.140625 65.105469 67.582031 64 L 68 64 L 68 63 C 68 61.355469 66.644531 60 65 60 L 54 60 L 54 59 C 54 56.800781 52.199219 55 50 55 L 45 55 L 45 53 C 45.003906 52.730469 44.898438 52.46875 44.707031 52.277344 C 44.515625 52.085938 44.253906 51.980469 43.984375 51.984375 C 43.433594 51.996094 42.992188 52.449219 43 53 L 43 55 L 37 55 L 37 53 C 37.003906 52.730469 36.898438 52.46875 36.707031 52.277344 C 36.515625 52.085938 36.253906 51.980469 35.984375 51.984375 Z M 30 57 L 35.832031 57 C 35.941406 57.019531 36.050781 57.019531 36.15625 57 L 43.832031 57 C 43.941406 57.019531 44.050781 57.019531 44.15625 57 L 50 57 C 51.117188 57 52 57.882813 52 59 L 52 67 C 52 68.117188 51.117188 69 50 69 L 30 69 C 28.882813 69 28 68.117188 28 67 L 28 59 C 28 57.882813 28.882813 57 30 57 Z M 34 59 C 31.800781 59 30 60.800781 30 63 C 30 65.199219 31.800781 67 34 67 C 36.199219 67 38 65.199219 38 63 C 38 60.800781 36.199219 59 34 59 Z M 46 59 C 43.800781 59 42 60.800781 42 63 C 42 65.199219 43.800781 67 46 67 C 48.199219 67 50 65.199219 50 63 C 50 60.800781 48.199219 59 46 59 Z M 34 61 C 35.117188 61 36 61.882813 36 63 C 36 64.117188 35.117188 65 34 65 C 32.882813 65 32 64.117188 32 63 C 32 61.882813 32.882813 61 34 61 Z M 46 61 C 47.117188 61 48 61.882813 48 63 C 48 64.117188 47.117188 65 46 65 C 44.882813 65 44 64.117188 44 63 C 44 61.882813 44.882813 61 46 61 Z M 15 62 L 26 62 L 26 64 L 15 64 C 14.433594 64 14 63.566406 14 63 C 14 62.433594 14.433594 62 15 62 Z M 54 62 L 65 62 C 65.566406 62 66 62.433594 66 63 C 66 63.566406 65.566406 64 65 64 L 54 64 Z"/></svg>