<svg fill="#000000" xmlns="http://www.w3.org/2000/svg"  viewBox="0 0 80 80" width="80px" height="80px"><path d="M 28 12 L 28 49 L 11 49 C 9.355469 49 8 50.355469 8 52 C 8 53.257813 8.894531 54.140625 10 54.582031 L 10 56.617188 L 10.550781 56.894531 C 10.550781 56.894531 15.171875 59.359375 16.664063 63.054688 C 16.449219 63.023438 16.226563 63 16 63 C 14.667969 63 13.550781 63.605469 12.550781 64.105469 C 11.550781 64.605469 10.667969 65 10 65 C 9.640625 64.996094 9.304688 65.183594 9.121094 65.496094 C 8.941406 65.808594 8.941406 66.191406 9.121094 66.503906 C 9.304688 66.816406 9.640625 67.003906 10 67 C 11.332031 67 12.449219 66.394531 13.449219 65.894531 C 14.449219 65.394531 15.332031 65 16 65 C 16.667969 65 17.550781 65.394531 18.550781 65.894531 C 19.550781 66.394531 20.667969 67 22 67 C 23.332031 67 24.449219 66.394531 25.449219 65.894531 C 26.449219 65.394531 27.332031 65 28 65 C 28.667969 65 29.550781 65.394531 30.550781 65.894531 C 31.550781 66.394531 32.667969 67 34 67 C 35.332031 67 36.449219 66.394531 37.449219 65.894531 C 38.449219 65.394531 39.332031 65 40 65 C 40.667969 65 41.550781 65.394531 42.550781 65.894531 C 43.550781 66.394531 44.667969 67 46 67 C 47.332031 67 48.449219 66.394531 49.449219 65.894531 C 50.449219 65.394531 51.332031 65 52 65 C 52.667969 65 53.550781 65.394531 54.550781 65.894531 C 55.550781 66.394531 56.667969 67 58 67 C 59.332031 67 60.449219 66.394531 61.449219 65.894531 C 62.449219 65.394531 63.332031 65 64 65 C 64.667969 65 65.550781 65.394531 66.550781 65.894531 C 67.550781 66.394531 68.667969 67 70 67 C 70.359375 67.003906 70.695313 66.816406 70.878906 66.503906 C 71.058594 66.191406 71.058594 65.808594 70.878906 65.496094 C 70.695313 65.183594 70.359375 64.996094 70 65 C 69.332031 65 68.449219 64.605469 67.449219 64.105469 C 66.449219 63.605469 65.332031 63 64 63 C 62.667969 63 61.550781 63.605469 60.550781 64.105469 C 59.550781 64.605469 58.667969 65 58 65 C 57.332031 65 56.449219 64.605469 55.449219 64.105469 C 55.226563 63.996094 54.996094 63.878906 54.761719 63.765625 C 56.8125 62.304688 60.324219 59.398438 62.949219 55 L 63 55 C 64.644531 55 66 53.644531 66 52 C 66 50.355469 64.644531 49 63 49 L 30 49 L 30 46 L 54.078125 46 L 54 44.925781 C 53.40625 36.820313 47.675781 30.386719 42.207031 25.96875 C 36.742188 21.550781 31.421875 19.09375 31.421875 19.09375 L 31.21875 19 L 30 19 L 30 16.597656 C 36.078125 17.984375 36.808594 13.269531 42 12 C 35 12 34 16 28 12 Z M 31.921875 21.625 C 33.445313 22.390625 36.796875 24.164063 40.953125 27.523438 C 45.9375 31.550781 50.800781 37.253906 51.75 44 L 32.609375 44 C 33.5 42.390625 35 39.265625 35 34.390625 C 35 28.265625 33.050781 23.875 31.921875 21.625 Z M 30 22.042969 C 31.101563 24.375 33 29.128906 33 34.390625 C 33 40.207031 30.171875 44.441406 30.171875 44.441406 L 30 44.699219 Z M 11 51 L 28.832031 51 C 28.941406 51.019531 29.050781 51.019531 29.15625 51 L 63 51 C 63.566406 51 64 51.433594 64 52 C 64 52.566406 63.566406 53 63 53 L 61.855469 53 L 61.566406 53.511719 C 58.144531 59.621094 52.746094 62.75 52.277344 63.015625 C 52.183594 63.011719 52.09375 63 52 63 C 50.667969 63 49.550781 63.605469 48.550781 64.105469 C 47.550781 64.605469 46.667969 65 46 65 C 45.332031 65 44.449219 64.605469 43.449219 64.105469 C 42.449219 63.605469 41.332031 63 40 63 C 38.667969 63 37.550781 63.605469 36.550781 64.105469 C 35.550781 64.605469 34.667969 65 34 65 C 33.332031 65 32.449219 64.605469 31.449219 64.105469 C 30.449219 63.605469 29.332031 63 28 63 C 26.667969 63 25.550781 63.605469 24.550781 64.105469 C 23.550781 64.605469 22.667969 65 22 65 C 21.332031 65 20.449219 64.605469 19.449219 64.105469 C 19.300781 64.03125 19.144531 63.957031 18.996094 63.878906 C 18.992188 63.855469 18.984375 63.828125 18.980469 63.804688 C 17.9375 58.597656 12.898438 55.929688 12 55.472656 L 12 53 L 11 53 C 10.433594 53 10 52.566406 10 52 C 10 51.433594 10.433594 51 11 51 Z M 15 53 C 14.449219 53 14 53.449219 14 54 C 14 54.550781 14.449219 55 15 55 C 15.550781 55 16 54.550781 16 54 C 16 53.449219 15.550781 53 15 53 Z M 19 53 C 18.449219 53 18 53.449219 18 54 C 18 54.550781 18.449219 55 19 55 C 19.550781 55 20 54.550781 20 54 C 20 53.449219 19.550781 53 19 53 Z M 23 53 C 22.449219 53 22 53.449219 22 54 C 22 54.550781 22.449219 55 23 55 C 23.550781 55 24 54.550781 24 54 C 24 53.449219 23.550781 53 23 53 Z M 27 53 C 26.449219 53 26 53.449219 26 54 C 26 54.550781 26.449219 55 27 55 C 27.550781 55 28 54.550781 28 54 C 28 53.449219 27.550781 53 27 53 Z M 31 53 C 30.449219 53 30 53.449219 30 54 C 30 54.550781 30.449219 55 31 55 C 31.550781 55 32 54.550781 32 54 C 32 53.449219 31.550781 53 31 53 Z M 35 53 C 34.449219 53 34 53.449219 34 54 C 34 54.550781 34.449219 55 35 55 C 35.550781 55 36 54.550781 36 54 C 36 53.449219 35.550781 53 35 53 Z M 39 53 C 38.449219 53 38 53.449219 38 54 C 38 54.550781 38.449219 55 39 55 C 39.550781 55 40 54.550781 40 54 C 40 53.449219 39.550781 53 39 53 Z M 43 53 C 42.449219 53 42 53.449219 42 54 C 42 54.550781 42.449219 55 43 55 C 43.550781 55 44 54.550781 44 54 C 44 53.449219 43.550781 53 43 53 Z M 47 53 C 46.449219 53 46 53.449219 46 54 C 46 54.550781 46.449219 55 47 55 C 47.550781 55 48 54.550781 48 54 C 48 53.449219 47.550781 53 47 53 Z M 51 53 C 50.449219 53 50 53.449219 50 54 C 50 54.550781 50.449219 55 51 55 C 51.550781 55 52 54.550781 52 54 C 52 53.449219 51.550781 53 51 53 Z M 55 53 C 54.449219 53 54 53.449219 54 54 C 54 54.550781 54.449219 55 55 55 C 55.550781 55 56 54.550781 56 54 C 56 53.449219 55.550781 53 55 53 Z M 59 53 C 58.449219 53 58 53.449219 58 54 C 58 54.550781 58.449219 55 59 55 C 59.550781 55 60 54.550781 60 54 C 60 53.449219 59.550781 53 59 53 Z M 6 65 C 5.449219 65 5 65.449219 5 66 C 5 66.550781 5.449219 67 6 67 C 6.550781 67 7 66.550781 7 66 C 7 65.449219 6.550781 65 6 65 Z M 74 65 C 73.449219 65 73 65.449219 73 66 C 73 66.550781 73.449219 67 74 67 C 74.550781 67 75 66.550781 75 66 C 75 65.449219 74.550781 65 74 65 Z"/></svg>