<svg fill="#000000" xmlns="http://www.w3.org/2000/svg"  viewBox="0 0 80 80" width="80px" height="80px"><path d="M 32.367188 11 L 32.136719 11.679688 C 32.136719 11.679688 26.128906 29.433594 9.335938 44.25 L 7.355469 46 L 33 46 L 33 49 L 11 49 C 9.355469 49 8 50.355469 8 52 C 8 53.257813 8.894531 54.140625 10 54.582031 L 10 56.617188 L 10.550781 56.894531 C 10.550781 56.894531 15.171875 59.359375 16.664063 63.054688 C 16.449219 63.023438 16.226563 63 16 63 C 14.667969 63 13.550781 63.605469 12.550781 64.105469 C 11.550781 64.605469 10.667969 65 10 65 C 9.640625 64.996094 9.304688 65.183594 9.121094 65.496094 C 8.941406 65.808594 8.941406 66.191406 9.121094 66.503906 C 9.304688 66.816406 9.640625 67.003906 10 67 C 11.332031 67 12.449219 66.394531 13.449219 65.894531 C 14.449219 65.394531 15.332031 65 16 65 C 16.667969 65 17.550781 65.394531 18.550781 65.894531 C 19.550781 66.394531 20.667969 67 22 67 C 23.332031 67 24.449219 66.394531 25.449219 65.894531 C 26.449219 65.394531 27.332031 65 28 65 C 28.667969 65 29.550781 65.394531 30.550781 65.894531 C 31.550781 66.394531 32.667969 67 34 67 C 35.332031 67 36.449219 66.394531 37.449219 65.894531 C 38.449219 65.394531 39.332031 65 40 65 C 40.667969 65 41.550781 65.394531 42.550781 65.894531 C 43.550781 66.394531 44.667969 67 46 67 C 47.332031 67 48.449219 66.394531 49.449219 65.894531 C 50.449219 65.394531 51.332031 65 52 65 C 52.667969 65 53.550781 65.394531 54.550781 65.894531 C 55.550781 66.394531 56.667969 67 58 67 C 59.332031 67 60.449219 66.394531 61.449219 65.894531 C 62.449219 65.394531 63.332031 65 64 65 C 64.667969 65 65.550781 65.394531 66.550781 65.894531 C 67.550781 66.394531 68.667969 67 70 67 C 70.359375 67.003906 70.695313 66.816406 70.878906 66.503906 C 71.058594 66.191406 71.058594 65.808594 70.878906 65.496094 C 70.695313 65.183594 70.359375 64.996094 70 65 C 69.332031 65 68.449219 64.605469 67.449219 64.105469 C 66.449219 63.605469 65.332031 63 64 63 C 62.667969 63 61.550781 63.605469 60.550781 64.105469 C 59.550781 64.605469 58.667969 65 58 65 C 57.652344 65 57.246094 64.890625 56.796875 64.71875 C 58.921875 63.175781 63.097656 59.777344 65.949219 55 L 66 55 C 67.644531 55 69 53.644531 69 52 C 69 50.355469 67.644531 49 66 49 L 35 49 L 35 11 Z M 36.484375 11 L 37.1875 12.4375 C 37.1875 12.4375 40 18.1875 40 28.390625 C 40 38.8125 37.105469 44.550781 37.105469 44.550781 L 36.382813 46 L 61.144531 46 L 60.988281 44.863281 C 57.925781 22.378906 39.519531 11.144531 39.519531 11.144531 L 39.28125 11 Z M 39.730469 13.753906 C 42.800781 15.847656 55.734375 25.644531 58.75 44 L 39.394531 44 C 40.101563 42.34375 42 37.445313 42 28.390625 C 42 20.421875 40.574219 15.988281 39.730469 13.753906 Z M 33 14.90625 L 33 44 L 12.457031 44 C 24.789063 32.417969 30.894531 19.960938 33 14.90625 Z M 11 51 L 33.832031 51 C 33.941406 51.019531 34.050781 51.019531 34.15625 51 L 66 51 C 66.566406 51 67 51.433594 67 52 C 67 52.566406 66.566406 53 66 53 L 64.855469 53 L 64.566406 53.511719 C 61.257813 59.417969 55.542969 63.199219 54.703125 63.734375 C 53.898438 63.347656 53.011719 63 52 63 C 50.667969 63 49.550781 63.605469 48.550781 64.105469 C 47.550781 64.605469 46.667969 65 46 65 C 45.332031 65 44.449219 64.605469 43.449219 64.105469 C 42.449219 63.605469 41.332031 63 40 63 C 38.667969 63 37.550781 63.605469 36.550781 64.105469 C 35.550781 64.605469 34.667969 65 34 65 C 33.332031 65 32.449219 64.605469 31.449219 64.105469 C 30.449219 63.605469 29.332031 63 28 63 C 26.667969 63 25.550781 63.605469 24.550781 64.105469 C 23.550781 64.605469 22.667969 65 22 65 C 21.332031 65 20.449219 64.605469 19.449219 64.105469 C 19.300781 64.03125 19.144531 63.957031 18.996094 63.878906 C 18.992188 63.855469 18.984375 63.828125 18.980469 63.804688 C 17.9375 58.597656 12.898438 55.929688 12 55.472656 L 12 53 L 11 53 C 10.433594 53 10 52.566406 10 52 C 10 51.433594 10.433594 51 11 51 Z M 14 53 C 13.449219 53 13 53.449219 13 54 C 13 54.550781 13.449219 55 14 55 C 14.550781 55 15 54.550781 15 54 C 15 53.449219 14.550781 53 14 53 Z M 18 53 C 17.449219 53 17 53.449219 17 54 C 17 54.550781 17.449219 55 18 55 C 18.550781 55 19 54.550781 19 54 C 19 53.449219 18.550781 53 18 53 Z M 22 53 C 21.449219 53 21 53.449219 21 54 C 21 54.550781 21.449219 55 22 55 C 22.550781 55 23 54.550781 23 54 C 23 53.449219 22.550781 53 22 53 Z M 26 53 C 25.449219 53 25 53.449219 25 54 C 25 54.550781 25.449219 55 26 55 C 26.550781 55 27 54.550781 27 54 C 27 53.449219 26.550781 53 26 53 Z M 30 53 C 29.449219 53 29 53.449219 29 54 C 29 54.550781 29.449219 55 30 55 C 30.550781 55 31 54.550781 31 54 C 31 53.449219 30.550781 53 30 53 Z M 34 53 C 33.449219 53 33 53.449219 33 54 C 33 54.550781 33.449219 55 34 55 C 34.550781 55 35 54.550781 35 54 C 35 53.449219 34.550781 53 34 53 Z M 38 53 C 37.449219 53 37 53.449219 37 54 C 37 54.550781 37.449219 55 38 55 C 38.550781 55 39 54.550781 39 54 C 39 53.449219 38.550781 53 38 53 Z M 42 53 C 41.449219 53 41 53.449219 41 54 C 41 54.550781 41.449219 55 42 55 C 42.550781 55 43 54.550781 43 54 C 43 53.449219 42.550781 53 42 53 Z M 46 53 C 45.449219 53 45 53.449219 45 54 C 45 54.550781 45.449219 55 46 55 C 46.550781 55 47 54.550781 47 54 C 47 53.449219 46.550781 53 46 53 Z M 50 53 C 49.449219 53 49 53.449219 49 54 C 49 54.550781 49.449219 55 50 55 C 50.550781 55 51 54.550781 51 54 C 51 53.449219 50.550781 53 50 53 Z M 54 53 C 53.449219 53 53 53.449219 53 54 C 53 54.550781 53.449219 55 54 55 C 54.550781 55 55 54.550781 55 54 C 55 53.449219 54.550781 53 54 53 Z M 58 53 C 57.449219 53 57 53.449219 57 54 C 57 54.550781 57.449219 55 58 55 C 58.550781 55 59 54.550781 59 54 C 59 53.449219 58.550781 53 58 53 Z M 62 53 C 61.449219 53 61 53.449219 61 54 C 61 54.550781 61.449219 55 62 55 C 62.550781 55 63 54.550781 63 54 C 63 53.449219 62.550781 53 62 53 Z M 6 65 C 5.449219 65 5 65.449219 5 66 C 5 66.550781 5.449219 67 6 67 C 6.550781 67 7 66.550781 7 66 C 7 65.449219 6.550781 65 6 65 Z M 74 65 C 73.449219 65 73 65.449219 73 66 C 73 66.550781 73.449219 67 74 67 C 74.550781 67 75 66.550781 75 66 C 75 65.449219 74.550781 65 74 65 Z"/></svg>