<?xml version="1.0" encoding="iso-8859-1"?>
<!-- Uploaded to: SVG Repo, www.svgrepo.com, Generator: SVG Repo Mixer Tools -->
<!DOCTYPE svg PUBLIC "-//W3C//DTD SVG 1.1//EN" "http://www.w3.org/Graphics/SVG/1.1/DTD/svg11.dtd">
<svg fill="#000000" height="800px" width="800px" version="1.1" id="Capa_1" xmlns="http://www.w3.org/2000/svg" xmlns:xlink="http://www.w3.org/1999/xlink" 
	 viewBox="0 0 293.501 293.501" xml:space="preserve">
<path d="M287.022,259.652l-43.031,29.778c-2.505,1.729-5.478,2.803-8.521,2.803H40.5c-4.375,0-8.531-2.058-11.382-5.377
	l-25.5-29.852c-3.816-4.446-4.695-10.708-2.248-16.033c2.446-5.325,7.77-8.737,13.63-8.737h263.5c6.565,0,12.367,4.27,14.32,10.537
	C294.775,249.038,292.424,255.923,287.022,259.652z M146.75,213.234h120.06c5.522,0,10.598-3.284,13.212-8.148
	c2.615-4.864,2.346-10.896-0.701-15.502L159.261,8.021c-3.652-5.521-10.661-8.026-16.999-6.12
	c-6.339,1.907-10.845,7.713-10.845,14.333v181.5C131.417,206.018,138.466,213.234,146.75,213.234z M26.691,213.234h58.682
	c8.284,0,15.045-7.216,15.045-15.5V36.078c0-7.282-5.252-13.512-12.424-14.773c-7.167-1.258-14.225,2.811-16.709,9.655
	L12.597,192.615c-1.669,4.598-0.994,9.971,1.814,13.977C17.217,210.599,21.799,213.234,26.691,213.234z"/>
</svg>