<svg fill="#000000" xmlns="http://www.w3.org/2000/svg"  viewBox="0 0 80 80" width="80px" height="80px"><path d="M 29 10 L 29 12 L 31 12 L 31 10 Z M 32 10 L 32 12 C 32.566406 12 33 12.433594 33 13 L 33 23 L 27 23 C 25.355469 23 24 24.355469 24 26 L 24 33 L 16 33 C 8.28125 33 2 39.28125 2 47 C 2 54.71875 8.28125 61 16 61 L 53 61 C 54.328125 61 55.589844 60.703125 56.71875 60.1875 L 67.183594 55.636719 L 70.078125 62.394531 C 70.238281 62.761719 70.601563 63 71 63 L 75 63 C 75.550781 63 76 62.550781 76 62 L 76 51.296875 C 77.203125 50.230469 78 48.734375 78 47 C 78 45.234375 77.21875 43.660156 76 42.5625 L 76 32 C 76 31.449219 75.550781 31 75 31 L 71 31 C 70.601563 31 70.238281 31.238281 70.078125 31.605469 L 67.203125 38.316406 L 57.429688 33.96875 L 57.496094 34 C 56.304688 33.363281 54.941406 33 53.5 33 C 53.355469 33 53.261719 33.007813 53.167969 33.015625 C 53.113281 33.003906 53.054688 33 53 33 L 45.90625 33 L 43.503906 25.125 C 43.121094 23.863281 41.949219 23 40.636719 23 L 35 23 L 35 13 C 35 11.355469 33.644531 10 32 10 Z M 27 25 L 40.636719 25 C 41.078125 25 41.460938 25.285156 41.589844 25.707031 L 44.210938 34.292969 C 44.339844 34.714844 44.726563 35 45.167969 35 L 52.894531 35 L 52.890625 35 C 52.976563 35.015625 53.0625 35.023438 53.148438 35.019531 C 53.3125 35.011719 53.425781 35 53.5 35 C 54.605469 35 55.640625 35.277344 56.550781 35.765625 C 56.574219 35.773438 56.59375 35.785156 56.617188 35.796875 L 73.40625 43.265625 C 73.421875 43.273438 73.4375 43.277344 73.453125 43.28125 C 73.8125 43.425781 74.144531 43.617188 74.449219 43.847656 C 75.390625 44.574219 76 45.707031 76 47 C 76 48.648438 75.011719 50.042969 73.597656 50.660156 C 73.59375 50.664063 73.585938 50.667969 73.582031 50.671875 C 73.570313 50.675781 73.5625 50.679688 73.554688 50.683594 C 73.21875 50.851563 73.003906 51.195313 73 51.570313 L 73 50.921875 L 55.914063 58.359375 C 55.910156 58.359375 55.902344 58.363281 55.898438 58.363281 C 55.011719 58.769531 54.035156 59 53 59 L 16 59 C 9.359375 59 4 53.640625 4 47 C 4 40.359375 9.359375 35 16 35 L 25 35 C 25.550781 35 26 34.550781 26 34 L 26 26 C 26 25.433594 26.433594 25 27 25 Z M 29 33 C 28.449219 33 28 33.449219 28 34 C 28 34.550781 28.449219 35 29 35 C 29.550781 35 30 34.550781 30 34 C 30 33.449219 29.550781 33 29 33 Z M 33 33 C 32.449219 33 32 33.449219 32 34 C 32 34.550781 32.449219 35 33 35 C 33.550781 35 34 34.550781 34 34 C 34 33.449219 33.550781 33 33 33 Z M 37 33 C 36.449219 33 36 33.449219 36 34 C 36 34.550781 36.449219 35 37 35 C 37.550781 35 38 34.550781 38 34 C 38 33.449219 37.550781 33 37 33 Z M 41 33 C 40.449219 33 40 33.449219 40 34 C 40 34.550781 40.449219 35 41 35 C 41.550781 35 42 34.550781 42 34 C 42 33.449219 41.550781 33 41 33 Z M 71.660156 33 L 74 33 L 74 41.339844 L 69.03125 39.128906 Z M 6 46 C 5.449219 46 5 46.449219 5 47 C 5 47.550781 5.449219 48 6 48 C 6.550781 48 7 47.550781 7 47 C 7 46.449219 6.550781 46 6 46 Z M 10 46 C 9.449219 46 9 46.449219 9 47 C 9 47.550781 9.449219 48 10 48 C 10.550781 48 11 47.550781 11 47 C 11 46.449219 10.550781 46 10 46 Z M 14 46 C 13.449219 46 13 46.449219 13 47 C 13 47.550781 13.449219 48 14 48 C 14.550781 48 15 47.550781 15 47 C 15 46.449219 14.550781 46 14 46 Z M 18 46 C 17.449219 46 17 46.449219 17 47 C 17 47.550781 17.449219 48 18 48 C 18.550781 48 19 47.550781 19 47 C 19 46.449219 18.550781 46 18 46 Z M 22 46 C 21.449219 46 21 46.449219 21 47 C 21 47.550781 21.449219 48 22 48 C 22.550781 48 23 47.550781 23 47 C 23 46.449219 22.550781 46 22 46 Z M 26 46 C 25.449219 46 25 46.449219 25 47 C 25 47.550781 25.449219 48 26 48 C 26.550781 48 27 47.550781 27 47 C 27 46.449219 26.550781 46 26 46 Z M 30 46 C 29.449219 46 29 46.449219 29 47 C 29 47.550781 29.449219 48 30 48 C 30.550781 48 31 47.550781 31 47 C 31 46.449219 30.550781 46 30 46 Z M 34 46 C 33.449219 46 33 46.449219 33 47 C 33 47.550781 33.449219 48 34 48 C 34.550781 48 35 47.550781 35 47 C 35 46.449219 34.550781 46 34 46 Z M 38 46 C 37.449219 46 37 46.449219 37 47 C 37 47.550781 37.449219 48 38 48 C 38.550781 48 39 47.550781 39 47 C 39 46.449219 38.550781 46 38 46 Z M 42 46 C 41.449219 46 41 46.449219 41 47 C 41 47.550781 41.449219 48 42 48 C 42.550781 48 43 47.550781 43 47 C 43 46.449219 42.550781 46 42 46 Z M 46 46 C 45.449219 46 45 46.449219 45 47 C 45 47.550781 45.449219 48 46 48 C 46.550781 48 47 47.550781 47 47 C 47 46.449219 46.550781 46 46 46 Z M 50 46 C 49.449219 46 49 46.449219 49 47 C 49 47.550781 49.449219 48 50 48 C 50.550781 48 51 47.550781 51 47 C 51 46.449219 50.550781 46 50 46 Z M 54 46 C 53.449219 46 53 46.449219 53 47 C 53 47.550781 53.449219 48 54 48 C 54.550781 48 55 47.550781 55 47 C 55 46.449219 54.550781 46 54 46 Z M 58 46 C 57.449219 46 57 46.449219 57 47 C 57 47.550781 57.449219 48 58 48 C 58.550781 48 59 47.550781 59 47 C 59 46.449219 58.550781 46 58 46 Z M 62 46 C 61.449219 46 61 46.449219 61 47 C 61 47.550781 61.449219 48 62 48 C 62.550781 48 63 47.550781 63 47 C 63 46.449219 62.550781 46 62 46 Z M 66 46 C 65.449219 46 65 46.449219 65 47 C 65 47.550781 65.449219 48 66 48 C 66.550781 48 67 47.550781 67 47 C 67 46.449219 66.550781 46 66 46 Z M 70 46 C 69.449219 46 69 46.449219 69 47 C 69 47.550781 69.449219 48 70 48 C 70.550781 48 71 47.550781 71 47 C 71 46.449219 70.550781 46 70 46 Z M 74 46 C 73.449219 46 73 46.449219 73 47 C 73 47.550781 73.449219 48 74 48 C 74.550781 48 75 47.550781 75 47 C 75 46.449219 74.550781 46 74 46 Z M 74 52.671875 L 74 61 L 71.660156 61 L 69.019531 54.839844 Z"/></svg>