<?xml version="1.0" encoding="iso-8859-1"?>
<!-- Uploaded to: SVG Repo, www.svgrepo.com, Generator: SVG Repo Mixer Tools -->
<!DOCTYPE svg PUBLIC "-//W3C//DTD SVG 1.1//EN" "http://www.w3.org/Graphics/SVG/1.1/DTD/svg11.dtd">
<svg fill="#000000" height="800px" width="800px" version="1.1" id="Capa_1" xmlns="http://www.w3.org/2000/svg" xmlns:xlink="http://www.w3.org/1999/xlink" 
	 viewBox="0 0 482 482" xml:space="preserve">
<g>
	<path d="M411.413,70.587C365.894,25.068,305.374,0,241,0S116.106,25.068,70.587,70.587C25.068,116.105,0,176.626,0,241
		s25.068,124.895,70.587,170.413C116.106,456.932,176.626,482,241,482s124.894-25.068,170.413-70.587
		C456.932,365.894,482,305.374,482,241S456.932,116.106,411.413,70.587z M241,462c-121.86,0-221-99.141-221-221S119.14,20,241,20
		s221,99.141,221,221S362.86,462,241,462z"/>
	<path d="M241.01,75.11c-90.88,0-164.8,73.93-164.8,164.82v0.73v0.01c0,10.32,1.04,20.42,2.91,30.22c0,0.01,0,0.02,0.01,0.03
		c-0.01,0.01,0,0.01,0,0.01c3.7,19.37,10.79,37.54,20.65,53.88c0.01,0,0.01,0.01,0.01,0.01c1.61,2.68,3.29,5.31,5.05,7.89
		c0.01,0.01,0.01,0.02,0.02,0.03c2.34,3.42,4.8,6.74,7.38,9.97c3.6,4.5,7.42,8.8,11.47,12.9c0.01,0.01,0.03,0.02,0.04,0.03
		c29.89,30.3,71.42,49.1,117.25,49.1c44.7,0,85.3-17.88,115.01-46.87c0.01,0,0.02-0.02,0.02-0.02
		c2.663-2.596,5.234-5.286,7.718-8.057c1.872-1.9,3.63-3.945,5.257-6.123c0.138-0.184,0.268-0.375,0.404-0.56
		c0.305-0.379,0.621-0.748,0.922-1.13c3.51-4.43,6.8-9.06,9.85-13.85c0.9-1.42,1.79-2.86,2.65-4.31
		c6.95-11.71,12.49-24.34,16.39-37.67c2.63-8.97,4.51-18.25,5.57-27.78c0.68-6.06,1.04-12.21,1.04-18.44
		C405.83,149.04,331.89,75.11,241.01,75.11z M162.898,267.784c10.501,13.77,26.343,22.242,43.34,22.242
		c16.998,0,32.842-8.473,43.342-22.245c10.5,13.772,26.344,22.245,43.343,22.245c17,0,32.845-8.475,43.345-22.249
		c0.001,0.001,0.002,0.003,0.003,0.004c9.93,13.05,24.67,21.33,40.64,22.18c-3.052,8.275-6.844,16.191-11.292,23.677
		c-3.908,7.614-10.051,14.734-10.159,14.908c-2.435,3.138-5,6.171-7.682,9.097c-0.121,0.105-0.238,0.215-0.361,0.318
		c-0.235,0.2-0.47,0.4-0.715,0.59c-0.215,0.17-0.431,0.34-0.646,0.5c-0.323,0.26-0.656,0.5-0.989,0.73
		c-0.294,0.22-0.588,0.42-0.882,0.62c-0.264,0.17-0.529,0.35-0.793,0.51c-0.284,0.18-0.578,0.36-0.872,0.53
		c-0.255,0.15-0.509,0.3-0.774,0.44c0,0,0,0.01-0.01,0.01c-4.672,2.59-9.854,4.02-15.192,4.02c-14.467,0-27.729-10.48-33.009-26.09
		c-1.404-4.152-5.221-6.755-9.301-6.737c-0.028-0.001-0.056-0.001-0.084-0.002c-0.019,0-0.038-0.002-0.057-0.001
		c-0.023,0-0.046,0.003-0.068,0.004c-4.108-0.052-7.968,2.551-9.381,6.733c-5.275,15.61-18.54,26.098-33.007,26.098
		c-14.468,0-27.732-10.487-33.007-26.098c-1.415-4.188-5.284-6.834-9.399-6.774c-0.016,0-0.032-0.042-0.049-0.042
		c-0.014,0-0.029,0-0.043,0c-0.035,0-0.07,0.041-0.104,0.043c-4.078-0.025-7.911,2.597-9.314,6.757
		c-5.279,15.61-18.561,26.1-33.028,26.1c-6.337,0-18.076-5.611-18.106-5.641c-0.029-0.01-9.876-7.259-22.114-26.968
		c-4.681-7.952-8.797-16.356-11.922-25.181c4.67,1.27,9.68,1.92,15,1.92C136.549,290.03,152.398,281.562,162.898,267.784z
		 M167.536,364.686c0.391-0.087,0.785-0.159,1.173-0.256c11.969-2.99,22.724-10.36,30.472-20.76c0,0,0.001-0.001,0.001-0.002
		c10.285,13.773,25.804,22.246,42.454,22.246c16.65,0,32.169-8.474,42.454-22.247c0.001,0.001,0.001,0.002,0.002,0.003
		c7.581,10.18,18.052,17.46,29.718,20.57c0.335,0.089,0.677,0.153,1.014,0.234C293.193,377.336,267.943,384.74,241,384.74
		C214.204,384.74,189.088,377.414,167.536,364.686z M382.7,269.87c-1.02,0.11-2.05,0.16-3.09,0.16c-14.77,0-28.32-10.49-33.7-26.1
		c-1.319-3.814-4.727-6.305-8.501-6.651c-0.046-0.006-0.091-0.01-0.137-0.016c-0.128-0.01-0.253-0.039-0.382-0.043
		c-0.084-0.009-0.174-0.006-0.261-0.009c-4.352-0.244-8.516,2.391-10.009,6.716c-5.386,15.609-18.929,26.098-33.699,26.098
		c-14.771,0-28.313-10.487-33.699-26.098c-1.43-4.144-5.31-6.735-9.462-6.731c-0.06-0.002-0.12-0.002-0.18-0.003
		c-0.06,0.001-0.12,0.001-0.181,0.003c-4.151-0.004-8.034,2.587-9.464,6.731c-5.386,15.609-18.929,26.098-33.699,26.098
		s-28.313-10.488-33.699-26.098c-1.482-4.296-5.599-6.928-9.921-6.723c-4.123,0.021-7.95,2.61-9.367,6.725
		c-5.39,15.61-18.93,26.1-33.7,26.1c-8.87,0-16.1-2.7-21.63-8.07c0-0.02-0.01-0.05-0.01-0.07c-1.09-7.17-1.7-14.5-1.7-21.96
		c0-79.86,64.96-144.82,144.81-144.82s144.81,64.96,144.81,144.82C385.83,250.19,384.75,260.21,382.7,269.87z"/>
	<path d="M241.344,67.834c9.54,0,17.5-7.96,17.5-17.5c0-9.54-7.96-17.5-17.5-17.5c-9.54,0-17.5,7.96-17.5,17.5
		C223.844,59.874,231.804,67.834,241.344,67.834z"/>
	<path d="M241.344,418.551c-9.54,0-17.5,7.96-17.5,17.5s7.96,17.5,17.5,17.5c9.54,0,17.5-7.96,17.5-17.5
		S250.883,418.551,241.344,418.551z"/>
	<path d="M377.715,124.321c9.54,0,17.5-7.96,17.5-17.5c0-9.54-7.96-17.5-17.5-17.5s-17.5,7.96-17.5,17.5
		C360.215,116.361,368.175,124.321,377.715,124.321z"/>
	<path d="M104.972,362.064c-9.54,0-17.5,7.96-17.5,17.5s7.96,17.5,17.5,17.5c9.54,0,17.5-7.96,17.5-17.5
		S114.512,362.064,104.972,362.064z"/>
	<path d="M434.202,225.693c-9.54,0-17.5,7.96-17.5,17.5c0,9.54,7.96,17.5,17.5,17.5c9.54,0,17.5-7.96,17.5-17.5
		C451.702,233.653,443.741,225.693,434.202,225.693z"/>
	<path d="M48.485,225.693c-9.54,0-17.5,7.96-17.5,17.5c0,9.54,7.96,17.5,17.5,17.5s17.5-7.96,17.5-17.5
		C65.985,233.653,58.025,225.693,48.485,225.693z"/>
	<path d="M377.715,362.064c-9.54,0-17.5,7.96-17.5,17.5s7.96,17.5,17.5,17.5s17.5-7.96,17.5-17.5S387.255,362.064,377.715,362.064z"
		/>
	<path d="M104.972,124.321c9.54,0,17.5-7.96,17.5-17.5c0-9.54-7.96-17.5-17.5-17.5c-9.54,0-17.5,7.96-17.5,17.5
		C87.472,116.361,95.433,124.321,104.972,124.321z"/>
</g>
</svg>