<svg fill="#000000" xmlns="http://www.w3.org/2000/svg"  viewBox="0 0 80 80" width="80px" height="80px"><path d="M 16.296875 17 L 23.46875 29.816406 L 17.738281 44.804688 L 12.160156 46.175781 L 8.90625 60.453125 C 8.84375 60.703125 8.878906 60.96875 9.007813 61.191406 C 9.097656 61.667969 9.515625 62.007813 10 62 C 11.332031 62 12.449219 61.394531 13.449219 60.894531 C 14.449219 60.394531 15.332031 60 16 60 C 16.667969 60 17.550781 60.394531 18.550781 60.894531 C 19.550781 61.394531 20.667969 62 22 62 C 23.332031 62 24.449219 61.394531 25.449219 60.894531 C 26.449219 60.394531 27.332031 60 28 60 C 28.667969 60 29.550781 60.394531 30.550781 60.894531 C 31.550781 61.394531 32.667969 62 34 62 C 35.332031 62 36.449219 61.394531 37.449219 60.894531 C 38.449219 60.394531 39.332031 60 40 60 C 40.667969 60 41.550781 60.394531 42.550781 60.894531 C 43.550781 61.394531 44.667969 62 46 62 C 47.332031 62 48.449219 61.394531 49.449219 60.894531 C 50.449219 60.394531 51.332031 60 52 60 C 52.667969 60 53.550781 60.394531 54.550781 60.894531 C 55.550781 61.394531 56.667969 62 58 62 C 59.332031 62 60.449219 61.394531 61.449219 60.894531 C 62.449219 60.394531 63.332031 60 64 60 C 64.667969 60 65.550781 60.394531 66.550781 60.894531 C 67.550781 61.394531 68.667969 62 70 62 C 70.359375 62.003906 70.695313 61.816406 70.878906 61.503906 C 71.058594 61.191406 71.058594 60.808594 70.878906 60.496094 C 70.695313 60.183594 70.359375 59.996094 70 60 C 69.332031 60 68.449219 59.605469 67.449219 59.105469 C 66.683594 58.722656 65.851563 58.28125 64.910156 58.09375 C 68.015625 54.707031 75 45.605469 75 32 L 75 30.722656 L 67.769531 32.5 C 67.699219 32.433594 67.621094 32.378906 67.53125 32.332031 L 47.171875 21.964844 L 33.136719 23.96875 L 22.183594 17 Z M 19.707031 19 L 21.601563 19 L 30.09375 24.40625 L 29.355469 24.511719 C 27.351563 24.796875 25.605469 25.941406 24.515625 27.589844 Z M 46.828125 24.035156 L 64.859375 33.21875 L 20.097656 44.222656 L 25.417969 30.324219 C 25.503906 30.195313 25.558594 30.050781 25.578125 29.898438 L 25.671875 29.65625 C 26.324219 27.957031 27.835938 26.746094 29.636719 26.488281 Z M 51.371094 28.449219 L 51.019531 28.464844 L 50.921875 28.484375 L 50.230469 29.058594 L 50.273438 29.953125 L 51.015625 30.453125 L 51.371094 30.4375 L 51.46875 30.414063 L 52.15625 29.84375 L 52.113281 28.949219 Z M 47.375 29.363281 L 47.023438 29.378906 L 46.925781 29.40625 L 46.234375 29.972656 L 46.277344 30.871094 L 47.019531 31.371094 L 47.375 31.355469 L 47.46875 31.328125 L 48.160156 30.761719 L 48.117188 29.863281 Z M 43.378906 30.28125 L 43.027344 30.296875 L 42.929688 30.320313 L 42.238281 30.890625 L 42.28125 31.785156 L 43.027344 32.285156 L 43.375 32.269531 L 43.472656 32.246094 L 44.167969 31.675781 L 44.121094 30.78125 Z M 39.382813 31.199219 L 39.03125 31.214844 L 38.933594 31.234375 L 38.242188 31.808594 L 38.285156 32.703125 L 39.03125 33.203125 L 39.378906 33.1875 L 39.480469 33.164063 L 40.171875 32.59375 L 40.125 31.699219 Z M 35.386719 32.113281 L 35.035156 32.128906 L 34.9375 32.15625 L 34.246094 32.722656 L 34.289063 33.621094 L 35.03125 34.121094 L 35.386719 34.105469 L 35.484375 34.078125 L 36.171875 33.511719 L 36.128906 32.613281 Z M 31.390625 33.03125 L 31.039063 33.046875 L 30.941406 33.070313 L 30.25 33.640625 L 30.292969 34.535156 L 31.035156 35.035156 L 31.390625 35.019531 L 31.484375 34.996094 L 32.175781 34.425781 L 32.132813 33.53125 Z M 72.894531 33.300781 C 72.324219 49.039063 62.09375 58.125 62.09375 58.125 C 61.960938 58.226563 61.859375 58.363281 61.796875 58.519531 C 61.363281 58.707031 60.945313 58.910156 60.550781 59.105469 C 59.550781 59.605469 58.667969 60 58 60 C 57.332031 60 56.449219 59.605469 55.449219 59.105469 C 54.449219 58.605469 53.332031 58 52 58 C 50.667969 58 49.550781 58.605469 48.550781 59.105469 C 47.550781 59.605469 46.667969 60 46 60 C 45.332031 60 44.449219 59.605469 43.449219 59.105469 C 42.449219 58.605469 41.332031 58 40 58 C 38.667969 58 37.550781 58.605469 36.550781 59.105469 C 35.550781 59.605469 34.667969 60 34 60 C 33.332031 60 32.449219 59.605469 31.449219 59.105469 C 30.449219 58.605469 29.332031 58 28 58 C 26.667969 58 25.550781 58.605469 24.550781 59.105469 C 23.550781 59.605469 22.667969 60 22 60 C 21.332031 60 20.449219 59.605469 19.449219 59.105469 C 18.449219 58.605469 17.332031 58 16 58 C 14.667969 58 13.550781 58.605469 12.550781 59.105469 C 12.039063 59.363281 11.554688 59.589844 11.117188 59.75 L 13.839844 47.824219 Z M 27.394531 33.949219 L 27.042969 33.964844 L 26.945313 33.984375 L 26.253906 34.558594 L 26.296875 35.453125 L 27.039063 35.953125 L 27.390625 35.9375 L 27.488281 35.914063 L 28.179688 35.34375 L 28.136719 34.449219 Z M 69.414063 38.699219 L 69.0625 38.71875 L 68.964844 38.742188 L 68.28125 39.320313 L 68.332031 40.214844 L 69.082031 40.707031 L 69.433594 40.6875 L 69.53125 40.664063 L 70.21875 40.082031 L 70.160156 39.191406 Z M 65.425781 39.660156 L 65.078125 39.683594 L 64.980469 39.703125 L 64.296875 40.28125 L 64.347656 41.175781 L 65.097656 41.671875 L 65.449219 41.648438 L 65.546875 41.625 L 66.230469 41.046875 L 66.175781 40.152344 Z M 61.441406 40.621094 L 61.09375 40.640625 L 60.996094 40.667969 L 60.308594 41.246094 L 60.363281 42.140625 L 61.109375 42.628906 L 61.464844 42.609375 L 61.5625 42.585938 L 62.246094 42.007813 L 62.191406 41.113281 Z M 57.457031 41.582031 L 57.105469 41.605469 L 57.007813 41.625 L 56.324219 42.203125 L 56.375 43.097656 L 57.125 43.59375 L 57.480469 43.574219 L 57.574219 43.546875 L 58.261719 42.96875 L 58.203125 42.078125 Z M 53.472656 42.546875 L 53.121094 42.566406 L 53.023438 42.589844 L 52.339844 43.167969 L 52.390625 44.0625 L 53.140625 44.554688 L 53.492188 44.53125 L 53.589844 44.511719 L 54.273438 43.933594 L 54.21875 43.035156 Z M 49.484375 43.503906 L 49.136719 43.527344 L 49.035156 43.550781 L 48.355469 44.128906 L 48.40625 45.023438 L 49.15625 45.515625 L 49.503906 45.496094 L 49.605469 45.472656 L 50.289063 44.894531 L 50.234375 44 Z M 45.5 44.46875 L 45.148438 44.488281 L 45.050781 44.515625 L 44.367188 45.09375 L 44.421875 45.984375 L 45.171875 46.480469 L 45.519531 46.457031 L 45.617188 46.433594 L 46.300781 45.855469 L 46.25 44.960938 Z M 41.515625 45.429688 L 41.164063 45.453125 L 41.066406 45.472656 L 40.378906 46.050781 L 40.4375 46.949219 L 41.183594 47.4375 L 41.535156 47.421875 L 41.632813 47.394531 L 42.316406 46.816406 L 42.265625 45.921875 Z M 37.53125 46.390625 L 37.175781 46.414063 L 37.078125 46.4375 L 36.394531 47.015625 L 36.449219 47.910156 L 37.199219 48.402344 L 37.546875 48.378906 L 37.644531 48.359375 L 38.332031 47.78125 L 38.277344 46.886719 Z M 33.542969 47.355469 L 33.191406 47.375 L 33.09375 47.398438 L 32.410156 47.976563 L 32.464844 48.871094 L 33.214844 49.363281 L 33.5625 49.34375 L 33.660156 49.316406 L 34.34375 48.738281 L 34.292969 47.84375 Z M 29.558594 48.316406 L 29.207031 48.335938 L 29.109375 48.359375 L 28.421875 48.9375 L 28.480469 49.832031 L 29.226563 50.328125 L 29.578125 50.304688 L 29.675781 50.28125 L 30.359375 49.703125 L 30.308594 48.808594 Z M 25.574219 49.277344 L 25.21875 49.296875 L 25.125 49.324219 L 24.4375 49.902344 L 24.492188 50.796875 L 25.238281 51.285156 L 25.59375 51.265625 L 25.6875 51.242188 L 26.375 50.664063 L 26.320313 49.769531 Z M 21.589844 50.238281 L 21.234375 50.261719 L 21.140625 50.28125 L 20.453125 50.859375 L 20.507813 51.753906 L 21.253906 52.25 L 21.609375 52.230469 L 21.703125 52.203125 L 22.390625 51.625 L 22.335938 50.734375 Z M 17.601563 51.203125 L 17.25 51.222656 L 17.152344 51.246094 L 16.46875 51.824219 L 16.519531 52.71875 L 17.269531 53.210938 L 17.621094 53.1875 L 17.71875 53.167969 L 18.40625 52.589844 L 18.347656 51.691406 Z M 6 60 C 5.449219 60 5 60.449219 5 61 C 5 61.550781 5.449219 62 6 62 C 6.550781 62 7 61.550781 7 61 C 7 60.449219 6.550781 60 6 60 Z M 74 60 C 73.449219 60 73 60.449219 73 61 C 73 61.550781 73.449219 62 74 62 C 74.550781 62 75 61.550781 75 61 C 75 60.449219 74.550781 60 74 60 Z"/></svg>