<svg id="Capa_1" enable-background="new 0 0 512 512" height="512" viewBox="0 0 512 512" width="512" xmlns="http://www.w3.org/2000/svg"><g><path d="m438.699 350.639-56.243 5.8c-6.171.637-10.824 5.796-10.824 11.999v38.83c-3.799-1.683-8.104-2.641-12.668-2.641-15.256 0-27.668 10.631-27.668 23.699 0 13.067 12.412 23.698 27.668 23.698s27.668-10.631 27.668-23.698v-57.238l50.368-5.195v34.633c-3.799-1.683-8.104-2.641-12.668-2.641-15.256 0-27.668 10.631-27.668 23.699 0 13.067 12.412 23.699 27.668 23.699s27.668-10.631 27.668-23.699v-58.947c0-3.408-1.451-6.673-3.981-8.956-2.533-2.283-5.934-3.393-9.32-3.042zm-79.735 86.385c-6.867 0-12.668-3.983-12.668-8.698s5.801-8.699 12.668-8.699 12.668 3.983 12.668 8.699c0 4.715-5.801 8.698-12.668 8.698zm65.368-6.741c-6.867 0-12.668-3.983-12.668-8.699 0-4.715 5.801-8.699 12.668-8.699s12.668 3.984 12.668 8.699c0 4.716-5.801 8.699-12.668 8.699z"/><path d="m80.168 158.598c15.256 0 27.668-10.631 27.668-23.699v-57.238l25.954-2.676c4.12-.425 7.116-4.109 6.691-8.23-.424-4.12-4.097-7.114-8.229-6.691l-28.591 2.948c-6.171.637-10.824 5.796-10.824 11.999v38.83c-3.799-1.684-8.104-2.641-12.668-2.641-15.256 0-27.668 10.631-27.668 23.699-.001 13.068 12.411 23.699 27.667 23.699zm0-32.397c6.867 0 12.668 3.983 12.668 8.699 0 4.715-5.801 8.699-12.668 8.699s-12.668-3.984-12.668-8.7c0-4.715 5.801-8.698 12.668-8.698z"/><path d="m509.804 71.133-8.063-8.063 5.418-5.417c4.878-4.878 4.879-12.817 0-17.698l-35.09-35.087c-2.363-2.364-5.506-3.666-8.85-3.666-3.343 0-6.485 1.302-8.849 3.666l-5.417 5.417-8.063-8.063c-2.93-2.929-7.678-2.929-10.607 0s-2.929 7.678 0 10.606l8.063 8.063-6.225 6.225-8.064-8.063c-2.928-2.93-7.677-2.929-10.607 0-2.929 2.929-2.929 7.678.001 10.607l8.063 8.062-6.226 6.226-8.063-8.063c-2.93-2.929-7.678-2.929-10.607 0s-2.929 7.678 0 10.606l8.186 8.186c-7.028 8.499-9.705 19.401-8.042 29.738l-42.088 38.63c-3.052 2.801-3.255 7.545-.454 10.597 1.478 1.612 3.5 2.429 5.527 2.429 1.811 0 3.629-.653 5.069-1.975l37.855-34.744c1.308 1.932 2.809 3.771 4.518 5.481 1.697 1.697 3.532 3.206 5.475 4.526l-138.427 150.823c-2.807-4.459-6.116-8.645-9.933-12.462-3.837-3.837-8.021-7.147-12.452-9.943l88.621-81.338c3.052-2.801 3.255-7.545.454-10.597-2.8-3.052-7.544-3.255-10.597-.454l-31.981 29.353c-18.128-16.811-42.416-25.227-67.159-23.138-25.861 2.178-49.309 15.564-64.333 36.727l-17.726 24.97c-2.808 3.956-6.934 6.832-11.617 8.098l-27.813 7.517c-29.924 8.088-57.326 23.949-79.244 45.868-19.642 19.639-30.457 45.751-30.457 73.525s10.815 53.886 30.455 73.525l59.736 59.737c20.271 20.271 46.898 30.406 73.525 30.406s53.254-10.135 73.525-30.406c21.919-21.919 37.78-49.322 45.867-79.246l7.517-27.812c1.267-4.684 4.143-8.811 8.099-11.619l24.969-17.726c21.162-15.023 34.549-38.472 36.727-64.333 2.085-24.749-6.327-49.031-23.137-67.158l90.308-98.394c1.965.315 3.966.484 5.994.484 8.777 0 17.091-3.012 23.765-8.543l8.182 8.182c1.465 1.464 3.385 2.197 5.304 2.197s3.839-.732 5.304-2.197c2.929-2.929 2.929-7.678 0-10.606l-8.063-8.063 6.225-6.225 8.062 8.062c1.465 1.464 3.385 2.197 5.304 2.197s3.839-.732 5.304-2.197c2.929-2.929 2.929-7.678 0-10.606l-8.063-8.063 6.225-6.225 8.062 8.062c1.465 1.464 3.385 2.197 5.304 2.197s3.839-.732 5.304-2.197c2.928-2.93 2.928-7.679 0-10.608zm-164.33 208.441c-1.807 21.451-12.91 40.9-30.464 53.361l-24.969 17.726c-6.788 4.819-11.723 11.899-13.895 19.937l-7.517 27.812c-7.404 27.396-21.926 52.484-41.994 72.553-34.693 34.693-91.143 34.693-125.836 0l-59.736-59.737c-16.807-16.806-26.063-39.151-26.063-62.918s9.256-46.112 26.062-62.919c20.067-20.067 45.155-34.588 72.552-41.993l27.813-7.517c8.036-2.172 15.116-7.106 19.935-13.895l17.726-24.969c12.462-17.553 31.911-28.657 53.361-30.463 20.122-1.695 39.876 4.971 54.811 18.369l-49.962 45.856c-18.01-6.237-38.196-5.041-55.989 4.309-3.666 1.927-5.077 6.461-3.149 10.128 1.927 3.667 6.462 5.076 10.128 3.15 21.739-11.426 48.026-7.422 65.41 9.963 10.541 10.54 16.346 24.554 16.346 39.46s-5.805 28.919-16.346 39.46c-10.54 10.54-24.554 16.345-39.459 16.345-14.906 0-28.92-5.805-39.46-16.345-18.572-18.572-21.645-47.983-7.306-69.934 2.265-3.468 1.29-8.115-2.178-10.38-3.468-2.266-8.116-1.292-10.381 2.177-18.198 27.859-14.306 65.181 9.257 88.743 13.373 13.373 31.154 20.738 50.067 20.738 18.912 0 36.693-7.365 50.066-20.738s20.738-31.154 20.738-50.066c0-7.959-1.32-15.711-3.827-23.025l45.888-49.997c13.399 14.934 20.065 34.687 18.371 54.809zm88.111-178.809c-5.964 0-11.569-2.322-15.786-6.539-8.705-8.705-8.705-22.868 0-31.573l45.422-45.422 31.573 31.573-45.423 45.422c-4.217 4.217-9.823 6.539-15.786 6.539z"/><path d="m468.276 43.748c-2.93-2.929-7.678-2.929-10.607 0l-19.522 19.522c-2.929 2.929-2.929 7.678 0 10.607 1.465 1.464 3.385 2.197 5.304 2.197s3.839-.732 5.304-2.197l19.521-19.522c2.929-2.929 2.929-7.678 0-10.607z"/><path d="m214.238 338.426c10.411 0 20.823-3.963 28.75-11.89 15.852-15.852 15.852-41.647-.001-57.499-15.853-15.854-41.648-15.852-57.5 0-15.852 15.853-15.852 41.647 0 57.499 7.927 7.926 18.339 11.89 28.751 11.89zm-18.144-58.783c5.003-5.003 11.572-7.503 18.145-7.503 6.569 0 13.142 2.502 18.143 7.503 10.005 10.004 10.005 26.282 0 36.287-10.002 10.004-26.282 10.005-36.286 0-10.005-10.005-10.005-26.283-.002-36.287z"/><path d="m106.783 337.423c-4.867-4.866-12.788-4.866-17.657.001l-12.803 12.803c-2.358 2.358-3.658 5.494-3.658 8.83 0 3.335 1.3 6.471 3.657 8.828l18.137 18.137c2.93 2.929 7.678 2.929 10.607 0s2.929-7.678 0-10.607l-16.359-16.358 9.248-9.248 64.261 64.261-9.248 9.248-24.944-24.945c-2.929-2.929-7.677-2.93-10.607 0-2.929 2.929-2.929 7.678 0 10.606l26.724 26.724c2.434 2.433 5.631 3.65 8.828 3.649 3.197 0 6.395-1.217 8.829-3.65l12.803-12.803c2.358-2.358 3.657-5.494 3.657-8.83 0-3.335-1.299-6.471-3.656-8.828z"/></g></svg>