<svg id="Capa_1" enable-background="new 0 0 512 512" height="512" viewBox="0 0 512 512" width="512" xmlns="http://www.w3.org/2000/svg"><path d="m481.221 368.066-15.398-6.789c-6.661-2.938-10.608-9.773-9.821-17.012l1.819-16.73c1.375-12.645-4.614-24.45-15.629-30.809-11.016-6.358-24.231-5.643-34.495 1.87l-13.578 9.941c-5.877 4.301-13.771 4.3-19.644 0l-8.478-6.206v-94.064h14.476c6.893 0 12.5-5.607 12.5-12.5v-33.037c0-6.893-5.607-12.5-12.5-12.5h-14.476v-5.92c0-16.205-4.614-31.943-13.344-45.514-2.242-3.484-6.881-4.491-10.365-2.25-3.483 2.241-4.491 6.881-2.25 10.365 7.169 11.146 10.959 24.078 10.959 37.399v5.92h-189.994v-5.92c0-38.179 31.062-69.24 69.241-69.24h51.512c13.155 0 25.951 3.702 37.004 10.706 3.5 2.218 8.133 1.179 10.35-2.32 2.218-3.499 1.179-8.133-2.32-10.35-11.344-7.188-24.193-11.507-37.533-12.691v-47.915c0-6.893-5.607-12.5-12.5-12.5h-41.512c-6.893 0-12.5 5.607-12.5 12.5v47.921c-11.856 1.052-23.014 4.556-32.955 10.023-11.046-9.03-26.799-9.697-38.684-.997l-13.578 9.94c-5.875 4.301-13.771 4.3-19.644.001l-13.579-9.941c-3.343-2.447-8.036-1.722-10.482 1.621-2.446 3.342-1.721 8.035 1.621 10.482l13.58 9.941c5.587 4.089 12.134 6.134 18.682 6.134 6.547 0 13.095-2.045 18.683-6.134l13.578-9.941c5.375-3.933 11.417-3.958 16.306-1.859-18.485 15.465-30.268 38.688-30.268 64.617v5.92h-14.476c-6.892 0-12.5 5.607-12.5 12.5v33.038c0 6.893 5.608 12.5 12.5 12.5h14.476v35.696c-11.132-7.907-25.93-7.832-36.981.257l-13.579 9.941c-5.476 4.009-12.258 4.376-18.134.983-5.879-3.394-8.95-9.449-8.217-16.197l1.819-16.731c1.497-13.767-6.011-26.771-18.681-32.357l-15.4-6.79c-6.21-2.739-9.918-8.426-9.918-15.213 0-6.788 3.708-12.476 9.918-15.214l15.4-6.79c12.67-5.587 20.178-18.591 18.681-32.358l-1.819-16.73c-.635-5.841 1.618-9.933 3.619-12.336 2.651-3.183 2.22-7.912-.963-10.563-3.184-2.65-7.911-2.22-10.562.963-5.457 6.552-7.945 14.918-7.006 23.557l1.819 16.73c.787 7.238-3.16 14.074-9.82 17.011l-15.4 6.79c-11.638 5.131-18.866 16.22-18.866 28.939s7.229 23.807 18.867 28.938l15.398 6.79c6.661 2.938 10.608 9.773 9.821 17.011l-1.819 16.731c-1.375 12.644 4.614 24.45 15.629 30.809 4.995 2.883 10.441 4.312 15.861 4.312 6.532 0 13.024-2.076 18.634-6.182l13.578-9.941c5.877-4.301 13.771-4.3 19.644 0l8.477 6.206v103.518c0 4.142 3.357 7.5 7.5 7.5s7.5-3.358 7.5-7.5v-157.778h189.994v50.174h-84.999c-9.649 0-17.5 7.851-17.5 17.5v110.347c0 9.649 7.851 17.5 17.5 17.5h84.997v50.174h-189.994v-55.228c0-4.142-3.357-7.5-7.5-7.5s-7.5 3.358-7.5 7.5v55.228h-14.476c-6.892 0-12.5 5.607-12.5 12.5v33.037c0 6.893 5.608 12.5 12.5 12.5h248.945c6.893 0 12.5-5.607 12.5-12.5v-14.787c.39.239.773.489 1.145.76l13.579 9.941c5.61 4.106 12.101 6.183 18.634 6.182 5.419-.001 10.867-1.429 15.861-4.312 11.015-6.359 17.004-18.165 15.629-30.809l-1.819-16.73c-.787-7.238 3.16-14.074 9.82-17.011l15.4-6.79c11.637-5.131 18.866-16.22 18.866-28.938.001-12.719-7.229-23.808-18.866-28.94zm-206.965-353.066v45.069h-36.512v-45.069zm-140.229 150.23h243.945v28.038h-243.945zm131.973 223.558c-1.379 0-2.5-1.122-2.5-2.5v-110.347c0-1.378 1.121-2.5 2.5-2.5h84.997v115.347zm111.973 108.212h-243.946v-28.038h243.945v28.038zm97.197-84.781-15.399 6.79c-12.671 5.587-20.179 18.59-18.682 32.358l1.819 16.73c.733 6.748-2.338 12.803-8.217 16.197-5.879 3.393-12.657 3.026-18.134-.983l-13.58-9.941c-3.037-2.223-6.425-3.869-10.005-4.89v-2.018c0-6.893-5.607-12.5-12.5-12.5h-14.476v-133.063c11.131 7.906 25.929 7.831 36.981-.257l13.579-9.941c5.476-4.01 12.257-4.377 18.134-.983 5.879 3.394 8.95 9.449 8.217 16.197l-1.819 16.731c-1.497 13.767 6.011 26.771 18.682 32.358l15.398 6.789c6.211 2.739 9.919 8.426 9.919 15.214.001 6.786-3.707 12.474-9.917 15.212z"/></svg>