<svg id="Capa_1" enable-background="new 0 0 512 512" height="512" viewBox="0 0 512 512" width="512" xmlns="http://www.w3.org/2000/svg"><g><path d="m239.981 92c0 4.142 3.358 7.5 7.5 7.5h99.277c4.143 0 7.5-3.358 7.5-7.5s-3.357-7.5-7.5-7.5h-99.277c-4.142 0-7.5 3.358-7.5 7.5z"/><path d="m79.136 175.666c4.142 0 7.5-3.358 7.5-7.5 0-4.142-3.358-7.5-7.5-7.5s-7.5 3.358-7.5 7.5c0 4.142 3.358 7.5 7.5 7.5z"/><path d="m301.5 291.818c0-25.089-20.411-45.5-45.5-45.5s-45.5 20.411-45.5 45.5 20.411 45.5 45.5 45.5 45.5-20.411 45.5-45.5zm-76 0c0-16.818 13.682-30.5 30.5-30.5 16.817 0 30.5 13.682 30.5 30.5s-13.683 30.5-30.5 30.5c-16.818 0-30.5-13.682-30.5-30.5z"/><path d="m479.5 120.318h-44.31l-21.646-51.69c-5.075-12.116-16.842-19.945-29.978-19.945h-46.028c-4.143 0-7.5 3.358-7.5 7.5s3.357 7.5 7.5 7.5h46.028c7.073 0 13.409 4.216 16.142 10.74l19.22 45.896h-243.617l19.221-45.896c2.732-6.524 9.068-10.74 16.142-10.74h94.178c4.143 0 7.5-3.358 7.5-7.5s-3.357-7.5-7.5-7.5h-94.178c-13.137 0-24.903 7.829-29.978 19.946l-21.647 51.69h-25.175v-38.397c0-6.893-5.607-12.5-12.5-12.5h-37.238c-6.893 0-12.5 5.607-12.5 12.5v38.396h-39.136c-17.92 0-32.5 14.58-32.5 32.5v278c0 17.92 14.58 32.5 32.5 32.5h268.557c4.143 0 7.5-3.358 7.5-7.5s-3.357-7.5-7.5-7.5h-268.557c-9.649 0-17.5-7.851-17.5-17.5v-48.196h132.397c26.002 31.047 65.033 50.828 108.603 50.828s82.602-19.781 108.603-50.828h132.397v48.196c0 9.649-7.851 17.5-17.5 17.5h-145.757c-4.143 0-7.5 3.358-7.5 7.5s3.357 7.5 7.5 7.5h145.757c17.921 0 32.5-14.58 32.5-32.5v-278c0-17.92-14.579-32.5-32.5-32.5zm-392.864-35.896h32.238v35.896h-32.238zm-54.136 50.896h447c9.649 0 17.5 7.851 17.5 17.5v48.196h-15v-33.328c0-9.649-7.851-17.5-17.5-17.5h-59.454c-9.649 0-17.5 7.851-17.5 17.5v33.328h-22.943c-26.001-31.047-65.033-50.828-108.603-50.828s-82.601 19.781-108.603 50.828h-132.397v-48.196c0-9.649 7.851-17.5 17.5-17.5zm434.5 65.696h-64.454v-33.328c0-1.378 1.121-2.5 2.5-2.5h59.454c1.379 0 2.5 1.122 2.5 2.5zm-452 15h56.636v151.608h-56.636zm71.636 151.608v-151.608h49.777c-13.952 21.933-22.045 47.94-22.045 75.804s8.093 53.872 22.045 75.804zm169.364 50.828c-69.825 0-126.632-56.807-126.632-126.632s56.807-126.632 126.632-126.632 126.633 56.807 126.633 126.632-56.808 126.632-126.633 126.632zm119.588-50.828c13.952-21.933 22.045-47.94 22.045-75.804s-8.093-53.872-22.045-75.804h121.412v151.608z"/><path d="m256 182.357c-53.178 0-98.504 37.946-107.775 90.228-.723 4.079 1.997 7.971 6.075 8.694 4.072.721 7.971-1.997 8.694-6.075 7.999-45.108 47.114-77.847 93.006-77.847 52.086 0 94.461 42.375 94.461 94.461s-42.375 94.461-94.461 94.461c-22.822 0-44.854-8.247-62.035-23.224-17.02-14.834-28.18-35.235-31.427-57.446-.599-4.098-4.409-6.938-8.506-6.337-4.099.6-6.935 4.408-6.336 8.506 3.764 25.751 16.696 49.398 36.413 66.583 19.914 17.357 45.445 26.916 71.891 26.916 60.357 0 109.461-49.104 109.461-109.461 0-60.355-49.104-109.459-109.461-109.459z"/></g></svg>