<svg id="Capa_1" enable-background="new 0 0 512 512" height="512" viewBox="0 0 512 512" width="512" xmlns="http://www.w3.org/2000/svg"><g><path d="m209.048 278.376c-6.567 0-12.741 2.557-17.386 7.201l-29.79 29.79c-9.586 9.586-9.586 25.185 0 34.771 4.645 4.644 10.818 7.201 17.386 7.201s12.741-2.557 17.386-7.201l29.79-29.79c4.644-4.644 7.201-10.818 7.201-17.385s-2.558-12.742-7.201-17.385c-4.645-4.644-10.818-7.202-17.386-7.202zm6.779 17.808c3.738 3.738 3.738 9.82 0 13.558-3.736 3.737-9.82 3.737-13.557 0-3.738-3.738-3.738-9.82 0-13.558 1.868-1.869 4.323-2.803 6.778-2.803s4.91.934 6.779 2.803zm-29.79 43.348c-3.736 3.737-9.82 3.737-13.557 0-3.738-3.738-3.738-9.82 0-13.558l13.781-13.781c1.198 2.97 2.998 5.752 5.401 8.156 2.404 2.404 5.186 4.203 8.156 5.402z"/><path d="m215.524 362.677-100.702 90.006-55.493-55.493 11.558-12.931c2.761-3.088 2.494-7.83-.594-10.59-3.089-2.762-7.831-2.493-10.59.594l-50.56 56.568c-7.937 8.88-7.557 22.432.864 30.854l14.856 14.856-22.656 22.656c-2.929 2.929-2.929 7.678 0 10.606 1.465 1.465 3.385 2.197 5.304 2.197s3.839-.732 5.304-2.197l22.656-22.656 14.856 14.856c4.371 4.371 10.124 6.575 15.889 6.575 5.342 0 10.694-1.894 14.966-5.71l144.338-129.007c3.088-2.76 3.354-7.501.594-10.59-2.76-3.088-7.5-3.354-10.59-.594zm-144.338 129.007c-2.952 2.635-7.456 2.51-10.252-.287l-40.319-40.319c-2.798-2.798-2.925-7.301-.288-10.251l28.99-32.435 54.303 54.304z"/><path d="m498.127 97.488-51.323-51.323c-2.93-2.929-7.678-2.929-10.607 0s-2.929 7.678 0 10.606l51.323 51.323c12.635 12.634 12.635 33.192 0 45.826l-8.744 8.744-30.359-30.359c-4.963-4.963-11.562-7.696-18.581-7.696-7.02 0-13.618 2.733-18.581 7.696-4.964 4.964-7.697 11.563-7.697 18.582s2.733 13.619 7.696 18.582l30.358 30.359-21.202 21.202-30.359-30.359c-4.963-4.963-11.562-7.696-18.581-7.696-7.02 0-13.619 2.733-18.581 7.696-4.964 4.963-7.698 11.563-7.698 18.582s2.734 13.618 7.697 18.582l30.359 30.359-8.743 8.743c-12.631 12.632-33.18 12.633-45.816.01l-83.613-83.613s0 0-.001-.001c-12.635-12.634-12.635-33.191 0-45.826l8.744-8.744 30.359 30.358c5.123 5.122 11.852 7.684 18.581 7.684s13.459-2.561 18.583-7.684c10.245-10.246 10.245-26.917-.001-37.163l-30.358-30.358 21.202-21.202 30.358 30.358c4.964 4.963 11.562 7.697 18.582 7.697 7.018 0 13.618-2.733 18.582-7.697 10.245-10.246 10.245-26.917 0-37.163l-30.359-30.358 8.744-8.744c6.12-6.12 14.257-9.491 22.912-9.491s16.792 3.371 22.913 9.491l9.168 9.167c2.928 2.93 7.677 2.927 10.606 0 2.929-2.929 2.929-7.678-.001-10.606l-9.167-9.167c-8.951-8.954-20.856-13.885-33.518-13.885s-24.566 4.931-33.52 13.884l-113.017 113.017c-9.964 9.964-14.546 23.296-13.767 36.364-2.911-.967-5.988-1.478-9.145-1.478-7.722 0-14.98 3.007-20.439 8.466-5.461 5.46-8.468 12.719-8.468 20.44 0 7.722 3.007 14.981 8.467 20.44l7.598 7.598-117.393 131.345c-2.761 3.088-2.494 7.83.594 10.59 1.431 1.279 3.217 1.908 4.995 1.908 2.062 0 4.113-.845 5.595-2.502l116.832-130.717 73.32 73.32-42.232 37.746c-3.088 2.76-3.354 7.501-.594 10.59 1.481 1.658 3.533 2.502 5.595 2.502 1.778 0 3.564-.629 4.995-1.908l42.859-38.307 7.597 7.597h.001c5.46 5.46 12.719 8.467 20.439 8.467 7.722 0 14.98-3.007 20.439-8.467 5.461-5.46 8.468-12.719 8.468-20.44 0-3.157-.511-6.235-1.479-9.146.948.056 1.896.095 2.845.095 12.14 0 24.278-4.621 33.521-13.861l113.017-113.017c18.483-18.482 18.483-48.555 0-67.038zm-187.393 35.077c2.13 2.13 3.304 4.962 3.304 7.975s-1.174 5.845-3.305 7.975c-2.13 2.13-4.962 3.303-7.975 3.303s-5.845-1.173-7.975-3.303l-30.358-30.358 15.95-15.95zm58.365-58.365c2.13 2.13 3.304 4.962 3.304 7.975s-1.174 5.845-3.305 7.975c-2.13 2.13-4.962 3.303-7.974 3.303-3.013 0-5.845-1.173-7.975-3.303l-30.359-30.358 15.95-15.95zm-37.948 216.423c2.626 2.627 4.073 6.119 4.073 9.833s-1.447 7.207-4.074 9.834c-2.626 2.626-6.118 4.073-9.833 4.073-3.714 0-7.207-1.447-9.834-4.073h.001l-109.763-109.763c-2.626-2.626-4.073-6.119-4.073-9.833s1.447-7.206 4.074-9.833c2.626-2.626 6.118-4.073 9.833-4.073s7.207 1.447 9.833 4.073zm90.71-131.761c-2.13-2.13-3.303-4.962-3.303-7.975 0-3.012 1.173-5.845 3.304-7.975 2.13-2.13 4.962-3.303 7.975-3.303s5.845 1.173 7.975 3.303l30.358 30.359-15.95 15.95zm-58.365 58.365c-2.13-2.13-3.304-4.962-3.304-7.975 0-3.012 1.174-5.845 3.305-7.975 2.13-2.13 4.962-3.303 7.975-3.303s5.845 1.173 7.975 3.303l30.358 30.359-15.95 15.95z"/></g></svg>