<svg id="Capa_1" enable-background="new 0 0 512 512" height="512" viewBox="0 0 512 512" width="512" xmlns="http://www.w3.org/2000/svg"><g><path d="m349.737 460.007c9.579 0 17.372-7.793 17.372-17.372v-45.651c0-9.579-7.793-17.372-17.372-17.372h-147.363c-9.579 0-17.372 7.793-17.372 17.372v45.651c0 9.579 7.793 17.372 17.372 17.372zm2.372-63.023v45.651c0 1.308-1.064 2.372-2.372 2.372h-66.182v-50.395h66.182c1.307 0 2.372 1.064 2.372 2.372zm-152.107 45.651v-45.651c0-1.308 1.064-2.372 2.372-2.372h66.182v50.395h-66.182c-1.308 0-2.372-1.064-2.372-2.372z"/><path d="m58.293 224.968c0-4.142-3.358-7.5-7.5-7.5s-7.5 3.358-7.5 7.5c0 4.142 3.358 7.5 7.5 7.5s7.5-3.358 7.5-7.5z"/><path d="m496.382 217.468h-147.86c-4.143 0-7.5 3.358-7.5 7.5s3.357 7.5 7.5 7.5h9.609l-19.485 95.15h-48.026l19.485-95.15h5.731c4.143 0 7.5-3.358 7.5-7.5s-3.357-7.5-7.5-7.5h-205.888l375.379-100.583c6.622-1.774 10.567-8.606 8.793-15.231l-20.844-77.789c-2.224-8.303-7.549-15.242-14.993-19.54-7.443-4.297-16.114-5.439-24.419-3.215l-215.527 57.75c-4.001 1.072-6.375 5.184-5.303 9.185 1.071 4.001 5.185 6.374 9.186 5.304l7.71-2.066 5.805 96.951-46.39 12.43-5.806-96.95 6.952-1.863c4.001-1.072 6.375-5.185 5.303-9.185-1.072-4.001-5.184-6.373-9.185-5.304l-140.242 37.577c-8.303 2.225-15.242 7.55-19.54 14.993-4.298 7.444-5.439 16.117-3.214 24.419l9.734 36.331c-17.645 6.975-30.166 24.19-30.166 44.286 0 23.701 17.409 43.406 40.11 47.014v113.911c0 4.142 3.357 7.5 7.5 7.5s7.5-3.358 7.5-7.5v-43.275h435.526v137.202c0 9.473-7.707 17.18-17.18 17.18h-401.165c-9.474 0-17.18-7.707-17.18-17.18v-61.241c0-4.142-3.357-7.5-7.5-7.5s-7.5 3.358-7.5 7.5v61.241c0 17.744 14.436 32.18 32.18 32.18h401.165c17.744 0 32.18-14.436 32.18-32.18v-249.916c.001-6.857-5.577-12.436-12.435-12.436zm-122.94 15h40.549l-19.485 95.15h-40.55zm-98.133 95.15h-40.55l19.485-95.15h40.549zm-103.887 0 19.485-95.15h48.026l-19.485 95.15zm-55.861 0 19.485-95.15h40.549l-19.485 95.15zm229.505-287.185 5.805 96.951-46.39 12.43-5.805-96.951zm53.957-14.458 5.806 96.951-39.169 10.495-5.805-96.951zm38.723-10.376c4.428-1.188 9.061-.58 13.036 1.716 3.975 2.294 6.817 5.999 8.005 10.432l20.18 75.313-59.35 15.903-5.806-96.951zm-193.027 51.722 39.169-10.495 5.805 96.951-39.168 10.495zm-70.163 117.306-39.168 10.495-5.806-96.951 39.168-10.495zm-136.454-44.158c-1.188-4.432-.578-9.062 1.716-13.036 2.295-3.974 6-6.817 10.432-8.004l64.543-17.294 5.806 96.951-26.112 6.997c-7.326-16.882-24.15-28.724-43.695-28.724-.935 0-1.861.034-2.783.088zm-19.92 84.499c0-17.981 14.629-32.61 32.61-32.61 17.982 0 32.611 14.629 32.611 32.61s-14.629 32.61-32.611 32.61c-17.981 0-32.61-14.629-32.61-32.61zm40.11 47.014c20.257-3.22 36.295-19.257 39.515-39.514h21.928l-19.485 95.15h-41.958zm351.527 55.636 19.485-95.15h64.515v95.15z"/></g></svg>