<svg id="Capa_1" enable-background="new 0 0 512 512" height="512" viewBox="0 0 512 512" width="512" xmlns="http://www.w3.org/2000/svg"><path d="m504.5 48.44h-80.772v-22.468c0-14.322-11.65-25.972-25.971-25.972-14.321 0-25.972 11.65-25.972 25.972v22.468h-42.561v-22.468c0-14.322-11.651-25.972-25.972-25.972s-25.972 11.65-25.972 25.972v22.468h-42.56v-22.468c0-14.322-11.651-25.972-25.972-25.972s-25.972 11.65-25.972 25.972v22.468h-42.561v-22.468c0-14.322-11.651-25.972-25.972-25.972s-25.972 11.65-25.972 25.972v22.468h-17.182c-3.46-16.228-17.902-28.44-35.148-28.44-19.818 0-35.941 16.123-35.941 35.94 0 19.818 16.123 35.941 35.941 35.941 17.246 0 31.688-12.212 35.148-28.441h17.183v34.57h-17.4c-12.145 0-22.026 9.881-22.026 22.025v15.285c0 4.143 3.358 7.5 7.5 7.5s7.5-3.357 7.5-7.5v-15.285c0-3.874 3.152-7.025 7.026-7.025h17.399v20.087c0 14.321 11.651 25.972 25.972 25.972s25.972-11.65 25.972-25.972v-20.087h42.561v20.087c0 14.321 11.651 25.972 25.972 25.972s25.972-11.65 25.972-25.972v-20.087h42.561v20.087c0 14.321 11.651 25.972 25.972 25.972s25.972-11.65 25.972-25.972v-20.087h42.561v20.087c0 14.321 11.651 25.972 25.972 25.972s25.972-11.65 25.972-25.972v-20.087h17.399c3.874 0 7.026 3.151 7.026 7.025v69.457c-13.976 1.327-22.267 6.286-29.641 10.718-7.972 4.791-14.856 8.929-29.415 8.929-14.558 0-21.442-4.138-29.413-8.929-5.088-3.058-10.855-6.524-18.621-8.716-3.985-1.126-8.13 1.193-9.255 5.181-1.125 3.986 1.194 8.13 5.18 9.255 5.834 1.647 10.271 4.313 14.969 7.137 8.635 5.19 18.421 11.072 37.14 11.072 18.72 0 28.506-5.882 37.142-11.072 6.487-3.898 12.215-7.333 21.914-8.502v48.619c-13.976 1.327-22.267 6.286-29.641 10.717-7.971 4.791-14.855 8.929-29.414 8.929-14.558 0-21.442-4.138-29.414-8.929-8.635-5.189-18.421-11.071-37.141-11.071-18.718 0-28.505 5.882-37.14 11.071-7.971 4.791-14.855 8.929-29.412 8.929s-21.44-4.138-29.411-8.928c-8.634-5.19-18.421-11.072-37.139-11.072-18.717 0-28.503 5.882-37.137 11.072-7.97 4.79-14.854 8.928-29.41 8.928-14.557 0-21.44-4.138-29.411-8.929-7.382-4.437-15.661-9.391-29.639-10.719v-48.615c9.695 1.169 15.428 4.602 21.911 8.499 8.634 5.19 18.42 11.072 37.138 11.072 18.717 0 28.503-5.882 37.137-11.072 7.97-4.79 14.854-8.928 29.41-8.928 14.557 0 21.44 4.138 29.411 8.928 8.634 5.19 18.421 11.072 37.139 11.072s28.505-5.882 37.14-11.072c4.757-2.858 9.25-5.56 15.202-7.202 3.993-1.102 6.336-5.232 5.235-9.225-1.102-3.993-5.233-6.335-9.225-5.234-7.931 2.188-13.779 5.704-18.939 8.805-7.971 4.791-14.855 8.929-29.412 8.929s-21.44-4.138-29.411-8.928c-8.634-5.19-18.421-11.072-37.139-11.072-18.717 0-28.503 5.882-37.137 11.072-7.97 4.79-14.854 8.928-29.41 8.928-14.557 0-21.44-4.138-29.411-8.929-7.376-4.433-15.664-9.39-29.639-10.717v-21.486c0-4.143-3.358-7.5-7.5-7.5s-7.5 3.357-7.5 7.5v269.415c0 19.695 7.71 38.343 21.709 52.509 14.065 14.231 32.653 22.069 52.34 22.069 18.661 0 28.428-5.685 37.046-10.702 7.989-4.65 14.888-8.666 29.501-8.666 14.614 0 21.513 4.016 29.502 8.666 8.618 5.017 18.387 10.702 37.048 10.702 18.662 0 28.43-5.685 37.049-10.702 7.989-4.65 14.889-8.666 29.503-8.666 14.615 0 21.515 4.016 29.505 8.666 8.619 5.017 18.387 10.702 37.05 10.702 19.689 0 38.277-7.837 52.343-22.067 14.001-14.166 21.712-32.814 21.712-52.512v-317.386c0-12.145-9.881-22.025-22.026-22.025h-17.399v-34.57h80.771c4.142 0 7.5-3.357 7.5-7.5 0-4.142-3.358-7.5-7.5-7.5zm-468.559 28.442c-11.547 0-20.941-9.395-20.941-20.942 0-11.546 9.394-20.94 20.941-20.94s20.941 9.394 20.941 20.94c0 11.547-9.394 20.942-20.941 20.942zm49.816 199.876c8.634 5.189 18.42 11.072 37.138 11.072 18.717 0 28.503-5.882 37.137-11.072 7.97-4.79 14.854-8.928 29.41-8.928 14.557 0 21.44 4.138 29.411 8.928 8.634 5.19 18.421 11.072 37.139 11.072s28.505-5.882 37.14-11.071c7.971-4.791 14.855-8.929 29.412-8.929 14.558 0 21.442 4.138 29.414 8.929 8.635 5.189 18.421 11.071 37.141 11.071 18.719 0 28.506-5.882 37.141-11.072 6.487-3.899 12.215-7.333 21.914-8.501v54.276c-13.978 1.327-22.259 6.281-29.641 10.718-7.971 4.791-14.855 8.929-29.414 8.929-14.558 0-21.442-4.138-29.414-8.929-8.635-5.19-18.421-11.071-37.141-11.071-18.718 0-28.505 5.882-37.14 11.071-7.971 4.791-14.855 8.929-29.412 8.929s-21.44-4.138-29.411-8.928c-8.634-5.191-18.421-11.072-37.139-11.072-18.717 0-28.503 5.882-37.137 11.072-7.97 4.79-14.854 8.928-29.41 8.928-14.557 0-21.44-4.138-29.411-8.929-7.379-4.435-15.663-9.39-29.639-10.718v-54.271c9.693 1.17 15.436 4.603 21.912 8.496zm345.016 202.63c-11.225 11.357-26.026 17.612-41.674 17.612-14.615 0-21.515-4.016-29.504-8.666-8.619-5.017-18.388-10.702-37.05-10.702s-28.43 5.686-37.049 10.702c-7.989 4.65-14.889 8.666-29.503 8.666s-21.513-4.016-29.502-8.666c-8.618-5.017-18.387-10.702-37.048-10.702s-28.428 5.686-37.046 10.702c-7.989 4.65-14.888 8.666-29.501 8.666-15.647 0-30.446-6.255-41.671-17.613-11.206-11.34-17.378-26.243-17.378-41.965v-36.117c9.691 1.169 15.435 4.603 21.911 8.494 4.333 2.604 8.812 5.298 14.58 7.409.851.311 1.722.459 2.578.459 3.058 0 5.931-1.885 7.043-4.924 1.424-3.89-.575-8.197-4.464-9.621-4.424-1.619-8.108-3.834-12.01-6.18-7.383-4.437-15.66-9.392-29.638-10.719v-48.612c9.693 1.169 15.432 4.602 21.911 8.496 8.634 5.191 18.42 11.072 37.138 11.072 18.717 0 28.503-5.882 37.137-11.072 7.97-4.79 14.854-8.928 29.41-8.928 14.557 0 21.44 4.138 29.411 8.928 8.634 5.191 18.421 11.072 37.139 11.072s28.505-5.882 37.14-11.071c7.971-4.791 14.855-8.929 29.412-8.929 14.558 0 21.442 4.138 29.414 8.929 8.635 5.19 18.421 11.071 37.141 11.071 18.719 0 28.506-5.882 37.141-11.071 6.477-3.893 12.22-7.326 21.914-8.496v48.613c-13.976 1.328-22.262 6.282-29.641 10.717-7.972 4.791-14.856 8.929-29.415 8.929-14.558 0-21.442-4.138-29.414-8.929-8.635-5.19-18.421-11.071-37.141-11.071-18.718 0-28.505 5.882-37.14 11.071-7.971 4.791-14.855 8.929-29.412 8.929s-21.44-4.138-29.411-8.929c-8.634-5.19-18.421-11.071-37.139-11.071-18.717 0-28.503 5.882-37.137 11.072-6.042 3.631-11.26 6.768-19.607 8.173-4.085.686-6.839 4.556-6.151 8.641.688 4.084 4.555 6.844 8.641 6.15 11.149-1.876 18.425-6.249 24.845-10.108 7.97-4.79 14.854-8.928 29.41-8.928 14.557 0 21.44 4.138 29.411 8.929 8.634 5.189 18.421 11.071 37.139 11.071s28.505-5.882 37.14-11.071c7.971-4.791 14.855-8.929 29.412-8.929 14.558 0 21.442 4.138 29.414 8.929 8.635 5.189 18.421 11.071 37.141 11.071 18.719 0 28.506-5.882 37.141-11.071 6.481-3.896 12.219-7.328 21.914-8.498v36.119c-.001 15.724-6.174 30.627-17.382 41.967zm-305.558-346.291c0 6.05-4.922 10.972-10.972 10.972s-10.972-4.922-10.972-10.972v-107.125c0-6.05 4.922-10.972 10.972-10.972s10.972 4.922 10.972 10.972zm15-35.087v-34.57h42.561v34.57zm79.505 35.087c0 6.05-4.922 10.972-10.972 10.972s-10.972-4.922-10.972-10.972v-107.125c0-6.05 4.922-10.972 10.972-10.972s10.972 4.922 10.972 10.972zm15-35.087v-34.57h42.561v34.57zm79.504 35.087c0 6.05-4.922 10.972-10.972 10.972s-10.972-4.922-10.972-10.972v-107.125c0-6.05 4.922-10.972 10.972-10.972s10.972 4.922 10.972 10.972zm15-35.087v-34.57h42.561v34.57zm79.504 35.087c0 6.05-4.922 10.972-10.972 10.972s-10.972-4.922-10.972-10.972v-107.125c0-6.05 4.922-10.972 10.972-10.972s10.972 4.922 10.972 10.972z"/></svg>