<svg id="Capa_1" enable-background="new 0 0 512 512" height="512" viewBox="0 0 512 512" width="512" xmlns="http://www.w3.org/2000/svg"><g><path d="m346.107 191.035c-16.449 0-29.833 13.383-29.833 29.834 0 16.449 13.383 29.833 29.833 29.833s29.833-13.383 29.833-29.833c-.001-16.451-13.384-29.834-29.833-29.834zm0 44.666c-8.179 0-14.832-6.654-14.832-14.832 0-8.179 6.653-14.833 14.832-14.833s14.832 6.654 14.832 14.833-6.653 14.832-14.832 14.832z"/><path d="m165.892 191.035c-16.449 0-29.832 13.383-29.832 29.834 0 16.449 13.383 29.833 29.832 29.833 16.45 0 29.833-13.383 29.833-29.833 0-16.451-13.383-29.834-29.833-29.834zm0 44.666c-8.178 0-14.832-6.654-14.832-14.832 0-8.179 6.654-14.833 14.832-14.833 8.179 0 14.833 6.654 14.833 14.833s-6.654 14.832-14.833 14.832z"/><path d="m256 112.587c16.449 0 29.833-13.383 29.833-29.833 0-16.451-13.383-29.834-29.833-29.834s-29.833 13.383-29.833 29.834c0 16.45 13.383 29.833 29.833 29.833zm0-44.665c8.179 0 14.832 6.654 14.832 14.833s-6.654 14.832-14.832 14.832-14.832-6.654-14.832-14.832c-.001-8.179 6.653-14.833 14.832-14.833z"/><path d="m256 174.943c-13.225 0-23.984 10.76-23.984 23.985s10.759 23.984 23.984 23.984 23.985-10.759 23.985-23.984c-.001-13.225-10.761-23.985-23.985-23.985zm0 32.968c-4.954 0-8.984-4.03-8.984-8.984s4.03-8.984 8.984-8.984 8.984 4.03 8.984 8.984-4.03 8.984-8.984 8.984z"/><path d="m406.44 195.889c1.418-3.307 2.162-6.899 2.162-10.605 0-2.644-.382-5.228-1.114-7.694 12.506-14.904 17.998-34.231 15.113-53.718-1.118-7.547-6.94-13.369-14.488-14.488-17.848-2.645-36.043 1.993-50.4 12.524-.985-3.314-1.193-7.451-1.405-11.829-.368-7.649-.785-16.317-5.859-23.289-3.62-4.974-8.755-7.964-13.995-10.249 1.158-1.012 2.294-2.049 3.381-3.137 15.173-15.171 22.35-36.924 19.201-58.188-1.118-7.548-6.94-13.369-14.487-14.488-21.263-3.152-43.017 4.028-58.188 19.2-.344.345-.675.707-1.014 1.061-1.498.354-2.96.828-4.368 1.431-3.979-9.895-13.677-16.899-24.979-16.899-11.303 0-21 7.004-24.98 16.901-1.411-.605-2.876-1.079-4.377-1.434-.337-.352-.662-.716-1.005-1.059-15.173-15.171-36.928-22.352-58.188-19.199-7.548 1.118-13.37 6.94-14.489 14.489-.443 2.997-.689 6.054-.732 9.085-.057 4.142 3.253 7.546 7.396 7.604.036.001.07.001.106.001 4.093 0 7.441-3.29 7.498-7.396.033-2.369.225-4.757.571-7.098.141-.947.9-1.706 1.848-1.847 13.31-1.969 26.423 1.044 37.269 8.317-1.994 1.161-3.854 2.582-5.53 4.257-7.996 7.996-9.899 19.813-5.708 29.628-4.022 1.615-7.553 4.186-10.345 7.414-.877-.77-1.739-1.558-2.566-2.385-3.175-3.175-5.93-6.722-8.189-10.542-2.108-3.564-6.707-4.746-10.273-2.639-3.566 2.108-4.747 6.707-2.639 10.274 2.899 4.902 6.43 9.45 10.494 13.515 1.088 1.088 2.225 2.124 3.382 3.136-5.24 2.286-10.375 5.276-13.994 10.25-5.074 6.972-5.492 15.641-5.86 23.288-.211 4.379-.419 8.516-1.404 11.83-14.357-10.533-32.549-15.171-50.399-12.524-7.548 1.118-13.37 6.94-14.488 14.488-2.886 19.482 2.618 38.838 15.137 53.748-1.77 5.989-1.436 12.472 1.037 18.262-9.904 3.977-16.914 13.678-16.914 24.986 0 11.302 7.005 20.999 16.901 24.98-1.417 3.306-2.161 6.898-2.161 10.604 0 7.188 2.799 13.946 7.882 19.029 7.996 7.996 19.812 9.899 29.627 5.707 2.558 6.369 7.491 11.529 13.689 14.409l3.034 18.6c.6 3.68 3.782 6.294 7.393 6.294.401 0 .808-.032 1.217-.099 4.088-.667 6.861-4.522 6.195-8.61l-2.287-14.022c9.437-1.506 17.255-7.932 20.724-16.561 3.306 1.418 6.898 2.161 10.604 2.161 7.188 0 13.946-2.799 19.028-7.881 5.083-5.083 7.882-11.841 7.882-19.029 0-3.365-.619-6.633-1.793-9.681 1.033.148 2.078.249 3.141.249 2.346 0 4.634-.367 6.801-1.075 3.61 7.088 10.98 11.954 19.464 11.954 8.489 0 15.863-4.871 19.47-11.966 3.211 1.046 6.617 1.322 9.934.844-1.172 3.046-1.79 6.312-1.79 9.675 0 7.188 2.799 13.946 7.881 19.029 5.083 5.082 11.841 7.881 19.03 7.881 3.705 0 7.297-.743 10.604-2.161 3.47 8.629 11.287 15.055 20.723 16.561l-8.366 51.289c-4.452 27.296-27.745 47.579-55.383 48.228-.076.002-.149.013-.224.017h-43.758c-.075-.004-.148-.015-.224-.017-27.639-.648-50.931-20.931-55.383-48.228l-.815-4.998c-.667-4.088-4.523-6.862-8.609-6.195-4.088.667-6.862 4.522-6.195 8.61l.815 4.998c4.551 27.903 24.717 49.989 50.757 57.788-1.44 2.887-2.272 6.128-2.272 9.568 0 9.85 6.659 18.157 15.706 20.704l-13.562 57.086c-.889 3.742-.031 7.62 2.355 10.639 2.385 3.019 5.96 4.75 9.807 4.75h58.999c3.847 0 7.422-1.731 9.807-4.75 2.386-3.018 3.244-6.896 2.354-10.639l-3.558-14.977c-.956-4.029-4.994-6.524-9.03-5.564-4.03.957-6.521 5-5.564 9.031l2.827 11.897h-52.671l13.459-56.653h25.754l2.866 12.068c.818 3.447 3.896 5.769 7.291 5.769.573 0 1.156-.066 1.739-.205 4.03-.957 6.521-5 5.564-9.03l-2.238-9.422c9.047-2.548 15.705-10.854 15.705-20.704 0-3.439-.831-6.681-2.272-9.567 26.04-7.799 46.206-29.885 50.758-57.788l9.113-55.867c6.198-2.881 11.131-8.04 13.689-14.409 9.815 4.191 21.631 2.287 29.628-5.707 5.082-5.083 7.882-11.841 7.882-19.029 0-3.706-.744-7.298-2.162-10.605 9.897-3.979 16.901-13.677 16.901-24.979 0-11.306-7.004-21.004-16.901-24.983zm-128.162 229.457h-44.558c-3.598 0-6.526-2.928-6.526-6.526s2.928-6.526 6.526-6.526h44.558c3.598 0 6.525 2.928 6.525 6.526.001 3.598-2.927 6.526-6.525 6.526zm127.637-301.123c.947.141 1.707.899 1.848 1.847 2.03 13.709-1.267 27.305-9.08 38.367-7.881-6.431-18.576-7.739-27.591-3.888-2.84-7.07-8.605-12.65-15.783-15.273 1.58-2.142 3.317-4.178 5.223-6.083 12.006-12.007 28.545-17.461 45.383-14.97zm-67.595-28.606c2.436 3.347 2.713 9.097 3.006 15.185.258 5.348.525 10.877 2.241 16.165.666 2.052 1.562 4.011 2.51 5.804-3.182 3.754-5.931 7.823-8.222 12.163-7.616 2.46-13.761 8.225-16.727 15.601-3.307-1.418-6.898-2.162-10.605-2.162-3.563 0-7.02.69-10.22 2.003-.763-1.116-1.627-2.173-2.603-3.15-6.002-6.003-14.662-7.77-22.229-5.305-.034-.066-.073-.128-.107-.194 2.411-2.507 4.33-5.439 5.619-8.655 9.814 4.192 21.631 2.289 29.63-5.706 7.995-7.996 9.898-19.814 5.707-29.628 7.397-2.969 13.177-9.134 15.63-16.775 2.725 1.302 4.998 2.769 6.37 4.654zm4.032-80.049c.947.141 1.706.899 1.847 1.847 2.493 16.836-2.962 33.378-14.969 45.383-.826.827-1.688 1.615-2.565 2.385-2.789-3.224-6.316-5.793-10.333-7.409 1.418-3.307 2.162-6.897 2.162-10.603 0-7.189-2.8-13.946-7.882-19.03-1.675-1.675-3.536-3.097-5.531-4.257 10.845-7.273 23.959-10.288 37.271-8.316zm-136.676 55.276h3.462c3.034 0 5.768-1.827 6.929-4.63s.519-6.028-1.626-8.174l-2.448-2.448c-4.644-4.644-4.644-12.2 0-16.843 2.249-2.25 5.241-3.489 8.422-3.489s6.172 1.239 8.422 3.489l2.448 2.448c2.146 2.145 5.373 2.788 8.174 1.625 2.803-1.16 4.63-3.896 4.63-6.929v-3.462c0-6.567 5.343-11.91 11.91-11.91 6.568 0 11.91 5.343 11.91 11.91v3.462c0 3.033 1.827 5.769 4.63 6.929 2.803 1.163 6.028.52 8.174-1.625l2.448-2.448c4.643-4.645 12.199-4.645 16.842 0 4.645 4.644 4.645 12.199 0 16.843l-2.448 2.448c-2.145 2.146-2.786 5.371-1.625 8.174 1.16 2.803 3.896 4.63 6.929 4.63h3.463c6.568 0 11.91 5.343 11.91 11.91 0 6.566-5.343 11.909-11.91 11.909h-3.463c-3.033 0-5.769 1.827-6.929 4.63-1.161 2.803-.52 6.028 1.625 8.174l2.448 2.448c4.645 4.644 4.645 12.2 0 16.843-4.643 4.645-12.2 4.645-16.842 0l-2.448-2.448c-2.146-2.145-5.372-2.788-8.174-1.625-2.803 1.16-4.63 3.896-4.63 6.929v3.462c0 3.253-1.333 6.318-3.605 8.534-2.563-1.059-5.365-1.656-8.306-1.656-2.942 0-5.743.596-8.306 1.656-2.272-2.213-3.604-5.274-3.604-8.534v-3.462c0-3.033-1.827-5.769-4.63-6.929-2.801-1.16-6.028-.52-8.174 1.625l-2.448 2.449c-2.25 2.249-5.24 3.487-8.422 3.487s-6.173-1.238-8.422-3.488c-4.644-4.644-4.644-12.199 0-16.843l2.448-2.448c2.145-2.146 2.787-5.371 1.626-8.174s-3.896-4.63-6.929-4.63h-3.462c-6.567 0-11.91-5.343-11.91-11.909.001-6.567 5.344-11.91 11.911-11.91zm-35.004 39.957c.294-6.087.57-11.837 3.006-15.184 1.373-1.886 3.646-3.353 6.372-4.654 2.452 7.636 8.226 13.799 15.616 16.771-1.417 3.307-2.161 6.898-2.161 10.604 0 7.189 2.799 13.947 7.882 19.03 5.083 5.082 11.841 7.881 19.029 7.881 3.705 0 7.296-.743 10.602-2.16 1.288 3.214 3.206 6.14 5.616 8.643-.034.064-.072.125-.105.19-7.566-2.465-16.226-.697-22.229 5.307-.976.976-1.84 2.033-2.603 3.149-3.2-1.313-6.657-2.003-10.221-2.003-3.706 0-7.297.744-10.604 2.162-2.966-7.376-9.111-13.141-16.728-15.601-2.291-4.339-5.041-8.408-8.223-12.163.944-1.787 1.841-3.745 2.51-5.804 1.717-5.289 1.984-10.819 2.241-16.168zm-66.436 15.269c.141-.947.9-1.706 1.848-1.847 16.833-2.492 33.376 2.963 45.383 14.969 1.906 1.905 3.642 3.941 5.222 6.083-7.173 2.621-12.936 8.195-15.777 15.26-3.306-1.418-6.898-2.162-10.603-2.162-6.27 0-12.212 2.132-17.002 6.049-7.804-11.061-11.099-24.66-9.071-38.352zm105.662 138.803c-4.644 4.645-12.2 4.645-16.844 0l-2.448-2.448c-2.144-2.145-5.371-2.786-8.174-1.625-2.803 1.16-4.63 3.895-4.63 6.929v3.462c0 6.568-5.343 11.91-11.91 11.91s-11.91-5.343-11.91-11.91v-3.462c0-3.033-1.827-5.769-4.63-6.929-2.8-1.161-6.028-.52-8.173 1.625l-2.448 2.448c-4.644 4.645-12.2 4.645-16.844 0-4.644-4.644-4.644-12.199 0-16.843l2.448-2.448c2.145-2.146 2.787-5.371 1.626-8.174s-3.896-4.63-6.929-4.63h-3.463c-6.567 0-11.91-5.343-11.91-11.909 0-6.568 5.343-11.91 11.91-11.91h3.463c3.034 0 5.768-1.827 6.929-4.63s.519-6.028-1.626-8.174l-2.448-2.448c-4.644-4.644-4.644-12.199 0-16.843 2.25-2.25 5.24-3.489 8.422-3.489 3.181 0 6.172 1.239 8.422 3.489l2.448 2.448c2.145 2.146 5.373 2.788 8.173 1.625 2.803-1.16 4.63-3.896 4.63-6.929v-3.462c0-6.568 5.343-11.91 11.91-11.91 6.568 0 11.91 5.343 11.91 11.91v3.462c0 3.033 1.827 5.769 4.63 6.929 2.803 1.163 6.029.521 8.174-1.625l2.448-2.448c4.081-4.083 10.41-4.573 15.036-1.48.173 1.395.461 2.762.892 4.081-7.088 3.609-11.955 10.98-11.955 19.464 0 8.485 4.866 15.854 11.954 19.464-.708 2.167-1.075 4.455-1.075 6.801 0 2.897.563 5.707 1.633 8.309-1.647.781-2.99 2.153-3.716 3.906-1.161 2.803-.519 6.029 1.626 8.174l2.448 2.448c2.25 2.249 3.488 5.24 3.488 8.422.001 3.18-1.238 6.171-3.487 8.42zm65.734-36.658c-2.145-2.146-5.37-2.789-8.174-1.628-2.803 1.161-4.631 3.896-4.631 6.93v2.556c0 3.765-3.062 6.827-6.827 6.827s-6.827-3.062-6.827-6.827v-2.556c0-3.033-1.828-5.769-4.631-6.93-.928-.384-1.902-.57-2.868-.57-1.952 0-3.871.763-5.306 2.197l-1.806 1.807c-1.29 1.29-3.004 2-4.828 2-1.823 0-3.538-.71-4.827-1.999-1.29-1.29-2-3.005-2-4.828 0-1.824.71-3.538 1.999-4.827l1.807-1.807c2.146-2.145 2.787-5.37 1.626-8.174-1.161-2.803-3.896-4.63-6.929-4.63h-2.556c-3.765 0-6.827-3.063-6.827-6.827s3.062-6.827 6.827-6.827h2.556c3.033 0 5.768-1.827 6.929-4.63 1.161-2.802.52-6.027-1.625-8.173l-1.808-1.809c-1.29-1.289-1.999-3.003-1.999-4.827 0-1.823.71-3.538 1.999-4.827 2.662-2.661 6.994-2.661 9.654-.001l1.807 1.808c2.146 2.146 5.373 2.786 8.174 1.627 2.803-1.161 4.631-3.896 4.631-6.93v-2.556c0-3.765 3.062-6.827 6.827-6.827s6.827 3.063 6.827 6.827v2.556c0 3.034 1.828 5.769 4.631 6.93 2.804 1.159 6.029.517 8.174-1.628l1.805-1.806c2.662-2.664 6.995-2.662 9.655 0 1.29 1.289 2 3.004 2 4.827s-.71 3.538-2.001 4.829l-1.807 1.808c-2.145 2.145-2.785 5.371-1.624 8.173s3.896 4.629 6.929 4.629h2.556c3.765 0 6.827 3.063 6.827 6.827s-3.063 6.827-6.827 6.827h-2.556c-3.033 0-5.769 1.827-6.929 4.63-1.161 2.803-.52 6.028 1.625 8.174l1.808 1.807c1.289 1.289 1.999 3.004 1.999 4.827s-.71 3.538-2 4.827c-2.662 2.662-6.993 2.662-9.654.002zm120.798 4.563h-3.462c-3.033 0-5.769 1.827-6.929 4.63-1.161 2.803-.52 6.029 1.625 8.174l2.448 2.448c4.645 4.644 4.645 12.199 0 16.843-4.643 4.644-12.2 4.645-16.843 0l-2.448-2.448c-2.147-2.146-5.371-2.789-8.174-1.625-2.803 1.16-4.63 3.895-4.63 6.929v3.462c0 6.568-5.343 11.91-11.91 11.91-6.566 0-11.909-5.343-11.909-11.91v-3.462c0-3.033-1.827-5.769-4.63-6.929-2.802-1.163-6.027-.52-8.174 1.625l-2.448 2.448c-4.644 4.646-12.201 4.644-16.843 0-2.25-2.249-3.488-5.24-3.488-8.421 0-3.182 1.238-6.173 3.488-8.422l2.448-2.448c2.145-2.146 2.786-5.371 1.625-8.174-.726-1.754-2.069-3.125-3.716-3.906 1.07-2.601 1.633-5.411 1.633-8.309 0-2.346-.367-4.634-1.074-6.801 7.088-3.609 11.954-10.98 11.954-19.464s-4.866-15.855-11.954-19.464c.431-1.321.719-2.691.891-4.088 1.941-1.302 4.224-2.002 6.614-2.002 3.182 0 6.172 1.239 8.422 3.49l2.45 2.448c2.145 2.143 5.366 2.785 8.173 1.624 2.802-1.161 4.629-3.896 4.629-6.929v-3.462c0-6.568 5.343-11.91 11.909-11.91 6.568 0 11.91 5.343 11.91 11.91v3.462c0 3.033 1.827 5.769 4.63 6.929 2.803 1.162 6.027.52 8.174-1.625l2.448-2.448c4.644-4.646 12.201-4.644 16.843 0 4.645 4.644 4.645 12.199 0 16.843l-2.448 2.448c-2.145 2.146-2.786 5.371-1.625 8.174 1.16 2.803 3.896 4.63 6.929 4.63h3.462c6.568 0 11.91 5.343 11.91 11.91s-5.343 11.91-11.91 11.91z"/></g></svg>