<svg id="Capa_1" enable-background="new 0 0 512 512" height="512" viewBox="0 0 512 512" width="512" xmlns="http://www.w3.org/2000/svg"><g><path d="m256 32.757c4.143 0 7.5-3.357 7.5-7.5v-17.757c0-4.143-3.357-7.5-7.5-7.5s-7.5 3.357-7.5 7.5v17.757c0 4.142 3.357 7.5 7.5 7.5z"/><path d="m256 419.243c-4.143 0-7.5 3.357-7.5 7.5v17.757c0 4.143 3.357 7.5 7.5 7.5s7.5-3.357 7.5-7.5v-17.757c0-4.142-3.357-7.5-7.5-7.5z"/><path d="m37.5 233.5h17.757c4.143 0 7.5-3.357 7.5-7.5s-3.357-7.5-7.5-7.5h-17.757c-4.143 0-7.5 3.357-7.5 7.5s3.357 7.5 7.5 7.5z"/><path d="m456.743 233.5h17.757c4.143 0 7.5-3.357 7.5-7.5s-3.357-7.5-7.5-7.5h-17.757c-4.143 0-7.5 3.357-7.5 7.5s3.358 7.5 7.5 7.5z"/><path d="m108.75 89.357c1.465 1.464 3.385 2.196 5.304 2.196s3.839-.732 5.304-2.196c2.929-2.93 2.929-7.678 0-10.607l-12.557-12.557c-2.93-2.928-7.678-2.928-10.607 0-2.929 2.93-2.929 7.678 0 10.607z"/><path d="m397.946 91.554c1.919 0 3.839-.732 5.304-2.196l12.557-12.557c2.929-2.93 2.929-7.678 0-10.607-2.93-2.928-7.678-2.928-10.607 0l-12.557 12.556c-2.929 2.93-2.929 7.678 0 10.607 1.464 1.464 3.384 2.197 5.303 2.197z"/><path d="m478.281 397.038-81.362-50.806c28.639-33.52 44.323-75.896 44.323-120.232 0-102.144-83.1-185.243-185.243-185.243-46.392 0-90.779 17.23-124.987 48.519-33.986 31.085-55.088 73.355-59.42 119.024-.391 4.123 2.635 7.783 6.759 8.175 4.122.39 7.783-2.635 8.175-6.759 3.979-41.959 23.374-80.801 54.611-109.372 31.435-28.752 72.228-44.587 114.863-44.587 93.872 0 170.243 76.371 170.243 170.243 0 41.499-14.954 81.124-42.205 112.189l-1.303-.814c-4.056-2.533-9.038-3.296-13.666-2.096-4.62 1.199-8.593 4.28-10.907 8.453l-.293-.173c-4.146-2.442-6.721-6.948-6.721-11.76v-32.037c0-4.143-3.357-7.5-7.5-7.5s-7.5 3.357-7.5 7.5v32.038c0 10.099 5.405 19.557 14.104 24.683l.653.385-26.338 47.686-25.049-34.202c-2.731-3.728-7.119-5.952-11.738-5.952-13.388 0-24.28-10.893-24.28-24.28v-124.734c0-5.602 4.557-10.158 10.158-10.158s10.158 4.557 10.158 10.158v56.156c0 4.143 3.357 7.5 7.5 7.5s7.5-3.357 7.5-7.5v-56.156c0-12.796-9.605-23.384-21.983-24.951l-11.9-78.574c-.42-2.776.982-5.488 3.491-6.75 1.608-.808 3.424-.913 5.117-.301 1.691.615 3.016 1.863 3.73 3.516l57.759 133.668c.742 1.719 1.119 3.541 1.119 5.415v19.497c0 4.142 3.357 7.5 7.5 7.5s7.5-3.358 7.5-7.5v-19.497c0-3.932-.79-7.755-2.35-11.364l-57.759-133.668c-2.334-5.402-6.845-9.653-12.376-11.664-5.531-2.01-11.721-1.647-16.979.998-2.157 1.085-4.062 2.499-5.685 4.15-1.623-1.652-3.528-3.065-5.685-4.15-5.258-2.645-11.448-3.01-16.978-.998-5.532 2.01-10.043 6.262-12.377 11.664l-57.759 133.668c-1.56 3.609-2.35 7.433-2.35 11.364v84.391c0 4.811-2.575 9.317-6.722 11.761l-.292.172c-2.314-4.173-6.287-7.254-10.907-8.453-4.629-1.201-9.609-.439-13.666 2.096l-1.303.814c-23.74-27.104-38.454-61.45-41.561-97.277-.357-4.127-3.998-7.193-8.119-6.824-4.127.357-7.183 3.993-6.824 8.119 3.311 38.186 18.727 74.828 43.623 104.026l-81.361 50.806c-5.153 3.219-8.23 8.768-8.23 14.844v82.616c0 9.649 7.851 17.5 17.5 17.5h174.13c6.257 0 11.892-3.217 15.071-8.606 3.181-5.389 3.273-11.876.248-17.354l-13.099-23.717c-2.003-3.626-6.566-4.942-10.191-2.939-3.626 2.003-4.941 6.565-2.94 10.191l13.099 23.717c.601 1.088.235 2.021-.035 2.48-.272.457-.912 1.228-2.154 1.228h-174.13c-1.379 0-2.5-1.121-2.5-2.5v-82.618c0-.868.439-1.661 1.176-2.121l95.546-59.663c.792-.496 1.562-.401 1.953-.3.389.102 1.107.392 1.56 1.211l49.664 89.921c2.003 3.625 6.563 4.942 10.191 2.939 3.626-2.003 4.941-6.565 2.939-10.191l-8.092-14.652 10.684-14.587c16.176 4.513 32.937 6.805 49.891 6.805s33.713-2.293 49.89-6.806l10.684 14.588-37.012 67.013c-3.025 5.479-2.933 11.966.248 17.354 3.18 5.39 8.815 8.606 15.071 8.606h174.13c9.649 0 17.5-7.851 17.5-17.5v-82.618c.001-6.075-3.076-11.624-8.23-14.843zm-222.281-243.992 6.062 40.025c-2.238 1.168-4.28 2.659-6.062 4.417-1.781-1.758-3.824-3.249-6.062-4.417zm-94.906 203.822.652-.384c8.7-5.127 14.105-14.585 14.105-24.684v-84.391c0-1.874.377-3.696 1.119-5.415l57.759-133.668c.714-1.652 2.038-2.9 3.729-3.515s3.509-.509 5.118.3c2.508 1.262 3.91 3.974 3.49 6.75l-11.9 78.574c-12.378 1.567-21.983 12.155-21.983 24.951v56.156c0 4.143 3.357 7.5 7.5 7.5s7.5-3.357 7.5-7.5v-56.156c0-5.602 4.557-10.158 10.158-10.158 5.602 0 10.158 4.557 10.158 10.158v124.733c0 13.388-10.892 24.28-24.28 24.28-4.619 0-9.007 2.225-11.739 5.953l-25.049 34.201zm94.906 39.375c-13.676 0-27.212-1.618-40.363-4.814l8.811-12.031c12.96-.074 24.447-6.462 31.552-16.232 7.105 9.77 18.592 16.157 31.552 16.232l8.81 12.029c-13.152 3.196-26.686 4.816-40.362 4.816zm215.512 98.257c0 1.379-1.121 2.5-2.5 2.5h-174.13c-1.242 0-1.882-.771-2.153-1.229-.27-.459-.636-1.392-.035-2.48l78.584-142.282-.001.001c.453-.819 1.172-1.11 1.561-1.212.39-.102 1.16-.196 1.953.3l95.546 59.663c.736.46 1.176 1.253 1.176 2.121v82.618z"/></g></svg>