<svg id="Capa_1" enable-background="new 0 0 512 512" height="512" viewBox="0 0 512 512" width="512" xmlns="http://www.w3.org/2000/svg"><g><path d="m238.737 284.622c-4.391-3.2-10.16-3.03-14.354.423l-73.974 60.902c-3.198 2.633-3.656 7.359-1.023 10.557 2.632 3.198 7.359 3.656 10.557 1.023l64.14-52.807-32.675 82.281c-2.099 5.287-.221 11.123 4.568 14.192 1.98 1.27 4.18 1.889 6.359 1.889 3.092 0 6.141-1.249 8.445-3.663l80.128-83.944-9.262 41.68c-.775 3.489.062 7.089 2.298 9.877s5.568 4.387 9.143 4.387h31.285c4.142 0 7.5-3.357 7.5-7.5s-3.358-7.5-7.5-7.5h-27.196l10.928-49.179c1.155-5.197-1.224-10.374-5.921-12.882-4.699-2.509-10.323-1.605-13.999 2.246l-76.611 80.259 31.152-78.444c2.006-5.051.403-10.595-3.988-13.797z"/><path d="m425.617 405.208c-19.473 0-35.315 15.842-35.315 35.314 0 19.473 15.842 35.314 35.315 35.314s35.314-15.842 35.314-35.314c.001-19.472-15.841-35.314-35.314-35.314zm0 55.629c-11.202 0-20.315-9.113-20.315-20.314s9.113-20.314 20.315-20.314 20.314 9.113 20.314 20.314c.001 11.201-9.112 20.314-20.314 20.314z"/><path d="m468.642 511.787c3.97 0 7.851-1.357 10.928-3.82 20.61-16.505 32.43-41.088 32.43-67.445 0-22.145-8.379-43.206-23.594-59.302-4.716-4.99-7.314-11.449-7.314-18.186v-.589h13.408c9.649 0 17.5-7.851 17.5-17.5v-18.562c0-9.649-7.851-17.5-17.5-17.5h-61.383v-47.072c1.231-.63 2.405-1.413 3.48-2.373 32.134-28.684 51.318-76.355 51.318-127.519 0-18.888-2.571-37.353-7.642-54.881-1.293-4.474-4.948-7.825-9.538-8.747l-21.152-4.249 11.652-13.235c3.625-4.117 4.15-10.045 1.308-14.749-7.393-12.235-16.12-22.884-25.938-31.65-6.265-5.594-15.709-5.597-21.97-.007-21.476 19.171-37.688 47.572-45.65 79.973-.989 4.022 1.471 8.085 5.494 9.073 4.018.983 8.085-1.472 9.073-5.493 7.247-29.489 21.833-55.188 41.073-72.363.547-.489 1.439-.484 1.99.007 8.293 7.403 15.736 16.372 22.147 26.679l-15.587 17.704c-2.471 2.807-3.263 6.752-2.068 10.295s4.215 6.201 7.881 6.938l27.301 5.485c4.398 15.73 6.626 32.28 6.626 49.221 0 43.326-14.745 83.684-39.798 110v-147.925c0-4.143-3.358-7.5-7.5-7.5s-7.5 3.357-7.5 7.5v147.927c-25.054-26.316-39.799-66.675-39.799-110 0-4.094.133-8.222.394-12.271.267-4.134-2.867-7.701-7.001-7.968-4.136-.265-7.701 2.867-7.968 7.001-.282 4.369-.425 8.822-.425 13.237 0 14.291 1.5 28.308 4.357 41.716h-156.295c-4.142 0-7.5 3.357-7.5 7.5s3.358 7.5 7.5 7.5h160.144c5.419 18.046 13.396 34.646 23.571 48.875-.008.145-.022.288-.022.435v70.937h-38.339c-9.649 0-17.5 7.851-17.5 17.5v18.562c0 9.649 7.851 17.5 17.5 17.5h13.408v.589c0 6.736-2.598 13.195-7.314 18.185-15.215 16.097-23.594 37.158-23.594 59.303 0 20.926 7.458 40.73 20.844 56.265h-308.895c-19.951-.001-36.183-16.232-36.183-36.183v-27.806c0-19.952 16.231-36.184 36.183-36.184s36.184 16.231 36.184 36.184v9.287c0 11.282 9.179 20.461 20.461 20.461s20.461-9.179 20.461-20.461v-61.394c0-4.142-3.358-7.5-7.5-7.5s-7.5 3.358-7.5 7.5v61.394c0 3.011-2.45 5.461-5.461 5.461s-5.461-2.45-5.461-5.461v-9.287c0-28.223-22.961-51.184-51.184-51.184-14.115 0-26.915 5.744-36.183 15.017v-227.505c0-27.098 22.046-49.143 49.145-49.143 27.098 0 49.144 22.046 49.144 49.143v179.992c0 4.143 3.358 7.5 7.5 7.5s7.5-3.357 7.5-7.5v-160.481h50.405c4.142 0 7.5-3.357 7.5-7.5s-3.358-7.5-7.5-7.5h-50.405v-4.511c0-35.369-28.775-64.143-64.145-64.143-35.369-.001-64.144 28.774-64.144 64.143v263.672 27.806c0 28.223 22.96 51.183 51.183 51.183h417.459zm-58.569-256.655c1.494 1.475 3.009 2.922 4.564 4.31 1.075.96 2.249 1.742 3.48 2.372v47.071h-8.044zm-55.839 89.814v-18.562c0-1.379 1.122-2.5 2.5-2.5h137.766c1.378 0 2.5 1.121 2.5 2.5v18.562c0 1.379-1.122 2.5-2.5 2.5h-137.766c-1.379 0-2.5-1.121-2.5-2.5zm123.271 46.578c12.572 13.3 19.495 30.701 19.495 48.998 0 21.778-9.771 42.093-26.805 55.735-.426.341-.978.529-1.553.529h-86.05c-.575 0-1.126-.189-1.552-.529-17.036-13.643-26.806-33.957-26.806-55.735 0-18.297 6.923-35.698 19.495-48.999 7.359-7.786 11.413-17.904 11.413-28.488v-.589h80.951v.589c-.001 10.584 4.053 20.702 11.412 28.489z"/></g></svg>