<svg id="Capa_1" enable-background="new 0 0 512 512" height="512" viewBox="0 0 512 512" width="512" xmlns="http://www.w3.org/2000/svg"><g><path d="m135.707 126.785c-15.256 0-27.668 10.631-27.668 23.698s12.412 23.698 27.668 23.698 27.668-10.631 27.668-23.698v-57.238l50.368-5.194v34.634c-3.799-1.684-8.104-2.641-12.669-2.641-15.256 0-27.668 10.631-27.668 23.698s12.412 23.698 27.668 23.698 27.669-10.631 27.669-23.698v-58.947c0-3.408-1.451-6.673-3.982-8.956s-5.927-3.398-9.318-3.042l-56.244 5.8c-6.171.637-10.824 5.795-10.824 11.999v38.83c-3.798-1.684-8.104-2.641-12.668-2.641zm65.368 25.655c-6.867 0-12.668-3.983-12.668-8.698s5.801-8.698 12.668-8.698 12.669 3.983 12.669 8.698c-.001 4.715-5.802 8.698-12.669 8.698zm-65.368 6.742c-6.867 0-12.668-3.983-12.668-8.698s5.801-8.698 12.668-8.698 12.668 3.983 12.668 8.698-5.801 8.698-12.668 8.698z"/><path d="m75.355 129.116c15.256 0 27.668-10.631 27.668-23.698v-57.238l25.954-2.677c4.12-.425 7.116-4.109 6.691-8.229s-4.114-7.123-8.23-6.69l-28.59 2.948c-6.171.637-10.824 5.795-10.824 11.999v38.83c-3.799-1.683-8.104-2.641-12.668-2.641-15.256 0-27.669 10.631-27.669 23.698s12.411 23.698 27.668 23.698zm0-32.396c6.867 0 12.668 3.983 12.668 8.698s-5.801 8.698-12.668 8.698-12.669-3.983-12.669-8.698 5.802-8.698 12.669-8.698z"/><path d="m473.232 38.637h-4.671c-7 0-13.58-2.729-18.526-7.683s-7.664-11.539-7.653-18.542c.005-3.299-1.281-6.406-3.62-8.749-2.36-2.362-5.498-3.663-8.836-3.663h-36.352c-.34 0-.672.031-1 .074-.328-.044-.66-.074-1-.074-49.316 0-89.438 40.121-89.438 89.438v18.175c-11.895 3.292-20.656 14.206-20.656 27.134s8.761 23.842 20.656 27.134v10.183c-11.895 3.292-20.656 14.206-20.656 27.134s8.761 23.842 20.656 27.134v10.183c-11.895 3.292-20.656 14.206-20.656 27.134 0 12.929 8.761 23.843 20.656 27.135v43.125c0 21.192-17.241 38.434-38.434 38.434-21.192 0-38.433-17.241-38.433-38.434v-70.054c13.882-1.017 24.867-12.628 24.867-26.765 0-14.803-12.043-26.846-26.845-26.846h-94.598c-4.142 0-7.5 3.357-7.5 7.5s3.358 7.5 7.5 7.5h94.598c6.531 0 11.845 5.314 11.845 11.846 0 6.531-5.314 11.846-11.845 11.846h-170.135c-6.531 0-11.845-5.314-11.845-11.846 0-6.531 5.314-11.846 11.845-11.846h42.367c4.142 0 7.5-3.357 7.5-7.5s-3.358-7.5-7.5-7.5h-42.367c-14.803 0-26.845 12.043-26.845 26.846 0 14.131 10.976 25.738 24.85 26.764v74.19c-.001 95.919 78.036 173.956 173.956 173.956s173.957-78.037 173.957-173.957v-13.719c0-4.143-3.357-7.5-7.5-7.5s-7.5 3.357-7.5 7.5v13.719c0 87.649-71.308 158.957-158.957 158.957s-158.957-71.308-158.957-158.957v-34.586h144.11v30.451c0 29.463 23.97 53.434 53.433 53.434 29.464 0 53.434-23.971 53.434-53.434v-43.125c9.505-2.631 17.004-10.129 19.634-19.635h15.989c4.142 0 7.5-3.357 7.5-7.5s-3.358-7.5-7.5-7.5h-15.989c-2.631-9.505-10.129-17.003-19.634-19.634v-10.183c9.505-2.631 17.003-10.129 19.634-19.634h15.989c4.142 0 7.5-3.357 7.5-7.5s-3.358-7.5-7.5-7.5h-15.989c-2.631-9.505-10.129-17.003-19.634-19.634v-10.183c9.505-2.631 17.003-10.129 19.634-19.634h15.989c4.142 0 7.5-3.357 7.5-7.5s-3.358-7.5-7.5-7.5h-15.989c-2.631-9.505-10.129-17.003-19.634-19.634v-18.174c0-38.515 29.399-70.291 66.938-74.062v276.29c0 4.143 3.357 7.5 7.5 7.5s7.5-3.357 7.5-7.5v-20.516h19.154v13.156c0 4.143 3.357 7.5 7.5 7.5s7.5-3.357 7.5-7.5v-170.216c0-4.142-3.357-7.5-7.5-7.5s-7.5 3.358-7.5 7.5v13.156h-19.154v-34.974h7.311c4.143 0 7.5-3.357 7.5-7.5s-3.357-7.5-7.5-7.5h-7.311v-62.272h28.385c.606 10.031 4.799 19.378 11.962 26.553 7.78 7.792 18.129 12.084 29.141 12.084h2.128v23.636h-31.632c-4.143 0-7.5 3.357-7.5 7.5s3.357 7.5 7.5 7.5h34.175c6.869 0 12.457-5.588 12.457-12.456v-28.724c-.002-6.868-5.59-12.456-12.459-12.456zm-407.072 249.82v-24.522h144.11v24.522zm256.633-24.809c0 7.255-5.902 13.157-13.156 13.157s-13.156-5.902-13.156-13.157c0-7.254 5.902-13.156 13.156-13.156s13.156 5.903 13.156 13.156zm0-64.451c0 7.254-5.902 13.156-13.156 13.156s-13.156-5.902-13.156-13.156 5.902-13.156 13.156-13.156 13.156 5.902 13.156 13.156zm0-64.451c0 7.254-5.902 13.156-13.156 13.156s-13.157-5.902-13.157-13.156 5.902-13.156 13.156-13.156 13.157 5.902 13.157 13.156zm76.281 121.403v-49.452h19.154v49.452zm19.154-113.903v49.451h-19.154v-49.451z"/></g></svg>