<svg id="Capa_1" enable-background="new 0 0 512 512" height="512" viewBox="0 0 512 512" width="512" xmlns="http://www.w3.org/2000/svg"><g><path d="m93.422 37.21c0 4.142 3.358 7.5 7.5 7.5s7.5-3.358 7.5-7.5c0-4.142-3.358-7.5-7.5-7.5s-7.5 3.358-7.5 7.5z"/><path d="m155.453 37.21c0 4.142 3.358 7.5 7.5 7.5s7.5-3.358 7.5-7.5c0-4.142-3.358-7.5-7.5-7.5s-7.5 3.358-7.5 7.5z"/><path d="m217.484 37.21c0 4.142 3.358 7.5 7.5 7.5s7.5-3.358 7.5-7.5c0-4.142-3.358-7.5-7.5-7.5s-7.5 3.358-7.5 7.5z"/><path d="m279.516 37.21c0 4.142 3.358 7.5 7.5 7.5s7.5-3.358 7.5-7.5c0-4.142-3.358-7.5-7.5-7.5s-7.5 3.358-7.5 7.5z"/><path d="m356.547 37.21c0-4.142-3.358-7.5-7.5-7.5s-7.5 3.358-7.5 7.5c0 4.142 3.358 7.5 7.5 7.5s7.5-3.358 7.5-7.5z"/><path d="m418.578 37.21c0-4.142-3.358-7.5-7.5-7.5s-7.5 3.358-7.5 7.5c0 4.142 3.358 7.5 7.5 7.5 4.143 0 7.5-3.358 7.5-7.5z"/><path d="m480.522 0h-133.225c-4.143 0-7.5 3.357-7.5 7.5s3.357 7.5 7.5 7.5h133.226c1.379 0 2.5 1.121 2.5 2.5v39.419c0 1.379-1.121 2.5-2.5 2.5h-449.045c-1.379 0-2.5-1.121-2.5-2.5v-39.419c0-1.379 1.121-2.5 2.5-2.5h283.132c4.142 0 7.5-3.357 7.5-7.5s-3.358-7.5-7.5-7.5h-283.132c-9.649 0-17.5 7.851-17.5 17.5v39.419c0 9.649 7.851 17.5 17.5 17.5h40.387l30.85 80.83c-33.278 35.034-53.522 80.169-57.357 128.503-.327 4.129 2.754 7.741 6.884 8.069 4.125.322 7.742-2.756 8.069-6.883 3.893-49.053 25.976-94.573 62.183-128.175 36.4-33.782 83.814-52.387 133.507-52.387 108.246 0 196.311 88.065 196.311 196.312 0 42.534-13.246 82.69-38.366 116.594l-30.991-29.148c17.806-25.769 27.191-55.877 27.191-87.447 0-84.997-69.149-154.146-154.146-154.146s-154.146 69.149-154.146 154.146c0 84.996 69.149 154.146 154.146 154.146 31.567 0 61.677-9.385 87.446-27.191l29.148 30.991c-33.905 25.121-74.063 38.367-116.594 38.367-49.829 0-97.338-18.693-133.776-52.637-36.254-33.771-58.263-79.478-61.974-128.701-.312-4.131-3.905-7.227-8.042-6.915-4.131.311-7.227 3.912-6.915 8.042 3.994 52.995 27.685 102.2 66.707 138.55 39.224 36.539 90.364 56.661 144 56.661 46.377 0 90.137-14.635 126.936-42.369l30.642 32.58c5.812 6.18 13.686 9.655 22.169 9.785.165.003.328.004.492.004 8.3 0 16.084-3.223 21.968-9.105 5.999-6 9.232-13.976 9.101-22.459-.13-8.482-3.605-16.355-9.785-22.168l-32.581-30.643c27.735-36.797 42.37-80.555 42.37-126.936 0-56.252-22.098-107.437-58.064-145.341l30.887-80.929h40.387c9.649 0 17.5-7.851 17.5-17.5v-39.419c0-9.649-7.85-17.5-17.5-17.5zm-28.212 480.666c.067 4.39-1.605 8.518-4.71 11.621-3.105 3.104-7.191 4.759-11.622 4.711-4.391-.067-8.464-1.866-11.473-5.064l-140.434-149.317c2.767-1.677 5.381-3.701 7.769-6.088 2.366-2.366 4.404-4.972 6.101-7.759l30.863 29.027c1.448 1.362 3.295 2.037 5.138 2.037 1.996 0 3.988-.792 5.464-2.361 2.838-3.018 2.692-7.765-.324-10.602l-9.508-8.942c5.819-11.49 8.88-24.262 8.88-37.24 0-45.465-36.988-82.453-82.453-82.453s-82.453 36.988-82.453 82.453 36.988 82.453 82.453 82.453c12.979 0 25.751-3.062 37.241-8.88l39.785 42.302c-22.832 15.234-49.3 23.271-77.026 23.271-76.726 0-139.146-62.421-139.146-139.146 0-76.726 62.42-139.146 139.146-139.146s139.146 62.421 139.146 139.146c0 27.728-8.036 54.194-23.271 77.026l-8.983-8.449c-3.017-2.838-7.764-2.694-10.602.324s-2.692 7.764.324 10.602l94.631 89.003c3.198 3.007 4.996 7.081 5.064 11.471zm-134.238-153.554-14.605-13.736c.281-1.952.427-3.936.427-5.944 0-10.991-4.28-21.325-12.053-29.098-16.046-16.044-42.151-16.043-58.195.001-16.043 16.044-16.043 42.15.001 58.194 8.022 8.022 18.56 12.032 29.097 12.032 1.981 0 3.962-.142 5.926-.426l13.754 14.624c-8.308 3.534-17.302 5.382-26.424 5.382-37.193 0-67.453-30.26-67.453-67.453s30.26-67.453 67.453-67.453 67.453 30.26 67.453 67.453c0 9.123-1.847 18.116-5.381 26.424zm-73.819-1.19c-10.196-10.195-10.195-26.785-.001-36.98 5.1-5.099 11.794-7.647 18.491-7.647 6.696 0 13.393 2.549 18.49 7.647 4.94 4.939 7.66 11.506 7.66 18.49 0 6.985-2.721 13.552-7.66 18.49-10.195 10.195-26.785 10.195-36.98 0zm153.297-181.991c-37.493-33.887-87.152-54.554-141.55-54.554-52.531 0-102.689 19.328-141.584 54.464l-26.496-69.422h336.16z"/></g></svg>