<svg id="Capa_1" enable-background="new 0 0 512 512" height="512" viewBox="0 0 512 512" width="512" xmlns="http://www.w3.org/2000/svg"><g><path d="m329.493 247.736h142.684c6.893 0 12.5-5.607 12.5-12.5v-42.358c0-6.893-5.607-12.5-12.5-12.5h-142.684c-6.893 0-12.5 5.607-12.5 12.5v13.68h-53.493v-26.386h34.576c6.127 0 11.837-3.296 14.902-8.604l42.076-72.879c3.064-5.308 3.064-11.901 0-17.207l-42.077-72.88c-3.064-5.306-8.774-8.602-14.901-8.602h-84.152c-6.127 0-11.837 3.296-14.902 8.604l-12.56 21.754c-2.071 3.587-.842 8.174 2.745 10.245 3.588 2.07 8.175.842 10.245-2.745l12.559-21.753c.394-.682 1.127-1.104 1.913-1.104h84.152c.786 0 1.52.423 1.912 1.104l42.077 72.88c.393.68.392 1.525-.001 2.206l-42.075 72.878c-.394.682-1.127 1.105-1.913 1.105h-84.152c-.786 0-1.52-.423-1.912-1.104l-42.076-72.879c-.393-.681-.393-1.526 0-2.207l13.145-22.768c2.071-3.587.842-8.174-2.745-10.245-3.59-2.07-8.175-.843-10.245 2.745l-13.143 22.767c-3.065 5.307-3.065 11.9-.001 17.208l42.077 72.88c3.064 5.307 8.774 8.603 14.901 8.603h34.575v26.386h-53.493v-13.68c0-6.893-5.607-12.5-12.5-12.5h-142.684c-6.893 0-12.5 5.607-12.5 12.5v42.358c0 6.893 5.607 12.5 12.5 12.5h142.684c6.893 0 12.5-5.607 12.5-12.5v-13.679h53.493v65.299h-53.493v-13.679c0-6.893-5.607-12.5-12.5-12.5h-142.684c-6.893 0-12.5 5.607-12.5 12.5v42.357c0 6.893 5.607 12.5 12.5 12.5h142.684c6.893 0 12.5-5.607 12.5-12.5v-13.679h53.493v65.3h-53.493v-13.68c0-6.893-5.607-12.5-12.5-12.5h-142.684c-6.893 0-12.5 5.607-12.5 12.5v42.358c0 6.893 5.607 12.5 12.5 12.5h142.684c6.893 0 12.5-5.607 12.5-12.5v-13.679h53.493v29.581c-.833.865-1.526 1.878-2.027 3.015l-7.254 16.452-17.875-1.944c-4.106-.445-8.081 1.575-10.144 5.146-2.061 3.571-1.819 8.028.616 11.355l10.621 14.508-10.622 14.509c-2.434 3.328-2.676 7.785-.614 11.355 2.061 3.57 6.037 5.587 10.143 5.146l17.875-1.943 7.254 16.452c1.664 3.772 5.403 6.211 9.527 6.211s7.863-2.439 9.527-6.212l7.254-16.451 17.875 1.943c4.099.44 8.081-1.575 10.142-5.146 2.062-3.57 1.82-8.027-.615-11.357l-10.621-14.508 10.621-14.508c2.436-3.327 2.678-7.784.616-11.355-2.064-3.572-6.046-5.598-10.145-5.146l-17.874 1.944-7.254-16.454c-.502-1.137-1.195-2.15-2.027-3.014v-29.58h53.493v13.679c0 6.893 5.607 12.5 12.5 12.5h142.684c6.893 0 12.5-5.607 12.5-12.5v-42.358c0-6.893-5.607-12.5-12.5-12.5h-109.883c-4.143 0-7.5 3.357-7.5 7.5 0 3.673 2.641 6.723 6.126 7.369-3.632 5.375-5.755 11.85-5.755 18.811 0 6.905 2.092 13.329 5.671 18.679h-28.842v-37.785c2.913-1.029 5-3.808 5-7.073 0-4.143-3.357-7.5-7.5-7.5-6.893 0-12.5 5.607-12.5 12.5v13.68h-53.493v-65.3h53.493v13.679c0 6.893 5.607 12.5 12.5 12.5h142.684c6.893 0 12.5-5.607 12.5-12.5v-42.357c0-6.893-5.607-12.5-12.5-12.5h-142.684c-6.893 0-12.5 5.607-12.5 12.5v13.679h-53.493v-65.299h53.493v13.679c0 6.891 5.608 12.498 12.5 12.498zm40.671-33.678c0-10.3 8.379-18.68 18.679-18.68h23.984c10.3 0 18.679 8.38 18.679 18.68s-8.379 18.679-18.679 18.679h-23.984c-10.3-.001-18.679-8.38-18.679-18.679zm99.513 18.678h-28.842c3.579-5.349 5.671-11.773 5.671-18.679s-2.092-13.33-5.671-18.68h28.842zm-137.684-37.358h28.842c-3.579 5.349-5.671 11.774-5.671 18.68 0 6.905 2.092 13.33 5.671 18.679h-28.842zm-190.157 18.68c0 10.3-8.379 18.679-18.679 18.679h-23.984c-10.3 0-18.679-8.379-18.679-18.679s8.379-18.68 18.679-18.68h23.984c10.3 0 18.679 8.38 18.679 18.68zm-99.513-18.68h28.842c-3.579 5.349-5.671 11.774-5.671 18.68 0 6.905 2.092 13.33 5.671 18.679h-28.842zm137.684 37.358h-28.842c3.579-5.349 5.671-11.773 5.671-18.679s-2.092-13.33-5.671-18.68h28.842zm-38.171 61.62c0 10.3-8.379 18.679-18.679 18.679h-23.984c-10.3 0-18.679-8.379-18.679-18.679s8.379-18.679 18.679-18.679h23.984c10.3.001 18.679 8.38 18.679 18.679zm-99.513-18.678h28.842c-3.579 5.349-5.671 11.774-5.671 18.679s2.092 13.33 5.671 18.679h-28.842zm137.684 37.357h-28.842c3.579-5.349 5.671-11.774 5.671-18.679s-2.092-13.33-5.671-18.679h28.842zm-38.171 61.621c0 10.3-8.379 18.679-18.679 18.679h-23.984c-10.3 0-18.679-8.379-18.679-18.679s8.379-18.68 18.679-18.68h23.984c10.3.001 18.679 8.38 18.679 18.68zm-99.513-18.679h28.842c-3.579 5.349-5.671 11.774-5.671 18.68 0 6.905 2.092 13.329 5.671 18.679h-28.842zm137.684 37.358h-28.842c3.579-5.349 5.671-11.774 5.671-18.679 0-6.906-2.092-13.331-5.671-18.68h28.842zm91.058 53.145 10.869-1.183-6.462 8.826c-2.688 3.677-2.688 8.617.003 12.298l6.459 8.821-10.867-1.182c-4.531-.494-8.811 1.976-10.655 6.15l-4.412 10.006-4.412-10.008c-1.686-3.817-5.414-6.209-9.505-6.209-.379 0-.763.021-1.146.062l-10.87 1.182 6.462-8.825c2.688-3.677 2.688-8.617 0-12.294-.001-.001-.002-.002-.003-.004l-6.459-8.822 10.873 1.183c4.516.491 8.807-1.979 10.649-6.151l4.411-10.005 4.412 10.008c1.841 4.169 6.128 6.634 10.653 6.147zm198.612-53.145h-28.842c3.579-5.349 5.671-11.774 5.671-18.679 0-6.906-2.092-13.331-5.671-18.68h28.842zm-99.513-18.679c0-10.3 8.379-18.68 18.679-18.68h23.984c10.3 0 18.679 8.38 18.679 18.68s-8.379 18.679-18.679 18.679h-23.984c-10.3 0-18.679-8.379-18.679-18.679zm0-80.3c0-10.3 8.379-18.679 18.679-18.679h23.984c10.3 0 18.679 8.379 18.679 18.679s-8.379 18.679-18.679 18.679h-23.984c-10.3 0-18.679-8.379-18.679-18.679zm99.513 18.679h-28.842c3.579-5.349 5.671-11.774 5.671-18.679s-2.092-13.33-5.671-18.679h28.842zm-137.684-37.357h28.842c-3.579 5.349-5.671 11.774-5.671 18.679s2.092 13.33 5.671 18.679h-28.842z"/><path d="m256 57.412c12.916 0 24.646 7.631 29.885 19.44 1.68 3.786 6.109 5.494 9.897 3.814 3.786-1.68 5.494-6.11 3.814-9.896-7.642-17.227-24.754-28.358-43.596-28.358-26.287 0-47.674 21.387-47.674 47.674s21.387 47.673 47.674 47.673c19.202 0 36.443-11.428 43.924-29.114 1.614-3.815-.171-8.216-3.985-9.829s-8.215.169-9.829 3.985c-5.128 12.124-16.946 19.958-30.109 19.958-18.017 0-32.674-14.657-32.674-32.673-.001-18.017 14.656-32.674 32.673-32.674z"/></g></svg>