<svg id="Capa_1" enable-background="new 0 0 512 512" height="512" viewBox="0 0 512 512" width="512" xmlns="http://www.w3.org/2000/svg"><g><path d="m450.377 383.115-56.244 5.8c-6.171.637-10.824 5.795-10.824 11.999v38.83c-3.799-1.683-8.104-2.641-12.668-2.641-15.256 0-27.668 10.631-27.668 23.698s12.412 23.698 27.668 23.698 27.668-10.631 27.668-23.698v-57.238l50.368-5.194v34.633c-3.799-1.684-8.104-2.641-12.668-2.641-15.256 0-27.668 10.632-27.668 23.699s12.412 23.698 27.668 23.698 27.668-10.631 27.668-23.698v-58.947c0-3.408-1.451-6.673-3.982-8.956-2.53-2.282-5.925-3.393-9.318-3.042zm-79.735 86.385c-6.867 0-12.668-3.983-12.668-8.698s5.801-8.698 12.668-8.698 12.668 3.983 12.668 8.698-5.802 8.698-12.668 8.698zm65.367-6.741c-6.867 0-12.668-3.983-12.668-8.698 0-4.716 5.801-8.699 12.668-8.699s12.668 3.983 12.668 8.699c.001 4.714-5.801 8.698-12.668 8.698z"/><path d="m58.322 0c-9.649 0-17.5 7.851-17.5 17.5v53.614h-28.322c-6.893 0-12.5 5.607-12.5 12.5v25.848c0 6.893 5.607 12.5 12.5 12.5h11.434v57.19h-11.434c-6.893 0-12.5 5.607-12.5 12.5v25.848c0 6.893 5.607 12.5 12.5 12.5h28.322v151.719c0 4.142 3.358 7.5 7.5 7.5s7.5-3.358 7.5-7.5v-151.719h54.226v264.5c0 1.379-1.121 2.5-2.5 2.5h-49.226c-1.378 0-2.5-1.121-2.5-2.5v-80.095c0-4.143-3.358-7.5-7.5-7.5s-7.5 3.357-7.5 7.5v80.095c0 9.649 7.851 17.5 17.5 17.5h49.226c9.649 0 17.5-7.851 17.5-17.5v-22.5h51.726c9.649 0 17.5-7.851 17.5-17.5v-22.5h51.726c9.649 0 17.5-7.851 17.5-17.5v-22.5h51.726c9.649 0 17.5-7.851 17.5-17.5v-22.5h51.726c9.649 0 17.5-7.851 17.5-17.5v-22.5h51.726c9.649 0 17.5-7.851 17.5-17.5v-64.5h28.322c6.893 0 12.5-5.607 12.5-12.5v-25.848c0-6.893-5.607-12.5-12.5-12.5h-11.434v-57.19h11.434c6.893 0 12.5-5.607 12.5-12.5v-25.848c0-6.893-5.607-12.5-12.5-12.5h-28.322v-53.614c0-9.649-7.851-17.5-17.5-17.5zm397.856 17.5v53.614h-54.226v-56.114h51.726c1.378 0 2.5 1.121 2.5 2.5zm-69.226 53.614h-54.226v-56.114h54.226zm-69.226 0h-54.226v-56.114h54.226zm-69.226 0h-54.226v-56.114h54.226zm-69.226 0h-54.226v-56.114h54.226zm-123.452-53.614c0-1.379 1.122-2.5 2.5-2.5h51.726v56.114h-54.226zm-40.822 68.614h482v20.848h-482zm161.774 370.886h-51.726v-227h54.226v224.5c0 1.379-1.122 2.5-2.5 2.5zm69.226-40h-51.726v-187h54.226v184.5c0 1.379-1.122 2.5-2.5 2.5zm69.226-40h-51.726v-147h54.226v144.5c0 1.379-1.122 2.5-2.5 2.5zm69.226-40h-51.726v-107h54.226v104.5c0 1.379-1.122 2.5-2.5 2.5zm71.726-42.5c0 1.379-1.121 2.5-2.5 2.5h-51.726v-67h54.226zm16.888-159.217c-15.598.949-24.81 4.869-33.017 8.378-8.895 3.803-17.296 7.395-34.469 7.395-17.172 0-25.574-3.593-34.468-7.395-9.892-4.23-20.121-8.605-40.366-8.605-20.244 0-30.473 4.374-40.364 8.605-8.895 3.803-17.295 7.395-34.467 7.395-17.17 0-25.571-3.593-34.465-7.395-9.892-4.23-20.12-8.605-40.364-8.605-20.242 0-30.47 4.374-40.361 8.605-6.236 2.667-12.126 5.186-20.827 6.479-4.097.608-6.924 4.424-6.315 8.521s4.419 6.91 8.521 6.316c10.614-1.578 17.683-4.601 24.519-7.525 8.893-3.803 17.294-7.396 34.463-7.396 17.171 0 25.572 3.593 34.466 7.396 9.891 4.23 20.12 8.604 40.363 8.604 20.244 0 30.473-4.374 40.364-8.604 8.895-3.803 17.295-7.396 34.467-7.396s25.574 3.593 34.469 7.396c9.892 4.23 20.121 8.604 40.366 8.604s30.474-4.374 40.366-8.604c7.531-3.22 14.7-6.283 27.119-7.151v28.85h-70.669c-4.142 0-7.5 3.357-7.5 7.5s3.358 7.5 7.5 7.5h94.603v20.849h-482v-20.848h354.711c4.142 0 7.5-3.357 7.5-7.5s-3.358-7.5-7.5-7.5h-330.777v-28.832c12.309.881 19.458 3.923 26.965 7.133 6.028 2.578 12.262 5.244 20.999 6.926.479.092.955.136 1.426.136 3.524 0 6.666-2.495 7.357-6.084.783-4.067-1.88-7.999-5.947-8.782-7.155-1.377-12.392-3.616-17.936-5.987-8.172-3.494-17.366-7.417-32.863-8.378v-13.322h434.133v13.321z"/><path d="m88.239 37.754c-2.929-2.929-7.678-2.929-10.607 0-2.929 2.929-2.929 7.678 0 10.607s7.678 2.929 10.607 0c2.928-2.93 2.928-7.678 0-10.607z"/><path d="m146.858 48.36c2.929 2.929 7.678 2.929 10.607 0 2.929-2.929 2.929-7.678 0-10.607s-7.678-2.929-10.607 0c-2.929 2.93-2.929 7.678 0 10.607z"/><path d="m216.084 48.36c2.929 2.929 7.678 2.929 10.607 0 2.929-2.929 2.929-7.678 0-10.607s-7.678-2.929-10.607 0c-2.929 2.93-2.929 7.678 0 10.607z"/><path d="m285.31 48.36c2.929 2.929 7.678 2.929 10.607 0 2.929-2.929 2.929-7.678 0-10.607s-7.678-2.929-10.607 0c-2.929 2.93-2.929 7.678 0 10.607z"/><path d="m354.536 48.36c2.929 2.929 7.678 2.929 10.607 0 2.929-2.929 2.929-7.678 0-10.607s-7.678-2.929-10.607 0c-2.929 2.93-2.929 7.678 0 10.607z"/><path d="m423.762 48.36c2.929 2.929 7.678 2.929 10.607 0 2.929-2.929 2.929-7.678 0-10.607s-7.678-2.929-10.607 0c-2.929 2.93-2.929 7.678 0 10.607z"/></g></svg>