<svg id="Capa_1" enable-background="new 0 0 512 512" height="512" viewBox="0 0 512 512" width="512" xmlns="http://www.w3.org/2000/svg"><path d="m441.837 437.169h-3.696l-22.192-143.043c11.965-7.405 19.956-20.644 19.956-35.719v-13.694c0-15.598-12.69-28.287-28.287-28.287h-2.277l-135.358-127.136c-1.731-1.625-3.685-2.871-5.753-3.779v-10.11h71.58c4.028 0 7.643-2.398 9.209-6.109 1.565-3.711.761-7.973-2.047-10.856l-15.728-16.154 15.728-16.154c2.81-2.886 3.613-7.149 2.046-10.859-1.566-3.71-5.18-6.107-9.208-6.107h-71.58v-1.662c0-4.143-3.358-7.5-7.5-7.5s-7.5 3.357-7.5 7.5v77.435c-2.612.913-5.08 2.352-7.213 4.355l-55.971 52.571c-3.019 2.836-3.168 7.582-.332 10.602 2.835 3.02 7.582 3.168 10.601.332l32.989-30.985-50.619 94.616h-50.115l43.865-41.2c3.019-2.836 3.168-7.582.332-10.602-2.836-3.018-7.582-3.167-10.602-.332l-55.505 52.134h-2.277c-15.598 0-28.287 12.689-28.287 28.287v13.694c0 15.075 7.991 28.315 19.956 35.719l-6.295 40.576c-.635 4.093 2.168 7.926 6.261 8.561.39.061.777.09 1.159.09 3.634 0 6.828-2.647 7.402-6.352l5.792-37.335c2.5.466 5.073.721 7.706.721 13.507 0 25.537-6.419 33.221-16.36l-40.744 153.141h-21.516l10.294-66.35c.635-4.093-2.168-7.926-6.261-8.561-4.093-.632-7.926 2.168-8.561 6.262l-10.651 68.648h-3.696c-15.598 0-28.287 12.689-28.287 28.287v30.729c0 8.72 7.095 15.815 15.815 15.815h396.618c8.72 0 15.815-7.095 15.815-15.815v-30.729c0-15.596-12.689-28.285-28.287-28.285zm-18.876 0h-20.056l-40.06-150.567c7.686 8.464 18.771 13.786 31.077 13.786 2.633 0 5.206-.255 7.706-.721zm-76.519 0c-17.144-15.1-32.22-32.415-44.808-51.475-2.283-3.456-6.936-4.408-10.392-2.124-3.457 2.282-4.408 6.935-2.125 10.392 10.292 15.582 22.16 30.058 35.39 43.207h-137.019c31.646-31.519 55.294-70.72 68.497-113.355 4.314 14.001 9.75 27.65 16.259 40.796 1.309 2.643 3.965 4.174 6.727 4.174 1.117 0 2.253-.251 3.322-.78 3.712-1.839 5.231-6.338 3.393-10.05-9.215-18.61-16.154-38.287-20.66-58.553 10.488-2.308 19.514-8.544 25.455-17.087 6.846 9.844 17.788 16.634 30.342 17.868l36.446 136.987zm-186.385-178.762v-26.981h53.962v26.981c0 14.877-12.104 26.98-26.981 26.98-14.877.001-26.981-12.103-26.981-26.98zm191.886-26.981v26.981c0 14.877-12.104 26.98-26.981 26.98s-26.981-12.103-26.981-26.98v-26.981zm-68.962 26.981c0 14.877-12.104 26.98-26.981 26.98s-26.981-12.103-26.981-26.98v-26.981h53.962zm-90.295 41.59c11.919-1.611 22.263-8.237 28.833-17.684 5.94 8.541 14.964 14.777 25.45 17.086-11.817 53.057-40.601 101.825-81.412 137.77h-9.367zm180.105 137.172-36.786-138.266c4.703-1.284 9.076-3.366 12.971-6.092l38.407 144.358zm48.113-192.456v13.694c0 14.877-12.104 26.98-26.981 26.98s-26.98-12.103-26.98-26.98v-26.981h35.427 5.247c7.327 0 13.287 5.961 13.287 13.287zm-86.13-28.287-49.145-91.861 97.801 91.861zm-10.822-192.266-9.725 9.988c-4.441 4.562-4.441 11.706-.001 16.264l9.725 9.989h-59.721v-36.241zm-67.222 78.185 61.031 114.081h-122.063zm-138.653 183.043c-14.877 0-26.981-12.103-26.981-26.98v-13.694c0-7.326 5.96-13.287 13.287-13.287h5.247 35.427v26.981c0 14.876-12.103 26.98-26.98 26.98zm46.185 8.257c3.96 2.568 8.376 4.486 13.1 5.605l-36.695 137.919h-14.591zm290.862 202.54c0 .449-.366.815-.815.815h-396.618c-.449 0-.815-.365-.815-.815v-30.729c0-7.326 5.96-13.287 13.287-13.287h371.674c7.327 0 13.287 5.961 13.287 13.287z"/></svg>