<svg id="Capa_1" enable-background="new 0 0 512 512" height="512" viewBox="0 0 512 512" width="512" xmlns="http://www.w3.org/2000/svg"><g><path d="m355.707 306.179c25.658 0 46.532-20.874 46.532-46.532s-20.874-46.532-46.532-46.532-46.533 20.874-46.533 46.532 20.875 46.532 46.533 46.532zm0-78.065c17.387 0 31.532 14.145 31.532 31.532s-14.145 31.532-31.532 31.532c-17.388 0-31.533-14.146-31.533-31.532s14.145-31.532 31.533-31.532z"/><path d="m489.5 114.638h-91.508c-4.143 0-7.5 3.357-7.5 7.5s3.357 7.5 7.5 7.5h88.4l-36.031 36.031c-1.836-.656-3.803-1.031-5.861-1.031h-377c-2.058 0-4.026.376-5.861 1.031l-36.031-36.031h339.698c4.143 0 7.5-3.357 7.5-7.5s-3.357-7.5-7.5-7.5h-20.527l-59.37-57.62c3.251-5.265 5.131-11.461 5.131-18.09 0-19.046-15.494-34.54-34.54-34.54s-34.54 15.494-34.54 34.54c0 6.629 1.881 12.825 5.131 18.09l-59.37 57.62h-144.721c-12.406 0-22.5 10.094-22.5 22.5v347.975c0 12.406 10.094 22.5 22.5 22.5h467c12.406 0 22.5-10.094 22.5-22.5v-347.975c0-12.407-10.094-22.5-22.5-22.5zm-424.5 325.474v-59.24c12.607 3.066 22.189 13.684 23.634 26.995.64 5.902 5.209 10.472 11.11 11.111 13.144 1.427 23.856 11.153 26.968 23.634h-59.212c-1.379 0-2.5-1.121-2.5-2.5zm-3.361 16.469c1.836.656 3.803 1.031 5.861 1.031h377c2.058 0 4.026-.376 5.861-1.031l36.031 36.031h-460.784zm399.33-10.607c.655-1.836 1.031-3.803 1.031-5.861v-257.975c0-2.058-.376-4.026-1.031-5.861l36.031-36.032v341.76zm-393.469-266.336h377c1.379 0 2.5 1.121 2.5 2.5v161.602c-20.652 6.665-41.231 10.099-61.221 10.194-4.142.02-7.483 3.393-7.464 7.536.02 4.13 3.374 7.464 7.499 7.464h.037c20.036-.096 40.569-3.286 61.148-9.481v80.66c0 1.379-1.121 2.5-2.5 2.5h-302.485c-3.234-19.53-18.928-35.285-38.718-38.294-3.01-20.013-18.532-35.538-38.296-38.731v-22.122c0-4.143-3.357-7.5-7.5-7.5s-7.5 3.357-7.5 7.5v96.647c0 2.058.376 4.026 1.031 5.861l-36.031 36.032v-341.761l36.031 36.031c-.655 1.836-1.031 3.804-1.031 5.862v128.987c0 4.143 3.357 7.5 7.5 7.5s7.5-3.357 7.5-7.5v-12.632h69.352c52.391 0 103.061 14.038 146.531 40.597 22.36 13.66 46.238 22.752 70.97 27.024.432.074.861.11 1.285.11 3.582 0 6.751-2.574 7.382-6.225.705-4.081-2.032-7.962-6.114-8.667-22.858-3.948-44.964-12.374-65.702-25.044-34.074-20.817-72.322-34.33-112.369-39.896v-11.288c11.619-3.278 20.162-13.967 20.162-26.62v-17.118c0-15.253-12.409-27.662-27.662-27.662-15.254 0-27.663 12.409-27.663 27.662v17.118c0 12.654 8.544 23.342 20.163 26.621v9.585c-8.93-.79-17.931-1.197-26.982-1.197h-20.515v-18.388c11.62-3.278 20.163-13.967 20.163-26.621v-17.118c0-15.253-12.409-27.662-27.663-27.662-15.253 0-27.662 12.409-27.662 27.662v17.118c0 12.653 8.543 23.342 20.162 26.62v18.388h-33.838v-101.354c0-1.379 1.121-2.5 2.5-2.5zm38.837 71.508c-6.981 0-12.662-5.681-12.662-12.662v-17.118c0-6.981 5.681-12.662 12.662-12.662 6.982 0 12.663 5.681 12.663 12.662v17.118c0 6.982-5.681 12.662-12.663 12.662zm62.497 10.001c-6.982 0-12.663-5.681-12.663-12.662v-17.118c0-6.981 5.681-12.662 12.663-12.662 6.981 0 12.662 5.681 12.662 12.662v17.118c0 6.981-5.681 12.662-12.662 12.662zm87.166-241.759c10.774 0 19.54 8.766 19.54 19.54s-8.766 19.54-19.54 19.54-19.54-8.766-19.54-19.54 8.766-19.54 19.54-19.54zm-18.959 48.391c5.447 3.591 11.961 5.689 18.959 5.689s13.512-2.098 18.959-5.689l48.282 46.859h-134.483z"/><path d="m148.671 349.141c-4.142 0-7.5 3.358-7.5 7.5 0 4.142 3.358 7.5 7.5 7.5s7.5-3.358 7.5-7.5c0-4.142-3.358-7.5-7.5-7.5z"/><path d="m211.496 348.053c-4.142 0-7.5 3.358-7.5 7.5 0 4.142 3.358 7.5 7.5 7.5s7.5-3.358 7.5-7.5c0-4.142-3.358-7.5-7.5-7.5z"/><path d="m196.496 392.127c-4.142 0-7.5 3.358-7.5 7.5 0 4.142 3.358 7.5 7.5 7.5s7.5-3.358 7.5-7.5c0-4.142-3.358-7.5-7.5-7.5z"/></g></svg>