<svg id="Capa_1" enable-background="new 0 0 512 512" height="512" viewBox="0 0 512 512" width="512" xmlns="http://www.w3.org/2000/svg"><g><path d="m511.797 427.215-9.833-56.334c-2.404-13.772-14.296-23.769-28.277-23.769h-13.597v-3.232c13.25-9.164 21.953-24.457 21.953-41.751v-17.163c0-7.391-1.602-14.41-4.455-20.75-.086-.217-.182-.43-.29-.64-8.085-17.315-25.656-29.348-45.994-29.348-27.842 0-50.509 22.543-50.728 50.335-.001.023-.001.046-.002.07-.001.112-.009.222-.009.334v17.163c0 17.294 8.703 32.587 21.953 41.751v3.232h-13.597c-13.981 0-25.874 9.996-28.277 23.769l-1.151 6.592c-.712 4.08 2.018 7.966 6.098 8.679.437.076.871.112 1.299.112 3.576 0 6.743-2.567 7.379-6.211l1.151-6.593c1.148-6.575 6.826-11.348 13.501-11.348h13.597v2.029c0 15.872 12.913 28.785 28.785 28.785s28.785-12.913 28.785-28.785v-2.029h13.597c6.675 0 12.353 4.772 13.501 11.349l9.537 54.639h-130.837l2.592-14.851c.712-4.08-2.018-7.965-6.099-8.678-4.08-.71-7.966 2.019-8.678 6.1l-2.888 16.544c-.69 3.952.395 7.98 2.977 11.052 2.582 3.071 6.363 4.833 10.375 4.833h134.28c4.012 0 7.793-1.762 10.375-4.833 2.582-3.073 3.667-7.101 2.977-11.053zm-80.492-177.987c12.239 0 23.058 6.188 29.502 15.596-32.94 22.742-56.056 18.556-64.921 15.439 2.311-17.49 17.308-31.035 35.419-31.035zm-35.738 46.529c4.289 1.082 9.699 1.938 16.119 1.938 13.984 0 32.718-4.064 54.858-18.651.323 1.927.5 3.904.5 5.922v17.163c0 19.706-16.032 35.738-35.738 35.738s-35.738-16.032-35.738-35.738v-6.372zm49.523 68.385c0 7.602-6.184 13.785-13.785 13.785s-13.785-6.184-13.785-13.785v-13.192c4.386 1.241 9.006 1.919 13.785 1.919 4.778 0 9.399-.678 13.785-1.919z"/><path d="m151.353 370.882c-2.403-13.773-14.296-23.77-28.277-23.77h-13.596v-3.232c13.25-9.164 21.953-24.457 21.953-41.751v-17.163c0-7.392-1.602-14.412-4.456-20.751-.086-.216-.182-.428-.289-.638-8.085-17.316-25.656-29.349-45.993-29.349-27.842 0-50.509 22.543-50.728 50.335-.001.023-.001.046-.002.07-.001.112-.008.222-.008.334v17.163c0 17.294 8.703 32.587 21.953 41.751v3.232h-13.597c-13.98 0-25.873 9.996-28.277 23.769l-9.833 56.334c-.69 3.952.395 7.98 2.977 11.052 2.582 3.071 6.363 4.833 10.375 4.833h63.346c4.142 0 7.5-3.357 7.5-7.5s-3.358-7.5-7.5-7.5h-61.625l9.537-54.639c1.148-6.576 6.826-11.349 13.501-11.349h13.596v2.029c0 15.872 12.913 28.785 28.785 28.785s28.785-12.913 28.785-28.785v-2.029h13.597c6.675 0 12.353 4.772 13.5 11.349l9.537 54.639h-36.526c-4.142 0-7.5 3.357-7.5 7.5s3.358 7.5 7.5 7.5h38.247c4.012 0 7.794-1.762 10.375-4.833 2.582-3.071 3.667-7.1 2.977-11.052zm-70.658-121.654c12.239 0 23.058 6.187 29.502 15.596-32.94 22.742-56.056 18.556-64.921 15.439 2.311-17.49 17.308-31.035 35.419-31.035zm-35.738 46.529c4.289 1.082 9.699 1.938 16.119 1.938 13.984 0 32.718-4.064 54.858-18.651.323 1.927.5 3.904.5 5.922v17.163c0 19.706-16.032 35.738-35.738 35.738s-35.738-16.032-35.738-35.738v-6.372zm49.523 68.385c0 7.602-6.184 13.785-13.785 13.785s-13.785-6.184-13.785-13.785v-13.192c4.387 1.241 9.007 1.919 13.785 1.919s9.398-.678 13.785-1.919z"/><path d="m326.659 370.881c-2.404-13.772-14.296-23.769-28.277-23.769h-13.597v-3.232c13.25-9.164 21.954-24.457 21.954-41.751v-17.163c0-7.391-1.602-14.41-4.455-20.75-.086-.217-.182-.43-.29-.64-8.085-17.315-25.656-29.348-45.994-29.348-27.842 0-50.509 22.543-50.728 50.335-.001.023-.001.046-.002.07-.001.112-.008.222-.008.334v17.163c0 17.294 8.703 32.587 21.954 41.751v3.232h-13.597c-13.98 0-25.873 9.996-28.277 23.77l-1.15 6.592c-.712 4.08 2.019 7.965 6.099 8.678.436.076.87.112 1.298.112 3.577 0 6.744-2.567 7.379-6.212l1.15-6.591c1.148-6.576 6.826-11.349 13.501-11.349h13.597v2.029c0 15.872 12.913 28.785 28.785 28.785s28.785-12.913 28.785-28.785v-2.029h13.597c6.675 0 12.353 4.772 13.5 11.349l9.537 54.639h-130.839l2.748-15.745c.712-4.081-2.018-7.966-6.099-8.679-4.078-.71-7.965 2.019-8.678 6.099l-3.044 17.44c-.69 3.952.395 7.98 2.977 11.052 2.582 3.071 6.363 4.833 10.376 4.833h134.279c4.012 0 7.794-1.762 10.376-4.833 2.581-3.071 3.667-7.1 2.977-11.052zm-70.659-121.653c12.239 0 23.058 6.187 29.502 15.596-32.941 22.742-56.057 18.557-64.921 15.439 2.311-17.49 17.308-31.035 35.419-31.035zm-35.738 46.529c4.289 1.082 9.699 1.938 16.119 1.938 13.984 0 32.719-4.064 54.858-18.651.323 1.927.5 3.904.5 5.922v17.163c0 19.706-16.032 35.738-35.738 35.738s-35.738-16.032-35.738-35.738v-6.372zm49.523 68.385c0 7.602-6.184 13.785-13.785 13.785s-13.785-6.184-13.785-13.785v-13.192c4.386 1.241 9.007 1.919 13.785 1.919s9.398-.678 13.785-1.919z"/><path d="m223.316 202.542c15.256 0 27.668-10.631 27.668-23.698v-57.238l50.368-5.194v34.633c-3.799-1.684-8.104-2.641-12.668-2.641-15.256 0-27.668 10.631-27.668 23.698s12.412 23.699 27.668 23.699 27.668-10.632 27.668-23.699v-58.946c0-3.408-1.452-6.673-3.982-8.957-2.53-2.283-5.927-3.396-9.318-3.042l-56.244 5.801c-6.171.637-10.824 5.795-10.824 11.998v38.83c-3.799-1.683-8.104-2.641-12.668-2.641-15.256 0-27.669 10.632-27.669 23.699s12.413 23.698 27.669 23.698zm65.368-21.742c-6.867 0-12.668-3.983-12.668-8.699 0-4.715 5.801-8.698 12.668-8.698s12.668 3.983 12.668 8.698c0 4.716-5.801 8.699-12.668 8.699zm-65.368-10.656c6.867 0 12.668 3.983 12.668 8.699 0 4.715-5.801 8.698-12.668 8.698s-12.669-3.983-12.669-8.698 5.802-8.699 12.669-8.699z"/><path d="m88.783 167.476c15.256 0 27.668-10.632 27.668-23.699v-57.237l25.954-2.678c4.12-.425 7.116-4.109 6.691-8.229s-4.105-7.123-8.23-6.69l-28.588 2.948c-6.172.635-10.827 5.794-10.827 11.999v38.83c-3.799-1.684-8.104-2.641-12.668-2.641-15.256 0-27.668 10.631-27.668 23.698s12.411 23.699 27.668 23.699zm0-32.397c6.867 0 12.668 3.983 12.668 8.698 0 4.716-5.801 8.699-12.668 8.699s-12.668-3.983-12.668-8.699c0-4.715 5.801-8.698 12.668-8.698z"/><path d="m392.902 167.476c15.256 0 27.668-10.632 27.668-23.699v-57.237l25.954-2.678c4.12-.425 7.116-4.109 6.691-8.229s-4.109-7.123-8.23-6.69l-28.588 2.948c-6.172.635-10.827 5.794-10.827 11.999v38.83c-3.799-1.684-8.104-2.641-12.668-2.641-15.256 0-27.668 10.631-27.668 23.698s12.411 23.699 27.668 23.699zm0-32.397c6.867 0 12.668 3.983 12.668 8.698 0 4.716-5.801 8.699-12.668 8.699s-12.668-3.983-12.668-8.699c0-4.715 5.801-8.698 12.668-8.698z"/></g></svg>