<svg id="Capa_1" enable-background="new 0 0 512 512" height="512" viewBox="0 0 512 512" width="512" xmlns="http://www.w3.org/2000/svg"><g><path d="m257.454 89.021c1.465 1.464 3.385 2.196 5.304 2.196s3.839-.732 5.304-2.196l13.915-13.915c5.734 3.673 12.31 5.518 18.89 5.518s13.156-1.844 18.891-5.518l13.915 13.915c1.465 1.464 3.385 2.196 5.304 2.196s3.839-.732 5.304-2.196c2.929-2.93 2.929-7.678 0-10.607l-13.915-13.915c7.347-11.469 7.347-26.311 0-37.781l13.915-13.915c2.929-2.93 2.929-7.678 0-10.607-2.93-2.928-7.678-2.928-10.607 0l-13.915 13.915c-11.469-7.347-26.31-7.346-37.78 0l-13.919-13.915c-2.928-2.928-7.677-2.929-10.606.001-2.929 2.929-2.929 7.678.001 10.606l13.915 13.914c-7.347 11.469-7.347 26.311-.001 37.781l-13.915 13.916c-2.929 2.93-2.929 7.678 0 10.607zm43.413-63.435c5.129 0 10.259 1.953 14.164 5.858 7.811 7.811 7.811 20.519.001 28.329-7.812 7.809-20.521 7.811-28.33.001-7.811-7.812-7.811-20.52 0-28.33 3.905-3.905 9.035-5.858 14.165-5.858z"/><path d="m133.453 129.021c1.465 1.464 3.385 2.196 5.304 2.196s3.839-.732 5.304-2.196l13.915-13.915c5.734 3.673 12.31 5.518 18.89 5.518 6.579 0 13.156-1.844 18.891-5.518l13.915 13.915c1.465 1.464 3.385 2.196 5.304 2.196s3.839-.732 5.304-2.196c2.929-2.93 2.929-7.678 0-10.607l-13.915-13.916c7.347-11.469 7.346-26.312-.001-37.78l13.915-13.915c2.93-2.929 2.93-7.678.001-10.606-2.929-2.929-7.678-2.93-10.606-.001l-13.911 13.91c-5.588-3.595-12.091-5.53-18.895-5.53s-13.306 1.935-18.895 5.529l-13.91-13.91c-2.93-2.928-7.678-2.928-10.607 0-2.929 2.93-2.929 7.678 0 10.607l13.915 13.915c-7.347 11.469-7.347 26.311 0 37.781l-13.915 13.915c-2.932 2.931-2.932 7.679-.003 10.608zm57.576-57.577c7.811 7.811 7.811 20.519 0 28.329-7.809 7.811-20.518 7.811-28.328 0-7.811-7.811-7.811-20.519 0-28.329 3.783-3.784 8.813-5.867 14.164-5.867s10.381 2.083 14.164 5.867z"/><path d="m465.991 376.072c4.143 0 7.5-3.357 7.5-7.5v-123.241c0-9.65-7.851-17.5-17.5-17.5h-21.352c-9.649 0-17.5 7.85-17.5 17.5v249.169c0 9.649 7.851 17.5 17.5 17.5h21.352c9.649 0 17.5-7.851 17.5-17.5v-93.241c0-4.143-3.357-7.5-7.5-7.5s-7.5 3.357-7.5 7.5v93.241c0 1.379-1.121 2.5-2.5 2.5h-21.352c-1.379 0-2.5-1.121-2.5-2.5v-170.69h26.352v44.763c0 4.142 3.357 7.499 7.5 7.499zm-33.852-67.263v-63.479c0-1.379 1.121-2.5 2.5-2.5h21.352c1.379 0 2.5 1.121 2.5 2.5v63.479z"/><path d="m439.223 178.641c0-17.346-14.112-31.458-31.458-31.458h-111.285c-4.143 0-7.5 3.357-7.5 7.5s3.357 7.5 7.5 7.5h111.285c9.075 0 16.458 7.383 16.458 16.458s-7.383 16.458-16.458 16.458h-337.798c-9.075 0-16.458-7.383-16.458-16.458s7.383-16.458 16.458-16.458h193.827c4.143 0 7.5-3.357 7.5-7.5s-3.357-7.5-7.5-7.5h-193.827c-17.346 0-31.458 14.112-31.458 31.458s14.112 31.458 31.458 31.458h34.119l-16.4 141.7c-.477 4.114 2.474 7.836 6.588 8.312.293.034.584.051.872.051 3.756 0 6.998-2.817 7.44-6.639l6.073-52.475h260.412l20.419 176.439c.582 5.026-.951 9.875-4.317 13.653-3.366 3.777-8.006 5.858-13.066 5.858h-266.482c-5.061 0-9.7-2.081-13.066-5.858-3.366-3.778-4.899-8.627-4.318-13.653l10.614-91.71c.477-4.114-2.474-7.836-6.588-8.312-4.107-.48-7.836 2.474-8.312 6.588l-10.614 91.71c-1.064 9.2 1.858 18.441 8.019 25.356 6.161 6.914 15.006 10.88 24.267 10.88h266.482c9.261 0 18.107-3.966 24.267-10.881 6.16-6.914 9.083-16.156 8.018-25.355l-30.745-265.664h34.119c17.343 0 31.455-14.112 31.455-31.458zm-71.887 107.409h-256.94l8.79-75.95h239.36z"/></g></svg>