<?xml version="1.0" encoding="iso-8859-1"?>
<!-- Uploaded to: SVG Repo, www.svgrepo.com, Generator: SVG Repo Mixer Tools -->
<svg fill="#000000" height="800px" width="800px" version="1.1" id="Layer_1" xmlns="http://www.w3.org/2000/svg" xmlns:xlink="http://www.w3.org/1999/xlink" 
	 viewBox="0 0 496.576 496.576" xml:space="preserve">
<g>
	<g>
		<g>
			<path d="M236.24,232.576c-4.432-56-11.04-112.92-11.912-120.088l7.944-111.28l-15.96-1.168l-3.528,49.336
				c-2.512,0.944-20,7.216-44.496,7.216c-19.736,0-35.2-4.184-41.688-6.272l-1.352-49.96L109.256,0.8l3,110.848
				c-3.456,13.16-31.968,124.432-31.968,208.928c0,60.032,11.168,116.712,17.832,145.16c4.256,18.16,20.272,30.84,38.952,30.84
				h46.032c18.88,0,34.936-12.88,39.056-31.32c6.768-30.352,16.144-89.504,16.144-144.68c0-26.163,1.983-57.573-6.012-88H236.24z
				 M168.288,72.576c19.152,0,34.568-3.48,43.264-6.016l-2.264,31.672c-7.96,2.024-26.232,5.824-51.928,6.28L127.504,83.84
				l-0.448-16.704C136.024,69.584,150.552,72.576,168.288,72.576z M211.656,142.096l-32.808-22.712
				c12.816-1.168,22.848-2.984,29.664-4.512C208.92,118.208,210.104,128.032,211.656,142.096z M128.016,114.64l0.296-1.128
				l-0.264-9.832l24.24,16.784v0.112c0.056,0,0.104,0,0.16,0l61.448,42.544c1.24,11.984,2.56,25.472,3.84,39.744l-96.168-61.824
				C125.288,124.976,127.92,114.984,128.016,114.64z M117.848,157.656l38.288,24.616l-46.04,13.816
				C112.704,182.056,115.376,169,117.848,157.656z M103.592,234.896c1.056-7.176,2.192-14.248,3.368-21.176l66.888-20.064
				l45.6,29.32c0.28,3.416,0.544,6.856,0.808,10.312c0.128,6.952,0.824,90.04-31.008,122.76c-8.2,8.424-17.68,12.528-28.96,12.528
				c-11.312,0-20.688-4.088-28.68-12.504C101.24,324.128,103.256,244.088,103.592,234.896z M206.544,461.768
				c-2.472,11.072-12.112,18.808-23.44,18.808h-46.032c-11.208,0-20.824-7.6-23.368-18.488C107.2,434.32,96.288,379,96.288,320.576
				c0-0.144,0.008-0.288,0.008-0.432c4.864,17.92,12.312,34.952,23.704,46.944c11.016,11.608,24.576,17.488,40.288,17.488
				c15.616,0,29.224-5.848,40.448-17.392c10.752-11.056,18.256-26.424,23.504-42.848
				C223.744,376.904,213.016,432.76,206.544,461.768z"/>
			<path d="M384.312,111.648l3-110.848l-15.984-0.44l-1.352,49.96c-6.448,2.08-21.816,6.256-41.688,6.256
				c-24.264,0-41.92-6.264-44.496-7.232L280.272,0l-15.96,1.144l7.944,111.336c-0.88,7.176-7.488,64.096-11.92,120.096h3.948
				c-7.995,30.427-6.012,61.837-6.012,88c0,55.176,10.368,114.328,17.136,144.68c4.12,18.44,19.184,31.32,38.064,31.32h46.032
				c18.68,0,34.696-12.68,38.952-30.84c6.664-28.448,17.832-85.128,17.832-145.16C416.288,236.08,387.776,124.808,384.312,111.648z
				 M386.488,196.08l-46.04-13.816l38.288-24.616C381.208,168.992,383.88,182.048,386.488,196.08z M328.288,72.576
				c17.736,0,32.264-2.992,41.232-5.44l-0.456,16.712l-29.856,20.672c-25.688-0.456-43.96-4.256-51.928-6.28l-2.264-31.672
				C293.72,69.096,309.136,72.576,328.288,72.576z M288.064,114.872c6.816,1.528,16.848,3.344,29.664,4.512l-32.808,22.712
				C286.472,128.032,287.656,118.208,288.064,114.872z M282.68,163.12l61.448-42.544c0.056,0,0.104,0,0.16,0v-0.112l24.24-16.784
				l-0.264,9.84l0.296,1.12c0.088,0.336,2.728,10.336,6.448,26.4l-96.168,61.824C280.12,188.592,281.44,175.112,282.68,163.12z
				 M276.312,233.304c0.264-3.456,0.536-6.896,0.808-10.32l45.6-29.312l66.896,20.072c1.168,6.92,2.304,13.984,3.36,21.144
				c0.336,9.024,2.392,89.208-28.008,121.192c-7.992,8.408-17.368,12.496-28.68,12.496c-11.28,0-20.76-4.104-28.96-12.528
				C275.512,323.344,276.192,240.296,276.312,233.304z M382.88,462.08c-2.552,10.896-12.16,18.496-23.376,18.496h-46.032
				c-11.328,0-20.968-7.736-23.44-18.808c-6.472-29.016-17.2-84.872-17.696-137.44c5.248,16.424,12.76,31.8,23.504,42.848
				c11.224,11.552,24.832,17.4,40.448,17.4c15.712,0,29.272-5.88,40.296-17.488c11.392-11.992,15.704-29.024,23.704-46.944
				c0,0.144,0,0.288,0,0.432C400.288,379,389.376,434.32,382.88,462.08z"/>
		</g>
	</g>
</g>
</svg>