<?xml version="1.0" encoding="iso-8859-1"?>
<!-- Uploaded to: SVG Repo, www.svgrepo.com, Generator: SVG Repo Mixer Tools -->
<!DOCTYPE svg PUBLIC "-//W3C//DTD SVG 1.1//EN" "http://www.w3.org/Graphics/SVG/1.1/DTD/svg11.dtd">
<svg fill="#000000" version="1.1" id="Capa_1" xmlns="http://www.w3.org/2000/svg" xmlns:xlink="http://www.w3.org/1999/xlink" 
	 width="800px" height="800px" viewBox="0 0 35.6 35.601" xml:space="preserve"
	>
<g>
	<path d="M28.057,15.194c-0.468-0.589-1.403-2.137-1.403-2.137s1.153-1.171,1.424-1.446c0.271-0.276-0.719-0.676-1.488-0.518
		c-0.771,0.158-1.295,0.539-1.295,0.539s-0.82-0.763-1.963-0.913c-1.145-0.151-2.525-0.037-2.525-0.037l-0.172,2.083
		c0,0-0.725,0.032-0.788,0.324c-0.065,0.291,0.14,1.015,0.248,1.586c-0.357,0.064-3.249-0.691-3.454-1.295
		c-0.206-0.604,0.194-2.158,0.885-3.646c0.69-1.489-0.019-3.367-0.324-4.467c-0.388-1.403-1.393-2.687-2.417-2.654
		c-1.025,0.032-1.349,0.453-1.619,1.057C12.897,4.274,12.713,6,12.713,6l-0.07,0.823c0,0-1.44-1.6-1.505-1.945
		c-0.066-0.346-0.151-0.877-0.217-1.252c-0.064-0.375-0.506-1.003-0.561-1.317c-0.054-0.313-0.18-1.331-0.82-1.726
		C8.9,0.187,6.9-0.144,6.908,0.064C6.914,0.273,7.48,0.248,7.569,0.383C7.198,0.486,7.044,0.55,7.102,0.81
		c0.057,0.259,0.54,0.139,0.496,0.291c-0.28,0.054-0.54,0.342-0.183,0.248c0.529-0.14,1.391-0.075,1.845,0.076
		c0.021,0.204,0.162,1.876,0.281,2.46c0.119,0.583,0.691,2.158,0.691,2.158S8.02,3.723,7.987,3.906
		C7.955,4.09,8.089,4.588,8.089,4.588S7.136,4.284,7.233,4.489c0.098,0.205,1.003,0.539,1.166,0.798
		c0.162,0.259,0.097,0.356,0.496,0.777c0.399,0.421,0.844,0.617,1.154,0.799c0.311,0.182,0.81,0.755,1.103,1.272
		s-0.999,1.289-1.459,1.943c-0.48,0.683,0.12,1.651,1.575,1.813c-0.322,1.122,0.735,3.549,0.735,3.549s-0.399,0.464-0.367,0.767
		c0.033,0.302,0.501,6.232,0.763,8.524c0.261,2.292,1.179,9.955,2.016,9.798c0.837-0.158,2.329-0.69,2.646-0.633
		c0.316,0.058-0.733,1.15-0.634,1.468c0.102,0.315,0.289,0.314,1.361,0c0.339-0.101,0.342-0.501,0.687-1.007
		c0.346-0.507,1.249-0.863,1.321-1.238c0.071-0.374-0.149-0.661-0.149-0.661h0.002c0,0-0.024-0.302,0.166-0.391
		c0.191-0.09,2.227-0.817,2.31-1.055c0.08-0.235-1.063-0.902-1.063-0.902s0.707-0.142,0.721-0.48
		c0.017-0.338,1.158-1.364,1.684-1.718c0.524-0.355,1.193-0.791,0.96-0.979c-0.235-0.186-0.141-0.728,0.263-1.021
		c0.18-0.133,0.732-0.953,1.064-1.957c0.404-1.229,0.593-2.714,0.719-3.323c0.229-1.106,2.071-2.547,2.194-3.346
		C28.783,16.488,28.524,15.783,28.057,15.194z M25.92,21.006c0,0-1.642,2.704-2.015,3.165c-0.374,0.461-0.329-0.75-0.862-0.115
		c-0.534,0.637-2.418,2.936-3.108,3.311c-0.691,0.375,0.797,0.641,0.229,0.949c-0.566,0.309-2.262,1.246-2.656,1.356
		c-0.395,0.111,0.695,0.361,0.095,0.687c-0.6,0.323-1.419,0.681-2.245,0.893c-0.825,0.21-1.668,0.288-1.668,0.288l-0.518-2.589
		c0,0,1.773-0.262,2.445-0.462c1.152-0.345,0.108-0.885,0.604-1.144c0.497-0.257,2.254-1.032,2.712-1.407
		c0.857-0.699-1.12-0.104-0.592-0.742c0.529-0.64,2.312-2.548,3.032-3.052c0.719-0.504,0.287,0.877,0.921,0.36
		c0.633-0.519,1.745-2.025,2.014-2.735c0.122-0.318,0.316,0.467,0.46,0.088c0.175-0.458,0.345-1.23,0.288-2.054
		c-0.057-0.824-0.347-1.596-0.882-2.205c-0.354-0.403,0.048,0.691-0.297,0.374c-0.759-0.695-3.28-1.036-3.28-1.036l-0.417-1.812
		c0,0,1.941-0.414,3.41,0.058c1.167,0.375,0.288-0.696,0.861-0.465c0.577,0.23,1.268,0.954,1.814,1.702s0.834,1.871,0.921,2.705
		C27.272,17.955,25.92,21.006,25.92,21.006z"/>
</g>
</svg>