<svg id="Capa_1" enable-background="new 0 0 511.999 511.999" height="512" viewBox="0 0 511.999 511.999" width="512" xmlns="http://www.w3.org/2000/svg"><g><path d="m103.583 206.185v-27.094c0-4.142-3.358-7.5-7.5-7.5h-27.094c-4.142 0-7.5 3.358-7.5 7.5v27.094c0 4.142 3.358 7.5 7.5 7.5h27.094c4.142 0 7.5-3.358 7.5-7.5zm-15-7.5h-12.094v-12.094h12.094z"/><path d="m190.719 179.091c0-4.142-3.358-7.5-7.5-7.5h-27.094c-4.142 0-7.5 3.358-7.5 7.5v27.094c0 4.142 3.358 7.5 7.5 7.5h27.094c4.142 0 7.5-3.358 7.5-7.5zm-15 19.594h-12.094v-12.094h12.094z"/><path d="m183.219 258.728h-27.094c-4.142 0-7.5 3.358-7.5 7.5v27.094c0 4.142 3.358 7.5 7.5 7.5h27.094c4.142 0 7.5-3.358 7.5-7.5v-27.094c0-4.142-3.357-7.5-7.5-7.5zm-7.5 27.094h-12.094v-12.094h12.094z"/><path d="m40.067 314.746c0 4.142 3.358 7.5 7.5 7.5h48.516c4.142 0 7.5-3.358 7.5-7.5s-3.358-7.5-7.5-7.5h-41.016v-41.016c0-4.142-3.358-7.5-7.5-7.5s-7.5 3.358-7.5 7.5z"/><path d="m204.641 213.688c4.142 0 7.5-3.358 7.5-7.5v-48.516c0-4.142-3.358-7.5-7.5-7.5h-48.516c-4.142 0-7.5 3.358-7.5 7.5s3.358 7.5 7.5 7.5h41.016v41.016c0 4.142 3.358 7.5 7.5 7.5z"/><path d="m156.125 322.246h48.516c4.142 0 7.5-3.358 7.5-7.5v-48.516c0-4.142-3.358-7.5-7.5-7.5s-7.5 3.358-7.5 7.5v41.016h-41.016c-4.142 0-7.5 3.358-7.5 7.5s3.358 7.5 7.5 7.5z"/><path d="m96.083 150.172h-48.516c-4.142 0-7.5 3.358-7.5 7.5v48.516c0 4.142 3.358 7.5 7.5 7.5s7.5-3.358 7.5-7.5v-41.016h41.016c4.142 0 7.5-3.358 7.5-7.5s-3.358-7.5-7.5-7.5z"/><path d="m163.626 237.473c0-4.142-3.358-7.5-7.5-7.5h-22.521v-50.881c0-4.142-3.358-7.5-7.5-7.5s-7.5 3.358-7.5 7.5v50.881h-22.522c-4.142 0-7.5 3.358-7.5 7.5v48.349h-19.594c-4.142 0-7.5 3.358-7.5 7.5s3.358 7.5 7.5 7.5h27.094c4.142 0 7.5-3.358 7.5-7.5v-48.349h22.521 30.021c4.143 0 7.501-3.358 7.501-7.5z"/><path d="m118.604 265.397v27.925c0 4.142 3.358 7.5 7.5 7.5s7.5-3.358 7.5-7.5v-27.925c0-4.142-3.358-7.5-7.5-7.5s-7.5 3.358-7.5 7.5z"/><path d="m183.219 229.973h-6.528c-4.142 0-7.5 3.358-7.5 7.5s3.358 7.5 7.5 7.5h6.528c4.142 0 7.5-3.358 7.5-7.5s-3.357-7.5-7.5-7.5z"/><path d="m63.572 229.973c-4.142 0-7.5 3.358-7.5 7.5s3.358 7.5 7.5 7.5h6.528c4.142 0 7.5-3.358 7.5-7.5s-3.358-7.5-7.5-7.5z"/><path d="m403.44 56.014v-27.094c0-4.142-3.358-7.5-7.5-7.5h-27.094c-4.142 0-7.5 3.358-7.5 7.5v27.094c0 4.142 3.358 7.5 7.5 7.5h27.094c4.142 0 7.5-3.358 7.5-7.5zm-15-7.5h-12.094v-12.094h12.094z"/><path d="m455.983 63.514h27.094c4.142 0 7.5-3.358 7.5-7.5v-27.094c0-4.142-3.358-7.5-7.5-7.5h-27.094c-4.142 0-7.5 3.358-7.5 7.5v27.094c0 4.142 3.358 7.5 7.5 7.5zm7.5-27.094h12.094v12.094h-12.094z"/><path d="m448.483 116.056v27.094c0 4.142 3.358 7.5 7.5 7.5h27.094c4.142 0 7.5-3.358 7.5-7.5v-27.094c0-4.142-3.358-7.5-7.5-7.5h-27.094c-4.142 0-7.5 3.358-7.5 7.5zm15 7.5h12.094v12.094h-12.094z"/><path d="m395.94 157.074h-41.016v-41.016c0-4.142-3.358-7.5-7.5-7.5s-7.5 3.358-7.5 7.5v48.516c0 4.142 3.358 7.5 7.5 7.5h48.516c4.142 0 7.5-3.358 7.5-7.5s-3.358-7.5-7.5-7.5z"/><path d="m504.498 0h-48.516c-4.142 0-7.5 3.358-7.5 7.5s3.358 7.5 7.5 7.5h41.016v41.016c0 4.142 3.358 7.5 7.5 7.5s7.5-3.358 7.5-7.5v-48.516c0-4.142-3.358-7.5-7.5-7.5z"/><path d="m504.498 108.559c-4.142 0-7.5 3.358-7.5 7.5v41.016h-41.016c-4.142 0-7.5 3.358-7.5 7.5s3.358 7.5 7.5 7.5h48.516c4.142 0 7.5-3.358 7.5-7.5v-48.516c0-4.142-3.358-7.5-7.5-7.5z"/><path d="m347.424 63.516c4.142 0 7.5-3.358 7.5-7.5v-41.016h41.016c4.142 0 7.5-3.358 7.5-7.5s-3.358-7.5-7.5-7.5h-48.516c-4.142 0-7.5 3.358-7.5 7.5v48.516c0 4.142 3.358 7.5 7.5 7.5z"/><path d="m455.983 94.801c4.142 0 7.5-3.358 7.5-7.5s-3.358-7.5-7.5-7.5h-22.521v-50.881c0-4.142-3.358-7.5-7.5-7.5s-7.5 3.358-7.5 7.5v50.881h-22.522c-4.142 0-7.5 3.358-7.5 7.5v48.349h-19.594c-4.142 0-7.5 3.358-7.5 7.5s3.358 7.5 7.5 7.5h27.094c4.142 0 7.5-3.358 7.5-7.5v-48.349h22.521z"/><path d="m425.962 107.726c-4.142 0-7.5 3.358-7.5 7.5v27.924c0 4.142 3.358 7.5 7.5 7.5s7.5-3.358 7.5-7.5v-27.924c0-4.143-3.358-7.5-7.5-7.5z"/><path d="m483.076 94.801c4.142 0 7.5-3.358 7.5-7.5s-3.358-7.5-7.5-7.5h-6.528c-4.142 0-7.5 3.358-7.5 7.5s3.358 7.5 7.5 7.5z"/><path d="m363.429 79.801c-4.142 0-7.5 3.358-7.5 7.5s3.358 7.5 7.5 7.5h6.528c4.142 0 7.5-3.358 7.5-7.5s-3.358-7.5-7.5-7.5z"/><path d="m226.335 408.961c1.422 1.902 3.652 3.01 6.007 3.01.171 0 .344-.006.517-.018 2.542-.175 4.82-1.629 6.051-3.859l52.343-94.87c2.001-3.626.683-8.189-2.944-10.19-3.628-2.001-8.189-.684-10.19 2.944l-46.727 84.692-24.272-32.477c-2.479-3.317-7.179-3.996-10.498-1.518-3.318 2.48-3.998 7.18-1.518 10.498z"/><path d="m139.04 482.218h48.953c4.142 0 7.5-3.358 7.5-7.5s-3.358-7.5-7.5-7.5h-48.953c-4.142 0-7.5 3.358-7.5 7.5s3.358 7.5 7.5 7.5z"/><path d="m187.992 105.737c4.142 0 7.5-3.358 7.5-7.5s-3.358-7.5-7.5-7.5h-48.952c-4.142 0-7.5 3.358-7.5 7.5s3.358 7.5 7.5 7.5z"/><path d="m289.684 60.244h-252.336c-20.593 0-37.348 16.754-37.348 37.348v377.058c0 20.594 16.754 37.349 37.348 37.349h252.335c20.594 0 37.349-16.754 37.349-37.349v-60.742c0-4.142-3.358-7.5-7.5-7.5s-7.5 3.358-7.5 7.5v7.995c0 .023-.003.045-.003.068v15.12h-297.029v-305.7h36.49c4.142 0 7.5-3.358 7.5-7.5s-3.358-7.5-7.5-7.5h-36.49v-18.799c0-12.323 10.025-22.348 22.348-22.348h252.335c12.323 0 22.349 10.025 22.349 22.348v18.798h-225.542c-4.142 0-7.5 3.358-7.5 7.5s3.358 7.5 7.5 7.5h225.54v255.58c0 4.142 3.358 7.5 7.5 7.5s7.5-3.358 7.5-7.5l.003-289.378c-.001-20.594-16.755-37.348-37.349-37.348zm22.348 391.846v22.56c0 12.323-10.025 22.349-22.349 22.349h-252.335c-12.322 0-22.348-10.026-22.348-22.349v-22.56z"/></g></svg>