<svg id="Capa_1" enable-background="new 0 0 512 512" height="512" viewBox="0 0 512 512" width="512" xmlns="http://www.w3.org/2000/svg"><g><path d="m145.105 483.135c15.797 0 28.649-12.852 28.649-28.649s-12.852-28.649-28.649-28.649-28.649 12.852-28.649 28.649 12.853 28.649 28.649 28.649zm0-42.299c7.526 0 13.649 6.123 13.649 13.649s-6.123 13.649-13.649 13.649-13.649-6.123-13.649-13.649 6.124-13.649 13.649-13.649z"/><path d="m446.864 425.836c-15.797 0-28.649 12.852-28.649 28.649s12.853 28.649 28.649 28.649 28.648-12.852 28.648-28.649-12.851-28.649-28.648-28.649zm0 42.299c-7.526 0-13.649-6.123-13.649-13.649s6.123-13.649 13.649-13.649c7.525 0 13.648 6.123 13.648 13.649s-6.122 13.649-13.648 13.649z"/><path d="m494.061 349.633c.46-1.69.727-3.459.727-5.292v-69.698c0-11.136-9.06-20.196-20.196-20.196h-45.547c.268-1.267.415-2.579.415-3.925v-17.16c0-4.142-3.357-7.5-7.5-7.5s-7.5 3.358-7.5 7.5v17.16c0 2.162-1.759 3.92-3.92 3.92h-254.01c-2.162 0-3.92-1.758-3.92-3.92v-72.25c0-2.162 1.758-3.92 3.92-3.92h1.94c.026 0 .051.004.077.004h67.966v45.214c0 5.436 2.806 10.311 7.506 13.041 2.368 1.375 4.97 2.064 7.574 2.064 2.564 0 5.129-.667 7.472-2.003l21.719-12.384 21.72 12.385c4.721 2.691 10.347 2.67 15.047-.062 4.699-2.73 7.505-7.605 7.505-13.041v-45.214l95.484-.004c2.161 0 3.92 1.758 3.92 3.92v20.09c0 4.142 3.357 7.5 7.5 7.5s7.5-3.358 7.5-7.5v-20.09c0-10.433-8.487-18.92-18.92-18.92h-37.825c.559-1.884.87-3.874.87-5.937v-132.472c0-11.547-9.395-20.941-20.941-20.941h-194.097c-11.547 0-20.941 9.394-20.941 20.941v132.472c0 4.809 1.646 9.232 4.383 12.771-2.731 3.281-4.378 7.494-4.378 12.086v72.25c0 4.483 1.575 8.601 4.19 11.847-2.619 3.406-4.195 7.655-4.195 12.274v69.698c0 1.801.26 3.538.704 5.201h-19.34v-290.661c0-32.466-26.414-58.88-58.88-58.88h-35.09c-6.672 0-12.949 2.602-17.673 7.327s-7.327 11.001-7.327 17.673c0 13.785 11.215 25 25 25h35.09c4.896 0 8.88 3.983 8.88 8.88v25.42c0 4.142 3.358 7.5 7.5 7.5s7.5-3.358 7.5-7.5v-25.42c0-13.167-10.713-23.88-23.88-23.88h-35.09c-5.514 0-10-4.486-10-10 0-2.666 1.042-5.175 2.933-7.067s4.401-2.933 7.067-2.933h35.09c24.196 0 43.88 19.685 43.88 43.88v290.66h-15.26c-1.636 0-3.218.222-4.74.599v-230.84c0-4.142-3.358-7.5-7.5-7.5s-7.5 3.358-7.5 7.5v284.38c0 10.884 8.855 19.74 19.74 19.74h8.001c-5.89 9.164-9.12 19.892-9.12 31.068 0 31.711 25.803 57.51 57.52 57.51 31.711 0 57.51-25.799 57.51-57.51 0-11.176-3.23-21.904-9.12-31.068h63.87c4.143 0 7.5-3.358 7.5-7.5s-3.357-7.5-7.5-7.5h-168.661c-2.614 0-4.74-2.126-4.74-4.74v-34.4c0-2.613 2.126-4.74 4.74-4.74h403.54c2.619 0 4.75 2.126 4.75 4.74v34.4c0 2.613-2.131 4.74-4.75 4.74h-199.88c-4.143 0-7.5 3.358-7.5 7.5s3.357 7.5 7.5 7.5h106.099c-5.89 9.164-9.12 19.892-9.12 31.068 0 31.711 25.799 57.51 57.51 57.51 31.717 0 57.52-25.799 57.52-57.51 0-11.27-3.285-22.084-9.271-31.299 9.537-1.392 16.892-9.597 16.892-19.509v-34.4c0-10.272-7.895-18.729-17.939-19.647zm-306.441 104.856c0 23.44-19.07 42.51-42.51 42.51-23.445 0-42.52-19.07-42.52-42.51 0-11.846 4.889-23.026 13.49-31.068h58.049c8.602 8.043 13.491 19.222 13.491 31.068zm292.168-179.847v69.698c0 2.865-2.331 5.196-5.196 5.196h-316.79c-2.865 0-5.196-2.331-5.196-5.196v-69.698c0-2.865 2.331-5.196 5.196-5.196h126.354v45.214c0 5.436 2.806 10.311 7.507 13.041 2.368 1.375 4.97 2.064 7.573 2.064 2.564 0 5.13-.668 7.472-2.004l21.72-12.384 21.72 12.384c4.722 2.692 10.347 2.67 15.046-.06 4.7-2.73 7.506-7.605 7.506-13.041v-45.214h101.893c2.864 0 5.195 2.331 5.195 5.196zm-122.082 40.052c-.018.023-.072.056-.129.038l-25.435-14.503c-2.303-1.313-5.127-1.313-7.43 0l-25.46 14.525c-.029-.003-.086-.036-.097-.093v-45.214h58.545zm-57.644-95.091c-.018.023-.07.057-.129.038l-25.435-14.503c-2.303-1.313-5.127-1.313-7.43 0l-25.459 14.525c-.029-.003-.086-.037-.097-.093v-45.214h58.543zm-15.194-204.602.006 54.269c-.017.024-.077.058-.129.039l-25.435-14.503c-2.303-1.313-5.127-1.313-7.43 0l-25.46 14.524c-.029-.003-.086-.037-.097-.093v-54.236zm-132.263 5.942c0-3.276 2.666-5.941 5.941-5.941h52.777v54.236c0 5.436 2.806 10.311 7.506 13.041s10.325 2.753 15.046.061l21.72-12.384 21.72 12.384c2.343 1.336 4.907 2.003 7.472 2.003 2.603 0 5.206-.688 7.574-2.064 4.7-2.73 7.506-7.605 7.506-13.041v-54.237h52.776c3.276 0 5.941 2.666 5.941 5.941v132.472c0 3.25-2.624 5.895-5.864 5.937h-194.25c-3.24-.042-5.864-2.687-5.864-5.937v-132.471zm294.254 476.056c-23.44 0-42.51-19.07-42.51-42.51 0-11.846 4.888-23.026 13.49-31.068h58.049c8.602 8.042 13.491 19.222 13.491 31.068 0 23.44-19.074 42.51-42.52 42.51z"/></g></svg>