<svg id="Capa_1" enable-background="new 0 0 512 512" height="512" viewBox="0 0 512 512" width="512" xmlns="http://www.w3.org/2000/svg"><path d="m465.189 259.696c5.53-2.358 10.575-4.922 15.057-7.686 3.526-2.174 4.622-6.794 2.447-10.32s-6.795-4.621-10.32-2.447c-6.642 4.096-14.81 7.74-24.278 10.862-3.563-1.641-7.31-3.156-11.241-4.531.793-6.401-.799-12.961-4.507-18.282-4.149-5.955-10.379-9.83-17.539-10.911-36.578-5.528-73.671-5.528-110.249 0-7.17 1.081-13.404 4.959-17.554 10.919-3.7 5.314-5.288 11.861-4.498 18.248-14.066 4.915-26.791 12.051-37.939 21.269-60.418-.176-121.991-1.877-165.358-12.378-43.807-10.605-64.21-28.527-64.21-56.402 0-30.837 24.394-60.243 68.688-82.8 10.608-5.402 22.041-10.236 34.143-14.487-19.15 23.575-34.753 51.157-28.811 74.042 2.24 8.629 7.242 11.583 11.044 12.542 1.16.292 2.344.438 3.564.438 11.93-.001 27.119-13.964 52.62-41.453 2.817-3.037 2.639-7.782-.398-10.599s-7.782-2.639-10.599.398c-8.861 9.552-19.048 20.294-27.415 27.548-8.476 7.349-12.401 8.769-13.711 9.039-.159-.327-.373-.859-.586-1.681-4.618-17.784 10.182-45.654 41.677-78.592 15.993-4.152 32.855-7.382 50.332-9.633-9.383 9.203-18.453 18.805-26.595 27.577-2.818 3.036-2.642 7.781.394 10.599 1.444 1.341 3.274 2.003 5.101 2.003 2.013 0 4.021-.806 5.499-2.397 12.084-13.018 26.228-27.879 40.2-40.273 10.875-.807 21.932-1.24 33.111-1.302-29.871 34.865-42.049 63.924-36.188 86.502 2.383 9.178 7.66 12.295 11.667 13.293 1.2.299 2.427.447 3.692.447 15.061-.002 35.122-21.043 69.915-58.968 10.544-11.493 21.423-23.342 32.505-34.707 13.133 2.27 25.845 5.111 38.019 8.498-25.303 30.467-35.508 55.975-30.329 75.916 2.246 8.654 7.267 11.604 11.084 12.555 1.139.284 2.302.424 3.498.424 13.961-.001 32.242-19.165 63.891-53.665 3.626-3.953 7.345-8.007 11.111-12.075 41.878 22.281 64.877 50.871 64.877 80.811 0 6.975-1.28 13.369-3.804 19.003-1.694 3.78-.002 8.217 3.778 9.911 3.78 1.693 8.217.002 9.911-3.778 3.395-7.576 5.116-16.033 5.116-25.136 0-36.767-27.304-70.919-76.881-96.167-47.972-24.429-111.584-37.883-179.12-37.883s-131.148 13.454-179.119 37.883c-49.577 25.248-76.881 59.401-76.881 96.167 0 35.434 24.755 58.653 75.681 70.983 41.186 9.972 97.349 12.271 153.735 12.719-5.862 6.868-11.003 14.421-15.387 22.59-1.22.172-2.441.333-3.66.517-7.165 1.081-13.396 4.958-17.546 10.915-3.706 5.32-5.298 11.877-4.505 18.276-42.922 15.004-63.435 47.288-71.989 65.78-2.089 4.533-3.148 9.351-3.148 14.319 0 7.897 2.777 15.59 7.823 21.665 6.564 7.895 16.25 12.185 26.125 12.185 4.625 0 9.293-.942 13.699-2.896 1.643-.73 3.333-1.455 5.167-2.216 3.826-1.586 5.642-5.975 4.055-9.801s-5.973-5.641-9.801-4.055c-1.952.809-3.755 1.583-5.508 2.362-7.701 3.417-16.831 1.29-22.2-5.167-2.811-3.384-4.359-7.674-4.359-12.078 0-2.785.596-5.491 1.767-8.031 7.397-15.992 24.943-43.719 61.352-57.214l13.779 66.533c-3.793.741-7.599 1.577-11.384 2.527-4.018 1.009-6.457 5.083-5.448 9.101.855 3.404 3.911 5.675 7.269 5.675.604 0 1.219-.074 1.832-.228 4.166-1.046 8.358-1.952 12.521-2.723 4.762 7.356 13.028 12.049 22.004 12.049 1.123 0 2.259-.074 3.399-.224 20.052-2.652 40.388-2.651 60.439 0 10.255 1.359 20.064-3.542 25.42-11.827 12.464 2.319 29.781 6.771 49.028 15.312 4.367 1.941 8.998 2.925 13.765 2.925 10.096 0 19.59-4.451 26.049-12.209 8.327-9.999 10.166-24.128 4.68-36.003-5.946-12.834-17.664-32.325-38.626-48.061 4.646.33 9.279.786 13.881 1.395 1.139.15 2.269.223 3.391.223 8.975-.001 17.243-4.695 22.008-12.052 12.465 2.318 29.788 6.77 49.043 15.314 4.366 1.941 8.998 2.925 13.765 2.925 10.096 0 19.59-4.451 26.048-12.209 8.327-9.999 10.166-24.127 4.681-36.004-6.409-13.824-19.511-35.373-43.656-51.633zm-173.898-149.558c-14.172 15.448-27.558 30.038-38.604 40.237-13.876 12.812-18.932 13.845-20.107 13.874-.204-.297-.603-1.018-.991-2.512-4.904-18.891 9.823-48.1 41.493-82.448 14.842.517 29.417 1.706 43.589 3.538-8.644 9.08-17.117 18.303-25.38 27.311zm84.27 44.941c-11.535 10.734-16.392 12.543-17.91 12.833-.16-.326-.376-.862-.593-1.696-4.037-15.543 7.121-39.375 31.458-67.392 10.345 3.419 20.227 7.258 29.562 11.5-2.745 2.978-5.459 5.934-8.12 8.835-12.608 13.744-24.518 26.727-34.397 35.92zm-123.347 124.914c9.703-8.42 20.872-14.978 33.278-19.567 2.855 13.802 5.712 27.601 8.571 41.398-20.396-1.584-40.873-1.465-61.257.347 4.741-7.121 11.089-14.962 19.408-22.178zm-18.909 146.739c-5.761.763-11.216-3.131-12.403-8.866l-17.561-84.798c-.634-3.063.001-6.165 1.791-8.733 1.407-2.02 3.376-3.466 5.653-4.212 18.788 8.155 37.286 22.318 51.046 39.173 16.031 19.637 25.27 42.455 27.03 66.438-18.485-1.767-37.132-1.438-55.556.998zm70.615-1.008c-1.777-27.468-12.219-53.557-30.471-75.914-10.388-12.723-23.256-24.069-37.026-32.892 9.676-.797 19.371-1.21 29.068-1.21 17.669 0 35.338 1.323 52.884 3.971 3.05.46 5.705 2.114 7.477 4.657 1.789 2.568 2.425 5.669 1.79 8.733l-17.561 84.798c-.735 3.545-3.101 6.383-6.161 7.857zm97.118-19.626c3.067 6.64 2.049 14.532-2.594 20.107-3.601 4.326-8.894 6.808-14.521 6.808-2.654 0-5.235-.549-7.676-1.634-19.504-8.655-37.183-13.38-50.341-15.96l13.776-66.521c36.387 13.486 53.949 41.213 61.356 57.2zm-58.375-72.056c.794-6.4-.797-12.959-4.503-18.28-4.15-5.958-10.382-9.834-17.547-10.916-3.631-.548-7.268-1.026-10.909-1.465-4.061-19.591-8.117-39.183-12.172-58.789-.635-3.059-.001-6.156 1.784-8.721 1.407-2.022 3.38-3.47 5.663-4.215 18.786 8.156 37.281 22.317 51.041 39.17 16.033 19.639 25.272 42.46 27.031 66.446-11.326-1.082-22.765-1.38-34.137-.883-2.024-.825-4.118-1.601-6.251-2.347zm61.611-4.648c-.735 3.545-3.105 6.382-6.165 7.855-1.778-27.465-12.22-53.553-30.47-75.907-10.388-12.724-23.256-24.069-37.027-32.892 27.309-2.254 54.78-1.343 81.956 2.765 3.048.46 5.702 2.113 7.472 4.654 1.789 2.567 2.426 5.668 1.794 8.727-4.814 23.224-9.621 46.447-14.427 69.665zm88.36 8.343c-3.601 4.326-8.894 6.807-14.521 6.807-2.655 0-5.236-.549-7.676-1.634-19.503-8.654-37.18-13.38-50.338-15.96l1.998-9.649c3.923-18.953 7.849-37.912 11.778-56.872 36.386 13.488 53.948 41.214 61.354 57.2 3.065 6.64 2.048 14.533-2.595 20.108z"/></svg>