<svg id="Capa_1" enable-background="new 0 0 512 512" height="512" viewBox="0 0 512 512" width="512" xmlns="http://www.w3.org/2000/svg"><g><path d="m131.664 124.577c1.389 2.406 3.91 3.751 6.502 3.751 1.272 0 2.562-.324 3.743-1.006l8.718-5.033v10.067c0 4.142 3.358 7.5 7.5 7.5s7.5-3.358 7.5-7.5v-10.066l8.718 5.033c1.181.682 2.471 1.006 3.743 1.006 2.592 0 5.113-1.346 6.502-3.751 2.071-3.587.842-8.174-2.745-10.245l-8.718-5.033 8.718-5.033c3.587-2.071 4.816-6.658 2.745-10.245-2.071-3.588-6.658-4.816-10.245-2.745l-8.718 5.033v-10.069c0-4.142-3.358-7.5-7.5-7.5s-7.5 3.358-7.5 7.5v10.067l-8.718-5.033c-3.588-2.071-8.174-.842-10.245 2.745s-.842 8.174 2.745 10.245l8.718 5.033-8.718 5.033c-3.588 2.072-4.817 6.659-2.745 10.246z"/><path d="m482.734 206.902c.736-2.106 1.156-4.358 1.156-6.712v-137.85c0-11.276-9.174-20.45-20.45-20.45h-17.37c-4.142 0-7.5 3.358-7.5 7.5s3.358 7.5 7.5 7.5h17.37c3.005 0 5.45 2.445 5.45 5.45v137.85c0 2.993-2.435 5.428-5.431 5.439h-212.579c-2.996-.011-5.43-2.446-5.43-5.439v-137.85c0-3.005 2.445-5.45 5.45-5.45h160.17c4.142 0 7.5-3.358 7.5-7.5s-3.358-7.5-7.5-7.5h-106.853c-4.014-23.677-24.849-41.89-49.517-41.89h-193.151c-27.686 0-50.21 22.524-50.21 50.21v86.69c0 4.142 3.358 7.5 7.5 7.5s7.5-3.358 7.5-7.5v-86.69c0-19.415 15.795-35.21 35.21-35.21h193.151c16.426 0 30.421 11.516 34.203 26.89h-38.003c-11.276 0-20.45 9.174-20.45 20.45v137.85c0 2.354.42 4.606 1.156 6.712-10.392 3.385-17.927 13.161-17.927 24.669v60.109h-42.082v-7.094c0-13.043-10.611-23.655-23.655-23.655h-76.113c-13.043 0-23.655 10.612-23.655 23.655v7.094h-21.831l-.004-119.78c0-4.143-3.358-7.5-7.5-7.5-4.143 0-7.5 3.358-7.5 7.5l.01 317.64c0 12.384 10.076 22.46 22.46 22.46h248.65c.01 0 .019-.001.029-.001h192.231c14.304 0 25.941-11.638 25.941-25.942v-254.486c.001-11.508-7.534-21.284-17.926-24.669zm2.927 54.778h-83.665v-41.05h61.443c.007 0 .013-.001.019-.001h11.26c6.033 0 10.941 4.909 10.941 10.942v30.109zm-246.04-41.051h11.259c.007 0 .013.001.019.001h136.097v41.05h-158.317v-30.109c0-6.033 4.909-10.942 10.942-10.942zm-176.447 63.956c0-4.772 3.882-8.655 8.655-8.655h76.113c4.772 0 8.655 3.883 8.655 8.655v7.094h-93.423zm0 22.095h93.423v7.095c0 4.772-3.882 8.655-8.655 8.655h-76.113c-4.772 0-8.655-3.882-8.655-8.655zm-36.824 182.86-.006-182.86h21.831v7.095c0 13.043 10.611 23.655 23.655 23.655h76.113c13.043 0 23.655-10.611 23.655-23.655v-7.095h42.082v179.377c0 3.909.874 7.616 2.429 10.943h-182.299c-4.114 0-7.46-3.347-7.46-7.46zm448.369 7.459h-235.098c-6.033 0-10.942-4.909-10.942-10.942v-209.377h256.981v209.376c.001 6.034-4.908 10.943-10.941 10.943z"/><path d="m432.187 339.198c-3.63 1.995-4.955 6.556-2.959 10.185 6.589 11.987 10.072 25.621 10.072 39.427 0 45.292-36.843 82.14-82.13 82.14s-82.13-36.848-82.13-82.14c0-45.287 36.843-82.13 82.13-82.13 19.376 0 38.181 6.872 52.95 19.349 3.165 2.674 7.896 2.276 10.569-.889 2.673-3.164 2.275-7.896-.889-10.569-17.472-14.761-39.715-22.891-62.63-22.891-53.558 0-97.13 43.572-97.13 97.13 0 53.563 43.572 97.14 97.13 97.14s97.13-43.577 97.13-97.14c0-16.326-4.125-32.458-11.928-46.653-1.996-3.63-6.557-4.954-10.185-2.959z"/><path d="m401.98 346.136c-.627-4.267-2.887-8.003-6.363-10.519-11.243-8.137-24.539-12.438-38.45-12.438-18.104 0-34.962 7.211-47.471 20.305-12.5 13.084-18.927 30.272-18.098 48.396 1.552 33.932 29.372 61.399 63.333 62.531.759.025 1.515.038 2.271.038 13.847 0 27.043-4.248 38.292-12.35 3.533-2.545 5.831-6.319 6.469-10.628.635-4.286-.46-8.538-3.084-11.971-6.779-8.873-10.362-19.485-10.362-30.69 0-11.201 3.584-21.812 10.366-30.686 2.59-3.389 3.719-7.758 3.097-11.988zm-15.02 82.47c.146.191.202.416.165.667-.028.188-.119.455-.397.654-9.146 6.587-19.959 9.867-31.296 9.493-26.195-.874-47.652-22.057-48.849-48.226-.64-13.991 4.318-27.255 13.96-37.349 9.651-10.103 22.658-15.667 36.625-15.667 10.732 0 20.987 3.316 29.655 9.589.176.127.283.312.317.548.026.18.018.447-.174.698-8.798 11.512-13.448 25.273-13.448 39.794-.001 14.526 4.648 28.288 13.442 39.799z"/><path d="m274.387 75.197c-7.965 0-14.445 6.48-14.445 14.445v83.239c0 7.965 6.48 14.445 14.445 14.445h165.567c7.965 0 14.445-6.48 14.445-14.445v-83.239c0-7.965-6.48-14.445-14.445-14.445zm.555 15h112.208v82.129h-112.208zm127.208 82.129v-48.467h37.249v48.467zm37.248-63.467h-37.248v-18.662h37.249v18.662z"/><path d="m293.979 124.321h76.799c4.142 0 7.5-3.358 7.5-7.5s-3.358-7.5-7.5-7.5h-76.799c-4.142 0-7.5 3.358-7.5 7.5s3.358 7.5 7.5 7.5z"/><path d="m370.778 138.203h-76.799c-4.142 0-7.5 3.358-7.5 7.5s3.358 7.5 7.5 7.5h76.799c4.142 0 7.5-3.358 7.5-7.5s-3.358-7.5-7.5-7.5z"/></g></svg>