<svg id="Capa_1" enable-background="new 0 0 511.994 511.994" height="512" viewBox="0 0 511.994 511.994" width="512" xmlns="http://www.w3.org/2000/svg"><g><path d="m213.034 135.429c14.752 0 26.753-12.001 26.753-26.753s-12.001-26.753-26.753-26.753h-79.772c-14.752 0-26.753 12.001-26.753 26.753s12.001 26.753 26.753 26.753zm-91.526-26.753c0-6.481 5.272-11.753 11.753-11.753h79.772c6.481 0 11.753 5.272 11.753 11.753s-5.272 11.753-11.753 11.753h-79.772c-6.48 0-11.753-5.272-11.753-11.753z"/><path d="m274.069 198.881c-4.301-8.684-14.61-12.411-23.47-8.487-24.268 10.741-46.362 32.508-54.52 41.117-7.305-2.031-14.99-3.141-22.934-3.141-7.945 0-15.631 1.11-22.938 3.142-8.157-8.609-30.25-30.376-54.515-41.12-8.854-3.913-19.164-.19-23.476 8.486-9.124 18.411-25.375 64.675 16.062 103.299-.543 3.893-.845 7.862-.845 11.902 0 22.715 9.002 41.186 26.033 53.416 14.882 10.688 35.519 16.337 59.678 16.337s44.795-5.649 59.677-16.337c17.031-12.23 26.033-30.701 26.033-53.416 0-4.042-.302-8.012-.845-11.906 41.432-38.622 25.183-84.883 16.06-103.292zm-17.397 5.229c1.495-.661 3.23-.034 3.956 1.429.628 1.268 1.272 2.647 1.914 4.109-9.195 4.861-25.995 16.456-34.092 39.025-5.208-4.41-10.945-8.207-17.104-11.288 9.5-9.416 27.057-25.189 45.326-33.275zm-167.047 0c18.264 8.086 35.819 23.861 45.318 33.277-6.438 3.22-12.411 7.228-17.804 11.895-7.8-22.373-24.148-34.106-33.568-39.233.698-1.609 1.401-3.123 2.084-4.502.728-1.468 2.474-2.099 3.97-1.437zm-13.292 39.924c-.121-6.967.835-13.573 2.318-19.546 8.529 5.146 22.141 16.414 26.473 37.53-5.305 6.914-9.588 14.649-12.604 22.99-10.478-12.047-15.923-25.781-16.187-40.974zm147.74 111.278c-12.317 8.845-29.927 13.521-50.928 13.521s-38.611-4.675-50.928-13.521c-13.126-9.427-19.782-23.299-19.782-41.232 0-38.99 31.721-70.71 70.71-70.71s70.71 31.72 70.71 70.71c.001 17.933-6.655 31.806-19.782 41.232zm16.372-94.212c4.68-21.192 18.747-32.25 27.067-37.085 1.551 6.098 2.566 12.866 2.441 20.019-.264 15.191-5.707 28.924-16.183 40.97-3.152-8.712-7.688-16.76-13.325-23.904z"/><path d="m202.03 323.685c-4.142 0-7.5 3.358-7.5 7.5 0 3.828-3.114 6.942-6.942 6.942s-6.942-3.114-6.942-6.942v-3.671h1.737c4.142 0 7.5-3.358 7.5-7.5s-3.358-7.5-7.5-7.5h-18.475c-4.142 0-7.5 3.358-7.5 7.5s3.358 7.5 7.5 7.5h1.738v3.671c0 3.828-3.115 6.942-6.943 6.942s-6.942-3.114-6.942-6.942c0-4.142-3.358-7.5-7.5-7.5s-7.5 3.358-7.5 7.5c0 12.099 9.843 21.942 21.942 21.942 5.525 0 10.581-2.053 14.443-5.436 3.862 3.383 8.917 5.436 14.442 5.436 12.099 0 21.942-9.843 21.942-21.942 0-4.143-3.358-7.5-7.5-7.5z"/><path d="m203.313 277.194c-13.976 0-25.345 11.37-25.345 25.345 0 4.142 3.358 7.5 7.5 7.5s7.5-3.358 7.5-7.5c0-5.705 4.641-10.345 10.345-10.345s10.345 4.641 10.345 10.345c0 4.142 3.358 7.5 7.5 7.5s7.5-3.358 7.5-7.5c0-13.976-11.369-25.345-25.345-25.345z"/><path d="m153.323 302.539c0 4.142 3.358 7.5 7.5 7.5s7.5-3.358 7.5-7.5c0-13.976-11.37-25.345-25.345-25.345s-25.345 11.37-25.345 25.345c0 4.142 3.358 7.5 7.5 7.5s7.5-3.358 7.5-7.5c0-5.705 4.641-10.345 10.345-10.345s10.345 4.64 10.345 10.345z"/><path d="m93.49 409.644h159.316c4.142 0 7.5-3.358 7.5-7.5s-3.358-7.5-7.5-7.5h-159.316c-4.142 0-7.5 3.358-7.5 7.5s3.358 7.5 7.5 7.5z"/><path d="m211.756 423.768h-77.216c-4.142 0-7.5 3.358-7.5 7.5s3.358 7.5 7.5 7.5h77.217c4.142 0 7.5-3.358 7.5-7.5s-3.358-7.5-7.501-7.5z"/><path d="m499.994 430.174v-157.959c1.861-1.042 3.593-2.343 5.144-3.893 4.421-4.421 6.856-10.297 6.856-16.543 0-12.908-10.497-23.41-23.4-23.41h-26.824l5.386-25.606c2.177-10.345-.396-20.986-7.057-29.195-6.662-8.209-16.546-12.917-27.118-12.917-10.571 0-20.455 4.708-27.117 12.917-6.661 8.208-9.234 18.85-7.059 29.196l5.386 25.606h-76.458l-6.648-74.3v-67.644c9.757-7.15 18.068-16.665 24.734-28.353 1.573-2.758 4.264-4.58 7.379-4.997 3.036-.407 6.028.605 8.203 2.784l2.647 2.647c-.15.417-.288.838-.401 1.27l-6.873 26.259c-1.369 5.227.154 10.848 3.976 14.669l40.464 40.463c2.885 2.886 6.721 4.475 10.802 4.475 4.08 0 7.916-1.589 10.801-4.474l34.507-34.507c5.955-5.956 5.955-15.646 0-21.601l-40.356-40.357c-3.953-3.952-9.74-5.429-15.101-3.855l-26.49 7.772-3.365-3.364c-5.506-5.513-13.094-8.08-20.804-7.048-7.793 1.043-14.506 5.574-18.418 12.432-4.312 7.56-9.391 14.007-15.163 19.266-4.752-8.605-13.916-14.448-24.422-14.448h-240.111c-15.373 0-27.88 12.507-27.88 27.88v7.62c0 4.142 3.358 7.5 7.5 7.5s7.5-3.358 7.5-7.5v-7.62c0-7.102 5.778-12.88 12.88-12.88h240.11c7.102 0 12.88 5.778 12.88 12.88v63.56h-265.87v-20.94c0-4.142-3.358-7.5-7.5-7.5s-7.5 3.358-7.5 7.5v28.105l-25.07 280.346c-.907 10.139 2.514 20.263 9.385 27.777 6.87 7.512 16.647 11.821 26.825 11.821h155.24c4.142 0 7.5-3.358 7.5-7.5s-3.358-7.5-7.5-7.5h-155.24c-6.065 0-11.661-2.466-15.756-6.944-4.096-4.479-6.054-10.274-5.514-16.318l24.489-273.848h267.152l5.948 66.47h-2.099c-6.247 0-12.122 2.435-16.544 6.857s-6.856 10.301-6.856 16.553c0 8.762 4.843 16.41 11.99 20.419v157.983c-7.148 4.01-11.991 11.659-11.991 20.421 0 2.962.559 5.795 1.568 8.407h-62.146c-4.142 0-7.5 3.358-7.5 7.5s3.358 7.5 7.5 7.5l261.996-.002c12.905 0 23.404-10.5 23.404-23.405-.001-8.766-4.849-16.417-12.001-20.427zm-93.906-374.931c.025-.007.052-.011.077-.011.071 0 .142.028.193.081l40.355 40.356c.107.107.107.282 0 .389l-34.507 34.507c-.026.026-.08.08-.193.08-.114 0-.168-.054-.194-.081l-40.463-40.464c-.069-.069-.097-.169-.072-.262 0-.001.001-.001.001-.002l4.997-19.093 9.258 9.257c2.93 2.929 7.678 2.929 10.607 0s2.929-7.678 0-10.606l-8.686-8.686zm7.396 144.432c-1.242-5.902.226-11.973 4.026-16.656s9.438-7.369 15.47-7.369 11.67 2.686 15.471 7.369c3.8 4.683 5.268 10.753 4.025 16.655l-6.036 28.694h-26.92zm-108.847 46.157c1.588-1.588 3.696-2.463 5.937-2.463h178.02c4.632 0 8.4 3.772 8.4 8.41 0 2.24-.875 4.348-2.464 5.937-1.588 1.588-3.696 2.463-5.937 2.463h-33.189c-4.143 0-7.5 3.358-7.5 7.5s3.357 7.5 7.5 7.5h29.59v152.019h-170.83v-152.019h106.24c4.143 0 7.5-3.358 7.5-7.5s-3.357-7.5-7.5-7.5h-109.83c-4.632 0-8.4-3.769-8.4-8.4-.001-2.247.874-4.359 2.463-5.947zm183.952 213.174h-178.011c-4.635 0-8.405-3.771-8.405-8.405s3.771-8.404 8.405-8.404h178.012c4.634 0 8.404 3.77 8.404 8.404s-3.771 8.405-8.405 8.405z"/><path d="m432.98 187.529c-4.143 0-7.5 3.358-7.5 7.5v11.837c0 4.142 3.357 7.5 7.5 7.5s7.5-3.358 7.5-7.5v-11.837c0-4.142-3.357-7.5-7.5-7.5z"/><g><path d="m380.13 354.777c-13.163-1.107-26.538 1.826-37.962 8.541-4.941 2.904-7.462 8.424-6.422 14.064 1.041 5.644 5.368 9.904 11.024 10.855l16.147 2.715 2.239 14.943c.861 5.75 5.115 10.168 10.837 11.255.873.166 1.742.247 2.6.247 4.735 0 9.092-2.468 11.545-6.708 6.556-11.333 9.41-24.571 8.318-37.585 1.803.153 3.607.236 5.407.236 16.823 0 33.291-6.606 45.441-18.756 16.127-16.127 22.486-39.86 16.595-61.936-.691-2.594-2.718-4.621-5.312-5.313-22.071-5.889-45.808.468-61.937 16.596-13.449 13.45-20.098 32.189-18.52 50.846zm-.835 44.244-2.349-15.674c-.48-3.21-2.973-5.747-6.174-6.285l-17.093-2.875c9.077-4.264 19.393-5.656 29.327-3.959 1.661 9.733.355 19.849-3.711 28.793zm73.064-98.146c2.676 15.625-2.363 31.804-13.662 43.103s-27.477 16.337-43.102 13.662c-2.676-15.626 2.363-31.804 13.662-43.103s27.477-16.336 43.102-13.662z"/><path d="m431.983 328.786h.997c4.143 0 7.5-3.358 7.5-7.5s-3.357-7.5-7.5-7.5h-.997c-4.143 0-7.5 3.358-7.5 7.5s3.357 7.5 7.5 7.5z"/></g></g></svg>