<svg id="Capa_1" enable-background="new 0 0 512 512" height="512" viewBox="0 0 512 512" width="512" xmlns="http://www.w3.org/2000/svg"><g><path d="m507.068 148.315c2.015-3.441 3.102-7.361 3.078-11.453-.07-12.337-10.163-22.374-22.498-22.374-.014 0-.114 0-.128 0-5.249.029-11.421.057-17.29.074v-91.471c0-12.406-10.094-22.5-22.5-22.5s-22.5 10.094-22.5 22.5v113.897c0 2.623.459 5.146 1.288 7.5h-11.192c.846-2.385 1.303-4.953 1.289-7.626-.07-12.337-10.163-22.374-22.498-22.374-.014 0-.114 0-.128 0-5.25.029-11.423.057-17.292.074v-91.471c0-12.406-10.094-22.5-22.5-22.5s-22.5 10.094-22.5 22.5v113.897c0 2.623.459 5.146 1.288 7.5h-12.01c1.745-4.977 1.697-10.355-.188-15.348l-42.413-112.392c-.004-.011-.008-.023-.013-.034l-.23-.583c-3.885-9.44-12.99-15.539-23.226-15.539-10.223.011-19.325 6.133-23.161 15.525-.079.188-.153.376-.228.572l-42.805 112.387c-1.908 5.01-1.962 10.412-.21 15.413h-10.461c1.534-3.848 2.032-8.157 1.196-12.517l-8.09-42.32c-.777-4.069-4.711-6.734-8.774-5.958-4.068.778-6.736 4.707-5.958 8.775l8.09 42.323c.777 4.058-1.898 7.993-5.958 8.771-1.97.374-3.962-.038-5.62-1.164-1.655-1.125-2.773-2.826-3.149-4.797l-11.4-59.64c-.652-3.412-3.562-5.93-7.033-6.084-3.479-.156-6.593 2.096-7.546 5.436l-17.105 60-.039.135c-.02.057-.039.114-.058.171-1.342 4.146-5.165 6.943-9.484 6.96h-.112c-.005 0-.009 0-.014 0-4.29 0-8.095-2.72-9.498-6.782l-.069-.228c-.012-.041-.023-.081-.035-.121l-17.73-60.1c-.983-3.334-4.125-5.551-7.6-5.367-3.471.188-6.357 2.736-6.975 6.157l-10.718 59.382c-.74 4.074-4.648 6.793-8.712 6.061-4.074-.74-6.792-4.651-6.059-8.718l20.04-111.01h-.001l.015-.082c.866-4.493 4.655-7.843 9.224-8.147 4.556-.31 8.766 2.501 10.209 6.796l.03.098c.032.106.065.213.1.319l20.409 69.186c.94 3.19 3.869 5.378 7.193 5.378h.034c3.338-.015 6.264-2.234 7.179-5.444l19.705-69.122.086-.279c1.41-4.348 5.586-7.206 10.144-6.947 4.536.256 8.347 3.527 9.297 7.967l6.6 34.524c.777 4.069 4.705 6.735 8.775 5.958 4.068-.778 6.735-4.707 5.957-8.775l-6.563-34.325c-.016-.101-.034-.201-.055-.3-2.282-11.153-11.808-19.387-23.164-20.028-11.349-.636-21.744 6.468-25.244 17.251-.076.23-.143.449-.207.667-.009.029-.037.125-.046.154l-12.62 44.271-13.124-44.487c-.026-.089-.049-.162-.078-.25l-.03-.099c-.044-.142-.088-.284-.146-.458-3.625-10.794-14.101-17.793-25.447-17.024-11.354.756-20.791 9.092-22.946 20.273-.006.031-.021.122-.027.154-.007.034-.013.069-.02.104l-20.04 111.011c-.773 4.286-.265 8.512 1.243 12.29h-1.226c-8.186 0-14.846 6.659-14.846 14.845v33.319c0 8.186 6.66 14.845 14.846 14.845h12.794v288.141c0 8.696 7.074 15.77 15.771 15.77h425.18c8.696 0 15.771-7.074 15.771-15.77v-214.86c0-4.142-3.357-7.5-7.5-7.5s-7.5 3.358-7.5 7.5v65.551h-50.634c-9.482 0-17.197 7.715-17.197 17.198v92.748c0 9.483 7.715 17.198 17.197 17.198h50.634v22.165c0 .425-.346.77-.771.77h-98.361v-135.074h1.481c8.558 0 15.521-6.963 15.521-15.521v-20.963c0-8.558-6.963-15.521-15.521-15.521h-231.423c-8.558 0-15.521 6.963-15.521 15.521v20.963c0 8.558 6.963 15.521 15.521 15.521h1.481v75.425c0 4.142 3.357 7.5 7.5 7.5s7.5-3.358 7.5-7.5v-75.425h55.732v135.075h-55.731v-24.73c0-4.142-3.357-7.5-7.5-7.5s-7.5 3.358-7.5 7.5v24.73h-98.36c-.425 0-.771-.345-.771-.77v-22.165h50.634c9.482 0 17.197-7.715 17.197-17.198v-92.748c0-9.483-7.715-17.198-17.197-17.198h-50.633v-138.832h426.72v38.281c0 4.142 3.357 7.5 7.5 7.5s7.5-3.358 7.5-7.5v-38.281h12.794c8.186 0 14.846-6.66 14.846-14.845v-33.319c0-4.374-1.913-8.3-4.932-11.019zm-37.711 310.159h-50.631c-1.212 0-2.197-.986-2.197-2.198v-92.748c0-1.212.985-2.198 2.197-2.198h50.631zm-329.589-112.661v-20.963c0-.287.233-.521.521-.521h231.424c.287 0 .521.234.521.521v20.963c0 .287-.233.521-.521.521h-231.425c-.287 0-.52-.233-.52-.521zm144.73 15.521v135.073h-56.996v-135.073zm15 0h55.732v135.075h-55.732zm-256.855-.004h50.631c1.212 0 2.197.986 2.197 2.198v92.748c0 1.212-.985 2.198-2.197 2.198h-50.631zm397.587-338.239c0-4.135 3.364-7.5 7.5-7.5s7.5 3.365 7.5 7.5v98.989c0 1.991.792 3.9 2.2 5.307 1.407 1.404 3.312 2.193 5.3 2.193h.011c7.752-.011 17.271-.05 24.878-.092h.029c4.111 0 7.475 3.346 7.498 7.459.012 2.003-.758 3.891-2.166 5.315-1.409 1.424-3.288 2.215-5.292 2.226-12.533.07-21.682.104-27.968.104-11.093 0-12.659-.109-13.258-.212-3.611-.619-6.232-3.728-6.232-7.392zm-93.533 0c0-4.135 3.364-7.5 7.5-7.5s7.5 3.365 7.5 7.5v98.989c0 1.991.792 3.9 2.2 5.307 1.407 1.404 3.312 2.193 5.3 2.193h.011c7.752-.011 17.271-.05 24.88-.092h.029c4.111 0 7.475 3.346 7.498 7.457.022 4.136-3.323 7.52-7.458 7.543-12.535.07-21.685.104-27.97.104-11.093 0-12.659-.109-13.258-.212-3.611-.619-6.232-3.728-6.232-7.392zm-143.968 111.324 42.803-112.382.069-.175c1.553-3.802 5.212-6.262 9.332-6.267 4.104 0 7.764 2.453 9.302 6.188l42.52 112.658c.707 1.874.643 3.911-.183 5.737-.825 1.825-2.312 3.22-4.188 3.928-.854.323-1.744.486-2.644.487-3.103 0-5.924-1.952-7.021-4.856l-6.9-18.287c-1.102-2.92-3.896-4.852-7.017-4.852h-48.066c-3.112 0-5.901 1.922-7.009 4.831l-6.98 18.328c-.713 1.873-2.113 3.355-3.941 4.175-1.827.82-3.864.879-5.738.165-1.872-.713-3.354-2.112-4.173-3.94-.821-1.828-.878-3.866-.166-5.738zm75.753 10.073h-47.488l4.911-12.894h37.711zm-157.379-3.013 8.467-29.698 5.474 28.634c.268 1.409.672 2.77 1.186 4.076h-16.223c.306-.709.591-1.431.835-2.176.09-.262.171-.528.261-.836zm-61.982-1.284 5.099-28.25 8.765 29.707c.043.152.089.303.135.452l.032.106c.027.094.057.187.088.28.229.684.49 1.349.773 2.002h-16.122c.541-1.364.958-2.799 1.23-4.297zm437.879 52.307h-482v-33.01h482z"/><path d="m80.629 228.03c-9.257 0-16.787 7.531-16.787 16.787v18.741c0 9.256 7.53 16.787 16.787 16.787h59.355c9.256 0 16.786-7.531 16.786-16.787v-18.741c0-9.256-7.53-16.787-16.786-16.787zm61.142 16.787v18.741c0 .985-.801 1.787-1.786 1.787h-59.356c-.985 0-1.787-.802-1.787-1.787v-18.741c0-.985.802-1.787 1.787-1.787h59.355c.986 0 1.787.802 1.787 1.787z"/><path d="m226.322 228.03c-9.257 0-16.787 7.531-16.787 16.787v18.741c0 9.256 7.53 16.787 16.787 16.787h59.355c9.257 0 16.787-7.531 16.787-16.787v-18.741c0-9.256-7.53-16.787-16.787-16.787zm61.143 16.787v18.741c0 .985-.802 1.787-1.787 1.787h-59.355c-.985 0-1.787-.802-1.787-1.787v-18.741c0-.985.802-1.787 1.787-1.787h59.355c.985 0 1.787.802 1.787 1.787z"/><path d="m372.016 228.03c-9.256 0-16.786 7.531-16.786 16.787v18.741c0 9.256 7.53 16.787 16.786 16.787h59.355c9.257 0 16.787-7.531 16.787-16.787v-18.741c0-9.256-7.53-16.787-16.787-16.787zm61.142 16.787v18.741c0 .985-.802 1.787-1.787 1.787h-59.355c-.985 0-1.786-.802-1.786-1.787v-18.741c0-.985.801-1.787 1.786-1.787h59.355c.985 0 1.787.802 1.787 1.787z"/><path d="m201.941 446.304v-44.707c0-4.142-3.357-7.5-7.5-7.5s-7.5 3.358-7.5 7.5v44.707c0 4.142 3.357 7.5 7.5 7.5s7.5-3.357 7.5-7.5z"/><path d="m243.006 453.804c4.143 0 7.5-3.358 7.5-7.5v-44.707c0-4.142-3.357-7.5-7.5-7.5s-7.5 3.358-7.5 7.5v44.707c0 4.143 3.357 7.5 7.5 7.5z"/><path d="m314.159 394.098c-4.143 0-7.5 3.358-7.5 7.5v44.707c0 4.142 3.357 7.5 7.5 7.5s7.5-3.358 7.5-7.5v-44.707c0-4.142-3.357-7.5-7.5-7.5z"/><path d="m239.523 101.594h30.598c2.463 0 4.769-1.209 6.169-3.234 1.4-2.026 1.718-4.61.848-6.914l-15.229-40.354c-1.1-2.916-3.889-4.847-7.005-4.852-.004 0-.008 0-.012 0-3.111 0-5.901 1.922-7.009 4.831l-15.369 40.354c-.878 2.305-.566 4.895.833 6.926 1.401 2.03 3.71 3.243 6.176 3.243zm15.337-26.698 4.414 11.697h-8.869z"/></g></svg>