<svg id="Capa_1" enable-background="new 0 0 512 512" height="512" viewBox="0 0 512 512" width="512" xmlns="http://www.w3.org/2000/svg"><g><path d="m510.45 346.128-31.842-87.982c-4.965-13.707-16.251-24.404-30.196-28.617-12.8-3.859-25.949-6.796-39.077-8.729-13.186-1.951-26.623-2.941-39.938-2.941h-36.16c-24.671 0-49.181 3.343-72.96 9.927v-72.006h40.229c6.688 0 12.973-3.27 16.812-8.748 3.836-5.473 4.767-12.49 2.49-18.764l-31.83-87.98c-4.961-13.708-16.252-24.406-30.205-28.618-12.765-3.852-25.913-6.792-39.086-8.74-13.206-1.944-26.637-2.93-39.921-2.93h-36.17c-26.761 0-53.346 3.926-79.019 11.67-13.946 4.213-25.233 14.911-30.193 28.618l-31.828 87.974c-2.278 6.283-1.35 13.3 2.487 18.773 3.838 5.476 10.123 8.745 16.813 8.745h40.22v28.73c0 4.142 3.357 7.5 7.5 7.5s7.5-3.358 7.5-7.5l.006-68.996c0-4.142-3.357-7.5-7.5-7.5s-7.5 3.358-7.5 7.5v25.266h-40.225c-1.831 0-3.482-.858-4.531-2.355-1.047-1.493-1.29-3.333-.666-5.053l31.83-87.979c3.355-9.274 10.992-16.512 20.423-19.362 9.426-2.843 18.984-5.135 28.63-6.883 3.996 26.36 31.224 46.823 64.136 46.823 32.915 0 60.146-20.464 64.143-46.823 9.65 1.752 19.244 4.053 28.619 6.883 9.438 2.849 17.077 10.087 20.434 19.361l31.832 87.986c.621 1.712.377 3.551-.67 5.045-1.05 1.498-2.701 2.357-4.529 2.357h-40.228v-25.266c0-4.142-3.357-7.5-7.5-7.5s-7.5 3.358-7.5 7.5l-.002 117.811c-9.748 5.39-17.412 14.194-21.263 24.823l-7.595 20.992h-132.743c-4.19 0-7.6-3.405-7.6-7.59v-52.04c0-4.142-3.357-7.5-7.5-7.5s-7.5 3.358-7.5 7.5v52.04c0 12.457 10.138 22.59 22.6 22.59h127.316l-18.807 51.982c-2.278 6.28-1.348 13.297 2.488 18.771 3.84 5.478 10.125 8.748 16.812 8.748h40.229v115.77c0 12.456 10.134 22.59 22.59 22.59h15.181c4.143 0 7.5-3.358 7.5-7.5s-3.357-7.5-7.5-7.5h-15.181c-4.186 0-7.59-3.405-7.59-7.59v-156.035c0-4.142-3.357-7.5-7.5-7.5s-7.5 3.358-7.5 7.5v25.264h-40.229c-1.828 0-3.479-.859-4.529-2.357-1.047-1.494-1.291-3.333-.668-5.051l31.829-87.978c3.359-9.274 10.999-16.514 20.435-19.364 9.422-2.843 18.977-5.135 28.622-6.883 3.995 26.361 31.224 46.826 64.136 46.826 32.915 0 60.145-20.462 64.143-46.821 9.632 1.745 19.228 4.045 28.623 6.878 9.431 2.849 17.067 10.088 20.426 19.363l31.841 87.978c.62 1.717.374 3.56-.676 5.055-1.05 1.497-2.702 2.355-4.532 2.355h-40.225v-25.264c0-4.142-3.357-7.5-7.5-7.5s-7.5 3.358-7.5 7.5l.005 156.034c0 4.185-3.405 7.59-7.59 7.59h-103.84c-4.143 0-7.5 3.358-7.5 7.5s3.357 7.5 7.5 7.5h103.84c12.456 0 22.59-10.134 22.59-22.59v-115.771h40.22c6.687 0 12.971-3.267 16.811-8.738s4.775-12.488 2.503-18.774zm-349.771-295.157c-25.439 0-46.459-14.917-49.317-34.065 10.35-1.261 20.778-1.906 31.235-1.906h36.17c10.383 0 20.861.647 31.236 1.907-2.86 19.147-23.883 34.064-49.324 34.064zm190.632 217.862c-25.44 0-46.461-14.918-49.318-34.067 10.352-1.261 20.782-1.906 31.243-1.906h36.16c10.399 0 20.876.649 31.239 1.912-2.86 19.146-23.883 34.061-49.324 34.061z"/><path d="m321.108 386.192 8.117-44.974 13.342 45.223c.026.089.054.177.083.265 1.25 3.72 4.716 6.211 8.637 6.21h.049c3.94-.021 7.403-2.553 8.618-6.301.027-.084.054-.17.078-.256l12.882-45.188 8.619 45.097c.777 4.07 4.712 6.734 8.774 5.959 4.068-.777 6.736-4.706 5.958-8.774l-13.293-69.557c-.827-4.051-4.287-7.043-8.416-7.275-4.116-.232-7.902 2.352-9.177 6.285-.028.085-.055.171-.079.258l-14.11 49.497-14.626-49.575c-.026-.089-.054-.178-.084-.266-1.315-3.92-5.104-6.469-9.245-6.189-4.126.276-7.555 3.305-8.354 7.454l-12.534 69.444c-.735 4.076 1.973 7.977 6.049 8.713 4.068.732 7.977-1.972 8.712-6.05z"/><path d="m148.195 106.978c-4.143 0-7.5 3.358-7.5 7.5v71.251c0 3.653 2.632 6.774 6.231 7.392.54.093 1.003.172 8.802.172 3.8 0 9.342-.019 17.479-.064 4.142-.023 7.481-3.4 7.458-7.542-.023-4.143-3.364-7.488-7.542-7.458-6.083.034-12.629.058-17.429.06v-63.811c.001-4.142-3.356-7.5-7.499-7.5z"/><path d="m357.399 109.497c3.248 4.998 8.733 7.798 14.689 7.482 5.948-.312 11.114-3.667 13.822-8.977l1.905-3.743c32.527 28.156 55.264 66.3 64.401 108.354 2.236 10.289 11.497 17.757 22.02 17.757 1.629 0 3.256-.178 4.799-.521 5.887-1.276 10.922-4.768 14.178-9.833 3.257-5.066 4.344-11.097 3.062-16.979-7.873-36.23-23.381-69.325-46.091-98.367-2.553-3.264-7.268-3.839-10.528-1.288-3.263 2.552-3.84 7.265-1.288 10.528 21.309 27.249 35.859 58.307 43.25 92.316.429 1.969.066 3.985-1.022 5.678-1.088 1.692-2.771 2.859-4.774 3.293-.521.116-1.04.172-1.585.172-3.517 0-6.613-2.5-7.361-5.943-10.525-48.435-37.82-92.046-76.857-122.799-1.765-1.389-4.058-1.916-6.252-1.434-2.193.482-4.055 1.921-5.073 3.923l-6.147 12.076c-.258.505-.676.777-1.242.807-.578.036-1.017-.198-1.326-.674l-32.072-49.394c-.311-.477-.337-.975-.08-1.479s.674-.774 1.245-.804l58.807-3.09c.563-.024 1.017.196 1.324.67.307.473.331.969.071 1.479l-6.69 13.15c-1.653 3.25-.729 7.219 2.189 9.405 7.653 5.729 14.978 11.942 21.771 18.466 2.99 2.87 7.737 2.771 10.604-.215 2.869-2.988 2.773-7.735-.214-10.604-5.735-5.507-11.823-10.804-18.157-15.801l3.863-7.594c2.706-5.308 2.386-11.458-.855-16.452-3.243-4.996-8.736-7.789-14.689-7.483l-58.807 3.09c-5.954.31-11.123 3.665-13.827 8.974-2.706 5.31-2.381 11.465.867 16.46z"/><path d="m156.687 401.03c-3.246-4.998-8.746-7.792-14.686-7.482-5.95.312-11.117 3.668-13.821 8.978l-1.906 3.742c-32.524-28.148-55.263-66.293-64.405-108.351-1.279-5.885-4.773-10.919-9.841-14.176-5.066-3.257-11.098-4.345-16.978-3.064-5.885 1.279-10.918 4.773-14.175 9.839-3.256 5.065-4.345 11.096-3.065 16.98 12.035 55.365 43.007 104.816 87.498 139.926l-3.866 7.588c-2.704 5.309-2.38 11.462.866 16.458 3.081 4.743 8.185 7.503 13.784 7.503.299 0 .6-.008.9-.023l58.815-3.092c5.949-.313 11.115-3.669 13.819-8.978 2.703-5.309 2.38-11.46-.864-16.457zm19.575 59.04c-.258.505-.675.777-1.241.807l-58.814 3.092c-.572.035-1.01-.196-1.319-.672s-.335-.974-.078-1.479l6.694-13.14c1.656-3.252.732-7.224-2.189-9.41-44.288-33.135-75.13-81.064-86.845-134.959-.429-1.969-.064-3.987 1.025-5.682s2.773-2.864 4.745-3.292c.537-.117 1.078-.175 1.616-.175 1.429 0 2.831.409 4.062 1.201 1.695 1.09 2.865 2.775 3.293 4.744 10.53 48.441 37.826 92.05 76.86 122.794 1.764 1.389 4.056 1.914 6.25 1.433 2.192-.481 4.055-1.92 5.073-3.921l6.151-12.076c.258-.505.676-.776 1.242-.806.567-.026 1.01.196 1.319.672l32.076 49.392c.311.474.337.971.08 1.477z"/></g></svg>