<svg id="Capa_1" enable-background="new 0 0 511.982 511.982" height="512" viewBox="0 0 511.982 511.982" width="512" xmlns="http://www.w3.org/2000/svg"><g><path d="m60.58 164.237v115.403c0 12.43 10.112 22.542 22.542 22.542h153.567c12.43 0 22.542-10.112 22.542-22.542v-115.403h40.087c6.673 0 12.944-3.261 16.777-8.724s4.765-12.47 2.494-18.745l-31.743-87.718c-4.947-13.669-16.208-24.339-30.125-28.542-25.572-7.722-52.081-11.638-78.79-11.638h-36.053c-26.709 0-53.218 3.916-78.79 11.638-13.916 4.203-25.177 14.873-30.124 28.542l-31.743 87.72c-2.27 6.274-1.338 13.282 2.495 18.744s10.104 8.724 16.777 8.724h40.087zm-44.585-17.338c-1.043-1.486-1.287-3.318-.669-5.025l31.743-87.718c3.343-9.237 10.953-16.447 20.356-19.287 9.377-2.832 18.89-5.115 28.494-6.857 1.306 8.706 5.151 16.958 11.326 24.167 1.484 1.732 3.585 2.621 5.7 2.621 1.727 0 3.461-.593 4.875-1.804 3.146-2.695 3.512-7.43.817-10.575-4.311-5.033-6.989-10.72-7.886-16.653 10.311-1.255 20.703-1.897 31.127-1.897h36.053c10.424 0 20.815.642 31.125 1.896-2.859 19.069-23.807 33.922-49.155 33.922-6.125 0-12.12-.869-17.821-2.583-3.968-1.192-8.149 1.057-9.342 5.023-1.192 3.966 1.057 8.149 5.023 9.342 7.102 2.135 14.551 3.218 22.139 3.218 32.823 0 59.978-20.4 63.974-46.682 9.609 1.743 19.127 4.026 28.509 6.86 9.404 2.84 17.013 10.05 20.356 19.287l31.743 87.717c.618 1.708.375 3.54-.668 5.026s-2.682 2.338-4.498 2.338h-40.087v-25.171c0-4.142-3.358-7.5-7.5-7.5s-7.5 3.358-7.5 7.5v155.575c0 4.159-3.384 7.542-7.542 7.542h-153.565c-4.159 0-7.542-3.383-7.542-7.542v-155.573c0-4.142-3.358-7.5-7.5-7.5s-7.5 3.358-7.5 7.5v25.171h-40.088c-1.815 0-3.454-.852-4.497-2.338z"/><path d="m356.022 118.075c3.24 4.99 8.705 7.781 14.659 7.474 5.94-.311 11.1-3.661 13.804-8.966l1.886-3.705c21.556 18.656 39.013 41.877 50.778 67.638 1.721 3.768 6.171 5.426 9.938 3.707 3.768-1.721 5.427-6.17 3.707-9.938-14.015-30.688-35.531-58.019-62.222-79.037-1.763-1.388-4.057-1.913-6.25-1.433-2.193.482-4.054 1.921-5.073 3.922l-6.129 12.037c-.254.499-.665.767-1.222.795-.563.03-.991-.194-1.295-.664l-31.979-49.237c-.304-.468-.329-.958-.074-1.458.252-.496.661-.762 1.216-.791l58.638-3.08c.558-.022.996.194 1.301.663.301.464.327.949.073 1.446l-6.67 13.11c-1.654 3.251-.729 7.22 2.191 9.406 44.147 33.036 74.894 80.819 86.575 134.549.425 1.956.064 3.96-1.019 5.645s-2.757 2.847-4.699 3.269c-.532.114-1.079.172-1.624.172-3.496 0-6.57-2.48-7.312-5.912-.699-3.199-1.456-6.333-2.249-9.315-1.064-4.003-5.171-6.387-9.175-5.321-4.003 1.064-6.385 5.172-5.321 9.175.736 2.768 1.439 5.683 2.088 8.65 2.224 10.269 11.463 17.723 21.97 17.723 1.604 0 3.21-.171 4.793-.511 5.875-1.277 10.9-4.765 14.149-9.821 3.249-5.054 4.334-11.071 3.057-16.941-12-55.198-42.881-104.506-87.23-139.517l3.843-7.554c2.7-5.296 2.379-11.435-.858-16.421-3.24-4.991-8.725-7.782-14.667-7.475l-58.638 3.08c-5.937.311-11.093 3.659-13.794 8.957-2.703 5.301-2.383 11.444.856 16.437z"/><path d="m155.942 408.727c-3.24-4.989-8.713-7.779-14.662-7.47-5.94.312-11.099 3.662-13.799 8.963l-1.888 3.706c-32.414-28.06-55.074-66.08-64.186-108-1.277-5.873-4.765-10.897-9.821-14.148-5.056-3.25-11.074-4.337-16.945-3.059-12.123 2.635-19.842 14.643-17.206 26.766 11.999 55.2 42.878 104.506 87.233 139.515l-3.846 7.548c-2.7 5.301-2.377 11.444.863 16.433 3.077 4.736 8.172 7.492 13.763 7.492.298 0 .598-.008.899-.023l58.64-3.083c5.94-.312 11.098-3.663 13.798-8.963s2.378-11.442-.862-16.431zm19.478 58.867c-.253.496-.663.763-1.219.792l-58.64 3.083c-.564.036-.992-.193-1.296-.66s-.33-.956-.077-1.453l6.674-13.101c1.657-3.251.732-7.224-2.19-9.41-44.152-33.033-74.9-80.816-86.581-134.548-.878-4.041 1.694-8.043 5.737-8.922.534-.117 1.072-.174 1.606-.174 1.421 0 2.814.406 4.039 1.193 1.686 1.084 2.849 2.759 3.274 4.716 10.5 48.303 37.718 91.788 76.641 122.444 1.765 1.39 4.058 1.916 6.25 1.433 2.192-.481 4.054-1.92 5.073-3.921l6.133-12.039c.253-.497.664-.763 1.22-.792.546-.03.992.192 1.295.66l31.982 49.246c.306.468.332.957.079 1.453z"/><path d="m493.182 315.31h-163.36c-4.142 0-7.5 3.358-7.5 7.5s3.358 7.5 7.5 7.5h163.36c2.095 0 3.8 1.7 3.8 3.79v150.22c0 2.09-1.705 3.79-3.8 3.79h-256.05c-2.095 0-3.8-1.7-3.8-3.79v-150.22c0-2.09 1.705-3.79 3.8-3.79h57.69c4.142 0 7.5-3.358 7.5-7.5s-3.358-7.5-7.5-7.5h-57.69c-10.366 0-18.8 8.429-18.8 18.79v150.22c0 10.361 8.434 18.79 18.8 18.79h256.05c10.366 0 18.8-8.429 18.8-18.79v-150.22c0-10.361-8.434-18.79-18.8-18.79z"/><path d="m344.503 441.504c4.853 3.174 8.518 4.598 12.764 5.192v1.811c0 4.142 3.358 7.5 7.5 7.5s7.5-3.358 7.5-7.5v-2.601c9.296-2.976 15.241-11.189 16.604-19.298 1.857-11.043-4.127-21.02-14.891-24.825l-.65-.229c-6.263-2.212-11.672-4.123-14.018-6.347-1.042-.988-1.452-3.024-.994-4.95.279-1.179 1.115-3.266 3.57-4.005 6.088-1.833 10.024 1.243 10.454 1.6 3.183 2.649 7.913 2.216 10.562-.968s2.216-7.913-.968-10.562c-2.402-1.999-5.73-3.8-9.669-4.806v-1.607c0-4.142-3.358-7.5-7.5-7.5s-7.5 3.358-7.5 7.5v2.082c-6.796 2.161-11.85 7.669-13.543 14.804-1.709 7.204.31 14.599 5.27 19.301 4.662 4.418 11.14 6.707 19.341 9.604l.647.229c5.318 1.88 5.476 5.941 5.097 8.195-.64 3.806-3.842 7.918-9.36 7.955-5.901.039-7.57-.226-12.003-3.126-3.466-2.269-8.114-1.296-10.382 2.17-2.269 3.465-1.297 8.114 2.169 10.381z"/><path d="m296.67 409.208c0 37.763 30.722 68.486 68.485 68.486s68.485-30.723 68.485-68.486-30.722-68.485-68.485-68.485-68.485 30.722-68.485 68.485zm68.486-53.485c29.492 0 53.485 23.994 53.485 53.485 0 29.492-23.994 53.486-53.485 53.486s-53.486-23.994-53.486-53.486 23.994-53.485 53.486-53.485z"/><path d="m477.253 416.708c4.142 0 7.5-3.358 7.5-7.5s-3.358-7.5-7.5-7.5h-23.656c-4.142 0-7.5 3.358-7.5 7.5s3.358 7.5 7.5 7.5z"/><path d="m253.058 401.708c-4.142 0-7.5 3.358-7.5 7.5s3.358 7.5 7.5 7.5h23.656c4.142 0 7.5-3.358 7.5-7.5s-3.358-7.5-7.5-7.5z"/></g></svg>