<svg id="Capa_1" enable-background="new 0 0 511.992 511.992" height="512" viewBox="0 0 511.992 511.992" width="512" xmlns="http://www.w3.org/2000/svg"><g><path d="m204.158 313.381h-33.423c-9.111 0-16.524 7.413-16.524 16.524v33.422c0 9.112 7.413 16.524 16.524 16.524h33.423c9.112 0 16.524-7.413 16.524-16.524v-33.422c.001-9.112-7.412-16.524-16.524-16.524zm1.525 49.946c0 .84-.684 1.524-1.524 1.524h-33.423c-.84 0-1.524-.684-1.524-1.524v-33.422c0-.84.684-1.524 1.524-1.524h33.423c.84 0 1.524.684 1.524 1.524z"/><path d="m493.823 307.476c9.425-24.758 15.939-57.773 17.703-90.504 1.262-23.412 1.024-66.728-14.74-93.785-7.803-13.393-18.743-21.128-31.639-22.37-14.252-1.372-25.698 4.234-34.001 16.667-6.723 10.067-10.904 23.51-15.331 37.743-9.073 29.174-18.455 59.341-50.038 66.338-8.921 1.977-17.129 4.25-24.63 6.811-3.77-17.086-18.892-29.33-36.537-29.33h-5.586v-26.322c0-10.526-8.563-19.09-19.09-19.09h-.665v-5.55c.413-.144.828-.274 1.235-.442 5.64-2.335 10.031-6.727 12.366-12.368 4.812-11.634-.732-25.019-12.36-29.836-5.677-2.353-11.417-4.479-17.211-6.387 7.731-6.605 14.43-14.839 19.987-24.581 1.566-2.745 4.243-4.558 7.344-4.974 3.025-.404 6.001.603 8.164 2.77l2.631 2.631c-.148.412-.284.829-.396 1.256l-6.855 26.188c-1.366 5.222.156 10.835 3.971 14.648l40.355 40.356c2.881 2.881 6.712 4.467 10.786 4.467 4.075 0 7.905-1.587 10.786-4.468l34.413-34.414c2.882-2.881 4.469-6.711 4.469-10.786s-1.587-7.906-4.468-10.786l-40.249-40.249c-3.947-3.945-9.724-5.42-15.079-3.849l-26.406 7.748-3.348-3.348c-5.494-5.501-13.062-8.063-20.766-7.034-7.777 1.042-14.478 5.564-18.382 12.408-6.226 10.915-14.053 19.506-23.264 25.535-.401.263-1.093.727-1.873 1.281-18.795-4.596-38.082-6.926-57.67-6.926-15.585 0-31.143 1.486-46.24 4.417-4.066.789-6.722 4.726-5.933 8.792.789 4.067 4.726 6.722 8.792 5.933 14.157-2.749 28.752-4.142 43.38-4.142 30.13 0 59.508 5.844 87.319 17.369 3.991 1.653 5.894 6.249 4.241 10.243-.801 1.935-2.308 3.442-4.244 4.243s-4.067.8-6.007-.005c-25.908-10.73-53.264-16.171-81.31-16.171-28.042 0-55.401 5.44-81.334 16.177-.945.394-1.946.593-2.976.593-3.191 0-6.036-1.896-7.253-4.845-.802-1.933-.804-4.062-.004-5.994.801-1.934 2.308-3.44 4.248-4.243 4.045-1.676 8.177-3.248 12.281-4.674 3.913-1.359 5.983-5.633 4.624-9.545-1.36-3.913-5.634-5.984-9.545-4.624-4.379 1.521-8.787 3.199-13.097 4.984-5.642 2.334-10.034 6.725-12.368 12.364-2.333 5.637-2.331 11.845.004 17.469 2.542 6.158 7.543 10.736 13.599 12.833v5.531h-.666c-10.526 0-19.09 8.564-19.09 19.09v26.322h-5.591c-18.147 0-33.646 12.973-36.853 30.851l-32.841 183.668c-1.95 10.944 1.025 22.107 8.162 30.629 7.131 8.514 17.589 13.397 28.692 13.397h13.96c4.142 0 7.5-3.358 7.5-7.5s-3.358-7.5-7.5-7.5h-13.96c-6.653 0-12.919-2.926-17.192-8.028-4.279-5.109-6.063-11.804-4.895-18.361l14.746-82.43c.677.936 1.377 1.858 2.125 2.751 9.354 11.177 23.08 17.587 37.657 17.587h56.439v20.443c0 18.304 14.891 33.195 33.195 33.195h55.868c18.304 0 33.195-14.891 33.195-33.195v-20.443h20.633v75.02c0 4.866 1.23 9.45 3.391 13.46h-186.342c-4.142 0-7.5 3.358-7.5 7.5s3.358 7.5 7.5 7.5h397.181c15.692 0 28.46-12.767 28.46-28.46v-95.16c-.001-12.028-7.507-22.331-18.077-26.489zm-150.443-235.82c.09-.029.186-.002.251.063l40.248 40.248c.025.026.074.074.074.179 0 .104-.049.153-.075.179l-34.414 34.415c-.051.052-.308.05-.358 0l-40.356-40.357c-.062-.062-.088-.156-.064-.243l4.975-19.007 9.208 9.208c2.93 2.929 7.678 2.929 10.607 0s2.929-7.678 0-10.606l-8.638-8.638zm25.64 164.554c40.078-8.879 51.744-46.389 61.117-76.528 9.098-29.248 15.144-45.704 33.571-43.934 8.113.782 14.693 5.685 20.115 14.991 10.079 17.298 14.716 48.435 12.723 85.426-1.769 32.826-8.459 65.753-18.061 89.341h-50.718c-4.143 0-7.5 3.358-7.5 7.5s3.357 7.5 7.5 7.5h55.671c7.132 0 12.97 5.58 13.417 12.601l-10.329 37.125c-3.688 13.253-15.87 22.509-29.627 22.509h-132.691c-13.757 0-25.939-9.256-29.626-22.509l-10.329-37.125c.447-7.021 6.285-12.601 13.416-12.601h95.1c4.143 0 7.5-3.358 7.5-7.5s-3.357-7.5-7.5-7.5h-37.794l-11.12-62.18c7.202-2.574 15.521-4.98 25.165-7.116zm-67.764 38.345c3.499-7.543 11.347-16.871 28.423-25.288l9.041 50.541c.008.053.017.105.026.158l.991 5.54h-37.36c-5.002-11.347-5.392-21.745-1.121-30.951zm-17.233-101.831v26.322h-24.511v-26.322c0-2.255 1.835-4.09 4.091-4.09h16.33c2.255-.001 4.09 1.834 4.09 4.09zm-173.398-24.641c.415-.146.834-.277 1.242-.447 24.089-9.973 49.519-15.03 75.582-15.03 26.066 0 51.491 5.057 75.564 15.027.413.172.836.304 1.255.451v5.55h-.665c-10.526 0-19.09 8.564-19.09 19.09v26.322h-114.132v-26.322c0-10.526-8.564-19.09-19.09-19.09h-.665v-5.551zm-19.755 24.641c0-2.255 1.835-4.09 4.09-4.09h16.33c2.255 0 4.09 1.835 4.09 4.09v26.322h-24.51zm142.705 201.825c0 10.033-8.162 18.195-18.195 18.195h-55.868c-10.033 0-18.195-8.162-18.195-18.195v-55.868c0-10.033 8.162-18.195 18.195-18.195h55.868c10.033 0 18.195 8.162 18.195 18.195zm15-35.443v-20.424c0-18.304-14.891-33.195-33.195-33.195h-55.868c-18.304 0-33.195 14.891-33.195 33.195v20.424h-56.438c-10.124 0-19.657-4.452-26.154-12.215-6.491-7.755-9.193-17.912-7.412-27.866l11.879-66.487c1.923-10.715 11.212-18.492 22.087-18.492h234.331c10.885 0 20.17 7.774 22.077 18.491l.254 1.42c-19.651 8.872-32.821 20.336-39.292 34.286-5.56 11.986-5.728 25.433-.603 39.328-10.445 4.219-17.837 14.458-17.837 26.396v5.14h-20.634zm234.864 103.48h-185.77c-7.422 0-13.46-6.038-13.46-13.46v-44.96c7.939 14.266 23.175 23.576 39.999 23.576h132.692c16.824 0 32.059-9.31 39.999-23.575v44.959c0 7.422-6.038 13.46-13.46 13.46z"/></g></svg>