<svg id="Capa_1" enable-background="new 0 0 512 512" height="512" viewBox="0 0 512 512" width="512" xmlns="http://www.w3.org/2000/svg"><g><path d="m492.89 424.73h-32.898c.396-1.562.629-3.187.629-4.87v-119.816c0-10.954-8.912-19.866-19.866-19.866h-98.545v-260.088c0-11.078-9.013-20.09-20.09-20.09h-48.62c-4.143 0-7.5 3.358-7.5 7.5s3.357 7.5 7.5 7.5h48.62c2.807 0 5.09 2.283 5.09 5.09v260.088h-20v-237.678c0-4.142-3.357-7.5-7.5-7.5h-256.21c-4.142 0-7.5 3.358-7.5 7.5v252.38c0 4.142 3.358 7.5 7.5 7.5s7.5-3.358 7.5-7.5v-244.88h241.21v233.096c-5.718 3.492-9.555 9.772-9.555 16.948v119.816c0 1.683.233 3.309.629 4.87h-8.954c-9.986 0-18.11 8.12-18.11 18.1v51.06c0 1.059.11 2.09.285 3.1h-205.505v-167.11c0-4.142-3.358-7.5-7.5-7.5s-7.5 3.358-7.5 7.5v167.11h-14.91c-2.807 0-5.09-2.279-5.09-5.08v-471.82c0-2.807 2.283-5.09 5.09-5.09h217.41c4.142 0 7.5-3.358 7.5-7.5s-3.358-7.5-7.5-7.5h-217.41c-11.078 0-20.09 9.012-20.09 20.09v471.82c0 11.072 9.012 20.08 20.09 20.08l426.84.01c4.143 0 7.5-3.358 7.5-7.5s-3.357-7.5-7.5-7.5h-173.6c-1.715 0-3.11-1.395-3.11-3.11v-51.06c0-1.709 1.396-3.1 3.11-3.1h218.56c1.715 0 3.11 1.391 3.11 3.1v51.06c0 1.715-1.396 3.11-3.11 3.11h-9.96c-4.143 0-7.5 3.358-7.5 7.5s3.357 7.5 7.5 7.5h9.96c9.986 0 18.11-8.124 18.11-18.11v-51.06c0-9.98-8.124-18.1-18.11-18.1zm-47.27-124.686v119.816c0 2.683-2.183 4.866-4.866 4.866h-138.233c-2.684 0-4.866-2.183-4.866-4.866v-119.816c0-2.683 2.183-4.866 4.866-4.866h24.846v45.213c0 5.435 2.806 10.31 7.505 13.041 4.699 2.729 10.324 2.754 15.047.061l21.719-12.384 21.72 12.384c2.343 1.336 4.907 2.003 7.472 2.003 2.604 0 5.206-.688 7.574-2.064 4.7-2.73 7.506-7.605 7.506-13.041v-45.213h24.845c2.683 0 4.865 2.183 4.865 4.866zm-44.704 40.38c-.018.023-.071.056-.129.038l-25.435-14.502c-2.303-1.313-5.127-1.313-7.43 0l-25.459 14.524c-.029-.003-.086-.036-.097-.093v-45.213h58.543z"/><path d="m211.779 303.029h42.741c11.871 0 21.529-9.658 21.529-21.53 0-11.871-9.658-21.529-21.529-21.529h-42.741c-11.872 0-21.53 9.658-21.53 21.53.001 11.871 9.659 21.529 21.53 21.529zm0-28.059h42.741c3.601 0 6.529 2.929 6.529 6.53 0 3.6-2.929 6.529-6.529 6.529h-42.741c-3.601 0-6.53-2.929-6.53-6.53.001-3.6 2.93-6.529 6.53-6.529z"/><path d="m171.606 120.672c-13.004 0-23.584 10.58-23.584 23.584s10.58 23.584 23.584 23.584 23.584-10.58 23.584-23.584-10.579-23.584-23.584-23.584zm0 32.168c-4.733 0-8.584-3.851-8.584-8.584s3.851-8.584 8.584-8.584 8.584 3.851 8.584 8.584-3.85 8.584-8.584 8.584z"/></g></svg>