<svg id="Capa_1" enable-background="new 0 0 511.992 511.992" height="512" viewBox="0 0 511.992 511.992" width="512" xmlns="http://www.w3.org/2000/svg"><g><path d="m465.53 352.457h-11.32c-4.143 0-7.5 3.358-7.5 7.5s3.357 7.5 7.5 7.5h11.32c17.347 0 31.46 14.113 31.46 31.46v2.1c0 4.395-3.575 7.97-7.971 7.97h-243.15c-4.395 0-7.97-3.575-7.97-7.97v-2.1c0-17.347 14.117-31.46 31.47-31.46h149.84c4.143 0 7.5-3.358 7.5-7.5s-3.357-7.5-7.5-7.5h-65.112v-334.957c0-9.649-7.846-17.5-17.49-17.5h-319.105c-9.649 0-17.5 7.851-17.5 17.5v476.992c0 9.649 7.851 17.5 17.5 17.5h319.104c9.645 0 17.49-7.85 17.49-17.5v-36.957h93.748v46.957c0 4.142 3.357 7.5 7.5 7.5h30.499c4.143 0 7.5-3.358 7.5-7.5v-80.919c10.605-2.029 18.646-11.369 18.646-22.556v-2.1c.001-25.619-20.841-46.46-46.459-46.46zm-398.469-239.42h-17.062v-18.88h17.062zm-17.062 15h17.062v321.996c0 6.208 3.215 11.757 8.6 14.843 5.382 3.083 11.787 3.053 17.134-.077l4.285-2.504c7.186-4.206 16.109-4.205 23.295.002l3.297 1.928c5.929 3.472 12.574 5.208 19.223 5.207s13.299-1.737 19.229-5.21l3.286-1.927c7.182-4.206 16.106-4.206 23.286-.003l3.297 1.934c11.859 6.938 26.594 6.937 38.461-.004l3.284-1.926c2.407-1.409 5.068-2.344 7.811-2.809v37.505h-191.55zm237.049 368.955v-39.457h17.051v39.457zm-15 0h-15.5v-73.005h15.5zm-49.148-98.075v2.1c0 11.188 8.042 20.529 18.648 22.557v20.774c-5.407.556-10.686 2.25-15.394 5.006l-3.283 1.925c-7.187 4.204-16.117 4.205-23.298.005l-3.295-1.933c-11.857-6.943-26.592-6.943-38.453.003l-3.286 1.927c-7.182 4.205-16.105 4.206-23.293-.002l-3.296-1.928c-11.858-6.944-26.591-6.943-38.443-.004l-4.287 2.505c-.868.507-1.621.285-2.101.01-.483-.277-1.059-.819-1.059-1.829v-355.876h189.987v258.3h-2.679c-25.622 0-46.468 20.841-46.468 46.46zm81.199-304.76v18.88h-17.051v-18.88zm0 258.3h-17.051v-224.42h17.051zm-289.097 142.035v-476.992c0-1.378 1.121-2.5 2.5-2.5h319.104c1.373 0 2.49 1.122 2.49 2.5v334.957h-19.998v-309.96c0-4.142-3.357-7.5-7.5-7.5h-197.77c-4.143 0-7.5 3.358-7.5 7.5s3.357 7.5 7.5 7.5h190.27v29.16h-254.1v-29.16h28.83c4.143 0 7.5-3.358 7.5-7.5s-3.357-7.5-7.5-7.5h-36.33c-4.143 0-7.5 3.358-7.5 7.5v454.495h-17.496c-1.379 0-2.5-1.121-2.5-2.5zm324.095 0c0 1.378-1.117 2.5-2.49 2.5h-17.508v-39.457h19.998zm-52.049-51.957v-18.548h160.797v18.548zm175.797 54.457v-73.005h15.499v73.005z"/><path d="m133.171 215.528c-4.143 0-7.5 3.358-7.5 7.5v193.455c0 4.142 3.357 7.5 7.5 7.5s7.5-3.358 7.5-7.5v-193.455c0-4.142-3.357-7.5-7.5-7.5z"/><path d="m199.947 259.966c-4.143 0-7.5 3.358-7.5 7.5v124.787c0 4.142 3.357 7.5 7.5 7.5s7.5-3.358 7.5-7.5v-124.787c0-4.142-3.358-7.5-7.5-7.5z"/><path d="m199.947 167.573c-4.143 0-7.5 3.358-7.5 7.5v62.394c0 4.142 3.357 7.5 7.5 7.5s7.5-3.358 7.5-7.5v-62.394c0-4.142-3.358-7.5-7.5-7.5z"/></g></svg>