<svg id="Capa_1" enable-background="new 0 0 511.995 511.995" height="512" viewBox="0 0 511.995 511.995" width="512" xmlns="http://www.w3.org/2000/svg"><g><path d="m158.818 446.717h-133.951c-2.744 0-5.294-1.099-7.178-3.094-1.881-1.992-2.831-4.594-2.674-7.33l14.7-258.43c.235-4.135-2.927-7.679-7.062-7.914-4.118-.227-7.679 2.927-7.914 7.062l-14.699 258.427c-.39 6.796 2.068 13.533 6.744 18.484 4.678 4.954 11.269 7.795 18.083 7.795h133.95c4.143 0 7.5-3.358 7.5-7.5s-3.357-7.5-7.499-7.5z"/><path d="m511.929 433.864-11.852-166.287c-.978-13.542-12.371-24.15-25.94-24.15h-27v-15.561c0-2.844-.212-5.717-.631-8.54-.608-4.097-4.426-6.924-8.52-6.319-4.097.608-6.926 4.422-6.318 8.519.312 2.097.469 4.23.469 6.34v47.06c0 4.632-3.772 8.4-8.409 8.4-4.632 0-8.4-3.768-8.4-8.4v-47.06c0-14.392-11.704-26.1-26.09-26.1-6.97 0-13.523 2.716-18.454 7.647s-7.646 11.485-7.646 18.453v47.06c0 4.632-3.768 8.4-8.399 8.4-4.638 0-8.41-3.768-8.41-8.4v-47.06c0-11.455 4.465-22.229 12.575-30.339 8.099-8.106 18.868-12.571 30.335-12.571 10.617 0 20.812 3.923 28.704 11.047 3.074 2.775 7.816 2.533 10.593-.542 2.775-3.075 2.532-7.817-.542-10.593-10.654-9.616-24.418-14.913-38.765-14.913-10.008 0-19.621 2.538-28.125 7.283l-5.887-103.516c-.759-13.148-11.664-23.448-24.828-23.448h-284.951c-13.164 0-24.069 10.3-24.829 23.454l-3.899 68.54c-.235 4.135 2.927 7.679 7.062 7.914 4.114.238 7.678-2.927 7.914-7.062l3.898-68.534c.302-5.222 4.63-9.312 9.854-9.312h284.949c5.224 0 9.552 4.09 9.853 9.306l6.482 113.991c-9.938 10.733-15.395 24.594-15.395 39.294v15.561h-26.99c-13.581 0-24.976 10.611-25.941 24.156l-11.86 166.283c-.315 4.445.534 8.872 2.39 12.85h-75.107c-4.143 0-7.5 3.358-7.5 7.5s3.357 7.5 7.5 7.5l292.17.001c7.198 0 14.139-3.021 19.042-8.29 4.898-5.262 7.412-12.395 6.898-19.562zm-130.538-213.844c2.098-2.098 4.884-3.253 7.847-3.253 6.115 0 11.09 4.979 11.09 11.1v15.561h-22.19v-15.561c-.001-2.962 1.154-5.749 3.253-7.847zm112.658 223.188c-2.106 2.263-4.969 3.509-8.062 3.509l-193.524-.001c-3.082-.004-5.937-1.247-8.038-3.503-2.106-2.261-3.146-5.203-2.927-8.283l11.86-166.281c.408-5.732 5.23-10.223 10.979-10.223h26.99v16.499c0 12.903 10.502 23.4 23.41 23.4 12.902 0 23.399-10.497 23.399-23.4v-16.499h22.19v16.499c0 12.903 10.497 23.4 23.4 23.4 12.908 0 23.409-10.497 23.409-23.4v-16.499h27c5.743 0 10.565 4.493 10.979 10.223l11.852 166.284c.222 3.078-.814 6.016-2.917 8.275z"/><path d="m131.327 93.746c-12.905 0-23.405 10.5-23.405 23.405v77.189c0 44.106 35.883 79.989 79.989 79.989s79.99-35.883 79.99-79.989v-77.189c0-12.906-10.499-23.405-23.404-23.405s-23.405 10.5-23.405 23.405v77.189c0 18.295-14.885 33.179-33.181 33.179-18.295 0-33.179-14.884-33.179-33.179v-77.189c.001-12.906-10.499-23.405-23.405-23.405zm56.584 148.773c26.567 0 48.181-21.613 48.181-48.179v-77.189c0-4.635 3.771-8.405 8.405-8.405s8.404 3.771 8.404 8.405v77.189c0 35.835-29.154 64.989-64.99 64.989-35.835 0-64.989-29.154-64.989-64.989v-77.189c0-4.635 3.771-8.405 8.405-8.405s8.405 3.771 8.405 8.405v77.189c.001 26.566 21.614 48.179 48.179 48.179z"/></g></svg>