<svg id="Capa_1" enable-background="new 0 0 512 512" height="512" viewBox="0 0 512 512" width="512" xmlns="http://www.w3.org/2000/svg"><g><path d="m143.48 357.722h-44.024c-4.142 0-7.5 3.358-7.5 7.5s3.358 7.5 7.5 7.5h44.024c4.142 0 7.5-3.358 7.5-7.5s-3.358-7.5-7.5-7.5z"/><path d="m121.468 378.899h-22.012c-4.142 0-7.5 3.358-7.5 7.5s3.358 7.5 7.5 7.5h22.012c4.142 0 7.5-3.358 7.5-7.5s-3.358-7.5-7.5-7.5z"/><path d="m220.161 372.722h44.024c4.142 0 7.5-3.358 7.5-7.5s-3.358-7.5-7.5-7.5h-44.024c-4.142 0-7.5 3.358-7.5 7.5s3.358 7.5 7.5 7.5z"/><path d="m220.161 393.899h22.012c4.142 0 7.5-3.358 7.5-7.5s-3.358-7.5-7.5-7.5h-22.012c-4.142 0-7.5 3.358-7.5 7.5s3.358 7.5 7.5 7.5z"/><path d="m339.001 372.722h44.024c4.142 0 7.5-3.358 7.5-7.5s-3.358-7.5-7.5-7.5h-44.024c-4.142 0-7.5 3.358-7.5 7.5s3.358 7.5 7.5 7.5z"/><path d="m361.013 378.899h-22.012c-4.142 0-7.5 3.358-7.5 7.5s3.358 7.5 7.5 7.5h22.012c4.142 0 7.5-3.358 7.5-7.5s-3.358-7.5-7.5-7.5z"/><path d="m497.23.5h-29.11c-8.144 0-14.77 6.626-14.77 14.77v158.64h-14.955c.245-1.206.375-2.453.375-3.731v-47.77c0-4.215-1.417-8.097-3.776-11.23 2.359-3.133 3.776-7.015 3.776-11.23v-47.769c0-10.328-8.402-18.73-18.73-18.73h-264.11c-4.142 0-7.5 3.358-7.5 7.5s3.358 7.5 7.5 7.5h54.168v26.661c0 5.556 2.869 10.54 7.673 13.331 4.804 2.792 10.555 2.814 15.381.062l22.848-13.028 22.847 13.028c2.395 1.366 5.017 2.048 7.638 2.048 2.662 0 5.323-.704 7.743-2.11 4.805-2.791 7.673-7.775 7.673-13.331v-26.661h118.139c2.057 0 3.73 1.673 3.73 3.73v47.77c0 2.057-1.673 3.73-3.73 3.73h-328.08c-2.057 0-3.73-1.673-3.73-3.73v-47.77c0-2.057 1.673-3.73 3.73-3.73h28.97c4.142 0 7.5-3.358 7.5-7.5s-3.358-7.5-7.5-7.5h-28.97c-10.328 0-18.73 8.402-18.73 18.73v47.77c0 4.215 1.417 8.097 3.776 11.23-2.359 3.133-3.776 7.015-3.776 11.23v47.77c0 1.277.13 2.525.375 3.731h-14.954v-158.64c0-8.145-6.626-14.771-14.771-14.771h-29.109c-8.145 0-14.771 6.626-14.771 14.771v481.458c0 8.145 6.626 14.771 14.771 14.771h29.108c8.145 0 14.771-6.626 14.771-14.771v-32.5h394.7v32.5c0 8.144 6.626 14.77 14.77 14.77h29.11c8.144 0 14.77-6.626 14.77-14.77v-481.459c0-8.145-6.626-14.77-14.77-14.77zm-210.328 74.611c0 .107 0 .24-.208.361s-.323.055-.417.002l-26.562-15.146c-1.151-.656-2.433-.985-3.715-.985s-2.564.328-3.715.985l-26.562 15.146c-.094.053-.209.119-.417-.002s-.208-.254-.208-.361v-26.661h61.804zm166.448 143.739h-33.306v-29.94h33.306zm-97.649 7.317c-.001-.036-.004-.071-.005-.106v-44.553c0-.033.005-.064.005-.097s0 0 0 0c0-.033-.004-.064-.005-.097v-12.231c0-.101.055-.193.143-.241l17.032-9.305v6.628c0 4.142 3.358 7.5 7.5 7.5s7.5-3.358 7.5-7.5v-7.441l17.039 9.969c.083.049.136.14.136.237v12.394c0 .029-.004.058-.004.087s0 0 0 0c0 .029.004.058.004.087v44.656c0 .151-.124.275-.275.275h-48.8c-.148-.001-.262-.118-.27-.262zm68.069-103.757v47.77c0 2.055-1.671 3.727-3.726 3.73v-4.981c0-5.404-2.897-10.456-7.562-13.184l-23.428-13.708c-.386-.226-.784-.427-1.185-.616v-22.741h32.17c2.058 0 3.731 1.673 3.731 3.73zm-198.672-3.73h61.804v26.663c0 .107 0 .24-.208.361s-.323.055-.417.002l-26.562-15.146c-1.151-.656-2.433-.985-3.715-.985s-2.564.328-3.715.985l-26.562 15.146c-.094.053-.209.119-.417-.002s-.208-.254-.208-.361zm-15 0v26.663c0 5.556 2.869 10.54 7.673 13.331 4.804 2.792 10.555 2.814 15.381.062l22.848-13.027 22.847 13.028c2.395 1.366 5.017 2.048 7.638 2.048 2.662 0 5.323-.704 7.743-2.11 4.805-2.791 7.673-7.775 7.673-13.331v-26.664h70.968v23.763l-24.223 13.233c-4.904 2.679-7.951 7.816-7.951 13.405v4.828h-248.735c-2.057 0-3.73-1.673-3.73-3.73v-47.77c0-2.057 1.673-3.73 3.73-3.73h118.138zm130.597 70.23v29.94h-282.044v-29.94zm-297.044 307.59h-28.651v-481h28.651zm409.698-47.271h-394.698v-29.944h394.698zm-369.508-47.829v-118.118c0-1.591 1.294-2.885 2.885-2.885h5.23v25.215c0 5.435 2.806 10.31 7.506 13.041 4.701 2.731 10.325 2.753 15.046.061l21.72-12.385 21.72 12.385c2.343 1.336 4.907 2.003 7.472 2.003 2.604 0 5.207-.688 7.574-2.064 4.7-2.73 7.506-7.605 7.506-13.041v-25.215h5.23c1.582 0 2.867 1.28 2.882 2.858 0 .008-.001.016-.001.024v46.94c0 4.142 3.358 7.5 7.5 7.5s7.5-3.358 7.5-7.5v-46.86c0-.026.004-.051.004-.077 0-.009-.001-.018-.001-.027.014-1.576 1.302-2.855 2.888-2.855h5.228v25.213c0 5.435 2.806 10.31 7.506 13.041s10.326 2.753 15.046.061l21.718-12.386 21.72 12.385c2.343 1.336 4.907 2.003 7.472 2.003 2.604 0 5.207-.688 7.575-2.064 4.7-2.73 7.506-7.605 7.506-13.041v-25.212h5.228c1.585 0 2.874 1.279 2.888 2.855 0 .009-.001.018-.001.027v118.118c0 .009.001.017.001.025-.014 1.565-1.277 2.833-2.839 2.859h-99.097c-1.562-.026-2.825-1.294-2.839-2.859 0-.009.001-.017.001-.025 0-.026-.004-.051-.004-.077v-36.103c0-4.142-3.358-7.5-7.5-7.5s-7.5 3.358-7.5 7.5v36.18c0 .009.001.017.001.026-.014 1.579-1.3 2.859-2.882 2.859h-99.004c-1.591 0-2.885-1.294-2.885-2.885zm81.665-95.755c-.018.024-.076.056-.129.038l-25.435-14.503c-2.303-1.313-5.128-1.313-7.43 0l-25.46 14.525c-.029-.003-.086-.037-.097-.093v-25.215h58.545zm119.767-25.245.005 25.245c-.018.024-.076.056-.129.038l-25.435-14.503c-2.302-1.313-5.128-1.313-7.43 0l-25.46 14.525c-.029-.003-.086-.037-.097-.093v-25.212zm119.778 25.245c-.017.024-.076.056-.129.038l-25.435-14.503c-2.303-1.313-5.128-1.313-7.43 0l-25.46 14.525c-.029-.003-.086-.037-.097-.093v-25.215h58.545zm-66.044 13.008c4.701 2.731 10.325 2.753 15.046.061l21.72-12.385 21.72 12.385c2.343 1.336 4.907 2.003 7.472 2.003 2.604 0 5.207-.688 7.574-2.064 4.7-2.73 7.506-7.605 7.506-13.041v-25.215h5.23c1.591 0 2.885 1.294 2.885 2.885v118.118c0 1.591-1.294 2.885-2.885 2.885h-99.003c-1.582 0-2.868-1.28-2.882-2.859 0-.009.001-.017.001-.026v-118.12c0-.008-.001-.016-.001-.024.015-1.578 1.3-2.858 2.882-2.858h5.23v25.215c-.001 5.435 2.805 10.31 7.505 13.04zm157.993 177.847h-28.65v-217.38c0-4.142-3.358-7.5-7.5-7.5s-7.5 3.358-7.5 7.5v125.165h-10.445c.154-.941.255-1.9.255-2.885v-118.118c0-9.862-8.023-17.885-17.885-17.885h-99.003c-3.874 0-7.453 1.251-10.385 3.352-2.932-2.1-6.512-3.35-10.386-3.35h-99c-3.874 0-7.454 1.25-10.386 3.35-2.931-2.101-6.511-3.352-10.385-3.352h-99.004c-9.862 0-17.885 8.023-17.885 17.885v118.118c0 .984.101 1.943.255 2.885h-10.445v-170.435h284.147c2.654 4.525 7.557 7.578 13.172 7.578h48.8c5.614 0 10.518-3.053 13.172-7.578h35.409v10.27c0 4.142 3.358 7.5 7.5 7.5s7.5-3.358 7.5-7.5v-228.62h28.649z"/></g></svg>