<svg id="Capa_1" enable-background="new 0 0 511.994 511.994" height="512" viewBox="0 0 511.994 511.994" width="512" xmlns="http://www.w3.org/2000/svg"><g><path d="m511.987 144.261c-.071-23.742-17.537-43.463-40.299-47.066v-45.267c0-26.359-21.443-47.803-47.802-47.803h-268.784c-7.875 0-14.282 6.407-14.282 14.282l-.002 78.194h-22.687c-19.544 0-35.443 15.9-35.443 35.443v17.155h-16.493c-16.794 0-30.456 13.663-30.456 30.456v34.98h-5.282c-16.794 0-30.457 13.663-30.457 30.457v154.595c0 16.793 13.663 30.456 30.457 30.456h52.234v42.283c0 19.543 15.899 35.443 35.443 35.443h170.27c4.143 0 7.5-3.358 7.5-7.5s-3.357-7.5-7.5-7.5h-170.27c-11.272 0-20.443-9.171-20.443-20.443v-259.779c0-11.267 9.171-20.433 20.443-20.433l346.033-.006c.007 0 .013.001.019.001.013 0 .025-.002.038-.002 12.296-.01 23.87-4.635 32.768-13.042v280.901c0 18.088-14.716 32.803-32.804 32.803h-140.09c-4.143 0-7.5 3.358-7.5 7.5s3.357 7.5 7.5 7.5h140.092c26.359 0 47.804-21.445 47.804-47.803v-315.656c0-.05-.006-.099-.007-.149zm-231.976 4.938h-124.194v-49.469h268.068c12.691 0 24.234-4.981 32.802-13.079v17.431c0 .007-.001.013-.001.019s.001.013.001.019v73.087h-146.327c-1.252-15.651-14.38-28.008-30.349-28.008zm143.875-130.074c18.087 0 32.802 14.715 32.802 32.803s-14.715 32.802-32.802 32.802h-268.067v-10.5h268.068c12.301 0 22.308-10.007 22.308-22.308 0-12.295-10.007-22.298-22.308-22.298h-23.354c-4.143 0-7.5 3.358-7.5 7.5s3.357 7.5 7.5 7.5h23.354c4.029 0 7.308 3.274 7.308 7.298 0 4.03-3.278 7.308-7.308 7.308h-268.066v-14.605h209.019c4.143 0 7.5-3.358 7.5-7.5s-3.357-7.5-7.5-7.5h-209.021v-10.5zm-326.198 112.919c0-11.272 9.171-20.443 20.443-20.443h22.687v37.598h-43.13zm-14.997 80.603v137.06h-16.496c-8.522 0-15.456-6.934-15.456-15.456v-40.171c0-4.142-3.357-7.5-7.5-7.5s-7.5 3.358-7.5 7.5v40.171c0 16.794 13.662 30.456 30.456 30.456h16.496v50.436h-52.234c-8.523 0-15.457-6.934-15.457-15.456v-154.595c0-8.522 6.934-15.456 15.457-15.456h5.282v28.75c0 4.142 3.357 7.5 7.5 7.5s7.5-3.358 7.5-7.5v-78.73c0-8.523 6.934-15.456 15.456-15.456h213.815c7.688 0 14.064 5.648 15.243 13.009l-177.119.006c-19.543-.001-35.443 15.894-35.443 35.432zm404.697-45.042c-4.385 4.385-9.8 7.367-15.7 8.739v-63.867c14.484 3.402 25.303 16.421 25.303 31.928-.001 8.76-3.412 17.001-9.603 23.2z"/><path d="m161.55 304.415c-20.417 0-37.028 16.611-37.028 37.028s16.611 37.028 37.028 37.028 37.027-16.611 37.027-37.028-16.61-37.028-37.027-37.028zm0 59.056c-12.146 0-22.028-9.882-22.028-22.028s9.882-22.028 22.028-22.028 22.027 9.882 22.027 22.028-9.882 22.028-22.027 22.028z"/></g></svg>