<?xml version="1.0" ?>
<!DOCTYPE svg  PUBLIC '-//W3C//DTD SVG 1.1//EN'  'http://www.w3.org/Graphics/SVG/1.1/DTD/svg11.dtd'>
<!-- Uploaded to: SVG Repo, www.svgrepo.com, Generator: SVG Repo Mixer Tools -->
<svg fill="#000000" width="800px" height="800px" viewBox="0 0 512 512" version="1.1" xml:space="preserve" xmlns="http://www.w3.org/2000/svg" xmlns:xlink="http://www.w3.org/1999/xlink">
<g id="_x37_43_x2C__Business_x2C__document_x2C__file_x2C__paper_x2C__presentation">
<g>
<path d="M411.294,41.71H104.672v395.084h306.622V41.71z M466.242,172.465v-30.68    h-28.314v30.68H466.242z M437.928,354.826h10.223V196.205c0-2.145,1.758-3.936,3.935-3.936c2.176,0,3.938,1.791,3.938,3.936    v158.621h10.22V180.304h-28.314V354.826z M466.242,362.697h-28.314v15.932l14.157,29.85l14.157-29.85V362.697z M371.99,135.674    H143.975v48.662H371.99V135.674z M140.059,127.803h235.866c2.162,0,3.938,1.76,3.938,3.937v56.53c0,2.145-1.775,3.937-3.938,3.937    H140.059c-2.176,0-3.938-1.792-3.938-3.937v-56.53C136.121,129.563,137.882,127.803,140.059,127.803z M140.059,240.707    c-2.176,0-3.938-1.76-3.938-3.936c0-2.143,1.762-3.934,3.938-3.934h110.549c2.162,0,3.938,1.791,3.938,3.934    c0,2.176-1.776,3.936-3.938,3.936H140.059z M140.059,262.848c-2.176,0-3.938-1.792-3.938-3.937c0-2.176,1.762-3.937,3.938-3.937    H305.3c2.161,0,3.938,1.761,3.938,3.937c0,2.145-1.776,3.937-3.938,3.937H140.059z M140.059,284.953    c-2.176,0-3.938-1.76-3.938-3.934c0-2.176,1.762-3.936,3.938-3.936H369.19c2.161,0,3.938,1.76,3.938,3.936    c0,2.174-1.776,3.934-3.938,3.934H140.059z M140.059,307.062c-2.176,0-3.938-1.761-3.938-3.937s1.762-3.936,3.938-3.936H369.19    c2.161,0,3.938,1.76,3.938,3.936s-1.776,3.937-3.938,3.937H140.059z M140.059,329.168c-2.176,0-3.938-1.76-3.938-3.902    c0-2.176,1.762-3.937,3.938-3.937H369.19c2.161,0,3.938,1.761,3.938,3.937c0,2.143-1.776,3.902-3.938,3.902H140.059z     M140.059,351.308c-2.176,0-3.938-1.761-3.938-3.937c0-2.174,1.762-3.934,3.938-3.934H369.19c2.161,0,3.938,1.76,3.938,3.934    c0,2.176-1.776,3.937-3.938,3.937H140.059z M140.059,373.414c-2.176,0-3.938-1.758-3.938-3.935c0-2.176,1.762-3.936,3.938-3.936    H369.19c2.161,0,3.938,1.76,3.938,3.936c0,2.177-1.776,3.935-3.938,3.935H140.059z M140.059,395.521    c-2.176,0-3.938-1.76-3.938-3.936c0-2.143,1.762-3.934,3.938-3.934H369.19c2.161,0,3.938,1.791,3.938,3.934    c0,2.176-1.776,3.936-3.938,3.936H140.059z M189.167,82.82c1.502,0,3.039-0.96,3.551-2.207c1.313-2.624-0.705-5.63-3.551-5.63    h-7.854c-1.488,0-3.025,0.958-3.534,2.208c-1.313,2.623,0.702,5.629,3.534,5.629H189.167z M220.615,82.82    c1.488,0,3.04-0.96,3.534-2.207c1.313-2.624-0.688-5.63-3.534-5.63h-7.872c-1.47,0-3.021,0.958-3.517,2.208    c-1.313,2.623,0.688,5.629,3.517,5.629H220.615z M252.064,82.82c1.474,0,3.04-0.96,3.52-2.207c1.313-2.624-0.67-5.63-3.52-5.63    h-7.868c-1.474,0-3.039,0.958-3.52,2.208c-1.313,2.623,0.67,5.629,3.52,5.629H252.064z M283.513,82.82    c1.474,0,3.039-0.96,3.52-2.207c1.313-2.624-0.67-5.63-3.52-5.63h-7.868c-1.488,0-3.039,0.958-3.538,2.208    c-1.309,2.623,0.688,5.629,3.538,5.629H283.513z M314.947,82.82c1.488,0,3.039-0.96,3.534-2.207    c1.313-2.624-0.688-5.63-3.534-5.63h-7.854c-1.489,0-3.04,0.958-3.535,2.208c-1.313,2.623,0.688,5.629,3.535,5.629H314.947z     M346.396,82.82c1.487,0,3.024-0.96,3.537-2.207c1.309-2.624-0.688-5.63-3.537-5.63h-7.855c-1.502,0-3.039,0.958-3.551,2.208    c-1.309,2.623,0.705,5.629,3.551,5.629H346.396z M96.804,432.89c0,2.144-1.762,3.936-3.938,3.936s-3.934-1.792-3.934-3.936V29.936    c0-2.174,1.758-3.934,3.934-3.934h314.511c2.158,0,3.935,1.76,3.935,3.934c0,2.145-1.776,3.904-3.935,3.904H96.804V432.89z     M218.713,485.999c-2.162,0-3.938-1.761-3.938-3.903c0-2.176,1.775-3.936,3.938-3.936h187.144c2.173,0,3.935,1.76,3.935,3.936    c0,2.143-1.762,3.903-3.935,3.903H218.713z M425.02,485.999c-2.158,0-3.935-1.761-3.935-3.903c0-2.176,1.776-3.936,3.935-3.936    h23.404c2.158,0,3.935,1.76,3.935,3.936c0,2.143-1.776,3.903-3.935,3.903H425.02z M49.692,485.358    c-2.176,0-3.934-1.761-3.934-3.935c0-2.145,1.758-3.904,3.934-3.904h88.667c2.176,0,3.938,1.76,3.938,3.904    c0,2.174-1.762,3.935-3.938,3.935H49.692z M60.33,464.947c-2.158,0-3.92-1.792-3.92-3.937c0-2.174,1.762-3.934,3.92-3.934H330.8    c2.176,0,3.935,1.76,3.935,3.934c0,2.145-1.759,3.937-3.935,3.937H60.33z M149.878,74.983c-1.502,0-3.039,0.958-3.552,2.208    c-1.295,2.623,0.706,5.629,3.552,5.629h7.854c1.488,0,3.039-0.96,3.538-2.207c1.309-2.624-0.688-5.63-3.538-5.63H149.878z" style="fill-rule:evenodd;clip-rule:evenodd;"/>
</g>
</g>
<g id="Layer_1"/>
</svg>