<?xml version="1.0" encoding="iso-8859-1"?>
<!-- Generator: Adobe Illustrator 23.0.5, SVG Export Plug-In . SVG Version: 6.00 Build 0)  -->
<svg version="1.1" xmlns="http://www.w3.org/2000/svg" xmlns:xlink="http://www.w3.org/1999/xlink" x="0px" y="0px"
	 viewBox="0 0 100 100" style="enable-background:new 0 0 100 100;" xml:space="preserve">
<g id="Layer_1">
</g>
<g id="Layer_2">
</g>
<g id="Layer_3">
</g>
<g id="Layer_4">
</g>
<g id="Layer_5">
</g>
<g id="Layer_6">
</g>
<g id="Layer_7">
</g>
<g id="Layer_8">
</g>
<g id="Layer_9">
</g>
<g id="Layer_10">
</g>
<g id="Layer_11">
</g>
<g id="Layer_12">
</g>
<g id="Layer_13">
</g>
<g id="Layer_14">
</g>
<g id="Layer_15">
</g>
<g id="Layer_16">
</g>
<g id="Layer_17">
</g>
<g id="Layer_18">
</g>
<g id="Layer_19">
</g>
<g id="Layer_20">
</g>
<g id="Layer_21">
</g>
<g id="Layer_22">
</g>
<g id="Layer_23">
</g>
<g id="Layer_24">
</g>
<g id="Layer_25">
</g>
<g id="Layer_26">
</g>
<g id="Layer_27">
</g>
<g id="Layer_28">
</g>
<g id="Layer_29">
</g>
<g id="Layer_30">
</g>
<g id="Layer_31">
</g>
<g id="Layer_32">
</g>
<g id="Layer_35">
	<g id="Layer_34">
	</g>
	<g id="Layer_33">
	</g>
	<g>
		<polygon style="fill-rule:evenodd;clip-rule:evenodd;fill:#F5F5F5;" points="73.6,17.7 59.9,17.7 59.9,5 25.7,5 13.8,5 6.5,5 
			6.5,95 61.7,95 73.6,33.7 		"/>
		<polygon style="fill-rule:evenodd;clip-rule:evenodd;fill:#CECDCF;" points="73.6,17.7 59.9,5 59.9,17.7 		"/>
		<path style="fill-rule:evenodd;clip-rule:evenodd;fill:#E6E6E6;" d="M73.6,17.7h-9.5v17.6c3.3,0.3,6.5,1,9.5,2.2V17.7z"/>
		<path style="fill:#919191;" d="M14.1,16.9c-1.1,0-1.9-0.9-1.9-1.9c0-1.1,0.9-1.9,1.9-1.9h7c1,0,1.9,0.9,1.9,1.9
			c0,1.1-0.9,1.9-1.9,1.9H14.1z M30.3,16.9c-1.1,0-1.9-0.9-1.9-1.9c0-1.1,0.9-1.9,1.9-1.9h20.3c1,0,1.9,0.9,1.9,1.9
			c0,1.1-0.9,1.9-1.9,1.9H30.3z"/>
		<path style="fill:#919191;" d="M14.1,36.9c-1.1,0-1.9-0.9-1.9-1.9c0-1.1,0.9-1.9,1.9-1.9H30c1.1,0,1.9,0.9,1.9,1.9
			c0,1.1-0.9,1.9-1.9,1.9H14.1z"/>
		<path style="fill:#919191;" d="M14.1,46.9c-1.1,0-1.9-0.9-1.9-1.9c0-1.1,0.9-1.9,1.9-1.9h10.6c1.1,0,1.9,0.9,1.9,1.9
			c0,1-0.9,1.9-1.9,1.9H14.1z"/>
		<path style="fill:#919191;" d="M14.1,56.9c-1.1,0-1.9-0.9-1.9-1.9c0-1.1,0.9-1.9,1.9-1.9H23c1,0,1.9,0.9,1.9,1.9
			c0,1-0.9,1.9-1.9,1.9H14.1z"/>
		<path style="fill:#919191;" d="M14.1,66.9c-1.1,0-1.9-0.9-1.9-1.9c0-1,0.9-1.9,1.9-1.9h7c1,0,1.9,0.9,1.9,1.9
			c0,1.1-0.9,1.9-1.9,1.9H14.1z"/>
		<path style="fill:#919191;" d="M14.1,76.9c-1.1,0-1.9-0.9-1.9-1.9s0.9-1.9,1.9-1.9h8.5c1,0,1.9,0.8,1.9,1.9s-0.9,1.9-1.9,1.9H14.1
			z"/>
		<path style="fill:#919191;" d="M14.1,86.9c-1.1,0-1.9-0.9-1.9-1.9c0-1.1,0.9-1.9,1.9-1.9h13c1,0,1.9,0.9,1.9,1.9
			c0,1.1-0.9,1.9-1.9,1.9H14.1z"/>
		<path style="fill:#919191;" d="M45.9,23.1c1.1,0,1.9,0.9,1.9,1.9c0,1.1-0.9,1.9-1.9,1.9h-7c-1.1,0-1.9-0.9-1.9-1.9
			c0-1.1,0.9-1.9,1.9-1.9H45.9z M29.8,23.1c1.1,0,1.9,0.9,1.9,1.9c0,1.1-0.9,1.9-1.9,1.9H14.1c-1.1,0-1.9-0.9-1.9-1.9
			c0-1.1,0.9-1.9,1.9-1.9H29.8z"/>
		<path style="fill-rule:evenodd;clip-rule:evenodd;fill:#FFE07D;" d="M73.6,33.7c-3.7-1.5-7.7-2.3-11.9-2.3
			c-17.6,0-31.8,14.3-31.8,31.8S44.1,95,61.7,95s31.8-14.2,31.8-31.8C93.5,49.8,85.3,38.4,73.6,33.7L73.6,33.7z M69.8,49.8v-5.4
			l12.6,10.5L69.8,65.4v-6C62.3,58.8,55.9,63,53,69.3C53,59.3,59.7,49.8,69.8,49.8L69.8,49.8z"/>
		<path style="fill-rule:evenodd;clip-rule:evenodd;fill:#F2D574;" d="M93.5,63.2c0-13.4-8.2-24.8-19.9-29.5
			c-3.7-1.5-7.7-2.3-11.9-2.3c-2.3,0-4.5,0.2-6.6,0.7c14.4,3.1,25.2,15.8,25.2,31.1c0,15.3-10.8,28.1-25.2,31.1
			c2.1,0.5,4.4,0.7,6.6,0.7C79.3,95,93.5,80.8,93.5,63.2L93.5,63.2z"/>
		<path style="fill:#95D528;" d="M76.7,69.2c0-1.1,0.9-1.9,1.9-1.9c1.1,0,1.9,0.9,1.9,1.9v8.5c0,1.1-0.9,1.9-1.9,1.9H43
			c-1.1,0-1.9-0.9-1.9-1.9V52c0-1.1,0.9-1.9,1.9-1.9h7.7c1.1,0,1.9,0.9,1.9,1.9c0,1-0.9,1.9-1.9,1.9h-5.8v21.9h31.9V69.2z"/>
		<path style="fill-rule:evenodd;clip-rule:evenodd;fill:#95D528;" d="M82.3,54.9L69.8,44.3v5.4C59.7,49.8,53,59.3,53,69.3
			c2.8-6.4,9.3-10.5,16.7-9.9v6L82.3,54.9z"/>
	</g>
</g>
</svg>
