<?xml version="1.0" encoding="iso-8859-1"?>
<!-- Generator: Adobe Illustrator 23.0.5, SVG Export Plug-In . SVG Version: 6.00 Build 0)  -->
<svg version="1.1" xmlns="http://www.w3.org/2000/svg" xmlns:xlink="http://www.w3.org/1999/xlink" x="0px" y="0px"
	 viewBox="0 0 100 100" style="enable-background:new 0 0 100 100;" xml:space="preserve">
<g id="Layer_1">
</g>
<g id="Layer_2">
</g>
<g id="Layer_3">
</g>
<g id="Layer_4">
</g>
<g id="Layer_5">
</g>
<g id="Layer_6">
</g>
<g id="Layer_7">
</g>
<g id="Layer_8">
</g>
<g id="Layer_9">
</g>
<g id="Layer_10">
</g>
<g id="Layer_11">
</g>
<g id="Layer_12">
</g>
<g id="Layer_13">
</g>
<g id="Layer_14">
</g>
<g id="Layer_15">
</g>
<g id="Layer_16">
</g>
<g id="Layer_17">
</g>
<g id="Layer_18">
</g>
<g id="Layer_19">
</g>
<g id="Layer_20">
</g>
<g id="Layer_21">
</g>
<g id="Layer_22">
</g>
<g id="Layer_23">
</g>
<g id="Layer_24">
</g>
<g id="Layer_25">
</g>
<g id="Layer_26">
</g>
<g id="Layer_27">
</g>
<g id="Layer_28">
</g>
<g id="Layer_29">
</g>
<g id="Layer_30">
</g>
<g id="Layer_31">
</g>
<g id="Layer_32">
</g>
<g id="Layer_35">
	<g id="Layer_34">
	</g>
	<g id="Layer_33">
	</g>
	<g>
		<path style="fill-rule:evenodd;clip-rule:evenodd;fill:#78737A;" d="M87.6,8.7c-7-3.9-15.8-1.4-19.7,5.6c-0.9,1.6-1.4,3.3-1.7,5
			l10,9.8l13.6,3.4c1.3-1.1,2.4-2.5,3.3-4C97.1,21.4,94.6,12.6,87.6,8.7L87.6,8.7z"/>
		<path style="fill-rule:evenodd;clip-rule:evenodd;fill:#5D595E;" d="M84.1,7.3c4.7,4.5,5.9,11.6,2.6,17.5c-0.9,1.6-2,2.9-3.3,4
			l1.5,2.9l4.9,0.6c1.3-1.1,2.4-2.5,3.3-4c3.9-7,1.4-15.8-5.6-19.7C86.5,8.1,85.3,7.6,84.1,7.3L84.1,7.3z"/>
		<path style="fill-rule:evenodd;clip-rule:evenodd;fill:#8B898C;" d="M39.5,77.3l-2.6,4.6c-1.5,2.7-0.5,6.1,2.1,7.5l5.3,3
			c2.7,1.5,6.1,0.5,7.5-2.1l2.6-4.6L39.5,77.3z"/>
		<path style="fill-rule:evenodd;clip-rule:evenodd;fill:#777678;" d="M48.1,82.1l-2.6,4.6c-1.2,2.2-3.8,3.2-6.1,2.7
			c0.4,0.4,0.8,0.7,1.2,0.9l3.7,2.1c2.7,1.5,6.1,0.5,7.5-2.1l2.6-4.6L48.1,82.1z"/>
		<path style="fill-rule:evenodd;clip-rule:evenodd;fill:#8B898C;" d="M60.4,35.9l-1.7,3c-1.5,2.7-0.5,6.1,2.1,7.5l3.5,2l8.3,4.6
			l4.4-7.9L60.4,35.9z"/>
		<polygon style="fill-rule:evenodd;clip-rule:evenodd;fill:#777678;" points="77.6,43.4 71.5,40.1 65.4,51.1 71.7,54.7 77.9,43.6 
					"/>
		<path style="fill-rule:evenodd;clip-rule:evenodd;fill:#FFC8B1;" d="M33.2,30.5L18.7,56.4l3.2,1.8c4,2.2,4.6,3.3,5.9,7.5
			c1.6,5,4.4,9.6,9.1,12.2l1.6,0.9l15,8.4c2.3,1.3,5.3,0.5,6.7-1.9c1.3-2.3,0.5-5.3-1.9-6.7l1.9,1c2.3,1.3,5.3,0.5,6.7-1.9
			c1.3-2.3,0.5-5.3-1.9-6.6l0.7,0.4c2.6,1.4,5.8,0.7,7.1-1.6c1.3-2.3,0.3-5.4-2.3-6.9l-1.1-0.6c2.6,1.4,5.8,0.7,7.1-1.7
			c1.3-2.3,0.3-5.4-2.3-6.9l-1.5-0.8l-8.3-4.6l-1.9-1.1c-2.7-1.5-3.6-4.9-2.1-7.5l1.7-3l-2.5-5.1l-4.1,1.4
			c-3.1,1.1-9.8,4.3-14.9,1.5L33.2,30.5z"/>
		<path style="fill-rule:evenodd;clip-rule:evenodd;fill:#A5D2FF;" d="M89.8,32.5L66.2,19.3l-1.7-1c-1.9-1-4.3-0.4-5.3,1.5l-4.7,8.4
			c-0.9,1.7-0.5,3.8,1,5c0.2,0.1,0.3,0.2,0.5,0.3l6.1,3.4l15,8.4l6.1,3.4c1.9,1,4.3,0.4,5.3-1.5l4.7-8.4c1-1.9,0.4-4.3-1.5-5.3
			L89.8,32.5z"/>
		<path style="fill-rule:evenodd;clip-rule:evenodd;fill:#FCB797;" d="M26.2,54.3l-4.8-2.7l-2.7,4.8l3.2,1.8c4,2.2,4.6,3.3,5.9,7.5
			c1.6,5,4.4,9.6,9.1,12.2l1.6,0.9l15,8.4c2.3,1.3,5.3,0.5,6.7-1.9c0.1-0.2,0.2-0.4,0.3-0.5L41.2,74.1c-4.6-2.6-7.5-7.2-9.1-12.2
			C30.8,57.6,30.2,56.5,26.2,54.3L26.2,54.3z"/>
		<path style="fill-rule:evenodd;clip-rule:evenodd;fill:#93C0ED;" d="M85.2,29.9c1.9,1.1,2.5,3.4,1.5,5.3L82,43.5
			c-1,1.9-3.4,2.6-5.3,1.5l0.3,0.2l6.1,3.4c1.9,1,4.3,0.4,5.3-1.5l4.7-8.4c1-1.9,0.4-4.3-1.5-5.3l-1.7-1L85.2,29.9L85.2,29.9z"/>
		<path style="fill-rule:evenodd;clip-rule:evenodd;fill:#FCB797;" d="M58.3,78.7l1.9,1c2,1.1,4.4,0.7,5.9-0.9l-8.4-4.7
			c-0.9-0.5-2-0.2-2.5,0.7c-0.5,0.9-0.2,2,0.7,2.5L58.3,78.7z"/>
		<path style="fill-rule:evenodd;clip-rule:evenodd;fill:#FCB797;" d="M65,71.2l0.7,0.4c2.2,1.2,4.8,0.9,6.3-0.7l-9.6-5.3
			c-0.9-0.5-2-0.2-2.5,0.7s-0.2,2,0.7,2.5L65,71.2z"/>
		<path style="fill-rule:evenodd;clip-rule:evenodd;fill:#FCB797;" d="M70.5,63.1L70.5,63.1l-1.1-0.6c2.2,1.2,4.7,0.9,6.3-0.7
			l-7.1-3.9c-0.9-0.5-2-0.2-2.5,0.7c-0.5,0.9-0.2,2,0.7,2.5L70.5,63.1z"/>
		<polygon style="fill-rule:evenodd;clip-rule:evenodd;fill:#6DB4FC;" points="24.2,21 5,55.4 17.5,62.4 20.3,57.3 34.8,31.4 
			36.7,28 		"/>
		<polygon style="fill-rule:evenodd;clip-rule:evenodd;fill:#62A2E3;" points="21.1,56 8.6,49 5,55.4 17.5,62.4 20.3,57.3 		"/>
	</g>
</g>
</svg>
