<?xml version="1.0" encoding="iso-8859-1"?>
<!-- Generator: Adobe Illustrator 23.0.5, SVG Export Plug-In . SVG Version: 6.00 Build 0)  -->
<svg version="1.1" xmlns="http://www.w3.org/2000/svg" xmlns:xlink="http://www.w3.org/1999/xlink" x="0px" y="0px"
	 viewBox="0 0 100 100" style="enable-background:new 0 0 100 100;" xml:space="preserve">
<g id="Layer_1">
</g>
<g id="Layer_2">
</g>
<g id="Layer_3">
</g>
<g id="Layer_4">
</g>
<g id="Layer_5">
</g>
<g id="Layer_6">
</g>
<g id="Layer_7">
</g>
<g id="Layer_8">
</g>
<g id="Layer_9">
</g>
<g id="Layer_10">
</g>
<g id="Layer_11">
</g>
<g id="Layer_12">
</g>
<g id="Layer_13">
</g>
<g id="Layer_14">
</g>
<g id="Layer_15">
</g>
<g id="Layer_16">
</g>
<g id="Layer_17">
</g>
<g id="Layer_18">
</g>
<g id="Layer_19">
</g>
<g id="Layer_20">
</g>
<g id="Layer_21">
</g>
<g id="Layer_22">
</g>
<g id="Layer_23">
</g>
<g id="Layer_24">
</g>
<g id="Layer_25">
</g>
<g id="Layer_26">
</g>
<g id="Layer_27">
</g>
<g id="Layer_28">
</g>
<g id="Layer_29">
</g>
<g id="Layer_30">
</g>
<g id="Layer_31">
</g>
<g id="Layer_32">
</g>
<g id="Layer_35">
	<g id="Layer_34">
	</g>
	<g id="Layer_33">
	</g>
	<g>
		<path style="fill-rule:evenodd;clip-rule:evenodd;fill:#FFC8B1;" d="M15.4,55.5V41.1h-3.2c-1,0-2,0.2-2.9,0.6
			C6.8,42.9,5,45.4,5,48.3c0,4,3.2,7.2,7.2,7.2H15.4z"/>
		<path style="fill-rule:evenodd;clip-rule:evenodd;fill:#FFC8B1;" d="M82,48.3c0-2.9-1.8-5.4-4.3-6.6c-0.9-0.4-1.9-0.6-2.9-0.6
			h-3.2l0,14.4h3.2C78.8,55.5,82,52.2,82,48.3L82,48.3z"/>
		<path style="fill-rule:evenodd;clip-rule:evenodd;fill:#B3673B;" d="M77.7,37.8c0-6.2-1.3-20.1-14.2-19.4l-9.4,2.3l-1,9.8
			c3.1,9,11,10.5,16.9,10.5h3.4l0,0h1.3c1,0,2,0.2,2.9,0.6V37.8z"/>
		<path style="fill-rule:evenodd;clip-rule:evenodd;fill:#D87E49;" d="M63.5,18.4C54.3-4.7,9.3,3,9.3,33.7v8
			c0.9-0.4,1.9-0.6,2.9-0.6h1.3h4.4c11.3,0,24.8,0,35.2-10.5L63.5,18.4z"/>
		<path style="fill-rule:evenodd;clip-rule:evenodd;fill:#FFDDCE;" d="M70,41.1c-6,0-13.8-1.6-16.9-10.5
			C42.7,41.1,29.2,41.1,17.9,41.1h-4.4v14.4c0,16.5,18.2,30,30,30s30-13.5,30-30V41.1l0,0H70z"/>
		<path style="fill-rule:evenodd;clip-rule:evenodd;fill:#F5C1AB;" d="M73.5,55.5V41.1l0,0H70c-1.9,0-4-0.2-6-0.7v15
			C64,69.9,50.1,82,38.8,84.8c1.6,0.4,3.2,0.6,4.7,0.6C55.3,85.5,73.5,72,73.5,55.5L73.5,55.5z"/>
		<path style="fill:#A5D2FF;" d="M85.5,57.7c0.8-0.7,2-0.7,2.7,0.1c0.7,0.8,0.7,2-0.1,2.7c-4.5,4.2-6.8,9.8-7,15.5
			C81,81.6,83,87.4,87.2,91.8c0.7,0.8,0.7,2-0.1,2.7c-0.8,0.7-2,0.7-2.7-0.1c-4.9-5.2-7.3-11.9-7.1-18.6
			C77.6,69.2,80.3,62.6,85.5,57.7L85.5,57.7z"/>
		<path style="fill:#A5D2FF;" d="M93.9,85.5c0.7,0.8,0.7,2-0.1,2.7c-0.8,0.7-2,0.7-2.7-0.1c-3.2-3.4-4.7-7.7-4.6-12
			c0.1-4.3,1.9-8.6,5.3-11.8c0.8-0.7,2-0.7,2.7,0.1c0.7,0.8,0.7,2-0.1,2.7c-2.6,2.5-4,5.8-4.1,9.1C90.2,79.5,91.4,82.9,93.9,85.5
			L93.9,85.5z"/>
		<path style="fill:#A3A1A1;" d="M28.9,57.3c0-1,0.8-1.9,1.9-1.9c1,0,1.9,0.8,1.9,1.9v2.3c0,1-0.8,1.9-1.9,1.9c-1,0-1.9-0.8-1.9-1.9
			V57.3z"/>
		<path style="fill:#919191;" d="M51.8,51c-0.3,1-1.4,1.5-2.4,1.2c-1-0.3-1.5-1.3-1.2-2.3h0c0.6-2.3,2.1-4.1,4-5.1
			c1.9-1.1,4.2-1.4,6.4-0.8c1,0.3,1.6,1.3,1.3,2.3c-0.3,1-1.3,1.6-2.3,1.3c-1.3-0.3-2.5-0.1-3.6,0.5C53,48.6,52.2,49.6,51.8,51
			L51.8,51C51.9,50.9,51.8,50.9,51.8,51L51.8,51z"/>
		<path style="fill:#919191;" d="M26.7,51.6c-1,0-1.9-0.8-1.9-1.9c0-1,0.8-1.9,1.9-1.9h8.4c1,0,1.9,0.8,1.9,1.9c0,1-0.8,1.9-1.9,1.9
			H26.7z"/>
		<path style="fill:#A3A1A1;" d="M53.9,57.3c0-1,0.8-1.9,1.9-1.9c1,0,1.9,0.8,1.9,1.9v2.3c0,1-0.8,1.9-1.9,1.9c-1,0-1.9-0.8-1.9-1.9
			V57.3z"/>
		<path style="fill:#FCB797;" d="M37.2,74.7c-1,0.3-2.1-0.2-2.4-1.2c-0.3-1,0.2-2.1,1.2-2.4c2.4-0.8,4.8-1.2,7.3-1.2
			c2.5,0,5,0.4,7.7,1.2c1,0.3,1.6,1.4,1.2,2.4c-0.3,1-1.4,1.6-2.4,1.2c-2.2-0.7-4.4-1-6.5-1C41.2,73.7,39.2,74.1,37.2,74.7
			L37.2,74.7z"/>
	</g>
</g>
</svg>
