<?xml version="1.0" encoding="iso-8859-1"?>
<!-- Generator: Adobe Illustrator 23.0.5, SVG Export Plug-In . SVG Version: 6.00 Build 0)  -->
<svg version="1.1" xmlns="http://www.w3.org/2000/svg" xmlns:xlink="http://www.w3.org/1999/xlink" x="0px" y="0px"
	 viewBox="0 0 100 100" style="enable-background:new 0 0 100 100;" xml:space="preserve">
<g id="Layer_1">
</g>
<g id="Layer_2">
</g>
<g id="Layer_3">
</g>
<g id="Layer_4">
</g>
<g id="Layer_5">
</g>
<g id="Layer_6">
</g>
<g id="Layer_7">
</g>
<g id="Layer_8">
</g>
<g id="Layer_9">
</g>
<g id="Layer_10">
</g>
<g id="Layer_11">
</g>
<g id="Layer_12">
</g>
<g id="Layer_13">
</g>
<g id="Layer_14">
</g>
<g id="Layer_15">
</g>
<g id="Layer_16">
</g>
<g id="Layer_17">
</g>
<g id="Layer_18">
</g>
<g id="Layer_19">
</g>
<g id="Layer_20">
</g>
<g id="Layer_21">
</g>
<g id="Layer_22">
</g>
<g id="Layer_23">
</g>
<g id="Layer_24">
</g>
<g id="Layer_25">
</g>
<g id="Layer_26">
</g>
<g id="Layer_27">
</g>
<g id="Layer_28">
</g>
<g id="Layer_29">
</g>
<g id="Layer_30">
</g>
<g id="Layer_31">
</g>
<g id="Layer_32">
</g>
<g id="Layer_35">
	<g id="Layer_34">
	</g>
	<g id="Layer_33">
	</g>
	<g>
		<path style="fill-rule:evenodd;clip-rule:evenodd;fill:#CECDCF;" d="M57.3,76c10.8-3.2,18.8-13.2,18.8-25v-0.1L50,47.2l-26.1,3.7
			V51c0,11.8,8,21.8,18.8,25l7.3-2.8L57.3,76z"/>
		<polygon style="fill-rule:evenodd;clip-rule:evenodd;fill:#8B898C;" points="61.9,93.2 55.4,82 44.6,82 38.1,93.2 		"/>
		<polygon style="fill-rule:evenodd;clip-rule:evenodd;fill:#777678;" points="61.9,93.2 55.4,82 50,83.6 47.8,84 53.1,93.2 		"/>
		<path style="fill:#919191;" d="M70.1,44.6c0.7,0.7,0.7,1.8,0,2.5s-1.8,0.7-2.5,0L53.1,32.6c-0.7-0.7-0.7-1.8,0-2.5
			c0.7-0.7,1.8-0.7,2.5,0L70.1,44.6z"/>
		<path style="fill:#919191;" d="M33.5,46c-0.7,0.7-1.8,0.7-2.5,0c-0.7-0.7-0.7-1.8,0-2.5l13.7-13.7c0.7-0.7,1.8-0.7,2.5,0
			c0.7,0.7,0.7,1.8,0,2.5L33.5,46z"/>
		<path style="fill-rule:evenodd;clip-rule:evenodd;fill:#F5F5F5;" d="M54.9,31.9c0.5-0.9,0.8-1.9,0.8-3c0-3.1-2.6-5.7-5.7-5.7
			c-3.1,0-5.7,2.6-5.7,5.7c0,1.1,0.3,2.1,0.8,3c1,1.6,2.8,2.7,4.9,2.7S53.9,33.5,54.9,31.9L54.9,31.9z"/>
		<path style="fill-rule:evenodd;clip-rule:evenodd;fill:#E6E6E6;" d="M55.7,28.9c0-3.1-2.6-5.7-5.7-5.7c-1,0-1.8,0.2-2.6,0.6
			c1.8,1,3.1,2.9,3.1,5.1c0,2.2-1.2,4.1-3.1,5.1c0.8,0.4,1.7,0.6,2.6,0.6c2.1,0,3.9-1.1,4.9-2.7C55.4,31,55.7,30,55.7,28.9
			L55.7,28.9z"/>
		<path style="fill:#919191;" d="M77,91.5c1,0,1.8,0.8,1.8,1.8c0,1-0.8,1.8-1.8,1.8H23c-1,0-1.8-0.8-1.8-1.8c0-1,0.8-1.8,1.8-1.8H77
			z"/>
		<path style="fill:#A5D2FF;" d="M27.6,30.9c0,1-0.8,1.8-1.8,1.8c-1,0-1.8-0.8-1.8-1.8c0-7.2,2.9-13.6,7.6-18.3
			C36.4,7.9,42.8,5,50,5s13.6,2.9,18.3,7.6c4.7,4.7,7.6,11.2,7.6,18.3c0,1-0.8,1.8-1.8,1.8c-1,0-1.8-0.8-1.8-1.8
			c0-6.2-2.5-11.8-6.6-15.9S56.2,8.5,50,8.5S38.2,11,34.1,15.1S27.6,24.7,27.6,30.9L27.6,30.9z"/>
		<path style="fill:#A5D2FF;" d="M36.5,30.9c0,1-0.8,1.8-1.8,1.8s-1.8-0.8-1.8-1.8c0-4.7,1.9-9,5-12.1c3.1-3.1,7.3-5,12.1-5
			s9,1.9,12.1,5c3.1,3.1,5,7.3,5,12.1c0,1-0.8,1.8-1.8,1.8s-1.8-0.8-1.8-1.8c0-3.7-1.5-7.1-4-9.6c-2.4-2.5-5.8-4-9.6-4
			c-3.7,0-7.1,1.5-9.6,4C38,23.8,36.5,27.2,36.5,30.9L36.5,30.9z"/>
		<path style="fill-rule:evenodd;clip-rule:evenodd;fill:#C4C4C4;" d="M57.3,76c10.8-3.2,18.8-13.2,18.8-25v-0.1l-4.6-1.8l-4.2,1.8
			V51c0,8.9-4.5,16.8-11.4,21.5l-0.1,1.9L57.3,76z"/>
		<path style="fill-rule:evenodd;clip-rule:evenodd;fill:#F5F5F5;" d="M57.3,76c-0.5-3.6-3.6-6.3-7.3-6.3c-3.7,0-6.8,2.7-7.3,6.3
			c0,0.3-0.1,0.7-0.1,1c0,1.9,0.7,3.7,1.9,5c1.3,1.5,3.3,2.4,5.4,2.4s4.1-0.9,5.4-2.4c1.2-1.3,1.9-3.1,1.9-5
			C57.4,76.6,57.3,76.3,57.3,76L57.3,76z"/>
		<path style="fill-rule:evenodd;clip-rule:evenodd;fill:#E6E6E6;" d="M55.4,82c1.2-1.3,1.9-3.1,1.9-5c0-0.4,0-0.7-0.1-1
			c-0.2-1.3-0.7-2.5-1.5-3.5c-1.3-1.7-3.4-2.9-5.8-2.9c-0.9,0-1.8,0.2-2.6,0.5c2.8,1.1,4.7,3.7,4.7,6.9c0,3.1-2,5.8-4.7,6.9
			c0.1,0.1,0.3,0.1,0.4,0.2c0.7,0.2,1.4,0.3,2.2,0.3C52.1,84.4,54.1,83.4,55.4,82L55.4,82z"/>
		<path style="fill-rule:evenodd;clip-rule:evenodd;fill:#8B898C;" d="M76.8,50.9c2.3,0,4.2-1.9,4.2-4.2c0-2.3-1.9-4.2-4.2-4.2H65.5
			H34.5H23.2c-2.3,0-4.2,1.9-4.2,4.2c0,2.3,1.9,4.2,4.2,4.2h0.7h52.1H76.8z"/>
		<path style="fill-rule:evenodd;clip-rule:evenodd;fill:#777678;" d="M76.8,50.9c2.3,0,4.2-1.9,4.2-4.2c0-2.3-1.9-4.2-4.2-4.2H68
			c2.3,0,4.2,1.9,4.2,4.2c0,2.3-1.9,4.2-4.2,4.2h8.1H76.8z"/>
	</g>
</g>
</svg>
