<?xml version="1.0" encoding="iso-8859-1"?>
<!-- Generator: Adobe Illustrator 23.0.5, SVG Export Plug-In . SVG Version: 6.00 Build 0)  -->
<svg version="1.1" xmlns="http://www.w3.org/2000/svg" xmlns:xlink="http://www.w3.org/1999/xlink" x="0px" y="0px"
	 viewBox="0 0 100 100" style="enable-background:new 0 0 100 100;" xml:space="preserve">
<g id="Layer_1">
</g>
<g id="Layer_2">
</g>
<g id="Layer_3">
</g>
<g id="Layer_4">
</g>
<g id="Layer_5">
</g>
<g id="Layer_6">
</g>
<g id="Layer_7">
</g>
<g id="Layer_8">
</g>
<g id="Layer_9">
</g>
<g id="Layer_10">
</g>
<g id="Layer_11">
</g>
<g id="Layer_12">
</g>
<g id="Layer_13">
</g>
<g id="Layer_14">
</g>
<g id="Layer_15">
</g>
<g id="Layer_16">
</g>
<g id="Layer_17">
</g>
<g id="Layer_18">
</g>
<g id="Layer_19">
</g>
<g id="Layer_20">
</g>
<g id="Layer_21">
</g>
<g id="Layer_22">
</g>
<g id="Layer_23">
</g>
<g id="Layer_24">
</g>
<g id="Layer_25">
</g>
<g id="Layer_26">
</g>
<g id="Layer_27">
</g>
<g id="Layer_28">
</g>
<g id="Layer_29">
</g>
<g id="Layer_30">
</g>
<g id="Layer_31">
</g>
<g id="Layer_32">
</g>
<g id="Layer_35">
	<g id="Layer_34">
	</g>
	<g id="Layer_33">
	</g>
	<g>
		<path style="fill-rule:evenodd;clip-rule:evenodd;fill:#78737A;" d="M11.2,38.8c-2.6,0-4.8,2.2-4.8,4.8v46.6
			c0,2.6,2.2,4.8,4.8,4.8h77.6c2.6,0,4.8-2.2,4.8-4.8V43.6c0-2.6-2.2-4.8-4.8-4.8C62.9,38.8,37.1,38.8,11.2,38.8L11.2,38.8z"/>
		<path style="fill:#CECDCF;" d="M18.2,35.1c-0.9,0.4-2,0.1-2.5-0.9c-0.5-0.9-0.1-2,0.8-2.5L61.3,9.9c0.9-0.5,2-0.1,2.5,0.8
			c0.5,0.9,0.1,2-0.8,2.5L18.2,35.1z"/>
		<polygon style="fill-rule:evenodd;clip-rule:evenodd;fill:#A5D2FF;" points="83.7,48.2 16.3,48.2 16.3,65.9 29.1,65.9 83.7,65.9 
					"/>
		<path style="fill-rule:evenodd;clip-rule:evenodd;fill:#F5F5F5;" d="M32.3,80.2c0-3.9-3.2-7.1-7.1-7.1s-7.1,3.2-7.1,7.1
			c0,3.9,3.2,7.1,7.1,7.1S32.3,84.1,32.3,80.2L32.3,80.2z"/>
		<path style="fill-rule:evenodd;clip-rule:evenodd;fill:#F5F5F5;" d="M74.8,87.3c3.9,0,7.1-3.2,7.1-7.1c0-3.9-3.2-7.1-7.1-7.1
			s-7.1,3.2-7.1,7.1C67.7,84.1,70.9,87.3,74.8,87.3L74.8,87.3z"/>
		<path style="fill-rule:evenodd;clip-rule:evenodd;fill:#F5F5F5;" d="M23.8,38.8v-5.1c0-1.8-1.5-3.3-3.3-3.3h-2.6h-2.6
			c-1.8,0-3.3,1.5-3.3,3.3v5.1H23.8z"/>
		<path style="fill-rule:evenodd;clip-rule:evenodd;fill:#FFE07D;" d="M70.1,10.3c0-2.9-2.4-5.3-5.3-5.3c-2.9,0-5.3,2.4-5.3,5.3
			c0,0.7,0.1,1.4,0.4,2.1c0.8,1.9,2.7,3.2,4.9,3.2C67.7,15.6,70.1,13.3,70.1,10.3L70.1,10.3z"/>
		<path style="fill-rule:evenodd;clip-rule:evenodd;fill:#E6E6E6;" d="M23.8,38.8v-5.1c0-1.8-1.5-3.3-3.3-3.3h-2.6h-2.6
			c1.8,0,3.3,1.5,3.3,3.3v5.1H23.8z"/>
		<path style="fill-rule:evenodd;clip-rule:evenodd;fill:#E6E6E6;" d="M25.2,87.3c3.9,0,7.1-3.2,7.1-7.1c0-3.9-3.2-7.1-7.1-7.1
			c-0.9,0-1.8,0.2-2.6,0.5c2.6,1,4.5,3.6,4.5,6.6c0,3-1.8,5.5-4.5,6.6C23.4,87.1,24.3,87.3,25.2,87.3L25.2,87.3z"/>
		<path style="fill-rule:evenodd;clip-rule:evenodd;fill:#E6E6E6;" d="M81.9,80.2c0-3.9-3.2-7.1-7.1-7.1c-0.9,0-1.8,0.2-2.6,0.5
			c2.6,1,4.5,3.6,4.5,6.6c0,3-1.8,5.5-4.5,6.6c0.8,0.3,1.7,0.5,2.6,0.5C78.7,87.3,81.9,84.1,81.9,80.2L81.9,80.2z"/>
		<rect x="74.4" y="48.2" style="fill-rule:evenodd;clip-rule:evenodd;fill:#93C0ED;" width="9.2" height="17.7"/>
		<path style="fill-rule:evenodd;clip-rule:evenodd;fill:#F2D574;" d="M64.7,15.6c2.9,0,5.3-2.4,5.3-5.3c0-2.9-2.4-5.3-5.3-5.3
			c-1,0-2,0.3-2.8,0.8c1.5,0.9,2.5,2.6,2.5,4.5c0,1.9-1,3.6-2.5,4.5C62.8,15.3,63.7,15.6,64.7,15.6L64.7,15.6z"/>
		<path style="fill-rule:evenodd;clip-rule:evenodd;fill:#5D595E;" d="M93.6,90.2V43.6c0-2.6-2.2-4.8-4.8-4.8h-0.9h-9
			c2.6,0,4.8,2.2,4.8,4.8c0,15.5,0,31.1,0,46.6c0,2.6-2.2,4.8-4.8,4.8h9.9C91.4,95,93.6,92.8,93.6,90.2L93.6,90.2z"/>
		<path style="fill:#F5F5F5;" d="M39.3,73.1c0-1,0.8-1.8,1.9-1.8c1,0,1.8,0.8,1.8,1.8v14.2c0,1-0.8,1.9-1.8,1.9
			c-1,0-1.9-0.8-1.9-1.9V73.1z"/>
		<path style="fill:#F5F5F5;" d="M48.1,73.1c0-1,0.8-1.8,1.9-1.8c1,0,1.9,0.8,1.9,1.8v14.2c0,1-0.8,1.9-1.9,1.9
			c-1,0-1.9-0.8-1.9-1.9V73.1z"/>
		<path style="fill:#F5F5F5;" d="M57,73.1c0-1,0.8-1.8,1.8-1.8c1,0,1.9,0.8,1.9,1.8v14.2c0,1-0.8,1.9-1.9,1.9c-1,0-1.8-0.8-1.8-1.9
			V73.1z"/>
		<path style="fill:#F16C79;" d="M30.9,65.9h-3.7V55.4c0-1,0.8-1.8,1.9-1.8c1,0,1.8,0.8,1.8,1.8V65.9z"/>
	</g>
</g>
</svg>
