<?xml version="1.0" encoding="iso-8859-1"?>
<!-- Generator: Adobe Illustrator 23.0.5, SVG Export Plug-In . SVG Version: 6.00 Build 0)  -->
<svg version="1.1" xmlns="http://www.w3.org/2000/svg" xmlns:xlink="http://www.w3.org/1999/xlink" x="0px" y="0px"
	 viewBox="0 0 100 100" style="enable-background:new 0 0 100 100;" xml:space="preserve">
<g id="Layer_1">
</g>
<g id="Layer_2">
</g>
<g id="Layer_3">
</g>
<g id="Layer_4">
</g>
<g id="Layer_5">
</g>
<g id="Layer_6">
</g>
<g id="Layer_7">
</g>
<g id="Layer_8">
</g>
<g id="Layer_9">
</g>
<g id="Layer_10">
</g>
<g id="Layer_11">
</g>
<g id="Layer_12">
</g>
<g id="Layer_13">
</g>
<g id="Layer_14">
</g>
<g id="Layer_15">
</g>
<g id="Layer_16">
</g>
<g id="Layer_17">
</g>
<g id="Layer_18">
</g>
<g id="Layer_19">
</g>
<g id="Layer_20">
</g>
<g id="Layer_21">
</g>
<g id="Layer_22">
</g>
<g id="Layer_23">
</g>
<g id="Layer_24">
</g>
<g id="Layer_25">
</g>
<g id="Layer_26">
</g>
<g id="Layer_27">
</g>
<g id="Layer_28">
</g>
<g id="Layer_29">
</g>
<g id="Layer_30">
</g>
<g id="Layer_31">
</g>
<g id="Layer_32">
</g>
<g id="Layer_35">
	<g id="Layer_34">
	</g>
	<g id="Layer_33">
	</g>
	<g>
		<path style="fill-rule:evenodd;clip-rule:evenodd;fill:#D87E49;" d="M7.1,9.1C6,9.1,5,10.1,5,11.2v80.9c0,1.2,1,2.1,2.1,2.1h67.6
			c1.2,0,2.1-1,2.1-2.1c0-27,0-53.9,0-80.9c0-1.2-1-2.1-2.1-2.1C52.2,9.1,29.7,9.1,7.1,9.1L7.1,9.1z"/>
		<path style="fill-rule:evenodd;clip-rule:evenodd;fill:#F5F5F5;" d="M68.6,48.2V16.3c-18.4,0-36.9,0-55.3,0v70.8h55.3V66.9
			L55,74.6l4.4-14.9L68.6,48.2z"/>
		<path style="fill-rule:evenodd;clip-rule:evenodd;fill:#B3673B;" d="M76.8,11.2c0-1.2-1-2.1-2.1-2.1h-8.3c1.2,0,2.1,1,2.1,2.1
			c0,27,0,53.9,0,80.9c0,1.2-1,2.1-2.1,2.1h8.3c1.2,0,2.1-1,2.1-2.1C76.8,65.2,76.8,38.2,76.8,11.2L76.8,11.2z"/>
		<path style="fill-rule:evenodd;clip-rule:evenodd;fill:#F16C79;" d="M40.9,39.8C40.9,39.8,40.9,39.8,40.9,39.8
			S40.9,39.8,40.9,39.8L40.9,39.8z M40.9,39.8L40.9,39.8L40.9,39.8L40.9,39.8z M54.3,50.5c-1.4-6.2-7-10.7-13.4-10.7c0,0,0,0,0,0
			c0,0,0,0,0,0h0c0,0,0,0,0,0c0,0,0,0,0,0c0,0,0,0,0,0c-2.9,0-5.5,0.9-7.8,2.4h0c-2.8,1.9-4.8,4.8-5.6,8.3H54.3z"/>
		<path style="fill-rule:evenodd;clip-rule:evenodd;fill:#FFDDCE;" d="M40.9,39.8L40.9,39.8C40.9,39.8,40.9,39.8,40.9,39.8
			L40.9,39.8z M40.9,39.8c3.4,0,6.2-2.8,6.2-6.2c0-3.4-2.8-6.2-6.2-6.2c-3.4,0-6.2,2.8-6.2,6.2C34.7,37,37.5,39.8,40.9,39.8
			C40.9,39.8,40.9,39.8,40.9,39.8C40.9,39.8,40.9,39.8,40.9,39.8C40.9,39.8,40.9,39.8,40.9,39.8L40.9,39.8
			C40.9,39.8,40.9,39.8,40.9,39.8C40.9,39.8,40.9,39.8,40.9,39.8L40.9,39.8L40.9,39.8z"/>
		<path style="fill-rule:evenodd;clip-rule:evenodd;fill:#CECDCF;" d="M52.3,19.7c0.9,0,1.6-0.7,1.6-1.6v-1.8V9.1V7.3
			c0-0.9-0.7-1.6-1.6-1.6H29.5c-0.9,0-1.6,0.7-1.6,1.6v1.8v7.2v1.8c0,0.9,0.7,1.6,1.6,1.6H52.3z"/>
		<path style="fill-rule:evenodd;clip-rule:evenodd;fill:#E6E6E6;" d="M68.6,37.8V16.3h-9.6c0,23.6,0,47.2,0,70.8h9.6
			C68.6,70.7,68.6,54.2,68.6,37.8L68.6,37.8z"/>
		<path style="fill-rule:evenodd;clip-rule:evenodd;fill:#C4C4C4;" d="M53.9,16.3V9.1V7.3c0-0.9-0.7-1.6-1.6-1.6h-7.7
			c0.9,0,1.6,0.7,1.6,1.6v10.8c0,0.9-0.7,1.6-1.6,1.6h7.7c0.9,0,1.6-0.7,1.6-1.6V16.3z"/>
		<path style="fill-rule:evenodd;clip-rule:evenodd;fill:#E26572;" d="M40.9,39.8L40.9,39.8L40.9,39.8L40.9,39.8z M40.9,39.8
			L40.9,39.8L40.9,39.8L40.9,39.8z M40.9,39.8L40.9,39.8C40.9,39.8,40.9,39.8,40.9,39.8L40.9,39.8L40.9,39.8z M54.3,50.5
			c-1.4-6.2-7-10.7-13.4-10.7l0,0h0c0,0,0,0,0,0h0c0,0,0,0,0,0c0,0,0,0,0,0h0l0,0h0c-1.3,0-2.6,0.2-3.8,0.5
			c4.7,1.4,8.4,5.2,9.5,10.1H54.3z"/>
		<path style="fill:#919191;" d="M24,63.1c-1.1,0-1.9-0.9-1.9-1.9c0-1.1,0.9-1.9,1.9-1.9h0c1.1,0,1.9,0.9,1.9,1.9
			C25.9,62.3,25.1,63.1,24,63.1L24,63.1z M33.1,63.1c-1.1,0-1.9-0.9-1.9-1.9c0-1.1,0.9-1.9,1.9-1.9h18.4c1.1,0,1.9,0.9,1.9,1.9
			c0,1.1-0.9,1.9-1.9,1.9H33.1z M24,79.4c-1.1,0-1.9-0.9-1.9-1.9c0-1.1,0.9-1.9,1.9-1.9h0c1.1,0,1.9,0.9,1.9,1.9
			C25.9,78.5,25.1,79.4,24,79.4L24,79.4z M33.1,79.4c-1.1,0-1.9-0.9-1.9-1.9c0-1.1,0.9-1.9,1.9-1.9h14.8c1.1,0,1.9,0.9,1.9,1.9
			c0,1.1-0.9,1.9-1.9,1.9H33.1z M24,71.2c-1.1,0-1.9-0.9-1.9-1.9c0-1.1,0.9-1.9,1.9-1.9h0c1.1,0,1.9,0.9,1.9,1.9
			C25.9,70.4,25.1,71.2,24,71.2L24,71.2z M33.1,71.2c-1.1,0-1.9-0.9-1.9-1.9c0-1.1,0.9-1.9,1.9-1.9h16.4c1.1,0,1.9,0.9,1.9,1.9
			c0,1.1-0.9,1.9-1.9,1.9H33.1z"/>
		<polygon style="fill-rule:evenodd;clip-rule:evenodd;fill:#CECDCF;" points="76.8,56.5 89.9,39.9 80.8,32.7 76.8,37.8 68.6,48.2 
			59.5,59.7 62.3,64.8 68.6,66.9 		"/>
		<path style="fill-rule:evenodd;clip-rule:evenodd;fill:#A5D2FF;" d="M89.4,40.7l5.2-6.5c0.8-1,0.6-2.4-0.4-3.2l-5.6-4.4
			c-1-0.8-2.4-0.6-3.2,0.4l-5.2,6.5L89.4,40.7z"/>
		<polygon style="fill-rule:evenodd;clip-rule:evenodd;fill:#C4C4C4;" points="68.6,66.9 76.8,56.5 89.9,39.9 85.5,36.4 64.1,63.4 
			64.5,65.9 		"/>
		<path style="fill-rule:evenodd;clip-rule:evenodd;fill:#93C0ED;" d="M89.4,40.7l5.2-6.5c0.8-1,0.6-2.4-0.4-3.2l-4.4-3.5
			c1,0.8,1.1,2.2,0.4,3.2l-5.2,6.5L89.4,40.7z"/>
		<polygon style="fill-rule:evenodd;clip-rule:evenodd;fill:#A5D2FF;" points="55,74.6 68.6,66.9 64,63.3 59.5,59.7 		"/>
		<polygon style="fill-rule:evenodd;clip-rule:evenodd;fill:#93C0ED;" points="58.9,72.4 68.6,66.9 64.1,63.4 64.1,63.4 57.2,67.3 
			55,74.6 		"/>
	</g>
</g>
</svg>
