<?xml version="1.0" encoding="iso-8859-1"?>
<!-- Generator: Adobe Illustrator 23.0.5, SVG Export Plug-In . SVG Version: 6.00 Build 0)  -->
<svg version="1.1" xmlns="http://www.w3.org/2000/svg" xmlns:xlink="http://www.w3.org/1999/xlink" x="0px" y="0px"
	 viewBox="0 0 100 100" style="enable-background:new 0 0 100 100;" xml:space="preserve">
<g id="Layer_1">
</g>
<g id="Layer_2">
</g>
<g id="Layer_3">
</g>
<g id="Layer_4">
</g>
<g id="Layer_5">
</g>
<g id="Layer_6">
</g>
<g id="Layer_7">
</g>
<g id="Layer_8">
</g>
<g id="Layer_9">
</g>
<g id="Layer_10">
</g>
<g id="Layer_11">
</g>
<g id="Layer_12">
</g>
<g id="Layer_13">
</g>
<g id="Layer_14">
</g>
<g id="Layer_15">
</g>
<g id="Layer_16">
</g>
<g id="Layer_17">
</g>
<g id="Layer_18">
</g>
<g id="Layer_19">
</g>
<g id="Layer_20">
</g>
<g id="Layer_21">
</g>
<g id="Layer_22">
</g>
<g id="Layer_23">
</g>
<g id="Layer_24">
</g>
<g id="Layer_25">
</g>
<g id="Layer_26">
</g>
<g id="Layer_27">
</g>
<g id="Layer_28">
</g>
<g id="Layer_29">
</g>
<g id="Layer_30">
</g>
<g id="Layer_31">
</g>
<g id="Layer_32">
</g>
<g id="Layer_35">
	<g id="Layer_34">
	</g>
	<g id="Layer_33">
	</g>
	<g>
		<polygon style="fill-rule:evenodd;clip-rule:evenodd;fill:#F5F5F5;" points="95,65.8 88.6,52.7 84.3,43.9 58.2,43.9 58.2,69.5 
			58.2,85.8 95,85.8 95,75.1 		"/>
		<path style="fill-rule:evenodd;clip-rule:evenodd;fill:#CECDCF;" d="M60,67.7H5v14.6c0,2,1.6,3.6,3.6,3.6c17.1,0,34.3,0,51.4,0
			V67.7z"/>
		<rect x="52.3" y="67.7" style="fill-rule:evenodd;clip-rule:evenodd;fill:#C4C4C4;" width="7.7" height="18.2"/>
		<path style="fill:#919191;" d="M39.5,15.5c-0.7,0.8-1.8,0.9-2.6,0.2c-0.8-0.6-0.9-1.8-0.2-2.6l4.1-4.8c0.6-0.8,1.8-0.9,2.6-0.2
			c0.8,0.6,0.9,1.8,0.2,2.6L39.5,15.5z"/>
		<path style="fill-rule:evenodd;clip-rule:evenodd;fill:#A5D2FF;" d="M60,40.7c0-2-1.6-3.6-3.6-3.6h-16H25.2H8.6
			c-2,0-3.6,1.6-3.6,3.6v28.8h55V43.9V40.7z"/>
		<polygon style="fill-rule:evenodd;clip-rule:evenodd;fill:#777678;" points="38.2,28.7 33.7,26.2 28.8,25.3 25.2,37.1 40.4,37.1 
					"/>
		<path style="fill-rule:evenodd;clip-rule:evenodd;fill:#F5F5F5;" d="M38.1,14.3L27.1,5c-5.1,6.1-4.4,15.2,1.7,20.3
			c2.7,2.3,6.1,3.4,9.4,3.4c4.1,0,8.1-1.8,10.9-5.1L38.1,14.3z"/>
		<path style="fill-rule:evenodd;clip-rule:evenodd;fill:#78737A;" d="M33.6,85.8c0-5.1-4.1-9.2-9.2-9.2s-9.2,4.1-9.2,9.2
			s4.1,9.2,9.2,9.2S33.6,90.9,33.6,85.8L33.6,85.8z"/>
		<polygon style="fill-rule:evenodd;clip-rule:evenodd;fill:#A5D2FF;" points="88.6,52.7 70.6,52.7 70.6,65.8 95,65.8 		"/>
		<polygon style="fill-rule:evenodd;clip-rule:evenodd;fill:#E6E6E6;" points="84.3,43.9 74.7,43.9 79,52.7 88.6,52.7 		"/>
		<polygon style="fill-rule:evenodd;clip-rule:evenodd;fill:#93C0ED;" points="88.6,52.7 79,52.7 85.4,65.8 95,65.8 		"/>
		<polygon style="fill-rule:evenodd;clip-rule:evenodd;fill:#E6E6E6;" points="95,65.8 85.4,65.8 85.4,85.8 95,85.8 95,75.1 		"/>
		<path style="fill-rule:evenodd;clip-rule:evenodd;fill:#78737A;" d="M77.3,76.7c-5.1,0-9.2,4.1-9.2,9.2s4.1,9.2,9.2,9.2
			c5.1,0,9.2-4.1,9.2-9.2S82.3,76.7,77.3,76.7L77.3,76.7z"/>
		<path style="fill-rule:evenodd;clip-rule:evenodd;fill:#93C0ED;" d="M60,40.7c0-2-1.6-3.6-3.6-3.6h-7.7c2,0,3.6,1.6,3.6,3.6v28.8
			H60V43.9V40.7z"/>
		<path style="fill-rule:evenodd;clip-rule:evenodd;fill:#E6E6E6;" d="M43.9,19.2c-5.3,4.8-13.4,5-18.9,0.3
			c-0.1-0.1-0.3-0.2-0.4-0.4c0.8,2.3,2.3,4.5,4.3,6.2c2.7,2.3,6.1,3.4,9.4,3.4c4.1,0,8.1-1.8,10.9-5.1L43.9,19.2z"/>
		<path style="fill-rule:evenodd;clip-rule:evenodd;fill:#5D595E;" d="M33.6,85.8c0-5.1-4.1-9.2-9.2-9.2c-1,0-2,0.2-2.9,0.5
			c3.6,1.2,6.3,4.6,6.3,8.7s-2.6,7.5-6.3,8.7c0.9,0.3,1.9,0.5,2.9,0.5C29.5,95,33.6,90.9,33.6,85.8L33.6,85.8z"/>
		<path style="fill-rule:evenodd;clip-rule:evenodd;fill:#5D595E;" d="M85.4,81.5c-1.5-2.9-4.6-4.9-8.1-4.9c-1,0-2,0.2-2.9,0.5
			c3.6,1.2,6.3,4.6,6.3,8.7s-2.6,7.5-6.3,8.7c0.9,0.3,1.9,0.5,2.9,0.5c5.1,0,9.2-4.1,9.2-9.2C86.4,84.3,86,82.8,85.4,81.5L85.4,81.5
			z"/>
		<path style="fill:#CECDCF;" d="M77.3,87.7c-1,0-1.8-0.8-1.8-1.8s0.8-1.8,1.8-1.8h0.1c1,0,1.8,0.8,1.8,1.8S78.4,87.7,77.3,87.7
			L77.3,87.7z"/>
		<path style="fill:#FFFFFF;" d="M17.7,49.6c-1,0-1.8-0.8-1.8-1.8c0-1,0.8-1.8,1.8-1.8H29c1,0,1.8,0.8,1.8,1.8c0,1-0.8,1.8-1.8,1.8
			h-3.8v10.6c0,1-0.8,1.8-1.8,1.8c-1,0-1.8-0.8-1.8-1.8V49.6H17.7z"/>
		<path style="fill:#FFFFFF;" d="M34.3,48.5c-0.4-0.9,0-2,0.9-2.4c0.9-0.4,2,0,2.4,0.9l4,8.7l4-8.7c0.4-0.9,1.5-1.3,2.4-0.9
			c0.9,0.4,1.3,1.5,0.9,2.4l-5.6,12.4c-0.2,0.4-0.5,0.7-0.9,0.9c-0.9,0.4-2,0-2.4-0.9L34.3,48.5z"/>
		<path style="fill:#CECDCF;" d="M24.4,87.7c-1,0-1.8-0.8-1.8-1.8s0.8-1.8,1.8-1.8h0.1c1,0,1.8,0.8,1.8,1.8S25.5,87.7,24.4,87.7
			L24.4,87.7z"/>
	</g>
</g>
</svg>
