<?xml version="1.0" encoding="iso-8859-1"?>
<!-- Generator: Adobe Illustrator 23.0.5, SVG Export Plug-In . SVG Version: 6.00 Build 0)  -->
<svg version="1.1" xmlns="http://www.w3.org/2000/svg" xmlns:xlink="http://www.w3.org/1999/xlink" x="0px" y="0px"
	 viewBox="0 0 100 100" style="enable-background:new 0 0 100 100;" xml:space="preserve">
<g id="Layer_1">
</g>
<g id="Layer_2">
</g>
<g id="Layer_3">
</g>
<g id="Layer_4">
</g>
<g id="Layer_5">
</g>
<g id="Layer_6">
</g>
<g id="Layer_7">
</g>
<g id="Layer_8">
</g>
<g id="Layer_9">
</g>
<g id="Layer_10">
</g>
<g id="Layer_11">
</g>
<g id="Layer_12">
</g>
<g id="Layer_13">
</g>
<g id="Layer_14">
</g>
<g id="Layer_15">
</g>
<g id="Layer_16">
</g>
<g id="Layer_17">
</g>
<g id="Layer_18">
</g>
<g id="Layer_19">
</g>
<g id="Layer_20">
</g>
<g id="Layer_21">
</g>
<g id="Layer_22">
</g>
<g id="Layer_23">
</g>
<g id="Layer_24">
</g>
<g id="Layer_25">
</g>
<g id="Layer_26">
</g>
<g id="Layer_27">
</g>
<g id="Layer_28">
</g>
<g id="Layer_29">
</g>
<g id="Layer_30">
</g>
<g id="Layer_31">
</g>
<g id="Layer_32">
</g>
<g id="Layer_35">
	<g id="Layer_34">
	</g>
	<g id="Layer_33">
	</g>
	<g>
		<path style="fill-rule:evenodd;clip-rule:evenodd;fill:#F16C79;" d="M42.7,63.1l-5.8-9l-8.2,2.4c-5.6,1.6-9.4,5.4-9.4,12.5v20.6
			h10.6c13.5,0,27,0,40.5,0h10.5V69c0-7.1-3.9-10.9-9.4-12.5l-8.2-2.4l-5.8,9H42.7z"/>
		<path style="fill-rule:evenodd;clip-rule:evenodd;fill:#E26572;" d="M80.8,89.6V69c0-7.1-3.9-10.9-9.4-12.5l-2.9-0.9
			c4.1,2,6.8,5.6,6.8,11.5v22.5H80.8z"/>
		<path style="fill-rule:evenodd;clip-rule:evenodd;fill:#FFC8B1;" d="M38.2,31.8v-7.2h-4.4c-0.2,0-0.5,0-0.7,0.1
			c-2.2,0.3-3.9,2.2-3.9,4.5c0,2.5,2.1,4.6,4.6,4.6h4.6C38.2,33.1,38.2,32.4,38.2,31.8L38.2,31.8z"/>
		<path style="fill-rule:evenodd;clip-rule:evenodd;fill:#FFC8B1;" d="M57.8,51.5V41.1c-2.2,1.5-4.9,2.4-7.8,2.4
			c-2.9,0-5.6-0.9-7.8-2.4v10.4l7.8,7.2L57.8,51.5z"/>
		<path style="fill-rule:evenodd;clip-rule:evenodd;fill:#FFDDCE;" d="M57.8,42.9c3.1-2.1,5.2-5.4,5.8-9.2c0.1-0.6,0.1-1.3,0.1-1.9
			V15.3H53.4c-8.4,0-5.8,0-14.1,0h-2.9h0v16.4c0,0.6,0,1.3,0.1,1.9c0.5,3.8,2.7,7.1,5.8,9.2c2.2,1.5,4.9,2.4,7.8,2.4
			C52.9,45.4,55.6,44.5,57.8,42.9L57.8,42.9z"/>
		<path style="fill-rule:evenodd;clip-rule:evenodd;fill:#FFC8B1;" d="M66.3,33.7c2.5,0,4.6-2.1,4.6-4.6c0-2.3-1.7-4.2-3.9-4.5
			c-0.2,0-0.5-0.1-0.7-0.1h-4.5v7.2c0,0.7,0,1.3-0.1,1.9H66.3z"/>
		<path style="fill-rule:evenodd;clip-rule:evenodd;fill:#D87E49;" d="M67,21.9C67,12.6,59.4,5,50,5c-9.3,0-17,7.5-17,16.9v2.8
			c0.2,0,0.5-0.1,0.7-0.1h2.6h0h2.9c3.9,0,7.1-3.2,7.1-7.1c0,3.9,3.2,7.1,7.1,7.1h10.3h2.6c0.2,0,0.5,0,0.7,0.1V21.9z"/>
		<polygon style="fill-rule:evenodd;clip-rule:evenodd;fill:#F5F5F5;" points="50,56.8 42.2,49.6 36.9,54.1 42.7,63.1 57.3,63.1 
			63.1,54.1 57.8,49.6 		"/>
		<path style="fill-rule:evenodd;clip-rule:evenodd;fill:#8B898C;" d="M57.3,63.1c-0.4-3.5-3.5-6.3-7.3-6.3c-3.8,0-6.9,2.7-7.3,6.3
			c0,0.3,0,0.5,0,0.8c0,2.4,1.3,4.6,3.2,5.9h8.3c1.9-1.3,3.2-3.4,3.2-5.9C57.3,63.6,57.3,63.3,57.3,63.1L57.3,63.1z"/>
		<path style="fill-rule:evenodd;clip-rule:evenodd;fill:#A5D2FF;" d="M61.1,78.6v-5.9c0-1.6-1.1-3-2.4-3h-4.6h-8.3h-4.6
			c-1.3,0-2.4,1.3-2.4,3v5.9c0,1.6,1.1,3,2.4,3h2.4h1.5h9.7h1.5h2.3C60,81.5,61.1,80.2,61.1,78.6L61.1,78.6z"/>
		<path style="fill-rule:evenodd;clip-rule:evenodd;fill:#8B898C;" d="M54.8,85.9v-4.4h-9.7v4.4v3.7v0.5v0c0,2.6,2.2,4.8,4.8,4.8
			s4.8-2.2,4.8-4.8v-0.5V85.9z"/>
		<path style="fill-rule:evenodd;clip-rule:evenodd;fill:#777678;" d="M54.1,69.7c1.9-1.3,3.2-3.4,3.2-5.9c0-0.3,0-0.5,0-0.8
			c-0.4-3.5-3.5-6.3-7.3-6.3c-1,0-1.9,0.2-2.8,0.5c2.7,1.1,4.6,3.6,4.6,6.6c0,2.4-1.3,4.6-3.2,5.9h4.6H54.1z"/>
		<path style="fill-rule:evenodd;clip-rule:evenodd;fill:#93C0ED;" d="M61.1,78.6v-5.9c0-1.6-1.1-3-2.4-3h-4.6h-1
			c1.3,0,2.4,1.3,2.4,3v5.9c0,1.6-1.1,3-2.4,3h1.7h1.5h2.3C60,81.5,61.1,80.2,61.1,78.6L61.1,78.6z"/>
		<path style="fill-rule:evenodd;clip-rule:evenodd;fill:#777678;" d="M54.8,85.9v-4.4h-1.7h-2.4h-1.5v8.6c0,1.6-0.8,3.1-2.1,3.9
			C48,94.7,49,95,50,95c2.7,0,4.8-2.2,4.8-4.8v-0.5V85.9z"/>
		<path style="fill-rule:evenodd;clip-rule:evenodd;fill:#B3673B;" d="M67,21.9C67,12.6,59.4,5,50,5c-1.3,0-2.5,0.1-3.7,0.4
			c7.6,1.7,13.3,8.4,13.3,16.5v2.7h4h2.6c0.2,0,0.5,0,0.7,0.1V21.9z"/>
		<path style="fill-rule:evenodd;clip-rule:evenodd;fill:#F5C1AB;" d="M63.7,31.8v-7.2h-4h-3.3v7.2c0,6.2-4.3,11.5-10,13.1
			c1.2,0.3,2.4,0.5,3.7,0.5c2.9,0,5.6-0.9,7.8-2.4c3.1-2.1,5.2-5.4,5.8-9.2C63.6,33.1,63.7,32.4,63.7,31.8L63.7,31.8z"/>
		<path style="fill:#E26572;" d="M31.6,89.6h-3.7v-14c0-1,0.8-1.8,1.8-1.8c1,0,1.8,0.8,1.8,1.8V89.6z"/>
		<path style="fill:#E26572;" d="M72.1,89.6h-3.7v-14c0-1,0.8-1.8,1.8-1.8s1.8,0.8,1.8,1.8V89.6z"/>
	</g>
</g>
</svg>
