<?xml version="1.0" encoding="iso-8859-1"?>
<!-- Generator: Adobe Illustrator 23.0.5, SVG Export Plug-In . SVG Version: 6.00 Build 0)  -->
<svg version="1.1" xmlns="http://www.w3.org/2000/svg" xmlns:xlink="http://www.w3.org/1999/xlink" x="0px" y="0px"
	 viewBox="0 0 100 100" style="enable-background:new 0 0 100 100;" xml:space="preserve">
<g id="Layer_1">
</g>
<g id="Layer_2">
</g>
<g id="Layer_3">
</g>
<g id="Layer_4">
</g>
<g id="Layer_5">
</g>
<g id="Layer_6">
</g>
<g id="Layer_7">
</g>
<g id="Layer_8">
</g>
<g id="Layer_9">
</g>
<g id="Layer_10">
</g>
<g id="Layer_11">
</g>
<g id="Layer_12">
</g>
<g id="Layer_13">
</g>
<g id="Layer_14">
</g>
<g id="Layer_15">
</g>
<g id="Layer_16">
</g>
<g id="Layer_17">
</g>
<g id="Layer_18">
</g>
<g id="Layer_19">
</g>
<g id="Layer_20">
</g>
<g id="Layer_21">
</g>
<g id="Layer_22">
</g>
<g id="Layer_23">
</g>
<g id="Layer_24">
</g>
<g id="Layer_25">
</g>
<g id="Layer_26">
</g>
<g id="Layer_27">
</g>
<g id="Layer_28">
</g>
<g id="Layer_29">
</g>
<g id="Layer_30">
</g>
<g id="Layer_31">
</g>
<g id="Layer_32">
</g>
<g id="Layer_35">
	<g id="Layer_34">
	</g>
	<g id="Layer_33">
	</g>
	<g>
		<polygon style="fill-rule:evenodd;clip-rule:evenodd;fill:#F5F5F5;" points="68,5 5.5,5 5.4,81.5 68,81.5 		"/>
		<rect x="14.3" y="14.2" style="fill-rule:evenodd;clip-rule:evenodd;fill:#95D528;" width="44.8" height="9.4"/>
		<polygon style="fill-rule:evenodd;clip-rule:evenodd;fill:#E6E6E6;" points="68,81.5 68,5 59.1,5 59.1,14.2 59.1,23.6 59.1,81.5 
					"/>
		<rect x="49.4" y="14.2" style="fill-rule:evenodd;clip-rule:evenodd;fill:#87C221;" width="9.7" height="9.4"/>
		<path style="fill:#919191;" d="M14.3,54.7c-1.1,0-1.9-0.9-1.9-1.9c0-1.1,0.9-1.9,1.9-1.9h13.2c1.1,0,1.9,0.9,1.9,1.9
			c0,1.1-0.9,1.9-1.9,1.9H14.3z"/>
		<path style="fill:#919191;" d="M14.3,64.5c-1.1,0-1.9-0.9-1.9-1.9s0.9-1.9,1.9-1.9h12.2c1.1,0,1.9,0.9,1.9,1.9s-0.9,1.9-1.9,1.9
			H14.3z"/>
		<path style="fill:#919191;" d="M14.3,74.3c-1.1,0-1.9-0.9-1.9-1.9s0.9-1.9,1.9-1.9h12.2c1.1,0,1.9,0.9,1.9,1.9s-0.9,1.9-1.9,1.9
			H14.3z"/>
		<path style="fill:#919191;" d="M14.3,35.1c-1.1,0-1.9-0.9-1.9-1.9c0-1.1,0.9-1.9,1.9-1.9h4.6c1.1,0,1.9,0.9,1.9,1.9
			c0,1.1-0.9,1.9-1.9,1.9H14.3z M26.4,35.1c-1.1,0-1.9-0.9-1.9-1.9c0-1.1,0.9-1.9,1.9-1.9h13.9c1.1,0,1.9,0.9,1.9,1.9
			c0,1.1-0.9,1.9-1.9,1.9H26.4z"/>
		<path style="fill:#919191;" d="M14.3,44.9c-1.1,0-1.9-0.9-1.9-1.9s0.9-1.9,1.9-1.9h17c1.1,0,1.9,0.9,1.9,1.9s-0.9,1.9-1.9,1.9
			H14.3z"/>
		<path style="fill-rule:evenodd;clip-rule:evenodd;fill:#FFE07D;" d="M94.6,64.9C94.6,49.5,83,36.8,68,35.1
			c-1.1-0.1-2.3-0.2-3.5-0.2c-16.6,0-30.1,13.5-30.1,30.1c0,6.1,1.8,11.9,5,16.6C44.9,89.7,54.1,95,64.5,95
			C81.1,95,94.6,81.5,94.6,64.9L94.6,64.9z"/>
		<path style="fill-rule:evenodd;clip-rule:evenodd;fill:#FFFFFF;" d="M67.8,47.5c0-2.4-2-4.4-4.4-4.4c-2.5,0-4.4,2-4.4,4.4
			c0,2.4,2,4.4,4.4,4.4C65.8,52,67.8,50,67.8,47.5L67.8,47.5z"/>
		<polygon style="fill-rule:evenodd;clip-rule:evenodd;fill:#FFFFFF;" points="74.2,83.1 74.2,76.3 69.4,76.3 69.4,59.6 55.6,59.6 
			55.6,66.5 60.5,66.5 60.5,76.3 55.7,76.3 55.7,83.1 		"/>
		<path style="fill-rule:evenodd;clip-rule:evenodd;fill:#F2D574;" d="M64.5,95c16.6,0,30.1-13.5,30.1-30.1
			C94.6,49.5,83,36.8,68,35.1c-1.1-0.1-2.3-0.2-3.5-0.2c-1.7,0-3.3,0.1-4.8,0.4C74,37.6,84.9,50,84.9,64.9c0,15-10.9,27.4-25.2,29.7
			C61.3,94.9,62.9,95,64.5,95L64.5,95z"/>
	</g>
</g>
</svg>
