<svg id="Capa_1" enable-background="new 0 0 512.002 512.002" height="512" viewBox="0 0 512.002 512.002" width="512" xmlns="http://www.w3.org/2000/svg"><g><path d="m277.699 30c-4.142 0-7.5 3.358-7.5 7.5v22.78h-28.396v-22.78c0-4.142-3.358-7.5-7.5-7.5s-7.5 3.358-7.5 7.5v62.71c0 4.142 3.358 7.5 7.5 7.5s7.5-3.358 7.5-7.5v-24.93h28.396v24.931c0 4.142 3.358 7.5 7.5 7.5s7.5-3.358 7.5-7.5v-62.711c0-4.142-3.358-7.5-7.5-7.5z"/><path d="m511.922 503.412c-2.549-17.388-7.491-37.148-13.219-52.858-9.874-27.081-17.677-30.554-23.372-30.554-7.979 0-14.765 8.303-22.004 26.921-2.028 5.215-3.981 10.986-5.792 17.064-1.811-6.078-3.765-11.849-5.793-17.064-7.24-18.618-14.026-26.921-22.005-26.921-2.163 0-4.227.62-6.235 1.863v-70.02c0-4.142-3.358-7.5-7.5-7.5s-7.5 3.358-7.5 7.5v8.157h-85v-45h85v6.843c0 4.142 3.358 7.5 7.5 7.5s7.5-3.358 7.5-7.5v-306.843c0-8.271-6.729-15-15-15h-285c-8.271 0-15 6.729-15 15v34.855c0 4.142 3.358 7.5 7.5 7.5s7.5-3.358 7.5-7.5v-4.855h85v45h-85v-10.145c0-4.142-3.358-7.5-7.5-7.5s-7.5 3.358-7.5 7.5v342.008c-2.009-1.243-4.073-1.863-6.236-1.863-7.979 0-14.765 8.303-22.004 26.921-2.028 5.215-3.982 10.986-5.793 17.064-1.811-6.078-3.765-11.849-5.792-17.064-7.24-18.618-14.027-26.921-22.006-26.921-5.695 0-13.498 3.473-23.372 30.553-5.729 15.71-10.67 35.47-13.219 52.858-.601 4.099 2.235 7.908 6.333 8.509.369.054.735.08 1.097.08 3.661 0 6.865-2.684 7.412-6.413 2.212-15.094 6.29-31.956 11.187-46.263 4.6-13.438 8.442-20.191 10.609-23.045 5.254 6.773 14.63 30.652 20.109 59.836-1.264.441-2.529.881-3.774 1.331-3.896 1.408-5.912 5.707-4.504 9.603 1.409 3.895 5.708 5.913 9.603 4.504 109.098-39.427 286.613-39.427 395.709 0 .842.305 1.703.449 2.549.449 3.07 0 5.95-1.899 7.054-4.953 1.408-3.896-.609-8.195-4.504-9.603-1.248-.451-2.515-.892-3.782-1.334 5.479-29.183 14.855-53.061 20.108-59.833 2.167 2.854 6.009 9.607 10.608 23.045 4.897 14.307 8.975 31.169 11.187 46.263.547 3.729 3.75 6.413 7.412 6.413.362 0 .729-.026 1.097-.08 4.097-.6 6.933-4.409 6.332-8.508zm-198.421-34.329v-29c1.966.297 3.89.608 5.74.941.449.081.896.12 1.336.12 3.561 0 6.721-2.546 7.373-6.174.733-4.077-1.978-7.976-6.055-8.709-2.676-.481-5.489-.922-8.394-1.333v-19.928h85v39.981c-2.266 5.619-4.494 12.111-6.556 19.036-2.435-8.184-5.096-15.715-7.824-22.055-6.534-15.188-12.697-21.962-19.979-21.962-6.943 0-12.798 6.079-18.984 19.709-3.776 8.32-7.544 19.252-10.774 31.206-6.882-.703-13.845-1.316-20.883-1.832zm-123.393-42.824c-4.077.733-6.788 4.632-6.055 8.709s4.632 6.786 8.709 6.055c1.85-.333 3.773-.643 5.739-.941v29.001c-7.037.517-14.001 1.129-20.882 1.833-3.231-11.954-6.999-22.887-10.774-31.207-6.186-13.63-12.041-19.709-18.984-19.709-7.283 0-13.445 6.773-19.979 21.962-2.728 6.34-5.389 13.871-7.824 22.055-2.062-6.925-4.291-13.417-6.556-19.036v-39.981h85v.499c0 4.142 3.358 7.5 7.5 7.5s7.5-3.358 7.5-7.5v-.499h85v18.198c-35.029-3.221-79.11-2.203-108.394 3.061zm23.393-411.259h85v105h-85zm-15 375h-85v-15h85zm15-15h85v15h-85zm-100-165v-15h85v15zm85 15v45h-85v-45zm-85 135v-45h85v45zm0-60v-15h85v15zm100-15h85v15h-85zm0-15v-45h85v45zm100-45h85v45h-85zm0-120h85v15h-85zm85 30v45h-85v-45zm0 60v15h-85v-15zm0-105h-85v-45h85zm-100 45v45h-10.802c-4.142 0-7.5 3.358-7.5 7.5s3.358 7.5 7.5 7.5h10.802v15h-85v-15h44.198c4.142 0 7.5-3.358 7.5-7.5s-3.358-7.5-7.5-7.5h-44.198v-45zm-100 45h-85v-45h85zm-35.966 292.629c-10.427 1.298-20.635 2.813-30.577 4.542 5.541-21.3 11.998-35.955 15.892-40.932 3.449 4.459 9.265 16.946 14.685 36.39zm201.618-36.39c3.893 4.977 10.351 19.632 15.891 40.93-9.942-1.729-20.149-3.243-30.576-4.542 5.42-19.443 11.236-31.929 14.685-36.388zm34.348-61.239v15h-85v-15zm-100-15h-85v-45h85zm15-60v-15h85v15zm85-270h-85v-15h85zm-285 0v-15h85v15zm85 75v15h-85v-15zm-106.241 331.227c4.164 5.343 11.312 21.908 17.019 45.352-12.598 2.723-24.67 5.813-36.123 9.249 5.58-26.825 14.179-48.309 19.104-54.601zm163.746 30.773c-14.355 0-28.552.38-42.504 1.128v-29.88c26.432-2.563 58.568-2.563 85 0v29.88c-13.95-.748-28.145-1.128-42.496-1.128zm146.717 14.577c5.707-23.444 12.854-40.008 17.018-45.351 4.926 6.292 13.524 27.775 19.103 54.599-11.451-3.435-23.523-6.524-36.121-9.248z"/></g></svg>