<svg id="Capa_1" enable-background="new 0 0 512.001 512.001" height="512" viewBox="0 0 512.001 512.001" width="512" xmlns="http://www.w3.org/2000/svg"><g><path d="m37.5 117.71c4.142 0 7.5-3.358 7.5-7.5v-24.931h28.396v24.931c0 4.142 3.358 7.5 7.5 7.5s7.5-3.358 7.5-7.5v-62.71c0-4.142-3.358-7.5-7.5-7.5s-7.5 3.358-7.5 7.5v22.779h-28.396v-22.779c0-4.142-3.358-7.5-7.5-7.5s-7.5 3.358-7.5 7.5v62.71c0 4.142 3.358 7.5 7.5 7.5z"/><path d="m37.5 165.279h43.396c4.142 0 7.5-3.358 7.5-7.5s-3.358-7.5-7.5-7.5h-43.396c-4.142 0-7.5 3.358-7.5 7.5s3.358 7.5 7.5 7.5z"/><path d="m37.5 195.279h43.396c4.142 0 7.5-3.358 7.5-7.5s-3.358-7.5-7.5-7.5h-43.396c-4.142 0-7.5 3.358-7.5 7.5s3.358 7.5 7.5 7.5z"/><path d="m37.5 225.279h43.396c4.142 0 7.5-3.358 7.5-7.5s-3.358-7.5-7.5-7.5h-43.396c-4.142 0-7.5 3.358-7.5 7.5s3.358 7.5 7.5 7.5z"/><path d="m504.5 219.343c4.143 0 7.5-3.358 7.5-7.5s-3.357-7.5-7.5-7.5h-7.5v-45h7.5c4.143 0 7.5-3.358 7.5-7.5s-3.357-7.5-7.5-7.5h-363.604c-4.142 0-7.5 3.358-7.5 7.5s3.358 7.5 7.5 7.5h341.104v45h-15v-22.5c0-4.142-3.357-7.5-7.5-7.5h-45c-4.143 0-7.5 3.358-7.5 7.5v22.5h-15v-22.5c0-4.142-3.357-7.5-7.5-7.5h-30c-4.143 0-7.5 3.358-7.5 7.5v22.5h-15v-22.5c0-4.142-3.357-7.5-7.5-7.5h-45c-4.143 0-7.5 3.358-7.5 7.5v22.5h-15v-22.5c0-4.142-3.358-7.5-7.5-7.5h-30c-4.142 0-7.5 3.358-7.5 7.5v22.5h-15v-22.5c0-4.142-3.358-7.5-7.5-7.5h-45c-4.142 0-7.5 3.358-7.5 7.5v22.5h-18.604v-181.843c0-12.407-10.093-22.5-22.5-22.5h-73.396c-12.406 0-22.5 10.093-22.5 22.5v235.498c0 9.778 6.271 18.114 15 21.21v45.135h-1.054c-4.142 0-7.5 3.358-7.5 7.5s3.358 7.5 7.5 7.5h37.751v15h-37.75c-4.142 0-7.5 3.358-7.5 7.5s3.358 7.5 7.5 7.5h37.751v85.157c0 4.142 3.358 7.5 7.5 7.5s7.5-3.358 7.5-7.5v-115.157h437.802c4.143 0 7.5-3.358 7.5-7.5s-3.357-7.5-7.5-7.5h-7.5v-75h7.5c4.143 0 7.5-3.358 7.5-7.5s-3.357-7.5-7.5-7.5h-7.5v-15zm-82.5-30h30v15h-30zm-60 0h15v15h-15zm0 30h15v15h-15zm-75-30h30v15h-30zm-7.5 30h45 22.5v15h-90v-15zm-52.5 0h15v15h-15zm0-30h15v15h-15zm-75 0h30v15h-30zm-7.5 30h45 22.5v15h-93.604v-15zm-129.5-196.843c0-4.136 3.365-7.5 7.5-7.5h73.396c4.136 0 7.5 3.364 7.5 7.5v235.498c0 4.136-3.364 7.5-7.5 7.5h-73.396c-4.135 0-7.5-3.364-7.5-7.5zm15 301.843v-43.845h21.698v43.845zm36.698-43.845h10.302v43.845h-10.302zm160.302 43.845v-45h15v45zm135 0v-45h15v45zm120-90h-18.739c-4.143 0-7.5 3.358-7.5 7.5s3.357 7.5 7.5 7.5h18.739v75h-90v-52.5c0-4.142-3.357-7.5-7.5-7.5h-30c-4.143 0-7.5 3.358-7.5 7.5v52.5h-90v-52.5c0-4.142-3.358-7.5-7.5-7.5h-30c-4.142 0-7.5 3.358-7.5 7.5v52.5h-90v-27.5c0-4.142-3.358-7.5-7.5-7.5s-7.5 3.358-7.5 7.5v27.5h-15v-43.845h3.896c12.407 0 22.5-10.093 22.5-22.5v-8.655h314.865c4.143 0 7.5-3.358 7.5-7.5s-3.357-7.5-7.5-7.5h-41.261v-15h22.5 45 22.5z"/><path d="m324.5 264.343h-45c-4.143 0-7.5 3.358-7.5 7.5v30c0 4.142 3.357 7.5 7.5 7.5h45c4.143 0 7.5-3.358 7.5-7.5v-30c0-4.142-3.357-7.5-7.5-7.5zm-7.5 30h-30v-15h30z"/><path d="m407 271.843v30c0 4.142 3.357 7.5 7.5 7.5h45c4.143 0 7.5-3.358 7.5-7.5v-30c0-4.142-3.357-7.5-7.5-7.5h-45c-4.142 0-7.5 3.358-7.5 7.5zm15 7.5h30v15h-30z"/><path d="m189.5 264.343h-45c-4.142 0-7.5 3.358-7.5 7.5v30c0 4.142 3.358 7.5 7.5 7.5h45c4.142 0 7.5-3.358 7.5-7.5v-30c0-4.142-3.357-7.5-7.5-7.5zm-7.5 30h-30v-15h30z"/><path d="m117.694 354.343h-28.496c-4.142 0-7.5 3.358-7.5 7.5s3.358 7.5 7.5 7.5h28.496c77.856 0 130.166 17.53 130.166 43.621 0 48.993-123.616 71.871-190.026 84.161-4.073.753-6.764 4.667-6.01 8.739.668 3.612 3.82 6.137 7.366 6.137.453 0 .912-.042 1.373-.127 43.89-8.123 94.003-18.033 133.258-32.898 46.456-17.591 69.039-39.184 69.039-66.012 0-36.707-54.268-58.621-145.166-58.621z"/><path d="m423.155 469.06c-3.152-2.685-7.887-2.304-10.572.849-9.867 11.591-22.767 21.301-32.902 28.466-3.383 2.391-4.187 7.071-1.795 10.454 1.461 2.068 3.777 3.171 6.131 3.171 1.496 0 3.008-.447 4.322-1.376 10.854-7.672 24.716-18.128 35.666-30.992 2.684-3.154 2.304-7.887-.85-10.572z"/><path d="m504.5 354.343h-175.147c-3.93 0-7.193 3.034-7.48 6.953-.286 3.92 2.502 7.396 6.39 7.967 59.218 8.702 95.552 29.057 99.686 55.844 1.173 7.601.525 14.896-1.979 22.301-1.327 3.924.778 8.181 4.702 9.507.797.27 1.606.397 2.403.397 3.127 0 6.046-1.972 7.104-5.099 3.249-9.606 4.122-19.496 2.595-29.395-3.484-22.58-22.023-40.833-53.504-53.477h115.23c4.143 0 7.5-3.358 7.5-7.5s-3.357-7.498-7.5-7.498z"/><path d="m106.889 399.343c4.142 0 7.5-3.358 7.5-7.5s-3.358-7.5-7.5-7.5h-17.69c-4.142 0-7.5 3.358-7.5 7.5s3.358 7.5 7.5 7.5z"/><path d="m154.579 384.343h-17.69c-4.142 0-7.5 3.358-7.5 7.5s3.358 7.5 7.5 7.5h17.69c4.142 0 7.5-3.358 7.5-7.5s-3.358-7.5-7.5-7.5z"/><path d="m151.698 421.843c0 4.142 3.358 7.5 7.5 7.5h17.69c4.142 0 7.5-3.358 7.5-7.5s-3.358-7.5-7.5-7.5h-17.69c-4.142 0-7.5 3.358-7.5 7.5z"/><path d="m224.579 429.343c4.142 0 7.5-3.358 7.5-7.5s-3.358-7.5-7.5-7.5h-17.69c-4.142 0-7.5 3.358-7.5 7.5s3.358 7.5 7.5 7.5z"/><path d="m476.889 414.343h-17.69c-4.143 0-7.5 3.358-7.5 7.5s3.357 7.5 7.5 7.5h17.69c4.143 0 7.5-3.358 7.5-7.5s-3.357-7.5-7.5-7.5z"/><path d="m494.579 384.343h-17.689c-4.143 0-7.5 3.358-7.5 7.5s3.357 7.5 7.5 7.5h17.689c4.143 0 7.5-3.358 7.5-7.5s-3.358-7.5-7.5-7.5z"/></g></svg>