<svg id="Capa_1" enable-background="new 0 0 512.002 512.002" height="512" viewBox="0 0 512.002 512.002" width="512" xmlns="http://www.w3.org/2000/svg"><g><path d="m235.576 105.569c4.143 0 7.5-3.358 7.5-7.5v-24.93h28.396v24.93c0 4.142 3.357 7.5 7.5 7.5s7.5-3.358 7.5-7.5v-62.71c0-4.142-3.357-7.5-7.5-7.5s-7.5 3.358-7.5 7.5v22.78h-28.396v-22.78c0-4.142-3.357-7.5-7.5-7.5s-7.5 3.358-7.5 7.5v62.71c0 4.142 3.358 7.5 7.5 7.5z"/><path d="m504.501 475.057h-29.491v-15h9.491c4.143 0 7.5-3.358 7.5-7.5v-30c0-4.142-3.357-7.5-7.5-7.5h-9.491v-99.946l9.359 5.956c1.213.771 2.611 1.172 4.026 1.172.543 0 1.089-.059 1.627-.179 1.942-.432 3.633-1.617 4.7-3.295l16.105-25.31c2.225-3.495 1.194-8.13-2.301-10.354l-30.391-19.339c-3.255-2.849-27.687-24.795-40.555-52.031 5.578-1.423 13.018-3.584 20.135-6.471 2.431-.986 4.17-3.171 4.586-5.761s-.553-5.21-2.553-6.907c-.295-.25-27.185-23.286-40.914-52.344 5.578-1.423 13.019-3.584 20.136-6.471 2.238-.908 3.901-2.84 4.47-5.188.567-2.348-.031-4.828-1.608-6.658-.335-.39-33.829-39.657-54.264-95.08-1.087-2.947-3.896-4.905-7.037-4.905s-5.95 1.958-7.037 4.905c-20.436 55.423-53.929 94.69-54.262 95.078-1.579 1.83-2.179 4.309-1.612 6.658.567 2.35 2.231 4.282 4.472 5.19 7.116 2.887 14.555 5.047 20.132 6.471-1.432 3.028-3.056 6.099-4.861 9.188-2.091 3.576-.887 8.17 2.689 10.26 3.576 2.089 8.169.887 10.26-2.69 3.845-6.576 6.98-13.131 9.322-19.482.762-2.067.575-4.365-.508-6.283-1.084-1.918-2.957-3.263-5.12-3.678-.104-.02-7.74-1.5-16.664-4.28 9.725-12.757 28.095-39.098 43.189-73.746 15.094 34.648 33.465 60.989 43.189 73.746-8.924 2.78-16.562 4.26-16.662 4.279-2.165.414-4.038 1.758-5.123 3.677-1.084 1.919-1.271 4.217-.508 6.285 9.187 24.913 27.957 46.357 39.312 57.769-8.16 2.44-14.841 3.735-14.936 3.753-2.165.414-4.038 1.758-5.123 3.677-1.084 1.918-1.271 4.217-.508 6.285 3.505 9.506 8.41 18.498 13.762 26.63l-146.35-93.13c-2.105-15.55-15.468-27.574-31.586-27.574s-29.48 12.024-31.586 27.574l-144.514 91.962c-3.495 2.224-4.525 6.859-2.301 10.354 2.223 3.496 6.86 4.523 10.354 2.301l147.702-93.99c2.163-1.377 3.474-3.763 3.474-6.328 0-9.305 7.57-16.875 16.875-16.875s16.875 7.57 16.875 16.875c0 2.564 1.311 4.951 3.474 6.328l217.798 138.595-8.053 12.655-68.666-43.695c-3.493-2.222-8.131-1.194-10.354 2.301-2.225 3.495-1.194 8.13 2.301 10.354l10.547 6.711h-136.09c-4.143 0-7.5 3.358-7.5 7.5v37.5h-45v-30h22.5c4.143 0 7.5-3.358 7.5-7.5s-3.357-7.5-7.5-7.5h-161.756l47.144-30h233.557l11.597 7.38c3.493 2.224 8.131 1.194 10.354-2.301 2.225-3.495 1.194-8.13-2.301-10.354l-132.401-84.254c-2.457-1.563-5.596-1.563-8.053 0l-226.068 143.858-8.053-12.655 48.031-30.564c3.495-2.224 4.525-6.859 2.301-10.354-2.223-3.496-6.86-4.523-10.354-2.301l-54.357 34.591c-3.495 2.224-4.525 6.859-2.301 10.354l16.105 25.31c1.067 1.678 2.758 2.863 4.7 3.295.538.12 1.084.179 1.627.179 1.415 0 2.813-.401 4.026-1.172l9.359-5.956v99.946h-9.491c-4.143 0-7.5 3.358-7.5 7.5v30c0 4.142 3.357 7.5 7.5 7.5h9.491v15h-29.49c-4.143 0-7.5 3.358-7.5 7.5s3.357 7.5 7.5 7.5h497c4.143 0 7.5-3.358 7.5-7.5s-3.357-7.501-7.5-7.501zm-44.491 0h-15v-15h15zm16.991-30h-203.168c-4.143 0-7.5 3.358-7.5 7.5s3.357 7.5 7.5 7.5h156.177v15h-178.677v-22.5c0-4.142-3.357-7.5-7.5-7.5h-2.5v-15h235.668zm-370.668 15v15h-24.341v-15zm-54.341-120h74.341v30h-74.341zm174.341 90v15h-95v-15zm-105 30h115v15h-115zm110-45v-30h228.677v30zm165-90h-45v-30h45zm0 15v30h-45v-30zm-60 30h-45v-30h45zm123.677-64.491v19.491h-26.177c-4.143 0-7.5 3.358-7.5 7.5s3.357 7.5 7.5 7.5h26.177v30h-48.677v-75h32.162zm-168.677-10.509h45v30h-45zm-15 45v30h-45v-30zm-60 75h-75v-120h75zm-53.539-180 47.144-30h92.125l47.144 30zm93.207-59.312 22.491 14.312h-44.982zm-187.494 119.312h57.827v30h-74.342v-19.491zm-16.515 90h74.341v30h-74.341zm-16.991 45h81.332v15h-81.332zm16.991 30h15v15h-15z"/></g></svg>