<svg id="Capa_1" enable-background="new 0 0 512 512" height="512" viewBox="0 0 512 512" width="512" xmlns="http://www.w3.org/2000/svg"><g><path d="m504.5 289.793c4.143 0 7.5-3.358 7.5-7.5v-187.306c0-.835-.163-5.217-3.375-9.5-2.737-3.649-8.277-8-19.125-8s-16.388 4.351-19.125 8c-3.212 4.283-3.375 8.665-3.375 9.5v57.112h-95.35c-.396-1.816-1.238-4.229-3.025-6.612-2.737-3.649-8.277-8-19.125-8s-16.388 4.351-19.125 8c-1.787 2.384-2.629 4.796-3.025 6.612h-185.193c.355-1.698.58-3.546.58-5.595 0-16.633-14.809-34.405-56.369-34.405-19.011 0-32.409 3.725-41.368 9.352v-26.464c0-.835-.163-5.217-3.375-9.5-2.737-3.649-8.277-8-19.125-8s-16.388 4.351-19.125 8c-3.212 4.283-3.375 8.665-3.375 9.5v114.612c0 4.142 3.357 7.5 7.5 7.5s7.5-3.358 7.5-7.5v-114.326c.315-1.696 3.237-2.787 7.5-2.787s7.185 1.09 7.5 2.787v376.826h-15v-232.5c0-4.142-3.357-7.5-7.5-7.5s-7.5 3.358-7.5 7.5v240c0 4.142 3.357 7.5 7.5 7.5h30c4.143 0 7.5-3.358 7.5-7.5v-32.5h171.377c4.143 0 7.5-3.358 7.5-7.5s-3.357-7.5-7.5-7.5h-171.377v-25h282v25h-80.623c-4.143 0-7.5 3.358-7.5 7.5s3.357 7.5 7.5 7.5h80.623v32.5c0 4.142 3.357 7.5 7.5 7.5h30c4.143 0 7.5-3.358 7.5-7.5v-32.5h95v32.5c0 4.142 3.357 7.5 7.5 7.5h30c4.143 0 7.5-3.358 7.5-7.5v-167.306c0-4.142-3.357-7.5-7.5-7.5s-7.5 3.358-7.5 7.5v159.806h-15v-376.826c.315-1.696 3.237-2.787 7.5-2.787s7.185 1.09 7.5 2.787v187.02c0 4.142 3.357 7.5 7.5 7.5zm-489.5-194.573v-.233s.01.084 0 .233zm357 176.879v-25h95v25zm95 15v25h-95v-25zm-95 40h95v25h-95zm95-95h-95v-25h95zm-95 135h95v25h-95zm95-175h-95v-25h95zm-125-37.112s.01.084 0 .233zm-199.843 197.112c.355-1.698.58-3.546.58-5.595 0-16.633-14.809-34.405-56.369-34.405-19.011 0-32.409 3.725-41.368 9.352v-74.352h282v105zm6.197-185v25h-103.354v-25zm178.646 65h-282v-25h258.5c4.143 0 7.5-3.358 7.5-7.5s-3.357-7.5-7.5-7.5h-140.146v-25h163.646zm-282 114.405c0-11.607 16.625-19.405 41.368-19.405 24.744 0 41.369 7.798 41.369 19.405 0 2.716-.783 4.512-1.507 5.595h-81.23zm41.368-219.405c24.744 0 41.369 7.798 41.369 19.405 0 2.716-.783 4.512-1.507 5.595h-81.23v-5.595c0-11.607 16.625-19.405 41.368-19.405zm-56.368-32.112v.233c-.01-.149 0-.233 0-.233zm15 272.112h103.354v25h-103.354zm118.354 25v-25h163.646v25zm193.646 80h-15v-316.826c.315-1.696 3.237-2.787 7.5-2.787s7.185 1.09 7.5 2.787zm0-316.879c-.01-.148 0-.233 0-.233zm15 276.879v-25h95v25zm110-336.879v-.233s.01.084 0 .233zm15-.233v.233c-.01-.149 0-.233 0-.233z"/><path d="m335.575 102.611c4.143 0 7.5-3.358 7.5-7.5v-24.93h28.396v24.93c0 4.142 3.357 7.5 7.5 7.5s7.5-3.358 7.5-7.5v-62.71c0-4.142-3.357-7.5-7.5-7.5s-7.5 3.358-7.5 7.5v22.78h-28.396v-22.78c0-4.142-3.357-7.5-7.5-7.5s-7.5 3.358-7.5 7.5v62.71c0 4.142 3.358 7.5 7.5 7.5z"/></g></svg>