<svg id="Capa_1" enable-background="new 0 0 512 512" height="512" viewBox="0 0 512 512" width="512" xmlns="http://www.w3.org/2000/svg"><g><path d="m504.5 497h-99.5v-135h67.5c12.406 0 22.5-10.093 22.5-22.5v-120c0-12.407-10.094-22.5-22.5-22.5h-67.5v-134.5c0-12.407-10.094-22.5-22.5-22.5h-97.5v-17.5c0-12.407-10.094-22.5-22.5-22.5h-60c-12.406 0-22.5 10.093-22.5 22.5v17.5h-29.46c-4.143 0-7.5 3.358-7.5 7.5s3.357 7.5 7.5 7.5h231.96c4.136 0 7.5 3.364 7.5 7.5v177c0 4.142 3.357 7.5 7.5 7.5s7.5-3.358 7.5-7.5v-27.5h67.5c4.136 0 7.5 3.364 7.5 7.5v120c0 4.136-3.364 7.5-7.5 7.5h-67.5v-77.5c0-4.142-3.357-7.5-7.5-7.5s-7.5 3.358-7.5 7.5v227.5h-15v-419.5c0-4.142-3.357-7.5-7.5-7.5h-270c-4.143 0-7.5 3.358-7.5 7.5v419.5h-15v-434.5c0-4.136 3.364-7.5 7.5-7.5h38.04c4.143 0 7.5-3.358 7.5-7.5s-3.357-7.5-7.5-7.5h-38.04c-12.406 0-22.5 10.093-22.5 22.5v434.5h-52.5c-4.143 0-7.5 3.358-7.5 7.5s3.357 7.5 7.5 7.5h497c4.143 0 7.5-3.358 7.5-7.5s-3.357-7.5-7.5-7.5zm-309.5-474.5c0-4.136 3.364-7.5 7.5-7.5h60c4.136 0 7.5 3.364 7.5 7.5v16.5h-75zm-90 62.5h120v313.757c0 4.142 3.357 7.5 7.5 7.5s7.5-3.358 7.5-7.5v-313.757h120v412h-120v-68.243c0-4.142-3.357-7.5-7.5-7.5s-7.5 3.358-7.5 7.5v68.243h-120z"/><path d="m442.5 272c4.143 0 7.5-3.358 7.5-7.5v-11.893l2.196 2.196c1.465 1.464 3.385 2.197 5.304 2.197s3.839-.732 5.304-2.197c2.929-2.929 2.929-7.678 0-10.606l-15-15c-2.93-2.929-7.678-2.929-10.607 0l-15 15c-2.929 2.929-2.929 7.678 0 10.606 2.93 2.929 7.678 2.929 10.607 0l2.196-2.196v11.893c0 4.142 3.357 7.5 7.5 7.5z"/><path d="m422.196 314.803 15 15c1.465 1.464 3.385 2.197 5.304 2.197s3.839-.732 5.304-2.197l15-15c2.929-2.929 2.929-7.678 0-10.606-2.93-2.929-7.678-2.929-10.607 0l-2.197 2.196v-11.893c0-4.142-3.357-7.5-7.5-7.5s-7.5 3.358-7.5 7.5v11.893l-2.196-2.196c-2.93-2.929-7.678-2.929-10.607 0-2.929 2.928-2.929 7.678-.001 10.606z"/></g></svg>