<svg id="Capa_1" enable-background="new 0 0 512 512" height="512" viewBox="0 0 512 512" width="512" xmlns="http://www.w3.org/2000/svg"><g><path d="m398.383 177.652v-35.974c6.222-.037 15.522-.086 20.345-.086 20.001 0 36.272-16.024 36.272-35.72s-16.271-35.72-36.272-35.72h-27.845c-4.143 0-7.5 3.358-7.5 7.5v100c0 4.142 3.357 7.5 7.5 7.5s7.5-3.358 7.5-7.5zm0-92.5h20.345c11.531 0 21.272 9.489 21.272 20.72s-9.741 20.72-21.272 20.72c-4.833 0-14.104.049-20.345.086z"/><path d="m489.5 30.152h-150c-12.406 0-22.5 10.093-22.5 22.5v72.179c-45.848-6.765-110.689-8.683-169.005-4.663-4.133.285-7.251 3.866-6.967 7.998.286 4.132 3.864 7.24 7.998 6.967 64.72-4.461 140.396-1.288 184.03 7.717 8.532 1.761 15.324 8.411 17.303 16.941l.45 1.94c-64.485-18.259-216.944-18.259-281.429 0l.45-1.94c1.978-8.531 8.77-15.181 17.303-16.941 10.041-2.072 21.817-3.865 35.005-5.329 4.117-.457 7.084-4.165 6.627-8.281s-4.151-7.088-8.281-6.627c-13.647 1.515-25.889 3.38-36.382 5.546-14.25 2.94-25.588 14.026-28.884 28.243l-24.783 106.872-21.848 39.069c-5.617 10.045-8.587 21.437-8.587 32.946v65.035c0 19.096 17.176 28.797 35.42 34.304v24.721c0 12.407 10.094 22.5 22.5 22.5h30c12.406 0 22.5-10.093 22.5-22.5v-13.997c26.751 1.669 59.607 2.472 99.675 2.472 40.067 0 72.923-.803 99.674-2.472v13.997c0 12.407 10.094 22.5 22.5 22.5h30c12.406 0 22.5-10.093 22.5-22.5v-24.721c18.245-5.507 35.421-15.208 35.421-34.304v-65.035c0-11.509-2.97-22.901-8.587-32.946l-21.846-39.066-24.784-106.875c-3.298-14.217-14.635-25.303-28.884-28.243-1.335-.276-2.702-.545-4.088-.81v-74.697c0-4.136 3.364-7.5 7.5-7.5h150c4.136 0 7.5 3.364 7.5 7.5v150c0 4.136-3.364 7.5-7.5 7.5h-88.024c-4.143 0-7.5 3.358-7.5 7.5s3.357 7.5 7.5 7.5h88.023c12.406 0 22.5-10.093 22.5-22.5v-150c0-12.407-10.094-22.5-22.5-22.5zm-279.405 132.967c62.667 0 118.515 6.082 144.657 15.614l18.5 79.773h-87.041c-4.143 0-7.5 3.358-7.5 7.5s3.357 7.5 7.5 7.5h92.079l16.546 29.587-33.786 18.722c-2.442 1.353-4.778 2.71-7.025 4.073-31.013 4.729-76.82 6.936-143.93 6.936s-112.919-2.207-143.932-6.936c-2.247-1.363-4.583-2.719-7.024-4.072l-33.785-18.722 16.546-29.587h214.312c4.143 0 7.5-3.358 7.5-7.5s-3.357-7.5-7.5-7.5h-209.274l18.5-79.773c26.141-9.532 81.99-15.615 144.657-15.615zm195.094 172.17v25.035c0 16.634-33.273 24.907-80.066 28.922 2.129-23.425 14.247-38.267 43.198-54.311l33.35-18.481c2.302 5.995 3.518 12.388 3.518 18.835zm-390.189 0c0-6.446 1.216-12.839 3.518-18.834l33.349 18.481c28.929 16.031 41.05 30.863 43.193 54.256-54.385-4.654-80.06-14.018-80.06-28.869zm80.42 124.059c0 4.136-3.364 7.5-7.5 7.5h-30c-4.136 0-7.5-3.364-7.5-7.5v-21.015c.965.197 1.923.388 2.864.569 11.526 2.213 25.464 3.994 42.136 5.367zm274.349 0c0 4.136-3.364 7.5-7.5 7.5h-30c-4.136 0-7.5-3.364-7.5-7.5v-15.078c16.672-1.373 30.61-3.155 42.137-5.368.941-.181 1.899-.372 2.863-.568zm-159.674-26.525c-96.473 0-195.095-3.861-195.095-32.5v-15.008c7.755 5.463 16.731 8.198 21.275 9.54 21.562 6.365 53.977 10.133 102.012 11.861.092.003.183.005.274.005 4.018 0 7.345-3.183 7.49-7.23.148-4.14-3.086-7.616-7.226-7.765-10.202-.367-19.74-.836-28.635-1.408-1.215-18.754-7.512-33.475-20.517-46.531 29.799 2.738 68.98 4.037 120.421 4.037s90.622-1.299 120.42-4.037c-13.018 13.069-19.315 27.806-20.521 46.586-30.485 1.954-65.329 2.45-99.899 2.45-14.239 0-27.651-.101-39.861-.299-.042 0-.083-.001-.124-.001-4.086 0-7.431 3.278-7.497 7.378-.067 4.142 3.235 7.554 7.377 7.621 12.291.2 25.785.301 40.105.301 75.282 0 125.11-2.835 156.811-8.921 12.829-2.463 27.698-6.308 38.284-13.691v15.112c0 28.639-98.622 32.5-195.094 32.5z"/></g></svg>