<svg id="Capa_1" enable-background="new 0 0 512 512" height="512" viewBox="0 0 512 512" width="512" xmlns="http://www.w3.org/2000/svg"><g><path d="m504.5 447.478c-4.142 0-7.5 3.358-7.5 7.5v34.522c0 4.136-3.364 7.5-7.5 7.5h-231.887c-4.136 0-7.5-3.364-7.5-7.5v-314.522c0-4.136 3.364-7.5 7.5-7.5h65.944c4.142 0 7.5-3.358 7.5-7.5s-3.358-7.5-7.5-7.5h-65.944c-12.407 0-22.5 10.093-22.5 22.5v121.548c-20.494-11.055-43.129-17.357-66.461-18.471v-12.201h16.104c4.142 0 7.5-3.358 7.5-7.5s-3.358-7.5-7.5-7.5h-47.208c-4.142 0-7.5 3.358-7.5 7.5s3.358 7.5 7.5 7.5h16.104v12.187c-20.723.97-40.684 5.957-59.432 14.886-3.739 1.781-5.327 6.257-3.546 9.997 1.781 3.739 6.254 5.326 9.997 3.546 18.97-9.035 39.318-13.616 60.481-13.616 26.226 0 51.705 7.25 73.961 20.977v67.473h-206.144c10.265-23.24 25.81-43.342 45.392-58.58 3.269-2.543 3.857-7.256 1.313-10.525-2.543-3.27-7.256-3.859-10.525-1.313-24.589 19.133-43.372 45.192-54.32 75.359-.834 2.299-.495 4.861.909 6.863 1.404 2.003 3.696 3.195 6.142 3.195h135.772v14.431l-143.688.57c-3.649.015-6.758 2.654-7.366 6.252-1.723 10.219-2.598 20.733-2.598 31.248 0 4.142 3.358 7.5 7.5 7.5h227.613v33.196c0 12.407 10.093 22.5 22.5 22.5h231.887c12.407 0 22.5-10.093 22.5-22.5v-34.522c0-4.143-3.358-7.5-7.5-7.5zm-335.848-51.174h66.461v14.108l-66.461.263zm-153.491 45c.216-5.042.65-10.063 1.298-15.025l218.654-.866v15.892h-219.952z"/><path d="m489.5 152.478h-88.443v-124.978c0-15.164-12.336-27.5-27.5-27.5s-27.5 12.336-27.5 27.5v169.978h-28.89c-10.723-7.539-25.668-6.525-35.247 3.055-10.722 10.722-10.722 28.168 0 38.891l8.055 8.055h-2.361c-4.142 0-7.5 3.358-7.5 7.5s3.358 7.5 7.5 7.5h17.361l25 25h-42.361c-4.142 0-7.5 3.358-7.5 7.5s3.358 7.5 7.5 7.5h57.361l9.137 9.137c5.194 5.194 12.1 8.055 19.446 8.055s14.252-2.861 19.445-8.055l9.137-9.137h57.36c4.142 0 7.5-3.358 7.5-7.5s-3.358-7.5-7.5-7.5h-42.361l25-25h17.361c4.142 0 7.5-3.358 7.5-7.5s-3.358-7.5-7.5-7.5h-2.361l8.055-8.055c10.722-10.722 10.722-28.168 0-38.891-9.579-9.58-24.524-10.593-35.247-3.055h-28.89v-30h88.443c4.136 0 7.5 3.364 7.5 7.5v250c0 4.142 3.358 7.5 7.5 7.5s7.5-3.358 7.5-7.5v-250c0-12.407-10.093-22.5-22.5-22.5zm-143.443 60v13.301l-13.301-13.301zm108.53-1.339c4.874 4.874 4.874 12.804 0 17.678l-72.192 72.192c-2.36 2.36-5.5 3.661-8.838 3.661s-6.478-1.3-8.839-3.661l-72.192-72.192c-4.874-4.874-4.874-12.804 0-17.678 2.437-2.437 5.638-3.655 8.839-3.655s6.402 1.218 8.839 3.655l38.05 38.05c2.145 2.146 5.372 2.788 8.173 1.626 2.803-1.161 4.63-3.896 4.63-6.929v-216.386c0-6.893 5.607-12.5 12.5-12.5s12.5 5.607 12.5 12.5v216.385c0 3.034 1.827 5.768 4.63 6.929s6.028.52 8.173-1.626l38.049-38.049c4.874-4.874 12.804-4.874 17.678 0zm-40.23 1.339-13.301 13.301v-13.301z"/><path d="m287.613 342.478h171.887c4.142 0 7.5-3.358 7.5-7.5s-3.358-7.5-7.5-7.5h-171.887c-4.142 0-7.5 3.358-7.5 7.5s3.358 7.5 7.5 7.5z"/><path d="m287.613 382.478h171.887c4.142 0 7.5-3.358 7.5-7.5s-3.358-7.5-7.5-7.5h-171.887c-4.142 0-7.5 3.358-7.5 7.5s3.358 7.5 7.5 7.5z"/><path d="m287.613 422.478h171.887c4.142 0 7.5-3.358 7.5-7.5s-3.358-7.5-7.5-7.5h-171.887c-4.142 0-7.5 3.358-7.5 7.5s3.358 7.5 7.5 7.5z"/><path d="m459.5 447.478h-71.887c-4.142 0-7.5 3.358-7.5 7.5s3.358 7.5 7.5 7.5h71.887c4.142 0 7.5-3.358 7.5-7.5s-3.358-7.5-7.5-7.5z"/></g></svg>