<svg id="Capa_1" enable-background="new 0 0 511.993 511.993" height="512" viewBox="0 0 511.993 511.993" width="512" xmlns="http://www.w3.org/2000/svg"><g><path d="m484.295 95.814c4.143 0 7.5-3.358 7.5-7.5v-50.814c0-20.678-16.822-37.5-37.5-37.5h-150c-20.678 0-37.5 16.822-37.5 37.5v7.5h-91.989c-4.142 0-7.5 3.358-7.5 7.5s3.358 7.5 7.5 7.5h176.286c22.363 0 40.558 18.194 40.558 40.557 0 12.212-5.42 23.651-14.87 31.386-9.45 7.733-21.736 10.788-33.707 8.37l-273.213-55.115c-5.915-1.193-10.208-6.439-10.208-12.473 0-7.017 5.708-12.725 12.724-12.725h72.43c4.142 0 7.5-3.358 7.5-7.5s-3.358-7.5-7.5-7.5h-72.43c-15.287 0-27.724 12.437-27.724 27.725 0 13.148 9.354 24.577 22.242 27.177l199.901 40.326v65.367l-80.293-46.357c-10.743-6.204-24.532-2.509-30.735 8.235l-48.557 84.104c-2.071 3.587-.842 8.174 2.745 10.245 3.586 2.071 8.173.841 10.245-2.745l48.557-84.104c2.068-3.581 6.666-4.812 10.245-2.745l107.094 61.831c-28.801 44.887-67.228 53.232-104.445 61.31-36.655 7.956-74.558 16.182-99.305 59.045-17.275 29.922-13.335 61.208-7.641 81.048l-35.761-20.647c-3.582-2.068-4.813-6.664-2.745-10.245l69.597-120.545c2.071-3.587.842-8.174-2.745-10.245-3.588-2.071-8.175-.842-10.245 2.745l-69.598 120.545c-6.203 10.744-2.509 24.532 8.235 30.735l140.603 81.177c3.535 2.041 7.397 3.01 11.212 3.01 7.782-.001 15.361-4.036 19.523-11.246l64.012-110.873v17.627c0 20.678 16.822 37.5 37.5 37.5h150c20.678 0 37.5-16.822 37.5-37.5v-289.186c0-4.142-3.357-7.5-7.5-7.5s-7.5 3.358-7.5 7.5v289.186c0 12.407-10.094 22.5-22.5 22.5h-150c-12.406 0-22.5-10.093-22.5-22.5v-43.606l53.546-92.744c6.203-10.744 2.508-24.532-8.235-30.735l-15.311-8.84v-16.575h65v19.799c0 4.142 3.357 7.5 7.5 7.5s7.5-3.358 7.5-7.5v-19.799h15v19.799c0 4.142 3.357 7.5 7.5 7.5s7.5-3.358 7.5-7.5v-19.799h25v185h-135v-33.077c0-4.142-3.357-7.5-7.5-7.5s-7.5 3.358-7.5 7.5v33.077c0 8.271 6.729 15 15 15h135c8.271 0 15-6.729 15-15v-185c0-8.271-6.729-15-15-15h-135c-8.271 0-15 6.729-15 15v7.915l-15-8.66v-71.001l58.311 11.763c3.683.743 7.385 1.108 11.062 1.108 12.698 0 25.073-4.358 35.112-12.574 12.945-10.595 20.37-26.265 20.37-42.994 0-30.634-24.923-55.557-55.558-55.557h-69.297v-7.5c0-12.407 10.094-22.5 22.5-22.5h150c12.406 0 22.5 10.093 22.5 22.5v50.814c.002 4.143 3.359 7.5 7.502 7.5zm-161.945 167.836-132.558 229.598c-2.067 3.582-6.662 4.814-10.246 2.745l-84.535-48.806c-4.131-8.948-20.503-49.198.325-85.272 21.427-37.113 52.971-43.959 89.496-51.887 38.574-8.373 82.091-17.827 114.265-68.462l20.508 11.84c3.581 2.067 4.813 6.663 2.745 10.244z"/><path d="m191.012 199.728c-3.587-2.072-8.174-.843-10.245 2.745l-14.15 24.508c-2.071 3.587-.842 8.174 2.745 10.245 1.181.682 2.471 1.006 3.743 1.006 2.592 0 5.113-1.345 6.502-3.751l14.15-24.508c2.071-3.587.842-8.174-2.745-10.245z"/><path d="m216.992 214.728c-3.587-2.071-8.174-.842-10.245 2.745l-14.15 24.508c-2.071 3.587-.842 8.174 2.745 10.245 1.181.682 2.471 1.006 3.743 1.006 2.592 0 5.113-1.346 6.502-3.751l14.15-24.508c2.071-3.587.842-8.174-2.745-10.245z"/><path d="m221.323 267.227c1.181.682 2.471 1.006 3.743 1.006 2.592 0 5.113-1.346 6.502-3.751l14.15-24.508c2.071-3.587.842-8.174-2.745-10.245-3.587-2.073-8.175-.842-10.245 2.745l-14.15 24.508c-2.071 3.587-.842 8.174 2.745 10.245z"/><path d="m186.138 365.618c-3.588-2.072-8.174-.843-10.245 2.745l-11.39 19.728-24.592-14.198 11.39-19.728c2.071-3.587.842-8.174-2.745-10.245-3.588-2.072-8.174-.842-10.245 2.745l-31.355 54.308c-2.071 3.587-.842 8.174 2.745 10.245 3.586 2.071 8.173.842 10.245-2.745l12.465-21.59 24.592 14.198-12.465 21.59c-2.071 3.587-.842 8.174 2.745 10.245 1.181.682 2.471 1.006 3.743 1.006 2.592 0 5.113-1.346 6.502-3.751l16.197-28.054c.006-.011.012-.021.018-.032s.012-.021.019-.032l15.121-26.191c2.071-3.586.842-8.173-2.745-10.244z"/><circle cx="454.295" cy="180" r="8"/></g></svg>