<svg id="Capa_1" enable-background="new 0 0 512.042 512.042" height="512" viewBox="0 0 512.042 512.042" width="512" xmlns="http://www.w3.org/2000/svg"><g><path d="m283.524 319.73c18.732-32.445 7.576-74.082-24.87-92.814-15.718-9.074-34.029-11.485-51.558-6.788-17.53 4.697-32.183 15.94-41.257 31.657-18.732 32.445-7.576 74.082 24.87 92.814 10.674 6.163 22.338 9.09 33.858 9.09 23.499.001 46.387-12.187 58.957-33.959zm-104.694-60.445c9.796-16.967 27.628-26.462 45.94-26.462 8.976 0 18.068 2.282 26.384 7.083 6.03 3.481 11.104 7.986 15.155 13.158l-90.735 52.385c-5.822-14.565-5.177-31.557 3.256-46.164zm19.38 72.325c-6.03-3.481-11.104-7.986-15.155-13.158l90.735-52.385c5.823 14.565 5.178 31.557-3.255 46.164-14.599 25.282-47.044 33.976-72.325 19.379z"/><path d="m224.658 414.179c2.592 0 5.113-1.346 6.502-3.751 2.071-3.587.842-8.174-2.745-10.245l-104.693-60.445c-3.589-2.072-8.175-.842-10.245 2.745-2.071 3.587-.842 8.174 2.745 10.245l104.693 60.445c1.181.682 2.471 1.006 3.743 1.006z"/><path d="m101.221 378.709c-3.59-2.072-8.175-.842-10.245 2.745-2.071 3.587-.842 8.174 2.745 10.245l104.693 60.445c1.182.682 2.471 1.006 3.743 1.006 2.592 0 5.113-1.346 6.502-3.751 2.071-3.587.842-8.174-2.745-10.245z"/><path d="m439.808 16.918h-55.953c-.969-.599-1.947-1.19-2.94-1.763-26.081-15.059-56.467-19.059-85.558-11.265-27.677 7.416-51.024 24.67-66.196 48.791h-130.101c-13.157 0-23.861 10.705-23.861 23.862 0 11.315 8.051 21.152 19.143 23.39l174.388 35.18c4.987 12.503 13.994 22.964 25.748 29.749l41.822 24.167c23.614 13.635 31.732 43.942 18.097 67.56l-132.322 229.187c-3.005 5.205-7.857 8.928-13.662 10.483-5.805 1.557-11.868.757-17.073-2.248l-130.339-75.25c-5.205-3.005-8.929-7.857-10.484-13.662s-.757-11.869 2.248-17.074l140.995-244.211c2.071-3.587.842-8.174-2.745-10.245-3.59-2.072-8.176-.842-10.245 2.745l-140.996 244.211c-5.009 8.675-6.339 18.781-3.746 28.456s8.798 17.762 17.473 22.77l130.339 75.251c5.778 3.336 12.19 5.041 18.689 5.041 3.257 0 6.536-.428 9.766-1.294 9.676-2.592 17.763-8.797 22.771-17.472l132.321-229.187c17.771-30.781 7.19-70.28-23.584-88.049l-41.822-24.167c-5.672-3.275-10.489-7.692-14.205-12.918l27.593 5.566c3.074.62 6.165.925 9.234.925 10.6 0 20.931-3.638 29.311-10.497 7.896-6.462 13.318-15.192 15.673-24.87.547 8.765-1.482 17.5-5.973 25.279-9.323 16.148-3.771 36.871 12.378 46.194 5.312 3.067 11.117 4.524 16.852 4.524 11.695-.001 23.087-6.066 29.343-16.902 26.326-45.598 17.073-102.132-19.081-137.257h36.704c12.406 0 22.5 10.093 22.5 22.5v62.97c0 4.142 3.357 7.5 7.5 7.5s7.5-3.358 7.5-7.5v-62.97c-.002-20.678-16.824-37.5-37.502-37.5zm-30.613 144.757c-5.187 8.985-16.719 12.076-25.704 6.888s-12.075-16.719-6.888-25.704c8.029-13.907 10.162-30.108 6.006-45.619s-14.104-28.475-28.011-36.504c-9.138-5.276-19.514-8.063-30.011-8.063-.018 0-.037 0-.055 0-.978.001-17.64.009-17.64.009-4.143 0-7.5 3.358-7.5 7.5s3.357 7.5 7.5 7.5h17.646c17.302 0 31.378 14.076 31.378 31.378 0 9.448-4.193 18.298-11.505 24.282s-16.815 8.344-26.078 6.476l-221.025-44.589c-4.12-.831-7.109-4.484-7.109-8.686 0-4.886 3.976-8.862 8.861-8.862h177.833c4.143 0 7.5-3.358 7.5-7.5s-3.357-7.5-7.5-7.5h-29.43c12.99-16.725 30.967-28.726 51.777-34.302 25.22-6.756 51.562-3.29 74.175 9.766 46.679 26.95 62.729 86.851 35.78 133.53z"/><path d="m469.808 139.888c-4.143 0-7.5 3.358-7.5 7.5v194.897c0 12.407-10.094 22.5-22.5 22.5h-7.551v-17.718c0-4.142-3.357-7.5-7.5-7.5s-7.5 3.358-7.5 7.5v17.718h-15v-17.718c0-4.142-3.357-7.5-7.5-7.5s-7.5 3.358-7.5 7.5v17.718h-57.997c-4.143 0-7.5 3.358-7.5 7.5s3.357 7.5 7.5 7.5h110.549c20.678 0 37.5-16.822 37.5-37.5v-194.897c-.001-4.143-3.358-7.5-7.501-7.5z"/></g></svg>