<svg id="Capa_1" enable-background="new 0 0 512.018 512.018" height="512" viewBox="0 0 512.018 512.018" width="512" xmlns="http://www.w3.org/2000/svg"><g><path d="m493.33 224.778c-10.582-10.582-23.517-14.67-32.505-16.237-10.243-1.79-20.313 3.605-24.491 13.109l-37.771 85.923c-4.323 9.835-1.053 21.418 7.775 27.542l19.655 13.633c-4.073 7.503-13.806 22.779-34.148 43.122-20.162 20.162-35.582 29.993-43.139 34.124l-13.616-19.63c-6.123-8.828-17.708-12.097-27.542-7.774l-21.555 9.476c-3.792 1.667-5.515 6.092-3.848 9.884s6.093 5.516 9.884 3.848l21.555-9.475c3.28-1.441 7.14-.351 9.182 2.591l17.279 24.912c1.959 2.826 5.589 3.957 8.805 2.745.885-.333 22.03-8.52 53.603-40.092s39.759-52.718 40.092-53.603c1.211-3.217.08-6.846-2.745-8.805l-24.912-17.279c-2.943-2.042-4.033-5.903-2.592-9.181l37.771-85.922c1.394-3.169 4.759-4.966 8.183-4.368 6.855 1.195 16.667 4.258 24.475 12.066 14.947 14.947 18.34 44.608 9.078 79.343-10.299 38.619-33.948 77.865-66.59 110.508s-71.889 56.292-110.508 66.59c-34.735 9.261-64.396 5.868-79.343-9.078-7.808-7.808-10.872-17.619-12.066-24.475-.597-3.425 1.199-6.79 4.368-8.183l37.291-16.392c3.792-1.667 5.515-6.092 3.848-9.884-1.666-3.792-6.09-5.515-9.884-3.848l-37.291 16.392c-9.503 4.178-14.894 14.249-13.108 24.491.046.265.102.545.153.817-18.478-4.226-36.216-10.914-52.936-19.965 5.307-9.193 8.361-19.843 8.361-31.199 0-16.375-6.281-31.862-17.687-43.606-11.378-11.715-26.623-18.452-42.927-18.967-3.514-.126-6.64 2.238-7.506 5.649-.867 3.411.755 6.966 3.899 8.547 11.856 5.964 19.221 17.899 19.221 31.147 0 19.217-15.634 34.851-34.852 34.851-13.249 0-25.184-7.365-31.147-19.221-1.582-3.144-5.136-4.765-8.547-3.899-3.411.867-5.76 3.989-5.649 7.506.516 16.304 7.252 31.549 18.968 42.927 11.744 11.406 27.23 17.687 43.605 17.687 17.728 0 33.747-7.417 45.15-19.296 21.083 11.683 43.711 19.829 67.383 24.271 2.498 5.178 5.951 10.458 10.748 15.255 12.333 12.333 31.002 18.664 53.641 18.663 12.34 0 25.863-1.882 40.173-5.698 41.13-10.968 82.77-35.998 117.25-70.478 34.48-34.479 59.509-76.12 70.478-117.25 10.813-40.563 6.087-74.758-12.969-93.814zm-391.858 233.347c-16.037 0-30.164-7.782-38.78-19.857 6.588 3.148 13.916 4.857 21.55 4.857 27.488 0 49.852-22.363 49.852-49.851 0-7.634-1.708-14.962-4.857-21.551 12.076 8.616 19.857 22.744 19.857 38.78 0 26.259-21.363 47.622-47.622 47.622z"/><path d="m94.064 410.22c1.797 0 3.6-.642 5.035-1.944 3.069-2.782 3.301-7.525.519-10.594-35.237-38.862-54.643-89.179-54.643-141.682 0-116.346 94.654-211 211-211 14.322 0 28.631 1.442 42.532 4.287 4.056.832 8.021-1.786 8.851-5.844.831-4.058-1.786-8.021-5.844-8.851-14.887-3.047-30.209-4.592-45.539-4.592-60.367 0-117.121 23.508-159.806 66.194s-66.194 99.439-66.194 159.806c0 56.235 20.786 110.131 58.53 151.758 1.481 1.633 3.516 2.462 5.559 2.462z"/><path d="m324.263 367.219c.982.432 2.006.636 3.014.636 2.884 0 5.635-1.674 6.87-4.484l51.694-117.597c1.02-2.319.799-4.996-.585-7.118s-3.747-3.4-6.28-3.4h-64.693c-4.142 0-7.5 3.358-7.5 7.5s3.358 7.5 7.5 7.5h53.204l-47.07 107.079c-1.669 3.792.054 8.217 3.846 9.884z"/><path d="m226.044 367.219c.982.432 2.006.636 3.014.636 2.884 0 5.635-1.674 6.87-4.484l88.132-200.486c1.667-3.792-.056-8.217-3.848-9.884-3.791-1.665-8.217.056-9.884 3.848l-88.132 200.486c-1.666 3.792.056 8.217 3.848 9.884z"/><path d="m228.919 284.963h.066c4.111 0 7.463-3.315 7.498-7.436.027-3.17.117-13.791.213-27.272h7.586c4.142 0 7.5-3.358 7.5-7.5s-3.358-7.5-7.5-7.5h-7.486c.183-29.355.311-63.593-.044-67.861-.585-7.027-4.639-12.706-10.326-14.467-2.667-.825-9.593-1.866-16.252 6.303-6.686 8.204-42.269 72.588-46.304 79.902-1.282 2.323-1.241 5.151.108 7.436s3.805 3.687 6.458 3.687h51.26c-.067 9.504-.14 18.776-.212 27.143-.036 4.143 3.293 7.53 7.435 7.565zm-45.754-49.707c14.955-26.885 34.804-61.849 38.634-66.549.003-.003.005-.006.008-.01.278 3.674.187 34.421-.012 66.559z"/><path d="m137.71 214.585c-36.507 52.161-41.486 58.774-41.668 59.014-1.732 2.263-2.033 5.312-.775 7.87 1.258 2.557 3.857 4.181 6.707 4.189l59.925.184h.023c4.131 0 7.487-3.343 7.5-7.477.013-4.142-3.335-7.51-7.477-7.523l-45.366-.139c6.074-8.557 16.304-23.062 33.419-47.518 7.085-10.123 11.682-19.589 13.664-28.135.057-.246.102-.494.133-.744l.581-4.549c.041-.315.061-.632.061-.95 0-20.728-16.863-37.591-37.591-37.591-17.923 0-33.436 12.749-36.885 30.313-.798 4.064 1.85 8.006 5.914 8.805 4.065.796 8.007-1.85 8.805-5.914 2.072-10.548 11.394-18.204 22.167-18.204 12.309 0 22.349 9.895 22.586 22.147l-.466 3.649c-1.597 6.588-5.383 14.18-11.257 22.573z"/><path d="m316.481 108.997h31.84c3.424 28.543 26.114 51.233 54.657 54.657v31.84c0 4.142 3.358 7.5 7.5 7.5s7.5-3.358 7.5-7.5v-31.84c5.994-.719 11.733-2.276 17.088-4.571l15.916 27.567c1.389 2.406 3.91 3.751 6.502 3.751 1.272 0 2.562-.324 3.743-1.006 3.587-2.071 4.816-6.658 2.745-10.245l-15.927-27.586c4.731-3.558 8.942-7.77 12.501-12.501l27.586 15.927c1.181.682 2.471 1.006 3.743 1.006 2.592 0 5.113-1.346 6.502-3.751 2.071-3.587.842-8.174-2.745-10.245l-27.568-15.916c2.295-5.354 3.852-11.093 4.571-17.087h31.84c4.142 0 7.5-3.358 7.5-7.5s-3.358-7.5-7.5-7.5h-31.84c-.719-5.994-2.276-11.733-4.571-17.087l27.568-15.916c3.587-2.071 4.816-6.658 2.745-10.245-2.071-3.588-6.659-4.816-10.245-2.745l-27.586 15.926c-3.558-4.731-7.77-8.942-12.501-12.501l15.927-27.586c2.071-3.587.842-8.174-2.745-10.245s-8.174-.842-10.245 2.745l-15.916 27.568c-5.354-2.295-11.093-3.852-17.087-4.571v-31.84c0-4.142-3.358-7.5-7.5-7.5s-7.5 3.358-7.5 7.5v31.84c-5.994.719-11.733 2.276-17.087 4.571l-15.916-27.568c-2.071-3.588-6.658-4.816-10.245-2.745s-4.816 6.658-2.745 10.245l15.927 27.586c-4.731 3.558-8.943 7.77-12.501 12.501l-27.586-15.927c-3.588-2.072-8.175-.842-10.245 2.745-2.071 3.587-.842 8.174 2.745 10.245l27.567 15.916c-2.295 5.354-3.852 11.094-4.571 17.088h-31.84c-4.142 0-7.5 3.358-7.5 7.5s3.357 7.5 7.499 7.5zm46.375-7.5c0-26.259 21.363-47.622 47.622-47.622s47.622 21.363 47.622 47.622-21.363 47.622-47.622 47.622-47.622-21.363-47.622-47.622z"/><path d="m45.025 367.541c0-4.142-3.358-7.5-7.5-7.5h-7.5v-12.5c0-4.142-3.358-7.5-7.5-7.5s-7.5 3.358-7.5 7.5v12.5h-7.5c-4.142 0-7.5 3.358-7.5 7.5s3.358 7.5 7.5 7.5h7.5v12.5c0 4.142 3.358 7.5 7.5 7.5s7.5-3.358 7.5-7.5v-12.5h7.5c4.142 0 7.5-3.358 7.5-7.5z"/><path d="m161.788 483.845h-2.366v-5.655c0-4.142-3.358-7.5-7.5-7.5s-7.5 3.358-7.5 7.5v5.655h-2.366c-4.142 0-7.5 3.358-7.5 7.5s3.358 7.5 7.5 7.5h2.366v5.655c0 4.142 3.358 7.5 7.5 7.5s7.5-3.358 7.5-7.5v-5.655h2.366c4.142 0 7.5-3.358 7.5-7.5s-3.358-7.5-7.5-7.5z"/></g></svg>