<svg id="Capa_1" enable-background="new 0 0 511.208 511.208" height="512" viewBox="0 0 511.208 511.208" width="512" xmlns="http://www.w3.org/2000/svg"><g><path d="m44.604 265.216c0-116.346 94.654-211 211-211 4.142 0 7.5-3.358 7.5-7.5s-3.358-7.5-7.5-7.5c-23.51 0-46.47 3.573-68.267 10.448 3.051-3.96 4.701-8.838 4.627-13.983-.102-7.069-3.418-13.559-9.099-17.804-26.863-20.075-61.963-23.459-93.896-9.054-3.775 1.703-5.456 6.145-3.752 9.92 1.703 3.776 6.144 5.455 9.921 3.752 26.882-12.128 56.321-9.364 78.748 7.396 1.923 1.437 3.046 3.626 3.081 6.005.034 2.329-.996 4.497-2.824 5.947l-117.53 93.246c-1.829 1.45-4.174 1.96-6.434 1.397-2.309-.574-4.186-2.166-5.148-4.366-17.661-40.374 4.342-77.128 28.551-96.335 3.245-2.574 3.788-7.292 1.214-10.537-2.575-3.245-7.292-3.789-10.537-1.214-45.414 36.03-46.145 83.982-32.97 114.098 2.842 6.498 8.407 11.203 15.268 12.91 1.819.453 3.656.675 5.476.675 3.187 0 6.321-.689 9.221-2.014-20.633 34.578-31.649 74.197-31.649 115.511 0 39.821 10.502 78.977 30.371 113.232 1.392 2.398 3.908 3.738 6.495 3.738 1.277 0 2.572-.327 3.756-1.014 3.583-2.078 4.803-6.667 2.725-10.25-18.546-31.969-28.348-68.522-28.348-105.704z"/><path d="m432.02 394.375c-3.253-2.562-7.969-2-10.532 1.253-40.321 51.215-100.783 80.588-165.884 80.588-33.238 0-65.042-7.504-94.527-22.305-28.125-14.118-53.196-34.78-72.503-59.752-2.534-3.277-7.244-3.879-10.521-1.346-3.277 2.534-3.879 7.244-1.346 10.521 12.321 15.936 26.848 30.215 42.94 42.367l-14.008 24.262c-7.582 13.132-3.066 29.984 10.066 37.566 4.32 2.494 9.041 3.679 13.704 3.679 9.511 0 18.774-4.933 23.862-13.745l13.962-24.183c27.904 11.901 57.564 17.936 88.371 17.936 30.931 0 60.878-6.203 88.404-17.88l13.929 24.126c5.088 8.812 14.35 13.745 23.862 13.745 4.662 0 9.384-1.185 13.704-3.679 13.132-7.582 17.648-24.434 10.066-37.566l-13.949-24.161c15.371-11.622 29.385-25.311 41.654-40.895 2.562-3.253 2.001-7.968-1.254-10.531zm-291.74 95.588c-3.447 5.969-11.106 8.021-17.075 4.576-5.969-3.446-8.022-11.106-4.576-17.076l13.322-23.074c6.98 4.581 14.206 8.767 21.633 12.532zm252.298-12.5c3.446 5.969 1.394 13.629-4.576 17.076-5.968 3.446-13.629 1.393-17.075-4.576l-13.266-22.977c7.432-3.762 14.654-7.94 21.639-12.52z"/><path d="m459.176 151.719c1.82 0 3.657-.223 5.476-.675 6.861-1.707 12.426-6.413 15.268-12.91 13.174-30.116 12.444-78.067-32.97-114.098-45.415-36.031-92.276-25.837-118.607-6.159-5.681 4.246-8.997 10.735-9.099 17.804-.075 5.187 1.602 10.104 4.7 14.08-11.852-3.761-24.048-6.561-36.483-8.316-4.102-.581-7.896 2.277-8.474 6.378-.579 4.102 2.277 7.896 6.378 8.474 49.855 7.036 95.68 31.885 129.034 69.97 33.665 38.441 52.206 87.788 52.206 138.948 0 37.183-9.802 73.736-28.347 105.708-2.078 3.583-.858 8.172 2.725 10.251 1.185.687 2.479 1.014 3.756 1.014 2.586 0 5.103-1.34 6.495-3.738 19.869-34.255 30.372-73.411 30.372-113.234 0-40.966-11.103-80.845-31.774-115.573 2.933 1.363 6.11 2.076 9.344 2.076zm-121.854-121.826c35.3-26.381 76.096-13.312 100.304 5.895 24.209 19.207 46.212 55.961 28.551 96.335-.962 2.2-2.839 3.792-5.148 4.366-2.26.565-4.605.054-6.434-1.397l-117.53-93.246c-1.829-1.45-2.858-3.618-2.824-5.947.035-2.38 1.158-4.569 3.081-6.006z"/><path d="m68.104 265.216c0 103.388 84.112 187.5 187.5 187.5s187.5-84.112 187.5-187.5-84.112-187.5-187.5-187.5-187.5 84.113-187.5 187.5zm332.955-92.638-7.568 4.369c-3.587 2.071-4.816 6.658-2.745 10.245 1.389 2.406 3.91 3.751 6.502 3.751 1.272 0 2.562-.324 3.743-1.006l7.583-4.378c11.375 21.756 18.242 46.222 19.357 72.157h-8.779c-4.142 0-7.5 3.358-7.5 7.5s3.358 7.5 7.5 7.5h8.779c-1.115 25.935-7.982 50.401-19.357 72.157l-7.583-4.378c-3.587-2.072-8.174-.842-10.245 2.745s-.842 8.174 2.745 10.245l7.568 4.369c-13.553 21.205-31.611 39.264-52.816 52.816l-4.369-7.568c-2.071-3.588-6.658-4.816-10.245-2.745s-4.816 6.658-2.745 10.245l4.378 7.583c-21.756 11.375-46.222 18.242-72.157 19.357v-8.779c0-4.142-3.358-7.5-7.5-7.5s-7.5 3.358-7.5 7.5v8.779c-25.935-1.115-50.401-7.982-72.157-19.357l4.378-7.583c2.071-3.587.842-8.174-2.745-10.245-3.587-2.072-8.174-.842-10.245 2.745l-4.369 7.568c-21.205-13.553-39.264-31.611-52.816-52.816l7.568-4.369c3.587-2.071 4.816-6.658 2.745-10.245-2.071-3.588-6.659-4.817-10.245-2.745l-7.583 4.378c-11.375-21.756-18.242-46.222-19.357-72.157h8.779c4.142 0 7.5-3.358 7.5-7.5s-3.358-7.5-7.5-7.5h-8.779c1.115-25.935 7.982-50.401 19.357-72.157l7.583 4.378c1.181.682 2.471 1.006 3.743 1.006 2.592 0 5.113-1.346 6.502-3.751 2.071-3.587.842-8.174-2.745-10.245l-7.568-4.369c13.553-21.205 31.611-39.264 52.816-52.816l4.369 7.568c1.389 2.406 3.91 3.751 6.502 3.751 1.272 0 2.562-.324 3.743-1.006 3.587-2.071 4.816-6.658 2.745-10.245l-4.378-7.583c21.756-11.375 46.222-18.242 72.157-19.357v8.779c0 4.142 3.358 7.5 7.5 7.5s7.5-3.358 7.5-7.5v-8.779c25.935 1.115 50.401 7.982 72.157 19.357l-4.378 7.583c-2.071 3.587-.842 8.174 2.745 10.245 1.181.682 2.471 1.006 3.743 1.006 2.592 0 5.113-1.346 6.502-3.751l4.369-7.568c21.204 13.552 39.263 31.611 52.816 52.816z"/><path d="m263.104 244.006v-112.338c0-4.142-3.358-7.5-7.5-7.5s-7.5 3.358-7.5 7.5v112.338c-8.729 3.096-15 11.432-15 21.21 0 5.572 2.04 10.673 5.407 14.607l-31.176 53.998c-2.071 3.587-.842 8.174 2.745 10.245 1.181.682 2.471 1.006 3.743 1.006 2.592 0 5.113-1.345 6.502-3.751l31.17-53.988c1.333.247 2.705.383 4.109.383 12.407 0 22.5-10.093 22.5-22.5 0-9.777-6.271-18.114-15-21.21zm-7.5 28.71c-4.136 0-7.5-3.364-7.5-7.5s3.364-7.5 7.5-7.5 7.5 3.364 7.5 7.5-3.364 7.5-7.5 7.5z"/></g></svg>