<svg id="Capa_1" enable-background="new 0 0 512 512" height="512" viewBox="0 0 512 512" width="512" xmlns="http://www.w3.org/2000/svg"><g><path d="m370.884 467.91c-35.029 19.031-74.755 29.09-114.884 29.09-64.374 0-124.894-25.068-170.413-70.587s-70.587-106.039-70.587-170.413c0-46.587 13.312-91.79 38.498-130.722 24.54-37.934 59.057-68.147 99.819-87.374 3.747-1.767 5.351-6.236 3.584-9.983s-6.239-5.353-9.982-3.583c-43.295 20.421-79.955 52.508-106.015 92.792-26.76 41.366-40.904 89.386-40.904 138.87 0 68.38 26.628 132.667 74.98 181.02 48.353 48.351 112.64 74.98 181.02 74.98 42.623 0 84.825-10.688 122.044-30.91 3.64-1.978 4.987-6.531 3.01-10.171-1.977-3.639-6.532-4.986-10.17-3.009z"/><path d="m437.02 74.981c-48.352-48.353-112.64-74.981-181.02-74.981-27.106 0-53.798 4.217-79.335 12.533-3.938 1.283-6.092 5.515-4.809 9.454 1.282 3.938 5.514 6.093 9.454 4.809 24.035-7.827 49.164-11.796 74.69-11.796 64.374 0 124.895 25.068 170.413 70.587 45.519 45.519 70.587 106.039 70.587 170.413 0 39.18-9.612 78.072-27.798 112.471-17.609 33.311-43.202 62.458-74.01 84.293-3.379 2.395-4.177 7.077-1.782 10.456 1.462 2.063 3.776 3.164 6.126 3.164 1.499 0 3.014-.448 4.33-1.381 32.716-23.188 59.895-54.143 78.598-89.521 19.322-36.551 29.536-77.867 29.536-119.482 0-68.38-26.629-132.667-74.98-181.019z"/><path d="m404.458 85.605c-41.123-35.857-93.847-55.605-148.458-55.605-60.367 0-117.121 23.508-159.806 66.194s-66.194 99.439-66.194 159.806c0 54.611 19.748 107.335 55.605 148.458 1.366 1.566 3.32 2.496 5.397 2.566.085.003.171.004.256.004 1.985 0 3.894-.788 5.303-2.197l308.272-308.27c1.469-1.469 2.263-3.482 2.191-5.559-.07-2.077-1-4.031-2.566-5.397zm-201.362 58.172-5.365-17.291c-2.458-7.921-1.552-15.607 2.486-21.087 3.808-5.168 9.934-7.9 17.716-7.9h42.628c13.842 0 26.904-5.341 36.782-15.039l26.676-26.192c14.741 5.019 28.915 11.656 42.244 19.829l-24.061 24.061c-9.916 9.916-23.1 15.377-37.123 15.377h-41.146c-22.781 0-37.5 14.313-37.5 36.464 0 22.136-16.223 27.458-28.34 28.347.138-.179.286-.35.42-.532 7.154-9.709 8.781-22.507 4.583-36.037zm-47.04 164.723c-1.047-1.339-4.056-6.582-4.056-22.5s3.009-21.161 4.056-22.5h60.625l-45 45zm75.624-60h-77.18c-1.528 0-6.854.511-11.24 7.09-4.212 6.318-6.26 16.265-6.26 30.41 0 9.243.88 16.683 2.662 22.5h-11.603c-1.534-5.983-3.059-14.75-3.059-22.5 0-10.324 2.706-22.453 4.535-27.399 1.437-3.885-.549-8.199-4.434-9.635-3.885-1.435-8.199.549-9.635 4.434-2.113 5.715-5.466 19.62-5.466 32.6 0 7.835 1.223 15.996 2.656 22.5h-10.601c-1.046-1.339-4.055-6.582-4.055-22.5 0-10.324 2.706-22.453 4.535-27.399 1.437-3.885-.549-8.199-4.434-9.635-3.885-1.435-8.199.549-9.635 4.434-2.113 5.715-5.466 19.62-5.466 32.6 0 34.796 13.395 37.5 17.5 37.5h56.18l-64.938 64.938c-30.199-37.424-46.742-84.14-46.742-132.438 0-116.346 94.654-211 211-211 17.52 0 34.829 2.188 51.565 6.404l-20.731 20.355c-7.055 6.927-16.385 10.742-26.272 10.742h-42.628c-12.559 0-23.14 4.973-29.792 14.003-6.895 9.358-8.621 21.907-4.735 34.429l5.365 17.291c2.79 8.99 1.983 16.837-2.333 22.695-4.486 6.089-12.688 9.582-22.504 9.582-34.396 0-54.297 13.281-64.526 43.063-1.346 3.918.739 8.184 4.657 9.53.808.277 1.629.409 2.437.409 3.114 0 6.024-1.956 7.093-5.065 5.208-15.164 12.999-26.435 30.958-30.867-6.465 6.609-11.442 15.215-15.144 25.995-1.346 3.917.739 8.184 4.657 9.529.808.277 1.629.409 2.437.409 3.114 0 6.024-1.956 7.093-5.065 6.79-19.77 17.949-32.937 50.34-32.937 29.299 0 47.5-16.668 47.5-43.5 0-13.841 7.991-21.464 22.5-21.464h41.146c18.03 0 34.98-7.021 47.73-19.771l26.194-26.194c3.203 2.3 6.353 4.684 9.434 7.17z"/><path d="m104.976 420.998c.071 2.077 1 4.031 2.566 5.397 41.123 35.857 93.847 55.605 148.458 55.605 60.366 0 117.12-23.508 159.806-66.194s66.194-99.439 66.194-159.806c0-54.611-19.748-107.335-55.604-148.458-1.366-1.566-3.32-2.496-5.397-2.566-2.094-.067-4.09.724-5.56 2.192l-308.271 308.271c-1.47 1.469-2.263 3.482-2.192 5.559zm175.344-157.498h53.622c1.534 5.982 3.059 14.748 3.059 22.5 0 7.749-1.525 16.517-3.06 22.5h-74.728c-4.142 0-7.5 3.358-7.5 7.5s3.358 7.5 7.5 7.5h158.287c4.105 0 17.5-2.704 17.5-37.5s-13.395-37.5-17.5-37.5h-122.18l124.938-124.938c30.199 37.424 46.742 84.14 46.742 132.438 0 116.346-94.654 211-211 211-48.298 0-95.014-16.543-132.438-46.742zm139.68 22.5c0 15.918-3.009 21.161-4.056 22.5h-66.601c1.433-6.505 2.656-14.666 2.656-22.5 0-7.836-1.223-15.996-2.656-22.5h66.6c1.048 1.339 4.057 6.582 4.057 22.5z"/></g></svg>