<svg id="Capa_1" enable-background="new 0 0 512.001 512.001" height="512" viewBox="0 0 512.001 512.001" width="512" xmlns="http://www.w3.org/2000/svg"><g><path d="m504.501 140.036c4.143 0 7.5-3.358 7.5-7.5v-43.5c0-10.026-4.083-19.773-11.202-26.742-16.844-16.49-38.751-30.125-63.354-39.433-21.923-8.293-45.384-12.861-66.063-12.861-41.213 0-82.457 12.452-130.214 26.87l-91.907 27.716c-15.954 4.811-26.674 19.239-26.674 35.903v46.584c0 4.142 3.357 7.5 7.5 7.5s7.5-3.358 7.5-7.5v-46.583c0-9.999 6.432-18.655 16.004-21.542l86.182-25.989v14.074c0 4.142 3.357 7.5 7.5 7.5s7.5-3.358 7.5-7.5v-18.597c42.727-12.851 80.219-23.436 116.609-23.436 24.562 0 56.839 7.416 85.619 23.446v180.673c-28.781 16.03-61.057 23.445-85.619 23.445-36.39 0-73.882-10.584-116.609-23.435v-132.096c0-4.142-3.357-7.5-7.5-7.5s-7.5 3.358-7.5 7.5v127.573l-86.182-25.989c-9.572-2.887-16.004-11.543-16.004-21.542 0-4.142-3.357-7.5-7.5-7.5s-7.5 3.358-7.5 7.5c0 16.664 10.72 31.092 26.674 35.903l91.907 27.716c14.796 4.467 28.965 8.744 42.704 12.522l-6.292 23.483-3.299-.884c-4.001-1.071-8.113 1.303-9.186 5.304s1.302 8.113 5.303 9.186l3.299.884-5.531 20.643-3.571-.957c-4.002-1.073-8.114 1.303-9.186 5.304s1.302 8.113 5.303 9.186l3.571.957-14.294 53.345c-1.608 6.001-.645 12.465 2.645 17.736 3.289 5.27 8.672 8.977 14.77 10.169l.13.025-5.77 21.534c-.852 3.176.466 6.537 3.249 8.289l3.136 1.974c-14.094 16.949-47.974 47.606-88.861 47.606-23.767 0-44.12-7.276-58.861-21.042-13.847-12.931-21.473-30.81-21.473-50.345s7.626-37.414 21.473-50.345c14.741-13.766 35.095-21.042 58.861-21.042 14.689 0 32.346 2.403 53.977 7.345 4.038.923 8.061-1.602 8.982-5.641.923-4.038-1.603-8.059-5.641-8.982-22.741-5.196-41.49-7.722-57.318-7.722-55.24 0-95.334 36.331-95.334 86.386s40.094 86.388 95.334 86.388c47.986 0 86.164-35.238 101.654-54.554l3.952 2.488c1.233.776 2.617 1.153 3.991 1.153 2.086 0 4.147-.869 5.616-2.525l26.994-30.45c2.158.312 4.304.472 6.428.472 17.645-.001 33.622-10.507 40.611-26.751 46.288 14.098 94.443 26.745 135.966 26.745 4.143 0 7.5-3.358 7.5-7.5s-3.357-7.5-7.5-7.5c-39.599 0-86.447-12.341-131.625-26.104l30.302-113.09c11.44-2.18 23.054-5.44 34.267-9.682 24.603-9.307 46.51-22.943 63.354-39.433 7.118-6.97 11.201-16.716 11.201-26.742v-25.993c0-4.142-3.357-7.5-7.5-7.5s-7.5 3.358-7.5 7.5v25.993c0 6.018-2.44 11.858-6.694 16.023-5.688 5.568-11.845 10.608-18.306 15.159v-161.855c6.46 4.552 12.617 9.591 18.305 15.159 4.255 4.165 6.695 10.006 6.695 16.023v43.5c.002 4.142 3.359 7.5 7.502 7.5zm-217.002 293.814-9.816-6.179 4.596-17.148 21.972 4.432zm68.685-52.031c-3.892 14.526-17.996 23.711-32.847 21.41l-53.055-10.379c-2.062-.403-3.811-1.607-4.923-3.39s-1.426-3.882-.882-5.912l33.898-126.508c25.188 6.331 49.104 10.525 73.007 10.525 5.065 0 10.299-.278 15.634-.814z"/><path d="m11.562 98.841c11.952-7.7 24.589-7.699 36.541 0 8.511 5.482 17.452 8.223 26.394 8.223s17.885-2.741 26.395-8.223c3.482-2.243 4.486-6.884 2.243-10.367-2.241-3.482-6.883-4.485-10.366-2.244-11.954 7.701-24.59 7.699-36.542 0-17.02-10.963-35.768-10.963-52.787 0-3.482 2.243-4.486 6.884-2.244 10.367 2.243 3.483 6.885 4.488 10.366 2.244z"/><path d="m11.562 138.841c11.952-7.7 24.589-7.699 36.541 0 8.511 5.482 17.452 8.223 26.394 8.223s17.885-2.741 26.395-8.223c3.482-2.243 4.486-6.884 2.243-10.367-2.241-3.481-6.883-4.486-10.366-2.244-11.954 7.701-24.59 7.699-36.542 0-17.02-10.963-35.768-10.963-52.787 0-3.482 2.243-4.486 6.884-2.244 10.367 2.243 3.483 6.885 4.487 10.366 2.244z"/><path d="m103.135 168.475c-2.241-3.481-6.883-4.486-10.366-2.244-11.954 7.701-24.59 7.699-36.542 0-17.02-10.963-35.768-10.963-52.787 0-3.482 2.243-4.486 6.884-2.244 10.367 2.244 3.482 6.886 4.487 10.367 2.244 11.952-7.7 24.589-7.699 36.541 0 8.511 5.482 17.452 8.223 26.394 8.223s17.885-2.741 26.395-8.223c3.481-2.244 4.485-6.885 2.242-10.367z"/></g></svg>