<svg id="Capa_1" enable-background="new 0 0 512 512" height="512" viewBox="0 0 512 512" width="512" xmlns="http://www.w3.org/2000/svg"><g><path d="m433.59 361.823c-15.067-4.177-36.535-9.176-64.09-13.262v-65.21c0-12.407-10.094-22.5-22.5-22.5s-22.5 10.093-22.5 22.5v60.055c-3.255-.269-6.565-.522-9.933-.756-4.132-.288-7.714 2.83-8.002 6.962-.287 4.132 2.83 7.715 6.963 8.002 29.356 2.04 54.308 5.495 74.711 9.26-36.584 17.283-109.451 25.604-179.604 19.237-4.116-.376-7.773 2.666-8.147 6.791s2.667 7.773 6.792 8.147c15.242 1.384 31.476 2.098 47.96 2.098 61.103 0 125.546-9.824 154.787-31.791 7.42 1.695 13.95 3.367 19.556 4.921 16.144 4.476 27.418 19.329 27.418 36.12v55.771c0 12.407-10.094 22.5-22.5 22.5h-31.921c-4.143 0-7.5 3.358-7.5 7.5s3.357 7.5 7.5 7.5h31.92c20.678 0 37.5-16.822 37.5-37.5v-55.771c0-23.506-15.795-44.303-38.41-50.574zm-94.09-78.472c0-4.136 3.364-7.5 7.5-7.5s7.5 3.364 7.5 7.5v63.163c-4.842-.606-9.837-1.181-15-1.714z"/><path d="m372.579 490.669h-295.079c-12.406 0-22.5-10.093-22.5-22.5v-55.771c0-16.791 11.274-31.644 27.418-36.12 5.813-1.612 12.341-3.276 19.552-4.929 19.495 14.682 52.217 22.343 76.865 26.216.395.062.786.092 1.173.092 3.629 0 6.819-2.64 7.4-6.337.643-4.092-2.153-7.93-6.245-8.573-23.711-3.726-43.394-9.208-57.456-15.884 33.27-6.154 77.289-11.194 132.292-11.194 10.303 0 20.608.181 30.63.538 4.104.156 7.615-3.088 7.762-7.228s-3.089-7.615-7.229-7.762c-10.198-.363-20.683-.547-31.163-.547-25.042 0-47.86 1.035-68.5 2.736v-60.053c0-12.407-10.094-22.5-22.5-22.5s-22.5 10.093-22.5 22.5v65.189c-26.599 3.939-47.955 8.809-64.09 13.283-22.614 6.269-38.409 27.066-38.409 50.573v55.771c0 20.678 16.822 37.5 37.5 37.5h295.079c4.143 0 7.5-3.358 7.5-7.5s-3.357-7.5-7.5-7.5zm-215.079-207.318c0-4.136 3.364-7.5 7.5-7.5s7.5 3.364 7.5 7.5v61.436c-5.157.531-10.148 1.106-15 1.711z"/><path d="m87.5 410.669c-4.143 0-7.5 3.358-7.5 7.5v40c0 4.142 3.357 7.5 7.5 7.5h60c4.143 0 7.5-3.358 7.5-7.5v-40c0-4.142-3.357-7.5-7.5-7.5zm52.5 40h-45v-25h45z"/><circle cx="412.079" cy="438.169" r="8"/><circle cx="372.079" cy="438.169" r="8"/><circle cx="332.079" cy="438.169" r="8"/><circle cx="292.079" cy="438.169" r="8"/><path d="m509.804 111.46c-34.262-34.261-74.212-60.789-118.741-78.846-43.007-17.44-88.448-26.283-135.063-26.283s-92.056 8.843-135.062 26.283c-44.53 18.058-84.48 44.585-118.741 78.846-2.929 2.929-2.929 7.678 0 10.606 2.929 2.929 7.677 2.929 10.607 0 64.96-64.959 151.329-100.735 243.196-100.735s178.236 35.775 243.196 100.735c1.465 1.464 3.385 2.197 5.304 2.197s3.839-.732 5.304-2.197c2.929-2.928 2.929-7.677 0-10.606z"/><path d="m350.463 80.835c-46.121-14.53-95.806-18.208-143.677-10.639-4.092.647-6.884 4.488-6.237 8.58s4.486 6.882 8.579 6.237c45.595-7.208 92.907-3.706 136.828 10.129 45.371 14.292 87.257 39.751 121.13 73.625 1.465 1.464 3.385 2.197 5.304 2.197s3.839-.732 5.304-2.197c2.929-2.929 2.929-7.678 0-10.606-35.573-35.573-79.569-62.312-127.231-77.326z"/><path d="m181.855 90.637c4.014-1.025 6.437-5.109 5.411-9.123-1.024-4.014-5.112-6.434-9.122-5.412-54.276 13.859-104.013 42.234-143.837 82.058-2.929 2.929-2.929 7.678 0 10.606 1.465 1.464 3.385 2.197 5.304 2.197s3.839-.732 5.304-2.197c37.919-37.92 85.273-64.937 136.94-78.129z"/><path d="m440.28 217.662c1.92 0 3.839-.732 5.304-2.197 2.929-2.929 2.929-7.678 0-10.606-50.64-50.639-117.969-78.528-189.584-78.528s-138.943 27.889-189.583 78.528c-2.929 2.929-2.929 7.678 0 10.606 2.93 2.928 7.678 2.93 10.607 0 47.806-47.806 111.368-74.134 178.976-74.134s131.17 26.328 178.976 74.134c1.465 1.465 3.385 2.197 5.304 2.197z"/><path d="m98.528 251.559c-2.929 2.929-2.929 7.678 0 10.606s7.677 2.929 10.607 0c39.229-39.229 91.387-60.834 146.865-60.834s107.637 21.604 146.865 60.834c1.465 1.465 3.384 2.197 5.304 2.197 1.919 0 3.839-.732 5.304-2.197 2.929-2.929 2.929-7.678 0-10.606-42.063-42.063-97.987-65.228-157.473-65.228s-115.41 23.165-157.472 65.228z"/></g></svg>