<svg id="Capa_1" enable-background="new 0 0 512 512" height="512" viewBox="0 0 512 512" width="512" xmlns="http://www.w3.org/2000/svg"><g><path d="m299.087 382.153h-211.587c-4.142 0-7.5 3.358-7.5 7.5s3.358 7.5 7.5 7.5h211.587c6.776 0 12.5 7.098 12.5 15.5 0 4.423-1.176 9.5-10.348 9.5h-56.305c-4.142 0-7.5 3.358-7.5 7.5s3.358 7.5 7.5 7.5h56.305c15.398 0 25.348-9.617 25.348-24.5 0-16.818-12.337-30.5-27.5-30.5z"/><path d="m486.174 146.321c-3.516-3.941-7.04-7.258-10.317-10.008.72-1.151 1.143-2.508 1.143-3.966v-75c0-12.407-10.093-22.5-22.5-22.5h-60c-12.407 0-22.5 10.093-22.5 22.5v75c0 1.458.423 2.814 1.143 3.966-3.277 2.75-6.801 6.067-10.317 10.008-4.405 4.937-9.126 11.25-13.311 19.037-7.103-13.205-16.041-22.677-23.649-29.058.715-1.149 1.135-2.5 1.135-3.952v-75c0-12.407-10.093-22.5-22.5-22.5h-60c-12.407 0-22.5 10.093-22.5 22.5v75c0 1.441.414 2.782 1.118 3.925-13.57 11.352-31.381 32.479-35.334 67.053-.47 4.115 2.484 7.833 6.6 8.304.29.033.577.049.861.049 3.761 0 7.005-2.823 7.442-6.648 4.917-43.006 34.593-61.456 41.465-65.182h60.682c5.523 3.031 26.749 16.231 36.8 44.659-2.838 9.511-4.634 20.424-4.634 32.841v21.316c0 4.142 3.358 7.5 7.5 7.5s7.5-3.358 7.5-7.5v-21.316c0-51.849 34.62-73.423 42.15-77.5h60.681c7.31 4.025 42.169 25.939 42.169 77.5v121.276c0 4.142 3.358 7.5 7.5 7.5s7.5-3.358 7.5-7.5v-121.278c-.001-34.781-14.045-57.822-25.827-71.026zm-249.174-21.474v-42.046c2.729.549 5.871.934 9.383.934 5.697 0 12.334-.999 19.602-3.888h46.015v45zm7.5-75h60c4.136 0 7.5 3.364 7.5 7.5v7.5h-47.5c-1.015 0-2.019.206-2.951.605-11.115 4.756-19.904 3.394-24.549 1.948v-10.053c0-4.136 3.364-7.5 7.5-7.5zm142.5 75v-42.046c2.729.549 5.871.934 9.383.934 5.697 0 12.334-.999 19.602-3.888h46.015v45zm7.5-75h60c4.136 0 7.5 3.364 7.5 7.5v7.5h-47.5c-1.015 0-2.019.206-2.951.605-11.114 4.756-19.904 3.394-24.549 1.948v-10.053c0-4.136 3.364-7.5 7.5-7.5z"/><path d="m504.5 361.124c-4.142 0-7.5 3.358-7.5 7.5v56.029c0 4.136-3.364 7.5-7.5 7.5h-124.555c1.081-4.885 1.642-10.062 1.642-15.5 0-15.865-5.256-31.901-14.587-45.021v-102.969c0-4.142-3.358-7.5-7.5-7.5s-7.5 3.358-7.5 7.5v87.282c-6.127-4.732-12.875-8.298-20.031-10.621 2.329-4.308 3.618-9.623 3.618-15.671 0-15.678-11.094-27.5-25.805-27.5h-5.518c1.924-3.753 3.018-8 3.018-12.5v-16.596c0-17.741-12.093-32.799-29.409-36.618-19.207-4.237-47.834-9.287-75.145-9.287-27.31 0-55.938 5.05-75.144 9.286-17.316 3.819-29.41 18.877-29.41 36.618v16.596c0 4.884 1.286 9.471 3.528 13.451-21.714 2.959-41.786 12.794-57.579 28.436-18.507 18.333-29.123 43.159-29.123 68.114 0 21.668 7.818 41.501 22.013 55.844 13.821 13.965 32.398 21.656 52.312 21.656h229.067c18.39 0 34.084-5.562 45.385-16.085 4.34-4.041 7.915-8.709 10.696-13.915h130.027c12.407 0 22.5-10.093 22.5-22.5v-56.029c0-4.143-3.358-7.5-7.5-7.5zm-201.108 101.029h-229.068c-33.82 0-59.324-26.869-59.324-62.5 0-20.979 8.996-41.921 24.68-57.455 16.307-16.15 37.968-25.045 60.996-25.045h32.723c4.142 0 7.5-3.358 7.5-7.5s-3.358-7.5-7.5-7.5h-22.723c-6.893 0-12.5-5.607-12.5-12.5v-16.596c0-10.645 7.254-19.679 17.641-21.97 18.478-4.076 45.954-8.934 71.913-8.934s53.435 4.858 71.914 8.935c10.386 2.291 17.64 11.325 17.64 21.97v16.596c0 6.893-5.607 12.5-12.5 12.5h-101.385c-4.142 0-7.5 3.358-7.5 7.5s3.358 7.5 7.5 7.5h131.383c7.423 0 10.805 6.479 10.805 12.5 0 5.703-1.501 12.5-8.652 12.5h-202.847c-12.913 0-26.25 5.328-36.59 14.618-11.284 10.135-17.498 23.589-17.498 37.881 0 20.102 16.802 42.5 40.912 42.5h134.022c4.142 0 7.5-3.358 7.5-7.5s-3.358-7.5-7.5-7.5h-134.022c-14.831 0-25.912-14.519-25.912-27.5 0-21.463 20.637-37.5 39.088-37.5h202.847c32.692 0 54.652 30.766 54.652 59.5 0 28.065-18.467 45.5-48.195 45.5z"/></g></svg>