<svg id="Capa_1" enable-background="new 0 0 512 512" height="512" viewBox="0 0 512 512" width="512" xmlns="http://www.w3.org/2000/svg"><g><path d="m474.5 17.927h-354.686c-4.142 0-7.5 3.358-7.5 7.5s3.358 7.5 7.5 7.5h354.686c12.407 0 22.5 10.093 22.5 22.5v142.379h-38.486l-8.868-13.301c-6.971-10.457-18.635-16.699-31.202-16.699h-324.888c-12.567 0-24.231 6.243-31.202 16.699l-8.868 13.301h-38.486v-142.379c0-12.407 10.093-22.5 22.5-22.5h52.314c4.142 0 7.5-3.358 7.5-7.5s-3.358-7.5-7.5-7.5h-52.314c-20.678 0-37.5 16.822-37.5 37.5v249.879c0 20.678 16.822 37.5 37.5 37.5h327.809c4.142 0 7.5-3.358 7.5-7.5s-3.358-7.5-7.5-7.5h-35.642v-15h117.333v15h-51.691c-4.142 0-7.5 3.358-7.5 7.5s3.358 7.5 7.5 7.5h79.191c20.678 0 37.5-16.822 37.5-37.5v-249.879c0-20.678-16.822-37.5-37.5-37.5zm-409.5 294.879h31c4.142 0 7.5-3.358 7.5-7.5s-3.358-7.5-7.5-7.5h-31v-7.5c0-4.136 3.364-7.5 7.5-7.5h109.833v15h-56.333c-4.142 0-7.5 3.358-7.5 7.5s3.358 7.5 7.5 7.5h56.333v15h-117.333zm249.667-30v15h-117.334v-15zm0 45h-117.334v-15h117.333v15zm15-30v-15h109.833c4.136 0 7.5 3.364 7.5 7.5v7.5zm144.833 30h-12.5v-37.5c0-12.407-10.093-22.5-22.5-22.5h-367c-12.407 0-22.5 10.093-22.5 22.5v37.5h-12.5c-12.407 0-22.5-10.093-22.5-22.5v-92.5h277.167c4.142 0 7.5-3.358 7.5-7.5s-3.358-7.5-7.5-7.5h-220.653l3.32-4.98c4.183-6.274 11.181-10.02 18.721-10.02h324.889c7.54 0 14.539 3.746 18.721 10.02l3.32 4.98h-118.318c-4.142 0-7.5 3.358-7.5 7.5s3.358 7.5 7.5 7.5h174.833v92.5c0 12.407-10.093 22.5-22.5 22.5z"/><path d="m444.5 112.927c15.164 0 27.5-12.336 27.5-27.5s-12.336-27.5-27.5-27.5-27.5 12.336-27.5 27.5 12.336 27.5 27.5 27.5zm0-40c6.893 0 12.5 5.607 12.5 12.5s-5.607 12.5-12.5 12.5-12.5-5.607-12.5-12.5 5.607-12.5 12.5-12.5z"/><path d="m101.936 360.445c-2.531-3.278-7.242-3.882-10.52-1.352-3.278 2.531-3.884 7.241-1.352 10.52 12.848 16.639 12.848 34.965 0 51.604-17.161 22.224-17.161 47.716 0 69.94 1.478 1.914 3.697 2.917 5.941 2.917 1.601 0 3.214-.511 4.579-1.564 3.278-2.531 3.884-7.241 1.352-10.52-12.848-16.639-12.848-34.966 0-51.604 17.162-22.225 17.162-47.717 0-69.941z"/><path d="m181.936 360.445c-2.531-3.278-7.241-3.882-10.52-1.352-3.278 2.531-3.884 7.241-1.352 10.52 12.848 16.639 12.848 34.965 0 51.604-17.161 22.224-17.161 47.716 0 69.94 1.478 1.914 3.697 2.917 5.941 2.917 1.601 0 3.214-.511 4.579-1.564 3.278-2.531 3.884-7.241 1.352-10.52-12.848-16.639-12.848-34.966 0-51.604 17.162-22.225 17.162-47.717 0-69.941z"/><path d="m261.936 360.445c-2.531-3.278-7.241-3.882-10.52-1.352-3.278 2.531-3.884 7.241-1.352 10.52 12.848 16.639 12.848 34.965 0 51.604-17.161 22.224-17.161 47.716 0 69.94 1.478 1.914 3.697 2.917 5.941 2.917 1.601 0 3.214-.511 4.579-1.564 3.278-2.531 3.884-7.241 1.352-10.52-12.848-16.639-12.848-34.966 0-51.604 17.162-22.225 17.162-47.717 0-69.941z"/><path d="m341.936 360.445c-2.531-3.278-7.241-3.882-10.52-1.352-3.278 2.531-3.884 7.241-1.352 10.52 12.848 16.639 12.848 34.965 0 51.604-17.161 22.224-17.161 47.716 0 69.94 1.478 1.914 3.697 2.917 5.941 2.917 1.601 0 3.214-.511 4.579-1.564 3.278-2.531 3.884-7.241 1.352-10.52-12.848-16.639-12.848-34.966 0-51.604 17.162-22.225 17.162-47.717 0-69.941z"/><path d="m421.936 360.445c-2.531-3.278-7.242-3.882-10.52-1.352-3.278 2.531-3.884 7.241-1.352 10.52 12.848 16.639 12.848 34.965 0 51.604-17.161 22.224-17.161 47.716 0 69.94 1.478 1.914 3.697 2.917 5.941 2.917 1.601 0 3.214-.511 4.579-1.564 3.278-2.531 3.884-7.241 1.352-10.52-12.848-16.639-12.848-34.966 0-51.604 17.162-22.225 17.162-47.717 0-69.941z"/></g></svg>