<svg id="Capa_1" enable-background="new 0 0 487.5 487.5" height="512" viewBox="0 0 487.5 487.5" width="512" xmlns="http://www.w3.org/2000/svg"><g><path d="m466.282 449.471c-4.227-4.43-10.161-6.971-16.282-6.971h-125.114l-42.549-93.948c-1.781-3.932-4.573-7.125-7.95-9.395 14.569-21.099 32.89-43.689 50.741-65.173 34.062-40.994 58.859-76.832 73.699-106.518 1.853-3.705.351-8.209-3.354-10.062-3.703-1.852-8.21-.35-10.062 3.355-14.327 28.658-38.491 63.527-71.82 103.639-19.461 23.42-39.494 48.175-54.908 71.178-.362.052-.723.091-1.085.161-33.445 6.421-61.347 12.677-84.38 18.952 15.081-35.998 43.633-78.739 88.822-133.125 96.485-116.121 84.413-154.376 78.611-172.76-.447-1.417-.834-2.642-1.059-3.608-.935-4.035-4.964-6.548-9-5.612-4.035.936-6.548 4.965-5.611 9 .355 1.536.846 3.089 1.365 4.734 1.11 3.517 2.574 8.175 2.892 14.743-19.855-5.48-48.317-8.061-88.238-8.061-39.929 0-68.384 2.581-88.239 8.062.318-6.569 1.783-11.227 2.893-14.744.519-1.645 1.009-3.197 1.366-4.733.936-4.035-1.576-8.065-5.611-9.001-4.038-.935-8.065 1.577-9.001 5.611-.224.967-.61 2.191-1.058 3.608-5.802 18.384-17.876 56.638 78.611 172.761 3.936 4.736 7.769 9.416 11.443 13.963-15.973 20.215-29.498 38.813-40.765 56.084-6.329-7.928-13.539-16.754-22.23-27.214-45.715-55.019-73.927-99.833-83.85-133.199-10.998-36.978 3.445-51.419 8.19-56.166l41.054-41.054c12.95-12.947 47.012-18.978 107.197-18.978 60.186 0 94.248 6.031 107.196 18.98l41.055 41.054c4.955 4.956 20.036 20.036 7.123 59.581-1.285 3.938.864 8.172 4.802 9.458 3.937 1.285 8.172-.864 9.458-4.801 6.307-19.317 7.487-36.134 3.578-50.308l18.208 9.905c12.077 6.57 19.58 19.192 19.58 32.941v233.516c0 20.677-16.822 37.5-37.5 37.5l-78.42.001c-4.143 0-7.5 3.358-7.5 7.5s3.358 7.5 7.5 7.5l78.42-.001c28.948 0 52.5-23.552 52.5-52.5v-233.517c0-19.248-10.504-36.919-27.412-46.118l-40.497-22.03-40.287-40.287c-16.383-16.384-51.614-23.374-117.804-23.374-66.189 0-101.42 6.99-117.803 23.374l-40.286 40.286-40.499 22.031c-16.908 9.198-27.412 26.87-27.412 46.118v32.304c0 4.142 3.358 7.5 7.5 7.5s7.5-3.358 7.5-7.5v-32.304c0-13.749 7.502-26.371 19.58-32.941l18.197-9.899c-3.655 13.243-2.866 28.787 2.404 46.507 10.652 35.818 39.009 81.125 86.69 138.509 10.155 12.221 18.263 22.183 25.29 31.071-12.116 19.935-21.034 38.064-27.085 54.891-18.942 5.862-33.825 11.783-45.131 17.912-10.746 5.825-21.645 13.245-27.743 24.967l-14.702-.002c-20.678 0-37.5-16.823-37.5-37.5v-171.211c0-4.142-3.358-7.5-7.5-7.5s-7.5 3.358-7.5 7.5v171.211c0 28.948 23.551 52.5 52.5 52.5l10.153.001c-.241 2.012-.375 4.111-.375 6.313 0 8.398 1.417 15.523 2.875 20.637-7.485 3.658-12.653 11.348-12.653 20.225 0 12.407 10.093 22.5 22.5 22.5h359.576c12.274 0 22.332-9.41 22.897-21.421.295-6.217-1.904-12.115-6.191-16.608zm-234.785-237.493c-55.165-66.392-73.03-105.148-77.517-128.652 18.316-5.597 46.89-8.326 87.02-8.326 40.124 0 68.703 2.728 87.02 8.325-4.487 23.504-22.351 62.26-77.517 128.653-3.251 3.912-6.417 7.767-9.502 11.567-3.081-3.792-6.258-7.661-9.504-11.567zm218.079 260.522h-359.576c-4.136 0-7.5-3.364-7.5-7.5s3.364-7.5 7.5-7.5h48.95c4.142 0 7.5-3.358 7.5-7.5s-3.358-7.5-7.5-7.5h-43.814c-1.275-3.936-2.859-10.41-2.859-18.362 0-12.125 4.151-21.89 24.817-33.093 25.102-13.608 71.986-26.881 143.331-40.577 3.414-.656 6.811 1.101 8.247 4.272l39.746 87.76h-139.468c-4.142 0-7.5 3.358-7.5 7.5s3.358 7.5 7.5 7.5h281.05c2.07 0 3.998.826 5.428 2.325 1.429 1.497 2.161 3.467 2.063 5.548-.185 3.93-3.736 7.127-7.915 7.127z"/><path d="m426.539 309.808c-2.582-7.945-13.529-9.048-27.39-10.446-2.373-.239-5.394-.543-7.29-.833-.861-1.715-2.084-4.493-3.045-6.676-5.612-12.75-10.044-22.821-18.398-22.821s-12.786 10.071-18.398 22.821c-.961 2.184-2.184 4.961-3.045 6.676-1.896.29-4.917.594-7.29.833-13.86 1.397-24.808 2.501-27.39 10.446s5.627 15.273 16.019 24.55c1.78 1.589 4.044 3.61 5.408 4.959-.311 1.894-.954 4.859-1.461 7.19-2.954 13.614-5.288 24.366 1.471 29.277 1.792 1.302 3.775 1.869 5.949 1.869 6.026 0 13.506-4.361 22.35-9.518 2.062-1.202 4.683-2.73 6.388-3.611 1.705.881 4.326 2.409 6.388 3.611 12.034 7.017 21.54 12.561 28.298 7.648 6.759-4.91 4.425-15.663 1.471-29.276-.506-2.332-1.149-5.297-1.46-7.191 1.364-1.349 3.628-3.371 5.408-4.959 10.39-9.276 18.598-16.604 16.017-24.549zm-26.008 13.36c-6.448 5.756-9.106 8.218-10.13 11.369-1.023 3.151-.32 6.705 1.513 15.152.589 2.714 1.56 7.189 2.132 10.879-3.332-1.685-7.288-3.992-9.687-5.39-7.468-4.354-10.631-6.121-13.943-6.121s-6.476 1.767-13.942 6.121c-2.399 1.399-6.355 3.706-9.688 5.391.572-3.69 1.544-8.165 2.133-10.879 1.833-8.448 2.536-12.001 1.513-15.152-1.023-3.15-3.682-5.612-10.13-11.369-2.071-1.849-5.487-4.899-8.12-7.548 3.687-.596 8.243-1.055 11.006-1.334 8.601-.867 12.198-1.296 14.878-3.243 2.681-1.947 4.2-5.235 7.683-13.148 1.118-2.542 2.963-6.732 4.669-10.054 1.706 3.322 3.551 7.513 4.669 10.054 3.482 7.913 5.002 11.201 7.683 13.147 2.68 1.948 6.277 2.377 14.878 3.244 2.763.279 7.318.738 11.005 1.334-2.634 2.648-6.05 5.698-8.122 7.547z"/></g></svg>