<svg id="Capa_1" enable-background="new 0 0 512 512" height="512" viewBox="0 0 512 512" width="512" xmlns="http://www.w3.org/2000/svg"><g><path d="m433.867 229.092c-1.104-1.38-2.277-2.683-3.495-3.931v-108.164c0-11.594-8.663-21.212-20.15-22.373-22.606-2.285-40.179-10.811-58.783-19.836-24.54-11.905-52.354-25.4-95.439-25.4-4.143 0-7.5 3.358-7.5 7.5s3.357 7.5 7.5 7.5c39.639 0 64.677 12.147 88.892 23.895 18.962 9.199 38.569 18.712 63.822 21.265 3.796.384 6.658 3.586 6.658 7.449v97.434c-4.711-2.233-9.76-3.744-15-4.491v-36.567c0-23.82-22.681-33.983-75.838-33.983-27.555 0-55.539 2.183-68.534 15.129-12.995-12.946-40.979-15.129-68.534-15.129-53.157 0-75.838 10.163-75.838 33.983v36.567c-5.24.747-10.289 2.258-15 4.491v-97.434c0-3.863 2.862-7.065 6.658-7.449 25.254-2.553 44.86-12.065 63.822-21.265 18.19-8.825 37-17.951 61.984-21.871 4.093-.642 6.89-4.479 6.247-8.572-.642-4.091-4.472-6.888-8.571-6.247-27.195 4.266-47.027 13.888-66.207 23.193-18.604 9.026-36.177 17.551-58.783 19.836-11.487 1.161-20.15 10.779-20.15 22.373v108.164c-1.218 1.248-2.391 2.551-3.495 3.931l-56.768 70.959c-13.777 17.224-21.365 38.855-21.365 60.91v115.93c0 12.407 10.094 22.5 22.5 22.5h261.905c4.143 0 7.5-3.358 7.5-7.5s-3.357-7.5-7.5-7.5h-261.905c-4.136 0-7.5-3.364-7.5-7.5v-115.93c0-18.662 6.42-36.965 18.078-51.538 0 0 24.767-30.958 24.768-30.959 7.155-8.944 17.828-14.074 29.282-14.074h268.655c4.143 0 7.5-3.358 7.5-7.5s-3.357-7.5-7.5-7.5h-268.655c-2.134 0-4.246.136-6.332.386l9.05-11.313c6.83-8.538 16.868-13.588 27.728-14.03 2.534 1.09 7.509 2.951 15.401 4.766 14.978 3.444 33.311 5.191 54.491 5.191 39.728 0 60.777-6.332 68.534-9.339 7.757 3.008 28.806 9.339 68.534 9.339 42.666 0 63.659-7.306 69.874-9.957 10.867.438 20.912 5.488 27.746 14.031l9.05 11.313c-2.086-.25-4.198-.386-6.332-.386h-39.089c-4.143 0-7.5 3.358-7.5 7.5s3.357 7.5 7.5 7.5h39.089c11.454 0 22.129 5.132 29.284 14.076l24.766 30.957c10.09 12.613 16.247 28.021 17.723 44.038h-459.145c-4.143 0-7.5 3.358-7.5 7.5s3.357 7.5 7.5 7.5h459.5v108.43c0 4.136-3.364 7.5-7.5 7.5h-175.095c-4.143 0-7.5 3.358-7.5 7.5s3.357 7.5 7.5 7.5h175.095c12.406 0 22.5-10.093 22.5-22.5v-115.93c0-22.055-7.588-43.686-21.365-60.908zm-307.239-17.252v-38.468c0-5.681 0-18.983 60.838-18.983 25.042 0 42.654 2.329 52.349 6.921 7.208 3.415 8.686 7.292 8.686 12.062v38.45c-7.651 2.622-26.646 7.567-61.034 7.567-34.393-.001-53.28-4.946-60.839-7.549zm136.872-.018v-38.45c0-4.771 1.478-8.647 8.686-12.062 9.693-4.592 27.307-6.921 52.349-6.921 60.838 0 60.838 13.303 60.838 18.983v38.464c-7.599 2.618-26.483 7.553-60.838 7.553-34.389-.001-53.384-4.946-61.035-7.567z"/><path d="m448.028 48.134c4.064.798 8.007-1.849 8.805-5.914 1.663-8.465 9.145-14.608 17.791-14.608 9.852 0 17.894 7.897 18.126 17.694l-.379 2.964c-1.336 5.461-4.499 11.781-9.405 18.792-31.026 44.33-35.31 50.025-35.464 50.228-1.732 2.263-2.033 5.312-.774 7.87 1.258 2.557 3.856 4.181 6.706 4.189l51.043.157h.023c4.132 0 7.487-3.343 7.5-7.477.013-4.142-3.335-7.51-7.477-7.523l-36.499-.112c5.296-7.472 13.763-19.489 27.23-38.732 6.117-8.74 10.091-16.934 11.811-24.352.058-.246.102-.494.134-.744l.495-3.875c.04-.315.061-.633.061-.951 0-18.269-14.862-33.131-33.131-33.131-15.797 0-29.469 11.236-32.51 26.717-.799 4.067 1.85 8.009 5.914 8.808z"/></g></svg>