<svg id="Capa_1" enable-background="new 0 0 512 512" height="512" viewBox="0 0 512 512" width="512" xmlns="http://www.w3.org/2000/svg"><g><path d="m490.635 300.051-56.768-70.96c-3.427-4.284-7.441-7.925-11.867-10.885v-80.163c0-13.046-6.58-24.929-17.602-31.787-22.131-13.769-70.839-36.868-148.398-36.868-26.112 0-51.125 2.633-74.343 7.824-4.042.904-6.586 4.914-5.683 8.956.904 4.042 4.915 6.588 8.956 5.683 22.146-4.952 46.057-7.463 71.07-7.463 73.831 0 119.702 21.681 140.474 34.604 6.591 4.102 10.526 11.224 10.526 19.051v73.272c-4.54-1.261-9.282-1.927-14.128-1.927h-27.518v-36.017c0-24.455-30.701-33.983-109.501-33.983-78.589 0-109.208 9.528-109.208 33.983v36.017h-27.518c-4.846 0-9.588.667-14.128 1.927v-73.272c0-7.827 3.935-14.949 10.526-19.051 8.199-5.101 21.979-12.563 41.066-19.151 3.916-1.352 5.994-5.621 4.643-9.537-1.352-3.916-5.622-5.992-9.536-4.643-16.383 5.655-31.219 12.584-44.097 20.595-11.021 6.859-17.601 18.742-17.601 31.787v80.163c-4.426 2.96-8.44 6.601-11.867 10.885l-56.768 70.96c-13.777 17.222-21.365 38.853-21.365 60.907v85.93c0 12.406 10.093 22.5 22.5 22.5h42.5v22.5c0 4.143 3.358 7.5 7.5 7.5h55c4.142 0 7.5-3.357 7.5-7.5v-22.5h149.396c4.142 0 7.5-3.357 7.5-7.5s-3.358-7.5-7.5-7.5h-156.896-55-50c-4.135 0-7.5-3.364-7.5-7.5v-85.93c0-18.662 6.42-36.964 18.078-51.536l24.772-30.965c7.156-8.941 17.827-14.07 29.278-14.07h240.727c4.142 0 7.5-3.357 7.5-7.5s-3.358-7.5-7.5-7.5h-240.727c-2.134 0-4.246.136-6.332.386l9.05-11.312c3.079-3.848 6.811-6.985 10.974-9.317.176-.087.347-.18.514-.28 5.387-2.906 11.47-4.477 17.794-4.477h33.827c6.504 2.017 36.449 10 102.898 10 66.532 0 96.681-7.999 103.182-10h33.836c6.324 0 12.406 1.571 17.794 4.477.167.1.339.193.514.28 4.163 2.331 7.896 5.468 10.974 9.317l9.05 11.312c-2.086-.25-4.198-.386-6.332-.386h-67.018c-4.142 0-7.5 3.357-7.5 7.5s3.358 7.5 7.5 7.5h67.018c11.452 0 22.123 5.128 29.278 14.07l24.772 30.965c10.09 12.613 16.247 28.02 17.723 44.036h-459.144c-4.142 0-7.5 3.357-7.5 7.5s3.358 7.5 7.5 7.5h459.5v78.43c0 4.136-3.365 7.5-7.5 7.5h-50-55-70.104c-4.142 0-7.5 3.357-7.5 7.5s3.358 7.5 7.5 7.5h62.604v22.5c0 4.143 3.358 7.5 7.5 7.5h55c4.142 0 7.5-3.357 7.5-7.5v-22.5h42.5c12.407 0 22.5-10.094 22.5-22.5v-85.93c0-22.054-7.588-43.685-21.365-60.907zm-370.635 169.337v15h-40v-15zm41.646-258.111v-37.905c0-2.349 0-7.234 13.949-11.697 15.328-4.902 41.581-7.286 80.259-7.286 38.701 0 65.005 2.385 80.416 7.29 14.085 4.483 14.085 9.536 14.085 11.693v37.892c-13.645 3.411-45.045 8.125-94.501 8.125-49.432-.001-80.683-4.711-94.208-8.112zm270.354 273.111h-40v-15h40z"/><path d="m459.067 27.612h14.261v94.311c0 4.143 3.358 7.5 7.5 7.5s7.5-3.357 7.5-7.5v-101.811c0-4.143-3.358-7.5-7.5-7.5h-21.761c-4.142 0-7.5 3.357-7.5 7.5s3.358 7.5 7.5 7.5z"/></g></svg>