<svg id="Capa_1" enable-background="new 0 0 512 512" height="512" viewBox="0 0 512 512" width="512" xmlns="http://www.w3.org/2000/svg"><g><path d="m498.159 183.282c-8.69-8.525-20.054-13.07-32.034-12.866-24.331.465-44.125 20.649-44.125 44.992v25.41c-4.478-2.884-9.572-4.817-15-5.583v-33.124c0-11.106-6.088-19.295-18.096-24.337-12.263-5.149-32.233-7.652-61.051-7.652-28.827 0-48.826 2.501-61.142 7.647-4.349 1.817-7.914 4.048-10.711 6.668-2.798-2.62-6.362-4.851-10.711-6.668-12.315-5.146-32.315-7.647-61.142-7.647-28.818 0-48.788 2.503-61.051 7.652-12.008 5.042-18.096 13.23-18.096 24.337v33.124c-5.428.766-10.522 2.699-15 5.583v-25.41c0-21.828-15.932-40.311-36.769-44.226v-13.077c0-22.264 14.154-42.187 35.221-49.576 10.066-3.531 21.82-6.749 34.934-9.564 4.05-.869 6.628-4.857 5.759-8.907-.87-4.051-4.858-6.634-8.907-5.759-13.728 2.947-26.092 6.338-36.75 10.076-27.069 9.494-45.256 35.105-45.256 63.73v12.833c-9.088 1.41-17.552 5.656-24.361 12.33-8.816 8.638-13.871 20.635-13.871 32.913v121.727c0 12.406 10.093 22.5 22.5 22.5h22.5v57.5c0 12.406 10.093 22.5 22.5 22.5h377c12.407 0 22.5-10.094 22.5-22.5v-57.5h22.5c12.407 0 22.5-10.094 22.5-22.5v-121.76c0-12.257-5.045-24.236-13.841-32.866zm-170.306 1.84c64.147 0 64.147 12.787 64.147 16.989v34.958c-8.061 2.445-27.997 7.028-64.147 7.028-36.166 0-56.208-4.587-64.353-7.046v-34.94c0-4.202 0-16.989 64.353-16.989zm-207.853 16.989c0-4.202 0-16.989 64.147-16.989 64.353 0 64.353 12.787 64.353 16.989v34.94c-8.145 2.459-28.187 7.046-64.353 7.046-36.157 0-56.088-4.584-64.147-7.029zm-105 135.797v-121.727c0-8.273 3.415-16.366 9.37-22.203 5.796-5.682 13.339-8.731 21.245-8.565 16.203.324 29.385 13.78 29.385 29.995v44.255l-22.909 56.743c-3.764 9.322-6.017 19.05-6.778 29.002h-22.813c-4.136 0-7.5-3.365-7.5-7.5zm429.5 87.5h-377c-4.136 0-7.5-3.364-7.5-7.5v-65c0-10.635 2.019-21.026 6-30.887 0 0 7.305-18.094 7.305-18.094 3.452-8.551 11.642-14.076 20.863-14.076h196.944c4.142 0 7.5-3.357 7.5-7.5s-3.358-7.5-7.5-7.5h-196.944c-3.316 0-6.543.453-9.636 1.268l4.922-12.192c3.453-8.551 11.642-14.076 20.864-14.076.212 0 .42-.014.627-.032 5.858 2.269 27.643 9.278 73.202 9.278 42.295 0 64.213-6.036 71.855-8.713 7.646 2.678 29.564 8.713 71.851 8.713 45.553 0 67.338-7.008 73.2-9.278.208.017.416.032.629.032 9.222 0 17.411 5.525 20.864 14.076l4.922 12.192c-3.094-.815-6.32-1.268-9.636-1.268h-96.719c-4.142 0-7.5 3.357-7.5 7.5s3.358 7.5 7.5 7.5h96.719c9.222 0 17.411 5.525 20.863 14.076 0 0 7.305 18.094 7.305 18.094 3.04 7.528 4.926 15.367 5.653 23.387h-369.153c-4.142 0-7.5 3.357-7.5 7.5s3.358 7.5 7.5 7.5h369.5v57.5c0 4.135-3.364 7.5-7.5 7.5zm52.5-87.5c0 4.136-3.364 7.5-7.5 7.5h-22.812c-.761-9.952-3.014-19.68-6.778-29.002l-22.91-56.743v-44.255c0-16.229 13.194-29.685 29.412-29.994 7.899-.166 15.45 2.895 21.242 8.576 5.939 5.826 9.346 13.903 9.346 22.158z"/><path d="m152.299 93.752c31.321-4.685 67.181-7.16 103.701-7.16 66.736 0 127.804 7.995 167.547 21.935 18.986 6.66 32.326 23.153 34.815 43.043.475 3.795 3.706 6.57 7.433 6.57.311 0 .625-.02.94-.059 4.11-.515 7.025-4.264 6.511-8.373-3.2-25.576-20.341-46.779-44.734-55.336-41.275-14.477-104.153-22.78-172.512-22.78-37.25 0-73.876 2.533-105.92 7.324-4.096.613-6.921 4.431-6.308 8.527.612 4.098 4.428 6.919 8.527 6.309z"/><path d="m45.731 240.408c4.142 0 7.5-3.357 7.5-7.5v-14.993c0-4.143-3.358-7.5-7.5-7.5s-7.5 3.357-7.5 7.5v14.993c0 4.142 3.358 7.5 7.5 7.5z"/><path d="m466.269 210.415c-4.142 0-7.5 3.357-7.5 7.5v14.993c0 4.143 3.358 7.5 7.5 7.5s7.5-3.357 7.5-7.5v-14.993c0-4.143-3.358-7.5-7.5-7.5z"/><circle cx="132.745" cy="142.431" r="8"/><circle cx="212.745" cy="132.431" r="8"/><circle cx="379.255" cy="142.431" r="8"/><circle cx="299.255" cy="132.431" r="8"/></g></svg>