<svg id="Capa_1" enable-background="new 0 0 512.002 512.002" height="512" viewBox="0 0 512.002 512.002" width="512" xmlns="http://www.w3.org/2000/svg"><g><path d="m504.501 0c-4.143 0-7.5 3.357-7.5 7.5v21.243h-54.523c-14.022 0-27.207 5.461-37.124 15.376l-30.118 30.118c-18.71-7.705-41.525-4.644-64.944 8.878l-37.521 21.662c-3.587 2.071-4.816 6.658-2.745 10.245 2.07 3.588 6.659 4.814 10.245 2.745l32.536-18.784 80.109 80.109-58.825 101.888-23.144-23.144c-2.93-2.928-7.678-2.928-10.607 0-2.929 2.93-2.929 7.678 0 10.607l25.986 25.986-2.877 4.983c-1.176 2.035-3.187 3.379-5.517 3.686-2.335.307-4.62-.472-6.282-2.133l-120.716-120.715c-1.663-1.663-2.44-3.953-2.133-6.283s1.65-4.341 3.686-5.516l4.984-2.878 83.737 83.738c1.465 1.464 3.384 2.196 5.304 2.196 1.919 0 3.839-.732 5.304-2.196 2.929-2.93 2.929-7.678 0-10.607l-80.896-80.896 47.012-27.143c3.587-2.071 4.815-6.658 2.745-10.245-2.072-3.587-6.659-4.815-10.246-2.745l-65.444 37.785c-6.106 3.524-10.137 9.556-11.058 16.547s1.411 13.861 6.397 18.849l120.717 120.718c4.271 4.271 9.925 6.595 15.853 6.595.992 0 1.992-.065 2.994-.197 6.991-.92 13.023-4.95 16.55-11.058l72.345-125.306c13.522-23.42 16.583-46.234 8.878-64.944l27.921-27.921h51.417v415.757c0 4.143 3.357 7.5 7.5 7.5s7.5-3.357 7.5-7.5v-497c0-4.143-3.357-7.5-7.5-7.5zm-177.908 91.554c17.309-7.911 32.962-8.678 45.731-2.16l30.182 30.182c6.518 12.77 5.752 28.423-2.159 45.731zm115.885-17.811c-1.989 0-3.896.79-5.304 2.196l-28.545 28.546-21.214-21.214 28.545-28.545c7.084-7.083 16.501-10.983 26.518-10.983h54.523v30z"/><path d="m27.13 314.812c-8.572 8.064-16.982 16.318-24.996 24.531-2.893 2.965-2.835 7.713.13 10.606 1.458 1.423 3.349 2.132 5.237 2.132 1.95 0 3.899-.756 5.368-2.262 7.866-8.062 16.122-16.164 24.539-24.082 3.017-2.839 3.162-7.585.323-10.603-2.838-3.014-7.584-3.159-10.601-.322z"/><path d="m71.844 293.389c1.704 0 3.418-.578 4.824-1.761 8.183-6.885 16.75-13.856 25.464-20.721 3.254-2.563 3.813-7.279 1.25-10.533-2.564-3.252-7.279-3.812-10.533-1.25-8.84 6.964-17.533 14.038-25.838 21.025-3.17 2.667-3.578 7.398-.911 10.567 1.485 1.764 3.607 2.673 5.744 2.673z"/><path d="m140.42 239.854c1.509 0 3.033-.455 4.354-1.398 8.536-6.1 17.439-12.304 26.462-18.441 3.425-2.329 4.313-6.994 1.983-10.419s-6.994-4.314-10.42-1.983c-9.118 6.202-18.117 12.473-26.747 18.639-3.37 2.408-4.15 7.093-1.742 10.463 1.465 2.048 3.77 3.139 6.11 3.139z"/><path d="m201.882 465.269c-3.751-1.753-8.216-.137-9.971 3.616-4.781 10.221-9.643 20.87-14.864 32.556-1.689 3.782.006 8.218 3.788 9.907.994.444 2.033.654 3.055.654 2.868 0 5.606-1.654 6.852-4.442 5.186-11.606 10.012-22.178 14.756-32.319 1.755-3.753.136-8.217-3.616-9.972z"/><path d="m239.397 392.917c-3.636-1.985-8.192-.646-10.177 2.989-5.179 9.488-10.328 19.219-15.302 28.922-1.89 3.687-.433 8.206 3.253 10.096 1.095.562 2.264.828 3.415.828 2.725 0 5.352-1.489 6.681-4.08 4.915-9.589 10.002-19.203 15.12-28.578 1.984-3.636.646-8.193-2.99-10.177z"/><path d="m282.552 318.938c-3.512-2.192-8.139-1.125-10.334 2.389-6.094 9.758-11.972 19.387-17.469 28.62-2.119 3.56-.952 8.162 2.607 10.281 1.203.716 2.524 1.057 3.83 1.057 2.557 0 5.048-1.308 6.451-3.664 5.443-9.143 11.265-18.681 17.303-28.349 2.195-3.512 1.126-8.139-2.388-10.334z"/><path d="m32.461 425.219c-3.243-2.578-7.961-2.037-10.538 1.206-7.197 9.059-14.087 18.087-20.479 26.835-2.443 3.345-1.713 8.037 1.632 10.48 1.334.976 2.883 1.445 4.418 1.445 2.312 0 4.594-1.066 6.062-3.076 6.272-8.586 13.039-17.452 20.11-26.353 2.578-3.242 2.038-7.961-1.205-10.537z"/><path d="m85.677 362.712c-3.05-2.804-7.794-2.604-10.597.445-7.396 8.046-14.642 16.123-21.535 24.007-2.726 3.118-2.408 7.856.71 10.583 1.422 1.243 3.182 1.854 4.934 1.854 2.088 0 4.167-.867 5.649-2.563 6.812-7.79 13.973-15.773 21.286-23.728 2.802-3.05 2.603-7.794-.447-10.598z"/><path d="m145.572 312.907c2.975-2.883 3.049-7.631.166-10.605-2.883-2.975-7.631-3.05-10.605-.166-7.918 7.675-15.744 15.402-23.26 22.97-2.919 2.938-2.903 7.688.036 10.606 1.463 1.453 3.374 2.179 5.285 2.179 1.928 0 3.855-.739 5.321-2.215 7.449-7.5 15.206-15.16 23.057-22.769z"/><path d="m198.342 244.357c-8.716 7.753-17.435 15.644-25.916 23.452-3.047 2.806-3.243 7.551-.438 10.598 1.479 1.606 3.496 2.42 5.52 2.42 1.816 0 3.637-.655 5.078-1.982 8.418-7.751 17.073-15.584 25.725-23.28 3.095-2.753 3.372-7.493.619-10.588s-7.493-3.373-10.588-.62z"/><path d="m113.484 467.271c-3.558-2.12-8.161-.955-10.283 2.602-6.266 10.51-12.235 20.95-17.741 31.032-1.985 3.636-.647 8.191 2.988 10.177 1.142.624 2.373.919 3.588.919 2.655 0 5.227-1.412 6.589-3.906 5.416-9.917 11.29-20.192 17.459-30.54 2.122-3.558.957-8.161-2.6-10.284z"/><path d="m154.932 404.606c-3.416-2.342-8.084-1.469-10.427 1.946-6.405 9.346-12.662 18.722-18.596 27.868-2.254 3.476-1.265 8.119 2.21 10.374 1.261.818 2.676 1.209 4.075 1.209 2.456 0 4.863-1.205 6.299-3.419 5.865-9.041 12.05-18.311 18.385-27.552 2.342-3.416 1.47-8.084-1.946-10.426z"/><path d="m181.141 378.716c6.307-8.662 12.879-17.497 19.534-26.258 2.505-3.298 1.862-8.003-1.436-10.509-3.299-2.507-8.003-1.862-10.509 1.437-6.715 8.841-13.348 17.757-19.715 26.5-2.438 3.349-1.7 8.04 1.648 10.479 1.333.97 2.877 1.438 4.408 1.438 2.317-.001 4.602-1.072 6.07-3.087z"/><path d="m247.468 282.806c-3.185-2.645-7.915-2.209-10.562.978-7.003 8.43-14.001 17.012-20.8 25.506-2.588 3.233-2.065 7.953 1.168 10.542 1.383 1.107 3.039 1.645 4.682 1.645 2.2 0 4.379-.963 5.86-2.813 6.743-8.424 13.683-16.934 20.627-25.295 2.648-3.187 2.211-7.916-.975-10.563z"/></g></svg>