<svg id="Capa_1" enable-background="new 0 0 512.008 512.008" height="512" viewBox="0 0 512.008 512.008" width="512" xmlns="http://www.w3.org/2000/svg"><g><path d="m478.929 324.75 32.3-120.547c1.825-6.812.41-13.926-3.883-19.521-4.292-5.594-10.798-8.803-17.85-8.803h-32.355v-7.5c0-12.406-10.094-22.5-22.5-22.5h-14.075c-2.954-14.585-14.35-26.143-29.005-29.203-6.072-22.791-26.564-38.797-50.699-38.797-10.796 0-21.239 3.31-30 9.419-8.763-6.109-19.206-9.419-30-9.419-26.568 0-48.591 19.839-52.032 45.48-15.927 2.187-30.133 11.687-38.267 25.503-4.604-1.966-9.573-2.983-14.701-2.983-18.11 0-33.261 12.904-36.745 30h-70.89v-52.385c0-4.136 3.364-7.5 7.5-7.5s7.5 3.364 7.5 7.5v11.464c0 2.745 1.5 5.271 3.91 6.585.735.4 7.501 3.915 18.59 3.915 11.087 0 17.854-3.514 18.59-3.915 2.41-1.313 3.91-3.84 3.91-6.585v-11.464c0-28.948-23.552-52.5-52.5-52.5s-52.5 23.552-52.5 52.5v52.385h-.715c-7.052 0-13.558 3.209-17.85 8.803-4.293 5.595-5.708 12.709-3.883 19.521l32.3 120.547c3.876 14.464 11.443 27.333 22.043 37.655-3.72 4.222-6.514 9.332-8.06 15.101l-14.487 54.066c-.604 2.253-.125 4.657 1.294 6.507 1.42 1.851 3.618 2.935 5.95 2.935h41.731c3.395 0 6.366-2.28 7.244-5.559l10.512-39.229c1.63-6.081 7.165-10.328 13.461-10.328h164.014c4.143 0 7.5-3.357 7.5-7.5s-3.357-7.5-7.5-7.5h-159.926l-2.541-3.939s0 0-.001-.001c-8.1-12.553-22.299-18.906-37.057-16.598-3.5.549-6.812 1.567-9.894 2.971-9.598-8.706-16.413-19.843-19.795-32.464l-26.791-99.987h70.836c4.143 0 7.5-3.357 7.5-7.5s-3.357-7.5-7.5-7.5h-74.855l-1.49-5.56c-.608-2.27-.137-4.642 1.295-6.506 1.431-1.865 3.599-2.935 5.949-2.935h211.761c4.143 0 7.5-3.357 7.5-7.5s-3.357-7.5-7.5-7.5h-79.621c3.096-8.729 11.433-15 21.21-15 4.898 0 9.553 1.545 13.46 4.468 1.886 1.411 4.319 1.854 6.58 1.199 2.26-.655 4.081-2.332 4.92-4.53 5.51-14.437 19.592-24.137 35.04-24.137 4.143 0 7.5-3.357 7.5-7.5 0-20.678 16.822-37.5 37.5-37.5 9.236 0 18.114 3.394 24.998 9.555 2.848 2.551 7.157 2.549 10.005 0 6.881-6.161 15.759-9.555 24.997-9.555 18.316 0 34.245 13.623 37.051 31.688.546 3.516 3.488 6.164 7.042 6.34 9.357.461 17.109 6.592 20.066 14.972h-44.688c-12.406 0-22.5 10.094-22.5 22.5v7.5h-73.56c-4.143 0-7.5 3.357-7.5 7.5s3.357 7.5 7.5 7.5h73.56v15h-216.22c-4.143 0-7.5 3.357-7.5 7.5s3.357 7.5 7.5 7.5h216.22v64.137c0 8.271 6.729 15 15 15h89.309c8.271 0 15-6.729 15-15v-94.137h32.355c2.351 0 4.519 1.069 5.949 2.935 1.432 1.864 1.903 4.236 1.295 6.506l-1.49 5.56h-14.61c-4.143 0-7.5 3.357-7.5 7.5s3.357 7.5 7.5 7.5h10.591l-26.791 99.987c-3.377 12.606-10.197 23.753-19.796 32.463-3.081-1.404-6.393-2.422-9.893-2.971-14.765-2.312-28.959 4.046-37.057 16.598-.001.001-.001.001-.001.001l-2.541 3.939h-88.372c-4.143 0-7.5 3.357-7.5 7.5s3.357 7.5 7.5 7.5h92.459c6.296 0 11.831 4.247 13.461 10.329l10.512 39.229c.878 3.278 3.85 5.559 7.244 5.559h41.731c2.332 0 4.53-1.084 5.95-2.935 1.419-1.85 1.897-4.254 1.294-6.507l-14.487-54.066c-1.546-5.769-4.339-10.878-8.059-15.1 10.602-10.327 18.172-23.209 22.044-37.656zm-399.348 40.428c8.328-1.309 16.071 1.814 21.062 8.389-7.616 3.525-13.552 10.291-15.824 18.776l-9.022 33.67h-26.203l11.957-44.625c2.344-8.747 9.084-14.806 18.03-16.21zm-41.354-241.683c0-20.678 16.822-37.5 37.5-37.5s37.5 16.822 37.5 37.5v6.141c-1.899.441-4.431.823-7.5.823s-5.601-.382-7.5-.823v-6.141c0-12.406-10.094-22.5-22.5-22.5s-22.5 10.094-22.5 22.5v52.385h-15zm314.605 109.021h89.309v15h-89.309zm7.5-71.637h74.309c4.136 0 7.5 3.364 7.5 7.5v49.137h-89.309v-49.137c0-4.135 3.364-7.5 7.5-7.5zm-7.5 124.137v-22.5h89.309v22.5zm83.38 140.997-9.022-33.669c-2.272-8.486-8.208-15.252-15.824-18.777 4.991-6.575 12.737-9.697 21.062-8.389 8.946 1.403 15.687 7.463 18.03 16.21l11.957 44.625z"/></g></svg>