<svg id="Capa_1" enable-background="new 0 0 512.143 512.143" height="512" viewBox="0 0 512.143 512.143" width="512" xmlns="http://www.w3.org/2000/svg"><g><path d="m260.541 295.766c3.326-2.469 4.021-7.167 1.553-10.492l-62.19-83.783c-2.47-3.327-7.167-4.021-10.493-1.553-3.326 2.469-4.021 7.167-1.552 10.492l62.19 83.783c1.472 1.983 3.735 3.03 6.028 3.03 1.554.001 3.122-.48 4.464-1.477z"/><path d="m504.572 417.228h-226v-103.047l115.949-151.786c10.38 4.391 21.667 6.701 33.003 6.701 46.62 0 84.548-37.928 84.548-84.547 0-46.62-37.928-84.548-84.548-84.548-44.09 0-80.385 33.93-84.196 77.048h-235.793l-54.941-74.018c-2.469-3.327-7.167-4.021-10.493-1.553-3.326 2.469-4.021 7.167-1.552 10.492l48.33 65.112c-6.697.339-12.625 4.202-15.624 10.266-3.141 6.354-2.42 13.798 1.882 19.43l158.434 207.403v130.964l-108.041 30.702c-9.119 2.592-14.574 10.959-13.266 20.349s8.843 15.947 18.323 15.947h250.967c9.48 0 17.016-6.558 18.323-15.947 1.309-9.39-4.147-17.757-13.267-20.349l-108.04-30.702v-12.917h226c4.143 0 7.5-3.357 7.5-7.5s-3.356-7.5-7.498-7.5zm-257.54-110.136-94.322-123.475c14.11 1.859 28.543 2.812 42.984 2.812 20.944 0 41.889-1.956 61.822-5.867 34.035-6.678 71.154-7.356 105.835-2.073l-98.239 128.602c-2.538 3.322-5.749 5.152-9.04 5.152-3.291.001-6.502-1.829-9.04-5.151zm180.492-292.091c38.349 0 69.548 31.199 69.548 69.548s-31.199 69.547-69.548 69.547c-8.159 0-16.044-1.375-23.544-4.083l33.027-43.235c4.302-5.632 5.023-13.076 1.882-19.43s-9.496-10.3-16.584-10.3h-63.917c3.753-34.833 33.322-62.047 69.136-62.047zm-84.21 77.048c1.608 18.145 9.018 35.305 21.278 48.962 2.767 3.083 7.51 3.339 10.591.571 3.083-2.767 3.338-7.509.571-10.591-9.783-10.898-15.799-24.51-17.357-38.942h63.907c1.962 0 2.848 1.363 3.138 1.949s.835 2.116-.355 3.675l-51.432 67.327c-38.625-6.946-80.69-6.679-119.028.844-24.885 4.882-51.42 6.545-77.447 5.033l-58.512-78.828zm-256.612 1.948c.29-.586 1.175-1.948 3.137-1.948h10.15l57.175 77.027c-5.951-.734-11.838-1.649-17.646-2.728l-52.46-68.675c-1.191-1.559-.646-3.09-.356-3.676zm295.81 396.28c2.55.724 2.667 2.723 2.51 3.85-.157 1.126-.816 3.017-3.467 3.017h-250.967c-2.65 0-3.31-1.891-3.466-3.018-.157-1.126-.04-3.125 2.51-3.849l113.491-32.252c3.225-.916 5.45-3.861 5.45-7.214v-124.783c2.424.796 4.945 1.216 7.5 1.216s5.076-.42 7.5-1.216v124.783c0 3.353 2.225 6.298 5.45 7.214z"/><path d="m218.572 424.728c0-4.143-3.358-7.5-7.5-7.5h-203.5c-4.142 0-7.5 3.357-7.5 7.5s3.358 7.5 7.5 7.5h203.5c4.142 0 7.5-3.357 7.5-7.5z"/></g></svg>