<svg id="Capa_1" enable-background="new 0 0 511.999 511.999" height="512" viewBox="0 0 511.999 511.999" width="512" xmlns="http://www.w3.org/2000/svg"><g><path d="m292.532 292.539c-2.153-6.63-9.955-7.416-18.988-8.326-.827-.083-1.801-.182-2.667-.28-.361-.793-.756-1.688-1.091-2.449-3.657-8.311-6.816-15.487-13.786-15.487s-10.129 7.177-13.786 15.487c-.335.761-.729 1.656-1.091 2.449-.866.099-1.84.197-2.667.28-9.033.91-16.835 1.696-18.988 8.326s3.696 11.852 10.47 17.897c.619.554 1.349 1.204 1.991 1.793-.174.854-.381 1.811-.558 2.622-1.926 8.874-3.589 16.537 2.051 20.634 5.639 4.099 12.411.147 20.256-4.426.719-.418 1.563-.911 2.322-1.34.759.429 1.604.922 2.322 1.34 5.532 3.227 10.532 6.142 14.978 6.142 1.857 0 3.617-.509 5.278-1.716 5.64-4.097 3.977-11.76 2.051-20.634-.177-.812-.384-1.768-.558-2.622.643-.589 1.372-1.239 1.991-1.793 6.773-6.046 12.623-11.267 10.47-17.897zm-20.458 6.708c-4.024 3.592-6.044 5.395-6.935 8.134-.888 2.736-.313 5.382.83 10.652.01.046.021.093.03.141-.041-.024-.082-.049-.122-.072-4.661-2.717-7-4.081-9.878-4.081s-5.217 1.364-9.878 4.081c-.04.023-.081.048-.122.072.01-.048.021-.095.03-.141 1.144-5.271 1.718-7.916.829-10.656-.89-2.735-2.909-4.538-6.934-8.13-.034-.031-.07-.063-.106-.096.048-.005.095-.01.141-.014 5.367-.541 8.062-.812 10.392-2.505 2.327-1.692 3.418-4.17 5.591-9.107.02-.043.038-.086.058-.13.02.044.038.087.058.13 2.173 4.938 3.264 7.415 5.592 9.108 2.329 1.691 5.023 1.963 10.391 2.504.046.004.093.009.141.014-.038.032-.074.065-.108.096z"/><path d="m203.64 296.977c-4.096-5.638-11.759-3.977-20.631-2.052-.812.177-1.77.385-2.624.559-.589-.644-1.24-1.373-1.794-1.992-6.047-6.774-11.268-12.624-17.899-10.47-6.628 2.155-7.414 9.956-8.324 18.988-.083.827-.182 1.801-.28 2.667-.794.362-1.689.757-2.451 1.092-8.31 3.657-15.485 6.815-15.485 13.786 0 6.97 7.177 10.129 15.487 13.786.761.335 1.656.729 2.449 1.091.099.866.197 1.84.28 2.667.91 9.033 1.696 16.835 8.326 18.988.953.31 1.876.454 2.777.454 5.369 0 9.942-5.123 15.12-10.924.554-.619 1.205-1.349 1.794-1.991.854.174 1.811.381 2.624.558 8.871 1.924 16.533 3.589 20.631-2.051 4.098-5.639.147-12.413-4.426-20.256-.418-.719-.911-1.563-1.341-2.322.43-.76.923-1.605 1.342-2.324 4.573-7.843 8.523-14.616 4.425-20.254zm-17.384 32.456c.023.04.048.08.071.122-.046-.01-.092-.021-.137-.03-5.274-1.145-7.919-1.716-10.659-.829-2.735.89-4.538 2.909-8.13 6.934-.031.034-.063.07-.096.106-.005-.048-.01-.095-.014-.141-.541-5.368-.813-8.063-2.505-10.392-1.692-2.327-4.17-3.418-9.107-5.591-.043-.02-.086-.038-.131-.058.044-.02.087-.038.13-.058 4.938-2.173 7.417-3.265 9.108-5.592 1.691-2.328 1.964-5.022 2.505-10.392.004-.046.009-.093.014-.141.032.036.064.072.096.106 3.592 4.024 5.395 6.044 8.131 6.934s5.385.316 10.657-.829c.046-.01.091-.02.138-.03-.023.041-.047.082-.07.121-2.718 4.662-4.082 7.002-4.082 9.88s1.364 5.219 4.081 9.88z"/><path d="m331.614 343.627c.589.643 1.24 1.372 1.794 1.991 5.178 5.801 9.75 10.924 15.12 10.924.901 0 1.825-.145 2.777-.454 6.63-2.153 7.416-9.955 8.326-18.988.083-.827.182-1.801.28-2.667.793-.361 1.688-.756 2.449-1.091 8.311-3.657 15.487-6.816 15.487-13.786 0-6.971-7.176-10.129-15.485-13.786-.762-.335-1.657-.729-2.451-1.092-.099-.866-.197-1.84-.28-2.667-.91-9.032-1.696-16.833-8.326-18.988-6.629-2.151-11.851 3.695-17.897 10.47-.554.619-1.205 1.349-1.794 1.992-.854-.174-1.812-.382-2.624-.559-8.871-1.926-16.533-3.59-20.631 2.051-4.098 5.639-.148 12.412 4.425 20.255.419.719.912 1.564 1.342 2.324-.43.759-.923 1.604-1.341 2.322-4.573 7.843-8.523 14.617-4.426 20.256 4.097 5.64 11.761 3.976 20.631 2.051.813-.177 1.769-.385 2.624-.558zm-5.943-14.072c.023-.042.048-.082.071-.122 2.717-4.661 4.081-7 4.081-9.878s-1.364-5.218-4.082-9.88c-.023-.039-.047-.08-.07-.121.047.011.092.021.138.03 5.272 1.146 7.918 1.72 10.658.829 2.735-.89 4.538-2.909 8.13-6.934.031-.034.063-.07.096-.106.005.048.01.095.014.141.541 5.369.813 8.063 2.504 10.391 1.692 2.328 4.171 3.42 9.109 5.593.043.02.086.038.13.058-.045.02-.088.038-.131.058-4.938 2.173-7.415 3.264-9.107 5.591-1.691 2.328-1.964 5.023-2.505 10.392-.004.046-.009.093-.014.141-.032-.036-.064-.072-.096-.106-3.592-4.024-5.395-6.044-8.13-6.934-.001 0-.001 0-.001 0-.928-.302-1.846-.435-2.857-.435-1.976 0-4.314.507-7.801 1.264-.045.008-.091.019-.137.028z"/><path d="m410.999 424.179c-4.143 0-7.5 3.357-7.5 7.5v57.819c0 4.136-3.364 7.5-7.5 7.5h-280c-4.136 0-7.5-3.364-7.5-7.5v-243.448c0-4.143-3.357-7.5-7.5-7.5s-7.5 3.357-7.5 7.5v243.448c0 12.406 10.094 22.5 22.5 22.5h280c12.406 0 22.5-10.094 22.5-22.5v-57.819c0-4.142-3.357-7.5-7.5-7.5z"/><path d="m395.999 48.307h-284.465c-1.673 0-3.034-1.361-3.034-3.034 0-1.555 1.166-2.852 2.711-3.018l253.99-27.213c2.146-.226 4.208.438 5.812 1.879s2.487 3.423 2.487 5.579v3.307c0 4.143 3.357 7.5 7.5 7.5s7.5-3.357 7.5-7.5v-3.307c0-6.375-2.72-12.476-7.462-16.737-4.741-4.26-11.095-6.317-17.435-5.635l-253.991 27.213c-9.186.985-16.112 8.694-16.112 17.932v170.777c0 4.143 3.357 7.5 7.5 7.5s7.5-3.357 7.5-7.5v-153.019c.989.169 1.998.276 3.034.276h284.466c4.136 0 7.5 3.364 7.5 7.5v330.872c0 4.143 3.357 7.5 7.5 7.5s7.5-3.357 7.5-7.5v-330.872c-.001-12.406-10.094-22.5-22.501-22.5z"/><path d="m136.907 248.246c4.163 7.211 11.741 11.247 19.524 11.246 3.813 0 7.678-.97 11.211-3.01l68.244-39.401c2.629 1.594 5.173 3.115 7.609 4.555 7.365 4.354 16.729 4.122 23.861-.587l7.01-4.629 69.23 39.971c3.679 2.124 7.691 3.139 11.635 3.139 7.452 0 14.659-3.624 18.907-10.241 3.362-5.237 4.406-11.445 2.94-17.48-1.445-5.949-5.314-11.116-10.615-14.176l-45.431-26.23 53.844-37.276c3.406-2.358 4.256-7.03 1.898-10.436-2.359-3.406-7.032-4.256-10.436-1.898l-39.824 27.57-9.495-16.446 42.337-24.444c3.587-2.071 4.816-6.658 2.745-10.245-2.072-3.588-6.659-4.814-10.245-2.745l-42.337 24.444-9.495-16.445 43.788-20.703c3.744-1.771 5.345-6.241 3.574-9.986s-6.244-5.345-9.986-3.574l-74.272 35.116c-11.746 5.553-16.011 15.036-16.773 23.955l-78.652-45.41c-9.515-5.493-21.562-3.608-28.644 4.48-3.966 4.531-5.508 10.385-4.459 16.929 3.186 19.881 30.082 44.173 59.188 65.136l-48.65 28.087c-10.74 6.203-14.434 19.99-8.231 30.734zm132.635-110.352 16.878-7.98 27.722 48.015-7.478 5.177-44.692-25.803c-1.156-4.574-2.384-14.702 7.57-19.409zm-120.128-15.98c-.434-2.702.271-3.917.935-4.675 2.378-2.718 6.522-3.295 9.856-1.37l198.759 114.754c1.793 1.035 3.05 2.714 3.539 4.727.488 2.011.138 4.084-.987 5.836-2.125 3.312-6.8 4.304-10.419 2.216l-73.245-42.288c-1.163-.671-2.457-1.005-3.75-1.005-1.442 0-2.882.416-4.133 1.241l-10.877 7.183c-2.379 1.569-5.505 1.645-7.963.192-92.316-54.578-100.927-81.89-101.715-86.811zm3.227 108.588 54.749-31.609c4.743 3.199 9.456 6.28 14.049 9.209l-61.297 35.39c-3.581 2.066-8.178.834-10.245-2.746-2.068-3.581-.836-8.177 2.744-10.244z"/><path d="m201.865 397.963c0 4.143 3.357 7.5 7.5 7.5h93.27c4.143 0 7.5-3.357 7.5-7.5s-3.357-7.5-7.5-7.5h-93.27c-4.143 0-7.5 3.357-7.5 7.5z"/><path d="m199.979 435.463h112.041c4.143 0 7.5-3.357 7.5-7.5s-3.357-7.5-7.5-7.5h-112.041c-4.143 0-7.5 3.357-7.5 7.5s3.357 7.5 7.5 7.5z"/></g></svg>