<svg id="Capa_1" enable-background="new 0 0 512 512" height="512" viewBox="0 0 512 512" width="512" xmlns="http://www.w3.org/2000/svg"><g><path d="m504.5 182.621c4.143 0 7.5-3.357 7.5-7.5v-43.976c0-4.143-3.357-7.5-7.5-7.5h-60.262v-23c0-27.079-11.822-47.5-27.5-47.5s-27.5 20.421-27.5 47.5c0 4.143 3.357 7.5 7.5 7.5s7.5-3.357 7.5-7.5c0-19.538 7.523-32.5 12.5-32.5s12.5 12.962 12.5 32.5v23h-105v-23c0-27.079-11.822-47.5-27.5-47.5s-27.5 20.421-27.5 47.5c0 4.143 3.357 7.5 7.5 7.5s7.5-3.357 7.5-7.5c0-19.538 7.523-32.5 12.5-32.5s12.5 12.962 12.5 32.5v23h-301.738c-4.143 0-7.5 3.357-7.5 7.5v73.976c0 3.155 1.975 5.974 4.941 7.05 12.279 4.457 25.167 6.685 38.058 6.684 13.089 0 26.18-2.298 38.625-6.891 20.483-7.558 43.924-7.397 66.003.453 24.35 8.658 51.14 8.57 75.429-.245 21.244-7.709 44.645-7.709 65.889 0 6.582 2.389 13.384 4.151 20.294 5.266v13.708c0 4.143 3.357 7.5 7.5 7.5s7.5-3.357 7.5-7.5v-52.5h105v17.17c-22.179-6.578-46.732-5.766-69.891 2.469-4.011 1.426-8.152 2.596-12.31 3.478-4.052.859-6.64 4.841-5.78 8.894s4.834 6.643 8.894 5.78c4.804-1.02 9.588-2.371 14.222-4.019 21.676-7.707 44.653-7.985 64.865-.843v19.571c0 4.143 3.357 7.5 7.5 7.5s7.5-3.357 7.5-7.5v-15.087c17.369 3.948 35.484 3.708 52.762-.767v44.407c-20.065 6.077-41.682 5.482-61.431-1.807-23.77-8.77-50.838-8.634-76.222.393-21.076 7.492-44.262 7.417-65.286-.212-24.544-8.909-51.579-8.909-76.123 0-21.027 7.628-44.212 7.704-65.286.212-25.383-9.025-52.453-9.164-76.222-.393-19.749 7.289-41.364 7.882-61.431 1.806v-24.577c0-4.143-3.357-7.5-7.5-7.5s-7.5 3.357-7.5 7.5v210c0 3.155 1.975 5.974 4.941 7.05 12.279 4.457 25.167 6.685 38.057 6.684 13.09 0 26.181-2.298 38.626-6.891 20.481-7.558 43.923-7.398 66.003.453 24.349 8.658 51.138 8.57 75.429-.245 21.244-7.709 44.645-7.709 65.889 0 24.291 8.815 51.079 8.903 75.429.245 22.082-7.851 45.521-8.013 66.003-.453 24.699 9.116 51.933 9.189 76.683.207 2.967-1.076 4.941-3.895 4.941-7.05v-100c0-2.446-1.192-4.738-3.195-6.142-2.001-1.403-4.563-1.742-6.863-.908-21.421 7.775-44.994 7.711-66.372-.18-23.77-8.771-50.838-8.633-76.222.393-21.076 7.491-44.262 7.417-65.286-.212-24.545-8.908-51.578-8.908-76.123 0-3.894 1.413-5.904 5.715-4.491 9.608s5.711 5.906 9.608 4.491c21.244-7.709 44.645-7.709 65.889 0 24.291 8.816 51.079 8.904 75.429.245 22.082-7.851 45.521-8.013 66.003-.453 21.393 7.896 44.687 9.009 66.624 3.327v84.424c-20.067 6.074-41.686 5.464-61.431-1.823-23.77-8.771-50.838-8.634-76.222.393-21.076 7.491-44.262 7.417-65.286-.212-24.544-8.909-51.579-8.909-76.123 0-21.027 7.629-44.212 7.705-65.286.212-25.383-9.024-52.453-9.164-76.222-.393-19.746 7.287-41.365 7.898-61.431 1.823v-84.437c21.936 5.682 45.229 4.582 66.624-3.314 20.483-7.559 43.924-7.398 66.003.453 12.057 4.287 24.571 6.449 37.287 6.449 2.178 0 4.361-.063 6.549-.19 4.135-.24 7.293-3.786 7.053-7.922s-3.799-7.312-7.922-7.053c-12.954.751-25.72-1.072-37.941-5.417-25.383-9.026-52.453-9.164-76.222-.393-19.749 7.289-41.364 7.883-61.431 1.806v-64.421c9.175 2.377 18.585 3.579 27.999 3.578 13.089 0 26.18-2.298 38.625-6.891 20.481-7.558 43.923-7.397 66.003.453 24.349 8.658 51.138 8.57 75.429-.245 21.244-7.709 44.645-7.709 65.889 0 24.291 8.815 51.079 8.904 75.429.245 22.081-7.85 45.52-8.013 66.003-.453 21.394 7.896 44.688 8.995 66.624 3.313v39.844c0 4.143 3.357 7.5 7.5 7.5s7.5-3.357 7.5-7.5v-110c0-2.446-1.192-4.738-3.195-6.142-2.001-1.403-4.563-1.742-6.863-.908-18.56 6.737-38.736 7.578-57.703 2.551v-61.977h52.759v36.476c0 4.145 3.357 7.502 7.5 7.502zm-210.438 15.451c-24.544-8.909-51.579-8.909-76.123 0-21.027 7.629-44.212 7.705-65.286.212-25.383-9.026-52.453-9.164-76.222-.393-19.749 7.289-41.367 7.897-61.431 1.823v-61.069h294.238v63.561c-5.159-.965-10.239-2.343-15.176-4.134zm135.176-34.427h-105v-25h105z"/></g></svg>