<svg id="Capa_1" enable-background="new 0 0 512 512" height="512" viewBox="0 0 512 512" width="512" xmlns="http://www.w3.org/2000/svg"><g><path d="m494.5 405.728h-5.021c4.719-6.272 7.521-14.064 7.521-22.5v-202.7c8.466-1.225 15-8.539 15-17.377 0-15.121-12.336-27.423-27.5-27.423h-2.32l22.784-105.369c.876-4.049-1.696-8.04-5.745-8.915-4.053-.881-8.04 1.697-8.916 5.745l-23.469 108.539h-100.148c-4.143 0-7.5 3.357-7.5 7.5s3.357 7.5 7.5 7.5h117.814c6.893 0 12.5 5.573 12.5 12.423 0 1.397-1.145 2.577-2.5 2.577h-477c-1.379 0-2.5-1.121-2.5-2.5 0-6.893 5.607-12.5 12.5-12.5h309.186c4.143 0 7.5-3.357 7.5-7.5s-3.357-7.5-7.5-7.5h-46.661v-72.01c0-8.271-6.729-15-15-15h-64.852c-8.271 0-15 6.729-15 15v72.011h-15.353c-1.04-18.511-5.931-26.583-10.306-33.792-3.776-6.221-6.786-11.178-6.99-24.133l11.957-29.661c1.483-3.68-.156-7.879-3.741-9.58-27.509-13.05-48.943-13.052-76.454 0-2.618 1.242-4.286 3.879-4.286 6.776v20.396c0 3.098 1.905 5.877 4.794 6.995l22.564 8.728c-.67 10.304-3.448 14.881-6.847 20.479-4.376 7.209-9.267 15.282-10.307 33.793h-72.704c-15.164 0-27.5 12.336-27.5 27.5 0 8.798 6.534 16.081 15 17.3v118.01c0 4.143 3.357 7.5 7.5 7.5s7.5-3.357 7.5-7.5v-117.812h60v225h-37.5c-12.406 0-22.5-10.094-22.5-22.5v-54.689c0-4.143-3.357-7.5-7.5-7.5s-7.5 3.357-7.5 7.5v54.689c0 8.436 2.801 16.228 7.52 22.5h-5.02c-9.649 0-17.5 7.851-17.5 17.5 0 15.164 12.336 27.5 27.5 27.5h45.518c-1.924 3.753-3.018 8-3.018 12.5 0 15.163 12.337 27.5 27.5 27.5s27.5-12.337 27.5-27.5c0-4.5-1.094-8.747-3.018-12.5h195.518c4.143 0 7.5-3.357 7.5-7.5s-3.357-7.5-7.5-7.5h-290c-6.893 0-12.5-5.607-12.5-12.5 0-1.379 1.121-2.5 2.5-2.5h477c1.379 0 2.5 1.121 2.5 2.5 0 6.893-5.607 12.5-12.5 12.5h-137c-4.143 0-7.5 3.357-7.5 7.5s3.357 7.5 7.5 7.5h42.518c-1.924 3.753-3.018 8-3.018 12.5 0 15.163 12.337 27.5 27.5 27.5s27.5-12.337 27.5-27.5c0-4.5-1.094-8.747-3.018-12.5h45.518c15.164 0 27.5-12.336 27.5-27.5 0-9.649-7.851-17.5-17.5-17.5zm-219.476-342.01v15h-64.852v-15zm-64.851 30h64.852v42.011h-64.852zm-105.173-33.124v-10.42c19.147-8.236 34.023-8.538 52.854-.906l-7.905 19.608h-23.092c-.131 0-.258.014-.387.022zm18.334 49.126c3.661-6.03 7.735-12.75 8.869-25.844h15.619c1.134 13.094 5.208 19.814 8.868 25.844 3.692 6.082 7.204 11.88 8.108 26.009h-49.573c.905-14.129 4.417-19.928 8.109-26.009zm-13.334 353.508c0 6.893-5.607 12.5-12.5 12.5s-12.5-5.607-12.5-12.5 5.607-12.5 12.5-12.5 12.5 5.608 12.5 12.5zm312-57.5v-225h60v202.5c0 12.406-10.094 22.5-22.5 22.5zm-15-225v105h-18.018c1.924-3.753 3.018-8 3.018-12.5 0-7.875-3.333-14.982-8.655-20 5.323-5.018 8.655-12.125 8.655-20 0-15.163-12.337-27.5-27.5-27.5h-80c-15.163 0-27.5 12.337-27.5 27.5 0 7.875 3.333 14.982 8.655 20-5.323 5.018-8.655 12.125-8.655 20 0 4.5 1.094 8.747 3.018 12.5h-25.018v-82.5c0-4.143-3.357-7.5-7.5-7.5h-90c-4.143 0-7.5 3.357-7.5 7.5v82.5h-25v-105zm-135 92.5c0-6.893 5.607-12.5 12.5-12.5h16.318c4.143 0 7.5-3.357 7.5-7.5s-3.357-7.5-7.5-7.5h-16.318c-6.893 0-12.5-5.607-12.5-12.5s5.607-12.5 12.5-12.5h80c6.893 0 12.5 5.607 12.5 12.5s-5.607 12.5-12.5 12.5h-33.682c-4.143 0-7.5 3.357-7.5 7.5s3.357 7.5 7.5 7.5h33.682c6.893 0 12.5 5.607 12.5 12.5s-5.607 12.5-12.5 12.5h-80c-6.893 0-12.5-5.607-12.5-12.5zm-52-32.5h-30v-30h30zm-45 0h-30v-30h30zm-30 15h30v30h-30zm45 0h30v30h-30zm-85 45h259.5 42.5v105h-18.018c1.924-3.753 3.018-8 3.018-12.5 0-7.875-3.333-14.982-8.655-20 5.323-5.018 8.655-12.125 8.655-20 0-15.163-12.337-27.5-27.5-27.5h-80c-15.163 0-27.5 12.337-27.5 27.5 0 7.875 3.333 14.982 8.655 20-5.323 5.018-8.655 12.125-8.655 20 0 4.5 1.094 8.747 3.018 12.5h-25.018v-82.5c0-4.143-3.357-7.5-7.5-7.5h-90c-4.143 0-7.5 3.357-7.5 7.5v82.5h-25zm167 52.5c0-6.893 5.607-12.5 12.5-12.5h80c6.893 0 12.5 5.607 12.5 12.5s-5.607 12.5-12.5 12.5h-80c-6.893 0-12.5-5.607-12.5-12.5zm-52 7.5h-30v-30h30zm-45 0h-30v-30h30zm-30 15h30v30h-30zm45 0h30v30h-30zm94.5 30c-6.893 0-12.5-5.607-12.5-12.5s5.607-12.5 12.5-12.5h80c6.893 0 12.5 5.607 12.5 12.5s-5.607 12.5-12.5 12.5zm142.5 57.5c0 6.893-5.607 12.5-12.5 12.5s-12.5-5.607-12.5-12.5 5.607-12.5 12.5-12.5 12.5 5.608 12.5 12.5z"/></g></svg>