<svg id="Capa_1" enable-background="new 0 0 512 512" height="512" viewBox="0 0 512 512" width="512" xmlns="http://www.w3.org/2000/svg"><g><path d="m7.5 341.682c4.142 0 7.5-3.357 7.5-7.5v-271.682c0-4.136 3.364-7.5 7.5-7.5h124.089c4.142 0 7.5-3.357 7.5-7.5s-3.358-7.5-7.5-7.5h-124.089c-12.407 0-22.5 10.094-22.5 22.5v271.682c0 4.142 3.358 7.5 7.5 7.5z"/><path d="m489.5 40h-312.911c-4.142 0-7.5 3.357-7.5 7.5s3.358 7.5 7.5 7.5h312.911c4.135 0 7.5 3.364 7.5 7.5v271.682c0 4.143 3.358 7.5 7.5 7.5s7.5-3.357 7.5-7.5v-271.682c0-12.406-10.093-22.5-22.5-22.5z"/><path d="m504.5 356.682h-203.5v-119.182h18.239c6.963 0 12.961-4.729 14.586-11.5l13.197-55c1.079-4.495.056-9.156-2.807-12.787-2.862-3.631-7.156-5.713-11.779-5.713h-51.642c2.234-10.72 3.998-28.492-2.785-46.326-1.473-3.871-5.804-5.817-9.677-4.344-3.872 1.473-5.816 5.805-4.344 9.676 6.164 16.207 3.405 32.955 1.403 40.994h-18.781c-2.002-8.039-4.761-24.788 1.403-40.994 1.472-3.871-.472-8.203-4.344-9.676-3.873-1.474-8.204.472-9.677 4.344-6.783 17.834-5.019 35.606-2.785 46.326h-51.638c-4.623 0-8.917 2.082-11.779 5.713-2.863 3.63-3.886 8.291-2.807 12.787l13.197 55c1.625 6.771 7.623 11.5 14.586 11.5h18.234v30c0 4.143 3.358 7.5 7.5 7.5s7.5-3.357 7.5-7.5v-60h60v149.182h-60v-59.182c0-4.143-3.358-7.5-7.5-7.5s-7.5 3.357-7.5 7.5v59.182h-203.5c-4.142 0-7.5 3.357-7.5 7.5v44.703c0 4.143 3.358 7.5 7.5 7.5s7.5-3.357 7.5-7.5v-7.203h320.4c4.142 0 7.5-3.357 7.5-7.5s-3.358-7.5-7.5-7.5h-320.4v-15h482v15h-131.6c-4.142 0-7.5 3.357-7.5 7.5s3.358 7.5 7.5 7.5h131.6v25.822c-13.51-10.822-32.667-10.822-42.2-10.822-11.498 0-36.991.005-49.697 18.992-12.705-18.991-38.203-18.992-49.703-18.992-11.498 0-36.994.001-49.7 18.988-12.706-18.987-38.202-18.988-49.7-18.988s-36.994.001-49.7 18.988c-12.706-18.987-38.201-18.988-49.7-18.988s-36.997.001-49.703 18.992c-12.706-18.987-38.199-18.992-49.697-18.992-15.644 0-57.2 0-57.2 47.818 0 4.143 3.358 7.5 7.5 7.5h497c4.142 0 7.5-3.357 7.5-7.5v-100.318c0-4.143-3.358-7.5-7.5-7.5zm-286-164.182c-4.142 0-7.5 3.357-7.5 7.5v22.5h-18.234l-13.197-55h152.867l-13.197 55h-18.239v-22.5c0-4.143-3.358-7.5-7.5-7.5zm136.9 239.182c27.303 0 39.375 7.017 41.746 25.318h-83.492c2.372-18.302 14.443-25.318 41.746-25.318zm-99.4 0c27.303 0 39.375 7.017 41.746 25.318h-83.493c2.372-18.302 14.444-25.318 41.747-25.318zm-99.4 0c27.303 0 39.374 7.017 41.746 25.318h-83.492c2.372-18.302 14.443-25.318 41.746-25.318zm-141.156 25.318c2.369-18.309 14.448-25.318 41.756-25.318s39.387 7.01 41.756 25.318zm397.6 0c2.369-18.309 14.448-25.318 41.756-25.318s39.388 7.01 41.756 25.318z"/></g></svg>