<svg id="Capa_1" enable-background="new 0 0 512.335 512.335" height="512" viewBox="0 0 512.335 512.335" width="512" xmlns="http://www.w3.org/2000/svg"><g><path d="m504.835 365.869c4.143 0 7.5-3.357 7.5-7.5v-75.984c0-4.143-3.357-7.5-7.5-7.5h-42.262c-2.115-5.873-6.22-11.065-12.026-14.441-13.105-7.62-29.972-3.16-37.598 9.947-.886 1.523-1.766 3.019-2.642 4.494h-83.59l32.973-123.055c15.925 5.204 30.764 13.253 42.482 23.607 1.761 1.557 4.147 2.197 6.457 1.73 35.144-7.132 64.031.611 90.905 24.357 1.4 1.238 3.175 1.88 4.968 1.88 1.154 0 2.317-.267 3.393-.812 2.742-1.392 4.356-4.316 4.073-7.379-5.363-58.036-53.631-105.451-129.643-127.86l4.018-14.995c1.072-4.001-1.302-8.114-5.303-9.186-4.002-1.073-8.114 1.302-9.186 5.303l-4.018 14.997c-77.035-18.6-142.543-1.672-176.204 45.907-1.776 2.511-1.84 5.851-.161 8.427s4.761 3.866 7.774 3.256c35.146-7.131 64.031.611 90.906 24.357 1.761 1.557 4.151 2.198 6.456 1.73 15.327-3.109 32.202-2.659 48.594.797l-46.991 175.375c-1.395-.436-2.782-.896-4.149-1.392-24.544-8.91-51.58-8.91-76.123 0-21.026 7.631-44.213 7.705-65.287.212-25.382-9.025-52.452-9.165-76.222-.393-19.748 7.288-41.364 7.882-61.43 1.806v-33.669h271.669c4.143 0 7.5-3.357 7.5-7.5s-3.357-7.5-7.5-7.5h-279.168c-4.142 0-7.5 3.357-7.5 7.5v90c0 4.143 3.358 7.5 7.5 7.5s7.5-3.357 7.5-7.5v-33.252c9.175 2.377 18.585 3.579 27.999 3.578 13.089 0 26.18-2.298 38.625-6.891 20.483-7.56 43.924-7.398 66.003.453 24.35 8.658 51.137 8.57 75.429-.245 21.245-7.708 44.645-7.709 65.89.001 1.771.642 3.568 1.24 5.379 1.795l-6.843 25.54c-28.98-5.822-54.239-8.495-79.193-8.495-35.734 0-72.781 5.585-120.12 18.108-10.709 2.834-18.268 11.648-20.056 21.907h-60.613c-4.142 0-7.5 3.357-7.5 7.5s3.358 7.5 7.5 7.5h62.216c2.272 5.641 6.32 10.344 11.663 13.451 6.35 3.691 13.755 4.689 20.856 2.813 11.517-3.047 22.336-5.652 32.684-7.846l-19.853 40.299c-1.831 3.716-.302 8.212 3.414 10.042 1.066.525 2.196.774 3.309.774 2.767 0 5.428-1.538 6.734-4.188l24.867-50.477c54.326-9.253 97.24-5.461 160.952 11.395 34.685 9.176 62.009 13.268 88.597 13.268 14.115 0 28.45-1.167 43.971-3.622l14.501 29.436c1.305 2.65 3.966 4.188 6.733 4.188 1.112 0 2.243-.249 3.309-.774 3.716-1.83 5.244-6.326 3.413-10.042l-12.6-25.576c9.221-1.86 18.911-4.137 29.268-6.877 14.659-3.879 23.431-18.961 19.552-33.62-3.879-14.657-18.963-23.424-33.618-19.552-15.066 3.986-28.261 6.879-40.461 8.774l-14.151-28.726c4.152-4.955 8.206-10.133 12.203-15.596 11.027 3.52 22.484 5.281 33.945 5.281 9.526 0 19.052-1.225 28.333-3.66v19.318c-.002 4.145 3.355 7.502 7.498 7.502zm-11.305-187.81c-18.789-12.309-38.999-18.409-61.041-18.409-5.587 0-11.295.394-17.125 1.177 1.719-33.769-7.189-57.059-17.084-72.238 50.246 19.34 84.182 51.177 95.25 89.47zm-277.353-74.316c28.73-27.629 74.038-38.232 127.223-29.86-16.158 8.198-35.516 23.913-50.912 54.018-23.032-17.764-48.205-25.754-76.311-24.158zm91.93 26.727c22.105-40.021 51.147-48.379 62.966-50.102 9.37 7.399 30.321 29.171 29.465 74.863-26.078-17.775-60.965-27.119-92.431-24.761zm128.637 141.249c2.131 0 4.29.545 6.262 1.691 5.958 3.465 7.986 11.132 4.521 17.09-33.369 57.373-62.496 86.5-119.869 119.869-1.909 1.11-4.075 1.697-6.266 1.697-4.445 0-8.593-2.383-10.824-6.219-3.465-5.958-1.437-13.625 4.521-17.09 54.355-31.613 79.213-56.471 110.825-110.825 2.32-3.986 6.52-6.213 10.83-6.213zm-114.046 18.166h78.328c-6.41 9.903-12.739 18.664-19.349 26.648-7.533 1.135-15.033 3.012-22.329 5.607-8.287 2.947-16.941 4.747-25.722 5.352-4.133.284-7.252 3.865-6.968 7.997.272 3.958 3.567 6.985 7.475 6.985.173 0 .348-.006.522-.018 9.442-.65 18.754-2.512 27.719-5.511-12.651 11.668-27.122 22.108-45.234 33.14-5.109-1.275-10.1-2.469-14.974-3.574zm-224.3 121.762c-3.227.856-6.593.399-9.479-1.279-2.888-1.679-4.948-4.381-5.802-7.607-1.763-6.663 2.225-13.519 8.887-15.281 46.035-12.18 81.898-17.61 116.284-17.61 28.398 0 57.349 3.638 92.321 11.674-5.738 6.624-8.008 15.685-6.021 24.25-71.426-16.476-119.128-14.534-196.19 5.853zm304.54 12.77c-18.244 0-36.968-2.066-58.548-6.542 11.119-6.736 21.195-13.373 30.453-20.159 17.903 2.206 34.86 2.384 53.451.291l11.659 23.666c-12.981 1.854-25.104 2.744-37.015 2.744zm78.364-36.937c6.663-1.764 13.52 2.225 15.282 8.887 1.764 6.663-2.224 13.519-8.887 15.281-11.551 3.056-22.22 5.513-32.3 7.437l-11.477-23.297c11.489-1.957 23.777-4.709 37.382-8.308zm-60.061-3.787c-10.033.89-19.601 1.043-29.274.512 7.126-6.075 13.776-12.391 20.122-19.089zm22.876-59.244c5.438-8.153 10.852-16.907 16.377-26.407 1.515-2.604 2.544-5.357 3.132-8.156h33.709v33.573c-17.302 5.307-35.772 5.638-53.218.99z"/></g></svg>