<svg id="Capa_1" enable-background="new 0 0 511.986 511.986" height="512" viewBox="0 0 511.986 511.986" width="512" xmlns="http://www.w3.org/2000/svg"><g><path d="m485.115 64.983-29.35-16.456c-3.612-2.024-8.184-.738-10.21 2.874-2.026 3.613-.739 8.184 2.874 10.21l29.35 16.456c13.632 7.643 21.173 22.984 18.765 38.176-5.6 35.334-32.311 80.161-54.346 80.161-4.725 0-10.991-4.513-17.646-12.706-7.094-8.736-14.478-21.307-21.945-37.363-13.486-28.999-26.051-66.98-33.611-101.602-1.252-5.737.817-11.249 5.536-14.743 4.723-3.496 10.602-3.867 15.725-.994l31.492 17.656c3.614 2.025 8.184.738 10.21-2.874 2.026-3.613.739-8.185-2.874-10.21l-31.492-17.656c-10.269-5.757-22.526-4.983-31.987 2.022-8.809 6.523-13.15 16.94-11.679 27.628-27.528-13.877-61.596-17.059-97.933-8.884-36.342-8.176-70.406-4.992-97.934 8.886 1.472-10.689-2.87-21.106-11.679-27.63-9.463-7.006-21.719-7.78-31.987-2.022l-53.122 29.783c-3.613 2.025-4.9 6.597-2.874 10.21s6.597 4.899 10.21 2.874l53.122-29.783c5.125-2.874 11.003-2.503 15.725.994 4.719 3.494 6.789 9.006 5.536 14.743-7.56 34.621-20.125 72.603-33.611 101.602-7.468 16.057-14.851 28.627-21.945 37.363-6.654 8.193-12.921 12.706-17.646 12.706-22.035 0-48.746-44.827-54.346-80.161-2.408-15.191 5.133-30.533 18.764-38.176l9.34-5.236c3.613-2.025 4.899-6.597 2.874-10.21s-6.596-4.899-10.209-2.874l-9.34 5.236c-19.084 10.7-29.631 32.243-26.245 53.607 3.182 20.077 12.141 42.665 23.965 60.423 13.908 20.888 29.959 32.391 45.196 32.391.599 0 1.198-.03 1.799-.078-3.296 22.955-3.578 42.386-.716 55.518.765 3.509 3.871 5.904 7.321 5.904.529 0 1.066-.057 1.604-.174 4.047-.883 6.613-4.878 5.731-8.926-2.81-12.892-1.938-34.434 2.359-59.354 11.506-8.91 23.25-26.17 35.094-51.635 11.637-25.021 22.586-56.469 30.416-86.928 26.3-18.159 62.023-23.161 100.886-14.056 1.125.264 2.297.264 3.422 0 38.856-9.105 74.588-4.103 100.886 14.056 7.83 30.459 18.779 61.908 30.416 86.928 11.844 25.465 23.588 42.725 35.094 51.635 4.297 24.919 5.169 46.46 2.359 59.354-6.819 31.283-46.55 80.234-90.45 111.442-3.376 2.4-4.167 7.083-1.767 10.459 1.463 2.058 3.773 3.155 6.119 3.155 1.503 0 3.021-.451 4.339-1.389 47.328-33.645 88.777-85.437 96.415-120.473 2.862-13.132 2.58-32.563-.716-55.518.6.048 1.2.078 1.799.078 15.237 0 31.288-11.503 45.196-32.391 11.824-17.758 20.783-40.346 23.965-60.423 3.387-21.362-7.16-42.905-26.244-53.605z"/><path d="m303.257 174.434c-2.929 2.929-2.929 7.678 0 10.606s7.678 2.929 10.606-.001c3.106-3.105 9.082-5.034 15.596-5.034 6.515 0 12.491 1.929 15.597 5.034 1.464 1.465 3.384 2.197 5.303 2.197s3.839-.732 5.303-2.196c2.929-2.929 2.929-7.678 0-10.606-5.992-5.992-15.542-9.429-26.203-9.429-10.659 0-20.21 3.437-26.202 9.429z"/><path d="m156.323 174.434c-2.929 2.929-2.929 7.678 0 10.606s7.678 2.929 10.606-.001c3.106-3.105 9.082-5.034 15.597-5.034 6.514 0 12.49 1.929 15.596 5.034 1.464 1.465 3.384 2.197 5.303 2.197s3.839-.732 5.303-2.196c2.929-2.929 2.929-7.678 0-10.606-5.992-5.992-15.542-9.429-26.203-9.429-10.659 0-20.21 3.437-26.202 9.429z"/><path d="m359.588 116.059c-8.057-8.058-21.031-12.679-35.595-12.679s-27.538 4.621-35.595 12.679c-2.929 2.929-2.929 7.677 0 10.606 2.929 2.928 7.678 2.929 10.606-.001 5.11-5.109 14.685-8.284 24.988-8.284s19.878 3.175 24.988 8.284c1.464 1.465 3.384 2.197 5.303 2.197s3.839-.732 5.303-2.196c2.931-2.929 2.931-7.677.002-10.606z"/><path d="m384.208 243.501c1.061-4.005-1.326-8.11-5.331-9.17-4.005-1.065-8.109 1.326-9.169 5.33-11.308 42.709-30.097 56.212-37.651 60.035-10.222 5.175-26.039 6.471-45.743 3.752-9.461-1.307-17.755-3.27-22.821-4.613v-36.414c10.814-2.274 28.304-7.677 33.026-12.401 11.405-11.404 11.405-34.646 0-46.05v-.001c-3.175-3.175-12.663-8.502-40.526-8.502s-37.351 5.327-40.526 8.503c-11.405 11.404-11.405 34.646 0 46.05 4.722 4.723 22.212 10.126 33.026 12.401v36.448c-16.471 4.424-49.752 10.348-68.564.827-7.553-3.823-26.342-17.326-37.65-60.035-1.06-4.005-5.168-6.397-9.169-5.33-4.004 1.06-6.391 5.165-5.331 9.17 4.2 15.863 16.782 53.797 43.732 68.686 3.664 5.118 18.359 27.564 18.359 58.228v13.864c-36.256-22.354-73.245-59.217-92.825-93.205-2.067-3.589-6.653-4.819-10.242-2.755-3.589 2.068-4.823 6.653-2.755 10.243 22.476 39.015 64.595 79.957 105.822 103.133v49.72c0 13.469 7.235 25.946 20.373 35.133 12.321 8.615 28.569 13.359 45.751 13.359s33.43-4.744 45.751-13.359c13.137-9.187 20.373-21.664 20.373-35.133v-80.999c0-30.685 14.714-53.14 18.357-58.228 26.95-14.888 39.533-52.824 43.733-68.687zm-98.295-28.925c.003.004.006.007.01.01-.004-.003-.007-.006-.01-.01zm-59.893.055c2.198-1.688 13.176-4.163 29.973-4.163 16.798 0 27.776 2.475 29.974 4.163 5.365 5.457 5.382 19.164.053 24.675-3.954 2.951-25.788 9.146-30.017 9.218-4.248-.072-26.082-6.267-30.036-9.218-5.33-5.511-5.312-19.219.053-24.675zm-18.953 105.179c21.302 0 42.078-5.485 48.926-7.479 6.847 1.994 27.622 7.479 48.926 7.479 4.782 0 9.588-.283 14.272-.938-3.493 7.177-7.086 16.38-9.435 27.188-8.813-7.289-21.633-11.806-36.131-11.806-6.106 0-12.025.816-17.632 2.431-5.606-1.614-11.526-2.431-17.632-2.431-14.501 0-27.324 4.52-36.137 11.812-2.35-10.81-5.938-20.016-9.431-27.194 4.684.655 9.491.938 14.274.938zm100.05 131.605c0 18.154-23.412 33.492-51.124 33.492s-51.124-15.338-51.124-33.492v-81c0-11.471 15.337-21.162 33.492-21.162 3.486 0 6.875.348 10.132 1.024v75.644c0 4.143 3.358 7.5 7.5 7.5s7.5-3.357 7.5-7.5v-75.644c3.257-.676 6.645-1.024 10.132-1.024 18.154 0 33.492 9.691 33.492 21.162z"/><path d="m218.285 128.862c1.919 0 3.839-.732 5.303-2.196 2.929-2.93 2.929-7.678 0-10.606-8.057-8.058-21.031-12.679-35.595-12.679s-27.538 4.621-35.595 12.679c-2.929 2.929-2.929 7.677 0 10.606 2.929 2.928 7.678 2.929 10.606-.001 5.11-5.109 14.685-8.284 24.988-8.284s19.878 3.175 24.988 8.284c1.466 1.464 3.385 2.197 5.305 2.197z"/></g></svg>