<svg id="Capa_1" enable-background="new 0 0 512 512" height="512" viewBox="0 0 512 512" width="512" xmlns="http://www.w3.org/2000/svg"><g><path d="m474.5 61.988h-337.956c-4.143 0-7.5 3.357-7.5 7.5s3.357 7.5 7.5 7.5h337.956c12.406 0 22.5 10.094 22.5 22.5v240c0 12.406-10.094 22.5-22.5 22.5h-192.889c-1.989 0-3.896.79-5.304 2.196l-70.785 70.787c-.001 0-.001 0-.001 0l17.025-63.542c.604-2.253.125-4.657-1.294-6.507-1.42-1.851-3.618-2.935-5.95-2.935h-66.027c-4.143 0-7.5 3.357-7.5 7.5s3.357 7.5 7.5 7.5h56.253l-14.495 54.101c-1.782 6.65 1.026 13.431 6.988 16.873 2.386 1.378 4.981 2.051 7.549 2.051 3.851 0 7.638-1.514 10.559-4.434l68.589-68.591h189.782c20.678 0 37.5-16.822 37.5-37.5v-240c0-20.677-16.822-37.499-37.5-37.499z"/><path d="m119.275 361.988h-81.775c-12.406 0-22.5-10.094-22.5-22.5v-240c0-12.406 10.094-22.5 22.5-22.5h69.044c4.143 0 7.5-3.357 7.5-7.5s-3.357-7.5-7.5-7.5h-69.044c-20.678 0-37.5 16.822-37.5 37.5v240c0 20.678 16.822 37.5 37.5 37.5h81.775c4.143 0 7.5-3.357 7.5-7.5s-3.357-7.5-7.5-7.5z"/><path d="m472.532 135.028c-2.153-6.63-9.955-7.416-18.988-8.326-.827-.083-1.801-.182-2.667-.28-.361-.793-.756-1.688-1.091-2.449-3.657-8.311-6.816-15.487-13.786-15.487s-10.129 7.177-13.786 15.487c-.335.761-.729 1.656-1.091 2.449-.866.099-1.84.197-2.667.28-9.033.91-16.835 1.696-18.988 8.326s3.696 11.852 10.47 17.897c.619.554 1.349 1.204 1.991 1.793-.174.854-.381 1.811-.558 2.622-1.926 8.874-3.589 16.537 2.051 20.634 5.64 4.1 12.411.147 20.256-4.426.719-.418 1.563-.911 2.322-1.34.759.429 1.604.922 2.322 1.34 5.532 3.227 10.532 6.142 14.978 6.142 1.857 0 3.617-.509 5.278-1.716 5.64-4.097 3.977-11.76 2.051-20.634-.177-.812-.384-1.768-.558-2.622.643-.589 1.372-1.239 1.991-1.793 6.774-6.046 12.624-11.267 10.47-17.897zm-20.458 6.708c-4.024 3.592-6.044 5.395-6.935 8.134-.888 2.736-.313 5.382.83 10.652.01.046.021.093.03.141-.041-.024-.082-.049-.122-.072-4.661-2.717-7-4.081-9.878-4.081s-5.217 1.364-9.878 4.081c-.04.023-.081.048-.122.072.01-.048.021-.095.03-.141 1.144-5.271 1.718-7.916.829-10.656-.89-2.735-2.909-4.538-6.934-8.13-.034-.031-.07-.063-.106-.096.048-.005.095-.01.141-.014 5.367-.541 8.062-.812 10.392-2.505 2.327-1.692 3.418-4.17 5.591-9.107.02-.043.038-.086.058-.13.02.044.038.087.058.13 2.173 4.938 3.264 7.415 5.592 9.108 2.329 1.691 5.023 1.963 10.391 2.504.046.004.093.009.141.014-.037.032-.074.065-.108.096z"/><path d="m363.544 126.702c-.827-.083-1.801-.182-2.667-.28-.361-.793-.756-1.688-1.091-2.449-3.657-8.311-6.816-15.487-13.786-15.487s-10.129 7.177-13.786 15.487c-.335.761-.729 1.656-1.091 2.449-.866.099-1.84.197-2.667.28-9.033.91-16.835 1.696-18.988 8.326s3.696 11.852 10.47 17.897c.619.554 1.349 1.204 1.991 1.793-.174.854-.381 1.811-.558 2.622-1.926 8.874-3.589 16.537 2.051 20.634 5.639 4.1 12.412.147 20.256-4.426.719-.418 1.563-.911 2.322-1.34.759.429 1.604.922 2.322 1.34 5.532 3.227 10.532 6.142 14.978 6.142 1.857 0 3.617-.509 5.278-1.716 5.64-4.097 3.977-11.76 2.051-20.634-.177-.812-.384-1.768-.558-2.622.643-.589 1.372-1.239 1.991-1.793 6.773-6.046 12.623-11.268 10.47-17.897s-9.955-7.416-18.988-8.326zm-1.47 15.034c-4.024 3.592-6.044 5.395-6.935 8.134-.888 2.736-.313 5.382.83 10.652.01.046.021.093.03.141-.041-.024-.082-.049-.122-.072-4.661-2.717-7-4.081-9.878-4.081s-5.217 1.364-9.878 4.081c-.04.023-.081.048-.122.072.01-.048.021-.095.03-.141 1.144-5.271 1.718-7.916.829-10.656-.89-2.735-2.909-4.538-6.934-8.13-.034-.031-.07-.063-.106-.096.048-.005.095-.01.141-.014 5.367-.541 8.062-.812 10.392-2.505 2.327-1.692 3.418-4.17 5.591-9.107.02-.043.038-.086.058-.13.02.044.038.087.058.13 2.173 4.938 3.264 7.415 5.592 9.108 2.329 1.691 5.023 1.963 10.391 2.504.046.004.093.009.141.014-.037.032-.074.065-.108.096z"/><path d="m292.532 135.028c-2.153-6.63-9.955-7.416-18.988-8.326-.827-.083-1.801-.182-2.667-.28-.361-.793-.756-1.688-1.091-2.449-3.657-8.311-6.816-15.487-13.786-15.487s-10.129 7.177-13.786 15.487c-.335.761-.729 1.656-1.091 2.449-.866.099-1.84.197-2.667.28-9.033.91-16.835 1.696-18.988 8.326s3.696 11.852 10.47 17.897c.619.554 1.349 1.204 1.991 1.793-.174.854-.381 1.811-.558 2.622-1.926 8.874-3.589 16.537 2.051 20.634 5.639 4.1 12.412.147 20.256-4.426.719-.418 1.563-.911 2.322-1.34.759.429 1.604.922 2.322 1.34 5.532 3.227 10.532 6.142 14.978 6.142 1.857 0 3.617-.509 5.278-1.716 5.64-4.097 3.977-11.76 2.051-20.634-.177-.812-.384-1.768-.558-2.622.643-.589 1.372-1.239 1.991-1.793 6.774-6.046 12.624-11.267 10.47-17.897zm-20.458 6.708c-4.024 3.592-6.044 5.395-6.935 8.134-.888 2.736-.313 5.382.83 10.652.01.046.021.093.03.141-.041-.024-.082-.049-.122-.072-4.661-2.717-7-4.081-9.878-4.081s-5.217 1.364-9.878 4.081c-.04.023-.081.048-.122.072.01-.048.021-.095.03-.141 1.144-5.271 1.718-7.916.829-10.656-.89-2.735-2.909-4.538-6.934-8.13-.034-.031-.07-.063-.106-.096.048-.005.095-.01.141-.014 5.367-.541 8.062-.812 10.392-2.505 2.327-1.692 3.418-4.17 5.591-9.107.02-.043.038-.086.058-.13.02.044.038.087.058.13 2.173 4.938 3.264 7.415 5.592 9.108 2.329 1.691 5.023 1.963 10.391 2.504.046.004.093.009.141.014-.037.032-.074.065-.108.096z"/><path d="m183.544 126.702c-.827-.083-1.801-.182-2.667-.28-.361-.793-.756-1.688-1.091-2.449-3.657-8.311-6.816-15.487-13.786-15.487s-10.129 7.177-13.786 15.487c-.335.761-.729 1.656-1.091 2.449-.866.099-1.84.197-2.667.28-9.033.91-16.835 1.696-18.988 8.326s3.696 11.852 10.47 17.897c.619.554 1.349 1.204 1.991 1.793-.174.854-.381 1.811-.558 2.622-1.926 8.874-3.589 16.537 2.051 20.634 5.64 4.1 12.411.147 20.256-4.426.719-.418 1.563-.911 2.322-1.34.759.429 1.604.922 2.322 1.34 5.532 3.227 10.532 6.142 14.978 6.142 1.857 0 3.617-.509 5.278-1.716 5.64-4.097 3.977-11.76 2.051-20.634-.177-.812-.384-1.768-.558-2.622.643-.589 1.372-1.239 1.991-1.793 6.773-6.046 12.623-11.268 10.47-17.897s-9.955-7.416-18.988-8.326zm-1.47 15.034c-4.024 3.592-6.044 5.395-6.935 8.134-.888 2.736-.313 5.382.83 10.652.01.046.021.093.03.141-.041-.024-.082-.049-.122-.072-4.661-2.717-7-4.081-9.878-4.081s-5.217 1.364-9.878 4.081c-.04.023-.081.048-.122.072.01-.048.021-.095.03-.141 1.144-5.271 1.718-7.916.829-10.656-.89-2.735-2.909-4.538-6.934-8.13-.034-.031-.07-.063-.106-.096.048-.005.095-.01.141-.014 5.367-.541 8.062-.812 10.392-2.505 2.327-1.692 3.418-4.17 5.591-9.107.02-.043.038-.086.058-.13.02.044.038.087.058.13 2.173 4.938 3.264 7.415 5.592 9.108 2.329 1.691 5.023 1.963 10.391 2.504.046.004.093.009.141.014-.037.032-.074.065-.108.096z"/><path d="m112.532 135.028c-2.153-6.63-9.955-7.416-18.988-8.326-.827-.083-1.801-.182-2.667-.28-.361-.793-.756-1.688-1.091-2.449-3.657-8.311-6.816-15.487-13.786-15.487s-10.129 7.177-13.786 15.487c-.335.761-.729 1.656-1.091 2.449-.866.099-1.84.197-2.667.28-9.033.91-16.835 1.696-18.988 8.326s3.696 11.852 10.47 17.897c.619.554 1.349 1.204 1.991 1.793-.174.854-.381 1.811-.558 2.622-1.926 8.874-3.589 16.537 2.051 20.634 5.639 4.1 12.411.147 20.256-4.426.719-.418 1.563-.911 2.322-1.34.759.429 1.604.922 2.322 1.34 5.532 3.227 10.532 6.142 14.978 6.142 1.857 0 3.617-.509 5.278-1.716 5.64-4.097 3.977-11.76 2.051-20.634-.177-.812-.384-1.768-.558-2.622.643-.589 1.372-1.239 1.991-1.793 6.774-6.046 12.624-11.267 10.47-17.897zm-20.458 6.708c-4.024 3.592-6.044 5.395-6.935 8.134-.888 2.736-.313 5.382.83 10.652.01.046.021.093.03.141-.041-.024-.082-.049-.122-.072-4.661-2.717-7-4.081-9.878-4.081s-5.217 1.364-9.878 4.081c-.04.023-.081.048-.122.072.01-.048.021-.095.03-.141 1.144-5.271 1.718-7.916.829-10.656-.89-2.735-2.909-4.538-6.934-8.13-.034-.031-.07-.063-.106-.096.048-.005.095-.01.141-.014 5.367-.541 8.062-.812 10.392-2.505 2.327-1.692 3.418-4.17 5.591-9.107.02-.043.038-.086.058-.13.02.044.038.087.058.13 2.173 4.938 3.264 7.415 5.592 9.108 2.329 1.691 5.023 1.963 10.391 2.504.046.004.093.009.141.014-.037.032-.074.065-.108.096z"/><path d="m362.079 226.962c0 4.143 3.357 7.5 7.5 7.5h95.82c4.143 0 7.5-3.357 7.5-7.5s-3.357-7.5-7.5-7.5h-95.82c-4.142 0-7.5 3.358-7.5 7.5z"/><path d="m99.101 226.962c0 4.143 3.357 7.5 7.5 7.5h232.979c4.143 0 7.5-3.357 7.5-7.5s-3.357-7.5-7.5-7.5h-232.979c-4.143 0-7.5 3.358-7.5 7.5z"/><path d="m472.899 266.962c0-4.143-3.357-7.5-7.5-7.5h-418.798c-4.143 0-7.5 3.357-7.5 7.5s3.357 7.5 7.5 7.5h418.799c4.142 0 7.499-3.357 7.499-7.5z"/><path d="m46.601 299.462c-4.143 0-7.5 3.357-7.5 7.5s3.357 7.5 7.5 7.5h338.799c4.143 0 7.5-3.357 7.5-7.5s-3.357-7.5-7.5-7.5z"/><path d="m40.658 232.124c.65.175 1.304.258 1.947.258 3.311 0 6.341-2.209 7.239-5.56l4-14.917c1.073-4.001-1.301-8.113-5.302-9.187-3.996-1.072-8.113 1.3-9.187 5.302l-4 14.917c-1.072 4.001 1.302 8.113 5.303 9.187z"/><path d="m67.356 208.02-4 14.917c-1.073 4.001 1.301 8.113 5.302 9.187.65.175 1.304.258 1.947.258 3.311 0 6.341-2.209 7.239-5.56l4-14.917c1.073-4.001-1.301-8.113-5.302-9.187-3.995-1.072-8.112 1.3-9.186 5.302z"/><path d="m462.155 314.822c.898 3.351 3.929 5.56 7.239 5.56.644 0 1.297-.083 1.947-.258 4.001-1.073 6.375-5.186 5.302-9.187l-4-14.917c-1.073-4.002-5.188-6.371-9.187-5.302-4.001 1.073-6.375 5.186-5.302 9.187z"/><path d="m435.457 290.718c-4.001 1.073-6.375 5.186-5.302 9.187l4 14.917c.898 3.351 3.929 5.56 7.239 5.56.644 0 1.297-.083 1.947-.258 4.001-1.073 6.375-5.186 5.302-9.187l-4-14.917c-1.072-4.002-5.188-6.371-9.186-5.302z"/></g></svg>