<?xml version="1.0" encoding="iso-8859-1"?>
<!-- Uploaded to: SVG Repo, www.svgrepo.com, Generator: SVG Repo Mixer Tools -->
<svg fill="#000000" height="800px" width="800px" version="1.1" id="Layer_1" xmlns="http://www.w3.org/2000/svg" xmlns:xlink="http://www.w3.org/1999/xlink" 
	 viewBox="0 0 283.996 283.996" xml:space="preserve">
<g>
	<g>
		<g>
			<path d="M193.82,0h-74.5c-14.284,0-25.908,11.62-25.908,25.908v9.04H75.896v-6.316c0-3.688-4.192-6.688-9.344-6.688
				c-0.464,0-0.904,0.044-1.356,0.088c-0.52,0.056-0.916,0.492-0.916,1.016v32.948c0,0.524,0.4,0.96,0.92,1.016
				c0.444,0.048,0.888,0.088,1.348,0.088c5.152,0,9.344-3,9.344-6.692v-6.312h17.516v187.268H75.892v-6.312
				c0-3.692-4.192-6.692-9.344-6.692c-0.464,0-0.904,0.044-1.356,0.088c-0.52,0.056-0.916,0.492-0.916,1.016v32.948
				c0,0.524,0.4,0.96,0.92,1.016c0.444,0.048,0.888,0.088,1.348,0.088c5.152,0,9.344-3,9.344-6.692v-6.312h17.516v17.576
				c0,14.284,11.624,25.908,25.908,25.908h74.5c14.284,0,25.908-11.62,25.908-25.908V25.908C219.728,11.62,208.104,0,193.82,0z
				 M73.856,50.412c0,2.52-3.344,4.652-7.304,4.652c-0.076,0-0.156-0.004-0.232-0.004V23.984c4.06-0.016,7.532,2.076,7.536,4.644
				V50.412z M73.856,246.832c0,2.568-3.504,4.632-7.536,4.648v-31.076c4.06-0.06,7.532,2.084,7.536,4.648V246.832z M93.412,239.388
				H76.028V232.5h17.384V239.388z M93.412,42.964H76.028v-6.888h17.384V42.964z M215.728,258.096
				c0,12.08-9.828,21.908-21.908,21.908h-74.5c-12.08,0-21.908-9.828-21.908-21.908V25.908C97.412,13.828,107.24,4,119.32,4h74.5
				c12.08,0,21.908,9.828,21.908,21.908V258.096z"/>
			<path d="M200.892,33.888c0-7.732-6.292-14.024-14.024-14.024h-60.596c-7.732,0-14.02,6.292-14.02,14.024V250.12
				c0,7.732,6.292,14.02,14.02,14.02h60.596c7.732,0,14.024-6.288,14.024-14.02V33.888z M198.056,250.116
				c0,6.168-5.016,11.184-11.188,11.184h-60.596c-6.168,0-11.184-5.016-11.184-11.184V33.888c0-6.168,5.016-11.188,11.184-11.188
				h60.596c6.168,0,11.188,5.02,11.188,11.188V250.116z"/>
			<path d="M122.764,16.112c2.56,0,4.64-2.08,4.64-4.636c0-2.556-2.084-4.64-4.64-4.64c-2.556,0-4.64,2.084-4.64,4.64
				C118.124,14.032,120.208,16.112,122.764,16.112z M122.764,7.968c1.932,0,3.508,1.576,3.508,3.508s-1.576,3.504-3.508,3.504
				c-1.932,0-3.504-1.572-3.504-3.504S120.832,7.968,122.764,7.968z"/>
			<path d="M144.372,16.112c2.56,0,4.64-2.08,4.64-4.636c0-2.556-2.08-4.64-4.64-4.64s-4.64,2.084-4.64,4.64
				C139.732,14.032,141.812,16.112,144.372,16.112z M144.372,7.968c1.932,0,3.504,1.576,3.504,3.508s-1.572,3.504-3.504,3.504
				s-3.508-1.572-3.508-3.504S142.436,7.968,144.372,7.968z"/>
			<path d="M165.976,16.112c2.56,0,4.64-2.08,4.64-4.636c0-2.556-2.08-4.64-4.64-4.64c-2.56,0-4.64,2.084-4.64,4.64
				C161.336,14.032,163.416,16.112,165.976,16.112z M165.976,7.968c1.932,0,3.504,1.576,3.504,3.508s-1.572,3.504-3.504,3.504
				s-3.504-1.572-3.504-3.504S164.04,7.968,165.976,7.968z"/>
			<path d="M187.576,16.112c2.56,0,4.64-2.08,4.64-4.636c0-2.556-2.08-4.64-4.64-4.64c-2.56,0-4.64,2.084-4.64,4.64
				C182.936,14.032,185.02,16.112,187.576,16.112z M187.576,7.968c1.932,0,3.504,1.576,3.504,3.508s-1.572,3.504-3.504,3.504
				s-3.504-1.572-3.504-3.504S185.644,7.968,187.576,7.968z"/>
			<path d="M204.36,21.848c2.56,0,4.64-2.08,4.64-4.636c0-2.556-2.08-4.64-4.64-4.64c-2.56,0-4.64,2.084-4.64,4.64
				C199.72,19.768,201.804,21.848,204.36,21.848z M204.36,13.704c1.932,0,3.504,1.576,3.504,3.508s-1.572,3.504-3.504,3.504
				s-3.504-1.572-3.504-3.504S202.428,13.704,204.36,13.704z"/>
			<path d="M203.796,37.388c0,2.56,2.08,4.636,4.64,4.636c2.56,0,4.64-2.08,4.64-4.636c0-2.556-2.08-4.64-4.64-4.64
				C205.876,32.748,203.796,34.828,203.796,37.388z M211.94,37.388c0,1.932-1.572,3.504-3.504,3.504s-3.504-1.572-3.504-3.504
				s1.572-3.508,3.504-3.508S211.94,35.452,211.94,37.388z"/>
			<path d="M208.432,53.852c-2.56,0-4.64,2.08-4.64,4.636c0,2.556,2.08,4.64,4.64,4.64c2.56,0,4.64-2.084,4.64-4.64
				C213.072,55.932,210.992,53.852,208.432,53.852z M208.432,61.996c-1.932,0-3.504-1.576-3.504-3.508
				c0-1.932,1.572-3.504,3.504-3.504s3.504,1.572,3.504,3.504C211.936,60.42,210.368,61.996,208.432,61.996z"/>
			<path d="M208.432,74.956c-2.56,0-4.64,2.08-4.64,4.636c0,2.556,2.08,4.64,4.64,4.64c2.56,0,4.64-2.084,4.64-4.64
				C213.072,77.036,210.992,74.956,208.432,74.956z M208.432,83.104c-1.932,0-3.504-1.576-3.504-3.508s1.572-3.504,3.504-3.504
				s3.504,1.572,3.504,3.504S210.368,83.104,208.432,83.104z"/>
			<path d="M208.432,96.06c-2.56,0-4.64,2.084-4.64,4.64c0,2.556,2.08,4.64,4.64,4.64c2.56,0,4.64-2.084,4.64-4.64
				C213.072,98.144,210.992,96.06,208.432,96.06z M208.432,104.208c-1.932,0-3.504-1.576-3.504-3.508s1.572-3.508,3.504-3.508
				s3.504,1.576,3.504,3.508S210.368,104.208,208.432,104.208z"/>
			<path d="M208.432,117.164c-2.56,0-4.64,2.084-4.64,4.64c0,2.556,2.084,4.636,4.64,4.636c2.556,0,4.64-2.08,4.64-4.636
				C213.072,119.248,210.992,117.164,208.432,117.164z M208.432,125.308c-1.932,0-3.508-1.572-3.508-3.504s1.576-3.508,3.508-3.508
				s3.504,1.576,3.504,3.508S210.368,125.308,208.432,125.308z"/>
			<path d="M208.432,138.272c-2.56,0-4.64,2.084-4.64,4.64c0,2.556,2.08,4.636,4.64,4.636c2.56,0,4.64-2.08,4.64-4.636
				C213.072,140.356,210.992,138.272,208.432,138.272z M208.432,146.416c-1.932,0-3.504-1.572-3.504-3.504s1.572-3.508,3.504-3.508
				s3.504,1.576,3.504,3.508S210.368,146.416,208.432,146.416z"/>
			<path d="M208.432,159.376c-2.56,0-4.64,2.08-4.64,4.636c0,2.556,2.08,4.64,4.64,4.64c2.56,0,4.64-2.084,4.64-4.64
				C213.072,161.456,210.992,159.376,208.432,159.376z M208.432,167.52c-1.932,0-3.504-1.576-3.504-3.508s1.572-3.504,3.504-3.504
				s3.504,1.572,3.504,3.504S210.368,167.52,208.432,167.52z"/>
			<path d="M208.432,180.48c-2.56,0-4.64,2.08-4.64,4.636c0,2.556,2.08,4.64,4.64,4.64c2.56,0,4.64-2.084,4.64-4.64
				C213.072,182.56,210.992,180.48,208.432,180.48z M208.432,188.624c-1.932,0-3.504-1.576-3.504-3.508s1.572-3.504,3.504-3.504
				s3.504,1.572,3.504,3.504S210.368,188.624,208.432,188.624z"/>
			<path d="M208.432,201.584c-2.56,0-4.64,2.084-4.64,4.64c0,2.556,2.084,4.64,4.64,4.64c2.556,0,4.64-2.084,4.64-4.64
				C213.072,203.668,210.992,201.584,208.432,201.584z M208.432,209.732c-1.932,0-3.508-1.576-3.508-3.508s1.576-3.508,3.508-3.508
				s3.504,1.576,3.504,3.508S210.368,209.732,208.432,209.732z"/>
			<path d="M208.432,222.688c-2.56,0-4.64,2.084-4.64,4.64c0,2.556,2.084,4.636,4.64,4.636c2.556,0,4.64-2.08,4.64-4.636
				C213.072,224.772,210.992,222.688,208.432,222.688z M208.432,230.832c-1.932,0-3.508-1.572-3.508-3.504s1.576-3.508,3.508-3.508
				s3.504,1.576,3.504,3.508S210.368,230.832,208.432,230.832z"/>
			<path d="M208.432,243.792c-2.56,0-4.64,2.084-4.64,4.64c0,2.556,2.08,4.636,4.64,4.636c2.56,0,4.64-2.08,4.64-4.636
				C213.072,245.876,210.992,243.792,208.432,243.792z M208.432,251.936c-1.932,0-3.504-1.572-3.504-3.504s1.572-3.508,3.504-3.508
				s3.504,1.576,3.504,3.508S210.368,251.936,208.432,251.936z"/>
			<path d="M107.656,21.848c2.56,0,4.64-2.08,4.64-4.636c0-2.556-2.08-4.64-4.64-4.64s-4.64,2.084-4.64,4.64
				C103.016,19.768,105.1,21.848,107.656,21.848z M107.656,13.704c1.932,0,3.504,1.576,3.504,3.508s-1.572,3.504-3.504,3.504
				s-3.508-1.572-3.508-3.504C104.148,15.28,105.724,13.704,107.656,13.704z"/>
			<path d="M204.36,261.224c-2.56,0-4.64,2.084-4.64,4.64c0,2.556,2.08,4.64,4.64,4.64c2.56,0,4.64-2.084,4.64-4.64
				C209,263.308,206.92,261.224,204.36,261.224z M204.36,269.372c-1.932,0-3.504-1.576-3.504-3.508s1.572-3.508,3.504-3.508
				s3.504,1.576,3.504,3.508S206.296,269.372,204.36,269.372z"/>
			<path d="M108.776,261.224c-2.56,0-4.64,2.084-4.64,4.64c0,2.556,2.08,4.64,4.64,4.64s4.64-2.084,4.64-4.64
				C113.416,263.308,111.336,261.224,108.776,261.224z M108.776,269.372c-1.932,0-3.504-1.576-3.504-3.508s1.572-3.508,3.504-3.508
				c1.932,0,3.504,1.576,3.504,3.508S110.712,269.372,108.776,269.372z"/>
			<path d="M124.164,267.804c-2.56,0-4.64,2.08-4.64,4.636c0,2.556,2.08,4.64,4.64,4.64s4.64-2.084,4.64-4.64
				C128.804,269.884,126.724,267.804,124.164,267.804z M124.164,275.948c-1.932,0-3.504-1.576-3.504-3.508s1.572-3.504,3.504-3.504
				c1.932,0,3.504,1.572,3.504,3.504S126.096,275.948,124.164,275.948z"/>
			<path d="M145.768,267.804c-2.56,0-4.64,2.08-4.64,4.636c0,2.556,2.08,4.64,4.64,4.64s4.64-2.084,4.64-4.64
				C150.408,269.884,148.324,267.804,145.768,267.804z M145.768,275.948c-1.932,0-3.504-1.576-3.504-3.508s1.572-3.504,3.504-3.504
				s3.504,1.572,3.504,3.504S147.7,275.948,145.768,275.948z"/>
			<path d="M167.372,267.804c-2.56,0-4.64,2.08-4.64,4.636c0,2.556,2.08,4.64,4.64,4.64c2.56,0,4.64-2.084,4.64-4.64
				C172.012,269.884,169.928,267.804,167.372,267.804z M167.372,275.948c-1.932,0-3.504-1.576-3.504-3.508s1.572-3.504,3.504-3.504
				s3.504,1.572,3.504,3.504S169.304,275.948,167.372,275.948z"/>
			<path d="M188.976,267.804c-2.56,0-4.64,2.08-4.64,4.636c0,2.556,2.08,4.64,4.64,4.64c2.56,0,4.64-2.084,4.64-4.64
				C193.616,269.884,191.532,267.804,188.976,267.804z M188.976,275.948c-1.932,0-3.504-1.576-3.504-3.508s1.572-3.504,3.504-3.504
				s3.508,1.572,3.508,3.504S190.908,275.948,188.976,275.948z"/>
			<path d="M104.704,40.992c2.56,0,4.64-2.084,4.64-4.64c0-2.556-2.08-4.636-4.64-4.636s-4.64,2.08-4.64,4.636
				C100.064,38.908,102.144,40.992,104.704,40.992z M104.704,32.848c1.932,0,3.504,1.572,3.504,3.504s-1.572,3.508-3.504,3.508
				c-1.932,0-3.504-1.576-3.504-3.508S102.772,32.848,104.704,32.848z"/>
			<path d="M104.704,62.1c2.56,0,4.64-2.084,4.64-4.64c0-2.556-2.08-4.636-4.64-4.636s-4.64,2.08-4.64,4.636
				C100.064,60.016,102.144,62.1,104.704,62.1z M104.704,53.952c1.932,0,3.504,1.572,3.504,3.504s-1.572,3.508-3.504,3.508
				c-1.932,0-3.504-1.576-3.504-3.508S102.772,53.952,104.704,53.952z"/>
			<path d="M104.704,83.204c2.56,0,4.64-2.084,4.64-4.64c0-2.556-2.08-4.64-4.64-4.64s-4.64,2.084-4.64,4.64
				C100.064,81.12,102.144,83.204,104.704,83.204z M104.704,75.056c1.932,0,3.504,1.576,3.504,3.508
				c0,1.932-1.572,3.508-3.504,3.508c-1.932,0-3.504-1.576-3.504-3.508C101.2,76.632,102.772,75.056,104.704,75.056z"/>
			<path d="M104.704,104.304c2.56,0,4.64-2.08,4.64-4.636c0-2.556-2.08-4.64-4.64-4.64s-4.64,2.084-4.64,4.64
				C100.064,102.224,102.144,104.304,104.704,104.304z M104.704,96.16c1.932,0,3.504,1.576,3.504,3.508
				c0,1.932-1.572,3.504-3.504,3.504c-1.932,0-3.504-1.572-3.504-3.504C101.2,97.736,102.772,96.16,104.704,96.16z"/>
			<path d="M104.704,125.412c2.56,0,4.64-2.08,4.64-4.636c0-2.556-2.08-4.64-4.64-4.64s-4.64,2.084-4.64,4.64
				C100.064,123.332,102.144,125.412,104.704,125.412z M104.704,117.268c1.932,0,3.504,1.576,3.504,3.508s-1.572,3.504-3.504,3.504
				c-1.932,0-3.508-1.572-3.508-3.504S102.772,117.268,104.704,117.268z"/>
			<path d="M104.704,146.516c2.56,0,4.64-2.084,4.64-4.64c0-2.556-2.08-4.636-4.64-4.636s-4.64,2.08-4.64,4.636
				C100.064,144.432,102.144,146.516,104.704,146.516z M104.704,138.372c1.932,0,3.504,1.572,3.504,3.504
				c0,1.932-1.568,3.508-3.504,3.508c-1.932,0-3.504-1.576-3.504-3.508C101.2,139.944,102.772,138.372,104.704,138.372z"/>
			<path d="M104.704,167.62c2.56,0,4.64-2.084,4.64-4.64c0-2.556-2.08-4.636-4.64-4.636s-4.64,2.08-4.64,4.636
				C100.064,165.536,102.144,167.62,104.704,167.62z M104.704,159.476c1.932,0,3.504,1.572,3.504,3.504s-1.568,3.508-3.504,3.508
				c-1.932,0-3.504-1.576-3.504-3.508S102.772,159.476,104.704,159.476z"/>
			<path d="M104.704,188.724c2.56,0,4.64-2.084,4.64-4.64c0-2.556-2.08-4.64-4.64-4.64s-4.64,2.084-4.64,4.64
				C100.064,186.64,102.144,188.724,104.704,188.724z M104.704,180.58c1.932,0,3.504,1.576,3.504,3.508s-1.568,3.508-3.504,3.508
				c-1.932,0-3.504-1.576-3.504-3.508S102.772,180.58,104.704,180.58z"/>
			<path d="M104.704,209.828c2.56,0,4.64-2.08,4.64-4.636c0-2.556-2.08-4.64-4.64-4.64s-4.64,2.084-4.64,4.64
				C100.064,207.748,102.144,209.828,104.704,209.828z M104.704,201.684c1.932,0,3.504,1.576,3.504,3.508s-1.572,3.504-3.504,3.504
				c-1.932,0-3.508-1.572-3.508-3.504S102.772,201.684,104.704,201.684z"/>
			<path d="M104.704,230.936c2.56,0,4.64-2.08,4.64-4.636c0-2.556-2.08-4.64-4.64-4.64s-4.64,2.084-4.64,4.64
				C100.064,228.856,102.144,230.936,104.704,230.936z M104.704,222.788c1.932,0,3.504,1.576,3.504,3.508s-1.572,3.504-3.504,3.504
				c-1.932,0-3.508-1.572-3.508-3.504S102.772,222.788,104.704,222.788z"/>
			<path d="M109.344,247.4c0-2.56-2.08-4.636-4.64-4.636s-4.64,2.08-4.64,4.636c0,2.556,2.08,4.64,4.64,4.64
				S109.344,249.956,109.344,247.4z M101.2,247.4c0-1.932,1.572-3.504,3.504-3.504c1.932,0,3.504,1.572,3.504,3.504
				s-1.572,3.508-3.504,3.508C102.772,250.908,101.2,249.332,101.2,247.4z"/>
			<path d="M142.336,71.34h6.052c0.5,0,0.908-0.408,0.908-0.908V56.268h14.076v14.164c0,0.5,0.408,0.908,0.908,0.908h6.048
				c0.5,0,0.908-0.408,0.908-0.908V36.448c0-0.5-0.408-0.908-0.908-0.908h-6.048c-0.5,0-0.908,0.408-0.908,0.908v12.82h-14.076
				v-12.82c0-0.5-0.408-0.908-0.908-0.908h-6.048c-0.5,0-0.908,0.408-0.908,0.908v33.984
				C141.432,70.936,141.836,71.34,142.336,71.34z M143.244,37.356h4.236v12.82c0,0.5,0.408,0.908,0.908,0.908h15.888
				c0.5,0,0.908-0.408,0.908-0.908v-12.82h4.236v32.172h-4.236V55.364c0-0.5-0.408-0.908-0.908-0.908h-15.888
				c-0.5,0-0.908,0.408-0.908,0.908v14.164h-4.236V37.356z"/>
			<path d="M171.4,83.96c-1.7-1.604-3.756-2.864-6.112-3.748c-4.632-1.72-10.6-1.74-15.252,0.004
				c-2.336,0.88-4.38,2.136-6.068,3.748c-1.7,1.612-3.048,3.596-4.004,5.9c-0.956,2.292-1.436,4.892-1.436,7.716
				c0,2.764,0.484,5.328,1.436,7.62c0.956,2.3,2.3,4.304,3.996,5.964c1.692,1.66,3.732,2.968,6.06,3.892
				c2.324,0.916,4.884,1.384,7.608,1.384c2.752,0,5.336-0.464,7.676-1.384c2.344-0.92,4.4-2.232,6.104-3.888
				c1.712-1.66,3.064-3.668,4.024-5.968c0.956-2.292,1.436-4.856,1.436-7.62c0-2.824-0.484-5.42-1.436-7.716
				C174.472,87.564,173.116,85.576,171.4,83.96z M173.756,104.504c-0.86,2.072-2.076,3.876-3.612,5.364
				c-1.532,1.488-3.384,2.668-5.504,3.5c-4.228,1.656-9.708,1.684-13.952,0c-2.104-0.832-3.94-2.008-5.46-3.5
				c-1.516-1.488-2.728-3.292-3.588-5.364c-0.864-2.076-1.3-4.404-1.3-6.924c0-2.584,0.436-4.944,1.3-7.02
				c0.86-2.064,2.064-3.84,3.58-5.28c1.508-1.436,3.344-2.572,5.452-3.36c2.108-0.788,4.448-1.192,6.956-1.192
				c2.54,0,4.904,0.404,7.028,1.192c2.124,0.792,3.976,1.924,5.5,3.364c1.528,1.436,2.744,3.216,3.6,5.276
				c0.864,2.076,1.3,4.432,1.3,7.02C175.056,100.104,174.62,102.432,173.756,104.504z"/>
			<path d="M166.836,88.132c-1.1-1.204-2.444-2.164-3.996-2.852c-3.1-1.384-7.248-1.384-10.32,0
				c-1.532,0.692-2.864,1.648-3.968,2.852c-1.096,1.2-1.956,2.624-2.556,4.236c-0.596,1.596-0.896,3.352-0.896,5.212
				c0,1.924,0.3,3.724,0.896,5.332c0.6,1.628,1.472,3.064,2.584,4.26c1.116,1.204,2.464,2.156,3.996,2.832
				c1.532,0.672,3.248,1.012,5.092,1.012c1.844,0,3.568-0.34,5.112-1.012c1.548-0.672,2.904-1.624,4.024-2.832
				c1.116-1.2,1.988-2.632,2.588-4.26c0.592-1.616,0.896-3.412,0.896-5.332c0-1.856-0.3-3.608-0.896-5.212
				C168.8,90.764,167.936,89.336,166.836,88.132z M167.696,102.284c-0.516,1.4-1.26,2.628-2.212,3.652
				c-0.952,1.024-2.1,1.832-3.416,2.404c-2.636,1.144-6.152,1.152-8.752,0c-1.308-0.572-2.448-1.38-3.396-2.404
				c-0.952-1.024-1.696-2.252-2.212-3.652c-0.52-1.412-0.784-2.996-0.784-4.708c0-1.644,0.264-3.184,0.784-4.58
				c0.516-1.392,1.256-2.612,2.196-3.64c0.936-1.02,2.072-1.836,3.376-2.42c1.3-0.584,2.78-0.884,4.404-0.884
				c1.624,0,3.116,0.296,4.432,0.884c1.32,0.584,2.464,1.404,3.396,2.42c0.94,1.028,1.68,2.252,2.196,3.64
				c0.52,1.4,0.784,2.936,0.784,4.58C168.48,99.284,168.216,100.872,167.696,102.284z"/>
			<path d="M170.008,124.02h-26.88c-0.5,0-0.908,0.408-0.908,0.908v5.28c0,0.5,0.408,0.908,0.908,0.908h9.508v27.796
				c0,0.5,0.408,0.908,0.908,0.908h6.048c0.5,0,0.908-0.408,0.908-0.908v-27.796h9.508c0.5,0,0.908-0.408,0.908-0.908v-5.28
				C170.916,124.428,170.508,124.02,170.008,124.02z M169.104,129.3L169.104,129.3h-9.508c-0.5,0-0.908,0.408-0.908,0.908v27.796
				h-4.236v-27.796c0-0.5-0.408-0.908-0.908-0.908h-9.508v-3.468h25.068V129.3z"/>
			<path d="M168.664,196.868h-16.42v-7.788h14.692c0.5,0,0.908-0.408,0.908-0.908v-5.084c0-0.5-0.404-0.908-0.908-0.908h-14.692
				v-6.828H167.8c0.5,0,0.908-0.408,0.908-0.908v-5.28c0-0.5-0.404-0.908-0.908-0.908h-22.512c-0.5,0-0.908,0.408-0.908,0.908
				v33.984c0,0.5,0.404,0.908,0.908,0.908h23.376c0.5,0,0.908-0.408,0.908-0.908v-5.376
				C169.572,197.272,169.168,196.868,168.664,196.868z M167.76,202.244h-21.564v-32.172h20.7v3.468H151.34
				c-0.5,0-0.908,0.408-0.908,0.908v8.64c0,0.5,0.408,0.908,0.908,0.908h14.692v3.272H151.34c-0.5,0-0.908,0.408-0.908,0.908v9.6
				c0,0.5,0.408,0.908,0.908,0.908h16.42V202.244z"/>
			<path d="M167.512,241.104h-13.54V213.4c0-0.5-0.404-0.908-0.908-0.908h-6.048c-0.5,0-0.908,0.408-0.908,0.908v33.984
				c0,0.5,0.408,0.908,0.908,0.908h20.496c0.5,0,0.908-0.408,0.908-0.908v-5.376C168.42,241.512,168.012,241.104,167.512,241.104z
				 M166.608,246.48h-18.684v-32.172h4.236v27.704c0,0.5,0.404,0.908,0.908,0.908h13.54V246.48z"/>
		</g>
	</g>
</g>
</svg>