<?xml version="1.0" encoding="utf-8"?>
<!-- Generator: Adobe Illustrator 24.0.0, SVG Export Plug-In . SVG Version: 6.00 Build 0)  -->
<svg version="1.1" id="Layer_2" xmlns="http://www.w3.org/2000/svg" xmlns:xlink="http://www.w3.org/1999/xlink" x="0px" y="0px"
	 viewBox="0 0 512 512" enable-background="new 0 0 512 512" xml:space="preserve">
<g>
	<g>
		<rect x="96" y="40" fill="#EDEFF1" width="320" height="312"/>
	</g>
	<g>
		<rect x="118" y="82" transform="matrix(-1.836970e-16 1 -1 -1.836970e-16 250 -46)" fill="#80D6FB" width="60" height="40"/>
	</g>
	<g>
		<rect x="190" y="82" transform="matrix(-1.836970e-16 1 -1 -1.836970e-16 322 -118)" fill="#80D6FB" width="60" height="40"/>
	</g>
	<g>
		<rect x="262" y="82" transform="matrix(-1.836970e-16 1 -1 -1.836970e-16 394 -190)" fill="#80D6FB" width="60" height="40"/>
	</g>
	<g>
		<rect x="334" y="82" transform="matrix(-1.836970e-16 1 -1 -1.836970e-16 466 -262)" fill="#80D6FB" width="60" height="40"/>
	</g>
	<g>
		<rect x="118" y="182" transform="matrix(-1.836970e-16 1 -1 -1.836970e-16 350 54)" fill="#80D6FB" width="60" height="40"/>
	</g>
	<g>
		<rect x="190" y="182" transform="matrix(-1.836970e-16 1 -1 -1.836970e-16 422 -18)" fill="#80D6FB" width="60" height="40"/>
	</g>
	<g>
		<rect x="262" y="182" transform="matrix(-1.836970e-16 1 -1 -1.836970e-16 494 -90)" fill="#80D6FB" width="60" height="40"/>
	</g>
	<g>
		<rect x="334" y="182" transform="matrix(-1.836970e-16 1 -1 -1.836970e-16 566 -162)" fill="#80D6FB" width="60" height="40"/>
	</g>
	<g>
		<rect x="118" y="281" transform="matrix(-1.836970e-16 1 -1 -1.836970e-16 449 153)" fill="#80D6FB" width="60" height="40"/>
	</g>
	<g>
		<rect x="190" y="281" transform="matrix(-1.836970e-16 1 -1 -1.836970e-16 521 81)" fill="#80D6FB" width="60" height="40"/>
	</g>
	<g>
		<rect x="262" y="281" transform="matrix(-1.836970e-16 1 -1 -1.836970e-16 593 9)" fill="#80D6FB" width="60" height="40"/>
	</g>
	<g>
		<rect x="334" y="281" transform="matrix(-1.836970e-16 1 -1 -1.836970e-16 665 -63)" fill="#80D6FB" width="60" height="40"/>
	</g>
	<g>
		<rect x="116" y="10" fill="#6E83B7" width="280" height="30"/>
	</g>
	<g>
		<path fill="#466089" d="M499.384,441.183c6.057-11.998,1.24-26.634-10.757-32.69c6.476-12.829,2.383-28.221-9.014-36.269
			c2.816-6.848-0.06-14.814-6.781-18.207c-1.681-0.848-3.449-1.323-5.217-1.476c-2.412-12.644-10.449-24.072-22.829-30.321
			c-12.379-6.249-26.346-5.93-37.952-0.362c-1.172-1.332-2.605-2.473-4.285-3.321c-6.721-3.393-14.839-0.976-18.676,5.356
			c-13.244-4.391-28.058,1.456-34.534,14.285c-11.998-6.057-26.634-1.24-32.69,10.757c-3.53,6.993-3.361,14.879-0.235,21.443
			c-1.778,1.294-3.29,3.009-4.349,5.107c-3.563,7.058-0.73,15.667,6.328,19.23c-4.81,9.528-0.985,21.15,8.543,25.96
			c4.634,2.339,9.763,2.631,14.363,1.222c2.21,4.884,6.036,9.076,11.194,11.68c5.827,2.941,12.273,3.312,18.059,1.547
			c1.301,5.288,4.812,9.998,10.054,12.645s11.117,2.674,16.144,0.58c2.016,5.703,6.143,10.67,11.969,13.611
			c5.485,2.769,11.52,3.259,17.036,1.836c1.469,4.905,4.868,9.222,9.799,11.711c9.528,4.81,21.15,0.985,25.96-8.543
			c7.058,3.563,15.667,0.73,19.23-6.328c1.059-2.098,1.541-4.332,1.526-6.531C489.408,452.723,495.854,448.176,499.384,441.183z"/>
	</g>
	<g>
		<path fill="#466089" d="M29.73,454.106c-0.014,2.199,0.467,4.433,1.526,6.531c3.563,7.058,12.172,9.891,19.23,6.328
			c4.81,9.528,16.432,13.352,25.96,8.543c4.932-2.49,8.33-6.806,9.799-11.711c5.516,1.423,11.551,0.933,17.036-1.836
			c5.827-2.941,9.953-7.908,11.969-13.611c5.027,2.093,10.902,2.066,16.144-0.58s8.753-7.357,10.054-12.645
			c5.786,1.764,12.233,1.394,18.059-1.547c5.158-2.604,8.984-6.796,11.194-11.68c4.601,1.409,9.729,1.117,14.363-1.222
			c9.528-4.81,13.352-16.432,8.543-25.96c7.058-3.563,9.891-12.172,6.328-19.23c-1.059-2.098-2.571-3.812-4.349-5.107
			c3.126-6.564,3.295-14.451-0.235-21.443c-6.057-11.998-20.693-16.814-32.69-10.757c-6.476-12.829-21.291-18.676-34.534-14.285
			c-3.837-6.332-11.955-8.749-18.676-5.356c-1.681,0.848-3.113,1.989-4.285,3.321c-11.606-5.568-25.573-5.887-37.952,0.362
			s-20.416,17.677-22.829,30.321c-1.768,0.152-3.536,0.627-5.217,1.476c-6.721,3.393-9.597,11.359-6.781,18.207
			c-11.398,8.048-15.491,23.44-9.014,36.269c-11.998,6.057-16.814,20.693-10.757,32.69C16.146,448.176,22.592,452.723,29.73,454.106
			z"/>
	</g>
	<g>
		<path fill="#6E83B7" d="M399,387c0-18.778-15.222-34-34-34c0-20.079-14.796-36.699-34.079-39.561
			C330.122,303.125,321.519,295,311,295c-2.63,0-5.136,0.521-7.436,1.444C292.594,282.193,275.375,273,256,273
			s-36.594,9.193-47.564,23.444C206.136,295.521,203.63,295,201,295c-10.519,0-19.122,8.125-19.921,18.439
			C161.796,316.301,147,332.921,147,353c-18.778,0-34,15.222-34,34c0,10.944,5.177,20.674,13.209,26.893
			C124.806,416.627,124,419.716,124,423c0,11.046,8.954,20,20,20c0,14.912,12.088,27,27,27c0,0,17.826,4.622,24.51,19.766
			c3.237,7.335,10.3,12.234,18.317,12.234H256h42.173c8.017,0,15.08-4.899,18.317-12.234C323.174,474.622,341,470,341,470
			c14.912,0,27-12.088,27-27c11.046,0,20-8.954,20-20c0-3.284-0.806-6.373-2.209-9.107C393.823,407.674,399,397.944,399,387z"/>
	</g>
	<g>
		<path fill="#FFE352" d="M378.246,400.29l10.543-11.678l-0.803,15.713c-0.527,10.317,7.983,18.827,18.3,18.3L422,421.823
			l-11.678,10.543c-7.668,6.923-7.668,18.958,0,25.88L422,468.789l-15.713-0.803c-10.317-0.527-18.827,7.983-18.3,18.3L388.789,502
			l-10.543-11.678c-6.923-7.668-18.958-7.668-25.88,0L341.823,502l0.803-15.713c0.527-10.317-7.983-18.827-18.3-18.3l-15.713,0.803
			l11.678-10.543c7.668-6.923,7.668-18.958,0-25.88l-11.678-10.543l15.713,0.803c10.317,0.527,18.827-7.983,18.3-18.3l-0.803-15.713
			l10.543,11.678C359.289,407.958,371.323,407.958,378.246,400.29z"/>
	</g>
	<g>
		<path fill="#FFE352" d="M146.997,416.941l6.266-6.941l-0.477,9.338c-0.313,6.132,4.744,11.189,10.876,10.876l9.338-0.477
			l-6.941,6.266c-4.557,4.114-4.557,11.267,0,15.381L173,457.65l-9.338-0.477c-6.132-0.313-11.189,4.744-10.876,10.876l0.477,9.338
			l-6.266-6.941c-4.114-4.557-11.267-4.557-15.381,0l-6.266,6.941l0.477-9.338c0.313-6.132-4.744-11.189-10.876-10.876l-9.338,0.477
			l6.941-6.266c4.557-4.114,4.557-11.267,0-15.381l-6.941-6.266l9.338,0.477c6.132,0.313,11.189-4.744,10.876-10.876L125.35,410
			l6.266,6.941C135.73,421.498,142.882,421.498,146.997,416.941z"/>
	</g>
	<g>
		<path fill="#FFE352" d="M300.384,289.553l6.266-6.941l-0.477,9.338c-0.313,6.132,4.744,11.189,10.876,10.876l9.338-0.477
			l-6.941,6.266c-4.557,4.114-4.557,11.267,0,15.381l6.941,6.266l-9.338-0.477c-6.132-0.313-11.189,4.744-10.876,10.876L306.65,350
			l-6.266-6.941c-4.114-4.557-11.267-4.557-15.381,0L278.737,350l0.477-9.338c0.313-6.132-4.744-11.189-10.876-10.876L259,330.263
			l6.941-6.266c4.557-4.114,4.557-11.267,0-15.381L259,302.35l9.338,0.477c6.132,0.313,11.189-4.744,10.876-10.876l-0.477-9.338
			l6.266,6.941C289.118,294.11,296.27,294.11,300.384,289.553z"/>
	</g>
	<g>
		
			<rect x="425.357" y="252.5" transform="matrix(0.6792 -0.734 0.734 0.6792 -38.6282 428.6242)" fill="#D3D3D3" width="91.285" height="12"/>
	</g>
	<g>
		
			<rect x="433.225" y="205.5" transform="matrix(0.6792 -0.734 0.734 0.6792 -9.4759 401.3209)" fill="#D3D3D3" width="42.236" height="12"/>
	</g>
	<g>
		
			<rect x="35" y="212.857" transform="matrix(0.734 -0.6792 0.6792 0.734 -164.6632 96.6177)" fill="#D3D3D3" width="12" height="91.285"/>
	</g>
	<g>
		
			<rect x="51.657" y="190.382" transform="matrix(0.734 -0.6792 0.6792 0.734 -128.3102 95.4273)" fill="#D3D3D3" width="12" height="42.236"/>
	</g>
</g>
</svg>
