<?xml version="1.0" encoding="utf-8"?>
<!-- Generator: Adobe Illustrator 24.0.0, SVG Export Plug-In . SVG Version: 6.00 Build 0)  -->
<svg version="1.1" id="Layer_2" xmlns="http://www.w3.org/2000/svg" xmlns:xlink="http://www.w3.org/1999/xlink" x="0px" y="0px"
	 viewBox="0 0 512 512" enable-background="new 0 0 512 512" xml:space="preserve">
<g>
	<g>
		<polygon fill="#6E83B7" points="40,440 10,440 22,418 40,418 		"/>
	</g>
	<g>
		<polygon fill="#FFE352" points="425,207 405,207 405,241 153,241 153,377 475,377 475,257 		"/>
	</g>
	<g>
		<polygon fill="#6E83B7" points="229,241 269,57 405,57 405,241 		"/>
	</g>
	<g>
		<polygon fill="#80D6FB" points="253.815,221 285.119,77 385,77 385,221 		"/>
	</g>
	<g>
		<path fill="#6E83B7" d="M498.318,348.773l-7.179-2.393c-0.297-7.858-1.559-15.464-3.666-22.715l6.602-1.351
			c3.601-0.737,5.421-4.785,3.584-7.968l-7.786-13.485c-1.159-2.007-3.472-3.048-5.743-2.583l-7.404,1.515
			c-4.118-6.526-9.014-12.507-14.56-17.821l5.06-4.487c2.75-2.438,2.303-6.854-0.88-8.692l-13.485-7.786
			c-2.007-1.159-4.531-0.903-6.265,0.634l-5.645,5.006c-6.733-3.558-13.946-6.32-21.521-8.171l2.13-6.39
			c1.162-3.487-1.433-7.087-5.108-7.087h-15.571c-2.318,0-4.375,1.483-5.108,3.682l-2.393,7.179
			c-7.858,0.297-15.464,1.559-22.715,3.666l-1.351-6.602c-0.737-3.601-4.785-5.421-7.967-3.584l-13.485,7.786
			c-2.007,1.159-3.048,3.472-2.583,5.743l1.515,7.404c-6.526,4.118-12.507,9.014-17.821,14.56l-4.487-5.06
			c-2.438-2.75-6.854-2.303-8.692,0.88l-7.786,13.485c-1.159,2.007-0.903,4.531,0.634,6.265l5.006,5.645
			c-3.558,6.733-6.32,13.946-8.171,21.52l-6.39-2.13c-3.487-1.162-7.087,1.433-7.087,5.108v15.571c0,2.318,1.483,4.375,3.682,5.108
			l7.179,2.393c0.297,7.858,1.559,15.464,3.666,22.715l-6.602,1.351c-3.601,0.737-5.421,4.785-3.584,7.968l7.786,13.485
			c1.159,2.007,3.472,3.048,5.743,2.583l7.404-1.515c4.118,6.526,9.014,12.507,14.56,17.821l-5.06,4.487
			c-2.75,2.438-2.303,6.854,0.88,8.692l13.485,7.786c2.007,1.159,4.531,0.903,6.265-0.634l5.645-5.006
			c6.733,3.558,13.946,6.32,21.521,8.171l-2.13,6.39c-1.162,3.487,1.433,7.087,5.108,7.087h15.571c2.318,0,4.375-1.483,5.108-3.682
			l2.393-7.179c7.858-0.297,15.464-1.559,22.715-3.666l1.351,6.602c0.737,3.601,4.785,5.421,7.967,3.584l13.485-7.786
			c2.007-1.159,3.048-3.472,2.583-5.743l-1.515-7.404c6.526-4.118,12.507-9.014,17.821-14.56l4.487,5.06
			c2.438,2.75,6.854,2.303,8.692-0.88l7.786-13.485c1.159-2.007,0.903-4.531-0.634-6.265l-5.006-5.645
			c3.558-6.733,6.32-13.946,8.171-21.52l6.39,2.13c3.487,1.162,7.087-1.433,7.087-5.108v-15.571
			C502,351.563,500.517,349.506,498.318,348.773z"/>
	</g>
	<g>
		<circle fill="#466089" cx="397" cy="350" r="49.35"/>
	</g>
	<g>
		<polygon fill="#FFB236" points="28,440 113.999,440 138,392 138,274 114,250 84,250 84,364 66,364 28,440 		"/>
	</g>
	<g>
		<path fill="#466089" d="M190,309h44c8.837,0,16-7.163,16-16s-7.163-16-16-16h-44V309z"/>
	</g>
	<g>
		<rect x="98" y="277" fill="#466089" width="40" height="32"/>
	</g>
	<g>
		<rect x="138" y="283" fill="#D3D3D3" width="52" height="20"/>
	</g>
	<g>
		<circle fill="#6E83B7" cx="234" cy="293" r="6"/>
	</g>
	<g>
		<g>
			<path fill="#6E83B7" d="M267.265,376.088l-5.333-1.778c-0.221-5.837-1.158-11.488-2.723-16.874l4.904-1.004
				c2.675-0.547,4.027-3.554,2.662-5.919l-5.784-10.018c-0.861-1.491-2.579-2.264-4.266-1.919l-5.5,1.125
				c-3.059-4.848-6.696-9.291-10.816-13.238l3.759-3.333c2.043-1.811,1.711-5.092-0.654-6.457l-10.018-5.784
				c-1.491-0.861-3.366-0.671-4.654,0.471l-4.193,3.719c-5.001-2.643-10.36-4.695-15.987-6.07l1.582-4.747
				c0.863-2.59-1.065-5.265-3.795-5.265h-11.567c-1.722,0-3.25,1.102-3.795,2.735l-1.778,5.333
				c-5.837,0.221-11.488,1.158-16.874,2.723l-1.004-4.904c-0.547-2.675-3.554-4.027-5.919-2.662l-10.018,5.784
				c-1.491,0.861-2.264,2.579-1.919,4.266l1.125,5.5c-4.848,3.059-9.291,6.696-13.238,10.816l-3.333-3.759
				c-1.811-2.043-5.092-1.711-6.457,0.654l-5.784,10.018c-0.861,1.491-0.671,3.366,0.471,4.654l3.719,4.194
				c-2.643,5.001-4.695,10.36-6.07,15.987l-4.747-1.582c-2.59-0.863-5.265,1.065-5.265,3.795v11.567c0,1.722,1.102,3.25,2.735,3.795
				l5.333,1.778c0.221,5.837,1.158,11.488,2.723,16.874l-4.904,1.004c-2.675,0.547-4.027,3.554-2.662,5.919l5.784,10.018
				c0.861,1.491,2.579,2.264,4.266,1.919l5.5-1.125c3.059,4.848,6.696,9.291,10.816,13.238l-3.759,3.333
				c-2.043,1.811-1.711,5.092,0.654,6.457l10.018,5.784c1.491,0.861,3.366,0.671,4.654-0.471l4.193-3.719
				c5.001,2.643,10.36,4.695,15.987,6.07l-1.582,4.747c-0.863,2.59,1.065,5.265,3.795,5.265h11.567c1.722,0,3.25-1.102,3.795-2.735
				l1.778-5.333c5.837-0.221,11.488-1.158,16.874-2.723l1.004,4.904c0.547,2.675,3.554,4.027,5.919,2.662l10.018-5.784
				c1.491-0.861,2.264-2.579,1.919-4.266l-1.125-5.5c4.848-3.059,9.291-6.696,13.238-10.816l3.333,3.759
				c1.811,2.043,5.092,1.711,6.457-0.654l5.784-10.018c0.861-1.491,0.671-3.366-0.471-4.654l-3.719-4.194
				c2.643-5.001,4.695-10.36,6.07-15.987l4.747,1.582c2.59,0.863,5.265-1.065,5.265-3.795v-11.567
				C270,378.161,268.898,376.633,267.265,376.088z"/>
		</g>
		<g>
			<circle fill="#466089" cx="192" cy="377" r="36"/>
		</g>
	</g>
</g>
</svg>
