<?xml version="1.0" encoding="utf-8"?>
<!-- Generator: Adobe Illustrator 24.0.0, SVG Export Plug-In . SVG Version: 6.00 Build 0)  -->
<svg version="1.1" id="Layer_2" xmlns="http://www.w3.org/2000/svg" xmlns:xlink="http://www.w3.org/1999/xlink" x="0px" y="0px"
	 viewBox="0 0 512 512" enable-background="new 0 0 512 512" xml:space="preserve">
<g>
	<g>
		<polygon fill="#D3D3D3" points="371.985,257.985 372,227.985 428.029,186 428,215.985 		"/>
	</g>
	<g>
		<polygon fill="#D3D3D3" points="371.985,175.985 372,145.985 428.029,104 428,133.985 		"/>
	</g>
	<g>
		<polygon fill="#D3D3D3" points="371.985,93.985 372,63.985 428.029,22 428,51.985 		"/>
	</g>
	<g>
		<rect x="10" y="72" fill="#FFB0AA" width="124" height="46"/>
	</g>
	<g>
		<rect x="134" y="72" fill="#FFB0AA" width="124" height="46"/>
	</g>
	<g>
		<rect x="10" y="164" fill="#FFB0AA" width="124" height="46"/>
	</g>
	<g>
		<rect x="134" y="164" fill="#FFB0AA" width="124" height="46"/>
	</g>
	<g>
		<rect x="72" y="118" fill="#FFB0AA" width="124" height="46"/>
	</g>
	<g>
		<rect x="196" y="118" fill="#FFB0AA" width="62" height="46"/>
	</g>
	<g>
		<rect x="196" y="210" fill="#FFB0AA" width="62" height="46"/>
	</g>
	<g>
		<rect x="10" y="118" fill="#FFB0AA" width="62" height="46"/>
	</g>
	<g>
		<rect x="72" y="210.143" fill="#FFB0AA" width="124" height="46"/>
	</g>
	<g>
		<rect x="10" y="210.143" fill="#FFB0AA" width="62" height="46"/>
	</g>
	<path fill="#FF7B7B" d="M258,124v-12H140V72h-12v40H10v12h56v34H10v12h118v34H10v12h56v40h12v-40h112v40h12v-40h56v-12H140v-34h118
		v-12h-56v-34H258z M190,158H78v-34h112V158z"/>
	<g>
		<rect x="10" y="256" fill="#EDEFF1" width="312" height="246"/>
	</g>
	<g>
		<g>
			<rect x="322" y="274" fill="#6E83B7" width="180" height="20"/>
		</g>
		<g>
			<rect x="322" y="314" fill="#6E83B7" width="180" height="20"/>
		</g>
		<g>
			<rect x="322" y="294" fill="#466089" width="170" height="20"/>
		</g>
	</g>
	<g>
		<g>
			<rect x="322" y="442" fill="#6E83B7" width="180" height="20"/>
		</g>
		<g>
			<rect x="322" y="482" fill="#6E83B7" width="180" height="20"/>
		</g>
		<g>
			<rect x="322" y="462" fill="#466089" width="170" height="20"/>
		</g>
	</g>
	<g>
		<g>
			<rect x="322" y="358" fill="#6E83B7" width="180" height="20"/>
		</g>
		<g>
			<rect x="322" y="398" fill="#6E83B7" width="180" height="20"/>
		</g>
		<g>
			<rect x="322" y="378" fill="#466089" width="170" height="20"/>
		</g>
	</g>
	<g>
		<rect x="428" y="334" fill="#466089" width="24" height="24"/>
	</g>
	<g>
		<rect x="428" y="418" fill="#466089" width="24" height="24"/>
	</g>
	<g>
		<rect x="348" y="334" fill="#466089" width="24" height="24"/>
	</g>
	<g>
		<rect x="348" y="10" fill="#EDEFF1" width="24" height="264"/>
	</g>
	<g>
		<rect x="428" y="10" fill="#EDEFF1" width="24" height="264"/>
	</g>
	<g>
		<rect x="348" y="418" fill="#466089" width="24" height="24"/>
	</g>
</g>
</svg>
