<?xml version="1.0" encoding="iso-8859-1"?>
<!-- Uploaded to: SVG Repo, www.svgrepo.com, Generator: SVG Repo Mixer Tools -->
<svg version="1.1" id="Layer_1" xmlns="http://www.w3.org/2000/svg" xmlns:xlink="http://www.w3.org/1999/xlink" 
	 viewBox="0 0 512.001 512.001" xml:space="preserve">
<polygon style="fill:#FFCD02;" points="310.252,349.159 10.517,349.159 10.517,280.798 152.497,280.798 152.497,207.179 
	194.565,207.179 194.565,307.091 302.722,307.091 "/>
<path style="fill:#ECF0F1;" d="M325.849,391.227H62.923c-23.233,0-42.068,18.835-42.068,42.068l0,0
	c0,23.233,18.835,42.068,42.068,42.068h262.925c23.233,0,42.068-18.835,42.068-42.068l0,0
	C367.917,410.061,349.082,391.227,325.849,391.227z"/>
<rect x="163.54" y="349.155" style="fill:#6D6E71;" width="115.687" height="42.068"/>
<path style="fill:#ECF0F1;" d="M302.722,307.091H194.565v-99.912h66.194c13.935,0,25.861,9.981,28.312,23.695L302.722,307.091z"/>
<g>
	<rect x="47.323" y="238.726" style="fill:#6D6E71;" width="63.102" height="42.068"/>
	<path style="fill:#6D6E71;" d="M487.959,258.821l-60.095,47.217V195.61h38.233c19.543,0,35.387,15.843,35.387,35.387l0,0
		C501.483,241.855,496.498,252.112,487.959,258.821z"/>
</g>
<path style="fill:#FFA800;" d="M466.097,195.611c2.613,0,5.158,0.291,7.61,0.83l1.632-0.811L402.181,48.307
	c-2.914-5.87-8.398-10.045-14.831-11.293c-6.432-1.247-13.08,0.572-17.979,4.925L185.374,205.426l1.558,1.753h59.805L376.742,91.664
	L428.36,195.61h37.737V195.611z"/>
<g>
	<path style="fill:#231F20;" d="M483.57,188.557L411.6,43.629c-4.344-8.745-12.657-15.076-22.245-16.94
		c-0.001,0-0.002,0-0.003-0.001h-0.001c0,0-0.001,0-0.002,0c-9.588-1.857-19.668,0.903-26.966,7.388L179.405,196.662h-26.908
		c-5.809,0-10.517,4.708-10.517,10.517v63.102h-21.037V238.73c0-5.809-4.708-10.517-10.517-10.517H47.323
		c-5.809,0-10.517,4.708-10.517,10.517v31.551H10.517C4.708,270.281,0,274.99,0,280.799v68.361c0,5.809,4.708,10.517,10.517,10.517
		h142.502v21.034H62.923c-28.995,0-52.585,23.59-52.585,52.585s23.59,52.585,52.585,52.585h262.925
		c28.995,0,52.585-23.59,52.585-52.585s-23.59-52.585-52.585-52.585h-36.108v-21.034h20.511c3.113,0,6.067-1.38,8.065-3.767
		c1.998-2.388,2.835-5.538,2.287-8.603l-21.18-118.282c-2.639-14.77-13.29-26.344-27.005-30.596l101.022-89.763l43.905,88.412
		v108.962c0,4.026,2.299,7.698,5.919,9.459c1.461,0.71,3.032,1.058,4.596,1.058c2.314,0,4.61-0.764,6.5-2.247l60.095-47.217
		c11.149-8.76,17.543-21.915,17.543-36.094C512,211.87,500.238,195.446,483.57,188.557z M458.365,185.094h-23.484l-47.136-94.919
		l6.599-34.002L458.365,185.094z M373.696,52.165l-6.599,34.002L242.74,196.662h-31.668L373.696,52.165z M249.37,254.699
		c2.061,2.121,4.8,3.187,7.542,3.187c2.641,0,5.286-0.989,7.329-2.976l15.713-15.275l10.197,56.938h-85.07v-78.878h55.677
		c3.293,0,6.405,0.877,9.096,2.425l-20.274,19.707C245.417,243.876,245.322,250.535,249.37,254.699z M57.84,249.247h42.068v21.034
		H57.84V249.247z M357.4,433.295c0,17.397-14.154,31.551-31.551,31.551H62.923c-17.397,0-31.551-14.154-31.551-31.551
		s14.154-31.551,31.551-31.551h262.925C343.246,401.744,357.4,415.898,357.4,433.295z M268.707,380.71h-94.653v-21.034h94.653
		V380.71z M21.034,338.642v-47.327h120.943v15.776c0,5.809,4.708,10.517,10.517,10.517c5.809,0,10.517-4.708,10.517-10.517
		l0.003-89.395h21.034v89.395c0,5.809,4.708,10.517,10.517,10.517h99.355l3.765,21.034H21.034z M481.462,250.552l-43.081,33.849
		v-78.273h27.717c13.713,0,24.869,11.156,24.869,24.869C490.966,238.678,487.502,245.806,481.462,250.552z"/>
	<path style="fill:#231F20;" d="M224.498,264.737l-0.149,0.147c-4.142,4.071-4.201,10.73-0.129,14.873
		c2.059,2.095,4.779,3.145,7.502,3.145c2.661,0,5.324-1.004,7.371-3.016l0.149-0.147c4.142-4.071,4.201-10.731,0.128-14.873
		C235.3,260.724,228.642,260.666,224.498,264.737z"/>
	<path style="fill:#231F20;" d="M323.11,443.812h0.154c5.809,0,10.517-4.708,10.517-10.517s-4.708-10.517-10.517-10.517h-0.154
		c-5.809,0-10.517,4.708-10.517,10.517S317.302,443.812,323.11,443.812z"/>
	<path style="fill:#231F20;" d="M54.992,433.295c0,5.809,4.708,10.517,10.517,10.517h220.572c5.809,0,10.517-4.708,10.517-10.517
		s-4.708-10.517-10.517-10.517H65.509C59.701,422.778,54.992,427.487,54.992,433.295z"/>
</g>
</svg>