<?xml version="1.0" encoding="utf-8"?>
<!-- Generator: Adobe Illustrator 24.0.0, SVG Export Plug-In . SVG Version: 6.00 Build 0)  -->
<svg version="1.1" id="Layer_2" xmlns="http://www.w3.org/2000/svg" xmlns:xlink="http://www.w3.org/1999/xlink" x="0px" y="0px"
	 viewBox="0 0 512 512" enable-background="new 0 0 512 512" xml:space="preserve">
<g>
	<g>
		<path fill="#6E83B7" d="M300,359h-88l-68.047,15.38C98.369,384.684,66,425.186,66,471.92V502h380v-30.08
			c0-46.734-32.369-87.236-77.953-97.539L300,359z"/>
	</g>
	<g>
		<path fill="#EDEFF1" d="M256,423c33.782,0,61.515-26.314,63.826-59.519L300,359h-88l-19.826,4.481
			C194.485,396.686,222.219,423,256,423z"/>
	</g>
	<g>
		<path fill="#FFD3B3" d="M212,309.188V359c0,24.301,19.699,44,44,44h0c24.301,0,44-19.699,44-44v-49.812H212z"/>
	</g>
	<g>
		<path fill="#FCB98B" d="M212,331.897c13.499,5.851,28.376,9.103,44,9.103s30.501-3.251,44-9.103v-22.71h-88V331.897z"/>
	</g>
	<g>
		<path fill="#FFD3B3" d="M347,170v60c0,50.258-40.742,91-91,91h0c-50.258,0-91-40.742-91-91v-60H347z"/>
	</g>
	<g>
		<polygon fill="#6E83B7" points="323,170 347,230 347,170 		"/>
	</g>
	<g>
		<polygon fill="#6E83B7" points="189,170 165,230 165,170 		"/>
	</g>
	<g>
		<path fill="#FFD3B3" d="M151,219h14v-49h-14c-5.523,0-10,4.477-10,10v29C141,214.523,145.477,219,151,219z"/>
	</g>
	<g>
		<path fill="#FFD3B3" d="M361,219h-14v-49h14c5.523,0,10,4.477,10,10v29C371,214.523,366.523,219,361,219z"/>
	</g>
	<g>
		<rect x="366.143" y="472" fill="#466089" width="10" height="30"/>
	</g>
	<g>
		<rect x="135.857" y="472" fill="#466089" width="10" height="30"/>
	</g>
	<g>
		<path fill="#FFE352" d="M149,170v-39c0-59,48-107,107-107s107,48,107,107v39H149z"/>
	</g>
	<g>
		<path fill="#FFE352" d="M256,140.37c55.556,0,134,11.63,134,11.63v18H256H122v-18C122,152,200.444,140.37,256,140.37z"/>
	</g>
	<g>
		<path fill="#FFB236" d="M256,24c-21.759,0-42.011,6.545-58.922,17.746l6.322,101.143h105.2l6.322-101.143
			C298.011,30.545,277.759,24,256,24z"/>
	</g>
	<g>
		<path fill="#FFE352" d="M217.481,128.519h77.037l6.856-109.694C287.345,13.153,272.038,10,256,10s-31.345,3.153-45.374,8.825
			L217.481,128.519z"/>
	</g>
	<g>
		<path fill="#FFE352" d="M351,437.661v-67.134l-28-6.329V437c0,22.091-17.909,40-40,40h-54c-22.091,0-40-17.909-40-40v-72.801
			l-28,6.329v67.134c0,8.039-2.422,15.891-6.951,22.533L146,472v30h220v-30l-8.049-11.805C353.422,453.553,351,445.7,351,437.661z"
			/>
	</g>
</g>
</svg>
