<?xml version="1.0" encoding="utf-8"?>
<!-- Generator: Adobe Illustrator 24.0.0, SVG Export Plug-In . SVG Version: 6.00 Build 0)  -->
<svg version="1.1" id="Layer_2" xmlns="http://www.w3.org/2000/svg" xmlns:xlink="http://www.w3.org/1999/xlink" x="0px" y="0px"
	 viewBox="0 0 512 512" enable-background="new 0 0 512 512" xml:space="preserve">
<g>
	<g>
		<g>
			<polygon fill="#6E83B7" points="430,210 430,182 220,10 10,182 10,210 			"/>
		</g>
		<g>
			<rect x="28" y="210" fill="#EDEFF1" width="384" height="252"/>
		</g>
		<g>
			<rect x="13" y="462" fill="#6E83B7" width="414" height="40"/>
		</g>
		<g>
			<g>
				<rect x="54" y="250" fill="#6E83B7" width="124" height="212"/>
			</g>
			<g>
				<rect x="18" y="318" transform="matrix(-1.836970e-16 1 -1 -1.836970e-16 480 248)" fill="#80D6FB" width="196" height="92"/>
			</g>
			<g>
				<rect x="210" y="250" fill="#6E83B7" width="176" height="150"/>
			</g>
			<g>
				<rect x="239" y="253" transform="matrix(-1.836970e-16 1 -1 -1.836970e-16 623 27)" fill="#80D6FB" width="118" height="144"/>
			</g>
		</g>
	</g>
	<g>
		<g>
			<polygon fill="#EDEFF1" points="467,210 457,230 447,210 347,210 337,230 327,210 292,210 292,362 502,362 502,210 			"/>
		</g>
		<g>
			<rect x="292" y="362" fill="#FFB236" width="210" height="32"/>
		</g>
		<g>
			<polygon fill="#FFE352" points="427,502 427,456 502,426 502,394 292,394 292,426 367,456 367,502 			"/>
		</g>
		<g>
			<path fill="#FFB0AA" d="M467,210l-10,20l-10-20H347l-10,20l-10-20h-35v118c2.761,0,5-2.239,5-5v-42
				c0-11.288,9.351-20.392,20.729-19.987c10.838,0.385,19.271,9.622,19.271,20.466V301c0,11.288,9.351,20.392,20.729,19.987
				c10.838-0.385,19.271-9.622,19.271-20.466V261c0-11.288,9.351-20.392,20.729-19.987c10.838,0.385,19.271,9.622,19.271,20.466V301
				c0,11.288,9.351,20.392,20.729,19.987c10.838-0.385,19.271-9.622,19.271-20.466V281c0-11.288,9.351-20.392,20.729-19.987
				c10.838,0.385,19.271,9.622,19.271,20.466V323c0,2.761,2.239,5,5,5V210H467z"/>
		</g>
	</g>
</g>
</svg>
