<?xml version="1.0" encoding="utf-8"?>
<!-- Generator: Adobe Illustrator 24.0.0, SVG Export Plug-In . SVG Version: 6.00 Build 0)  -->
<svg version="1.1" id="Layer_2" xmlns="http://www.w3.org/2000/svg" xmlns:xlink="http://www.w3.org/1999/xlink" x="0px" y="0px"
	 viewBox="0 0 512 512" enable-background="new 0 0 512 512" xml:space="preserve">
<g>
	<g>
		<path fill="#D3D3D3" d="M416.604,215.604l-7.071-7.071l24.585-24.584c8.042-8.042,8.594-20.678,1.284-29.39
			c-6.327-7.54-10.051-17.109-10.484-26.943l-1.912-43.395l9.99-0.44l1.912,43.395c0.337,7.649,3.233,15.091,8.154,20.956
			c10.668,12.714,9.863,31.152-1.873,42.889L416.604,215.604z"/>
	</g>
	<g>
		<path fill="#D3D3D3" d="M303.467,102.467l-7.071-7.071l24.584-24.585c11.737-11.736,30.175-12.542,42.889-1.873
			c5.865,4.921,13.307,7.817,20.956,8.154l43.395,1.912l-0.44,9.99l-43.395-1.912c-9.834-0.434-19.403-4.157-26.943-10.484
			c-8.712-7.31-21.347-6.759-29.39,1.284L303.467,102.467z"/>
	</g>
	<g>
		
			<rect x="343.6" y="93.75" transform="matrix(0.7071 -0.7071 0.7071 0.7071 51.2113 321.1351)" fill="#EDEFF1" width="139.3" height="10"/>
	</g>
	<g>
		<g>
			
				<rect x="97.236" y="302.901" transform="matrix(0.7071 -0.7071 0.7071 0.7071 -159.8026 300.0044)" fill="#FF7B7B" width="370" height="80"/>
		</g>
		<g>
			
				<rect x="-15.901" y="189.764" transform="matrix(0.7071 -0.7071 0.7071 0.7071 -112.9396 186.8674)" fill="#FF7B7B" width="370" height="80"/>
		</g>
		<g>
			
				<rect x="337.189" y="227.948" transform="matrix(0.7071 -0.7071 0.7071 0.7071 -84.8492 331.0511)" fill="#466089" width="40" height="80"/>
		</g>
		<g>
			
				<rect x="224.052" y="114.811" transform="matrix(0.7071 -0.7071 0.7071 0.7071 -37.9863 217.914)" fill="#466089" width="40" height="80"/>
		</g>
		<g>
			
				<rect x="74.146" y="264.717" transform="matrix(0.7071 -0.7071 0.7071 0.7071 -187.893 155.8207)" fill="#466089" width="40" height="80"/>
		</g>
		<g>
			
				<rect x="187.283" y="377.854" transform="matrix(0.7071 -0.7071 0.7071 0.7071 -234.7559 268.9578)" fill="#466089" width="40" height="80"/>
		</g>
		<g>
			
				<rect x="185.668" y="90.332" transform="matrix(0.7071 0.7071 -0.7071 0.7071 268.5641 -75.7062)" fill="#FFB0AA" width="80" height="392"/>
		</g>
		<g>
			
				<rect x="280.621" y="171.379" transform="matrix(0.7071 -0.7071 0.7071 0.7071 -61.4178 274.4826)" fill="#6E83B7" width="40" height="80"/>
		</g>
		<g>
			
				<rect x="130.714" y="321.286" transform="matrix(0.7071 -0.7071 0.7071 0.7071 -211.3244 212.3892)" fill="#6E83B7" width="40" height="80"/>
		</g>
	</g>
	<g>
		<path fill="#FFE352" d="M471.13,18.239L478.569,10l-0.566,11.086c-0.372,7.279,5.632,13.283,12.912,12.912L502,33.431l-8.24,7.439
			c-5.41,4.884-5.41,13.375,0,18.26l8.24,7.439l-11.086-0.566c-7.279-0.372-13.283,5.632-12.912,12.912L478.569,90l-7.439-8.239
			c-4.884-5.41-13.375-5.41-18.26,0L445.431,90l0.566-11.086c0.372-7.279-5.632-13.283-12.912-12.912L422,66.569l8.24-7.439
			c5.41-4.884,5.41-13.375,0-18.26L422,33.431l11.086,0.566c7.279,0.372,13.283-5.632,12.912-12.912L445.431,10l7.439,8.239
			C457.754,23.65,466.246,23.65,471.13,18.239z"/>
	</g>
	<g>
		<path fill="#FFB236" d="M465.652,37.296L468.627,34l-0.227,4.434c-0.149,2.912,2.253,5.313,5.165,5.165L478,43.373l-3.296,2.975
			c-2.164,1.954-2.164,5.35,0,7.304L478,56.627l-4.434-0.226c-2.912-0.149-5.313,2.253-5.165,5.165L468.627,66l-2.975-3.296
			c-1.954-2.164-5.35-2.164-7.304,0L455.373,66l0.227-4.434c0.149-2.912-2.253-5.313-5.165-5.165L446,56.627l3.296-2.975
			c2.164-1.954,2.164-5.35,0-7.304L446,43.373l4.434,0.226c2.912,0.149,5.313-2.253,5.165-5.165L455.373,34l2.975,3.296
			C460.302,39.46,463.698,39.46,465.652,37.296z"/>
	</g>
</g>
</svg>
