<?xml version="1.0" encoding="utf-8"?>
<!-- Generator: Adobe Illustrator 24.0.0, SVG Export Plug-In . SVG Version: 6.00 Build 0)  -->
<svg version="1.1" id="Layer_2" xmlns="http://www.w3.org/2000/svg" xmlns:xlink="http://www.w3.org/1999/xlink" x="0px" y="0px"
	 viewBox="0 0 512 512" enable-background="new 0 0 512 512" xml:space="preserve">
<g>
	<g>
		<g>
			<rect x="10" y="176" fill="#6E83B7" width="40" height="160"/>
		</g>
		<g>
			<rect x="462" y="176" transform="matrix(-1 -1.794890e-10 1.794890e-10 -1 964 512)" fill="#6E83B7" width="40" height="160"/>
		</g>
		<g>
			<polygon fill="#FFE352" points="256,329 323,376 462,376 462,136 50,136 50,376 189,376 			"/>
		</g>
		<g>
			<polygon fill="#80D6FB" points="333.104,344 256,289.912 178.896,344 82,344 82,168 430,168 430,344 			"/>
		</g>
	</g>
	<g>
		<g>
			
				<rect x="96.287" y="203" transform="matrix(0.7071 -0.7071 0.7071 0.7071 -112.6633 144.0068)" fill="#46BEE8" width="42.426" height="10"/>
		</g>
		<g>
			
				<rect x="112.787" y="219.5" transform="matrix(0.7071 -0.7071 0.7071 0.7071 -119.4978 160.5068)" fill="#46BEE8" width="42.426" height="10"/>
		</g>
	</g>
	<g>
		<g>
			
				<rect x="356.787" y="203" transform="matrix(0.7071 -0.7071 0.7071 0.7071 -36.3646 328.2082)" fill="#46BEE8" width="42.426" height="10"/>
		</g>
		<g>
			
				<rect x="373.287" y="219.5" transform="matrix(0.7071 -0.7071 0.7071 0.7071 -43.1991 344.7082)" fill="#46BEE8" width="42.426" height="10"/>
		</g>
	</g>
</g>
</svg>
