<?xml version="1.0" encoding="utf-8"?>
<!-- Generator: Adobe Illustrator 24.0.0, SVG Export Plug-In . SVG Version: 6.00 Build 0)  -->
<svg version="1.1" id="Layer_2" xmlns="http://www.w3.org/2000/svg" xmlns:xlink="http://www.w3.org/1999/xlink" x="0px" y="0px"
	 viewBox="0 0 512 512" enable-background="new 0 0 512 512" xml:space="preserve">
<g>
	<g>
		<path fill="#EDEFF1" d="M416,213c-44-24-56-56-56-56c-38-80-104-80-104-80s-66,0-104,80c0,0-12,32-56,56c0,0-50,28-50,88v4
			c0.201,27.178,7.52,130,210,130s209.799-102.822,210-130v-4C466,241,416,213,416,213z"/>
	</g>
	<g>
		<rect x="156" y="235" fill="#D3D3D3" width="200" height="14"/>
	</g>
	<g>
		<g>
			<path fill="#FFE352" d="M502,187.85c0,10.58-4.45,20.77-12.21,27.95l-37.39,34.62c-2.88-4.93-6.02-9.36-9.2-13.29l35.72-33.07
				c4.5-4.16,7.08-10.07,7.08-16.21c0-6.99-3.2-13.41-8.78-17.63c-5.58-4.21-12.64-5.53-19.36-3.61l-75.61,21.52l-30.06,8.56
				l-4.38-15.38l22.79-6.49l82.88-23.6c11.6-3.3,23.76-1.03,33.38,6.23C496.48,164.72,502,175.8,502,187.85z"/>
		</g>
	</g>
	<g>
		<rect x="156" y="300" fill="#D3D3D3" width="200" height="14"/>
	</g>
	<g>
		<rect x="156" y="365" fill="#D3D3D3" width="200" height="14"/>
	</g>
	<g>
		<circle fill="#FFB236" cx="350" cy="189" r="17"/>
	</g>
	<g>
		<g>
			<path fill="#FFE352" d="M502,371.83c0,11.84-5.91,22.8-15.8,29.3c-5.83,3.83-12.52,5.78-19.26,5.78c-4.71,0-9.44-0.95-13.91-2.88
				l-28.57-12.33l-28.63-12.35l6.34-14.7l35.06,15.13l22.14,9.56c6,2.59,12.57,2.02,18.04-1.57c5.46-3.6,8.59-9.4,8.59-15.94
				c0-5.3-2.23-10.4-6.11-14l-19.29-17.85c2.08-6.47,3.37-12.56,4.16-17.97l26,24.08C497.9,352.71,502,362.09,502,371.83z"/>
		</g>
	</g>
	<g>
		<circle fill="#FFB236" cx="399" cy="372" r="17"/>
	</g>
	<g>
		<g>
			<path fill="#FFE352" d="M10,187.85c0,10.58,4.45,20.77,12.21,27.95l37.39,34.62c2.88-4.93,6.02-9.36,9.2-13.29l-35.72-33.07
				c-4.5-4.16-7.08-10.07-7.08-16.21c0-6.99,3.2-13.41,8.78-17.63c5.58-4.21,12.64-5.53,19.36-3.61l75.61,21.52l30.06,8.56
				l4.38-15.38l-22.79-6.49l-82.88-23.6c-11.6-3.3-23.76-1.03-33.38,6.23C15.52,164.72,10,175.8,10,187.85z"/>
		</g>
	</g>
	<g>
		<circle fill="#FFB236" cx="162" cy="189" r="17"/>
	</g>
	<g>
		<g>
			<path fill="#FFE352" d="M10,371.83c0,11.84,5.91,22.8,15.8,29.3c5.83,3.83,12.52,5.78,19.26,5.78c4.71,0,9.44-0.95,13.91-2.88
				l28.57-12.33l28.63-12.35l-6.34-14.7l-35.06,15.13l-22.14,9.56c-6,2.59-12.57,2.02-18.04-1.57c-5.46-3.6-8.59-9.4-8.59-15.94
				c0-5.3,2.23-10.4,6.11-14l19.29-17.85c-2.08-6.47-3.37-12.56-4.16-17.97l-26,24.08C14.1,352.71,10,362.09,10,371.83z"/>
		</g>
	</g>
	<g>
		<circle fill="#FFB236" cx="113" cy="372" r="17"/>
	</g>
</g>
</svg>
