<?xml version="1.0" encoding="utf-8"?>
<!-- Generator: Adobe Illustrator 24.0.0, SVG Export Plug-In . SVG Version: 6.00 Build 0)  -->
<svg version="1.1" id="Layer_2" xmlns="http://www.w3.org/2000/svg" xmlns:xlink="http://www.w3.org/1999/xlink" x="0px" y="0px"
	 viewBox="0 0 512 512" enable-background="new 0 0 512 512" xml:space="preserve">
<g>
	<g>
		<polygon fill="#FFE352" points="452,206 432,206 432,240 180,240 180,376 502,376 502,256 		"/>
	</g>
	<g>
		<polygon fill="#6E83B7" points="256,240 296,56 432,56 432,240 		"/>
	</g>
	<g>
		<polygon fill="#80D6FB" points="280.815,220 312.119,76 412,76 412,220 		"/>
	</g>
	<g>
		<rect x="140.002" y="76.001" fill="#D3D3D3" width="39.998" height="299.999"/>
	</g>
	<g>
		<rect x="130.002" y="56" fill="#EDEFF1" width="59.997" height="20"/>
	</g>
	<g>
		<polygon fill="#6E83B7" points="110,235 110,355.999 32,356 10,376 129.997,375.998 130,376 130,235.015 		"/>
	</g>
	<g>
		<circle fill="#6E83B7" cx="220" cy="376" r="80"/>
	</g>
	<g>
		<circle fill="#466089" cx="220" cy="376" r="42"/>
	</g>
	<g>
		<circle fill="#6E83B7" cx="422" cy="376" r="80"/>
	</g>
	<g>
		<circle fill="#466089" cx="422" cy="376" r="42"/>
	</g>
	<g>
		<rect x="130" y="325" fill="#466089" width="10" height="20"/>
	</g>
	<g>
		<rect x="130" y="255" fill="#466089" width="10" height="20"/>
	</g>
	<g>
		<g>
			<g>
				<rect x="283" y="275" fill="#FFB236" width="10" height="34"/>
			</g>
		</g>
		<g>
			<g>
				<rect x="303" y="275" fill="#FFB236" width="10" height="34"/>
			</g>
		</g>
		<g>
			<g>
				<rect x="323" y="275" fill="#FFB236" width="10" height="34"/>
			</g>
		</g>
		<g>
			<g>
				<rect x="343" y="275" fill="#FFB236" width="10" height="34"/>
			</g>
		</g>
	</g>
</g>
</svg>
