<?xml version="1.0" encoding="utf-8"?>
<!-- Generator: Adobe Illustrator 24.0.0, SVG Export Plug-In . SVG Version: 6.00 Build 0)  -->
<svg version="1.1" id="Layer_2" xmlns="http://www.w3.org/2000/svg" xmlns:xlink="http://www.w3.org/1999/xlink" x="0px" y="0px"
	 viewBox="0 0 512 512" enable-background="new 0 0 512 512" xml:space="preserve">
<g>
	<g>
		<rect x="452" y="310" fill="#466089" width="20" height="13"/>
	</g>
	<g>
		<rect x="313" y="281" fill="#466089" width="20" height="20"/>
	</g>
	<g>
		<polygon fill="#FFE352" points="190,111 170,231 10,231 10,301 290,301 290,111 		"/>
	</g>
	<g>
		<polygon fill="#80D6FB" points="190.276,231 270,231 270,131 206.942,131 		"/>
	</g>
	<g>
		<rect x="10" y="301" fill="#466089" width="280" height="50"/>
	</g>
	<g>
		<polygon fill="#FFB0AA" points="290,241 440,241 502,271 502,281 290,281 		"/>
	</g>
	<g>
		<circle fill="#6E83B7" cx="60" cy="351" r="50"/>
	</g>
	<g>
		<circle fill="#466089" cx="60" cy="351" r="26"/>
	</g>
	<g>
		<circle fill="#6E83B7" cx="214" cy="351" r="50"/>
	</g>
	<g>
		<circle fill="#466089" cx="214" cy="351" r="26"/>
	</g>
	<g>
		<rect x="72" y="211" fill="#466089" width="34" height="20"/>
	</g>
	<g>
		<path fill="#6E83B7" d="M56.538,147.142L70.68,133l22.462,22.462C96.893,159.213,99,164.3,99,169.604V211H79v-41.396
			L56.538,147.142z"/>
	</g>
	<g>
		<circle fill="#6E83B7" cx="462" cy="361" r="40"/>
	</g>
	<g>
		<circle fill="#466089" cx="462" cy="361" r="20"/>
	</g>
	<g>
		<path fill="#6E83B7" d="M462,281v10c-38.598,0-70,31.402-70,70h20c0-27.614,22.386-50,50-50h20v-30H462z"/>
	</g>
	<g>
		<rect x="313.001" y="221" fill="#6E83B7" width="79.999" height="20"/>
	</g>
	<g>
		<polygon fill="#6E83B7" points="390,401 379,383 371,383 343,335 336,335 336,301 310,301 310,352 338,401 		"/>
	</g>
</g>
</svg>
