<?xml version="1.0" encoding="utf-8"?>
<!-- Generator: Adobe Illustrator 24.0.0, SVG Export Plug-In . SVG Version: 6.00 Build 0)  -->
<svg version="1.1" id="Layer_2" xmlns="http://www.w3.org/2000/svg" xmlns:xlink="http://www.w3.org/1999/xlink" x="0px" y="0px"
	 viewBox="0 0 512 512" enable-background="new 0 0 512 512" xml:space="preserve">
<g>
	<g>
		<rect x="72" y="246" fill="#D3D3D3" width="32" height="124"/>
	</g>
	<g>
		<rect x="172" y="182" fill="#D3D3D3" width="32" height="124"/>
	</g>
	<g>
		<rect x="272" y="106" fill="#D3D3D3" width="32" height="136"/>
	</g>
	<g>
		<rect x="372" y="26" fill="#D3D3D3" width="32" height="152"/>
	</g>
	<g>
		<rect x="252" y="242" fill="#466089" width="120" height="32"/>
	</g>
	<g>
		<rect x="352" y="178" fill="#466089" width="150" height="32"/>
	</g>
	<g>
		<polygon fill="#EDEFF1" points="93.353,268 10,268 10,236 82.647,236 382.647,10 502,10 502,42 393.353,42 		"/>
	</g>
	<g>
		<rect x="52" y="370" fill="#466089" width="120" height="32"/>
	</g>
	<g>
		<polygon fill="#6E83B7" points="372,210 372,274 272,274 272,338 172,338 172,402 72,402 72,502 502,502 502,210 		"/>
	</g>
	<g>
		<rect x="152" y="306" fill="#466089" width="120" height="32"/>
	</g>
</g>
</svg>
