<?xml version="1.0" encoding="utf-8"?>
<!-- Generator: Adobe Illustrator 24.0.0, SVG Export Plug-In . SVG Version: 6.00 Build 0)  -->
<svg version="1.1" id="Layer_2" xmlns="http://www.w3.org/2000/svg" xmlns:xlink="http://www.w3.org/1999/xlink" x="0px" y="0px"
	 viewBox="0 0 512 512" enable-background="new 0 0 512 512" xml:space="preserve">
<g>
	<g>
		<path fill="#6E83B7" d="M256,37.809L256,37.809c-15.806,0-30.416,8.417-38.344,22.091L16.045,407.638
			c-17.131,29.548,4.189,66.553,38.343,66.553h403.223c34.155,0,55.475-37.005,38.343-66.553L294.343,59.9
			C286.416,46.227,271.806,37.809,256,37.809z"/>
	</g>
	<g>
		<path fill="#FFE352" d="M54.388,442.19c-6.196,0-9.349-3.866-10.676-6.17c-1.328-2.305-3.091-6.971,0.017-12.332L245.34,75.951
			c2.196-3.788,6.281-6.141,10.66-6.141s8.463,2.353,10.66,6.141l201.612,347.737c3.108,5.361,1.345,10.027,0.017,12.332
			c-1.328,2.304-4.48,6.17-10.676,6.17H54.388z"/>
	</g>
	<g>
		<polygon fill="#6E83B7" points="323.399,257 243.399,257 275.048,158.096 236.952,145.904 188.601,297 268.601,297 
			258.006,339.109 239.062,333.047 256,411 315.047,357.363 296.103,351.3 		"/>
	</g>
</g>
</svg>
