<?xml version="1.0" encoding="utf-8"?>
<!-- Generator: Adobe Illustrator 24.0.0, SVG Export Plug-In . SVG Version: 6.00 Build 0)  -->
<svg version="1.1" id="Layer_2" xmlns="http://www.w3.org/2000/svg" xmlns:xlink="http://www.w3.org/1999/xlink" x="0px" y="0px"
	 viewBox="0 0 512 512" enable-background="new 0 0 512 512" xml:space="preserve">
<g>
	<path fill="#466089" d="M437.712,470L376,42h-32l8.074,56h-100L244,42h-32l61.712,428H267v32h48v-32h-9.288l-5.767-40h100l5.767,40
		H398v32h48v-32H437.712z M373.702,248h-100l-6.2-43h100L373.702,248z M278.316,280h100l6.2,43h-100L278.316,280z M356.688,130
		l6.2,43h-100l-6.2-43H356.688z M295.33,398l-6.2-43h100l6.2,43H295.33z"/>
	<path fill="#6E83B7" d="M136,10v32L74.288,470H66v32h48v-32h-7.712l5.767-40h100l-5.767,40H197v32h48v-32h-6.712L300,42h76V10H136z
		 M216.67,398h-100l6.2-43h100L216.67,398z M227.484,323h-100l6.2-43h100L227.484,323z M238.298,248h-100l6.2-43h100L238.298,248z
		 M249.112,173h-100l6.2-43h100L249.112,173z M259.926,98h-100L168,42h100L259.926,98z"/>
</g>
</svg>
