<?xml version="1.0" encoding="utf-8"?>
<!-- Generator: Adobe Illustrator 24.0.0, SVG Export Plug-In . SVG Version: 6.00 Build 0)  -->
<svg version="1.1" id="Layer_2" xmlns="http://www.w3.org/2000/svg" xmlns:xlink="http://www.w3.org/1999/xlink" x="0px" y="0px"
	 viewBox="0 0 512 512" enable-background="new 0 0 512 512" xml:space="preserve">
<g>
	<g>
		<g>
			<polygon fill="#FFE352" points="170,409 10,409 10,269 55,159 170,159 			"/>
		</g>
		<g>
			<rect x="170" y="333" fill="#EDEFF1" width="332" height="76"/>
		</g>
		<g>
			<rect x="10" y="393" fill="#EDEFF1" width="62" height="32"/>
		</g>
		<g>
			<polygon fill="#80D6FB" points="138,269 138,191 76.483,191 44.574,269 			"/>
		</g>
		<g>
			<rect x="108" y="279" fill="#6E83B7" width="30" height="10"/>
		</g>
		<g>
			<circle fill="#6E83B7" cx="126" cy="409" r="54"/>
		</g>
		<g>
			<circle fill="#466089" cx="126" cy="409" r="25"/>
		</g>
		<g>
			<circle fill="#6E83B7" cx="434" cy="409" r="54"/>
		</g>
		<g>
			<circle fill="#466089" cx="434" cy="409" r="25"/>
		</g>
		<g>
			<circle fill="#6E83B7" cx="326" cy="409" r="54"/>
		</g>
		<g>
			<circle fill="#466089" cx="326" cy="409" r="25"/>
		</g>
		<g>
			<rect x="400" y="168" fill="#6E83B7" width="80" height="165"/>
		</g>
		<g>
			<rect x="170" y="283" fill="#6E83B7" width="80" height="50"/>
		</g>
		<g>
			<path fill="#6E83B7" d="M194,249v34h32v-34c0-8.837-7.163-16-16-16h0C201.163,233,194,240.163,194,249z"/>
		</g>
		<g>
			<path fill="#466089" d="M218,262.856l29.445-17l-16-27.713l-29.445,17c-7.653,4.418-10.275,14.204-5.856,21.856h0
				C200.562,264.653,210.347,267.275,218,262.856z"/>
		</g>
		<g>
			<g>
				<path fill="#FFB236" d="M463.626,172.451l-59.09-102.346c-2.331-4.037-0.948-9.2,3.09-11.531l14.621-8.441
					c4.037-2.331,9.2-0.948,11.531,3.09l59.09,102.346c2.331,4.037,0.948,9.2-3.09,11.531l-14.621,8.441
					C471.12,177.872,465.957,176.488,463.626,172.451z"/>
			</g>
			<g>
				<path fill="#FFB236" d="M375.238,262.471l-92.855-160.83c-2.331-4.037-0.948-9.2,3.09-11.531l14.621-8.441
					c4.037-2.331,9.2-0.948,11.531,3.09l92.855,160.83c2.331,4.037,0.948,9.2-3.09,11.531l-14.621,8.441
					C382.732,267.891,377.569,266.508,375.238,262.471z"/>
			</g>
			<g>
				<polygon fill="#FFE352" points="463.626,172.451 404.536,70.105 311.625,84.758 404.48,245.588 				"/>
			</g>
			<g>
				<path fill="#FFB236" d="M290.768,291.745l-76.394-132.319c-2.331-4.037-7.494-5.421-11.531-3.09l-14.621,8.441
					c-4.037,2.331-5.421,7.494-3.09,11.531l76.394,132.319c2.331,4.037,7.494,5.421,11.531,3.09l14.621-8.441
					C291.716,300.945,293.099,295.782,290.768,291.745z"/>
			</g>
			<g>
				<polygon fill="#FFE352" points="290.768,291.745 214.374,159.426 282.383,101.641 375.238,262.471 				"/>
			</g>
		</g>
	</g>
</g>
</svg>
