<?xml version="1.0" encoding="utf-8"?>
<!-- Generator: Adobe Illustrator 24.0.0, SVG Export Plug-In . SVG Version: 6.00 Build 0)  -->
<svg version="1.1" id="Layer_2" xmlns="http://www.w3.org/2000/svg" xmlns:xlink="http://www.w3.org/1999/xlink" x="0px" y="0px"
	 viewBox="0 0 512 512" enable-background="new 0 0 512 512" xml:space="preserve">
<g>
	<g>
		<polygon fill="#FFE352" points="153,368 153,502 248,502 256,440 264,502 359,502 359,368 		"/>
	</g>
	<g>
		<polygon fill="#FFE352" points="256,33 189,33 113,68 10,295 66,321 140,157 153,250 153,348 256,348 359,348 359,250 372,157 
			446,321 502,295 399,68 323,33 		"/>
	</g>
	<g>
		<rect x="241" y="198" transform="matrix(-1.836970e-16 1 -1 -1.836970e-16 559 47)" fill="#EDEFF1" width="30" height="210"/>
	</g>
	<g>
		<polygon fill="#EDEFF1" points="447.11,174.02 393.62,204.91 381.22,177.43 434.65,146.57 		"/>
	</g>
	<g>
		<polygon fill="#EDEFF1" points="482.11,251.17 428.47,282.14 416.07,254.66 469.66,223.72 		"/>
	</g>
	<g>
		<polygon fill="#EDEFF1" points="64.89,174.02 118.38,204.91 130.78,177.43 77.35,146.57 		"/>
	</g>
	<g>
		<polygon fill="#EDEFF1" points="29.89,251.17 83.53,282.14 95.93,254.66 42.34,223.72 		"/>
	</g>
	<g>
		<polygon fill="#EDEFF1" points="200,181 200,33 189,33 170,41.75 170,181 143.355,181 147.548,211 364.452,211 368.645,181 
			342,181 342,41.75 323,33 312,33 312,181 		"/>
	</g>
	<g>
		<rect x="249" y="157" fill="#FFB236" width="14" height="191"/>
	</g>
	<g>
		<rect x="198" y="10" fill="#FFE352" width="116" height="43"/>
	</g>
	<g>
		<polygon fill="#6E83B7" points="214,53 214,97 256,164 298,97 298,53 		"/>
	</g>
	<g>
		<polygon fill="#FFB236" points="314,10 256,164 315,112 311,85 344,85 		"/>
	</g>
	<g>
		<polygon fill="#FFB236" points="198,10 256,164 197,112 201,85 168,85 		"/>
	</g>
	<g>
		<rect x="153" y="348" fill="#FFB236" width="206" height="20"/>
	</g>
	<g>
		<rect x="288" y="368" fill="#6E83B7" width="90" height="134"/>
	</g>
	<g>
		<rect x="337" y="398" fill="#466089" width="14" height="104"/>
	</g>
	<g>
		<polygon fill="#EDEFF1" points="378,368 297,368 307,398 388,398 		"/>
	</g>
	<g>
		<polygon fill="#466089" points="288,368 297,368 307,398 307,502 288,502 		"/>
	</g>
	<g>
		<rect x="134" y="368" fill="#6E83B7" width="90" height="134"/>
	</g>
	<g>
		<rect x="161" y="398" fill="#466089" width="14" height="104"/>
	</g>
	<g>
		<polygon fill="#EDEFF1" points="134,368 215,368 205,398 124,398 		"/>
	</g>
	<g>
		<polygon fill="#466089" points="224,368 215,368 205,398 205,502 224,502 		"/>
	</g>
</g>
</svg>
