<?xml version="1.0" encoding="utf-8"?>
<!-- Generator: Adobe Illustrator 24.0.0, SVG Export Plug-In . SVG Version: 6.00 Build 0)  -->
<svg version="1.1" id="Layer_2" xmlns="http://www.w3.org/2000/svg" xmlns:xlink="http://www.w3.org/1999/xlink" x="0px" y="0px"
	 viewBox="0 0 512 512" enable-background="new 0 0 512 512" xml:space="preserve">
<g>
	<polygon fill="#FFE352" points="401,181 402,34 355,10 256,10 157,10 110,34 111,181 86,213 86,472 256,472 426,472 426,213 	"/>
	<g>
		<rect x="236" y="237" transform="matrix(-1.836970e-16 1 -1 -1.836970e-16 663 151)" fill="#EDEFF1" width="40" height="340"/>
	</g>
	<g>
		<rect x="236" y="106" transform="matrix(-1.836970e-16 1 -1 -1.836970e-16 532 20)" fill="#EDEFF1" width="40" height="340"/>
	</g>
	<g>
		<rect x="245.719" y="192.113" fill="#FFB236" width="20.561" height="280.513"/>
	</g>
	<g>
		<polygon fill="#6E83B7" points="182,10 182,98 256,230 330,98 330,10 		"/>
	</g>
	<g>
		<rect x="86" y="472" fill="#FFB236" width="340" height="30"/>
	</g>
</g>
</svg>
