<?xml version="1.0" encoding="utf-8"?>
<!-- Generator: Adobe Illustrator 24.0.0, SVG Export Plug-In . SVG Version: 6.00 Build 0)  -->
<svg version="1.1" id="Layer_2" xmlns="http://www.w3.org/2000/svg" xmlns:xlink="http://www.w3.org/1999/xlink" x="0px" y="0px"
	 viewBox="0 0 512 512" enable-background="new 0 0 512 512" xml:space="preserve">
<g>
	<g>
		<polygon fill="#6E83B7" points="306,322 367,383 323,486 189,486 145,383 206,322 		"/>
	</g>
	<g>
		
			<rect x="320.068" y="334.565" transform="matrix(0.7071 -0.7071 0.7071 0.7071 -133.8951 372.7487)" fill="#466089" width="125.865" height="26.87"/>
	</g>
	<g>
		
			<rect x="333.582" y="352.322" transform="matrix(0.7071 -0.7071 0.7071 0.7071 -143.0078 394.7487)" fill="#FFE352" width="142.836" height="35.355"/>
	</g>
	<g>
		
			<rect x="359.068" y="380.636" transform="matrix(0.7071 -0.7071 0.7071 0.7071 -150.0494 411.7487)" fill="#466089" width="125.865" height="12.728"/>
	</g>
	<g>
		
			<rect x="397.31" y="414.636" transform="matrix(0.7071 -0.7071 0.7071 0.7071 -164.1326 445.7487)" fill="#466089" width="117.38" height="12.728"/>
	</g>
	<g>
		
			<rect x="367.582" y="386.322" transform="matrix(0.7071 -0.7071 0.7071 0.7071 -157.091 428.7487)" fill="#FFE352" width="142.836" height="35.355"/>
	</g>
	<g>
		
			<rect x="115.565" y="285.068" transform="matrix(0.7071 -0.7071 0.7071 0.7071 -208.2899 193.1436)" fill="#466089" width="26.87" height="125.865"/>
	</g>
	<g>
		
			<rect x="89.322" y="298.582" transform="matrix(0.7071 -0.7071 0.7071 0.7071 -230.2899 184.0309)" fill="#FFE352" width="35.355" height="142.836"/>
	</g>
	<g>
		
			<rect x="83.636" y="324.068" transform="matrix(0.7071 -0.7071 0.7071 0.7071 -247.2899 176.9893)" fill="#466089" width="12.728" height="125.865"/>
	</g>
	<g>
		
			<rect x="49.636" y="362.31" transform="matrix(0.7071 -0.7071 0.7071 0.7071 -281.2899 162.906)" fill="#466089" width="12.728" height="117.38"/>
	</g>
	<g>
		
			<rect x="55.322" y="332.582" transform="matrix(0.7071 -0.7071 0.7071 0.7071 -264.2899 169.9477)" fill="#FFE352" width="35.355" height="142.836"/>
	</g>
	<g>
		<path fill="#6E83B7" d="M308,26H204C143.249,26,94,75.249,94,136v158l72,72h180l72-72V136C418,75.249,368.751,26,308,26z"/>
	</g>
	<g>
		<path fill="#466089" d="M256,58h52c43.078,0,78,34.922,78,78v132h-46c0,0-26-31-84-31s-84,31-84,31h-46V136
			c0-43.078,34.922-78,78-78H256z"/>
	</g>
	<g>
		<path fill="#80D6FB" d="M348.003,248c-12.873-11.068-42.877-31-92.003-31c-49.126,0-79.13,19.932-92.002,31H146V136
			c0-31.981,26.019-58,58-58h104c31.981,0,58,26.019,58,58v112H348.003z"/>
	</g>
	<g>
		<circle fill="#D3D3D3" cx="256" cy="366" r="90"/>
	</g>
	<g>
		<circle fill="#EDEFF1" cx="256" cy="366" r="70"/>
	</g>
	<g>
		<circle fill="#D3D3D3" cx="256" cy="324" r="10"/>
	</g>
	<g>
		<circle fill="#D3D3D3" cx="256" cy="366" r="10"/>
	</g>
	<g>
		<circle fill="#D3D3D3" cx="219.627" cy="345" r="10"/>
	</g>
	<g>
		<circle fill="#D3D3D3" cx="219.627" cy="387" r="10"/>
	</g>
	<g>
		<circle fill="#D3D3D3" cx="256" cy="408" r="10"/>
	</g>
	<g>
		<circle fill="#D3D3D3" cx="292.373" cy="387" r="10"/>
	</g>
	<g>
		<circle fill="#D3D3D3" cx="292.373" cy="345" r="10"/>
	</g>
</g>
</svg>
