<?xml version="1.0" encoding="utf-8"?>
<!-- Generator: Adobe Illustrator 24.0.0, SVG Export Plug-In . SVG Version: 6.00 Build 0)  -->
<svg version="1.1" id="Layer_2" xmlns="http://www.w3.org/2000/svg" xmlns:xlink="http://www.w3.org/1999/xlink" x="0px" y="0px"
	 viewBox="0 0 512 512" enable-background="new 0 0 512 512" xml:space="preserve">
<g>
	<g>
		<g>
			<path fill="#EDEFF1" d="M391.903,278.963l-15.905-23.877c0-0.029,0.001-0.058,0.001-0.086h18l-19.79-20.732
				c-0.006-0.036-0.012-0.072-0.018-0.108l17.711-3.123l-23.068-16.965c-0.015-0.041-0.029-0.083-0.044-0.124l16.886-6.146
				l-25.682-12.711c-0.019-0.033-0.039-0.065-0.058-0.099L375.511,186l-27.538-8.069c-0.017-0.021-0.035-0.041-0.052-0.062
				l13.793-11.573l-28.522-3.165c-0.02-0.017-0.041-0.035-0.061-0.052l11.574-13.793l-28.601,1.833
				c-0.032-0.019-0.064-0.038-0.096-0.057L325,135.488l-27.82,6.765c-0.042-0.015-0.085-0.029-0.128-0.045l6.146-16.886
				l-26.247,11.504c-0.037-0.006-0.075-0.012-0.112-0.019l3.123-17.711l-23.877,15.904c-0.029,0-0.057-0.001-0.086-0.001v-18
				l-20.732,19.79c-0.036,0.006-0.072,0.011-0.108,0.018l-3.123-17.711l-16.966,23.068c-0.041,0.015-0.083,0.028-0.124,0.043
				l-6.146-16.886l-12.711,25.682c-0.033,0.019-0.066,0.039-0.099,0.058L187,135.488l-8.07,27.538
				c-0.021,0.018-0.041,0.035-0.062,0.052l-11.574-13.793l-3.165,28.522c-0.017,0.021-0.034,0.041-0.052,0.061l-13.793-11.573
				l1.833,28.601c-0.019,0.032-0.038,0.064-0.057,0.096L136.489,186l6.765,27.819c-0.016,0.042-0.03,0.085-0.045,0.128
				l-16.886-6.146l11.504,26.247c-0.006,0.037-0.012,0.074-0.018,0.112l-17.711-3.123l15.905,23.877
				c0,0.029-0.001,0.058-0.001,0.086h-18l19.79,20.732c0.006,0.036,0.012,0.072,0.018,0.108l-17.711,3.123l23.068,16.965
				c0.015,0.041,0.029,0.083,0.044,0.124l-16.886,6.146l25.682,12.711c0.019,0.033,0.039,0.065,0.058,0.099L136.489,324
				l27.538,8.069c0.017,0.021,0.035,0.041,0.052,0.062l-13.793,11.573l28.522,3.165c0.02,0.017,0.041,0.035,0.061,0.052
				l-11.574,13.792l28.601-1.833c0.032,0.019,0.064,0.038,0.096,0.057L187,374.512l27.819-6.765
				c0.042,0.015,0.085,0.029,0.128,0.045l-6.146,16.886l26.246-11.504c0.037,0.006,0.075,0.012,0.112,0.019l-3.123,17.711
				l23.877-15.904c0.029,0,0.058,0.001,0.087,0.001v18l20.732-19.79c0.036-0.006,0.072-0.011,0.108-0.018l3.123,17.711
				l16.965-23.068c0.041-0.015,0.083-0.028,0.124-0.043l6.146,16.886l12.711-25.682c0.033-0.019,0.066-0.039,0.099-0.058
				L325,374.512l8.069-27.538c0.021-0.018,0.041-0.035,0.062-0.052l11.574,13.792l3.165-28.521c0.017-0.021,0.034-0.041,0.052-0.061
				l13.793,11.573l-1.833-28.601c0.019-0.032,0.038-0.064,0.057-0.096L375.511,324l-6.765-27.819
				c0.016-0.042,0.03-0.085,0.045-0.128l16.886,6.146l-11.504-26.247c0.006-0.037,0.012-0.075,0.018-0.112L391.903,278.963z"/>
		</g>
		<g>
			<path fill="#D3D3D3" d="M256,329c-40.804,0-74-33.196-74-74s33.196-74,74-74s74,33.196,74,74S296.804,329,256,329z M256,191
				c-35.29,0-64,28.71-64,64s28.71,64,64,64c35.29,0,64-28.71,64-64S291.29,191,256,191z"/>
		</g>
		<g>
			<circle fill="#D3D3D3" cx="256" cy="255" r="24"/>
		</g>
	</g>
	<g>
		<rect x="10" y="255" fill="#FFE352" width="492" height="42"/>
	</g>
	<g>
		<rect x="419" y="297" fill="#EDEFF1" width="42" height="143"/>
	</g>
	<g>
		<rect x="51" y="297" fill="#EDEFF1" width="42" height="143"/>
	</g>
	<g>
		<rect x="419" y="297" fill="#D3D3D3" width="42" height="20"/>
	</g>
	<g>
		<rect x="51" y="297" fill="#D3D3D3" width="42" height="20"/>
	</g>
	<g>
		<path fill="#6E83B7" d="M256,72c-50.534,0-96.284,20.483-129.401,53.6l58.69,58.689C203.386,166.193,228.386,155,256,155
			c55.229,0,100,44.771,100,100h83C439,153.932,357.068,72,256,72z"/>
	</g>
</g>
</svg>
