<?xml version="1.0" encoding="utf-8"?>
<!-- Generator: Adobe Illustrator 24.0.0, SVG Export Plug-In . SVG Version: 6.00 Build 0)  -->
<svg version="1.1" id="Layer_2" xmlns="http://www.w3.org/2000/svg" xmlns:xlink="http://www.w3.org/1999/xlink" x="0px" y="0px"
	 viewBox="0 0 512 512" enable-background="new 0 0 512 512" xml:space="preserve">
<g>
	<g>
		<polygon fill="#6E83B7" points="446.87,164.083 451.11,145.706 408.702,103.298 366.294,60.89 347.917,65.13 311.164,28.377 
			263.101,76.439 299.855,113.193 295.614,131.57 338.022,173.978 380.43,216.386 398.807,212.145 435.561,248.899 483.623,200.836 
					"/>
	</g>
	<g>
		<polygon fill="#466089" points="366.294,60.89 322.473,17.068 311.164,28.377 347.917,65.13 		"/>
	</g>
	<g>
		<polygon fill="#466089" points="451.11,145.706 494.932,189.527 483.623,200.836 446.87,164.083 		"/>
	</g>
	<g>
		<polygon fill="#466089" points="295.614,131.57 251.793,87.748 263.101,76.439 299.855,113.193 		"/>
	</g>
	<g>
		<polygon fill="#466089" points="380.43,216.386 424.252,260.207 435.561,248.899 398.807,212.145 		"/>
	</g>
	<g>
		
			<rect x="405.775" y="76.238" transform="matrix(0.7071 -0.7071 0.7071 0.7071 53.7317 322.179)" fill="#FFE352" width="19.991" height="39.983"/>
	</g>
	<g>
		
			<rect x="105.022" y="250.498" transform="matrix(0.7071 -0.7071 0.7071 0.7071 -120.5281 249.9983)" fill="#FFE352" width="272.976" height="39.983"/>
	</g>
	<g>
		<polygon fill="#6E83B7" points="52.408,502 10,459.592 113.296,356.296 130.863,352.865 159.135,381.137 155.704,398.704 		"/>
	</g>
	<g>
		
			<rect x="458.128" y="178.423" transform="matrix(0.7071 0.7071 -0.7071 0.7071 297.1506 -260.5823)" fill="#6E83B7" width="9.996" height="99.957"/>
	</g>
	<g>
		
			<rect x="278.601" y="-1.104" transform="matrix(0.7071 0.7071 -0.7071 0.7071 117.6233 -186.2197)" fill="#6E83B7" width="9.996" height="99.957"/>
	</g>
</g>
</svg>
