<?xml version="1.0" encoding="utf-8"?>
<!-- Generator: Adobe Illustrator 24.0.0, SVG Export Plug-In . SVG Version: 6.00 Build 0)  -->
<svg version="1.1" id="Layer_2" xmlns="http://www.w3.org/2000/svg" xmlns:xlink="http://www.w3.org/1999/xlink" x="0px" y="0px"
	 viewBox="0 0 512 512" enable-background="new 0 0 512 512" xml:space="preserve">
<g>
	<g>
		<g>
			<path fill="#6E83B7" d="M256,37.809L256,37.809c-15.806,0-30.416,8.417-38.344,22.091L16.045,407.638
				c-17.131,29.548,4.189,66.553,38.343,66.553h403.223c34.155,0,55.475-37.005,38.343-66.553L294.343,59.9
				C286.416,46.227,271.806,37.809,256,37.809z"/>
		</g>
		<g>
			<path fill="#FFE352" d="M54.388,442.19c-6.196,0-9.349-3.866-10.676-6.17c-1.328-2.305-3.091-6.971,0.017-12.332L245.34,75.951
				c2.196-3.788,6.281-6.141,10.66-6.141s8.463,2.353,10.66,6.141l201.612,347.737c3.108,5.361,1.345,10.027,0.017,12.332
				c-1.328,2.304-4.48,6.17-10.676,6.17H54.388z"/>
		</g>
	</g>
	<g>
		<g>
			<polygon fill="#6E83B7" points="228.324,264.608 228.324,236.758 209.758,218.192 181.908,218.192 207.437,243.721 
				200.474,264.608 179.587,271.571 154.058,246.042 154.058,273.891 172.625,292.458 200.474,292.458 203.259,289.673 
				279.382,365.796 276.597,368.581 276.597,396.431 295.164,414.997 323.014,414.997 297.485,389.468 304.447,368.581 
				325.334,361.618 350.863,387.147 350.863,359.298 332.297,340.731 304.447,340.731 301.662,343.516 225.539,267.393 			"/>
		</g>
		<g>
			<path fill="#6E83B7" d="M299.805,210.765l16.462,16.462c6.491,0.167,12.932,2.721,17.886,7.674
				c4.954,4.954,7.507,11.395,7.674,17.886l15.07,15.07l5.106-5.106L375,275.748l-37.133,37.133l-12.997-12.997l4.642-4.642
				l-13.925-13.925l-12.068,12.068l-2.785-2.785L176.338,414.997l-22.28-22.28l124.396-124.396l-2.785-2.785l12.068-12.068
				l-7.427-7.427l1.763-5.931c2.059-6.927,0.159-14.426-4.951-19.537l-7.488-7.488l2.321-2.321
				C279.646,203.075,292.115,203.075,299.805,210.765z"/>
		</g>
	</g>
</g>
</svg>
