<svg id="Capa_1" enable-background="new 0 0 512 512" height="512" viewBox="0 0 512 512" width="512" xmlns="http://www.w3.org/2000/svg"><g><path d="m253.263 145.923c0 21.548 17.53 39.078 39.078 39.078s39.078-17.53 39.078-39.078-17.53-39.078-39.078-39.078-39.078 17.53-39.078 39.078zm63.156 0c0 13.277-10.801 24.078-24.078 24.078s-24.078-10.801-24.078-24.078 10.801-24.078 24.078-24.078 24.078 10.801 24.078 24.078z"/><path d="m334.307 432.9c8.887 0 16.117-7.23 16.117-16.117v-96.001c0-8.887-7.23-16.117-16.117-16.117h-114.959c-8.887 0-16.117 7.23-16.117 16.117v96.001c0 8.887 7.23 16.117 16.117 16.117zm-116.076-16.117v-96.001c0-.616.501-1.117 1.117-1.117h114.959c.616 0 1.117.501 1.117 1.117v96.001c0 .616-.501 1.117-1.117 1.117h-114.959c-.616 0-1.117-.501-1.117-1.117z"/><ellipse cx="250.977" cy="368.783" rx="10" ry="10" transform="matrix(.995 -.099 .099 .995 -35.118 26.526)"/><ellipse cx="302.679" cy="368.783" rx="10" ry="10" transform="matrix(.995 -.099 .099 .995 -34.866 31.62)"/><path d="m183.766 368.783c0-16.723-13.605-30.328-30.328-30.328s-30.329 13.605-30.329 30.328 13.605 30.328 30.329 30.328 30.328-13.605 30.328-30.328zm-45.657 0c0-8.452 6.876-15.328 15.329-15.328s15.328 6.876 15.328 15.328-6.876 15.328-15.328 15.328-15.329-6.876-15.329-15.328z"/><path d="m493.086 267.649-63.185 29.648v-.599c0-9.837-8.003-17.84-17.84-17.84h-27.183v-25.023c0-13.638-11.096-24.734-24.734-24.734h-15.707c27.657-17.385 46.081-48.168 46.081-83.177 0-20.751-6.396-40.588-18.496-57.366-2.422-3.36-7.11-4.12-10.47-1.696-3.36 2.423-4.119 7.11-1.696 10.47 10.246 14.208 15.662 31.011 15.662 48.593 0 45.864-37.313 83.177-83.177 83.177-8.827 0-17.463-1.363-25.742-4.057v-32.661c0-16.245-13.216-29.461-29.461-29.461h-26.24c-1.188-5.657-1.788-11.386-1.788-17.096 0-45.81 37.337-83.078 83.231-83.078 15.718 0 31.02 4.403 44.25 12.733 3.506 2.208 8.137 1.154 10.343-2.351 2.207-3.505 1.155-8.136-2.351-10.343-15.627-9.839-33.693-15.04-52.243-15.04-45.621 0-84.075 31.213-95.073 73.372-10.183-15.622-25.784-27.686-44.714-33.114-42.186-12.096-86.347 12.382-98.443 54.568-5.86 20.436-3.411 41.929 6.896 60.523 5.78 10.427 13.644 19.24 23.04 26.005h-2.664c-13.638 0-24.734 11.096-24.734 24.734v16.013h-15.473c-2.061-3.026-5.532-5.018-9.461-5.018h-20.274c-6.308 0-11.44 5.132-11.44 11.44v38.444c0 6.308 5.132 11.44 11.44 11.44h20.273c3.929 0 7.4-1.992 9.461-5.018h15.474v118.383c0 13.638 11.096 24.734 24.734 24.734h23.494c4.142 0 7.5-3.358 7.5-7.5s-3.358-7.5-7.5-7.5h-23.493c-5.367 0-9.734-4.367-9.734-9.734v-118.383h31.58c14.141 0 25.645-11.504 25.645-25.645s-11.504-25.645-25.645-25.645h-31.58v-16.013c0-5.367 4.367-9.734 9.734-9.734h278.761c5.368 0 9.734 4.367 9.734 9.734v185.685c0 5.367-4.367 9.734-9.734 9.734h-220.267c-4.142 0-7.5 3.358-7.5 7.5s3.358 7.5 7.5 7.5h220.267c13.639 0 24.734-11.096 24.734-24.734v-25.023h27.183c9.837 0 17.84-8.003 17.84-17.84v-.6l63.185 29.648c8.806 4.132 18.914-2.301 18.914-12.017v-134.021c0-9.727-10.118-16.144-18.914-12.017zm-478.086 12.18h13.154v31.325h-13.154zm88.229 5.018c5.87 0 10.645 4.775 10.645 10.645s-4.775 10.645-10.645 10.645c-6.657 0-53.633 0-60.075 0v-21.29zm9.584-58.25c-16.584-4.755-30.323-15.684-38.688-30.773-8.364-15.089-10.352-32.532-5.596-49.116 9.819-34.242 45.659-54.1 79.89-44.284 27.288 7.825 46.106 32.648 46.777 60.497-14.297 0-23.811 6.726-28.609 17.567-11.839-27.86-11.532-28.553-14.861-32.752-8.457-10.663-23.8-13.462-35.569-5.996-11.41 7.231-15.419 21.528-10.338 33.367 1.366 3.179.042.869 35.296 51.265.342.588.709 1.153 1.098 1.695-9.543 1.745-19.71 1.308-29.4-1.47zm29.229-65.616c.001.003.002.005.003.008 1.624 5.289-.608 11.187-5.636 13.974-4.908 2.719-11.056 1.661-14.784-2.575 0 0-.321-.3-.977-1.276-3.907-5.895-1.867-13.736 4.16-17.078 6.609-3.662 14.999-.308 17.234 6.947zm8.953 21.169c10.187 23.972 12.343 29.056 13.083 30.753v6.743l-2.281 1.41c-2.773 1.452-6.246.43-7.778-2.334-.299-.539-18.869-27.044-19.253-27.593 6.437-.998 12.146-4.253 16.229-8.979zm28.083 10.232c0-7.974 6.487-14.461 14.461-14.461h43.598c7.974 0 14.461 6.487 14.461 14.461v36.718h-72.521c.001-14.725.001-24.104.001-36.718zm235.823 204.274c0 1.566-1.274 2.84-2.84 2.84h-27.183v-105.638h27.183c1.566 0 2.84 1.274 2.84 2.84zm82.099 14.316-67.099-31.485v-65.62l67.099-31.485z"/></g></svg>