<svg id="Capa_1" enable-background="new 0 0 511.999 511.999" height="512" viewBox="0 0 511.999 511.999" width="512" xmlns="http://www.w3.org/2000/svg"><g><path d="m458.535 223.718c0-13.787-11.216-25.003-25.003-25.003h-2.502v-28.686c0-5.784 0-139.773 0-145.026 0-13.787-11.216-25.003-25.004-25.003-13.787 0-25.003 11.216-25.003 25.003v2.502h-250.047v-2.502c0-13.787-11.217-25.003-25.003-25.003-13.787 0-25.004 11.216-25.004 25.003v42.087c0 4.142 3.358 7.5 7.5 7.5s7.5-3.358 7.5-7.5v-24.585h320.061v120.024c-4.758 0-317.087 0-320.061 0v-60.439c0-4.142-3.358-7.5-7.5-7.5s-7.5 3.358-7.5 7.5v96.625h-2.502c-13.787 0-25.003 11.216-25.003 25.003 0 12.944 9.886 23.62 22.504 24.878v78.628c0 16.544 13.46 30.004 30.004 30.004 11.489 0 21.485-6.494 26.524-16 3.342 1.087 6.79 2.123 10.335 3.11l74.27 62.32-72.919 61.185c-10.561 8.862-11.943 24.664-3.081 35.225 8.862 10.562 24.664 11.944 35.225 3.082l79.672-66.853 79.672 66.854c10.552 8.853 26.327 7.522 35.226-3.083 8.85-10.549 7.524-26.325-3.083-35.225l-22.981-19.284c-3.174-2.663-7.905-2.25-10.566.924-2.663 3.173-2.249 7.904.924 10.566l22.981 19.284c4.192 3.518 4.821 9.817 1.234 14.092-3.512 4.185-9.809 4.827-14.093 1.234l-77.646-65.153 15.562-13.058 25.151 21.104c3.173 2.662 7.903 2.249 10.566-.924s2.249-7.904-.924-10.566l-23.125-19.404 74.272-62.321c3.545-.986 6.992-2.023 10.333-3.109 5.04 9.507 15.036 16.001 26.525 16.001 16.544 0 30.004-13.46 30.004-30.004v-78.628c12.618-1.259 22.505-11.936 22.505-24.879zm-362.566-196.213v-2.502c0-5.516 4.487-10.003 10.003-10.003s10.003 4.487 10.003 10.003v2.502zm300.054 0v-2.502c0-5.516 4.487-10.003 10.003-10.003s10.003 4.487 10.003 10.003v2.502zm20.007 150.024v21.186h-20.006v-21.186zm-37.508 21.186c-13.787 0-25.003 11.216-25.003 25.003 0 12.944 9.886 23.62 22.504 24.878v42.766c-59.092 24.504-180.076 24.896-240.046.001v-42.767c12.618-1.258 22.504-11.935 22.504-24.878 0-13.787-11.216-25.003-25.003-25.003h-2.502v-21.186h250.048v21.186zm-282.553-21.186h20.006v21.186h-20.006zm-27.505 46.189c0-5.516 4.487-10.003 10.003-10.003h55.01c5.516 0 10.003 4.487 10.003 10.003s-4.487 10.003-10.003 10.003c-7.015 0-50.272 0-55.01 0-5.515 0-10.003-4.487-10.003-10.003zm37.508 118.511c-8.273 0-15.004-6.731-15.004-15.004v-78.503h30.008v78.503c.001 8.273-6.73 15.004-15.004 15.004zm30.005-34.743c62.932 23.352 177.582 23.128 240.046-.004v19.104c-60.13 19.907-169.893 23.225-240.046 0zm120.022 66.533-19.638-16.479c12.823.46 25.896.48 39.278-.001zm-81.456-22.653c11.633 2.006 23.913 3.568 36.678 4.66l33.111 27.783-15.562 13.058zm-7.857 143.293c-4.225 3.545-10.547 2.993-14.093-1.233-3.545-4.226-2.992-10.548 1.232-14.093 9.879-8.289 140.967-118.284 146.954-123.308 12.765-1.091 25.045-2.654 36.678-4.66zm254.345-167.435c0 8.273-6.731 15.004-15.004 15.004s-15.004-6.731-15.004-15.004c0-1.755 0-76.328 0-78.503h30.008zm12.501-93.503c-7.015 0-50.272 0-55.01 0-5.516 0-10.003-4.487-10.003-10.003s4.487-10.003 10.003-10.003h55.01c5.516 0 10.003 4.487 10.003 10.003s-4.488 10.003-10.003 10.003z"/></g></svg>