<svg id="Capa_1" enable-background="new 0 0 512 512" height="512" viewBox="0 0 512 512" width="512" xmlns="http://www.w3.org/2000/svg"><g><path d="m484.057 180.393c-1.572-10.671-7.137-20.309-15.829-27.068-10.357-8.054-23.596-10.819-36.316-7.586-.042.011-.084.022-.126.033-6.839 1.865-12.802 5.101-17.655 9.372-2.06-2.591-4.602-4.767-7.491-6.4 5.969-6.52 9.302-15.005 9.302-24.036 0-19.681-16.012-35.692-35.692-35.692s-35.692 16.012-35.692 35.692c0 9.146 3.462 17.626 9.283 24.028-2.932 1.656-5.502 3.874-7.573 6.516-.74-.663-1.497-1.311-2.29-1.927-10.357-8.054-23.596-10.819-36.316-7.586-.042.011-.084.022-.126.033-6.839 1.865-12.802 5.101-17.655 9.372-2.062-2.593-4.607-4.772-7.501-6.406 5.975-6.522 9.312-15.011 9.312-24.046 0-11.092-5.025-21.361-13.788-28.175-8.762-6.813-19.957-9.152-30.719-6.417-.042.011-.084.022-.126.033-16.001 4.365-26.752 18.253-26.752 34.559 0 9.15 3.466 17.635 9.292 24.038-2.936 1.656-5.508 3.876-7.582 6.521-16.512-14.785-40.511-14.081-56.387-.108-2.062-2.593-4.607-4.772-7.501-6.406 5.975-6.522 9.312-15.011 9.312-24.046 0-11.092-5.025-21.361-13.788-28.175-8.761-6.813-19.956-9.152-30.719-6.417-.042.011-.084.022-.126.033-16.001 4.365-26.752 18.253-26.752 34.559 0 9.152 3.467 17.639 9.296 24.043-2.927 1.652-5.494 3.863-7.565 6.497-.733-.656-1.484-1.297-2.268-1.907-10.357-8.054-23.596-10.819-36.316-7.586-.042.011-.084.022-.126.033-17.129 4.672-28.797 17.909-31.129 34.618-16.101 4.278-27.948 19.099-27.948 36.246v31.884c0 4.142 3.357 7.5 7.5 7.5s7.5-3.358 7.5-7.5v-31.884c0-9.089 5.544-17.093 13.496-20.602 1.76 8.221 5.81 15.44 11.506 20.999-9.007 4.755-14.833 14.193-14.833 24.566v60.877c0 .03 0 .06.001.09h-10.17v-19.045c0-4.142-3.357-7.5-7.5-7.5s-7.5 3.358-7.5 7.5v21.545c0 6.893 5.607 12.5 12.5 12.5h12.669v92.952c0 6.893 5.607 12.5 12.5 12.5h353.143c4.143 0 7.5-3.358 7.5-7.5s-3.357-7.5-7.5-7.5h-25.606v-71.727c0-10.808 8.793-19.601 19.601-19.601h40.163c10.809 0 19.602 8.793 19.602 19.601v71.727h-18.685c-4.143 0-7.5 3.358-7.5 7.5s3.357 7.5 7.5 7.5h48.445c6.893 0 12.5-5.607 12.5-12.5v-92.952h12.668c6.893 0 12.5-5.607 12.5-12.5v-88.429c0-17.137-11.847-31.964-27.943-36.243zm-86.553 120.472c-15.399-3.399-26.632-17.331-26.689-33.139 0-.002 0-.003 0-.005 0-.036-.002-.072-.002-.108 0-.009.001-.018.001-.027 0-.019.001-.038 0-.057.039-17.879 14.36-33.537 33.323-33.984 18.882-.461 34.811 14.752 34.826 34.023-.001.053-.002.104-.002.148v.011c-.079 21.513-19.982 37.881-41.457 33.138zm-90.621-38.947c-1.184-10.665-6.258-21.539-14.93-29.8.003-.003.007-.005.01-.008 2.708-2.151 6.104-3.28 9.404-3.28h33.518c8.335 0 15.116 6.781 15.116 15.117v19.381c-8.093 3.284-14.856 8.874-19.598 15.876-5.577-8.186-13.899-14.412-23.52-17.286zm-56.184 38.947c-15.523-3.427-26.693-17.472-26.693-33.264 0-18.743 15.325-34.102 34.178-34.074.106 0 .211.002.317.003 18.295.198 33.435 14.999 33.646 33.682-.213 23.37-20.974 38.169-41.448 33.653zm-69.187-21.788c-4.957-7.268-11.976-12.695-19.512-15.753v-19.376c0-8.335 6.781-15.117 15.116-15.117h33.518c4.378 0 8.611 1.895 11.531 5.343-6.94 7.445-11.434 16.855-12.757 26.692-11.474 2.121-21.513 8.795-27.896 18.211zm-63.379-118.676h27.234c4.912 0 9.085 3.221 10.423 7.76-1.911 4.018-2.983 7.93-3.662 12.24-7.751 2.067-15.151 6.869-20.381 13.86-4.826-6.462-11.974-11.598-20.353-13.852-.582-3.843-1.859-8.197-3.731-12.085 1.284-4.63 5.49-7.923 10.47-7.923zm124.25 0h27.234c4.911 0 9.084 3.22 10.424 7.759-1.799 3.783-3.029 7.892-3.634 12.234-8.097 2.173-15.309 7.065-20.408 13.863-5.018-6.701-12.282-11.696-20.405-13.863-.63-4.137-1.926-8.32-3.688-11.998 1.277-4.61 5.556-7.995 10.477-7.995zm124.25 0h27.234c4.911 0 9.084 3.22 10.424 7.759-1.799 3.783-3.029 7.892-3.634 12.234-8.314 2.231-15.476 7.27-20.407 13.862-4.906-6.532-12.044-11.629-20.409-13.866-.611-4.008-1.873-8.212-3.685-11.993 1.277-4.61 5.556-7.996 10.477-7.996zm21.117 61.227v-4.993c0-8.814 5.322-16.96 13.461-20.573 1.747 8.133 5.738 15.284 11.346 20.815-1.013.531-1.994 1.15-2.976 1.869-7.238-.684-14.9.284-21.831 2.882zm-40.058-4.933c5.795-5.683 9.764-12.824 11.536-20.65 8.411 3.708 13.522 11.959 13.522 20.59v13.895c-3.063 2.664-5.771 5.693-8.076 8.983-1.353-9.405-7.464-18.306-16.982-22.818zm-84.192 2.111v-2.171c0-8.732 5.251-16.928 13.461-20.573 1.743 8.109 5.714 15.243 11.296 20.767-3.226 1.562-6.331 3.809-8.888 6.544-4.839-2.337-10.315-3.963-15.869-4.567zm-29.545 6.06c-2.77-3.401-6.403-6.266-10.493-8.191 5.783-5.679 9.745-12.811 11.515-20.626 8.432 3.717 13.523 11.977 13.523 20.586v2.836c-4.862.963-9.886 2.756-14.545 5.395zm-86.2 12.366c-2.142-2.738-5.3-5.934-8.505-8.418v-12.179c0-8.69 5.143-16.863 13.464-20.56 1.744 8.105 5.717 15.238 11.298 20.76-8.32 4.036-14.259 11.689-16.257 20.397zm-44.046 63.997c-16.607-2.714-28.576-17.258-28.59-33.597v-.001c0-.016 0-.034 0-.051.018-19.782 17.261-36.025 37.7-33.86 16.185 1.699 29.373 14.947 30.387 31.813 1.303 21.726-17.873 39.226-39.497 35.696zm-4.606-84.407c5.86-5.698 9.875-12.879 11.663-20.754 8.419 3.729 13.485 11.999 13.485 20.568v4.236c-6.739-2.178-14.177-2.906-21.596-1.9-.963-.688-2.21-1.458-3.552-2.15zm-46.167 12.009h26.237c-10.453 8.139-16.889 19.93-18.585 32.029-7.751 1.423-14.738 4.86-20.419 9.756v-29.019c0-7.039 5.727-12.766 12.767-12.766zm418.895 41.917c-5.436-4.721-11.929-7.899-18.263-9.422-1.6-12.58-8.079-24.41-18.582-32.542 5.599.063 5.418.047 24.078.047 7.039 0 12.767 5.727 12.767 12.766zm-36.162-110.486c17.227-4.338 33.86 8.693 33.86 26.373 0 15.354-13.328 28.642-29.563 27.096-14.048-1.251-23.808-11.911-24.675-25.176-.868-12.592 6.291-24.422 20.378-28.293zm-55.419-56.246c11.41 0 20.692 9.283 20.692 20.692 0 6.428-2.916 12.382-7.999 16.335-5.167 4.018-11.708 5.273-17.813 3.719-9.169-2.331-15.573-10.578-15.573-20.054.001-11.409 9.283-20.692 20.693-20.692zm-68.831 56.246c17.244-4.343 33.86 8.718 33.86 26.373 0 15.767-13.453 28.031-28.781 27.151-13.815-.84-24.281-10.926-25.43-24.863-.009-.123-.019-.245-.027-.369-.888-12.881 6.477-24.472 20.378-28.292zm-60.476-55.638c6.221-1.562 12.689-.202 17.753 3.736 5.082 3.952 7.996 9.905 7.996 16.333s-2.916 12.382-7.999 16.335c-5.079 3.95-11.571 5.307-17.813 3.719-9.169-2.331-15.573-10.577-15.573-20.054.001-9.432 6.281-17.489 15.636-20.069zm-63.774 55.638c17.2-4.331 33.86 8.654 33.86 26.373 0 15.624-13.307 28.042-28.786 27.151-13.683-.83-24.272-10.873-25.425-24.863-1.016-13.446 6.675-24.903 20.351-28.661zm-60.476-55.638c6.221-1.562 12.689-.202 17.753 3.736 5.082 3.952 7.996 9.905 7.996 16.333s-2.916 12.382-7.999 16.335c-5.079 3.95-11.571 5.307-17.813 3.719-9.169-2.331-15.573-10.577-15.573-20.054.001-9.432 6.281-17.489 15.636-20.069zm-63.731 55.638c17.213-4.331 33.859 8.681 33.859 26.373 0 .015-.001.03-.001.046s-.003.031-.003.047c-.045 14.039-11.204 27.104-27.831 27.104-14.431-.364-26.068-11.28-26.454-26.466-.005-.213-.016-.423-.017-.637 0-.008-.001-.015-.001-.023-.014-10.11 5.341-22.293 20.448-26.444zm-22.72 141.53c.752-12.221 9.207-22.377 20.647-25.602 1.946 10.755 7.478 20.35 14.986 27.344-13.796 4.715-23.445 17.771-23.445 32.756v71.727h-12.261c0-114.451-.032-104.487.073-106.225zm27.188 34.498c0-10.808 8.793-19.601 19.602-19.601h40.163c10.808 0 19.601 8.793 19.601 19.601v71.727h-79.366zm94.365 0c0-13.779-8.26-26.118-20.487-31.59 7.968-6.897 13.719-16.367 15.934-27.092 10.046 4.536 16.815 14.692 16.815 25.954v104.455h-12.262zm27.262-32.728c0-12.965 8.657-24.103 20.716-27.391 1.87 10.369 7.206 20.113 14.99 27.363-13.794 4.71-23.445 17.804-23.445 32.756v71.727h-12.261zm27.26 32.728c0-10.808 8.793-19.601 19.601-19.601h40.164c10.808 0 19.601 8.793 19.601 19.601v71.727h-79.365v-71.727zm94.366 0c0-13.847-8.313-26.142-20.487-31.59 7.905-6.841 13.656-16.189 15.932-27.089 10.321 4.678 16.816 14.971 16.816 25.951v104.455h-12.261zm27.26-32.728c0-12.352 8.116-22.894 18.763-26.728 2.004 10.283 7.382 19.957 15.459 27.246-13.131 5.174-21.96 17.942-21.96 32.21v71.727h-12.262zm133.888 104.454h-12.261v-71.726c0-14.128-8.691-26.941-21.893-32.183 6.779-5.649 13.268-15.957 15.415-27.269 11.006 4.04 18.738 14.699 18.738 26.724v6.502 97.952zm25.169-105.452h-10.184c0-.009 0-.018 0-.027.01-.159.015-.318.015-.479v-60.461c0-10.439-5.915-20.001-15.1-24.702 5.913-5.721 9.96-12.944 11.751-20.871 7.962 3.506 13.518 11.518 13.518 20.611z"/></g></svg>