<svg id="Capa_1" enable-background="new 0 0 512.006 512.006" height="512" viewBox="0 0 512.006 512.006" width="512" xmlns="http://www.w3.org/2000/svg"><g><g><path d="m359.561 325.533c-38.42 3.362-66.938 24.008-64.928 47.004 1.827 20.876 28.096 35.475 61.668 35.475 42.12 0 77.61-21.763 75.362-47.463-2.011-22.997-33.69-38.372-72.102-35.016zm5.868 67.075c-31.574 2.769-54.772-9.051-55.853-21.379-1.078-12.329 19.721-27.991 51.291-30.753 31.534-2.763 54.772 9.036 55.853 21.379 1.078 12.329-19.721 27.991-51.291 30.753z"/><path d="m82.574 360.548c-2.011 22.996 26.508 43.642 64.928 47.003 38.439 3.359 70.091-12.03 72.103-35.015 2.011-22.996-26.508-43.642-64.928-47.003-38.42-3.359-70.091 12.019-72.103 35.015zm122.087 10.681c-1.078 12.328-24.277 24.141-55.853 21.379-31.57-2.762-52.369-18.424-51.291-30.753 1.079-12.332 24.284-24.142 55.853-21.379 31.57 2.762 52.369 18.424 51.291 30.753z"/><path d="m228.229 206.501c0 19.539 12.199 34.845 27.773 34.845s27.773-15.306 27.773-34.845c0-19.54-12.199-34.845-27.773-34.845s-27.773 15.305-27.773 34.845zm40.547 0c0 10.757-5.85 19.845-12.773 19.845-6.924 0-12.773-9.088-12.773-19.845s5.85-19.845 12.773-19.845 12.773 9.087 12.773 19.845z"/><path d="m498.819 302.684c-118.405-42.339-120.446-44.955-143.602-44.955-10.944 0-17.985 1.564-26.642 3.226 6.174-14.435 6.402-26.013 6.775-28.32.102-.632 2.484-15.743 2.484-38.089 0-45.125-10.143-126.716-78.067-166.155-.02-.011-.041-.019-.06-.03-2.348-1.338-5.17-1.278-7.411 0-.02.011-.041.018-.06.03-25.587 14.855-45.27 37.029-58.502 65.905-1.726 3.766-.071 8.217 3.694 9.943 3.768 1.727 8.218.071 9.942-3.694 9.876-21.553 23.682-38.919 41.131-51.788v64.529c-35.451 20.269-50.899 60.738-43.538 114.588 2.668 20.809 23.223 40.627 51.038 40.627 26.767 0 48.311-19.208 51.14-41.271 7.203-53.492-8.281-93.732-43.64-113.944v-64.521c51.302 37.904 59.333 106.591 59.333 145.781 0 23.344-2.442 35.538-2.494 36.538-3.178 59.975-73.624 85.947-111.905 41.901-17.344-19.924-16.246-41.122-17.132-43.834-3.706-26.792-3.073-64.352 5.076-96.877 1.007-4.018-1.435-8.091-5.452-9.098-4.019-1.004-8.091 1.434-9.099 5.452-11.35 45.302-7.323 95.205-5.065 104.56.67 9.849 2.999 19.193 6.665 27.764-8.576-1.645-15.656-3.225-26.64-3.225-23.195 0-25.269 2.642-143.603 44.956-10.635 3.804-16.149 15.899-11.557 26.577l33.509 77.727c16.968 39.358 53.98 66.649 96.597 71.222 20.986 2.253 32.624-.903 66.221-7.412l45.763 12.216c8.043 2.148 16.523 2.148 24.567 0l45.772-12.219c31.847 6.116 45.765 10.197 69.336 7.038 4.105-.55 6.987-4.325 6.438-8.43-.551-4.106-4.328-6.99-8.43-6.438-20.601 2.761-31.94-.645-64.088-6.819.147-1.836.049-3.719-.339-5.608l-6.738-32.848c-.832-4.058-4.801-6.674-8.854-5.84-4.058.833-6.673 4.797-5.84 8.854l6.737 32.847c.53 2.584-1.051 5.142-3.6 5.822l-34.265 9.147c-5.488 1.465-11.346 1.464-16.828 0l-34.265-9.147c-2.549-.681-4.13-3.238-3.601-5.821l6.738-32.848c.833-4.058-1.782-8.022-5.84-8.854-4.049-.831-8.021 1.782-8.854 5.84l-6.739 32.849c-.387 1.89-.486 3.775-.338 5.612-33.352 6.469-43.07 9.104-61.356 7.143-37.244-3.997-69.593-27.849-84.421-62.247l-33.508-77.723c-1.121-2.611.212-5.581 2.831-6.518 118.869-42.505 118.576-44.08 138.552-44.08 10.057 0 14.955 1.237 36.534 5.408 9.592 12.824 23.097 22.965 38.897 28.132-4.045 5.145-6.467 11.623-6.467 18.66 0 16.68 13.57 30.25 30.25 30.25 25.215 0 39.298-29.178 23.783-48.91 15.708-5.137 29.197-15.177 38.892-28.126 21.366-4.139 26.438-5.413 36.54-5.413 19.986 0 19.824 1.625 138.551 44.079 2.625.939 3.952 3.915 2.832 6.514l-33.507 77.727c-9.943 23.063-27.894 41.749-50.543 52.614-3.734 1.792-5.31 6.271-3.518 10.006 1.791 3.735 6.274 5.311 10.006 3.518 25.914-12.432 46.451-33.811 57.829-60.2l33.508-77.728c4.594-10.654-.904-22.763-11.553-26.572zm-206.534-77.518c-2.46 16.157-18.047 28.334-36.282 28.334-17.931 0-33.469-11.934-36.192-27.777-3.765-27.681-3.834-76.588 36.192-99.459 39.94 22.819 39.97 71.435 36.282 98.902zm-36.283 115.012c-8.409 0-15.25-6.841-15.25-15.25 0-7.343 5.217-13.488 12.139-14.929 2.324.096 3.899.096 6.223 0 6.922 1.441 12.139 7.586 12.139 14.929-.001 8.408-6.842 15.25-15.251 15.25z"/></g></g></svg>