<svg id="Capa_1" enable-background="new 0 0 512 512" height="512" viewBox="0 0 512 512" width="512" xmlns="http://www.w3.org/2000/svg"><g><path d="m391.327 479.698-12.084-55.704c-.879-4.049-4.875-6.618-8.919-5.74-4.048.878-6.618 4.872-5.74 8.919l11.427 52.674c-20.559 0-21.456-.223-25.695.772l-32.416-226.994c-2.143-15.005-6.451-30.497-13.088-44.263 10.913 12.433 18.458 27.371 21.999 43.696l30.352 139.911c.878 4.048 4.87 6.617 8.919 5.74 4.048-.878 6.618-4.872 5.74-8.919l-30.352-139.911c-4.636-21.369-15.226-40.666-30.684-56.028v-19.509l5.459-9.402c2.311 3.326 6.167 5.396 10.278 5.396h31.351c6.33 0 11.666-4.74 12.413-11.025l6.495-54.678c.756-6.361-.051-12.869-2.333-18.821l-15.667-40.848c-3.845-10.025-14.066-15.844-24.306-13.836l-11.806 2.315c-19.588 0-.198 0-34.646 0v-19.943c0-7.444-6.056-13.5-13.5-13.5h-37.049c-7.444 0-13.5 6.056-13.5 13.5v19.941c-32.278 0-14.679 0-34.646 0-12.76-2.502-13.22-2.71-15.87-2.71-8.981 0-16.926 5.586-20.242 14.232l-2.093 5.458c-1.483 3.867.449 8.205 4.317 9.688 3.865 1.483 8.205-.45 9.688-4.317 1.685-4.392 3.21-11.177 9.507-9.946l5.729 1.124c-5.933 31.246-6.7 33.762-7.111 44.141-.799 20.306 3.892 40.463 13.543 58.304l-2.885 5.92h-27.568c-7.354-61.918-7.996-55.793-3.749-66.864 1.483-3.867-.449-8.205-4.316-9.688-3.868-1.483-8.205.449-9.688 4.316-1.336 3.483-3.651 8.765-3.651 16.852 0 3.261-.283-.034 6.771 59.359.747 6.286 6.083 11.025 12.413 11.025h31.351c4.111 0 7.967-2.07 10.278-5.396l5.46 9.402v19.509c-15.457 15.362-26.048 34.659-30.684 56.028l-49.856 229.819c-1.691 7.798 4.253 15.15 12.216 15.15h22.09c14.047 0 14.466 17.152 23.701 17.152h154.64c4.523 0 6.157-3.199 8.865-6.876 4.1-5.567 4.613-6.224 6.487-7.574.001-.001.002-.002.003-.002 4.788-3.448 6.785-2.7 30.437-2.7 7.896.001 13.917-7.298 12.215-15.149zm-175.115-290.184v-10.856h79.575v10.856c-22.817 0-56.839 0-79.575 0zm121.15-143.668c3.111-.61 6.166 1.234 7.414 4.488l15.667 40.848c1.415 3.688 1.914 7.727 1.444 11.68l-6.232 52.473h-27.568l-2.889-5.926c9.979-18.439 15.002-39.968 13.338-62.072-.601-8.246-1.221-10.44-6.903-40.366zm-26.129 34.013 5.035-31.418h.376c4.977 26.214 15.566 59.307-6.397 96.957l-10.602 18.259h-36.145v-69.093h30.485c8.629 0 15.883-6.184 17.248-14.705zm-79.758-31.418c4.142 0 7.5-3.358 7.5-7.5v-25.941h34.049v25.941c0 4.142 3.358 7.5 7.5 7.5h20.553l-4.654 29.044c-.193 1.204-1.218 2.078-2.438 2.078h-75.971c-1.219 0-2.244-.873-2.437-2.078l-4.655-29.045h20.553zm-13.461 46.123h30.486v69.093h-36.146c-11.824-20.363-20.728-33.062-23.506-56.622-2.147-18.242.508-26.995 6.507-58.593h.376l5.035 31.418c1.365 8.52 8.619 14.704 17.248 14.704zm-82.025 385.284 49.199-226.789c3.542-16.326 11.086-31.264 21.999-43.697-6.597 13.683-10.958 29.35-13.088 44.263l-32.415 226.995c-4.256-.999-5.207-.772-25.695-.772zm193.549 17.152h-147.088c-4.255-5.725-4.845-6.65-6.733-8.541l33.231-232.713c2.552-17.871 8.322-36.053 18.088-51.231h57.927c9.787 15.211 15.531 33.323 18.088 51.231l33.23 232.707c-1.943 1.983-3.715 4.439-6.743 8.547z"/></g></svg>