<svg id="Capa_1" enable-background="new 0 0 512 512" height="512" viewBox="0 0 512 512" width="512" xmlns="http://www.w3.org/2000/svg"><g><path d="m442.452 222.779c4.978-7.694 7.67-16.712 7.67-25.943 0-24.142-18.034-44.193-41.339-47.358-2.534-10.323-8.475-19.538-16.821-26.133 4.825-14.126-5.77-28.722-20.557-28.722h-12.397c-5.959-53.608-49.735-94.623-102.546-94.623-16.763 0-33.409 4.264-48.14 12.329-3.633 1.989-4.966 6.547-2.977 10.18 1.99 3.633 6.547 4.966 10.181 2.977 12.528-6.86 26.684-10.486 40.936-10.486 33.579 0 62.884 19.525 77.789 48.5h-155.502c3.267-6.348 7.241-12.318 11.884-17.741 2.694-3.146 2.327-7.881-.819-10.575s-7.881-2.326-10.575.819c-13.043 15.235-22.721 35.503-25.306 58.62h-12.414c-14.806 0-25.375 14.613-20.557 28.722-8.346 6.595-14.286 15.81-16.821 26.133-23.305 3.165-41.339 23.217-41.339 47.358 0 8.913 2.532 17.672 7.216 25.208-5.314 7.863-8.19 17.164-8.19 26.743 0 26.354 21.441 47.796 47.795 47.796h45.433c11.631 17.827 27.855 32.394 46.981 42.012v10.535c-6.392.41-12.267 4.094-15.143 9.856h-21.348c-11.224 0-20.455-.718-32.816 4.349-.051.021-.096.051-.147.073-21.155 8.766-36.079 29.625-36.079 53.912v87.18c0 4.143 3.358 7.5 7.5 7.5h31.57 29.972 243.373c4.142 0 7.5-3.357 7.5-7.5v-21.26c0-4.143-3.358-7.5-7.5-7.5s-7.5 3.357-7.5 7.5v13.76h-16.57v-113.723c10.08 7.942 16.57 20.245 16.57 34.043v30.92c0 4.143 3.358 7.5 7.5 7.5s7.5-3.357 7.5-7.5v-30.92c0-24.286-14.923-45.146-36.078-53.912-.051-.022-.096-.053-.147-.074-5.769-2.364-10.368-3.161-10.368-3.161-8.115-1.626-11.18-1.187-43.797-1.187-1.37-2.745-3.481-5.138-6.191-6.895-2.732-1.769-5.813-2.76-8.952-2.962v-10.692c18.99-9.619 35.098-24.125 46.666-41.855h44.792c18.783 0 35.368-10.597 43.285-27.654 7.08-15.255 5.782-32.441-3.177-46.149zm-102.081-144.279c1.641 5.248 2.821 10.638 3.531 16.123h-174.876c.764-5.829 2.02-11.2 3.563-16.123zm-198.852 31.123h229.887c3.706 0 6.721 3.015 6.721 6.721 0 3.655-2.998 6.721-6.721 6.721-4.387 0-205.387 0-229.887 0-8.989-.001-8.839-13.442 0-13.442zm235.522 121.377v-40.002c0-3.499-.211-7.584-.429-10.169 13.753 3.089 24.059 15.4 24.059 30.072v.236c0 14.673-10.309 26.984-24.064 30.072.255-3.017.434-6.775.434-10.209zm-241.046 10.136c-13.594-3.207-23.742-15.44-23.742-29.999v-.237c0-14.557 10.147-26.79 23.739-29.998-.193 2.31-.424 6.325-.424 10.095v40.003c0 3.076.145 6.728.427 10.136zm10.699 40.447h-37.07c-18.083 0-32.795-14.712-32.795-32.796 0-7.956 2.893-15.633 8.146-21.618 2.414-2.75 2.491-6.842.181-9.681-4.811-5.913-7.354-13.055-7.354-20.652 0-18.039 14.676-32.75 32.715-32.793 3.827-.009 7.034-2.898 7.44-6.704.946-8.859 5.498-16.915 12.449-22.341 6.104 3.65 11.088 3.067 17.405 3.067-4.363 8.9-7.53 18.288-9.485 27.263-23.043 2.382-41.073 21.91-41.073 45.573v.236c0 23.667 18.037 43.199 41.087 45.575 1.82 8.351 4.651 16.876 8.354 24.871zm155.297 163.76c12.174 5.447 25.821-3.201 25.821-15.764 0-10.942 0-44.706 0-55.593h12.065v123.014h-75.915v-68.686c.001 0 38.028 17.028 38.029 17.029zm-101.879-78.839c0-1.658 2.438-3.081 4.693-2.073 15.952 7.144 26.857 12.027 44.157 19.774v27.673c-30.687 13.742-24.686 11.055-44.158 19.774-2.144.962-4.692-.343-4.692-2.073v-62.971zm-15 63.075c0 12.57 13.654 21.213 25.824 15.763l38.026-17.028v68.686h-75.915v-123.014h12.065zm-73.607-12.259c0-13.798 6.49-26.101 16.57-34.043v113.723h-16.57zm31.57 79.68v-121.377c6.458-1.826 11.155-1.636 14.972-1.636v123.013zm226.774 0h-14.972v-123.014c5.475 0 9.565.109 14.972 1.636zm-57.037-130.496v.016 63.06c0 1.686-2.506 3.052-4.693 2.073l-44.157-19.775v-27.673c40.835-18.287 23.047-10.321 44.157-19.774 2.148-.959 4.693.325 4.693 2.073zm-16.926-21.678v8.647l-39.424 17.654-39.424-17.654v-8.537c11.548 3.95 25.011 6.416 38.882 6.416 14.609.001 28.009-2.398 39.966-6.526zm-39.966-8.473c-51.876 0-95.271-37.741-103.82-87.427-1.923-11.167-1.532-13.478-1.532-57.928 0-18.221 4.727-36.573 14.254-52.934h182.964c9.637 16.55 14.254 34.953 14.254 52.934 0 40.668.845 49.357-3.05 65.185-11.07 45.096-51.776 80.17-103.07 80.17zm176.103-73.739c-5.513 11.878-16.607 18.969-29.679 18.969h-36.43c3.52-7.599 6.428-16.05 8.348-24.845 23.203-2.227 41.408-21.825 41.408-45.602v-.236c0-23.772-18.199-43.368-41.395-45.601-1.951-8.961-5.136-18.378-9.479-27.235 6.901 0 11.693.537 17.721-3.067 6.951 5.427 11.504 13.482 12.449 22.341.406 3.806 3.613 6.695 7.44 6.704 18.039.043 32.715 14.754 32.715 32.793 0 7.716-2.744 15.217-7.728 21.12-2.359 2.796-2.358 6.886.004 9.68 8.307 9.826 10.079 23.229 4.626 34.979z"/><path d="m208.508 198.73v-11c0-4.143-3.358-7.5-7.5-7.5s-7.5 3.357-7.5 7.5v11c0 4.143 3.358 7.5 7.5 7.5s7.5-3.357 7.5-7.5z"/><path d="m311.568 180.23c-4.142 0-7.5 3.357-7.5 7.5v11c0 4.143 3.358 7.5 7.5 7.5s7.5-3.357 7.5-7.5v-11c0-4.142-3.358-7.5-7.5-7.5z"/><path d="m267.606 258.085c-4.884 9.605-17.396 9.62-22.288 0-9.516-18.722-34.697-22.365-48.914-6.884-16.831 18.327-6.624 48.315 17.075 63.085 24.702 15.402 61.301 15.379 85.965.001 23.585-14.7 33.954-44.708 17.076-63.086-14.217-15.481-39.378-11.875-48.914 6.884zm23.903 43.473c-19.819 12.357-50.241 12.379-70.096-.001-18.941-11.805-22.243-31.191-13.962-40.21 7.189-7.825 19.756-5.786 24.495 3.535 10.439 20.534 38.578 20.562 49.03 0 4.733-9.31 17.298-11.369 24.495-3.535 8.227 8.959 5.033 28.372-13.962 40.211z"/><path d="m295.197 270.811c-3.79-1.665-8.217.056-9.884 3.848-3.004 6.834-13.941 13.752-29.031 13.752-15.091 0-26.027-6.918-29.032-13.752-1.667-3.791-6.092-5.514-9.884-3.848-3.792 1.667-5.515 6.093-3.848 9.885 13.28 30.209 72.242 30.216 85.526 0 1.668-3.793-.055-8.218-3.847-9.885z"/><path d="m236.008 198.73v-11c0-19.299-15.701-35-35-35s-35 15.701-35 35v11c0 19.299 15.701 35 35 35s35-15.701 35-35zm-55 0v-11c0-11.028 8.972-20 20-20s20 8.972 20 20v11c0 11.028-8.972 20-20 20s-20-8.971-20-20z"/><path d="m311.568 152.73c-19.299 0-35 15.701-35 35v11c0 19.299 15.701 35 35 35s35-15.701 35-35v-11c0-19.298-15.701-35-35-35zm20 46c0 11.028-8.972 20-20 20s-20-8.972-20-20v-11c0-11.028 8.972-20 20-20s20 8.972 20 20z"/></g></svg>