<svg id="Capa_1" enable-background="new 0 0 504.611 504.611" height="512" viewBox="0 0 504.611 504.611" width="512" xmlns="http://www.w3.org/2000/svg"><g><path d="m233.428 468.256c4.142 0 7.5-3.357 7.5-7.5s-3.358-7.5-7.5-7.5h-48.359c-4.142 0-7.5 3.357-7.5 7.5s3.358 7.5 7.5 7.5z"/><path d="m281.966 314.36c7.579-4.374 10.173-14.05 5.796-21.629l-18.357-31.795c-4.037-6.993-12.956-9.365-19.922-5.34l-8.686 5.015c-2.81 1.623-6.427.682-8.07-2.162l-31.05-53.78c-1.629-2.821-.659-6.442 2.163-8.071l8.686-5.015c6.963-4.021 9.358-12.957 5.337-19.922l-18.357-31.796c-4.376-7.579-14.049-10.171-21.629-5.795l-21.201 12.24c-23.856 13.773-32.018 44.226-18.243 68.084l54.25 93.963c13.751 23.816 44.171 32.048 68.084 18.243zm-76.294-13.503-54.25-93.963c-9.628-16.676-3.925-37.964 12.753-47.594l21.201-12.24c.399-.232.909-.094 1.139.305l18.149 31.436-8.326 4.807c-9.984 5.766-13.417 18.578-7.652 28.562l31.05 53.78c5.776 10.005 18.552 13.434 28.561 7.652l8.325-4.807 18.15 31.437c.232.4.096.908-.305 1.139l-21.201 12.24c-16.68 9.627-37.965 3.925-47.594-12.754z"/><path d="m399.983 353.581c-8.514-8.516-22.297-8.518-30.813-.001l-18.556 18.556-18.556-18.556c-8.495-8.494-22.316-8.493-30.813.001-8.494 8.494-8.494 22.317 0 30.813l18.556 18.555-18.556 18.557c-8.494 8.494-8.494 22.317 0 30.812 8.504 8.506 22.298 8.516 30.813.001l18.556-18.557 18.556 18.557c8.496 8.494 22.317 8.493 30.813-.001 8.494-8.494 8.494-22.317 0-30.813l-18.556-18.556 18.556-18.556c8.495-8.495 8.495-22.318 0-30.812zm-10.607 20.205-23.859 23.858c-2.927 2.928-2.929 7.677 0 10.607l23.858 23.858c2.646 2.647 2.646 6.953.001 9.6-2.647 2.646-6.954 2.647-9.601 0l-23.859-23.859c-2.927-2.927-7.678-2.928-10.606 0l-23.859 23.86c-2.65 2.649-6.947 2.652-9.599 0-2.646-2.647-2.646-6.953 0-9.6l23.859-23.859c2.927-2.928 2.929-7.677 0-10.607l-23.858-23.857c-2.646-2.647-2.646-6.953-.001-9.6 2.647-2.646 6.954-2.646 9.6 0l23.859 23.858c2.929 2.928 7.678 2.928 10.606 0l23.859-23.858c2.659-2.659 6.952-2.649 9.6-.001 2.646 2.648 2.646 6.954 0 9.6z"/><path d="m366.511 302.532v-275.249c0-15.044-12.239-27.283-27.283-27.283h-259.611c-9.454 0-18.094 4.782-23.122 12.796-.007.011-.014.021-.02.031-2.709 4.331-4.142 9.329-4.142 14.456v74.954c0 4.143 3.358 7.5 7.5 7.5s7.5-3.357 7.5-7.5v-74.954c0-2.304.639-4.545 1.848-6.484.003-.005.006-.011.01-.016 2.266-3.621 6.163-5.783 10.426-5.783h259.61c6.773 0 12.284 5.51 12.284 12.283v274.006c-4.29-.042-9.309.237-13.91.827v-253.751c0-8.481-6.9-15.382-15.381-15.382h-225.595c-8.481 0-15.381 6.9-15.381 15.382v368.503c0 8.481 6.9 15.381 15.381 15.381h156.637c7.105 23.564 22.743 44.202 44.252 57.388-44.735 0-108.27-.025-217.897-.025-6.773 0-12.283-5.51-12.283-12.283v-340.092c0-4.143-3.358-7.5-7.5-7.5s-7.5 3.357-7.5 7.5v340.091c0 15.044 12.239 27.283 27.283 27.283h270.997c23.571 0 46.545-8.251 64.69-23.234 3.194-2.638 3.645-7.364 1.008-10.559-2.637-3.193-7.364-3.647-10.559-1.008-15.464 12.769-35.046 19.801-55.14 19.801-47.58 0-86.666-38.669-86.663-86.663 0-49.085 42.183-90.846 94.282-86.323 44.231 3.871 79.044 41.105 79.044 86.323 0 14.815-3.8 29.434-10.99 42.274-2.024 3.614-.734 8.185 2.88 10.208 3.613 2.023 8.185.735 10.208-2.88 8.441-15.074 12.902-32.227 12.902-49.603.001-50.648-37.232-92.761-85.765-100.415zm-269.886 114.717c-.21 0-.381-.171-.381-.381v-368.503c0-.211.171-.382.381-.382h225.595c.21 0 .381.171.381.382v256.841c-45.497 13.649-73.65 53.543-73.65 97.742 0 4.545.319 9.434 1.003 14.301z"/></g></svg>