<svg id="Capa_1" enable-background="new 0 0 512 512" height="512" viewBox="0 0 512 512" width="512" xmlns="http://www.w3.org/2000/svg"><g><path d="m490.471 441.581v-44.535c0-3.855-1.841-7.57-4.922-9.936-41.869-32.144-70.487-99.672-82.48-149.824-.57-2.39-2.295-4.365-4.568-5.248-.398-.156-40.367-15.973-79.127-50.894-3.078-2.772-7.82-2.528-10.593.552-2.772 3.078-2.525 7.82.552 10.593 19.518 17.584 39.131 30.486 54.47 39.236h-215.646c44.068-25.15 83.886-61.514 107.84-106.255 7.69 14.387 17.144 28.208 28.223 41.244 2.682 3.155 7.415 3.541 10.572.857 3.156-2.683 3.54-7.416.857-10.572-13.345-15.702-24.15-32.59-32.15-50.214v-17.872h56.389c7.444 0 13.5-6.056 13.5-13.5v-38c0-7.444-6.056-13.5-13.5-13.5h-63.888c-4.142 0-7.5 3.357-7.5 7.5v75.363c-26.082 57.459-82.724 103.675-135.173 125.538-2.308.972-3.908 2.976-4.424 5.28-.335 1.5-8.432 37.179-27.177 75.948-1.803 3.729-.242 8.214 3.487 10.017 3.73 1.805 8.214.242 10.017-3.487 15.212-31.461 23.709-61.1 26.875-73.346l267.773.001c5.982 23.399 30.979 109.066 85.593 151.751v43.222h-121.605v-35.792c0-2.666-1.415-5.131-3.717-6.476-57.307-33.478-82.244-110.979-84.898-119.703-1.229-4.047-4.946-6.767-9.251-6.767-4.302 0-8.02 2.718-9.25 6.764-2.655 8.727-27.592 86.229-84.899 119.706-2.302 1.345-3.717 3.81-3.717 6.476v35.792h-121.605v-43.224c14.837-11.601 28.717-27.413 41.269-47.017 2.233-3.488 1.216-8.127-2.272-10.36-3.488-2.231-8.126-1.217-10.36 2.272-11.878 18.552-24.903 33.335-38.714 43.938-3.082 2.366-4.921 6.08-4.921 9.935v44.536c-12.032.955-21.531 11.042-21.531 23.314 0 12.899 10.494 23.394 23.394 23.394h465.213c12.899 0 23.394-10.494 23.394-23.394-.001-12.272-9.5-22.359-21.53-23.313zm-226.971-402.868h54.889v35h-54.889c0-13.422 0-21.921 0-35zm-90.366 371.222c46.915-29.388 72.362-83.479 82.866-111.228 10.505 27.748 35.951 81.84 82.866 111.228v31.565c-18.895 0-147.033 0-165.732 0zm315.472 63.352h-465.212c-4.628 0-8.394-3.766-8.394-8.394s3.765-8.394 8.394-8.394h465.213c4.628 0 8.394 3.766 8.394 8.394s-3.767 8.394-8.395 8.394z"/></g></svg>