<svg id="Capa_1" enable-background="new 0 0 512 512" height="512" viewBox="0 0 512 512" width="512" xmlns="http://www.w3.org/2000/svg"><g><path d="m504.5 204.78c4.143 0 7.5-3.357 7.5-7.5v-78.231c0-6.698-5.45-12.148-12.148-12.148h-66.242c-6.698 0-12.148 5.45-12.148 12.148v183.401c0 16.266-2.293 32.306-6.658 47.697-22.3 11.94-47.129 18.917-72.471 20.395 84.03-111.224 23.059-274.633-115.623-301.428-48.386-9.399-100.125.117-142.92 29.091-3.411 2.3-4.342 6.954-2.01 10.409 2.308 3.415 6.946 4.345 10.42 2.011 116.542-78.919 273.45 5.598 273.479 145.34-.013 62.725-33.166 119.296-84.84 150.23h-.01c-26.25 15.845-57.401 25.11-90.49 25.11-95.99-.02-175.319-77.559-175.339-175.341.01-46.84 18.25-90.87 51.359-123.98 2.921-2.93 2.921-7.689 0-10.609-2.909-2.909-7.63-2.958-10.6-.011 0 0-.01 0-.01.011-34.836 34.796-55.749 82.631-55.749 134.589 0 99.962 77.069 182.32 175.904 189.789 1.759.713 1.668.551 14.396.551h.024.016.012.004c169.229 0 165.143.417 178.925-.696 48.226-4.082 92.061-24.402 119.289-65.349 15.255-22.941 23.356-49.599 23.43-77.078v-70.901c0-4.143-3.357-7.5-7.5-7.5s-7.5 3.357-7.5 7.5v70.17l-.001.681c-.076 28.438-9.693 55.181-26.391 76.553-1.219-2.492-3.772-4.212-6.733-4.212h-17.144c-4.143 0-7.5 3.357-7.5 7.5s3.357 7.5 7.5 7.5h14.38c-19.594 19.839-43.744 31.116-71.51 37.003.247-.284.485-.573.73-.858 17.371-20.152 30.387-43.716 38.074-69.247.105-.35.18-.703.233-1.058 5.131-17.34 7.823-35.469 7.823-53.861v-180.551h60.539v75.38c0 4.142 3.357 7.5 7.5 7.5zm-139.034 226.077c-8.48.594-5.195.447-100.799.447 12.66-5.368 24.732-12.134 36.031-20.208v2.305c0 4.143 3.357 7.5 7.5 7.5s7.5-3.357 7.5-7.5c0-12.323.144-12.144-.46-13.801 4.789-4.176 9.568-8.754 14.218-13.726 26.468 0 51.893-4.237 78.332-15.676-9.474 22.585-23.695 43.33-42.322 60.659z"/><path d="m475.763 143.047h-17.144c-4.143 0-7.5 3.357-7.5 7.5s3.357 7.5 7.5 7.5h17.144c4.143 0 7.5-3.357 7.5-7.5s-3.358-7.5-7.5-7.5z"/><path d="m475.763 189.532h-17.144c-4.143 0-7.5 3.357-7.5 7.5s3.357 7.5 7.5 7.5h17.144c4.143 0 7.5-3.357 7.5-7.5s-3.358-7.5-7.5-7.5z"/><path d="m475.763 236.016h-17.144c-4.143 0-7.5 3.357-7.5 7.5s3.357 7.5 7.5 7.5h17.144c4.143 0 7.5-3.357 7.5-7.5s-3.358-7.5-7.5-7.5z"/><path d="m483.263 290.001c0-4.143-3.357-7.5-7.5-7.5h-17.144c-4.143 0-7.5 3.357-7.5 7.5s3.357 7.5 7.5 7.5h17.144c4.142 0 7.5-3.357 7.5-7.5z"/><path d="m455.763 328.986c-4.143 0-7.5 3.357-7.5 7.5s3.357 7.5 7.5 7.5h17.143c4.143 0 7.5-3.357 7.5-7.5s-3.357-7.5-7.5-7.5z"/><path d="m354.683 420.901c4.143 0 7.5-3.357 7.5-7.5v-11.233c0-4.143-3.357-7.5-7.5-7.5s-7.5 3.357-7.5 7.5v11.233c0 4.142 3.357 7.5 7.5 7.5z"/><path d="m88.164 287.396c-20.415 14.79-22.738 44.343-4.932 62.147l13.529 13.528c17.87 17.872 47.403 15.419 62.146-4.932l30.901-42.653c.177.002.354.013.531.013s.354-.011.531-.013l30.9 42.653c14.803 20.43 44.357 22.722 62.146 4.933l13.531-13.53c17.826-17.826 15.458-47.376-4.934-62.146l-42.653-30.9c.003-.354.003-.709 0-1.063l42.653-30.9c20.413-14.788 22.741-44.337 4.934-62.146v-.001l-13.531-13.53c-17.868-17.866-47.405-15.414-62.146 4.934l-30.9 42.653c-.354-.003-.709-.003-1.063 0l-30.9-42.653c-14.765-20.381-44.305-22.773-62.146-4.934l-13.53 13.53c-17.824 17.826-15.462 47.37 4.933 62.147l42.653 30.899c-.003.354-.003.709 0 1.063zm195.551 12.146c12.942 9.376 14.413 28.106 3.128 39.394l-13.531 13.529c-11.274 11.274-30.009 9.826-39.394-3.126l-26.35-36.373c9.713-2.917 18.245-8.239 24.89-14.884.376 0 4.86-5.521 5.09-5.821 4.316-5.607 7.679-12.03 9.793-19.069zm-49.797-136.953c9.393-12.965 28.131-14.39 39.394-3.127l13.53 13.529c11.301 11.303 9.799 30.03-3.127 39.395l-36.373 26.35c-5.788-19.268-20.992-34.133-39.774-39.775zm-39.945 48.995c24.123 1.955 42.677 22.92 40.747 48.013-1.994 24.631-23.516 42.703-47.955 40.756-.019-.002-.038-.007-.057-.009-10.768-.873-20.616-5.608-27.879-12.869h.001c-28.732-28.731-6.571-79.228 35.143-75.891zm-97.008.802c-12.941-9.377-14.413-28.107-3.126-39.394l13.53-13.53c11.304-11.307 30.029-9.798 39.393 3.127l26.351 36.372c-19.179 5.762-34.097 20.876-39.774 39.775zm36.372 60.805c2.86 9.522 8.134 18.141 14.884 24.891h.001c6.74 6.74 15.332 12.013 24.89 14.884l-26.351 36.373c-9.374 12.939-28.106 14.414-39.394 3.126l-13.529-13.529c-11.3-11.298-9.8-30.029 3.126-39.394z"/></g></svg>