<?xml version="1.0" encoding="iso-8859-1"?>
<!-- Uploaded to: SVG Repo, www.svgrepo.com, Generator: SVG Repo Mixer Tools -->
<svg fill="#000000" version="1.1" id="Layer_1" xmlns="http://www.w3.org/2000/svg" xmlns:xlink="http://www.w3.org/1999/xlink" 
	 viewBox="0 0 512 512" xml:space="preserve">
<g>
	<g>
		<path d="M305.11,215.771c-47.533,0-86.204,38.671-86.204,86.204s38.671,86.204,86.204,86.204s86.204-38.671,86.204-86.204
			S352.644,215.771,305.11,215.771z M305.11,372.506c-38.891,0-70.531-31.639-70.531-70.531s31.64-70.531,70.531-70.531
			c38.891,0,70.531,31.64,70.531,70.531S344.001,372.506,305.11,372.506z"/>
	</g>
</g>
<g>
	<g>
		<path d="M305.11,252.343c-27.367,0-49.633,22.265-49.633,49.633c0,27.368,22.266,49.633,49.633,49.633
			c27.367,0,49.633-22.265,49.633-49.633C354.743,274.608,332.477,252.343,305.11,252.343z M305.11,335.935
			c-18.725,0-33.959-15.234-33.959-33.959c0-18.726,15.235-33.959,33.959-33.959c18.725,0,33.959,15.234,33.959,33.959
			C339.069,320.701,323.835,335.935,305.11,335.935z"/>
	</g>
</g>
<g>
	<g>
		<path d="M187.559,92.474v29.257h-9.927v-9.927c0-7.202-5.859-13.061-13.061-13.061H99.788c-7.203,0-13.061,5.859-13.061,13.061
			v9.927H76.278v-16.196c0-7.203-5.859-13.061-13.061-13.061H31.869c-7.202,0-13.061,5.859-13.061,13.061v16.196H0v297.796h512
			V92.474H187.559z M102.4,114.416h59.559v7.314H102.4V114.416z M34.482,108.147h26.122v13.584H34.482V108.147z M496.327,184.424
			H375.912v0v15.673h120.414v203.755H363.706c35.209-20.33,58.955-58.382,58.955-101.878c0-64.818-52.733-117.551-117.551-117.551
			c-53.777,0-99.232,36.299-113.158,85.682h-6.441c-7.819,0-15.176,3.043-20.732,8.583c-5.524,5.54-8.567,12.897-8.567,20.716
			c0,16.15,13.144,29.289,29.299,29.289h5.113c7.48,32.063,28.119,59.125,55.891,75.159H15.673V200.098h68.359
			c6.413,0,11.824-4.568,12.868-10.863c1.466-8.842,9.053-15.26,18.038-15.26c8.985,0,16.571,6.418,18.038,15.26
			c1.045,6.294,6.456,10.863,12.868,10.863h88.463v-15.674H147.99c-3.583-15.268-17.136-26.122-33.051-26.122
			c-15.915,0-29.468,10.855-33.051,26.122H15.673v-47.02h187.559v-29.257h293.094V184.424z M305.11,403.853
			c-56.176,0-101.878-45.702-101.878-101.878s45.702-101.878,101.878-101.878c56.176,0,101.878,45.702,101.878,101.878
			S361.286,403.853,305.11,403.853z M188.082,313.02h-2.57c-7.513,0-13.625-6.107-13.625-13.615c0-3.64,1.418-7.068,3.977-9.633
			c2.582-2.575,6.008-3.993,9.649-3.993h3.169c-0.734,5.297-1.121,10.701-1.121,16.196
			C187.559,305.701,187.741,309.383,188.082,313.02z"/>
	</g>
</g>
<g>
	<g>
		<path d="M216.816,119.938v52.697h61.163v-52.697H216.816z M262.306,156.96H232.49v-21.35h29.816V156.96z"/>
	</g>
</g>
<g>
	<g>
		<circle cx="247.4" cy="146.286" r="6.792"/>
	</g>
</g>
<g>
	<g>
		<path d="M338.594,113.943c-17.833,0-32.343,14.509-32.343,32.343c0,17.833,14.508,32.343,32.343,32.343
			c17.833,0,32.343-14.508,32.343-32.343C370.937,128.451,356.428,113.943,338.594,113.943z M338.594,162.955
			c-9.191,0-16.669-7.477-16.669-16.669s7.477-16.669,16.669-16.669c9.191,0,16.669,7.478,16.669,16.669
			S347.786,162.955,338.594,162.955z"/>
	</g>
</g>
<g>
	<g>
		<path d="M391.771,115.984v60.604h96.131v-60.604H391.771z M472.228,160.914h-64.784v-29.257h64.784V160.914z"/>
	</g>
</g>
<g>
	<g>
		<rect x="426.778" y="138.449" width="26.122" height="15.673"/>
	</g>
</g>
</svg>