<?xml version="1.0" encoding="UTF-8"?>
<!DOCTYPE svg PUBLIC "-//W3C//DTD SVG 1.1//EN" "http://www.w3.org/Graphics/SVG/1.1/DTD/svg11.dtd">
<!-- Creator: CorelDRAW -->
<svg xmlns="http://www.w3.org/2000/svg" xml:space="preserve" width="2048px" height="2048px" style="shape-rendering:geometricPrecision; text-rendering:geometricPrecision; image-rendering:optimizeQuality; fill-rule:evenodd; clip-rule:evenodd"
viewBox="0 0 2048 2048"
 xmlns:xlink="http://www.w3.org/1999/xlink">
 <defs>
  <style type="text/css">
   <![CDATA[
    .fil14 {fill:none}
    .fil1 {fill:#3C3C3C}
    .fil9 {fill:#545454}
    .fil3 {fill:#616161}
    .fil12 {fill:#6A6A6A}
    .fil6 {fill:#767676}
    .fil10 {fill:#CDCDCD}
    .fil8 {fill:#E1E1E2}
    .fil4 {fill:#2F2F2F;fill-rule:nonzero}
    .fil2 {fill:#414141;fill-rule:nonzero}
    .fil5 {fill:#6A6A6A;fill-rule:nonzero}
    .fil13 {fill:#757575;fill-rule:nonzero}
    .fil11 {fill:#767676;fill-rule:nonzero}
    .fil0 {fill:#BEBEBE;fill-rule:nonzero}
    .fil7 {fill:white;fill-rule:nonzero}
   ]]>
  </style>
 </defs>
 <g id="Layer_x0020_1">
  <metadata id="CorelCorpID_0Corel-Layer"/>
  <path class="fil0" d="M959.098 1106.7l129.111 0c12.8917,0 23.3433,8.10946 23.3433,18.111l0 380.325c0,10.0016 -10.4516,18.111 -23.3433,18.111l-129.111 0c-12.8917,0 -23.3433,-8.10946 -23.3433,-18.111l0 -380.325c0,-10.0016 10.4516,-18.111 23.3433,-18.111z"/>
  <rect class="fil1" x="909.07" y="1111.63" width="229.167" height="34.3748"/>
  <path class="fil2" d="M704 1053.98c-17.6728,0 -32.0008,14.328 -32.0008,32.0008 0,17.6728 14.328,32.0008 32.0008,32.0008l639.308 0c17.6728,0 32.0008,-14.328 32.0008,-32.0008 0,-17.6728 -14.328,-32.0008 -32.0008,-32.0008l-639.308 0z"/>
  <rect class="fil3" x="668.84" y="1015.62" width="163.541" height="156.249" rx="17.7083" ry="17.7083"/>
  <rect class="fil3" x="1211.77" y="1015.62" width="163.541" height="156.249" rx="17.7083" ry="17.7083"/>
  <g id="_613193872">
   <g>
    <path id="_613195768" class="fil4" d="M1701.6 1176.81l-115.173 0c-19.0854,0 -36.417,-9.53268 -48.9591,-24.887 -12.5433,-15.3555 -20.3291,-36.5705 -20.3291,-59.9351l0 -225.676c0,-20.889 13.8331,-37.8237 30.8965,-37.8237l191.954 0c17.0634,0 30.8977,16.9347 30.8977,37.8237l0 225.676c0,23.3646 -7.78701,44.5796 -20.3291,59.9351 -12.5433,15.3543 -29.8736,24.887 -48.9579,24.887z"/>
    <path id="_613195864" class="fil4" d="M460.879 1176.81l-115.174 0c-19.0843,0 -36.4146,-9.53268 -48.9579,-24.887 -12.5421,-15.3555 -20.3291,-36.5705 -20.3291,-59.9351l0 -225.676c0,-20.889 13.8343,-37.8237 30.8977,-37.8237l191.954 0c17.0634,0 30.8965,16.9347 30.8965,37.8237l0 225.676c0,23.3646 -7.78583,44.5796 -20.3291,59.9351 -12.5421,15.3543 -29.8725,24.887 -48.9579,24.887z"/>
   </g>
   <g>
    <path id="_613196248" class="fil4" d="M1653.51 463.96c-23.054,0 -25.5567,18.691 -25.5567,41.7437 0,23.0528 2.50276,41.7426 25.5567,41.7426l59.4603 -10.8461c17.0622,0 30.8965,-13.8331 30.8965,-30.8965 0,-17.0634 -13.8343,-30.8977 -30.8965,-30.8977l-59.4603 -10.8461z"/>
    <path id="_613195648" class="fil4" d="M1650.4 536.194c8.28426,-4.35945 15,-14.6091 15,-22.8933 0,-8.28426 -6.71575,-11.4662 -15,-7.1067l-56.7709 29.8736c-8.28426,4.35945 -15,14.6091 -15,22.8933 0,8.28426 6.71575,11.4662 15,7.1067l56.7709 -29.8736z"/>
    <path id="_613195744" class="fil4" d="M393.796 463.96c23.054,0 25.5567,18.691 25.5567,41.7437 0,23.0528 -2.50276,41.7426 -25.5567,41.7426l-59.4603 -10.8461c-17.0622,0 -30.8965,-13.8331 -30.8965,-30.8965 0,-17.0634 13.8343,-30.8977 30.8965,-30.8977l59.4603 -10.8461z"/>
    <path id="_613196104" class="fil4" d="M396.903 536.194c-8.28426,-4.35945 -15,-14.6091 -15,-22.8933 0,-8.28426 6.71575,-11.4662 15,-7.1067l56.7709 29.8736c8.28426,4.35945 15,14.6091 15,22.8933 0,8.28426 -6.71575,11.4662 -15,7.1067l-56.7709 -29.8736z"/>
   </g>
   <path id="_613195576" class="fil5" d="M1569.2 602.359c7.39843,15.3295 25.826,21.7606 41.1555,14.361 15.3295,-7.39843 21.7606,-25.8248 14.3622,-41.1555l-133.951 -278.357 0.0661418 -0.0318898c-4.99489,-10.3807 -15.0331,-16.6996 -25.7587,-17.4331 -139.017,-19.2461 -281.991,-29.4177 -429.272,-29.6929 -147.725,-0.276378 -299.439,9.4441 -455.465,29.9882l3.98268 30.5339 -4.03347 -30.6319c-11.5004,1.51417 -20.6835,9.17245 -24.6874,19.2354l-133.004 276.389c-7.39961,15.3307 -0.968505,33.7571 14.361,41.1555 15.3295,7.39961 33.7571,0.968505 41.1555,-14.361l126.75 -263.391c147.67,-18.7465 291.219,-27.6272 430.941,-27.3662 138.895,0.259843 274.341,9.5941 406.605,27.2752l126.793 263.482z"/>
   <path id="_613194832" class="fil6" d="M1678.86 558.065c31.0512,0 59.2571,12.6815 79.6855,33.1099 20.4295,20.4284 33.111,48.6378 33.111,79.6867l-43.2626 332.137c0,37.3477 -30.4524,30.4453 -67.8012,30.4453l-1313.88 0c-37.3477,0 -67.7977,6.90237 -67.7977,-30.4453l-43.2626 -332.137c0,-31.0512 12.6803,-59.2583 33.1087,-79.6879 20.4284,-20.4284 48.6367,-33.1087 79.6867,-33.1087l1310.41 0z"/>
   <g>
    <path id="_613195216" class="fil7" d="M332.11 693.26c-0.137008,4.99607 -0.190158,10.1173 -0.190158,15.3343 0,57.4737 6.23977,104.783 63.7134,111.374l148.238 -10.0394c42.5374,4.87796 77.0268,-25.6536 77.0268,-68.1945 0,-5.25827 -0.529134,-10.4551 -1.53307,-15.5315l-287.255 -32.9433z"/>
    <path id="_613195288" class="fil7" d="M1715.2 693.26c0.137008,4.99607 0.190158,10.1173 0.190158,15.3343 0,57.4737 -6.23977,104.783 -63.7134,111.374l-148.238 -10.0394c-42.5374,4.87796 -77.0268,-25.6536 -77.0268,-68.1945 0,-5.25827 0.529134,-10.4551 1.53307,-15.5315l287.255 -32.9433z"/>
   </g>
   <path id="_613194808" class="fil8" d="M499.424 558.065l1048.46 0 -105.477 -219.188c-132.265,-17.6811 -267.71,-27.0154 -406.605,-27.2752 -139.722,-0.261024 -283.271,8.61969 -430.941,27.3662l-105.435 219.097z"/>
   <path id="_613194760" class="fil4" d="M507.367 553.065l1032.57 0 -100.865 -209.603c-65.0812,-8.64095 -131.01,-15.2622 -197.817,-19.774 -67.7611,-4.57559 -136.24,-6.9756 -205.458,-7.10434 -69.6579,-0.129921 -140.373,2.02559 -212.177,6.55512 -70.9264,4.47402 -142.734,11.2583 -215.442,20.4319l-100.814 209.495zm1040.52 10.0016l-1048.46 0c-0.728741,0.0011811 -1.46811,-0.158268 -2.16851,-0.494882 -2.4874,-1.19646 -3.53386,-4.18701 -2.3374,-6.67441l4.50591 2.16851 -4.49292 -2.16851 105.282 -218.78c0.651969,-1.63228 2.14843,-2.87244 4.01575,-3.10866l0.629528 4.96063 -0.624804 -4.94174c74.0351,-9.39804 146.946,-16.3193 218.763,-20.85 71.817,-4.53071 142.742,-6.68623 212.803,-6.55512 69.6756,0.129921 138.372,2.52992 206.121,7.10434 67.6501,4.56851 134.552,11.3185 200.732,20.1567 1.76929,0.0897638 3.43701,1.1185 4.25788,2.82638l-0.0106299 0.00472441 105.325 218.871c0.418111,0.731103 0.657875,1.57795 0.657875,2.48032 0,2.76142 -2.23937,5.00079 -5.00079,5.00079z"/>
   <path id="_613194112" class="fil9" d="M745.111 796.006l557.085 0c5.5004,0 9.99922,5.39292 9.99922,11.9882l-40.6996 143.171c0,5.66575 -3.86457,10.2969 -8.58898,10.2969l-478.506 0c-4.72441,0 -8.58898,-4.63111 -8.58898,-10.2969l-40.6996 -143.171c0,-6.59528 4.49882,-11.9882 9.99922,-11.9882z"/>
   <g>
    <g>
     <path id="_613194472" class="fil9" d="M349.998 922.267l128.123 0c8.76851,0 17.4071,9.13111 19.1965,20.289l6.14764 38.328c1.78937,11.1579 -3.92126,20.289 -12.6898,20.289l-128.123 0c-8.76733,0 -17.4059,-9.12993 -19.1965,-20.289l-6.14646 -38.328c-1.78937,-11.1591 3.92008,-20.289 12.6886,-20.289z"/>
     <circle id="_613194328" class="fil10" cx="389.093" cy="959.184" r="29.5897"/>
     <circle id="_613193968" class="fil10" cx="448.415" cy="967.779" r="20.9944"/>
    </g>
    <g>
     <path id="_613194280" class="fil9" d="M1697.31 922.267l-128.123 0c-8.76851,0 -17.4071,9.13111 -19.1965,20.289l-6.14764 38.328c-1.78937,11.1579 3.92126,20.289 12.6898,20.289l128.123 0c8.76733,0 17.4059,-9.12993 19.1965,-20.289l6.14646 -38.328c1.78937,-11.1591 -3.92008,-20.289 -12.6886,-20.289z"/>
     <circle id="_613194304" class="fil10" cx="1658.21" cy="959.184" r="29.5897"/>
     <circle id="_613193704" class="fil10" cx="1598.89" cy="967.779" r="20.9944"/>
    </g>
   </g>
   <g>
    <path id="_613193416" class="fil11" d="M790.66 819.301c-5.30197,0 -9.60001,4.11378 -9.60001,9.1878 0,5.07402 4.29803,9.1878 9.60001,9.1878l465.987 0c5.30197,0 9.60001,-4.11378 9.60001,-9.1878 0,-5.07402 -4.29803,-9.1878 -9.60001,-9.1878l-465.987 0z"/>
    <path id="_613193656" class="fil11" d="M798.34 852.798c-5.30197,0 -9.60001,4.11378 -9.60001,9.1878 0,5.07402 4.29803,9.1878 9.60001,9.1878l450.628 0c5.30197,0 9.60001,-4.11378 9.60001,-9.1878 0,-5.07402 -4.29803,-9.1878 -9.60001,-9.1878l-450.628 0z"/>
    <path id="_613193248" class="fil11" d="M806.02 886.295c-5.30197,0 -9.60001,4.11378 -9.60001,9.1878 0,5.07402 4.29803,9.1878 9.60001,9.1878l435.267 0c5.30197,0 9.60001,-4.11378 9.60001,-9.1878 0,-5.07402 -4.29803,-9.1878 -9.60001,-9.1878l-435.267 0z"/>
    <path id="_613193536" class="fil11" d="M821.379 919.791c-5.30197,0 -9.60119,4.11378 -9.60119,9.1878 0,5.07402 4.29922,9.1878 9.60119,9.1878l404.548 0c5.30197,0 9.60119,-4.11378 9.60119,-9.1878 0,-5.07402 -4.29922,-9.1878 -9.60119,-9.1878l-404.548 0z"/>
   </g>
   <polygon id="_613193392" class="fil12" points="1437.08,563.066 610.221,563.066 1023.65,700.723 "/>
  </g>
  <path class="fil13" d="M935.157 1343.16l176.993 0c17.6728,0 32.0008,8.10946 32.0008,18.111l0 412.616c0,10.0016 -14.328,18.111 -32.0008,18.111l-176.993 0c-17.6728,0 -32.0008,-8.10946 -32.0008,-18.111l0 -412.616c0,-10.0016 14.328,-18.111 32.0008,-18.111z"/>
  <path class="fil2" d="M831.307 1666.84c-17.6728,0 -32.0008,28.0193 -32.0008,62.5796 0,34.5614 14.328,62.5808 32.0008,62.5808l384.695 0c17.6728,0 32.0008,-28.0193 32.0008,-62.5808 0,-34.5603 -14.328,-62.5796 -32.0008,-62.5796l-384.695 0z"/>
 </g>
 <rect class="fil14" width="2048" height="2048"/>
</svg>
