<?xml version="1.0" encoding="UTF-8"?>
<!DOCTYPE svg PUBLIC "-//W3C//DTD SVG 1.1//EN" "http://www.w3.org/Graphics/SVG/1.1/DTD/svg11.dtd">
<!-- Creator: CorelDRAW -->
<svg xmlns="http://www.w3.org/2000/svg" xml:space="preserve" width="2048px" height="2048px" style="shape-rendering:geometricPrecision; text-rendering:geometricPrecision; image-rendering:optimizeQuality; fill-rule:evenodd; clip-rule:evenodd"
viewBox="0 0 2048 2048"
 xmlns:xlink="http://www.w3.org/1999/xlink">
 <defs>
  <style type="text/css">
   <![CDATA[
    .fil22 {fill:none}
    .fil18 {fill:#323232}
    .fil17 {fill:#3F3F3F}
    .fil16 {fill:#414141}
    .fil10 {fill:#545454}
    .fil0 {fill:#575758}
    .fil14 {fill:#5F5F5F}
    .fil13 {fill:gray}
    .fil7 {fill:#919191}
    .fil11 {fill:#9B9B9C}
    .fil21 {fill:#BEBEBE}
    .fil9 {fill:#E1E1E2}
    .fil20 {fill:#202020;fill-rule:nonzero}
    .fil4 {fill:#2F2F2F;fill-rule:nonzero}
    .fil19 {fill:#4D4D4D;fill-rule:nonzero}
    .fil5 {fill:#545454;fill-rule:nonzero}
    .fil3 {fill:#565656;fill-rule:nonzero}
    .fil2 {fill:#6A6A6A;fill-rule:nonzero}
    .fil6 {fill:gray;fill-rule:nonzero}
    .fil1 {fill:#8C8D8D;fill-rule:nonzero}
    .fil15 {fill:#B1B1B1;fill-rule:nonzero}
    .fil12 {fill:#C9C9C9;fill-rule:nonzero}
    .fil8 {fill:#E9E9EA;fill-rule:nonzero}
   ]]>
  </style>
 </defs>
 <g id="Layer_x0020_1">
  <metadata id="CorelCorpID_0Corel-Layer"/>
  <rect class="fil0" transform="matrix(-0.800079 0.599895 0.449914 0.60005 1165.58 1261.13)" width="39.0626" height="27.0839"/>
  <path class="fil1" d="M1129.58 1129.12c0,-8.83583 -7.16457,-16.0004 -16.0004,-16.0004 -8.83583,0 -16.0004,7.16457 -16.0004,16.0004l0 87.8906c0,8.83583 7.16457,16.0004 16.0004,16.0004 8.83583,0 16.0004,-7.16457 16.0004,-16.0004l0 -87.8906z"/>
  <path class="fil2" d="M1145.59 1204.64c0,-17.6728 -14.328,-11.6882 -32.0008,-11.6882 -17.6728,0 -32.0008,-5.98465 -32.0008,11.6882l0 87.8906c0,17.6728 14.328,32.0008 32.0008,32.0008 17.6728,0 32.0008,-14.328 32.0008,-32.0008l0 -87.8906z"/>
  <path class="fil3" d="M1102.6 1097.14c-8.83583,0 -16.0004,7.16457 -16.0004,16.0004 0,8.83583 7.16457,16.0004 16.0004,16.0004l21.9732 0c8.83583,0 16.0004,-7.16457 16.0004,-16.0004 0,-8.83583 -7.16457,-16.0004 -16.0004,-16.0004l-21.9732 0z"/>
  <g id="_613210312">
   <path id="_613176232" class="fil4" d="M403.031 1326.41l-82.9134 12.3508c-13.7386,2.04685 -27.2362,-2.95748 -37.9122,-12.6662 -10.676,-9.70867 -18.5563,-24.1465 -21.0626,-40.9654l-24.1996 -162.463c-2.24055,-15.0366 5.90197,-28.7126 18.1854,-30.5421l138.187 -20.5843c12.2835,-1.82953 24.0579,8.87835 26.2984,23.9162l24.1996 162.462c2.5063,16.8201 -0.82441,32.928 -8.20749,45.326 -7.38308,12.3992 -18.8362,21.1193 -32.5748,23.1662z"/>
   <path id="_613176160" class="fil5" d="M1185.15 685.342c-16.5969,2.47205 -16.3937,16.1953 -13.9217,32.791 2.47205,16.5957 6.27756,29.7815 22.8744,27.3095l41.641 -14.1839c12.2835,-1.83071 20.7591,-13.2721 18.9295,-25.5555 -1.82953,-12.2847 -13.2721,-20.7591 -25.5555,-18.9295l-43.9678 -1.4315z"/>
   <path id="_613175728" class="fil5" d="M1190.66 737.675c5.49567,-4.02638 9.2315,-12.1252 8.34331,-18.0886 -0.88819,-5.96457 -6.06378,-7.53426 -11.5606,-3.50788l-37.6654 27.5941c-5.49567,4.02638 -9.2315,12.1252 -8.34331,18.0886 0.88819,5.96457 6.06378,7.53426 11.5606,3.50788l37.6654 -27.5941z"/>
   <path id="_613175824" class="fil5" d="M278.295 820.427c16.5969,-2.47205 20.4024,10.715 22.8744,27.3107 2.47205,16.5957 2.6752,30.3177 -13.9217,32.791l-43.9678 -1.43268c-12.2835,1.83071 -23.7248,-6.64489 -25.5555,-18.9284 -1.82953,-12.2835 6.64607,-23.726 18.9295,-25.5555l41.641 -14.1851z"/>
   <path id="_613176016" class="fil5" d="M288.278 872.095c-6.43111,-2.25 -12.365,-8.90788 -13.2532,-14.8725 -0.88819,-5.96339 3.60473,-8.97402 10.0358,-6.72402l44.0729 15.4181c6.43111,2.25 12.365,8.90788 13.2532,14.8713 0.88819,5.96457 -3.60473,8.9752 -10.0358,6.7252l-44.0729 -15.4181z"/>
   <path id="_613175800" class="fil6" d="M1139.3 794.014c6.96969,10.2425 20.9244,12.8965 31.167,5.9256 10.2425,-6.96969 12.8965,-20.9244 5.9256,-31.167l-126.28 -186.023 0.0448819 -0.0295276c-4.70906,-6.9378 -12.613,-10.4102 -20.413,-9.7878 -102.141,1.05236 -206.157,9.06142 -312.213,24.6579 -106.375,15.6414 -214.551,38.9079 -324.67,70.4304l6.14174 21.554 -6.1878 -21.6201c-8.11654,2.32441 -13.9063,8.82166 -15.7099,16.4953l-66.1099 213.233c-3.68268,11.8287 2.92323,24.4051 14.752,28.0878 11.8287,3.6815 24.4051,-2.92323 28.0878,-14.7532l63.0012 -203.204c104.295,-29.3315 206.682,-51.117 307.295,-65.9126 100.018,-14.7071 198.525,-22.5118 295.636,-23.9669l119.532 176.08z"/>
   <path id="_613211680" class="fil7" d="M1213.49 750.369c22.3536,-3.32953 44.0185,2.77441 60.9154,15.2906 16.898,12.515 29.0528,31.4634 32.3823,53.8146l4.47166 243.742c4.00512,26.8855 -18.6567,25.1823 -45.5445,29.1874l-945.848 140.895c-26.8855,4.00394 -48.0662,12.2386 -52.0713,-14.648l-66.7619 -234.462c-3.32953,-22.3536 2.77441,-44.0197 15.2894,-60.9178 12.5162,-16.8969 31.4634,-29.0492 53.8158,-32.3799l943.351 -140.522z"/>
   <path id="_613212064" class="fil8" d="M258.477 992.114c0.437008,3.61181 0.947245,7.30394 1.50709,11.0599 6.163,41.374 15.7288,74.7627 57.8103,73.3442l105.639 -23.1236c31.1445,-1.04882 52.6996,-26.7272 48.137,-57.352 -0.563386,-3.78544 -1.50236,-7.47048 -2.76969,-11.0173l-210.324 7.08898z"/>
   <path id="_613211968" class="fil8" d="M1254.15 843.798c0.634252,3.58229 1.22126,7.2626 1.7811,11.0185 6.163,41.374 6.7441,76.1008 -33.9236,87.0095l-107.792 8.6693c-30.0981,8.07284 -58.2012,-10.2071 -62.7638,-40.8331 -0.563386,-3.78544 -0.739371,-7.58268 -0.561024,-11.3457l203.26 -54.5185z"/>
   <path id="_613212136" class="fil9" d="M364.427 876.846l754.775 -112.432 -99.4359 -146.48c-97.1127,1.45394 -195.619,9.25985 -295.636,23.9669 -100.613,14.7957 -203.001,36.5823 -307.296,65.9126l-52.4067 169.032z"/>
   <path id="_613211296" class="fil4" d="M369.609 872.395l743.339 -110.728 -95.0883 -140.075c-47.778,0.758268 -95.9505,3.06142 -144.527,6.97796 -49.2721,3.97205 -98.8265,9.5882 -148.669,16.9181 -50.1603,7.37599 -100.837,16.5106 -152.041,27.4713 -50.5796,10.8272 -101.547,23.4106 -152.903,37.8118l-50.1107 161.625zm750.129 -104.38l-754.775 112.432c-0.52441,0.0791339 -1.07362,0.0437008 -1.61457,-0.124016 -1.91811,-0.594095 -2.99292,-2.63504 -2.39764,-4.55433l3.47599 1.07835 -3.46654 -1.07953 52.33 -168.788c0.294095,-1.24488 1.23898,-2.29843 2.55827,-2.66811l0.98504 3.50315 -0.980316 -3.49016c52.2898,-14.7047 104.035,-27.5067 155.25,-38.4685 51.2138,-10.963 102.041,-20.1213 152.491,-27.5398 50.1733,-7.37835 99.8847,-13.0169 149.147,-16.989 49.1906,-3.96614 98.0765,-6.28111 146.666,-7.01457 1.28386,-0.125197 2.59488,0.435827 3.36851,1.57795l-0.00708662 0.00472441 99.293 146.268c0.379134,0.48189 0.643701,1.06654 0.739371,1.71614 0.296457,1.9878 -1.0748,3.83977 -3.06378,4.13622z"/>
   <path id="_613211104" class="fil10" d="M566.81 1021.79l401.04 -59.7402c3.96024,-0.589371 7.77757,2.81103 8.48386,7.55788l-13.9453 107.432c0.607087,4.07835 -1.67835,7.82717 -5.07993,8.33386l-344.471 51.313c-3.40158,0.506693 -6.68032,-2.41299 -7.28741,-6.49134l-44.6528 -98.7036c-0.707481,-4.74685 1.95354,-9.11221 5.9126,-9.70158z"/>
   <path id="_613211008" class="fil10" d="M295.912 1155.06l92.2335 -13.7398c6.313,-0.940158 13.5106,4.7067 15.9957,12.548l8.53465 26.9327c2.48504,7.84016 -0.647245,15.026 -6.95906,15.9662l-92.2335 13.7398c-6.31182,0.940158 -13.5106,-4.70552 -15.9957,-12.548l-8.53465 -26.9327c-2.48504,-7.84134 0.646063,-15.026 6.95906,-15.9662z"/>
   <circle id="_613210984" class="fil11" transform="matrix(0.779022 -0.116044 0.116044 0.779022 328.016 1177.44)" r="27.3437"/>
   <circle id="_613211032" class="fil11" transform="matrix(0.552729 -0.082335 0.082335 0.552729 371.642 1177.27)" r="27.3437"/>
   <path id="_613211536" class="fil10" d="M1265.83 1010.58l-92.2347 13.7386c-6.31182,0.941339 -11.5512,8.44016 -11.6433,16.6654l-0.315355 28.2508c-0.090945,8.22402 4.99843,14.1851 11.3102,13.2449l92.2347 -13.7398c6.31182,-0.940158 11.5524,-8.4378 11.6433,-16.6642l0.315355 -28.2508c0.090945,-8.2252 -4.99843,-14.1851 -11.3102,-13.2449z"/>
   <circle id="_613211368" class="fil11" transform="matrix(-0.779022 0.116044 0.116044 0.779022 1241.64 1041.34)" r="27.3437"/>
   <circle id="_613210480" class="fil11" transform="matrix(-0.552729 0.082335 0.082335 0.552729 1199.86 1053.89)" r="27.3437"/>
   <path id="_613210384" class="fil12" d="M602.099 1033.68c-3.81733,0.568111 -6.47008,3.99095 -5.9256,7.64292 0.544489,3.65315 4.07953,6.15355 7.89568,5.58544l335.459 -49.9701c3.81733,-0.569292 6.47008,-3.99095 5.9256,-7.6441 -0.543308,-3.65315 -4.07953,-6.15355 -7.89568,-5.58544l-335.459 49.9713z"/>
   <path id="_613210216" class="fil12" d="M611.22 1056.97c-3.81733,0.568111 -6.47008,3.99095 -5.9256,7.6441 0.543308,3.65197 4.07953,6.15237 7.89568,5.58426l324.403 -48.3237c3.81614,-0.568111 6.47008,-3.99095 5.9256,-7.64292 -0.544489,-3.65315 -4.07953,-6.15355 -7.89686,-5.58544l-324.402 48.3237z"/>
   <path id="_613210288" class="fil12" d="M620.34 1080.26c-3.81614,0.569292 -6.4689,3.99095 -5.9256,7.6441 0.544489,3.65315 4.07953,6.15355 7.89686,5.58426l313.344 -46.676c3.81733,-0.568111 6.47008,-3.99095 5.92678,-7.64292 -0.544489,-3.65315 -4.07953,-6.15355 -7.89686,-5.58544l-313.346 46.676z"/>
   <path id="_613210840" class="fil12" d="M634.989 1102.72c-3.81733,0.568111 -6.47008,3.99095 -5.9256,7.6441 0.543308,3.65197 4.07953,6.15237 7.89568,5.58426l291.232 -43.3819c3.81614,-0.568111 6.47008,-3.99095 5.9256,-7.6441 -0.544489,-3.65197 -4.07953,-6.15355 -7.89686,-5.58426l-291.231 43.3819z"/>
   <polygon id="_613210264" class="fil13" points="1039.98,779.895 444.724,868.564 757.113,923.327 "/>
  </g>
  <path class="fil14" d="M1081.61 1275.63l63.952 0c11.0008,0 19.9996,8.99883 19.9996,19.9996l0 45.626 -103.951 0 0 -45.626c0,-11.0008 8.99883,-19.9996 19.9996,-19.9996z"/>
  <rect class="fil14" x="1041.33" y="1324.53" width="144.503" height="18.6709"/>
  <g id="_613208872">
   <path id="_613209400" class="fil15" d="M1530.05 1155.87c-8.46851,3.23268 -15.2374,7.0193 -19.7847,11.1591 -4.04174,3.67914 -6.2504,7.58268 -6.20315,11.5347 0.0472441,3.95315 2.34921,7.80237 6.47717,11.3847 4.64528,4.02874 11.5028,7.65237 20.0457,10.6819 8.6882,3.0815 19.0772,5.52638 30.6307,7.14686 11.1567,1.56496 23.3918,2.3563 36.2221,2.20276 12.8303,-0.153543 25.0418,-1.23662 36.1583,-3.06851 11.511,-1.89567 21.8386,-4.58977 30.45,-7.87678 8.46851,-3.23268 15.2374,-7.0193 19.7847,-11.1591 4.04174,-3.68032 6.2504,-7.58268 6.20315,-11.5358 -0.0472441,-3.95315 -2.34803,-7.80119 -6.47717,-11.3835 -4.6441,-4.02992 -11.5016,-7.65355 -20.0457,-10.6831 -8.68701,-3.08032 -19.0772,-5.52638 -30.6296,-7.14686 -11.1579,-1.56496 -23.3918,-2.3563 -36.2221,-2.20276 -12.8303,0.153543 -25.0418,1.2378 -36.1583,3.06851 -11.5122,1.89567 -21.8398,4.58977 -30.4512,7.87796zm-23.4106 7.18111c5.04804,-4.59567 12.4016,-8.73898 21.4984,-12.2114 8.95276,-3.41811 19.637,-6.20906 31.4988,-8.16379 11.3858,-1.87441 23.8689,-2.98465 36.9579,-3.14055 13.0902,-0.157087 25.5969,0.65315 37.0229,2.25591 11.9055,1.67008 22.6536,4.20473 31.6855,7.40788 9.17717,3.25394 16.6276,7.22008 21.7843,11.6929 5.30788,4.6063 8.2689,9.79371 8.33623,15.3827 0.0661418,5.58898 -2.76969,10.8473 -7.96536,15.5776 -5.04922,4.59685 -12.4016,8.73898 -21.4984,12.2114 -8.95394,3.41811 -19.6382,6.20906 -31.5,8.16379 -11.3847,1.87559 -23.8677,2.98465 -36.9579,3.14173 -13.089,0.155906 -25.5957,-0.654331 -37.0217,-2.25709 -11.9055,-1.67008 -22.6536,-4.20473 -31.6855,-7.40788 -9.17717,-3.25394 -16.6276,-7.2189 -21.7843,-11.6929 -5.30788,-4.60512 -8.27009,-9.79371 -8.33623,-15.3827 -0.0673229,-5.58898 2.76969,-10.8473 7.96536,-15.5776zm122.508 22.8614c-0.433465,-0.141732 -0.84567,-0.296457 -1.23425,-0.464174 -0.467717,-0.20315 -0.908268,-0.431103 -1.31339,-0.683859 -0.472441,-0.294095 -0.875198,-0.605906 -1.20945,-0.930709 -0.398032,-0.38504 -0.720473,-0.801969 -0.972048,-1.24134 -1.55433,-2.71181 -0.464174,-5.23465 1.90394,-7.46457 1.68071,-1.5815 4.07953,-3.02599 6.37323,-4.20473 3.10276,-1.59331 6.81497,-3.09567 10.8898,-4.46221 4.23662,-1.41969 8.83347,-2.67992 13.5118,-3.73111 0.141732,-0.0318898 0.686221,-0.148819 1.62402,-0.349607l-0.00236221 -0.0106299 0.0543308 -0.0106299c0.210236,-0.0437008 0.724016,-0.148819 1.59803,-0.325985l7.10197 -1.43622 -0.0011811 -0.00590552c0.944883,-0.191339 1.87559,0.138189 2.49213,0.790158l2.80512 2.58544c0.750001,0.689764 1.43386,1.39134 2.04921,2.10118 0.628347,0.722835 1.19173,1.45866 1.68662,2.2063 0.862205,1.30394 1.51536,2.6315 1.95709,3.97205 0.459449,1.39606 0.696851,2.80748 0.713386,4.22363 0.0011811,0.0590552 -0.00354331,0.248032 -0.0129921,0.576378 -0.0106299,0.32126 -0.0188977,0.520867 -0.0236221,0.597638l-0.0980316 1.32047 -2.68701 -0.199606 2.68701 0.199606c-0.0921261,1.24488 -1.01811,2.22874 -2.18977,2.44843l-2.69528 0.739371 0.0011811 0.00236221 -0.00472441 0.0011811 0.0011811 0.00590552c-0.0555119,0.0153543 -0.111024,0.0283465 -0.166536,0.0401575l-0.739371 0.204331c-0.161811,0.0425197 -0.153543,0.0377953 -0.917717,0.236221 -0.820867,0.21378 -1.63347,0.418111 -2.43425,0.612993 -0.861024,0.209055 -1.69252,0.405118 -2.4874,0.583465 -3.0567,0.686221 -6.28583,1.31929 -9.60355,1.84606 -3.01654,0.478347 -6.12166,0.874016 -9.25631,1.14803 -4.7504,0.416929 -7.64882,0.544489 -10.3063,0.407481 -2.66339,-0.137008 -4.95355,-0.536221 -8.53583,-1.17402l0.462992 -2.64685 -0.472441 2.65276c-0.19252,-0.034252 -0.375591,-0.0885827 -0.549213,-0.159449zm0.896457 -5.39528c0.230315,0.100394 0.485433,0.194882 0.760631,0.284646 3.27638,0.583465 5.39528,0.947245 7.70906,1.06772 2.35984,0.121654 5.05748,-0.00354331 9.57048,-0.399213 3.00236,-0.262205 5.98111,-0.641339 8.87717,-1.10197 3.22914,-0.512599 6.34252,-1.12205 9.26812,-1.77874 0.853938,-0.191339 1.65236,-0.377953 2.40355,-0.561024 0.810237,-0.197244 1.59331,-0.394488 2.3504,-0.591733 0.162992,-0.0425197 0.11811,-0.0330709 0.875198,-0.236221l0.719292 -0.190158c0.0496063,-0.0165354 0.100394,-0.0318898 0.151181,-0.046063l0.712205 2.59843 -0.703938 -2.59134 1.05118 -0.28937 -0.0011811 -0.147638c-0.0106299,-0.871654 -0.158268,-1.74213 -0.442914,-2.60551 -0.297638,-0.904725 -0.740552,-1.80591 -1.3311,-2.69646 -0.36378,-0.549213 -0.783071,-1.09724 -1.25787,-1.64291 -0.486615,-0.562205 -1.02992,-1.11732 -1.62284,-1.66417l-1.93937 -1.78819 -5.76969 1.16811c-0.127559,0.0248032 -0.666142,0.13937 -1.53898,0.324803l-0.0401575 0.00944883 0 0 -0.00472441 0 -0.00236221 -0.00944883c-0.133465,0.0283465 -0.651969,0.144095 -1.56142,0.348425 -4.54725,1.02165 -8.96694,2.2311 -12.9862,3.57756 -3.77481,1.26614 -7.22953,2.66457 -10.1362,4.15866 -1.93465,0.993308 -3.90355,2.1626 -5.14134,3.32717 -0.550394,0.518504 -0.933072,0.881103 -0.930709,0.884646l0.0519685 0.0519685c0.0767717,0.0755906 0.175984,0.151181 0.295276,0.225591 0.166536,0.102756 0.373229,0.209055 0.615355,0.312992zm-49.9441 5.42599c0.552756,-0.100394 1.08898,-0.183071 1.60394,-0.245669 0.611811,-0.0744095 1.25906,-0.132284 1.93701,-0.173622 1.12087,-0.0673229 2.24528,-0.0897638 3.36496,-0.0720473 -1.05118,-0.244488 -2.03622,-0.529134 -2.9374,-0.849213 -1.90748,-0.675591 -3.4878,-1.52835 -4.62284,-2.51339 -1.43622,-1.24488 -2.23819,-2.72599 -2.25827,-4.39961 -0.0200788,-1.67362 0.746457,-3.17362 2.15315,-4.45394 1.11024,-1.01102 2.67047,-1.9004 4.56024,-2.62205 1.74685,-0.666142 3.81024,-1.20827 6.0815,-1.58268 2.15315,-0.354331 4.50473,-0.563386 6.95906,-0.592914l0.496063 -0.00354331c-3.22559,-0.597638 -6.21378,-1.38071 -8.72245,-2.13662 -4.02874,-1.21299 -7.72796,-2.63977 -11.0055,-4.18583 -3.46536,-1.63583 -6.51497,-3.44055 -9.0319,-5.30197l-0.00472441 0.00708662 -0.00472441 -0.00354331 -0.00236221 0.00236221c-0.0401575,-0.0295276 -0.080315,-0.0602363 -0.11811,-0.0921261 -0.22441,-0.167717 -0.462992,-0.348425 -0.71693,-0.546851 -0.274016,-0.212599 -0.546851,-0.431103 -0.816142,-0.655512l-3.23504 -2.67992 1.7126 -2.07402 -1.71969 2.0752c-1.14567,-0.949607 -1.30512,-2.64803 -0.355512,-3.7937 0.486615,-0.587008 1.16929,-0.915355 1.87441,-0.967324l7.54253 -0.951969c1.10079,-0.13937 2.42717,-0.291733 3.97205,-0.454725 1.53189,-0.161811 2.86772,-0.291733 4.01103,-0.389764 2.5063,-0.214961 5.13071,-0.388583 7.85788,-0.519685 2.82166,-0.135827 5.48859,-0.219685 7.99253,-0.249213 0.99567,-0.011811 2.37284,-0.011811 4.11851,-0.0011811 1.42323,0.00944883 2.79331,0.0318898 4.1067,0.0649607l3.59292 0.090945 -0.0625985 2.68465 0.068504 -2.69292c0.546851,0.0129921 1.05,0.188977 1.46811,0.479528l1.7126 1.01811c0.140551,0.0838583 0.334252,0.200788 0.574016,0.348425l0.00236221 -0.00354331 0.0106299 0.00708662 0.00236221 -0.00472441c0.0437008,0.0271654 0.0874016,0.0555119 0.129921,0.0850394l0.433465 0.269292c0.45,0.281103 0.938977,0.598819 1.46929,0.955513 0.437008,0.294095 0.903544,0.623623 1.40433,0.994489 1.67835,1.24016 3.19725,2.56063 4.41142,3.92717 1.18583,1.33583 2.11181,2.74725 2.66103,4.21772 0.415748,1.11378 0.637796,2.30315 0.51378,3.52205 -0.131102,1.30748 -0.636615,2.59725 -1.67244,3.79607 -0.757087,0.875198 -1.81181,1.68307 -3.21024,2.34331 -1.15158,0.544489 -2.52992,0.99567 -4.15748,1.3063 -0.539764,0.102756 -1.15866,0.197244 -1.84961,0.281103 -0.61063,0.0744095 -1.25906,0.132284 -1.93583,0.173622 -1.12205,0.0673229 -2.24528,0.0897638 -3.36496,0.0720473 1.05118,0.245669 2.03504,0.530315 2.93622,0.849213 1.9063,0.676772 3.48662,1.52835 4.62166,2.51339 1.43622,1.24488 2.23937,2.72599 2.25945,4.39961 0.0200788,1.6748 -0.746457,3.17481 -2.15315,4.45394 -1.11142,1.01102 -2.67047,1.90158 -4.56142,2.62205 -1.74567,0.667323 -3.80906,1.20827 -6.0815,1.58268 -2.15197,0.354331 -4.50355,0.564567 -6.95788,0.594095l-0.486615 0.00236221c3.21024,0.595276 6.19843,1.37953 8.713,2.13662 4.02756,1.21299 7.72678,2.63977 11.0043,4.18583 3.4937,1.65 6.54449,3.45236 9.0378,5.29607l-1.59449 2.16614 1.60158 -2.16614c0.0708662,0.0519685 0.138189,0.10748 0.201969,0.165354 0.322441,0.238583 0.537402,0.400394 0.63189,0.473622 0.272835,0.212599 0.54567,0.431103 0.816142,0.655512l3.2374 2.6811 -1.7126 2.07284 1.71969 -2.0752c1.14567,0.948426 1.30512,2.64803 0.356693,3.7937 -0.486615,0.587008 -1.17165,0.915355 -1.87677,0.968505l-7.54253 0.951969c-1.10197,0.138189 -2.42717,0.290551 -3.97323,0.453544 -1.53189,0.162992 -2.86654,0.292914 -4.01103,0.389764 -2.50512,0.214961 -5.12953,0.388583 -7.8567,0.520867 -2.82166,0.135827 -5.48859,0.218504 -7.99253,0.248032 -0.996851,0.0129921 -2.37284,0.011811 -4.11851,0.0011811 -1.42323,-0.00944883 -2.79331,-0.0318898 -4.10788,-0.0649607l-3.59055 -0.090945 0.0625985 -2.68465 -0.068504 2.6941c-0.54567,-0.0141732 -1.05,-0.190158 -1.46693,-0.479528l-1.71496 -1.01929c-0.140551,-0.0826772 -0.329528,-0.197244 -0.572835,-0.346063l-0.0011811 0.00236221 -0.0106299 -0.00590552 -0.0011811 0.00472441c-0.0448819,-0.0283465 -0.0885827,-0.056693 -0.132284,-0.0862205l-0.437008 -0.271654c-0.45,-0.281103 -0.937796,-0.597638 -1.46811,-0.954331 -0.434646,-0.292914 -0.900001,-0.62126 -1.39843,-0.989765l-0.00590552 0.00590552 -0.00472441 -0.00354331 -0.00236221 0.00354331c-0.0413386,-0.0307087 -0.0814961,-0.0625985 -0.120473,-0.0944883 -1.61102,-1.20118 -3.0815,-2.49095 -4.28268,-3.84213 -1.18583,-1.33583 -2.11063,-2.74725 -2.66103,-4.21772 -0.416929,-1.11378 -0.637796,-2.30315 -0.514961,-3.52205 0.132284,-1.30748 0.636615,-2.59725 1.67244,-3.79607 0.757087,-0.876379 1.81299,-1.68425 3.21024,-2.34449 1.15276,-0.543308 2.5311,-0.99567 4.15866,-1.3063 0.0814961,-0.0153543 0.164173,-0.0271654 0.245669,-0.0354331zm2.23583 5.0941c-0.457087,0.0555119 -0.87756,0.116929 -1.25669,0.184252 -0.0696851,0.0200788 -0.140551,0.0366142 -0.21378,0.0496063l-0.505512 -2.64567 0.505512 2.64567c-1.21181,0.231496 -2.15906,0.530315 -2.87953,0.870473 -0.679134,0.32126 -1.14685,0.660237 -1.4374,0.996851 -0.240945,0.27874 -0.355512,0.551575 -0.381496,0.812599 -0.0354331,0.348425 0.0448819,0.735827 0.191339,1.12677 0.298819,0.799607 0.876379,1.65118 1.65118,2.52402 0.923623,1.03937 2.12008,2.07992 3.46772,3.08386 0.0401575,0.0271654 0.0814961,0.0543308 0.120473,0.0838583l-0.00708662 0.0106299c0.336614,0.249213 0.745276,0.53504 1.21181,0.848032 0.372048,0.250394 0.817323,0.537402 1.32047,0.851575 0.106299,0.0661418 0.23504,0.146457 0.392126,0.242126 0.046063,0.0248032 0.0921261,0.0507874 0.137008,0.0779528l-1.40551 2.29843 1.40433 -2.29016c0.115748,0.0708662 0.292914,0.177165 0.520867,0.312992l1.27913 0.759449 2.88071 0.0732284c1.38307,0.0354331 2.71772,0.0578741 4.00158,0.0661418 0.968505,0.00590552 2.31142,-0.0011811 4.03347,-0.0212599 2.77441,-0.0330709 5.38111,-0.108662 7.80355,-0.225591 2.4815,-0.119291 5.04095,-0.291733 7.66772,-0.517323 1.51063,-0.129921 2.81575,-0.252756 3.90591,-0.367323 1.07953,-0.114567 2.36221,-0.265748 3.84685,-0.453544l1.42205 -0.179528c-2.17205,-1.57795 -4.8437,-3.13937 -7.92402,-4.59449 -3.06614,-1.44685 -6.51024,-2.77559 -10.2425,-3.9 -2.6315,-0.79252 -5.83937,-1.61929 -9.31536,-2.19685 -3.42166,-0.569292 -7.06064,-0.88819 -10.5732,-0.675591 -0.529134,0.0318898 -1.07126,0.0814961 -1.62165,0.148819zm-20.9339 -7.05709c-3.10158,1.59449 -6.81378,3.09685 -10.8898,4.46221 -4.23544,1.41969 -8.83229,2.6811 -13.5118,3.73111 -0.140551,0.0318898 -0.687402,0.15 -1.62638,0.349607 -0.80315,0.172441 -1.34291,0.285827 -1.64764,0.347244l-7.10079 1.43622 0.0011811 0.00590552c-0.944883,0.191339 -1.87559,-0.138189 -2.49331,-0.790158l-2.80512 -2.58544c-0.748819,-0.689764 -1.43268,-1.39134 -2.04921,-2.1 -0.627166,-0.722835 -1.19055,-1.45984 -1.68543,-2.20748 -0.862205,-1.30276 -1.51536,-2.63032 -1.95709,-3.97205 -0.459449,-1.39606 -0.696851,-2.8063 -0.714567,-4.22363 0,-0.0590552 0.00472441,-0.246851 0.0141732,-0.576378 0.00944883,-0.32126 0.0177165,-0.520867 0.0236221,-0.597638l0.0980316 -1.31929 2.68701 0.199606 -2.68701 -0.199606c0.0921261,-1.24606 1.01693,-2.22992 2.18858,-2.44843l2.70473 -0.742914c1.1185,-0.305906 0.425197,-0.124016 0.900001,-0.251575 0.269292,-0.0708662 0.108662,-0.0248032 0.918898,-0.236221 0.820867,-0.21378 1.63347,-0.418111 2.43425,-0.612993 0.861024,-0.209055 1.69134,-0.405118 2.48622,-0.583465 3.05551,-0.686221 6.28465,-1.31929 9.60355,-1.84606 3.01536,-0.478347 6.12166,-0.874016 9.25631,-1.14803 2.00669,-0.175984 4.17874,-0.309449 6.45355,-0.360236 2.20748,-0.0496063 4.42323,-0.011811 6.54213,0.157087 1.84016,0.146457 3.58229,0.389764 5.06811,0.748819 1.48819,0.360236 2.81811,0.858662 3.88465,1.52244 0.472441,0.294095 0.875198,0.607087 1.20945,0.930709 0.398032,0.386221 0.720473,0.80315 0.970867,1.24134 1.55315,2.71299 0.464174,5.23583 -1.90394,7.46457 -1.67953,1.5815 -4.07835,3.02717 -6.37323,4.20473zm-12.5929 -0.633071c3.77481,-1.26496 7.22953,-2.66457 10.1362,-4.15866 1.93465,-0.993308 3.90237,-2.16142 5.14134,-3.32717 0.550394,-0.518504 0.93189,-0.881103 0.930709,-0.884646l-0.0519685 -0.0519685c-0.0767717,-0.0744095 -0.175984,-0.15 -0.296457,-0.225591 -0.523229,-0.324803 -1.32756,-0.607087 -2.31851,-0.846851 -1.27559,-0.308268 -2.72481,-0.512599 -4.22481,-0.63189 -1.93465,-0.154725 -3.97323,-0.190158 -6.01536,-0.144095 -1.9748,0.0448819 -4.05355,0.177165 -6.09567,0.356693 -3.00236,0.262205 -5.98111,0.64252 -8.87835,1.10197 -3.22796,0.512599 -6.34134,1.12205 -9.26694,1.77874 -0.852757,0.191339 -1.65354,0.379134 -2.40236,0.561024 -0.811418,0.197244 -1.59449,0.394488 -2.3504,0.591733 -0.210236,0.0543308 -0.011811,0.00472441 -0.876379,0.236221 -1.07008,0.285827 -0.350788,0.0850394 -0.878741,0.230315l-1.05236 0.288189 0.00236221 0.148819c0.0106299,0.870473 0.158268,1.73977 0.441733,2.60433 0.297638,0.904725 0.741733,1.80591 1.33228,2.69646 0.36378,0.549213 0.783071,1.09843 1.25669,1.6441 0.487796,0.561024 1.02992,1.11614 1.62284,1.66299l1.94055 1.78819 5.76969 -1.16693c0.778347,-0.158268 1.31811,-0.26811 1.58386,-0.324803 0.129921,-0.0283465 0.649607,-0.144095 1.56378,-0.349607 4.54607,-1.02047 8.96575,-2.22992 12.9862,-3.57756zm62.954 -19.4811c0.445276,-0.0531496 0.936615,-0.132284 1.47047,-0.233858 1.21063,-0.231496 2.15906,-0.530315 2.87835,-0.870473 0.680315,-0.32126 1.14685,-0.660237 1.4374,-0.99567 0.240945,-0.27874 0.356693,-0.552756 0.382677,-0.812599 0.0354331,-0.349607 -0.046063,-0.735827 -0.191339,-1.12677 -0.298819,-0.799607 -0.87756,-1.65236 -1.65118,-2.52402 -0.968505,-1.09016 -2.20394,-2.16024 -3.58111,-3.17835 -0.336614,-0.250394 -0.746457,-0.536221 -1.21299,-0.850394 -0.370866,-0.249213 -0.816142,-0.536221 -1.32165,-0.850394l-0.388583 -0.240945c-0.046063,-0.0248032 -0.0921261,-0.0507874 -0.137008,-0.0779528l1.40669 -2.29843 -1.40433 2.29134c-0.120473,-0.0744095 -0.292914,-0.178347 -0.523229,-0.314173l-1.27913 -0.760631 -2.88071 -0.0732284c-1.38307,-0.0354331 -2.71772,-0.0578741 -4.00158,-0.0661418 -0.969686,-0.00590552 -2.3126,0.0011811 -4.03347,0.0212599 -2.77441,0.0330709 -5.38111,0.108662 -7.80473,0.225591 -2.48032,0.119291 -5.03977,0.291733 -7.66772,0.517323 -1.50945,0.129921 -2.81575,0.252756 -3.90473,0.368504 -1.07953,0.113386 -2.36221,0.264567 -3.84803,0.452363l-1.43386 0.180709c2.15079,1.56496 4.82481,3.1252 7.93583,4.59331 3.06614,1.44685 6.51142,2.77677 10.2437,3.9 2.61496,0.787796 5.79095,1.60866 9.21261,2.18268l0.102756 0.0141732 -0.441733 2.65866 0.441733 -2.65748c3.42166,0.568111 7.06182,0.88819 10.5744,0.67441 0.529134,-0.0318898 1.07126,-0.0814961 1.62047,-0.148819zm-41.4957 -9.21615l1.44685 -1.95473 -0.0011811 0 -1.44567 1.95473zm12.6992 22.5638c-0.251575,0.229134 -0.390945,0.373229 -0.389764,0.411024 0,0.0377953 0.142913,0.179528 0.399213,0.401575 0.623623,0.540945 1.61102,1.05118 2.88425,1.50236 1.41732,0.501969 3.13347,0.904725 5.06221,1.1752 1.89095,0.265748 3.97441,0.399213 6.17008,0.373229 2.19567,-0.0259843 4.27559,-0.210236 6.15945,-0.520867 1.92166,-0.316536 3.62835,-0.759449 5.03268,-1.29567 1.2626,-0.48189 2.23819,-1.01575 2.84764,-1.57087 0.251575,-0.227953 0.389764,-0.373229 0.389764,-0.411024 0,-0.0377953 -0.142913,-0.179528 -0.399213,-0.401575 -0.623623,-0.539764 -1.61102,-1.05118 -2.88425,-1.50236 -1.41732,-0.501969 -3.13465,-0.904725 -5.06221,-1.1752 -1.89095,-0.264567 -3.97559,-0.399213 -6.17008,-0.373229 -2.19567,0.0259843 -4.27559,0.210236 -6.15945,0.520867 -1.92166,0.316536 -3.62835,0.759449 -5.03268,1.29567 -1.2626,0.48189 -2.23819,1.01575 -2.84764,1.57087z"/>
   <path id="_613209664" class="fil16" d="M1412.15 1290.43c-2.19095,-36.6307 -5.56772,-69.9485 -1.73032,-106.064 8.74961,74.7756 131.876,94.0654 190.159,92.4816 68.7993,-1.86969 190.275,-36.5882 184.301,-101.039l3.50315 85.0619 -2.51221 28.8898c-14.6291,42.5197 -98.7957,73.4634 -162.97,76.7103 -133.833,6.77245 -191.075,-37.4433 -210.75,-76.0406z"/>
   <path id="_613210072" class="fil17" d="M1410.42 1184.37c-0.330709,-27.6603 21.2327,-52.4138 56.3634,-70.0737 33.254,-16.7162 79.1564,-27.3591 129.825,-27.9662 50.667,-0.605906 96.8115,8.93623 130.455,24.8528 35.5429,16.8154 57.6934,41.0457 58.0241,68.706 0.330709,27.6591 -21.2339,52.4126 -56.3634,70.0725 -33.254,16.7173 -79.1564,27.3603 -129.825,27.9662 -50.6681,0.605906 -96.8115,-8.93623 -130.456,-24.8528 -35.5418,-16.8142 -57.6922,-41.0445 -58.0229,-68.7048zm89.3032 -5.42835c-0.138189,-11.5347 11.7272,-21.6118 31.0217,-28.578 17.1414,-6.18898 40.663,-10.1728 66.5032,-10.4811 25.8402,-0.309449 49.4504,3.10984 66.7347,8.88662 19.4551,6.50315 31.5579,16.2945 31.6961,27.8292 0.138189,11.5347 -11.7272,21.6118 -31.0205,28.5792 -17.1414,6.18898 -40.6642,10.1717 -66.5044,10.4811 -25.839,0.308268 -49.4504,-3.11103 -66.7347,-8.8878 -19.4551,-6.50315 -31.5579,-16.2933 -31.6961,-27.8292z"/>
   <path id="_613209568" class="fil18" d="M1597.03 1122.1c23.6918,-0.283465 50.0197,2.26063 72.5847,9.80316 20.1579,6.73819 43.5532,20.3894 43.8414,44.4827 0.288189,24.0933 -22.774,38.2996 -42.7642,45.5185 -22.3784,8.07993 -48.6378,11.2524 -72.3308,11.5358 -23.6918,0.283465 -50.0197,-2.26063 -72.5847,-9.80316 -20.1579,-6.73819 -43.552,-20.3882 -43.8402,-44.4827 -0.288189,-24.0933 22.7729,-38.2996 42.763,-45.5174 22.3784,-8.07993 48.639,-11.2536 72.3308,-11.537zm-97.3123 56.8418c-0.138189,-11.5347 11.7272,-21.6118 31.0217,-28.578 17.1414,-6.18898 40.663,-10.1728 66.5032,-10.4811 25.8402,-0.309449 49.4504,3.10984 66.7347,8.88662 19.4551,6.50315 31.5579,16.2945 31.6961,27.8292 0.138189,11.5347 -11.7272,21.6118 -31.0205,28.5792 -17.1414,6.18898 -40.6642,10.1717 -66.5044,10.4811 -25.839,0.308268 -49.4504,-3.11103 -66.7347,-8.8878 -19.4551,-6.50315 -31.5579,-16.2933 -31.6961,-27.8292z"/>
   <path id="_613208896" class="fil19" d="M1408.63 1212.09c-0.090945,5.68229 -0.0720473,11.6303 0.0377953,17.6988 0.379134,20.8689 1.85788,43.1315 3.74292,60.6851 0.461811,4.29922 1.92166,8.71182 4.3004,13.148l8.61024 -19.7032c0.825591,-2.5252 2.51221,-3.74528 3.76536,-2.72481 1.25433,1.02047 1.60039,3.89528 0.774804,6.42048l-5.20748 25.7492c-0.119291,0.36378 -0.246851,0.713386 -0.383859,1.05 3.63425,4.2 8.04568,8.35631 13.1681,12.391l9.47009 -21.6697c0.825591,-2.52638 2.51221,-3.74646 3.76536,-2.72599 1.25433,1.02047 1.60039,3.89528 0.774804,6.42048l-4.95237 24.4866c4.88386,3.21851 10.2343,6.32363 16.0122,9.27166l9.56812 -21.8941c0.825591,-2.5252 2.51221,-3.74646 3.76536,-2.72599 1.25433,1.02047 1.60158,3.89528 0.775985,6.42048l-4.59804 22.7339c1.82362,0.811418 3.6815,1.60866 5.57363,2.38819 4.65827,1.91811 9.53505,3.74646 14.6126,5.46969 0.106299,-0.435827 0.227953,-0.869292 0.368504,-1.29803l9.66733 -22.1209c0.825591,-2.52638 2.51221,-3.74646 3.76536,-2.72599 1.25433,1.02047 1.60039,3.89528 0.774804,6.42048l-4.62874 22.8851c5.13189,1.52126 10.441,2.93504 15.9154,4.22481 0.13937,-0.712205 0.32126,-1.42087 0.549213,-2.11772l9.66615 -22.1209c0.826772,-2.52638 2.51221,-3.74646 3.76654,-2.72599 1.25433,1.02047 1.60039,3.89528 0.774804,6.42048l-4.60158 22.754c5.94922,1.18937 12.0709,2.22992 18.3484,3.1063l9.3189 -21.3236c0.825591,-2.52638 2.51221,-3.74646 3.76654,-2.72599 1.25315,1.02047 1.60039,3.89528 0.774804,6.42048l-3.81733 18.8752c5.4626,0.592914 11.0315,1.06063 16.6984,1.39134l5.54764 -23.55c0.367323,-2.65394 1.80709,-4.20827 3.21614,-3.47126 1.40788,0.737008 2.25355,3.48662 1.8874,6.14056l-0.474804 21.3225c4.63465,0.133465 9.32717,0.174803 14.0752,0.11811l0.227953 -0.00354331c0.0177165,-0.158268 0.0366142,-0.316536 0.0590552,-0.473622l5.59725 -23.7579c0.366142,-2.65394 1.80591,-4.20827 3.21496,-3.47126 1.40906,0.737008 2.25473,3.48544 1.8874,6.13937l-0.473622 21.287c5.44607,-0.223229 10.8284,-0.56693 16.1362,-1.02284l5.47678 -23.2465c0.366142,-2.65394 1.80591,-4.20827 3.21496,-3.47126 1.40906,0.737008 2.25473,3.48662 1.8874,6.13937l-0.434646 19.5626c4.0063,-0.458268 7.963,-0.982678 11.8713,-1.56378 0.0283465,-0.415748 0.0696851,-0.830316 0.127559,-1.24488l5.59725 -23.7579c0.366142,-2.65394 1.80591,-4.20827 3.21496,-3.47126 1.40906,0.737008 2.25473,3.48544 1.8874,6.13937l-0.458268 20.6315c5.16851,-0.928347 10.2354,-1.96181 15.1902,-3.08859 -0.209055,-1.56378 -0.218504,-3.23977 0.0106299,-4.89804l5.59725 -23.7579c0.367323,-2.65394 1.80709,-4.20827 3.21496,-3.47126 1.40906,0.737008 2.25473,3.48662 1.88858,6.14056l-0.523229 23.5004c6.8504,-1.79055 13.4563,-3.75945 19.7823,-5.88071 -0.0838583,-1.2248 -0.0484252,-2.49685 0.126378,-3.75945l5.59725 -23.7579c0.366142,-2.65276 1.80591,-4.20709 3.21496,-3.47008 1.40906,0.737008 2.25355,3.48544 1.8874,6.13937l-0.470079 21.1512c3.19961,-1.21417 6.31654,-2.46732 9.34371,-3.75591 1.24961,-0.531496 2.48386,-1.07008 3.70394,-1.61457 -0.257481,-1.66536 -0.288189,-3.47244 -0.0413386,-5.25945l5.59725 -23.7579c0.367323,-2.65276 1.80709,-4.20709 3.21614,-3.47008 1.40906,0.737008 2.25355,3.48544 1.8874,6.13937l-0.478347 21.4843c2.95866,-1.51181 5.80867,-3.06378 8.54883,-4.64764 -0.170079,-1.47638 -0.164173,-3.04252 0.0496063,-4.59331l5.59725 -23.7579c0.366142,-2.65276 1.80591,-4.20709 3.21496,-3.47126 1.40906,0.73819 2.25473,3.48662 1.8874,6.14056l-0.426378 19.1988c3.32835,-2.27599 6.43465,-4.6004 9.30237,-6.96378 -0.209055,-1.56851 -0.219685,-3.2504 0.00944883,-4.91339l5.59725 -23.7579c0.367323,-2.65394 1.80709,-4.20827 3.21614,-3.47126 1.40788,0.737008 2.25355,3.48662 1.8874,6.13937l-0.361418 16.1894c7.72796,-8.58308 12.2882,-17.4118 13.076,-25.9358 2.49331,-26.961 1.50827,-44.98 -0.284646,-76.7032 -2.54882,5.01733 -5.70119,9.74292 -9.30237,14.1768 0.571654,1.18228 1.01811,2.64567 1.27559,4.32402l1.2378 28.024c0.432284,2.81103 -0.344882,5.75434 -1.73504,6.57284 -1.39016,0.817323 -2.86772,-0.798426 -3.3,-3.60945l-6.18189 -25.1162c-0.0366142,-0.238583 -0.0696851,-0.477166 -0.0968505,-0.715749 -2.71772,2.5878 -5.57835,5.05276 -8.54056,7.39371 0.718111,1.26732 1.27795,2.93622 1.57914,4.9004l1.2378 28.024c0.432284,2.81103 -0.344882,5.75434 -1.73504,6.57284 -1.39016,0.817323 -2.86772,-0.798426 -3.3,-3.60945l-6.18189 -25.115c-0.232677,-1.51063 -0.288189,-3.04016 -0.191339,-4.5 -3.98622,2.6941 -8.0752,5.1815 -12.1807,7.46575 0.116929,0.486615 0.218504,0.998032 0.3,1.53071l1.2378 28.024c0.432284,2.81103 -0.344882,5.75434 -1.73504,6.57284 -1.39016,0.817323 -2.8689,-0.798426 -3.3,-3.60945l-6.18189 -25.115c-0.116929,-0.762993 -0.188977,-1.52953 -0.219685,-2.29016 -4.0004,1.92284 -8.0882,3.73347 -12.2516,5.43308l1.18583 26.8571c0.432284,2.81103 -0.344882,5.75434 -1.73504,6.57284 -1.39134,0.817323 -2.8689,-0.798426 -3.3,-3.60945l-6.18189 -25.115c-0.0437008,-0.27874 -0.0791339,-0.5563 -0.111024,-0.83504 -5.43189,1.93819 -10.9665,3.70276 -16.5744,5.30079 0.0637796,0.309449 0.120473,0.625985 0.17126,0.951969l1.2378 28.024c0.431103,2.81103 -0.346063,5.75434 -1.73622,6.57284 -1.39016,0.817323 -2.86772,-0.798426 -3.3,-3.60945l-6.18189 -25.115c-0.21378,-1.3937 -0.277559,-2.80276 -0.211417,-4.15866 -5.41418,1.33819 -10.8791,2.5311 -16.3713,3.58583 0.0389764,0.206693 0.0755906,0.416929 0.10748,0.630709l1.2378 28.024c0.432284,2.81103 -0.344882,5.75434 -1.73504,6.57284 -1.39016,0.817323 -2.86772,-0.798426 -3.3,-3.61063l-6.18189 -25.115c-0.244488,-1.58977 -0.292914,-3.20079 -0.174803,-4.73032 -5.84764,0.941339 -11.7083,1.73268 -17.5512,2.37992l5.57245 25.8673c0.890552,2.66339 0.617717,5.72717 -0.609449,6.84449 -1.22717,1.11732 -2.94449,-0.135827 -3.83504,-2.79803l-10.2319 -23.263c-0.62126,-1.85788 -0.955513,-3.81496 -1.02402,-5.66693 -5.79095,0.48189 -11.5488,0.827953 -17.2441,1.0441l7.45394 24.4075c1.10551,2.55118 1.08543,5.63386 -0.0437008,6.88347 -1.12913,1.24961 -2.93977,0.193701 -4.04528,-2.35748l-12.0957 -22.0181c-0.93189,-2.14961 -1.45984,-4.49055 -1.5874,-6.66142 -5.63386,0.0625985 -11.3492,0.00236221 -17.1189,-0.190158l7.23426 23.6918c1.10551,2.55236 1.08543,5.63504 -0.0437008,6.88465 -1.12913,1.24961 -2.93977,0.193701 -4.04528,-2.35866l-12.0957 -22.0169c-0.936615,-2.1626 -1.46575,-4.51772 -1.58977,-6.69804 -5.89016,-0.360236 -11.8158,-0.862205 -17.7484,-1.51299l7.43741 24.3543c1.10433,2.55118 1.08543,5.63386 -0.0437008,6.88347 -1.12913,1.24961 -2.94095,0.193701 -4.04646,-2.35748l-12.0957 -22.0181c-1.14921,-2.65276 -1.68425,-5.59607 -1.61102,-8.15197 -7.16103,-1.00039 -14.3055,-2.22638 -21.3803,-3.69685l7.10552 23.2677c1.10433,2.55236 1.08543,5.63504 -0.0437008,6.88465 -1.12913,1.24961 -2.94095,0.193701 -4.04646,-2.35866l-12.0957 -22.0169c-1.1563,-2.67047 -1.69134,-5.63268 -1.60984,-8.19922 -4.91693,-1.20945 -9.78544,-2.5441 -14.589,-4.00748l4.59449 23.6091c0.837402,2.68583 0.50315,5.74252 -0.745276,6.82678 -1.24961,1.08307 -2.94095,-0.214961 -3.77953,-2.90079l-9.76891 -23.5288c-0.777166,-2.49095 -1.04528,-5.14134 -0.857481,-7.47756 -4.42205,-1.5626 -8.77087,-3.24331 -13.0347,-5.04922l1.35591 23.2323c0.47126,2.80276 -0.264567,5.76024 -1.64291,6.60473 -1.37835,0.84567 -2.87835,-0.742914 -3.35079,-3.54567l-6.53504 -24.9945c-0.341339,-2.02795 -0.36378,-4.09607 -0.121654,-5.98701 -4.73741,-2.32441 -9.49725,-4.91693 -14.1543,-7.77757l1.37953 23.641c0.47126,2.80276 -0.263386,5.76024 -1.64173,6.60473 -1.37953,0.84567 -2.87953,-0.741733 -3.35079,-3.54567l-6.53623 -24.9945c-0.485433,-2.88898 -0.324803,-5.86182 0.325985,-8.28426 -4.10551,-3.00236 -8.04331,-6.23386 -11.7165,-9.69568l1.04173 17.8618c0.472441,2.80276 -0.263386,5.76024 -1.64173,6.60473 -1.37835,0.84567 -2.87835,-0.741733 -3.35079,-3.54567l-6.53504 -24.9945c-0.425197,-2.52638 -0.355512,-5.11536 0.103937,-7.34646 -2.93977,-3.83386 -5.53111,-7.88623 -7.67835,-12.1606z"/>
   <path id="_613208704" class="fil20" d="M1597.36 1149.84c-12.1843,0.145276 -23.8276,1.14095 -34.4622,2.81575 -10.8732,1.71378 -20.6421,4.13504 -28.7988,7.07953 -8.54528,3.08504 -15.2894,6.75709 -19.7008,10.8213 -3.07087,2.82756 -4.7504,5.63741 -4.71969,8.26536 0.0307087,2.63977 1.77284,5.40709 4.89685,8.15079 4.48229,3.93544 11.3315,7.44449 20.0032,10.3429 8.2193,2.74725 18.0343,4.93229 28.9288,6.38268 10.6961,1.42441 22.363,2.14134 34.5248,1.99725 12.1854,-0.146457 23.8299,-1.14095 34.4658,-2.81693 10.8721,-1.7126 20.641,-4.13386 28.7965,-7.07835 8.5441,-3.08504 15.2894,-6.75827 19.7008,-10.8224 3.07087,-2.82874 4.74922,-5.63741 4.71851,-8.26536 -0.0307087,-2.63858 -1.77165,-5.40709 -4.89685,-8.14961 -4.48347,-3.93662 -11.3315,-7.44568 -20.0032,-10.3441 -8.2193,-2.74725 -18.0343,-4.93229 -28.9288,-6.38268 -10.6949,-1.42441 -22.3618,-2.14134 -34.5248,-1.99606zm-37.5095 -16.8709c11.5205,-1.81536 24.1146,-2.8937 37.2756,-3.04961 13.1847,-0.158268 25.7988,0.615355 37.3359,2.15197 12.1996,1.62402 23.2902,4.10433 32.6799,7.24253 11.1484,3.72638 20.3138,8.55355 26.7992,14.2488 7.43623,6.52796 11.5902,14.2429 11.6929,22.9158 0.102756,8.68347 -3.85748,16.4953 -11.1224,23.1874 -6.32245,5.82402 -15.3851,10.8697 -26.4992,14.8831 -9.30827,3.36142 -20.3244,6.10394 -32.4673,8.01615 -11.5217,1.81654 -24.1169,2.8937 -37.2792,3.05079 -13.1835,0.157087 -25.7988,-0.616536 -37.3359,-2.15315 -12.1996,-1.62402 -23.289,-4.10433 -32.6799,-7.24253 -11.1484,-3.72638 -20.3138,-8.55473 -26.7992,-14.2476 -7.43505,-6.52914 -11.5902,-14.2417 -11.6929,-22.9169 -0.102756,-8.68465 3.85748,-16.4953 11.1236,-23.1874 6.32245,-5.82402 15.3862,-10.8697 26.4992,-14.8819 9.30946,-3.36142 20.3256,-6.10394 32.4697,-8.01733z"/>
   <path id="_613209112" class="fil21" d="M1529.09 1153.36c-17.2382,6.58111 -27.8421,15.515 -27.7264,25.2425 0.116929,9.72639 10.9311,18.404 28.3217,24.5705 17.3906,6.16654 41.3587,9.82324 67.78,9.5067 26.4213,-0.315355 50.2949,-4.5437 67.5331,-11.1248 17.2382,-6.58111 27.8421,-15.515 27.7252,-25.2414 -0.115748,-9.72639 -10.9299,-18.4051 -28.3205,-24.5717 -17.3906,-6.16654 -41.3587,-9.82324 -67.78,-9.5067 -26.4225,0.315355 -50.2961,4.54489 -67.5331,11.1248zm101.074 30.065c-0.842127,-0.261024 -1.57441,-0.572835 -2.15551,-0.935434 -0.607087,-0.376772 -1.01575,-0.79252 -1.26378,-1.22362 -1.55669,-2.71654 2.94449,-5.76851 7.1752,-7.94174 6.16418,-3.16654 14.7614,-5.94213 23.7614,-7.96418 1.05709,-0.237402 2.12717,-0.465355 3.21142,-0.68504l7.10788 -1.4374 2.94567 2.71418c1.34173,1.23662 2.44843,2.50866 3.30709,3.8067 1.45866,2.20276 2.19567,4.46811 2.22284,6.74882 0.00354331,0.314173 -0.00590552,0.628347 -0.0295276,0.94252l-0.0980316 1.31929 -2.9126 0.799607c-0.589371,0.161811 -1.18465,0.32126 -1.78465,0.477166 -1.57795,0.409843 -3.19016,0.804331 -4.8378,1.17402 -5.69292,1.27913 -12.0343,2.37166 -18.502,2.9374 -9.26457,0.812599 -11.1886,0.506693 -18.1477,-0.732284zm-49.8095 5.2063c1.08307,-0.207874 2.2441,-0.346063 3.43937,-0.419292 7.51536,-0.455906 15.3437,1.32992 20.8158,2.97756 7.96654,2.39882 14.6303,5.67756 19.2166,9.06969 0.53504,0.39567 1.05118,0.796064 1.54016,1.20118l3.23622 2.6811 -7.68071 0.969686c-2.58544,0.325985 -5.21221,0.603544 -7.86733,0.831497 -5.15315,0.441733 -10.402,0.693308 -15.6614,0.755906 -2.71418,0.0330709 -5.42835,0.0153543 -8.12953,-0.0543308l-3.59174 -0.090945 -1.87795 -1.11496c-0.373229,-0.223229 -0.740552,-0.446457 -1.10197,-0.672048 -0.954331,-0.596457 -1.86378,-1.20473 -2.70236,-1.8248 -2.90079,-2.14488 -5.25473,-4.52363 -6.15237,-6.92363 -0.562205,-1.50473 -0.603544,-3.15 0.67441,-4.62874 0.99567,-1.15158 2.84764,-2.18622 5.84292,-2.75788zm-20.1862 -7.04056c-6.16536,3.16654 -14.7614,5.94331 -23.7626,7.96418 -1.05591,0.237402 -2.12599,0.466536 -3.21024,0.68504l-7.10788 1.4374 -2.94567 -2.71418c-1.34173,-1.23662 -2.44843,-2.50866 -3.30827,-3.8067 -1.45748,-2.20276 -2.19449,-4.46811 -2.22166,-6.74882 -0.00354331,-0.314173 0.00590552,-0.628347 0.0283465,-0.941339l0.0980316 -1.32047 2.9126 -0.799607c0.590552,-0.161811 1.18583,-0.320079 1.78701,-0.477166 1.57795,-0.409843 3.18898,-0.80315 4.83662,-1.17402 5.69292,-1.27913 12.0354,-2.37166 18.5032,-2.9374 4.04882,-0.355512 8.49686,-0.531496 12.5528,-0.207874 3.16772,0.252756 6.06497,0.827953 7.74804,1.87559 0.607087,0.377953 1.01693,0.79252 1.26496,1.2248 1.55551,2.71654 -2.94567,5.76733 -7.1752,7.94056zm53.5654 -15.3059c-1.08307,0.206693 -2.2441,0.344882 -3.43819,0.418111 -7.51536,0.457087 -15.3449,-1.32874 -20.8169,-2.97756 -7.96654,-2.39882 -14.6303,-5.67756 -19.2166,-9.06969 -0.536221,-0.39567 -1.05236,-0.796064 -1.54134,-1.20118l-3.23386 -2.6811 7.67835 -0.968505c2.58544,-0.327166 5.21221,-0.604725 7.86851,-0.832678 5.15197,-0.441733 10.402,-0.693308 15.6602,-0.755906 2.71418,-0.0318898 5.42953,-0.0141732 8.13071,0.0543308l3.59292 0.090945 1.87677 1.11614c0.373229,0.222047 0.739371,0.446457 1.09961,0.670867 0.955513,0.596457 1.86496,1.20473 2.70473,1.8248 2.89961,2.14488 5.25473,4.52481 6.15119,6.92363 0.563386,1.50591 0.604725,3.15118 -0.67441,4.62874 -0.99567,1.15158 -2.84646,2.18622 -5.84174,2.75906zm-33.8575 11.3776c-0.0200788,-1.74449 1.88268,-3.34725 4.97599,-4.52835 3.09213,-1.1811 7.37599,-1.93937 12.1158,-1.99606 4.74095,-0.056693 9.04135,0.598819 12.1618,1.70551 3.11929,1.10669 5.06103,2.66339 5.08111,4.40906 0.0212599,1.74449 -1.8815,3.34725 -4.97481,4.52835 -3.09331,1.1811 -7.37599,1.93937 -12.1169,1.99606 -4.73977,0.056693 -9.04016,-0.598819 -12.1606,-1.70551 -3.12047,-1.10669 -5.06103,-2.66339 -5.08229,-4.40906z"/>
  </g>
 </g>
 <rect class="fil22" width="2048" height="2048"/>
</svg>
