<?xml version="1.0" encoding="UTF-8"?>
<!DOCTYPE svg PUBLIC "-//W3C//DTD SVG 1.1//EN" "http://www.w3.org/Graphics/SVG/1.1/DTD/svg11.dtd">
<!-- Creator: CorelDRAW -->
<svg xmlns="http://www.w3.org/2000/svg" xml:space="preserve" width="2048px" height="2048px" style="shape-rendering:geometricPrecision; text-rendering:geometricPrecision; image-rendering:optimizeQuality; fill-rule:evenodd; clip-rule:evenodd"
viewBox="0 0 2048 2048"
 xmlns:xlink="http://www.w3.org/1999/xlink">
 <defs>
  <style type="text/css">
   <![CDATA[
    .fil14 {fill:none}
    .fil7 {fill:#767676}
    .fil9 {fill:#949494}
    .fil8 {fill:#979797}
    .fil12 {fill:#9A9B9B}
    .fil5 {fill:#9B9B9C}
    .fil6 {fill:#A1A1A1}
    .fil10 {fill:#A2A2A2}
    .fil11 {fill:#A8A8A8}
    .fil2 {fill:#B9B9B9}
    .fil4 {fill:#707070;fill-rule:nonzero}
    .fil3 {fill:#767676;fill-rule:nonzero}
    .fil1 {fill:#A1A1A1;fill-rule:nonzero}
    .fil0 {fill:#CDCDCD;fill-rule:nonzero}
    .fil13 {fill:#E4E5E5;fill-rule:nonzero}
   ]]>
  </style>
 </defs>
 <g id="Layer_x0020_1">
  <metadata id="CorelCorpID_0Corel-Layer"/>
  <g id="_615085800">
   <path id="_615087312" class="fil0" d="M481.844 1090.2c-5.48504,21.1595 -17.0067,37.5567 -26.5914,51.1996 -11.015,15.6791 -20.0504,28.539 -20.0504,44.726 0,16.8024 4.89567,33.8918 17.3681,46.3642 10.3476,10.3476 25.2874,17.0303 46.0264,17.0303 20.739,0 35.6776,-6.6815 46.0252,-17.0291 12.4736,-12.4736 17.3681,-29.563 17.3681,-46.3654 0,-16.187 -9.03544,-29.0469 -20.0504,-44.726 -9.71457,-13.8272 -21.4169,-30.4831 -26.8099,-52.0571l0.0236221 -0.00708662c-2.28543,-9.1441 -11.5512,-14.7036 -20.6953,-12.4181 -6.63308,1.65827 -11.3787,6.98977 -12.6142,13.2827z"/>
   <path id="_615086760" class="fil0" d="M362.515 1250.75c-13.0772,51.1678 -40.3866,90.045 -63.0934,122.367 -23.8571,33.9544 -43.4209,61.8036 -43.4209,94.643 0,35.2264 10.0925,70.8863 35.8087,96.6048 21.2882,21.2882 52.3465,35.0339 95.83,35.0339 43.4823,0 74.5418,-13.7457 95.83,-35.0339 25.7162,-25.7185 35.8099,-61.3784 35.8099,-96.6048 0,-32.8394 -19.565,-60.6886 -43.4221,-94.643 -22.8933,-32.589 -50.4697,-71.8359 -63.417,-123.633l-24.8008 6.19961 24.8362 -6.20788c-3.42874,-13.7162 -17.328,-22.0559 -31.0441,-18.6272 -9.94253,2.48386 -17.0575,10.4717 -18.9165,19.9016z"/>
   <path id="_615086712" class="fil1" d="M490.19 967.49l-7.87323 -44.4685 -0.0862205 0.0141732c-1.94173,-10.9665 -3.67677,-19.989 9.90237,-22.8815l130.749 -34.5756 21.1252 113.153 -138.697 8.60552 0.0011811 0.0814961c-13.9394,0.864568 -14.3315,-8.9693 -15.1217,-19.9288z"/>
   <path id="_615086400" class="fil2" d="M1597.89 1196.19l-168.353 225.642c-11.1366,14.9268 -27.3792,23.9575 -44.5725,26.4803 -17.2488,2.53229 -38.1508,2.20276 -53.067,-8.92678l-537.663 -401.153 -42.5445 -272.863 95.9316 -128.959 69.293 51.6993 -29.3599 39.352c-6.52205,8.74016 -8.86536,19.4079 -7.38898,29.5488 1.46575,10.0736 6.74764,19.5898 15.4843,26.1083l58.5993 43.7209c8.7378,6.51969 19.3618,8.87127 29.4378,7.40906 10.141,-1.47284 19.6996,-6.75709 26.2205,-15.4984l29.361 -39.352 558.622 416.792z"/>
   <polygon id="_615086808" class="fil3" points="706.881,823.457 756.801,816.199 772.42,813.928 774.692,829.547 794.653,966.83 796.926,982.45 781.306,984.72 707.991,995.799 692.371,998.07 690.1,982.45 670.139,845.167 667.868,829.548 "/>
   <polygon id="_615086448" class="fil4" points="651.849,814.391 701.799,807.314 717.428,805.099 720.229,823.96 744.843,989.743 747.644,1008.61 732.016,1010.82 658.671,1021.72 643.042,1023.93 640.242,1005.07 615.628,839.286 612.827,820.425 "/>
   <path id="_615086688" class="fil5" d="M992.981 493.641l149.069 -40.6276 0.0496063 -0.0649607c15.4595,-4.9252 34.3878,-5.51693 52.4292,-2.49803 18.078,3.02362 38.576,6.43465 51.5575,16.1209l521.592 389.163c14.9162,11.1295 21.1335,30.7146 23.6197,47.9705 2.47677,17.2004 -1.55315,35.3422 -12.691,50.2689l-349.074 467.861c-11.1366,14.9268 -27.3792,23.9575 -44.5725,26.4803 -17.2488,2.53229 -38.1508,2.20276 -53.067,-8.92678l-537.663 -401.153 -42.5445 -272.863 158.008 -212.405c8.95512,-12.0036 22.7232,-24.6272 37.6843,-35.2949 14.8642,-10.5957 31.2626,-19.4587 45.6024,-24.0307zm194.863 86.6198l-177.94 238.492c-6.52087,8.74135 -16.0795,14.0256 -26.2205,15.4984 -10.076,1.46221 -20.7,-0.889371 -29.4378,-7.40906l-58.5993 -43.7209c-8.73662,-6.51851 -14.0185,-16.0347 -15.4843,-26.1083 -1.47638,-10.141 0.86693,-20.8087 7.38898,-29.5488l75.8528 -101.666c4.25079,-5.69764 10.6193,-11.7142 17.4555,-16.8201 6.77127,-5.05748 14.3764,-9.44883 21.1772,-11.9539l155.497 -57.3083c6.64252,-2.44725 12.6957,-3.1252 17.7756,-2.27953 6.44764,1.07126 11.589,4.17284 15.3059,9.15946l-0.0188977 0.0129921c3.7004,4.98426 5.21339,10.7953 4.40906,17.2606 -0.64252,5.18622 -2.98937,10.8 -7.16103,16.3914z"/>
   <path id="_615086256" class="fil6" d="M992.981 493.641l149.069 -40.6276 0.0496063 -0.0649607c15.4595,-4.9252 34.3878,-5.51693 52.4292,-2.49803 18.078,3.02362 38.576,6.43465 51.5575,16.1209l42.0957 31.4079 -435.581 583.805 -58.3701 -43.5496 -42.5445 -272.863 158.008 -212.405c8.95512,-12.0036 22.7232,-24.6272 37.6843,-35.2949 14.8642,-10.5957 31.2626,-19.4587 45.6024,-24.0307zm194.863 86.6198l-177.94 238.492c-6.52087,8.74135 -16.0795,14.0256 -26.2205,15.4984 -10.076,1.46221 -20.7,-0.889371 -29.4378,-7.40906l-58.5993 -43.7209c-8.73662,-6.51851 -14.0185,-16.0347 -15.4843,-26.1083 -1.47638,-10.141 0.86693,-20.8087 7.38898,-29.5488l75.8528 -101.666c4.25079,-5.69764 10.6193,-11.7142 17.4555,-16.8201 6.77127,-5.05748 14.3764,-9.44883 21.1772,-11.9539l155.497 -57.3083c6.64252,-2.44725 12.6957,-3.1252 17.7756,-2.27953 6.44764,1.07126 11.589,4.17284 15.3059,9.15946l-0.0188977 0.0129921c3.7004,4.98426 5.21339,10.7953 4.40906,17.2606 -0.64252,5.18622 -2.98937,10.8 -7.16103,16.3914z"/>
   <polygon id="_615086616" class="fil7" points="1165.9,1022.62 1036.43,1041.77 1031.37,1013.68 1160.84,994.527 "/>
   <polygon id="_615086112" class="fil7" points="1334.21,1148.19 1352.73,1277.76 1381.09,1274.61 1362.58,1145.04 "/>
   <polygon id="_615086568" class="fil8" points="1318.56,818.006 1300.05,688.437 1271.68,691.588 1290.2,821.157 "/>
   <polygon id="_615085680" class="fil8" points="1486.87,943.585 1616.35,924.433 1621.41,952.522 1491.93,971.674 "/>
   <path id="_615085368" class="fil7" d="M1177.78 1005.49l0.197244 1.35236c0.628347,4.32048 2.85473,8.14843 6.35906,10.7646l156.899 117.063c3.17008,2.36457 6.98623,3.47481 10.885,3.2126l1.26024 -0.184252c4.33583,-0.635434 8.20749,-2.84292 10.8378,-6.36851l117.067 -156.904c2.62677,-3.51969 3.70748,-7.83662 3.07559,-12.1807 -0.63189,-4.34528 -2.89843,-8.1756 -6.4193,-10.8024l-156.899 -117.064c-3.52205,-2.62795 -7.83898,-3.70985 -12.1854,-3.07796 -4.34528,0.63189 -8.17323,2.89725 -10.7988,6.41693l-117.067 156.905c-2.36103,3.16536 -3.47008,6.97441 -3.21142,10.8673zm326.797 -13.6866l-117.067 156.904c-7.46103,10.0004 -18.352,16.05 -29.9197,17.7437l0.00826772 0.0507874c-11.5205,1.67362 -23.6847,-1.03819 -33.7406,-8.54056l-156.899 -117.064c-10.0169,-7.47402 -16.0606,-18.3473 -17.7378,-29.8677l-0.0590552 -0.0437008c-1.67599,-11.5217 1.03701,-23.687 8.5382,-33.7406l117.067 -156.905c7.50355,-10.0559 18.391,-16.1221 29.9103,-17.7969 11.5228,-1.67362 23.687,1.04173 33.7441,8.5441l156.898 117.064c10.0559,7.50237 16.1232,18.3898 17.7992,29.9114 1.67599,11.5193 -1.03819,23.6835 -8.54174,33.7406z"/>
   <path id="_615085512" class="fil9" d="M1771.58 859.019c12.1252,11.4354 17.4579,29.0197 19.715,44.6859 2.47677,17.2004 -1.55315,35.3422 -12.691,50.2689l-349.074 467.861c-11.1366,14.9268 -27.3792,23.9575 -44.5725,26.4803 -15.5811,2.2878 -34.1433,2.23819 -48.5811,-5.99528l435.203 -583.301z"/>
   <path id="_615085344" class="fil10" d="M992.981 493.641l149.069 -40.6276 0.0496063 -0.0649607c15.4595,-4.9252 34.3878,-5.51693 52.4292,-2.49803 18.078,3.02362 38.576,6.43465 51.5575,16.1209l521.592 389.163c14.9162,11.1295 21.1335,30.7146 23.6197,47.9705 2.47677,17.2004 -1.55315,35.3422 -12.691,50.2689l-180.721 242.219 -558.622 -416.792 148.579 -199.14c4.17166,-5.59134 6.51851,-11.2051 7.16103,-16.3914 0.804331,-6.46536 -0.708662,-12.2764 -4.40906,-17.2606l0.0188977 -0.0129921c-3.71693,-4.98662 -8.85827,-8.0882 -15.3059,-9.15946 -5.07993,-0.84567 -11.1331,-0.167717 -17.7756,2.27953l-155.497 57.3083c-6.80079,2.50512 -14.4059,6.89646 -21.1772,11.9539 -6.83623,5.10591 -13.2047,11.1224 -17.4555,16.8201l-46.1457 61.8497 -0.347244 0.464174 -69.293 -51.6993 0.251575 -0.337796 0.125197 -0.168898 61.6997 -82.9394c8.95512,-12.0036 22.7232,-24.6272 37.6843,-35.2949 14.8642,-10.5957 31.2626,-19.4587 45.6024,-24.0307z"/>
   <path id="_615085656" class="fil11" d="M992.981 493.641l149.069 -40.6276 0.0496063 -0.0649607c15.4595,-4.9252 34.3878,-5.51693 52.4292,-2.49803 18.078,3.02362 38.576,6.43465 51.5575,16.1209l42.0957 31.4079 -223.899 300.089 -25.0181 -18.6673 148.579 -199.14c4.17166,-5.59134 6.51851,-11.2051 7.16103,-16.3914 0.804331,-6.46536 -0.708662,-12.2764 -4.40906,-17.2606l0.0188977 -0.0129921c-3.71693,-4.98662 -8.85827,-8.0882 -15.3059,-9.15946 -5.07993,-0.84567 -11.1331,-0.167717 -17.7756,2.27953l-155.497 57.3083c-6.80079,2.50512 -14.4059,6.89646 -21.1772,11.9539 -6.83623,5.10591 -13.2047,11.1224 -17.4555,16.8201l-46.1457 61.8497 -0.347244 0.464174 -69.293 -51.6993 0.251575 -0.337796 0.125197 -0.168898 61.6997 -82.9394c8.95512,-12.0036 22.7232,-24.6272 37.6843,-35.2949 14.8642,-10.5957 31.2626,-19.4587 45.6024,-24.0307z"/>
   <polygon id="_615086016" class="fil7" points="1318.56,818.006 1300.05,688.437 1271.68,691.588 1290.2,821.157 "/>
   <polygon id="_615085992" class="fil7" points="1486.87,943.585 1616.35,924.433 1621.41,952.522 1491.93,971.674 "/>
   <path id="_615085488" class="fil7" d="M1416.69 1061l64.5969 -86.5784c2.62677,-3.51969 3.70748,-7.83662 3.07559,-12.1807 -0.63189,-4.34528 -2.89843,-8.1756 -6.4193,-10.8024l-156.899 -117.064c-3.52205,-2.62795 -7.83898,-3.70985 -12.1854,-3.07796 -4.34528,0.63189 -8.17323,2.89725 -10.7988,6.41693l-64.5969 86.5796 -23.2914 -17.3776 64.5969 -86.5796c7.50355,-10.0559 18.391,-16.1221 29.9103,-17.7969 11.5228,-1.67362 23.687,1.04173 33.7441,8.5441l156.898 117.064c10.0559,7.50237 16.1232,18.3898 17.7992,29.9114 1.67599,11.5193 -1.03819,23.6835 -8.54174,33.7406l-64.5969 86.5784 -23.2914 -17.3776z"/>
   <path id="_615085968" class="fil12" d="M1771.58 859.019l0.455906 0.435827 0.129921 0.125197 0.440552 0.43937 0.122835 0.122835 0.454725 0.466536 0.0838583 0.0874016 0.452363 0.478347 0.113386 0.122835 0.381496 0.416929 0.196063 0.219685 0.360236 0.408662 0.145276 0.167717 0.349607 0.407481 0.191339 0.229134c0.285827,0.34252 0.569292,0.688583 0.84567,1.03819l0.477166 0.614174c0.3,0.389764 0.591733,0.784253 0.881103,1.18228l0.056693 0.0791339 0.343701 0.483071 0.141732 0.200788 0.265748 0.38504 0.21378 0.314173 0.264567 0.39567 0.168898 0.257481 0.248032 0.380315 0.227953 0.357874 0.222047 0.350788 0.185433 0.302362 0.238583 0.389764 0.205512 0.34252 0.212599 0.359055 0.0236221 0.0389764 0.367323 0.634252 0.0236221 0.0425197 0.382677 0.681497 0.0153543 0.0271654 0.357874 0.659056 0.00354331 0.00708662 0.245669 0.464174 0.147638 0.281103 0.238583 0.464174 0.125197 0.245669 0.222047 0.445276 0.147638 0.297638 0.211417 0.437008 0.17126 0.360236 0.147638 0.31063 0.210236 0.453544 0.157087 0.343701 0.179528 0.401575 0.145276 0.327166 0.166536 0.380315 0.188977 0.440552 0.291733 0.690945 0.0141732 0.0330709 0.296457 0.728741 0.223229 0.564567 0.0767717 0.19252 0.158268 0.411024 0.147638 0.38504 0.157087 0.419292 0.127559 0.347244 0.119291 0.327166 0.18189 0.505512 0.120473 0.341339 0.127559 0.366142 0.140551 0.411024 0.134646 0.399213 0.145276 0.437008 0.0767717 0.23504 0.166536 0.51378 0.0200788 0.0649607 0.204331 0.650788 0.0307087 0.0992127 0.0933072 0.303544 0.135827 0.446457 0.222047 0.752363 0.0165354 0.0531496 0.199606 0.700394 0.0366142 0.129921 0.173622 0.623623 0.0153543 0.056693 0.113386 0.421654 0.125197 0.470079 0.0661418 0.249213 0.125197 0.484252 0.111024 0.440552 0.0720473 0.288189 0.125197 0.509056 0.0248032 0.101575 0.122835 0.514961 0.00472441 0.0177165 0.170079 0.729922 0.0200788 0.0850394 0.0377953 0.164173 0.148819 0.666142 0.0188977 0.0885827 0.161811 0.742914 0.00236221 0.011811 0.0259843 0.122835c0.10748,0.507874 0.211417,1.01575 0.31063,1.52244l0.0011811 0.00236221 0.119291 0.61063 0.011811 0.0637796 0.090945 0.479528 0.0389764 0.206693 0.0543308 0.292914 0.0826772 0.455906 0.0649607 0.367323 0.0661418 0.379134 0.0200788 0.116929 0.0944883 0.555119 0.0129921 0.0732284 0.0850394 0.517323 0.0366142 0.225591 0.0944883 0.590552 0.124016 0.81378 0.011811 0.0744095 0.108662 0.735827c2.47677,17.2004 -1.55315,35.3422 -12.691,50.2689l-180.721 242.219 -50.0233 -37.3229 223.72 -299.851z"/>
   <path id="_615085896" class="fil13" d="M1279.64 949.443c18.2894,7.16457 35.9587,7.36182 50.6493,7.52599 15.4335,0.170079 28.0902,0.311811 38.0067,7.44331 10.6358,7.65119 19.2106,18.4429 21.391,31.7929 1.80473,11.0504 -0.790158,23.4142 -10.2343,36.5433 -9.44292,13.1291 -20.3386,19.5213 -31.3902,21.326 -13.35,2.17914 -26.3091,-2.51811 -36.9449,-10.1681 -9.91536,-7.13268 -14.0752,-19.0878 -19.1469,-33.665 -4.86733,-13.9902 -10.7291,-30.8398 -23.5559,-45.9992l-0.0106299 0.00944883c-3.39685,-4.01457 -2.89607,-10.0217 1.1185,-13.4185 2.90906,-2.4626 6.86575,-2.87599 10.1173,-1.39016z"/>
  </g>
 </g>
 <rect class="fil14" width="2048" height="2048"/>
</svg>
