<?xml version="1.0" encoding="UTF-8"?>
<!DOCTYPE svg PUBLIC "-//W3C//DTD SVG 1.1//EN" "http://www.w3.org/Graphics/SVG/1.1/DTD/svg11.dtd">
<!-- Creator: CorelDRAW -->
<svg xmlns="http://www.w3.org/2000/svg" xml:space="preserve" width="2048px" height="2048px" style="shape-rendering:geometricPrecision; text-rendering:geometricPrecision; image-rendering:optimizeQuality; fill-rule:evenodd; clip-rule:evenodd"
viewBox="0 0 2048 2048"
 xmlns:xlink="http://www.w3.org/1999/xlink">
 <defs>
  <style type="text/css">
   <![CDATA[
    .fil8 {fill:none}
    .fil7 {fill:#B8B8B8}
    .fil3 {fill:#5F5F5F;fill-rule:nonzero}
    .fil5 {fill:#616161;fill-rule:nonzero}
    .fil6 {fill:#757575;fill-rule:nonzero}
    .fil2 {fill:#AFAFAF;fill-rule:nonzero}
    .fil4 {fill:#B4B4B5;fill-rule:nonzero}
    .fil1 {fill:lightgrey;fill-rule:nonzero}
    .fil0 {fill:#E1E1E2;fill-rule:nonzero}
   ]]>
  </style>
 </defs>
 <g id="Layer_x0020_1">
  <metadata id="CorelCorpID_0Corel-Layer"/>
  <g id="_627934848">
   <path id="_627936072" class="fil0" d="M822.165 1084.48c-26.9658,-46.3063 -48.1595,-96.7572 -62.5288,-150.264 -13.9736,-52.0359 -21.4477,-106.794 -21.4477,-163.25 0,-104.818 25.7315,-203.589 70.9973,-289.843 46.976,-89.5135 114.971,-165.343 197.064,-220.288l-0.0496063 -0.0933072c11.9256,-7.9819 27.274,-6.88583 37.8862,1.67126 81.0449,54.815 148.199,130.048 194.728,218.71 45.2646,86.2536 70.9973,185.026 70.9973,289.843 0,56.4556 -7.47402,111.215 -21.4477,163.251 -14.4555,53.8288 -35.8181,104.564 -63.0142,151.097l0.00236221 0.0212599c-8.91733,15.2575 -28.5166,20.3977 -43.774,11.4803 -1.57914,-0.922442 -3.04843,-1.96181 -4.4067,-3.09685 -14.6988,-10.0642 -30.4855,-18.7654 -47.1756,-25.9122 -5.06103,-2.16732 -10.2036,-4.18465 -15.424,-6.04607l0 174.836c-55.9843,0 -125.443,0 -182.215,0l0 -174.451c-4.85433,1.75394 -9.64016,3.6437 -14.3551,5.66221 -17.5559,7.51772 -34.1103,16.7539 -49.454,27.4902l0.0755906 0.10748c-14.4791,10.1327 -34.4327,6.61064 -44.5654,-7.86851 -0.69567,-0.994489 -1.3252,-2.01614 -1.89331,-3.05788z"/>
   <path id="_627935400" class="fil1" d="M822.165 1084.48c-26.9658,-46.3063 -48.1595,-96.7572 -62.5288,-150.264 -13.9736,-52.0359 -21.4477,-106.794 -21.4477,-163.25 0,-104.818 25.7315,-203.589 70.9973,-289.843 46.976,-89.5135 114.971,-165.343 197.064,-220.288l-0.0496063 -0.0933072c5.47559,-3.66496 11.6728,-5.41536 17.8028,-5.40827l0 981.263 -91.6453 0 0 -174.451c-4.85433,1.75394 -9.64016,3.6437 -14.3551,5.66221 -17.5559,7.51772 -34.1103,16.7539 -49.454,27.4902l0.0755906 0.10748c-14.4791,10.1327 -34.4327,6.61064 -44.5654,-7.86851 -0.69567,-0.994489 -1.3252,-2.01614 -1.89331,-3.05788z"/>
   <path id="_627935328" class="fil2" d="M1012.21 1780.88c0,6.50788 5.27717,11.785 11.785,11.785 6.50788,0 11.785,-5.27717 11.785,-11.785l0 -186.881 20.2158 -75.3591 0 -59.9079c0,-17.6728 -14.328,-32.0008 -32.0008,-32.0008 -17.6728,0 -32.0008,14.328 -32.0008,32.0008l0 60.5327 20.2158 74.504 0 187.112z"/>
   <path id="_627935256" class="fil3" d="M1144.47 1780.88c0,6.50788 5.27717,11.785 11.785,11.785 6.50788,0 11.785,-5.27717 11.785,-11.785l0 -186.881 20.2158 -75.3591 0 -59.9079c0,-17.6728 -14.328,-32.0008 -32.0008,-32.0008 -17.6728,0 -32.0008,14.328 -32.0008,32.0008l0 60.5327 20.2158 74.504 0 187.112z"/>
   <path id="_627935040" class="fil4" d="M879.966 1780.88c0,6.50788 5.27717,11.785 11.785,11.785 6.50788,0 11.785,-5.27717 11.785,-11.785l0 -186.881 20.2158 -75.3591 0 -59.9079c0,-17.6728 -14.328,-32.0008 -32.0008,-32.0008 -17.6728,0 -32.0008,14.328 -32.0008,32.0008l0 60.5327 20.2158 74.504 0 187.112z"/>
   <path id="_627935112" class="fil5" d="M796.76 1438.85l0 -192.758c0,-17.6728 14.328,-32.0008 32.0008,-32.0008l390.476 0c17.6728,0 32.0008,14.328 32.0008,32.0008l0 192.758c0,17.6728 -14.328,32.0008 -32.0008,32.0008l-390.476 0c-17.6728,0 -32.0008,-14.328 -32.0008,-32.0008z"/>
   <g>
    <path id="_627934704" class="fil6" d="M794.559 1278.91c-17.6728,0 -32.0008,14.328 -32.0008,32.0008 0,17.6728 14.328,32.0008 32.0008,32.0008l458.881 0c17.6728,0 32.0008,-14.328 32.0008,-32.0008 0,-17.6728 -14.328,-32.0008 -32.0008,-32.0008l-458.881 0z"/>
    <path id="_627934728" class="fil6" d="M794.559 1342.03c-17.6728,0 -32.0008,14.328 -32.0008,32.0008 0,17.6728 14.328,32.0008 32.0008,32.0008l458.881 0c17.6728,0 32.0008,-14.328 32.0008,-32.0008 0,-17.6728 -14.328,-32.0008 -32.0008,-32.0008l-458.881 0z"/>
   </g>
   <path id="_627935208" class="fil7" d="M1070.82 1214.09l0 -164.437c-12.385,-4.86969 -20.5004,-17.0185 -20.2524,-30.3296l0 -140.534 -9.30591 0 0 -169.67 43.7469 0c17.6728,0 32.0008,-14.328 32.0008,-32.0008 0,-17.6728 -14.328,-32.0008 -32.0008,-32.0008l-122.026 0c-17.6728,0 -32.0008,14.328 -32.0008,32.0008 0,17.6728 14.328,32.0008 32.0008,32.0008l43.7504 0 0 169.67 -9.30709 0 0 141.093c0,13.9276 -8.90079,25.7764 -21.3225,30.1725l0 164.034 94.7162 0z"/>
  </g>
 </g>
 <rect class="fil8" width="2048" height="2048"/>
</svg>
