<?xml version="1.0" encoding="UTF-8"?>
<!DOCTYPE svg PUBLIC "-//W3C//DTD SVG 1.1//EN" "http://www.w3.org/Graphics/SVG/1.1/DTD/svg11.dtd">
<!-- Creator: CorelDRAW -->
<svg xmlns="http://www.w3.org/2000/svg" xml:space="preserve" width="2048px" height="2048px" style="shape-rendering:geometricPrecision; text-rendering:geometricPrecision; image-rendering:optimizeQuality; fill-rule:evenodd; clip-rule:evenodd"
viewBox="0 0 2048 2048"
 xmlns:xlink="http://www.w3.org/1999/xlink">
 <defs>
  <style type="text/css">
   <![CDATA[
    .fil11 {fill:none}
    .fil2 {fill:#474747}
    .fil1 {fill:#545454}
    .fil0 {fill:#757575}
    .fil3 {fill:#7F7F7F}
    .fil9 {fill:#8F8F90}
    .fil8 {fill:#2F2F2F;fill-rule:nonzero}
    .fil6 {fill:#6E6E6E;fill-rule:nonzero}
    .fil7 {fill:#9B9B9C;fill-rule:nonzero}
    .fil5 {fill:#9D9D9D;fill-rule:nonzero}
    .fil4 {fill:#AEAEAF;fill-rule:nonzero}
    .fil10 {fill:#B8B8B8;fill-rule:nonzero}
   ]]>
  </style>
 </defs>
 <g id="Layer_x0020_1">
  <metadata id="CorelCorpID_0Corel-Layer"/>
  <g id="_627938112">
   <g>
    <g>
     <path id="_627940488" class="fil0" d="M1323.01 1652.57l58.6311 0 0 112.625c0,14.7402 -12.0614,26.8016 -26.8004,26.8016l-5.03032 0c-14.739,0 -26.8004,-12.0614 -26.8004,-26.8016l0 -112.625z"/>
     <rect id="_627940416" class="fil1" x="1303.82" y="1659.01" width="96.9996" height="26.8136" rx="37.8532" ry="37.8532"/>
     <rect id="_627940248" class="fil2" x="1264.38" y="1616.11" width="175.892" height="48.6219" rx="68.641" ry="68.641"/>
    </g>
    <g>
     <g>
      <rect id="_627940584" class="fil3" x="570.823" y="1052.58" width="19.3272" height="19.4764" rx="5.42717" ry="5.42717"/>
      <rect id="_627940152" class="fil3" x="570.823" y="1084.55" width="19.3272" height="19.4764" rx="5.42717" ry="5.42717"/>
      <rect id="_627940272" class="fil3" x="570.823" y="1116.52" width="19.3272" height="19.4764" rx="5.42717" ry="5.42717"/>
      <rect id="_627939336" class="fil3" x="570.823" y="1148.49" width="19.3272" height="19.4764" rx="5.42717" ry="5.42717"/>
      <rect id="_627939216" class="fil3" x="570.823" y="1180.46" width="19.3272" height="19.4764" rx="5.42717" ry="5.42717"/>
      <path id="_627939744" class="fil4" d="M906.445 1084.35c-18.587,7.14922 -81.1359,-8.23229 -131.036,-39.6969 -25.4965,-16.076 -100.726,-5.9504 -145.018,-45.0709 -26.7957,0 -48.5197,21.724 -48.5197,48.5197l0 156.311c0,26.7957 21.724,48.5197 48.5197,48.5197 44.9693,-39.124 122.017,-30.5835 148.211,-47.4331 48.4595,-31.174 109.257,-45.7642 127.844,-38.4461l0 -82.7032z"/>
      <path id="_627939480" class="fil5" d="M630.863 999.988l-0.47126 -0.4063c-26.7957,0 -48.5221,21.724 -48.5221,48.5197l0 156.312c0,26.7957 21.7264,48.5185 48.5221,48.5185l0.47126 -0.400394 0 -252.544z"/>
     </g>
     <path id="_627939456" class="fil6" d="M1099.57 881.209c6.48308,-19.0973 -3.41103,-38.5488 -22.1008,-43.4457 -18.6886,-4.89567 -39.0981,6.61536 -45.5823,25.7126l-33.1796 97.252c-6.48308,19.0973 3.41103,38.5488 22.1008,43.4457 18.6886,4.89567 39.0981,-6.61536 45.5823,-25.7126l33.1796 -97.252z"/>
     <path id="_627939816" class="fil5" d="M1061.92 1069.07l-132.242 -0.360236c-3.93898,0.34252 -8.01969,-0.343701 -11.8347,-2.19803 -11.2406,-5.46615 -15.9236,-19.0122 -10.4575,-30.254l0.0496063 0.0248032 34.6181 -71.1969c3.3437,-8.37875 11.55,-14.2854 21.1193,-14.2488l0 0.0885827 132.241 0.360236c3.93898,-0.34252 8.01969,0.343701 11.8347,2.19803 11.2406,5.46615 15.9236,19.0122 10.4575,30.254l-0.0496063 -0.0248032 -34.6181 71.1969c-3.3437,8.37875 -11.55,14.2854 -21.1181,14.2488l0 -0.0885827z"/>
     <path id="_627939312" class="fil7" d="M1129.85 257.247l248.849 78.2351c0.261024,0.0755906 0.522048,0.152362 0.783071,0.23504 14.0717,4.48583 21.8421,19.5295 17.3575,33.6012l-0.0838583 -0.0271654 -158.834 479.465c-2.34803,10.2366 -10.6441,18.5575 -21.6461,20.4024l-0.0141732 -0.0862205 -145.976 24.4973c-2.37638,0.607087 -4.87323,0.894095 -7.43623,0.81378l-0.172441 -0.00590552 -0.435827 -0.0200788 -0.246851 -0.0141732 -0.214961 -0.011811 -0.0011811 -0.0011811 0 -0.0011811c-6.28937,-0.440552 -12.4476,-3.09449 -17.2087,-7.94883l0.0720473 -0.0708662 -99.6591 -101.604c-7.95473,-6.77717 -11.5134,-17.9079 -8.14016,-28.4894l0.0838583 0.0271654 158.848 -479.51c0.155906,-0.669686 0.337796,-1.33701 0.546851,-2.00433 4.42914,-14.0882 19.4433,-21.9201 33.5315,-17.491l-0.00236221 0.00944883z"/>
     <path id="_627938640" class="fil4" d="M1122.43 1184.43c-15.5811,0 -28.213,10.1339 -28.213,22.6347 0,2.05158 0.34252,4.03819 0.979135,5.92796 -1.79882,3.17599 -3.3874,6.58465 -4.62048,10.2095 -3.00945,8.84292 -3.72638,18.4854 -0.227953,28.4693 5.21575,14.8854 18.3567,27.0083 32.7886,40.3205 12.9768,11.9705 27.3732,25.2508 32.0433,38.5807 4.3063,12.2882 1.94882,29.0563 -0.408662,45.8244 -2.96693,21.091 -5.93386,42.1843 1.35354,62.9788 8.06339,23.0103 26.8193,40.3122 43.7256,55.9075 10.0925,9.31064 19.2839,17.7898 21.1063,22.9925 2.23583,6.3815 -0.747638,15.0921 -3.45945,23.0091 -3.99095,11.6539 -7.66064,22.3701 -3.85394,34.9736 0.512599,1.70079 1.25315,3.30945 2.18858,4.80945l0.0413386 0.134646c4.30866,13.1516 11.824,25.7421 23.348,34.9878 11.6504,9.34725 26.5961,15.1748 45.3532,15.1748l151.043 0c12.6248,0.201969 24.2882,-6.46063 27.7618,-16.6795l-27.2185 -5.95512 27.111 5.92441c45.7536,-134.593 -30.0839,-204.131 -102.229,-270.281 -45.7229,-41.9233 -89.7331,-82.278 -89.7331,-137.309 0,-12.5008 -12.6319,-22.6347 -28.213,-22.6347l-120.666 0z"/>
     <path id="_627939168" class="fil8" d="M1075.79 1248.54c6.02245,14.5087 19.1551,26.6209 33.4985,39.8528 13.6429,12.5847 28.7764,26.5477 33.6874,40.5603 4.52717,12.9177 2.04921,30.5469 -0.429922,48.176 -3.11929,22.1729 -6.23741,44.3492 1.42323,66.2091 8.4756,24.1914 28.1953,42.3815 45.9685,58.7776 10.611,9.7878 20.2736,18.7016 22.1906,24.1725 2.3504,6.70749 -0.786615,15.8658 -3.6378,24.1902l-0.148819 0.435827 39.828 0c10.5036,0 15.3248,-8.59371 10.715,-19.0973l-115.909 -264.18c-4.60985,-10.5047 -16.9725,-19.0973 -27.476,-19.0973l-39.7099 0z"/>
     <path id="_627938856" class="fil8" d="M1476.52 1522.14c-6.52678,-77.8477 -62.0067,-128.741 -115.474,-177.767 -31.6807,-29.0469 -62.5323,-57.3437 -78.4985,-90.2894l-41.9575 0c-9.31182,0 -14.3776,9.29646 -6.01536,16.9299 72.802,66.463 122.704,144.747 150.967,234.196 3.16536,10.0169 18.5303,16.9299 27.8421,16.9299l63.1359 0z"/>
     <path id="_627938784" class="fil5" d="M1279.48 1065.51c-7.1941,0 -13.0264,11.7036 -13.0264,26.139 0,14.4354 5.83229,26.139 13.0264,26.139l52.102 0c7.1941,0 13.0264,-11.7036 13.0264,-26.139 0,-14.4354 -5.83229,-26.139 -13.0264,-26.139l-52.102 0z"/>
     <path id="_627938592" class="fil5" d="M1275.5 1133.42c-4.99489,0 -9.04371,10.1339 -9.04371,22.6347 0,12.4996 4.04882,22.6347 9.04371,22.6347l63.3 0c4.99489,0 9.04371,-10.135 9.04371,-22.6347 0,-12.5008 -4.04882,-22.6347 -9.04371,-22.6347l-63.3 0z"/>
     <path id="_627938976" class="fil9" d="M1095.77 276.732l-158.848 479.509 -0.0850394 -0.0259843c-3.37205,10.5803 0.186614,21.7122 8.14134,28.4894l99.6591 101.604 -0.0720473 0.0708662c3.66969,3.74174 8.16851,6.17599 12.9189,7.29686l205.181 -594.673 -132.82 -41.7567 0.00236221 -0.0106299c-14.0882,-4.42796 -29.1024,3.40276 -33.5303,17.491 -0.210236,0.666142 -0.393307,1.33465 -0.548032,2.00433z"/>
     <path id="_627938664" class="fil10" d="M903.222 1023.4l385.869 0c12.5008,0 22.6347,10.1339 22.6347,22.6347l0 160.439c0,12.4996 -10.1339,22.6347 -22.6347,22.6347l-385.869 0c-12.5008,0 -22.6347,-10.135 -22.6347,-22.6347l0 -160.439c0,-12.5008 10.1339,-22.6347 22.6347,-22.6347z"/>
    </g>
   </g>
   <g>
    <g>
     <path id="_627938064" class="fil8" d="M906.446 1084.35c-5.41536,2.08229 -14.5654,2.25118 -26.041,0.668504l0 22.1634 26.041 0 0 -22.8319z"/>
     <polygon id="_627937680" class="fil8" points="880.587,1107.18 880.587,1075.12 1176.97,1075.12 1176.97,1107.18 "/>
    </g>
    <g>
     <path id="_627937920" class="fil8" d="M880.405 1166.16c11.4154,-1.51299 20.5618,-1.26142 26.041,0.895276l0 -28.3925 -26.041 0 0 27.4973z"/>
     <polygon id="_627937848" class="fil8" points="880.587,1170.72 880.587,1138.66 1176.97,1138.66 1176.97,1170.72 "/>
    </g>
   </g>
  </g>
 </g>
 <rect class="fil11" width="2048" height="2048"/>
</svg>
