<?xml version="1.0" encoding="UTF-8"?>
<!DOCTYPE svg PUBLIC "-//W3C//DTD SVG 1.1//EN" "http://www.w3.org/Graphics/SVG/1.1/DTD/svg11.dtd">
<!-- Creator: CorelDRAW -->
<svg xmlns="http://www.w3.org/2000/svg" xml:space="preserve" width="2048px" height="2048px" style="shape-rendering:geometricPrecision; text-rendering:geometricPrecision; image-rendering:optimizeQuality; fill-rule:evenodd; clip-rule:evenodd"
viewBox="0 0 2048 2048"
 xmlns:xlink="http://www.w3.org/1999/xlink">
 <defs>
  <style type="text/css">
   <![CDATA[
    .fil8 {fill:none}
    .fil0 {fill:#8E8E8F}
    .fil7 {fill:#9D9D9D}
    .fil6 {fill:#D6D6D6}
    .fil2 {fill:#D8D9D9}
    .fil5 {fill:#EFEFEF}
    .fil1 {fill:#F3F4F4}
    .fil3 {fill:#FBFBFC}
    .fil4 {fill:#565656;fill-rule:nonzero}
   ]]>
  </style>
 </defs>
 <g id="Layer_x0020_1">
  <metadata id="CorelCorpID_0Corel-Layer"/>
  <g id="_627931200">
   <path id="_627932640" class="fil0" d="M1006.01 680.405l1.8378 118.602 82.617 -1.28032 -1.8378 -118.6c-0.351969,-22.7197 -19.2272,-41.0197 -41.9481,-40.6677l0 0c-22.7209,0.351969 -41.0197,19.2272 -40.6689,41.9469zm25.5874 7.05591c7.61457,7.61457 19.9595,7.61457 27.5729,0 7.61457,-7.61339 7.61457,-19.9583 0,-27.5729 -7.61339,-7.61457 -19.9583,-7.61457 -27.5729,0 -7.61457,7.61457 -7.61457,19.9595 0,27.5729z"/>
   <path id="_627932448" class="fil0" d="M1511.76 1367.59l1.8378 -118.602 82.617 1.28032 -1.8378 118.6c-0.351969,22.7197 -19.2272,41.0197 -41.9481,40.6677l0 0c-22.7209,-0.351969 -41.0197,-19.2272 -40.6689,-41.9469zm25.5874 -7.05591c7.61339,-7.61457 19.9583,-7.61457 27.5729,0 7.61457,7.61339 7.61457,19.9583 0,27.5729 -7.61457,7.61457 -19.9595,7.61457 -27.5729,0 -7.61457,-7.61457 -7.61457,-19.9595 0,-27.5729z"/>
   <path id="_627932856" class="fil0" d="M491.944 1297.06l98.3635 -95.3635 66.43 68.5205 -98.3646 95.3635c-18.8421,18.2669 -49.2048,17.798 -67.4741,-1.04646l0 0c-18.2681,-18.8433 -17.798,-49.2048 1.04528,-67.4741zm26.6599 15.1347c12.437,0 22.5189,10.0819 22.5189,22.5201 0,12.437 -10.0819,22.5189 -22.5189,22.5189 -12.4382,0 -22.5201,-10.0819 -22.5201,-22.5189 0,-12.4382 10.0819,-22.5201 22.5201,-22.5201z"/>
   <path id="_627932904" class="fil1" d="M271.765 850.256c226.533,-89.0729 274.506,-140.471 517.309,-125.876 386.607,23.2429 631.315,-7.4126 778.247,90.7288 102.301,68.3292 127.099,196.034 208.129,456.89 5.14134,16.5543 -14.1969,31.2709 -31.5307,31.5319l-606.85 9.20079c-121.498,29.5406 -170.656,54.4878 -295.844,36.7323 -352.033,-49.9406 -569.842,-196.249 -569.461,-499.207z"/>
   <path id="_627931944" class="fil2" d="M792.995 724.609c384.332,22.8024 627.892,-7.30867 774.325,90.4997 70.5816,47.1437 104.273,122.56 144.99,250.46 -30.7866,126.187 -178.622,221.988 -311.292,221.988 -80.5949,0 -144.926,-45.3284 -223.677,-45.3284 -76.0075,0 -166.391,45.3284 -246.344,45.3284 -164.769,0 -298.371,-133.603 -298.371,-298.371 0,-114.974 65.0646,-214.759 160.369,-264.577z"/>
   <path id="_627931512" class="fil3" d="M930.996 742.842c136.054,0 246.345,110.291 246.345,246.344 0,136.052 -110.291,246.345 -246.345,246.345 -136.052,0 -246.344,-110.293 -246.344,-246.345 0,-136.052 110.291,-246.344 246.344,-246.344z"/>
   <path id="_627932184" class="fil1" d="M930.996 742.842c4.84607,0 9.65316,0.154725 14.4295,0.431103l-8.05158 201.647 49.513 -195.709c9.45001,2.19213 18.6851,4.93583 27.6827,8.18032l-64.9099 191.158 102.956 -173.63c8.39174,4.77284 16.4693,10.0287 24.2079,15.7205l-116.41 164.865 147.925 -137.286c6.67914,6.92481 12.9496,14.2429 18.7866,21.9106l-158.371 125.098 180.82 -89.7402c4.4315,8.5004 8.37638,17.2961 11.8087,26.341l-187.386 75.0875 198.834 -34.7941c1.81299,9.35906 3.09921,18.9047 3.82205,28.6087l-200.942 18.8799 200.515 22.9996c-0.912993,9.68387 -2.39055,19.2012 -4.39252,28.526l-198.075 -38.8666 185.81 78.9213c-3.61299,8.97048 -7.73623,17.6823 -12.339,26.0941l-178.937 -93.4288 155.776 128.328c-5.98819,7.54725 -12.4063,14.7366 -19.2225,21.5292l-145.075 -140.294 113.007 167.234c-7.84961,5.53465 -16.0299,10.6264 -24.5185,15.2303l-99.3792 -175.723 60.9815 192.475c-9.0567,3.05906 -18.3543,5.59252 -27.8481,7.59331l-44.2004 -191.124 7.62166 195.993c-4.77874,0.276378 -9.58938,0.432284 -14.439,0.432284 -4.84725,0 -9.65788,-0.157087 -14.4378,-0.432284l7.8319 -200.087 -49.278 194.151c-9.45355,-2.19213 -18.6957,-4.93937 -27.6969,-8.18623l64.2544 -189.716 -102.288 172.195c-8.3941,-4.7752 -16.4776,-10.0335 -24.2197,-15.7288l115.373 -163.671 -146.875 136.101c-6.68268,-6.92717 -12.9567,-14.25 -18.7973,-21.9213l157.036 -124.246 -179.476 88.9005c-4.43504,-8.50394 -8.38111,-17.3032 -11.8158,-26.354l185.865 -74.6481 -197.309 34.3713c-1.81417,-9.36379 -3.1004,-18.9154 -3.82441,-28.6264l199.357 -18.887 -198.928 -22.9748c0.912993,-9.68977 2.38819,-19.213 4.39252,-28.5437l196.562 38.4107 -184.301 -78.4477c3.61654,-8.97757 7.74095,-17.6941 12.3461,-26.1106l177.608 92.5595 -154.458 -127.443c5.99174,-7.55197 12.4134,-14.7449 19.2343,-21.5398l144.056 139.088 -112.002 -166.018c7.85316,-5.53701 16.0406,-10.6323 24.5327,-15.2374l98.7391 174.265 -60.3567 -191.012c9.06142,-3.06142 18.3638,-5.59725 27.8646,-7.59804l44.3504 191.091 -7.77284 -195.96c4.77756,-0.277559 9.58702,-0.431103 14.4331,-0.431103z"/>
   <path id="_627932136" class="fil3" d="M1401.02 799.997c120.272,0 217.769,97.4965 217.769,217.768 0,120.268 -97.4977,217.766 -217.769,217.766 -120.269,0 -217.767,-97.4977 -217.767,-217.766 0,-120.272 97.4977,-217.768 217.767,-217.768z"/>
   <path id="_627931584" class="fil4" d="M266.936 835.246c46.3276,-18.2315 84.9579,-34.7894 119.343,-49.5272 136.168,-58.3583 207.311,-88.8473 403.718,-77.041 107.899,6.48544 203.977,8.77087 290.068,10.8165 227.243,5.4 386.139,9.18072 495.998,82.5591 92.2784,61.6347 123.631,165.514 182.57,360.828 10.1138,33.5185 21.0295,69.6875 31.8425,104.499 0.980316,3.16063 1.46929,6.38859 1.51772,9.63072 0.153543,10.0795 -4.15276,19.1079 -10.9961,26.2512 -5.93268,6.19725 -13.9819,11.0091 -22.4953,13.6524 -4.60985,1.43032 -9.49607,2.2441 -14.4,2.31851l-604.987 9.17363c-21.404,5.22402 -41.5217,10.5744 -60.1111,15.5162 -82.5556,21.9508 -135.269,35.9634 -239.935,21.1205 -178.804,-25.3642 -323.894,-75.5068 -424.707,-158.169 -102.1,-83.7166 -158.499,-200.006 -158.301,-356.619l15.7028 0 -15.7654 -0.0200788c0.00944883,-7.01457 4.6004,-12.9532 10.937,-14.9906zm131.66 -20.5819c-32.4662,13.9158 -68.6812,29.4343 -111.039,46.2709 2.32441,140.948 54.365,245.918 146.76,321.677 95.9977,78.7111 235.838,126.698 409.064,151.271 98.4414,13.9606 148.78,0.579922 227.615,-20.3823 18.1453,-4.82363 37.7918,-10.0488 61.0536,-15.7205 1.50354,-0.504331 3.10984,-0.788977 4.77992,-0.81378l0.238583 15.7654 -0.184252 -15.7039 606.85 -9.20079c1.70906,-0.0236221 3.59646,-0.364961 5.53229,-0.966142 3.52087,-1.09252 6.77245,-3 9.06969,-5.4 1.3878,-1.44921 2.2689,-2.90315 2.25118,-4.08071 -0.0011811,-0.153543 -0.0578741,-0.408662 -0.165354,-0.762993 -12.5209,-40.3051 -22.6122,-73.7434 -31.9654,-104.745 -56.8075,-188.245 -87.0249,-288.366 -169.882,-343.707 -102.258,-68.302 -257.387,-71.9918 -479.247,-77.2642 -86.9599,-2.06693 -184.006,-4.37363 -291.179,-10.8165 -189.021,-11.361 -257.84,18.1299 -389.554,74.5796z"/>
   <circle id="_627931848" class="fil5" cx="930.997" cy="989.186" r="83.8281"/>
   <circle id="_627931488" class="fil6" cx="930.997" cy="989.186" r="48.2568"/>
   <path id="_627931368" class="fil7" d="M585.028 807.153c103.028,0 1.24134,77.0835 1.24134,180.111 0,103.026 101.786,192.979 -1.24134,192.979 -103.026,0 -186.545,-83.5182 -186.545,-186.545 0,-103.028 83.5182,-186.546 186.545,-186.546z"/>
   <path id="_627931272" class="fil1" d="M1401.02 801.265c4.25906,0 8.48386,0.137008 12.6815,0.379134l-7.07599 177.216 43.5142 -171.997c8.30434,1.92638 16.4221,4.33701 24.3295,7.18938l-57.0473 167.998 90.4831 -152.594c7.37481,4.1941 14.4732,8.81339 21.274,13.8154l-102.305 144.892 130.002 -120.653c5.87008,6.08623 11.3811,12.5173 16.5106,19.2567l-139.182 109.941 158.913 -78.867c3.8941,7.47048 7.36064,15.2008 10.3772,23.1496l-164.682 65.9894 174.744 -30.5788c1.59331,8.2252 2.72362,16.6146 3.35906,25.1433l-176.597 16.5921 176.222 20.2134c-0.80315,8.50985 -2.10118,16.8744 -3.85985,25.0701l-174.078 -34.1575 163.299 69.3591c-3.17599,7.88386 -6.79961,15.5398 -10.8449,22.9323l-157.258 -82.1091 136.903 112.78c-5.263,6.63308 -10.9028,12.952 -16.8933,18.9201l-127.499 -123.295 99.3154 146.972c-6.89882,4.86378 -14.0882,9.33898 -21.548,13.3854l-87.339 -154.433 53.5949 169.154c-7.96064,2.68819 -16.1315,4.91575 -24.476,6.67323l-38.8441 -167.967 6.69804 172.247c-4.2,0.243307 -8.42835,0.380315 -12.6898,0.380315 -4.26024,0 -8.48741,-0.138189 -12.6886,-0.380315l6.88347 -175.845 -43.3075 170.628c-8.30906,-1.92638 -16.4315,-4.34055 -24.3414,-7.1941l56.4685 -166.73 -89.895 151.332c-7.37717,-4.19646 -14.4815,-8.81812 -21.2847,-13.8236l101.394 -143.841 -129.08 119.612c-5.87363,-6.08859 -11.387,-12.5232 -16.5189,-19.265l138.01 -109.193 -157.732 78.1288c-3.89764,-7.47402 -7.36536,-15.2067 -10.3843,-23.1614l163.348 -65.6032 -173.405 30.2067c-1.59449,-8.22875 -2.72481,-16.624 -3.36024,-25.1575l175.204 -16.6004 -174.828 -20.191c0.801969,-8.51457 2.1,-16.8839 3.86103,-25.0843l172.747 33.7559 -161.972 -68.9434c3.17835,-7.88859 6.80315,-15.5492 10.8508,-22.9465l156.09 81.3449 -135.744 -112.003c5.26536,-6.63662 10.9099,-12.9591 16.904,-18.9295l126.602 122.237 -98.432 -145.905c6.90119,-4.86615 14.0965,-9.34371 21.5599,-13.3913l86.7768 153.151 -53.0445 -167.869c7.96418,-2.69055 16.1386,-4.9193 24.489,-6.67678l38.9764 167.938 -6.83032 -172.218c4.19882,-0.243307 8.42481,-0.379134 12.6839,-0.379134z"/>
   <g>
    <circle id="_627931248" class="fil5" cx="1404.09" cy="1017.76" r="83.8281"/>
    <circle id="_627931224" class="fil6" cx="1404.09" cy="1017.76" r="48.2568"/>
   </g>
  </g>
 </g>
 <rect class="fil8" width="2048" height="2048"/>
</svg>
