<?xml version="1.0" encoding="UTF-8"?>
<!DOCTYPE svg PUBLIC "-//W3C//DTD SVG 1.1//EN" "http://www.w3.org/Graphics/SVG/1.1/DTD/svg11.dtd">
<!-- Creator: CorelDRAW -->
<svg xmlns="http://www.w3.org/2000/svg" xml:space="preserve" width="2048px" height="2048px" style="shape-rendering:geometricPrecision; text-rendering:geometricPrecision; image-rendering:optimizeQuality; fill-rule:evenodd; clip-rule:evenodd"
viewBox="0 0 2048 2048"
 xmlns:xlink="http://www.w3.org/1999/xlink">
 <defs>
  <style type="text/css">
   <![CDATA[
    .fil6 {fill:none}
    .fil0 {fill:#1A191A}
    .fil3 {fill:#323232}
    .fil2 {fill:#3F3F3F}
    .fil1 {fill:#414141}
    .fil5 {fill:#202020;fill-rule:nonzero}
    .fil4 {fill:#4D4D4D;fill-rule:nonzero}
   ]]>
  </style>
 </defs>
 <g id="Layer_x0020_1">
  <metadata id="CorelCorpID_0Corel-Layer"/>
  <g id="_289959520">
   <path id="_289960264" class="fil0" d="M1189.7 493.022c-104.577,-4.99843 -199.746,-13.4953 -302.652,-1.31693 213.629,22.4114 272.862,373.022 270.332,539.352 -2.98465,196.342 -97.891,544.087 -281.967,529.241l242.795 7.09489 82.3359 -8.1567c120.804,-43.1835 206.212,-284.36 213.286,-467.554 14.7532,-382.049 -113.343,-543.844 -224.13,-598.66z"/>
   <path id="_289959016" class="fil1" d="M782.718 267.207c148.357,-7.09253 283.367,-19.1457 429.352,-1.86851 -303.06,31.7929 -387.092,529.183 -383.503,765.144 4.23544,278.538 138.873,771.863 400.009,750.801l-344.437 10.0642 -116.805 -11.5701c-171.377,-61.2626 -292.54,-403.405 -302.576,-663.29 -20.9291,-541.988 160.794,-771.518 317.96,-849.281z"/>
   <path id="_289958920" class="fil2" d="M1212.07 265.338c111.962,0 211.101,88.4717 280.876,231.509 66.0461,135.397 106.899,321.691 106.899,526.785 0,205.094 -40.8532,391.389 -106.899,526.785 -69.7737,143.035 -168.913,231.509 -280.876,231.509 -111.963,0 -211.102,-88.4729 -280.877,-231.509 -66.0473,-135.396 -106.9,-321.69 -106.9,-526.785 0,-205.094 40.8532,-391.388 106.9,-526.785 69.7749,-143.036 168.913,-231.509 280.877,-231.509zm17.6433 361.696c46.6937,0 86.902,48.5103 114.164,126.934 24.2185,69.6745 39.2008,165.07 39.2008,269.664 0,104.595 -14.9823,199.99 -39.2008,269.664 -27.2622,78.4241 -67.4717,126.933 -114.164,126.933 -46.6926,0 -86.902,-48.5091 -114.164,-126.933 -24.2185,-69.6733 -39.2008,-165.069 -39.2008,-269.664 0,-104.594 14.9823,-199.989 39.2008,-269.664 27.2622,-78.4241 67.4705,-126.934 114.164,-126.934z"/>
   <path id="_289959088" class="fil3" d="M1455.06 1023.63c0,95.9032 -11.5713,202.335 -43.1906,293.296 -28.2449,81.254 -84.6284,175.28 -182.153,175.28 -97.5261,0 -153.908,-94.0265 -182.153,-175.28 -31.6193,-90.9615 -43.1906,-197.393 -43.1906,-293.296 0,-95.902 11.5713,-202.335 43.1906,-293.297 28.2449,-81.2552 84.626,-175.279 182.153,-175.279 97.5272,0 153.908,94.0241 182.153,175.279 31.6193,90.9627 43.1906,197.395 43.1906,293.297zm-225.344 -396.598c46.6937,0 86.902,48.5103 114.164,126.934 24.2185,69.6745 39.2008,165.07 39.2008,269.664 0,104.595 -14.9823,199.99 -39.2008,269.664 -27.2622,78.4241 -67.4717,126.933 -114.164,126.933 -46.6926,0 -86.902,-48.5091 -114.164,-126.933 -24.2185,-69.6733 -39.2008,-165.069 -39.2008,-269.664 0,-104.594 14.9823,-199.989 39.2008,-269.664 27.2622,-78.4241 67.4705,-126.934 114.164,-126.934z"/>
   <path id="_289959328" class="fil4" d="M1099.96 256.749c-22.9925,-0.641339 -47.067,-0.855119 -71.6316,-0.702756 -84.4796,0.523229 -174.657,5.43189 -245.791,12.2102 -17.4201,1.66063 -35.3504,7.35473 -53.4213,16.7681l79.3253 35.8004c10.1811,3.46536 15.039,10.3488 10.8496,15.3732 -4.19174,5.02559 -15.8421,6.29056 -26.0232,2.82638l-103.963 -22.324c-1.46693,-0.499607 -2.87717,-1.03465 -4.23071,-1.60276 -17.1768,14.5039 -34.2095,32.1544 -50.7851,52.6949l87.2434 39.3733c10.1823,3.46418 15.039,10.3488 10.8508,15.3732 -4.19174,5.02441 -15.8433,6.28937 -26.0244,2.82638l-98.8654 -21.2303c-13.2614,19.6099 -26.0882,41.1118 -38.2996,64.3583l88.1505 39.7819c10.1811,3.46536 15.039,10.3488 10.8496,15.3744 -4.19174,5.02441 -15.8421,6.28937 -26.0244,2.8252l-91.7847 -19.7091c-3.37441,7.34056 -6.68859,14.8217 -9.93544,22.4457 -7.98898,18.7595 -15.6248,38.4083 -22.8449,58.8721 1.75984,0.451181 3.50906,0.969686 5.23583,1.55788l89.0611 40.1929c10.1811,3.46536 15.039,10.3488 10.8496,15.3744 -4.19055,5.02441 -15.8421,6.28937 -26.0232,2.82638l-92.3953 -19.8414c-6.40985,20.6941 -12.3874,42.1134 -17.8713,64.2071 2.87362,0.597638 5.7378,1.37008 8.54528,2.32559l89.0611 40.1941c10.1811,3.46418 15.039,10.3488 10.8496,15.3732 -4.19055,5.02559 -15.8421,6.29056 -26.0232,2.82638l-91.8686 -19.728c-5.10119,24.0213 -9.60946,48.7477 -13.4622,74.1142l85.8556 38.7461c10.1811,3.46536 15.039,10.3488 10.8496,15.3744 -4.19174,5.02441 -15.8421,6.28937 -26.0244,2.82638l-76.2083 -16.3642c-2.66221,22.0807 -4.82481,44.5985 -6.43819,67.5154l95.0434 23.5949c10.7232,1.61221 16.9429,7.51418 13.8933,13.1811 -3.05197,5.66693 -14.2193,8.95394 -24.9414,7.34292l-86.2761 -2.95394c-0.762993,18.7524 -1.16102,37.7433 -1.16102,56.9611l0.00354331 0.923623c0.640158,0.0779528 1.27913,0.164173 1.91693,0.261024l95.8831 23.804c10.7232,1.61221 16.9429,7.51418 13.8933,13.1811 -3.05197,5.66575 -14.2181,8.95394 -24.9414,7.34174l-86.132 -2.94803c0.640158,22.0524 1.77047,43.8508 3.35788,65.354l93.8221 23.2925c10.7232,1.61221 16.9429,7.51418 13.8933,13.1811 -3.05197,5.66693 -14.2181,8.95394 -24.9414,7.34292l-79.1528 -2.70945c1.66417,16.2366 3.59174,32.2796 5.7567,48.1217 1.67835,0.134646 3.35788,0.324803 5.03268,0.577559l95.8831 23.8028c10.7221,1.61339 16.9429,7.51536 13.8921,13.1811 -3.05079,5.66693 -14.2181,8.95394 -24.9402,7.34292l-83.478 -2.85709c3.51024,20.9669 7.44568,41.5229 11.7638,61.6276 6.34134,-0.766536 13.1268,-0.724016 19.8248,0.283465l95.8831 23.804c10.7221,1.61221 16.9429,7.51418 13.8921,13.1811 -3.05197,5.66693 -14.2181,8.95394 -24.9402,7.34174l-95.0871 -3.25512c6.91536,27.8162 14.5642,54.6426 22.839,80.3528 4.96418,-0.281103 10.1126,-0.0755906 15.2091,0.689764l95.8831 23.804c10.7221,1.61221 16.9429,7.51536 13.8921,13.1811 -3.05079,5.66693 -14.2181,8.95394 -24.9402,7.34292l-85.5839 -2.92914c4.76457,13.0099 9.68505,25.6843 14.7508,38.0008 2.09055,5.08111 4.20945,10.102 6.35434,15.0662 6.75473,-0.960237 14.0717,-0.994489 21.2882,0.090945l95.8831 23.804c10.7221,1.61221 16.9417,7.51418 13.8921,13.1811 -3.05197,5.66575 -14.2181,8.95394 -24.9414,7.34174l-86.9304 -2.9752c5.97993,12.0496 12.1217,23.6575 18.3992,34.8248 5.98229,-0.618898 12.3225,-0.519685 18.5858,0.421654l95.8831 23.804c10.7221,1.61221 16.9429,7.51536 13.8921,13.1811 -3.05197,5.66693 -14.2181,8.95394 -24.9402,7.34292l-77.6835 -2.65866c9.05079,13.5803 18.3095,26.2689 27.7335,37.989 6.35906,-0.773623 13.1669,-0.735827 19.8874,0.275197l95.8831 23.804c10.7221,1.61221 16.9429,7.51536 13.8921,13.1811 -3.05197,5.66693 -14.2181,8.95394 -24.9402,7.34292l-65.5028 -2.24292c34.363,31.6878 69.8753,50.5713 104.337,54.176 108.997,11.3965 181.968,8.27953 310.449,2.56063 -20.1815,-10.5614 -39.1583,-23.5441 -56.9292,-38.3386 -4.80945,2.25945 -10.7539,3.99449 -17.5595,4.95709l-113.479 3.65315c-11.4,1.61102 -23.2748,-1.67599 -26.5181,-7.34292 -3.24331,-5.66575 3.36851,-11.5689 14.7685,-13.1811l101.947 -23.8028c0.967324,-0.137008 1.93583,-0.256299 2.90433,-0.357874 -10.3453,-11.126 -20.1815,-22.8225 -29.5099,-34.9229 -5.16496,2.84528 -11.948,5.02796 -19.9122,6.15473l-113.48 3.65315c-11.3988,1.61102 -23.2736,-1.67599 -26.5169,-7.34292 -3.24331,-5.66575 3.36851,-11.5689 14.7685,-13.1811l101.947 -23.804c6.12402,-0.86693 12.3177,-1.01693 18.2209,-0.5563 -10.7091,-16.2638 -20.5831,-32.9327 -29.6256,-49.6607 -1.97717,0.452363 -4.05118,0.837402 -6.21142,1.14213l-113.48 3.65315c-11.3988,1.61221 -23.2736,-1.67599 -26.5169,-7.34174 -3.24331,-5.66693 3.36851,-11.5689 14.7685,-13.1823l101.946 -23.8028c3.09213,-0.437008 6.20079,-0.692127 9.27993,-0.778347 -7.59213,-16.2839 -14.7213,-32.9162 -21.3957,-49.8485l-108.755 3.50079c-11.4,1.61102 -23.2748,-1.67599 -26.5181,-7.34292 -3.24331,-5.66575 3.36851,-11.5677 14.7685,-13.1811l101.947 -23.8028c1.12559,-0.16063 2.25236,-0.294095 3.3815,-0.4063 -7.58032,-22.0807 -14.452,-44.5654 -20.6516,-67.3406 -1.25315,0.243307 -2.53937,0.459449 -3.85985,0.646063l-113.48 3.65315c-11.3988,1.61221 -23.2736,-1.6748 -26.5169,-7.34174 -3.24331,-5.66693 3.36851,-11.5689 14.7685,-13.1811l101.946 -23.804c5.6504,-0.798426 11.3563,-0.989765 16.8414,-0.654331 -5.1567,-21.9768 -9.7193,-44.1555 -13.7209,-66.4335 -0.838583,0.146457 -1.69016,0.284646 -2.55709,0.4063l-113.48 3.65315c-11.4,1.61221 -23.2736,-1.6748 -26.5169,-7.34174 -3.24331,-5.66693 3.36851,-11.5689 14.7685,-13.1811l101.946 -23.804c6.44882,-0.911812 12.9732,-1.03228 19.1551,-0.478347 -3.52914,-23.7118 -6.44528,-47.4685 -8.78268,-71.152l-104.961 21.3036c-10.8213,3.47362 -23.2099,2.22047 -27.6721,-2.79921 -4.46103,-5.02087 0.690945,-11.9102 11.511,-15.3851l94.6442 -40.2827c7.55079,-2.42599 15.4878,-3.68504 22.9878,-3.87048 -1.67244,-23.4626 -2.79213,-46.7811 -3.39213,-69.841l-99.143 28.9855c-10.3819,4.34882 -22.8555,4.12087 -27.8587,-0.509056 -5.00315,-4.63111 -0.643701,-11.9114 9.7382,-16.2614l89.6953 -47.889c8.74961,-3.66614 18.248,-5.69174 27.0402,-6.10276 0.0188977,-22.8024 0.537402,-45.9319 1.59803,-69.2753l-96.2375 28.1351c-10.3819,4.34882 -22.8567,4.12087 -27.8599,-0.509056 -5.00315,-4.63111 -0.64252,-11.9114 9.7382,-16.2614l89.6965 -47.889c8.79804,-3.68622 18.3543,-5.71182 27.1878,-6.10867 1.74213,-23.8193 4.05709,-47.7792 6.97914,-71.7579l-98.9245 28.9205c-10.3831,4.34882 -22.8567,4.12087 -27.8599,-0.507874 -5.00315,-4.63111 -0.64252,-11.9114 9.7382,-16.2614l89.6965 -47.889c10.7953,-4.52363 22.7315,-6.54804 33.0709,-6.12638 4.39607,-28.9347 9.70631,-57.7926 15.998,-86.3564l-94.5142 27.6319c-10.3831,4.34882 -22.8567,4.12087 -27.8599,-0.509056 -5.00315,-4.63111 -0.64252,-11.9114 9.7382,-16.2614l89.6965 -47.889c10.8614,-4.55079 22.8768,-6.57284 33.2622,-6.11811 5.13426,-19.8425 10.7681,-39.4843 16.9252,-58.8508l-95.7757 17.4508c-10.9122,3.25866 -23.2666,1.75984 -27.5918,-3.34725 -4.3252,-5.10827 1.01339,-11.8913 11.9232,-15.1536l95.7001 -38.4c10.115,-3.02362 20.8571,-3.98268 30.3024,-3.11103 6.53977,-17.8169 13.5532,-35.341 21.0662,-52.5083l-94.0902 4.36181c-11.3669,1.77284 -23.302,-1.34764 -26.654,-6.96733 -3.35197,-5.61969 3.14646,-11.6138 14.5134,-13.3878l101.476 -25.2414c8.22284,-1.28386 16.5945,-1.27323 24.2362,-0.20315 9.63898,-19.0583 20.361,-38.2004 32.165,-56.9079l-95.7485 4.43859c-11.3681,1.77284 -23.302,-1.34646 -26.654,-6.96733 -3.35315,-5.61969 3.14528,-11.6138 14.5134,-13.3866l101.474 -25.2425c11.7201,-1.82835 23.7414,-1.0311 33.5173,1.72087 12.3449,-16.4717 25.6158,-32.2559 39.8055,-46.9536l-72.3414 3.35433c-11.3669,1.77284 -23.302,-1.34764 -26.654,-6.96733 -3.35315,-5.62087 3.14528,-11.6138 14.5134,-13.3878l101.474 -25.2425c10.2461,-1.59803 20.7225,-1.18937 29.7284,0.777166 15.6591,-11.7118 32.1874,-22.0028 49.5898,-30.4866z"/>
   <path id="_289959496" class="fil5" d="M1373.08 1023.63c0,-50.8985 -3.56339,-99.5115 -10.0169,-143.914 -6.69567,-46.0642 -16.4788,-87.6048 -28.5969,-122.469 -13.4504,-38.6941 -30.0307,-69.73 -48.9059,-90.717 -17.0941,-19.0063 -35.9504,-29.4981 -55.8449,-29.4981 -19.8945,0 -38.7508,10.4917 -55.8449,29.4981 -18.8752,20.987 -35.4555,52.0229 -48.9059,90.717 -12.1181,34.8638 -21.9012,76.4044 -28.5969,122.469 -6.45355,44.4024 -10.0169,93.0154 -10.0169,143.914 0,50.8996 3.56339,99.5127 10.0169,143.914 6.69567,46.0642 16.4788,87.6048 28.5969,122.469 13.4504,38.6941 30.0307,69.7288 48.9059,90.7158 17.0941,19.0063 35.9516,29.4981 55.8449,29.4981 19.8933,0 38.7508,-10.4917 55.8449,-29.4981 18.8752,-20.987 35.4555,-52.0217 48.9059,-90.7158 12.1181,-34.8638 21.9012,-76.4044 28.5969,-122.469 6.45355,-44.4012 10.0169,-93.0142 10.0169,-143.914zm9.74765 -146.727c6.60591,45.45 10.2532,95.0233 10.2532,146.727 0,51.7063 -3.64725,101.278 -10.2532,146.727 -6.87166,47.2689 -16.976,90.0851 -29.5347,126.217 -14.3268,41.2158 -32.2524,74.5678 -52.8886,97.5119 -20.9445,23.2866 -44.7768,36.1406 -70.689,36.1406 -25.9122,0 -49.7445,-12.8539 -70.689,-36.1406 -20.6362,-22.9441 -38.5618,-56.2961 -52.8886,-97.5119 -12.5587,-36.1323 -22.663,-78.9485 -29.5347,-126.217 -6.60591,-45.4489 -10.2532,-95.0209 -10.2532,-146.727 0,-51.704 3.64725,-101.277 10.2532,-146.727 6.87166,-47.2689 16.976,-90.0851 29.5347,-126.217 14.3268,-41.2158 32.2524,-74.569 52.8886,-97.5131 20.9445,-23.2866 44.7756,-36.1406 70.689,-36.1406 25.9134,0 49.7445,12.8539 70.689,36.1406 20.6362,22.9441 38.5618,56.2973 52.8886,97.5131 12.5587,36.1323 22.663,78.9485 29.5347,126.217z"/>
  </g>
 </g>
 <rect class="fil6" width="2048" height="2048"/>
</svg>
