<?xml version="1.0" encoding="UTF-8"?>
<!DOCTYPE svg PUBLIC "-//W3C//DTD SVG 1.1//EN" "http://www.w3.org/Graphics/SVG/1.1/DTD/svg11.dtd">
<!-- Creator: CorelDRAW -->
<svg xmlns="http://www.w3.org/2000/svg" xml:space="preserve" width="2048px" height="2048px" style="shape-rendering:geometricPrecision; text-rendering:geometricPrecision; image-rendering:optimizeQuality; fill-rule:evenodd; clip-rule:evenodd"
viewBox="0 0 2048 2048"
 xmlns:xlink="http://www.w3.org/1999/xlink">
 <defs>
  <style type="text/css">
   <![CDATA[
    .fil6 {fill:none}
    .fil5 {fill:#454545}
    .fil4 {fill:#555555}
    .fil2 {fill:#767676}
    .fil3 {fill:#BEBEBE}
    .fil0 {fill:#414141;fill-rule:nonzero}
    .fil1 {fill:#545454;fill-rule:nonzero}
   ]]>
  </style>
 </defs>
 <g id="Layer_x0020_1">
  <metadata id="CorelCorpID_0Corel-Layer"/>
  <g id="_289961320">
   <polygon id="_289962400" class="fil0" points="366.271,1051.49 1023.97,1051.49 1023.97,996.513 366.271,996.513 "/>
   <path id="_289962664" class="fil1" d="M457.009 1024l-0.0011811 -0.0011811c0.0011811,-18.2138 -7.43505,-34.7575 -19.4138,-46.7339 -11.9776,-11.9776 -28.5213,-19.415 -46.7339,-19.415l-98.5017 15.5941 -36.3579 50.3741 36.3579 49.6654 98.5017 16.6654c18.2126,0 34.7563,-7.43623 46.7339,-19.4138 11.9776,-11.9776 19.4138,-28.5213 19.415,-46.7351z"/>
   <path id="_289962424" class="fil2" d="M1068.33 1166.01l0.0011811 -284.025 3.32953 0 0 4.90867c0,24.7477 20.2477,44.9953 44.9953,44.9953l0 0c24.7477,0 44.9953,-20.2477 44.9953,-44.9953l0 -4.90867 536.615 0c51.5528,0 93.7359,42.1843 93.7359,93.7406l0 96.5446c0,51.5563 -42.1831,93.7394 -93.7359,93.7394l-536.614 0 -0.0011811 -4.90985c0,-24.7453 -20.2477,-44.9929 -44.9941,-44.9929l0 0c-24.7477,0 -44.9965,20.2477 -44.9965,44.9941l0 4.90867 -3.33071 0z"/>
   <path id="_289962136" class="fil3" d="M1789.13 952.777c1.86851,7.35119 2.86536,15.0378 2.86536,22.9488l0 96.5481c0,10.076 -1.61929,19.7882 -4.59449,28.9028 -8.36812,-12.8445 -14.165,-40.7008 -14.165,-73.0028 0,-34.4835 6.60709,-63.9012 15.8941,-75.3969z"/>
   <path id="_289962208" class="fil4" d="M1068.33 1166.01l-59.9918 -149.848 59.993 -134.177 3.32953 0 0 4.90867c0,24.7477 20.2477,44.9953 44.9953,44.9953l0 0c24.7477,0 44.9953,-20.2477 44.9953,-44.9953l0 -4.90867 2.04095 0 0 284.025 -2.03977 0 -0.0011811 -4.90985c0,-24.7453 -20.2477,-44.9929 -44.9941,-44.9929l0 0c-24.7477,0 -44.9965,20.2477 -44.9965,44.9941l0 4.90867 -3.33071 0z"/>
   <path id="_289961992" class="fil2" d="M1071.5 1169.22l0 -290.444c0,-6.38386 -5.22166,-11.6055 -11.6043,-11.6055l-66.7819 0c-6.38268,0 -11.6043,5.22284 -11.6043,11.6043l0 290.445c0,6.38268 5.22166,11.6055 11.6043,11.6043l66.7819 0c6.38268,0 11.6043,-5.22166 11.6043,-11.6043z"/>
   <path id="_289962112" class="fil4" d="M1702.34 1104.47l0 0c0,-9.54804 -7.81064,-17.3599 -17.3587,-17.3599l-449.305 0c-9.54804,0 -17.3587,7.81182 -17.3587,17.3599l0 0c0,9.54804 7.81182,17.3587 17.3599,17.3587l449.302 0c9.54922,0.0011811 17.3599,-7.81064 17.3599,-17.3587z"/>
   <path id="_289961872" class="fil4" d="M1702.34 1024l0 0c0,-9.54922 -7.81064,-17.3599 -17.3587,-17.3599l-449.303 -0.0011811c-9.54922,0.0011811 -17.3599,7.81182 -17.3599,17.3599l0 0c0,9.54804 7.81182,17.3599 17.3599,17.3599l449.302 0c9.54804,0 17.3599,-7.81182 17.3599,-17.3587z"/>
   <path id="_289961800" class="fil4" d="M1702.34 943.531l0 0c0,-9.54804 -7.81182,-17.3599 -17.3599,-17.3599l-449.302 0c-9.54804,0 -17.3599,7.81182 -17.3599,17.3599l0 0c0,9.54686 7.81064,17.3587 17.3599,17.3587l449.302 0c9.54922,0 17.3599,-7.81182 17.3599,-17.3587z"/>
   <polygon id="_289961344" class="fil5" points="354.792,990.711 390.86,957.851 292.358,973.445 257.751,1021.39 "/>
   <polygon id="_289961776" class="fil5" points="354.792,1057.29 258.128,1026.73 292.358,1073.48 390.86,1090.15 "/>
  </g>
 </g>
 <rect class="fil6" width="2048" height="2048"/>
</svg>
