<?xml version="1.0" encoding="UTF-8"?>
<!DOCTYPE svg PUBLIC "-//W3C//DTD SVG 1.1//EN" "http://www.w3.org/Graphics/SVG/1.1/DTD/svg11.dtd">
<!-- Creator: CorelDRAW -->
<svg xmlns="http://www.w3.org/2000/svg" xml:space="preserve" width="2048px" height="2048px" style="shape-rendering:geometricPrecision; text-rendering:geometricPrecision; image-rendering:optimizeQuality; fill-rule:evenodd; clip-rule:evenodd"
viewBox="0 0 2048 2048"
 xmlns:xlink="http://www.w3.org/1999/xlink">
 <defs>
  <style type="text/css">
   <![CDATA[
    .fil11 {fill:none}
    .fil3 {fill:#202020}
    .fil5 {fill:#2F2F2F}
    .fil4 {fill:#414141}
    .fil10 {fill:#565656}
    .fil7 {fill:#6C6C6C}
    .fil9 {fill:#767676}
    .fil6 {fill:#9B9B9C}
    .fil8 {fill:#AEAEAF}
    .fil1 {fill:#D1D1D1}
    .fil0 {fill:#E1E1E2}
    .fil2 {fill:#2F2F2F;fill-rule:nonzero}
   ]]>
  </style>
 </defs>
 <g id="Layer_x0020_1">
  <metadata id="CorelCorpID_0Corel-Layer"/>
  <g id="_289969216">
   <path id="_289971112" class="fil0" d="M1024 1761.28c-407.189,0 -737.28,-330.091 -737.28,-737.28 0,-407.189 330.091,-737.28 737.28,-737.28 407.189,0 737.28,330.091 737.28,737.28 0,407.189 -330.091,737.28 -737.28,737.28z"/>
   <path id="_289970608" class="fil1" d="M1024 1761.28c-407.189,0 -737.28,-330.091 -737.28,-737.28 0,-407.189 330.091,-737.28 737.28,-737.28l0 1474.56z"/>
   <path id="_289970896" class="fil2" d="M1024 1792c-212.073,0 -404.074,-85.9619 -543.056,-224.945 -138.983,-138.982 -224.945,-330.983 -224.945,-543.056 0,-212.073 85.9619,-404.074 224.945,-543.056 138.982,-138.983 330.983,-224.945 543.056,-224.945 212.073,0 404.074,85.9619 543.056,224.945 138.983,138.982 224.945,330.983 224.945,543.056 0,212.073 -85.9619,404.074 -224.945,543.056 -138.982,138.983 -330.983,224.945 -543.056,224.945zm-499.615 -268.386c127.859,127.862 304.5,206.945 499.615,206.945 195.115,0 371.756,-79.0831 499.615,-206.945 127.862,-127.859 206.945,-304.5 206.945,-499.615 0,-195.115 -79.0831,-371.756 -206.945,-499.615 -127.859,-127.862 -304.5,-206.945 -499.615,-206.945 -195.115,0 -371.756,79.0831 -499.615,206.945 -127.862,127.859 -206.945,304.5 -206.945,499.615 0,195.115 79.0831,371.756 206.945,499.615z"/>
   <path id="_289970848" class="fil3" d="M966.657 961.624l-392.792 -188.571c-14.0705,-6.72875 -30.9343,-0.777166 -37.663,13.2921 -6.72875,14.0705 -0.777166,30.9343 13.2921,37.6618l389.618 187.047c-0.633071,4.09489 -0.962599,8.29134 -0.962599,12.5646 0,22.5484 9.14292,42.9662 23.9232,57.7453 14.7803,14.7791 35.1969,23.9221 57.7465,23.9221 22.5484,0 42.9662,-9.14292 57.7465,-23.9221 14.7791,-14.7791 23.9232,-35.1969 23.9232,-57.7453 0,-22.5496 -9.1441,-42.9685 -23.9232,-57.7465 -14.7803,-14.7803 -35.1981,-23.9232 -57.7465,-23.9232 -20.3008,0 -38.8748,7.4126 -53.1615,19.676z"/>
   <path id="_289970824" class="fil4" d="M1020.13 1051.22c-7.52127,0 -14.3291,-3.04843 -19.252,-7.97127 -4.92284,-4.92284 -7.97008,-11.7307 -7.97008,-19.2508 0,-7.52127 3.04725,-14.3291 7.97008,-19.252 4.92284,-4.92284 11.7307,-7.97008 19.252,-7.97008 7.52127,0 14.3291,3.04725 19.252,7.97008 4.92284,4.92284 7.97008,11.7307 7.97008,19.252 0,7.52008 -3.04725,14.328 -7.97008,19.2508 -4.92284,4.92284 -11.7307,7.97127 -19.252,7.97127z"/>
   <path id="_289970800" class="fil5" d="M460.541 1507.96c144.409,143.806 343.551,232.693 563.459,232.693 219.907,0 419.05,-88.8863 563.458,-232.693 -277.836,-161.013 -849.14,-160.962 -1126.92,0z"/>
   <polygon id="_289969744" class="fil6" points="1329.31,1244.66 1329.31,1198.4 1383.83,1198.4 1383.83,1172.02 1329.31,1172.02 1329.31,1153.73 1385.06,1153.73 1385.06,1127.34 1299.06,1127.34 1299.06,1244.66 "/>
   <polygon id="_289970248" class="fil7" points="762.503,1244.66 762.503,1218.27 706.749,1218.27 706.749,1198.4 761.273,1198.4 761.273,1172.02 706.749,1172.02 706.749,1153.73 762.503,1153.73 762.503,1127.34 676.497,1127.34 676.497,1244.66 "/>
   <path id="_289970080" class="fil8" d="M1135.65 1556.6l0 134.877c0,12.5953 -10.2106,22.8059 -22.8059,22.8059l-127.712 0c-12.5941,0 -22.8059,-10.2106 -22.8059,-22.8059l0 -134.877c2.50158,0.211417 5.113,0.323622 7.80119,0.323622l157.72 0c2.68937,0 5.30197,-0.112205 7.80237,-0.323622zm-150.517 -111.047l127.712 0c12.5953,0 22.8059,10.2106 22.8059,22.8059l0 66.0851c-2.5004,-0.211417 -5.113,-0.324803 -7.80237,-0.324803l-157.72 0c-2.68819,0 -5.29961,0.113386 -7.80119,0.324803l0 -15.5327 -0.485433 -0.114567c-19.6949,-4.59685 -26.0929,-4.96181 -26.5559,-2.97638 -0.838583,3.59174 0.863386,11.2075 2.91733,20.4 4.49055,20.1 10.3394,46.2804 -0.333071,74.4201 -0.928347,2.45079 0.400394,7.19646 1.98189,12.8445 1.63583,5.84528 3.45827,12.3484 4.10315,20.1036 0.516142,6.27166 -4.15158,11.7768 -10.4232,12.2929 -6.27284,0.516142 -11.778,-4.1504 -12.2941,-10.4232 -0.478347,-5.75197 -1.96417,-11.0575 -3.3,-15.8268 -2.67756,-9.56221 -4.92756,-17.5949 -1.35827,-27.0071 8.29607,-21.874 3.28701,-44.2937 -0.557481,-61.5048 -2.68347,-12.0071 -4.90512,-21.952 -2.91851,-30.4666 3.66142,-15.6886 16.1504,-22.0158 49.2237,-15.0756l0 -27.2185c0,-12.5953 10.2118,-22.8059 22.8059,-22.8059z"/>
   <path id="_289969456" class="fil4" d="M1046.63 1001.37c-5.78741,-5.78741 -13.7894,-9.36969 -22.6299,-9.36969 -8.84056,0 -16.8425,3.58229 -22.6299,9.36969 -5.78741,5.78741 -9.36969,13.7894 -9.36969,22.6299 0,8.84056 3.58229,16.8425 9.36969,22.6299 5.78741,5.78741 13.7894,9.36969 22.6299,9.36969 8.84056,0 16.8425,-3.58229 22.6299,-9.36969 5.78741,-5.78741 9.36969,-13.7894 9.36969,-22.6299 0,-8.84056 -3.58229,-16.8425 -9.36969,-22.6299z"/>
   <path id="_289969000" class="fil9" d="M548.997 1416.28l0.459449 0.555119 0.27874 0.337796 150.06 -148.632c6.24686,-6.24686 16.3784,-6.24686 22.6252,0 6.24686,6.24686 6.24686,16.3784 0,22.6252l-164.16 162.598c-0.8563,0.8563 -1.78583,1.59449 -2.76732,2.21575 -0.696851,0.774804 -1.44921,1.51299 -2.26181,2.20866 -10.0441,8.59371 -25.1563,7.41851 -33.75,-2.62559 -1.45748,-1.70079 -2.90433,-3.41221 -4.3441,-5.12717l-0.134646 -0.16063 33.9945 -33.9945z"/>
   <path id="_289969480" class="fil10" d="M1492.51 1455.98c-0.981497,-0.62126 -1.91103,-1.35945 -2.76732,-2.21575l-164.16 -162.598c-6.24686,-6.24686 -6.24686,-16.3784 0,-22.6252 6.24686,-6.24686 16.3784,-6.24686 22.6252,0l150.06 148.632c44.0752,-53.1059 79.4127,-113.754 103.784,-179.733 22.7953,-61.7103 35.9835,-128.127 37.7469,-197.439l-103.794 0c-8.83583,0 -16.0004,-7.16457 -16.0004,-16.0004 0,-8.83583 7.16457,-16.0004 16.0004,-16.0004l103.795 0c-4.02874,-158.03 -67.5756,-301.26 -169.054,-408.117l-73.3902 73.3902c-6.24686,6.24686 -16.3784,6.24686 -22.6252,0 -6.24686,-6.24686 -6.24686,-16.3784 0,-22.6252l73.3902 -73.3902c-106.857,-101.478 -250.088,-165.025 -408.117,-169.054l0 192.858c0,8.83583 -7.16457,16.0004 -16.0004,16.0004 -8.83583,0 -16.0004,-7.16457 -16.0004,-16.0004l0 -192.858c-158.03,4.02874 -301.26,67.5756 -408.117,169.054l73.3902 73.3902c6.24686,6.24686 6.24686,16.3784 0,22.6252 -6.24686,6.24686 -16.3784,6.24686 -22.6252,0l-73.3902 -73.3902c-101.478,106.857 -165.021,250.087 -169.05,408.117l103.793 0c8.83583,0 16.0004,7.16457 16.0004,16.0004 0,8.83583 -7.16457,16.0004 -16.0004,16.0004l-103.795 0c1.76339,69.3119 14.9516,135.729 37.7469,197.439 24.2351,65.6091 59.3138,125.947 103.045,178.84l-33.9945 33.9945c-48.5422,-57.9 -87.3969,-124.178 -114.051,-196.335 -26.4851,-71.6953 -40.9524,-149.159 -40.9524,-229.94 0,-183.357 74.3221,-349.357 194.483,-469.518 120.161,-120.161 286.161,-194.483 469.518,-194.483 183.357,0 349.357,74.3221 469.518,194.483 120.161,120.161 194.483,286.161 194.483,469.518 0,80.7804 -14.4673,158.244 -40.9524,229.94 -27.4689,74.3634 -67.8945,142.484 -118.53,201.623 -8.59371,10.0441 -23.7059,11.2193 -33.75,2.62559 -0.812599,-0.69567 -1.56496,-1.43386 -2.26181,-2.20866z"/>
   <path id="_289968880" class="fil6" d="M1498.41 1416.28l-0.459449 0.555119 -0.27874 0.337796 -150.06 -148.632c-6.24686,-6.24686 -16.3784,-6.24686 -22.6252,0 -6.24686,6.24686 -6.24686,16.3784 0,22.6252l164.16 162.598c0.8563,0.8563 1.78583,1.59449 2.76732,2.21575 0.696851,0.774804 1.44921,1.51299 2.26181,2.20866 10.0441,8.59371 25.1563,7.41851 33.75,-2.62559 1.45748,-1.70079 2.90433,-3.41221 4.3441,-5.12717l0.134646 -0.16063 -33.9945 -33.9945z"/>
  </g>
 </g>
 <rect class="fil11" width="2048" height="2048"/>
</svg>
