<?xml version="1.0" encoding="UTF-8"?>
<!DOCTYPE svg PUBLIC "-//W3C//DTD SVG 1.1//EN" "http://www.w3.org/Graphics/SVG/1.1/DTD/svg11.dtd">
<!-- Creator: CorelDRAW -->
<svg xmlns="http://www.w3.org/2000/svg" xml:space="preserve" width="2048px" height="2048px" style="shape-rendering:geometricPrecision; text-rendering:geometricPrecision; image-rendering:optimizeQuality; fill-rule:evenodd; clip-rule:evenodd"
viewBox="0 0 2048 2048"
 xmlns:xlink="http://www.w3.org/1999/xlink">
 <defs>
  <style type="text/css">
   <![CDATA[
    .fil21 {fill:none}
    .fil14 {fill:#2F2F2F}
    .fil5 {fill:#363636}
    .fil4 {fill:#3E3E3E}
    .fil8 {fill:#414141}
    .fil15 {fill:#444444}
    .fil3 {fill:#585959}
    .fil6 {fill:#616161}
    .fil7 {fill:#BEBEBE}
    .fil12 {fill:#E1E1E2}
    .fil11 {fill:#6B6B6B;fill-rule:nonzero}
    .fil13 {fill:#797979;fill-rule:nonzero}
    .fil2 {fill:#8A8A8A;fill-rule:nonzero}
    .fil1 {fill:#919191;fill-rule:nonzero}
    .fil10 {fill:#959595;fill-rule:nonzero}
    .fil0 {fill:#B6B6B6;fill-rule:nonzero}
    .fil9 {fill:#BABABB;fill-rule:nonzero}
    .fil20 {fill:#BDBDBD;fill-rule:nonzero}
    .fil16 {fill:#C4C4C4;fill-rule:nonzero}
    .fil17 {fill:#D2D2D2;fill-rule:nonzero}
    .fil18 {fill:#DADADA;fill-rule:nonzero}
    .fil19 {fill:white;fill-rule:nonzero}
   ]]>
  </style>
 </defs>
 <g id="Layer_x0020_1">
  <metadata id="CorelCorpID_0Corel-Layer"/>
  <path class="fil0" d="M464 255.999l1120 0c17.6728,0 32.0008,14.328 32.0008,32.0008 0,52.8319 -21.5917,100.841 -56.3752,135.625 -34.7835,34.7835 -82.7918,56.3752 -135.625,56.3752l-800.001 0c-52.8331,0 -100.841,-21.5917 -135.625,-56.3752 -34.7835,-34.7835 -56.3752,-82.793 -56.3752,-135.625 0,-17.6728 14.328,-32.0008 32.0008,-32.0008z"/>
  <path class="fil1" d="M255.998 256.002c-17.6728,0 -32.0008,14.328 -32.0008,32.0008 0,17.6728 14.328,32.0008 32.0008,32.0008l1536 0c17.6728,0 32.0008,-14.328 32.0008,-32.0008 0,-17.6728 -14.328,-32.0008 -32.0008,-32.0008l-1536 0z"/>
  <g id="_289985080">
   <path id="_289956184" class="fil2" d="M1052.94 1144.57c72.7536,-0.464174 147.669,-0.941339 189.163,37.4044l0.0767717 -0.0850394c0.308268,0.284646 0.607087,0.576378 0.895276,0.872835l185.178 185.178 0.00236221 -0.0011811c9.10985,9.10867 9.10985,23.8807 0,32.9906 -4.55433,4.55552 -10.5248,6.83268 -16.4953,6.83268l0 0 -436.249 0c-0.950788,0 -1.88858,-0.056693 -2.80866,-0.167717 -0.921261,0.111024 -1.85788,0.167717 -2.80866,0.167717l-436.249 0 0 0c-5.97048,0 -11.9421,-2.27717 -16.4965,-6.83268 -9.10867,-9.10985 -9.10867,-23.8819 0,-32.9906l0.00236221 0.0011811 132.413 -185.178c0.28937,-0.296457 0.587008,-0.588189 0.895276,-0.872835l0.0779528 0.0850394c41.4933,-38.3457 169.174,-37.8685 241.928,-37.4044 50.1071,0.318898 110.367,0.318898 160.474,0zm-160.656 46.4752c18.5351,0.11811 36.9248,0.23504 54.28,-0.246851l0 170.307 -356.602 0 92.8264 -145.59 -0.0543308 -0.0543308c28.3264,-25.2284 146.249,-24.8185 209.55,-24.4158zm160.837 0c-18.5339,0.11811 -36.9248,0.23504 -54.28,-0.246851l0 170.307 356.602 0 -145.591 -145.59 0.0543308 -0.0543308c-28.3264,-25.2284 -93.4843,-24.8185 -156.786,-24.4158z"/>
   <ellipse id="_289956544" class="fil3" cx="1410.32" cy="1546.23" rx="209.47" ry="102.738"/>
   <path id="_289956040" class="fil4" d="M1412.41 1502.68c0.185433,-3.17599 2.91142,-5.59961 6.08741,-5.41418l-0.0011811 0.0129921c4.37008,0.256299 8.60434,0.699213 12.6969,1.31929 4.03583,0.612993 8.0752,1.41732 12.1063,2.40591 0.244488,0.0425197 0.488977,0.101575 0.733465,0.177165 3.03662,0.949607 4.72796,4.18229 3.77835,7.21772l-0.00944883 -0.00354331 -0.111024 0.354331 4.0004 1.25197 0.0106299 -0.0318898c0.0543308,-0.218504 0.121654,-0.437008 0.204331,-0.651969 1.12795,-2.9752 4.45512,-4.47166 7.42914,-3.3437l-0.00472441 0.0129921c3.92717,1.49055 7.83071,3.18898 11.6965,5.08229 3.77126,1.84606 7.38898,3.82087 10.8425,5.91378 0.220866,0.113386 0.435827,0.243307 0.646063,0.388583 2.61378,1.81299 3.26457,5.40237 1.45039,8.01615l-0.0141732 -0.0106299 -0.207874 0.301181 3.45118 2.39292c0.119291,-0.196063 0.251575,-0.386221 0.396851,-0.571654 1.96536,-2.5004 5.5878,-2.93386 8.0882,-0.967324l-0.00472441 0.00590552c3.21496,2.52756 6.43229,5.31496 9.6378,8.34922 3.01654,2.85591 5.863,5.79331 8.52875,8.80394 0.198425,0.190158 0.386221,0.396851 0.559843,0.620079 1.95354,2.51103 1.50236,6.13111 -1.00748,8.08465l-0.00590552 0 -0.257481 0.200788 2.56654 3.29764 0.106299 -0.0826772c0.138189,-0.114567 0.281103,-0.22441 0.432284,-0.328347 2.61969,-1.80473 6.2067,-1.14213 8.01142,1.47874l-0.0153543 0.00944883c2.45315,3.56221 4.70906,7.17875 6.75827,10.8354 1.91103,3.40985 3.73111,7.03583 5.45197,10.8697 0.152362,0.265748 0.284646,0.546851 0.39567,0.842127 1.11496,2.97992 -0.39567,6.3 -3.37559,7.41497l-0.0165354 -0.0165354 -0.346063 0.129921 1.47402 3.9378c0.218504,-0.0980316 0.444095,-0.183071 0.677953,-0.255118 3.04016,-0.936615 6.26457,0.770079 7.20119,3.81024l-0.0141732 0.00708662c1.24843,4.05591 2.31496,8.1815 3.19016,12.3662 0.844489,4.03701 1.51063,8.11772 1.98898,12.2327 0.0401575,0.223229 0.0661418,0.452363 0.0791339,0.683859 0.175984,3.17717 -2.25709,5.89371 -5.43426,6.06969l-0.00236221 -0.0129921 -0.354331 0.0188977 0.231496 4.19055c0.226772,-0.0271654 0.458268,-0.0401575 0.693308,-0.0401575 3.18071,0.0129921 5.74961,2.60315 5.7378,5.78386l-0.022441 0c-0.0177165,4.3252 -0.231496,8.57953 -0.630709,12.7559 -0.398032,4.16103 -0.972048,8.22993 -1.7126,12.1961 -0.0295276,0.252756 -0.0755906,0.505512 -0.13937,0.758268 -0.780709,3.08386 -3.91418,4.95118 -6.99804,4.17048l0.0011811 -0.00826772 -0.360236 -0.090945 -1.02756 4.05945 0.068504 0.0177165c0.210236,0.0413386 0.420473,0.0944883 0.629528,0.16063 3.03307,0.962599 4.71142,4.2 3.75118,7.23308l-0.00354331 -0.0011811c-1.25197,3.94607 -2.73307,7.9382 -4.43386,11.9587 -1.64291,3.88701 -3.42166,7.6193 -5.32441,11.191 -0.0980316,0.21378 -0.210236,0.425197 -0.337796,0.63189 -1.66536,2.71063 -5.21339,3.55748 -7.92284,1.88977l-0.309449 -0.191339 -2.1874 3.55866 0.158268 0.0968505c0.145276,0.0838583 0.288189,0.175984 0.42874,0.272835 2.60551,1.82599 3.23622,5.4189 1.41024,8.02442l-0.0188977 -0.0141732c-2.49331,3.5563 -5.08937,6.92599 -7.77875,10.0984 -2.64213,3.11575 -5.43662,6.12874 -8.37402,9.02717 -0.170079,0.196063 -0.355512,0.381496 -0.5563,0.5563 -2.39882,2.08937 -6.03898,1.83898 -8.12717,-0.559843l0 -0.00354331 -0.217323 -0.250394 -3.15118 2.7437 0.105118 0.120473c0.114567,0.124016 0.226772,0.255118 0.333071,0.392126 1.9441,2.51693 1.47992,6.13583 -1.03701,8.07993l-0.011811 -0.0129921c-4.27677,3.30473 -8.75906,6.36969 -13.4256,9.17127 -4.55552,2.73544 -9.24213,5.19922 -14.0386,7.37245 -0.201969,0.106299 -0.411024,0.200788 -0.630709,0.284646 -2.97402,1.12913 -6.30119,-0.366142 -7.4315,-3.34016l0.00826772 -0.0200788 -0.127559 -0.334252 -3.92363 1.49173c0.0980316,0.214961 0.184252,0.43937 0.257481,0.670867 0.949607,3.03662 -0.740552,6.2693 -3.77599,7.2189l-0.011811 -0.00590552c-5.28307,1.65354 -10.7504,3.00709 -16.3831,4.03583 -5.37756,0.983859 -10.8425,1.65473 -16.3784,1.99606 -0.244488,0.0318898 -0.494882,0.0484252 -0.750001,0.0484252 -3.18071,0 -5.76024,-2.57953 -5.76024,-5.76024l0 -0.335433 -4.17166 0 -0.0011811 0.335433c0,0.111024 -0.00236221,0.223229 -0.00944883,0.335433 -0.184252,3.17599 -2.91024,5.60079 -6.08623,5.41418l0.0011811 -0.0129921c-4.37008,-0.256299 -8.60434,-0.699213 -12.6969,-1.31929 -4.03583,-0.611811 -8.0752,-1.41614 -12.1063,-2.40473 -0.244488,-0.0425197 -0.490158,-0.101575 -0.733465,-0.178347 -3.03662,-0.949607 -4.72796,-4.18111 -3.77953,-7.21772l0.0106299 0.00236221 0.111024 -0.35315 -4.00158 -1.25197 -0.00826772 0.0295276c-0.0555119,0.219685 -0.122835,0.438189 -0.205512,0.655512 -1.12913,2.97402 -4.45512,4.47166 -7.43032,3.34252l0.00590552 -0.0129921c-3.92717,-1.49055 -7.82953,-3.1878 -11.6953,-5.08111 -3.77126,-1.84725 -7.38898,-3.82205 -10.8437,-5.91497 -0.220866,-0.114567 -0.435827,-0.243307 -0.646063,-0.388583 -2.61378,-1.81299 -3.26339,-5.40237 -1.45158,-8.01615l0.0153543 0.00944883 0.207874 -0.298819 -3.45236 -2.39292c-0.11811,0.194882 -0.250394,0.386221 -0.39567,0.570473 -1.96536,2.5004 -5.5878,2.93386 -8.08938,0.968505l0.00472441 -0.00590552c-3.21378,-2.52874 -6.43111,-5.31496 -9.63662,-8.3504 -3.01654,-2.85473 -5.863,-5.79331 -8.52875,-8.80394 -0.198425,-0.190158 -0.386221,-0.396851 -0.559843,-0.620079 -1.95473,-2.50984 -1.50354,-6.13111 1.00748,-8.08465l0.00590552 0 0.257481 -0.199606 -2.56772 -3.29882 -0.102756 0.080315c-0.138189,0.115748 -0.282284,0.226772 -0.433465,0.330709 -2.62087,1.80354 -6.20788,1.14213 -8.0126,-1.47756l0.0153543 -0.0106299c-2.45315,-3.56103 -4.70906,-7.17638 -6.75827,-10.8331 -1.91103,-3.41103 -3.73111,-7.03701 -5.45315,-10.8732 -0.151181,-0.264567 -0.284646,-0.54567 -0.394488,-0.840946 -1.11614,-2.97874 0.394488,-6.29882 3.37441,-7.41497l0.0177165 0.0165354 0.346063 -0.12874 -1.4752 -3.93898c-0.217323,0.0980316 -0.442914,0.183071 -0.676772,0.255118 -3.04016,0.937796 -6.26457,-0.768898 -7.20119,-3.80788l0.0141732 -0.00944883c-1.24843,-4.05237 -2.31496,-8.1756 -3.18898,-12.3579 -0.844489,-4.03937 -1.51181,-8.12245 -1.99134,-12.241 -0.0401575,-0.223229 -0.0661418,-0.451181 -0.0791339,-0.683859 -0.174803,-3.17599 2.25709,-5.89371 5.43426,-6.06851l0.00236221 0.0129921 0.355512 -0.0200788 -0.231496 -4.18937c-0.227953,0.0259843 -0.459449,0.0401575 -0.693308,0.0389764 -3.18189,-0.0129921 -5.75079,-2.60197 -5.7378,-5.78386l0.022441 0c0.0177165,-4.32402 0.230315,-8.57835 0.630709,-12.7547 0.398032,-4.16221 0.972048,-8.23111 1.7126,-12.1973 0.0295276,-0.252756 0.0755906,-0.504331 0.13937,-0.757087 0.780709,-3.08504 3.91418,-4.95118 6.99804,-4.17048l-0.00236221 0.00826772 0.360236 0.090945 1.02874 -4.06063 -0.0708662 -0.0177165c-0.209055,-0.0413386 -0.419292,-0.0944883 -0.628347,-0.16063 -3.03189,-0.961418 -4.71024,-4.2 -3.74882,-7.2319l0.00236221 0c1.25079,-3.94607 2.73307,-7.93701 4.43268,-11.9575 1.6441,-3.88701 3.42166,-7.6193 5.32559,-11.191 0.0980316,-0.214961 0.210236,-0.426378 0.337796,-0.633071 1.66536,-2.70945 5.21339,-3.5563 7.92284,-1.88858l0.309449 0.190158 2.1874 -3.55866 -0.155906 -0.0944883c-0.146457,-0.0850394 -0.28937,-0.175984 -0.431103,-0.274016 -2.60433,-1.82599 -3.23622,-5.4189 -1.41024,-8.02442l0.0188977 0.0141732c2.49213,-3.5563 5.08937,-6.92599 7.77875,-10.0984 2.64095,-3.11575 5.43544,-6.12874 8.37284,-9.02717 0.170079,-0.194882 0.355512,-0.381496 0.557481,-0.5563 2.4,-2.09055 6.0378,-1.83898 8.12835,0.559843l-0.0011811 0.00236221 0.218504 0.250394 3.14882 -2.74252 -0.105118 -0.121654c-0.114567,-0.124016 -0.225591,-0.255118 -0.330709,-0.390945 -1.94646,-2.51693 -1.48228,-6.13583 1.03465,-8.08111l0.0129921 0.0129921c4.27559,-3.30473 8.75788,-6.36851 13.4244,-9.17009 4.55552,-2.73544 9.24213,-5.2004 14.0386,-7.37363 0.201969,-0.105118 0.412205,-0.200788 0.630709,-0.283465 2.97402,-1.13032 6.30119,0.364961 7.4315,3.33898l-0.00708662 0.0200788 0.126378 0.334252 3.92481 -1.49055c-0.0980316,-0.216142 -0.184252,-0.43937 -0.257481,-0.670867 -0.950788,-3.03662 0.739371,-6.2693 3.77481,-7.22008l0.0129921 0.00708662c5.28071,-1.65591 10.7469,-3.00827 16.3772,-4.03701 5.37874,-0.982678 10.8473,-1.65473 16.3831,-1.99488 0.245669,-0.0330709 0.496063,-0.0496063 0.750001,-0.0496063 3.18189,0 5.76142,2.57953 5.76142,5.76142l0 0.334252 4.17166 0 0 -0.334252c0,-0.111024 0.00354331,-0.223229 0.00944883,-0.336614zm-2.09528 57.8504c20.6386,0 39.3248,8.36694 52.8508,21.8917 13.5248,13.526 21.8906,32.2122 21.8906,52.8508 0,20.6398 -8.36575,39.3248 -21.8906,52.8508 -13.526,13.526 -32.2122,21.8917 -52.8508,21.8917 -20.6386,0 -39.3248,-8.36575 -52.852,-21.8917 -13.5248,-13.526 -21.8906,-32.211 -21.8906,-52.8508 0,-20.6386 8.36575,-39.3248 21.8906,-52.8508 13.5272,-13.5248 32.2134,-21.8917 52.852,-21.8917z"/>
   <path id="_289955176" class="fil5" d="M1410.32 1545.53c24.7807,0 47.2181,10.0453 63.4595,26.2866 16.2402,16.239 26.2855,38.6776 26.2855,63.4583 0,24.7819 -10.0453,47.2193 -26.2855,63.4595 -16.2414,16.2414 -38.6788,26.2855 -63.4595,26.2855 -24.7819,0 -47.2193,-10.0441 -63.4607,-26.2855 -16.239,-16.2402 -26.2843,-38.6776 -26.2843,-63.4595 0,-24.7807 10.0453,-47.2193 26.2843,-63.4583 16.2414,-16.2414 38.6788,-26.2866 63.4607,-26.2866zm0 15.0024c20.6386,0 39.3248,8.36694 52.8508,21.8917 13.5248,13.526 21.8906,32.2122 21.8906,52.8508 0,20.6398 -8.36575,39.3248 -21.8906,52.8508 -13.526,13.526 -32.2122,21.8917 -52.8508,21.8917 -20.6386,0 -39.3248,-8.36575 -52.852,-21.8917 -13.5248,-13.526 -21.8906,-32.211 -21.8906,-52.8508 0,-20.6386 8.36575,-39.3248 21.8906,-52.8508 13.5272,-13.5248 32.2134,-21.8917 52.852,-21.8917z"/>
   <path id="_289955104" class="fil6" d="M1410.32 1581.96c14.7201,0 28.0477,5.96693 37.6961,15.6142 9.64607,9.64725 15.613,22.9748 15.613,37.6961 0,14.7213 -5.96693,28.0488 -15.613,37.6961 -9.64843,9.64725 -22.976,15.6142 -37.6961,15.6142 -14.7213,0 -28.0488,-5.96693 -37.6961,-15.6142 -9.64725,-9.64725 -15.6142,-22.9748 -15.6142,-37.6961 0,-14.7213 5.96693,-28.0488 15.6142,-37.6961 9.64725,-9.64725 22.9748,-15.6142 37.6961,-15.6142z"/>
   <path id="_289955080" class="fil7" d="M1464.29 1581.3c-13.813,-13.8118 -32.8949,-22.3559 -53.9729,-22.3559 -21.078,0 -40.1611,8.5441 -53.9729,22.3559 -13.813,13.813 -22.3559,32.8949 -22.3559,53.9729 0,21.078 8.54292,40.1599 22.3559,53.9729 13.8118,13.813 32.8949,22.3559 53.9729,22.3559 21.078,0 40.1599,-8.54292 53.9729,-22.3559 13.8118,-13.813 22.3559,-32.8949 22.3559,-53.9729 0,-21.078 -8.5441,-40.1599 -22.3559,-53.9729zm-67.7611 80.3339c0.588189,-0.669686 1.28268,-1.24961 2.0811,-1.71024 0.83504,-0.480709 1.74449,-0.80315 2.68583,-0.996851 5.92678,-1.21536 12.4228,2.40355 17.0209,5.79922 6.70158,4.94646 12.4925,11.8311 16.6406,19.0288 0.486615,0.84567 0.954331,1.70079 1.40079,2.56772l2.9315 5.68347 -5.95748 2.32323c-2.71536,1.05827 -5.5004,1.92992 -8.33505,2.60197 -4.80945,1.14213 -9.7382,1.70788 -14.6799,1.70788 -0.680315,0 -1.36063,-0.00944883 -2.03977,-0.0307087l-2.85827 -0.0921261 -1.65591 -2.33032c-0.335433,-0.472441 -0.664961,-0.947245 -0.987402,-1.42795 -0.848032,-1.2626 -1.65945,-2.55236 -2.4189,-3.87048 -2.62323,-4.55197 -4.82599,-9.62127 -5.88544,-14.7862 -1.52008,-7.39725 -0.806694,-8.92914 2.05748,-14.4673zm-9.98859 -39.7796c0.420473,0.865749 0.690945,1.7941 0.817323,2.74725 0.793701,5.99882 -3.27874,12.2256 -6.98977,16.5744 -5.40473,6.33189 -12.6827,11.6162 -20.1496,15.241 -0.871654,0.424016 -1.75276,0.831497 -2.64213,1.21772l-5.89252 2.55591 -1.90158 -6.13465c-0.640158,-2.06575 -1.1752,-4.16339 -1.59921,-6.28347 -0.82441,-4.11496 -1.23189,-8.30434 -1.23189,-12.4996 0,-2.16496 0.108662,-4.32992 0.327166,-6.48426l0.291733 -2.86418 2.46496 -1.48583c0.491339,-0.296457 0.986221,-0.588189 1.48465,-0.872835 1.31693,-0.755906 2.6563,-1.47638 4.02166,-2.13898 4.72323,-2.2937 9.93898,-4.14803 15.1606,-4.84016 3.27638,-0.435827 6.84213,-0.452363 10.0134,0.581103 2.46851,0.805512 4.663,2.29252 5.8252,4.68662zm15.7772 -16.0335c-6.70276,-4.94764 -12.4937,-11.8311 -16.6406,-19.0299 -0.486615,-0.844489 -0.954331,-1.70079 -1.40197,-2.56772l-2.93032 -5.68347 5.95748 -2.32323c2.71418,-1.05827 5.5004,-1.92874 8.33505,-2.60197 4.80827,-1.14095 9.7382,-1.70906 14.6799,-1.70906 0.680315,0 1.35945,0.011811 2.03977,0.0330709l2.85709 0.090945 1.65591 2.33032c0.335433,0.472441 0.664961,0.948426 0.988583,1.42913 0.848032,1.26378 1.65945,2.55118 2.4189,3.86929 2.62323,4.55315 4.82599,9.62245 5.88544,14.7862 0.66378,3.23386 0.930709,6.78426 0.125197,10.0158 -0.630709,2.52402 -1.95118,4.82953 -4.26378,6.16182 -0.83504,0.48189 -1.74567,0.804331 -2.68701,0.996851 -5.9256,1.21536 -12.4217,-2.40355 -17.0197,-5.79804zm31.7764 42.8705c-0.420473,-0.865749 -0.690945,-1.79291 -0.817323,-2.74607 -0.796064,-5.99882 3.27638,-12.2268 6.98859,-16.5756 5.40591,-6.33189 12.6827,-11.6162 20.1508,-15.241 0.871654,-0.424016 1.75276,-0.832678 2.64331,-1.21772l5.89134 -2.55473 1.90158 6.13347c0.640158,2.06575 1.17402,4.16457 1.59921,6.28465 0.82441,4.11378 1.23189,8.30316 1.23189,12.4984 0,2.16614 -0.108662,4.33111 -0.328347,6.48426l-0.290551 2.86654 -2.46614 1.48465c-0.491339,0.296457 -0.98504,0.587008 -1.48228,0.871654 -1.31811,0.755906 -2.65748,1.47638 -4.02402,2.13898 -4.72323,2.2937 -9.94017,4.14922 -15.1606,4.84134 -3.27638,0.433465 -6.84331,0.451181 -10.0122,-0.582284 -2.46969,-0.805512 -4.66418,-2.29252 -5.8252,-4.68662zm-23.7768 -27.1134c3.78071,0 7.20473,1.53307 9.68268,4.01221 2.47914,2.47795 4.01221,5.90197 4.01221,9.68268 0,3.78189 -1.53307,7.20591 -4.01221,9.68387 -2.47795,2.47914 -5.90197,4.01103 -9.68268,4.01103 -3.78189,0 -7.20591,-1.53189 -9.68387,-4.01103 -2.47914,-2.47795 -4.01103,-5.90197 -4.01103,-9.68387 0,-3.78071 1.53189,-7.20473 4.01103,-9.68268 2.47795,-2.47914 5.90197,-4.01221 9.68387,-4.01221z"/>
   <path id="_289955776" class="fil8" d="M1424.01 1635.27c0,-3.78071 -1.53307,-7.20473 -4.01221,-9.68268 -2.47795,-2.47914 -5.90197,-4.01221 -9.68268,-4.01221 -3.78189,0 -7.20591,1.53307 -9.68387,4.01221 -2.47914,2.47795 -4.01103,5.90197 -4.01103,9.68268 0,3.78189 1.53189,7.20591 4.01103,9.68387 2.47795,2.47914 5.90197,4.01103 9.68387,4.01103 3.78071,0 7.20473,-1.53189 9.68268,-4.01103 2.47914,-2.47795 4.01221,-5.90197 4.01221,-9.68387z"/>
   <path id="_289955728" class="fil9" d="M1570.43 1645.71l23.7095 0c0.19252,-3.45591 0.294095,-6.93544 0.294095,-10.4398 0,-50.8359 -20.6091,-96.867 -53.928,-130.184 -33.3189,-33.3189 -79.3465,-53.928 -130.185,-53.928 -50.8382,0 -96.867,20.6091 -130.186,53.928 -33.3189,33.3166 -53.9268,79.3477 -53.9268,130.184 0,3.50433 0.101575,6.98386 0.294095,10.4398l23.7083 0c-0.223229,-3.46299 -0.338977,-6.94489 -0.338977,-10.4398 0,-42.6768 16.8236,-83.2808 46.9973,-113.452 30.1725,-30.1725 70.7741,-46.9961 113.452,-46.9961 42.678,0 83.2784,16.8236 113.452,46.9961 30.1736,30.1713 46.9973,70.7753 46.9973,113.452 0,3.49488 -0.115748,6.97678 -0.340158,10.4398z"/>
   <path id="_289954432" class="fil10" d="M1570.43 1645.71l207.737 0c12.8835,0 13.8354,-10.4457 13.8354,-23.3292l0 -59.4863c0,-12.8835 -1.33228,-23.3292 -14.2158,-23.3292l-25.4421 0 0 -36.1559c0,-36.4488 -15.4902,-59.8855 -40.1138,-75.9473 -21.2965,-13.891 -48.8008,-20.8843 -78.2564,-26.2394l-215.977 -39.2693c-1.98543,-0.549213 -4.07717,-0.844489 -6.23741,-0.844489l-459.578 0 0 284.601 298.028 0c-0.223229,-3.46299 -0.338977,-6.94489 -0.338977,-10.4398 0,-42.6768 16.8236,-83.2808 46.9973,-113.452 30.1725,-30.1725 70.7741,-46.9961 113.452,-46.9961 42.678,0 83.2784,16.8236 113.452,46.9961 30.1736,30.1713 46.9973,70.7753 46.9973,113.452 0,3.49488 -0.115748,6.97678 -0.340158,10.4398z"/>
   <path id="_289954600" class="fil11" d="M1700.02 1645.71l78.1465 0c12.8835,0 13.8354,-10.4457 13.8354,-23.3292l0 -59.4863c0,-12.8835 -1.33228,-23.3292 -14.2158,-23.3292l-25.4421 0 0 -0.408662 -52.3241 0 0 106.553z"/>
   <path id="_289954336" class="fil12" d="M1209.9 1215.47c-28.3252,-25.2284 -93.4843,-24.8185 -156.784,-24.4158 -18.5351,0.11811 -36.926,0.23504 -54.2811,-0.246851l0 170.307 356.602 0 -145.591 -145.59 0.0543308 -0.0543308z"/>
   <path id="_289954864" class="fil11" d="M1204.47 1220.05c-13.0051,-11.0563 -34.7067,-16.6288 -60.5847,-19.4256 -27.4524,-2.97047 -59.3174,-2.76851 -90.7217,-2.5689l0 0.0283465 -0.0448819 0 -0.0850394 0c-0.19252,0 -0.383859,-0.00944883 -0.574016,-0.0248032 -15.8327,0.100394 -31.5544,0.194882 -46.5851,-0.0838583l0 156.097 332.582 0 -133.58 -133.579c-0.142913,-0.142913 -0.277559,-0.290551 -0.4063,-0.442914zm-59.1 -33.3862c28.9063,3.12638 53.4721,9.73702 68.9067,23.2878 0.207874,0.165354 0.409843,0.344882 0.602363,0.537402 0.250394,0.250394 0.478347,0.51378 0.683859,0.791339l144.853 144.853c1.27323,1.27323 2.06103,3.03189 2.06103,4.97481 0,3.88465 -3.15,7.03465 -7.03583,7.03465l-356.602 0c-3.88583,0 -7.03583,-3.15 -7.03583,-7.03465l0 -170.307 0.00236221 -0.194882c0.10748,-3.88347 3.34488,-6.94607 7.22835,-6.83859l-0.0011811 0.0259843c17.0882,0.472441 35.1366,0.364961 53.3363,0.251575 0.219685,-0.0212599 0.441733,-0.0318898 0.664961,-0.0318898l0.0413386 0 0.0437008 0 0 0.0271654c31.8827,-0.20315 64.2319,-0.4063 92.2513,2.62323z"/>
   <path id="_289954720" class="fil13" d="M1001.81 1366.58c0,-1.60984 -1.31811,-2.91614 -2.94213,-2.91614 -1.6252,0 -2.94213,1.3063 -2.94213,2.91614l0 228.108c0,10.402 0.555119,16.8709 4.18229,21.1335 3.68859,4.33701 9.90001,5.70237 21.0638,5.70237l164.916 0 4.81654 -0.0011811c11.7083,0.0389764 16.6146,0.0543308 19.6016,-3.12756 2.19921,-2.34213 2.51221,-5.51811 3.05079,-10.9772 0.399213,-4.06536 0.946064,-9.59528 2.53701,-17.126 8.01379,-37.9205 25.1055,-75.7701 49.7079,-113.557 24.6721,-37.8981 56.889,-75.7146 95.0717,-113.466 1.14803,-1.13032 1.15276,-2.97284 0.0106299,-4.11142 -1.14095,-1.1374 -2.99882,-1.14213 -4.14685,-0.0106299 -38.4863,38.0492 -70.9725,76.1906 -95.8772,114.443 -24.9756,38.3611 -42.3426,76.8591 -50.5122,115.518 -1.64528,7.78819 -2.21221,13.5378 -2.62914,17.7638 -0.413386,4.20237 -0.655512,6.64725 -1.51063,7.55906 -1.24843,1.32992 -5.4,1.31693 -15.3036,1.28386 -3.2126,-0.0106299 -3.30827,-0.022441 -4.81654,-0.022441l-164.916 0c-9.29174,0 -14.2347,-0.870473 -16.5815,-3.62953 -2.41063,-2.83347 -2.78032,-8.32678 -2.78032,-17.374l0 -228.108z"/>
   <path id="_289954504" class="fil14" d="M1040.46 1418.32l34.7044 0c5.28662,0 9.61064,-4.32402 9.61064,-9.61182l0 0 -53.9256 0 0 0c0,5.2878 4.32402,9.61182 9.61064,9.61182z"/>
   <path id="_289954912" class="fil15" d="M1039.13 1396.41l37.3477 0c7.3878,0 13.4291,6.04252 13.4291,13.4315l0 0 -64.2071 0 0 0c0,-7.38898 6.04252,-13.4315 13.4303,-13.4315z"/>
   <line id="_289954480" class="fil8" x1="1766.63" y1="1555.99" x2="1766.63" y2= "1555.99" />
   <ellipse id="_289986640" class="fil3" cx="535.083" cy="1546.23" rx="209.47" ry="102.738"/>
   <path id="_289985920" class="fil4" d="M532.987 1502.68c-0.185433,-3.17599 -2.91024,-5.59961 -6.08623,-5.41418l0.0011811 0.0129921c-4.37008,0.256299 -8.60552,0.699213 -12.6969,1.31929 -4.03583,0.612993 -8.0752,1.41732 -12.1063,2.40591 -0.245669,0.0425197 -0.490158,0.101575 -0.733465,0.177165 -3.03662,0.949607 -4.72796,4.18229 -3.77953,7.21772l0.0106299 -0.00354331 0.111024 0.354331 -4.00158 1.25197 -0.00944883 -0.0318898c-0.0555119,-0.218504 -0.122835,-0.437008 -0.204331,-0.651969 -1.12913,-2.9752 -4.45512,-4.47166 -7.42914,-3.3437l0.00472441 0.0129921c-3.92835,1.49055 -7.83071,3.18898 -11.6976,5.08229 -3.77126,1.84606 -7.3878,3.82087 -10.8413,5.91378 -0.220866,0.113386 -0.437008,0.243307 -0.646063,0.388583 -2.61496,1.81299 -3.26457,5.40237 -1.45158,8.01615l0.0153543 -0.0106299 0.207874 0.301181 -3.45236 2.39292c-0.11811,-0.196063 -0.250394,-0.386221 -0.39567,-0.571654 -1.96654,-2.5004 -5.5878,-2.93386 -8.08938,-0.967324l0.00472441 0.00590552c-3.21496,2.52756 -6.43229,5.31496 -9.6378,8.34922 -3.01654,2.85591 -5.86182,5.79331 -8.52875,8.80394 -0.198425,0.190158 -0.38504,0.396851 -0.559843,0.620079 -1.95354,2.51103 -1.50236,6.13111 1.00866,8.08465l0.00472441 0 0.258662 0.200788 -2.56772 3.29764 -0.106299 -0.0826772c-0.137008,-0.114567 -0.281103,-0.22441 -0.431103,-0.328347 -2.62087,-1.80473 -6.20788,-1.14213 -8.01142,1.47874l0.0141732 0.00944883c-2.45197,3.56221 -4.70906,7.17875 -6.75827,10.8354 -1.90984,3.40985 -3.72992,7.03583 -5.45197,10.8697 -0.151181,0.265748 -0.283465,0.546851 -0.394488,0.842127 -1.11614,2.97992 0.394488,6.3 3.37441,7.41497l0.0177165 -0.0165354 0.346063 0.129921 -1.4752 3.9378c-0.217323,-0.0980316 -0.442914,-0.183071 -0.677953,-0.255118 -3.04016,-0.936615 -6.26457,0.770079 -7.20119,3.81024l0.0153543 0.00708662c-1.24843,4.05591 -2.31614,8.1815 -3.19134,12.3662 -0.843308,4.03701 -1.50945,8.11772 -1.98898,12.2327 -0.0389764,0.223229 -0.0661418,0.452363 -0.0791339,0.683859 -0.174803,3.17717 2.25709,5.89371 5.43426,6.06969l0.00236221 -0.0129921 0.355512 0.0188977 -0.231496 4.19055c-0.227953,-0.0271654 -0.459449,-0.0401575 -0.693308,-0.0401575 -3.18189,0.0129921 -5.75079,2.60315 -5.7378,5.78386l0.022441 0c0.0177165,4.3252 0.230315,8.57953 0.630709,12.7559 0.398032,4.16103 0.972048,8.22993 1.7126,12.1961 0.0295276,0.252756 0.0755906,0.505512 0.138189,0.758268 0.78189,3.08386 3.91536,4.95118 6.99922,4.17048l-0.00236221 -0.00826772 0.360236 -0.090945 1.02874 4.05945 -0.068504 0.0177165c-0.210236,0.0413386 -0.421654,0.0944883 -0.630709,0.16063 -3.03307,0.962599 -4.71142,4.2 -3.75,7.23308l0.00354331 -0.0011811c1.25079,3.94607 2.73307,7.9382 4.43268,11.9587 1.64291,3.88701 3.42166,7.6193 5.32559,11.191 0.0980316,0.21378 0.210236,0.425197 0.336614,0.63189 1.66654,2.71063 5.21457,3.55748 7.92402,1.88977l0.309449 -0.191339 2.1874 3.55866 -0.159449 0.0968505c-0.144095,0.0838583 -0.288189,0.175984 -0.42874,0.272835 -2.60433,1.82599 -3.23622,5.4189 -1.41024,8.02442l0.0200788 -0.0141732c2.49213,3.5563 5.08937,6.92599 7.77875,10.0984 2.64213,3.11575 5.43544,6.12874 8.37402,9.02717 0.170079,0.196063 0.355512,0.381496 0.5563,0.5563 2.39882,2.08937 6.0378,1.83898 8.12717,-0.559843l-0.0011811 -0.00354331 0.218504 -0.250394 3.15 2.7437 -0.105118 0.120473c-0.114567,0.124016 -0.225591,0.255118 -0.33189,0.392126 -1.94528,2.51693 -1.4811,6.13583 1.03583,8.07993l0.0129921 -0.0129921c4.27559,3.30473 8.75788,6.36969 13.4244,9.17127 4.55552,2.73544 9.24213,5.19922 14.0386,7.37245 0.201969,0.106299 0.412205,0.200788 0.630709,0.284646 2.97402,1.12913 6.30119,-0.366142 7.4315,-3.34016l-0.00708662 -0.0200788 0.126378 -0.334252 3.92481 1.49173c-0.0980316,0.214961 -0.184252,0.43937 -0.257481,0.670867 -0.950788,3.03662 0.739371,6.2693 3.77481,7.2189l0.0129921 -0.00590552c5.28189,1.65354 10.7504,3.00709 16.3831,4.03583 5.37638,0.983859 10.8425,1.65473 16.3772,1.99606 0.245669,0.0318898 0.496063,0.0484252 0.750001,0.0484252 3.18189,0 5.76142,-2.57953 5.76142,-5.76024l0 -0.335433 4.17166 0 0 0.335433c0,0.111024 0.00354331,0.223229 0.00944883,0.335433 0.185433,3.17599 2.91142,5.60079 6.08741,5.41418l-0.0011811 -0.0129921c4.3689,-0.256299 8.60316,-0.699213 12.6957,-1.31929 4.03583,-0.611811 8.0752,-1.41614 12.1063,-2.40473 0.245669,-0.0425197 0.490158,-0.101575 0.734646,-0.178347 3.03544,-0.949607 4.72796,-4.18111 3.77835,-7.21772l-0.00944883 0.00236221 -0.111024 -0.35315 4.0004 -1.25197 0.00944883 0.0295276c0.0555119,0.219685 0.122835,0.438189 0.204331,0.655512 1.12913,2.97402 4.4563,4.47166 7.43032,3.34252l-0.00472441 -0.0129921c3.92599,-1.49055 7.82953,-3.1878 11.6953,-5.08111 3.77126,-1.84725 7.38898,-3.82205 10.8437,-5.91497 0.220866,-0.114567 0.435827,-0.243307 0.644882,-0.388583 2.61496,-1.81299 3.26457,-5.40237 1.45158,-8.01615l-0.0141732 0.00944883 -0.207874 -0.298819 3.45118 -2.39292c0.119291,0.194882 0.251575,0.386221 0.39567,0.570473 1.96654,2.5004 5.58898,2.93386 8.08938,0.968505l-0.00472441 -0.00590552c3.21496,-2.52874 6.43111,-5.31496 9.63662,-8.3504 3.01772,-2.85473 5.86418,-5.79331 8.52993,-8.80394 0.198425,-0.190158 0.38504,-0.396851 0.558662,-0.620079 1.95473,-2.50984 1.50354,-6.13111 -1.0063,-8.08465l-0.00590552 0 -0.257481 -0.199606 2.56654 -3.29882 0.102756 0.080315c0.138189,0.115748 0.283465,0.226772 0.434646,0.330709 2.61969,1.80354 6.20788,1.14213 8.01142,-1.47756l-0.0141732 -0.0106299c2.45197,-3.56103 4.70788,-7.17638 6.75709,-10.8331 1.91103,-3.41103 3.73229,-7.03701 5.45433,-10.8732 0.151181,-0.264567 0.283465,-0.54567 0.393307,-0.840946 1.11614,-2.97874 -0.394488,-6.29882 -3.37441,-7.41497l-0.0177165 0.0165354 -0.344882 -0.12874 1.47402 -3.93898c0.217323,0.0980316 0.444095,0.183071 0.676772,0.255118 3.04134,0.937796 6.26575,-0.768898 7.20119,-3.80788l-0.0141732 -0.00944883c1.24961,-4.05237 2.31614,-8.1756 3.19016,-12.3579 0.844489,-4.03937 1.51181,-8.12245 1.99016,-12.241 0.0401575,-0.223229 0.0661418,-0.451181 0.0791339,-0.683859 0.175984,-3.17599 -2.25709,-5.89371 -5.43426,-6.06851l-0.00236221 0.0129921 -0.355512 -0.0200788 0.232677 -4.18937c0.226772,0.0259843 0.458268,0.0401575 0.692127,0.0389764 3.18189,-0.0129921 5.75079,-2.60197 5.73898,-5.78386l-0.022441 0c-0.0177165,-4.32402 -0.231496,-8.57835 -0.630709,-12.7547 -0.398032,-4.16221 -0.972048,-8.23111 -1.71378,-12.1973 -0.0283465,-0.252756 -0.0744095,-0.504331 -0.138189,-0.757087 -0.780709,-3.08504 -3.91418,-4.95118 -6.99922,-4.17048l0.00236221 0.00826772 -0.360236 0.090945 -1.02756 -4.06063 0.0708662 -0.0177165c0.209055,-0.0413386 0.418111,-0.0944883 0.627166,-0.16063 3.03189,-0.961418 4.71142,-4.2 3.75,-7.2319l-0.00236221 0c-1.25197,-3.94607 -2.73307,-7.93701 -4.43386,-11.9575 -1.64291,-3.88701 -3.42166,-7.6193 -5.32559,-11.191 -0.0980316,-0.214961 -0.210236,-0.426378 -0.336614,-0.633071 -1.66654,-2.70945 -5.21457,-3.5563 -7.92284,-1.88858l-0.31063 0.190158 -2.18622 -3.55866 0.154725 -0.0944883c0.146457,-0.0850394 0.290551,-0.175984 0.431103,-0.274016 2.60551,-1.82599 3.2374,-5.4189 1.41142,-8.02442l-0.0200788 0.0141732c-2.49213,-3.5563 -5.08937,-6.92599 -7.77757,-10.0984 -2.64213,-3.11575 -5.43544,-6.12874 -8.37284,-9.02717 -0.17126,-0.194882 -0.356693,-0.381496 -0.558662,-0.5563 -2.39882,-2.09055 -6.0378,-1.83898 -8.12717,0.559843l0 0.00236221 -0.217323 0.250394 -3.15 -2.74252 0.105118 -0.121654c0.114567,-0.124016 0.225591,-0.255118 0.33189,-0.390945 1.94528,-2.51693 1.4811,-6.13583 -1.03583,-8.08111l-0.011811 0.0129921c-4.27677,-3.30473 -8.75906,-6.36851 -13.4244,-9.17009 -4.5567,-2.73544 -9.24331,-5.2004 -14.0398,-7.37363 -0.201969,-0.105118 -0.412205,-0.200788 -0.630709,-0.283465 -2.97402,-1.13032 -6.30119,0.364961 -7.4315,3.33898l0.00826772 0.0200788 -0.127559 0.334252 -3.92363 -1.49055c0.0980316,-0.216142 0.184252,-0.43937 0.256299,-0.670867 0.950788,-3.03662 -0.73819,-6.2693 -3.77362,-7.22008l-0.0129921 0.00708662c-5.28071,-1.65591 -10.748,-3.00827 -16.3784,-4.03701 -5.37874,-0.982678 -10.8461,-1.65473 -16.3831,-1.99488 -0.245669,-0.0330709 -0.494882,-0.0496063 -0.750001,-0.0496063 -3.18071,0 -5.76024,2.57953 -5.76024,5.76142l0 0.334252 -4.17166 0 -0.0011811 -0.334252c0,-0.111024 -0.00236221,-0.223229 -0.00944883,-0.336614zm2.09646 57.8504c-20.6386,0 -39.3248,8.36694 -52.852,21.8917 -13.5248,13.526 -21.8906,32.2122 -21.8906,52.8508 0,20.6398 8.36575,39.3248 21.8906,52.8508 13.5272,13.526 32.2134,21.8917 52.852,21.8917 20.6386,0 39.3248,-8.36575 52.8508,-21.8917 13.5248,-13.526 21.8906,-32.211 21.8906,-52.8508 0,-20.6386 -8.36575,-39.3248 -21.8906,-52.8508 -13.526,-13.5248 -32.2122,-21.8917 -52.8508,-21.8917z"/>
   <path id="_289986112" class="fil5" d="M535.083 1545.53c-24.7819,0 -47.2193,10.0453 -63.4607,26.2866 -16.239,16.239 -26.2843,38.6776 -26.2843,63.4583 0,24.7819 10.0453,47.2193 26.2843,63.4595 16.2414,16.2414 38.6788,26.2855 63.4607,26.2855 24.7807,0 47.2181,-10.0441 63.4595,-26.2855 16.2402,-16.2402 26.2855,-38.6776 26.2855,-63.4595 0,-24.7807 -10.0453,-47.2193 -26.2855,-63.4583 -16.2414,-16.2414 -38.6788,-26.2866 -63.4595,-26.2866zm0 15.0024c-20.6386,0 -39.3248,8.36694 -52.852,21.8917 -13.5248,13.526 -21.8906,32.2122 -21.8906,52.8508 0,20.6398 8.36575,39.3248 21.8906,52.8508 13.5272,13.526 32.2134,21.8917 52.852,21.8917 20.6386,0 39.3248,-8.36575 52.8508,-21.8917 13.5248,-13.526 21.8906,-32.211 21.8906,-52.8508 0,-20.6386 -8.36575,-39.3248 -21.8906,-52.8508 -13.526,-13.5248 -32.2122,-21.8917 -52.8508,-21.8917z"/>
   <path id="_289986280" class="fil6" d="M535.083 1581.96c-14.7213,0 -28.0488,5.96693 -37.6961,15.6142 -9.64725,9.64725 -15.6142,22.9748 -15.6142,37.6961 0,14.7213 5.96693,28.0488 15.6142,37.6961 9.64725,9.64725 22.9748,15.6142 37.6961,15.6142 14.7201,0 28.0477,-5.96693 37.6949,-15.6142 9.64725,-9.64725 15.6142,-22.9748 15.6142,-37.6961 0,-14.7213 -5.96693,-28.0488 -15.6142,-37.6961 -9.64725,-9.64725 -22.9748,-15.6142 -37.6949,-15.6142z"/>
   <path id="_289985800" class="fil7" d="M481.111 1581.3c13.8118,-13.8118 32.8949,-22.3559 53.9729,-22.3559 21.078,0 40.1599,8.5441 53.9729,22.3559 13.8118,13.813 22.3547,32.8949 22.3547,53.9729 0,21.078 -8.54292,40.1599 -22.3547,53.9729 -13.813,13.813 -32.8949,22.3559 -53.9729,22.3559 -21.078,0 -40.1611,-8.54292 -53.9729,-22.3559 -13.813,-13.813 -22.3559,-32.8949 -22.3559,-53.9729 0,-21.078 8.54292,-40.1599 22.3559,-53.9729zm67.7599 80.3339c-0.588189,-0.669686 -1.2815,-1.24961 -2.0811,-1.71024 -0.833859,-0.480709 -1.74449,-0.80315 -2.68583,-0.996851 -5.9256,-1.21536 -12.4217,2.40355 -17.0209,5.79922 -6.70158,4.94646 -12.4925,11.8311 -16.6394,19.0288 -0.486615,0.84567 -0.954331,1.70079 -1.40197,2.56772l-2.93032 5.68347 5.95748 2.32323c2.71418,1.05827 5.5004,1.92992 8.33505,2.60197 4.80827,1.14213 9.7382,1.70788 14.6799,1.70788 0.680315,0 1.35945,-0.00944883 2.03977,-0.0307087l2.85827 -0.0921261 1.65591 -2.33032c0.334252,-0.472441 0.66378,-0.947245 0.986221,-1.42795 0.848032,-1.2626 1.66063,-2.55236 2.42008,-3.87048 2.62323,-4.55197 4.82599,-9.62127 5.88544,-14.7862 1.5189,-7.39725 0.806694,-8.92914 -2.05866,-14.4673zm9.98977 -39.7796c-0.420473,0.865749 -0.690945,1.7941 -0.817323,2.74725 -0.793701,5.99882 3.27756,12.2256 6.98859,16.5744 5.40591,6.33189 12.6827,11.6162 20.1496,15.241 0.872835,0.424016 1.75276,0.831497 2.64213,1.21772l5.89371 2.55591 1.90158 -6.13465c0.640158,-2.06575 1.17402,-4.16339 1.59921,-6.28347 0.82441,-4.11496 1.23189,-8.30434 1.23189,-12.4996 0,-2.16496 -0.108662,-4.32992 -0.328347,-6.48426l-0.290551 -2.86418 -2.46496 -1.48583c-0.491339,-0.296457 -0.987402,-0.588189 -1.48465,-0.872835 -1.31693,-0.755906 -2.65748,-1.47638 -4.02284,-2.13898 -4.72205,-2.2937 -9.93898,-4.14803 -15.1606,-4.84016 -3.27638,-0.435827 -6.84095,-0.452363 -10.0122,0.581103 -2.46969,0.805512 -4.66418,2.29252 -5.8252,4.68662zm-15.7772 -16.0335c6.70158,-4.94764 12.4937,-11.8311 16.6406,-19.0299 0.486615,-0.844489 0.954331,-1.70079 1.40079,-2.56772l2.9315 -5.68347 -5.95748 -2.32323c-2.71536,-1.05827 -5.5004,-1.92874 -8.33623,-2.60197 -4.80827,-1.14095 -9.73702,-1.70906 -14.6788,-1.70906 -0.680315,0 -1.36063,0.011811 -2.03977,0.0330709l-2.85827 0.090945 -1.65591 2.33032c-0.335433,0.472441 -0.664961,0.948426 -0.987402,1.42913 -0.848032,1.26378 -1.65945,2.55118 -2.4189,3.86929 -2.62323,4.55315 -4.82599,9.62245 -5.88662,14.7862 -0.66378,3.23386 -0.930709,6.78426 -0.124016,10.0158 0.630709,2.52402 1.95118,4.82953 4.26378,6.16182 0.83504,0.48189 1.74449,0.804331 2.68701,0.996851 5.9256,1.21536 12.4217,-2.40355 17.0197,-5.79804zm-31.7764 42.8705c0.420473,-0.865749 0.690945,-1.79291 0.817323,-2.74607 0.794883,-5.99882 -3.27756,-12.2268 -6.98977,-16.5756 -5.40473,-6.33189 -12.6815,-11.6162 -20.1496,-15.241 -0.872835,-0.424016 -1.75276,-0.832678 -2.64331,-1.21772l-5.89252 -2.55473 -1.90158 6.13347c-0.638977,2.06575 -1.17402,4.16457 -1.59803,6.28465 -0.82441,4.11378 -1.23307,8.30316 -1.23307,12.4984 0,2.16614 0.108662,4.33111 0.328347,6.48426l0.291733 2.86654 2.46614 1.48465c0.490158,0.296457 0.98504,0.587008 1.4811,0.871654 1.31811,0.755906 2.65866,1.47638 4.0252,2.13898 4.72205,2.2937 9.93898,4.14922 15.1606,4.84134 3.27638,0.433465 6.84213,0.451181 10.0122,-0.582284 2.46969,-0.805512 4.663,-2.29252 5.8252,-4.68662zm23.7768 -27.1134c-3.78189,0 -7.20591,1.53307 -9.68387,4.01221 -2.47914,2.47795 -4.01221,5.90197 -4.01221,9.68268 0,3.78189 1.53307,7.20591 4.01221,9.68387 2.47795,2.47914 5.90197,4.01103 9.68387,4.01103 3.78071,0 7.20473,-1.53189 9.68268,-4.01103 2.47914,-2.47795 4.01221,-5.90197 4.01221,-9.68387 0,-3.78071 -1.53307,-7.20473 -4.01221,-9.68268 -2.47795,-2.47914 -5.90197,-4.01221 -9.68268,-4.01221z"/>
   <path id="_289986304" class="fil8" d="M521.387 1635.27c0,-3.78071 1.53307,-7.20473 4.01221,-9.68268 2.47795,-2.47914 5.90197,-4.01221 9.68387,-4.01221 3.78071,0 7.20473,1.53307 9.68268,4.01221 2.47914,2.47795 4.01221,5.90197 4.01221,9.68268 0,3.78189 -1.53307,7.20591 -4.01221,9.68387 -2.47795,2.47914 -5.90197,4.01103 -9.68268,4.01103 -3.78189,0 -7.20591,-1.53189 -9.68387,-4.01103 -2.47914,-2.47795 -4.01221,-5.90197 -4.01221,-9.68387z"/>
   <path id="_289985968" class="fil9" d="M374.973 1645.71l-23.7083 0c-0.19252,-3.45591 -0.294095,-6.93544 -0.294095,-10.4398 0,-50.8359 20.6079,-96.867 53.9268,-130.184 33.3189,-33.3189 79.3477,-53.928 130.186,-53.928 50.837,0 96.8658,20.6091 130.185,53.928 33.3189,33.3166 53.928,79.3477 53.928,130.184 0,3.50433 -0.101575,6.98386 -0.294095,10.4398l-23.7095 0c0.22441,-3.46299 0.340158,-6.94489 0.340158,-10.4398 0,-42.6768 -16.8248,-83.2808 -46.9973,-113.452 -30.1736,-30.1725 -70.7741,-46.9961 -113.452,-46.9961 -42.678,0 -83.2796,16.8236 -113.452,46.9961 -30.1736,30.1713 -46.9973,70.7753 -46.9973,113.452 0,3.49488 0.115748,6.97678 0.338977,10.4398z"/>
   <path id="_289985248" class="fil10" d="M374.973 1645.71l-105.137 0c-12.8835,0 -13.8366,-10.4457 -13.8366,-23.3292l0 -59.4863c0,-12.8835 1.33228,-23.3292 14.2158,-23.3292l25.4421 0 0 -81.104c0,-36.4477 15.4914,-59.8843 40.1162,-75.9461 60.7489,-39.6272 139.859,-39.1347 208.755,-52.8615 1.98307,-0.548032 363.185,31.4551 448.692,31.4551l0 284.601 -298.028 0c0.22441,-3.46299 0.338977,-6.94489 0.338977,-10.4398 0,-42.6768 -16.8236,-83.2808 -46.9973,-113.452 -30.1725,-30.1713 -70.7729,-46.9961 -113.451,-46.9961 -42.678,0 -83.2796,16.8248 -113.452,46.9961 -30.1736,30.1713 -46.9973,70.7753 -46.9973,113.452 0,3.49488 0.115748,6.97678 0.338977,10.4398z"/>
   <path id="_289985152" class="fil11" d="M347.983 1645.71l-78.1465 0c-12.8835,0 -13.8366,-10.4457 -13.8366,-23.3292l0 -59.4863c0,-12.8835 1.33228,-23.3292 14.2158,-23.3292l25.4421 0 0 -0.409843 52.3252 0 0 106.554z"/>
   <path id="_289985200" class="fil13" d="M927.031 1358.27c0,-1.60984 1.3063,-2.91614 2.91614,-2.91614 1.60984,0 2.91614,1.3063 2.91614,2.91614l0 236.413c0,10.402 -0.550394,16.8709 -4.14567,21.1335 -3.65551,4.33701 -9.81379,5.70237 -20.8784,5.70237l-163.462 0 -4.7752 -0.0011811c-11.6043,0.0389764 -16.4681,0.0543308 -19.428,-3.12756 -2.18032,-2.34213 -2.48977,-5.51811 -3.02362,-10.9772 -0.396851,-4.06536 -0.937796,-9.59528 -2.51457,-17.126 -7.94292,-37.9205 -24.8847,-75.7701 -49.2697,-113.557 -24.4559,-37.8981 -56.3882,-75.7146 -94.2343,-113.466 -1.13858,-1.13032 -1.14213,-2.97284 -0.011811,-4.11142 1.1315,-1.1374 2.97402,-1.14213 4.11142,-0.0106299 38.1473,38.0492 70.3465,76.1906 95.0316,114.443 24.7559,38.3611 41.9705,76.8591 50.0681,115.518 1.62992,7.78819 2.19213,13.5378 2.60551,17.7638 0.409843,4.20237 0.649607,6.64725 1.49764,7.55906 1.2378,1.32992 5.35276,1.31693 15.1677,1.28386 3.18544,-0.0106299 3.27992,-0.022441 4.7752,-0.022441l163.462 0c9.20906,0 14.1083,-0.870473 16.4351,-3.62953 2.38937,-2.83347 2.7567,-8.32678 2.7567,-17.374l0 -236.413z"/>
   <path id="_289985728" class="fil14" d="M713.43 1418.32l-34.7055 0c-5.28544,0 -9.61064,-4.32402 -9.61064,-9.61182l0 0 53.9268 0 0 0c0,5.2878 -4.32402,9.61182 -9.61064,9.61182z"/>
   <path id="_289985656" class="fil15" d="M714.751 1396.41l-37.3477 0c-7.3878,0 -13.4303,6.04252 -13.4303,13.4315l0 0 64.2083 0 0 0c0,-7.38898 -6.04252,-13.4315 -13.4303,-13.4315z"/>
   <path id="_289985104" class="fil12" d="M682.786 1215.47c28.3252,-25.2284 128.607,-24.8185 191.907,-24.4158 18.5351,0.11811 36.926,0.23504 54.2811,-0.246851l0 170.307 -356.602 0 110.469 -145.59 -0.0543308 -0.0543308z"/>
   <path id="_289985296" class="fil11" d="M678.449 1209.93c15.6449,-13.6087 49.0276,-20.2004 86.6257,-23.2878 36.5516,-3.00355 77.7379,-2.79921 109.619,-2.59606l0 -0.0271654 0.0437008 0 0.0413386 0c0.223229,0 0.445276,0.0106299 0.664961,0.0318898 18.1996,0.113386 36.2492,0.220866 53.3363,-0.251575l-0.0011811 -0.0259843c3.88347,-0.10748 7.12087,2.95512 7.22835,6.83859l0.00236221 0.194882 0 170.307c0,3.88465 -3.15,7.03465 -7.03583,7.03465l-356.602 0c-3.88583,0 -7.03583,-3.15 -7.03583,-7.03465 0,-1.84252 0.708662,-3.51851 1.86732,-4.77284l109.315 -144.07c0.327166,-0.640158 0.758268,-1.24134 1.29331,-1.77638 0.204331,-0.204331 0.418111,-0.392126 0.637796,-0.564567zm87.7253 -9.27284c-34.5862,2.84055 -64.8567,8.44843 -78.052,19.4894l-101.622 133.931 335.439 0 0 -156.097c-15.0319,0.27874 -30.7536,0.184252 -46.5863,0.0838583 -0.190158,0.0153543 -0.381496,0.0248032 -0.574016,0.0248032l-0.0850394 0 -0.0448819 0 0 -0.0283465c-31.4114,-0.199606 -72.0001,-0.400394 -108.475,2.59606z"/>
  </g>
  <g id="_289980184">
   <g>
    <path id="_289984552" class="fil16" d="M679.841 888.491c2.06811,-0.864568 4.36772,-1.33228 6.72875,-1.30866 6.3815,-0.0649607 12.2008,3.59055 15.4382,8.98229 11.0492,18.5965 22.4469,37.1457 33.6449,55.6926l0.046063 0.0921261 2.88662 4.87678 0.275197 0.504331c2.08583,3.95433 3.71221,8.11182 4.80355,12.4075 1.04646,4.11969 1.61929,8.52875 1.65354,13.1858l0 0.046063c-0.022441,7.72323 -1.64646,15.1016 -4.55433,21.8221 -3.02481,6.98859 -7.40197,13.2366 -12.7795,18.4004l-0.103937 0.0944883c-5.36693,5.14016 -11.791,9.2882 -18.9437,12.1441 -6.84449,2.73189 -14.3433,4.25197 -22.2024,4.28504l-0.046063 0c-7.92166,0.00944883 -15.4347,-1.47047 -22.2484,-4.15985 -7.18465,-2.83583 -13.6476,-6.99804 -19.0595,-12.1701l-0.046063 -0.046063c-5.42008,-5.18859 -9.80434,-11.4343 -12.8291,-18.424 -2.91614,-6.74056 -4.52481,-14.1272 -4.52953,-21.8717 -0.0141732,-4.62992 0.539764,-9.04607 1.59331,-13.2225 1.12087,-4.44449 2.76614,-8.65158 4.85788,-12.5882l0.275197 -0.412205 2.76969 -4.71496 0.046063 -0.0921261 33.3874 -55.4847c2.09055,-3.46418 5.16615,-6.45945 8.93623,-8.03859z"/>
    <path id="_289984744" class="fil17" d="M686.646 887.182c0.155906,-0.0011811 0.311811,0 0.467717,0.00472441 6.16772,0.140551 11.7473,3.73937 14.8925,8.97757 11.0504,18.5965 22.448,37.1457 33.6461,55.6926l0.046063 0.0921261 2.88662 4.87796 0.275197 0.50315c2.08465,3.95433 3.71221,8.11182 4.80355,12.4075 1.04646,4.11969 1.61929,8.52875 1.65354,13.1858l0 0.046063c-0.022441,7.72323 -1.64646,15.1016 -4.55433,21.8221 -3.02481,6.98741 -7.40197,13.2366 -12.7795,18.4004l-0.103937 0.0933072c-5.36693,5.14016 -11.791,9.28938 -18.9437,12.1453 -6.84449,2.73189 -14.3433,4.25079 -22.2024,4.28504l-0.0259843 0 -0.0200788 0 -0.0413386 0 0 -152.534z"/>
    <path id="_289984288" class="fil18" d="M679.841 888.491c2.06811,-0.864568 4.36772,-1.33228 6.72875,-1.30866l0.0767717 0 0 152.534c-7.90631,0.00354331 -15.4051,-1.4752 -22.2071,-4.15985 -7.18465,-2.83583 -13.6476,-6.99804 -19.0595,-12.1701l-0.046063 -0.046063c-5.42008,-5.18859 -9.80434,-11.4343 -12.8291,-18.424 -2.91614,-6.74056 -4.52481,-14.1272 -4.52953,-21.8717 -0.0141732,-4.62992 0.539764,-9.04607 1.59331,-13.2225 1.12087,-4.44449 2.76614,-8.65158 4.85788,-12.5882l0.275197 -0.412205 2.76969 -4.71496 0.046063 -0.0921261 33.3874 -55.4847c2.09055,-3.46418 5.16733,-6.45945 8.93623,-8.03859z"/>
    <path id="_289984672" class="fil19" d="M649.264 964.535c0.872835,-1.80945 3.04843,-2.5689 4.85906,-1.69488 1.80945,0.872835 2.5689,3.04843 1.69606,4.85906 -2.9504,6.08623 -3.87166,12.7748 -2.89961,19.1799 0.970867,6.39804 3.83268,12.5043 8.44961,17.4343 4.6252,4.93819 10.5331,8.19568 16.8496,9.58229 6.32599,1.3878 13.0618,0.904725 19.3311,-1.64291 1.86496,-0.754725 3.99095,0.144095 4.74567,2.00906 0.754725,1.86614 -0.144095,3.99095 -2.00906,4.74567 -7.66418,3.11339 -15.8894,3.70748 -23.6067,2.01378 -7.72796,-1.69606 -14.9539,-5.68229 -20.6114,-11.7213 -5.66457,-6.04725 -9.17245,-13.5201 -10.3595,-21.3378 -1.18465,-7.81064 -0.0543308,-15.9791 3.55512,-23.4272z"/>
   </g>
   <g>
    <path id="_289984888" class="fil16" d="M1008.71 888.491c2.06929,-0.864568 4.3689,-1.33228 6.72993,-1.30866 6.3815,-0.0649607 12.1996,3.59055 15.437,8.98229 11.0504,18.5965 22.448,37.1457 33.6461,55.6926l0.046063 0.0921261 2.88662 4.87678 0.275197 0.504331c2.08465,3.95433 3.71221,8.11182 4.80355,12.4075 1.04646,4.11969 1.61929,8.52875 1.65354,13.1858l0 0.046063c-0.0236221,7.72323 -1.64646,15.1016 -4.55433,21.8221 -3.02481,6.98859 -7.40197,13.2366 -12.7795,18.4004l-0.103937 0.0944883c-5.36811,5.14016 -11.791,9.2882 -18.9437,12.1441 -6.84449,2.73189 -14.3433,4.25197 -22.2024,4.28504l-0.046063 0c-7.92166,0.00944883 -15.4347,-1.47047 -22.2484,-4.15985 -7.18465,-2.83583 -13.6476,-6.99804 -19.0595,-12.1701l-0.046063 -0.046063c-5.42126,-5.18859 -9.80552,-11.4343 -12.8291,-18.424 -2.91614,-6.74056 -4.52481,-14.1272 -4.52953,-21.8717 -0.0141732,-4.62992 0.539764,-9.04607 1.59331,-13.2225 1.12087,-4.44449 2.76496,-8.65158 4.85788,-12.5882l0.275197 -0.412205 2.76969 -4.71496 0.046063 -0.0921261 33.3874 -55.4847c2.09055,-3.46418 5.16615,-6.45945 8.93505,-8.03859z"/>
    <path id="_289984936" class="fil17" d="M1015.51 887.182c0.155906,-0.0011811 0.311811,0 0.467717,0.00472441 6.16654,0.140551 11.7473,3.73937 14.8925,8.97757 11.0504,18.5965 22.448,37.1457 33.6461,55.6926l0.046063 0.0921261 2.88662 4.87796 0.275197 0.50315c2.08465,3.95433 3.71221,8.11182 4.80355,12.4075 1.04646,4.11969 1.61929,8.52875 1.65354,13.1858l0 0.046063c-0.0236221,7.72323 -1.64646,15.1016 -4.55433,21.8221 -3.02481,6.98741 -7.40197,13.2366 -12.7795,18.4004l-0.103937 0.0933072c-5.36811,5.14016 -11.791,9.28938 -18.9437,12.1453 -6.84449,2.73189 -14.3433,4.25079 -22.2024,4.28504l-0.0259843 0 -0.0200788 0 -0.0413386 0 0 -152.534z"/>
    <path id="_289983568" class="fil18" d="M1008.71 888.491c2.06929,-0.864568 4.3689,-1.33228 6.72875,-1.30866l0.0779528 0 0 152.534c-7.90749,0.00354331 -15.4051,-1.4752 -22.2071,-4.15985 -7.18465,-2.83583 -13.6476,-6.99804 -19.0595,-12.1701l-0.046063 -0.046063c-5.42008,-5.18859 -9.80552,-11.4343 -12.8291,-18.424 -2.91614,-6.74056 -4.52481,-14.1272 -4.52953,-21.8717 -0.0141732,-4.62992 0.539764,-9.04607 1.59331,-13.2225 1.12087,-4.44449 2.76614,-8.65158 4.85788,-12.5882l0.275197 -0.412205 2.76969 -4.71496 0.046063 -0.0921261 33.3874 -55.4847c2.09055,-3.46418 5.16615,-6.45945 8.93505,-8.03859z"/>
    <path id="_289984096" class="fil19" d="M978.132 964.535c0.874016,-1.80945 3.04961,-2.5689 4.86024,-1.69488 1.80945,0.872835 2.5689,3.04843 1.69606,4.85906 -2.9504,6.08623 -3.87166,12.7748 -2.89961,19.1799 0.970867,6.39804 3.83268,12.5043 8.44961,17.4343 4.62402,4.93819 10.5331,8.19568 16.8496,9.58229 6.32599,1.3878 13.0618,0.904725 19.3311,-1.64291 1.86496,-0.754725 3.98977,0.144095 4.74567,2.00906 0.754725,1.86614 -0.145276,3.99095 -2.01024,4.74567 -7.663,3.11339 -15.8882,3.70748 -23.6055,2.01378 -7.72796,-1.69606 -14.9551,-5.68229 -20.6114,-11.7213 -5.66457,-6.04725 -9.17363,-13.5201 -10.3595,-21.3378 -1.18465,-7.81064 -0.0555119,-15.9791 3.55394,-23.4272z"/>
   </g>
   <g>
    <path id="_289983808" class="fil16" d="M870.034 525.005c2.06811,-0.864568 4.36772,-1.33228 6.72875,-1.30866 6.3815,-0.0649607 12.2008,3.59055 15.4382,8.98229 11.0504,18.5965 22.448,37.1457 33.6461,55.6926l0.0448819 0.0921261 2.8878 4.87678 0.275197 0.504331c2.08465,3.95433 3.71221,8.11182 4.80237,12.4075 1.04646,4.11969 1.62047,8.52875 1.65354,13.1858l0 0.046063c-0.022441,7.72323 -1.64528,15.1016 -4.55433,21.8209 -3.02481,6.98859 -7.40079,13.2378 -12.7784,18.4016l-0.103937 0.0933072c-5.36811,5.14016 -11.7921,9.28938 -18.9449,12.1453 -6.84331,2.73189 -14.3433,4.25079 -22.2012,4.28504l-0.046063 0c-7.92284,0.00826772 -15.4358,-1.47047 -22.2496,-4.15985 -7.18347,-2.83583 -13.6476,-6.99804 -19.0595,-12.1713l-0.046063 -0.0448819c-5.42008,-5.18859 -9.80434,-11.4343 -12.8291,-18.424 -2.91614,-6.74174 -4.52363,-14.1272 -4.52953,-21.8717 -0.0141732,-4.62992 0.540945,-9.04607 1.59449,-13.2236 1.11969,-4.44331 2.76496,-8.6504 4.85788,-12.587l0.275197 -0.412205 2.76969 -4.71496 0.046063 -0.0921261 33.3874 -55.4847c2.08937,-3.46418 5.16615,-6.45945 8.93505,-8.03859z"/>
    <path id="_289984024" class="fil17" d="M876.839 523.696c0.155906,-0.0011811 0.312992,0 0.467717,0.00354331 6.16772,0.141732 11.7484,3.74055 14.8937,8.97875 11.0504,18.5965 22.448,37.1457 33.6449,55.6926l0.0472441 0.0921261 2.88662 4.87678 0.275197 0.504331c2.08465,3.95433 3.71221,8.11182 4.80355,12.4075 1.04528,4.11969 1.61929,8.52875 1.65236,13.1858l0 0.046063c-0.022441,7.72323 -1.64528,15.1016 -4.55433,21.8209 -3.02481,6.98859 -7.40079,13.2378 -12.7784,18.4016l-0.103937 0.0933072c-5.36811,5.14016 -11.7921,9.28938 -18.9449,12.1453 -6.84331,2.73189 -14.3433,4.25079 -22.2012,4.28504l-0.0259843 0 -0.0200788 0 -0.0425197 0 0 -152.534z"/>
    <path id="_289984000" class="fil18" d="M870.034 525.005c2.06811,-0.865749 4.36772,-1.33228 6.72875,-1.30866l0.0767717 0 0 152.534c-7.90631,0.00354331 -15.4051,-1.4752 -22.2071,-4.15985 -7.18347,-2.83583 -13.6476,-6.99804 -19.0595,-12.1701l-0.046063 -0.046063c-5.42008,-5.18859 -9.80434,-11.4343 -12.828,-18.424 -2.91733,-6.74056 -4.52599,-14.1272 -4.53071,-21.8717 -0.0141732,-4.62992 0.540945,-9.04607 1.59449,-13.2236 1.11969,-4.44331 2.76496,-8.6504 4.85788,-12.587l0.275197 -0.412205 2.76969 -4.71496 0.0448819 -0.0921261 33.3886 -55.4847c2.08937,-3.46418 5.16615,-6.45945 8.93505,-8.03859z"/>
    <path id="_289983784" class="fil19" d="M839.457 601.049c0.872835,-1.80945 3.04961,-2.5689 4.85906,-1.69606 1.81063,0.874016 2.57008,3.04961 1.69606,4.86024 -2.94921,6.08623 -3.87048,12.7748 -2.89961,19.1799 0.970867,6.39804 3.83268,12.5043 8.44961,17.4343 4.6252,4.93701 10.5331,8.19568 16.8496,9.58229 6.32599,1.3878 13.063,0.903544 19.3311,-1.64291 1.86614,-0.754725 3.99095,0.144095 4.74567,2.00906 0.754725,1.86496 -0.144095,3.99095 -2.00906,4.74567 -7.663,3.11339 -15.8894,3.70748 -23.6067,2.0126 -7.72796,-1.69488 -14.9539,-5.68111 -20.6103,-11.7201 -5.66457,-6.04725 -9.17363,-13.5213 -10.3606,-21.3378 -1.18465,-7.81064 -0.0543308,-15.9791 3.55512,-23.4272z"/>
   </g>
   <g>
    <path id="_289982728" class="fil16" d="M1198.9 525.005c2.06929,-0.864568 4.3689,-1.33228 6.72875,-1.30866 6.3815,-0.0649607 12.2008,3.59055 15.4382,8.98229 11.0504,18.5965 22.448,37.1457 33.6461,55.6926l0.046063 0.0921261 2.88662 4.87678 0.275197 0.504331c2.08465,3.95433 3.71221,8.11182 4.80355,12.4075 1.04528,4.11969 1.61929,8.52875 1.65236,13.1858l0 0.046063c-0.022441,7.72323 -1.64528,15.1016 -4.55433,21.8209 -3.02362,6.98859 -7.40079,13.2378 -12.7784,18.4016l-0.103937 0.0933072c-5.36811,5.14016 -11.791,9.28938 -18.9437,12.1453 -6.84449,2.73189 -14.3433,4.25079 -22.2024,4.28504l-0.046063 0c-7.92284,0.00826772 -15.4347,-1.47047 -22.2484,-4.15985 -7.18465,-2.83583 -13.6488,-6.99804 -19.0606,-12.1713l-0.0448819 -0.0448819c-5.42126,-5.18859 -9.80552,-11.4343 -12.8291,-18.424 -2.91614,-6.74174 -4.52481,-14.1272 -4.53071,-21.8717 -0.0129921,-4.62992 0.540945,-9.04607 1.59449,-13.2236 1.12087,-4.44331 2.76496,-8.6504 4.85788,-12.587l0.275197 -0.412205 2.76969 -4.71496 0.046063 -0.0921261 33.3874 -55.4847c2.09055,-3.46418 5.16615,-6.45945 8.93505,-8.03859z"/>
    <path id="_289983448" class="fil17" d="M1205.71 523.696c0.157087,-0.0011811 0.312992,0 0.468898,0.00354331 6.16654,0.141732 11.7473,3.74055 14.8925,8.97875 11.0504,18.5965 22.448,37.1457 33.6461,55.6926l0.046063 0.0921261 2.88662 4.87678 0.275197 0.504331c2.08465,3.95433 3.71221,8.11182 4.80355,12.4075 1.04528,4.11969 1.61929,8.52875 1.65236,13.1858l0 0.046063c-0.022441,7.72323 -1.64528,15.1016 -4.55315,21.8209 -3.02481,6.98859 -7.40197,13.2378 -12.7795,18.4016l-0.103937 0.0933072c-5.36811,5.14016 -11.791,9.28938 -18.9437,12.1453 -6.84449,2.73189 -14.3433,4.25079 -22.2024,4.28504l-0.0259843 0 -0.0200788 0 -0.0425197 0 0 -152.534z"/>
    <path id="_289982992" class="fil18" d="M1198.9 525.005c2.06929,-0.865749 4.3689,-1.33228 6.72875,-1.30866l0.0767717 0 0 152.534c-7.90631,0.00354331 -15.4039,-1.4752 -22.2071,-4.15985 -7.18347,-2.83583 -13.6476,-6.99804 -19.0583,-12.1701l-0.0472441 -0.046063c-5.42008,-5.18859 -9.80434,-11.4343 -12.828,-18.424 -2.91614,-6.74056 -4.52481,-14.1272 -4.52953,-21.8717 -0.0141732,-4.62992 0.539764,-9.04607 1.59331,-13.2236 1.12087,-4.44331 2.76496,-8.6504 4.85788,-12.587l0.275197 -0.412205 2.76969 -4.71496 0.046063 -0.0921261 33.3874 -55.4847c2.09055,-3.46418 5.16615,-6.45945 8.93505,-8.03859z"/>
    <path id="_289983328" class="fil19" d="M1168.32 601.049c0.874016,-1.80945 3.04961,-2.5689 4.86024,-1.69606 1.80945,0.874016 2.5689,3.04961 1.69488,4.86024 -2.94921,6.08623 -3.87048,12.7748 -2.89961,19.1799 0.972048,6.39804 3.83386,12.5043 8.45079,17.4343 4.62402,4.93701 10.5319,8.19568 16.8496,9.58229 6.32599,1.3878 13.0618,0.903544 19.3311,-1.64291 1.86496,-0.754725 3.98977,0.144095 4.74449,2.00906 0.755906,1.86496 -0.144095,3.99095 -2.00906,4.74567 -7.663,3.11339 -15.8882,3.70748 -23.6067,2.0126 -7.72678,-1.69488 -14.9539,-5.68111 -20.6103,-11.7201 -5.66457,-6.04725 -9.17363,-13.5213 -10.3595,-21.3378 -1.18465,-7.81064 -0.0555119,-15.9791 3.55394,-23.4272z"/>
   </g>
   <g>
    <path id="_289983064" class="fil16" d="M1354.68 888.491c2.06929,-0.864568 4.3689,-1.33228 6.72875,-1.30866 6.38268,-0.0649607 12.2008,3.59055 15.4382,8.98229 11.0504,18.5965 22.448,37.1457 33.6461,55.6926l0.046063 0.0921261 2.88662 4.87678 0.275197 0.504331c2.08465,3.95433 3.71221,8.11182 4.80355,12.4075 1.04528,4.11969 1.61929,8.52875 1.65236,13.1858l0 0.046063c-0.022441,7.72323 -1.64528,15.1016 -4.55315,21.8221 -3.02481,6.98859 -7.40197,13.2366 -12.7795,18.4004l-0.103937 0.0944883c-5.36811,5.14016 -11.791,9.2882 -18.9437,12.1441 -6.84449,2.73189 -14.3433,4.25197 -22.2024,4.28504l-0.046063 0c-7.92284,0.00944883 -15.4347,-1.47047 -22.2484,-4.15985 -7.18465,-2.83583 -13.6488,-6.99804 -19.0595,-12.1701l-0.046063 -0.046063c-5.42126,-5.18859 -9.80552,-11.4343 -12.8291,-18.424 -2.91614,-6.74056 -4.52481,-14.1272 -4.53071,-21.8717 -0.0129921,-4.62992 0.540945,-9.04607 1.59449,-13.2225 1.12087,-4.44449 2.76496,-8.65158 4.85788,-12.5882l0.275197 -0.412205 2.76969 -4.71496 0.046063 -0.0921261 33.3874 -55.4847c2.09055,-3.46418 5.16615,-6.45945 8.93505,-8.03859z"/>
    <path id="_289983040" class="fil17" d="M1361.49 887.182c0.155906,-0.0011811 0.311811,0 0.467717,0.00472441 6.16654,0.140551 11.7473,3.73937 14.8925,8.97757 11.0504,18.5965 22.448,37.1457 33.6461,55.6926l0.046063 0.0921261 2.88662 4.87796 0.275197 0.50315c2.08465,3.95433 3.71221,8.11182 4.80355,12.4075 1.04646,4.11969 1.61929,8.52875 1.65236,13.1858l0 0.046063c-0.022441,7.72323 -1.64528,15.1016 -4.55315,21.8221 -3.02481,6.98741 -7.40197,13.2366 -12.7795,18.4004l-0.103937 0.0933072c-5.36811,5.14016 -11.791,9.28938 -18.9437,12.1453 -6.84449,2.73189 -14.3433,4.25079 -22.2024,4.28504l-0.0259843 0 -0.0200788 0 -0.0413386 0 0 -152.534z"/>
    <path id="_289983400" class="fil18" d="M1354.68 888.491c2.06929,-0.864568 4.3689,-1.33228 6.72875,-1.30866l0.0779528 0 0 152.534c-7.90749,0.00354331 -15.4051,-1.4752 -22.2083,-4.15985 -7.18347,-2.83583 -13.6476,-6.99804 -19.0583,-12.1701l-0.0472441 -0.046063c-5.42008,-5.18859 -9.80434,-11.4343 -12.828,-18.424 -2.91614,-6.74056 -4.52481,-14.1272 -4.52953,-21.8717 -0.0141732,-4.62992 0.539764,-9.04607 1.59331,-13.2225 1.12087,-4.44449 2.76496,-8.65158 4.85788,-12.5882l0.275197 -0.412205 2.76969 -4.71496 0.046063 -0.0921261 33.3874 -55.4847c2.09055,-3.46418 5.16615,-6.45945 8.93505,-8.03859z"/>
    <path id="_289982008" class="fil19" d="M1324.1 964.535c0.874016,-1.80945 3.04961,-2.5689 4.86024,-1.69488 1.80945,0.872835 2.5689,3.04843 1.69488,4.85906 -2.94921,6.08623 -3.87048,12.7748 -2.89961,19.1799 0.972048,6.39804 3.83386,12.5043 8.45079,17.4343 4.62402,4.93819 10.5331,8.19568 16.8496,9.58229 6.32599,1.3878 13.0618,0.904725 19.3311,-1.64291 1.86496,-0.754725 3.98977,0.144095 4.74567,2.00906 0.754725,1.86614 -0.145276,3.99095 -2.01024,4.74567 -7.663,3.11339 -15.8882,3.70748 -23.6055,2.01378 -7.72796,-1.69606 -14.9551,-5.68229 -20.6114,-11.7213 -5.66457,-6.04725 -9.17363,-13.5201 -10.3595,-21.3378 -1.18465,-7.81064 -0.0555119,-15.9791 3.55394,-23.4272z"/>
   </g>
   <g>
    <path id="_289982680" class="fil16" d="M1342.71 609.766c3.07323,-1.28504 6.49016,-1.97953 9.99804,-1.9441 9.4819,-0.0968505 18.1276,5.33504 22.9382,13.3453 16.4185,27.6307 33.3532,55.1918 49.9914,82.7481l0.068504 0.137008 4.28859 7.24725 0.408662 0.748819c3.09921,5.87481 5.51575,12.0532 7.13741,18.4358 1.55433,6.1193 2.40709,12.6709 2.45669,19.591l0 0.068504c-0.034252,11.4756 -2.44606,22.4374 -6.76772,32.4225 -4.49292,10.3843 -10.9973,19.6689 -18.9874,27.3402l-0.153543 0.140551c-7.97599,7.63701 -17.5193,13.8012 -28.1481,18.0437 -10.1681,4.05945 -21.3118,6.31772 -32.9882,6.36733l-0.068504 0c-11.7709,0.0129921 -22.9335,-2.18386 -33.0567,-6.18071 -10.6748,-4.213 -20.2784,-10.3984 -28.3193,-18.0839l-0.068504 -0.0673229c-8.05394,-7.70906 -14.5677,-16.989 -19.0618,-27.3744 -4.33229,-10.0158 -6.72284,-20.9906 -6.72993,-32.4969 -0.0212599,-6.87993 0.801969,-13.441 2.36693,-19.6477 1.66536,-6.60237 4.10906,-12.8528 7.2189,-18.7028l0.408662 -0.612993 4.11496 -7.00512 0.068504 -0.135827 49.6075 -82.4398c3.1063,-5.14843 7.67717,-9.59765 13.2768,-11.9445z"/>
    <path id="_289982176" class="fil20" d="M1352.83 607.822c0.231496,-0.00236221 0.464174,0 0.694489,0.00590552 9.16418,0.210236 17.4555,5.55709 22.1292,13.3394 16.4185,27.6307 33.3532,55.1918 49.9914,82.7493l0.068504 0.135827 4.28859 7.24725 0.409843 0.748819c3.09685,5.87599 5.51575,12.0532 7.13623,18.4358 1.55433,6.1193 2.40709,12.6721 2.45669,19.591l0 0.068504c-0.034252,11.4756 -2.44606,22.4374 -6.76654,32.4225 -4.4941,10.3831 -10.9973,19.6689 -18.9874,27.3402l-0.154725 0.13937c-7.97599,7.63701 -17.5193,13.8012 -28.1469,18.0449 -10.1693,4.05945 -21.313,6.31654 -32.9894,6.36615l-0.0377953 0 -0.0295276 0 -0.0625985 0 0 -226.635z"/>
    <path id="_289982560" class="fil16" d="M1342.71 609.765c3.07323,-1.28504 6.49016,-1.97835 9.99804,-1.94291l0.114567 0 0 226.635c-11.7484,0.00590552 -22.8898,-2.19095 -32.9965,-6.17953 -10.6736,-4.213 -20.2772,-10.3984 -28.3181,-18.0827l-0.068504 -0.068504c-8.05394,-7.70906 -14.5677,-16.989 -19.0618,-27.3744 -4.33229,-10.0158 -6.72284,-20.9906 -6.72993,-32.4969 -0.0212599,-6.87993 0.801969,-13.441 2.36811,-19.6477 1.66417,-6.60355 4.10906,-12.8539 7.21772,-18.7028l0.408662 -0.612993 4.11496 -7.00512 0.068504 -0.135827 49.6075 -82.4398c3.1063,-5.14843 7.67717,-9.59765 13.2768,-11.9457z"/>
    <path id="_289982584" class="fil19" d="M1297.28 722.754c1.29803,-2.68937 4.53071,-3.81733 7.22008,-2.51929 2.68937,1.29685 3.81851,4.53071 2.52047,7.22008 -4.38307,9.04253 -5.75197,18.9815 -4.30866,28.4977 1.44331,9.5067 5.69528,18.5799 12.5551,25.904 6.87166,7.33583 15.6496,12.1772 25.0358,14.237 9.39922,2.06339 19.4079,1.3441 28.7221,-2.44016 2.77087,-1.12205 5.92914,0.21378 7.05119,2.98583 1.12205,2.77087 -0.214961,5.92796 -2.98583,7.05001 -11.3858,4.62638 -23.6079,5.50867 -35.0752,2.99173 -11.4815,-2.52047 -22.2189,-8.44135 -30.6236,-17.4142 -8.41654,-8.98701 -13.6299,-20.0906 -15.3921,-31.7055 -1.76102,-11.6043 -0.0826772,-23.7414 5.28071,-34.8071z"/>
   </g>
   <g>
    <path id="_289982464" class="fil16" d="M1187.02 729.911c3.07323,-1.28504 6.49016,-1.97835 9.99804,-1.9441 9.4819,-0.0956694 18.1276,5.33622 22.9382,13.3453 16.4185,27.6307 33.3532,55.193 49.9914,82.7493l0.068504 0.137008 4.28859 7.24607 0.408662 0.750001c3.09803,5.87481 5.51575,12.0532 7.13741,18.4347 1.55433,6.12048 2.40591,12.6721 2.45551,19.5921l0 0.068504c-0.0330709,11.4744 -2.44488,22.4374 -6.76654,32.4225 -4.4941,10.3831 -10.9973,19.6677 -18.9874,27.339l-0.154725 0.140551c-7.97481,7.63701 -17.5193,13.8012 -28.1469,18.0449 -10.1681,4.05945 -21.3118,6.31654 -32.9882,6.36615l-0.068504 0c-11.7709,0.0141732 -22.9335,-2.18386 -33.0579,-6.17953 -10.6736,-4.21418 -20.2784,-10.3984 -28.3193,-18.0839l-0.0673229 -0.0673229c-8.05394,-7.70906 -14.5689,-16.9902 -19.0618,-27.3744 -4.33347,-10.0169 -6.72284,-20.9906 -6.73111,-32.4969 -0.0200788,-6.87993 0.80315,-13.441 2.36811,-19.6477 1.66536,-6.60355 4.10906,-12.8539 7.2189,-18.7028l0.408662 -0.612993 4.11496 -7.00512 0.068504 -0.135827 49.6075 -82.441c3.1063,-5.14725 7.67599,-9.59765 13.2768,-11.9445z"/>
    <path id="_289981360" class="fil20" d="M1197.13 727.967c0.231496,-0.0011811 0.462992,0 0.694489,0.00590552 9.163,0.210236 17.4555,5.55827 22.128,13.3394 16.4197,27.6319 33.3544,55.1918 49.9926,82.7493l0.068504 0.137008 4.28859 7.24725 0.408662 0.748819c3.09803,5.87481 5.51693,12.0532 7.13741,18.4347 1.55433,6.12048 2.40591,12.6721 2.45551,19.5921l0 0.068504c-0.0330709,11.4756 -2.44488,22.4374 -6.76654,32.4225 -4.49292,10.3831 -10.9973,19.6677 -18.9874,27.339l-0.153543 0.140551c-7.97599,7.63701 -17.5205,13.8012 -28.1481,18.0449 -10.1681,4.05945 -21.3118,6.31654 -32.9882,6.36615l-0.0389764 0 -0.0295276 0 -0.0614174 0 0 -226.636z"/>
    <path id="_289981648" class="fil16" d="M1187.02 729.911c3.07323,-1.28504 6.49016,-1.97835 9.99804,-1.9441l0.114567 0 0 226.636c-11.7484,0.00590552 -22.8898,-2.19095 -32.9965,-6.17953 -10.6736,-4.213 -20.2784,-10.3984 -28.3181,-18.0839l-0.0696851 -0.0673229c-8.05276,-7.70906 -14.5677,-16.989 -19.0606,-27.3744 -4.33347,-10.0158 -6.72284,-20.9906 -6.72993,-32.4969 -0.0212599,-6.87993 0.801969,-13.4421 2.36693,-19.6477 1.66536,-6.60355 4.10906,-12.8539 7.2189,-18.7028l0.408662 -0.612993 4.11496 -7.00512 0.068504 -0.137008 49.6075 -82.4398c3.1063,-5.14725 7.67717,-9.59765 13.2768,-11.9445z"/>
    <path id="_289981888" class="fil19" d="M1141.59 842.9c1.29803,-2.68937 4.53071,-3.81851 7.22008,-2.52047 2.68937,1.29803 3.81733,4.53071 2.52047,7.22008 -4.38307,9.04371 -5.75197,18.9827 -4.30866,28.4988 1.44213,9.5067 5.69528,18.5799 12.5551,25.904 6.87166,7.33583 15.6496,12.1772 25.0358,14.237 9.39922,2.06339 19.4079,1.3441 28.7221,-2.44016 2.77087,-1.12205 5.92914,0.21378 7.05119,2.98465 1.12087,2.77205 -0.214961,5.92914 -2.98583,7.05119 -11.3858,4.62638 -23.6079,5.50748 -35.0752,2.99055 -11.4815,-2.51929 -22.2189,-8.44135 -30.6236,-17.4142 -8.41654,-8.98583 -13.6299,-20.0894 -15.3933,-31.7044 -1.75984,-11.6043 -0.0814961,-23.7425 5.28189,-34.8071z"/>
   </g>
   <g>
    <path id="_289981240" class="fil16" d="M1013.95 609.766c3.07323,-1.28504 6.49016,-1.97953 9.99804,-1.9441 9.4819,-0.0968505 18.1276,5.33504 22.9382,13.3453 16.4173,27.6307 33.3532,55.1918 49.9914,82.7481l0.0673229 0.137008 4.28977 7.24725 0.408662 0.748819c3.09803,5.87481 5.51575,12.0532 7.13741,18.4358 1.55433,6.1193 2.40591,12.6709 2.45551,19.591l0 0.068504c-0.0330709,11.4756 -2.44488,22.4374 -6.76654,32.4225 -4.4941,10.3843 -10.9973,19.6689 -18.9874,27.3402l-0.154725 0.140551c-7.97481,7.63701 -17.5193,13.8012 -28.1469,18.0437 -10.1693,4.05945 -21.3118,6.31772 -32.9882,6.36733l-0.068504 0c-11.7709,0.0129921 -22.9335,-2.18386 -33.0579,-6.18071 -10.6736,-4.213 -20.2784,-10.3984 -28.3193,-18.0839l-0.068504 -0.0673229c-8.05276,-7.70906 -14.5677,-16.989 -19.0606,-27.3744 -4.33347,-10.0158 -6.72284,-20.9906 -6.73111,-32.4969 -0.0200788,-6.87993 0.80315,-13.441 2.36811,-19.6477 1.66536,-6.60237 4.10906,-12.8528 7.21772,-18.7028l0.408662 -0.612993 4.11614 -7.00512 0.068504 -0.135827 49.6075 -82.4398c3.10512,-5.14843 7.67599,-9.59765 13.2768,-11.9445z"/>
    <path id="_289981768" class="fil20" d="M1024.07 607.822c0.232677,-0.00236221 0.464174,0 0.69567,0.00590552 9.163,0.210236 17.4555,5.55709 22.128,13.3394 16.4185,27.6307 33.3544,55.1918 49.9914,82.7493l0.0696851 0.135827 4.28859 7.24725 0.408662 0.748819c3.09803,5.87599 5.51575,12.0532 7.13741,18.4358 1.55433,6.1193 2.40591,12.6721 2.45551,19.591l0 0.068504c-0.0330709,11.4756 -2.44488,22.4374 -6.76654,32.4225 -4.4941,10.3831 -10.9973,19.6689 -18.9874,27.3402l-0.154725 0.13937c-7.97481,7.63701 -17.5193,13.8012 -28.1469,18.0449 -10.1693,4.05945 -21.3118,6.31654 -32.9882,6.36615l-0.0389764 0 -0.0295276 0 -0.0625985 0 0 -226.635z"/>
    <path id="_289981336" class="fil16" d="M1013.95 609.765c3.07323,-1.28504 6.49016,-1.97835 9.99686,-1.94291l0.114567 0 0 226.635c-11.7473,0.00590552 -22.8886,-2.19095 -32.9953,-6.17953 -10.6736,-4.213 -20.2784,-10.3984 -28.3193,-18.0827l-0.068504 -0.068504c-8.05276,-7.70906 -14.5677,-16.989 -19.0606,-27.3744 -4.33347,-10.0158 -6.72402,-20.9906 -6.73111,-32.4969 -0.0200788,-6.87993 0.80315,-13.441 2.36811,-19.6477 1.66536,-6.60355 4.10906,-12.8539 7.21772,-18.7028l0.408662 -0.612993 4.11614 -7.00512 0.068504 -0.135827 49.6075 -82.4398c3.10512,-5.14843 7.67599,-9.59765 13.2768,-11.9457z"/>
    <path id="_289981696" class="fil19" d="M968.524 722.754c1.29803,-2.68937 4.53071,-3.81733 7.22008,-2.51929 2.68937,1.29685 3.81733,4.53071 2.51929,7.22008 -4.38189,9.04253 -5.75197,18.9815 -4.30748,28.4977 1.44213,9.5067 5.6941,18.5799 12.5551,25.904 6.87166,7.33583 15.6496,12.1772 25.0347,14.237 9.39922,2.06339 19.4091,1.3441 28.7233,-2.44016 2.77087,-1.12205 5.92914,0.21378 7.05001,2.98583 1.12205,2.77087 -0.21378,5.92796 -2.98465,7.05001 -11.387,4.62638 -23.6079,5.50867 -35.0752,2.99173 -11.4827,-2.52047 -22.2189,-8.44135 -30.6236,-17.4142 -8.41654,-8.98701 -13.6299,-20.0906 -15.3933,-31.7055 -1.75984,-11.6043 -0.0814961,-23.7414 5.28189,-34.8071z"/>
   </g>
   <g>
    <path id="_289980832" class="fil16" d="M685.062 609.766c3.07441,-1.28504 6.49134,-1.97953 9.99804,-1.9441 9.4819,-0.0968505 18.1288,5.33504 22.9382,13.3453 16.4185,27.6307 33.3532,55.1918 49.9914,82.7481l0.068504 0.137008 4.28977 7.24725 0.408662 0.748819c3.09803,5.87481 5.51575,12.0532 7.13623,18.4358 1.55433,6.1193 2.40709,12.6709 2.45669,19.591l0 0.068504c-0.0330709,11.4756 -2.44488,22.4374 -6.76654,32.4225 -4.4941,10.3843 -10.9973,19.6689 -18.9874,27.3402l-0.154725 0.140551c-7.97481,7.63701 -17.5193,13.8012 -28.1469,18.0437 -10.1693,4.05945 -21.3118,6.31772 -32.9882,6.36733l-0.068504 0c-11.7721,0.0129921 -22.9335,-2.18386 -33.0579,-6.18071 -10.6748,-4.213 -20.2784,-10.3984 -28.3193,-18.0839l-0.068504 -0.0673229c-8.05394,-7.70906 -14.5677,-16.989 -19.0618,-27.3744 -4.33229,-10.0158 -6.72284,-20.9906 -6.72993,-32.4969 -0.0212599,-6.87993 0.80315,-13.441 2.36811,-19.6477 1.66417,-6.60237 4.10906,-12.8528 7.21772,-18.7028l0.408662 -0.612993 4.11614 -7.00512 0.0673229 -0.135827 49.6075 -82.4398c3.1063,-5.14843 7.67717,-9.59765 13.2768,-11.9445z"/>
    <path id="_289980952" class="fil20" d="M695.175 607.822c0.231496,-0.00236221 0.464174,0 0.69567,0.00590552 9.163,0.210236 17.4543,5.55709 22.128,13.3394 16.4185,27.6307 33.3532,55.1918 49.9914,82.7493l0.068504 0.135827 4.28977 7.24725 0.408662 0.748819c3.09803,5.87599 5.51575,12.0532 7.13741,18.4358 1.55315,6.1193 2.40591,12.6721 2.45551,19.591l0 0.068504c-0.034252,11.4756 -2.44606,22.4374 -6.76654,32.4225 -4.4941,10.3831 -10.9973,19.6689 -18.9874,27.3402l-0.154725 0.13937c-7.97599,7.63701 -17.5193,13.8012 -28.1469,18.0449 -10.1693,4.05945 -21.3118,6.31654 -32.9894,6.36615l-0.0377953 0 -0.0295276 0 -0.0625985 0 0 -226.635z"/>
    <path id="_289980976" class="fil16" d="M685.062 609.765c3.07441,-1.28504 6.49134,-1.97835 9.99804,-1.94291l0.114567 0 0 226.635c-11.7484,0.00590552 -22.8886,-2.19095 -32.9953,-6.17953 -10.6748,-4.213 -20.2784,-10.3984 -28.3193,-18.0827l-0.068504 -0.068504c-8.05394,-7.70906 -14.5677,-16.989 -19.0606,-27.3744 -4.33347,-10.0158 -6.72402,-20.9906 -6.73111,-32.4969 -0.0212599,-6.87993 0.80315,-13.441 2.36811,-19.6477 1.66536,-6.60355 4.10906,-12.8539 7.21772,-18.7028l0.408662 -0.612993 4.11614 -7.00512 0.0673229 -0.135827 49.6087 -82.4398c3.10512,-5.14843 7.67599,-9.59765 13.2756,-11.9457z"/>
    <path id="_289980568" class="fil19" d="M639.631 722.754c1.29803,-2.68937 4.53071,-3.81733 7.22127,-2.51929 2.68937,1.29685 3.81733,4.53071 2.51929,7.22008 -4.38307,9.04253 -5.75197,18.9815 -4.30866,28.4977 1.44331,9.5067 5.69528,18.5799 12.5551,25.904 6.87166,7.33583 15.6496,12.1772 25.0358,14.237 9.39922,2.06339 19.4079,1.3441 28.7233,-2.44016 2.77087,-1.12205 5.92796,0.21378 7.05001,2.98583 1.12205,2.77087 -0.21378,5.92796 -2.98583,7.05001 -11.3858,4.62638 -23.6079,5.50867 -35.074,2.99173 -11.4827,-2.52047 -22.2201,-8.44135 -30.6248,-17.4142 -8.41654,-8.98701 -13.6299,-20.0906 -15.3921,-31.7055 -1.76102,-11.6043 -0.0814961,-23.7414 5.28071,-34.8071z"/>
   </g>
   <g>
    <path id="_289980904" class="fil16" d="M858.175 729.911c3.07323,-1.28504 6.49016,-1.97835 9.99804,-1.9441 9.4819,-0.0956694 18.1276,5.33622 22.937,13.3453 16.4185,27.6307 33.3544,55.193 49.9914,82.7493l0.068504 0.137008 4.28977 7.24607 0.408662 0.750001c3.09803,5.87481 5.51575,12.0532 7.13741,18.4347 1.55315,6.12048 2.40591,12.6721 2.45551,19.5921l0 0.068504c-0.0330709,11.4744 -2.44488,22.4374 -6.76654,32.4225 -4.4941,10.3831 -10.9973,19.6677 -18.9874,27.339l-0.154725 0.140551c-7.97481,7.63701 -17.5193,13.8012 -28.1469,18.0449 -10.1693,4.05945 -21.3118,6.31654 -32.9882,6.36615l-0.068504 0c-11.7709,0.0141732 -22.9335,-2.18386 -33.0579,-6.17953 -10.6736,-4.21418 -20.2784,-10.3984 -28.3193,-18.0839l-0.068504 -0.0673229c-8.05276,-7.70906 -14.5677,-16.9902 -19.0606,-27.3744 -4.33347,-10.0169 -6.72284,-20.9906 -6.73111,-32.4969 -0.0200788,-6.87993 0.80315,-13.441 2.36811,-19.6477 1.66536,-6.60355 4.10906,-12.8539 7.21772,-18.7028l0.408662 -0.612993 4.11614 -7.00512 0.068504 -0.135827 49.6075 -82.441c3.10512,-5.14725 7.67599,-9.59765 13.2768,-11.9445z"/>
    <path id="_289980928" class="fil20" d="M868.287 727.967c0.232677,-0.0011811 0.464174,0 0.69567,0.00590552 9.163,0.210236 17.4555,5.55827 22.128,13.3394 16.4185,27.6319 33.3532,55.1918 49.9914,82.7493l0.0696851 0.137008 4.28859 7.24725 0.408662 0.748819c3.09803,5.87481 5.51575,12.0532 7.13741,18.4347 1.55433,6.12048 2.40591,12.6721 2.45551,19.5921l0 0.068504c-0.0330709,11.4756 -2.44488,22.4374 -6.76654,32.4225 -4.4941,10.3831 -10.9973,19.6677 -18.9874,27.339l-0.154725 0.140551c-7.97481,7.63701 -17.5193,13.8012 -28.1469,18.0449 -10.1693,4.05945 -21.3118,6.31654 -32.9882,6.36615l-0.0389764 0 -0.0295276 0 -0.0625985 0 0 -226.636z"/>
    <path id="_289979728" class="fil16" d="M858.175 729.911c3.07323,-1.28504 6.49016,-1.97835 9.99686,-1.9441l0.114567 0 0 226.636c-11.7473,0.00590552 -22.8886,-2.19095 -32.9953,-6.17953 -10.6736,-4.213 -20.2784,-10.3984 -28.3193,-18.0839l-0.068504 -0.0673229c-8.05276,-7.70906 -14.5677,-16.989 -19.0606,-27.3744 -4.33347,-10.0158 -6.72402,-20.9906 -6.73111,-32.4969 -0.0200788,-6.87993 0.80315,-13.4421 2.36811,-19.6477 1.66536,-6.60355 4.10906,-12.8539 7.21772,-18.7028l0.408662 -0.612993 4.11614 -7.00512 0.0673229 -0.137008 49.6087 -82.4398c3.10512,-5.14725 7.67599,-9.59765 13.2768,-11.9445z"/>
    <path id="_289980328" class="fil19" d="M812.744 842.9c1.29803,-2.68937 4.53071,-3.81851 7.22008,-2.52047 2.68937,1.29803 3.81733,4.53071 2.51929,7.22008 -4.38189,9.04371 -5.75197,18.9827 -4.30748,28.4988 1.44213,9.5067 5.6941,18.5799 12.5551,25.904 6.87048,7.33583 15.6496,12.1772 25.0347,14.237 9.39922,2.06339 19.4091,1.3441 28.7233,-2.44016 2.77087,-1.12205 5.92796,0.21378 7.05001,2.98465 1.12205,2.77205 -0.21378,5.92914 -2.98465,7.05119 -11.387,4.62638 -23.6079,5.50748 -35.0752,2.99055 -11.4827,-2.51929 -22.2189,-8.44135 -30.6236,-17.4142 -8.41654,-8.98583 -13.6299,-20.0894 -15.3933,-31.7044 -1.75984,-11.6043 -0.0814961,-23.7425 5.28189,-34.8071z"/>
   </g>
  </g>
 </g>
 <rect class="fil21" width="2048" height="2048"/>
</svg>
