<?xml version="1.0" encoding="UTF-8"?>
<!DOCTYPE svg PUBLIC "-//W3C//DTD SVG 1.1//EN" "http://www.w3.org/Graphics/SVG/1.1/DTD/svg11.dtd">
<!-- Creator: CorelDRAW -->
<svg xmlns="http://www.w3.org/2000/svg" xml:space="preserve" width="2048px" height="2048px" style="shape-rendering:geometricPrecision; text-rendering:geometricPrecision; image-rendering:optimizeQuality; fill-rule:evenodd; clip-rule:evenodd"
viewBox="0 0 2048 2048"
 xmlns:xlink="http://www.w3.org/1999/xlink">
 <defs>
  <style type="text/css">
   <![CDATA[
    .fil4 {fill:none}
    .fil0 {fill:#6A6A6A;fill-rule:nonzero}
    .fil2 {fill:#6C6C6C;fill-rule:nonzero}
    .fil1 {fill:#767676;fill-rule:nonzero}
    .fil3 {fill:#8C8D8D;fill-rule:nonzero}
   ]]>
  </style>
 </defs>
 <g id="Layer_x0020_1">
  <metadata id="CorelCorpID_0Corel-Layer"/>
  <g id="_429577728">
   <g>
    <path id="_429578184" class="fil0" d="M937.354 903.272l133.852 48.7181c1.0937,0.309449 2.17795,0.694489 3.24803,1.16457 12.4547,5.47441 18.1134,20.0091 12.639,32.4638l-0.034252 0 -202.606 460.948c-0.148819,0.388583 -0.307087,0.777166 -0.475985,1.16221l-0.0295276 -0.0129921 -0.00826772 0.0188977 -0.0354331 -0.0153543c-0.571654,1.29213 -1.35827,2.94213 -2.35158,4.92756 -10.6996,21.3992 -28.3193,39.2067 -48.75,49.3359 -21.5232,10.6701 -46.1528,13.1622 -69.769,3.29292 -0.466536,-0.172441 -0.93189,-0.357874 -1.3937,-0.561024l0.0129921 -0.0295276 -0.0177165 -0.00826772 0.0153543 -0.0354331c-0.868111,-0.382677 -2.08701,-0.967324 -3.66733,-1.75866l-0.00236221 -0.0011811c-23.4815,-11.7402 -42.9426,-30.8421 -53.3398,-53.1367 -10.2201,-21.9213 -12.0543,-46.7729 -1.32638,-71.1839l202.618 -460.973c4.77992,-12.5599 18.7748,-18.9933 31.4457,-14.3811l-0.0236221 0.0649607z"/>
    <path id="_429578448" class="fil0" d="M1281.01 903.272l-133.852 48.7181c-1.0937,0.309449 -2.17914,0.694489 -3.24922,1.16457 -12.4547,5.47441 -18.1134,20.0091 -12.639,32.4638l0.034252 0 202.608 460.948c0.147638,0.388583 0.305906,0.777166 0.474804,1.16221l0.0307087 -0.0129921 0.00826772 0.0188977 0.0354331 -0.0153543c0.570473,1.29213 1.35709,2.94213 2.3504,4.92756 10.7008,21.3992 28.3205,39.2067 48.75,49.3359 21.5232,10.6701 46.154,13.1622 69.769,3.29292 0.467717,-0.172441 0.93189,-0.357874 1.3937,-0.561024l-0.0129921 -0.0295276 0.0188977 -0.00826772 -0.0153543 -0.0354331c0.868111,-0.382677 2.08583,-0.967324 3.66614,-1.75866l0.00236221 -0.0011811c23.4827,-11.7402 42.9437,-30.8421 53.3398,-53.1367 10.2201,-21.9213 12.0555,-46.7729 1.32638,-71.1839l-202.617 -460.973c-4.77992,-12.5599 -18.776,-18.9933 -31.4457,-14.3811l0.0236221 0.0649607z"/>
   </g>
   <path id="_429578424" class="fil1" d="M629.091 1032.01c16.9004,0.132284 30.7087,-13.461 30.841,-30.3614 0.132284,-16.9004 -13.4599,-30.7087 -30.3603,-30.841 -0.733465,-0.00708662 -256.185,-6.59528 -210.545,334.467 12.1252,90.6178 19.2118,164.617 24.9543,224.581 14.5665,152.14 21.2185,221.573 82.8981,249.279 21.9543,9.86103 47.7839,16.8626 76.3808,10.3134 27.8351,-6.37323 56.1496,-25.2177 81.9816,-66.3154 9.01418,-14.3162 4.71496,-33.228 -9.60001,-42.241 -14.315,-9.013 -33.2268,-4.71496 -42.2398,9.60001 -15.8433,25.2071 -30.5705,36.1595 -43.8225,39.1937 -12.489,2.86063 -25.8059,-1.11142 -37.7386,-6.47126 -29.0811,-13.063 -34.6654,-71.367 -46.8981,-199.119 -5.79685,-60.5363 -12.952,-135.246 -25.1941,-226.741 -36.1819,-270.386 148.812,-265.35 149.342,-265.344z"/>
   <path id="_429577392" class="fil2" d="M1166.62 1049.08l166.924 -60.7548 -0.0295276 -0.0814961c15.8008,-5.75079 33.254,2.27244 39.215,17.9351l252.681 574.87c13.3795,30.4418 11.0917,61.4339 -1.65473,88.7705 -12.965,27.8032 -37.2343,51.626 -66.5186,66.267l-0.00236221 0.0011811c-1.97126,0.986221 -3.49016,1.71496 -4.57323,2.19331l0.0188977 0.0448819 -0.022441 0.00944883 0.0165354 0.0366142c-0.576378,0.252756 -1.1563,0.484252 -1.73858,0.699213 -29.4496,12.3083 -60.1654,9.20079 -87.0072,-4.1067 -25.4788,-12.6307 -47.452,-34.8378 -60.7949,-61.5249 -1.23898,-2.47677 -2.22047,-4.53307 -2.93268,-6.14528l-0.0437008 0.0200788 -0.0106299 -0.0236221 -0.0377953 0.0153543c-0.210236,-0.480709 -0.407481,-0.964961 -0.592914,-1.45039l-252.666 -574.838 28.0807 -12.3614 -28.1232 12.3626c-6.82796,-15.5327 0.230315,-33.6591 15.7618,-40.4859 1.33465,-0.585827 2.68701,-1.06654 4.05118,-1.45276z"/>
   <path id="_429577344" class="fil2" d="M884.818 988.33l166.924 60.7548c1.36417,0.386221 2.71654,0.86693 4.05118,1.45276 15.5315,6.82678 22.5886,24.9532 15.7618,40.4859l-28.1232 -12.3626 28.0807 12.3614 -252.668 574.838c-0.184252,0.485433 -0.381496,0.969686 -0.592914,1.45039l-0.0366142 -0.0153543 -0.0106299 0.0236221 -0.0448819 -0.0200788c-0.711024,1.61221 -1.69252,3.66851 -2.9315,6.14528 -13.3441,26.687 -35.3173,48.8941 -60.7949,61.5249 -26.8418,13.3075 -57.5575,16.415 -87.0072,4.1067 -0.583465,-0.214961 -1.16221,-0.446457 -1.73858,-0.699213l0.0153543 -0.0366142 -0.022441 -0.00944883 0.0200788 -0.0448819c-1.08307,-0.478347 -2.60315,-1.20709 -4.57323,-2.19331l-0.00236221 -0.0011811c-29.2843,-14.641 -53.5548,-38.4638 -66.5186,-66.267 -12.7465,-27.3366 -15.0343,-58.3288 -1.65473,-88.7705l252.681 -574.87c5.96103,-15.6626 23.4142,-23.6858 39.215,-17.9351l-0.0295276 0.0814961z"/>
   <path id="_429577968" class="fil3" d="M909.444 256.005l66.7158 0c16.9665,0 30.7217,13.7551 30.7217,30.7205 0,2.98701 -0.42874,5.87363 -1.22362,8.60434 -7.90512,31.5803 -9.32363,69.6036 -1.20827,103.681 6.41103,26.9138 18.6721,50.8252 38.2689,65.576l-18.3614 24.4795 18.476 -24.5445c13.5555,10.2024 16.2721,29.465 6.06969,43.0205 -3.55866,4.72678 -8.21812,8.13426 -13.3536,10.1362 -14.6941,6.97087 -23.5866,13.8697 -27.7689,20.387 -1.65945,2.58662 -2.15551,4.97244 -1.70433,7.0689 0.817323,3.7937 3.77126,8.13426 8.3752,12.6614 11.6362,11.4402 30.9177,21.0331 54.0508,26.374l-6.84095 29.8807 6.90945 -29.9327c16.5307,3.81496 26.8394,20.3114 23.0232,36.8422 -1.81417,7.86024 -6.49607,14.3126 -12.685,18.5103 -8.27245,6.86221 -13.2957,15.3331 -15.4843,24.1713 -2.23465,9.02599 -1.66181,18.5847 1.31457,27.3886 2.99055,8.8441 8.26536,16.741 15.4122,22.3973 7.38662,5.84528 17.1886,9.47953 29.0292,9.47953 11.8406,0 21.639,-3.63307 29.0268,-9.47835 7.14331,-5.65276 12.4158,-13.5461 15.4063,-22.3831l-0.0543308 -0.0177165c0.200788,-0.592914 0.420473,-1.1752 0.651969,-1.74685 2.4626,-8.31024 2.81221,-17.2016 0.724016,-25.6406 -2.31378,-9.34725 -7.79882,-18.2811 -16.9417,-25.3382l-0.056693 0.0732284c-13.4339,-10.3606 -15.9236,-29.6528 -5.563,-43.0866 4.91811,-6.37678 11.8465,-10.2862 19.2059,-11.5276 22.3666,-5.413 40.9831,-14.8087 52.3288,-25.9654 4.60512,-4.52717 7.5567,-8.86772 8.3752,-12.6614 0.451181,-2.09764 -0.0437008,-4.48347 -1.70315,-7.0689 -4.33701,-6.75709 -13.7362,-13.9252 -29.4177,-21.1583l-0.0259843 0.056693c-15.4063,-7.10552 -22.1351,-25.3571 -15.0307,-40.7634 2.69173,-5.83819 6.98741,-10.428 12.1193,-13.4929 18.3071,-13.461 29.9292,-35.5536 36.0473,-61.2426 8.03859,-33.7418 6.56103,-72.6367 -1.8189,-107.6l-0.125197 0.0307087c-3.95906,-16.4977 6.20552,-33.0827 22.702,-37.0418 2.60433,-0.624804 5.20985,-0.897638 7.76812,-0.849213l66.6414 0c15.6284,0 28.5331,11.6705 30.4689,26.7732 9.18308,41.4697 24.6851,115.25 29.354,207.946 4.8,95.2666 -1.79882,210.293 -38.2311,330.551 -0.461811,1.52835 -1.90276,35.0847 -3.38977,69.7878 -0.762993,17.8158 -1.54016,35.8866 -2.17914,48.4453l-30.6012 -1.56024 30.6803 1.56496c-0.699213,13.7032 -10.2756,24.8481 -22.8756,28.154l-133.436 46.8237 0.0307087 0.0885827c-12.5906,4.41733 -26.1225,0.15 -34.0607,-9.66142l-25.0559 -26.9008 -24.4583 28.591 0.0614174 0.0519685c-9.04371,10.5732 -23.7118,13.487 -35.8087,8.11418l-136.018 -47.7307 10.0795 -28.9205 -10.1717 28.9878c-13.0488,-4.57796 -21.0567,-17.0717 -20.5311,-30.2055 -0.512599,-12.3059 -1.05945,-27.2894 -1.59685,-42.0981 -1.2437,-34.2402 -2.45551,-67.5567 -2.53583,-67.8178 -37.7315,-121.517 -44.8252,-237.787 -40.1776,-334.047 4.62166,-95.719 20.8831,-171.556 30.052,-212.817l29.8807 6.60001 -29.9882 -6.66378c3.22205,-14.5039 16.2106,-24.3154 30.5126,-24.0567z"/>
  </g>
 </g>
 <rect class="fil4" width="2048" height="2048"/>
</svg>
