<?xml version="1.0" encoding="UTF-8"?>
<!DOCTYPE svg PUBLIC "-//W3C//DTD SVG 1.1//EN" "http://www.w3.org/Graphics/SVG/1.1/DTD/svg11.dtd">
<!-- Creator: CorelDRAW -->
<svg xmlns="http://www.w3.org/2000/svg" xml:space="preserve" width="2048px" height="2048px" style="shape-rendering:geometricPrecision; text-rendering:geometricPrecision; image-rendering:optimizeQuality; fill-rule:evenodd; clip-rule:evenodd"
viewBox="0 0 2048 2048"
 xmlns:xlink="http://www.w3.org/1999/xlink">
 <defs>
  <style type="text/css">
   <![CDATA[
    .fil13 {fill:none}
    .fil8 {fill:#323232}
    .fil11 {fill:#414141}
    .fil7 {fill:#424343}
    .fil3 {fill:#6B6B6B}
    .fil12 {fill:#767676}
    .fil6 {fill:#959595}
    .fil5 {fill:#B6B6B6}
    .fil9 {fill:#C2C2C2}
    .fil2 {fill:#CACBCB}
    .fil1 {fill:#D5D5D6}
    .fil0 {fill:#D8D9D9}
    .fil4 {fill:#E5E5E6}
    .fil10 {fill:#2F2F2F;fill-rule:nonzero}
   ]]>
  </style>
 </defs>
 <g id="Layer_x0020_1">
  <metadata id="CorelCorpID_0Corel-Layer"/>
  <g id="_291453376">
   <path id="_291439024" class="fil0" d="M742.47 598.78c18.7488,-8.05749 42.6166,19.6784 53.2949,61.9548 10.6784,42.2634 4.13386,83.0528 -14.6256,91.1091 -18.7488,8.04449 -42.6154,-19.6902 -53.2937,-61.9666 -10.689,-42.2634 -4.13504,-83.0564 14.6244,-91.0973z"/>
   <path id="_291438808" class="fil0" d="M1290.81 598.78c-18.7595,-8.05749 -42.626,19.6914 -53.3056,61.9548 -10.6784,42.2634 -4.13386,83.0528 14.6232,91.0961 18.7583,8.05749 42.6248,-19.6772 53.3044,-61.9536 10.6784,-42.2634 4.13386,-83.0564 -14.6221,-91.0973z"/>
   <path id="_291438880" class="fil1" d="M1131.59 762.794l0 261.277c-62.9493,77.0965 -165.954,74.4272 -228.893,0l0 -261.277c0,-141.084 228.893,-141.084 228.893,0z"/>
   <path id="_291439432" class="fil2" d="M1131.59 762.794l0 174.93c-43.3111,31.5697 -85.0524,49.2544 -114.447,49.2544 -29.3953,0 -71.1449,-17.6847 -114.447,-49.2544l0 -174.93c0,-141.084 228.893,-141.084 228.893,0z"/>
   <path id="_291454960" class="fil3" d="M909.224 966.701c-238.582,104.594 -310.154,160.364 -338.444,185.397 -118.31,104.681 -68.0386,501.087 -93.4264,621.652l539.798 0 539.785 0c-25.6347,-121.737 20.7449,-520.63 -93.4241,-621.652 -28.2803,-25.0323 -97.2331,-79.3678 -335.824,-183.962l-218.465 -1.43504z"/>
   <path id="_291454888" class="fil4" d="M877.103 914.974l14.5618 268.245 121.831 273.36 147.807 -333.94 -4.60512 -207.665c-93.1926,0 -186.395,0 -279.594,0z"/>
   <path id="_291454168" class="fil5" d="M835.1 1092.45c60.0473,44.6481 226.341,73.9005 375.698,10.774 -131.864,116.919 -205.108,343.2 -196.276,349.205l-3.64843 -6.21969c8.75079,-2.01969 -69.1902,-186.956 -175.774,-353.759z"/>
   <path id="_291454672" class="fil6" d="M901.308 887.782l17.1331 134.886 105.436 433.911 -206.274 -193.264 83.1745 -60.5717 -117.644 -51.9237c0,0 0.17126,-182.127 118.174,-263.038z"/>
   <path id="_291454144" class="fil6" d="M1132.99 887.782l-18.2315 134.886 -109.499 433.911 207.851 -193.264 -82.669 -60.5717 118.07 -51.9237c0,0 -15.528,-191.437 -115.521,-263.038z"/>
   <g>
    <path id="_291454480" class="fil7" d="M689.438 1774.66l34.2662 0c-1.53189,-267.062 -1.53189,-459.534 -1.53189,-459.534 0,0 -15.1784,200.034 -32.7343,459.534z"/>
    <path id="_291454312" class="fil7" d="M1344.85 1774.66l-34.2851 0c1.53071,-267.062 1.53071,-459.534 1.53071,-459.534 0,0 15.1795,200.034 32.7544,459.534z"/>
   </g>
   <path id="_291454360" class="fil0" d="M1137.29 767.756l-10.2236 173.547c-42.4418,29.9551 -81.1205,46.9288 -109.925,46.9288 -28.8047,0 -67.4776,-15.8114 -109.911,-45.7654l-10.239 -174.71c0,-141.084 240.299,-141.084 240.299,0z"/>
   <path id="_291454240" class="fil4" d="M1017.15 293.707c-384.125,0 -245.986,484.578 -220.895,521.521 27.6673,40.7469 105.057,128.299 220.895,128.299 105.469,0 193.219,-87.5516 220.883,-128.299 25.1032,-36.9425 163.241,-521.521 -220.883,-521.521z"/>
   <path id="_291454744" class="fil8" d="M841.567 449.034c-22.2792,121.73 -78.0792,110.368 -73.6548,253.216 -17.9232,-111.333 -44.6941,-259.495 31.0016,-357.089 60.4831,-77.9823 260.809,-133.763 390.528,-40.1977 143.274,30.6095 98.4709,322.311 79.2591,377.446 -13.4114,-89.3032 -43.4516,-126.504 -81.3792,-231.501 -51.4524,36.8953 -279.797,45.1276 -345.755,-1.87441z"/>
   <path id="_291454264" class="fil9" d="M900.809 779.569c77.256,27.6484 166.93,23.1662 232.674,0 -21.4524,98.8418 -191.651,101.242 -232.674,0z"/>
   <path id="_291453832" class="fil10" d="M1043.9 1429.7c99.0355,8.29961 202.198,30.1512 304.962,64.9134 129.69,43.8721 259.167,108.464 379.309,192.478l-36.3201 51.991c-114.854,-80.3174 -238.908,-142.159 -363.386,-184.269 -124.303,-42.0485 -248.616,-64.2721 -364.172,-65.4237 -165.848,113.974 -351.842,161.496 -589.447,233.439l-18.4099 -60.9461c250.601,-75.8776 441.935,-126.306 609.404,-251.644 167.694,-125.505 312.349,-306.743 467.445,-603.393l56.2193 29.354c-147.586,282.285 -287.055,463.972 -445.604,593.498z"/>
   <path id="_291453640" class="fil11" d="M323.407 1642.11l58.2697 -17.4189c8.09764,-2.42008 16.702,2.22402 19.1221,10.3217l23.0906 77.243c2.75906,9.22796 -2.53465,19.0347 -11.7626,21.7937l-56.2134 16.8036 -32.5063 -108.743z"/>
   <path id="_291453592" class="fil12" d="M265.738 1645l74.5477 -22.2851c10.3583,-3.09685 21.3673,2.84528 24.4642,13.2036l29.5406 98.8205c3.52914,11.8051 -3.24331,24.3532 -15.0496,27.8823l-71.915 21.4984 -41.5878 -139.12z"/>
   <path id="_291453496" class="fil11" d="M1782.26 1696.23l-51.3178 -32.6398c-7.1315,-4.53662 -16.676,-2.41299 -21.2114,4.71851l-43.2674 68.0268c-5.16969,8.12599 -2.74961,19.0051 5.37756,24.1736l49.5059 31.4882 60.913 -95.7674z"/>
  </g>
 </g>
 <rect class="fil13" width="2048" height="2048"/>
</svg>
