<?xml version="1.0" encoding="UTF-8"?>
<!DOCTYPE svg PUBLIC "-//W3C//DTD SVG 1.1//EN" "http://www.w3.org/Graphics/SVG/1.1/DTD/svg11.dtd">
<!-- Creator: CorelDRAW -->
<svg xmlns="http://www.w3.org/2000/svg" xml:space="preserve" width="2048px" height="2048px" style="shape-rendering:geometricPrecision; text-rendering:geometricPrecision; image-rendering:optimizeQuality; fill-rule:evenodd; clip-rule:evenodd"
viewBox="0 0 2048 2048"
 xmlns:xlink="http://www.w3.org/1999/xlink">
 <defs>
  <style type="text/css">
   <![CDATA[
    .fil9 {fill:none}
    .fil1 {fill:#2F2F2F}
    .fil7 {fill:#4E4E4F;fill-rule:nonzero}
    .fil4 {fill:#565656;fill-rule:nonzero}
    .fil6 {fill:#5F5F5F;fill-rule:nonzero}
    .fil3 {fill:#6A6A6A;fill-rule:nonzero}
    .fil8 {fill:#878787;fill-rule:nonzero}
    .fil5 {fill:#8B8C8C;fill-rule:nonzero}
    .fil0 {fill:#9D9D9D;fill-rule:nonzero}
    .fil2 {fill:#A1A1A1;fill-rule:nonzero}
   ]]>
  </style>
 </defs>
 <g id="Layer_x0020_1">
  <metadata id="CorelCorpID_0Corel-Layer"/>
  <g id="_497133136">
   <path id="_497133856" class="fil0" d="M1114.65 1643.53c8.80158,-0.447638 15.5728,-7.94883 15.1252,-16.7504 -0.447638,-8.80158 -7.94883,-15.5728 -16.7504,-15.1252 -67.1422,3.66851 -128.493,-24.9213 -187.823,-52.5685 -70.2284,-32.7272 -137.815,-64.2213 -213.908,-45.4264 -88.0654,21.7524 -113.723,72.7394 -139.89,124.749 -28.7386,57.1158 -58.1882,115.645 -194.724,126.163 -8.80158,0.655512 -15.4063,8.32323 -14.7508,17.1248 0.655512,8.80158 8.32323,15.4063 17.1248,14.7508 154.553,-11.9055 188.107,-78.5906 220.85,-143.665 22.8402,-45.3969 45.2351,-89.9009 119.015,-108.124 65.0906,-16.0772 127.713,13.1043 192.783,43.428 62.8252,29.276 127.789,59.55 202.948,55.4433z"/>
   <path id="_497133568" class="fil1" d="M1075.02 1578.23l29.3752 0 0 112.501 -53.7508 0 0 -88.1257c0,-13.4067 10.9689,-24.3756 24.3756,-24.3756z"/>
   <g>
    <g>
     <path id="_497134216" class="fil2" d="M1326.89 339.762c0,-17.6728 -29.315,-32.0008 -65.4745,-32.0008 -36.1595,0 -65.4745,14.328 -65.4745,32.0008l0 372.565c0,17.6728 29.315,32.0008 65.4745,32.0008 36.1595,0 65.4745,-14.328 65.4745,-32.0008l0 -372.565z"/>
     <path id="_497133640" class="fil3" d="M1131.02 680.326l260.796 0c17.6728,0 32.0008,14.328 32.0008,32.0008l0 1005.93c0,17.6728 -14.328,32.0008 -32.0008,32.0008l-260.796 0c-17.6728,0 -32.0008,-14.328 -32.0008,-32.0008l0 -1005.93c0,-17.6728 14.328,-32.0008 32.0008,-32.0008z"/>
     <path id="_497134288" class="fil4" d="M1087.12 680.328c-17.6728,0 -32.0008,14.328 -32.0008,32.0008 0,17.6728 14.328,32.0008 32.0008,32.0008l348.59 0c17.6728,0 32.0008,-14.328 32.0008,-32.0008 0,-17.6728 -14.328,-32.0008 -32.0008,-32.0008l-348.59 0z"/>
    </g>
    <path id="_497133784" class="fil0" d="M907.479 288.619c-17.6728,0 -32.0008,22.9004 -32.0008,51.1465 0,28.2461 14.328,51.1465 32.0008,51.1465l707.874 0c17.6728,0 32.0008,-22.9004 32.0008,-51.1465 0,-28.2461 -14.328,-51.1465 -32.0008,-51.1465l-707.874 0z"/>
   </g>
   <g>
    <g>
     <path id="_497134144" class="fil5" d="M1326.89 339.762c0,-17.6728 -29.315,-32.0008 -65.4745,-32.0008l-0.00354331 0 0 436.566 0.00354331 0c36.1595,0 65.4745,-14.328 65.4745,-32.0008l0 -372.565z"/>
     <path id="_497132872" class="fil6" d="M1261.41 680.326l130.401 0c17.6728,0 32.0008,14.328 32.0008,32.0008l0 1005.93c0,17.6728 -14.328,32.0008 -32.0008,32.0008l-130.401 0 0 -1069.93z"/>
     <path id="_497133208" class="fil7" d="M1261.41 744.33l174.298 0c17.6728,0 32.0008,-14.328 32.0008,-32.0008 0,-17.6728 -14.328,-32.0008 -32.0008,-32.0008l-174.298 0 0 64.0016z"/>
    </g>
    <path id="_497133184" class="fil8" d="M1261.41 390.912l353.94 0c17.6728,0 32.0008,-22.9004 32.0008,-51.1465 0,-28.2461 -14.328,-51.1465 -32.0008,-51.1465l-353.94 0 0 102.293z"/>
   </g>
   <path id="_497133448" class="fil0" d="M1647.35 283.51c0,-17.6728 -14.328,-32.0008 -32.0008,-32.0008 -17.6728,0 -32.0008,14.328 -32.0008,32.0008l0 112.512c0,17.6728 14.328,32.0008 32.0008,32.0008 17.6728,0 32.0008,-14.328 32.0008,-32.0008l0 -112.512z"/>
   <path id="_497132992" class="fil0" d="M939.483 283.51c0,-17.6728 -14.328,-32.0008 -32.0008,-32.0008 -17.6728,0 -32.0008,14.328 -32.0008,32.0008l0 112.512c0,17.6728 14.328,32.0008 32.0008,32.0008 17.6728,0 32.0008,-14.328 32.0008,-32.0008l0 -112.512z"/>
   <path id="_497132944" class="fil4" d="M1031.35 1687.14l-170.883 39.4583c-15.9815,3.67441 -26.3575,21.6154 -23.1744,40.0666 3.18307,18.4512 18.7228,30.4299 34.7044,26.7555 255.827,-59.0729 523.019,-59.0729 778.845,0 15.9815,3.67441 31.5213,-8.30434 34.7044,-26.7555 3.18307,-18.4512 -7.19292,-36.3922 -23.1744,-40.0666l-170.883 -39.4583c-2.15315,-0.576378 -4.39607,-0.883465 -6.70158,-0.883465l-446.736 0c-2.30551,0 -4.54843,0.307087 -6.70158,0.883465z"/>
  </g>
 </g>
 <rect class="fil9" width="2048" height="2048"/>
</svg>
