<?xml version="1.0" encoding="UTF-8"?>
<!DOCTYPE svg PUBLIC "-//W3C//DTD SVG 1.1//EN" "http://www.w3.org/Graphics/SVG/1.1/DTD/svg11.dtd">
<!-- Creator: CorelDRAW -->
<svg xmlns="http://www.w3.org/2000/svg" xml:space="preserve" width="2048px" height="2048px" style="shape-rendering:geometricPrecision; text-rendering:geometricPrecision; image-rendering:optimizeQuality; fill-rule:evenodd; clip-rule:evenodd"
viewBox="0 0 2048 2048"
 xmlns:xlink="http://www.w3.org/1999/xlink">
 <defs>
  <style type="text/css">
   <![CDATA[
    .fil12 {fill:none}
    .fil7 {fill:#2F2F2F}
    .fil1 {fill:#363636}
    .fil0 {fill:#3E3E3E}
    .fil2 {fill:#5F5F5F}
    .fil11 {fill:#6A6A6A}
    .fil3 {fill:#727272}
    .fil4 {fill:#8B8C8C}
    .fil10 {fill:#BFBFBF}
    .fil8 {fill:#D8D8D8}
    .fil6 {fill:#232323;fill-rule:nonzero}
    .fil5 {fill:#AEAEAF;fill-rule:nonzero}
    .fil9 {fill:#BCBCBC;fill-rule:nonzero}
   ]]>
  </style>
 </defs>
 <g id="Layer_x0020_1">
  <metadata id="CorelCorpID_0Corel-Layer"/>
  <g id="_427265752">
   <path id="_427266712" class="fil0" d="M784.757 758.685c0.699213,-12.0083 11.0043,-21.1725 23.0114,-20.4709l-0.00472441 0.0507874c16.5225,0.967324 32.5323,2.64213 48.0024,4.9878 15.2599,2.31378 30.5315,5.3563 45.7701,9.09331 0.925985,0.16063 1.85197,0.38504 2.77323,0.673229 11.4803,3.58819 17.876,15.8079 14.2878,27.287l-0.0389764 -0.0129921 -0.418111 1.34055 15.1264 4.7315 0.0377953 -0.122835c0.206693,-0.826772 0.461811,-1.64882 0.77126,-2.46496 4.26733,-11.2476 16.8437,-16.9051 28.0878,-12.6378l-0.0177165 0.0484252c14.8488,5.63504 29.6044,12.0532 44.2229,19.2118 14.2583,6.98268 27.9331,14.4449 40.989,22.3595 0.83504,0.431103 1.65118,0.921261 2.44252,1.46929 9.88465,6.85276 12.3425,20.4248 5.48741,30.3059l-0.056693 -0.0377953 -0.785434 1.13622 13.0488 9.04725c0.448819,-0.740552 0.949607,-1.45984 1.49764,-2.15906 7.43505,-9.45591 21.1264,-11.0941 30.5823,-3.66024l-0.0177165 0.022441c12.1559,9.55513 24.3189,20.0929 36.4359,31.5673 11.4059,10.7953 22.1658,21.9024 32.2465,33.2847 0.750001,0.719292 1.45748,1.50118 2.11536,2.34567 7.38544,9.49135 5.68111,23.178 -3.81024,30.5634l-0.0200788 0 -0.975591 0.758268 9.70631 12.4665 0.400394 -0.31063c0.520867,-0.433465 1.06417,-0.850394 1.63347,-1.24016 9.90473,-6.82205 23.4662,-4.31811 30.2882,5.58898l-0.0555119 0.0377953c9.27166,13.4681 17.8028,27.137 25.5508,40.9642 7.22245,12.8929 14.1036,26.5984 20.6114,41.0965 0.574016,1.00276 1.07362,2.06457 1.49291,3.18307 4.2189,11.2642 -1.49291,23.8158 -12.7583,28.0347l-0.0661418 -0.0637796 -1.3063 0.490158 5.57363 14.889c0.82441,-0.370866 1.67599,-0.694489 2.56181,-0.967324 11.4945,-3.5374 23.6858,2.91142 27.2256,14.4059l-0.0555119 0.0283465c4.72087,15.3354 8.75552,30.9319 12.0638,46.7516 3.19016,15.2622 5.70945,30.6898 7.52127,46.2473 0.147638,0.844489 0.249213,1.71024 0.297638,2.5878 0.66378,12.0106 -8.53347,22.2827 -20.5441,22.9465l-0.00944883 -0.0519685 -1.34291 0.0744095 0.875198 15.841c0.859843,-0.0992127 1.73504,-0.151181 2.62087,-0.147638 12.0284,0.0484252 21.7417,9.83741 21.6933,21.8658l-0.0838583 0c-0.0673229,16.3488 -0.872835,32.4355 -2.38465,48.2244 -1.50473,15.7347 -3.67441,31.1162 -6.47363,46.1115 -0.113386,0.951969 -0.285827,1.90984 -0.526772,2.86418 -2.95276,11.6599 -14.7992,18.7193 -26.4603,15.7665l0.00826772 -0.0307087 -1.36299 -0.344882 -3.88701 15.352 0.261024 0.0637796c0.793701,0.158268 1.58977,0.359055 2.3811,0.609449 11.4662,3.63662 17.8134,15.8788 14.1791,27.3437l-0.0129921 -0.00354331c-4.7315,14.9197 -10.3335,30.0107 -16.7599,45.2115 -6.21142,14.6941 -12.9366,28.8083 -20.1331,42.3083 -0.369685,0.811418 -0.793701,1.61102 -1.27323,2.39173 -6.29882,10.2461 -19.7126,13.4492 -29.9575,7.14331l-1.17047 -0.722835 -8.2689 13.4528 0.598819 0.369685c0.549213,0.316536 1.09016,0.661418 1.62165,1.0311 9.84804,6.90355 12.2362,20.4862 5.33386,30.3343l-0.0744095 -0.0507874c-9.4252,13.4445 -19.2425,26.1839 -29.4107,38.1792 -9.98859,11.7803 -20.5524,23.1685 -31.6583,34.1292 -0.643701,0.73819 -1.34528,1.43976 -2.10354,2.10118 -9.06969,7.9004 -22.8284,6.95197 -30.7276,-2.11654l0.00236221 -0.011811 -0.82441 -0.947245 -11.9102 10.3713 0.398032 0.457087c0.434646,0.470079 0.855119,0.964961 1.25551,1.48347 7.35355,9.51615 5.59961,23.1957 -3.91772,30.5481l-0.0448819 -0.0484252c-16.1681,12.4925 -33.1146,24.0792 -50.7567,34.6701 -17.224,10.3417 -34.9406,19.6595 -53.0764,27.874 -0.762993,0.401575 -1.55669,0.760631 -2.38347,1.0748 -11.2441,4.27205 -23.824,-1.38071 -28.0961,-12.6248l0.0283465 -0.0791339 -0.479528 -1.26142 -14.8358 5.63741c0.369685,0.814961 0.696851,1.66181 0.972048,2.53937 3.5941,11.4768 -2.79685,23.6988 -14.2736,27.2929l-0.046063 -0.0259843c-19.9725,6.25512 -40.6453,11.3728 -61.9394,15.2622 -20.328,3.71575 -40.9926,6.25512 -61.9193,7.54371 -0.925985,0.119291 -1.87323,0.183071 -2.83583,0.183071 -12.0272,0 -21.7795,-9.75119 -21.7795,-21.7795l0 -1.26496 -15.7713 0 -0.00354331 1.26496c0,0.421654 -0.00944883,0.84567 -0.0354331,1.27087 -0.699213,12.0059 -11.0043,21.1725 -23.0126,20.4709l0.00590552 -0.0507874c-16.5201,-0.967324 -32.5299,-2.64213 -48,-4.98662 -15.2587,-2.31496 -30.5315,-5.35748 -45.7725,-9.09331 -0.925985,-0.16063 -1.85315,-0.386221 -2.77441,-0.67441 -11.4791,-3.58819 -17.8748,-15.8079 -14.2866,-27.287l0.0389764 0.0106299 0.418111 -1.33701 -15.1264 -4.7315 -0.0330709 0.108662c-0.209055,0.830316 -0.464174,1.65709 -0.775985,2.47914 -4.26733,11.2441 -16.8437,16.9051 -28.0902,12.6378l0.0200788 -0.0507874c-14.8453,-5.63268 -29.602,-12.052 -44.2158,-19.2071 -14.2583,-6.98623 -27.9355,-14.4508 -40.9961,-22.3642 -0.83504,-0.432284 -1.64882,-0.921261 -2.44016,-1.47047 -9.88465,-6.85276 -12.3425,-20.4225 -5.48977,-30.3059l0.0555119 0.0377953 0.786615 -1.13268 -13.0488 -9.04725c-0.448819,0.737008 -0.949607,1.45984 -1.49764,2.15669 -7.43268,9.45473 -21.1264,11.0941 -30.5823,3.66142l0.0177165 -0.022441c-12.1536,-9.55749 -24.3142,-20.0929 -36.4335,-31.5673 -11.4059,-10.7953 -22.1681,-21.9047 -32.2465,-33.2847 -0.750001,-0.721654 -1.45748,-1.50236 -2.11536,-2.34803 -7.3878,-9.4878 -5.68347,-23.1756 3.80788,-30.5634l0.022441 0.00236221 0.973229 -0.758268 -9.70631 -12.4689 -0.387402 0.303544c-0.523229,0.435827 -1.07008,0.855119 -1.64173,1.24725 -9.90709,6.82205 -23.4685,4.32166 -30.2906,-5.58308l0.056693 -0.0413386c-9.27284,-13.4646 -17.8016,-27.1311 -25.5496,-40.9559 -7.22481,-12.8965 -14.1083,-26.6055 -20.6185,-41.1071 -0.571654,-1.00276 -1.0748,-2.06457 -1.49055,-3.17953 -4.2189,-11.2654 1.49291,-23.8169 12.7583,-28.0347l0.0661418 0.0637796 1.3063 -0.490158 -5.57363 -14.889c-0.822048,0.369685 -1.67599,0.690945 -2.55945,0.96378 -11.4945,3.54331 -23.6858,-2.9067 -27.2256,-14.3988l0.0531496 -0.0330709c-4.72087,-15.3225 -8.75316,-30.9107 -12.0591,-46.7209 -3.19252,-15.2717 -5.71418,-30.7099 -7.52599,-46.2804 -0.15,-0.844489 -0.249213,-1.70669 -0.298819,-2.58544 -0.662599,-12.0095 8.53465,-22.2815 20.5453,-22.9453l0.00944883 0.0507874 1.34291 -0.0744095 -0.875198 -15.841c-0.859843,0.100394 -1.73622,0.151181 -2.62087,0.148819 -12.0284,-0.0484252 -21.7417,-9.83859 -21.6933,-21.8669l0.0838583 0c0.0673229,-16.3465 0.872835,-32.4319 2.38465,-48.2221 1.50473,-15.7358 3.67441,-31.1173 6.47717,-46.1138 0.108662,-0.954331 0.282284,-1.90866 0.525591,-2.86299 2.9504,-11.661 14.7969,-18.7205 26.4579,-15.7677l-0.00826772 0.0307087 1.36299 0.344882 3.88701 -15.3508 -0.26811 -0.0661418c-0.791339,-0.158268 -1.58504,-0.360236 -2.37402,-0.608268 -11.4638,-3.63662 -17.811,-15.8788 -14.1768,-27.3425l0.0106299 0.00236221c4.7315,-14.9197 10.3335,-30.0083 16.7599,-45.2079 6.21378,-14.6953 12.9366,-28.8083 20.1354,-42.3095 0.370866,-0.81378 0.793701,-1.61221 1.27441,-2.39292 6.29764,-10.2473 19.7114,-13.448 29.954,-7.14095l1.17047 0.719292 8.2689 -13.4551 -0.587008 -0.359055c-0.553937,-0.318898 -1.09724,-0.66378 -1.62992,-1.03701 -9.84922,-6.90355 -12.2374,-20.4851 -5.33386,-30.3366l0.0732284 0.0543308c9.42284,-13.4445 19.2402,-26.1851 29.4083,-38.1803 9.98623,-11.778 20.55,-23.1673 31.6536,-34.1268 0.646063,-0.737008 1.34764,-1.44213 2.11063,-2.10473 9.06969,-7.90158 22.826,-6.95197 30.7276,2.11772l-0.00236221 0.0106299 0.82441 0.946064 11.9079 -10.3713 -0.398032 -0.457087c-0.434646,-0.472441 -0.852757,-0.964961 -1.25315,-1.47992 -7.35591,-9.51733 -5.60197,-23.1957 3.91418,-30.5516l0.046063 0.0484252c16.1681,-12.4925 33.1134,-24.0768 50.7544,-34.6701 17.2264,-10.3406 34.9429,-19.6583 53.0788,-27.874 0.762993,-0.400394 1.55669,-0.760631 2.38347,-1.0748 11.2441,-4.27205 23.824,1.38071 28.0961,12.626l-0.0283465 0.0767717 0.479528 1.2626 14.8358 -5.63741c-0.369685,-0.81378 -0.696851,-1.65945 -0.969686,-2.53701 -3.59646,-11.4768 2.79213,-23.6988 14.2689,-27.2941l0.0484252 0.0248032c19.9654,-6.25749 40.6323,-11.3717 61.9193,-15.261 20.3351,-3.71575 41.0067,-6.25512 61.9394,-7.54489 0.928347,-0.121654 1.87323,-0.183071 2.83583,-0.183071 12.0272,0 21.7795,9.75119 21.7795,21.7795l0 1.26614 15.7713 0 0.00236221 -1.26614c0,-0.421654 0.0106299,-0.844489 0.0366142,-1.27087zm-7.9252 218.713c78.0284,0 148.676,31.6299 199.816,82.767 51.1335,51.1335 82.7623,121.784 82.7623,199.812 0,78.0308 -31.6288,148.676 -82.7623,199.812 -51.1394,51.137 -121.787,82.7646 -199.816,82.7646 -78.0272,0 -148.675,-31.6276 -199.814,-82.7646 -51.1335,-51.1359 -82.7623,-121.781 -82.7623,-199.812 0,-78.0284 31.6288,-148.678 82.7623,-199.812 51.1394,-51.137 121.787,-82.767 199.814,-82.767z"/>
   <path id="_427266640" class="fil1" d="M776.832 920.677c93.691,0 178.52,37.9807 239.925,99.3816 61.3949,61.3961 99.3733,146.229 99.3733,239.919 0,93.6934 -37.9784,178.52 -99.3733,239.921 -61.4044,61.4008 -146.234,99.3768 -239.925,99.3768 -93.6898,0 -178.519,-37.976 -239.923,-99.3768 -61.3949,-61.4008 -99.3733,-146.228 -99.3733,-239.921 0,-93.6898 37.9784,-178.523 99.3733,-239.919 61.4044,-61.4008 146.234,-99.3816 239.923,-99.3816zm0 56.7213c78.0284,0 148.676,31.6299 199.816,82.767 51.1335,51.1335 82.7623,121.784 82.7623,199.812 0,78.0308 -31.6288,148.676 -82.7623,199.812 -51.1394,51.137 -121.787,82.7646 -199.816,82.7646 -78.0272,0 -148.675,-31.6276 -199.814,-82.7646 -51.1335,-51.1359 -82.7623,-121.781 -82.7623,-199.812 0,-78.0284 31.6288,-148.678 82.7623,-199.812 51.1394,-51.137 121.787,-82.767 199.814,-82.767z"/>
   <path id="_427266280" class="fil2" d="M776.832 1058.43c55.6548,0 106.043,22.5603 142.517,59.0327 36.4725,36.4737 59.0315,86.8619 59.0315,142.515 0,55.6548 -22.5591,106.043 -59.0315,142.517 -36.4737,36.4725 -86.8619,59.0315 -142.517,59.0315 -55.6536,0 -106.042,-22.5591 -142.515,-59.0315 -36.4725,-36.4737 -59.0315,-86.8619 -59.0315,-142.517 0,-55.6536 22.5591,-106.042 59.0315,-142.515 36.4737,-36.4725 86.8619,-59.0327 142.515,-59.0327z"/>
   <path id="_427266352" class="fil3" d="M980.886 1055.92c-52.2189,-52.2213 -124.364,-84.5209 -204.054,-84.5209 -79.689,0 -151.834,32.2996 -204.053,84.5209 -52.2213,52.2189 -84.5209,124.364 -84.5209,204.053 0,79.6902 32.2996,151.833 84.5209,204.053 52.2189,52.2213 124.364,84.5209 204.053,84.5209 79.6902,0 151.836,-32.2996 204.054,-84.5209 52.2213,-52.2201 84.5198,-124.363 84.5198,-204.053 0,-79.689 -32.2985,-151.834 -84.5198,-204.053zm-256.18 303.716c2.22284,-2.53229 4.84607,-4.72678 7.86733,-6.46772 3.15473,-1.81654 6.59528,-3.03662 10.1551,-3.76654 22.4043,-4.59567 46.9642,9.08859 64.3489,21.9225 25.337,18.7051 47.2311,44.7307 62.9115,71.9445 1.84016,3.19488 3.60945,6.43111 5.29843,9.70513l11.0811 21.489 -22.5248 8.78387c-10.2614,4.00158 -20.7945,7.29449 -31.5107,9.83859 -18.1807,4.31575 -36.8162,6.45709 -55.5012,6.45709 -2.57244,0 -5.14252,-0.0389764 -7.71142,-0.120473l-10.8059 -0.343701 -6.26103 -8.81339c-1.26496,-1.78347 -2.51103,-3.58229 -3.73111,-5.39764 -3.20551,-4.77402 -6.2752,-9.64961 -9.14646,-14.6339 -9.91772,-17.211 -18.2445,-36.3744 -22.252,-55.9004 -5.74489,-27.9662 -3.04961,-33.7595 7.78229,-54.6969zm-37.767 -150.396c1.58977,3.27402 2.61378,6.78308 3.09095,10.3902 3.00118,22.6772 -12.3933,46.2201 -26.4248,62.6611 -20.4343,23.9386 -47.9492,43.9146 -76.18,57.6213 -3.29764,1.60276 -6.62481,3.1441 -9.98859,4.60158l-22.2803 9.66497 -7.18938 -23.1957c-2.4189,-7.80945 -4.44095,-15.7394 -6.04607,-23.7555 -3.11575,-15.5551 -4.65709,-31.3937 -4.65709,-47.2548 0,-8.18741 0.411024,-16.3713 1.24016,-24.5173l1.09961 -10.8272 9.32009 -5.61969c1.85788,-1.11969 3.73111,-2.21929 5.6126,-3.29882 4.97953,-2.85591 10.0453,-5.57953 15.2079,-8.08583 17.8547,-8.6693 37.5744,-15.6827 57.3178,-18.3012 12.385,-1.64291 25.8662,-1.70669 37.8555,2.2004 9.33308,3.04488 17.6303,8.66457 22.0217,17.7165zm59.6481 -60.6178c-25.337,-18.704 -47.2347,-44.7307 -62.9115,-71.9434 -1.84016,-3.19607 -3.60945,-6.43229 -5.29843,-9.70867l-11.0811 -21.4866 22.5248 -8.78387c10.2614,-4.00158 20.7945,-7.29449 31.513,-9.83859 18.1784,-4.31575 36.8138,-6.45945 55.4977,-6.45945 2.57362,0 5.14252,0.0413386 7.7126,0.122835l10.8036 0.344882 6.25985 8.80985c1.2685,1.78583 2.51457,3.58583 3.73701,5.40473 3.20551,4.7752 6.27284,9.64489 9.1441,14.6291 9.91772,17.2134 18.2445,36.378 22.2543,55.9016 2.50866,12.2268 3.51614,25.6453 0.468898,37.8626 -2.38347,9.5445 -7.37481,18.2622 -16.1185,23.2984 -3.15709,1.8189 -6.59764,3.03898 -10.1599,3.7689 -22.4032,4.59449 -46.9618,-9.08741 -64.3465,-21.9225zm120.138 162.082c-1.59095,-3.27166 -2.61378,-6.77835 -3.09095,-10.3819 -3.00591,-22.6807 12.391,-46.226 26.4248,-62.667 20.4343,-23.9386 47.9457,-43.917 76.18,-57.6237 3.29764,-1.60039 6.62835,-3.1441 9.9945,-4.60394l22.2744 -9.65788 7.18938 23.191c2.4189,7.80945 4.44095,15.7417 6.04607,23.7579 3.11575,15.5551 4.65709,31.3937 4.65709,47.2548 0,8.18741 -0.411024,16.3725 -1.24016,24.5162l-1.09961 10.8331 -9.32599 5.61733c-1.85551,1.11732 -3.72284,2.21575 -5.60197,3.29173 -4.98189,2.85945 -10.0476,5.58189 -15.215,8.09056 -17.8547,8.6693 -37.578,15.6827 -57.3178,18.3012 -12.3862,1.64055 -25.8685,1.70788 -37.8532,-2.2004 -9.33544,-3.0437 -17.6303,-8.66694 -22.0217,-17.7189zm-89.8938 -102.508c14.2973,0 27.2421,5.79567 36.6107,15.1677 9.37087,9.36851 15.1665,22.3122 15.1665,36.6095 0,14.2973 -5.79567,27.241 -15.1665,36.6107 -9.36851,9.37087 -22.3134,15.1665 -36.6107,15.1665 -14.2961,0 -27.241,-5.79567 -36.6095,-15.1665 -9.37087,-9.36969 -15.1665,-22.3134 -15.1665,-36.6107 0,-14.2973 5.79567,-27.241 15.1665,-36.6095 9.36851,-9.37205 22.3134,-15.1677 36.6095,-15.1677z"/>
   <path id="_427265776" class="fil4" d="M828.609 1259.98c0,-14.2973 -5.79567,-27.241 -15.1665,-36.6095 -9.36851,-9.37205 -22.3134,-15.1677 -36.6107,-15.1677 -14.2961,0 -27.241,5.79567 -36.6095,15.1677 -9.37087,9.36851 -15.1665,22.3122 -15.1665,36.6095 0,14.2973 5.79567,27.241 15.1665,36.6107 9.36851,9.37087 22.3134,15.1665 36.6095,15.1665 14.2973,0 27.2421,-5.79567 36.6107,-15.1665 9.37087,-9.36969 15.1665,-22.3134 15.1665,-36.6107z"/>
  </g>
  <path class="fil5" d="M1610.49 763.55c0,-11.615 -9.41694,-21.0319 -21.0319,-21.0319 -11.615,0 -21.0319,9.41694 -21.0319,21.0319l0 295.91c0,40.4611 -16.5709,77.2642 -43.265,103.957 -26.6941,26.6953 -63.4961,43.2662 -103.958,43.2662l-409.946 0c-11.615,0 -21.0319,9.41694 -21.0319,21.0319 0,11.615 9.41694,21.0319 21.0319,21.0319l409.946 0c52.0737,0 99.4017,-21.2906 133.699,-55.5886 34.2981,-34.2969 55.5886,-81.6249 55.5886,-133.699l0 -295.91z"/>
  <path class="fil6" d="M1529.49 626.674l123.904 0c7.65591,0 13.8638,6.20788 13.8638,13.8638l0 104.348c0,7.65591 -6.20788,13.8638 -13.8638,13.8638l-123.904 0c-7.65591,0 -13.8638,-6.20788 -13.8638,-13.8638l0 -104.348c0,-7.65591 6.20788,-13.8638 13.8638,-13.8638z"/>
  <path class="fil7" d="M1591.44 258.983c19.0122,6.17717 33.5268,40.7516 52.5378,46.9288 19.0122,6.17717 51.0756,-13.2626 70.0878,-7.08544 11.7496,16.1717 3.17008,52.6748 14.9197,68.8465 11.7496,16.1728 49.1174,19.2933 60.867,35.4662 0,19.9902 -28.3961,44.4768 -28.3961,64.467 0,19.9902 28.3961,44.478 28.3961,64.4682 -11.7496,16.1717 -49.1174,19.2933 -60.867,35.465 -11.7496,16.1717 -3.17008,52.6748 -14.9197,68.8477 -19.0122,6.17717 -51.0756,-13.2638 -70.0878,-7.08662 -19.011,6.17717 -33.5256,40.7516 -52.5378,46.9288 -19.0122,-6.17717 -33.5268,-40.7516 -52.5378,-46.9288 -19.0122,-6.17717 -51.0756,13.2638 -70.0878,7.08662 -11.7496,-16.1728 -3.17008,-52.676 -14.9197,-68.8477 -11.7496,-16.1717 -49.1174,-19.2933 -60.867,-35.465 0,-19.9902 28.3961,-44.478 28.3961,-64.4682 0,-19.9902 -28.3961,-44.4768 -28.3961,-64.467 11.7496,-16.1728 49.1174,-19.2933 60.867,-35.4662 11.7496,-16.1717 3.17008,-52.6748 14.9197,-68.8465 19.0122,-6.17717 51.0756,13.2626 70.0878,7.08544 19.011,-6.17717 33.5256,-40.7516 52.5378,-46.9288z"/>
  <path class="fil7" d="M1591.44 273.509c53.5949,0 102.121,21.7264 137.244,56.8524 35.126,35.1236 56.8524,83.6493 56.8524,137.244 0,53.5937 -21.7264,102.118 -56.8524,137.244 -35.1236,35.126 -83.6493,56.8524 -137.244,56.8524 -53.5937,0 -102.118,-21.7264 -137.244,-56.8524 -35.126,-35.126 -56.8524,-83.6505 -56.8524,-137.244 0,-53.5949 21.7264,-102.121 56.8524,-137.244 35.126,-35.126 83.6505,-56.8524 137.244,-56.8524z"/>
  <path class="fil8" d="M1591.44 313.473c42.5646,0 81.0993,17.2524 108.99,45.1429 14.1697,14.1697 25.611,31.154 33.4477,50.0776 7.53662,18.1949 11.6953,38.0965 11.6953,58.9123 0,20.8169 -4.15866,40.7185 -11.6953,58.9123 -7.83662,18.9236 -19.278,35.9079 -33.4477,50.0776 -14.1697,14.1697 -31.1528,25.611 -50.0776,33.4477 -18.1937,7.53662 -38.0953,11.6953 -58.9123,11.6953 -20.8169,0 -40.7185,-4.15866 -58.9111,-11.6953 -18.9248,-7.83662 -35.9091,-19.278 -50.0788,-33.4477 -14.1697,-14.1697 -25.611,-31.154 -33.4477,-50.0776 -7.53662,-18.1937 -11.6953,-38.0953 -11.6953,-58.9123 0,-42.5646 17.2524,-81.0993 45.1429,-108.99 14.1697,-14.1685 31.154,-25.611 50.0788,-33.4477 18.1925,-7.53662 38.0941,-11.6953 58.9111,-11.6953z"/>
  <path class="fil9" d="M1683.09 375.956c-11.9669,-11.9669 -26.2382,-21.6 -42.065,-28.1551 -15.2492,-6.31536 -31.9961,-9.80198 -49.5863,-9.80198 -8.71772,0 -17.2099,0.848032 -25.3937,2.4626 -8.43544,1.66536 -16.5402,4.13386 -24.2244,7.31693 -7.84843,3.24803 -15.3236,7.26851 -22.3288,11.9599 -7.03819,4.71496 -13.6394,10.1528 -19.7043,16.2177 -11.9669,11.9669 -21.5988,26.2347 -28.154,42.0638 -6.31536,15.2492 -9.80198,31.9973 -9.80198,49.5863 0,8.71772 0.848032,17.2087 2.4626,25.3925 1.66536,8.4378 4.13386,16.5414 7.31575,24.2268 3.24922,7.84725 7.26969,15.3225 11.9622,22.3299 4.71378,7.03701 10.1528,13.6382 16.2154,19.702 6.06378,6.0626 12.6662,11.5016 19.7032,16.2154 7.0063,4.6937 14.4827,8.713 22.3299,11.9622 7.68426,3.18307 15.789,5.6504 24.2244,7.31575 8.18386,1.61457 16.6748,2.4626 25.3937,2.4626 8.71772,0 17.2099,-0.848032 25.3937,-2.4626 8.43544,-1.66536 16.5414,-4.13268 24.2256,-7.31575 7.84725,-3.24922 15.3248,-7.27087 22.3311,-11.9622 7.03583,-4.7126 13.637,-10.1516 19.7008,-16.2154 6.0626,-6.06378 11.5016,-12.665 16.2154,-19.702 4.69252,-7.00749 8.713,-14.4827 11.9622,-22.3299 3.18189,-7.68544 5.6504,-15.789 7.31575,-24.2268 1.61457,-8.18386 2.4626,-16.6748 2.4626,-25.3925 0,-8.7189 -0.848032,-17.2099 -2.4626,-25.3937 -1.66536,-8.43544 -4.13268,-16.5414 -7.31575,-24.2256 -3.24922,-7.84725 -7.26969,-15.3236 -11.961,-22.3288 -4.71496,-7.03701 -10.1539,-13.6382 -16.2165,-19.702zm-38.276 -37.3748c17.1154,7.08898 32.4969,17.4555 45.3461,30.3047 6.44764,6.44882 12.2917,13.5591 17.4284,21.2256 5.05512,7.54843 9.38977,15.6106 12.8988,24.0862 3.45355,8.33741 6.1193,17.0717 7.90158,26.1012 1.74331,8.83465 2.65866,17.9669 2.65866,27.3071 0,9.33898 -0.915355,18.4713 -2.65866,27.3059 -1.78228,9.02953 -4.44803,17.7626 -7.90158,26.1024 -3.50906,8.4756 -7.84371,16.5378 -12.9,24.0874 -5.13544,7.66654 -10.9795,14.7768 -17.4272,21.2256 -6.44764,6.44764 -13.5591,12.2929 -21.2244,17.4272 -7.54843,5.05394 -15.613,9.38977 -24.0886,12.9 -8.33741,3.45355 -17.0717,6.1193 -26.1012,7.90158 -8.83465,1.74331 -17.9681,2.65866 -27.3071,2.65866 -9.34016,0 -18.4725,-0.915355 -27.3071,-2.65866 -9.02835,-1.78228 -17.7614,-4.44803 -26.1,-7.90158 -8.4756,-3.50906 -16.539,-7.84371 -24.0874,-12.9 -7.66772,-5.13544 -14.778,-10.9795 -21.2268,-17.4272 -6.44764,-6.44882 -12.2917,-13.5591 -17.4272,-21.2256 -5.0563,-7.54961 -9.39095,-15.6118 -12.9,-24.0874 -3.45355,-8.33977 -6.1193,-17.0728 -7.90158,-26.1024 -1.74331,-8.83465 -2.65866,-17.9669 -2.65866,-27.3059 0,-18.8776 3.76418,-36.9095 10.5839,-53.3752 7.0878,-17.1165 17.4555,-32.4969 30.3036,-45.3449 6.44882,-6.44882 13.5614,-12.2929 21.228,-17.4295 7.54843,-5.05512 15.6106,-9.38977 24.0862,-12.8976 8.33859,-3.45355 17.0717,-6.12048 26.1,-7.90276 8.83465,-1.74331 17.9681,-2.65866 27.3071,-2.65866 18.8799,0 36.9095,3.76418 53.3752,10.5839z"/>
  <path class="fil10" d="M1489.96 453.589c-0.383859,2.81457 1.61102,5.42717 4.42441,5.80748 2.82047,0.382677 5.43071,-1.61221 5.81575,-4.42914 2.78032,-20.3681 12.2776,-39.137 27.0307,-53.4496 14.7626,-14.3197 33.8351,-23.2063 54.28,-25.3855 24.3036,-2.59134 48.437,4.51772 67.4504,19.8709 19.0146,15.3496 31.0512,37.4422 33.6414,61.7457 0.303544,2.85709 2.86299,4.92402 5.72008,4.61929 2.85945,-0.304725 4.9252,-2.86418 4.62048,-5.72126 -2.88544,-27.0709 -16.2721,-51.6355 -37.4504,-68.7343 -21.1784,-17.0988 -48.013,-25.0075 -75.0839,-22.1221 -22.754,2.42481 -43.9122,12.3933 -60.3272,28.3193 -16.4256,15.9331 -27.0248,36.7973 -30.1217,59.4792z"/>
  <polygon class="fil11" points="1600.93,477.092 1595.12,471.29 1600.91,477.105 1600.93,477.102 "/>
  <polygon class="fil11" points="1585.33,473.726 1585.33,473.717 1587.76,471.29 "/>
  <path class="fil11" d="M1591.44 442.998c6.79134,0 12.9437,2.75433 17.3988,7.20945 4.45512,4.45512 7.20945,10.6075 7.20945,17.3988 0,6.79134 -2.75433,12.9449 -7.20945,17.4l0.0011811 0c-0.724016,0.726379 -1.4941,1.38189 -2.29725,1.9689 -4.17638,3.2811 -9.42048,5.23937 -15.1028,5.23937 -4.46929,0 -8.66812,-1.21181 -12.2906,-3.32717 -0.22441,0.137008 -0.451181,0.26811 -0.683859,0.394488l-59.6315 32.1189c-6.72875,3.6189 -15.1193,1.09724 -18.7382,-5.6315 -3.6189,-6.72993 -1.09724,-15.1193 5.63268,-18.7382l59.6304 -32.1189c0.563386,-0.303544 1.13858,-0.562205 1.72087,-0.780709 0.767717,-5.35867 3.28819,-10.1728 6.96142,-13.8484l4.14922 4.12796 0.0295276 -0.0177165 -4.18583 -4.18229 0.178347 -0.173622 0.0921261 -0.0897638 0.11811 -0.113386c4.42087,-4.23662 10.4173,-6.83623 17.0173,-6.83623z"/>
 </g>
 <rect class="fil12" width="2048" height="2048"/>
</svg>
