<svg id="Layer_1" enable-background="new 0 0 512.002 512.002" height="512" viewBox="0 0 512.002 512.002" width="512" xmlns="http://www.w3.org/2000/svg"><path d="m126.001 186.001h89.999c5.523 0 10-4.477 10-10s-4.477-10-10-10h-89.999c-5.523 0-10 4.477-10 10s4.478 10 10 10z"/><path d="m126.001 236.001h89.999c5.523 0 10-4.477 10-10s-4.477-10-10-10h-89.999c-5.523 0-10 4.477-10 10s4.478 10 10 10z"/><path d="m126.001 286h89.999c5.523 0 10-4.477 10-10s-4.477-10-10-10h-89.999c-5.523 0-10 4.477-10 10s4.478 10 10 10z"/><path d="m326.002 308.501h17.5v17.5c0 11.028 8.972 20 20 20h25c11.028 0 20-8.972 20-20v-17.5h17.5c11.028 0 20-8.972 20-20v-25c0-11.028-8.972-20-20-20h-17.5v-17.5c0-11.028-8.972-20-20-20h-25c-11.028 0-20 8.972-20 20v17.5h-17.5c-11.028 0-20 8.972-20 20v25c.001 11.029 8.973 20 20 20zm27.5-45c5.523 0 10-4.477 10-10l-.002-27.5h25.002v27.5c0 5.523 4.477 10 10 10h27.5v25h-27.5c-5.523 0-10 4.477-10 10v27.5h-25v-27.5c0-5.523-4.477-10-10-10h-27.5v-25z"/><path d="m466.002 166.001h-60.002v-100.001c0-14.336-11.664-26-26-26h-36.002c-3.926-9.387-13.203-16-23.997-16h-71.501c-4.28-13.883-17.23-24-32.5-24s-28.22 10.117-32.5 24h-71.5c-10.794 0-20.071 6.613-23.997 16h-36.003c-14.337 0-26 11.664-26 26v420.002c0 14.336 11.664 26 26 26h328c14.336 0 26-11.664 26-26v-100h60.003c11.028 0 20-8.972 20-20v-180.002c-.001-11.027-8.972-19.999-20.001-19.999zm-80.002-100.001v100h-20v-76c0-5.523-4.477-10-10-10h-14.107c2.595-4.044 4.108-8.847 4.108-14v-6h33.999c3.252 0 6 2.748 6 6zm-280-16c0-3.252 2.748-6 6-6h80c5.523 0 10-4.477 10-10 0-7.72 6.28-14 14-14s14 6.28 14 14c0 5.523 4.477 10 10 10h80.001c3.252 0 6 2.748 6 6v16c0 3.252-2.748 6-6 6h-208.001c-3.252 0-6-2.748-6-6zm176.188 42v14.762c0 2.839-2.398 5.238-5.238 5.238h-121.901c-2.839 0-5.238-2.398-5.238-5.238v-14.762zm103.812 294.001v100c0 3.252-2.748 6-6 6h-328c-3.252 0-6-2.748-6-6v-420.001c0-3.252 2.748-6 6-6h34v6c0 5.152 1.513 9.955 4.108 14h-14.108c-5.523 0-10 4.477-10 10v20c0 5.523 4.477 10 10 10s10-4.477 10-10v-10h43.811v6.763c0 13.916 11.322 25.238 25.238 25.238h121.901c13.916 0 25.238-11.322 25.238-25.238v-6.763h43.812v66h-59.996c-11.028 0-20 8.972-20 20v61.705l-14.156 14.155c-7.797 7.798-7.797 20.486.001 28.284l14.155 14.154v61.703c0 11.028 8.972 20 20 20h59.996v66h-260v-252.001c0-5.523-4.477-10-10-10s-10 4.477-10 10v262.001c0 5.523 4.477 10 10 10h280c5.523 0 10-4.477 10-10v-76zm80.002-20h-179.999v-65.845c0-2.652-1.054-5.196-2.929-7.071l-17.084-17.083 17.084-17.083c1.875-1.875 2.929-4.419 2.929-7.071v-65.846h179.999z"/><path d="m126.001 336h89.999c5.523 0 10-4.477 10-10s-4.477-10-10-10h-89.999c-5.523 0-10 4.477-10 10s4.478 10 10 10z"/><path d="m126.001 386h89.999c5.523 0 10-4.477 10-10s-4.477-10-10-10h-89.999c-5.523 0-10 4.477-10 10s4.478 10 10 10z"/><path d="m76 165.004c5.523 0 10-4.477 10-10v-.007c0-5.523-4.477-9.996-10-9.996s-10 4.48-10 10.003 4.477 10 10 10z"/></svg>