<svg id="Layer_1" enable-background="new 0 0 512.002 512.002" height="512" viewBox="0 0 512.002 512.002" width="512" xmlns="http://www.w3.org/2000/svg"><path d="m466.001 452h-100v-21.006c22.795-4.646 40-24.848 40-48.994v-230c0-11.028-8.972-20-20-20h-260c-11.028 0-20 8.972-20 20v202.352c-12.692-2.885-26.09-2.793-39.045.601-8.054 2.008-14.376 8.223-16.512 16.238-7.545 28.256.591 58.632 21.232 79.273.521.521 1.053 1.03 1.587 1.536h-27.262c-11.028 0-20 8.972-20 20v20.001c0 11.028 8.972 20 20 20h420c11.028 0 20-8.972 20-20v-20.001c0-11.027-8.972-20-20-20zm-254.16 0c4.468-6.134 8.089-12.866 10.713-20h123.447v20zm-35.146-50.207c-5.336-1.43-10.817 1.737-12.247 7.071l-11.558 43.136h-2.768c-3.283-5.251-5.726-10.887-7.311-16.73-.066-.292-.144-.581-.236-.867-2.601-10.17-2.607-20.93.186-31.351 5.714-21.325 22.539-38.141 43.915-43.889 1.175-.318 2.188.19 2.742.77l.117.12c15.51 15.654 21.611 38.567 15.922 59.799-3.372 12.587-10.764 23.902-20.938 32.148h-10.923l10.171-37.96c1.429-5.334-1.737-10.818-7.072-12.247zm149.304-111.424c0 .9-.733 1.633-1.634 1.633-8.524 0-17.051-.011-25.578-.023-8.536-.011-17.073-.022-25.608-.022-.876 0-1.588-.712-1.588-1.594l-.024-38.36h54.407zm-54.444-58.367-.01-15.563c0-.714.418-1.132.667-1.317.24-.179.473-.368.696-.567l24.807-22.149c.314-.281.688-.402 1.047-.402.407 0 .799.154 1.072.404.03.028.061.056.092.083l25.497 22.767c.437.391.528.861.528 1.188l.01 15.557h-54.406zm-145.554-80.001h162.771v22.467c-1.546.814-3.026 1.809-4.386 3.026l-24.516 21.889c-5.223 4.082-8.326 10.418-8.326 17.063l.046 73.923c0 11.904 9.685 21.588 21.588 21.588 8.526 0 17.055.011 25.582.023 8.536.011 17.071.022 25.604.022 11.929 0 21.634-9.705 21.634-21.64l-.048-73.93c-.004-6.132-2.625-11.993-7.2-16.087l-25.463-22.736c-1.395-1.269-2.918-2.306-4.516-3.147v-22.463h77.229v230c0 16.542-13.458 30-30 30h-128.856c2.384-24.086-6.031-48.46-23.35-65.971-5.764-5.968-14.305-8.333-22.316-6.179-17.653 4.746-32.96 15.213-43.802 29.28-3.692-2.815-7.601-5.289-11.674-7.42v-209.708zm-40.182 284.322c-15.61-15.61-21.762-38.59-16.051-59.976.313-1.176 1.258-1.799 2.037-1.99.055-.013.108-.027.163-.042 19.42-5.109 40.158-.43 55.448 12.206-1.589 3.657-2.928 7.446-3.975 11.355-1.189 4.438-1.995 8.921-2.429 13.411l-7.581-7.581c-3.906-3.905-10.236-3.905-14.143 0-3.905 3.905-3.905 10.237 0 14.143l24.801 24.801c.955 3.174 2.11 6.295 3.453 9.351h-15.097c-10.073-2.912-19.26-8.311-26.626-15.678zm380.182 55.679h-420l-.002-20.002h420.002z"/><path d="m169.278 48.597c-4.78 4.34-12.003 10.9-12.003 22.736s7.223 18.396 12.003 22.736c4.353 3.954 5.448 5.299 5.448 7.931 0 5.523 4.478 10 10 10s10-4.477 10-10c0-11.836-7.223-18.396-12.003-22.736-4.353-3.954-5.448-5.299-5.448-7.931s1.096-3.977 5.448-7.93c4.78-4.341 12.003-10.9 12.003-22.736s-7.223-18.396-12.003-22.736c-4.353-3.953-5.448-5.299-5.448-7.93 0-5.523-4.478-10-10-10s-10 4.477-10 10c0 11.836 7.223 18.396 12.003 22.736 4.353 3.954 5.448 5.299 5.448 7.931s-1.095 3.976-5.448 7.929z"/><path d="m249.278 48.597c-4.78 4.34-12.003 10.9-12.003 22.736s7.223 18.396 12.003 22.736c4.353 3.954 5.448 5.299 5.448 7.931 0 5.523 4.478 10 10 10s10-4.477 10-10c0-11.836-7.223-18.396-12.003-22.736-4.353-3.954-5.448-5.299-5.448-7.931s1.096-3.977 5.448-7.93c4.78-4.341 12.003-10.9 12.003-22.736s-7.223-18.396-12.003-22.736c-4.353-3.953-5.448-5.299-5.448-7.93 0-5.523-4.478-10-10-10s-10 4.477-10 10c0 11.836 7.223 18.396 12.003 22.736 4.353 3.954 5.448 5.299 5.448 7.931s-1.095 3.976-5.448 7.929z"/><path d="m329.279 48.597c-4.78 4.34-12.003 10.9-12.003 22.736s7.223 18.396 12.003 22.736c4.353 3.954 5.448 5.299 5.448 7.931 0 5.523 4.478 10 10 10s10-4.477 10-10c0-11.836-7.223-18.396-12.003-22.736-4.353-3.954-5.448-5.299-5.448-7.931s1.096-3.977 5.448-7.93c4.78-4.341 12.003-10.9 12.003-22.736s-7.223-18.396-12.003-22.736c-4.353-3.953-5.448-5.299-5.448-7.93 0-5.523-4.478-10-10-10s-10 4.477-10 10c0 11.836 7.223 18.396 12.003 22.736 4.353 3.954 5.448 5.299 5.448 7.931s-1.095 3.976-5.448 7.929z"/><path d="m156.002 291.999c5.522 0 10-4.48 10-10.003s-4.478-10-10-10-10 4.477-10 10v.007c0 5.522 4.477 9.996 10 9.996z"/><path d="m156.002 246.998c5.522 0 10-4.477 10-10v-54.996c0-5.523-4.478-10-10-10s-10 4.477-10 10v54.996c0 5.523 4.477 10 10 10z"/></svg>