<svg id="Layer_1" enable-background="new 0 0 511.995 511.995" height="512" viewBox="0 0 511.995 511.995" width="512" xmlns="http://www.w3.org/2000/svg"><path d="m502.484 330.106c-38.264-38.263-82.631-40.427-125.866-34.429 6.141-44.411 3.336-88.1-34.428-125.865-38.31-38.309-82.679-40.427-125.887-34.425 1.083-7.868 1.89-15.717 2.26-23.495.263-5.517-3.996-10.201-9.513-10.464-5.534-.272-10.202 3.997-10.464 9.514-1.036 21.776-5.871 44.99-10.547 67.44-10.031 48.171-20.404 97.983 13.596 131.984 17.699 17.698 39.727 23.341 63.298 23.34 12.832 0 26.123-1.676 39.418-3.987-1.81 8.69-3.625 17.423-5.253 26.16-45.602 7.1-82.887 4.408-115.135-27.84-43.457-43.457-32.202-97.502-20.287-154.721 10.031-48.171 20.404-97.983-13.596-131.984-2.36-2.36-3.661-5.499-3.661-8.837s1.301-6.477 3.661-8.837 5.498-3.66 8.836-3.66c3.339 0 6.477 1.3 8.837 3.661 2.937 2.936 5.719 6.029 8.27 9.192 3.466 4.299 9.764 4.973 14.062 1.506 4.3-3.467 4.974-9.763 1.507-14.062-2.996-3.714-6.258-7.341-9.695-10.778-6.139-6.139-14.3-9.519-22.981-9.519-8.68 0-16.841 3.38-22.979 9.518s-9.519 14.299-9.519 22.979c0 5.233 1.237 10.273 3.557 14.798l-82.672 82.672c-4.526-2.32-9.565-3.557-14.797-3.557-8.681 0-16.842 3.38-22.979 9.518s-9.519 14.299-9.519 22.979c0 8.681 3.381 16.841 9.519 22.979 28.488 28.489 60.343 36.964 92.6 36.964 11.082 0 22.212-1.011 33.267-2.546-6.144 44.414-3.342 88.107 34.427 125.876 28.48 28.48 60.347 36.961 92.616 36.961 11.076 0 22.2-1.01 33.251-2.543-6.144 44.415-3.342 88.108 34.427 125.876 6.138 6.138 14.299 9.519 22.979 9.519s16.841-3.38 22.979-9.519c10.203-10.204 12.183-25.558 5.953-37.769l82.689-82.689c4.629 2.362 9.708 3.55 14.79 3.549 8.321 0 16.644-3.167 22.979-9.503 12.67-12.668 12.67-33.285 0-45.956zm-350.294-241.385-63.503 63.503c-9.297-1.528-17.879-4.609-25.486-9.868l79.167-79.167c5.232 7.588 8.298 16.181 9.822 25.532zm.755 27.529c-.789 10.25-2.511 21.01-4.616 32.067-11 2.1-21.79 3.858-32.115 4.664zm-129.276 51.496c-2.361-2.36-3.661-5.499-3.661-8.837s1.3-6.476 3.661-8.837c2.36-2.36 5.498-3.66 8.837-3.66 3.338 0 6.476 1.3 8.836 3.661 27.316 27.316 64.988 25.908 102.716 19.351-1.81 8.691-3.626 17.425-5.254 26.162-45.597 7.1-82.874 4.422-115.135-27.84zm336.152 255.528 63.498-63.498c9.301 1.528 17.885 4.608 25.49 9.864l-79.165 79.165c-5.234-7.587-8.299-16.18-9.823-25.531zm-.756-27.53c.789-10.25 2.511-21.01 4.616-32.067 11-2.099 21.789-3.856 32.111-4.66zm-50.441-87.133c-11 2.1-21.791 3.86-32.118 4.667l36.734-36.734c-.79 10.25-2.512 21.011-4.616 32.067zm-59.648 3.911c-9.294-1.528-17.874-4.61-25.482-9.871l79.167-79.168c5.232 7.588 8.298 16.181 9.822 25.531zm-39.628-24.01c-5.232-7.588-8.298-16.181-9.822-25.532l63.498-63.498c9.301 1.528 17.885 4.608 25.491 9.863zm-10.577-53.062c.789-10.25 2.511-21.01 4.616-32.067 11-2.099 21.788-3.855 32.11-4.659zm163.16 252.884c-2.36 2.36-5.499 3.661-8.837 3.661-3.339 0-6.477-1.3-8.837-3.66-43.457-43.458-32.202-97.503-20.287-154.722 10.031-48.172 20.404-97.984-13.596-131.984-27.292-27.29-64.964-25.906-102.716-19.349 1.799-8.637 3.619-17.383 5.252-26.164 45.587-7.101 82.855-4.445 115.138 27.84 43.455 43.456 32.202 97.501 20.287 154.721-10.031 48.172-20.404 97.985 13.596 131.984 4.872 4.872 4.872 12.8 0 17.673zm126.411-126.412c-4.873 4.873-12.803 4.872-17.674 0-27.29-27.289-64.963-25.907-102.715-19.35 1.81-8.692 3.626-17.426 5.254-26.163 45.603-7.1 82.882-4.415 115.135 27.839 4.872 4.874 4.872 12.802 0 17.674z"/><path d="m204.367 76.615c5.522 0 10-4.477 10-10s-4.478-10-10-10h-.007c-5.522 0-9.996 4.477-9.996 10s4.481 10 10.003 10z"/></svg>