<svg id="Layer_1" enable-background="new 0 0 512.01 512.01" height="512" viewBox="0 0 512.01 512.01" width="512" xmlns="http://www.w3.org/2000/svg"><path d="m503.247 390.11-169.912-169.913c-32.079-32.079-63.835-50.778-97.456-70.575-8.621-5.077-17.536-10.326-26.43-15.804-4.702-2.896-10.862-1.433-13.759 3.27-2.896 4.702-1.433 10.862 3.27 13.759 9.063 5.583 18.065 10.884 26.771 16.01 32.492 19.133 63.183 37.205 93.461 67.483l141.627 141.627-18.697 18.697c-5.056-2.743-10.745-4.2-16.658-4.2-9.349 0-18.138 3.641-24.749 10.251s-10.251 15.4-10.251 24.749c0 5.914 1.456 11.603 4.2 16.658l-18.697 18.697-141.627-141.627c-30.277-30.277-48.347-60.965-67.479-93.455-21.538-36.577-43.808-74.399-85.257-115.848l28.285-28.285c4.987 4.986 10.146 9.909 15.336 14.631 4.084 3.716 10.409 3.418 14.126-.667s3.418-10.41-.667-14.126c-4.958-4.511-9.888-9.215-14.653-13.98-3.77-3.77-8.792-5.846-14.142-5.846-1.769 0-3.495.248-5.158.688l-53.533-53.532c-11.697-11.696-30.728-11.696-42.425.001s-11.697 30.729 0 42.427l53.532 53.532c-1.77 6.67-.063 14.079 5.157 19.3 39.649 39.648 61.263 76.355 82.165 111.854 19.795 33.618 38.493 65.372 70.57 97.449l169.912 169.913c5.651 5.65 13.185 8.763 21.213 8.763 8.028 0 15.562-3.112 21.212-8.762l70.711-70.711c5.651-5.65 8.763-13.184 8.763-21.213s-3.11-15.564-8.761-21.215zm-480.332-367.195c3.899-3.899 10.243-3.899 14.141 0l51.619 51.619-14.141 14.141-51.619-51.618c-3.899-3.899-3.899-10.243 0-14.142zm466.19 395.479-70.711 70.711c-3.898 3.9-10.243 3.899-14.141 0l-14.142-14.142 24.748-24.749c1.875-1.875 2.929-4.419 2.929-7.071s-1.054-5.196-2.929-7.071c-2.833-2.833-4.393-6.6-4.393-10.606s1.56-7.773 4.394-10.606c2.833-2.833 6.6-4.394 10.606-4.394s7.773 1.561 10.606 4.394c1.875 1.875 4.419 2.929 7.071 2.929s5.196-1.054 7.071-2.929l24.748-24.748 14.143 14.143c1.874 1.873 2.905 4.384 2.905 7.071s-1.032 5.195-2.905 7.068z"/><path d="m259.087 308.586 70.712 70.711c3.899 3.898 9.02 5.848 14.142 5.848 5.121 0 10.243-1.949 14.142-5.848l21.214-21.214c7.797-7.797 7.797-20.485 0-28.284l-70.711-70.711c-3.77-3.77-8.792-5.846-14.143-5.846-5.35 0-10.372 2.076-14.142 5.846l-21.213 21.214c-7.798 7.797-7.798 20.485-.001 28.284zm14.143-14.142 21.213-21.214 70.711 70.71-21.213 21.214-70.712-70.709z"/><path d="m166.792 127.328c5.523 0 10-4.477 10-10s-4.477-10-10-10h-.008c-5.523 0-9.996 4.477-9.996 10s4.481 10 10.004 10z"/></svg>