<svg id="Layer_1" enable-background="new 0 0 512.002 512.002" height="512" viewBox="0 0 512.002 512.002" width="512" xmlns="http://www.w3.org/2000/svg"><path d="m206.001 178.501h17.5v17.5c0 11.028 8.972 20 20 20h25c11.028 0 20-8.972 20-20v-17.5h17.5c11.028 0 20-8.972 20-20v-25c0-11.028-8.972-20-20-20h-17.5v-17.5c0-11.028-8.972-20-20-20h-25c-11.028 0-20 8.972-20 20v17.5h-17.5c-11.028 0-20 8.972-20 20v25c0 11.028 8.972 20 20 20zm0-45h27.5c5.522 0 10-4.477 10-10v-27.5h25v27.5c0 5.523 4.478 10 10 10h27.5v25h-27.5c-5.522 0-10 4.477-10 10v27.5h-25v-27.5c0-5.523-4.478-10-10-10l-27.5.002z"/><path d="m492.002 106h-123.345c-6.116-16.686-15.894-32.136-28.745-44.939-22.708-22.621-52.344-35.06-83.428-35.06-.296 0-.598 0-.892 0-31.157 0-60.797 12.44-83.503 35.06-12.85 12.802-22.629 28.253-28.745 44.939h-123.344c-11.028 0-20 8.972-20 20v340.001c0 11.028 8.972 20 20 20h472.002c11.028 0 20-8.972 20-20v-340.001c0-11.028-8.972-20-20-20zm0 273.322-74.235-11.083 64.907-242.239h9.328zm-305.797-304.092c18.931-18.858 43.559-29.229 69.465-29.229h.737c25.83 0 50.461 10.372 69.39 29.229 19.195 19.122 30.204 45.236 30.204 71.647 0 29.357-15.789 67.355-43.319 104.253-27.081 36.294-50.639 51.995-56.681 51.995s-29.6-15.701-56.681-51.995c-27.53-36.897-43.319-74.896-43.319-104.253 0-26.411 11.009-52.525 30.204-71.647zm-2.914 187.86c22.296 29.882 53.426 60.034 72.71 60.034s50.414-30.152 72.71-60.034c30.054-40.279 47.29-82.637 47.29-116.213 0-7.008-.646-13.996-1.896-20.877h36.168l-62.124 231.846-195.578-29.198-23.997-89.559c-1.43-5.334-6.916-8.501-12.247-7.071-5.335 1.429-8.501 6.913-7.071 12.247l25.694 95.893c1.03 3.846 4.244 6.714 8.183 7.302l210.89 31.484c.498.075.994.111 1.485.111 4.459 0 8.465-2.989 9.65-7.413l65.821-245.642h30.99l-66.42 247.886c-.737 2.752-.266 5.689 1.297 8.072s4.067 3.986 6.886 4.407l88.271 13.178v30.267l-98.326-14.679c-5.016-.756-9.819 2.39-11.136 7.302l-11.674 43.568h-30.991l12.275-45.814c.737-2.752.266-5.688-1.297-8.071s-4.067-3.986-6.886-4.407l-183.79-27.438c-3.338-.498-6.694.718-8.938 3.232-2.244 2.515-3.07 5.991-2.198 9.247l19.628 73.252h-30.99l-23.169-86.469c-1.03-3.846-4.245-6.714-8.183-7.302l-86.328-12.888v-30.267l69.283 10.344c.493.074.986.11 1.478.11 2.825 0 5.548-1.199 7.46-3.342 2.244-2.515 3.07-5.991 2.198-9.247l-53.842-200.941h30.99l8.396 31.332c1.197 4.468 5.237 7.414 9.653 7.414.856 0 1.728-.111 2.594-.343 5.335-1.43 8.501-6.913 7.071-12.248l-7.008-26.155h39.624c-1.25 6.881-1.896 13.869-1.896 20.877 0 33.576 17.236 75.934 47.29 116.213zm6.084 202.911-17.068-63.699 157.624 23.532-10.762 40.166zm-163.503-340.001 51.282 191.388-57.154-8.533v-182.855zm-5.872 253.564 76.89 11.479 20.085 74.958h-96.975zm371.571 86.437 7.978-29.773 92.453 13.802v15.97z"/><path d="m116.928 195.63c-1.423-5.336-6.905-8.507-12.237-7.082-5.337 1.423-8.508 6.906-7.085 12.243 1.192 4.473 5.235 7.426 9.655 7.426.854 0 1.721-.11 2.583-.34 5.337-1.423 8.509-6.902 7.086-12.239z"/></svg>