<svg id="Layer_1" enable-background="new 0 0 512.002 512.002" height="512" viewBox="0 0 512.002 512.002" width="512" xmlns="http://www.w3.org/2000/svg"><path d="m135.387 153.095c-4.844-2.653-10.921-.877-13.574 3.966-11.934 21.785-21.069 43.121-27.151 63.417-1.585 5.291 1.418 10.864 6.708 12.45.958.287 1.924.423 2.875.423 4.302 0 8.276-2.799 9.575-7.132 5.681-18.956 14.271-38.992 25.533-59.55 2.653-4.843.877-10.921-3.966-13.574z"/><path d="m364.79 344.123-32.122 32.122-5.455-5.455c-5.666-5.666-13.199-8.786-21.212-8.786s-15.546 3.121-21.212 8.786c-5.666 5.666-8.786 13.199-8.786 21.212s3.121 15.546 8.786 21.212l26.667 26.667c5.666 5.666 13.199 8.786 21.212 8.786s15.546-3.121 21.212-8.786l53.333-53.333c11.696-11.696 11.696-30.728 0-42.424-11.697-11.696-30.727-11.696-42.423-.001zm28.28 28.282-53.333 53.333c-1.888 1.889-4.399 2.928-7.069 2.928s-5.181-1.04-7.069-2.928l-26.667-26.667c-3.898-3.898-3.898-10.241 0-14.139 1.888-1.889 4.399-2.928 7.069-2.928s5.181 1.04 7.069 2.928l12.526 12.526c3.905 3.905 10.237 3.905 14.143 0l39.192-39.193c3.898-3.898 10.241-3.898 14.139 0 3.899 3.899 3.899 10.242 0 14.14z"/><path d="m414.529 293.552c.687-6.471 1.039-12.97 1.039-19.393 0-53.736-25.071-119.695-68.784-180.962-30.673-42.993-79.459-93.197-115.999-93.197s-85.326 50.204-116 93.196c-43.713 61.268-68.784 127.226-68.784 180.962 0 53.154 23.123 104.029 63.439 139.578 34.182 30.14 77.498 46.536 121.516 46.535 5.297 0 10.607-.247 15.912-.726 21.629 31.645 57.995 52.457 99.134 52.457 66.168 0 120-53.832 120-120-.001-40.71-20.383-76.744-51.473-98.45zm-291.862 105.184c-36.012-31.754-56.667-77.161-56.667-124.577 0-48.937 24.323-112.244 65.065-169.347 39.727-55.68 80.236-84.812 99.72-84.812s59.993 29.132 99.719 84.812c40.742 57.103 65.065 120.41 65.065 169.347 0 2.803-.099 5.626-.247 8.452-15.053-6.813-31.752-10.609-49.32-10.609-66.168 0-120 53.832-120 120 0 17.125 3.613 33.419 10.106 48.172-40.93 1.345-81.596-13.359-113.441-41.438zm223.334 93.266c-55.14 0-100-44.86-100-100s44.86-100 100-100 100 44.86 100 100-44.859 100-100 100z"/><path d="m154.405 113.682h-.007c-5.523 0-9.996 4.477-9.996 10s4.48 10 10.003 10 10-4.477 10-10-4.477-10-10-10z"/></svg>