<svg id="Layer_1" enable-background="new 0 0 512.002 512.002" height="512" viewBox="0 0 512.002 512.002" width="512" xmlns="http://www.w3.org/2000/svg"><path d="m492.002 271.998h-20.001c-11.027 0-19.999 8.972-19.999 20v39.999h-.001-20-.001v-9.999c0-16.542-13.458-30-30-30h-166c-16.542 0-30 13.458-30 30v9.999h-26.617c1.11-3.13 1.72-6.494 1.72-9.999 0-16.542-13.458-29.999-29.999-29.999h-80.004c-3.92 0-7.663.764-11.099 2.137v-82.134c0-11.028-8.972-20-20-20h-20c-11.028 0-20 8.972-20 20v280c0 11.028 8.972 20 20 20h20.001c11.028 0 20-8.972 20-20v-40.002h392 .001v40.002c0 11.028 8.972 20 19.999 20h20.001c11.027 0 19.999-8.972 19.999-20v-200.004c-.001-11.028-8.973-20-20-20zm-472.001 220.004-.002-280h20.002v280zm412-140.005h20 .001v40.003h-.001-20.001zm-206.002-29.999c0-5.514 4.486-10 10-10h166c5.514 0 10 4.486 10 10v70h-186zm-154.899-9.999h80.002c5.514 0 9.999 4.485 9.999 9.999s-4.485 9.999-9.999 9.999h-80.002c-5.513 0-9.999-4.485-9.999-9.999s4.486-9.999 9.999-9.999zm380.901 120.001h-392v-20.001h10c5.523 0 10-4.477 10-10s-4.477-10-10-10h-10v-40.002h145.998v40.002h-45.998c-5.523 0-10 4.477-10 10s4.477 10 10 10h291.999.001zm20.001 60.002-.003-200.004h.002 20l.001 200.004z"/><path d="m206.002 152.5h17.5v17.5c0 11.028 8.972 20 20 20h25.001c11.027 0 19.999-8.972 19.999-20v-17.5h17.501c11.027 0 19.999-8.972 19.999-20v-25c0-11.028-8.972-20-19.999-20h-17.501v-17.5c0-11.028-8.972-20-19.999-20h-25.001c-11.028 0-20 8.972-20 20v17.5h-17.5c-11.028 0-20 8.972-20 20v25c0 11.028 8.972 20 20 20zm27.5-45c5.523 0 10-4.477 10-10v-27.5h25v27.5c0 5.523 4.478 10 10 10h27.5l.001 25h-27.501c-5.522 0-10 4.477-10 10l.001 27.5h-25v-27.5c0-5.523-4.477-10-10-10l-27.5.002v-25.002z"/><path d="m256.002 240c66.168 0 120-53.832 120-120s-53.831-120-120-120c-66.168 0-120 53.832-120 120 .001 66.168 53.832 120 120 120zm0-220c55.14 0 100 44.86 100 100s-44.859 100-100 100-100-44.859-100-100 44.86-100 100-100z"/><path d="m115.005 391.999h-.007c-5.523 0-9.996 4.477-9.996 10s4.48 10 10.003 10 10-4.477 10-10-4.477-10-10-10z"/></svg>