<svg id="Layer_1" enable-background="new 0 0 512 512" height="512" viewBox="0 0 512 512" width="512" xmlns="http://www.w3.org/2000/svg"><path d="m468.055 462.948c-.874-1.456-21.778-36.071-52.831-71.765-42.404-48.741-82.784-76.261-120.018-81.796-23.783-3.535-39.448-22.157-48.401-37.157-10.465-17.533-14.865-34.871-15.289-38.73.246-8.294-2.947-16.367-8.826-22.246l-32.48-32.479 22.159-22.159c8.283 5.78 17.597 8.768 27.467 8.768 1.255 0 2.519-.048 3.789-.145 12.599-.958 24.726-6.675 34.146-16.096 8.908-8.909 14.27-20.137 15.097-31.616.952-13.224-4.018-25.686-14.37-36.04-3.904-3.904-10.234-3.905-14.143 0-6.699 6.699-17.6 6.699-24.297 0l-70.713-70.713c-6.947-6.947-16.185-10.774-26.01-10.774s-19.063 3.827-26.009 10.773c-6.949 6.948-10.775 16.185-10.775 26.011 0 6.395 1.63 12.536 4.678 17.964l-22.661 22.661c-5.324-4.257-11.882-6.574-18.8-6.574-8.063 0-15.644 3.14-21.345 8.841s-8.841 13.281-8.841 21.344 3.14 15.643 8.841 21.345l123.965 123.963c2.593 16.157 11.716 41.928 26.989 64.613 22.119 32.852 52.221 52.954 87.053 58.131 46.314 6.884 96.081 81.032 118.187 123.759.139.269.248.467.321.594h-.001c6.821 11.815 17.933 18.575 30.515 18.575.073 0 .147 0 .222-.001 13.252-.083 26.437-7.775 32.81-19.14 5.39-9.614 5.234-20.516-.429-29.911zm-301.225-378.933c-.002-.002-.003-.004-.005-.006-3.17-3.17-4.916-7.385-4.916-11.868s1.746-8.698 4.916-11.868c6.544-6.545 17.193-6.543 23.735 0l12.224 12.224c-5.396 1.727-10.471 4.716-14.745 8.99s-7.264 9.35-8.991 14.746zm102.712 18.219c7.243 12.339 1.926 24.927-5.913 32.765-11.033 11.033-29.758 16.056-44.801 1.013l-16.646-16.646c0-.001-.001-.001-.001-.001-6.545-6.545-6.545-17.193-.001-23.736 6.543-6.545 17.192-6.543 23.735 0 11.792 11.788 29.594 13.991 43.627 6.605zm-138.074-77.318c3.17-3.17 7.385-4.916 11.867-4.916 4.483 0 8.698 1.746 11.868 4.916l12.223 12.223c-5.395 1.727-10.471 4.717-14.745 8.991-4.197 4.197-7.246 9.234-9.009 14.727l-12.206-12.205c-3.17-3.17-4.916-7.385-4.916-11.868s1.747-8.698 4.918-11.868zm84.5 274.855c-15.56-23.11-22.987-48.065-24.185-59.2-.243-2.27-1.257-4.388-2.871-6.003l-126.346-126.345c-1.924-1.924-2.983-4.482-2.983-7.203s1.06-5.278 2.983-7.202c1.924-1.924 4.481-2.983 7.202-2.983s5.277 1.06 7.201 2.983l15.083 15.083c3.906 3.905 10.236 3.905 14.143 0 3.905-3.905 3.905-10.237 0-14.143l-3.346-3.346 21.547-21.547 73.218 73.218-21.547 21.547-6.236-6.236c-3.906-3.905-10.236-3.904-14.143 0-3.905 3.906-3.905 10.237 0 14.143l52.858 52.857c2.069 2.07 3.124 4.822 2.968 7.75-.019.337-.02.675-.003 1.013.323 6.748 5.916 27.758 17.934 48.01 11.749 19.799 26.552 33.807 43.482 41.353-2.757 4.934-4.478 11.528-4.205 20.326-25.171-9.711-42.235-28.452-52.754-44.075zm235.071 183.306c-2.878 5.132-9.393 8.884-15.491 8.922-.033 0-.065 0-.098 0-5.413 0-9.816-2.826-13.092-8.399-2.931-5.662-18.405-34.842-40.824-64.375-31.93-42.062-62.938-65.592-92.164-69.936-.037-.005-.072-.013-.108-.018-2.433-15.388 2.709-18.583 5.828-19.625 31.298 5.815 67.542 31.556 105.044 74.664 29.915 34.385 49.938 67.542 50.793 68.963 1.955 3.245 1.992 6.451.112 9.804z"/><path d="m130.945 123.652h-.007c-5.522 0-9.996 4.477-9.996 10s4.48 10 10.003 10 10-4.477 10-10-4.478-10-10-10z"/></svg>