<svg id="Layer_1" enable-background="new 0 0 512.094 512.094" height="512" viewBox="0 0 512.094 512.094" width="512" xmlns="http://www.w3.org/2000/svg"><path d="m497.647 169.577c-11.125-5.759-27.889-3.952-38.41 13.617-.03.05-.06.1-.089.151l-38.866 67.554c-11.228-5.779-25.386-2.931-33.439 7.407-2.785 3.575-11.987 15.826-21.73 28.797-9.23 12.289-18.776 24.996-21.445 28.423-5.494 7.052-15.245 14.877-25.569 23.162-17.754 14.247-39.85 31.978-53.442 56.18-3.612 6.431-6.477 13.015-8.607 19.77-2.129-6.754-4.995-13.338-8.607-19.77-13.593-24.202-35.688-41.933-53.442-56.18-10.324-8.285-20.075-16.11-25.569-23.162-2.671-3.43-12.225-16.147-21.463-28.447-9.735-12.959-18.93-25.201-21.713-28.773-8.053-10.336-22.211-13.186-33.439-7.407l-38.866-67.554c-.029-.051-.059-.101-.089-.151-10.522-17.57-27.287-19.375-38.411-13.617-11.217 5.804-18.821 20.17-11.66 36.397.014.031.028.062.042.093 2.698 5.948 9.221 22.516 16.773 41.7 10.564 26.834 23.713 60.23 34.888 86.366 14.533 33.989 21.139 43.675 47.124 69.09l34.25 33.5-11.968 48.59c-1.688 6.444-.274 13.442 3.793 18.742 3.91 5.096 9.71 8.019 15.913 8.019h78.3c14.92 0 24.55-6.438 29.44-19.683 1.845-4.998 3.406-9.902 4.703-14.724 1.296 4.822 2.857 9.727 4.703 14.724 4.89 13.245 14.521 19.683 29.44 19.683h78.3c6.202 0 12.002-2.923 15.913-8.019 4.066-5.3 5.481-12.298 3.793-18.742l-11.968-48.59 34.249-33.5c25.985-25.416 32.592-35.102 47.124-69.09 11.175-26.136 24.322-59.533 34.888-86.367 7.552-19.184 14.075-35.751 16.772-41.699.014-.031.027-.062.041-.093 7.161-16.227-.443-30.593-11.657-36.397zm-265.064 315.885c-1.659 4.494-3.253 6.611-10.679 6.611h-78.164c-.244-.192-.712-.88-.493-1.699.018-.065.035-.13.051-.196l13.355-54.219c.847-3.437-.187-7.065-2.718-9.541l-38.333-37.494c-24.053-23.526-29.243-31.138-42.718-62.654-11.061-25.87-24.15-59.117-34.667-85.831-7.947-20.184-14.228-36.138-17.145-42.582-2.421-5.529-.132-9.121 2.57-10.52 3.934-2.036 8.535.287 12.019 6.063l43.101 74.915c-.898 5.291-.339 11.925 2.739 20.214 8.872 23.894 19.957 47.875 30.412 65.794 2.783 4.77 8.907 6.381 13.677 3.598 4.771-2.783 6.381-8.907 3.598-13.677-9.9-16.969-20.448-39.813-28.937-62.677-2.385-6.423-2.5-10.53-.34-12.209 2.905-2.258 7.286-1.69 9.568 1.239 2.675 3.434 12.245 16.173 21.499 28.493 9.718 12.938 18.897 25.158 21.677 28.726 6.93 8.896 17.567 17.432 28.829 26.469 35.988 28.884 76.782 61.62 51.099 131.177zm258.441-287.604c-2.917 6.444-9.198 22.397-17.145 42.581-10.518 26.714-23.606 59.961-34.668 85.832-13.475 31.516-18.664 39.128-42.718 62.654l-38.333 37.494c-2.53 2.475-3.564 6.104-2.718 9.541l13.354 54.219c.017.065.033.131.051.196.219.819-.249 1.507-.493 1.699h-78.164c-7.425 0-9.02-2.117-10.679-6.611-25.683-69.557 15.111-102.293 51.103-131.176 11.262-9.037 21.898-17.573 28.829-26.47 2.778-3.565 11.949-15.775 21.659-28.702 9.262-12.331 18.84-25.082 21.517-28.517 1.338-1.718 3.398-2.624 5.459-2.624 1.453 0 2.908.451 4.109 1.385 2.158 1.679 2.044 5.786-.341 12.209-8.489 22.862-19.036 45.707-28.938 62.677-2.783 4.771-1.172 10.894 3.599 13.677 4.77 2.785 10.895 1.172 13.677-3.598 10.455-17.92 21.54-41.901 30.412-65.794 3.077-8.289 3.636-14.923 2.737-20.213l43.102-74.915c3.484-5.776 8.084-8.097 12.019-6.063 2.701 1.398 4.99 4.991 2.57 10.519z"/><path d="m253.467 279.732c.845.226 1.713.339 2.581.339s1.735-.113 2.581-.339c21.87-5.841 55.608-28.655 85.952-58.12 20.865-20.262 57.68-61.024 69.813-106.375 9.378-35.055 1.764-66.116-22.021-89.824-33.96-33.855-89.222-33.857-123.188 0-8.533 8.507-19.907 6.348-26.276 0-20.422-20.357-49.664-29.24-78.221-23.762-5.424 1.041-8.978 6.281-7.937 11.705s6.282 8.978 11.705 7.937c22.05-4.23 44.604 2.605 60.333 18.285 15.285 15.237 39.233 15.238 54.516 0 26.18-26.094 68.772-26.094 94.948 0 18.689 18.63 24.349 42.346 16.819 70.49-8.072 30.173-30.952 64.691-64.426 97.196-30.023 29.155-58.941 47.131-74.609 52.369-20.287-6.704-57.878-32.486-91.05-69.5-22.255-24.833-58.343-72.958-49.983-116.252 1.047-5.423-2.5-10.667-7.923-11.715-5.428-1.046-10.668 2.5-11.715 7.923-9.997 51.775 29.997 105.798 54.727 133.393 33.208 37.053 76.683 69.122 103.374 76.25z"/><path d="m268.548 70.072h-25c-11.028 0-20 8.972-20 20v17.5h-17.5c-11.028 0-20 8.972-20 20v25c0 11.028 8.972 20 20 20h17.5v17.5c0 11.028 8.972 20 20 20h25c11.027 0 19.999-8.972 19.999-20v-17.5h17.501c11.027 0 19.999-8.972 19.999-20v-25c0-11.028-8.972-20-19.999-20h-17.501v-17.5c0-11.029-8.972-20-19.999-20zm37.499 57.499.001 25h-27.501c-5.522 0-10 4.477-10 10l.001 27.5h-25v-27.5c0-5.523-4.477-10-10-10l-27.5.002v-25.002h27.5c5.523 0 10-4.477 10-10v-27.5h25v27.5c0 5.523 4.478 10 10 10z"/><path d="m126.781 42.495c5.523 0 10-4.477 10-10s-4.477-10-10-10h-.007c-5.523 0-9.996 4.477-9.996 10s4.48 10 10.003 10z"/></svg>