<svg id="Layer_1" enable-background="new 0 0 512 512" height="512" viewBox="0 0 512 512" width="512" xmlns="http://www.w3.org/2000/svg"><path d="m443.445 0h-117.443c-18.651 0-36.218 7.294-49.462 20.538-13.244 13.245-20.538 30.811-20.538 49.462v30.001h-50c-16.542 0-30 13.458-30 30 0 14.703 2.41 25.142 4.74 35.237 1.552 6.721 3.155 13.67 4.169 22.292.645 5.485 5.62 9.405 11.099 8.765 5.485-.645 9.409-5.614 8.765-11.099-.213-1.811-.452-3.523-.701-5.193h163.853c-1.132 7.57-1.924 16.401-1.924 27.398 0 20.747 5.524 75.926 10.867 129.289 4.697 46.907 9.133 91.213 9.134 105.308h-94.317c2.118-14.458-2.199-29.355-12.098-40.45.185-.304.366-.611.544-.919 6.667-11.547 8.438-24.999 4.987-37.877-3.451-12.879-11.711-23.643-23.258-30.309-6.744-3.893-14.028-6.026-21.318-6.547-.724-23.339-17.533-42.693-39.697-47.304.046-.483.092-.974.138-1.455.518-5.499-3.52-10.376-9.018-10.894-5.506-.515-10.376 3.519-10.895 9.018-.102 1.087-.207 2.19-.312 3.287-2.234.452-4.436 1.047-6.585 1.797-8.65-6.626-19.175-10.213-30.268-10.213-27.523 0-49.915 22.392-49.915 49.916 0 14.299 5.955 27.544 16.282 36.907-2.461 5.982-3.737 12.411-3.737 18.975 0 8.371 2.081 16.261 5.738 23.197-12.736 13.729-33.594 30.275-39.635 34.263-7.496 4.949-12.515 12.114-13.769 19.66-1.097 6.6.656 13.108 5.069 18.819 7.085 9.169 21.965 28.252 24.128 30.879 3.222 3.915 11.992 9.252 21.698 9.252.27 0 .541-.004.813-.012 5.622-.174 13.674-2.248 20.108-11.135 8.469-11.696 25.448-28.384 38.35-35.305 4.006 15.372 11.91 30.073 23.205 43.025 1.899 2.178 4.647 3.427 7.537 3.427h172.443c2.89 0 5.638-1.25 7.536-3.427 17.169-19.685 26.243-42.705 26.243-66.571 0-15.091-4.484-59.882-9.232-107.304-5.048-50.411-10.769-107.548-10.769-127.296 0-19.384 2.674-30.966 5.26-42.167 2.33-10.094 4.74-20.532 4.74-35.233 0-16.542-13.458-30-30-30h-50v-30.002c0-2.628 1.052-5.128 2.961-7.038 1.911-1.91 4.41-2.962 7.039-2.962h117.443c5.522 0 10-4.477 10-10v-40c.002-5.523-4.475-10-9.998-10zm-177.645 367.928c2.068 7.718 1.007 15.78-2.987 22.699-1.12 1.939-2.45 3.748-3.954 5.375-1.923 2.082-2.872 4.882-2.611 7.704s1.707 5.401 3.979 7.096c12.132 9.05 15.563 25.777 7.98 38.909-8.248 14.285-26.578 19.198-40.865 10.95-4.202-2.426-7.646-5.712-10.236-9.766-1.869-2.925-5.074-4.616-8.427-4.616-.88 0-1.771.117-2.65.358-7.774 2.138-15.905 1.095-22.887-2.936-6.921-3.996-11.871-10.447-13.939-18.165-2.068-7.719-1.007-15.78 2.989-22.701 5.239-9.075 14.634-14.665 25.13-14.951 2.702-.074 5.259-1.238 7.089-3.227 1.829-1.99 2.775-4.635 2.623-7.334-.329-5.806 1.042-11.55 3.963-16.61 8.248-14.285 26.579-19.198 40.866-10.949 6.919 3.995 11.868 10.445 13.937 18.164zm-121.892-77.796c8.063 0 15.623 3.161 21.288 8.901 3.079 3.12 7.833 3.87 11.722 1.852 4.272-2.216 8.897-3.34 13.749-3.34 16.496 0 29.916 13.42 29.916 29.916 0 .363-.018.725-.031 1.088-10.95 3.791-20.643 11.366-26.879 22.165-3.281 5.685-5.39 11.892-6.249 18.302-13.626 2.944-25.406 11.437-32.555 23.82-2.252 3.9-3.931 8.02-5.053 12.259-13.311-3.028-23.279-14.951-23.279-29.165 0-5.843 1.685-11.502 4.872-16.367 1.481-2.261 1.984-5.025 1.395-7.663s-2.222-4.924-4.524-6.339c-8.946-5.496-14.287-15.034-14.287-25.514 0-16.495 13.42-29.915 29.915-29.915zm-29.419 198.992c-1.659 2.292-3.04 2.721-4.059 2.839-2.694.316-6.03-1.396-7.237-2.318-2.793-3.472-16.317-20.806-23.426-30.005-1.412-1.828-1.24-2.868-1.166-3.312.325-1.954 2.357-4.465 5.059-6.249 5.937-3.92 26.812-20.156 41.411-35.371 6.688 5.423 14.796 9.158 23.676 10.541.28 1.828.651 3.652 1.136 5.464 1.758 6.562 4.771 12.57 8.824 17.771-19.866 10.947-38.976 33.4-44.218 40.64zm253.056 2.876h-163.083c-6.171-7.762-10.887-16.154-14.008-24.852 4.611.716 9.318.777 14.004.164 3.651 4.235 8.02 7.863 12.883 10.67 7.842 4.527 16.41 6.678 24.874 6.678 16.417-.001 32.414-8.112 41.886-22.661h99.121c-2.952 10.518-8.222 20.645-15.677 30.001zm-161.543-371.999h50v40.001h-55.942c-2.195-9.518-4.058-17.891-4.058-30.002 0-5.513 4.486-9.999 10-9.999zm70 0h20v40.001h-20zm90 0c5.514 0 10 4.486 10 10 0 12.112-1.863 20.485-4.059 30.002h-55.941v-40.001h50zm67.443-80.001h-107.443c-7.971 0-15.492 3.132-21.181 8.82-5.688 5.688-8.819 13.21-8.819 21.18v30.001h-20v-30.001c0-13.309 5.214-25.853 14.681-35.319s22.009-14.681 35.319-14.681h107.443z"/><path d="m327.478 237.803c-5.522 0-10 4.477-10 10s4.478 10 10 10h.007c5.522 0 9.997-4.477 9.997-10s-4.482-10-10.004-10z"/><path d="m283.235 302.053c5.522 0 9.996-4.477 9.996-10s-4.481-10-10.004-10-10 4.477-10 10 4.478 10 10 10z"/><path d="m342.478 359.054h.008c5.522 0 9.996-4.477 9.996-10s-4.481-10-10.004-10-10 4.477-10 10 4.477 10 10 10z"/><path d="m156.478 346.304h.007c5.522 0 9.997-4.477 9.997-10s-4.481-10-10.004-10-10 4.477-10 10 4.477 10 10 10z"/><path d="m224.478 417.304c0 5.523 4.478 10 10 10h.008c5.522 0 9.996-4.477 9.996-10s-4.481-10-10.004-10-10 4.477-10 10z"/><path d="m204.867 231.363c0-5.523-4.478-10-10-10h-.008c-5.522 0-9.996 4.477-9.996 10s4.481 10 10.004 10 10-4.477 10-10z"/></svg>