<svg id="Layer_1" enable-background="new 0 0 511.999 511.999" height="512" viewBox="0 0 511.999 511.999" width="512" xmlns="http://www.w3.org/2000/svg"><path d="m449.126 338.871c0-38.598-31.402-70-70-70s-70 31.402-70 70c0 27.867 16.372 51.976 40 63.232v6.77c0 11.44-4.507 22.249-12.692 30.434s-18.993 12.692-30.434 12.692-22.25-4.508-30.434-12.692c-8.185-8.185-12.692-18.993-12.692-30.434v-63.183c14.885-6.232 25.37-20.947 25.37-38.067v-13.691c6.815-2.502 13.547-5.457 20.176-8.896 23.418-12.148 44.673-29.952 61.468-51.487 2.32-2.974 2.69-6.847 1.306-10.087 20.477-28.914 31.681-61.872 31.68-93.583 0-27.486-8.248-51.977-24.517-72.791-10.191-13.038-23.343-24.171-39.101-33.128-6.196-14.091-20.28-23.96-36.633-23.96-22.056 0-40 17.944-40 40s17.944 40 40 40c3.858 0 7.586-.56 11.118-1.584 7.07 4.53 12.934 9.739 17.451 15.519 7.751 9.917 11.681 22.011 11.681 35.944 0 18.791-6.757 38.756-19.119 56.919-.738-.075-1.486-.078-2.234.013-2.633.325-5.03 1.683-6.662 3.775-10.615 13.611-23.929 24.802-38.501 32.36-13.972 7.249-28.603 10.924-43.485 10.924s-29.513-3.675-43.485-10.924c-14.572-7.559-27.885-18.749-38.501-32.36-1.632-2.093-4.028-3.45-6.662-3.775-.747-.091-1.495-.088-2.233-.013-12.362-18.163-19.12-38.128-19.12-56.919 0-13.935 3.93-26.027 11.68-35.943 4.519-5.782 10.383-10.99 17.453-15.52 3.532 1.024 7.26 1.584 11.118 1.584 22.056 0 40-17.944 40-40s-17.944-40-40-40c-16.352 0-30.436 9.868-36.631 23.958-3.262 1.855-6.447 3.814-9.483 5.855-4.583 3.08-5.802 9.294-2.721 13.877 1.93 2.872 5.09 4.423 8.309 4.423.445 0 .89-.037 1.334-.096 1.471 7.204 4.886 13.707 9.669 18.941-5.693 4.442-10.649 9.344-14.805 14.661-10.564 13.518-15.922 29.754-15.922 48.26 0 22.715 7.92 46.56 22.442 67.983l-15.691 12.256c-17.304-25.104-26.751-53.289-26.751-80.239 0-5.678.426-11.278 1.268-16.646.855-5.456-2.875-10.572-8.332-11.427-5.456-.865-10.572 2.875-11.427 8.331-1.001 6.389-1.509 13.031-1.509 19.742 0 31.712 11.204 64.671 31.68 93.583-1.384 3.239-1.013 7.113 1.306 10.087 16.794 21.534 38.049 39.339 61.468 51.487 6.629 3.439 13.361 6.394 20.176 8.896v13.692c0 17.12 10.486 31.834 25.371 38.066v63.183c0 27.463 10.75 53.338 30.27 72.857 19.519 19.519 45.394 30.269 72.857 30.269s53.337-10.75 72.857-30.269c19.52-19.52 30.27-45.395 30.27-72.857v-6.77c23.627-11.255 39.999-35.365 39.999-63.232zm-286.003-318.871c11.028 0 20 8.972 20 20s-8.972 20-20 20-20-8.972-20-20 8.972-20 20-20zm119.5 20c0-11.028 8.972-20 20-20s20 8.972 20 20-8.972 20-20 20-20-8.972-20-20zm64.327 41.618c-4.155-5.316-9.111-10.219-14.804-14.66 4.518-4.944 7.805-11.026 9.397-17.756 8.161 5.973 15.215 12.729 21.056 20.203 13.454 17.213 20.275 37.559 20.274 60.475 0 26.95-9.447 55.134-26.752 80.238l-15.69-12.255c14.522-21.422 22.442-45.269 22.442-67.983 0-18.506-5.358-34.743-15.923-48.262zm-228.949 147.334 23.545-18.392c11.166 12.421 24.368 22.74 38.631 30.14 16.846 8.738 34.575 13.17 52.695 13.17s35.849-4.432 52.695-13.17c14.263-7.399 27.465-17.719 38.631-30.14l23.545 18.392c-13.883 15.83-30.502 28.977-48.535 38.33-21.218 11.008-43.537 16.589-66.336 16.589s-45.118-5.581-66.337-16.589c-18.032-9.354-34.651-22.501-48.534-38.33zm79.501 70.919c11.615 2.65 23.427 4 35.371 4s23.755-1.35 35.37-4v7.752c0 11.718-9.532 21.25-21.249 21.25h-28.242c-11.717 0-21.25-9.532-21.25-21.249zm191.624 109.002c0 22.121-8.669 42.974-24.411 58.715-15.742 15.742-36.594 24.411-58.715 24.411-22.122 0-42.974-8.669-58.715-24.411-15.742-15.741-24.411-36.594-24.411-58.715v-60h20v60c0 16.783 6.588 32.613 18.55 44.576 11.962 11.962 27.792 18.55 44.576 18.55 16.783 0 32.614-6.588 44.576-18.55 11.963-11.963 18.551-27.793 18.551-44.576v-.728c3.268.47 6.604.726 10 .726s6.732-.256 10-.726v.728zm-10-20.002c-27.57 0-50-22.43-50-50s22.43-50 50-50 50 22.43 50 50-22.429 50-50 50z"/><path d="m379.126 308.871c-16.542 0-30 13.458-30 30s13.458 30 30 30 30-13.458 30-30-13.458-30-30-30zm0 40c-5.514 0-10-4.486-10-10s4.486-10 10-10 10 4.486 10 10-4.486 10-10 10z"/><path d="m90.578 79.735c5.523 0 10-4.478 10-10s-4.477-10-10-10h-.007c-5.523 0-9.996 4.478-9.996 10s4.48 10 10.003 10z"/></svg>