<svg id="Layer_1" enable-background="new 0 0 512 512" height="512" viewBox="0 0 512 512" width="512" xmlns="http://www.w3.org/2000/svg"><path d="m168.559 242.002c5.523 0 10-4.478 10-10v-23.117l12.636 6.925c2.993 1.641 6.617 1.641 9.611 0l12.636-6.925v23.117c0 5.522 4.477 10 10 10s10-4.478 10-10v-40c0-3.533-1.864-6.804-4.904-8.604-3.04-1.801-6.804-1.863-9.902-.166l-22.636 12.405-22.636-12.404c-3.098-1.697-6.862-1.634-9.902.165-3.04 1.801-4.904 5.071-4.904 8.604v40c.001 5.522 4.478 10 10.001 10z"/><path d="m423.071 124.929-57.071-57.074v-47.855c0-11.028-8.972-20-20-20h-180c-11.028 0-20 8.972-20 20v47.855l-57.071 57.074c-1.876 1.876-2.929 4.419-2.929 7.071v360c0 11.028 8.972 20 20 20h300c11.028 0 20-8.972 20-20v-360c0-2.652-1.053-5.195-2.929-7.071zm-137.071 17.071v142.625c-17.472 63.942-54.36 101.394-101.358 102.793-35.242 1.029-68.836-19.271-78.154-47.266-.137-.411-.305-.801-.488-1.181v-196.971zm-180 234.134c18.572 19.096 46.804 31.321 76.113 31.321 1.038 0 2.083-.016 3.124-.046 25.722-.767 49.918-10.676 69.973-28.657 11.893-10.663 22.175-23.949 30.79-39.726v53.724c-23.068 42.122-70.88 46.333-90.573 46.16-40.089-.35-78.517-17.292-89.427-39.415zm200-88.798c21.187-78.205 46.348-90.851 59.503-91.397 18.072-.778 34.902 18.837 40.086 33.268.121.336.259.661.411.976v113.307c-11.482-6.57-27.038-11.471-44.319-10.358-15.81 1.017-36.564 7.428-55.681 29.194zm100-93.064c-10.815-10.805-25.156-18.962-41.328-18.316-15.78.656-30.27 9.438-43.066 26.103-5.511 7.177-10.717 15.912-15.606 26.101v-92.018l50-50.003 50 50.002zm-60-174.272v41.997h-79.999c-5.523 0-10 4.478-10 10s4.477 10 10 10h65.858l-40.001 40.003h-171.717l40.001-40.003h15.859c5.523 0 10-4.478 10-10s-4.477-10-10-10h-10.001v-41.997zm-240 410.137c6.841 5.622 15.07 10.662 24.567 14.967 19.202 8.706 42.174 13.609 64.686 13.806.502.004 1 .007 1.5.007 36.648 0 67.738-11.804 89.247-33.21v66.293h-180zm200 61.863v-94.295c14.8-27.751 34.459-43.167 56.965-44.614 20.635-1.323 37.701 9.037 43.035 15.407v123.502z"/><path d="m221.004 81.997c5.523 0 10-4.478 10-10s-4.477-10-10-10h-.007c-5.523 0-9.996 4.478-9.996 10s4.48 10 10.003 10z"/></svg>