<svg id="Layer_1" enable-background="new 0 0 512 512" height="512" viewBox="0 0 512 512" width="512" xmlns="http://www.w3.org/2000/svg"><path d="m492 251.968h-9.178c-1.413-27.537-24.261-49.507-52.144-49.507-.156 0-.308.01-.464.012-4.298-5.968-9.819-11-16.247-14.712-3.246-1.874-6.674-3.387-10.216-4.521l1.296-2.244c6.95-12.038 8.785-26.104 5.166-39.607-1.026-3.831-2.469-7.473-4.264-10.896 17.788-64.322 12.867-109.835-13.697-125.17-11.026-6.367-30.757-10.178-62.122 7.814-20.921 12.002-44.231 32.162-67.739 58.524-6.679-3.109-14.115-4.857-21.956-4.857-23.833 0-43.972 16.057-50.207 37.916-.027.007-.055.012-.082.019-3.622.97-7.115 2.323-10.421 4.026l-.671-2.503c-7.451-27.809-36.135-44.37-63.948-36.92-27.81 7.452-44.372 36.14-36.92 63.947l.671 2.504c-3.714.178-7.417.752-11.038 1.722-13.471 3.609-24.73 12.249-31.704 24.328-6.973 12.078-8.826 26.148-5.216 39.619 2.982 11.131 9.545 20.874 18.528 27.813-2.95 7.187-4.26 14.944-3.838 22.692h-25.589c-11.028 0-20 8.972-20 20v110c0 46.246 35.063 84.451 80 89.441v20.559c0 11.028 8.972 20 20 20h312c11.028 0 20-8.972 20-20v-20.559c44.937-4.991 80-43.196 80-89.441v-110c0-11.027-8.972-19.999-20-19.999zm-29.231 0h-64.183c1.38-16.5 15.24-29.507 32.091-29.507s30.712 13.007 32.092 29.507zm-58.804-46.887c1.364.788 2.657 1.678 3.882 2.646-16.614 8.112-28.315 24.785-29.313 44.241h-63.207l27.031-46.819c2.762-4.783 1.123-10.898-3.66-13.66-4.784-2.762-10.899-1.122-13.66 3.66l-17.162 29.725-7.023-25.107c-1.488-5.319-7.013-8.424-12.324-6.938-5.319 1.488-8.425 7.006-6.938 12.324l12.294 43.952-1.653 2.862h-62.502c-14.834-9.063-19.834-28.455-11.101-43.58 4.617-7.998 12.464-13.636 21.53-15.469 2.812-.568 5.245-2.317 6.679-4.802 1.435-2.484 1.733-5.465.819-8.185-2.945-8.768-1.986-18.383 2.631-26.381 4.302-7.452 11.249-12.782 19.56-15.009 8.311-2.229 16.992-1.084 24.443 3.218 4.906 2.833 8.982 6.905 11.79 11.778 1.784 3.097 5.086 5.006 8.66 5.008h.005c3.572 0 6.874-1.906 8.66-5l8.524-14.764c4.279-7.411 11.23-12.724 19.573-14.959 8.34-2.237 17.019-1.111 24.43 3.168 4.433 2.559 8.107 6.079 10.828 10.276.078.122.154.244.237.362 1.715 2.725 3.035 5.726 3.895 8.935 2.236 8.344 1.11 17.02-3.168 24.431l-8.523 14.764c-1.787 3.096-1.786 6.909.002 10.004 1.787 3.092 5.087 4.996 8.658 4.996h.034c5.617.002 11.174 1.496 16.069 4.323zm-251.693 46.887c1.38-16.5 15.241-29.507 32.091-29.507 3.45 0 6.791.539 9.989 1.585-.063 9.832 2.64 19.54 7.805 27.922zm229.979-229.325c15.829 9.139 18.535 43.522 7.72 89.62-1.3-.917-2.643-1.786-4.037-2.591-24.932-14.394-56.928-5.821-71.323 19.111l-1.296 2.244c-2.753-2.501-5.776-4.712-9.023-6.587-3.72-2.148-7.631-3.807-11.654-4.973.001-.15.011-.3.011-.451 0-13.717-5.325-26.207-14.006-35.535 49.241-54.801 87.26-70.275 103.608-60.838zm-141.816 64.161c17.334 0 31.507 13.764 32.181 30.934-2.658.291-5.313.781-7.945 1.486-13.471 3.61-24.73 12.25-31.704 24.328-1.119 1.938-2.101 3.936-2.954 5.978-12.83-4.314-21.792-16.344-21.792-30.513.001-17.762 14.452-32.213 32.214-32.213zm-169.543 144.483c1.586-2.391 2.07-5.348 1.327-8.118-.742-2.771-2.639-5.09-5.208-6.367-8.282-4.116-14.403-11.594-16.793-20.515-2.227-8.312-1.084-16.992 3.218-24.444 4.302-7.451 11.249-12.781 19.559-15.009 5.473-1.463 11.235-1.467 16.667-.008 3.452.928 7.136-.056 9.665-2.583 2.528-2.526 3.516-6.21 2.591-9.662l-4.412-16.467c-4.597-17.157 5.621-34.855 22.778-39.453 17.159-4.596 34.856 5.621 39.454 22.777l4.412 16.467c.925 3.452 3.622 6.148 7.074 7.072 3.451.923 7.136-.065 9.661-2.594 2.32-2.323 4.992-4.258 7.897-5.768 1.508 10.313 6.065 19.959 13.212 27.732 6.554 7.128 14.857 12.223 23.997 14.848-.021 2.375.11 4.755.414 7.124-10.473 4.377-19.334 12.09-25.095 22.068-.13.224-.243.453-.369.679l.776-13.278c.322-5.514-3.886-10.244-9.4-10.566-5.52-.307-10.245 3.887-10.566 9.4l-1.05 17.982c-6.486.452-12.648 2.091-18.272 4.706l-9.41-35.12c-1.429-5.334-6.914-8.504-12.248-7.071-5.334 1.43-8.5 6.913-7.071 12.247l11.483 42.854c-.971 1.103-1.902 2.242-2.779 3.424l-23.628-8.157c-5.222-1.807-10.914.968-12.716 6.188-1.802 5.221.969 10.914 6.189 12.716l21.51 7.426c-.832 3.273-1.357 6.667-1.536 10.151h-66.579c-.641-7.231 1.17-14.538 5.248-20.681zm29.108 260.681v-20h312v20zm392-110c0 38.598-31.402 70-70 70h-332c-38.598 0-70-31.402-70-70l-.002-110h.002 472z"/><path d="m149.994 311.969h.008c5.523 0 9.996-4.478 9.996-10s-4.481-10-10.004-10-10 4.478-10 10 4.477 10 10 10z"/><path d="m50.001 311.969h54.996c5.523 0 10-4.478 10-10s-4.477-10-10-10h-54.996c-5.523 0-10 4.478-10 10s4.477 10 10 10z"/></svg>