<svg id="Layer_1" enable-background="new 0 0 512.002 512.002" height="512" viewBox="0 0 512.002 512.002" width="512" xmlns="http://www.w3.org/2000/svg"><path d="m492.002 191.996h-20.002v-20.001c0-11.028-8.972-20-20-20h-72.705c1.767-8.392 2.703-17.087 2.703-25.997.001-69.476-56.521-125.998-125.997-125.998s-125.998 56.522-125.998 125.998c0 8.91.936 17.605 2.703 25.997h-72.705c-11.028 0-20 8.972-20 20v20.001h-20.001c-11.028 0-20 8.971-20 19.998v280.01c0 11.027 8.972 19.998 20 19.998h472.001c11.028 0 20-8.971 20-19.998v-280.01c.001-11.027-8.971-19.998-19.999-19.998zm-432 280.005h169.935c7.291 0 13.736 4.678 16.065 11.501v8.501l-186 .001zm205.999 11.501c2.329-6.823 8.774-11.501 16.064-11.501h169.935v20.001l-185.999.001zm185.999-311.507v279.996.01h-169.934c-5.701 0-11.165 1.316-16.064 3.686v-204.088c48.911-3.859 90.055-35.768 107.304-79.604zm-195.999-151.995c58.447 0 105.998 47.551 105.998 105.998s-47.55 105.998-105.998 105.998-105.999-47.551-105.999-105.998 47.551-105.998 105.999-105.998zm-236.001 191.996h20.001v10.001c0 5.522 4.477 10 10 10s10-4.478 10-10v-50.002h78.695c17.249 43.836 58.393 75.746 107.305 79.604v204.087c-4.9-2.37-10.364-3.686-16.065-3.686h-169.934v-140.003c0-5.522-4.477-10-10-10s-10 4.478-10 10v140.004 40.003h-20.002zm472.002 280.006h-20.002v-40.001-240.005l20.001-.001v280.007z"/><path d="m90.003 211.996h31.499c5.523 0 10-4.478 10-10s-4.477-10-10-10h-31.499c-5.523 0-10 4.478-10 10s4.477 10 10 10z"/><path d="m90.003 254.237h62.998c5.523 0 10-4.478 10-10s-4.477-10-10-10h-62.998c-5.523 0-10 4.478-10 10s4.477 10 10 10z"/><path d="m90.003 296.478h125.997c5.523 0 10-4.478 10-10s-4.477-10-10-10h-125.997c-5.523 0-10 4.478-10 10s4.477 10 10 10z"/><path d="m90.003 338.719h125.997c5.523 0 10-4.478 10-10s-4.477-10-10-10h-125.997c-5.523 0-10 4.478-10 10s4.477 10 10 10z"/><path d="m390.5 211.996h31.499c5.523 0 10-4.478 10-10s-4.477-10-10-10h-31.499c-5.523 0-10 4.478-10 10s4.477 10 10 10z"/><path d="m359.001 254.237h62.998c5.523 0 10-4.478 10-10s-4.477-10-10-10h-62.998c-5.523 0-10 4.478-10 10s4.477 10 10 10z"/><path d="m421.999 276.478h-125.997c-5.523 0-10 4.478-10 10s4.477 10 10 10h125.997c5.523 0 10-4.478 10-10s-4.477-10-10-10z"/><path d="m421.999 318.719h-125.997c-5.523 0-10 4.478-10 10s4.477 10 10 10h125.997c5.523 0 10-4.478 10-10s-4.477-10-10-10z"/><path d="m90.003 380.959h125.997c5.523 0 10-4.478 10-10s-4.477-10-10-10h-125.997c-5.523 0-10 4.478-10 10s4.477 10 10 10z"/><path d="m90.003 423.2h125.997c5.523 0 10-4.478 10-10s-4.477-10-10-10h-125.997c-5.523 0-10 4.478-10 10s4.477 10 10 10z"/><path d="m421.999 360.959h-125.997c-5.523 0-10 4.478-10 10s4.477 10 10 10h125.997c5.523 0 10-4.478 10-10s-4.477-10-10-10z"/><path d="m421.999 403.2h-125.997c-5.523 0-10 4.478-10 10s4.477 10 10 10h125.997c5.523 0 10-4.478 10-10s-4.477-10-10-10z"/><path d="m206.001 158.498h17.5v17.501c0 11.027 8.972 19.999 20 19.999h25c11.028 0 20-8.972 20-19.999v-17.501h17.5c11.028 0 20-8.972 20-19.999v-25.001c0-11.028-8.972-20-20-20h-17.5v-17.5c0-11.027-8.972-19.999-20-19.999h-25c-11.028 0-20 8.972-20 19.999v17.5h-17.5c-11.028 0-20 8.972-20 20v25.001c0 11.027 8.972 19.999 20 19.999zm27.5-45c5.523 0 10-4.478 10-10v-27.499l25-.001v27.5c0 5.522 4.477 10 10 10h27.5v25h-27.5c-5.523 0-10 4.478-10 10v27.5l-25 .001v-27.501c0-5.522-4.477-10-10-10l-27.5.003v-25.003z"/><path d="m50.002 277.001c5.523 0 10-4.478 10-10v-.008c0-5.522-4.477-9.996-10-9.996s-10 4.481-10 10.004 4.477 10 10 10z"/></svg>