<svg id="Layer_1" enable-background="new 0 0 512.002 512.002" height="512" viewBox="0 0 512.002 512.002" width="512" xmlns="http://www.w3.org/2000/svg"><path d="m509.072 494.931-68.353-68.353 7.07-7.07c5.65-5.651 8.763-13.185 8.763-21.213 0-8.029-3.112-15.563-8.763-21.214l-11.318-11.318c12.833-19.403 10.714-45.854-6.359-62.928l-176.776-176.776 7.071-7.071c3.77-3.77 5.846-8.792 5.846-14.143 0-5.35-2.076-10.372-5.846-14.142l-17.677-17.678c-3.77-3.77-8.792-5.846-14.142-5.846 0 0 0 0-.001 0-5.35 0-10.372 2.076-14.142 5.846l-35.356 35.356-42.427-42.428 14.144-14.144c3.769-3.77 5.845-8.792 5.845-14.142s-2.076-10.372-5.846-14.142l-17.679-17.677c-7.797-7.796-20.485-7.798-28.284 0l-10 10.001c-3.905 3.905-3.905 10.237 0 14.143 3.905 3.904 10.237 3.904 14.142 0l10-10.001 17.678 17.678-98.995 98.995-17.678-17.678 25.356-25.356c3.905-3.905 3.905-10.237 0-14.143-3.905-3.904-10.237-3.904-14.143 0l-25.355 25.357c-3.77 3.77-5.846 8.792-5.846 14.142s2.076 10.372 5.846 14.142l17.678 17.679c3.899 3.898 9.02 5.848 14.142 5.848s10.243-1.949 14.143-5.848l14.143-14.144 42.428 42.428-35.356 35.356v.001c-3.769 3.77-5.845 8.792-5.845 14.142s2.076 10.372 5.846 14.142l17.678 17.679c3.899 3.898 9.02 5.848 14.142 5.848s10.243-1.949 14.143-5.848l7.072-7.072 176.775 176.776c9.748 9.747 22.552 14.621 35.355 14.621 9.624 0 19.247-2.755 27.573-8.262l11.318 11.318c5.651 5.65 13.185 8.763 21.213 8.763 8.029 0 15.563-3.112 21.214-8.763l7.07-7.07 68.353 68.353c1.953 1.952 4.512 2.929 7.071 2.929s5.118-.977 7.071-2.929c3.903-3.907 3.903-10.239-.002-14.144zm-326.444-213.308 98.993-98.993 14.143 14.143-98.993 98.993zm28.281-113.137 28.285 28.286-42.423 42.423-28.285-28.286zm28.284-28.285 28.286 28.286-14.143 14.143-28.285-28.286zm-159.098-17.681 42.423-42.423 42.427 42.428-42.423 42.423zm24.749 123.747-17.679-17.677.001-.001 141.42-141.421 17.678 17.677zm49.499-21.215 28.285 28.286-14.142 14.142-28.285-28.285zm162.633 190.919-106.062-106.063 98.993-98.993 106.063 106.063c11.697 11.696 11.696 30.729-.001 42.426l-56.567 56.567c-11.697 11.697-30.729 11.697-42.426 0zm88.388 17.677c-1.873 1.873-4.384 2.905-7.071 2.905s-5.197-1.032-7.07-2.905l-10.606-10.607 42.425-42.425 10.606 10.607c3.899 3.898 3.899 10.243 0 14.142z"/><path d="m306.372 263.946c-3.906-3.904-10.236-3.904-14.143 0l-28.284 28.284c-3.905 3.905-3.905 10.237 0 14.143 1.953 1.952 4.512 2.929 7.071 2.929s5.118-.977 7.071-2.929l28.284-28.284c3.906-3.905 3.906-10.237.001-14.143z"/><path d="m338.192 295.766c-3.905-3.903-10.235-3.904-14.143 0l-28.285 28.284c-3.905 3.905-3.905 10.237 0 14.143 1.953 1.952 4.512 2.929 7.071 2.929s5.118-.977 7.071-2.929l28.285-28.284c3.906-3.906 3.906-10.238.001-14.143z"/><path d="m370.011 327.585c-3.906-3.904-10.236-3.904-14.143 0l-28.284 28.284c-3.905 3.905-3.905 10.237 0 14.143 1.953 1.952 4.512 2.929 7.071 2.929s5.118-.977 7.071-2.929l28.284-28.284c3.907-3.906 3.907-10.238.001-14.143z"/><path d="m70.088 64.742c2.706 0 5.402-1.092 7.375-3.243l.005-.006c3.732-4.071 3.454-10.394-.617-14.125-4.07-3.732-10.399-3.455-14.131.617-3.732 4.071-3.457 10.396.614 14.128 1.919 1.76 4.34 2.629 6.754 2.629z"/></svg>