<svg id="Layer_1" enable-background="new 0 0 512.055 512.055" height="512" viewBox="0 0 512.055 512.055" width="512" xmlns="http://www.w3.org/2000/svg"><path d="m416.03 87.5h-17.5v-17.5c0-11.028-8.972-20-20-20h-25c-11.028 0-20 8.972-20 20v17.5h-17.5c-11.028 0-20 8.972-20 20v25c0 11.028 8.972 20 20 20h17.5v17.5c0 11.028 8.972 20 20 20h25c11.028 0 20-8.972 20-20v-17.5h17.5c11.028 0 20-8.972 20-20v-25c0-11.028-8.972-20-20-20zm0 45h-27.5c-5.522 0-10 4.478-10 10v27.5h-25v-27.5c0-5.522-4.478-10-10-10l-27.5.002v-25.002h27.5c5.522 0 10-4.478 10-10v-27.5h25v27.5c0 5.522 4.478 10 10 10h27.5z"/><path d="m486.03 120c0-66.168-53.832-120-120-120-45.122 0-84.501 25.038-104.99 61.946-12.805-6.596-27.279-9.944-43.195-9.944-26.587 0-50.276 9.889-66.704 27.846-9.321 10.188-15.771 22.406-18.37 34.186-2.91-.804-5.853-1.4-8.814-1.788-5.465-.716-10.495 3.144-11.212 8.62-.716 5.476 3.144 10.496 8.62 11.212 5.302.692 10.566 2.381 15.646 5.017 1.448.752 3.028 1.124 4.604 1.124 1.949 0 3.892-.569 5.568-1.693 3.033-2.033 4.717-5.557 4.394-9.194-.741-8.314 3.399-22.046 14.319-33.982 7.741-8.46 21.023-18.329 41.948-20.773v202.452c-.234-.016-.467-.036-.705-.036-28.591 0-34.313-10.503-41.558-23.801-4.521-8.298-9.646-17.704-20.335-23.746-4.81-2.718-10.909-1.023-13.627 3.786-2.717 4.808-1.022 10.908 3.785 13.626 5.707 3.226 8.755 8.819 12.614 15.902 7.87 14.446 18.649 34.232 59.12 34.232.238 0 .471-.019.705-.036v178.854c-17.273 19.015-35.87 23.441-51.397 12.047-11.637-8.537-17.394-23.524-14.362-34.97 1.344.123 2.687.203 4.023.203 13.326 0 26.088-6.062 35.031-17.465 3.408-4.346 2.647-10.632-1.698-14.04s-10.631-2.649-14.04 1.698c-9.362 11.938-22.685 11.149-31.248 6.846-9.083-4.563-17.892-15.703-15.926-32.954 1.887.153 3.793.239 5.7.238 4.728 0 9.458-.511 13.891-1.732 24.223-6.49 29.363-20.398 33.494-31.573 2.464-6.668 4.411-11.935 10.469-16.112 4.546-3.136 5.69-9.363 2.555-13.91-3.137-4.546-9.364-5.689-13.91-2.555-11.268 7.771-14.931 17.681-17.873 25.643-3.544 9.59-5.684 15.377-19.979 19.208-8.551 2.354-21.368.287-29.608-2.974-10.757-4.257-18.338-12.984-20.799-23.945-2.653-11.816 1.223-24.36 10.633-34.416 2.485-2.656 3.332-6.452 2.213-9.912-1.12-3.461-4.031-6.04-7.602-6.736-24.796-4.833-40.245-21.623-41.327-44.913-.987-21.268 10.488-39.69 27.906-44.8 2.949-.865 5.336-3.038 6.475-5.892 1.138-2.854.9-6.074-.645-8.73-2.795-4.809-4.579-9.825-5.303-14.912-.777-5.467-5.838-9.276-11.309-8.492-5.468.777-9.27 5.841-8.492 11.309.574 4.039 1.578 8.023 3.002 11.922-20.215 10.983-32.828 34.35-31.613 60.524 1.033 22.234 13.058 47.926 42.855 59.447-7.06 12.416-9.357 26.402-6.309 39.982 3.876 17.264 16.195 31.53 32.954 38.162.941.373 1.94.739 2.984 1.095-3.621 25.524 8.74 44.753 24.398 53.717-5.723 19.526 2.655 43.245 21.628 57.165 8.258 6.06 18.621 10.074 30.069 10.073 13.447-.001 28.39-5.549 43.159-19.826 14.77 14.278 29.711 19.826 43.159 19.826 11.446 0 21.812-4.015 30.069-10.073 18.972-13.92 27.35-37.639 21.627-57.165 15.658-8.964 28.02-28.194 24.399-53.717 1.044-.356 2.042-.723 2.983-1.095 16.759-6.633 29.078-20.898 32.954-38.162 3.049-13.581.749-27.571-6.313-39.988 18.969-7.355 29.315-19.958 34.85-30.194 7.995-14.787 10.094-32.522 6.137-49.13 45.686-16.977 78.323-61.013 78.323-112.532zm-212.93 75.833c-1.044 1.792-2.026 3.587-2.99 5.356-7.245 13.298-12.969 23.801-41.562 23.801-.238 0-.47.019-.704.036v-152.443c9.098 1.065 17.454 3.61 24.974 7.629-4.391 12.457-6.789 25.847-6.789 39.787.001 28.74 10.161 55.149 27.071 75.834zm110.881 76.315c-6.836 12.644-19.183 21.028-35.704 24.249-3.57.696-6.481 3.275-7.602 6.736-1.119 3.461-.272 7.256 2.213 9.912 9.411 10.056 13.287 22.6 10.634 34.416-2.461 10.961-10.042 19.688-20.799 23.945-8.239 3.262-21.055 5.33-29.678 2.955-14.227-3.813-16.365-9.6-19.909-19.188-2.942-7.963-6.605-17.872-17.873-25.644-4.548-3.135-10.773-1.991-13.91 2.555-3.136 4.547-1.991 10.774 2.555 13.91 6.058 4.178 8.004 9.444 10.469 16.111 4.13 11.176 9.27 25.084 33.425 31.556 4.468 1.231 9.223 1.745 13.975 1.745 1.902 0 3.803-.085 5.684-.237 1.968 17.254-6.842 28.395-15.925 32.959-8.564 4.304-21.885 5.092-31.247-6.846-3.408-4.347-9.695-5.106-14.04-1.698-4.346 3.408-5.106 9.694-1.698 14.04 8.943 11.404 21.703 17.466 35.031 17.465 1.336 0 2.678-.081 4.022-.203 3.032 11.445-2.725 26.432-14.362 34.97-15.528 11.395-34.124 6.979-51.396-12.034v-228.868c.234.016.466.036.704.036 40.437 0 51.233-19.751 59.104-34.194 21.04 18.188 48.445 29.204 78.376 29.204 7.66 0 15.152-.73 22.418-2.109 2.615 11.658 1.085 23.988-4.467 34.257zm-17.951-52.148c-55.141 0-100-44.859-100-100s44.859-100 100-100 100 44.859 100 100-44.859 100-100 100z"/><path d="m79.907 146.224c5.522 0 10-4.478 10-10s-4.478-10-10-10h-.007c-5.522 0-9.996 4.478-9.996 10s4.481 10 10.003 10z"/></svg>