<svg id="Layer_1" enable-background="new 0 0 512.023 512.023" height="512" viewBox="0 0 512.023 512.023" width="512" xmlns="http://www.w3.org/2000/svg"><path d="m465.979 121.579c-.011-10.971-5.887-21.084-15.335-26.391-.124-.069-.249-.137-.376-.2l-179.825-91.167c-8.961-5.047-19.618-5.097-28.616-.136l-178.928 90.662c-10.262 5.003-16.888 15.685-16.888 27.241v148.256c0 53.785 19.838 105.549 57.37 149.693 36.853 43.345 88.118 75.764 144.355 91.293 2.695.794 5.476 1.192 8.26 1.192 2.602 0 5.208-.348 7.751-1.043 56.454-15.471 107.912-47.946 144.894-91.443 37.532-44.144 57.37-95.906 57.37-149.694zm-72.575 285.003c-34.403 40.465-82.327 70.691-134.936 85.107-1.711.469-3.428.451-5.109-.053-.068-.021-.137-.04-.206-.06-52.451-14.462-100.23-44.647-134.534-84.994-34.416-40.479-52.607-87.763-52.607-136.738v-148.255c0-3.969 2.229-7.61 5.681-9.277.057-.027.113-.055.169-.084l179.177-90.788c.127-.064.253-.131.377-.201 1.44-.809 3.018-1.212 4.595-1.212 1.617 0 3.235.424 4.707 1.271.154.089.311.174.47.254l179.815 91.161c3.071 1.8 4.974 5.187 4.978 8.878l.032 148.254c-.001 48.975-18.193 96.258-52.609 136.737z"/><path d="m420.503 124.745-159.983-81.106c-2.841-1.441-6.2-1.44-9.041-.001l-39.855 20.194c-4.927 2.496-6.897 8.513-4.4 13.439 2.496 4.928 8.516 6.896 13.439 4.4l35.335-17.903 149.984 76.038.029 130.049c.009 39.338-14.889 77.657-43.082 110.816-27.343 32.161-65.218 56.957-106.914 70.054-41.704-13.099-79.581-37.895-106.922-70.053-28.185-33.149-43.082-71.473-43.082-110.828v-130.078l34.37-17.416c4.926-2.496 6.896-8.514 4.399-13.439-2.496-4.929-8.514-6.897-13.44-4.4l-39.849 20.192c-3.362 1.703-5.48 5.151-5.48 8.92v136.222c0 44.165 16.544 86.969 47.844 123.783 30.438 35.8 72.801 63.193 119.287 77.136.938.281 1.905.422 2.873.422s1.936-.141 2.873-.422c46.479-13.939 88.84-41.334 119.278-77.137 31.311-36.825 47.854-79.626 47.845-123.775l-.03-136.189c-.001-3.769-2.118-7.215-5.478-8.918z"/><path d="m206.012 289.371h17.5v17.501c0 11.027 8.972 19.999 20 19.999h25.001c11.027 0 19.999-8.972 19.999-19.999v-17.501h17.501c11.027 0 19.999-8.972 19.999-19.999v-25.001c0-11.028-8.972-20-19.999-20h-17.501v-17.5c0-11.027-8.972-19.999-19.999-19.999h-25.001c-11.028 0-20 8.972-20 19.999v17.5h-17.5c-11.027 0-19.999 8.972-19.999 20v25.001c0 11.027 8.971 19.999 19.999 19.999zm27.5-45c5.522 0 10-4.478 10-10v-27.499l25-.001v27.5c0 5.522 4.478 10 10 10h27.5l.001 25h-27.501c-5.522 0-10 4.478-10 10l.001 27.5-25.001.001v-27.501c0-5.522-4.478-10-10-10l-27.499.003-.001-25.003z"/><path d="m136.012 256.871c0 66.168 53.832 120 120 120s120-53.832 120-120-53.832-120-120-120-120 53.832-120 120zm120-100c55.141 0 100 44.859 100 100s-44.859 100-100 100-100-44.859-100-100 44.859-100 100-100z"/><path d="m176.009 103.096c1.906 0 3.833-.544 5.538-1.681l.006-.004c4.596-3.063 5.834-9.271 2.771-13.865s-9.274-5.836-13.87-2.771c-4.596 3.063-5.837 9.272-2.773 13.867 1.925 2.89 5.096 4.454 8.328 4.454z"/></svg>