<svg id="Layer_1" enable-background="new 0 0 512.001 512.001" height="512" viewBox="0 0 512.001 512.001" width="512" xmlns="http://www.w3.org/2000/svg"><path d="m502.001 442h-10v-319.998c0-16.542-13.458-30-30.001-30h-10-.001v-72.002c0-11.028-8.972-20-19.999-20h-180.001c-11.028 0-20 8.972-20 19.999v72.003h-71.997c-5.523 0-10 4.478-10 10s4.477 10 10 10h71.997v87.998c0 11.027 8.972 19.999 20 19.999h61.705l14.155 14.156c3.77 3.769 8.792 5.845 14.141 5.845h.002c5.35 0 10.372-2.076 14.141-5.846l14.155-14.155h61.702c11.027 0 19.999-8.972 19.999-19.999v-87.997h.001 10c5.515 0 10.001 4.486 10.001 10v279.997h-95.002v-32.001c0-11.028-8.972-20-20-20h-266.997c-11.028 0-20 8.972-20 20v32.001h-30.002v-279.998c0-5.514 4.486-10 10-10h20.001c5.523 0 10-4.478 10-10s-4.477-10-10-10h-20.001c-16.542 0-30 13.458-30 30v319.998h-10c-5.523 0-10 4.478-10 10v30c0 16.542 13.458 30 30 30h452.002c16.542 0 29.999-13.458 29.999-30v-30c0-5.522-4.478-10-10-10zm-135.847-242.001c-2.652 0-5.195 1.054-7.071 2.929l-17.083 17.083-17.083-17.084c-1.875-1.875-4.419-2.929-7.071-2.929h-65.847v-179.998l180-.001.001 180zm105.847 222.001v20h-156c-5.522 0-10 4.478-10 10.001l-100.001-.001c0-5.522-4.477-10-10-10h-75.997v-20zm-381.999-52.001h266.997v32.001h-266.997zm-50.002 52.001h60.003v20h-60.003zm452.001 60c0 5.514-4.485 10-9.999 10h-452.002c-5.514 0-10-4.486-10-10v-20h168.684c3.463 5.975 9.928 10.001 17.316 10.001h100c7.388 0 13.854-4.026 17.316-10.001h168.684v20z"/><path d="m392 77.5h-17.501v-17.5c0-11.028-8.972-20-19.999-20h-25.001c-11.028 0-20 8.972-20 19.999v17.5h-17.5c-11.027 0-19.999 8.972-19.999 20v25.001c0 11.027 8.972 19.999 19.999 19.999h17.5v17.501c0 11.027 8.972 19.999 20 19.999h25.001c11.027 0 19.999-8.972 19.999-19.999v-17.5h17.501c11.027 0 19.999-8.972 19.999-19.999v-25.001c0-11.029-8.972-20-19.999-20zm-27.501 45c-5.522 0-10 4.478-10 10l.001 27.5h-25.001v-27.5c0-5.522-4.478-10-10-10l-27.499.002-.001-25.002h27.5c5.522 0 10-4.478 10-10v-27.5l25-.001v27.5c0 5.522 4.478 10 10 10h27.5l.001 25h-27.501z"/><path d="m80.002 309.999h161.997c5.523 0 10-4.478 10-10s-4.477-10-10-10h-161.997c-5.523 0-10 4.478-10 10s4.477 10 10 10z"/><path d="m80.002 264.999h111.996c5.523 0 10-4.478 10-10s-4.477-10-10-10h-111.996c-5.523 0-10 4.478-10 10s4.477 10 10 10z"/><path d="m80.002 219.999h111.996c5.523 0 10-4.478 10-10s-4.477-10-10-10h-111.996c-5.523 0-10 4.478-10 10s4.477 10 10 10z"/><path d="m70.002 165c0 5.522 4.477 10 10 10h111.996c5.523 0 10-4.478 10-10s-4.477-10-10-10h-111.996c-5.523 0-10 4.477-10 10z"/><path d="m115.005 112.002c5.523 0 10-4.478 10-10s-4.477-10-10-10h-.008c-5.523 0-9.996 4.478-9.996 10s4.481 10 10.004 10z"/></svg>