<svg id="Layer_1" enable-background="new 0 0 511.958 511.958" height="512" viewBox="0 0 511.958 511.958" width="512" xmlns="http://www.w3.org/2000/svg"><path d="m341.533 385.11-168.746-168.746c-.2-21.817-11.775-47.132-28.927-64.285-12.937-12.937-27.711-19.878-42.726-20.072-.213-.003-.423-.005-.635-.005-13.817 0-27.274 5.859-37.957 16.542-10.847 10.847-16.72 24.552-16.537 38.592.194 15.015 7.136 29.789 20.072 42.726 12.859 12.858 30.197 22.649 47.57 26.863 5.912 1.434 11.55 2.157 16.849 2.197l168.612 168.611c.133 21.467 11.431 46.79 29.033 64.392 14.224 14.225 29.233 20.034 43.131 20.033 14.736-.001 28.224-6.535 38.187-16.497 19.357-19.359 25.771-52.011-3.536-81.317-17.613-17.614-42.922-28.912-64.39-29.034zm-188.07-131.507c2.974-1.647 5.679-3.668 8.075-6.064 2.43-2.43 4.413-5.164 6.025-8.114l173.838 173.838c3.898 3.898 3.898 10.241 0 14.139s-10.24 3.898-14.139 0zm-73.243-37.884c-9.175-9.175-14.091-19.148-14.217-28.843-.113-8.725 3.58-17.089 10.682-24.189 6.995-6.996 15.216-10.685 23.8-10.685.13 0 .26.001.39.003 9.694.126 19.668 5.042 28.843 14.217 21.015 21.015 29.937 54.916 17.678 67.175-5.592 5.592-16.175 7.01-29.033 3.892-13.701-3.324-27.96-11.387-38.143-21.57zm315.097 265.599c-15.498 15.497-35.324 14.173-53.032-3.536-8.163-8.163-14.808-18.829-18.857-29.513 3.498 1.36 7.2 2.046 10.904 2.046 7.682 0 15.363-2.924 21.212-8.771 8.668-8.667 10.905-21.361 6.726-32.115 10.68 4.047 21.343 10.689 29.511 18.857 17.711 17.71 19.033 37.535 3.536 53.032z"/><path d="m445.923 282.142c-17.596-17.596-42.928-28.9-64.391-29.035l-92.824-92.824c-3.906-3.904-10.236-3.904-14.143 0-3.905 3.905-3.905 10.237 0 14.143l106.835 106.835c1.889 1.888 2.929 4.399 2.929 7.069 0 2.671-1.04 5.182-2.929 7.069-3.898 3.898-10.24 3.898-14.139 0l-173.798-173.798c2.974-1.647 5.679-3.668 8.075-6.064 2.43-2.43 4.413-5.163 6.026-8.114l3.363 3.363c1.953 1.952 4.512 2.929 7.071 2.929s5.119-.977 7.071-2.929c3.905-3.906 3.905-10.237 0-14.143l-12.281-12.28c-.199-21.818-11.775-47.133-28.928-64.286-12.937-12.936-27.711-19.878-42.726-20.072-.213-.003-.423-.005-.634-.005-13.817 0-27.274 5.859-37.957 16.542-10.847 10.847-16.72 24.552-16.537 38.592.194 15.015 7.136 29.789 20.072 42.726 12.859 12.858 30.197 22.649 47.57 26.863 5.912 1.434 11.55 2.157 16.849 2.197l168.615 168.614c.13 21.472 11.407 46.766 29.031 64.39 14.225 14.224 29.232 20.033 43.131 20.032 14.736-.001 28.224-6.535 38.187-16.497 19.356-19.359 25.77-52.011-3.538-81.317zm-325.703-198.425c-9.175-9.175-14.091-19.148-14.217-28.843-.113-8.725 3.58-17.089 10.682-24.189 6.995-6.997 15.216-10.685 23.8-10.685.13 0 .26.001.39.003 9.694.126 19.668 5.042 28.843 14.217 21.015 21.015 29.937 54.916 17.678 67.175-5.592 5.592-16.175 7.01-29.033 3.892-13.701-3.324-27.96-11.387-38.143-21.57zm315.097 265.599c-15.496 15.495-35.322 14.176-53.032-3.535-8.174-8.174-14.817-18.836-18.864-29.515 3.5 1.361 7.204 2.049 10.911 2.049 7.681 0 15.364-2.925 21.211-8.772 5.666-5.665 8.787-13.198 8.787-21.212 0-3.79-.706-7.469-2.042-10.898 10.679 4.051 21.336 10.695 29.493 18.852 17.711 17.709 19.033 37.534 3.536 53.031z"/><path d="m249.82 145.537c2.56 0 5.118-.977 7.071-2.929 3.905-3.905 3.905-10.237 0-14.143l-.005-.005c-3.906-3.906-10.235-3.901-14.14.003-3.905 3.905-3.903 10.239.002 14.145 1.954 1.953 4.512 2.929 7.072 2.929z"/></svg>