<svg id="Layer_1" enable-background="new 0 0 512.002 512.002" height="512" viewBox="0 0 512.002 512.002" width="512" xmlns="http://www.w3.org/2000/svg"><path d="m9.996 246.026 167.567.069c3.885.003 7.436 2.284 9.05 5.817l21.079 46.078c1.628 3.558 5.181 5.84 9.094 5.84s7.466-2.282 9.094-5.84l60.296-131.812c2.44-5.348 7.588-5.765 9.107-5.766 1.906 0 6.595.562 8.976 5.773l33.851 73.999c1.628 3.558 5.181 5.84 9.094 5.84h154.799c5.522 0 10-4.478 10-10s-4.478-10-10-10h-23.61c16.055-52.106 6.303-97.701-28.587-132.479-47.332-47.183-124.35-47.185-171.684 0-14.369 14.32-33.517 10.687-44.24 0-34.169-34.062-85.439-44.6-130.619-26.854-5.141 2.02-7.671 7.823-5.651 12.964s7.821 7.672 12.964 5.651c37.787-14.844 80.645-6.048 109.188 22.402 20.32 20.258 52.158 20.256 72.479 0 39.548-39.425 103.897-39.422 143.445 0 30.938 30.84 38.21 70.626 21.677 118.315h-103.74l-31.177-68.154c-4.92-10.77-15.326-17.458-27.162-17.458-.002 0-.005 0-.008 0-11.925.003-22.385 6.694-27.294 17.454l-51.198 111.924-11.983-26.194c-4.854-10.625-15.541-17.494-27.229-17.502l-122.936-.051c-10.977-31.671-11.475-60.044-1.457-84.41 2.1-5.108-.339-10.951-5.446-13.052-5.108-2.102-10.951.339-13.052 5.446-11.211 27.27-11.561 58.17-1.091 92.007l-23.589-.01c-.001 0-.002 0-.004 0-5.521 0-9.998 4.475-10 9.996-.001 5.525 4.474 10.005 9.997 10.007z"/><path d="m502.002 266.051h-167.571c-4.23 0-8.023-2.677-9.439-6.661-.098-.275-.208-.546-.329-.813l-20.353-44.491c-1.628-3.558-5.181-5.84-9.094-5.84s-7.466 2.282-9.094 5.84l-60.296 131.81c-2.378 5.204-7.063 5.768-8.971 5.768-.001 0-.002 0-.003 0-1.52-.001-6.667-.418-9.11-5.774l-33.851-73.998c-1.628-3.558-5.181-5.84-9.094-5.84h-154.797c-5.522 0-10 4.478-10 10s4.478 10 10 10h51.79c23.008 37.045 56.701 75.299 95.354 108.181 36.005 30.63 71.996 52.787 96.276 59.272.845.226 1.713.339 2.58.339s1.735-.113 2.58-.339c24.28-6.485 60.271-28.643 96.276-59.272 38.653-32.882 72.347-71.135 95.354-108.181h51.79c5.522 0 10-4.478 10-10s-4.476-10.001-9.998-10.001zm-160.104 112.948c-32.026 27.245-64.565 47.827-85.897 54.438-21.332-6.61-53.871-27.192-85.897-54.438-33.435-28.443-62.934-60.96-84.489-92.947h72.762l31.175 68.148c4.912 10.769 15.372 17.46 27.297 17.464h.009c11.834-.001 22.241-6.689 27.159-17.452l51.2-111.926 11.095 24.253c4.366 11.692 15.605 19.513 28.12 19.513h91.957c-21.556 31.986-51.056 64.503-84.491 92.947z"/><path d="m69.257 110.628c5.522 0 10-4.478 10-10s-4.478-10-10-10h-.008c-5.522 0-9.996 4.478-9.996 10s4.481 10 10.004 10z"/></svg>