<svg id="Layer_1" enable-background="new 0 0 512.008 512.008" height="512" viewBox="0 0 512.008 512.008" width="512" xmlns="http://www.w3.org/2000/svg"><path d="m372.001 332.006c-11.714 0-23.044 3.396-32.721 9.7l-99.957-99.956c-3.905-3.904-10.237-3.904-14.143 0-3.905 3.905-3.905 10.237 0 14.143l106.153 106.152c3.773 3.771 9.842 3.919 13.792.333 7.37-6.688 16.914-10.372 26.875-10.372 22.056 0 40 17.943 40 39.999 0 10.685-4.161 20.729-11.716 28.285-7.555 7.555-17.6 11.715-28.284 11.715-3.054 0-6.094-.344-9.033-1.021-3.358-.772-6.88.235-9.318 2.673s-3.448 5.959-2.673 9.318c.678 2.941 1.022 5.98 1.022 9.033 0 22.056-17.944 39.999-40 40-22.056-.001-40-17.944-40-40 0-9.962 3.685-19.507 10.374-26.875 3.586-3.95 3.439-10.021-.333-13.793l-181.371-181.37c-3.773-3.772-9.841-3.918-13.792-.333-7.368 6.689-16.913 10.373-26.875 10.373-22.056 0-40-17.944-40-40s17.944-39.999 40-39.999c3.055 0 6.093.344 9.031 1.022 3.356.772 6.881-.235 9.319-2.672 2.438-2.438 3.449-5.959 2.675-9.318-.678-2.942-1.022-5.982-1.022-9.035 0-22.056 17.944-39.999 40-40 22.056.001 40 17.944 40 40 0 9.962-3.684 19.506-10.373 26.874-3.586 3.95-3.439 10.021.333 13.793l11.578 11.578c3.905 3.904 10.237 3.904 14.143 0 3.905-3.905 3.905-10.237 0-14.143l-5.382-5.382c6.303-9.676 9.701-21.007 9.701-32.721 0-33.083-26.916-59.999-60-60-33.084.001-60 26.917-60 60 0 0-.001.003-.002.003-33.084 0-60 26.915-60 59.999s26.916 60 60 60c11.714 0 23.046-3.397 32.722-9.701l168.976 168.978c-6.303 9.676-9.701 21.007-9.702 32.722 0 33.083 26.917 59.999 60 60 33.084-.001 60-26.917 60-60v-.003c.003-.001.003-.001.004 0 16.025 0 31.092-6.241 42.424-17.573 11.334-11.334 17.574-26.401 17.574-42.427 0-33.084-26.915-59.999-59.999-59.999z"/><path d="m506.159 133.129-127.281-127.281c-7.798-7.799-20.486-7.797-28.284 0l-127.279 127.28c-7.795 7.798-7.796 20.485 0 28.283l.001.001 43.632 43.632v20.017c0 11.028 8.972 20 20 20h20.018l43.63 43.63c3.77 3.771 8.792 5.847 14.143 5.847 5.35 0 10.373-2.076 14.142-5.846l127.279-127.279c7.795-7.799 7.795-20.486-.001-28.284zm-141.421 141.42-46.56-46.56c-1.875-1.875-4.419-2.929-7.071-2.929h-24.16v-24.159c0-2.652-1.054-5.195-2.929-7.071l-46.561-46.561 127.279-127.278 127.28 127.279z"/><path d="m345.949 136.059c-5.666-5.666-13.199-8.786-21.212-8.786s-15.546 3.12-21.212 8.786-8.786 13.199-8.786 21.212 3.121 15.546 8.786 21.212l26.667 26.667c5.666 5.666 13.199 8.786 21.212 8.786s15.546-3.12 21.212-8.786l53.333-53.333c5.666-5.666 8.786-13.199 8.786-21.212 0-8.014-3.121-15.547-8.786-21.212-5.666-5.666-13.199-8.786-21.212-8.786s-15.546 3.12-21.212 8.786l-32.122 32.121zm51.718-12.523c3.897-3.897 10.24-3.899 14.139 0 1.888 1.888 2.928 4.398 2.928 7.069s-1.04 5.182-2.928 7.069l-53.333 53.333c-1.888 1.889-4.398 2.929-7.069 2.929-2.67 0-5.181-1.04-7.069-2.929l-26.667-26.667c-3.898-3.897-3.898-10.24 0-14.139 1.888-1.889 4.399-2.929 7.069-2.929s5.181 1.04 7.069 2.929l12.526 12.526c1.875 1.875 4.419 2.929 7.071 2.929s5.196-1.054 7.071-2.929z"/><path d="m141.854 356.011-17.575 17.575c-3.905 3.905-3.905 10.237 0 14.143 1.953 1.952 4.512 2.929 7.071 2.929s5.119-.977 7.071-2.929l17.575-17.575c3.905-3.905 3.905-10.237 0-14.143-3.904-3.904-10.236-3.904-14.142 0z"/><path d="m136.622 322.453c-1.43-5.335-6.912-8.499-12.248-7.07l-24.008 6.434c-5.334 1.43-8.5 6.913-7.071 12.248 1.197 4.468 5.237 7.414 9.653 7.414.857 0 1.728-.111 2.595-.344l24.008-6.434c5.335-1.43 8.501-6.913 7.071-12.248z"/><path d="m189.555 375.386c-5.337-1.433-10.818 1.735-12.248 7.071l-6.433 24.009c-1.43 5.334 1.736 10.817 7.071 12.247.867.232 1.738.344 2.595.344 4.415 0 8.456-2.947 9.653-7.415l6.433-24.009c1.43-5.333-1.736-10.817-7.071-12.247z"/><path d="m200.438 227c5.523 0 10-4.478 10-10s-4.477-10-10-10h-.007c-5.523 0-9.996 4.478-9.996 10s4.48 10 10.003 10z"/></svg>