<svg id="Layer_1" enable-background="new 0 0 512 512" height="512" viewBox="0 0 512 512" width="512" xmlns="http://www.w3.org/2000/svg"><path d="m458.966 0h-117.444c-18.651 0-36.218 7.294-49.462 20.538s-20.538 30.811-20.538 49.462v30.001h-32.599l-8.518-51.323c-.965-5.813-4.461-10.81-9.59-13.709-5.115-2.891-11.169-3.318-16.632-1.188-2.54.962-5.102 2.052-7.615 3.239-4.993 2.361-7.127 8.322-4.766 13.315s8.321 7.129 13.315 4.766c1.878-.888 3.786-1.706 5.676-2.436l7.879 47.474c-15.21 1.441-27.149 14.281-27.149 29.861 0 4.407.22 8.426.586 12.172l-42.122 15.813c-2.098-13.377-.925-27.785 3.403-41.717 1.638-5.274-1.309-10.878-6.583-12.517s-10.878 1.311-12.516 6.583c-5.325 17.143-6.68 34.998-3.918 51.638.963 5.799 4.451 10.789 9.57 13.691 2.976 1.688 6.271 2.542 9.583 2.541 2.369 0 4.747-.437 7.021-1.319l39.029-14.652c.229 1.005.459 2.005.688 2.999 2.586 11.201 5.26 22.782 5.26 42.167 0 6.367-.592 16.986-1.793 32.167-10.385-6.601-22.575-10.33-35.241-10.402-.11-.001-.221-.002-.331-.002-7.143 0-13.75 3.808-17.319 10.008-10.466 18.164-11.632 40.211-3.516 59.211-20.249 3.767-42.592 13.435-63.436 34.279-33.023 33.021-43.705 76.919-30.242 123.886-6.118 8.387-8.115 18.418-5.473 28.281 3.341 12.47 13.558 22.687 26.028 26.028 2.855.765 5.725 1.141 8.564 1.141 6.971 0 13.762-2.268 19.721-6.614 35.924 10.302 70.048 6.456 98.889-10.696 3.063 4.816 6.531 9.462 10.387 13.884 1.899 2.178 4.647 3.428 7.537 3.428h172.443c2.89 0 5.638-1.25 7.537-3.428 17.168-19.686 26.242-42.705 26.242-66.57 0-15.091-4.484-59.884-9.232-107.306-5.048-50.41-10.769-107.547-10.769-127.295 0-19.385 2.674-30.966 5.26-42.167 2.33-10.094 4.74-20.531 4.74-35.233 0-16.542-13.457-30-29.999-30h-50.001v-29.999c0-2.629 1.052-5.128 2.962-7.038s4.412-2.962 7.04-2.962h117.443c5.522 0 10-4.478 10-10v-40c.001-5.522-4.477-10-9.999-10zm-237.444 120.001h50v40.003h-55.941c-2.196-9.517-4.059-17.89-4.059-30.003.001-5.514 4.487-10 10-10zm70 40.003v-40.003h20v40.003zm-127.367 135.419c-8.226-14.246-8.22-31.974.006-46.258.056.001.111.002.167.002 16.422.075 31.712 8.935 39.901 23.119 4.615 7.994 6.689 17.185 6.041 26.369-2.129.948-4.194 2.122-6.168 3.529-8.054-2.523-22.185-5.938-39.367-5.826-.19-.313-.397-.619-.58-.935zm-62.693 189.981c-3.039-.935-8.124-2.495-12.469 1.849-4.151 4.152-8.731 5.596-13.613 4.285-5.519-1.479-10.407-6.366-11.885-11.885-1.308-4.882.134-9.461 4.29-13.617 4.337-4.342 2.781-9.408 1.851-12.436-12.668-41.239-4.232-78.168 24.396-106.796 24.228-24.229 50.815-30.465 71.777-30.465 17.919 0 31.729 4.561 36.422 6.338.473.18.847.32 1.374.462 3.452.929 7.136-.061 9.663-2.587 4.151-4.152 8.732-5.597 13.613-4.285 5.519 1.479 10.407 6.366 11.886 11.885 1.308 4.882-.134 9.462-4.286 13.613-4.343 4.343-2.786 9.411-1.855 12.44 12.669 41.237 4.233 78.167-24.396 106.796-28.624 28.626-65.543 37.064-106.768 24.403zm281.603 6.596h-163.082c-2.295-2.886-4.388-5.868-6.282-8.923 2.963-2.486 5.859-5.122 8.669-7.932 4.21-4.21 8.052-8.599 11.533-13.146h164.839c-2.952 10.518-8.222 20.645-15.677 30.001zm18.458-50.002h-155.177c13.314-27.03 15.611-58.143 6.266-90.74 6.117-8.386 8.115-18.418 5.473-28.281-3.342-12.471-13.558-22.687-26.028-26.028-.559-.15-1.119-.281-1.679-.401.211-11.965-2.799-23.82-8.828-34.261-1.003-1.737-2.085-3.414-3.232-5.037 2.183-24.841 3.204-40.74 3.204-49.848 0-10.997-.792-19.828-1.924-27.397h163.847c-1.132 7.57-1.924 16.401-1.924 27.397 0 20.747 5.524 75.926 10.867 129.287 4.698 46.906 9.135 91.212 9.135 105.309zm-20-321.997c5.514 0 9.999 4.486 9.999 10 0 12.113-1.863 20.486-4.059 30.003h-55.941v-40.003zm67.443-80.001h-107.444c-7.971 0-15.493 3.132-21.181 8.819s-8.819 13.21-8.819 21.181v30.001h-20v-30.001c0-13.31 5.214-25.853 14.681-35.319s22.01-14.681 35.319-14.681h107.443v20z"/><path d="m116.076 414.741c-5.523 0-10 4.478-10 10s4.477 10 10 10h.007c5.523 0 9.997-4.478 9.997-10s-4.481-10-10.004-10z"/><path d="m171.951 427.866c-5.523 0-10 4.478-10 10s4.477 10 10 10h.007c5.523 0 9.997-4.478 9.997-10s-4.481-10-10.004-10z"/><path d="m179.076 353.991c-5.523 0-10 4.478-10 10s4.477 10 10 10h.007c5.523 0 9.997-4.478 9.997-10s-4.481-10-10.004-10z"/><path d="m165.409 83.798c5.523 0 10-4.478 10-10s-4.477-10-10-10h-.007c-5.523 0-9.996 4.478-9.996 10s4.48 10 10.003 10z"/></svg>