<svg id="Layer_1" enable-background="new 0 0 512 512" height="512" viewBox="0 0 512 512" width="512" xmlns="http://www.w3.org/2000/svg"><path d="m492 216h-20.001v-25c0-19.299-15.701-35-35-35-5.381 0-10.481 1.223-15.041 3.402-.838-18.559-16.196-33.402-34.959-33.402-19.299 0-35 15.701-35 35v55h-.001-191.996v-55c0-19.299-15.701-35-35-35-18.762 0-34.123 14.839-34.964 33.396-4.558-2.176-9.658-3.396-15.036-3.396-19.299 0-35 15.701-35 35v25h-.001-20.001c-11.028 0-20 8.972-20 20v40c0 11.028 8.972 20 20 20h20.001.001v25c0 19.299 15.701 35 35 35 5.378 0 10.479-1.22 15.036-3.396.841 18.557 16.202 33.396 34.964 33.396 19.299 0 35-15.701 35-35v-55h191.996.001v55c0 19.299 15.701 35 35 35 18.763 0 34.121-14.843 34.959-33.402 4.559 2.179 9.659 3.402 15.041 3.402 19.299 0 35-15.701 35-35v-25h20.001c11.028 0 20-8.972 20-20v-40c0-11.028-8.972-20-20-20zm-451.999 60h-20.001v-40h20.001.001zm100.001 75c0 8.271-6.729 15-15 15s-15-6.729-15-15v-30-40c0-5.522-4.478-10-10-10s-10 4.478-10 10v40c0 8.271-6.729 15-15 15s-15-6.729-15-15v-130c0-8.271 6.729-15 15-15s15 6.729 15 15c0 5.522 4.478 10 10 10s10-4.478 10-10v-30c0-8.271 6.729-15 15-15s15 6.729 15 15zm211.996-75h-191.996v-40h191.996.001zm50.001 75c0 8.271-6.729 15-15 15s-15-6.729-15-15v-190c0-8.271 6.729-15 15-15s15 6.729 15 15zm50-30c0 8.271-6.729 15-15 15s-15-6.729-15-15v-130c0-8.271 6.729-15 15-15s15 6.729 15 15zm40.001-45h-20.001v-40h20.001z"/><path d="m100.002 226c-5.522 0-10 4.48-10 10.003s4.478 10 10 10 10-4.478 10-10v-.007c0-5.522-4.478-9.996-10-9.996z"/></svg>