<?xml version="1.0" encoding="iso-8859-1"?>
<!-- Uploaded to: SVG Repo, www.svgrepo.com, Generator: SVG Repo Mixer Tools -->
<!DOCTYPE svg PUBLIC "-//W3C//DTD SVG 1.1//EN" "http://www.w3.org/Graphics/SVG/1.1/DTD/svg11.dtd">
<svg fill="#000000" version="1.1" id="Capa_1" xmlns="http://www.w3.org/2000/svg" xmlns:xlink="http://www.w3.org/1999/xlink" 
	 width="800px" height="800px" viewBox="0 0 368.646 368.646"
	 xml:space="preserve">
<g>
	<g>
		<path d="M61.173,248.34c-15.39,0-27.916,12.508-27.916,27.929c0,15.402,12.526,27.946,27.916,27.946
			c15.396,0,27.929-12.544,27.929-27.946C89.102,260.848,76.57,248.34,61.173,248.34z"/>
	</g>
	<g>
		<path d="M295.52,248.34c-15.396,0-27.917,12.508-27.917,27.929c0,15.402,12.521,27.946,27.917,27.946
			c15.408,0,27.928-12.544,27.928-27.946C323.448,260.848,310.928,248.34,295.52,248.34z"/>
	</g>
	<g>
		<path d="M134.135,101.841c0-4.653-3.78-8.448-8.431-8.448c-4.648,0-8.428,3.795-8.428,8.448v13.22h16.853L134.135,101.841
			L134.135,101.841z"/>
	</g>
	<g>
		<path d="M368.646,122.647l-270.525,0.168c-14.652,0-29.946,19.498-44.727,38.355c-13.388,17.063-26.021,33.173-38.866,35.534
			c-15.694,2.882-16.24,47.161-12.829,76.303h17.765c1.672-21.575,19.78-38.641,41.805-38.641c22.014,0,40.103,17.065,41.77,38.641
			h150.477c1.663-21.575,19.756-38.641,41.775-38.641c22.002,0,40.094,17.065,41.764,38.641h31.471l-0.18-97.085L368.646,122.647z
			 M133.853,202.59H110.08v-6.521h23.773V202.59z M137.125,187.908H43.168l50.563-57.049h43.394V187.908z M278.394,190.34h-22.933
			v22.885h-13.036V190.34h-22.836v-13.052h22.836v-22.875h13.036v22.875h22.933V190.34z M364.25,256.176h-12.526v-30.443h12.526
			V256.176z"/>
	</g>
	<path d="M93.287,82.662l14.526,9.631l-3.591,5.422l-14.526-9.629L93.287,82.662z M157.773,82.656l3.603,5.419l-14.511,9.659
		l-3.605-5.417L157.773,82.656z M122.447,64.431h6.524V82.19h-6.524V64.431z"/>
</g>
</svg>