<?xml version="1.0" encoding="iso-8859-1"?>
<!-- Uploaded to: SVG Repo, www.svgrepo.com, Generator: SVG Repo Mixer Tools -->
<svg fill="#000000" height="800px" width="800px" version="1.1" id="Layer_1" xmlns="http://www.w3.org/2000/svg" xmlns:xlink="http://www.w3.org/1999/xlink" 
	 viewBox="0 0 499.996 499.996" xml:space="preserve">
<g>
	<g>
		<path d="M484.376,89.876c-8.612,0-15.624,7.004-15.624,15.624v42.94H151.876H125.28l-4.18-1.632
			c2.272-1.696,4.108-3.972,5.212-6.756c1.532-3.884,1.46-8.124-0.204-11.952c-1.66-3.832-4.716-6.772-8.592-8.308L55.744,95.42
			c-1.84-0.724-3.764-1.088-5.732-1.088c-6.46,0-12.168,3.884-14.544,9.892c-1.04,2.648-1.008,5.404-0.608,8.032l-3.608-1.54V105.5
			c0-8.62-7.008-15.624-15.624-15.624C7.012,89.876,0,96.88,0,105.5v82.196c0,8.616,6.54,15.432,15.156,15.432h27.812v11.912
			c0,2.16,1.288,3.716,3.444,3.716H452.74c2.16,0,4.288-1.556,4.288-3.716v-11.912h26.876c8.616,0,16.092-6.816,16.092-15.432V105.5
			C500,96.88,492.988,89.876,484.376,89.876z"/>
	</g>
</g>
<g>
	<g>
		<path d="M413.484,347.772c-5.336,0-10.32,1.4-14.712,3.768c-0.556-0.412-1.128-0.8-1.764-1.12L275.38,289.148l139.776-70.396H363
			L249.304,275.94l-113.7-57.184H83.448l139.776,70.396l-122.212,61.516c-0.432,0.216-0.808,0.528-1.204,0.788
			c-4.368-2.332-9.316-3.692-14.604-3.692c-17.228,0-31.244,14.024-31.244,31.252c0,17.224,14.016,31.1,31.244,31.1
			c13.016,0,24.188-7.768,28.876-19.488h270.532c4.688,11.72,15.86,19.492,28.876,19.492c17.228,0,31.244-13.948,31.244-31.172
			C444.728,361.72,430.712,347.772,413.484,347.772z M119.872,367.192l129.432-65.096l129.424,65.096H119.872z"/>
	</g>
</g>
</svg>