<?xml version="1.0" encoding="iso-8859-1"?>
<!-- Uploaded to: SVG Repo, www.svgrepo.com, Generator: SVG Repo Mixer Tools -->
<svg fill="#000000" height="800px" width="800px" version="1.1" id="Layer_1" xmlns="http://www.w3.org/2000/svg" xmlns:xlink="http://www.w3.org/1999/xlink" 
	 viewBox="0 0 512 512" xml:space="preserve">
<g>
	<g>
		<path d="M437.016,74.979C388.663,26.628,324.377,0,256,0S123.337,26.628,74.984,74.979C26.63,123.331,0,187.619,0,256
			c0,68.37,26.63,132.653,74.984,181.01C123.34,485.368,187.626,512,256,512s132.66-26.632,181.016-74.99
			C485.37,388.653,512,324.37,512,256C512,187.619,485.37,123.331,437.016,74.979z M256,491.922
			C125.912,491.922,20.078,386.088,20.078,256S125.912,20.078,256,20.078S491.922,125.912,491.922,256S386.088,491.922,256,491.922z
			"/>
	</g>
</g>
<g>
	<g>
		<path d="M396.549,189.742h-74.29v-74.291c0-5.545-4.495-10.039-10.039-10.039H199.78c-5.545,0-10.039,4.495-10.039,10.039v74.29
			h-74.29c-5.545,0-10.039,4.495-10.039,10.039V312.22c0,5.545,4.495,10.039,10.039,10.039h74.29v74.29
			c0,5.545,4.495,10.039,10.039,10.039H312.22c5.545,0,10.039-4.495,10.039-10.038v-74.29h74.29c5.545,0,10.039-4.495,10.039-10.039
			V199.781C406.588,194.237,402.094,189.742,396.549,189.742z M386.51,302.18h-74.29c-5.545,0-10.039,4.495-10.039,10.039v74.29
			H209.82v-74.289c0-5.545-4.495-10.039-10.039-10.039h-74.29v-92.361h74.29c5.545,0,10.039-4.495,10.039-10.039V125.49h92.361
			v74.29c0,5.545,4.495,10.039,10.039,10.039h74.29V302.18z"/>
	</g>
</g>
<g>
	<g>
		<path d="M339.162,55.675c-26.38-10.964-54.36-16.523-83.162-16.523c-5.545,0-10.039,4.495-10.039,10.039
			c0,5.545,4.495,10.039,10.039,10.039c26.144,0,51.531,5.042,75.457,14.986c1.26,0.523,2.565,0.771,3.849,0.771
			c3.934,0,7.67-2.328,9.273-6.189C346.707,63.679,344.282,57.804,339.162,55.675z"/>
	</g>
</g>
<g>
	<g>
		<path d="M443.859,147.621c-18.393-31.814-44.766-58.643-76.268-77.585c-4.752-2.857-10.919-1.322-13.777,3.429
			c-2.857,4.752-1.321,10.92,3.43,13.777c59.815,35.966,95.524,99.053,95.524,168.758c0,5.545,4.495,10.039,10.039,10.039
			s10.039-4.495,10.039-10.039C472.847,217.899,462.824,180.422,443.859,147.621z"/>
	</g>
</g>
</svg>