<?xml version="1.0" encoding="iso-8859-1"?>
<!-- Uploaded to: SVG Repo, www.svgrepo.com, Generator: SVG Repo Mixer Tools -->
<svg height="800px" width="800px" version="1.1" id="Layer_1" xmlns="http://www.w3.org/2000/svg" xmlns:xlink="http://www.w3.org/1999/xlink" 
	 viewBox="0 0 512 512" xml:space="preserve">
<path style="fill:#E2E2E2;" d="M256,512c141.392,0,256-114.608,256-256S397.392,0,256,0S0,114.608,0,256S114.608,512,256,512z"/>
<g>
	<path style="fill:#FFFFFF;" d="M235.152,394.128c14.576,0,26.416-11.76,26.624-26.272h-53.248
		C208.752,382.384,220.576,394.128,235.152,394.128z"/>
	<path style="fill:#FFFFFF;" d="M78,394.128c14.576,0,26.416-11.76,26.624-26.272H51.376C51.6,382.384,63.44,394.128,78,394.128z"/>
	<circle style="fill:#FFFFFF;" cx="424.496" cy="367.472" r="26.72"/>
	<path style="fill:#FFFFFF;" d="M360.528,178.528v165.328h19.392l0,0c8.512-16.032,25.168-27.072,44.576-27.072
		s36.064,11.04,44.576,27.072l0,0h18.752v-73.552l-57.344-91.792L360.528,178.528L360.528,178.528z M379.184,233.392V196.64h40.32
		l20,36.752H379.184z"/>
</g>
<path d="M261.776,367.872c-0.224,14.512-12.064,26.272-26.624,26.272s-26.4-11.76-26.624-26.272h-24
	c0.224,27.792,22.784,50.272,50.624,50.272s50.416-22.48,50.624-50.272H261.776z"/>
<path d="M104.624,367.872C104.4,382.384,92.56,394.144,78,394.144s-26.416-11.76-26.624-26.272h-24
	C27.6,395.664,50.16,418.144,78,418.144s50.416-22.48,50.624-50.272H104.624z"/>
<path d="M336.528,154.528v213.328h37.344c0-0.128-0.048-0.256-0.048-0.4c0,27.984,22.688,50.672,50.672,50.672
	s50.672-22.688,50.672-50.672c0,0.128-0.032,0.256-0.048,0.4h36.704V263.424l-68.032-108.912L336.528,154.528L336.528,154.528z
	 M487.84,343.872h-18.752l0,0c-8.512-16.032-25.168-27.072-44.576-27.072s-36.064,11.04-44.576,27.072l0,0h-19.392V178.528h69.968
	l57.344,91.792v73.552H487.84z M424.496,394.176c-14.752,0-26.72-11.952-26.72-26.72s11.968-26.72,26.72-26.72
	s26.72,11.952,26.72,26.72S439.248,394.176,424.496,394.176z"/>
<polygon points="379.184,196.624 379.184,233.392 439.504,233.392 419.504,196.624 "/>
<path style="fill:#ED1C24;" d="M0.16,367.872h27.216h24h53.248h24h55.888h24h53.248h24h26.592v-274H0.16V367.872z"/>
<g>
	<path style="fill:#FFFFFF;" d="M156.096,324.672c51.504,0,93.392-42.16,93.392-93.968c0-51.824-41.888-93.984-93.392-93.984
		c-51.488,0-93.376,42.16-93.376,93.984C62.72,282.512,104.608,324.672,156.096,324.672z M156.096,152.72
		c42.672,0,77.392,34.992,77.392,77.984s-34.72,77.968-77.392,77.968S78.72,273.68,78.72,230.704
		C78.72,187.696,113.424,152.72,156.096,152.72z"/>
	<polygon style="fill:#FFFFFF;" points="200.624,263.76 164.096,227.376 164.096,175.84 148.096,175.84 148.096,234.032 
		189.344,275.104 	"/>
</g>
<path style="fill:#ED1C24;" d="M156.096,308.672c42.672,0,77.392-34.992,77.392-77.968c0-43.008-34.72-77.984-77.392-77.984
	S78.72,187.696,78.72,230.704C78.72,273.68,113.424,308.672,156.096,308.672z M148.096,175.84h16v51.536l36.528,36.384
	l-11.28,11.344l-41.248-41.072V175.84z"/>
</svg>