<?xml version="1.0" encoding="iso-8859-1"?>
<!-- Uploaded to: SVG Repo, www.svgrepo.com, Generator: SVG Repo Mixer Tools -->
<svg height="800px" width="800px" version="1.1" id="Layer_1" xmlns="http://www.w3.org/2000/svg" xmlns:xlink="http://www.w3.org/1999/xlink" 
	 viewBox="0 0 511.996 511.996" xml:space="preserve">
<g>
	<path style="fill:#EE8472;" d="M511.996,297.005V224.99v-26.483c-18.397-83.315-53.822-120.558-111.369-123.366l-74.946,0.406
		c-9.622-0.344-17.708,7.168-18.061,16.79l-7.477,201.772c-0.38,10.461,7.998,19.156,18.467,19.156h177.126
		C504.713,313.265,511.996,305.983,511.996,297.005"/>
	<polygon style="fill:#B1D3F0;" points="450.202,207.337 361.927,189.682 361.927,136.716 450.202,136.716 	"/>
	<polygon style="fill:#FFD479;" points="476.685,286.785 511.996,286.785 511.996,242.647 476.685,242.647 	"/>
	<g>
		<path style="fill:#DB776A;" d="M379.582,251.475h-17.655c-4.882,0-8.828-3.955-8.828-8.828c0-4.873,3.946-8.828,8.828-8.828
			h17.655c4.882,0,8.828,3.955,8.828,8.828C388.409,247.52,384.463,251.475,379.582,251.475"/>
		<path style="fill:#DB776A;" d="M290.368,75.545c-9.622-0.344-17.699,7.168-18.061,16.79l-7.468,201.772
			c-0.388,10.47,7.989,19.165,18.458,19.165h43.441c-10.47,0-18.847-8.695-18.458-19.165l7.468-201.772
			c0.362-9.622,8.439-17.134,18.061-16.79H290.368z"/>
	</g>
	<path style="fill:#797979;" d="M123.582,383.889c0-29.255-23.711-52.966-52.966-52.966s-52.966,23.711-52.966,52.966
		s23.711,52.966,52.966,52.966S123.582,413.143,123.582,383.889"/>
	<path style="fill:#C0C0C0;" d="M70.616,401.544c-9.737,0-17.655-7.918-17.655-17.655c0-9.737,7.918-17.655,17.655-17.655
		s17.655,7.918,17.655,17.655C88.271,393.626,80.353,401.544,70.616,401.544"/>
	<path style="fill:#797979;" d="M441.375,383.889c0-29.255-23.711-52.966-52.966-52.966c-29.255,0-52.966,23.711-52.966,52.966
		s23.711,52.966,52.966,52.966C417.664,436.854,441.375,413.143,441.375,383.889"/>
	<path style="fill:#C0C0C0;" d="M388.409,401.544c-9.737,0-17.655-7.918-17.655-17.655c0-9.737,7.918-17.655,17.655-17.655
		c9.737,0,17.655,7.918,17.655,17.655C406.065,393.626,398.146,401.544,388.409,401.544"/>
	<path style="fill:#636363;" d="M56.823,304.44C25.441,304.44,0,329.882,0,361.264v22.625h17.655
		c0-29.255,23.711-52.966,52.957-52.966c29.255,0,52.966,23.711,52.966,52.966h17.664V304.44H56.823z"/>
	<g>
		<path style="fill:#A9A9A9;" d="M308.961,345.917c0-22.908,18.573-41.472,41.472-41.472H141.237v52.966h167.724V345.917z"/>
		<path style="fill:#A9A9A9;" d="M441.375,304.44v2.904c15.475,6.02,26.483,20.966,26.483,38.568v11.493h35.31l5.508-33.042
			c1.739-10.425-6.303-19.924-16.878-19.924H441.375z"/>
	</g>
	<path style="fill:#636363;" d="M426.381,304.44h-75.944c-22.908,0-41.481,18.573-41.481,41.472v37.976h26.483
		c0-29.255,23.72-52.966,52.966-52.966c29.255,0,52.966,23.711,52.966,52.966h26.483v-37.976
		C467.853,323.014,449.289,304.44,426.381,304.44"/>
	<g>
		<polygon style="fill:#797979;" points="132.409,304.44 167.72,304.44 167.72,269.13 132.409,269.13 		"/>
		<polygon style="fill:#797979;" points="97.099,304.44 132.409,304.44 132.409,269.13 97.099,269.13 		"/>
	</g>
</g>
</svg>