<?xml version="1.0" encoding="iso-8859-1"?>
<!-- Uploaded to: SVG Repo, www.svgrepo.com, Generator: SVG Repo Mixer Tools -->
<svg fill="#000000" version="1.1" id="Layer_1" xmlns="http://www.w3.org/2000/svg" xmlns:xlink="http://www.w3.org/1999/xlink" 
	 viewBox="0 0 512 512" xml:space="preserve">
<g>
	<g>
		<g>
			<path d="M375.932,264.068H136.068v47.765h239.863V264.068z M360.182,296.084H151.818v-16.266h208.364V296.084z"/>
			<polygon points="0,15.943 0,351.854 143.943,351.854 143.943,336.105 15.749,336.105 15.749,31.693 496.25,31.693 
				496.25,336.105 368.057,336.105 368.057,351.854 512,351.854 512,15.943 			"/>
			<polygon points="408.206,103.729 408.206,280.076 384.065,280.076 384.065,295.826 423.956,295.826 423.956,87.979 
				88.044,87.979 88.044,295.826 127.935,295.826 127.935,280.076 103.794,280.076 103.794,103.729 			"/>
			<path d="M344.175,336.105h-0.001h-16.267v-16.137h-15.75v16.137h-16.266v-16.137h-15.75v16.137h-16.266v-16.137h-15.75v16.137
				h-16.267v-16.137h-15.75v16.137h-16.267v-16.137h-15.75v16.137h-16.267v-16.137h-15.75v176.089h15.75v-16.138h16.267v16.138
				h15.75v-16.138h16.267v16.138h15.75v-16.138h16.267v16.138h15.75v-16.138h16.266v16.138h15.75v-16.138h16.267v16.138h15.75
				v-16.138h16.267v16.138h15.75V319.968h-15.75V336.105z M184.093,464.169h-16.267v-16.267h16.267V464.169z M184.093,432.153
				h-16.267v-16.266h16.267V432.153z M184.093,400.137h-16.267V383.87h16.267V400.137z M184.093,368.12h-16.267v-16.266h16.267
				V368.12z M216.11,464.169h-16.267v-16.267h16.267V464.169z M216.11,432.153h-16.267v-16.266h16.267V432.153z M216.11,400.137
				h-16.267V383.87h16.267V400.137z M216.11,368.12h-16.267v-16.266h16.267V368.12z M248.125,464.169h-16.267v-16.267h16.267
				V464.169z M248.125,432.153h-16.267v-16.266h16.267V432.153z M248.125,400.137h-16.267V383.87h16.267V400.137z M248.125,368.12
				h-16.267v-16.266h16.267V368.12z M280.142,464.169h-16.266v-16.267h16.266V464.169z M280.142,432.153h-16.266v-16.266h16.266
				V432.153z M280.142,400.137h-16.266V383.87h16.266V400.137z M280.142,368.12h-16.266v-16.266h16.266V368.12z M312.159,464.169
				h-0.001h-16.266v-16.267h16.267V464.169z M312.159,432.153h-0.001h-16.266v-16.266h16.267V432.153z M312.159,400.137h-0.001
				h-16.266V383.87h16.267V400.137z M312.159,368.12h-0.001h-16.266v-16.266h16.267V368.12z M344.174,464.169h-16.267v-16.267
				h16.267V464.169z M344.174,432.153h-16.267v-16.266h16.267V432.153z M344.174,400.137h-16.267V383.87h16.267V400.137z
				 M344.174,368.12h-16.267v-16.266h16.267V368.12z"/>
			<rect x="39.891" y="47.959" width="64.032" height="15.75"/>
			<rect x="119.927" y="47.959" width="16.008" height="15.75"/>
			<rect x="151.951" y="47.959" width="16.008" height="15.75"/>
		</g>
	</g>
</g>
</svg>