<?xml version="1.0" encoding="utf-8"?>
<!-- Uploaded to: SVG Repo, www.svgrepo.com, Generator: SVG Repo Mixer Tools -->
<!DOCTYPE svg PUBLIC "-//W3C//DTD SVG 1.1//EN" "http://www.w3.org/Graphics/SVG/1.1/DTD/svg11.dtd">
<svg fill="#000000" width="800px" height="800px" viewBox="0 0 1000 1000" version="1.1" xmlns="http://www.w3.org/2000/svg" xmlns:xlink="http://www.w3.org/1999/xlink"  enable-background="new 0 0 1000 1000" xml:space="preserve">

<g>
<g transform="translate(0.000000,511.000000) scale(0.100000,-0.100000)">
<path d="M4663.9,5007.5c-996.1-89.1-1835.8-408-2628-1000.1c-249.5-186.2-748.6-685.2-934.7-934.7C560.6,2347.9,253.6,1599.3,124.9,692.3C87.3,421,93.2-268.2,136.8-555.3c126.7-843.6,447.6-1608.1,964.4-2301.2c186.2-249.5,685.2-748.6,934.7-934.7c689.2-514.9,1461.5-837.7,2301.2-964.4c328.7-49.5,998.1-49.5,1326.9,0c839.7,126.7,1612,449.5,2301.2,964.4c249.5,186.2,748.6,685.2,934.7,934.7C9309.8-2306,9593-1721.8,9753.4-1090C9870.3-630.6,9900-385,9900,108.1c0,493.1-29.7,738.7-146.6,1198.1c-160.4,631.7-443.6,1216-853.5,1766.5c-186.2,249.5-685.2,748.6-934.7,934.7c-689.2,514.9-1467.5,841.7-2291.3,962.5C5456,5001.6,4850,5023.4,4663.9,5007.5z M5693.7,4653c982.2-150.5,1877.4-602,2562.6-1289.2c699.1-703,1136.7-1578.4,1293.2-2582.4c49.5-318.8,49.5-1027.8,0-1346.7c-130.7-839.7-461.4-1598.2-974.4-2227.9c-726.8-893.1-1736.8-1467.4-2901.2-1647.7c-318.9-49.5-1027.8-49.5-1346.7,0c-1002.1,156.5-1887.3,598.1-2582.4,1293.2C1049.7-2452.5,608.1-1569.3,451.6-565.2c-49.5,318.9-49.5,1027.8,0,1346.7c128.7,829.8,449.6,1566.5,958.5,2214.1c148.5,186.2,516.9,554.5,709,707c507,404,1142.7,714.9,1774.4,869.4c182.2,43.6,487.2,95.1,720.9,118.8C4786.7,4708.5,5493.7,4684.7,5693.7,4653z"/>
<path d="M4630.2,3888.6c-433.7-41.6-865.4-166.4-1283.3-372.3c-453.5-223.8-740.7-435.7-1099.1-806c-334.7-348.6-608-772.3-774.3-1194.2c-73.3-186.2-81.2-221.8-73.3-346.6c11.9-243.6,142.6-439.6,362.4-548.6c99-47.5,156.4-63.4,247.5-65.3c65.3-2,118.8-4,118.8-6c0-19.8-101-922.9-110.9-970.4c-7.9-49.5-21.8-67.3-63.4-77.2c-174.3-43.6-364.4-204-445.6-380.2c-33.7-71.3-43.6-130.7-43.6-261.4c0-166.3,2-170.3,122.8-415.9c409.9-827.8,1103.1-1485.3,1946.7-1843.7c271.3-114.9,520.8-77.2,728.8,110.9c118.8,106.9,202,283.2,202,429.7v114.9h534.7h534.7v-114.9c0-223.8,158.4-445.6,394.1-554.5c170.3-79.2,336.7-71.3,556.5,23.8c849.6,370.3,1528.8,1019.9,1938.8,1853.6c108.9,221.8,110.9,231.7,110.9,396.1c0,130.7-9.9,190.1-43.6,261.4c-81.2,176.3-271.3,336.7-445.6,380.2c-41.6,9.9-55.4,27.7-63.4,77.2c-9.9,47.5-110.9,950.6-110.9,970.4c0,2,53.5,4,118.8,6c91.1,2,148.5,17.8,247.5,65.3c219.8,108.9,350.5,305,362.4,548.6c7.9,124.8,0,160.4-73.3,346.6c-168.3,429.7-439.6,843.6-790.2,1208C6913.6,3579.7,5788.7,4001.5,4630.2,3888.6z M5458,3563.8c1128.8-148.5,2083.4-812,2618.1-1812c124.7-233.7,231.7-514.9,231.7-606c0-142.6-107-259.4-251.5-279.2c-41.6-5.9-512.9,53.5-1065.4,132.7c-966.4,136.7-992.2,142.6-1069.4,200c-156.5,114.9-338.7,213.9-495.1,269.3c-142.6,49.5-184.2,53.5-425.8,53.5s-283.2-4-425.8-53.5c-156.4-55.4-338.6-154.5-495.1-269.3c-77.2-57.4-103-63.4-1069.4-200C2457.8,920,1986.4,860.6,1944.8,866.6c-144.6,19.8-251.5,136.7-251.5,277.3c0,93.1,110.9,384.2,231.7,608c538.7,1000.1,1483.3,1659.5,2600.2,1812C4778.7,3597.5,5202.6,3599.5,5458,3563.8z M5372.9,1151.8c447.6-156.5,736.7-564.4,736.7-1043.7c0-352.5-142.6-635.7-449.6-895.1c-283.2-239.6-804-283.2-1170.4-97c-245.6,124.8-505,451.5-566.4,714.9c-146.5,619.8,219.8,1219.9,829.8,1358.5C4927.3,1229,5198.6,1213.1,5372.9,1151.8z M3715.3,706.2c-19.8-39.6-57.4-140.6-83.2-221.8c-63.4-202-63.4-560.4-2-752.5c23.8-69.3,37.6-130.7,33.7-134.7c-9.9-11.9-1315-71.3-1324.9-61.4c-9.9,7.9,105,1053.5,116.8,1063.4c9.9,9.9,1154.6,178.2,1233.8,180.2l63.4,2L3715.3,706.2z M6929.4,694.3c334.7-47.5,611.9-91.1,615.9-95.1c11.9-9.9,126.8-1055.5,116.9-1063.4c-9.9-11.9-1315,51.5-1326.9,61.4c-4,5.9,5.9,47.5,21.8,93.1c97.1,275.3,83.2,627.8-37.6,928.8c-57.4,140.6-61.4,162.4-31.7,162.4C6305.6,781.4,6594.7,741.8,6929.4,694.3z M3956.9-852.4l114.9-128.7l47.5-950.6c25.7-538.7,39.6-976.3,29.7-1008c-25.7-93.1-59.4-140.6-124.8-180.2c-99-61.4-221.8-51.5-413.9,31.7c-750.6,320.8-1378.3,920.9-1742.7,1665.5c-124.8,257.4-142.6,376.3-71.3,481.2c87.1,130.7,110.9,134.7,918.9,176.3c402,19.8,819.9,37.6,928.8,37.6l198,2L3956.9-852.4z M7200.7-763.3c903-45.5,914.9-47.5,1004-178.2c65.4-97,57.4-198-31.7-396.1c-336.7-752.5-972.4-1386.3-1730.8-1726.9c-172.3-77.2-233.7-95.1-324.8-95.1c-99,0-116.9,5.9-176.3,65.4c-35.6,35.6-73.3,97-85.2,138.6c-13.9,51.5-7.9,342.6,25.7,1023.9l45.5,950.6l116.9,128.7l114.8,126.7l110.9,2C6331.4-723.7,6751.2-741.5,7200.7-763.3z M4531.2-1228.7c202-75.2,435.7-103,639.7-73.3c93.1,13.9,227.7,47.5,299,73.3c71.3,27.7,130.7,49.5,132.7,49.5c0,0-9.9-281.2-25.7-623.8l-27.7-623.8h-548.6H4452l-27.7,623.8c-15.8,342.6-25.7,623.8-25.7,623.8C4400.5-1179.2,4459.9-1200.9,4531.2-1228.7z"/>
<path d="M4834.2,880.4c-227.7-57.4-445.6-241.6-552.5-471.3c-55.5-116.9-63.4-152.5-63.4-301c0-148.5,7.9-184.2,63.4-301c87.1-186.2,215.9-316.9,400-407.9c136.6-67.3,162.4-73.3,318.8-73.3c156.4,0,182.2,5.9,318.8,73.3c184.2,91.1,312.9,221.8,400,407.9c55.4,116.8,63.4,152.5,63.4,301c0,148.5-7.9,184.2-63.4,301c-130.7,277.3-390.2,463.4-669.4,481.2C4972.8,894.3,4877.8,890.3,4834.2,880.4z M5180.8,553.7c235.7-83.2,354.5-364.4,265.4-627.8c-105-303-546.6-394.1-786.2-160.4c-178.2,174.3-178.2,510.9,0,685.2C4788.7,575.5,4998.6,617.1,5180.8,553.7z"/>
</g>
</g>
</svg>