<?xml version="1.0" encoding="iso-8859-1"?>
<!-- Generator: Adobe Illustrator 25.2.0, SVG Export Plug-In . SVG Version: 6.00 Build 0)  -->
<svg version="1.1" xmlns="http://www.w3.org/2000/svg" xmlns:xlink="http://www.w3.org/1999/xlink" x="0px" y="0px"
	 viewBox="0 0 2048 2048" style="enable-background:new 0 0 2048 2048;" xml:space="preserve">
<g id="_x31_4216_-_Auditorium">
	<g>
		<g>
			<path style="fill:#212121;" d="M1624,1320.8H423.929c-13.255,0-24-10.745-24-24V280c0-13.255,10.745-24,24-24H1624
				c13.255,0,24,10.745,24,24v1016.8C1648,1310.055,1637.255,1320.8,1624,1320.8z M447.929,1272.8H1600V304H447.929V1272.8z"/>
		</g>
		<g>
			<g>
				<path style="fill:#212121;" d="M544,544c-79.402,0-144-64.598-144-144V280c0-13.255,10.745-24,24-24h240
					c13.255,0,24,10.745,24,24v120C688,479.402,623.402,544,544,544z M448,304v96c0,52.935,43.065,96,96,96s96-43.065,96-96v-96H448
					z"/>
			</g>
			<g>
				<path style="fill:#212121;" d="M784,544c-79.402,0-144-64.598-144-144V280c0-13.255,10.745-24,24-24h240
					c13.255,0,24,10.745,24,24v120C928,479.402,863.402,544,784,544z M688,304v96c0,52.935,43.065,96,96,96s96-43.065,96-96v-96H688
					z"/>
			</g>
			<g>
				<path style="fill:#212121;" d="M1024,544c-79.402,0-144-64.598-144-144V280c0-13.255,10.745-24,24-24h240
					c13.255,0,24,10.745,24,24v120C1168,479.402,1103.402,544,1024,544z M928,304v96c0,52.935,43.065,96,96,96s96-43.065,96-96v-96
					H928z"/>
			</g>
			<g>
				<path style="fill:#212121;" d="M1264,544c-79.402,0-144-64.598-144-144V280c0-13.255,10.745-24,24-24h240
					c13.255,0,24,10.745,24,24v120C1408,479.402,1343.402,544,1264,544z M1168,304v96c0,52.935,43.065,96,96,96s96-43.065,96-96v-96
					H1168z"/>
			</g>
			<g>
				<path style="fill:#212121;" d="M1504,544c-79.402,0-144-64.598-144-144V280c0-13.255,10.745-24,24-24h240
					c13.255,0,24,10.745,24,24v120C1648,479.402,1583.402,544,1504,544z M1408,304v96c0,52.935,43.065,96,96,96s96-43.065,96-96v-96
					H1408z"/>
			</g>
		</g>
		<g>
			<path style="fill:#212121;" d="M1569.537,1320.803c-4.345,0-8.742-1.179-12.697-3.651
				c-123.06-76.912-186.181-164.468-187.611-260.237c-0.58-38.875,9.221-78.711,29.131-118.402
				c15.506-30.909,37.169-61.814,64.389-91.856c15.642-17.263,31.268-32.213,45.147-44.473
				c-29.668-5.748-57.998-15.74-84.699-29.906c-36.998-19.628-71.068-47.374-101.265-82.467
				c-52.111-60.562-80.151-127.793-92.228-162.479c-4.357-12.518,2.257-26.199,14.774-30.557
				c12.521-4.36,26.198,2.256,30.558,14.774C1295.327,569.833,1376.536,760,1569.56,760c10.574,0,19.902,6.92,22.969,17.04
				c3.066,10.119-0.852,21.053-9.646,26.923c-1.662,1.113-167.841,114.038-165.656,252.381
				c1.237,78.373,56.77,152.427,165.054,220.104c11.24,7.024,14.657,21.831,7.632,33.071
				C1585.358,1316.804,1577.537,1320.803,1569.537,1320.803z"/>
		</g>
		<g>
			<path style="fill:#212121;" d="M478.383,1320.803c-8.001,0-15.822-3.998-20.375-11.283c-7.025-11.24-3.608-26.047,7.632-33.071
				c108.284-67.679,163.816-141.731,165.054-220.104c2.185-138.343-163.994-251.268-165.673-252.392
				c-8.779-5.88-12.688-16.816-9.615-26.926C458.479,766.917,467.793,760,478.36,760c193.025,0,274.233-190.167,294.524-248.451
				c4.358-12.518,18.037-19.134,30.557-14.774c12.518,4.358,19.132,18.039,14.774,30.557
				c-12.075,34.686-40.115,101.917-92.227,162.479c-30.197,35.093-64.267,62.839-101.265,82.467
				c-26.701,14.166-55.032,24.158-84.7,29.906c13.88,12.26,29.506,27.209,45.147,44.473c27.22,30.042,48.884,60.947,64.389,91.856
				c19.911,39.691,29.711,79.527,29.131,118.402c-1.43,95.77-64.552,183.325-187.611,260.237
				C487.125,1319.624,482.727,1320.803,478.383,1320.803z"/>
		</g>
		<g>
			<path style="fill:#212121;" d="M627.165,1792h-198.4c-13.255,0-24-10.745-24-24v-102.4c0-66.168,53.832-120,120-120h6.4
				c66.168,0,120,53.832,120,120V1768C651.165,1781.255,640.419,1792,627.165,1792z M452.765,1744h150.4v-78.4
				c0-39.701-32.299-72-72-72h-6.4c-39.701,0-72,32.299-72,72V1744z"/>
		</g>
		<g>
			<g>
				<path style="fill:#212121;" d="M726.365,1593.6c-13.255,0-24-10.745-24-24V1495.2c0-20.093-7.821-38.974-22.023-53.167
					c-14.203-14.212-33.085-22.033-53.177-22.033c-41.465,0-75.2,33.734-75.2,75.2v74.399c0,13.255-10.745,24-24,24
					s-24-10.745-24-24V1495.2c0-67.933,55.267-123.2,123.2-123.2c32.919,0,63.858,12.818,87.119,36.093
					c23.264,23.249,36.082,54.188,36.082,87.107v74.399C750.365,1582.854,739.62,1593.6,726.365,1593.6z"/>
			</g>
			<g>
				<path style="fill:#212121;" d="M924.765,1593.6c-13.255,0-24-10.745-24-24V1495.2c0-20.092-7.821-38.974-22.022-53.167
					c-14.204-14.212-33.085-22.033-53.178-22.033c-41.465,0-75.2,33.734-75.2,75.2v74.399c0,13.255-10.745,24-24,24
					s-24-10.745-24-24V1495.2c0-67.933,55.267-123.2,123.2-123.2c32.919,0,63.858,12.817,87.119,36.092
					c23.264,23.25,36.082,54.189,36.082,87.108v74.399C948.765,1582.854,938.02,1593.6,924.765,1593.6z"/>
			</g>
			<g>
				<path style="fill:#212121;" d="M1123.165,1593.6c-13.255,0-24-10.745-24-24V1495.2c0-20.092-7.821-38.974-22.023-53.167
					c-14.203-14.212-33.085-22.033-53.177-22.033c-41.465,0-75.2,33.734-75.2,75.2v74.399c0,13.255-10.745,24-24,24
					s-24-10.745-24-24V1495.2c0-67.933,55.268-123.2,123.2-123.2c32.919,0,63.857,12.817,87.118,36.092
					c23.265,23.251,36.082,54.189,36.082,87.108v74.399C1147.165,1582.854,1136.42,1593.6,1123.165,1593.6z"/>
			</g>
			<g>
				<path style="fill:#212121;" d="M1321.564,1593.6c-13.255,0-24-10.745-24-24V1495.2c0-20.093-7.821-38.975-22.022-53.166
					c-14.203-14.213-33.085-22.034-53.178-22.034c-41.465,0-75.199,33.734-75.199,75.2v74.399c0,13.255-10.745,24-24,24
					s-24-10.745-24-24V1495.2c0-67.933,55.267-123.2,123.199-123.2c32.92,0,63.859,12.818,87.118,36.093
					c23.264,23.248,36.082,54.188,36.082,87.107v74.399C1345.564,1582.854,1334.819,1593.6,1321.564,1593.6z"/>
			</g>
			<g>
				<path style="fill:#212121;" d="M1519.965,1593.6c-13.255,0-24-10.745-24-24V1495.2c0-20.092-7.821-38.974-22.023-53.167
					c-14.203-14.212-33.085-22.033-53.177-22.033c-41.466,0-75.2,33.734-75.2,75.2v74.399c0,13.255-10.745,24-24,24
					s-24-10.745-24-24V1495.2c0-67.933,55.268-123.2,123.2-123.2c32.919,0,63.857,12.817,87.118,36.092
					c23.265,23.251,36.082,54.189,36.082,87.108v74.399C1543.965,1582.854,1533.22,1593.6,1519.965,1593.6z"/>
			</g>
		</g>
		<g>
			<path style="fill:#212121;" d="M825.564,1792h-198.4c-13.255,0-24-10.745-24-24v-102.4c0-66.168,53.832-120,120-120h6.4
				c66.168,0,120,53.832,120,120V1768C849.564,1781.255,838.819,1792,825.564,1792z M651.165,1744h150.4v-78.4
				c0-39.701-32.299-72-72-72h-6.4c-39.701,0-72,32.299-72,72V1744z"/>
		</g>
		<g>
			<path style="fill:#212121;" d="M1023.965,1792h-198.4c-13.255,0-24-10.745-24-24v-102.4c0-66.168,53.832-120,120-120h6.4
				c66.168,0,120,53.832,120,120V1768C1047.965,1781.255,1037.22,1792,1023.965,1792z M849.564,1744h150.4v-78.4
				c0-39.701-32.299-72-72-72h-6.4c-39.701,0-72,32.299-72,72V1744z"/>
		</g>
		<g>
			<path style="fill:#212121;" d="M1222.364,1792h-198.399c-13.255,0-24-10.745-24-24v-102.4c0-66.168,53.832-120,120-120h6.399
				c66.168,0,120,53.832,120,120V1768C1246.364,1781.255,1235.619,1792,1222.364,1792z M1047.965,1744h150.399v-78.4
				c0-39.701-32.299-72-72-72h-6.399c-39.701,0-72,32.299-72,72V1744z"/>
		</g>
		<g>
			<path style="fill:#212121;" d="M1420.765,1792h-198.4c-13.255,0-24-10.745-24-24v-102.4c0-66.168,53.832-120,120-120h6.4
				c66.168,0,120,53.832,120,120V1768C1444.765,1781.255,1434.02,1792,1420.765,1792z M1246.364,1744h150.4v-78.4
				c0-39.701-32.299-72-72-72h-6.4c-39.701,0-72,32.299-72,72V1744z"/>
		</g>
		<g>
			<path style="fill:#212121;" d="M1619.165,1792h-198.4c-13.255,0-24-10.745-24-24v-102.4c0-66.168,53.832-120,120-120h6.4
				c66.168,0,120,53.832,120,120V1768C1643.165,1781.255,1632.42,1792,1619.165,1792z M1444.765,1744h150.4v-78.4
				c0-39.701-32.299-72-72-72h-6.4c-39.701,0-72,32.299-72,72V1744z"/>
		</g>
		<g>
			<path style="fill:#212121;" d="M1695.757,1792H354.365c-13.255,0-24-10.745-24-24s10.745-24,24-24h1341.392
				c13.255,0,24,10.745,24,24S1709.012,1792,1695.757,1792z"/>
		</g>
		<g>
			<path style="fill:#212121;" d="M1432.245,1196.8H615.684c-13.255,0-24-10.745-24-24s10.745-24,24-24h816.561
				c13.255,0,24,10.745,24,24S1445.5,1196.8,1432.245,1196.8z"/>
		</g>
		<g>
			<g>
				<path style="fill:#212121;" d="M688,808H424c-13.255,0-24-10.745-24-24s10.745-24,24-24h264c13.255,0,24,10.745,24,24
					S701.255,808,688,808z"/>
			</g>
			<g>
				<path style="fill:#212121;" d="M1624,808h-264c-13.255,0-24-10.745-24-24s10.745-24,24-24h264c13.255,0,24,10.745,24,24
					S1637.255,808,1624,808z"/>
			</g>
		</g>
		<g>
			<path style="fill:#212121;" d="M1123.114,1196.801c-0.574,0-1.152-0.021-1.734-0.062c-13.221-0.944-23.173-12.428-22.229-25.649
				L1118.225,904h-188.45l19.074,267.09c0.944,13.222-9.008,24.705-22.229,25.649c-13.217,0.936-24.704-9.008-25.648-22.229
				l-20.91-292.8c-0.475-6.645,1.834-13.188,6.375-18.064C890.976,858.77,897.338,856,904,856h240c6.662,0,13.024,2.77,17.564,7.645
				c4.54,4.876,6.85,11.419,6.375,18.064l-20.91,292.8C1146.126,1187.148,1135.592,1196.801,1123.114,1196.801z"/>
		</g>
		<g>
			<path style="fill:#212121;" d="M1192,904H856c-13.255,0-24-10.745-24-24s10.745-24,24-24h336c13.255,0,24,10.745,24,24
				S1205.255,904,1192,904z"/>
		</g>
		<g>
			<path style="fill:#212121;" d="M1024,904c-13.255,0-24-10.745-24-24v-72c0-13.255,10.745-24,24-24s24,10.745,24,24v72
				C1048,893.255,1037.255,904,1024,904z"/>
		</g>
	</g>
</g>
<g id="Layer_1">
</g>
</svg>
