<?xml version="1.0" encoding="iso-8859-1"?>
<!-- Generator: Adobe Illustrator 25.2.0, SVG Export Plug-In . SVG Version: 6.00 Build 0)  -->
<svg version="1.1" xmlns="http://www.w3.org/2000/svg" xmlns:xlink="http://www.w3.org/1999/xlink" x="0px" y="0px"
	 viewBox="0 0 2048 2048" style="enable-background:new 0 0 2048 2048;" xml:space="preserve">
<g id="_x31_4229_-_Event_Hall">
	<g>
		<g>
			<g>
				<path style="fill:#212121;" d="M1697.971,1547.051H350.029c-13.255,0-24-10.745-24-24V284.67c0-13.255,10.745-24,24-24h1347.942
					c13.255,0,24,10.745,24,24v1238.381C1721.971,1536.306,1711.226,1547.051,1697.971,1547.051z M374.029,1499.051h1299.942V308.67
					H374.029V1499.051z"/>
			</g>
			<g>
				<path style="fill:#212121;" d="M1697.956,1547.052c-5.206,0-10.449-1.686-14.853-5.161
					c-174.97-138.083-258.798-281.021-249.156-424.845c3.445-51.402,19.048-102.614,46.373-152.215
					c21.54-39.099,50.38-77.274,85.717-113.463c23.031-23.586,45.727-43.182,65.062-58.44
					c-56.516-10.564-109.464-34.783-158.062-72.383c-52.885-40.916-100.546-97.643-141.661-168.604
					c-69.177-119.395-95.873-236.997-96.977-241.945c-2.883-12.938,5.269-25.762,18.206-28.646
					c12.931-2.883,25.754,5.264,28.643,18.194l0,0c0.258,1.149,26.492,116.251,92.224,229.304
					c85.725,147.437,194.902,222.194,324.5,222.194c10.815,0,20.294,7.233,23.148,17.665c2.855,10.432-1.62,21.484-10.928,26.991
					c-0.529,0.314-55.296,33.12-110.736,90.153c-49.981,51.418-110.962,133.866-117.633,234.644
					c-8.406,127.007,69.319,256.108,231.017,383.717c10.405,8.211,12.183,23.303,3.972,33.708
					C1712.075,1543.92,1705.051,1547.052,1697.956,1547.052z"/>
			</g>
			<g>
				<path style="fill:#212121;" d="M350.045,1547.052c-7.096,0.001-14.119-3.131-18.856-9.133
					c-8.211-10.405-6.433-25.497,3.972-33.708c161.697-127.608,239.422-256.71,231.016-383.717
					c-6.67-100.778-67.651-183.226-117.632-234.644c-55.44-57.034-110.206-89.839-110.753-90.164
					c-9.292-5.519-13.758-16.573-10.897-26.995s12.327-17.651,23.135-17.651c129.625,0,236.234-74.904,316.866-222.631
					c61.645-112.94,83.689-226.959,83.905-228.098c2.464-13.023,15.023-21.581,28.044-19.119
					c13.024,2.465,21.583,15.021,19.119,28.044c-0.938,4.952-23.704,122.657-88.936,242.168
					c-38.803,71.093-84.658,127.936-136.29,168.948c-47.429,37.674-99.645,61.948-155.87,72.544
					c19.343,15.262,42.05,34.867,65.096,58.468c35.337,36.189,64.177,74.364,85.717,113.463
					c27.326,49.601,42.928,100.813,46.374,152.215c9.641,143.823-74.187,286.762-249.156,424.845
					C360.494,1545.365,355.25,1547.052,350.045,1547.052z"/>
			</g>
			<g>
				<path style="fill:#212121;" d="M1500.97,1327.251H547.03c-13.255,0-24-10.745-24-24s10.745-24,24-24h953.939
					c13.255,0,24,10.745,24,24S1514.225,1327.251,1500.97,1327.251z"/>
			</g>
			<g>
				<path style="fill:#212121;" d="M876.498,539.095c-46.495,0-98.221-16.549-161.556-65.569l29.378-37.959
					c105.491,81.648,164.244,57.782,245.562,24.749c75.082-30.5,168.525-68.458,318.791-28.981
					c12.82,3.368,20.482,16.491,17.114,29.311c-3.367,12.82-16.485,20.483-29.311,17.114
					c-134.812-35.417-216.478-2.243-288.53,27.027C965.125,522.181,923.483,539.095,876.498,539.095z"/>
			</g>
		</g>
		<g>
			<g>
				<path style="fill:#212121;" d="M524.762,1796.67H325.067c-13.255,0-24-10.745-24-24v-53.771c0-66.168,53.832-120,120-120h7.695
					c66.168,0,120,53.832,120,120v53.771C548.762,1785.925,538.017,1796.67,524.762,1796.67z M349.067,1748.67h151.695v-29.771
					c0-39.701-32.299-72-72-72h-7.695c-39.701,0-72,32.299-72,72V1748.67z"/>
			</g>
			<g>
				<path style="fill:#212121;" d="M724.457,1796.67H524.762c-13.255,0-24-10.745-24-24v-53.771c0-66.168,53.832-120,120-120h7.695
					c66.168,0,120,53.832,120,120v53.771C748.457,1785.925,737.712,1796.67,724.457,1796.67z M548.762,1748.67h151.695v-29.771
					c0-39.701-32.299-72-72-72h-7.695c-39.701,0-72,32.299-72,72V1748.67z"/>
			</g>
			<g>
				<path style="fill:#212121;" d="M924.152,1796.67H724.457c-13.255,0-24-10.745-24-24v-53.771c0-66.168,53.832-120,120-120h7.695
					c66.168,0,120,53.832,120,120v53.771C948.152,1785.925,937.407,1796.67,924.152,1796.67z M748.457,1748.67h151.695v-29.771
					c0-39.701-32.299-72-72-72h-7.695c-39.701,0-72,32.299-72,72V1748.67z"/>
			</g>
			<g>
				<path style="fill:#212121;" d="M1123.848,1796.67H924.152c-13.255,0-24-10.745-24-24v-53.771c0-66.168,53.832-120,120-120h7.695
					c66.168,0,120,53.832,120,120v53.771C1147.848,1785.925,1137.103,1796.67,1123.848,1796.67z M948.152,1748.67h151.695v-29.771
					c0-39.701-32.299-72-72-72h-7.695c-39.701,0-72,32.299-72,72V1748.67z"/>
			</g>
			<g>
				<path style="fill:#212121;" d="M1323.543,1796.67h-199.695c-13.255,0-24-10.745-24-24v-53.771c0-66.168,53.832-120,120-120
					h7.695c66.168,0,120,53.832,120,120v53.771C1347.543,1785.925,1336.798,1796.67,1323.543,1796.67z M1147.848,1748.67h151.695
					v-29.771c0-39.701-32.299-72-72-72h-7.695c-39.701,0-72,32.299-72,72V1748.67z"/>
			</g>
			<g>
				<path style="fill:#212121;" d="M1523.238,1796.67h-199.695c-13.255,0-24-10.745-24-24v-53.771c0-66.168,53.832-120,120-120
					h7.695c66.168,0,120,53.832,120,120v53.771C1547.238,1785.925,1536.493,1796.67,1523.238,1796.67z M1347.543,1748.67h151.695
					v-29.771c0-39.701-32.299-72-72-72h-7.695c-39.701,0-72,32.299-72,72V1748.67z"/>
			</g>
			<g>
				<path style="fill:#212121;" d="M1722.933,1796.67h-199.694c-13.255,0-24-10.745-24-24v-53.771c0-66.168,53.832-120,120-120
					h7.695c66.168,0,119.999,53.832,119.999,120v53.771C1746.933,1785.925,1736.188,1796.67,1722.933,1796.67z M1547.238,1748.67
					h151.694v-29.771c0-39.701-32.299-72-71.999-72h-7.695c-39.701,0-72,32.299-72,72V1748.67z"/>
			</g>
		</g>
		<g>
			<path style="fill:#212121;" d="M1298.581,1322.394H749.419c-13.255,0-24-10.745-24-24v-149.771c0-13.255,10.745-24,24-24h549.162
				c13.255,0,24,10.745,24,24v149.771C1322.581,1311.648,1311.836,1322.394,1298.581,1322.394z M773.419,1274.394h501.162v-101.771
				H773.419V1274.394z"/>
		</g>
		<g>
			<path style="fill:#212121;" d="M1173.771,1172.622H874.229c-13.255,0-24-10.745-24-24V998.851c0-13.255,10.745-24,24-24h299.543
				c13.255,0,24,10.745,24,24v149.771C1197.771,1161.877,1187.026,1172.622,1173.771,1172.622z M898.229,1124.622h251.543v-101.771
				H898.229V1124.622z"/>
		</g>
	</g>
</g>
<g id="Layer_1">
</g>
</svg>
