<?xml version="1.0" encoding="iso-8859-1"?>
<!-- Generator: Adobe Illustrator 25.2.0, SVG Export Plug-In . SVG Version: 6.00 Build 0)  -->
<svg version="1.1" xmlns="http://www.w3.org/2000/svg" xmlns:xlink="http://www.w3.org/1999/xlink" x="0px" y="0px"
	 viewBox="0 0 2048 2048" style="enable-background:new 0 0 2048 2048;" xml:space="preserve">
<g id="_x31_4222_-_Candy">
	<g>
		<g>
			<g>
				<path style="fill:#212121;" d="M1133.441,1594.881h-301.03c-105.732,0-191.752-86.02-191.752-191.751v-110.897
					c0-105.731,86.02-191.751,191.752-191.751h301.03c105.732,0,191.752,86.02,191.752,191.751v110.897
					C1325.193,1508.861,1239.174,1594.881,1133.441,1594.881z M832.412,1148.481c-79.265,0-143.752,64.486-143.752,143.751v110.897
					c0,79.265,64.487,143.751,143.752,143.751h301.03c79.265,0,143.752-64.486,143.752-143.751v-110.897
					c0-79.265-64.487-143.751-143.752-143.751H832.412z"/>
			</g>
			<g>
				<path style="fill:#212121;" d="M988.519,1594.881h-11.184c-105.732,0-191.751-86.02-191.751-191.751v-110.897
					c0-105.731,86.02-191.751,191.751-191.751h11.184c105.731,0,191.751,86.02,191.751,191.751v110.897
					C1180.27,1508.861,1094.25,1594.881,988.519,1594.881z M977.334,1148.481c-79.265,0-143.751,64.486-143.751,143.751v110.897
					c0,79.265,64.487,143.751,143.751,143.751h11.184c79.265,0,143.751-64.486,143.751-143.751v-110.897
					c0-79.265-64.486-143.751-143.751-143.751H977.334z"/>
			</g>
			<g>
				<g>
					<path style="fill:#212121;" d="M332.891,1520.481h-19.564c-7.964,0-15.409-3.95-19.874-10.545s-5.368-14.975-2.41-22.368
						l29.004-72.512c6.95-17.375-0.717-37.54-17.454-45.909c-18.959-9.479-33.549-25.611-41.082-45.424
						c-7.533-19.813-7.346-41.563,0.526-61.243l29.004-72.513c3.645-9.112,12.47-15.087,22.284-15.087h23.612
						c118.992,0,234.657,34.228,334.488,98.983l6.293,4.082c11.12,7.213,14.287,22.075,7.074,33.195
						c-7.212,11.122-22.075,14.288-33.196,7.074l-6.292-4.082c-92.036-59.698-198.667-91.253-308.367-91.253h-7.363l-22.97,57.426
						c-6.95,17.374,0.717,37.54,17.455,45.909c18.958,9.479,33.548,25.61,41.081,45.424c7.533,19.812,7.346,41.562-0.526,61.243
						l-15.75,39.376c106.565-2.969,209.394-35.643,298.349-94.946c11.028-7.353,25.929-4.373,33.282,6.656
						c7.353,11.028,4.373,25.93-6.656,33.281C572.538,1484.785,454.64,1520.481,332.891,1520.481z"/>
				</g>
				<g>
					<path style="fill:#212121;" d="M660.526,1371.682h-173.6c-13.255,0-24-10.745-24-24s10.745-24,24-24h173.6
						c13.255,0,24,10.745,24,24S673.781,1371.682,660.526,1371.682z"/>
				</g>
			</g>
			<g>
				<g>
					<path style="fill:#212121;" d="M1656.66,1520.481h-19.565c-121.748,0-239.646-35.696-340.947-103.231
						c-11.029-7.352-14.009-22.253-6.656-33.281c7.352-11.027,22.251-14.011,33.281-6.656
						c88.956,59.304,191.785,91.978,298.35,94.946l-15.75-39.376c-7.873-19.681-8.06-41.431-0.526-61.243
						c7.532-19.813,22.122-35.945,41.082-45.425c16.736-8.368,24.403-28.534,17.454-45.908l-22.971-57.426h-7.363
						c-109.701,0-216.332,31.555-308.367,91.253l-6.295,4.083c-11.122,7.215-25.982,4.045-33.195-7.076s-4.044-25.982,7.076-33.195
						l6.294-4.082c99.83-64.755,215.494-98.982,334.487-98.982h23.612c9.813,0,18.639,5.975,22.283,15.087l29.005,72.513
						c7.872,19.681,8.059,41.43,0.526,61.243c-7.533,19.812-22.122,35.944-41.081,45.424c-16.738,8.369-24.405,28.534-17.455,45.909
						l29.005,72.512c2.958,7.394,2.055,15.773-2.409,22.368C1672.069,1516.531,1664.624,1520.481,1656.66,1520.481z"/>
				</g>
				<g>
					<path style="fill:#212121;" d="M1483.06,1371.682h-173.6c-13.255,0-24-10.745-24-24s10.745-24,24-24h173.6
						c13.255,0,24,10.745,24,24S1496.314,1371.682,1483.06,1371.682z"/>
				</g>
			</g>
		</g>
		<g>
			<g>
				<path style="fill:#212121;" d="M1312.003,975.007c-26.308,0-52.723-4.25-78.408-12.811
					c-62.641-20.88-113.401-64.905-142.931-123.963s-34.292-126.082-13.412-188.723c20.881-62.641,64.905-113.402,123.964-142.931
					c59.058-29.529,126.081-34.292,188.723-13.413c62.641,20.881,113.4,64.905,142.931,123.963
					c29.529,59.059,34.292,126.082,13.412,188.723l-22.769-7.589l22.769,7.589c-20.881,62.641-64.905,113.402-123.964,142.931
					C1387.475,966.205,1349.854,975.007,1312.003,975.007z M1311.92,528.464c-83.42,0-161.338,52.844-189.131,136.224
					c-34.734,104.203,21.782,217.236,125.985,251.97c50.477,16.826,104.486,12.989,152.077-10.808
					c47.591-23.795,83.066-64.7,99.893-115.177l0,0c34.734-104.203-21.782-217.236-125.985-251.97
					C1353.937,531.763,1332.752,528.464,1311.92,528.464z"/>
			</g>
			<g>
				<path style="fill:#212121;" d="M933.465,752.243c-10.55,0-21.143-1.704-31.442-5.138c-25.12-8.373-45.476-26.027-57.317-49.711
					c-11.841-23.683-13.751-50.56-5.378-75.68c6.042-18.127,16.919-33.774,31.405-45.53c-4.535-18.096-3.848-37.14,2.194-55.267
					c8.373-25.12,26.028-45.476,49.711-57.317h0c23.684-11.842,50.559-13.751,75.68-5.378c25.12,8.373,45.475,26.028,57.317,49.711
					l67.197,134.396c5.928,11.856,1.123,26.272-10.732,32.2l-134.396,67.198C963.73,748.713,948.644,752.243,933.465,752.243z
					 M966.92,501.109c-7.83,0-15.61,1.82-22.817,5.424l0,0c-12.215,6.107-21.321,16.606-25.64,29.563
					c-4.319,12.957-3.334,26.819,2.774,39.035c2.847,5.693,3.315,12.284,1.302,18.322c-2.013,6.039-6.342,11.03-12.036,13.877
					c-12.215,6.107-21.321,16.606-25.64,29.563c-4.318,12.957-3.333,26.819,2.774,39.035c6.108,12.215,16.607,21.321,29.563,25.64
					c12.957,4.319,26.82,3.333,39.035-2.774l112.93-56.465l-56.465-112.931c-6.107-12.215-16.606-21.321-29.563-25.64
					C977.826,501.988,972.361,501.109,966.92,501.109z M933.37,485.067h0.01H933.37z"/>
			</g>
			<g>
				<path style="fill:#212121;" d="M1659.35,994.205c-10.55,0-21.143-1.704-31.442-5.138c-25.12-8.373-45.476-26.028-57.317-49.711
					l-67.197-134.396c-5.928-11.855-1.123-26.271,10.732-32.199l134.396-67.198c48.889-24.444,108.551-4.557,132.996,44.332l0,0
					c11.842,23.684,13.752,50.561,5.379,75.68c-6.045,18.136-16.928,33.789-31.425,45.547
					c10.947,44.038-9.645,91.447-51.885,112.567C1689.614,990.675,1674.528,994.204,1659.35,994.205z M1557.058,804.959
					l56.465,112.931c6.108,12.215,16.607,21.321,29.563,25.64c12.955,4.318,26.819,3.334,39.034-2.774
					c25.217-12.608,35.475-43.381,22.866-68.598c-5.927-11.855-1.122-26.271,10.733-32.199c12.216-6.107,21.321-16.606,25.64-29.563
					c4.319-12.957,3.334-26.819-2.773-39.035l0,0c-12.609-25.216-43.383-35.476-68.598-22.866L1557.058,804.959z"/>
			</g>
			<g>
				<g>
					<path style="fill:#212121;" d="M1117.24,861.12c-5.539,0-11.104-1.907-15.635-5.801c-10.051-8.641-11.194-23.793-2.554-33.845
						l273.531-318.188c8.64-10.051,23.793-11.194,33.845-2.554c10.051,8.641,11.194,23.793,2.554,33.845L1135.45,852.765
						C1130.704,858.286,1123.991,861.12,1117.24,861.12z"/>
				</g>
				<g>
					<path style="fill:#212121;" d="M1218.571,954.51c-5.539,0-11.104-1.907-15.635-5.801c-10.051-8.641-11.194-23.793-2.554-33.845
						l279.724-325.393c8.641-10.052,23.793-11.195,33.845-2.555c10.051,8.641,11.194,23.793,2.554,33.845l-279.724,325.393
						C1232.035,951.676,1225.322,954.51,1218.571,954.51z"/>
				</g>
			</g>
		</g>
	</g>
</g>
<g id="Layer_1">
</g>
</svg>
