<?xml version="1.0" encoding="iso-8859-1"?>
<!-- Generator: Adobe Illustrator 25.2.0, SVG Export Plug-In . SVG Version: 6.00 Build 0)  -->
<svg version="1.1" xmlns="http://www.w3.org/2000/svg" xmlns:xlink="http://www.w3.org/1999/xlink" x="0px" y="0px"
	 viewBox="0 0 2048 2048" style="enable-background:new 0 0 2048 2048;" xml:space="preserve">
<g id="_x31_4228_-_DJ">
	<g>
		<g>
			<path style="fill:#212121;" d="M1585.049,1804H462.951c-13.255,0-24-10.745-24-24v-487.869c0-13.255,10.745-24,24-24h1122.098
				c13.255,0,24,10.745,24,24V1780C1609.049,1793.255,1598.304,1804,1585.049,1804z M486.951,1756h1074.098v-439.869H486.951V1756z"
				/>
		</g>
		<g>
			<path style="fill:#212121;" d="M1679.37,1316.131H368.629c-13.255,0-24-10.745-24-24v-121.967c0-13.255,10.745-24,24-24H1679.37
				c13.255,0,24,10.745,24,24v121.967C1703.37,1305.386,1692.625,1316.131,1679.37,1316.131z M392.629,1268.131H1655.37v-73.967
				H392.629V1268.131z"/>
		</g>
		<g>
			<path style="fill:#212121;" d="M1411.835,1194.164h-775.67c-13.255,0-24-10.745-24-24v-48.181
				c0-76.505,29.792-148.431,83.89-202.528s126.023-83.89,202.528-83.89c10.9,0,19.768-8.868,19.768-19.768v-36.572
				c0-13.255,10.745-24,24-24s24,10.745,24,24v36.572c0,37.367-30.4,67.768-67.767,67.768
				c-131.464,0-238.418,106.954-238.418,238.418v24.181h727.67v-24.181c0-131.464-106.954-238.418-238.418-238.418
				c-37.367,0-67.768-30.4-67.768-67.768v-36.572c0-13.255,10.745-24,24-24s24,10.745,24,24v36.572
				c0,10.9,8.867,19.768,19.768,19.768c76.505,0,148.431,29.792,202.528,83.89c54.097,54.097,83.89,126.023,83.89,202.528v48.181
				C1435.835,1183.419,1425.09,1194.164,1411.835,1194.164z"/>
		</g>
		<g>
			<path style="fill:#212121;" d="M1024,822.328c-114.532,0-207.711-93.179-207.711-207.711V509.803
				c0-71.027,57.785-128.812,128.812-128.812h157.799c71.027,0,128.812,57.785,128.812,128.812v104.814
				C1231.711,729.149,1138.532,822.328,1024,822.328z M945.1,428.991c-44.56,0-80.812,36.252-80.812,80.812v104.814
				c0,88.065,71.646,159.711,159.711,159.711c88.064,0,159.711-71.646,159.711-159.711V509.803c0-44.56-36.252-80.812-80.812-80.812
				H945.1z"/>
		</g>
		<g>
			<path style="fill:#212121;" d="M1024,704.484c-17.708,0-35.416-4.036-51.558-12.106c-11.855-5.928-16.661-20.344-10.733-32.199
				c5.927-11.856,20.345-16.661,32.199-10.733c18.843,9.421,41.341,9.421,60.183,0c11.855-5.928,26.271-1.123,32.199,10.733
				c5.928,11.855,1.123,26.271-10.732,32.199C1059.416,700.449,1041.708,704.484,1024,704.484z"/>
		</g>
		<g>
			<path style="fill:#212121;" d="M746.728,1194.164c-13.255,0-24-10.745-24-24v-70.741c0-13.255,10.745-24,24-24s24,10.745,24,24
				v70.741C770.728,1183.419,759.983,1194.164,746.728,1194.164z"/>
		</g>
		<g>
			<path style="fill:#212121;" d="M1301.272,1194.164c-13.255,0-24-10.745-24-24v-70.741c0-13.255,10.745-24,24-24s24,10.745,24,24
				v70.741C1325.272,1183.419,1314.527,1194.164,1301.272,1194.164z"/>
		</g>
		<g>
			<path style="fill:#212121;" d="M950.82,1706.426c-53.585,0-97.181-43.595-97.181-97.18c0-53.586,43.595-97.181,97.181-97.181
				s97.18,43.595,97.18,97.181C1048,1662.831,1004.405,1706.426,950.82,1706.426z M950.82,1560.065
				c-27.118,0-49.181,22.062-49.181,49.181s22.062,49.18,49.181,49.18s49.18-22.062,49.18-49.18S977.938,1560.065,950.82,1560.065z"
				/>
		</g>
		<g>
			<path style="fill:#212121;" d="M1024,1633.246c-13.255,0-24-10.745-24-24v-219.541c0-9.707,5.847-18.458,14.815-22.173
				c8.968-3.716,19.291-1.662,26.155,5.202l134.164,134.164c9.372,9.373,9.372,24.568,0,33.941c-9.373,9.373-24.568,9.373-33.941,0
				L1048,1447.646v161.6C1048,1622.501,1037.255,1633.246,1024,1633.246z"/>
		</g>
		<g>
			<path style="fill:#212121;" d="M1389.901,1804H656.059c-13.255,0-24-10.745-24-24v-487.869c0-13.255,10.745-24,24-24h733.842
				c13.255,0,24,10.745,24,24V1780C1413.901,1793.255,1403.156,1804,1389.901,1804z M680.059,1756h685.842v-439.869H680.059V1756z"
				/>
		</g>
		<g>
			<path style="fill:#212121;" d="M841.242,657.508H731.279c-13.255,0-24-10.745-24-24v-97.574c0-13.255,10.745-24,24-24h110.339
				c13.255,0,24,10.745,24,24s-10.745,24-24,24h-86.339v49.574h85.963c13.255,0,24,10.745,24,24S854.497,657.508,841.242,657.508z"
				/>
		</g>
		<g>
			<path style="fill:#212121;" d="M1316.722,657.508h-97.198c-13.255,0-24-10.745-24-24s10.745-24,24-24h73.198v-49.574h-73.574
				c-13.255,0-24-10.745-24-24s10.745-24,24-24h97.574c13.255,0,24,10.745,24,24v97.574
				C1340.722,646.763,1329.977,657.508,1316.722,657.508z"/>
		</g>
		<g>
			<path style="fill:#212121;" d="M731.279,559.935c-13.255,0-24-10.745-24-24c0-71.568,27.87-138.853,78.476-189.458
				S903.645,268,975.213,268h97.574c71.567,0,138.852,27.87,189.458,78.476s78.477,117.89,78.477,189.458c0,13.255-10.745,24-24,24
				s-24-10.745-24-24c0-121.272-98.662-219.934-219.935-219.934h-97.574c-121.272,0-219.934,98.662-219.934,219.934
				C755.279,549.189,744.534,559.935,731.279,559.935z"/>
		</g>
		<g>
			<path style="fill:#212121;" d="M1026.269,550.958c-13.324,0-26.674-0.663-40.026-1.998l-135.385-13.539
				c-13.189-1.319-22.812-13.08-21.493-26.269c1.319-13.189,13.069-22.821,26.269-21.493l135.385,13.539
				c66.493,6.649,133.233-5.633,193.001-35.518c11.857-5.929,26.271-1.123,32.199,10.733s1.123,26.272-10.732,32.2
				C1149.592,536.562,1088.322,550.958,1026.269,550.958z"/>
		</g>
		<g>
			<path style="fill:#212121;" d="M536.131,1194.164h-97.574c-13.255,0-24-10.745-24-24v-146.36c0-13.255,10.745-24,24-24h97.574
				c13.255,0,24,10.745,24,24v146.36C560.131,1183.419,549.386,1194.164,536.131,1194.164z M462.558,1146.164h49.574v-98.36h-49.574
				V1146.164z"/>
		</g>
		<g>
			<path style="fill:#212121;" d="M1609.442,1194.164h-97.573c-13.255,0-24-10.745-24-24v-146.36c0-13.255,10.745-24,24-24h97.573
				c13.255,0,24,10.745,24,24v146.36C1633.442,1183.419,1622.697,1194.164,1609.442,1194.164z M1535.869,1146.164h49.573v-98.36
				h-49.573V1146.164z"/>
		</g>
		<g>
			<path style="fill:#212121;" d="M1024,999.017c-67.036,0-121.574-54.538-121.574-121.574v-24.394c0-13.255,10.745-24,24-24
				s24,10.745,24,24v24.394c0,40.569,33.005,73.574,73.574,73.574c40.569,0,73.574-33.005,73.574-73.574v-24.394
				c0-13.255,10.745-24,24-24s24,10.745,24,24v24.394C1145.574,944.479,1091.036,999.017,1024,999.017z"/>
		</g>
	</g>
</g>
<g id="Layer_1">
</g>
</svg>
