<?xml version="1.0" encoding="iso-8859-1"?>
<!-- Generator: Adobe Illustrator 25.2.0, SVG Export Plug-In . SVG Version: 6.00 Build 0)  -->
<svg version="1.1" xmlns="http://www.w3.org/2000/svg" xmlns:xlink="http://www.w3.org/1999/xlink" x="0px" y="0px"
	 viewBox="0 0 2048 2048" style="enable-background:new 0 0 2048 2048;" xml:space="preserve">
<g id="_x31_4225_-_Dance">
	<g>
		<g>
			<g>
				<path style="fill:#212121;" d="M1043.769,1792c-25.574,0.001-50.348-9.258-69.757-26.069
					c-19.502-16.892-32.197-40.254-35.775-65.819l-90.879-545.273c-0.041-0.241-0.077-0.482-0.11-0.725
					c-0.045-0.334-0.085-0.669-0.123-1.004l-0.012-0.105c-0.048-0.385-0.098-0.808-0.146-1.23c-0.142-1.244-0.263-2.5-0.359-3.731
					c-0.031-0.337-0.054-0.618-0.074-0.899c-0.098-1.405-0.167-2.842-0.211-4.389c-0.012-0.432-0.018-0.848-0.023-1.263
					l-0.008-0.471c-0.01-0.433-0.018-0.864-0.018-1.297V840.09L562.342,468.794c-17.308-22.632-24.766-50.649-21-78.892
					c3.765-28.242,18.303-53.327,40.936-70.634c46.724-35.729,113.8-26.784,149.526,19.936L895.753,553.6h238.368l163.949-214.395
					c35.728-46.721,102.807-55.664,149.526-19.936c22.632,17.307,37.17,42.392,40.936,70.634c3.766,28.242-3.692,56.26-21,78.892
					l-275.66,360.479v259.402l273.919,240.406c28.185,22.437,43.047,57.186,39.782,93.099l-24.8,272.8
					c-2.425,26.675-14.675,51.278-34.491,69.279c-19.687,17.883-45.129,27.733-71.64,27.735c-0.013,0-0.025,0-0.038,0
					c-3.207,0-6.477-0.149-9.715-0.443c-58.576-5.325-101.898-57.312-96.574-115.886l19.672-216.395l-208.349-195.26l69.796,406.077
					c0.047,0.273,0.089,0.548,0.127,0.822c3.85,28.23-3.525,56.271-20.765,78.954c-17.24,22.685-42.282,37.298-70.513,41.147
					C1053.479,1791.668,1048.595,1792,1043.769,1792z M894.792,1147.48l90.845,545.066c0.039,0.233,0.075,0.468,0.106,0.703
					c3.945,28.933,28.89,50.751,58.024,50.75c2.665,0,5.366-0.185,8.03-0.548c15.527-2.117,29.301-10.154,38.783-22.631
					c9.404-12.374,13.471-27.646,11.471-43.044l-81.833-476.112c-1.747-10.163,3.194-20.307,12.273-25.196
					c9.079-4.888,20.266-3.433,27.792,3.619l269.078,252.174c5.396,5.058,8.159,12.319,7.489,19.685l-20.733,228.065
					c-2.929,32.216,20.899,60.809,53.115,63.737c1.797,0.163,3.606,0.246,5.375,0.246c0.008,0,0.016,0,0.023,0
					c30.496-0.003,55.573-22.943,58.339-53.36l24.8-272.8c1.808-19.88-6.484-39.11-22.18-51.441
					c-0.343-0.269-0.677-0.547-1.004-0.834l-282.546-247.977c-5.192-4.557-8.169-11.13-8.169-18.038V821.149
					c0-5.27,1.734-10.393,4.936-14.579l280.596-366.933c9.52-12.448,13.621-27.858,11.55-43.391
					c-2.07-15.533-10.066-29.33-22.515-38.849c-25.695-19.649-62.589-14.732-82.239,10.965l-171.153,223.815
					c-4.541,5.938-11.589,9.421-19.064,9.421H883.893c-7.475,0-14.523-3.483-19.064-9.421L693.675,368.363
					c-19.65-25.696-56.542-30.615-82.24-10.965c-12.448,9.519-20.444,23.316-22.515,38.849s2.031,30.942,11.55,43.39l288.866,377.75
					c3.201,4.186,4.936,9.309,4.936,14.579l0.03,309.428c0.024,0.835,0.06,1.601,0.108,2.322l0.044,0.513
					c0.056,0.724,0.123,1.418,0.202,2.11L894.792,1147.48z"/>
			</g>
			<g>
				<path style="fill:#212121;" d="M1019.072,502.4c-67.933,0-123.2-55.267-123.2-123.2S951.14,256,1019.072,256
					s123.2,55.268,123.2,123.2S1087.005,502.4,1019.072,502.4z M1019.072,304c-41.465,0-75.2,33.735-75.2,75.2
					s33.734,75.2,75.2,75.2c41.466,0,75.2-33.734,75.2-75.2S1060.538,304,1019.072,304z"/>
			</g>
		</g>
		<g>
			<g>
				<path style="fill:#212121;" d="M1444.807,1072.8c-54.258,0-98.399-44.142-98.399-98.4c0-54.258,44.142-98.4,98.399-98.4
					s98.4,44.142,98.4,98.4C1543.207,1028.658,1499.064,1072.8,1444.807,1072.8z M1444.807,924c-27.79,0-50.399,22.609-50.399,50.4
					s22.609,50.4,50.399,50.4c27.791,0,50.4-22.609,50.4-50.4S1472.598,924,1444.807,924z"/>
			</g>
			<g>
				<path style="fill:#212121;" d="M1519.207,998.4c-13.255,0-24-10.745-24-24v-248c0-9.707,5.848-18.458,14.815-22.173
					c8.967-3.715,19.291-1.662,26.155,5.202l124,124c9.372,9.373,9.372,24.569,0,33.941c-9.373,9.372-24.568,9.372-33.941,0
					l-83.029-83.03V974.4C1543.207,987.655,1532.462,998.4,1519.207,998.4z"/>
			</g>
		</g>
		<g>
			<g>
				<path style="fill:#212121;" d="M491.316,1038.571c-35.495,0-68.97-21.725-82.148-56.868
					c-8.219-21.917-7.411-45.724,2.275-67.034c9.687-21.31,27.091-37.572,49.009-45.792c45.244-16.967,95.859,6.04,112.825,51.285
					c8.219,21.917,7.411,45.724-2.275,67.034c-9.687,21.31-27.091,37.572-49.009,45.791
					C511.891,1036.775,501.519,1038.571,491.316,1038.571z M491.241,911.277c-4.698,0-9.406,0.846-13.936,2.544
					c-20.463,7.674-30.868,30.564-23.194,51.028c3.717,9.913,11.072,17.784,20.709,22.165c9.638,4.381,20.404,4.746,30.318,1.029
					c9.913-3.717,17.784-11.072,22.165-20.709c4.381-9.638,4.746-20.405,1.029-30.318c-3.717-9.913-11.072-17.784-20.71-22.165
					C502.39,912.472,496.823,911.277,491.241,911.277z"/>
			</g>
			<g>
				<path style="fill:#212121;" d="M550.809,952.596c-9.718,0-18.862-5.944-22.475-15.58l-74.479-198.609
					c-3.409-9.089-1.006-19.336,6.086-25.963c7.093-6.626,17.479-8.331,26.316-4.312l136.544,62.065
					c12.067,5.485,17.402,19.713,11.917,31.78c-5.485,12.067-19.714,17.401-31.78,11.917l-83.796-38.089l54.134,144.357
					c4.654,12.411-1.634,26.245-14.045,30.898C556.457,952.102,553.608,952.596,550.809,952.596z"/>
			</g>
		</g>
		<g>
			<path style="fill:#212121;" d="M626.407,1196.8c-40.583,0-73.6-33.017-73.6-73.6s33.017-73.601,73.6-73.601
				s73.6,33.018,73.6,73.601S666.99,1196.8,626.407,1196.8z M626.407,1097.6c-14.116,0-25.6,11.484-25.6,25.601
				c0,14.115,11.484,25.6,25.6,25.6s25.6-11.484,25.6-25.6C652.007,1109.084,640.523,1097.6,626.407,1097.6z"/>
		</g>
		<g>
			<path style="fill:#212121;" d="M1618.407,626.4c-40.583,0-73.601-33.017-73.601-73.6s33.018-73.6,73.601-73.6
				s73.6,33.017,73.6,73.6S1658.99,626.4,1618.407,626.4z M1618.407,527.2c-14.116,0-25.601,11.484-25.601,25.6
				s11.484,25.6,25.601,25.6c14.115,0,25.6-11.484,25.6-25.6S1632.522,527.2,1618.407,527.2z"/>
		</g>
		<g>
			<path style="fill:#212121;" d="M1167.874,1048h-297.6c-13.255,0-24-10.745-24-24s10.745-24,24-24h297.6c13.255,0,24,10.745,24,24
				S1181.129,1048,1167.874,1048z"/>
		</g>
		<g>
			<path style="fill:#212121;" d="M601.623,502.401c-7.041,0-14.016-3.083-18.756-9.008c-8.28-10.35-6.602-25.453,3.748-33.733
				l124-99.2c10.351-8.28,25.454-6.603,33.733,3.748c8.28,10.35,6.602,25.453-3.748,33.733l-124,99.2
				C612.175,500.681,606.88,502.401,601.623,502.401z"/>
		</g>
		<g>
			<path style="fill:#212121;" d="M1419.991,502.401c-5.258,0-10.552-1.72-14.978-5.26l-124-99.2
				c-10.35-8.28-12.028-23.383-3.748-33.733c8.281-10.35,23.382-12.029,33.734-3.748l124,99.2
				c10.35,8.28,12.028,23.383,3.748,33.733C1434.008,499.317,1427.032,502.401,1419.991,502.401z"/>
		</g>
		<g>
			<path style="fill:#212121;" d="M1461.31,1668h-166.016c-13.255,0-24-10.745-24-24s10.745-24,24-24h166.016
				c13.255,0,24,10.745,24,24S1474.564,1668,1461.31,1668z"/>
		</g>
		<g>
			<path style="fill:#212121;" d="M1120.599,1668h-167.39c-13.255,0-24-10.745-24-24s10.745-24,24-24h167.39
				c13.255,0,24,10.745,24,24S1133.854,1668,1120.599,1668z"/>
		</g>
	</g>
</g>
<g id="Layer_1">
</g>
</svg>
