<?xml version="1.0" encoding="iso-8859-1"?>
<!-- Generator: Adobe Illustrator 25.2.0, SVG Export Plug-In . SVG Version: 6.00 Build 0)  -->
<svg version="1.1" xmlns="http://www.w3.org/2000/svg" xmlns:xlink="http://www.w3.org/1999/xlink" x="0px" y="0px"
	 viewBox="0 0 2048 2048" style="enable-background:new 0 0 2048 2048;" xml:space="preserve">
<g id="_x31_4220_-_BBQ">
	<g>
		<g>
			<path style="fill:#212121;" d="M1045.356,1551.797h-48.814c-68.029,0-134.036-13.329-196.187-39.616
				c-60.019-25.386-113.916-61.724-160.194-108.002c-46.279-46.279-82.616-100.176-108.001-160.195
				c-26.288-62.15-39.617-128.157-39.617-196.187V872.068c0-13.255,10.745-24,24-24h1008.813c13.255,0,24,10.745,24,24v175.729
				c0,68.029-13.329,134.036-39.616,196.187c-25.386,60.02-61.723,113.916-108.002,160.195
				c-46.278,46.278-100.176,82.616-160.194,108.002C1179.393,1538.468,1113.386,1551.797,1045.356,1551.797z M540.542,896.068
				v151.729c0,251.439,204.561,456,456,456h48.814c251.438,0,455.999-204.561,455.999-456V896.068H540.542z"/>
		</g>
		<g>
			<path style="fill:#212121;" d="M1071.391,1400.475c-13.255,0-24-10.745-24-24s10.745-24,24-24
				c153.645,0,278.644-124.999,278.644-278.644c0-13.255,10.745-24,24-24s24,10.745,24,24c0,87.25-33.977,169.277-95.672,230.972
				C1240.668,1366.498,1158.641,1400.475,1071.391,1400.475z"/>
		</g>
		<g>
			<path style="fill:#212121;" d="M1601.017,896.068H440.881c-41.047,0-74.44-33.394-74.44-74.441
				c0-41.046,33.394-74.44,74.44-74.44h1160.135c41.047,0,74.441,33.394,74.441,74.44
				C1675.458,862.674,1642.063,896.068,1601.017,896.068z M440.881,795.187c-14.579,0-26.44,11.861-26.44,26.44
				s11.861,26.441,26.44,26.441h1160.135c14.58,0,26.441-11.861,26.441-26.441s-11.861-26.44-26.441-26.44H440.881z"/>
		</g>
		<g>
			<path style="fill:#212121;" d="M1651.458,1072.61h-126.722c-13.255,0-24-10.745-24-24s10.745-24,24-24h126.722
				c13.255,0,24,10.745,24,24S1664.713,1072.61,1651.458,1072.61z"/>
		</g>
		<g>
			<path style="fill:#212121;" d="M517.163,1072.61H390.441c-13.255,0-24-10.745-24-24s10.745-24,24-24h126.722
				c13.255,0,24,10.745,24,24S530.417,1072.61,517.163,1072.61z"/>
		</g>
		<g>
			<path style="fill:#212121;" d="M592.188,1804.006c-3.366,0-6.785-0.712-10.042-2.215c-12.035-5.555-17.289-19.813-11.734-31.849
				l151.322-327.864c5.554-12.034,19.813-17.288,31.848-11.733s17.289,19.813,11.734,31.849l-151.322,327.864
				C609.943,1798.835,601.261,1804.006,592.188,1804.006z"/>
		</g>
		<g>
			<path style="fill:#212121;" d="M1449.711,1804.006c-9.073,0-17.755-5.17-21.807-13.948l-151.322-327.864
				c-5.555-12.035-0.301-26.294,11.733-31.849s26.294-0.303,31.849,11.733l151.322,327.864c5.555,12.035,0.301,26.294-11.733,31.849
				C1456.496,1803.294,1453.076,1804.006,1449.711,1804.006z"/>
		</g>
		<g>
			<path style="fill:#212121;" d="M1369.578,1677.898H672.32c-13.255,0-24-10.745-24-24s10.745-24,24-24h697.258
				c13.255,0,24,10.745,24,24S1382.833,1677.898,1369.578,1677.898z"/>
		</g>
		<g>
			<path style="fill:#212121;" d="M1525.355,996.949H516.542c-13.255,0-24-10.745-24-24s10.745-24,24-24h1008.813
				c13.255,0,24,10.745,24,24S1538.61,996.949,1525.355,996.949z"/>
		</g>
		<g>
			<g>
				<g>
					<path style="fill:#212121;" d="M566.983,694.305c-41.046,0-74.44-33.394-74.44-74.441c0-41.046,33.394-74.44,74.44-74.44
						c41.047,0,74.441,33.394,74.441,74.44C641.424,660.911,608.03,694.305,566.983,694.305z M566.983,593.424
						c-14.579,0-26.44,11.861-26.44,26.44c0,14.58,11.861,26.441,26.44,26.441c14.58,0,26.441-11.861,26.441-26.441
						C593.424,605.285,581.562,593.424,566.983,593.424z"/>
				</g>
				<g>
					<path style="fill:#212121;" d="M819.187,694.305H718.305c-13.255,0-24-10.745-24-24V569.424c0-13.255,10.745-24,24-24h100.881
						c13.255,0,24,10.745,24,24v100.881C843.187,683.56,832.441,694.305,819.187,694.305z M742.305,646.305h52.881v-52.881h-52.881
						V646.305z"/>
				</g>
				<g>
					<path style="fill:#212121;" d="M970.508,694.305c-41.046,0-74.44-33.394-74.44-74.441c0-41.046,33.394-74.44,74.44-74.44
						c41.047,0,74.441,33.394,74.441,74.44C1044.949,660.911,1011.555,694.305,970.508,694.305z M970.508,593.424
						c-14.579,0-26.44,11.861-26.44,26.44c0,14.58,11.861,26.441,26.44,26.441c14.58,0,26.441-11.861,26.441-26.441
						C996.949,605.285,985.088,593.424,970.508,593.424z"/>
				</g>
				<g>
					<path style="fill:#212121;" d="M1222.712,694.305H1121.83c-13.255,0-24-10.745-24-24V569.424c0-13.255,10.745-24,24-24h100.882
						c13.255,0,24,10.745,24,24v100.881C1246.712,683.56,1235.967,694.305,1222.712,694.305z M1145.83,646.305h52.882v-52.881
						h-52.882V646.305z"/>
				</g>
				<g>
					<path style="fill:#212121;" d="M1374.034,694.305c-41.047,0-74.441-33.394-74.441-74.441c0-41.046,33.395-74.44,74.441-74.44
						s74.44,33.394,74.44,74.44C1448.475,660.911,1415.081,694.305,1374.034,694.305z M1374.034,593.424
						c-14.58,0-26.441,11.861-26.441,26.44c0,14.58,11.861,26.441,26.441,26.441c14.579,0,26.44-11.861,26.44-26.441
						C1400.475,605.285,1388.613,593.424,1374.034,593.424z"/>
				</g>
				<g>
					<path style="fill:#212121;" d="M1626.237,694.305h-100.882c-13.255,0-24-10.745-24-24V569.424c0-13.255,10.745-24,24-24
						h100.882c13.255,0,24,10.745,24,24v100.881C1650.237,683.56,1639.492,694.305,1626.237,694.305z M1549.355,646.305h52.882
						v-52.881h-52.882V646.305z"/>
				</g>
			</g>
			<g>
				<path style="fill:#212121;" d="M718.305,643.864H617.424c-13.255,0-24-10.745-24-24s10.745-24,24-24h100.881
					c13.255,0,24,10.745,24,24S731.56,643.864,718.305,643.864z"/>
			</g>
			<g>
				<path style="fill:#212121;" d="M1121.83,643.864h-100.881c-13.255,0-24-10.745-24-24s10.745-24,24-24h100.881
					c13.255,0,24,10.745,24,24S1135.085,643.864,1121.83,643.864z"/>
			</g>
			<g>
				<path style="fill:#212121;" d="M1525.355,643.864h-100.881c-13.255,0-24-10.745-24-24s10.745-24,24-24h100.881
					c13.255,0,24,10.745,24,24S1538.61,643.864,1525.355,643.864z"/>
			</g>
			<g>
				<path style="fill:#212121;" d="M1777.56,643.864h-151.322c-13.255,0-24-10.745-24-24s10.745-24,24-24h151.322
					c13.255,0,24,10.745,24,24S1790.814,643.864,1777.56,643.864z"/>
			</g>
			<g>
				<path style="fill:#212121;" d="M1323.593,643.864h-100.881c-13.255,0-24-10.745-24-24s10.745-24,24-24h100.881
					c13.255,0,24,10.745,24,24S1336.848,643.864,1323.593,643.864z"/>
			</g>
			<g>
				<path style="fill:#212121;" d="M920.068,643.864H819.187c-13.255,0-24-10.745-24-24s10.745-24,24-24h100.881
					c13.255,0,24,10.745,24,24S933.323,643.864,920.068,643.864z"/>
			</g>
			<g>
				<path style="fill:#212121;" d="M516.542,643.864h-75.661c-13.255,0-24-10.745-24-24s10.745-24,24-24h75.661
					c13.255,0,24,10.745,24,24S529.797,643.864,516.542,643.864z"/>
			</g>
		</g>
		<g>
			<g>
				<path style="fill:#212121;" d="M781.752,492.543c-12.728,0-23.339-10.005-23.954-22.854
					c-2.239-46.822,24.306-58.098,38.09-63.37c-1.454-1.468-4.003-3.5-8.389-6.731c-11.119-8.193-29.729-21.906-29.729-48.746
					c0-26.85,17.415-39.961,27.819-47.795c9.059-6.82,11.464-9.187,12.445-15.023c2.196-13.072,14.574-21.886,27.645-19.692
					c13.072,2.196,21.888,14.574,19.691,27.645c-4.259,25.351-20.297,37.426-30.909,45.417c-8.691,6.543-8.691,7.102-8.691,9.449
					c0,1.972,1.407,3.622,10.203,10.104c11.119,8.193,29.729,21.906,29.729,48.746c0,29.035-22.233,37.491-31.728,41.102
					c-2.256,0.858-6.033,2.294-6.737,3.056c-0.02,0.023-2.004,2.901-1.495,13.546c0.633,13.24-9.586,24.486-22.826,25.119
					C782.527,492.534,782.139,492.543,781.752,492.543z M797.696,409.961L797.696,409.961L797.696,409.961z"/>
			</g>
			<g>
				<path style="fill:#212121;" d="M927.93,492.543c-12.728,0-23.339-10.005-23.954-22.854c-2.239-46.822,24.306-58.098,38.09-63.37
					c-1.454-1.468-4.003-3.5-8.389-6.731c-11.119-8.193-29.729-21.906-29.729-48.746c0-26.85,17.415-39.961,27.819-47.795
					c9.059-6.82,11.464-9.187,12.445-15.023c2.196-13.072,14.572-21.886,27.645-19.692c13.072,2.196,21.888,14.574,19.691,27.645
					c-4.259,25.351-20.297,37.426-30.909,45.417c-8.691,6.543-8.691,7.102-8.691,9.449c0,1.972,1.407,3.622,10.203,10.104
					c11.119,8.193,29.729,21.906,29.729,48.746c0,29.035-22.233,37.491-31.728,41.102c-2.256,0.858-6.033,2.294-6.737,3.056
					c-0.02,0.023-2.004,2.901-1.495,13.546c0.633,13.24-9.586,24.486-22.826,25.119C928.705,492.534,928.316,492.543,927.93,492.543
					z M943.874,409.961L943.874,409.961L943.874,409.961z"/>
			</g>
			<g>
				<path style="fill:#212121;" d="M1074.107,492.543c-12.728,0-23.339-10.004-23.953-22.854
					c-2.239-46.822,24.306-58.098,38.089-63.37c-1.453-1.468-4.002-3.499-8.388-6.731c-11.119-8.193-29.729-21.906-29.729-48.746
					c0-26.85,17.414-39.961,27.818-47.795c9.059-6.82,11.465-9.187,12.445-15.023c2.196-13.072,14.57-21.887,27.645-19.692
					c13.071,2.196,21.888,14.574,19.691,27.645c-4.259,25.351-20.297,37.426-30.909,45.416c-8.69,6.544-8.69,7.102-8.69,9.45
					c0,1.972,1.407,3.622,10.203,10.104c11.119,8.193,29.729,21.906,29.729,48.746c0,29.035-22.233,37.491-31.728,41.102
					c-2.256,0.858-6.033,2.294-6.736,3.056c-0.02,0.023-2.004,2.901-1.495,13.546c0.633,13.24-9.587,24.486-22.826,25.119
					C1074.883,492.534,1074.494,492.543,1074.107,492.543z M1090.051,409.961L1090.051,409.961L1090.051,409.961z"/>
			</g>
			<g>
				<path style="fill:#212121;" d="M1220.285,492.543c-12.728,0-23.339-10.004-23.953-22.854
					c-2.239-46.822,24.306-58.098,38.089-63.37c-1.453-1.468-4.002-3.499-8.388-6.731c-11.119-8.193-29.729-21.906-29.729-48.746
					c0-26.85,17.414-39.961,27.818-47.795c9.059-6.82,11.465-9.187,12.445-15.023c2.195-13.072,14.569-21.887,27.645-19.692
					c13.071,2.196,21.888,14.574,19.691,27.645c-4.259,25.351-20.297,37.426-30.909,45.416c-8.69,6.544-8.69,7.102-8.69,9.45
					c0,1.972,1.407,3.622,10.203,10.104c11.119,8.193,29.729,21.906,29.729,48.746c0,29.035-22.233,37.491-31.728,41.102
					c-2.256,0.858-6.033,2.294-6.736,3.056c-0.02,0.023-2.004,2.901-1.495,13.546c0.633,13.24-9.587,24.486-22.826,25.119
					C1221.061,492.534,1220.672,492.543,1220.285,492.543z M1236.229,409.961L1236.229,409.961L1236.229,409.961z"/>
			</g>
		</g>
	</g>
</g>
<g id="Layer_1">
</g>
</svg>
