<?xml version="1.0" encoding="iso-8859-1"?>
<!-- Generator: Adobe Illustrator 25.2.0, SVG Export Plug-In . SVG Version: 6.00 Build 0)  -->
<svg version="1.1" xmlns="http://www.w3.org/2000/svg" xmlns:xlink="http://www.w3.org/1999/xlink" x="0px" y="0px"
	 viewBox="0 0 2048 2048" style="enable-background:new 0 0 2048 2048;" xml:space="preserve">
<g id="_x31_4231_-_Fireworks">
	<g>
		<g>
			<path style="fill:#212121;" d="M1151.184,1246.267c-3.819,0-7.653-0.911-11.165-2.757l-117.674-61.865l-117.673,61.865
				c-8.085,4.25-17.884,3.542-25.275-1.827c-7.391-5.369-11.092-14.469-9.548-23.473l22.474-131.031l-95.199-92.797
				c-6.542-6.376-8.896-15.914-6.073-24.603c2.823-8.688,10.333-15.021,19.374-16.334l131.562-19.117l58.836-119.216
				c4.043-8.192,12.386-13.378,21.521-13.378c9.136,0,17.479,5.187,21.521,13.378l58.837,119.216l131.562,19.117
				c9.04,1.313,16.551,7.646,19.374,16.334c2.823,8.688,0.469,18.226-6.073,24.603l-95.199,92.797l22.474,131.031
				c1.545,9.004-2.157,18.104-9.548,23.473C1161.112,1244.721,1156.16,1246.267,1151.184,1246.267z M1022.345,1130.53
				c3.836,0,7.672,0.919,11.168,2.757l85.799,45.107l-16.386-95.538c-1.336-7.785,1.245-15.729,6.902-21.242l69.411-67.661
				l-95.925-13.939c-7.817-1.136-14.574-6.045-18.07-13.129l-42.899-86.923l-42.899,86.923c-3.496,7.083-10.253,11.993-18.07,13.129
				l-95.925,13.939l69.412,67.661c5.656,5.514,8.237,13.457,6.902,21.242l-16.386,95.537l85.798-45.106
				C1014.672,1131.449,1018.509,1130.53,1022.345,1130.53z"/>
		</g>
		<g>
			<g>
				<path style="fill:#212121;" d="M1022.345,688.828c-13.255,0-24-10.745-24-24V382.621c0-13.255,10.745-24,24-24s24,10.745,24,24
					v282.207C1046.345,678.083,1035.6,688.828,1022.345,688.828z"/>
			</g>
			<g>
				<path style="fill:#212121;" d="M1022.345,1689.379c-13.255,0-24-10.745-24-24v-282.206c0-13.255,10.745-24,24-24
					s24,10.745,24,24v282.206C1046.345,1678.634,1035.6,1689.379,1022.345,1689.379z"/>
			</g>
			<g>
				<path style="fill:#212121;" d="M1022.345,688.828c-13.255,0-24-10.745-24-24V382.621c0-13.255,10.745-24,24-24s24,10.745,24,24
					v282.207C1046.345,678.083,1035.6,688.828,1022.345,688.828z"/>
			</g>
			<g>
				<path style="fill:#212121;" d="M1022.345,1689.379c-13.255,0-24-10.745-24-24v-282.206c0-13.255,10.745-24,24-24
					s24,10.745,24,24v282.206C1046.345,1678.634,1035.6,1689.379,1022.345,1689.379z"/>
			</g>
			<g>
				<path style="fill:#212121;" d="M1276.318,794.027c-6.143,0-12.284-2.343-16.971-7.029c-9.372-9.373-9.372-24.569,0-33.941
					l199.55-199.55c9.374-9.373,24.569-9.371,33.941,0c9.372,9.373,9.372,24.569,0,33.941l-199.55,199.55
					C1288.603,791.684,1282.46,794.027,1276.318,794.027z"/>
			</g>
			<g>
				<path style="fill:#212121;" d="M568.821,1501.523c-6.143,0-12.284-2.343-16.971-7.029c-9.373-9.373-9.373-24.568,0-33.941
					l199.55-199.55c9.373-9.373,24.568-9.373,33.941,0c9.373,9.373,9.373,24.568,0,33.941l-199.55,199.55
					C581.106,1499.18,574.963,1501.523,568.821,1501.523z"/>
			</g>
			<g>
				<path style="fill:#212121;" d="M1663.725,1048h-282.207c-13.255,0-24-10.745-24-24s10.745-24,24-24h282.207
					c13.255,0,24,10.745,24,24S1676.979,1048,1663.725,1048z"/>
			</g>
			<g>
				<path style="fill:#212121;" d="M663.172,1048H380.965c-13.255,0-24-10.745-24-24s10.745-24,24-24h282.207
					c13.255,0,24,10.745,24,24S676.427,1048,663.172,1048z"/>
			</g>
			<g>
				<path style="fill:#212121;" d="M1475.868,1501.523c-6.143,0-12.284-2.343-16.971-7.029l-199.55-199.55
					c-9.372-9.373-9.372-24.568,0-33.941c9.373-9.373,24.568-9.373,33.941,0l199.55,199.55c9.372,9.373,9.372,24.568,0,33.941
					C1488.152,1499.181,1482.011,1501.523,1475.868,1501.523z"/>
			</g>
			<g>
				<path style="fill:#212121;" d="M768.372,794.027c-6.142,0-12.284-2.343-16.971-7.029l-199.55-199.55
					c-9.373-9.373-9.373-24.569,0-33.941c9.373-9.372,24.568-9.372,33.941,0l199.55,199.55c9.373,9.373,9.373,24.569,0,33.941
					C780.656,791.684,774.514,794.027,768.372,794.027z"/>
			</g>
			<g>
				<path style="fill:#212121;" d="M868.437,688.831c-8.154,0-16.103-4.155-20.603-11.656l-76.965-128.276
					c-6.82-11.366-3.134-26.108,8.232-32.928c11.366-6.819,26.109-3.134,32.927,8.232l76.966,128.276
					c6.819,11.366,3.134,26.108-8.232,32.927C876.896,687.727,872.638,688.831,868.437,688.831z"/>
			</g>
			<g>
				<path style="fill:#212121;" d="M1176.253,688.831c-4.203,0-8.459-1.104-12.325-3.424c-11.366-6.819-15.052-21.562-8.232-32.928
					l76.966-128.276c6.82-11.366,21.563-15.049,32.928-8.232c11.366,6.82,15.052,21.562,8.232,32.928l-76.966,128.276
					C1192.355,684.675,1184.405,688.831,1176.253,688.831z"/>
			</g>
			<g>
				<path style="fill:#212121;" d="M791.425,1509.797c-4.203,0-8.459-1.104-12.325-3.424c-11.366-6.82-15.052-21.562-8.232-32.928
					l76.965-128.275c6.818-11.366,21.56-15.052,32.928-8.232c11.366,6.82,15.051,21.562,8.232,32.928l-76.966,128.275
					C807.528,1505.641,799.578,1509.797,791.425,1509.797z"/>
			</g>
			<g>
				<path style="fill:#212121;" d="M1253.264,1509.797c-8.153,0-16.102-4.155-20.603-11.656l-76.966-128.275
					c-6.819-11.365-3.134-26.107,8.232-32.928c11.365-6.819,26.107-3.134,32.928,8.232l76.966,128.275
					c6.819,11.365,3.134,26.107-8.232,32.928C1261.724,1508.692,1257.466,1509.797,1253.264,1509.797z"/>
			</g>
			<g>
				<g>
					<path style="fill:#212121;" d="M688.809,919.729c-3.607,0-7.269-0.816-10.714-2.539l-153.931-76.965
						c-11.855-5.928-16.661-20.344-10.733-32.199c5.928-11.856,20.343-16.661,32.199-10.733l153.931,76.965
						c11.855,5.928,16.661,20.344,10.733,32.199C706.089,914.867,697.612,919.729,688.809,919.729z"/>
				</g>
				<g>
					<path style="fill:#212121;" d="M1381.536,919.729c-8.805,0-17.279-4.862-21.484-13.272
						c-5.928-11.855-1.123-26.271,10.732-32.199l153.931-76.965c11.855-5.929,26.271-1.123,32.199,10.733
						c5.928,11.855,1.123,26.271-10.732,32.199l-153.931,76.965C1388.806,918.913,1385.143,919.729,1381.536,919.729z"/>
				</g>
			</g>
			<g>
				<g>
					<path style="fill:#212121;" d="M534.915,1253.246c-8.804,0-17.28-4.861-21.485-13.271
						c-5.928-11.855-1.123-26.271,10.733-32.199l153.931-76.966c11.857-5.928,26.272-1.123,32.2,10.732
						c5.928,11.855,1.123,26.271-10.733,32.199l-153.931,76.966C542.185,1252.43,538.521,1253.246,534.915,1253.246z"/>
				</g>
				<g>
					<path style="fill:#212121;" d="M1535.43,1253.246c-3.607,0-7.269-0.815-10.715-2.539l-153.931-76.966
						c-11.855-5.928-16.66-20.344-10.732-32.199c5.927-11.854,20.343-16.661,32.199-10.732l153.931,76.966
						c11.855,5.928,16.66,20.344,10.732,32.199C1552.71,1248.384,1544.233,1253.246,1535.43,1253.246z"/>
				</g>
			</g>
		</g>
		<g>
			<path style="fill:#212121;" d="M691.886,481.456c-3.82,0-7.654-0.911-11.166-2.757l-43.203-22.713l-43.202,22.713
				c-8.087,4.251-17.885,3.542-25.275-1.827c-7.391-5.37-11.092-14.47-9.548-23.474l8.251-48.106l-34.952-34.07
				c-6.542-6.376-8.896-15.914-6.073-24.603c2.823-8.688,10.333-15.021,19.374-16.334l48.302-7.019l21.601-43.769
				c4.043-8.192,12.386-13.378,21.521-13.378c9.135,0,17.479,5.187,21.521,13.378l21.602,43.769l48.302,7.019
				c9.041,1.313,16.551,7.646,19.374,16.334c2.823,8.688,0.469,18.226-6.073,24.603l-34.952,34.07l8.251,48.106
				c1.544,9.004-2.157,18.104-9.548,23.474C701.814,479.91,696.862,481.456,691.886,481.456z M637.517,404.871
				c3.836,0,7.672,0.919,11.168,2.757l11.328,5.955l-2.164-12.613c-1.335-7.785,1.246-15.729,6.902-21.243l9.165-8.933l-12.665-1.84
				c-7.817-1.136-14.575-6.045-18.07-13.129l-5.664-11.476l-5.664,11.476c-3.496,7.083-10.253,11.993-18.07,13.129l-12.665,1.84
				l9.165,8.933c5.656,5.514,8.237,13.458,6.902,21.243l-2.164,12.613l11.327-5.955C629.845,405.79,633.681,404.871,637.517,404.871
				z"/>
		</g>
		<g>
			<path style="fill:#212121;" d="M1716.562,544.528c-3.82,0-7.653-0.911-11.165-2.757l-43.202-22.713l-43.203,22.713
				c-8.086,4.252-17.884,3.543-25.274-1.827c-7.392-5.37-11.093-14.47-9.548-23.474l8.251-48.107l-34.951-34.069
				c-6.542-6.376-8.896-15.914-6.073-24.603c2.823-8.688,10.334-15.021,19.374-16.334l48.302-7.019l21.602-43.769
				c4.043-8.192,12.387-13.378,21.521-13.378c9.136,0,17.479,5.187,21.521,13.378l21.601,43.769l48.303,7.019
				c9.04,1.313,16.551,7.646,19.374,16.334c2.823,8.688,0.469,18.226-6.073,24.603l-34.952,34.069l8.251,48.107
				c1.545,9.004-2.157,18.104-9.548,23.474C1726.49,542.982,1721.538,544.528,1716.562,544.528z M1625.796,433.867l9.163,8.933
				c5.657,5.514,8.238,13.458,6.902,21.243l-2.163,12.614l11.328-5.956c6.99-3.677,15.344-3.676,22.336,0l11.327,5.955
				l-2.163-12.613c-1.336-7.786,1.246-15.729,6.902-21.243l9.164-8.933l-12.665-1.84c-7.817-1.136-14.575-6.045-18.07-13.129
				l-5.663-11.475l-5.664,11.476c-3.496,7.083-10.253,11.993-18.07,13.129L1625.796,433.867z"/>
		</g>
		<g>
			<path style="fill:#212121;" d="M485.114,1775.977c-3.82,0-7.654-0.911-11.166-2.757l-43.203-22.713l-43.203,22.713
				c-8.085,4.251-17.884,3.542-25.275-1.827c-7.391-5.369-11.092-14.469-9.548-23.473l8.251-48.107l-34.952-34.068
				c-6.542-6.377-8.896-15.914-6.073-24.603c2.823-8.688,10.333-15.021,19.374-16.335l48.302-7.019l21.602-43.769
				c4.043-8.192,12.386-13.379,21.521-13.379s17.479,5.187,21.521,13.379l21.602,43.769l48.302,7.019
				c9.041,1.314,16.551,7.646,19.374,16.335c2.823,8.688,0.469,18.226-6.073,24.603l-34.952,34.068l8.251,48.107
				c1.544,9.004-2.157,18.104-9.548,23.473C495.042,1774.431,490.09,1775.977,485.114,1775.977z M430.746,1699.393
				c3.836,0,7.672,0.919,11.168,2.757l11.328,5.955l-2.164-12.614c-1.335-7.785,1.246-15.729,6.903-21.243l9.163-8.932l-12.664-1.84
				c-7.817-1.137-14.575-6.046-18.07-13.13l-5.664-11.476l-5.664,11.476c-3.496,7.084-10.253,11.993-18.07,13.13l-12.664,1.84
				l9.163,8.932c5.657,5.514,8.238,13.458,6.903,21.243l-2.164,12.614l11.328-5.955
				C423.073,1700.312,426.91,1699.393,430.746,1699.393z"/>
		</g>
		<g>
			<path style="fill:#212121;" d="M1530.86,1775.977c-4.978,0-9.929-1.546-14.109-4.584c-7.392-5.369-11.093-14.469-9.548-23.473
				l8.251-48.107l-34.951-34.068c-6.542-6.377-8.896-15.915-6.073-24.603c2.823-8.688,10.334-15.021,19.374-16.335l48.302-7.019
				l21.602-43.769c4.043-8.192,12.386-13.379,21.521-13.379s17.479,5.187,21.521,13.379l21.602,43.769l48.302,7.019
				c9.041,1.314,16.552,7.646,19.374,16.335c2.823,8.688,0.469,18.226-6.073,24.603l-34.951,34.068l8.251,48.106
				c1.545,9.004-2.156,18.104-9.547,23.474c-7.392,5.369-17.188,6.077-25.275,1.827l-43.203-22.713l-43.203,22.713
				C1538.515,1775.065,1534.68,1775.977,1530.86,1775.977z M1548.83,1665.315l9.163,8.932c5.657,5.514,8.238,13.458,6.902,21.243
				l-2.163,12.614l11.328-5.955c6.992-3.676,15.344-3.676,22.336,0l11.327,5.955l-2.163-12.613
				c-1.336-7.786,1.245-15.73,6.902-21.244l9.163-8.932l-12.663-1.84c-7.817-1.137-14.574-6.046-18.07-13.13l-5.664-11.476
				l-5.664,11.476c-3.496,7.084-10.253,11.993-18.07,13.13L1548.83,1665.315z"/>
		</g>
		<g>
			<path style="fill:#212121;" d="M432.276,1381.518c-41.526,0-75.311-33.784-75.311-75.311s33.784-75.311,75.311-75.311
				s75.311,33.784,75.311,75.311S473.802,1381.518,432.276,1381.518z M432.276,1278.896c-15.059,0-27.311,12.252-27.311,27.311
				s12.251,27.311,27.311,27.311s27.311-12.252,27.311-27.311S447.335,1278.896,432.276,1278.896z"/>
		</g>
		<g>
			<path style="fill:#212121;" d="M1253.241,1766.345c-41.526,0-75.311-33.784-75.311-75.311c0-41.525,33.784-75.31,75.311-75.31
				s75.311,33.784,75.311,75.31C1328.552,1732.561,1294.768,1766.345,1253.241,1766.345z M1253.241,1663.725
				c-15.059,0-27.311,12.251-27.311,27.31c0,15.06,12.252,27.311,27.311,27.311s27.311-12.251,27.311-27.311
				C1280.552,1675.976,1268.3,1663.725,1253.241,1663.725z"/>
		</g>
		<g>
			<path style="fill:#212121;" d="M380.965,637.517c-41.526,0-75.31-33.784-75.31-75.31c0-41.526,33.784-75.311,75.31-75.311
				c41.526,0,75.311,33.784,75.311,75.311C456.276,603.733,422.492,637.517,380.965,637.517z M380.965,534.896
				c-15.059,0-27.31,12.251-27.31,27.311c0,15.059,12.251,27.31,27.31,27.31c15.059,0,27.311-12.251,27.311-27.31
				C408.276,547.148,396.024,534.896,380.965,534.896z"/>
		</g>
		<g>
			<path style="fill:#212121;" d="M1689.379,1432.827c-41.525,0-75.31-33.784-75.31-75.31c0-41.526,33.784-75.311,75.31-75.311
				c41.526,0,75.311,33.784,75.311,75.311C1764.689,1399.043,1730.905,1432.827,1689.379,1432.827z M1689.379,1330.207
				c-15.059,0-27.31,12.252-27.31,27.311s12.251,27.31,27.31,27.31s27.311-12.251,27.311-27.31S1704.438,1330.207,1689.379,1330.207
				z"/>
		</g>
		<g>
			<g>
				<path style="fill:#212121;" d="M1727.862,842.759c-13.255,0-24-10.745-24-24V690.483c0-13.255,10.745-24,24-24s24,10.745,24,24
					v128.276C1751.862,832.014,1741.117,842.759,1727.862,842.759z"/>
			</g>
			<g>
				<path style="fill:#212121;" d="M1792,778.621h-128.275c-13.255,0-24-10.745-24-24s10.745-24,24-24H1792
					c13.255,0,24,10.745,24,24S1805.255,778.621,1792,778.621z"/>
			</g>
		</g>
		<g>
			<g>
				<path style="fill:#212121;" d="M368.138,894.069c-13.255,0-24-10.745-24-24V741.793c0-13.255,10.745-24,24-24s24,10.745,24,24
					v128.276C392.138,883.324,381.393,894.069,368.138,894.069z"/>
			</g>
			<g>
				<path style="fill:#212121;" d="M432.276,829.931H304c-13.255,0-24-10.745-24-24s10.745-24,24-24h128.276
					c13.255,0,24,10.745,24,24S445.531,829.931,432.276,829.931z"/>
			</g>
		</g>
		<g>
			<g>
				<path style="fill:#212121;" d="M804.276,1792c-13.255,0-24-10.745-24-24v-128.275c0-13.255,10.745-24,24-24s24,10.745,24,24
					V1768C828.276,1781.255,817.531,1792,804.276,1792z"/>
			</g>
			<g>
				<path style="fill:#212121;" d="M868.414,1727.862H740.138c-13.255,0-24-10.745-24-24s10.745-24,24-24h128.276
					c13.255,0,24,10.745,24,24S881.668,1727.862,868.414,1727.862z"/>
			</g>
		</g>
		<g>
			<g>
				<path style="fill:#212121;" d="M1343.034,432.276c-13.255,0-24-10.745-24-24V280c0-13.255,10.745-24,24-24s24,10.745,24,24
					v128.276C1367.034,421.531,1356.289,432.276,1343.034,432.276z"/>
			</g>
			<g>
				<path style="fill:#212121;" d="M1407.173,368.138h-128.276c-13.255,0-24-10.745-24-24s10.745-24,24-24h128.276
					c13.255,0,24,10.745,24,24S1420.428,368.138,1407.173,368.138z"/>
			</g>
		</g>
	</g>
</g>
<g id="Layer_1">
</g>
</svg>
