<?xml version="1.0" encoding="iso-8859-1"?>
<!-- Generator: Adobe Illustrator 25.2.0, SVG Export Plug-In . SVG Version: 6.00 Build 0)  -->
<svg version="1.1" xmlns="http://www.w3.org/2000/svg" xmlns:xlink="http://www.w3.org/1999/xlink" x="0px" y="0px"
	 viewBox="0 0 2048 2048" style="enable-background:new 0 0 2048 2048;" xml:space="preserve">
<g id="_x31_4237_-_Invitation">
	<g>
		<g>
			<path style="fill:#212121;" d="M1668.8,1792H379.2c-13.255,0-24-10.745-24-24V924.8c0-7.406,3.419-14.397,9.266-18.944
				l223.2-173.6c10.462-8.138,25.541-6.254,33.679,4.21c8.138,10.462,6.253,25.541-4.209,33.679L403.2,936.538V1744h1241.6V937.644
				l-212.513-141.675c-11.029-7.353-14.009-22.253-6.656-33.282c7.352-11.027,22.252-14.01,33.281-6.656l223.2,148.8
				c6.677,4.451,10.688,11.945,10.688,19.969V1768C1692.8,1781.255,1682.055,1792,1668.8,1792z"/>
		</g>
		<g>
			<path style="fill:#212121;" d="M1445.6,1137.662c-13.255,0-24-10.745-24-24V464.491L1238.183,304H626.4v809.662
				c0,13.255-10.745,24-24,24s-24-10.745-24-24V280c0-13.255,10.745-24,24-24h644.8c5.813,0,11.429,2.11,15.804,5.938l198.4,173.6
				c5.208,4.558,8.195,11.141,8.195,18.062v660.062C1469.6,1126.917,1458.854,1137.662,1445.6,1137.662z"/>
		</g>
		<g>
			<path style="fill:#212121;" d="M1024,1494.4c-5.515,0-11.028-1.893-15.502-5.679l-644.8-545.601
				c-10.119-8.562-11.38-23.706-2.819-33.824c8.563-10.119,23.706-11.38,33.824-2.819L1024,1438.962l629.297-532.483
				c10.118-8.561,25.261-7.3,33.824,2.819c8.562,10.118,7.3,25.262-2.818,33.824l-644.8,545.601
				C1035.028,1492.508,1029.515,1494.4,1024,1494.4z"/>
		</g>
		<g>
			<path style="fill:#212121;" d="M379.215,1792.001c-7.041,0-14.016-3.083-18.756-9.009c-8.28-10.35-6.602-25.453,3.748-33.733
				l496-396.8c10.351-8.279,25.454-6.602,33.733,3.748c8.28,10.351,6.602,25.454-3.748,33.734l-496,396.8
				C389.768,1790.28,384.473,1792.001,379.215,1792.001z"/>
		</g>
		<g>
			<path style="fill:#212121;" d="M1668.784,1792.001c-5.258,0-10.552-1.72-14.978-5.26l-496-396.8
				c-10.35-8.28-12.028-23.384-3.748-33.734c8.28-10.349,23.381-12.028,33.734-3.748l496,396.8
				c10.35,8.28,12.028,23.384,3.748,33.733C1682.801,1788.918,1675.824,1792.001,1668.784,1792.001z"/>
		</g>
		<g>
			<path style="fill:#212121;" d="M1445.6,477.6H1247.2c-13.255,0-24-10.745-24-24V280c0-13.255,10.745-24,24-24s24,10.745,24,24
				v149.6H1445.6c13.255,0,24,10.745,24,24S1458.854,477.6,1445.6,477.6z"/>
		</g>
		<g>
			<path style="fill:#212121;" d="M1166.016,909.087c-3.819,0-7.653-0.911-11.165-2.757L1024,837.538L893.15,906.33
				c-8.085,4.251-17.884,3.542-25.275-1.827c-7.391-5.37-11.092-14.47-9.548-23.474l24.99-145.704l-105.86-103.188
				c-6.542-6.376-8.896-15.914-6.073-24.603c2.823-8.688,10.333-15.021,19.374-16.334l146.294-21.258l65.425-132.565
				C1006.521,429.187,1014.865,424,1024,424c9.136,0,17.479,5.187,21.521,13.378l65.425,132.565l146.295,21.258
				c9.04,1.313,16.551,7.646,19.374,16.334c2.823,8.688,0.469,18.226-6.073,24.603l-105.859,103.188l24.99,145.704
				c1.545,9.004-2.156,18.104-9.548,23.474C1175.944,907.541,1170.992,909.087,1166.016,909.087z M1024,786.423
				c3.836,0,7.672,0.919,11.168,2.757l98.976,52.035l-18.902-110.21c-1.336-7.786,1.245-15.729,6.902-21.243l80.071-78.051
				l-110.657-16.08c-7.817-1.136-14.574-6.045-18.07-13.129L1024,502.229l-49.488,100.272c-3.496,7.083-10.253,11.993-18.07,13.129
				l-110.657,16.08l80.072,78.051c5.656,5.514,8.237,13.458,6.902,21.243l-18.903,110.21l98.975-52.034
				C1016.328,787.342,1020.164,786.423,1024,786.423z"/>
		</g>
		<g>
			<path style="fill:#212121;" d="M1312,1672H736c-13.255,0-24-10.745-24-24s10.745-24,24-24h576c13.255,0,24,10.745,24,24
				S1325.255,1672,1312,1672z"/>
		</g>
		<g>
			<path style="fill:#212121;" d="M1312,1024H736c-13.255,0-24-10.745-24-24s10.745-24,24-24h576c13.255,0,24,10.745,24,24
				S1325.255,1024,1312,1024z"/>
		</g>
		<g>
			<path style="fill:#212121;" d="M1216,1120H832c-13.255,0-24-10.745-24-24s10.745-24,24-24h384c13.255,0,24,10.745,24,24
				S1229.255,1120,1216,1120z"/>
		</g>
		<g>
			<path style="fill:#212121;" d="M1168,1216H880c-13.255,0-24-10.745-24-24s10.745-24,24-24h288c13.255,0,24,10.745,24,24
				S1181.255,1216,1168,1216z"/>
		</g>
	</g>
</g>
<g id="Layer_1">
</g>
</svg>
