<?xml version="1.0" encoding="iso-8859-1"?>
<!-- Generator: Adobe Illustrator 25.2.0, SVG Export Plug-In . SVG Version: 6.00 Build 0)  -->
<svg version="1.1" xmlns="http://www.w3.org/2000/svg" xmlns:xlink="http://www.w3.org/1999/xlink" x="0px" y="0px"
	 viewBox="0 0 2048 2048" style="enable-background:new 0 0 2048 2048;" xml:space="preserve">
<g id="_x31_4236_-_ID_Card">
	<g>
		<g>
			<g>
				<path style="fill:#212121;" d="M1673.638,1786H374.362C309.097,1786,256,1732.903,256,1667.638v-629.675
					c0-65.266,53.097-118.363,118.362-118.363H924.8c13.255,0,24,10.745,24,24s-10.745,24-24,24H374.362
					c-38.798,0-70.362,31.565-70.362,70.363v629.675c0,38.798,31.564,70.362,70.362,70.362h1299.275
					c38.798,0,70.362-31.564,70.362-70.362v-629.675c0-38.798-31.564-70.363-70.362-70.363H1123.2c-13.255,0-24-10.745-24-24
					s10.745-24,24-24h550.438c65.266,0,118.362,53.097,118.362,118.363v629.675C1792,1732.903,1738.903,1786,1673.638,1786z"/>
			</g>
			<g>
				<path style="fill:#212121;" d="M949.6,1686.8H404c-13.255,0-24-10.745-24-24v-496c0-13.255,10.745-24,24-24h545.6
					c13.255,0,24,10.745,24,24v496C973.6,1676.055,962.855,1686.8,949.6,1686.8z M428,1638.8h497.6v-448H428V1638.8z"/>
			</g>
			<g>
				<path style="fill:#212121;" d="M850.4,1686.8H503.2c-13.255,0-24-10.745-24-24v-80c0-105.869,86.13-192,192-192H682.4
					c105.869,0,192,86.131,192,192v80C874.4,1676.055,863.655,1686.8,850.4,1686.8z M527.2,1638.8h299.2v-56
					c0-79.402-64.598-144-144-144H671.2c-79.401,0-144,64.598-144,144V1638.8z"/>
			</g>
			<g>
				<path style="fill:#212121;" d="M676.8,1438.8c-54.258,0-98.4-44.142-98.4-98.399s44.142-98.4,98.4-98.4
					c54.258,0,98.4,44.143,98.4,98.4S731.058,1438.8,676.8,1438.8z M676.8,1290c-27.791,0-50.4,22.609-50.4,50.4
					c0,27.79,22.609,50.399,50.4,50.399c27.791,0,50.4-22.609,50.4-50.399C727.2,1312.609,704.591,1290,676.8,1290z"/>
			</g>
			<g>
				<path style="fill:#212121;" d="M1668.8,1190.8h-620c-13.255,0-24-10.745-24-24s10.745-24,24-24h620c13.255,0,24,10.745,24,24
					S1682.055,1190.8,1668.8,1190.8z"/>
			</g>
			<g>
				<path style="fill:#212121;" d="M1668.8,1290h-620c-13.255,0-24-10.745-24-24s10.745-24,24-24h620c13.255,0,24,10.745,24,24
					S1682.055,1290,1668.8,1290z"/>
			</g>
			<g>
				<path style="fill:#212121;" d="M1668.8,1389.2h-620c-13.255,0-24-10.745-24-24s10.745-24,24-24h620c13.255,0,24,10.745,24,24
					S1682.055,1389.2,1668.8,1389.2z"/>
			</g>
			<g>
				<path style="fill:#212121;" d="M1668.8,1488.4h-620c-13.255,0-24-10.745-24-24s10.745-24,24-24h620c13.255,0,24,10.745,24,24
					S1682.055,1488.4,1668.8,1488.4z"/>
			</g>
			<g>
				<path style="fill:#212121;" d="M1668.8,1587.6h-620c-13.255,0-24-10.745-24-24s10.745-24,24-24h620c13.255,0,24,10.745,24,24
					S1682.055,1587.6,1668.8,1587.6z"/>
			</g>
			<g>
				<path style="fill:#212121;" d="M1668.8,1686.8h-620c-13.255,0-24-10.745-24-24s10.745-24,24-24h620c13.255,0,24,10.745,24,24
					S1682.055,1686.8,1668.8,1686.8z"/>
			</g>
			<g>
				<path style="fill:#212121;" d="M1027.2,1091.6h-6.4c-66.168,0-120-53.832-120-120V770c0-13.255,10.745-24,24-24h198.4
					c13.255,0,24,10.745,24,24v201.6C1147.2,1037.768,1093.368,1091.6,1027.2,1091.6z M948.8,794v177.6c0,39.701,32.299,72,72,72
					h6.4c39.701,0,72-32.299,72-72V794H948.8z"/>
			</g>
			<g>
				<path style="fill:#212121;" d="M1024,942.8c-0.78,0-1.58-0.04-2.36-0.12s-1.56-0.2-2.33-0.35c-0.76-0.15-1.529-0.35-2.279-0.58
					c-0.74-0.22-1.49-0.49-2.21-0.79c-0.72-0.3-1.43-0.63-2.12-1c-0.69-0.37-1.37-0.77-2.02-1.21c-0.66-0.43-1.29-0.9-1.9-1.39
					c-0.61-0.5-1.2-1.04-1.75-1.59c-0.55-0.55-1.09-1.14-1.59-1.75c-0.49-0.61-0.96-1.24-1.39-1.9c-0.44-0.65-0.84-1.33-1.21-2.02
					c-0.36-0.68-0.7-1.4-1-2.12c-0.3-0.72-0.57-1.47-0.79-2.21c-0.23-0.75-0.43-1.52-0.58-2.28c-0.16-0.77-0.27-1.55-0.35-2.33
					c-0.08-0.78-0.12-1.58-0.12-2.36s0.04-1.58,0.12-2.36c0.08-0.78,0.19-1.56,0.35-2.33c0.15-0.76,0.35-1.53,0.58-2.28
					c0.22-0.75,0.49-1.49,0.79-2.21c0.3-0.72,0.64-1.44,1-2.12c0.37-0.69,0.77-1.37,1.21-2.02c0.43-0.66,0.9-1.29,1.39-1.9
					c0.5-0.61,1.04-1.2,1.59-1.75c0.55-0.55,1.14-1.09,1.75-1.59c0.61-0.49,1.24-0.96,1.9-1.39c0.65-0.44,1.33-0.84,2.02-1.21
					c0.69-0.37,1.4-0.7,2.12-1c0.72-0.3,1.47-0.57,2.21-0.79c0.75-0.23,1.52-0.43,2.279-0.58c0.771-0.15,1.55-0.27,2.33-0.35
					c1.57-0.16,3.15-0.16,4.72,0c0.78,0.08,1.561,0.2,2.33,0.35c0.761,0.15,1.53,0.35,2.28,0.58c0.74,0.22,1.49,0.49,2.21,0.79
					c0.72,0.3,1.43,0.63,2.12,1c0.69,0.37,1.37,0.77,2.02,1.21c0.65,0.43,1.29,0.9,1.9,1.39c0.61,0.5,1.2,1.04,1.75,1.59
					c0.55,0.55,1.09,1.14,1.59,1.75c0.49,0.61,0.96,1.24,1.391,1.9c0.439,0.65,0.84,1.33,1.21,2.02c0.359,0.68,0.699,1.4,1,2.12
					c0.3,0.72,0.569,1.46,0.79,2.21c0.229,0.75,0.43,1.52,0.58,2.28c0.159,0.77,0.27,1.55,0.35,2.33c0.08,0.78,0.12,1.58,0.12,2.36
					s-0.04,1.58-0.12,2.36c-0.08,0.78-0.19,1.56-0.35,2.33c-0.15,0.76-0.351,1.53-0.58,2.28c-0.221,0.74-0.49,1.49-0.79,2.21
					c-0.301,0.72-0.641,1.44-1,2.12c-0.37,0.69-0.771,1.37-1.21,2.02c-0.431,0.66-0.9,1.29-1.391,1.9c-0.5,0.61-1.04,1.2-1.59,1.75
					c-0.55,0.55-1.14,1.09-1.75,1.59c-0.61,0.49-1.25,0.96-1.9,1.39c-0.649,0.44-1.329,0.84-2.02,1.21c-0.69,0.37-1.4,0.7-2.12,1
					c-0.72,0.3-1.47,0.57-2.21,0.79c-0.75,0.23-1.52,0.43-2.28,0.58c-0.77,0.15-1.55,0.27-2.33,0.35
					C1025.58,942.76,1024.78,942.8,1024,942.8z"/>
			</g>
		</g>
		<g>
			<path style="fill:#212121;" d="M1247.2,868.4h-124c-13.255,0-24-10.745-24-24s10.745-24,24-24h100V670H824.8v150.4h100
				c13.255,0,24,10.745,24,24s-10.745,24-24,24h-124c-13.255,0-24-10.745-24-24V646c0-13.255,10.745-24,24-24h446.4
				c13.255,0,24,10.745,24,24v198.4C1271.2,857.655,1260.455,868.4,1247.2,868.4z"/>
		</g>
	</g>
</g>
<g id="Layer_1">
</g>
</svg>
