<?xml version="1.0" encoding="iso-8859-1"?>
<!-- Generator: Adobe Illustrator 25.2.0, SVG Export Plug-In . SVG Version: 6.00 Build 0)  -->
<svg version="1.1" xmlns="http://www.w3.org/2000/svg" xmlns:xlink="http://www.w3.org/1999/xlink" x="0px" y="0px"
	 viewBox="0 0 2048 2048" style="enable-background:new 0 0 2048 2048;" xml:space="preserve">
<g id="_x31_4235_-_Host">
	<g>
		<g>
			<path style="fill:#212121;" d="M1594.4,1792H453.6c-13.255,0-24-10.745-24-24v-446.4c0-13.255,10.745-24,24-24h1140.8
				c13.255,0,24,10.745,24,24V1768C1618.4,1781.255,1607.655,1792,1594.4,1792z M477.6,1744h1092.8v-398.4H477.6V1744z"/>
		</g>
		<g>
			<path style="fill:#212121;" d="M1668.8,1345.6H379.2c-13.255,0-24-10.745-24-24v-148.8c0-13.255,10.745-24,24-24h1289.6
				c13.255,0,24,10.745,24,24v148.8C1692.8,1334.854,1682.055,1345.6,1668.8,1345.6z M403.2,1297.6h1241.6v-100.8H403.2V1297.6z"/>
		</g>
		<g>
			<path style="fill:#212121;" d="M1495.2,1692.8H552.8c-13.255,0-24-10.745-24-24v-248c0-13.255,10.745-24,24-24h942.4
				c13.255,0,24,10.745,24,24v248C1519.2,1682.055,1508.455,1692.8,1495.2,1692.8z M576.8,1644.8h894.4v-200H576.8V1644.8z"/>
		</g>
		<g>
			<path style="fill:#212121;" d="M1396,1568.8H652c-13.255,0-24-10.745-24-24s10.745-24,24-24h744c13.255,0,24,10.745,24,24
				S1409.255,1568.8,1396,1568.8z"/>
		</g>
		<g>
			<path style="fill:#212121;" d="M1405.58,1196.8H642.42c-13.255,0-24-10.745-24-24v-52.203c0-75.375,29.353-146.238,82.65-199.536
				c53.298-53.297,124.161-82.65,199.535-82.65c10.511,0,19.062-8.551,19.062-19.062v-35.982c0-13.255,10.745-24,24-24
				s24,10.745,24,24v35.982c0,36.978-30.083,67.062-67.062,67.062c-129.13,0-234.186,105.055-234.186,234.186v28.203h715.16v-28.203
				c0-129.13-105.055-234.186-234.186-234.186c-36.978,0-67.062-30.083-67.062-67.062v-35.982c0-13.255,10.745-24,24-24
				s24,10.745,24,24v35.982c0,10.511,8.551,19.062,19.061,19.062c75.375,0,146.238,29.353,199.536,82.65
				c53.298,53.298,82.65,124.161,82.65,199.536v52.203C1429.58,1186.055,1418.835,1196.8,1405.58,1196.8z"/>
		</g>
		<g>
			<path style="fill:#212121;" d="M1024,826.162c-112.898,0-204.748-91.85-204.748-204.748V428.662
				c0-95.206,77.456-172.662,172.662-172.662h64.172c95.206,0,172.662,77.456,172.662,172.662v192.751
				C1228.748,734.312,1136.898,826.162,1024,826.162z M991.914,304c-68.739,0-124.662,55.923-124.662,124.662v192.751
				c0,86.431,70.317,156.748,156.748,156.748c86.431,0,156.748-70.317,156.748-156.748V428.662
				c0-68.739-55.923-124.662-124.662-124.662H991.914z"/>
		</g>
		<g>
			<path style="fill:#212121;" d="M1024,710.218c-17.482,0-34.964-3.984-50.899-11.952c-11.855-5.928-16.661-20.344-10.733-32.2
				s20.343-16.661,32.199-10.733c18.43,9.216,40.436,9.215,58.866,0c11.855-5.927,26.271-1.123,32.199,10.733
				c5.928,11.855,1.123,26.271-10.732,32.2C1058.964,706.234,1041.481,710.218,1024,710.218z"/>
		</g>
		<g>
			<path style="fill:#212121;" d="M751.2,1196.8c-13.255,0-24-10.745-24-24V1098.4c0-13.255,10.745-24,24-24s24,10.745,24,24v74.399
				C775.2,1186.055,764.455,1196.8,751.2,1196.8z"/>
		</g>
		<g>
			<path style="fill:#212121;" d="M1296.8,1196.8c-13.255,0-24-10.745-24-24V1098.4c0-13.255,10.745-24,24-24s24,10.745,24,24
				v74.399C1320.8,1186.055,1310.055,1196.8,1296.8,1196.8z"/>
		</g>
		<g>
			<path style="fill:#212121;" d="M883.418,1047.076c-4.162,0-8.322-1.081-12.046-3.242c-7.399-4.294-11.954-12.202-11.954-20.758
				V862.974c0-8.542,4.541-16.441,11.922-20.74c7.382-4.298,16.494-4.349,23.922-0.134l140.582,79.77
				c7.503,4.257,12.144,12.212,12.156,20.837s-4.604,16.595-12.093,20.874l-140.582,80.333
				C891.636,1046.022,887.526,1047.076,883.418,1047.076z M907.418,904.187v77.533l68.08-38.903L907.418,904.187z"/>
		</g>
		<g>
			<path style="fill:#212121;" d="M1164.582,1047.076c-4.108,0-8.218-1.054-11.907-3.162l-140.582-80.333
				c-7.489-4.279-12.106-12.249-12.093-20.874s4.654-16.581,12.156-20.837l140.582-79.77c7.431-4.216,16.538-4.166,23.923,0.134
				c7.382,4.299,11.922,12.197,11.922,20.74v160.102c0,8.556-4.554,16.464-11.954,20.758
				C1172.904,1045.995,1168.744,1047.076,1164.582,1047.076z M1072.502,942.817l68.08,38.903v-77.533L1072.502,942.817z"/>
		</g>
		<g>
			<path style="fill:#212121;" d="M1024,1196.8c-13.255,0-24-10.745-24-24V942.744c0-13.255,10.745-24,24-24s24,10.745,24,24V1172.8
				C1048,1186.055,1037.255,1196.8,1024,1196.8z"/>
		</g>
		<g>
			<g>
				<path style="fill:#212121;" d="M882.632,527.184c-21.626,0-36.351-3.077-37.261-3.272c-12.96-2.777-21.216-15.536-18.438-28.496
					c2.772-12.936,15.486-21.186,28.419-18.455c0.66,0.133,26.443,5.22,57.628-0.442c39.921-7.248,70.299-28.298,90.289-62.567
					c6.679-11.45,21.375-15.318,32.824-8.638c11.449,6.679,15.316,21.375,8.638,32.824c-27.351,46.887-70.636,76.613-125.175,85.962
					C906.095,526.407,893.491,527.184,882.632,527.184z"/>
			</g>
			<g>
				<path style="fill:#212121;" d="M1165.368,527.184c-10.861,0-23.462-0.776-36.924-3.084
					c-54.539-9.349-97.824-39.075-125.175-85.962c-6.679-11.449-2.811-26.145,8.638-32.824c11.451-6.679,26.145-2.811,32.823,8.638
					c19.99,34.269,50.367,55.319,90.289,62.567c31.433,5.706,57.38,0.493,57.639,0.44c12.963-2.779,25.676,5.487,28.452,18.448
					c2.777,12.961-5.521,25.728-18.482,28.505C1201.719,524.106,1186.99,527.184,1165.368,527.184z"/>
			</g>
		</g>
	</g>
</g>
<g id="Layer_1">
</g>
</svg>
