<?xml version="1.0" encoding="iso-8859-1"?>
<!-- Generator: Adobe Illustrator 25.2.0, SVG Export Plug-In . SVG Version: 6.00 Build 0)  -->
<svg version="1.1" xmlns="http://www.w3.org/2000/svg" xmlns:xlink="http://www.w3.org/1999/xlink" x="0px" y="0px"
	 viewBox="0 0 2048 2048" style="enable-background:new 0 0 2048 2048;" xml:space="preserve">
<g id="_x31_4242_-_Microphone">
	<g>
		<g>
			<path style="fill:#212121;" d="M1164.377,1792H883.623c-13.255,0-24-10.745-24-24v-48.453c0-79.401,64.598-144,144-144h40.755
				c79.401,0,143.999,64.599,143.999,144V1768C1188.377,1781.255,1177.632,1792,1164.377,1792z M907.623,1744h232.754v-24.453
				c0-52.935-43.065-96-95.999-96h-40.755c-52.935,0-96,43.065-96,96V1744z"/>
		</g>
		<g>
			<path style="fill:#212121;" d="M1024,1623.547c-13.255,0-24-10.745-24-24V1459.17c0-13.255,10.745-24,24-24s24,10.745,24,24
				v140.377C1048,1612.802,1037.255,1623.547,1024,1623.547z"/>
		</g>
		<g>
			<path style="fill:#212121;" d="M659.019,809.358c-13.255,0-24-10.745-24-24V673.057c0-13.255,10.745-24,24-24s24,10.745,24,24
				v112.302C683.019,798.613,672.274,809.358,659.019,809.358z"/>
		</g>
		<g>
			<path style="fill:#212121;" d="M546.717,893.585c-13.255,0-24-10.745-24-24V588.83c0-13.255,10.745-24,24-24s24,10.745,24,24
				v280.755C570.717,882.84,559.972,893.585,546.717,893.585z"/>
		</g>
		<g>
			<path style="fill:#212121;" d="M322.113,949.736c-13.255,0-24-10.745-24-24V532.679c0-13.255,10.745-24,24-24s24,10.745,24,24
				v393.057C346.113,938.991,335.368,949.736,322.113,949.736z"/>
		</g>
		<g>
			<path style="fill:#212121;" d="M434.415,865.509c-13.255,0-24-10.745-24-24V616.906c0-13.255,10.745-24,24-24s24,10.745,24,24
				v224.604C458.415,854.764,447.67,865.509,434.415,865.509z"/>
		</g>
		<g>
			<path style="fill:#212121;" d="M1388.981,809.358c-13.255,0-24-10.745-24-24V673.057c0-13.255,10.745-24,24-24s24,10.745,24,24
				v112.302C1412.981,798.613,1402.236,809.358,1388.981,809.358z"/>
		</g>
		<g>
			<path style="fill:#212121;" d="M1501.283,893.585c-13.255,0-24-10.745-24-24V588.83c0-13.255,10.745-24,24-24s24,10.745,24,24
				v280.755C1525.283,882.84,1514.538,893.585,1501.283,893.585z"/>
		</g>
		<g>
			<path style="fill:#212121;" d="M1725.887,949.736c-13.255,0-24-10.745-24-24V532.679c0-13.255,10.745-24,24-24s24,10.745,24,24
				v393.057C1749.887,938.991,1739.142,949.736,1725.887,949.736z"/>
		</g>
		<g>
			<path style="fill:#212121;" d="M1613.585,865.509c-13.255,0-24-10.745-24-24V616.906c0-13.255,10.745-24,24-24s24,10.745,24,24
				v224.604C1637.585,854.764,1626.84,865.509,1613.585,865.509z"/>
		</g>
		<g>
			<path style="fill:#212121;" d="M1024,1370.868c-73.904,0-143.384-28.779-195.642-81.038
				c-52.258-52.258-81.038-121.738-81.038-195.642V532.679c0-73.904,28.78-143.384,81.038-195.642S950.096,256,1024,256
				c73.903,0,143.384,28.78,195.642,81.038c52.259,52.258,81.038,121.738,81.038,195.642v561.509
				c0,73.903-28.779,143.384-81.038,195.642C1167.384,1342.089,1097.903,1370.868,1024,1370.868z M1024,304
				c-126.094,0-228.679,102.585-228.679,228.679v561.509c0,126.095,102.585,228.68,228.679,228.68
				c126.095,0,228.68-102.585,228.68-228.68V532.679C1252.68,406.585,1150.095,304,1024,304z"/>
		</g>
		<g>
			<path style="fill:#212121;" d="M883.623,921.66H771.321c-13.255,0-24-10.745-24-24s10.745-24,24-24h112.302
				c13.255,0,24,10.745,24,24S896.877,921.66,883.623,921.66z"/>
		</g>
		<g>
			<path style="fill:#212121;" d="M1276.68,921.66h-112.303c-13.255,0-24-10.745-24-24s10.745-24,24-24h112.303
				c13.255,0,24,10.745,24,24S1289.935,921.66,1276.68,921.66z"/>
		</g>
		<g>
			<path style="fill:#212121;" d="M1276.68,781.283H771.321c-13.255,0-24-10.745-24-24s10.745-24,24-24h505.359
				c13.255,0,24,10.745,24,24S1289.935,781.283,1276.68,781.283z"/>
		</g>
		<g>
			<path style="fill:#212121;" d="M883.623,528.604H772.865c-13.255,0-24-10.745-24-24s10.745-24,24-24h110.758
				c13.255,0,24,10.745,24,24S896.877,528.604,883.623,528.604z"/>
		</g>
		<g>
			<path style="fill:#212121;" d="M883.623,640.906H771.321c-13.255,0-24-10.745-24-24s10.745-24,24-24h112.302
				c13.255,0,24,10.745,24,24S896.877,640.906,883.623,640.906z"/>
		</g>
		<g>
			<path style="fill:#212121;" d="M1275.135,528.604h-110.758c-13.255,0-24-10.745-24-24s10.745-24,24-24h110.758
				c13.255,0,24,10.745,24,24S1288.39,528.604,1275.135,528.604z"/>
		</g>
		<g>
			<path style="fill:#212121;" d="M1276.68,640.906h-112.303c-13.255,0-24-10.745-24-24s10.745-24,24-24h112.303
				c13.255,0,24,10.745,24,24S1289.935,640.906,1276.68,640.906z"/>
		</g>
		<g>
			<path style="fill:#212121;" d="M883.623,1033.963H772.865c-13.255,0-24-10.746-24-24c0-13.255,10.745-24,24-24h110.758
				c13.255,0,24,10.745,24,24C907.623,1023.217,896.877,1033.963,883.623,1033.963z"/>
		</g>
		<g>
			<path style="fill:#212121;" d="M883.623,1146.264H772.865c-13.255,0-24-10.745-24-24s10.745-24,24-24h110.758
				c13.255,0,24,10.745,24,24S896.877,1146.264,883.623,1146.264z"/>
		</g>
		<g>
			<path style="fill:#212121;" d="M1275.135,1033.963h-110.758c-13.255,0-24-10.746-24-24c0-13.255,10.745-24,24-24h110.758
				c13.255,0,24,10.745,24,24C1299.135,1023.217,1288.39,1033.963,1275.135,1033.963z"/>
		</g>
		<g>
			<path style="fill:#212121;" d="M1275.135,1146.264h-110.758c-13.255,0-24-10.745-24-24s10.745-24,24-24h110.758
				c13.255,0,24,10.745,24,24S1288.39,1146.264,1275.135,1146.264z"/>
		</g>
		<g>
			<path style="fill:#212121;" d="M1024,1370.868c-13.255,0-24-10.745-24-24v-168.453c0-13.255,10.745-24,24-24s24,10.745,24,24
				v168.453C1048,1360.123,1037.255,1370.868,1024,1370.868z"/>
		</g>
		<g>
			<path style="fill:#212121;" d="M1024,472.453c-13.255,0-24-10.745-24-24V280c0-13.255,10.745-24,24-24s24,10.745,24,24v168.453
				C1048,461.708,1037.255,472.453,1024,472.453z"/>
		</g>
		<g>
			<path style="fill:#212121;" d="M1024,1483.17c-52.501,0-103.445-10.288-151.417-30.578
				c-46.322-19.593-87.919-47.637-123.635-83.352c-35.715-35.716-63.759-77.312-83.352-123.636
				c-20.29-47.971-30.578-98.915-30.578-151.416V953.812c0-13.255,10.745-24,24-24s24,10.745,24,24v140.377
				c0,188.018,152.963,340.981,340.981,340.981s340.981-152.964,340.981-340.981V953.812c0-13.255,10.745-24,24-24s24,10.745,24,24
				v140.377c0,52.501-10.288,103.445-30.578,151.416c-19.593,46.323-47.637,87.92-83.353,123.636
				c-35.715,35.715-77.312,63.759-123.635,83.352C1127.445,1472.882,1076.502,1483.17,1024,1483.17z"/>
		</g>
	</g>
</g>
<g id="Layer_1">
</g>
</svg>
