<?xml version="1.0" encoding="iso-8859-1"?>
<!-- Generator: Adobe Illustrator 25.2.0, SVG Export Plug-In . SVG Version: 6.00 Build 0)  -->
<svg version="1.1" xmlns="http://www.w3.org/2000/svg" xmlns:xlink="http://www.w3.org/1999/xlink" x="0px" y="0px"
	 viewBox="0 0 2048 2048" style="enable-background:new 0 0 2048 2048;" xml:space="preserve">
<g id="_x31_4244_-_Opening_Ceremony">
	<g>
		<g>
			<g>
				<g>
					<path style="fill:#212121;" d="M706.518,1692.252c-32.908,0-63.846-12.815-87.116-36.085
						c-23.269-23.269-36.084-54.207-36.084-87.115s12.815-63.847,36.084-87.116c48.036-48.035,126.195-48.035,174.231,0
						c23.27,23.27,36.084,54.208,36.084,87.116s-12.815,63.846-36.084,87.115h0c0,0,0,0,0,0
						C770.364,1679.437,739.425,1692.252,706.518,1692.252z M706.518,1493.887c-19.259,0-38.513,7.328-53.174,21.99
						c-14.204,14.203-22.026,33.088-22.026,53.175s7.822,38.971,22.025,53.174c14.204,14.204,33.088,22.026,53.175,22.026
						c20.086,0,38.971-7.822,53.174-22.026l0,0c14.204-14.203,22.025-33.087,22.025-53.174s-7.822-38.972-22.025-53.175
						C745.034,1501.219,725.772,1493.887,706.518,1493.887z"/>
				</g>
				<g>
					<path style="fill:#212121;" d="M706.517,1790.8c-59.231,0-114.917-23.065-156.8-64.948s-64.948-97.568-64.948-156.8
						s23.065-114.917,64.948-156.8c31.807-31.807,71.912-52.96,115.98-61.172c37.583-7.005,75.907-4.274,111.786,7.847
						l52.353-52.354c9.373-9.373,24.568-9.373,33.941,0l105.218,105.218c4.501,4.501,7.029,10.605,7.029,16.971
						s-2.528,12.47-7.029,16.971l-52.354,52.353c12.121,35.88,14.851,74.202,7.847,111.786
						c-8.212,44.068-29.365,84.174-61.171,115.98C821.435,1767.734,765.749,1790.8,706.517,1790.8z M706.313,1395.171
						c-45.1,0-89.284,17.651-122.654,51.022c-67.745,67.744-67.745,177.973,0,245.717s177.974,67.744,245.717,0
						c50.249-50.248,64.859-125.024,37.223-190.501c-3.797-8.997-1.765-19.398,5.141-26.304l46.344-46.344l-71.276-71.276
						l-46.344,46.344c-6.905,6.905-17.306,8.937-26.303,5.141C752.168,1399.688,729.122,1395.171,706.313,1395.171z"/>
				</g>
				<g>
					<path style="fill:#212121;" d="M1129.225,1275.569c-6.143,0-12.284-2.343-16.971-7.029c-9.372-9.372-9.372-24.568,0-33.941
						l366.42-366.43c23.574-23.574,36.557-54.913,36.557-88.244c0-25.19-7.413-49.242-21.206-69.663l-453.054,453.054
						c-9.373,9.373-24.568,9.373-33.941,0c-9.373-9.373-9.373-24.568,0-33.941l471.645-471.645c9.373-9.371,24.568-9.373,33.941,0
						c32.64,32.639,50.615,76.036,50.615,122.195c0,46.152-17.976,89.545-50.615,122.185l-366.42,366.43
						C1141.509,1273.226,1135.366,1275.569,1129.225,1275.569z"/>
				</g>
				<g>
					<path style="fill:#212121;" d="M952.028,1452.766c-6.365,0-12.47-2.528-16.971-7.029l-105.224-105.225
						c-9.373-9.373-9.373-24.568,0-33.941l71.972-71.972c9.373-9.373,24.568-9.373,33.941,0c9.373,9.373,9.373,24.568,0,33.941
						l-55.001,55.001l71.283,71.283l55.001-55.001c9.373-9.373,24.568-9.373,33.941,0c9.372,9.373,9.372,24.568,0,33.941
						l-71.972,71.972C964.498,1450.237,958.394,1452.766,952.028,1452.766z"/>
				</g>
			</g>
			<g>
				<g>
					<path style="fill:#212121;" d="M1341.482,1692.252c-32.908,0-63.847-12.815-87.115-36.085l0,0l0,0
						c-23.27-23.269-36.085-54.207-36.085-87.115s12.815-63.847,36.085-87.116c48.035-48.035,126.194-48.035,174.231,0
						c48.035,48.036,48.035,126.196,0,174.231C1405.329,1679.437,1374.391,1692.252,1341.482,1692.252z M1341.482,1493.887
						c-19.259,0-38.512,7.328-53.174,21.99c-14.204,14.203-22.026,33.088-22.026,53.175s7.822,38.971,22.026,53.174l0,0
						c14.203,14.204,33.087,22.026,53.174,22.026s38.972-7.822,53.175-22.026c29.32-29.32,29.32-77.028,0-106.349
						C1379.999,1501.219,1360.737,1493.887,1341.482,1493.887z"/>
				</g>
				<g>
					<path style="fill:#212121;" d="M1341.482,1790.8c-59.231,0-114.917-23.065-156.8-64.948
						c-31.807-31.807-52.959-71.912-61.171-115.98c-7.005-37.584-4.274-75.906,7.847-111.786l-52.354-52.353
						c-9.372-9.373-9.372-24.568,0-33.941l105.217-105.218c9.373-9.373,24.568-9.373,33.941,0l52.354,52.354
						c35.88-12.12,74.2-14.851,111.786-7.847c44.068,8.212,84.173,29.365,115.979,61.172c41.883,41.883,64.948,97.568,64.948,156.8
						s-23.065,114.917-64.948,156.8S1400.714,1790.8,1341.482,1790.8z M1129.917,1428.762l46.344,46.344
						c6.905,6.905,8.938,17.307,5.141,26.304c-27.637,65.477-13.025,140.253,37.223,190.501c67.744,67.744,177.973,67.744,245.717,0
						s67.744-177.973,0-245.717c-50.247-50.249-125.022-64.861-190.501-37.224c-8.997,3.798-19.397,1.763-26.303-5.141
						l-46.345-46.344L1129.917,1428.762z"/>
				</g>
				<g>
					<path style="fill:#212121;" d="M1095.972,1452.766c-6.143,0-12.284-2.343-16.971-7.029L623.446,990.17
						c-9.373-9.373-9.373-24.569,0-33.941c9.373-9.373,24.569-9.372,33.941,0l438.584,438.594l71.283-71.283l-333.371-333.37
						c-9.373-9.373-9.373-24.569,0-33.941c9.373-9.372,24.568-9.372,33.941,0l350.342,350.341c9.372,9.373,9.372,24.568,0,33.941
						l-105.225,105.225C1108.256,1450.423,1102.114,1452.766,1095.972,1452.766z"/>
				</g>
				<g>
					<path style="fill:#212121;" d="M515.542,848.406c-10.215,0-19.684-6.573-22.897-16.836c-5.226-16.69-7.875-34.066-7.875-51.645
						c0-46.159,17.976-89.555,50.615-122.195c9.373-9.372,24.568-9.372,33.941,0l149.699,149.699c9.373,9.373,9.373,24.569,0,33.941
						c-9.373,9.372-24.568,9.372-33.941,0L553.976,710.262c-13.793,20.421-21.206,44.473-21.206,69.663
						c0,12.709,1.912,25.26,5.683,37.304c3.96,12.649-3.084,26.114-15.733,30.075C520.333,848.051,517.917,848.406,515.542,848.406z
						"/>
				</g>
			</g>
			<g>
				<path style="fill:#212121;" d="M1024,1270c-6.143,0-12.284-2.343-16.971-7.029l-24.8-24.8c-9.373-9.373-9.373-24.568,0-33.941
					c9.373-9.373,24.568-9.373,33.941,0l24.8,24.8c9.372,9.373,9.372,24.568,0,33.941C1036.284,1267.657,1030.143,1270,1024,1270z"
					/>
			</g>
			<g>
				<path style="fill:#212121;" d="M1768,997.2h-360.416c-13.255,0-24-10.745-24-24s10.745-24,24-24h302.475l-33.43-33.43
					c-4.501-4.501-7.029-10.605-7.029-16.971s2.528-12.47,7.029-16.971l33.43-33.429h-177.606c-13.255,0-24-10.745-24-24
					s10.745-24,24-24H1768c9.707,0,18.458,5.848,22.173,14.816c3.715,8.968,1.661,19.291-5.202,26.155l-57.43,57.429l57.43,57.43
					c6.864,6.864,8.917,17.187,5.202,26.155S1777.707,997.2,1768,997.2z"/>
			</g>
			<g>
				<path style="fill:#212121;" d="M1197.146,997.2H280c-9.707,0-18.458-5.847-22.173-14.815s-1.661-19.291,5.203-26.155
					l57.43-57.43l-57.43-57.429c-6.864-6.864-8.917-17.187-5.203-26.155c3.715-8.968,12.466-14.815,22.173-14.815h1065.945
					c13.255,0,24,10.745,24,24s-10.745,24-24,24H337.941l33.43,33.429c9.373,9.373,9.373,24.569,0,33.941l-33.43,33.43h859.205
					c13.255,0,24,10.745,24,24S1210.4,997.2,1197.146,997.2z"/>
			</g>
		</g>
		<g>
			<path style="fill:#212121;" d="M1024,699.6c-40.583,0-73.6-33.017-73.6-73.6s33.017-73.6,73.6-73.6s73.6,33.017,73.6,73.6
				S1064.583,699.6,1024,699.6z M1024,600.4c-14.116,0-25.6,11.484-25.6,25.6s11.484,25.6,25.6,25.6c14.115,0,25.6-11.484,25.6-25.6
				S1038.115,600.4,1024,600.4z"/>
		</g>
		<g>
			<path style="fill:#212121;" d="M1371.2,575.6c-40.583,0-73.601-33.017-73.601-73.6s33.018-73.6,73.601-73.6
				s73.6,33.017,73.6,73.6S1411.783,575.6,1371.2,575.6z M1371.2,476.4c-14.116,0-25.601,11.484-25.601,25.6
				s11.484,25.6,25.601,25.6c14.115,0,25.6-11.484,25.6-25.6S1385.315,476.4,1371.2,476.4z"/>
		</g>
		<g>
			<path style="fill:#212121;" d="M652,476.4c-40.583,0-73.6-33.017-73.6-73.6s33.017-73.6,73.6-73.6s73.6,33.017,73.6,73.6
				S692.583,476.4,652,476.4z M652,377.2c-14.116,0-25.6,11.484-25.6,25.6s11.484,25.6,25.6,25.6s25.6-11.484,25.6-25.6
				S666.116,377.2,652,377.2z"/>
		</g>
		<g>
			<g>
				<g>
					<path style="fill:#212121;" d="M1172.8,402c-13.255,0-24-10.745-24-24v-24.8c0-13.255,10.745-24,24-24s24,10.745,24,24V378
						C1196.8,391.255,1186.055,402,1172.8,402z"/>
				</g>
				<g>
					<path style="fill:#212121;" d="M1172.8,526c-13.255,0-24-10.745-24-24v-24.8c0-13.255,10.745-24,24-24s24,10.745,24,24V502
						C1196.8,515.255,1186.055,526,1172.8,526z"/>
				</g>
			</g>
			<g>
				<g>
					<path style="fill:#212121;" d="M1247.2,451.6h-24.8c-13.255,0-24-10.745-24-24s10.745-24,24-24h24.8c13.255,0,24,10.745,24,24
						S1260.455,451.6,1247.2,451.6z"/>
				</g>
				<g>
					<path style="fill:#212121;" d="M1123.2,451.6h-24.8c-13.255,0-24-10.745-24-24s10.745-24,24-24h24.8c13.255,0,24,10.745,24,24
						S1136.455,451.6,1123.2,451.6z"/>
				</g>
			</g>
		</g>
		<g>
			<g>
				<g>
					<path style="fill:#212121;" d="M776,600.4c-13.255,0-24-10.745-24-24v-24.8c0-13.255,10.745-24,24-24s24,10.745,24,24v24.8
						C800,589.655,789.255,600.4,776,600.4z"/>
				</g>
				<g>
					<path style="fill:#212121;" d="M776,724.4c-13.255,0-24-10.745-24-24v-24.8c0-13.255,10.745-24,24-24s24,10.745,24,24v24.8
						C800,713.655,789.255,724.4,776,724.4z"/>
				</g>
			</g>
			<g>
				<g>
					<path style="fill:#212121;" d="M850.4,650h-24.8c-13.255,0-24-10.745-24-24s10.745-24,24-24h24.8c13.255,0,24,10.745,24,24
						S863.655,650,850.4,650z"/>
				</g>
				<g>
					<path style="fill:#212121;" d="M726.4,650h-24.8c-13.255,0-24-10.745-24-24s10.745-24,24-24h24.8c13.255,0,24,10.745,24,24
						S739.655,650,726.4,650z"/>
				</g>
			</g>
		</g>
	</g>
</g>
<g id="Layer_1">
</g>
</svg>
