<?xml version="1.0" encoding="iso-8859-1"?>
<!-- Generator: Adobe Illustrator 25.2.0, SVG Export Plug-In . SVG Version: 6.00 Build 0)  -->
<svg version="1.1" xmlns="http://www.w3.org/2000/svg" xmlns:xlink="http://www.w3.org/1999/xlink" x="0px" y="0px"
	 viewBox="0 0 2048 2048" style="enable-background:new 0 0 2048 2048;" xml:space="preserve">
<g id="_x31_4254_-_Saxophone">
	<g>
		<g>
			<path style="fill:#212121;" d="M875.2,1790L875.2,1790c-56.797,0-111.908-11.129-163.802-33.078
				c-50.111-21.195-95.111-51.533-133.749-90.171s-68.976-83.638-90.171-133.749c-21.949-51.894-33.079-107.005-33.079-163.802v-248
				c0-13.255,10.745-24,24-24H776c13.255,0,24,10.745,24,24V1394c0,68.814,55.985,124.8,124.8,124.8s124.8-55.985,124.8-124.8
				V719.088c0-77.859,30.32-151.059,85.375-206.113c55.056-55.055,128.255-85.375,206.114-85.375H1619.2c13.255,0,24,10.745,24,24
				v148.8c0,13.255-10.745,24-24,24h-222.035c-55.782,0-101.165,45.382-101.165,101.165V1369.2
				c0,56.797-11.129,111.908-33.078,163.802c-21.195,50.111-51.533,95.111-90.171,133.749s-83.638,68.976-133.749,90.171
				C987.108,1778.871,931.997,1790,875.2,1790z M502.4,1145.2v224c0,205.562,167.237,372.8,372.8,372.8
				c205.563,0,372.8-167.237,372.8-372.8V725.565c0-82.25,66.915-149.165,149.165-149.165H1595.2V475.6h-254.111
				c-134.261,0-243.489,109.229-243.489,243.488V1394c0,95.282-77.518,172.8-172.799,172.8c-95.282,0-172.8-77.518-172.8-172.8
				v-248.8H502.4z"/>
		</g>
		<g>
			<path style="fill:#212121;" d="M850.399,1666c-72.654,0-140.959-28.293-192.333-79.667
				C606.693,1534.959,578.4,1466.654,578.4,1394c0-13.255,10.745-24,24-24s24,10.745,24,24c0,123.514,100.486,224,224,224
				c13.255,0,24,10.745,24,24S863.654,1666,850.399,1666z"/>
		</g>
		<g>
			<path style="fill:#212121;" d="M825.6,1145.2H428.8c-13.255,0-24-10.745-24-24V972.4c0-13.255,10.745-24,24-24h396.8
				c13.255,0,24,10.745,24,24v148.8C849.6,1134.455,838.855,1145.2,825.6,1145.2z M452.8,1097.2h348.8V996.4H452.8V1097.2z"/>
		</g>
		<g>
			<path style="fill:#212121;" d="M1420.8,897.2h-248c-13.255,0-24-10.745-24-24s10.745-24,24-24h248c13.255,0,24,10.745,24,24
				S1434.055,897.2,1420.8,897.2z"/>
		</g>
		<g>
			<path style="fill:#212121;" d="M1420.8,1095.6h-248c-13.255,0-24-10.745-24-24s10.745-24,24-24h248c13.255,0,24,10.745,24,24
				S1434.055,1095.6,1420.8,1095.6z"/>
		</g>
		<g>
			<path style="fill:#212121;" d="M1420.8,1294h-248c-13.255,0-24-10.745-24-24s10.745-24,24-24h248c13.255,0,24,10.745,24,24
				S1434.055,1294,1420.8,1294z"/>
		</g>
		<g>
			<path style="fill:#212121;" d="M1420.8,1343.6c-13.255,0-24-10.745-24-24v-496c0-13.255,10.745-24,24-24s24,10.745,24,24v496
				C1444.8,1332.854,1434.055,1343.6,1420.8,1343.6z"/>
		</g>
		<g>
			<path style="fill:#212121;" d="M1768,675.718h-148.8c-13.255,0-24-10.745-24-24V402c0-13.255,10.745-24,24-24H1768
				c13.255,0,24,10.745,24,24v249.718C1792,664.973,1781.255,675.718,1768,675.718z M1643.2,627.718H1744V426h-100.8V627.718z"/>
		</g>
		<g>
			<path style="fill:#212121;" d="M776,1244.4H478.4c-13.255,0-24-10.745-24-24s10.745-24,24-24H776c13.255,0,24,10.745,24,24
				S789.255,1244.4,776,1244.4z"/>
		</g>
		<g>
			<g>
				<path style="fill:#212121;" d="M329.6,872.4c-40.583,0-73.6-33.017-73.6-73.6s33.017-73.6,73.6-73.6s73.6,33.017,73.6,73.6
					S370.183,872.4,329.6,872.4z M329.6,773.2c-14.116,0-25.6,11.484-25.6,25.6s11.484,25.6,25.6,25.6s25.6-11.484,25.6-25.6
					S343.716,773.2,329.6,773.2z"/>
			</g>
			<g>
				<path style="fill:#212121;" d="M379.2,822.8c-13.255,0-24-10.745-24-24V625.2c0-11.131,7.653-20.801,18.486-23.358
					c10.832-2.56,22.002,2.669,26.98,12.625c0.109,0.218,11.93,23.639,29.111,46.435c27.623,36.65,44.2,39.498,48.623,39.498
					c13.255,0,24,10.745,24,24s-10.745,24-24,24c-24.592,0-49.834-14.798-75.2-44.035V798.8
					C403.2,812.055,392.455,822.8,379.2,822.8z"/>
			</g>
		</g>
		<g>
			<g>
				<path style="fill:#212121;" d="M652,773.2c-40.583,0-73.6-33.017-73.6-73.6S611.417,626,652,626s73.6,33.017,73.6,73.6
					S692.583,773.2,652,773.2z M652,674c-14.116,0-25.6,11.484-25.6,25.6s11.484,25.6,25.6,25.6s25.6-11.484,25.6-25.6
					S666.116,674,652,674z"/>
			</g>
			<g>
				<path style="fill:#212121;" d="M701.6,723.6c-13.255,0-24-10.745-24-24V526c0-11.131,7.653-20.801,18.486-23.358
					c10.833-2.56,22.002,2.669,26.98,12.625c0.109,0.218,11.93,23.64,29.111,46.435c27.623,36.65,44.199,39.498,48.622,39.498
					c13.255,0,24,10.745,24,24s-10.745,24-24,24c-24.591,0-49.834-14.798-75.2-44.036V699.6
					C725.6,712.855,714.855,723.6,701.6,723.6z"/>
			</g>
		</g>
	</g>
</g>
<g id="Layer_1">
</g>
</svg>
