<?xml version="1.0" encoding="iso-8859-1"?>
<!-- Generator: Adobe Illustrator 25.2.0, SVG Export Plug-In . SVG Version: 6.00 Build 0)  -->
<svg version="1.1" xmlns="http://www.w3.org/2000/svg" xmlns:xlink="http://www.w3.org/1999/xlink" x="0px" y="0px"
	 viewBox="0 0 2048 2048" style="enable-background:new 0 0 2048 2048;" xml:space="preserve">
<g id="_x31_4253_-_Rooftop">
	<g>
		<g>
			<path style="fill:#212121;" d="M1669.2,1792H379.6c-13.255,0-24-10.745-24-24v-99.2c0-13.255,10.745-24,24-24h1289.6
				c13.255,0,24,10.745,24,24v99.2C1693.2,1781.255,1682.455,1792,1669.2,1792z M403.6,1744h1241.6v-51.2H403.6V1744z"/>
		</g>
		<g>
			<path style="fill:#212121;" d="M1669.2,1048H379.6c-13.255,0-24-10.745-24-24v-99.2c0-13.255,10.745-24,24-24h1289.6
				c13.255,0,24,10.745,24,24v99.2C1693.2,1037.255,1682.455,1048,1669.2,1048z M403.6,1000h1241.6v-51.2H403.6V1000z"/>
		</g>
		<g>
			<path style="fill:#212121;" d="M1594.8,1692.8H454c-13.255,0-24-10.745-24-24V1024c0-13.255,10.745-24,24-24h1140.8
				c13.255,0,24,10.745,24,24v644.8C1618.8,1682.055,1608.055,1692.8,1594.8,1692.8z M478,1644.8h1092.8V1048H478V1644.8z"/>
		</g>
		<g>
			<path style="fill:#212121;" d="M875.6,1692.8h-248c-13.255,0-24-10.745-24-24v-496c0-13.255,10.745-24,24-24h248
				c13.255,0,24,10.745,24,24v496C899.6,1682.055,888.855,1692.8,875.6,1692.8z M651.6,1644.8h200v-448h-200V1644.8z"/>
		</g>
		<g>
			<path style="fill:#212121;" d="M1148.4,1345.6H974.8c-13.255,0-24-10.745-24-24v-148.8c0-13.255,10.745-24,24-24H1148.4
				c13.255,0,24,10.745,24,24v148.8C1172.4,1334.854,1161.655,1345.6,1148.4,1345.6z M998.8,1297.6H1124.4v-100.8H998.8V1297.6z"/>
		</g>
		<g>
			<path style="fill:#212121;" d="M1421.2,1345.6H1247.6c-13.255,0-24-10.745-24-24v-148.8c0-13.255,10.745-24,24-24H1421.2
				c13.255,0,24,10.745,24,24v148.8C1445.2,1334.854,1434.455,1345.6,1421.2,1345.6z M1271.6,1297.6H1397.2v-100.8H1271.6V1297.6z"
				/>
		</g>
		<g>
			<path style="fill:#212121;" d="M1148.4,1593.6H974.8c-13.255,0-24-10.745-24-24v-148.8c0-13.255,10.745-24,24-24H1148.4
				c13.255,0,24,10.745,24,24v148.8C1172.4,1582.854,1161.655,1593.6,1148.4,1593.6z M998.8,1545.6H1124.4v-100.8H998.8V1545.6z"/>
		</g>
		<g>
			<path style="fill:#212121;" d="M1421.2,1593.6H1247.6c-13.255,0-24-10.745-24-24v-148.8c0-13.255,10.745-24,24-24H1421.2
				c13.255,0,24,10.745,24,24v148.8C1445.2,1582.854,1434.455,1593.6,1421.2,1593.6z M1271.6,1545.6H1397.2v-100.8H1271.6V1545.6z"
				/>
		</g>
		<g>
			<g>
				<g>
					<path style="fill:#212121;" d="M627.6,948.8c-13.255,0-24-10.745-24-24v-372c0-13.255,10.745-24,24-24s24,10.745,24,24v372
						C651.6,938.055,640.855,948.8,627.6,948.8z"/>
				</g>
				<g>
					<path style="fill:#212121;" d="M801.2,948.8c-13.255,0-24-10.745-24-24V775.2H627.6c-13.255,0-24-10.745-24-24s10.745-24,24-24
						h173.6c13.255,0,24,10.745,24,24v173.6C825.2,938.055,814.455,948.8,801.2,948.8z"/>
				</g>
			</g>
			<g>
				<g>
					<path style="fill:#212121;" d="M1421.2,948.8c-13.255,0-24-10.745-24-24v-372c0-13.255,10.745-24,24-24s24,10.745,24,24v372
						C1445.2,938.055,1434.455,948.8,1421.2,948.8z"/>
				</g>
				<g>
					<path style="fill:#212121;" d="M1247.6,948.8c-13.255,0-24-10.745-24-24V751.2c0-13.255,10.745-24,24-24H1421.2
						c13.255,0,24,10.745,24,24s-10.745,24-24,24H1271.6v149.6C1271.6,938.055,1260.854,948.8,1247.6,948.8z"/>
				</g>
			</g>
			<g>
				<path style="fill:#212121;" d="M1024.4,948.8c-13.255,0-24-10.745-24-24V652c0-13.255,10.745-24,24-24s24,10.745,24,24v272.8
					C1048.4,938.055,1037.655,948.8,1024.4,948.8z"/>
			</g>
			<g>
				<path style="fill:#212121;" d="M1247.6,676H801.2c-13.255,0-24-10.745-24-24s10.745-24,24-24H1247.6c13.255,0,24,10.745,24,24
					S1260.854,676,1247.6,676z"/>
			</g>
			<g>
				<path style="fill:#212121;" d="M1024.4,676c-13.255,0-24-10.745-24-24V428.8c0-13.255,10.745-24,24-24s24,10.745,24,24V652
					C1048.4,665.255,1037.655,676,1024.4,676z"/>
			</g>
			<g>
				<path style="fill:#212121;" d="M1247.6,452.8H801.2c-10.576,0-19.905-6.923-22.97-17.045
					c-3.065-10.122,0.858-21.057,9.657-26.924l223.2-148.8c8.061-5.375,18.564-5.375,26.625,0l223.199,148.8
					c8.8,5.867,12.723,16.802,9.657,26.924C1267.505,445.877,1258.176,452.8,1247.6,452.8z M880.467,404.8h287.866L1024.4,308.844
					L880.467,404.8z"/>
			</g>
		</g>
		<g>
			<g>
				<g>
					<path style="fill:#212121;" d="M330,502.4c-13.255,0-24-10.745-24-24s10.745-24,24-24c41.465,0,75.2-33.734,75.2-75.2
						c0-13.255,10.745-24,24-24s24,10.745,24,24C453.2,447.133,397.933,502.4,330,502.4z"/>
				</g>
				<g>
					<path style="fill:#212121;" d="M528.4,502.4c-67.933,0-123.2-55.267-123.2-123.2c0-13.255,10.745-24,24-24s24,10.745,24,24
						c0,41.465,33.734,75.2,75.2,75.2c13.255,0,24,10.745,24,24S541.655,502.4,528.4,502.4z"/>
				</g>
			</g>
			<g>
				<g>
					<path style="fill:#212121;" d="M429.2,601.6c-13.255,0-24-10.745-24-24c0-41.465-33.735-75.2-75.2-75.2
						c-13.255,0-24-10.745-24-24s10.745-24,24-24c67.933,0,123.2,55.268,123.2,123.2C453.2,590.855,442.455,601.6,429.2,601.6z"/>
				</g>
				<g>
					<path style="fill:#212121;" d="M429.2,601.6c-13.255,0-24-10.745-24-24c0-67.933,55.267-123.2,123.2-123.2
						c13.255,0,24,10.745,24,24s-10.745,24-24,24c-41.465,0-75.2,33.735-75.2,75.2C453.2,590.855,442.455,601.6,429.2,601.6z"/>
				</g>
			</g>
		</g>
		<g>
			<g>
				<g>
					<path style="fill:#212121;" d="M1495.601,403.2c-13.255,0-24-10.745-24-24s10.745-24,24-24c41.465,0,75.199-33.735,75.199-75.2
						c0-13.255,10.745-24,24-24s24,10.745,24,24C1618.8,347.933,1563.533,403.2,1495.601,403.2z"/>
				</g>
				<g>
					<path style="fill:#212121;" d="M1694,403.2c-67.933,0-123.2-55.268-123.2-123.2c0-13.255,10.745-24,24-24s24,10.745,24,24
						c0,41.465,33.734,75.2,75.2,75.2c13.255,0,24,10.745,24,24S1707.255,403.2,1694,403.2z"/>
				</g>
			</g>
			<g>
				<g>
					<path style="fill:#212121;" d="M1594.8,502.4c-13.255,0-24-10.745-24-24c0-41.465-33.734-75.2-75.199-75.2
						c-13.255,0-24-10.745-24-24s10.745-24,24-24c67.933,0,123.199,55.267,123.199,123.2
						C1618.8,491.655,1608.055,502.4,1594.8,502.4z"/>
				</g>
				<g>
					<path style="fill:#212121;" d="M1594.8,502.4c-13.255,0-24-10.745-24-24c0-67.933,55.268-123.2,123.2-123.2
						c13.255,0,24,10.745,24,24s-10.745,24-24,24c-41.466,0-75.2,33.734-75.2,75.2C1618.8,491.655,1608.055,502.4,1594.8,502.4z"/>
				</g>
			</g>
		</g>
	</g>
</g>
<g id="Layer_1">
</g>
</svg>
