<?xml version="1.0" encoding="iso-8859-1"?>
<!-- Generator: Adobe Illustrator 25.2.0, SVG Export Plug-In . SVG Version: 6.00 Build 0)  -->
<svg version="1.1" xmlns="http://www.w3.org/2000/svg" xmlns:xlink="http://www.w3.org/1999/xlink" x="0px" y="0px"
	 viewBox="0 0 2048 2048" style="enable-background:new 0 0 2048 2048;" xml:space="preserve">
<g id="_x31_4262_-_Vinyl_Player">
	<g>
		<g>
			<g>
				<g>
					<path style="fill:#212121;" d="M1768,1785.6H280c-13.255,0-24-10.745-24-24v-992c0-13.255,10.745-24,24-24h1488
						c13.255,0,24,10.745,24,24v992C1792,1774.854,1781.255,1785.6,1768,1785.6z M304,1737.6h1440v-944H304V1737.6z"/>
				</g>
				<g>
					<path style="fill:#212121;" d="M552.8,793.6h-124c-13.255,0-24-10.745-24-24v-99.2c0-13.255,10.745-24,24-24h124
						c13.255,0,24,10.745,24,24v99.2C576.8,782.855,566.055,793.6,552.8,793.6z M452.8,745.6h76v-51.2h-76V745.6z"/>
				</g>
				<g>
					<path style="fill:#212121;" d="M825.6,793.6h-124c-13.255,0-24-10.745-24-24v-99.2c0-13.255,10.745-24,24-24h124
						c13.255,0,24,10.745,24,24v99.2C849.6,782.855,838.855,793.6,825.6,793.6z M725.6,745.6h76v-51.2h-76V745.6z"/>
				</g>
				<g>
					<path style="fill:#212121;" d="M1619.2,793.6h-124c-13.255,0-24-10.745-24-24v-99.2c0-13.255,10.745-24,24-24h124
						c13.255,0,24,10.745,24,24v99.2C1643.2,782.855,1632.455,793.6,1619.2,793.6z M1519.2,745.6h76v-51.2h-76V745.6z"/>
				</g>
				<g>
					<path style="fill:#212121;" d="M1768,1686.4H304.8c-13.255,0-24-10.745-24-24s10.745-24,24-24H1768c13.255,0,24,10.745,24,24
						S1781.255,1686.4,1768,1686.4z"/>
				</g>
				<g>
					<path style="fill:#212121;" d="M751.2,1587.2c-50.101,0-98.716-9.817-144.495-29.181
						c-44.205-18.697-83.9-45.459-117.983-79.542c-34.083-34.082-60.844-73.777-79.542-117.982
						C389.818,1314.716,380,1266.101,380,1216s9.818-98.716,29.181-144.495c18.697-44.205,45.458-83.9,79.542-117.983
						c34.083-34.083,73.778-60.844,117.983-79.542C652.484,854.618,701.099,844.8,751.2,844.8s98.716,9.818,144.495,29.181
						c44.205,18.697,83.9,45.459,117.983,79.542s60.844,73.778,79.542,117.983c19.363,45.779,29.181,94.395,29.181,144.495
						s-9.817,98.716-29.181,144.495c-18.697,44.205-45.459,83.9-79.542,117.982c-34.083,34.083-73.778,60.845-117.983,79.542
						C849.917,1577.383,801.301,1587.2,751.2,1587.2z M751.2,892.8C572.987,892.8,428,1037.787,428,1216s144.987,323.2,323.2,323.2
						s323.2-144.987,323.2-323.2S929.414,892.8,751.2,892.8z"/>
				</g>
				<g>
					<path style="fill:#212121;" d="M751.2,1339.2c-67.933,0-123.2-55.268-123.2-123.2s55.268-123.2,123.2-123.2
						s123.2,55.268,123.2,123.2S819.133,1339.2,751.2,1339.2z M751.2,1140.8c-41.465,0-75.2,33.734-75.2,75.2s33.735,75.2,75.2,75.2
						s75.2-33.734,75.2-75.2S792.666,1140.8,751.2,1140.8z"/>
				</g>
				<g>
					<path style="fill:#212121;" d="M528,1240c-13.255,0-24-10.745-24-24c0-66.029,25.713-128.106,72.403-174.797
						c46.69-46.69,108.768-72.403,174.797-72.403c13.255,0,24,10.745,24,24s-10.745,24-24,24c-109.839,0-199.2,89.361-199.2,199.2
						C552,1229.255,541.255,1240,528,1240z"/>
				</g>
				<g>
					<path style="fill:#212121;" d="M751.2,1463.2c-13.255,0-24-10.745-24-24s10.745-24,24-24c109.839,0,199.2-89.361,199.2-199.2
						c0-13.255,10.745-24,24-24s24,10.745,24,24c0,66.029-25.713,128.106-72.403,174.797
						C879.307,1437.486,817.229,1463.2,751.2,1463.2z"/>
				</g>
				<g>
					<path style="fill:#212121;" d="M1051.946,1413.579c-13.116,0-23.829-10.549-23.992-23.702
						c-0.165-13.253,10.446-24.131,23.7-24.296c121.939-1.516,221.146-101.993,221.146-223.981v-124c0-13.255,10.745-24,24-24
						s24,10.745,24,24v124c0,72.054-27.891,139.955-78.533,191.197c-50.601,51.197-118.083,79.886-190.017,80.78
						C1052.149,1413.578,1052.047,1413.579,1051.946,1413.579z"/>
				</g>
				<g>
					<path style="fill:#212121;" d="M1296.8,1041.6c-54.258,0-98.399-44.142-98.399-98.399c0-54.258,44.142-98.4,98.399-98.4
						s98.4,44.142,98.4,98.4C1395.2,997.458,1351.058,1041.6,1296.8,1041.6z M1296.8,892.8c-27.79,0-50.399,22.609-50.399,50.4
						c0,27.791,22.609,50.399,50.399,50.399c27.791,0,50.4-22.609,50.4-50.399C1347.2,915.409,1324.591,892.8,1296.8,892.8z"/>
				</g>
				<g>
					<path style="fill:#212121;" d="M1371.2,1686.4c-13.255,0-24-10.745-24-24V1389.6c0-13.255,10.745-24,24-24s24,10.745,24,24
						V1662.4C1395.2,1675.655,1384.455,1686.4,1371.2,1686.4z"/>
				</g>
				<g>
					<path style="fill:#212121;" d="M1470.4,1686.4c-13.255,0-24-10.745-24-24V1389.6c0-13.255,10.745-24,24-24s24,10.745,24,24
						V1662.4C1494.4,1675.655,1483.655,1686.4,1470.4,1686.4z"/>
				</g>
				<g>
					<path style="fill:#212121;" d="M1569.6,1686.4c-13.255,0-24-10.745-24-24V1389.6c0-13.255,10.745-24,24-24s24,10.745,24,24
						V1662.4C1593.6,1675.655,1582.854,1686.4,1569.6,1686.4z"/>
				</g>
				<g>
					<path style="fill:#212121;" d="M1668.8,1686.4c-13.255,0-24-10.745-24-24V1389.6c0-13.255,10.745-24,24-24s24,10.745,24,24
						V1662.4C1692.8,1675.655,1682.055,1686.4,1668.8,1686.4z"/>
				</g>
			</g>
			<g>
				<path style="fill:#212121;" d="M428.8,892.8h-49.6c-13.255,0-24-10.745-24-24s10.745-24,24-24h49.6c13.255,0,24,10.745,24,24
					S442.055,892.8,428.8,892.8z"/>
			</g>
			<g>
				<path style="fill:#212121;" d="M428.8,1587.2h-49.6c-13.255,0-24-10.745-24-24s10.745-24,24-24h49.6c13.255,0,24,10.745,24,24
					S442.055,1587.2,428.8,1587.2z"/>
			</g>
		</g>
		<g>
			<path style="fill:#212121;" d="M1371.2,1314.399c-0.78,0-1.58-0.04-2.36-0.119c-0.78-0.08-1.56-0.19-2.33-0.351
				c-0.76-0.149-1.53-0.35-2.28-0.58c-0.739-0.22-1.489-0.49-2.21-0.79c-0.72-0.3-1.439-0.63-2.12-1
				c-0.689-0.37-1.369-0.77-2.02-1.21c-0.66-0.43-1.29-0.899-1.9-1.39c-0.609-0.5-1.199-1.03-1.75-1.59
				c-0.55-0.551-1.09-1.141-1.59-1.75c-0.49-0.61-0.96-1.24-1.39-1.9c-0.44-0.65-0.84-1.33-1.21-2.02c-0.37-0.681-0.7-1.4-1-2.12
				c-0.3-0.721-0.57-1.471-0.79-2.21c-0.23-0.75-0.431-1.521-0.58-2.28c-0.15-0.771-0.271-1.55-0.351-2.33
				c-0.079-0.78-0.119-1.58-0.119-2.36c0-0.779,0.04-1.58,0.119-2.359c0.08-0.78,0.2-1.561,0.351-2.33
				c0.149-0.76,0.35-1.53,0.58-2.28c0.22-0.74,0.49-1.49,0.79-2.21s0.63-1.439,1-2.12c0.37-0.689,0.77-1.37,1.21-2.02
				c0.43-0.66,0.899-1.29,1.39-1.9c0.5-0.61,1.04-1.2,1.59-1.75c0.551-0.55,1.141-1.09,1.75-1.59c0.61-0.49,1.24-0.96,1.9-1.39
				c0.65-0.44,1.33-0.841,2.02-1.21c0.681-0.37,1.4-0.7,2.12-1c0.721-0.301,1.471-0.57,2.21-0.79c0.75-0.23,1.521-0.431,2.28-0.58
				c0.771-0.16,1.55-0.271,2.33-0.351c1.57-0.16,3.15-0.16,4.72,0c0.78,0.08,1.561,0.19,2.33,0.351c0.76,0.149,1.53,0.35,2.28,0.58
				c0.74,0.22,1.49,0.489,2.21,0.79c0.72,0.3,1.43,0.63,2.12,1c0.689,0.369,1.37,0.77,2.02,1.21c0.66,0.43,1.29,0.899,1.9,1.39
				c0.61,0.5,1.2,1.04,1.75,1.59s1.09,1.14,1.59,1.75c0.49,0.61,0.96,1.24,1.39,1.9c0.44,0.649,0.841,1.33,1.21,2.02
				c0.37,0.681,0.7,1.4,1,2.12c0.301,0.72,0.57,1.47,0.79,2.21c0.23,0.75,0.431,1.521,0.58,2.28c0.15,0.77,0.271,1.55,0.351,2.33
				c0.08,0.779,0.12,1.58,0.12,2.359c0,0.78-0.04,1.58-0.12,2.36s-0.2,1.56-0.351,2.33c-0.149,0.76-0.35,1.53-0.58,2.28
				c-0.22,0.739-0.489,1.489-0.79,2.21c-0.3,0.72-0.63,1.439-1,2.12c-0.369,0.689-0.77,1.369-1.21,2.02
				c-0.43,0.66-0.899,1.29-1.39,1.9c-0.5,0.609-1.04,1.199-1.59,1.75C1383.7,1311.84,1377.52,1314.399,1371.2,1314.399z"/>
		</g>
		<g>
			<path style="fill:#212121;" d="M1470.399,1314.399c-0.779,0-1.58-0.04-2.359-0.119c-0.78-0.08-1.561-0.2-2.33-0.351
				c-0.76-0.149-1.53-0.35-2.28-0.58c-0.74-0.22-1.49-0.49-2.21-0.79s-1.439-0.64-2.12-1c-0.689-0.37-1.37-0.77-2.02-1.21
				c-0.66-0.43-1.29-0.899-1.9-1.399c-0.61-0.49-1.2-1.03-1.75-1.58c-0.56-0.551-1.09-1.141-1.59-1.75
				c-0.49-0.61-0.96-1.25-1.39-1.9c-0.44-0.65-0.841-1.33-1.21-2.02c-0.37-0.681-0.7-1.4-1-2.12c-0.301-0.721-0.57-1.471-0.79-2.21
				c-0.23-0.75-0.431-1.521-0.58-2.28c-0.15-0.771-0.271-1.55-0.351-2.33s-0.12-1.58-0.12-2.36c0-0.779,0.04-1.58,0.12-2.359
				c0.08-0.78,0.2-1.561,0.351-2.33c0.149-0.76,0.35-1.53,0.58-2.28c0.22-0.74,0.489-1.49,0.79-2.21c0.3-0.72,0.63-1.43,1-2.12
				c0.369-0.689,0.77-1.37,1.21-2.02c0.43-0.65,0.899-1.29,1.39-1.9c0.5-0.61,1.03-1.2,1.59-1.75c0.55-0.55,1.14-1.09,1.75-1.58
				c0.61-0.5,1.24-0.97,1.9-1.399c0.649-0.44,1.33-0.841,2.02-1.21c0.681-0.36,1.4-0.7,2.12-1c0.72-0.301,1.47-0.57,2.21-0.79
				c0.75-0.23,1.521-0.431,2.28-0.58c0.77-0.15,1.55-0.271,2.33-0.351c1.56-0.16,3.149-0.16,4.72,0c0.78,0.08,1.56,0.2,2.33,0.351
				c0.76,0.149,1.53,0.35,2.28,0.58c0.739,0.22,1.489,0.489,2.21,0.79c0.72,0.3,1.439,0.64,2.12,1c0.689,0.369,1.369,0.77,2.02,1.21
				c0.65,0.43,1.29,0.899,1.9,1.399c0.609,0.49,1.199,1.03,1.75,1.58c0.55,0.55,1.09,1.14,1.59,1.75c0.49,0.61,0.96,1.25,1.39,1.9
				c0.44,0.649,0.84,1.33,1.21,2.02c0.37,0.69,0.7,1.4,1,2.12s0.57,1.47,0.79,2.21c0.23,0.75,0.431,1.521,0.58,2.28
				c0.16,0.77,0.271,1.55,0.351,2.33c0.079,0.779,0.119,1.58,0.119,2.359c0,0.78-0.04,1.58-0.119,2.36
				c-0.08,0.78-0.19,1.56-0.351,2.33c-0.149,0.76-0.35,1.53-0.58,2.28c-0.22,0.739-0.49,1.489-0.79,2.21
				c-0.3,0.72-0.63,1.439-1,2.12c-0.37,0.689-0.77,1.369-1.21,2.02c-0.43,0.65-0.899,1.29-1.39,1.9c-0.5,0.609-1.04,1.199-1.59,1.75
				c-0.551,0.55-1.141,1.09-1.75,1.58c-0.61,0.5-1.25,0.97-1.9,1.399c-0.65,0.44-1.33,0.84-2.02,1.21c-0.681,0.36-1.4,0.7-2.12,1
				c-0.721,0.3-1.471,0.57-2.21,0.79c-0.75,0.23-1.521,0.431-2.28,0.58c-0.771,0.15-1.55,0.271-2.33,0.351
				C1471.979,1314.359,1471.18,1314.399,1470.399,1314.399z"/>
		</g>
		<g>
			<path style="fill:#212121;" d="M1569.6,1314.399c-0.78,0-1.58-0.04-2.359-0.119c-0.78-0.08-1.561-0.2-2.33-0.351
				c-0.761-0.149-1.53-0.35-2.28-0.58c-0.75-0.22-1.49-0.49-2.21-0.79s-1.44-0.63-2.12-1c-0.7-0.37-1.37-0.77-2.02-1.21
				c-0.66-0.43-1.29-0.899-1.9-1.39c-0.61-0.5-1.2-1.04-1.75-1.59c-0.561-0.551-1.09-1.141-1.59-1.75
				c-0.49-0.61-0.96-1.24-1.391-1.9c-0.439-0.65-0.84-1.33-1.21-2.02c-0.37-0.681-0.699-1.4-1-2.12
				c-0.3-0.721-0.569-1.471-0.79-2.21c-0.229-0.75-0.43-1.521-0.58-2.28c-0.159-0.771-0.27-1.55-0.35-2.33s-0.12-1.58-0.12-2.36
				c0-0.779,0.04-1.58,0.12-2.359c0.08-0.78,0.19-1.561,0.35-2.33c0.15-0.76,0.351-1.53,0.58-2.28c0.221-0.74,0.49-1.49,0.79-2.21
				c0.301-0.72,0.63-1.43,1-2.12c0.37-0.689,0.771-1.37,1.21-2.02c0.431-0.65,0.9-1.29,1.391-1.9c0.5-0.61,1.029-1.2,1.59-1.75
				c0.55-0.55,1.14-1.09,1.75-1.59c0.61-0.49,1.24-0.96,1.9-1.39c0.649-0.44,1.319-0.841,2.02-1.21c0.68-0.37,1.4-0.7,2.12-1
				c0.72-0.301,1.46-0.57,2.21-0.79c0.75-0.23,1.52-0.431,2.28-0.58c0.77-0.15,1.55-0.271,2.33-0.351c1.569-0.16,3.149-0.16,4.72,0
				c0.78,0.08,1.56,0.2,2.33,0.351c0.76,0.149,1.529,0.35,2.279,0.58c0.74,0.22,1.49,0.489,2.211,0.79c0.72,0.3,1.43,0.63,2.119,1
				c0.69,0.369,1.37,0.77,2.021,1.21c0.649,0.43,1.29,0.899,1.899,1.39c0.61,0.5,1.2,1.04,1.75,1.59
				c0.551,0.55,1.091,1.14,1.58,1.75c0.5,0.61,0.971,1.25,1.4,1.9c0.43,0.649,0.84,1.33,1.21,2.02c0.36,0.69,0.7,1.4,1,2.12
				s0.57,1.47,0.79,2.21c0.23,0.75,0.43,1.521,0.58,2.28c0.15,0.77,0.27,1.55,0.35,2.33c0.08,0.779,0.12,1.58,0.12,2.359
				c0,0.78-0.04,1.58-0.12,2.36s-0.199,1.56-0.35,2.33c-0.15,0.76-0.35,1.53-0.58,2.28c-0.22,0.739-0.49,1.489-0.79,2.21
				c-0.3,0.72-0.64,1.439-1,2.12c-0.37,0.689-0.78,1.369-1.21,2.02c-0.43,0.66-0.9,1.29-1.4,1.9c-0.489,0.609-1.029,1.199-1.58,1.75
				c-0.55,0.55-1.14,1.09-1.75,1.59c-0.609,0.49-1.25,0.96-1.899,1.39c-0.65,0.44-1.33,0.84-2.021,1.21
				c-0.689,0.37-1.399,0.7-2.119,1c-0.721,0.3-1.471,0.57-2.211,0.79c-0.75,0.23-1.52,0.431-2.279,0.58
				c-0.771,0.15-1.55,0.271-2.33,0.351C1571.18,1314.359,1570.38,1314.399,1569.6,1314.399z"/>
		</g>
		<g>
			<path style="fill:#212121;" d="M1668.8,1314.399c-0.78,0-1.58-0.04-2.36-0.119c-0.779-0.08-1.56-0.19-2.33-0.351
				c-0.76-0.149-1.529-0.35-2.279-0.58c-0.75-0.22-1.49-0.49-2.21-0.79c-0.721-0.3-1.44-0.63-2.12-1
				c-0.69-0.37-1.37-0.77-2.021-1.21c-0.66-0.43-1.29-0.899-1.899-1.39c-0.61-0.5-1.2-1.04-1.75-1.59
				c-0.55-0.551-1.09-1.141-1.59-1.75c-0.49-0.61-0.96-1.25-1.391-1.9c-0.439-0.65-0.84-1.33-1.21-2.02c-0.37-0.681-0.7-1.4-1-2.12
				c-0.3-0.721-0.57-1.471-0.79-2.21c-0.229-0.75-0.43-1.521-0.58-2.28c-0.16-0.771-0.27-1.55-0.35-2.33s-0.12-1.58-0.12-2.36
				c0-0.779,0.04-1.58,0.12-2.359c0.08-0.78,0.189-1.561,0.35-2.33c0.15-0.76,0.351-1.53,0.58-2.28c0.22-0.74,0.49-1.49,0.79-2.21
				s0.63-1.439,1-2.12c0.37-0.689,0.771-1.37,1.21-2.02c0.431-0.65,0.9-1.29,1.391-1.9c0.5-0.61,1.04-1.2,1.59-1.75
				s1.14-1.09,1.75-1.59c0.609-0.49,1.239-0.96,1.899-1.39c0.65-0.44,1.33-0.841,2.021-1.21c0.68-0.37,1.399-0.7,2.12-1
				c0.72-0.301,1.46-0.57,2.21-0.79c0.75-0.23,1.52-0.431,2.279-0.58c0.771-0.16,1.551-0.271,2.33-0.351
				c1.57-0.16,3.15-0.16,4.721,0c0.779,0.08,1.56,0.19,2.33,0.351c0.76,0.149,1.529,0.35,2.279,0.58c0.74,0.22,1.49,0.489,2.21,0.79
				c0.721,0.3,1.431,0.63,2.12,1c0.69,0.369,1.37,0.77,2.021,1.21c0.649,0.43,1.29,0.899,1.899,1.39c0.61,0.5,1.2,1.04,1.75,1.59
				s1.09,1.14,1.59,1.75c0.49,0.61,0.96,1.25,1.391,1.9c0.439,0.649,0.84,1.33,1.21,2.02c0.359,0.681,0.7,1.4,1,2.12
				s0.57,1.47,0.79,2.21c0.229,0.75,0.43,1.521,0.58,2.28c0.149,0.77,0.27,1.55,0.35,2.33c0.08,0.779,0.12,1.58,0.12,2.359
				c0,0.78-0.04,1.58-0.12,2.36s-0.2,1.56-0.35,2.33c-0.15,0.76-0.351,1.53-0.58,2.28c-0.22,0.739-0.49,1.489-0.79,2.21
				c-0.3,0.72-0.641,1.439-1,2.12c-0.37,0.689-0.771,1.369-1.21,2.02c-0.431,0.65-0.9,1.29-1.391,1.9
				c-0.5,0.609-1.04,1.199-1.59,1.75c-0.55,0.55-1.14,1.09-1.75,1.59c-0.609,0.49-1.25,0.96-1.899,1.39
				c-0.65,0.44-1.33,0.84-2.021,1.21c-0.689,0.37-1.399,0.7-2.12,1c-0.72,0.3-1.47,0.57-2.21,0.79c-0.75,0.23-1.52,0.431-2.279,0.58
				c-0.771,0.16-1.551,0.271-2.33,0.351C1670.38,1314.359,1669.58,1314.399,1668.8,1314.399z"/>
		</g>
	</g>
</g>
<g id="Layer_1">
</g>
</svg>
