<?xml version="1.0" encoding="iso-8859-1"?>
<!-- Generator: Adobe Illustrator 25.2.0, SVG Export Plug-In . SVG Version: 6.00 Build 0)  -->
<svg version="1.1" xmlns="http://www.w3.org/2000/svg" xmlns:xlink="http://www.w3.org/1999/xlink" x="0px" y="0px"
	 viewBox="0 0 2048 2048" style="enable-background:new 0 0 2048 2048;" xml:space="preserve">
<g id="_x31_4261_-_Video_Camera">
	<g>
		<g>
			<path style="fill:#212121;" d="M1312,1336H304c-13.255,0-24-10.745-24-24V592c0-13.255,10.745-24,24-24h1008
				c13.255,0,24,10.745,24,24v720C1336,1325.255,1325.255,1336,1312,1336z M328,1288h960V616H328V1288z"/>
		</g>
		<g>
			<path style="fill:#212121;" d="M976,1000H400c-13.255,0-24-10.745-24-24V688c0-13.255,10.745-24,24-24h576
				c13.255,0,24,10.745,24,24v288C1000,989.255,989.255,1000,976,1000z M424,952h528V712H424V952z"/>
		</g>
		<g>
			<path style="fill:#212121;" d="M472,1240c-52.935,0-96-43.065-96-96s43.065-96,96-96s96,43.065,96,96S524.935,1240,472,1240z
				 M472,1096c-26.467,0-48,21.532-48,48s21.533,48,48,48s48-21.532,48-48S498.467,1096,472,1096z"/>
		</g>
		<g>
			<path style="fill:#212121;" d="M712,1240c-52.935,0-96-43.065-96-96s43.065-96,96-96s96,43.065,96,96S764.935,1240,712,1240z
				 M712,1096c-26.467,0-48,21.532-48,48s21.533,48,48,48s48-21.532,48-48S738.467,1096,712,1096z"/>
		</g>
		<g>
			<path style="fill:#212121;" d="M1216,1432H400c-13.255,0-24-10.745-24-24v-96c0-13.255,10.745-24,24-24h816
				c13.255,0,24,10.745,24,24v96C1240,1421.255,1229.255,1432,1216,1432z M424,1384h768v-48H424V1384z"/>
		</g>
		<g>
			<path style="fill:#212121;" d="M1552,1168h-120c-13.255,0-24-10.745-24-24V760c0-13.255,10.745-24,24-24h120
				c13.255,0,24,10.745,24,24v384C1576,1157.255,1565.255,1168,1552,1168z M1456,1120h72V784h-72V1120z"/>
		</g>
		<g>
			<path style="fill:#212121;" d="M1432,1120h-120c-13.255,0-24-10.745-24-24V808c0-13.255,10.745-24,24-24h120
				c13.255,0,24,10.745,24,24v288C1456,1109.255,1445.255,1120,1432,1120z M1336,1072h72V832h-72V1072z"/>
		</g>
		<g>
			<path style="fill:#212121;" d="M1744,1288h-192c-13.255,0-24-10.745-24-24V640c0-13.255,10.745-24,24-24h192
				c13.255,0,24,10.745,24,24v624C1768,1277.255,1757.255,1288,1744,1288z M1576,1240h144V664h-144V1240z"/>
		</g>
		<g>
			<path style="fill:#212121;" d="M1096,616H952c-13.255,0-24-10.745-24-24v-72c0-52.935,43.065-96,96-96s96,43.065,96,96v72
				C1120,605.255,1109.255,616,1096,616z M976,568h96v-48c0-26.467-21.532-48-48-48c-26.467,0-48,21.533-48,48V568z"/>
		</g>
		<g>
			<path style="fill:#212121;" d="M1024,472c-13.255,0-24-10.745-24-24v-96c0-13.255,10.745-24,24-24h120c13.255,0,24,10.745,24,24
				s-10.745,24-24,24h-96v72C1048,461.255,1037.255,472,1024,472z"/>
		</g>
		<g>
			<path style="fill:#212121;" d="M1528,424h-384c-13.255,0-24-10.745-24-24v-96c0-13.255,10.745-24,24-24h384
				c39.701,0,72,32.299,72,72S1567.701,424,1528,424z M1168,376h360c13.233,0,24-10.766,24-24s-10.767-24-24-24h-360V376z"/>
		</g>
		<g>
			<path style="fill:#212121;" d="M592,616c-13.255,0-24-10.745-24-24c0-52.935-43.065-96-96-96h-60c-46.318,0-84-37.682-84-84
				s37.682-84,84-84h252c13.255,0,24,10.745,24,24s-10.745,24-24,24H412c-19.851,0-36,16.149-36,36s16.149,36,36,36h60
				c79.402,0,144,64.598,144,144C616,605.255,605.255,616,592,616z"/>
		</g>
		<g>
			<path style="fill:#212121;" d="M832,424H688c-13.255,0-24-10.745-24-24v-96c0-13.255,10.745-24,24-24h144
				c13.255,0,24,10.745,24,24v96C856,413.255,845.255,424,832,424z M712,376h96v-48h-96V376z"/>
		</g>
		<g>
			<path style="fill:#212121;" d="M1024,376H832c-13.255,0-24-10.745-24-24s10.745-24,24-24h192c13.255,0,24,10.745,24,24
				S1037.255,376,1024,376z"/>
		</g>
		<g>
			<path style="fill:#212121;" d="M1024.022,1768.003c-7.894,0-15.625-3.891-20.211-11.024L808,1452.382l-195.812,304.597
				c-7.168,11.149-22.018,14.378-33.167,7.21c-11.15-7.168-14.378-22.017-7.21-33.167l216-336
				C792.228,1388.152,799.833,1384,808,1384s15.772,4.152,20.188,11.021l216,336c7.167,11.15,3.939,25.999-7.21,33.167
				C1032.963,1766.77,1028.467,1768.003,1024.022,1768.003z"/>
		</g>
		<g>
			<path style="fill:#212121;" d="M808,1768c-13.255,0-24-10.745-24-24v-336c0-13.255,10.745-24,24-24s24,10.745,24,24v336
				C832,1757.255,821.255,1768,808,1768z"/>
		</g>
		<g>
			<path style="fill:#212121;" d="M1216,712h-144c-13.255,0-24-10.745-24-24s10.745-24,24-24h144c13.255,0,24,10.745,24,24
				S1229.255,712,1216,712z"/>
		</g>
		<g>
			<path style="fill:#212121;" d="M1216,808h-144c-13.255,0-24-10.745-24-24s10.745-24,24-24h144c13.255,0,24,10.745,24,24
				S1229.255,808,1216,808z"/>
		</g>
		<g>
			<path style="fill:#212121;" d="M1216,904h-144c-13.255,0-24-10.745-24-24s10.745-24,24-24h144c13.255,0,24,10.745,24,24
				S1229.255,904,1216,904z"/>
		</g>
		<g>
			<path style="fill:#212121;" d="M1216,1000h-144c-13.255,0-24-10.745-24-24s10.745-24,24-24h144c13.255,0,24,10.745,24,24
				S1229.255,1000,1216,1000z"/>
		</g>
		<g>
			<path style="fill:#212121;" d="M1216,1120H880c-13.255,0-24-10.745-24-24s10.745-24,24-24h336c13.255,0,24,10.745,24,24
				S1229.255,1120,1216,1120z"/>
		</g>
		<g>
			<path style="fill:#212121;" d="M1216,1216H880c-13.255,0-24-10.745-24-24s10.745-24,24-24h336c13.255,0,24,10.745,24,24
				S1229.255,1216,1216,1216z"/>
		</g>
	</g>
</g>
<g id="Layer_1">
</g>
</svg>
