<?xml version="1.0" encoding="iso-8859-1"?>
<!-- Uploaded to: SVG Repo, www.svgrepo.com, Generator: SVG Repo Mixer Tools -->
<svg fill="#000000" height="800px" width="800px" version="1.1" id="Layer_1" xmlns="http://www.w3.org/2000/svg" xmlns:xlink="http://www.w3.org/1999/xlink" 
	 viewBox="0 0 512 512" xml:space="preserve">
<g>
	<g>
		<path d="M511.389,116.506C511.389,51.174,463.622,0,402.648,0c-47.865,0-76.405,30.269-92.045,56.088
			C294.964,30.269,266.423,0,218.557,0c-60.972,0-108.74,51.174-108.74,116.506c0,78.297,68.709,127.341,168.309,211.974
			c5.994,5.087,12.849,8.547,20.014,10.394c2.47,5.544,5.943,10.615,10.331,15.007l19.563,19.552c6.5,6.511,6.5,17.101,0,23.607
			l-19.563,19.558c-19.59,19.579-19.57,51.276,0,70.835l19.563,19.558c6.807,6.796,18.312,6.316,24.536-1.013
			c5.549-6.534,5.13-16.545-0.929-22.605l-19.563-19.558c-6.55-6.55-6.504-17.097,0-23.601l19.563-19.563
			c19.52-19.525,19.52-51.3,0-70.831l-16.065-16.056c2.612-1.507,5.124-3.268,7.501-5.284
			C442.725,243.808,511.389,194.786,511.389,116.506z M287.203,227.016c-3.304,3.859-7.989,5.836-12.694,5.836
			c-3.836,0-7.706-1.321-10.847-4.016c-58.995-50.527-87.067-80.226-87.067-112.332c0-9.222,7.478-16.694,16.694-16.694
			c9.216,0,16.694,7.472,16.694,16.694c0,20.666,37.247,54.299,75.395,86.975C292.376,209.48,293.192,220.017,287.203,227.016z"/>
	</g>
</g>
<g>
	<g>
		<path d="M254.534,352.257C152.749,265.916,76.43,210.761,76.43,116.506c0-0.668,0.083-1.31,0.091-1.975
			c-43.875,9.65-75.91,50.044-75.91,99.868c0,67.886,58.847,105.008,143.726,175.461c5.939,4.925,12.731,8.269,19.831,10.049
			c3.239,6.29,2.2,14.115-3.072,19.388l-19.563,19.563c-18.215,18.221-19.705,47.012-3.478,66.978
			c5.843,7.178,16.356,8.216,23.487,2.424c7.152-5.82,8.238-16.336,2.424-23.487c-5.402-6.641-4.891-16.232,1.174-22.302
			l19.563-19.563c12.685-12.685,17.22-30.282,13.518-46.484c3.598-1.738,7.039-3.919,10.23-6.565
			C220.005,380.274,250.289,355.715,254.534,352.257z M121.002,292.504c-3.304,3.891-8,5.891-12.738,5.891
			c-3.815,0-7.651-1.304-10.792-3.966C63.53,265.621,45.13,246.107,45.13,225.528c0-9.222,7.478-16.694,16.694-16.694
			s16.694,7.472,16.694,16.694c0.315,4.353,7.597,15.477,40.561,43.447C126.11,274.935,126.968,285.473,121.002,292.504z"/>
	</g>
</g>
</svg>