<?xml version="1.0" encoding="utf-8"?>
<!-- Uploaded to: SVG Repo, www.svgrepo.com, Generator: SVG Repo Mixer Tools -->
<svg fill="#000000" height="800px" width="800px" version="1.1" id="_x31_" xmlns="http://www.w3.org/2000/svg" xmlns:xlink="http://www.w3.org/1999/xlink" 
	 viewBox="0 0 128 128" xml:space="preserve">
<g>
	<circle cx="79.2" cy="41.8" r="9.9"/>
	<path d="M114,112H94.8V98c2.8-1.1,4.8-3.5,5.6-6.3c1.6-6.6,2.4-13.5,2.4-20.6c0-0.5,0-1.7,0-1.8c0-8-5.7-14.6-13.4-15.9
		c-0.1,0-1-0.1-1.2-0.1c-1,0-1.8,0.2-2.6,0.7l-15.1,8.7l-16.9-4.5c-2.3-0.6-4.5,0.7-5.1,3c-0.7,2,0.7,4.4,2.7,5l18.5,4.9
		c1.2,0.4,2.3,0.1,3.2-0.4l9.7-5.6v21.5H63.5c-1.4,0-3,0.6-4.2,1.8c-1.2,1.1-1.8,2.6-1.8,4.2V118c0,3.4,2.6,6,6,6s6-2.6,6-6V98.7
		h13.2V118c0,1.4,0.6,3,1.8,4.2c1.1,1.2,2.6,1.8,4.2,1.8H114c3.4,0,6-2.6,6-6S117.4,112,114,112z"/>
	<path d="M18.7,27.7c0,0-1-0.1-1.2-0.1c-3.1,0-5.6,2.5-5.5,5.6c0,0.1,0,37.1,0,37.1c0,2.3,2,4.3,4.3,4.3s4.3-2,4.3-4.3V42.5
		c0-0.7,0.5-1.2,1.2-1.2s1.2,0.5,1.2,1.2v27.8c0,1.6-0.6,3.1-1.5,4.3c-1.2,1.5-3.1,2.5-5.3,2.5c-0.7,0-1.3-0.1-1.9-0.2v41
		c0,3.5,2.7,6.2,6.2,6.2s6.2-2.7,6.2-6.2V72.4c1.6-1.3,2.8-3.1,3.3-5.1c1.6-6.8,2.5-14,2.5-21.3c0.1-0.5,0-1.8,0-1.9
		C32.5,35.9,26.5,29.1,18.7,27.7z"/>
	<path d="M47.1,53.2c0,2.6,2.1,4.6,4.6,4.6c2.6,0,4.6-2.1,4.6-4.6c0-1.9-1.1-3.5-2.7-4.2l-0.5,0.9c1.3,0.5,2.2,1.8,2.2,3.3
		c0,2-1.6,3.6-3.6,3.6s-3.6-1.6-3.6-3.6c0-1.5,0.9-2.8,2.2-3.3c-0.2-0.3-0.3-0.6-0.5-0.9C48.2,49.7,47.1,51.3,47.1,53.2z"/>
	<path d="M53.1,49.9l0.5-0.9l3.1-5.2l-1.9-1.9h-6.3l-1.9,1.9c1,1.7,2.6,4.4,3.7,6.1c0.6-0.3,0.7-0.3,1.4-0.3
		C52.4,49.6,52.5,49.6,53.1,49.9z"/>
	<path d="M28.4,4.3C24.7,3,20.9,3.9,18.2,6.2c-0.3,0.3-0.7,0.5-1.1,0.7c-2.6,1.2-5.7,0.1-6.9-2.4C9.9,4.1,9.7,3.7,9.7,3.2
		C8,12,12.9,20.8,21.4,23.9c5.4,1.9,11.3-0.9,13.2-6.3C36.6,12.2,33.7,6.2,28.4,4.3z"/>
</g>
</svg>