<?xml version="1.0" encoding="iso-8859-1"?>
<!-- Uploaded to: SVG Repo, www.svgrepo.com, Generator: SVG Repo Mixer Tools -->
<svg fill="#000000" height="800px" width="800px" version="1.1" id="Capa_1" xmlns="http://www.w3.org/2000/svg" xmlns:xlink="http://www.w3.org/1999/xlink" 
	 viewBox="0 0 612.002 612.002" xml:space="preserve">
<g>
	<g>
		<path d="M588.29,116.273h-98.006c21.405-22.828,19.195-41.852,15.544-51.658c-4.106-11.039-17.033-29.552-57.462-29.552
			c-21.177,0-46.66,5.15-71.755,14.501c-27.607,10.29-53.621,25.123-70.616,42.26c-16.986-17.137-43-31.97-70.607-42.26
			c-25.094-9.351-50.577-14.501-71.755-14.501c-40.42,0-53.346,18.512-57.462,29.542c-3.651,9.806-5.87,28.831,15.544,51.658H23.71
			c-13.097,0-23.71,10.612-23.71,23.71v83.865c0,13.097,10.612,23.71,23.71,23.71h13.476V553.23c0,13.097,10.612,23.71,23.71,23.71
			h215.52h59.169h215.52c13.097,0,23.71-10.612,23.71-23.71V419.015c0-0.019,0-0.028,0-0.047v-59.16c0-0.009,0-0.028,0-0.047
			V247.557h13.477c13.097,0,23.71-10.612,23.71-23.71v-83.865C612,126.885,601.388,116.273,588.29,116.273z M564.581,200.138
			H359.294v-36.446h45.627h159.66L564.581,200.138L564.581,200.138z M527.385,395.267H359.294v-11.741h168.101v11.741H527.385z
			 M252.706,395.267H84.615v-11.741h168.091V395.267z M393.171,94.005c19.631-7.312,39.756-11.513,55.196-11.513
			c3.338,0,6.098,0.199,8.327,0.493c-7.909,8.706-26.46,22.372-55.348,33.136l-50.985,0.161
			C360.309,109.036,374.601,100.918,393.171,94.005z M210.607,116.092c-28.85-10.745-47.391-24.402-55.3-33.117
			c2.229-0.285,4.988-0.493,8.327-0.493c15.44,0,35.564,4.201,55.205,11.513c18.56,6.914,32.861,15.032,42.8,22.268h-50.52
			L210.607,116.092z M47.419,163.692h159.67h45.617v36.446H47.419V163.692z M252.706,247.557v88.541H84.605v-88.541H252.706
			L252.706,247.557z M84.605,442.686h168.101v86.853H84.605V442.686z M300.125,529.53V418.977v-59.16V163.692h11.75v196.125v59.16
			v110.562h-11.75V529.53z M359.294,529.53v-86.853h168.101v86.853H359.294z M527.385,336.107H359.294v-88.541h168.101v88.541
			H527.385z"/>
	</g>
	<g>
	</g>
	<g>
	</g>
	<g>
	</g>
	<g>
	</g>
	<g>
	</g>
	<g>
	</g>
	<g>
	</g>
	<g>
	</g>
	<g>
	</g>
	<g>
	</g>
	<g>
	</g>
	<g>
	</g>
	<g>
	</g>
	<g>
	</g>
	<g>
	</g>
</g>
</svg>