<?xml version="1.0" encoding="iso-8859-1"?>
<!-- Uploaded to: SVG Repo, www.svgrepo.com, Generator: SVG Repo Mixer Tools -->
<!DOCTYPE svg PUBLIC "-//W3C//DTD SVG 1.1//EN" "http://www.w3.org/Graphics/SVG/1.1/DTD/svg11.dtd">
<svg fill="#000000" version="1.1" id="Capa_1" xmlns="http://www.w3.org/2000/svg" xmlns:xlink="http://www.w3.org/1999/xlink" 
	 width="800px" height="800px" viewBox="0 0 458.948 458.947"
	 xml:space="preserve">
<g>
	<g id="Layer_2_15_">
		<path d="M265.929,160.938V87.161c3.705-1.465,6.324-5.078,6.324-9.303V10c0-5.522-4.478-10-10-10h-65.559c-5.523,0-10,4.478-10,10
			v67.857c0,4.226,2.619,7.839,6.324,9.303v73.777c-12.439,13.505-57.219,68.772-57.219,164.454v123.557c0,5.521,4.479,10,10,10
			h167.349c5.522,0,10-4.479,10-10V325.391C323.148,229.71,278.369,174.443,265.929,160.938z M252.253,20v47.857h-45.559V20H252.253
			z M182.814,211.033c13.398-25.441,26.998-38.716,27.115-38.83c1.975-1.887,3.09-4.498,3.09-7.229V87.858h32.91v77.116
			c0,2.73,1.117,5.342,3.093,7.229c0.541,0.518,54.126,52.898,54.126,153.188v18.418h-36.864
			c-1.145-10.94-4.152-21.104-8.762-29.311c-7.011-12.482-16.972-19.357-28.047-19.357c-11.074,0-21.035,6.875-28.047,19.357
			c-4.609,8.206-7.617,18.369-8.762,29.311H155.8v-18.418C155.8,273.273,170.491,234.436,182.814,211.033z M246.809,353.809
			c0,23.604-10.267,38.666-17.334,38.666c-7.066,0-17.334-15.062-17.334-38.666c0-23.604,10.268-38.668,17.334-38.668
			C236.542,315.141,246.809,330.204,246.809,353.809z M155.8,438.947v-75.139h36.865c1.145,10.939,4.152,21.104,8.762,29.309
			c7.012,12.482,16.973,19.357,28.047,19.357c11.076,0,21.037-6.875,28.047-19.357c4.608-8.205,7.616-18.367,8.762-29.309h36.864
			v75.139H155.8z"/>
	</g>
</g>
</svg>