<svg xmlns="http://www.w3.org/2000/svg" width="128" height="128" viewBox="0 0 128 128">
  <title>3D GLASSES</title>
  <g>
    <path d="M126.6,54.073c-.008-.028-.017-.054-.025-.081a1.752,1.752,0,0,0-.549-.817c-.008-.006-.013-.016-.021-.023l-31.448-25.1c-3.88-3.1-10.57-3.718-14.035-1.3-.033.023-.064.047-.1.072l-4.694,3.778c-2.547,1.816-2.912,5.113-.88,8.041a4.208,4.208,0,0,0,5.294,1.06c.021-.013.041-.027.061-.041l5.376-3.875L97.651,52.766H31.27L43.337,35.778l5.377,3.875.06.041a4.211,4.211,0,0,0,5.3-1.06c2.031-2.928,1.666-6.225-.881-8.041L48.5,26.815c-.032-.025-.063-.049-.1-.072-3.465-2.415-10.153-1.793-14.035,1.3L2.915,53.152c-.008.007-.013.017-.021.023a1.752,1.752,0,0,0-.549.817c-.008.027-.017.053-.025.081a1.749,1.749,0,0,0-.063.443v28.64a11.107,11.107,0,0,0,11.1,11.094H51.3a7.2,7.2,0,0,0,7.191-7.191,6.188,6.188,0,0,1,5.787-6.293,5.98,5.98,0,0,1,4.343,1.684,5.919,5.919,0,0,1,1.814,4.285v.324a7.2,7.2,0,0,0,7.19,7.191H115.57a11.107,11.107,0,0,0,11.094-11.094V54.516A1.749,1.749,0,0,0,126.6,54.073ZM87.417,32.315a1.75,1.75,0,0,0-2.45-.406l-6.685,4.817a1.493,1.493,0,0,1-.553-.086c-.348-.5-1.373-2.216.058-3.213.033-.023.066-.047.1-.073l4.684-3.77c2.242-1.508,7.161-.91,9.8,1.2l27.537,21.982H101.944Zm-50.87-1.531c2.642-2.11,7.567-2.708,9.806-1.2l4.684,3.77c.032.026.065.05.1.073,1.429,1,.406,2.711.113,3.148a1.137,1.137,0,0,1-.608.151l-6.686-4.817a1.75,1.75,0,0,0-2.45.406L26.977,52.766H9.009ZM115.57,90.75H77.623a3.7,3.7,0,0,1-3.69-3.691v-.324a9.472,9.472,0,0,0-9.469-9.471c-.1,0-.195,0-.293,0a9.712,9.712,0,0,0-9.182,9.791A3.7,3.7,0,0,1,51.3,90.75H13.352a7.6,7.6,0,0,1-7.6-7.594V56.27h22.12c.012,0,.024,0,.036,0h73.1c.012,0,.024,0,.036,0h22.12V83.156A7.6,7.6,0,0,1,115.57,90.75Z"/>
    <path d="M117.668,60.249H77.526A1.751,1.751,0,0,0,75.776,62V76.96a9.818,9.818,0,0,0,9.807,9.807H109.61a9.818,9.818,0,0,0,9.808-9.807V62A1.75,1.75,0,0,0,117.668,60.249Zm-1.75,16.711a6.314,6.314,0,0,1-6.308,6.307H85.583a6.314,6.314,0,0,1-6.307-6.307V63.749h36.642Z"/>
    <path d="M51.4,60.249H11.254A1.75,1.75,0,0,0,9.5,62V76.96a9.818,9.818,0,0,0,9.807,9.807H43.338a9.818,9.818,0,0,0,9.808-9.807V62A1.751,1.751,0,0,0,51.4,60.249ZM49.646,76.96a6.315,6.315,0,0,1-6.308,6.307H19.311A6.314,6.314,0,0,1,13,76.96V63.749H49.646Z"/>
  </g>
</svg>
