<svg xmlns="http://www.w3.org/2000/svg" width="128" height="128" viewBox="0 0 128 128">
  <title>AWARD</title>
  <g>
    <path d="M77.905,97.894h-.014V97.68a7.311,7.311,0,0,0-5.346-7.029l3.794-40.888a6.976,6.976,0,0,0,5.576-6.825V33.816A13.938,13.938,0,0,0,72,20.491a10.88,10.88,0,1,0-15.036-.246A13.933,13.933,0,0,0,46.085,33.816v9.122a6.976,6.976,0,0,0,5.576,6.825l3.794,40.888a7.311,7.311,0,0,0-5.346,7.029v.214H50.1a5.763,5.763,0,0,0-5.757,5.756v16.969a5.763,5.763,0,0,0,5.757,5.756h27.81a5.763,5.763,0,0,0,5.757-5.756V103.65A5.763,5.763,0,0,0,77.905,97.894ZM64.613,5.125a7.387,7.387,0,1,1-7.386,7.388A7.4,7.4,0,0,1,64.613,5.125ZM49.585,42.938V33.816A10.429,10.429,0,0,1,60,23.4h8A10.429,10.429,0,0,1,78.415,33.816v9.122A3.469,3.469,0,0,1,74.95,46.4h-9.2V41.238h6.4a1.75,1.75,0,0,0,1.75-1.75V32.153a1.75,1.75,0,0,0-3.5,0v5.585H58.832V32.153a1.75,1.75,0,0,0-3.5,0v7.335a1.749,1.749,0,0,0,1.75,1.75H62.25V46.4h-9.2A3.469,3.469,0,0,1,49.585,42.938ZM72.812,49.9,69.057,90.376H65.75V55.488a1.75,1.75,0,0,0-3.5,0V90.376H58.943L55.188,49.9ZM53.609,97.68a3.808,3.808,0,0,1,3.8-3.8H70.587a3.808,3.808,0,0,1,3.8,3.8v.214H53.609Zm26.553,22.939a2.259,2.259,0,0,1-2.257,2.256H50.1a2.259,2.259,0,0,1-2.257-2.256V103.65a2.259,2.259,0,0,1,2.257-2.256h27.81a2.259,2.259,0,0,1,2.257,2.256Z"/>
    <path d="M70.791,106.081H57.209a5.613,5.613,0,0,0-5.606,5.607v.892a5.613,5.613,0,0,0,5.606,5.608H70.791A5.613,5.613,0,0,0,76.4,112.58v-.892A5.613,5.613,0,0,0,70.791,106.081Zm2.106,6.5a2.11,2.11,0,0,1-2.106,2.108H57.209A2.11,2.11,0,0,1,55.1,112.58v-.892a2.109,2.109,0,0,1,2.106-2.107H70.791a2.109,2.109,0,0,1,2.106,2.107Z"/>
    <path d="M118.051,95.831a7.308,7.308,0,0,0-4.862-6.47l3.465-37.349a6.971,6.971,0,0,0,5.094-6.7V38.483a13.926,13.926,0,0,0-9.164-13.062A10.091,10.091,0,1,0,98.7,25.143a13.936,13.936,0,0,0-9.98,13.34V45.31a6.97,6.97,0,0,0,5.094,6.7l3.466,37.349a7.308,7.308,0,0,0-4.864,6.47,5.76,5.76,0,0,0-5.292,5.732v14.806a5.763,5.763,0,0,0,5.757,5.756h24.709a5.762,5.762,0,0,0,5.756-5.756V101.563A5.76,5.76,0,0,0,118.051,95.831ZM105.233,55.476a1.75,1.75,0,0,0-1.75,1.75V88.94h-2.73l-3.4-36.666h15.763l-3.4,36.666h-2.731V57.226A1.749,1.749,0,0,0,105.233,55.476Zm.561-44.1a6.6,6.6,0,1,1-6.6,6.6A6.6,6.6,0,0,1,105.794,11.375ZM92.218,45.31V38.483a10.429,10.429,0,0,1,10.417-10.416h5.2a10.429,10.429,0,0,1,10.417,10.416V45.31a3.469,3.469,0,0,1-3.465,3.464h-7.8V44.361h5.69a1.749,1.749,0,0,0,1.75-1.75v-6.7a1.75,1.75,0,0,0-3.5,0v4.95H100.664v-4.95a1.75,1.75,0,1,0-3.5,0v6.7a1.749,1.749,0,0,0,1.75,1.75h4.569v4.413h-7.8A3.468,3.468,0,0,1,92.218,45.31ZM99.7,92.44h11.072a3.81,3.81,0,0,1,3.779,3.368H95.918A3.81,3.81,0,0,1,99.7,92.44Zm20.147,23.929a2.259,2.259,0,0,1-2.256,2.256H92.879a2.259,2.259,0,0,1-2.257-2.256V101.563a2.259,2.259,0,0,1,2.257-2.255h24.709a2.258,2.258,0,0,1,2.256,2.255Z"/>
    <path d="M111.1,103.286H99.364a5.612,5.612,0,0,0-5.606,5.607v.146a5.612,5.612,0,0,0,5.606,5.607H111.1a5.614,5.614,0,0,0,5.607-5.607v-.146A5.614,5.614,0,0,0,111.1,103.286Zm2.107,5.753a2.109,2.109,0,0,1-2.107,2.107H99.364a2.109,2.109,0,0,1-2.106-2.107v-.146a2.109,2.109,0,0,1,2.106-2.107H111.1a2.109,2.109,0,0,1,2.107,2.107Z"/>
    <path d="M35.586,95.831a7.308,7.308,0,0,0-4.864-6.47l3.466-37.349a6.97,6.97,0,0,0,5.094-6.7V38.483a13.927,13.927,0,0,0-9.165-13.062,10.09,10.09,0,1,0-13.885-.278,13.936,13.936,0,0,0-9.98,13.34V45.31a6.971,6.971,0,0,0,5.094,6.7l3.465,37.349a7.308,7.308,0,0,0-4.862,6.47,5.76,5.76,0,0,0-5.293,5.732v14.806a5.762,5.762,0,0,0,5.756,5.756H35.121a5.763,5.763,0,0,0,5.757-5.756V101.563A5.76,5.76,0,0,0,35.586,95.831ZM22.767,55.476a1.749,1.749,0,0,0-1.75,1.75V88.94H18.286l-3.4-36.666H30.648l-3.4,36.666h-2.73V57.226A1.75,1.75,0,0,0,22.767,55.476Zm.56-44.1a6.6,6.6,0,1,1-6.6,6.6A6.6,6.6,0,0,1,23.327,11.375ZM9.752,45.31V38.483A10.429,10.429,0,0,1,20.169,28.067h5.2A10.429,10.429,0,0,1,35.782,38.483V45.31a3.468,3.468,0,0,1-3.465,3.464h-7.8V44.361h5.69a1.749,1.749,0,0,0,1.75-1.75v-6.7a1.75,1.75,0,0,0-3.5,0v4.95H18.2v-4.95a1.75,1.75,0,0,0-3.5,0v6.7a1.749,1.749,0,0,0,1.75,1.75h4.57v4.413h-7.8A3.469,3.469,0,0,1,9.752,45.31Zm7.479,47.13H28.3a3.81,3.81,0,0,1,3.779,3.368H13.452A3.81,3.81,0,0,1,17.231,92.44Zm20.147,23.929a2.259,2.259,0,0,1-2.257,2.256H10.412a2.259,2.259,0,0,1-2.256-2.256V101.563a2.258,2.258,0,0,1,2.256-2.255H35.121a2.259,2.259,0,0,1,2.257,2.255Z"/>
    <path d="M28.636,103.286H16.9a5.614,5.614,0,0,0-5.607,5.607v.146a5.614,5.614,0,0,0,5.607,5.607H28.636a5.612,5.612,0,0,0,5.606-5.607v-.146A5.612,5.612,0,0,0,28.636,103.286Zm2.106,5.753a2.109,2.109,0,0,1-2.106,2.107H16.9a2.109,2.109,0,0,1-2.107-2.107v-.146a2.109,2.109,0,0,1,2.107-2.107H28.636a2.109,2.109,0,0,1,2.106,2.107Z"/>
  </g>
</svg>
