<?xml version="1.0" encoding="utf-8"?>
<!-- Generator: Adobe Illustrator 23.0.6, SVG Export Plug-In . SVG Version: 6.00 Build 0)  -->
<svg version="1.1" id="Layer_1" xmlns="http://www.w3.org/2000/svg" xmlns:xlink="http://www.w3.org/1999/xlink" x="0px" y="0px"
	 viewBox="0 0 128 128" style="enable-background:new 0 0 128 128;" xml:space="preserve">
<title>CLAPPERBOARD</title>
<g>
	<path d="M124.6,46.2C124.6,46.2,124.6,46.2,124.6,46.2c0-1-0.8-1.8-1.8-1.7c0,0,0,0,0,0c0,0,0,0,0,0H36c-0.8-1.6-1.6-3.1-2.7-4.6
		c9.9-2.4,68.8-16.6,87.8-21.1c0.9-0.2,1.5-1.2,1.3-2.1c0,0,0,0,0,0c0,0-2.6-11-3.5-14.7c-0.2-0.6-0.3-1-0.8-1.2
		c-0.5-0.3-1.1-0.2-1.4-0.2c-8,1.9-96.4,23.2-107.3,25.8c-0.6,0-1.2-0.1-1.8-0.1H4c-1,0-1.8,0.8-1.8,1.8c0,29.4,0,67.5,0,85.7
		c0,7.5,6.1,13.6,13.6,13.6h95.3c7.5,0,13.6-6.1,13.6-13.6C124.6,111.1,124.6,129.4,124.6,46.2z M66.8,48L55.1,59.7H42.8l12-11.7
		H66.8z M84,48L72.4,59.7H60L71.7,48H84z M101.3,48L89.6,59.7H77.3L89,48H101.3z M118.6,48l-11.7,11.7H94.6L106.3,48L118.6,48z
		 M111.9,59.7l9.3-9.2v9.2L111.9,59.7z M49.8,48L39,58.5c-0.1-0.7,0.4-4.7-1.6-10.5L49.8,48z M20.2,27.5l11.6-2.8l-5,8.4
		c-2.3-1.8-4.7-3.2-7.4-4.3L20.2,27.5z M29.5,35.4l7-11.8l11.6-2.8l-8.3,14L31,36.9C30.5,36.4,30,35.9,29.5,35.4z M64.5,16.8
		l-8.3,14l-11.6,2.8l8.3-14L64.5,16.8z M80.8,12.9l-8.3,14l-11.6,2.8l8.3-14L80.8,12.9z M97.2,8.9l-8.3,14l-11.6,2.8l8.3-14
		L97.2,8.9z M113.5,5l-8.4,14l-11.6,2.8l8.3-14L113.5,5z M109.9,17.9l6.5-11l2.1,8.9L109.9,17.9z M7.6,29.9
		c15.4,0,27.9,12.5,27.9,27.9v1.8H5.8V29.9H7.6z M121.1,113.8c0,5.6-4.5,10.1-10.1,10.1H15.8c-5.6,0-10.1-4.5-10.1-10.1V63.2h115.4
		L121.1,113.8z"/>
	<path d="M26,54.7c1.3,0,2.4-1.1,2.4-2.4c0-1.3-1.1-2.4-2.4-2.4c-1.3,0-2.4,1.1-2.4,2.4C23.6,53.7,24.7,54.7,26,54.7
		C26,54.7,26,54.7,26,54.7z"/>
	<path d="M12.9,54.7c1.3,0,2.4-1.1,2.4-2.4c0-1.3-1.1-2.4-2.4-2.4s-2.4,1.1-2.4,2.4C10.5,53.7,11.5,54.7,12.9,54.7L12.9,54.7z"/>
	<path d="M12.9,41.1c1.3,0,2.4-1.1,2.4-2.4c0-1.3-1.1-2.4-2.4-2.4s-2.4,1.1-2.4,2.4C10.5,40,11.5,41.1,12.9,41.1L12.9,41.1z"/>
	<path d="M106.3,76.2H19.2c-1,0-1.8,0.8-1.8,1.8s0.8,1.8,1.8,1.8h87.2c1,0,1.8-0.8,1.8-1.8S107.3,76.2,106.3,76.2
		C106.3,76.2,106.3,76.2,106.3,76.2z"/>
	<path d="M106.3,97.9H19.2c-1,0-1.8,0.8-1.8,1.8s0.8,1.8,1.8,1.8h11.6v8.6c0,1,0.8,1.8,1.8,1.8c1,0,1.8-0.8,1.8-1.8v-8.6h57v8.6
		c0,1,0.8,1.8,1.8,1.8s1.8-0.8,1.8-1.8v-8.6h11.6c1,0,1.8-0.8,1.8-1.8S107.3,97.9,106.3,97.9z"/>
</g>
</svg>
