<svg xmlns="http://www.w3.org/2000/svg" width="128" height="128" viewBox="0 0 128 128">
  <title>CONTROLER</title>
  <g>
    <path d="M33.994,41.284h-1.07V36.632a5.468,5.468,0,0,0-5.454-5.454,5.459,5.459,0,0,0-5.454,5.454v4.652h-1.07a4.938,4.938,0,0,0,0,9.875h1.07V86.2a5.454,5.454,0,0,0,10.908,0V51.159h1.07a4.938,4.938,0,1,0,0-9.875Zm-8.478-4.652a1.948,1.948,0,0,1,3.338-1.371,1.91,1.91,0,0,1,.57,1.371v4.652H25.516ZM29.424,86.2a1.954,1.954,0,0,1-3.908,0V51.159h3.908Zm4.57-38.543H20.946a1.438,1.438,0,0,1,0-2.875H33.994a1.438,1.438,0,1,1,0,2.875Z"/>
    <path d="M58.044,56.407h-1.07V36.632a5.468,5.468,0,0,0-5.454-5.454,5.463,5.463,0,0,0-5.461,5.454V56.407H45a4.938,4.938,0,0,0,0,9.875h1.064V86.2a5.458,5.458,0,0,0,10.915,0V66.282h1.07a4.938,4.938,0,0,0,0-9.875ZM49.559,36.632A1.952,1.952,0,0,1,52.9,35.261a1.911,1.911,0,0,1,.571,1.371V56.407H49.559ZM53.474,86.2a1.958,1.958,0,0,1-3.915,0V66.282h3.915Zm4.57-23.42H45a1.438,1.438,0,0,1,0-2.875H58.044a1.438,1.438,0,0,1,0,2.875Z"/>
    <path d="M82.093,49.182h-1.07V36.632a5.466,5.466,0,0,0-5.454-5.454,5.464,5.464,0,0,0-5.461,5.454v12.55H69.045a4.938,4.938,0,1,0,0,9.875h1.063V86.2a5.458,5.458,0,0,0,10.915,0V59.057h1.07a4.938,4.938,0,0,0,0-9.875Zm-8.485-12.55a1.953,1.953,0,0,1,3.345-1.371,1.91,1.91,0,0,1,.57,1.371V49.165H73.608ZM77.523,86.2a1.958,1.958,0,0,1-3.915,0V59.057h3.915Zm4.57-30.645H69.045a1.438,1.438,0,1,1,0-2.875H82.093a1.438,1.438,0,0,1,0,2.875Z"/>
    <path d="M106.143,40.6h-1.07V36.632a5.455,5.455,0,0,0-10.909,0V40.6H93.1a4.938,4.938,0,1,0,0,9.875h1.069V86.2a5.468,5.468,0,0,0,5.455,5.454,5.459,5.459,0,0,0,5.454-5.454V50.479h1.07a4.938,4.938,0,0,0,0-9.875Zm-8.479-3.972a1.955,1.955,0,0,1,3.909,0V40.6H97.664Zm3.909,49.57a1.957,1.957,0,0,1-1.954,1.954A1.97,1.97,0,0,1,97.664,86.2V50.479h3.909Zm4.57-39.223H93.1a1.438,1.438,0,1,1,0-2.875h13.048a1.438,1.438,0,0,1,0,2.875Z"/>
    <path d="M33.344,95.592H21.6a1.749,1.749,0,0,0-1.75,1.75v5.873a1.749,1.749,0,0,0,1.75,1.75H33.344a1.749,1.749,0,0,0,1.75-1.75V97.342A1.749,1.749,0,0,0,33.344,95.592Zm-1.75,5.873H23.347V99.092h8.247Z"/>
    <path d="M57.39,95.592H45.643a1.749,1.749,0,0,0-1.75,1.75v5.873a1.749,1.749,0,0,0,1.75,1.75H57.39a1.75,1.75,0,0,0,1.75-1.75V97.342A1.75,1.75,0,0,0,57.39,95.592Zm-1.75,5.873H47.393V99.092H55.64Z"/>
    <path d="M81.436,95.592H69.688a1.75,1.75,0,0,0-1.75,1.75v5.873a1.75,1.75,0,0,0,1.75,1.75H81.436a1.75,1.75,0,0,0,1.75-1.75V97.342A1.75,1.75,0,0,0,81.436,95.592Zm-1.75,5.873H71.438V99.092h8.248Z"/>
    <path d="M105.481,95.592H93.735a1.75,1.75,0,0,0-1.75,1.75v5.873a1.75,1.75,0,0,0,1.75,1.75h11.746a1.749,1.749,0,0,0,1.75-1.75V97.342A1.749,1.749,0,0,0,105.481,95.592Zm-1.75,5.873H95.485V99.092h8.246Z"/>
    <path d="M115.572,19.9H11.516a9.252,9.252,0,0,0-9.241,9.242V107a9.251,9.251,0,0,0,9.241,9.241H115.572A9.251,9.251,0,0,0,124.813,107V29.141A9.252,9.252,0,0,0,115.572,19.9Zm5.741,87.1a5.747,5.747,0,0,1-5.741,5.741H11.516A5.748,5.748,0,0,1,5.775,107V29.141A5.748,5.748,0,0,1,11.516,23.4H115.572a5.748,5.748,0,0,1,5.741,5.742Z"/>
  </g>
</svg>
