<svg xmlns="http://www.w3.org/2000/svg" width="128" height="128" viewBox="0 0 128 128">
  <title>COUNTDOWN</title>
  <g>
    <path d="M54.217,55.912a1.726,1.726,0,0,0,1.261.507,1.748,1.748,0,0,0,1.242-.548c2.553-2.7,4.5-3.752,6.929-3.752,1.349,0,2.8.657,2.8,2.1,0,1.113-.329,2.547-4.248,5.5l-12.7,9.5a1.75,1.75,0,0,0-.7,1.4v6.95a1.75,1.75,0,0,0,1.75,1.75H77.3a1.749,1.749,0,0,0,1.75-1.75V69.92a1.75,1.75,0,0,0-1.75-1.75H69.118l.919-.655c6.153-4.2,8.663-8.159,8.663-13.646,0-7.534-6.245-13-14.85-13-6.038,0-10.977,2.415-15.1,7.383a1.75,1.75,0,0,0,.116,2.361ZM63.85,44.368c6.682,0,11.35,3.907,11.35,9.5,0,3.528-1.214,6.707-7.166,10.776l-5.4,3.85a1.75,1.75,0,0,0,1.016,3.175h11.9v4.15H52.3V71.5l12-8.98c4.064-3.06,5.647-5.387,5.647-8.3,0-3.193-2.708-5.6-6.3-5.6a11.765,11.765,0,0,0-8.2,3.583l-2.936-2.909A15.088,15.088,0,0,1,63.85,44.368Z"/>
    <path d="M122.4,60.79H111.084A47.173,47.173,0,0,0,65.75,15.455V4.144a1.75,1.75,0,0,0-3.5,0V33.121a1.75,1.75,0,1,0,3.5,0v-3.2A32.709,32.709,0,0,1,96.617,60.79h-3.2a1.75,1.75,0,1,0,0,3.5h3.2A32.709,32.709,0,0,1,65.75,95.156v-3.2a1.75,1.75,0,0,0-3.5,0v3.2A32.709,32.709,0,0,1,31.383,64.29h3.2a1.75,1.75,0,0,0,0-3.5h-3.2a32.573,32.573,0,0,1,11.84-23.457A1.75,1.75,0,0,0,41,34.634,36.06,36.06,0,0,0,27.883,60.79H20.419A43.6,43.6,0,0,1,35.564,29.449,1.75,1.75,0,1,0,33.282,26.8,47.1,47.1,0,0,0,16.919,60.79H5.605a1.75,1.75,0,1,0,0,3.5H16.916A47.174,47.174,0,0,0,62.25,109.624v11.311a1.75,1.75,0,0,0,3.5,0V109.624A47.173,47.173,0,0,0,111.084,64.29H122.4a1.75,1.75,0,1,0,0-3.5ZM65.75,26.419V18.955A43.674,43.674,0,0,1,107.584,60.79h-7.463A36.212,36.212,0,0,0,65.75,26.419ZM20.416,64.29h7.463A36.213,36.213,0,0,0,62.25,98.66v7.464A43.673,43.673,0,0,1,20.416,64.29ZM65.75,106.124V98.66a36.213,36.213,0,0,0,34.371-34.37h7.463A43.674,43.674,0,0,1,65.75,106.124Z"/>
  </g>
</svg>
