<svg xmlns="http://www.w3.org/2000/svg" width="128" height="128" viewBox="0 0 128 128">
  <title>CURTAIN</title>
  <path d="M125.545,14.947a1.75,1.75,0,0,0-1.75-1.75H4.221a1.751,1.751,0,0,0-1.75,1.75v9.4c0,.018,0,.035.006.053V84.318h0v27.934A1.75,1.75,0,0,0,4.227,114h80.5a1.747,1.747,0,0,0,.637.131h38.426a1.75,1.75,0,0,0,1.75-1.75V24.362l0-.019ZM43.876,110.5A54.366,54.366,0,0,0,25.713,85.168,7.346,7.346,0,0,0,26.952,73.1c14.671-9.4,24.16-27.353,24.73-47H76.336C76.871,45.8,86.368,63.806,101.07,73.219A7.354,7.354,0,0,0,102.3,85.291,54.434,54.434,0,0,0,84.181,110.5ZM11.218,82.568H5.977V74.844H22.213a1.9,1.9,0,0,1,.281.022l.307.046c.047.011.1.021.146.029a3.854,3.854,0,0,1,1.87,6.5,3.786,3.786,0,0,1-1.878,1.045l-.174.027c-.059.009-.119.022-.181.026-.036,0-.071.006-.107.01a1.952,1.952,0,0,1-.264.018ZM112.653,110.5a57.475,57.475,0,0,1,9.39-20.363V110.5Zm-3.606,0h-7.879c3.351-10.331,9.044-18.887,16.214-24.314h3.378C115.575,92.2,111.476,100.694,109.047,110.5Zm13-27.814H105.8a3.872,3.872,0,0,1-3.845-3.856,3.932,3.932,0,0,1,3.032-3.769l.045-.008a4.2,4.2,0,0,1,.768-.08h16.247ZM22.961,71.4l-.024,0a5.332,5.332,0,0,0-.724-.05H18.872C30.14,61.586,37.343,44.571,37.8,26.093H48.179C47.587,45.488,37.835,63.056,22.961,71.4ZM7.242,71.344c9.193-9.776,14.923-26.7,15.287-45.251H34.3c-.5,19.344-8.694,36.89-21.192,45.251Zm107.672.131C102.383,63.09,94.173,45.484,93.7,26.093h11.773c.343,18.609,6.086,35.59,15.311,45.382ZM90.206,26.093c.43,18.524,7.644,35.6,18.943,45.382H105.8a7.224,7.224,0,0,0-.735.043C90.155,63.172,80.39,45.547,79.834,26.093Zm31.837,41.546c-7.884-9.337-12.767-24.692-13.084-41.546h13.084Zm-103-41.546c-.338,16.8-5.211,32.1-13.069,41.423V26.093Zm88.1,60.1h4.839c-6.418,6.018-11.459,14.455-14.476,24.314h-9.6C91.9,100.144,98.657,91.59,107.145,86.188Zm14.9-69.491v5.771H5.971V16.7ZM5.977,110.5V90.024A57.567,57.567,0,0,1,15.4,110.5ZM19,110.5c-2.428-9.864-6.535-18.395-11.741-24.434h3.382c7.187,5.437,12.9,14.035,16.251,24.434Zm11.549,0c-3.022-9.921-8.075-18.4-14.51-24.434h4.828C29.4,91.493,36.179,100.09,40.158,110.5Z"/>
</svg>
