<?xml version="1.0" encoding="iso-8859-1"?>
<!-- Uploaded to: SVG Repo, www.svgrepo.com, Generator: SVG Repo Mixer Tools -->
<!DOCTYPE svg PUBLIC "-//W3C//DTD SVG 1.1//EN" "http://www.w3.org/Graphics/SVG/1.1/DTD/svg11.dtd">
<svg fill="#000000" version="1.1" id="Capa_1" xmlns="http://www.w3.org/2000/svg" xmlns:xlink="http://www.w3.org/1999/xlink" 
	 width="800px" height="800px" viewBox="0 0 291.92 291.919"
	 xml:space="preserve">
<g>
	<path d="M69.699,131.71h1.584c6.103,0,11.064-4.968,11.064-11.068v-17.911c0-0.872,0.709-1.58,1.58-1.58h123.264
		c0.867,0,1.586,0.708,1.586,1.58v17.911c0,6.1,4.96,11.068,11.061,11.068h1.584c6.101,0,11.066-4.968,11.066-11.068V11.063
		C232.488,4.969,227.522,0,221.422,0h-1.574c-6.104,0-11.07,4.969-11.07,11.063v3.688c0,0.873-0.709,1.581-1.581,1.581H83.928
		c-0.871,0-1.58-0.708-1.58-1.581v-3.688C82.348,4.969,77.381,0,71.279,0h-1.58c-6.103,0-11.063,4.969-11.063,11.063v109.584
		C58.636,126.743,63.597,131.71,69.699,131.71z M68.119,11.063c0-0.866,0.708-1.58,1.58-1.58h1.58c0.872,0,1.58,0.714,1.58,1.58
		v3.688c0,6.103,4.961,11.069,11.069,11.069h123.273c6.101,0,11.061-4.966,11.061-11.069v-3.688c0-0.866,0.714-1.58,1.586-1.58
		h1.585c0.872,0,1.576,0.714,1.576,1.58v109.584c0,0.869-0.704,1.58-1.576,1.58h-1.585c-0.872,0-1.586-0.711-1.586-1.58v-17.911
		c0-6.103-4.965-11.064-11.065-11.064H83.928c-6.1,0-11.069,4.961-11.069,11.064v17.911c0,0.869-0.703,1.58-1.575,1.58h-1.584
		c-0.872,0-1.58-0.711-1.58-1.58V11.063z"/>
	<path d="M41.253,114.852c6.099,0,11.068-4.96,11.068-11.063v-3.165c0-6.095-4.969-11.064-11.068-11.064H28.087
		c-6.105,0-11.066,4.969-11.066,11.064v3.165c0,6.103,4.96,11.063,11.066,11.063H41.253z M26.506,103.789v-3.165
		c0-0.867,0.711-1.581,1.581-1.581h13.166c0.871,0,1.579,0.714,1.579,1.581v3.165c0,0.872-0.708,1.58-1.579,1.58H28.087
		C27.218,105.369,26.506,104.66,26.506,103.789z"/>
	<path d="M263.827,89.56h-13.161c-6.104,0-11.07,4.969-11.07,11.064v3.165c0,6.103,4.967,11.063,11.07,11.063h13.161
		c6.11,0,11.071-4.96,11.071-11.063v-3.165C274.898,94.529,269.938,89.56,263.827,89.56z M265.413,103.789
		c0,0.872-0.714,1.58-1.586,1.58h-13.161c-0.87,0-1.579-0.708-1.579-1.58v-3.165c0-0.867,0.709-1.581,1.579-1.581h13.161
		c0.872,0,1.586,0.714,1.586,1.581V103.789z"/>
	<path d="M257.255,118.54h-0.53c-6.105,0-11.07,4.966-11.07,11.063v18.305l-10.006-7.683c-3.59-2.758-9.7-4.829-14.227-4.829H69.699
		c-4.52,0-10.627,2.076-14.223,4.834l-10.003,7.678v-18.305c0-6.097-4.969-11.063-11.068-11.063h-0.527
		c-6.095,0-11.064,4.966-11.064,11.063v39.512c0,6.416,3.381,11.065,8.038,11.065h54.943l37.438,31.864l-63.875,53.607
		c-2.897,2.467-4.662,5.9-4.963,9.689c-0.312,3.791,0.882,7.471,3.338,10.363l1.021,1.208c2.708,3.182,6.657,5.007,10.843,5.007
		c3.37,0,6.643-1.202,9.218-3.391l67.129-57.135l67.126,57.135c2.578,2.188,5.849,3.391,9.225,3.391
		c4.173,0,8.125-1.825,10.834-5.012l1.019-1.197c2.462-2.898,3.653-6.578,3.344-10.369c-0.304-3.789-2.063-7.223-4.987-9.71
		l-63.844-53.587l37.435-31.864h54.18c4.656,0,8.024-4.645,8.024-11.065v-39.512C268.31,123.506,263.344,118.54,257.255,118.54z
		 M72.678,281.291c-1.107,0.938-2.287,1.127-3.076,1.127c-1.397,0-2.708-0.598-3.612-1.669l-1.021-1.206
		c-0.824-0.966-1.22-2.184-1.118-3.454c0.103-1.261,0.688-2.409,1.627-3.214l65.075-54.614l8.079,6.877L72.678,281.291z
		 M226.39,272.864c0.971,0.82,1.553,1.964,1.657,3.235c0.106,1.26-0.304,2.488-1.122,3.464l-1.019,1.195
		c-0.903,1.062-2.215,1.67-3.611,1.67c-0.798,0-1.975-0.188-3.067-1.128l-65.959-56.143l-22.676-19.297l-30.168-25.681h15.525
		l22.625,18.982l22.769,19.108L226.39,272.864z M130.7,180.18h30.502l-15.253,12.8L130.7,180.18z M161.296,205.861l-7.968-6.698
		l22.624-18.982h15.518L161.296,205.861z M258.83,169.115c0,0.656-0.085,1.187-0.179,1.586h-41.407h-44.74H119.4H74.66H32.48
		c-0.097-0.399-0.183-0.93-0.183-1.586v-39.517c0-0.866,0.713-1.583,1.58-1.583h0.533c0.871,0,1.58,0.717,1.58,1.583v21.595
		c0,2.121,0.517,3.916,1.522,5.354c2.365,3.382,7.182,3.896,11.116,0.878l12.627-9.687c1.951-1.501,5.982-2.871,8.444-2.871h151.733
		c2.457,0,6.489,1.37,8.447,2.871l12.624,9.687c1.753,1.348,3.659,2.062,5.492,2.062c3.443,0,7.154-2.593,7.154-8.295v-21.595
		c0-0.866,0.709-1.583,1.579-1.583h0.525c0.872,0,1.586,0.717,1.586,1.583v39.517H258.83z"/>
	<path d="M84.45,40.09c0.94-0.074,1.935-0.113,2.955-0.113c3.703,0,6.118,0.687,7.951,2.076c2.005,1.488,3.273,3.893,3.273,7.305
		c0,3.703-1.345,6.256-3.187,7.836c-2.047,1.698-5.182,2.499-8.961,2.499c-0.941,0-1.769-0.026-2.493-0.063
		c-1.377-0.075-2.485-3.189-2.485-6.848v-5.724C81.508,43.392,82.815,40.208,84.45,40.09z M86.637,56.271
		c0.252,0.005,0.522,0.005,0.769,0.005c3.989,0.026,6.606-2.15,6.606-6.779c0-4.024-2.354-6.156-6.155-6.156
		c-0.37,0-0.704,0.02-1,0.035c-0.543,0.042-0.983,2.976-0.983,6.477C85.878,53.363,86.211,56.256,86.637,56.271z"/>
	<path d="M105.902,46.756v6.118c0,3.665-0.984,6.627-2.181,6.627c-1.21,0-2.184-2.968-2.184-6.627v-6.118
		c0-3.667,0.979-6.627,2.184-6.627C104.923,40.124,105.902,43.089,105.902,46.756z"/>
	<path d="M112.615,40.069c0.893-0.059,1.882-0.098,2.924-0.098c2.862,0,4.882,0.44,6.252,1.534c1.184,0.918,1.816,2.288,1.816,4.078
		c0,1.142-0.38,2.118-0.966,2.902c-1.021,1.384-1.435,2.297-0.753,3.384c0.375,0.585,0.661,1.304,0.887,2.14
		c0.247,0.918,0.494,1.884,0.719,2.766c0.405,1.522-0.165,2.727-1.412,2.727c-1.241,0-2.651-0.979-2.995-2.231
		c-0.173-0.64-0.365-1.41-0.574-2.292c-0.544-2.433-1.371-3.068-3.19-3.094c0,0-0.289,0-0.643,0c-0.357,0-0.651,1.704-0.651,3.811
		s-0.974,3.806-2.168,3.806c-1.196,0-2.165-2.968-2.165-6.627v-5.861C109.697,43.347,111.004,40.182,112.615,40.069z
		 M114.896,48.722h0.863c2.189,0,3.479-1.1,3.479-2.781c0-1.765-1.202-2.683-3.224-2.683c-0.389,0-0.722,0.005-0.99,0.026
		c-0.553,0.026-0.995,1.307-0.995,2.78C114.036,47.53,114.421,48.722,114.896,48.722z"/>
	<path d="M134.698,51.3c-1.967,0-3.557,1.027-3.557,2.299c0,1.273,1.776,2.302,3.981,2.302c2.2,0,3.979,0.8,3.979,1.8
		c0,0.996-2.758,1.801-6.16,1.801c-3.41,0-6.166-2.968-6.166-6.627v-6.118c0-3.667,2.665-6.627,5.96-6.627
		c3.294,0,5.966,0.801,5.966,1.801c0,1-1.693,1.801-3.785,1.801c-2.089,0-3.776,0.897-3.776,2.005c0,1.107,1.59,2.01,3.557,2.01
		c1.968,0,3.564,0.791,3.564,1.78C138.262,50.507,136.666,51.3,134.698,51.3z"/>
	<path d="M153.853,59.63c-0.735,0.113-1.586,0.185-2.513,0.185c-6.692,0-10.155-4.2-10.155-9.72c0-6.605,4.714-10.262,10.588-10.262
		c0.903,0,1.722,0.076,2.436,0.183c1.329,0.203,2.121,1.457,1.869,2.407c-0.252,0.953-1.233,1.365-2.257,1.174
		c-0.562-0.113-1.191-0.174-1.885-0.174c-3.453,0-6.155,2.102-6.155,6.407c0,3.893,2.308,6.329,6.176,6.329
		c0.626,0,1.271-0.061,1.864-0.15c1.023-0.163,1.963,0.299,2.136,1.252C156.136,58.211,155.222,59.421,153.853,59.63z"/>
	<path d="M160.739,43.798c-1.448,0-2.614-0.816-2.614-1.837c0-1.016,2.966-1.837,6.625-1.837h1.628c3.664,0,6.624,0.816,6.624,1.837
		c0,1.015-1.187,1.837-2.635,1.837c-1.46,0-2.646,2.975-2.646,6.635v2.436c0,3.664-0.981,6.627-2.177,6.627
		c-1.213,0-2.185-2.968-2.185-6.627v-2.436C163.354,46.773,162.184,43.798,160.739,43.798z"/>
	<path d="M192.24,49.615c0,6.383-3.82,10.2-9.516,10.2c-5.712,0-9.109-4.345-9.109-9.888c0-5.806,3.734-10.142,9.435-10.142
		C188.981,39.791,192.24,44.24,192.24,49.615z M178.23,49.835c0,3.822,1.796,6.504,4.713,6.504c2.979,0,4.651-2.822,4.651-6.577
		c0-3.512-1.631-6.504-4.651-6.504C179.963,43.258,178.23,46.085,178.23,49.835L178.23,49.835z"/>
	<path d="M198.026,40.069c0.893-0.059,1.875-0.098,2.919-0.098c2.859,0,4.877,0.44,6.256,1.534c1.182,0.918,1.812,2.288,1.812,4.078
		c0,1.142-0.379,2.118-0.966,2.902c-1.019,1.384-1.438,2.297-0.756,3.384c0.377,0.585,0.66,1.304,0.892,2.14
		c0.241,0.918,0.493,1.884,0.714,2.766c0.41,1.522-0.167,2.727-1.413,2.727c-1.233,0-2.639-0.979-2.991-2.231
		c-0.172-0.64-0.367-1.41-0.577-2.292c-0.54-2.433-1.376-3.068-3.187-3.094c0,0-0.293,0-0.651,0c-0.356,0-0.645,1.704-0.645,3.811
		s-0.972,3.806-2.168,3.806c-1.203,0-2.169-2.968-2.169-6.627v-5.861C195.103,43.347,196.403,40.182,198.026,40.069z
		 M200.304,48.722h0.862c2.188,0,3.479-1.1,3.479-2.781c0-1.765-1.207-2.683-3.228-2.683c-0.384,0-0.72,0.005-0.992,0.026
		c-0.553,0.026-0.992,1.307-0.992,2.78C199.449,47.53,199.831,48.722,200.304,48.722z"/>
	<path d="M143.025,79.03c0.129-0.098,0.392-0.098,0.521,0l3.989,2.166c0.123,0.087,0.236,0.126,0.344,0.126
		c0.124,0,0.226-0.055,0.296-0.147c0.084-0.113,0.103-0.279,0.042-0.478l-0.969-4.473l-0.005-0.026
		c-0.053-0.157,0.023-0.399,0.162-0.496l3.434-3.079c0.28-0.209,0.264-0.415,0.232-0.522c-0.039-0.103-0.147-0.273-0.502-0.273
		l-4.529-0.37h-0.023c-0.166,0-0.37-0.147-0.423-0.312l-1.892-4.318c-0.108-0.333-0.312-0.375-0.42-0.375
		c-0.102,0-0.307,0.042-0.415,0.375l-1.879,4.294l-0.013,0.023c-0.053,0.16-0.252,0.312-0.423,0.312l-4.559,0.37
		c-0.349,0-0.457,0.17-0.493,0.273c-0.034,0.107-0.05,0.312,0.236,0.522l3.412,3.053l0.021,0.026
		c0.134,0.097,0.21,0.333,0.157,0.496l-0.974,4.499c-0.06,0.199-0.047,0.359,0.042,0.478c0.124,0.178,0.378,0.199,0.641,0.021
		l3.945-2.145L143.025,79.03z"/>
</g>
</svg>