<svg xmlns="http://www.w3.org/2000/svg" width="128" height="128" viewBox="0 0 128 128">
  <title>FENCE</title>
  <path d="M125.119,112.583h-3.906v-1.478a7.362,7.362,0,0,0-5.6-7.136V49.076a5.47,5.47,0,0,0,5.324-5.459v-.429a5.473,5.473,0,0,0-5.467-5.467h-3.482V35.253a9.985,9.985,0,1,0-11.716-2.543,1.492,1.492,0,0,0,.1.125,10.02,10.02,0,0,0,3.266,2.42v2.466h-3.476a5.473,5.473,0,0,0-5.467,5.467v.429A5.474,5.474,0,0,0,98.5,48.825l-.079.07c-6.944,5.671-19.64,9.2-33.133,9.2-13.655,0-26.377-3.575-33.284-9.339a5.471,5.471,0,0,0,3.606-5.134v-.429a5.472,5.472,0,0,0-5.466-5.467H26.664V35.248a9.993,9.993,0,0,0,5.773-8.43,5.725,5.725,0,0,0,.027-.628,9.975,9.975,0,1,0-14.151,9.061v2.47H14.839a5.473,5.473,0,0,0-5.467,5.467v.429A5.469,5.469,0,0,0,14.7,49.076v54.971a7.363,7.363,0,0,0-5.3,7.058v1.478H5.466a1.75,1.75,0,1,0,0,3.5H125.119a1.75,1.75,0,0,0,0-3.5ZM107.134,36.147c.123.008.247,0,.37,0,.1,0,.206.023.309.023s.2-.02.3-.023c.122,0,.244.009.365,0v.933h-1.349Zm-4.157-5.655a6.465,6.465,0,1,1,6.75,1.893,6.659,6.659,0,0,1-2.88.213,7,7,0,0,1-.954-.213,6.512,6.512,0,0,1-2.828-1.785C103.038,30.563,103.008,30.527,102.977,30.492ZM21.813,36.146c.123.009.245,0,.367,0,.105,0,.209.023.314.023s.2-.02.306-.023c.122,0,.243.009.364,0v.933H21.813Zm-5.8-9.956a6.475,6.475,0,1,1,12.95,0,2.021,2.021,0,0,1-.006.258c-.006.043-.01.087-.013.131a6.516,6.516,0,0,1-4.538,5.806,6.629,6.629,0,0,1-2.88.212,6.837,6.837,0,0,1-.953-.212A6.456,6.456,0,0,1,16.014,26.19Zm87.5,22.893h8.592V103.75h-8.592Zm-5.325-5.895a1.969,1.969,0,0,1,1.967-1.967h15.307a1.969,1.969,0,0,1,1.967,1.967v.429a1.969,1.969,0,0,1-1.967,1.966H100.158a1.969,1.969,0,0,1-1.967-1.966Zm1.825,8.891v51.968a7.363,7.363,0,0,0-5.3,7.058v1.478H35.894v-1.478a7.362,7.362,0,0,0-5.606-7.136V51.852c7.687,6.105,20.668,9.738,35,9.738C79.392,61.59,92.279,58.042,100.016,52.079Zm-81.821-3h8.593V103.75H18.2Zm-5.323-5.466v-.429a1.969,1.969,0,0,1,1.967-1.967H30.146a1.969,1.969,0,0,1,1.966,1.967v.429a1.968,1.968,0,0,1-1.966,1.966H14.839A1.969,1.969,0,0,1,12.872,43.617Zm.022,68.966v-1.478a3.859,3.859,0,0,1,3.854-3.855h11.79a3.86,3.86,0,0,1,3.856,3.855v1.478Zm85.319,0v-1.478a3.859,3.859,0,0,1,3.854-3.855h11.791a3.86,3.86,0,0,1,3.855,3.855v1.478Z"/>
</svg>
