<?xml version="1.0" encoding="iso-8859-1"?>
<!-- Uploaded to: SVG Repo, www.svgrepo.com, Generator: SVG Repo Mixer Tools -->
<svg fill="#000000" height="800px" width="800px" version="1.1" id="Capa_1" xmlns="http://www.w3.org/2000/svg" xmlns:xlink="http://www.w3.org/1999/xlink" 
	 viewBox="0 0 512.003 512.003" xml:space="preserve">
<g>
	<g>
		<path d="M65.753,50.838c-24.263,0-44.003,19.739-44.003,44.002s19.739,44.003,44.003,44.003c24.263,0,44.003-19.739,44.003-44.003
			C109.755,70.577,90.016,50.838,65.753,50.838z M65.753,123.669c-15.896,0-28.829-12.933-28.829-28.829
			s12.933-28.829,28.829-28.829c15.897,0,28.829,12.933,28.829,28.829S81.649,123.669,65.753,123.669z"/>
	</g>
</g>
<g>
	<g>
		<path d="M65.753,145.053c-24.263,0-44.003,19.739-44.003,44.003c0,24.264,19.739,44.003,44.003,44.003
			c24.263,0,44.003-19.739,44.003-44.003S90.016,145.053,65.753,145.053z M65.753,217.884c-15.896,0-28.829-12.933-28.829-28.829
			s12.933-28.829,28.829-28.829c15.897,0,28.829,12.933,28.829,28.829S81.649,217.884,65.753,217.884z"/>
	</g>
</g>
<g>
	<g>
		<path d="M65.753,166.87c-12.233,0-22.185,9.953-22.185,22.185s9.953,22.185,22.185,22.185c12.233,0,22.184-9.953,22.184-22.185
			S77.986,166.87,65.753,166.87z M65.753,196.067c-3.866,0-7.012-3.146-7.012-7.012c0-3.866,3.145-7.012,7.012-7.012
			c3.865,0,7.011,3.145,7.011,7.012C72.764,192.922,69.619,196.067,65.753,196.067z"/>
	</g>
</g>
<g>
	<g>
		<path d="M205.075,408.787c-12.233,0-22.185,9.952-22.185,22.184c0,12.233,9.953,22.185,22.185,22.185
			c12.233,0,22.184-9.953,22.184-22.185S217.308,408.787,205.075,408.787z M205.075,437.983c-3.866,0-7.012-3.145-7.012-7.012
			c0-3.865,3.145-7.011,7.012-7.011c3.865,0,7.011,3.145,7.011,7.011C212.086,434.838,208.941,437.983,205.075,437.983z"/>
	</g>
</g>
<g>
	<g>
		<path d="M303.04,408.787c-12.233,0-22.184,9.952-22.184,22.184c0,12.233,9.952,22.185,22.184,22.185
			c12.233,0,22.185-9.953,22.185-22.185S315.272,408.787,303.04,408.787z M303.04,437.983c-3.865,0-7.011-3.145-7.011-7.012
			c0-3.865,3.145-7.011,7.011-7.011c3.866,0,7.012,3.145,7.012,7.011C310.052,434.838,306.906,437.983,303.04,437.983z"/>
	</g>
</g>
<g>
	<g>
		<path d="M254.057,408.787c-12.233,0-22.185,9.952-22.185,22.184c0,12.233,9.953,22.185,22.185,22.185
			c12.233,0,22.185-9.953,22.185-22.185C276.243,418.739,266.29,408.787,254.057,408.787z M254.057,437.983
			c-3.866,0-7.012-3.145-7.012-7.012c0-3.865,3.145-7.011,7.012-7.011s7.012,3.145,7.012,7.011
			C261.069,434.838,257.924,437.983,254.057,437.983z"/>
	</g>
</g>
<g>
	<g>
		<path d="M65.753,72.655c-12.233,0-22.185,9.954-22.185,22.185c0,12.231,9.953,22.185,22.185,22.185
			c12.233,0,22.184-9.953,22.184-22.185C87.937,82.607,77.986,72.655,65.753,72.655z M65.753,101.853
			c-3.866,0-7.012-3.145-7.012-7.012s3.146-7.012,7.012-7.012c3.865,0,7.011,3.145,7.011,7.012S69.619,101.853,65.753,101.853z"/>
	</g>
</g>
<g>
	<g>
		<path d="M482.159,24.172h-71.824c-16.455,0-29.841,13.386-29.841,29.841V384.79c0,4.191,3.396,7.587,7.587,7.587h32.913v53.472
			h-20.735c-4.191,0-7.587,3.396-7.587,7.587v5.855c-0.253-0.025-0.509-0.038-0.768-0.038h-40.589l6.625-65.153
			c0.542-5.342-1.21-10.689-4.81-14.674c-3.599-3.983-8.743-6.268-14.11-6.268H233.826v-13.797c0-4.191-3.396-7.587-7.587-7.587
			H187.8c-4.191,0-7.587,3.396-7.587,7.587v13.797h-11.12c-5.368,0-10.512,2.285-14.11,6.268c-3.6,3.983-5.352,9.332-4.81,14.674
			l6.625,65.153h-37.471v-5.816c0-4.191-3.396-7.587-7.587-7.587H91.006v-53.472h32.912c4.191,0,7.587-3.396,7.587-7.587V54.013
			c0-16.455-13.386-29.841-29.841-29.841H29.841C13.386,24.172,0,37.558,0,54.013V384.79c0,4.191,3.396,7.587,7.587,7.587h32.912
			v53.472H19.764c-4.191,0-7.587,3.396-7.587,7.587v26.806c0,4.191,3.396,7.587,7.587,7.587h91.977c4.191,0,7.587-3.396,7.587-7.587
			v-5.816h39.014l0.67,6.584c0.394,3.872,3.655,6.819,7.548,6.819h174.998c3.893,0,7.154-2.947,7.548-6.819l0.67-6.584h42.131
			c0.259,0,0.515-0.013,0.768-0.038v5.855c0,4.191,3.396,7.587,7.587,7.587h91.977c4.191,0,7.587-3.396,7.587-7.587v-26.806
			c0-4.191-3.396-7.587-7.587-7.587h-20.736v-53.472h32.913c4.191,0,7.587-3.396,7.587-7.587V54.013
			C512,37.558,498.614,24.172,482.159,24.172z M15.173,377.204L15.173,377.204V54.013c0-8.087,6.58-14.667,14.667-14.667h71.823
			c8.087,0,14.667,6.58,14.667,14.667v323.191H83.42H48.085H15.173z M75.833,392.377v53.472H55.672v-53.472H75.833z
			 M104.155,472.655h-0.001H27.35v-11.633h20.735H83.42h20.735V472.655z M195.387,366.948h23.266v6.21h-23.266V366.948z
			 M342.844,392.563l-8.143,80.092H173.413l-8.143-80.092c-0.15-1.478,0.544-2.492,0.972-2.966c0.428-0.473,1.367-1.267,2.852-1.267
			h18.707h38.439h112.781c1.486,0,2.424,0.794,2.852,1.267C342.3,390.071,342.994,391.085,342.844,392.563z M484.65,461.022v11.633
			h-76.804v-11.633h20.735h35.333H484.65z M436.167,445.849v-53.472h20.16v53.472H436.167z M463.914,377.204H428.58h-32.913V54.013
			c0-8.087,6.58-14.667,14.667-14.667h71.824c8.087,0,14.667,6.58,14.667,14.667v323.191H463.914z"/>
	</g>
</g>
<g>
	<g>
		<path d="M446.247,50.838c-24.263,0-44.003,19.739-44.003,44.002s19.739,44.003,44.003,44.003
			c24.263,0,44.003-19.739,44.003-44.003C490.25,70.577,470.511,50.838,446.247,50.838z M446.247,123.669
			c-15.897,0-28.829-12.933-28.829-28.829s12.933-28.829,28.829-28.829s28.829,12.933,28.829,28.829
			S462.144,123.669,446.247,123.669z"/>
	</g>
</g>
<g>
	<g>
		<path d="M446.247,145.053c-24.263,0-44.003,19.739-44.003,44.003c0,24.264,19.739,44.003,44.003,44.003
			c24.263,0,44.003-19.739,44.003-44.003S470.511,145.053,446.247,145.053z M446.247,217.884c-15.897,0-28.829-12.933-28.829-28.829
			s12.933-28.829,28.829-28.829s28.829,12.933,28.829,28.829S462.144,217.884,446.247,217.884z"/>
	</g>
</g>
<g>
	<g>
		<path d="M446.247,166.87c-12.233,0-22.185,9.953-22.185,22.185s9.953,22.185,22.185,22.185s22.185-9.953,22.185-22.185
			S458.48,166.87,446.247,166.87z M446.247,196.067c-3.866,0-7.012-3.145-7.012-7.012c0-3.867,3.145-7.012,7.012-7.012
			s7.012,3.145,7.012,7.012C453.259,192.922,450.114,196.067,446.247,196.067z"/>
	</g>
</g>
<g>
	<g>
		<path d="M446.247,72.656c-12.233,0-22.185,9.953-22.185,22.185c0,12.233,9.953,22.185,22.185,22.185s22.185-9.953,22.185-22.185
			C468.432,82.608,458.48,72.656,446.247,72.656z M446.247,101.852c-3.866,0-7.012-3.145-7.012-7.012s3.145-7.012,7.012-7.012
			s7.012,3.145,7.012,7.012S450.114,101.852,446.247,101.852z"/>
	</g>
</g>
</svg>