<svg xmlns="http://www.w3.org/2000/svg" width="128" height="128" viewBox="0 0 128 128">
  <title>MEGAPHONE</title>
  <g>
    <path d="M20.852,64.882h9.326a1.75,1.75,0,1,0,0-3.5H20.852a1.75,1.75,0,1,0,0,3.5Z"/>
    <path d="M31.928,71.565a1.75,1.75,0,0,0-1.75-1.75H20.852a1.75,1.75,0,0,0,0,3.5h9.326A1.749,1.749,0,0,0,31.928,71.565Z"/>
    <path d="M20.852,56.448h9.326a1.75,1.75,0,1,0,0-3.5H20.852a1.75,1.75,0,1,0,0,3.5Z"/>
    <path d="M118.768,11.114h-.95a5.99,5.99,0,0,0-5.982,5.983v1.854L75.249,40.768a1.715,1.715,0,0,0-.387.321l-50.33-.281A22.331,22.331,0,0,0,2.208,63.132,22.4,22.4,0,0,0,21.4,85.209l4.274,28.579a10.138,10.138,0,0,0,10,8.662,10.219,10.219,0,0,0,1.526-.114,10.148,10.148,0,0,0,8.546-11.53L43.631,96.622l1.022-.153h0a9.323,9.323,0,0,0,7.83-10.588l-.04-.27,23.212.13,36.178,21.571v1.855a5.989,5.989,0,0,0,5.982,5.982h.95a5.989,5.989,0,0,0,5.982-5.982V17.1A5.99,5.99,0,0,0,118.768,11.114ZM5.708,63.132A18.829,18.829,0,0,1,24.522,44.308l49.873.278V82.233L51.08,82.1a1.727,1.727,0,0,0-.691-.148H24.532q-.735,0-1.468-.061A18.891,18.891,0,0,1,5.708,63.132ZM41.05,116.258a6.587,6.587,0,0,1-4.362,2.616h0a6.637,6.637,0,0,1-7.552-5.6l-4.16-27.814,13.465.074,1.468,9.874c0,.023.012.044.016.066l2.364,15.847A6.622,6.622,0,0,1,41.05,116.258ZM49.025,86.4a5.82,5.82,0,0,1-4.892,6.606l-1.018.152L41.98,85.553l6.923.039ZM77.9,83V43.265l33.941-20.239v80.211Zm43.355,26.168a2.485,2.485,0,0,1-2.482,2.482h-.95a2.485,2.485,0,0,1-2.482-2.482V17.1a2.486,2.486,0,0,1,2.482-2.483h.95A2.486,2.486,0,0,1,121.25,17.1Z"/>
  </g>
</svg>
