<svg xmlns="http://www.w3.org/2000/svg" width="128" height="128" viewBox="0 0 128 128">
  <title>MICROPHONE</title>
  <g>
    <path d="M98.56,59.4a1.75,1.75,0,0,0-1.75,1.75V71.93a29.052,29.052,0,0,1-25.933,28.942,28.6,28.6,0,0,1-6.354,0h-.014A29.049,29.049,0,0,1,38.59,71.93V61.15a1.75,1.75,0,0,0-3.5,0V71.93a32.542,32.542,0,0,0,27.48,32.213V116.25H51.016a7.936,7.936,0,0,0-7.926,7.926,1.75,1.75,0,0,0,1.75,1.75H90.56a1.75,1.75,0,0,0,1.75-1.75,7.936,7.936,0,0,0-7.926-7.926H72.83V104.142A32.543,32.543,0,0,0,100.31,71.93V61.15A1.751,1.751,0,0,0,98.56,59.4ZM88.449,122.426h-41.5a4.432,4.432,0,0,1,4.065-2.676H84.384A4.433,4.433,0,0,1,88.449,122.426ZM66.07,116.25V104.51c1.07.053,2.189.053,3.26,0v11.74Z"/>
    <path d="M41.64,55.7h1.45V71.93a24.61,24.61,0,1,0,49.22,0V55.7h1.45a6.55,6.55,0,0,0,0-13.1H92.31V26.36a24.65,24.65,0,0,0-.461-4.749c0-.022-.007-.045-.012-.067A24.612,24.612,0,0,0,43.09,26.36V42.6H41.64a6.55,6.55,0,1,0,0,13.1ZM88.81,71.93a21.11,21.11,0,1,1-42.22,0V55.7H88.81ZM46.59,38.075H54.5a1.75,1.75,0,0,0,0-3.5H46.59v-3.7H54.5a1.75,1.75,0,0,0,0-3.5H46.59V26.36a21.13,21.13,0,0,1,.191-2.69H54.5a1.75,1.75,0,0,0,0-3.5H47.52a21.126,21.126,0,0,1,40.36,0H81.03a1.75,1.75,0,0,0,0,3.5h7.588a21.248,21.248,0,0,1,.192,2.69v1.015H81.032a1.75,1.75,0,0,0,0,3.5H88.81v3.7H81.032a1.75,1.75,0,0,0,0,3.5H88.81V42.6H46.59ZM39.487,47a3.028,3.028,0,0,1,2.153-.9H93.76a3.05,3.05,0,1,1,0,6.1H41.64a3.053,3.053,0,0,1-3.05-3.05A3,3,0,0,1,39.487,47Z"/>
  </g>
</svg>
