<svg xmlns="http://www.w3.org/2000/svg" width="128" height="128" viewBox="0 0 128 128">
  <title>PLAY BUTTON</title>
  <g>
    <path d="M64.543,127.16A61.955,61.955,0,1,1,126.5,65.205,62.024,62.024,0,0,1,64.543,127.16Zm0-120.41A58.455,58.455,0,1,0,123,65.205,58.521,58.521,0,0,0,64.543,6.75Z"/>
    <path d="M64.543,116.215a51.01,51.01,0,1,1,51.01-51.01A51.068,51.068,0,0,1,64.543,116.215Zm0-98.52a47.51,47.51,0,1,0,47.51,47.51A47.564,47.564,0,0,0,64.543,17.7Z"/>
    <path d="M56.281,92.252a6.029,6.029,0,0,1-6.021-6.02V44.177a6.013,6.013,0,0,1,9.712-4.739L86.9,60.467a6.012,6.012,0,0,1,0,9.477L59.972,90.971A5.983,5.983,0,0,1,56.281,92.252Zm0-50.6a2.518,2.518,0,0,0-1.113.264,2.463,2.463,0,0,0-1.411,2.257V86.232a2.513,2.513,0,0,0,4.058,1.981L84.749,67.186a2.513,2.513,0,0,0,0-3.96L57.818,42.2A2.485,2.485,0,0,0,56.284,41.656Z"/>
  </g>
</svg>
