<svg xmlns="http://www.w3.org/2000/svg" width="128" height="128" viewBox="0 0 128 128">
  <title>POPCORN</title>
  <g>
    <path d="M107.208,40.325a10.44,10.44,0,0,0-8.746-9.381,10.439,10.439,0,0,0-8.553-10.2A10.431,10.431,0,0,0,79.731,10.508a10.419,10.419,0,0,0-17.637-.224,10.421,10.421,0,0,0-17.641.227A10.434,10.434,0,0,0,34.4,20.7a10.435,10.435,0,0,0-8.791,10.284,10.441,10.441,0,0,0-8.5,9.23,6.266,6.266,0,0,0-3.9,5.794v.416a6.266,6.266,0,0,0,6.259,6.259H19.9l9.673,69.661a1.751,1.751,0,0,0,1.734,1.509H92.762a1.75,1.75,0,0,0,1.733-1.509l9.673-69.661h.436a6.266,6.266,0,0,0,6.259-6.259v-.416A6.26,6.26,0,0,0,107.208,40.325Zm-79.77-6.008h.068a1.749,1.749,0,0,0,1.722-2.065,6.882,6.882,0,0,1,6.811-8.178h0l.174.009a1.769,1.769,0,0,0,1.368-.6A1.748,1.748,0,0,0,38,22.053a6.868,6.868,0,0,1,6.817-8.048c.174,0,.346.015.536.029a1.741,1.741,0,0,0,1.715-1,6.926,6.926,0,0,1,12.568.015,1.742,1.742,0,0,0,1.775,1,7.072,7.072,0,0,1,1.4-.008,1.758,1.758,0,0,0,1.749-1,6.925,6.925,0,0,1,12.565,0,1.751,1.751,0,0,0,1.741,1c.206-.019.415-.033.626-.033a6.927,6.927,0,0,1,6.92,6.92,7,7,0,0,1-.1,1.117,1.752,1.752,0,0,0,1.732,2.031,6.9,6.9,0,0,1,6.8,8.187,1.751,1.751,0,0,0,1.767,2.07l.223-.013a6.925,6.925,0,0,1,6.753,5.433H90.06a1.751,1.751,0,0,0-1.8-1.851l-.2.012h-.045a1.75,1.75,0,0,0-1.748,1.839H72.721a1.748,1.748,0,0,0-.42-1.242,1.715,1.715,0,0,0-1.384-.609l-.2.012h-.045a1.748,1.748,0,0,0-1.748,1.839H55.382a1.748,1.748,0,0,0-.42-1.242,1.707,1.707,0,0,0-1.384-.609l-.2.012h-.045a1.748,1.748,0,0,0-1.748,1.839H38.042a1.751,1.751,0,0,0-.421-1.243,1.731,1.731,0,0,0-1.383-.608l-.2.012h-.045a1.748,1.748,0,0,0-1.748,1.839H20.715A6.931,6.931,0,0,1,27.438,34.317Zm63.8,86.037H32.83l-9.4-67.67h77.2Zm16.125-73.929a2.762,2.762,0,0,1-2.759,2.759H19.464A2.762,2.762,0,0,1,16.7,46.425v-.416a2.762,2.762,0,0,1,2.759-2.759H104.6a2.762,2.762,0,0,1,2.759,2.759Z"/>
    <path d="M40.55,114.083c.055,0,.112,0,.17-.007a1.751,1.751,0,0,0,1.574-1.91l-5-52a1.75,1.75,0,1,0-3.484.335l5,52A1.748,1.748,0,0,0,40.55,114.083Z"/>
    <path d="M55.483,114.083h.069a1.749,1.749,0,0,0,1.681-1.816l-2-52a1.75,1.75,0,0,0-3.5.135l2,52A1.75,1.75,0,0,0,55.483,114.083Z"/>
    <path d="M69.35,114.082h.068a1.749,1.749,0,0,0,1.748-1.682l2-52a1.75,1.75,0,0,0-3.5-.135l-2,52A1.75,1.75,0,0,0,69.35,114.082Z"/>
    <path d="M84.182,114.076c.057.005.114.007.17.007a1.75,1.75,0,0,0,1.74-1.582l5-52a1.751,1.751,0,1,0-3.485-.335l-5,52A1.752,1.752,0,0,0,84.182,114.076Z"/>
    <path d="M43.241,31.844a1.651,1.651,0,0,0,1.651-1.65,4.156,4.156,0,1,1,8.312,0,1.651,1.651,0,0,0,3.3,0,7.451,7.451,0,0,0-3.621-6.382,4.147,4.147,0,0,1,8.255.575,1.65,1.65,0,0,0,3.3,0,7.454,7.454,0,0,0-14.732-1.616c-.218-.019-.437-.034-.659-.034a7.466,7.466,0,0,0-7.457,7.457A1.65,1.65,0,0,0,43.241,31.844Z"/>
    <path d="M72.428,33.751a1.65,1.65,0,0,0,1.65-1.65,4.157,4.157,0,1,1,8.313,0,1.65,1.65,0,0,0,3.3,0,7.457,7.457,0,0,0-14.914,0A1.651,1.651,0,0,0,72.428,33.751Z"/>
  </g>
</svg>
