<?xml version="1.0" encoding="utf-8"?>
<!-- Generator: Adobe Illustrator 23.0.6, SVG Export Plug-In . SVG Version: 6.00 Build 0)  -->
<svg version="1.1" id="Layer_1" xmlns="http://www.w3.org/2000/svg" xmlns:xlink="http://www.w3.org/1999/xlink" x="0px" y="0px"
	 viewBox="0 0 128 128" style="enable-background:new 0 0 128 128;" xml:space="preserve">
<title>PREMIUM TICKET</title>
<g>
	<path d="M127.4,99.7l-1.5-11.8c-0.1-1-1-1.6-1.9-1.5l0,0c-5.4,0.7-10.4-3.2-11.1-8.6s3.2-10.4,8.6-11.1l0,0c1-0.1,1.6-1,1.5-1.9
		l0,0l-0.6-5l3.5-1.7c0.9-0.4,1.2-1.5,0.8-2.3l0,0L121.3,45c-0.4-0.9-1.5-1.2-2.3-0.8l0,0c-4.9,2.5-10.9,0.6-13.4-4.3
		S105,29,109.9,26.5c0.1,0,0.1-0.1,0.2-0.1c0.9-0.4,1.2-1.5,0.8-2.3l0,0l-5.3-10.7c-0.4-0.9-1.5-1.2-2.3-0.8L2,63.2
		c-0.9,0.4-1.2,1.5-0.8,2.3l5.3,10.7c0.1,0.2,0.3,0.4,0.5,0.6L7.3,79c0.1,1,1,1.6,1.9,1.5l0,0c7.2-0.9,12.8,6,10.7,12.7
		c-0.6,0.6-1.4,1.1-2.2,1.5c-0.9,0.4-1.2,1.5-0.8,2.3l0.3,0.5c-1.5,1.5-3.5,2.4-5.6,2.6c-1,0.1-1.6,1-1.5,1.9l0,0l1.5,11.8
		c0.1,1,1,1.6,2,1.5c7.5-0.9,82.2-10.2,112.3-13.9C126.8,101.6,127.5,100.7,127.4,99.7z M5.2,65.6l70.2-35.1l2.8,5.6
		c0.4,0.9,1.5,1.2,2.3,0.8c0.9-0.4,1.2-1.5,0.8-2.3l0,0L78.5,29l24.7-12.4l3.8,7.6c-6.1,4.2-7.8,12.5-3.6,18.6
		c3.4,5,9.8,7.1,15.5,5.2l3.8,7.6l-3,1.5l0,0L91.6,71.2l0,0l-66.9,33.5L20.9,97c5.6-3.8,7.5-11.1,4.5-17.1C22,73.4,15.1,71.2,9,73.2
		L5.2,65.6z M10.6,77l-0.1-0.6c1-0.3,2.2-0.5,3.4-0.4c3.6,0.2,6.7,2.4,8.3,5.5c1.2,2.5,1,4.8,1,4.9C21.5,80.8,16.4,77,10.6,77z
		 M97.8,101.6l-0.3-2.2c-0.1-1-1-1.7-1.9-1.6c-1,0.1-1.7,1-1.6,1.9c0,0,0,0,0,0.1l0.3,2.2l-79.5,9.8l-1-8.5c1.8-0.5,3.6-1.3,5-2.5
		l3.5,6.9c0.4,0.8,1.5,1.2,2.3,0.8l24.2-12.1c0.4,0.9,1.5,1.2,2.3,0.8c0.2-0.1,0.3-0.2,0.4-0.3l4.4-4.1l2.3-1.1l6.5,3.6
		c0.8,0.5,1.9,0.2,2.4-0.7c0.3-0.5,0.3-1.1,0.1-1.6L65,88.3l25.9-13l0.2,1.5c0.1,0.9,0.9,1.5,1.7,1.5c0.1,0,0.1,0,0.2,0
		c1-0.1,1.6-1,1.5-1.9l0,0l-0.3-2.7l24.7-12.4l0.3,2.2c-7.2,1.9-11.5,9.2-9.6,16.4c1.5,5.9,6.8,10,12.9,10.1l1,8.5L97.8,101.6z"/>
	<path d="M95.7,84.1c-0.1-1-1-1.6-2-1.5s-1.6,1-1.5,2l0.9,7.6c0.1,0.9,0.9,1.5,1.7,1.5c0.1,0,0.1,0,0.2,0c1-0.1,1.6-1,1.5-1.9
		L95.7,84.1z"/>
	<path d="M41.8,68.3l8.1,1.4l1.2,8.1c0.1,1,1,1.6,2,1.5c0.6-0.1,1-0.4,1.3-0.9l3.8-7.3l8.1,1.3c1,0.2,1.9-0.5,2-1.4
		c0.1-0.6-0.1-1.1-0.5-1.5L62,63.7l3.8-7.3c0.4-0.9,0.1-1.9-0.7-2.4c-0.5-0.3-1.1-0.3-1.6,0l-7.3,3.7l-5.8-5.9
		c-0.7-0.7-1.8-0.7-2.5,0c-0.4,0.4-0.6,1-0.5,1.5l1.2,8.1L41.3,65c-0.9,0.4-1.2,1.5-0.8,2.3C40.8,67.8,41.3,68.2,41.8,68.3
		L41.8,68.3z M51.4,63.9c0.7-0.3,1.1-1.1,0.9-1.8l-0.6-4l2.9,2.9c0.5,0.5,1.4,0.7,2,0.3l3.7-1.8l-1.9,3.6c-0.4,0.7-0.2,1.5,0.3,2
		l2.9,2.9l-4-0.7c-0.7-0.1-1.5,0.2-1.8,0.9l-1.9,3.6l-0.6-4.1c-0.1-0.7-0.7-1.3-1.4-1.5l-4.1-0.7L51.4,63.9z"/>
	<path d="M92.6,64.6c0.4,0.9,1.5,1.2,2.3,0.8c0.9-0.4,1.2-1.5,0.8-2.3l0,0L92.1,56c-0.4-0.9-1.5-1.2-2.4-0.8s-1.2,1.5-0.8,2.3
		L92.6,64.6z"/>
	<path d="M85.4,50.3c0.4,0.9,1.5,1.2,2.4,0.8s1.2-1.5,0.8-2.3L85,41.7c-0.4-0.9-1.5-1.2-2.3-0.8c-0.9,0.4-1.2,1.5-0.8,2.3l0,0
		L85.4,50.3z"/>
</g>
</svg>
