<svg xmlns="http://www.w3.org/2000/svg" width="128" height="128" viewBox="0 0 128 128">
  <title>RATING STAR</title>
  <path d="M126.574,60.939a1.747,1.747,0,0,0-1.523-1.2l-14.792-1.192,3.96-3.4a1.75,1.75,0,0,0-1-3.072L99.907,51.005,94.215,37.328a1.75,1.75,0,0,0-3.231,0L85.761,49.868l-6.566-.528L66.075,17.828a1.749,1.749,0,0,0-3.23,0L49.725,49.341l-6.557.527L37.945,37.327a1.749,1.749,0,0,0-3.23,0l-5.7,13.679-13.3,1.07a1.75,1.75,0,0,0-1,3.072l3.96,3.4-14.8,1.192a1.751,1.751,0,0,0-1,3.073L19.819,77.343,14.647,99.064a1.75,1.75,0,0,0,2.614,1.9L36.328,89.331l1.257.769-4.877,20.464a1.75,1.75,0,0,0,2.613,1.9L64.46,94.68,93.6,112.463a1.75,1.75,0,0,0,2.613-1.9L91.336,90.1,92.6,89.33l19.058,11.633a1.749,1.749,0,0,0,2.614-1.9L109.1,77.343,126.05,62.809A1.75,1.75,0,0,0,126.574,60.939ZM92.6,42.553l3.384,8.133-6.551-.527Zm-56.27,0L39.5,50.159l-6.56.527Zm2.108,43.968-1.193-.73a1.751,1.751,0,0,0-1.825,0l-16.394,10,4.447-18.672a1.752,1.752,0,0,0-.563-1.734L8.339,62.887l14.075-1.134L40.62,77.363Zm26.935,4.618a1.753,1.753,0,0,0-1.824,0L37.087,107.287l7.185-30.151a1.75,1.75,0,0,0-.563-1.735L20.179,55.226l30.89-2.481a1.752,1.752,0,0,0,1.476-1.073L64.46,23.053,76.375,51.672a1.752,1.752,0,0,0,1.476,1.073l30.9,2.482L85.211,75.4a1.752,1.752,0,0,0-.564,1.735l7.186,30.151Zm40.639-15.755a1.752,1.752,0,0,0-.563,1.734L109.9,95.786l-16.383-10a1.754,1.754,0,0,0-1.825,0l-1.2.735L88.3,77.363l18.216-15.61,14.065,1.134Z"/>
</svg>
