<svg xmlns="http://www.w3.org/2000/svg" width="128" height="128" viewBox="0 0 128 128">
  <title>RATING</title>
  <g>
    <path d="M37.174,33.549,26.2,31.954l-4.909-9.947a1.75,1.75,0,0,0-3.139,0l-4.909,9.947L2.261,33.549a1.75,1.75,0,0,0-.97,2.985l7.943,7.743L7.36,55.211A1.75,1.75,0,0,0,9.9,57.056l9.818-5.162,9.819,5.162a1.75,1.75,0,0,0,2.539-1.845L30.2,44.277l7.944-7.743a1.75,1.75,0,0,0-.97-2.985ZM27.1,42.414a1.75,1.75,0,0,0-.5,1.548l1.431,8.346-7.494-3.94a1.751,1.751,0,0,0-1.629,0l-7.494,3.94,1.43-8.346a1.744,1.744,0,0,0-.5-1.548L6.273,36.5l8.379-1.217a1.749,1.749,0,0,0,1.318-.958l3.747-7.593,3.748,7.593a1.749,1.749,0,0,0,1.318.958L33.162,36.5Z"/>
    <path d="M127.151,34.741a1.749,1.749,0,0,0-1.412-1.192l-10.977-1.595-4.91-9.947a1.75,1.75,0,0,0-3.139,0L101.8,31.954,90.826,33.549a1.751,1.751,0,0,0-.97,2.985L97.8,44.277,95.925,55.211a1.75,1.75,0,0,0,2.539,1.845l9.818-5.162,9.82,5.162a1.751,1.751,0,0,0,2.539-1.845l-1.875-10.934,7.943-7.743A1.748,1.748,0,0,0,127.151,34.741Zm-11.488,7.673a1.747,1.747,0,0,0-.5,1.548l1.432,8.346-7.5-3.94a1.751,1.751,0,0,0-1.629,0l-7.494,3.94,1.431-8.346a1.747,1.747,0,0,0-.5-1.548L94.839,36.5l8.379-1.217a1.751,1.751,0,0,0,1.317-.958l3.747-7.593,3.748,7.593a1.751,1.751,0,0,0,1.318.958l8.379,1.217Z"/>
    <path d="M88.96,66.84a5.755,5.755,0,0,0-2.93.8A5.861,5.861,0,0,0,84.987,66.2a5.741,5.741,0,0,0-4.079-1.692,5.5,5.5,0,0,0-2.825.722,5.911,5.911,0,0,0-1.165-1.679,5.737,5.737,0,0,0-4.08-1.693,5.507,5.507,0,0,0-2.3.467l-.011-7.348,5.914,3.11a1.75,1.75,0,0,0,2.539-1.845L76.6,42.391l10.062-9.808a1.75,1.75,0,0,0-.971-2.985l-13.9-2.017-6.223-12.6a1.749,1.749,0,0,0-3.138,0l-6.223,12.6L42.309,29.6a1.75,1.75,0,0,0-.971,2.985L51.4,42.391,49.025,56.244A1.751,1.751,0,0,0,50.75,58.29a1.734,1.734,0,0,0,.815-.2l5.775-3.04V72.883l-12.258-.928c-.044,0-.088,0-.132,0a5.071,5.071,0,0,0-5.04,5.09c0,5.079,2.524,6.2,4.827,7.228.517.231,1.052.459,1.6.692,4.218,1.8,8.579,3.664,10.642,8.754s4.738,8.5,11.163,8.5H83.42A11.3,11.3,0,0,0,94.4,93.569a1.589,1.589,0,0,0,.03-.158,10.637,10.637,0,0,0,.259-1.887l.04-18.875a5.7,5.7,0,0,0-1.682-4.106A5.8,5.8,0,0,0,88.96,66.84Zm-35.886-13.5,1.931-11.263a1.749,1.749,0,0,0-.5-1.549l-8.181-7.975,11.3-1.64a1.75,1.75,0,0,0,1.317-.957L64,19.7l5.061,10.251a1.75,1.75,0,0,0,1.318.957l11.3,1.64L73.5,40.526a1.752,1.752,0,0,0-.5,1.55L74.926,53.34l-4.408-2.318L70.51,46.75a6.583,6.583,0,0,0-6.58-6.59,6.6,6.6,0,0,0-6.59,6.59v4.343Zm38.156,19.3-.037,18.787A6.71,6.71,0,0,1,91,92.7a1.3,1.3,0,0,0-.03.166A7.756,7.756,0,0,1,86.1,98.238a7.6,7.6,0,0,1-2.675.472H68.14c-4.071,0-5.994-1.532-7.918-6.307-2.606-6.431-8.1-8.777-12.512-10.661-.529-.226-1.047-.448-1.626-.7-2-.891-2.674-1.191-2.674-4A1.569,1.569,0,0,1,44.9,75.451l14.062,1.064A1.75,1.75,0,0,0,60.84,74.77V46.75a3.087,3.087,0,0,1,5.28-2.175,3.034,3.034,0,0,1,.89,2.178l.03,20.879a1.75,1.75,0,0,0,1.747,1.748h0a1.75,1.75,0,0,0,1.75-1.742,2.274,2.274,0,0,1,.676-1.617,2.251,2.251,0,0,1,1.6-.661,2.213,2.213,0,0,1,1.616.66,2.311,2.311,0,0,1,.675,1.63v2.63a1.75,1.75,0,0,0,3.5,0,2.274,2.274,0,0,1,2.28-2.27,2.261,2.261,0,0,1,2.28,2.29v2.28a1.75,1.75,0,0,0,1.742,1.75h.008A1.75,1.75,0,0,0,86.67,72.6a2.28,2.28,0,0,1,3.9-1.578,2.227,2.227,0,0,1,.658,1.607Z"/>
    <path d="M91.639,105.057H59.346a1.751,1.751,0,0,0-1.75,1.75v9.6a1.751,1.751,0,0,0,1.75,1.75H91.639a1.751,1.751,0,0,0,1.75-1.75v-9.6A1.751,1.751,0,0,0,91.639,105.057Zm-1.75,9.6H61.1v-6.1H89.889Z"/>
  </g>
</svg>
