<?xml version="1.0" encoding="iso-8859-1"?>
<!-- Uploaded to: SVG Repo, www.svgrepo.com, Generator: SVG Repo Mixer Tools -->
<svg fill="#000000" height="800px" width="800px" version="1.1" id="Capa_1" xmlns="http://www.w3.org/2000/svg" xmlns:xlink="http://www.w3.org/1999/xlink" 
	 viewBox="0 0 512.002 512.002" xml:space="preserve">
<g>
	<g>
		<path d="M488.703,370.193l-22.982-13.009c-5.525-3.127-8.959-9.015-8.959-15.365V73.56c10.966-7.145,18.235-19.508,18.235-33.543
			C474.998,17.952,457.046,0,434.981,0c-4.197,0-7.598,3.402-7.598,7.598c0,4.196,3.401,7.598,7.598,7.598
			c13.687,0,24.82,11.135,24.82,24.82c0,13.686-11.134,24.82-24.82,24.82c-13.687,0-24.82-11.135-24.82-24.82
			c0-4.458,1.193-8.827,3.451-12.635c2.139-3.61,0.948-8.271-2.662-10.41c-3.611-2.14-8.271-0.948-10.41,2.661
			c-3.647,6.152-5.574,13.201-5.574,20.384c0,14.035,7.27,26.398,18.235,33.543v15.674c-87.193,85.639-227.771,85.195-314.392-1.361
			V73.56c10.966-7.145,18.235-19.508,18.235-33.543C117.043,17.952,99.091,0,77.027,0c-4.197,0-7.598,3.402-7.598,7.598
			c0,4.196,3.401,7.598,7.598,7.598c13.687,0,24.82,11.135,24.82,24.82c0,13.686-11.134,24.82-24.82,24.82
			c-13.687,0-24.82-11.135-24.82-24.82c0-3.289,0.63-6.481,1.874-9.485c1.605-3.877-0.237-8.321-4.115-9.926
			c-3.877-1.606-8.322,0.237-9.926,4.115c-2.01,4.856-3.029,10.003-3.029,15.297c0,14.035,7.27,26.398,18.235,33.543v69.148
			c0,4.196,3.401,7.598,7.598,7.598c4.197,0,7.598-3.402,7.598-7.598V79.481c2.144,0.357,4.342,0.551,6.585,0.551
			s4.441-0.195,6.585-0.551v262.337c0,11.815,6.388,22.77,16.669,28.589l19.126,10.827v1.255H34.645v-1.254l19.127-10.827
			c10.282-5.82,16.669-16.775,16.669-28.589v-136.61c0-4.196-3.401-7.598-7.598-7.598s-7.598,3.402-7.598,7.598V341.82
			c0,6.35-3.433,12.237-8.959,15.365l-22.982,13.008c-2.383,1.348-3.856,3.875-3.856,6.612v13.282c0,4.196,3.401,7.598,7.598,7.598
			h99.958c4.197,0,7.598-3.402,7.598-7.598v-13.282c0-2.737-1.473-5.264-3.856-6.612l-22.982-13.009
			c-5.525-3.127-8.959-9.015-8.959-15.365V140.094c43.623,38.617,99.132,59.732,157.894,59.732
			c58.136,0,113.09-20.662,156.499-58.497v44.292c0,4.196,3.401,7.598,7.598,7.598c4.197,0,7.598-3.402,7.598-7.598V79.482
			c2.144,0.357,4.342,0.551,6.585,0.551s4.441-0.194,6.585-0.551V341.82c0,11.815,6.387,22.77,16.669,28.589l19.126,10.827v1.255
			h-84.761v-1.254l19.127-10.827c10.282-5.82,16.669-16.775,16.669-28.589v-96.088c0-4.196-3.401-7.598-7.598-7.598
			c-4.197,0-7.598,3.402-7.598,7.598v96.088c0,6.35-3.433,12.237-8.959,15.365l-22.983,13.009c-2.383,1.348-3.856,3.875-3.856,6.612
			v13.283c0,4.196,3.401,7.598,7.598,7.598h99.958c4.197,0,7.598-3.402,7.598-7.598v-13.285
			C492.558,374.068,491.085,371.541,488.703,370.193z M412.434,121.398L412.434,121.398c-86.524,84.167-224.938,84.167-311.462,0
			v-10.777c43.287,37.409,97.94,57.816,155.731,57.816c57.791,0,112.444-20.408,155.731-57.816V121.398z"/>
	</g>
</g>
<g>
	<g>
		<path d="M484.911,500.83l-47.029-88.285c-1.971-3.704-6.574-5.107-10.279-3.133c-3.703,1.972-5.106,6.575-3.133,10.279
			l41.079,77.114H47.809l41.212-77.362c1.972-3.704,0.57-8.305-3.133-10.279c-3.704-1.975-8.305-0.569-10.279,3.133L28.446,500.83
			c-1.254,2.355-1.182,5.195,0.19,7.484c1.374,2.288,3.847,3.688,6.515,3.688h443.054c2.668,0,5.14-1.399,6.515-3.688
			C486.093,506.026,486.166,503.185,484.911,500.83z"/>
	</g>
</g>
<g>
	<g>
		<path d="M395.577,333.13l-32.234-60.509c-1.32-2.478-3.898-4.026-6.706-4.026H156.722c-2.807,0-5.386,1.548-6.706,4.026
			l-32.568,61.137c-1.972,3.704-0.57,8.305,3.133,10.279c1.138,0.607,2.36,0.894,3.566,0.894c2.718,0,5.346-1.462,6.713-4.027
			l30.424-57.112h190.792l30.09,56.483c1.972,3.705,6.576,5.109,10.278,3.134C396.146,341.437,397.549,336.834,395.577,333.13z"/>
	</g>
</g>
</svg>