<?xml version="1.0" encoding="utf-8"?>
<!-- Generator: Adobe Illustrator 23.0.6, SVG Export Plug-In . SVG Version: 6.00 Build 0)  -->
<svg version="1.1" id="Layer_1" xmlns="http://www.w3.org/2000/svg" xmlns:xlink="http://www.w3.org/1999/xlink" x="0px" y="0px"
	 viewBox="0 0 128 128" style="enable-background:new 0 0 128 128;" xml:space="preserve">
<title>SOFA</title>
<g>
	<path d="M114.5,40.7C114.3,30,105.6,21.5,95,21.5H31.6C21,21.5,12.3,30,12.1,40.6C5.3,40.6,0.6,46,0.6,51.9c0,4.6,2.8,8.8,7.1,10.5
		V78c0,4.2,2,8.1,5.1,10.5L9.6,102c-0.8,3.1,1.1,6.2,4.2,7c3.1,0.8,6.2-1.2,7-4.2l1.7-6.7h82.1l1.7,6.7c0.7,3.1,3.9,5,7,4.3
		c3.1-0.7,5-3.9,4.3-7c0,0,0-0.1,0-0.1l-3.3-13.5c3.3-2.5,5.2-6.4,5.1-10.5V62.4c5.8-2.3,8.6-8.8,6.4-14.6
		C124,43.4,119.6,40.4,114.5,40.7z M15.5,41c0-8.9,7.2-16.1,16.1-16.1H95c8.9,0,16.1,7.2,16.1,16.1v0.4c-4,1.5-7.1,5-7.1,9.4
		c0,0.4,0-0.4-0.1,16.6c-2.5-2.8-6-4.3-9.8-4.3H75c-4.8,0-9.1,2.6-11.5,6.7c-2.4-4.1-6.7-6.7-11.5-6.7H32.9c-3.7,0-7.3,1.6-9.8,4.3
		c0,0,0-12.1,0-16.1c0-1.9-1.5-5.9-3.5-7.5c-1.3-1-2.7-2-4.1-2.5L15.5,41z M23.2,75.6c0.4-5.1,4.6-9.1,9.8-9.1H52
		c5.3,0,9.6,4.2,9.8,9.4H23.2V75.6z M103.9,76H65.3c0.2-5.3,4.5-9.4,9.8-9.4h19.1C99.4,66.5,103.7,70.7,103.9,76L103.9,76z
		 M17.5,104c-0.3,1.2-1.6,2-2.8,1.7c-1.3-0.3-2-1.6-1.7-2.8c0,0,0,0,0,0L16,90.3c1.1,0.5,2.2,0.8,3.4,0.9v4.8L17.5,104z M22.9,91.4
		h81v3.2h-81V91.4z M112.4,105.7c-1.1,0.2-2.5-0.5-2.8-1.7l-2.2-9.1v-3.5c1.3-0.1,2.5-0.4,3.7-1c0,0,2.3,9.6,3.1,12.5
		C114.4,103.9,113.9,105.3,112.4,105.7z M117.1,59.5c-0.8,0.2-1.3,0.9-1.3,1.7V78c0,5.6-4.6,9.9-9.9,9.9H21.1
		c-5.3,0-9.9-4.3-9.9-9.9V61.1c0-0.8-0.5-1.5-1.3-1.7c-4.2-1.1-6.7-5.4-5.6-9.5c0.9-3.5,4-5.9,7.6-5.9c4.1,0,7.8,3.3,7.8,7.3
		c0,0.3,0,24.5,0,26.3c0,1,0.8,1.7,1.7,1.7c0,0,0,0,0,0h84.2c1,0,1.7-0.8,1.7-1.7c0,0,0,0,0,0V51.6c0-0.3,0-0.7,0.2-1.4
		c0.7-2.8,2.8-5.1,5.7-5.8c0.6-0.2,1.3-0.2,2-0.2c4.3,0,7.8,3.5,7.8,7.8C123,55.5,120.6,58.6,117.1,59.5L117.1,59.5z"/>
	<circle cx="34.8" cy="49.2" r="2.5"/>
	<circle cx="54" cy="49.2" r="2.5"/>
	<circle cx="73.2" cy="49.2" r="2.5"/>
	<circle cx="92.4" cy="49.2" r="2.5"/>
	<circle cx="44.8" cy="38" r="2.5"/>
	<circle cx="64.1" cy="38" r="2.5"/>
	<circle cx="83.3" cy="38" r="2.5"/>
</g>
</svg>
