<svg xmlns="http://www.w3.org/2000/svg" width="128" height="128" viewBox="0 0 128 128">
  <title>TICKET WINDOW</title>
  <g>
    <path d="M124.25,17.75V14.566a10.6,10.6,0,0,0-10.59-10.59H14.34A10.6,10.6,0,0,0,3.75,14.566V17.75A10.6,10.6,0,0,0,11.338,27.9V88.75H5.5A1.751,1.751,0,0,0,3.75,90.5V105a1.751,1.751,0,0,0,1.75,1.75h5.838v17.82a1.75,1.75,0,0,0,1.75,1.75H114.912a1.75,1.75,0,0,0,1.75-1.75V106.75H122.5a1.751,1.751,0,0,0,1.75-1.75V90.5a1.751,1.751,0,0,0-1.75-1.75h-5.838V27.9A10.6,10.6,0,0,0,124.25,17.75Zm-117,0V14.566a7.1,7.1,0,0,1,7.09-7.09h99.32a7.1,7.1,0,0,1,7.09,7.09V17.75a7.1,7.1,0,0,1-7.09,7.09H14.34A7.1,7.1,0,0,1,7.25,17.75ZM113.162,122.82H14.838V106.75h98.324Zm7.588-19.57H7.25v-11h113.5ZM81.182,88.4H46.818V64.908a17.182,17.182,0,0,1,34.364,0Zm22.726,0H84.682V64.908a20.682,20.682,0,0,0-41.364,0V88.4H24.092V36.682h79.816Zm3.5.354V34.932a1.751,1.751,0,0,0-1.75-1.75H22.342a1.751,1.751,0,0,0-1.75,1.75V88.75H14.838V28.34h98.324V88.75Z"/>
    <polygon points="38.141 20.917 40.536 20.917 40.536 13.437 43.45 13.437 43.45 11.293 35.213 11.293 35.213 13.437 38.141 13.437 38.141 20.917"/>
    <rect x="46.161" y="11.293" width="2.396" height="9.623"/>
    <path d="M56.58,21.084A5.231,5.231,0,0,0,60.4,19.417l-1.736-1.54a2.715,2.715,0,0,1-2.087,1.037,2.811,2.811,0,0,1,0-5.618,2.687,2.687,0,0,1,2.073,1.037l1.75-1.555a5.277,5.277,0,0,0-3.823-1.653A5.137,5.137,0,0,0,51.411,16.1,5.148,5.148,0,0,0,56.58,21.084Z"/>
    <polygon points="65.413 18.297 66.519 17.106 69.223 20.917 72.108 20.917 68.172 15.383 71.828 11.293 68.984 11.293 65.413 15.397 65.413 11.293 63.017 11.293 63.017 20.917 65.413 20.917 65.413 18.297"/>
    <polygon points="81.935 18.773 76.752 18.773 76.752 17.079 81.459 17.079 81.459 14.935 76.752 14.935 76.752 13.437 81.935 13.437 81.935 11.293 74.357 11.293 74.357 20.917 81.935 20.917 81.935 18.773"/>
    <polygon points="87.21 20.917 89.605 20.917 89.605 13.437 92.519 13.437 92.519 11.293 84.283 11.293 84.283 13.437 87.21 13.437 87.21 20.917"/>
  </g>
</svg>
