<svg xmlns="http://www.w3.org/2000/svg" width="128" height="128" viewBox="0 0 128 128">
  <title>VIDEO CAMERA</title>
  <g>
    <path d="M73.825,53.836H33.143a1.75,1.75,0,0,0-1.75,1.75V79.98a1.749,1.749,0,0,0,1.75,1.75H73.825a1.749,1.749,0,0,0,1.75-1.75V55.586A1.75,1.75,0,0,0,73.825,53.836ZM72.075,78.23H34.893V57.336H72.075Z"/>
    <path d="M125.541,40.067a1.752,1.752,0,0,0-1.751,0L100.521,53.542H94.03V51.283A11.462,11.462,0,0,0,82.592,39.834,19.671,19.671,0,1,0,53.484,15.579,19.671,19.671,0,1,0,24.376,39.834,11.459,11.459,0,0,0,13.3,48.466L4.392,44.414a1.751,1.751,0,0,0-2.475,1.593V65.165a1.75,1.75,0,0,0,2.475,1.593l8.546-3.887V84.284a11.462,11.462,0,0,0,11.45,11.449h18.8v3.94L33.95,120.628a1.75,1.75,0,0,0,3.2,1.411l8.923-20.247H60.893l8.922,20.247a1.75,1.75,0,0,0,3.2-1.411L63.784,99.673v-3.94h18.8A11.462,11.462,0,0,0,94.03,84.284V82.025h6.491L123.79,95.5a1.75,1.75,0,0,0,2.627-1.515v-52.4A1.75,1.75,0,0,0,125.541,40.067ZM71.417,7.467A16.183,16.183,0,1,1,55.234,23.65,16.2,16.2,0,0,1,71.417,7.467ZM60.241,39.833H46.728a19.788,19.788,0,0,0,6.756-8.112A19.791,19.791,0,0,0,60.241,39.833ZM19.368,23.65A16.183,16.183,0,1,1,35.552,39.833,16.2,16.2,0,0,1,19.368,23.65ZM5.417,62.447V48.726l7.521,3.42v6.88ZM60.284,98.292h-13.6V95.733h13.6ZM90.53,84.284a7.958,7.958,0,0,1-7.95,7.949H24.388a7.959,7.959,0,0,1-7.95-7.949v-33a7.959,7.959,0,0,1,7.95-7.95H82.58a7.959,7.959,0,0,1,7.95,7.95v33Zm3.5-27.242h5.211V78.525H94.03Zm28.887,33.906L102.741,79.266V56.3l20.176-11.681Z"/>
    <path d="M71.417,31.959a8.309,8.309,0,1,0-8.309-8.309A8.319,8.319,0,0,0,71.417,31.959Zm0-13.118a4.809,4.809,0,1,1-4.809,4.809A4.815,4.815,0,0,1,71.417,18.841Z"/>
    <path d="M43.86,23.65a8.309,8.309,0,1,0-8.308,8.309A8.318,8.318,0,0,0,43.86,23.65Zm-13.118,0a4.809,4.809,0,1,1,4.81,4.809A4.814,4.814,0,0,1,30.742,23.65Z"/>
  </g>
</svg>
