<svg xmlns="http://www.w3.org/2000/svg" width="128" height="128" viewBox="0 0 128 128">
  <title>VOLUME ADJUSTMENT</title>
  <g>
    <path d="M64.222,18.708a41.1,41.1,0,1,0,41.1,41.1A41.145,41.145,0,0,0,64.222,18.708Zm0,78.7A37.6,37.6,0,1,1,91.9,34.392L79.947,43.7A1.75,1.75,0,0,0,82.1,46.459l12.05-9.38A37.574,37.574,0,0,1,64.222,97.405Z"/>
    <path d="M13.814,71.3c-.356-1.572-.642-3.173-.848-4.76A1.75,1.75,0,0,0,9.495,67c.221,1.694.526,3.4.905,5.081a1.752,1.752,0,0,0,1.705,1.363,1.783,1.783,0,0,0,.389-.043A1.75,1.75,0,0,0,13.814,71.3Z"/>
    <path d="M30.924,19.746a1.746,1.746,0,0,0,1.091-.382c1.255-1,2.572-1.956,3.917-2.838a1.75,1.75,0,1,0-1.92-2.926c-1.435.94-2.841,1.959-4.181,3.028a1.75,1.75,0,0,0,1.093,3.118Z"/>
    <path d="M13.2,43.778a1.747,1.747,0,0,0,2.23-1.074c.529-1.516,1.137-3.024,1.806-4.482a1.749,1.749,0,1,0-3.179-1.461c-.716,1.557-1.366,3.168-1.932,4.788A1.75,1.75,0,0,0,13.2,43.778Z"/>
    <path d="M43.8,12.151a1.773,1.773,0,0,0,.667-.132c1.48-.612,3.01-1.161,4.55-1.633A1.75,1.75,0,0,0,47.992,7.04c-1.642.5-3.277,1.091-4.858,1.743a1.75,1.75,0,0,0,.669,3.368Z"/>
    <path d="M58.282,8.439a1.851,1.851,0,0,0,.2-.01c1.6-.178,3.22-.282,4.825-.31a1.75,1.75,0,0,0-.063-3.5c-1.712.029-3.444.141-5.149.33a1.75,1.75,0,0,0,.191,3.489Z"/>
    <path d="M16.825,80.477a1.75,1.75,0,0,0-3.209,1.4c.687,1.575,1.455,3.133,2.283,4.631a1.75,1.75,0,0,0,3.063-1.693C18.187,83.41,17.468,81.951,16.825,80.477Z"/>
    <path d="M100.775,23.252q.709.71,1.387,1.44a1.75,1.75,0,0,0,2.565-2.382q-.723-.777-1.476-1.532c-.707-.709-1.448-1.41-2.2-2.085a1.749,1.749,0,1,0-2.336,2.6C99.419,21.931,100.112,22.588,100.775,23.252Z"/>
    <path d="M115.032,50.266a1.752,1.752,0,0,0,1.719,1.429,1.686,1.686,0,0,0,.322-.03,1.752,1.752,0,0,0,1.4-2.041c-.315-1.686-.713-3.377-1.184-5.025a1.75,1.75,0,1,0-3.365.962C114.365,47.1,114.738,48.687,115.032,50.266Z"/>
    <path d="M86.708,13.241c1.443.7,2.872,1.473,4.246,2.3a1.75,1.75,0,0,0,1.813-2.994c-1.468-.888-2.995-1.716-4.538-2.461a1.749,1.749,0,1,0-1.521,3.151Z"/>
    <path d="M72.935,8.846c1.586.27,3.175.617,4.721,1.032a1.75,1.75,0,1,0,.908-3.38c-1.651-.443-3.348-.814-5.043-1.1a1.75,1.75,0,1,0-.586,3.45Z"/>
    <path d="M10.764,58.537c.033,0,.067,0,.1,0a1.749,1.749,0,0,0,1.745-1.651c.091-1.6.257-3.22.495-4.811a1.749,1.749,0,1,0-3.46-.519c-.255,1.7-.433,3.424-.529,5.132A1.75,1.75,0,0,0,10.764,58.537Z"/>
    <path d="M113.541,34.992c-.771-1.532-1.624-3.045-2.536-4.5a1.75,1.75,0,0,0-2.965,1.86c.855,1.361,1.652,2.777,2.374,4.211a1.75,1.75,0,0,0,3.127-1.573Z"/>
    <path d="M110.37,86.845a1.751,1.751,0,0,0-2.414.544c-.856,1.356-1.789,2.688-2.77,3.959a1.749,1.749,0,1,0,2.769,2.139c1.049-1.357,2.045-2.78,2.96-4.228A1.749,1.749,0,0,0,110.37,86.845Z"/>
    <path d="M116.048,73.009a1.752,1.752,0,0,0-2.167,1.2c-.445,1.542-.97,3.081-1.558,4.574a1.75,1.75,0,1,0,3.256,1.283c.629-1.594,1.189-3.238,1.665-4.887A1.749,1.749,0,0,0,116.048,73.009Z"/>
    <path d="M117.669,58.139h0a1.75,1.75,0,0,0-1.75,1.747c0,1.606-.081,3.231-.232,4.83a1.75,1.75,0,0,0,1.577,1.907c.056,0,.111.008.167.008a1.75,1.75,0,0,0,1.74-1.585c.161-1.706.245-3.44.248-5.154A1.749,1.749,0,0,0,117.669,58.139Z"/>
    <path d="M22.069,29.867c.929-1.3,1.933-2.584,2.984-3.8A1.75,1.75,0,0,0,22.4,23.778c-1.123,1.3-2.2,2.666-3.186,4.059a1.75,1.75,0,1,0,2.851,2.03Z"/>
    <path d="M26.431,99.348a1.751,1.751,0,0,0,1.237-2.988c-1.137-1.137-2.233-2.339-3.259-3.573a1.749,1.749,0,1,0-2.691,2.236c1.093,1.317,2.262,2.6,3.475,3.812A1.744,1.744,0,0,0,26.431,99.348Z"/>
    <path d="M34.973,108.746h-10.1a1.75,1.75,0,0,0,0,3.5h10.1a1.75,1.75,0,0,0,0-3.5Z"/>
    <path d="M106.523,108.746h-3.3v-3.3a1.75,1.75,0,0,0-3.5,0v3.3h-3.3a1.75,1.75,0,0,0,0,3.5h3.3v3.3a1.75,1.75,0,0,0,3.5,0v-3.3h3.3a1.75,1.75,0,0,0,0-3.5Z"/>
    <polygon points="54.751 118.64 51.734 111.228 49.192 111.228 53.48 121.749 56.007 121.749 60.296 111.228 57.768 111.228 54.751 118.64"/>
    <path d="M66.718,111.044a5.446,5.446,0,1,0,5.59,5.436A5.591,5.591,0,0,0,66.718,111.044Zm0,8.836A3.394,3.394,0,1,1,70,116.48,3.387,3.387,0,0,1,66.718,119.88Z"/>
    <polygon points="76.173 111.228 73.908 111.228 73.908 121.749 81.412 121.749 81.412 119.712 76.173 119.712 76.173 111.228"/>
  </g>
</svg>
