<svg xmlns="http://www.w3.org/2000/svg"  viewBox="0 0 40 40" width="40px" height="40px"><path fill="#bae0bd" d="M31.597,33.5c-5.851,0-10.097-4.422-10.097-10.515c0-6.076,4.246-10.485,10.097-10.485 c2.19,0,3.992,0.517,5.508,1.58c0.952,0.67,1.396,1.382,1.396,2.242c0,1.116-0.779,1.926-1.852,1.926 c-0.771,0-1.35-0.361-1.86-0.68c-0.991-0.643-1.93-0.918-3.134-0.918c-3.442,0-5.755,2.546-5.755,6.335 c0,3.806,2.313,6.364,5.755,6.364c1.439,0,2.238-0.325,3.132-0.887c0.51-0.337,1.076-0.712,1.833-0.712 c1.054,0,1.88,0.859,1.88,1.957c0,0.868-0.455,1.581-1.43,2.244C35.643,32.967,33.754,33.5,31.597,33.5z"/><path fill="#5e9c76" d="M31.597,13c2.084,0,3.792,0.487,5.22,1.489C37.877,15.235,38,15.893,38,16.322 c0,0.827-0.568,1.426-1.352,1.426c-0.628,0-1.119-0.307-1.581-0.595c-1.085-0.703-2.105-1.003-3.413-1.003 c-3.683,0-6.255,2.811-6.255,6.836c0,4.041,2.572,6.864,6.255,6.864c1.553,0,2.452-0.369,3.417-0.976 c0.463-0.306,0.942-0.623,1.548-0.623c0.787,0,1.381,0.626,1.381,1.457c0,0.432-0.126,1.092-1.229,1.843 C35.439,32.499,33.649,33,31.597,33C26.036,33,22,28.788,22,22.985C22,17.199,26.036,13,31.597,13 M31.597,12 C25.457,12,21,16.62,21,22.985C21,29.367,25.457,34,31.597,34c2.262,0,4.257-0.569,5.755-1.635C38.461,31.61,39,30.741,39,29.707 c0-1.378-1.046-2.457-2.381-2.457c-0.905,0-1.577,0.443-2.1,0.788c-0.835,0.525-1.539,0.81-2.866,0.81 c-3.143,0-5.255-2.357-5.255-5.864c0-3.49,2.111-5.836,5.255-5.836c1.218,0,2.042,0.306,2.869,0.842 c0.54,0.337,1.212,0.756,2.125,0.756c1.341,0,2.352-1.042,2.352-2.426c0-1.022-0.526-1.889-1.608-2.651 C35.766,12.531,33.847,12,31.597,12L31.597,12z"/><path fill="#ffeea3" d="M14.692,23.5c-1.291,0-2.192-0.914-2.192-2.223V4.692c0-1.291,0.901-2.192,2.192-2.192h4.24 c4.927,0,7.425,2.014,7.425,5.985c0,1.382-0.502,2.627-1.451,3.6l-0.432,0.443l0.524,0.33c1.613,1.014,2.501,2.57,2.501,4.381 c0,4.213-2.645,6.261-8.086,6.261H14.692z M16.5,19.5h2.724c2.418,0,3.276-1.365,3.276-2.534c0-0.579-0.238-2.466-3.305-2.466H16.5 V19.5z M16.5,10.5h2.645c1.951,0,2.84-1.058,2.84-2.041c0-0.894-0.555-1.959-3.2-1.959H16.5V10.5z"/><path fill="#ba9b48" d="M18.932,3c4.66,0,6.925,1.794,6.925,5.485c0,1.249-0.453,2.373-1.309,3.251l-0.864,0.886 l1.048,0.659C26.216,14.214,27,15.583,27,17.239C27,19.712,26.214,23,19.413,23h-4.721C13.68,23,13,22.308,13,21.278V4.692 C13,3.68,13.68,3,14.692,3H18.932 M16,11h1h2.144c2.295,0,3.34-1.317,3.34-2.541c0-0.918-0.481-2.459-3.7-2.459H17h-1v1v3V11 M16,20h1h2.224C21.832,20,23,18.476,23,16.966C23,15.532,22,14,19.195,14H17h-1v1v4V20 M18.932,2h-4.24 C13.132,2,12,3.132,12,4.692v16.585C12,22.855,13.132,24,14.692,24h4.721C25.111,24,28,21.726,28,17.239 c0-2.008-0.98-3.701-2.735-4.804c1.036-1.062,1.593-2.423,1.593-3.949C26.858,5.527,25.483,2,18.932,2L18.932,2z M17,10V7h1.784 c2.16,0,2.7,0.694,2.7,1.459c0,0.781-0.77,1.541-2.34,1.541H17L17,10z M17,19v-4h2.195C21.473,15,22,16.092,22,16.966 S21.374,19,19.224,19H17L17,19z"/><g><path fill="#f78f8f" d="M17.205,36.5c-1.158,0-1.945-0.656-2.406-2.004l-0.951-3l-6.721-0.034l-0.925,3.019 C5.78,35.838,4.98,36.5,3.759,36.5c-0.75,0-1.416-0.318-1.825-0.873c-0.46-0.624-0.561-1.48-0.271-2.29l5.16-14.933 c0.449-1.355,1.271-2.904,3.674-2.904c2.36,0,3.167,1.467,3.644,2.903l5.224,14.938c0.261,0.838,0.14,1.712-0.329,2.321 C18.619,36.202,17.968,36.5,17.205,36.5z M8.459,27.5h4.093l-2.057-6.244L8.459,27.5z"/><path fill="#c74343" d="M10.497,16c1.924,0,2.658,1.024,3.174,2.575l5.211,14.898c0.218,0.699,0.127,1.403-0.243,1.883 C18.229,35.888,17.633,36,17.205,36c-0.635,0-1.428-0.189-1.926-1.644l-0.844-2.665l-0.22-0.694l-0.728-0.004l-5.985-0.03 l-0.743-0.004L6.54,31.67l-0.815,2.659C5.265,35.81,4.433,36,3.759,36c-0.59,0-1.109-0.244-1.422-0.669 c-0.361-0.49-0.437-1.172-0.199-1.836L7.3,18.556C7.719,17.292,8.426,16,10.497,16 M7.77,28h1.378h2.713h1.382l-0.432-1.313 l-1.363-4.139l-0.954-2.898l-0.946,2.9l-1.35,4.139L7.77,28 M10.497,15c-2.755,0-3.688,1.856-4.147,3.241L1.193,33.168 c-0.347,0.968-0.22,1.997,0.339,2.755C2.037,36.608,2.848,37,3.759,37c1.448,0,2.431-0.796,2.921-2.374l0.816-2.663l5.985,0.03 l0.844,2.665C14.858,36.213,15.827,37,17.205,37c0.922,0,1.712-0.367,2.226-1.033c0.569-0.738,0.724-1.77,0.406-2.791 l-5.222-14.931C14.113,16.733,13.19,15,10.497,15L10.497,15z M9.148,27l1.35-4.139L11.861,27H9.148L9.148,27z"/></g></svg>