<?xml version="1.0" encoding="iso-8859-1"?>
<!-- Uploaded to: SVG Repo, www.svgrepo.com, Generator: SVG Repo Mixer Tools -->
<svg version="1.1" id="Layer_1" xmlns="http://www.w3.org/2000/svg" xmlns:xlink="http://www.w3.org/1999/xlink" 
	 viewBox="0 0 504 504" xml:space="preserve">
<rect x="140" style="fill:#C4185E;" width="234.4" height="234.4"/>
<polyline style="fill:#A50A42;" points="140,0 375.2,0 375.2,235.2 "/>
<path style="fill:#FFFFFF;" d="M247.2,57.6L247.2,57.6c4.8,0,11.2,4,18.4,12.8c1.6,0.8,4.8,4.8,8,12.8c5.6,14.4,9.6,26.4,12.8,37.6
	c4,8.8,8,27.2,12.8,55.2l0.8,8c0,3.2-1.6,9.6-4.8,20c-0.8,2.4-2.4,4-4.8,4c-3.2,2.4-5.6,4-6.4,4l0,0c-0.8,0-3.2-1.6-7.2-4v-0.8
	l-0.8-4.8l0.8-1.6v-4c0-4-3.2-18.4-8.8-42.4c-0.8-1.6-1.6-2.4-3.2-2.4H264c-4,0-14.4,1.6-32.8,4c-3.2,1.6-4.8,3.2-4.8,5.6l-6.4,13.6
	c0,2.4-4,9.6-12,20.8l-5.6,4.8c0,0.8-3.2,2.4-8.8,3.2c-4-0.8-6.4-0.8-6.4-2.4L184,196l-0.8-2.4c0-2.4,4.8-10.4,12-24.8
	c3.2-6.4,8-20,15.2-40.8c4-6.4,8-16.8,12-32.8c2.4-5.6,4.8-12,6.4-19.2c2.4-8,8-14.4,14.4-18.4H247.2z M237.6,131.2L237.6,131.2
	l0.8,1.6c5.6-0.8,12.8-1.6,20.8-1.6c0.8-0.8,0.8-1.6,0.8-2.4c0-2.4-3.2-12-9.6-28.8l-1.6-3.2c-1.6,0-4,6.4-6.4,19.2
	C240,124,237.6,128.8,237.6,131.2z"/>
<rect x="6.4" y="268.8" style="fill:#29A0E2;" width="234.4" height="234.4"/>
<polyline style="fill:#0D7DC9;" points="6.4,268.8 240.8,268.8 240.8,504 "/>
<path style="fill:#FFFFFF;" d="M74.4,312.8h4l6.4,8c4-0.8,6.4-2.4,6.4-4l4-3.2h28c4,1.6,6.4,2.4,7.2,2.4h2.4h0.8
	c2.4,2.4,5.6,5.6,9.6,8c4,4.8,7.2,8.8,9.6,13.6c4,6.4,6.4,12.8,6.4,19.2c0,3.2-0.8,7.2-2.4,12.8c0,0.8,3.2,4,8.8,8
	c11.2,13.6,16.8,24.8,16.8,32.8c0,7.2-2.4,14.4-7.2,20c0,0.8-1.6,3.2-5.6,8.8c-0.8,2.4-5.6,7.2-13.6,15.2c-10.4,5.6-16,8.8-16.8,8.8
	C128,466.4,120,468,116,468h-2.4c-2.4,0-8-0.8-15.2-1.6H96c-2.4-1.6-4-3.2-6.4-3.2c0-1.6-1.6-2.4-5.6-2.4h-0.8c-1.6,0-3.2,1.6-4.8,4
	c-0.8,0.8-1.6,1.6-2.4,1.6c-4-2.4-5.6-4-5.6-5.6c-2.4-3.2-4-16-4-37.6v-21.6l0,0v-0.8l-1.6-69.6v-1.6c0-2.4,1.6-5.6,5.6-9.6
	c0-0.8,1.6-1.6,4.8-4L74.4,312.8z M90.4,428v7.2v3.2c0,3.2,1.6,4.8,4,5.6c8.8,3.2,17.6,4.8,28,4.8h1.6c7.2-0.8,12.8-3.2,16-5.6
	c4.8-4,8-8,9.6-12c4-7.2,6.4-14.4,6.4-20v-1.6c0-8-3.2-14.4-9.6-20.8c-2.4-0.8-3.2-0.8-4-0.8l0,0c-1.6,0-4.8,2.4-9.6,7.2
	c-6.4,3.2-12.8,5.6-21.6,8C98.4,404.8,92,406.4,92,408C91.2,408,91.2,414.4,90.4,428z M92,348.8v1.6v11.2l-0.8,16l0.8,7.2l0,0
	l11.2-2.4c8.8-3.2,14.4-6.4,17.6-8.8c7.2-6.4,11.2-12,11.2-18.4v-2.4c0-8-4-14.4-12-17.6c-0.8-0.8-2.4-0.8-4-0.8h-2.4
	c-4,0-11.2,4-22.4,12L92,348.8z"/>
<rect x="263.2" y="268.8" style="fill:#6ACE09;" width="234.4" height="234.4"/>
<polyline style="fill:#3D9B07;" points="263.2,268.8 497.6,268.8 497.6,504 "/>
<path style="fill:#FFFFFF;" d="M367.2,321.6c3.2,0.8,7.2,2.4,12.8,2.4c12,5.6,20,10.4,24.8,14.4c8.8,8.8,13.6,16.8,16,24
	c0.8,3.2,1.6,7.2,1.6,11.2c0,3.2-3.2,4.8-8.8,4.8H412c-8,0-12.8-1.6-14.4-4.8c-0.8,0-2.4-4-3.2-12c-1.6-4.8-4.8-8-9.6-11.2
	c-4-3.2-6.4-4-8-4h-2.4c-4,0-11.2,4.8-20,13.6c-7.2,10.4-11.2,23.2-11.2,36l0,0c0,14.4,3.2,27.2,9.6,38.4c8,7.2,15.2,10.4,23.2,10.4
	h1.6c8,0,14.4-8,19.2-23.2c3.2-4.8,7.2-8.8,12.8-11.2l0,0c4.8,1.6,8.8,6.4,12,14.4v0.8c0,4.8-2.4,12-7.2,21.6
	c-6.4,9.6-15.2,16-26.4,18.4c-3.2,0.8-8.8,0.8-16.8,1.6c-3.2,0-10.4-2.4-21.6-7.2c-4.8-2.4-10.4-6.4-16.8-13.6
	c-5.6-6.4-9.6-15.2-12-24.8c-3.2-9.6-4-20-4-32.8v-2.4l0,0l0,0v-1.6c0-11.2,4-24,11.2-36.8c5.6-8,12.8-14.4,20.8-20
	c3.2-1.6,5.6-3.2,7.2-4.8L367.2,321.6z"/>
<g>
	<path style="fill:#E2E2E2;" d="M299.2,176c-4.8-28-8.8-46.4-12.8-55.2c-3.2-10.4-7.2-23.2-12.8-37.6c-3.2-8-6.4-12-8-12.8
		c-7.2-8.8-13.6-12.8-18.4-12.8l0,0h-0.8v45.6c1.6-4,2.4-5.6,3.2-5.6l1.6,3.2c6.4,16.8,9.6,26.4,9.6,28.8c0,0.8,0,1.6-0.8,2.4
		c-4.8,0-9.6,0.8-13.6,0.8v22.4c9.6-0.8,15.2-1.6,17.6-1.6h0.8c1.6,0,2.4,0.8,3.2,2.4c5.6,24,8.8,38.4,8.8,42.4v4l-0.8,0l0.8,4v0.8
		c4,3.2,6.4,4,7.2,4h0.8c0.8,0,3.2-1.6,6.4-4c2.4,0,4-1.6,4.8-4c3.2-9.6,4.8-16.8,4.8-20L299.2,176z"/>
	<path style="fill:#E2E2E2;" d="M164.8,376c-5.6-4.8-8.8-7.2-8.8-8c1.6-5.6,2.4-9.6,2.4-12.8c0-6.4-2.4-12.8-6.4-19.2
		c-2.4-4-5.6-8.8-9.6-13.6c-4-2.4-7.2-4.8-9.6-8L132,316h-2.4c-0.8,0-3.2-0.8-7.2-2.4H112V336c0.8,0,1.6-0.8,2.4-0.8h2.4
		c1.6,0,2.4,0,4,0.8c8,3.2,12,9.6,12,17.6v2.4c0,6.4-4,12.8-11.2,18.4c-2.4,1.6-4.8,3.2-8.8,4.8v24c7.2-2.4,14.4-4.8,20-7.2
		c4.8-4.8,8-7.2,9.6-7.2l0,0c0.8,0,1.6,0.8,3.2,1.6c6.4,6.4,9.6,13.6,9.6,20.8v0.8c0,5.6-2.4,12-6.4,20c-1.6,4-4.8,8-9.6,12
		c-3.2,2.4-8.8,4-16,5.6h-1.6c-3.2,0-6.4,0-9.6-0.8V468l0,0h2.4c4,0,12-1.6,23.2-4.8c0.8,0,6.4-3.2,16.8-8.8c8-8,12-12.8,13.6-15.2
		c4-4.8,5.6-8,5.6-8.8c4.8-5.6,7.2-12.8,7.2-20C181.6,400.8,176,389.6,164.8,376z"/>
	<path style="fill:#E2E2E2;" d="M364,352c4.8-3.2,8-5.6,10.4-5.6h2.4c1.6,0,4,1.6,8,4c4.8,3.2,8,6.4,9.6,11.2c1.6,8,2.4,12,3.2,12
		c1.6,3.2,6.4,4.8,14.4,4.8h0.8c5.6,0,8.8-2.4,8.8-4.8c0-4-0.8-8-1.6-11.2c-1.6-7.2-7.2-14.4-16-24c-4.8-4.8-12.8-9.6-24.8-14.4
		c-4.8-0.8-9.6-1.6-12.8-2.4H364V352z"/>
	<path style="fill:#E2E2E2;" d="M409.6,411.2L409.6,411.2c-5.6,2.4-10.4,5.6-12.8,11.2c-4.8,15.2-11.2,23.2-19.2,23.2H376
		c-4,0-8-0.8-12-3.2v24c3.2,0.8,6.4,1.6,7.2,1.6c8,0,13.6-0.8,16.8-1.6c11.2-2.4,20-8.8,26.4-18.4c4.8-9.6,7.2-16.8,7.2-21.6v-0.8
		C417.6,417.6,413.6,412.8,409.6,411.2z"/>
</g>
</svg>