<svg xmlns="http://www.w3.org/2000/svg"  viewBox="0 0 40 40" width="40px" height="40px"><path fill="#f5ce85" d="M23.831,38.5c-0.623,0-1.208-0.243-1.648-0.683c-0.909-0.909-0.908-2.388,0-3.297l3.298-3.297 l-5.007-1.458c-0.279-0.608,0.596-3.133,1.978-5.694c1.134,0.156,3.36,0.59,4.074,1.304l4.304,3.806c-0.002,0-0.003,0-0.004,0 c-0.012,0,0.013,0.033,0.041,0.065c0.861,0.932,0.837,2.348-0.049,3.233l-5.338,5.338C25.039,38.257,24.454,38.5,23.831,38.5z"/><path fill="#967a44" d="M22.728,24.617c1.297,0.206,2.958,0.626,3.444,1.112l0.022,0.022l0.023,0.02l4.202,3.715 c0.023,0.031,0.051,0.066,0.087,0.107c0.671,0.725,0.652,1.837-0.043,2.532l-5.338,5.338C24.78,37.81,24.32,38,23.831,38 s-0.949-0.19-1.295-0.536c-0.714-0.714-0.714-1.876,0-2.589l2.7-2.7l1.195-1.195l-1.622-0.472l-3.878-1.129 C20.945,28.585,21.7,26.582,22.728,24.617 M22.176,23.533c0,0-3.093,5.575-2.002,6.666l4.355,1.268l-2.7,2.7 c-1.106,1.106-1.106,2.898,0,4.004C22.382,38.724,23.106,39,23.831,39c0.724,0,1.449-0.276,2.002-0.829l5.338-5.338 c1.079-1.079,1.097-2.808,0.07-3.918c-0.03-0.035-0.046-0.074-0.08-0.107l-4.281-3.785C25.788,23.931,22.176,23.533,22.176,23.533 L22.176,23.533z"/><path fill="#f5ce85" d="M16.169,38.5c-0.623,0-1.208-0.243-1.648-0.683l-5.338-5.338c-0.886-0.885-0.91-2.302-0.056-3.226 l0.029-0.031l0.058-0.084l4.238-3.741c0.734-0.734,2.963-1.169,4.097-1.326c1.382,2.562,2.257,5.086,1.978,5.694l-5.007,1.458 l3.298,3.297c0.908,0.909,0.909,2.388,0,3.297C17.377,38.257,16.792,38.5,16.169,38.5z"/><path fill="#967a44" d="M17.272,24.617c1.012,1.939,1.776,3.969,1.796,4.761l-3.877,1.129l-1.622,0.472l1.195,1.195 l2.7,2.7c0.714,0.714,0.714,1.876,0,2.589C17.118,37.81,16.658,38,16.169,38c-0.489,0-0.949-0.19-1.295-0.536l-5.338-5.338 c-0.695-0.695-0.713-1.807-0.02-2.557c0.023-0.027,0.045-0.054,0.066-0.083l4.201-3.714l0.023-0.02l0.022-0.022 C14.313,25.244,15.974,24.824,17.272,24.617 M17.824,23.533c0,0-3.612,0.398-4.704,1.489l-4.281,3.785 c-0.033,0.033-0.05,0.073-0.08,0.107c-1.027,1.11-1.01,2.839,0.07,3.918l5.338,5.338C14.72,38.724,15.445,39,16.169,39 c0.725,0,1.449-0.276,2.002-0.829c1.106-1.106,1.106-2.898,0-4.004l-2.7-2.7l4.355-1.268 C20.917,29.108,17.824,23.533,17.824,23.533L17.824,23.533z"/><path fill="#f5ce85" d="M14.5,25.5v-8.938l-6.046,5.489C8.131,22.339,7.711,22.5,7.275,22.5 c-0.505,0-0.987-0.215-1.324-0.591c-0.651-0.729-0.589-1.853,0.14-2.505l5.649-5.167c1.208-1.121,2.778-1.737,4.423-1.737h7.674 c1.645,0,3.215,0.616,4.421,1.734l5.646,5.166c0.733,0.656,0.796,1.779,0.144,2.508c-0.336,0.376-0.818,0.591-1.322,0.591l0,0 c-0.437,0-0.856-0.161-1.183-0.452L25.5,16.562V25.5H14.5z"/><path fill="#967a44" d="M23.837,13c1.518,0,2.967,0.569,4.085,1.606l5.653,5.171c0.524,0.468,0.568,1.275,0.1,1.799 C33.434,21.845,33.088,22,32.725,22c-0.313,0-0.615-0.115-0.843-0.32l-5.21-4.73L25,15.432v2.259V25H15v-7.309v-2.259 l-1.672,1.518l-5.204,4.725C7.889,21.885,7.588,22,7.275,22c-0.362,0-0.709-0.155-0.95-0.424 c-0.468-0.524-0.424-1.331,0.108-1.806l5.65-5.168C13.196,13.569,14.645,13,16.163,13H17h6H23.837 M23.837,12H23h-6h-0.837 c-1.766,0-3.466,0.667-4.76,1.868l-5.645,5.164c-0.936,0.837-1.016,2.275-0.178,3.211C6.028,22.744,6.65,23,7.275,23 c0.54,0,1.082-0.191,1.515-0.579l5.21-4.73V26h12v-8.309l5.21,4.73C31.644,22.809,32.185,23,32.725,23 c0.624,0,1.246-0.256,1.695-0.758c0.837-0.936,0.758-2.374-0.178-3.211l-5.645-5.164C27.303,12.667,25.602,12,23.837,12L23.837,12 z"/><g><path fill="#f5ce85" d="M20 1.5A4.5 4.5 0 1 0 20 10.5A4.5 4.5 0 1 0 20 1.5Z"/><path fill="#967a44" d="M20,2c2.206,0,4,1.794,4,4s-1.794,4-4,4s-4-1.794-4-4S17.794,2,20,2 M20,1c-2.761,0-5,2.239-5,5 s2.239,5,5,5c2.761,0,5-2.239,5-5S22.761,1,20,1L20,1z"/></g><g><path fill="#dbf2ff" d="M17.207 30.5L12.644 25.937 14.5 23.151 14.5 21.5 25.5 21.5 25.5 23.151 27.356 25.937 22.793 30.5z"/><path fill="#7496c4" d="M25,22v1v0.303l0.168,0.252l1.545,2.318L22.586,30h-5.172l-4.127-4.127l1.545-2.318L15,23.303V23 v-1H25 M26,21H14v2l-2,3l5,5h6l5-5l-2-3V21L26,21z"/></g></svg>