<svg xmlns="http://www.w3.org/2000/svg"  viewBox="0 0 40 40" width="40px" height="40px"><path fill="#f5ce85" d="M31.617,38.5c-1.9,0-5.117-1.072-5.117-5.09c0-0.869,0.094-1.616,0.185-2.338 c0.158-1.259,0.307-2.449-0.135-3.864c-0.385-1.232-1.189-2.019-1.967-2.78c-1.071-1.048-2.083-2.037-2.083-4.226 c0-2.989,2.733-4.703,7.5-4.703s7.5,3.045,7.5,8.354C37.5,33.162,35.355,38.5,31.617,38.5z"/><path fill="#967a44" d="M30,16c4.514,0,7,2.789,7,7.855C37,32.712,34.988,38,31.617,38C29.902,38,27,37.033,27,33.41 c0-0.837,0.092-1.568,0.181-2.275c0.165-1.315,0.321-2.556-0.154-4.076c-0.423-1.352-1.311-2.221-2.094-2.988 C23.895,23.057,23,22.181,23,20.202C23,17.532,25.551,16,30,16 M30,15c-6.003,0-8,2.596-8,5.202c0,4.043,3.218,4.42,4.072,7.154 C26.721,29.432,26,30.963,26,33.41c0,4.202,3.328,5.59,5.617,5.59C35.817,39,38,33.197,38,23.855C38,17.931,34.72,15,30,15L30,15z"/><path fill="#f5ce85" d="M22.786,14.5c-0.866,0-1.729-0.733-2.1-1.783c-0.469-1.325-0.028-2.724,0.982-3.118 c0.167-0.065,0.356-0.1,0.546-0.1c0.865,0,1.728,0.733,2.1,1.783c0.468,1.325,0.028,2.723-0.983,3.117 C23.165,14.465,22.976,14.5,22.786,14.5z"/><path fill="#967a44" d="M22.214,10c0.646,0,1.331,0.61,1.629,1.449c0.373,1.055,0.056,2.193-0.693,2.485 C23.04,13.977,22.914,14,22.786,14c-0.647,0-1.332-0.609-1.629-1.449c-0.373-1.055-0.056-2.193,0.693-2.485 C21.96,10.023,22.086,10,22.214,10 M22.214,9c-0.243,0-0.492,0.042-0.727,0.134c-1.258,0.49-1.832,2.168-1.273,3.75 C20.669,14.17,21.729,15,22.786,15c0.243,0,0.492-0.042,0.727-0.134c1.258-0.49,1.832-2.168,1.273-3.75 C24.33,9.83,23.27,9,22.214,9L22.214,9z"/><path fill="#f5ce85" d="M27.776,13.265c-0.645-0.001-1.189-0.681-1.266-1.516c-0.049-0.532,0.087-1.048,0.364-1.382 c0.117-0.141,0.315-0.314,0.595-0.34l0.041-0.004L27.611,10c0.523,0.002,1.056,0.694,1.135,1.544 c0.042,0.459-0.048,0.896-0.256,1.231c-0.104,0.167-0.333,0.453-0.697,0.49L27.776,13.265z"/><path fill="#967a44" d="M27.62,10.51c0.239,0.061,0.572,0.469,0.628,1.08c0.044,0.473-0.101,0.835-0.251,1.015 c-0.075,0.091-0.154,0.144-0.231,0.158l-0.027-0.001h-0.016c-0.258,0-0.654-0.404-0.715-1.061 c-0.044-0.473,0.101-0.835,0.251-1.015c0.083-0.099,0.169-0.154,0.253-0.162C27.545,10.523,27.581,10.518,27.62,10.51 M27.56,9.502 c-0.038,0-0.097,0.024-0.136,0.027c-0.896,0.082-1.521,1.095-1.412,2.265c0.103,1.12,0.862,1.969,1.711,1.969 c0.025,0,0.048,0.002,0.072,0.002c0.012,0,0.024,0,0.037-0.002c0.895-0.082,1.521-1.094,1.412-2.265 C29.14,10.377,28.408,9.502,27.56,9.502L27.56,9.502z"/><path fill="#f5ce85" d="M31.718,13.536c-0.123-0.023-0.234-0.102-0.331-0.232c-0.2-0.272-0.279-0.697-0.21-1.136 C31.29,11.447,31.728,11,32.068,11c-0.012,0.007,0.025,0.016,0.062,0.021c0.13,0.02,0.247,0.099,0.347,0.235 c0.2,0.272,0.278,0.696,0.21,1.135c-0.109,0.705-0.547,1.141-0.891,1.141L31.718,13.536z"/><path fill="#967a44" d="M32.045,11.517c0.077,0.066,0.216,0.365,0.149,0.798c-0.069,0.444-0.298,0.682-0.387,0.715 c-0.079-0.087-0.2-0.376-0.136-0.785C31.735,11.835,31.937,11.587,32.045,11.517 M32.068,10.5c-0.645,0-1.244,0.686-1.385,1.591 c-0.151,0.97,0.283,1.837,0.978,1.942c0.015,0.002,0.03,0.003,0.045,0.003c0.03,0,0.06-0.003,0.09-0.003 c0.645,0,1.244-0.659,1.385-1.564c0.151-0.97-0.283-1.837-0.978-1.942C32.158,10.52,32.114,10.5,32.068,10.5L32.068,10.5z"/><path fill="#f5ce85" d="M35.028,14.666c-0.084,0-0.16-0.021-0.231-0.063c-0.136-0.082-0.194-0.221-0.219-0.323 c-0.059-0.246,0.004-0.552,0.169-0.82c0.244-0.395,0.603-0.572,0.851-0.572c0.085,0,0.161,0.021,0.232,0.063 c0.123,0.074,0.177,0.206,0.2,0.304c0.062,0.259-0.004,0.583-0.179,0.866C35.645,14.457,35.329,14.666,35.028,14.666z"/><path fill="#967a44" d="M35.55,13.397c0.012,0.087,0,0.262-0.123,0.461c-0.117,0.188-0.262,0.286-0.363,0.305 c-0.017-0.071-0.015-0.239,0.108-0.439C35.295,13.527,35.456,13.425,35.55,13.397 M35.599,12.388c-0.458,0-0.964,0.305-1.276,0.809 c-0.429,0.696-0.325,1.507,0.217,1.834c0.149,0.09,0.315,0.135,0.489,0.135c0.458,0,0.937-0.278,1.249-0.782 c0.429-0.696,0.352-1.534-0.19-1.861C35.938,12.433,35.773,12.388,35.599,12.388L35.599,12.388z"/><path fill="#f5ce85" d="M37.608,16.5c-0.078,0-0.136-0.011-0.173-0.034c-0.096-0.059-0.138-0.165-0.157-0.245 c-0.052-0.221,0.006-0.496,0.157-0.735c0.177-0.284,0.459-0.467,0.717-0.467c0.077,0,0.136,0.012,0.175,0.035 c0.094,0.058,0.136,0.165,0.155,0.245c0.052,0.221-0.006,0.496-0.156,0.735C38.147,16.317,37.866,16.5,37.608,16.5z"/><path fill="#967a44" d="M37.975,15.611c-0.015,0.047-0.038,0.1-0.074,0.157c-0.037,0.059-0.077,0.105-0.117,0.139 c0.015-0.047,0.038-0.1,0.073-0.156C37.896,15.692,37.936,15.646,37.975,15.611 M38.152,14.519c-0.408,0-0.856,0.246-1.141,0.701 c-0.392,0.626-0.315,1.38,0.163,1.672c0.13,0.08,0.281,0.108,0.435,0.108c0.408,0,0.856-0.246,1.141-0.701 c0.392-0.626,0.315-1.38-0.163-1.672C38.456,14.547,38.305,14.519,38.152,14.519L38.152,14.519z"/><g><path fill="#f5ce85" d="M8.383,30.5C4.645,30.5,2.5,25.162,2.5,15.854C2.5,10.545,5.233,7.5,10,7.5s7.5,1.714,7.5,4.703 c0,2.188-1.012,3.178-2.083,4.226c-0.778,0.761-1.582,1.547-1.967,2.78c-0.442,1.416-0.293,2.605-0.135,3.864 c0.091,0.722,0.185,1.469,0.185,2.338C13.5,29.428,10.284,30.5,8.383,30.5z"/><path fill="#967a44" d="M10,8c4.449,0,7,1.532,7,4.202c0,1.978-0.895,2.854-1.932,3.868 c-0.784,0.767-1.672,1.636-2.094,2.988c-0.475,1.52-0.319,2.762-0.154,4.076C12.908,23.842,13,24.573,13,25.41 C13,29.033,10.098,30,8.383,30C5.012,30,3,24.712,3,15.855C3,10.789,5.486,8,10,8 M10,7c-4.72,0-8,2.931-8,8.855 C2,25.197,4.183,31,8.383,31C10.672,31,14,29.612,14,25.41c0-2.447-0.721-3.978-0.072-6.053C14.782,16.623,18,16.245,18,12.202 C18,9.596,16.003,7,10,7L10,7z"/></g><g><path fill="#f5ce85" d="M17.214,6.5c-0.19,0-0.379-0.035-0.546-0.1c-1.011-0.394-1.451-1.792-0.983-3.118 c0.372-1.049,1.235-1.783,2.1-1.783c0.19,0,0.379,0.035,0.546,0.1c1.011,0.394,1.451,1.792,0.983,3.118 C18.943,5.767,18.08,6.5,17.214,6.5z"/><path fill="#967a44" d="M17.786,2c0.128,0,0.254,0.023,0.364,0.066c0.749,0.292,1.066,1.43,0.693,2.485 C18.546,5.391,17.861,6,17.214,6c-0.128,0-0.254-0.023-0.364-0.066c-0.749-0.292-1.066-1.43-0.693-2.485 C16.454,2.61,17.139,2,17.786,2 M17.786,1c-1.056,0-2.116,0.83-2.571,2.116c-0.559,1.582,0.015,3.26,1.273,3.75 C16.722,6.958,16.972,7,17.214,7c1.056,0,2.117-0.83,2.571-2.116c0.559-1.582-0.015-3.26-1.273-3.75 C18.278,1.042,18.028,1,17.786,1L17.786,1z"/></g><g><path fill="#f5ce85" d="M12.207,5.265c-0.363-0.035-0.592-0.322-0.697-0.49c-0.208-0.334-0.299-0.772-0.256-1.231 c0.079-0.85,0.611-1.542,1.186-1.542c0,0.011,0.051,0.021,0.092,0.025c0.278,0.025,0.476,0.199,0.593,0.34 c0.277,0.333,0.414,0.85,0.364,1.382c-0.077,0.835-0.621,1.515-1.213,1.515L12.207,5.265z"/><path fill="#967a44" d="M12.38,2.51c0.038,0.007,0.074,0.012,0.105,0.015c0.088,0.008,0.174,0.062,0.257,0.162 c0.15,0.181,0.295,0.542,0.251,1.016c-0.061,0.657-0.457,1.061-0.715,1.061l-0.041,0.001c-0.08-0.015-0.158-0.068-0.233-0.159 c-0.15-0.181-0.295-0.542-0.251-1.015C11.809,2.979,12.141,2.572,12.38,2.51 M12.44,1.502c-0.848,0-1.579,0.875-1.684,1.996 c-0.109,1.171,0.517,2.183,1.412,2.265c0.013,0.001,0.025,0.002,0.037,0.002c0.024,0,0.046-0.002,0.072-0.002 c0.849,0,1.607-0.849,1.711-1.969c0.109-1.17-0.516-2.183-1.412-2.265C12.536,1.526,12.478,1.502,12.44,1.502L12.44,1.502z"/></g><g><path fill="#f5ce85" d="M8.274,5.535C7.86,5.533,7.422,5.097,7.312,4.393c-0.068-0.439,0.01-0.863,0.21-1.135 c0.1-0.137,0.217-0.216,0.348-0.235l0.11-0.024C8.272,3,8.71,3.447,8.823,4.168c0.068,0.438-0.01,0.863-0.21,1.135 c-0.096,0.13-0.207,0.208-0.33,0.232L8.274,5.535z"/><path fill="#967a44" d="M7.952,3.515c0.106,0.066,0.312,0.315,0.377,0.73c0.066,0.422-0.065,0.716-0.125,0.787 C8.112,5.005,7.876,4.767,7.806,4.315C7.735,3.861,7.892,3.555,7.944,3.516C7.947,3.516,7.949,3.515,7.952,3.515 M7.932,2.5 c-0.046,0-0.09,0.02-0.136,0.027C7.102,2.632,6.667,3.499,6.818,4.469c0.141,0.905,0.74,1.564,1.385,1.564 c0.031,0,0.06,0.003,0.09,0.003c0.015,0,0.03-0.001,0.045-0.003c0.694-0.104,1.129-0.972,0.978-1.942 C9.176,3.186,8.576,2.5,7.932,2.5L7.932,2.5z"/></g><g><path fill="#f5ce85" d="M4.972,6.666c-0.3,0-0.616-0.209-0.824-0.545C3.973,5.838,3.906,5.515,3.969,5.255 C3.992,5.158,4.046,5.026,4.17,4.951c0.07-0.042,0.146-0.063,0.231-0.063c0.248,0,0.606,0.177,0.851,0.572 C5.417,5.728,5.48,6.034,5.421,6.28C5.396,6.382,5.338,6.521,5.202,6.603C5.132,6.646,5.056,6.666,4.972,6.666z"/><path fill="#967a44" d="M4.43,5.392c0.09,0.019,0.266,0.12,0.397,0.331c0.124,0.201,0.126,0.368,0.109,0.44 C4.834,6.143,4.689,6.046,4.573,5.859C4.434,5.634,4.436,5.44,4.43,5.392 M4.401,4.388c-0.174,0-0.339,0.045-0.489,0.135 C3.37,4.85,3.293,5.688,3.722,6.384c0.312,0.504,0.791,0.782,1.249,0.782c0.174,0,0.339-0.045,0.489-0.135 c0.542-0.327,0.647-1.138,0.217-1.834C5.366,4.693,4.859,4.388,4.401,4.388L4.401,4.388z"/></g><g><path fill="#f5ce85" d="M2.392,8.5c-0.258,0-0.539-0.183-0.717-0.467C1.525,7.794,1.466,7.519,1.519,7.298 c0.019-0.08,0.061-0.187,0.156-0.245C1.712,7.03,1.771,7.019,1.848,7.019c0.258,0,0.54,0.183,0.717,0.467 C2.715,7.725,2.774,8,2.722,8.221c-0.019,0.08-0.061,0.186-0.156,0.244C2.528,8.489,2.47,8.5,2.392,8.5z"/><path fill="#967a44" d="M2.025,7.611c0.039,0.035,0.08,0.081,0.117,0.14C2.177,7.807,2.2,7.861,2.215,7.908 c-0.039-0.035-0.08-0.081-0.117-0.14C2.063,7.711,2.04,7.658,2.025,7.611 M1.848,6.519c-0.154,0-0.304,0.028-0.435,0.108 C0.936,6.918,0.859,7.673,1.251,8.299C1.536,8.754,1.983,9,2.392,9c0.154,0,0.304-0.028,0.435-0.108 C3.304,8.6,3.381,7.846,2.989,7.22C2.704,6.765,2.257,6.519,1.848,6.519L1.848,6.519z"/></g></svg>