<svg xmlns="http://www.w3.org/2000/svg"  viewBox="0 0 40 40" width="40px" height="40px"><path fill="#fff" d="M14.461,37.5C7.866,37.5,2.5,32.134,2.5,25.539V14.461C2.5,7.866,7.866,2.5,14.461,2.5H16 c1.378,0,2.5,1.122,2.5,2.5S17.378,7.5,16,7.5h-1c-1.93,0-3.5,1.57-3.5,3.5s1.57,3.5,3.5,3.5h10c1.93,0,3.5-1.57,3.5-3.5 S26.93,7.5,25,7.5h-1c-1.378,0-2.5-1.122-2.5-2.5s1.122-2.5,2.5-2.5h1.539C32.134,2.5,37.5,7.866,37.5,14.461v11.077 c0,6.596-5.366,11.961-11.961,11.961H14.461z"/><path fill="#788b9c" d="M25.538,3C31.858,3,37,8.142,37,14.462v11.077C37,31.858,31.858,37,25.538,37H14.462 C8.142,37,3,31.858,3,25.538V14.462C3,8.142,8.142,3,14.462,3H16c1.103,0,2,0.897,2,2s-0.897,2-2,2h-1c-2.206,0-4,1.794-4,4 s1.794,4,4,4h10c2.206,0,4-1.794,4-4s-1.794-4-4-4h-1c-1.103,0-2-0.897-2-2s0.897-2,2-2H25.538 M25.538,2H24c-1.657,0-3,1.343-3,3 s1.343,3,3,3h1c1.657,0,3,1.343,3,3s-1.343,3-3,3H15c-1.657,0-3-1.343-3-3s1.343-3,3-3h1c1.657,0,3-1.343,3-3s-1.343-3-3-3h-1.538 C7.579,2,2,7.579,2,14.462v11.077C2,32.421,7.579,38,14.462,38h11.077C32.421,38,38,32.421,38,25.538V14.462 C38,7.579,32.421,2,25.538,2L25.538,2z"/><path fill="#c2e8ff" d="M20,26.104c-1.102-1.682-2.5-4.137-2.5-5.104c0-1.378,1.122-2.5,2.5-2.5s2.5,1.122,2.5,2.5 C22.5,21.967,21.102,24.422,20,26.104z"/><path fill="#7496c4" d="M20,19c1.103,0,2,0.897,2,2c0,0.662-0.933,2.474-2,4.179c-1.067-1.704-2-3.516-2-4.179 C18,19.897,18.897,19,20,19 M20,18c-1.657,0-3,1.343-3,3s3,6,3,6s3-4.343,3-6S21.657,18,20,18L20,18z"/><path fill="#c2e8ff" d="M20,33.5c-1.378,0-2.5-1.122-2.5-2.5c0-0.967,1.398-3.422,2.5-5.104 c1.102,1.682,2.5,4.137,2.5,5.104C22.5,32.378,21.378,33.5,20,33.5z"/><path fill="#7496c4" d="M20,26.821c1.067,1.704,2,3.516,2,4.179c0,1.103-0.897,2-2,2s-2-0.897-2-2 C18,30.338,18.933,28.526,20,26.821 M20,25c0,0-3,4.343-3,6c0,1.657,1.343,3,3,3s3-1.343,3-3C23,29.343,20,25,20,25L20,25z"/><path fill="#c2e8ff" d="M15.673,31c-0.892,0-1.723-0.479-2.168-1.25c-0.689-1.194-0.279-2.726,0.915-3.415 c0.288-0.166,1.134-0.445,3.571-0.445c0.804,0,1.566,0.032,2.097,0.061c-0.906,1.795-2.332,4.231-3.168,4.714 C16.54,30.884,16.108,31,15.673,31z"/><path fill="#7496c4" d="M17.99,26.39L17.99,26.39c0.458,0,0.902,0.01,1.296,0.025c-0.942,1.775-2.044,3.487-2.617,3.817 c-0.304,0.176-0.649,0.268-0.997,0.268c-0.714,0-1.379-0.383-1.735-1.001c-0.267-0.463-0.338-1.002-0.2-1.518 c0.138-0.516,0.469-0.947,0.932-1.214C14.779,26.705,15.453,26.39,17.99,26.39 M17.99,25.39c-1.478,0-3.114,0.104-3.82,0.512 c-1.435,0.828-1.927,2.663-1.098,4.098c0.556,0.962,1.564,1.501,2.601,1.501c0.509,0,1.025-0.13,1.497-0.402 c1.435-0.828,3.696-5.598,3.696-5.598S19.512,25.39,17.99,25.39L17.99,25.39z"/><g><path fill="#c2e8ff" d="M22.009,26.11c-0.804,0-1.566-0.032-2.097-0.061c0.906-1.795,2.332-4.231,3.168-4.714 C23.46,21.116,23.892,21,24.327,21c0.892,0,1.723,0.479,2.168,1.25c0.689,1.194,0.279,2.726-0.915,3.415 C25.292,25.831,24.446,26.11,22.009,26.11z"/><path fill="#7496c4" d="M24.328,21.5L24.328,21.5c0.714,0,1.378,0.383,1.735,1.001c0.267,0.463,0.338,1.002,0.2,1.518 c-0.138,0.516-0.469,0.947-0.932,1.214c-0.109,0.063-0.783,0.378-3.321,0.378c-0.458,0-0.902-0.01-1.296-0.025 c0.942-1.775,2.044-3.487,2.617-3.817C23.634,21.592,23.979,21.5,24.328,21.5 M24.327,20.499c-0.509,0-1.025,0.13-1.497,0.402 c-1.435,0.828-3.696,5.598-3.696,5.598s1.354,0.11,2.876,0.11c1.478,0,3.114-0.104,3.82-0.512c1.435-0.828,1.927-2.663,1.098-4.098 C26.373,21.038,25.364,20.499,24.327,20.499L24.327,20.499z"/></g><g><path fill="#c2e8ff" d="M24.327,31c-0.436,0-0.867-0.116-1.247-0.335c-0.837-0.483-2.263-2.919-3.168-4.714 c0.531-0.029,1.293-0.061,2.097-0.061c2.437,0,3.284,0.279,3.571,0.445c1.194,0.689,1.604,2.221,0.915,3.415 C26.05,30.521,25.219,31,24.327,31z"/><path fill="#7496c4" d="M22.01,26.39L22.01,26.39c2.538,0,3.211,0.315,3.32,0.378c0.463,0.267,0.794,0.698,0.932,1.214 c0.138,0.516,0.067,1.055-0.2,1.518c-0.356,0.617-1.021,1-1.735,1c-0.348,0-0.693-0.093-0.997-0.268 c-0.573-0.331-1.674-2.043-2.617-3.817C21.108,26.401,21.552,26.39,22.01,26.39 M22.01,25.39c-1.521,0-2.876,0.11-2.876,0.11 s2.261,4.77,3.696,5.598c0.472,0.273,0.988,0.402,1.497,0.402c1.037,0,2.045-0.538,2.601-1.501c0.828-1.435,0.337-3.27-1.098-4.098 C25.123,25.494,23.488,25.39,22.01,25.39L22.01,25.39z"/></g><g><path fill="#c2e8ff" d="M17.991,26.11c-2.437,0-3.284-0.279-3.571-0.445c-1.194-0.689-1.604-2.221-0.915-3.415 C13.95,21.479,14.781,21,15.673,21c0.436,0,0.867,0.116,1.247,0.335c0.837,0.483,2.263,2.919,3.168,4.714 C19.557,26.078,18.795,26.11,17.991,26.11z"/><path fill="#7496c4" d="M15.673,21.5L15.673,21.5c0.348,0,0.693,0.093,0.997,0.268c0.573,0.331,1.674,2.043,2.617,3.817 c-0.394,0.014-0.838,0.025-1.296,0.025c-2.538,0-3.211-0.315-3.32-0.378c-0.463-0.267-0.794-0.698-0.932-1.214 c-0.138-0.516-0.067-1.055,0.2-1.518C14.294,21.883,14.959,21.5,15.673,21.5 M15.673,20.499c-1.037,0-2.045,0.538-2.601,1.501 c-0.828,1.435-0.337,3.27,1.098,4.098c0.707,0.408,2.343,0.512,3.82,0.512c1.521,0,2.876-0.11,2.876-0.11s-2.261-4.77-3.696-5.598 C16.697,20.629,16.182,20.499,15.673,20.499L15.673,20.499z"/></g><g><path fill="#ffc49c" d="M20 23.5A2.5 2.5 0 1 0 20 28.5A2.5 2.5 0 1 0 20 23.5Z"/><path fill="#a16a4a" d="M20,24c1.103,0,2,0.897,2,2s-0.897,2-2,2s-2-0.897-2-2S18.897,24,20,24 M20,23 c-1.657,0-3,1.343-3,3s1.343,3,3,3s3-1.343,3-3S21.657,23,20,23L20,23z"/></g></svg>