<svg xmlns="http://www.w3.org/2000/svg"  viewBox="0 0 40 40" width="40px" height="40px"><path fill="#805f51" d="M15.071 13.714H24.927999999999997V22.214H15.071z"/><path fill="#593f33" d="M24.429,14.214v7.5h-8.857v-7.5H24.429 M25.429,13.214H14.571v9.5h10.857V13.214L25.429,13.214z"/><path fill="#f78f8f" d="M5.5,38.5V37c0-7.995,6.505-14.5,14.5-14.5S34.5,29.005,34.5,37v1.5H5.5z"/><path fill="#c74343" d="M20,23c7.72,0,14,6.28,14,14v1H6v-1C6,29.28,12.28,23,20,23 M20,22c-8.284,0-15,6.716-15,15v2h30 v-2C35,28.716,28.284,22,20,22L20,22z"/><path fill="#f5ce85" d="M18.438,38.5l-1.942-14.566L16.5,20.5h7v3.744l0.193,0.15c0.348,0.271,8.393,6.682,3.054,14.105 H18.438z"/><path fill="#967a44" d="M23,21v3v0.489l0.386,0.3c0.33,0.256,7.872,6.248,3.101,13.211h-7.611L17,23.934V21H23 M24,20h-8v4 l2,15h9c6-8-3-15-3-15V20L24,20z"/><path fill="#deb974" d="M20,27.5c-2.577,0-3.393-2.654-3.5-3.05V19.5h7v4.951C23.39,24.868,22.593,27.5,20,27.5z"/><path fill="#967a44" d="M23,20v4.383C22.862,24.861,22.122,27,20,27c-2.126,0-2.86-2.131-3-2.616V20H23 M24,19h-8v5.513 c0,0,0.799,3.487,4,3.487s4-3.487,4-3.487V19L24,19z"/><g><path fill="#f5ce85" d="M20,22.214c-2.718,0-4.929-2.211-4.929-4.929V6.114h9.857v11.171 C24.929,20.003,22.718,22.214,20,22.214z"/><path fill="#967a44" d="M24.429,6.614v10.671c0,2.442-1.987,4.429-4.429,4.429s-4.429-1.987-4.429-4.429V6.614H24.429 M25.429,5.614H14.571v11.671c0,2.998,2.43,5.429,5.429,5.429s5.429-2.43,5.429-5.429V5.614L25.429,5.614z"/></g><g><path fill="#a6714e" d="M24.5,22.5V12c0-0.131-0.017-3.231-1.442-4.578l-0.419-0.396l-0.333,0.471 C21.576,8.534,19.489,11.5,16,11.5h-0.5v11h-0.43l-6.569-1.877C8.604,4.165,15.457,1.573,19.554,1.5h2.068l1.08,2H23 c5.42,0,8.432,6.076,8.499,17.123L24.93,22.5H24.5z"/><path fill="#7a4f34" d="M21.323,2l0.797,1.475L22.404,4H23c6.692,0,7.911,9.845,7.995,16.247L25,21.96V12 c0-0.351-0.045-3.473-1.599-4.941l-0.839-0.792l-0.665,0.942l-0.044,0.062C21.205,8.194,19.23,11,16,11h-1v1v9.96l-5.995-1.713 C9.158,8.59,12.893,2.119,19.545,2H21.323 M21.92,1h-2.375C14.225,1.095,8,5,8,21l7,2h1V12c3.833,0,6.092-3.332,6.714-4.214 C24,9,24,12,24,12v11h1l7-2c0-3.135,0-18-9-18L21.92,1L21.92,1z"/></g><g><path fill="#8bb7f0" d="M15.274,38.5l5.573-3.981c0.934-0.667,2.034-1.019,3.182-1.019c0.699,0,1.382,0.131,2.031,0.391 c1.942,0.777,3.246,2.555,3.419,4.609H15.274z"/><path fill="#4e7ab5" d="M24.029,34c0.635,0,1.256,0.12,1.846,0.356c1.586,0.634,2.703,2.003,3.028,3.645H16.835l4.304-3.074 C21.987,34.32,22.986,34,24.029,34 M24.029,33c-1.227,0-2.443,0.378-3.472,1.112L13.714,39H30v-0.028 c0-2.442-1.487-4.638-3.754-5.545h0C25.53,33.141,24.777,33,24.029,33L24.029,33z"/></g><g><path fill="#ffdea3" d="M27 28.5A3.5 3.5 0 1 0 27 35.5A3.5 3.5 0 1 0 27 28.5Z"/><path fill="#967a44" d="M27,29c1.654,0,3,1.346,3,3s-1.346,3-3,3s-3-1.346-3-3S25.346,29,27,29 M27,28 c-2.209,0-4,1.791-4,4s1.791,4,4,4s4-1.791,4-4S29.209,28,27,28L27,28z"/></g></svg>