<svg xmlns="http://www.w3.org/2000/svg"  viewBox="0 0 40 40" width="40px" height="40px"><path fill="#a6714e" d="M35.566,9.5c0.091-1.085,0.076-3.472-1.377-5.756c3.374,1.022,4.107,4.44,4.266,5.756H35.566z"/><path fill="#7a4f34" d="M35.314,4.815C37.015,5.916,37.64,7.821,37.868,9h-1.777C36.117,7.984,36.002,6.436,35.314,4.815 M33.007,3C35.75,6.125,35,10,35,10h3.998C38.998,10,38.812,3.625,33.007,3L33.007,3z"/><path fill="#a6714e" d="M20.551,9.5c0.161-1.316,0.902-4.732,4.265-5.755c-1.453,2.283-1.468,4.67-1.377,5.755H20.551z"/><path fill="#7a4f34" d="M23.691,4.815C23.003,6.436,22.888,7.984,22.913,9h-1.777C21.365,7.82,21.99,5.916,23.691,4.815 M25.998,3c-5.806,0.625-5.992,7-5.992,7h3.998C24.005,10,23.255,6.125,25.998,3L25.998,3z"/><path fill="#f5ce85" d="M10 1.5A4.5 4.5 0 1 0 10 10.5A4.5 4.5 0 1 0 10 1.5Z"/><path fill="#967a44" d="M10,2c2.206,0,4,1.794,4,4s-1.794,4-4,4S6,8.206,6,6S7.794,2,10,2 M10,1C7.239,1,5,3.239,5,6 c0,2.761,2.239,5,5,5s5-2.239,5-5C15,3.239,12.761,1,10,1L10,1z"/><path fill="#f5ce85" d="M3.036,27.5c-0.847,0-1.536-0.689-1.536-1.536v-8.521c0.006,0.001,0.011,0.003,0.016,0.005 c0.249,0.083,0.589,0.195,0.97,0.195h2.086v8.321C4.571,26.811,3.883,27.5,3.036,27.5z"/><path fill="#967a44" d="M2,18.098c0.15,0.027,0.312,0.045,0.485,0.045h1.587v7.821C4.071,26.535,3.607,27,3.036,27 C2.465,27,2,26.535,2,25.964L2,18.098 M1.25,16.87C1.092,16.87,1,16.966,1,17.271v8.694C1,27.089,1.911,28,3.036,28 s2.036-0.911,2.036-2.036v-8.821H2.485C1.97,17.143,1.516,16.87,1.25,16.87L1.25,16.87z"/><path fill="#f5ce85" d="M17,27.5c-0.827,0-1.5-0.673-1.5-1.5v-7.5h3V26C18.5,26.827,17.827,27.5,17,27.5z"/><path fill="#967a44" d="M18,19v7c0,0.551-0.449,1-1,1s-1-0.449-1-1v-7H18 M19,18h-4v8c0,1.105,0.895,2,2,2s2-0.895,2-2V18 L19,18z"/><path fill="#f5ce85" d="M13.5,38.5c-1.103,0-2-0.897-2-2v-10h4v10C15.5,37.603,14.603,38.5,13.5,38.5z"/><path fill="#967a44" d="M15,27v9.5c0,0.827-0.673,1.5-1.5,1.5S12,37.327,12,36.5V27H15 M16,26h-5v10.5 c0,1.381,1.119,2.5,2.5,2.5s2.5-1.119,2.5-2.5V26L16,26z"/><path fill="#f5ce85" d="M6.5,38.5c-1.103,0-2-0.897-2-2v-10h4v10C8.5,37.603,7.603,38.5,6.5,38.5z"/><path fill="#967a44" d="M8,27v9.5C8,37.327,7.327,38,6.5,38S5,37.327,5,36.5V27H8 M9,26H4v10.5C4,37.881,5.119,39,6.5,39 S9,37.881,9,36.5V26L9,26z"/><path fill="#c2e8ff" d="M4.5,24.5v-6h-3V17c0-2.481,2.019-4.5,4.5-4.5h8c2.481,0,4.5,2.019,4.5,4.5v1.5h-3v6H4.5z"/><path fill="#7496c4" d="M14,13c2.206,0,4,1.794,4,4v1h-2h-1v1v5H5v-5v-1H4H2v-1c0-2.206,1.794-4,4-4H14 M14,12H6 c-2.761,0-5,2.239-5,5v2h3v6h12v-6h3v-2C19,14.239,16.761,12,14,12L14,12z"/><path fill="#f78f8f" d="M11.207 29.5L10 28.293 8.793 29.5 4.5 29.5 4.5 22.5 15.5 22.5 15.5 29.5z"/><path fill="#c74343" d="M15,23v6h-3.586l-0.707-0.707L10,27.586l-0.707,0.707L8.586,29H5v-6H15 M16,22H4v8h5l1-1l1,1h5V22 L16,22z"/><g><path fill="#f5ce85" d="M29.5 1.5A4 4 0 1 0 29.5 9.5A4 4 0 1 0 29.5 1.5Z"/><path fill="#967a44" d="M29.5,2C31.43,2,33,3.57,33,5.5S31.43,9,29.5,9S26,7.43,26,5.5S27.57,2,29.5,2 M29.5,1 C27.015,1,25,3.015,25,5.5s2.015,4.5,4.5,4.5S34,7.985,34,5.5S31.985,1,29.5,1L29.5,1z"/></g><g><path fill="#f5ce85" d="M23.036,26.5c-0.847,0-1.536-0.689-1.536-1.536v-8.521c0.006,0.001,0.011,0.003,0.016,0.005 c0.249,0.083,0.589,0.195,0.97,0.195h2.086v8.321C24.571,25.811,23.883,26.5,23.036,26.5z"/><path fill="#967a44" d="M22,17.098c0.15,0.027,0.312,0.045,0.485,0.045h1.587v7.821c0,0.571-0.465,1.036-1.036,1.036 C22.465,26,22,25.535,22,24.964L22,17.098 M21.25,15.87c-0.158,0-0.25,0.096-0.25,0.401v8.694C21,26.089,21.911,27,23.036,27 s2.036-0.911,2.036-2.036v-8.821h-2.587C21.97,16.143,21.516,15.87,21.25,15.87L21.25,15.87z"/></g><g><path fill="#f5ce85" d="M36,26.5c-0.827,0-1.5-0.673-1.5-1.5v-7.5h3V25C37.5,25.827,36.827,26.5,36,26.5z"/><path fill="#967a44" d="M37,18v7c0,0.551-0.449,1-1,1s-1-0.449-1-1v-7H37 M38,17h-4v8c0,1.105,0.895,2,2,2s2-0.895,2-2V17 L38,17z"/></g><g><path fill="#f5ce85" d="M31.5,38.5c-1.103,0-2-0.897-2-2v-11h4v11C33.5,37.603,32.603,38.5,31.5,38.5z"/><path fill="#967a44" d="M33,26v10.5c0,0.827-0.673,1.5-1.5,1.5S30,37.327,30,36.5V26H33 M34,25h-5v11.5 c0,1.381,1.119,2.5,2.5,2.5c1.381,0,2.5-1.119,2.5-2.5V25L34,25z"/></g><g><path fill="#f5ce85" d="M27.5,38.5c-1.103,0-2-0.897-2-2v-11h4v11C29.5,37.603,28.603,38.5,27.5,38.5z"/><path fill="#967a44" d="M29,26v10.5c0,0.827-0.673,1.5-1.5,1.5S26,37.327,26,36.5V26H29 M30,25h-5v11.5 c0,1.381,1.119,2.5,2.5,2.5s2.5-1.119,2.5-2.5V25L30,25z"/></g><g><path fill="#bae0bd" d="M24.5,23.5v-6h-3V16c0-2.481,2.019-4.5,4.5-4.5h7c2.481,0,4.5,2.019,4.5,4.5v1.5h-3v6H24.5z"/><path fill="#5e9c76" d="M33,12c2.206,0,4,1.794,4,4v1h-2h-1v1v5h-9v-5v-1h-1h-2v-1c0-2.206,1.794-4,4-4H33 M33,11h-7 c-2.761,0-5,2.239-5,5v2h3v6h11v-6h3v-2C38,13.239,35.761,11,33,11L33,11z"/></g><g><path fill="#a6714e" d="M25.649,4.5c0.445-1.745,2.014-3,3.851-3s3.405,1.255,3.851,3H25.649z"/><path fill="#7a4f34" d="M29.5,2c1.376,0,2.58,0.808,3.142,2h-6.284C26.92,2.808,28.124,2,29.5,2 M29.5,1 c-2.314,0-4.198,1.753-4.45,4h8.899C33.698,2.753,31.814,1,29.5,1L29.5,1z"/></g><g><path fill="#bae0bd" d="M29.499,29.5c-3.263,0-6.646-0.853-7.871-1.194l2.74-8.806h10.264l2.738,8.805 C36.144,28.647,32.757,29.5,29.499,29.5z"/><path fill="#5e9c76" d="M34.264,20l2.475,7.958C35.27,28.342,32.336,29,29.499,29c-2.83,0-5.768-0.659-7.239-1.042 L24.736,20H34.264 M35,19H24l-3.001,9.643c0,0,4.317,1.357,8.5,1.357s8.5-1.357,8.5-1.357L35,19L35,19z"/></g></svg>