<?xml version="1.0" encoding="iso-8859-1"?>
<!-- Uploaded to: SVG Repo, www.svgrepo.com, Generator: SVG Repo Mixer Tools -->
<svg height="800px" width="800px" version="1.1" id="Layer_1" xmlns="http://www.w3.org/2000/svg" xmlns:xlink="http://www.w3.org/1999/xlink" 
	 viewBox="0 0 512 512" xml:space="preserve">
<path style="fill:#F7DC4D;" d="M483.283,93.791c0-2.168-0.986-4.218-2.68-5.573c-1.694-1.355-3.913-1.87-6.028-1.393
	c-17.542,3.962-30.644,19.644-30.644,38.384s13.1,34.422,30.644,38.384c2.117,0.478,4.335-0.033,6.029-1.388
	c1.695-1.355,2.679-3.408,2.679-5.577L483.283,93.791L483.283,93.791z"/>
<path style="fill:#FF8600;" d="M443.931,125.21c0,18.741,13.1,34.421,30.644,38.384c2.116,0.478,4.335-0.033,6.029-1.388
	c1.695-1.355,2.68-3.408,2.68-5.577V125.21C483.284,125.21,443.931,125.21,443.931,125.21z"/>
<path style="fill:#1E1E1E;" d="M435.854,260.06c-6.707,0-13.128-3.814-16.136-10.298l-92.082-198.44h-41.611
	c-9.817,0-17.777-7.959-17.777-17.777s7.959-17.777,17.777-17.777h52.96c6.921,0,13.212,4.017,16.125,10.294l96.858,208.734
	c4.132,8.906,0.263,19.476-8.643,23.608C440.904,259.528,438.359,260.06,435.854,260.06z"/>
<path style="fill:#3D3D3D;" d="M435.843,318.435c-41.992,0-76.155-34.164-76.155-76.156s34.163-76.156,76.155-76.156
	S512,200.287,512,242.279S477.836,318.435,435.843,318.435z M435.843,201.676c-22.389,0-40.602,18.214-40.602,40.603
	s18.214,40.603,40.602,40.603c22.388,0,40.604-18.214,40.604-40.603S458.232,201.676,435.843,201.676z"/>
<path style="fill:#1E1E1E;" d="M435.843,166.124v35.553c22.388,0,40.603,18.215,40.603,40.603s-18.215,40.603-40.603,40.603v35.553
	c41.992,0,76.156-34.164,76.156-76.156S477.836,166.124,435.843,166.124z"/>
<path style="fill:#797882;" d="M237.495,473.647c1.945,0,3.922-0.321,5.863-0.999l80.142-27.998
	c7.135-2.492,11.914-9.224,11.914-16.782c0-7.558-4.779-14.29-11.914-16.782l-32.106-11.217l32.106-11.217
	c7.135-2.492,11.914-9.224,11.914-16.782c0-7.558-4.779-14.29-11.914-16.782l-32.106-11.217l32.106-11.217
	c7.135-2.493,11.914-9.224,11.914-16.782c0-7.557-4.779-14.29-11.914-16.782l-32.106-11.217l32.106-11.217
	c7.135-2.493,11.914-9.224,11.914-16.782c0-7.557-4.779-14.29-11.914-16.782l-80.142-27.998
	c-9.269-3.237-19.406,1.651-22.645,10.919c-3.237,9.269,1.651,19.407,10.919,22.645l32.106,11.217l-32.106,11.217
	c-7.135,2.492-11.914,9.224-11.914,16.782c0,7.558,4.779,14.29,11.914,16.782l32.106,11.217l-32.106,11.217
	c-7.135,2.492-11.914,9.224-11.914,16.782c0,7.558,4.779,14.29,11.914,16.782l32.106,11.217l-32.106,11.217
	c-7.135,2.493-11.914,9.224-11.914,16.782c0,7.558,4.779,14.29,11.914,16.782l32.106,11.217l-32.106,11.217
	c-9.268,3.238-14.156,13.377-10.919,22.645C223.274,469.057,230.148,473.647,237.495,473.647z"/>
<path style="fill:#2D2E30;" d="M335.413,315.873c0-7.558-4.779-14.29-11.914-16.782l-32.106-11.217l32.106-11.217
	c7.135-2.493,11.914-9.224,11.914-16.782c0-7.557-4.779-14.29-11.914-16.782l-45.938-16.049v233.652l45.938-16.05
	c7.135-2.492,11.914-9.224,11.914-16.782c0-7.558-4.779-14.29-11.914-16.782l-32.106-11.217l32.106-11.217
	c7.135-2.492,11.914-9.224,11.914-16.782c0-7.558-4.779-14.29-11.914-16.782l-32.106-11.217l32.106-11.217
	C330.635,330.163,335.413,323.432,335.413,315.873z"/>
<path style="fill:#E61F00;" d="M372.257,486.157c0-25.199-20.428-45.626-45.626-45.626h-98.14
	c-25.199,0-45.626,20.428-45.626,45.626c0,5.564,4.51,10.074,10.074,10.074h169.246
	C367.747,496.231,372.257,491.721,372.257,486.157z"/>
<path style="fill:#A51000;" d="M326.631,440.531h-49.07v55.7h84.623c5.563,0,10.074-4.51,10.074-10.074
	C372.257,460.959,351.83,440.531,326.631,440.531z"/>
<path style="fill:#E61F00;" d="M451.842,100.248c0-9.351-7.58-16.93-16.93-16.93H318.053c-9.351,0-16.93,7.58-16.93,16.93v4.493
	c0,9.259-7.457,16.789-16.715,16.879l-42.686,0.415l-0.366,0.002c-15.912,0-30.062-10.119-35.207-25.18l-6.591-19.289
	c-2.458-7.194-9.219-12.028-16.822-12.028H17.776c-5.869,0-11.358,2.896-14.672,7.739c-3.314,4.843-4.022,11.01-1.897,16.48
	l39.108,100.583c2.658,6.833,9.237,11.334,16.568,11.334H95.03c10.957-10.141,25.528-16.408,41.349-16.408
	c33.363,0,61.203,27.841,61.203,61.203c0,0.665-0.03,1.325-0.051,1.987h81.383c4.297,0,8.448-1.557,11.686-4.381l42.21-36.824
	c24.014-20.95,54.802-32.492,86.669-32.492h15.482c9.322,0,16.879-7.557,16.879-16.879v-57.635H451.842z"/>
<g>
	<path style="fill:#3D3D3D;" d="M138.575,318.435c-41.992,0-76.155-34.164-76.155-76.156s34.163-76.156,76.155-76.156
		s76.156,34.164,76.156,76.156S180.568,318.435,138.575,318.435z M138.575,201.676c-22.389,0-40.602,18.214-40.602,40.603
		s18.214,40.603,40.602,40.603s40.604-18.214,40.604-40.603S160.964,201.676,138.575,201.676z"/>
	<circle style="fill:#3D3D3D;" cx="138.575" cy="242.279" r="16.628"/>
</g>
<path style="fill:#9D2217;" d="M451.842,100.248c0-9.351-7.58-16.93-16.93-16.93H318.053c-9.351,0-16.93,7.58-16.93,16.93v4.493
	c0,9.259-7.457,16.789-16.715,16.879l-6.845,0.067v126.771h1.353c4.297,0,8.448-1.557,11.686-4.381l42.21-36.824
	c24.014-20.95,54.802-32.492,86.669-32.492h15.482c9.322,0,16.879-7.557,16.879-16.879L451.842,100.248L451.842,100.248z"/>
<path style="fill:#1E1E1E;" d="M138.576,166.124v35.553c22.389,0,40.603,18.214,40.603,40.603s-18.215,40.603-40.603,40.603v35.553
	c41.992,0,76.156-34.164,76.156-76.156S180.568,166.124,138.576,166.124z"/>
</svg>