<svg xmlns="http://www.w3.org/2000/svg"  viewBox="0 0 40 40" width="40px" height="40px"><path fill="none" stroke="#7a4f34" stroke-miterlimit="10" d="M20.5 8c0-3.804 3.5-4.5 3.5-4.5M20.5 9c0-3.804-4.5-3.5-4.5-3.5"/><path fill="#deb974" d="M34,28.5c-1.93,0-3.5-1.57-3.5-3.5s1.57-3.5,3.5-3.5s3.5,1.57,3.5,3.5S35.93,28.5,34,28.5z M6,28.5 c-1.93,0-3.5-1.57-3.5-3.5s1.57-3.5,3.5-3.5s3.5,1.57,3.5,3.5S7.93,28.5,6,28.5z"/><path fill="#967a44" d="M34,22c1.654,0,3,1.346,3,3s-1.346,3-3,3s-3-1.346-3-3S32.346,22,34,22 M6,22c1.654,0,3,1.346,3,3 s-1.346,3-3,3s-3-1.346-3-3S4.346,22,6,22 M34,21c-2.209,0-4,1.791-4,4c0,2.209,1.791,4,4,4s4-1.791,4-4 C38,22.791,36.209,21,34,21L34,21z M6,21c-2.209,0-4,1.791-4,4c0,2.209,1.791,4,4,4s4-1.791,4-4C10,22.791,8.209,21,6,21L6,21z"/><path fill="#f5ce85" d="M20,38.5c-7.995,0-14.5-6.505-14.5-14.5v-2c0-7.995,6.505-14.5,14.5-14.5S34.5,14.005,34.5,22v2 C34.5,31.995,27.995,38.5,20,38.5z"/><path fill="#967a44" d="M20,8c7.72,0,14,6.28,14,14v2c0,7.72-6.28,14-14,14S6,31.72,6,24v-2C6,14.28,12.28,8,20,8 M20,7 C11.716,7,5,13.716,5,22v2c0,8.284,6.716,15,15,15s15-6.716,15-15v-2C35,13.716,28.284,7,20,7L20,7z"/><path fill="none" stroke="#36404d" stroke-linecap="round" stroke-miterlimit="10" d="M23.5 13.5c3.809 0 5 3 5 3M16.5 13.5c-3.809 0-5 3-5 3"/><path fill="#f78f8f" d="M27.839,27.643c-0.109,0-0.221-0.017-0.33-0.05c-1.748-0.53-4.469-1.162-7.509-1.162 s-5.761,0.632-7.509,1.162c-0.109,0.034-0.221,0.05-0.33,0.05c-0.343,0-0.668-0.167-0.893-0.459 c-0.249-0.325-0.33-0.745-0.221-1.153c1.093-4.097,4.519-8.244,8.952-8.244s7.859,4.147,8.952,8.244 c0.109,0.408,0.028,0.829-0.221,1.153C28.507,27.475,28.182,27.643,27.839,27.643z"/><path fill="#c74343" d="M20,18.286c3.164,0,7.09,2.704,8.469,7.873c0.069,0.257,0.02,0.519-0.134,0.72 c-0.129,0.168-0.31,0.264-0.496,0.264c-0.06,0-0.122-0.01-0.185-0.029c-1.779-0.54-4.551-1.183-7.653-1.183 s-5.874,0.644-7.653,1.183c-0.063,0.019-0.125,0.029-0.185,0.029c-0.186,0-0.367-0.096-0.496-0.264 c-0.154-0.2-0.203-0.463-0.134-0.72C12.91,20.99,16.836,18.286,20,18.286 M20,17.286c-4.453,0-8.216,4.048-9.435,8.615 c-0.309,1.157,0.532,2.242,1.597,2.242c0.155,0,0.314-0.023,0.475-0.072c1.804-0.547,4.434-1.14,7.363-1.14s5.559,0.593,7.363,1.14 c0.161,0.049,0.321,0.072,0.475,0.072c1.064,0,1.906-1.085,1.597-2.242C28.216,21.333,24.453,17.286,20,17.286L20,17.286z"/><g><path fill="#8bb7f0" d="M32.671,7.329c0.475-1.922,1.272-4.525,1.902-5.155C35.008,1.739,35.586,1.5,36.2,1.5 s1.191,0.239,1.626,0.674S38.5,3.186,38.5,3.8c0,0.614-0.239,1.191-0.674,1.626C37.195,6.057,34.593,6.855,32.671,7.329z"/><path fill="#4e7ab5" d="M36.2,2c0.481,0,0.933,0.187,1.273,0.527C37.813,2.867,38,3.319,38,3.8s-0.187,0.933-0.527,1.273 c-0.426,0.426-2.237,1.061-4.109,1.563c0.502-1.871,1.136-3.682,1.563-4.108C35.267,2.187,35.719,2,36.2,2 M36.2,1 c-0.717,0-1.433,0.273-1.98,0.82C33.127,2.914,32,8,32,8s5.086-1.127,6.18-2.22c1.094-1.093,1.094-2.866,0-3.96 C37.633,1.273,36.917,1,36.2,1L36.2,1z"/></g><g><path fill="#8bb7f0" d="M8.329,8.329C6.406,7.855,3.804,7.057,3.174,6.426C2.739,5.992,2.5,5.415,2.5,4.8 c0-0.615,0.239-1.192,0.674-1.626S4.186,2.5,4.8,2.5s1.192,0.239,1.627,0.674C7.057,3.804,7.854,6.407,8.329,8.329z"/><path fill="#4e7ab5" d="M4.8,3c0.481,0,0.933,0.187,1.273,0.527c0.426,0.426,1.061,2.237,1.563,4.108 C5.764,7.134,3.953,6.499,3.527,6.073C3.187,5.733,3,5.281,3,4.8c0-0.481,0.187-0.933,0.527-1.273C3.867,3.187,4.319,3,4.8,3 M4.8,2C4.083,2,3.367,2.273,2.82,2.82c-1.093,1.093-1.093,2.866,0,3.96C3.914,7.873,9,9,9,9S7.873,3.914,6.78,2.82 C6.233,2.273,5.517,2,4.8,2L4.8,2z"/></g></svg>