<svg xmlns="http://www.w3.org/2000/svg"  viewBox="0 0 40 40" width="40px" height="40px"><path fill="#ffeea3" d="M4.5 34.5L4.5 31 3.565 14.159 11.06 20.717 20 9.79 28.94 20.717 36.435 14.159 35.501 30.972 35.5 34.5z"/><path fill="#f5c276" d="M20,10.579l8.226,10.054l0.655,0.8l0.778-0.681l6.211-5.435l-0.868,15.627L35,30.972V31v3H5v-3 v-0.028l-0.002-0.028L4.13,15.318l6.211,5.435l0.778,0.681l0.655-0.8L20,10.579 M20,9l-9,11l-8-7l1,18v4h32v-4l1-18l-8,7L20,9L20,9 z"/><path fill="#f5c276" d="M4.5 31.5H35.5V34.5H4.5z"/><path fill="#c29653" d="M35,32v2H5v-2H35 M36,31H4v4h32V31L36,31z"/><path fill="#f5c276" d="M20 5.5A2.5 2.5 0 1 0 20 10.5A2.5 2.5 0 1 0 20 5.5Z"/><path fill="#c29653" d="M20,6c1.103,0,2,0.897,2,2s-0.897,2-2,2s-2-0.897-2-2S18.897,6,20,6 M20,5c-1.65,0-3,1.35-3,3 s1.35,3,3,3s3-1.35,3-3S21.65,5,20,5L20,5z"/><g><path fill="#f5c276" d="M37 9.5A2.5 2.5 0 1 0 37 14.5A2.5 2.5 0 1 0 37 9.5Z"/><path fill="#c29653" d="M37,10c1.103,0,2,0.897,2,2s-0.897,2-2,2s-2-0.897-2-2S35.897,10,37,10 M37,9c-1.65,0-3,1.35-3,3 s1.35,3,3,3c1.65,0,3-1.35,3-3S38.65,9,37,9L37,9z"/></g><g><path fill="#f5c276" d="M3 9.5A2.5 2.5 0 1 0 3 14.5A2.5 2.5 0 1 0 3 9.5Z"/><path fill="#c29653" d="M3,10c1.103,0,2,0.897,2,2s-0.897,2-2,2s-2-0.897-2-2S1.897,10,3,10 M3,9c-1.65,0-3,1.35-3,3 s1.35,3,3,3s3-1.35,3-3S4.65,9,3,9L3,9z"/></g><path fill="#f5c276" d="M36 21.124L29.109 26.606 20 16 10.891 26.606 4 21.169 4 22.505 11 28 20 17.519 29 28 36 22.49z"/></svg>