<svg xmlns="http://www.w3.org/2000/svg"  viewBox="0 0 40 40" width="40px" height="40px"><path fill="#8bb7f0" d="M19.5,35.5V28c0-4.687,3.813-8.5,8.5-8.5h2c4.687,0,8.5,3.813,8.5,8.5v7.5H19.5z"/><path fill="#4e7ab5" d="M30,20c4.411,0,8,3.589,8,8v7H20v-7c0-4.411,3.589-8,8-8H30 M30,19h-2c-4.971,0-9,4.029-9,9v8h20 v-8C39,23.029,34.971,19,30,19L30,19z"/><path fill="#bae0bd" d="M1.5,35.5V26c0-3.584,2.916-6.5,6.5-6.5h6c3.584,0,6.5,2.916,6.5,6.5v9.5H1.5z"/><path fill="#5e9c76" d="M14,20c3.308,0,6,2.692,6,6v9H2v-9c0-3.308,2.692-6,6-6H14 M14,19H8c-3.866,0-7,3.134-7,7v10h20V26 C21,22.134,17.866,19,14,19L14,19z"/><path fill="#f78f8f" d="M13.5,38.5V38c0-3.033,2.467-5.5,5.5-5.5h2c3.033,0,5.5,2.467,5.5,5.5v0.5H13.5z"/><path fill="#c74343" d="M21,33c2.757,0,5,2.243,5,5H14c0-2.757,2.243-5,5-5H21 M21,32h-2c-3.314,0-6,2.686-6,6v1h14v-1 C27,34.686,24.314,32,21,32L21,32z"/><path fill="#deb974" d="M11,21.5c-1.379,0-2.191-0.493-2.5-0.729v-5.557h5v5.557C13.194,21.005,12.382,21.5,11,21.5z"/><path fill="#967a44" d="M13,15.714v4.791C12.655,20.714,11.999,21,11,21c-1.003,0-1.659-0.288-2-0.493v-4.793H13 M14,14.714H8V21c0,0,0.964,1,3,1s3-1,3-1V14.714L14,14.714z"/><path fill="#deb974" d="M15.143,13.929c-0.669,0-1.214-0.545-1.214-1.214s0.545-1.214,1.214-1.214 c1.214,0,1.214,0.356,1.214,0.643C16.357,12.88,15.729,13.929,15.143,13.929z M6.571,13.929c-0.586,0-1.214-1.048-1.214-1.786 c0-0.286,0-0.643,1.214-0.643c0.669,0,1.214,0.545,1.214,1.214S7.241,13.929,6.571,13.929z"/><path fill="#967a44" d="M15.143,12c0.45,0,0.642,0.056,0.711,0.084c0.002,0.015,0.003,0.034,0.003,0.059 c0,0.585-0.512,1.286-0.714,1.286c-0.394,0-0.714-0.32-0.714-0.714C14.429,12.32,14.749,12,15.143,12 M6.571,12 c0.394,0,0.714,0.32,0.714,0.714c0,0.394-0.32,0.714-0.714,0.714c-0.202,0-0.714-0.7-0.714-1.286c0-0.025,0.001-0.044,0.003-0.059 C5.929,12.056,6.122,12,6.571,12 M15.143,11c-0.947,0-1.714,0.768-1.714,1.714s0.768,1.714,1.714,1.714 c0.947,0,1.714-1.339,1.714-2.286C16.857,11.196,16.09,11,15.143,11L15.143,11z M6.571,11c-0.947,0-1.714,0.196-1.714,1.143 c0,0.947,0.768,2.286,1.714,2.286c0.947,0,1.714-0.767,1.714-1.714S7.518,11,6.571,11L6.571,11z"/><path fill="#f5ce85" d="M11,18.5c-0.423,0-0.813-0.199-1.072-0.545l-0.097-0.13l-0.156-0.048 C7.776,17.188,6.5,15.469,6.5,13.5V7.453c0-1.038,0.845-1.883,1.883-1.883h5.234c1.038,0,1.883,0.845,1.883,1.883V13.5 c0,1.969-1.276,3.688-3.175,4.276l-0.156,0.048l-0.097,0.13C11.813,18.301,11.423,18.5,11,18.5z"/><path fill="#967a44" d="M13.617,6.07C14.38,6.07,15,6.69,15,7.453V13.5c0,1.749-1.135,3.275-2.823,3.799l-0.311,0.096 l-0.195,0.261C11.508,17.875,11.264,18,11,18s-0.508-0.125-0.671-0.344l-0.195-0.261l-0.311-0.096C8.135,16.775,7,15.249,7,13.5 V7.453C7,6.69,7.62,6.07,8.383,6.07H13.617 M13.617,5.07H8.383C7.067,5.07,6,6.137,6,7.453V13.5c0,2.245,1.49,4.122,3.527,4.754 C9.863,18.704,10.395,19,11,19s1.137-0.296,1.473-0.746C14.51,17.622,16,15.745,16,13.5V7.453C16,6.137,14.933,5.07,13.617,5.07 L13.617,5.07z"/><path fill="#ffdea3" d="M29,21.5c-1.379,0-2.191-0.493-2.5-0.729v-5.557h5v5.557C31.194,21.005,30.382,21.5,29,21.5z"/><path fill="#967a44" d="M31,15.714v4.791C30.655,20.714,29.999,21,29,21c-1.003,0-1.659-0.288-2-0.493v-4.793H31 M32,14.714h-6V21c0,0,0.964,1,3,1s3-1,3-1V14.714L32,14.714z"/><g><path fill="#ffdea3" d="M29,18.5c-0.344,0-0.673-0.133-0.926-0.375l-0.093-0.089l-0.125-0.033 c-1.976-0.522-3.356-2.304-3.356-4.333V8.622c0-1.038,0.845-1.883,1.883-1.883h5.234c1.038,0,1.883,0.845,1.883,1.883v5.047 c0,2.03-1.38,3.812-3.356,4.333l-0.125,0.033l-0.093,0.089C29.673,18.367,29.344,18.5,29,18.5z"/><path fill="#967a44" d="M31.617,7.239C32.38,7.239,33,7.86,33,8.622v5.047c0,1.803-1.227,3.386-2.984,3.85l-0.25,0.066 l-0.187,0.179C29.421,17.916,29.215,18,29,18c-0.215,0-0.421-0.084-0.58-0.236l-0.187-0.179l-0.25-0.066 C26.227,17.056,25,15.473,25,13.67V8.622c0-0.763,0.62-1.383,1.383-1.383H31.617 M31.617,6.239h-5.234 C25.067,6.239,24,7.306,24,8.622v5.047c0,2.319,1.587,4.251,3.729,4.817C28.06,18.803,28.506,19,29,19s0.94-0.197,1.271-0.514 C32.413,17.921,34,15.989,34,13.67V8.622C34,7.306,32.933,6.239,31.617,6.239L31.617,6.239z"/></g><g><path fill="#a6714e" d="M15.5,12.132v-1.708c0-2.338-1.09-3.517-1.137-3.565l-0.405-0.428L13.602,6.9 C13.553,6.962,12.307,8.5,9,8.5c-2.075,0-2.5,1.213-2.5,3.034v0.599H6.331C6.074,11.491,5.5,9.851,5.5,8 c0-3.444,2.088-5.5,5.585-5.5c2.128,0,2.934,1.692,2.942,1.709L14.161,4.5h0.32C15.688,4.5,16.5,5.907,16.5,8 c0,0.729-0.566,2.969-0.881,4.132H15.5z"/><path fill="#7a4f34" d="M11.085,3c1.774,0,2.464,1.37,2.488,1.419L13.841,5h0.64C15.375,5,16,6.234,16,8 c0,0.195-0.053,0.547-0.138,0.981c-0.308-1.547-1.034-2.358-1.136-2.466l-0.81-0.855l-0.713,0.937C13.193,6.611,12.052,8,9,8 C7.233,8,6.489,8.834,6.19,9.877C6.079,9.307,6,8.667,6,8C6,4.822,7.853,3,11.085,3 M11.085,2C7.488,2,5,4.107,5,8 c0,2.522,1,4.632,1,4.632h1c0,0,0-0.404,0-1.098C7,9.628,7.482,9,9,9c3.634,0,5-1.797,5-1.797s1,1.056,1,3.222 c0,0.763,0,2.208,0,2.208h1c0,0,1-3.57,1-4.632c0-2.499-1.081-4-2.519-4C14.481,4,13.558,2,11.085,2L11.085,2z"/></g><g><path fill="#f5ce85" d="M33.851,18.143c-1.335,0-2.192-0.42-2.636-0.724c0.51-0.588,1.285-1.79,1.285-3.671v-1.115 c0-1.724-0.441-2.56-0.492-2.649l-0.314-0.559l-0.466,0.44c-0.01,0.009-1.188,1.081-3.713,1.542 c-1.87,0.341-2.015,2.354-2.015,2.962c0,1.807,0.654,2.712,1.23,3.159c-0.508,0.287-1.35,0.614-2.544,0.614 c-1.252,0-2.568-0.575-3.31-0.96c0.669-0.63,1.663-1.827,1.663-3.378c0-0.749-0.011-1.182-0.021-1.59 c-0.009-0.359-0.018-0.698-0.018-1.223c0-4.004,2.486-6.491,6.487-6.491c2.268,0,3.348,1.485,3.358,1.5l0.149,0.21h0.258 c1.694,0,2.747,1.835,2.747,4.789v2.805c0,1.435,0.997,2.377,1.675,2.853C36.519,17.222,35.236,18.143,33.851,18.143z"/><path fill="#967a44" d="M28.987,5c1.97,0,2.917,1.245,2.951,1.289l0.299,0.421h0.517C34.139,6.711,35,8.354,35,11v2.805 c0,1.303,0.702,2.246,1.374,2.85c-0.645,0.472-1.569,0.988-2.523,0.988c-0.839,0-1.463-0.182-1.892-0.378 C32.464,16.526,33,15.362,33,13.748v-1.115c0-1.813-0.463-2.729-0.556-2.894l-0.623-1.087l-0.929,0.844 c-0.011,0.01-1.111,0.99-3.467,1.419C25.929,11.189,25,12.512,25,14.37c0,1.452,0.395,2.393,0.872,2.999 c-0.431,0.153-0.991,0.274-1.685,0.274c-0.865,0-1.778-0.308-2.474-0.614c0.647-0.748,1.327-1.859,1.327-3.224 c0-0.755-0.011-1.191-0.022-1.603C23.009,11.847,23,11.511,23,10.991C23,7.24,25.238,5,28.987,5 M28.987,4 C25.051,4,22,6.368,22,10.991c0,1.124,0.039,1.407,0.039,2.813c0,2.051-2.037,3.456-2.037,3.456s2.14,1.382,4.184,1.382 c2.346,0,3.491-1.187,3.491-1.187S26,17.152,26,14.37c0-0.456,0.084-2.193,1.605-2.47c2.729-0.498,3.967-1.67,3.967-1.67 S32,10.991,32,12.634c0,0.777,0-0.162,0,1.115c0,2.531-1.525,3.702-1.525,3.702s1.052,1.192,3.376,1.192 c2.237,0,4.147-2.074,4.147-2.074S36,15.639,36,13.805c0-1.63,0-1.634,0-2.805c0-3.771-1.565-5.289-3.246-5.289 C32.754,5.711,31.539,4,28.987,4L28.987,4z"/></g><g><path fill="#ffdea3" d="M20,34.071c-0.786,0-1.275-0.252-1.5-0.405v-3.452h3v3.453C21.278,33.818,20.788,34.071,20,34.071z"/><path fill="#967a44" d="M21,30.714v2.66c-0.213,0.098-0.543,0.197-1,0.197c-0.459,0-0.79-0.101-1-0.196v-2.661H21 M22,29.714h-4v4.19c0,0,0.642,0.667,2,0.667s2-0.667,2-0.667V29.714L22,29.714z"/></g><g><path fill="#deb974" d="M23.654,29.053c-0.323,0-0.596-0.367-0.596-0.801c0-0.435,0.273-0.801,0.596-0.801 s0.596,0.367,0.596,0.801C24.25,28.686,23.977,29.053,23.654,29.053z M16.346,29.053c-0.323,0-0.596-0.367-0.596-0.801 c0-0.435,0.273-0.801,0.596-0.801s0.596,0.367,0.596,0.801C16.942,28.686,16.669,29.053,16.346,29.053z"/><path fill="#967a44" d="M23.654,27.964c0.038,0.039,0.096,0.136,0.096,0.288c0,0.187-0.088,0.29-0.074,0.305 c-0.03-0.015-0.118-0.119-0.118-0.305C23.558,28.1,23.616,28.003,23.654,27.964 M16.346,27.964 c0.038,0.039,0.096,0.136,0.096,0.288c0,0.187-0.088,0.29-0.074,0.305c-0.03-0.015-0.118-0.119-0.118-0.305 C16.25,28.1,16.308,28.003,16.346,27.964 M23.654,26.951c-0.605,0-1.096,0.583-1.096,1.301s0.491,1.301,1.096,1.301 c0.605,0,1.096-0.583,1.096-1.301S24.259,26.951,23.654,26.951L23.654,26.951z M16.346,26.951c-0.605,0-1.096,0.583-1.096,1.301 s0.491,1.301,1.096,1.301c0.605,0,1.096-0.583,1.096-1.301S16.952,26.951,16.346,26.951L16.346,26.951z"/></g><g><path fill="#ffdea3" d="M20,32.5c-1.93,0-3.5-1.57-3.5-3.5v-3.5h7V29C23.5,30.93,21.93,32.5,20,32.5z"/><path fill="#967a44" d="M23,26v3c0,1.654-1.346,3-3,3s-3-1.346-3-3v-3H23 M24,25h-8v4c0,2.209,1.791,4,4,4s4-1.791,4-4V25 L24,25z"/></g><g><path fill="#f5ce85" d="M23.5,28.5v-0.795c0-1.216-0.989-2.205-2.205-2.205h-2.59c-1.216,0-2.205,0.989-2.205,2.205V28.5 h-0.122C16.238,27.976,16,26.957,16,26.091c0-1.734,1.607-3.591,4-3.591s4,1.857,4,3.591c0,0.885-0.236,1.892-0.376,2.409H23.5z"/><path fill="#967a44" d="M20,23c2.094,0,3.5,1.598,3.5,3.091c0,0.016,0,0.032,0,0.048C23.009,25.45,22.204,25,21.295,25 h-2.59c-0.908,0-1.714,0.45-2.205,1.139c0-0.016,0-0.032,0-0.048C16.5,24.598,17.906,23,20,23 M20,22 c-2.649,0-4.5,2.056-4.5,4.091C15.5,27.406,16,29,16,29h1v-1.295C17,26.763,17.763,26,18.705,26h2.59 C22.237,26,23,26.763,23,27.705V29h1c0,0,0.5-1.562,0.5-2.909C24.5,24.045,22.649,22,20,22L20,22z"/></g></svg>