<svg xmlns="http://www.w3.org/2000/svg"  viewBox="0 0 40 40" width="40px" height="40px"><path fill="#b6c9d6" d="M34 33.5A2.5 2.5 0 1 0 34 38.5A2.5 2.5 0 1 0 34 33.5Z"/><path fill="#788b9c" d="M34,34c1.103,0,2,0.897,2,2s-0.897,2-2,2s-2-0.897-2-2S32.897,34,34,34 M34,33 c-1.657,0-3,1.343-3,3s1.343,3,3,3s3-1.343,3-3S35.657,33,34,33L34,33z"/><path fill="#b6c9d6" d="M22 33.5A2.5 2.5 0 1 0 22 38.5A2.5 2.5 0 1 0 22 33.5Z"/><path fill="#788b9c" d="M22,34c1.103,0,2,0.897,2,2s-0.897,2-2,2s-2-0.897-2-2S20.897,34,22,34 M22,33 c-1.657,0-3,1.343-3,3s1.343,3,3,3s3-1.343,3-3S23.657,33,22,33L22,33z"/><path fill="none" stroke="#788b9c" stroke-linecap="round" stroke-linejoin="round" stroke-miterlimit="10" d="M34 36L21 28M22 36L35 28"/><path fill="#b6c9d6" d="M21,29.5c-1.379,0-2.5-1.122-2.5-2.5v-1.5h19V27c0,1.378-1.121,2.5-2.5,2.5H21z"/><path fill="#788b9c" d="M37,26v1c0,1.103-0.897,2-2,2H21c-1.103,0-2-0.897-2-2v-1H37 M38,25H18v2c0,1.657,1.343,3,3,3h14 c1.657,0,3-1.343,3-3V25L38,25z"/><path fill="#f78f8f" d="M18.5 21.5H37.5V25.5H18.5z"/><path fill="#c74343" d="M37,22v3H19v-3H37 M38,21H18v5h20V21L38,21z"/><path fill="#f5ce85" d="M9 1.5A3.5 3.5 0 1 0 9 8.5A3.5 3.5 0 1 0 9 1.5Z"/><path fill="#967a44" d="M9,2c1.654,0,3,1.346,3,3s-1.346,3-3,3S6,6.654,6,5S7.346,2,9,2 M9,1C6.791,1,5,2.791,5,5 s1.791,4,4,4s4-1.791,4-4S11.209,1,9,1L9,1z"/><path fill="#f78f8f" d="M26.207,21.5l0.19-0.19l5.776-9.627C34.822,13.328,37.5,16.555,37.5,21v0.5H26.207z"/><path fill="#c74343" d="M32.335,12.386C34.719,14.028,37,16.997,37,21h-9.834L32.335,12.386 M32,11l-6,10l-1,1h13v-1 C38,16.395,35.259,12.825,32,11L32,11z"/><g><path fill="#f5ce85" d="M14,26.5c-0.827,0-1.5-0.673-1.5-1.5v-7.5h3V25C15.5,25.827,14.827,26.5,14,26.5z"/><path fill="#967a44" d="M15,18v7c0,0.551-0.449,1-1,1s-1-0.449-1-1v-7H15 M16,17h-4v8c0,1.105,0.895,2,2,2s2-0.895,2-2V17 L16,17z"/></g><g><path fill="#f5ce85" d="M4,26.5c-0.827,0-1.5-0.673-1.5-1.5v-7.5h3V25C5.5,25.827,4.827,26.5,4,26.5z"/><path fill="#967a44" d="M5,18v7c0,0.551-0.449,1-1,1s-1-0.449-1-1v-7H5 M6,17H2v8c0,1.105,0.895,2,2,2s2-0.895,2-2V17L6,17 z"/></g><g><path fill="#8bb7f0" d="M6.466,38.5l-1-14H2.5V16c0-3.033,2.468-5.5,5.5-5.5h2c3.032,0,5.5,2.467,5.5,5.5v8.5h-2.966l-1,14 H6.466z"/><path fill="#4e7ab5" d="M10,11c2.757,0,5,2.243,5,5v8h-2h-0.931l-0.066,0.929L11.069,38H6.931L5.997,24.929L5.931,24H5H3 v-8c0-2.757,2.243-5,5-5H10 M10,10H8c-3.314,0-6,2.686-6,6v9h3l1,14h6l1-14h3v-9C16,12.686,13.314,10,10,10L10,10z"/></g><g><path fill="none" stroke="#4e7ab5" stroke-linejoin="round" stroke-miterlimit="10" d="M12.5 25L12.5 16"/></g><g><path fill="none" stroke="#4e7ab5" stroke-linejoin="round" stroke-miterlimit="10" d="M5.5 25L5.5 16"/></g></svg>