<svg xmlns="http://www.w3.org/2000/svg"  viewBox="0 0 40 40" width="40px" height="40px"><path fill="#ffc49c" d="M31 25.5A2.5 2.5 0 1 0 31 30.5A2.5 2.5 0 1 0 31 25.5Z"/><path fill="#a16a4a" d="M31,26c1.103,0,2,0.897,2,2s-0.897,2-2,2c-1.103,0-2-0.897-2-2S29.897,26,31,26 M31,25 c-1.657,0-3,1.343-3,3s1.343,3,3,3c1.657,0,3-1.343,3-3S32.657,25,31,25L31,25z"/><path fill="#fff" d="M34.289,34.498c-1.616,0-3.119-1.059-3.83-2.697c-0.744-1.711,0.285-2.838,2.895-5.447 C34.878,24.828,35.5,22.697,35.5,19l0.002-2.431c0.004-3.02,0.01-7.702,0-10.069h1.028c0.186,2.851,0.583,6.67,0.968,10.37 c0.524,5.044,1.02,9.809,1.002,12.126c-0.016,2.028-0.39,3.339-1.176,4.125C36.424,34.022,35.374,34.498,34.289,34.498z"/><path fill="#788b9c" d="M36.063 7c.197 2.8.573 6.411.937 9.915.5 4.812 1.018 9.787 1 12.078-.014 1.863-.351 3.098-1.029 3.776-.805.805-1.732 1.23-2.682 1.23-1.416 0-2.74-.941-3.372-2.397-.575-1.323.056-2.161 2.79-4.895C35.335 25.078 36 22.846 36 19l.002-2.43c.003-2.735.009-7.069.002-9.57H36.063M37 6c-1.282 0-.529 0-2 0 .017 2.858 0 11.125 0 13 0 3.627-.608 5.608-2 7-2.545 2.545-3.896 3.938-3 6 .788 1.814 2.47 2.998 4.289 2.998 1.137 0 2.328-.463 3.389-1.523C38.634 32.519 38.984 30.973 39 29 39.032 24.8 37.385 12.522 37 6L37 6zM12 7c-1.833 1.979-3 4.891-3 8 0 5.996 4.753 11 10 11 1.499 0 2.825-.203 4-.561 5.141-1.567 3.67-7.292 3-7.282C20.69 18.231 15.258 13.889 12 7z"/><path fill="#36404d" d="M11,15c0-2.367,0.679-4.615,1.81-6.429C12.528,8.063,12.256,7.541,12,7c-1.833,1.979-3,4.891-3,8 c0,5.996,4.753,11,10,11c0.39,0,0.757-0.025,1.124-0.052C15.236,25.431,11,20.66,11,15z"/><path fill="#ffc49c" d="M28.5 6.5L36.162 6.5 28.5 9.286z"/><path fill="#a16a4a" d="M33.324,7L29,8.572V7H33.324 M39,6H28v4L39,6L39,6z"/><path fill="#fff" d="M3.585,32.5c4.903-2.244,9.048-5.224,9.004-10.695c1.215,1.119,2.241,1.61,3.301,1.61 c0.932,0,1.787-0.379,2.778-0.819c0.455-0.202,0.949-0.421,1.506-0.627C23.853,20.606,24.5,16.379,24.5,8V7.862l-0.07-0.119 c-0.357-0.598-0.696-1.175-0.991-1.678c-0.261-0.443-0.458-0.779-0.609-1.033l0.248-0.039l3.97-0.464 c0.148-0.021,0.284-0.03,0.419-0.03c1.45,0,2.742,1.093,2.939,2.488c0.214,1.515-0.827,2.784-2.476,3.017l-0.43,0.061V19.5 c0,8.505-6.052,13-17.5,13H3.585z"/><path fill="#788b9c" d="M27.465,5c1.208,0,2.282,0.904,2.445,2.058c0.086,0.605-0.066,1.16-0.437,1.606 c-0.377,0.452-0.949,0.752-1.613,0.846L27,9.631V10.5v9C27,27.678,21.121,32,10,32H5.778c3.25-1.733,6.808-4.511,7.259-9.168 c0.994,0.747,1.903,1.083,2.852,1.083c1.038,0,1.938-0.399,2.981-0.862c0.462-0.205,0.939-0.416,1.477-0.615 C24.304,20.972,25,16.615,25,8V7.724l-0.141-0.237c-0.353-0.592-0.689-1.164-0.982-1.662c-0.084-0.143-0.161-0.274-0.232-0.394 l3.484-0.408C27.24,5.008,27.353,5,27.465,5 M27.465,4c-0.158,0-0.316,0.011-0.476,0.033L23,4.5l-1,0.156 C22.161,4.848,23.012,6.343,24,8c0,8.292-0.625,12.25-4,13.5c-1.739,0.644-2.885,1.415-4.111,1.415 c-1.081,0-2.223-0.6-3.889-2.415c0.869,6.929-4.981,10.043-10.163,12.219C1.567,32.832,1.276,32.912,1,33c3.462,0,5.357,0,9,0 c13.289,0,18-5.923,18-13.5c0-1.27,0-7.591,0-9c1.848-0.261,3.161-1.734,2.9-3.582C30.661,5.229,29.136,4,27.465,4L27.465,4z"/><path fill="#36404d" d="M28 6A1 1 0 1 0 28 8A1 1 0 1 0 28 6Z"/><g><path fill="#b6c9d6" d="M11,28.5c-5.061,0-9.5-4.907-9.5-10.5c0-2.634,0.861-5.179,2.385-7.098 c3.363,6.654,8.669,10.755,13.981,10.755c0.758,0,1.514-0.086,2.247-0.257c1.081-0.251,1.906-0.658,2.524-1.05 C20.628,24.613,17.51,28.5,11,28.5z"/><path fill="#788b9c" d="M3.814,11.846c3.463,6.4,8.745,10.311,14.051,10.311c0.796,0,1.59-0.091,2.361-0.27 c0.466-0.108,0.887-0.244,1.267-0.394C19.531,25.041,16.54,28,11,28c-4.794,0-9-4.673-9-10C2,15.758,2.65,13.587,3.814,11.846 M4,10c-1.833,1.979-3,4.891-3,8c0,5.996,4.753,11,10,11c8.058,0,11.088-5.865,12.838-10.146c-0.438,0.184-1.463,1.508-3.838,2.06 c-0.706,0.164-1.419,0.244-2.134,0.244C12.599,21.157,7.231,16.831,4,10L4,10z"/></g><g><path fill="#36404d" d="M3,18c0-2.367,0.679-4.615,1.81-6.429C4.528,11.063,4.256,10.541,4,10c-1.833,1.979-3,4.891-3,8 c0,5.996,4.753,11,10,11c0.39,0,0.757-0.025,1.124-0.052C7.236,28.431,3,23.66,3,18z"/></g></svg>