<svg xmlns="http://www.w3.org/2000/svg"  viewBox="0 0 40 40" width="40px" height="40px"><path fill="#a6714e" d="M25.566,9.5c0.09-1.085,0.076-3.473-1.377-5.756c3.375,1.022,4.108,4.44,4.267,5.756H25.566z"/><path fill="#7a4f34" d="M25.314,4.815C27.015,5.916,27.64,7.821,27.868,9h-1.777C26.117,7.984,26.002,6.436,25.314,4.815 M23.007,3C25.75,6.125,25,10,25,10h3.998C28.998,10,28.812,3.625,23.007,3L23.007,3z"/><path fill="#a6714e" d="M10.55,9.5c0.162-1.316,0.903-4.731,4.265-5.755c-1.454,2.283-1.467,4.67-1.377,5.755H10.55z"/><path fill="#7a4f34" d="M13.691,4.815C13.003,6.436,12.888,7.984,12.913,9h-1.777C11.365,7.82,11.99,5.916,13.691,4.815 M15.998,3c-5.806,0.625-5.992,7-5.992,7h3.998C14.005,10,13.255,6.125,15.998,3L15.998,3z"/><path fill="#f5ce85" d="M19.5 1.5A4 4 0 1 0 19.5 9.5A4 4 0 1 0 19.5 1.5Z"/><path fill="#967a44" d="M19.5,2C21.43,2,23,3.57,23,5.5S21.43,9,19.5,9C17.57,9,16,7.43,16,5.5S17.57,2,19.5,2 M19.5,1 C17.015,1,15,3.015,15,5.5s2.015,4.5,4.5,4.5c2.485,0,4.5-2.015,4.5-4.5S21.985,1,19.5,1L19.5,1z"/><path fill="#f5ce85" d="M13.036,26.5c-0.847,0-1.536-0.689-1.536-1.536v-8.521c0.005,0.002,0.011,0.004,0.016,0.005 c0.249,0.083,0.589,0.195,0.969,0.195h2.086v8.321C14.571,25.811,13.882,26.5,13.036,26.5z"/><path fill="#967a44" d="M12,17.098c0.15,0.027,0.312,0.045,0.485,0.045h1.587v7.821c0,0.571-0.465,1.036-1.036,1.036 C12.465,26,12,25.535,12,24.964L12,17.098 M11.25,15.87c-0.158,0-0.25,0.096-0.25,0.401v8.694C11,26.089,11.911,27,13.036,27h0 c1.124,0,2.036-0.911,2.036-2.036v-8.821h-2.587C11.97,16.143,11.516,15.87,11.25,15.87L11.25,15.87z"/><path fill="#f5ce85" d="M26,26.5c-0.827,0-1.5-0.673-1.5-1.5v-7.5h3V25C27.5,25.827,26.827,26.5,26,26.5z"/><path fill="#967a44" d="M27,18v7c0,0.551-0.449,1-1,1s-1-0.449-1-1v-7H27 M28,17h-4v8c0,1.105,0.895,2,2,2s2-0.895,2-2V17 L28,17z"/><g><path fill="#f5ce85" d="M21.5,38.5c-1.103,0-2-0.897-2-2v-11h4v11C23.5,37.603,22.603,38.5,21.5,38.5z"/><path fill="#967a44" d="M23,26v10.5c0,0.827-0.673,1.5-1.5,1.5S20,37.327,20,36.5V26H23 M24,25h-5v11.5 c0,1.381,1.119,2.5,2.5,2.5s2.5-1.119,2.5-2.5V25L24,25z"/></g><g><path fill="#f5ce85" d="M17.5,38.5c-1.103,0-2-0.897-2-2v-11h4v11C19.5,37.603,18.603,38.5,17.5,38.5z"/><path fill="#967a44" d="M19,26v10.5c0,0.827-0.673,1.5-1.5,1.5S16,37.327,16,36.5V26H19 M20,25h-5v11.5 c0,1.381,1.119,2.5,2.5,2.5s2.5-1.119,2.5-2.5V25L20,25z"/></g><g><path fill="#bae0bd" d="M14.5,23.5v-6h-3V16c0-2.481,2.019-4.5,4.5-4.5h7c2.481,0,4.5,2.019,4.5,4.5v1.5h-3v6H14.5z"/><path fill="#5e9c76" d="M23,12c2.206,0,4,1.794,4,4v1h-2h-1v1v5h-9v-5v-1h-1h-2v-1c0-2.206,1.794-4,4-4H23 M23,11h-7 c-2.761,0-5,2.239-5,5v2h3v6h11v-6h3v-2C28,13.239,25.761,11,23,11L23,11z"/></g><g><path fill="#a6714e" d="M15.649,4.5c0.447-1.744,2.015-3,3.851-3s3.404,1.256,3.851,3H15.649z"/><path fill="#7a4f34" d="M19.5,2c1.376,0,2.58,0.808,3.142,2h-6.284C16.92,2.808,18.124,2,19.5,2 M19.5,1 c-2.314,0-4.198,1.753-4.45,4h8.899C23.698,2.753,21.814,1,19.5,1L19.5,1z"/></g><g><path fill="#bae0bd" d="M19.499,29.5c-3.262,0-6.646-0.853-7.871-1.195l2.74-8.805h10.264l2.738,8.805 C26.144,28.646,22.757,29.5,19.499,29.5z"/><path fill="#5e9c76" d="M24.264,20l2.475,7.958C25.268,28.341,22.329,29,19.499,29s-5.768-0.659-7.239-1.042L14.736,20 H24.264 M25,19H14l-3.001,9.643c0,0,4.317,1.357,8.5,1.357c4.183,0,8.5-1.357,8.5-1.357L25,19L25,19z"/></g></svg>