<svg xmlns="http://www.w3.org/2000/svg"  viewBox="0 0 40 40" width="40px" height="40px"><path fill="none" stroke="#7a4f34" stroke-miterlimit="10" d="M20.5 5c0-3.494 3.152-3.5 3.5-3.5M19.5 6c0-3.494-3.152-3.5-3.5-3.5"/><path fill="#deb974" d="M34,25.5c-1.93,0-3.5-1.57-3.5-3.5s1.57-3.5,3.5-3.5s3.5,1.57,3.5,3.5S35.93,25.5,34,25.5z M6,25.5 c-1.93,0-3.5-1.57-3.5-3.5s1.57-3.5,3.5-3.5s3.5,1.57,3.5,3.5S7.93,25.5,6,25.5z"/><path fill="#967a44" d="M34,19c1.654,0,3,1.346,3,3s-1.346,3-3,3s-3-1.346-3-3S32.346,19,34,19 M6,19c1.654,0,3,1.346,3,3 s-1.346,3-3,3s-3-1.346-3-3S4.346,19,6,19 M34,18c-2.209,0-4,1.791-4,4c0,2.209,1.791,4,4,4s4-1.791,4-4 C38,19.791,36.209,18,34,18L34,18z M6,18c-2.209,0-4,1.791-4,4c0,2.209,1.791,4,4,4s4-1.791,4-4C10,19.791,8.209,18,6,18L6,18z"/><path fill="#f5ce85" d="M20,38.5c-1.15,0-2.236-0.447-3.056-1.259l-0.101-0.1l-0.138-0.032 C10.108,35.574,5.5,29.772,5.5,23v-4c0-7.995,6.505-14.5,14.5-14.5S34.5,11.005,34.5,19v4c0,6.772-4.608,12.574-11.206,14.109 l-0.138,0.032l-0.101,0.1C22.236,38.053,21.15,38.5,20,38.5z"/><path fill="#967a44" d="M20,5c7.72,0,14,6.28,14,14v4c0,6.538-4.449,12.14-10.819,13.622l-0.276,0.064l-0.201,0.199 C21.978,37.604,21.018,38,20,38s-1.978-0.396-2.704-1.114l-0.201-0.199l-0.276-0.064C10.449,35.14,6,29.538,6,23v-4 C6,11.28,12.28,5,20,5 M20,4C11.716,4,5,10.716,5,19v4c0,7.11,4.952,13.051,11.592,14.596C17.468,38.463,18.671,39,20,39 s2.532-0.537,3.408-1.404C30.048,36.051,35,30.11,35,23v-4C35,10.716,28.284,4,20,4L20,4z"/><path fill="#2d3540" d="M26.5 22A1.5 1.5 0 1 0 26.5 25 1.5 1.5 0 1 0 26.5 22zM13.5 22A1.5 1.5 0 1 0 13.5 25 1.5 1.5 0 1 0 13.5 22z"/><path fill="none" stroke="#c74343" stroke-miterlimit="10" d="M14.872,29.038C15.695,31.066,17.677,32.5,20,32.5	s4.305-1.434,5.128-3.462"/><path fill="none" stroke="#36404d" stroke-miterlimit="10" d="M3 3L37 37"/></svg>