<svg xmlns="http://www.w3.org/2000/svg"  viewBox="0 0 40 40" width="40px" height="40px"><g id="Office_x5F_40"><path fill="#ffeea3" d="M11,37.5c-0.827,0-1.5-0.673-1.5-1.5V24.5h3V36C12.5,36.827,11.827,37.5,11,37.5z"/><path fill="#ba9b48" d="M12,25v11c0,0.551-0.449,1-1,1s-1-0.449-1-1V25H12 M13,24H9v12c0,1.105,0.895,2,2,2s2-0.895,2-2V24L13,24 z"/><path fill="#ffeea3" d="M34.316,24.543c-1.204,0-2.185-0.98-2.185-2.185s0.98-2.184,2.185-2.184s2.184,0.979,2.184,2.184 S35.521,24.543,34.316,24.543z"/><path fill="#ba9b48" d="M34.316,20.675c0.929,0,1.684,0.755,1.684,1.684s-0.755,1.684-1.684,1.684s-1.684-0.755-1.684-1.684 S33.387,20.675,34.316,20.675 M34.316,19.675c-1.482,0-2.684,1.202-2.684,2.684s1.202,2.684,2.684,2.684 c1.482,0,2.684-1.202,2.684-2.684S35.798,19.675,34.316,19.675L34.316,19.675z"/><path fill="#ffeea3" d="M22.5,15.5v-3H24c0.827,0,1.5,0.673,1.5,1.5s-0.673,1.5-1.5,1.5H22.5z"/><path fill="#ba9b48" d="M24,13c0.551,0,1,0.449,1,1s-0.449,1-1,1h-1v-2H24 M24,12h-2v4h2c1.105,0,2-0.895,2-2S25.105,12,24,12 L24,12z"/><path fill="#ffeea3" d="M27.5,18.5V17c0-0.827,0.673-1.5,1.5-1.5s1.5,0.673,1.5,1.5v1.5H27.5z"/><path fill="#ba9b48" d="M29,16c0.551,0,1,0.449,1,1v1h-2v-1C28,16.449,28.449,16,29,16 M29,15c-1.105,0-2,0.895-2,2v2h4v-2 C31,15.895,30.105,15,29,15L29,15z"/><g><path fill="#c2e8ff" d="M5.559,31.5c0.327-2.912,1.882-16.394,2.913-19.335C9.25,9.946,10.017,9.5,11,9.5h1.833l4,3H22.5v3h-6.349 L12.5,13.065V31.5H5.559z"/><path fill="#7496c4" d="M12.667,10l3.733,2.8l0.267,0.2H17h5v2h-5.697l-2.748-1.832L12,12.131V14v17H6.117 c0.672-5.972,1.975-16.241,2.827-18.669C9.699,10.178,10.347,10,11,10H12.667 M13,9h-2c-1.436,0-2.26,0.89-3,3 c-1.185,3.378-3,20-3,20h8V14l3,2h7v-4h-6L13,9L13,9z"/></g><g><path fill="#ffb5d2" d="M22.989,24.543c-0.403,0-0.781-0.158-1.065-0.444c-0.284-0.287-0.438-0.668-0.435-1.071l0.016-1.527H19 c-0.827,0-1.5-0.673-1.5-1.5s0.673-1.5,1.5-1.5h4c0.827,0,1.5,0.673,1.5,1.5v1.5h3v-3h3v4.515c0,0.821-0.668,1.494-1.489,1.5 l-3.822,0.028H22.989z"/><path fill="#ea4c89" d="M30,19v4.015c0,0.547-0.445,0.996-0.993,1l-3.817,0.028H22.99c-0.269,0-0.521-0.105-0.711-0.296 c-0.189-0.191-0.292-0.445-0.289-0.714L22,22.01L22.01,21H21h-2c-0.551,0-1-0.449-1-1s0.449-1,1-1h4c0.551,0,1,0.449,1,1v1v1h1 h2h1v-1v-2H30 M31,18h-4v3h-2v-1c0-1.105-0.895-2-2-2h-4c-1.105,0-2,0.895-2,2c0,1.105,0.895,2,2,2h2l-0.01,1.022 c-0.011,1.112,0.887,2.02,2,2.02h2.201l3.825-0.028c1.099-0.008,1.985-0.901,1.985-2V18L31,18z"/></g><g><rect width="19" height="2" x="17.5" y="26.5" fill="#c5d4de"/><path fill="#788b9c" d="M36,27v1H18v-1H36 M37,26H17v3h20V26L37,26z"/></g><g><circle cx="15.5" cy="5.5" r="3" fill="#ffeea3"/><path fill="#ba9b48" d="M15.5,3C16.879,3,18,4.121,18,5.5S16.879,8,15.5,8S13,6.879,13,5.5S14.121,3,15.5,3 M15.5,2 C13.567,2,12,3.567,12,5.5S13.567,9,15.5,9S19,7.433,19,5.5S17.433,2,15.5,2L15.5,2z"/></g></g></svg>