<svg xmlns="http://www.w3.org/2000/svg"  viewBox="0 0 40 40" width="40px" height="40px"><path fill="#ffc49c" d="M18.705,15.997c3.036-3.132,3.93-5.385,4.723-7.381c0.687-1.73,1.281-3.224,3.123-5.065 c1.322-1.322,3.08-2.05,4.95-2.05s3.627,0.728,4.95,2.05S38.5,6.63,38.5,8.5s-0.728,3.627-2.05,4.95 c-1.839,1.839-3.326,2.427-5.047,3.108c-1.996,0.79-4.248,1.682-7.4,4.737L18.705,15.997z"/><path fill="#a16a4a" d="M31.5,2c1.736,0,3.369,0.676,4.596,1.904C37.324,5.131,38,6.764,38,8.5 c0,1.736-0.676,3.369-1.904,4.596c-1.766,1.766-3.208,2.336-4.877,2.997c-1.964,0.777-4.171,1.651-7.208,4.503l-4.608-4.608 c2.833-3.018,3.709-5.225,4.489-7.189c0.667-1.678,1.242-3.128,3.011-4.896C28.132,2.676,29.764,2,31.5,2 M31.5,1 c-1.919,0-3.839,0.732-5.303,2.197C21.999,7.395,23.969,10.031,18,16l6,6c6-6,8.605-3.999,12.803-8.197 c2.929-2.929,2.929-7.678,0-10.607C35.339,1.732,33.419,1,31.5,1L31.5,1z"/><path fill="#c2e8ff" d="M11.5,38.5c-5.514,0-10-4.486-10-10s4.486-10,10-10s10,4.486,10,10S17.014,38.5,11.5,38.5z M11.5,20.5c-4.411,0-8,3.589-8,8s3.589,8,8,8s8-3.589,8-8S15.911,20.5,11.5,20.5z"/><path fill="#7496c4" d="M11.5,19c5.238,0,9.5,4.262,9.5,9.5S16.738,38,11.5,38S2,33.738,2,28.5S6.262,19,11.5,19 M11.5,37 c4.687,0,8.5-3.813,8.5-8.5S16.187,20,11.5,20S3,23.813,3,28.5S6.813,37,11.5,37 M11.5,18C5.701,18,1,22.701,1,28.5 S5.701,39,11.5,39S22,34.299,22,28.5S17.299,18,11.5,18L11.5,18z M11.5,36C7.358,36,4,32.642,4,28.5c0-4.142,3.358-7.5,7.5-7.5 s7.5,3.358,7.5,7.5C19,32.642,15.642,36,11.5,36L11.5,36z"/><path fill="#eb7a7a" d="M16.995,27.5c-0.592,0-1.148-0.23-1.566-0.648l-2.281-2.281c-0.743-0.744-0.86-1.918-0.277-2.792 l3.854-5.782l7.278,7.278l-5.782,3.854C17.857,27.372,17.433,27.5,16.995,27.5C16.996,27.5,16.996,27.5,16.995,27.5z"/><path fill="#c74343" d="M16.804,16.781l6.415,6.415l-5.274,3.516C17.662,26.9,17.334,27,16.995,27 c-0.458,0-0.889-0.178-1.212-0.502l-2.281-2.281c-0.575-0.575-0.666-1.485-0.214-2.162L16.804,16.781 M16.648,15.212l-4.193,6.289 c-0.717,1.076-0.576,2.509,0.339,3.424l2.281,2.281C15.6,27.73,16.295,28,16.995,28c0.521,0,1.045-0.15,1.504-0.456l6.289-4.193 L16.648,15.212L16.648,15.212z"/><path fill="none" stroke="#fff" stroke-linecap="round" stroke-miterlimit="10" d="M27.5,8.5c0-2.209,1.791-4,4-4"/><g><path fill="#f78f8f" d="M33.301,30.5c-0.194,0-0.39-0.026-0.581-0.078c-0.326-0.089-8.058-2.25-14.475-8.667 C11.828,15.339,9.667,7.606,9.578,7.28c-0.319-1.17,0.374-2.382,1.544-2.702c0.19-0.052,0.386-0.078,0.581-0.078 c0.986,0,1.857,0.666,2.119,1.619c0.02,0.072,2.015,7.008,7.533,12.526c5.623,5.622,12.456,7.514,12.524,7.533 c1.169,0.319,1.861,1.531,1.542,2.701C35.161,29.833,34.289,30.5,33.301,30.5z"/><path fill="#c74343" d="M11.703,5c0.761,0,1.434,0.514,1.638,1.257c0.081,0.288,2.048,7.129,7.66,12.742 c5.672,5.671,12.673,7.641,12.744,7.661c0.904,0.247,1.44,1.184,1.193,2.088C34.738,29.485,34.064,30,33.301,30 c-0.15,0-0.302-0.02-0.449-0.06c-0.321-0.087-7.928-2.212-14.253-8.538c-6.325-6.325-8.45-13.932-8.538-14.253 c-0.246-0.904,0.289-1.841,1.192-2.088C11.401,5.02,11.553,5,11.703,5 M11.703,4c-0.235,0-0.475,0.031-0.713,0.096 C9.552,4.489,8.704,5.972,9.096,7.411c0.09,0.332,2.289,8.191,8.796,14.697c6.506,6.507,14.366,8.705,14.697,8.796 C32.827,30.969,33.066,31,33.301,31c1.188,0,2.276-0.79,2.604-1.99c0.392-1.439-0.456-2.923-1.894-3.315 c-0.067-0.018-6.796-1.9-12.301-7.403C16.278,12.86,14.342,6.12,14.304,5.986C13.975,4.788,12.891,4,11.703,4L11.703,4z"/></g></svg>