<svg xmlns="http://www.w3.org/2000/svg"  viewBox="0 0 40 40" width="40px" height="40px"><path fill="none" stroke="#788b9c" stroke-linecap="round" stroke-miterlimit="10" d="M24.896,27.296c0,0-5.396,8.976-5.396,11.204"/><path fill="#bae0bd" d="M27.021,26.5c-0.571,0-1.117-0.09-1.623-0.267c-4.577-1.602-5.874-10.283-4.263-14.887 C22.358,7.849,25.708,5.5,29.472,5.5c1.019,0,2.028,0.172,3.001,0.513c2.256,0.789,4.074,2.394,5.12,4.518 c1.045,2.122,1.194,4.508,0.42,6.72C36.547,21.44,31.317,26.5,27.021,26.5z"/><path fill="#5e9c76" d="M29.472,6L29.472,6c0.962,0,1.916,0.163,2.836,0.485c2.131,0.746,3.849,2.261,4.837,4.268 c0.985,2,1.126,4.25,0.397,6.334C35.814,22.024,30.374,26,27.021,26c-0.514,0-1.005-0.08-1.458-0.239 c-1.876-0.656-3.379-2.801-4.124-5.885c-0.685-2.836-0.619-6.119,0.167-8.365C22.76,8.215,25.921,6,29.472,6 M29.472,5 c-3.874,0-7.478,2.375-8.809,6.181c-1.692,4.837-0.351,13.802,4.57,15.524C25.81,26.907,26.409,27,27.021,27 c4.62,0,9.97-5.313,11.464-9.584c1.692-4.837-0.926-10.153-5.847-11.875C31.59,5.174,30.521,5,29.472,5L29.472,5z"/><path fill="#5e9c76" d="M26.335 28.721L22.827 27.141 24.476 25.352 26.581 26.3z"/><path fill="none" stroke="#788b9c" stroke-linecap="round" stroke-miterlimit="10" d="M14.383,26.386	c0,0,5.117,10.114,5.117,12.114"/><path fill="#f78f8f" d="M12.979,26.5c-4.296,0-9.526-5.06-10.992-9.249c-0.774-2.212-0.625-4.598,0.42-6.72 c1.046-2.125,2.864-3.729,5.12-4.518C8.5,5.672,9.509,5.5,10.528,5.5c3.764,0,7.114,2.349,8.337,5.846 c1.611,4.604,0.313,13.286-4.263,14.887C14.095,26.41,13.549,26.5,12.979,26.5L12.979,26.5z"/><path fill="#c74343" d="M10.528,6c3.551,0,6.712,2.215,7.865,5.511c0.786,2.246,0.851,5.53,0.167,8.365 c-0.744,3.083-2.247,5.228-4.124,5.885C13.983,25.92,13.493,26,12.979,26c-3.352,0-8.792-3.976-10.52-8.914 c-0.729-2.084-0.588-4.333,0.397-6.334c0.988-2.006,2.706-3.522,4.837-4.268C8.612,6.163,9.566,6,10.528,6 M10.528,5 C9.479,5,8.41,5.174,7.362,5.541C2.44,7.263-0.178,12.58,1.515,17.416C3.009,21.687,8.359,27,12.979,27 c0.613,0,1.212-0.093,1.788-0.295c4.922-1.722,6.263-10.688,4.57-15.524C18.005,7.375,14.401,5,10.528,5L10.528,5z"/><path fill="#c74343" d="M13.64 28.259L16.62 27.216 15.398 25.637 13.61 26.262z"/><path fill="none" stroke="#788b9c" stroke-linecap="round" stroke-miterlimit="10" d="M19.5 23.22L19.5 38.5"/><g><path fill="#8bb7f0" d="M19.5,25.5c-5.152,0-9.5-8.695-9.5-14.155C10,5.917,14.262,1.5,19.5,1.5S29,5.917,29,11.345 C29,16.805,24.652,25.5,19.5,25.5z"/><path fill="#4e7ab5" d="M19.5,2c4.963,0,9,4.192,9,9.345c0,2.681-1.092,6.193-2.781,8.947C23.883,23.284,21.616,25,19.5,25 s-4.383-1.716-6.219-4.708c-1.69-2.754-2.781-6.266-2.781-8.947C10.5,6.192,14.537,2,19.5,2 M19.5,1c-5.523,0-10,4.632-10,10.345 S13.977,26,19.5,26c5.523,0,10-8.942,10-14.655S25.023,1,19.5,1L19.5,1z"/></g><g><path fill="#4e7ab5" d="M21.5 27L17.5 27 18.3 25 20.7 25z"/></g></svg>