<svg xmlns="http://www.w3.org/2000/svg"  viewBox="0 0 40 40" width="40px" height="40px"><path fill="#f5ce85" d="M26,26.5c-0.827,0-1.5-0.673-1.5-1.5v-9.5h3V25C27.5,25.827,26.827,26.5,26,26.5z"/><path fill="#967a44" d="M27,16v9c0,0.551-0.449,1-1,1s-1-0.449-1-1v-9H27 M28,15h-4v10c0,1.105,0.895,2,2,2s2-0.895,2-2V15 L28,15z"/><path fill="#f5ce85" d="M14,26.5c-0.827,0-1.5-0.673-1.5-1.5v-9.5h3V25C15.5,25.827,14.827,26.5,14,26.5z"/><path fill="#967a44" d="M15,16v9c0,0.551-0.449,1-1,1s-1-0.449-1-1v-9H15 M16,15h-4v10c0,1.105,0.895,2,2,2s2-0.895,2-2V15 L16,15z"/><path fill="#f5ce85" d="M17.475 38.5L16.456 19.143 23.544 19.143 22.525 38.5z"/><path fill="#967a44" d="M23.017,19.643L22.051,38h-4.102l-0.966-18.357H23.017 M24.071,18.643h-8.143L17,39h6 L24.071,18.643L24.071,18.643z"/><g><path fill="#8bb7f0" d="M20,31.5c-3.439,0-8.13-0.98-9.497-1.283c0.106-6.297,2.702-11.428,4.262-13.954l0.471-0.763H12.5 V15c0-2.481,2.019-4.5,4.5-4.5h6c2.481,0,4.5,2.019,4.5,4.5v0.5h-2.731l0.474,0.764c1.557,2.512,4.148,7.625,4.254,13.953 C28.13,30.52,23.439,31.5,20,31.5z"/><path fill="#4e7ab5" d="M23,11c2.206,0,4,1.794,4,4h-1.332h-1.796l0.946,1.527c1.496,2.414,3.964,7.27,4.169,13.289 C27.276,30.183,23.112,31,20,31c-3.109,0-7.275-0.817-8.986-1.184c0.206-5.991,2.678-10.864,4.177-13.291L16.132,15H14.34H13 c0-2.206,1.794-4,4-4H23 M23,10h-6c-2.761,0-5,2.239-5,5v1h2.34C12.649,18.738,10,24.069,10,30.615c0,0,5.845,1.385,10,1.385 s10-1.385,10-1.385c0-6.577-2.641-11.887-4.332-14.615H28v-1C28,12.239,25.761,10,23,10L23,10z"/></g><g><path fill="#f5ce85" d="M20 1.5A3.5 3.5 0 1 0 20 8.5A3.5 3.5 0 1 0 20 1.5Z"/><path fill="#967a44" d="M20,2c1.654,0,3,1.346,3,3c0,1.654-1.346,3-3,3s-3-1.346-3-3C17,3.346,18.346,2,20,2 M20,1 c-2.209,0-4,1.791-4,4c0,2.209,1.791,4,4,4s4-1.791,4-4C24,2.791,22.209,1,20,1L20,1z"/></g><g><path fill="#fff" d="M24,22c0-1.105-0.895-2-2-2s-2,1.342-2,1.342S19.105,20,18,20s-2,0.895-2,2c0,2.639,4,4.667,4,4.667 S24,24.656,24,22z"/></g></svg>