<svg xmlns="http://www.w3.org/2000/svg"  viewBox="0 0 40 40" width="40px" height="40px"><path fill="#ffeea3" d="M6.027,38.5c-1.21,0-2.347-0.471-3.201-1.326C1.971,36.319,1.5,35.182,1.5,33.973 c0-1.209,0.471-2.346,1.326-3.201c1.067-1.067,2.826-1.948,4.527-2.8c1.801-0.902,3.662-1.834,4.881-3.053l5.211-5.211l2.848,2.848 l-5.211,5.211c-1.587,1.586-2.396,3.353-3.179,5.062c-0.727,1.586-1.412,3.084-2.675,4.347C8.373,38.029,7.236,38.5,6.027,38.5z"/><path fill="#ba9b48" d="M17.445,20.414l2.14,2.14l-4.858,4.858c-1.65,1.65-2.478,3.458-3.279,5.206 c-0.707,1.544-1.375,3.003-2.575,4.202C8.114,37.581,7.103,38,6.027,38s-2.087-0.419-2.848-1.179c-1.57-1.57-1.57-4.125,0-5.695 c1.01-1.01,2.732-1.873,4.397-2.707c1.836-0.92,3.735-1.871,5.011-3.147L17.445,20.414 M17.445,19l-5.565,5.565 c-2.311,2.311-7.147,3.592-9.408,5.854c-1.963,1.963-1.963,5.146,0,7.109C3.454,38.509,4.74,39,6.027,39 c1.286,0,2.573-0.491,3.555-1.472c2.715-2.715,2.877-6.431,5.854-9.408C16.511,27.044,21,22.555,21,22.555L17.445,19L17.445,19z"/><path fill="#bae0bd" d="M25.5,26.5c-6.617,0-12-5.383-12-12s5.383-12,12-12s12,5.383,12,12S32.117,26.5,25.5,26.5z"/><path fill="#5e9c76" d="M25.5,3C31.841,3,37,8.159,37,14.5S31.841,26,25.5,26S14,20.841,14,14.5S19.159,3,25.5,3 M25.5,2 C18.596,2,13,7.596,13,14.5S18.596,27,25.5,27S38,21.404,38,14.5S32.404,2,25.5,2L25.5,2z"/><path fill="#ffeea3" d="M34.5 3.5A2 2 0 1 0 34.5 7.5A2 2 0 1 0 34.5 3.5Z"/><path fill="#ba9b48" d="M34.5,4C35.327,4,36,4.673,36,5.5S35.327,7,34.5,7S33,6.327,33,5.5S33.673,4,34.5,4 M34.5,3 C33.119,3,32,4.119,32,5.5S33.119,8,34.5,8S37,6.881,37,5.5S35.881,3,34.5,3L34.5,3z"/><path fill="#ffeea3" d="M15.566,7.788c0.857-1.264,1.96-2.366,3.222-3.221l16.646,16.645 c-0.857,1.264-1.96,2.366-3.222,3.221L15.566,7.788z"/><path fill="#ba9b48" d="M18.732,5.218l16.05,16.05c-0.702,0.959-1.555,1.812-2.514,2.514l-16.05-16.05 C16.92,6.773,17.773,5.92,18.732,5.218 M18.855,3.926c-1.586,0.999-2.929,2.342-3.928,3.928l17.219,17.219 c1.586-0.999,2.929-2.342,3.928-3.928L18.855,3.926L18.855,3.926z"/><g><path fill="#5e9c76" d="M25.5 13.5A1 1 0 1 0 25.5 15.5A1 1 0 1 0 25.5 13.5Z"/></g><g><path fill="#5e9c76" d="M30.5 18.5A1 1 0 1 0 30.5 20.5A1 1 0 1 0 30.5 18.5Z"/></g><g><path fill="#5e9c76" d="M20.5 8.5A1 1 0 1 0 20.5 10.5A1 1 0 1 0 20.5 8.5Z"/></g></svg>