<svg xmlns="http://www.w3.org/2000/svg"  viewBox="0 0 40 40" width="40px" height="40px"><path fill="#b0c1d4" d="M7.171,24.5c-0.46,0-0.859-0.312-0.971-0.757L4.5,16.938V16.5h31v0.438l-1.701,6.804 c-0.112,0.446-0.511,0.757-0.971,0.757H7.171z"/><path fill="#66798f" d="M34.969 17l-1.655 6.621C33.258 23.844 33.059 24 32.829 24H7.171c-.23 0-.429-.156-.485-.379L5.031 17H34.969M36 16H4v1l1.716 6.864C5.883 24.532 6.483 25 7.171 25h25.658c.688 0 1.288-.468 1.455-1.136L36 17V16L36 16zM10.464 33c1.378 0 2.5 1.122 2.5 2.5s-1.122 2.5-2.5 2.5-2.5-1.122-2.5-2.5S9.086 33 10.464 33M10.464 32c-1.933 0-3.5 1.567-3.5 3.5s1.567 3.5 3.5 3.5 3.5-1.567 3.5-3.5S12.397 32 10.464 32L10.464 32z"/><path fill="#f78f8f" d="M13.5,16.5v-3H36c0.276,0,0.5,0.224,0.5,0.5v2c0,0.276-0.224,0.5-0.5,0.5H13.5z"/><path fill="#c74343" d="M36,14v2H14v-2H36 M36,13H13v4h23c0.552,0,1-0.448,1-1v-2C37,13.448,36.552,13,36,13L36,13z"/><path fill="none" stroke="#66798f" stroke-linecap="square" stroke-miterlimit="10" d="M20.5 17.5L20.5 27.5"/><path fill="none" fill-rule="evenodd" stroke="#66798f" stroke-linecap="round" stroke-linejoin="round" stroke-miterlimit="10" d="M29.357 34.25L20.5 27.5 12.5 30.5 10.5 30.5 10.5 35.5" clip-rule="evenodd"/><path fill="#f78f8f" d="M32.465 13L30.333 13 25 17 27.132 17z"/><path fill="none" stroke="#66798f" stroke-linecap="round" stroke-linejoin="round" stroke-miterlimit="10" d="M20.5 20.5L37.5 7.5"/><path fill="#f78f8f" d="M4,16.5c-0.276,0-0.5-0.224-0.5-0.5v-2.894l4.007-9.004L19.68,1.5h0.726l-1.95,11.267 c-0.375,2.163-2.239,3.733-4.434,3.733H4z"/><path fill="#c74343" d="M19.812,2l-1.849,10.682C17.63,14.605,15.973,16,14.022,16H4v-2.788l3.861-8.674L19.733,2H19.812 M21,1h-1.373L7.154,3.667L3,13v3c0,0.552,0.448,1,1,1h10.022c2.432,0,4.512-1.751,4.927-4.147L21,1L21,1z"/><path fill="#fc9f9f" d="M17.963,12.682L7.861,4.538L19.733,2h0.079L17.963,12.682z"/><g><path fill="#66798f" d="M29.5,31c1.93,0,3.5,1.57,3.5,3.5S31.43,38,29.5,38S26,36.43,26,34.5S27.57,31,29.5,31 M29.5,30 c-2.485,0-4.5,2.015-4.5,4.5s2.015,4.5,4.5,4.5s4.5-2.015,4.5-4.5S31.985,30,29.5,30L29.5,30z"/></g><g><path fill="#b0c1d4" d="M29.5,32c1.379,0,2.5,1.122,2.5,2.5S30.879,37,29.5,37S27,35.878,27,34.5S28.121,32,29.5,32 M29.5,31c-1.933,0-3.5,1.567-3.5,3.5s1.567,3.5,3.5,3.5s3.5-1.567,3.5-3.5S31.433,31,29.5,31L29.5,31z"/></g><g><path fill="#b0c1d4" d="M10.5,34c0.827,0,1.5,0.673,1.5,1.5S11.327,37,10.5,37S9,36.327,9,35.5S9.673,34,10.5,34 M10.5,33 C9.119,33,8,34.119,8,35.5S9.119,38,10.5,38s2.5-1.119,2.5-2.5S11.881,33,10.5,33L10.5,33z"/></g></svg>