<svg xmlns="http://www.w3.org/2000/svg"  viewBox="0 0 40 40" width="40px" height="40px"><path fill="#c8d1db" d="M29.5,18c4.135,0,7.5,3.364,7.5,7.5S33.635,33,29.5,33S22,29.636,22,25.5S25.365,18,29.5,18 M29.5,16c-5.247,0-9.5,4.253-9.5,9.5s4.253,9.5,9.5,9.5s9.5-4.253,9.5-9.5S34.747,16,29.5,16L29.5,16z"/><path fill="#66798f" d="M29.5,17c4.687,0,8.5,3.813,8.5,8.5S34.187,34,29.5,34S21,30.187,21,25.5S24.813,17,29.5,17 M29.5,16c-5.247,0-9.5,4.253-9.5,9.5s4.253,9.5,9.5,9.5s9.5-4.253,9.5-9.5S34.747,16,29.5,16L29.5,16z"/><path fill="#c8d1db" d="M6.5,26c1.93,0,3.5,1.57,3.5,3.5S8.43,33,6.5,33S3,31.43,3,29.5S4.57,26,6.5,26 M6.5,24 C3.462,24,1,26.462,1,29.5S3.462,35,6.5,35s5.5-2.462,5.5-5.5S9.538,24,6.5,24L6.5,24z"/><path fill="#66798f" d="M6.5,25c2.481,0,4.5,2.019,4.5,4.5S8.981,34,6.5,34S2,31.981,2,29.5S4.019,25,6.5,25 M6.5,24 C3.462,24,1,26.462,1,29.5S3.462,35,6.5,35s5.5-2.462,5.5-5.5S9.538,24,6.5,24L6.5,24z"/><path fill="none" stroke="#c74343" stroke-miterlimit="10" d="M11 13L14 18"/><path fill="#66798f" d="M6.5 28A1.5 1.5 0 1 0 6.5 31 1.5 1.5 0 1 0 6.5 28zM29.5 23A2.5 2.5 0 1 0 29.5 28 2.5 2.5 0 1 0 29.5 23z"/><path fill="none" stroke="#c74343" stroke-linecap="round" stroke-miterlimit="10" d="M26.5 14.5l-5.128.833c-5.705.917-10.498 4.087-12.84 9.22L6.5 29.5M26.5 13.5c0 5.511 3 12 3 12"/><path fill="none" stroke="#66798f" stroke-miterlimit="10" d="M26.5,13.554c0,0,0-1.269,0-2.288c0-1.405,1.281-1.877,2-3.766	c0.339-0.891-0.316-2-1.27-2H21"/><g><path fill="#ffc49c" d="M8.887,14.279c-0.765,0-1.387-0.624-1.387-1.39S8.123,11.5,8.89,11.5h6.604 c-0.087,1.193-1.012,2.166-2.217,2.299L9.042,14.27C8.99,14.276,8.937,14.279,8.887,14.279z"/><path fill="#a16a4a" d="M14.88,12c-0.253,0.696-0.883,1.216-1.659,1.303l-4.233,0.47c-0.034,0.004-0.068,0.006-0.101,0.006 C8.397,13.779,8,13.38,8,12.889C8,12.399,8.399,12,8.889,12H14.88 M16,11H8.889C7.846,11,7,11.846,7,12.889v0 c0,1.054,0.858,1.889,1.886,1.889c0.07,0,0.141-0.004,0.212-0.012l4.233-0.47C14.85,14.128,16,12.843,16,11.315V11L16,11z"/></g></svg>