<?xml version="1.0" encoding="UTF-8"?>
<!DOCTYPE svg PUBLIC "-//W3C//DTD SVG 1.1//EN" "http://www.w3.org/Graphics/SVG/1.1/DTD/svg11.dtd">
<!-- Creator: CorelDRAW -->
<svg xmlns="http://www.w3.org/2000/svg" xml:space="preserve" width="6.82666in" height="6.82666in" style="shape-rendering:geometricPrecision; text-rendering:geometricPrecision; image-rendering:optimizeQuality; fill-rule:evenodd; clip-rule:evenodd"
viewBox="0 0 6.82666 6.82666"
 xmlns:xlink="http://www.w3.org/1999/xlink">
 <defs>
  <style type="text/css">
   <![CDATA[
    .fil38 {fill:#7D7942}
    .fil0 {fill:#CFCB88}
    .fil34 {fill:#D5CE6E}
    .fil1 {fill:#D8D277}
    .fil7 {fill:#D9D37A}
    .fil22 {fill:#DAD37C}
    .fil16 {fill:#DBD580}
    .fil29 {fill:#DBD581}
    .fil25 {fill:#DDD786}
    .fil8 {fill:#DDD889}
    .fil17 {fill:#DFDA8E}
    .fil15 {fill:#E0DB91}
    .fil9 {fill:#E0DB93}
    .fil3 {fill:#E3DD99}
    .fil13 {fill:#E4DF9E}
    .fil35 {fill:#E4DF9F}
    .fil6 {fill:#E4E0A1}
    .fil2 {fill:#E4E0A2}
    .fil32 {fill:#E5E0A4}
    .fil36 {fill:#E5E1A5}
    .fil21 {fill:#E5E2A6}
    .fil14 {fill:#E7E3AB}
    .fil11 {fill:#E8E4AC}
    .fil10 {fill:#EAE5B4}
    .fil19 {fill:#EAE6B5}
    .fil12 {fill:#EBE7B6}
    .fil5 {fill:#EBE7B7}
    .fil18 {fill:#ECE8BB}
    .fil31 {fill:#ECE9BD}
    .fil4 {fill:#EDEABE}
    .fil20 {fill:#EDEBC1}
    .fil23 {fill:#EDEBC3}
    .fil30 {fill:#EEECC5}
    .fil24 {fill:#EFECC5}
    .fil27 {fill:#EFECC8}
    .fil26 {fill:#F1EFCE}
    .fil28 {fill:#F2EFD1}
    .fil33 {fill:#F3F2D6}
    .fil37 {fill:#7D7942;fill-rule:nonzero}
   ]]>
  </style>
 </defs>
 <g id="Layer_x0020_1">
  <metadata id="CorelCorpID_0Corel-Layer"/>
  <g id="_425622544">
   <path id="_425626960" class="fil0" d="M3.41333 0.103323c1.82806,0 3.31001,1.48194 3.31001,3.31001 0,1.82806 -1.48195,3.31001 -3.31001,3.31001 -1.82806,0 -3.31001,-1.48195 -3.31001,-3.31001 0,-1.82806 1.48194,-3.31001 3.31001,-3.31001z"/>
   <g>
    <path id="_425626864" class="fil1" d="M0.848079 1.34933l-0.00881102 -0.0167598c0.00751969,-0.00929134 0.0149488,-0.0186575 0.0225669,-0.0278661l-0.0137559 0.044626z"/>
    <path id="_425627032" class="fil2" d="M0.103453 3.42369l0.0734646 0.129012 -0.0561299 0.202335c-0.0111772,-0.108965 -0.0169921,-0.219512 -0.0173346,-0.331346z"/>
    <path id="_425626696" class="fil3" d="M0.176917 3.5527l-0.0734646 -0.129012c-1.1811e-005,-0.00346063 -0.000129921,-0.0068937 -0.000129921,-0.0103543 0,-0.0520394 0.00135433,-0.103764 0.00373228,-0.155217l0.0698622 0.294583z"/>
    <path id="_425626528" class="fil4" d="M1.18754 5.86326l0.776169 -0.143953 -0.0895512 0.624886c-0.249307,-0.131201 -0.479957,-0.293071 -0.686618,-0.480933z"/>
    <path id="_425626504" class="fil5" d="M0.877634 5.54064l0.569551 -2.23282 0.516528 2.41149 -0.776169 0.143953c-0.110425,-0.100394 -0.213882,-0.20828 -0.309909,-0.322618z"/>
    <path id="_425626648" class="fil6" d="M1.44719 3.30781l-1.24757 -0.689268c0.019374,-0.0785906 0.0415472,-0.156071 0.0664213,-0.232339l1.25348 -0.277941 -0.0723386 1.19955z"/>
    <path id="_425627104" class="fil7" d="M0.839268 1.33257l0.00881102 0.0167598 -0.0252992 0.0037126c0.00546063,-0.00685827 0.0109764,-0.0136614 0.0164882,-0.0204724z"/>
    <path id="_425627056" class="fil8" d="M0.82278 1.35304l0.0252992 -0.0037126 -0.184791 0.221449c0.0502323,-0.074811 0.103488,-0.147413 0.159492,-0.217736z"/>
    <path id="_425626384" class="fil9" d="M0.663287 1.57078l0.184791 -0.221449 0.671445 0.758937 -1.25348 0.277941c0.0951614,-0.291689 0.229555,-0.565642 0.397248,-0.815429z"/>
    <path id="_425626216" class="fil2" d="M0.176917 3.5527l0 0 -0.0698622 -0.294583c0.0101339,-0.219465 0.0417244,-0.433295 0.092563,-0.639567l1.24757 0.689268 -1.27027 0.244882z"/>
    <path id="_425626264" class="fil10" d="M0.206886 4.23791l1.2403 -0.930098 -0.569551 2.23282c-0.31335,-0.373118 -0.546012,-0.816256 -0.670748,-1.30272z"/>
    <path id="_425625616" class="fil11" d="M0.120787 3.75503l0.0561299 -0.202335 1.27027 -0.244882 -1.2403 0.930098c-0.0401969,-0.156776 -0.0691929,-0.318035 -0.0860984,-0.482882z"/>
    <polygon id="_425625808" class="fil12" points="2.78979,4.64205 1.44719,3.30781 2.33528,3.05075 "/>
    <polygon id="_425625592" class="fil13" points="2.33528,3.05075 1.51952,2.10827 2.08768,1.12898 "/>
    <polygon id="_425626288" class="fil14" points="1.44719,3.30781 1.51952,2.10827 2.33528,3.05075 "/>
    <path id="_425626192" class="fil15" d="M4.66959 2.62236l-0.660965 -1.18732 1.14093 -0.840106c0.0476299,0.0294055 0.094437,0.06 0.140425,0.0917126l-0.620386 1.93572z"/>
    <path id="_425625688" class="fil16" d="M0.848079 1.34933l0.0137559 -0.044626c0.16637,-0.201083 0.356071,-0.38213 0.564921,-0.539087l0.660921 0.363366 -1.2396 0.220346z"/>
    <polygon id="_425625952" class="fil17" points="1.51952,2.10827 1.51952,2.10827 0.848079,1.34933 2.08768,1.12898 "/>
    <path id="_425625784" class="fil7" d="M2.08768 1.12898l-0.660921 -0.363366c0.201039,-0.151079 0.419906,-0.279642 0.652768,-0.382315l0.00815354 0.745681z"/>
    <polygon id="_425626096" class="fil18" points="1.96371,5.7193 1.96371,5.7193 1.44719,3.30781 2.78979,4.64205 "/>
    <polygon id="_425625352" class="fil19" points="4.34949,4.32378 3.48191,3.73625 4.66959,2.62236 "/>
    <path id="_425625328" class="fil20" d="M1.87416 6.34419l0.0895512 -0.624886 0.602126 0.894343c-0.242579,-0.064126 -0.47426,-0.155039 -0.691677,-0.269457z"/>
    <polygon id="_425625160" class="fil21" points="3.48191,3.73625 4.00863,1.43504 4.66959,2.62236 "/>
    <path id="_425624992" class="fil22" d="M2.08768 1.12898l0 0 -0.00815354 -0.745681c0.115528,-0.0509291 0.234453,-0.0955512 0.356441,-0.133228l1.08721 0.230091 -1.4355 0.648819z"/>
    <polygon id="_425625448" class="fil5" points="2.78979,4.64205 2.78979,4.64205 2.33528,3.05075 3.48191,3.73625 "/>
    <polygon id="_425625424" class="fil23" points="3.62646,6.6617 1.96371,5.7193 2.78979,4.64205 "/>
    <path id="_425625208" class="fil24" d="M2.56584 6.61365l-0.602126 -0.894343 1.66275 0.942402 -0.117366 0.0601575c-0.0318189,0.000901575 -0.0637244,0.00147638 -0.0957638,0.00147638 -0.292969,0 -0.576976,-0.0382441 -0.847492,-0.109693z"/>
    <polygon id="_425625088" class="fil14" points="3.48191,3.73625 3.48191,3.73625 2.33528,3.05075 4.00863,1.43504 "/>
    <polygon id="_425625376" class="fil3" points="2.33528,3.05075 2.33528,3.05075 2.08768,1.12898 4.00863,1.43504 "/>
    <polygon id="_425625400" class="fil25" points="4.00863,1.43504 2.08768,1.12898 3.52317,0.480165 "/>
    <path id="_425624200" class="fil26" d="M3.50909 6.72186l0.117366 -0.0601575 0.0260157 0.0529646c-0.0475315,0.0033937 -0.0953189,0.00582677 -0.143382,0.00719291z"/>
    <polygon id="_425624776" class="fil27" points="3.62646,6.6617 3.62646,6.6617 2.78979,4.64205 4.25652,6.29448 "/>
    <polygon id="_425624416" class="fil23" points="4.25652,6.29448 4.25652,6.29448 2.78979,4.64205 4.34949,4.32378 "/>
    <path id="_425624728" class="fil28" d="M3.65248 6.71467l-0.0260157 -0.0529646 0.630055 -0.36722 -0.0383543 0.33011c-0.183016,0.0457205 -0.372028,0.0762441 -0.565685,0.0900748z"/>
    <polygon id="_425624680" class="fil18" points="2.78979,4.64205 3.48191,3.73625 4.34949,4.32378 "/>
    <path id="_425624584" class="fil29" d="M4.00863 1.43504l0 0 -0.485457 -0.95487 1.35457 -0.0358346c0.0931654,0.0460394 0.183858,0.0962992 0.271811,0.150598l-1.14093 0.840106z"/>
    <polygon id="_425624368" class="fil24" points="4.25652,6.29448 4.34949,4.32378 5.32024,4.96033 "/>
    <path id="_425624440" class="fil1" d="M3.52317 0.480165l0 0 -1.08721 -0.230091c0.0436024,-0.0134567 0.087626,-0.0259409 0.131976,-0.037626l2.17698 0.16989c0.0448031,0.0197126 0.0890827,0.0403819 0.132819,0.0619921l-1.35457 0.0358346z"/>
    <path id="_425624296" class="fil30" d="M5.77469 5.73252l-0.454449 -0.772193 0.671323 -0.734362 0.0965276 1.13717c-0.0954646,0.130713 -0.200232,0.254173 -0.313402,0.36939z"/>
    <polygon id="_425624536" class="fil31" points="5.32024,4.96033 5.32024,4.96033 4.34949,4.32378 5.99156,4.22597 "/>
    <path id="_425624512" class="fil32" d="M5.99156 4.22597l-1.32197 -1.60361 1.41275 -1.16671c0.0535551,0.0728937 0.104217,0.148028 0.15178,0.225291l-0.242563 2.54503z"/>
    <path id="_425623504" class="fil17" d="M4.66959 2.62236l0.620386 -1.93572c0.305114,0.210398 0.573114,0.470654 0.792366,0.769008l-1.41275 1.16671z"/>
    <path id="_425623336" class="fil26" d="M4.96145 6.33947l-0.704937 -0.0449843 1.06372 -1.33415 0.454449 0.772193c-0.237339,0.241587 -0.511406,0.446921 -0.813236,0.606945z"/>
    <polygon id="_425623456" class="fil10" points="4.34949,4.32378 4.66959,2.62236 5.99156,4.22597 "/>
    <path id="_425623408" class="fil33" d="M4.21816 6.62459l0.0383543 -0.33011 0.704937 0.0449843c-0.232697,0.123354 -0.481811,0.219799 -0.743291,0.285126z"/>
    <path id="_425623312" class="fil34" d="M3.91747 0.141472l-1.12347 0.0199528c0.200654,-0.0379882 0.407634,-0.0581024 0.619335,-0.0581024 0.171402,0 0.339756,0.0130276 0.504138,0.0381496z"/>
    <path id="_425622592" class="fil1" d="M4.74493 0.382339l-2.17698 -0.16989c0.0743543,-0.0195866 0.149756,-0.0365591 0.226055,-0.0510236l1.12347 -0.0199528c0.289917,0.0443701 0.567406,0.126453 0.827457,0.240866z"/>
    <path id="_425622784" class="fil35" d="M5.99156 4.22597l0.242563 -2.54503c0.303346,0.492878 0.481012,1.07126 0.488685,1.69063l-0.731248 0.854394z"/>
    <path id="_425623192" class="fil36" d="M5.99156 4.22597l0.731248 -0.854394c0.000173228,0.0139213 0.000527559,0.0277953 0.000527559,0.0417559 0,0.224094 -0.0223976,0.442941 -0.0648465,0.654539l-0.666929 0.158098z"/>
    <path id="_425623144" class="fil20" d="M6.08809 5.36313l-0.0965276 -1.13717 0.488354 0.434894c-0.102224,0.250913 -0.234252,0.48648 -0.391827,0.702272z"/>
    <path id="_425622928" class="fil19" d="M6.47992 4.66086l-0.488354 -0.434894 0.666929 -0.158098c-0.0412126,0.205154 -0.101382,0.403433 -0.178575,0.592992z"/>
   </g>
   <path id="_425623024" class="fil37" d="M3.41333 0c0.942551,0 1.79589,0.382055 2.41358,0.999752 0.617697,0.617693 0.999752,1.47103 0.999752,2.41358 0,0.942551 -0.382055,1.79589 -0.999752,2.41358 -0.617693,0.617697 -1.47103,0.999752 -2.41358,0.999752 -0.942551,0 -1.79589,-0.382055 -2.41358,-0.999752 -0.617697,-0.617693 -0.999752,-1.47103 -0.999752,-2.41358 0,-0.942551 0.382055,-1.79589 0.999752,-2.41358 0.617693,-0.617697 1.47103,-0.999752 2.41358,-0.999752zm2.26731 1.14602c-0.580248,-0.580248 -1.38187,-0.939146 -2.26731,-0.939146 -0.885445,0 -1.68707,0.358898 -2.26731,0.939146 -0.580248,0.580248 -0.939146,1.38187 -0.939146,2.26731 0,0.885445 0.358898,1.68707 0.939146,2.26731 0.580248,0.580248 1.38187,0.939146 2.26731,0.939146 0.885445,0 1.68707,-0.358898 2.26731,-0.939146 0.580248,-0.580248 0.939146,-1.38187 0.939146,-2.26731 0,-0.885445 -0.358898,-1.68707 -0.939146,-2.26731z"/>
  </g>
  <g id="_425621896">
   <path id="_425621848" class="fil38" d="M1.41333 4.1634l0.272508 0c0.000570866,0.00205906 0.00114961,0.00411811 0.00176772,0.00617717 0.0267283,0.0890827 0.092378,0.154283 0.174488,0.192311l-0.448764 0 0 -0.198488zm1.08027 0l0.275441 0c-0.0324685,0.0420079 -0.0541693,0.0917008 -0.0600315,0.147429 -0.0018189,0.0172992 -0.00201181,0.0343425 -0.000748031,0.0510591l-0.453354 0c0.0823307,-0.0330276 0.15785,-0.086248 0.21128,-0.157039 0.0100551,-0.0133189 0.0192244,-0.0271693 0.0274134,-0.0414488zm1.12078 0l0.480705 0c-0.0450433,0.0470118 -0.0757283,0.105984 -0.082878,0.173925 -0.000866142,0.00824803 -0.00136614,0.016437 -0.00151575,0.024563l-0.417291 0 0.0209803 -0.198488zm1.31287 0l0.486079 0 0 0.198488 -0.507059 0 0.0209803 -0.198488zm-3.51392 -1.32327l0.652295 0c0.0107283,0.0661693 0.0215197,0.132331 0.0323346,0.198484l-0.68463 0 0 -0.198484zm0.923685 0l1.09737 0 -0.0209606 0.198484 -1.04395 0 -0.0324567 -0.198484zm2.70739 0l0.368925 0 0 0.198484 -0.367201 0 0.0122677 -0.116043c0.00291339,-0.0275433 -0.0024252,-0.0562087 -0.0139921,-0.0824409zm-0.803906 0.198484l-0.507236 0 0.0083937 -0.0793819c0.164768,0.0350945 0.331339,0.0617598 0.498843,0.0793819zm-2.82717 0.242606l0.724378 0c0.0108661,0.0661654 0.0217559,0.132331 0.0326614,0.198488l-0.757039 0 0 -0.198488zm0.995815 0l0.978665 0 -0.0209567 0.198488 -0.925248 0 -0.0324606 -0.198488zm1.29848 0l0.993173 0 -0.0209764 0.198488 -0.993173 0 0.0209764 -0.198488zm1.31287 0l0.392839 0 0 0.198488 -0.413819 0 0.0209803 -0.198488zm-3.60716 0.441091l0.554181 0c-0.0854134,0.032748 -0.164094,0.0870827 -0.219232,0.16015 -0.00932283,0.0123504 -0.0178858,0.0251575 -0.0256102,0.0383386l-0.309339 0 0 -0.198488zm1.06795 0l0.859957 0 -0.0209567 0.198488 -0.792535 0 -0.000889764 -0.00305906c-0.0056378,-0.0187953 -0.0131654,-0.0369291 -0.0224724,-0.0541693l-0.0231024 -0.14126zm1.17972 0l0.993169 0 -0.0209764 0.198488 -0.993173 0 0.0209803 -0.198488zm1.31287 0l0.439461 0 0 0.198488 -0.460441 0 0.0209803 -0.198488z"/>
   <path id="_425622376" class="fil37" d="M3.36007 4.12974l0.145319 -1.37631c0.0056378,-0.0533701 0.0539764,-0.0924646 0.107346,-0.0868228 0.00604331,0.000641732 0.0119173,0.00193701 0.0177559,0.00357087 0.410083,0.114327 0.834642,0.151236 1.25914,0.133713 0.0549488,-0.0163189 0.11387,0.0527795 0.107591,0.112213l-0.15315 1.44901c-0.0016378,0.0154882 -0.00685433,0.0297756 -0.0147283,0.0421181 -0.000185039,0.00522047 -0.000547244,0.0104567 -0.00110236,0.0157205 -0.00873228,0.0826024 -0.0619685,0.150957 -0.140988,0.194673 -0.155087,0.0858268 -0.383087,0.0619528 -0.516846,-0.054437 -0.146992,-0.127898 -0.126323,-0.319996 0.0440354,-0.414268 0.135244,-0.0748465 0.321953,-0.0654331 0.455339,0.0109843l0.122421 -1.15825c-0.372173,0.00649213 -0.741677,-0.0347008 -1.10449,-0.117295l-0.161437 1.52742c-0.00171654,0.0161969 -0.00734252,0.0310827 -0.0158346,0.0438071 -0.0223661,0.0561142 -0.067122,0.102756 -0.126378,0.135543 -0.155098,0.0858346 -0.383083,0.0619488 -0.516854,-0.054437 -0.146988,-0.127902 -0.126319,-0.32 0.0440394,-0.414272 0.13322,-0.0737205 0.31613,-0.0656142 0.448827,0.00733071z"/>
   <path id="_425622112" class="fil38" d="M2.03193 2.21315c0.00648031,-0.0274882 0.0289173,-0.0497913 0.0584724,-0.054626 0.0136378,-0.00223228 0.0273583,-0.000326772 0.0400866,0.00492126 0.122587,0.0505433 0.236264,0.130169 0.343252,0.207618 0.0698898,0.0505984 0.140909,0.102559 0.216425,0.144461 0.0652835,0.0362165 0.13748,0.0665157 0.21272,0.0718268 0.0632598,0.0044685 0.121906,-0.00926772 0.177909,-0.0387283 0.0351102,-0.0184803 0.0787283,-0.00488189 0.0971732,0.0302441 0.0184409,0.0351181 0.00485827,0.078685 -0.0302402,0.0971457 -0.0918504,0.0483268 -0.188028,0.0681457 -0.291126,0.053189 -0.171634,-0.0249016 -0.330051,-0.142492 -0.467287,-0.241843 -0.062563,-0.0452913 -0.12672,-0.0923465 -0.193906,-0.131933l0.250028 1.52891c0.00945669,0.0158465 0.0170394,0.0329016 0.0224961,0.0510787 0.0236181,0.0787047 0.00245276,0.161752 -0.0508543,0.232382 -0.0503701,0.0667323 -0.130043,0.122571 -0.227079,0.151693 -0.0970394,0.0291181 -0.194291,0.026374 -0.273083,-0.0016063 -0.0833819,-0.0296102 -0.14678,-0.0872795 -0.170394,-0.165984 -0.0236142,-0.0787087 -0.00244882,-0.161752 0.0508504,-0.232382 0.0503661,-0.0667362 0.130047,-0.122571 0.227083,-0.151689 0.0897953,-0.0269488 0.179787,-0.0266024 0.255154,-0.00422835 -0.0846575,-0.511724 -0.255752,-1.54911 -0.247681,-1.55045z"/>
  </g>
 </g>
</svg>
