<?xml version="1.0" encoding="UTF-8"?>
<!DOCTYPE svg PUBLIC "-//W3C//DTD SVG 1.1//EN" "http://www.w3.org/Graphics/SVG/1.1/DTD/svg11.dtd">
<!-- Creator: CorelDRAW -->
<svg xmlns="http://www.w3.org/2000/svg" xml:space="preserve" width="6.82666in" height="6.82666in" style="shape-rendering:geometricPrecision; text-rendering:geometricPrecision; image-rendering:optimizeQuality; fill-rule:evenodd; clip-rule:evenodd"
viewBox="0 0 6.82666 6.82666"
 xmlns:xlink="http://www.w3.org/1999/xlink">
 <defs>
  <style type="text/css">
   <![CDATA[
    .fil38 {fill:#7D7942}
    .fil0 {fill:#CFCB88}
    .fil34 {fill:#D5CE6E}
    .fil1 {fill:#D8D277}
    .fil7 {fill:#D9D37A}
    .fil22 {fill:#DAD37C}
    .fil16 {fill:#DBD580}
    .fil29 {fill:#DBD581}
    .fil25 {fill:#DDD786}
    .fil8 {fill:#DDD889}
    .fil17 {fill:#DFDA8E}
    .fil15 {fill:#E0DB91}
    .fil9 {fill:#E0DB93}
    .fil3 {fill:#E3DD99}
    .fil13 {fill:#E4DF9E}
    .fil35 {fill:#E4DF9F}
    .fil6 {fill:#E4E0A1}
    .fil2 {fill:#E4E0A2}
    .fil32 {fill:#E5E0A4}
    .fil36 {fill:#E5E1A5}
    .fil21 {fill:#E5E2A6}
    .fil14 {fill:#E7E3AB}
    .fil11 {fill:#E8E4AC}
    .fil10 {fill:#EAE5B4}
    .fil19 {fill:#EAE6B5}
    .fil12 {fill:#EBE7B6}
    .fil5 {fill:#EBE7B7}
    .fil18 {fill:#ECE8BB}
    .fil31 {fill:#ECE9BD}
    .fil4 {fill:#EDEABE}
    .fil20 {fill:#EDEBC1}
    .fil23 {fill:#EDEBC3}
    .fil30 {fill:#EEECC5}
    .fil24 {fill:#EFECC5}
    .fil27 {fill:#EFECC8}
    .fil26 {fill:#F1EFCE}
    .fil28 {fill:#F2EFD1}
    .fil33 {fill:#F3F2D6}
    .fil37 {fill:#7D7942;fill-rule:nonzero}
   ]]>
  </style>
 </defs>
 <g id="Layer_x0020_1">
  <metadata id="CorelCorpID_0Corel-Layer"/>
  <g id="_430151784">
   <path id="_430155936" class="fil0" d="M3.41333 0.103323c1.82806,0 3.31001,1.48194 3.31001,3.31001 0,1.82806 -1.48195,3.31001 -3.31001,3.31001 -1.82806,0 -3.31001,-1.48195 -3.31001,-3.31001 0,-1.82806 1.48194,-3.31001 3.31001,-3.31001z"/>
   <g>
    <path id="_430155336" class="fil1" d="M0.848079 1.34933l-0.00881102 -0.0167598c0.00751969,-0.00929134 0.0149488,-0.0186575 0.0225669,-0.0278661l-0.0137559 0.044626z"/>
    <path id="_430155408" class="fil2" d="M0.103453 3.42369l0.0734646 0.129012 -0.0561299 0.202335c-0.0111772,-0.108965 -0.0169921,-0.219512 -0.0173346,-0.331346z"/>
    <path id="_430155384" class="fil3" d="M0.176917 3.5527l-0.0734646 -0.129012c-1.1811e-005,-0.00346063 -0.000129921,-0.0068937 -0.000129921,-0.0103543 0,-0.0520394 0.00135433,-0.103764 0.00373228,-0.155217l0.0698622 0.294583z"/>
    <path id="_430155264" class="fil4" d="M1.18754 5.86326l0.776169 -0.143953 -0.0895512 0.624886c-0.249307,-0.131201 -0.479957,-0.293071 -0.686618,-0.480933z"/>
    <path id="_430155816" class="fil5" d="M0.877634 5.54064l0.569551 -2.23282 0.516528 2.41149 -0.776169 0.143953c-0.110425,-0.100394 -0.213882,-0.20828 -0.309909,-0.322618z"/>
    <path id="_430155288" class="fil6" d="M1.44719 3.30781l-1.24757 -0.689268c0.019374,-0.0785906 0.0415472,-0.156071 0.0664213,-0.232339l1.25348 -0.277941 -0.0723386 1.19955z"/>
    <path id="_430155912" class="fil7" d="M0.839268 1.33257l0.00881102 0.0167598 -0.0252992 0.0037126c0.00546063,-0.00685827 0.0109764,-0.0136614 0.0164882,-0.0204724z"/>
    <path id="_430155072" class="fil8" d="M0.82278 1.35304l0.0252992 -0.0037126 -0.184791 0.221449c0.0502323,-0.074811 0.103488,-0.147413 0.159492,-0.217736z"/>
    <path id="_430155168" class="fil9" d="M0.663287 1.57078l0.184791 -0.221449 0.671445 0.758937 -1.25348 0.277941c0.0951614,-0.291689 0.229555,-0.565642 0.397248,-0.815429z"/>
    <path id="_430154664" class="fil2" d="M0.176917 3.5527l0 0 -0.0698622 -0.294583c0.0101339,-0.219465 0.0417244,-0.433295 0.092563,-0.639567l1.24757 0.689268 -1.27027 0.244882z"/>
    <path id="_430154496" class="fil10" d="M0.206886 4.23791l1.2403 -0.930098 -0.569551 2.23282c-0.31335,-0.373118 -0.546012,-0.816256 -0.670748,-1.30272z"/>
    <path id="_430154904" class="fil11" d="M0.120787 3.75503l0.0561299 -0.202335 1.27027 -0.244882 -1.2403 0.930098c-0.0401969,-0.156776 -0.0691929,-0.318035 -0.0860984,-0.482882z"/>
    <polygon id="_430154952" class="fil12" points="2.78979,4.64205 1.44719,3.30781 2.33528,3.05075 "/>
    <polygon id="_430154712" class="fil13" points="2.33528,3.05075 1.51952,2.10827 2.08768,1.12898 "/>
    <polygon id="_430154736" class="fil14" points="1.44719,3.30781 1.51952,2.10827 2.33528,3.05075 "/>
    <path id="_430154568" class="fil15" d="M4.66959 2.62236l-0.660965 -1.18732 1.14093 -0.840106c0.0476299,0.0294055 0.094437,0.06 0.140425,0.0917126l-0.620386 1.93572z"/>
    <path id="_430154808" class="fil16" d="M0.848079 1.34933l0.0137559 -0.044626c0.16637,-0.201083 0.356071,-0.38213 0.564921,-0.539087l0.660921 0.363366 -1.2396 0.220346z"/>
    <polygon id="_430153944" class="fil17" points="1.51952,2.10827 1.51952,2.10827 0.848079,1.34933 2.08768,1.12898 "/>
    <path id="_430154328" class="fil7" d="M2.08768 1.12898l-0.660921 -0.363366c0.201039,-0.151079 0.419906,-0.279642 0.652768,-0.382315l0.00815354 0.745681z"/>
    <polygon id="_430154280" class="fil18" points="1.96371,5.7193 1.96371,5.7193 1.44719,3.30781 2.78979,4.64205 "/>
    <polygon id="_430153992" class="fil19" points="4.34949,4.32378 3.48191,3.73625 4.66959,2.62236 "/>
    <path id="_430154232" class="fil20" d="M1.87416 6.34419l0.0895512 -0.624886 0.602126 0.894343c-0.242579,-0.064126 -0.47426,-0.155039 -0.691677,-0.269457z"/>
    <polygon id="_430153896" class="fil21" points="3.48191,3.73625 4.00863,1.43504 4.66959,2.62236 "/>
    <path id="_430154088" class="fil22" d="M2.08768 1.12898l0 0 -0.00815354 -0.745681c0.115528,-0.0509291 0.234453,-0.0955512 0.356441,-0.133228l1.08721 0.230091 -1.4355 0.648819z"/>
    <polygon id="_430154424" class="fil5" points="2.78979,4.64205 2.78979,4.64205 2.33528,3.05075 3.48191,3.73625 "/>
    <polygon id="_430154208" class="fil23" points="3.62646,6.6617 1.96371,5.7193 2.78979,4.64205 "/>
    <path id="_430154016" class="fil24" d="M2.56584 6.61365l-0.602126 -0.894343 1.66275 0.942402 -0.117366 0.0601575c-0.0318189,0.000901575 -0.0637244,0.00147638 -0.0957638,0.00147638 -0.292969,0 -0.576976,-0.0382441 -0.847492,-0.109693z"/>
    <polygon id="_430154136" class="fil14" points="3.48191,3.73625 3.48191,3.73625 2.33528,3.05075 4.00863,1.43504 "/>
    <polygon id="_430153104" class="fil3" points="2.33528,3.05075 2.33528,3.05075 2.08768,1.12898 4.00863,1.43504 "/>
    <polygon id="_430153704" class="fil25" points="4.00863,1.43504 2.08768,1.12898 3.52317,0.480165 "/>
    <path id="_430153176" class="fil26" d="M3.50909 6.72186l0.117366 -0.0601575 0.0260157 0.0529646c-0.0475315,0.0033937 -0.0953189,0.00582677 -0.143382,0.00719291z"/>
    <polygon id="_430153344" class="fil27" points="3.62646,6.6617 3.62646,6.6617 2.78979,4.64205 4.25652,6.29448 "/>
    <polygon id="_430153320" class="fil23" points="4.25652,6.29448 4.25652,6.29448 2.78979,4.64205 4.34949,4.32378 "/>
    <path id="_430153680" class="fil28" d="M3.65248 6.71467l-0.0260157 -0.0529646 0.630055 -0.36722 -0.0383543 0.33011c-0.183016,0.0457205 -0.372028,0.0762441 -0.565685,0.0900748z"/>
    <polygon id="_430153608" class="fil18" points="2.78979,4.64205 3.48191,3.73625 4.34949,4.32378 "/>
    <path id="_430153368" class="fil29" d="M4.00863 1.43504l0 0 -0.485457 -0.95487 1.35457 -0.0358346c0.0931654,0.0460394 0.183858,0.0962992 0.271811,0.150598l-1.14093 0.840106z"/>
    <polygon id="_430153200" class="fil24" points="4.25652,6.29448 4.34949,4.32378 5.32024,4.96033 "/>
    <path id="_430153416" class="fil1" d="M3.52317 0.480165l0 0 -1.08721 -0.230091c0.0436024,-0.0134567 0.087626,-0.0259409 0.131976,-0.037626l2.17698 0.16989c0.0448031,0.0197126 0.0890827,0.0403819 0.132819,0.0619921l-1.35457 0.0358346z"/>
    <path id="_430152456" class="fil30" d="M5.77469 5.73252l-0.454449 -0.772193 0.671323 -0.734362 0.0965276 1.13717c-0.0954646,0.130713 -0.200232,0.254173 -0.313402,0.36939z"/>
    <polygon id="_430152408" class="fil31" points="5.32024,4.96033 5.32024,4.96033 4.34949,4.32378 5.99156,4.22597 "/>
    <path id="_430152840" class="fil32" d="M5.99156 4.22597l-1.32197 -1.60361 1.41275 -1.16671c0.0535551,0.0728937 0.104217,0.148028 0.15178,0.225291l-0.242563 2.54503z"/>
    <path id="_430152552" class="fil17" d="M4.66959 2.62236l0.620386 -1.93572c0.305114,0.210398 0.573114,0.470654 0.792366,0.769008l-1.41275 1.16671z"/>
    <path id="_430152336" class="fil26" d="M4.96145 6.33947l-0.704937 -0.0449843 1.06372 -1.33415 0.454449 0.772193c-0.237339,0.241587 -0.511406,0.446921 -0.813236,0.606945z"/>
    <polygon id="_430152528" class="fil10" points="4.34949,4.32378 4.66959,2.62236 5.99156,4.22597 "/>
    <path id="_430152504" class="fil33" d="M4.21816 6.62459l0.0383543 -0.33011 0.704937 0.0449843c-0.232697,0.123354 -0.481811,0.219799 -0.743291,0.285126z"/>
    <path id="_430152216" class="fil34" d="M3.91747 0.141472l-1.12347 0.0199528c0.200654,-0.0379882 0.407634,-0.0581024 0.619335,-0.0581024 0.171402,0 0.339756,0.0130276 0.504138,0.0381496z"/>
    <path id="_430152720" class="fil1" d="M4.74493 0.382339l-2.17698 -0.16989c0.0743543,-0.0195866 0.149756,-0.0365591 0.226055,-0.0510236l1.12347 -0.0199528c0.289917,0.0443701 0.567406,0.126453 0.827457,0.240866z"/>
    <path id="_430152384" class="fil35" d="M5.99156 4.22597l0.242563 -2.54503c0.303346,0.492878 0.481012,1.07126 0.488685,1.69063l-0.731248 0.854394z"/>
    <path id="_430152912" class="fil36" d="M5.99156 4.22597l0.731248 -0.854394c0.000173228,0.0139213 0.000527559,0.0277953 0.000527559,0.0417559 0,0.224094 -0.0223976,0.442941 -0.0648465,0.654539l-0.666929 0.158098z"/>
    <path id="_430151544" class="fil20" d="M6.08809 5.36313l-0.0965276 -1.13717 0.488354 0.434894c-0.102224,0.250913 -0.234252,0.48648 -0.391827,0.702272z"/>
    <path id="_430151472" class="fil19" d="M6.47992 4.66086l-0.488354 -0.434894 0.666929 -0.158098c-0.0412126,0.205154 -0.101382,0.403433 -0.178575,0.592992z"/>
   </g>
   <path id="_430151736" class="fil37" d="M3.41333 0c0.942551,0 1.79589,0.382055 2.41358,0.999752 0.617697,0.617693 0.999752,1.47103 0.999752,2.41358 0,0.942551 -0.382055,1.79589 -0.999752,2.41358 -0.617693,0.617697 -1.47103,0.999752 -2.41358,0.999752 -0.942551,0 -1.79589,-0.382055 -2.41358,-0.999752 -0.617697,-0.617693 -0.999752,-1.47103 -0.999752,-2.41358 0,-0.942551 0.382055,-1.79589 0.999752,-2.41358 0.617693,-0.617697 1.47103,-0.999752 2.41358,-0.999752zm2.26731 1.14602c-0.580248,-0.580248 -1.38187,-0.939146 -2.26731,-0.939146 -0.885445,0 -1.68707,0.358898 -2.26731,0.939146 -0.580248,0.580248 -0.939146,1.38187 -0.939146,2.26731 0,0.885445 0.358898,1.68707 0.939146,2.26731 0.580248,0.580248 1.38187,0.939146 2.26731,0.939146 0.885445,0 1.68707,-0.358898 2.26731,-0.939146 0.580248,-0.580248 0.939146,-1.38187 0.939146,-2.26731 0,-0.885445 -0.358898,-1.68707 -0.939146,-2.26731z"/>
  </g>
  <g id="_430151040">
   <path id="_430151952" class="fil37" d="M2.56818 2.90174c-0.0227953,-0.0491457 -0.0403268,-0.0993268 -0.0524843,-0.149154 -0.0245354,-0.100575 -0.0273071,-0.200614 -0.00762598,-0.289205 0.0215827,-0.0971457 0.0698386,-0.180768 0.145728,-0.238134 0.00446457,-0.00394882 0.0094252,-0.0074685 0.0148661,-0.0104606 0.0395748,-0.0217441 0.0892835,-0.00729134 0.111028,0.0322795l-0.0716535 0.039374 0.0715394 -0.0392835c0.00924016,0.016815 0.0737087,0.057437 0.140268,0.0993701 0.0625,0.039374 0.126362,0.0796142 0.171287,0.122791 0.0536102,-0.0641102 0.0970669,-0.201437 0.124402,-0.356185 0.0373189,-0.211268 0.0385394,-0.447035 -0.00733858,-0.585772l-0.000740157 -0.00227559c-0.00261024,-0.00664567 -0.00439764,-0.013748 -0.00520079,-0.021189 -0.00483858,-0.0448898 0.0276339,-0.0852126 0.0725236,-0.0900472l0.00876378 0.0812835 -0.00862598 -0.0811181c0.0177402,-0.00190945 0.0363543,0.000181102 0.0555709,0.006 0.0753465,0.0228465 0.184772,0.128701 0.275795,0.274787 0.0865118,0.13885 0.16248,0.318858 0.18215,0.50111 0.00303937,0.0281693 0.00473228,0.0564331 0.00491732,0.0846575 0.00858268,-0.00575984 0.0170472,-0.0113976 0.025378,-0.0169449 0.146965,-0.0978583 0.241843,-0.161106 0.128713,-0.490555 -0.00322441,-0.00741339 -0.00540157,-0.015437 -0.00631102,-0.0239016 -0.00483858,-0.0448898 0.0276299,-0.0852126 0.0725197,-0.0900472l0.00876378 0.0812835 -0.00862205 -0.0811181c0.0177441,-0.00191339 0.0363622,0.000177165 0.0555669,0.00600394 0.0753504,0.0228425 0.184772,0.128701 0.275795,0.274783 0.0865079,0.138846 0.16248,0.318862 0.18215,0.501106 0.0035,0.0324094 0.0052126,0.0649409 0.00490157,0.0973937 0.0939055,-0.0541142 0.207382,-0.100366 0.207642,-0.115661 -0.0124055,-0.0261929 -0.0104646,-0.0581811 0.00781102,-0.0832441 0.0266063,-0.0364843 0.077752,-0.0444921 0.114236,-0.0178858l-0.000220472 0.00030315c0.0180709,0.0131969 0.0352717,0.0335551 0.0500591,0.0596811 0.0389528,0.0688504 0.0764528,0.205213 0.0696417,0.367118 -0.00669291,0.159083 -0.0549567,0.346602 -0.184843,0.524752 -0.087248,0.119661 -0.210906,0.234622 -0.382917,0.332902 -0.0120866,0.00820079 -0.0264764,0.013252 -0.0420039,0.0139685l-0.0133268 -0.00531102c-0.0666693,-0.158083 -0.163815,-0.303378 -0.288051,-0.427618 -0.252591,-0.252587 -0.592173,-0.39328 -0.949449,-0.39328 -0.188035,0 -0.371161,0.0389921 -0.539299,0.11274l-0.0133031 -0.00529921z"/>
   <path id="_430151904" class="fil38" d="M3.12078 2.86073c0.352429,0 0.671508,0.142858 0.902476,0.373827 0.230969,0.230969 0.373827,0.550047 0.373827,0.902476 0,0.352429 -0.142858,0.671504 -0.373827,0.902472 -0.230969,0.230969 -0.550047,0.373827 -0.902476,0.373827 -0.352429,0 -0.671504,-0.142858 -0.902472,-0.373827 -0.230969,-0.230969 -0.373827,-0.550043 -0.373827,-0.902472 0,-0.352429 0.142858,-0.671508 0.373827,-0.902476 0.230969,-0.230969 0.550043,-0.373827 0.902472,-0.373827zm-0.20926 0.378862c-0.0405197,0.0108268 -0.0645866,0.0524528 -0.0537638,0.0929724 0.0108268,0.0405197 0.0524528,0.0645906 0.0929764,0.0537638 0.032248,-0.00864173 0.0641732,-0.0150472 0.0955512,-0.0191732 0.0309843,-0.00407874 0.0635157,-0.00613386 0.0973819,-0.00613386 0.205768,0 0.392063,0.0834055 0.526902,0.21824 0.134835,0.134839 0.218236,0.32113 0.218236,0.526902 0,0.0419961 0.0340472,0.0760433 0.0760472,0.0760433 0.0419961,0 0.0760394,-0.0340472 0.0760394,-0.0760433 0,-0.247752 -0.100425,-0.472063 -0.262795,-0.634429 -0.16237,-0.16237 -0.386681,-0.262799 -0.634429,-0.262799 -0.0379016,0 -0.0769803,0.00265354 -0.116988,0.00791732 -0.0396181,0.00521654 -0.0780906,0.012811 -0.115157,0.0227402zm0.20926 0.645772c0.0694882,0 0.132406,0.0281732 0.177957,0.0737126 0.0455433,0.0455512 0.0737126,0.108472 0.0737126,0.177957 0,0.0694882 -0.0281693,0.132406 -0.0737126,0.177953 -0.0455512,0.0455433 -0.108469,0.0737165 -0.177957,0.0737165 -0.0694882,0 -0.132406,-0.0281732 -0.177953,-0.0737165 -0.0455433,-0.0455472 -0.0737126,-0.108465 -0.0737126,-0.177953 0,-0.0694843 0.0281693,-0.132406 0.0737126,-0.177957 0.0455472,-0.0455394 0.108465,-0.0737126 0.177953,-0.0737126z"/>
  </g>
 </g>
</svg>
