<?xml version="1.0" encoding="UTF-8"?>
<!DOCTYPE svg PUBLIC "-//W3C//DTD SVG 1.1//EN" "http://www.w3.org/Graphics/SVG/1.1/DTD/svg11.dtd">
<!-- Creator: CorelDRAW -->
<svg xmlns="http://www.w3.org/2000/svg" xml:space="preserve" width="6.82666in" height="6.82666in" style="shape-rendering:geometricPrecision; text-rendering:geometricPrecision; image-rendering:optimizeQuality; fill-rule:evenodd; clip-rule:evenodd"
viewBox="0 0 6.82666 6.82666"
 xmlns:xlink="http://www.w3.org/1999/xlink">
 <defs>
  <style type="text/css">
   <![CDATA[
    .fil34 {fill:#544A59}
    .fil30 {fill:#A37BB8}
    .fil1 {fill:#A882BD}
    .fil7 {fill:#AB86BE}
    .fil16 {fill:#AE8CC1}
    .fil0 {fill:#B392C5}
    .fil8 {fill:#B494C5}
    .fil17 {fill:#B799C8}
    .fil15 {fill:#B99BCA}
    .fil9 {fill:#BA9CCA}
    .fil3 {fill:#BEA3CD}
    .fil13 {fill:#C1A6CF}
    .fil31 {fill:#C2A8D0}
    .fil6 {fill:#C4A9D1}
    .fil2 {fill:#C4ABD2}
    .fil32 {fill:#C6ADD4}
    .fil21 {fill:#C6AED4}
    .fil14 {fill:#C9B3D6}
    .fil11 {fill:#CBB4D7}
    .fil10 {fill:#CEBADA}
    .fil19 {fill:#D0BCDB}
    .fil12 {fill:#D1BDDC}
    .fil5 {fill:#D2BEDC}
    .fil18 {fill:#D4C1DD}
    .fil28 {fill:#D5C4DF}
    .fil4 {fill:#D6C5DF}
    .fil20 {fill:#D8C7E1}
    .fil22 {fill:#D9C9E2}
    .fil27 {fill:#DACAE3}
    .fil23 {fill:#DBCBE4}
    .fil25 {fill:#DCCDE4}
    .fil24 {fill:#E0D3E7}
    .fil26 {fill:#E2D5E9}
    .fil29 {fill:#E5DBEC}
    .fil33 {fill:#544A59;fill-rule:nonzero}
   ]]>
  </style>
 </defs>
 <g id="Layer_x0020_1">
  <metadata id="CorelCorpID_0Corel-Layer"/>
  <g id="_429422336">
   <path id="_429426152" class="fil0" d="M3.41333 0.103323c1.82806,0 3.31001,1.48194 3.31001,3.31001 0,1.82806 -1.48195,3.31001 -3.31001,3.31001 -1.82806,0 -3.31001,-1.48195 -3.31001,-3.31001 0,-1.82806 1.48194,-3.31001 3.31001,-3.31001z"/>
   <g>
    <path id="_429425840" class="fil1" d="M0.848209 1.34939l-0.00888189 -0.0168976c0.0075748,-0.00935827 0.0150591,-0.0187835 0.0227323,-0.0280551l-0.0138504 0.0449528z"/>
    <path id="_429426368" class="fil2" d="M0.103453 3.42352l0.0735669 0.129205 -0.0561969 0.202602c-0.0111969,-0.109118 -0.0170315,-0.219815 -0.0173701,-0.331807z"/>
    <path id="_429426008" class="fil3" d="M0.17702 3.55273l-0.0735669 -0.129205c-1.1811e-005,-0.00340551 -0.000129921,-0.00678346 -0.000129921,-0.0101929 0,-0.0521693 0.0013622,-0.10402 0.00374803,-0.155598l0.0699488 0.294996z"/>
    <path id="_429426320" class="fil4" d="M1.18754 5.86326l0.776205 -0.144028 -0.0895472 0.624984c-0.249323,-0.131201 -0.479984,-0.293083 -0.686657,-0.480957z"/>
    <path id="_429425216" class="fil5" d="M0.877756 5.54078l0.569512 -2.23293 0.51648 2.41138 -0.776205 0.144028c-0.110374,-0.10035 -0.213795,-0.208189 -0.309787,-0.322472z"/>
    <path id="_429425072" class="fil6" d="M1.44727 3.30785l-1.24765 -0.689331c0.0193661,-0.0785591 0.0415315,-0.156004 0.0663937,-0.232244l1.25359 -0.278039 -0.0723386 1.19961z"/>
    <path id="_429425480" class="fil7" d="M0.839327 1.3325l0.00888189 0.0168976 -0.0255039 0.00374016c0.00550394,-0.00690945 0.0110669,-0.0137717 0.016622,-0.0206378z"/>
    <path id="_429425744" class="fil8" d="M0.822705 1.35313l0.0255039 -0.00374016 -0.185602 0.222425c0.0504134,-0.0751457 0.103866,-0.148067 0.160098,-0.218685z"/>
    <path id="_429425336" class="fil9" d="M0.662606 1.57182l0.185602 -0.222425 0.671398 0.758843 -1.25359 0.278039c0.0950315,-0.291311 0.229209,-0.564929 0.396591,-0.814457z"/>
    <path id="_429425120" class="fil2" d="M0.17702 3.55273l0 0 -0.0699488 -0.294996c0.0101535,-0.219339 0.0417362,-0.433051 0.0925512,-0.639213l1.24765 0.689331 -1.27025 0.244878z"/>
    <path id="_429425528" class="fil10" d="M0.206906 4.23799l1.24036 -0.930138 -0.569512 2.23293c-0.313394,-0.37313 -0.546094,-0.816291 -0.67085,-1.3028z"/>
    <path id="_429425456" class="fil11" d="M0.120823 3.75533l0.0561969 -0.202602 1.27025 -0.244878 -1.24036 0.930138c-0.0401811,-0.156705 -0.0691693,-0.31789 -0.0860827,-0.482657z"/>
    <polygon id="_429425720" class="fil12" points="2.78989,4.64199 1.44727,3.30785 2.33539,3.05079 "/>
    <polygon id="_429425576" class="fil13" points="2.33539,3.05079 1.51961,2.10824 2.08771,1.12905 "/>
    <polygon id="_429425096" class="fil14" points="1.44727,3.30785 1.51961,2.10824 2.33539,3.05079 "/>
    <path id="_429425024" class="fil15" d="M4.66968 2.62236l-0.660996 -1.18727 1.14087 -0.840169c0.0476378,0.0294094 0.0944528,0.0600157 0.140449,0.0917323l-0.620323 1.9357z"/>
    <path id="_429424952" class="fil16" d="M0.848209 1.34939l0.0138504 -0.0449528c0.166303,-0.200961 0.355913,-0.381909 0.56465,-0.538787l0.661004 0.363394 -1.2395 0.220346z"/>
    <polygon id="_429424856" class="fil17" points="1.51961,2.10824 1.51961,2.10824 0.848209,1.34939 2.08771,1.12905 "/>
    <path id="_429424832" class="fil7" d="M2.08771 1.12905l-0.661004 -0.363394c0.201051,-0.151094 0.419937,-0.279669 0.652819,-0.38235l0.00818504 0.745744z"/>
    <polygon id="_429424688" class="fil18" points="1.96375,5.71923 1.96375,5.71923 1.44727,3.30785 2.78989,4.64199 "/>
    <polygon id="_429424928" class="fil19" points="4.34954,4.32376 3.48196,3.73628 4.66968,2.62236 "/>
    <path id="_429424472" class="fil20" d="M1.8742 6.34421l0.0895472 -0.624984 0.60222 0.894453c-0.242614,-0.064126 -0.474323,-0.155039 -0.691768,-0.269469z"/>
    <polygon id="_429424592" class="fil21" points="3.48196,3.73628 4.00868,1.43509 4.66968,2.62236 "/>
    <path id="_429424568" class="fil7" d="M2.08771 1.12905l0 0 -0.00818504 -0.745744c0.115445,-0.0508937 0.23428,-0.0954921 0.356181,-0.133154l1.08752 0.230087 -1.43552 0.648811z"/>
    <polygon id="_429424736" class="fil5" points="2.78989,4.64199 2.78989,4.64199 2.33539,3.05079 3.48196,3.73628 "/>
    <polygon id="_429423776" class="fil22" points="3.62652,6.66162 1.96375,5.71923 2.78989,4.64199 "/>
    <path id="_429423920" class="fil23" d="M2.56597 6.61368l-0.60222 -0.894453 1.66277 0.94239 -0.117512 0.060248c-0.0317913,0.000905512 -0.0636693,0.00147244 -0.0956772,0.00147244 -0.292925,0 -0.576886,-0.0382283 -0.847362,-0.109657z"/>
    <polygon id="_429423704" class="fil14" points="3.48196,3.73628 3.48196,3.73628 2.33539,3.05079 4.00868,1.43509 "/>
    <polygon id="_429423896" class="fil3" points="2.33539,3.05079 2.33539,3.05079 2.08771,1.12905 4.00868,1.43509 "/>
    <polygon id="_429423968" class="fil0" points="4.00868,1.43509 2.08771,1.12905 3.52323,0.480236 "/>
    <path id="_429423680" class="fil24" d="M3.50901 6.72187l0.117512 -0.060248 0.0260551 0.0530433c-0.0475906,0.00339764 -0.0954409,0.00583858 -0.143567,0.00720472z"/>
    <polygon id="_429423632" class="fil25" points="3.62652,6.66162 3.62652,6.66162 2.78989,4.64199 4.25661,6.29452 "/>
    <polygon id="_429424232" class="fil22" points="4.25661,6.29452 4.25661,6.29452 2.78989,4.64199 4.34954,4.32376 "/>
    <path id="_429423536" class="fil26" d="M3.65257 6.71466l-0.0260551 -0.0530433 0.630087 -0.367094 -0.0383504 0.330047c-0.183016,0.0457244 -0.372024,0.0762559 -0.565681,0.0900906z"/>
    <polygon id="_429424184" class="fil18" points="2.78989,4.64199 3.48196,3.73628 4.34954,4.32376 "/>
    <path id="_429424064" class="fil16" d="M4.00868 1.43509l0 0 -0.485449 -0.954858 1.35448 -0.0359213c0.0931772,0.0460433 0.183878,0.096311 0.271843,0.15061l-1.14087 0.840169z"/>
    <polygon id="_429422984" class="fil23" points="4.25661,6.29452 4.34954,4.32376 5.32036,4.96022 "/>
    <path id="_429423248" class="fil1" d="M3.52323 0.480236l0 0 -1.08752 -0.230087c0.0435709,-0.0134488 0.0875669,-0.0259252 0.131882,-0.0376063l2.1773 0.169776c0.0448071,0.0197126 0.0890827,0.0403819 0.132823,0.0619961l-1.35448 0.0359213z"/>
    <path id="_429422768" class="fil27" d="M5.77474 5.73247l-0.454386 -0.772244 0.671232 -0.734311 0.0965079 1.13721c-0.0954488,0.130697 -0.200201,0.254146 -0.313354,0.369346z"/>
    <polygon id="_429423464" class="fil28" points="5.32036,4.96022 5.32036,4.96022 4.34954,4.32376 5.99159,4.22591 "/>
    <path id="_429423416" class="fil2" d="M5.99159 4.22591l-1.32191 -1.60355 1.41272 -1.16664c0.0535591,0.0728976 0.104224,0.148043 0.151787,0.225315l-0.242594 2.54488z"/>
    <path id="_429423176" class="fil17" d="M4.66968 2.62236l0.620323 -1.9357c0.305126,0.210409 0.573138,0.470685 0.792398,0.769063l-1.41272 1.16664z"/>
    <path id="_429423152" class="fil24" d="M4.96144 6.33947l-0.704839 -0.0449488 1.06375 -1.3343 0.454386 0.772244c-0.237354,0.241614 -0.511441,0.446969 -0.813299,0.607004z"/>
    <polygon id="_429423272" class="fil10" points="4.34954,4.32376 4.66968,2.62236 5.99159,4.22591 "/>
    <path id="_429423488" class="fil29" d="M4.21826 6.62457l0.0383504 -0.330047 0.704839 0.0449488c-0.232661,0.123339 -0.481748,0.219772 -0.743189,0.285098z"/>
    <path id="_429423008" class="fil30" d="M3.91797 0.141555l-1.12472 0.0200118c0.20089,-0.0380748 0.408114,-0.0582441 0.620079,-0.0582441 0.171575,0 0.340098,0.013063 0.504638,0.0382323z"/>
    <path id="_429422048" class="fil1" d="M4.74489 0.382319l-2.1773 -0.169776c0.0742283,-0.019563 0.1495,-0.0365197 0.225661,-0.0509764l1.12472 -0.0200118c0.28972,0.0443858 0.567028,0.126425 0.826917,0.240764z"/>
    <path id="_429422696" class="fil31" d="M5.99159 4.22591l0.242594 -2.54488c0.303311,0.492858 0.480957,1.07121 0.488626,1.69056l-0.73122 0.854323z"/>
    <path id="_429422600" class="fil32" d="M5.99159 4.22591l0.73122 -0.854323c0.000173228,0.0139134 0.000527559,0.0277835 0.000527559,0.0417402 0,0.224079 -0.0223976,0.442909 -0.0648386,0.654492l-0.666909 0.158091z"/>
    <path id="_429422024" class="fil20" d="M6.0881 5.36312l-0.0965079 -1.13721 0.48835 0.434898c-0.102228,0.250925 -0.234264,0.486508 -0.391843,0.702311z"/>
    <path id="_429422192" class="fil19" d="M6.47994 4.66081l-0.48835 -0.434898 0.666909 -0.158091c-0.0412126,0.20515 -0.10137,0.403433 -0.178559,0.592988z"/>
   </g>
   <path id="_429422552" class="fil33" d="M3.41333 0c0.942551,0 1.79589,0.382055 2.41358,0.999752 0.617697,0.617693 0.999752,1.47103 0.999752,2.41358 0,0.942551 -0.382055,1.79589 -0.999752,2.41358 -0.617693,0.617697 -1.47103,0.999752 -2.41358,0.999752 -0.942551,0 -1.79589,-0.382055 -2.41358,-0.999752 -0.617697,-0.617693 -0.999752,-1.47103 -0.999752,-2.41358 0,-0.942551 0.382055,-1.79589 0.999752,-2.41358 0.617693,-0.617697 1.47103,-0.999752 2.41358,-0.999752zm2.26731 1.14602c-0.580248,-0.580248 -1.38187,-0.939146 -2.26731,-0.939146 -0.885445,0 -1.68707,0.358898 -2.26731,0.939146 -0.580248,0.580248 -0.939146,1.38187 -0.939146,2.26731 0,0.885445 0.358898,1.68707 0.939146,2.26731 0.580248,0.580248 1.38187,0.939146 2.26731,0.939146 0.885445,0 1.68707,-0.358898 2.26731,-0.939146 0.580248,-0.580248 0.939146,-1.38187 0.939146,-2.26731 0,-0.885445 -0.358898,-1.68707 -0.939146,-2.26731z"/>
  </g>
  <g id="_429420200">
   <path id="_429422072" class="fil34" d="M1.61874 2.95475l3.58917 0c0.0587717,0 0.111476,0.0269961 0.149043,0.0704961 0.0347795,0.0402717 0.0563701,0.0949134 0.0563701,0.154193l0 1.86591c0,0.0592835 -0.0215906,0.113921 -0.0563701,0.154193 -0.0375669,0.0435 -0.0902717,0.0705 -0.149043,0.0705l-3.58917 0c-0.0587756,0 -0.11148,-0.027 -0.149043,-0.0705 -0.0347835,-0.0402717 -0.0563701,-0.0949094 -0.0563701,-0.154193l0 -1.86591c0,-0.0592795 0.0215906,-0.113929 0.0563701,-0.154193 0.0375551,-0.0435 0.0902677,-0.0704961 0.149043,-0.0704961zm0.0446654 0.15287l3.49984 0c0.0716181,0 0.130209,0.0585906 0.130209,0.130205l0 0.239587c0,0.0716142 -0.0585945,0.130205 -0.130209,0.130205l-3.49984 0c-0.0716142,0 -0.130209,-0.0585906 -0.130209,-0.130205l0 -0.239587c0,-0.0716142 0.0585906,-0.130205 0.130209,-0.130205zm0.126248 1.51586l2.53928 0 0 0.166669 -2.53928 0 0 -0.166669zm2.96839 -0.188913c0.0751693,0 0.143232,0.0304764 0.192504,0.0797441 0.0492677,0.0492717 0.0797441,0.117335 0.0797441,0.192504 0,0.0751693 -0.0304764,0.143232 -0.0797441,0.192504 -0.0492717,0.0492717 -0.117335,0.079748 -0.192504,0.079748 -0.0751693,0 -0.143236,-0.0304764 -0.192508,-0.079748 -0.0492677,-0.0492717 -0.0797441,-0.117335 -0.0797441,-0.192504 0,-0.0751693 0.0304764,-0.143232 0.0797441,-0.192504 0.0492717,-0.0492677 0.117339,-0.0797441 0.192508,-0.0797441zm-3.26138 -0.269087l3.83333 0 0 0.0891732 -3.83333 0 0 -0.0891732z"/>
   <path id="_429421760" class="fil33" d="M5.18631 3.07967c0.0404646,0.0216378 0.0908189,0.00637402 0.112457,-0.0340906 0.0216417,-0.0404646 0.00637795,-0.0908189 -0.0340866,-0.112461l-2.53822 -1.36665c-0.0404646,-0.0216417 -0.0908189,-0.00637795 -0.112461,0.0340866 -0.0216378,0.0404646 -0.00637795,0.0908189 0.0340866,0.112461l2.53822 1.36666z"/>
   <g>
    <g>
     <polygon id="_429421472" class="fil33" points="1.91562,3.12422 1.91562,3.4807 1.83905,3.4807 1.83905,3.12422 "/>
     <polygon id="_429421424" class="fil33" points="2.63351,3.12422 2.63351,3.4807 2.55694,3.4807 2.55694,3.12422 "/>
     <polygon id="_429421400" class="fil33" points="1.7399,3.12422 1.7399,3.36188 1.66333,3.36188 1.66333,3.12422 "/>
     <polygon id="_429421640" class="fil33" points="2.0951,3.12422 2.0951,3.36188 2.01853,3.36188 2.01853,3.12422 "/>
     <polygon id="_429421376" class="fil33" points="2.27456,3.12422 2.27456,3.36188 2.19799,3.36188 2.19799,3.12422 "/>
     <polygon id="_429421280" class="fil33" points="2.45403,3.12422 2.45403,3.36188 2.37746,3.36188 2.37746,3.12422 "/>
     <polygon id="_429421568" class="fil33" points="2.77287,3.12422 2.77287,3.36188 2.6963,3.36188 2.6963,3.12422 "/>
    </g>
    <g>
     <polygon id="_429421880" class="fil33" points="3.11085,3.12422 3.11085,3.4807 3.03428,3.4807 3.03428,3.12422 "/>
     <polygon id="_429421208" class="fil33" points="3.82874,3.12422 3.82874,3.4807 3.75217,3.4807 3.75217,3.12422 "/>
     <polygon id="_429420608" class="fil33" points="2.93513,3.12422 2.93513,3.36188 2.85856,3.36188 2.85856,3.12422 "/>
     <polygon id="_429420944" class="fil33" points="3.29032,3.12422 3.29032,3.36188 3.21375,3.36188 3.21375,3.12422 "/>
     <polygon id="_429421184" class="fil33" points="3.46979,3.12422 3.46979,3.36188 3.39322,3.36188 3.39322,3.12422 "/>
     <polygon id="_429420632" class="fil33" points="3.64925,3.12422 3.64925,3.36188 3.57268,3.36188 3.57268,3.12422 "/>
     <polygon id="_429420464" class="fil33" points="3.9681,3.12422 3.9681,3.36188 3.89153,3.36188 3.89153,3.12422 "/>
    </g>
    <g>
     <polygon id="_429420680" class="fil33" points="4.30607,3.12422 4.30607,3.4807 4.2295,3.4807 4.2295,3.12422 "/>
     <polygon id="_429420896" class="fil33" points="5.02396,3.12422 5.02396,3.4807 4.94739,3.4807 4.94739,3.12422 "/>
     <polygon id="_429420728" class="fil33" points="4.13036,3.12422 4.13036,3.36188 4.05379,3.36188 4.05379,3.12422 "/>
     <polygon id="_429421040" class="fil33" points="4.48555,3.12422 4.48555,3.36188 4.40898,3.36188 4.40898,3.12422 "/>
     <polygon id="_429420992" class="fil33" points="4.66502,3.12422 4.66502,3.36188 4.58844,3.36188 4.58844,3.12422 "/>
     <polygon id="_429419720" class="fil33" points="4.84448,3.12422 4.84448,3.36188 4.76791,3.36188 4.76791,3.12422 "/>
     <polygon id="_429419792" class="fil33" points="5.16333,3.12422 5.16333,3.36188 5.08676,3.36188 5.08676,3.12422 "/>
    </g>
   </g>
  </g>
 </g>
</svg>
