<?xml version="1.0" encoding="UTF-8"?>
<!DOCTYPE svg PUBLIC "-//W3C//DTD SVG 1.1//EN" "http://www.w3.org/Graphics/SVG/1.1/DTD/svg11.dtd">
<!-- Creator: CorelDRAW -->
<svg xmlns="http://www.w3.org/2000/svg" xml:space="preserve" width="6.82666in" height="6.82666in" style="shape-rendering:geometricPrecision; text-rendering:geometricPrecision; image-rendering:optimizeQuality; fill-rule:evenodd; clip-rule:evenodd"
viewBox="0 0 6.82666 6.82666"
 xmlns:xlink="http://www.w3.org/1999/xlink">
 <defs>
  <style type="text/css">
   <![CDATA[
    .fil35 {fill:#5D7056}
    .fil31 {fill:#8ED16F}
    .fil1 {fill:#94D477}
    .fil7 {fill:#97D47C}
    .fil16 {fill:#9CD681}
    .fil24 {fill:#A1D988}
    .fil8 {fill:#A3D989}
    .fil17 {fill:#A7DB8F}
    .fil15 {fill:#A9DC92}
    .fil0 {fill:#AAD496}
    .fil9 {fill:#ABDC94}
    .fil3 {fill:#B0DE9B}
    .fil13 {fill:#B3E09E}
    .fil32 {fill:#B5E1A0}
    .fil6 {fill:#B5E1A1}
    .fil2 {fill:#B6E1A3}
    .fil33 {fill:#B8E3A6}
    .fil21 {fill:#BAE3A7}
    .fil14 {fill:#BDE4AC}
    .fil11 {fill:#BEE4AD}
    .fil10 {fill:#C4E6B4}
    .fil19 {fill:#C5E7B5}
    .fil12 {fill:#C5E8B6}
    .fil5 {fill:#C7E8B8}
    .fil18 {fill:#C9E9BB}
    .fil29 {fill:#CCEABE}
    .fil4 {fill:#CCEBBF}
    .fil20 {fill:#CFECC2}
    .fil22 {fill:#D0ECC4}
    .fil28 {fill:#D1ECC5}
    .fil23 {fill:#D2ECC5}
    .fil26 {fill:#D4EDC9}
    .fil25 {fill:#D9EFCE}
    .fil27 {fill:#DBF0D1}
    .fil30 {fill:#DFF3D7}
    .fil34 {fill:#5D7056;fill-rule:nonzero}
   ]]>
  </style>
 </defs>
 <g id="Layer_x0020_1">
  <metadata id="CorelCorpID_0Corel-Layer"/>
  <g id="_428037592">
   <path id="_425530584" class="fil0" d="M3.41333 0.103323c1.82806,0 3.31001,1.48194 3.31001,3.31001 0,1.82806 -1.48195,3.31001 -3.31001,3.31001 -1.82806,0 -3.31001,-1.48195 -3.31001,-3.31001 0,-1.82806 1.48194,-3.31001 3.31001,-3.31001z"/>
   <g>
    <path id="_425530008" class="fil1" d="M0.84815 1.34934l-0.00884252 -0.0168189c0.00753937,-0.00931496 0.0149882,-0.0187087 0.0226299,-0.0279409l-0.0137874 0.0447598z"/>
    <path id="_425530272" class="fil2" d="M0.103453 3.42366l0.0734567 0.129008 -0.056126 0.202343c-0.0111732,-0.108965 -0.0169882,-0.219512 -0.0173307,-0.33135z"/>
    <path id="_425530608" class="fil3" d="M0.176909 3.55267l-0.0734567 -0.129008c-1.1811e-005,-0.00345276 -0.000129921,-0.00687402 -0.000129921,-0.0103268 0,-0.0520512 0.00135433,-0.103776 0.00373228,-0.15524l0.0698543 0.294575z"/>
    <path id="_425530704" class="fil4" d="M1.18749 5.86321l0.776169 -0.14402 -0.0895354 0.62498c-0.249311,-0.131209 -0.479969,-0.293087 -0.686634,-0.480961z"/>
    <path id="_425530200" class="fil5" d="M0.877673 5.54068l0.5695 -2.23289 0.516488 2.41141 -0.776169 0.14402c-0.11039,-0.100366 -0.213819,-0.208224 -0.309819,-0.322531z"/>
    <path id="_425529864" class="fil6" d="M1.44717 3.30779l-1.24756 -0.689248c0.019374,-0.0785906 0.0415472,-0.156067 0.0664213,-0.232331l1.25347 -0.278012 -0.0723386 1.19959z"/>
    <path id="_425529672" class="fil7" d="M0.839307 1.33252l0.00884252 0.0168189 -0.0253898 0.00372441c0.00548031,-0.00687795 0.0110157,-0.0137087 0.0165472,-0.0205433z"/>
    <path id="_425529984" class="fil8" d="M0.82276 1.35307l0.0253898 -0.00372441 -0.185134 0.22185c0.0503071,-0.0749488 0.103646,-0.147681 0.159744,-0.218126z"/>
    <path id="_425529552" class="fil9" d="M0.663016 1.57119l0.185134 -0.22185 0.671362 0.758854 -1.25347 0.278012c0.0951063,-0.291531 0.229413,-0.565339 0.396976,-0.815016z"/>
    <path id="_425529624" class="fil2" d="M0.176909 3.55267l0 0 -0.0698543 -0.294575c0.0101339,-0.219457 0.0417205,-0.433287 0.092563,-0.639551l1.24756 0.689248 -1.27026 0.244878z"/>
    <path id="_425529768" class="fil10" d="M0.206878 4.23787l1.2403 -0.930087 -0.5695 2.23289c-0.313378,-0.373138 -0.546059,-0.816303 -0.670795,-1.30281z"/>
    <path id="_425529456" class="fil11" d="M0.120783 3.75501l0.056126 -0.202343 1.27026 -0.244878 -1.2403 0.930087c-0.0401969,-0.156768 -0.069189,-0.318028 -0.0860945,-0.482866z"/>
    <polygon id="_425529480" class="fil12" points="2.78981,4.64194 1.44717,3.30779 2.33531,3.05072 "/>
    <polygon id="_425529408" class="fil13" points="2.33531,3.05072 1.51951,2.1082 2.08763,1.12896 "/>
    <polygon id="_428049760" class="fil14" points="1.44717,3.30779 1.51951,2.1082 2.33531,3.05072 "/>
    <path id="_428037376" class="fil15" d="M4.66962 2.62229l-0.661004 -1.18728 1.14086 -0.840126c0.0476457,0.0294134 0.0944646,0.0600236 0.140469,0.0917402l-0.620323 1.93567z"/>
    <path id="_428047312" class="fil16" d="M0.84815 1.34934l0.0137874 -0.0447598c0.166339,-0.201031 0.356004,-0.382031 0.564807,-0.538957l0.660882 0.363331 -1.23948 0.220386z"/>
    <polygon id="_428042704" class="fil17" points="1.51951,2.1082 1.51951,2.1082 0.84815,1.34934 2.08763,1.12896 "/>
    <path id="_428040472" class="fil7" d="M2.08763 1.12896l-0.660882 -0.363331c0.201016,-0.151067 0.419858,-0.279622 0.652697,-0.382287l0.00818504 0.745618z"/>
    <polygon id="_428039800" class="fil18" points="1.96366,5.71919 1.96366,5.71919 1.44717,3.30779 2.78981,4.64194 "/>
    <polygon id="_428040352" class="fil19" points="4.34948,4.3237 3.48189,3.73626 4.66962,2.62229 "/>
    <path id="_428040184" class="fil20" d="M1.87413 6.34417l0.0895354 -0.62498 0.602197 0.894457c-0.242602,-0.0641299 -0.474299,-0.155047 -0.691732,-0.269476z"/>
    <polygon id="_428040256" class="fil21" points="3.48189,3.73626 4.00862,1.435 4.66962,2.62229 "/>
    <path id="_428040088" class="fil7" d="M2.08763 1.12896l0 0 -0.00818504 -0.745618c0.115524,-0.0509331 0.234445,-0.095563 0.356433,-0.13324l1.08729 0.230035 -1.43554 0.648823z"/>
    <polygon id="_428039752" class="fil5" points="2.78981,4.64194 2.78981,4.64194 2.33531,3.05072 3.48189,3.73626 "/>
    <polygon id="_428040376" class="fil22" points="3.62645,6.66159 1.96366,5.71919 2.78981,4.64194 "/>
    <path id="_428040448" class="fil23" d="M2.56586 6.61365l-0.602197 -0.894457 1.66279 0.942402 -0.117575 0.0602756c-0.031748,0.000901575 -0.0635827,0.0014685 -0.0955472,0.0014685 -0.292965,0 -0.576965,-0.0382402 -0.847472,-0.109689z"/>
    <polygon id="_428039872" class="fil14" points="3.48189,3.73626 3.48189,3.73626 2.33531,3.05072 4.00862,1.435 "/>
    <polygon id="_428040016" class="fil3" points="2.33531,3.05072 2.33531,3.05072 2.08763,1.12896 4.00862,1.435 "/>
    <polygon id="_428039320" class="fil24" points="4.00862,1.435 2.08763,1.12896 3.52316,0.480134 "/>
    <path id="_428039728" class="fil25" d="M3.50888 6.72187l0.117575 -0.0602756 0.0260669 0.0530709c-0.0476142,0.00339764 -0.0954921,0.00583858 -0.143642,0.00720472z"/>
    <polygon id="_428039200" class="fil26" points="3.62645,6.66159 3.62645,6.66159 2.78981,4.64194 4.25655,6.29437 "/>
    <polygon id="_428039272" class="fil22" points="4.25655,6.29437 4.25655,6.29437 2.78981,4.64194 4.34948,4.3237 "/>
    <path id="_428039104" class="fil27" d="M3.65252 6.71467l-0.0260669 -0.0530709 0.630094 -0.367224 -0.0383661 0.330217c-0.183008,0.0457205 -0.372012,0.076248 -0.565661,0.0900787z"/>
    <polygon id="_428038984" class="fil18" points="2.78981,4.64194 3.48189,3.73626 4.34948,4.3237 "/>
    <path id="_428039560" class="fil16" d="M4.00862 1.435l0 0 -0.485457 -0.95487 1.35441 -0.0358898c0.0931969,0.0460512 0.183917,0.0963228 0.271902,0.150634l-1.14086 0.840126z"/>
    <polygon id="_428039704" class="fil23" points="4.25655,6.29437 4.34948,4.3237 5.32031,4.96022 "/>
    <path id="_428039680" class="fil1" d="M3.52316 0.480134l0 0 -1.08729 -0.230035c0.0435984,-0.0134567 0.087622,-0.0259409 0.131972,-0.037626l2.17686 0.169772c0.0448189,0.0197165 0.0891142,0.0403819 0.132866,0.062l-1.35441 0.0358898z"/>
    <path id="_428039368" class="fil28" d="M5.77472 5.73249l-0.454413 -0.772272 0.67124 -0.734358 0.0965157 1.13731c-0.0954449,0.130685 -0.200193,0.254126 -0.313343,0.369323z"/>
    <polygon id="_428038888" class="fil29" points="5.32031,4.96022 5.32031,4.96022 4.34948,4.3237 5.99155,4.22586 "/>
    <path id="_428038744" class="fil2" d="M5.99155 4.22586l-1.32193 -1.60357 1.41272 -1.16665c0.053563,0.0729016 0.104232,0.148051 0.151799,0.225327l-0.242591 2.54489z"/>
    <path id="_428038720" class="fil17" d="M4.66962 2.62229l0.620323 -1.93567c0.305122,0.210398 0.573138,0.470661 0.792398,0.769024l-1.41272 1.16665z"/>
    <path id="_428038600" class="fil25" d="M4.96162 6.33938l-0.705071 -0.0450079 1.06376 -1.33415 0.454413 0.772272c-0.237303,0.241559 -0.511323,0.44687 -0.813106,0.60689z"/>
    <polygon id="_428038696" class="fil10" points="4.34948,4.3237 4.66962,2.62229 5.99155,4.22586 "/>
    <path id="_428038432" class="fil30" d="M4.21818 6.62459l0.0383661 -0.330217 0.705071 0.0450079c-0.232736,0.123394 -0.481902,0.219866 -0.743437,0.285209z"/>
    <path id="_428038456" class="fil31" d="M3.91741 0.141461l-1.12356 0.0199921c0.200701,-0.0380039 0.407724,-0.0581299 0.61948,-0.0581299 0.171378,0 0.339717,0.0130236 0.504075,0.0381378z"/>
    <path id="_428038288" class="fil1" d="M4.74471 0.382244l-2.17686 -0.169772c0.0743386,-0.0195827 0.149724,-0.0365591 0.226004,-0.0510197l1.12356 -0.0199921c0.289854,0.0443583 0.567295,0.126409 0.827303,0.240783z"/>
    <path id="_428038216" class="fil32" d="M5.99155 4.22586l0.242591 -2.54489c0.303323,0.492846 0.480976,1.07119 0.488665,1.69052l-0.731256 0.854366z"/>
    <path id="_428038528" class="fil33" d="M5.99155 4.22586l0.731256 -0.854366c0.000173228,0.0139488 0.000531496,0.0278504 0.000531496,0.0418386 0,0.224063 -0.0223937,0.442878 -0.0648268,0.654449l-0.666961 0.158079z"/>
    <path id="_428038096" class="fil20" d="M6.08807 5.36317l-0.0965157 -1.13731 0.488394 0.434945c-0.102236,0.250945 -0.234283,0.486547 -0.391878,0.702362z"/>
    <path id="_428037976" class="fil19" d="M6.47994 4.6608l-0.488394 -0.434945 0.666961 -0.158079c-0.0412087,0.205161 -0.10137,0.403457 -0.178567,0.593024z"/>
   </g>
   <path id="_428037520" class="fil34" d="M3.41333 0c0.942551,0 1.79589,0.382055 2.41358,0.999752 0.617697,0.617693 0.999752,1.47103 0.999752,2.41358 0,0.942551 -0.382055,1.79589 -0.999752,2.41358 -0.617693,0.617697 -1.47103,0.999752 -2.41358,0.999752 -0.942551,0 -1.79589,-0.382055 -2.41358,-0.999752 -0.617697,-0.617693 -0.999752,-1.47103 -0.999752,-2.41358 0,-0.942551 0.382055,-1.79589 0.999752,-2.41358 0.617693,-0.617697 1.47103,-0.999752 2.41358,-0.999752zm2.26731 1.14602c-0.580248,-0.580248 -1.38187,-0.939146 -2.26731,-0.939146 -0.885445,0 -1.68707,0.358898 -2.26731,0.939146 -0.580248,0.580248 -0.939146,1.38187 -0.939146,2.26731 0,0.885445 0.358898,1.68707 0.939146,2.26731 0.580248,0.580248 1.38187,0.939146 2.26731,0.939146 0.885445,0 1.68707,-0.358898 2.26731,-0.939146 0.580248,-0.580248 0.939146,-1.38187 0.939146,-2.26731 0,-0.885445 -0.358898,-1.68707 -0.939146,-2.26731z"/>
  </g>
  <g id="_428037760">
   <path id="_428037784" class="fil34" d="M2.37118 2.43148l2.3781 0c0.0474606,0 0.0905236,0.0199173 0.121657,0.052 0.0305945,0.0315236 0.0495866,0.0747047 0.0495866,0.121917l0 0.220756 -0.166669 0 0 -0.220756c0,-0.00260236 -0.000791339,-0.00472441 -0.00206299,-0.0060315 -0.000724409,-0.000748031 -0.00162598,-0.00121654 -0.00251181,-0.00121654l-2.3781 0 0 0.00135827 -0.166669 0 0 -0.256303c0,-0.013878 -0.00548819,-0.0263465 -0.0143189,-0.035248 -0.00874803,-0.00881496 -0.0208583,-0.0142874 -0.0342047,-0.0142874l-0.158244 0c-0.0133504,0 -0.0254567,0.00547244 -0.0342047,0.0142874 -0.00883071,0.00890157 -0.0143189,0.0213701 -0.0143189,0.035248l0 0.256303 -0.166669 0 0 -0.00135827 -0.197972 0c-0.000889764,0 -0.00179134,0.000468504 -0.00251575,0.00121654 -0.00126772,0.00130315 -0.00205906,0.0034252 -0.00205906,0.0060315l0 1.92036c0,0.00195669 0.000370079,0.0035315 0.00100394,0.00464567 0.00057874,0.00101181 0.00143701,0.00187402 0.0024685,0.0024685l-0.0833346 0.143882c-0.026311,-0.0152205 -0.0483583,-0.0375039 -0.0636654,-0.0643189 -0.0146969,-0.0257323 -0.0231417,-0.0553898 -0.0231417,-0.0866772l0 -1.92036c0,-0.0472165 0.0189921,-0.0903937 0.0495827,-0.121917 0.0311378,-0.0320827 0.0742008,-0.052 0.121661,-0.052l0.197972 0 0 -0.0882756c0,-0.0592047 0.024189,-0.113177 0.0631496,-0.152433 0.0390472,-0.0393504 0.0928701,-0.0637756 0.152043,-0.0637756l0.158244 0c0.0591693,0 0.112996,0.0244252 0.152043,0.0637756 0.0389606,0.0392598 0.0631496,0.0932283 0.0631496,0.152433l0 0.0882756z"/>
   <path id="_428037664" class="fil35" d="M2.09674 2.74281l3.1647 0c0.0164685,0 0.0322598,0.00227559 0.0470472,0.00650787 0.0304685,0.0087126 0.0559409,0.0257402 0.0743583,0.0486496 0.0195906,0.024374 0.0304843,0.054126 0.0304843,0.0866575 0,0.0134291 -0.00193701,0.0273307 -0.00598031,0.0414685l-0.468012 1.63586c-0.0114685,0.0401024 -0.0388228,0.0753189 -0.0736417,0.0997441 -0.0333858,0.0234252 -0.0748898,0.0379685 -0.116421,0.0379685l-3.1647 0c-0.0164724,0 -0.0322638,-0.00227559 -0.0470512,-0.00650394 -0.0304646,-0.00871654 -0.055937,-0.0257441 -0.0743543,-0.0486535 -0.0195945,-0.0243701 -0.0304843,-0.0541181 -0.0304843,-0.0866496 0,-0.0134291 0.00193307,-0.0273346 0.00598031,-0.0414764l0.468012 -1.63586c0.0114724,-0.0400984 0.0388228,-0.0753189 0.0736378,-0.0997441 0.0333858,-0.0234252 0.0748819,-0.0379685 0.116421,-0.0379685zm1.59961 0.543591c0.0123898,-0.00908661 0.0295551,-0.0104016 0.0435,-0.00196457 0.00642913,0.0038937 0.011437,0.00952362 0.0148543,0.0161929 0.0328898,0.0642126 0.0518268,0.137315 0.0687638,0.207161 0.011063,0.045626 0.0221063,0.0922126 0.0385709,0.136228 0.0142323,0.0380433 0.0334173,0.0760827 0.062685,0.10485 0.0246063,0.024189 0.0537362,0.0392126 0.0873189,0.0467913 0.021063,0.00475591 0.0343189,0.0257874 0.0295433,0.0468386 -0.00476772,0.0210512 -0.0257717,0.0342835 -0.0468228,0.0295354 -0.0550866,-0.0124291 -0.101898,-0.0381929 -0.139291,-0.0807913 -0.062248,-0.0709173 -0.0862992,-0.175539 -0.108024,-0.26513 -0.00990157,-0.0408425 -0.0198386,-0.0829764 -0.0336654,-0.123087l-0.436433 0.721165c-0.0016811,0.00989764 -0.00456693,0.0196378 -0.00872835,0.0290906 -0.0180197,0.0409173 -0.0561063,0.0678228 -0.103118,0.0782323 -0.0444134,0.00983858 -0.0971142,0.00481102 -0.147567,-0.0174016 -0.0504488,-0.0222165 -0.0897362,-0.0576969 -0.112469,-0.0971024 -0.0240591,-0.0417008 -0.0299331,-0.0879567 -0.0119134,-0.128882 0.0180118,-0.0409213 0.0561024,-0.0678189 0.10311,-0.0782283 0.0444173,-0.00983858 0.0971142,-0.0048189 0.147567,0.0173976 0.046689,0.0205591 0.083815,0.0524803 0.10711,0.0883583 0.145673,-0.24172 0.441193,-0.731551 0.445008,-0.729256z"/>
  </g>
 </g>
</svg>
