<?xml version="1.0" encoding="iso-8859-1"?>
<!-- Uploaded to: SVG Repo, www.svgrepo.com, Generator: SVG Repo Mixer Tools -->
<svg version="1.1" id="Layer_1" xmlns="http://www.w3.org/2000/svg" xmlns:xlink="http://www.w3.org/1999/xlink" 
	 viewBox="0 0 512 512" xml:space="preserve">
<path style="fill:#FFFFFF;" d="M489.168,512H22.832C10.272,512,0,501.728,0,489.168V22.832C0,10.272,10.272,0,22.832,0H489.16
	C501.728,0,512,10.272,512,22.832V489.16C512,501.728,501.728,512,489.168,512z"/>
<circle style="fill:#303030;" cx="249.68" cy="256" r="184"/>
<circle cx="256" cy="256" r="206.336"/>
<circle cx="256" cy="256" r="184"/>
<path style="fill:#999999;" d="M256,443.248c-103.24,0-187.24-84-187.24-187.248c0-103.24,84-187.24,187.24-187.24
	s187.24,84,187.24,187.24C443.24,359.248,359.24,443.248,256,443.248z M256,75.16c-99.712,0-180.84,81.128-180.84,180.84
	c0,99.728,81.128,180.848,180.84,180.848S436.84,355.72,436.84,256S355.712,75.16,256,75.16z"/>
<circle style="fill:#DB2B42;" cx="256" cy="256" r="68.4"/>
<circle cx="40.4" cy="36.552" r="9.136"/>
<g>
	<circle style="fill:#AAAAAA;" cx="65.656" cy="36.552" r="9.136"/>
	<circle style="fill:#AAAAAA;" cx="90.904" cy="36.552" r="9.136"/>
</g>
<circle style="fill:#DB2B42;" cx="40.528" cy="442.08" r="9.136"/>
<circle style="fill:#AAAAAA;" cx="74.912" cy="442.08" r="9.136"/>
<rect x="31.4" y="463.008" width="73.064" height="8.952"/>
<g>
	<polygon style="fill:#AAAAAA;" points="351.248,367.184 335.176,356.704 424.448,219.784 424.448,53.416 443.648,53.416 
		443.648,225.488 	"/>
	<polygon style="fill:#AAAAAA;" points="397.08,296.952 340.144,384.176 321.416,346.544 355.088,294.96 	"/>
</g>
<polygon style="fill:#CCCBCA;" points="334.416,372.672 340.144,384.176 443.648,225.488 443.648,53.416 434.048,53.416 
	434.048,219.784 "/>
<circle style="fill:#AAAAAA;" cx="434.08" cy="64.64" r="37.208"/>
<circle cx="434.08" cy="64.64" r="20.408"/>
</svg>