<?xml version="1.0" encoding="UTF-8"?>
<!DOCTYPE svg PUBLIC "-//W3C//DTD SVG 1.1//EN" "http://www.w3.org/Graphics/SVG/1.1/DTD/svg11.dtd">
<!-- Creator: CorelDRAW -->
<svg xmlns="http://www.w3.org/2000/svg" xml:space="preserve" width="2048px" height="2048px" style="shape-rendering:geometricPrecision; text-rendering:geometricPrecision; image-rendering:optimizeQuality; fill-rule:evenodd; clip-rule:evenodd"
viewBox="0 0 2048 2048"
 xmlns:xlink="http://www.w3.org/1999/xlink">
 <defs>
  <style type="text/css">
   <![CDATA[
    .fil1 {fill:none}
    .fil0 {fill:#212121;fill-rule:nonzero}
   ]]>
  </style>
 </defs>
 <g id="Layer_x0020_1">
  <metadata id="CorelCorpID_0Corel-Layer"/>
  <g id="_452560152">
   <path id="_452560512" class="fil0" d="M750.237 464.364l0 437.671 0 793.447 381.878 -290.951 19.3748 25.3748 -19.3937 -25.454c12.3378,-9.4004 29.3138,-8.45906 40.5237,1.41496l380.547 289.654 0 -793.486 0 -437.671 0 -48.5953c0,-26.5382 -10.4799,-50.5831 -27.3626,-67.9394 -16.6606,-17.1284 -39.6201,-27.7607 -64.8508,-27.7607l-0.0011811 0c-0.689764,0 -1.3748,-0.0248032 -2.05394,-0.0673229l-740.834 0c16.1539,21.4772 27.0437,47.1591 30.6945,75.0721 0.981497,3.12166 1.47402,6.37087 1.4752,9.62481l0.00354331 0 0 11.0705 0 48.5953zm-64.0016 437.671l0 -437.671 0 -48.5953 0 -5.73426c-0.174803,-0.956694 -0.31063,-1.92874 -0.400394,-2.91614l0.400394 -0.0366142 0 -0.00354331 -0.281103 0.0259843c-2.2063,-24.3496 -13.728,-46.1965 -30.9697,-61.9453 -17.0398,-15.5646 -39.6851,-25.0902 -64.4493,-25.0902l-0.00236221 0 -0.878741 -0.00354331 -0.611811 0.0188977 -0.0011811 -0.0318898c-0.0767717,-0.00354331 -0.111024,-0.00826772 -0.115748,-0.0129921 -8.31851,0.668504 -16.8886,-1.89803 -23.6587,-7.83426 -6.77835,-5.86772 -11.0669,-14.5358 -11.0669,-24.2043 0,-17.6728 14.328,-32.0008 32.0008,-32.0008l874.751 0c0.797245,0 1.5874,0.0307087 2.36929,0.0874016 42.15,0.650788 80.3894,18.6165 108.234,47.2429 28.1433,28.9335 45.613,68.7414 45.613,112.439l0 48.5953 0 437.671 0 857.965 -0.0011811 0c0.00472441,6.76418 -2.12362,13.5839 -6.53623,19.3819 -10.7032,14.0622 -30.7831,16.7847 -44.8453,6.0815l19.3819 -25.4634 -19.3748 25.3748 -414.293 -315.339 -412.19 314.046c-5.62914,4.92993 -13.0028,7.9193 -21.0732,7.9193 -17.6728,0 -32.0008,-14.328 -32.0008,-32.0008l0 -857.965zm31.4693 -497.806l-5.17914 0.468898 0.00708662 0 5.17205 -0.468898z"/>
   <path id="_452559768" class="fil0" d="M590.535 320.068l-0.00236221 0c-26.2831,0 -50.2028,10.7776 -67.5627,28.1374 -17.3599,17.361 -28.1362,41.2796 -28.1362,67.5638l0 454.264 191.401 0 0 -454.264c0,-26.2843 -10.7776,-50.204 -28.1374,-67.5638 -17.3587,-17.3599 -41.2784,-28.1374 -67.5627,-28.1374zm-0.00236221 -64.0016l0.00236221 0c43.9512,0 83.8855,17.9587 112.813,46.8886 28.9299,28.9299 46.8886,68.8642 46.8886,112.814l0 486.265c0,17.6728 -14.328,32.0008 -32.0008,32.0008l-255.403 0c-17.6728,0 -32.0008,-14.328 -32.0008,-32.0008l0 -486.265c0,-43.95 17.9587,-83.8843 46.8874,-112.814 28.9299,-28.9299 68.8642,-46.8886 112.813,-46.8886z"/>
  </g>
 </g>
 <rect class="fil1" width="2048" height="2048"/>
</svg>
