<?xml version="1.0" encoding="UTF-8"?>
<!DOCTYPE svg PUBLIC "-//W3C//DTD SVG 1.1//EN" "http://www.w3.org/Graphics/SVG/1.1/DTD/svg11.dtd">
<!-- Creator: CorelDRAW -->
<svg xmlns="http://www.w3.org/2000/svg" xml:space="preserve" width="2048px" height="2048px" style="shape-rendering:geometricPrecision; text-rendering:geometricPrecision; image-rendering:optimizeQuality; fill-rule:evenodd; clip-rule:evenodd"
viewBox="0 0 2048 2048"
 xmlns:xlink="http://www.w3.org/1999/xlink">
 <defs>
  <style type="text/css">
   <![CDATA[
    .fil1 {fill:none}
    .fil0 {fill:#212121;fill-rule:nonzero}
   ]]>
  </style>
 </defs>
 <g id="Layer_x0020_1">
  <metadata id="CorelCorpID_0Corel-Layer"/>
  <g id="_452561640">
   <path id="_452555760" class="fil0" d="M1674.24 770.169l0 104.071 85.7611 0c17.6728,0 32.0008,14.328 32.0008,32.0008l0 235.52c0,17.6728 -14.328,32.0008 -32.0008,32.0008l-85.7611 0 0 104.069c0,36.013 -14.7106,68.7296 -38.4083,92.4296 -23.6977,23.6977 -56.4166,38.4083 -92.4284,38.4083l-1156.57 0c-36.0118,0 -68.7308,-14.7106 -92.4284,-38.4083 -23.6977,-23.7 -38.4083,-56.4166 -38.4083,-92.4296l0 -507.662c0,-36.013 14.7106,-68.7296 38.4083,-92.4296 23.6977,-23.6977 56.4166,-38.4083 92.4284,-38.4083l1156.57 0c36.0118,0 68.7308,14.7106 92.4284,38.4083 23.6977,23.7 38.4083,56.4166 38.4083,92.4296zm-64.0016 136.071l0 -136.071c0,-18.3461 -7.52953,-35.0504 -19.6571,-47.1792 -12.1276,-12.1276 -28.8319,-19.6571 -47.178,-19.6571l-1156.57 0c-18.3461,0 -35.0504,7.52953 -47.178,19.6571 -12.1276,12.1287 -19.6571,28.8331 -19.6571,47.1792l0 507.662c0,18.3461 7.52953,35.0504 19.6571,47.1792 12.1276,12.1276 28.8319,19.6571 47.178,19.6571l1156.57 0c18.3461,0 35.0504,-7.52953 47.178,-19.6571 12.1276,-12.1287 19.6571,-28.8331 19.6571,-47.1792l0 -136.07c0,-17.6728 14.328,-32.0008 32.0008,-32.0008l85.7611 0 0 -171.519 -85.7611 0c-17.6728,0 -32.0008,-14.328 -32.0008,-32.0008z"/>
   <path id="_452554944" class="fil0" d="M467.188 773.76c0,-17.6728 -14.328,-32.0008 -32.0008,-32.0008 -17.6728,0 -32.0008,14.328 -32.0008,32.0008l0 88.3205c0,17.6728 14.328,32.0008 32.0008,32.0008 17.6728,0 32.0008,-14.328 32.0008,-32.0008l0 -88.3205z"/>
   <path id="_452555328" class="fil0" d="M467.188 979.84c0,-17.6728 -14.328,-32.0008 -32.0008,-32.0008 -17.6728,0 -32.0008,14.328 -32.0008,32.0008l0 88.3205c0,17.6728 14.328,32.0008 32.0008,32.0008 17.6728,0 32.0008,-14.328 32.0008,-32.0008l0 -88.3205z"/>
   <path id="_452555256" class="fil0" d="M467.188 1185.92c0,-17.6728 -14.328,-32.0008 -32.0008,-32.0008 -17.6728,0 -32.0008,14.328 -32.0008,32.0008l0 88.3205c0,17.6728 14.328,32.0008 32.0008,32.0008 17.6728,0 32.0008,-14.328 32.0008,-32.0008l0 -88.3205z"/>
   <path id="_452555112" class="fil0" d="M584.95 773.76c0,-17.6728 -14.328,-32.0008 -32.0008,-32.0008 -17.6728,0 -32.0008,14.328 -32.0008,32.0008l0 88.3205c0,17.6728 14.328,32.0008 32.0008,32.0008 17.6728,0 32.0008,-14.328 32.0008,-32.0008l0 -88.3205z"/>
   <path id="_452555568" class="fil0" d="M584.95 979.84c0,-17.6728 -14.328,-32.0008 -32.0008,-32.0008 -17.6728,0 -32.0008,14.328 -32.0008,32.0008l0 88.3205c0,17.6728 14.328,32.0008 32.0008,32.0008 17.6728,0 32.0008,-14.328 32.0008,-32.0008l0 -88.3205z"/>
   <path id="_452555520" class="fil0" d="M584.95 1185.92c0,-17.6728 -14.328,-32.0008 -32.0008,-32.0008 -17.6728,0 -32.0008,14.328 -32.0008,32.0008l0 88.3205c0,17.6728 14.328,32.0008 32.0008,32.0008 17.6728,0 32.0008,-14.328 32.0008,-32.0008l0 -88.3205z"/>
   <path id="_452555472" class="fil0" d="M702.713 773.76c0,-17.6728 -14.328,-32.0008 -32.0008,-32.0008 -17.6728,0 -32.0008,14.328 -32.0008,32.0008l0 88.3205c0,17.6728 14.328,32.0008 32.0008,32.0008 17.6728,0 32.0008,-14.328 32.0008,-32.0008l0 -88.3205z"/>
   <path id="_452555592" class="fil0" d="M702.713 979.84c0,-17.6728 -14.328,-32.0008 -32.0008,-32.0008 -17.6728,0 -32.0008,14.328 -32.0008,32.0008l0 88.3205c0,17.6728 14.328,32.0008 32.0008,32.0008 17.6728,0 32.0008,-14.328 32.0008,-32.0008l0 -88.3205z"/>
   <path id="_452555064" class="fil0" d="M702.713 1185.92c0,-17.6728 -14.328,-32.0008 -32.0008,-32.0008 -17.6728,0 -32.0008,14.328 -32.0008,32.0008l0 88.3205c0,17.6728 14.328,32.0008 32.0008,32.0008 17.6728,0 32.0008,-14.328 32.0008,-32.0008l0 -88.3205z"/>
   <path id="_452555352" class="fil0" d="M820.476 773.76c0,-17.6728 -14.328,-32.0008 -32.0008,-32.0008 -17.6728,0 -32.0008,14.328 -32.0008,32.0008l0 88.3205c0,17.6728 14.328,32.0008 32.0008,32.0008 17.6728,0 32.0008,-14.328 32.0008,-32.0008l0 -88.3205z"/>
   <path id="_452562624" class="fil0" d="M820.476 979.84c0,-17.6728 -14.328,-32.0008 -32.0008,-32.0008 -17.6728,0 -32.0008,14.328 -32.0008,32.0008l0 88.3205c0,17.6728 14.328,32.0008 32.0008,32.0008 17.6728,0 32.0008,-14.328 32.0008,-32.0008l0 -88.3205z"/>
   <path id="_452562576" class="fil0" d="M820.476 1185.92c0,-17.6728 -14.328,-32.0008 -32.0008,-32.0008 -17.6728,0 -32.0008,14.328 -32.0008,32.0008l0 88.3205c0,17.6728 14.328,32.0008 32.0008,32.0008 17.6728,0 32.0008,-14.328 32.0008,-32.0008l0 -88.3205z"/>
   <path id="_452562936" class="fil0" d="M938.239 773.76c0,-17.6728 -14.328,-32.0008 -32.0008,-32.0008 -17.6728,0 -32.0008,14.328 -32.0008,32.0008l0 88.3205c0,17.6728 14.328,32.0008 32.0008,32.0008 17.6728,0 32.0008,-14.328 32.0008,-32.0008l0 -88.3205z"/>
   <path id="_452562648" class="fil0" d="M938.239 979.84c0,-17.6728 -14.328,-32.0008 -32.0008,-32.0008 -17.6728,0 -32.0008,14.328 -32.0008,32.0008l0 88.3205c0,17.6728 14.328,32.0008 32.0008,32.0008 17.6728,0 32.0008,-14.328 32.0008,-32.0008l0 -88.3205z"/>
   <path id="_452562912" class="fil0" d="M938.239 1185.92c0,-17.6728 -14.328,-32.0008 -32.0008,-32.0008 -17.6728,0 -32.0008,14.328 -32.0008,32.0008l0 88.3205c0,17.6728 14.328,32.0008 32.0008,32.0008 17.6728,0 32.0008,-14.328 32.0008,-32.0008l0 -88.3205z"/>
   <path id="_452561808" class="fil0" d="M1056 773.76c0,-17.6728 -14.328,-32.0008 -32.0008,-32.0008 -17.6728,0 -32.0008,14.328 -32.0008,32.0008l0 88.3205c0,17.6728 14.328,32.0008 32.0008,32.0008 17.6728,0 32.0008,-14.328 32.0008,-32.0008l0 -88.3205z"/>
   <path id="_452562456" class="fil0" d="M1056 979.84c0,-17.6728 -14.328,-32.0008 -32.0008,-32.0008 -17.6728,0 -32.0008,14.328 -32.0008,32.0008l0 88.3205c0,17.6728 14.328,32.0008 32.0008,32.0008 17.6728,0 32.0008,-14.328 32.0008,-32.0008l0 -88.3205z"/>
   <path id="_452562144" class="fil0" d="M1056 1185.92c0,-17.6728 -14.328,-32.0008 -32.0008,-32.0008 -17.6728,0 -32.0008,14.328 -32.0008,32.0008l0 88.3205c0,17.6728 14.328,32.0008 32.0008,32.0008 17.6728,0 32.0008,-14.328 32.0008,-32.0008l0 -88.3205z"/>
   <path id="_452561904" class="fil0" d="M1173.77 773.76c0,-17.6728 -14.328,-32.0008 -32.0008,-32.0008 -17.6728,0 -32.0008,14.328 -32.0008,32.0008l0 88.3205c0,17.6728 14.328,32.0008 32.0008,32.0008 17.6728,0 32.0008,-14.328 32.0008,-32.0008l0 -88.3205z"/>
   <path id="_452562096" class="fil0" d="M1173.77 979.84c0,-17.6728 -14.328,-32.0008 -32.0008,-32.0008 -17.6728,0 -32.0008,14.328 -32.0008,32.0008l0 88.3205c0,17.6728 14.328,32.0008 32.0008,32.0008 17.6728,0 32.0008,-14.328 32.0008,-32.0008l0 -88.3205z"/>
   <path id="_452562072" class="fil0" d="M1173.77 1185.92c0,-17.6728 -14.328,-32.0008 -32.0008,-32.0008 -17.6728,0 -32.0008,14.328 -32.0008,32.0008l0 88.3205c0,17.6728 14.328,32.0008 32.0008,32.0008 17.6728,0 32.0008,-14.328 32.0008,-32.0008l0 -88.3205z"/>
   <path id="_452562168" class="fil0" d="M1291.53 773.76c0,-17.6728 -14.328,-32.0008 -32.0008,-32.0008 -17.6728,0 -32.0008,14.328 -32.0008,32.0008l0 88.3205c0,17.6728 14.328,32.0008 32.0008,32.0008 17.6728,0 32.0008,-14.328 32.0008,-32.0008l0 -88.3205z"/>
   <path id="_452562048" class="fil0" d="M1291.53 979.84c0,-17.6728 -14.328,-32.0008 -32.0008,-32.0008 -17.6728,0 -32.0008,14.328 -32.0008,32.0008l0 88.3205c0,17.6728 14.328,32.0008 32.0008,32.0008 17.6728,0 32.0008,-14.328 32.0008,-32.0008l0 -88.3205z"/>
   <path id="_452562312" class="fil0" d="M1291.53 1185.92c0,-17.6728 -14.328,-32.0008 -32.0008,-32.0008 -17.6728,0 -32.0008,14.328 -32.0008,32.0008l0 88.3205c0,17.6728 14.328,32.0008 32.0008,32.0008 17.6728,0 32.0008,-14.328 32.0008,-32.0008l0 -88.3205z"/>
   <path id="_452561880" class="fil0" d="M1409.29 773.76c0,-17.6728 -14.328,-32.0008 -32.0008,-32.0008 -17.6728,0 -32.0008,14.328 -32.0008,32.0008l0 88.3205c0,17.6728 14.328,32.0008 32.0008,32.0008 17.6728,0 32.0008,-14.328 32.0008,-32.0008l0 -88.3205z"/>
   <path id="_452562000" class="fil0" d="M1409.29 979.84c0,-17.6728 -14.328,-32.0008 -32.0008,-32.0008 -17.6728,0 -32.0008,14.328 -32.0008,32.0008l0 88.3205c0,17.6728 14.328,32.0008 32.0008,32.0008 17.6728,0 32.0008,-14.328 32.0008,-32.0008l0 -88.3205z"/>
   <path id="_452561304" class="fil0" d="M1409.29 1185.92c0,-17.6728 -14.328,-32.0008 -32.0008,-32.0008 -17.6728,0 -32.0008,14.328 -32.0008,32.0008l0 88.3205c0,17.6728 14.328,32.0008 32.0008,32.0008 17.6728,0 32.0008,-14.328 32.0008,-32.0008l0 -88.3205z"/>
   <path id="_452561256" class="fil0" d="M1527.05 773.76c0,-17.6728 -14.328,-32.0008 -32.0008,-32.0008 -17.6728,0 -32.0008,14.328 -32.0008,32.0008l0 88.3205c0,17.6728 14.328,32.0008 32.0008,32.0008 17.6728,0 32.0008,-14.328 32.0008,-32.0008l0 -88.3205z"/>
   <path id="_452561688" class="fil0" d="M1527.05 979.84c0,-17.6728 -14.328,-32.0008 -32.0008,-32.0008 -17.6728,0 -32.0008,14.328 -32.0008,32.0008l0 88.3205c0,17.6728 14.328,32.0008 32.0008,32.0008 17.6728,0 32.0008,-14.328 32.0008,-32.0008l0 -88.3205z"/>
   <path id="_452561568" class="fil0" d="M1527.05 1185.92c0,-17.6728 -14.328,-32.0008 -32.0008,-32.0008 -17.6728,0 -32.0008,14.328 -32.0008,32.0008l0 88.3205c0,17.6728 14.328,32.0008 32.0008,32.0008 17.6728,0 32.0008,-14.328 32.0008,-32.0008l0 -88.3205z"/>
  </g>
 </g>
 <rect class="fil1" width="2048" height="2048"/>
</svg>
