<?xml version="1.0" encoding="UTF-8"?>
<!DOCTYPE svg PUBLIC "-//W3C//DTD SVG 1.1//EN" "http://www.w3.org/Graphics/SVG/1.1/DTD/svg11.dtd">
<!-- Creator: CorelDRAW -->
<svg xmlns="http://www.w3.org/2000/svg" xml:space="preserve" width="2048px" height="2048px" style="shape-rendering:geometricPrecision; text-rendering:geometricPrecision; image-rendering:optimizeQuality; fill-rule:evenodd; clip-rule:evenodd"
viewBox="0 0 2048 2048"
 xmlns:xlink="http://www.w3.org/1999/xlink">
 <defs>
  <style type="text/css">
   <![CDATA[
    .fil1 {fill:none}
    .fil0 {fill:#212121;fill-rule:nonzero}
   ]]>
  </style>
 </defs>
 <g id="Layer_x0020_1">
  <metadata id="CorelCorpID_0Corel-Layer"/>
  <g id="_251047008">
   <path id="_252616784" class="fil0" d="M1414.81 1009.02l-1094.81 0 0 496.944c0,9.34961 3.84803,17.8725 10.0465,24.0709 6.19843,6.19843 14.7213,10.0465 24.0709,10.0465l1026.57 0c9.34725,0 17.8725,-3.84922 24.0709,-10.0465 6.19725,-6.19843 10.0465,-14.7236 10.0465,-24.0709l0 -496.944zm-1126.81 -64.0016l1158.81 0c17.6728,0 32.0008,14.328 32.0008,32.0008l0 528.945c0,27.0142 -11.0303,51.5516 -28.7977,69.3213 -17.7697,17.7673 -42.3071,28.7977 -69.3213,28.7977l-1026.57 0c-27.0154,0 -51.554,-11.0303 -69.3213,-28.7977 -17.7673,-17.7673 -28.7977,-42.3059 -28.7977,-69.3213l0 -528.945c0,-17.6728 14.328,-32.0008 32.0008,-32.0008z"/>
   <path id="_438869640" class="fil0" d="M1352.85 758.468l-970.896 0c-17.0043,0 -32.4874,6.98032 -43.7315,18.2244 -11.2441,11.2441 -18.2244,26.7272 -18.2244,43.7315l0 124.596 1094.81 0 0 -124.596c0,-17.0043 -6.98032,-32.4874 -18.2244,-43.7315 -11.2441,-11.2441 -26.7272,-18.2244 -43.7315,-18.2244zm-970.896 -64.0016l970.896 0c34.6725,0 66.1689,14.1614 88.982,36.9756 22.8142,22.813 36.9756,54.3095 36.9756,88.982l0 156.597c0,17.6728 -14.328,32.0008 -32.0008,32.0008l-1158.81 0c-17.6728,0 -32.0008,-14.328 -32.0008,-32.0008l0 -156.597c0,-34.6725 14.1614,-66.1689 36.9756,-88.982 22.813,-22.8142 54.3095,-36.9756 88.982,-36.9756z"/>
   <path id="_438870072" class="fil0" d="M1337.19 1149.96c17.6728,0 32.0008,-14.328 32.0008,-32.0008 0,-17.6728 -14.328,-32.0008 -32.0008,-32.0008l-125.277 0c-17.6728,0 -32.0008,14.328 -32.0008,32.0008 0,17.6728 14.328,32.0008 32.0008,32.0008l125.277 0z"/>
   <path id="_438869952" class="fil0" d="M914.383 1149.96c17.6728,0 32.0008,-14.328 32.0008,-32.0008 0,-17.6728 -14.328,-32.0008 -32.0008,-32.0008l-125.277 0c-17.6728,0 -32.0008,14.328 -32.0008,32.0008 0,17.6728 14.328,32.0008 32.0008,32.0008l125.277 0z"/>
   <path id="_438869808" class="fil0" d="M522.893 1149.96c17.6728,0 32.0008,-14.328 32.0008,-32.0008 0,-17.6728 -14.328,-32.0008 -32.0008,-32.0008l-125.277 0c-17.6728,0 -32.0008,14.328 -32.0008,32.0008 0,17.6728 14.328,32.0008 32.0008,32.0008l125.277 0z"/>
   <path id="_252864000" class="fil0" d="M1337.19 1306.55c17.6728,0 32.0008,-14.328 32.0008,-32.0008 0,-17.6728 -14.328,-32.0008 -32.0008,-32.0008l-125.277 0c-17.6728,0 -32.0008,14.328 -32.0008,32.0008 0,17.6728 14.328,32.0008 32.0008,32.0008l125.277 0z"/>
   <path id="_252864096" class="fil0" d="M914.383 1306.55c17.6728,0 32.0008,-14.328 32.0008,-32.0008 0,-17.6728 -14.328,-32.0008 -32.0008,-32.0008l-125.277 0c-17.6728,0 -32.0008,14.328 -32.0008,32.0008 0,17.6728 14.328,32.0008 32.0008,32.0008l125.277 0z"/>
   <path id="_252863928" class="fil0" d="M522.893 1306.55c17.6728,0 32.0008,-14.328 32.0008,-32.0008 0,-17.6728 -14.328,-32.0008 -32.0008,-32.0008l-125.277 0c-17.6728,0 -32.0008,14.328 -32.0008,32.0008 0,17.6728 14.328,32.0008 32.0008,32.0008l125.277 0z"/>
   <path id="_252864288" class="fil0" d="M1337.19 1463.15c17.6728,0 32.0008,-14.328 32.0008,-32.0008 0,-17.6728 -14.328,-32.0008 -32.0008,-32.0008l-125.277 0c-17.6728,0 -32.0008,14.328 -32.0008,32.0008 0,17.6728 14.328,32.0008 32.0008,32.0008l125.277 0z"/>
   <path id="_251047176" class="fil0" d="M914.383 1463.15c17.6728,0 32.0008,-14.328 32.0008,-32.0008 0,-17.6728 -14.328,-32.0008 -32.0008,-32.0008l-125.277 0c-17.6728,0 -32.0008,14.328 -32.0008,32.0008 0,17.6728 14.328,32.0008 32.0008,32.0008l125.277 0z"/>
   <path id="_251047392" class="fil0" d="M522.893 1463.15c17.6728,0 32.0008,-14.328 32.0008,-32.0008 0,-17.6728 -14.328,-32.0008 -32.0008,-32.0008l-125.277 0c-17.6728,0 -32.0008,14.328 -32.0008,32.0008 0,17.6728 14.328,32.0008 32.0008,32.0008l125.277 0z"/>
   <path id="_251047032" class="fil0" d="M1687.55 617.532l-168.294 0c-11.0906,0 -21.1973,4.56142 -28.5425,11.9055 -7.3441,7.34528 -11.9055,17.452 -11.9055,28.5425l0 982.593c0,11.0906 4.56142,21.1973 11.9055,28.5425 7.34528,7.3441 17.452,11.9055 28.5425,11.9055l168.294 0c11.0894,0 21.1961,-4.56142 28.5414,-11.9067 7.3441,-7.34528 11.9055,-17.452 11.9055,-28.5414l0 -982.593c0,-11.0894 -4.56142,-21.1961 -11.9055,-28.5414 -7.34528,-7.34528 -17.452,-11.9067 -28.5414,-11.9067zm-168.294 -64.0016l168.294 0c28.7551,0 54.8764,11.7425 73.7918,30.6579 18.9142,18.9154 30.6567,45.0366 30.6567,73.7918l0 982.593c0,28.7551 -11.7425,54.8764 -30.6567,73.7918 -18.9154,18.9154 -45.0366,30.6579 -73.7918,30.6579l-168.294 0c-28.7563,0 -54.8776,-11.7425 -73.793,-30.6567 -18.9142,-18.9154 -30.6567,-45.0366 -30.6567,-73.793l0 -982.593c0,-28.7563 11.7425,-54.8776 30.6567,-73.793 18.9154,-18.9142 45.0366,-30.6567 73.793,-30.6567z"/>
   <path id="_251047344" class="fil0" d="M1231.61 758.468l-728.416 0c-17.6728,0 -32.0008,-14.328 -32.0008,-32.0008l0 -391.488c0,-17.6728 14.328,-32.0008 32.0008,-32.0008l728.416 0c17.6728,0 32.0008,14.328 32.0008,32.0008l0 391.488c0,17.6728 -14.328,32.0008 -32.0008,32.0008zm-696.415 -64.0016l664.414 0 0 -327.487 -664.414 0 0 327.487z"/>
  </g>
 </g>
 <rect class="fil1" width="2048" height="2048"/>
</svg>
