<?xml version="1.0" encoding="UTF-8"?>
<!DOCTYPE svg PUBLIC "-//W3C//DTD SVG 1.1//EN" "http://www.w3.org/Graphics/SVG/1.1/DTD/svg11.dtd">
<!-- Creator: CorelDRAW -->
<svg xmlns="http://www.w3.org/2000/svg" xml:space="preserve" width="2048px" height="2048px" style="shape-rendering:geometricPrecision; text-rendering:geometricPrecision; image-rendering:optimizeQuality; fill-rule:evenodd; clip-rule:evenodd"
viewBox="0 0 2048 2048"
 xmlns:xlink="http://www.w3.org/1999/xlink">
 <defs>
  <style type="text/css">
   <![CDATA[
    .fil1 {fill:none}
    .fil0 {fill:#212121;fill-rule:nonzero}
   ]]>
  </style>
 </defs>
 <g id="Layer_x0020_1">
  <metadata id="CorelCorpID_0Corel-Layer"/>
  <g id="_441532384">
   <path id="_441528928" class="fil0" d="M882.374 983.299l341.746 -341.746 -0.00236221 -0.00236221c12.4961,-12.4961 32.7591,-12.4961 45.2552,0 6.24804,6.24804 9.37205,14.4378 9.37205,22.6276l0.0011811 0 0 201.477c85.7268,7.0689 218.257,28.1965 326.635,90.3296 127.558,73.128 221.703,200.151 174.35,420.65l-31.2496 -6.62481 31.2874 6.7193c-3.70985,17.2795 -20.7272,28.278 -38.0067,24.5681 -11.2559,-2.41654 -19.8461,-10.4811 -23.4414,-20.5854 -8.45198,-19.2036 -101.178,-211.168 -439.575,-226.231l0 193.549c0,17.6728 -14.328,32.0008 -32.0008,32.0008 -8.93741,0 -17.0162,-3.66496 -22.8225,-9.57284l-341.729 -341.729 -0.00236221 0.00236221c-12.4961,-12.4961 -12.4961,-32.7591 0,-45.2552l0.18189 -0.177165zm332.371 -241.87l-264.675 264.675 264.675 264.675 0 -149.075 0.00354331 0 -0.0011811 -0.336614c0.185433,-17.6717 14.6634,-31.8473 32.3351,-31.6618l-0.0011811 0.124016c273.513,2.89961 414.585,112.378 480.583,190.478 3.72992,-135.049 -65.3233,-217.966 -154.032,-268.821 -109.962,-63.0414 -249.906,-79.7422 -326.388,-84.0355l-0.497244 0.00590552c-17.6728,0 -32.0008,-14.328 -32.0008,-32.0008l0 -154.025z"/>
   <path id="_441532264" class="fil0" d="M288 435.911l1112.18 0c17.6728,0 32.0008,14.328 32.0008,32.0008l0 447.418c0,17.6728 -14.328,32.0008 -32.0008,32.0008 -3.07914,0 -6.05788,-0.435827 -8.87599,-1.24843 -24.9981,-5.19449 -48.6898,-9.02127 -70.3737,-11.8299 -28.5921,-3.70394 -54.613,-5.77914 -75.8079,-6.92245l1.6252 -31.8756 -1.72441 31.9536c-17.0693,-0.921261 -30.2894,-15.0591 -30.2752,-31.9536l-0.0011811 0 0 -0.0779528 0 -153.947 -264.676 264.675 264.676 264.675 0 -149.076c0,-17.6728 14.328,-32.0008 32.0008,-32.0008 1.08662,0 2.16142,0.0543308 3.22087,0.16063 28.65,0.380315 55.6122,1.90276 80.9847,4.40433 26.8488,2.64685 51.8847,6.31654 75.2268,10.8343l-6 31.3748 6.08032 -31.4173c15.4807,2.99646 26.1792,16.6854 25.9205,31.9252l0 443.106c0,17.6728 -14.328,32.0008 -32.0008,32.0008l-1112.18 0c-17.6728,0 -32.0008,-14.328 -32.0008,-32.0008l0 -1112.18c0,-17.6728 14.328,-32.0008 32.0008,-32.0008zm1080.18 64.0016l-1048.18 0 0 1048.18 1048.18 0 0 -384.787c-14.0835,-2.2063 -28.5733,-4.06536 -43.4764,-5.53465 -14.8807,-1.46693 -30.1973,-2.57717 -45.9544,-3.29292l0 193.556 -0.0011811 0c0,8.18977 -3.12402,16.3795 -9.37205,22.6276 -12.4961,12.4961 -32.7591,12.4961 -45.2552,0l0.00236221 -0.00236221 -341.748 -341.746 -0.18189 -0.177165c-12.4961,-12.4961 -12.4961,-32.7591 0,-45.2552l0.00236221 0.00236221 341.73 -341.729c5.8063,-5.90788 13.8851,-9.57284 22.8225,-9.57284 17.6728,0 32.0008,14.328 32.0008,32.0008l0 201.488c15.2705,1.26969 32.1177,2.99646 50.1827,5.33622 12.6862,1.64291 25.8248,3.56693 39.2481,5.81811l0 -376.908z"/>
  </g>
 </g>
 <rect class="fil1" width="2048" height="2048"/>
</svg>
