<?xml version="1.0" encoding="UTF-8"?>
<!DOCTYPE svg PUBLIC "-//W3C//DTD SVG 1.1//EN" "http://www.w3.org/Graphics/SVG/1.1/DTD/svg11.dtd">
<!-- Creator: CorelDRAW -->
<svg xmlns="http://www.w3.org/2000/svg" xml:space="preserve" width="2048px" height="2048px" style="shape-rendering:geometricPrecision; text-rendering:geometricPrecision; image-rendering:optimizeQuality; fill-rule:evenodd; clip-rule:evenodd"
viewBox="0 0 2048 2048"
 xmlns:xlink="http://www.w3.org/1999/xlink">
 <defs>
  <style type="text/css">
   <![CDATA[
    .fil1 {fill:none}
    .fil0 {fill:#212121;fill-rule:nonzero}
   ]]>
  </style>
 </defs>
 <g id="Layer_x0020_1">
  <metadata id="CorelCorpID_0Corel-Layer"/>
  <g id="_454114768">
   <path id="_454115008" class="fil0" d="M831.54 736.001c0,-17.6728 -14.328,-32.0008 -32.0008,-32.0008 -17.6728,0 -32.0008,14.328 -32.0008,32.0008l0 551.998c0,17.6728 14.328,32.0008 32.0008,32.0008 17.6728,0 32.0008,-14.328 32.0008,-32.0008l0 -551.998z"/>
   <path id="_454114936" class="fil0" d="M1355.66 695.628c17.465,-2.27835 29.778,-18.2858 27.4996,-35.7508 -2.27835,-17.465 -18.2858,-29.778 -35.7508,-27.4996l-551.998 71.9989c-17.465,2.27835 -29.778,18.2858 -27.4996,35.7508 2.27835,17.465 18.2858,29.778 35.7508,27.4996l551.998 -71.9989z"/>
   <path id="_454115128" class="fil0" d="M1383.54 664.002c0,-17.6728 -14.328,-32.0008 -32.0008,-32.0008 -17.6728,0 -32.0008,14.328 -32.0008,32.0008l0 623.997c0,17.6728 14.328,32.0008 32.0008,32.0008 17.6728,0 32.0008,-14.328 32.0008,-32.0008l0 -623.997z"/>
   <path id="_454114504" class="fil0" d="M691.541 1136c38.6551,0 73.656,15.6721 98.993,41.0079 25.3358,25.337 41.0079,60.3378 41.0079,98.993 0,38.6563 -15.6732,73.6583 -41.0079,98.993 -25.337,25.3358 -60.3378,41.0079 -98.993,41.0079 -38.6563,0 -73.6583,-15.6732 -98.993,-41.0079 -25.3347,-25.3347 -41.0079,-60.3367 -41.0079,-98.993 0,-38.6551 15.6721,-73.656 41.0079,-98.993 25.3347,-25.3347 60.3367,-41.0079 98.993,-41.0079zm53.7426 86.2583c-13.7504,-13.7504 -32.7532,-22.2567 -53.7426,-22.2567 -20.9906,0 -39.9922,8.50631 -53.7426,22.2567 -13.7504,13.7504 -22.2567,32.7532 -22.2567,53.7426 0,20.9906 8.50631,39.9922 22.2567,53.7426 13.7504,13.7504 32.752,22.2567 53.7426,22.2567 20.9894,0 39.9922,-8.50631 53.7426,-22.2567 13.7504,-13.7504 22.2567,-32.752 22.2567,-53.7426 0,-20.9894 -8.50631,-39.9922 -22.2567,-53.7426z"/>
   <path id="_454114888" class="fil0" d="M1243.54 1136c38.6563,0 73.6583,15.6732 98.993,41.0079 25.3358,25.337 41.0079,60.3378 41.0079,98.993 0,38.6563 -15.6732,73.6583 -41.0079,98.993 -25.3347,25.3347 -60.3367,41.0079 -98.993,41.0079 -38.6551,0 -73.656,-15.6721 -98.993,-41.0079 -25.3347,-25.3347 -41.0079,-60.3367 -41.0079,-98.993 0,-38.6551 15.6721,-73.656 41.0079,-98.993 25.337,-25.3358 60.3378,-41.0079 98.993,-41.0079zm53.7426 86.2583c-13.7504,-13.7504 -32.752,-22.2567 -53.7426,-22.2567 -20.9894,0 -39.9922,8.50631 -53.7426,22.2567 -13.7504,13.7504 -22.2567,32.7532 -22.2567,53.7426 0,20.9906 8.50631,39.9922 22.2567,53.7426 13.7504,13.7504 32.7532,22.2567 53.7426,22.2567 20.9906,0 39.9922,-8.50631 53.7426,-22.2567 13.7504,-13.7504 22.2567,-32.752 22.2567,-53.7426 0,-20.9894 -8.50631,-39.9922 -22.2567,-53.7426z"/>
   <path id="_454114408" class="fil0" d="M1355.66 823.626c17.465,-2.27835 29.778,-18.2858 27.4996,-35.7508 -2.27835,-17.465 -18.2858,-29.778 -35.7508,-27.4996l-551.998 71.9989c-17.465,2.27835 -29.778,18.2858 -27.4996,35.7508 2.27835,17.465 18.2858,29.778 35.7508,27.4996l551.998 -71.9989z"/>
   <path id="_454114456" class="fil0" d="M1355.66 943.087c17.465,-2.27835 29.778,-18.2858 27.4996,-35.7508 -2.27835,-17.465 -18.2858,-29.778 -35.7508,-27.4996l-551.998 71.9989c-17.465,2.27835 -29.778,18.2858 -27.4996,35.7508 2.27835,17.465 18.2858,29.778 35.7508,27.4996l551.998 -71.9989z"/>
   <path id="_454114744" class="fil0" d="M1024 255.998c212.073,0 404.074,85.9631 543.056,224.946 138.983,138.982 224.946,330.983 224.946,543.056 0,212.073 -85.9631,404.074 -224.946,543.056 -138.982,138.983 -330.983,224.946 -543.056,224.946 -212.073,0 -404.074,-85.9631 -543.056,-224.946 -138.983,-138.982 -224.946,-330.983 -224.946,-543.056 0,-212.073 85.9631,-404.074 224.946,-543.056 138.982,-138.983 330.983,-224.946 543.056,-224.946zm497.806 270.196c-127.396,-127.397 -303.398,-206.195 -497.806,-206.195 -194.407,0 -370.409,78.7973 -497.806,206.195 -127.397,127.396 -206.195,303.398 -206.195,497.806 0,194.407 78.7973,370.409 206.195,497.806 127.396,127.397 303.398,206.195 497.806,206.195 194.407,0 370.409,-78.7973 497.806,-206.195 127.397,-127.396 206.195,-303.398 206.195,-497.806 0,-194.407 -78.7973,-370.409 -206.195,-497.806z"/>
  </g>
 </g>
 <rect class="fil1" width="2048" height="2048"/>
</svg>
