<?xml version="1.0" encoding="UTF-8"?>
<!DOCTYPE svg PUBLIC "-//W3C//DTD SVG 1.1//EN" "http://www.w3.org/Graphics/SVG/1.1/DTD/svg11.dtd">
<!-- Creator: CorelDRAW -->
<svg xmlns="http://www.w3.org/2000/svg" xml:space="preserve" width="2048px" height="2048px" style="shape-rendering:geometricPrecision; text-rendering:geometricPrecision; image-rendering:optimizeQuality; fill-rule:evenodd; clip-rule:evenodd"
viewBox="0 0 2048 2048"
 xmlns:xlink="http://www.w3.org/1999/xlink">
 <defs>
  <style type="text/css">
   <![CDATA[
    .fil1 {fill:none}
    .fil0 {fill:#212121;fill-rule:nonzero}
   ]]>
  </style>
 </defs>
 <g id="Layer_x0020_1">
  <metadata id="CorelCorpID_0Corel-Layer"/>
  <g id="_454111312">
   <path id="_454112824" class="fil0" d="M678.978 255.999l688.845 0c39.4819,0 75.3544,16.1303 101.339,42.1146 25.9843,25.9866 42.1146,61.8579 42.1146,101.34l0 835.9c0,39.4819 -16.1303,75.3544 -42.1146,101.339 -25.9843,25.9843 -61.8567,42.1146 -101.339,42.1146l-688.845 0c-17.6728,0 -32.0008,-14.328 -32.0008,-32.0008l0 -1058.81c0,-17.6728 14.328,-32.0008 32.0008,-32.0008zm688.845 64.0016l-656.845 0 0 994.804 656.845 0c21.8162,0 41.674,-8.94922 56.0882,-23.3634 14.4142,-14.4142 23.3634,-34.2721 23.3634,-56.0882l0 -835.9c0,-21.8162 -8.94804,-41.674 -23.3634,-56.0894 -14.4142,-14.4142 -34.2721,-23.3634 -56.0882,-23.3634z"/>
   <path id="_454111360" class="fil0" d="M536.72 463.766c0,17.6728 14.328,32.0008 32.0008,32.0008 17.6728,0 32.0008,-14.328 32.0008,-32.0008 0,-5.94567 6.40749,-12.7004 16.7658,-18.8114 15.3768,-9.07087 37.3441,-14.6823 62.2536,-14.6823 24.9095,0 46.878,5.61142 62.2536,14.6823 10.3571,6.10985 16.7658,12.8646 16.7658,18.8114 0,17.6728 14.328,32.0008 32.0008,32.0008 17.6728,0 32.0008,-14.328 32.0008,-32.0008 0,-30.2256 -18.4477,-56.2205 -48.2681,-73.8107 -24.8032,-14.6327 -58.3512,-23.6847 -94.7528,-23.6847 -36.4016,0 -69.9485,9.05198 -94.7528,23.6847 -29.8217,17.5925 -48.2681,43.5886 -48.2681,73.8107z"/>
   <path id="_454111984" class="fil0" d="M536.72 618.319c0,17.6728 14.328,32.0008 32.0008,32.0008 17.6728,0 32.0008,-14.328 32.0008,-32.0008 0,-5.94567 6.40749,-12.7004 16.7658,-18.8114 15.3768,-9.07087 37.3441,-14.6823 62.2536,-14.6823 24.9095,0 46.878,5.61142 62.2536,14.6823 10.3571,6.10985 16.7658,12.8646 16.7658,18.8114 0,17.6728 14.328,32.0008 32.0008,32.0008 17.6728,0 32.0008,-14.328 32.0008,-32.0008 0,-30.2256 -18.4477,-56.2205 -48.2681,-73.8107 -24.8032,-14.6327 -58.3512,-23.6847 -94.7528,-23.6847 -36.4016,0 -69.9485,9.05198 -94.7528,23.6847 -29.8217,17.5925 -48.2681,43.5886 -48.2681,73.8107z"/>
   <path id="_454111792" class="fil0" d="M536.72 772.874c0,17.6728 14.328,32.0008 32.0008,32.0008 17.6728,0 32.0008,-14.328 32.0008,-32.0008 0,-5.94567 6.40749,-12.7004 16.7658,-18.8114 15.3768,-9.07087 37.3441,-14.6823 62.2536,-14.6823 24.9095,0 46.878,5.61142 62.2536,14.6823 10.3571,6.10985 16.7658,12.8646 16.7658,18.8114 0,17.6728 14.328,32.0008 32.0008,32.0008 17.6728,0 32.0008,-14.328 32.0008,-32.0008 0,-30.2256 -18.4477,-56.2205 -48.2681,-73.8107 -24.8032,-14.6327 -58.3512,-23.6847 -94.7528,-23.6847 -36.4016,0 -69.9485,9.05198 -94.7528,23.6847 -29.8217,17.5925 -48.2681,43.5886 -48.2681,73.8107z"/>
   <path id="_454111648" class="fil0" d="M536.72 927.428c0,17.6728 14.328,32.0008 32.0008,32.0008 17.6728,0 32.0008,-14.328 32.0008,-32.0008 0,-5.94567 6.40749,-12.7004 16.7658,-18.8114 15.3768,-9.07087 37.3441,-14.6823 62.2536,-14.6823 24.9095,0 46.878,5.61142 62.2536,14.6823 10.3571,6.10985 16.7658,12.8646 16.7658,18.8114 0,17.6728 14.328,32.0008 32.0008,32.0008 17.6728,0 32.0008,-14.328 32.0008,-32.0008 0,-30.2256 -18.4477,-56.2205 -48.2681,-73.8107 -24.8032,-14.6327 -58.3512,-23.6847 -94.7528,-23.6847 -36.4016,0 -69.9485,9.05198 -94.7528,23.6847 -29.8217,17.5925 -48.2681,43.5886 -48.2681,73.8107z"/>
   <path id="_454111864" class="fil0" d="M536.72 1081.98c0,17.6728 14.328,32.0008 32.0008,32.0008 17.6728,0 32.0008,-14.328 32.0008,-32.0008 0,-5.94685 6.40867,-12.7016 16.7658,-18.8114 15.3768,-9.07087 37.3441,-14.6823 62.2536,-14.6823 24.9095,0 46.878,5.61142 62.2536,14.6823 10.3571,6.10985 16.7658,12.8646 16.7658,18.8114 0,17.6728 14.328,32.0008 32.0008,32.0008 17.6728,0 32.0008,-14.328 32.0008,-32.0008 0,-30.2244 -18.4465,-56.2193 -48.2681,-73.8107 -24.8032,-14.6327 -58.3512,-23.6847 -94.7528,-23.6847 -36.4016,0 -69.9485,9.05198 -94.7528,23.6847 -29.8217,17.5925 -48.2681,43.5886 -48.2681,73.8107z"/>
   <path id="_454111624" class="fil0" d="M536.72 1236.54c0,17.6728 14.328,32.0008 32.0008,32.0008 17.6728,0 32.0008,-14.328 32.0008,-32.0008 0,-5.94685 6.40867,-12.7016 16.7658,-18.8114 15.3768,-9.07087 37.3441,-14.6823 62.2536,-14.6823 24.9095,0 46.878,5.61142 62.2536,14.6823 10.3571,6.10985 16.7658,12.8646 16.7658,18.8114 0,17.6728 14.328,32.0008 32.0008,32.0008 17.6728,0 32.0008,-14.328 32.0008,-32.0008 0,-30.2244 -18.4465,-56.2193 -48.2681,-73.8107 -24.8032,-14.6327 -58.3512,-23.6847 -94.7528,-23.6847 -36.4016,0 -69.9485,9.05198 -94.7528,23.6847 -29.8217,17.5925 -48.2681,43.5886 -48.2681,73.8107z"/>
   <path id="_454111552" class="fil0" d="M1511.28 1235.35l0 111.452c0,39.4831 -16.1303,75.3544 -42.1146,101.341 -25.9866,25.9843 -61.8579,42.1146 -101.34,42.1146l-176.242 0c-8.10473,0 -15.5032,-3.01418 -21.1417,-7.98071l-5.48504 -4.49174c-40.1044,-32.8217 -76.9229,-62.9599 -92.3292,-98.7001l-64.2119 -0.282284 -28.4126 0 0 -0.125197 -0.125197 0 0.125197 -31.8756 -0.140551 31.9996c-9.45473,-0.0401575 -17.9291,-4.17874 -23.7591,-10.7232 -7.16339,13.037 -9.02599,23.7366 -7.0063,32.9055 2.51221,11.4 10.9193,22.8272 22.8012,34.6087l0.0649607 -0.0649607c12.5528,12.4406 12.6437,32.7024 0.20315,45.2552 -6.2563,6.313 -14.4921,9.47245 -22.7292,9.47245l0 0.00236221 -270.456 0c-17.6728,0 -32.0008,-14.328 -32.0008,-32.0008l0 -111.455c0,-17.6728 14.328,-32.0008 32.0008,-32.0008l252.639 0c9.66261,0 18.3248,4.2815 24.1925,11.0528 5.87008,-6.77127 14.5347,-11.0516 24.1902,-11.0504l0 -0.00236221 387.822 0c21.8173,0 41.6752,-8.94922 56.0894,-23.3634 14.4142,-14.4142 23.3634,-34.2721 23.3634,-56.0882l64.0016 0zm-87.365 167.543c12.6012,-12.6012 21.0236,-29.361 22.9453,-47.9528 -22.6914,15.0662 -49.878,23.863 -79.0347,23.863l-218.682 0c13.7433,14.5122 33.137,30.5091 53.8347,47.4532l164.848 0c21.8162,0 41.674,-8.94804 56.0894,-23.3634zm-712.933 23.3634l178.885 0c-1.30984,-3.75709 -2.40473,-7.59449 -3.26929,-11.5217 -2.55591,-11.6043 -3.06733,-23.5382 -1.16929,-35.9315l-174.447 0 0 47.4532z"/>
   <path id="_454112032" class="fil0" d="M1129.09 1346.09c2.60433,21.8303 37.5012,50.3918 76.3536,82.1883 82.2402,67.3028 178.399,145.999 122.663,277.374l-29.3752 -12.3756 29.4591 12.4973c-6.90119,16.2697 -25.6866,23.863 -41.9563,16.9618 -5.47087,-2.32087 -9.95906,-5.98583 -13.2461,-10.4457l-41.3044 -47.5394 -44.1544 107.378 -29.5004 -12.1252 29.5961 12.1701c-6.72048,16.3453 -25.4209,24.1465 -41.7662,17.426 -14.3669,-5.9067 -22.1303,-21.0709 -19.2366,-35.7544 14.928,-109.236 -65.9233,-169.169 -133.951,-219.58 -80.4237,-59.5961 -147.176,-109.064 -88.0536,-204.417l27.1252 16.7504 -27.1961 -16.8626c6.61418,-10.6689 18.4843,-16.0902 30.1902,-15l162.503 0.709843 -0.125197 31.8756 0.13937 -31.9996c17.2134,0.0744095 31.1906,13.7291 31.8355,30.7689zm35.8536 131.688c-40.0996,-32.8181 -76.9123,-62.9516 -92.3162,-98.6883l-120.652 -0.527953c-10.8059,38.1166 30.2977,68.5867 78.6969,104.452 53.9363,39.9685 114.567,84.9048 144.002,152.645l16.6784 -40.5603c1.71851,-5.42245 4.90276,-10.4563 9.51142,-14.4602 13.3406,-11.5913 33.5528,-10.1728 45.1441,3.16772l-24.1559 20.9882 24.1252 -20.8748 31.9961 36.8256c-8.41418,-57.339 -63.8552,-102.723 -113.03,-142.967z"/>
  </g>
 </g>
 <rect class="fil1" width="2048" height="2048"/>
</svg>
