<?xml version="1.0" encoding="UTF-8"?>
<!DOCTYPE svg PUBLIC "-//W3C//DTD SVG 1.1//EN" "http://www.w3.org/Graphics/SVG/1.1/DTD/svg11.dtd">
<!-- Creator: CorelDRAW -->
<svg xmlns="http://www.w3.org/2000/svg" xml:space="preserve" width="2048px" height="2048px" style="shape-rendering:geometricPrecision; text-rendering:geometricPrecision; image-rendering:optimizeQuality; fill-rule:evenodd; clip-rule:evenodd"
viewBox="0 0 2048 2048"
 xmlns:xlink="http://www.w3.org/1999/xlink">
 <defs>
  <style type="text/css">
   <![CDATA[
    .fil1 {fill:none}
    .fil0 {fill:#212121;fill-rule:nonzero}
   ]]>
  </style>
 </defs>
 <g id="Layer_x0020_1">
  <metadata id="CorelCorpID_0Corel-Layer"/>
  <g id="_559822392">
   <path id="_559822728" class="fil0" d="M1657.53 872.581l-1309.46 -350.866 493.348 993.204 338.593 -451.457 -0.100394 -0.0744095c4.2815,-5.70827 10.1043,-9.57757 16.4563,-11.4662l461.159 -179.341zm-1361.26 -430.917l1470.41 393.994c10.174,2.18268 19.089,9.2752 23.1414,19.6973 6.40512,16.4705 -1.75512,35.0173 -18.2256,41.4225l-11.5984 -29.824 11.5004 29.7496 -545.972 212.323 -362.469 483.291c-3.03189,4.9063 -7.4256,9.05434 -12.9709,11.8087 -15.828,7.86142 -35.0339,1.40433 -42.8953,-14.4236l28.6595 -14.2358 -28.6252 14.1248 -546.825 -1100.87c-4.18111,-7.12796 -5.61969,-15.8622 -3.31181,-24.4748 4.57323,-17.0705 22.1209,-27.2008 39.1914,-22.6276l-0.0106299 0.0401575z"/>
   <path id="_559822560" class="fil0" d="M305.626 445.908c-14.7047,-9.73347 -34.5177,-5.70473 -44.2512,9.00001 -9.73347,14.7047 -5.70473,34.5177 9.00001,44.2512l917.512 610.055c14.7047,9.73347 34.5177,5.70473 44.2512,-9.00001 9.73347,-14.7047 5.70473,-34.5177 -9.00001,-44.2512l-917.512 -610.055z"/>
   <path id="_559822608" class="fil0" d="M1237.39 1080.09c-1.38071,-17.6043 -16.7717,-30.7559 -34.376,-29.3752 -17.6043,1.38071 -30.7559,16.7717 -29.3752,34.376l28.9217 361.603 -132.165 -169.905c-10.8378,-13.9441 -30.9307,-16.4622 -44.8748,-5.62441 -13.9441,10.8378 -16.4622,30.9307 -5.62441,44.8748l197.058 253.327c6.32599,8.79686 16.9654,14.1662 28.5532,13.2402 17.6162,-1.40788 30.7547,-16.8331 29.3469,-34.4492l-0.0259843 0.00236221 -37.4374 -468.069z"/>
  </g>
 </g>
 <rect class="fil1" width="2048" height="2048"/>
</svg>
