<?xml version="1.0" encoding="UTF-8"?>
<!DOCTYPE svg PUBLIC "-//W3C//DTD SVG 1.1//EN" "http://www.w3.org/Graphics/SVG/1.1/DTD/svg11.dtd">
<!-- Creator: CorelDRAW -->
<svg xmlns="http://www.w3.org/2000/svg" xml:space="preserve" width="2048px" height="2048px" style="shape-rendering:geometricPrecision; text-rendering:geometricPrecision; image-rendering:optimizeQuality; fill-rule:evenodd; clip-rule:evenodd"
viewBox="0 0 2048 2048"
 xmlns:xlink="http://www.w3.org/1999/xlink">
 <defs>
  <style type="text/css">
   <![CDATA[
    .fil1 {fill:none}
    .fil0 {fill:#212121;fill-rule:nonzero}
   ]]>
  </style>
 </defs>
 <g id="Layer_x0020_1">
  <metadata id="CorelCorpID_0Corel-Layer"/>
  <g id="_559824072">
   <path id="_559824192" class="fil0" d="M1024 255.999l0.0011811 0c50.6209,0 96.6202,20.687 129.946,54.013 33.326,33.326 54.013,79.3253 54.013,129.946l0 1168.08c0,50.6209 -20.687,96.6202 -54.013,129.946 -33.326,33.326 -79.3253,54.013 -129.946,54.013l-0.0011811 0c-50.6209,0 -96.6202,-20.687 -129.946,-54.013 -33.326,-33.326 -54.013,-79.3253 -54.013,-129.946l0 -1168.08c0,-50.6209 20.687,-96.6202 54.013,-129.946 33.326,-33.326 79.3253,-54.013 129.946,-54.013zm0.0011811 64.0016l-0.0011811 0c-32.9551,0 -62.9398,13.5059 -84.6957,35.2618 -21.7559,21.7559 -35.2618,51.7406 -35.2618,84.6957l0 1168.08c0,32.9551 13.5059,62.9398 35.2618,84.6957 21.7559,21.7559 51.7406,35.2618 84.6957,35.2618l0.0011811 0c32.9551,0 62.9398,-13.5059 84.6957,-35.2618 21.7559,-21.7559 35.2618,-51.7406 35.2618,-84.6957l0 -1168.08c0,-32.9551 -13.5059,-62.9398 -35.2618,-84.6957 -21.7559,-21.7559 -51.7406,-35.2618 -84.6957,-35.2618z"/>
   <path id="_559823952" class="fil0" d="M1521.93 526.324l-0.288189 -0.288189c-23.2784,-23.191 -53.9611,-34.7894 -84.665,-34.7894 -30.776,0 -61.5284,11.6504 -84.8257,34.9477l-825.961 825.96c-23.2973,23.2984 -34.9477,54.0508 -34.9477,84.8268 0,30.7181 11.6091,61.4138 34.8213,84.6957l0.288189 0.288189c23.2784,23.191 53.9599,34.7894 84.665,34.7894 30.7748,0 61.5284,-11.6504 84.8257,-34.9477l825.96 -825.96 0.0011811 -0.0011811c23.2973,-23.2984 34.9477,-54.0496 34.9477,-84.8245 0,-30.7193 -11.6091,-61.415 -34.8213,-84.6969zm45.5516 -44.9445c35.5111,35.7449 53.2713,82.7056 53.2713,129.641 0,47.1248 -17.9008,94.2757 -53.6989,130.075l-0.0011811 0.0011811 -825.96 825.96c-35.7981,35.7981 -82.9512,53.6989 -130.076,53.6989 -47.126,0 -94.278,-17.9008 -130.076,-53.6989l-0.00236221 0.00236221 -0.427559 -0.43937c-35.5099,-35.7449 -53.2701,-82.7044 -53.2701,-129.639 0,-47.126 17.9008,-94.278 53.6989,-130.077l825.961 -825.96c35.7981,-35.7981 82.9501,-53.6989 130.076,-53.6989 47.1248,0 94.278,17.9008 130.076,53.6989l0.00236221 -0.00236221 0.426378 0.438189zm-45.5516 44.9445l-0.0377953 -0.0377953 -0.0921261 -0.0897638m-995.698 995.518l0.0921261 0.0897638m-0.129921 -0.127559l0.0377953 0.0377953"/>
   <path id="_559824264" class="fil0" d="M1792 1024l0 0.0011811c0,50.6209 -20.687,96.6202 -54.013,129.946 -33.326,33.326 -79.3253,54.013 -129.946,54.013l-1168.08 0c-50.6209,0 -96.6202,-20.687 -129.946,-54.013 -33.326,-33.326 -54.013,-79.3253 -54.013,-129.946l0 -0.0011811c0,-50.6209 20.687,-96.6202 54.013,-129.946 33.326,-33.326 79.3253,-54.013 129.946,-54.013l1168.08 0c50.6209,0 96.6202,20.687 129.946,54.013 33.326,33.326 54.013,79.3253 54.013,129.946zm-64.0016 0.0011811l0 -0.0011811c0,-32.9551 -13.5059,-62.9398 -35.2618,-84.6957 -21.7559,-21.7559 -51.7406,-35.2618 -84.6957,-35.2618l-1168.08 0c-32.9551,0 -62.9398,13.5059 -84.6957,35.2618 -21.7559,21.7559 -35.2618,51.7406 -35.2618,84.6957l0 0.0011811c0,32.9551 13.5059,62.9398 35.2618,84.6957 21.7559,21.7559 51.7406,35.2618 84.6957,35.2618l1168.08 0c32.9551,0 62.9398,-13.5059 84.6957,-35.2618 21.7559,-21.7559 35.2618,-51.7406 35.2618,-84.6957z"/>
   <path id="_559824096" class="fil0" d="M1567.58 1566.53c-0.308268,0.32126 -0.622441,0.635434 -0.94252,0.944883 -35.7461,35.5181 -82.7115,53.2819 -129.653,53.2819 -47.1248,0 -94.278,-17.9008 -130.076,-53.6989l-825.96 -825.96 -0.0011811 -0.0011811c-35.7981,-35.7981 -53.6989,-82.9501 -53.6989,-130.075 0,-46.8969 17.7307,-93.8162 53.1815,-129.55 0.307087,-0.32126 0.62126,-0.635434 0.941339,-0.943702 35.7461,-35.517 82.7127,-53.2819 129.653,-53.2819 47.126,0 94.278,17.9008 130.076,53.6989l825.961 825.96c35.7981,35.7992 53.6989,82.9512 53.6989,130.077 0,46.8945 -17.7307,93.8139 -53.1804,129.548zm-130.596 -9.77481c30.7099,0 61.3949,-11.602 84.6745,-34.7988l0.148819 -0.152362 0.00236221 0.00236221c23.2973,-23.2973 34.9488,-54.0496 34.9488,-84.8245 0,-30.776 -11.6504,-61.5284 -34.9477,-84.8268l-825.961 -825.96c-23.2973,-23.2973 -54.0496,-34.9477 -84.8257,-34.9477 -30.7087,0 -61.3949,11.602 -84.6745,34.7988l-0.148819 0.152362 -0.00236221 -0.00236221 -0.0011811 0.0011811c-23.2973,23.2973 -34.9477,54.0485 -34.9477,84.8245 0,30.7748 11.6504,61.5272 34.9477,84.8245l0.0011811 0.0011811 825.96 825.96c23.2973,23.2973 54.0508,34.9477 84.8257,34.9477z"/>
  </g>
 </g>
 <rect class="fil1" width="2048" height="2048"/>
</svg>
