<?xml version="1.0" encoding="UTF-8"?>
<!DOCTYPE svg PUBLIC "-//W3C//DTD SVG 1.1//EN" "http://www.w3.org/Graphics/SVG/1.1/DTD/svg11.dtd">
<!-- Creator: CorelDRAW -->
<svg xmlns="http://www.w3.org/2000/svg" xml:space="preserve" width="2048px" height="2048px" style="shape-rendering:geometricPrecision; text-rendering:geometricPrecision; image-rendering:optimizeQuality; fill-rule:evenodd; clip-rule:evenodd"
viewBox="0 0 2048 2048"
 xmlns:xlink="http://www.w3.org/1999/xlink">
 <defs>
  <style type="text/css">
   <![CDATA[
    .fil1 {fill:none}
    .fil0 {fill:#212121;fill-rule:nonzero}
   ]]>
  </style>
 </defs>
 <g id="Layer_x0020_1">
  <metadata id="CorelCorpID_0Corel-Layer"/>
  <g id="_559824504">
   <path id="_559824840" class="fil0" d="M288 462.52l1472 0c17.6728,0 32.0008,14.328 32.0008,32.0008l0 1058.96c0,17.6728 -14.328,32.0008 -32.0008,32.0008l-1472 0c-17.6728,0 -32.0008,-14.328 -32.0008,-32.0008l0 -1058.96c0,-17.6728 14.328,-32.0008 32.0008,-32.0008zm1440 64.0016l-1408 0 0 994.958 1408 0 0 -994.958z"/>
   <path id="_559825008" class="fil0" d="M440.758 594.063l1166.48 0c17.6728,0 32.0008,14.328 32.0008,32.0008l0 795.873c0,17.6728 -14.328,32.0008 -32.0008,32.0008l-1166.48 0c-17.6728,0 -32.0008,-14.328 -32.0008,-32.0008l0 -795.873c0,-17.6728 14.328,-32.0008 32.0008,-32.0008zm1134.48 64.0016l-1102.48 0 0 731.872 1102.48 0 0 -731.872z"/>
   <path id="_559824816" class="fil0" d="M1376.67 686.063c38.4721,0 73.3075,15.5988 98.5217,40.813 25.2142,25.2142 40.813,60.0497 40.813,98.5217 0,38.4721 -15.5988,73.3075 -40.813,98.5217 -25.2142,25.2142 -60.0497,40.813 -98.5217,40.813 -38.4721,0 -73.3075,-15.5988 -98.5217,-40.813 -25.2142,-25.2142 -40.813,-60.0497 -40.813,-98.5217 0,-38.4721 15.5988,-73.3075 40.813,-98.5217 25.2154,-25.2166 60.0485,-40.813 98.5217,-40.813zm53.2713 86.0635c-13.6288,-13.6288 -32.465,-22.0618 -53.2713,-22.0618 -20.8063,0 -39.6414,8.43072 -53.2713,22.0618 -13.6288,13.6288 -22.0618,32.465 -22.0618,53.2713 0,20.8063 8.43308,39.6426 22.0618,53.2713 13.6288,13.6288 32.465,22.0618 53.2713,22.0618 20.8063,0 39.6426,-8.43308 53.2713,-22.0618 13.6288,-13.6288 22.0618,-32.465 22.0618,-53.2713 0,-20.8063 -8.43308,-39.6426 -22.0618,-53.2713z"/>
   <path id="_559824360" class="fil0" d="M960.582 1453.94l-461.368 0c-17.6728,0 -32.0008,-14.328 -32.0008,-32.0008 0,-7.38898 2.50748,-14.1921 6.71339,-19.6099l229.152 -365.905 27 16.8756 -27.1205 -16.9843c9.37914,-14.9776 29.1272,-19.5154 44.1048,-10.1362 5.21811,3.26811 9.16772,7.79646 11.7047,12.9413l229.16 365.919 0.135827 -0.0850394c9.37914,14.9776 4.84134,34.7256 -10.1362,44.1048 -5.39764,3.38032 -11.4165,4.95355 -17.3445,4.88032zm-403.759 -64.0016l346.51 0 -173.255 -276.65 -173.255 276.65z"/>
   <path id="_559824552" class="fil0" d="M1299.64 1453.94l-338.7 0c-12.5941,0 -23.4862,-7.27678 -28.7091,-17.8547l-136.276 -217.602 -0.135827 0.0850394c-7.33701,-11.7165 -6.15827,-26.3516 1.87323,-36.6591l167.778 -267.904 27 16.8756 -27.1205 -16.9843c9.37914,-14.9776 29.1272,-19.5154 44.1048,-10.1362 5.2193,3.26811 9.16772,7.79646 11.7047,12.9413l305.825 488.338 0.135827 -0.0850394c9.37914,14.9776 4.84134,34.7256 -10.1362,44.1048 -5.39764,3.38032 -11.4165,4.95355 -17.3445,4.88032zm-321.173 -64.0016l263.923 0 -249.92 -399.069 -131.962 210.715 117.959 188.354z"/>
  </g>
 </g>
 <rect class="fil1" width="2048" height="2048"/>
</svg>
