<?xml version="1.0" encoding="UTF-8"?>
<!DOCTYPE svg PUBLIC "-//W3C//DTD SVG 1.1//EN" "http://www.w3.org/Graphics/SVG/1.1/DTD/svg11.dtd">
<!-- Creator: CorelDRAW -->
<svg xmlns="http://www.w3.org/2000/svg" xml:space="preserve" width="2048px" height="2048px" style="shape-rendering:geometricPrecision; text-rendering:geometricPrecision; image-rendering:optimizeQuality; fill-rule:evenodd; clip-rule:evenodd"
viewBox="0 0 2048 2048"
 xmlns:xlink="http://www.w3.org/1999/xlink">
 <defs>
  <style type="text/css">
   <![CDATA[
    .fil1 {fill:none}
    .fil0 {fill:#212121;fill-rule:nonzero}
   ]]>
  </style>
 </defs>
 <g id="Layer_x0020_1">
  <metadata id="CorelCorpID_0Corel-Layer"/>
  <g id="_445815648">
   <path id="_445817352" class="fil0" d="M1054.46 858.186c2.82992,-17.3965 -8.97875,-33.7949 -26.3752,-36.6248 -17.3965,-2.82992 -33.7949,8.97875 -36.6248,26.3752l-52.7776 324.339c-2.82992,17.3965 8.97875,33.7949 26.3752,36.6248 17.3965,2.82992 33.7949,-8.97875 36.6248,-26.3752l52.7776 -324.339z"/>
   <path id="_445817592" class="fil0" d="M1054.46 847.936c-2.82992,-17.3965 -19.2284,-29.2051 -36.6248,-26.3752 -17.3965,2.82992 -29.2051,19.2284 -26.3752,36.6248l52.7776 324.339c2.82992,17.3965 19.2284,29.2051 36.6248,26.3752 17.3965,-2.82992 29.2051,-19.2284 26.3752,-36.6248l-52.7776 -324.339z"/>
   <path id="_445817616" class="fil0" d="M1098.51 1200.03c12.4949,-12.4949 12.4949,-32.7555 0,-45.2504 -12.4949,-12.4949 -32.7555,-12.4949 -45.2504,0 -4.14213,4.14213 -8.83465,7.3004 -13.7823,9.34961 -5.04685,2.09055 -10.6524,3.19725 -16.5177,3.19725 -5.86536,0 -11.4709,-1.10669 -16.5177,-3.19725 -4.94764,-2.04921 -9.64016,-5.20748 -13.7823,-9.34961 -12.4949,-12.4949 -32.7555,-12.4949 -45.2504,0 -12.4949,12.4949 -12.4949,32.7555 0,45.2504 9.89056,9.89056 21.7406,17.6977 34.7823,23.1 12.9413,5.36103 26.7851,8.19804 40.7681,8.19804 13.9831,0 27.8268,-2.83701 40.7681,-8.19804 13.0417,-5.40237 24.8918,-13.2095 34.7823,-23.1z"/>
   <path id="_445817184" class="fil0" d="M1022.96 455.593c184.515,0 351.567,74.7934 472.489,195.716 120.923,120.921 195.716,287.973 195.716,472.489 0,184.515 -74.7934,351.567 -195.716,472.489 -120.921,120.923 -287.973,195.716 -472.489,195.716 -184.515,0 -351.567,-74.7934 -472.489,-195.716 -120.923,-120.921 -195.716,-287.973 -195.716,-472.489 0,-184.515 74.7934,-351.567 195.716,-472.489 120.921,-120.923 287.973,-195.716 472.489,-195.716zm427.238 240.966c-109.336,-109.337 -260.388,-176.965 -427.238,-176.965 -166.85,0 -317.902,67.6276 -427.238,176.965 -109.337,109.336 -176.965,260.388 -176.965,427.238 0,166.85 67.6276,317.902 176.965,427.238 109.336,109.337 260.388,176.965 427.238,176.965 166.85,0 317.902,-67.6276 427.238,-176.965 109.337,-109.336 176.965,-260.388 176.965,-427.238 0,-166.85 -67.6276,-317.902 -176.965,-427.238z"/>
   <path id="_445817064" class="fil0" d="M1054.96 487.594c0,-17.6728 -14.328,-32.0008 -32.0008,-32.0008 -17.6728,0 -32.0008,14.328 -32.0008,32.0008l0 99.7961c0,17.6728 14.328,32.0008 32.0008,32.0008 17.6728,0 32.0008,-14.328 32.0008,-32.0008l0 -99.7961z"/>
   <path id="_445816872" class="fil0" d="M1368.69 588.704c8.76733,-15.2563 3.5067,-34.7327 -11.7496,-43.5 -15.2563,-8.76733 -34.7327,-3.5067 -43.5,11.7496l-49.8981 86.4261c-8.76733,15.2563 -3.5067,34.7327 11.7496,43.5 15.2563,8.76733 34.7327,3.5067 43.5,-11.7496l49.8981 -86.4261z"/>
   <path id="_445816656" class="fil0" d="M1589.8 833.32c15.2563,-8.76733 20.5169,-28.2437 11.7496,-43.5 -8.76733,-15.2563 -28.2437,-20.5169 -43.5,-11.7496l-86.4261 49.8981c-15.2563,8.76733 -20.5169,28.2437 -11.7496,43.5 8.76733,15.2563 28.2437,20.5169 43.5,11.7496l86.4261 -49.8981z"/>
   <path id="_445816560" class="fil0" d="M1659.16 1155.8c17.6728,0 32.0008,-14.328 32.0008,-32.0008 0,-17.6728 -14.328,-32.0008 -32.0008,-32.0008l-99.7961 0c-17.6728,0 -32.0008,14.328 -32.0008,32.0008 0,17.6728 14.328,32.0008 32.0008,32.0008l99.7961 0z"/>
   <path id="_445816488" class="fil0" d="M1558.05 1469.52c15.2563,8.76733 34.7327,3.5067 43.5,-11.7496 8.76733,-15.2563 3.5067,-34.7327 -11.7496,-43.5l-86.4261 -49.8981c-15.2563,-8.76733 -34.7327,-3.5067 -43.5,11.7496 -8.76733,15.2563 -3.5067,34.7327 11.7496,43.5l86.4261 49.8981z"/>
   <path id="_445816296" class="fil0" d="M1313.44 1690.64c8.76733,15.2563 28.2437,20.5169 43.5,11.7496 15.2563,-8.76733 20.5169,-28.2437 11.7496,-43.5l-49.8981 -86.4261c-8.76733,-15.2563 -28.2437,-20.5169 -43.5,-11.7496 -15.2563,8.76733 -20.5169,28.2437 -11.7496,43.5l49.8981 86.4261z"/>
   <path id="_445816368" class="fil0" d="M990.959 1760c0,17.6728 14.328,32.0008 32.0008,32.0008 17.6728,0 32.0008,-14.328 32.0008,-32.0008l0 -99.7961c0,-17.6728 -14.328,-32.0008 -32.0008,-32.0008 -17.6728,0 -32.0008,14.328 -32.0008,32.0008l0 99.7961z"/>
   <path id="_445816440" class="fil0" d="M677.233 1658.89c-8.76733,15.2563 -3.5067,34.7327 11.7496,43.5 15.2563,8.76733 34.7327,3.5067 43.5,-11.7496l49.8981 -86.4261c8.76733,-15.2563 3.5067,-34.7327 -11.7496,-43.5 -15.2563,-8.76733 -34.7327,-3.5067 -43.5,11.7496l-49.8981 86.4261z"/>
   <path id="_445816416" class="fil0" d="M456.116 1414.27c-15.2563,8.76733 -20.5169,28.2437 -11.7496,43.5 8.76733,15.2563 28.2437,20.5169 43.5,11.7496l86.4261 -49.8981c15.2563,-8.76733 20.5169,-28.2437 11.7496,-43.5 -8.76733,-15.2563 -28.2437,-20.5169 -43.5,-11.7496l-86.4261 49.8981z"/>
   <path id="_445816512" class="fil0" d="M386.756 1091.8c-17.6728,0 -32.0008,14.328 -32.0008,32.0008 0,17.6728 14.328,32.0008 32.0008,32.0008l99.7961 0c17.6728,0 32.0008,-14.328 32.0008,-32.0008 0,-17.6728 -14.328,-32.0008 -32.0008,-32.0008l-99.7961 0z"/>
   <path id="_445816752" class="fil0" d="M487.867 778.071c-15.2563,-8.76733 -34.7327,-3.5067 -43.5,11.7496 -8.76733,15.2563 -3.5067,34.7327 11.7496,43.5l86.4261 49.8981c15.2563,8.76733 34.7327,3.5067 43.5,-11.7496 8.76733,-15.2563 3.5067,-34.7327 -11.7496,-43.5l-86.4261 -49.8981z"/>
   <path id="_445816056" class="fil0" d="M732.482 556.954c-8.76733,-15.2563 -28.2437,-20.5169 -43.5,-11.7496 -15.2563,8.76733 -20.5169,28.2437 -11.7496,43.5l49.8981 86.4261c8.76733,15.2563 28.2437,20.5169 43.5,11.7496 15.2563,-8.76733 20.5169,-28.2437 11.7496,-43.5l-49.8981 -86.4261z"/>
   <path id="_445815696" class="fil0" d="M810.892 255.999l424.135 0c17.6728,0 32.0008,14.328 32.0008,32.0008l0 99.7973c0,17.6728 -14.328,32.0008 -32.0008,32.0008l-424.135 0c-17.6728,0 -32.0008,-14.328 -32.0008,-32.0008l0 -99.7973c0,-17.6728 14.328,-32.0008 32.0008,-32.0008zm392.135 64.0016l-360.134 0 0 35.7957 360.134 0 0 -35.7957z"/>
   <path id="_445815888" class="fil0" d="M990.959 487.594c0,17.6728 14.328,32.0008 32.0008,32.0008 17.6728,0 32.0008,-14.328 32.0008,-32.0008l0 -99.7961c0,-17.6728 -14.328,-32.0008 -32.0008,-32.0008 -17.6728,0 -32.0008,14.328 -32.0008,32.0008l0 99.7961z"/>
   <path id="_445815864" class="fil0" d="M1677.01 778.711c15.2563,-8.76733 20.5169,-28.2437 11.7496,-43.5 -8.76733,-15.2563 -28.2437,-20.5169 -43.5,-11.7496l-92.0918 53.1685c-15.2563,8.76733 -20.5169,28.2437 -11.7496,43.5 8.76733,15.2563 28.2437,20.5169 43.5,11.7496l92.0918 -53.1685z"/>
   <path id="_445815480" class="fil0" d="M1647.57 663.747c-8.83583,-15.2563 -28.3689,-20.4603 -43.6252,-11.6244 -15.2563,8.83583 -20.4603,28.3689 -11.6244,43.6252l82.3749 142.677c8.83583,15.2563 28.3689,20.4603 43.6252,11.6244 15.2563,-8.83583 20.4603,-28.3689 11.6244,-43.6252l-82.3749 -142.677z"/>
   <path id="_445816080" class="fil0" d="M402.743 723.461c-15.2563,-8.76733 -34.7327,-3.5067 -43.5,11.7496 -8.76733,15.2563 -3.5067,34.7327 11.7496,43.5l92.0918 53.1685c15.2563,8.76733 34.7327,3.5067 43.5,-11.7496 8.76733,-15.2563 3.5067,-34.7327 -11.7496,-43.5l-92.0918 -53.1685z"/>
   <path id="_445815768" class="fil0" d="M455.683 695.748c8.83583,-15.2563 3.63189,-34.7894 -11.6244,-43.6252 -15.2563,-8.83583 -34.7894,-3.63189 -43.6252,11.6244l-82.3749 142.677c-8.83583,15.2563 -3.63189,34.7894 11.6244,43.6252 15.2563,8.83583 34.7894,3.63189 43.6252,-11.6244l82.3749 -142.677z"/>
  </g>
 </g>
 <rect class="fil1" width="2048" height="2048"/>
</svg>
