<?xml version="1.0" encoding="UTF-8"?>
<!DOCTYPE svg PUBLIC "-//W3C//DTD SVG 1.1//EN" "http://www.w3.org/Graphics/SVG/1.1/DTD/svg11.dtd">
<!-- Creator: CorelDRAW -->
<svg xmlns="http://www.w3.org/2000/svg" xml:space="preserve" width="2048px" height="2048px" style="shape-rendering:geometricPrecision; text-rendering:geometricPrecision; image-rendering:optimizeQuality; fill-rule:evenodd; clip-rule:evenodd"
viewBox="0 0 2048 2048"
 xmlns:xlink="http://www.w3.org/1999/xlink">
 <defs>
  <style type="text/css">
   <![CDATA[
    .fil1 {fill:none}
    .fil0 {fill:#212121;fill-rule:nonzero}
   ]]>
  </style>
 </defs>
 <g id="Layer_x0020_1">
  <metadata id="CorelCorpID_0Corel-Layer"/>
  <g id="_557070224">
   <path id="_557070656" class="fil0" d="M561.826 255.999c-17.6728,0 -32.0008,14.328 -32.0008,32.0008 0,17.6728 14.328,32.0008 32.0008,32.0008l924.347 0c17.6728,0 32.0008,-14.328 32.0008,-32.0008 0,-17.6728 -14.328,-32.0008 -32.0008,-32.0008l-924.347 0z"/>
   <path id="_557070560" class="fil0" d="M380.869 429.174c-17.6728,0 -32.0008,14.328 -32.0008,32.0008 0,17.6728 14.328,32.0008 32.0008,32.0008l1286.26 0c17.6728,0 32.0008,-14.328 32.0008,-32.0008 0,-17.6728 -14.328,-32.0008 -32.0008,-32.0008l-1286.26 0z"/>
   <path id="_557070296" class="fil0" d="M287.999 602.35c-17.6728,0 -32.0008,14.328 -32.0008,32.0008 0,17.6728 14.328,32.0008 32.0008,32.0008l1472 0c17.6728,0 32.0008,-14.328 32.0008,-32.0008 0,-17.6728 -14.328,-32.0008 -32.0008,-32.0008l-1472 0z"/>
   <path id="_557070176" class="fil0" d="M287.999 775.521l1472 0c17.6728,0 32.0008,14.328 32.0008,32.0008l0 952.482c0,17.6728 -14.328,32.0008 -32.0008,32.0008l-1472 0c-17.6728,0 -32.0008,-14.328 -32.0008,-32.0008l0 -952.482c0,-17.6728 14.328,-32.0008 32.0008,-32.0008zm1440 64.0016l-1408 0 0 888.48 1408 0 0 -888.48z"/>
  </g>
 </g>
 <rect class="fil1" width="2048" height="2048"/>
</svg>
