<?xml version="1.0" encoding="UTF-8"?>
<!DOCTYPE svg PUBLIC "-//W3C//DTD SVG 1.1//EN" "http://www.w3.org/Graphics/SVG/1.1/DTD/svg11.dtd">
<!-- Creator: CorelDRAW -->
<svg xmlns="http://www.w3.org/2000/svg" xml:space="preserve" width="2048px" height="2048px" style="shape-rendering:geometricPrecision; text-rendering:geometricPrecision; image-rendering:optimizeQuality; fill-rule:evenodd; clip-rule:evenodd"
viewBox="0 0 2048 2048"
 xmlns:xlink="http://www.w3.org/1999/xlink">
 <defs>
  <style type="text/css">
   <![CDATA[
    .fil1 {fill:none}
    .fil0 {fill:#212121;fill-rule:nonzero}
   ]]>
  </style>
 </defs>
 <g id="Layer_x0020_1">
  <metadata id="CorelCorpID_0Corel-Layer"/>
  <g id="_557071064">
   <path id="_557070824" class="fil0" d="M381.956 401.753l1284.09 0c34.6725,0 66.1689,14.1614 88.982,36.9756 22.8142,22.813 36.9756,54.3095 36.9756,88.982l0 782.981c0,34.6725 -14.1614,66.1689 -36.9756,88.982 -22.813,22.8142 -54.3095,36.9756 -88.982,36.9756l-1284.09 0c-34.6725,0 -66.1689,-14.1614 -88.982,-36.9756 -22.8142,-22.813 -36.9756,-54.3095 -36.9756,-88.982l0 -782.981c0,-34.6725 14.1614,-66.1689 36.9756,-88.982 22.813,-22.8142 54.3095,-36.9756 88.982,-36.9756zm1284.09 64.0016l-1284.09 0c-17.0043,0 -32.4874,6.98032 -43.7315,18.2244 -11.2441,11.2441 -18.2244,26.7272 -18.2244,43.7315l0 782.981c0,17.0043 6.98032,32.4874 18.2244,43.7315 11.2441,11.2441 26.7272,18.2244 43.7315,18.2244l1284.09 0c17.0043,0 32.4874,-6.98032 43.7315,-18.2244 11.2441,-11.2441 18.2244,-26.7272 18.2244,-43.7315l0 -782.981c0,-17.0043 -6.98032,-32.4874 -18.2244,-43.7315 -11.2441,-11.2441 -26.7272,-18.2244 -43.7315,-18.2244z"/>
   <path id="_557071256" class="fil0" d="M812.898 1582.24l422.205 0 -65.739 -145.596 -290.727 0 -65.739 145.596zm471.705 64.0016l-520.689 0c-4.57559,0.0767717 -9.23859,-0.827953 -13.6843,-2.83583 -16.1067,-7.27205 -23.2689,-26.2264 -15.9969,-42.3331l0.0496063 0.022441 93.8221 -207.793c4.57796,-12.0744 16.2508,-20.6599 29.9303,-20.6599l331.346 0c12.398,-0.220866 24.3248,6.81615 29.7508,18.8327l-29.165 13.1681 29.1248 -13.1256 93.8292 207.809c2.3504,4.45394 3.68386,9.52796 3.68386,14.9138 0,17.6728 -14.328,32.0008 -32.0008,32.0008z"/>
   <path id="_557071136" class="fil0" d="M616.851 1582.24c-17.6728,0 -32.0008,14.328 -32.0008,32.0008 0,17.6728 14.328,32.0008 32.0008,32.0008l814.299 0c17.6728,0 32.0008,-14.328 32.0008,-32.0008 0,-17.6728 -14.328,-32.0008 -32.0008,-32.0008l-814.299 0z"/>
   <path id="_557070896" class="fil0" d="M1500.1 529.752l103.806 0c16.5591,0 31.591,6.75119 42.4689,17.6291 10.878,10.878 17.6291,25.9099 17.6291,42.4689l0 103.806c0,16.5591 -6.75119,31.591 -17.6291,42.4689 -10.878,10.878 -25.9099,17.6291 -42.4689,17.6291l-103.806 0c-16.5591,0 -31.591,-6.75119 -42.4689,-17.6291 -10.878,-10.878 -17.6291,-25.9099 -17.6291,-42.4689l0 -103.806c0,-16.5591 6.75119,-31.591 17.6291,-42.4689 10.878,-10.878 25.9099,-17.6291 42.4689,-17.6291zm99.9024 64.0016l-95.9989 0 0 95.9989 95.9989 0 0 -95.9989z"/>
   <path id="_557071088" class="fil0" d="M488 1244.65l1072 0 0 -95.9989 -1072 0 0 95.9989zm1075.9 64.0016l-1079.8 0c-16.5602,0 -31.5933,-6.75119 -42.4713,-17.6291 -10.8768,-10.8768 -17.6303,-25.9087 -17.6303,-42.4689l0 -103.806c0,-16.5602 6.75355,-31.5922 17.6303,-42.4689 10.878,-10.878 25.911,-17.6291 42.4713,-17.6291l1079.8 0c16.5602,0 31.5933,6.75119 42.4713,17.6291 10.8768,10.8768 17.6303,25.9087 17.6303,42.4689l0 103.806c0,16.5602 -6.75355,31.5922 -17.6303,42.4689 -10.878,10.878 -25.911,17.6291 -42.4713,17.6291z"/>
   <path id="_557070992" class="fil0" d="M913.811 929.736l-84.9957 -78.7985 -0.0484252 0.0519685c-0.413386,-0.382677 -0.81378,-0.775985 -1.20236,-1.1752l-28.5803 -28.5792 -0.00236221 0.00236221c-7.2626,-7.2626 -10.3028,-17.1508 -9.12284,-26.6114l5.3504 -68.7768 0.0472441 0.00354331 0.00354331 -0.103937 -0.0791339 -0.00590552c0.0366142,-0.475985 0.0850394,-0.949607 0.142913,-1.41851 1.39843,-28.7433 19.2118,-262.955 228.675,-246.903 213.905,-16.3937 227.941,228.193 228.742,248.431l0.0472441 -0.00354331 0.106299 1.36654 0.00236221 0 0.0011811 0.0401575 5.35748 68.8749 0.0366142 -0.00236221c0.762993,9.81969 -2.99055,18.9461 -9.51379,25.3418l-28.6784 28.6772 0.00236221 0.00236221c-0.80315,0.80315 -1.63701,1.55197 -2.5004,2.25236l-83.4142 77.3339c-8.72363,38.8748 1.00984,52.5319 17.961,57.0733 15.8173,4.2378 37.0087,4.98544 58.6985,5.74725l-1.00039 31.8756 1.12441 -31.9807c0.876379,0.0307087 1.74213,0.0980316 2.59843,0.197244 78.1973,2.76732 160.283,6.94016 161.189,123.768l0.126378 -0.0011811c0.12874,17.6728 -14.0929,32.1047 -31.7658,32.2335l-0.233858 -0.0011811 0 0.00236221 -318.886 0 -318.886 0c-17.6728,0 -32.0008,-14.328 -32.0008,-32.0008 0,-1.17047 0.0649607,-2.32441 0.187795,-3.46299 2.42362,-114.928 85.4918,-117.874 163.727,-120.628 21.763,-0.766536 43.0252,-1.51536 58.8237,-5.74843 16.9512,-4.54134 26.6847,-18.1984 17.961,-57.0733zm-40.6949 -124.807l89.5796 83.0481c5.07638,4.10551 8.94804,9.79489 10.7669,16.5839l-30.9095 8.2819 30.8752 -8.25001c25.3276,94.5284 -6.97087,129.471 -61.0784,143.967 -22.2402,5.95867 -47.3599,6.84449 -73.0725,7.74922 -37.5721,1.32165 -76.9264,2.71418 -93.7961,28.3394l278.517 0 278.517 0c-16.4823,-25.0382 -54.4288,-26.9421 -91.206,-28.2496 -0.855119,0.0377953 -1.71732,0.0448819 -2.5878,0.0141732l0.00354331 -0.105118 -0.00472441 0 0 -0.00472441c-25.7421,-0.903544 -50.8867,-1.79882 -73.0725,-7.74331 -53.7626,-14.4036 -85.9831,-49.0052 -61.5449,-142.179 1.29567,-6.31063 4.50237,-12.2906 9.58583,-17.0043l0.0484252 0.0519685 90.4761 -83.8808c0.207874,-0.219685 0.418111,-0.438189 0.633071,-0.65315l0.00236221 0.00236221 18.5256 -18.5256 -4.21181 -54.1524c-0.122835,-0.981497 -0.20315,-1.97717 -0.23504,-2.98583l31.9843 -1.00866 -31.8756 1.00039c-0.0177165,-0.576378 -4.61929,-201.154 -161.888,-187.892 -1.9311,0.188977 -3.90473,0.206693 -5.90788,0.0330709l0 -0.00590552c-147.736,-12.7748 -161.075,162.842 -162.184,185.475 0.0531496,1.27559 0.034252,2.56772 -0.0673229,3.87166l-0.0366142 -0.00236221 -4.32992 55.6678 18.5256 18.5256 -0.0318898 0.0318898z"/>
  </g>
 </g>
 <rect class="fil1" width="2048" height="2048"/>
</svg>
