<?xml version="1.0" encoding="UTF-8"?>
<!DOCTYPE svg PUBLIC "-//W3C//DTD SVG 1.1//EN" "http://www.w3.org/Graphics/SVG/1.1/DTD/svg11.dtd">
<!-- Creator: CorelDRAW -->
<svg xmlns="http://www.w3.org/2000/svg" xml:space="preserve" width="2048px" height="2048px" style="shape-rendering:geometricPrecision; text-rendering:geometricPrecision; image-rendering:optimizeQuality; fill-rule:evenodd; clip-rule:evenodd"
viewBox="0 0 2048 2048"
 xmlns:xlink="http://www.w3.org/1999/xlink">
 <defs>
  <style type="text/css">
   <![CDATA[
    .fil1 {fill:none}
    .fil0 {fill:#212121;fill-rule:nonzero}
   ]]>
  </style>
 </defs>
 <g id="Layer_x0020_1">
  <metadata id="CorelCorpID_0Corel-Layer"/>
  <path class="fil0" d="M1054.63 1309.17l182.405 231.966 0.0330709 -0.0259843c10.924,13.8921 8.51694,34.011 -5.3752,44.9351 -5.8878,4.62992 -12.8941,6.86457 -19.8449,6.84567l-390.407 0c-17.6728,0 -32.0008,-14.328 -32.0008,-32.0008 0,-8.04922 2.97166,-15.4028 7.87914,-21.0272l182.426 -231.993 25.1256 19.7504 -25.1551 -19.7799c6.33662,-8.05867 15.7665,-12.2528 25.2815,-12.2209l23.4851 0c10.8012,0 20.3528,5.35394 26.1473,13.5508zm91.4635 219.719l-129.417 -164.58 -129.416 164.58 258.833 0z"/>
  <path class="fil0" d="M287.999 455.112l736.001 0 736.001 0c17.6728,0 32.0008,14.328 32.0008,32.0008l0 840.503c0,17.6728 -14.328,32.0008 -32.0008,32.0008l-736.001 0 -736.001 0c-17.6728,0 -32.0008,-14.328 -32.0008,-32.0008l0 -840.503c0,-17.6728 14.328,-32.0008 32.0008,-32.0008zm736.001 64.0016l-704 0 0 776.501 704 0 704 0 0 -776.501 -704 0z"/>
  <path class="fil0" d="M716.903 1528.88c-17.6728,0 -32.0008,14.328 -32.0008,32.0008 0,17.6728 14.328,32.0008 32.0008,32.0008l599.546 0c17.6728,0 32.0008,-14.328 32.0008,-32.0008 0,-17.6728 -14.328,-32.0008 -32.0008,-32.0008l-599.546 0z"/>
  <path class="fil0" d="M449.605 709.197l81.1111 0c13.513,0 23.8937,3.36142 31.1067,10.0524 7.24725,6.69213 10.8685,14.9823 10.8685,24.8386 0,8.29253 -2.57599,15.4075 -7.73386,21.3473 -3.46063,3.95079 -8.48741,7.08308 -15.1122,9.36851 10.0524,2.41418 17.4614,6.59174 22.2272,12.4677 4.73268,5.90906 7.11497,13.3181 7.11497,22.2284 0,7.27914 -1.69606,13.8071 -5.05867,19.6169 -3.39331,5.81103 -7.99725,10.3795 -13.8721,13.7752 -3.62244,2.08819 -9.10631,3.62244 -16.4504,4.56851 -9.75946,1.27441 -16.2225,1.92638 -19.4209,1.92638l-74.7804 0 0 -140.19zm43.7055 54.9981l18.8339 0c6.75591,0 11.4567,-1.1752 14.1331,-3.49252 2.64331,-2.3504 3.95079,-5.71063 3.95079,-10.0854 0,-4.07953 -1.30748,-7.27914 -3.95079,-9.56457 -2.67638,-2.31732 -7.27914,-3.46063 -13.839,-3.46063l-19.128 0 0 26.6032zm0 55.0642l22.0973 0c7.47638,0 12.7311,-1.30512 15.7665,-3.94961 3.06733,-2.64331 4.60276,-6.20079 4.60276,-10.6724 0,-4.14685 -1.50118,-7.4752 -4.5378,-9.98741 -3.03544,-2.51457 -8.32323,-3.78662 -15.9284,-3.78662l-22.0004 0 0 28.3961zm109.119 30.1276l0 -140.19 72.2008 0c13.3807,0 23.6303,1.13976 30.6815,3.45827 7.0819,2.28543 12.7949,6.52914 17.1366,12.763 4.33937,6.20197 6.49607,13.7752 6.49607,22.6855 0,7.80119 -1.66536,14.491 -4.96181,20.1402 -3.33071,5.64567 -7.89922,10.2142 -13.6772,13.7398 -3.71929,2.22047 -8.78032,4.07953 -15.2114,5.51575 5.15788,1.73032 8.91261,3.46063 11.2949,5.19095 1.56614,1.14331 3.88347,3.59055 6.9189,7.3441 3.03662,3.78662 5.06103,6.65906 6.07205,8.71536l20.954 40.637 -48.9591 0 -23.1425 -42.8575c-2.9374,-5.51693 -5.54882,-9.1382 -7.86733,-10.8036 -3.09921,-2.15433 -6.65906,-3.2315 -10.6075,-3.2315l-3.81851 0 0 56.8926 -43.5095 0zm43.5095 -83.3965l18.2776 0c1.95945,0 5.77796,-0.620079 11.4567,-1.89213 2.87362,-0.587008 5.22284,-2.0563 7.05119,-4.4067 1.7941,-2.3504 2.71063,-5.06103 2.71063,-8.12835 0,-4.5378 -1.43622,-7.99607 -4.30985,-10.4126 -2.87244,-2.44725 -8.25709,-3.65551 -16.1563,-3.65551l-19.0299 0 0 28.4953zm108.171 -56.7934l116.069 0 0 29.9292 -72.6591 0 0 22.2933 67.4032 0 0 28.5945 -67.4032 0 0 27.6142 74.7804 0 0 31.7587 -118.191 0 0 -140.19zm227.766 117.047l-49.3524 0 -6.79134 23.1425 -44.2583 0 52.6807 -140.19 47.2311 0 52.7126 140.19 -45.3366 0 -6.88583 -23.1425zm-9.07442 -30.3225l-15.5043 -50.3977 -15.4075 50.3977 30.9118 0zm75.3331 -86.7249l43.3146 0 0 52.9748 45.437 -52.9748 57.5776 0 -51.0827 52.8768 53.367 87.3131 -53.367 0 -29.5406 -57.6745 -22.3914 23.4331 0 34.2414 -43.3146 0 0 -140.19zm164.674 0l43.4115 0 0 140.19 -43.4115 0 0 -140.19zm74.7792 0l40.4752 0 52.7776 77.5536 0 -77.5536 40.8331 0 0 140.19 -40.8331 0 -52.5166 -76.9666 0 76.9666 -40.7363 0 0 -140.19zm233.348 89.4012l0 -29.1473 66.913 0 0 59.7638c-12.7961,8.71536 -24.1205,14.6882 -33.9792,17.8217 -9.85631,3.16654 -21.5421,4.73268 -35.0551,4.73268 -16.6477,0 -30.1925,-2.84055 -40.6713,-8.5193 -10.5106,-5.64567 -18.6366,-14.1 -24.3827,-25.3276 -5.77796,-11.2287 -8.68111,-24.0886 -8.68111,-38.615 0,-15.3083 3.16536,-28.6252 9.46536,-39.952 6.33071,-11.2925 15.5693,-19.8768 27.7441,-25.7516 9.49961,-4.53898 22.2933,-6.79134 38.3528,-6.79134 15.4725,0 27.0591,1.40433 34.7611,4.21181 7.67008,2.8063 14.0362,7.14804 19.1268,13.0547 5.06103,5.87599 8.88072,13.3512 11.4248,22.4256l-41.7792 7.44213c-1.73032,-5.2878 -4.66772,-9.33662 -8.78032,-12.1417 -4.08071,-2.80866 -9.33544,-4.213 -15.6992,-4.213 -9.49961,0 -17.0705,3.29646 -22.7185,9.89174 -5.64685,6.62717 -8.48741,17.0374 -8.48741,31.3347 0,15.1772 2.87244,26.0138 8.58662,32.5087 5.67874,6.49725 13.6417,9.76182 23.8595,9.76182 4.82953,0 9.46536,-0.719292 13.839,-2.12362 4.4067,-1.40197 9.46536,-3.78662 15.1134,-7.14804l0 -13.2189 -28.9524 0z"/>
  <path class="fil0" d="M456.319 901.792l58.5154 0 76.304 112.122 0 -112.122 59.0327 0 0 202.679 -59.0327 0 -75.9272 -111.272 0 111.272 -58.8922 0 0 -202.679zm317.348 0l167.805 0 0 43.2733 -105.044 0 0 32.2311 97.4457 0 0 41.3374 -97.4457 0 0 39.9213 108.111 0 0 45.9154 -170.873 0 0 -202.679zm265.726 0l59.4579 0 21.424 113.208 31.239 -113.208 59.3162 0 31.3819 113.208 21.424 -113.208 59.1733 0 -44.6398 202.679 -61.3926 0 -35.5335 -127.6 -35.3929 127.6 -61.3914 0 -45.0662 -202.679zm375.108 135.621l59.602 -3.72638c1.27205,9.67324 3.91536,17.0339 7.88032,22.1315 6.41693,8.20985 15.6662,12.2693 27.6508,12.2693 8.91969,0 15.8102,-2.07756 20.6693,-6.27638 4.81418,-4.2 7.22008,-9.06024 7.22008,-14.5807 0,-5.23937 -2.26536,-9.95788 -6.88938,-14.1106 -4.62284,-4.15158 -15.2894,-8.07048 -32.0894,-11.7508 -27.463,-6.17953 -47.0457,-14.3457 -58.7504,-24.5858 -11.7969,-10.2402 -17.6941,-23.2618 -17.6941,-39.1181 0,-10.4303 3.02008,-20.2914 9.06024,-29.5406 6.03898,-9.24804 15.0992,-16.5165 27.2268,-21.8504 12.1276,-5.28307 28.7386,-7.92638 49.8307,-7.92638 25.9075,0 45.6792,4.813 59.2713,14.4402 13.5898,9.62717 21.6603,24.9638 24.2551,45.9615l-59.0351 3.4441c-1.55669,-9.10631 -4.85906,-15.7595 -9.90946,-19.9134 -5.00079,-4.10551 -11.9374,-6.18071 -20.7614,-6.18071 -7.31457,0 -12.7902,1.51063 -16.4693,4.62402 -3.68032,3.06733 -5.52166,6.84213 -5.52166,11.2784 0,3.20906 1.51063,6.08859 4.53071,8.68347 2.97284,2.69055 9.95552,5.14252 21.0449,7.45512 27.3709,5.89843 46.9536,11.8925 58.7989,17.9315 11.8429,6.04134 20.4803,13.4965 25.8579,22.4622 5.38111,8.91969 8.11654,18.9236 8.11654,30.013 0,12.9756 -3.63071,24.9626 -10.8036,35.9103 -7.17284,10.9949 -17.2264,19.3004 -30.1559,24.9626 -12.8823,5.66339 -29.1614,8.49449 -48.7926,8.49449 -34.4492,0 -58.3252,-6.60591 -71.5855,-19.9134 -13.3075,-13.2614 -20.811,-30.1075 -22.5579,-50.5878z"/>
 </g>
 <rect class="fil1" width="2048" height="2048"/>
</svg>
