<?xml version="1.0" encoding="UTF-8"?>
<!DOCTYPE svg PUBLIC "-//W3C//DTD SVG 1.1//EN" "http://www.w3.org/Graphics/SVG/1.1/DTD/svg11.dtd">
<!-- Creator: CorelDRAW -->
<svg xmlns="http://www.w3.org/2000/svg" xml:space="preserve" width="2048px" height="2048px" style="shape-rendering:geometricPrecision; text-rendering:geometricPrecision; image-rendering:optimizeQuality; fill-rule:evenodd; clip-rule:evenodd"
viewBox="0 0 2048 2048"
 xmlns:xlink="http://www.w3.org/1999/xlink">
 <defs>
  <style type="text/css">
   <![CDATA[
    .fil1 {fill:none}
    .fil0 {fill:#212121;fill-rule:nonzero}
   ]]>
  </style>
 </defs>
 <g id="Layer_x0020_1">
  <metadata id="CorelCorpID_0Corel-Layer"/>
  <path class="fil0" d="M1054.63 1309.17l182.405 231.966 0.0330709 -0.0259843c10.924,13.8921 8.51694,34.011 -5.3752,44.9351 -5.8878,4.62992 -12.8941,6.86457 -19.8449,6.84567l-390.407 0c-17.6728,0 -32.0008,-14.328 -32.0008,-32.0008 0,-8.04922 2.97166,-15.4028 7.87914,-21.0272l182.426 -231.993 25.1256 19.7504 -25.1551 -19.7799c6.33662,-8.05867 15.7665,-12.2528 25.2815,-12.2209l23.4851 0c10.8012,0 20.3528,5.35394 26.1473,13.5508zm91.4635 219.719l-129.417 -164.58 -129.416 164.58 258.833 0z"/>
  <path class="fil0" d="M287.999 455.112l736.001 0 736.001 0c17.6728,0 32.0008,14.328 32.0008,32.0008l0 840.503c0,17.6728 -14.328,32.0008 -32.0008,32.0008l-736.001 0 -736.001 0c-17.6728,0 -32.0008,-14.328 -32.0008,-32.0008l0 -840.503c0,-17.6728 14.328,-32.0008 32.0008,-32.0008zm736.001 64.0016l-704 0 0 776.501 704 0 704 0 0 -776.501 -704 0z"/>
  <path class="fil0" d="M716.903 1528.88c-17.6728,0 -32.0008,14.328 -32.0008,32.0008 0,17.6728 14.328,32.0008 32.0008,32.0008l599.546 0c17.6728,0 32.0008,-14.328 32.0008,-32.0008 0,-17.6728 -14.328,-32.0008 -32.0008,-32.0008l-599.546 0z"/>
  <path class="fil0" d="M919.404 698.071l728.334 0c17.6728,0 32.0008,14.328 32.0008,32.0008l0 354.584c0,17.6728 -14.328,32.0008 -32.0008,32.0008l-728.334 0c-17.6728,0 -32.0008,-14.328 -32.0008,-32.0008l0 -354.584c0,-17.6728 14.328,-32.0008 32.0008,-32.0008zm696.334 64.0016l-664.333 0 0 290.582 664.333 0 0 -290.582z"/>
  <path class="fil0" d="M1647.74 894.442c17.6728,0 32.0008,-14.328 32.0008,-32.0008 0,-17.6728 -14.328,-32.0008 -32.0008,-32.0008 -27.7193,0 -52.813,-11.2335 -70.9737,-29.3953 -18.1618,-18.1606 -29.3953,-43.2544 -29.3953,-70.9737 0,-17.6728 -14.328,-32.0008 -32.0008,-32.0008 -17.6728,0 -32.0008,14.328 -32.0008,32.0008 0,45.3863 18.3992,86.478 48.1465,116.224 29.7461,29.7473 70.8378,48.1465 116.224,48.1465z"/>
  <path class="fil0" d="M1647.74 984.287c17.6728,0 32.0008,-14.328 32.0008,-32.0008 0,-17.6728 -14.328,-32.0008 -32.0008,-32.0008 -45.3851,0 -86.478,18.3992 -116.224,48.1453 -29.7473,29.7473 -48.1465,70.8402 -48.1465,116.225 0,17.6728 14.328,32.0008 32.0008,32.0008 17.6728,0 32.0008,-14.328 32.0008,-32.0008 0,-27.7193 11.2347,-52.8142 29.3953,-70.9749 18.1606,-18.1606 43.2544,-29.3941 70.9737,-29.3941z"/>
  <path class="fil0" d="M919.404 830.441c-17.6728,0 -32.0008,14.328 -32.0008,32.0008 0,17.6728 14.328,32.0008 32.0008,32.0008 45.3863,0 86.4792,-18.3992 116.225,-48.1465 29.7473,-29.7461 48.1465,-70.8378 48.1465,-116.224 0,-17.6728 -14.328,-32.0008 -32.0008,-32.0008 -17.6728,0 -32.0008,14.328 -32.0008,32.0008 0,27.7193 -11.2335,52.813 -29.3953,70.9737 -18.1606,18.1618 -43.2555,29.3953 -70.9749,29.3953z"/>
  <path class="fil0" d="M919.404 920.285c-17.6728,0 -32.0008,14.328 -32.0008,32.0008 0,17.6728 14.328,32.0008 32.0008,32.0008 27.7193,0 52.8142,11.2335 70.9749,29.3953 18.1618,18.1606 29.3953,43.2544 29.3953,70.9737 0,17.6728 14.328,32.0008 32.0008,32.0008 17.6728,0 32.0008,-14.328 32.0008,-32.0008 0,-45.3851 -18.3992,-86.478 -48.1465,-116.224 -29.7461,-29.7473 -70.839,-48.1465 -116.225,-48.1465z"/>
  <path class="fil0" d="M1345.64 860.122l-40.089 6.36142c-1.98662,-5.11181 -3.82559,-8.64213 -5.44489,-10.6287 -1.61693,-1.98543 -4.26615,-3.97205 -8.01733,-5.99528l0 31.1528c21.8469,5.81103 36.4122,11.9539 43.7681,18.4264 9.67324,8.67993 14.5276,19.715 14.5276,33.1016 0,7.79764 -1.72795,15.0059 -5.22166,21.5528 -3.49488,6.51024 -7.94528,11.9906 -13.3524,16.3677 -5.4437,4.37599 -11.2169,7.53898 -17.3221,9.5256 -6.1063,1.98543 -13.5732,3.16299 -22.3996,3.49488l0 20.3752 -15.7417 0 0 -20.3752c-10.5555,-0.921261 -19.1256,-2.61142 -25.6713,-5.113 -6.58465,-2.46496 -12.248,-5.88544 -17.0291,-10.298 -4.78111,-4.37717 -8.46024,-9.08505 -11.0717,-14.1614 -2.57362,-5.0752 -4.52363,-11.1803 -5.81103,-18.352l43.5473 -5.0752c1.2874,7.09725 3.01536,12.2469 5.22284,15.4099 2.16969,3.16299 5.81103,5.95867 10.813,8.38583l0 -38.0292c-14.491,-4.00985 -24.7902,-7.50355 -30.8575,-10.4469 -6.06969,-2.94213 -11.328,-7.65001 -15.7795,-14.1602 -4.4504,-6.50906 -6.69331,-14.4177 -6.69331,-23.7591 0,-12.7996 4.48701,-23.465 13.4244,-32.0717 8.93741,-8.57009 22.252,-13.3512 39.9059,-14.2713l0 -10.6665 15.7417 0 0 10.6665c16.1091,0.993308 28.3937,4.81772 36.8894,11.439 8.53347,6.58347 14.087,15.6307 16.6618,27.1441zm-69.293 -10.7776c-4.59685,1.50827 -7.79646,3.38386 -9.56221,5.59134 -1.80236,2.24292 -2.72244,4.85433 -2.72244,7.87087 0,3.16181 0.920079,5.92087 2.75788,8.2382 1.84016,2.35394 5.00315,4.30276 9.52678,5.88426l0 -27.5847zm15.7417 106.036c6.10512,-1.36063 10.5921,-3.60355 13.4244,-6.72993 2.83229,-3.12638 4.26615,-6.65788 4.26615,-10.5201 0,-3.38268 -1.21299,-6.47245 -3.64134,-9.34135 -2.39055,-2.83229 -7.06064,-5.4437 -14.0492,-7.90749l0 34.4988z"/>
  <path class="fil0" d="M432.261 1052.65l62.9788 0 0 -290.582 -62.9788 0 0 290.582zm94.9796 64.0016l-126.98 0c-17.6728,0 -32.0008,-14.328 -32.0008,-32.0008l0 -354.584c0,-17.6728 14.328,-32.0008 32.0008,-32.0008l126.98 0c17.6728,0 32.0008,14.328 32.0008,32.0008l0 354.584c0,17.6728 -14.328,32.0008 -32.0008,32.0008z"/>
  <path class="fil0" d="M654.22 1116.66l-126.979 0c-17.6728,0 -32.0008,-14.328 -32.0008,-32.0008l0 -227.036c0,-17.6728 14.328,-32.0008 32.0008,-32.0008l126.979 0c17.6728,0 32.0008,14.328 32.0008,32.0008l0 227.036c0,17.6728 -14.328,32.0008 -32.0008,32.0008zm-94.9784 -64.0016l62.9776 0 0 -163.035 -62.9776 0 0 163.035z"/>
  <path class="fil0" d="M686.221 1052.65l62.9788 0 0 -49.5166 -62.9788 0 0 49.5166zm94.9796 64.0016l-126.98 0c-17.6728,0 -32.0008,-14.328 -32.0008,-32.0008l0 -113.518c0,-17.6728 14.328,-32.0008 32.0008,-32.0008l126.98 0c17.6728,0 32.0008,14.328 32.0008,32.0008l0 113.518c0,17.6728 -14.328,32.0008 -32.0008,32.0008z"/>
 </g>
 <rect class="fil1" width="2048" height="2048"/>
</svg>
