<?xml version="1.0" encoding="UTF-8"?>
<!DOCTYPE svg PUBLIC "-//W3C//DTD SVG 1.1//EN" "http://www.w3.org/Graphics/SVG/1.1/DTD/svg11.dtd">
<!-- Creator: CorelDRAW -->
<svg xmlns="http://www.w3.org/2000/svg" xml:space="preserve" width="2048px" height="2048px" style="shape-rendering:geometricPrecision; text-rendering:geometricPrecision; image-rendering:optimizeQuality; fill-rule:evenodd; clip-rule:evenodd"
viewBox="0 0 2048 2048"
 xmlns:xlink="http://www.w3.org/1999/xlink">
 <defs>
  <style type="text/css">
   <![CDATA[
    .fil1 {fill:none}
    .fil0 {fill:#212121;fill-rule:nonzero}
   ]]>
  </style>
 </defs>
 <g id="Layer_x0020_1">
  <metadata id="CorelCorpID_0Corel-Layer"/>
  <path class="fil0" d="M910.021 812.771l127.801 0c17.6728,0 32.0008,14.328 32.0008,32.0008l0 358.454c0,17.6728 -14.328,32.0008 -32.0008,32.0008l-127.801 0c-17.6728,0 -32.0008,-14.328 -32.0008,-32.0008l0 -358.454c0,-17.6728 14.328,-32.0008 32.0008,-32.0008zm95.8005 64.0016l-63.7997 0 0 294.453 63.7997 0 0 -294.453z"/>
  <path class="fil0" d="M1692.53 768.7l-587.234 0c-9.72166,0 -18.5823,4.0004 -25.0264,10.4445 -6.4441,6.4441 -10.4445,15.3059 -10.4445,25.0276l0 439.656c0,9.72166 4.0004,18.5835 10.4445,25.0276 6.4441,6.4441 15.3047,10.4445 25.0264,10.4445l587.234 0c9.72166,0 18.5835,-4.0004 25.0276,-10.4445 6.44292,-6.44292 10.4433,-15.3059 10.4433,-25.0276l0 -439.656c0,-9.72166 -4.0004,-18.5835 -10.4445,-25.0276 -6.4441,-6.4441 -15.3047,-10.4445 -25.0264,-10.4445zm-587.234 -64.0016l587.234 0c27.3874,0 52.2638,11.1827 70.2768,29.1957 18.013,18.013 29.1957,42.8906 29.1957,70.278l0 439.656c0,27.3874 -11.1815,52.265 -29.1945,70.278 -18.013,18.013 -42.8906,29.1957 -70.278,29.1957l-587.234 0c-27.3874,0 -52.2638,-11.1827 -70.2768,-29.1957 -18.013,-18.013 -29.1957,-42.8906 -29.1957,-70.278l0 -439.656c0,-27.3874 11.1827,-52.265 29.1957,-70.278 18.013,-18.013 42.8894,-29.1957 70.2768,-29.1957z"/>
  <path class="fil0" d="M422.945 449.048l352.132 0c45.9426,0 87.6875,18.7725 117.93,49.0146 30.2433,30.2433 49.0158,71.9882 49.0158,117.931l0 816.011c0,45.9437 -18.7725,87.6887 -49.0158,117.931 -30.2421,30.2433 -71.9859,49.0158 -117.93,49.0158l-352.132 0c-45.9437,0 -87.6875,-18.7725 -117.93,-49.0158 -30.2433,-30.2421 -49.0158,-71.9871 -49.0158,-117.931l0 -816.011c0,-45.9426 18.7725,-87.6863 49.0146,-117.931 30.2445,-30.2421 71.9882,-49.0146 117.931,-49.0146zm352.132 64.0016l-352.132 0c-28.2768,0 -54.0071,11.5913 -72.6804,30.2634 -18.6721,18.6732 -30.2634,44.4036 -30.2634,72.6804l0 816.011c0,28.2768 11.5913,54.0083 30.2646,72.6804 18.6721,18.6732 44.4024,30.2646 72.6792,30.2646l352.132 0c28.2768,0 54.0071,-11.5913 72.6792,-30.2646 18.6732,-18.6721 30.2646,-44.4036 30.2646,-72.6804l0 -816.011c0,-28.2768 -11.5913,-54.0071 -30.2646,-72.6804 -18.6721,-18.6721 -44.4024,-30.2634 -72.6792,-30.2634z"/>
  <path class="fil0" d="M599.011 791.77c37.9453,0 72.3024,15.3851 97.1741,40.2544 24.8693,24.8693 40.2544,59.2288 40.2544,97.1741 0,37.9453 -15.3851,72.3024 -40.2544,97.1741 -24.8717,24.8693 -59.2288,40.2544 -97.1741,40.2544 -37.9453,0 -72.3048,-15.3851 -97.1741,-40.2544 -24.8693,-24.8717 -40.2544,-59.2288 -40.2544,-97.1741 0,-37.9453 15.3851,-72.3048 40.2544,-97.1741 24.8693,-24.8693 59.2288,-40.2544 97.1741,-40.2544zm51.9237 85.5048c-13.2862,-13.285 -31.6441,-21.5032 -51.9237,-21.5032 -20.2795,0 -38.6398,8.2193 -51.9237,21.5032 -13.2839,13.2839 -21.5032,31.6441 -21.5032,51.9237 0,20.2795 8.21812,38.6374 21.5032,51.9237 13.2839,13.2839 31.6441,21.5032 51.9237,21.5032 20.2795,0 38.6374,-8.21812 51.9237,-21.5032 13.285,-13.2862 21.5032,-31.6441 21.5032,-51.9237 0,-20.2795 -8.2193,-38.6398 -21.5032,-51.9237z"/>
  <path class="fil0" d="M599.011 678.435c69.2422,0 131.934,28.0689 177.314,73.4493 45.3803,45.3803 73.4493,108.072 73.4493,177.314 0,69.2422 -28.0689,131.933 -73.4493,177.313 -45.3803,45.3803 -108.072,73.4493 -177.314,73.4493 -69.2422,0 -131.934,-28.0689 -177.314,-73.4493 -45.3803,-45.3803 -73.4493,-108.071 -73.4493,-177.313 0,-69.2422 28.0689,-131.934 73.4493,-177.314 45.3803,-45.3803 108.072,-73.4493 177.314,-73.4493zm132.064 118.7c-33.7949,-33.7949 -80.4875,-54.6981 -132.064,-54.6981 -51.5764,0 -98.269,20.9032 -132.064,54.6981 -33.7949,33.7949 -54.6981,80.4875 -54.6981,132.064 0,51.5764 20.9032,98.2678 54.6981,132.063 33.7949,33.7949 80.4875,54.6981 132.064,54.6981 51.5764,0 98.269,-20.9032 132.064,-54.6981 33.7949,-33.7949 54.6981,-80.4863 54.6981,-132.063 0,-51.5764 -20.9032,-98.269 -54.6981,-132.064z"/>
  <path class="fil0" d="M473.928 1289.08c26.3244,0 50.1626,10.6736 67.4162,27.9295 17.2559,17.2559 27.9295,41.0929 27.9295,67.4174 0,26.3244 -10.6736,50.1615 -27.9295,67.4174 -17.2536,17.2536 -41.0918,27.9284 -67.4162,27.9284 -26.3244,0 -50.1638,-10.6748 -67.4174,-27.9284 -17.2559,-17.2559 -27.9295,-41.0929 -27.9295,-67.4174 0,-26.3244 10.6736,-50.1615 27.9295,-67.4174 17.2536,-17.2559 41.0929,-27.9295 67.4174,-27.9295zm22.1658 73.18c-5.6693,-5.6693 -13.5071,-9.17835 -22.1658,-9.17835 -8.65867,0 -16.4965,3.50788 -22.1669,9.17835 -5.67048,5.67048 -9.17835,13.5083 -9.17835,22.1669 0,8.65867 3.50788,16.4965 9.17835,22.1669 5.6693,5.6693 13.5083,9.17717 22.1669,9.17717 8.65867,0 16.4965,-3.50788 22.1658,-9.17717 5.67048,-5.67048 9.17835,-13.5083 9.17835,-22.1669 0,-8.65867 -3.50788,-16.4965 -9.17835,-22.1669z"/>
  <path class="fil0" d="M724.093 1353.08c-8.65749,0 -16.4953,3.50788 -22.1658,9.17835 -5.67048,5.67048 -9.17835,13.5083 -9.17835,22.1669 0,8.65867 3.50788,16.4977 9.17717,22.1669 5.6693,5.6693 13.5083,9.17717 22.1669,9.17717 8.65867,0 16.4965,-3.50788 22.1669,-9.17835 5.67048,-5.67048 9.17835,-13.5083 9.17835,-22.1658 0,-8.65867 -3.50788,-16.4965 -9.17835,-22.1669 -5.67048,-5.67048 -13.5083,-9.17835 -22.1669,-9.17835zm-67.4162 -36.0721c17.2536,-17.2559 41.0906,-27.9295 67.4162,-27.9295 26.3244,0 50.1615,10.6736 67.4174,27.9295 17.2559,17.2559 27.9295,41.0929 27.9295,67.4174 0,26.3256 -10.6736,50.1626 -27.9295,67.4162 -17.2559,17.2559 -41.0929,27.9295 -67.4174,27.9295 -26.3244,0 -50.1615,-10.6748 -67.4174,-27.9284 -17.2536,-17.2559 -27.9284,-41.0929 -27.9284,-67.4174 0,-26.3244 10.6736,-50.1615 27.9295,-67.4174z"/>
 </g>
 <rect class="fil1" width="2048" height="2048"/>
</svg>
