<?xml version="1.0" encoding="UTF-8"?>
<!DOCTYPE svg PUBLIC "-//W3C//DTD SVG 1.1//EN" "http://www.w3.org/Graphics/SVG/1.1/DTD/svg11.dtd">
<!-- Creator: CorelDRAW -->
<svg xmlns="http://www.w3.org/2000/svg" xml:space="preserve" width="2048px" height="2048px" style="shape-rendering:geometricPrecision; text-rendering:geometricPrecision; image-rendering:optimizeQuality; fill-rule:evenodd; clip-rule:evenodd"
viewBox="0 0 2048 2048"
 xmlns:xlink="http://www.w3.org/1999/xlink">
 <defs>
  <style type="text/css">
   <![CDATA[
    .fil1 {fill:none}
    .fil0 {fill:#212121;fill-rule:nonzero}
   ]]>
  </style>
 </defs>
 <g id="Layer_x0020_1">
  <metadata id="CorelCorpID_0Corel-Layer"/>
  <path class="fil0" d="M288 717.909l1472 0c17.6728,0 32.0008,14.328 32.0008,32.0008l0 538.15c0,17.6728 -14.328,32.0008 -32.0008,32.0008l-1472 0c-17.6728,0 -32.0008,-14.328 -32.0008,-32.0008l0 -538.15c0,-17.6728 14.328,-32.0008 32.0008,-32.0008zm1440 64.0016l-1408 0 0 474.148 1408 0 0 -474.148z"/>
  <path class="fil0" d="M428.92 733.835c54.4666,-111.488 139.328,-205.403 243.788,-270.927 101.936,-63.9426 222.373,-100.916 351.292,-100.916 128.919,0 249.356,36.9733 351.292,100.916 105.138,65.9493 190.426,160.656 244.849,273.096l0.0696851 -0.0330709c7.69843,15.9083 1.04291,35.0457 -14.8654,42.7441 -4.6878,2.26772 -9.65434,3.28937 -14.5276,3.19607l-1134.22 0c-17.6728,0 -32.0008,-14.328 -32.0008,-32.0008 0,-5.85945 1.57677,-11.3504 4.32638,-16.0748zm277.787 -216.927c-80.3965,50.4307 -147.946,119.441 -196.627,201.001l1027.84 0c-48.6804,-81.5599 -116.23,-150.571 -196.627,-201.001 -91.8331,-57.6048 -200.599,-90.9142 -317.293,-90.9142 -116.694,0 -225.46,33.3095 -317.293,90.9142z"/>
  <path class="fil0" d="M1624.15 1303.5c-53.3445,114.339 -138.475,210.957 -244.075,278.503 -102.93,65.8371 -225.122,104.006 -356.075,104.006 -130.954,0 -253.146,-38.1685 -356.075,-104.006 -106.228,-67.9477 -191.749,-165.311 -245.028,-280.542l-0.0590552 0.0271654c-7.41615,-16.0406 -0.424016,-35.0587 15.6165,-42.4748 4.53898,-2.09882 9.31654,-3.04252 14.0032,-2.95512l1143.66 0c17.6728,0 32.0008,14.328 32.0008,32.0008 0,5.59961 -1.43976,10.8626 -3.96733,15.4406zm-278.325 224.753c81.6095,-52.2 149.714,-123.748 197.902,-208.193l-1039.46 0c48.1878,84.4453 116.293,155.993 197.902,208.193 92.7839,59.3481 203.206,93.7536 321.826,93.7536 118.619,0 229.042,-34.4055 321.826,-93.7536z"/>
  <path class="fil0" d="M993.298 1652.71c0,17.6728 14.328,32.0008 32.0008,32.0008 17.6728,0 32.0008,-14.328 32.0008,-32.0008l0 -364.648c0,-17.6728 -14.328,-32.0008 -32.0008,-32.0008 -17.6728,0 -32.0008,14.328 -32.0008,32.0008l0 364.648zm0 -902.798c0,17.6728 14.328,32.0008 32.0008,32.0008 17.6728,0 32.0008,-14.328 32.0008,-32.0008l0 -354.62c0,-17.6728 -14.328,-32.0008 -32.0008,-32.0008 -17.6728,0 -32.0008,14.328 -32.0008,32.0008l0 354.62z"/>
  <path class="fil0" d="M1229.95 1599.37c-5.31496,16.7752 3.97559,34.6855 20.7508,40.0004 16.7752,5.31496 34.6855,-3.97559 40.0004,-20.7508 17.4437,-54.8079 32.3799,-109.134 44.8087,-162.969 12.5658,-54.4241 22.7492,-108.79 30.5528,-163.094 2.48504,-17.465 -9.66024,-33.6402 -27.1252,-36.1252 -17.465,-2.48504 -33.6402,9.66024 -36.1252,27.1252 -7.56851,52.6725 -17.4189,105.288 -29.5536,157.843 -12.2693,53.1426 -26.7047,105.802 -43.3087,157.97zm71.4308 -844.837c2.55355,17.465 18.7854,29.5536 36.2504,27 17.465,-2.55355 29.5536,-18.7854 27,-36.2504 -7.86142,-52.7138 -17.9492,-105.409 -30.261,-158.078 -12.124,-51.867 -26.6811,-104.478 -43.6689,-157.83 -5.31496,-16.7752 -23.2252,-26.0658 -40.0004,-20.7508 -16.7752,5.31496 -26.0658,23.2252 -20.7508,40.0004 16.011,50.2831 30.0673,101.311 42.1689,153.079 11.9138,50.9634 21.6685,101.909 29.2618,152.829z"/>
  <path class="fil0" d="M757.308 1618.62c5.31496,16.7752 23.2252,26.0658 40.0004,20.7508 16.7752,-5.31496 26.0658,-23.2252 20.7508,-40.0004 -16.6039,-52.1682 -31.0394,-104.828 -43.3099,-157.97 -12.1335,-52.5532 -21.9851,-105.169 -29.5536,-157.843 -2.48504,-17.465 -18.6603,-29.6103 -36.1252,-27.1252 -17.465,2.48504 -29.6103,18.6603 -27.1252,36.1252 7.80355,54.3036 17.9882,108.67 30.5528,163.094 12.4299,53.8347 27.3662,108.16 44.8099,162.969zm-73.9323 -873.337c-2.55355,17.465 9.53505,33.6969 27,36.2504 17.465,2.55355 33.6969,-9.53505 36.2504,-27 7.59331,-50.9197 17.3492,-101.864 29.263,-152.829 12.1016,-51.7678 26.1591,-102.796 42.1701,-153.079 5.31496,-16.7752 -3.97559,-34.6855 -20.7508,-40.0004 -16.7752,-5.31496 -34.6855,3.97559 -40.0004,20.7508 -16.9878,53.3516 -31.5461,105.963 -43.6701,157.83 -12.3118,52.6689 -22.4008,105.363 -30.2622,158.078z"/>
  <polygon class="fil0" points="1325.29,896.292 1536.76,896.292 1536.76,950.825 1404.39,950.825 1404.39,991.442 1527.19,991.442 1527.19,1043.54 1404.39,1043.54 1404.39,1093.85 1540.63,1093.85 1540.63,1151.71 1325.29,1151.71 "/>
  <polygon class="fil0" points="968.109,896.292 1050.65,896.292 1108.16,1080.11 1164.77,896.292 1244.93,896.292 1150.14,1151.71 1064.63,1151.71 "/>
  <polygon class="fil0" points="803.069,896.292 882.16,896.292 882.16,1151.71 803.069,1151.71 "/>
  <polygon class="fil0" points="507.374,896.292 586.348,896.292 586.348,1088.79 709.505,1088.79 709.505,1151.71 507.374,1151.71 "/>
 </g>
 <rect class="fil1" width="2048" height="2048"/>
</svg>
