<?xml version="1.0" encoding="UTF-8"?>
<!DOCTYPE svg PUBLIC "-//W3C//DTD SVG 1.1//EN" "http://www.w3.org/Graphics/SVG/1.1/DTD/svg11.dtd">
<!-- Creator: CorelDRAW -->
<svg xmlns="http://www.w3.org/2000/svg" xml:space="preserve" width="2048px" height="2048px" style="shape-rendering:geometricPrecision; text-rendering:geometricPrecision; image-rendering:optimizeQuality; fill-rule:evenodd; clip-rule:evenodd"
viewBox="0 0 2048 2048"
 xmlns:xlink="http://www.w3.org/1999/xlink">
 <defs>
  <style type="text/css">
   <![CDATA[
    .fil1 {fill:none}
    .fil0 {fill:#212121;fill-rule:nonzero}
   ]]>
  </style>
 </defs>
 <g id="Layer_x0020_1">
  <metadata id="CorelCorpID_0Corel-Layer"/>
  <path class="fil0" d="M747.571 1018.87c0.444095,-0.21378 0.889371,-0.419292 1.33701,-0.614174 7.53898,-3.29764 24.287,-7.21418 39.8445,-7.75631 21.0614,-0.735827 43.0949,4.39134 54.8363,22.1788l-26.6256 17.6256 26.7071 -17.628c0.970867,1.47047 1.80118,2.99292 2.50158,4.55079 0.328347,0.646063 0.633071,1.29095 0.914174,1.93347 10.9134,24.9508 15.6898,28.0748 38.6492,43.0855l4.53426 2.96693c4.663,3.05788 11.4662,5.41536 16.5319,7.1693 5.48977,1.90276 9.96733,3.45355 13.6807,5.54056l-15.6248 27.8752 15.6791 -27.8953c9.68741,5.44489 15.4429,15.1807 16.2307,25.4882 2.91142,23.7768 -9.17127,49.428 -18.9685,70.2225 -2.1248,4.50945 -4.10433,8.71064 -5.6126,12.3272l-29.5004 -12.2504 29.5347 12.3165c-1.19173,2.85827 -2.75197,5.45197 -4.59922,7.7504l-0.62126 0.94252c-1.97953,3.00591 -2.52166,3.80315 -2.99764,4.49528l0.0826772 0.056693c-0.561024,0.816142 -1.15394,1.59685 -1.77402,2.34331 -3.97323,6.23859 -7.19764,14.6705 5.27953,27.3047 28.715,29.0788 3.56339,62.7804 -27.8835,93.8316 -5.06457,5.00079 -9.67205,9.39922 -14.1295,13.6559 -11.0008,10.5036 -20.9067,19.9595 -21.5799,21.2043l0.0944883 0.0425197c-0.485433,1.09016 -1.0252,2.14016 -1.61221,3.14764 -1.99252,4.16221 -3.02244,5.18504 -6.52087,8.67757 -0.0531496,0.0531496 0.0791339,-0.0755906 -0.0484252,0.056693l0.0614174 0.0590552c-8.38938,8.73544 -20.5429,11.6764 -31.4658,8.72127 -41.6374,-7.91694 -43.787,-33.8681 -46.4953,-66.6733 -0.517323,-6.27284 -1.07362,-13.0039 -2.00079,-17.9752 -1.23543,-6.63071 -2.12717,-14.778 -3.12047,-23.8713 -1.78819,-16.3559 -2.23937,-34.9973 -3.13583,-35.9433 -30.0921,-31.7504 -28.4315,-49.2048 -26.7921,-66.443 0.250394,-2.63977 0.498426,-5.25119 -9.05434,-15.1228 -16.5898,-17.1402 -21.3579,-35.5347 -19.3595,-53.902 1.67599,-15.398 8.33977,-29.1343 16.2461,-41.328l1.72559 -2.66221c2.96457,-4.57205 4.9441,-7.97245 6.3567,-10.4008 3.10394,-5.33386 4.65355,-7.99725 7.67245,-11.3835 -3.26575,-11.8772 -1.64882,-19.2969 15.9071,-30.8882l7.22008 10.9063 0.0212599 -0.00826772 -7.24725 -10.9772c1.65,-1.09016 3.36378,-2.00433 5.12126,-2.75315zm103.163 116.875c-33.6614,-22.0087 -42.3981,-27.724 -58.6359,-63.2221 -1.46693,4.33583 -3.88819,8.41418 -7.25434,11.9055 -1.21181,1.65945 -2.60315,3.22677 -4.17166,4.67244l-21.6886 -23.5299 21.6248 23.5004c-5.31615,4.9004 -5.44016,5.11181 -6.48308,6.90355 -1.53189,2.63268 -3.67796,6.32008 -8.10709,13.1504l-1.72559 2.66221c-3.22559,4.97481 -5.86418,9.83032 -6.24449,13.3288 -0.0578741,0.533859 0.362599,1.36299 1.60984,2.65158 30.0886,31.0925 28.4563,48.2516 26.804,65.6221 -0.272835,2.87835 -0.550394,5.79449 9.54095,16.4421 14.002,14.7744 17.5559,47.2902 20.387,73.193 0.892914,8.17678 1.69488,15.502 2.36929,19.1232 0.617717,3.31418 1.09724,6.38032 1.48347,9.26339l1.33347 -1.27441c4.59804,-4.39016 9.36024,-8.93623 13.3807,-12.9071 8.00079,-7.89922 37.1847,6.59764 27.1323,-3.58111 -49.18,-49.8036 -29.1981,-83.3268 -12.5102,-107.776 0.531496,-0.977954 1.1185,-1.93701 1.76221,-2.87481l0.956694 0.657875 0.022441 -0.0649607 -0.857481 -0.591733c1.37126,-1.99488 1.92047,-2.74607 2.28543,-3.30118l0.516142 -0.783071c1.67362,-3.83268 3.66851,-8.06694 5.78268,-12.5528 3.08032,-6.53859 6.52678,-13.8543 9.16536,-20.1591 -4.63229,-2.05748 -9.38859,-4.50591 -13.9441,-7.49174l-4.53426 -2.96693zm-35.8819 228.885l-1.4315 -0.638977 0 0.00236221 1.4315 0.636615zm-9.04725 -4.03819l-0.022441 -0.0106299 0.0283465 0.0283465 0.022441 0.00944883 -0.0283465 -0.0271654z"/>
  <path class="fil0" d="M1065.23 1199.23c0.394488,-0.98504 -0.62126,-2.8878 -0.62126,-10.6689 0,-23.6303 -2.74843,-61.9134 -9.69568,-95.5961 -5.17205,-25.076 -11.1803,-46.4776 -16.9228,-51.3473 -30.3733,-0.185433 -59.165,-3.7063 -80.4674,-18.3697 -26.713,-18.3874 -38.53,-47.98 -23.6835,-96.7607 12.5858,-41.3528 30.4311,-48.3851 46.0087,-54.5209 1.16575,-0.458268 2.0811,-0.820867 -0.291733,-51.5634 -1.10315,-23.6103 15.5067,-41.7532 35.2831,-54.9851 6.0567,-4.05237 12.2953,-7.63583 18.0484,-10.6724 0.907087,-13.0122 3.38268,-27.5481 8.63741,-40.5898 9.50552,-23.5961 26.7201,-41.8677 56.4745,-43.4882 2.15669,-0.114567 3.38032,-0.175984 3.52441,-0.175984 39.2091,0 53.7225,7.97008 65.6126,14.498 5.44607,2.98937 9.17245,5.03504 56.2559,-8.85119 10.8602,-3.20315 18.254,-7.9689 24.528,-12.0118 23.4709,-15.1264 38.9705,-25.1138 90.3343,-5.18977 9.9508,3.85985 33.1677,2.82756 57.8811,1.72914 66.3827,-2.95276 140.366,-6.24213 153.067,68.1591 8.96221,52.4965 -7.83308,67.1186 -33.0343,71.419 -0.960237,0.164173 -1.88858,0.294095 -2.79213,0.394488l0.0602363 0.8563c0.233858,3.3378 0.46063,6.80315 0.650788,9.95198 18.5528,29.6445 9.79961,50.5217 -11.1354,66.4524 -12.9083,9.82442 -28.7965,13.8827 -43.1256,17.5417 -0.125197,0.0318898 -0.217323,-0.386221 -0.284646,-1.12087l-0.809056 -3.18307c0.493701,11.2476 3.02835,16.9323 4.96536,21.2764 10.3913,23.2925 15.352,34.4209 -16.1102,74.315 -0.457087,0.578741 -0.832678,1.1185 -1.12441,1.60984 5.40709,1.82244 13.9193,2.00079 26.1603,-0.375591 38.8122,-7.54016 60.9709,8.34213 85.7505,26.1012 13.6819,9.80552 28.6595,20.5406 47.9055,22.839 24.3803,2.91142 41.015,18.5894 48.3827,37.8945 3.12166,8.1815 4.48701,17.1165 3.9567,25.9984 -0.537402,9.05198 -3.07914,18.104 -7.76103,26.3469 -10.128,17.8347 -29.1177,31.1941 -57.7465,31.1941 -22.7752,0 -36.9603,-2.41063 -50.7721,-4.7563 -3.45709,-0.587008 -6.88583,-1.16929 -10.4953,-1.68307 -1.11496,5.8878 -2.2689,11.6976 -3.71929,17.1319 -11.2654,42.1796 -33.5433,73.5355 -116.778,51.3048 -28.7894,-7.68898 -48.8835,-27.6473 -64.1008,-52.4268 -12.9165,-21.0331 -21.7347,-44.6457 -29.6646,-66.1406 -0.649607,-1.76339 -5.62205,-21.1276 -9.42757,-41.6989 -2.15788,-11.6634 -4.07599,-23.9292 -4.90985,-34.1351 -0.470079,-5.76378 -12.15,-13.8567 -25.611,-19.174 -5.27953,-2.08583 -10.3642,-3.37441 -14.7213,-3.55512 -2.85118,-0.11811 -5.20985,0.165354 -6.71693,0.96378 -2.31614,1.22717 -3.91181,6.30591 -3.91181,17.2169 0,26.3918 1.68425,35.2642 2.66221,40.4174 1.1752,6.19725 1.9004,10.0158 1.1185,17.4225 -0.894095,8.48032 -3.48898,15.8079 -10.2402,34.8827 -3.50788,9.90591 -4.45748,12.4925 -5.82874,16.4102 -8.2193,23.4744 -19.565,50.6528 -36.4925,72.8197 -19.9996,26.1886 -46.8142,45.0922 -83.5512,45.0922 -3.85276,0 -7.063,0.237402 -9.86221,0.444095 -9.38268,0.693308 -16.728,1.23662 -25.9288,-2.45669 -21.1606,-8.48741 -28.826,-22.513 -18.9307,-47.1863zm52.1823 -119.016c7.50001,36.3614 10.7634,76.441 11.1567,102.987 9.3815,-2.71418 17.3811,-9.70513 24.1843,-18.6142 11.8689,-15.5421 20.5158,-36.574 26.9918,-55.0701 5.87835,-16.7894 5.61378,-16.0524 5.82874,-16.6606 4.10079,-11.5854 6.13465,-17.3315 6.76772,-19.3323l-0.0519685 0.00944883c-0.0389764,0.102756 -0.0720473,0.12874 -0.0933072,0.0177165 -1.4374,-7.57678 -3.91418,-20.6209 -3.91418,-52.167 0,-38.55 15.5539,-61.7422 38.1638,-73.7162 11.9421,-6.32599 25.3063,-8.7815 38.9658,-8.21575 12.1524,0.50315 24.378,3.32481 35.7213,7.80709 33.5055,13.2354 63.3863,43.3347 65.863,73.6725 0.714567,8.74725 2.22874,18.5622 3.90827,27.6366 3.0874,16.6914 6.33544,30.267 6.67796,31.1988 6.90827,18.7264 14.5571,39.2433 24.1654,54.8894 7.30749,11.8984 15.8079,21.1784 26.1,23.9268 29.8051,7.95945 36.2965,2.30197 38.5276,-6.05434 1.33819,-5.01378 2.31378,-10.2036 3.29292,-15.4205 1.58504,-8.44961 3.18425,-16.9642 6.0626,-26.0622 3.23032,-14.2571 15.9768,-24.9012 31.2095,-24.9012 19.7965,0 32.6811,2.18977 45.9,4.43504 4.58386,0.778347 9.21969,1.56614 14.4047,2.21693 -18.5587,-6.98268 -32.7603,-17.1602 -46.1197,-26.7343 -13.0051,-9.32009 -24.6366,-17.6551 -36.5008,-15.3508 -24.9083,4.8378 -45.137,3.16536 -60.6402,-2.54292 -14.5996,-5.3752 -25.3878,-14.2335 -32.504,-25.0772 -7.50473,-11.4319 -10.5827,-24.5315 -9.51733,-37.8272 1.05945,-13.2484 6.29528,-26.5252 15.3744,-38.0374 7.69134,-9.75237 8.39528,-8.17796 8.11182,-8.81339 -5.28898,-11.8571 -12.7205,-28.5213 -10.239,-64.004 2.02677,-29.0067 23.8996,-34.5945 48.8658,-40.9701 2.65276,-0.676772 5.39528,-1.37835 7.9819,-2.07402 -0.846851,-2.83465 -1.31457,-5.83583 -1.33701,-8.94331l31.9996 -0.23504 -31.8756 0.125197 -1.15866 -16.5685c-0.424016,-6.04134 -0.858662,-11.935 -1.12323,-15.0484 -0.483071,-2.94567 -0.561024,-6.00591 -0.175984,-9.11812l0.0153543 0.00236221c4.4752,-36.0733 19.3654,-44.6894 36.4819,-45.7548 -8.25119,-14.8618 -49.0831,-13.05 -85.9985,-11.4083 -31.5544,1.40197 -61.1977,2.72008 -83.6316,-5.98111 -21.0378,-8.16024 -25.7303,-5.13662 -32.8335,-0.559843 -9.73229,6.27284 -21.2008,13.6642 -41.028,19.5118 -72.5788,21.4063 -85.7469,14.1768 -105.007,3.60236 -5.32796,-2.92559 -11.8335,-6.49725 -34.8614,-6.49725 -1.14213,0 0.636615,-0.122835 -0.274016,-0.0744095 -0.709843,0.0377953 0.340158,1.46693 -0.473622,3.48662 -3.32835,8.26182 -4.31575,19.7232 -4.31575,29.1437 0,1.88386 0.0106299,3.34252 0.0295276,4.42678 1.46339,13.4965 -5.83583,26.9622 -18.9201,32.726l-12.9012 -29.2843 12.8752 29.25c-6.04252,2.66221 -17.9492,8.05867 -27.2055,14.2512 -3.65433,2.44488 -7.22245,-4.88032 -7.03111,-0.765355 4.5,96.1961 -15.1677,103.948 -40.2083,113.812 -2.19449,0.863386 -4.71024,1.85669 -8.26064,13.5225 -4.88859,16.0618 -4.47048,23.4166 -1.06536,25.7599 8.2004,5.64449 26.3705,6.87638 46.852,6.87638 6.80079,0 13.4079,1.35473 19.8106,3.92126 30.0744,12.0591 47.5689,53.0658 56.9764,98.6682zm388.007 -342.97c3.73701,-0.637796 2.68583,-0.478347 -0.320079,-0.022441l-0.00826772 0.0720473 0.328347 -0.0496063zm-0.320079 -0.022441l-0.19252 0.0295276c-0.0614174,0.0472441 -0.0401575,0.0696851 0.184252,0.0425197l0.00826772 -0.0720473zm-45.5563 157.099c-0.52441,-5.73898 0.491339,-31.0051 -0.581103,-15.6602 -0.336614,4.80591 -0.383859,8.91969 -0.227953,12.4772l0.809056 3.18307zm-266.979 178.403c0.151181,-1.43504 -0.111024,0.375591 -0.274016,0.810237l0.0519685 -0.00944883c0.140551,-0.441733 0.211417,-0.701575 0.222047,-0.800788z"/>
  <path class="fil0" d="M702.519 666.501c22.8425,-8.79331 58.6701,-17.0102 89.0115,-17.0102 13.7386,0 27.1181,1.55315 38.9658,5.25355 15.2646,4.76811 27.9839,13.1492 36.4276,26.2099 5.90315,9.13347 9.17835,19.5756 9.17835,31.467 0,27.5126 -5.77441,46.6181 -18.2055,63.9296 -11.1248,15.4914 -25.9394,26.6929 -46.3323,40.8296 -6.14292,4.25906 -14.9114,6.8256 -26.3138,10.1693 -13.4941,3.95551 -37.141,-13.402 -36.2244,-1.54961l0.0271654 -0.00236221c1.19764,15.1961 -8.42599,28.7469 -22.3984,33.078 -1.58504,2.60197 -18.5977,32.4307 -36.2551,62.6138 -10.6654,18.2315 -19.0536,34.4162 -19.0536,39.8268l0 26.7059c0,12.0154 -6.62363,22.4835 -16.4185,27.9544 -20.361,13.2284 -46.4563,16.8449 -72.6012,14.8677 -31.8886,-2.41299 -65.5371,-13.3701 -86.1497,-24.2835 -52.7741,-27.9425 -50.9032,-62.2843 -48.2599,-110.758 0.445276,-8.18859 0.925985,-16.9866 0.925985,-28.3855 0,-29.2914 -9.77717,-35.0173 -18.5705,-40.167 -26.3303,-15.4181 -49.7304,-29.1225 -38.941,-93.7524 7.83308,-46.9217 62.7922,-44.9244 122.369,-42.763 39.3248,1.42677 82.0217,2.97756 84.6355,-2.94803 0.634252,-1.43858 1.39606,-2.90788 2.27835,-4.40197 10.8673,-18.4004 34.2213,-25.1941 58.7788,-24.4418 14.4791,0.442914 30.4134,3.33071 43.1256,7.55788zm89.0115 46.9914c-27.2918,0 -57.8516,7.30276 -69.5564,13.5165 -10.0335,7.48701 -23.9811,8.67284 -35.4319,1.9063l16.2791 -27.5504 -16.2496 27.4996c-0.194882,-0.114567 -0.627166,-0.320079 -1.26496,-0.601182 -6.90591,-3.04607 -17.7106,-5.26418 -27.6638,-5.5689 -3.11811,-0.0944883 0.229134,-10.0099 -1.54488,-7.56615 -20.8795,43.8449 -85.2768,41.5134 -144.649,39.3579 -30.437,-1.10433 -55.7221,-18.8516 -57.1182,-10.4882 -3.56693,21.3662 1.96654,24.6083 8.19213,28.2532 23.8288,13.9559 50.3209,29.4685 50.3209,95.1662 0,10.0536 -0.609449,21.2327 -1.17638,31.6359 -1.34764,24.7229 -2.30197,42.2398 14.2583,51.0083 14.3929,7.62048 38.2087,15.2953 61.1504,17.0315 7.35473,0.5563 14.3162,0.527953 20.2677,-0.323622l0 -5.45315c0,-17.9882 12.3508,-45.2315 28.0559,-72.078 14.7945,-25.2898 35.1662,-52.278 50.6823,-70.3182 7.02756,-31.0819 52.0737,-44.2914 81.1678,-52.8201 5.88898,-1.72677 5.69764,0.220866 8.06339,-1.41969 14.9398,-10.3571 25.4599,-18.0992 30.8315,-25.5792 3.69803,-5.15079 5.59607,-12.1571 5.90906,-23.2536 -0.157087,-0.00590552 -0.341339,-0.0366142 -0.557481,-0.103937 -5.07638,-1.58504 -12.052,-2.25118 -19.9666,-2.25118z"/>
  <path class="fil0" d="M288 429.499l1472 0c17.6728,0 32.0008,14.328 32.0008,32.0008l0 1125c0,17.6728 -14.328,32.0008 -32.0008,32.0008l-1472 0c-17.6728,0 -32.0008,-14.328 -32.0008,-32.0008l0 -1125c0,-17.6728 14.328,-32.0008 32.0008,-32.0008zm1440 64.0016l-1408 0 0 1061 1408 0 0 -1061z"/>
 </g>
 <rect class="fil1" width="2048" height="2048"/>
</svg>
