<?xml version="1.0" encoding="UTF-8"?>
<!DOCTYPE svg PUBLIC "-//W3C//DTD SVG 1.1//EN" "http://www.w3.org/Graphics/SVG/1.1/DTD/svg11.dtd">
<!-- Creator: CorelDRAW -->
<svg xmlns="http://www.w3.org/2000/svg" xml:space="preserve" width="2048px" height="2048px" style="shape-rendering:geometricPrecision; text-rendering:geometricPrecision; image-rendering:optimizeQuality; fill-rule:evenodd; clip-rule:evenodd"
viewBox="0 0 2048 2048"
 xmlns:xlink="http://www.w3.org/1999/xlink">
 <defs>
  <style type="text/css">
   <![CDATA[
    .fil1 {fill:none}
    .fil0 {fill:#212121;fill-rule:nonzero}
   ]]>
  </style>
 </defs>
 <g id="Layer_x0020_1">
  <metadata id="CorelCorpID_0Corel-Layer"/>
  <path class="fil0" d="M1274.6 500.424c-17.6728,0 -32.0008,14.328 -32.0008,32.0008 0,17.6728 14.328,32.0008 32.0008,32.0008l6.013 0c7.04056,0 13.4669,2.90433 18.1429,7.58032 4.67599,4.67717 7.58032,11.1024 7.58032,18.1429l0 364.383c0,7.04174 -2.90433,13.4658 -7.58032,18.1429 -4.67599,4.67599 -11.1024,7.58032 -18.1429,7.58032l-660.219 0c-7.04056,0 -13.4669,-2.90433 -18.1429,-7.58032 -4.67717,-4.67717 -7.5815,-11.1024 -7.5815,-18.1429l0 -364.383c0,-7.04056 2.90433,-13.4658 7.5815,-18.1429 4.67599,-4.67599 11.1024,-7.58032 18.1429,-7.58032l6.013 0c17.6728,0 32.0008,-14.328 32.0008,-32.0008 0,-17.6728 -14.328,-32.0008 -32.0008,-32.0008l-6.013 0c-24.7063,0 -47.1473,10.0854 -63.3934,26.3315 -16.2473,16.2473 -26.3327,38.687 -26.3327,63.3934l0 364.383c0,24.7063 10.0854,47.1461 26.3327,63.3934 16.2461,16.2461 38.687,26.3315 63.3934,26.3315l660.219 0c24.7063,0 47.1473,-10.0854 63.3934,-26.3315 16.2461,-16.2484 26.3315,-38.687 26.3315,-63.3934l0 -364.383c0,-24.7063 -10.0854,-47.1461 -26.3315,-63.3934 -16.2461,-16.2461 -38.687,-26.3315 -63.3934,-26.3315l-6.013 0z"/>
  <path class="fil0" d="M780.041 255.998c55.9052,0 106.523,22.663 143.163,59.3044 36.6402,36.6402 59.3044,87.2575 59.3044,143.163 0,55.9052 -22.6642,106.523 -59.3044,143.163 -36.6402,36.6402 -87.2575,59.3044 -143.163,59.3044 -55.9052,0 -106.523,-22.6642 -143.163,-59.3044 -36.6414,-36.6402 -59.3044,-87.2575 -59.3044,-143.163 0,-55.9052 22.663,-106.523 59.3044,-143.163 36.6402,-36.6414 87.2575,-59.3044 143.163,-59.3044zm97.9123 104.555c-25.0536,-25.0547 -59.6729,-40.5532 -97.9123,-40.5532 -38.2394,0 -72.8575,15.4973 -97.9123,40.5532 -25.0559,25.0547 -40.5532,59.6729 -40.5532,97.9123 0,38.2394 15.4984,72.8587 40.5532,97.9123 25.0547,25.0547 59.6729,40.5532 97.9123,40.5532 38.2394,0 72.8575,-15.4984 97.9123,-40.5532 25.0547,-25.0547 40.5532,-59.6729 40.5532,-97.9123 0,-38.2394 -15.4984,-72.8575 -40.5532,-97.9123z"/>
  <path class="fil0" d="M1120.97 320c-38.2394,0 -72.8575,15.4984 -97.9135,40.5532 -25.0547,25.0547 -40.5532,59.6729 -40.5532,97.9123 0,38.2394 15.4984,72.8575 40.5532,97.9123 25.0559,25.0547 59.6741,40.5532 97.9135,40.5532 38.2394,0 72.8575,-15.4984 97.9123,-40.5532 25.0547,-25.0547 40.5532,-59.6729 40.5532,-97.9123 0,-38.2394 -15.4984,-72.8575 -40.5532,-97.9123 -25.0547,-25.0547 -59.6729,-40.5532 -97.9123,-40.5532zm-143.164 -4.69725c36.6414,-36.6402 87.2587,-59.3044 143.164,-59.3044 55.9052,0 106.523,22.6642 143.163,59.3044 36.6402,36.6402 59.3044,87.2575 59.3044,143.163 0,55.9052 -22.6642,106.523 -59.3044,143.163 -36.6402,36.6402 -87.2575,59.3044 -143.163,59.3044 -55.9052,0 -106.523,-22.6642 -143.164,-59.3044 -36.6402,-36.6402 -59.3044,-87.2575 -59.3044,-143.163 0,-55.9052 22.6642,-106.523 59.3044,-143.163z"/>
  <path class="fil0" d="M1330.79 612.025l202.765 -70.1445 -0.0448819 -0.131102c16.702,-5.77796 34.9264,3.07796 40.7044,19.7799 1.27795,3.69213 1.83898,7.45867 1.75866,11.1496l0 400.01c0,17.6728 -14.328,32.0008 -32.0008,32.0008 -4.74567,0 -9.24922,-1.03465 -13.2992,-2.8878l-202.707 -70.1233 10.3748 -30.1252 -10.4622 30.2421c-13.4504,-4.65237 -21.8091,-17.3788 -21.5386,-30.8788l0 -257.79c0,-15.0721 10.4209,-27.7087 24.45,-31.102zm181.181 4.75158l-141.63 48.9945 0 213.138 141.63 48.9945 0 -311.127z"/>
  <path class="fil0" d="M950.507 980.255l128.068 0c17.6728,0 32.0008,14.328 32.0008,32.0008 0,44.1969 -17.9197,84.2162 -46.8863,113.183 -28.9666,28.9666 -68.9859,46.8851 -113.183,46.8851 -44.1969,0 -84.2162,-17.9185 -113.183,-46.8851 -28.9666,-28.9666 -46.8851,-68.9859 -46.8851,-113.183 0,-17.6728 14.328,-32.0008 32.0008,-32.0008l128.067 0zm90.6095 64.0016l-90.6095 0 -90.6095 0c4.82363,13.6595 12.6461,25.9004 22.6772,35.9315 17.3823,17.3823 41.4012,28.1339 67.9323,28.1339 26.5311,0 50.55,-10.7516 67.9323,-28.1339 10.0311,-10.0311 17.8547,-22.2721 22.6772,-35.9315z"/>
  <path class="fil0" d="M894.255 1124.65c8.55946,-15.3945 3.0189,-34.8154 -12.3756,-43.3748 -15.3945,-8.55946 -34.8154,-3.0189 -43.3748,12.3756l-362.352 650.852c-8.55946,15.3945 -3.0189,34.8154 12.3756,43.3748 15.3945,8.55946 34.8154,3.0189 43.3748,-12.3756l362.352 -650.852z"/>
  <path class="fil0" d="M1062.51 1093.65c-8.55946,-15.3945 -27.9803,-20.9351 -43.3748,-12.3756 -15.3945,8.55946 -20.9351,27.9803 -12.3756,43.3748l362.351 650.852c8.55946,15.3945 27.9803,20.9351 43.3748,12.3756 15.3945,-8.55946 20.9351,-27.9803 12.3756,-43.3748l-362.351 -650.852z"/>
  <path class="fil0" d="M982.508 1140.32c0,-17.6728 -14.328,-32.0008 -32.0008,-32.0008 -17.6728,0 -32.0008,14.328 -32.0008,32.0008l0 541.165c0,17.6728 14.328,32.0008 32.0008,32.0008 17.6728,0 32.0008,-14.328 32.0008,-32.0008l0 -541.165z"/>
 </g>
 <rect class="fil1" width="2048" height="2048"/>
</svg>
