<?xml version="1.0" encoding="UTF-8"?>
<!DOCTYPE svg PUBLIC "-//W3C//DTD SVG 1.1//EN" "http://www.w3.org/Graphics/SVG/1.1/DTD/svg11.dtd">
<!-- Creator: CorelDRAW -->
<svg xmlns="http://www.w3.org/2000/svg" xml:space="preserve" width="2048px" height="2048px" style="shape-rendering:geometricPrecision; text-rendering:geometricPrecision; image-rendering:optimizeQuality; fill-rule:evenodd; clip-rule:evenodd"
viewBox="0 0 2048 2048"
 xmlns:xlink="http://www.w3.org/1999/xlink">
 <defs>
  <style type="text/css">
   <![CDATA[
    .fil1 {fill:none}
    .fil0 {fill:#212121;fill-rule:nonzero}
   ]]>
  </style>
 </defs>
 <g id="Layer_x0020_1">
  <metadata id="CorelCorpID_0Corel-Layer"/>
  <path class="fil0" d="M602.206 1507.15c14.9799,-9.32009 19.5697,-29.0209 10.2496,-44.0008 -9.32009,-14.9799 -29.0209,-19.5697 -44.0008,-10.2496 -0.539764,0.337796 -187.197,116.335 -305.829,272.216 -10.6996,14.0138 -8.01379,34.05 6,44.7496 14.0138,10.6996 34.05,8.01379 44.7496,-6 111.495,-146.503 288.319,-256.395 288.831,-256.715z"/>
  <path class="fil0" d="M1079.99 780.218l204.293 204.293 0.00236221 -0.00236221c12.4961,12.4961 12.4961,32.7591 0,45.2552l-0.18189 0.177165 -572.461 572.461 0.00236221 0.00236221c-12.4961,12.4961 -32.7591,12.4961 -45.2552,0l-0.177165 -0.18189 -204.293 -204.293 -0.00236221 0.00236221c-12.4961,-12.4961 -12.4961,-32.7591 0,-45.2552l0.18189 -0.177165 572.461 -572.461 -0.00236221 -0.00236221c12.4961,-12.4961 32.7591,-12.4961 45.2552,0l0.177165 0.18189zm136.417 226.918l-159.222 -159.222 -527.39 527.39 159.222 159.222 527.39 -527.39z"/>
  <path class="fil0" d="M1698.52 364.983c52.7835,52.7835 86.5784,115.171 92.452,178.128 5.55473,59.556 -13.4835,118.432 -64.2686,169.218 -52.6878,52.6878 -130.538,86.4402 -207.199,92.4674 -72.9225,5.73189 -145.517,-13.2862 -196.514,-64.2839l-0.0011811 -0.0011811c-52.9831,-52.9843 -71.426,-129.333 -63.4359,-205.106 7.79056,-73.891 40.9394,-147.924 91.6182,-198.604l0.00236221 -0.00236221 0.00236221 -0.00236221c53.2985,-53.2985 115.401,-71.6469 177.796,-63.3095 60.0272,8.02087 119.167,41.1154 169.544,91.4918l0.00354331 0.00354331zm28.9512 183.878c-4.41733,-47.341 -31.5567,-95.9824 -74.2016,-138.627l-0.00354331 -0.00354331c-40.8213,-40.8213 -87.13,-67.4233 -132.545,-73.4918 -43.0477,-5.75197 -86.3918,7.4067 -124.295,45.3095l-0.00236221 0.00236221 -0.00236221 0.00236221c-40.5225,40.5225 -67.0689,100.121 -73.3678,159.854 -6.1004,57.854 6.96851,115.136 45.1855,153.354l0.0011811 0.0011811c36.6378,36.6378 90.8505,50.139 146.263,45.7831 62.1284,-4.88504 124.869,-31.8862 166.949,-73.9666 36.189,-36.1902 49.839,-77.2477 46.0181,-118.218z"/>
  <path class="fil0" d="M1170.26 497.274l396.155 396.155 0.00236221 -0.00236221c12.4961,12.4961 12.4961,32.7591 0,45.2552l-0.18189 0.177165 -186.428 186.429 0.00236221 0.00236221c-12.4961,12.4961 -32.7591,12.4961 -45.2552,0l-0.177165 -0.18189 -396.155 -396.156 -0.00236221 0.00236221c-12.4961,-12.4961 -12.4961,-32.7591 0,-45.2552l0.18189 -0.177165 186.428 -186.428 -0.00236221 -0.00236221c12.4961,-12.4961 32.7591,-12.4961 45.2552,0l0.177165 0.18189zm328.279 418.78l-351.084 -351.084 -141.357 141.357 351.084 351.085 141.357 -141.358z"/>
 </g>
 <rect class="fil1" width="2048" height="2048"/>
</svg>
