<?xml version="1.0" encoding="UTF-8"?>
<!DOCTYPE svg PUBLIC "-//W3C//DTD SVG 1.1//EN" "http://www.w3.org/Graphics/SVG/1.1/DTD/svg11.dtd">
<!-- Creator: CorelDRAW -->
<svg xmlns="http://www.w3.org/2000/svg" xml:space="preserve" width="2048px" height="2048px" style="shape-rendering:geometricPrecision; text-rendering:geometricPrecision; image-rendering:optimizeQuality; fill-rule:evenodd; clip-rule:evenodd"
viewBox="0 0 2048 2048"
 xmlns:xlink="http://www.w3.org/1999/xlink">
 <defs>
  <style type="text/css">
   <![CDATA[
    .fil1 {fill:none}
    .fil0 {fill:#212121;fill-rule:nonzero}
   ]]>
  </style>
 </defs>
 <g id="Layer_x0020_1">
  <metadata id="CorelCorpID_0Corel-Layer"/>
  <path class="fil0" d="M951.054 434.577l118.75 0c13.2543,0 24,10.7457 24,24l0 484.087c0,13.2543 -10.7457,24 -24,24l-118.75 0c-13.2543,0 -24,-10.7457 -24,-24l0 -484.087c0,-13.2543 10.7457,-24 24,-24zm94.7505 48l-70.7504 0 0 436.087 70.7504 0 0 -436.087z"/>
  <path class="fil0" d="M320.001 1662.02l258.743 0 0 -719.352c0,-17.6728 14.328,-32.0008 32.0008,-32.0008l71.9221 0 0 -222.45 -362.666 0 0 973.803zm290.744 64.0016l-322.745 0c-17.6728,0 -32.0008,-14.328 -32.0008,-32.0008l0 -1037.8c0,-17.6728 14.328,-32.0008 32.0008,-32.0008l426.668 0c17.6728,0 32.0008,14.328 32.0008,32.0008l0 286.452c0,17.6728 -14.328,32.0008 -32.0008,32.0008l-71.9221 0 0 719.352c0,17.6728 -14.328,32.0008 -32.0008,32.0008z"/>
  <path class="fil0" d="M1437.26 1726.02l-826.51 0c-17.6728,0 -32.0008,-14.328 -32.0008,-32.0008l0 -751.353c0,-17.6728 14.328,-32.0008 32.0008,-32.0008l826.51 0c17.6728,0 32.0008,14.328 32.0008,32.0008l0 751.353c0,17.6728 -14.328,32.0008 -32.0008,32.0008zm-794.509 -64.0016l762.508 0 0 -687.351 -762.508 0 0 687.351z"/>
  <path class="fil0" d="M1469.26 1662.02l258.743 0 0 -973.803 -362.666 0 0 222.45 71.9221 0c17.6728,0 32.0008,14.328 32.0008,32.0008l0 719.352zm290.744 64.0016l-322.745 0c-17.6728,0 -32.0008,-14.328 -32.0008,-32.0008l0 -719.352 -71.9221 0c-17.6728,0 -32.0008,-14.328 -32.0008,-32.0008l0 -286.452c0,-17.6728 14.328,-32.0008 32.0008,-32.0008l426.668 0c17.6728,0 32.0008,14.328 32.0008,32.0008l0 1037.8c0,17.6728 -14.328,32.0008 -32.0008,32.0008z"/>
  <path class="fil0" d="M712.323 1050.96c-17.6728,0 -32.0008,14.328 -32.0008,32.0008 0,17.6728 14.328,32.0008 32.0008,32.0008l244.358 0c17.6728,0 32.0008,-14.328 32.0008,-32.0008 0,-17.6728 -14.328,-32.0008 -32.0008,-32.0008l-244.358 0z"/>
  <path class="fil0" d="M753.245 1050.96l162.514 0c17.6728,0 32.0008,14.328 32.0008,32.0008l0 159.04c0,17.6728 -14.328,32.0008 -32.0008,32.0008l-162.514 0c-17.6728,0 -32.0008,-14.328 -32.0008,-32.0008l0 -159.04c0,-17.6728 14.328,-32.0008 32.0008,-32.0008zm130.513 64.0016l-98.5123 0 0 95.0387 98.5123 0 0 -95.0387z"/>
  <path class="fil0" d="M1335.68 1114.96c17.6728,0 32.0008,-14.328 32.0008,-32.0008 0,-17.6728 -14.328,-32.0008 -32.0008,-32.0008l-244.358 0c-17.6728,0 -32.0008,14.328 -32.0008,32.0008 0,17.6728 14.328,32.0008 32.0008,32.0008l244.358 0z"/>
  <path class="fil0" d="M1262.75 1114.96l-98.5123 0 0 95.0387 98.5123 0 0 -95.0387zm-130.513 -64.0016l162.514 0c17.6728,0 32.0008,14.328 32.0008,32.0008l0 159.04c0,17.6728 -14.328,32.0008 -32.0008,32.0008l-162.514 0c-17.6728,0 -32.0008,-14.328 -32.0008,-32.0008l0 -159.04c0,-17.6728 14.328,-32.0008 32.0008,-32.0008z"/>
  <path class="fil0" d="M951 1662.02l146 0 0 -225.573 -146 0 0 225.573zm178.001 64.0016l-210.001 0c-17.6728,0 -32.0008,-14.328 -32.0008,-32.0008l0 -289.575c0,-17.6728 14.328,-32.0008 32.0008,-32.0008l210.001 0c17.6728,0 32.0008,14.328 32.0008,32.0008l0 289.575c0,17.6728 -14.328,32.0008 -32.0008,32.0008z"/>
  <path class="fil0" d="M1434.79 767.438c-17.6728,0 -32.0008,14.328 -32.0008,32.0008 0,17.6728 14.328,32.0008 32.0008,32.0008l223.751 0c17.6728,0 32.0008,-14.328 32.0008,-32.0008 0,-17.6728 -14.328,-32.0008 -32.0008,-32.0008l-223.751 0z"/>
  <path class="fil0" d="M1569.37 955.275c-17.6728,0 -32.0008,14.328 -32.0008,32.0008 0,17.6728 14.328,32.0008 32.0008,32.0008l89.1698 0c17.6728,0 32.0008,-14.328 32.0008,-32.0008 0,-17.6728 -14.328,-32.0008 -32.0008,-32.0008l-89.1698 0z"/>
  <path class="fil0" d="M1569.37 1143.11c-17.6728,0 -32.0008,14.328 -32.0008,32.0008 0,17.6728 14.328,32.0008 32.0008,32.0008l89.1698 0c17.6728,0 32.0008,-14.328 32.0008,-32.0008 0,-17.6728 -14.328,-32.0008 -32.0008,-32.0008l-89.1698 0z"/>
  <path class="fil0" d="M1569.37 1330.95c-17.6728,0 -32.0008,14.328 -32.0008,32.0008 0,17.6728 14.328,32.0008 32.0008,32.0008l89.1698 0c17.6728,0 32.0008,-14.328 32.0008,-32.0008 0,-17.6728 -14.328,-32.0008 -32.0008,-32.0008l-89.1698 0z"/>
  <path class="fil0" d="M1569.37 1518.79c-17.6728,0 -32.0008,14.328 -32.0008,32.0008 0,17.6728 14.328,32.0008 32.0008,32.0008l89.1698 0c17.6728,0 32.0008,-14.328 32.0008,-32.0008 0,-17.6728 -14.328,-32.0008 -32.0008,-32.0008l-89.1698 0z"/>
  <path class="fil0" d="M613.21 831.44c17.6728,0 32.0008,-14.328 32.0008,-32.0008 0,-17.6728 -14.328,-32.0008 -32.0008,-32.0008l-223.751 0c-17.6728,0 -32.0008,14.328 -32.0008,32.0008 0,17.6728 14.328,32.0008 32.0008,32.0008l223.751 0z"/>
  <path class="fil0" d="M478.629 1019.28c17.6728,0 32.0008,-14.328 32.0008,-32.0008 0,-17.6728 -14.328,-32.0008 -32.0008,-32.0008l-89.1698 0c-17.6728,0 -32.0008,14.328 -32.0008,32.0008 0,17.6728 14.328,32.0008 32.0008,32.0008l89.1698 0z"/>
  <path class="fil0" d="M478.629 1207.11c17.6728,0 32.0008,-14.328 32.0008,-32.0008 0,-17.6728 -14.328,-32.0008 -32.0008,-32.0008l-89.1698 0c-17.6728,0 -32.0008,14.328 -32.0008,32.0008 0,17.6728 14.328,32.0008 32.0008,32.0008l89.1698 0z"/>
  <path class="fil0" d="M478.629 1394.95c17.6728,0 32.0008,-14.328 32.0008,-32.0008 0,-17.6728 -14.328,-32.0008 -32.0008,-32.0008l-89.1698 0c-17.6728,0 -32.0008,14.328 -32.0008,32.0008 0,17.6728 14.328,32.0008 32.0008,32.0008l89.1698 0z"/>
  <path class="fil0" d="M478.629 1582.79c17.6728,0 32.0008,-14.328 32.0008,-32.0008 0,-17.6728 -14.328,-32.0008 -32.0008,-32.0008l-89.1698 0c-17.6728,0 -32.0008,14.328 -32.0008,32.0008 0,17.6728 14.328,32.0008 32.0008,32.0008l89.1698 0z"/>
  <path class="fil0" d="M694.836 434.577c-13.2543,0 -24,10.7457 -24,24 0,13.2543 10.7457,24 24,24l612.472 0c13.2543,0 24,-10.7457 24,-24 0,-13.2543 -10.7457,-24 -24,-24l-612.472 0z"/>
  <path class="fil0" d="M754.828 340.857c-7.24843,-11.028 -22.0666,-14.0917 -33.0945,-6.84331 -11.028,7.24843 -14.0917,22.0666 -6.84331,33.0945l137.747 209.19c7.24843,11.028 22.0666,14.0917 33.0945,6.84331 11.028,-7.24843 14.0917,-22.0666 6.84331,-33.0945l-137.747 -209.19z"/>
  <path class="fil0" d="M886.387 340.857c-7.24843,-11.028 -22.0666,-14.0917 -33.0945,-6.84331 -11.028,7.24843 -14.0917,22.0666 -6.84331,33.0945l137.749 209.19c7.24843,11.028 22.0666,14.0917 33.0945,6.84331 11.028,-7.24843 14.0917,-22.0666 6.84331,-33.0945l-137.749 -209.19z"/>
  <path class="fil0" d="M1017.95 340.857c-7.24843,-11.028 -22.0666,-14.0917 -33.0945,-6.84331 -11.028,7.24843 -14.0917,22.0666 -6.84331,33.0945l137.749 209.19c7.24843,11.028 22.0666,14.0917 33.0945,6.84331 11.028,-7.24843 14.0917,-22.0666 6.84331,-33.0945l-137.749 -209.19z"/>
  <path class="fil0" d="M1149.51 340.857c-7.24843,-11.028 -22.0666,-14.0917 -33.0945,-6.84331 -11.028,7.24843 -14.0917,22.0666 -6.84331,33.0945l137.747 209.19c7.24843,11.028 22.0666,14.0917 33.0945,6.84331 11.028,-7.24843 14.0917,-22.0666 6.84331,-33.0945l-137.747 -209.19z"/>
 </g>
 <rect class="fil1" width="2048" height="2048"/>
</svg>
