<?xml version="1.0" encoding="UTF-8"?>
<!DOCTYPE svg PUBLIC "-//W3C//DTD SVG 1.1//EN" "http://www.w3.org/Graphics/SVG/1.1/DTD/svg11.dtd">
<!-- Creator: CorelDRAW -->
<svg xmlns="http://www.w3.org/2000/svg" xml:space="preserve" width="2048px" height="2048px" style="shape-rendering:geometricPrecision; text-rendering:geometricPrecision; image-rendering:optimizeQuality; fill-rule:evenodd; clip-rule:evenodd"
viewBox="0 0 2048 2048"
 xmlns:xlink="http://www.w3.org/1999/xlink">
 <defs>
  <style type="text/css">
   <![CDATA[
    .fil1 {fill:none}
    .fil0 {fill:#212121;fill-rule:nonzero}
   ]]>
  </style>
 </defs>
 <g id="Layer_x0020_1">
  <metadata id="CorelCorpID_0Corel-Layer"/>
  <path class="fil0" d="M440.416 1604.28c17.6728,0 32.0008,-14.328 32.0008,-32.0008 0,-17.6728 -14.328,-32.0008 -32.0008,-32.0008l-120.416 0 0 -206.866c16.8414,-0.927166 30.2138,-14.8772 30.2138,-31.95l0 -376.99 1032.04 0 202.615 355.892 27.75 -15.75 -27.8091 15.8327c6.26339,11.002 18.0685,16.8744 29.9067,16.1055 16.0725,0.464174 101.943,4.14095 113.287,29.8453l0 213.88 -120.416 0c-17.6728,0 -32.0008,14.328 -32.0008,32.0008 0,17.6728 14.328,32.0008 32.0008,32.0008l152.417 0c17.6728,0 32.0008,-14.328 32.0008,-32.0008l0 -249.938c0.0472441,-2.59606 -0.220866,-5.24056 -0.837402,-7.88505l-0.0413386 0.00944883c-14.6882,-62.9008 -116.766,-77.4119 -159.377,-80.7414l-202.03 -354.865c-5.11536,-10.8662 -16.1622,-18.3886 -28.9666,-18.3886l-1082.54 0c-17.6728,0 -32.0008,14.328 -32.0008,32.0008l0 377.041c-16.8414,0.927166 -30.2138,14.8772 -30.2138,31.95l0 270.816c0,17.6728 14.328,32.0008 32.0008,32.0008l152.417 0zm839.705 0c17.6728,0 32.0008,-14.328 32.0008,-32.0008 0,-17.6728 -14.328,-32.0008 -32.0008,-32.0008l-512.243 0c-17.6728,0 -32.0008,14.328 -32.0008,32.0008 0,17.6728 14.328,32.0008 32.0008,32.0008l512.243 0z"/>
  <path class="fil0" d="M1162.85 892.468c0,-17.6728 -14.328,-32.0008 -32.0008,-32.0008 -17.6728,0 -32.0008,14.328 -32.0008,32.0008l0 372.141c0,17.6728 14.328,32.0008 32.0008,32.0008l481.767 0c17.6728,0 32.0008,-14.328 32.0008,-32.0008 0,-17.6728 -14.328,-32.0008 -32.0008,-32.0008l-449.766 0 0 -340.14z"/>
  <path class="fil0" d="M604.147 1393.49c54.3142,0 103.491,22.0193 139.089,57.6166 35.5973,35.5985 57.6166,84.7749 57.6166,139.089 0,54.3142 -22.0181,103.492 -57.6166,139.09 -35.5973,35.5973 -84.7749,57.6166 -139.089,57.6166 -54.3154,0 -103.492,-22.0181 -139.09,-57.6166 -35.5985,-35.5985 -57.6166,-84.7749 -57.6166,-139.09 0,-54.3142 22.0193,-103.492 57.6166,-139.089 35.5985,-35.5985 84.776,-57.6166 139.09,-57.6166zm93.8387 102.867c-24.013,-24.0118 -57.1902,-38.8654 -93.8387,-38.8654 -36.6485,0 -69.828,14.8536 -93.8398,38.8654 -24.0118,24.0118 -38.8654,57.1902 -38.8654,93.8387 0,36.6496 14.8536,69.828 38.8654,93.8398 24.0118,24.0118 57.1902,38.8654 93.8398,38.8654 36.6485,0 69.8268,-14.8536 93.8387,-38.8654 24.0118,-24.0118 38.8654,-57.1914 38.8654,-93.8398 0,-36.6485 -14.8536,-69.8256 -38.8654,-93.8387z"/>
  <path class="fil0" d="M1443.85 1393.49c54.3142,0 103.492,22.0193 139.089,57.6166 35.5985,35.5985 57.6166,84.7749 57.6166,139.089 0,54.3142 -22.0181,103.492 -57.6166,139.09 -35.5973,35.5973 -84.7749,57.6166 -139.089,57.6166 -54.3142,0 -103.492,-22.0181 -139.09,-57.6166 -35.5973,-35.5985 -57.6166,-84.7749 -57.6166,-139.09 0,-54.3142 22.0193,-103.492 57.6166,-139.089 35.5985,-35.5985 84.776,-57.6166 139.09,-57.6166zm93.8387 102.867c-24.0118,-24.0118 -57.1902,-38.8654 -93.8387,-38.8654 -36.6485,0 -69.828,14.8536 -93.8398,38.8654 -24.0118,24.0118 -38.8654,57.1902 -38.8654,93.8387 0,36.6496 14.8536,69.8268 38.8654,93.8398 24.0118,24.0118 57.1914,38.8654 93.8398,38.8654 36.6485,0 69.8268,-14.8536 93.8387,-38.8654 24.0118,-24.0118 38.8654,-57.1914 38.8654,-93.8398 0,-36.6485 -14.8536,-69.8268 -38.8654,-93.8387z"/>
  <path class="fil0" d="M645.682 722.808c0,-17.6728 -14.328,-32.0008 -32.0008,-32.0008 -17.6728,0 -32.0008,14.328 -32.0008,32.0008l0 169.66c0,17.6728 14.328,32.0008 32.0008,32.0008l118.363 0c17.6728,0 32.0008,-14.328 32.0008,-32.0008l0 -169.657c0,-17.6728 -14.328,-32.0008 -32.0008,-32.0008 -17.6728,0 -32.0008,14.328 -32.0008,32.0008l0 137.656 -54.3615 0 0 -137.659z"/>
  <path class="fil0" d="M672.864 545.093c32.2725,0 61.493,13.0854 82.643,34.2366 21.1512,21.1512 34.2366,50.3729 34.2366,82.6442 0,32.2701 -13.0854,61.4918 -34.2366,82.643 -21.1512,21.1512 -50.3729,34.2366 -82.643,34.2366 -32.2725,0 -61.493,-13.0854 -82.643,-34.2366 -21.1512,-21.1512 -34.2366,-50.3729 -34.2366,-82.643 0,-32.2713 13.0854,-61.493 34.2366,-82.6442 21.15,-21.1512 50.3705,-34.2366 82.643,-34.2366zm37.3925 79.4871c-9.56576,-9.56694 -22.787,-15.4854 -37.3925,-15.4854 -14.6055,0 -27.8268,5.91851 -37.3925,15.4854 -9.56576,9.56576 -15.4854,22.7882 -15.4854,37.3937 0,14.6043 5.91969,27.8268 15.4854,37.3925 9.56576,9.56694 22.787,15.4854 37.3925,15.4854 14.6043,0 27.8268,-5.91969 37.3925,-15.4854 9.56576,-9.56576 15.4854,-22.7882 15.4854,-37.3925 0,-14.6055 -5.91969,-27.828 -15.4854,-37.3937z"/>
  <path class="fil0" d="M611.125 728.46c15.8091,-7.86969 22.2449,-27.0662 14.3752,-42.8752 -7.86969,-15.8091 -27.0662,-22.2449 -42.8752,-14.3752 -42.1607,21.0414 -89.556,27.8622 -135.033,20.4555 -34.291,-5.58308 -67.5615,-19.3004 -96.7406,-41.1461l155.281 -155.277 155.276 -155.28c21.8457,29.1803 35.563,62.4497 41.1473,96.7406 7.40552,45.476 0.585827,92.8725 -20.4567,135.032 -7.86969,15.8091 -1.43386,35.0055 14.3752,42.8752 15.8091,7.86969 35.0055,1.43386 42.8752,-14.3752 27.0225,-54.1394 35.7567,-115.137 26.2063,-173.782 -9.2941,-57.0615 -35.8382,-111.784 -79.6253,-155.693l-0.282284 -0.28937c-12.4961,-12.4961 -32.7591,-12.4961 -45.2552,0l0.00236221 0.00236221 -179.514 179.518 -179.339 179.335 -0.18189 0.177165c-12.4961,12.4961 -12.4961,32.7591 0,45.2552l0.00236221 -0.00236221c43.9548,43.9571 98.7922,70.5957 155.979,79.9087 58.6441,9.55158 119.642,0.814961 173.783,-26.2051z"/>
  <path class="fil0" d="M428.986 372.846c-12.4949,-12.4949 -32.7555,-12.4949 -45.2504,0 -12.4949,12.4949 -12.4949,32.7555 0,45.2504l77.1461 77.1449c12.4949,12.4949 32.7555,12.4949 45.2504,0 12.4949,-12.4949 12.4949,-32.7555 0,-45.2504l-77.1461 -77.1449z"/>
  <path class="fil0" d="M456.068 1046.37l36.4205 0c6.06733,0 10.7291,1.50945 13.9665,4.51418 3.25512,3.00473 4.8815,6.72638 4.8815,11.152 0,3.72402 -1.15748,6.9189 -3.47362,9.58583 -1.55433,1.77402 -3.81024,3.18071 -6.78544,4.20591 4.51418,1.08425 7.84016,2.96103 9.98032,5.59843 2.1248,2.65394 3.19488,5.98111 3.19488,9.9815 0,3.26811 -0.761812,6.19961 -2.27126,8.80867 -1.52362,2.60906 -3.59055,4.65945 -6.22914,6.18426 -1.62638,0.937796 -4.08898,1.62638 -7.38662,2.05158 -4.38189,0.572835 -7.28386,0.865749 -8.72009,0.865749l-33.5776 0 0 -62.9481zm19.624 24.6957l8.4567 0c3.03425,0 5.14489,-0.527953 6.34607,-1.56851 1.18701,-1.05591 1.77402,-2.56418 1.77402,-4.52835 0,-1.83307 -0.587008,-3.26929 -1.77402,-4.29567 -1.20118,-1.04055 -3.26811,-1.55315 -6.21378,-1.55315l-8.58898 0 0 11.9457zm0 24.724l9.92245 0c3.3567,0 5.71654,-0.585827 7.07953,-1.77284 1.37717,-1.18701 2.06693,-2.78504 2.06693,-4.79292 0,-1.86142 -0.67441,-3.3567 -2.03858,-4.48465 -1.36181,-1.12913 -3.73583,-1.69961 -7.15158,-1.69961l-9.87875 0 0 12.75zm48.9969 13.5284l0 -62.9481 32.4189 0c6.00945,0 10.611,0.511418 13.7764,1.55197 3.18071,1.02638 5.74607,2.93268 7.69607,5.73189 1.94764,2.78386 2.91614,6.18426 2.91614,10.1858 0,3.50315 -0.747638,6.5067 -2.22756,9.04253 -1.49646,2.53583 -3.54685,4.58741 -6.14174,6.17008 -1.67008,0.996851 -3.94252,1.83189 -6.83032,2.47677 2.31614,0.777166 4.00158,1.55433 5.07166,2.33032 0.702756,0.51378 1.74449,1.61221 3.1063,3.29764 1.36417,1.70079 2.27244,2.99055 2.72717,3.91418l9.40867 18.2469 -21.9839 0 -10.3913 -19.2437c-1.31929,-2.47795 -2.49213,-4.10433 -3.53268,-4.85197 -1.39134,-0.966142 -2.98937,-1.45039 -4.76221,-1.45039l-1.71496 0 0 25.5461 -19.5366 0zm19.5366 -37.4469l8.20631 0c0.879922,0 2.59488,-0.27874 5.14489,-0.849213 1.28976,-0.264567 2.34567,-0.923623 3.16536,-1.97953 0.806694,-1.05473 1.21772,-2.27244 1.21772,-3.64961 0,-2.0374 -0.644882,-3.59055 -1.93465,-4.67599 -1.29095,-1.09843 -3.70866,-1.64055 -7.25552,-1.64055l-8.5441 0 0 12.7949zm48.5705 -25.5012l52.1174 0 0 13.4386 -32.6256 0 0 10.0099 30.2658 0 0 12.8398 -30.2658 0 0 12.3992 33.5788 0 0 14.2606 -53.0705 0 0 -62.9481zm102.272 52.5567l-22.1599 0 -3.04961 10.3913 -19.8732 0 23.6551 -62.9481 21.2079 0 23.6681 62.9481 -20.3563 0 -3.09213 -10.3913zm-4.07481 -13.6158l-6.96142 -22.6299 -6.9189 22.6299 13.8803 0zm33.8256 -38.941l19.4492 0 0 23.7862 20.4024 -23.7862 25.8532 0 -22.937 23.7425 23.9634 39.2055 -23.9634 0 -13.2638 -25.8969 -10.0547 10.5213 0 15.3756 -19.4492 0 0 -62.9481zm73.9418 0l19.4929 0 0 62.9481 -19.4929 0 0 -62.9481zm33.5776 0l18.1748 0 23.6977 34.8225 0 -34.8225 18.3354 0 0 62.9481 -18.3354 0 -23.5807 -34.5591 0 34.5591 -18.2917 0 0 -62.9481zm104.778 40.1422l0 -13.0878 30.0449 0 0 26.8358c-5.74489,3.913 -10.8307,6.59528 -15.2575,8.00197 -4.42559,1.42205 -9.67205,2.1248 -15.7394,2.1248 -7.4752,0 -13.5579,-1.27441 -18.2622,-3.82441 -4.71969,-2.53583 -8.36812,-6.33189 -10.9488,-11.3728 -2.5937,-5.04213 -3.89764,-10.8165 -3.89764,-17.3398 0,-6.87284 1.42087,-12.8528 4.24961,-17.9386 2.84292,-5.07048 6.99095,-8.92442 12.4583,-11.563 4.26496,-2.0374 10.0099,-3.04961 17.2205,-3.04961 6.94725,0 12.15,0.630709 15.6083,1.89213 3.4441,1.25906 6.30237,3.20906 8.58898,5.86182 2.27244,2.6374 3.9874,5.9941 5.12953,10.0689l-18.7595 3.34134c-0.777166,-2.37402 -2.09646,-4.19174 -3.94252,-5.45197 -1.83189,-1.26024 -4.19174,-1.89095 -7.04882,-1.89095 -4.26615,0 -7.66536,1.47992 -10.2024,4.44095 -2.53465,2.9752 -3.81024,7.65119 -3.81024,14.0705 0,6.81378 1.28976,11.6799 3.85512,14.5973 2.55,2.91733 6.12638,4.38189 10.7138,4.38189 2.16851,0 4.24961,-0.322441 6.21378,-0.95315 1.97835,-0.629528 4.25079,-1.69961 6.78662,-3.20906l0 -5.93623 -13.0004 0z"/>
  <path class="fil0" d="M459.083 1132.85l26.2736 0 34.2626 50.3445 0 -50.3445 26.5063 0 0 91.0064 -26.5063 0 -34.0937 -49.963 0 49.963 -26.4425 0 0 -91.0064zm142.494 0l75.3485 0 0 19.4303 -47.1674 0 0 14.4721 43.7552 0 0 18.561 -43.7552 0 0 17.9256 48.5445 0 0 20.6173 -76.7256 0 0 -91.0064zm119.316 0l26.6977 0 9.62009 50.8323 14.0268 -50.8323 26.6351 0 14.0906 50.8323 9.62009 -50.8323 26.5701 0 -20.0445 91.0064 -27.567 0 -15.9543 -57.2953 -15.8929 57.2953 -27.5658 0 -20.2358 -91.0064zm168.431 60.8965l26.7614 -1.67362c0.571654,4.3441 1.75866,7.64882 3.53859,9.9378 2.88189,3.68622 7.03465,5.50867 12.4158,5.50867 4.00512,0 7.09961,-0.933072 9.28111,-2.81811 2.16142,-1.88622 3.24213,-4.06772 3.24213,-6.54686 0,-2.35276 -1.01693,-4.47166 -3.09331,-6.33544 -2.07638,-1.86496 -6.86457,-3.62362 -14.4083,-5.27717 -12.3319,-2.77441 -21.1252,-6.44056 -26.3799,-11.0386 -5.29725,-4.59804 -7.94646,-10.4457 -7.94646,-17.5654 0,-4.68307 1.35709,-9.11103 4.0689,-13.265 2.71181,-4.15158 6.77953,-7.41497 12.2256,-9.81024 5.44607,-2.37284 12.9036,-3.55985 22.3748,-3.55985 11.6327,0 20.511,2.16142 26.6138,6.48426 6.10158,4.32284 9.72639,11.2087 10.891,20.6374l-26.5075 1.54725c-0.699213,-4.08898 -2.18268,-7.07717 -4.44922,-8.94213 -2.24528,-1.8437 -5.36103,-2.77559 -9.32245,-2.77559 -3.28465,0 -5.74252,0.679134 -7.39607,2.07638 -1.65236,1.37717 -2.47914,3.07205 -2.47914,5.06457 0,1.44095 0.679134,2.73425 2.03504,3.89882 1.33465,1.20827 4.47048,2.30906 9.45001,3.34725 12.2894,2.64921 21.0827,5.33977 26.4012,8.05158 5.31733,2.71299 9.19607,6.06024 11.6114,10.0866 2.41536,4.00512 3.6437,8.49686 3.6437,13.4764 0,5.82638 -1.62992,11.2087 -4.85079,16.1244 -3.22087,4.93583 -7.73505,8.66575 -13.5413,11.2087 -5.78386,2.54292 -13.0937,3.81378 -21.9083,3.81378 -15.4677,0 -26.1886,-2.96575 -32.1437,-8.94095 -5.9752,-5.95512 -9.34371,-13.5189 -10.128,-22.715z"/>
 </g>
 <rect class="fil1" width="2048" height="2048"/>
</svg>
