<?xml version="1.0" encoding="UTF-8"?>
<!DOCTYPE svg PUBLIC "-//W3C//DTD SVG 1.1//EN" "http://www.w3.org/Graphics/SVG/1.1/DTD/svg11.dtd">
<!-- Creator: CorelDRAW -->
<svg xmlns="http://www.w3.org/2000/svg" xml:space="preserve" width="2048px" height="2048px" style="shape-rendering:geometricPrecision; text-rendering:geometricPrecision; image-rendering:optimizeQuality; fill-rule:evenodd; clip-rule:evenodd"
viewBox="0 0 2048 2048"
 xmlns:xlink="http://www.w3.org/1999/xlink">
 <defs>
  <style type="text/css">
   <![CDATA[
    .fil1 {fill:none}
    .fil0 {fill:#212121;fill-rule:nonzero}
   ]]>
  </style>
 </defs>
 <g id="Layer_x0020_1">
  <metadata id="CorelCorpID_0Corel-Layer"/>
  <path class="fil0" d="M1559.73 1520.39c-17.6728,0 -32.0008,14.328 -32.0008,32.0008 0,17.6728 14.328,32.0008 32.0008,32.0008l116.05 0c17.6728,0 32.0008,-14.328 32.0008,-32.0008 0,-141.124 0.368504,-233.96 0.734646,-326.909 0.491339,-124.813 0.986221,-249.822 0.986221,-328.244 0,-17.6728 -14.328,-32.0008 -32.0008,-32.0008l-929.11 0c-168.162,0 -217.877,107.561 -282.334,247.018 -17.9929,38.9292 -37.2449,80.5796 -60.5457,122.179 -26.4402,19.9205 -135.336,104.824 -148.63,161.747l-0.0413386 -0.00944883c-0.616536,2.64449 -0.884646,5.28898 -0.837402,7.88505l0 148.334c0,17.6728 14.328,32.0008 32.0008,32.0008l146.889 0c17.6728,0 32.0008,-14.328 32.0008,-32.0008 0,-17.6728 -14.328,-32.0008 -32.0008,-32.0008l-114.888 0 0 -112.694c13.1847,-39.202 110.04,-112.187 126.425,-124.322 4.60394,-2.7378 8.58308,-6.66969 11.4224,-11.6575l-27.8091 -15.8327 27.75 15.75c26.3717,-46.3229 47.0221,-90.9969 66.2634,-132.63 54.737,-118.427 96.9556,-209.766 224.335,-209.766l897.102 0c-0.0507874,124.137 -0.389764,210.062 -0.728741,295.993 -0.42874,108.739 -0.858662,217.428 -0.961418,295.159l-84.0733 0zm-809.252 0c-17.6728,0 -32.0008,14.328 -32.0008,32.0008 0,17.6728 14.328,32.0008 32.0008,32.0008l493.666 0c17.6728,0 32.0008,-14.328 32.0008,-32.0008 0,-17.6728 -14.328,-32.0008 -32.0008,-32.0008l-493.666 0z"/>
  <path class="fil0" d="M926.336 897.237c0,-17.6728 -14.328,-32.0008 -32.0008,-32.0008 -17.6728,0 -32.0008,14.328 -32.0008,32.0008l0 326.646 -432.294 0c-17.6728,0 -32.0008,14.328 -32.0008,32.0008 0,17.6728 14.328,32.0008 32.0008,32.0008l464.295 0c17.6728,0 32.0008,-14.328 32.0008,-32.0008l0 -358.647z"/>
  <path class="fil0" d="M1401.93 1442.93c-34.9985,0 -66.6839,14.1851 -89.615,37.1162 -22.9311,22.9311 -37.1162,54.6166 -37.1162,89.615 0,34.9996 14.1851,66.6839 37.1162,89.615 22.9311,22.9323 54.6166,37.1162 89.615,37.1162 34.9996,0 66.6839,-14.1839 89.615,-37.1162 22.9323,-22.9311 37.1162,-54.6154 37.1162,-89.615 0,-34.9985 -14.1839,-66.6839 -37.1162,-89.615 -22.9311,-22.9311 -54.6154,-37.1162 -89.615,-37.1162zm-134.865 -8.13426c34.5166,-34.5166 82.2012,-55.8674 134.865,-55.8674 52.6654,0 100.349,21.3508 134.865,55.8674 34.5177,34.5166 55.8674,82.2012 55.8674,134.865 0,52.6654 -21.3496,100.349 -55.8674,134.865 -34.5166,34.5177 -82.2001,55.8674 -134.865,55.8674 -52.6642,0 -100.349,-21.3496 -134.865,-55.8674 -34.5166,-34.5166 -55.8674,-82.2001 -55.8674,-134.865 0,-52.6642 21.3508,-100.349 55.8674,-134.865z"/>
  <path class="fil0" d="M592.682 1442.93c-34.9996,0 -66.6851,14.1851 -89.6162,37.1162 -22.9311,22.9311 -37.1162,54.6154 -37.1162,89.615 0,34.9996 14.1851,66.6839 37.1162,89.615 22.9311,22.9311 54.6166,37.1162 89.6162,37.1162 34.9985,0 66.6839,-14.1839 89.615,-37.1162 22.9311,-22.9311 37.1162,-54.6154 37.1162,-89.615 0,-34.9985 -14.1851,-66.6839 -37.1162,-89.615 -22.9311,-22.9311 -54.6166,-37.1162 -89.615,-37.1162zm-134.867 -8.13426c34.5177,-34.5177 82.2012,-55.8674 134.867,-55.8674 52.6642,0 100.349,21.3508 134.865,55.8674 34.5166,34.5166 55.8674,82.2012 55.8674,134.865 0,52.6654 -21.3508,100.349 -55.8674,134.865 -34.5166,34.5177 -82.2012,55.8674 -134.865,55.8674 -52.6654,0 -100.349,-21.3496 -134.867,-55.8674 -34.5166,-34.5166 -55.8674,-82.2001 -55.8674,-134.865 0,-52.6654 21.3508,-100.349 55.8674,-134.865z"/>
  <path class="fil0" d="M1303.42 733.731c0,-17.6728 -14.328,-32.0008 -32.0008,-32.0008 -17.6728,0 -32.0008,14.328 -32.0008,32.0008l0 163.507c0,17.6728 14.328,32.0008 32.0008,32.0008l114.071 0c17.6728,0 32.0008,-14.328 32.0008,-32.0008l0 -163.505c0,-17.6728 -14.328,-32.0008 -32.0008,-32.0008 -17.6728,0 -32.0008,14.328 -32.0008,32.0008l0 131.504 -50.0693 0 0 -131.506z"/>
  <path class="fil0" d="M1328.45 561.302c31.4209,0 59.8725,12.7394 80.4674,33.3343 20.5949,20.5949 33.3343,49.0465 33.3343,80.4674 0,31.4209 -12.7394,59.8713 -33.3343,80.4662 -20.5961,20.5949 -49.0465,33.3343 -80.4674,33.3343 -31.4209,0 -59.8713,-12.7394 -80.4674,-33.3343 -20.5949,-20.5949 -33.3343,-49.0453 -33.3343,-80.4662 0,-31.4209 12.7394,-59.8725 33.3343,-80.4674 20.5961,-20.5949 49.0465,-33.3343 80.4674,-33.3343zm35.217 78.5847c-9.00946,-9.00946 -21.4618,-14.5831 -35.217,-14.5831 -13.7551,0 -26.2075,5.57481 -35.217,14.5831 -9.00946,9.00946 -14.5831,21.4618 -14.5831,35.217 0,13.7551 5.57363,26.2063 14.5831,35.2158 9.00946,9.00827 21.4618,14.5831 35.217,14.5831 13.7551,0 26.2075,-5.57481 35.217,-14.5831 9.00946,-9.00946 14.5831,-21.4606 14.5831,-35.2158 0,-13.7551 -5.57363,-26.2075 -14.5831,-35.217z"/>
  <path class="fil0" d="M1269.47 740.216c15.8091,-7.86969 22.2449,-27.0662 14.3752,-42.8752 -7.86969,-15.8091 -27.0662,-22.2449 -42.8752,-14.3752 -40.4138,20.1697 -85.8449,26.7083 -129.434,19.6087 -32.4449,-5.28307 -63.939,-18.163 -91.6489,-38.6386l148.701 -148.697 148.697 -148.701c20.4756,27.7099 33.3567,59.2052 38.6398,91.6501 7.09961,43.5886 0.561024,89.0186 -19.6099,129.432 -7.86969,15.8091 -1.43386,35.0055 14.3752,42.8752 15.8091,7.86969 35.0055,1.43386 42.8752,-14.3752 26.1496,-52.3926 34.6028,-111.426 25.3595,-168.182 -8.9941,-55.2201 -34.6772,-108.176 -77.0422,-150.665l-0.288189 -0.295276c-12.4961,-12.4961 -32.7591,-12.4961 -45.2552,0l0.00236221 0.00236221 -173.004 173.008 -172.828 172.824 -0.18189 0.177165c-12.4961,12.4961 -12.4961,32.7591 0,45.2552l0.00236221 -0.00236221c42.5398,42.541 95.6115,68.3197 150.957,77.3327 56.7556,9.2445 115.791,0.790158 168.183,-25.3583z"/>
  <path class="fil0" d="M1094.24 395.64c-12.4949,-12.4949 -32.7555,-12.4949 -45.2504,0 -12.4949,12.4949 -12.4949,32.7555 0,45.2504l74.3481 74.3481c12.4949,12.4949 32.7555,12.4949 45.2504,0 12.4949,-12.4949 12.4949,-32.7555 0,-45.2504l-74.3481 -74.3481z"/>
  <path class="fil0" d="M975.866 1043.79l37.1811 0 48.4855 71.2453 0 -71.2453 37.5107 0 0 128.786 -37.5107 0 -48.2457 -70.7044 0 70.7044 -37.4209 0 0 -128.786zm166.367 0l106.628 0 0 27.4973 -66.7477 0 0 20.4791 61.9193 0 0 26.2666 -61.9193 0 0 25.3677 68.6965 0 0 29.1756 -108.576 0 0 -128.786zm133.565 0l37.7811 0 13.6134 71.9339 19.8496 -71.9339 37.6914 0 19.9406 71.9339 13.6122 -71.9339 37.6004 0 -28.3654 128.786 -39.0095 0 -22.5792 -81.0804 -22.4894 81.0804 -39.0095 0 -28.6358 -128.786zm203.069 86.1768l37.8709 -2.36811c0.809056,6.14646 2.48858,10.8236 5.00788,14.0634 4.07717,5.21575 9.95552,7.79528 17.5701,7.79528 5.66693,0 10.0465,-1.31929 13.1339,-3.9874 3.05906,-2.66929 4.58741,-5.7567 4.58741,-9.26576 0,-3.32835 -1.43858,-6.32717 -4.37717,-8.96575 -2.93858,-2.63858 -9.71576,-5.12835 -20.3906,-7.46575 -17.4508,-3.92835 -29.8937,-9.11576 -37.3311,-15.6225 -7.49528,-6.5067 -11.2441,-14.7827 -11.2441,-24.8575 0,-6.62717 1.92166,-12.8965 5.75788,-18.7713 3.83504,-5.87363 9.5941,-10.4941 17.3008,-13.8827 7.70552,-3.35788 18.261,-5.03741 31.663,-5.03741 16.4622,0 29.0292,3.06024 37.6618,9.17599 8.63386,6.11457 13.7634,15.8622 15.4122,29.2051l-37.5118 2.18858c-0.988583,-5.78741 -3.0874,-10.0146 -6.29646,-12.6543 -3.17717,-2.60906 -7.58505,-3.92717 -13.1929,-3.92717 -4.64764,0 -8.12599,0.960237 -10.4646,2.93858 -2.33858,1.94882 -3.50788,4.34764 -3.50788,7.16693 0,2.03858 0.959056,3.86811 2.87835,5.51693 1.88977,1.70906 6.32599,3.26811 13.3725,4.73741 17.3917,3.74764 29.8358,7.5567 37.3618,11.3941 7.52599,3.83859 13.0134,8.57599 16.4315,14.2725 3.41811,5.66811 5.1567,12.0248 5.1567,19.0713 0,8.24528 -2.30669,15.861 -6.86457,22.8177 -4.55788,6.98623 -10.9465,12.2646 -19.1622,15.8622 -8.18505,3.59764 -18.5291,5.39646 -31.004,5.39646 -21.8894,0 -37.0607,-4.19764 -45.4866,-12.6532 -8.45552,-8.42599 -13.2236,-19.1303 -14.3327,-32.1437z"/>
  <path class="fil0" d="M1689.92 1310.12l70.0843 0c13.2543,0 24,10.7457 24,24l0 131.511c0,13.2543 -10.7457,24 -24,24l-70.0843 0c-13.2543,0 -24,-10.7457 -24,-24l0 -131.511c0,-13.2543 10.7457,-24 24,-24zm46.0843 48l-22.0843 0 0 83.5111 22.0843 0 0 -83.5111z"/>
 </g>
 <rect class="fil1" width="2048" height="2048"/>
</svg>
