<?xml version="1.0" encoding="UTF-8"?>
<!DOCTYPE svg PUBLIC "-//W3C//DTD SVG 1.1//EN" "http://www.w3.org/Graphics/SVG/1.1/DTD/svg11.dtd">
<!-- Creator: CorelDRAW -->
<svg xmlns="http://www.w3.org/2000/svg" xml:space="preserve" width="2048px" height="2048px" style="shape-rendering:geometricPrecision; text-rendering:geometricPrecision; image-rendering:optimizeQuality; fill-rule:evenodd; clip-rule:evenodd"
viewBox="0 0 2048 2048"
 xmlns:xlink="http://www.w3.org/1999/xlink">
 <defs>
  <style type="text/css">
   <![CDATA[
    .fil1 {fill:none}
    .fil0 {fill:#212121;fill-rule:nonzero}
   ]]>
  </style>
 </defs>
 <g id="Layer_x0020_1">
  <metadata id="CorelCorpID_0Corel-Layer"/>
  <path class="fil0" d="M654.681 873.299l0 745.823c0,47.5737 -19.4398,90.802 -50.7579,122.12 -31.3181,31.3181 -74.5465,50.7579 -122.12,50.7579 -47.5737,0 -90.802,-19.4398 -122.12,-50.7579 -31.3181,-31.3181 -50.7579,-74.5465 -50.7579,-122.12l0 -745.823c0,-17.6728 14.328,-32.0008 32.0008,-32.0008l281.755 0c17.6728,0 32.0008,14.328 32.0008,32.0008zm-64.0016 745.823l0 -713.822 -217.753 0 0 713.822c0,29.9079 12.2587,57.1217 32.0067,76.8697 19.748,19.748 46.9618,32.0067 76.8697,32.0067 29.9079,0 57.1217,-12.2587 76.8697,-32.0067 19.748,-19.748 32.0067,-46.9618 32.0067,-76.8697z"/>
  <path class="fil0" d="M590.68 883.272c0,17.6728 14.328,32.0008 32.0008,32.0008 17.6728,0 32.0008,-14.328 32.0008,-32.0008l0 -563.272 1020.39 0 0 1408 -1211.85 0c-17.6728,0 -32.0008,14.328 -32.0008,32.0008 0,17.6728 14.328,32.0008 32.0008,32.0008l1243.85 0c17.6728,0 32.0008,-14.328 32.0008,-32.0008l0 -1472c0,-17.6728 -14.328,-32.0008 -32.0008,-32.0008l-1084.39 0c-17.6728,0 -32.0008,14.328 -32.0008,32.0008l0 595.273z"/>
  <path class="fil0" d="M738.971 502.46l50.0693 0 65.2902 95.9387 0 -95.9387 50.5122 0 0 173.424 -50.5122 0 -64.9678 -95.2111 0 95.2111 -50.3918 0 0 -173.424zm229.735 0l143.586 0 0 37.0276 -89.8831 0 0 27.5788 83.3812 0 0 35.3705 -83.3812 0 0 34.1587 92.5076 0 0 39.2882 -146.21 0 0 -173.424zm185.565 0l50.876 0 18.3307 96.867 26.7295 -96.867 50.7556 0 26.8524 96.867 18.3319 -96.867 50.6327 0 -38.1981 173.424 -52.5296 0 -30.4051 -109.182 -30.2847 109.182 -52.5307 0 -38.5607 -173.424zm279.158 116.046l50.9977 -3.1878c1.08898,8.27717 3.35197,14.5748 6.7441,18.9366 5.48977,7.02402 13.4055,10.4976 23.6599,10.4976 7.63111,0 13.5272,-1.77756 17.6858,-5.3693 4.11851,-3.5941 6.17717,-7.75276 6.17717,-12.4772 0,-4.48347 -1.93701,-8.52048 -5.89371,-12.0732 -3.9567,-3.55276 -13.0831,-6.90591 -27.4583,-10.0547 -23.4992,-5.2878 -40.2555,-12.2752 -50.2701,-21.0366 -10.0949,-8.76261 -15.1417,-19.9051 -15.1417,-33.4736 0,-8.92442 2.5878,-17.3658 7.75276,-25.2768 5.16378,-7.90985 12.9213,-14.1307 23.2973,-18.6957 10.3772,-4.52008 24.5906,-6.78189 42.639,-6.78189 22.1669,0 39.0898,4.11969 50.7154,12.3555 11.6268,8.23347 18.5339,21.3603 20.7543,39.3272l-50.5134 2.94803c-1.33228,-7.79292 -4.15866,-13.4847 -8.47914,-17.0398 -4.27914,-3.5126 -10.2154,-5.28898 -17.7662,-5.28898 -6.25749,0 -10.9429,1.29331 -14.0917,3.9567 -3.14882,2.62441 -4.72441,5.85473 -4.72441,9.65079 0,2.74488 1.29213,5.20985 3.87756,7.43032 2.54292,2.30197 8.51812,4.39961 18.0071,6.37914 23.4201,5.04685 40.1764,10.1752 50.3115,15.3425 10.1339,5.16969 17.524,11.5488 22.1256,19.2201 4.60394,7.63229 6.94607,16.1929 6.94607,25.6807 0,11.1036 -3.10748,21.3603 -9.24568,30.7276 -6.13701,9.40749 -14.739,16.5154 -25.8024,21.3603 -11.0232,4.84489 -24.9532,7.26733 -41.7508,7.26733 -29.4768,0 -49.9063,-5.65276 -61.2532,-17.0386 -11.3858,-11.3469 -17.8063,-25.7622 -19.3004,-43.2863z"/>
  <path class="fil0" d="M1182.87 832.659l326.426 0c13.2543,0 24,10.7457 24,24l0 326.426c0,13.2543 -10.7457,24 -24,24l-326.426 0c-13.2543,0 -24,-10.7457 -24,-24l0 -326.426c0,-13.2543 10.7457,-24 24,-24zm302.426 48l-278.426 0 0 278.426 278.426 0 0 -278.426z"/>
  <path class="fil0" d="M799.306 832.661c-13.2543,0 -24,10.7457 -24,24 0,13.2543 10.7457,24 24,24l246.884 0c13.2543,0 24,-10.7457 24,-24 0,-13.2543 -10.7457,-24 -24,-24l-246.884 0z"/>
  <path class="fil0" d="M799.306 1005.62c-13.2543,0 -24,10.7457 -24,24 0,13.2543 10.7457,24 24,24l246.884 0c13.2543,0 24,-10.7457 24,-24 0,-13.2543 -10.7457,-24 -24,-24l-246.884 0z"/>
  <path class="fil0" d="M799.306 1178.57c-13.2543,0 -24,10.7457 -24,24 0,13.2543 10.7457,24 24,24l246.884 0c13.2543,0 24,-10.7457 24,-24 0,-13.2543 -10.7457,-24 -24,-24l-246.884 0z"/>
  <path class="fil0" d="M816.155 1351.53c-13.2543,0 -24,10.7457 -24,24 0,13.2543 10.7457,24 24,24l709.895 0c13.2543,0 24,-10.7457 24,-24 0,-13.2543 -10.7457,-24 -24,-24l-709.895 0z"/>
  <path class="fil0" d="M816.155 1524.48c-13.2543,0 -24,10.7457 -24,24 0,13.2543 10.7457,24 24,24l709.895 0c13.2543,0 24,-10.7457 24,-24 0,-13.2543 -10.7457,-24 -24,-24l-709.895 0z"/>
 </g>
 <rect class="fil1" width="2048" height="2048"/>
</svg>
