<?xml version="1.0" encoding="UTF-8"?>
<!DOCTYPE svg PUBLIC "-//W3C//DTD SVG 1.1//EN" "http://www.w3.org/Graphics/SVG/1.1/DTD/svg11.dtd">
<!-- Creator: CorelDRAW -->
<svg xmlns="http://www.w3.org/2000/svg" xml:space="preserve" width="2048px" height="2048px" style="shape-rendering:geometricPrecision; text-rendering:geometricPrecision; image-rendering:optimizeQuality; fill-rule:evenodd; clip-rule:evenodd"
viewBox="0 0 2048 2048"
 xmlns:xlink="http://www.w3.org/1999/xlink">
 <defs>
  <style type="text/css">
   <![CDATA[
    .fil1 {fill:none}
    .fil0 {fill:#212121;fill-rule:nonzero}
   ]]>
  </style>
 </defs>
 <g id="Layer_x0020_1">
  <metadata id="CorelCorpID_0Corel-Layer"/>
  <path class="fil0" d="M1336.87 897.983c-17.6728,0 -32.0008,14.328 -32.0008,32.0008 0,17.6728 14.328,32.0008 32.0008,32.0008l196.661 0 -227.281 766.645c-4.97008,16.9134 4.71142,34.6548 21.6248,39.6248 16.9134,4.97008 34.6548,-4.71142 39.6248,-21.6248l238.742 -805.307c1.33583,-3.52441 2.06929,-7.34528 2.06929,-11.3386 0,-17.6728 -14.328,-32.0008 -32.0008,-32.0008l-239.44 0z"/>
  <path class="fil0" d="M1409.59 1517.6c-17.6728,0 -32.0008,14.328 -32.0008,32.0008 0,17.6728 14.328,32.0008 32.0008,32.0008l350.411 0c17.6728,0 32.0008,-14.328 32.0008,-32.0008 0,-3.99331 -0.733465,-7.81418 -2.06929,-11.3386l-182.913 -616.986 -0.0862205 -0.290551c-4.97008,-16.9134 -22.7114,-26.5949 -39.6248,-21.6248 -16.9134,4.97008 -26.5949,22.7114 -21.6248,39.6248l0.0862205 0.290551 171.451 578.324 -307.631 0z"/>
  <path class="fil0" d="M400.757 518.312l48.5469 0 63.306 93.0237 0 -93.0237 48.9768 0 0 168.152 -48.9768 0 -62.9941 -92.3162 0 92.3162 -48.8587 0 0 -168.152zm222.753 0l139.22 0 0 35.902 -87.1501 0 0 26.7402 80.8465 0 0 34.2957 -80.8465 0 0 33.1217 89.6953 0 0 38.0929 -141.765 0 0 -168.152zm179.925 0l49.3288 0 17.7744 93.9237 25.9169 -93.9237 49.213 0 26.0362 93.9237 17.7744 -93.9237 49.0937 0 -37.0359 168.152 -50.9339 0 -29.4815 -105.863 -29.3634 105.863 -50.9339 0 -37.389 -168.152zm270.673 112.519l49.4481 -3.09213c1.05591,8.0256 3.24922,14.1331 6.53859,18.3626 5.32323,6.81024 12.998,10.1787 22.9406,10.1787 7.39961,0 13.1173,-1.72323 17.1484,-5.2063 3.99449,-3.48544 5.98937,-7.51772 5.98937,-12.098 0,-4.34646 -1.87795,-8.26182 -5.71418,-11.7071 -3.83622,-3.4441 -12.685,-6.69567 -26.6232,-9.74883 -22.7858,-5.12717 -39.0319,-11.902 -48.743,-20.3977 -9.7878,-8.49568 -14.6811,-19.3004 -14.6811,-32.4555 0,-8.65276 2.50866,-16.8378 7.51772,-24.5079 5.0067,-7.67127 12.5268,-13.702 22.5886,-18.1276 10.0618,-4.38307 23.8429,-6.57638 41.3433,-6.57638 21.4925,0 37.9016,3.99449 49.1741,11.9799 11.2724,7.98426 17.9705,20.7106 20.1236,38.1319l-48.9792 2.85827c-1.29095,-7.55552 -4.03229,-13.0748 -8.22166,-16.5213 -4.14803,-3.4063 -9.90355,-5.12835 -17.2252,-5.12835 -6.06851,0 -10.611,1.25315 -13.6642,3.83622 -3.05315,2.54528 -4.58032,5.67638 -4.58032,9.35788 0,2.66103 1.25315,5.0504 3.75945,7.20355 2.46614,2.23229 8.25946,4.26615 17.4602,6.18544 22.7079,4.89331 38.9551,9.86576 48.7819,14.8772 9.8256,5.0126 16.9914,11.1969 21.4536,18.6354 4.46339,7.39961 6.73465,15.7004 6.73465,24.9 0,10.7658 -3.01299,20.7106 -8.96457,29.7933 -5.95158,9.12166 -14.2913,16.0134 -25.0193,20.7106 -10.6866,4.69843 -24.1937,7.04764 -40.48,7.04764 -28.5815,0 -48.3898,-5.4815 -59.3918,-16.5213 -11.041,-11.002 -17.2665,-24.9792 -18.7146,-41.9705z"/>
  <path class="fil0" d="M772.274 885.745l-268.505 0 0 622.796 268.505 0 0 -622.796zm-292.505 -48l316.505 0c13.2543,0 24,10.7457 24,24l0 670.796c0,13.2543 -10.7457,24 -24,24l-316.505 0c-13.2543,0 -24,-10.7457 -24,-24l0 -670.796c0,-13.2543 10.7457,-24 24,-24z"/>
  <path class="fil0" d="M1168.18 885.748c13.2543,0 24,-10.7457 24,-24 0,-13.2543 -10.7457,-24 -24,-24l-239.379 0c-13.2543,0 -24,10.7457 -24,24 0,13.2543 10.7457,24 24,24l239.379 0z"/>
  <path class="fil0" d="M1168.18 1109.35c13.2543,0 24,-10.7457 24,-24 0,-13.2543 -10.7457,-24 -24,-24l-239.379 0c-13.2543,0 -24,10.7457 -24,24 0,13.2543 10.7457,24 24,24l239.379 0z"/>
  <path class="fil0" d="M1168.18 1332.94c13.2543,0 24,-10.7457 24,-24 0,-13.2543 -10.7457,-24 -24,-24l-239.379 0c-13.2543,0 -24,10.7457 -24,24 0,13.2543 10.7457,24 24,24l239.379 0z"/>
  <path class="fil0" d="M1168.18 1556.54c13.2543,0 24,-10.7457 24,-24 0,-13.2543 -10.7457,-24 -24,-24l-239.379 0c-13.2543,0 -24,10.7457 -24,24 0,13.2543 10.7457,24 24,24l239.379 0z"/>
  <path class="fil0" d="M288 278.368l1048.87 0c17.6728,0 32.0008,14.328 32.0008,32.0008l0 1427.26c0,17.6728 -14.328,32.0008 -32.0008,32.0008l-1048.87 0c-17.6728,0 -32.0008,-14.328 -32.0008,-32.0008l0 -1427.26c0,-17.6728 14.328,-32.0008 32.0008,-32.0008zm1016.87 64.0016l-984.871 0 0 1363.26 984.871 0 0 -1363.26z"/>
 </g>
 <rect class="fil1" width="2048" height="2048"/>
</svg>
