<?xml version="1.0" encoding="UTF-8"?>
<!DOCTYPE svg PUBLIC "-//W3C//DTD SVG 1.1//EN" "http://www.w3.org/Graphics/SVG/1.1/DTD/svg11.dtd">
<!-- Creator: CorelDRAW -->
<svg xmlns="http://www.w3.org/2000/svg" xml:space="preserve" width="2048px" height="2048px" style="shape-rendering:geometricPrecision; text-rendering:geometricPrecision; image-rendering:optimizeQuality; fill-rule:evenodd; clip-rule:evenodd"
viewBox="0 0 2048 2048"
 xmlns:xlink="http://www.w3.org/1999/xlink">
 <defs>
  <style type="text/css">
   <![CDATA[
    .fil1 {fill:none}
    .fil0 {fill:#212121;fill-rule:nonzero}
   ]]>
  </style>
 </defs>
 <g id="Layer_x0020_1">
  <metadata id="CorelCorpID_0Corel-Layer"/>
  <path class="fil0" d="M1007.61 1336.82c3.4689,-12.789 -4.08662,-25.9689 -16.8756,-29.4378 -12.789,-3.4689 -25.9689,4.08662 -29.4378,16.8756l-8.94331 32.954 -80.1886 0c-1.21654,0 -2.40945,0.0921261 -3.57756,0.265748 -114.204,7.23308 -99.0426,187.094 -99.0024,187.614l23.9067 -1.7811 -23.928 1.86496c0.983859,12.6248 11.5689,22.2036 24.0343,22.1351l460.904 0c13.2543,0 24,-10.7457 24,-24 0,-13.2543 -10.7457,-24 -24,-24l-437.805 0c0.125197,-37.8225 6.65197,-110.999 55.0571,-114.104l0.411024 0.00590552 98.0528 0c10.7587,0.223229 20.7,-6.85985 23.6457,-17.7142l-23.1626 -6.28583 23.1567 6.28111 13.7528 -50.6729z"/>
  <path class="fil0" d="M1230.6 1541.52c-0.982678,13.2024 8.92324,24.7051 22.1256,25.6878 13.2024,0.982678 24.7051,-8.92324 25.6878,-22.1256 0.0401575,-0.52441 15.4618,-183.215 -101.665,-187.781l0.00354331 -0.080315c-0.307087,-0.011811 -0.614174,-0.0153543 -0.918898,-0.0153543l0 -0.00236221 -80.1402 0 -8.73662 -32.8536c-3.36496,-12.789 -16.461,-20.4284 -29.25,-17.0634 -12.789,3.36496 -20.4284,16.461 -17.0634,29.25l13.0854 49.2118c2.1248,11.0811 11.8689,19.4551 23.5689,19.4551l98.5359 0 0 -0.034252c65.7662,3.65906 54.7961,135.97 54.7666,136.351z"/>
  <path class="fil0" d="M991.407 1369.96c-6.2126,-11.6492 -20.6941,-16.0559 -32.3433,-9.84331 -11.6492,6.2126 -16.0559,20.6941 -9.84331,32.3433l53.3516 99.7926c6.2126,11.6492 20.6941,16.0559 32.3433,9.84331 11.6492,-6.2126 16.0559,-20.6941 9.84331,-32.3433l-53.3516 -99.7926z"/>
  <path class="fil0" d="M1098.11 1392.46c6.2126,-11.6492 1.80591,-26.1307 -9.84331,-32.3433 -11.6492,-6.2126 -26.1307,-1.80591 -32.3433,9.84331l-53.3516 99.7926c-6.2126,11.6492 -1.80591,26.1307 9.84331,32.3433 11.6492,6.2126 26.1307,1.80591 32.3433,-9.84331l53.3516 -99.7926z"/>
  <path class="fil0" d="M1078.04 1283.92c20.2831,-26.8051 22.5307,-31.5709 38.1744,-64.7705l1.26496 -2.68347 -0.0484252 -0.022441c1.18937,-2.52284 2.7626,-4.73977 4.61575,-6.6189 14.0067,-17.2228 4.4504,-28.9949 3.77126,-29.791l-0.0555119 0.0484252c-5.16969,-5.94449 -6.89292,-13.7126 -5.33977,-20.8618l4.02992 -30.3059c-4.61339,-32.9315 -18.7654,-31.8473 -18.861,-31.8414l0.00354331 0.056693c-12.3579,0.677953 -23.0457,-8.11772 -24.9981,-20.061 -3.68268,-15.8882 -22.9536,-17.0362 -23.0079,-17.0398l1.5 -23.9067 -1.54488 23.9504c-0.643701,-0.0413386 -1.27913,-0.109843 -1.90748,-0.199606 -48.0012,-5.75434 -97.3111,21.2622 -110.771,29.328 -23.3882,33.9803 -15.8835,66.5327 -15.6543,67.5048l0.0519685 -0.011811c1.84961,8.03977 -0.576378,16.0677 -5.78741,21.6992 -3.63307,5.06339 -4.82599,11.1106 -4.82953,11.1284l-23.5311 -4.4067 23.589 4.42323c-0.0992127,0.529134 -0.216142,1.05 -0.348425,1.56378 -2.27599,17.3433 22.7421,34.6713 23.1461,34.95l0.056693 -0.0814961c3.72402,2.59843 6.48426,6.0626 8.19922,9.93308l33.6662 63.6119c5.99292,5.66103 12.4193,10.1575 19.115,13.2343 6.73347,3.09213 13.9441,4.78111 21.4606,4.78111 9.26576,0 18.1772,-2.66339 26.387,-7.39843 9.55985,-5.51339 18.4099,-13.8496 26.074,-24.189l-0.0590552 -0.0437008c0.516142,-0.696851 1.06417,-1.35473 1.63819,-1.97953zm81.4879 -44.3327c-17.3351,36.7902 -19.7799,41.9752 -43.4126,73.1906 -0.357874,0.578741 -0.740552,1.14803 -1.15276,1.70433l-0.0885827 -0.0661418 -0.00236221 0.00354331 0.0295276 0.0212599c-11.4366,15.4299 -25.2295,28.2071 -40.7008,37.1292 -15.4925,8.93387 -32.4366,13.9606 -50.2004,13.9606 -14.3705,0 -28.2638,-3.27874 -41.3363,-9.28111 -12.4878,-5.73662 -24.0142,-13.9181 -34.278,-24.0366 -2.23937,-1.91103 -4.16103,-4.26733 -5.62205,-7.02756l21.2126 -11.2264 -21.1878 11.1567 -33.7394 -63.7489c-12.6744,-10.3004 -44.2122,-40.2248 -37.8142,-78.6461 0.068504,-0.67441 0.164173,-1.35118 0.291733,-2.02914l0.0590552 0.0106299c0.0377953,-0.196063 2.40945,-12.0709 9.28938,-24.2221 -1.82244,-18.7134 -1.3937,-58.6276 26.8169,-97.5083 1.82126,-3.02835 4.34292,-5.70119 7.50827,-7.75276l0.0425197 0.0649607c0.918898,-0.601182 73.5001,-48.1406 146.753,-38.974l-0.00354331 0.0295276c7.67599,0.805512 44.8772,6.38859 60.5221,39.8587 18.1984,5.82993 43.4327,22.8827 49.7174,72.28 0.429922,2.38937 0.50315,4.88386 0.166536,7.41851l-0.080315 -0.0106299 -3.56221 26.7921c8.50867,15.261 18.828,46.2697 -9.22442,80.902l-0.00354331 0.00708662z"/>
  <path class="fil0" d="M584.757 876.256l878.486 0c17.6728,0 32.0008,14.328 32.0008,32.0008l0 635.049c0,17.6728 -14.328,32.0008 -32.0008,32.0008l-878.486 0c-17.6728,0 -32.0008,-14.328 -32.0008,-32.0008l0 -635.049c0,-17.6728 14.328,-32.0008 32.0008,-32.0008zm846.485 64.0016l-814.484 0 0 571.047 814.484 0 0 -571.047z"/>
  <path class="fil0" d="M1586.06 725.734l-313.695 0c-15.215,0 -27.9496,-10.6193 -31.1977,-24.8504l-35.1071 -105.597 -364.129 0 -36.0544 108.447 -30.2504 -10.0004 30.3662 10.0961c-4.5378,13.65 -17.3835,22.2012 -31.05,21.9047l-313.011 0c-39,0 -74.478,15.978 -100.218,41.7177 -25.7398,25.7398 -41.7177,61.2189 -41.7177,100.219l0 716.221c0,39 15.978,74.4792 41.7177,100.219 25.7398,25.7398 61.2178,41.7177 100.218,41.7177l1124.13 0c39,0 74.478,-15.978 100.218,-41.7177 25.7398,-25.7398 41.7177,-61.2189 41.7177,-100.219l0 -716.221c0,-39 -15.978,-74.4792 -41.7177,-100.219 -25.7398,-25.7398 -61.2178,-41.7177 -100.218,-41.7177zm-290.759 -64.0016l290.759 0c56.6658,0 108.158,23.1591 145.468,60.4689 37.3099,37.3099 60.4689,88.8036 60.4689,145.469l0 716.221c0,56.6658 -23.1591,108.16 -60.4689,145.469 -37.3099,37.3099 -88.8024,60.4689 -145.468,60.4689l-1124.13 0c-56.6658,0 -108.158,-23.1591 -145.468,-60.4689 -37.3099,-37.3099 -60.4689,-88.8036 -60.4689,-145.469l0 -716.221c0,-56.6658 23.1591,-108.16 60.4689,-145.469 37.3099,-37.3099 88.8024,-60.4689 145.468,-60.4689l290.759 0 35.1071 -105.597c3.24803,-14.2311 15.9827,-24.8504 31.1977,-24.8504l409.317 0c13.6665,-0.296457 26.5122,8.25473 31.05,21.9047l-30.3662 10.0961 30.2504 -10.0004 36.0544 108.447z"/>
  <path class="fil0" d="M1537.26 617.038c0,-17.6728 -14.328,-32.0008 -32.0008,-32.0008 -17.6728,0 -32.0008,14.328 -32.0008,32.0008l0 76.6949c0,17.6728 14.328,32.0008 32.0008,32.0008 17.6728,0 32.0008,-14.328 32.0008,-32.0008l0 -76.6949z"/>
  <path class="fil0" d="M1257.21 358.042c8.83583,-15.2563 3.63189,-34.7894 -11.6244,-43.6252 -15.2563,-8.83583 -34.7894,-3.63189 -43.6252,11.6244l-57.3414 99.3178c-8.83583,15.2563 -3.63189,34.7894 11.6244,43.6252 15.2563,8.83583 34.7894,3.63189 43.6252,-11.6244l57.3414 -99.3178z"/>
  <path class="fil0" d="M846.04 326.041c-8.83583,-15.2563 -28.3689,-20.4603 -43.6252,-11.6244 -15.2563,8.83583 -20.4603,28.3689 -11.6244,43.6252l57.3414 99.3178c8.83583,15.2563 28.3689,20.4603 43.6252,11.6244 15.2563,-8.83583 20.4603,-28.3689 11.6244,-43.6252l-57.3414 -99.3178z"/>
  <path class="fil0" d="M1056 290.17c0,-17.6728 -14.328,-32.0008 -32.0008,-32.0008 -17.6728,0 -32.0008,14.328 -32.0008,32.0008l0 151.253c0,17.6728 14.328,32.0008 32.0008,32.0008 17.6728,0 32.0008,-14.328 32.0008,-32.0008l0 -151.253z"/>
  <path class="fil0" d="M885.458 633.587l277.083 0c17.6728,0 32.0008,14.328 32.0008,32.0008l0 110.418c0,17.6728 -14.328,32.0008 -32.0008,32.0008l-277.083 0c-17.6728,0 -32.0008,-14.328 -32.0008,-32.0008l0 -110.418c0,-17.6728 14.328,-32.0008 32.0008,-32.0008zm245.082 64.0016l-213.082 0 0 46.4162 213.082 0 0 -46.4162z"/>
 </g>
 <rect class="fil1" width="2048" height="2048"/>
</svg>
