<?xml version="1.0" encoding="UTF-8"?>
<!DOCTYPE svg PUBLIC "-//W3C//DTD SVG 1.1//EN" "http://www.w3.org/Graphics/SVG/1.1/DTD/svg11.dtd">
<!-- Creator: CorelDRAW -->
<svg xmlns="http://www.w3.org/2000/svg" xml:space="preserve" width="2048px" height="2048px" style="shape-rendering:geometricPrecision; text-rendering:geometricPrecision; image-rendering:optimizeQuality; fill-rule:evenodd; clip-rule:evenodd"
viewBox="0 0 2048 2048"
 xmlns:xlink="http://www.w3.org/1999/xlink">
 <defs>
  <style type="text/css">
   <![CDATA[
    .fil1 {fill:none}
    .fil0 {fill:#212121;fill-rule:nonzero}
   ]]>
  </style>
 </defs>
 <g id="Layer_x0020_1">
  <metadata id="CorelCorpID_0Corel-Layer"/>
  <path class="fil0" d="M606.859 349.329c96.8824,0 184.598,39.274 248.093,102.767 63.4926,63.4949 102.767,151.21 102.767,248.093 0,96.8835 -39.274,184.601 -102.767,248.093 -63.4949,63.4949 -151.21,102.768 -248.093,102.768 -96.8835,0 -184.599,-39.2729 -248.094,-102.768 -63.4926,-63.4926 -102.767,-151.21 -102.767,-248.093 0,-96.8835 39.2729,-184.598 102.768,-248.093 63.4926,-63.4926 151.21,-102.767 248.093,-102.767zm202.843 148.017c-51.9083,-51.9083 -123.626,-84.0154 -202.843,-84.0154 -79.2178,0 -150.936,32.1083 -202.843,84.0154 -51.9095,51.9095 -84.0166,123.625 -84.0166,202.843 0,79.2178 32.1083,150.936 84.0154,202.843 51.9095,51.9095 123.626,84.0166 202.844,84.0166 79.2178,0 150.933,-32.1071 202.843,-84.0166 51.9071,-51.9071 84.0154,-123.625 84.0154,-202.843 0,-79.2178 -32.1071,-150.934 -84.0154,-202.843z"/>
  <path class="fil0" d="M679.412 805.883l22.4634 111.996 0.00590552 -0.0011811c2.60551,12.9957 -5.81575,25.6453 -18.8114,28.2508 -1.70079,0.341339 -3.39567,0.490158 -5.06221,0.468898l-142.641 0c-13.2543,0 -24,-10.7457 -24,-24 0,-1.87677 0.214961,-3.70276 0.622441,-5.45552l22.441 -111.876 23.5311 4.6878 -23.5311 -4.71969c2.31024,-11.524 12.5185,-19.4492 23.8618,-19.2803l97.4646 0c11.8665,0 21.7217,8.61379 23.6551,19.9299zm-30.3473 92.7142l-12.965 -64.6441 -58.4811 0 -12.9662 64.6441 84.4123 0z"/>
  <path class="fil0" d="M660.252 588.036l85.4386 -75.1701 15.8433 18 -15.8528 -18.0189c9.9508,-8.75434 25.1173,-7.78465 33.8717,2.16614 1.45866,1.65827 2.64567,3.46181 3.56811,5.3563l70.6241 122.323 -20.7189 12 20.7851 -12c6.62717,11.4791 2.6941,26.1579 -8.78505,32.7851 -1.99488,1.15158 -4.08662,1.98307 -6.21615,2.51339l-106.978 36.124 0.0236221 0.0708662c-11.7579,3.96969 -24.4453,-1.68898 -29.4945,-12.7335l-47.7768 -82.7505 -0.0897638 0.0519685c-6.00591,-10.4032 -3.34016,-23.4343 5.75788,-30.7181zm95.1768 -19.8591l-49.6229 43.6583 29.2618 50.6835 62.6209 -21.1453 -42.2599 -73.1965z"/>
  <path class="fil0" d="M480.075 713.502l-106.975 -36.1229 7.59331 -22.6878 -7.67835 22.7386c-12.5575,-4.24016 -19.3004,-17.8595 -15.0602,-30.417 0.707481,-2.09646 1.67835,-4.02874 2.86063,-5.77796l70.6335 -122.341 -0.0496063 -0.0283465c6.62717,-11.4791 21.3059,-15.4122 32.7851,-8.78505 1.72914,0.998032 3.28347,2.18032 4.66063,3.50433l85.4339 75.1654 0.0129921 -0.0153543c9.31418,8.19449 10.7587,22.0063 3.7252,31.9016l-47.7555 82.7174 -20.7189 -11.9067 20.7851 12c-6.14882,10.65 -19.2284,14.8039 -30.2528,10.0547zm-64.0441 -72.13l62.6209 21.1453 29.2607 -50.6823 -49.6229 -43.6583 -42.2587 73.1953z"/>
  <path class="fil0" d="M1513.69 805.883l22.4634 111.996 0.00590552 -0.0011811c2.60551,12.9957 -5.81575,25.6453 -18.8114,28.2508 -1.70079,0.341339 -3.39567,0.490158 -5.06221,0.468898l-142.641 0c-13.2543,0 -24,-10.7457 -24,-24 0,-1.87677 0.214961,-3.70276 0.622441,-5.45552l22.441 -111.876 23.5311 4.6878 -23.5311 -4.71969c2.31024,-11.524 12.5185,-19.4492 23.8618,-19.2803l97.4646 0c11.8665,0 21.7217,8.61379 23.6551,19.9299zm-30.3473 92.7142l-12.965 -64.6441 -58.4811 0 -12.9662 64.6441 84.4123 0z"/>
  <path class="fil0" d="M1494.53 588.036l85.4386 -75.1701 15.8433 18 -15.8528 -18.0189c9.9508,-8.75434 25.1173,-7.78465 33.8717,2.16614 1.45866,1.65827 2.64567,3.46181 3.56811,5.3563l70.6241 122.323 -20.7189 12 20.7851 -12c6.62717,11.4791 2.6941,26.1579 -8.78505,32.7851 -1.99488,1.15158 -4.08662,1.98307 -6.21615,2.51339l-106.978 36.124 0.0236221 0.0708662c-11.7579,3.96969 -24.4453,-1.68898 -29.4945,-12.7335l-47.7768 -82.7505 -0.0897638 0.0519685c-6.00591,-10.4032 -3.34016,-23.4343 5.75788,-30.7181zm95.1768 -19.8591l-49.6229 43.6583 29.2618 50.6835 62.6209 -21.1453 -42.2599 -73.1965z"/>
  <path class="fil0" d="M1314.36 713.502l-106.975 -36.1229 7.59331 -22.6878 -7.67835 22.7386c-12.5575,-4.24016 -19.3004,-17.8595 -15.0602,-30.417 0.707481,-2.09646 1.67835,-4.02874 2.86063,-5.77796l70.6335 -122.341 -0.0496063 -0.0283465c6.62717,-11.4791 21.3059,-15.4122 32.7851,-8.78505 1.72914,0.998032 3.28347,2.18032 4.66063,3.50433l85.4339 75.1654 0.0129921 -0.0153543c9.31418,8.19449 10.7587,22.0063 3.7252,31.9016l-47.7555 82.7174 -20.7189 -11.9067 20.7851 12c-6.14882,10.65 -19.2284,14.8039 -30.2528,10.0547zm-64.0441 -72.13l62.6209 21.1453 29.2607 -50.6823 -49.6229 -43.6583 -42.2587 73.1953z"/>
  <path class="fil0" d="M1441.14 349.329c96.8835,0 184.598,39.274 248.093,102.767 63.4926,63.4949 102.767,151.21 102.767,248.093 0,96.8835 -39.274,184.601 -102.767,248.093 -63.4949,63.4949 -151.21,102.768 -248.093,102.768 -96.8835,0 -184.601,-39.2729 -248.093,-102.768 -63.4949,-63.4926 -102.768,-151.21 -102.768,-248.093 0,-96.8835 39.2729,-184.598 102.768,-248.093 63.4926,-63.4926 151.21,-102.767 248.093,-102.767zm202.843 148.017c-51.9083,-51.9083 -123.625,-84.0154 -202.843,-84.0154 -79.2178,0 -150.936,32.1083 -202.843,84.0154 -51.9095,51.9095 -84.0166,123.625 -84.0166,202.843 0,79.2178 32.1083,150.934 84.0166,202.843 51.9083,51.9083 123.625,84.0166 202.843,84.0166 79.2178,0 150.933,-32.1071 202.843,-84.0166 51.9071,-51.9071 84.0154,-123.625 84.0154,-202.843 0,-79.2178 -32.1071,-150.934 -84.0154,-202.843z"/>
  <path class="fil0" d="M925.718 668.188c-17.6728,0 -32.0008,14.328 -32.0008,32.0008 0,17.6728 14.328,32.0008 32.0008,32.0008l196.563 0c17.6728,0 32.0008,-14.328 32.0008,-32.0008 0,-17.6728 -14.328,-32.0008 -32.0008,-32.0008l-196.563 0zm764.269 265.745c0,-17.6728 -14.328,-32.0008 -32.0008,-32.0008 -17.6728,0 -32.0008,14.328 -32.0008,32.0008l0 700.738 -1203.97 0 0 -700.737c0,-17.6728 -14.328,-32.0008 -32.0008,-32.0008 -17.6728,0 -32.0008,14.328 -32.0008,32.0008l0 732.738c0,17.6728 14.328,32.0008 32.0008,32.0008l1267.97 0c17.6728,0 32.0008,-14.328 32.0008,-32.0008l0 -732.739z"/>
  <path class="fil0" d="M1215.06 1139.65l299.623 0c17.6728,0 32.0008,14.328 32.0008,32.0008l0 221.46c0,17.6728 -14.328,32.0008 -32.0008,32.0008l-299.623 0c-17.6728,0 -32.0008,-14.328 -32.0008,-32.0008l0 -221.46c0,-17.6728 14.328,-32.0008 32.0008,-32.0008zm267.623 64.0016l-235.622 0 0 157.459 235.622 0 0 -157.459z"/>
  <path class="fil0" d="M1336.5 1378.48c-8.07638,15.6709 -1.92166,34.924 13.7492,43.0004 15.6709,8.07638 34.924,1.92166 43.0004,-13.7492l65.1355 -125.927c8.07638,-15.6709 1.92166,-34.924 -13.7492,-43.0004 -15.6709,-8.07638 -34.924,-1.92166 -43.0004,13.7492l-65.1355 125.927z"/>
  <path class="fil0" d="M648.374 1126.62c43.0075,0 81.9473,17.4354 110.136,45.6237 28.1882,28.1858 45.6237,67.128 45.6237,110.134 0,43.0075 -17.4354,81.9485 -45.6237,110.134 -28.1882,28.1882 -67.128,45.6237 -110.136,45.6237 -43.0087,0 -81.9485,-17.4354 -110.134,-45.6237 -28.1882,-28.1858 -45.6237,-67.1256 -45.6237,-110.134 0,-43.0063 17.4354,-81.9485 45.6237,-110.134 28.1858,-28.1882 67.1256,-45.6237 110.134,-45.6237zm64.8851 90.8741c-16.6028,-16.6028 -39.5433,-26.8725 -64.8851,-26.8725 -25.3418,0 -48.2823,10.2709 -64.8839,26.8725 -16.6016,16.6016 -26.8725,39.5433 -26.8725,64.8839 0,25.3418 10.2709,48.2823 26.8725,64.8839 16.6016,16.6016 39.5422,26.8725 64.8839,26.8725 25.3418,0 48.2823,-10.2697 64.8851,-26.8725 16.6016,-16.6016 26.8725,-39.5433 26.8725,-64.8839 0,-25.3406 -10.2709,-48.2823 -26.8725,-64.8839z"/>
  <path class="fil0" d="M524.617 1521.76c-17.6728,0 -32.0008,14.328 -32.0008,32.0008 0,17.6728 14.328,32.0008 32.0008,32.0008l82.5048 0c17.6728,0 32.0008,-14.328 32.0008,-32.0008 0,-17.6728 -14.328,-32.0008 -32.0008,-32.0008l-82.5048 0z"/>
  <path class="fil0" d="M751.508 1521.76c-17.6728,0 -32.0008,14.328 -32.0008,32.0008 0,17.6728 14.328,32.0008 32.0008,32.0008l82.5048 0c17.6728,0 32.0008,-14.328 32.0008,-32.0008 0,-17.6728 -14.328,-32.0008 -32.0008,-32.0008l-82.5048 0z"/>
  <path class="fil0" d="M978.399 1521.76c-17.6728,0 -32.0008,14.328 -32.0008,32.0008 0,17.6728 14.328,32.0008 32.0008,32.0008l82.5048 0c17.6728,0 32.0008,-14.328 32.0008,-32.0008 0,-17.6728 -14.328,-32.0008 -32.0008,-32.0008l-82.5048 0z"/>
  <path class="fil0" d="M1205.29 1521.76c-17.6728,0 -32.0008,14.328 -32.0008,32.0008 0,17.6728 14.328,32.0008 32.0008,32.0008l82.5048 0c17.6728,0 32.0008,-14.328 32.0008,-32.0008 0,-17.6728 -14.328,-32.0008 -32.0008,-32.0008l-82.5048 0z"/>
  <path class="fil0" d="M1432.18 1521.76c-17.6728,0 -32.0008,14.328 -32.0008,32.0008 0,17.6728 14.328,32.0008 32.0008,32.0008l82.5048 0c17.6728,0 32.0008,-14.328 32.0008,-32.0008 0,-17.6728 -14.328,-32.0008 -32.0008,-32.0008l-82.5048 0z"/>
  <path class="fil0" d="M606.859 357.33c-13.2543,0 -24,10.7457 -24,24 0,13.2543 10.7457,24 24,24l834.282 0c13.2543,0 24,-10.7457 24,-24 0,-13.2543 -10.7457,-24 -24,-24l-834.282 0z"/>
 </g>
 <rect class="fil1" width="2048" height="2048"/>
</svg>
