<?xml version="1.0" encoding="UTF-8"?>
<!DOCTYPE svg PUBLIC "-//W3C//DTD SVG 1.1//EN" "http://www.w3.org/Graphics/SVG/1.1/DTD/svg11.dtd">
<!-- Creator: CorelDRAW -->
<svg xmlns="http://www.w3.org/2000/svg" xml:space="preserve" width="2048px" height="2048px" style="shape-rendering:geometricPrecision; text-rendering:geometricPrecision; image-rendering:optimizeQuality; fill-rule:evenodd; clip-rule:evenodd"
viewBox="0 0 2048 2048"
 xmlns:xlink="http://www.w3.org/1999/xlink">
 <defs>
  <style type="text/css">
   <![CDATA[
    .fil1 {fill:none}
    .fil0 {fill:#212121;fill-rule:nonzero}
   ]]>
  </style>
 </defs>
 <g id="Layer_x0020_1">
  <metadata id="CorelCorpID_0Corel-Layer"/>
  <path class="fil0" d="M954.205 925.826l-77.4686 -77.4686 -28.3807 28.3819 77.4686 77.4686 28.3807 -28.3819zm-54.8433 -145.344l122.539 122.539 0.18189 0.177165c12.4961,12.4961 12.4961,32.7591 0,45.2552l-0.00236221 -0.00236221 -73.4516 73.4528 -0.177165 0.18189c-12.4961,12.4961 -32.7591,12.4961 -45.2552,0l0.00236221 -0.00236221 -122.539 -122.539 -0.18189 -0.177165c-12.4961,-12.4961 -12.4961,-32.7591 0,-45.2552l0.00236221 0.00236221 73.4516 -73.4528 0.177165 -0.18189c12.4961,-12.4961 32.7591,-12.4961 45.2552,0l-0.00236221 0.00236221z"/>
  <path class="fil0" d="M699.008 1204.97l144.024 144.023 87.182 -87.182 -144.023 -144.024 -87.1831 87.1831zm121.399 211.898l-189.095 -189.093 -0.18189 -0.177165c-12.4961,-12.4961 -12.4961,-32.7591 0,-45.2552l0.00236221 0.00236221 132.254 -132.254 0.177165 -0.18189c12.4961,-12.4961 32.7591,-12.4961 45.2552,0l-0.00236221 0.00236221 189.093 189.095 0.18189 0.177165c12.4961,12.4961 12.4961,32.7591 0,45.2552l-0.00236221 -0.00236221 -132.253 132.253 -0.177165 0.18189c-12.4961,12.4961 -32.7591,12.4961 -45.2552,0l0.00236221 -0.00236221z"/>
  <path class="fil0" d="M1199.64 1171.26l-77.4686 -77.4686 -28.3807 28.3819 77.4686 77.4686 28.3807 -28.3819zm-54.8433 -145.344l122.539 122.539 0.18189 0.177165c12.4961,12.4961 12.4961,32.7591 0,45.2552l-0.00236221 -0.00236221 -73.4516 73.4528 -0.177165 0.18189c-12.4961,12.4961 -32.7591,12.4961 -45.2552,0l0.00236221 -0.00236221 -122.539 -122.539 -0.18189 -0.177165c-12.4961,-12.4961 -12.4961,-32.7591 0,-45.2552l0.00236221 0.00236221 73.4516 -73.4528 0.177165 -0.18189c12.4961,-12.4961 32.7591,-12.4961 45.2552,0l-0.00236221 0.00236221z"/>
  <path class="fil0" d="M1371.33 1043.82l408.424 323.649 -19.7504 25.0004 19.8744 -25.0807c13.8508,10.976 16.1823,31.1044 5.2063,44.9552 -0.896457,1.1315 -1.85551,2.18504 -2.86536,3.16063l-367.12 367.12 0.00236221 0.00236221c-12.4961,12.4961 -32.7591,12.4961 -45.2552,0 -1.62047,-1.62047 -3.02953,-3.37323 -4.22953,-5.22048l-323.638 -408.41 -0.109843 0.0874016c-10.3169,-13.0181 -8.87599,-31.5827 2.83583,-42.88l281.883 -281.883 -0.00236221 -0.00236221c12.3272,-12.3272 32.2122,-12.4925 44.7437,-0.498426zm340.749 351.324l-360.3 -285.513 -242.144 242.144 285.513 360.3 316.931 -316.931z"/>
  <path class="fil0" d="M938.368 696.225l-285.513 -360.3 -316.931 316.931 360.3 285.513 242.144 -242.144zm-282.839 -408.225l25.0004 -19.7504 323.649 408.424c11.9941,12.5315 11.8287,32.4166 -0.498426,44.7437l-0.00236221 -0.00236221 -281.883 281.883c-11.2973,11.7118 -29.8618,13.1528 -42.88,2.83583l0.0874016 -0.109843 -408.41 -323.638c-1.84725,-1.2 -3.6,-2.60906 -5.22048,-4.22953 -12.4961,-12.4961 -12.4961,-32.7591 0,-45.2552l0.00236221 0.00236221 367.12 -367.12c0.975591,-1.00984 2.02914,-1.9689 3.16063,-2.86536 13.8508,-10.976 33.9792,-8.64449 44.9552,5.2063l-25.0807 19.8744z"/>
  <path class="fil0" d="M1200.24 725.401l122.539 122.538 0.00236221 -0.00236221c12.4961,12.4961 12.4961,32.7591 0,45.2552l-0.18189 0.177165 -357.789 357.789 0.00236221 0.00236221c-12.4961,12.4961 -32.7591,12.4961 -45.2552,0l-0.177165 -0.18189 -122.538 -122.539 -0.00236221 0.00236221c-12.4961,-12.4961 -12.4961,-32.7591 0,-45.2552l0.18189 -0.177165 357.788 -357.788 -0.00236221 -0.00236221c12.4961,-12.4961 32.7591,-12.4961 45.2552,0l0.177165 0.18189zm54.6638 145.163l-77.4686 -77.4674 -312.717 312.717 77.4674 77.4686 312.718 -312.718z"/>
  <path class="fil0" d="M1378.09 715.157c12.4949,-12.4949 12.4949,-32.7555 0,-45.2504 -12.4949,-12.4949 -32.7555,-12.4949 -45.2504,0l-116.728 116.728c-12.4949,12.4949 -12.4949,32.7555 0,45.2504 12.4949,12.4949 32.7555,12.4949 45.2504,0l116.728 -116.728z"/>
  <path class="fil0" d="M1486.81 561.189c21.1382,21.137 31.7079,48.841 31.7079,76.5414 0,27.6992 -10.5697,55.4044 -31.7079,76.5426 -21.137,21.137 -48.841,31.7079 -76.5414,31.7079 -27.6992,0 -55.4032,-10.5709 -76.5426,-31.7079 -21.137,-21.1394 -31.7079,-48.8433 -31.7079,-76.5426 0,-27.7004 10.5709,-55.4044 31.7079,-76.5414 21.1382,-21.1382 48.8433,-31.7079 76.5426,-31.7079 27.7004,0 55.4044,10.5697 76.5414,31.7079zm-32.2937 76.5414c0,-11.3268 -4.31929,-22.6536 -12.9567,-31.291 -8.63741,-8.63741 -19.9642,-12.9567 -31.291,-12.9567 -11.328,0 -22.6547,4.31929 -31.2922,12.9567 -8.63623,8.63623 -12.9567,19.9642 -12.9567,31.291 0,11.328 4.32048,22.6547 12.9567,31.2922 8.63741,8.63623 19.9642,12.9567 31.2922,12.9567 11.3268,0 22.6547,-4.32048 31.291,-12.9567 8.63741,-8.63741 12.9567,-19.9642 12.9567,-31.2922z"/>
  <path class="fil0" d="M1633.74 595.595c-8.83583,-15.2563 -28.3689,-20.4603 -43.6252,-11.6244 -15.2563,8.83583 -20.4603,28.3689 -11.6244,43.6252 14.7768,25.5933 20.0362,54.5516 16.3795,82.3323 -3.64134,27.6579 -16.2425,54.2315 -37.2048,75.1938 -16.5189,16.5189 -36.7642,27.9921 -58.4705,33.8079 -21.7819,5.83583 -45.078,6.0378 -67.6123,0 -17.0516,-4.55552 -34.5697,5.57363 -39.1252,22.6252 -4.55552,17.0516 5.57363,34.5697 22.6252,39.1252 33.5339,8.98583 68.1981,8.68583 100.612,0 32.4898,-8.70591 62.6906,-25.7776 87.2209,-50.3079 31.0418,-31.0418 49.7433,-70.702 55.2048,-112.193 5.44607,-41.3681 -2.38347,-84.4855 -24.3803,-122.584z"/>
  <path class="fil0" d="M1420.4 469.515c15.2563,8.83583 34.7894,3.63189 43.6252,-11.6244 8.83583,-15.2563 3.63189,-34.7894 -11.6244,-43.6252 -38.0988,-21.9969 -81.2162,-29.8264 -122.584,-24.3803 -41.491,5.46142 -81.1512,24.163 -112.193,55.2048 -24.5303,24.5303 -41.602,54.7311 -50.3079,87.2209 -8.68583,32.4142 -8.98583,67.0784 0,100.612 4.55552,17.0516 22.0736,27.1807 39.1252,22.6252 17.0516,-4.55552 27.1807,-22.0736 22.6252,-39.1252 -6.0378,-22.5343 -5.83583,-45.8304 0,-67.6123 5.81575,-21.7063 17.289,-41.9516 33.8079,-58.4705 20.9622,-20.9622 47.5359,-33.5634 75.1938,-37.2048 27.7807,-3.6567 56.739,1.60276 82.3323,16.3795z"/>
 </g>
 <rect class="fil1" width="2048" height="2048"/>
</svg>
