<?xml version="1.0" encoding="UTF-8"?>
<!DOCTYPE svg PUBLIC "-//W3C//DTD SVG 1.1//EN" "http://www.w3.org/Graphics/SVG/1.1/DTD/svg11.dtd">
<!-- Creator: CorelDRAW -->
<svg xmlns="http://www.w3.org/2000/svg" xml:space="preserve" width="2048px" height="2048px" style="shape-rendering:geometricPrecision; text-rendering:geometricPrecision; image-rendering:optimizeQuality; fill-rule:evenodd; clip-rule:evenodd"
viewBox="0 0 2048 2048"
 xmlns:xlink="http://www.w3.org/1999/xlink">
 <defs>
  <style type="text/css">
   <![CDATA[
    .fil1 {fill:none}
    .fil0 {fill:#212121;fill-rule:nonzero}
   ]]>
  </style>
 </defs>
 <g id="Layer_x0020_1">
  <metadata id="CorelCorpID_0Corel-Layer"/>
  <path class="fil0" d="M1323.39 1764.88c2.69173,17.3965 18.9791,29.3162 36.3756,26.6244 17.3965,-2.69173 29.3162,-18.9791 26.6244,-36.3756l-147.904 -940.046 -31.5 4.87559 31.611 -4.97363c-2.49921,-15.8894 -16.2933,-27.1949 -31.9146,-27.0272l-365.678 0c-16.9453,0 -30.8126,13.1728 -31.9264,29.8358l-147.476 937.335c-2.69173,17.3965 9.22796,33.6839 26.6244,36.3756 17.3965,2.69173 33.6839,-9.22796 36.3756,-26.6244l143.635 -912.921 311.516 0 143.636 912.921z"/>
  <path class="fil0" d="M693.103 1727.99c-17.6728,0 -32.0008,14.328 -32.0008,32.0008 0,17.6728 14.328,32.0008 32.0008,32.0008l661.791 0c17.6728,0 32.0008,-14.328 32.0008,-32.0008 0,-17.6728 -14.328,-32.0008 -32.0008,-32.0008l-661.791 0z"/>
  <path class="fil0" d="M991.999 819.957c0,17.6728 14.328,32.0008 32.0008,32.0008 17.6728,0 32.0008,-14.328 32.0008,-32.0008l0 -199.993c0,-17.6728 -14.328,-32.0008 -32.0008,-32.0008 -17.6728,0 -32.0008,14.328 -32.0008,32.0008l0 199.993z"/>
  <path class="fil0" d="M770.845 1116.74c-13.9441,10.7693 -16.5189,30.8055 -5.74961,44.7496 10.7693,13.9441 30.8055,16.5189 44.7496,5.74961l416.646 -322.035c13.9441,-10.7693 16.5189,-30.8055 5.74961,-44.7496 -10.7693,-13.9441 -30.8055,-16.5189 -44.7496,-5.74961l-416.646 322.035z"/>
  <path class="fil0" d="M1238.16 1167.23c13.9441,10.7693 33.9803,8.19449 44.7496,-5.74961 10.7693,-13.9441 8.19449,-33.9803 -5.74961,-44.7496l-416.646 -322.035c-13.9441,-10.7693 -33.9803,-8.19449 -44.7496,5.74961 -10.7693,13.9441 -8.19449,33.9803 5.74961,44.7496l416.646 322.035z"/>
  <path class="fil0" d="M809.72 1116.61c-14.0138,-10.6996 -34.05,-8.01379 -44.7496,6 -10.6996,14.0138 -8.01379,34.05 6,44.7496l531.24 406.321c14.0138,10.6996 34.05,8.01379 44.7496,-6 10.6996,-14.0138 8.01379,-34.05 -6,-44.7496l-531.24 -406.321z"/>
  <path class="fil0" d="M1277.03 1167.36c14.0138,-10.6996 16.6996,-30.7359 6,-44.7496 -10.6996,-14.0138 -30.7359,-16.6996 -44.7496,-6l-531.436 407.564c-14.0138,10.6996 -16.6996,30.7359 -6,44.7496 10.6996,14.0138 30.7359,16.6996 44.7496,6l531.436 -407.564z"/>
  <path class="fil0" d="M1005.62 1733.87c-14.4272,10.148 -17.8973,30.0733 -7.74922,44.5004 10.148,14.4272 30.0733,17.8973 44.5004,7.74922l297.587 -209.201c14.4272,-10.148 17.8973,-30.0733 7.74922,-44.5004 -10.148,-14.4272 -30.0733,-17.8973 -44.5004,-7.74922l-297.587 209.201z"/>
  <path class="fil0" d="M1005.62 1786.12c14.4272,10.148 34.3524,6.67796 44.5004,-7.74922 10.148,-14.4272 6.67796,-34.3524 -7.74922,-44.5004l-297.776 -210.443c-14.4272,-10.148 -34.3524,-6.67796 -44.5004,7.74922 -10.148,14.4272 -6.67796,34.3524 7.74922,44.5004l297.776 210.443z"/>
  <path class="fil0" d="M1024 438.377c27.3189,0 52.1611,10.9654 70.2355,28.6914 18.1961,17.8429 29.4508,42.4819 29.4508,69.6851 0,27.2032 -11.2547,51.8422 -29.4508,69.6851 -18.0744,17.726 -42.9166,28.6914 -70.2355,28.6914 -27.3189,0 -52.1587,-10.9654 -70.2355,-28.6914 -18.1949,-17.8417 -29.4496,-42.4831 -29.4496,-69.6851 0,-27.2032 11.2547,-51.8433 29.4496,-69.6851 18.0768,-17.726 42.9166,-28.6914 70.2355,-28.6914zm25.4858 74.1922c-6.4193,-6.29528 -15.424,-10.1906 -25.4858,-10.1906 -10.0618,0 -19.0666,3.89528 -25.4858,10.1906 -6.3,6.17717 -10.1976,14.7295 -10.1976,24.1843 0,9.45591 3.89764,18.0071 10.1976,24.1843 6.4193,6.29528 15.424,10.1906 25.4858,10.1906 10.0618,0 19.0666,-3.89528 25.4858,-10.1906 6.3,-6.17835 10.1988,-14.7295 10.1988,-24.1843 0,-9.45473 -3.89882,-18.0059 -10.1988,-24.1843z"/>
  <path class="fil0" d="M1217.72 338.602c-15.3248,-8.69764 -34.8024,-3.32481 -43.5,12 -8.69764,15.3248 -3.32481,34.8024 12,43.5 26.1319,14.7945 47.1981,35.7815 61.6878,60.3945 14.4189,24.4937 22.3795,52.7622 22.3795,82.2568 0,21.9851 -4.37717,43.3394 -12.6473,62.9197 -8.33268,19.7303 -20.6599,37.9359 -36.4925,53.4638 -12.5646,12.3567 -12.7323,32.5607 -0.375591,45.1252 12.3567,12.5646 32.5607,12.7323 45.1252,0.375591 21.7925,-21.3744 38.8524,-46.6489 50.4933,-74.2134 11.7047,-27.711 17.8984,-57.4737 17.8984,-87.6709 0,-40.8012 -11.1626,-80.1615 -31.3819,-114.508 -20.1484,-34.2248 -49.2437,-63.2941 -85.1871,-83.6434z"/>
  <path class="fil0" d="M861.779 394.102c15.3248,-8.69764 20.6977,-28.1752 12,-43.5 -8.69764,-15.3248 -28.1752,-20.6977 -43.5,-12 -35.9422,20.3492 -65.0375,49.4185 -85.1859,83.6422 -20.2181,34.3465 -31.3819,73.7079 -31.3819,114.509 0,30.1949 6.19371,59.9587 17.8973,87.6709 11.6421,27.5646 28.6996,52.839 50.4933,74.2134 12.5646,12.3567 32.7685,12.189 45.1252,-0.375591 12.3567,-12.5646 12.189,-32.7685 -0.375591,-45.1252 -15.8327,-15.528 -28.1599,-33.7347 -36.4925,-53.4638 -8.27009,-19.5803 -12.6461,-40.9347 -12.6461,-62.9197 0,-29.4945 7.96064,-57.7642 22.3795,-82.2579 14.4898,-24.613 35.5571,-45.6 61.6867,-60.3934z"/>
  <path class="fil0" d="M1307.82 260.248c-15.3248,-8.69764 -34.8024,-3.32481 -43.5,12 -8.69764,15.3248 -3.32481,34.8024 12,43.5 41.8429,23.6906 75.6071,57.3473 98.8654,96.8552 23.1874,39.3874 35.9882,84.776 35.9882,132.065 0,35.1945 -7.05119,69.4867 -20.3788,101.04 -13.3878,31.7008 -33.1536,60.9107 -58.5107,85.7823 -12.5646,12.3567 -12.7323,32.5607 -0.375591,45.1252 12.3567,12.5646 32.5607,12.7323 45.1252,0.375591 31.3181,-30.717 55.8142,-66.9957 72.5115,-106.532 16.761,-39.6839 25.6299,-82.3855 25.6299,-125.791 0,-58.5945 -16.0028,-115.075 -44.9906,-164.316 -28.9158,-49.1185 -70.7091,-90.8587 -122.365,-120.104z"/>
  <path class="fil0" d="M771.68 315.748c15.3248,-8.69764 20.6977,-28.1752 12,-43.5 -8.69764,-15.3248 -28.1752,-20.6977 -43.5,-12 -51.6567,29.2453 -93.4501,70.9855 -122.366,120.104 -28.9866,49.239 -44.9906,105.722 -44.9906,164.316 0,43.4055 8.8689,86.1072 25.6299,125.791 16.6973,39.5363 41.1933,75.815 72.5115,106.532 12.5646,12.3567 32.7685,12.189 45.1252,-0.375591 12.3567,-12.5646 12.189,-32.7685 -0.375591,-45.1252 -25.3571,-24.8717 -45.1229,-54.0815 -58.5107,-85.7823 -13.3276,-31.5532 -20.3788,-65.8453 -20.3788,-101.04 0,-47.289 12.8008,-92.6788 35.9882,-132.065 23.2583,-39.5079 57.0213,-73.1646 98.8666,-96.8552z"/>
 </g>
 <rect class="fil1" width="2048" height="2048"/>
</svg>
