<?xml version="1.0" encoding="UTF-8"?>
<!DOCTYPE svg PUBLIC "-//W3C//DTD SVG 1.1//EN" "http://www.w3.org/Graphics/SVG/1.1/DTD/svg11.dtd">
<!-- Creator: CorelDRAW -->
<svg xmlns="http://www.w3.org/2000/svg" xml:space="preserve" width="2048px" height="2048px" style="shape-rendering:geometricPrecision; text-rendering:geometricPrecision; image-rendering:optimizeQuality; fill-rule:evenodd; clip-rule:evenodd"
viewBox="0 0 2048 2048"
 xmlns:xlink="http://www.w3.org/1999/xlink">
 <defs>
  <style type="text/css">
   <![CDATA[
    .fil1 {fill:none}
    .fil0 {fill:#212121;fill-rule:nonzero}
   ]]>
  </style>
 </defs>
 <g id="Layer_x0020_1">
  <metadata id="CorelCorpID_0Corel-Layer"/>
  <path class="fil0" d="M1335.9 615.328c38.1083,87.7229 27.4193,187.01 -14.2913,280.408 -29.3233,65.6587 -73.9229,128.427 -127.364,181.869 -53.4414,53.4414 -116.209,98.041 -181.869,127.363 -94.3205,42.124 -194.651,52.617 -283.008,13.1575l13.0004 -29.1248 -13.0488 29.2193c-8.42953,-3.76418 -14.4295,-10.7268 -17.2122,-18.8185 -38.1083,-87.7229 -27.4193,-187.01 14.2913,-280.408 29.3233,-65.6587 73.9229,-128.427 127.364,-181.869 53.4414,-53.4414 116.209,-98.041 181.869,-127.363 94.3205,-42.124 194.651,-52.617 283.008,-13.1575l-13.0004 29.1248 13.0488 -29.2193c8.42953,3.76418 14.4295,10.7268 17.2122,18.8185zm-72.541 254.407c33.2256,-74.3989 43.4292,-151.949 17.8536,-219.58 -67.63,-25.5756 -145.181,-15.3709 -219.58,17.8559 -58.1304,25.9595 -114.276,66.0213 -162.619,114.364 -48.3426,48.3426 -88.4044,104.49 -114.365,162.619 -33.2256,74.3989 -43.4292,151.949 -17.8536,219.58 67.63,25.5756 145.182,15.3709 219.58,-17.8559 58.1304,-25.9595 114.276,-66.0213 162.619,-114.364 48.3426,-48.3426 88.4044,-104.49 114.365,-162.619z"/>
  <path class="fil0" d="M1296.29 862.815c15.6709,8.00788 34.8673,1.79646 42.8752,-13.8744 8.00788,-15.6709 1.79646,-34.8673 -13.8744,-42.8752 -18.7453,-9.59528 -37.7941,-21.4417 -56.6811,-35.4118 -18.0047,-13.3181 -36.0118,-28.8272 -53.6221,-46.4374 -18.9106,-18.9106 -35.3918,-38.2595 -49.3335,-57.5552 -14.6599,-20.2878 -26.8996,-40.7918 -36.5634,-60.9308 -7.59331,-15.8776 -26.6232,-22.5933 -42.5008,-15 -15.8776,7.59331 -22.5933,26.6232 -15,42.5008 11.341,23.6327 25.5095,47.4248 42.313,70.6796 16.4847,22.8154 35.165,44.8866 55.8343,65.556 19.2673,19.2673 39.7347,36.8032 60.8717,52.4374 21.5209,15.9189 43.6028,29.6103 65.6812,40.9111z"/>
  <path class="fil0" d="M922.701 1208.66c8.00788,15.6709 27.2044,21.8823 42.8752,13.8744 15.6709,-8.00788 21.8823,-27.2044 13.8744,-42.8752 -11.3032,-22.0784 -24.9933,-44.1603 -40.9111,-65.6812 -15.6343,-21.137 -33.1701,-41.6055 -52.4374,-60.8729 -20.6693,-20.6681 -42.7418,-39.3508 -65.5595,-55.8355 -23.2559,-16.8024 -47.0445,-30.9709 -70.676,-42.3107 -15.8776,-7.59331 -34.9075,-0.87756 -42.5008,15 -7.59331,15.8776 -0.87756,34.9075 15,42.5008 20.1378,9.66379 40.6394,21.9024 60.9272,36.5611 19.2969,13.9406 38.6469,30.424 57.5587,49.3347 17.6102,17.6102 33.1193,35.6185 46.4374,53.6233 13.9689,18.887 25.8154,37.9359 35.4118,56.6811z"/>
  <path class="fil0" d="M1083.29 804.304c-12.4949,-12.4949 -32.7555,-12.4949 -45.2504,0 -12.4949,12.4949 -12.4949,32.7555 0,45.2504l43.7717 43.7717c12.4949,12.4949 32.7555,12.4949 45.2504,0 12.4949,-12.4949 12.4949,-32.7555 0,-45.2504l-43.7717 -43.7717z"/>
  <path class="fil0" d="M1024.74 862.853c-12.4949,-12.4949 -32.7555,-12.4949 -45.2504,0 -12.4949,12.4949 -12.4949,32.7555 0,45.2504l43.7717 43.7717c12.4949,12.4949 32.7555,12.4949 45.2504,0 12.4949,-12.4949 12.4949,-32.7555 0,-45.2504l-43.7717 -43.7717z"/>
  <path class="fil0" d="M966.191 921.401c-12.4949,-12.4949 -32.7555,-12.4949 -45.2504,0 -12.4949,12.4949 -12.4949,32.7555 0,45.2504l43.7705 43.7717c12.4949,12.4949 32.7555,12.4949 45.2504,0 12.4949,-12.4949 12.4949,-32.7555 0,-45.2504l-43.7705 -43.7717z"/>
  <path class="fil0" d="M1054.63 1309.17l182.405 231.966 0.0330709 -0.0259843c10.924,13.8921 8.51694,34.011 -5.3752,44.9351 -5.8878,4.62992 -12.8941,6.86457 -19.8449,6.84567l-390.407 0c-17.6728,0 -32.0008,-14.328 -32.0008,-32.0008 0,-8.04922 2.97166,-15.4028 7.87914,-21.0272l182.426 -231.993 25.1256 19.7504 -25.1551 -19.7799c6.33662,-8.05867 15.7665,-12.2528 25.2815,-12.2209l23.4851 0c10.8012,0 20.3528,5.35394 26.1473,13.5508zm91.4635 219.719l-129.417 -164.58 -129.416 164.58 258.833 0z"/>
  <path class="fil0" d="M287.999 455.112l736.001 0 736.001 0c17.6728,0 32.0008,14.328 32.0008,32.0008l0 840.503c0,17.6728 -14.328,32.0008 -32.0008,32.0008l-736.001 0 -736.001 0c-17.6728,0 -32.0008,-14.328 -32.0008,-32.0008l0 -840.503c0,-17.6728 14.328,-32.0008 32.0008,-32.0008zm736.001 64.0016l-704 0 0 776.501 704 0 704 0 0 -776.501 -704 0z"/>
  <path class="fil0" d="M716.903 1528.88c-17.6728,0 -32.0008,14.328 -32.0008,32.0008 0,17.6728 14.328,32.0008 32.0008,32.0008l599.546 0c17.6728,0 32.0008,-14.328 32.0008,-32.0008 0,-17.6728 -14.328,-32.0008 -32.0008,-32.0008l-599.546 0z"/>
 </g>
 <rect class="fil1" width="2048" height="2048"/>
</svg>
