<?xml version="1.0" ?>
<!-- Uploaded to: SVG Repo, www.svgrepo.com, Generator: SVG Repo Mixer Tools -->
<svg fill="#000000" width="800px" height="800px" viewBox="0 0 64 64" id="Layer_1_1_" version="1.1" xml:space="preserve" xmlns="http://www.w3.org/2000/svg" xmlns:xlink="http://www.w3.org/1999/xlink">
<g>
<path d="M38.39,41.214L35,40.246v-0.267c1.246-0.939,2-2.416,2-3.979v-1.792c0-2.688-2.001-4.967-4.556-5.188   c-1.401-0.122-2.793,0.351-3.822,1.294C27.591,31.259,27,32.603,27,34v2c0,1.563,0.754,3.04,2,3.979v0.267l-3.39,0.968   C23.484,41.822,22,43.79,22,46v1h20v-1C42,43.79,40.516,41.822,38.39,41.214z M24.175,45c0.318-0.885,1.047-1.595,1.985-1.862   L31,41.754V38.87l-0.497-0.289C29.562,38.033,29,37.068,29,36v-2c0-0.839,0.355-1.645,0.974-2.212   c0.626-0.575,1.438-0.852,2.298-0.776C33.801,31.145,35,32.549,35,34.208V36c0,1.068-0.562,2.033-1.503,2.581L33,38.87v2.884   l4.84,1.384c0.938,0.268,1.667,0.978,1.985,1.862H24.175z"/>
<path d="M18,51h28V25H18V51z M20,27h24v22H20V27z"/>
<rect height="2" width="2" x="28" y="17"/>
<rect height="2" width="2" x="34" y="17"/>
<rect height="2" width="2" x="44" y="21"/>
<rect height="2" width="2" x="18" y="21"/>
<path d="M60,9h-5c-0.551,0-1-0.448-1-1s0.449-1,1-1h3c1.654,0,3-1.346,3-3s-1.346-3-3-3H4C2.346,1,1,2.346,1,4s1.346,3,3,3h17   c0.551,0,1,0.448,1,1s-0.449,1-1,1h-6c-1.654,0-3,1.346-3,3s1.346,3,3,3h4.343c0.79,0,1.562,0.32,2.121,0.879L22.586,17H17   c-1.654,0-3,1.346-3,3v40c0,1.654,1.346,3,3,3h30c1.654,0,3-1.346,3-3V20c0-1.654-1.346-3-3-3h-5.586l1.121-1.121   C43.094,15.32,43.867,15,44.657,15H60c1.654,0,3-1.346,3-3S61.654,9,60,9z M48,20v40c0,0.552-0.449,1-1,1H17c-0.551,0-1-0.448-1-1   V20c0-0.552,0.449-1,1-1h7v1c0,1.654,1.346,3,3,3h10c1.654,0,3-1.346,3-3v-1h7C47.551,19,48,19.448,48,20z M26,20v-4   c0-0.552,0.449-1,1-1h10c0.551,0,1,0.448,1,1v4c0,0.552-0.449,1-1,1H27C26.449,21,26,20.552,26,20z M60,13H44.657   c-1.335,0-2.591,0.521-3.535,1.465l-1.16,1.159C39.775,14.149,38.526,13,37,13H27c-1.526,0-2.775,1.149-2.962,2.624l-1.16-1.159   C21.934,13.521,20.678,13,19.343,13H15c-0.551,0-1-0.448-1-1s0.449-1,1-1h6c1.654,0,3-1.346,3-3s-1.346-3-3-3H4   C3.449,5,3,4.552,3,4s0.449-1,1-1h54c0.551,0,1,0.448,1,1s-0.449,1-1,1h-3c-1.654,0-3,1.346-3,3s1.346,3,3,3h5c0.551,0,1,0.448,1,1   S60.551,13,60,13z"/>
<rect height="2" width="28" x="18" y="53"/>
<rect height="2" width="10" x="18" y="57"/>
<rect height="2" width="2" x="44" y="57"/>
<rect height="2" width="12" x="30" y="57"/>
</g>
</svg>