<?xml version="1.0" encoding="iso-8859-1"?>
<!-- Uploaded to: SVG Repo, www.svgrepo.com, Generator: SVG Repo Mixer Tools -->
<!DOCTYPE svg PUBLIC "-//W3C//DTD SVG 1.1//EN" "http://www.w3.org/Graphics/SVG/1.1/DTD/svg11.dtd">
<svg fill="#000000" height="800px" width="800px" version="1.1" id="Capa_1" xmlns="http://www.w3.org/2000/svg" xmlns:xlink="http://www.w3.org/1999/xlink" 
	 viewBox="0 0 481 481" xml:space="preserve">
<g>
	<path d="M212.5,33H208V5c0-2.761-2.239-5-5-5h-27c-2.761,0-5,2.239-5,5v28h-4.5c-2.761,0-5,2.239-5,5v379.521
		c0,20.037,8.366,39.091,23,52.674V476c0,2.761,2.239,5,5,5s5-2.239,5-5v-5.805c14.634-13.583,23-32.637,23-52.674V43.729
		c3.06,0.898,5.826,2.612,8.042,5.067c3.375,3.738,4.951,8.555,4.438,13.565l-6.676,65.215c-2.566,25.074-0.768,50.185,5.345,74.637
		c0.568,2.272,2.606,3.789,4.847,3.789c0.401,0,0.81-0.049,1.217-0.151c2.679-0.67,4.308-3.384,3.638-6.063
		c-5.831-23.323-7.546-47.276-5.098-71.193l6.676-65.215c0.793-7.747-1.746-15.504-6.964-21.284C227.746,36.315,220.287,33,212.5,33
		z M171.5,343.75v-6.25h36v6.25H171.5z M207.5,353.75V360h-36v-6.25H207.5z M171.5,327.5v-6.25h36v6.25H171.5z M171.5,311.25V305h36
		v6.25H171.5z M171.5,295V43h36v252H171.5z M181,10h17v23h-17V10z M189.5,461.159c-11.491-11.555-18-27.219-18-43.638V370h36v47.521
		C207.5,433.94,200.991,449.604,189.5,461.159z"/>
	<path d="M199.5,46c-2.761,0-5,2.239-5,5v92c0,2.761,2.239,5,5,5s5-2.239,5-5V51C204.5,48.239,202.261,46,199.5,46z"/>
	<path d="M199.5,152c-2.761,0-5,2.239-5,5v11c0,2.761,2.239,5,5,5s5-2.239,5-5v-11C204.5,154.239,202.261,152,199.5,152z"/>
	<path d="M199.5,373.625c-2.761,0-5,2.239-5,5V419c0,2.761,2.239,5,5,5s5-2.239,5-5v-40.375
		C204.5,375.864,202.261,373.625,199.5,373.625z"/>
	<path d="M180.2,205c-2.761,0-5,2.239-5,5v73c0,2.761,2.239,5,5,5s5-2.239,5-5v-73C185.2,207.239,182.961,205,180.2,205z"/>
	<path d="M301.689,1h-20.379C271.49,1,263.5,8.99,263.5,18.811V424c0,0.697,0.146,1.385,0.427,2.022l23,52
		c0.801,1.81,2.594,2.978,4.573,2.978s3.772-1.167,4.573-2.978l23-52c0.282-0.637,0.427-1.326,0.427-2.022V18.811
		C319.5,8.99,311.51,1,301.689,1z M281.311,11h20.379c4.307,0,7.811,3.504,7.811,7.811V38h-36V18.811
		C273.5,14.504,277.004,11,281.311,11z M276.179,429h30.642l-2.989,6.758h-24.664L276.179,429z M286.353,419V78h10.295v341H286.353z
		 M276.353,419H273.5V78h2.853V419z M306.648,419V78h2.852v341H306.648z M273.5,68v-5h36v5H273.5z M273.5,53v-5h36v5H273.5z
		 M291.5,463.639l-7.909-17.882h15.818L291.5,463.639z"/>
</g>
</svg>