<?xml version="1.0" encoding="utf-8"?>
<!-- Generator: Adobe Illustrator 23.0.2, SVG Export Plug-In . SVG Version: 6.00 Build 0)  -->
<svg version="1.1" id="Layer_1" xmlns="http://www.w3.org/2000/svg" xmlns:xlink="http://www.w3.org/1999/xlink" x="0px" y="0px"
	 viewBox="0 0 2048 2048" style="enable-background:new 0 0 2048 2048;" xml:space="preserve">
<style type="text/css">
	.st0{fill:#E67529;}
	.st1{fill:#FF822D;}
	.st2{fill:#EBF4FF;}
	.st3{fill:#67B2E6;}
	.st4{fill:#8F4C2E;}
	.st5{fill:#F9C7B2;}
	.st6{fill:#F0C0AA;}
	.st7{fill:#85A3FA;}
	.st8{fill:#333333;}
</style>
<g>
	<g>
		<g>
			<g id="XMLID_1_">
				<path class="st0" d="M1610.47,1106.43h-166.15l-47.09-131.73c32.54,0,32.54,19.44,65.08,19.44c32.54,0,32.54-19.44,65.08-19.44
					s32.54,19.44,65.09,19.44c32.54,0,32.54-19.44,65.08-19.44L1610.47,1106.43z"/>
				<path class="st1" d="M1755.63,1360.28c10.14,35.08,17.16,72.5,8.38,107.96c-12.64,51.09-56.94,89.86-106.17,108.48
					c-41.36,15.64-86.02,19.14-130.45,18.98c-44.42,0.16-89.08-3.34-130.44-18.98c-49.23-18.62-93.53-57.39-106.17-108.48
					c-8.78-35.46-1.76-72.88,8.38-107.96c27.31-94.54,77.54-182.36,145.16-253.85h166.15
					C1678.09,1177.92,1728.32,1265.74,1755.63,1360.28z"/>
				<polygon class="st2" points="1553.49,519.79 1553.49,726.83 1460.05,726.83 1460.05,597.47 1371.62,597.47 1371.62,726.83 
					1278.18,726.83 1278.18,519.79 1415.84,404.95 				"/>
				<path class="st3" d="M1553.49,519.79l-137.65-114.84l-137.66,114.84v207.04h93.44V597.47h88.43v129.36h93.44V519.79z
					 M1725.58,300.57V831.2H1316.2l-131.89,155.59V831.2h-78.22V300.57H1725.58z"/>
				<path class="st4" d="M972.19,725.35c2.02,22.33-6.82,43.4-17.01,62.01c-1.73,3.17-19.83,38.97-23.92,42.7
					c-25-15.44-51.21-43.12-51.21-43.12c-174.56,82.25-283.36-3.73-283.36-3.73c-27.41,30.35-75.14,46.85-75.14,46.85
					c-9.17-21.2-10.78-45.29-12.24-68.73c-1.26-20.17-2.43-41.05,2.29-60.81c5-20.95,19.7-42.06,32.61-57.83
					c2.83-3.46,5.76-6.82,8.8-10.06c43.07-46.08,114.02-70.22,150.11-78.52c29.23-6.72,60.13-10.13,90.33-7.8
					c16.84,1.29,34.47,3.67,50.84,8.26c13.45,3.77,26.78,10.9,34.86,23.39c8.7,13.45,10.8,30.45,21.22,42.77
					c11.37,13.45,26.88,21.48,38.52,34.62C954.45,672.91,969.94,700.56,972.19,725.35z"/>
				<path class="st5" d="M931.26,830.06v95.83c0,85.24-42.47,159.49-105.26,198.23v0.01c-29.49,18.19-63.45,28.56-99.6,28.56
					c-40.58,0-78.4-13.06-110.22-35.6c-12.54-8.88-24.15-19.23-34.63-30.83c-37.07-41.04-60-97.74-60-160.37v-95.83
					c0,0,47.73-16.5,75.14-46.85c0,0,108.8,85.98,283.36,3.73C880.05,786.94,906.26,814.62,931.26,830.06z"/>
				<path class="st6" d="M844.96,1228.26l-123.88,85.81l-117.89-85.98c9.16-19.54,18.03-46.41,18.75-74.28
					c0.44-17.24-2.65-24.82-5.76-36.72c31.82,22.54,69.64,35.6,110.22,35.6c36.15,0,70.11-10.37,99.6-28.56
					c-1.75,6.93-2.98,14.07-2.69,25.35C824.09,1179.81,834.31,1207.51,844.96,1228.26z"/>
				<path class="st7" d="M844.96,1228.26l39.01-27.02c24.07-1.11,74.21,0.23,128.31,30.68c58.22,32.77,88.03,80.66,94.83,92.06
					c12.13,20.29,21.59,42.44,29.76,71.59c33.26,118.7,33.59,312,33.47,351.86H982.75H726.29h-2.23H467.6H280.01
					c-0.12-39.86,0.21-233.16,33.47-351.86c8.17-29.15,17.63-51.3,29.75-71.59c6.81-11.4,36.62-59.29,94.84-92.06
					c54.1-30.45,104.24-31.79,128.3-30.68l36.82,26.85l117.89,85.98L844.96,1228.26z"/>
			</g>
		</g>
	</g>
	<g>
		<g>
			<g>
				<g>
					<g>
						<g>
							<g>
								<g>
									<g>
										<path class="st8" d="M1170.34,1771.43H280.01c-13.23,0-23.96-10.7-24-23.93c-0.21-70.16,2.72-245.52,34.36-358.4
											c8.44-30.12,18.69-54.72,32.26-77.43c11.45-19.17,44.48-67.35,103.67-100.66c54.63-30.74,106.93-35.33,141.18-33.74
											c4.7,0.22,9.24,1.81,13.04,4.58l140.93,102.78l148.87-103.12c3.71-2.57,8.06-4.04,12.56-4.25
											c34.25-1.57,86.55,3,141.18,33.74c59.19,33.31,92.21,81.49,103.67,100.66c13.57,22.71,23.82,47.31,32.26,77.43
											c31.64,112.88,34.57,288.25,34.36,358.4C1194.3,1760.73,1183.57,1771.43,1170.34,1771.43z M724.06,1723.43h422.21
											c-0.62-71.28-5.3-224.3-32.51-321.38c-7.36-26.26-15.76-46.55-27.25-65.77c-9.49-15.88-36.85-55.79-86-83.45
											c-41.27-23.22-80.84-28.19-108.71-27.83L734.75,1333.8c-8.4,5.82-19.56,5.68-27.81-0.34l-148.7-108.45
											c-27.83-0.35-67.28,4.69-108.4,27.83c-49.15,27.66-76.52,67.57-86,83.45c-11.48,19.22-19.88,39.5-27.24,65.77
											c-27.21,97.08-31.89,250.1-32.51,321.38H724.06z"/>
									</g>
									<g>
										<g>
											<path class="st8" d="M467.6,1771.43c-13.25,0-24-10.75-24-24v-249.96c0-13.25,10.75-24,24-24s24,10.75,24,24v249.96
												C491.6,1760.68,480.86,1771.43,467.6,1771.43z"/>
										</g>
										<g>
											<path class="st8" d="M982.75,1771.43c-13.25,0-24-10.75-24-24v-249.96c0-13.25,10.75-24,24-24s24,10.75,24,24v249.96
												C1006.75,1760.68,996.01,1771.43,982.75,1771.43z"/>
										</g>
									</g>
									<g>
										<g>
											<g>
												<path class="st8" d="M726.41,1176.69c-61.6,0-119.37-26.4-162.67-74.34c-42.68-47.26-66.19-109.92-66.19-176.46v-95.83
													c0-10.23,6.49-19.34,16.16-22.68c0.39-0.14,42.36-15,65.17-40.26c8.53-9.44,22.73-10.76,32.63-2.79
													c1.31,0.99,26.22,19.41,69.26,28.75c59.02,12.81,122.63,3.44,189.05-27.86c9.38-4.42,20.53-2.32,27.66,5.21
													c0.23,0.25,24.43,25.64,46.39,39.2c7.08,4.37,11.39,12.1,11.39,20.42v95.83c0,66.53-23.51,129.2-66.19,176.46
													C845.77,1150.29,788,1176.69,726.41,1176.69z M545.55,846.2v79.69c0,111.82,81.13,202.8,180.86,202.8
													c99.73,0,180.86-90.97,180.86-202.8v-83.08c-12.43-9-24.1-19.4-32.4-27.25c-37.14,15.85-74.18,25.72-110.33,29.37
													c-33.35,3.36-65.98,1.47-96.98-5.62c-30.4-6.95-53.45-17.66-67.96-25.82C581.07,828.89,559.79,839.84,545.55,846.2z"/>
											</g>
											<g>
												<path class="st8" d="M521.56,854.07c-9.29,0-18.12-5.42-22.04-14.48c-10.95-25.33-12.65-52.66-14.16-76.76
													c-1.23-19.69-2.76-44.19,2.9-67.87c4.94-20.69,17.17-42.76,37.38-67.46c3.15-3.85,6.46-7.63,9.84-11.25
													c54.65-58.46,144.77-81.5,162.28-85.52c34.29-7.88,67.11-10.69,97.55-8.34c21.41,1.65,39.56,4.62,55.47,9.08
													c21.48,6.02,38.26,17.59,48.53,33.47c5.18,8,8.36,16.25,11.17,23.53c2.69,6.96,5.01,12.98,8.23,16.79
													c4.3,5.08,10.14,9.69,16.32,14.57c6.92,5.46,14.77,11.66,21.83,19.62c17.04,19.24,36.29,51.34,39.23,83.75
													c2.72,29.98-9.18,56.2-19.85,75.7c-0.28,0.53-0.97,1.85-1.93,3.7c-18.31,35.34-22.41,41.13-26.85,45.19
													c-9.78,8.95-24.96,8.26-33.91-1.52c-8.4-9.18-8.31-23.13-0.17-32.2c1.82-2.66,6.51-10.77,18.32-33.55
													c1.23-2.38,2.11-4.06,2.44-4.66c7.4-13.53,15.7-31.25,14.15-48.33c-1.76-19.42-15.42-42.77-27.36-56.26
													c-4.22-4.76-9.76-9.14-15.63-13.77c-7.42-5.85-15.82-12.48-23.25-21.26c-8.44-9.98-12.64-20.88-16.36-30.49
													c-2.16-5.6-4.21-10.9-6.69-14.74c-4.82-7.45-14.18-11.36-21.19-13.32c-12.85-3.6-27.96-6.04-46.2-7.44
													c-25.59-1.97-53.56,0.47-83.11,7.26c-41.78,9.6-102.98,34.09-137.96,71.52c-2.66,2.85-5.27,5.83-7.76,8.87
													c-15.3,18.7-24.67,34.92-27.84,48.2c-3.99,16.71-2.76,36.39-1.68,53.74c1.32,21.17,2.69,43.06,10.31,60.71
													c5.26,12.17-0.34,26.29-12.51,31.55C527.97,853.43,524.74,854.07,521.56,854.07z M913.08,814.49
													C913.08,814.49,913.08,814.49,913.08,814.49C913.08,814.49,913.08,814.49,913.08,814.49z M915.07,812.35
													c-0.01,0.01-0.01,0.01-0.02,0.02C915.06,812.36,915.07,812.35,915.07,812.35z"/>
											</g>
										</g>
									</g>
									<g>
										<g>
											<path class="st8" d="M603.18,1252.1c-3.41,0-6.88-0.73-10.17-2.27c-12-5.63-17.17-19.92-11.55-31.92
												c5.86-12.5,15.79-37.52,16.48-64.71c0.28-10.91-1.11-15.93-3.42-24.26c-0.51-1.85-1.04-3.76-1.57-5.78
												c-3.35-12.82,4.33-25.94,17.16-29.29c12.82-3.35,25.94,4.33,29.29,17.16c0.47,1.78,0.93,3.46,1.38,5.1
												c2.76,9.95,5.61,20.24,5.15,38.3c-0.92,35.93-13.56,67.96-21,83.85C620.85,1246.99,612.2,1252.1,603.18,1252.1z"/>
										</g>
										<g>
											<path class="st8" d="M844.98,1252.27c-8.71,0-17.12-4.76-21.37-13.05c-15.15-29.52-23.55-60.34-24.29-89.12
												c-0.36-14.36,1.35-23.57,3.29-31.33c2.44-10.67,11.99-18.64,23.4-18.64c13.25,0,24,10.74,24,24v0.01
												c0,1.99-0.25,3.97-0.73,5.89c-1.41,5.55-2.18,10.41-1.97,18.86c0.7,27.3,10.73,52.28,19.01,68.42
												c6.05,11.79,1.4,26.26-10.39,32.31C852.41,1251.42,848.67,1252.27,844.98,1252.27z"/>
										</g>
									</g>
								</g>
							</g>
						</g>
					</g>
				</g>
			</g>
			<g>
				<g>
					<g>
						<path class="st8" d="M1597.07,580.16c-5.42,0-10.88-1.83-15.36-5.57L1415.84,436.2l-165.87,138.39
							c-10.18,8.49-25.31,7.13-33.8-3.05c-8.49-10.18-7.13-25.31,3.05-33.8l181.24-151.22c8.9-7.43,21.85-7.43,30.75,0
							l181.24,151.22c10.18,8.49,11.54,23.63,3.05,33.8C1610.76,577.23,1603.94,580.16,1597.07,580.16z"/>
					</g>
					<g>
						<path class="st8" d="M1553.5,750.83h-93.44c-13.25,0-24-10.75-24-24V621.47h-40.43v105.36c0,13.25-10.75,24-24,24h-93.44
							c-13.25,0-24-10.75-24-24V519.79c0-13.25,10.75-24,24-24s24,10.75,24,24v183.03h45.44V597.47c0-13.25,10.75-24,24-24h88.43
							c13.25,0,24,10.75,24,24v105.36h45.44V519.79c0-13.25,10.75-24,24-24s24,10.75,24,24v207.03
							C1577.5,740.08,1566.75,750.83,1553.5,750.83z"/>
					</g>
				</g>
				<g>
					<path class="st8" d="M1184.3,1010.8c-2.77,0-5.56-0.48-8.26-1.47c-9.45-3.47-15.73-12.46-15.73-22.53V855.2h-54.22
						c-13.25,0-24-10.75-24-24V300.57c0-13.25,10.75-24,24-24h619.5c13.25,0,24,10.75,24,24V831.2c0,13.25-10.75,24-24,24h-398.26
						l-124.71,147.11C1197.97,1007.8,1191.22,1010.8,1184.3,1010.8z M1130.09,807.2h54.22c13.25,0,24,10.75,24,24v90.17
						l89.59-105.69c4.56-5.38,11.26-8.48,18.31-8.48h385.38V324.57h-571.5V807.2z"/>
				</g>
			</g>
		</g>
		<g>
			<g>
				<path class="st8" d="M1530.64,1619.7c-1.09,0-2.17,0-3.25-0.01c-39.09,0.14-90.14-2.07-138.93-20.53
					c-28.48-10.77-54.45-27.15-75.11-47.36c-22.99-22.49-38.85-49.4-45.88-77.81c-10.7-43.23-1.01-87.04,8.62-120.38
					c28.38-98.23,80.52-189.41,150.79-263.67c9.11-9.63,24.3-10.05,33.93-0.94c9.63,9.11,10.05,24.3,0.94,33.93
					c-65.02,68.73-113.28,153.11-139.54,244.01c-7.97,27.58-16.1,63.37-8.14,95.53c9.64,38.96,44.65,74.13,91.37,91.8
					c41.48,15.69,86.87,17.54,121.86,17.43c0.06,0,0.12,0,0.18,0c34.95,0.12,80.38-1.74,121.86-17.43
					c46.72-17.67,81.73-52.85,91.37-91.8c7.96-32.17-0.17-67.95-8.14-95.53c-26.26-90.9-74.52-175.28-139.54-244.01
					c-9.11-9.63-8.69-24.82,0.94-33.93c9.63-9.11,24.82-8.69,33.93,0.94c70.27,74.27,122.41,165.45,150.79,263.68
					c9.63,33.33,19.32,77.15,8.62,120.38c-7.03,28.41-22.89,55.32-45.88,77.81c-20.65,20.21-46.62,36.59-75.11,47.36
					C1618.88,1617.12,1569.27,1619.7,1530.64,1619.7z"/>
			</g>
			<g>
				<path class="st8" d="M1606.18,1130.43h-157.57c-9.89,0-18.77-6.07-22.36-15.28l-51.38-131.74c-2.88-7.39-1.93-15.72,2.54-22.26
					s11.89-10.46,19.82-10.46c22.9,0,35.59,7.58,44.85,13.12c7.05,4.21,10.58,6.32,20.23,6.32c9.65,0,13.18-2.11,20.23-6.33
					c9.27-5.54,21.96-13.12,44.85-13.12s35.59,7.58,44.85,13.12c7.05,4.21,10.58,6.33,20.23,6.33s13.18-2.11,20.23-6.33
					c9.27-5.54,21.96-13.12,44.85-13.12c7.93,0,15.34,3.91,19.82,10.46s5.42,14.88,2.54,22.26l-51.38,131.74
					C1624.95,1124.37,1616.07,1130.43,1606.18,1130.43z M1465.01,1082.43h124.77l26.33-67.5c-6.45,1.91-14.17,3.2-23.63,3.2
					c-22.9,0-35.59-7.58-44.85-13.12c-7.05-4.21-10.58-6.33-20.23-6.33s-13.18,2.11-20.23,6.33c-9.27,5.54-21.96,13.12-44.85,13.12
					c-9.46,0-17.17-1.29-23.62-3.2L1465.01,1082.43z"/>
			</g>
			<g>
				<g>
					<g>
						<path class="st8" d="M1598.83,1449.62c6.53-10.09,9.83-21.03,9.83-32.52c0-11.62-3.09-22.11-9.17-31.16l-0.1-0.15
							c-6.05-8.88-15.24-16.19-27.37-21.79c-7.9-3.59-21.69-7.59-42.13-12.22c-24.44-5.53-30.73-9.61-32.08-10.73l-0.14-0.12
							c-2.73-2.45-3.95-5.28-3.95-9.17c0-4.65,2.06-8.47,6.49-12.02c3.4-2.72,10.67-5.97,26.04-5.97c11.72,0,20.41,2.25,25.83,6.7
							c3.63,2.98,6.25,7.14,7.79,12.35c2.69,9.07,10.77,15.17,20.12,15.17c0.54,0,1.08-0.02,1.67-0.07l0.25-0.02
							c6.37-0.48,12.11-3.76,15.76-8.98c3.63-5.2,4.73-11.66,3.01-17.73c-1.76-6.2-4.44-12.08-7.99-17.47
							c-6.57-10-16-17.65-28.02-22.71c-11.44-4.83-24.7-7.27-39.41-7.27c-13.45,0-25.91,2.33-37.05,6.93
							c-11.76,4.86-20.9,12.18-27.16,21.77c-6.21,9.52-9.36,19.93-9.36,30.94c0,10.14,2.64,19.46,7.85,27.7
							c5.13,8.12,12.86,14.94,22.99,20.26l0.29,0.15c7.58,3.95,19.72,7.9,37.15,12.08c16.24,3.9,26.79,6.78,31.37,8.56
							c5.93,2.26,10.07,4.86,12.3,7.73c2,2.57,3.01,5.68,3.01,9.24c0,3.6-1.14,7.01-3.39,10.12c-2.35,3.25-6.22,5.94-11.52,8
							c-5.94,2.3-13,3.47-20.99,3.47c-9.03,0-17.19-1.56-24.25-4.63c-6.59-2.87-11.4-6.51-14.31-10.83
							c-1.86-2.76-3.35-6.14-4.42-10.03c-2.53-9.23-10.95-15.68-20.46-15.68c-0.65,0-1.29,0.03-1.81,0.08
							c-6.16,0.54-11.73,3.7-15.33,8.68c-3.63,5.01-4.89,11.34-3.47,17.37c1.87,7.95,5.1,15.45,9.59,22.29
							c7.34,11.18,17.56,19.65,30.37,25.17c12.28,5.3,27.49,7.98,45.2,7.98c14.31,0,27.44-2.69,39.03-8
							C1582.9,1467.6,1592.29,1459.71,1598.83,1449.62z"/>
					</g>
				</g>
				<g>
					<path class="st8" d="M1527.4,1516.35c-13.25,0-24-10.75-24-24v-10.76c0-13.25,10.75-24,24-24s24,10.75,24,24v10.76
						C1551.4,1505.61,1540.65,1516.35,1527.4,1516.35z"/>
				</g>
				<g>
					<path class="st8" d="M1527.4,1297.18c-13.25,0-24-10.75-24-24v-10.72c0-13.25,10.75-24,24-24s24,10.75,24,24v10.72
						C1551.4,1286.44,1540.65,1297.18,1527.4,1297.18z"/>
				</g>
			</g>
		</g>
	</g>
</g>
</svg>
