<?xml version="1.0" encoding="utf-8"?>
<!-- Generator: Adobe Illustrator 23.0.2, SVG Export Plug-In . SVG Version: 6.00 Build 0)  -->
<svg version="1.1" id="Layer_1" xmlns="http://www.w3.org/2000/svg" xmlns:xlink="http://www.w3.org/1999/xlink" x="0px" y="0px"
	 viewBox="0 0 2048 2048" style="enable-background:new 0 0 2048 2048;" xml:space="preserve">
<style type="text/css">
	.st0{fill:#FF725C;}
	.st1{fill:#67B2E6;}
	.st2{fill:#DFEBFA;}
	.st3{fill:#333333;}
</style>
<g>
	<g>
		<g id="XMLID_1_">
			<polygon class="st0" points="1768,967.6 1707.8,1044.12 1587.09,949.16 1024,506.18 460.91,949.16 340.2,1044.12 280,967.6 
				1024,382.29 			"/>
			<path class="st1" d="M1261.36,845.84c17.86,9.81,30.94,29.51,30.14,50.22c-0.81,21.12-14.07,39.99-31.46,51.21
				c17.39,11.22,30.65,30.09,31.46,51.21c0.8,20.7-12.28,40.41-30.14,50.22c-41.26,22.64-81.16-12.58-100.69-47.31H887.33
				c-19.53,34.73-59.43,69.95-100.69,47.31c-17.86-9.81-30.94-29.52-30.14-50.22c0.81-21.12,14.07-39.99,31.46-51.21
				c-17.39-11.22-30.65-30.09-31.46-51.21c-0.8-20.71,12.28-40.41,30.14-50.22c41.26-22.65,81.16,12.57,100.69,47.3h273.34
				C1180.2,858.41,1220.1,823.19,1261.36,845.84z"/>
			<path class="st2" d="M1587.09,949.16v716.55h-367.52v-342.83c0-54-21.89-102.9-57.29-138.28
				c-35.39-35.4-84.28-57.29-138.28-57.29c-108.01,0-195.57,87.56-195.57,195.57v342.83H460.91V949.16L1024,506.18L1587.09,949.16z
				 M1291.5,896.06c0.8-20.71-12.28-40.41-30.14-50.22c-41.26-22.65-81.16,12.57-100.69,47.3H887.33
				c-19.53-34.73-59.43-69.95-100.69-47.3c-17.86,9.81-30.94,29.51-30.14,50.22c0.81,21.12,14.07,39.99,31.46,51.21
				c-17.39,11.22-30.65,30.09-31.46,51.21c-0.8,20.7,12.28,40.41,30.14,50.22c41.26,22.64,81.16-12.58,100.69-47.31h273.34
				c19.53,34.73,59.43,69.95,100.69,47.31c17.86-9.81,30.94-29.52,30.14-50.22c-0.81-21.12-14.07-39.99-31.46-51.21
				C1277.43,936.05,1290.69,917.18,1291.5,896.06z"/>
		</g>
	</g>
	<g>
		<g>
			<g>
				<g>
					<path class="st3" d="M340.22,1068.12c-7.11,0-14.14-3.14-18.88-9.16l-60.2-76.52c-3.94-5-5.72-11.36-4.97-17.68
						c0.75-6.32,3.99-12.08,8.99-16.02l744-585.3c8.71-6.85,20.97-6.85,29.68,0l744,585.3c10.42,8.19,12.22,23.28,4.02,33.7
						l-60.2,76.52c-3.94,5-9.7,8.24-16.02,8.99c-6.32,0.75-12.68-1.03-17.68-4.97L1024,536.71l-668.96,526.27
						C350.64,1066.44,345.41,1068.12,340.22,1068.12z M313.7,971.62l30.52,38.8l664.94-523.1c8.71-6.85,20.97-6.85,29.68,0
						l664.94,523.1l30.52-38.8L1024,412.83L313.7,971.62z"/>
				</g>
			</g>
		</g>
		<g>
			<path class="st3" d="M1587.09,1689.71h-367.53c-13.25,0-24-10.75-24-24v-342.83c0-45.83-17.85-88.91-50.25-121.31
				c-32.4-32.41-75.48-50.26-121.32-50.26c-94.6,0-171.57,76.96-171.57,171.57v342.83c0,13.25-10.75,24-24,24H460.91
				c-13.25,0-24-10.75-24-24V949.16c0-13.25,10.75-24,24-24s24,10.75,24,24v692.54h319.53v-318.83
				c0-58.65,22.84-113.79,64.31-155.26c41.47-41.47,96.61-64.31,155.26-64.31c58.66,0,113.79,22.84,155.26,64.32
				c41.47,41.46,64.31,96.6,64.31,155.25v318.83h319.53V949.16c0-13.25,10.75-24,24-24s24,10.75,24,24v716.54
				C1611.09,1678.96,1600.35,1689.71,1587.09,1689.71z"/>
		</g>
		<g>
			<path class="st3" d="M1234.64,1079.94c-34.62,0-66.34-23.97-87.28-54.54H900.64c-28.5,41.61-76.99,70.99-125.55,44.34
				c-26.99-14.81-43.71-43.15-42.58-72.19c0.7-18.13,7.76-35.7,19.73-50.28c-11.97-14.58-19.03-32.15-19.73-50.28
				c-1.12-29.04,15.59-57.37,42.58-72.19c48.55-26.65,97.04,2.73,125.55,44.34h246.71c28.5-41.61,76.99-70.99,125.55-44.34
				c26.99,14.82,43.71,43.15,42.58,72.19c-0.7,18.13-7.76,35.7-19.73,50.28c11.97,14.58,19.03,32.15,19.73,50.28
				c1.12,29.04-15.59,57.37-42.58,72.19C1260.02,1076.81,1247.14,1079.93,1234.64,1079.94z M887.33,977.39h273.33
				c8.67,0,16.67,4.68,20.92,12.23c8.73,15.53,21.23,29.07,33.43,36.23c16.49,9.68,27.75,5.66,34.79,1.8
				c10.84-5.95,18.13-17.57,17.71-28.25c-0.46-11.86-8.31-24.11-20.49-31.97c-6.85-4.42-10.99-12.01-10.99-20.17
				c0-8.15,4.14-15.75,10.99-20.17c12.18-7.86,20.04-20.11,20.49-31.97c0.41-10.69-6.87-22.3-17.71-28.26
				c-7.04-3.86-18.31-7.88-34.79,1.8c-12.2,7.16-24.7,20.71-33.43,36.23c-4.25,7.56-12.25,12.23-20.92,12.23H887.33
				c-8.67,0-16.67-4.68-20.92-12.23c-8.73-15.53-21.23-29.07-33.43-36.23c-16.49-9.68-27.75-5.66-34.79-1.8
				c-10.84,5.95-18.13,17.57-17.71,28.26c0.46,11.86,8.31,24.11,20.5,31.97c6.85,4.42,10.99,12.01,10.99,20.17
				c0,8.15-4.14,15.75-10.99,20.17c-12.18,7.86-20.04,20.11-20.5,31.97c-0.41,10.69,6.87,22.3,17.71,28.26
				c7.04,3.86,18.3,7.88,34.79-1.8c12.2-7.16,24.7-20.71,33.43-36.23C870.67,982.07,878.66,977.39,887.33,977.39z"/>
		</g>
	</g>
</g>
</svg>
