<?xml version="1.0" encoding="utf-8"?>
<!-- Generator: Adobe Illustrator 23.0.2, SVG Export Plug-In . SVG Version: 6.00 Build 0)  -->
<svg version="1.1" id="Layer_1" xmlns="http://www.w3.org/2000/svg" xmlns:xlink="http://www.w3.org/1999/xlink" x="0px" y="0px"
	 viewBox="0 0 2048 2048" style="enable-background:new 0 0 2048 2048;" xml:space="preserve">
<style type="text/css">
	.st0{fill:#FF725C;}
	.st1{fill:#DFEBFA;}
	.st2{fill:#E66753;}
	.st3{fill:#67B2E6;}
	.st4{fill:#333333;}
</style>
<g>
	<g>
		<g>
			<g id="XMLID_1_">
				<path class="st0" d="M1748.93,935.15c21.71,17.07,25.46,48.51,8.38,70.22c-9.86,12.54-24.52,19.09-39.33,19.09
					c-10.82,0-21.72-3.5-30.89-10.71l-84.68-66.62l-578.39-455.02L445.63,947.13l-84.68,66.62c-21.71,17.08-53.15,13.32-70.22-8.38
					c-7.21-9.17-10.71-20.07-10.71-30.89c0-14.81,6.55-29.47,19.09-39.33l724.91-570.29L1311.48,591l167.04,131.42L1748.93,935.15z"
					/>
				<path class="st1" d="M1602.41,947.13v736.01H445.63V947.13l578.39-455.02L1602.41,947.13z M1307.54,1397.04
					c0.08-65.52-52.96-118.7-118.47-118.78c-65.51-0.09-118.69,52.95-118.78,118.46s52.95,118.69,118.47,118.78
					C1254.27,1515.59,1307.45,1462.55,1307.54,1397.04z M977.75,1065.28c0.09-65.51-52.95-118.69-118.47-118.78
					c-65.51-0.09-118.69,52.95-118.78,118.46c-0.08,65.52,52.96,118.7,118.47,118.78C924.48,1183.83,977.66,1130.79,977.75,1065.28z
					"/>
				<polygon class="st2" points="1478.52,422.5 1478.52,722.42 1311.48,591 1311.52,590.95 1311.52,422.5 				"/>
				<path class="st3" d="M1189.07,1278.26c65.51,0.08,118.55,53.26,118.47,118.78c-0.09,65.51-53.27,118.55-118.78,118.46
					c-65.52-0.09-118.56-53.27-118.47-118.78S1123.56,1278.17,1189.07,1278.26z"/>
				<path class="st3" d="M859.28,946.5c65.52,0.09,118.56,53.27,118.47,118.78c-0.09,65.51-53.27,118.55-118.78,118.46
					c-65.51-0.08-118.55-53.26-118.47-118.78C740.59,999.45,793.77,946.41,859.28,946.5z"/>
			</g>
		</g>
	</g>
	<g>
		<g>
			<g>
				<path class="st4" d="M1602.41,1707.14H445.63c-13.25,0-24-10.75-24-24V947.13c0-13.25,10.75-24,24-24s24,10.75,24,24v712.01
					h1108.79V947.13c0-13.25,10.75-24,24-24s24,10.75,24,24v736.01C1626.41,1696.39,1615.67,1707.14,1602.41,1707.14z"/>
			</g>
			<g>
				<path class="st4" d="M1717.87,1048.47c-16.51,0-32.43-5.49-45.61-15.85l-648.24-509.97l-648.24,509.97
					c-32.07,25.23-78.69,19.67-103.92-12.41c-12.22-15.54-17.66-34.9-15.32-54.53c2.34-19.63,12.19-37.17,27.73-49.39L1009.18,346
					c8.71-6.85,20.97-6.85,29.68,0l724.91,570.29c32.07,25.23,37.64,71.85,12.41,103.92c-12.22,15.54-29.76,25.38-49.39,27.73
					C1723.8,1048.29,1720.82,1048.47,1717.87,1048.47z M1024.02,468.11c5.24,0,10.49,1.71,14.84,5.14l663.08,521.64
					c5.46,4.29,12.26,6.21,19.16,5.38c6.9-0.82,13.06-4.28,17.35-9.74c8.87-11.27,6.91-27.65-4.36-36.52L1024.02,395.4
					L313.95,954.01c-5.46,4.29-8.92,10.46-9.74,17.36c-0.82,6.9,1.09,13.7,5.38,19.16c8.87,11.27,25.25,13.23,36.52,4.36
					l663.07-521.64C1013.53,469.82,1018.78,468.11,1024.02,468.11z"/>
			</g>
		</g>
		<g>
			<path class="st4" d="M1478.52,746.42c-13.25,0-24-10.75-24-24V446.5h-119v144.45c0,13.25-10.75,24-24,24s-24-10.75-24-24V422.5
				c0-13.25,10.75-24,24-24h167c13.25,0,24,10.75,24,24v299.92C1502.52,735.68,1491.78,746.42,1478.52,746.42z"/>
		</g>
		<g>
			<g>
				<path class="st4" d="M770.32,1508.03c-6.15,0-12.3-2.35-16.99-7.05c-9.36-9.39-9.34-24.58,0.05-33.94l507.39-506.05
					c9.39-9.36,24.58-9.34,33.94,0.04c9.36,9.39,9.34,24.58-0.04,33.94l-507.39,506.05
					C782.59,1505.69,776.45,1508.03,770.32,1508.03z"/>
			</g>
			<g>
				<g>
					<path class="st4" d="M1001.75,1065.31c-0.05,38.1-14.93,73.89-41.91,100.79c-26.93,26.86-62.69,41.64-100.71,41.64
						c-0.07,0-0.13,0-0.19,0c-78.64-0.1-142.54-64.17-142.43-142.81c0.05-38.1,14.93-73.89,41.91-100.79
						c26.93-26.86,62.69-41.64,100.71-41.64c0.07,0,0.13,0,0.19,0c38.1,0.05,73.89,14.93,100.79,41.91
						C987.01,991.38,1001.8,1027.22,1001.75,1065.31z M859.12,970.5c-25.23,0-48.95,9.81-66.82,27.63
						c-17.9,17.85-27.77,41.6-27.8,66.87c-0.07,52.17,42.32,94.68,94.5,94.75c0.04,0,0.09,0,0.13,0c25.23,0,48.95-9.81,66.82-27.63
						c17.9-17.85,27.77-41.6,27.8-66.87c0.03-25.27-9.78-49.05-27.63-66.94s-41.6-27.77-66.87-27.8
						C859.21,970.5,859.16,970.5,859.12,970.5z"/>
				</g>
				<g>
					<path class="st4" d="M1331.54,1397.07c-0.05,38.1-14.93,73.89-41.91,100.79c-26.93,26.86-62.69,41.64-100.71,41.64
						c-0.06,0-0.13,0-0.19,0c-78.64-0.1-142.54-64.17-142.43-142.81c0.05-38.1,14.93-73.89,41.91-100.79
						c26.93-26.86,62.69-41.64,100.71-41.64c0.06,0,0.13,0,0.19,0C1267.74,1254.36,1331.64,1318.43,1331.54,1397.07z
						 M1188.91,1302.26c-25.23,0-48.95,9.81-66.82,27.63c-17.9,17.85-27.77,41.6-27.8,66.87c-0.07,52.17,42.32,94.68,94.5,94.75
						c0.04,0,0.09,0,0.13,0c25.23,0,48.95-9.81,66.82-27.63c17.9-17.85,27.77-41.6,27.8-66.87c0.07-52.17-42.32-94.68-94.5-94.75
						C1189,1302.26,1188.95,1302.26,1188.91,1302.26z"/>
				</g>
			</g>
		</g>
	</g>
</g>
</svg>
