<?xml version="1.0" encoding="utf-8"?>
<!-- Generator: Adobe Illustrator 23.0.2, SVG Export Plug-In . SVG Version: 6.00 Build 0)  -->
<svg version="1.1" id="Layer_1" xmlns="http://www.w3.org/2000/svg" xmlns:xlink="http://www.w3.org/1999/xlink" x="0px" y="0px"
	 viewBox="0 0 2048 2048" style="enable-background:new 0 0 2048 2048;" xml:space="preserve">
<style type="text/css">
	.st0{fill:#F7E07F;}
	.st1{fill:#FF725C;}
	.st2{fill:#85A3FA;}
	.st3{fill:#333333;}
</style>
<g>
	<g>
		<g>
			<g id="XMLID_1_">
				<polygon class="st0" points="1327.77,1213.4 1327.77,1213.39 1327.76,1213.39 1196.03,1103.48 1368.06,959.95 1671.82,1213.39 
					1671.84,1213.39 1671.84,1213.4 1671.84,1670.25 1465.64,1670.25 1465.64,1384.79 1327.77,1384.79 				"/>
				<polygon class="st1" points="1327.77,1384.79 1327.77,1670.25 1121.57,1670.25 1121.57,1384.79 926.43,1384.79 926.43,1670.25 
					720.23,1670.25 720.23,1384.79 720.23,1213.4 720.23,1213.39 720.24,1213.39 851.97,1103.48 1024,959.95 1196.03,1103.48 
					1327.76,1213.39 1327.77,1213.39 1327.77,1213.4 				"/>
				<path class="st0" d="M1024,377.75c87.8,0,158.97,71.18,158.97,158.97c0,132.48-158.97,315.64-158.97,315.64
					S865.03,669.2,865.03,536.72C865.03,448.93,936.2,377.75,1024,377.75z M1082.37,536.72c0-32.23-26.14-58.36-58.37-58.36
					s-58.37,26.13-58.37,58.36c0,32.24,26.14,58.37,58.37,58.37S1082.37,568.96,1082.37,536.72z"/>
				<polygon class="st2" points="720.23,1213.4 720.23,1384.79 582.36,1384.79 582.36,1670.25 376.16,1670.25 376.16,1213.4 
					376.16,1213.39 376.18,1213.39 679.94,959.95 851.97,1103.48 720.24,1213.39 720.23,1213.39 				"/>
			</g>
		</g>
	</g>
	<g>
		<g>
			<g>
				<g>
					<path class="st3" d="M624.07,1317.64c-6.87,0-13.69-2.94-18.44-8.62c-8.49-10.18-7.13-25.31,3.05-33.8l96.18-80.25
						l303.76-253.43c8.9-7.43,21.85-7.43,30.75,0l323.15,269.61l76.8,64.08c10.18,8.49,11.54,23.63,3.05,33.8
						c-8.49,10.18-23.63,11.54-33.8,3.05l-96.18-80.25L1024,991.21l-307.77,256.78l-76.79,64.08
						C634.95,1315.81,629.49,1317.64,624.07,1317.64z"/>
				</g>
				<g>
					<path class="st3" d="M1327.77,1694.25h-206.2c-13.25,0-24-10.75-24-24v-261.45H950.43v261.45c0,13.25-10.75,24-24,24h-206.2
						c-13.25,0-24-10.75-24-24v-456.86c0-13.25,10.75-24,24-24s24,10.75,24,24v432.86h158.2v-261.45c0-13.25,10.75-24,24-24h195.15
						c13.25,0,24,10.75,24,24v261.45h158.2v-432.86c0-13.25,10.75-24,24-24s24,10.75,24,24v456.86
						C1351.77,1683.5,1341.02,1694.25,1327.77,1694.25z"/>
				</g>
			</g>
			<g>
				<g>
					<path class="st3" d="M280.01,1317.64c-6.87,0-13.69-2.94-18.44-8.62c-8.49-10.18-7.13-25.31,3.05-33.8l95.81-79.94
						c0.23-0.2,0.47-0.4,0.72-0.6l303.42-253.15c8.9-7.43,21.85-7.43,30.75,0l172.03,143.53c10.18,8.49,11.54,23.63,3.05,33.8
						c-8.49,10.18-23.63,11.54-33.8,3.05l-156.65-130.7L391.7,1231.69c-0.05,0.05-0.11,0.09-0.16,0.14l-96.16,80.24
						C290.89,1315.81,285.43,1317.64,280.01,1317.64z"/>
				</g>
				<g>
					<path class="st3" d="M582.36,1694.25h-206.2c-13.25,0-24-10.75-24-24V1213.4c0-13.25,10.75-24,24-24s24,10.74,24,24v432.86
						h158.2v-261.46c0-13.25,10.75-24,24-24h137.87c13.25,0,24,10.75,24,24s-10.75,24-24,24H606.36v261.46
						C606.36,1683.5,595.62,1694.25,582.36,1694.25z"/>
				</g>
			</g>
			<g>
				<g>
					<path class="st3" d="M1767.99,1317.64c-5.42,0-10.88-1.83-15.36-5.57l-96.16-80.24c-0.06-0.05-0.12-0.1-0.18-0.15
						l-288.22-240.47l-156.65,130.7c-10.18,8.49-25.31,7.12-33.8-3.05c-8.49-10.18-7.12-25.31,3.05-33.8l172.03-143.53
						c8.9-7.43,21.85-7.43,30.75,0l303.47,253.19c0.22,0.18,0.43,0.36,0.65,0.54l95.83,79.96c10.18,8.49,11.54,23.63,3.05,33.8
						C1781.68,1314.71,1774.86,1317.64,1767.99,1317.64z"/>
				</g>
				<g>
					<path class="st3" d="M1671.84,1694.25h-206.2c-13.25,0-24-10.75-24-24v-261.46h-113.87c-13.25,0-24-10.75-24-24s10.75-24,24-24
						h137.87c13.25,0,24,10.75,24,24v261.46h158.2V1213.4c0-13.25,10.75-24,24-24s24,10.74,24,24v456.86
						C1695.84,1683.5,1685.09,1694.25,1671.84,1694.25z"/>
				</g>
			</g>
		</g>
		<g>
			<g>
				<path class="st3" d="M1024,876.36c-6.95,0-13.57-3.02-18.13-8.27c-6.73-7.76-164.84-191.54-164.84-331.37
					c0-100.89,82.08-182.97,182.97-182.97c100.89,0,182.97,82.08,182.97,182.97c0,139.83-158.11,323.61-164.84,331.37
					C1037.57,873.34,1030.95,876.36,1024,876.36z M1024,401.75c-74.42,0-134.97,60.55-134.97,134.97
					c0,96.37,94.41,226.34,134.96,277.71c40.54-51.39,134.98-181.47,134.98-277.71C1158.97,462.3,1098.42,401.75,1024,401.75z"/>
			</g>
			<g>
				<path class="st3" d="M1024,619.09c-45.42,0-82.37-36.95-82.37-82.37c0-45.42,36.95-82.37,82.37-82.37
					c45.42,0,82.37,36.95,82.37,82.37C1106.37,582.14,1069.42,619.09,1024,619.09z M1024,502.36c-18.95,0-34.37,15.42-34.37,34.37
					c0,18.95,15.42,34.37,34.37,34.37s34.37-15.42,34.37-34.37C1058.37,517.77,1042.95,502.36,1024,502.36z"/>
			</g>
		</g>
	</g>
</g>
</svg>
