<?xml version="1.0" encoding="utf-8"?>
<!-- Generator: Adobe Illustrator 23.0.2, SVG Export Plug-In . SVG Version: 6.00 Build 0)  -->
<svg version="1.1" id="Layer_1" xmlns="http://www.w3.org/2000/svg" xmlns:xlink="http://www.w3.org/1999/xlink" x="0px" y="0px"
	 viewBox="0 0 2048 2048" style="enable-background:new 0 0 2048 2048;" xml:space="preserve">
<style type="text/css">
	.st0{fill:#F7E07F;}
	.st1{fill:#FF725C;}
	.st2{fill:#333333;}
</style>
<g>
	<g>
		<g id="XMLID_1_">
			<circle class="st0" cx="1445.36" cy="1407.37" r="322.64"/>
			<polygon class="st1" points="847.7,522.45 847.7,890.99 681.36,890.99 681.36,660.71 523.93,660.71 523.93,890.99 357.58,890.99 
				357.58,522.45 357.58,522.44 357.59,522.44 602.64,317.99 847.69,522.44 847.7,522.44 			"/>
		</g>
	</g>
	<g>
		<g>
			<g>
				<g>
					<g>
						<path class="st2" d="M925.27,611.18c-5.42,0-10.87-1.83-15.36-5.57l-77.59-64.74L602.64,349.24L357.33,553.91l-61.95,51.69
							c-10.18,8.49-25.31,7.13-33.8-3.05c-8.49-10.18-7.13-25.31,3.05-33.8l77.59-64.74l245.05-204.45c8.9-7.43,21.85-7.43,30.75,0
							l260.69,217.5l61.95,51.7c10.18,8.49,11.54,23.63,3.05,33.8C938.96,608.24,932.14,611.18,925.27,611.18z"/>
					</g>
					<g>
						<path class="st2" d="M847.7,914.99H681.36c-13.25,0-24-10.75-24-24V684.71H547.93v206.28c0,13.25-10.75,24-24,24H357.58
							c-13.25,0-24-10.75-24-24V522.44c0-13.25,10.75-24,24-24s24,10.75,24,24v344.56h118.34V660.71c0-13.25,10.75-24,24-24h157.43
							c13.25,0,24,10.75,24,24v206.28H823.7V522.44c0-13.25,10.75-24,24-24s24,10.75,24,24v368.56
							C871.7,904.25,860.95,914.99,847.7,914.99z"/>
					</g>
				</g>
				<g>
					<g>
						<g>
							<path class="st2" d="M1445.36,1754.01c-46.79,0-92.18-9.17-134.94-27.25c-41.28-17.46-78.35-42.45-110.18-74.28
								s-56.82-68.9-74.28-110.18c-18.08-42.75-27.25-88.15-27.25-134.94s9.17-92.18,27.25-134.94
								c17.46-41.28,42.45-78.35,74.28-110.18c31.83-31.83,68.9-56.82,110.18-74.28c42.75-18.08,88.15-27.25,134.94-27.25
								c46.79,0,92.18,9.17,134.94,27.25c41.28,17.46,78.35,42.45,110.18,74.28c31.83,31.83,56.82,68.9,74.28,110.18
								c18.08,42.75,27.25,88.15,27.25,134.94s-9.17,92.18-27.25,134.94c-17.46,41.28-42.45,78.35-74.28,110.18
								s-68.9,56.82-110.18,74.28C1537.54,1744.85,1492.14,1754.01,1445.36,1754.01z M1445.36,1108.73
								c-164.67,0-298.64,133.97-298.64,298.64s133.97,298.64,298.64,298.64S1744,1572.04,1744,1407.37
								S1610.03,1108.73,1445.36,1108.73z"/>
						</g>
					</g>
					<g>
						<g>
							<g>
								<path class="st2" d="M1560.98,1429.49l-0.13-0.2c-9.24-13.57-23.59-24.91-42.66-33.71c-12.9-5.85-36.89-12.77-71.29-20.56
									c-41.67-9.43-56.82-17.16-62.19-21.99c-7.52-6.74-11.17-15.12-11.17-25.61c0-12.19,5.3-22.35,16.19-31.08
									c10.99-8.81,29.04-13.27,53.65-13.27c23.58,0,41.55,4.93,53.39,14.65c8.37,6.87,14.36,16.27,17.82,27.92
									c3.08,10.39,12.29,17.38,22.92,17.38c0.59,0,1.23-0.03,1.96-0.08l0.29-0.02c7.39-0.56,14.02-4.31,18.19-10.29
									c4.15-5.93,5.4-13.3,3.44-20.21c-2.71-9.59-6.87-18.69-12.37-27.05c-10.09-15.36-24.67-27.14-43.34-35.01
									c-18.44-7.78-39.99-11.73-64.04-11.73c-21.87,0-42.05,3.76-59.99,11.17c-18.17,7.51-32.21,18.7-41.73,33.28
									c-9.5,14.55-14.32,30.42-14.32,47.18c0,15.3,3.96,29.31,11.77,41.66c7.76,12.28,19.64,22.7,35.34,30.96l0.42,0.21
									c12.1,6.34,33.03,13.1,62.21,20.1c28.98,6.96,48,12.18,56.55,15.49c12.63,4.82,21.75,10.76,27.1,17.65
									c5.29,6.81,7.97,14.9,7.97,24.06c0,9.07-2.81,17.56-8.36,25.25c-5.58,7.74-14.31,13.95-25.95,18.47
									c-11.9,4.61-25.84,6.95-41.42,6.95c-17.59,0-33.61-3.09-47.61-9.19c-13.82-6.01-24.11-13.94-30.59-23.56
									c-4.05-6.01-7.24-13.19-9.47-21.34c-2.91-10.6-12.55-18.01-23.46-18.01c-0.75,0-1.44,0.03-1.98,0.08
									c-7.1,0.62-13.53,4.25-17.65,9.94c-4.16,5.75-5.61,13.02-3.98,19.94c2.93,12.46,8,24.22,15.04,34.95
									c11.46,17.45,27.46,30.69,47.55,39.35c19.91,8.58,44.84,12.93,74.09,12.93c23.21,0,44.42-4.32,63.03-12.84
									c18.76-8.56,33.4-20.81,43.5-36.39c10.06-15.55,15.17-32.37,15.17-49.98C1574.88,1459.14,1570.2,1443.18,1560.98,1429.49z"
									/>
							</g>
							<g>
								<polygon class="st2" points="1371.03,1406.78 1371.03,1406.78 1371.03,1406.78 								"/>
							</g>
						</g>
						<g>
							<g>
								<g>
									<path class="st2" d="M1445.36,1618.07c-13.25,0-24-10.75-24-24v-26.35c0-13.25,10.75-24,24-24s24,10.75,24,24v26.35
										C1469.36,1607.32,1458.62,1618.07,1445.36,1618.07z"/>
								</g>
								<g>
									<path class="st2" d="M1445.36,1270.96c-13.25,0-24-10.75-24-24v-26.28c0-13.25,10.75-24,24-24s24,10.75,24,24v26.28
										C1469.36,1260.21,1458.62,1270.96,1445.36,1270.96z"/>
								</g>
							</g>
						</g>
					</g>
				</g>
			</g>
		</g>
		<g>
			<path class="st2" d="M1455.41,979.51c-13.25,0-24-10.75-24-24V616.59h-338.92c-13.25,0-24-10.75-24-24s10.75-24,24-24h362.92
				c13.25,0,24,10.75,24,24v362.92C1479.41,968.77,1468.67,979.51,1455.41,979.51z"/>
		</g>
		<g>
			<path class="st2" d="M955.51,1431.37H592.59c-13.25,0-24-10.75-24-24v-362.92c0-13.25,10.75-24,24-24s24,10.75,24,24v338.92
				h338.92c13.25,0,24,10.75,24,24S968.77,1431.37,955.51,1431.37z"/>
		</g>
		<g>
			<path class="st2" d="M1455.41,979.51c-6.14,0-12.28-2.34-16.97-7.03l-88.17-88.17c-9.37-9.37-9.37-24.57,0-33.94
				c9.37-9.37,24.57-9.37,33.94,0l71.2,71.2l71.2-71.2c9.37-9.37,24.57-9.37,33.94,0c9.37,9.37,9.37,24.57,0,33.94l-88.17,88.17
				C1467.69,977.17,1461.55,979.51,1455.41,979.51z"/>
		</g>
		<g>
			<path class="st2" d="M680.76,1156.62c-6.14,0-12.28-2.34-16.97-7.03l-71.2-71.2l-71.2,71.2c-9.37,9.37-24.57,9.37-33.94,0
				c-9.37-9.37-9.37-24.57,0-33.94l88.17-88.17c9.37-9.37,24.57-9.37,33.94,0l88.17,88.17c9.37,9.37,9.37,24.57,0,33.94
				C693.05,1154.28,686.9,1156.62,680.76,1156.62z"/>
		</g>
	</g>
</g>
</svg>
