<?xml version="1.0" encoding="utf-8"?>
<!-- Generator: Adobe Illustrator 23.0.2, SVG Export Plug-In . SVG Version: 6.00 Build 0)  -->
<svg version="1.1" id="Layer_1" xmlns="http://www.w3.org/2000/svg" xmlns:xlink="http://www.w3.org/1999/xlink" x="0px" y="0px"
	 viewBox="0 0 2048 2048" style="enable-background:new 0 0 2048 2048;" xml:space="preserve">
<style type="text/css">
	.st0{fill:#E66753;}
	.st1{fill:#B35F39;}
	.st2{fill:#F9C7B2;}
	.st3{fill:#F0C0AA;}
	.st4{fill:#85A3FA;}
	.st5{fill:#DFEBFA;}
	.st6{fill:#FF725C;}
	.st7{fill:#333333;}
</style>
<g>
	<g>
		<g>
			<g>
				<g id="XMLID_1_">
					<polygon class="st0" points="1478.5,422.5 1478.5,722.42 1311.46,591 1311.5,590.95 1311.5,422.5 					"/>
					<path class="st1" d="M1198.51,961.07c1.43,15.78-4.82,30.67-12.02,43.81c-1.22,2.24-14.01,27.53-16.9,30.17
						c-17.66-10.91-36.18-30.47-36.18-30.47c-123.32,58.11-200.18-2.63-200.18-2.63c-19.37,21.44-53.09,33.1-53.09,33.1
						c-6.47-14.98-7.61-32-8.64-48.56c-0.89-14.24-1.72-29,1.61-42.96c3.54-14.8,13.92-29.71,23.04-40.85
						c2-2.45,4.08-4.82,6.22-7.11c30.43-32.56,80.55-49.61,106.05-55.47c20.65-4.75,42.48-7.16,63.82-5.51
						c11.89,0.91,24.35,2.59,35.91,5.83c9.5,2.66,18.92,7.71,24.63,16.53c6.14,9.5,7.63,21.51,14.99,30.22
						c8.04,9.5,18.99,15.17,27.21,24.45C1185.98,924.03,1196.92,943.56,1198.51,961.07z"/>
					<path class="st2" d="M1169.59,1035.05v67.7c0,60.22-30,112.67-74.36,140.04v0.01c-20.83,12.85-44.82,20.17-70.36,20.17
						c-28.67,0-55.39-9.22-77.87-25.14c-8.86-6.28-17.07-13.59-24.47-21.79c-26.19-28.99-42.39-69.04-42.39-113.29v-67.7
						c0,0,33.72-11.66,53.09-33.1c0,0,76.86,60.74,200.18,2.63C1133.41,1004.58,1151.93,1024.14,1169.59,1035.05z"/>
					<path class="st3" d="M1108.62,1316.37l-87.51,60.61l-83.28-60.74c6.47-13.8,12.73-32.79,13.24-52.47
						c0.31-12.19-1.88-17.54-4.07-25.94c22.48,15.92,49.2,25.14,77.87,25.14c25.54,0,49.53-7.32,70.36-20.17
						c-1.24,4.89-2.1,9.94-1.9,17.91C1093.88,1282.14,1101.1,1301.71,1108.62,1316.37z"/>
					<path class="st4" d="M1205.97,1683.14h-181.18h-1.58H842.03H709.51c-0.09-28.16,0.14-164.72,23.64-248.58
						c5.78-20.59,12.46-36.24,21.02-50.58c4.81-8.05,25.87-41.88,67-65.03c38.22-21.51,73.64-22.46,90.64-21.68l26.02,18.97
						l83.28,60.74l87.51-60.61l27.57-19.1c17-0.78,52.42,0.17,90.64,21.68c41.13,23.15,62.19,56.98,67,65.03
						c8.56,14.34,15.24,29.99,21.02,50.58c23.5,83.86,23.73,220.42,23.64,248.58H1205.97z"/>
					<path class="st5" d="M1602.39,947.13v736.01h-263.9c0.09-28.16-0.14-164.72-23.64-248.58c-5.78-20.59-12.46-36.24-21.02-50.58
						c-4.81-8.05-25.87-41.88-67-65.03c-38.22-21.51-73.64-22.46-90.64-21.68l-27.57,19.1c-7.52-14.66-14.74-34.23-15.29-55.66
						c-0.2-7.97,0.66-13.02,1.9-17.91v-0.01c44.36-27.37,74.36-79.82,74.36-140.04v-67.7c2.89-2.64,15.68-27.93,16.9-30.17
						c7.2-13.14,13.45-28.03,12.02-43.81c-1.59-17.51-12.53-37.04-23.53-49.45c-8.22-9.28-19.17-14.95-27.21-24.45
						c-7.36-8.71-8.85-20.72-14.99-30.22c-5.71-8.82-15.13-13.87-24.63-16.53c-11.56-3.24-24.02-4.92-35.91-5.83
						c-21.34-1.65-43.17,0.76-63.82,5.51c-25.5,5.86-75.62,22.91-106.05,55.47c-2.14,2.29-4.22,4.66-6.22,7.11
						c-9.12,11.14-19.5,26.05-23.04,40.85c-3.33,13.96-2.5,28.72-1.61,42.96c1.03,16.56,2.17,33.58,8.64,48.56v67.7
						c0,44.25,16.2,84.3,42.39,113.29c7.4,8.2,15.61,15.51,24.47,21.79c2.19,8.4,4.38,13.75,4.07,25.94
						c-0.51,19.68-6.77,38.67-13.24,52.47l-26.02-18.97c-17-0.78-52.42,0.17-90.64,21.68c-41.13,23.15-62.19,56.98-67,65.03
						c-8.56,14.34-15.24,29.99-21.02,50.58c-23.5,83.86-23.73,220.42-23.64,248.58h-263.9V947.13L1024,492.11L1602.39,947.13z"/>
					<path class="st6" d="M1748.91,935.15c21.71,17.07,25.46,48.51,8.38,70.22c-9.86,12.54-24.52,19.09-39.33,19.09
						c-10.82,0-21.72-3.5-30.89-10.71l-84.68-66.62L1024,492.11L445.61,947.13l-84.68,66.62c-21.71,17.08-53.15,13.32-70.22-8.38
						C283.5,996.2,280,985.3,280,974.48c0-14.81,6.55-29.47,19.09-39.33L1024,364.86L1311.46,591l167.04,131.42L1748.91,935.15z"/>
				</g>
			</g>
		</g>
	</g>
	<g>
		<g>
			<g>
				<path class="st7" d="M1602.39,1707.14H445.61c-13.25,0-24-10.75-24-24V947.13c0-13.25,10.75-24,24-24s24,10.75,24,24v712.01
					h1108.79V947.13c0-13.25,10.75-24,24-24s24,10.75,24,24v736.01C1626.39,1696.39,1615.65,1707.14,1602.39,1707.14z"/>
			</g>
			<g>
				<path class="st7" d="M1717.85,1048.47c-16.51,0-32.43-5.49-45.61-15.85L1024,522.65l-648.24,509.97
					c-32.07,25.23-78.69,19.67-103.92-12.41c-12.22-15.54-17.66-34.9-15.32-54.53c2.34-19.63,12.19-37.17,27.73-49.39L1009.16,346
					c8.71-6.85,20.97-6.85,29.68,0l724.91,570.29c32.07,25.23,37.64,71.85,12.41,103.92c-12.22,15.54-29.76,25.38-49.39,27.73
					C1723.78,1048.29,1720.8,1048.47,1717.85,1048.47z M1024,468.11c5.24,0,10.49,1.71,14.84,5.14l663.08,521.64
					c5.46,4.29,12.26,6.21,19.16,5.38c6.9-0.82,13.06-4.28,17.35-9.74c8.87-11.27,6.91-27.65-4.36-36.52L1024,395.4L313.93,954.01
					c-5.46,4.29-8.92,10.46-9.74,17.36c-0.82,6.9,1.09,13.7,5.38,19.16c8.87,11.27,25.25,13.23,36.52,4.36l663.07-521.64
					C1013.51,469.82,1018.76,468.11,1024,468.11z"/>
			</g>
		</g>
		<g>
			<path class="st7" d="M1478.5,746.42c-13.25,0-24-10.75-24-24V446.5h-119v144.45c0,13.25-10.75,24-24,24s-24-10.75-24-24V422.5
				c0-13.25,10.75-24,24-24h167c13.25,0,24,10.75,24,24v299.92C1502.5,735.67,1491.75,746.42,1478.5,746.42z"/>
		</g>
		<g>
			<g>
				<g>
					<g>
						<g>
							<g>
								<g>
									<path class="st7" d="M1338.49,1707.14H709.51c-13.23,0-23.96-10.7-24-23.93c-0.15-49.86,1.95-174.52,24.54-255.12
										c6.14-21.9,13.61-39.82,23.53-56.41c8.38-14.03,32.54-49.28,75.83-73.64c40.05-22.54,78.4-25.89,103.52-24.74
										c4.7,0.22,9.24,1.81,13.04,4.58l95.51,69.66l101.05-70c3.71-2.57,8.06-4.04,12.56-4.25c25.12-1.16,63.47,2.2,103.52,24.74
										c43.29,24.36,67.45,59.62,75.83,73.64c9.91,16.59,17.39,34.52,23.52,56.41c22.59,80.61,24.69,205.27,24.54,255.12
										C1362.45,1696.44,1351.72,1707.14,1338.49,1707.14z M1023.21,1659.14h291.15c-0.68-52.53-4.48-153.34-22.63-218.1
										c-5.03-17.93-10.73-31.73-18.51-44.75c-6.41-10.73-24.91-37.71-58.17-56.43c-26.78-15.07-52.5-18.74-71.12-18.77
										l-109.16,75.62c-8.4,5.82-19.56,5.68-27.81-0.34l-103.21-75.28c-18.6,0.06-44.18,3.78-70.81,18.77
										c-33.25,18.71-51.75,45.7-58.17,56.43c-7.78,13.02-13.49,26.82-18.51,44.75c-18.15,64.75-21.94,165.56-22.63,218.1H1023.21
										z"/>
								</g>
								<g>
									<g>
										<path class="st7" d="M842.03,1707.14c-13.25,0-24-10.75-24-24v-176.58c0-13.25,10.75-24,24-24s24,10.75,24,24v176.58
											C866.03,1696.39,855.29,1707.14,842.03,1707.14z"/>
									</g>
									<g>
										<path class="st7" d="M1205.97,1707.14c-13.25,0-24-10.75-24-24v-176.58c0-13.25,10.75-24,24-24s24,10.75,24,24v176.58
											C1229.97,1696.39,1219.22,1707.14,1205.97,1707.14z"/>
									</g>
								</g>
								<g>
									<g>
										<g>
											<path class="st7" d="M1024.87,1286.97c-45.53,0-88.2-19.48-120.15-54.84c-31.33-34.68-48.58-80.63-48.58-129.38v-67.7
												c0-10.23,6.49-19.34,16.16-22.68c7.77-2.73,30.78-12.84,43.12-26.5c8.56-9.47,22.71-10.84,32.61-2.81
												c1.26,0.93,18.09,13.05,46.85,19.15c39.95,8.47,83.12,1.96,128.3-19.33c9.38-4.42,20.53-2.32,27.66,5.21
												c4.58,4.82,19.15,19.01,31.36,26.54c7.08,4.37,11.39,12.1,11.39,20.42v67.7c0,48.75-17.25,94.7-48.58,129.38
												C1113.07,1267.5,1070.4,1286.97,1024.87,1286.97z M904.14,1051.01v51.74c0,75.11,54.16,136.22,120.73,136.22
												c66.57,0,120.73-61.11,120.73-136.22v-55.13c-6.44-4.86-12.43-10.04-17.33-14.54c-93.53,38.43-161.71,14.74-192.23-1.29
												C925.03,1040.3,913.3,1046.69,904.14,1051.01z"/>
										</g>
										<g>
											<path class="st7" d="M880.15,1059.05c-9.29,0-18.12-5.42-22.04-14.48c-8.22-19.03-9.47-38.98-10.57-56.58
												c-0.9-14.37-2.01-32.26,2.22-50.02c3.74-15.68,12.84-32.19,27.81-50.48c2.32-2.84,4.77-5.63,7.26-8.3
												c40-42.8,105.49-59.55,118.21-62.47c24.92-5.73,48.82-7.76,71.03-6.05c15.59,1.2,28.85,3.38,40.55,6.66
												c16.85,4.72,30.1,13.92,38.3,26.6c4.05,6.27,6.44,12.45,8.55,17.91c1.6,4.15,3.11,8.06,4.62,9.85
												c2.58,3.05,6.26,5.95,10.51,9.31c5.12,4.04,10.93,8.62,16.33,14.72c12.78,14.43,27.23,38.61,29.46,63.2
												c2.09,23.07-6.84,42.85-14.86,57.5c-0.19,0.35-0.65,1.25-1.29,2.48c-13.58,26.21-16.53,30.28-20.47,33.88
												c-9.78,8.94-24.96,8.27-33.91-1.52c-8.26-9.04-8.31-22.68-0.56-31.76c1.2-1.85,4.3-7.21,12.32-22.68
												c0.91-1.75,1.55-2.99,1.8-3.43c7.06-12.9,9.88-22.19,9.16-30.12c-0.93-10.24-8.32-25.25-17.58-35.71
												c-2.56-2.9-6.07-5.66-10.13-8.87c-5.5-4.34-11.74-9.26-17.44-16c-6.73-7.96-10.06-16.6-12.75-23.55
												c-1.39-3.61-2.71-7.02-4.07-9.13c-2.33-3.6-7.86-5.59-10.95-6.45c-8.63-2.42-18.86-4.06-31.28-5.02
												c-17.37-1.34-36.41,0.33-56.6,4.97c-28.55,6.56-70.27,23.19-93.9,48.47c-1.77,1.9-3.52,3.89-5.17,5.92
												c-12.62,15.42-16.9,25.49-18.27,31.23c-2.57,10.78-1.74,24.12-1.01,35.89c0.9,14.35,1.82,29.19,6.72,40.53
												c5.26,12.17-0.34,26.29-12.51,31.55C886.56,1058.42,883.33,1059.05,880.15,1059.05z M1151.01,1019.95
												C1151.01,1019.95,1151.01,1019.95,1151.01,1019.95C1151.01,1019.95,1151.01,1019.95,1151.01,1019.95z M1153.4,1017.34
												c-0.01,0.01-0.02,0.02-0.02,0.02C1153.38,1017.35,1153.39,1017.34,1153.4,1017.34z"/>
										</g>
									</g>
								</g>
								<g>
									<g>
										<path class="st7" d="M937.81,1340.25c-3.41,0-6.88-0.73-10.17-2.27c-12-5.63-17.17-19.92-11.54-31.92
											c3.9-8.33,10.52-24.98,10.98-42.9c0.17-6.66-0.56-9.3-2.16-15.08c-0.37-1.34-0.75-2.72-1.14-4.18
											c-3.35-12.82,4.33-25.94,17.16-29.29c12.82-3.35,25.94,4.33,29.29,17.16c0.32,1.22,0.64,2.38,0.95,3.5
											c1.99,7.18,4.24,15.31,3.89,29.12c-0.65,25.33-8.79,47.73-15.5,62.05C955.48,1335.14,946.83,1340.25,937.81,1340.25z"/>
									</g>
									<g>
										<path class="st7" d="M1108.64,1340.37c-8.71,0-17.12-4.76-21.37-13.05c-11.18-21.79-17.39-44.61-17.94-66
											c-0.27-10.91,1.08-18.2,2.49-23.88c2.43-10.68,11.99-18.65,23.4-18.65c13.25,0,24,10.74,24,24v0.01
											c0,1.99-0.25,3.97-0.74,5.9c-0.73,2.87-1.32,5.71-1.17,11.41c0.46,17.96,7.14,34.55,12.66,45.3
											c6.05,11.79,1.4,26.26-10.39,32.31C1116.08,1339.52,1112.33,1340.37,1108.64,1340.37z"/>
									</g>
								</g>
							</g>
						</g>
					</g>
				</g>
			</g>
		</g>
	</g>
</g>
</svg>
