<?xml version="1.0" encoding="utf-8"?>
<!-- Generator: Adobe Illustrator 23.0.2, SVG Export Plug-In . SVG Version: 6.00 Build 0)  -->
<svg version="1.1" id="Layer_1" xmlns="http://www.w3.org/2000/svg" xmlns:xlink="http://www.w3.org/1999/xlink" x="0px" y="0px"
	 viewBox="0 0 2048 2048" style="enable-background:new 0 0 2048 2048;" xml:space="preserve">
<style type="text/css">
	.st0{fill:#6DBDF5;}
	.st1{fill:#E3F0FF;}
	.st2{fill:#CED8E6;}
	.st3{fill:#FF725C;}
	.st4{fill:#333333;}
</style>
<g>
	<g>
		<g>
			<polygon class="st0" points="938.74,709.13 1353.37,364.65 1768,709.13 			"/>
			<rect x="1023.76" y="709.13" class="st1" width="659.21" height="974.22"/>
			<rect x="1239.15" y="1363.05" class="st2" width="228.43" height="320.31"/>
			<g>
				<g>
					<rect x="1170.17" y="818.41" class="st2" width="122.98" height="173.94"/>
					<rect x="1413.59" y="818.41" class="st2" width="122.98" height="173.94"/>
				</g>
				<g>
					<rect x="1170.17" y="1080.03" class="st2" width="122.98" height="173.94"/>
					<rect x="1413.59" y="1080.03" class="st2" width="122.98" height="173.94"/>
				</g>
			</g>
		</g>
		<g>
			<polygon class="st3" points="280,709.13 694.63,364.65 1109.26,709.13 			"/>
			<rect x="365.03" y="709.13" class="st1" width="659.21" height="974.22"/>
			<rect x="580.42" y="1363.05" class="st2" width="228.43" height="320.31"/>
			<g>
				<g>
					<rect x="511.43" y="818.41" class="st2" width="122.98" height="173.94"/>
					<rect x="754.85" y="818.41" class="st2" width="122.98" height="173.94"/>
				</g>
				<g>
					<rect x="511.43" y="1080.03" class="st2" width="122.98" height="173.94"/>
					<rect x="754.85" y="1080.03" class="st2" width="122.98" height="173.94"/>
				</g>
			</g>
		</g>
	</g>
	<g>
		<g>
			<g>
				<g>
					<g>
						<g>
							<path class="st4" d="M1107.08,733.96H280c-10.11,0-19.14-6.34-22.57-15.85s-0.54-20.15,7.24-26.61L678.2,347.93
								c8.89-7.39,21.78-7.39,30.67,0l413.54,343.57c7.78,6.46,10.67,17.1,7.24,26.61C1126.22,727.62,1117.19,733.96,1107.08,733.96
								z M346.44,685.96h694.19L693.54,397.59L346.44,685.96z"/>
						</g>
						<g>
							<path class="st4" d="M1022.27,1705.61H364.8c-13.25,0-24-10.75-24-24V709.96c0-13.25,10.75-24,24-24s24,10.75,24,24v947.66
								h609.47V709.96c0-13.25,10.75-24,24-24c13.25,0,24,10.75,24,24v971.66C1046.27,1694.87,1035.53,1705.61,1022.27,1705.61z"/>
						</g>
						<g>
							<path class="st4" d="M807.45,1705.61H579.63c-13.25,0-24-10.75-24-24v-319.46c0-13.25,10.75-24,24-24h227.83
								c13.25,0,24,10.75,24,24v319.46C831.45,1694.87,820.71,1705.61,807.45,1705.61z M603.63,1657.61h179.83v-271.46H603.63
								V1657.61z"/>
						</g>
						<g>
							<g>
								<g>
									<path class="st4" d="M633.48,1016.43H510.82c-13.25,0-24-10.75-24-24V818.96c0-13.25,10.75-24,24-24h122.66
										c13.25,0,24,10.75,24,24v173.48C657.48,1005.69,646.73,1016.43,633.48,1016.43z M534.82,968.43h74.66V842.96h-74.66V968.43
										z"/>
								</g>
								<g>
									<path class="st4" d="M876.26,1016.43H753.6c-13.25,0-24-10.75-24-24V818.96c0-13.25,10.75-24,24-24h122.66
										c13.25,0,24,10.75,24,24v173.48C900.26,1005.69,889.51,1016.43,876.26,1016.43z M777.6,968.43h74.66V842.96H777.6V968.43z"
										/>
								</g>
							</g>
							<g>
								<g>
									<path class="st4" d="M633.48,1277.36H510.82c-13.25,0-24-10.75-24-24v-173.48c0-13.25,10.75-24,24-24h122.66
										c13.25,0,24,10.75,24,24v173.48C657.48,1266.62,646.73,1277.36,633.48,1277.36z M534.82,1229.36h74.66v-125.48h-74.66
										V1229.36z"/>
								</g>
								<g>
									<path class="st4" d="M876.26,1277.36H753.6c-13.25,0-24-10.75-24-24v-173.48c0-13.25,10.75-24,24-24h122.66
										c13.25,0,24,10.75,24,24v173.48C900.26,1266.62,889.51,1277.36,876.26,1277.36z M777.6,1229.36h74.66v-125.48H777.6
										V1229.36z"/>
								</g>
							</g>
						</g>
					</g>
				</g>
			</g>
		</g>
		<g>
			<g>
				<g>
					<g>
						<path class="st4" d="M1768,733.96h-661.91c-13.25,0-24-10.75-24-24s10.75-24,24-24h595.47l-347.1-288.37l-315.62,262.22
							c-10.2,8.47-25.33,7.07-33.8-3.12c-8.47-10.2-7.07-25.33,3.12-33.8l330.96-274.96c8.89-7.39,21.78-7.39,30.67,0l413.54,343.57
							c7.78,6.46,10.67,17.1,7.24,26.61C1787.14,727.62,1778.11,733.96,1768,733.96z"/>
					</g>
					<g>
						<path class="st4" d="M1683.19,1705.61h-661.12c-13.25,0-24-10.75-24-24s10.75-24,24-24h637.12V709.96c0-13.25,10.75-24,24-24
							s24,10.75,24,24v971.65C1707.19,1694.86,1696.45,1705.61,1683.19,1705.61z"/>
					</g>
					<g>
						<path class="st4" d="M1468.37,1705.61h-227.83c-13.25,0-24-10.75-24-24v-319.46c0-13.25,10.75-24,24-24h227.83
							c13.25,0,24,10.75,24,24v319.46C1492.37,1694.87,1481.63,1705.61,1468.37,1705.61z M1264.55,1657.61h179.83v-271.46h-179.83
							V1657.61z"/>
					</g>
					<g>
						<g>
							<g>
								<path class="st4" d="M1294.4,1016.43h-122.66c-13.25,0-24-10.75-24-24V818.96c0-13.25,10.75-24,24-24h122.66
									c13.25,0,24,10.75,24,24v173.48C1318.4,1005.69,1307.66,1016.43,1294.4,1016.43z M1195.74,968.43h74.66V842.96h-74.66
									V968.43z"/>
							</g>
							<g>
								<path class="st4" d="M1537.18,1016.43h-122.66c-13.25,0-24-10.75-24-24V818.96c0-13.25,10.75-24,24-24h122.66
									c13.25,0,24,10.75,24,24v173.48C1561.18,1005.69,1550.44,1016.43,1537.18,1016.43z M1438.52,968.43h74.66V842.96h-74.66
									V968.43z"/>
							</g>
						</g>
						<g>
							<g>
								<path class="st4" d="M1294.4,1277.36h-122.66c-13.25,0-24-10.75-24-24v-173.48c0-13.25,10.75-24,24-24h122.66
									c13.25,0,24,10.75,24,24v173.48C1318.4,1266.62,1307.66,1277.36,1294.4,1277.36z M1195.74,1229.36h74.66v-125.48h-74.66
									V1229.36z"/>
							</g>
							<g>
								<path class="st4" d="M1537.18,1277.36h-122.66c-13.25,0-24-10.75-24-24v-173.48c0-13.25,10.75-24,24-24h122.66
									c13.25,0,24,10.75,24,24v173.48C1561.18,1266.62,1550.44,1277.36,1537.18,1277.36z M1438.52,1229.36h74.66v-125.48h-74.66
									V1229.36z"/>
							</g>
						</g>
					</g>
				</g>
			</g>
		</g>
	</g>
</g>
</svg>
