<?xml version="1.0" encoding="utf-8"?>
<!-- Generator: Adobe Illustrator 23.0.2, SVG Export Plug-In . SVG Version: 6.00 Build 0)  -->
<svg version="1.1" id="Layer_1" xmlns="http://www.w3.org/2000/svg" xmlns:xlink="http://www.w3.org/1999/xlink" x="0px" y="0px"
	 viewBox="0 0 2048 2048" style="enable-background:new 0 0 2048 2048;" xml:space="preserve">
<style type="text/css">
	.st0{fill:#FF725C;}
	.st1{fill:#AECADB;}
	.st2{fill:#69B6EB;}
	.st3{fill:#DEEAFF;}
	.st4{fill:#333333;}
</style>
<g>
	<g>
		<g>
			<g id="XMLID_1_">
				<path class="st0" d="M1768,446.39v151.52H280V446.39c0-33.14,26.86-60,60-60h1368C1741.14,386.39,1768,413.25,1768,446.39z"/>
				<rect x="1224.21" y="882.6" class="st1" width="382.32" height="134.97"/>
				<polygon class="st2" points="999.17,1047.72 999.17,1416.26 832.82,1416.26 832.82,1185.98 675.4,1185.98 675.4,1416.26 
					509.05,1416.26 509.05,1047.72 509.05,1047.71 509.06,1047.71 754.11,843.25 999.16,1047.71 999.17,1047.71 				"/>
				<path class="st3" d="M999.17,1047.72v-0.01h-0.01L754.11,843.25l-245.05,204.46h-0.01v0.01v368.54H675.4v-230.28h157.42v230.28
					h166.35V1047.72z M1768,597.91v1003.7c0,33.14-26.86,60-60,60H340c-33.14,0-60-26.86-60-60V597.91H1768z M1606.53,1017.57V882.6
					h-382.32v134.97H1606.53z"/>
			</g>
		</g>
	</g>
	<g>
		<g>
			<g>
				<g>
					<path class="st4" d="M1768,621.91H280c-13.25,0-24-10.75-24-24s10.75-24,24-24h1488c13.25,0,24,10.75,24,24
						S1781.25,621.91,1768,621.91z"/>
				</g>
				<g>
					<path class="st4" d="M1632.88,516.15h-597c-13.25,0-24-10.75-24-24s10.75-24,24-24h597c13.25,0,24,10.75,24,24
						S1646.14,516.15,1632.88,516.15z"/>
				</g>
				<g>
					<g>
						<circle class="st4" cx="435.35" cy="492.15" r="31.62"/>
					</g>
					<g>
						<circle class="st4" cx="567.68" cy="492.15" r="31.62"/>
					</g>
					<g>
						<circle class="st4" cx="700.01" cy="492.15" r="31.62"/>
					</g>
				</g>
				<g>
					<path class="st4" d="M1708,1685.61H340c-46.32,0-84-37.68-84-84V446.39c0-46.32,37.68-84,84-84h1368c46.32,0,84,37.68,84,84
						v1155.22C1792,1647.93,1754.32,1685.61,1708,1685.61z M340,410.39c-19.85,0-36,16.15-36,36v1155.22c0,19.85,16.15,36,36,36
						h1368c19.85,0,36-16.15,36-36V446.39c0-19.85-16.15-36-36-36H340z"/>
				</g>
				<g>
					<g>
						<g>
							<path class="st4" d="M1076.74,1136.45c-5.42,0-10.88-1.83-15.36-5.57l-77.59-64.74L754.11,874.51l-245.32,204.67
								l-61.95,51.69c-10.18,8.49-25.31,7.13-33.8-3.05c-8.49-10.18-7.13-25.31,3.05-33.8l77.59-64.74l245.05-204.45
								c8.9-7.43,21.85-7.43,30.75,0l260.69,217.5l61.96,51.7c10.18,8.49,11.54,23.63,3.05,33.8
								C1090.43,1133.51,1083.61,1136.45,1076.74,1136.45z"/>
						</g>
						<g>
							<path class="st4" d="M999.17,1440.26H832.82c-13.25,0-24-10.75-24-24v-206.28H699.4v206.28c0,13.25-10.75,24-24,24H509.05
								c-13.25,0-24-10.75-24-24V1047.7c0-13.25,10.75-24,24-24s24,10.75,24,24v344.56H651.4v-206.28c0-13.25,10.75-24,24-24h157.43
								c13.25,0,24,10.75,24,24v206.28h118.34V1047.7c0-13.25,10.75-24,24-24s24,10.75,24,24v368.56
								C1023.17,1429.52,1012.42,1440.26,999.17,1440.26z"/>
						</g>
					</g>
					<g>
						<g>
							<path class="st4" d="M1606.53,1041.57h-382.32c-13.25,0-24-10.75-24-24V882.6c0-13.25,10.75-24,24-24h382.32
								c13.25,0,24,10.75,24,24v134.97C1630.53,1030.82,1619.79,1041.57,1606.53,1041.57z M1248.21,993.57h334.32V906.6h-334.32
								V993.57z"/>
						</g>
						<g>
							<path class="st4" d="M1606.53,1166.47h-382.32c-13.25,0-24-10.75-24-24s10.75-24,24-24h382.32c13.25,0,24,10.75,24,24
								S1619.79,1166.47,1606.53,1166.47z"/>
						</g>
						<g>
							<path class="st4" d="M1606.53,1283.7h-382.32c-13.25,0-24-10.75-24-24s10.75-24,24-24h382.32c13.25,0,24,10.75,24,24
								S1619.79,1283.7,1606.53,1283.7z"/>
						</g>
						<g>
							<path class="st4" d="M1606.53,1400.92h-382.32c-13.25,0-24-10.75-24-24s10.75-24,24-24h382.32c13.25,0,24,10.75,24,24
								S1619.79,1400.92,1606.53,1400.92z"/>
						</g>
					</g>
				</g>
			</g>
		</g>
	</g>
</g>
</svg>
