<?xml version="1.0" encoding="utf-8"?>
<!-- Generator: Adobe Illustrator 23.0.2, SVG Export Plug-In . SVG Version: 6.00 Build 0)  -->
<svg version="1.1" id="Layer_1" xmlns="http://www.w3.org/2000/svg" xmlns:xlink="http://www.w3.org/1999/xlink" x="0px" y="0px"
	 viewBox="0 0 2048 2048" style="enable-background:new 0 0 2048 2048;" xml:space="preserve">
<style type="text/css">
	.st0{fill:#7BCAFF;}
	.st1{fill:#C7F0A6;}
	.st2{fill:#FFE783;}
	.st3{fill:#F596A3;}
	.st4{fill:#7BE6B4;}
	.st5{fill:#333333;}
</style>
<g>
	<g>
		<g id="XMLID_1_">
			<polygon class="st0" points="1768,913.75 1768,1639.03 1507.94,1639.03 1507.94,1072.02 1454.83,1072.02 1454.83,913.75 			"/>
			<polygon class="st1" points="1454.83,1072.02 1507.94,1072.02 1507.94,1639.03 1218.02,1639.03 1149.2,1639.03 1149.2,1072.02 
				1218.02,1072.02 			"/>
			<polygon class="st2" points="1218.02,408.97 1218.02,1072.02 1149.2,1072.02 1149.2,1639.03 917.08,1639.03 917.08,842.65 
				859.28,842.65 859.28,842.47 859.28,408.97 			"/>
			<polygon class="st3" points="917.08,842.65 917.08,1639.03 558.34,1639.03 558.34,842.65 618.94,842.65 859.28,842.65 			"/>
			<polygon class="st4" points="618.94,636.21 618.94,842.65 558.34,842.65 558.34,1639.03 280,1639.03 280,636.21 			"/>
		</g>
	</g>
	<g>
		<g>
			<path class="st5" d="M1768,1663.03h-260.06c-13.25,0-24-10.75-24-24s10.75-24,24-24H1744V937.75h-265.17v134.63
				c0,13.25-10.75,24-24,24s-24-10.75-24-24V913.75c0-13.25,10.75-24,24-24H1768c13.25,0,24,10.75,24,24v725.28
				C1792,1652.28,1781.25,1663.03,1768,1663.03z"/>
		</g>
		<g>
			<path class="st5" d="M1218.02,1096.02c-13.25,0-24-10.75-24-24V432.97H883.28v409.5c0,13.25-10.75,24-24,24s-24-10.75-24-24
				v-433.5c0-13.25,10.75-24,24-24h358.74c13.25,0,24,10.75,24,24v663.05C1242.02,1085.27,1231.27,1096.02,1218.02,1096.02z"/>
		</g>
		<g>
			<g>
				<g>
					<path class="st5" d="M1009.08,566.03h60.65c5.52,0,10-4.48,10-10v-60.65c0-5.52-4.48-10-10-10h-60.65c-5.52,0-10,4.48-10,10
						v60.65C999.08,561.55,1003.55,566.03,1009.08,566.03z"/>
				</g>
				<g>
					<path class="st5" d="M1008.57,713.72h60.65c5.52,0,10-4.48,10-10v-60.65c0-5.52-4.48-10-10-10h-60.65c-5.52,0-10,4.48-10,10
						v60.65C998.57,709.24,1003.05,713.72,1008.57,713.72z"/>
				</g>
				<g>
					<path class="st5" d="M1008.07,861.41h60.65c5.52,0,10-4.48,10-10v-60.65c0-5.52-4.48-10-10-10h-60.65c-5.52,0-10,4.48-10,10
						v60.65C998.07,856.93,1002.55,861.41,1008.07,861.41z"/>
				</g>
				<g>
					<path class="st5" d="M1007.57,1009.1h60.65c5.52,0,10-4.48,10-10v-60.65c0-5.52-4.48-10-10-10h-60.65c-5.52,0-10,4.48-10,10
						v60.65C997.57,1004.62,1002.04,1009.1,1007.57,1009.1z"/>
				</g>
			</g>
			<g>
				<g>
					<path class="st5" d="M1009.08,1166.16h60.65c5.52,0,10-4.48,10-10v-60.65c0-5.52-4.48-10-10-10h-60.65c-5.52,0-10,4.48-10,10
						v60.65C999.08,1161.68,1003.55,1166.16,1009.08,1166.16z"/>
				</g>
				<g>
					<path class="st5" d="M1008.57,1313.85h60.65c5.52,0,10-4.48,10-10v-60.65c0-5.52-4.48-10-10-10h-60.65c-5.52,0-10,4.48-10,10
						v60.65C998.57,1309.37,1003.05,1313.85,1008.57,1313.85z"/>
				</g>
				<g>
					<path class="st5" d="M1008.07,1461.54h60.65c5.52,0,10-4.48,10-10v-60.65c0-5.52-4.48-10-10-10h-60.65c-5.52,0-10,4.48-10,10
						v60.65C998.07,1457.06,1002.55,1461.54,1008.07,1461.54z"/>
				</g>
			</g>
		</g>
		<g>
			<g>
				<g>
					<path class="st5" d="M410,790.13h60.65c5.52,0,10-4.48,10-10v-60.65c0-5.52-4.48-10-10-10H410c-5.52,0-10,4.48-10,10v60.65
						C400,785.65,404.48,790.13,410,790.13z"/>
				</g>
				<g>
					<path class="st5" d="M409.5,937.82h60.65c5.52,0,10-4.48,10-10v-60.65c0-5.52-4.48-10-10-10H409.5c-5.52,0-10,4.48-10,10v60.65
						C399.5,933.34,403.97,937.82,409.5,937.82z"/>
				</g>
				<g>
					<path class="st5" d="M408.99,1085.51h60.65c5.52,0,10-4.48,10-10v-60.65c0-5.52-4.48-10-10-10h-60.65c-5.52,0-10,4.48-10,10
						v60.65C398.99,1081.03,403.47,1085.51,408.99,1085.51z"/>
				</g>
				<g>
					<path class="st5" d="M408.49,1233.2h60.65c5.52,0,10-4.48,10-10v-60.65c0-5.52-4.48-10-10-10h-60.65c-5.52,0-10,4.48-10,10
						v60.65C398.49,1228.72,402.97,1233.2,408.49,1233.2z"/>
				</g>
			</g>
			<g>
				<g>
					<path class="st5" d="M410,1390.25h60.65c5.52,0,10-4.48,10-10v-60.65c0-5.52-4.48-10-10-10H410c-5.52,0-10,4.48-10,10v60.65
						C400,1385.78,404.48,1390.25,410,1390.25z"/>
				</g>
				<g>
					<path class="st5" d="M409.5,1537.95h60.65c5.52,0,10-4.48,10-10v-60.65c0-5.52-4.48-10-10-10H409.5c-5.52,0-10,4.48-10,10
						v60.65C399.5,1533.47,403.97,1537.95,409.5,1537.95z"/>
				</g>
			</g>
		</g>
		<g>
			<path class="st5" d="M1218.02,1663.03H917.08c-13.25,0-24-10.75-24-24s10.75-24,24-24h300.94c13.25,0,24,10.75,24,24
				S1231.27,1663.03,1218.02,1663.03z"/>
		</g>
		<g>
			<path class="st5" d="M558.34,1663.03H280c-13.25,0-24-10.75-24-24V636.21c0-13.25,10.75-24,24-24h338.94c13.25,0,24,10.75,24,24
				v206.44c0,13.25-10.75,24-24,24s-24-10.75-24-24V660.21H304v954.82h254.34c13.25,0,24,10.75,24,24S571.6,1663.03,558.34,1663.03z
				"/>
		</g>
		<g>
			<path class="st5" d="M1507.94,1663.03H1149.2c-13.25,0-24-10.75-24-24v-567.01c0-13.25,10.75-24,24-24h358.74
				c13.25,0,24,10.75,24,24v567.01C1531.94,1652.28,1521.2,1663.03,1507.94,1663.03z M1173.2,1615.03h310.74v-519.01H1173.2V1615.03
				z"/>
		</g>
		<g>
			<path class="st5" d="M917.08,1663.03H558.34c-13.25,0-24-10.75-24-24V842.65c0-13.25,10.75-24,24-24h358.74
				c13.25,0,24,10.75,24,24v796.38C941.08,1652.28,930.33,1663.03,917.08,1663.03z M582.34,1615.03h310.74V866.65H582.34V1615.03z"
				/>
		</g>
		<g>
			<g>
				<g>
					<path class="st5" d="M1591.68,1070.81h60.65c5.52,0,10-4.48,10-10v-60.65c0-5.52-4.48-10-10-10h-60.65c-5.52,0-10,4.48-10,10
						v60.65C1581.68,1066.33,1586.16,1070.81,1591.68,1070.81z"/>
				</g>
				<g>
					<path class="st5" d="M1591.18,1218.5h60.65c5.52,0,10-4.48,10-10v-60.65c0-5.52-4.48-10-10-10h-60.65c-5.52,0-10,4.48-10,10
						v60.65C1581.18,1214.02,1585.66,1218.5,1591.18,1218.5z"/>
				</g>
				<g>
					<path class="st5" d="M1590.68,1366.19h60.65c5.52,0,10-4.48,10-10v-60.65c0-5.52-4.48-10-10-10h-60.65c-5.52,0-10,4.48-10,10
						v60.65C1580.68,1361.71,1585.15,1366.19,1590.68,1366.19z"/>
				</g>
				<g>
					<path class="st5" d="M1590.17,1513.88h60.65c5.52,0,10-4.48,10-10v-60.65c0-5.52-4.48-10-10-10h-60.65c-5.52,0-10,4.48-10,10
						v60.65C1580.17,1509.4,1584.65,1513.88,1590.17,1513.88z"/>
				</g>
			</g>
		</g>
		<g>
			<g>
				<g>
					<path class="st5" d="M1364.28,1229.08h60.65c5.52,0,10-4.48,10-10v-60.65c0-5.52-4.48-10-10-10h-60.65c-5.52,0-10,4.48-10,10
						v60.65C1354.28,1224.6,1358.76,1229.08,1364.28,1229.08z"/>
				</g>
				<g>
					<path class="st5" d="M1363.78,1376.77h60.65c5.52,0,10-4.48,10-10v-60.65c0-5.52-4.48-10-10-10h-60.65c-5.52,0-10,4.48-10,10
						v60.65C1353.78,1372.29,1358.25,1376.77,1363.78,1376.77z"/>
				</g>
				<g>
					<path class="st5" d="M1363.27,1524.46h60.65c5.52,0,10-4.48,10-10v-60.65c0-5.52-4.48-10-10-10h-60.65c-5.52,0-10,4.48-10,10
						v60.65C1353.27,1519.98,1357.75,1524.46,1363.27,1524.46z"/>
				</g>
			</g>
			<g>
				<g>
					<path class="st5" d="M1233.22,1229.08h60.65c5.52,0,10-4.48,10-10v-60.65c0-5.52-4.48-10-10-10h-60.65c-5.52,0-10,4.48-10,10
						v60.65C1223.22,1224.6,1227.7,1229.08,1233.22,1229.08z"/>
				</g>
				<g>
					<path class="st5" d="M1232.72,1376.77h60.65c5.52,0,10-4.48,10-10v-60.65c0-5.52-4.48-10-10-10h-60.65c-5.52,0-10,4.48-10,10
						v60.65C1222.72,1372.29,1227.2,1376.77,1232.72,1376.77z"/>
				</g>
				<g>
					<path class="st5" d="M1232.22,1524.46h60.65c5.52,0,10-4.48,10-10v-60.65c0-5.52-4.48-10-10-10h-60.65c-5.52,0-10,4.48-10,10
						v60.65C1222.22,1519.98,1226.69,1524.46,1232.22,1524.46z"/>
				</g>
			</g>
		</g>
		<g>
			<g>
				<g>
					<path class="st5" d="M773.42,994.4h60.65c5.52,0,10-4.48,10-10v-60.65c0-5.52-4.48-10-10-10h-60.65c-5.52,0-10,4.48-10,10
						v60.65C763.42,989.93,767.89,994.4,773.42,994.4z"/>
				</g>
				<g>
					<path class="st5" d="M772.91,1142.09h60.65c5.52,0,10-4.48,10-10v-60.65c0-5.52-4.48-10-10-10h-60.65c-5.52,0-10,4.48-10,10
						v60.65C762.91,1137.62,767.39,1142.09,772.91,1142.09z"/>
				</g>
				<g>
					<path class="st5" d="M772.41,1289.78h60.65c5.52,0,10-4.48,10-10v-60.65c0-5.52-4.48-10-10-10h-60.65c-5.52,0-10,4.48-10,10
						v60.65C762.41,1285.31,766.89,1289.78,772.41,1289.78z"/>
				</g>
			</g>
			<g>
				<g>
					<path class="st5" d="M642.36,994.4h60.65c5.52,0,10-4.48,10-10v-60.65c0-5.52-4.48-10-10-10h-60.65c-5.52,0-10,4.48-10,10
						v60.65C632.36,989.93,636.84,994.4,642.36,994.4z"/>
				</g>
				<g>
					<path class="st5" d="M641.86,1142.09h60.65c5.52,0,10-4.48,10-10v-60.65c0-5.52-4.48-10-10-10h-60.65c-5.52,0-10,4.48-10,10
						v60.65C631.86,1137.62,636.33,1142.09,641.86,1142.09z"/>
				</g>
				<g>
					<path class="st5" d="M641.35,1289.78H702c5.52,0,10-4.48,10-10v-60.65c0-5.52-4.48-10-10-10h-60.65c-5.52,0-10,4.48-10,10
						v60.65C631.35,1285.31,635.83,1289.78,641.35,1289.78z"/>
				</g>
			</g>
		</g>
		<g>
			<g>
				<g>
					<path class="st5" d="M773.42,1444.72h60.65c5.52,0,10-4.48,10-10v-60.65c0-5.52-4.48-10-10-10h-60.65c-5.52,0-10,4.48-10,10
						v60.65C763.42,1440.24,767.89,1444.72,773.42,1444.72z"/>
				</g>
			</g>
			<g>
				<g>
					<path class="st5" d="M642.36,1444.72h60.65c5.52,0,10-4.48,10-10v-60.65c0-5.52-4.48-10-10-10h-60.65c-5.52,0-10,4.48-10,10
						v60.65C632.36,1440.24,636.84,1444.72,642.36,1444.72z"/>
				</g>
			</g>
		</g>
	</g>
</g>
</svg>
