<?xml version="1.0" encoding="iso-8859-1"?>
<!-- Uploaded to: SVG Repo, www.svgrepo.com, Generator: SVG Repo Mixer Tools -->
<svg version="1.1" id="Layer_1" xmlns="http://www.w3.org/2000/svg" xmlns:xlink="http://www.w3.org/1999/xlink" 
	 viewBox="0 0 512 512" xml:space="preserve">
<path style="fill:#348E00;" d="M156.653,412.603c-15.165,12.255-36.844,20.663-57.876,20.663c-48.753,0-88.275-39.444-88.275-88.101
	c0-31.275,16.343-58.723,40.956-74.357c-4.936-8.24-7.78-17.874-7.78-28.173c0-30.37,24.669-54.99,55.099-54.99
	s57.876,24.62,57.876,54.99v169.967H156.653z"/>
<rect x="137.927" y="22.988" style="fill:#0F8EE3;" width="363.624" height="49.11"/>
<rect x="156.714" y="72.098" style="fill:#DEDDE1;" width="326.05" height="416.914"/>
<g>
	<rect x="203.766" y="131.218" style="fill:#0F8EE3;" width="50.155" height="64.178"/>
	<rect x="294.672" y="131.218" style="fill:#0F8EE3;" width="50.155" height="64.178"/>
	<rect x="385.578" y="131.218" style="fill:#0F8EE3;" width="50.155" height="64.178"/>
	<rect x="203.766" y="246.199" style="fill:#0F8EE3;" width="50.155" height="64.178"/>
	<rect x="193.829" y="367.323" style="fill:#0F8EE3;" width="35.017" height="65.944"/>
	<rect x="410.917" y="367.323" style="fill:#0F8EE3;" width="35.017" height="65.944"/>
	<rect x="294.672" y="246.199" style="fill:#0F8EE3;" width="50.155" height="64.178"/>
	<rect x="385.578" y="248.466" style="fill:#0F8EE3;" width="50.155" height="64.178"/>
</g>
<rect x="265.415" y="347.512" style="fill:#C2EDFF;" width="108.669" height="141.5"/>
<path d="M334.373,405.166l-0.097,0.097c-4.08,4.08-4.08,10.697,0,14.778c2.041,2.041,4.715,3.06,7.388,3.06s5.348-1.02,7.388-3.06
	l0.097-0.097c4.08-4.08,4.08-10.697,0-14.778C345.068,401.086,338.454,401.086,334.373,405.166z"/>
<path d="M253.918,166.512c-5.77,0-10.449,4.678-10.449,10.449v0.264c0,5.771,4.679,10.449,10.449,10.449s10.449-4.678,10.449-10.449
	v-0.264C264.366,171.19,259.687,166.512,253.918,166.512z"/>
<path d="M344.806,166.512c-5.77,0-10.449,4.678-10.449,10.449v0.264c0,5.771,4.679,10.449,10.449,10.449s10.449-4.678,10.449-10.449
	v-0.264C355.255,171.19,350.577,166.512,344.806,166.512z"/>
<path d="M183.728,211.679H455.75c5.77,0,10.449-4.678,10.449-10.449s-4.679-10.449-10.449-10.449h-59.726v-49.11h29.257v3.345
	c0,5.771,4.679,10.449,10.449,10.449s10.449-4.678,10.449-10.449v-13.794c0-5.771-4.679-10.449-10.449-10.449h-50.155
	c-5.77,0-10.449,4.678-10.449,10.449v59.559H305.1v-49.11h29.257v3.345c0,5.771,4.679,10.449,10.449,10.449
	s10.449-4.678,10.449-10.449v-13.794c0-5.771-4.679-10.449-10.449-10.449h-50.155c-5.77,0-10.449,4.678-10.449,10.449v59.559h-69.99
	v-49.11h29.257v3.345c0,5.771,4.679,10.449,10.449,10.449c5.77,0,10.449-4.678,10.449-10.449v-13.794
	c0-5.771-4.679-10.449-10.449-10.449h-50.155c-5.77,0-10.449,4.678-10.449,10.449v59.559h-9.586c-5.77,0-10.449,4.678-10.449,10.449
	S177.958,211.679,183.728,211.679z"/>
<path d="M435.73,166.512c-5.77,0-10.449,4.678-10.449,10.449v0.264c0,5.771,4.679,10.449,10.449,10.449s10.449-4.678,10.449-10.449
	v-0.264C446.179,171.19,441.5,166.512,435.73,166.512z"/>
<path d="M253.918,281.364c-5.77,0-10.449,4.678-10.449,10.449v0.264c0,5.771,4.679,10.449,10.449,10.449s10.449-4.678,10.449-10.449
	v-0.264C264.366,286.042,259.687,281.364,253.918,281.364z"/>
<path d="M344.806,281.364c-5.77,0-10.449,4.678-10.449,10.449v0.264c0,5.771,4.679,10.449,10.449,10.449s10.449-4.678,10.449-10.449
	v-0.264C355.255,286.042,350.577,281.364,344.806,281.364z"/>
<path d="M183.728,326.531H455.75c5.77,0,10.449-4.678,10.449-10.449c0-5.771-4.679-10.449-10.449-10.449h-59.726v-51.374h29.257
	v3.345c0,5.771,4.679,10.449,10.449,10.449s10.449-4.678,10.449-10.449v-13.794c0-5.771-4.679-10.449-10.449-10.449h-50.155
	c-5.77,0-10.449,4.678-10.449,10.449v61.823H305.1v-49.11h29.257v3.345c0,5.771,4.679,10.449,10.449,10.449
	s10.449-4.678,10.449-10.449v-13.794c0-5.771-4.679-10.449-10.449-10.449h-50.155c-5.77,0-10.449,4.678-10.449,10.449v59.559h-69.99
	v-49.11h29.257v3.345c0,5.771,4.679,10.449,10.449,10.449c5.77,0,10.449-4.678,10.449-10.449v-13.794
	c0-5.771-4.679-10.449-10.449-10.449h-50.155c-5.77,0-10.449,4.678-10.449,10.449v59.559h-9.586c-5.77,0-10.449,4.678-10.449,10.449
	C173.279,321.853,177.958,326.531,183.728,326.531z"/>
<path d="M435.73,281.364c-5.77,0-10.449,4.678-10.449,10.449v0.264c0,5.771,4.679,10.449,10.449,10.449s10.449-4.678,10.449-10.449
	v-0.264C446.179,286.042,441.5,281.364,435.73,281.364z"/>
<path d="M501.551,82.547c5.77,0,10.449-4.678,10.449-10.449v-49.11c0-5.771-4.679-10.449-10.449-10.449H137.927
	c-5.77,0-10.449,4.678-10.449,10.449v49.11c0,5.771,4.679,10.449,10.449,10.449h8.34v113.555
	c-12.402-11.621-29.244-18.905-47.49-18.905c-36.143,0-65.547,29.355-65.547,65.439c0,8.54,1.672,16.964,4.884,24.796
	c-23.991,18.617-38.059,47.037-38.059,77.734c0,50.805,38.713,92.751,88.24,97.994v35.403H10.449C4.679,478.563,0,483.241,0,489.012
	c0,5.771,4.679,10.449,10.449,10.449h491.102c5.77,0,10.449-4.678,10.449-10.449c0-5.771-4.679-10.449-10.449-10.449h-8.34V82.547
	H501.551z M148.376,33.437h342.727v28.212h-8.34H156.716h-8.34V33.437z M20.952,345.166c0-26.675,13.499-51.175,36.11-65.537
	c4.78-3.036,6.271-9.33,3.361-14.189c-4.118-6.875-6.294-14.761-6.294-22.804c0-24.559,20.03-44.541,44.65-44.541
	c25.265,0,47.427,20.813,47.427,44.541c0,0.381,0.023,0.759,0.064,1.13V406.67c-10.931,8.428-23.563,13.687-37.075,15.464v-61.482
	c0-0.003,0-0.007,0-0.01v-67.737l19.786-19.785c4.08-4.08,4.08-10.697,0-14.777c-4.08-4.08-10.695-4.08-14.778,0l-5.008,5.008
	v-9.242c0-5.771-4.679-10.449-10.449-10.449s-10.449,4.678-10.449,10.449v34.462c0,0.003,0,0.007,0,0.01v46.838l-21.203-21.203
	c-4.079-4.08-10.693-4.08-14.778,0c-4.08,4.08-4.08,10.697,0,14.777l35.979,35.98v57.119
	C50.323,416.966,20.952,384.435,20.952,345.166z M109.192,443.139c13.011-1.387,25.638-5.339,37.075-11.594v47.018h-37.075V443.139z
	 M290.531,478.563l34.62-34.62c4.08-4.08,4.08-10.697,0-14.777s-10.695-4.08-14.778,0l-34.513,34.513v-35.582l70.133-70.133h17.639
	v120.598H290.531z M275.86,398.542v-40.578h40.578L275.86,398.542z M472.313,478.563H384.53V347.515
	c0-5.771-4.679-10.449-10.449-10.449h-32.412h-0.01H265.41c-5.77,0-10.449,4.678-10.449,10.449v131.048h-87.796V82.547h305.147
	v396.016H472.313z"/>
<path d="M228.305,356.877h-34.482c-5.77,0-10.449,4.678-10.449,10.449v63.783c0,5.771,4.679,10.449,10.449,10.449
	s10.449-4.678,10.449-10.449v-53.334h13.584v2.118c0,5.771,4.679,10.449,10.449,10.449s10.449-4.678,10.449-10.449v-12.567
	C238.754,361.555,234.076,356.877,228.305,356.877z"/>
<path d="M228.305,398.548c-5.77,0-10.449,4.678-10.449,10.449v0.241c0,5.771,4.679,10.449,10.449,10.449s10.449-4.678,10.449-10.449
	v-0.241C238.754,403.226,234.076,398.548,228.305,398.548z"/>
<path d="M445.67,356.877h-34.482c-5.77,0-10.449,4.678-10.449,10.449v63.783c0,5.771,4.679,10.449,10.449,10.449
	c5.77,0,10.449-4.678,10.449-10.449v-53.334h13.584v2.118c0,5.771,4.679,10.449,10.449,10.449c5.77,0,10.449-4.678,10.449-10.449
	v-12.567C456.119,361.555,451.44,356.877,445.67,356.877z"/>
<path d="M445.67,398.548c-5.77,0-10.449,4.678-10.449,10.449v0.241c0,5.771,4.679,10.449,10.449,10.449
	c5.77,0,10.449-4.678,10.449-10.449v-0.241C456.119,403.226,451.44,398.548,445.67,398.548z"/>
</svg>