<?xml version="1.0" encoding="iso-8859-1"?>
<!-- Generator: Adobe Illustrator 23.0.2, SVG Export Plug-In . SVG Version: 6.00 Build 0)  -->
<svg version="1.1" xmlns="http://www.w3.org/2000/svg" xmlns:xlink="http://www.w3.org/1999/xlink" x="0px" y="0px"
	 viewBox="0 0 64 64" style="enable-background:new 0 0 64 64;" xml:space="preserve">
<g id="_x31_1">
	<path style="fill:#191919;" d="M52.261,0H32.923c-5.428,0-9.844,4.416-9.844,9.844v1.978H19.22V9.861
		c0-0.717-0.582-1.299-1.299-1.299H3.194c-0.718,0-1.299,0.582-1.299,1.299v5.063c0,0.717,0.582,1.299,1.299,1.299H17.92
		c0.718,0,1.299-0.582,1.299-1.299v-1.37h3.859v5.396v5.3c0,0.717,0.582,1.299,1.299,1.299h7.338V37.93h-1.662
		c-0.718,0-1.299,0.582-1.299,1.299v15.675c0,0.299,0.103,0.588,0.291,0.82l6.341,7.796c0.247,0.304,0.617,0.48,1.008,0.48H39.4
		c0.718,0,1.299-0.582,1.299-1.299v-6.089h2.096v3.958c0,0.717,0.582,1.299,1.299,1.299h3.828V59.27h-2.529v-2.659h2.529v-2.599
		h-2.529v-2.66h2.529v-2.599h-3.828c-0.718,0-1.299,0.582-1.299,1.299v3.959h-2.096V39.882l18.067-13.463
		c0.329-0.245,0.523-0.632,0.523-1.042V20.25h1.517c0.718,0,1.299-0.582,1.299-1.299V9.844C62.105,4.416,57.689,0,52.261,0z
		 M16.621,13.624H4.494V11.16h12.127V13.624z M32.923,2.599h19.338c3.995,0,7.245,3.25,7.245,7.245v3.909H25.677V9.844
		C25.677,5.849,28.927,2.599,32.923,2.599z M56.69,24.725L38.623,38.188c-0.329,0.245-0.523,0.632-0.523,1.042v22.172h-1.087
		l-5.66-6.959V40.529h1.662c0.718,0,1.299-0.582,1.299-1.299V24.25c0-0.717-0.582-1.299-1.299-1.299h-7.338V20.25H56.69V24.725z
		 M25.677,17.651v-2.166h33.829v2.166H25.677z"/>
</g>
<g id="Layer_1">
</g>
</svg>
