<?xml version="1.0" encoding="iso-8859-1"?>
<!-- Generator: Adobe Illustrator 23.0.2, SVG Export Plug-In . SVG Version: 6.00 Build 0)  -->
<svg version="1.1" xmlns="http://www.w3.org/2000/svg" xmlns:xlink="http://www.w3.org/1999/xlink" x="0px" y="0px"
	 viewBox="0 0 64 64" style="enable-background:new 0 0 64 64;" xml:space="preserve">
<g id="_x31_5">
	<path style="fill:#191919;" d="M63.78,34.162c-11.486-13.22-25.973-14.141-26.584-14.173c-0.278-0.011-0.548,0.1-0.729,0.312
		c-0.182,0.211-0.254,0.495-0.197,0.768l0.858,4.076c0.05,0.238,0.194,0.444,0.399,0.574l2.838,1.792l-1.548,0.92l-2.517-1.064
		l-0.698,1.652l1.3,0.549l-1.028,0.611l-23.513-2.542c-0.277-0.03-0.556,0.072-0.748,0.276l-3.565,3.774l-7.62,4.657
		c-0.215,0.132-0.365,0.349-0.413,0.597c-0.047,0.248,0.012,0.504,0.163,0.707l4.505,6.006c0.169,0.225,0.436,0.358,0.717,0.358
		l37.377-0.002c0.603-0.036,14.841-0.971,21.025-8.7C64.074,34.972,64.064,34.489,63.78,34.162z M9.086,33.155
		c0.068-0.041,0.13-0.092,0.184-0.149l3.341-3.538l23.367,2.527c0.193,0.021,0.387-0.022,0.555-0.121l6.006-3.569
		c0.268-0.159,0.434-0.447,0.438-0.758c0.004-0.312-0.154-0.604-0.418-0.771l-3.755-2.371l-0.524-2.492
		c3.53,0.5,14.304,2.778,23.267,12.454H48.732c-0.069,0-0.137,0.012-0.201,0.035l-5.891,2.11H3.595L9.086,33.155z M42.725,42.219
		H5.85l-3.384-4.512h40.277c0.069,0,0.137-0.012,0.201-0.035l5.891-2.11H61.12C54.872,41.412,42.805,42.213,42.725,42.219z"/>
</g>
<g id="Layer_1">
</g>
</svg>
