<?xml version="1.0" encoding="iso-8859-1"?>
<!-- Generator: Adobe Illustrator 23.0.2, SVG Export Plug-In . SVG Version: 6.00 Build 0)  -->
<svg version="1.1" xmlns="http://www.w3.org/2000/svg" xmlns:xlink="http://www.w3.org/1999/xlink" x="0px" y="0px"
	 viewBox="0 0 64 64" style="enable-background:new 0 0 64 64;" xml:space="preserve">
<g id="_x34_">
	<path style="fill:#191919;" d="M63.085,27.441h-0.985L44.03,21.353c-0.104-0.035-0.214-0.041-0.322-0.018l-4.348,0.927
		l-0.077-0.066l-0.086,0.101l-18.368,3.917c-0.281,0.06-0.483,0.309-0.483,0.597v0.631h-5.917c-0.235,0-0.461,0.09-0.631,0.252
		l-3.844,3.653l-2.643-3.198c-0.371-0.449-0.918-0.707-1.501-0.707H1.947C0.873,27.441,0,28.315,0,29.388v8.234v0.018v4.105h1.831
		v-2.17c0.039,0.002,0.076,0.012,0.116,0.012h1.259v2.177c0,0.506,0.41,0.915,0.915,0.915h45.557C57.575,42.679,64,36.254,64,28.357
		C64,27.851,63.59,27.441,63.085,27.441z M33.384,27.441v-2.657l5.641-1.203l4.522,3.86H33.384z M43.799,22.563l14.477,4.878H45.427
		l-4.898-4.181L43.799,22.563z M21.567,27.305l10.596-2.26v2.397H21.567V27.305z M1.831,37.64v-0.018v-8.234
		c0-0.063,0.052-0.115,0.116-0.115H5.81c0.035,0,0.067,0.015,0.089,0.042l2.725,3.296l-5.133,4.878
		C3.41,37.566,3.348,37.657,3.3,37.755H1.947C1.883,37.755,1.831,37.704,1.831,37.64z M49.678,40.848H5.037v-2.085h42.376v-1.221
		H6.093l8.702-8.27h47.341C61.666,35.734,56.258,40.848,49.678,40.848z"/>
</g>
<g id="Layer_1">
</g>
</svg>
