<?xml version="1.0" encoding="iso-8859-1"?>
<!-- Generator: Adobe Illustrator 23.0.2, SVG Export Plug-In . SVG Version: 6.00 Build 0)  -->
<svg version="1.1" xmlns="http://www.w3.org/2000/svg" xmlns:xlink="http://www.w3.org/1999/xlink" x="0px" y="0px"
	 viewBox="0 0 64 64" style="enable-background:new 0 0 64 64;" xml:space="preserve">
<g id="_x38_">
	<path style="fill:#191919;" d="M62.29,31.238h-4.534c-0.943,0-1.709,0.767-1.709,1.71v2.096h-2.468l-4.566-5.959
		c-0.005-0.007-0.012-0.012-0.018-0.019c-0.004-0.005-0.006-0.011-0.01-0.016l-6.261-7.26c-0.146-0.17-0.359-0.267-0.583-0.267
		H28.63c-0.27,0-0.52,0.141-0.66,0.373l-4.157,6.888h-0.355v-1.206c0-0.991-0.807-1.798-1.798-1.798H1.798
		C0.807,25.779,0,26.586,0,27.577v1.977c0,0.02,0.004,0.039,0.006,0.058c0.001,0.018,0.003,0.036,0.005,0.054
		c0.009,0.062,0.023,0.122,0.046,0.178c0.001,0.002,0.001,0.004,0.002,0.006c0.025,0.061,0.06,0.116,0.1,0.168
		c0.004,0.006,0.007,0.013,0.011,0.019l9.391,11.671c0.146,0.182,0.367,0.287,0.6,0.287h50.863c0.425,0,0.771-0.345,0.771-0.771
		v-0.654h0.053v1.906h1.541V40.16C63.759,39.846,64,39.383,64,38.861v-5.913C64,32.005,63.233,31.238,62.29,31.238z M46.719,28.783
		H36.614v-3.838h6.795L46.719,28.783z M29.065,23.064h12.722l0.736,0.853H28.55L29.065,23.064z M27.93,24.945h7.657v3.838h-9.974
		L27.93,24.945z M21.917,27.577v1.206h-4.042V27.32h3.785C21.801,27.32,21.917,27.435,21.917,27.577z M6.606,28.783V27.32h4.607
		v1.463H6.606z M12.24,27.32h4.607v1.463H12.24V27.32z M1.541,27.577c0-0.142,0.115-0.257,0.257-0.257h3.78v1.463H1.541V27.577z
		 M60.253,40.454H10.53l-5.409-6.722h43.28v-1.027H4.295l-1.915-2.38h20.307h1.561h23.773l4.566,5.959
		c0.146,0.19,0.372,0.302,0.612,0.302h7.055V40.454z M61.024,35.044h-3.436v-2.096c0-0.093,0.075-0.168,0.168-0.168h4.534
		c0.093,0,0.169,0.076,0.169,0.168v5.913c0,0.093-0.076,0.169-0.169,0.169h-0.496v-3.215C61.795,35.389,61.449,35.044,61.024,35.044
		z"/>
</g>
<g id="Layer_1">
</g>
</svg>
