<?xml version="1.0" encoding="iso-8859-1"?>
<!-- Uploaded to: SVG Repo, www.svgrepo.com, Generator: SVG Repo Mixer Tools -->
<svg height="800px" width="800px" version="1.1" id="Layer_1" xmlns="http://www.w3.org/2000/svg" xmlns:xlink="http://www.w3.org/1999/xlink" 
	 viewBox="0 0 503.467 503.467" xml:space="preserve">
<g transform="translate(9 9)">
	<path style="fill:#AE938D;" d="M242.734,183c33.28,0,59.733,26.453,59.733,59.733s-26.453,59.733-59.733,59.733
		S183,276.014,183,242.734S209.454,183,242.734,183"/>
	<path style="fill:#ECF4F7;" d="M242.734,234.2c5.12,0,8.533,4.267,8.533,8.533s-3.413,8.533-8.533,8.533
		c-5.12,0-8.533-4.267-8.533-8.533S237.614,234.2,242.734,234.2"/>
	<path style="fill:#AE938D;" d="M242.734,387.8c80.213,0,145.067-64.853,145.067-145.067S322.947,97.667,242.734,97.667
		S97.667,162.52,97.667,242.734S162.52,387.8,242.734,387.8 M398.04,153.134c15.36,26.453,23.893,57.173,23.893,89.6
		s-8.533,63.147-23.893,89.6c-15.36,27.307-38.4,50.347-65.707,65.707c-26.453,15.36-57.173,23.893-89.6,23.893
		c-32.427,0-63.147-8.533-89.6-23.893c-27.307-15.36-50.347-38.4-65.707-65.707c-15.36-26.453-23.893-57.173-23.893-89.6
		s8.533-63.147,23.893-89.6c15.36-27.307,38.4-50.347,65.707-65.707c26.453-15.36,57.173-23.893,89.6-23.893
		c32.427,0,63.147,8.533,89.6,23.893C359.64,102.787,382.68,125.827,398.04,153.134"/>
</g>
<path style="fill:#51565F;" d="M251.734,503.467c-2.56,0-4.267-1.707-4.267-4.267v-29.867H243.2c-2.56,0-4.267-1.707-4.267-4.267
	s1.707-4.267,4.267-4.267h4.267v-25.6c-29.867-0.853-58.88-8.533-83.627-22.187l-12.8,22.187l3.413,2.56
	c1.707,0.853,2.56,2.56,2.56,3.413s0,1.707-0.853,2.56c-0.853,1.707-3.413,2.56-5.973,1.707l-3.413-2.56l-14.507,25.6
	c-0.853,1.707-3.413,2.56-5.973,1.707c-1.707-0.853-2.56-2.56-2.56-3.413c0-0.853,0-1.707,0.853-2.56l14.507-25.6l-3.413-2.56
	c-1.707-0.853-2.56-2.56-2.56-3.413s0-1.707,0.853-2.56c0.853-1.707,3.413-2.56,5.973-1.707l3.413,2.56l12.8-22.187
	c-24.747-15.36-46.08-36.693-61.44-61.44l-22.187,12.8l2.56,3.413c0,0.853,0.853,1.707,0.853,2.56c0,1.707-0.853,2.56-2.56,3.413
	c-1.707,0.853-4.267,0.853-5.973-1.707l-2.56-3.413l-25.6,14.507c-1.707,0.853-4.267,0.853-5.973-1.707
	c0-0.853-0.853-1.707-0.853-2.56c0-1.707,0.853-2.56,2.56-3.413l25.6-14.507l-2.56-3.413c0-0.853-0.853-1.707-0.853-2.56
	c0-1.707,0.853-2.56,2.56-3.413c1.707-0.853,4.267-0.853,5.973,1.707l2.56,3.413l22.187-12.8
	c-13.653-24.747-22.187-53.76-22.187-83.627h-25.6v4.267c0,2.56-1.707,4.267-4.267,4.267s-4.267-1.707-4.267-4.267v-4.267H4.267
	c-2.56,0-4.267-1.707-4.267-4.267s1.707-4.267,4.267-4.267h29.867V243.2c0-2.56,1.707-4.267,4.267-4.267s4.267,1.707,4.267,4.267
	v4.267h25.6c0.853-29.867,8.533-58.88,22.187-83.627l-22.187-12.8l-1.707,3.413c-0.853,1.707-3.413,2.56-5.973,1.707
	c-1.707-0.853-2.56-2.56-2.56-3.413c0-0.853,0-1.707,0.853-2.56l1.707-3.413l-25.6-15.36c-1.707-0.853-2.56-2.56-2.56-3.413
	c0-0.853,0-1.707,0.853-2.56c0.853-1.707,3.413-2.56,5.973-1.707l25.6,15.36l2.56-3.413c0.853-1.707,3.413-2.56,5.973-1.707
	c1.707,0.853,2.56,2.56,2.56,3.413c0,0.853,0,1.707-0.853,2.56l-2.56,3.413l22.187,12.8c15.36-24.747,36.693-46.08,61.44-61.44
	l-12.8-22.187l-3.413,1.707c-1.707,0.853-4.267,0.853-5.973-1.707c0-0.853-0.853-1.707-0.853-2.56c0-1.707,0.853-2.56,2.56-3.413
	l3.413-1.707l-15.36-25.6c0-0.853-0.853-1.707-0.853-2.56c0-1.707,0.853-2.56,2.56-3.413c1.707-0.853,4.267-0.853,5.973,1.707
	l14.507,25.6l3.413-2.56c1.707-0.853,4.267-0.853,5.973,1.707c0,0.853,0.853,1.707,0.853,2.56c0,1.707-0.853,2.56-2.56,3.413
	l-3.413,2.56l12.8,22.187c24.747-13.653,53.76-22.187,83.627-22.187v-25.6h-4.267c-2.56,0-4.267-1.707-4.267-4.267
	c0-2.56,1.707-4.267,4.267-4.267h4.267V4.267c0-2.56,1.707-4.267,4.267-4.267s4.267,1.707,4.267,4.267v29.867h4.267
	c2.56,0,4.267,1.707,4.267,4.267c0,2.56-1.707,4.267-4.267,4.267h-4.267v25.6c29.867,0.853,58.88,8.533,83.627,22.187l12.8-22.187
	l-3.413-1.707c-1.707-0.853-2.56-2.56-2.56-3.413s0-1.707,0.853-2.56c0.853-1.707,3.413-2.56,5.973-1.707l3.413,1.707l15.36-25.6
	c0.853-1.707,3.413-2.56,5.973-1.707c1.707,0.853,2.56,2.56,2.56,3.413s0,1.707-0.853,2.56l-14.507,25.6l3.413,2.56
	c1.707,0.853,2.56,2.56,2.56,3.413s0,1.707-0.853,2.56c-0.853,1.707-3.413,2.56-5.973,1.707l-3.413-2.56l-12.8,22.187
	c24.747,15.36,46.08,36.693,61.44,61.44l22.187-12.8l-1.707-3.413c0-0.853-0.853-1.707-0.853-2.56c0-1.707,0.853-2.56,2.56-3.413
	c1.707-0.853,4.267-0.853,5.973,1.707l1.707,3.413l25.6-14.507c1.707-0.853,4.267-0.853,5.973,1.707c0,0.853,0.853,1.707,0.853,2.56
	c0,1.707-0.853,2.56-2.56,3.413l-25.6,14.507l2.56,3.413c0,0.853,0.853,1.707,0.853,2.56c0,1.707-0.853,2.56-2.56,3.413
	c-1.707,0.853-4.267,0.853-5.973-1.707l-2.56-3.413l-22.187,12.8c13.653,24.747,22.187,53.76,22.187,83.627h25.6V243.2
	c0-2.56,1.707-4.267,4.267-4.267s4.267,1.707,4.267,4.267v4.267h29.867c2.56,0,4.267,1.707,4.267,4.267S501.761,256,499.201,256
	h-29.867v4.267c0,2.56-1.707,4.267-4.267,4.267s-4.267-1.707-4.267-4.267V256h-25.6c-0.853,29.867-8.533,58.88-22.187,83.627
	l22.187,12.8l2.56-3.413c0.853-1.707,3.413-2.56,5.973-1.707c1.707,0.853,2.56,2.56,2.56,3.413c0,0.853,0,1.707-0.853,2.56
	l-1.707,3.413l25.6,14.507c1.707,0.853,2.56,2.56,2.56,3.413s0,1.707-0.853,2.56c-0.853,1.707-3.413,2.56-5.973,1.707l-25.6-14.507
	l-2.56,3.413c-0.853,1.707-3.413,2.56-5.973,1.707c-1.707-0.853-2.56-2.56-2.56-3.413c0-0.853,0-1.707,0.853-2.56l2.56-3.413
	l-22.187-12.8c-15.36,24.747-36.693,46.08-61.44,61.44l12.8,22.187l3.413-1.707c1.707-0.853,4.267-0.853,5.973,1.707
	c0,0.853,0.853,1.707,0.853,2.56c0,1.707-0.853,2.56-2.56,3.413l-3.413,2.56l14.507,25.6c0,0.853,0.853,1.707,0.853,2.56
	c0,1.707-0.853,2.56-2.56,3.413c-1.707,0.853-4.267,0.853-5.973-1.707l-14.507-25.6l-3.413,2.56
	c-1.707,0.853-4.267,0.853-5.973-1.707c0-0.853-0.853-1.707-0.853-2.56c0-1.707,0.853-2.56,2.56-3.413l3.413-2.56l-12.8-22.187
	c-24.747,13.653-53.76,22.187-83.627,22.187v25.6h4.267c2.56,0,4.267,1.707,4.267,4.267c0,2.56-1.707,4.267-4.267,4.267h-4.267
	v29.867C256,501.76,254.294,503.467,251.734,503.467z M251.734,76.8C155.307,76.8,76.8,155.307,76.8,251.734
	s78.507,174.933,174.933,174.933s174.933-78.507,174.933-174.933S348.16,76.8,251.734,76.8z M251.734,401.067
	c-2.56,0-4.267-1.707-4.267-4.267v-81.067c-31.573-1.707-57.173-27.307-59.733-59.733h-76.8
	c1.707,63.147,45.227,116.907,106.667,132.267c2.56,0.853,3.413,2.56,3.413,5.12c-0.853,2.56-2.56,3.413-5.12,3.413
	C149.334,380.587,102.4,320.854,102.4,251.734c0-2.56,1.707-4.267,4.267-4.267h81.067c1.707-31.573,27.307-57.173,59.733-59.733
	v-76.8c-63.147,1.707-117.76,46.08-132.267,107.52c-0.853,2.56-2.56,3.413-5.12,3.413c-2.56-0.853-3.413-2.56-3.413-5.12
	C122.88,149.334,182.614,102.4,251.734,102.4c2.56,0,4.267,1.707,4.267,4.267v81.067c31.573,1.707,57.173,27.307,59.733,59.733h76.8
	c-1.707-63.147-45.227-117.76-107.52-132.267c-2.56-0.853-3.413-2.56-3.413-5.12c0.853-2.56,2.56-3.413,5.12-3.413
	c67.413,16.213,114.347,75.947,114.347,145.067c0,2.56-1.707,4.267-4.267,4.267h-81.067c-1.707,31.573-27.307,57.173-59.733,59.733
	v76.8c63.147-1.707,117.76-45.227,132.267-107.52c0.853-2.56,2.56-3.413,5.12-3.413c2.56,0.853,3.413,2.56,3.413,5.12
	C380.587,354.134,320.854,401.067,251.734,401.067z M251.734,196.267c-30.72,0-55.467,24.747-55.467,55.467
	s24.747,55.467,55.467,55.467s55.467-24.747,55.467-55.467S282.454,196.267,251.734,196.267z M251.734,264.534
	c-6.827,0-12.8-5.973-12.8-12.8s5.973-12.8,12.8-12.8s12.8,5.973,12.8,12.8S258.56,264.534,251.734,264.534z M251.734,247.467
	c-2.56,0-4.267,1.707-4.267,4.267s1.707,4.267,4.267,4.267s4.267-1.707,4.267-4.267S254.294,247.467,251.734,247.467z"/>
</svg>