<?xml version="1.0" encoding="iso-8859-1"?>
<!-- Uploaded to: SVG Repo, www.svgrepo.com, Generator: SVG Repo Mixer Tools -->
<svg version="1.1" id="Layer_1" xmlns="http://www.w3.org/2000/svg" xmlns:xlink="http://www.w3.org/1999/xlink" 
	 viewBox="0 0 512.001 512.001" xml:space="preserve">
<path style="fill:#B6C4C6;" d="M444.125,367.165H122.473c-7.749,0-15.353-2.106-21.998-6.093l-75.357-45.214H486.88v8.551
	C486.881,348.024,467.738,367.165,444.125,367.165z"/>
<path style="fill:#9DB0B3;" d="M67.875,315.858H25.119l75.357,45.214c6.645,3.987,14.248,6.093,21.998,6.093h42.756
	c-7.749,0-15.353-2.106-21.998-6.093L67.875,315.858z"/>
<rect x="8.017" y="290.205" style="fill:#54747B;" width="495.967" height="25.653"/>
<path style="fill:#FDD349;" d="M196.142,196.142l42.756,34.205l183.404-20.378c25.327-2.814,47.477,17.011,47.477,42.494v37.743
	H25.119L196.142,196.142z"/>
<polygon style="fill:#FCB82D;" points="196.142,196.142 25.119,290.205 59.324,290.205 210.077,207.291 "/>
<path style="fill:#38ABEC;" d="M298.756,264.552L464.2,231.344c-8.141-14.29-24.242-23.337-41.898-21.375l-183.404,20.377v34.205
	H298.756z"/>
<path style="fill:#3E92DD;" d="M453.979,219.295l-152.251,28.155H256v-19.003l-17.102,1.9v34.205h59.858L464.2,231.344
	C461.559,226.708,458.076,222.63,453.979,219.295z"/>
<circle style="fill:#38ABEC;" cx="187.591" cy="247.449" r="17.102"/>
<path d="M503.983,282.188h-26.188v-9.62h9.086c2.126,0,4.164-0.844,5.669-2.347l17.102-17.102c3.131-3.132,3.131-8.207,0-11.338
	c-3.132-3.13-8.207-3.13-11.338,0l-14.754,14.754h-5.766v-4.072c0-7.911-1.765-15.485-5.246-22.513
	c-0.428-0.863-0.907-1.738-1.384-2.574c-10.058-17.657-29.589-27.62-49.748-25.374l-38.034,4.225
	c-4.401,0.488-7.571,4.452-7.082,8.853c0.488,4.4,4.447,7.574,8.853,7.083l38.034-4.225c9.739-1.082,19.263,1.999,26.443,8.155
	l-151.671,30.444h-51.045v-19.012l104.033-11.559c4.401-0.488,7.571-4.453,7.082-8.853s-4.452-7.574-8.853-7.082l-107.864,11.984
	l-31.159-24.928l32.868-19.721c2.416-1.448,3.893-4.059,3.893-6.875v-17.637h17.637c4.428,0,8.017-3.588,8.017-8.017
	s-3.588-8.017-8.017-8.017h-25.653c-4.428,0-8.017,3.588-8.017,8.017v21.115L23.06,282.188H8.017c-4.428,0-8.017,3.588-8.017,8.017
	v25.653c0,4.428,3.588,8.017,8.017,8.017h14.881l73.453,44.072c7.888,4.733,16.922,7.235,26.122,7.235h321.653
	c27.995,0,50.772-22.777,50.772-50.772v-0.534h9.086c4.428,0,8.017-3.588,8.017-8.017v-25.653
	C512,285.778,508.412,282.188,503.983,282.188z M478.864,324.41c0,19.156-15.583,34.739-34.739,34.739H122.473
	c-6.295,0-12.475-1.712-17.873-4.951l-50.538-30.322h424.803V324.41z M495.967,307.842H16.033v-9.62h368.234
	c4.428,0,8.017-3.588,8.017-8.017s-3.588-8.017-8.017-8.017H56.329l138.985-76.442l35.567,28.454v30.351
	c0,4.428,3.588,8.017,8.017,8.017h59.858c0.53,0,1.058-0.052,1.578-0.156l159.294-31.974c1.413,3.822,2.135,7.851,2.135,12.025
	v4.071h-17.637c-4.428,0-8.017,3.588-8.017,8.017s3.588,8.017,8.017,8.017h17.637v9.62h-43.29c-4.428,0-8.017,3.588-8.017,8.017
	s3.588,8.017,8.017,8.017h77.495V307.842z"/>
<path d="M187.591,222.33c-13.851,0-25.119,11.268-25.119,25.119s11.268,25.119,25.119,25.119c13.851,0,25.119-11.268,25.119-25.119
	S201.442,222.33,187.591,222.33z M187.591,256.535c-5.01,0-9.086-4.076-9.086-9.086s4.076-9.086,9.086-9.086
	s9.086,4.076,9.086,9.086S192.601,256.535,187.591,256.535z"/>
<path d="M452.676,349.529h1.069c4.428,0,8.017-3.588,8.017-8.017s-3.588-8.017-8.017-8.017h-1.069c-4.428,0-8.017,3.588-8.017,8.017
	S448.248,349.529,452.676,349.529z"/>
<path d="M409.921,349.529h1.069c4.428,0,8.017-3.588,8.017-8.017s-3.588-8.017-8.017-8.017h-1.069c-4.428,0-8.017,3.588-8.017,8.017
	S405.492,349.529,409.921,349.529z"/>
<path d="M367.165,349.529h1.069c4.428,0,8.017-3.588,8.017-8.017s-3.588-8.017-8.017-8.017h-1.069c-4.428,0-8.017,3.588-8.017,8.017
	S362.737,349.529,367.165,349.529z"/>
<path d="M119.182,349.529H256c4.428,0,8.017-3.588,8.017-8.017s-3.588-8.017-8.017-8.017H119.182c-4.428,0-8.017,3.588-8.017,8.017
	S114.753,349.529,119.182,349.529z"/>
<path d="M298.756,349.529h17.102c4.428,0,8.017-3.588,8.017-8.017s-3.588-8.017-8.017-8.017h-17.102
	c-4.428,0-8.017,3.588-8.017,8.017S294.327,349.529,298.756,349.529z"/>
<path d="M137.353,247.984h-1.069c-4.428,0-8.017,3.588-8.017,8.017s3.588,8.017,8.017,8.017h1.069c4.428,0,8.017-3.588,8.017-8.017
	S141.781,247.984,137.353,247.984z"/>
</svg>