<?xml version="1.0" encoding="UTF-8"?>
<!DOCTYPE svg PUBLIC "-//W3C//DTD SVG 1.1//EN" "http://www.w3.org/Graphics/SVG/1.1/DTD/svg11.dtd">
<!-- Creator: CorelDRAW -->
<svg xmlns="http://www.w3.org/2000/svg" xml:space="preserve" width="2048px" height="2048px" style="shape-rendering:geometricPrecision; text-rendering:geometricPrecision; image-rendering:optimizeQuality; fill-rule:evenodd; clip-rule:evenodd"
viewBox="0 0 2048 2048"
 xmlns:xlink="http://www.w3.org/1999/xlink">
 <defs>
  <style type="text/css">
   <![CDATA[
    .fil4 {fill:none}
    .fil2 {fill:#868686}
    .fil0 {fill:#BCBCBC}
    .fil3 {fill:#727272;fill-rule:nonzero}
    .fil1 {fill:#ABABAB;fill-rule:nonzero}
   ]]>
  </style>
 </defs>
 <g id="Layer_x0020_1">
  <metadata id="CorelCorpID_0Corel-Layer"/>
  <g id="_423707192">
   <g>
    <path id="_423707792" class="fil0" d="M1096.2 338.018c11.4921,-16.8898 32.4201,-26.1484 53.6363,-21.7654 9.78662,2.02323 18.5587,6.86103 25.7988,13.7008 69.7193,65.8642 125.891,149.066 178.112,229.07 34.1114,52.2615 68.6315,105.738 108.796,153.585 34.7185,41.3575 75.6426,80.5111 125.087,103.571 41.5725,19.3878 84.7394,25.2886 130.188,19.8815 28.5036,-3.39095 54.443,17.0799 57.8091,45.58 3.36496,28.4941 -17.0835,54.4028 -45.567,57.7902 -74.5465,8.8689 -144.638,-2.63504 -210.405,-39.4217 -109.482,-61.2402 -186.047,-181.667 -253.031,-284.29 -30.5351,-46.7823 -61.689,-95.1686 -96.8245,-139.296l-245.051 1185.6c-5.79567,28.0465 -33.2162,46.2107 -61.2981,40.4811 -28.0984,-5.73189 -46.33,-33.2528 -40.5213,-61.3583 23.2358,-112.42 265.937,-1304.62 273.271,-1303.12z"/>
    <path id="_423707816" class="fil1" d="M689.484 1384.36c73.0784,5.44489 138.058,32.4697 184.034,71.7591 48.6591,41.5819 76.5497,96.9402 72.1323,156.213 -4.41733,59.2737 -40.2059,109.886 -94.4906,143.797 -51.2906,32.0398 -119.558,49.1351 -192.637,43.6878 -73.0784,-5.44489 -138.058,-32.4697 -184.034,-71.7591 -48.6591,-41.5819 -76.5497,-96.9402 -72.1323,-156.213 4.41733,-59.2737 40.2059,-109.886 94.4906,-143.797 51.2906,-32.0398 119.558,-49.1351 192.637,-43.6878z"/>
   </g>
   <g>
    <path id="_423708248" class="fil2" d="M340.081 294.466c1.81063,-13.3087 11.4118,-24.8941 25.1823,-28.5343 6.35315,-1.67953 12.9331,-1.40433 19.2,0.498426 60.3378,18.3189 117.789,50.8122 171.976,82.5839 35.3965,20.7543 71.3894,42.1028 109.054,58.4835 32.5571,14.1602 68.1201,25.2024 103.978,24.2764 30.1488,-0.779528 57.2811,-9.96379 82.4422,-26.4709 15.7795,-10.3524 37.0465,-5.91024 47.3835,9.8752 10.3335,15.7807 5.89725,37.0229 -9.87166,47.3681 -41.2701,27.0756 -85.8898,40.8555 -135.378,38.4886 -82.3843,-3.93898 -162.749,-52.3607 -232.256,-93.1135 -31.6855,-18.5788 -64.206,-37.9181 -97.819,-53.5855l203.395 769.549c4.81181,18.2043 -5.99882,36.9331 -24.2043,41.7945 -18.2162,4.86496 -37.0134,-5.98465 -41.8359,-24.228 -19.2862,-72.9697 -226.002,-845.718 -221.247,-846.986z"/>
    <path id="_423707408" class="fil3" d="M407.513 1029.47c44.602,-18.2209 90.7654,-21.3685 129.339,-11.7272 40.8272,10.2047 73.4705,34.6051 88.2497,70.7812 14.778,36.176 8.55709,76.454 -13.4469,112.325 -20.7898,33.8918 -55.9524,63.9674 -100.554,82.1883 -44.602,18.2221 -90.7654,21.3685 -129.34,11.7272 -40.826,-10.2036 -73.4693,-34.604 -88.2485,-70.78 -14.7791,-36.176 -8.55709,-76.454 13.4469,-112.325 20.7898,-33.8929 55.9524,-63.9686 100.554,-82.1894z"/>
   </g>
  </g>
 </g>
 <rect class="fil4" width="2048" height="2048"/>
</svg>
