<?xml version="1.0" encoding="UTF-8"?>
<!DOCTYPE svg PUBLIC "-//W3C//DTD SVG 1.1//EN" "http://www.w3.org/Graphics/SVG/1.1/DTD/svg11.dtd">
<!-- Creator: CorelDRAW -->
<svg xmlns="http://www.w3.org/2000/svg" xml:space="preserve" width="2048px" height="2048px" style="shape-rendering:geometricPrecision; text-rendering:geometricPrecision; image-rendering:optimizeQuality; fill-rule:evenodd; clip-rule:evenodd"
viewBox="0 0 2048 2048"
 xmlns:xlink="http://www.w3.org/1999/xlink">
 <defs>
  <style type="text/css">
   <![CDATA[
    .fil4 {fill:none}
    .fil2 {fill:#757575}
    .fil0 {fill:#9B9B9C}
    .fil3 {fill:#545454;fill-rule:nonzero}
    .fil1 {fill:#888888;fill-rule:nonzero}
   ]]>
  </style>
 </defs>
 <g id="Layer_x0020_1">
  <metadata id="CorelCorpID_0Corel-Layer"/>
  <g id="_423708848">
   <path id="_423708776" class="fil0" d="M1639.79 837.046c4.38307,-1.30158 9.38977,-1.10669 14.0457,-0.0106299 6.40512,1.50827 12.8079,4.43386 18.2858,8.05631 17.2654,11.4154 25.7256,29.5984 23.5465,50.2335l-79.5426 752.573c-2.92441,27.6638 -27.7937,47.9752 -55.4965,45.1406 -27.7181,-2.83583 -48.1205,-27.8173 -45.189,-55.5556l73.7457 -697.725c-193.295,3.37205 -385.203,-18.0225 -573.639,-60.9189l-83.8465 793.293c-2.92323,27.665 -27.7925,47.9764 -55.4965,45.1406 -27.7158,-2.83583 -48.117,-27.8173 -45.189,-55.552l89.843 -850.881c2.92677,-27.7205 28.0323,-48.0237 55.7516,-45.0933 3.13937,0.333071 6.18544,1.0063 9.22205,1.85433 212.985,59.3788 433.487,78.5493 653.959,69.4453z"/>
   <path id="_423708728" class="fil1" d="M1561.36 1546.17c35.3103,30.7217 54.8835,71.165 50.3516,114.05 -4.53544,42.9012 -32.1862,78.4016 -73.2237,101.108 -80.5512,44.576 -198.964,32.1733 -268.438,-28.2744 -76.343,-66.4241 -65.6044,-166.198 22.8721,-215.158 80.5501,-44.5772 198.965,-32.1733 268.438,28.2744z"/>
   <path id="_423708992" class="fil1" d="M931.06 1664.17c-4.53544,42.9012 -32.1862,78.4016 -73.2237,101.108 -80.5512,44.576 -198.964,32.1733 -268.439,-28.2744 -76.3418,-66.4241 -65.6032,-166.198 22.8721,-215.158 114.952,-63.613 334.121,-2.76142 318.79,142.324z"/>
  </g>
  <g id="_423708872">
   <path id="_423708968" class="fil2" d="M663.844 302.612c6.69686,-13.4067 21.0024,-22.1917 36.8563,-21.0874 7.31339,0.510237 14.165,3.16536 20.1,7.42796 57.1489,41.0386 106.152,96.0119 151.967,149.048 29.9292,34.6465 60.2729,70.1339 94.1682,100.976 29.2984,26.6587 62.8926,51.1063 101.101,63.0178 32.126,10.0146 64.0867,10.0665 96.5965,1.6748 20.3894,-5.263 41.2559,7.07363 46.5,27.463 5.24292,20.3835 -7.07953,41.2252 -27.4547,46.4847 -53.3233,13.7634 -105.408,12.2799 -156.83,-8.00788 -85.6028,-33.7748 -153.084,-113.809 -211.852,-181.84 -26.791,-31.0122 -54.189,-63.1312 -84.0627,-91.7623l-61.7811 885.961c-1.46102,20.9587 -19.6122,36.8551 -40.5898,35.4461 -20.9894,-1.40906 -36.9449,-19.6264 -35.4803,-40.6288 5.85827,-84.0083 65.2831,-974.542 70.7623,-974.173z"/>
   <path id="_423708560" class="fil3" d="M470.866 1103.21c53.6611,-3.21496 103.553,10.0547 140.832,34.1044 39.4559,25.454 65.165,62.9611 67.7717,106.485 2.60669,43.5248 -18.4441,83.8323 -54.58,113.812 -34.1422,28.3264 -82.0938,47.4555 -135.756,50.6681 -53.6611,3.21378 -103.553,-10.0547 -140.832,-34.1055 -39.4548,-25.4528 -65.165,-62.9599 -67.7705,-106.485 -2.60669,-43.5237 18.4429,-83.8312 54.5788,-113.812 34.1422,-28.3264 82.0949,-47.4544 135.756,-50.667z"/>
  </g>
 </g>
 <rect class="fil4" width="2048" height="2048"/>
</svg>
