<?xml version="1.0" encoding="UTF-8"?>
<!DOCTYPE svg PUBLIC "-//W3C//DTD SVG 1.1//EN" "http://www.w3.org/Graphics/SVG/1.1/DTD/svg11.dtd">
<!-- Creator: CorelDRAW -->
<svg xmlns="http://www.w3.org/2000/svg" xml:space="preserve" width="2048px" height="2048px" style="shape-rendering:geometricPrecision; text-rendering:geometricPrecision; image-rendering:optimizeQuality; fill-rule:evenodd; clip-rule:evenodd"
viewBox="0 0 2048 2048"
 xmlns:xlink="http://www.w3.org/1999/xlink">
 <defs>
  <style type="text/css">
   <![CDATA[
    .fil5 {fill:none}
    .fil2 {fill:#BBBBBC}
    .fil0 {fill:#CDCDCD}
    .fil1 {fill:#DBDBDB}
    .fil4 {fill:#E4E4E4}
    .fil3 {fill:#A2A2A2;fill-rule:nonzero}
   ]]>
  </style>
 </defs>
 <g id="Layer_x0020_1">
  <metadata id="CorelCorpID_0Corel-Layer"/>
  <path class="fil0" d="M800 703.999c150.216,0 286.219,60.8918 384.664,159.337 98.445,98.445 159.337,234.448 159.337,384.664 0,150.219 -60.8918,286.22 -159.337,384.665 -98.445,98.445 -234.448,159.337 -384.664,159.337 -150.219,0 -286.22,-60.8918 -384.665,-159.337 -98.445,-98.445 -159.337,-234.447 -159.337,-384.665 0,-150.216 60.8918,-286.219 159.337,-384.664 98.445,-98.445 234.447,-159.337 384.665,-159.337zm0 381.084c44.9811,0 85.7115,18.2362 115.194,47.7225 29.4862,29.4827 47.7225,70.213 47.7225,115.194 0,44.9859 -18.2362,85.7162 -47.7225,115.197 -29.4827,29.4862 -70.213,47.7213 -115.194,47.7213 -44.9859,0 -85.7162,-18.2351 -115.197,-47.7213 -29.4862,-29.4803 -47.7213,-70.2107 -47.7213,-115.197 0,-44.9811 18.2351,-85.7115 47.7213,-115.194 29.4803,-29.4862 70.2107,-47.7225 115.197,-47.7225z"/>
  <path class="fil1" d="M800 767.999c132.543,0 252.547,53.7284 339.409,140.591 86.8631,86.8619 140.591,206.866 140.591,339.409 0,132.546 -53.7284,252.547 -140.591,339.41 -86.8619,86.8631 -206.866,140.591 -339.409,140.591 -132.546,0 -252.547,-53.7284 -339.41,-140.591 -86.8631,-86.8631 -140.591,-206.864 -140.591,-339.41 0,-132.543 53.7284,-252.547 140.591,-339.409 86.8631,-86.8631 206.864,-140.591 339.41,-140.591zm0 350.678c35.7059,0 68.0375,14.4756 91.441,37.8815 23.4059,23.4036 37.8815,55.7351 37.8815,91.441 0,35.7095 -14.4756,68.041 -37.8815,91.4422 -23.4036,23.4059 -55.7351,37.8815 -91.441,37.8815 -35.7095,0 -68.041,-14.4756 -91.4422,-37.8815 -23.4059,-23.4012 -37.8815,-55.7327 -37.8815,-91.4422 0,-35.7059 14.4756,-68.0375 37.8815,-91.441 23.4012,-23.4059 55.7327,-37.8815 91.4422,-37.8815z"/>
  <g id="_423711296">
   <path id="_423711464" class="fil2" d="M1318.22 276.742c1.26732,-9.313 7.98544,-17.4189 17.6221,-19.9666 4.44449,-1.1752 9.04961,-0.982678 13.4339,0.348425 42.2209,12.8185 82.4221,35.5559 120.338,57.7867 24.7689,14.5228 49.9548,29.4614 76.3099,40.924 22.7811,9.90828 47.6658,17.6351 72.7571,16.9866 21.0969,-0.544489 40.0819,-6.97087 57.6874,-18.5221 11.0421,-7.24371 25.924,-4.13622 33.1559,6.90945 7.2319,11.0433 4.12677,25.9063 -6.90709,33.1453 -28.878,18.9461 -60.1004,28.5886 -94.7292,26.9327 -57.6473,-2.7567 -113.881,-36.639 -162.517,-65.1556 -22.1717,-12.9992 -44.928,-26.5323 -68.4485,-37.4953l142.324 538.483c3.36733,12.7382 -4.19764,25.8437 -16.937,29.2453 -12.7465,3.40394 -25.9004,-4.18819 -29.2736,-16.9536 -13.4965,-51.0591 -158.143,-591.781 -154.815,-592.668z"/>
   <path id="_423712016" class="fil3" d="M1365.4 791.05c31.2095,-12.75 63.5115,-14.9516 90.5032,-8.20512 28.5685,7.13977 51.4099,24.2138 61.7516,49.5272 10.3406,25.3134 5.98701,53.4981 -9.40985,78.5989 -14.5465,23.7154 -39.1512,44.7603 -70.3619,57.5103 -31.2095,12.75 -63.5115,14.9528 -90.5032,8.20631 -28.5673,-7.14095 -51.4099,-24.2138 -61.7516,-49.5284 -10.3406,-25.3134 -5.98701,-53.4969 9.40985,-78.5977 14.5465,-23.7166 39.1512,-44.7615 70.3619,-57.5115z"/>
  </g>
  <g id="_423711272">
   <path id="_423710960" class="fil2" d="M1485.82 1109.18c3.02953,-7.5378 10.3713,-12.913 18.9862,-13.0122 3.97323,-0.046063 7.79174,1.0878 11.185,3.12874 32.6788,19.6595 61.5697,47.2052 88.6524,73.8449 17.6917,17.4024 35.6457,35.2418 55.3134,50.4142 17.0008,13.115 36.2244,24.8457 57.391,29.602 17.7957,3.99803 35.0658,2.62087 52.2603,-3.34134 10.7847,-3.73937 22.5992,2.00788 26.3292,12.7925 3.72874,10.7823 -2.0126,22.5839 -12.789,26.3209 -28.2036,9.77954 -56.4083,11.2677 -85.0808,2.56772 -47.7319,-14.4851 -87.7075,-54.7571 -122.449,-88.9288 -15.8362,-15.5776 -32.0504,-31.7256 -49.4481,-45.88l5.56418 481.362c0.132284,11.387 -8.9752,20.7732 -20.3705,20.9339 -11.4024,0.161811 -20.8229,-8.97993 -20.954,-20.3906 -0.527953,-45.6437 -7.56615,-529.373 -4.59095,-529.414z"/>
   <path id="_423710696" class="fil3" d="M1416.75 1550.19c28.8496,-4.09489 56.3882,0.881103 77.5855,12.2362 22.4351,12.0165 37.9725,31.1504 41.2937,54.5504 3.32126,23.3988 -6.27874,46.1008 -24.4843,63.8859 -17.2004,16.8047 -42.2658,29.2465 -71.1154,33.3414 -28.8496,4.09489 -56.3871,-0.881103 -77.5855,-12.235 -22.4351,-12.0177 -37.9725,-31.1516 -41.2937,-54.5504 -3.32126,-23.4 6.27874,-46.102 24.4843,-63.8871 17.2004,-16.8047 42.2658,-29.2465 71.1154,-33.3414z"/>
  </g>
  <path class="fil4" d="M800 799.999c123.708,0 235.71,50.1461 316.783,131.218 81.0721,81.0721 131.218,193.075 131.218,316.783 0,123.71 -50.1461,235.71 -131.218,316.783 -81.0721,81.0733 -193.075,131.219 -316.783,131.219 -123.71,0 -235.71,-50.1461 -316.783,-131.219 -81.0733,-81.0721 -131.219,-193.073 -131.219,-316.783 0,-123.708 50.1461,-235.71 131.219,-316.783 81.0721,-81.0721 193.073,-131.218 316.783,-131.218zm0 318.678c35.7059,0 68.0375,14.4756 91.441,37.8815 23.4059,23.4036 37.8815,55.7351 37.8815,91.441 0,35.7095 -14.4756,68.041 -37.8815,91.4422 -23.4036,23.4059 -55.7351,37.8815 -91.441,37.8815 -35.7095,0 -68.041,-14.4756 -91.4422,-37.8815 -23.4059,-23.4012 -37.8815,-55.7327 -37.8815,-91.4422 0,-35.7059 14.4756,-68.0375 37.8815,-91.441 23.4012,-23.4059 55.7327,-37.8815 91.4422,-37.8815z"/>
 </g>
 <rect class="fil5" width="2048" height="2048"/>
</svg>
