<?xml version="1.0" encoding="UTF-8"?>
<!DOCTYPE svg PUBLIC "-//W3C//DTD SVG 1.1//EN" "http://www.w3.org/Graphics/SVG/1.1/DTD/svg11.dtd">
<!-- Creator: CorelDRAW -->
<svg xmlns="http://www.w3.org/2000/svg" xml:space="preserve" width="2048px" height="2048px" style="shape-rendering:geometricPrecision; text-rendering:geometricPrecision; image-rendering:optimizeQuality; fill-rule:evenodd; clip-rule:evenodd"
viewBox="0 0 2048 2048"
 xmlns:xlink="http://www.w3.org/1999/xlink">
 <defs>
  <style type="text/css">
   <![CDATA[
    .fil2 {fill:none}
    .fil1 {fill:#C9C9C9}
    .fil0 {fill:#DEDEDE}
   ]]>
  </style>
 </defs>
 <g id="Layer_x0020_1">
  <metadata id="CorelCorpID_0Corel-Layer"/>
  <g id="_426661984">
   <path id="_426662104" class="fil0" d="M1024 255.999c212.073,0 404.074,85.9631 543.056,224.945 138.982,138.982 224.945,330.983 224.945,543.056 0,212.073 -85.9631,404.074 -224.945,543.056 -138.982,138.982 -330.983,224.945 -543.056,224.945 -212.073,0 -404.074,-85.9631 -543.056,-224.945 -138.982,-138.982 -224.945,-330.983 -224.945,-543.056 0,-212.073 85.9631,-404.074 224.945,-543.056 138.982,-138.982 330.983,-224.945 543.056,-224.945zm0 621.358c80.9883,0 146.642,65.654 146.642,146.642 0,80.9883 -65.654,146.642 -146.642,146.642 -80.9883,0 -146.642,-65.654 -146.642,-146.642 0,-80.9883 65.654,-146.642 146.642,-146.642z"/>
   <path id="_426661864" class="fil1" d="M874.953 467.661c-17.0516,4.55552 -27.1807,22.0736 -22.6252,39.1252 4.55552,17.0516 22.0736,27.1807 39.1252,22.6252 21.9461,-5.88071 43.8839,-10.265 65.6646,-13.1327 21.6177,-2.84528 43.9607,-4.27796 66.8823,-4.27796 141.389,0 269.39,57.3071 362.041,149.958 92.6505,92.6516 149.958,220.653 149.958,362.041 0,17.6728 14.328,32.0008 32.0008,32.0008 17.6728,0 32.0008,-14.328 32.0008,-32.0008 0,-159.054 -64.4741,-303.056 -168.709,-407.292 -104.236,-104.235 -248.237,-168.709 -407.292,-168.709 -24.6189,0 -49.7197,1.68425 -75.1335,5.02914 -25.2484,3.32481 -49.9441,8.20985 -73.9134,14.6327z"/>
  </g>
 </g>
 <rect class="fil2" width="2048" height="2048"/>
</svg>
