<?xml version="1.0" encoding="UTF-8"?>
<!DOCTYPE svg PUBLIC "-//W3C//DTD SVG 1.1//EN" "http://www.w3.org/Graphics/SVG/1.1/DTD/svg11.dtd">
<!-- Creator: CorelDRAW -->
<svg xmlns="http://www.w3.org/2000/svg" xml:space="preserve" width="2048px" height="2048px" style="shape-rendering:geometricPrecision; text-rendering:geometricPrecision; image-rendering:optimizeQuality; fill-rule:evenodd; clip-rule:evenodd"
viewBox="0 0 2048 2048"
 xmlns:xlink="http://www.w3.org/1999/xlink">
 <defs>
  <style type="text/css">
   <![CDATA[
    .fil5 {fill:none}
    .fil4 {fill:#202020}
    .fil2 {fill:#3A3A3A}
    .fil0 {fill:#414141}
    .fil3 {fill:#545454}
    .fil1 {fill:#414141;fill-rule:nonzero}
   ]]>
  </style>
 </defs>
 <g id="Layer_x0020_1">
  <metadata id="CorelCorpID_0Corel-Layer"/>
  <path class="fil0" d="M1343.64 770.101l171.188 0 0 -428.507c0,-22.7776 -9.04843,-44.3622 -25.141,-60.4536 -16.0914,-16.0925 -37.6748,-25.141 -60.4524,-25.141 -22.7776,0 -44.3611,9.04843 -60.4524,25.141 -16.0925,16.0914 -25.1421,37.676 -25.1421,60.4536l0 428.507z"/>
  <path class="fil1" d="M1457.3 1564.49c8.97757,-15.4996 3.68977,-35.3445 -11.8099,-44.3221 -15.4996,-8.97638 -35.3445,-3.68977 -44.3221,11.811 -121.712,208.649 -217.7,218.694 -316.754,160.912 -45.9485,-26.8016 -94.3288,-67.6217 -145.767,-111.02 -132.836,-112.07 -284.925,-240.383 -495.098,-222.869 -17.8854,1.47284 -31.1894,17.1673 -29.7166,35.0528 1.47284,17.8854 17.1662,31.1894 35.0516,29.7166 183.615,-15.2988 324.662,103.697 447.853,207.63 53.6563,45.2693 104.123,87.8481 155.165,117.623 132.328,77.1898 257.164,69.5835 405.398,-184.533z"/>
  <path class="fil2" d="M1247.82 755.115l0 597.064c0,50.2453 14.0575,102.829 44.0103,143.674 25.9524,35.3894 63.652,61.2733 108.654,61.2733l57.5115 0c45.0036,0 82.7009,-25.8827 108.654,-61.2733 29.9528,-40.8449 44.0103,-93.4288 44.0103,-143.674l0 -597.064 -362.841 0z"/>
  <polygon class="fil3" points="1255.59,886.083 1602.88,886.083 1602.88,916.086 1255.59,916.086 "/>
  <polygon class="fil4" points="1514.83,432.192 1514.83,405.697 1343.64,405.697 1343.64,432.192 "/>
 </g>
 <rect class="fil5" width="2048" height="2048"/>
</svg>
