<?xml version="1.0" encoding="UTF-8"?>
<!DOCTYPE svg PUBLIC "-//W3C//DTD SVG 1.1//EN" "http://www.w3.org/Graphics/SVG/1.1/DTD/svg11.dtd">
<!-- Creator: CorelDRAW -->
<svg xmlns="http://www.w3.org/2000/svg" xml:space="preserve" width="2048px" height="2048px" style="shape-rendering:geometricPrecision; text-rendering:geometricPrecision; image-rendering:optimizeQuality; fill-rule:evenodd; clip-rule:evenodd"
viewBox="0 0 2048 2048"
 xmlns:xlink="http://www.w3.org/1999/xlink">
 <defs>
  <style type="text/css">
   <![CDATA[
    .fil8 {fill:none}
    .fil6 {fill:#2D2D2D}
    .fil7 {fill:#3A3A3A}
    .fil3 {fill:#414141}
    .fil1 {fill:#959595}
    .fil2 {fill:#AEAEAF}
    .fil4 {fill:white}
    .fil0 {fill:#474747;fill-rule:nonzero}
    .fil5 {fill:#727272;fill-rule:nonzero}
   ]]>
  </style>
 </defs>
 <g id="Layer_x0020_1">
  <metadata id="CorelCorpID_0Corel-Layer"/>
  <g id="_426671176">
   <path id="_42210000" class="fil0" d="M1704.82 895.873c15.5386,8.31024 34.8756,2.44961 43.1847,-13.089 8.31024,-15.5386 2.44961,-34.8756 -13.089,-43.1847l-974.677 -524.797c-15.5386,-8.31024 -34.8756,-2.44961 -43.1847,13.089 -8.31024,15.5386 -2.44961,34.8756 13.089,43.1847l974.677 524.797z"/>
   <g>
    <path id="_288043672" class="fil1" d="M334.877 847.903l1378.24 0c22.5685,0 42.8079,10.3677 57.2327,27.0709 13.3559,15.4642 21.6461,36.4465 21.6461,59.2099l0 716.51c0,22.7634 -8.29016,43.7457 -21.6461,59.2099 -14.4248,16.7032 -34.6642,27.0709 -57.2327,27.0709l-1378.24 0c-22.5685,0 -42.8079,-10.3677 -57.2327,-27.0709 -13.3559,-15.4642 -21.6461,-36.4465 -21.6461,-59.2099l0 -716.51c0,-22.7634 8.29134,-43.7481 21.6461,-59.2099 14.4225,-16.7032 34.663,-27.0709 57.2327,-27.0709z"/>
    <polygon id="_288043336" class="fil2" points="1792,1312.82 1792,1347.07 255.998,1347.07 255.998,1312.82 "/>
    <polygon id="_426673144" class="fil2" points="400.509,1488.7 1375.59,1488.7 1375.59,1552.7 400.509,1552.7 "/>
    <path id="_426673648" class="fil3" d="M352.029 906.605l1343.94 0c27.5008,0 49.9996,22.5 49.9996,49.9996l0 92.0009c0,27.4996 -22.5,49.9996 -49.9996,49.9996l-1343.94 0c-27.4996,0 -49.9996,-22.4988 -49.9996,-49.9996l0 -92.0009c0,-27.5008 22.4988,-49.9996 49.9996,-49.9996z"/>
    <path id="_426673432" class="fil4" d="M352.029 906.605l1343.94 0c27.5008,0 49.9996,22.5 49.9996,49.9996l0 92.0009c0,27.4996 -22.5,49.9996 -49.9996,49.9996l-1343.94 0c-27.4996,0 -49.9996,-22.4988 -49.9996,-49.9996l0 -92.0009c0,-27.5008 22.4988,-49.9996 49.9996,-49.9996z"/>
    <g>
     <g>
      <polygon id="_426673696" class="fil5" points="448.879,912.982 448.879,1049.87 419.476,1049.87 419.476,912.982 "/>
      <polygon id="_426673816" class="fil5" points="724.549,912.982 724.549,1049.87 695.145,1049.87 695.145,912.982 "/>
      <polygon id="_426673360" class="fil5" points="381.403,912.982 381.403,1004.24 351.999,1004.24 351.999,912.982 "/>
      <polygon id="_426673312" class="fil5" points="517.798,912.982 517.798,1004.24 488.394,1004.24 488.394,912.982 "/>
      <polygon id="_426673672" class="fil5" points="586.712,912.982 586.712,1004.24 557.309,1004.24 557.309,912.982 "/>
      <polygon id="_426672904" class="fil5" points="655.627,912.982 655.627,1004.24 626.224,1004.24 626.224,912.982 "/>
      <polygon id="_426672880" class="fil5" points="778.065,912.982 778.065,1004.24 748.661,1004.24 748.661,912.982 "/>
     </g>
     <g>
      <polygon id="_426672640" class="fil5" points="907.847,912.982 907.847,1049.87 878.443,1049.87 878.443,912.982 "/>
      <polygon id="_426672448" class="fil5" points="1183.52,912.982 1183.52,1049.87 1154.11,1049.87 1154.11,912.982 "/>
      <polygon id="_426672496" class="fil5" points="840.37,912.982 840.37,1004.24 810.967,1004.24 810.967,912.982 "/>
      <polygon id="_426672784" class="fil5" points="976.765,912.982 976.765,1004.24 947.362,1004.24 947.362,912.982 "/>
      <polygon id="_426672688" class="fil5" points="1045.68,912.982 1045.68,1004.24 1016.28,1004.24 1016.28,912.982 "/>
      <polygon id="_426672472" class="fil5" points="1114.59,912.982 1114.59,1004.24 1085.19,1004.24 1085.19,912.982 "/>
      <polygon id="_426672976" class="fil5" points="1237.03,912.982 1237.03,1004.24 1207.63,1004.24 1207.63,912.982 "/>
     </g>
     <g>
      <polygon id="_426671896" class="fil5" points="1366.82,912.982 1366.82,1049.87 1337.41,1049.87 1337.41,912.982 "/>
      <polygon id="_426671704" class="fil5" points="1642.48,912.982 1642.48,1049.87 1613.08,1049.87 1613.08,912.982 "/>
      <polygon id="_426671608" class="fil5" points="1299.34,912.982 1299.34,1004.24 1269.94,1004.24 1269.94,912.982 "/>
      <polygon id="_426672352" class="fil5" points="1435.73,912.982 1435.73,1004.24 1406.33,1004.24 1406.33,912.982 "/>
      <polygon id="_426672040" class="fil5" points="1504.65,912.982 1504.65,1004.24 1475.25,1004.24 1475.25,912.982 "/>
      <polygon id="_426671752" class="fil5" points="1573.56,912.982 1573.56,1004.24 1544.16,1004.24 1544.16,912.982 "/>
      <polygon id="_426672184" class="fil5" points="1696,912.982 1696,1004.24 1666.6,1004.24 1666.6,912.982 "/>
     </g>
    </g>
    <path id="_426671464" class="fil6" d="M1540.37 1390.13c36.0496,0 68.6906,14.6162 92.3198,38.2441 23.6292,23.6292 38.2441,56.2701 38.2441,92.3198 0,36.0496 -14.615,68.6906 -38.2441,92.3198 -23.6292,23.6292 -56.2701,38.2441 -92.3198,38.2441 -36.0496,0 -68.6906,-14.615 -92.3198,-38.2441 -23.628,-23.6292 -38.2441,-56.2701 -38.2441,-92.3198 0,-36.0496 14.6162,-68.6906 38.2441,-92.3198 23.6292,-23.628 56.2701,-38.2441 92.3198,-38.2441z"/>
    <path id="_426671344" class="fil7" d="M1540.37 1416.15c28.865,0 55.0016,11.7036 73.9217,30.6225 18.9201,18.9201 30.6225,45.0567 30.6225,73.9217 0,28.865 -11.7024,55.0016 -30.6225,73.9217 -18.9201,18.9201 -45.0567,30.6225 -73.9217,30.6225 -28.865,0 -55.0016,-11.7024 -73.9217,-30.6225 -18.9189,-18.9201 -30.6225,-45.0567 -30.6225,-73.9217 0,-28.865 11.7036,-55.0016 30.6225,-73.9217 18.9201,-18.9189 45.0567,-30.6225 73.9217,-30.6225z"/>
   </g>
  </g>
 </g>
 <rect class="fil8" width="2048" height="2048"/>
</svg>
