<?xml version="1.0" encoding="UTF-8"?>
<!DOCTYPE svg PUBLIC "-//W3C//DTD SVG 1.1//EN" "http://www.w3.org/Graphics/SVG/1.1/DTD/svg11.dtd">
<!-- Creator: CorelDRAW -->
<svg xmlns="http://www.w3.org/2000/svg" xml:space="preserve" width="2048px" height="2048px" style="shape-rendering:geometricPrecision; text-rendering:geometricPrecision; image-rendering:optimizeQuality; fill-rule:evenodd; clip-rule:evenodd"
viewBox="0 0 2048 2048"
 xmlns:xlink="http://www.w3.org/1999/xlink">
 <defs>
  <style type="text/css">
   <![CDATA[
    .fil4 {fill:none}
    .fil1 {fill:#474747;fill-rule:nonzero}
    .fil0 {fill:#707070;fill-rule:nonzero}
    .fil3 {fill:#868686;fill-rule:nonzero}
    .fil2 {fill:#959595;fill-rule:nonzero}
   ]]>
  </style>
 </defs>
 <g id="Layer_x0020_1">
  <metadata id="CorelCorpID_0Corel-Layer"/>
  <g id="_291144928">
   <g>
    <polygon id="_291138424" class="fil0" points="1077.69,336.728 1077.69,1711.27 970.307,1711.27 970.307,336.728 "/>
    <polygon id="_291138496" class="fil1" points="1077.69,623.091 1077.69,1424.91 970.307,1424.91 970.307,623.091 "/>
   </g>
   <g>
    <g>
     <g>
      <polygon id="_291138400" class="fil2" points="1255.07,479.908 1255.07,1568.09 1147.68,1568.09 1147.68,479.908 "/>
      <polygon id="_291138568" class="fil3" points="1255.07,701.235 1255.07,1346.76 1147.68,1346.76 1147.68,701.235 "/>
     </g>
     <g>
      <polygon id="_291146032" class="fil0" points="1419.73,643.773 1419.73,1404.23 1312.34,1404.23 1312.34,643.773 "/>
      <polygon id="_291146176" class="fil1" points="1419.73,797.007 1419.73,1250.99 1312.34,1250.99 1312.34,797.007 "/>
     </g>
     <g>
      <polygon id="_291146344" class="fil2" points="1598.01,737.636 1598.01,1310.36 1490.62,1310.36 1490.62,737.636 "/>
      <polygon id="_291145984" class="fil3" points="1598.01,854.123 1598.01,1193.88 1490.62,1193.88 1490.62,854.123 "/>
     </g>
     <g>
      <polygon id="_291145216" class="fil0" points="1792,823.544 1792,1224.46 1684.61,1224.46 1684.61,823.544 "/>
      <polygon id="_291145192" class="fil1" points="1792,905.087 1792,1142.91 1684.61,1142.91 1684.61,905.087 "/>
     </g>
    </g>
    <g>
     <g>
      <polygon id="_291145264" class="fil2" points="792.931,479.908 792.931,1568.09 900.317,1568.09 900.317,479.908 "/>
      <polygon id="_291145360" class="fil3" points="792.931,701.235 792.931,1346.76 900.317,1346.76 900.317,701.235 "/>
     </g>
     <g>
      <polygon id="_291145888" class="fil0" points="628.271,643.773 628.271,1404.23 735.658,1404.23 735.658,643.773 "/>
      <polygon id="_291145480" class="fil1" points="628.271,797.007 628.271,1250.99 735.658,1250.99 735.658,797.007 "/>
     </g>
     <g>
      <polygon id="_291145384" class="fil2" points="449.991,737.636 449.991,1310.36 557.377,1310.36 557.377,737.636 "/>
      <polygon id="_291145648" class="fil3" points="449.991,854.123 449.991,1193.88 557.377,1193.88 557.377,854.123 "/>
     </g>
     <g>
      <polygon id="_291144640" class="fil0" points="255.999,823.544 255.999,1224.46 363.385,1224.46 363.385,823.544 "/>
      <polygon id="_291144712" class="fil1" points="255.999,905.087 255.999,1142.91 363.385,1142.91 363.385,905.087 "/>
     </g>
    </g>
   </g>
  </g>
 </g>
 <rect class="fil4" width="2048" height="2048"/>
</svg>
