<?xml version="1.0" encoding="UTF-8"?>
<!DOCTYPE svg PUBLIC "-//W3C//DTD SVG 1.1//EN" "http://www.w3.org/Graphics/SVG/1.1/DTD/svg11.dtd">
<!-- Creator: CorelDRAW -->
<svg xmlns="http://www.w3.org/2000/svg" xml:space="preserve" width="2048px" height="2048px" style="shape-rendering:geometricPrecision; text-rendering:geometricPrecision; image-rendering:optimizeQuality; fill-rule:evenodd; clip-rule:evenodd"
viewBox="0 0 2048 2048"
 xmlns:xlink="http://www.w3.org/1999/xlink">
 <defs>
  <style type="text/css">
   <![CDATA[
    .fil14 {fill:none}
    .fil8 {fill:#393939}
    .fil3 {fill:#414141}
    .fil9 {fill:#818181}
    .fil5 {fill:#858585}
    .fil0 {fill:#888888}
    .fil12 {fill:#8C8D8D}
    .fil13 {fill:#919191}
    .fil6 {fill:#B8B8B8}
    .fil4 {fill:#BBBBBC}
    .fil7 {fill:#BFC0C0}
    .fil10 {fill:#C2C2C2}
    .fil2 {fill:#DDDDDE}
    .fil1 {fill:#E7E7E7}
    .fil11 {fill:#474747;fill-rule:nonzero}
   ]]>
  </style>
 </defs>
 <g id="Layer_x0020_1">
  <metadata id="CorelCorpID_0Corel-Layer"/>
  <g id="_291144256">
   <path id="_426631824" class="fil0" d="M625.459 1558.95l9.39804 199.262 783.579 0 10.3382 -193.298 78.7749 193.298 284.45 0c-64.2922,-196.011 -107.58,-382.901 -220.703,-474.101 -312.486,-251.933 -705.79,-268.723 -1099.2,-26.4331 -126.027,77.615 -154.988,288.502 -216.097,500.534l288.258 0 81.202 -199.262z"/>
   <path id="_426631944" class="fil1" d="M1163.2 1209.53c0,0 -40.9548,135.593 -138.01,134.608 -93.156,-0.943702 -124.859,-134.606 -124.859,-134.606l0 -246.779 262.869 0 0 246.776z"/>
   <path id="_426632016" class="fil2" d="M1163.2 1083.75l0 -120.992 -262.869 0 0 112.37c74.1579,51.4075 178.668,50.2323 262.869,8.62205z"/>
   <path id="_426631464" class="fil1" d="M1260.21 741.863c19.826,-167.388 29.2394,-318.97 -231.112,-318.97 -264.989,-0.022441 -262.234,134.317 -238.299,308.261 -85.232,-33.4819 -17.7059,154.947 20.9799,120.738 0.65315,3.33544 1.31339,6.74882 1.95827,10.037 4.98898,25.4303 3.92717,46.904 13.7516,71.3469 8.76261,21.8043 78.7312,90.4961 103.913,110.434 38.2772,30.3 56.1591,25.9725 108.731,25.9725 67.9099,0 81.7583,-19.7162 99.1631,-38.2323 11.7945,-12.5528 88.2627,-90.1784 91.2591,-105.441 3.66024,-18.6662 12.391,-59.3445 15.9012,-82.1859 31.8425,78.0048 131.804,-195.247 13.7539,-101.961z"/>
   <path id="_426631728" class="fil3" d="M1231.4 771.369c47.0575,-12.587 34.8,-115.605 51.4406,-158.441 0,-68.3256 -1.96417,-110.733 -50.4993,-161.929 -59.6233,-62.8961 -160.939,-59.2689 -242.346,-59.2689 -35.4851,0 -63.58,0.787796 -93.1784,15.339 -41.9292,20.6162 -63.0083,3.763 -87.189,45.3992 -41.3823,65.5075 -42.737,280.199 23.6988,321.568 37.5815,-403.64 -129.47,-87.0343 259.741,-147.362 147.651,-22.8898 144.395,-8.16024 138.332,144.695z"/>
   <polygon id="_426631896" class="fil4" points="1472.54,1171.95 1473.95,1159.91 1472.54,1171.95 "/>
   <path id="_426631848" class="fil5" d="M1124.96 1285.33l-0.00590552 0c26.2855,-36.2327 38.2441,-75.7997 38.2441,-75.7997l0 -49.6252 0 49.6229c0,0 -11.9504,39.5693 -38.2382,75.802z"/>
   <path id="_426631968" class="fil6" d="M1033.54 1114.37c-2.80866,0 -5.60906,-0.0413386 -8.41182,-0.133465l0 -44.4945 0 44.4685c2.8063,0.0850394 5.62559,0.129921 8.44253,0.129921 43.3323,-0.0011811 87.5422,-10.2354 127.363,-29.4851 -39.8339,19.2543 -84.0461,29.5158 -127.394,29.5146z"/>
   <path id="_426631296" class="fil7" d="M1160.93 1084.86c0.759449,-0.36378 1.51536,-0.741733 2.27362,-1.1126l0 0c-0.757087,0.376772 -1.51654,0.748819 -2.27362,1.1126z"/>
   <path id="_426631656" class="fil7" d="M1039.88 1069.64c0.0838583,0 0.165354,0 0.250394,0 -0.080315,0 -0.173622,0 -0.250394,0z"/>
   <path id="_426631632" class="fil6" d="M1025.12 1069.75l0 0c4.60748,-0.0543308 9.50906,-0.111024 14.752,-0.111024 -5.27008,0 -10.1221,0.056693 -14.752,0.111024z"/>
   <path id="_426664384" class="fil8" d="M1231.56 686.291c-9.09568,-26.2288 0.660237,-65.967 -0.399213,-93.8646 -0.961418,-25.5721 -0.418111,-56.1922 -8.86772,-81.3012 8.44961,25.1091 7.90631,55.7292 8.87481,81.3012 1.05236,27.8977 -8.70355,67.6382 0.390945,93.8658 12.5091,-4.83426 22.0677,-11.2559 29.3315,-18.9012l0 0c-7.26379,7.64528 -16.8225,14.0669 -29.3315,18.9012l0.0011811 -0.0011811zm-12.4949 -183.461c-0.0625985,-0.137008 -0.129921,-0.283465 -0.193701,-0.425197 0.0649607,0.141732 0.129921,0.288189 0.193701,0.426378l0 -0.0011811zm-0.392126 -0.858662c-10.9772,-23.974 -25.1067,-31.2733 -41.6859,-31.2839 16.5803,0.00826772 30.7028,7.30158 41.6859,31.2839zm-193.545 -3.24449l0 -208.943 0 208.912c33.678,-2.25355 67.2201,-8.18268 98.7083,-16.4079 -31.487,8.2252 -65.0304,14.1874 -98.7083,16.4386zm98.9257 -16.5c0.0708662,-0.0153543 0.135827,-0.0307087 0.205512,-0.0531496 -0.0696851,0.022441 -0.135827,0.0389764 -0.205512,0.0531496zm0.464174 -0.124016c0.0519685,-0.00944883 0.109843,-0.0259843 0.166536,-0.0425197 -0.056693,0.0165354 -0.114567,0.0330709 -0.167717,0.0425197l0.0011811 0zm0.590552 -0.147638c0.188977,-0.0543308 0.376772,-0.102756 0.559843,-0.151181 -0.18189,0.0484252 -0.373229,0.0968505 -0.561024,0.151181l0.0011811 0zm0.843308 -0.230315c0.0555119,-0.0106299 0.10748,-0.0236221 0.161811,-0.0401575 -0.0531496,0.0165354 -0.106299,0.0295276 -0.161811,0.0425197l0 -0.00236221zm3.78662 -1.02402c0.0165354,-0.00590552 0.034252,-0.0106299 0.0484252,-0.0106299 -0.0141732,0 -0.0318898,0.00472441 -0.0496063,0.0106299l0.0011811 0zm0.396851 -0.109843c0.0543308,-0.0165354 0.119291,-0.0307087 0.177165,-0.046063 -0.0555119,0.0129921 -0.122835,0.0307087 -0.178347,0.0484252l0.0011811 -0.00236221zm0.359055 -0.102756c0.111024,-0.022441 0.220866,-0.0543308 0.337796,-0.0885827 -0.114567,0.0318898 -0.227953,0.0661418 -0.34252,0.090945l0.00472441 -0.00236221zm0.474804 -0.126378c0.0826772,-0.0212599 0.162992,-0.0425197 0.236221,-0.0708662 -0.0732284,0.0283465 -0.154725,0.0496063 -0.236221,0.0708662zm45.926 -9.6756c0.0200788,0 0.0437008,0.0011811 0.0602363,0.0011811l0 -0.0011811c-0.0153543,0 -0.0401575,0.0011811 -0.0602363,0z"/>
   <path id="_291138880" class="fil9" d="M1218.87 502.405c-0.0625985,-0.146457 -0.127559,-0.28937 -0.198425,-0.433465 0.0708662,0.144095 0.135827,0.28937 0.198425,0.433465zm-95.0304 -20.1166c0.0744095,-0.022441 0.135827,-0.0389764 0.212599,-0.0614174 -0.0708662,0.022441 -0.146457,0.0389764 -0.217323,0.0614174l0.00472441 0zm0.418111 -0.115748c0.0874016,-0.0212599 0.170079,-0.0413386 0.257481,-0.0696851 -0.0862205,0.0259843 -0.173622,0.0496063 -0.257481,0.0708662l0 -0.0011811zm0.425197 -0.112205c0.144095,-0.0377953 0.284646,-0.0708662 0.422835,-0.105118l0.0011811 0c-0.13937,0.0295276 -0.284646,0.0673229 -0.424016,0.105118zm0.98504 -0.258662c0.0968505,-0.0283465 0.193701,-0.046063 0.282284,-0.0744095 -0.0885827,0.0271654 -0.187795,0.0496063 -0.283465,0.0767717l0.0011811 -0.00236221zm0.444095 -0.116929c1.21536,-0.324803 2.4189,-0.649607 3.62362,-0.983859 -1.20236,0.334252 -2.40827,0.661418 -3.62362,0.983859zm3.67323 -0.994489c0.119291,-0.034252 0.232677,-0.0649607 0.347244,-0.0968505 -0.114567,0.0307087 -0.227953,0.0625985 -0.347244,0.0968505zm0.527953 -0.145276c0.0602363,-0.0177165 0.11811,-0.0389764 0.174803,-0.0543308 -0.0555119,0.0153543 -0.114567,0.0366142 -0.177165,0.0543308l0.00236221 0zm0.517323 -0.146457c0.0484252,-0.00944883 0.0885827,-0.0259843 0.137008,-0.0366142 -0.0472441,0.00944883 -0.0885827,0.0283465 -0.137008,0.0377953l0 -0.0011811zm0.37441 -0.10748c16.6465,-4.6252 32.0008,-9.58938 45.6886,-9.60355 -13.6878,0.0129921 -29.0481,4.97835 -45.6898,9.60355l0.0011811 0zm45.7819 -9.60473c-0.0106299,0 -0.0200788,0.0011811 -0.0330709,0.0011811l0 -0.0011811c0.0141732,0 0.0200788,0.0011811 0.0330709,0z"/>
   <path id="_291144160" class="fil10" d="M1528.88 1758.22l0 -452.268c0,-10.011 -7.1315,-18.3496 -16.5874,-20.2229 9.45827,1.87323 16.5874,10.213 16.5874,20.2229l0 452.268z"/>
  </g>
  <path class="fil11" d="M672.001 880.218l0 -280.308c0,-94.5969 37.2591,-180.581 97.2828,-242.903 60.0248,-62.3221 142.84,-101.008 233.949,-101.008l41.5359 0c91.1091,0 173.923,38.6859 233.948,101.008 60.0248,62.3233 97.2839,148.308 97.2839,242.903l0 280.308 -39.4571 0 0 -280.308c0,-83.2867 -32.8323,-159.02 -85.7245,-213.938 -52.8933,-54.9166 -125.832,-89.0044 -206.051,-89.0044l-41.5359 0c-80.2182,0 -153.158,34.0878 -206.051,89.0044 -52.8922,54.9166 -85.7245,130.65 -85.7245,213.938l0 280.308 -39.4571 0z"/>
  <path class="fil3" d="M1261.36 671.999l73.9146 0c22.3595,0 40.6536,15.5587 40.6536,34.5721l0 97.428c0,19.0134 -18.2965,34.5721 -40.6536,34.5721l-73.9146 0 0 -166.572z"/>
  <path class="fil12" d="M1280 631.688l80.7083 0c24.4158,0 44.3918,23.0894 44.3918,51.3048l0 144.585c0,28.2154 -19.9784,51.3048 -44.3918,51.3048l-80.7083 0 0 -247.194z"/>
  <path class="fil13" d="M1344 631.688l16.7079 0c24.4158,0 44.3918,23.0906 44.3918,51.3048l0 144.585c0,28.2142 -19.9784,51.3048 -44.3918,51.3048l-16.7079 0 0 -247.194z"/>
  <g id="_291142936">
   <path id="_291143272" class="fil3" d="M758.701 671.999l-73.9146 0c-22.3595,0 -40.6536,15.5587 -40.6536,34.5721l0 97.428c0,19.0134 18.2965,34.5721 40.6536,34.5721l73.9146 0 0 -166.572z"/>
   <path id="_291143056" class="fil12" d="M740.058 631.688l-80.7083 0c-24.4158,0 -44.3918,23.0894 -44.3918,51.3048l0 144.585c0,28.2154 19.9784,51.3048 44.3918,51.3048l80.7083 0 0 -247.194z"/>
  </g>
  <path class="fil13" d="M676.058 631.688l-16.7079 0c-24.4158,0 -44.3918,23.0906 -44.3918,51.3048l0 144.585c0,28.2142 19.9784,51.3048 44.3918,51.3048l16.7079 0 0 -247.194z"/>
 </g>
 <rect class="fil14" width="2048" height="2048"/>
</svg>
