<?xml version="1.0" encoding="UTF-8"?>
<!DOCTYPE svg PUBLIC "-//W3C//DTD SVG 1.1//EN" "http://www.w3.org/Graphics/SVG/1.1/DTD/svg11.dtd">
<!-- Creator: CorelDRAW -->
<svg xmlns="http://www.w3.org/2000/svg" xml:space="preserve" width="2048px" height="2048px" style="shape-rendering:geometricPrecision; text-rendering:geometricPrecision; image-rendering:optimizeQuality; fill-rule:evenodd; clip-rule:evenodd"
viewBox="0 0 2048 2048"
 xmlns:xlink="http://www.w3.org/1999/xlink">
 <defs>
  <style type="text/css">
   <![CDATA[
    .fil5 {fill:none}
    .fil0 {fill:#202020}
    .fil4 {fill:#545454}
    .fil2 {fill:#838383}
    .fil1 {fill:#C4C4C4}
    .fil6 {fill:#202020;fill-rule:nonzero}
    .fil3 {fill:#414141;fill-rule:nonzero}
   ]]>
  </style>
 </defs>
 <g id="Layer_x0020_1">
  <metadata id="CorelCorpID_0Corel-Layer"/>
  <rect class="fil0" x="1091.52" y="1428.17" width="348.483" height="235.826"/>
  <circle class="fil0" cx="1152" cy="1280" r="160.001"/>
  <polygon class="fil1" points="799.94,557.252 1056.68,1007.95 950.097,1068.67 693.353,617.97 "/>
  <path class="fil2" d="M1403.08 1739.9l0 0zm-320.349 -562.419c29.7484,-16.9441 63.5835,-20.2193 94.2355,-11.8158 30.7193,8.42127 58.2142,28.5378 75.1938,58.3441 16.9441,29.7484 20.2205,63.5823 11.8158,94.2355 -8.42127,30.7193 -28.5378,58.2142 -58.3441,75.1938 -29.7449,16.9441 -63.5835,20.2193 -94.2355,11.8169 -30.7205,-8.42245 -58.213,-28.5378 -75.1938,-58.3453 -16.9441,-29.7449 -20.2193,-63.5835 -11.8169,-94.2355 8.42363,-30.7205 28.5378,-58.213 58.3453,-75.1938zm100.342 397.263l190.112 -108.299 27.0933 47.5607 -190.112 108.3 -27.0933 -47.5618zm-23.7496 -344.299c-14.0823,-3.85985 -29.667,-2.33386 -43.4115,5.49567 -13.6843,7.79528 -22.9028,20.3622 -26.7461,34.3772 -3.85985,14.0823 -2.33268,29.667 5.49685,43.4115 7.7941,13.6831 20.3622,22.9028 34.3784,26.7461 14.0811,3.85985 29.6658,2.33268 43.4103,-5.49685 13.6831,-7.7941 22.9028,-20.3634 26.7449,-34.3772 3.85985,-14.0823 2.33386,-29.667 -5.49567,-43.4115 -7.7941,-13.6831 -20.3634,-22.9028 -34.3772,-26.7449zm-183.885 409.791l0 0zm318.787 -596.706c13.9453,24.4795 16.0228,40.3878 18.3083,57.8918 1.83662,14.0705 3.87992,29.7142 20.2925,58.526 9.11694,16.0039 29.3634,24.5977 53.0823,34.6642 46.2201,19.6158 102.031,43.3028 149.552,126.725 42.0697,73.8532 54.4666,156.475 29.4685,234.294 -22.3807,69.6768 -74.4981,134.509 -161.849,184.269 -91.9867,52.4008 -178.39,62.6658 -252.259,42.4146 -74.6292,-20.4603 -135.311,-71.7319 -175.383,-142.078 -47.4544,-83.3068 -39.3662,-143.417 -32.6693,-193.195 3.43229,-25.5142 6.36378,-47.2902 -2.81929,-63.4087 -16.376,-28.7492 -28.7528,-38.4579 -39.8835,-47.1863 -13.9276,-10.9228 -26.5831,-20.8512 -40.5638,-45.3933 -28.089,-49.3075 -24.9555,-96.1749 -7.11969,-137.484 16.2709,-37.6819 45.1359,-69.7182 72.2493,-93.7772l5.66221 -4.08189 125.424 -71.4497 6.3189 -2.76496c34.3689,-11.002 76.5367,-19.4457 117.373,-14.2075 44.7437,5.73662 86.7355,26.9492 114.815,76.2426z"/>
  <path class="fil3" d="M743.623 321.695c8.03386,-4.65237 10.7752,-14.9398 6.12166,-22.9748 -4.65237,-8.03386 -14.9398,-10.7752 -22.9748,-6.12166l-238.381 137.63c-8.03386,4.65237 -10.7752,14.9398 -6.12166,22.9736 4.65237,8.03505 14.9398,10.7752 22.9748,6.12284l238.381 -137.63zm91.3631 154.193c8.03505,-4.65355 10.7752,-14.941 6.12284,-22.9748 -4.65355,-8.03386 -14.941,-10.7752 -22.9748,-6.12166l-238.382 137.629c-8.03386,4.65355 -10.774,14.941 -6.12166,22.9748 4.65237,8.03386 14.9398,10.7752 22.9748,6.12166l238.381 -137.629zm-32.5406 -51.3981c8.03505,-4.65355 10.7752,-14.941 6.12284,-22.9748 -4.65355,-8.03505 -14.941,-10.7752 -22.9748,-6.12284l-238.381 137.63c-8.03505,4.65237 -10.7752,14.9398 -6.12284,22.9748 4.65355,8.03386 14.941,10.7752 22.9748,6.12166l238.381 -137.629zm-28.1858 -51.3981c8.03505,-4.65237 10.7752,-14.9398 6.12284,-22.9736 -4.65355,-8.03505 -14.941,-10.7752 -22.9748,-6.12284l-238.382 137.63c-8.03386,4.65237 -10.774,14.9398 -6.12166,22.9748 4.65237,8.03386 14.9398,10.774 22.9748,6.12166l238.381 -137.63z"/>
  <polygon class="fil4" points="507.878,370.49 511.066,376.088 661.406,639.999 667.004,636.808 827.62,545.311 824.431,539.711 674.091,275.803 668.491,278.992 "/>
  <path class="fil5" d="M566.543 336.451l519.997 889.215m-472.32 -916.376l508.923 876.433m-530.828 -862.666l512.527 882.637"/>
  <path class="fil6" d="M570.84 333.932l586.503 1009.67 -8.59371 5.03859 -586.503 -1009.67 8.59371 -5.03859zm47.6977 -27.1418l578.302 1007.61 -8.63386 5.00079 -578.302 -1007.61 8.63386 -5.00079zm-21.9047 13.7669l581.906 1013.81 -8.63386 5.00079 -581.906 -1013.81 8.63386 -5.00079z"/>
 </g>
 <rect class="fil5" width="2048" height="2048"/>
</svg>
