<?xml version="1.0" encoding="UTF-8"?>
<!DOCTYPE svg PUBLIC "-//W3C//DTD SVG 1.1//EN" "http://www.w3.org/Graphics/SVG/1.1/DTD/svg11.dtd">
<!-- Creator: CorelDRAW -->
<svg xmlns="http://www.w3.org/2000/svg" xml:space="preserve" width="2048px" height="2048px" style="shape-rendering:geometricPrecision; text-rendering:geometricPrecision; image-rendering:optimizeQuality; fill-rule:evenodd; clip-rule:evenodd"
viewBox="0 0 2048 2048"
 xmlns:xlink="http://www.w3.org/1999/xlink">
 <defs>
  <style type="text/css">
   <![CDATA[
    .fil5 {fill:none}
    .fil4 {fill:#2A2A2A}
    .fil1 {fill:#A0A0A0}
    .fil3 {fill:#A7A7A7}
    .fil2 {fill:#BCBCBC}
    .fil0 {fill:#A0A0A0;fill-rule:nonzero}
   ]]>
  </style>
 </defs>
 <g id="Layer_x0020_1">
  <metadata id="CorelCorpID_0Corel-Layer"/>
  <path class="fil0" d="M506.641 571.369c131.015,-196.247 244.598,-121.064 380.938,27.8858 12.9685,14.1662 24.6012,26.8784 33.9886,36.3355l0.872835 1.01339 304.453 420.731 -13.7693 9.99804 -304.097 -420.238c-9.83623,-9.94489 -21.2705,-22.4386 -33.9922,-36.3343 -128.164,-140.022 -229.389,-216.865 -354.199,-29.9126l-14.1945 -9.47953z"/>
  <polygon class="fil1" points="1600,1370.59 1576.67,1374.44 1197.57,950.648 1162.22,982.093 1175.27,995.852 1200.7,973.223 1575.31,1391.99 1608.21,1386.56 "/>
  <polygon class="fil1" points="961.791,854.161 924.783,878.111 1053.06,1050.37 1088.76,1031.48 1079.88,1014.71 1058.56,1026 952.099,883.028 972.1,870.09 "/>
  <polygon class="fil1" points="1284.64,1282.9 1247.21,1301.6 1394.71,1482.29 1432.19,1453.11 1420.53,1438.14 1397.68,1455.94 1276.9,1307.98 1293.12,1299.86 "/>
  <path class="fil2" d="M452.179 622.348c0,0 137.495,-63.7146 199.536,-65.3918 62.0398,-1.67717 88.8674,41.9197 130.787,93.8989 41.9185,51.9792 548.299,705.915 600.278,767.956 51.9804,62.0386 179.414,199.534 290.08,172.706 110.666,-26.8288 164.322,-154.262 72.1004,-273.311 -78.4749,-101.302 -177.737,-231.393 -199.534,-293.433 -21.7973,-62.0422 -23.2843,-97.0607 15.1843,-122.309 38.4733,-25.2473 -43.6902,-40.337 -144.294,-30.2764 -100.605,10.0606 -171.03,36.8894 -117.372,53.6563 53.6563,16.7669 53.2323,57.5528 67.0689,93.8977 98.9292,259.898 288.403,375.594 261.574,399.07 -26.8276,23.4732 -50.8323,-2.82402 -115.123,-69.3213 -64.2898,-66.4973 -253.884,-292.98 -315.864,-361.667 -61.9796,-68.6859 -226.301,-246.423 -284.988,-308.462 -58.6855,-62.0434 -118.171,-124.879 -169.752,-156.339 -51.5788,-31.4599 -91.8225,-18.0449 -148.832,5.42953 -57.0095,23.4744 -152.586,62.0398 -152.586,62.0398l11.7366 31.8567z"/>
  <path class="fil3" d="M1714.94 1279.3c-71.9221,-93.6709 -150.423,-200.198 -169.513,-254.53 -21.7973,-62.0422 -23.2843,-97.0607 15.1843,-122.309 38.4733,-25.2473 -43.6902,-40.337 -144.294,-30.2764 -100.605,10.0606 -171.03,36.8894 -117.372,53.6563 53.6563,16.7669 53.2323,57.5528 67.0689,93.8977 29.7378,78.1229 67.656,143.201 105.422,196.676 76.7871,47.8713 162.904,69.2233 243.505,62.8855z"/>
  <path class="fil4" d="M447.107 587.796l-51.3756 14.9929 -8.94331 -2.23937 -68.1922 30.1819 -5.58544 19.0004 -57.0107 50.3032c0,0 35.0173,7.62166 74.8985,-5.58308 53.4792,-17.7118 83.8371,-36.8894 83.8371,-36.8894l6.70276 -8.94568 36.7347 -28.9937c0,0 -18.2858,-11.8075 -11.0658,-31.8272z"/>
  <path class="fil1" d="M1008.27 752.546c7.40434,7.40434 7.40552,19.4173 0.0011811,26.8217 -7.40434,7.40197 -19.4162,7.40552 -26.8205,0.0011811 -7.40434,-7.40788 -7.40552,-19.4173 0,-26.8229 7.40434,-7.40434 19.4162,-7.40434 26.8193,0z"/>
  <path class="fil1" d="M1072.63 824.293c9.4441,9.44528 9.43938,24.7547 0,34.1941 -9.44174,9.44174 -24.7524,9.44765 -34.1953,0.00472441 -9.4441,-9.44528 -9.44056,-24.7536 0.00236221,-34.1965 9.44056,-9.44056 24.75,-9.44292 34.1929,-0.00236221z"/>
  <path class="fil1" d="M1194.19 961.598c9.17009,9.17127 9.15946,24.0366 -0.00590552,33.202 -9.16418,9.16418 -24.0307,9.17481 -33.2008,0.00472441 -9.16772,-9.16772 -9.15946,-24.0343 0.00590552,-33.1996 9.16418,-9.16654 24.0319,-9.17363 33.2008,-0.00708662z"/>
  <path class="fil1" d="M1273.29 1050.53c10.5284,10.5284 10.5213,27.5941 -0.00590552,38.1201 -10.5248,10.5248 -27.5894,10.5343 -38.1177,0.00590552 -10.5295,-10.5307 -10.5213,-27.5929 0.00472441,-38.1189 10.526,-10.5284 27.5906,-10.5343 38.1189,-0.00708662z"/>
  <path class="fil1" d="M1430.14 1203.93c15.5539,15.5539 15.5398,40.774 -0.0106299,56.3245 -15.5492,15.548 -40.7646,15.5599 -56.3185,0.00590552 -15.5528,-15.5551 -15.5433,-40.7681 0.00708662,-56.3185 15.5492,-15.5516 40.7681,-15.5646 56.3221,-0.011811z"/>
  <path class="fil1" d="M1513.56 1294.74c17.5914,17.5914 17.5748,46.1079 -0.011811,63.6945 -17.5843,17.5843 -46.0996,17.6032 -63.6934,0.00944883 -17.5914,-17.5937 -17.5748,-46.1067 0.0106299,-63.6934 17.5866,-17.5854 46.1008,-17.6032 63.6945,-0.0106299z"/>
  <path class="fil1" d="M1345.04 1131.29c12.1146,12.1134 12.1039,31.7575 -0.00826772,43.8685 -12.1099,12.111 -31.7504,12.1193 -43.8638,0.00472441 -12.1134,-12.1146 -12.1063,-31.7528 0.00472441,-43.8638 12.111,-12.1134 31.7528,-12.1228 43.8674,-0.00944883z"/>
  <path class="fil1" d="M1140.64 892.307c9.4441,9.44528 9.43938,24.7547 -0.0011811,34.1941 -9.44056,9.44174 -24.7512,9.44765 -34.1941,0.00472441 -9.4441,-9.44528 -9.44056,-24.7536 0.00236221,-34.1965 9.44056,-9.44056 24.75,-9.44292 34.1929,-0.00236221z"/>
 </g>
 <rect class="fil5" width="2048" height="2048"/>
</svg>
