<?xml version="1.0" encoding="UTF-8"?>
<!DOCTYPE svg PUBLIC "-//W3C//DTD SVG 1.1//EN" "http://www.w3.org/Graphics/SVG/1.1/DTD/svg11.dtd">
<!-- Creator: CorelDRAW -->
<svg xmlns="http://www.w3.org/2000/svg" xml:space="preserve" width="2048px" height="2048px" style="shape-rendering:geometricPrecision; text-rendering:geometricPrecision; image-rendering:optimizeQuality; fill-rule:evenodd; clip-rule:evenodd"
viewBox="0 0 2048 2048"
 xmlns:xlink="http://www.w3.org/1999/xlink">
 <defs>
  <style type="text/css">
   <![CDATA[
    .fil2 {fill:none}
    .fil1 {fill:#202020}
    .fil0 {fill:#A0A0A0}
   ]]>
  </style>
 </defs>
 <g id="Layer_x0020_1">
  <metadata id="CorelCorpID_0Corel-Layer"/>
  <polygon class="fil0" points="287.999,445.349 1760,445.349 1792,445.349 1792,477.35 1792,1570.65 1792,1602.65 1760,1602.65 287.999,1602.65 255.998,1602.65 255.998,1570.65 255.998,477.35 255.998,445.349 "/>
  <polygon class="fil1" points="1250.4,478.675 1383.95,478.675 1415.95,478.675 1415.95,509.691 1415.95,1144.36 1415.95,1175.37 1383.95,1175.37 1349.18,1175.37 1349.18,1569.33 1285.18,1569.33 1285.18,1175.37 1250.4,1175.37 1218.4,1175.37 1218.4,1144.36 1218.4,509.691 1218.4,478.675 "/>
  <polygon class="fil1" points="957.225,478.675 1090.77,478.675 1122.78,478.675 1122.78,509.691 1122.78,1144.36 1122.78,1175.37 1090.77,1175.37 1056,1175.37 1056,1569.33 991.999,1569.33 991.999,1175.37 957.225,1175.37 925.224,1175.37 925.224,1144.36 925.224,509.691 925.224,478.675 "/>
  <polygon class="fil1" points="664.049,478.675 797.599,478.675 829.6,478.675 829.6,509.691 829.6,1144.36 829.6,1175.37 797.599,1175.37 762.825,1175.37 762.825,1569.33 698.823,1569.33 698.823,1175.37 664.049,1175.37 632.049,1175.37 632.049,1144.36 632.049,509.691 632.049,478.675 "/>
  <polygon class="fil1" points="370.874,478.675 504.423,478.675 536.424,478.675 536.424,509.691 536.424,1144.36 536.424,1175.37 504.423,1175.37 469.649,1175.37 469.649,1569.33 405.648,1569.33 405.648,1175.37 370.874,1175.37 338.873,1175.37 338.873,1144.36 338.873,509.691 338.873,478.675 "/>
  <polygon class="fil1" points="1543.58,478.675 1677.13,478.675 1709.13,478.675 1709.13,509.691 1709.13,1144.36 1709.13,1175.37 1677.13,1175.37 1642.35,1175.37 1642.35,1569.33 1578.35,1569.33 1578.35,1175.37 1543.58,1175.37 1511.58,1175.37 1511.58,1144.36 1511.58,509.691 1511.58,478.675 "/>
 </g>
 <rect class="fil2" width="2048" height="2048"/>
</svg>
