<?xml version="1.0" encoding="iso-8859-1"?>
<!-- Uploaded to: SVG Repo, www.svgrepo.com, Generator: SVG Repo Mixer Tools -->
<svg fill="#000000" height="800px" width="800px" version="1.1" id="Layer_1" xmlns="http://www.w3.org/2000/svg" xmlns:xlink="http://www.w3.org/1999/xlink" 
	 viewBox="0 0 512.001 512.001" xml:space="preserve">
<g>
	<g>
		<path d="M341.952,72.576L184.343,1.531c-5.363-2.418-11.586-1.95-16.526,1.243c-4.94,3.192-7.924,8.672-7.924,14.555V222.05
			c-1.703-0.032-3.426,0.055-5.15,0.274l-75.26,9.597c-10.468,1.368-20.309,5.568-28.465,12.153
			c-24.38,19.688-28.2,55.541-8.513,79.922c19.688,24.38,55.54,28.198,79.921,8.512l59.025-47.661
			c8.124-6.598,12.897-16.361,13.096-26.788c0.002-0.11,0.003-0.218,0.003-0.329V113.135l120.672,55.133
			c0.75,0.342,1.512,0.607,2.28,0.834v123.991c-1.704-0.03-3.425,0.055-5.15,0.274l-75.26,9.597
			c-10.469,1.368-20.31,5.568-28.465,12.153c-24.38,19.688-28.2,55.541-8.513,79.922c11.215,13.887,27.675,21.105,44.271,21.104
			c12.539,0,25.157-4.118,35.65-12.591l59.024-47.661c8.125-6.596,12.898-16.361,13.096-26.788c0.002-0.11,0.003-0.218,0.003-0.329
			V88.374C352.16,81.559,348.165,75.376,341.952,72.576z M159.893,257.447c-0.022,0.198-0.154,0.386-0.252,0.466l-58.987,47.63
			c-9.513,7.682-23.503,6.192-31.185-3.321c-7.681-9.512-6.191-23.502,3.32-31.184c3.182-2.569,7.048-4.212,11.128-4.743
			l75.208-9.59c0.032-0.005,0.065-0.007,0.095-0.007c0.408,0,0.596,0.354,0.603,0.369c0.023,0.044,0.046,0.088,0.069,0.132V257.447z
			 M317.502,131.208L196.83,76.074c-0.749-0.342-1.512-0.605-2.28-0.834V44.148l122.953,55.423V131.208z M317.251,328.957
			l-58.988,47.63c-9.512,7.681-23.502,6.192-31.185-3.321c-7.681-9.512-6.191-23.502,3.321-31.184
			c3.182-2.569,7.047-4.212,11.127-4.743l75.208-9.59c0.032-0.005,0.065-0.007,0.095-0.007c0.408,0,0.596,0.354,0.603,0.369
			c0.023,0.044,0.046,0.087,0.069,0.131v0.252h0C317.479,328.69,317.349,328.878,317.251,328.957z"/>
	</g>
</g>
<g>
	<g>
		<path d="M464.759,166.871c-9.57,0-17.329,7.759-17.329,17.329v204.721c-1.703-0.03-3.426,0.055-5.15,0.274l-75.26,9.597
			c-10.47,1.368-20.314,5.569-28.464,12.152c-11.811,9.538-19.201,23.103-20.809,38.198c-1.608,15.094,2.759,29.914,12.296,41.724
			s23.103,19.2,38.197,20.808c2.049,0.218,4.094,0.327,6.127,0.327c12.936,0,25.39-4.381,35.597-12.623l59.024-47.661
			c8.124-6.596,12.897-16.361,13.095-26.788c0.002-0.11,0.003-0.219,0.003-0.329V184.2
			C482.088,174.63,474.329,166.871,464.759,166.871z M447.178,424.783l-58.987,47.63c-4.608,3.722-10.391,5.426-16.281,4.798
			c-5.889-0.627-11.183-3.511-14.904-8.119s-5.425-10.389-4.798-16.28s3.511-11.184,8.12-14.905
			c3.179-2.568,7.045-4.211,11.126-4.742l75.206-9.59c0.032-0.005,0.065-0.007,0.095-0.007c0.408,0,0.596,0.354,0.603,0.369
			c0.023,0.044,0.046,0.088,0.069,0.132v0.25h0.001C447.407,424.516,447.277,424.705,447.178,424.783z"/>
	</g>
</g>
</svg>