<?xml version="1.0" encoding="iso-8859-1"?>
<!-- Uploaded to: SVG Repo, www.svgrepo.com, Generator: SVG Repo Mixer Tools -->
<svg version="1.1" id="Layer_1" xmlns="http://www.w3.org/2000/svg" xmlns:xlink="http://www.w3.org/1999/xlink" 
	 viewBox="0 0 464 464" xml:space="preserve">
<g>
	<rect x="216" y="336" style="fill:#464655;" width="32" height="56"/>
	<rect x="80" y="160" style="fill:#464655;" width="304" height="24"/>
</g>
<path style="fill:#C7CFE2;" d="M387.479,136c4.662,0,8.254-4.355,7.122-8.878C376.337,54.144,310.641,0,232,0
	S87.663,54.144,69.399,127.122c-1.132,4.523,2.46,8.878,7.122,8.878h0.457c11.642,0,20.383,10.077,19.442,21.68
	c-1.381,17.035,0.524,35.002,7.419,53.765c20.414,55.545,71.855,93.746,131.02,92.526C308.651,302.448,368,242.155,368,168
	c0-3.403-0.139-6.772-0.403-10.105C366.663,146.133,375.662,136,387.462,136H387.479z"/>
<path style="fill:#AFB9D2;" d="M152,168c0-77.613,52.703-142.75,124.221-162.036C262.134,2.113,247.325,0,232,0
	C153.359,0,87.663,54.144,69.399,127.122c-1.132,4.522,2.46,8.878,7.122,8.878h0.458c11.641,0,20.382,10.076,19.442,21.68
	c-1.38,17.035,0.524,35.002,7.419,53.765c18.786,51.116,63.871,87.456,117.048,91.989C179.189,272.864,152,223.667,152,168z"/>
<path style="fill:#707487;" d="M232,282.238c-62.992,0-114.238-51.246-114.238-114.238S169.008,53.762,232,53.762
	S346.238,105.008,346.238,168S294.992,282.238,232,282.238z M232,86.402c-44.994,0-81.598,36.604-81.598,81.598
	s36.604,81.598,81.598,81.598s81.598-36.604,81.598-81.598S276.994,86.402,232,86.402z"/>
<path style="fill:#464655;" d="M232,250.685c-45.594,0-82.685-37.091-82.685-82.685S186.406,85.315,232,85.315
	s82.685,37.091,82.685,82.685S277.594,250.685,232,250.685z M232,118.389c-27.357,0-49.611,22.254-49.611,49.611
	s22.254,49.611,49.611,49.611s49.611-22.254,49.611-49.611S259.357,118.389,232,118.389z"/>
<circle style="fill:#5B5D6E;" cx="232" cy="168" r="50.685"/>
<circle style="fill:#464655;" cx="232" cy="168" r="24"/>
<circle style="fill:#FFFFFF;" cx="244" cy="156" r="12"/>
<path style="fill:#707487;" d="M314.326,21.674C290.027,7.903,261.967,0,232,0s-58.027,7.903-82.326,21.674l6.207,6.207
	c6.806,6.806,16.929,8.661,25.938,5.272C197.448,27.271,214.336,24,232,24s34.552,3.271,50.182,9.152
	c9.008,3.39,19.132,1.534,25.938-5.272L314.326,21.674z"/>
<g>
	<path style="fill:#5B5D6E;" d="M392,168c0-2.82-0.074-5.625-0.219-8.414c-0.223-4.414-4.137-7.801-8.398-7.578
		c-4.414,0.227-7.809,3.988-7.578,8.398c0.791,15.434-0.771,31.457-5.588,48.068c-15.521,53.523-61.671,93.986-116.824,101.973
		C164.536,323.317,88,254.429,88,168c0-2.547,0.066-5.078,0.195-7.594c0.23-4.41-3.164-8.172-7.578-8.398
		c-4.242-0.332-8.176,3.16-8.398,7.578C72.074,162.375,72,165.18,72,168c0,77.735,55.787,142.519,129.392,156.856
		c3.806,0.741,6.608,3.967,6.608,7.844v3.3c0,4.418,3.582,8,8,8h32c4.418,0,8-3.582,8-8v-3.3c0-3.877,2.802-7.103,6.608-7.844
		C336.213,310.519,392,245.735,392,168z"/>
	<path style="fill:#5B5D6E;" d="M256,400L256,400c0-4.418-3.582-8-8-8h-32c-4.418,0-8,3.582-8,8l0,0c0,4.418-3.582,8-8,8h-8v8h80v-8
		h-8C259.582,408,256,404.418,256,400z"/>
</g>
<path style="fill:#464655;" d="M280,432h-96v-16c0-4.418,3.582-8,8-8h80c4.418,0,8,3.582,8,8V432z"/>
<path style="fill:#5B5D6E;" d="M328,464H136c-4.418,0-8-3.582-8-8v-8c0-13.255,10.745-24,24-24h160c13.255,0,24,10.745,24,24v8
	C336,460.418,332.418,464,328,464z"/>
</svg>