<svg xmlns="http://www.w3.org/2000/svg" width="128" height="128" viewBox="0 0 128 128">
  <title>ANNIVERSARY</title>
  <g>
    <path d="M38.974,81.472A7.292,7.292,0,0,0,34.5,83.014a7.272,7.272,0,0,0-11.75,5.734c0,7.26,9.687,13.812,10.792,14.534a1.747,1.747,0,0,0,1.916,0c1.105-.722,10.792-7.274,10.792-14.534A7.284,7.284,0,0,0,38.974,81.472ZM34.5,99.686c-2.96-2.163-8.25-6.87-8.25-10.938a3.776,3.776,0,0,1,6.834-2.215,1.814,1.814,0,0,0,2.832,0,3.776,3.776,0,0,1,6.834,2.215C42.75,92.816,37.46,97.523,34.5,99.686Z"/>
    <path d="M97.974,81.472A7.292,7.292,0,0,0,93.5,83.014a7.272,7.272,0,0,0-11.75,5.734c0,7.26,9.687,13.812,10.792,14.534a1.747,1.747,0,0,0,1.916,0c1.105-.722,10.792-7.274,10.792-14.534A7.284,7.284,0,0,0,97.974,81.472ZM93.5,99.686c-2.96-2.163-8.25-6.87-8.25-10.938a3.776,3.776,0,0,1,6.834-2.215,1.814,1.814,0,0,0,2.832,0,3.776,3.776,0,0,1,6.834,2.215C101.75,92.816,96.46,97.523,93.5,99.686Z"/>
    <path d="M68.474,81.472A7.292,7.292,0,0,0,64,83.014a7.272,7.272,0,0,0-11.75,5.734c0,7.26,9.687,13.812,10.792,14.534a1.747,1.747,0,0,0,1.916,0c1.105-.722,10.792-7.274,10.792-14.534A7.284,7.284,0,0,0,68.474,81.472ZM64,99.686c-2.96-2.163-8.25-6.87-8.25-10.938a3.776,3.776,0,0,1,6.834-2.215,1.814,1.814,0,0,0,2.832,0,3.776,3.776,0,0,1,6.834,2.215C72.25,92.816,66.96,97.523,64,99.686Z"/>
    <path d="M26.791,29.861H29a1.75,1.75,0,0,0,0-3.5H26.791a1.75,1.75,0,0,0,0,3.5Z"/>
    <path d="M17.5,29.861H19.7a1.75,1.75,0,0,0,0-3.5H17.5a1.75,1.75,0,0,0,0,3.5Z"/>
    <path d="M23.247,35.613A1.75,1.75,0,0,0,25,33.863V31.654a1.75,1.75,0,1,0-3.5,0v2.209A1.75,1.75,0,0,0,23.247,35.613Z"/>
    <path d="M23.247,26.317A1.75,1.75,0,0,0,25,24.567V22.358a1.75,1.75,0,0,0-3.5,0v2.209A1.75,1.75,0,0,0,23.247,26.317Z"/>
    <path d="M108.3,29.861h2.209a1.75,1.75,0,0,0,0-3.5H108.3a1.75,1.75,0,0,0,0,3.5Z"/>
    <path d="M99,29.861h2.209a1.75,1.75,0,0,0,0-3.5H99a1.75,1.75,0,0,0,0,3.5Z"/>
    <path d="M104.753,35.613a1.75,1.75,0,0,0,1.75-1.75V31.654a1.75,1.75,0,0,0-3.5,0v2.209A1.75,1.75,0,0,0,104.753,35.613Z"/>
    <path d="M104.753,26.317a1.75,1.75,0,0,0,1.75-1.75V22.358a1.75,1.75,0,0,0-3.5,0v2.209A1.75,1.75,0,0,0,104.753,26.317Z"/>
    <path d="M116.5,109.25h-1.75V78.54a6.257,6.257,0,0,0-6.25-6.25h-7.75V53.54a6.257,6.257,0,0,0-6.25-6.25H70.75V30.126A1.75,1.75,0,0,0,69,28.376H65.75V26.153a7.394,7.394,0,0,0,3.84-2.3,9.418,9.418,0,0,0,2.08-7.475C70.989,10.436,65.337,5.829,65.1,5.636a1.754,1.754,0,0,0-2.194,0c-.24.193-5.892,4.8-6.573,10.744a9.418,9.418,0,0,0,2.08,7.475,7.394,7.394,0,0,0,3.84,2.3v2.223H59a1.75,1.75,0,0,0-1.75,1.75V47.29H33.5a6.257,6.257,0,0,0-6.25,6.25V72.29H19.5a6.257,6.257,0,0,0-6.25,6.25v30.71H11.5a6.257,6.257,0,0,0-6.25,6.25V121A1.75,1.75,0,0,0,7,122.75H121a1.75,1.75,0,0,0,1.75-1.75v-5.5A6.257,6.257,0,0,0,116.5,109.25ZM59.808,16.778c.359-3.133,2.757-5.963,4.2-7.406,1.593,1.6,3.848,4.451,4.186,7.406a6,6,0,0,1-1.213,4.747,3.987,3.987,0,0,1-5.958,0A6,6,0,0,1,59.808,16.778Zm.942,15.1h6.5V47.29h-6.5ZM33.5,50.79h61a2.752,2.752,0,0,1,2.75,2.75v6.25H30.75V53.54A2.752,2.752,0,0,1,33.5,50.79Zm-2.75,12.5h66.5v9H30.75Zm-14,15.25a2.753,2.753,0,0,1,2.75-2.75h89a2.753,2.753,0,0,1,2.75,2.75v30.71H16.75Zm102.5,40.71H8.75V115.5a2.752,2.752,0,0,1,2.75-2.75h105a2.752,2.752,0,0,1,2.75,2.75Z"/>
  </g>
</svg>
