<svg xmlns="http://www.w3.org/2000/svg" width="128" height="128" viewBox="0 0 128 128">
  <title>BLOCK</title>
  <g>
    <path d="M112.721,78.661a55.262,55.262,0,1,0-34.06,34.06,24.38,24.38,0,1,0,34.06-34.06ZM60.517,8.75a51.794,51.794,0,0,1,49.161,68.013,24.334,24.334,0,0,0-29.5,5.353l-9.935-1.811V72.947c4.991-3.878,10.8-11.175,10.8-24.167V42.335a20.528,20.528,0,0,0-41.055,0V48.78c0,12.992,5.805,20.288,10.8,24.166v7.359l-18.121,3.3A13.946,13.946,0,0,0,21.513,94.5a51.725,51.725,0,0,1,39-85.746Zm7.345,61.621a12.21,12.21,0,0,1-14.692,0c-4.416-3.343-9.681-9.8-9.681-21.591V42.335a17.028,17.028,0,0,1,34.055,0V48.78C77.544,60.568,72.279,67.028,67.862,70.371ZM54.286,75.038a15.736,15.736,0,0,0,12.461,0V81.58a5.972,5.972,0,0,1-6.23,4.561,5.975,5.975,0,0,1-6.231-4.564Zm6.231,37.245A51.572,51.572,0,0,1,24.711,97.849v-.512a10.451,10.451,0,0,1,8.581-10.286l18.037-3.288a9.5,9.5,0,0,0,9.188,5.878A9.5,9.5,0,0,0,69.7,83.763l8.107,1.478a24.307,24.307,0,0,0-1.048,24.437A51.64,51.64,0,0,1,60.517,112.283Zm37.841,6.967A20.892,20.892,0,1,1,119.25,98.358,20.915,20.915,0,0,1,98.358,119.25Z"/>
    <path d="M98.358,85.608a12.75,12.75,0,1,0,12.75,12.75A12.765,12.765,0,0,0,98.358,85.608Zm0,3.5a9.2,9.2,0,0,1,5.183,1.593L90.7,103.541a9.245,9.245,0,0,1,7.657-14.433Zm0,18.5a9.2,9.2,0,0,1-5.182-1.592l12.84-12.84a9.245,9.245,0,0,1-7.658,14.432Z"/>
  </g>
</svg>
