<svg xmlns="http://www.w3.org/2000/svg" width="128" height="128" viewBox="0 0 128 128">
  <title>BOW</title>
  <path d="M122.464,63.041c-.723-1.1-7.275-10.791-14.534-10.791a7.221,7.221,0,0,0-6.721,10H84.652a13.864,13.864,0,0,1,.592-2.616c1.963-5.871,3.006-17.794-12.069-31.671C62.447,18.087,60.967,12.351,61.039,9.81a4.489,4.489,0,0,0-1.255-3.241A4.326,4.326,0,0,0,56.659,5.25a4.4,4.4,0,0,0-4.354,3.84,14.423,14.423,0,0,0,.177,4.391L26.84,60.632l-2.434-3.61a1.748,1.748,0,0,0-1.451-.772H7a1.75,1.75,0,0,0-1.451,2.728L8.935,64,5.549,69.022A1.75,1.75,0,0,0,7,71.75H22.955a1.748,1.748,0,0,0,1.451-.772l2.434-3.61,25.642,47.151a14.423,14.423,0,0,0-.177,4.391,4.4,4.4,0,0,0,4.354,3.84,4.326,4.326,0,0,0,3.125-1.319,4.489,4.489,0,0,0,1.255-3.241c-.072-2.541,1.408-8.277,12.136-18.153C88.25,86.16,87.207,74.237,85.244,68.366a13.864,13.864,0,0,1-.592-2.616h16.557a7.221,7.221,0,0,0,6.721,10c7.259,0,13.811-9.686,14.534-10.791A1.748,1.748,0,0,0,122.464,63.041ZM61.677,30.9c8.46,10.7,13.851,18.414,11.8,27.876h0a24.466,24.466,0,0,0-.489,3.478H29.944L53.9,18.206A52.721,52.721,0,0,0,61.677,30.9ZM22.024,68.25H10.29L12.5,64.978a1.751,1.751,0,0,0,0-1.956L10.29,59.75H22.024L24.89,64Zm7.92-2.5h43.04a24.446,24.446,0,0,0,.489,3.478c2.055,9.462-3.336,17.181-11.8,27.876a52.721,52.721,0,0,0-7.781,12.69ZM70.8,97.463c-11.16,10.273-13.372,17-13.263,20.825a.959.959,0,0,1-.266.7.842.842,0,0,1-.616.259.887.887,0,0,1-.884-.785c-.339-2.654.332-8.674,8.648-19.189,7.389-9.343,15.031-19,12.47-30.791a21.291,21.291,0,0,1,0-8.97h0c2.561-11.788-5.081-21.449-12.47-30.792-8.316-10.515-8.987-16.535-8.648-19.189a.887.887,0,0,1,.884-.785.842.842,0,0,1,.616.259.959.959,0,0,1,.266.7c-.109,3.83,2.1,10.553,13.263,20.826,13.624,12.542,12.815,22.918,11.12,27.987a17.15,17.15,0,0,0,0,10.952C83.619,74.545,84.428,84.921,70.8,97.463ZM107.93,72.25a3.775,3.775,0,0,1-2.215-6.834,1.751,1.751,0,0,0,0-2.832,3.775,3.775,0,0,1,2.215-6.834c4.068,0,8.775,5.289,10.938,8.25C116.705,66.961,112,72.25,107.93,72.25Z"/>
</svg>
