<svg xmlns="http://www.w3.org/2000/svg" width="128" height="128" viewBox="0 0 128 128">
  <title>CHATTING APP</title>
  <g>
    <path d="M116.485,85.7a19.09,19.09,0,0,0,6.265-13.846c0-11.391-11.063-20.737-25-21.465V11.5A6.257,6.257,0,0,0,91.5,5.25h-55a6.257,6.257,0,0,0-6.25,6.25V30.622c-13.937.728-25,10.075-25,21.466a19.092,19.092,0,0,0,6.265,13.846L5.541,74.945a1.75,1.75,0,0,0,2,2.631l15.776-5.129a32.432,32.432,0,0,0,6.933,1.1V116.5a6.257,6.257,0,0,0,6.25,6.25h55a6.257,6.257,0,0,0,6.25-6.25V93.316a32.432,32.432,0,0,0,6.933-1.1l15.776,5.128a1.75,1.75,0,0,0,2-2.631ZM77.938,8.75,75.993,15a1.744,1.744,0,0,1-1.672,1.231H53.679A1.744,1.744,0,0,1,52.007,15L50.062,8.75Zm-55.2,60.2L11.23,72.7l4.038-6.09a1.751,1.751,0,0,0-.334-2.307C10.946,60.954,8.75,56.618,8.75,52.088c0-9.935,10.43-18.017,23.25-18.017s23.25,8.082,23.25,18.017S44.82,70.105,32,70.105a29.135,29.135,0,0,1-8.223-1.165A1.74,1.74,0,0,0,22.742,68.954ZM91.5,119.25h-55a2.752,2.752,0,0,1-2.75-2.75V73.554c13.937-.728,25-10.074,25-21.466s-11.063-20.738-25-21.466V11.5A2.753,2.753,0,0,1,36.5,8.75h9.9l2.269,7.291a5.227,5.227,0,0,0,5.014,3.689H74.321a5.227,5.227,0,0,0,5.014-3.69L81.6,8.75h9.9a2.753,2.753,0,0,1,2.75,2.75V50.39c-13.937.728-25,10.074-25,21.465s11.063,20.739,25,21.467V116.5A2.752,2.752,0,0,1,91.5,119.25Zm13.758-30.528a1.749,1.749,0,0,0-1.035-.015A29.1,29.1,0,0,1,96,89.873c-12.82,0-23.25-8.082-23.25-18.018S83.18,53.838,96,53.838s23.25,8.083,23.25,18.017c0,4.53-2.2,8.867-6.184,12.211a1.753,1.753,0,0,0-.334,2.308l4.037,6.09Z"/>
    <path d="M19,48.838H45a1.75,1.75,0,0,0,0-3.5H19a1.75,1.75,0,1,0,0,3.5Z"/>
    <path d="M33.75,57.088A1.75,1.75,0,0,0,32,55.338H19a1.75,1.75,0,1,0,0,3.5H32A1.749,1.749,0,0,0,33.75,57.088Z"/>
    <path d="M69,108.27H59a1.75,1.75,0,1,0,0,3.5H69a1.75,1.75,0,0,0,0-3.5Z"/>
    <circle cx="64" cy="12.49" r="2"/>
    <path d="M109,65.105H83a1.75,1.75,0,0,0,0,3.5h26a1.75,1.75,0,0,0,0-3.5Z"/>
    <path d="M96,75.105H83a1.75,1.75,0,0,0,0,3.5H96a1.75,1.75,0,0,0,0-3.5Z"/>
  </g>
</svg>
