<svg xmlns="http://www.w3.org/2000/svg" width="128" height="128" viewBox="0 0 128 128">
  <title>DATING APP</title>
  <g>
    <path d="M69,108.27H59a1.75,1.75,0,1,0,0,3.5H69a1.75,1.75,0,0,0,0-3.5Z"/>
    <path d="M110.75,97.02a14.764,14.764,0,0,0-13-14.636V11.5A6.257,6.257,0,0,0,91.5,5.25h-55a6.257,6.257,0,0,0-6.25,6.25V82.384a14.739,14.739,0,0,0,0,29.272V116.5a6.257,6.257,0,0,0,6.25,6.25h55a6.257,6.257,0,0,0,6.25-6.25v-4.844A14.764,14.764,0,0,0,110.75,97.02ZM77.938,8.75,75.993,15a1.742,1.742,0,0,1-1.671,1.23H53.678A1.742,1.742,0,0,1,52.007,15L50.062,8.75ZM36.5,8.75h9.9l2.268,7.29a5.227,5.227,0,0,0,5.013,3.69H74.322a5.226,5.226,0,0,0,5.012-3.69L81.6,8.75h9.9a2.754,2.754,0,0,1,2.75,2.75V82.384a14.6,14.6,0,0,0-4.5,1.3v-5.55a9.545,9.545,0,0,0-7.838-9.4L70.85,66.718V62.847c3.245-2.612,6.9-7.4,6.9-15.748V42.98a13.75,13.75,0,0,0-27.5,0V47.1c0,8.346,3.655,13.136,6.9,15.748v3.871L46.088,68.734a9.545,9.545,0,0,0-7.838,9.4v5.55a14.6,14.6,0,0,0-4.5-1.3V11.5A2.754,2.754,0,0,1,36.5,8.75ZM68.313,60.394a7.176,7.176,0,0,1-8.627,0c-3.938-2.983-5.936-7.456-5.936-13.3V42.98a10.25,10.25,0,1,1,20.5,0V47.1C74.25,52.938,72.252,57.411,68.313,60.394ZM60.65,64.8a10.718,10.718,0,0,0,6.7,0v3.173a3.551,3.551,0,0,1-6.7,0ZM20.75,97.02A11.25,11.25,0,1,1,32,108.27,11.263,11.263,0,0,1,20.75,97.02ZM91.5,119.25h-55a2.754,2.754,0,0,1-2.75-2.75v-4.844a14.721,14.721,0,0,0,8-25.675V78.129a6.048,6.048,0,0,1,4.965-5.952l11.051-2.013a7.121,7.121,0,0,0,12.468,0l11.05,2.013a6.048,6.048,0,0,1,4.966,5.952v7.852a14.721,14.721,0,0,0,8,25.675V116.5A2.754,2.754,0,0,1,91.5,119.25ZM96,108.27a11.25,11.25,0,1,1,11.25-11.25A11.263,11.263,0,0,1,96,108.27Z"/>
    <circle cx="64" cy="12.49" r="2"/>
    <path d="M34.263,101.789a1.75,1.75,0,1,0,2.474-2.475l-2.262-2.263,2.262-2.262a1.75,1.75,0,0,0-2.474-2.475L32,94.577l-2.263-2.263a1.75,1.75,0,0,0-2.474,2.475l2.262,2.262-2.262,2.263a1.75,1.75,0,0,0,2.474,2.475L32,99.526Z"/>
    <path d="M98.46,90.956a4.8,4.8,0,0,0-2.46.683,4.786,4.786,0,0,0-7.25,4.107c0,4.406,5.647,8.231,6.291,8.652a1.749,1.749,0,0,0,1.917,0c.644-.421,6.292-4.246,6.292-8.652A4.8,4.8,0,0,0,98.46,90.956ZM96,100.773c-1.616-1.271-3.75-3.4-3.75-5.027a1.289,1.289,0,0,1,2.334-.756,1.814,1.814,0,0,0,2.832,0,1.289,1.289,0,0,1,2.334.756C99.75,97.373,97.615,99.5,96,100.773Z"/>
  </g>
</svg>
