<svg xmlns="http://www.w3.org/2000/svg" width="128" height="128" viewBox="0 0 128 128">
  <title>DISLIKE</title>
  <g>
    <path d="M89.5,9.25A33.376,33.376,0,0,0,64,21.174,33.243,33.243,0,0,0,5.25,42.5c0,15.908,9.765,33.553,29.024,52.442a214.358,214.358,0,0,0,28.767,23.522,1.749,1.749,0,0,0,1.917,0A214.329,214.329,0,0,0,93.726,94.942C112.985,76.053,122.75,58.408,122.75,42.5A33.288,33.288,0,0,0,89.5,9.25ZM64,114.888C56.576,109.8,8.75,75.693,8.75,42.5A29.746,29.746,0,0,1,62.584,25.044a1.815,1.815,0,0,0,2.832,0A29.746,29.746,0,0,1,119.25,42.5C119.25,75.693,71.424,109.8,64,114.888Z"/>
    <path d="M64,37.25A25.75,25.75,0,1,0,89.75,63,25.779,25.779,0,0,0,64,37.25Zm0,48A22.25,22.25,0,1,1,86.25,63,22.275,22.275,0,0,1,64,85.25Z"/>
    <path d="M76.765,55.259l-5.023-5.024a1.752,1.752,0,0,0-2.475,0L64,55.5l-5.267-5.268a1.8,1.8,0,0,0-2.475,0l-5.023,5.024a1.749,1.749,0,0,0,0,2.474L56.5,63l-5.266,5.268a1.748,1.748,0,0,0,0,2.474l5.022,5.023a1.8,1.8,0,0,0,2.475,0L64,70.5l5.267,5.268a1.752,1.752,0,0,0,2.475,0l5.022-5.023a1.748,1.748,0,0,0,0-2.474L71.5,63l5.266-5.267A1.749,1.749,0,0,0,76.765,55.259Zm-8.98,6.5a1.748,1.748,0,0,0,0,2.474l5.267,5.268L70.5,72.053l-5.267-5.268a1.748,1.748,0,0,0-2.474,0L57.5,72.053l-2.548-2.548,5.267-5.268a1.75,1.75,0,0,0,0-2.474L54.948,56.5,57.5,53.947l5.267,5.268a1.8,1.8,0,0,0,2.474,0L70.5,53.947,73.052,56.5Z"/>
  </g>
</svg>
