<svg xmlns="http://www.w3.org/2000/svg" width="128" height="128" viewBox="0 0 128 128">
  <title>HAND</title>
  <path d="M115.237,44.471a1.748,1.748,0,0,0-2.474,0l-8.943,8.942a1.754,1.754,0,0,0-.414.658l-1.346,3.843a28.478,28.478,0,0,1-6.7,10.655l-4.575,4.576L65.237,47.6a1.8,1.8,0,0,0-2.474,0L49.1,61.264a2.985,2.985,0,0,1-4.221-4.222L64.918,37a13.224,13.224,0,0,1,9.134-3.887l7.6-.148a1.745,1.745,0,0,0,1.2-.513L91.8,23.509a1.75,1.75,0,1,0-2.475-2.475l-8.444,8.444-6.9.134a16.692,16.692,0,0,0-9.973,3.546,16.746,16.746,0,0,0-9.994-3.546l-6.9-.134-8.444-8.444A1.75,1.75,0,1,0,36.2,23.509l8.943,8.942a1.745,1.745,0,0,0,1.2.513l7.6.148a13.24,13.24,0,0,1,7.437,2.47L42.4,54.567a6.485,6.485,0,0,0,9.171,9.171L64,51.31,98.206,85.516a2.985,2.985,0,0,1,0,4.221,3.056,3.056,0,0,1-4.221,0l-.008-.006L70.966,66.719a1.75,1.75,0,1,0-2.475,2.474L93.117,93.819a2.984,2.984,0,0,1,0,4.221,3.057,3.057,0,0,1-4.221,0L64.269,73.415A1.75,1.75,0,0,0,61.8,75.89L83.207,97.3a2.985,2.985,0,0,1-4.221,4.221L57.574,80.111A1.75,1.75,0,0,0,55.1,82.586L71.393,98.88l0,0a2.985,2.985,0,1,1-4.221,4.221L32.64,68.569a28.478,28.478,0,0,1-6.7-10.655l-1.346-3.843a1.754,1.754,0,0,0-.414-.658l-8.943-8.942a1.749,1.749,0,0,0-2.474,2.474l8.66,8.66,1.215,3.467a31.985,31.985,0,0,0,7.527,11.972l4.576,4.576-7.423,7.421A6.479,6.479,0,0,0,30.8,94.012a6.486,6.486,0,0,0,6.2,8.4,6.438,6.438,0,0,0,3.694-1.158A6.486,6.486,0,0,0,51.489,104l1.045-1.045A6.489,6.489,0,0,0,63.3,105.579l.7-.7.7.7a6.483,6.483,0,0,0,10.766-2.626L76.511,104a6.481,6.481,0,0,0,10.8-2.742A6.483,6.483,0,0,0,97.491,95.93a6.5,6.5,0,0,0-.289-1.918,6.482,6.482,0,0,0,3.479-10.971L93.259,75.62l4.576-4.576a32,32,0,0,0,7.527-11.972l1.215-3.467,8.66-8.66A1.748,1.748,0,0,0,115.237,44.471ZM29.793,85.516l7.422-7.422,4.222,4.222-7.422,7.422h0a3.059,3.059,0,0,1-4.222,0A2.989,2.989,0,0,1,29.793,85.516Zm5.09,12.524a2.985,2.985,0,0,1,0-4.221l9.029-9.028,4.221,4.221L39.1,98.04A3.057,3.057,0,0,1,34.883,98.04Zm14.131,3.483A2.985,2.985,0,0,1,44.793,97.3h0l5.814-5.814,4.222,4.221ZM60.826,103.1A2.985,2.985,0,0,1,56.6,98.883h0l.7-.7,4.221,4.222Z"/>
</svg>
