<svg xmlns="http://www.w3.org/2000/svg" width="128" height="128" viewBox="0 0 128 128">
  <title>HEART</title>
  <path d="M116.209,66.127c4.339-8.254,6.541-16.2,6.541-23.627A33.244,33.244,0,0,0,64,21.173,33.244,33.244,0,0,0,5.25,42.5c0,15.908,9.765,33.552,29.024,52.443a214.366,214.366,0,0,0,28.768,23.521,1.747,1.747,0,0,0,1.916,0c.25-.164,5.941-3.906,13.764-10.217a105.011,105.011,0,0,0,12.82,10.217,1.747,1.747,0,0,0,1.916,0c1.2-.783,29.292-19.4,29.292-38.714A17.466,17.466,0,0,0,116.209,66.127ZM64,114.889C56.582,109.8,8.75,75.695,8.75,42.5A29.746,29.746,0,0,1,62.584,25.044a1.815,1.815,0,0,0,2.832,0A29.746,29.746,0,0,1,119.25,42.5c0,6.769-2.036,14.066-6,21.7a17.374,17.374,0,0,0-8-1.952A17.567,17.567,0,0,0,92.5,67.77,17.5,17.5,0,0,0,62.25,79.75c0,9.541,6.856,18.908,13.939,26.043C70.487,110.373,65.908,113.587,64,114.889Zm28.5-.009C87.613,111.467,65.75,95.323,65.75,79.75a14,14,0,0,1,25.334-8.214,1.814,1.814,0,0,0,2.832,0A14,14,0,0,1,119.25,79.75C119.25,95.307,97.386,111.464,92.5,114.88Z"/>
</svg>
