<svg xmlns="http://www.w3.org/2000/svg" width="128" height="128" viewBox="0 0 128 128">
  <title>LOCATION</title>
  <g>
    <path d="M64.959,59.391c.6-.395,14.791-9.8,14.791-19.762A9.483,9.483,0,0,0,64,32.508a9.483,9.483,0,0,0-15.75,7.121c0,9.964,14.187,19.367,14.791,19.762a1.751,1.751,0,0,0,1.918,0ZM51.75,39.629a5.986,5.986,0,0,1,10.834-3.512,1.815,1.815,0,0,0,2.832,0A5.986,5.986,0,0,1,76.25,39.629c0,6.179-8.107,13.226-12.251,16.177C59.855,52.86,51.75,45.821,51.75,39.629Z"/>
    <path d="M74.458,101.729c2.763-3.673,5.892-8.035,9.007-12.8C95.6,70.384,101.75,54.93,101.75,43a37.75,37.75,0,0,0-75.5,0c0,11.93,6.152,27.384,18.285,45.933,3.115,4.761,6.244,9.123,9.007,12.8C36.447,103.3,30.25,107.977,30.25,112c0,7.058,16.978,10.75,33.75,10.75S97.75,119.058,97.75,112C97.75,107.977,91.553,103.3,74.458,101.729ZM29.75,43a34.25,34.25,0,0,1,68.5,0c0,23.953-27.815,58.6-34.25,66.3C57.561,101.6,29.75,66.962,29.75,43ZM64,119.25c-19.86,0-30.25-4.72-30.25-7.25,0-2.276,7.763-5.9,22.325-6.959,3.873,4.979,6.559,8.056,6.609,8.113a1.751,1.751,0,0,0,2.632,0c.049-.057,2.736-3.134,6.609-8.113C86.486,106.1,94.25,109.724,94.25,112,94.25,114.53,83.86,119.25,64,119.25Z"/>
    <path d="M89.75,43A25.75,25.75,0,1,0,64,68.75,25.779,25.779,0,0,0,89.75,43Zm-48,0A22.25,22.25,0,1,1,64,65.25,22.275,22.275,0,0,1,41.75,43Z"/>
  </g>
</svg>
