<svg xmlns="http://www.w3.org/2000/svg" width="128" height="128" viewBox="0 0 128 128">
  <title>LOVE</title>
  <path d="M115.3,45.062a7.4,7.4,0,0,0-3.95,1.145V15.435A7.44,7.44,0,0,0,99.27,9.609a7.441,7.441,0,0,0-14.036,1.466A17.383,17.383,0,0,0,76.75,8.869,17.567,17.567,0,0,0,64,14.389a17.567,17.567,0,0,0-12.75-5.52,17.383,17.383,0,0,0-8.484,2.206A7.441,7.441,0,0,0,28.73,9.609a7.44,7.44,0,0,0-12.08,5.826V46.207a7.436,7.436,0,0,0-11.4,6.305V86.633a19.752,19.752,0,0,0,5.542,13.758l5.858,6.09V121a1.75,1.75,0,0,0,3.5,0V105.776a1.749,1.749,0,0,0-.489-1.213l-6.346-6.6A16.266,16.266,0,0,1,8.75,86.633V52.512a3.95,3.95,0,0,1,7.9,0V75.777a1.751,1.751,0,0,0,1.75,1.75c10.76,0,15.419,7,15.625,7.32a1.75,1.75,0,0,0,2.954-1.877c-.221-.348-5.3-8.156-16.829-8.888V15.435a3.95,3.95,0,1,1,7.9,0V54.624a1.75,1.75,0,0,0,3.5,0V12.7a3.95,3.95,0,0,1,7.9,0v.784a17.437,17.437,0,0,0-5.7,12.885c0,5.572,2.344,11.083,5.7,16.127V54.624a1.75,1.75,0,1,0,3.5,0V47.2A100.207,100.207,0,0,0,62.25,64.55V85.673a34.648,34.648,0,0,1-3.4,14.927l-2.124,4.418a1.742,1.742,0,0,0-.173.758V121a1.75,1.75,0,0,0,3.5,0V106.175L62,102.117A37.828,37.828,0,0,0,64,97a37.828,37.828,0,0,0,2,5.117l1.952,4.058V121a1.75,1.75,0,0,0,3.5,0V105.776a1.742,1.742,0,0,0-.173-.758L69.153,100.6a34.648,34.648,0,0,1-3.4-14.927V64.55A100.207,100.207,0,0,0,85.05,47.2v7.429a1.75,1.75,0,1,0,3.5,0V42.5c3.356-5.044,5.7-10.555,5.7-16.127a17.437,17.437,0,0,0-5.7-12.885V12.7a3.95,3.95,0,1,1,7.9,0V54.624a1.75,1.75,0,1,0,3.5,0V15.435a3.95,3.95,0,1,1,7.9,0V74.082c-11.53.732-16.608,8.54-16.829,8.888a1.75,1.75,0,0,0,2.954,1.878c.192-.3,4.85-7.321,15.625-7.321a1.751,1.751,0,0,0,1.75-1.75V52.512a3.95,3.95,0,0,1,7.9,0V86.633a16.27,16.27,0,0,1-4.565,11.332l-6.346,6.6a1.749,1.749,0,0,0-.489,1.213V121a1.75,1.75,0,0,0,3.5,0V106.481l5.857-6.09a19.749,19.749,0,0,0,5.543-13.758V52.512A7.458,7.458,0,0,0,115.3,45.062ZM90.75,26.369C90.75,41.926,68.886,58.083,64,61.5,59.113,58.086,37.25,41.941,37.25,26.369a14,14,0,0,1,25.334-8.214,1.815,1.815,0,0,0,2.832,0A14,14,0,0,1,90.75,26.369Z"/>
</svg>
