<svg xmlns="http://www.w3.org/2000/svg" width="128" height="128" viewBox="0 0 128 128">
  <title>MOBILE PHONE</title>
  <g>
    <path d="M71.158,48.373A10.627,10.627,0,0,0,64,51.163a10.588,10.588,0,0,0-17.75,7.8c0,11.253,16.1,21.928,16.791,22.376a1.751,1.751,0,0,0,1.918,0c.685-.448,16.791-11.123,16.791-22.376A10.6,10.6,0,0,0,71.158,48.373ZM64,77.747c-3.341-2.391-14.25-10.811-14.25-18.782a7.091,7.091,0,0,1,12.834-4.16,1.814,1.814,0,0,0,2.832,0,7.091,7.091,0,0,1,12.834,4.16C78.25,66.936,67.341,75.356,64,77.747Z"/>
    <path d="M91.5,5.25h-55a6.257,6.257,0,0,0-6.25,6.25v105a6.257,6.257,0,0,0,6.25,6.25h55a6.257,6.257,0,0,0,6.25-6.25V11.5A6.257,6.257,0,0,0,91.5,5.25ZM77.938,8.75,75.993,15a1.744,1.744,0,0,1-1.672,1.231H53.679A1.744,1.744,0,0,1,52.007,15L50.062,8.75ZM94.25,116.5a2.752,2.752,0,0,1-2.75,2.75h-55a2.752,2.752,0,0,1-2.75-2.75V11.5A2.752,2.752,0,0,1,36.5,8.75h9.9l2.269,7.291a5.227,5.227,0,0,0,5.014,3.689H74.321a5.227,5.227,0,0,0,5.014-3.69L81.6,8.75h9.9a2.752,2.752,0,0,1,2.75,2.75Z"/>
    <path d="M69,108.27H59a1.75,1.75,0,1,0,0,3.5H69a1.75,1.75,0,0,0,0-3.5Z"/>
    <circle cx="64" cy="12.49" r="2"/>
  </g>
</svg>
