<svg xmlns="http://www.w3.org/2000/svg" width="128" height="128" viewBox="0 0 128 128">
  <title>NOTIFICATION</title>
  <g>
    <path d="M91.5,5.25h-55a6.257,6.257,0,0,0-6.25,6.25v105a6.257,6.257,0,0,0,6.25,6.25h55a6.257,6.257,0,0,0,6.25-6.25V11.5A6.257,6.257,0,0,0,91.5,5.25ZM77.938,8.75,75.993,15a1.742,1.742,0,0,1-1.671,1.23H53.678A1.743,1.743,0,0,1,52.007,15L50.062,8.75ZM94.25,116.5a2.752,2.752,0,0,1-2.75,2.75h-55a2.752,2.752,0,0,1-2.75-2.75V11.5A2.752,2.752,0,0,1,36.5,8.75h9.9l2.268,7.291a5.227,5.227,0,0,0,5.013,3.689H74.322a5.225,5.225,0,0,0,5.012-3.69L81.6,8.75h9.9a2.752,2.752,0,0,1,2.75,2.75Z"/>
    <path d="M69,108.27H59a1.75,1.75,0,1,0,0,3.5H69a1.75,1.75,0,0,0,0-3.5Z"/>
    <circle cx="64" cy="12.49" r="2"/>
    <path d="M77.371,72.327V62.76A13.382,13.382,0,0,0,68.8,50.3a5.75,5.75,0,1,0-9.6,0,13.381,13.381,0,0,0-8.57,12.464v9.567l-3.251,5.662A1.75,1.75,0,0,0,48.9,80.61h7.561a7.741,7.741,0,0,0,15.086,0H79.1a1.75,1.75,0,0,0,1.518-2.621ZM61.75,47.14A2.25,2.25,0,1,1,64,49.39,2.252,2.252,0,0,1,61.75,47.14ZM64,83.11a4.249,4.249,0,0,1-3.863-2.5h7.726A4.249,4.249,0,0,1,64,83.11Zm-12.081-6L53.9,73.665a1.75,1.75,0,0,0,.232-.871V62.76a9.871,9.871,0,0,1,19.742,0V72.794a1.75,1.75,0,0,0,.232.871l1.978,3.445Z"/>
    <path d="M78.672,48.088A1.75,1.75,0,1,0,76.2,50.563a17.248,17.248,0,0,1,4.487,7.8,1.75,1.75,0,0,0,1.691,1.306,1.768,1.768,0,0,0,.446-.058,1.749,1.749,0,0,0,1.247-2.136A20.739,20.739,0,0,0,78.672,48.088Z"/>
    <path d="M51.8,50.563a1.75,1.75,0,1,0-2.474-2.475,20.739,20.739,0,0,0-5.4,9.385,1.749,1.749,0,0,0,1.247,2.136,1.768,1.768,0,0,0,.446.058,1.75,1.75,0,0,0,1.691-1.306A17.248,17.248,0,0,1,51.8,50.563Z"/>
  </g>
</svg>
