<svg xmlns="http://www.w3.org/2000/svg" width="128" height="128" viewBox="0 0 128 128">
  <title>ROSE</title>
  <path d="M91.471,81.419a1.751,1.751,0,0,0-1.471-.8H83.065A18.4,18.4,0,0,0,66.34,91.4l-.59,1.3V74.1A26.431,26.431,0,0,0,90.186,44.05l-2.049-14.6a1.752,1.752,0,0,0-2.129-1.462,42.9,42.9,0,0,0-4.184,1.2l-3.2-13.113A1.752,1.752,0,0,0,76.2,14.9a33.67,33.67,0,0,0-3.482,1.919,30.66,30.66,0,0,0-7.58-11.148,1.748,1.748,0,0,0-2.282,0,30.666,30.666,0,0,0-7.583,11.156A33.655,33.655,0,0,0,51.8,14.9a1.751,1.751,0,0,0-2.423,1.18l-3.2,13.11a43.507,43.507,0,0,0-4.185-1.2,1.751,1.751,0,0,0-2.128,1.462l-2.05,14.6A26.432,26.432,0,0,0,62.25,74.1V92.7l-.59-1.3a18.4,18.4,0,0,0-16.726-10.78H38a1.75,1.75,0,0,0-1.594,2.473l3.934,8.672a18.4,18.4,0,0,0,16.726,10.78H62.25V121a1.75,1.75,0,0,0,3.5,0V102.542h5.185A18.4,18.4,0,0,0,87.66,91.762l3.934-8.672A1.75,1.75,0,0,0,91.471,81.419Zm-34.4,17.623a14.9,14.9,0,0,1-13.539-8.726l-2.812-6.2h4.219a14.9,14.9,0,0,1,13.539,8.725l2.812,6.2ZM86.72,44.536a22.95,22.95,0,0,1-9.144,21.686,53.108,53.108,0,0,0-11.19-23.066A41.785,41.785,0,0,1,84.942,31.879ZM78.532,30.468a46.048,46.048,0,0,0-14.5,10.092A47.334,47.334,0,0,0,59.7,36.643C63.609,27.023,72,21.276,75.76,19.1ZM64,9.464a28.228,28.228,0,0,1,5.734,9.379,44.534,44.534,0,0,0-5.745,5.026,45.087,45.087,0,0,0-5.727-5.013A28.236,28.236,0,0,1,64,9.464ZM52.24,19.1a42.785,42.785,0,0,1,9.424,7.419A35.333,35.333,0,0,0,56.8,34.5a44.63,44.63,0,0,0-7.327-4.035ZM46.686,62.779A22.933,22.933,0,0,1,41.28,44.536l1.778-12.658c15.808,4.478,27.911,18.459,31.345,36.3a22.945,22.945,0,0,1-27.717-5.4ZM84.473,90.316a14.9,14.9,0,0,1-13.538,8.726h-4.22l2.812-6.2a14.9,14.9,0,0,1,13.538-8.725h4.219Z"/>
</svg>
