<svg xmlns="http://www.w3.org/2000/svg" width="128" height="128" viewBox="0 0 128 128">
  <title>SEARCH</title>
  <g>
    <path d="M54.158,32.5A10.627,10.627,0,0,0,47,35.286a10.588,10.588,0,0,0-17.75,7.8c0,11.253,16.1,21.927,16.791,22.376a1.751,1.751,0,0,0,1.918,0c.685-.449,16.791-11.123,16.791-22.376A10.6,10.6,0,0,0,54.158,32.5ZM47,61.87c-3.341-2.391-14.25-10.81-14.25-18.782a7.091,7.091,0,0,1,12.834-4.16,1.814,1.814,0,0,0,2.832,0,7.091,7.091,0,0,1,12.834,4.16C61.25,51.06,50.341,59.479,47,61.87Z"/>
    <path d="M47,15.25A31.75,31.75,0,1,0,78.75,47,31.786,31.786,0,0,0,47,15.25Zm0,60A28.25,28.25,0,1,1,75.25,47,28.282,28.282,0,0,1,47,75.25Z"/>
    <path d="M121.065,107.984l-29.7-29.7a1.748,1.748,0,0,0-2.474,0L87.3,79.877,79.98,72.555a41.819,41.819,0,1,0-7.425,7.425L79.877,87.3l-1.591,1.592a1.748,1.748,0,0,0,0,2.474l29.7,29.7a5.758,5.758,0,0,0,8.132,0l4.949-4.95a5.748,5.748,0,0,0,0-8.132ZM8.75,47A38.25,38.25,0,1,1,47,85.25,38.293,38.293,0,0,1,8.75,47ZM75.241,77.716q1.288-1.185,2.475-2.475l7.111,7.111-2.475,2.475Zm43.35,35.926-4.949,4.949a2.253,2.253,0,0,1-3.183,0L82,90.13,90.13,82l28.461,28.461a2.251,2.251,0,0,1,0,3.183Z"/>
  </g>
</svg>
