<?xml version="1.0" encoding="iso-8859-1"?>
<!-- Uploaded to: SVG Repo, www.svgrepo.com, Generator: SVG Repo Mixer Tools -->
<svg fill="#000000" height="800px" width="800px" version="1.1" id="Layer_1" xmlns="http://www.w3.org/2000/svg" xmlns:xlink="http://www.w3.org/1999/xlink" 
	 viewBox="0 0 512 512" xml:space="preserve">
<g>
	<g>
		<g>
			<path d="M256.001,0c-74.99,0-135.999,61.01-135.999,136c0,72.167,56.504,131.376,127.593,135.732v16.266H224v40h64v-40h-24.644
				v-16.2c71.584-3.835,128.643-63.277,128.643-135.8C392.001,61.01,330.992,0,256.001,0z M272.001,304v7.999h-32V304H272.001z
				 M256.001,256C189.832,256,136,202.168,136,136s53.832-119.999,120-119.999c66.169,0,120,53.831,120,119.999
				S322.169,256,256.001,256z"/>
			<path d="M256.001,24c-61.757,0-112,50.244-112,112s50.243,112,112,112c61.757,0,112-50.244,112-112S317.758,24,256.001,24z
				 M256.001,231.999c-52.934,0-96-43.065-96-95.999s43.066-95.999,96-95.999c52.934,0,96,43.065,96,95.999
				S308.935,231.999,256.001,231.999z"/>
			<path d="M224.001,512h64v-40h-64V512z M240,488h32v7.999h-32V488z"/>
			<path d="M216.068,351.626h15.763v96.678h-15.763v15.763h79.864v-15.763H280.17v-96.678h15.763v-15.763h-79.864V351.626z
				 M247.594,351.626h16.814v96.678h-16.814V351.626z"/>
			<path d="M313.329,93.993c-8.003-8.003-18.64-12.434-29.956-12.434c-0.004,0-0.009,0-0.014,0
				c-10.124,0-19.708,3.556-27.347,10.032c-7.641-6.475-17.228-9.982-27.356-9.982c-11.323,0-21.968,4.409-29.973,12.416
				c-16.528,16.528-16.528,43.419,0,59.947l51.626,51.627l5.766,5.639l57.267-57.271c8.006-8.006,12.412-18.663,12.403-29.996
				C325.738,112.651,321.328,101.997,313.329,93.993z M302.028,142.661l-46.017,46.015l-46.015-46.015
				c-10.29-10.29-10.29-27.031,0-37.321c4.984-4.984,11.611-7.729,18.66-7.729s13.676,2.71,18.659,7.694l8.697,8.662l8.697-8.768
				c4.985-4.985,11.611-7.876,18.656-7.876c0.003,0,0.005,0,0.008,0c7.039,0,13.657,2.882,18.637,7.859
				c4.984,4.986,7.73,11.757,7.735,18.811C309.749,131.05,307.009,137.679,302.028,142.661z"/>
		</g>
	</g>
</g>
</svg>