<svg xmlns="http://www.w3.org/2000/svg" width="128" height="128" viewBox="0 0 128 128">
  <title>TEDDY BEAR</title>
  <g>
    <circle cx="53.5" cy="37.799" r="2"/>
    <circle cx="74.5" cy="37.799" r="2"/>
    <path d="M69.83,53.71a7.306,7.306,0,0,0,1.221-3.075,5.72,5.72,0,0,0-1.257-4.752,8.221,8.221,0,0,0-11.588,0,5.717,5.717,0,0,0-1.257,4.752,7.315,7.315,0,0,0,1.221,3.076,7.1,7.1,0,0,0,11.66,0Zm-8.772-1.977a3.793,3.793,0,0,1-.647-1.612,2.314,2.314,0,0,1,.445-1.952,4.794,4.794,0,0,1,6.288,0,2.314,2.314,0,0,1,.445,1.952,3.784,3.784,0,0,1-.647,1.611,3.6,3.6,0,0,1-5.884,0Z"/>
    <path d="M115.616,79.421a10.125,10.125,0,0,0-5.676-5.728L83.448,62.979a25.325,25.325,0,0,0,5.958-4.994c4.46-5.17,6.139-11.719,4.991-19.464-.141-.951-.338-1.889-.566-2.819A15.744,15.744,0,1,0,74.2,13.808a30.668,30.668,0,0,0-20.406,0A15.744,15.744,0,1,0,34.168,35.7c-.228.93-.424,1.868-.565,2.819-1.148,7.745.531,14.294,4.991,19.464a25.3,25.3,0,0,0,5.958,4.994L18.06,73.693a10.217,10.217,0,0,0-5.43,13.788,10.219,10.219,0,0,0,14.336,4.551l9.861-5.643a37.748,37.748,0,0,0-.21,4.664,12.52,12.52,0,0,0-7.222,9.6,23.265,23.265,0,0,0,1.125,11.582c2.491,6.843,6.74,9.256,9.867,10.077a13.791,13.791,0,0,0,3.5.441,15.581,15.581,0,0,0,5.129-.872,15.17,15.17,0,0,0,6.888-5.219c.02-.028.039-.059.059-.087a32.678,32.678,0,0,0,16.068,0c.02.028.039.059.059.087a15.17,15.17,0,0,0,6.888,5.219,15.575,15.575,0,0,0,5.129.872,13.785,13.785,0,0,0,3.5-.441c3.127-.821,7.376-3.234,9.867-10.077A23.256,23.256,0,0,0,98.6,100.648a12.519,12.519,0,0,0-7.222-9.595,37.556,37.556,0,0,0-.209-4.664l9.86,5.643a10.217,10.217,0,0,0,14.337-4.551A10.125,10.125,0,0,0,115.616,79.421ZM89.077,25.157a29.842,29.842,0,0,0-6.106-6.53,5.749,5.749,0,1,1,6.964,7.859C89.659,26.04,89.377,25.6,89.077,25.157ZM88.205,8.75a12.246,12.246,0,0,1,4.6,23.6q-.516-1.4-1.167-2.759A9.251,9.251,0,1,0,80.065,16.6c-.848-.522-1.725-1-2.623-1.434A12.334,12.334,0,0,1,88.205,8.75ZM27.545,21a12.246,12.246,0,0,1,23.013-5.839c-.9.436-1.775.912-2.624,1.434A9.252,9.252,0,1,0,36.363,29.589q-.653,1.359-1.166,2.759A12.239,12.239,0,0,1,27.545,21Zm11.378,4.157c-.3.438-.582.883-.858,1.329a5.75,5.75,0,1,1,6.963-7.859A29.86,29.86,0,0,0,38.923,25.157ZM41.245,55.7c-3.766-4.366-5.172-9.972-4.18-16.665a28.276,28.276,0,0,1,4.746-11.9,27.055,27.055,0,0,1,44.378,0,28.276,28.276,0,0,1,4.746,11.9c.992,6.693-.414,12.3-4.18,16.665C81.035,62.33,71.249,64.693,64,64.693S46.965,62.33,41.245,55.7ZM25.227,89a6.717,6.717,0,1,1-5.854-12.057l24.373-9.857a48.484,48.484,0,0,0-6.187,14.857Zm22.594,29.593c-1.66.6-10.142,3.081-14.012-7.554a19.8,19.8,0,0,1-.954-9.858,9.112,9.112,0,0,1,5.978-7.282,9.386,9.386,0,0,1,3.215-.576,9.1,9.1,0,0,1,6.044,2.311,19.813,19.813,0,0,1,5.607,8.165C57.57,114.43,49.482,117.983,47.821,118.588ZM64,114.074a29.238,29.238,0,0,1-6.439-.7c.879-2.648,1.091-6.2-.573-10.777A23.273,23.273,0,0,0,50.405,93a12.536,12.536,0,0,0-10.287-3.037c.177-11.921,6.789-21.612,9.095-24.633a39.644,39.644,0,0,0,29.574,0c2.306,3.021,8.918,12.712,9.095,24.634A12.524,12.524,0,0,0,77.6,93a23.26,23.26,0,0,0-6.583,9.595c-1.664,4.572-1.452,8.129-.573,10.777A29.245,29.245,0,0,1,64,114.074Zm31.144-12.9a19.793,19.793,0,0,1-.953,9.859c-3.871,10.636-12.352,8.158-14.012,7.554S70.43,114.43,74.3,103.794a19.8,19.8,0,0,1,5.607-8.165,9.249,9.249,0,0,1,15.236,5.546ZM112.2,86A6.719,6.719,0,0,1,102.772,89L90.441,81.938a48.484,48.484,0,0,0-6.187-14.857l24.374,9.857A6.719,6.719,0,0,1,112.2,86Z"/>
  </g>
</svg>
