<svg xmlns="http://www.w3.org/2000/svg" width="128" height="128" viewBox="0 0 128 128">
  <title>WEDDING</title>
  <g>
    <path d="M63.041,38.219a1.756,1.756,0,0,0,1.918,0C65.644,37.77,81.75,27.1,81.75,15.842A10.588,10.588,0,0,0,64,8.04a10.588,10.588,0,0,0-17.75,7.8C46.25,27.1,62.355,37.77,63.041,38.219ZM56.842,8.75a7.12,7.12,0,0,1,5.742,2.932,1.814,1.814,0,0,0,2.832,0,7.091,7.091,0,0,1,12.834,4.16c0,7.972-10.909,16.391-14.25,18.782-3.341-2.391-14.25-10.81-14.25-18.782A7.1,7.1,0,0,1,56.842,8.75Z"/>
    <path d="M116.389,88.588c2.015-2.937,4.816-8.98,3.842-19.166a40.322,40.322,0,0,0-10.339-22.674,14.417,14.417,0,0,0-5.371-6.6,13.188,13.188,0,0,0-12.021-1.2,13.187,13.187,0,0,0-12.023,1.2,14.423,14.423,0,0,0-5.369,6.6A40.32,40.32,0,0,0,64.769,69.422C63.8,79.608,66.6,85.651,68.611,88.588A11.01,11.01,0,0,0,64,92.626a10.99,10.99,0,0,0-7.288-4.893L48.276,86.2a6.842,6.842,0,0,0-1.413-2.432,1.749,1.749,0,0,0-1.992-.406l-1.564.7V80.262a20.768,20.768,0,0,0,6.452-8.732l3.039-.593a5.26,5.26,0,0,0,4.245-5.153V64.219a4.243,4.243,0,0,0-3.049-4.056V52.6A14.592,14.592,0,0,0,39.419,38.025H32.873a10.337,10.337,0,0,0-8.29,4.188l-.868,1.177-.722.2a8.186,8.186,0,0,0-5.987,7.867v8.706a4.242,4.242,0,0,0-3.049,4.056v1.565A5.26,5.26,0,0,0,18.2,70.937l3.039.593a20.768,20.768,0,0,0,6.452,8.732v3.794l-1.565-.7a1.751,1.751,0,0,0-1.992.406A6.826,6.826,0,0,0,22.724,86.2l-8.436,1.537A11.009,11.009,0,0,0,5.25,98.567V121a1.75,1.75,0,0,0,3.5,0V98.567a7.509,7.509,0,0,1,6.165-7.39l.229-.042-1.191,10.183a1.751,1.751,0,0,0,1.336,1.906l5.964,1.409-1.7,7.031a1.752,1.752,0,0,0,.772,1.895l14.25,8.924a1.75,1.75,0,0,0,1.858,0l14.25-8.924a1.752,1.752,0,0,0,.772-1.895l-1.7-7.031,5.964-1.409a1.751,1.751,0,0,0,1.336-1.906L55.856,91.135l.229.042a7.509,7.509,0,0,1,6.165,7.39V121a1.75,1.75,0,0,0,3.5,0V98.567a7.509,7.509,0,0,1,6.165-7.39l14.842-2.705a1.749,1.749,0,0,0,1.436-1.721v-4.49a12.252,12.252,0,0,0,8.614,0v4.49a1.749,1.749,0,0,0,1.436,1.721l14.842,2.705a7.509,7.509,0,0,1,6.165,7.39V121a1.75,1.75,0,0,0,3.5,0V98.567A11.007,11.007,0,0,0,116.389,88.588Zm-87,8.8,3.709-1.652a5.041,5.041,0,0,0,4.813,0l3.71,1.652L35.5,115.523ZM37.25,91.1a1.75,1.75,0,1,1-1.75-1.75A1.752,1.752,0,0,1,37.25,91.1Zm7.67-3.93a2.557,2.557,0,0,1-.632,2.753,1.751,1.751,0,0,0,0,2.354,2.55,2.55,0,0,1,.635,2.755l-4.545-2.024a5.079,5.079,0,0,0,0-3.816Zm8.623-21.384A1.755,1.755,0,0,1,52.128,67.5l-1.244.242a27.712,27.712,0,0,0,.566-4.275h1.343a.752.752,0,0,1,.75.75ZM23.927,46.963l1.3-.361a1.748,1.748,0,0,0,.942-.648L27.4,44.29a6.825,6.825,0,0,1,5.473-2.765h6.546A11.088,11.088,0,0,1,50.494,52.6v7.279L47.985,56.87v-4.6a1.749,1.749,0,0,0-1.75-1.75H24.765a1.749,1.749,0,0,0-1.75,1.75v4.6l-2.509,3.009V51.457A4.675,4.675,0,0,1,23.927,46.963ZM18.872,67.5a1.755,1.755,0,0,1-1.415-1.718V64.219a.752.752,0,0,1,.75-.75H19.55a27.712,27.712,0,0,0,.566,4.275Zm4.145-5.17,3.091-3.708a1.746,1.746,0,0,0,.407-1.121V54.017h17.97V57.5a1.746,1.746,0,0,0,.407,1.121l3.091,3.708c-.18,8.377-3.966,13.015-7.164,15.436a8.843,8.843,0,0,1-10.638,0C26.983,75.347,23.2,70.709,23.017,62.332Zm8.176,19.929a12.252,12.252,0,0,0,8.614,0v3.353l-1.9.846a5.039,5.039,0,0,0-4.814,0l-1.9-.846Zm-5.117,4.906,4.545,2.024a5.083,5.083,0,0,0,0,3.815l-4.544,2.023a2.546,2.546,0,0,1,.633-2.754,1.751,1.751,0,0,0,0-2.354A2.55,2.55,0,0,1,26.076,87.167Zm-1.217,15.252a1.747,1.747,0,0,0-1.089-.788l-6.16-1.455,1.135-9.7,3.906-.712A5.941,5.941,0,0,0,23.24,91.1a6.192,6.192,0,0,0,.9,7.335,1.747,1.747,0,0,0,1.992.4l.045-.02,6.1,18.1-9.028-5.654,1.821-7.515A1.748,1.748,0,0,0,24.859,102.419Zm28.531-2.243-6.161,1.455a1.752,1.752,0,0,0-1.3,2.116l1.821,7.515-9.028,5.654,6.1-18.1.044.019a1.747,1.747,0,0,0,1.992-.4,6.19,6.19,0,0,0,.9-7.335,5.987,5.987,0,0,0,.589-1.331l3.906.712Zm55.06-36.707h1.343a.752.752,0,0,1,.75.75v1.565a1.755,1.755,0,0,1-1.415,1.718l-1.244.242A27.712,27.712,0,0,0,108.45,63.469ZM82.414,43.059a9.831,9.831,0,0,1,9.371-.634,1.747,1.747,0,0,0,1.43,0,9.832,9.832,0,0,1,9.37.634c5.447,3.617,5.721,10.819,5.723,16.91h-.584a15.509,15.509,0,0,0-7.491-5.354c-4.966-1.842-6.011-5.081-6.047-5.2a1.75,1.75,0,0,0-3.373,0c-.008.033-1.053,3.345-6.046,5.2a15.509,15.509,0,0,0-7.491,5.354h-.584C76.694,53.878,76.968,46.676,82.414,43.059Zm-7.957,21.16a.752.752,0,0,1,.75-.75H76.55a27.712,27.712,0,0,0,.566,4.275L75.872,67.5a1.755,1.755,0,0,1-1.415-1.718ZM72.209,87.566c-1.406-1.632-5-6.944-3.956-17.811a35.29,35.29,0,0,1,5.087-14.78c-.137,1.918-.15,3.793-.147,5.525a4.236,4.236,0,0,0-2.236,3.719v1.565A5.26,5.26,0,0,0,75.2,70.937l3.039.593a20.768,20.768,0,0,0,6.452,8.732v5.029Zm14.972-9.8c-3.221-2.438-7.04-7.123-7.169-15.614.49-.768,2.1-2.821,5.971-4.258A14.6,14.6,0,0,0,92.5,53.378,14.6,14.6,0,0,0,99.017,57.9c3.878,1.439,5.482,3.492,5.971,4.258-.13,8.491-3.948,13.176-7.169,15.614A8.843,8.843,0,0,1,87.181,77.768Zm13.126,2.494a20.768,20.768,0,0,0,6.452-8.732l3.039-.593a5.26,5.26,0,0,0,4.245-5.153V64.219a4.236,4.236,0,0,0-2.236-3.719c0-1.732-.01-3.607-.147-5.525a35.29,35.29,0,0,1,5.087,14.78c1.039,10.867-2.55,16.179-3.956,17.811l-12.484-2.275Z"/>
    <path d="M101.636,99.523a12.32,12.32,0,0,0-9.136,3.752,12.322,12.322,0,0,0-9.136-3.752,12.077,12.077,0,0,0-10.68,5.784,1.745,1.745,0,0,0-.206.821V121a1.75,1.75,0,0,0,3.5,0V106.629a8.75,8.75,0,0,1,7.386-3.606,8.613,8.613,0,0,1,7.591,3.927,1.75,1.75,0,0,0,1.534.922H92.5a1.76,1.76,0,0,0,1.535-.91,8.614,8.614,0,0,1,7.6-3.939,8.75,8.75,0,0,1,7.385,3.6V121a1.75,1.75,0,0,0,3.5,0V106.128a1.744,1.744,0,0,0-.2-.821A12.077,12.077,0,0,0,101.636,99.523Z"/>
  </g>
</svg>
