<svg xmlns="http://www.w3.org/2000/svg" width="128" height="128" viewBox="0 0 128 128">
  <title>WIDOWED</title>
  <g>
    <path d="M93.645,75.005l-12.952-2.36A13.615,13.615,0,0,0,87.407,63.9a16.807,16.807,0,0,0-2.184-13.334L87.4,50.1a6.781,6.781,0,0,0,5.348-6.6V41.3a5.247,5.247,0,0,0-2.358-4.375v-.136c.021-9.312.049-22.067-9.91-28.683A17.879,17.879,0,0,0,64,6.581,17.87,17.87,0,0,0,47.518,8.105c-9.959,6.616-9.931,19.371-9.91,28.683v.136A5.247,5.247,0,0,0,35.25,41.3v2.2A6.781,6.781,0,0,0,40.6,50.1l2.179.464A16.8,16.8,0,0,0,40.593,63.9a13.618,13.618,0,0,0,6.714,8.746l-12.951,2.36A14.744,14.744,0,0,0,22.25,89.516V121a1.75,1.75,0,0,0,3.5,0V89.516a11.245,11.245,0,0,1,9.233-11.068l5.06-.922a14.124,14.124,0,0,0,.563,10.109,11.02,11.02,0,0,0,7.909,6.188,11.925,11.925,0,0,0,.241,8.754,8.583,8.583,0,0,0,8.1,4.883A9.322,9.322,0,0,0,64,103.824a9.322,9.322,0,0,0,7.148,3.636l.232,0a8.606,8.606,0,0,0,7.864-4.886,11.92,11.92,0,0,0,.241-8.754,11.019,11.019,0,0,0,7.909-6.189,14.121,14.121,0,0,0,.563-10.108l5.06.922a11.245,11.245,0,0,1,9.233,11.068V121a1.75,1.75,0,0,0,3.5,0V89.516A14.744,14.744,0,0,0,93.645,75.005ZM64,96.846a64.942,64.942,0,0,1-6.75-23.961v-7.3a16.582,16.582,0,0,0,13.5,0v7.3A64.942,64.942,0,0,1,64,96.846ZM45.762,38.217c.6-1.006,2.888-4.236,8.846-6.445A19.378,19.378,0,0,0,64,24.929a19.378,19.378,0,0,0,9.392,6.843c5.956,2.208,8.25,5.438,8.846,6.446-.126,12.329-5.674,19.131-10.345,22.668a13.125,13.125,0,0,1-15.786,0C51.436,57.349,45.888,50.547,45.762,38.217Zm38.261,24.79C82.4,69.142,77.3,70.7,74.25,71.07V63.483a28.365,28.365,0,0,0,8.368-10.467A13.221,13.221,0,0,1,84.023,63.007ZM89.25,43.5a3.266,3.266,0,0,1-2.575,3.179l-1.987.422A38.253,38.253,0,0,0,85.7,39.549h1.8a1.752,1.752,0,0,1,1.75,1.75ZM49.455,11.022c5.953-3.957,12.091-1.726,13.831-.947a1.75,1.75,0,0,0,1.428,0c1.74-.779,7.878-3.01,13.831.947,8.157,5.417,8.36,16.582,8.348,25.027H85c-1.14-1.726-4.093-5.223-10.393-7.559-7.345-2.722-8.865-7.576-8.922-7.766a1.75,1.75,0,0,0-3.372,0c-.014.049-1.467,5-8.922,7.766-6.3,2.336-9.253,5.833-10.393,7.559H41.107C41.1,27.6,41.3,16.439,49.455,11.022ZM38.75,43.5V41.3a1.752,1.752,0,0,1,1.75-1.75h1.8A38.253,38.253,0,0,0,43.312,47.1l-1.987-.422A3.266,3.266,0,0,1,38.75,43.5Zm5.227,19.505a13.218,13.218,0,0,1,1.405-9.99A28.365,28.365,0,0,0,53.75,63.483V71.07C50.7,70.7,45.6,69.141,43.977,63.006Zm12.789,40.955a5.165,5.165,0,0,1-4.856-2.9c-1.688-3.509.615-7.843.636-7.882a1.749,1.749,0,0,0-1.612-2.59,7.967,7.967,0,0,1-7.165-4.454c-1.8-3.8-.427-7.778.26-9.334L53.916,75a66.638,66.638,0,0,0,8.1,25.479A6.176,6.176,0,0,1,56.766,103.961ZM84.231,86.133a7.957,7.957,0,0,1-7.165,4.455,1.726,1.726,0,0,0-1.56.821,1.755,1.755,0,0,0-.055,1.765c.024.043,2.327,4.377.639,7.886a5.167,5.167,0,0,1-4.856,2.9,6.176,6.176,0,0,1-5.248-3.484A66.638,66.638,0,0,0,74.084,75l9.887,1.8C84.66,78.36,86.035,82.334,84.231,86.133Z"/>
    <circle cx="56.5" cy="37.799" r="2"/>
    <circle cx="71.5" cy="37.799" r="2"/>
    <path d="M60,55.1h8a1.75,1.75,0,0,0,0-3.5H60a1.75,1.75,0,0,0,0,3.5Z"/>
  </g>
</svg>
