<?xml version="1.0" encoding="iso-8859-1"?>
<!-- Uploaded to: SVG Repo, www.svgrepo.com, Generator: SVG Repo Mixer Tools -->
<svg fill="#000000" height="800px" width="800px" version="1.1" id="Layer_1" xmlns="http://www.w3.org/2000/svg" xmlns:xlink="http://www.w3.org/1999/xlink" 
	 viewBox="0 0 512 512" xml:space="preserve">
<g>
	<g>
		<path d="M409.064,252.746c-7.758,0-15.315,0.868-22.587,2.503l-13.88-34.34v-62.928c28.109-7.404,48.9-33.034,48.9-63.436v-7.772
			h29.853V53.382h-63.244v41.164c0,17.758-14.446,32.205-32.205,32.205c-17.758,0-32.204-14.446-32.204-32.205V53.381h-63.245
			v33.391h29.853v7.772c0,30.401,20.792,56.032,48.899,63.436v55.736l-110.388,57.797l-33.722-39.972h31.539V198.15H116.03v33.391
			h35.376l47.107,55.837l-13.057,6.836c-18.785-25.154-48.782-41.469-82.52-41.469C46.177,252.746,0,298.922,0,355.683
			S46.177,458.62,102.937,458.62c56.76,0,102.936-46.177,102.936-102.936c0-11.104-1.774-21.799-5.042-31.826l146.381-76.643
			l8.318,20.578c-29.605,18.098-49.405,50.725-49.405,87.89c0,56.76,46.177,102.936,102.936,102.936S512,412.443,512,355.683
			S465.823,252.746,409.064,252.746z M102.938,425.228c-38.348,0-69.546-31.197-69.546-69.545c0-38.348,31.198-69.545,69.545-69.545
			c20.873,0,39.613,9.256,52.371,23.864l-31.253,16.364c-5.946-4.295-13.239-6.836-21.118-6.836
			c-19.935-0.001-36.154,16.217-36.154,36.154s16.219,36.154,36.154,36.154c19.765,0,35.868-15.945,36.142-35.647l31.526-16.506
			c1.215,5.141,1.879,10.493,1.879,16C172.483,394.031,141.285,425.228,102.938,425.228z M409.064,425.228
			c-38.348,0-69.545-31.197-69.545-69.545c0-23.13,11.36-43.646,28.783-56.297l13.276,32.847
			c-5.398,6.319-8.668,14.506-8.668,23.448c0,19.936,16.219,36.154,36.154,36.154c19.935,0,36.154-16.217,36.154-36.153
			c0-18.767-14.375-34.236-32.691-35.985l-13.28-32.855c3.209-0.455,6.484-0.706,9.817-0.706c38.348,0,69.545,31.198,69.545,69.545
			C478.609,394.031,447.411,425.228,409.064,425.228z"/>
	</g>
</g>
</svg>