<?xml version="1.0" encoding="iso-8859-1"?>
<!-- Uploaded to: SVG Repo, www.svgrepo.com, Generator: SVG Repo Mixer Tools -->
<svg fill="#000000" height="800px" width="800px" version="1.1" id="Layer_1" xmlns="http://www.w3.org/2000/svg" xmlns:xlink="http://www.w3.org/1999/xlink" 
	 viewBox="0 0 512.001 512.001" xml:space="preserve">
<g>
	<g>
		<g>
			<path d="M411.564,248.074l-16.982-84.332c-0.073-0.362-0.176-0.712-0.265-1.068l22.199-4.764l-0.001-0.004
				c4.228-0.907,6.955-5.044,6.099-9.296l-17.636-87.58c-0.002-0.007-0.003-0.014-0.005-0.021c-0.041-0.202-0.095-0.398-0.151-0.594
				c-0.017-0.059-0.029-0.12-0.046-0.179c-0.063-0.205-0.139-0.402-0.218-0.598c-0.019-0.047-0.034-0.098-0.054-0.146
				c-0.066-0.158-0.146-0.309-0.223-0.462c-0.041-0.081-0.076-0.166-0.119-0.245c-0.038-0.069-0.083-0.132-0.122-0.199
				c-1.537-2.615-4.49-4.185-7.611-3.867c-0.005,0-0.011,0-0.017,0.001l-18.225,1.876c-4.347,0.447-7.51,4.335-7.061,8.682
				c0.419,4.072,3.856,7.103,7.862,7.103c0.271,0,0.546-0.014,0.82-0.042l11.075-1.14l14.674,72.874l-20.809,4.466
				c-4.107-2.964-9.116-4.704-14.451-4.704c-1.644,0-3.301,0.166-4.917,0.493c-6.493,1.307-12.089,5.065-15.755,10.581
				c-3.667,5.516-4.967,12.13-3.658,18.623l1.959,9.729l-139.928,39.425l-4.955-13.442c10.336-3.237,19.541-6.41,24.939-8.272
				l0.857-0.295c5.787-1.993,23.395-8.059,20.929-26.555c-1.64-12.296-11.677-20.242-25.571-20.242
				c-0.901,0-1.815,0.035-2.711,0.103c-2.12,0.16-5.955,0.363-10.811,0.619c-14.8,0.781-39.571,2.088-57.298,4.453
				c-8.094,1.078-15.283,5.246-20.244,11.732c-4.96,6.486-7.097,14.516-6.018,22.61c2.017,15.126,15.032,26.534,30.274,26.534
				c1.353,0,2.721-0.091,4.069-0.271c7.493-0.999,16.888-3.246,26.382-5.896l5.569,15.109c-0.697,0.559-1.369,1.151-2,1.783
				l-32.473,32.532c-16.348-9.96-34.968-15.208-54.265-15.208C46.955,247.981,0,294.936,0,352.652
				c0,57.716,46.955,104.672,104.672,104.672c57.716,0,104.672-46.955,104.672-104.672c0-0.077-0.003-0.154-0.003-0.231
				l43.596-10.733c2.739-0.674,5.328-1.804,7.73-3.382c0.015-0.01,0.03-0.019,0.044-0.029l55.095-36.35
				c-8.618,15.476-13.147,32.815-13.147,50.725c0,57.716,46.955,104.672,104.672,104.672c57.716,0,104.672-46.955,104.672-104.672
				C512,296.356,467.323,250.305,411.564,248.074z M159.366,203.972c-0.656,0.088-1.322,0.132-1.977,0.132
				c-7.342,0-13.613-5.502-14.586-12.797c-0.52-3.903,0.51-7.777,2.902-10.904c2.392-3.129,5.859-5.138,9.762-5.658
				c17.101-2.28,41.477-3.566,56.041-4.336c4.957-0.262,8.874-0.469,11.181-0.644c0.501-0.038,1.008-0.058,1.507-0.058
				c5.982,0,9.307,2.188,9.883,6.505c0.318,2.388,0.754,5.657-10.397,9.499l-0.86,0.297
				C211.706,189.841,177.877,201.502,159.366,203.972z M104.672,441.496c-48.989,0-88.844-39.855-88.844-88.844
				s39.855-88.844,88.844-88.844c15.074,0,29.661,3.772,42.704,10.962l-13.335,13.36c-9.181-4.185-19.219-6.384-29.369-6.384
				c-39.098,0-70.906,31.808-70.906,70.906s31.808,70.906,70.906,70.906c18.543,0,36.092-7.136,49.414-20.095
				c11.822-11.499,19.144-26.45,21.008-42.611l18.33-4.512C191.479,403.623,152.424,441.496,104.672,441.496z M83.077,364.841
				c4.39,7.778,12.663,12.609,21.591,12.609c1.992,0,3.988-0.242,5.93-0.721l47.764-11.759
				c-2.344,10.248-7.597,19.641-15.314,27.147c-10.35,10.068-23.98,15.612-38.378,15.612c-30.369,0.001-55.077-24.707-55.077-55.077
				c0-30.37,24.708-55.078,55.078-55.078c5.857,0,11.666,0.944,17.188,2.759l-34.738,34.801
				C79.295,342.977,77.632,355.192,83.077,364.841z M252.086,325.004c-0.047,0.03-0.095,0.06-0.142,0.092
				c-0.86,0.568-1.8,0.979-2.793,1.224l-142.334,35.042c-0.706,0.173-1.429,0.262-2.147,0.262c-3.228,0-6.219-1.748-7.807-4.562
				c-1.97-3.491-1.369-7.909,1.463-10.745L202.613,241.84c1.058-1.059,2.414-1.844,3.923-2.27c0.214-0.061,0.425-0.13,0.633-0.208
				l152.108-42.854c3.983-1.122,6.429-5.123,5.612-9.179l-3.407-16.92c-0.473-2.349-0.003-4.741,1.323-6.735
				c1.326-1.995,3.35-3.354,5.702-3.828c0.593-0.119,1.193-0.18,1.789-0.18c4.242,0,7.931,3.029,8.771,7.203l37.056,184.016
				c0.473,2.349,0.003,4.741-1.323,6.735c-1.326,1.995-3.35,3.354-5.7,3.828c-0.591,0.119-1.191,0.179-1.787,0.179
				c-4.244,0-7.934-3.028-8.774-7.202l-20.087-99.75c-0.52-2.58-2.288-4.732-4.717-5.744c-0.978-0.407-2.011-0.608-3.041-0.608
				c-1.528,0-3.046,0.442-4.359,1.308L252.086,325.004z M431.637,347.758l-9.709-48.211c23.387,6.456,40.478,28.023,40.478,53.106
				c0,30.37-24.708,55.078-55.078,55.078c-30.37,0-55.078-24.708-55.078-55.078c0-17.165,7.87-32.97,21.063-43.303l9.706,48.198
				c2.322,11.534,12.539,19.905,24.29,19.905c1.644,0,3.297-0.166,4.913-0.491c6.493-1.307,12.088-5.065,15.755-10.581
				C431.645,360.864,432.945,354.25,431.637,347.758z M407.328,441.496c-48.989,0-88.844-39.855-88.844-88.844
				c0-18.143,5.456-35.603,15.78-50.491c8.286-11.95,19.205-21.579,31.915-28.234l3.73,18.521
				c-20.797,12.912-33.487,35.459-33.487,60.205c0,39.098,31.808,70.906,70.906,70.906s70.906-31.808,70.906-70.906
				c0-34.948-25.775-64.584-59.708-70.006l-3.726-18.5c45.502,3.81,81.372,42.036,81.372,88.506
				C496.172,401.641,456.317,441.496,407.328,441.496z"/>
			<path d="M211.924,272.251c-1.198-2.186-3.355-3.68-5.824-4.032c-2.469-0.355-4.957,0.479-6.718,2.244l-45.677,45.76
				c-2.508,2.512-3.036,6.389-1.291,9.481c1.427,2.527,4.085,4.024,6.89,4.024c0.628,0,1.263-0.075,1.893-0.23l62.341-15.348
				c2.387-0.588,4.364-2.251,5.353-4.5s0.876-4.832-0.305-6.987L211.924,272.251z M197.448,304.275
				c-1.073-2.049-2.215-4.064-3.422-6.04l9.096-9.112l6.641,12.12L197.448,304.275z"/>
			<path d="M366.339,220.112c-1.623-3.549-5.591-5.387-9.343-4.326l-125.18,35.268c-2.321,0.654-4.218,2.33-5.151,4.554
				c-0.933,2.223-0.802,4.75,0.357,6.866l19.044,34.755c1.063,1.939,2.888,3.346,5.034,3.878c0.629,0.156,1.268,0.233,1.906,0.233
				c1.535,0,3.054-0.447,4.358-1.308l106.136-70.024C366.757,227.86,367.962,223.659,366.339,220.112z M255.817,282.09
				l-10.136-18.499l66.628-18.772L255.817,282.09z"/>
		</g>
	</g>
</g>
</svg>