<svg xmlns="http://www.w3.org/2000/svg" viewBox="0 0 64 64"><title>bicycle-bike-exercise-transport-cycling</title><g id="outline"><path d="M50,27a11.919,11.919,0,0,0-4.338.824L43.387,21H45a3,3,0,0,0,0-6H36v2h9a1,1,0,0,1,0,2H42a1,1,0,0,0-.949,1.316L41.612,22H24.248l-.765-1.955,2.966-.847A2.14,2.14,0,0,0,25.86,15H18.3a2.3,2.3,0,0,0-1.278,4.219l.112.074a6.989,6.989,0,0,0,3.879,1.177c.158,0,.315-.022.473-.033l1.13,2.887-3.135,5.015a12,12,0,1,0,6.1,13.722l1.443.254A3.992,3.992,0,0,0,31,46c.092,0,.179-.021.27-.027l.781,2.343A1,1,0,0,0,33,49h4V47H33.721l-.55-1.649a3.964,3.964,0,0,0,.8-6L42.92,25.923l.931,2.792A11.974,11.974,0,1,0,50,27ZM22.394,18.276a5,5,0,0,1-4.148-.647l-.111-.074A.3.3,0,0,1,18.3,17H25.86a.14.14,0,0,1,.038.275ZM13.086,39.407a1,1,0,0,0,.74.578l5.82,1.027a6,6,0,1,1-3.36-7.557L13.152,38.47A1,1,0,0,0,13.086,39.407Zm2.548-1.134,2.345-3.752A5.984,5.984,0,0,1,20,39c0,.015,0,.029,0,.043ZM14,49a10,10,0,1,1,4.419-18.957l-1.065,1.7A8,8,0,1,0,14,47a8.015,8.015,0,0,0,7.643-5.636l1.973.349A10.01,10.01,0,0,1,14,49Zm9.962-9.257-1.982-.35c.007-.131.02-.26.02-.393a7.987,7.987,0,0,0-2.948-6.2l1.062-1.7A9.979,9.979,0,0,1,24,39C24,39.251,23.981,39.5,23.962,39.743Zm3.407.6-1.424-.251c.032-.361.055-.724.055-1.093a11.977,11.977,0,0,0-4.824-9.595l2.351-3.761,5.136,13.124A4.03,4.03,0,0,0,27.369,40.344Zm1.76,2.341,1.111.2.359,1.078A2,2,0,0,1,29.129,42.685Zm1.4-1.783-1.051-.186A1.988,1.988,0,0,1,31,40c.042,0,.082.01.123.012Zm1.963,2.415-.39-1.169.685-1.027a1.95,1.95,0,0,1-.295,2.2Zm-.186-5.08A3.968,3.968,0,0,0,31,38a3.853,3.853,0,0,0-.471.048L25.031,24H41.8Zm13.879-3.866a36.819,36.819,0,0,0,4.033,6.254l1.562-1.25a34.7,34.7,0,0,1-3.857-6,5.979,5.979,0,1,1-1.738.993ZM50,49a9.993,9.993,0,0,1-5.473-18.359q.363.96.78,1.894a7.989,7.989,0,1,0,1.755-.969c-.267-.609-.512-1.229-.744-1.855A10,10,0,1,1,50,49Z"/></g></svg>