<svg xmlns="http://www.w3.org/2000/svg" viewBox="0 0 64 64"><title>cycling-shirt-riding-bicycle-wear</title><g id="outline"><path d="M8.876,30.992l7.386.924L17,35.092,16,57.957a1,1,0,0,0,.8,1.023l15,3a.97.97,0,0,0,.392,0l15-3a1,1,0,0,0,.8-1.023l-.994-22.865.733-3.176,7.386-.924A1,1,0,0,0,56,29.941L55.252,17.27a6.987,6.987,0,0,0-5.183-6.353L40,8.232V4a1,1,0,0,0-.8-.98l-3.039-.608a21.3,21.3,0,0,0-8.314,0L24.8,3.02A1,1,0,0,0,24,4V8.232L13.931,10.917A6.987,6.987,0,0,0,8.748,17.27L8,29.941A1,1,0,0,0,8.876,30.992ZM31,59.78,18.036,57.188l.085-1.944L31,57.82ZM18.209,53.222l.605-13.92A45.24,45.24,0,0,1,21.746,52l.164,1.965ZM31,55.78l-7.049-1.41-.212-2.539a47.228,47.228,0,0,0-4.788-17.159l-.9-3.9a.889.889,0,0,0-.137-.3l-.879-4.392A30.236,30.236,0,0,1,27.1,11.965l.9-.7a16.025,16.025,0,0,0,3,.67Zm2,4V57.82l12.879-2.576.085,1.944Zm9.09-5.818L42.254,52A45.24,45.24,0,0,1,45.186,39.3l.6,13.92Zm3.992-23.5a1.016,1.016,0,0,0-.134.315l-.9,3.9a47.228,47.228,0,0,0-4.788,17.159l-.212,2.539L33,55.78V11.937a16.025,16.025,0,0,0,3-.67l.9.7A30.235,30.235,0,0,1,46.906,25.928ZM39.1,10.061l10.455,2.788a4.992,4.992,0,0,1,3.7,4.538l.691,11.737-5.72.715,1.757-9.66-1.968-.358-.446,2.452a32.193,32.193,0,0,0-9.363-11.818C38.582,10.3,38.883,10.161,39.1,10.061ZM26,4.82l2.235-.447a19.277,19.277,0,0,1,7.53,0L38,4.82v.36l-2.235.447a19.277,19.277,0,0,1-7.53,0L26,5.18Zm0,2.4,1.843.368A21.255,21.255,0,0,0,32,8a21.255,21.255,0,0,0,4.157-.412L38,7.22V8.363a19.921,19.921,0,0,1-5,1.563V8H31V9.926a20.059,20.059,0,0,1-5-1.563ZM10.744,17.387a4.992,4.992,0,0,1,3.7-4.538L24.9,10.061c.215.1.516.236.891.394a32.193,32.193,0,0,0-9.472,12.053l-.341-1.7-1.96.392,1.727,8.64-5.694-.712Z"/></g></svg>