<svg xmlns="http://www.w3.org/2000/svg" viewBox="0 0 64 64"><title>cycling-short-riding-bicycle-wear</title><g id="outline"><path d="M7.267,61.68A1,1,0,0,0,8,62H24a1,1,0,0,0,.979-.8L30.814,33h2.372l5.835,28.2A1,1,0,0,0,40,62H56a1,1,0,0,0,1-1.075L53,8V3a1,1,0,0,0-1-1H12a1,1,0,0,0-1,1l0,4.925-4,53A.993.993,0,0,0,7.267,61.68ZM34.979,31.8A1,1,0,0,0,34,31H30a1,1,0,0,0-.979.8L28.2,35.782l-2-2A7.485,7.485,0,0,1,31.485,21h1.03a7.485,7.485,0,0,1,5.293,12.778l-2,2ZM54.922,60H40.814L40.4,58h14.37ZM52.2,23.905,54.62,56H44.194c.061-.54.122-1.1.185-1.689A90.579,90.579,0,0,1,49.015,32.4c.688-1.971,1.394-3.8,2.076-5.573C51.485,25.8,51.851,24.841,52.2,23.905ZM51,8.075l.8,10.6a71.287,71.287,0,0,1-2.577,7.43c-.689,1.786-1.4,3.632-2.1,5.636A92.252,92.252,0,0,0,42.391,54.1c-.072.671-.141,1.3-.21,1.9H39.987l-3.7-17.875,2.933-2.933A9.476,9.476,0,0,0,33,19.025V8H51ZM13,4H51V6H13Zm0,4H31V19.025a9.476,9.476,0,0,0-6.222,16.167l2.933,2.933L24.013,56H21.889c-.069-.6-.138-1.23-.209-1.9a92.328,92.328,0,0,0-4.736-22.358c-.71-2.043-1.435-3.923-2.136-5.741a68.046,68.046,0,0,1-2.6-7.529ZM11.813,23.739c.354.955.726,1.935,1.129,2.981.7,1.8,1.413,3.666,2.114,5.678a90.582,90.582,0,0,1,4.635,21.913c.063.591.124,1.149.185,1.689H9.38ZM9.229,58H23.6l-.413,2H9.078Z"/></g></svg>