<svg xmlns="http://www.w3.org/2000/svg" viewBox="0 0 64 64"><title>derailleur-device-change-gear-bicycle</title><g id="outline"><path d="M5.293,19.707A1,1,0,0,0,6,20H8.607L21.168,31.662A4.977,4.977,0,0,0,24.57,33H32a1,1,0,0,0,.614-.21l8.444-6.567c.022.041.048.079.071.119L32.17,41.607l-.642-1.026a.99.99,0,0,0-1-.458l-.176.025c-.148.021-.3.042-.432.071a8.723,8.723,0,0,0-.982.26,1,1,0,0,0-.683.817l-.242,1.779a7.919,7.919,0,0,0-1.327.95l-1.658-.379A1,1,0,0,0,24,44.014a9.523,9.523,0,0,0-.938,1.508,1,1,0,0,0,.106,1.064l.52.664L15.572,51.1a1,1,0,0,0-.552,1.1l1,5a1,1,0,0,0,.751.778l17,4A1.044,1.044,0,0,0,34,62a.993.993,0,0,0,.515-.143l5-3a1,1,0,0,0,.414-1.229l-.482-1.2a.972.972,0,0,0,.46-.308,9.6,9.6,0,0,0,.86-1.326,1,1,0,0,0-.088-1.095l-1.037-1.333a8.092,8.092,0,0,0,.337-1.8l1.454-.891a1,1,0,0,0,.469-.978c-.033-.266-.068-.522-.125-.8-.055-.256-.132-.514-.211-.771a1,1,0,0,0-.831-.7l-.283-.036L52.842,40.2a12.872,12.872,0,0,0,7.147-11.261A12.993,12.993,0,0,0,49,9c-.334,0-.668.016-1,.041V9a1,1,0,0,0-1-1,13.812,13.812,0,0,0-7.866,2.446L27.067,18.74l-4.82-4.134A4.948,4.948,0,0,0,23,12h2.54a6,6,0,1,0,0-8H20.3a3.005,3.005,0,0,0-2.744,1.785L16.97,7.109A4.991,4.991,0,0,0,14.026,9H8A3,3,0,0,0,2,9v7a1,1,0,0,0,.293.707ZM42.408,28.1a8.95,8.95,0,0,0,3.745,2.422l-5.348,8.621-4.213,2a.993.993,0,0,0-.966.124l-1.173.889-.315.15-.05-.013ZM49,34c.287,0,.563-.021.839-.043a1,1,0,0,0,.878-.707l.555-1.833a9.946,9.946,0,0,0,1.58-.5l1.264.939a35.87,35.87,0,0,1-6.776,4.189l-3.2,1.517,2.992-4.824.154.509a1,1,0,0,0,.878.707C48.437,33.979,48.713,34,49,34Zm-.313-3.013c.1,0,.209.013.313.013s.209-.012.314-.016L49.006,32h-.012ZM29.921,43.854l.222-1.638.043-.01.826,1.323a.977.977,0,0,0,.149.183l-1.551.735A1,1,0,0,0,29.921,43.854Zm-4.687,1.892,1.1.252-.791.375-.39-.5C25.181,45.831,25.207,45.788,25.234,45.746Zm13.388,8.615-.043-.108.092.12Zm-.144-5.223A1,1,0,0,0,38,49.99v0a5.927,5.927,0,0,0-.418-2.168l.061-.03a.992.992,0,0,0,.622.335l1.537.194Zm13.47-10.73L35.794,46.485a1,1,0,0,0-.4,1.421,3.934,3.934,0,0,1,.281,3.675,1,1,0,0,0-.01.767l2.093,5.233-3.922,2.353-15.979-3.76-.72-3.6L48.2,37.855a37.794,37.794,0,0,0,9.418-6.338A10.885,10.885,0,0,1,51.948,38.408Zm2.179-9.032c.183-.128.366-.258.54-.4l.4,1.1Zm4.8-8.152.973-.646a10.075,10.075,0,0,1,0,2.846l-.977-.648c.024-.271.036-.525.036-.776S58.948,21.5,58.924,21.224ZM57.679,19.65c-.064-.232-.136-.46-.218-.684l1.3-.034Zm1.083,5.418-1.3-.034c.081-.224.151-.453.215-.685ZM57,14.471a11.041,11.041,0,0,1,1.754,2.46l-1.247.033a9.683,9.683,0,0,0-.953-1.273Zm.507,12.565,1.256.033a10.8,10.8,0,0,1-.582.98l-.012.013-.105.164-.021.031c-.026.038-.049.077-.075.114-.333.349-.674.687-1.018,1.02l-.4-1.082A9.683,9.683,0,0,0,57.505,27.036ZM55.068,13.925l-.417,1.141q-.27-.218-.559-.416ZM54.01,12.219l-1.158.861a9.946,9.946,0,0,0-1.58-.5l-.429-1.416A10.914,10.914,0,0,1,54.01,12.219ZM48.994,12h.012l.309,1.021q-.313-.012-.63,0ZM28,20.526l12.267-8.432A11.806,11.806,0,0,1,46,10.042V14.26a1,1,0,0,0,1.247.969,6.611,6.611,0,0,1,3.987.169A6.981,6.981,0,0,1,49,29a6.792,6.792,0,0,1-1.124-.1,6.949,6.949,0,0,1-4.7-3.03,1.032,1.032,0,0,0-.06-.1,6.144,6.144,0,0,1-.654-1.274,1,1,0,0,0-1.208-.609l-.529.15a1.009,1.009,0,0,0-.343.173L31.657,31H28ZM30,4a4,4,0,1,1-4,4A4,4,0,0,1,30,4ZM26,20.46v5.126l-3.707-3.707A1,1,0,0,1,22,21.171V17.029ZM19.384,6.6A1,1,0,0,1,20.3,6h4.05a5.889,5.889,0,0,0,0,4H22.576a5.008,5.008,0,0,0-3.434-2.856ZM18,9a3,3,0,1,1-3,3A3,3,0,0,1,18,9ZM8,11h5.1a5,5,0,0,0,0,2H8.414L8,12.586ZM5,8A1,1,0,1,1,4,9,1,1,0,0,1,5,8ZM4,11.816A2.966,2.966,0,0,0,5,12a2.966,2.966,0,0,0,1-.184V13a1,1,0,0,0,.293.707l1,1A1,1,0,0,0,8,15h6.026A4.942,4.942,0,0,0,20,16.576v4.595a2.978,2.978,0,0,0,.879,2.122L26,28.414V31H24.57a2.982,2.982,0,0,1-2.04-.8L9.68,18.267A1,1,0,0,0,9,18H6.414L4,15.586Z"/><circle cx="30" cy="8" r="2"/><rect x="17" y="11" width="2" height="2"/><path d="M48.677,25.987C48.787,26,48.9,26,49,26a4,4,0,1,0-.326-.013ZM49,20c.054,0,.108,0,.163.006A2.008,2.008,0,1,1,49,20Z"/><path d="M33.89,54.533a1,1,0,0,0-1.119-.611,3.956,3.956,0,0,1-4.528-2.608,1,1,0,0,0-1.35-.583l-5.3,2.355a1,1,0,0,0,.189,1.89l9,2A1,1,0,0,0,31,57a1.009,1.009,0,0,0,.447-.1l2-1a1,1,0,0,0,.482-1.266Zm-8.712-.851,1.625-.723a6.016,6.016,0,0,0,1,1.306Z"/><rect x="31" y="49" width="2" height="2"/><rect x="39.99" y="14.277" width="2.196" height="2" transform="translate(-1.556 25.432) rotate(-33.791)"/><rect x="29.88" y="18.66" width="9.315" height="2" transform="translate(-5.1 22.527) rotate(-33.788)"/></g></svg>