<svg xmlns="http://www.w3.org/2000/svg" viewBox="0 0 64 64"><title>folding-bikes-bicycle-riding-cycling</title><g id="outline"><path d="M52,34a9.937,9.937,0,0,0-4.654,1.156,12.183,12.183,0,0,1-1.373-3.386h0s0-.008,0-.013l-.995-3.982L43.654,22.05l1.238-.258-.409-1.959L43.2,20.1l-1.139-4.935A2.992,2.992,0,1,0,40,16c.068,0,.132-.016.2-.02l1.045,4.53-2.45.511a1,1,0,0,0-.765,1.222l1,4,1.94-.486-.748-2.991,1.473-.307,1.117,4.84L23.871,32.711,19.09,21.024,19.162,21H21.5a2.5,2.5,0,0,0,0-5H13a2,2,0,0,0-2,2,3.554,3.554,0,0,0,2.7,3.455l.929.233a4.822,4.822,0,0,0,2.554-.048l4.847,11.846L18.371,36.3a10,10,0,1,0,3.58,8.665l1.439-.27a3.965,3.965,0,0,0,4.446,2.215l1.269,2.538A1,1,0,0,0,30,50h3V48H30.618l-1-2a3.951,3.951,0,0,0-.183-6.151l1.048-2.45,3.044-.913.248.868-2.091.7.632,1.9,3-1a1,1,0,0,0,.645-1.224l-.518-1.814,8.874-2.662a14.184,14.184,0,0,0,1.362,3.01A9.993,9.993,0,1,0,52,34ZM40,14a1,1,0,1,1,1-1A1,1,0,0,1,40,14ZM18.684,19.051l-1.895.632a3,3,0,0,1-1.676.064l-.93-.232A1.559,1.559,0,0,1,13,18h8.5a.5.5,0,0,1,0,1H19A1,1,0,0,0,18.684,19.051ZM12,52a8,8,0,1,1,4.729-14.438l-1.671,1.285a5.995,5.995,0,1,0,2.679,6.907l2.14-.4A8.007,8.007,0,0,1,12,52ZM9.39,43.208a1,1,0,0,0-.285,1.239l1,2A1,1,0,0,0,11,47a.955.955,0,0,0,.184-.017l4.148-.778A4,4,0,1,1,12,40a3.946,3.946,0,0,1,1.267.225Zm3.95,1.336-1.783.334-.294-.588,1.511-1.162Zm1.082-2.684.595-.457A3.965,3.965,0,0,1,16,44c0,.016,0,.03-.005.046l-.651.122Zm3.561,1.813a5.97,5.97,0,0,0-1.367-3.5L18.2,38.954A7.962,7.962,0,0,1,19.965,43.3Zm5.045-.946-1.087.2a9.946,9.946,0,0,0-2.158-5.195l3.03-2.33,1.8,4.4A3.977,3.977,0,0,0,23.028,42.727ZM25.493,44.3l.95-.178.433.865A1.979,1.979,0,0,1,25.493,44.3Zm-.371-1.965a2.009,2.009,0,0,1,.3-.55l.188.458ZM27.6,39.06A4.038,4.038,0,0,0,27,39a3.927,3.927,0,0,0-.534.054l-.164-.4,1.686-.5ZM28.668,44.1,28.1,42.967l.5-1.158a1.973,1.973,0,0,1,.071,2.29Zm-3.126-7.306-.909-2.22,7.718-2.2.627,2.194Zm9.352-2.8-.62-2.169,9.007-2.573.517,2.07Zm15.852,6.233A3.947,3.947,0,0,1,52,40a4.036,4.036,0,1,1-2.936,1.3l2.171,3.2,1.655-1.125ZM52,52a7.99,7.99,0,0,1-5.217-14.051l1.133,1.668a5.977,5.977,0,1,0,1.668-1.1l-1.135-1.67A8,8,0,1,1,52,52Z"/></g></svg>