<?xml version="1.0" encoding="iso-8859-1"?>
<!-- Uploaded to: SVG Repo, www.svgrepo.com, Generator: SVG Repo Mixer Tools -->
<svg fill="#000000" height="800px" width="800px" version="1.1" id="Layer_1" xmlns="http://www.w3.org/2000/svg" xmlns:xlink="http://www.w3.org/1999/xlink" 
	 viewBox="0 0 512 512" xml:space="preserve">
<g>
	<g>
		<path d="M492.553,0h-63.505c-9.907,0-18.014,7.475-19.209,17.067h-42.906c-0.23,0-0.435,0.111-0.657,0.137
			c-0.58,0.043-1.126,0.171-1.698,0.341c-0.555,0.162-1.075,0.341-1.579,0.606c-0.213,0.111-0.444,0.12-0.649,0.247L281.6,69.786
			V51.2c0-4.71-3.814-8.533-8.533-8.533h-34.133c-4.719,0-8.533,3.823-8.533,8.533v18.586l-80.751-51.388
			c-0.205-0.128-0.435-0.137-0.64-0.247c-0.512-0.265-1.041-0.444-1.604-0.614c-0.555-0.154-1.092-0.29-1.655-0.333
			c-0.239-0.017-0.435-0.137-0.683-0.137h-42.906C100.966,7.475,92.86,0,82.953,0H19.447C8.721,0,0,8.721,0,19.447v12.305
			C0,42.479,8.721,51.2,19.447,51.2h63.505c9.907,0,18.014-7.475,19.209-17.067h40.414L230.4,90.018V102.4
			c0,4.71,3.814,8.533,8.533,8.533h8.533v11.793l-46.481,23.236c-2.893,1.451-4.719,4.403-4.719,7.637v25.6H179.2
			c-4.719,0-8.533,3.823-8.533,8.533v85.333c0,2.961,1.536,5.7,4.053,7.262c1.365,0.845,2.918,1.271,4.48,1.271
			c1.306,0,2.611-0.299,3.814-0.896l13.252-6.63v50.193h-25.6c-4.719,0-8.533,3.823-8.533,8.533V384h-25.839
			c-1.195-9.591-9.301-17.067-19.209-17.067H79.181c-10.726,0-19.447,8.721-19.447,19.447v12.305
			c0,10.726,8.721,19.447,19.447,19.447h37.905c9.907,0,18.014-7.475,19.209-17.067h34.372c4.719,0,8.533-3.823,8.533-8.533v-51.2
			h17.067v59.733c0,3.234,1.826,6.187,4.719,7.637l29.414,14.703V486.4c0,14.114,11.486,25.6,25.6,25.6s25.6-11.486,25.6-25.6
			v-62.993l29.414-14.703c2.893-1.451,4.719-4.403,4.719-7.637v-59.733H332.8v51.2c0,4.71,3.814,8.533,8.533,8.533h34.372
			c1.195,9.591,9.301,17.067,19.208,17.067h37.905c10.726,0,19.447-8.721,19.447-19.447v-12.305
			c0-10.726-8.721-19.447-19.447-19.447h-37.905c-11.631,0-19.447,6.861-19.447,17.067h-25.6v-51.2c0-4.71-3.814-8.533-8.533-8.533
			h-25.6v-50.193l13.252,6.63c1.203,0.597,2.509,0.896,3.814,0.896c1.562,0,3.115-0.427,4.48-1.271
			c2.517-1.562,4.053-4.301,4.053-7.262v-85.333c0-4.71-3.814-8.533-8.533-8.533h-17.067v-25.6c0-3.234-1.826-6.187-4.719-7.637
			l-46.481-23.236v-11.793h8.533c4.719,0,8.533-3.823,8.533-8.533V90.018l87.825-55.885h40.414
			c1.195,9.591,9.301,17.067,19.209,17.067h63.505C503.279,51.2,512,42.479,512,31.753V19.447C512,8.721,503.279,0,492.553,0z
			 M298.667,158.874V179.2H281.6c-4.719,0-8.533,3.823-8.533,8.533v59.733c0,3.234,1.826,6.187,4.719,7.637l20.881,10.436v130.253
			l-17.067,8.533V290.133c0-14.114-11.486-25.6-25.6-25.6s-25.6,11.486-25.6,25.6v114.193l-17.067-8.533V265.54l20.881-10.436
			c2.893-1.451,4.719-4.403,4.719-7.637v-59.733c0-4.71-3.814-8.533-8.533-8.533h-17.067v-20.326L256,137.54L298.667,158.874z"/>
	</g>
</g>
</svg>