<svg xmlns="http://www.w3.org/2000/svg" viewBox="0 0 64 64"><title>glasses-bicycle-riding-cyclist-bike</title><g id="outline"><path d="M51.079,2.024a1,1,0,0,0-.734.668,8.88,8.88,0,0,0,1.243,7.852C54.681,15,56,20.112,56,27.641v9.775l-7.706-2.372A1.007,1.007,0,0,0,48,35H16a1.007,1.007,0,0,0-.294.044L8,37.416V27.641C8,20.112,9.319,15,12.412,10.544a8.88,8.88,0,0,0,1.243-7.852,1,1,0,0,0-1.682-.374A37.016,37.016,0,0,0,2,27.641V40c0,.01.007.019.007.03s-.005.027,0,.041l1,14a1,1,0,0,0,.6.845l16,7a1,1,0,0,0,.877-.037l5.538-3a1,1,0,0,0,.419-.435L30.62,50h2.76l4.186,8.444a1,1,0,0,0,.419.435l5.538,3A1.009,1.009,0,0,0,44,62a.993.993,0,0,0,.4-.084l16-7a1,1,0,0,0,.6-.845l1-14c0-.014,0-.027,0-.041S62,40.01,62,40V27.641A37.016,37.016,0,0,0,52.027,2.318,1,1,0,0,0,51.079,2.024ZM12.073,5.23A7.1,7.1,0,0,1,10.77,9.4a25.3,25.3,0,0,0-4.2,10.615L4.436,22.15A34.974,34.974,0,0,1,12.073,5.23ZM4,27.641c0-.774.033-1.543.083-2.31l2.086-2.086C6.057,24.625,6,26.083,6,27.641V38.03l-2,.616ZM59.046,53.326l-15,6.562-4.83-2.616L34.9,48.556A1,1,0,0,0,34,48H30a1,1,0,0,0-.9.556l-4.321,8.716-4.83,2.616-15-6.562-.9-12.6L16.15,37h31.7l12.1,3.722ZM60,27.641V38.646l-2-.616V27.641A48.462,48.462,0,0,0,57.586,21l2.124,2.124A35.471,35.471,0,0,1,60,27.641Zm-3.095-10.15A24.5,24.5,0,0,0,53.23,9.4a7.1,7.1,0,0,1-1.3-4.174,35,35,0,0,1,7.157,14.439Z"/><rect x="7.09" y="46.366" width="2.001" height="5.455" transform="matrix(0.997, -0.081, 0.081, 0.997, -3.963, 0.82)"/><rect x="6.559" y="42.244" width="1.999" height="2.326" transform="translate(-4.475 1.022) rotate(-5.972)"/></g></svg>