<svg xmlns="http://www.w3.org/2000/svg" viewBox="0 0 64 64"><title>handlebar-bicycle-parts-bar-grips</title><g id="outline"><path d="M2.757,18.97l13.9,3.474a6.831,6.831,0,0,1,3.171,1.8L21,25.415A8.766,8.766,0,0,0,27.242,28h10a8.779,8.779,0,0,0,6.891-3.312,6.87,6.87,0,0,1,3.676-2.359L61.243,18.97A1,1,0,0,0,62,18V14a1,1,0,0,0-1.206-.979L43.529,16.656a6.95,6.95,0,0,0-3.489,1.891A4.932,4.932,0,0,1,36.53,20H27.47a4.928,4.928,0,0,1-3.509-1.453,6.957,6.957,0,0,0-3.49-1.891L3.206,13.021A1,1,0,0,0,2,14v4A1,1,0,0,0,2.757,18.97ZM4,15.232l16.059,3.381a4.946,4.946,0,0,1,2.487,1.348A6.911,6.911,0,0,0,27,21.977V23h2V22h2v1h2V22h2v1h2V21.977a6.911,6.911,0,0,0,4.454-2.016,4.946,4.946,0,0,1,2.487-1.348L60,15.232v1.987L47.32,20.39a8.871,8.871,0,0,0-4.751,3.048A6.793,6.793,0,0,1,37.239,26H37V25H35v1H33V25H31v1H29V25H27v.988A6.771,6.771,0,0,1,22.415,24L21.24,22.826a8.822,8.822,0,0,0-4.1-2.321L4,17.22Z"/><path d="M2.7,31.954l20.828,6.525A6.962,6.962,0,0,0,26.18,39H37.82a6.79,6.79,0,0,0,2.571-.492L61.3,31.954A1,1,0,0,0,62,31V27a1,1,0,0,0-1.222-.976L38.888,31H25.112L3.222,26.024A1,1,0,0,0,2,27v4A1,1,0,0,0,2.7,31.954Zm1.3-3.7,20.778,4.723A1.1,1.1,0,0,0,25,33h2v1h2V33h2v1h2V33h2v1h2V33h2a1.1,1.1,0,0,0,.222-.024L60,28.253v2.013L39.713,36.628A4.97,4.97,0,0,1,37.82,37H37V36H35v1H33V36H31v1H29V36H27v1h-.82a5.162,5.162,0,0,1-1.972-.4L4,30.266Z"/><path d="M2.787,45.978l20.826,4.535A6.973,6.973,0,0,0,26.18,51H37.82a6.973,6.973,0,0,0,2.567-.487l20.826-4.535A1,1,0,0,0,62,45V41a1,1,0,0,0-1.135-.991L38.932,43H25.068L3.135,40.009A1,1,0,0,0,2,41v4A1,1,0,0,0,2.787,45.978ZM4,42.146l20.865,2.845A1.02,1.02,0,0,0,25,45h2v1h2V45h2v1h2V45h2v1h2V45h2a1.02,1.02,0,0,0,.135-.009L60,42.146v2.048L39.879,48.576a1.065,1.065,0,0,0-.166.052A4.97,4.97,0,0,1,37.82,49H37V48H35v1H33V48H31v1H29V48H27v1h-.82a4.97,4.97,0,0,1-1.893-.372,1.065,1.065,0,0,0-.166-.052L4,44.194Z"/></g></svg>