<svg xmlns="http://www.w3.org/2000/svg" viewBox="0 0 64 64"><title>pedal-bicycle-parts-bike-accessories</title><g id="outline"><path d="M61,28H56V26a1,1,0,0,0-1-1H50V14a1,1,0,0,0-1-1H45.781L44.97,9.758A1,1,0,0,0,44,9H40a1,1,0,0,0-.97.758L38.219,13H35.781L34.97,9.758A1,1,0,0,0,34,9H30a1,1,0,0,0-.97.758L28.219,13H25.781L24.97,9.758A1,1,0,0,0,24,9H20a1,1,0,0,0-.97.758L18.219,13H15.781L14.97,9.758A1,1,0,0,0,14,9H10a1,1,0,0,0-.97.758l-.822,3.287A7.009,7.009,0,0,0,2,20V47a8.009,8.009,0,0,0,8,8H49a1,1,0,0,0,1-1V39h5a1,1,0,0,0,1-1V36h5a1,1,0,0,0,1-1V29A1,1,0,0,0,61,28ZM44,53H11V47H44Zm4,0H46V46a1,1,0,0,0-1-1H10a1,1,0,0,0-1,1v6.91A6.006,6.006,0,0,1,4,47V40.9c.009.009.02.017.029.027.078.078.161.15.242.224s.168.159.257.233.175.134.263.2.182.142.278.208.189.117.283.175.195.124.3.18.205.1.308.151.2.1.306.148.227.085.341.126.2.08.305.112c.126.04.256.068.385.1.1.024.191.054.289.074.147.031.3.049.449.07.084.011.165.029.25.038A7.106,7.106,0,0,0,9,43a1,1,0,0,0,.97-.758L10.781,39h2.438l.811,3.242A1,1,0,0,0,15,43h4a1,1,0,0,0,.97-.758L20.781,39h2.438l.811,3.242A1,1,0,0,0,25,43h4a1,1,0,0,0,.97-.758L30.781,39h2.438l.811,3.242A1,1,0,0,0,35,43h4a1,1,0,0,0,.97-.758L40.781,39h2.438l.811,3.242A1,1,0,0,0,45,43h3ZM9,25h4a1,1,0,0,1,1,1V36a1,1,0,0,1-1,1H9a1,1,0,0,1-1-1V26A1,1,0,0,1,9,25ZM8,23.184V20a1,1,0,0,1,1-1h4a1,1,0,0,1,1,1v3.184A2.966,2.966,0,0,0,13,23H9A2.966,2.966,0,0,0,8,23.184ZM34,37H21V36a3,3,0,0,1,3-3H39.993a3,3,0,0,1,3,3v1H34Zm4.719,2-.5,2H35.781l-.5-2Zm-10,0-.5,2H25.781l-.5-2ZM54,29v8H50V29H48V41H45.781l-.788-3.15V36a5.006,5.006,0,0,0-5-5H24a5.006,5.006,0,0,0-5,5v1.877L18.219,41H15.781l-.71-2.839A2.985,2.985,0,0,0,16,36V20a3,3,0,0,0-3-3H9a3,3,0,0,0-3,3V36a2.993,2.993,0,0,0,2.726,2.972l-.488,1.951c-.043-.007-.089-.006-.132-.013-.129-.024-.252-.061-.378-.094a5.194,5.194,0,0,1-.527-.164c-.124-.048-.242-.105-.361-.163a4.98,4.98,0,0,1-.466-.253c-.113-.07-.222-.145-.328-.223-.141-.1-.275-.217-.405-.335-.1-.088-.192-.178-.282-.274a5.158,5.158,0,0,1-.339-.41c-.077-.1-.156-.2-.226-.312a4.9,4.9,0,0,1-.265-.489c-.055-.11-.115-.217-.161-.331a5,5,0,0,1-.185-.595c-.027-.1-.065-.2-.086-.3A5.005,5.005,0,0,1,4,36V20a5.006,5.006,0,0,1,5-5,1,1,0,0,0,.97-.758L10.781,11h2.438l.811,3.242A1,1,0,0,0,15,15h4a1,1,0,0,0,.97-.758L20.781,11h2.438l.811,3.242A1,1,0,0,0,25,15h4a1,1,0,0,0,.97-.758L30.781,11h2.438l.811,3.242A1,1,0,0,0,35,15h4a1,1,0,0,0,.97-.758L40.781,11h2.438l.811,3.242A1,1,0,0,0,45,15h3V26a1,1,0,0,0,1,1h5Zm6,5H56V30h4Z"/><path d="M43.993,17H20a1,1,0,0,0-1,1v2a5.006,5.006,0,0,0,5,5H39.993a5.006,5.006,0,0,0,5-5V18A1,1,0,0,0,43.993,17Zm-1,3a3,3,0,0,1-3,3H24a3,3,0,0,1-3-3V19H42.993Z"/></g></svg>