<svg xmlns="http://www.w3.org/2000/svg" viewBox="0 0 64 64"><title>tire-bicycle-part-riding-wheel</title><g id="outline"><path d="M32,6A26,26,0,1,0,58,32,26.029,26.029,0,0,0,32,6Zm14.638,7L34.878,27.014l6.261-17.2A23.978,23.978,0,0,1,46.638,13ZM33,8.025a23.876,23.876,0,0,1,6.262,1.1L33,26.329Zm-2,0v18.3l-6.262-17.2A23.876,23.876,0,0,1,31,8.025ZM22.861,9.813l6.261,17.2L17.362,13A23.978,23.978,0,0,1,22.861,9.813Zm-7.032,4.47L27.588,28.3,11.745,19.151A24.169,24.169,0,0,1,15.829,14.283Zm-5.088,6.6,15.849,9.15L8.562,26.853A23.8,23.8,0,0,1,10.741,20.881ZM8,32a23.98,23.98,0,0,1,.217-3.178L26.241,32,8.217,35.178A23.98,23.98,0,0,1,8,32Zm.562,5.147L26.59,33.969l-15.849,9.15A23.8,23.8,0,0,1,8.562,37.147Zm3.183,7.7L27.588,35.7,15.829,49.717A24.169,24.169,0,0,1,11.745,44.849ZM17.362,51l11.76-14.014-6.261,17.2A23.978,23.978,0,0,1,17.362,51ZM31,55.975a23.876,23.876,0,0,1-6.262-1.1L31,37.671ZM30,32a2,2,0,1,1,2,2A2,2,0,0,1,30,32Zm3,23.975v-18.3l6.262,17.2A23.876,23.876,0,0,1,33,55.975Zm8.139-1.788-6.261-17.2L46.638,51A23.978,23.978,0,0,1,41.139,54.187Zm7.032-4.47L36.412,35.7l15.843,9.147A24.169,24.169,0,0,1,48.171,49.717Zm5.088-6.6L37.41,33.969l18.028,3.178A23.8,23.8,0,0,1,53.259,43.119ZM56,32a23.98,23.98,0,0,1-.217,3.178L37.759,32l18.024-3.178A23.98,23.98,0,0,1,56,32Zm-.562-5.147L37.41,30.031l15.849-9.15A23.8,23.8,0,0,1,55.438,26.853ZM36.412,28.3,48.171,14.283a24.169,24.169,0,0,1,4.084,4.868Z"/><path d="M32,2A30,30,0,1,0,62,32,30.034,30.034,0,0,0,32,2Zm0,58A28,28,0,1,1,60,32,28.032,28.032,0,0,1,32,60Z"/></g></svg>