<svg xmlns="http://www.w3.org/2000/svg" viewBox="0 0 64 64"><title>touring-bike-bicycle-cycling-riding</title><g id="outline"><path d="M50,32a11.945,11.945,0,0,0-3.12.426L44.309,23h4.883a1.808,1.808,0,0,1,.438,3.562l-1.873.468.486,1.94,1.873-.469a3.807,3.807,0,0,0-.924-7.5H43a1,1,0,0,0-.965,1.263L43.1,26.175,26.627,29.836,25.3,24.968,29.447,22.9A1,1,0,0,0,30,22V21a1,1,0,0,0-1-1H20.236a2.236,2.236,0,0,0-1,4.235h0l2.423,1.211a2.637,2.637,0,0,0,1.771.265l1.389,5.094L21.38,34.531c-.122-.095-.254-.178-.38-.268V30a1,1,0,0,0-1-1H6a1,1,0,0,0-1,1v1H3v2H5v3.081A11.992,11.992,0,1,0,25.735,46.476l.317.04a3.969,3.969,0,0,0,4.784,3.393L32.1,52.447A1,1,0,0,0,33,53h4V51H33.618l-1-2a3.941,3.941,0,0,0,.755-5.13L44.648,31.838l.346,1.27A11.975,11.975,0,1,0,50,32ZM23.448,23.658a1,1,0,0,1-.895,0l-2.422-1.21A.236.236,0,0,1,20.236,22h6.528Zm-3.713,22.07A6.007,6.007,0,0,1,8.672,46.8,4.937,4.937,0,0,0,10,47h6a4.964,4.964,0,0,0,3.356-1.319ZM7,31H19V42a3,3,0,0,1-3,3H10a3,3,0,0,1-3-3Zm7,23A9.991,9.991,0,0,1,5,39.652V42a4.948,4.948,0,0,0,1.086,3.073,7.986,7.986,0,0,0,15.657.905l2,.25A9.99,9.99,0,0,1,14,54Zm9.984-9.758L22,44a7.911,7.911,0,0,0-1-3.833V37.891l.482-.522A10,10,0,0,1,24,44C24,44.082,23.986,44.162,23.984,44.242Zm2.3.288-.32-.04c.007-.164.032-.324.032-.49a11.994,11.994,0,0,0-3.16-8.1l2.6-2.815,2.58,9.462A4,4,0,0,0,26.288,44.53Zm5.38,2.569L30.9,45.553l-1.79.894.771,1.54a1.994,1.994,0,1,1,1.792-.888Zm2.648-7.165L32.661,38.3l.941-.962,1.724,1.519ZM36.694,37.4,35,35.906l1.8-1.843,1.523,1.591Zm3-3.2-2.164-2.261a1,1,0,0,0-.717-.309h-.006a1,1,0,0,0-.714.3l-5.563,5.687a1,1,0,0,0,.012,1.411l2.4,2.372L31.91,42.507A3.952,3.952,0,0,0,30,42c-.019,0-.036.005-.055.006L27.154,31.768,43.63,28.107l.4,1.466Zm7.2,4.676,2.148,6.445,1.9-.632L48.763,38.13a6.036,6.036,0,1,1-1.86.741ZM50,54a9.992,9.992,0,0,1-4.38-18.976l.637,1.91a8.21,8.21,0,1,0,1.873-.7l-.634-1.9A10,10,0,1,1,50,54Z"/><rect x="10" y="35" width="6" height="2"/></g></svg>