<svg xmlns="http://www.w3.org/2000/svg" viewBox="0 0 64 64"><title>wheel-bicycle-part-trie-cycling</title><g id="outline"><path d="M32,2A30,30,0,1,0,62,32,30.034,30.034,0,0,0,32,2ZM55.783,17.246l-1.7-.11-.129,2,3,.194a27.951,27.951,0,0,1,1.389,3.19l-1.656-.464-.541,1.926,2.908.816a27.741,27.741,0,0,1,.68,3.4l-1.517-.8-.93,1.772,2.676,1.4Q60,31.285,60,32c0,.689-.034,1.37-.083,2.046L58.6,32.954l-1.278,1.539,2.325,1.929a27.766,27.766,0,0,1-.764,3.387L57.82,38.463,56.252,39.7l1.868,2.365a27.846,27.846,0,0,1-1.448,3.158l-.759-1.536-1.793.887,1.331,2.694a28.3,28.3,0,0,1-2.071,2.782l-.42-1.646-1.938.494.743,2.912a28.362,28.362,0,0,1-2.606,2.29l-.068-1.7-2,.08.12,3a27.967,27.967,0,0,1-3.028,1.718l.289-1.692L42.5,55.178,42,58.149a27.949,27.949,0,0,1-3.317,1.04l.634-1.6-1.859-.739-1.116,2.809a28.25,28.25,0,0,1-3.455.315l.949-1.423-1.664-1.11-1.675,2.513a27.915,27.915,0,0,1-3.448-.406l1.226-1.2-1.4-1.431-2.16,2.109a27.883,27.883,0,0,1-3.289-1.113l1.448-.915-1.068-1.692-2.544,1.609a28.1,28.1,0,0,1-2.988-1.769l1.6-.593-.7-1.875-2.816,1.042a28.21,28.21,0,0,1-2.548-2.352l1.677-.245L13.2,49.151l-2.97.434a28.005,28.005,0,0,1-2.016-2.831l1.7.11.129-2-3-.194a27.951,27.951,0,0,1-1.389-3.19l1.656.464.541-1.926-2.908-.816a27.741,27.741,0,0,1-.68-3.4l1.517.8.93-1.772-2.676-1.4Q4,32.716,4,32c0-.689.034-1.37.083-2.046L5.4,31.046l1.278-1.539L4.352,27.578a27.766,27.766,0,0,1,.764-3.387L6.18,25.537,7.748,24.3,5.88,21.932a27.846,27.846,0,0,1,1.448-3.158l.759,1.536,1.793-.887L8.549,16.729a28.3,28.3,0,0,1,2.071-2.782l.42,1.646,1.938-.494-.743-2.912A28.362,28.362,0,0,1,14.841,9.9l.068,1.7,2-.08-.12-3a27.967,27.967,0,0,1,3.028-1.718l-.289,1.692,1.971.336L22,5.851a27.949,27.949,0,0,1,3.317-1.04l-.634,1.6,1.859.739,1.116-2.809a28.25,28.25,0,0,1,3.455-.315l-.949,1.423,1.664,1.11,1.675-2.513a27.915,27.915,0,0,1,3.448.406l-1.226,1.2,1.4,1.431,2.16-2.109A27.883,27.883,0,0,1,42.575,6.08L41.127,7,42.2,8.687l2.544-1.609a28.1,28.1,0,0,1,2.988,1.769l-1.6.593.7,1.875,2.816-1.042a28.21,28.21,0,0,1,2.548,2.352l-1.677.245.289,1.979,2.97-.434A28.005,28.005,0,0,1,55.783,17.246Z"/><path d="M32,8A24,24,0,1,0,56,32,24.028,24.028,0,0,0,32,8Zm1,2.025a21.837,21.837,0,0,1,9.118,2.45L33.062,28.161c-.021-.006-.041-.014-.062-.019Zm-2,0V28.142c-.021,0-.041.013-.062.019L21.882,12.475A21.837,21.837,0,0,1,31,10.025ZM20.152,13.478,29.2,29.15l-.05.05L13.478,20.152A22.172,22.172,0,0,1,20.152,13.478Zm-7.677,8.4,15.686,9.056c-.006.021-.014.041-.019.062H10.025A21.837,21.837,0,0,1,12.475,21.882ZM10.025,33H28.142c0,.021.013.041.019.062L12.475,42.118A21.837,21.837,0,0,1,10.025,33Zm3.453,10.848L29.15,34.8l.05.05L20.152,50.522A22.172,22.172,0,0,1,13.478,43.848ZM31,53.975a21.837,21.837,0,0,1-9.118-2.45l9.056-15.686c.021.006.041.014.062.019ZM30,32a2,2,0,1,1,2,2A2,2,0,0,1,30,32Zm3,21.975V35.858c.021,0,.041-.013.062-.019l9.056,15.686A21.837,21.837,0,0,1,33,53.975Zm15.239-7.15-3.532-3.532-1.414,1.414,3.532,3.532a22.038,22.038,0,0,1-2.977,2.283L34.8,34.85l.05-.05,15.672,9.048A22.038,22.038,0,0,1,48.239,46.825Zm3.286-4.707L35.839,33.062c.006-.021.014-.041.019-.062H53.975A21.837,21.837,0,0,1,51.525,42.118ZM53.975,31H35.858c0-.021-.013-.041-.019-.062l15.686-9.056A21.837,21.837,0,0,1,53.975,31ZM34.85,29.2l-.05-.05,9.048-15.672a22.172,22.172,0,0,1,6.674,6.674Z"/></g></svg>