<svg xmlns="http://www.w3.org/2000/svg" viewBox="0 0 48 48"><title>alarm clock</title><g id="alarm_clock" data-name="alarm clock"><path d="M24,8C8.8,8,.63,25.62,10,37.25a18,18,0,0,0,27.13,1.11C47.85,27,39.8,8,24,8Zm0,34A16,16,0,1,1,40,26,16,16,0,0,1,24,42Z"/><path d="M37.59,40.65A19,19,0,0,1,32.9,43.9l2.57,2.57a1.81,1.81,0,0,0,3-1.67Z"/><path d="M8.49,44.8a1.81,1.81,0,0,0,3,1.67l2.92-2.92a19.22,19.22,0,0,1-5-3.82Z"/><path d="M23,6a16.68,16.68,0,0,1,2,0V5h2V1H21V5h2Z"/><path d="M24,12A14,14,0,1,0,38,26,14,14,0,0,0,24,12Zm4.29,19.71C23.77,27.19,24.8,28,24,28a2,2,0,0,1-1-3.73V16a1,1,0,0,1,2,0v8.27a2,2,0,0,1,.93,2.25l3.78,3.77A1,1,0,0,1,28.29,31.71Z"/><path d="M44,4A7.07,7.07,0,0,0,34,4L33,5l4.29,4.29-1,1a14.51,14.51,0,0,1,1.52,1.32l.87-.87L43,15l1-1A7.07,7.07,0,0,0,44,4Z"/><path d="M10.16,11.58a14.51,14.51,0,0,1,1.52-1.32l-1-1L15,5,14,4A7.07,7.07,0,0,0,4,14l1,1,4.29-4.29Z"/></g></svg>