<svg xmlns="http://www.w3.org/2000/svg" viewBox="0 0 48 48"><title>apple in the top of book</title><g id="apple_in_the_top_of_book" data-name="apple in the top of book"><path d="M45,42H10a5,5,0,0,1,0-10H45a2,2,0,0,0,0-4H10a9,9,0,0,0,0,18H45a2,2,0,0,0,0-4Z"/><path d="M7,37a3,3,0,0,0,3,3H45V34H10A3,3,0,0,0,7,37Z"/><path d="M24,25.5c3.44,3.65,8.78,0,9.91-6.46S31.53,8.67,28.52,9.11A4.81,4.81,0,0,1,25,10V9a4.78,4.78,0,0,0,3.52-.89C30.25,6.7,30,5,30,3c-2.09,0-4-.28-5.35,1.83a6.93,6.93,0,0,0-1.94-2.54,1,1,0,0,0-1.42,1.42c2,2,1.71,1.77,1.71,5.92a20.62,20.62,0,0,1-3.46-.52C16.4,8.67,13,12.64,14.09,19S20.57,29.14,24,25.5Z"/></g></svg>