<svg xmlns="http://www.w3.org/2000/svg" viewBox="0 0 48 48"><title>Chemistry</title><g id="Chemistry"><path d="M12.74,32.14c2.75,1.1,5.87-.72,8-2.75A11.13,11.13,0,0,0,17,26.2V11a1,1,0,0,0,0-2H7a1,1,0,0,0,0,2V26.2a11,11,0,0,0-5.12,5.5A18.68,18.68,0,0,1,12.74,32.14ZM11,20a1,1,0,0,1,0-2A1,1,0,0,1,11,20Zm2,6a1,1,0,0,1,0-2A1,1,0,0,1,13,26Zm0-12a1,1,0,0,1,0-2A1,1,0,0,1,13,14Z"/><path d="M21.86,31.13C21,31.9,16.52,35.81,12,34s-9.72-.38-10.8-.06a11,11,0,1,0,20.66-2.81Z"/><path d="M24.69,31.37c9.19-1.5,9.4,3.88,16.12-1.11L38,24V11a1,1,0,0,0,0-2H28a1,1,0,0,0,0,2V24ZM31,14a1,1,0,0,1,2,0A1,1,0,0,1,31,14Zm2,9a1,1,0,0,1,0-2A1,1,0,0,1,33,23Z"/><path d="M46.78,43.52c-5.18-11.53-5-11.39-5.13-11.39C39.83,33.47,36.41,35.37,33,34a16,16,0,0,0-8.28-.62,13,13,0,0,1-4.88,13c1,.88-.24.62,24.69.62A2.47,2.47,0,0,0,46.78,43.52Z"/><path d="M10,5a1,1,0,0,0,0-2A1,1,0,0,0,10,5Z"/><path d="M13,8a1,1,0,0,0,0-2A1,1,0,0,0,13,8Z"/><path d="M34,7a1,1,0,0,0,2,0A1,1,0,0,0,34,7Z"/><path d="M15,3a1,1,0,0,0,0-2A1,1,0,0,0,15,3Z"/><path d="M30,7a1,1,0,0,0,0-2A1,1,0,0,0,30,7Z"/><path d="M34,3a1,1,0,0,0,0-2A1,1,0,0,0,34,3Z"/></g></svg>