<svg xmlns="http://www.w3.org/2000/svg" viewBox="0 0 48 48"><title>Desk Chair</title><g id="Desk_Chair" data-name="Desk Chair"><path d="M34,25H14c-3.38,0-2.29,6,2,6H14v1H12a3,3,0,0,1-3-3V21c10.56,0,10.62.22,11.41-.59A2,2,0,0,0,19,17c-12.67,0-12.6-.24-13.41.59A2,2,0,0,0,7,21v8a5,5,0,0,0,5,5h2V46a1,1,0,0,0,2,0V35h2v9a1,1,0,0,0,2,0V35h8v9a1,1,0,0,0,2,0V35h2V46a1,1,0,0,0,2,0V31H32C36.25,31,37.42,25,34,25Z"/><path d="M23,19a4,4,0,0,1-4,4H33.7c.28-.75.21-.18-.33-13a9.38,9.38,0,0,0-18.74,0l-.21,5H19A4,4,0,0,1,23,19Z"/></g></svg>