<svg xmlns="http://www.w3.org/2000/svg" viewBox="0 0 48 48"><title>Diploma</title><g id="Diploma"><path d="M9.53,33.07C4.27,32.38,3.39,44.72,8,46.77V39a1,1,0,0,1,1-1h3.83C12.39,35.4,11.11,33.43,9.53,33.07Z"/><path d="M10,46.77c1.73-.78,3-3.51,3-6.77H10Z"/><path d="M20.12,34.48l-6.85-.91a12.8,12.8,0,0,1,0,12.86l6.85-.91A11.82,11.82,0,0,0,22,40,11.87,11.87,0,0,0,20.12,34.48Z"/><path d="M22.59,34.77a10.5,10.5,0,0,1,0,10.46,16.84,16.84,0,0,1,1.74,0A11.87,11.87,0,0,0,26,40a11.87,11.87,0,0,0-1.67-5.19A16.84,16.84,0,0,1,22.59,34.77Z"/><path d="M39,33c-11.18,1.49-12.37,1.66-12.47,1.66,1.94,3.9,1.94,6.78,0,10.68.1,0,1.48.19,12.47,1.66,2.21,0,4-3.13,4-7S41.21,33,39,33Z"/><path d="M36,24V17.75L24,23.2,12,17.75V24c0,2.21,5.37,4,12,4S36,26.21,36,24Z"/><path d="M46,21.28c0-8.9.19-9-.57-10L46,11,24,1,2,11,24,21l19.49-8.86c.7.4.51,0,.51,9.14-1.33.77-1,1.91-1,5.72h4V23A2,2,0,0,0,46,21.28Z"/></g></svg>