<?xml version="1.0" ?>
<!-- Uploaded to: SVG Repo, www.svgrepo.com, Generator: SVG Repo Mixer Tools -->
<svg fill="#000000" width="800px" height="800px" viewBox="0 0 512 512" xmlns="http://www.w3.org/2000/svg">
<g id="Pencil">
<path d="M446.6416,65.3615a66.1161,66.1161,0,0,0-93.4985-.0011L334.9274,83.58l93.4943,93.4921,18.22-18.2156A66.1181,66.1181,0,0,0,446.6416,65.3615Z"/>
<rect height="53.0253" transform="translate(-115.2093 285.045) rotate(-45.0008)" width="296.1004" x="138.4179" y="255.077"/>
<rect height="53.0253" transform="translate(-91.9906 228.9739) rotate(-44.9984)" width="296.1004" x="82.3616" y="199.0212"/>
<polygon points="76.042 367.159 144.843 435.96 180.606 422.225 89.776 331.396 76.042 367.159"/>
<path d="M47.2092,442.1466a17.5026,17.5026,0,0,0,22.6441,22.644l48.2-18.4976L65.709,393.949Z"/>
</g>
</svg>