<svg xmlns="http://www.w3.org/2000/svg" viewBox="0 0 48 48"><title>Economy</title><g id="Economy"><path d="M37,1H15V21h2a5,5,0,0,1,5,5V41H47V11H37ZM21,19V7a1,1,0,0,1,2,0v5.06l1.38-1.84a1,1,0,0,1,1.24,0l4.15,3.32,3.4-5.09a1,1,0,0,1,1.66,1.1c-4.33,6.5-4.09,6.36-4.68,6.44s-.32.15-5.15-3.71l-2,2.94V18H36a1,1,0,0,1,0,2H22A1,1,0,0,1,21,19ZM37,36H25a1,1,0,0,1,0-2H37A1,1,0,0,1,37,36Zm6-5H25a1,1,0,0,1,0-2H43A1,1,0,0,1,43,31Zm0-7a1,1,0,0,1,0,2H25a1,1,0,0,1,0-2Z"/><path d="M17,23H4a3,3,0,0,0-3,3V44a3,3,0,0,0,3,3H17a3,3,0,0,0,3-3V26A3,3,0,0,0,17,23ZM6,44H5a1,1,0,0,1,0-2H6A1,1,0,0,1,6,44Zm0-4H5a1,1,0,0,1,0-2H6A1,1,0,0,1,6,40Zm0-4H5a1,1,0,0,1,0-2H6A1,1,0,0,1,6,36Zm5,8H10a1,1,0,0,1,0-2h1A1,1,0,0,1,11,44Zm0-4H10a1,1,0,0,1,0-2h1A1,1,0,0,1,11,40Zm0-4H10a1,1,0,0,1,0-2h1A1,1,0,0,1,11,36Zm6,7a1,1,0,0,1-1,1H15a1,1,0,0,1-1-1V39a1,1,0,0,1,1-1h1a1,1,0,0,1,1,1Zm-1-7H15a1,1,0,0,1,0-2h1A1,1,0,0,1,16,36Zm1-5a1,1,0,0,1-1,1H5a1,1,0,0,1-1-1V27a1,1,0,0,1,1-1H16a1,1,0,0,1,1,1Z"/><rect x="6" y="28" width="9" height="2"/><polygon points="39 1 39 9 47 9 39 1"/></g></svg>