<svg xmlns="http://www.w3.org/2000/svg" viewBox="0 0 48 48"><title>Graduation Cap</title><g id="Graduation_Cap" data-name="Graduation Cap"><path d="M47,15,24,3,1,15,24,27c11.11-5.79,10-5.12,10-5.41L23.52,15.88a1,1,0,0,1,1-1.76l11,6c1,.58-.54,1.17,2.52-.42Z"/><path d="M24,29.26,10,22V29c0,5.24,15.1,8.11,24,4.19V24.05Z"/><path d="M38,29V22l-2,1v9.09A4,4,0,0,0,38,29Z"/><path d="M34,24.05,36,23V21c0-.37.16-.34-2,.79Z"/><path d="M34,39.28c-1.33.77-1,1.91-1,5.72h4V41a2,2,0,0,0-1-1.72V32.09a11,11,0,0,1-2,1.1Z"/></g></svg>