<svg xmlns="http://www.w3.org/2000/svg" viewBox="0 0 48 48"><title>Language</title><g id="Language"><polygon points="13.19 32 14.81 32 14 29.85 13.19 32"/><path d="M19,23V19H3a2,2,0,0,0-2,2V41a2,2,0,0,0,2,2H6v4l6-4H25a2,2,0,0,0,2-2V27H23A4,4,0,0,1,19,23ZM16.06,35.35,15.56,34H12.44l-.5,1.35a1,1,0,0,1-1.88-.7l3-8a1,1,0,0,1,1.88,0l3,8A1,1,0,0,1,16.06,35.35Z"/><path d="M45,1H23a2,2,0,0,0-2,2V23a2,2,0,0,0,2,2H36l6,4V25h3a2,2,0,0,0,2-2V3A2,2,0,0,0,45,1Zm-7,9c-.33,0,.14,1.93-2.52,4.82a14.16,14.16,0,0,0,2,1.29,1,1,0,0,1-.9,1.78A15,15,0,0,1,34,16.2a15.21,15.21,0,0,1-2.55,1.69,1,1,0,0,1-.9-1.78,14.16,14.16,0,0,0,2-1.3,11.28,11.28,0,0,1-1-1.24,1,1,0,0,1,1.64-1.14,9.42,9.42,0,0,0,.84,1A7.22,7.22,0,0,0,35.89,10H30a1,1,0,0,1,0-2h3V7a1,1,0,0,1,2,0V8h3A1,1,0,0,1,38,10Z"/></g></svg>