<svg xmlns="http://www.w3.org/2000/svg" viewBox="0 0 48 48"><title>Music Pentagram</title><g id="Music_Pentagram" data-name="Music Pentagram"><path d="M34,11c0,1.66,1.79,3,4,3s4-1.34,4-3V2h3a1,1,0,0,0,0-2H41a1,1,0,0,0-1,1V8.42C37.24,7.21,34,8.76,34,11Z"/><path d="M13,34H9a1,1,0,0,0-1,1v7.42C5.24,41.21,2,42.76,2,45c0,1.66,1.79,3,4,3s4-1.34,4-3V36h3A1,1,0,0,0,13,34Z"/><path d="M28,31c2.21,0,4-1.34,4-3V17a1,1,0,0,0-1.08-1l-13,1A1,1,0,0,0,17,18v7.42c-2.76-1.21-6,.34-6,2.58,0,1.66,1.79,3,4,3s4-1.34,4-3V18.93l11-.85v7.34c-2.76-1.21-6,.34-6,2.58C24,29.66,25.79,31,28,31Z"/><path d="M5,38H1a1,1,0,0,0,0,2H5A1,1,0,0,0,5,38Z"/><path d="M47,38H13a1,1,0,0,0,0,2H47A1,1,0,0,0,47,38Z"/><path d="M45,6h2a1,1,0,0,0,0-2H45A1,1,0,0,0,45,6Z"/><path d="M1,6H37a1,1,0,0,0,0-2H1A1,1,0,0,0,1,6Z"/><path d="M1,22H12a1,1,0,0,0,0-2H1A1,1,0,0,0,1,22Z"/><path d="M27,20H22a1,1,0,0,0,0,2h5A1,1,0,0,0,27,20Z"/><path d="M47,20H35a1,1,0,0,0,0,2H47A1,1,0,0,0,47,20Z"/></g></svg>