<svg id="School" xmlns="http://www.w3.org/2000/svg" viewBox="0 0 48 48"><title>School</title><rect x="20" y="41" width="3" height="6"/><rect x="25" y="41" width="3" height="6"/><circle cx="24" cy="24" r="2"/><path d="M8,13,2.4,21H13c0-.95-.8.4,5.5-8Z"/><path d="M35,21H45.2L38,13H29.5C35.8,21.4,35,20.06,35,21Z"/><rect x="7" y="33" width="2" height="2"/><rect x="7" y="41" width="2" height="2"/><path d="M2,47H13V29H2ZM5,32a1,1,0,0,1,1-1h4a1,1,0,0,1,1,1v4a1,1,0,0,1-1,1H6a1,1,0,0,1-1-1Zm0,8a1,1,0,0,1,1-1h4a1,1,0,0,1,1,1v4a1,1,0,0,1-1,1H6a1,1,0,0,1-1-1Z"/><rect x="39" y="33" width="2" height="2"/><path d="M35,47H46V29H35Zm2-15a1,1,0,0,1,1-1h4a1,1,0,0,1,1,1v4a1,1,0,0,1-1,1H38a1,1,0,0,1-1-1Zm0,8a1,1,0,0,1,1-1h4a1,1,0,0,1,1,1v4a1,1,0,0,1-1,1H38a1,1,0,0,1-1-1Z"/><rect x="39" y="41" width="2" height="2"/><rect x="1" y="23" width="12" height="4"/><rect x="35" y="23" width="12" height="4"/><path d="M25,6h5V2H25a1,1,0,1,0-2,.1v8.23L15,21V47h3V40a1,1,0,0,1,1-1H29a1,1,0,0,1,1,1v7h3V21L25,10.33Zm3,18a4,4,0,1,1-4-4A4,4,0,0,1,28,24Z"/></svg>