<svg xmlns="http://www.w3.org/2000/svg" viewBox="0 0 48 48"><title>School Bus</title><g id="School_Bus" data-name="School Bus"><rect x="37" y="15" width="2" height="4"/><rect x="24" y="15" width="6" height="17"/><path d="M1,30a2,2,0,0,0,2,2,6,6,0,0,1,12,0h7V25H1Z"/><rect x="1" y="21" width="21" height="2"/><rect x="17" y="15" width="5" height="4"/><rect x="1" y="15" width="6" height="4"/><rect x="9" y="15" width="6" height="4"/><path d="M45,24c2.3,0,2,.09,2-.23a2,2,0,0,0-1.75-2C37.75,20.84,39.78,21,36,21a1,1,0,0,1-1-1V14a1,1,0,0,1,1-1h2.46A4,4,0,0,0,35,11H5a4,4,0,0,0-3.46,2H31a1,1,0,0,1,1,1V32h1a6,6,0,0,1,12,0,2,2,0,0,0,2-2V26H45A1,1,0,0,1,45,24Z"/><path d="M39,28a4,4,0,1,0,4,4A4,4,0,0,0,39,28Zm0,5a1,1,0,0,1,0-2A1,1,0,0,1,39,33Z"/><path d="M9,28a4,4,0,1,0,4,4A4,4,0,0,0,9,28Zm0,5a1,1,0,0,1,0-2A1,1,0,0,1,9,33Z"/></g></svg>