<svg xmlns="http://www.w3.org/2000/svg" viewBox="0 0 48 48"><title>Sport</title><g id="Sport"><path d="M30,1.56A35.58,35.58,0,0,0,1.56,30c9-.6,17,7.78,16.43,16.43A35.6,35.6,0,0,0,46.44,18C37.46,18.59,29.43,10.21,30,1.56Zm2.36,20.2a1,1,0,0,1-.7,1.71c-.55,0-.52-.11-3.07-2.66L25.41,24l2.36,2.36a1,1,0,0,1-.7,1.71c-.55,0-.51-.1-3.07-2.66L20.81,28.6,23.17,31a1,1,0,0,1-.7,1.71c-.55,0-.52-.11-3.07-2.66-2.6,2.6-2.54,2.66-3.07,2.66a1,1,0,0,1-.7-1.71L18,28.6l-2.36-2.36A1,1,0,0,1,17,24.83l2.36,2.36L22.59,24l-2.36-2.36a1,1,0,0,1,1.41-1.41L24,22.59l3.19-3.19L24.83,17a1,1,0,0,1,1.41-1.41L28.6,18,31,15.63A1,1,0,0,1,32.37,17L30,19.4Z"/><path d="M1.25,32a34.89,34.89,0,0,0,.6,11.92,3,3,0,0,0,2.21,2.21,34.88,34.88,0,0,0,11.92.6A14,14,0,0,0,1.25,32Z"/><path d="M46.15,4.06a3,3,0,0,0-2.21-2.21A35.23,35.23,0,0,0,32,1.25,14,14,0,0,0,46.75,16,35.19,35.19,0,0,0,46.15,4.06Z"/></g></svg>