<?xml version="1.0" encoding="iso-8859-1"?>
<!-- Generator: Adobe Illustrator 25.2.0, SVG Export Plug-In . SVG Version: 6.00 Build 0)  -->
<svg version="1.1" xmlns="http://www.w3.org/2000/svg" xmlns:xlink="http://www.w3.org/1999/xlink" x="0px" y="0px"
	 viewBox="0 0 492 492" style="enable-background:new 0 0 492 492;" xml:space="preserve">
<g id="Master_Layer_2">
</g>
<g id="Layer_1">
	<g>
		<g>
			<g>
				<g>
					<path style="fill-rule:evenodd;clip-rule:evenodd;fill:#212121;" d="M373.989,407.234H167.485
						c-23.933,0-43.404-19.471-43.404-43.404c0-3.181,2.579-5.76,5.76-5.76l281.792,0c3.181,0,5.76,2.579,5.76,5.76
						C417.393,387.762,397.922,407.234,373.989,407.234L373.989,407.234z M136.122,369.589
						c2.718,14.842,15.748,26.124,31.363,26.124l206.504,0c15.615,0,28.644-11.283,31.363-26.124L136.122,369.589z"/>
				</g>
				<g>
					<path style="fill-rule:evenodd;clip-rule:evenodd;fill:#212121;" d="M220.786,369.591c-1.148,0-2.307-0.342-3.317-1.055
						c-11.976-8.455-22.033-20.226-29.083-34.044c-7.123-13.961-10.888-29.476-10.888-44.87l0-85.639
						c0-7.468,6.077-13.543,13.546-13.543H350.43c7.469,0,13.546,6.076,13.546,13.543v85.639c0,5.008-0.404,10.045-1.199,14.973
						c-1.16,7.2-3.176,14.262-5.993,20.989c-0.013,0.032-0.026,0.064-0.039,0.095c-7.363,17.547-19.295,33.157-32.737,42.827
						c-2.582,1.858-6.182,1.27-8.04-1.312c-1.858-2.582-1.27-6.182,1.312-8.04c11.743-8.448,22.238-22.237,28.805-37.843
						c0.012-0.031,0.025-0.063,0.038-0.094c2.483-5.913,4.26-12.123,5.281-18.457c0.698-4.324,1.052-8.744,1.052-13.138l0-85.639
						c0-1.115-0.909-2.023-2.026-2.023H191.044c-1.117,0-2.026,0.908-2.026,2.023v85.639c0,27.589,13.448,54.221,35.095,69.502
						c2.599,1.835,3.219,5.429,1.384,8.027C224.375,368.742,222.595,369.591,220.786,369.591z"/>
				</g>
				<g>
					<path style="fill-rule:evenodd;clip-rule:evenodd;fill:#212121;" d="M376.835,329.21h-25.403c-3.181,0-5.76-2.579-5.76-5.76
						c0-3.181,2.579-5.76,5.76-5.76h25.403c11.28,0,21.884-4.393,29.858-12.368c7.976-7.974,12.368-18.577,12.368-29.857
						c0-23.284-18.942-42.227-42.225-42.227h-18.621c-3.181,0-5.76-2.579-5.76-5.76c0-3.181,2.579-5.76,5.76-5.76h18.621
						c14.356,0,27.853,5.591,38.004,15.742c10.151,10.151,15.741,23.648,15.741,38.004c0,14.358-5.59,27.854-15.742,38.003
						C404.689,323.619,391.192,329.21,376.835,329.21z"/>
				</g>
				<g>
					<path style="fill-rule:evenodd;clip-rule:evenodd;fill:#212121;" d="M376.835,309.437h-19.746c-3.181,0-5.76-2.579-5.76-5.76
						s2.579-5.76,5.76-5.76h19.746c12.38,0,22.452-10.072,22.452-22.452c0-12.381-10.072-22.454-22.452-22.454l-18.621,0
						c-3.181,0-5.76-2.579-5.76-5.76c0-3.181,2.579-5.76,5.76-5.76h18.621c18.732,0,33.972,15.24,33.972,33.973
						C410.806,294.197,395.567,309.437,376.835,309.437z"/>
				</g>
				<g>
					<g>
						<path style="fill-rule:evenodd;clip-rule:evenodd;fill:#212121;" d="M318.666,314.956h-34.585c-3.181,0-5.76-2.579-5.76-5.76
							v-33.534c0-1.817,0.858-3.528,2.314-4.615l17.292-12.914c2.044-1.527,4.849-1.527,6.893,0l17.292,12.914
							c1.456,1.087,2.314,2.798,2.314,4.615v33.535C324.426,312.377,321.848,314.956,318.666,314.956L318.666,314.956z
							 M289.842,303.436h23.065v-24.887l-11.533-8.613l-11.533,8.613V303.436z"/>
					</g>
					<g>
						<path style="fill-rule:evenodd;clip-rule:evenodd;fill:#212121;" d="M301.374,268.507c-3.181,0-5.76-2.579-5.76-5.76V196.2
							c0-3.181,2.579-5.76,5.76-5.76s5.76,2.579,5.76,5.76v66.547C307.134,265.928,304.555,268.507,301.374,268.507z"/>
					</g>
				</g>
				<g>
					<g>
						<path style="fill-rule:evenodd;clip-rule:evenodd;fill:#212121;" d="M254.415,170.631c-1.079,0-2.17-0.303-3.141-0.936
							c-2.665-1.738-3.415-5.307-1.678-7.971c0.678-1.04,1.395-1.964,2.026-2.78c1.813-2.341,2.907-3.753,2.907-7.094
							c0-3.341-1.033-4.674-2.908-7.094c-2.246-2.899-5.322-6.869-5.322-14.15c0-7.284,3.077-11.254,5.324-14.153
							c0.628-0.811,1.222-1.576,1.68-2.327c1.657-2.715,5.203-3.572,7.918-1.914c2.715,1.658,3.572,5.203,1.914,7.918
							c-0.792,1.297-1.649,2.403-2.406,3.379c-1.876,2.42-2.909,3.754-2.909,7.096c0,3.341,1.033,4.674,2.908,7.094
							c2.246,2.899,5.322,6.869,5.322,14.15c0,7.281-3.075,11.251-5.321,14.149c-0.545,0.705-1.061,1.37-1.484,2.018
							C258.141,169.71,256.296,170.631,254.415,170.631z"/>
					</g>
					<g>
						<path style="fill-rule:evenodd;clip-rule:evenodd;fill:#212121;" d="M283.539,170.631c-1.079,0-2.17-0.303-3.141-0.936
							c-2.665-1.738-3.416-5.307-1.678-7.971c0.678-1.04,1.394-1.964,2.026-2.78c1.813-2.341,2.908-3.753,2.908-7.095
							c0-3.341-1.033-4.674-2.908-7.094c-2.246-2.899-5.322-6.869-5.322-14.15c0-7.284,3.077-11.254,5.324-14.153
							c0.628-0.811,1.222-1.576,1.68-2.327c1.658-2.715,5.203-3.572,7.918-1.914c2.715,1.658,3.572,5.203,1.914,7.918
							c-0.792,1.297-1.649,2.403-2.406,3.379c-1.876,2.42-2.909,3.754-2.909,7.096c0,3.341,1.033,4.674,2.908,7.094
							c2.246,2.899,5.322,6.869,5.322,14.15c0,7.281-3.075,11.251-5.321,14.149c-0.546,0.705-1.061,1.37-1.484,2.018
							C287.265,169.71,285.421,170.631,283.539,170.631z"/>
					</g>
				</g>
			</g>
			<g>
				<g>
					<g>
						<path style="fill-rule:evenodd;clip-rule:evenodd;fill:#212121;" d="M149.946,262.257c-11.878,0-23.404-2.328-34.257-6.919
							c-10.48-4.433-19.891-10.777-27.972-18.858c-8.08-8.081-14.425-17.492-18.858-27.972c-4.591-10.853-6.919-22.379-6.919-34.257
							s2.328-23.404,6.919-34.257c4.433-10.48,10.778-19.891,18.858-27.972c8.08-8.08,17.492-14.425,27.972-18.858
							c10.854-4.591,22.379-6.918,34.257-6.918c11.879,0,23.404,2.328,34.258,6.918c10.48,4.433,19.892,10.778,27.972,18.858
							c8.081,8.081,14.425,17.492,18.857,27.972c4.59,10.853,6.918,22.379,6.918,34.257c0,7.975-1.067,15.876-3.171,23.485
							c-0.848,3.066-4.022,4.864-7.087,4.016c-3.066-0.848-4.864-4.021-4.016-7.087c1.827-6.609,2.754-13.477,2.754-20.414
							c0-42.174-34.311-76.486-76.485-76.486c-42.175,0-76.486,34.311-76.486,76.486s34.311,76.485,76.486,76.485
							c10.787,0,21.208-2.198,30.975-6.532c2.908-1.29,6.311,0.02,7.601,2.928c1.29,2.908-0.021,6.311-2.928,7.601
							C174.347,259.726,162.353,262.257,149.946,262.257z"/>
					</g>
				</g>
				<g>
					<g>
						<path style="fill-rule:evenodd;clip-rule:evenodd;fill:#212121;" d="M149.946,237.618c-16.925,0-32.838-6.591-44.807-18.56
							c-11.968-11.969-18.56-27.881-18.56-44.807s6.591-32.838,18.56-44.807c11.968-11.968,27.881-18.56,44.807-18.56
							s32.838,6.591,44.807,18.56c11.968,11.969,18.56,27.881,18.56,44.807c0,8.357-1.604,16.481-4.765,24.146
							c-1.214,2.941-4.581,4.341-7.521,3.128c-2.941-1.213-4.341-4.581-3.128-7.521c2.585-6.265,3.895-12.911,3.895-19.753
							c0-28.588-23.258-51.847-51.846-51.847c-28.588,0-51.847,23.258-51.847,51.847c0,28.588,23.258,51.846,51.847,51.846
							c10.821,0,21.187-3.298,29.977-9.538c2.594-1.841,6.189-1.231,8.031,1.363c1.841,2.594,1.231,6.19-1.363,8.031
							C175.842,233.585,163.17,237.618,149.946,237.618z"/>
					</g>
				</g>
			</g>
			<g>
				<path style="fill-rule:evenodd;clip-rule:evenodd;fill:#212121;" d="M174.963,180.012h-25.017c-3.181,0-5.76-2.579-5.76-5.76
					v-33.253c0-3.181,2.579-5.76,5.76-5.76s5.76,2.579,5.76,5.76v27.493h19.257c3.181,0,5.76,2.579,5.76,5.76
					S178.144,180.012,174.963,180.012z"/>
			</g>
		</g>
	</g>
</g>
</svg>
