<?xml version="1.0" encoding="iso-8859-1"?>
<!-- Generator: Adobe Illustrator 25.2.0, SVG Export Plug-In . SVG Version: 6.00 Build 0)  -->
<svg version="1.1" xmlns="http://www.w3.org/2000/svg" xmlns:xlink="http://www.w3.org/1999/xlink" x="0px" y="0px"
	 viewBox="0 0 492 492" style="enable-background:new 0 0 492 492;" xml:space="preserve">
<g id="Master_Layer_2">
</g>
<g id="Layer_1">
	<g>
		<g>
			<g>
				<g>
					<path style="fill-rule:evenodd;clip-rule:evenodd;fill:#212121;" d="M384.038,431.06H132.122c-8.025,0-15.568-3.125-21.239-8.8
						c-5.671-5.671-8.795-13.213-8.795-21.236c0-16.561,13.473-30.034,30.034-30.034l252.55,0c2.252,0,4.298,1.312,5.236,3.36
						c0.939,2.047,0.598,4.454-0.872,6.16l-0.522,0.606c0,0-0.001,0.001-0.001,0.001c-4.858,5.637-7.534,12.84-7.534,20.28
						c0,7.387,2.642,14.547,7.438,20.163c1.46,1.709,1.792,4.111,0.851,6.152C388.328,429.752,386.285,431.06,384.038,431.06
						L384.038,431.06z M132.122,382.508c-10.209,0-18.514,8.305-18.514,18.514c0,4.946,1.926,9.595,5.422,13.092
						c3.497,3.499,8.145,5.425,13.092,5.425h241.399c-2.654-5.635-4.063-11.83-4.063-18.144c0-6.596,1.534-13.056,4.419-18.887
						L132.122,382.508z"/>
				</g>
				<g>
					<path style="fill-rule:evenodd;clip-rule:evenodd;fill:#212121;" d="M384.671,382.508
						C384.671,382.508,384.672,382.508,384.671,382.508c-3.181,0-5.76-2.579-5.76-5.76l0.001-302.802
						c-61.515,0.079-197.718,0.327-226.443,0.694l0,302.107c0,3.181-2.579,5.76-5.76,5.76c-3.181,0-5.76-2.579-5.76-5.76V69.022
						c0-2.991,2.279-5.449,5.195-5.733c1.351-0.137,9.173-0.392,121.133-0.659c58.286-0.139,116.803-0.21,117.388-0.211
						c0.002,0,0.005,0,0.007,0c1.526,0,2.99,0.606,4.07,1.685c1.082,1.081,1.69,2.547,1.69,4.075l-0.001,308.569
						C390.431,379.929,387.852,382.508,384.671,382.508z"/>
				</g>
				<g>
					<path style="fill-rule:evenodd;clip-rule:evenodd;fill:#212121;" d="M107.848,406.783c-3.181,0-5.76-2.579-5.76-5.76V118.492
						c0-9.311,1.552-22.874,8.945-34.616c3.613-5.739,8.25-10.383,13.781-13.804c6.094-3.77,13.286-6.053,21.374-6.786
						c3.17-0.288,5.969,2.048,6.256,5.217c0.287,3.168-2.049,5.969-5.217,6.256c-30.344,2.75-33.62,31.5-33.62,43.733v282.531
						C113.608,404.204,111.03,406.783,107.848,406.783z"/>
				</g>
			</g>
			<g>
				<g>
					<g>
						<path style="fill-rule:evenodd;clip-rule:evenodd;fill:#212121;" d="M265.69,291.619c-7.467,0-18.076-5.461-26.213-31.476
							c-5.703-18.234-8.843-42.367-8.843-67.954c0-25.588,3.141-49.721,8.843-67.955c8.137-26.015,18.746-31.476,26.213-31.476
							c7.467,0,18.076,5.461,26.213,31.476c5.703,18.234,8.843,42.367,8.843,67.955c0,25.588-3.141,49.721-8.843,67.954
							C283.767,286.159,273.158,291.619,265.69,291.619L265.69,291.619z M265.69,104.278c-3.933,0-10.164,7.234-15.218,23.395
							c-5.364,17.151-8.318,40.063-8.318,64.516s2.954,47.365,8.318,64.516c5.055,16.161,11.285,23.395,15.218,23.395
							c3.933,0,10.164-7.234,15.218-23.395c5.364-17.151,8.318-40.063,8.318-64.516s-2.954-47.365-8.318-64.516
							C275.854,111.512,269.624,104.278,265.69,104.278z"/>
					</g>
					<g>
						<path style="fill-rule:evenodd;clip-rule:evenodd;fill:#212121;" d="M201.336,251.226c-13.097,0-19.063-4.658-21.756-9.322
							c-3.734-6.467-4.309-18.385,14.153-38.439c12.939-14.055,32.269-28.842,54.429-41.636
							c22.16-12.794,44.63-22.141,63.272-26.319c26.598-5.961,36.632,0.496,40.365,6.963c3.734,6.467,4.309,18.385-14.152,38.439
							c-12.939,14.055-32.269,28.842-54.429,41.636c-22.16,12.794-44.63,22.141-63.272,26.319
							C212.531,250.529,206.4,251.226,201.336,251.226L201.336,251.226z M330.065,144.692c-4.264,0-9.639,0.609-16.112,2.06
							c-17.535,3.93-38.855,12.828-60.031,25.054c-21.177,12.227-39.543,26.241-51.714,39.462
							c-11.469,12.458-14.618,21.471-12.651,24.877c1.966,3.406,11.347,5.185,27.87,1.482c17.535-3.93,38.855-12.828,60.032-25.054
							l2.88,4.988l-2.88-4.988c21.177-12.227,39.542-26.241,51.713-39.461c11.469-12.458,14.618-21.471,12.652-24.877
							C340.627,146.162,336.687,144.692,330.065,144.692z"/>
					</g>
					<g>
						<path style="fill-rule:evenodd;clip-rule:evenodd;fill:#212121;" d="M330.045,251.226c-5.064,0-11.193-0.697-18.61-2.359
							c-18.642-4.178-41.113-13.525-63.272-26.319c-22.16-12.794-41.49-27.58-54.429-41.636
							c-18.461-20.054-17.886-31.972-14.152-38.439c3.734-6.467,13.768-12.924,40.366-6.963
							c18.642,4.178,41.113,13.525,63.272,26.319c22.16,12.794,41.489,27.58,54.429,41.636
							c18.462,20.054,17.886,31.972,14.152,38.439C349.108,246.568,343.138,251.226,330.045,251.226L330.045,251.226z
							 M253.922,212.572c21.177,12.227,42.496,21.124,60.031,25.054c16.523,3.703,25.904,1.924,27.87-1.482
							c1.966-3.406-1.183-12.419-12.652-24.877c-12.171-13.221-30.536-27.235-51.713-39.461
							c-21.177-12.226-42.497-21.124-60.032-25.054c-16.523-3.703-25.904-1.924-27.87,1.482
							c-1.966,3.406,1.183,12.419,12.651,24.877C214.38,186.331,232.745,200.345,253.922,212.572z"/>
					</g>
				</g>
				<g>
					<path style="fill-rule:evenodd;clip-rule:evenodd;fill:#212121;" d="M265.69,206.349c-7.808,0-14.16-6.352-14.16-14.16
						c0-7.808,6.352-14.16,14.16-14.16c7.808,0,14.16,6.352,14.16,14.16C279.85,199.997,273.499,206.349,265.69,206.349
						L265.69,206.349z M265.69,189.549c-1.456,0-2.64,1.184-2.64,2.64c0,1.456,1.184,2.64,2.64,2.64c1.456,0,2.64-1.184,2.64-2.64
						C268.33,190.733,267.146,189.549,265.69,189.549z"/>
				</g>
			</g>
			<g>
				<g>
					<path style="fill-rule:evenodd;clip-rule:evenodd;fill:#212121;" d="M296.922,323.494h-62.463c-3.181,0-5.76-2.579-5.76-5.76
						s2.579-5.76,5.76-5.76h62.463c3.181,0,5.76,2.579,5.76,5.76S300.103,323.494,296.922,323.494z"/>
				</g>
				<g>
					<path style="fill-rule:evenodd;clip-rule:evenodd;fill:#212121;" d="M317.163,350.7H214.218c-3.181,0-5.76-2.579-5.76-5.76
						c0-3.181,2.579-5.76,5.76-5.76h102.945c3.181,0,5.76,2.579,5.76,5.76C322.923,348.122,320.344,350.7,317.163,350.7z"/>
				</g>
			</g>
		</g>
	</g>
</g>
</svg>
