<?xml version="1.0" encoding="iso-8859-1"?>
<!-- Generator: Adobe Illustrator 25.2.0, SVG Export Plug-In . SVG Version: 6.00 Build 0)  -->
<svg version="1.1" xmlns="http://www.w3.org/2000/svg" xmlns:xlink="http://www.w3.org/1999/xlink" x="0px" y="0px"
	 viewBox="0 0 492 492" style="enable-background:new 0 0 492 492;" xml:space="preserve">
<g id="Master_Layer_2">
</g>
<g id="Layer_1">
	<g>
		<g>
			<g>
				<g>
					<path style="fill-rule:evenodd;clip-rule:evenodd;fill:#212121;" d="M246.261,408.345c-0.887,0-1.775-0.204-2.592-0.616
						l-2.617-1.319c-29.609-14.922-64.483-17.04-95.681-5.809c-1.765,0.635-3.728,0.372-5.263-0.707
						c-1.535-1.078-2.448-2.837-2.448-4.713V251.418c0-2.429,1.524-4.597,3.809-5.419c17.077-6.148,34.921-8.708,53.038-7.607
						c18.117,1.1,35.521,5.8,51.729,13.968l2.617,1.319c1.943,0.979,3.168,2.968,3.168,5.144v143.764
						c0,1.999-1.037,3.856-2.74,4.904C248.359,408.058,247.311,408.345,246.261,408.345L246.261,408.345z M186.348,381.906
						c2.714,0,5.432,0.082,8.16,0.248c15.998,0.971,31.44,4.75,45.993,11.245V262.37c-28.288-14.075-61.311-16.509-91.321-6.833
						v131.707C161.286,383.694,173.733,381.906,186.348,381.906z"/>
				</g>
				<g>
					<g>
						<path style="fill-rule:evenodd;clip-rule:evenodd;fill:#212121;" d="M276.459,289.192c-2.457,0-4.733-1.585-5.499-4.055
							c-0.943-3.038,0.756-6.265,3.794-7.208c14.621-4.536,29.653-5.725,44.678-3.532c3.148,0.46,5.327,3.384,4.868,6.531
							c-0.46,3.148-3.384,5.328-6.531,4.868c-13.311-1.943-26.635-0.888-39.601,3.135
							C277.6,289.108,277.025,289.192,276.459,289.192z"/>
					</g>
					<g>
						<path style="fill-rule:evenodd;clip-rule:evenodd;fill:#212121;" d="M276.56,313.869c-2.457,0-4.733-1.585-5.5-4.055
							c-0.943-3.038,0.756-6.265,3.794-7.208c14.621-4.536,29.652-5.724,44.678-3.532c3.148,0.46,5.327,3.384,4.868,6.531
							c-0.46,3.148-3.381,5.328-6.531,4.868c-13.311-1.942-26.635-0.888-39.601,3.135C277.7,313.785,277.125,313.869,276.56,313.869
							z"/>
					</g>
					<g>
						<path style="fill-rule:evenodd;clip-rule:evenodd;fill:#212121;" d="M276.66,338.547c-2.457,0-4.733-1.585-5.5-4.055
							c-0.943-3.038,0.756-6.265,3.795-7.208c14.62-4.536,29.652-5.725,44.678-3.532c3.148,0.46,5.327,3.383,4.868,6.531
							c-0.459,3.148-3.384,5.329-6.531,4.868c-13.312-1.943-26.635-0.888-39.6,3.135
							C277.801,338.463,277.226,338.546,276.66,338.547z"/>
					</g>
					<g>
						<path style="fill-rule:evenodd;clip-rule:evenodd;fill:#212121;" d="M276.761,363.224c-2.457,0-4.733-1.585-5.499-4.055
							c-0.943-3.038,0.756-6.265,3.795-7.208c14.621-4.536,29.653-5.725,44.678-3.532c3.148,0.46,5.327,3.384,4.868,6.531
							c-0.459,3.148-3.384,5.328-6.531,4.868c-13.311-1.943-26.634-0.888-39.6,3.135
							C277.902,363.14,277.327,363.224,276.761,363.224z"/>
					</g>
				</g>
				<g>
					<g>
						<path style="fill-rule:evenodd;clip-rule:evenodd;fill:#212121;" d="M216.063,289.192c-0.565,0-1.14-0.084-1.708-0.26
							c-12.966-4.023-26.289-5.077-39.6-3.135c-3.147,0.46-6.072-1.72-6.531-4.868c-0.459-3.148,1.72-6.072,4.868-6.531
							c15.025-2.193,30.057-1.005,44.678,3.532c3.038,0.943,4.737,4.17,3.794,7.208C220.797,287.608,218.52,289.192,216.063,289.192
							z"/>
					</g>
					<g>
						<path style="fill-rule:evenodd;clip-rule:evenodd;fill:#212121;" d="M215.963,313.869c-0.566,0-1.14-0.084-1.708-0.26
							c-12.966-4.022-26.29-5.077-39.601-3.135c-3.148,0.461-6.072-1.72-6.531-4.868c-0.459-3.148,1.72-6.072,4.868-6.531
							c15.026-2.193,30.057-1.005,44.678,3.532c3.038,0.943,4.737,4.17,3.794,7.208C220.696,312.285,218.42,313.869,215.963,313.869
							z"/>
					</g>
					<g>
						<path style="fill-rule:evenodd;clip-rule:evenodd;fill:#212121;" d="M215.862,338.547c-0.565,0-1.14-0.084-1.709-0.26
							c-12.965-4.023-26.289-5.077-39.601-3.135c-3.147,0.461-6.072-1.72-6.531-4.868c-0.46-3.148,1.72-6.072,4.868-6.531
							c15.026-2.193,30.058-1.005,44.678,3.532c3.038,0.943,4.737,4.17,3.794,7.208
							C220.595,336.962,218.319,338.546,215.862,338.547z"/>
					</g>
					<g>
						<path style="fill-rule:evenodd;clip-rule:evenodd;fill:#212121;" d="M215.761,363.224c-0.565,0-1.14-0.084-1.708-0.26
							c-12.966-4.023-26.29-5.077-39.601-3.135c-3.147,0.461-6.072-1.72-6.531-4.868c-0.459-3.148,1.72-6.072,4.868-6.531
							c15.025-2.193,30.057-1.005,44.678,3.532c3.039,0.943,4.737,4.17,3.795,7.208
							C220.495,361.639,218.218,363.224,215.761,363.224z"/>
					</g>
				</g>
				<g>
					<path style="fill-rule:evenodd;clip-rule:evenodd;fill:#212121;" d="M246.263,431.06c-5.066,0-10.134-1.205-14.654-3.485
						c-2.732-1.377-5.567-2.644-8.427-3.764c-11.617-4.56-24.317-6.969-36.729-6.969c-11.614,0-23.045,1.995-33.974,5.931
						c-0.067,0.024-0.134,0.047-0.202,0.069l-21.129,6.734c-3.86,1.347-8.15,0.751-11.499-1.603c-3.382-2.377-5.4-6.263-5.4-10.395
						l0-150.953c0-3.181,2.579-5.76,5.76-5.76h23.412c3.181,0,5.76,2.579,5.76,5.76s-2.579,5.76-5.76,5.76h-17.652v145.192
						c0,0.509,0.275,0.809,0.505,0.971c0.231,0.162,0.608,0.32,1.09,0.146c0.067-0.024,0.134-0.046,0.201-0.068l21.113-6.729
						c12.154-4.363,24.864-6.575,37.775-6.575c13.838,0,27.993,2.685,40.934,7.764c3.189,1.249,6.356,2.663,9.409,4.202
						c2.921,1.473,6.194,2.252,9.467,2.252c3.272,0,6.544-0.778,9.464-2.251c3.054-1.539,6.221-2.954,9.414-4.205
						c12.937-5.077,27.091-7.762,40.928-7.762c12.913,0,25.623,2.212,37.778,6.575l21.113,6.729
						c0.067,0.022,0.135,0.044,0.201,0.068c0.482,0.174,0.857,0.016,1.087-0.146c0.23-0.162,0.505-0.462,0.505-0.972V272.384h-17.65
						c-3.181,0-5.76-2.579-5.76-5.76s2.579-5.76,5.76-5.76h23.41c3.181,0,5.76,2.579,5.76,5.76v150.952
						c0,4.133-2.019,8.019-5.4,10.396c-3.348,2.354-7.637,2.949-11.496,1.602l-21.128-6.734c-0.068-0.022-0.135-0.045-0.202-0.069
						c-10.93-3.935-22.361-5.931-33.977-5.931c-12.411,0-25.109,2.409-36.723,6.968c-2.863,1.121-5.699,2.388-8.432,3.766
						C256.395,429.854,251.328,431.06,246.263,431.06z"/>
				</g>
				<g>
					<path style="fill-rule:evenodd;clip-rule:evenodd;fill:#212121;" d="M246.266,408.346c-2.106,0-4.135-1.159-5.148-3.169
						c-1.432-2.841-0.29-6.305,2.551-7.736l2.617-1.319c16.208-8.169,33.611-12.868,51.728-13.968
						c15.409-0.935,30.618,0.776,45.328,5.09V255.538c-30.205-9.738-63.462-7.209-91.871,7.108l-2.617,1.319
						c-2.842,1.432-6.304,0.289-7.736-2.551c-1.431-2.841-0.289-6.304,2.551-7.736l2.617-1.319
						c16.208-8.168,33.612-12.868,51.728-13.968c18.117-1.1,35.961,1.46,53.038,7.607c2.285,0.822,3.809,2.99,3.809,5.419v143.764
						c0,1.876-0.913,3.634-2.448,4.713c-1.535,1.078-3.498,1.343-5.263,0.707c-31.197-11.23-66.071-9.113-95.68,5.809l-2.617,1.319
						C248.022,408.148,247.138,408.346,246.266,408.346z"/>
				</g>
			</g>
			<g>
				<g>
					<g>
						<g>
							<path style="fill-rule:evenodd;clip-rule:evenodd;fill:#212121;" d="M303.348,171.347c-1.668,0-3.323-0.721-4.462-2.113
								c-13.588-16.611-35.066-26.929-56.052-26.929c-16.499,0-36.003,7.651-49.689,19.492c-2.406,2.081-6.044,1.819-8.125-0.587
								c-2.081-2.406-1.819-6.043,0.587-8.125c15.898-13.756,37.826-22.301,57.226-22.301c12.293,0,24.896,3.003,36.446,8.683
								c11.099,5.459,20.962,13.23,28.523,22.473c2.014,2.462,1.651,6.091-0.811,8.105
								C305.921,170.921,304.63,171.347,303.348,171.347z"/>
						</g>
						<g>
							<path style="fill-rule:evenodd;clip-rule:evenodd;fill:#212121;" d="M201.42,179.14c-1.42,0-2.842-0.522-3.955-1.574
								c-2.312-2.185-2.415-5.831-0.23-8.143c5.802-6.139,12.648-10.97,20.348-14.36c7.975-3.51,16.471-5.291,25.251-5.291
								c8.63,0,16.993,1.722,24.855,5.119c7.591,3.28,14.373,7.963,20.155,13.922c2.216,2.283,2.161,5.93-0.121,8.145
								c-2.283,2.216-5.93,2.161-8.145-0.122c-9.729-10.024-22.778-15.544-36.744-15.544c-14.228,0-27.448,5.697-37.226,16.043
								C204.474,178.536,202.948,179.14,201.42,179.14z"/>
						</g>
						<g>
							<path style="fill-rule:evenodd;clip-rule:evenodd;fill:#212121;" d="M275.513,198.894c-1.965,0-3.881-1.007-4.957-2.819
								c-5.786-9.741-16.409-15.792-27.723-15.792c-9.833,0-18.997,4.405-25.156,12.087c-1.054,1.354-2.699,2.225-4.547,2.225
								c-3.181,0-5.76-2.578-5.76-5.759c0-1.306,0.444-2.575,1.258-3.595c8.357-10.472,20.825-16.478,34.205-16.478
								c7.725,0,15.32,2.043,21.964,5.908c6.441,3.746,11.857,9.113,15.663,15.52c1.625,2.735,0.725,6.269-2.01,7.894
								C277.527,198.633,276.513,198.894,275.513,198.894z"/>
						</g>
					</g>
					<g>
						<path style="fill-rule:evenodd;clip-rule:evenodd;fill:#212121;" d="M204.241,221.419h-61.022
							c-11.383,0-20.643-9.261-20.643-20.644c0-5.515,2.147-10.699,6.047-14.598c0.959-0.959,2.009-1.819,3.13-2.569
							c-0.323-1.413-0.489-2.865-0.489-4.332c0-10.676,8.686-19.362,19.361-19.362c1.228,0,2.446,0.116,3.639,0.344
							c4.144-8.179,12.652-13.641,22.17-13.641c12.368,0,22.654,9.088,24.528,20.938c8.991,0.54,16.148,8,16.199,17.113
							c4.841,3.872,7.722,9.746,7.722,16.107c0,5.514-2.147,10.698-6.047,14.598C214.939,219.272,209.755,221.419,204.241,221.419
							L204.241,221.419z M150.626,171.435c-4.324,0-7.841,3.518-7.841,7.842c0,1.474,0.409,2.908,1.183,4.146
							c0.957,1.532,1.14,3.425,0.493,5.113c-0.647,1.687-2.047,2.973-3.783,3.474c-1.466,0.423-2.818,1.223-3.91,2.315
							c-1.724,1.723-2.673,4.014-2.673,6.451c0,5.031,4.093,9.124,9.123,9.124l61.022-0.001c2.437,0,4.729-0.949,6.452-2.673
							c1.723-1.723,2.673-4.015,2.673-6.452c0-3.428-1.895-6.537-4.945-8.114c-2.372-1.226-3.591-3.922-2.944-6.512
							c0.111-0.444,0.167-0.909,0.167-1.381c0-3.156-2.567-5.723-5.723-5.723c-0.802,0-1.574,0.161-2.294,0.478
							c-1.919,0.846-4.146,0.581-5.814-0.69c-1.668-1.271-2.513-3.349-2.206-5.423c0.095-0.64,0.143-1.3,0.143-1.959
							c0-7.341-5.972-13.313-13.313-13.313c-6.323,0-11.812,4.489-13.052,10.674c-0.37,1.847-1.62,3.395-3.346,4.148
							c-1.727,0.752-3.712,0.613-5.316-0.372C153.494,171.834,152.078,171.435,150.626,171.435z"/>
					</g>
					<g>
						<path style="fill-rule:evenodd;clip-rule:evenodd;fill:#212121;" d="M349.301,221.419h-61.022
							c-11.383,0-20.643-9.261-20.643-20.644c0-5.515,2.147-10.699,6.047-14.598c0.959-0.959,2.009-1.82,3.13-2.569
							c-0.323-1.413-0.488-2.865-0.488-4.332c0-10.676,8.685-19.362,19.362-19.362c1.228,0,2.446,0.116,3.639,0.344
							c4.144-8.179,12.651-13.641,22.17-13.641c12.368,0,22.654,9.088,24.528,20.938c8.991,0.54,16.148,8,16.199,17.113
							c4.841,3.872,7.722,9.746,7.722,16.107c0,5.514-2.147,10.698-6.046,14.598C359.999,219.272,354.815,221.419,349.301,221.419
							L349.301,221.419z M295.686,171.435c-4.324,0-7.841,3.518-7.841,7.842c0,1.474,0.409,2.908,1.183,4.147
							c0.957,1.532,1.139,3.425,0.493,5.112c-0.647,1.687-2.047,2.973-3.784,3.474c-1.466,0.423-2.818,1.223-3.909,2.315
							c-1.724,1.723-2.673,4.014-2.673,6.451c0,5.031,4.093,9.124,9.123,9.124l61.022-0.001c2.437,0,4.728-0.949,6.452-2.673
							c1.724-1.723,2.673-4.015,2.673-6.452c0-3.428-1.895-6.537-4.945-8.114c-2.372-1.226-3.591-3.922-2.944-6.512
							c0.111-0.444,0.167-0.908,0.167-1.381c0-3.156-2.567-5.723-5.723-5.723c-0.802,0-1.574,0.161-2.294,0.478
							c-1.92,0.845-4.146,0.581-5.815-0.691c-1.668-1.272-2.513-3.349-2.206-5.424c0.095-0.639,0.143-1.298,0.143-1.958
							c0-7.341-5.972-13.313-13.313-13.313c-6.323,0-11.812,4.489-13.052,10.674c-0.37,1.846-1.62,3.396-3.346,4.148
							c-1.727,0.752-3.712,0.614-5.316-0.372C298.554,171.834,297.138,171.435,295.686,171.435z"/>
					</g>
				</g>
				<g>
					<g>
						<g>
							<path style="fill-rule:evenodd;clip-rule:evenodd;fill:#212121;" d="M183.377,133.805c-2.068,0-3.98-1.109-5.005-2.91
								l-5.362-9.417l-9.595-5.037c-1.864-0.979-3.046-2.896-3.082-5.002c-0.036-2.105,1.08-4.062,2.909-5.104l9.417-5.362
								l5.037-9.595c0.979-1.864,2.896-3.046,5.002-3.082c2.104-0.037,4.062,1.08,5.104,2.91l5.362,9.417l9.595,5.036
								c1.864,0.979,3.046,2.896,3.082,5.002c0.036,2.105-1.079,4.062-2.909,5.104l-9.417,5.362l-5.037,9.595
								c-0.979,1.864-2.896,3.046-5.002,3.082C183.443,133.805,183.41,133.805,183.377,133.805L183.377,133.805z M178.094,111.137
								l1.764,0.926c0.975,0.512,1.784,1.293,2.328,2.25l0.985,1.731l0.926-1.764c0.512-0.975,1.293-1.784,2.25-2.328l1.731-0.985
								l-1.764-0.926c-0.975-0.512-1.784-1.293-2.328-2.25l-0.985-1.731l-0.926,1.764c-0.512,0.975-1.293,1.784-2.25,2.328
								L178.094,111.137z"/>
						</g>
						<g>
							<path style="fill-rule:evenodd;clip-rule:evenodd;fill:#212121;" d="M301.912,133.805c-2.067,0-3.979-1.109-5.005-2.91
								l-5.362-9.417l-9.595-5.037c-1.865-0.979-3.046-2.896-3.082-5.002c-0.036-2.105,1.079-4.062,2.909-5.104l9.417-5.362
								l5.037-9.595c0.978-1.864,2.896-3.046,5.002-3.082c2.103-0.033,4.063,1.08,5.104,2.91l5.362,9.417l9.595,5.036
								c1.865,0.979,3.046,2.896,3.082,5.002c0.036,2.105-1.079,4.062-2.909,5.104l-9.417,5.362l-5.037,9.595
								c-0.979,1.864-2.897,3.046-5.002,3.082C301.978,133.805,301.945,133.805,301.912,133.805L301.912,133.805z M296.63,111.136
								l1.764,0.926c0.975,0.512,1.784,1.293,2.328,2.25l0.985,1.731l0.926-1.763c0.512-0.975,1.293-1.784,2.25-2.328l1.731-0.985
								l-1.764-0.926c-0.975-0.512-1.784-1.293-2.328-2.25l-0.985-1.731l-0.926,1.764c-0.512,0.975-1.293,1.784-2.25,2.328
								L296.63,111.136z"/>
						</g>
					</g>
					<g>
						<path style="fill-rule:evenodd;clip-rule:evenodd;fill:#212121;" d="M242.645,107.929c-2.068,0-3.98-1.109-5.005-2.91
							l-5.362-9.417l-9.595-5.037c-1.864-0.979-3.046-2.896-3.082-5.002c-0.036-2.105,1.08-4.062,2.91-5.104l9.417-5.362
							l5.037-9.595c0.979-1.864,2.896-3.046,5.002-3.082c2.104-0.04,4.062,1.08,5.104,2.909l5.362,9.417l9.595,5.036
							c1.865,0.979,3.046,2.896,3.082,5.002s-1.079,4.062-2.909,5.104l-9.417,5.361l-5.037,9.595
							c-0.979,1.864-2.896,3.046-5.002,3.082C242.711,107.929,242.677,107.929,242.645,107.929L242.645,107.929z M237.362,85.26
							l1.764,0.926c0.975,0.512,1.783,1.293,2.328,2.25l0.985,1.731l0.926-1.763c0.512-0.975,1.293-1.784,2.25-2.328l1.731-0.985
							l-1.763-0.926c-0.975-0.512-1.784-1.293-2.328-2.25l-0.985-1.731l-0.926,1.764c-0.512,0.975-1.293,1.784-2.25,2.328
							L237.362,85.26z"/>
					</g>
				</g>
			</g>
		</g>
	</g>
</g>
</svg>
