<?xml version="1.0" encoding="iso-8859-1"?>
<!-- Generator: Adobe Illustrator 25.2.0, SVG Export Plug-In . SVG Version: 6.00 Build 0)  -->
<svg version="1.1" xmlns="http://www.w3.org/2000/svg" xmlns:xlink="http://www.w3.org/1999/xlink" x="0px" y="0px"
	 viewBox="0 0 492 492" style="enable-background:new 0 0 492 492;" xml:space="preserve">
<g id="Master_Layer_2">
</g>
<g id="Layer_1">
	<g>
		<g>
			<g>
				<g>
					<path style="fill-rule:evenodd;clip-rule:evenodd;fill:#212121;" d="M384.038,431.06H132.122c-8.025,0-15.568-3.125-21.239-8.8
						c-5.671-5.671-8.795-13.213-8.795-21.236c0-16.561,13.473-30.034,30.034-30.034l252.55,0c2.252,0,4.298,1.312,5.236,3.36
						c0.939,2.047,0.598,4.454-0.872,6.16l-0.522,0.606c0,0-0.001,0.001-0.001,0.001c-4.858,5.637-7.534,12.84-7.534,20.28
						c0,7.387,2.642,14.547,7.438,20.163c1.46,1.709,1.792,4.111,0.851,6.152C388.328,429.752,386.285,431.06,384.038,431.06
						L384.038,431.06z M132.122,382.508c-10.209,0-18.514,8.305-18.514,18.514c0,4.946,1.926,9.595,5.422,13.092
						c3.497,3.499,8.145,5.425,13.092,5.425h241.399c-2.654-5.635-4.063-11.83-4.063-18.144c0-6.596,1.534-13.056,4.419-18.887
						L132.122,382.508z"/>
				</g>
				<g>
					<path style="fill-rule:evenodd;clip-rule:evenodd;fill:#212121;" d="M384.671,382.508
						C384.671,382.508,384.672,382.508,384.671,382.508c-3.181,0-5.76-2.579-5.76-5.76l0.001-302.802
						c-61.515,0.079-197.718,0.327-226.443,0.694l0,302.107c0,3.181-2.579,5.76-5.76,5.76c-3.181,0-5.76-2.579-5.76-5.76V69.022
						c0-2.991,2.279-5.449,5.195-5.733c1.351-0.137,9.173-0.392,121.133-0.659c58.286-0.139,116.803-0.21,117.388-0.211
						c0.002,0,0.005,0,0.007,0c1.526,0,2.99,0.606,4.07,1.685c1.082,1.081,1.69,2.547,1.69,4.075l-0.001,308.569
						C390.431,379.929,387.852,382.508,384.671,382.508z"/>
				</g>
				<g>
					<path style="fill-rule:evenodd;clip-rule:evenodd;fill:#212121;" d="M107.848,406.783c-3.181,0-5.76-2.579-5.76-5.76V118.492
						c0-9.311,1.552-22.874,8.945-34.616c3.613-5.739,8.25-10.383,13.781-13.804c6.094-3.77,13.286-6.053,21.374-6.786
						c3.17-0.288,5.969,2.048,6.256,5.217c0.287,3.168-2.049,5.969-5.217,6.256c-30.344,2.75-33.62,31.5-33.62,43.733v282.531
						C113.608,404.204,111.03,406.783,107.848,406.783z"/>
				</g>
			</g>
			<g>
				<g>
					<g>
						<path style="fill-rule:evenodd;clip-rule:evenodd;fill:#212121;" d="M204.928,187.416c-3.181,0-5.76-2.579-5.76-5.76v-45.276
							c0-3.181,2.579-5.76,5.76-5.76c3.181,0,5.76,2.579,5.76,5.76v45.276C210.688,184.837,208.11,187.416,204.928,187.416z"/>
					</g>
					<g>
						<path style="fill-rule:evenodd;clip-rule:evenodd;fill:#212121;" d="M227.567,164.778H182.29c-3.181,0-5.76-2.579-5.76-5.76
							c0-3.181,2.579-5.76,5.76-5.76h45.276c3.181,0,5.76,2.579,5.76,5.76C233.327,162.199,230.748,164.778,227.567,164.778z"/>
					</g>
				</g>
				<g>
					<g>
						<g>
							<path style="fill-rule:evenodd;clip-rule:evenodd;fill:#212121;" d="M349.091,287.133h-45.276c-3.181,0-5.76-2.579-5.76-5.76
								c0-3.181,2.579-5.76,5.76-5.76h45.276c3.181,0,5.76,2.579,5.76,5.76C354.851,284.554,352.272,287.133,349.091,287.133z"/>
						</g>
					</g>
					<g>
						<g>
							<path style="fill-rule:evenodd;clip-rule:evenodd;fill:#212121;" d="M349.091,309.469h-45.276c-3.181,0-5.76-2.579-5.76-5.76
								c0-3.181,2.579-5.76,5.76-5.76h45.276c3.181,0,5.76,2.579,5.76,5.76C354.851,306.891,352.272,309.469,349.091,309.469z"/>
						</g>
					</g>
				</g>
				<g>
					<g>
						<path style="fill-rule:evenodd;clip-rule:evenodd;fill:#212121;" d="M188.921,314.309c-1.474,0-2.948-0.562-4.073-1.687
							c-2.25-2.25-2.25-5.896,0-8.146l32.015-32.015c2.25-2.249,5.896-2.249,8.146,0c2.25,2.25,2.25,5.896,0,8.146l-32.015,32.015
							C191.869,313.746,190.395,314.309,188.921,314.309z"/>
					</g>
					<g>
						<path style="fill-rule:evenodd;clip-rule:evenodd;fill:#212121;" d="M220.936,314.309c-1.474,0-2.948-0.562-4.073-1.687
							l-32.015-32.015c-2.25-2.25-2.25-5.896,0-8.146c2.25-2.249,5.896-2.249,8.146,0l32.015,32.015c2.25,2.25,2.25,5.897,0,8.146
							C223.884,313.746,222.41,314.309,220.936,314.309z"/>
					</g>
				</g>
				<g>
					<path style="fill-rule:evenodd;clip-rule:evenodd;fill:#212121;" d="M349.091,164.778h-45.276c-3.181,0-5.76-2.579-5.76-5.76
						c0-3.181,2.579-5.76,5.76-5.76h45.276c3.181,0,5.76,2.579,5.76,5.76C354.851,162.199,352.272,164.778,349.091,164.778z"/>
				</g>
			</g>
		</g>
	</g>
</g>
</svg>
