<?xml version="1.0" encoding="iso-8859-1"?>
<!-- Generator: Adobe Illustrator 25.2.0, SVG Export Plug-In . SVG Version: 6.00 Build 0)  -->
<svg version="1.1" xmlns="http://www.w3.org/2000/svg" xmlns:xlink="http://www.w3.org/1999/xlink" x="0px" y="0px"
	 viewBox="0 0 492 492" style="enable-background:new 0 0 492 492;" xml:space="preserve">
<g id="Master_Layer_2">
</g>
<g id="Layer_1">
	<g>
		<g>
			<g>
				<path style="fill-rule:evenodd;clip-rule:evenodd;fill:#212121;" d="M274.297,102.233h-56.074c-3.181,0-5.76-2.579-5.76-5.76
					c0-3.181,2.579-5.76,5.76-5.76h56.074c3.181,0,5.76,2.579,5.76,5.76C280.057,99.654,277.478,102.233,274.297,102.233z"/>
			</g>
			<g>
				<path style="fill-rule:evenodd;clip-rule:evenodd;fill:#212121;" d="M421.942,165.163H70.58c-3.181,0-5.76-2.579-5.76-5.76
					v-40.245c0-15.684,12.76-28.445,28.445-28.445h13.303c3.181,0,5.76,2.579,5.76,5.76c0,3.181-2.579,5.76-5.76,5.76H93.265
					c-9.332,0-16.925,7.592-16.925,16.925v34.485h339.842v-34.485c0-9.333-7.594-16.925-16.927-16.925h-13.303
					c-3.181,0-5.76-2.579-5.76-5.76c0-3.181,2.579-5.76,5.76-5.76h13.304c15.686,0,28.447,12.76,28.447,28.445v40.245
					C427.702,162.585,425.124,165.163,421.942,165.163L421.942,165.163z M421.942,159.403h0.003H421.942z"/>
			</g>
			<g>
				<path style="fill-rule:evenodd;clip-rule:evenodd;fill:#212121;" d="M358.163,102.233h-56.076c-3.181,0-5.76-2.579-5.76-5.76
					c0-3.181,2.579-5.76,5.76-5.76h56.076c3.181,0,5.76,2.579,5.76,5.76C363.923,99.654,361.344,102.233,358.163,102.233z"/>
			</g>
			<g>
				<path style="fill-rule:evenodd;clip-rule:evenodd;fill:#212121;" d="M190.434,102.233h-56.076c-3.181,0-5.76-2.579-5.76-5.76
					c0-3.181,2.579-5.76,5.76-5.76h56.076c3.181,0,5.76,2.579,5.76,5.76C196.194,99.654,193.615,102.233,190.434,102.233z"/>
			</g>
			<g>
				<g>
					<path style="fill-rule:evenodd;clip-rule:evenodd;fill:#212121;" d="M120.464,130.527c-10.838,0-19.655-8.817-19.655-19.655
						V82.074c0-10.838,8.817-19.655,19.655-19.655s19.655,8.817,19.655,19.655v28.798
						C140.118,121.71,131.302,130.527,120.464,130.527L120.464,130.527z M120.464,73.939c-4.485,0-8.135,3.649-8.135,8.135v28.798
						c0,4.485,3.649,8.135,8.135,8.135c4.485,0,8.135-3.649,8.135-8.135V82.074C128.598,77.589,124.949,73.939,120.464,73.939z"/>
				</g>
				<g>
					<path style="fill-rule:evenodd;clip-rule:evenodd;fill:#212121;" d="M372.057,130.527c-10.838,0-19.655-8.817-19.655-19.655
						V82.074c0-10.838,8.817-19.655,19.655-19.655c10.838,0,19.655,8.817,19.655,19.655v28.798
						C391.712,121.71,382.895,130.527,372.057,130.527L372.057,130.527z M372.057,73.939c-4.485,0-8.135,3.649-8.135,8.135v28.798
						c0,4.485,3.649,8.135,8.135,8.135c4.486,0,8.135-3.649,8.135-8.135V82.074C380.192,77.589,376.543,73.939,372.057,73.939z"/>
				</g>
				<g>
					<path style="fill-rule:evenodd;clip-rule:evenodd;fill:#212121;" d="M204.328,130.527c-10.838,0-19.655-8.817-19.655-19.655
						V82.074c0-10.838,8.817-19.655,19.655-19.655c10.838,0,19.655,8.817,19.655,19.655v28.798
						C223.983,121.71,215.166,130.527,204.328,130.527L204.328,130.527z M204.328,73.939c-4.485,0-8.135,3.649-8.135,8.135v28.798
						c0,4.485,3.649,8.135,8.135,8.135c4.486,0,8.135-3.649,8.135-8.135V82.074C212.463,77.589,208.814,73.939,204.328,73.939z"/>
				</g>
				<g>
					<path style="fill-rule:evenodd;clip-rule:evenodd;fill:#212121;" d="M288.193,130.527c-10.838,0-19.655-8.817-19.655-19.655
						V82.074c0-10.838,8.817-19.655,19.655-19.655c10.838,0,19.655,8.817,19.655,19.655v28.798
						C307.847,121.71,299.03,130.527,288.193,130.527L288.193,130.527z M288.193,73.939c-4.485,0-8.135,3.649-8.135,8.135v28.798
						c0,4.485,3.649,8.135,8.135,8.135c4.486,0,8.135-3.649,8.135-8.135V82.074C296.327,77.589,292.678,73.939,288.193,73.939z"/>
				</g>
			</g>
			<g>
				<g>
					<g>
						<path style="fill-rule:evenodd;clip-rule:evenodd;fill:#212121;" d="M365.919,259.972h-33.556c-3.181,0-5.76-2.579-5.76-5.76
							v-33.557c0-3.181,2.579-5.76,5.76-5.76h33.556c3.181,0,5.76,2.579,5.76,5.76v33.556
							C371.679,257.393,369.1,259.972,365.919,259.972L365.919,259.972z M338.122,248.452h22.036v-22.036h-22.036V248.452z"/>
					</g>
					<g>
						<path style="fill-rule:evenodd;clip-rule:evenodd;fill:#212121;" d="M297.301,259.972h-33.557c-3.181,0-5.76-2.579-5.76-5.76
							v-33.557c0-3.181,2.579-5.76,5.76-5.76h33.557c3.181,0,5.76,2.579,5.76,5.76v33.556
							C303.061,257.393,300.483,259.972,297.301,259.972L297.301,259.972z M269.505,248.452h22.036v-22.036h-22.036V248.452z"/>
					</g>
					<g>
						<path style="fill-rule:evenodd;clip-rule:evenodd;fill:#212121;" d="M228.684,259.972h-33.557c-3.181,0-5.76-2.579-5.76-5.76
							v-33.557c0-3.181,2.579-5.76,5.76-5.76h33.556c3.181,0,5.76,2.579,5.76,5.76v33.556
							C234.444,257.393,231.865,259.972,228.684,259.972L228.684,259.972z M200.887,248.452h22.036v-22.036h-22.036V248.452z"/>
					</g>
					<g>
						<path style="fill-rule:evenodd;clip-rule:evenodd;fill:#212121;" d="M160.066,259.972H126.51c-3.181,0-5.76-2.579-5.76-5.76
							v-33.557c0-3.181,2.579-5.76,5.76-5.76h33.557c3.181,0,5.76,2.579,5.76,5.76v33.556
							C165.826,257.393,163.247,259.972,160.066,259.972L160.066,259.972z M132.27,248.452h22.037v-22.036H132.27V248.452z"/>
					</g>
				</g>
				<g>
					<g>
						<path style="fill-rule:evenodd;clip-rule:evenodd;fill:#212121;" d="M365.965,327.699h-33.556c-3.181,0-5.76-2.579-5.76-5.76
							v-33.556c0-3.181,2.579-5.76,5.76-5.76h33.556c3.181,0,5.76,2.579,5.76,5.76v33.556
							C371.725,325.12,369.146,327.699,365.965,327.699L365.965,327.699z M338.169,316.179h22.036v-22.036h-22.036V316.179z"/>
					</g>
					<g>
						<path style="fill-rule:evenodd;clip-rule:evenodd;fill:#212121;" d="M297.347,327.699h-33.556c-3.181,0-5.76-2.579-5.76-5.76
							v-33.556c0-3.181,2.579-5.76,5.76-5.76h33.556c3.181,0,5.76,2.579,5.76,5.76v33.556
							C303.107,325.12,300.529,327.699,297.347,327.699L297.347,327.699z M269.551,316.179h22.036v-22.036h-22.036V316.179z"/>
					</g>
					<g>
						<path style="fill-rule:evenodd;clip-rule:evenodd;fill:#212121;" d="M228.73,327.699h-33.557c-3.181,0-5.76-2.579-5.76-5.76
							v-33.556c0-3.181,2.579-5.76,5.76-5.76h33.557c3.181,0,5.76,2.579,5.76,5.76v33.556
							C234.49,325.12,231.911,327.699,228.73,327.699L228.73,327.699z M200.933,316.179h22.036v-22.036h-22.036V316.179z"/>
					</g>
					<g>
						<path style="fill-rule:evenodd;clip-rule:evenodd;fill:#212121;" d="M160.112,327.699h-33.557c-3.181,0-5.76-2.579-5.76-5.76
							v-33.556c0-3.181,2.579-5.76,5.76-5.76h33.556c3.181,0,5.76,2.579,5.76,5.76v33.556
							C165.872,325.12,163.293,327.699,160.112,327.699L160.112,327.699z M132.316,316.179h22.036v-22.036h-22.036V316.179z"/>
					</g>
				</g>
				<g>
					<path style="fill-rule:evenodd;clip-rule:evenodd;fill:#212121;" d="M366.011,395.425h-33.556c-3.181,0-5.76-2.579-5.76-5.76
						v-33.556c0-3.181,2.579-5.76,5.76-5.76h33.556c3.181,0,5.76,2.579,5.76,5.76v33.556
						C371.771,392.846,369.192,395.425,366.011,395.425L366.011,395.425z M338.215,383.905h22.036v-22.036h-22.036V383.905z"/>
				</g>
				<g>
					<path style="fill-rule:evenodd;clip-rule:evenodd;fill:#212121;" d="M297.394,395.425h-33.557c-3.181,0-5.76-2.579-5.76-5.76
						v-33.556c0-3.181,2.579-5.76,5.76-5.76h33.557c3.181,0,5.76,2.579,5.76,5.76v33.556
						C303.154,392.846,300.575,395.425,297.394,395.425L297.394,395.425z M269.597,383.905h22.036v-22.036h-22.036V383.905z"/>
				</g>
				<g>
					<path style="fill-rule:evenodd;clip-rule:evenodd;fill:#212121;" d="M228.776,395.425H195.22c-3.181,0-5.76-2.579-5.76-5.76
						v-33.556c0-3.181,2.579-5.76,5.76-5.76h33.556c3.181,0,5.76,2.579,5.76,5.76v33.556
						C234.536,392.846,231.957,395.425,228.776,395.425L228.776,395.425z M200.98,383.905h22.036v-22.036H200.98V383.905z"/>
				</g>
				<g>
					<path style="fill-rule:evenodd;clip-rule:evenodd;fill:#212121;" d="M160.158,395.425h-33.556c-3.181,0-5.76-2.579-5.76-5.76
						v-33.556c0-3.181,2.579-5.76,5.76-5.76h33.556c3.181,0,5.76,2.579,5.76,5.76v33.556
						C165.918,392.846,163.34,395.425,160.158,395.425L160.158,395.425z M132.362,383.905h22.036v-22.036h-22.036V383.905z"/>
				</g>
				<g>
					<path style="fill-rule:evenodd;clip-rule:evenodd;fill:#212121;" d="M365.896,327.699h-33.556c-3.181,0-5.76-2.579-5.76-5.76
						v-33.556c0-3.181,2.579-5.76,5.76-5.76h33.556c3.181,0,5.76,2.579,5.76,5.76v33.556
						C371.656,325.12,369.077,327.699,365.896,327.699L365.896,327.699z M338.099,316.179h22.036v-22.036h-22.036V316.179z"/>
				</g>
			</g>
			<g>
				<path style="fill-rule:evenodd;clip-rule:evenodd;fill:#212121;" d="M400.374,431.059H92.147
					c-15.068,0-27.328-12.259-27.328-27.327l-0.001-218.71c0-1.528,0.607-2.993,1.687-4.073c1.08-1.08,2.545-1.687,4.073-1.687
					h351.362c3.181,0,5.76,2.579,5.76,5.76v218.71C427.701,418.8,415.442,431.059,400.374,431.059L400.374,431.059z M76.339,190.782
					l0.001,212.95c0,8.716,7.091,15.807,15.808,15.807h308.226c8.716,0,15.807-7.091,15.807-15.807v-212.95H76.339z"/>
			</g>
			<g>
				<path style="fill-rule:evenodd;clip-rule:evenodd;fill:#212121;" d="M70.579,190.782c-3.181,0-5.76-2.579-5.76-5.76v-25.618
					c0-3.181,2.579-5.76,5.76-5.76c3.181,0,5.76,2.579,5.76,5.76v25.618C76.339,188.203,73.76,190.782,70.579,190.782z"/>
			</g>
			<g>
				<path style="fill-rule:evenodd;clip-rule:evenodd;fill:#212121;" d="M421.941,190.782c-3.181,0-5.76-2.579-5.76-5.76v-25.618
					c0-3.181,2.579-5.76,5.76-5.76c3.181,0,5.76,2.579,5.76,5.76v25.618C427.701,188.203,425.122,190.782,421.941,190.782z"/>
			</g>
		</g>
	</g>
</g>
</svg>
