<?xml version="1.0" encoding="iso-8859-1"?>
<!-- Generator: Adobe Illustrator 25.2.0, SVG Export Plug-In . SVG Version: 6.00 Build 0)  -->
<svg version="1.1" xmlns="http://www.w3.org/2000/svg" xmlns:xlink="http://www.w3.org/1999/xlink" x="0px" y="0px"
	 viewBox="0 0 492 492" style="enable-background:new 0 0 492 492;" xml:space="preserve">
<g id="Master_Layer_2">
</g>
<g id="Layer_1">
	<g>
		<g>
			<g>
				<g>
					<g>
						<g>
							<g>
								<g>
									<g>
										<path style="fill-rule:evenodd;clip-rule:evenodd;fill:#212121;" d="M220.15,403.494c-0.453,0-0.913-0.054-1.373-0.166
											c-3.09-0.755-4.983-3.873-4.227-6.964l9.205-37.644c0.755-3.09,3.874-4.982,6.963-4.227
											c3.09,0.755,4.983,3.873,4.227,6.964l-9.205,37.644C225.097,401.732,222.742,403.494,220.15,403.494z"/>
									</g>
									<g>
										<path style="fill-rule:evenodd;clip-rule:evenodd;fill:#212121;" d="M272.371,403.494c-2.593,0-4.947-1.763-5.591-4.393
											l-9.205-37.644c-0.755-3.09,1.137-6.208,4.227-6.964c3.091-0.755,6.208,1.137,6.964,4.227l9.205,37.644
											c0.755,3.09-1.137,6.208-4.227,6.964C273.285,403.44,272.824,403.494,272.371,403.494z"/>
									</g>
								</g>
							</g>
							<g>
								<path style="fill-rule:evenodd;clip-rule:evenodd;fill:#212121;" d="M318.568,431.06H173.953c-3.181,0-5.76-2.579-5.76-5.76
									c0-18.376,14.95-33.327,33.327-33.327h89.482c18.376,0,33.326,14.95,33.326,33.327
									C324.328,428.481,321.749,431.06,318.568,431.06L318.568,431.06z M180.485,419.54h131.551
									c-2.533-9.238-11.004-16.047-21.035-16.047H201.52C191.488,403.493,183.017,410.302,180.485,419.54z"/>
							</g>
							<g>
								<path style="fill-rule:evenodd;clip-rule:evenodd;fill:#212121;" d="M331.315,129.923h-26.976
									c-3.181,0-5.76-2.579-5.76-5.76s2.579-5.76,5.76-5.76h26.976c3.181,0,5.76,2.579,5.76,5.76S334.496,129.923,331.315,129.923
									z"/>
							</g>
							<g>
								<path style="fill-rule:evenodd;clip-rule:evenodd;fill:#212121;" d="M408.274,365.848H84.247
									c-8.252,0-14.965-6.714-14.965-14.965V133.369c0-8.252,6.714-14.965,14.965-14.965h46.887c3.181,0,5.76,2.579,5.76,5.76
									c0,3.181-2.579,5.76-5.76,5.76H84.247c-1.9,0-3.445,1.546-3.445,3.445v217.515c0,1.9,1.546,3.445,3.445,3.445h324.027
									c1.9,0,3.445-1.545,3.445-3.445V133.369c0-1.9-1.545-3.445-3.445-3.445h-46.887c-3.181,0-5.76-2.579-5.76-5.76
									c0-3.181,2.579-5.76,5.76-5.76h46.887c8.252,0,14.965,6.714,14.965,14.965v217.515
									C423.239,359.135,416.526,365.848,408.274,365.848z"/>
							</g>
							<g>
								<path style="fill-rule:evenodd;clip-rule:evenodd;fill:#212121;" d="M417.479,326.306H75.042c-3.181,0-5.76-2.579-5.76-5.76
									c0-3.181,2.579-5.76,5.76-5.76l342.437,0c3.181,0,5.76,2.579,5.76,5.76C423.239,323.728,420.66,326.306,417.479,326.306z"/>
							</g>
						</g>
						<g>
							<path style="fill-rule:evenodd;clip-rule:evenodd;fill:#212121;" d="M248.562,345.387h-13.777c-3.181,0-5.76-2.579-5.76-5.76
								c0-3.181,2.579-5.76,5.76-5.76h13.777c3.181,0,5.76,2.579,5.76,5.76C254.322,342.808,251.743,345.387,248.562,345.387z"/>
						</g>
					</g>
				</g>
				<g>
					<path style="fill-rule:evenodd;clip-rule:evenodd;fill:#212121;" d="M331.315,154.67h-26.976c-3.181,0-5.76-2.579-5.76-5.76
						c0-3.181,2.579-5.76,5.76-5.76h26.976c3.181,0,5.76,2.579,5.76,5.76C337.075,152.091,334.496,154.67,331.315,154.67z"/>
				</g>
				<g>
					<path style="fill-rule:evenodd;clip-rule:evenodd;fill:#212121;" d="M395.034,326.307c-3.181,0-5.76-2.579-5.76-5.76l0-165.877
						h-27.888c-3.181,0-5.76-2.579-5.76-5.76c0-3.181,2.579-5.76,5.76-5.76h33.647c3.181,0,5.76,2.579,5.76,5.76v171.637
						C400.794,323.728,398.215,326.307,395.034,326.307z"/>
				</g>
				<g>
					<path style="fill-rule:evenodd;clip-rule:evenodd;fill:#212121;" d="M97.487,326.307c-3.181,0-5.76-2.579-5.76-5.76V148.91
						c0-3.181,2.579-5.76,5.76-5.76h33.647c3.181,0,5.76,2.579,5.76,5.76c0,3.181-2.579,5.76-5.76,5.76h-27.888v165.877
						C103.246,323.728,100.668,326.307,97.487,326.307z"/>
				</g>
			</g>
			<g>
				<g>
					<g>
						<path style="fill-rule:evenodd;clip-rule:evenodd;fill:#212121;" d="M361.386,267.894h-30.072c-3.181,0-5.76-2.579-5.76-5.76
							V95.166c0-3.181,2.579-5.76,5.76-5.76h30.072c3.181,0,5.76,2.579,5.76,5.76v166.968
							C367.146,265.315,364.567,267.894,361.386,267.894L361.386,267.894z M337.074,256.374h18.552V100.926h-18.552V256.374z"/>
					</g>
					<g>
						<path style="fill-rule:evenodd;clip-rule:evenodd;fill:#212121;" d="M361.386,100.926h-30.072c-3.181,0-5.76-2.579-5.76-5.76
							v-17.77c0-6.945,5.65-12.595,12.595-12.595h16.403c6.945,0,12.595,5.65,12.595,12.595v17.77
							C367.146,98.348,364.567,100.926,361.386,100.926L361.386,100.926z M337.074,89.406h18.552v-12.01
							c0-0.592-0.482-1.075-1.075-1.075h-16.403c-0.592,0-1.075,0.482-1.075,1.075L337.074,89.406L337.074,89.406z"/>
					</g>
					<g>
						<path style="fill-rule:evenodd;clip-rule:evenodd;fill:#212121;" d="M346.344,299.11
							C346.343,299.11,346.343,299.11,346.344,299.11c-2.213-0.001-4.23-1.268-5.19-3.261l-15.03-31.216
							c-1.38-2.866-0.175-6.309,2.691-7.688c2.866-1.381,6.309-0.175,7.688,2.691l9.842,20.441l9.851-20.443
							c1.381-2.865,4.823-4.069,7.689-2.688c2.866,1.381,4.07,4.824,2.688,7.69l-15.042,31.216
							C350.573,297.843,348.555,299.11,346.344,299.11z"/>
					</g>
				</g>
				<g>
					<g>
						<g>
							<path style="fill-rule:evenodd;clip-rule:evenodd;fill:#212121;" d="M298.473,299.11H137c-6.41,0-11.626-5.215-11.626-11.626
								l0-213.439c0-6.41,5.215-11.626,11.626-11.626h123.205c4.607,0,8.938,1.794,12.196,5.052l32.644,32.641
								c3.258,3.258,5.052,7.589,5.052,12.197v175.175C310.098,293.895,304.883,299.11,298.473,299.11L298.473,299.11z M137,73.94
								c-0.058,0-0.105,0.047-0.105,0.105v213.439c0,0.058,0.047,0.105,0.105,0.105h161.473c0.058,0,0.105-0.047,0.105-0.105
								V112.309c0-1.53-0.596-2.969-1.678-4.051l-32.644-32.641c-1.082-1.082-2.521-1.677-4.05-1.677L137,73.94z"/>
						</g>
						<g>
							<path style="fill-rule:evenodd;clip-rule:evenodd;fill:#212121;" d="M303.305,113.31h-38.342c-3.181,0-5.76-2.579-5.76-5.76
								V69.21c0-3.181,2.579-5.76,5.76-5.76c3.181,0,5.76,2.579,5.76,5.76v32.58h32.582c3.181,0,5.76,2.579,5.76,5.76
								S306.487,113.31,303.305,113.31z"/>
						</g>
					</g>
					<g>
						<g>
							<path style="fill-rule:evenodd;clip-rule:evenodd;fill:#212121;" d="M273.836,202.086H161.637c-3.181,0-5.76-2.579-5.76-5.76
								c0-3.181,2.579-5.76,5.76-5.76h112.199c3.181,0,5.76,2.579,5.76,5.76C279.596,199.507,277.017,202.086,273.836,202.086z"/>
						</g>
						<g>
							<path style="fill-rule:evenodd;clip-rule:evenodd;fill:#212121;" d="M273.836,233.208H161.637c-3.181,0-5.76-2.579-5.76-5.76
								c0-3.181,2.579-5.76,5.76-5.76h112.199c3.181,0,5.76,2.579,5.76,5.76C279.596,230.629,277.017,233.208,273.836,233.208z"/>
						</g>
						<g>
							<path style="fill-rule:evenodd;clip-rule:evenodd;fill:#212121;" d="M273.836,139.842H161.637c-3.181,0-5.76-2.579-5.76-5.76
								c0-3.181,2.579-5.76,5.76-5.76h112.199c3.181,0,5.76,2.579,5.76,5.76C279.596,137.264,277.017,139.842,273.836,139.842z"/>
						</g>
						<g>
							<path style="fill-rule:evenodd;clip-rule:evenodd;fill:#212121;" d="M234.195,108.72h-72.558c-3.181,0-5.76-2.579-5.76-5.76
								c0-3.181,2.579-5.76,5.76-5.76h72.558c3.181,0,5.76,2.579,5.76,5.76C239.955,106.142,237.377,108.72,234.195,108.72z"/>
						</g>
						<g>
							<path style="fill-rule:evenodd;clip-rule:evenodd;fill:#212121;" d="M273.836,170.964H161.637c-3.181,0-5.76-2.579-5.76-5.76
								c0-3.181,2.579-5.76,5.76-5.76h112.199c3.181,0,5.76,2.579,5.76,5.76C279.596,168.385,277.017,170.964,273.836,170.964z"/>
						</g>
						<g>
							<path style="fill-rule:evenodd;clip-rule:evenodd;fill:#212121;" d="M273.836,264.329H161.637c-3.181,0-5.76-2.579-5.76-5.76
								c0-3.181,2.579-5.76,5.76-5.76h112.199c3.181,0,5.76,2.579,5.76,5.76C279.596,261.751,277.017,264.329,273.836,264.329z"/>
						</g>
					</g>
				</g>
			</g>
		</g>
	</g>
</g>
</svg>
