<?xml version="1.0" encoding="iso-8859-1"?>
<!-- Generator: Adobe Illustrator 25.2.0, SVG Export Plug-In . SVG Version: 6.00 Build 0)  -->
<svg version="1.1" xmlns="http://www.w3.org/2000/svg" xmlns:xlink="http://www.w3.org/1999/xlink" x="0px" y="0px"
	 viewBox="0 0 492 492" style="enable-background:new 0 0 492 492;" xml:space="preserve">
<g id="Master_Layer_2">
</g>
<g id="Layer_1">
	<g>
		<g>
			<g>
				<g>
					<path style="fill-rule:evenodd;clip-rule:evenodd;fill:#212121;" d="M384.038,431.06H132.122c-8.025,0-15.568-3.125-21.239-8.8
						c-5.671-5.671-8.795-13.213-8.795-21.236c0-16.561,13.473-30.034,30.034-30.034l252.55,0c2.252,0,4.298,1.312,5.236,3.36
						c0.939,2.047,0.598,4.454-0.872,6.16l-0.522,0.606c0,0-0.001,0.001-0.001,0.001c-4.858,5.637-7.534,12.84-7.534,20.28
						c0,7.387,2.642,14.547,7.438,20.163c1.46,1.709,1.792,4.111,0.851,6.152C388.328,429.752,386.285,431.06,384.038,431.06
						L384.038,431.06z M132.122,382.508c-10.209,0-18.514,8.305-18.514,18.514c0,4.946,1.926,9.595,5.422,13.092
						c3.497,3.499,8.145,5.425,13.092,5.425h241.399c-2.654-5.635-4.063-11.83-4.063-18.144c0-6.596,1.534-13.056,4.419-18.887
						L132.122,382.508z"/>
				</g>
				<g>
					<path style="fill-rule:evenodd;clip-rule:evenodd;fill:#212121;" d="M384.671,382.508
						C384.671,382.508,384.672,382.508,384.671,382.508c-3.181,0-5.76-2.579-5.76-5.76l0.001-302.802
						c-61.515,0.079-197.718,0.327-226.443,0.694l0,302.107c0,3.181-2.579,5.76-5.76,5.76c-3.181,0-5.76-2.579-5.76-5.76V69.022
						c0-2.991,2.279-5.449,5.195-5.733c1.351-0.137,9.173-0.392,121.133-0.659c58.286-0.139,116.803-0.21,117.388-0.211
						c0.002,0,0.005,0,0.007,0c1.526,0,2.99,0.606,4.07,1.685c1.082,1.081,1.69,2.547,1.69,4.075l-0.001,308.569
						C390.431,379.929,387.852,382.508,384.671,382.508z"/>
				</g>
				<g>
					<path style="fill-rule:evenodd;clip-rule:evenodd;fill:#212121;" d="M107.848,406.783c-3.181,0-5.76-2.579-5.76-5.76V118.492
						c0-9.311,1.552-22.874,8.945-34.616c3.613-5.739,8.25-10.383,13.781-13.804c6.094-3.77,13.286-6.053,21.374-6.786
						c3.17-0.288,5.969,2.048,6.256,5.217c0.287,3.168-2.049,5.969-5.217,6.256c-30.344,2.75-33.62,31.5-33.62,43.733v282.531
						C113.608,404.204,111.03,406.783,107.848,406.783z"/>
				</g>
			</g>
			<g>
				<g>
					<g>
						<path style="fill-rule:evenodd;clip-rule:evenodd;fill:#212121;" d="M321.944,318.407H209.437c-3.181,0-5.76-2.579-5.76-5.76
							s2.579-5.76,5.76-5.76h112.507c3.181,0,5.76,2.579,5.76,5.76S325.125,318.407,321.944,318.407z"/>
					</g>
					<g>
						<path style="fill-rule:evenodd;clip-rule:evenodd;fill:#212121;" d="M303.577,345.231h-75.773c-3.181,0-5.76-2.579-5.76-5.76
							c0-3.181,2.579-5.76,5.76-5.76h75.773c3.181,0,5.76,2.579,5.76,5.76C309.337,342.653,306.758,345.231,303.577,345.231z"/>
					</g>
				</g>
				<g>
					<g>
						<g>
							<path style="fill-rule:evenodd;clip-rule:evenodd;fill:#212121;" d="M265.69,123.274c-3.181,0-5.76-2.579-5.76-5.76v-12.057
								c0-3.181,2.579-5.76,5.76-5.76c3.181,0,5.76,2.579,5.76,5.76v12.057C271.451,120.695,268.872,123.274,265.69,123.274z"/>
						</g>
						<g>
							<path style="fill-rule:evenodd;clip-rule:evenodd;fill:#212121;" d="M230.154,132.895c-1.991,0-3.926-1.033-4.994-2.881
								l-6.077-10.526c-1.591-2.755-0.647-6.278,2.108-7.868c2.755-1.591,6.278-0.647,7.868,2.108l6.077,10.526
								c1.591,2.755,0.647,6.278-2.108,7.868C232.122,132.646,231.131,132.895,230.154,132.895z"/>
						</g>
						<g>
							<path style="fill-rule:evenodd;clip-rule:evenodd;fill:#212121;" d="M204.374,159.058c-0.977,0-1.967-0.249-2.875-0.772
								l-10.776-6.221c-2.755-1.591-3.699-5.113-2.108-7.868c1.59-2.755,5.113-3.699,7.868-2.108l10.776,6.221
								c2.755,1.59,3.699,5.113,2.108,7.868C208.301,158.025,206.365,159.058,204.374,159.058z"/>
						</g>
						<g>
							<path style="fill-rule:evenodd;clip-rule:evenodd;fill:#212121;" d="M195.302,194.455h-12.85c-3.181,0-5.76-2.579-5.76-5.76
								c0-3.181,2.579-5.76,5.76-5.76h12.85c3.181,0,5.76,2.579,5.76,5.76C201.062,191.876,198.483,194.455,195.302,194.455z"/>
						</g>
						<g>
							<path style="fill-rule:evenodd;clip-rule:evenodd;fill:#212121;" d="M348.928,194.455h-12.85c-3.181,0-5.76-2.579-5.76-5.76
								c0-3.181,2.579-5.76,5.76-5.76h12.85c3.181,0,5.76,2.579,5.76,5.76C354.688,191.876,352.11,194.455,348.928,194.455z"/>
						</g>
						<g>
							<path style="fill-rule:evenodd;clip-rule:evenodd;fill:#212121;" d="M327.006,159.058c-1.991,0-3.927-1.033-4.994-2.881
								c-1.591-2.755-0.647-6.278,2.108-7.868l10.776-6.221c2.755-1.59,6.278-0.646,7.868,2.108
								c1.591,2.755,0.647,6.278-2.108,7.868l-10.776,6.221C328.974,158.809,327.983,159.058,327.006,159.058z"/>
						</g>
						<g>
							<path style="fill-rule:evenodd;clip-rule:evenodd;fill:#212121;" d="M301.226,132.895c-0.977,0-1.967-0.249-2.875-0.773
								c-2.755-1.591-3.699-5.114-2.108-7.868l6.078-10.526c1.591-2.755,5.114-3.698,7.868-2.108
								c2.755,1.591,3.699,5.114,2.108,7.868l-6.078,10.526C305.153,131.862,303.217,132.895,301.226,132.895z"/>
						</g>
					</g>
					<g>
						<g>
							<g>
								<path style="fill-rule:evenodd;clip-rule:evenodd;fill:#212121;" d="M277.879,266.058h-24.376
									c-8.65,0-15.688-7.037-15.688-15.687v-8.97c0-3.181,2.579-5.76,5.76-5.76l44.231,0c3.181,0,5.76,2.579,5.76,5.76v8.97
									C293.566,259.021,286.529,266.058,277.879,266.058L277.879,266.058z M249.335,247.161v3.21c0,2.298,1.869,4.167,4.167,4.167
									l24.376,0c2.298,0,4.167-1.869,4.167-4.167v-3.21L249.335,247.161z"/>
							</g>
							<g>
								<path style="fill-rule:evenodd;clip-rule:evenodd;fill:#212121;" d="M265.922,282.694h-0.463
									c-10.363,0-18.794-8.432-18.794-18.796v-3.659c0-3.181,2.579-5.76,5.76-5.76c3.181,0,5.76,2.579,5.76,5.76v3.659
									c0,4.012,3.263,7.276,7.274,7.276h0.463c4.011,0,7.274-3.264,7.274-7.276v-3.659c0-3.181,2.579-5.76,5.76-5.76
									c3.181,0,5.76,2.579,5.76,5.76v3.659C284.716,274.263,276.285,282.694,265.922,282.694z"/>
							</g>
							<g>
								<path style="fill-rule:evenodd;clip-rule:evenodd;fill:#212121;" d="M286.75,247.161h-42.119
									c-6.427,0-11.945-4.33-13.42-10.529c-0.815-3.424-2.51-6.641-4.903-9.303c-8.744-9.726-13.56-22.291-13.56-35.381
									c0-13.997,5.411-27.195,15.236-37.163c9.814-9.957,22.912-15.558,36.879-15.772c29.049-0.45,53.158,22.801,53.756,51.821
									c0.278,13.507-4.534,26.467-13.548,36.494c-2.393,2.661-4.088,5.878-4.903,9.303
									C298.694,242.832,293.176,247.161,286.75,247.161L286.75,247.161z M265.683,150.528c-0.214,0-0.427,0.002-0.642,0.005
									c-22.481,0.345-40.771,18.924-40.771,41.416c0,10.241,3.767,20.071,10.606,27.679c3.676,4.089,6.285,9.047,7.544,14.339
									c0.231,0.97,1.161,1.675,2.212,1.675l42.119,0c1.051,0,1.981-0.704,2.212-1.675c1.259-5.292,3.867-10.25,7.543-14.339
									c7.052-7.843,10.815-17.984,10.597-28.555C306.639,168.585,288.12,150.528,265.683,150.528z"/>
							</g>
						</g>
						<g>
							<g>
								<path style="fill-rule:evenodd;clip-rule:evenodd;fill:#212121;" d="M265.691,247.161c-0.002,0-0.004,0-0.005,0
									c-3.181-0.003-5.758-2.584-5.755-5.765l0.037-39.144c0.003-3.179,2.582-5.755,5.76-5.755c0.002,0,0.004,0,0.005,0
									c3.181,0.003,5.758,2.584,5.755,5.765l-0.037,39.144C271.448,244.585,268.869,247.161,265.691,247.161z"/>
							</g>
							<g>
								<path style="fill-rule:evenodd;clip-rule:evenodd;fill:#212121;" d="M265.727,208.017c-1.565,0-3.063-0.637-4.148-1.764
									c-1.267-1.315-2.687-2.545-4.222-3.656c-1.902-1.379-3.993-2.584-6.216-3.585c-2.901-1.305-4.195-4.715-2.889-7.616
									c1.305-2.901,4.715-4.194,7.616-2.889c2.938,1.322,5.713,2.924,8.247,4.76c0.548,0.396,1.086,0.805,1.613,1.225
									c0.528-0.42,1.067-0.83,1.616-1.227c2.531-1.835,5.306-3.436,8.244-4.758c2.9-1.305,6.311-0.012,7.616,2.889
									c1.305,2.901,0.012,6.311-2.889,7.616c-2.224,1-4.314,2.206-6.214,3.583c-1.538,1.113-2.958,2.342-4.225,3.658
									C268.79,207.38,267.293,208.017,265.727,208.017z"/>
							</g>
						</g>
					</g>
				</g>
			</g>
		</g>
	</g>
</g>
</svg>
