<?xml version="1.0" encoding="iso-8859-1"?>
<!-- Generator: Adobe Illustrator 25.2.0, SVG Export Plug-In . SVG Version: 6.00 Build 0)  -->
<svg version="1.1" xmlns="http://www.w3.org/2000/svg" xmlns:xlink="http://www.w3.org/1999/xlink" x="0px" y="0px"
	 viewBox="0 0 492 492" style="enable-background:new 0 0 492 492;" xml:space="preserve">
<g id="Master_Layer_2">
</g>
<g id="Layer_1">
	<g>
		<g>
			<g>
				<path style="fill-rule:evenodd;clip-rule:evenodd;fill:#021212;" d="M415.833,431.059H76.688
					c-8.131,0-14.747-6.616-14.747-14.747l0-339.146c0-8.132,6.616-14.747,14.747-14.747h339.145
					c8.132,0,14.747,6.615,14.747,14.747v339.145C430.58,424.444,423.965,431.059,415.833,431.059L415.833,431.059z M76.688,73.939
					c-1.78,0-3.227,1.448-3.227,3.227v339.145c0,1.779,1.448,3.227,3.227,3.227l339.145,0c1.779,0,3.227-1.448,3.227-3.227
					l0-339.146c0-1.78-1.448-3.227-3.227-3.227L76.688,73.939z"/>
			</g>
			<g>
				<g>
					<path style="fill-rule:evenodd;clip-rule:evenodd;fill:#021212;" d="M402.148,241.285H90.373c-3.181,0-5.76-2.579-5.76-5.76
						V90.934c0-3.181,2.579-5.76,5.76-5.76h311.775c3.181,0,5.76,2.579,5.76,5.76v144.591
						C407.908,238.706,405.329,241.285,402.148,241.285L402.148,241.285z M96.133,229.765h300.255V96.694H96.133V229.765z"/>
				</g>
				<g>
					<g>
						<g>
							<path style="fill-rule:evenodd;clip-rule:evenodd;fill:#021212;" d="M359.302,241.285c-3.181,0-5.76-2.579-5.76-5.76v-22.672
								h-81.021v22.672c0,3.181-2.579,5.76-5.76,5.76c-3.181,0-5.76-2.579-5.76-5.76v-28.432c0-3.181,2.579-5.76,5.76-5.76h92.541
								c3.181,0,5.76,2.579,5.76,5.76v28.432C365.062,238.706,362.483,241.285,359.302,241.285z"/>
						</g>
						<g>
							<path style="fill-rule:evenodd;clip-rule:evenodd;fill:#021212;" d="M373.957,212.852h-92.54c-3.181,0-5.76-2.579-5.76-5.76
								v-22.93c0-3.181,2.579-5.76,5.76-5.76h92.54c3.181,0,5.76,2.579,5.76,5.76v22.93
								C379.717,210.274,377.138,212.852,373.957,212.852L373.957,212.852z M287.176,201.332h81.02v-11.41h-81.02V201.332z"/>
						</g>
						<g>
							<path style="fill-rule:evenodd;clip-rule:evenodd;fill:#021212;" d="M359.302,189.922h-92.541c-3.181,0-5.76-2.579-5.76-5.76
								v-25.381c0-3.181,2.579-5.76,5.76-5.76h92.541c3.181,0,5.76,2.579,5.76,5.76v25.381
								C365.062,187.343,362.483,189.922,359.302,189.922L359.302,189.922z M272.521,178.402h81.021v-13.861h-81.021V178.402z"/>
						</g>
					</g>
					<g>
						<g>
							<path style="fill-rule:evenodd;clip-rule:evenodd;fill:#021212;" d="M118.564,241.285c-3.181,0-5.76-2.579-5.76-5.76v-86.935
								c0-3.181,2.579-5.76,5.76-5.76h37.002c3.181,0,5.76,2.579,5.76,5.76c0,3.181-2.579,5.76-5.76,5.76h-31.242v81.175
								C124.324,238.706,121.745,241.285,118.564,241.285z"/>
						</g>
						<g>
							<path style="fill-rule:evenodd;clip-rule:evenodd;fill:#021212;" d="M182.393,241.285c-3.181,0-5.76-2.579-5.76-5.76v-92.232
								h-15.307v92.233c0,3.181-2.579,5.76-5.76,5.76c-3.181,0-5.76-2.579-5.76-5.76v-97.993c0-3.181,2.579-5.76,5.76-5.76h26.827
								c3.181,0,5.76,2.579,5.76,5.76v97.993C188.153,238.706,185.574,241.285,182.393,241.285z"/>
						</g>
						<g>
							<path style="fill-rule:evenodd;clip-rule:evenodd;fill:#021212;" d="M214.769,164.523h-32.377c-3.181,0-5.76-2.579-5.76-5.76
								s2.579-5.76,5.76-5.76h32.377c3.181,0,5.76,2.579,5.76,5.76S217.951,164.523,214.769,164.523z"/>
						</g>
						<g>
							<path style="fill-rule:evenodd;clip-rule:evenodd;fill:#021212;" d="M242.521,241.285c-3.181,0-5.76-2.579-5.76-5.76V132.677
								h-16.232v102.848c0,3.181-2.579,5.76-5.76,5.76c-3.181,0-5.76-2.579-5.76-5.76V126.917c0-3.181,2.579-5.76,5.76-5.76h27.752
								c3.181,0,5.76,2.579,5.76,5.76v108.608C248.281,238.706,245.702,241.285,242.521,241.285z"/>
						</g>
					</g>
				</g>
			</g>
			<g>
				<g>
					<path style="fill-rule:evenodd;clip-rule:evenodd;fill:#021212;" d="M402.148,408.305H90.373c-3.181,0-5.76-2.579-5.76-5.76
						V257.954c0-3.181,2.579-5.76,5.76-5.76h311.775c3.181,0,5.76,2.579,5.76,5.76v144.591
						C407.908,405.726,405.329,408.305,402.148,408.305L402.148,408.305z M96.133,396.785h300.255V263.714H96.133V396.785z"/>
				</g>
				<g>
					<g>
						<g>
							<path style="fill-rule:evenodd;clip-rule:evenodd;fill:#021212;" d="M212.725,408.305c-3.181,0-5.76-2.579-5.76-5.76v-22.673
								h-81.02v22.673c0,3.181-2.579,5.76-5.76,5.76s-5.76-2.579-5.76-5.76v-28.433c0-3.181,2.579-5.76,5.76-5.76h92.54
								c3.181,0,5.76,2.579,5.76,5.76v28.433C218.485,405.726,215.906,408.305,212.725,408.305z"/>
						</g>
						<g>
							<path style="fill-rule:evenodd;clip-rule:evenodd;fill:#021212;" d="M227.38,379.872h-92.54c-3.181,0-5.76-2.579-5.76-5.76
								v-22.93c0-3.181,2.579-5.76,5.76-5.76h92.54c3.181,0,5.76,2.579,5.76,5.76v22.93
								C233.14,377.294,230.562,379.872,227.38,379.872L227.38,379.872z M140.6,368.352h81.02v-11.41H140.6V368.352z"/>
						</g>
						<g>
							<path style="fill-rule:evenodd;clip-rule:evenodd;fill:#021212;" d="M212.725,356.942h-92.54c-3.181,0-5.76-2.579-5.76-5.76
								v-25.381c0-3.181,2.579-5.76,5.76-5.76h92.54c3.181,0,5.76,2.579,5.76,5.76v25.381
								C218.485,354.363,215.906,356.942,212.725,356.942L212.725,356.942z M125.945,345.422h81.02v-13.861h-81.02V345.422z"/>
						</g>
					</g>
					<g>
						<g>
							<path style="fill-rule:evenodd;clip-rule:evenodd;fill:#021212;" d="M321.523,408.305c-3.181,0-5.76-2.579-5.76-5.76v-86.781
								l-11.41,0v86.781c0,3.181-2.579,5.76-5.76,5.76c-3.181,0-5.76-2.579-5.76-5.76v-92.541c0-3.181,2.579-5.76,5.76-5.76h22.93
								c3.181,0,5.76,2.579,5.76,5.76v92.541C327.283,405.726,324.704,408.305,321.523,408.305z"/>
						</g>
						<g>
							<path style="fill-rule:evenodd;clip-rule:evenodd;fill:#021212;" d="M275.662,408.305c-3.181,0-5.76-2.579-5.76-5.76v-92.541
								c0-3.181,2.579-5.76,5.76-5.76l22.93,0c3.181,0,5.76,2.579,5.76,5.76s-2.579,5.76-5.76,5.76h-17.17v86.781
								C281.422,405.726,278.844,408.305,275.662,408.305z"/>
						</g>
						<g>
							<path style="fill-rule:evenodd;clip-rule:evenodd;fill:#021212;" d="M350.565,408.305c-0.891,0-1.779-0.207-2.589-0.615
								c-1.365-0.686-2.401-1.887-2.88-3.338l-29.042-87.865c-0.48-1.451-0.363-3.032,0.323-4.397
								c0.687-1.365,1.887-2.401,3.338-2.88l21.772-7.196c3.02-0.997,6.278,0.641,7.276,3.661l29.042,87.865
								c0.998,3.021-0.641,6.279-3.661,7.276l-21.772,7.196C351.783,408.209,351.173,408.305,350.565,408.305L350.565,408.305z
								 M328.799,318.341l25.426,76.928l10.834-3.581l-25.426-76.927L328.799,318.341z"/>
						</g>
					</g>
				</g>
			</g>
		</g>
	</g>
</g>
</svg>
