<?xml version="1.0" encoding="iso-8859-1"?>
<!-- Uploaded to: SVG Repo, www.svgrepo.com, Generator: SVG Repo Mixer Tools -->
<!DOCTYPE svg PUBLIC "-//W3C//DTD SVG 1.1//EN" "http://www.w3.org/Graphics/SVG/1.1/DTD/svg11.dtd">
<svg fill="#000000" version="1.1" id="Capa_1" xmlns="http://www.w3.org/2000/svg" xmlns:xlink="http://www.w3.org/1999/xlink" 
	 width="800px" height="800px" viewBox="0 0 50.424 50.425"
	 xml:space="preserve">
<g>
	<path d="M50.337,18.689V4.231C50.337,1.895,48.442,0,46.106,0H10.471v33.854h3.643c0,0,0,2.744,0,4.392
		c0,1.646,0.987,2.507,2.204,1.923c1.217-0.584,3.151-0.584,4.32,0c1.168,0.584,2.116-0.277,2.116-1.923v-4.392h17.808
		c5.642,0,5.114-3.281,5.819-3.526c1.195-0.415,1.165,3.954,1.165,6.292v6.755c0,2.338-1.896,4.231-4.231,4.231H7.111
		c-2.337,0-4.232-1.895-4.232-4.231v-5.29c0-2.338,1.895-4.23,4.232-4.23H7.65V0H4.318C1.981,0,0.087,1.896,0.087,4.231v22.746
		c0,2.336-0.015,6.127-0.019,8.463c-0.006,3.194-0.008,7.562-0.009,10.756c0,2.338,1.894,4.229,4.231,4.229h41.844
		c2.337,0,4.231-1.896,4.231-4.231c-0.002-5.172-0.004-13.871-0.013-19.043C50.35,24.813,50.337,21.026,50.337,18.689z"/>
</g>
</svg>