<?xml version="1.0" encoding="iso-8859-1"?>
<!-- Uploaded to: SVG Repo, www.svgrepo.com, Generator: SVG Repo Mixer Tools -->
<svg fill="#000000" height="800px" width="800px" version="1.1" id="Layer_1" xmlns="http://www.w3.org/2000/svg" xmlns:xlink="http://www.w3.org/1999/xlink" 
	 viewBox="0 0 512 512" xml:space="preserve">
<g>
	<g>
		<path d="M288.337,43.116H148.21c-4.465,0-8.084,3.619-8.084,8.084s3.62,8.084,8.084,8.084h140.126
			c4.465,0,8.084-3.619,8.084-8.084S292.801,43.116,288.337,43.116z"/>
	</g>
</g>
<g>
	<g>
		<path d="M363.789,43.116h-43.116c-4.465,0-8.084,3.619-8.084,8.084s3.62,8.084,8.084,8.084h43.116
			c4.465,0,8.084-3.619,8.084-8.084S368.254,43.116,363.789,43.116z"/>
	</g>
</g>
<g>
	<g>
		<path d="M169.768,86.232H148.21c-4.465,0-8.084,3.619-8.084,8.084s3.62,8.084,8.084,8.084h21.558c4.465,0,8.084-3.619,8.084-8.084
			S174.233,86.232,169.768,86.232z"/>
	</g>
</g>
<g>
	<g>
		<path d="M363.789,86.232H202.105c-4.465,0-8.084,3.619-8.084,8.084s3.62,8.084,8.084,8.084h161.684
			c4.465,0,8.084-3.619,8.084-8.084S368.254,86.232,363.789,86.232z"/>
	</g>
</g>
<g>
	<g>
		<path d="M454.02,280.253h-95.439c-4.466,0-8.085,3.62-8.085,8.084c0,4.465,3.62,8.084,8.084,8.084h94.136v123.958h-39.029
			c-8.209,0-14.865,6.655-14.865,14.865v17.472H113.179v-17.472c0-8.21-6.655-14.865-14.865-14.865H59.284V296.421h263.651
			c4.465,0,8.084-3.62,8.084-8.084c0-4.465-3.62-8.084-8.084-8.084H57.981c-8.21,0-14.865,6.655-14.865,14.865v126.564
			c0,8.21,6.655,14.865,14.865,14.865h39.029v17.472c0,8.21,6.655,14.865,14.865,14.865h288.25c8.209,0,14.865-6.655,14.865-14.865
			v-17.472h39.029c8.209,0,14.865-6.655,14.865-14.865V295.118C468.885,286.908,462.23,280.253,454.02,280.253z"/>
	</g>
</g>
<g>
	<g>
		<path d="M169.768,377.263c-16.345,0-29.642,13.298-29.642,29.642s13.297,29.642,29.642,29.642s29.642-13.298,29.642-29.642
			S186.114,377.263,169.768,377.263z M169.768,420.379c-7.43,0-13.474-6.044-13.474-13.474s6.044-13.474,13.474-13.474
			s13.474,6.044,13.474,13.474S177.198,420.379,169.768,420.379z"/>
	</g>
</g>
<g>
	<g>
		<path d="M256,377.263c-16.345,0-29.642,13.298-29.642,29.642s13.297,29.642,29.642,29.642s29.642-13.298,29.642-29.642
			S272.345,377.263,256,377.263z M256,420.379c-7.43,0-13.474-6.044-13.474-13.474s6.044-13.474,13.474-13.474
			c7.43,0,13.474,6.044,13.474,13.474S263.43,420.379,256,420.379z"/>
	</g>
</g>
<g>
	<g>
		<path d="M342.232,377.263c-16.345,0-29.642,13.298-29.642,29.642s13.297,29.642,29.642,29.642s29.642-13.298,29.642-29.642
			S358.577,377.263,342.232,377.263z M342.232,420.379c-7.43,0-13.474-6.044-13.474-13.474s6.044-13.474,13.474-13.474
			s13.474,6.044,13.474,13.474S349.661,420.379,342.232,420.379z"/>
	</g>
</g>
<g>
	<g>
		<path d="M212.884,312.589c-16.345,0-29.642,13.298-29.642,29.642s13.297,29.642,29.642,29.642s29.642-13.298,29.642-29.642
			S229.229,312.589,212.884,312.589z M212.884,355.705c-7.43,0-13.474-6.044-13.474-13.474s6.044-13.474,13.474-13.474
			s13.474,6.044,13.474,13.474S220.314,355.705,212.884,355.705z"/>
	</g>
</g>
<g>
	<g>
		<path d="M299.116,312.589c-16.345,0-29.642,13.298-29.642,29.642s13.297,29.642,29.642,29.642s29.642-13.298,29.642-29.642
			S315.461,312.589,299.116,312.589z M299.116,355.705c-7.43,0-13.474-6.044-13.474-13.474s6.044-13.474,13.474-13.474
			s13.474,6.044,13.474,13.474S306.546,355.705,299.116,355.705z"/>
	</g>
</g>
<g>
	<g>
		<path d="M385.347,312.589c-16.345,0-29.642,13.298-29.642,29.642s13.297,29.642,29.642,29.642
			c16.345,0,29.642-13.298,29.642-29.642S401.693,312.589,385.347,312.589z M385.347,355.705c-7.43,0-13.474-6.044-13.474-13.474
			s6.044-13.474,13.474-13.474s13.474,6.044,13.474,13.474S392.777,355.705,385.347,355.705z"/>
	</g>
</g>
<g>
	<g>
		<path d="M126.653,312.589c-16.345,0-29.642,13.298-29.642,29.642s13.297,29.642,29.642,29.642s29.642-13.298,29.642-29.642
			S142.998,312.589,126.653,312.589z M126.653,355.705c-7.43,0-13.474-6.044-13.474-13.474s6.044-13.474,13.474-13.474
			s13.474,6.044,13.474,13.474S134.083,355.705,126.653,355.705z"/>
	</g>
</g>
<g>
	<g>
		<path d="M450.021,123.958h53.895c4.465,0,8.084-3.618,8.084-8.084V29.642c0-4.466-3.62-8.084-8.084-8.084h-53.895
			c-4.465,0-8.084,3.618-8.084,8.084v13.474h-26.947v-15.87C414.989,12.223,402.767,0,387.742,0H124.258
			c-15.025,0-27.247,12.223-27.247,27.246v15.87H70.063V29.642c0-4.466-3.62-8.084-8.084-8.084H8.084C3.62,21.558,0,25.176,0,29.642
			v86.232c0,4.466,3.62,8.084,8.084,8.084h53.895c4.465,0,8.084-3.618,8.084-8.084V102.4h26.947v26.947h-6.444
			c-20.221,0-36.672,16.451-36.672,36.671v6.445h-0.199C24.088,172.463,0,196.551,0,226.158v232.145
			C0,487.912,24.088,512,53.695,512h404.608C487.912,512,512,487.912,512,458.305V226.158c0-29.608-24.088-53.695-53.695-53.695
			h-0.199v-6.445c0-20.221-16.451-36.671-36.672-36.671h-6.444V102.4h26.947v13.474
			C441.937,120.339,445.556,123.958,450.021,123.958z M458.105,94.316V51.2V37.726h37.726v70.063h-37.726V94.316z M53.895,51.2
			v43.116v13.474H16.168V37.726h37.726V51.2z M113.179,94.316V51.2V27.246c0-6.108,4.97-11.078,11.079-11.078h263.485
			c6.108,0,11.079,4.969,11.079,11.078V51.2v43.116v35.032h-20.844H256.08c-0.006,0-0.012,0-0.018,0H134.023h-20.844V94.316z
			 M279.814,156.862l58.835,26.149c-8.01,7.449-16.998,13.784-26.702,18.838L279.814,156.862z M296.807,208.47
			c-10.405,3.728-21.396,6.071-32.723,6.827v-52.64L296.807,208.47z M294.094,145.516h71.857
			c-4.212,9.042-9.487,17.41-15.626,24.992L294.094,145.516z M232.186,156.862l-32.134,44.987
			c-9.703-5.054-18.692-11.389-26.702-18.838L232.186,156.862z M161.674,170.508c-6.139-7.581-11.413-15.95-15.626-24.992h71.857
			L161.674,170.508z M247.916,162.658v52.64c-11.326-0.757-22.318-3.099-32.723-6.827L247.916,162.658z M70.063,86.232V59.284
			h26.947v26.947H70.063z M458.105,227.413v-38.782h0.199c20.692,0,37.527,16.835,37.527,37.527v232.145
			c0,20.693-16.835,37.528-37.527,37.528H53.695c-20.692,0-37.527-16.835-37.527-37.527V226.158
			c0-20.692,16.835-37.527,37.527-37.527h0.199v38.782c0,20.22,16.451,36.671,36.672,36.671h330.866
			C441.654,264.084,458.105,247.633,458.105,227.413z M421.433,145.516c11.306,0,20.504,9.198,20.504,20.503v61.394
			c0,11.305-9.198,20.503-20.504,20.503H90.567c-11.306,0.001-20.504-9.197-20.504-20.502V166.02
			c0-11.306,9.198-20.504,20.504-20.504h14.528h23.346c20.799,51.81,71.343,86.232,127.559,86.232s106.76-34.422,127.559-86.232
			h23.346H421.433z M414.989,86.232V59.284h26.947v26.947H414.989z"/>
	</g>
</g>
</svg>