<?xml version="1.0" encoding="iso-8859-1"?>
<!-- Uploaded to: SVG Repo, www.svgrepo.com, Generator: SVG Repo Mixer Tools -->
<svg fill="#000000" height="800px" width="800px" version="1.1" id="Layer_1" xmlns="http://www.w3.org/2000/svg" xmlns:xlink="http://www.w3.org/1999/xlink" 
	 viewBox="0 0 512.001 512.001" xml:space="preserve">
<g>
	<g>
		<path d="M503.983,473.122H41.386l118.323-60.335c0.749-0.382,1.433-0.879,2.027-1.473l297.215-297.215
			c4.744-4.744,7.357-11.052,7.357-17.762c0-6.709-2.613-13.018-7.357-17.762L410.58,30.202c-4.744-4.744-11.052-7.357-17.762-7.357
			c-6.709,0-13.018,2.613-17.762,7.357L77.841,327.418c-0.594,0.594-1.091,1.278-1.473,2.027L0.875,477.497
			c-1.578,3.094-0.983,6.854,1.473,9.31c1.54,1.54,3.591,2.348,5.672,2.348c0.192,0,495.964,0,495.964,0
			c4.427,0,8.017-3.589,8.017-8.017S508.41,473.122,503.983,473.122z M447.615,89.912c1.716,1.716,2.662,3.997,2.662,6.424
			c0,2.427-0.945,4.708-2.661,6.425L156.069,394.308l-10.041-10.041L443.999,86.296L447.615,89.912z M414.196,56.493l18.466,18.466
			L134.691,372.93l-18.466-18.466L414.196,56.493z M386.393,41.539c1.716-1.716,3.998-2.662,6.425-2.662
			c2.427,0,4.708,0.945,6.424,2.662l3.616,3.616l-297.97,297.971l-10.041-10.041L386.393,41.539z M85.64,346.554l56.96,56.959
			L90.226,430.22l-31.292-31.292L85.64,346.554z M51.278,413.945l23.931,23.933l-48.831,24.9L51.278,413.945z"/>
	</g>
</g>
<g>
	<g>
		<path d="M478.329,438.917H144.835c-4.427,0-8.017,3.588-8.017,8.017c0,4.427,3.589,8.017,8.017,8.017h333.495
			c4.427,0,8.017-3.589,8.017-8.017S482.757,438.917,478.329,438.917z"/>
	</g>
</g>
<g>
	<g>
		<path d="M452.676,404.713H196.141c-4.427,0-8.017,3.588-8.017,8.017c0,4.427,3.589,8.017,8.017,8.017h256.534
			c4.427,0,8.017-3.589,8.017-8.017S457.103,404.713,452.676,404.713z"/>
	</g>
</g>
<g>
	<g>
		<path d="M427.022,370.508H230.346c-4.427,0-8.017,3.589-8.017,8.017c0,4.427,3.589,8.017,8.017,8.017h196.676
			c4.427,0,8.017-3.589,8.017-8.017C435.039,374.098,431.45,370.508,427.022,370.508z"/>
	</g>
</g>
</svg>