<svg xmlns="http://www.w3.org/2000/svg"  viewBox="0 0 40 40" width="40px" height="40px"><path fill="#f5c276" d="M3.364,37.5c-0.476,0-0.864-0.396-0.864-0.885V3.385C2.5,2.896,2.888,2.5,3.364,2.5H13.54 C13.513,2.668,13.5,2.834,13.5,3c0,1.93,1.57,3.5,3.5,3.5s3.5-1.57,3.5-3.5c0-0.166-0.013-0.332-0.04-0.5h10.176 c0.476,0,0.864,0.396,0.864,0.885v33.23c0,0.488-0.388,0.885-0.864,0.885H3.364z"/><path fill="#c29653" d="M30.636,3C30.837,3,31,3.173,31,3.385v33.231C31,36.827,30.837,37,30.636,37H3.364 C3.163,37,3,36.827,3,36.615V3.385C3,3.173,3.163,3,3.364,3H13c0,2.206,1.794,4,4,4s4-1.794,4-4H30.636 M30.636,2h-10.82 C19.928,2.314,20,2.647,20,3c0,1.657-1.343,3-3,3s-3-1.343-3-3c0-0.353,0.072-0.686,0.184-1H3.364C2.611,2,2,2.62,2,3.385v33.231 C2,37.38,2.611,38,3.364,38h27.273C31.389,38,32,37.38,32,36.615V3.385C32,2.62,31.389,2,30.636,2L30.636,2z"/><rect width="22" height="28" x="6" y="6" fill="#fff"/><path fill="#66798f" d="M19.289,2c0.225,0.515,0.289,1.116,0.099,1.747c-0.247,0.819-0.937,1.479-1.769,1.679 C15.97,5.821,14.5,4.582,14.5,3c0-0.356,0.077-0.693,0.211-1H10v4c0,1.105,0.895,2,2,2h10c1.105,0,2-0.895,2-2V2H19.289z"/><path fill="#66798f" d="M17,1c1.103,0,2,0.897,2,2s-0.897,2-2,2s-2-0.897-2-2S15.897,1,17,1 M17,0c-1.657,0-3,1.343-3,3 s1.343,3,3,3s3-1.343,3-3S18.657,0,17,0L17,0z"/><circle cx="12" cy="16" r="3.5" fill="#bae0bd"/><path fill="#5e9c76" d="M12,13c1.654,0,3,1.346,3,3s-1.346,3-3,3s-3-1.346-3-3S10.346,13,12,13 M12,12 c-2.209,0-4,1.791-4,4s1.791,4,4,4s4-1.791,4-4S14.209,12,12,12L12,12z"/><rect width=".286" height="5.429" x="8.929" y="25.5" fill="#f78f8f"/><polygon fill="#c74343" points="9.714,25 8.429,25 8.429,31.429 9.714,31.429 9.714,25"/><rect width=".286" height="4.143" x="14.071" y="26.786" fill="#f78f8f"/><polygon fill="#c74343" points="14.857,26.286 13.571,26.286 13.571,31.429 14.857,31.429 14.857,26.286"/><rect width=".286" height="2.857" x="11.5" y="28.071" fill="#8bb7f0"/><polygon fill="#4e7ab5" points="12.286,27.571 11,27.571 11,31.429 12.286,31.429 12.286,27.571"/><path fill="#b0c1d4" d="M20,38.5c-0.827,0-1.5-0.673-1.5-1.5V16c0-0.827,0.673-1.5,1.5-1.5h16c0.827,0,1.5,0.673,1.5,1.5v21 c0,0.827-0.673,1.5-1.5,1.5H20z"/><path fill="#66798f" d="M36,15c0.551,0,1,0.449,1,1v21c0,0.551-0.449,1-1,1H20c-0.551,0-1-0.449-1-1V16c0-0.551,0.449-1,1-1 H36 M36,14H20c-1.105,0-2,0.895-2,2v21c0,1.105,0.895,2,2,2h16c1.105,0,2-0.895,2-2V16C38,14.895,37.105,14,36,14L36,14z"/><path fill="#d6dfeb" d="M19,23v-7c0-0.552,0.448-1,1-1h16c0.552,0,1,0.448,1,1v7H19z"/><rect width="13" height="3" x="21.5" y="17.5" fill="#bae0bd"/><path fill="#5e9c76" d="M34,18v2H22v-2H34 M35,17H21v4h14V17L35,17z"/><rect width="2" height="2" x="29" y="25" fill="#fff"/><rect width="2" height="2" x="33" y="25" fill="#ffeea3"/><rect width="2" height="2" x="25" y="25" fill="#fff"/><rect width="2" height="2" x="21" y="25" fill="#fff"/><rect width="2" height="2" x="29" y="29" fill="#fff"/><rect width="2" height="2" x="33" y="29" fill="#ffeea3"/><g><rect width="2" height="2" x="25" y="29" fill="#fff"/></g><g><rect width="2" height="2" x="21" y="29" fill="#fff"/></g><g><rect width="2" height="2" x="29" y="33" fill="#fff"/></g><g><rect width="2" height="2" x="33" y="33" fill="#f78f8f"/></g><g><rect width="2" height="2" x="25" y="33" fill="#fff"/></g><g><rect width="2" height="2" x="21" y="33" fill="#fff"/></g><g><path fill="#788b9c" d="M12.5,15.5v-2.965c1.531,0.221,2.745,1.435,2.964,2.965H12.5z"/><path fill="#36404d" d="M13,13.171c0.851,0.302,1.527,0.977,1.829,1.829H13V13.171 M12,12v4h4C16,13.791,14.209,12,12,12 L12,12z"/></g></svg>