<svg xmlns="http://www.w3.org/2000/svg"  viewBox="0 0 40 40" width="40px" height="40px"><path fill="#e1ebf2" d="M1.5,32.5V4.826C1.5,3.543,2.6,2.5,3.95,2.5h32.1c1.351,0,2.45,1.043,2.45,2.326V32.5H1.5z"/><path fill="#788b9c" d="M36.05,3C37.125,3,38,3.819,38,4.826V32H2V4.826C2,3.819,2.875,3,3.95,3h1.19h1.035h27.65h1.035 H36.05 M36.05,2h-1.19h-1.035H6.175H5.14H3.95C2.321,2,1,3.266,1,4.826V33h38V4.826C39,3.266,37.678,2,36.05,2L36.05,2z"/><path fill="#b0c1d4" d="M4.5 6.5H35.5V23.5H4.5z"/><path fill="#66798f" d="M35,7v16H5V7H35 M36,6H4v18h32V6L36,6z"/><path fill="#66798f" d="M32 15H35V17H32zM32 19H35V21H32zM32 11H35V13H32zM5 15H8V17H5zM5 19H8V21H5zM5 11H8V13H5z"/><path fill="#8bb7f0" d="M9.5 6.5H30.5V23.5H9.5z"/><path fill="#4e7ab5" d="M30,7v16H10V7H30 M31,6H9v18h22V6L31,6z"/><path fill="#36404d" d="M4 26H24V29H4zM26 26H36V29H26z"/><path fill="#bae0bd" d="M6.5 26.5H21.5V37.5H6.5z"/><path fill="#5e9c76" d="M21,27v10H7V27H21 M22,26H6v12h16V26L22,26z"/><path fill="#fff" d="M14 15H19V16H14zM14 11H26V12H14zM14 32.5A1.5 1.5 0 1 0 14 35.5 1.5 1.5 0 1 0 14 32.5z"/><path fill="#5e9c76" d="M14,33c0.551,0,1,0.449,1,1s-0.449,1-1,1s-1-0.449-1-1S13.449,33,14,33 M14,32c-1.105,0-2,0.895-2,2 s0.895,2,2,2s2-0.895,2-2S15.105,32,14,32L14,32z"/><path fill="#93bc9d" d="M7 26v2h2.537c-.518-.577-.924-1.254-1.188-2H7zM21 26h-1.349c-.264.746-.67 1.423-1.188 2H21V26z"/><path fill="#fff" d="M14,29c1.116,0,2.136-0.38,2.969-1h-5.938C11.864,28.62,12.884,29,14,29z"/><g><path fill="#93bc9d" d="M11.031,28h5.938c0.694-0.517,1.255-1.199,1.607-2H9.424C9.775,26.801,10.337,27.483,11.031,28z"/></g><path fill="#5e9c76" d="M14 29c-1.116 0-2.136-.38-2.969-1H9.537c1.099 1.225 2.688 2 4.463 2s3.365-.775 4.463-2h-1.494C16.136 28.62 15.116 29 14 29zM18.576 26c-.352.801-.913 1.483-1.607 2h1.494c.518-.577.924-1.254 1.188-2H18.576zM9.424 26H8.349c.264.746.67 1.423 1.188 2h1.494C10.337 27.483 9.775 26.801 9.424 26z"/></svg>