<svg xmlns="http://www.w3.org/2000/svg"  viewBox="0 0 40 40" width="40px" height="40px"><path fill="#bae0bd" d="M4.114 7.219H36.114V25.219H4.114z" transform="rotate(-22.646 20.114 16.22)"/><path fill="#5e9c76" d="M31.147,2.406l6.545,15.69L9.082,30.031l-6.545-15.69L31.147,2.406 M31.685,1.098L1.229,13.804 l7.315,17.535L39,18.634L31.685,1.098L31.685,1.098z"/><path fill="#fff" d="M20.117,22.22c-2.431,0-4.605-1.449-5.54-3.691c-1.274-3.053,0.174-6.574,3.228-7.848 c0.738-0.308,1.515-0.464,2.307-0.464c2.431,0,4.605,1.449,5.54,3.691c1.273,3.053-0.174,6.574-3.227,7.848 C21.687,22.064,20.91,22.22,20.117,22.22z"/><path fill="#5e9c76" d="M20.112,10.717L20.112,10.717c2.227,0,4.221,1.328,5.078,3.384c1.168,2.799-0.16,6.026-2.959,7.194 c-0.677,0.282-1.389,0.426-2.115,0.426c-2.228,0-4.221-1.328-5.079-3.384c-1.168-2.799,0.16-6.026,2.958-7.194 C18.674,10.86,19.385,10.717,20.112,10.717 M20.112,9.717c-0.834,0-1.682,0.162-2.5,0.503c-3.313,1.382-4.879,5.188-3.496,8.501 c1.041,2.495,3.457,3.999,6.002,3.999c0.834,0,1.682-0.162,2.5-0.503c3.313-1.382,4.879-5.188,3.496-8.501 C25.072,11.221,22.657,9.717,20.112,9.717L20.112,9.717z"/><path fill="#fff" d="M9.964,22.455c-0.811,0-1.535-0.483-1.847-1.23c-0.206-0.493-0.208-1.037-0.005-1.531 s0.587-0.88,1.08-1.085c0.246-0.103,0.505-0.155,0.77-0.155c0.81,0,1.534,0.483,1.846,1.23c0.425,1.018-0.058,2.191-1.075,2.616 C10.486,22.402,10.228,22.455,9.964,22.455z"/><path fill="#5e9c76" d="M9.961,18.953L9.961,18.953c0.608,0,1.151,0.362,1.385,0.923c0.154,0.37,0.155,0.777,0.003,1.148 c-0.152,0.371-0.44,0.66-0.81,0.814c-0.185,0.077-0.379,0.116-0.576,0.116c-0.608,0-1.151-0.362-1.385-0.923 c-0.154-0.37-0.155-0.777-0.003-1.148c0.152-0.371,0.44-0.66,0.81-0.814C9.57,18.992,9.764,18.953,9.961,18.953 M9.961,17.953 c-0.321,0-0.647,0.062-0.961,0.193c-1.274,0.532-1.876,1.996-1.345,3.27c0.4,0.96,1.33,1.538,2.308,1.538 c0.321,0,0.647-0.062,0.961-0.193c1.274-0.532,1.876-1.996,1.345-3.27C11.869,18.532,10.94,17.953,9.961,17.953L9.961,17.953z"/><path fill="#fff" d="M30.268,13.984c-0.811,0-1.535-0.483-1.847-1.23c-0.425-1.018,0.058-2.191,1.075-2.616 c0.246-0.103,0.505-0.155,0.769-0.155c0.811,0,1.535,0.483,1.847,1.23c0.206,0.493,0.208,1.037,0.005,1.531s-0.587,0.88-1.08,1.085 C30.79,13.933,30.531,13.984,30.268,13.984z"/><path fill="#5e9c76" d="M30.266,10.483L30.266,10.483c0.608,0,1.151,0.362,1.385,0.923c0.154,0.37,0.155,0.777,0.003,1.148 c-0.152,0.371-0.44,0.66-0.81,0.814c-0.185,0.077-0.379,0.116-0.576,0.116c-0.608,0-1.151-0.362-1.385-0.923 c-0.154-0.37-0.155-0.777-0.003-1.148c0.152-0.371,0.44-0.66,0.81-0.814C29.874,10.522,30.068,10.483,30.266,10.483 M30.265,9.483 c-0.321,0-0.647,0.062-0.961,0.193c-1.274,0.532-1.876,1.996-1.345,3.27c0.4,0.96,1.33,1.538,2.308,1.538 c0.321,0,0.647-0.062,0.961-0.193c1.274-0.532,1.876-1.996,1.345-3.27C32.173,10.061,31.244,9.483,30.265,9.483L30.265,9.483z"/><g><path fill="#bae0bd" d="M6.5 20.5H38.5V38.5H6.5z"/><path fill="#5e9c76" d="M38,21v17H7V21H38 M39,20H6v19h33V20L39,20z"/></g><g><path fill="#fff" d="M22.5 23.5A6 6 0 1 0 22.5 35.5A6 6 0 1 0 22.5 23.5Z"/><path fill="#5e9c76" d="M22.5,24c3.033,0,5.5,2.467,5.5,5.5S25.533,35,22.5,35S17,32.533,17,29.5S19.467,24,22.5,24 M22.5,23c-3.59,0-6.5,2.91-6.5,6.5s2.91,6.5,6.5,6.5s6.5-2.91,6.5-6.5S26.09,23,22.5,23L22.5,23z"/></g><g><path fill="#fff" d="M11.5 27.5A2 2 0 1 0 11.5 31.5A2 2 0 1 0 11.5 27.5Z"/><path fill="#5e9c76" d="M11.5,28c0.827,0,1.5,0.673,1.5,1.5S12.327,31,11.5,31S10,30.327,10,29.5S10.673,28,11.5,28 M11.5,27C10.119,27,9,28.119,9,29.5s1.119,2.5,2.5,2.5s2.5-1.119,2.5-2.5S12.881,27,11.5,27L11.5,27z"/></g><g><path fill="#fff" d="M33.5 27.5A2 2 0 1 0 33.5 31.5A2 2 0 1 0 33.5 27.5Z"/><path fill="#5e9c76" d="M33.5,28c0.827,0,1.5,0.673,1.5,1.5S34.327,31,33.5,31S32,30.327,32,29.5S32.673,28,33.5,28 M33.5,27c-1.381,0-2.5,1.119-2.5,2.5s1.119,2.5,2.5,2.5s2.5-1.119,2.5-2.5S34.881,27,33.5,27L33.5,27z"/></g></svg>