<svg xmlns="http://www.w3.org/2000/svg"  viewBox="0 0 40 40" width="40px" height="40px"><rect width="37" height="31" x="1.5" y="4.5" fill="#fff"/><rect width="5.5" height="25" x="1.5" y="10.5" fill="#e1ebf2"/><rect width="5" height="25" x="20" y="10.5" fill="#e1ebf2"/><rect width="37" height="6" x="1.5" y="4.5" fill="#b0c1d4"/><path fill="#788b9c" d="M38,5v5H2V5H38 M39,4H1v7h38V4L39,4z"/><rect width="9" height="1" x="27" y="31" fill="#788b9c"/><rect width="7" height="1" x="27" y="22" fill="#788b9c"/><rect width="9" height="1" x="27" y="18" fill="#788b9c"/><rect width="9" height="1" x="27" y="14" fill="#788b9c"/><rect width="4" height="1" x="32" y="27" fill="#788b9c"/><rect width="9" height="1" x="9" y="31" fill="#788b9c"/><rect width="9" height="1" x="9" y="22" fill="#788b9c"/><rect width="6" height="1" x="9" y="18" fill="#788b9c"/><rect width="9" height="1" x="9" y="14" fill="#788b9c"/><rect width="1" height="1" x="4" y="14" fill="#788b9c"/><rect width="1" height="1" x="4" y="18" fill="#788b9c"/><rect width="1" height="1" x="4" y="22" fill="#788b9c"/><rect width="1" height="1" x="4" y="27" fill="#788b9c"/><rect width="1" height="1" x="4" y="31" fill="#788b9c"/><rect width="1" height="1" x="22" y="14" fill="#788b9c"/><rect width="1" height="1" x="22" y="18" fill="#788b9c"/><rect width="1" height="1" x="22" y="22" fill="#788b9c"/><rect width="1" height="1" x="22" y="27" fill="#788b9c"/><rect width="1" height="1" x="22" y="31" fill="#788b9c"/><rect width="4" height="1" x="14" y="27" fill="#788b9c"/><g><path fill="#788b9c" d="M38,5v30H2V5H38 M39,4H1v32h38V4L39,4z"/></g></svg>