<svg xmlns="http://www.w3.org/2000/svg"  viewBox="0 0 40 40" width="40px" height="40px"><path fill="#8bb7f0" d="M8 12.5A6.5 6.5 0 1 0 8 25.5A6.5 6.5 0 1 0 8 12.5Z"/><path fill="#4e7ab5" d="M8,13c3.308,0,6,2.692,6,6s-2.692,6-6,6s-6-2.692-6-6S4.692,13,8,13 M8,12c-3.866,0-7,3.134-7,7 s3.134,7,7,7s7-3.134,7-7S11.866,12,8,12L8,12z"/><path fill="#8bb7f0" d="M32 12.5A6.5 6.5 0 1 0 32 25.5A6.5 6.5 0 1 0 32 12.5Z"/><path fill="#4e7ab5" d="M32,13c3.308,0,6,2.692,6,6s-2.692,6-6,6s-6-2.692-6-6S28.692,13,32,13 M32,12 c-3.866,0-7,3.134-7,7s3.134,7,7,7s7-3.134,7-7S35.866,12,32,12L32,12z"/><path fill="#c2e8ff" d="M20 10.5A6.5 6.5 0 1 0 20 23.5A6.5 6.5 0 1 0 20 10.5Z"/><path fill="#7496c4" d="M20,11c3.308,0,6,2.692,6,6s-2.692,6-6,6s-6-2.692-6-6S16.692,11,20,11 M20,10c-3.866,0-7,3.134-7,7 s3.134,7,7,7s7-3.134,7-7S23.866,10,20,10L20,10z"/><path fill="#ffeea3" d="M20 1.5A3.5 3.5 0 1 0 20 8.5A3.5 3.5 0 1 0 20 1.5Z"/><path fill="#ba9b48" d="M20,2c1.654,0,3,1.346,3,3s-1.346,3-3,3s-3-1.346-3-3S18.346,2,20,2 M20,1c-2.209,0-4,1.791-4,4 s1.791,4,4,4s4-1.791,4-4S22.209,1,20,1L20,1z"/><path fill="#bae0bd" d="M1.5 17.5H38.5V38.5H1.5z"/><path fill="#5e9c76" d="M38,18v20H2V18H38 M39,17H1v22h38V17L39,17z"/><g><path fill="#fff" d="M20 20.5A7.5 7.5 0 1 0 20 35.5A7.5 7.5 0 1 0 20 20.5Z"/><path fill="#5e9c76" d="M20,21c3.86,0,7,3.14,7,7s-3.14,7-7,7s-7-3.14-7-7S16.14,21,20,21 M20,20c-4.418,0-8,3.582-8,8 s3.582,8,8,8s8-3.582,8-8S24.418,20,20,20L20,20z"/></g><g><path fill="#fff" d="M33 25.5A2.5 2.5 0 1 0 33 30.5A2.5 2.5 0 1 0 33 25.5Z"/><path fill="#5e9c76" d="M33,26c1.103,0,2,0.897,2,2s-0.897,2-2,2c-1.103,0-2-0.897-2-2S31.897,26,33,26 M33,25 c-1.657,0-3,1.343-3,3s1.343,3,3,3c1.657,0,3-1.343,3-3S34.657,25,33,25L33,25z"/></g><g><path fill="#fff" d="M7 25.5A2.5 2.5 0 1 0 7 30.5A2.5 2.5 0 1 0 7 25.5Z"/><path fill="#5e9c76" d="M7,26c1.103,0,2,0.897,2,2s-0.897,2-2,2s-2-0.897-2-2S5.897,26,7,26 M7,25c-1.657,0-3,1.343-3,3 s1.343,3,3,3s3-1.343,3-3S8.657,25,7,25L7,25z"/></g><g><path fill="#ffeea3" d="M8 3.5A3.5 3.5 0 1 0 8 10.5A3.5 3.5 0 1 0 8 3.5Z"/><path fill="#ba9b48" d="M8,4c1.654,0,3,1.346,3,3s-1.346,3-3,3S5,8.654,5,7S6.346,4,8,4 M8,3C5.791,3,4,4.791,4,7 s1.791,4,4,4s4-1.791,4-4S10.209,3,8,3L8,3z"/></g><g><path fill="#ffeea3" d="M32 3.5A3.5 3.5 0 1 0 32 10.5A3.5 3.5 0 1 0 32 3.5Z"/><path fill="#ba9b48" d="M32,4c1.654,0,3,1.346,3,3s-1.346,3-3,3s-3-1.346-3-3S30.346,4,32,4 M32,3c-2.209,0-4,1.791-4,4 s1.791,4,4,4s4-1.791,4-4S34.209,3,32,3L32,3z"/></g></svg>