<svg xmlns="http://www.w3.org/2000/svg"  viewBox="0 0 40 40" width="40px" height="40px"><path fill="#8bb7f0" d="M14,26.5C7.107,26.5,1.5,20.893,1.5,14S7.107,1.5,14,1.5S26.5,7.107,26.5,14S20.893,26.5,14,26.5z"/><path fill="#4e7ab5" d="M14,2c6.617,0,12,5.383,12,12s-5.383,12-12,12S2,20.617,2,14S7.383,2,14,2 M14,1C6.82,1,1,6.82,1,14 s5.82,13,13,13s13-5.82,13-13S21.18,1,14,1L14,1z"/><path fill="#fff3bf" d="M16.993,19.845c-0.686,0.418-1.581,0.628-2.685,0.628c-1.308,0-2.374-0.362-3.2-1.085 c-0.825-0.724-1.371-1.757-1.639-3.099H8.407v-1.656h0.837c-0.013-0.145-0.019-0.317-0.019-0.514c0-0.105,0.012-0.343,0.035-0.715 H8.407v-1.63h1.106c0.32-1.342,0.924-2.386,1.813-3.129c0.889-0.744,1.997-1.116,3.322-1.116c0.969,0,1.752,0.16,2.344,0.479v2.266 c-0.651-0.511-1.389-0.767-2.214-0.767c-0.639,0-1.202,0.206-1.686,0.619c-0.486,0.413-0.83,0.962-1.033,1.648h3.713v1.63h-3.975 c-0.023,0.343-0.035,0.581-0.035,0.715c0,0.157,0.006,0.328,0.017,0.514h3.992v1.656h-3.731c0.436,1.464,1.304,2.197,2.607,2.197 c0.818,0,1.6-0.262,2.344-0.785V19.845z"/><path fill="#bae0bd" d="M26,38.5c-6.893,0-12.5-5.607-12.5-12.5S19.107,13.5,26,13.5S38.5,19.107,38.5,26 S32.893,38.5,26,38.5z"/><path fill="#5e9c76" d="M26,14c6.617,0,12,5.383,12,12s-5.383,12-12,12s-12-5.383-12-12S19.383,14,26,14 M26,13 c-7.18,0-13,5.82-13,13s5.82,13,13,13s13-5.82,13-13S33.18,13,26,13L26,13z"/><path fill="#45805b" d="M24.218,23.087c0-0.667,0.598-1.242,1.827-1.242c1.392,0,2.394,0.394,3.173,0.867v-2.25	c-0.579-0.322-1.453-0.511-2.626-0.567v-1.517h-1.217v1.55c-1.017,0.1-1.833,0.457-2.45,1.071C22.309,21.614,22,22.357,22,23.229	c0,3.446,5.784,3.553,5.784,5.442c0,0.672-0.842,1.192-1.781,1.192c-1.923,0-3.455-0.814-3.777-1.075v2.308	c0.972,0.506,2.022,0.761,3.15,0.767v1.758h1.217v-1.808c1.094-0.122,1.936-0.465,2.526-1.029C29.706,30.22,30,29.476,30,28.554	C30,24.875,24.218,25.156,24.218,23.087z"/></svg>