<svg xmlns="http://www.w3.org/2000/svg"  viewBox="0 0 40 40" width="40px" height="40px"><path fill="#bae0bd" d="M14.207 28.5L17.5 28.5 17.5 17.5 22.5 17.5 22.5 28.5 25.793 28.5 20 34.293z"/><path fill="#5e9c76" d="M22,18v10v1h1h1.586L20,33.586L15.414,29H17h1v-1V18H22 M23,17h-6v11h-4l7,7l7-7h-4V17L23,17z"/><path fill="#ffeea3" d="M20,20.5c-5.238,0-9.5-4.262-9.5-9.5s4.262-9.5,9.5-9.5s9.5,4.262,9.5,9.5S25.238,20.5,20,20.5z"/><path fill="#ba9b48" d="M20,2c4.963,0,9,4.037,9,9s-4.037,9-9,9s-9-4.037-9-9S15.037,2,20,2 M20,1c-5.523,0-10,4.477-10,10 s4.477,10,10,10s10-4.477,10-10S25.523,1,20,1L20,1z"/><path fill="#f5ce85" d="M20 4A7 7 0 1 0 20 18A7 7 0 1 0 20 4Z"/><path fill="none" stroke="#788b9c" stroke-miterlimit="10" d="M39,16.5h-3.5v19c0,1.657-1.343,3-3,3h-25c-1.657,0-3-1.343-3-3	v-19H1"/><g><path fill="#967a44" d="M17.712,14.512v-1.205c0.508,0.342,1.023,0.513,1.545,0.513c0.526,0,0.949-0.134,1.269-0.402 c0.32-0.268,0.481-0.626,0.481-1.072c0-0.439-0.163-0.781-0.489-1.026c-0.326-0.245-0.793-0.367-1.402-0.367 c-0.209,0-0.632,0.022-1.269,0.065l0.275-4.073h3.813v1.07h-2.771l-0.13,1.939c0.248-0.014,0.474-0.022,0.675-0.022 c0.821,0,1.456,0.211,1.904,0.632c0.448,0.421,0.672,0.997,0.672,1.728c0,0.767-0.257,1.382-0.77,1.845s-1.218,0.694-2.115,0.694 C18.647,14.831,18.083,14.724,17.712,14.512z"/></g></svg>