<svg xmlns="http://www.w3.org/2000/svg"  viewBox="0 0 40 40" width="40px" height="40px"><path fill="#e8d47b" d="M21.657,11.329c0.713,0.713,1.255,1.531,1.642,2.401L30,12.985l-0.154-0.769 c-0.563-2.815-1.383-5.572-2.449-8.238L27,2.985C27,2.985,23.958,2,14,2l-0.804,0.588C16.387,5.894,21.048,10.72,21.657,11.329z"/><path fill="#ba9b48" d="M27.397,3.979L27,2.985c0,0-0.353-0.113-1.182-0.262l0.651,1.627 c1.003,2.507,1.788,5.117,2.336,7.762l0.192,0.985L30,12.985l-0.154-0.769C29.283,9.402,28.464,6.644,27.397,3.979z"/><path fill="#b3add8" d="M26,37.5c-6.893,0-12.5-5.607-12.5-12.5S19.107,12.5,26,12.5S38.5,18.107,38.5,25 S32.893,37.5,26,37.5z"/><path fill="#8b75a1" d="M26,13c6.617,0,12,5.383,12,12s-5.383,12-12,12s-12-5.383-12-12S19.383,13,26,13 M26,12 c-7.18,0-13,5.82-13,13s5.82,13,13,13s13-5.82,13-13S33.18,12,26,12L26,12z"/><circle cx="26" cy="25" r="9" fill="#dcd5f2"/><path fill="#8b75a1" d="M27,19.5v11.125h-1.952v-8.568c-0.353,0.249-1.098,0.535-2.533,0.893v-1.642 c1.95-0.616,3.34-1.581,3.66-1.808C26.175,19.5,27,19.5,27,19.5z"/><path fill="#ffeea3" d="M22.364,23.364c-3.515,3.515-9.213,3.515-12.728,0S1,15,1,15s1-4,5-8s8-5,8-5s6.578,6.85,8.364,8.636 C25.879,14.151,25.879,19.849,22.364,23.364z"/><path fill="#ffeea3" d="M22.364,23.364c-3.515,3.515-9.213,3.515-12.728,0S1,15,1,15s1-4,5-8s8-5,8-5s6.578,6.85,8.364,8.636 C25.879,14.151,25.879,19.849,22.364,23.364z"/><path fill="#ba9b48" d="M22.364,10.636C20.578,8.85,14,2,14,2s-0.389,0.097-1.046,0.352c3.191,3.307,8.079,8.367,8.703,8.991 c3.119,3.119,3.119,8.195,0,11.314C20.146,24.168,18.137,25,16,25c-2.137,0-4.146-0.832-5.657-2.343 c-0.589-0.589-5.238-5.098-8.981-8.726C1.1,14.601,1,15,1,15s5.121,4.849,8.636,8.364C11.393,25.121,13.697,26,16,26 s4.607-0.879,6.364-2.636C25.879,19.849,25.879,14.151,22.364,10.636z"/><path fill="#e8d47b" d="M17.471,9.917c-1.025-1.056-2.662-1.221-3.873-0.384c-0.769,0.531-1.7,1.28-2.746,2.325 c-1.043,1.043-1.789,1.969-2.319,2.735c-0.835,1.207-0.676,2.835,0.375,3.859c0.878,0.855,1.88,1.842,2.679,2.639 c1.038,1.035,2.38,1.753,3.84,1.884c1.812,0.163,3.545-0.469,4.811-1.735c2.344-2.343,2.344-6.155,0-8.497 C19.688,12.192,18.578,11.057,17.471,9.917z"/></svg>