<svg xmlns="http://www.w3.org/2000/svg"  viewBox="0 0 40 40" width="40px" height="40px"><path fill="#bae0bd" d="M1.5 17.5H38.5V38.5H1.5z"/><path fill="#5e9c76" d="M38,18v20H2V18H38 M39,17H1v22h38V17L39,17z"/><path fill="#fff" d="M20 20.5A7.5 7.5 0 1 0 20 35.5A7.5 7.5 0 1 0 20 20.5Z"/><path fill="#5e9c76" d="M20,21c3.86,0,7,3.14,7,7s-3.14,7-7,7s-7-3.14-7-7S16.14,21,20,21 M20,20c-4.418,0-8,3.582-8,8 s3.582,8,8,8s8-3.582,8-8S24.418,20,20,20L20,20z"/><path fill="#8bb7f0" d="M26.991 2.899L32.333 1.667 31.101 7.008z"/><path fill="#4e7ab5" d="M31.666,2.334l-0.85,3.683l-2.833-2.833L31.666,2.334 M33,1l-7,1.615L31.385,8L33,1L33,1z"/><path fill="none" stroke="#4e7ab5" stroke-miterlimit="10" d="M7.375 15.625L16 6.72 21.5 12.3 29.125 4.875"/><g><path fill="#fff" d="M33 25.5A2.5 2.5 0 1 0 33 30.5A2.5 2.5 0 1 0 33 25.5Z"/><path fill="#5e9c76" d="M33,26c1.103,0,2,0.897,2,2s-0.897,2-2,2s-2-0.897-2-2S31.897,26,33,26 M33,25 c-1.657,0-3,1.343-3,3s1.343,3,3,3s3-1.343,3-3S34.657,25,33,25L33,25z"/></g><g><path fill="#fff" d="M7 25.5A2.5 2.5 0 1 0 7 30.5A2.5 2.5 0 1 0 7 25.5Z"/><path fill="#5e9c76" d="M7,26c1.103,0,2,0.897,2,2s-0.897,2-2,2s-2-0.897-2-2S5.897,26,7,26 M7,25c-1.657,0-3,1.343-3,3 s1.343,3,3,3s3-1.343,3-3S8.657,25,7,25L7,25z"/></g></svg>