<?xml version="1.0" encoding="iso-8859-1"?>
<!-- Uploaded to: SVG Repo, www.svgrepo.com, Generator: SVG Repo Mixer Tools -->
<svg height="800px" width="800px" version="1.1" id="Layer_1" xmlns="http://www.w3.org/2000/svg" xmlns:xlink="http://www.w3.org/1999/xlink" 
	 viewBox="0 0 512 512" xml:space="preserve">
<path style="fill:#FFFFFF;" d="M256,504C119.033,504,8,392.967,8,256S119.033,8,256,8s248,111.033,248,248
	C503.846,392.903,392.903,503.846,256,504z"/>
<path style="fill:#E21B1B;" d="M256,16c132.549,0,240,107.451,240,240S388.549,496,256,496S16,388.549,16,256
	C16.15,123.514,123.514,16.15,256,16 M256,0C114.616,0,0,114.616,0,256s114.616,256,256,256s256-114.615,256-256S397.385,0,256,0z"
	/>
<path style="fill:#FFFFFF;" d="M256,467.896c-117.027,0-211.896-94.869-211.896-211.896S138.973,44.104,256,44.104
	S467.896,138.973,467.896,256l0,0C467.764,372.972,372.972,467.764,256,467.896z"/>
<path style="fill:#CCCCCC;" d="M256,48.104c114.818,0,207.897,93.079,207.897,207.897S370.818,463.898,256,463.898
	S48.104,370.818,48.104,256C48.232,141.235,141.235,48.232,256,48.104 M256,40.104c-119.236,0-215.897,96.66-215.897,215.897
	S136.764,471.897,256,471.897S471.897,375.237,471.897,256l0,0C471.897,136.764,375.237,40.104,256,40.104z"/>
<path style="fill:#939393;" d="M285.12,403.953c-42.319,1.178-82.731-17.6-109.12-50.704c-12.469-15.866-20.865-34.543-24.456-54.4
	h-28.832V260.24h23.864v-3.32c0-2.224,0.112-4.448,0.224-6.672c0-0.752,0.072-1.504,0.112-2.264h-24.2v-38.577h29.96
	c5.407-21.29,15.691-41.032,30.04-57.665c26.291-29.277,63.926-45.801,103.272-45.344c22.913-0.192,45.623,4.322,66.72,13.264
	l3.072,1.352l-14.089,56.912l-4.304-1.808c-14.755-6.282-30.575-9.684-46.608-10.024c-28.149-1.595-53.731,16.288-61.904,43.272
	h106.68v38.632H220.696c-0.152,3.128-0.152,6.4-0.152,9.36v2.896h115.008v38.592H227.8c2.227,8.645,6.372,16.679,12.128,23.504
	c13.936,14.086,33.201,21.583,52.992,20.624c16.46-0.177,32.695-3.844,47.632-10.76l4.64-2.4l12.16,55.848l-2.6,1.448
	C333.221,398.21,309.343,403.985,285.12,403.953z M130.72,290.832h27.576l0.568,3.328c3.067,19.767,11.151,38.417,23.48,54.168
	c24.879,31.133,62.94,48.771,102.776,47.624c21.867-0.005,43.452-4.956,63.136-14.48l-8.704-40
	c-14.823,6.022-30.635,9.239-46.632,9.488c-22.1,1.145-43.611-7.355-58.96-23.296c-7.665-9.192-12.893-20.167-15.2-31.912
	l-1.152-4.912h109.944v-22.6H212.544v-10.896c0-4.336,0-9.248,0.456-13.768l0.368-3.576h114.184v-22.592H218.265l1.368-5.048
	c2.626-10.85,7.665-20.968,14.744-29.6c14.01-16.442,34.809-25.519,56.392-24.608c15.533,0.27,30.896,3.29,45.376,8.92
	l10.256-41.368c-19.25-7.505-39.738-11.328-60.4-11.272c-37.095-0.682-72.634,14.883-97.288,42.608
	c-14.169,16.475-24.132,36.141-29.032,57.312l-0.744,3.056h-28.224V240h24.304v4c0,2.224-0.112,4.448-0.224,6.672
	c-0.104,2.088-0.208,4.176-0.208,6.264v11.304h-23.872L130.72,290.832z"/>
</svg>