<?xml version="1.0" encoding="iso-8859-1"?>
<!-- Uploaded to: SVG Repo, www.svgrepo.com, Generator: SVG Repo Mixer Tools -->
<svg version="1.1" id="Layer_1" xmlns="http://www.w3.org/2000/svg" xmlns:xlink="http://www.w3.org/1999/xlink" 
	 viewBox="0 0 512 512" xml:space="preserve">
<path style="fill:#FFFFFF;" d="M117.6,508C90.207,508,68,485.793,68,458.4l0,0V4h326.4C421.793,4,444,26.207,444,53.6l0,0V508H117.6
	z"/>
<path style="fill:#999999;" d="M394.401,8c25.185,0,45.6,20.416,45.6,45.6l0,0V504H117.6C92.416,504,72,483.585,72,458.4l0,0V8
	H394.401 M394.401,0H64v458.4c0,29.603,23.997,53.6,53.6,53.6l0,0H448V53.6C448.001,23.997,424.004,0,394.401,0L394.401,0z"/>
<g>
	<polygon style="fill:#E21B1B;" points="130.728,145.96 130.561,128.177 222.872,75.96 299.553,127.08 376.697,80.224 
		386.121,91.848 300.441,145.624 222.152,93.448 	"/>
	<polygon style="fill:#E21B1B;" points="368.376,74.944 400.945,72.072 387.177,101.728 	"/>
</g>
<polygon points="202.808,318.968 176.065,318.968 176.065,137.848 202.808,123.697 "/>
<g>
	<polygon style="fill:#E21B1B;" points="158.281,318.968 131.536,318.968 131.536,162.944 158.281,149.72 	"/>
	<polygon style="fill:#E21B1B;" points="247.337,318.968 220.593,318.968 220.593,112.76 247.121,131.68 	"/>
</g>
<polygon points="291.865,318.968 265.12,318.968 265.12,142.288 291.865,160.112 "/>
<polygon style="fill:#E21B1B;" points="336.393,318.545 309.52,318.545 309.353,158.553 336.393,143.936 "/>
<polygon points="380.921,319.216 354.217,319.216 354.217,131.384 380.921,114.912 "/>
<g>
	<rect x="130.566" y="364.818" style="fill:#CCCCCC;" width="250.362" height="8"/>
	<rect x="130.566" y="400.374" style="fill:#CCCCCC;" width="250.362" height="8"/>
	<rect x="130.566" y="435.929" style="fill:#CCCCCC;" width="250.362" height="8"/>
</g>
</svg>