<svg xmlns="http://www.w3.org/2000/svg"  viewBox="0 0 30 30" width="40px" height="40px"><path fill="#fff" d="M24.82,3.5H15H5.18C4.26,3.5,3.5,4.26,3.5,5.18v19.64c0,0.92,0.76,1.68,1.68,1.68H15h9.82	c0.92,0,1.68-0.76,1.68-1.68V5.18C26.5,4.26,25.74,3.5,24.82,3.5z"/><path fill="#a3b7cc" d="M24.82,3H15H5.18C3.978,3,3,3.978,3,5.18v19.64C3,26.022,3.978,27,5.18,27H15h1v-1h-1H5.18	C4.54,26,4,25.459,4,24.82V5.18C4,4.541,4.54,4,5.18,4H15h9.82C25.46,4,26,4.541,26,5.18V16h1V5.18C27,3.978,26.022,3,24.82,3z"/><path fill="#e1ebf2" d="M26,24.82c0,0.64-0.54,1.18-1.18,1.18H16v1h8.82c1.202,0,2.18-0.978,2.18-2.18V16h-1V24.82z"/><path fill="#ecf7ed" d="M18 21L16 16 21 18z"/><path fill="#94cf9a" d="M14.998 15L14 14c-1.3-1.5-2.5-3.082-2.5-4.218 0-1.068.736-1.282 1.104-1.282 1.472 0 2.393 1.529 2.393 1.529S15.917 8.5 17.389 8.5c.368 0 1.104.214 1.104 1.282C18.552 10.903 17.298 12.53 16 14L14.998 15zM15 15l-1.5 1.5c-1.299 1.5-1.996 2.582-1.996 3.718 0 1.068.736 1.282 1.104 1.282 1.471 0 2.392-1 2.392-1s.918 1 2.39 1c.368 0 1.104-.214 1.104-1.282.058-1.121-.696-2.248-1.993-3.718L15 15z"/><path fill="#bae0bd" d="M15 15l-1.5 1.5c-1.5 1.299-2.582 1.996-3.718 1.996-1.068 0-1.282-.736-1.282-1.104C8.5 15.921 10.029 15 10.029 15S8.5 14.082 8.5 12.61c0-.368.214-1.104 1.282-1.104C10.903 11.448 12.53 12.702 14 14L15 15zM15 15l1.5 1.5c1.5 1.299 2.582 1.996 3.718 1.996 1.068 0 1.282-.736 1.282-1.104 0-1.471-1.529-2.392-1.529-2.392s1.529-.919 1.529-2.39c0-.368-.214-1.104-1.282-1.104C19.097 11.448 17.47 12.702 16 14L15 15z"/><path fill="#5e9c76" d="M20.79,15c0.52-0.46,1.21-1.29,1.21-2.39c0-0.78-0.56-1.61-1.78-1.61c-0.48,0-0.93,0.04-1.41,0.19	l0.03-0.03c0.13-0.44,0.18-0.89,0.15-1.38c0-1.22-0.83-1.78-1.6-1.78C16.28,8,15.46,8.69,15,9.21C14.53,8.69,13.71,8,12.6,8	C11.83,8,11,8.56,11,9.78c0,0.47,0.04,0.91,0.18,1.38c-0.45-0.13-0.91-0.18-1.4-0.15c-1.22,0-1.78,0.83-1.78,1.6	c0,1.1,0.69,1.93,1.21,2.39C8.69,15.46,8,16.29,8,17.39C8,18.17,8.56,19,9.78,19c0.48,0,0.93-0.04,1.41-0.19l-0.03,0.03	c-0.13,0.44-0.18,0.89-0.15,1.38c0,1.22,0.83,1.78,1.6,1.78c1.11,0,1.93-0.69,2.39-1.21c0.07,0.08,0.15,0.16,0.24,0.24	c0.24,0.24,0.54,0.47,0.89,0.64c0.06-0.34,0.15-0.67,0.27-0.99c-0.37-0.23-0.65-0.55-0.81-0.75c-0.1-0.13-0.15-0.21-0.16-0.22	L15,19.01l-0.43,0.7c0,0.02-0.8,1.29-1.96,1.29c-0.22,0-0.6-0.1-0.6-0.81c-0.04-0.66,0.06-1.28,0.64-2.14l1.37-2.06l0.02-0.02h-0.01	l-2.04,1.35C11.14,17.89,10.53,18,9.78,18C9.1,18,9,17.62,9,17.39c0-1.16,1.28-1.95,1.29-1.96l0.7-0.43l-0.7-0.43	C10.27,14.56,9,13.77,9,12.61c0-0.23,0.1-0.6,0.81-0.6c0.66-0.04,1.28,0.06,2.16,0.64l2.06,1.39l-1.37-2.08	C12.11,11.12,12,10.53,12,9.78C12,9.1,12.38,9,12.6,9c1.17,0,1.96,1.28,1.97,1.29l0.43,0.7l0.43-0.7c0-0.02,0.8-1.29,1.96-1.29	c0.22,0,0.6,0.1,0.6,0.81c0.04,0.66-0.06,1.28-0.64,2.14l-1.37,2.06l-0.01,0.02l2.04-1.35c0.85-0.57,1.46-0.68,2.21-0.68	C20.9,12,21,12.38,21,12.61c0,1.16-1.28,1.95-1.29,1.96L19.01,15l0.7,0.43c0.01,0.01,0.09,0.06,0.22,0.16	c0.21,0.16,0.52,0.43,0.75,0.8c0.32-0.11,0.66-0.2,1-0.26c-0.18-0.36-0.41-0.66-0.64-0.89C20.95,15.15,20.87,15.07,20.79,15z"/><path fill="#f78f8f" d="M23 16.5A6.5 6.5 0 1 0 23 29.5A6.5 6.5 0 1 0 23 16.5Z"/><path fill="#c74343" d="M23,17c3.3,0,6,2.7,6,6s-2.7,6-6,6s-6-2.7-6-6S19.7,17,23,17 M23,16c-3.9,0-7,3.1-7,7s3.1,7,7,7	s7-3.1,7-7S26.9,16,23,16L23,16z"/><path fill="#94cf9a" d="M15.59,19.93c-0.14,0.35-0.26,0.72-0.35,1.1c0.24,0.24,0.54,0.47,0.89,0.64	c0.06-0.34,0.15-0.67,0.27-0.99C16.03,20.45,15.75,20.13,15.59,19.93z"/><path fill="#bae0bd" d="M21.04,15.24c-0.38,0.09-0.75,0.21-1.11,0.35c0.21,0.16,0.52,0.43,0.75,0.8	c0.32-0.11,0.66-0.2,1-0.26C21.5,15.77,21.27,15.47,21.04,15.24z"/><path fill="#fff" d="M19.04 22H26.959V24H19.04z" transform="rotate(-45.001 23 23)"/><path fill="#fff" d="M22 19.04H24V26.959H22z" transform="rotate(-45.001 23 23)"/></svg>