<svg xmlns="http://www.w3.org/2000/svg"  viewBox="0 0 40 40" width="40px" height="40px"><path fill="#8bb7f0" d="M20,38.5c-11.421,0-18.5-1.495-18.5-8.935C1.5,21.69,13.084,8.5,20,8.5s18.5,13.19,18.5,21.065 C38.5,37.005,31.421,38.5,20,38.5z"/><path fill="#4e7ab5" d="M20,9c6.561,0,18,13.069,18,20.565C38,36.589,31.113,38,20,38S2,36.589,2,29.565 C2,22.069,13.439,9,20,9 M20,8C12.844,8,1,21.377,1,29.565S9.294,39,20,39s19-1.247,19-9.435S27.156,8,20,8L20,8z"/><path fill="#8bb7f0" d="M14.981,9.5c-0.547-0.297-3.188-1.848-3.459-4.156C12.729,5.049,16.506,4.2,20,4.2 s7.271,0.849,8.478,1.144c-0.271,2.308-2.912,3.859-3.459,4.156H14.981z"/><path fill="#4e7ab5" d="M20,4.7c3.075,0,6.383,0.67,7.897,1.02C27.429,7.438,25.505,8.65,24.89,9h-9.778 c-0.613-0.351-2.536-1.573-3.007-3.281C13.62,5.37,16.926,4.7,20,4.7 M20,3.7c-4.325,0-9,1.26-9,1.26C11,8.095,14.857,10,14.857,10 h10.286c0,0,3.857-1.905,3.857-5.04C29,4.96,24.325,3.7,20,3.7L20,3.7z"/><path fill="#8bb7f0" d="M17.497,9.5l-3.801-6.982C14.559,2.17,16.654,1.5,20,1.5s5.441,0.67,6.304,1.018L22.503,9.5H17.497z"/><path fill="#4e7ab5" d="M20,2c2.711,0,4.571,0.449,5.588,0.788L22.206,9h-4.412l-3.382-6.212C15.431,2.449,17.29,2,20,2 M20,1c-4.71,0-7,1.286-7,1.286L17.2,10h5.6L27,2.286C27,2.286,24.71,1,20,1L20,1z"/><path fill="none" stroke="#ffeea3" stroke-linecap="round" stroke-linejoin="round" stroke-miterlimit="10" d="M26.5 9.5h-11c0 0-3 4-3 11M15.5 9.5c0 0-5.251 2.516-7.036 9.143"/><path fill="#ffeea3" d="M17.663,27.413c0.224,0.994,0.615,1.738,1.173,2.231c0.558,0.493,1.317,0.74,2.279,0.74	c0.519,0,1.019-0.068,1.5-0.203c0.48-0.136,0.942-0.325,1.384-0.568v1.71c-0.484,0.223-0.981,0.391-1.49,0.506	C22.002,31.943,21.474,32,20.926,32c-1.48,0-2.658-0.382-3.531-1.147c-0.874-0.765-1.444-1.911-1.71-3.44H14v-1.417h1.516	c-0.014-0.132-0.021-0.264-0.021-0.396c0-0.132,0-0.278,0-0.438c0-0.173,0.003-0.345,0.011-0.516	c0.007-0.17,0.017-0.339,0.031-0.506H14v-1.417h1.748c0.161-0.73,0.4-1.387,0.716-1.97s0.698-1.079,1.147-1.485	c0.449-0.407,0.96-0.72,1.532-0.938C19.714,18.11,20.344,18,21.032,18c0.561,0,1.082,0.056,1.563,0.167	c0.481,0.111,0.949,0.275,1.405,0.49v1.782c-0.442-0.264-0.9-0.467-1.373-0.61c-0.474-0.142-0.991-0.213-1.553-0.213	c-0.87,0-1.586,0.264-2.147,0.792s-0.976,1.299-1.242,2.314h4.232v1.417h-4.442c-0.014,0.146-0.025,0.294-0.032,0.443	c-0.007,0.149-0.011,0.301-0.011,0.454c0,0.173,0.003,0.337,0.011,0.489c0.007,0.153,0.011,0.309,0.011,0.469h4.463v1.417H17.663z"/></svg>