<svg xmlns="http://www.w3.org/2000/svg"  viewBox="0 0 40 40" width="40px" height="40px"><path fill="#f78f8f" d="M23,38.5c-0.845,0-1.5-0.806-1.5-1.5c0-0.635-0.045-1.329-0.136-2.061L21.311,34.5h-6.621 l-0.054,0.439C14.545,35.671,14.5,36.365,14.5,37c0,0.694-0.655,1.5-1.5,1.5H9c-0.845,0-1.5-0.806-1.5-1.5 c0-2.093-0.477-4.188-0.761-5.25L6.7,31.604l-0.114-0.1C3.989,29.22,2.5,25.938,2.5,22.5c0-6.617,5.383-12,12-12h8 c0.55,0,1.991,0.041,2.438,0.095l0.273,0.033l0.174-0.213c1.675-2.05,4.799-2.658,6.479-2.839c-0.838,1.093-2.07,3.017-2.202,5.029 l-0.017,0.265l0.209,0.163c1.198,0.933,2.198,2.069,2.971,3.376l0.064,0.109l3.882,2.329c0.449,0.27,0.729,0.762,0.729,1.286v5.514 c0,0.617-0.37,1.164-0.943,1.393l-3.685,1.474l-0.086,0.145c-0.906,1.509-2.137,2.816-3.562,3.782L29.06,32.55l-0.043,0.194 C28.674,34.282,28.5,35.714,28.5,37c0,0.694-0.655,1.5-1.5,1.5H23z"/><path fill="#c74343" d="M30.788,8.236c-0.748,1.157-1.519,2.714-1.625,4.336l-0.035,0.529l0.419,0.326 c1.148,0.893,2.106,1.981,2.848,3.236l0.129,0.218l0.217,0.13l3.774,2.264C36.814,19.455,37,19.783,37,20.132v5.514 c0,0.411-0.247,0.776-0.629,0.928l-3.529,1.411l-0.313,0.125L32.357,28.4c-0.868,1.447-2.048,2.7-3.413,3.626l-0.328,0.223 l-0.086,0.387C28.178,34.208,28,35.676,28,37c0,0.453-0.446,1-1,1h-4c-0.554,0-1-0.547-1-1c0-0.656-0.047-1.37-0.139-2.122 L21.753,34h-0.885h-5.736h-0.885l-0.108,0.878C14.047,35.63,14,36.344,14,37c0,0.453-0.446,1-1,1H9c-0.554,0-1-0.547-1-1 c0-2.041-0.423-4.051-0.778-5.378l-0.078-0.293l-0.227-0.2C4.428,28.939,3,25.794,3,22.5C3,16.159,8.159,11,14.5,11h8 c0.547,0,1.963,0.041,2.379,0.091l0.546,0.065l0.348-0.426C27.016,9.208,29.158,8.535,30.788,8.236 M33,7 c0,0-5.473,0.003-8.002,3.098C24.506,10.039,23.008,10,22.5,10c-1.401,0-6.599,0-8,0C7.596,10,2,15.596,2,22.5 c0,3.741,1.652,7.089,4.256,9.38C6.553,32.988,7,34.992,7,37c0,1,0.895,2,2,2h4c1.105,0,2-1,2-2c0-0.679,0.053-1.356,0.132-2 c1.385,0,3.944,0,5.736,0C20.947,35.644,21,36.321,21,37c0,1,0.895,2,2,2h4c1.105,0,2-1,2-2c0-1.51,0.253-3.019,0.505-4.147 c1.508-1.022,2.77-2.373,3.709-3.939l3.529-1.411C37.502,27.199,38,26.464,38,25.646v-5.514c0-0.703-0.369-1.354-0.971-1.715 l-3.774-2.264c-0.804-1.359-1.854-2.551-3.094-3.516C30.349,9.77,33,7,33,7L33,7z"/><path fill="none" stroke="#c74343" stroke-linecap="round" stroke-miterlimit="10" d="M6.5,9.5c-2.209,0-4,1.791-4,4 c0,1.09,0.436,2.079,1.144,2.8c0.011,0.012,0.023,0.023,0.034,0.035c0.006,0.006,0.012,0.011,0.017,0.017"/><path fill="#36404d" d="M30 17A1 1 0 1 0 30 19A1 1 0 1 0 30 17Z"/><path fill="#ffeea3" d="M18 1.5A5.5 5.5 0 1 0 18 12.5A5.5 5.5 0 1 0 18 1.5Z"/><path fill="#ba9b48" d="M17.999,2.001c2.757,0,4.999,2.243,4.999,5s-2.243,5-4.999,5S13,9.757,13,7 S15.243,2.001,17.999,2.001 M17.999,1.001C14.691,1.001,12,3.692,12,7c0,3.309,2.691,6,5.999,6s5.999-2.691,5.999-6 C23.999,3.692,21.308,1.001,17.999,1.001L17.999,1.001z"/><path fill="#967a44" d="M18.999,10h-1.14V5.41l-1.36,0.439V4.892l2.378-0.891h0.122V10z"/><g><path fill="#f78f8f" d="M13 12H23V14H13z"/></g><path fill="#c74343" d="M12,11c0,0.552,0.448,1,1,1h10c0.552,0,1-0.448,1-1H12z"/></svg>