<svg xmlns="http://www.w3.org/2000/svg"  viewBox="0 0 40 40" width="40px" height="40px"><path fill="#fff" d="M33.24,4.46H20H6.76c-1.25,0-2.27,1.02-2.27,2.27v26.46c0,1.26,1.02,2.27,2.27,2.27H20l8.5,0.04l7-9	l0.01-19.77C35.51,5.48,34.49,4.46,33.24,4.46z"/><path fill="#e1ebf2" d="M35 27L29 35 27 35 27 36 29 36 36 27 36 18 35 18z"/><path fill="#a3b7cc" d="M33.23,4H20H6.77C5.24,4,4,5.24,4,6.77v26.46C4,34.76,5.24,36,6.77,36H20h7v-1h-7H6.77	C5.79,35,5,34.21,5,33.23V6.77C5,5.79,5.79,5,6.77,5H20h13.23C34.21,5,35,5.79,35,6.77V18h1V6.77C36,5.24,34.76,4,33.23,4z"/><path fill="#ecf7ed" d="M24 28L22 22 28.5 24z"/><path fill="#94cf9a" d="M20 20l-2.5-2.5c-1.673-2.193-2-3.467-2-5.126 0-1.561.947-1.874 1.421-1.874 1.894 0 3.079 2.235 3.079 2.235s1.183-2.235 3.077-2.235c.474 0 1.421.312 1.421 1.874.075 1.638-.327 2.977-1.997 5.126L20 20zM24.5 27.63c0 .14-.01.27-.02.39-.07.59-.3.95-.56 1.17-.29.24-.61.31-.84.31-1.9 0-3.08-2.24-3.08-2.24s-1.19 2.24-3.08 2.24c-.47 0-1.42-.31-1.42-1.87 0-1.66.33-2.94 2-5.13L20 20l2.5 2.5c.27.35.51.68.71.99.35.51.61.98.8 1.43C24.43 25.86 24.54 26.7 24.5 27.63z"/><path fill="#bae0bd" d="M20 20l-2.5 2.5c-2.193 1.673-3.467 2-5.126 2-1.561 0-1.874-.947-1.874-1.421 0-1.894 2.235-3.079 2.235-3.079S10.5 18.817 10.5 16.923c0-.474.312-1.421 1.874-1.421 1.638-.075 2.977.327 5.126 1.997L20 20zM20 20l2.5 2.5c2.193 1.673 3.467 2 5.126 2 1.561 0 1.874-.947 1.874-1.421 0-1.894-2.235-3.079-2.235-3.079s2.235-1.183 2.235-3.077c0-.474-.312-1.421-1.874-1.421-1.638-.075-2.977.327-5.126 1.997L20 20z"/><path fill="#5e9c76" d="M24.01,27.5c0,0.58-0.15,0.93-0.35,1.15C23.39,28.99,23.02,29,23.01,29 c-1.69,0-2.52-2.15-2.53-2.18l-0.47-1.23l-0.47,1.23C19.53,26.85,18.71,29,17.01,29c-0.01,0-1-0.02-1-1.52 c-0.04-0.86,0.31-2.42,1.42-4.22l1.13-1.8h-0.01l-1.81,1.11C15.03,23.63,13.43,24,12.5,24c-1.48,0-1.5-0.99-1.5-1 c0-1.69,2.15-2.52,2.18-2.53L14.41,20l-1.23-0.47C13.15,19.52,11,18.7,11,17c0-0.01,0.02-1,1.52-1c0.86-0.04,2.42,0.31,4.22,1.42 l1.8,1.13l-1.11-1.81C16.37,15.03,16,13.43,16,12.5c0-1.48,0.99-1.5,1-1.5c1.69,0,2.52,2.15,2.53,2.18L20,14.41l0.47-1.23 C20.48,13.15,21.3,11,23,11c0.01,0,1,0.02,1,1.52c0.04,0.86-0.31,2.42-1.42,4.22l-1.13,1.8h0.01l1.81-1.11 c1.71-1.06,3.31-1.43,4.24-1.43c1.48,0,1.5,0.99,1.5,1c0,0.13-0.01,0.26-0.04,0.38c-0.13,0.64-0.56,1.14-1.01,1.5 c0.56-0.3,1.16-0.53,1.79-0.67c0.15-0.32,0.24-0.68,0.26-1.08V17c0-0.8-0.67-2-2.5-2c-0.78,0-1.97,0.22-3.3,0.8H24.2 c0.55-1.21,0.85-2.4,0.8-3.3c0-1.83-1.2-2.5-2-2.5c-1.51,0-2.48,1.09-3,1.91C19.48,11.09,18.51,10,17,10c-0.8,0-2,0.67-2,2.5 c0,0.78,0.22,1.97,0.8,3.3c-1.21-0.55-2.41-0.84-3.3-0.8c-1.83,0-2.5,1.2-2.5,2c0,1.51,1.09,2.48,1.91,3 C11.09,20.52,10,21.49,10,23c0,0.8,0.67,2,2.5,2c0.78,0,1.97-0.22,3.3-0.8h0.01c-0.55,1.21-0.85,2.4-0.8,3.3c0,1.83,1.2,2.5,2,2.5 c1.51,0,2.48-1.09,3-1.91c0.52,0.82,1.49,1.91,3,1.91c0.35,0,0.77-0.13,1.14-0.42c0.26-0.21,0.49-0.5,0.64-0.88L24.01,27.5z"/><path fill="#ffeea3" d="M28.5,35v-1c0-1.411-0.444-2.151-1.444-3.237C25.833,29.57,24.5,28.05,24.5,25.337	c0-3.798,3.111-6.837,7-6.837s7,3.039,7,6.837c0,2.713-1.333,4.124-2.556,5.426c-1,0.977-1.444,1.717-1.444,3.237v1H28.5z"/><path fill="#fff" d="M33.5,25c0.152,0,0.302,0.069,0.401,0.201c0.166,0.221,0.121,0.534-0.1,0.7l-1.8,1.35v6.75h-1v-6.75	l-1.8-1.35c-0.221-0.166-0.266-0.479-0.1-0.7c0.099-0.131,0.249-0.2,0.401-0.2c0.104,0,0.209,0.032,0.299,0.099l1.7,1.275l1.7-1.275	C33.29,25.033,33.395,25,33.5,25 M33.5,24c-0.328,0-0.639,0.104-0.901,0.302L31.5,25.125L30.4,24.3	c-0.261-0.196-0.572-0.299-0.898-0.299c-0.47,0-0.918,0.224-1.2,0.599c-0.241,0.32-0.342,0.715-0.286,1.112	c0.056,0.397,0.264,0.749,0.585,0.989l1.4,1.05v6.25v1h1h1h1v-1v-6.25l1.4-1.05c0.321-0.241,0.529-0.592,0.585-0.99	c0.056-0.397-0.045-0.792-0.286-1.112C34.419,24.225,33.97,24,33.5,24L33.5,24z"/><path fill="#ba9b48" d="M35,35.5h-6.309L28,34.118V34c0-1.27-0.387-1.894-1.312-2.897C25.301,29.748,24,28.098,24,25.337	C24,21.291,27.364,18,31.5,18s7.5,3.291,7.5,7.337c0,2.901-1.423,4.418-2.679,5.756C35.399,31.995,35,32.618,35,34V35.5z M29.309,34.5H34V34c0-1.712,0.561-2.584,1.595-3.594C36.776,29.147,38,27.843,38,25.337C38,21.843,35.084,19,31.5,19	S25,21.843,25,25.337c0,2.51,1.188,3.88,2.405,5.069c1.036,1.123,1.567,1.973,1.594,3.474L29.309,34.5z"/><path fill="#bae0bd" d="M28.97,17.38C28,18,28,18.5,27.96,18.88c0.56-0.3,1.16-0.53,1.79-0.67c0.15-0.32,0.24-0.68,0.26-1.08	C29.65,17.19,29.31,17.28,28.97,17.38z"/><path fill="#94cf9a" d="M24.79,28.7c-0.15,0.38-0.38,0.67-0.64,0.88c-0.08-0.13-0.15-0.26-0.23-0.39	c-0.09-0.17-0.18-0.35-0.26-0.54c-0.4-0.93-0.66-2.01-0.66-3.31c0-0.4,0.03-0.79,0.09-1.17c0.03-0.23,0.07-0.45,0.12-0.68	c0.35,0.51,0.61,0.98,0.8,1.43C24,25.06,24,25.2,24,25.34c0,1.04,0.18,1.91,0.48,2.68C24.57,28.26,24.68,28.48,24.79,28.7z"/><path fill="#8b75a1" d="M31.5 37A1.5 1.5 0 1 0 31.5 40A1.5 1.5 0 1 0 31.5 37Z"/><path fill="#dcd5f2" d="M28.5,37.5v-3h6v3c0,0.552-0.448,1-1,1h-4C28.948,38.5,28.5,38.052,28.5,37.5z"/><path fill="#8b75a1" d="M33.5,39h-4c-0.827,0-1.5-0.673-1.5-1.5V34h7v3.5C35,38.327,34.327,39,33.5,39z M29,35v2.5	c0,0.275,0.225,0.5,0.5,0.5h4c0.275,0,0.5-0.225,0.5-0.5V35H29z"/></svg>