<svg xmlns="http://www.w3.org/2000/svg"  viewBox="0 0 40 40" width="40px" height="40px"><path fill="#fff" d="M33.24,4.46H20H6.76c-1.25,0-2.27,1.02-2.27,2.27v26.46c0,1.26,1.02,2.27,2.27,2.27H20h13.24 c1.25,0,2.27-1.01,2.27-2.27V6.73C35.51,5.48,34.49,4.46,33.24,4.46z"/><path fill="#a3b7cc" d="M33.23,4H20H6.77C5.24,4,4,5.24,4,6.77v26.46C4,34.76,5.24,36,6.77,36H20h13.23 c1.53,0,2.77-1.24,2.77-2.77V6.77C36,5.24,34.76,4,33.23,4z M35,33.23c0,0.98-0.79,1.77-1.77,1.77L20,35.07L6.77,35 C5.79,35,5,34.21,5,33.23V6.77C5,5.79,5.79,5,6.77,5H20h13.23C34.21,5,35,5.79,35,6.77V33.23z"/><path fill="#94cf9a" d="M20,20l-2.5-2.5c-1.673-2.193-2-3.467-2-5.126c0-1.561,0.947-1.874,1.421-1.874 c1.894,0,3.079,2.235,3.079,2.235s1.183-2.235,3.077-2.235c0.474,0,1.421,0.312,1.421,1.874c0.075,1.638-0.327,2.977-1.997,5.126 L20,20z"/><path fill="#94cf9a" d="M20,20l-2.5,2.5c-1.673,2.193-2,3.467-2,5.126c0,1.561,0.947,1.874,1.421,1.874 c1.894,0,3.079-2.235,3.079-2.235s1.183,2.235,3.077,2.235c0.474,0,1.421-0.312,1.421-1.874c0.075-1.638-0.327-2.977-1.997-5.126 L20,20z"/><path fill="#bae0bd" d="M20,20l-2.5,2.5c-2.193,1.673-3.467,2-5.126,2c-1.561,0-1.874-0.947-1.874-1.421 c0-1.894,2.235-3.079,2.235-3.079S10.5,18.817,10.5,16.923c0-0.474,0.312-1.421,1.874-1.421c1.638-0.075,2.977,0.327,5.126,1.997 L20,20z"/><path fill="#bae0bd" d="M20,20l2.5,2.5c2.193,1.673,3.467,2,5.126,2c1.561,0,1.874-0.947,1.874-1.421 c0-1.894-2.235-3.079-2.235-3.079s2.235-1.183,2.235-3.077c0-0.474-0.312-1.421-1.874-1.421c-1.638-0.075-2.977,0.327-5.126,1.997 L20,20z"/><path fill="#5e9c76" d="M28.1,20c0.82-0.52,1.91-1.49,1.91-3c0-0.8-0.67-2-2.5-2c-0.78,0-1.97,0.22-3.3,0.8H24.2 c0.55-1.21,0.85-2.4,0.8-3.3c0-1.83-1.2-2.5-2-2.5c-1.51,0-2.48,1.09-3,1.91C19.48,11.09,18.51,10,17,10c-0.8,0-2,0.67-2,2.5 c0,0.78,0.22,1.97,0.8,3.3c-1.21-0.55-2.41-0.84-3.3-0.8c-1.83,0-2.5,1.2-2.5,2c0,1.51,1.09,2.48,1.91,3 C11.09,20.52,10,21.49,10,23c0,0.8,0.67,2,2.5,2c0.78,0,1.97-0.22,3.3-0.8h0.01c-0.55,1.21-0.85,2.4-0.8,3.3c0,1.83,1.2,2.5,2,2.5 c1.51,0,2.48-1.09,3-1.91c0.52,0.82,1.49,1.91,3,1.91c0.8,0,2-0.67,2-2.5c0-0.78-0.22-1.97-0.8-3.3c1.21,0.55,2.41,0.84,3.3,0.8 c1.83,0,2.5-1.2,2.5-2C30.01,21.49,28.92,20.52,28.1,20z M27.49,24c-0.86,0.04-2.42-0.31-4.22-1.42l-1.8-1.13l1.11,1.81 c1.06,1.71,1.43,3.31,1.43,4.24c0,1.48-0.99,1.5-1,1.5c-1.69,0-2.52-2.15-2.53-2.18l-0.47-1.23l-0.47,1.23 C19.53,26.85,18.71,29,17.01,29c-0.01,0-1-0.02-1-1.52c-0.04-0.86,0.31-2.42,1.42-4.22l1.13-1.8h-0.01l-1.81,1.11 C15.03,23.63,13.43,24,12.5,24c-1.48,0-1.5-0.99-1.5-1c0-1.69,2.15-2.52,2.18-2.53L14.41,20l-1.23-0.47C13.15,19.52,11,18.7,11,17 c0-0.01,0.02-1,1.52-1c0.86-0.04,2.42,0.31,4.22,1.42l1.8,1.13l-1.11-1.81C16.37,15.03,16,13.43,16,12.5c0-1.48,0.99-1.5,1-1.5 c1.69,0,2.52,2.15,2.53,2.18L20,14.41l0.47-1.23C20.48,13.15,21.3,11,23,11c0.01,0,1,0.02,1,1.52c0.04,0.86-0.31,2.42-1.42,4.22 l-1.13,1.8h0.01l1.81-1.11c1.71-1.06,3.31-1.43,4.24-1.43c1.48,0,1.5,0.99,1.5,1c0,1.69-2.15,2.52-2.18,2.53L25.6,20l1.23,0.47 c0.03,0.01,2.18,0.83,2.18,2.53C29.01,23.01,28.99,24,27.49,24z"/></svg>