<svg xmlns="http://www.w3.org/2000/svg"  viewBox="0 0 40 40" width="40px" height="40px"><path fill="#f5c276" d="M6.364,37.5c-0.476,0-0.864-0.397-0.864-0.885V3.385C5.5,2.897,5.888,2.5,6.364,2.5H16.54 C16.513,2.668,16.5,2.834,16.5,3c0,1.93,1.57,3.5,3.5,3.5s3.5-1.57,3.5-3.5c0-0.166-0.013-0.332-0.04-0.5h10.176 c0.476,0,0.864,0.397,0.864,0.885v33.23c0,0.488-0.388,0.885-0.864,0.885H6.364z"/><path fill="#c29653" d="M33.636,3C33.837,3,34,3.173,34,3.385v33.231C34,36.827,33.837,37,33.636,37H6.364 C6.163,37,6,36.827,6,36.615V3.385C6,3.173,6.163,3,6.364,3H16c0,2.206,1.794,4,4,4c2.206,0,4-1.794,4-4H33.636 M33.636,2h-10.82 C22.928,2.314,23,2.647,23,3c0,1.657-1.343,3-3,3s-3-1.343-3-3c0-0.353,0.072-0.686,0.184-1H6.364C5.611,2,5,2.62,5,3.385v33.231 C5,37.38,5.611,38,6.364,38h27.273C34.389,38,35,37.38,35,36.615V3.385C35,2.62,34.389,2,33.636,2L33.636,2z"/><path fill="#fff" d="M8 5H32V35H8z"/><path fill="none" stroke="#c5d4de" stroke-miterlimit="10" d="M24 13.5L29 13.5M24 17.5L29 17.5M24 21.5L29 21.5M11 25.5L29 25.5M11 29.5L29 29.5"/><path fill="#66798f" d="M22.289,2c0.225,0.515,0.289,1.116,0.099,1.747c-0.247,0.819-0.937,1.479-1.769,1.679	C18.97,5.821,17.5,4.582,17.5,3c0-0.356,0.077-0.693,0.211-1H13v4c0,1.105,0.895,2,2,2h10c1.105,0,2-0.895,2-2V2H22.289z"/><path fill="#66798f" d="M20,1c1.103,0,2,0.897,2,2s-0.897,2-2,2s-2-0.897-2-2S18.897,1,20,1 M20,0c-1.657,0-3,1.343-3,3 s1.343,3,3,3s3-1.343,3-3S21.657,0,20,0L20,0z"/><path fill="#ffeea3" d="M16 11.5A2.5 2.5 0 1 0 16 16.5A2.5 2.5 0 1 0 16 11.5Z"/><path fill="#ba9b48" d="M16,12c1.103,0,2,0.897,2,2s-0.897,2-2,2c-1.103,0-2-0.897-2-2S14.897,12,16,12 M16,11 c-1.657,0-3,1.343-3,3s1.343,3,3,3s3-1.343,3-3S17.657,11,16,11L16,11z"/><g><path fill="#c2e8ff" d="M11.528,21.5c0.25-2.247,2.16-4,4.472-4c2.312,0,4.223,1.753,4.472,4H11.528z"/><path fill="#7496c4" d="M16,18c1.86,0,3.428,1.277,3.873,3h-7.747C12.572,19.277,14.14,18,16,18 M16,17 c-2.761,0-5,2.239-5,5h10C21,19.239,18.761,17,16,17L16,17z"/></g></svg>