<svg xmlns="http://www.w3.org/2000/svg"  viewBox="0 0 40 40" width="40px" height="40px"><path fill="#e8d47b" stroke="#ba9b48" stroke-miterlimit="10" d="M19.569,35.653l11.684-5.868	c1.316-0.632,2.106-2.314,1.586-3.678c-0.442-1.158-1.537-1.854-2.689-1.854c-0.366,0-0.738,0.07-1.096,0.218l-9.575,3.936"/><path fill="#e8d47b" stroke="#ba9b48" stroke-miterlimit="10" d="M22.569,36.653l11.684-5.868	c1.316-0.632,2.106-2.314,1.586-3.678c-0.442-1.158-1.537-1.854-2.689-1.854c-0.366,0-0.738,0.07-1.096,0.218l-9.575,3.936"/><path fill="#ffc49c" d="M32 2.5A4.5 4.5 0 1 0 32 11.5A4.5 4.5 0 1 0 32 2.5Z"/><path fill="#a16a4a" d="M32,3c2.206,0,4,1.794,4,4s-1.794,4-4,4s-4-1.794-4-4S29.794,3,32,3 M32,2c-2.76,0-5,2.24-5,5 c0,2.762,2.24,5,5,5c2.761,0,5-2.238,5-5C37,4.24,34.76,2,32,2L32,2z"/><path fill="#a16a4a" d="M32.978 9.206L32.086 9.206 32.086 5.767 31.022 6.095 31.022 5.376 32.881 4.71 32.978 4.71z"/><path fill="#f5ce85" d="M25.5 8.5A7 7 0 1 0 25.5 22.5A7 7 0 1 0 25.5 8.5Z"/><path fill="#967a44" d="M25.5,9c3.584,0,6.5,2.916,6.5,6.5S29.084,22,25.5,22S19,19.084,19,15.5S21.916,9,25.5,9 M25.5,8 c-4.136,0-7.5,3.364-7.5,7.5s3.364,7.5,7.5,7.5s7.5-3.364,7.5-7.5S29.636,8,25.5,8L25.5,8z"/><path fill="#967a44" d="M27 19.46L25.437 19.46 25.437 13.339 23.572 13.924 23.572 12.648 26.833 11.46 27 11.46z"/><path fill="#ffeea3" d="M24.103,37.5c-0.396,0-0.796-0.087-1.154-0.252L7.807,30.297L1.5,32.818v-9.777l5.399-2.004 C7.858,20.68,8.862,20.5,9.884,20.5c1.386,0,2.766,0.341,3.992,0.985l9.539,5.015c1.18,0.621,1.646,2.091,1.042,3.278l-0.198,0.388 l1.157,0.808l9.828-4.04c0.29-0.12,0.594-0.181,0.905-0.181c0.994,0,1.865,0.602,2.222,1.532c0.413,1.084-0.21,2.509-1.335,3.049 l-11.692,5.872C24.961,37.398,24.531,37.5,24.103,37.5z"/><path fill="#ba9b48" d="M9.884,21c1.304,0,2.604,0.321,3.759,0.928l9.539,5.015c0.939,0.494,1.311,1.664,0.829,2.608 l-0.396,0.776l0.714,0.498l0.577,0.402l0.448,0.312l0.505-0.208l9.576-3.937c0.229-0.094,0.469-0.142,0.714-0.142 c0.785,0,1.473,0.475,1.754,1.211c0.321,0.84-0.196,1.994-1.1,2.428L25.12,36.759C24.806,36.917,24.454,37,24.102,37 c-0.329,0-0.647-0.07-0.946-0.207L8.21,29.932l-0.39-0.179l-0.398,0.159L2,32.08v-8.691l5.074-1.883C7.977,21.17,8.922,21,9.884,21 M9.884,20c-1.067,0-2.136,0.188-3.158,0.567L1,22.693v10.864l6.793-2.716l14.946,6.861C23.172,37.901,23.638,38,24.102,38 c0.504,0,1.006-0.116,1.466-0.347l11.684-5.868c1.316-0.632,2.106-2.314,1.586-3.678c-0.442-1.158-1.537-1.854-2.689-1.854 c-0.366,0-0.738,0.07-1.096,0.218l-9.575,3.936l-0.577-0.402c0.733-1.437,0.174-3.196-1.254-3.947l-9.54-5.015 C12.791,20.35,11.339,20,9.884,20L9.884,20z"/><path fill="none" stroke="#ba9b48" stroke-miterlimit="10" d="M15.598,27.654l6.125,3.095c0.943,0.476,2.095,0.134,2.625-0.779	l0,0"/><g><path fill="#ffeea3" d="M3 23.017L3 31.68 1 32.479 1 23.759z"/></g></svg>