<svg xmlns="http://www.w3.org/2000/svg"  viewBox="0 0 40 40" width="40px" height="40px"><path fill="#bae0bd" d="M3.597 1.5L17.154 1.5 20.421 20.144 7.326 22.422z"/><path fill="#5e9c76" d="M16.734,2l3.108,17.737L7.731,21.844L4.194,2H16.734 M17.574,1H3l3.921,22L21,20.55L17.574,1 L17.574,1z"/><path fill="#e8d47b" stroke="#ba9b48" stroke-miterlimit="10" d="M20.521,29.407l-9.575-3.936	c-0.358-0.148-0.73-0.218-1.096-0.218c-1.152,0-2.246,0.696-2.689,1.854c-0.521,1.364,0.269,3.046,1.586,3.678l11.684,5.868"/><path fill="#e8d47b" stroke="#ba9b48" stroke-miterlimit="10" d="M17.521,30.407l-9.575-3.936	c-0.358-0.148-0.73-0.218-1.096-0.218c-1.152,0-2.246,0.696-2.689,1.854c-0.521,1.364,0.269,3.046,1.586,3.678l11.684,5.868"/><path fill="#fff" d="M11.496,12.333c-2.238,0-4.144-1.598-4.53-3.799C6.755,7.328,7.027,6.112,7.734,5.11 c0.707-1.003,1.764-1.671,2.976-1.882c0.264-0.046,0.533-0.069,0.799-0.069c2.239,0,4.144,1.598,4.529,3.799 c0.211,1.203-0.061,2.417-0.764,3.417c-0.707,1.006-1.766,1.677-2.98,1.889C12.03,12.31,11.762,12.333,11.496,12.333z"/><path fill="#5e9c76" d="M11.508,3.659L11.508,3.659c1.996,0,3.693,1.424,4.037,3.385c0.188,1.072-0.054,2.153-0.68,3.045 c-0.63,0.897-1.574,1.494-2.656,1.683c-0.236,0.041-0.476,0.062-0.713,0.062c-1.996,0-3.694-1.424-4.037-3.385 c-0.188-1.072,0.054-2.153,0.68-3.045c0.63-0.897,1.574-1.494,2.656-1.683C11.031,3.68,11.271,3.659,11.508,3.659 M11.508,2.659 c-0.291,0-0.587,0.025-0.884,0.077c-2.777,0.483-4.635,3.118-4.15,5.885c0.433,2.471,2.588,4.212,5.022,4.212 c0.291,0,0.587-0.025,0.884-0.077c2.777-0.483,4.635-3.118,4.15-5.885C16.097,4.4,13.942,2.659,11.508,2.659L11.508,2.659z"/><path fill="#5e9c76" d="M13.082 14.73A2.042 2.035 0 1 0 13.082 18.8A2.042 2.035 0 1 0 13.082 14.73Z" transform="rotate(-9.936 13.084 16.765)"/><path fill="#bae0bd" d="M4.016 1L4.392 3.111 7 3.111 7 1z"/><path fill="#bae0bd" d="M5.049 1.5L19.657 1.5 27.334 17.651 15.427 23.333z"/><path fill="#5e9c76" d="M19.341,2l7.327,15.415l-11.005,5.251L5.84,2H19.341 M19.973,1H4.258L15.19,24L28,17.887L19.973,1 L19.973,1z"/><path fill="#fff" d="M15.498,12.687c-1.753,0-3.373-1.025-4.128-2.61c-1.083-2.279-0.113-5.016,2.16-6.101 C14.15,3.68,14.81,3.53,15.491,3.53c1.753,0,3.373,1.024,4.127,2.61c1.083,2.279,0.113,5.016-2.16,6.101 C16.838,12.537,16.179,12.687,15.498,12.687z"/><path fill="#5e9c76" d="M15.491,4.03L15.491,4.03c1.561,0,3.004,0.912,3.675,2.325c0.965,2.03,0.102,4.469-1.924,5.435 c-0.552,0.263-1.139,0.397-1.745,0.397c-1.561,0-3.004-0.912-3.675-2.325c-0.965-2.03-0.102-4.469,1.924-5.435 C14.298,4.163,14.885,4.03,15.491,4.03 M15.491,3.03c-0.73,0-1.472,0.159-2.175,0.495c-2.527,1.206-3.599,4.235-2.396,6.767 c0.868,1.827,2.685,2.895,4.579,2.895c0.73,0,1.472-0.159,2.175-0.495c2.527-1.206,3.599-4.235,2.396-6.767 C19.201,4.098,17.384,3.03,15.491,3.03L15.491,3.03z"/><path fill="#fff" d="M19.418,17.891c-0.587,0-1.128-0.343-1.381-0.873c-0.362-0.762-0.038-1.678,0.724-2.041 c0.207-0.099,0.427-0.149,0.654-0.149c0.586,0,1.127,0.343,1.38,0.873c0.362,0.762,0.038,1.678-0.723,2.041 C19.865,17.841,19.646,17.891,19.418,17.891z"/><path fill="#5e9c76" d="M19.415,15.328L19.415,15.328c0.394,0,0.759,0.231,0.928,0.587 c0.244,0.514,0.026,1.131-0.486,1.375c-0.139,0.067-0.287,0.1-0.439,0.1c-0.394,0-0.759-0.231-0.928-0.587 c-0.244-0.514-0.026-1.131,0.486-1.375C19.115,15.362,19.263,15.328,19.415,15.328 M19.415,14.328 c-0.292,0-0.589,0.064-0.87,0.198c-1.011,0.482-1.44,1.694-0.958,2.707c0.347,0.731,1.074,1.158,1.831,1.158 c0.292,0,0.589-0.064,0.87-0.198c1.011-0.482,1.44-1.694,0.958-2.707C20.899,14.755,20.172,14.328,19.415,14.328L19.415,14.328z"/><g><path fill="#ffeea3" d="M15.897,38.5c-0.429,0-0.858-0.102-1.241-0.294L2.972,32.338c-1.133-0.544-1.756-1.969-1.343-3.053 c0.356-0.931,1.228-1.532,2.222-1.532c0.312,0,0.615,0.061,0.904,0.18l9.829,4.041l1.157-0.808l-0.198-0.388 c-0.604-1.187-0.138-2.657,1.042-3.278l9.539-5.015c1.227-0.644,2.606-0.985,3.992-0.985c1.021,0,2.025,0.18,2.984,0.536 l5.399,2.004v9.777l-6.307-2.521l-15.142,6.95C16.693,38.413,16.294,38.5,15.897,38.5z"/><path fill="#ba9b48" d="M30.116,22c0.962,0,1.907,0.17,2.81,0.505L38,24.388v8.691l-5.422-2.167l-0.398-0.159l-0.39,0.179 l-14.946,6.861C16.545,37.93,16.227,38,15.898,38c-0.352,0-0.704-0.083-1.018-0.241l-11.7-5.875 c-0.888-0.427-1.405-1.58-1.085-2.42c0.281-0.736,0.97-1.211,1.755-1.211c0.245,0,0.486,0.048,0.716,0.143l9.575,3.936l0.505,0.208 l0.448-0.312l0.577-0.402l0.714-0.498l-0.396-0.776c-0.482-0.944-0.11-2.114,0.829-2.608l9.54-5.015 C27.512,22.321,28.812,22,30.116,22 M30.116,21c-1.455,0-2.907,0.35-4.224,1.043l-9.54,5.015c-1.428,0.751-1.987,2.511-1.254,3.947 l-0.577,0.402l-9.575-3.936c-0.358-0.148-0.73-0.218-1.096-0.218c-1.152,0-2.246,0.696-2.689,1.854 c-0.521,1.364,0.269,3.046,1.586,3.678l11.684,5.868C14.892,38.884,15.394,39,15.898,39c0.464,0,0.93-0.099,1.363-0.298 l14.946-6.861L39,34.556V23.693l-5.726-2.125C32.252,21.188,31.183,21,30.116,21L30.116,21z"/></g><path fill="none" stroke="#ba9b48" stroke-miterlimit="10" d="M15.652,30.969L15.652,30.969c0.53,0.914,1.682,1.256,2.625,0.779	l6.125-3.095"/><g><path fill="#ffeea3" d="M37 24.017L37 32.68 39 33.479 39 24.759z"/></g><g><path fill="#bae0bd" d="M19.817 3L18.866 1 5.365 1 6.316 3z"/></g></svg>