<svg xmlns="http://www.w3.org/2000/svg"  viewBox="0 0 40 40" width="40px" height="40px"><path fill="#5e9c76" d="M17.772,16.734c0-0.78,0.747-1.453,2.284-1.453c1.74,0,2.992,0.461,3.966,1.014v-2.632 c-0.723-0.377-1.817-0.598-3.282-0.663l-1.521,0.039c-1.271,0.117-2.291,0.535-3.062,1.253C15.386,15.009,15,15.878,15,16.899 c0,4.032,7.23,4.156,7.23,6.366c0,0.787-1.053,1.395-2.227,1.395c-2.403,0-4.318-0.952-4.721-1.258v2.701 c1.215,0.591,2.527,0.891,3.938,0.897l1.521-0.058c1.368-0.143,2.42-0.544,3.156-1.203C24.632,25.079,25,24.209,25,23.13 C25,18.824,17.772,19.153,17.772,16.734z"/><path fill="#5e9c76" d="M19 11H21V14H19zM19 26H21V29H19zM5.057 18.851l-3.993-.307C1.026 19.025 1 19.509 1 20c0 .514.028 1.02.068 1.524l4.004-.322C5.04 20.803 5 20.407 5 20 5 19.612 5.023 19.23 5.057 18.851zM1.897 25.743c.305.954.677 1.879 1.122 2.761l3.587-1.796c-.35-.696-.628-1.431-.871-2.182L1.897 25.743zM8.466 29.543L5.37 32.103c.636.765 1.33 1.48 2.076 2.136l2.643-2.998C9.5 30.723 8.967 30.146 8.466 29.543zM10.973 36.697c.869.47 1.778.877 2.722 1.209l1.327-3.77c-.745-.263-1.463-.584-2.149-.955L10.973 36.697z"/><path fill="#bae0bd" d="M20,38.5c-0.501,0-1.017-0.023-1.563-0.072l0.334-2.981C19.198,35.482,19.604,35.5,20,35.5 c8.547,0,15.5-6.953,15.5-15.5S28.547,4.5,20,4.5c-3.093,0-6.094,0.93-8.678,2.69l-0.499,0.34l2.214,2.214l-9.324,2.543 l2.543-9.325l2.432,2.432l0.347-0.256C12.245,2.758,16.037,1.5,20,1.5c10.201,0,18.5,8.299,18.5,18.5S30.201,38.5,20,38.5z"/><path fill="#5e9c76" d="M20,2c9.925,0,18,8.075,18,18s-8.075,18-18,18c-0.328,0-0.662-0.01-1.009-0.032l0.223-1.99 C19.482,35.993,19.743,36,20,36c8.822,0,16-7.178,16-16S28.822,4,20,4c-3.194,0-6.292,0.96-8.96,2.777l-0.998,0.68l0.854,0.854 l1.178,1.178l-7.649,2.086l2.086-7.649l1.518,1.518l0.61,0.61L9.332,5.54C12.456,3.224,16.145,2,20,2 M20,1 c-4.226,0-8.111,1.4-11.264,3.736L6,2L3,13l11-3l-2.397-2.397C14,5.971,16.881,5,20,5c8.284,0,15,6.716,15,15 c0,8.284-6.716,15-15,15c-0.566,0-1.122-0.037-1.671-0.098l-0.446,3.974C18.579,38.953,19.284,39,20,39c10.493,0,19-8.507,19-19 S30.493,1,20,1L20,1z"/></svg>