<svg xmlns="http://www.w3.org/2000/svg"  viewBox="0 0 40 40" width="40px" height="40px"><polygon fill="#f5c276" points="18.5,24.5 18.5,31.5 14.207,31.5 20,37.293 25.793,31.5 21.5,31.5 21.5,24.5"/><path fill="#c29653" d="M20,36.586L15.414,32H18h1v-1v-6h2v6v1h1h2.586L20,36.586 M20,38l7-7h-5v-7h-4v7h-5L20,38L20,38z"/><rect width="37" height="21" x="1.5" y="4.5" fill="#bae0bd"/><path fill="#5e9c76" d="M38,25H2V5h36V25 M39,26V4H1v22H39L39,26z"/><circle cx="20" cy="15" r="7.5" fill="#fff"/><path fill="#5e9c76" d="M20,22c-3.86,0-7-3.14-7-7s3.14-7,7-7s7,3.14,7,7S23.86,22,20,22 M20,23c4.418,0,8-3.582,8-8 s-3.582-8-8-8s-8,3.582-8,8S15.582,23,20,23L20,23z"/><circle cx="33" cy="15" r="2.5" fill="#fff"/><path fill="#5e9c76" d="M33,17c-1.103,0-2-0.897-2-2s0.897-2,2-2s2,0.897,2,2S34.103,17,33,17 M33,18c1.657,0,3-1.343,3-3 s-1.343-3-3-3c-1.657,0-3,1.343-3,3S31.343,18,33,18L33,18z"/><circle cx="7" cy="15" r="2.5" fill="#fff"/><path fill="#5e9c76" d="M7,17c-1.103,0-2-0.897-2-2s0.897-2,2-2s2,0.897,2,2S8.103,17,7,17 M7,18c1.657,0,3-1.343,3-3 s-1.343-3-3-3s-3,1.343-3,3S5.343,18,7,18L7,18z"/></svg>