<svg xmlns="http://www.w3.org/2000/svg"  viewBox="0 0 40 40" width="40px" height="40px"><path fill="#dcd5f2" d="M3.5,35.5c-1.103,0-2-0.897-2-2v-27c0-1.103,0.897-2,2-2h33c1.103,0,2,0.897,2,2v27 c0,1.103-0.897,2-2,2H3.5z"/><path fill="#8b75a1" d="M36.5,5C37.327,5,38,5.673,38,6.5v27c0,0.827-0.673,1.5-1.5,1.5h-33C2.673,35,2,34.327,2,33.5v-27 C2,5.673,2.673,5,3.5,5H36.5 M36.5,4h-33C2.119,4,1,5.119,1,6.5v27C1,34.881,2.119,36,3.5,36h33c1.381,0,2.5-1.119,2.5-2.5v-27 C39,5.119,37.881,4,36.5,4L36.5,4z"/><path fill="#b0c1d4" d="M24,29.5c-5.238,0-9.5-4.262-9.5-9.5s4.262-9.5,9.5-9.5s9.5,4.262,9.5,9.5S29.238,29.5,24,29.5z"/><path fill="#66798f" d="M24,11c4.963,0,9,4.037,9,9s-4.037,9-9,9s-9-4.037-9-9S19.037,11,24,11 M24,10 c-5.523,0-10,4.477-10,10s4.477,10,10,10s10-4.477,10-10S29.523,10,24,10L24,10z"/><path fill="#e1ebf2" d="M24 14.5A5.5 5.5 0 1 0 24 25.5A5.5 5.5 0 1 0 24 14.5Z"/><path fill="#66798f" d="M24,15c2.757,0,5,2.243,5,5s-2.243,5-5,5s-5-2.243-5-5S21.243,15,24,15 M24,14c-3.314,0-6,2.686-6,6 s2.686,6,6,6s6-2.686,6-6S27.314,14,24,14L24,14z"/><path fill="#788b9c" d="M7,12c-1.105,0-2,0.895-2,2v12c0,1.105,0.895,2,2,2s2-0.895,2-2V14C9,12.895,8.105,12,7,12L7,12z"/><path fill="#e1ebf2" d="M7,27L7,27c-0.552,0-1-0.448-1-1v-6h2v6C8,26.552,7.552,27,7,27z"/><path fill="#fff" d="M7,13L7,13c0.552,0,1,0.448,1,1v6H6v-6C6,13.448,6.448,13,7,13z"/><path fill="none" stroke="#66798f" stroke-miterlimit="10" d="M21.267 13.401L20.447 11.421M30.599 17.267L32.579 16.447M15.421 23.553L17.401 22.733M26.733 13.401L27.553 11.421M20.447 28.579L21.267 26.599M15.421 16.447L17.401 17.267"/><path fill="#8b75a1" d="M4 35H9V37H4zM37 11H39V15H37zM37 25H39V29H37z"/><g><path fill="#bae0bd" d="M31 22.5A8.5 8.5 0 1 0 31 39.5A8.5 8.5 0 1 0 31 22.5Z"/><path fill="#5e9c76" d="M31,23c4.411,0,8,3.589,8,8s-3.589,8-8,8s-8-3.589-8-8S26.589,23,31,23 M31,22c-4.971,0-9,4.029-9,9 s4.029,9,9,9s9-4.029,9-9S35.971,22,31,22L31,22z"/></g><path fill="none" stroke="#fff" stroke-miterlimit="10" stroke-width="2" d="M26.821 31.025L29.591 33.794 35.821 27.563"/></svg>