<svg xmlns="http://www.w3.org/2000/svg"  viewBox="0 0 40 40" width="40px" height="40px"><path fill="#dcd5f2" d="M3.5,35.5c-1.103,0-2-0.897-2-2v-27c0-1.103,0.897-2,2-2h33c1.103,0,2,0.897,2,2v27 c0,1.103-0.897,2-2,2H3.5z"/><path fill="#8b75a1" d="M36.5,5C37.327,5,38,5.673,38,6.5v27c0,0.827-0.673,1.5-1.5,1.5h-33C2.673,35,2,34.327,2,33.5v-27 C2,5.673,2.673,5,3.5,5H36.5 M36.5,4h-33C2.119,4,1,5.119,1,6.5v27C1,34.881,2.119,36,3.5,36h33c1.381,0,2.5-1.119,2.5-2.5v-27 C39,5.119,37.881,4,36.5,4L36.5,4z"/><path fill="#8b75a1" d="M31 35H36V37H31zM4 35H9V37H4z"/><path fill="#66798f" d="M5.5 8.5H25.5V31.5H5.5z"/><path fill="#36404d" d="M25,9v22H6V9H25 M26,8H5v24h21V8L26,8z"/><path fill="#dcd5f2" d="M23.5 37.5L23.5 2.5 26.861 2.5 36.5 8.283 36.5 31.717 26.861 37.5z"/><path fill="#8b75a1" d="M26.723 3L36 8.566v22.868L26.723 37H24V3H26.723M27 2h-4v36h4l10-6V8L27 2 27 2zM37 11H39V15H37zM37 25H39V29H37z"/><path fill="#b0c1d4" d="M31.5,29.5c-1.419,0-3-3.696-3-9s1.581-9,3-9s3,3.696,3,9S32.919,29.5,31.5,29.5z"/><path fill="#66798f" d="M31.5,12c0.881,0,2.5,3.227,2.5,8.5S32.381,29,31.5,29S29,25.773,29,20.5S30.619,12,31.5,12 M31.5,11c-1.933,0-3.5,4.253-3.5,9.5s1.567,9.5,3.5,9.5c1.933,0,3.5-4.253,3.5-9.5S33.433,11,31.5,11L31.5,11z"/><path fill="#e1ebf2" d="M33.5,25.493c-0.361-0.202-1-2.03-1-4.993c0-3.022,0.665-4.863,1.021-5.003 c0.314,0.14,0.979,1.981,0.979,5.003C34.5,23.463,33.861,25.291,33.5,25.493z"/><path fill="#66798f" d="M33.5 16.541c.249.752.5 2.104.5 3.959s-.251 3.207-.5 3.959C33.251 23.707 33 22.355 33 20.5S33.251 17.293 33.5 16.541M33.5 15c-.828 0-1.5 2.462-1.5 5.5s.672 5.5 1.5 5.5 1.5-2.462 1.5-5.5S34.328 15 33.5 15L33.5 15zM32.188 14.758l-1.241-2.482-.895.447 1.576 3.153C31.777 15.45 31.962 15.068 32.188 14.758zM31.073 18.831l-2.415-.805-.316.948 2.67.89C31.021 19.572 31.041 19.218 31.073 18.831zM31.074 22.183l-2.852 1.901.555.832 2.426-1.617C31.146 22.912 31.104 22.536 31.074 22.183zM31.629 25.123l-1.576 3.153.895.447 1.241-2.482C31.962 25.932 31.777 25.55 31.629 25.123z"/><g><path fill="#bae0bd" d="M16.5 21.5L8.5 21.5 8.5 18.5 16.5 18.5 16.5 15.207 21.293 20 16.5 24.793z"/><path fill="#36404d" d="M17,16.414L20.586,20L17,23.586V22v-1h-1H9v-2h7h1v-1V16.414 M16,14v4H8v4h8v4l6-6L16,14L16,14z"/></g><path fill="#fff" d="M27 3.166L26.723 3 24 3 24 37 26.723 37 27 36.834z"/></svg>