<svg xmlns="http://www.w3.org/2000/svg"  viewBox="0 0 40 40" width="40px" height="40px"><path fill="#e8d47b" d="M32.5,37.5c-3.536,0-6-1.317-6-2.5v-2.5h12V35C38.5,36.183,36.036,37.5,32.5,37.5z"/><path fill="#ba9b48" d="M38,33v2c0,0.796-2.194,2-5.5,2S27,35.796,27,35v-2H38 M39,32H26c0,0,0,2.453,0,3 c0,1.657,2.91,3,6.5,3s6.5-1.343,6.5-3C39,34.453,39,32,39,32L39,32z"/><path fill="#ffeea3" d="M35 36.741c.364-.078.695-.169 1-.271v-3.307h-1V36.741zM30 36.741c.313.067.647.12 1 .162v-3.741h-1V36.741z"/><path fill="#e8d47b" d="M32.5,34.5c-3.536,0-6-1.317-6-2.5v-2.5h12V32C38.5,33.183,36.036,34.5,32.5,34.5z"/><path fill="#ba9b48" d="M38,30v2c0,0.796-2.194,2-5.5,2S27,32.796,27,32v-2H38 M39,29H26c0,0,0,2.453,0,3 c0,1.657,2.91,3,6.5,3s6.5-1.343,6.5-3C39,31.453,39,29,39,29L39,29z"/><path fill="#ffeea3" d="M35 33.741c.364-.078.695-.169 1-.271v-3.307h-1V33.741zM30 33.741c.313.067.647.12 1 .162v-3.741h-1V33.741z"/><path fill="#e8d47b" d="M32.5,31.5c-3.536,0-6-1.317-6-2.5v-2.5h12V29C38.5,30.183,36.036,31.5,32.5,31.5z"/><path fill="#ba9b48" d="M38,27v2c0,0.796-2.194,2-5.5,2S27,29.796,27,29v-2H38 M39,26H26c0,0,0,2.453,0,3 c0,1.657,2.91,3,6.5,3s6.5-1.343,6.5-3C39,28.453,39,26,39,26L39,26z"/><path fill="#ffeea3" d="M35 30.741c.364-.078.695-.169 1-.271v-3.307h-1V30.741zM30 30.741c.313.067.647.12 1 .162v-3.741h-1V30.741z"/><path fill="#e8d47b" d="M32.5,28.5c-3.536,0-6-1.317-6-2.5v-2.5h12V26C38.5,27.183,36.036,28.5,32.5,28.5z"/><path fill="#ba9b48" d="M38,24v2c0,0.796-2.194,2-5.5,2S27,26.796,27,26v-2H38 M39,23H26c0,0,0,2.453,0,3 c0,1.657,2.91,3,6.5,3s6.5-1.343,6.5-3C39,25.453,39,23,39,23L39,23z"/><path fill="#ffeea3" d="M35 27.741c.364-.078.695-.169 1-.271v-3.307h-1V27.741zM30 27.741c.313.067.647.12 1 .162v-3.741h-1V27.741z"/><path fill="#e8d47b" d="M32.5,25.5c-3.536,0-6-1.317-6-2.5v-2.5h12V23C38.5,24.183,36.036,25.5,32.5,25.5z"/><path fill="#ba9b48" d="M38,21v2c0,0.796-2.194,2-5.5,2S27,23.796,27,23v-2H38 M39,20H26c0,0,0,2.453,0,3 c0,1.657,2.91,3,6.5,3s6.5-1.343,6.5-3C39,22.453,39,20,39,20L39,20z"/><path fill="#ffeea3" d="M35 24.741c.364-.078.695-.169 1-.271v-3.307h-1V24.741zM30 24.741c.313.067.647.12 1 .162v-3.741h-1V24.741z"/><path fill="#e8d47b" d="M32.5,22.5c-3.536,0-6-1.317-6-2.5v-2.5h12V20C38.5,21.183,36.036,22.5,32.5,22.5z"/><path fill="#ba9b48" d="M38,18v2c0,0.796-2.194,2-5.5,2S27,20.796,27,20v-2H38 M39,17H26c0,0,0,2.453,0,3 c0,1.657,2.91,3,6.5,3s6.5-1.343,6.5-3C39,19.453,39,17,39,17L39,17z"/><path fill="#ffeea3" d="M35 21.741c.364-.078.695-.169 1-.271v-3.307h-1V21.741zM30 21.741c.313.067.647.12 1 .162v-3.741h-1V21.741z"/><path fill="#e8d47b" d="M32.5,19.5c-3.536,0-6-1.317-6-2.5v-2.5h12V17C38.5,18.183,36.036,19.5,32.5,19.5z"/><path fill="#ba9b48" d="M38,15v2c0,0.796-2.194,2-5.5,2S27,17.796,27,17v-2H38 M39,14H26c0,0,0,2.453,0,3 c0,1.657,2.91,3,6.5,3s6.5-1.343,6.5-3C39,16.453,39,14,39,14L39,14z"/><path fill="#ffeea3" d="M35 18.741c.364-.078.695-.169 1-.271v-3.307h-1V18.741zM30 18.741c.313.067.647.12 1 .162v-3.741h-1V18.741z"/><path fill="#e8d47b" d="M32.5,16.5c-3.536,0-6-1.317-6-2.5v-2.5h12V14C38.5,15.183,36.036,16.5,32.5,16.5z"/><path fill="#ba9b48" d="M38,12v2c0,0.796-2.194,2-5.5,2S27,14.796,27,14v-2H38 M39,11H26c0,0,0,2.453,0,3 c0,1.657,2.91,3,6.5,3s6.5-1.343,6.5-3C39,13.453,39,11,39,11L39,11z"/><path fill="#ffeea3" d="M35 15.741c.364-.078.695-.169 1-.271v-3.307h-1V15.741zM30 15.741c.313.067.647.12 1 .162v-3.741h-1V15.741z"/><path fill="#e8d47b" d="M32.5,13.5c-3.536,0-6-1.317-6-2.5V8.5h12V11C38.5,12.183,36.036,13.5,32.5,13.5z"/><path fill="#ba9b48" d="M38,9v2c0,0.796-2.194,2-5.5,2S27,11.796,27,11V9H38 M39,8H26c0,0,0,2.453,0,3 c0,1.657,2.91,3,6.5,3s6.5-1.343,6.5-3C39,10.453,39,8,39,8L39,8z"/><path fill="#ffeea3" d="M35 12.741c.364-.078.695-.169 1-.271V9.163h-1V12.741zM30 12.741c.313.067.647.12 1 .162V9.163h-1V12.741z"/><path fill="#e8d47b" d="M32.5,10.5c-3.536,0-6-1.317-6-2.5V5.5h12V8C38.5,9.183,36.036,10.5,32.5,10.5z"/><path fill="#ba9b48" d="M38,6v2c0,0.796-2.194,2-5.5,2S27,8.796,27,8V6H38 M39,5H26c0,0,0,2.453,0,3c0,1.657,2.91,3,6.5,3 S39,9.657,39,8C39,7.453,39,5,39,5L39,5z"/><path fill="#ffeea3" d="M35 9.741c.364-.078.695-.169 1-.271V6.163h-1V9.741zM30 9.741c.313.067.647.12 1 .162V6.163h-1V9.741z"/><path fill="#ffeea3" d="M32.5,7.5c-3.536,0-6-1.317-6-2.5s2.464-2.5,6-2.5s6,1.317,6,2.5S36.036,7.5,32.5,7.5z"/><path fill="#ba9b48" d="M32.5,3C35.806,3,38,4.204,38,5s-2.194,2-5.5,2S27,5.796,27,5S29.194,3,32.5,3 M32.5,2 C28.91,2,26,3.343,26,5c0,1.657,2.91,3,6.5,3S39,6.657,39,5C39,3.343,36.09,2,32.5,2L32.5,2z"/><path fill="#e8d47b" d="M8.5,37.5c-3.536,0-6-1.317-6-2.5v-2.5h12V35C14.5,36.183,12.036,37.5,8.5,37.5z"/><path fill="#ba9b48" d="M14,33v2c0,0.796-2.194,2-5.5,2S3,35.796,3,35v-2H14 M15,32H2c0,0,0,2.453,0,3 c0,1.657,2.91,3,6.5,3s6.5-1.343,6.5-3C15,34.453,15,32,15,32L15,32z"/><path fill="#ffeea3" d="M11 36.741c.364-.078.695-.169 1-.271v-3.307h-1V36.741zM6 36.741c.313.067.647.12 1 .162v-3.741H6V36.741z"/><path fill="#e8d47b" d="M8.5,34.5c-3.536,0-6-1.317-6-2.5v-2.5h12V32C14.5,33.183,12.036,34.5,8.5,34.5z"/><path fill="#ba9b48" d="M14,30v2c0,0.796-2.194,2-5.5,2S3,32.796,3,32v-2H14 M15,29H2c0,0,0,2.453,0,3 c0,1.657,2.91,3,6.5,3s6.5-1.343,6.5-3C15,31.453,15,29,15,29L15,29z"/><path fill="#ffeea3" d="M11 33.741c.364-.078.695-.169 1-.271v-3.307h-1V33.741zM6 33.741c.313.067.647.12 1 .162v-3.741H6V33.741z"/><path fill="#e8d47b" d="M8.5,31.5c-3.536,0-6-1.317-6-2.5v-2.5h12V29C14.5,30.183,12.036,31.5,8.5,31.5z"/><path fill="#ba9b48" d="M14,27v2c0,0.796-2.194,2-5.5,2S3,29.796,3,29v-2H14 M15,26H2c0,0,0,2.453,0,3 c0,1.657,2.91,3,6.5,3s6.5-1.343,6.5-3C15,28.453,15,26,15,26L15,26z"/><path fill="#ffeea3" d="M11 30.741c.364-.078.695-.169 1-.271v-3.307h-1V30.741zM6 30.741c.313.067.647.12 1 .162v-3.741H6V30.741z"/><path fill="#e8d47b" d="M8.5,28.5c-3.536,0-6-1.317-6-2.5v-2.5h12V26C14.5,27.183,12.036,28.5,8.5,28.5z"/><path fill="#ba9b48" d="M14,24v2c0,0.796-2.194,2-5.5,2S3,26.796,3,26v-2H14 M15,23H2c0,0,0,2.453,0,3 c0,1.657,2.91,3,6.5,3s6.5-1.343,6.5-3C15,25.453,15,23,15,23L15,23z"/><g><path fill="#ffeea3" d="M11 27.741c.364-.078.695-.169 1-.271v-3.307h-1V27.741zM6 27.741c.313.067.647.12 1 .162v-3.741H6V27.741z"/></g><g><path fill="#e8d47b" d="M8.5,25.5c-3.536,0-6-1.317-6-2.5v-2.5h12V23C14.5,24.183,12.036,25.5,8.5,25.5z"/><path fill="#ba9b48" d="M14,21v2c0,0.796-2.194,2-5.5,2S3,23.796,3,23v-2H14 M15,20H2c0,0,0,2.453,0,3 c0,1.657,2.91,3,6.5,3s6.5-1.343,6.5-3C15,22.453,15,20,15,20L15,20z"/></g><g><path fill="#ffeea3" d="M11 24.741c.364-.078.695-.169 1-.271v-3.307h-1V24.741zM6 24.741c.313.067.647.12 1 .162v-3.741H6V24.741z"/></g><g><path fill="#e8d47b" d="M8.5,22.5c-3.536,0-6-1.317-6-2.5v-2.5h12V20C14.5,21.183,12.036,22.5,8.5,22.5z"/><path fill="#ba9b48" d="M14,18v2c0,0.796-2.194,2-5.5,2S3,20.796,3,20v-2H14 M15,17H2c0,0,0,2.453,0,3 c0,1.657,2.91,3,6.5,3s6.5-1.343,6.5-3C15,19.453,15,17,15,17L15,17z"/></g><g><path fill="#ffeea3" d="M11 21.741c.364-.078.695-.169 1-.271v-3.307h-1V21.741zM6 21.741c.313.067.647.12 1 .162v-3.741H6V21.741z"/></g><g><path fill="#e8d47b" d="M8.5,19.5c-3.536,0-6-1.317-6-2.5v-2.5h12V17C14.5,18.183,12.036,19.5,8.5,19.5z"/><path fill="#ba9b48" d="M14,15v2c0,0.796-2.194,2-5.5,2S3,17.796,3,17v-2H14 M15,14H2c0,0,0,2.453,0,3 c0,1.657,2.91,3,6.5,3s6.5-1.343,6.5-3C15,16.453,15,14,15,14L15,14z"/></g><g><path fill="#ffeea3" d="M11 18.741c.364-.078.695-.169 1-.271v-3.307h-1V18.741zM6 18.741c.313.067.647.12 1 .162v-3.741H6V18.741z"/></g><g><path fill="#e8d47b" d="M8.5,16.5c-3.536,0-6-1.317-6-2.5v-2.5h12V14C14.5,15.183,12.036,16.5,8.5,16.5z"/><path fill="#ba9b48" d="M14,12v2c0,0.796-2.194,2-5.5,2S3,14.796,3,14v-2H14 M15,11H2c0,0,0,2.453,0,3 c0,1.657,2.91,3,6.5,3s6.5-1.343,6.5-3C15,13.453,15,11,15,11L15,11z"/></g><g><path fill="#ffeea3" d="M11 15.741c.364-.078.695-.169 1-.271v-3.307h-1V15.741zM6 15.741c.313.067.647.12 1 .162v-3.741H6V15.741z"/></g><g><path fill="#e8d47b" d="M8.5,13.5c-3.536,0-6-1.317-6-2.5V8.5h12V11C14.5,12.183,12.036,13.5,8.5,13.5z"/><path fill="#ba9b48" d="M14,9v2c0,0.796-2.194,2-5.5,2S3,11.796,3,11V9H14 M15,8H2c0,0,0,2.453,0,3c0,1.657,2.91,3,6.5,3 s6.5-1.343,6.5-3C15,10.453,15,8,15,8L15,8z"/></g><g><path fill="#ffeea3" d="M11 12.741c.364-.078.695-.169 1-.271V9.163h-1V12.741zM6 12.741c.313.067.647.12 1 .162V9.163H6V12.741z"/></g><g><path fill="#ffeea3" d="M8.5,10.5c-3.536,0-6-1.317-6-2.5s2.464-2.5,6-2.5s6,1.317,6,2.5S12.036,10.5,8.5,10.5z"/><path fill="#ba9b48" d="M8.5,6C11.806,6,14,7.204,14,8s-2.194,2-5.5,2S3,8.796,3,8S5.194,6,8.5,6 M8.5,5C4.91,5,2,6.343,2,8 c0,1.657,2.91,3,6.5,3S15,9.657,15,8C15,6.343,12.09,5,8.5,5L8.5,5z"/></g><g><path fill="#e8d47b" d="M20.5,37.5c-3.536,0-6-1.317-6-2.5v-2.5h12V35C26.5,36.183,24.036,37.5,20.5,37.5z"/><path fill="#ba9b48" d="M26,33v2c0,0.796-2.194,2-5.5,2S15,35.796,15,35v-2H26 M27,32H14c0,0,0,2.453,0,3 c0,1.657,2.91,3,6.5,3s6.5-1.343,6.5-3C27,34.453,27,32,27,32L27,32z"/></g><g><path fill="#ffeea3" d="M23 36.741c.364-.078.695-.169 1-.271v-3.307h-1V36.741zM18 36.741c.313.067.647.12 1 .162v-3.741h-1V36.741z"/></g><g><path fill="#e8d47b" d="M20.5,34.5c-3.536,0-6-1.317-6-2.5v-2.5h12V32C26.5,33.183,24.036,34.5,20.5,34.5z"/><path fill="#ba9b48" d="M26,30v2c0,0.796-2.194,2-5.5,2S15,32.796,15,32v-2H26 M27,29H14c0,0,0,2.453,0,3 c0,1.657,2.91,3,6.5,3s6.5-1.343,6.5-3C27,31.453,27,29,27,29L27,29z"/></g><g><path fill="#ffeea3" d="M23 33.741c.364-.078.695-.169 1-.271v-3.307h-1V33.741zM18 33.741c.313.067.647.12 1 .162v-3.741h-1V33.741z"/></g><g><path fill="#e8d47b" d="M20.5,31.5c-3.536,0-6-1.317-6-2.5v-2.5h12V29C26.5,30.183,24.036,31.5,20.5,31.5z"/><path fill="#ba9b48" d="M26,27v2c0,0.796-2.194,2-5.5,2S15,29.796,15,29v-2H26 M27,26H14c0,0,0,2.453,0,3 c0,1.657,2.91,3,6.5,3s6.5-1.343,6.5-3C27,28.453,27,26,27,26L27,26z"/></g><g><path fill="#ffeea3" d="M23 30.741c.364-.078.695-.169 1-.271v-3.307h-1V30.741zM18 30.741c.313.067.647.12 1 .162v-3.741h-1V30.741z"/></g><g><path fill="#e8d47b" d="M20.5,28.5c-3.536,0-6-1.317-6-2.5v-2.5h12V26C26.5,27.183,24.036,28.5,20.5,28.5z"/><path fill="#ba9b48" d="M26,24v2c0,0.796-2.194,2-5.5,2S15,26.796,15,26v-2H26 M27,23H14c0,0,0,2.453,0,3 c0,1.657,2.91,3,6.5,3s6.5-1.343,6.5-3C27,25.453,27,23,27,23L27,23z"/></g><g><path fill="#ffeea3" d="M23 27.741c.364-.078.695-.169 1-.271v-3.307h-1V27.741zM18 27.741c.313.067.647.12 1 .162v-3.741h-1V27.741z"/></g><g><path fill="#e8d47b" d="M20.5,25.5c-3.536,0-6-1.317-6-2.5v-2.5h12V23C26.5,24.183,24.036,25.5,20.5,25.5z"/><path fill="#ba9b48" d="M26,21v2c0,0.796-2.194,2-5.5,2S15,23.796,15,23v-2H26 M27,20H14c0,0,0,2.453,0,3 c0,1.657,2.91,3,6.5,3s6.5-1.343,6.5-3C27,22.453,27,20,27,20L27,20z"/></g><g><path fill="#ffeea3" d="M23 24.741c.364-.078.695-.169 1-.271v-3.307h-1V24.741zM18 24.741c.313.067.647.12 1 .162v-3.741h-1V24.741z"/></g><g><path fill="#e8d47b" d="M20.5,22.5c-3.536,0-6-1.317-6-2.5v-2.5h12V20C26.5,21.183,24.036,22.5,20.5,22.5z"/><path fill="#ba9b48" d="M26,18v2c0,0.796-2.194,2-5.5,2S15,20.796,15,20v-2H26 M27,17H14c0,0,0,2.453,0,3 c0,1.657,2.91,3,6.5,3s6.5-1.343,6.5-3C27,19.453,27,17,27,17L27,17z"/></g><g><path fill="#ffeea3" d="M23 21.741c.364-.078.695-.169 1-.271v-3.307h-1V21.741zM18 21.741c.313.067.647.12 1 .162v-3.741h-1V21.741z"/></g><g><path fill="#e8d47b" d="M20.5,19.5c-3.536,0-6-1.317-6-2.5v-2.5h12V17C26.5,18.183,24.036,19.5,20.5,19.5z"/><path fill="#ba9b48" d="M26,15v2c0,0.796-2.194,2-5.5,2S15,17.796,15,17v-2H26 M27,14H14c0,0,0,2.453,0,3 c0,1.657,2.91,3,6.5,3s6.5-1.343,6.5-3C27,16.453,27,14,27,14L27,14z"/></g><g><path fill="#ffeea3" d="M23 18.741c.364-.078.695-.169 1-.271v-3.307h-1V18.741zM18 18.741c.313.067.647.12 1 .162v-3.741h-1V18.741z"/></g><g><path fill="#ffeea3" d="M20.5,16.5c-3.536,0-6-1.317-6-2.5s2.464-2.5,6-2.5s6,1.317,6,2.5S24.036,16.5,20.5,16.5z"/><path fill="#ba9b48" d="M20.5,12c3.306,0,5.5,1.204,5.5,2s-2.194,2-5.5,2S15,14.796,15,14S17.194,12,20.5,12 M20.5,11 c-3.59,0-6.5,1.343-6.5,3c0,1.657,2.91,3,6.5,3s6.5-1.343,6.5-3C27,12.343,24.09,11,20.5,11L20.5,11z"/></g></svg>