<svg xmlns="http://www.w3.org/2000/svg"  viewBox="0 0 40 40" width="40px" height="40px"><rect width="37" height="3.5" x="1.5" y="31" fill="#94cf9a"/><rect width="37" height="3.5" x="1.5" y="28" fill="#94cf9a"/><rect width="37" height="21" x="1.5" y="7.5" fill="#bae0bd"/><path fill="#5e9c76" d="M1,7v28h38V7H1z M38,34H2v-2h36V34z M38,31H2v-2h36V31z M2,28V8h36v20H2z"/><circle cx="20" cy="18" r="7.5" fill="#fff"/><path fill="#5e9c76" d="M20,11c3.86,0,7,3.14,7,7s-3.14,7-7,7s-7-3.14-7-7S16.14,11,20,11 M20,10c-4.418,0-8,3.582-8,8 s3.582,8,8,8s8-3.582,8-8S24.418,10,20,10L20,10z"/><circle cx="33" cy="18" r="2.5" fill="#fff"/><path fill="#5e9c76" d="M33,16c1.103,0,2,0.897,2,2s-0.897,2-2,2s-2-0.897-2-2S31.897,16,33,16 M33,15c-1.657,0-3,1.343-3,3 s1.343,3,3,3c1.657,0,3-1.343,3-3S34.657,15,33,15L33,15z"/><circle cx="7" cy="18" r="2.5" fill="#fff"/><path fill="#5e9c76" d="M7,16c1.103,0,2,0.897,2,2s-0.897,2-2,2s-2-0.897-2-2S5.897,16,7,16 M7,15c-1.657,0-3,1.343-3,3 s1.343,3,3,3s3-1.343,3-3S8.657,15,7,15L7,15z"/></svg>