<svg xmlns="http://www.w3.org/2000/svg"  viewBox="0 0 40 40" width="40px" height="40px"><circle cx="5.5" cy="6.5" r="1" fill="#c5abe7"/><path fill="#8d71a3" d="M5.5,8C4.7,8,4,7.3,4,6.5S4.7,5,5.5,5S7,5.7,7,6.5S6.3,8,5.5,8z M5.5,6C5.2,6,5,6.2,5,6.5 S5.2,7,5.5,7S6,6.8,6,6.5S5.8,6,5.5,6z"/><rect width="16" height="1" x="10" y="6" fill="#4c78b7"/><rect width="2" height="1" x="29" y="6" fill="#4c78b7"/><rect width="2" height="1" x="34" y="6" fill="#4c78b7"/><rect width="16" height="1" x="10" y="15" fill="#4c78b7"/><rect width="2" height="1" x="34" y="15" fill="#4c78b7"/><rect width="16" height="1" x="10" y="24" fill="#4c78b7"/><rect width="2" height="1" x="29" y="24" fill="#4c78b7"/><rect width="2" height="1" x="34" y="24" fill="#4c78b7"/><rect width="16" height="1" x="10" y="33" fill="#4c78b7"/><rect width="2" height="1" x="34" y="33" fill="#4c78b7"/><circle cx="5.5" cy="15.5" r="1" fill="#c5abe7"/><path fill="#8d71a3" d="M5.5,17C4.7,17,4,16.3,4,15.5S4.7,14,5.5,14S7,14.7,7,15.5S6.3,17,5.5,17z M5.5,15 C5.2,15,5,15.2,5,15.5S5.2,16,5.5,16S6,15.8,6,15.5S5.8,15,5.5,15z"/><circle cx="5.5" cy="24.5" r="1" fill="#c5abe7"/><path fill="#8d71a3" d="M5.5,26C4.7,26,4,25.3,4,24.5S4.7,23,5.5,23S7,23.7,7,24.5S6.3,26,5.5,26z M5.5,24 C5.2,24,5,24.2,5,24.5S5.2,25,5.5,25S6,24.8,6,24.5S5.8,24,5.5,24z"/><circle cx="5.5" cy="33.5" r="1" fill="#c5abe7"/><path fill="#8d71a3" d="M5.5,35C4.7,35,4,34.3,4,33.5S4.7,32,5.5,32S7,32.7,7,33.5S6.3,35,5.5,35z M5.5,33 C5.2,33,5,33.2,5,33.5S5.2,34,5.5,34S6,33.8,6,33.5S5.8,33,5.5,33z"/></svg>