<svg xmlns="http://www.w3.org/2000/svg"  viewBox="0 0 40 40" width="40px" height="40px"><path fill="#ffc49c" d="M6,13.5v-1H5.5c-2.206,0-4-1.794-4-4s1.794-4,4-4h27v9H6z"/><path fill="#a16a4a" d="M32,5v8H6.5v-1h-1C3.57,12,2,10.43,2,8.5S3.57,5,5.5,5H32 M33,4H5.5C3.015,4,1,6.015,1,8.5 S3.015,13,5.5,13v1H33V4L33,4z"/><path fill="#bae0bd" d="M5.5 8.5H35.5V31.5H5.5z"/><path fill="#5e9c76" d="M35,9v22H6V9H35 M36,8H5v24h31V8L36,8z"/><path fill="#fff" d="M5.5,28.5v-18h11c4.963,0,9,4.038,9,9s-4.037,9-9,9H5.5z"/><path fill="#5e9c76" d="M16.5,11c4.687,0,8.5,3.813,8.5,8.5S21.187,28,16.5,28H6V11H16.5 M16.5,10H5v19h11.5 c5.247,0,9.5-4.253,9.5-9.5S21.747,10,16.5,10L16.5,10z"/><g><path fill="#ffc49c" d="M6,35.5c-2.481,0-4.5-2.019-4.5-4.5V9h0.031c0.247,1.97,1.933,3.5,3.969,3.5h27v23H6z"/><path fill="#a16a4a" d="M2,11.325C2.826,12.346,4.088,13,5.5,13H32v22H6c-2.206,0-4-1.794-4-4V16v-4V11.325 M2,8.5H1V12v4 v15c0,2.761,2.239,5,5,5h27V12H5.5C3.567,12,2,10.433,2,8.5L2,8.5z"/></g><g><path fill="#ffc49c" d="M25.5 20.5H38.5V27.5H25.5z"/><path fill="#a16a4a" d="M38,21v6H26v-6H38 M39,20H25v8h14V20L39,20z"/></g><g><path fill="#a16a4a" d="M30 23A1 1 0 1 0 30 25A1 1 0 1 0 30 23Z"/></g></svg>