<svg xmlns="http://www.w3.org/2000/svg" viewBox="0 0 64 64"><g id="plane-airplane-flight-fly-travel"><polygon points="58.08 43.46 45.45 49.77 38 43 26 43 18.55 49.77 5.92 43.46 32 3 58.08 43.46" style="fill:#3d9ae2"/><polygon points="18.55 49.77 15 53 3 48 5.92 43.46 18.55 49.77" style="fill:#1e81ce"/><path d="M35.89,15.78A19.955,19.955,0,0,1,38,24.72V47l-1.91,3.83H27.91L26,47V24.72a19.955,19.955,0,0,1,2.11-8.94l2.1-4.2a2,2,0,0,1,3.58,0Z" style="fill:#5aaae7"/><polygon points="58.08 43.46 61 48 49 53 45.45 49.77 58.08 43.46" style="fill:#1e81ce"/><path d="M43.86,56.21a1.98,1.98,0,0,1,.8,2.13l-.42,1.69a1,1,0,0,1-1.21.73L32,58,20.97,60.76a1,1,0,0,1-1.21-.73l-.42-1.69a1.98,1.98,0,0,1,.8-2.13l7.77-5.38L32,48l4.09,2.83Z" style="fill:#3d9ae2"/><path d="M31.981,16.019A4.5,4.5,0,0,0,29.263,17.4L30.7,18.789a2.591,2.591,0,0,1,1.32-.77h.007a2.443,2.443,0,0,1,1.261.755l1.463-1.365A4.354,4.354,0,0,0,31.981,16.019Z"/><path d="M61.84,47.46l-29-45a1.039,1.039,0,0,0-1.68,0l-29,45a1.032,1.032,0,0,0-.12.84.99.99,0,0,0,.58.62l12,5a.991.991,0,0,0,1.05-.18L25,45.26V47a1,1,0,0,0,.11.45l1.52,3.05-7.06,4.89a3,3,0,0,0-1.2,3.19l.42,1.69a2,2,0,0,0,1.94,1.52,1.973,1.973,0,0,0,.48-.06L32,59.03l10.79,2.7a1.994,1.994,0,0,0,2.42-1.46l.42-1.69a3,3,0,0,0-1.2-3.19L37.37,50.5l1.52-3.05A1,1,0,0,0,39,47V45.26l9.33,8.48a.975.975,0,0,0,1.05.18l12-5a.99.99,0,0,0,.58-.62A1.032,1.032,0,0,0,61.84,47.46ZM14.8,51.83,4.49,47.54l1.79-2.78L16.8,50.01Zm28.49,5.21a1,1,0,0,1,.4,1.06l-.42,1.69L32.24,57.03a.975.975,0,0,0-.48,0L20.73,59.79l-.42-1.69a1,1,0,0,1,.4-1.06L32,49.22ZM27,46.76V24.72a19.028,19.028,0,0,1,2-8.49l2.1-4.2a1.034,1.034,0,0,1,1.8,0l2.1,4.2a19.028,19.028,0,0,1,2,8.49V46.76l-1.29,2.59-3.14-2.17a.992.992,0,0,0-1.14,0l-3.14,2.17Zm12-4.2V24.72a21.053,21.053,0,0,0-2.22-9.39l-2.1-4.2a2.993,2.993,0,0,0-5.36,0l-2.1,4.2A21.053,21.053,0,0,0,25,24.72V42.56l-6.61,6.01L7.37,43.07,32,4.85,56.63,43.07l-11.02,5.5Zm10.2,9.27-2-1.82,10.52-5.25,1.79,2.78Z"/></g></svg>