<svg xmlns="http://www.w3.org/2000/svg" viewBox="0 0 64 64"><g id="plane-airplane-flight-fly-travel-33" data-name="plane-airplane-flight-fly-travel"><path d="M55,27v4.75l-4-1.5V27a2.006,2.006,0,0,1,2-2,2.015,2.015,0,0,1,2,2Z" style="fill:#c6c5ca"/><path d="M43,25a2.006,2.006,0,0,1,2-2,2.015,2.015,0,0,1,2,2v3.75l-4-1.5Z" style="fill:#c6c5ca"/><path d="M21,25v2.25l-4,1.5V25a2.015,2.015,0,0,1,2-2A2.006,2.006,0,0,1,21,25Z" style="fill:#c6c5ca"/><path d="M13,27v3.25l-4,1.5V27a2.015,2.015,0,0,1,2-2A2.006,2.006,0,0,1,13,27Z" style="fill:#c6c5ca"/><polygon points="29.41 57.65 27.06 58.24 20 60 19 57 25.61 52.43 27.74 50.95 29.41 57.65" style="fill:#3d9ae2"/><polygon points="45 57 44 60 36.94 58.24 34.59 57.65 36.26 50.95 38.39 52.43 45 57" style="fill:#3d9ae2"/><polygon points="61 36 61 40 39 38.17 37 38 37 34 39 34.17 61 36" style="fill:#1e81ce"/><polygon points="61 33 61 36 39 34.17 37 34 37 24 61 33" style="fill:#3d9ae2"/><polygon points="27 24 27 34 25 34.17 3 36 3 33 27 24" style="fill:#3d9ae2"/><polygon points="27 34 27 38 25 38.17 3 40 3 36 25 34.17 27 34" style="fill:#1e81ce"/><path d="M37,8V48l-.74,2.95-1.67,6.7-.65,2.59a2,2,0,0,1-3.88,0l-.65-2.59-1.67-6.7L27,48V8A5,5,0,1,1,37,8Z" style="fill:#e0e0e2"/><polygon points="36.26 50.95 38.39 52.43 38.26 52.95 36.94 58.24 34.59 57.65 36.26 50.95" style="fill:#1e81ce"/><polygon points="39 24.75 39 34.17 37 34 37 24 39 24.75" style="fill:#1e81ce"/><polygon points="27 34 25 34.17 25 24.75 27 24 27 34" style="fill:#1e81ce"/><polygon points="29.41 57.65 27.06 58.24 25.74 52.95 25.61 52.43 27.74 50.95 29.41 57.65" style="fill:#1e81ce"/><polygon points="39 34.17 39 38.17 37 38 37 34 39 34.17" style="fill:#1a6fb0"/><polygon points="27 34 27 38 25 38.17 25 34.17 27 34" style="fill:#1a6fb0"/><path d="M61.35,32.06l-5.35-2V27a3,3,0,0,0-3-3,3.009,3.009,0,0,0-3,3v.81l-2-.75V25a3,3,0,0,0-3-3,3,3,0,0,0-2.98,2.81L38,23.31V8A6,6,0,0,0,26,8V23.31l-4.02,1.5A3,3,0,0,0,19,22a3,3,0,0,0-3,3v2.06l-2,.75V27a3.009,3.009,0,0,0-3-3,3,3,0,0,0-3,3v3.06l-5.35,2A1.007,1.007,0,0,0,2,33v7a1.029,1.029,0,0,0,.32.74A1.014,1.014,0,0,0,3,41h.08L26,39.09V48a.986.986,0,0,0,.03.24l.57,2.28-8.17,5.66a1.006,1.006,0,0,0-.38,1.14l1,3A1.01,1.01,0,0,0,20,61a.986.986,0,0,0,.24-.03l8.44-2.11.41,1.62a3,3,0,0,0,5.82,0l.41-1.62,8.44,2.11A.986.986,0,0,0,44,61a1.01,1.01,0,0,0,.95-.68l1-3a1.006,1.006,0,0,0-.38-1.14L37.4,50.52l.57-2.28A.986.986,0,0,0,38,48V39.09L60.92,41H61a1.014,1.014,0,0,0,.68-.26A1.029,1.029,0,0,0,62,40V33A1.007,1.007,0,0,0,61.35,32.06ZM18,25a.949.949,0,0,1,.31-.71A.928.928,0,0,1,19,24a1,1,0,0,1,1,1v.56l-2,.75Zm-8,2a.949.949,0,0,1,.31-.71A.928.928,0,0,1,11,26a1,1,0,0,1,1,1v1.56l-2,.75ZM26,37.08,4,38.91V36.92l22-1.83Zm0-4L4,34.91V33.69l22-8.25ZM20.66,58.81l-.47-1.41,6.93-4.8,1.08,4.32ZM33,59.88V49H31V59.88l-3-12V8a4,4,0,0,1,8,0V47.88ZM43.81,57.4l-.47,1.41L35.8,56.92l1.08-4.32ZM52,27a1,1,0,0,1,1-1,.949.949,0,0,1,.71.31A.928.928,0,0,1,54,27v2.31l-2-.75Zm-8-2a1,1,0,0,1,1-1,.949.949,0,0,1,.71.31A.928.928,0,0,1,46,25v1.31l-2-.75ZM60,38.91,38,37.08V35.09l22,1.83Zm0-4L38,33.08V25.44l22,8.25Z"/><path d="M31.981,7.019A4.505,4.505,0,0,0,29.263,8.4L30.7,9.789a2.6,2.6,0,0,1,1.319-.77,2.365,2.365,0,0,1,1.269.755L34.75,8.41A4.459,4.459,0,0,0,31.981,7.019Z"/></g></svg>