<svg xmlns="http://www.w3.org/2000/svg" viewBox="0 0 64 64"><g id="plane-airplane-flight-fly-travel-7" data-name="plane-airplane-flight-fly-travel"><path d="M56,21v4.46l-4-1.23V21a1,1,0,0,1,1-1h2A1,1,0,0,1,56,21Z" style="fill:#c6c5ca"/><path d="M47,18v4.69l-4-1.23V18a1,1,0,0,1,1-1h2A1,1,0,0,1,47,18Z" style="fill:#c6c5ca"/><path d="M21,18v3.46l-4,1.23V18a1,1,0,0,1,1-1h2A1,1,0,0,1,21,18Z" style="fill:#c6c5ca"/><path d="M12,21v3.23L8,25.46V21a1,1,0,0,1,1-1h2A1,1,0,0,1,12,21Z" style="fill:#c6c5ca"/><path d="M54,35h0a1.179,1.179,0,0,1-1.164-.986L52,29h4l-.836,5.014A1.179,1.179,0,0,1,54,35Z" style="fill:#c6c5ca"/><path d="M45,34h0a1.179,1.179,0,0,1-1.164-.986L43,28h4l-.836,5.014A1.179,1.179,0,0,1,45,34Z" style="fill:#c6c5ca"/><path d="M19,34h0a1.179,1.179,0,0,0,1.164-.986L21,28H17l.836,5.014A1.179,1.179,0,0,0,19,34Z" style="fill:#c6c5ca"/><path d="M10,35h0a1.179,1.179,0,0,0,1.164-.986L12,29H8l.836,5.014A1.179,1.179,0,0,0,10,35Z" style="fill:#c6c5ca"/><path d="M61,28.95V32l-5.4-.62L52.34,31l-5.73-.66-3.28-.38-5.37-.62-1.97-.23,1.1-10.47,1.94.6L43,20.46l4,1.23,5,1.54,4,1.23,2.18.67A4.012,4.012,0,0,1,61,28.95Z" style="fill:#3d9ae2"/><path d="M28.01,29.11l-1.97.23-5.37.62-3.28.38L11.66,31l-3.26.38L3,32V28.95a4.012,4.012,0,0,1,2.82-3.82L8,24.46l4-1.23,5-1.54,4-1.23,3.97-1.22,1.94-.6Z" style="fill:#3d9ae2"/><path d="M34.2,4.293l-.531-.8a2,2,0,0,0-3.328,0l-.532.8a19,19,0,0,0-3.086,12.528L30,48l2,8,2-8,3.282-31.179A19,19,0,0,0,34.2,4.293Z" style="fill:#e0e0e2"/><path d="M46,56.15v2.67a1,1,0,0,1-1.16.99L36,58.33,34,58V48l2,1.17,9.01,5.25A2.015,2.015,0,0,1,46,56.15Z" style="fill:#3d9ae2"/><path d="M30,48V58l-2,.33-8.84,1.48A1,1,0,0,1,18,58.82V56.15a2.015,2.015,0,0,1,.99-1.73L28,49.17Z" style="fill:#3d9ae2"/><path d="M32,45a2.015,2.015,0,0,1,2,2V59a2,2,0,0,1-4,0V47A2.006,2.006,0,0,1,32,45Z" style="fill:#3d9ae2"/><polygon points="36 49.17 36 58.33 34 58 34 48 36 49.17" style="fill:#1e81ce"/><polygon points="30 48 30 58 28 58.33 28 49.17 30 48" style="fill:#1e81ce"/><polygon points="39.03 19.24 37.96 29.34 35.99 29.11 37.09 18.64 39.03 19.24" style="fill:#1e81ce"/><polygon points="28.01 29.11 26.04 29.34 24.97 19.24 26.91 18.64 28.01 29.11" style="fill:#1e81ce"/><path d="M58.47,24.17,57,23.72V21a2.006,2.006,0,0,0-2-2H53a2.006,2.006,0,0,0-2,2v.87l-3-.92V18a2.006,2.006,0,0,0-2-2H44a2.006,2.006,0,0,0-2,2v1.1l-3.83-1.17.1-1a20,20,0,0,0-3.24-13.2l-.54-.78a2.99,2.99,0,0,0-4.98-.01l-.54.8a19.949,19.949,0,0,0-3.24,13.18l.1,1.01L22,19.1V18a2.006,2.006,0,0,0-2-2H18a2.006,2.006,0,0,0-2,2v2.95l-3,.92V21a2.006,2.006,0,0,0-2-2H9a2.006,2.006,0,0,0-2,2v2.72l-1.48.45A5,5,0,0,0,2,28.95V32a1.006,1.006,0,0,0,.33.75A1.05,1.05,0,0,0,3,33a.375.375,0,0,0,.11-.01l4.46-.51.28,1.69a2.178,2.178,0,0,0,4.3,0l.37-2.26,4.04-.47.29,1.73a2.178,2.178,0,0,0,4.3,0l.38-2.3,5.59-.65,1.82,17.24-10.45,6.1A3,3,0,0,0,17,56.15v2.67a2,2,0,0,0,2,2,1.841,1.841,0,0,0,.33-.03l9.69-1.61a2.985,2.985,0,0,0,5.96,0l9.69,1.61a1.841,1.841,0,0,0,.33.03,2,2,0,0,0,2-2V56.15a3,3,0,0,0-1.49-2.59l-10.45-6.1,1.82-17.24,5.59.65.38,2.3a2.179,2.179,0,0,0,4.3.01l.29-1.74,4.04.47.37,2.26a2.178,2.178,0,0,0,4.3,0l.28-1.69,4.46.51A.375.375,0,0,0,61,33a1.05,1.05,0,0,0,.67-.25A1.006,1.006,0,0,0,62,32V28.95A5,5,0,0,0,58.47,24.17ZM18,18h2v1.72l-2,.61ZM9,21h2v1.49L9,23.1Zm1.17,12.85a.175.175,0,0,1-.34-.01l-.27-1.59.9-.11Zm9-1a.175.175,0,0,1-.34-.01l-.28-1.63.91-.11ZM4,30.88V28.95a3.017,3.017,0,0,1,2.11-2.86l2.18-.67,4-1.23c.01,0,.01-.01.02-.01l13.73-4.23.87,8.28ZM29,57.15,19,58.82V56.15a.976.976,0,0,1,.5-.86L29,49.74ZM33,59a1,1,0,0,1-2,0V47a1,1,0,0,1,2,0Zm11.5-3.72a1,1,0,0,1,.5.87v2.67L35,57.15V49.74ZM36.29,16.72,33.38,44.35a2.9,2.9,0,0,0-2.76,0L27.71,16.71A18.07,18.07,0,0,1,30.63,4.85l.54-.8a1.014,1.014,0,0,1,1.66.01l.54.78A18.126,18.126,0,0,1,36.29,16.72ZM53,21h2v2.1l-2-.61Zm-9-3h2v2.33l-2-.61Zm1.17,14.85a.175.175,0,0,1-.34-.01l-.29-1.74.91.11Zm9,1a.176.176,0,0,1-.34,0l-.29-1.71.9.11ZM60,30.88,37.09,28.23l.87-8.28,19.92,6.13A3.035,3.035,0,0,1,60,28.95Z"/><path d="M32.019,9.019h.007a2.449,2.449,0,0,1,1.262.755L34.75,8.409a4.163,4.163,0,0,0-2.769-1.39A4.505,4.505,0,0,0,29.263,8.4L30.7,9.789A2.589,2.589,0,0,1,32.019,9.019Z"/></g></svg>