<svg xmlns="http://www.w3.org/2000/svg" viewBox="0 0 64 64"><g id="plane-airplane-flight-fly-travel-38" data-name="plane-airplane-flight-fly-travel"><path d="M47,20h2a1,1,0,0,1,1,1v4.04L46,23.6V21A1,1,0,0,1,47,20Z" style="fill:#c6c5ca"/><path d="M17,20a1,1,0,0,1,1,1v2.6l-4,1.44V21a1,1,0,0,1,1-1Z" style="fill:#c6c5ca"/><polygon points="30 56 20 60 20 56 26.72 50.96 28.8 49.4 30 56" style="fill:#3d9ae2"/><polygon points="44 56 44 60 34 56 35.2 49.4 37.28 50.96 44 56" style="fill:#3d9ae2"/><path d="M61,29.41v1.42a1,1,0,0,1-1.16.98L38,28.32,36,28V19l2,.72,12,4.32,9.68,3.48A2.011,2.011,0,0,1,61,29.41Z" style="fill:#3d9ae2"/><path d="M34.86,8.14A16.126,16.126,0,0,1,36,14.08V43.56a16.1,16.1,0,0,1-.26,2.86L35.2,49.4,34,56H30l-1.2-6.6-.54-2.98A16.1,16.1,0,0,1,28,43.56V14.08a16.126,16.126,0,0,1,1.14-5.94l1.93-4.82a1,1,0,0,1,1.86,0Z" style="fill:#e0e0e2"/><polygon points="37.28 50.96 37.2 51.4 36.2 56.88 34 56 35.2 49.4 37.28 50.96" style="fill:#1e81ce"/><polygon points="30 56 27.8 56.88 26.8 51.4 26.72 50.96 28.8 49.4 30 56" style="fill:#1e81ce"/><path d="M28,19v9l-2,.32L4.16,31.81A1,1,0,0,1,3,30.83V29.41a2.011,2.011,0,0,1,1.32-1.89L14,24.04l12-4.32Z" style="fill:#3d9ae2"/><polygon points="38 19.72 38 28.32 36 28 36 19 38 19.72" style="fill:#1e81ce"/><polygon points="28 19 28 28 26 28.32 26 19.72 28 19" style="fill:#1e81ce"/><path d="M60.02,26.58,51,23.34V21a2.006,2.006,0,0,0-2-2H47a2.006,2.006,0,0,0-2,2v.18L37,18.3V14.08a16.869,16.869,0,0,0-1.22-6.31L33.86,2.95a2,2,0,0,0-3.72,0L28.22,7.77A16.83,16.83,0,0,0,27,14.08V18.3l-8,2.88V21a2.006,2.006,0,0,0-2-2H15a2.006,2.006,0,0,0-2,2v2.34L3.98,26.58A3.017,3.017,0,0,0,2,29.41v1.42a2,2,0,0,0,2,2,1.816,1.816,0,0,0,.32-.03L27,29.17V43.56a17.266,17.266,0,0,0,.27,3.04l.44,2.37L19.4,55.2a1.014,1.014,0,0,0-.4.8v4a1,1,0,0,0,.44.83A1.023,1.023,0,0,0,20,61a.937.937,0,0,0,.37-.07L30.19,57H31v5h2V57h.81l9.82,3.93A.937.937,0,0,0,44,61a1.023,1.023,0,0,0,.56-.17A1,1,0,0,0,45,60V56a1.014,1.014,0,0,0-.4-.8l-8.31-6.23.44-2.37A17.266,17.266,0,0,0,37,43.56V29.17L59.68,32.8a1.816,1.816,0,0,0,.32.03,2,2,0,0,0,2-2V29.41A3.017,3.017,0,0,0,60.02,26.58ZM15,21h2v.9l-2,.72Zm12,6.15L4,30.83V29.41a1.029,1.029,0,0,1,.66-.95L27,20.42ZM21,58.52V56.5l7.11-5.33.76,4.2ZM35,43.56a15.089,15.089,0,0,1-.24,2.68L33.17,55H33V49H31v6h-.17l-1.59-8.76A15.089,15.089,0,0,1,29,43.56V14.08a14.954,14.954,0,0,1,1.07-5.57L32,3.69l1.93,4.82A14.992,14.992,0,0,1,35,14.08ZM43,56.5v2.02l-7.87-3.15.76-4.2ZM47,21h2v1.62l-2-.72Zm13,9.83L37,27.15V20.42l22.34,8.04a1.029,1.029,0,0,1,.66.95Z"/><path d="M31.981,11.019A4.505,4.505,0,0,0,29.263,12.4L30.7,13.789a2.6,2.6,0,0,1,1.319-.77c.359-.049.966.436,1.269.755L34.75,12.41A4.294,4.294,0,0,0,31.981,11.019Z"/></g></svg>