<svg xmlns="http://www.w3.org/2000/svg" viewBox="0 0 64 64"><g id="plane-airplane-flight-fly-fighter-3" data-name="plane-airplane-flight-fly-fighter"><path d="M61,29V43H57V29a2.015,2.015,0,0,1,2-2A2.006,2.006,0,0,1,61,29Z" style="fill:#1e81ce"/><path d="M7,29V43H3V29a2.006,2.006,0,0,1,2-2,2.015,2.015,0,0,1,2,2Z" style="fill:#1e81ce"/><path d="M39,21.61V41l-2,4v4.92l-3-1.15H30l-3,1.15V45l-2-4V21.61a1.965,1.965,0,0,1,.34-1.11L27,18V15.4a12.052,12.052,0,0,1,.92-4.62l3.16-7.56a.991.991,0,0,1,1.84,0l3.16,7.56A12.052,12.052,0,0,1,37,15.4V18l1.66,2.5A1.965,1.965,0,0,1,39,21.61Z" style="fill:#5aaae7"/><polygon points="25 25 25 39 3 39 3 33 7 31.55 16 28.27 20 26.82 23 25.73 25 25" style="fill:#3d9ae2"/><polygon points="61 33 61 39 39 39 39 25 41 25.73 44 26.82 48 28.27 57 31.55 61 33" style="fill:#3d9ae2"/><path d="M34,14v7a2,2,0,0,1-4,0V14a2.015,2.015,0,0,1,2-2A2.006,2.006,0,0,1,34,14Z" style="fill:#78b9eb"/><path d="M34,58.31V59a2,2,0,0,1-4,0V30a2.006,2.006,0,0,1,2-2,2.015,2.015,0,0,1,2,2V58.31Z" style="fill:#3d9ae2"/><polygon points="30 48.77 30 58.31 28 58.62 19 60 19 53 27 49.92 28 49.54 30 48.77" style="fill:#3d9ae2"/><polygon points="45 53 45 60 36 58.62 34 58.31 34 48.77 36 49.54 37 49.92 45 53" style="fill:#3d9ae2"/><polygon points="41 25.73 41 39 39 39 39 25 41 25.73" style="fill:#1e81ce"/><polygon points="23 25.73 25 25 25 39 23 39 23 25.73" style="fill:#1e81ce"/><polygon points="36 49.54 36 58.62 34 58.31 34 48.77 36 49.54" style="fill:#1e81ce"/><polygon points="30 48.77 30 58.31 28 58.62 28 49.54 30 48.77" style="fill:#1e81ce"/><path d="M59,26a3,3,0,0,0-3,3v1.12l-7-2.55V25H47v1.85l-2-.73V23H43v2.39L40,24.3V21.61a2.909,2.909,0,0,0-.51-1.66L38,17.7V15.4a12.876,12.876,0,0,0-1-5.01L33.85,2.84a2,2,0,0,0-3.69-.01L27,10.4a12.791,12.791,0,0,0-1,5v2.3l-1.48,2.23A2.952,2.952,0,0,0,24,21.61V24.3l-3,1.09V23H19v3.12l-2,.73V25H15v2.57L8,30.12V29a3,3,0,0,0-3-3,3.009,3.009,0,0,0-3,3V43a1,1,0,0,0,1,1H7a1,1,0,0,0,1-1V40H24v1a1,1,0,0,0,.11.45L26,45.24v4l-7.36,2.83A.985.985,0,0,0,18,53v7a1.011,1.011,0,0,0,.35.76A.969.969,0,0,0,19,61a.757.757,0,0,0,.15-.01l9.9-1.52a2.985,2.985,0,0,0,5.9,0l9.9,1.52A.757.757,0,0,0,45,61a.969.969,0,0,0,.65-.24A1.011,1.011,0,0,0,46,60V53a.985.985,0,0,0-.64-.93L38,49.24v-4l1.89-3.79A1,1,0,0,0,40,41V40H56v3a1,1,0,0,0,1,1h4a1,1,0,0,0,1-1V29A3.009,3.009,0,0,0,59,26ZM4,29a1,1,0,0,1,1-1,.949.949,0,0,1,.71.31A.928.928,0,0,1,6,29v1.85l-2,.72ZM6,42H4V40H6Zm18-4H4V33.7l20-7.27Zm5,19.45-9,1.38V53.69l9-3.46ZM33,59a1,1,0,0,1-2,0V30a1,1,0,0,1,2,0Zm11-5.31v5.14l-9-1.38V50.23ZM38,40.76l-1.89,3.79A1,1,0,0,0,36,45v3.47l-1-.39V30a3,3,0,0,0-6,0V48.08l-1,.39V45a1,1,0,0,0-.11-.45L26,40.76V21.61a1.023,1.023,0,0,1,.17-.56l1.66-2.5A.967.967,0,0,0,28,18V15.4a10.933,10.933,0,0,1,.84-4.23L32,3.61l3.16,7.55A11.019,11.019,0,0,1,36,15.4V18a.967.967,0,0,0,.17.55l1.67,2.52a.98.98,0,0,1,.16.54ZM60,42H58V40h2Zm0-4H40V26.43L60,33.7Zm0-6.43-2-.72V29a.949.949,0,0,1,.31-.71A.928.928,0,0,1,59,28a1,1,0,0,1,1,1Z"/><path d="M32,11a3,3,0,0,0-3,3v7a3,3,0,0,0,6,0V14A3,3,0,0,0,32,11Zm1,10a1,1,0,0,1-2,0V14a1,1,0,0,1,2,0Z"/></g></svg>