<svg xmlns="http://www.w3.org/2000/svg" viewBox="0 0 64 64"><g id="plane-airplane-flight-fly-travel-10" data-name="plane-airplane-flight-fly-travel"><path d="M61,21.03a3.031,3.031,0,0,1-1.79,2.77L38.63,33.03l-2.06.92L37.52,20l.14-2H57.97A3.039,3.039,0,0,1,61,21.03Z" style="fill:#3d9ae2"/><path d="M27.43,33.95l-2.06-.92L4.79,23.8A3.033,3.033,0,0,1,6.03,18H26.34l.14,2Z" style="fill:#3d9ae2"/><path d="M34,25v2a2,2,0,0,1-4,0V25a2.006,2.006,0,0,1,2-2,2.015,2.015,0,0,1,2,2Z" style="fill:#c6c5ca"/><polygon points="38 13 37.93 14 26.07 14 26 13 29 10 30 10 34 10 35 10 38 13" style="fill:#acabb1"/><polygon points="37.93 14 37.66 18 37.52 20 26.48 20 26.34 18 26.07 14 37.93 14" style="fill:#d8d7da"/><polygon points="37.52 20 36.57 33.95 35.75 45.98 28.25 45.98 27.43 33.95 26.48 20 37.52 20" style="fill:#e0e0e2"/><polygon points="34 6 34 10 30 10 30 6 32 6 34 6" style="fill:#c6c5ca"/><path d="M30.02,55H30l-3.11,4.66A2.993,2.993,0,0,1,24.39,61H19.43a2,2,0,0,1-1.5-3.32l10.32-11.7L30,44h4l1.75,1.98,10.32,11.7A2,2,0,0,1,44.57,61H39.61a2.993,2.993,0,0,1-2.5-1.34L34,55h-.02C33.99,54.67,30.01,54.68,30.02,55Z" style="fill:#3d9ae2"/><path d="M32,47c1.1,0,2,3.13,2,7,0,.34-.01.67-.02,1-.14,3.4-.98,6-1.98,6s-1.84-2.6-1.98-6c-.01-.32-.02-.66-.02-1C30,50.13,30.9,47,32,47Z" style="fill:#1e81ce"/><polygon points="39.66 18 39.52 20 38.63 33.03 36.57 33.95 37.52 20 37.66 18 39.66 18" style="fill:#1e81ce"/><polygon points="27.43 33.95 25.37 33.03 24.48 20 24.34 18 26.34 18 26.48 20 27.43 33.95" style="fill:#1e81ce"/><path d="M60.82,18.18A4.035,4.035,0,0,0,57.97,17H38.73L39,13.07a1.03,1.03,0,0,0-.29-.78l-3-3A1.033,1.033,0,0,0,35,9V6a1,1,0,0,0-1-1H33V4h8V2H23V4h8V5H30a1,1,0,0,0-1,1V9a1.033,1.033,0,0,0-.71.29l-3,3a1.03,1.03,0,0,0-.29.78L25.27,17H6.03a4.032,4.032,0,0,0-1.65,7.71l22.09,9.91.75,11.01L17.18,57.02A3,3,0,0,0,19.43,62h4.96a3.988,3.988,0,0,0,3.33-1.79l1.6-2.39C29.67,59.89,30.42,62,32,62s2.33-2.11,2.68-4.18l1.6,2.39A3.988,3.988,0,0,0,39.61,62h4.96a3,3,0,0,0,2.25-4.98L36.78,45.63l.75-11.01,22.09-9.91a4.034,4.034,0,0,0,1.2-6.53ZM5.2,22.89A2.035,2.035,0,0,1,6.03,19H25.41l.91,13.36ZM31,7h2V9H31Zm-1.59,4h5.18l2,2H27.41ZM32,59.83c-.42-.67-1-2.69-1-5.83s.58-5.16,1-5.83c.42.67,1,2.69,1,5.83S32.42,59.16,32,59.83Zm13.32-1.49A1,1,0,0,1,44.57,60H39.61a2.011,2.011,0,0,1-1.67-.89l-2.95-4.43c.01-.32.01-.57.01-.68,0-.82-.08-8-3-8s-3,7.18-3,8c0,.11,0,.36.01.68l-2.95,4.43a2.011,2.011,0,0,1-1.67.89H19.43a1,1,0,0,1-.75-1.66L30.45,45h3.1ZM27.55,21h8.9L34.92,43.53l-.17-.19A.981.981,0,0,0,34,43H30a.981.981,0,0,0-.75.34l-.17.19Zm9.04-2H27.41l-.27-4h9.72ZM58.8,22.89,37.68,32.36,38.59,19H57.97A2.049,2.049,0,0,1,60,21.03,2.044,2.044,0,0,1,58.8,22.89Z"/><path d="M32,22a3,3,0,0,0-3,3v2a3,3,0,0,0,6,0V25A3,3,0,0,0,32,22Zm1,5a1,1,0,0,1-2,0V25a1,1,0,0,1,2,0Z"/></g></svg>