<svg xmlns="http://www.w3.org/2000/svg" viewBox="0 0 64 64"><g id="plane-airplane-flight-fly-travel-16" data-name="plane-airplane-flight-fly-travel"><ellipse cx="45" cy="26" rx="2" ry="9" style="fill:#c6c5ca"/><ellipse cx="19" cy="26" rx="2" ry="9" style="fill:#c6c5ca"/><path d="M61,24.92v2.16a1.01,1.01,0,0,1-.92,1l-13.21,1.1-3.71.31L39,29.83,37,30V22l2,.17,4.16.34,3.71.31,13.21,1.1A1.01,1.01,0,0,1,61,24.92Z" style="fill:#3d9ae2"/><path d="M27,22v8l-2-.17-4.16-.34-3.71-.31L3.92,28.08a1.01,1.01,0,0,1-.92-1V24.92a1.01,1.01,0,0,1,.92-1l13.21-1.1,3.71-.31L25,22.17Z" style="fill:#3d9ae2"/><path d="M33.415,49.888,32,53l-1.415-3.112A40.012,40.012,0,0,1,27,33.336V19.929A40,40,0,0,1,29.33,6.475l.787-2.2a2,2,0,0,1,3.766,0l.787,2.2A40,40,0,0,1,37,19.929V33.336A40.012,40.012,0,0,1,33.415,49.888Z" style="fill:#e0e0e2"/><path d="M45,54v4H33.42A36.659,36.659,0,0,0,34,51v-.39l2,.62Z" style="fill:#3d9ae2"/><path d="M30.58,58A36.659,36.659,0,0,1,30,51v-.39c.01-.67.02-1.32.06-1.95v-.01c.21-4.39,1-7.65,1.94-7.65s1.73,3.26,1.94,7.65v.01c.04.63.05,1.28.06,1.95V51a36.659,36.659,0,0,1-.58,7c-.36,1.85-.86,3-1.42,3S30.94,59.85,30.58,58Z" style="fill:#3d9ae2"/><path d="M30.58,58H19V54l9-2.77,2-.62V51A36.659,36.659,0,0,0,30.58,58Z" style="fill:#3d9ae2"/><path d="M30.58,58h-2A35.994,35.994,0,0,1,28,51.23l2-.62V51A36.659,36.659,0,0,0,30.58,58Z" style="fill:#1e81ce"/><path d="M36,51.23A35.994,35.994,0,0,1,35.42,58h-2A36.659,36.659,0,0,0,34,51v-.39Z" style="fill:#1e81ce"/><polygon points="39 22.17 39 29.83 37 30 37 22 39 22.17" style="fill:#1e81ce"/><polygon points="27 22 27 30 25 29.83 25 22.17 27 22" style="fill:#1e81ce"/><path d="M32.025,11.019h-.044A4.5,4.5,0,0,0,29.263,12.4L30.7,13.789a2.591,2.591,0,0,1,1.32-.77,2.693,2.693,0,0,1,1.268.755l1.463-1.365A4.238,4.238,0,0,0,32.025,11.019Z"/><path d="M60.17,22.93,47.78,21.9a21.288,21.288,0,0,0-.5-2.9H49V17H46.5A1.8,1.8,0,0,0,45,16c-.3,0-.92.01-1.53,1H41v2h1.71a19.186,19.186,0,0,0-.44,2.44L38,21.08V19.93A40.787,40.787,0,0,0,35.61,6.14l-.79-2.21a2.993,2.993,0,0,0-5.64,0l-.79,2.21A40.787,40.787,0,0,0,26,19.93v1.15l-4.27.36A19.186,19.186,0,0,0,21.29,19H23V17H20.53c-.61-.99-1.23-1-1.53-1a1.8,1.8,0,0,0-1.5,1H15v2h1.72a21.4,21.4,0,0,0-.5,2.89L3.83,22.93A2.009,2.009,0,0,0,2,24.92v2.16a2.009,2.009,0,0,0,1.83,1.99l12.39,1.04C16.65,34,17.58,36,19,36c.52,0,2.06-.01,2.73-5.44l4.27.36v2.42a40.775,40.775,0,0,0,3.04,15.47c-.01.33-.02.69-.02,1.06L18.71,53.04A1.008,1.008,0,0,0,18,54v4a1,1,0,0,0,1,1H29.77c.74,2.69,1.79,3,2.23,3s1.49-.31,2.23-3H45a1,1,0,0,0,1-1V54a1.008,1.008,0,0,0-.71-.96L34.98,49.87c0-.37-.01-.73-.02-1.06A40.775,40.775,0,0,0,38,33.34V30.92l4.27-.36C42.94,35.99,44.48,36,45,36c1.42,0,2.35-2,2.78-5.89l12.39-1.04A2.009,2.009,0,0,0,62,27.08V24.92A2.009,2.009,0,0,0,60.17,22.93ZM19,18.4a12.483,12.483,0,0,1,.73,3.2l-1.48.13A13.449,13.449,0,0,1,19,18.4Zm0,15.2a13.449,13.449,0,0,1-.75-3.33l1.48.13A12.483,12.483,0,0,1,19,33.6Zm7-4.69L4,27.08V24.92l22-1.83ZM20,57V54.74l9.01-2.78A39.368,39.368,0,0,0,29.37,57Zm12,2.5A28.014,28.014,0,0,1,31,51a28.014,28.014,0,0,1,1-8.5A28.014,28.014,0,0,1,33,51,28.014,28.014,0,0,1,32,59.5Zm2.99-7.54L44,54.74V57H34.63A39.368,39.368,0,0,0,34.99,51.96ZM36,22H34v2h2v2H34v2h2v2H34v2h2v1.34A38.958,38.958,0,0,1,34.48,44.1C33.76,40.4,32.49,40,32,40s-1.76.4-2.48,4.1A38.958,38.958,0,0,1,28,33.34V32h2V30H28V28h2V26H28V24h2V22H28V20h2V18H28.05A38.883,38.883,0,0,1,30.27,6.82l.79-2.22a1,1,0,0,1,1.88.01l.79,2.21A38.883,38.883,0,0,1,35.95,18H34v2h2Zm9-3.6a13.449,13.449,0,0,1,.75,3.33l-1.48-.13A12.483,12.483,0,0,1,45,18.4Zm0,15.2a12.483,12.483,0,0,1-.73-3.2l1.48-.13A13.449,13.449,0,0,1,45,33.6Zm15-6.52L38,28.91V23.09l22,1.83Z"/></g></svg>