<svg xmlns="http://www.w3.org/2000/svg" viewBox="0 0 64 64"><g id="plane-airplane-flight-fly-fighter-12" data-name="plane-airplane-flight-fly-fighter"><path d="M61,32V44H57V32a2.015,2.015,0,0,1,2-2A2.006,2.006,0,0,1,61,32Z" style="fill:#1e81ce"/><path d="M7,32V44H3V32a2.015,2.015,0,0,1,2-2A2.006,2.006,0,0,1,7,32Z" style="fill:#1e81ce"/><polygon points="40 20 40 53 24 53 24 20 27 15 27 11 32 3 37 11 37 15 40 20" style="fill:#5aaae7"/><path d="M36,57a4,4,0,0,1-4,4V43h4V57Z" style="fill:#3d9ae2"/><path d="M32,43V61a4,4,0,0,1-4-4V43Z" style="fill:#3d9ae2"/><polygon points="24 43 24 53 14 58 14 54 22 45.2 24 43" style="fill:#3d9ae2"/><polygon points="50 54 50 58 40 53 40 43 42 45.2 50 54" style="fill:#3d9ae2"/><polygon points="61 37 61 42 57 41.24 42 38.38 40 38 40 22 42 23.43 57 34.14 61 37" style="fill:#3d9ae2"/><path d="M32,23V37H28V23a2.015,2.015,0,0,1,2-2A2.006,2.006,0,0,1,32,23Z" style="fill:#78b9eb"/><path d="M36,23V37H32V23a2.015,2.015,0,0,1,2-2A2.006,2.006,0,0,1,36,23Z" style="fill:#78b9eb"/><polygon points="24 22 24 38 22 38.38 7 41.24 3 42 3 37 7 34.14 22 23.43 24 22" style="fill:#3d9ae2"/><polygon points="42 23.43 42 38.38 40 38 40 22 42 23.43" style="fill:#1e81ce"/><polygon points="40 43 42 45.2 42 54 40 53 40 43" style="fill:#1e81ce"/><polygon points="24 22 24 38 22 38.38 22 23.43 24 22" style="fill:#1e81ce"/><polygon points="22 45.2 24 43 24 53 22 54 22 45.2" style="fill:#1e81ce"/><path d="M32.019,12.019a2.518,2.518,0,0,1,1.269.755L34.75,11.41a4.278,4.278,0,0,0-2.769-1.391A4.505,4.505,0,0,0,29.263,11.4L30.7,12.789A2.6,2.6,0,0,1,32.019,12.019Z"/><path d="M59,29a3,3,0,0,0-3,3v.2L41,21.49V20a1,1,0,0,0-.14-.51L38,14.72V11a.988.988,0,0,0-.15-.53l-5-8a1.048,1.048,0,0,0-1.7,0l-5,8A.988.988,0,0,0,26,11v3.72l-2.86,4.77A1,1,0,0,0,23,20v1.49L8,32.2V32a3.009,3.009,0,0,0-3-3,3,3,0,0,0-3,3V44a1,1,0,0,0,1,1H7a1,1,0,0,0,1-1V42.07l15-2.86v3.4L13.26,53.33A.971.971,0,0,0,13,54v4a1,1,0,0,0,.47.85A1.014,1.014,0,0,0,14,59a1.03,1.03,0,0,0,.45-.11L23,54.62V62h2V54h2v3a5,5,0,0,0,10,0V54h2v8h2V54.62l8.55,4.27A1.03,1.03,0,0,0,50,59a1.014,1.014,0,0,0,.53-.15A1,1,0,0,0,51,58V54a.971.971,0,0,0-.26-.67L41,42.61v-3.4l15,2.86V44a1,1,0,0,0,1,1h4a1,1,0,0,0,1-1V32A3.009,3.009,0,0,0,59,29ZM23,52.38l-8,4V54.39l8-8.8ZM4,32a.949.949,0,0,1,.31-.71A.928.928,0,0,1,5,31a1,1,0,0,1,1,1v1.63L4,35.06ZM6,43H4v-.17l2-.38Zm17-5.83L4,40.79V37.51L23,23.94Zm8,22.65A3.01,3.01,0,0,1,29,57V44h2ZM35,57a3.01,3.01,0,0,1-2,2.82V44h2Zm4-5H37V43a1,1,0,0,0-1-1H28a1,1,0,0,0-1,1v9H25V20.28l2.86-4.77A1,1,0,0,0,28,15V11.29l4-6.4,4,6.4V15a1,1,0,0,0,.14.51L39,20.28Zm10,2.39v1.99l-8-4V45.59ZM60,43H58v-.55l2,.38Zm0-2.21L41,37.17V23.94L60,37.51Zm0-5.73-2-1.43V32a.949.949,0,0,1,.31-.71A.928.928,0,0,1,59,31a1,1,0,0,1,1,1Z"/><path d="M37,23a2.987,2.987,0,0,0-5-2.22A2.987,2.987,0,0,0,27,23V37a1,1,0,0,0,1,1h8a1,1,0,0,0,1-1Zm-8,0a1,1,0,0,1,2,0V36H29Zm6,13H33V23a1,1,0,0,1,2,0Z"/></g></svg>