<svg xmlns="http://www.w3.org/2000/svg" viewBox="0 0 64 64"><g id="plane-airplane-flight-fly-travel-5" data-name="plane-airplane-flight-fly-travel"><path d="M34.389,49.744,32,55l-2.389-5.256A29.12,29.12,0,0,1,27,37.691V19.929A40,40,0,0,1,29.33,6.475l.787-2.2a2,2,0,0,1,3.766,0l.787,2.2A40,40,0,0,1,37,19.929V37.691A29.12,29.12,0,0,1,34.389,49.744Z" style="fill:#e0e0e2"/><polygon points="44 58 32 55 32 46 45 55 44 58" style="fill:#3d9ae2"/><polygon points="20 58 32 55 32 46 19 55 20 58" style="fill:#3d9ae2"/><path d="M21,20v3H15V20a1,1,0,0,1,1-1h4A1,1,0,0,1,21,20Z" style="fill:#c6c5ca"/><path d="M21,33v3a1,1,0,0,1-1,1H16a1,1,0,0,1-1-1V33Z" style="fill:#c6c5ca"/><rect x="37" y="23" width="6" height="10" style="fill:#3d9ae2"/><rect x="21" y="23" width="6" height="10" style="fill:#3d9ae2"/><polygon points="61 29 61 33 49 33 49 23 50 23 61 29" style="fill:#3d9ae2"/><polygon points="15 23 15 33 3 33 3 29 14 23 15 23" style="fill:#3d9ae2"/><rect x="15" y="23" width="6" height="10" style="fill:#1e81ce"/><rect x="43" y="23" width="6" height="10" style="fill:#1e81ce"/><path d="M49,20v3H43V20a1,1,0,0,1,1-1h4A1,1,0,0,1,49,20Z" style="fill:#c6c5ca"/><path d="M49,33v3a1,1,0,0,1-1,1H44a1,1,0,0,1-1-1V33Z" style="fill:#c6c5ca"/><path d="M33.15,18.4l-.18.72a1,1,0,0,1-1.94,0l-.18-.72a13.972,13.972,0,0,1,0-6.8l.18-.72a1,1,0,0,1,1.94,0l.18.72A13.972,13.972,0,0,1,33.15,18.4Z" style="fill:#c6c5ca"/><path d="M33.33,55.33a13.675,13.675,0,0,1-.3,1.55L32,61l-1.03-4.12a13.675,13.675,0,0,1-.3-1.55,15.857,15.857,0,0,1,.3-6.21l.73-2.91L32,45l.3,1.21.73,2.91A15.857,15.857,0,0,1,33.33,55.33Z" style="fill:#1e81ce"/><rect x="37" y="23" width="2" height="10" style="fill:#1e81ce"/><rect x="25" y="23" width="2" height="10" style="fill:#1e81ce"/><path d="M61.48,28.12l-11-6A1,1,0,0,0,50,22V20a2.006,2.006,0,0,0-2-2H44a2.006,2.006,0,0,0-2,2v2H38V19.93A40.787,40.787,0,0,0,35.61,6.14l-.79-2.21a2.993,2.993,0,0,0-5.64,0l-.79,2.21A40.787,40.787,0,0,0,26,19.93V22H22V20a2.006,2.006,0,0,0-2-2H16a2.006,2.006,0,0,0-2,2v2a1,1,0,0,0-.48.12l-11,6A1.006,1.006,0,0,0,2,29v4a1,1,0,0,0,1,1H14v2a2.006,2.006,0,0,0,2,2h4a2.006,2.006,0,0,0,2-2V34h4v3.69a30.211,30.211,0,0,0,1.73,10.05l-9.3,6.44a1.006,1.006,0,0,0-.38,1.14l1,3A1.01,1.01,0,0,0,20,59a.986.986,0,0,0,.24-.03l9.64-2.41c.04.19.07.38.12.56l1.03,4.12a1,1,0,0,0,1.94,0L34,57.12c.05-.18.08-.37.12-.56l9.64,2.41A.986.986,0,0,0,44,59a1.01,1.01,0,0,0,.95-.68l1-3a1.006,1.006,0,0,0-.38-1.14l-9.3-6.44A30.211,30.211,0,0,0,38,37.69V34h4v2a2.006,2.006,0,0,0,2,2h4a2.006,2.006,0,0,0,2-2V34H61a1,1,0,0,0,1-1V29A1.006,1.006,0,0,0,61.48,28.12ZM14,32H4V29.59l10-5.45Zm6,4H16V34h4Zm0-4H16V24h4Zm0-10H16V20h4Zm6,10H22V24h4Zm4,16.88a17.047,17.047,0,0,0-.43,5.69L20.66,56.8l-.47-1.4,9.89-6.85Zm2.06,7.76-.06.24-.06-.24a15.193,15.193,0,0,1,0-7.28l.06-.24.06.24A15.193,15.193,0,0,1,32.06,56.64Zm.91-11.88a1,1,0,0,0-1.94,0l-.21.84-1.38.96A27.885,27.885,0,0,1,28,37.69V19.93A38.8,38.8,0,0,1,30.27,6.82l.79-2.22a1,1,0,0,1,1.88.01l.79,2.21A38.8,38.8,0,0,1,36,19.93V37.69a28.111,28.111,0,0,1-1.43,8.87l-1.39-.96ZM43.81,55.4l-.47,1.4-8.91-2.23A17.047,17.047,0,0,0,34,48.88l-.08-.33ZM42,32H38V24h4Zm6,4H44V34h4Zm0-4H44V24h4Zm0-10H44V20h4ZM60,32H50V24.14l10,5.45Z"/><path d="M33.94,10.639a2,2,0,0,0-3.88,0l-.182.724a15.081,15.081,0,0,0,0,7.277l.182.722a2,2,0,0,0,3.88,0l.181-.724a15.056,15.056,0,0,0,0-7.277Zm-1.759,7.513-.176.741L32,18.877h0l-.181-.723a13.034,13.034,0,0,1,0-6.3L32,11.124l.181.723A13.058,13.058,0,0,1,32.181,18.152Z"/></g></svg>