<svg xmlns="http://www.w3.org/2000/svg" viewBox="0 0 64 64"><g id="plane-airplane-flight-fly-fighter-4" data-name="plane-airplane-flight-fly-fighter"><polygon points="42 28 42 55 22 55 22 28 27 23 37 23 42 28" style="fill:#5aaae7"/><path d="M37,14.72V23L34,40H30L27,23V14.72a19.955,19.955,0,0,1,2.11-8.94l1.1-2.2a2,2,0,0,1,3.58,0l1.1,2.2A19.955,19.955,0,0,1,37,14.72Z" style="fill:#3d9ae2"/><polygon points="22 28 22 44 3 44 3 41 20 29.37 22 28" style="fill:#3d9ae2"/><rect x="3" y="44" width="19" height="4" style="fill:#1e81ce"/><polygon points="22 55 22 61 12 60 12 56 22 51 22 55" style="fill:#3d9ae2"/><polygon points="52 56 52 60 42 61 42 55 42 51 52 56" style="fill:#3d9ae2"/><rect x="42" y="44" width="19" height="4" style="fill:#1e81ce"/><polygon points="61 41 61 44 42 44 42 28 44 29.37 61 41" style="fill:#3d9ae2"/><rect x="34" y="58" width="4" height="3" style="fill:#3d9ae2"/><path d="M37.92,55c.05.95.08,1.96.08,3H34c0-1.04.03-2.05.08-3,.23-4.62,1.01-8,1.92-8S37.69,50.38,37.92,55Z" style="fill:#1e81ce"/><path d="M29.92,55c.05.95.08,1.96.08,3H26c0-1.04.03-2.05.08-3,.23-4.62,1.01-8,1.92-8S29.69,50.38,29.92,55Z" style="fill:#1e81ce"/><path d="M34,18v6a2,2,0,0,1-4,0V18Z" style="fill:#78b9eb"/><path d="M34,12v6H30V12a2.015,2.015,0,0,1,2-2A2.006,2.006,0,0,1,34,12Z" style="fill:#78b9eb"/><rect x="26" y="58" width="4" height="3" style="fill:#3d9ae2"/><polygon points="44 29.37 44 44 42 44 42 28 44 29.37" style="fill:#1e81ce"/><polygon points="22 28 22 44 20 44 20 29.37 22 28" style="fill:#1e81ce"/><rect x="42" y="44" width="2" height="4" style="fill:#1a6fb0"/><rect x="20" y="44" width="2" height="4" style="fill:#1a6fb0"/><path d="M61.56,40.17,42.64,27.23,38,22.59V14.72a21.053,21.053,0,0,0-2.22-9.39l-1.1-2.2a2.993,2.993,0,0,0-5.36,0l-1.1,2.2A21.053,21.053,0,0,0,26,14.72v7.87l-4.64,4.64L2.44,40.17A1,1,0,0,0,2,41v7a1,1,0,0,0,1,1H21v1.38l-9.45,4.73A.988.988,0,0,0,11,56v4a1.015,1.015,0,0,0,.9,1l10,1H22a.971.971,0,0,0,.67-.26A1,1,0,0,0,23,61V56h2.03c-.02.75-.03,1.44-.03,2v3a1,1,0,0,0,1,1h4a1,1,0,0,0,1-1V58c0-.71-.01-1.37-.03-2h2.06c-.02.75-.03,1.44-.03,2v3a1,1,0,0,0,1,1h4a1,1,0,0,0,1-1V58c0-.71-.01-1.37-.03-2H41v5a1,1,0,0,0,.33.74A.971.971,0,0,0,42,62h.1l10-1a1.015,1.015,0,0,0,.9-1V56a.988.988,0,0,0-.55-.89L43,50.38V49H61a1,1,0,0,0,1-1V41A1,1,0,0,0,61.56,40.17ZM21,59.89l-8-.8V56.62l8-4ZM21,47H4V45H21Zm0-4H4V41.53L21,29.9Zm7-28.28a19.028,19.028,0,0,1,2-8.49l1.1-2.2a1.034,1.034,0,0,1,1.8,0L34,6.23a19.028,19.028,0,0,1,2,8.49v8.19L33.16,39H30.84L28,22.91ZM29,60H27V59h2Zm-1.99-3A31.29,31.29,0,0,1,28,48.61,31.29,31.29,0,0,1,28.99,57ZM37,60H35V59h2Zm-1.99-3A31.29,31.29,0,0,1,36,48.61,31.29,31.29,0,0,1,36.99,57ZM41,54H38.88c-.45-7.12-2.1-8-2.88-8-1.93,0-2.63,4.25-2.87,8H30.88c-.45-7.12-2.1-8-2.88-8-1.93,0-2.63,4.25-2.87,8H23V28.41l3.35-3.35,2.67,15.11A.989.989,0,0,0,30,41h4a.989.989,0,0,0,.98-.83l2.67-15.11L41,28.41Zm10,2.62v2.47l-8,.8V52.62ZM60,47H43V45H60Zm0-4H43V29.9L60,41.53Z"/><path d="M32,27a3,3,0,0,0,3-3V12a3,3,0,0,0-6,0V24A3,3,0,0,0,32,27Zm0-2a1,1,0,0,1-1-1V19h2v5A1,1,0,0,1,32,25Zm0-14a1,1,0,0,1,1,1v5H31V12A1,1,0,0,1,32,11Z"/></g></svg>