<svg xmlns="http://www.w3.org/2000/svg" viewBox="0 0 64 64"><g id="plane-airplane-flight-fly-fighter"><polygon points="42 46 42 51.44 22 51.44 22 46 22 42 22 28 27 23 37 23 42 28 42 42 42 46" style="fill:#5aaae7"/><path d="M37,14.72V23L34,40H30L27,23V14.72a19.955,19.955,0,0,1,2.11-8.94l1.1-2.2a2,2,0,0,1,3.58,0l1.1,2.2A19.955,19.955,0,0,1,37,14.72Z" style="fill:#3d9ae2"/><polygon points="61 44 61 48 44 46.21 42 46 42 42 44 42.21 61 44" style="fill:#1e81ce"/><polygon points="61 41 61 44 44 42.21 42 42 42 28 44 29.37 61 41" style="fill:#3d9ae2"/><polygon points="50 61 32 57 32 47 50 55 50 61" style="fill:#3d9ae2"/><polygon points="14 61 32 57 32 47 14 55 14 61" style="fill:#3d9ae2"/><path d="M36,57H28a33.992,33.992,0,0,1,1.02-8.68C29.75,45.67,30.82,44,32,44s2.25,1.67,2.98,4.32A33.992,33.992,0,0,1,36,57Z" style="fill:#1e81ce"/><polygon points="36 57.89 36 61 28 61 28 57.89 28 57 36 57 36 57.89" style="fill:#3d9ae2"/><polygon points="22 42 22 46 20 46.21 3 48 3 44 20 42.21 22 42" style="fill:#1e81ce"/><polygon points="22 28 22 42 20 42.21 3 44 3 41 20 29.37 22 28" style="fill:#3d9ae2"/><path d="M34,12v6H30V12a2.015,2.015,0,0,1,2-2A2.006,2.006,0,0,1,34,12Z" style="fill:#78b9eb"/><path d="M34,18v6a2,2,0,0,1-4,0V18Z" style="fill:#78b9eb"/><polygon points="44 29.37 44 42.21 42 42 42 28 44 29.37" style="fill:#1e81ce"/><polygon points="22 28 22 42 20 42.21 20 29.37 22 28" style="fill:#1e81ce"/><polygon points="44 42.21 44 46.21 42 46 42 42 44 42.21" style="fill:#1a6fb0"/><polygon points="22 42 22 46 20 46.21 20 42.21 22 42" style="fill:#1a6fb0"/><path d="M61.56,40.17,42.64,27.23,38,22.59V14.72a21.053,21.053,0,0,0-2.22-9.39l-1.1-2.2a2.993,2.993,0,0,0-5.36,0l-1.1,2.2A21.053,21.053,0,0,0,26,14.72v7.87l-4.64,4.64L2.44,40.17A1,1,0,0,0,2,41v7a1,1,0,0,0,.33.74A.989.989,0,0,0,3,49a.308.308,0,0,0,.1-.01L21,47.11v3.68l-7.41,3.3A.987.987,0,0,0,13,55v6a.994.994,0,0,0,1,1,1.8,1.8,0,0,0,.22-.02L27,59.14V61a1,1,0,0,0,1,1h8a1,1,0,0,0,1-1V59.14l12.78,2.84A1.8,1.8,0,0,0,50,62a.994.994,0,0,0,1-1V55a.987.987,0,0,0-.59-.91L43,50.79V47.11l17.9,1.88A.308.308,0,0,0,61,49a.989.989,0,0,0,.67-.26A1,1,0,0,0,62,48V41A1,1,0,0,0,61.56,40.17ZM28,14.72a19.028,19.028,0,0,1,2-8.49l1.1-2.2a1.034,1.034,0,0,1,1.8,0L34,6.23a19.028,19.028,0,0,1,2,8.49v8.19L33.16,39H30.84L28,22.91ZM4,41.53,21,29.9V41.1L4,42.89Zm0,5.36V44.9l17-1.79V45.1ZM27,57v.09L15,59.75v-4.1l12.62-5.61A37.624,37.624,0,0,0,27,57Zm8,3H29V58h6Zm-5.98-4c.16-6.85,1.97-11,2.98-11s2.82,4.15,2.98,11Zm6.77-8.42C34.95,44.85,33.68,43,32,43s-2.95,1.85-3.79,4.58L23,49.9V28.41l3.35-3.35,2.67,15.11A.989.989,0,0,0,30,41h4a.989.989,0,0,0,.98-.83l2.67-15.11L41,28.41V49.9ZM49,55.65v4.1L37,57.09V57a37.624,37.624,0,0,0-.62-6.96Zm11-8.76L43,45.1V43.11L60,44.9Zm0-4L43,41.1V29.9L60,41.53Z"/><path d="M32,27a3,3,0,0,0,3-3V12a3,3,0,0,0-6,0V24A3,3,0,0,0,32,27Zm0-2a1,1,0,0,1-1-1V19h2v5A1,1,0,0,1,32,25Zm0-14a1,1,0,0,1,1,1v5H31V12A1,1,0,0,1,32,11Z"/></g></svg>