<svg xmlns="http://www.w3.org/2000/svg" viewBox="0 0 64 64"><g id="plane-airplane-flight-fly-travel-20" data-name="plane-airplane-flight-fly-travel"><path d="M48,18v6.04l-4-1.21V18a1,1,0,0,1,1-1h2A1,1,0,0,1,48,18Z" style="fill:#c6c5ca"/><path d="M56,21v5.48l-4-1.22V21a1,1,0,0,1,1-1h2A1,1,0,0,1,56,21Z" style="fill:#c6c5ca"/><path d="M20,18v4.83l-4,1.21V18a1,1,0,0,1,1-1h2A1,1,0,0,1,20,18Z" style="fill:#c6c5ca"/><path d="M12,21v4.26L8,26.48V21a1,1,0,0,1,1-1h2A1,1,0,0,1,12,21Z" style="fill:#c6c5ca"/><path d="M38,11.49V42.46a15.038,15.038,0,0,1-2.52,8.32L32,56l-3.48-5.22A15.038,15.038,0,0,1,26,42.46V11.49a10.774,10.774,0,0,1,3.17-7.66,4.008,4.008,0,0,1,5.66,0A10.822,10.822,0,0,1,38,11.49Z" style="fill:#e0e0e2"/><path d="M46,56.15v2.67a1,1,0,0,1-1.16.99L36,58.33,34,58V48l2,1.17.31.18,8.7,5.07A2.015,2.015,0,0,1,46,56.15Z" style="fill:#3d9ae2"/><path d="M30,48V58l-2,.33-8.84,1.48A1,1,0,0,1,18,58.82V56.15a2.015,2.015,0,0,1,.99-1.73l8.7-5.07.31-.18Z" style="fill:#3d9ae2"/><path d="M34,58v1a2,2,0,0,1-4,0V47a2.006,2.006,0,0,1,2-2,2.015,2.015,0,0,1,2,2V58Z" style="fill:#3d9ae2"/><path d="M61,29.22V34l-7-.91-4-.52-4-.53-4-.52-2-.26L38,31V20l6,1.83,4,1.21,4,1.22,4,1.22,2.87.87A3,3,0,0,1,61,29.22Z" style="fill:#3d9ae2"/><path d="M26,20V31l-2,.26-2,.26-4,.52-4,.53-4,.52L3,34V29.22a3,3,0,0,1,2.13-2.87L8,25.48l4-1.22,4-1.22,4-1.21Z" style="fill:#3d9ae2"/><polygon points="36 49.17 36 58.33 34 58 34 48 36 49.17" style="fill:#1e81ce"/><polygon points="30 48 30 58 28 58.33 28 49.17 30 48" style="fill:#1e81ce"/><polygon points="40 20.61 40 31.26 38 31 38 20 40 20.61" style="fill:#1e81ce"/><polygon points="26 20 26 31 24 31.26 24 20.61 26 20" style="fill:#1e81ce"/><path d="M59.16,25.4,57,24.74V21a2.006,2.006,0,0,0-2-2H53a2.006,2.006,0,0,0-2,2v1.91l-2-.61V18a2.006,2.006,0,0,0-2-2H45a2.006,2.006,0,0,0-2,2v2.48l-4-1.22V11.49a11.787,11.787,0,0,0-3.46-8.37,5.016,5.016,0,0,0-7.08,0A11.963,11.963,0,0,0,25.9,6.96a11.626,11.626,0,0,0-.9,4.53v7.77l-4,1.22V18a2.006,2.006,0,0,0-2-2H17a2.006,2.006,0,0,0-2,2v4.3l-2,.61V21a2.006,2.006,0,0,0-2-2H9a2.006,2.006,0,0,0-2,2v3.74l-2.16.66A3.966,3.966,0,0,0,2,29.22V34a.981.981,0,0,0,.34.75A1,1,0,0,0,3,35a.57.57,0,0,0,.13-.01L9,34.23V35h2V33.97l2-.27V35h2V33.44l2-.26V35h2V32.92l2-.26V35h2V32.4l2-.26V42.46a15.9,15.9,0,0,0,1.39,6.49l-7.9,4.61A3,3,0,0,0,17,56.15v2.67a2,2,0,0,0,2,2,1.841,1.841,0,0,0,.33-.03l9.69-1.61a2.985,2.985,0,0,0,5.96,0l9.69,1.61a1.841,1.841,0,0,0,.33.03,2,2,0,0,0,2-2V56.15a3,3,0,0,0-1.49-2.59l-7.9-4.61A15.9,15.9,0,0,0,39,42.46V32.14l2,.26V35h2V32.66l2,.26V35h2V33.18l2,.26V35h2V33.7l2,.27V35h2v-.77l5.87.76A.57.57,0,0,0,61,35a1,1,0,0,0,.66-.25A.981.981,0,0,0,62,34V29.22A3.966,3.966,0,0,0,59.16,25.4ZM17,18h2v3.09l-2,.6ZM9,21h2v2.52l-2,.61Zm16,9.12L4,32.86V29.22a1.992,1.992,0,0,1,1.42-1.91L25,21.35Zm4,27.03L19,58.82V56.15a.976.976,0,0,1,.5-.86L29,49.74ZM33,59a1,1,0,0,1-2,0V47a1,1,0,0,1,2,0ZM32,44a3.009,3.009,0,0,0-3,3v.43l-.85.49A13.85,13.85,0,0,1,27,42.46V11.49a9.693,9.693,0,0,1,2.88-6.95,3,3,0,0,1,4.24,0A9.732,9.732,0,0,1,37,11.49V42.46a13.85,13.85,0,0,1-1.15,5.46L35,47.43V47A3.009,3.009,0,0,0,32,44ZM44.5,55.29a.976.976,0,0,1,.5.86v2.67L35,57.15V49.74ZM53,21h2v3.13l-2-.61Zm-8-3h2v3.69l-2-.6ZM60,32.86,39,30.12V21.35l19.58,5.96A1.992,1.992,0,0,1,60,29.22Z"/><path d="M31.981,7.019A4.5,4.5,0,0,0,29.263,8.4L30.7,9.789a2.6,2.6,0,0,1,1.32-.77h.007a2.445,2.445,0,0,1,1.261.756L34.75,8.41A4.192,4.192,0,0,0,31.981,7.019Z"/><rect x="28" y="18" width="2" height="2"/><rect x="28" y="22" width="2" height="2"/><rect x="28" y="26" width="2" height="2"/><rect x="28" y="30" width="2" height="2"/><rect x="28" y="34" width="2" height="2"/><rect x="28" y="38" width="2" height="2"/><rect x="34" y="34" width="2" height="2"/><rect x="34" y="38" width="2" height="2"/><rect x="34" y="18" width="2" height="2"/><rect x="28" y="14" width="2" height="2"/><rect x="34" y="14" width="2" height="2"/><rect x="34" y="22" width="2" height="2"/><rect x="34" y="26" width="2" height="2"/><rect x="34" y="30" width="2" height="2"/></g></svg>