<svg xmlns="http://www.w3.org/2000/svg" viewBox="0 0 64 64"><g id="plane-airplane-flight-fly-travel-17" data-name="plane-airplane-flight-fly-travel"><path d="M51,25v5.78l-4-2.09V25a1,1,0,0,1,1-1h2A1,1,0,0,1,51,25Z" style="fill:#c6c5ca"/><path d="M17,25v3.69l-4,2.09V25a1,1,0,0,1,1-1h2A1,1,0,0,1,17,25Z" style="fill:#c6c5ca"/><path d="M61,36.21v2.55a1,1,0,0,1-1.21.98L40,35.44,38,35V23l2,1.04,7,3.65,4,2.09,8.93,4.66A1.992,1.992,0,0,1,61,36.21Z" style="fill:#3d9ae2"/><path d="M26,23V35l-2,.44L4.21,39.74A1,1,0,0,1,3,38.76V36.21a1.992,1.992,0,0,1,1.07-1.77L13,29.78l4-2.09,7-3.65Z" style="fill:#3d9ae2"/><rect x="26" y="3" width="12" height="56" rx="6" style="fill:#e0e0e2"/><path d="M30,53a28.368,28.368,0,0,0,.18,3.31l-1.9.73-.52.2L18,61V56l8-5.71,2.33-1.67,2.37-1.69A22.986,22.986,0,0,0,30,53Z" style="fill:#3d9ae2"/><path d="M46,56v5l-9.76-3.76-.52-.2-1.9-.73A28.368,28.368,0,0,0,34,53a22.986,22.986,0,0,0-.7-6.07l2.37,1.69L38,50.29Z" style="fill:#3d9ae2"/><path d="M33.3,46.93A22.986,22.986,0,0,1,34,53a28.368,28.368,0,0,1-.18,3.31,16.49,16.49,0,0,1-.46,2.53C33.01,60.18,32.53,61,32,61s-1.01-.82-1.36-2.16a16.49,16.49,0,0,1-.46-2.53A28.368,28.368,0,0,1,30,53a22.986,22.986,0,0,1,.7-6.07c.35-1.2.8-1.93,1.3-1.93S32.95,45.73,33.3,46.93Z" style="fill:#3d9ae2"/><path d="M36,53a28.368,28.368,0,0,1-.18,3.31c-.03.25-.06.49-.1.73l-1.9-.73A28.368,28.368,0,0,0,34,53a22.986,22.986,0,0,0-.7-6.07l2.37,1.69A27.149,27.149,0,0,1,36,53Z" style="fill:#1e81ce"/><path d="M30,53a28.368,28.368,0,0,0,.18,3.31l-1.9.73c-.04-.24-.07-.48-.1-.73A28.368,28.368,0,0,1,28,53a27.149,27.149,0,0,1,.33-4.38l2.37-1.69A22.986,22.986,0,0,0,30,53Z" style="fill:#1e81ce"/><polygon points="40 24.04 40 35.44 38 35 38 23 40 24.04" style="fill:#1e81ce"/><polygon points="26 23 26 35 24 35.44 24 24.04 26 23" style="fill:#1e81ce"/><path d="M60.39,33.55,52,29.18V25a2.006,2.006,0,0,0-2-2H48a2.006,2.006,0,0,0-2,2v1.05l-7-3.66V9a7.016,7.016,0,0,0-7-7,7.008,7.008,0,0,0-7,7V22.39l-7,3.66V25a2.006,2.006,0,0,0-2-2H14a2.006,2.006,0,0,0-2,2v4.18L3.61,33.55A3,3,0,0,0,2,36.21v2.55a2,2,0,0,0,2,2,2.007,2.007,0,0,0,.42-.05L25,36.24V49.77l-7.58,5.42A1,1,0,0,0,17,56v5a1,1,0,0,0,1,1,.922.922,0,0,0,.36-.07l9.2-3.54a6.919,6.919,0,0,0,2.27,1.25C30.27,60.99,30.95,62,32,62s1.73-1.01,2.17-2.36a6.919,6.919,0,0,0,2.27-1.25l9.2,3.54A.922.922,0,0,0,46,62a1,1,0,0,0,1-1V56a1,1,0,0,0-.42-.81L39,49.77V36.24l20.57,4.47a2.185,2.185,0,0,0,.43.05,1.946,1.946,0,0,0,1.25-.44A1.976,1.976,0,0,0,62,38.76V36.21A3,3,0,0,0,60.39,33.55ZM14,25h2v2.09l-2,1.04ZM4,38.76V36.21a.993.993,0,0,1,.54-.88L25,24.65v9.54ZM29.11,55.65,19,59.54V56.51l10.23-7.3A33.686,33.686,0,0,0,29,53C29,53.46,29.01,54.47,29.11,55.65ZM32,59.73A17.484,17.484,0,0,1,31,53a17.484,17.484,0,0,1,1-6.73A17.484,17.484,0,0,1,33,53,17.484,17.484,0,0,1,32,59.73Zm2.15-13.42C33.71,44.99,33.03,44,32,44s-1.71.99-2.15,2.31L27,48.34V41h2V39H27V37h2V35H27V33h2V31H27V29h2V27H27V25h2V23H27V21h2V19H27V17h2V15H27V13h2V11H27V9A5,5,0,0,1,37,9v2H35v2h2v2H35v2h2v2H35v2h2v2H35v2h2v2H35v2h2v2H35v2h2v2H35v2h2v2H35v2h2v7.34ZM45,56.51v3.03L34.89,55.65c.1-1.18.11-2.19.11-2.65a33.686,33.686,0,0,0-.23-3.79ZM48,25h2v3.13l-2-1.04ZM60,38.76,39,34.19V24.65L59.46,35.33a.993.993,0,0,1,.54.88Z"/><path d="M31.981,6.019A4.505,4.505,0,0,0,29.263,7.4L30.7,8.789a2.589,2.589,0,0,1,1.319-.77,2.409,2.409,0,0,1,1.268.755L34.75,7.409A4.372,4.372,0,0,0,31.981,6.019Z"/></g></svg>