<?xml version="1.0" ?>
<!-- Uploaded to: SVG Repo, www.svgrepo.com, Generator: SVG Repo Mixer Tools -->
<svg fill="#000000" width="800px" height="800px" viewBox="0 0 64 64" xmlns="http://www.w3.org/2000/svg">
<title/>
<g id="Outline">
<path d="M27.71,24.16a1.32,1.32,0,0,0,.89.23,1.1,1.1,0,0,0,.58-.23,1.2,1.2,0,0,0,.37-.55L30,22.12l4.52-.5L35.35,23a1.22,1.22,0,0,0,.47.46,1.14,1.14,0,0,0,.61.1,1.28,1.28,0,0,0,.81-.42,1,1,0,0,0,.28-.82,1.21,1.21,0,0,0-.18-.5l-4.53-7.17a1.4,1.4,0,0,0-.61-.52,1.72,1.72,0,0,0-.81-.11,1.61,1.61,0,0,0-.77.29,1.27,1.27,0,0,0-.47.64l-2.84,8a1.13,1.13,0,0,0-.07.53A1,1,0,0,0,27.71,24.16Zm4-7.33,1.74,3-2.79.31Z"/>
<path d="M21.93,45.31a2.32,2.32,0,0,0,1.13-.85,2.39,2.39,0,0,0-.51-3.22,4,4,0,0,0-2.48-.7h-3.6a1.25,1.25,0,0,0-.89.31,1.23,1.23,0,0,0-.3.89v7.52a1.23,1.23,0,0,0,.3.89,1.25,1.25,0,0,0,.89.31h3.74a4.82,4.82,0,0,0,1.86-.34,2.83,2.83,0,0,0,1.23-.95,2.46,2.46,0,0,0,.42-1.43,2.51,2.51,0,0,0-.46-1.54A2.56,2.56,0,0,0,21.93,45.31ZM17.79,42.5h1.84a1.86,1.86,0,0,1,1.07.24.85.85,0,0,1,.34.76.79.79,0,0,1-.34.71,2,2,0,0,1-1.07.23H17.79ZM21,48.26a1.93,1.93,0,0,1-1.1.24h-2.1V46.39h2.1a1.84,1.84,0,0,1,1.1.25.93.93,0,0,1,.33.81A1,1,0,0,1,21,48.26Z"/>
<path d="M53,32H41.23l1.21-.14A4.92,4.92,0,0,0,45.79,30a5,5,0,0,0,1.07-3.68L45,9.45A5,5,0,0,0,39.45,5L21.56,7a4.92,4.92,0,0,0-3.35,1.84,5,5,0,0,0-1.07,3.68L19,29.44A5,5,0,0,0,20.09,32H11a5,5,0,0,0-5,5V54a5,5,0,0,0,5,5H28a5,5,0,0,0,4-2,5,5,0,0,0,4,2H53a5,5,0,0,0,5-5V37A5,5,0,0,0,53,32ZM32,34a4.69,4.69,0,0,0-.88-.9l2-.23A5.14,5.14,0,0,0,32,34ZM19.77,10.12a3,3,0,0,1,2-1.11L39.67,7,40,7a3,3,0,0,1,3,2.67l1.89,16.89a3,3,0,0,1-2.65,3.32l-17.89,2A3,3,0,0,1,21,29.22L19.13,12.33A3,3,0,0,1,19.77,10.12ZM28,57H11a3,3,0,0,1-3-3V37a3,3,0,0,1,3-3H28a3,3,0,0,1,3,3V54A3,3,0,0,1,28,57Zm28-3a3,3,0,0,1-3,3H36a3,3,0,0,1-3-3V37a3,3,0,0,1,3-3H53a3,3,0,0,1,3,3Z"/>
<path d="M45.32,42.46a3.37,3.37,0,0,1,.9.12,4.65,4.65,0,0,1,.93.42,1.92,1.92,0,0,0,.39.21,1.16,1.16,0,0,0,.38.06.74.74,0,0,0,.6-.3,1.16,1.16,0,0,0,.25-.74,1.06,1.06,0,0,0-.11-.5,1,1,0,0,0-.34-.37,5.34,5.34,0,0,0-3.14-.94,5.25,5.25,0,0,0-2.61.62,4.28,4.28,0,0,0-1.73,1.77,6.24,6.24,0,0,0,0,5.38A4.28,4.28,0,0,0,42.57,50a5.25,5.25,0,0,0,2.61.62,5.34,5.34,0,0,0,3.14-.94,1.06,1.06,0,0,0,.34-.37,1.09,1.09,0,0,0,.11-.5,1.16,1.16,0,0,0-.25-.74.74.74,0,0,0-.6-.3,1,1,0,0,0-.33.05l-.44.22c-.41.18-.75.32-1,.41a2.51,2.51,0,0,1-.82.13,2.26,2.26,0,0,1-1.86-.75,3.59,3.59,0,0,1-.61-2.3,3.55,3.55,0,0,1,.61-2.28A2.26,2.26,0,0,1,45.32,42.46Z"/>
</g>
</svg>