<?xml version="1.0" ?>
<!-- Uploaded to: SVG Repo, www.svgrepo.com, Generator: SVG Repo Mixer Tools -->
<svg fill="#000000" width="800px" height="800px" viewBox="0 0 64 64" xmlns="http://www.w3.org/2000/svg">
<title/>
<g id="Outline">
<path d="M58,54a6,6,0,0,0-6-6H50.46A6,6,0,0,0,46,38h-.54A6,6,0,0,0,41,28h-.54A6,6,0,0,0,36,18H35V14.1a5.5,5.5,0,1,0-6,0V18H28a6,6,0,0,0-4.46,10H23a6,6,0,0,0-4.46,10H18a6,6,0,0,0-4.46,10H12a6,6,0,0,0,0,12H52A6,6,0,0,0,58,54ZM32,6a3.5,3.5,0,1,1-3.5,3.5A3.5,3.5,0,0,1,32,6Zm-1,8.9a5,5,0,0,0,2,0V18H31ZM24,24a4,4,0,0,1,4-4h8a4,4,0,0,1,0,8H28A4,4,0,0,1,24,24ZM19,34a4,4,0,0,1,4-4H41a4,4,0,0,1,0,8H23A4,4,0,0,1,19,34ZM14,44a4,4,0,0,1,4-4H46a4,4,0,0,1,0,8H18A4,4,0,0,1,14,44ZM8,54a4,4,0,0,1,4-4H52a4,4,0,0,1,0,8H12A4,4,0,0,1,8,54Z"/>
</g>
</svg>