<?xml version="1.0" ?>
<!-- Uploaded to: SVG Repo, www.svgrepo.com, Generator: SVG Repo Mixer Tools -->
<svg fill="#000000" width="800px" height="800px" viewBox="0 0 64 64" xmlns="http://www.w3.org/2000/svg">
<title/>
<g id="Outline">
<path d="M47.09,9.65a14,14,0,0,0-11.51,3.5,5,5,0,0,1-3.4,1.35h-.36a5,5,0,0,1-3.4-1.35A14,14,0,1,0,16,37.16V38.5a16,16,0,0,0,16,16l.78,0A16.16,16.16,0,0,0,48,38.13v-1a14,14,0,0,0-.91-27.51ZM46,38.13A14.16,14.16,0,0,1,32.67,52.48,14,14,0,0,1,18,38.5v-13a3,3,0,0,1,3-3h5.6a5.47,5.47,0,0,0-.1,1,5.56,5.56,0,0,0,.1,1H21a1,1,0,0,0-1,1v13a12,12,0,0,0,12,12h.58A12.18,12.18,0,0,0,44,38.13V25.5a1,1,0,0,0-1-1H37.4a5.56,5.56,0,0,0,.1-1,5.47,5.47,0,0,0-.1-1H43a3,3,0,0,1,3,3Zm-24-1a13.92,13.92,0,0,0,6.41-3.32,5.09,5.09,0,0,1,3.41-1.35h.36a5.09,5.09,0,0,1,3.41,1.35A13.92,13.92,0,0,0,42,37.17v1a10.18,10.18,0,0,1-9.51,10.36A10,10,0,0,1,22,38.5Zm20-2.06a11.77,11.77,0,0,1-5.06-2.74,7.07,7.07,0,0,0-4.76-1.87h-.36a7.07,7.07,0,0,0-4.76,1.87A11.9,11.9,0,0,1,22,35.12V26.5h5.4a5.48,5.48,0,0,0,9.2,0H42ZM35.5,23.5A3.5,3.5,0,1,1,32,20,3.5,3.5,0,0,1,35.5,23.5ZM48,35.11V25.5a5,5,0,0,0-5-5H36.6a5.48,5.48,0,0,0-9.2,0H21a5,5,0,0,0-5,5v9.62A12,12,0,1,1,27.07,14.63a7,7,0,0,0,4.75,1.87h.36a7,7,0,0,0,4.75-1.87A12,12,0,1,1,48,35.11Z"/>
</g>
</svg>