<?xml version="1.0" ?>
<!-- Uploaded to: SVG Repo, www.svgrepo.com, Generator: SVG Repo Mixer Tools -->
<svg fill="#000000" width="800px" height="800px" viewBox="0 0 64 64" xmlns="http://www.w3.org/2000/svg">
<title/>
<g id="Outline">
<path d="M48.9,30.65a11,11,0,1,0-18.76-7.42c0,1-1.21,3-2.33,4.39-1.44-2.48-1.84-4.49-1.64-5.48a3.47,3.47,0,0,0-.52-2.62,3.49,3.49,0,0,0-4.85-1,3.46,3.46,0,0,0-1.49,2.23A14.19,14.19,0,0,0,20.68,29a11.64,11.64,0,0,0-5.37,3.06A11.75,11.75,0,0,0,31.93,48.68,11.58,11.58,0,0,0,35,43.16a19.63,19.63,0,0,0,7.51,1.6,3.5,3.5,0,1,0,0-7h0a13,13,0,0,1-6.08-1.65c1.33-1.08,3.34-2.29,4.22-2.26A11,11,0,0,0,48.9,30.65ZM29.33,39.76a5.74,5.74,0,1,1-5.26-5.12s.07,0,.11,0a31.62,31.62,0,0,0,2.45,2.74A30.28,30.28,0,0,0,29.33,39.76Zm1.19,7.51a9.75,9.75,0,1,1-8.91-16.43c.34.61.71,1.22,1.13,1.85a7.74,7.74,0,1,0,8.58,8.5c.63.41,1.24.76,1.85,1.09A9.69,9.69,0,0,1,30.52,47.27Zm12-7.51h0a1.51,1.51,0,0,1,1.06.43,1.51,1.51,0,0,1-1.06,2.57C39.66,42.76,34,41.87,28,36s-7.39-11.71-6.77-14.79a1.47,1.47,0,0,1,.64-.95,1.44,1.44,0,0,1,.82-.25,1.53,1.53,0,0,1,.3,0,1.47,1.47,0,0,1,1,.63,1.51,1.51,0,0,1,.22,1.13c-.49,2.46,1.16,7.29,5.95,12.08C35.32,39,40.13,39.76,42.54,39.76Zm-11-7.34A26.49,26.49,0,0,1,29,29.36c1.25-1.37,3.25-4.29,3.19-6.2a9,9,0,0,1,18-.79,9,9,0,0,1-9.35,9.49c-2-.09-4.86,2-6.1,3.15A22.65,22.65,0,0,1,31.58,32.42Z"/>
</g>
</svg>