<?xml version="1.0" ?>
<!-- Uploaded to: SVG Repo, www.svgrepo.com, Generator: SVG Repo Mixer Tools -->
<svg fill="#000000" width="800px" height="800px" viewBox="0 0 64 64" xmlns="http://www.w3.org/2000/svg">
<title/>
<g id="Outline">
<path d="M55.5,14.07A56.1,56.1,0,0,0,43.15,8.71h0a30.3,30.3,0,0,0-5.85-1.1,1,1,0,0,0-1,.62v0H27.74v0a1,1,0,0,0-1-.62,30.3,30.3,0,0,0-5.85,1.1h0A56.61,56.61,0,0,0,8.5,14.07a1,1,0,0,0-.41,1.2l2.23,6.08a1,1,0,0,0,1.11.65l7.35-1.28L17.46,54.49a1,1,0,0,0,.88,1l7,.87h.12a1,1,0,0,0,.94-.65L32,40.34l5.65,15.41a1,1,0,0,0,1.06.64l6.95-.87a1,1,0,0,0,.88-1L45.22,20.72,52.57,22a1,1,0,0,0,1.11-.65l2.24-6.08A1,1,0,0,0,55.5,14.07ZM35.1,10.24A4.24,4.24,0,0,1,32,12.31a4.29,4.29,0,0,1-3.11-2.07ZM10.25,15.37l1.45-.78,1.48,5.07-1.27.22Zm4.91,4-1.64-5.64a51.68,51.68,0,0,1,7-2.77c.64,3.22-.77,6.58-1.32,7.71Zm9.59,35-5.26-.66,1.33-33.86c.51-1,2.5-5.21,1.59-9.43a26.53,26.53,0,0,1,3.79-.7c.65,1.28,2.29,3.95,4.8,4.53V37.26Zm14.5,0L33,37.26V14.19c2.51-.58,4.15-3.25,4.8-4.53a26.28,26.28,0,0,1,3.79.7c-.91,4.21,1.07,8.41,1.59,9.42L44.5,53.65Zm5.59-35.69c-.54-1.13-2-4.49-1.31-7.71a51.68,51.68,0,0,1,7,2.77l-1.64,5.64Zm7.25,1.26-1.26-.22,1.47-5.07,1.45.78Z"/>
<path d="M35.42,16.63a.87.87,0,0,0,0,1.73.87.87,0,1,0,0-1.73Z"/>
<path d="M35.42,22.78a.87.87,0,1,0,.87.87A.87.87,0,0,0,35.42,22.78Z"/>
</g>
</svg>