<?xml version="1.0" encoding="iso-8859-1"?>
<!-- Uploaded to: SVG Repo, www.svgrepo.com, Generator: SVG Repo Mixer Tools -->
<svg fill="#000000" height="800px" width="800px" version="1.1" id="Layer_1" xmlns="http://www.w3.org/2000/svg" xmlns:xlink="http://www.w3.org/1999/xlink" 
	 viewBox="0 0 512.002 512.002" xml:space="preserve">
<g>
	<g>
		<circle cx="145.481" cy="213.183" r="15.649"/>
	</g>
</g>
<g>
	<g>
		<path d="M467.462,155.297c7.884,1.876,15.052-0.117,20.419-4.41c5.595-4.474,8.803-11.151,8.803-18.315V73.431
			c0-7.162-3.209-13.836-8.801-18.309c-5.517-4.412-12.818-6.146-19.811-4.566c-6.838,1.545-13.102,4.324-18.589,8.068
			c-5.996-7.193-15.019-11.781-25.094-11.781h-57.865L349.282,9.688C346.54,3.78,340.619,0,334.105,0h-49.844
			c-9.24,0-16.731,7.491-16.731,16.731c0,9.24,7.491,16.731,16.731,16.731h39.163l6.209,13.382h-15.229
			c-18.01,0-32.664,14.654-32.664,32.665v20.126l-39.177,0.381l-0.348,0.001c-14.975,0-28.289-9.523-33.134-23.699l-6.204-18.154
			c-2.313-6.77-8.677-11.321-15.832-11.321H31.792c-5.522,0-10.69,2.726-13.808,7.285c-3.119,4.557-3.787,10.362-1.786,15.509
			l36.808,94.666c2.501,6.431,8.693,10.668,15.593,10.668H84.89c-7.007,11.07-11.082,24.171-11.082,38.214
			c0,39.523,32.153,71.676,71.676,71.676c37.563,0,68.448-29.05,71.42-65.86h40.558l16.243,8.655l-39.371,13.754
			c-6.716,2.346-11.213,8.681-11.213,15.795s4.497,13.448,11.213,15.795l30.218,10.557l-30.218,10.556
			c-6.716,2.346-11.213,8.681-11.213,15.795c0,7.114,4.497,13.448,11.213,15.795l30.218,10.557l-30.218,10.556
			c-6.716,2.346-11.213,8.681-11.213,15.795c0,7.114,4.497,13.449,11.213,15.795l30.218,10.557l-30.218,10.556
			c-6.716,2.346-11.213,8.681-11.213,15.795c0,4.389,1.717,8.478,4.605,11.521c-28.535,4.451-50.44,29.192-50.44,58.956
			c0,14.453,11.758,26.212,26.212,26.212h159.289c14.453,0,26.211-11.758,26.211-26.212c0-32.904-26.769-59.673-59.673-59.673
			h-7.921c-0.204-0.08-0.398-0.174-0.606-0.247l-30.218-10.557l30.218-10.556c6.716-2.346,11.213-8.681,11.213-15.795
			c0-7.114-4.497-13.448-11.213-15.795l-30.218-10.557l30.218-10.556c6.716-2.346,11.213-8.681,11.213-15.795
			s-4.497-13.448-11.213-15.795l-30.218-10.557l30.218-10.556c6.716-2.346,11.213-8.681,11.213-15.795
			c0-7.114-4.497-13.449-11.213-15.795l-30.218-10.557l30.218-10.556c6.273-2.191,10.654-7.887,11.164-14.511
			c0.51-6.624-2.95-12.923-8.813-16.048l-22.331-11.9l43.349-37.818h26.891c-10.872,12.57-17.47,28.932-17.47,46.816
			c0,39.522,32.153,71.676,71.676,71.676c39.522,0,71.677-32.154,71.677-71.676C496.941,189.429,485.314,168.346,467.462,155.297z
			 M463.222,91.55v22.906c-2.262-3.3-3.575-7.27-3.575-11.453S460.96,94.85,463.222,91.55z M145.486,251.4
			c-21.072,0-38.214-17.143-38.214-38.214c0-21.071,17.142-38.214,38.214-38.214c21.013,0,38.215,17.101,38.215,38.214
			C183.7,234.256,166.556,251.4,145.486,251.4z M329.328,459.577c11.939,0,22.04,8.023,25.192,18.961H211.77
			c3.152-10.939,13.253-18.961,25.192-18.961H329.328z M337.897,132.908c-4.044,0-7.952,1.465-10.999,4.124l-55.602,48.508h-59.672
			c-11.011-26.271-36.988-44.023-66.132-44.03c-0.002,0-0.004,0-0.007,0c-0.001,0-0.001,0-0.001,0H80.046L56.249,80.305h118.833
			l2.336,6.833c9.471,27.72,35.513,46.342,64.8,46.341l56.415-0.547c9.177-0.089,16.568-7.552,16.568-16.73V80.305h108.391v52.603
			H337.897z M425.265,251.4c-21.072,0-38.214-17.143-38.214-38.214c0-9.132,3.223-17.522,8.586-24.102l14.452,31.144
			c2.832,6.103,8.875,9.693,15.187,9.693c2.357,0,4.753-0.501,7.031-1.558c8.382-3.889,12.024-13.837,8.135-22.218l-14.456-31.154
			c20.739,0.387,37.495,17.367,37.495,38.196C463.479,234.256,446.336,251.4,425.265,251.4z"/>
	</g>
</g>
</svg>