<?xml version="1.0" encoding="iso-8859-1"?>
<!-- Uploaded to: SVG Repo, www.svgrepo.com, Generator: SVG Repo Mixer Tools -->
<svg fill="#000000" height="800px" width="800px" version="1.1" id="Layer_1" xmlns="http://www.w3.org/2000/svg" xmlns:xlink="http://www.w3.org/1999/xlink" 
	 viewBox="0 0 512 512" xml:space="preserve">
<g>
	<g>
		<path d="M486.642,330.174c-7.858-4.605-16.825-7.039-25.932-7.039c-9.178,0-18.204,2.469-26.104,7.141
			c-3.306,1.955-6.643,3.852-10.006,5.693c-0.472-4.839-1.695-9.619-3.686-14.139l-13.178-29.932
			c3.894-24.604,2.477-48.699-4.225-71.918l6.913-12.655c2.344,1.089,4.772,2.034,7.275,2.822c4.576,1.442,9.264,2.172,13.93,2.172
			c2.654,0,5.308-0.24,7.891-0.713c18.203-3.33,32.361-17.163,36.069-35.24c1.72-8.389,4.128-15.346,6.456-22.075
			c4.678-13.518,9.842-28.437,7.128-48.044l11.929-15.24c7.702-9.841,10.055-22.736,6.291-34.494
			c-4.97-15.525-19.249-25.955-35.531-25.955c-1.797,0-3.609,0.131-5.388,0.391l-7.592,1.109
			c-4.064-15.525-17.446-27.007-33.411-28.622c-3.368-0.34-6.808-0.513-10.227-0.513c-37.612,0-69.042,20.079-86.229,55.09
			c-6.152,12.531-13.763,27.064-22.624,43.195c-1.733,3.155-5.105,5.115-8.8,5.115c-0.31,0-0.626-0.014-0.938-0.042
			c-11.718-1.031-23.874-1.554-36.131-1.554c-29.071,0-99.966,3.212-132.693,32.84c-2.027-0.109-4.033-0.164-6.004-0.164
			c-30.875,0-58.584,13.121-80.132,37.942c-7.078,8.153-10.977,18.596-10.981,29.403c-0.003,10.743,3.846,21.149,10.84,29.303
			l31.995,37.297c6.042,7.043,14.159,11.815,23.063,13.725l-14.57,33.092c-1.731,3.932-2.873,8.07-3.455,12.274
			c-0.184-0.108-0.37-0.213-0.553-0.321c-7.982-4.729-17.101-7.229-26.372-7.229c-8.942,0-17.776,2.338-25.547,6.761
			C10.006,338.82,0,356.03,0,374.567c0,16.79,8.185,32.58,21.894,42.256c41.096,29.006,81.599,51.646,120.384,67.291
			c41.063,16.564,79.476,24.961,114.172,24.961c34.979,0,73.386-8.43,114.158-25.056c38.036-15.511,78.255-38.186,119.542-67.398
			c13.263-9.385,21.423-24.673,21.833-40.906c0-0.021,0.001-0.042,0.001-0.06C512.439,357.03,502.728,339.602,486.642,330.174z
			 M260.519,136.572c11.244,0,22.496,0.477,33.34,1.432c0.878,0.077,1.753,0.117,2.625,0.14
			c-0.802,35.998-25.753,64.897-56.449,64.897c-28.159,0-51.571-26.17-55.856-57.981
			C205.777,139.404,233.141,136.572,260.519,136.572z M65.717,213.323c-4.22-4.92-4.23-12.207,0.019-17.101
			c18.272-21.05,38.78-26.975,56.087-26.975c1.496,0,2.969,0.044,4.413,0.127c0.616,0.035,1.231,0.053,1.844,0.053
			c7.706,0,15.18-2.766,20.866-8.025c1.426-1.319,3.056-2.58,4.835-3.794c8.748,44.721,44.275,77.272,86.252,77.272
			c12.519,0,24.625-2.852,35.98-8.478c10.55-5.227,19.947-12.604,27.93-21.927c15.495-18.096,24.163-41.897,24.41-67.019
			c0.02-1.995-0.734-7.398-1.402-11.261c2.858-2.802,5.351-6.029,7.344-9.657c7.064-12.862,15.72-29.058,23.298-44.492
			c15.609-31.796,41.584-37.281,57.647-37.281c2.638,0,5.009,0.148,7.023,0.351c2.73,0.276,5.108,2.205,5.829,5.071
			c0.242,0.959,0.222,1.967,0.041,2.938l-2.958,15.815c3.641,2.406,7.171,5.32,10.492,8.687l35.402-5.171
			c0.264-0.039,0.528-0.057,0.789-0.057c2.31,0,4.454,1.47,5.207,3.82c0.565,1.765,0.104,3.703-1.039,5.162l-21.373,27.307
			c9.669,27.559-3.702,39.313-10.258,71.282c-1.054,5.143-5.119,9.311-10.609,10.315c-0.714,0.13-1.436,0.192-2.159,0.192
			c-1.475,0-2.952-0.256-4.366-0.702c-10.653-3.354-18.394-12.582-19.846-23.656l-1.026-7.829l-34.708,63.537
			c-0.849,1.783-1.761,3.54-2.733,5.27c7.981,20.452,12.603,47.001,5.677,78.616l17.148,38.946
			c3.377,7.668-0.449,16.634-8.352,19.415c-0.086,0.03-0.171,0.061-0.256,0.091c-1.592,0.559-3.226,0.828-4.841,0.828
			c-4.782,0-9.382-2.359-12.109-6.542l-31.356-48.104c-11.794-4.739-25-13.981-37.594-31.232c-11.573,3.05-23.91,4.718-36.73,4.718
			c-18.953,0-36.862-3.618-52.772-10.028c-12.065,22.74-26.84,33.834-39.563,39.135l-28.106,43.12
			c-2.729,4.187-7.331,6.551-12.108,6.551c-1.694,0-3.411-0.298-5.073-0.917c-1.265-0.471-2.528-0.95-3.788-1.436
			c-7.657-2.949-11.25-11.749-7.943-19.258l20.301-46.108c-3.296-12.168-4.68-23.705-4.741-34.438
			c-0.022-3.859-3.132-6.142-6.274-6.142c-2.133,0-4.282,1.051-5.49,3.373c-0.129,0.247-0.256,0.493-0.381,0.736
			c-1.204,2.342-3.193,4.238-5.67,5.133c-1.151,0.416-2.331,0.615-3.492,0.615c-2.947,0-5.775-1.283-7.72-3.55L65.717,213.323z
			 M341.41,368.49c-27.664,6.911-56.196,10.464-84.961,10.464c-31.213,0-62.153-4.176-92.002-12.294
			c0.809-1.036,1.593-2.098,2.319-3.213l23.349-35.822c9.667-5.401,20.607-13.686,30.946-26.371
			c12.772,2.937,25.974,4.419,39.471,4.419c8.249,0,16.456-0.57,24.553-1.699c8.638,8.844,18.001,15.965,28.018,21.31l26.435,40.556
			C340.132,366.751,340.761,367.63,341.41,368.49z M480.153,374.894c-0.153,6.276-3.268,12.109-8.393,15.735
			c-77.655,54.944-152.373,86.607-215.309,86.607c-62.124,0-138.507-31.593-216.195-86.426c-5.264-3.715-8.414-9.781-8.414-16.224
			v-0.018c0-7.131,3.826-13.715,10.024-17.243c3.039-1.73,6.417-2.592,9.795-2.592c3.509,0,7.015,0.929,10.142,2.782
			c59.949,35.517,127.305,53.28,194.649,53.28c67.245,0,134.478-17.701,194.362-53.111c3.052-1.805,6.475-2.708,9.898-2.708
			c3.398,0,6.796,0.89,9.833,2.669c6.095,3.572,9.783,10.17,9.611,17.234L480.153,374.894z"/>
	</g>
</g>
</svg>