<?xml version="1.0" encoding="utf-8"?>
<!-- Generator: Adobe Illustrator 16.0.0, SVG Export Plug-In . SVG Version: 6.00 Build 0)  -->
<!DOCTYPE svg PUBLIC "-//W3C//DTD SVG 1.0//EN" "http://www.w3.org/TR/2001/REC-SVG-20010904/DTD/svg10.dtd">
<svg version="1.0" id="Layer_1" xmlns="http://www.w3.org/2000/svg" xmlns:xlink="http://www.w3.org/1999/xlink" x="0px" y="0px"
	 width="708.66px" height="708.66px" viewBox="0 0 708.66 708.66" enable-background="new 0 0 708.66 708.66" xml:space="preserve">
<g>
	<path fill="none" stroke="#373431" stroke-width="12" stroke-linecap="round" stroke-linejoin="round" stroke-miterlimit="10" d="
		M406.002,420.969c-28.527,28.539-74.816,28.539-103.355,0C331.186,449.508,377.475,449.508,406.002,420.969z"/>
	<path fill="none" stroke="#373431" stroke-width="12" stroke-linecap="round" stroke-linejoin="round" stroke-miterlimit="10" d="
		M292.319,364.914c0-11.426,9.253-20.678,20.667-20.678c11.412,0,20.666,9.252,20.666,20.678c0-11.426-9.254-20.678-20.666-20.678
		C301.572,344.236,292.319,353.488,292.319,364.914z"/>
	<path fill="none" stroke="#373431" stroke-width="12" stroke-linecap="round" stroke-linejoin="round" stroke-miterlimit="10" d="
		M374.997,364.914c0-11.426,9.253-20.678,20.653-20.678c11.438,0,20.68,9.252,20.68,20.678c0-11.426-9.241-20.678-20.68-20.678
		C384.25,344.236,374.997,353.488,374.997,364.914z"/>
	<path fill="none" stroke="#373431" stroke-width="12" stroke-linecap="round" stroke-linejoin="round" stroke-miterlimit="10" d="
		M363.229,271.945c-2.942-0.17-5.896-0.293-8.899-0.293c-55.785,0-102.928,30.689-118.529,72.9
		c-1.794-0.342-3.613-0.561-5.492-0.561c-17.115,0-31.006,13.865-31.006,31.004c0,17.115,13.891,31.006,31.006,31.006
		c1.879,0,3.698-0.244,5.492-0.561c15.602,42.211,62.744,72.898,118.529,72.898c55.762,0,102.917-30.688,118.529-72.898
		c1.783,0.316,3.613,0.561,5.494,0.561c17.102,0,30.992-13.891,30.992-31.006c0-17.139-13.891-31.004-30.992-31.004
		c-1.881,0-3.711,0.219-5.494,0.561c-12.707-34.375-46.313-61.084-88.463-69.824c0.561-4.418,0.939-8.861,0.939-13.428
		c0-17.113-13.879-30.98-31.006-30.98c-15.697,0-28.527,11.693-30.59,26.83c1.928-9.424,10.277-16.504,20.251-16.504
		c11.426,0,20.679,9.254,20.679,20.654C364.67,264.988,364.145,268.552,363.229,271.945z"/>
	<path fill="none" stroke="#373431" stroke-width="12" stroke-linecap="round" stroke-linejoin="round" stroke-miterlimit="10" d="
		M224.693,364.035c-6.067,6.055-6.055,15.869,0,21.924C218.639,379.904,218.626,370.09,224.693,364.035z"/>
	<path fill="none" stroke="#373431" stroke-width="12" stroke-linecap="round" stroke-linejoin="round" stroke-miterlimit="10" d="
		M483.969,385.959c6.055-6.055,6.055-15.869,0-21.924C490.023,370.09,490.023,379.904,483.969,385.959z"/>
	<path fill="none" stroke="#373431" stroke-width="12" stroke-linecap="round" stroke-linejoin="round" stroke-miterlimit="10" d="
		M323.324,302.635c19.141,0,35.205-13.014,39.905-30.689c0.915-3.393,1.44-6.957,1.44-10.645c0-11.4-9.253-20.654-20.679-20.654
		c-9.974,0-18.323,7.08-20.251,16.504c2.063-15.137,14.893-26.83,30.59-26.83c17.127,0,31.006,13.867,31.006,30.98
		c0,4.566-0.379,9.01-0.939,13.428c-1.221,9.742-3.662,19.141-7.3,27.906c3.638-8.766,6.079-18.164,7.3-27.906
		c0.561-4.418,0.939-8.861,0.939-13.428c0-17.113-13.879-30.98-31.006-30.98c-15.697,0-28.527,11.693-30.59,26.83
		c1.928-9.424,10.277-16.504,20.251-16.504c11.426,0,20.679,9.254,20.679,20.654c0,3.688-0.525,7.252-1.44,10.645
		C358.529,289.621,342.465,302.635,323.324,302.635z"/>
	<path fill="none" stroke="#373431" stroke-width="12" stroke-linecap="round" stroke-linejoin="round" stroke-miterlimit="10" d="
		M297.178,317.869c-5.054,2.074-9.607,5.127-13.403,8.91C287.57,322.996,292.124,319.943,297.178,317.869z"/>
	<path fill="none" stroke="#373431" stroke-width="12" stroke-linecap="round" stroke-linejoin="round" stroke-miterlimit="10" d="
		M424.826,326.828c-3.797-3.809-8.338-6.885-13.379-8.959C416.488,319.943,421.029,323.019,424.826,326.828z"/>
	
		<rect x="106.311" y="177.146" fill="none" stroke="#373431" stroke-width="12" stroke-linecap="round" stroke-linejoin="round" stroke-miterlimit="10" width="496.053" height="354.344"/>
	
		<rect x="132.872" y="203.733" fill="none" stroke="#373431" stroke-width="12" stroke-linecap="round" stroke-linejoin="round" stroke-miterlimit="10" width="442.904" height="301.194"/>
	
		<polygon fill="none" stroke="#373431" stroke-width="12" stroke-linecap="round" stroke-linejoin="round" stroke-miterlimit="10" points="
		602.363,332.176 633.356,301.193 602.363,270.187 	"/>
	
		<polygon fill="none" stroke="#373431" stroke-width="12" stroke-linecap="round" stroke-linejoin="round" stroke-miterlimit="10" points="
		509.334,177.146 407.479,75.292 305.625,177.146 	"/>
	
		<polygon fill="none" stroke="#373431" stroke-width="12" stroke-linecap="round" stroke-linejoin="round" stroke-miterlimit="10" points="
		106.311,376.486 75.305,407.492 106.311,438.472 	"/>
	
		<polygon fill="none" stroke="#373431" stroke-width="12" stroke-linecap="round" stroke-linejoin="round" stroke-miterlimit="10" points="
		199.314,531.49 301.182,633.369 403.049,531.49 	"/>
	
		<polygon fill="none" stroke="#373431" stroke-width="12" stroke-linecap="round" stroke-linejoin="round" stroke-miterlimit="10" points="
		549.215,177.146 407.479,35.424 265.757,177.146 	"/>
	
		<polygon fill="none" stroke="#373431" stroke-width="12" stroke-linecap="round" stroke-linejoin="round" stroke-miterlimit="10" points="
		602.363,372.043 673.225,301.17 602.363,230.32 	"/>
	
		<polygon fill="none" stroke="#373431" stroke-width="12" stroke-linecap="round" stroke-linejoin="round" stroke-miterlimit="10" points="
		106.311,336.594 35.437,407.467 106.311,478.34 	"/>
	
		<polygon fill="none" stroke="#373431" stroke-width="12" stroke-linecap="round" stroke-linejoin="round" stroke-miterlimit="10" points="
		159.459,531.49 301.182,673.236 442.916,531.49 	"/>
</g>
</svg>
