<?xml version="1.0" encoding="utf-8"?>
<!-- Generator: Adobe Illustrator 16.0.0, SVG Export Plug-In . SVG Version: 6.00 Build 0)  -->
<!DOCTYPE svg PUBLIC "-//W3C//DTD SVG 1.0//EN" "http://www.w3.org/TR/2001/REC-SVG-20010904/DTD/svg10.dtd">
<svg version="1.0" id="Layer_1" xmlns="http://www.w3.org/2000/svg" xmlns:xlink="http://www.w3.org/1999/xlink" x="0px" y="0px"
	 width="708.66px" height="708.66px" viewBox="0 0 708.66 708.66" enable-background="new 0 0 708.66 708.66" xml:space="preserve">
<g>
	<path fill="none" stroke="#373431" stroke-width="12" stroke-linecap="round" stroke-linejoin="round" stroke-miterlimit="10" d="
		M381.398,611.826c-0.012,0.023-0.035,0.049-0.049,0.072c-34.557,34.545-90.572,34.545-125.117,0
		c-34.545-34.568-34.545-90.573,0-125.119c0.023-0.023,0.049-0.049,0.061-0.072l98.252-98.24v-87.277H531.48v125.167
		c0,19.481-11.266,46.654-25.023,60.423L381.398,611.826z"/>
	<path fill="none" stroke="#373431" stroke-width="12" stroke-linecap="round" stroke-linejoin="round" stroke-miterlimit="10" d="
		M256.232,611.875c23.143,23.144,55.895,30.711,85.398,22.851c7.848-29.491,0.305-62.278-22.84-85.398
		c-23.145-23.144-55.895-30.712-85.398-22.851C225.531,555.968,233.1,588.73,256.232,611.875z"/>
	<path fill="none" stroke="#373431" stroke-width="12" stroke-linecap="round" stroke-linejoin="round" stroke-miterlimit="10" d="
		M460.707,442.762c0,24.779,10.191,47.118,26.574,63.182l19.176-19.165c13.758-13.769,25.023-40.941,25.023-60.423v-70.262
		C491.113,364.298,460.707,399.99,460.707,442.762z"/>
	<path fill="none" stroke="#373431" stroke-width="12" stroke-linecap="round" stroke-linejoin="round" stroke-miterlimit="10" d="
		M354.533,212.617c-9.791,0-17.713,7.934-17.713,17.724v53.124c0,9.789,7.922,17.725,17.713,17.725H531.48
		c9.777,0,17.713-7.936,17.713-17.725v-53.124c0-9.79-7.936-17.724-17.713-17.724H354.533z"/>
	<path fill="none" stroke="#373431" stroke-width="12" stroke-linecap="round" stroke-linejoin="round" stroke-miterlimit="10" d="
		M487.305,212.617l-88.596,88.572L487.305,212.617z"/>
	<path fill="none" stroke="#373431" stroke-width="12" stroke-linecap="round" stroke-linejoin="round" stroke-miterlimit="10" d="
		M451.869,212.617l-88.584,88.572L451.869,212.617z"/>
	<path fill="none" stroke="#373431" stroke-width="12" stroke-linecap="round" stroke-linejoin="round" stroke-miterlimit="10" d="
		M522.74,212.617l-88.596,88.572L522.74,212.617z"/>
	<path fill="none" stroke="#373431" stroke-width="12" stroke-linecap="round" stroke-linejoin="round" stroke-miterlimit="10" d="
		M416.434,212.617l-78.051,78.049L416.434,212.617z"/>
	<path fill="none" stroke="#373431" stroke-width="12" stroke-linecap="round" stroke-linejoin="round" stroke-miterlimit="10" d="
		M336.82,256.804l44.176-44.188L336.82,256.804z"/>
	<path fill="none" stroke="#373431" stroke-width="12" stroke-linecap="round" stroke-linejoin="round" stroke-miterlimit="10" d="
		M547.643,223.138l-78.063,78.051L547.643,223.138z"/>
	<path fill="none" stroke="#373431" stroke-width="12" stroke-linecap="round" stroke-linejoin="round" stroke-miterlimit="10" d="
		M549.193,257.025l-44.176,44.164L549.193,257.025z"/>
	<path fill="none" stroke="#373431" stroke-width="12" stroke-linecap="round" stroke-linejoin="round" stroke-miterlimit="10" d="
		M408.705,414.736c9.779,0,17.725-7.936,17.725-17.725c0-9.766-7.945-17.699-17.725-17.699c-9.777,0-17.711,7.934-17.711,17.699
		C390.994,406.801,398.928,414.736,408.705,414.736z"/>
	<path fill="none" stroke="#373431" stroke-width="12" stroke-linecap="round" stroke-linejoin="round" stroke-miterlimit="10" d="
		M360.795,323.088c-2.209,0-4.309,0.464-6.25,1.196v33.056c1.941,0.732,4.041,1.196,6.25,1.196c9.777,0,17.725-7.935,17.725-17.724
		C378.52,331.021,370.572,323.088,360.795,323.088z"/>
	<path fill="none" stroke="#373431" stroke-width="12" stroke-linecap="round" stroke-linejoin="round" stroke-miterlimit="10" d="
		M313.969,429.042l-24.07,24.048c3.051,5.346,8.74,8.984,15.318,8.984c9.777,0,17.725-7.936,17.725-17.725
		C322.941,437.758,319.305,432.094,313.969,429.042z"/>
	<path fill="none" stroke="#373431" stroke-width="12" stroke-linecap="round" stroke-linejoin="round" stroke-miterlimit="10" d="
		M374.307,457.289c-9.777,0-17.711,7.934-17.711,17.724s7.934,17.724,17.711,17.724s17.713-7.934,17.713-17.724
		S384.084,457.289,374.307,457.289z"/>
	<path fill="none" stroke="#373431" stroke-width="12" stroke-linecap="round" stroke-linejoin="round" stroke-miterlimit="10" d="
		M392.02,555.186c0-9.79-7.936-17.724-17.713-17.724s-17.711,7.934-17.711,17.724s7.934,17.724,17.711,17.724
		S392.02,564.976,392.02,555.186z"/>
	<path fill="none" stroke="#373431" stroke-width="12" stroke-linecap="round" stroke-linejoin="round" stroke-miterlimit="10" d="
		M458.559,358.682c9.777,0,17.725-7.935,17.725-17.724c0-9.766-7.947-17.7-17.725-17.7s-17.713,7.935-17.713,17.7
		C440.846,350.748,448.781,358.682,458.559,358.682z"/>
	<path fill="none" stroke="#373431" stroke-width="12" stroke-linecap="round" stroke-linejoin="round" stroke-miterlimit="10" d="
		M442.994,519.738c-9.777,0-17.711,7.934-17.711,17.725c0,8.275,5.699,15.185,13.354,17.138l21.484-21.483
		C458.168,525.451,451.258,519.738,442.994,519.738z"/>
	<path fill="none" stroke="#373431" stroke-width="12" stroke-linecap="round" stroke-linejoin="round" stroke-miterlimit="10" d="
		M304.094,537.681c4.357-3.223,7.227-8.35,7.227-14.209c0-9.789-7.947-17.724-17.725-17.724s-17.711,7.935-17.711,17.724
		c0,0.807,0.135,1.588,0.232,2.344C285.93,528.062,295.367,532.066,304.094,537.681z"/>
	<path fill="none" stroke="#373431" stroke-width="12" stroke-linecap="round" stroke-linejoin="round" stroke-miterlimit="10" d="
		M460.914,446.912c-2.648-1.611-5.725-2.563-9.045-2.563c-9.777,0-17.713,7.934-17.713,17.725c0,9.789,7.936,17.724,17.713,17.724
		c5.799,0,10.9-2.832,14.135-7.153C463.086,464.563,461.342,455.922,460.914,446.912z"/>
	<path fill="none" stroke="#373431" stroke-width="12" stroke-linecap="round" stroke-linejoin="round" stroke-miterlimit="10" d="
		M283.672,70.873c-9.789,0-17.711,7.934-17.711,17.724v53.147c0,9.791,7.922,17.725,17.711,17.725h176.938
		c9.777,0,17.711-7.934,17.711-17.725V88.596c0-9.79-7.934-17.7-17.711-17.7L283.672,70.873z"/>
	<path fill="none" stroke="#373431" stroke-width="12" stroke-linecap="round" stroke-linejoin="round" stroke-miterlimit="10" d="
		M416.434,70.873l-88.586,88.596L416.434,70.873z"/>
	<path fill="none" stroke="#373431" stroke-width="12" stroke-linecap="round" stroke-linejoin="round" stroke-miterlimit="10" d="
		M381.008,70.873l-88.584,88.596L381.008,70.873z"/>
	<path fill="none" stroke="#373431" stroke-width="12" stroke-linecap="round" stroke-linejoin="round" stroke-miterlimit="10" d="
		M451.869,70.873l-88.584,88.596L451.869,70.873z"/>
	<path fill="none" stroke="#373431" stroke-width="12" stroke-linecap="round" stroke-linejoin="round" stroke-miterlimit="10" d="
		M345.572,70.873l-78.063,78.074L345.572,70.873z"/>
	<path fill="none" stroke="#373431" stroke-width="12" stroke-linecap="round" stroke-linejoin="round" stroke-miterlimit="10" d="
		M265.961,115.06l44.176-44.188L265.961,115.06z"/>
	<path fill="none" stroke="#373431" stroke-width="12" stroke-linecap="round" stroke-linejoin="round" stroke-miterlimit="10" d="
		M476.771,81.419l-78.063,78.05L476.771,81.419z"/>
	<path fill="none" stroke="#373431" stroke-width="12" stroke-linecap="round" stroke-linejoin="round" stroke-miterlimit="10" d="
		M478.32,115.304l-44.176,44.164L478.32,115.304z"/>
	<path fill="none" stroke="#373431" stroke-width="12" stroke-linecap="round" stroke-linejoin="round" stroke-miterlimit="10" d="
		M289.934,181.367c-2.209,0-4.309,0.439-6.25,1.197v33.031c1.941,0.756,4.041,1.195,6.25,1.195c9.779,0,17.725-7.934,17.725-17.724
		C307.658,189.302,299.713,181.367,289.934,181.367z"/>
	<path fill="none" stroke="#373431" stroke-width="12" stroke-linecap="round" stroke-linejoin="round" stroke-miterlimit="10" d="
		M243.109,287.298l-24.072,24.071c3.053,5.347,8.729,8.984,15.32,8.984c9.777,0,17.725-7.935,17.725-17.725
		C252.082,296.037,248.443,290.349,243.109,287.298z"/>
	<path fill="none" stroke="#373431" stroke-width="12" stroke-linecap="round" stroke-linejoin="round" stroke-miterlimit="10" d="
		M303.447,315.544c-9.777,0-17.713,7.935-17.713,17.724c0,9.791,7.936,17.725,17.713,17.725s17.713-7.934,17.713-17.725
		C321.16,323.478,313.225,315.544,303.447,315.544z"/>
	<path fill="none" stroke="#373431" stroke-width="12" stroke-linecap="round" stroke-linejoin="round" stroke-miterlimit="10" d="
		M321.16,413.467c0-9.79-7.936-17.725-17.713-17.725s-17.713,7.935-17.713,17.725c0,9.789,7.936,17.724,17.713,17.724
		S321.16,423.256,321.16,413.467z"/>
	<path fill="none" stroke="#373431" stroke-width="12" stroke-linecap="round" stroke-linejoin="round" stroke-miterlimit="10" d="
		M233.223,395.962c4.357-3.223,7.227-8.374,7.227-14.208c0-9.791-7.947-17.725-17.725-17.725s-17.713,7.934-17.713,17.725
		c0,0.805,0.135,1.563,0.244,2.344C215.059,386.343,224.494,390.322,233.223,395.962z"/>
	<path fill="none" stroke="#373431" stroke-width="12" stroke-linecap="round" stroke-linejoin="round" stroke-miterlimit="10" d="
		M336.82,272.918v-35.229c-9.289,0.537-16.686,8.179-16.686,17.602C320.135,264.715,327.531,272.356,336.82,272.918z"/>
	<path fill="none" stroke="#373431" stroke-width="12" stroke-linecap="round" stroke-linejoin="round" stroke-miterlimit="10" d="
		M376.199,212.617h22.986c3.783-3.247,6.225-8.008,6.225-13.379c0-9.789-7.947-17.725-17.713-17.725
		c-9.777,0-17.711,7.936-17.711,17.725C369.986,204.609,372.428,209.37,376.199,212.617z"/>
	<path fill="none" stroke="#373431" stroke-width="12" stroke-linecap="round" stroke-linejoin="round" stroke-miterlimit="10" d="
		M248.322,495.984c2.416-3.174,5.004-6.299,7.91-9.205c0.023-0.023,0.049-0.049,0.061-0.072l17.406-17.407
		c-0.195-22.362-8.715-44.651-25.781-61.718c-23.143-23.143-55.895-30.688-85.396-22.826c-7.85,29.492-0.293,62.254,22.838,85.398
		C202.754,487.537,225.557,496.131,248.322,495.984z"/>
	<path fill="none" stroke="#373431" stroke-width="12" stroke-linecap="round" stroke-linejoin="round" stroke-miterlimit="10" d="
		M248.285,496.056c2.43-3.223,5.018-6.348,7.947-9.277c0.023-0.023,0.049-0.049,0.061-0.072l98.252-98.24v-87.277h-0.012
		c-9.791,0-17.713-7.936-17.713-17.725v-53.124c0-9.79,7.922-17.724,17.713-17.724h106.076v-53.148H283.684v87.254l-98.25,98.24
		c-0.025,0.049-0.049,0.049-0.063,0.072c-34.557,34.545-34.557,90.574-0.012,125.119C202.73,487.511,225.52,496.154,248.285,496.056
		z"/>
</g>
</svg>
