<?xml version="1.0" encoding="utf-8"?>
<!-- Generator: Adobe Illustrator 16.0.0, SVG Export Plug-In . SVG Version: 6.00 Build 0)  -->
<!DOCTYPE svg PUBLIC "-//W3C//DTD SVG 1.0//EN" "http://www.w3.org/TR/2001/REC-SVG-20010904/DTD/svg10.dtd">
<svg version="1.0" id="Layer_1" xmlns="http://www.w3.org/2000/svg" xmlns:xlink="http://www.w3.org/1999/xlink" x="0px" y="0px"
	 width="708.66px" height="708.66px" viewBox="0 0 708.66 708.66" enable-background="new 0 0 708.66 708.66" xml:space="preserve">
<g>
	<path fill="none" stroke="#373431" stroke-width="12" stroke-linecap="round" stroke-linejoin="round" stroke-miterlimit="10" d="
		M602.363,602.363c19.568,0,35.425-15.869,35.425-35.425v-70.897c0-19.58-15.856-35.425-35.425-35.425H106.298
		c-19.567,0-35.424,15.845-35.424,35.425v70.897c0,19.556,15.857,35.425,35.424,35.425H602.363z"/>
	<path fill="none" stroke="#373431" stroke-width="12" stroke-linecap="round" stroke-linejoin="round" stroke-miterlimit="10" d="
		M584.639,460.616v-88.599c0-127.195-103.111-230.32-230.296-230.32c-127.208,0-230.333,103.125-230.333,230.32v88.599H584.639z"/>
	<path fill="none" stroke="#373431" stroke-width="12" stroke-linecap="round" stroke-linejoin="round" stroke-miterlimit="10" d="
		M637.788,531.49v35.448c0,19.189-15.308,34.741-34.387,35.302c-13.172,0.293-26.429-4.491-36.487-14.525l0.013-0.049
		c-19.567-19.556-51.281-19.556-70.873,0.024c-19.593,19.556-51.307,19.556-70.874,0.024l0.013-0.049
		c-19.568-19.556-51.281-19.556-70.874,0.024c-19.592,19.556-51.306,19.556-70.873,0.024l0.012-0.049
		c-19.567-19.556-51.281-19.556-70.861,0.024c-19.592,19.556-51.306,19.556-70.873,0.024l0.012-0.049
		c-18.152-18.14-46.63-19.214-66.32-3.711c-2.808-5.054-4.541-10.815-4.541-17.017v-35.474c19.592-19.555,51.293-19.531,70.861,0
		l-0.012,0.049c19.567,19.531,51.281,19.531,70.873-0.023c19.58-19.58,51.294-19.58,70.861-0.025l-0.012,0.049
		c19.567,19.531,51.281,19.531,70.873-0.023c19.593-19.58,51.306-19.58,70.874-0.025l-0.013,0.049
		c19.567,19.531,51.281,19.531,70.874-0.023c19.592-19.58,51.306-19.58,70.873-0.025l-0.013,0.049
		C586.482,551.045,618.196,551.045,637.788,531.49z"/>
	<path fill="none" stroke="#373431" stroke-width="12" stroke-linecap="round" stroke-linejoin="round" stroke-miterlimit="10" d="
		M106.298,460.616c12.83,0,25.647,4.883,35.437,14.647l-0.012,0.049c19.567,19.531,51.281,19.531,70.873-0.023
		c9.79-9.79,22.62-14.673,35.438-14.673c12.816,0,25.646,4.883,35.424,14.647l-0.012,0.049
		c19.567,19.531,51.281,19.531,70.873-0.023c9.79-9.79,22.62-14.673,35.449-14.673c12.817,0,25.635,4.883,35.425,14.647
		l-0.013,0.049c19.567,19.531,51.281,19.531,70.874-0.023c9.802-9.79,22.619-14.673,35.448-14.673
		c12.817,0,25.647,4.883,35.425,14.647l-0.013,0.049c18.152,18.115,46.644,19.215,66.333,3.688
		c2.808,5.078,4.541,10.814,4.541,17.041v35.449c-19.592,19.555-51.306,19.555-70.874,0.023l0.013-0.049
		c-19.567-19.555-51.281-19.555-70.873,0.025c-19.593,19.555-51.307,19.555-70.874,0.023l0.013-0.049
		c-19.568-19.555-51.281-19.555-70.874,0.025c-19.592,19.555-51.306,19.555-70.873,0.023l0.012-0.049
		c-19.567-19.555-51.281-19.555-70.861,0.025c-19.592,19.555-51.306,19.555-70.873,0.023l0.012-0.049
		c-19.568-19.531-51.269-19.555-70.861,0v-35.424c0-19.508,15.759-35.303,35.229-35.4L106.298,460.616z"/>
	<path fill="none" stroke="#373431" stroke-width="12" stroke-linecap="round" stroke-linejoin="round" stroke-miterlimit="10" d="
		M338.926,315.768c-16.956,0-20.996,13.794-9.021,30.64l2.649,3.711c11.975,16.846,31.567,16.846,43.542,0l2.661-3.711
		c11.987-16.846,7.935-30.64-9.009-30.64H338.926z"/>
	<path fill="none" stroke="#373431" stroke-width="12" stroke-linecap="round" stroke-linejoin="round" stroke-miterlimit="10" d="
		M354.355,362.765v50.097V362.765z"/>
	<path fill="none" stroke="#373431" stroke-width="12" stroke-linecap="round" stroke-linejoin="round" stroke-miterlimit="10" d="
		M425.204,385.031c-39.136,39.159-102.6,39.159-141.734,0.023C322.604,424.19,386.068,424.19,425.204,385.031z"/>
	<path fill="none" stroke="#373431" stroke-width="12" stroke-linecap="round" stroke-linejoin="round" stroke-miterlimit="10" d="
		M310.044,267.648c0,14.674-11.901,26.563-26.574,26.563s-26.575-11.889-26.575-26.563c0-14.672,11.902-26.586,26.575-26.586
		S310.044,252.976,310.044,267.648z"/>
	<path fill="none" stroke="#373431" stroke-width="12" stroke-linecap="round" stroke-linejoin="round" stroke-miterlimit="10" d="
		M296.751,280.929c0,7.349-5.945,13.281-13.281,13.281c-7.337,0-13.294-5.933-13.294-13.281c0-7.324,5.957-13.281,13.294-13.281
		C290.806,267.648,296.751,273.605,296.751,280.929z"/>
	<path fill="none" stroke="#373431" stroke-width="12" stroke-linecap="round" stroke-linejoin="round" stroke-miterlimit="10" d="
		M451.778,267.648c0,14.674-11.913,26.563-26.586,26.563s-26.563-11.889-26.563-26.563c0-14.672,11.89-26.586,26.563-26.586
		S451.778,252.976,451.778,267.648z"/>
	<path fill="none" stroke="#373431" stroke-width="12" stroke-linecap="round" stroke-linejoin="round" stroke-miterlimit="10" d="
		M438.498,280.929c0,7.349-5.957,13.281-13.306,13.281c-7.324,0-13.281-5.933-13.281-13.281c0-7.324,5.957-13.281,13.281-13.281
		C432.541,267.648,438.498,273.605,438.498,280.929z"/>
	<path fill="none" stroke="#373431" stroke-width="12" stroke-linecap="round" stroke-linejoin="round" stroke-miterlimit="10" d="
		M168.309,363.179h79.724H168.309z"/>
	<path fill="none" stroke="#373431" stroke-width="12" stroke-linecap="round" stroke-linejoin="round" stroke-miterlimit="10" d="
		M194.884,407.467l53.149-17.725L194.884,407.467z"/>
	<path fill="none" stroke="#373431" stroke-width="12" stroke-linecap="round" stroke-linejoin="round" stroke-miterlimit="10" d="
		M248.033,336.594l-53.149-17.7L248.033,336.594z"/>
	<path fill="none" stroke="#373431" stroke-width="12" stroke-linecap="round" stroke-linejoin="round" stroke-miterlimit="10" d="
		M540.353,363.179h-79.724H540.353z"/>
	<path fill="none" stroke="#373431" stroke-width="12" stroke-linecap="round" stroke-linejoin="round" stroke-miterlimit="10" d="
		M513.777,318.893l-53.148,17.7L513.777,318.893z"/>
	<path fill="none" stroke="#373431" stroke-width="12" stroke-linecap="round" stroke-linejoin="round" stroke-miterlimit="10" d="
		M460.629,389.742l53.148,17.725L460.629,389.742z"/>
	<path fill="none" stroke="#373431" stroke-width="12" stroke-linecap="round" stroke-linejoin="round" stroke-miterlimit="10" d="
		M183.031,218.455l-60.583-60.57L183.031,218.455z"/>
	<path fill="none" stroke="#373431" stroke-width="12" stroke-linecap="round" stroke-linejoin="round" stroke-miterlimit="10" d="
		M586.214,157.859l-60.596,60.596L586.214,157.859z"/>
	<path fill="none" stroke="#373431" stroke-width="12" stroke-linecap="round" stroke-linejoin="round" stroke-miterlimit="10" d="
		M457.87,166.502c52.514,26.514,93.358,72.461,113.28,128.466c44.372-54.907,66.613-121.752,66.638-188.671
		C574.336,106.322,511.08,126.609,457.87,166.502z"/>
	<path fill="none" stroke="#373431" stroke-width="12" stroke-linecap="round" stroke-linejoin="round" stroke-miterlimit="10" d="
		M250.792,166.502c-53.211-39.893-116.467-60.18-179.918-60.205c0.024,66.919,22.278,133.764,66.638,188.671
		C157.421,238.963,198.277,193.015,250.792,166.502z"/>
</g>
</svg>
