<?xml version="1.0" encoding="utf-8"?>
<!-- Generator: Adobe Illustrator 16.0.0, SVG Export Plug-In . SVG Version: 6.00 Build 0)  -->
<!DOCTYPE svg PUBLIC "-//W3C//DTD SVG 1.0//EN" "http://www.w3.org/TR/2001/REC-SVG-20010904/DTD/svg10.dtd">
<svg version="1.0" id="Layer_1" xmlns="http://www.w3.org/2000/svg" xmlns:xlink="http://www.w3.org/1999/xlink" x="0px" y="0px"
	 width="708.66px" height="708.66px" viewBox="0 0 708.66 708.66" enable-background="new 0 0 708.66 708.66" xml:space="preserve">
<g>
	<path fill="none" stroke="#373431" stroke-width="12" stroke-linecap="round" stroke-linejoin="round" stroke-miterlimit="10" d="
		M562.57,399.818l14.625,58.52c-123.033-123.044-322.441-123.093-445.547-0.195l-0.133-0.22l14.525-58.079
		C268.449,305.363,440.15,305.339,562.57,399.818z"/>
	<path fill="none" stroke="#373431" stroke-width="12" stroke-linecap="round" stroke-linejoin="round" stroke-miterlimit="10" d="
		M577.195,458.338c-123.033-123.044-322.441-123.093-445.547-0.195C283.537,427.943,434.168,429.773,577.195,458.338z"/>
	<path fill="none" stroke="#373431" stroke-width="12" stroke-linecap="round" stroke-linejoin="round" stroke-miterlimit="10" d="
		M438.184,170.234c43.506,16.748,80.711,54.882,91.734,99.021l0.635,2.49c30.811-43.018,46.617-93.455,46.643-144.137
		C528.588,127.633,480.041,141.89,438.184,170.234z"/>
	<path fill="none" stroke="#373431" stroke-width="12" stroke-linecap="round" stroke-linejoin="round" stroke-miterlimit="10" d="
		M178.682,269.256c11.291-45.141,49.926-83.982,94.699-100.096c-42.539-29.833-92.137-45.141-141.963-45.164
		c0.023,51.097,15.941,102.048,47.264,145.283V269.256z"/>
	<path fill="none" stroke="#373431" stroke-width="12" stroke-linecap="round" stroke-linejoin="round" stroke-miterlimit="10" d="
		M529.918,269.256c-14.855-59.447-77.184-108.104-138.461-108.104h-74.303c-61.289,0-123.605,48.656-138.473,108.104
		l-47.264,189.082c123.115-123.117,322.672-123.117,445.777,0L529.918,269.256z"/>
	<path fill="none" stroke="#373431" stroke-width="12" stroke-linecap="round" stroke-linejoin="round" stroke-miterlimit="10" d="
		M577.17,584.629c-10.266-21.045-9.51-43.652,0-63.158l0.025-0.024c9.508-19.507,10.266-42.089,0-63.108
		c10.266,21.02,9.508,43.602,0,63.108l-0.025,0.024C567.66,540.976,566.904,563.584,577.17,584.629z"/>
	<path fill="none" stroke="#373431" stroke-width="12" stroke-linecap="round" stroke-linejoin="round" stroke-miterlimit="10" d="
		M131.441,584.629c10.254-21.045,9.496-43.652,0-63.158l-0.023-0.024c-9.521-19.507-10.279-42.089,0-63.108
		c-10.279,21.02-9.521,43.602,0,63.108l0.023,0.024C140.938,540.976,141.695,563.584,131.441,584.629z"/>
</g>
</svg>
