<?xml version="1.0" encoding="iso-8859-1"?>
<!-- Uploaded to: SVG Repo, www.svgrepo.com, Generator: SVG Repo Mixer Tools -->
<svg fill="#000000" height="800px" width="800px" version="1.1" id="Layer_1" xmlns="http://www.w3.org/2000/svg" xmlns:xlink="http://www.w3.org/1999/xlink" 
	 viewBox="0 0 512 512" xml:space="preserve">
<g>
	<g>
		<g>
			<path d="M490.873,112.652c-0.269-0.749-0.632-1.467-1.069-2.147C465.78,63.648,424.033,27.32,373.471,10.408
				c-0.463-0.186-0.936-0.344-1.425-0.464C352.291,3.5,331.215,0,309.334,0c-32.327,0-62.901,7.62-90.044,21.139
				c-0.732,0.266-1.434,0.619-2.1,1.044c-46.842,24.012-83.165,65.735-100.091,116.268c-0.204,0.502-0.378,1.019-0.505,1.552
				c-6.433,19.742-9.928,40.799-9.928,62.659c0,32.306,7.611,62.862,21.114,89.992c0.273,0.762,0.642,1.49,1.086,2.18
				c4.783,9.325,10.278,18.225,16.394,26.646L3.127,463.616c-4.167,4.166-4.167,10.919,0,15.086l30.17,30.173
				c2,2.001,4.713,3.125,7.542,3.125c2.829,0,5.542-1.124,7.544-3.124L190.52,366.74c16.49,11.975,34.843,21.533,54.543,28.136
				c0.518,0.216,1.056,0.39,1.609,0.523c19.743,6.435,40.802,9.929,62.664,9.929c32.304,0,62.858-7.61,89.985-21.112
				c0.787-0.281,1.544-0.657,2.252-1.122c65.502-33.623,110.426-101.878,110.426-180.43
				C511.998,170.351,504.382,139.788,490.873,112.652z M450.932,89.532c-13.761-4.145-28.264-5.801-42.815-4.725
				c-28.237,2.093-54.816,14.272-74.835,34.291c-15.795,15.792-26.561,35.273-31.512,56.503
				c-8.64-14.691-13.261-31.467-13.261-48.958c0-46.746,34.253-87.28,80.077-95.357C401.266,42.617,429.729,63.046,450.932,89.532z
				 M230.015,39.628c23.976-11.711,50.891-18.293,79.319-18.293c6.851,0,13.607,0.395,20.261,1.138
				c-12.715,6.806-24.191,15.913-33.752,27.004c-18.488,21.445-28.67,48.851-28.67,77.166c0,22.336,6.162,43.724,17.671,62.234
				c-16.497-4.281-31.626-12.875-43.996-25.243C207.807,130.591,203.358,77.737,230.015,39.628z M196.2,61.068
				c-4.146,13.761-5.804,28.264-4.728,42.816c2.092,28.237,14.27,54.815,34.291,74.836c15.797,15.795,35.279,26.559,56.505,31.51
				c-14.692,8.638-31.47,13.259-48.963,13.259c-46.737,0-87.27-34.247-95.355-80.068C149.28,110.739,169.711,82.273,196.2,61.068z
				 M40.839,486.246l-15.085-15.088l133.003-133.001c4.763,5.288,9.799,10.323,15.087,15.086L40.839,486.246z M167.713,315.769
				c11.038,3.329,22.556,5.078,34.16,5.078c1.371,0,2.748-0.025,4.121-0.073c26.637-0.942,52.455-11.008,72.697-28.343
				c4.473-3.833,4.994-10.566,1.163-15.042c-3.834-4.475-10.565-4.997-15.041-1.164c-33.849,28.988-82.21,31.213-118.509,5.772
				c-11.717-23.977-18.303-50.899-18.303-79.333c0-6.848,0.396-13.605,1.137-20.258c6.807,12.714,15.916,24.188,27.004,33.748
				c21.445,18.487,48.848,28.669,77.162,28.669c27.805,0,54.143-9.541,75.281-27.066c13.968,17.194,21.57,38.478,21.57,60.933
				c0,46.74-34.247,87.271-80.063,95.355C217.397,362.711,188.922,342.271,167.713,315.769z M388.654,365.697
				c-23.972,11.712-50.89,18.294-79.318,18.294c-6.849,0.002-13.604-0.394-20.258-1.136c12.713-6.807,24.185-15.912,33.744-27.001
				c18.488-21.445,28.67-48.851,28.67-77.165c0-22.336-6.162-43.724-17.671-62.235c16.497,4.281,31.626,12.875,43.996,25.243
				C410.855,274.74,415.307,327.589,388.654,365.697z M422.468,344.261c4.144-13.76,5.801-28.262,4.723-42.812
				c-2.09-28.238-14.27-54.816-34.292-74.837c-15.797-15.795-35.279-26.56-56.503-31.511c14.69-8.637,31.466-13.258,48.96-13.258
				c12.873,0,25.424,2.514,37.302,7.473c5.44,2.269,11.682-0.298,13.953-5.735c2.269-5.437-0.298-11.684-5.734-13.954
				c-14.497-6.052-29.812-9.119-45.521-9.119c-22.34,0-43.727,6.161-62.235,17.669c4.282-16.499,12.875-31.627,25.243-43.993
				c33.042-33.042,85.893-37.493,124.002-10.841c11.711,23.974,18.294,50.891,18.294,79.319
				C490.663,259.893,464.005,311.005,422.468,344.261z"/>
			<path d="M462.28,188.97l-0.746-0.636c-4.49-3.813-11.222-3.267-15.037,1.222c-3.815,4.49-3.267,11.222,1.222,15.036l0.783,0.667
				c2.004,1.695,4.45,2.522,6.884,2.522c3.029,0,6.04-1.284,8.151-3.779C467.342,199.504,466.778,192.774,462.28,188.97z"/>
			<path d="M298.065,251.955c-4.925-3.233-11.538-1.858-14.772,3.066l-0.148,0.23c-3.267,4.902-1.944,11.525,2.958,14.792
				c1.819,1.213,3.875,1.793,5.909,1.793c3.445,0,6.829-1.668,8.884-4.751l0.239-0.366
				C304.361,261.796,302.988,255.186,298.065,251.955z"/>
		</g>
	</g>
</g>
</svg>