<?xml version="1.0" encoding="utf-8"?>
<!-- Generator: Adobe Illustrator 16.0.0, SVG Export Plug-In . SVG Version: 6.00 Build 0)  -->
<!DOCTYPE svg PUBLIC "-//W3C//DTD SVG 1.0//EN" "http://www.w3.org/TR/2001/REC-SVG-20010904/DTD/svg10.dtd">
<svg version="1.0" id="Layer_1" xmlns="http://www.w3.org/2000/svg" xmlns:xlink="http://www.w3.org/1999/xlink" x="0px" y="0px"
	 width="708.66px" height="708.66px" viewBox="0 0 708.66 708.66" enable-background="new 0 0 708.66 708.66" xml:space="preserve">
<g>
	<path fill="none" stroke="#373431" stroke-width="12" stroke-linecap="round" stroke-linejoin="round" stroke-miterlimit="10" d="
		M481.466,345.99c-1.611-3.851-11.547-3.784-25.928-0.61c-8.789-20.287-25.098-37.304-47.118-46.435
		c-2.734-1.153-5.688-1.074-8.203,0c-2.563,1.05-4.688,3.052-5.811,5.811c-4.858,11.67-6.909,24.536-5.762,37.45
		c-6.738-1.3-13.892-2.002-21.362-2.002c-10.547,0-20.532,1.44-29.516,3.925c0.928-3.51,1.465-7.147,1.465-10.938
		c0-27.111-25.122-49.108-56.127-49.108c-30.981,0-56.127,21.997-56.127,49.108c0,27.125,25.146,49.097,56.127,49.097
		c4.907,0,9.644-0.599,14.184-1.624c-0.049,0.562-0.146,1.099-0.146,1.624c0,23.278,31.396,42.09,70.141,42.09
		c38.745,0,70.166-18.812,70.166-42.09l0,0c0-1.099-0.123-2.161-0.172-3.26C465.036,365.906,483.98,352.069,481.466,345.99z"/>
	<path fill="none" stroke="#373431" stroke-width="12" stroke-linecap="round" stroke-linejoin="round" stroke-miterlimit="10" d="
		M437.276,379.028c-0.781-19.213-8.422-38.183-23.095-52.862C428.854,340.845,436.495,359.815,437.276,379.028z"/>
	<path fill="none" stroke="#373431" stroke-width="12" stroke-linecap="round" stroke-linejoin="round" stroke-miterlimit="10" d="
		M394.382,365.479c-3.149-7.624-5.029-15.455-5.737-23.274C389.352,350.025,391.232,357.855,394.382,365.479z"/>
	<path fill="none" stroke="#373431" stroke-width="12" stroke-linecap="round" stroke-linejoin="round" stroke-miterlimit="10" d="
		M339.231,368.262c-7.739,0-14.038,6.299-14.038,14.026c0,7.751,6.299,14.038,14.038,14.038c18.725,0,37.744-3.54,56.103-11.146
		c-18.359,7.605-37.378,11.146-56.103,11.146c-7.739,0-14.038-6.287-14.038-14.038C325.193,374.561,331.491,368.262,339.231,368.262
		z"/>
	<path fill="none" stroke="#373431" stroke-width="12" stroke-linecap="round" stroke-linejoin="round" stroke-miterlimit="10" d="
		M441.134,213.032c-47.924,47.949-125.658,47.949-173.606,0L106.298,374.256c136.986,136.986,359.08,136.986,496.066,0
		L441.134,213.032z"/>
	<path fill="none" stroke="#373431" stroke-width="12" stroke-linecap="round" stroke-linejoin="round" stroke-miterlimit="10" d="
		M637.788,602.354c0,19.494-15.942,35.437-35.424,35.437H106.298c-19.482,0-35.425-15.942-35.425-35.437V106.301
		c0-19.489,15.942-35.425,35.425-35.425h496.066c19.481,0,35.424,15.936,35.424,35.425V602.354z"/>
	<path fill="none" stroke="#373431" stroke-width="12" stroke-linecap="round" stroke-linejoin="round" stroke-miterlimit="10" d="
		M221.458,168.306c0,29.37-23.779,53.148-53.149,53.148c-29.346,0-53.149-23.778-53.149-53.148
		c0-29.346,23.804-53.149,53.149-53.149C197.679,115.157,221.458,138.96,221.458,168.306z"/>
	
		<rect x="522.652" y="115.157" fill="none" stroke="#373431" stroke-width="12" stroke-linecap="round" stroke-linejoin="round" stroke-miterlimit="10" width="70.849" height="53.149"/>
	
		<rect x="460.616" y="115.157" fill="none" stroke="#373431" stroke-width="12" stroke-linecap="round" stroke-linejoin="round" stroke-miterlimit="10" width="35.449" height="53.149"/>
	<path fill="none" stroke="#373431" stroke-width="12" stroke-linecap="round" stroke-linejoin="round" stroke-miterlimit="10" d="
		M115.16,593.492h106.298H115.16z"/>
	<path fill="none" stroke="#373431" stroke-width="12" stroke-linecap="round" stroke-linejoin="round" stroke-miterlimit="10" d="
		M115.16,558.067h70.874H115.16z"/>
	<path fill="none" stroke="#373431" stroke-width="12" stroke-linecap="round" stroke-linejoin="round" stroke-miterlimit="10" d="
		M221.458,558.067h106.298H221.458z"/>
	<path fill="none" stroke="#373431" stroke-width="12" stroke-linecap="round" stroke-linejoin="round" stroke-miterlimit="10" d="
		M168.309,115.157v106.298V115.157z"/>
	<path fill="none" stroke="#373431" stroke-width="12" stroke-linecap="round" stroke-linejoin="round" stroke-miterlimit="10" d="
		M115.16,522.631h177.172H115.16z"/>
	<path fill="none" stroke="#373431" stroke-width="12" stroke-linecap="round" stroke-linejoin="round" stroke-miterlimit="10" d="
		M451.778,522.631h70.85H451.778z"/>
	<path fill="none" stroke="#373431" stroke-width="12" stroke-linecap="round" stroke-linejoin="round" stroke-miterlimit="10" d="
		M451.778,558.067h35.425H451.778z"/>
	<path fill="none" stroke="#373431" stroke-width="12" stroke-linecap="round" stroke-linejoin="round" stroke-miterlimit="10" d="
		M522.628,558.067h70.873H522.628z"/>
	<path fill="none" stroke="#373431" stroke-width="12" stroke-linecap="round" stroke-linejoin="round" stroke-miterlimit="10" d="
		M451.778,593.492h106.299H451.778z"/>
</g>
</svg>
