<?xml version="1.0" encoding="utf-8"?>
<!-- Generator: Adobe Illustrator 16.0.0, SVG Export Plug-In . SVG Version: 6.00 Build 0)  -->
<!DOCTYPE svg PUBLIC "-//W3C//DTD SVG 1.0//EN" "http://www.w3.org/TR/2001/REC-SVG-20010904/DTD/svg10.dtd">
<svg version="1.0" id="Layer_1" xmlns="http://www.w3.org/2000/svg" xmlns:xlink="http://www.w3.org/1999/xlink" x="0px" y="0px"
	 width="708.66px" height="708.66px" viewBox="0 0 708.66 708.66" enable-background="new 0 0 708.66 708.66" xml:space="preserve">
<g>
	<path fill="none" stroke="#373431" stroke-width="12" stroke-linecap="round" stroke-linejoin="round" stroke-miterlimit="10" d="
		M354.367,538.793v-42.749c0-48.925,39.672-88.573,88.598-88.573l-0.025,0.013C442.94,466.943,406.296,517.772,354.367,538.793z"/>
	<path fill="none" stroke="#373431" stroke-width="12" stroke-linecap="round" stroke-linejoin="round" stroke-miterlimit="10" d="
		M442.94,228.572c5.664,1.099,11.572,1.752,17.701,1.752c39.135,0,70.873-23.798,70.873-53.149
		c0-29.382-31.738-53.149-70.873-53.149c-39.136,0-70.85,23.768-70.85,53.149v177.159c0,19.556-15.869,35.437-35.449,35.437v-0.012
		c-19.556,0-35.425-15.869-35.425-35.444V248.036c-110.717,0-210.911-44.854-283.469-117.419c0,60.29,25.219,114.623,65.527,153.308
		c10.4,26.422,27.001,49.676,47.949,68.139c8.667,26.404,24.976,49.317,46.167,66.321h-38.647
		c-33.398,0-63.647,13.537-85.546,35.412c41.675,0.013,83.349,15.882,115.136,47.692l0,0c29.492,29.456,70.19,47.705,115.185,47.705
		v0.013c78.295,0,141.722-63.452,141.722-141.723l0,0V228.572z"/>
	<path fill="none" stroke="#373431" stroke-width="12" stroke-linecap="round" stroke-linejoin="round" stroke-miterlimit="10" d="
		M248.02,343.219c-57.104,0-108.837-22.644-147.044-59.295C139.183,320.576,190.916,343.219,248.02,343.219z"/>
	<path fill="none" stroke="#373431" stroke-width="12" stroke-linecap="round" stroke-linejoin="round" stroke-miterlimit="10" d="
		M265.769,396.362c-44.848,0-85.693-16.797-116.845-44.299C180.076,379.565,220.921,396.362,265.769,396.362z"/>
	<path fill="none" stroke="#373431" stroke-width="12" stroke-linecap="round" stroke-linejoin="round" stroke-miterlimit="10" d="
		M318.918,484.912c0-19.58-15.869-35.438-35.424-35.438v0.037c-33.496,0-64.16-11.707-88.403-31.128
		c24.243,19.421,54.907,31.128,88.403,31.128v-0.037C303.049,449.475,318.918,465.332,318.918,484.912z"/>
	<path fill="none" stroke="#373431" stroke-width="12" stroke-linecap="round" stroke-linejoin="round" stroke-miterlimit="10" d="
		M442.94,228.572c-10.205-1.966-19.53-5.53-27.392-10.406C423.41,223.042,432.735,226.606,442.94,228.572z"/>
	<path fill="none" stroke="#373431" stroke-width="12" stroke-linecap="round" stroke-linejoin="round" stroke-miterlimit="10" d="
		M478.366,163.125c-9.791-9.79-25.66-9.79-35.426,0C452.706,153.334,468.575,153.334,478.366,163.125z"/>
	<path fill="none" stroke="#373431" stroke-width="12" stroke-linecap="round" stroke-linejoin="round" stroke-miterlimit="10" d="
		M530.758,169.856c0.439,2.399,0.757,4.828,0.757,7.318c0,13.623-6.909,26.025-18.14,35.418h159.862L530.758,169.856z"/>
	<path fill="none" stroke="#373431" stroke-width="12" stroke-linecap="round" stroke-linejoin="round" stroke-miterlimit="10" d="
		M301.194,549.206h-73.876c-33.423,0-63.671,13.537-85.571,35.437h-35.424h35.424c21.899-21.899,52.148-35.437,85.571-35.437
		H301.194z"/>
	<path fill="none" stroke="#373431" stroke-width="12" stroke-linecap="round" stroke-linejoin="round" stroke-miterlimit="10" d="
		M536.91,370.643l65.454-158.05v0.013l65.478,158.049c3.467,8.35,5.396,17.518,5.396,27.1v-0.085
		c0,39.135-31.714,70.861-70.873,70.861l0,0c-39.111,0-70.85-31.714-70.85-70.861v0.085c-0.024-9.582,1.929-18.75,5.396-27.1
		V370.643z"/>
	<path fill="none" stroke="#373431" stroke-width="12" stroke-linecap="round" stroke-linejoin="round" stroke-miterlimit="10" d="
		M612.764,422.705l-68.896-68.866L612.764,422.705z"/>
	<path fill="none" stroke="#373431" stroke-width="12" stroke-linecap="round" stroke-linejoin="round" stroke-miterlimit="10" d="
		M667.842,370.654l-65.478-158.049l0,0v185.04l0,0l0,0c0,9.79,3.979,18.652,10.4,25.061c6.396,6.408,15.258,10.388,25.048,10.388
		l0,0c19.556,0,35.425-15.868,35.425-35.424v0.085C673.237,388.172,671.308,379.004,667.842,370.654z"/>
	<path fill="none" stroke="#373431" stroke-width="12" stroke-linecap="round" stroke-linejoin="round" stroke-miterlimit="10" d="
		M602.387,191.34c0-24.456,19.824-44.299,44.287-44.299C646.675,171.51,626.85,191.34,602.387,191.34z"/>
	<path fill="none" stroke="#373431" stroke-width="12" stroke-linecap="round" stroke-linejoin="round" stroke-miterlimit="10" d="
		M567.598,139.235c23.975,4.768,39.574,28.082,34.789,52.081C578.413,186.537,562.813,163.234,567.598,139.235z"/>
</g>
</svg>
